<svg xmlns="http://www.w3.org/2000/svg" width="1140" height="640" fill="none" xmlns:v="https://vecta.io/nano"><style><![CDATA[.B{fill:#fff}.C{fill:#eea886}.D{fill:#0668e1}.E{stroke:#0668e1}.F{stroke-width:1.19}.G{fill:#385369}.H{fill:#434343}.I{fill:#a77860}.J{fill:#4598e6}.K{fill:#efcdaf}]]></style><g clip-path="url(#S)"><rect width="1140" height="640" rx="16" class="B"/><path d="M1140 0H0v690.63h1140V0z" fill="#f1f7ff"/><mask id="A" maskUnits="userSpaceOnUse" x="0" y="0" width="606" height="691"><path d="M605.39 690.63C535 356.5 139.75 417.73 118.59 33.47c-.62-11.25.44-22.43 1.3-33.47H0v377.35 313.28h605.39z" class="B"/></mask><g mask="url(#A)"><path d="M605.39 0H0v690.63h605.39V0z" fill="url(#F)"/></g><mask id="B" maskUnits="userSpaceOnUse" x="118" y="0" width="795" height="691"><path d="M190.73 0H119.9c-.87 11.04-1.31 22.21-1.31 33.47 0 393.68 364.1 321.95 434.72 657.16h358.94C800.18 213.68 346.97 429.99 190.73 0z" class="B"/></mask><g mask="url(#B)"><path d="M912.26 0H118.59v690.63h793.66V0z" fill="url(#G)"/></g><mask id="C" maskUnits="userSpaceOnUse" x="0" y="280" width="416" height="411"><path d="M0 280.42v96.93 313.28h415.16C307.65 514.3 77.91 487.47 0 280.42z" class="B"/></mask><g mask="url(#C)"><path d="M415.16 280.3H0v410.21h415.16V280.3z" fill="url(#H)"/></g><path d="M135.59 222.16v50.65h-12.18v-50.65h12.18zm19.55 21.05v29.61h-11.72v-37.64h10.99l.73 8.04zm-1.39 9.5l-2.75.07a26 26 0 0 1 1.04-7.69c.7-2.27 1.68-4.2 2.96-5.78a12.6 12.6 0 0 1 4.56-3.58c1.79-.84 3.77-1.25 5.95-1.25 1.74 0 3.33.26 4.77.77a9.1 9.1 0 0 1 3.76 2.47 11.1 11.1 0 0 1 2.44 4.52c.58 1.86.87 4.15.87 6.89v23.69h-11.79v-23.73c0-1.51-.21-2.66-.63-3.45-.42-.81-1.02-1.37-1.81-1.67a8.1 8.1 0 0 0-2.89-.45c-1.21 0-2.23.23-3.06.7a5.4 5.4 0 0 0-2.02 1.95c-.49.81-.85 1.77-1.08 2.89-.21 1.11-.31 2.33-.31 3.65zm49.92-17.53v8.14h-22.68v-8.14h22.68zm-17.92-9.36h11.72v34.72c0 1 .12 1.77.35 2.33.23.53.63.92 1.18 1.15.58.21 1.34.31 2.3.31l1.67-.04 1.25-.17v8.38a19.2 19.2 0 0 1-3.13.73 20.7 20.7 0 0 1-3.48.28c-2.5 0-4.65-.39-6.44-1.18a8.4 8.4 0 0 1-4.04-3.72c-.93-1.69-1.39-3.9-1.39-6.61v-36.18zm40.81 47.7c-3.06 0-5.8-.47-8.21-1.43-2.41-.97-4.45-2.31-6.12-4-1.65-1.69-2.91-3.64-3.79-5.85a19.1 19.1 0 0 1-1.29-6.99v-1.32a24.5 24.5 0 0 1 1.15-7.65c.76-2.37 1.9-4.43 3.41-6.19a15.2 15.2 0 0 1 5.67-4.1 19.6 19.6 0 0 1 7.93-1.5 18.9 18.9 0 0 1 7.17 1.29 14.6 14.6 0 0 1 5.36 3.69c1.48 1.6 2.61 3.54 3.38 5.81.79 2.27 1.18 4.82 1.18 7.65v4.77h-30.75v-7.34h19.31v-.9c.02-1.25-.2-2.32-.66-3.2-.44-.88-1.09-1.55-1.95-2.02a6.5 6.5 0 0 0-3.13-.7 5.6 5.6 0 0 0-3.17.84c-.81.56-1.45 1.32-1.91 2.3-.44.95-.75 2.05-.94 3.31a27 27 0 0 0-.28 3.97v1.32c0 1.39.19 2.66.56 3.79a8.6 8.6 0 0 0 1.67 2.92c.74.79 1.62 1.4 2.64 1.84 1.04.44 2.23.66 3.55.66a13 13 0 0 0 4.73-.91c1.55-.6 2.89-1.6 4-2.99l5.32 6.33a13.8 13.8 0 0 1-3.27 3.17c-1.39 1.02-3.06 1.86-5.01 2.5-1.95.63-4.13.94-6.54.94zm32.42-29.01v28.32h-11.72v-37.64h10.96l.77 9.32zm11.13-9.6l-.21 10.89-1.88-.17-1.98-.1c-1.37 0-2.55.16-3.55.49a6 6 0 0 0-2.44 1.39c-.63.6-1.09 1.37-1.39 2.3-.28.93-.41 2.01-.38 3.24l-2.12-1.39c0-2.53.24-4.82.73-6.89a18.7 18.7 0 0 1 2.16-5.39c.93-1.53 2.05-2.7 3.38-3.51 1.32-.84 2.81-1.25 4.45-1.25.58 0 1.15.03 1.7.1a8.5 8.5 0 0 1 1.53.31zm18.23 29.89l7.41-29.61h12.35l-12.31 37.64h-7.31l-.14-8.04zm-4.38-29.61l7.31 29.61-.07 8.04h-7.34l-12.28-37.64h12.38zm40.01 0v37.64h-11.76v-37.64h11.76zm-12.45-9.71c0-1.67.6-3.04 1.81-4.1s2.77-1.6 4.7-1.6 3.49.53 4.7 1.6 1.81 2.44 1.81 4.1-.6 3.04-1.81 4.11-2.77 1.6-4.7 1.6-3.49-.53-4.7-1.6-1.81-2.44-1.81-4.11zm37.92 48.04c-3.06 0-5.8-.47-8.21-1.43-2.41-.97-4.45-2.31-6.12-4-1.65-1.69-2.91-3.64-3.79-5.85a19.1 19.1 0 0 1-1.29-6.99v-1.32c0-2.76.38-5.31 1.15-7.65.76-2.37 1.9-4.43 3.41-6.19a15.2 15.2 0 0 1 5.67-4.1 19.6 19.6 0 0 1 7.93-1.5 18.9 18.9 0 0 1 7.17 1.29c2.11.86 3.9 2.09 5.36 3.69 1.48 1.6 2.61 3.54 3.37 5.81.79 2.27 1.18 4.82 1.18 7.65v4.77h-30.75v-7.34h19.31v-.9c.02-1.25-.2-2.32-.66-3.2-.44-.88-1.09-1.55-1.95-2.02a6.5 6.5 0 0 0-3.13-.7 5.6 5.6 0 0 0-3.17.84c-.81.56-1.45 1.32-1.91 2.3-.44.95-.75 2.05-.94 3.31s-.28 2.57-.28 3.97v1.32c0 1.39.19 2.66.56 3.79a8.6 8.6 0 0 0 1.67 2.92c.74.79 1.62 1.4 2.64 1.84 1.04.44 2.23.66 3.55.66a13 13 0 0 0 4.73-.91c1.55-.6 2.89-1.6 4-2.99l5.32 6.33c-.76 1.09-1.85 2.15-3.27 3.17-1.39 1.02-3.06 1.86-5.01 2.5a21.3 21.3 0 0 1-6.54.94zm32.04-11.9l6.96-26.44h7.34l-2.61 13.26-6.89 24.39h-5.88l1.08-11.2zm-2.75-26.44l4.31 26.23.49 11.41h-7.13l-8.91-37.64h11.24zm23.24 25.68l4.35-25.68h11.24l-8.84 37.64h-7.13l.38-11.97zm-5.36-25.68l7.03 26.37 1.08 11.27h-5.95l-6.75-24.32-2.5-13.32h7.1zM148.7 342.35c0-.79-.12-1.5-.35-2.12-.23-.65-.66-1.25-1.29-1.81a11.5 11.5 0 0 0-2.71-1.67c-1.16-.58-2.69-1.18-4.59-1.81l-6.44-2.5c-2.06-.95-3.91-2.05-5.53-3.31-1.62-1.28-2.91-2.76-3.86-4.45-.95-1.72-1.43-3.71-1.43-5.98a11.8 11.8 0 0 1 1.46-5.88 13.4 13.4 0 0 1 4.07-4.49c1.76-1.25 3.83-2.2 6.19-2.85a28.3 28.3 0 0 1 7.76-1.01c3.71 0 6.98.65 9.81 1.95 2.85 1.27 5.08 3.1 6.68 5.46 1.62 2.34 2.44 5.11 2.44 8.31h-12.14a6.9 6.9 0 0 0-.8-3.37c-.51-.97-1.29-1.74-2.33-2.3a8.3 8.3 0 0 0-3.93-.83 9.5 9.5 0 0 0-3.86.7 5.4 5.4 0 0 0-2.37 1.88c-.53.77-.8 1.61-.8 2.54a3.7 3.7 0 0 0 .63 2.09c.44.6 1.06 1.17 1.84 1.71.81.53 1.79 1.04 2.92 1.53 1.16.49 2.46.96 3.9 1.43a47.5 47.5 0 0 1 7.17 2.89 22 22 0 0 1 5.32 3.58 13.2 13.2 0 0 1 3.31 4.52c.77 1.69 1.15 3.61 1.15 5.74 0 2.27-.44 4.29-1.32 6.05a12.6 12.6 0 0 1-3.79 4.49c-1.65 1.21-3.62 2.12-5.91 2.75s-4.86.94-7.69.94c-2.6 0-5.16-.32-7.69-.97-2.5-.67-4.78-1.69-6.82-3.06-2.04-1.39-3.68-3.17-4.91-5.32-1.21-2.18-1.81-4.77-1.81-7.76h12.25c0 1.48.2 2.74.59 3.76s.97 1.84 1.74 2.47c.76.6 1.7 1.04 2.82 1.32 1.11.26 2.39.38 3.83.38 1.55 0 2.81-.22 3.76-.66.95-.46 1.65-1.07 2.09-1.81.44-.77.66-1.6.66-2.5zm33.85 5.11a6 6 0 0 0 2.78-.59c.79-.42 1.38-1 1.77-1.74a5.4 5.4 0 0 0 .59-2.75h11.03c.02 2.83-.67 5.31-2.09 7.44-1.39 2.11-3.29 3.76-5.71 4.94-2.39 1.16-5.09 1.74-8.11 1.74-2.94 0-5.52-.47-7.72-1.43-2.2-.97-4.05-2.32-5.53-4.04-1.46-1.74-2.56-3.77-3.31-6.09-.72-2.32-1.08-4.84-1.08-7.55v-.8c0-2.71.36-5.23 1.08-7.55.74-2.34 1.84-4.37 3.31-6.09a15 15 0 0 1 5.5-4.04c2.2-.97 4.77-1.46 7.69-1.46 3.13 0 5.89.59 8.28 1.77a13.4 13.4 0 0 1 5.67 5.15c1.37 2.25 2.04 4.98 2.02 8.18H187.7a7.6 7.6 0 0 0-.52-3.06 4.7 4.7 0 0 0-1.74-2.16 4.9 4.9 0 0 0-2.96-.83 4.9 4.9 0 0 0-2.92.8c-.74.53-1.31 1.28-1.7 2.23-.37.93-.63 2-.77 3.2a40.4 40.4 0 0 0-.17 3.86v.8c0 1.39.06 2.7.17 3.93.14 1.21.41 2.27.8 3.2a5.1 5.1 0 0 0 1.71 2.16c.74.51 1.73.77 2.96.77zm32.67-45.09v53.44H203.5v-53.44h11.72zm-1.39 33.33l-2.75.07a26 26 0 0 1 .97-7.31 18.5 18.5 0 0 1 2.78-5.81 12.9 12.9 0 0 1 4.35-3.83c1.69-.91 3.57-1.36 5.64-1.36 1.86 0 3.55.27 5.08.8 1.55.53 2.89 1.39 4 2.57a11.6 11.6 0 0 1 2.61 4.63 22.4 22.4 0 0 1 .94 6.96v23.38h-11.79v-23.45c0-1.53-.22-2.71-.66-3.55-.42-.86-1.02-1.45-1.81-1.77-.79-.35-1.75-.52-2.89-.52a7 7 0 0 0-3.34.7c-.86.46-1.52 1.11-1.98 1.95-.44.81-.74 1.77-.9 2.89a25.3 25.3 0 0 0-.24 3.65zm48.36 20.8c-3.06 0-5.8-.47-8.21-1.43-2.41-.97-4.45-2.31-6.12-4-1.65-1.69-2.91-3.64-3.79-5.85a19.1 19.1 0 0 1-1.29-6.99v-1.32a24.5 24.5 0 0 1 1.15-7.65c.76-2.37 1.9-4.43 3.41-6.19a15.2 15.2 0 0 1 5.67-4.1 19.6 19.6 0 0 1 7.93-1.5 18.9 18.9 0 0 1 7.17 1.29 14.6 14.6 0 0 1 5.36 3.69c1.49 1.6 2.61 3.54 3.38 5.81.79 2.27 1.18 4.82 1.18 7.65v4.77h-30.75v-7.34h19.31v-.9c.02-1.25-.2-2.32-.66-3.2-.44-.88-1.09-1.55-1.95-2.02a6.5 6.5 0 0 0-3.13-.7 5.6 5.6 0 0 0-3.17.83c-.81.56-1.45 1.32-1.91 2.3a12 12 0 0 0-.94 3.31 27 27 0 0 0-.28 3.97v1.32c0 1.39.19 2.65.56 3.79a8.6 8.6 0 0 0 1.67 2.92c.74.79 1.62 1.4 2.64 1.84 1.04.44 2.23.66 3.55.66a13 13 0 0 0 4.73-.91c1.55-.6 2.89-1.6 4-2.99l5.32 6.33a13.8 13.8 0 0 1-3.27 3.17c-1.39 1.02-3.06 1.86-5.01 2.5-1.95.63-4.13.94-6.54.94zm42.23-9.32v-44.81h11.79v53.44h-10.58l-1.22-8.63zm-23.1-9.74v-.73c0-2.85.31-5.45.94-7.79.63-2.37 1.55-4.4 2.78-6.09 1.23-1.72 2.76-3.04 4.59-3.97s3.94-1.39 6.33-1.39c2.13 0 4 .5 5.6 1.5 1.6.97 2.97 2.34 4.11 4.1s2.06 3.83 2.78 6.19c.72 2.34 1.26 4.87 1.64 7.58v.87c-.37 2.55-.92 4.96-1.64 7.24-.72 2.25-1.65 4.24-2.78 5.98a13.2 13.2 0 0 1-4.14 4.11c-1.6.97-3.48 1.46-5.64 1.46-2.39 0-4.5-.47-6.33-1.43a13 13 0 0 1-4.56-4c-1.21-1.72-2.12-3.73-2.75-6.05s-.94-4.85-.94-7.59zm11.72-.73v.73a26 26 0 0 0 .28 3.93 11.5 11.5 0 0 0 .94 3.2c.46.91 1.07 1.61 1.81 2.12.76.51 1.7.77 2.82.77a6.1 6.1 0 0 0 3.72-1.08c1-.72 1.73-1.74 2.19-3.06a12.1 12.1 0 0 0 .63-4.66v-2.75c.05-1.53-.06-2.88-.31-4.04a8 8 0 0 0-1.22-2.96c-.53-.79-1.22-1.38-2.05-1.77-.81-.42-1.77-.63-2.89-.63a4.9 4.9 0 0 0-2.78.77c-.74.51-1.34 1.23-1.81 2.16-.46.9-.8 1.98-1.01 3.24-.21 1.23-.31 2.57-.31 4.04zm51.8 9.95v-28.49h11.76v37.64h-10.99l-.77-9.15zm1.11-7.65l3.06-.07c0 2.53-.3 4.87-.9 7.03-.6 2.13-1.5 3.99-2.68 5.57-1.16 1.58-2.6 2.81-4.31 3.69-1.69.86-3.65 1.29-5.88 1.29-1.86 0-3.56-.25-5.11-.76-1.53-.53-2.85-1.36-3.97-2.47a11.7 11.7 0 0 1-2.61-4.35 20.1 20.1 0 0 1-.91-6.4v-24.35h11.73v24.42a6.6 6.6 0 0 0 .31 2.16 4.2 4.2 0 0 0 .9 1.53c.39.39.88.7 1.46.91a7 7 0 0 0 2.05.28c1.76 0 3.14-.37 4.14-1.11a5.8 5.8 0 0 0 2.09-3.03c.42-1.28.63-2.71.63-4.31zm29.5-36.63v53.44h-11.76v-53.44h11.76zm19.62 15.8v37.64h-11.76v-37.64h11.76zm-12.45-9.71c0-1.67.6-3.04 1.81-4.11s2.77-1.6 4.7-1.6 3.49.53 4.7 1.6 1.81 2.44 1.81 4.11-.6 3.04-1.81 4.1-2.77 1.6-4.7 1.6-3.49-.53-4.7-1.6-1.81-2.44-1.81-4.1zm31.21 17.74v29.61h-11.72v-37.64h10.99l.73 8.04zm-1.39 9.5l-2.75.07a26 26 0 0 1 1.04-7.69c.7-2.27 1.68-4.2 2.96-5.77a12.6 12.6 0 0 1 4.56-3.58c1.79-.83 3.77-1.25 5.95-1.25 1.74 0 3.33.25 4.77.76a9.1 9.1 0 0 1 3.76 2.47c1.07 1.14 1.88 2.64 2.44 4.52.58 1.86.87 4.15.87 6.89v23.69h-11.79v-23.73c0-1.51-.21-2.66-.63-3.44-.42-.81-1.02-1.37-1.81-1.67a8.1 8.1 0 0 0-2.89-.45c-1.21 0-2.23.23-3.06.7a5.4 5.4 0 0 0-2.02 1.95c-.49.81-.85 1.77-1.08 2.89-.21 1.11-.31 2.33-.31 3.65zm53.75-17.53h10.65v36.18c0 3.48-.8 6.43-2.4 8.84-1.6 2.44-3.84 4.28-6.71 5.53-2.85 1.27-6.19 1.91-10.02 1.91a21.3 21.3 0 0 1-5.18-.66c-1.76-.42-3.41-1.04-4.94-1.88s-2.82-1.87-3.86-3.1l4.91-6.89c.95 1.07 2.15 1.97 3.58 2.71 1.44.77 3.13 1.15 5.08 1.15 1.69 0 3.11-.3 4.24-.9 1.16-.6 2.04-1.48 2.64-2.64.6-1.14.9-2.52.9-4.14v-27.21l1.11-8.91zm-25.01 19.27v-.73a27.3 27.3 0 0 1 1.04-7.79c.72-2.37 1.74-4.4 3.06-6.09 1.35-1.72 2.97-3.04 4.87-3.97a14.5 14.5 0 0 1 6.44-1.39c2.57 0 4.69.5 6.33 1.5a10.8 10.8 0 0 1 4 4.1c1.02 1.76 1.81 3.83 2.37 6.19.58 2.34 1.07 4.87 1.46 7.58v.87c-.39 2.55-.94 4.96-1.64 7.24a24.3 24.3 0 0 1-2.64 5.98 12.4 12.4 0 0 1-4.11 4.11c-1.62.97-3.57 1.46-5.84 1.46a14.1 14.1 0 0 1-6.4-1.43 14.3 14.3 0 0 1-4.84-4c-1.32-1.72-2.34-3.73-3.06-6.05a26.3 26.3 0 0 1-1.04-7.59zm11.72-.73v.73a19 19 0 0 0 .38 3.93c.28 1.21.7 2.27 1.25 3.2.56.91 1.24 1.61 2.05 2.12a5.5 5.5 0 0 0 2.92.77 7.1 7.1 0 0 0 4.11-1.08 6 6 0 0 0 2.26-3.06c.46-1.32.66-2.88.59-4.66v-2.75c.05-1.53-.06-2.88-.31-4.04a8 8 0 0 0-1.22-2.96 4.9 4.9 0 0 0-2.16-1.77c-.88-.42-1.95-.63-3.2-.63a5.4 5.4 0 0 0-2.89.77 6.2 6.2 0 0 0-2.09 2.16c-.56.9-.99 1.98-1.29 3.24-.28 1.23-.42 2.57-.42 4.04zm-324.24 72.44h9.95l11.31 35.24 11.31-35.24h9.95l-17.22 50.65h-8.07l-17.22-50.65zm-6.05 0h10.3l1.91 38.83v11.83h-12.21v-50.65zm44.32 0h10.33v50.65h-12.25v-11.83l1.91-38.83zm37.16 41.19v-15.52a7.5 7.5 0 0 0-.45-2.75c-.3-.77-.78-1.36-1.43-1.77-.65-.44-1.52-.66-2.61-.66-.88 0-1.63.15-2.26.45a3.1 3.1 0 0 0-1.43 1.36c-.32.6-.49 1.37-.49 2.3H183.7a10.4 10.4 0 0 1 1.15-4.84c.79-1.51 1.9-2.82 3.34-3.93 1.46-1.11 3.2-1.97 5.22-2.57a23.2 23.2 0 0 1 6.82-.94c2.99 0 5.66.5 8 1.5a12.5 12.5 0 0 1 5.6 4.49c1.37 1.97 2.05 4.45 2.05 7.44v15.41c0 2.46.14 4.32.42 5.6a12.9 12.9 0 0 0 1.18 3.31v.59h-11.76c-.56-1.16-.97-2.57-1.25-4.24a35 35 0 0 1-.38-5.22zm1.43-13.53l.07 6.26h-5.18a7.6 7.6 0 0 0-2.78.45 4.7 4.7 0 0 0-1.81 1.25c-.44.51-.77 1.09-.97 1.74a7.4 7.4 0 0 0-.28 2.05c0 .7.16 1.32.49 1.88a3.6 3.6 0 0 0 1.39 1.25c.58.3 1.23.45 1.95.45a6.9 6.9 0 0 0 3.31-.73c.93-.51 1.64-1.12 2.12-1.84s.73-1.39.73-2.02l2.57 4.8a32 32 0 0 1-1.6 2.82c-.58.95-1.31 1.83-2.19 2.64-.86.79-1.91 1.44-3.17 1.95a12.6 12.6 0 0 1-4.56.73 14.4 14.4 0 0 1-6.4-1.43c-1.92-.95-3.47-2.27-4.63-3.97a10.3 10.3 0 0 1-1.74-5.91c0-1.95.35-3.69 1.04-5.22a10.2 10.2 0 0 1 3.23-3.9c1.44-1.07 3.27-1.88 5.5-2.44s4.85-.84 7.86-.84h5.04zm38.51 14.37v-44.81h11.79v53.44h-10.58l-1.22-8.63zm-23.1-9.74v-.73c0-2.85.31-5.45.94-7.79.63-2.37 1.55-4.4 2.78-6.09 1.23-1.72 2.76-3.04 4.59-3.97s3.94-1.39 6.33-1.39c2.13 0 4 .5 5.6 1.5 1.6.97 2.97 2.34 4.11 4.1s2.06 3.83 2.78 6.19c.72 2.34 1.26 4.87 1.63 7.58v.87c-.37 2.55-.92 4.96-1.63 7.24-.72 2.25-1.65 4.24-2.78 5.98s-2.52 3.11-4.14 4.11c-1.6.97-3.48 1.46-5.64 1.46-2.39 0-4.5-.47-6.33-1.43a13 13 0 0 1-4.56-4c-1.21-1.72-2.12-3.73-2.75-6.05a29 29 0 0 1-.94-7.59zm11.72-.73v.73c0 1.42.09 2.73.28 3.93a11.5 11.5 0 0 0 .94 3.2c.46.91 1.07 1.61 1.81 2.12.77.51 1.7.77 2.82.77a6.1 6.1 0 0 0 3.72-1.08c1-.72 1.73-1.74 2.19-3.06a12.1 12.1 0 0 0 .63-4.66v-2.75a16.6 16.6 0 0 0-.31-4.04 8 8 0 0 0-1.22-2.96c-.53-.79-1.22-1.38-2.05-1.77-.81-.42-1.77-.63-2.89-.63a4.9 4.9 0 0 0-2.78.77c-.74.51-1.35 1.23-1.81 2.16-.46.9-.8 1.98-1.01 3.24-.21 1.23-.31 2.57-.31 4.04zm48.04 19.79c-3.06 0-5.8-.47-8.21-1.43-2.41-.97-4.45-2.31-6.12-4-1.65-1.69-2.91-3.64-3.79-5.85a19.1 19.1 0 0 1-1.29-6.99v-1.32a24.5 24.5 0 0 1 1.15-7.65c.76-2.37 1.9-4.43 3.41-6.19a15.2 15.2 0 0 1 5.67-4.1 19.6 19.6 0 0 1 7.93-1.5 18.9 18.9 0 0 1 7.17 1.29 14.6 14.6 0 0 1 5.36 3.69c1.48 1.6 2.61 3.54 3.37 5.81.79 2.27 1.18 4.82 1.18 7.65v4.77h-30.75v-7.34h19.31v-.9c.02-1.25-.2-2.32-.66-3.2-.44-.88-1.09-1.55-1.95-2.02a6.5 6.5 0 0 0-3.13-.7 5.6 5.6 0 0 0-3.17.83c-.81.56-1.45 1.32-1.91 2.3a12.1 12.1 0 0 0-.94 3.31c-.19 1.25-.28 2.57-.28 3.97v1.32c0 1.39.19 2.65.56 3.79a8.6 8.6 0 0 0 1.67 2.92 7.9 7.9 0 0 0 2.64 1.84c1.04.44 2.23.66 3.55.66a13 13 0 0 0 4.73-.91c1.55-.6 2.89-1.6 4-2.99l5.32 6.33c-.76 1.09-1.85 2.15-3.27 3.17-1.39 1.02-3.06 1.86-5.01 2.5a21.3 21.3 0 0 1-6.54.94zm79.56-12.44l-2.04 11.74h-32.83l2.04-11.74h32.83zm-18.52-51.58l-11 63.32h-14.87l10.96-63.32h14.92zm18.87 25.13l-1.96 11.35h-28.61l2-11.35h28.57zm8.7-25.13l-2.04 11.78H334.3l2.09-11.78h32.92zm29.57 14.05l-23.31 49.27h-16.48l33.57-63.32h10.52l-4.31 14.05zm4 49.27l-6.44-50.79.35-12.52h9.92l11.7 63.32h-15.52zm3.39-23.61l-2.09 11.78h-31.62l2.09-11.78h31.62zm51.45 6.48c.26-1.36.16-2.52-.3-3.48a6.2 6.2 0 0 0-2-2.44c-.87-.67-1.87-1.23-3-1.7-1.1-.49-2.18-.94-3.22-1.35-2.26-.9-4.49-1.91-6.7-3.04a31.3 31.3 0 0 1-6-4.09c-1.8-1.57-3.2-3.39-4.22-5.48-.99-2.09-1.41-4.54-1.26-7.35.2-3.22 1.12-5.99 2.74-8.31a19.1 19.1 0 0 1 6.22-5.65 29.2 29.2 0 0 1 8.22-3.22c2.96-.7 5.84-1.01 8.65-.96 4 .06 7.57.87 10.7 2.44a17.8 17.8 0 0 1 7.44 6.74c1.8 2.9 2.67 6.41 2.61 10.52h-14.74c.06-1.62-.16-3.03-.65-4.22-.46-1.22-1.23-2.16-2.31-2.83a7.8 7.8 0 0 0-4.17-1.09 12.2 12.2 0 0 0-4.26.69 9.7 9.7 0 0 0-3.7 2.18 6.8 6.8 0 0 0-2 3.83c-.2 1.19-.01 2.23.56 3.13a7.8 7.8 0 0 0 2.39 2.26 21.5 21.5 0 0 0 3.18 1.57l2.96 1.13a50.5 50.5 0 0 1 6.83 3.18c2.2 1.19 4.15 2.59 5.83 4.22 1.71 1.62 3.01 3.52 3.91 5.7.93 2.15 1.3 4.64 1.13 7.48-.23 3.28-1.1 6.07-2.61 8.39a18.1 18.1 0 0 1-5.83 5.65 26.6 26.6 0 0 1-7.83 3.18c-2.84.67-5.73.99-8.65.96a31.2 31.2 0 0 1-9.18-1.48 22.4 22.4 0 0 1-7.44-4.13 18.6 18.6 0 0 1-4.91-6.7c-1.16-2.67-1.71-5.73-1.65-9.18l14.92.04c-.09 1.62.01 3.06.31 4.31a7.6 7.6 0 0 0 1.56 3.09c.75.81 1.73 1.44 2.91 1.87a13.4 13.4 0 0 0 4.31.61c1.42 0 2.78-.22 4.09-.65 1.33-.46 2.46-1.17 3.39-2.13s1.52-2.19 1.78-3.7zm41.36-46.18l6.52 27.4 16.05-27.4h16.7l-27.27 41.27-3.78 22.05h-15.18l4.09-23.48-12.7-39.79 15.57-.04zm58.75 0l-9.31 43.27h-11.65l5.7-43.27h15.26zm-25.48 57.01c-.06-2.26.7-4.1 2.26-5.52a8.2 8.2 0 0 1 5.65-2.13c2.09-.03 3.9.62 5.44 1.96 1.57 1.31 2.38 3.03 2.44 5.18.03 2.23-.74 4.07-2.31 5.52-1.57 1.42-3.44 2.13-5.61 2.13a8.1 8.1 0 0 1-5.48-1.91c-1.54-1.3-2.33-3.04-2.39-5.22z" fill="#5b5b5b"/><g filter="url(#E)"><path d="M323 71.25a11.9 11.9 0 0 0-11.87-11.87H0v89.06h311.13A11.9 11.9 0 0 0 323 136.56V71.25z" fill="#3886e7"/><path d="M47.66 107.53h-6.3v-4.71h6.3c.86 0 1.55-.14 2.09-.44s.92-.69 1.17-1.2c.26-.52.38-1.11.38-1.76 0-.7-.13-1.34-.38-1.93-.24-.59-.63-1.07-1.17-1.43-.53-.37-1.23-.56-2.09-.56h-4v20.61h-6.11V90.8h10.11c2.03 0 3.77.37 5.24 1.11 1.47.74 2.6 1.76 3.39 3.06a8.3 8.3 0 0 1 1.18 4.42 7.7 7.7 0 0 1-1.18 4.28c-.79 1.22-1.92 2.17-3.39 2.85-1.46.67-3.21 1.01-5.24 1.01zm22.39 3.86v-7.76c0-.53-.08-.99-.23-1.37s-.39-.68-.71-.89c-.32-.22-.76-.33-1.3-.33-.44 0-.82.08-1.13.23s-.55.38-.71.68a2.4 2.4 0 0 0-.24 1.15h-5.86a5.2 5.2 0 0 1 .57-2.42 6 6 0 0 1 1.67-1.97c.73-.56 1.6-.99 2.61-1.29a11.6 11.6 0 0 1 3.41-.47c1.5 0 2.83.25 4 .75 1.18.5 2.12 1.25 2.8 2.24.68.99 1.03 2.23 1.03 3.72v7.71c0 1.23.07 2.16.21 2.8.14.63.34 1.18.59 1.65v.3h-5.88c-.28-.58-.49-1.29-.63-2.12a17.5 17.5 0 0 1-.19-2.61zm.71-6.77l.03 3.13h-2.59a3.8 3.8 0 0 0-1.39.23c-.37.15-.67.36-.9.63-.22.25-.38.55-.49.87-.09.33-.14.67-.14 1.03 0 .35.08.66.24.94.17.27.41.48.7.63s.61.23.97.23c.65 0 1.2-.12 1.65-.36.46-.26.82-.56 1.06-.92s.37-.7.37-1.01l1.29 2.4c-.23.46-.5.93-.8 1.41a6.1 6.1 0 0 1-1.1 1.32c-.43.4-.96.72-1.58.98a6.3 6.3 0 0 1-2.28.36 7.2 7.2 0 0 1-3.2-.71c-.96-.48-1.73-1.14-2.31-1.98-.58-.86-.87-1.84-.87-2.96 0-.97.17-1.84.52-2.61a5.1 5.1 0 0 1 1.62-1.95c.72-.53 1.64-.94 2.75-1.22s2.42-.42 3.93-.42h2.52zm14.35-2.66v14.16h-5.86V97.3h5.48l.38 4.66zm5.57-4.8l-.1 5.44-.94-.09-.99-.05c-.68 0-1.28.08-1.77.24a3 3 0 0 0-1.22.7c-.31.3-.55.68-.7 1.15a5.3 5.3 0 0 0-.19 1.62l-1.06-.7a15 15 0 0 1 .37-3.44c.26-1.04.61-1.94 1.08-2.7.46-.77 1.03-1.35 1.69-1.76a4.1 4.1 0 0 1 2.23-.63c.29 0 .57.02.85.05.29.03.55.09.77.16zm12.8.14v4.07H92.14V97.3h11.34zm-8.96-4.68h5.86v17.36c0 .5.06.89.17 1.17.12.27.31.46.59.57.29.1.67.16 1.15.16l.84-.02.63-.09v4.19c-.5.16-1.02.28-1.56.37-.55.09-1.12.14-1.74.14-1.25 0-2.32-.2-3.22-.59a4.2 4.2 0 0 1-2.02-1.86c-.46-.85-.7-1.95-.7-3.3V92.62zm31.61 10.32v4.54h-10.45v-4.54h10.45zm31.42 3.29v4.52h-18.23l-.35-3.58 10.18-16.37h4.63l-5.03 8.23-4.18 7.2h12.98zm-2.56-15.43v25.33h-5.86V90.8h5.86z" class="B"/></g><g clip-path="url(#T)"><path d="M991.56 497.75a1079.5 1079.5 0 0 0-296.87 0c8.53-14.37 12.8-20.78 21.33-32.57-8.54-11.85-12.8-18.3-21.33-32.74 99.61 13.68 197.27 13.68 296.87 0a282.8 282.8 0 0 1-27.78 32.74c11.12 11.45 16.68 17.8 27.78 32.57z" class="D"/><path d="M756.99 464.88h-3.47l-.02-1.91h2.91c.51 0 .93-.06 1.26-.19.33-.14.57-.33.73-.58.17-.26.25-.57.25-.95 0-.42-.08-.76-.24-1.02-.15-.26-.4-.45-.73-.57-.33-.12-.75-.18-1.27-.18h-1.93v11.33h-2.78v-13.51h4.71a9.1 9.1 0 0 1 2.11.22 4.6 4.6 0 0 1 1.59.68 3 3 0 0 1 .99 1.15 3.6 3.6 0 0 1 .34 1.63 3.2 3.2 0 0 1-.38 1.54c-.25.47-.64.85-1.18 1.15-.53.3-1.23.46-2.09.49l-.81.71zm-.12 5.93h-4.11l1.09-2.17h3.02c.49 0 .89-.08 1.2-.23.31-.16.54-.38.69-.65s.22-.58.22-.94c0-.4-.07-.74-.2-1.03-.13-.29-.34-.51-.63-.67-.29-.16-.67-.24-1.15-.24h-2.68l.02-1.91h3.34l.64.75c.82-.01 1.48.13 1.99.44.51.3.88.68 1.1 1.16a3.4 3.4 0 0 1 .35 1.53 4 4 0 0 1-.57 2.19c-.38.59-.93 1.03-1.66 1.33a7 7 0 0 1-2.65.44zm11.42.19a5.6 5.6 0 0 1-2.1-.37 4.6 4.6 0 0 1-1.58-1.05c-.43-.45-.75-.96-.98-1.55a5.2 5.2 0 0 1-.34-1.89v-.37a6.4 6.4 0 0 1 .33-2.09 4.9 4.9 0 0 1 .93-1.64 4.1 4.1 0 0 1 1.48-1.07 4.9 4.9 0 0 1 1.97-.38 4.8 4.8 0 0 1 1.89.35 3.7 3.7 0 0 1 1.38 1 4.3 4.3 0 0 1 .85 1.56c.19.6.29 1.27.29 2v1.11h-7.98v-1.78h5.35v-.2a2.3 2.3 0 0 0-.21-.99c-.13-.3-.33-.53-.59-.71s-.61-.26-1.02-.26c-.35 0-.66.08-.91.23a1.8 1.8 0 0 0-.62.65c-.15.28-.27.61-.35.98-.07.37-.11.78-.11 1.23v.37c0 .4.05.77.17 1.11a2.7 2.7 0 0 0 .49.88c.22.25.48.44.78.58.31.14.66.2 1.05.2.48 0 .93-.09 1.35-.28a2.9 2.9 0 0 0 1.09-.86l1.3 1.41c-.21.3-.5.59-.86.87a4.6 4.6 0 0 1-1.3.69c-.51.17-1.09.26-1.74.26zm8.25-14.44v14.25h-2.67v-14.25h2.67zm-.38 8.88h-.73c.01-.7.1-1.34.28-1.93.18-.59.44-1.11.77-1.54.33-.44.73-.78 1.2-1.02.47-.24.99-.36 1.56-.36a4 4 0 0 1 1.35.21 2.5 2.5 0 0 1 1.05.67 3 3 0 0 1 .69 1.2c.16.5.24 1.1.24 1.8v6.35h-2.69v-6.36c0-.44-.07-.79-.2-1.05-.12-.26-.31-.44-.55-.55-.24-.11-.53-.17-.87-.17a2.1 2.1 0 0 0-.98.21c-.27.14-.48.34-.64.59-.16.25-.28.54-.35.87s-.11.69-.11 1.08zm13.84 3.11v-4.47c0-.32-.05-.6-.16-.83-.11-.23-.27-.42-.49-.55s-.5-.19-.85-.19c-.3 0-.55.05-.77.16-.22.1-.38.24-.5.44-.12.19-.18.4-.18.66h-2.67c0-.43.1-.83.3-1.22s.49-.72.86-1.01c.38-.3.83-.53 1.35-.7a5.8 5.8 0 0 1 1.76-.25c.78 0 1.47.13 2.08.39s1.08.65 1.43 1.17a3.4 3.4 0 0 1 .53 1.95v4.3c0 .55.03 1 .1 1.35.07.35.17.65.3.91v.16h-2.7c-.13-.27-.23-.61-.3-1.02a8.4 8.4 0 0 1-.09-1.24zm.35-3.85l.02 1.51h-1.49a3.1 3.1 0 0 0-.92.12 1.7 1.7 0 0 0-.64.34c-.17.14-.29.31-.37.5s-.11.4-.11.63.05.44.16.62.26.32.46.43c.2.1.43.15.7.15.4 0 .75-.08 1.05-.24s.53-.36.69-.59c.17-.24.25-.46.26-.67l.7 1.13a4.6 4.6 0 0 1-.41.79c-.17.27-.38.53-.64.77a3.3 3.3 0 0 1-.94.58c-.37.15-.8.22-1.3.22a3.9 3.9 0 0 1-1.74-.38c-.51-.26-.92-.62-1.22-1.07a2.8 2.8 0 0 1-.45-1.56c0-.53.1-.99.3-1.4s.49-.75.87-1.03a4.1 4.1 0 0 1 1.46-.64c.58-.15 1.25-.22 2.02-.22h1.55zm7.66 4.16l2.23-8.09h2.79l-3.39 10.04h-1.69l.06-1.95zm-1.53-8.09l2.24 8.1.05 1.94h-1.7l-3.39-10.04h2.8zm10.57 0v10.04h-2.68v-10.04h2.68zm-2.85-2.62c0-.39.14-.71.41-.97s.64-.38 1.09-.38.81.13 1.09.38c.28.25.42.58.42.97s-.14.71-.42.96c-.27.25-.63.38-1.09.38s-.82-.13-1.09-.38-.41-.57-.41-.96zm4.63 7.74v-.19a6.3 6.3 0 0 1 .31-2.03 4.7 4.7 0 0 1 .92-1.62 4.1 4.1 0 0 1 1.48-1.07c.59-.26 1.26-.39 2.02-.39a5 5 0 0 1 2.03.39 4.1 4.1 0 0 1 1.49 1.07c.41.46.72 1 .93 1.62a6.3 6.3 0 0 1 .32 2.03v.19c0 .73-.11 1.41-.32 2.03-.21.62-.52 1.16-.93 1.62-.4.46-.9.81-1.48 1.07s-1.26.38-2.02.38-1.44-.13-2.03-.38a4.2 4.2 0 0 1-1.49-1.07c-.4-.46-.71-1-.92-1.62-.21-.62-.31-1.3-.31-2.03zm2.67-.19v.19c0 .42.04.81.11 1.18s.19.69.35.96c.17.27.38.49.65.64s.59.23.97.23c.37 0 .69-.08.96-.23s.48-.37.64-.64c.16-.28.28-.6.35-.96.08-.37.12-.76.12-1.18v-.19a5.2 5.2 0 0 0-.12-1.15c-.07-.37-.19-.69-.36-.97-.16-.28-.37-.51-.64-.67s-.59-.24-.97-.24-.7.08-.97.24a1.9 1.9 0 0 0-.64.67c-.16.28-.28.6-.35.97a5.7 5.7 0 0 0-.11 1.15zm11.15-2.74v7.85h-2.67v-10.04h2.51l.16 2.19zm3.02-2.25l-.05 2.48-.47-.05-.49-.03c-.38 0-.71.05-.98.15-.27.09-.5.23-.69.42-.18.19-.31.41-.41.68-.09.27-.14.57-.15.91l-.54-.17a7.7 7.7 0 0 1 .19-1.79c.13-.55.32-1.03.57-1.44.25-.41.56-.72.93-.95s.78-.33 1.25-.33c.15 0 .3.01.45.04a1.7 1.7 0 0 1 .38.08zm13.99 5.62h2.77c-.06.91-.31 1.72-.75 2.42-.44.71-1.05 1.25-1.85 1.65-.78.4-1.73.59-2.84.59a5.8 5.8 0 0 1-2.33-.44c-.69-.3-1.27-.74-1.76-1.3a5.8 5.8 0 0 1-1.1-2.04 8.8 8.8 0 0 1-.38-2.68v-.94a8.6 8.6 0 0 1 .39-2.68 5.9 5.9 0 0 1 1.13-2.05c.5-.56 1.09-1 1.77-1.3s1.45-.45 2.3-.45c1.13 0 2.08.2 2.85.61.78.41 1.38.97 1.81 1.69a5.7 5.7 0 0 1 .78 2.45h-2.78c-.03-.54-.14-1-.33-1.38-.18-.38-.47-.67-.84-.86-.37-.2-.87-.3-1.48-.3-.46 0-.87.09-1.22.26s-.64.44-.87.79a3.9 3.9 0 0 0-.53 1.34 9.2 9.2 0 0 0-.17 1.87v.96a9.6 9.6 0 0 0 .16 1.85 4.2 4.2 0 0 0 .48 1.34c.22.36.51.63.85.82.35.18.78.27 1.27.27.58 0 1.06-.09 1.44-.28s.67-.46.86-.83c.2-.37.32-.82.36-1.36zm4.01-.44v-.19a6.3 6.3 0 0 1 .31-2.03 4.7 4.7 0 0 1 .92-1.62 4.1 4.1 0 0 1 1.48-1.07c.59-.26 1.26-.39 2.02-.39a5 5 0 0 1 2.03.39 4.1 4.1 0 0 1 1.49 1.07 4.6 4.6 0 0 1 .93 1.62c.21.62.32 1.3.32 2.03v.19a6.3 6.3 0 0 1-.32 2.03c-.21.62-.52 1.16-.93 1.62-.4.46-.9.81-1.49 1.07s-1.26.38-2.02.38-1.44-.13-2.03-.38a4.2 4.2 0 0 1-1.49-1.07 4.8 4.8 0 0 1-.92-1.62c-.21-.62-.31-1.3-.31-2.03zm2.67-.19v.19c0 .42.04.81.11 1.18a3.2 3.2 0 0 0 .35.96c.17.27.38.49.65.64s.59.23.97.23c.37 0 .69-.08.95-.23s.48-.37.64-.64a3.2 3.2 0 0 0 .35-.96c.08-.37.12-.76.12-1.18v-.19a5.2 5.2 0 0 0-.12-1.15c-.07-.37-.2-.69-.36-.97a1.8 1.8 0 0 0-.64-.67c-.27-.16-.59-.24-.96-.24s-.7.08-.96.24a1.9 1.9 0 0 0-.64.67 3.2 3.2 0 0 0-.35.97 5.7 5.7 0 0 0-.11 1.15zm11.09-2.78v7.9h-2.67v-10.04h2.5l.17 2.14zm-.39 2.52h-.72a6.5 6.5 0 0 1 .29-2c.19-.6.46-1.11.81-1.53.35-.43.76-.75 1.23-.97a3.7 3.7 0 0 1 1.61-.34 3.9 3.9 0 0 1 1.29.2c.39.14.72.35 1 .65.28.3.5.69.65 1.18a6 6 0 0 1 .23 1.79v6.4h-2.69v-6.41c0-.44-.06-.79-.18-1.04s-.31-.42-.55-.52c-.24-.11-.52-.16-.87-.16-.36 0-.67.07-.94.21-.26.14-.48.34-.65.59a2.8 2.8 0 0 0-.38.87 4.3 4.3 0 0 0-.13 1.08zm13.85 2.6c0-.19-.06-.37-.17-.52s-.32-.3-.62-.43c-.3-.14-.73-.26-1.29-.37a10 10 0 0 1-1.42-.42c-.43-.17-.81-.38-1.13-.62a2.7 2.7 0 0 1-.74-.85c-.18-.33-.27-.72-.27-1.14a2.7 2.7 0 0 1 .27-1.19c.19-.37.45-.7.79-.98.35-.29.77-.52 1.26-.68.5-.17 1.06-.25 1.69-.25a5.5 5.5 0 0 1 2.25.42c.63.28 1.11.66 1.45 1.15a2.8 2.8 0 0 1 .51 1.65h-2.67c0-.26-.06-.49-.17-.7-.11-.21-.27-.37-.5-.49-.22-.12-.51-.19-.87-.19-.3 0-.55.05-.77.16-.22.1-.38.23-.5.41-.11.17-.17.35-.17.56 0 .15.03.29.09.42.07.12.18.23.33.32s.34.19.57.28a7 7 0 0 0 .89.22c.72.15 1.37.34 1.94.58.57.24 1.02.56 1.35.97a2.4 2.4 0 0 1 .5 1.59c0 .44-.1.85-.3 1.22s-.48.7-.85.97a4.3 4.3 0 0 1-1.34.64c-.51.15-1.09.22-1.74.22-.93 0-1.73-.17-2.37-.5-.64-.33-1.13-.76-1.47-1.27-.33-.52-.49-1.05-.49-1.6h2.53c.01.37.11.66.28.88.18.22.41.38.68.48.28.1.58.15.9.15a2.3 2.3 0 0 0 .86-.14c.23-.1.4-.23.52-.39.12-.17.19-.36.19-.57zm7.15-7.26v10.04h-2.68v-10.04h2.68zm-2.85-2.62c0-.39.14-.71.41-.97s.64-.38 1.09-.38.81.13 1.09.38c.28.25.42.58.42.97s-.14.71-.42.96c-.27.25-.63.38-1.09.38s-.82-.13-1.09-.38-.41-.57-.41-.96zm10.48 9.88c0-.19-.06-.37-.17-.52s-.32-.3-.62-.43c-.3-.14-.73-.26-1.29-.37a10 10 0 0 1-1.42-.42c-.43-.17-.81-.38-1.13-.62-.31-.24-.56-.53-.74-.85-.18-.33-.27-.72-.27-1.14a2.7 2.7 0 0 1 .27-1.19c.19-.37.45-.7.79-.98.35-.29.77-.52 1.26-.68.5-.17 1.06-.25 1.69-.25a5.5 5.5 0 0 1 2.25.42c.63.28 1.11.66 1.45 1.15a2.8 2.8 0 0 1 .51 1.65h-2.67c0-.26-.06-.49-.17-.7a1.1 1.1 0 0 0-.5-.49c-.22-.12-.51-.19-.87-.19-.3 0-.55.05-.77.16-.22.1-.38.23-.5.41-.11.17-.17.35-.17.56 0 .15.03.29.09.42.07.12.18.23.32.32s.34.19.58.28c.24.08.54.16.89.22.72.15 1.37.34 1.94.58.57.24 1.02.56 1.35.97a2.4 2.4 0 0 1 .5 1.59c0 .44-.1.85-.3 1.22s-.48.7-.85.97a4.3 4.3 0 0 1-1.34.64c-.51.15-1.09.22-1.73.22-.93 0-1.73-.17-2.37-.5-.64-.33-1.13-.76-1.47-1.27-.33-.52-.49-1.05-.49-1.6h2.53c.01.37.11.66.28.88.18.22.4.38.68.48.28.1.58.15.9.15a2.3 2.3 0 0 0 .86-.14c.23-.1.4-.23.52-.39.12-.17.19-.36.19-.57zm9.25-7.26v1.89h-5.84v-1.89h5.84zm-4.4-2.48h2.67v9.49c0 .29.04.51.11.67.08.15.2.26.35.32.15.06.35.08.58.08l.45-.02.34-.06.01 1.97a5 5 0 0 1-.74.18c-.27.04-.56.06-.88.06-.59 0-1.1-.1-1.54-.29-.43-.2-.77-.51-1-.95s-.35-1-.35-1.71v-9.76zm10.54 12.7a5.6 5.6 0 0 1-2.1-.37 4.6 4.6 0 0 1-1.58-1.05c-.43-.45-.76-.96-.98-1.55a5.2 5.2 0 0 1-.34-1.89v-.37a6.4 6.4 0 0 1 .32-2.09 4.9 4.9 0 0 1 .93-1.64 4.1 4.1 0 0 1 1.48-1.07 4.9 4.9 0 0 1 1.97-.38 4.8 4.8 0 0 1 1.89.35 3.7 3.7 0 0 1 1.38 1 4.3 4.3 0 0 1 .85 1.56c.19.6.29 1.27.29 2v1.11h-7.98v-1.78h5.35v-.2c0-.37-.07-.7-.2-.99-.13-.3-.33-.53-.59-.71s-.61-.26-1.02-.26c-.35 0-.65.08-.91.23a1.8 1.8 0 0 0-.62.65c-.15.28-.27.61-.35.98-.07.37-.11.78-.11 1.23v.37c0 .4.06.77.17 1.11a2.7 2.7 0 0 0 .49.88c.22.25.48.44.78.58.31.14.66.2 1.05.2.48 0 .93-.09 1.35-.28a2.9 2.9 0 0 0 1.09-.86l1.3 1.41c-.21.3-.5.59-.86.87a4.6 4.6 0 0 1-1.3.69c-.51.17-1.09.26-1.74.26zm8.26-8.08v7.9h-2.67v-10.04h2.5l.17 2.14zm-.39 2.52h-.72a6.5 6.5 0 0 1 .29-2c.19-.6.46-1.11.81-1.53.35-.43.76-.75 1.23-.97.48-.23 1.02-.34 1.61-.34a3.9 3.9 0 0 1 1.29.2c.39.14.72.35 1 .65s.5.69.65 1.18c.16.49.23 1.09.23 1.79v6.4h-2.69v-6.41c0-.44-.06-.79-.19-1.04s-.31-.42-.55-.52c-.24-.11-.53-.16-.87-.16-.36 0-.67.07-.94.21-.26.14-.48.34-.65.59a2.8 2.8 0 0 0-.38.87c-.09.33-.13.69-.13 1.08zm12.57 3.47c.33 0 .62-.06.87-.19.25-.13.45-.31.59-.54.15-.24.23-.51.23-.83h2.51c-.01.7-.2 1.33-.57 1.88a3.9 3.9 0 0 1-1.49 1.29c-.62.31-1.32.46-2.1.46s-1.46-.13-2.04-.39c-.58-.26-1.05-.62-1.44-1.08a4.7 4.7 0 0 1-.86-1.61c-.19-.62-.29-1.28-.29-1.99v-.27a6.6 6.6 0 0 1 .29-1.99 4.6 4.6 0 0 1 .86-1.61c.38-.46.86-.83 1.44-1.09s1.25-.39 2.02-.39a4.7 4.7 0 0 1 2.16.47c.62.31 1.11.77 1.47 1.35a3.9 3.9 0 0 1 .55 2.07h-2.51a2.1 2.1 0 0 0-.21-.91c-.13-.27-.32-.49-.57-.65a1.6 1.6 0 0 0-.92-.25c-.39 0-.71.08-.96.25a1.6 1.6 0 0 0-.57.67c-.14.28-.23.6-.29.95a8.1 8.1 0 0 0-.07 1.11v.27a8.3 8.3 0 0 0 .07 1.12c.05.36.14.68.28.96s.34.5.58.66.57.24.97.24zm8.74.77l2.66-8.91h2.87l-4.04 11.55a6.3 6.3 0 0 1-.35.82 3.3 3.3 0 0 1-.58.83c-.24.27-.55.48-.92.65-.37.17-.81.25-1.35.25a3.4 3.4 0 0 1-.62-.05l-.57-.13v-1.96h.21l.21.01a2.6 2.6 0 0 0 .86-.12c.22-.08.4-.21.54-.37.14-.16.24-.37.32-.63l.75-1.94zm-1.11-8.91l2.18 7.27.38 2.83-1.82.19-3.61-10.3h2.87z" class="B"/><g class="D"><path d="M758.53 329.58l22.5 29.05c.66.86 1.94.89 2.65.07l23.55-27.29c.94-1.09.2-2.78-1.23-2.83l-46.05-1.77c-1.45-.06-2.31 1.61-1.42 2.76zm154.88 47.92c-12.07 17.23-32.07 28.52-54.66 28.52h-58.24v18.31h58.24c27.95 0 52.79-13.56 68.29-34.45l-13.63-12.38z"/><path d="M922.1 282.71a84.8 84.8 0 0 0-63.35-28.39 85.1 85.1 0 0 0-85 85h18.31a66.8 66.8 0 0 1 66.7-66.7c19.62 0 37.29 8.52 49.5 22.05l13.85-11.96zm5.51 6.83l-14.33 11.42a66.3 66.3 0 0 1 4.4 69.56l14.27 11.97c7.5-12.66 11.8-27.42 11.8-43.17 0-18.58-5.99-35.77-16.14-49.78z"/></g><g opacity=".3"><path d="M774.59 327.37l18.42.67.84-4.12-18.48-.73-.78 4.18z" fill="#000"/></g><path d="M788.9 406.11h-68.09v18.65h68.09v-18.65z" fill="#455a64"/><mask id="D" maskUnits="userSpaceOnUse" x="791" y="267" width="132" height="132"><path d="M857.19 398.81c36.29 0 65.72-29.42 65.72-65.72s-29.42-65.72-65.72-65.72-65.72 29.42-65.72 65.72 29.42 65.72 65.72 65.72z" class="B"/></mask><g mask="url(#D)"><path d="M868.38 340.36c-1.26-2.91-1.78-5.33-1.96-7.16-.1-1.01-.1-1.83-.06-2.46.06-.94.2-1.44.2-1.44l-.5.13.02-.13-8.85 2.48-8.85-2.48.02.13-.5-.13s.14.49.2 1.44c.04.63.04 1.45-.06 2.46-.18 1.83-.7 4.25-1.96 7.16 0 0-.82 2.1-6.52 2.83 0 0 .42 1.53 1.44 3.64l.39.77 1.2 2.08a24.6 24.6 0 0 0 2.67 3.49c1.05 2.99 3.37 5.5 6.06 5.92a24 24 0 0 0 3.81.29l1.41-.05.68-.06.68.06 1.41.05a24 24 0 0 0 3.81-.29c2.69-.42 5.01-2.93 6.06-5.92a24.6 24.6 0 0 0 2.67-3.49 27.9 27.9 0 0 0 1.2-2.08l.72-1.49c.78-1.73 1-2.56 1-2.56-5.69-.73-6.4-3.19-6.4-3.19z" class="K"/><path d="M905.76 388.33l-16.01-16.01-1.37 43.22a71.9 71.9 0 0 1-31.11 7.03c-11.2 0-21.82-2.55-31.28-7.11l-.18-5.63-1.19-37.52-2.11 2.11h-11.8c2.46-11.35 5.83-21.69 17.12-27.66a51.9 51.9 0 0 1 13.87-4.16c.36-.02.69.18.84.51.27.62.8 1.73 1.58 3.07a.5.5 0 0 1 .21.35c2.05 3.48 5.72 8.31 11.05 10.52 1.2.5 2.56.5 3.76 0 5.34-2.21 8.99-7.05 11.05-10.52.02-.14.1-.27.21-.35.78-1.34 1.31-2.45 1.58-3.07.14-.33.47-.52.83-.51 2.42.85 8.81 2.57 13.3 4.41 16.11 8.52 18.53 27.09 19.65 41.3z" fill="url(#I)"/><path d="M866.43 333.2c-.1-1.01-.07-1.83-.03-2.46l-.37-.71-8.77 2.34-8.77-2.34-.37.71c.04.63.04 1.46-.06 2.46 1.19 1.93 4.12 5.62 9.19 5.63h0 .02 0c5.07-.01 7.97-3.7 9.16-5.63z" fill="#cc6362"/><path d="M841.31 312.68a84.2 84.2 0 0 0 1.81 7.69c.45 2.4.1 3.6-2.02 3.27-1.65-.26-5.85-5.2-4.41-9.45.34-.99 2.1-2.75 4.62-1.51zm32.2 10.95l-.29.03c-1.87.18-2.17-1.02-1.74-3.31l.17-.91 1.64-6.77c2.53-1.24 4.29.52 4.62 1.51 1.43 4.24-2.76 9.19-4.41 9.44z" class="K"/><path opacity=".5" d="M873.22 323.67c-1.87.18-2.17-1.02-1.74-3.31l.17-.91.38.16s.02 3.96 1.18 4.06zm-31.84 0c1.87.18 2.17-1.02 1.74-3.31l-.17-.91-.38.16s-.02 3.96-1.18 4.06z" fill="#cc6362"/><path d="M857.26 301.69h-18.81s1.6 5.45 2.7 11.59c1.84 10.24 2.27 23.37 16.11 23.37 13.98 0 14.28-13.1 16.1-23.36 1.08-6.07 2.71-11.61 2.71-11.61h-18.81z" class="K"/><path d="M876.94 297.1c-2.33-6.91-7.76 5.37-7.76 5.37 2.1.85 4.18 10.83 4.18 10.83l1.49-.91h0v.01s4.04-9.5 2.09-15.29z" fill="url(#J)"/><path d="M819.71 398.86c2.68-4.96 5.63-13.81 5.63-13.81l-17.57-6.55c-7.11 14.63-9.4 26.77-9.4 26.77l21.34-6.4zm74.64-3.58c-2.68-4.96-7.08-14.2-7.08-14.2l17.98-8.05a304.9 304.9 0 0 0 10.44 28.65l-21.34-6.41z" fill="#ffc1cd"/><path d="M834.2 344.34s-12.68 3.84-16.7 8.66c-4.46 5.34-7.52 14.96-13.8 31.76 0 0 14.01 6.76 21.59 7.02l8.9-47.44z" fill="url(#K)"/><path d="M877.23 344.01s16.35 4.04 19.48 8.31c3.86 5.26 9.13 15.12 14.12 32.44 0 0-14.11 6.74-21.69 6.99l-11.91-47.74z" fill="url(#L)"/><path d="M841.53 292.45s-2.52-5.03 2.89-8c8.87-4.89 32.97 2.17 35.77 6.75 3.59 5.88-3.43 15.14-14.69 14.84s-16.61-5.15-20.98-3.33-5.07-6.33-5.07-6.33l2.08-3.93z" fill="url(#M)"/><path d="M844.37 302.19l-2.84-9.74s-5.32-1.76-5.33 4.62c0 3.35.54 4.03 1.33 6.35.27 4.59 2.13 8.94 2.13 8.94l1.49.91s2.09-9.98 4.18-10.83l-.97-.26z" fill="url(#N)"/><path d="M887.27 368.35l.12 1 .31 2.64.41 3.74.4 4.29.33 4.29.21 3.76.1 3.68-.2-.99-.45-2.63-.52-3.73-.45-4.29-.28-4.31-.09-3.77.06-2.67.07-1.01z" fill="url(#O)"/><path d="M827.12 368.35l.07 1.01.06 2.67-.09 3.77-.28 4.31-.45 4.29-.52 3.73-.45 2.63-.2.99.1-3.68.21-3.76.33-4.3.4-4.29.4-3.74.31-2.64.12-1z" fill="url(#P)"/><path d="M857.23 349.27l-4.43 3.12 1.27 4.7s.76.35 3.16.42c2.4-.08 3.16-.42 3.16-.42l1.26-4.7-4.43-3.12z" class="B"/><path d="M841.71 342.63l4.45-2.44s2.44 4.99 11.08 9.08c0 0-1.11.88-2.08 3.73-.34 1.01-1.02 4.14-1.02 4.14s-8.65-2.62-12.43-14.51z" fill="url(#Q)"/><path d="M872.76 342.63l-4.45-2.44s-2.44 4.99-11.08 9.08c0 0 1.11.88 2.08 3.73a64.5 64.5 0 0 1 1.02 4.14s8.65-2.62 12.43-14.51z" fill="url(#R)"/><path d="M859.76 357.14l-2.53-.7-2.53.7-5.73 54.16c.54 8.74 5.66 16.71 7.56 19.39.34.49 1.06.49 1.4 0 1.89-2.67 7.02-10.64 7.56-19.39.27-4.37-5.72-54.16-5.72-54.16z" class="B"/></g><rect x="672.13" y="267.97" width="72.44" height="96.78" rx="8.91" class="E F"/><path d="M695.67 298.19c1.02-2.71 3.49-3.96 4.65-4.35l1.93-.63 2.93-.95h4.84l3.46 1.19 3.95 1.5c1.22.61 3.26 4.96 3.68 5.45.21.26 1.16 1.95 2.1 3.84H718l-.98-1.68-.73 1.68h-16.71c-.26-1.11-.43-2.51-.43-2.51l-1.87 2.51h-4.81c1.17-1.97 2.62-4.53 3.2-6.06z" class="G"/><g class="C"><path d="M707.03 278.95s-3.78.6-3.21 6.52 3.92 5.44 4.14 5.44 3.35.11 3.6-7.13c0 0 .11-5.35-4.53-4.83z"/><path d="M703.76 283.8s-.41-.44-.57 0 .57 2.45.59 2.54c0 0 .08.17.18.08s-.2-2.63-.2-2.63zm7.7-.08s.4-.45.57-.01-.51 2.46-.54 2.55c0 0-.07.18-.17.08s.15-2.63.15-2.63z"/></g><path d="M703.76 284.71l.54.72s-.01-1.59.07-1.84.22-1.01.29-1.19 3.25-1.07 6.06.26c0 0-.12 1.14.14 1.25s.14 1.86.14 1.86l.45-.5s.68-4.56.51-5.04-.71-3.33-6.46-1.64c0 0-1.79-.38-2.15.86s.41 5.25.41 5.25z" class="H"/><path d="M704.72 292.16c0-.01.49-.24.49-.24.24-.53.06-2.75.06-2.75s4.82-1.23 4.68-.29.42 3.12.42 3.12l2.47 1.23s-2.63 7.08-5.66 6.17-4.17-6.42-4.17-6.42l1.72-.81z" class="C"/><path d="M709.88 289.92s-.78 1-2.12 1c-.89 0-1.52-.25-2.41-1.11 0 0 .38 1.64 2.4 1.79 0 0 1.46.19 2.13-1.68z" class="I"/><g class="J"><path d="M705.75 310.71h3.59v.67h-3.59v-.67zM696.79 285v.65h-3.83v3.6h-.65V285h4.48zm26 4.25h-.65v-3.6h-3.83V285h4.48v4.25zm-29.83 18.56v3.6h3.83v.65h-4.48v-4.25h.65zm29.18 0h.65v4.25h-4.48v-.65h3.83v-3.6z"/></g><path d="M705.11 344.63c0-2.05.25-3.69.75-4.9s1.42-2.41 2.76-3.59a14 14 0 0 0 2.66-2.88 4.5 4.5 0 0 0 .66-2.34c0-2.48-1.15-3.72-3.45-3.72a3.5 3.5 0 0 0-2.62 1c-.66.67-1 1.59-1.03 2.76h-6.42c.03-2.8.94-4.99 2.73-6.57s4.24-2.37 7.34-2.37c3.13 0 5.56.75 7.28 2.25s2.59 3.63 2.59 6.36c0 1.23-.28 2.44-.84 3.53-.56 1.11-1.54 2.33-2.95 3.68l-1.79 1.7a6 6 0 0 0-1.92 3.76l-.09 1.34-5.67-.01zm-.64 6.73a3.2 3.2 0 0 1 1.01-2.42 3.6 3.6 0 0 1 2.58-.95 3.6 3.6 0 0 1 2.58.95c.67.64 1.01 1.44 1.01 2.42 0 .96-.33 1.76-.98 2.39a3.6 3.6 0 0 1-2.6.94 3.6 3.6 0 0 1-2.6-.94c-.66-.63-.99-1.42-.99-2.39z" class="D"/><path d="M707.37 354.88a3.7 3.7 0 0 1-2.67-.97c-.67-.64-1.01-1.47-1.01-2.46a3.3 3.3 0 0 1 1.04-2.49 3.7 3.7 0 0 1 2.65-.98 3.7 3.7 0 0 1 2.65.98 3.3 3.3 0 0 1 1.04 2.49c0 .99-.34 1.81-1.01 2.46a3.7 3.7 0 0 1-2.67.97zm0-6.7c-1.02 0-1.86.31-2.51.93a3.1 3.1 0 0 0-.98 2.35c0 .93.32 1.71.96 2.31s1.49.92 2.53.92 1.9-.31 2.53-.92.96-1.39.96-2.31a3.1 3.1 0 0 0-.98-2.35c-.65-.61-1.5-.93-2.51-.93zm2.81-3.36h-5.86v-.1c0-2.06.26-3.72.76-4.94s1.44-2.45 2.78-3.63c1.32-1.17 2.21-2.13 2.65-2.86.42-.69.65-1.49.65-2.3 0-2.44-1.1-3.62-3.36-3.62-1.06 0-1.92.33-2.55.97s-.97 1.55-1 2.69v.09h-6.61v-.1c.03-2.81.96-5.05 2.77-6.65s4.29-2.4 7.4-2.4c3.13 0 5.61.77 7.34 2.28s2.62 3.68 2.62 6.44c0 1.24-.29 2.46-.85 3.57-.56 1.11-1.56 2.36-2.96 3.71l-1.79 1.69c-1.1 1.05-1.74 2.3-1.89 3.7l-.1 1.44zm-5.66-.2H710l.08-1.25c.16-1.46.82-2.74 1.96-3.82l1.79-1.69c1.39-1.34 2.37-2.56 2.92-3.65.55-1.08.83-2.28.83-3.48 0-2.7-.86-4.81-2.56-6.29s-4.13-2.23-7.22-2.23c-3.06 0-5.5.79-7.27 2.35-1.74 1.54-2.65 3.69-2.7 6.4h6.22a4 4 0 0 1 1.05-2.73c.67-.68 1.58-1.03 2.69-1.03 2.36 0 3.55 1.28 3.55 3.81a4.6 4.6 0 0 1-.68 2.39c-.45.75-1.35 1.72-2.69 2.9-1.32 1.17-2.24 2.36-2.73 3.56-.48 1.18-.73 2.78-.74 4.77z" class="B"/><rect x="937.53" y="191.97" width="72.44" height="72.44" rx="8.91" class="E F"/><path d="M957.63 243.21v8.44h-1.74l-3.39-5.66v5.66h-1.74v-8.44h1.74l3.4 5.66v-5.66h1.73zm1.14 5.37v-.12c0-.46.07-.88.2-1.27.13-.39.32-.73.57-1.02s.56-.51.93-.67a3.1 3.1 0 0 1 1.26-.24c.48 0 .9.08 1.27.24s.68.38.93.67.45.62.58 1.02a3.9 3.9 0 0 1 .2 1.27v.12c0 .46-.07.88-.2 1.27s-.32.72-.58 1.01-.56.51-.93.67-.79.24-1.26.24a3.2 3.2 0 0 1-1.27-.24c-.37-.16-.68-.38-.93-.67s-.44-.63-.57-1.01-.2-.81-.2-1.27zm1.67-.12v.12c0 .26.02.51.07.74s.12.43.22.6.24.3.41.4a1.2 1.2 0 0 0 .61.14c.23 0 .43-.05.6-.14s.3-.23.4-.4a2 2 0 0 0 .22-.6c.05-.23.08-.47.08-.74v-.12c0-.26-.02-.49-.08-.72-.05-.23-.12-.43-.23-.6-.1-.18-.23-.32-.4-.42s-.37-.15-.6-.15-.44.05-.6.15-.3.24-.4.42-.17.38-.22.6a3.5 3.5 0 0 0-.07.72zm8.59-1.08v1.31h-3.28v-1.31h3.28zm4.78 2.55c0-.12-.03-.23-.11-.32s-.2-.19-.39-.27-.45-.16-.81-.23a6.1 6.1 0 0 1-.89-.26c-.27-.11-.51-.24-.71-.39s-.35-.33-.46-.53-.17-.45-.17-.71.06-.51.17-.74.28-.44.49-.62c.22-.18.48-.32.79-.42s.66-.16 1.05-.16c.54 0 1.01.09 1.4.26s.7.41.9.72.32.65.32 1.03h-1.67a.9.9 0 0 0-.1-.44c-.07-.13-.17-.23-.31-.31s-.32-.12-.55-.12c-.19 0-.35.03-.48.1s-.24.15-.31.25-.1.22-.1.35c0 .1.02.18.06.26s.11.14.2.2a1.7 1.7 0 0 0 .36.17 4.6 4.6 0 0 0 .56.14 6.4 6.4 0 0 1 1.21.37c.36.15.64.35.85.6a1.5 1.5 0 0 1 .31.99c0 .28-.06.53-.19.76s-.3.44-.53.61a2.7 2.7 0 0 1-.83.4 3.9 3.9 0 0 1-1.08.14 3.2 3.2 0 0 1-1.48-.31c-.4-.21-.71-.47-.92-.79s-.31-.66-.31-1h1.58c.01.23.07.41.17.55s.25.24.42.3.36.09.56.09c.22 0 .4-.03.54-.09s.25-.14.32-.24.12-.22.12-.36zm4.34-7.17v8.91h-1.67v-8.91h1.67zm-.24 5.55h-.46c0-.44.06-.84.17-1.21s.27-.69.48-.96.46-.49.75-.64a2.1 2.1 0 0 1 .97-.23 2.5 2.5 0 0 1 .84.13c.25.09.47.22.65.42.19.19.33.44.43.75a3.7 3.7 0 0 1 .15 1.13v3.97h-1.68v-3.98c0-.28-.04-.5-.12-.66s-.19-.28-.34-.34-.33-.1-.55-.1c-.24 0-.44.04-.62.13s-.3.21-.4.37-.17.34-.22.55-.07.43-.07.67zm5 .28v-.12a3.9 3.9 0 0 1 .2-1.27c.13-.39.32-.73.57-1.02s.56-.51.93-.67a3.1 3.1 0 0 1 1.26-.24c.48 0 .9.08 1.27.24s.68.38.93.67a2.9 2.9 0 0 1 .58 1.02c.13.39.2.81.2 1.27v.12c0 .46-.07.88-.2 1.27s-.33.72-.58 1.01-.56.51-.93.67-.79.24-1.26.24a3.2 3.2 0 0 1-1.27-.24c-.37-.16-.68-.38-.93-.67a3 3 0 0 1-.57-1.01c-.13-.39-.2-.81-.2-1.27zm1.67-.12v.12c0 .26.02.51.07.74a2 2 0 0 0 .22.6c.11.17.24.3.41.4a1.2 1.2 0 0 0 .61.14c.23 0 .43-.05.6-.14a1.1 1.1 0 0 0 .4-.4 2 2 0 0 0 .22-.6c.05-.23.07-.47.07-.74v-.12a3.3 3.3 0 0 0-.07-.72 1.9 1.9 0 0 0-.23-.6c-.1-.18-.23-.32-.4-.42s-.37-.15-.6-.15-.44.05-.6.15a1.2 1.2 0 0 0-.4.42 2 2 0 0 0-.22.6 3.5 3.5 0 0 0-.07.72zm7.09 1.57l1.3-4.65h1.06l-.34 1.83-1.3 4.45h-.89l.17-1.62zm-.66-4.65l.93 4.64.09 1.63h-1.04l-1.59-6.27h1.61zm4.22 4.57l.91-4.57h1.62l-1.59 6.27h-1.04l.1-1.7zm-1.05-4.57l1.3 4.62.18 1.66h-.89l-1.3-4.44-.33-1.83h1.05z" class="D"/><path d="M960.72 220.63a8.2 8.2 0 0 1 4.97-4.65l2.07-.68 3.14-1.01h5.18l3.7 1.27 4.23 1.6c1.3.65 3.49 5.3 3.93 5.83.23.28 1.24 2.09 2.24 4.11h-5.58l-1.04-1.8-.78 1.8H964.9c-.28-1.19-.46-2.69-.46-2.69l-2 2.69h-5.15c1.25-2.1 2.81-4.84 3.42-6.48z" class="G"/><g class="C"><path d="M972.87 200.05s-4.05.64-3.43 6.98 4.19 5.82 4.43 5.82 3.59.12 3.85-7.63c0 0 .11-5.73-4.85-5.17z"/><use href="#U"/><use href="#V"/></g><path d="M969.37 206.2l.58.78s-.02-1.7.08-1.97.24-1.08.31-1.27 3.48-1.15 6.48.28c0 0-.13 1.22.15 1.33s.15 1.99.15 1.99l.48-.54s.73-4.88.55-5.39-.75-3.57-6.91-1.75c0 0-1.92-.41-2.31.92s.44 5.62.44 5.62z" class="H"/><path d="M970.39 214.18c0-.01.52-.26.52-.26.25-.56.06-2.95.06-2.95s5.16-1.31 5.01-.31.44 3.34.44 3.34l2.65 1.32s-2.82 7.58-6.06 6.6-4.46-6.87-4.46-6.87l1.84-.87z" class="C"/><use href="#W" class="I"/><g class="J"><path d="M971.5 234.02h3.84v.71h-3.84v-.71z"/><use href="#X"/></g><rect x="771.88" y="153.97" width="72.44" height="72.44" rx="8.91" class="E F"/><path d="M791.97 205.21v8.44h-1.74l-3.39-5.66v5.66h-1.74v-8.44h1.74l3.4 5.66v-5.66h1.73zm1.14 5.37v-.12c0-.46.07-.88.2-1.27.13-.39.32-.73.57-1.02s.56-.51.93-.67a3.1 3.1 0 0 1 1.26-.24c.48 0 .9.08 1.27.24s.68.38.93.67.45.62.58 1.02c.13.39.2.81.2 1.27v.12c0 .46-.07.88-.2 1.27s-.32.72-.58 1.01-.56.51-.93.67-.79.24-1.26.24a3.2 3.2 0 0 1-1.27-.24c-.37-.16-.68-.38-.93-.67a3 3 0 0 1-.57-1.01c-.13-.39-.2-.81-.2-1.27zm1.67-.12v.12c0 .26.02.51.07.74a2 2 0 0 0 .22.6c.1.17.24.3.41.4a1.2 1.2 0 0 0 .61.14c.23 0 .43-.05.6-.14s.3-.23.4-.4a2 2 0 0 0 .22-.6c.05-.23.08-.47.08-.74v-.12a3.3 3.3 0 0 0-.08-.72 1.9 1.9 0 0 0-.23-.6c-.1-.18-.23-.32-.4-.42s-.37-.15-.6-.15-.44.05-.6.15-.3.24-.4.42a2 2 0 0 0-.22.6c-.05.23-.07.46-.07.72zm8.59-1.08v1.31h-3.28v-1.31h3.28zm4.78 2.55c0-.12-.03-.23-.11-.32s-.2-.19-.39-.27-.45-.16-.81-.23a6.1 6.1 0 0 1-.89-.26c-.27-.11-.51-.24-.71-.39a1.7 1.7 0 0 1-.46-.53c-.11-.21-.17-.45-.17-.71s.06-.51.17-.74.28-.44.49-.62.48-.32.79-.42.66-.16 1.05-.16c.55 0 1.01.09 1.4.26s.7.41.91.72.32.65.32 1.03h-1.67c0-.16-.04-.31-.11-.44s-.17-.23-.31-.31-.32-.12-.55-.12c-.18 0-.35.03-.48.1s-.24.15-.31.25-.11.22-.11.35c0 .1.02.18.06.26s.11.14.2.2.21.12.36.17a4.6 4.6 0 0 0 .56.14 6.4 6.4 0 0 1 1.21.37c.36.15.64.35.85.6a1.5 1.5 0 0 1 .31.99c0 .28-.06.53-.18.76s-.3.44-.53.61a2.7 2.7 0 0 1-.84.4 3.9 3.9 0 0 1-1.08.14c-.58 0-1.08-.1-1.49-.31s-.71-.47-.92-.79-.31-.66-.31-1h1.58c.01.23.07.41.17.55s.25.24.42.3.36.09.56.09c.22 0 .4-.03.54-.09s.25-.14.33-.24.12-.22.12-.36zm4.34-7.17v8.91h-1.67v-8.91h1.67zm-.24 5.55h-.46c0-.44.06-.84.17-1.21s.27-.69.48-.96.46-.49.75-.64a2.1 2.1 0 0 1 .97-.23 2.5 2.5 0 0 1 .84.13c.25.09.47.22.65.42s.33.44.43.75.15.69.15 1.13v3.97h-1.68v-3.98c0-.28-.04-.5-.12-.66s-.19-.28-.34-.34-.33-.1-.54-.1c-.24 0-.45.04-.62.13s-.3.21-.4.37-.17.34-.22.55-.07.43-.07.67zm5 .28v-.12c0-.46.07-.88.2-1.27.13-.39.32-.73.57-1.02s.56-.51.93-.67a3.1 3.1 0 0 1 1.26-.24c.48 0 .9.08 1.27.24s.68.38.93.67.45.62.58 1.02a3.9 3.9 0 0 1 .2 1.27v.12c0 .46-.06.88-.2 1.27s-.32.72-.58 1.01-.56.51-.93.67-.79.24-1.26.24a3.2 3.2 0 0 1-1.27-.24c-.37-.16-.68-.38-.93-.67s-.44-.63-.57-1.01-.2-.81-.2-1.27zm1.67-.12v.12c0 .26.02.51.07.74s.12.43.22.6.24.3.41.4a1.2 1.2 0 0 0 .61.14c.23 0 .43-.05.6-.14s.3-.23.4-.4a2 2 0 0 0 .22-.6c.05-.23.08-.47.08-.74v-.12c0-.26-.02-.49-.08-.72s-.12-.43-.23-.6-.23-.32-.4-.42-.37-.15-.6-.15-.44.05-.6.15-.3.24-.4.42-.17.38-.22.6a3.5 3.5 0 0 0-.07.72zm7.09 1.57l1.31-4.65h1.06l-.34 1.83-1.3 4.45h-.89l.17-1.62zm-.66-4.65l.93 4.64.09 1.63h-1.04l-1.59-6.27h1.61zm4.22 4.57l.91-4.57h1.62l-1.59 6.27h-1.04l.1-1.7zm-1.05-4.57l1.3 4.62.18 1.66h-.89l-1.31-4.44-.33-1.83h1.05z" class="D"/><path d="M795.06 182.62a8.2 8.2 0 0 1 4.97-4.65l2.07-.67 3.14-1.01h5.18l3.7 1.27 4.23 1.6c1.3.65 3.49 5.3 3.93 5.84.23.28 1.24 2.09 2.24 4.11h-5.58l-1.04-1.8-.78 1.8h-17.87c-.28-1.19-.46-2.69-.46-2.69l-2 2.69h-5.15c1.25-2.1 2.81-4.84 3.43-6.48z" class="G"/><g class="C"><use href="#Y"/><path d="M803.72 167.23s-.44-.47-.61.01.61 2.62.63 2.72c0 0 .08.19.19.08s-.21-2.81-.21-2.81zm8.23-.08s.43-.48.61-.01-.55 2.63-.58 2.73c0 0-.08.19-.19.09s.16-2.81.16-2.81z"/></g><path d="M803.72 168.2l.58.78s-.02-1.7.08-1.97.24-1.08.31-1.27 3.48-1.15 6.48.28c0 0-.13 1.22.16 1.33s.15 1.99.15 1.99l.48-.54s.73-4.88.55-5.39-.75-3.57-6.91-1.75c0 0-1.92-.41-2.31.92s.44 5.62.44 5.62z" class="H"/><use href="#Z" class="C"/><path d="M810.26 173.78s-.83 1.07-2.27 1.07c-.95 0-1.63-.27-2.58-1.19 0 0 .41 1.75 2.57 1.91 0 0 1.57.2 2.28-1.8z" class="I"/><g class="J"><path d="M805.85 196.02h3.84v.71h-3.84v-.71zm-9.59-27.51v.7h-4.1v3.85h-.7v-4.54h4.79zm27.82 4.54h-.7v-3.85h-4.1v-.7h4.79v4.54zm-31.92 19.86v3.85h4.1v.7h-4.79v-4.55h.7zm31.22 0h.7v4.55h-4.79v-.7h4.1v-3.85z"/></g><rect x="948.22" y="351.09" width="72.44" height="72.44" rx="8.91" class="E F"/><path d="M969.49 403.53v8.44h-1.74l-3.39-5.66v5.66h-1.74v-8.44h1.74l3.4 5.66v-5.66h1.73zm1.14 5.37v-.12a3.9 3.9 0 0 1 .2-1.27c.13-.39.32-.73.57-1.02s.56-.51.93-.67a3.1 3.1 0 0 1 1.26-.24c.48 0 .9.08 1.27.24s.68.38.93.67a2.9 2.9 0 0 1 .58 1.02c.13.39.2.81.2 1.27v.12c0 .46-.07.88-.2 1.27s-.32.72-.58 1.01-.56.51-.93.67-.79.24-1.26.24-.9-.08-1.27-.24-.68-.38-.93-.67a3 3 0 0 1-.57-1.01c-.13-.39-.2-.81-.2-1.27zm1.67-.12v.12c0 .26.02.51.07.74a2 2 0 0 0 .22.6c.11.17.24.3.41.4s.37.14.61.14c.23 0 .43-.05.6-.14a1.1 1.1 0 0 0 .4-.4 2 2 0 0 0 .22-.6c.05-.23.08-.47.08-.74v-.12a3.3 3.3 0 0 0-.08-.72c-.05-.23-.12-.43-.23-.6s-.23-.32-.4-.42-.37-.15-.6-.15-.44.05-.6.15a1.2 1.2 0 0 0-.4.42 2 2 0 0 0-.22.6c-.05.22-.07.46-.07.72zm8.59-1.08V409h-3.28v-1.31h3.28zm4.78 2.55c0-.12-.03-.23-.1-.32s-.2-.19-.39-.27c-.18-.08-.45-.16-.81-.23a6.4 6.4 0 0 1-.89-.26c-.27-.11-.51-.24-.71-.39s-.35-.33-.46-.53-.17-.45-.17-.71.06-.51.17-.74.28-.44.49-.61.48-.32.79-.42a3.3 3.3 0 0 1 1.06-.16c.54 0 1.01.09 1.4.26s.7.41.9.72.32.64.32 1.03h-1.67c0-.16-.03-.31-.1-.44s-.17-.23-.31-.31-.32-.12-.55-.12a1.1 1.1 0 0 0-.48.1c-.14.06-.24.15-.31.26s-.11.22-.11.35c0 .1.02.18.06.26s.11.14.2.2.21.12.36.17.34.1.56.14a6.4 6.4 0 0 1 1.21.37c.36.15.64.35.85.6s.31.58.31.99a1.6 1.6 0 0 1-.19.77c-.12.23-.3.44-.53.61a2.7 2.7 0 0 1-.84.4c-.32.09-.68.14-1.08.14-.58 0-1.08-.1-1.48-.31s-.71-.47-.92-.8-.31-.66-.31-1h1.58c.01.23.06.41.17.55s.25.24.42.3.36.09.56.09c.22 0 .4-.03.54-.09s.25-.14.32-.24c.08-.11.12-.23.12-.36zm4.34-7.17v8.91h-1.67v-8.91h1.67zm-.24 5.55h-.46c0-.44.06-.84.17-1.21s.27-.69.48-.96.46-.49.75-.64a2.1 2.1 0 0 1 .97-.23 2.5 2.5 0 0 1 .84.13c.25.09.47.23.65.42s.33.44.43.75.15.68.15 1.13v3.97h-1.68v-3.98c0-.28-.04-.5-.12-.65s-.19-.28-.34-.34c-.15-.07-.33-.11-.54-.11-.24 0-.44.05-.61.13s-.3.21-.4.37-.17.34-.22.55-.07.43-.07.67zm5 .28v-.12a3.9 3.9 0 0 1 .2-1.27c.13-.39.32-.73.57-1.02s.56-.51.93-.67.79-.24 1.26-.24.9.08 1.27.24.68.38.93.67a2.8 2.8 0 0 1 .58 1.02c.13.39.2.81.2 1.27v.12a4 4 0 0 1-.2 1.27c-.13.39-.32.72-.58 1.01-.25.29-.56.51-.93.67s-.79.24-1.26.24-.9-.08-1.27-.24-.68-.38-.93-.67a3 3 0 0 1-.57-1.01c-.13-.39-.2-.81-.2-1.27zm1.67-.12v.12c0 .26.02.51.07.74a2 2 0 0 0 .22.6c.1.17.24.3.41.4s.37.14.61.14c.23 0 .43-.05.6-.14s.3-.23.4-.4a2 2 0 0 0 .22-.6c.05-.23.08-.47.08-.74v-.12a3.3 3.3 0 0 0-.08-.72 1.9 1.9 0 0 0-.23-.6c-.1-.18-.23-.32-.4-.42s-.37-.15-.6-.15-.44.05-.6.15-.3.24-.4.42a2 2 0 0 0-.22.6c-.05.22-.07.46-.07.72zm7.09 1.57l1.3-4.65h1.06l-.34 1.83-1.3 4.45h-.89l.17-1.62zm-.66-4.65l.93 4.64.09 1.63h-1.05l-1.59-6.27h1.62zm4.22 4.57l.91-4.57h1.61l-1.58 6.27H1007l.1-1.7zm-1.05-4.57l1.3 4.62.18 1.66h-.9l-1.3-4.44-.33-1.83h1.05z" class="D"/><path d="M971.41 379.75a8.2 8.2 0 0 1 4.97-4.65l2.07-.68 3.14-1.01h5.18l3.7 1.27 4.23 1.6c1.3.65 3.49 5.3 3.93 5.84a41.3 41.3 0 0 1 2.25 4.11h-5.58l-1.04-1.8-.78 1.8h-17.87c-.28-1.19-.46-2.69-.46-2.69l-2 2.69h-5.15c1.25-2.1 2.81-4.84 3.42-6.48z" class="G"/><g class="C"><path d="M983.55 359.17s-4.05.64-3.43 6.98 4.19 5.82 4.43 5.81 3.59.12 3.85-7.63c0 0 .11-5.73-4.85-5.17z"/><path d="M980.06 364.36s-.44-.47-.61.01.6 2.62.63 2.72c0 0 .08.19.19.08s-.21-2.81-.21-2.81zm8.23-.08s.43-.48.61-.01-.55 2.63-.58 2.73c0 0-.08.19-.19.09s.16-2.81.16-2.81z"/></g><path d="M980.06 365.33l.58.78s-.02-1.7.08-1.97.24-1.08.31-1.27 3.48-1.14 6.48.28c0 0-.13 1.22.16 1.33s.15 1.99.15 1.99l.48-.54s.73-4.88.55-5.39-.76-3.57-6.92-1.75c0 0-1.92-.41-2.31.92s.44 5.62.44 5.62z" class="H"/><path d="M981.08 373.3c0 0 .52-.25.52-.25.25-.56.07-2.95.07-2.95s5.16-1.31 5.01-.31.44 3.34.44 3.34l2.65 1.31s-2.82 7.58-6.06 6.6-4.46-6.87-4.46-6.87l1.84-.87z" class="C"/><path d="M986.6 370.9s-.83 1.07-2.27 1.07c-.95 0-1.63-.27-2.57-1.19 0 0 .41 1.75 2.57 1.92 0 0 1.57.2 2.28-1.8z" class="I"/><g class="J"><path d="M982.19 393.15h3.84v.71h-3.84v-.71zm-9.59-27.51v.7h-4.1v3.85h-.7v-4.55h4.79zm27.82 4.55h-.69v-3.85h-4.1v-.7h4.79v4.55zm-31.91 19.86v3.85h4.1v.7h-4.79v-4.55h.7zm31.22 0h.69v4.55h-4.79v-.7h4.1v-3.85z"/></g></g></g><rect x="1" y="1" width="1138" height="638" rx="15" stroke-width="2" class="E"/><defs><filter id="E" x="-4.75" y="56.41" width="332.5" height="98.56" filterUnits="userSpaceOnUse" color-interpolation-filters="sRGB"><feFlood flood-opacity="0" result="A"/><feColorMatrix in="SourceAlpha" values="0 0 0 0 0 0 0 0 0 0 0 0 0 0 0 0 0 0 127 0" result="B"/><feOffset dy="1.78125"/><feGaussianBlur stdDeviation="2.38"/><feComposite in2="B" operator="out"/><feColorMatrix values="0 0 0 0 0 0 0 0 0 0 0 0 0 0 0 0 0 0 0.3 0"/><feBlend in2="A"/><feBlend in="SourceGraphic"/></filter><linearGradient id="F" x1="305.21" y1="465.52" x2="296.87" y2="65.26" href="#a"><stop stop-color="#ddecff"/><stop offset="1" stop-color="#eaf3ff"/></linearGradient><linearGradient id="G" x1="367.64" y1="207.09" x2="792.65" y2="606.15" href="#a"><stop stop-color="#e0eeff"/><stop offset="1" stop-color="#f9f9f9"/></linearGradient><linearGradient id="H" x1="26.45" y1="343.58" x2="329.1" y2="581.48" href="#a"><stop stop-color="#d6e8ff"/><stop offset="1" stop-color="#cfe4ff"/></linearGradient><linearGradient id="I" x1="858.24" y1="346.45" x2="858.24" y2="397.05" href="#a"><stop stop-color="#7995fd"/><stop offset="1" stop-color="#54deff"/></linearGradient><linearGradient id="J" x1="873.33" y1="312.67" x2="873.33" y2="294.36" href="#a"><stop stop-color="#00004f"/><stop offset="1" stop-color="#000079"/></linearGradient><linearGradient id="K" x1="818.95" y1="346.46" x2="818.95" y2="397.05" href="#a"><stop stop-color="#7995fd"/><stop offset="1" stop-color="#54deff"/></linearGradient><linearGradient id="L" x1="894.04" y1="346.45" x2="894.04" y2="397.05" href="#a"><stop stop-color="#7995fd"/><stop offset="1" stop-color="#54deff"/></linearGradient><linearGradient id="M" x1="860.29" y1="312.67" x2="860.29" y2="294.37" href="#a"><stop stop-color="#00004f"/><stop offset="1" stop-color="#000079"/></linearGradient><linearGradient id="N" x1="840.77" y1="312.67" x2="840.77" y2="294.37" href="#a"><stop stop-color="#00004f"/><stop offset="1" stop-color="#000079"/></linearGradient><linearGradient id="O" x1="888.14" y1="366.46" x2="888.14" y2="399.62" href="#a"><stop stop-color="#d1d3d4"/><stop offset="1" stop-color="#a7a9ac"/></linearGradient><linearGradient id="P" x1="826.26" y1="366.46" x2="826.26" y2="399.62" href="#a"><stop stop-color="#d1d3d4"/><stop offset="1" stop-color="#a7a9ac"/></linearGradient><linearGradient id="Q" x1="843.35" y1="341.5" x2="854.71" y2="353.41" href="#a"><stop stop-color="#7995fd"/><stop offset="1" stop-color="#54deff"/></linearGradient><linearGradient id="R" x1="871.41" y1="341.65" x2="859.73" y2="353.33" href="#a"><stop stop-color="#7995fd"/><stop offset="1" stop-color="#54deff"/></linearGradient><clipPath id="S"><rect width="1140" height="640" rx="16" class="B"/></clipPath><clipPath id="T"><path transform="translate(665 141.5)" d="M0 0h356.25v356.25H0z" class="B"/></clipPath><path id="U" d="M969.37 205.23s-.44-.47-.61.01.61 2.62.63 2.72c0 0 .08.19.19.08s-.21-2.81-.21-2.81z"/><path id="V" d="M977.6 205.15s.43-.48.61-.01-.55 2.63-.58 2.73c0 0-.08.19-.19.09s.16-2.81.16-2.81z"/><path id="W" d="M975.91 211.78s-.83 1.07-2.27 1.07c-.95 0-1.63-.27-2.57-1.19 0 0 .41 1.75 2.57 1.92 0 0 1.57.2 2.28-1.8z"/><path id="X" d="M961.91 206.51v.7h-4.1v3.85h-.7v-4.54h4.79zm27.82 4.54h-.7v-3.85h-4.1v-.7h4.79v4.54zm-31.92 19.86v3.85h4.1v.7h-4.79v-4.55h.7zm31.22 0h.7v4.55h-4.79v-.7h4.1v-3.85z"/><path id="Y" d="M807.21 162.04s-4.05.64-3.43 6.98 4.19 5.82 4.43 5.81 3.59.12 3.85-7.63c0 0 .11-5.73-4.85-5.17z"/><path id="Z" d="M804.74 176.17c0 0 .52-.25.52-.25.25-.56.07-2.95.07-2.95s5.16-1.31 5.01-.31.44 3.34.44 3.34l2.65 1.31s-2.82 7.58-6.06 6.6-4.46-6.87-4.46-6.87l1.84-.87z"/><linearGradient id="a" gradientUnits="userSpaceOnUse"/></defs></svg>