<svg xmlns="http://www.w3.org/2000/svg" width="1140" height="640" fill="none" xmlns:v="https://vecta.io/nano"><style><![CDATA[.B{fill:#fff}.C{fill:#b2d4fe}.D{fill:#223f7f}.E{fill:#fbc8c7}.F{fill:#5586fc}.G{fill:#fb929c}.H{fill:#deedfe}.I{fill:#d18080}.J{fill:#4862aa}.K{fill:#9dc4fc}]]></style><g clip-path="url(#AC)"><rect width="1140" height="640" rx="16" class="B"/><path d="M1140 0H0v690.63h1140V0z" fill="#f1f7ff"/><mask id="A" maskUnits="userSpaceOnUse" x="0" y="0" width="606" height="691"><path d="M605.39 690.63C535 356.5 139.75 417.73 118.59 33.47c-.62-11.25.44-22.43 1.3-33.47H0v377.35 313.28h605.39z" class="B"/></mask><g mask="url(#A)"><path d="M605.39 0H0v690.63h605.39V0z" fill="url(#F)"/></g><mask id="B" maskUnits="userSpaceOnUse" x="118" y="0" width="795" height="691"><path d="M190.73 0H119.9c-.87 11.04-1.31 22.21-1.31 33.47 0 393.68 364.1 321.95 434.72 657.16h358.94C800.18 213.68 346.97 429.99 190.73 0z" class="B"/></mask><g mask="url(#B)"><path d="M912.26 0H118.59v690.63h793.66V0z" fill="url(#G)"/></g><mask id="C" maskUnits="userSpaceOnUse" x="0" y="280" width="416" height="411"><path d="M0 280.42v96.93 313.28h415.16C307.65 514.3 77.91 487.47 0 280.42z" class="B"/></mask><g mask="url(#C)"><path d="M415.16 280.3H0v410.21h415.16V280.3z" fill="url(#H)"/></g><path d="M135.59 222.16v50.65h-12.18v-50.65h12.18zm19.55 21.05v29.61h-11.72v-37.64h10.99l.73 8.04zm-1.39 9.5l-2.75.07a26 26 0 0 1 1.04-7.69c.7-2.27 1.68-4.2 2.96-5.78a12.6 12.6 0 0 1 4.56-3.58c1.79-.84 3.77-1.25 5.95-1.25 1.74 0 3.33.26 4.77.77a9.1 9.1 0 0 1 3.76 2.47 11.1 11.1 0 0 1 2.44 4.52c.58 1.86.87 4.15.87 6.89v23.69h-11.79v-23.73c0-1.51-.21-2.66-.63-3.45-.42-.81-1.02-1.37-1.81-1.67a8.1 8.1 0 0 0-2.89-.45c-1.21 0-2.23.23-3.06.7a5.4 5.4 0 0 0-2.02 1.95c-.49.81-.85 1.77-1.08 2.89-.21 1.11-.31 2.33-.31 3.65zm49.92-17.53v8.14h-22.68v-8.14h22.68zm-17.92-9.36h11.72v34.72c0 1 .12 1.77.35 2.33.23.53.63.92 1.18 1.15.58.21 1.34.31 2.3.31l1.67-.04 1.25-.17v8.38a19.2 19.2 0 0 1-3.13.73 20.7 20.7 0 0 1-3.48.28c-2.5 0-4.65-.39-6.44-1.18a8.4 8.4 0 0 1-4.04-3.72c-.93-1.69-1.39-3.9-1.39-6.61v-36.18zm40.81 47.7c-3.06 0-5.8-.47-8.21-1.43-2.41-.97-4.45-2.31-6.12-4-1.65-1.69-2.91-3.64-3.79-5.85a19.1 19.1 0 0 1-1.29-6.99v-1.32a24.5 24.5 0 0 1 1.15-7.65c.76-2.37 1.9-4.43 3.41-6.19a15.2 15.2 0 0 1 5.67-4.1 19.6 19.6 0 0 1 7.93-1.5 18.9 18.9 0 0 1 7.17 1.29 14.6 14.6 0 0 1 5.36 3.69c1.48 1.6 2.61 3.54 3.38 5.81.79 2.27 1.18 4.82 1.18 7.65v4.77h-30.75v-7.34h19.31v-.9c.02-1.25-.2-2.32-.66-3.2-.44-.88-1.09-1.55-1.95-2.02a6.5 6.5 0 0 0-3.13-.7 5.6 5.6 0 0 0-3.17.84c-.81.56-1.45 1.32-1.91 2.3-.44.95-.75 2.05-.94 3.31a27 27 0 0 0-.28 3.97v1.32c0 1.39.19 2.66.56 3.79a8.6 8.6 0 0 0 1.67 2.92c.74.79 1.62 1.4 2.64 1.84 1.04.44 2.23.66 3.55.66a13 13 0 0 0 4.73-.91c1.55-.6 2.89-1.6 4-2.99l5.32 6.33a13.8 13.8 0 0 1-3.27 3.17c-1.39 1.02-3.06 1.86-5.01 2.5-1.95.63-4.13.94-6.54.94zm32.42-29.01v28.32h-11.72v-37.64h10.96l.77 9.32zm11.13-9.6l-.21 10.89-1.88-.17-1.98-.1c-1.37 0-2.55.16-3.55.49a6 6 0 0 0-2.44 1.39c-.63.6-1.09 1.37-1.39 2.3-.28.93-.41 2.01-.38 3.24l-2.12-1.39c0-2.53.24-4.82.73-6.89a18.7 18.7 0 0 1 2.16-5.39c.93-1.53 2.05-2.7 3.38-3.51 1.32-.84 2.81-1.25 4.45-1.25.58 0 1.15.03 1.7.1a8.5 8.5 0 0 1 1.53.31zm18.23 29.89l7.41-29.61h12.35l-12.31 37.64h-7.31l-.14-8.04zm-4.38-29.61l7.31 29.61-.07 8.04h-7.34l-12.28-37.64h12.38zm40.01 0v37.64h-11.76v-37.64h11.76zm-12.45-9.71c0-1.67.6-3.04 1.81-4.1s2.77-1.6 4.7-1.6 3.49.53 4.7 1.6 1.81 2.44 1.81 4.1-.6 3.04-1.81 4.11-2.77 1.6-4.7 1.6-3.49-.53-4.7-1.6-1.81-2.44-1.81-4.11zm37.92 48.04c-3.06 0-5.8-.47-8.21-1.43-2.41-.97-4.45-2.31-6.12-4-1.65-1.69-2.91-3.64-3.79-5.85a19.1 19.1 0 0 1-1.29-6.99v-1.32c0-2.76.38-5.31 1.15-7.65.76-2.37 1.9-4.43 3.41-6.19a15.2 15.2 0 0 1 5.67-4.1 19.6 19.6 0 0 1 7.93-1.5 18.9 18.9 0 0 1 7.17 1.29c2.11.86 3.9 2.09 5.36 3.69 1.48 1.6 2.61 3.54 3.37 5.81.79 2.27 1.18 4.82 1.18 7.65v4.77h-30.75v-7.34h19.31v-.9c.02-1.25-.2-2.32-.66-3.2-.44-.88-1.09-1.55-1.95-2.02a6.5 6.5 0 0 0-3.13-.7 5.6 5.6 0 0 0-3.17.84c-.81.56-1.45 1.32-1.91 2.3-.44.95-.75 2.05-.94 3.31s-.28 2.57-.28 3.97v1.32c0 1.39.19 2.66.56 3.79a8.6 8.6 0 0 0 1.67 2.92c.74.79 1.62 1.4 2.64 1.84 1.04.44 2.23.66 3.55.66a13 13 0 0 0 4.73-.91c1.55-.6 2.89-1.6 4-2.99l5.32 6.33c-.76 1.09-1.85 2.15-3.27 3.17-1.39 1.02-3.06 1.86-5.01 2.5a21.3 21.3 0 0 1-6.54.94zm32.04-11.9l6.96-26.44h7.34l-2.61 13.26-6.89 24.39h-5.88l1.08-11.2zm-2.75-26.44l4.31 26.23.49 11.41h-7.13l-8.91-37.64h11.24zm23.24 25.68l4.35-25.68h11.24l-8.84 37.64h-7.13l.38-11.97zm-5.36-25.68l7.03 26.37 1.08 11.27h-5.95l-6.75-24.32-2.5-13.32h7.1zM148.7 342.35c0-.79-.12-1.5-.35-2.12-.23-.65-.66-1.25-1.29-1.81a11.5 11.5 0 0 0-2.71-1.67c-1.16-.58-2.69-1.18-4.59-1.81l-6.44-2.5c-2.06-.95-3.91-2.05-5.53-3.31-1.62-1.28-2.91-2.76-3.86-4.45-.95-1.72-1.43-3.71-1.43-5.98a11.8 11.8 0 0 1 1.46-5.88 13.4 13.4 0 0 1 4.07-4.49c1.76-1.25 3.83-2.2 6.19-2.85a28.3 28.3 0 0 1 7.76-1.01c3.71 0 6.98.65 9.81 1.95 2.85 1.27 5.08 3.1 6.68 5.46 1.62 2.34 2.44 5.11 2.44 8.31h-12.14a6.9 6.9 0 0 0-.8-3.37c-.51-.97-1.29-1.74-2.33-2.3a8.3 8.3 0 0 0-3.93-.83 9.5 9.5 0 0 0-3.86.7 5.4 5.4 0 0 0-2.37 1.88c-.53.77-.8 1.61-.8 2.54a3.7 3.7 0 0 0 .63 2.09c.44.6 1.06 1.17 1.84 1.71.81.53 1.79 1.04 2.92 1.53 1.16.49 2.46.96 3.9 1.43a47.5 47.5 0 0 1 7.17 2.89 22 22 0 0 1 5.32 3.58 13.2 13.2 0 0 1 3.31 4.52c.77 1.69 1.15 3.61 1.15 5.74 0 2.27-.44 4.29-1.32 6.05a12.6 12.6 0 0 1-3.79 4.49c-1.65 1.21-3.62 2.12-5.91 2.75s-4.86.94-7.69.94c-2.6 0-5.16-.32-7.69-.97-2.5-.67-4.78-1.69-6.82-3.06-2.04-1.39-3.68-3.17-4.91-5.32-1.21-2.18-1.81-4.77-1.81-7.76h12.25c0 1.48.2 2.74.59 3.76s.97 1.84 1.74 2.47c.76.6 1.7 1.04 2.82 1.32 1.11.26 2.39.38 3.83.38 1.55 0 2.81-.22 3.76-.66.95-.46 1.65-1.07 2.09-1.81.44-.77.66-1.6.66-2.5zm33.85 5.11a6 6 0 0 0 2.78-.59c.79-.42 1.38-1 1.77-1.74a5.4 5.4 0 0 0 .59-2.75h11.03c.02 2.83-.67 5.31-2.09 7.44-1.39 2.11-3.29 3.76-5.71 4.94-2.39 1.16-5.09 1.74-8.11 1.74-2.94 0-5.52-.47-7.72-1.43-2.2-.97-4.05-2.32-5.53-4.04-1.46-1.74-2.56-3.77-3.31-6.09-.72-2.32-1.08-4.84-1.08-7.55v-.8c0-2.71.36-5.23 1.08-7.55.74-2.34 1.84-4.37 3.31-6.09a15 15 0 0 1 5.5-4.04c2.2-.97 4.77-1.46 7.69-1.46 3.13 0 5.89.59 8.28 1.77a13.4 13.4 0 0 1 5.67 5.15c1.37 2.25 2.04 4.98 2.02 8.18H187.7a7.6 7.6 0 0 0-.52-3.06 4.7 4.7 0 0 0-1.74-2.16 4.9 4.9 0 0 0-2.96-.83 4.9 4.9 0 0 0-2.92.8c-.74.53-1.31 1.28-1.7 2.23-.37.93-.63 2-.77 3.2a40.4 40.4 0 0 0-.17 3.86v.8c0 1.39.06 2.7.17 3.93.14 1.21.41 2.27.8 3.2a5.1 5.1 0 0 0 1.71 2.16c.74.51 1.73.77 2.96.77zm32.67-45.09v53.44H203.5v-53.44h11.72zm-1.39 33.33l-2.75.07a26 26 0 0 1 .97-7.31 18.5 18.5 0 0 1 2.78-5.81 12.9 12.9 0 0 1 4.35-3.83c1.69-.91 3.57-1.36 5.64-1.36 1.86 0 3.55.27 5.08.8 1.55.53 2.89 1.39 4 2.57a11.6 11.6 0 0 1 2.61 4.63 22.4 22.4 0 0 1 .94 6.96v23.38h-11.79v-23.45c0-1.53-.22-2.71-.66-3.55-.42-.86-1.02-1.45-1.81-1.77-.79-.35-1.75-.52-2.89-.52a7 7 0 0 0-3.34.7c-.86.46-1.52 1.11-1.98 1.95-.44.81-.74 1.77-.9 2.89a25.3 25.3 0 0 0-.24 3.65zm48.36 20.8c-3.06 0-5.8-.47-8.21-1.43-2.41-.97-4.45-2.31-6.12-4-1.65-1.69-2.91-3.64-3.79-5.85a19.1 19.1 0 0 1-1.29-6.99v-1.32a24.5 24.5 0 0 1 1.15-7.65c.76-2.37 1.9-4.43 3.41-6.19a15.2 15.2 0 0 1 5.67-4.1 19.6 19.6 0 0 1 7.93-1.5 18.9 18.9 0 0 1 7.17 1.29 14.6 14.6 0 0 1 5.36 3.69c1.49 1.6 2.61 3.54 3.38 5.81.79 2.27 1.18 4.82 1.18 7.65v4.77h-30.75v-7.34h19.31v-.9c.02-1.25-.2-2.32-.66-3.2-.44-.88-1.09-1.55-1.95-2.02a6.5 6.5 0 0 0-3.13-.7 5.6 5.6 0 0 0-3.17.83c-.81.56-1.45 1.32-1.91 2.3a12 12 0 0 0-.94 3.31 27 27 0 0 0-.28 3.97v1.32c0 1.39.19 2.65.56 3.79a8.6 8.6 0 0 0 1.67 2.92c.74.79 1.62 1.4 2.64 1.84 1.04.44 2.23.66 3.55.66a13 13 0 0 0 4.73-.91c1.55-.6 2.89-1.6 4-2.99l5.32 6.33a13.8 13.8 0 0 1-3.27 3.17c-1.39 1.02-3.06 1.86-5.01 2.5-1.95.63-4.13.94-6.54.94zm42.23-9.32v-44.81h11.79v53.44h-10.58l-1.22-8.63zm-23.1-9.74v-.73c0-2.85.31-5.45.94-7.79.63-2.37 1.55-4.4 2.78-6.09 1.23-1.72 2.76-3.04 4.59-3.97s3.94-1.39 6.33-1.39c2.13 0 4 .5 5.6 1.5 1.6.97 2.97 2.34 4.11 4.1s2.06 3.83 2.78 6.19c.72 2.34 1.26 4.87 1.64 7.58v.87c-.37 2.55-.92 4.96-1.64 7.24-.72 2.25-1.65 4.24-2.78 5.98a13.2 13.2 0 0 1-4.14 4.11c-1.6.97-3.48 1.46-5.64 1.46-2.39 0-4.5-.47-6.33-1.43a13 13 0 0 1-4.56-4c-1.21-1.72-2.12-3.73-2.75-6.05s-.94-4.85-.94-7.59zm11.72-.73v.73a26 26 0 0 0 .28 3.93 11.5 11.5 0 0 0 .94 3.2c.46.91 1.07 1.61 1.81 2.12.76.51 1.7.77 2.82.77a6.1 6.1 0 0 0 3.72-1.08c1-.72 1.73-1.74 2.19-3.06a12.1 12.1 0 0 0 .63-4.66v-2.75c.05-1.53-.06-2.88-.31-4.04a8 8 0 0 0-1.22-2.96c-.53-.79-1.22-1.38-2.05-1.77-.81-.42-1.77-.63-2.89-.63a4.9 4.9 0 0 0-2.78.77c-.74.51-1.34 1.23-1.81 2.16-.46.9-.8 1.98-1.01 3.24-.21 1.23-.31 2.57-.31 4.04zm51.8 9.95v-28.49h11.76v37.64h-10.99l-.77-9.15zm1.11-7.65l3.06-.07c0 2.53-.3 4.87-.9 7.03-.6 2.13-1.5 3.99-2.68 5.57-1.16 1.58-2.6 2.81-4.31 3.69-1.69.86-3.65 1.29-5.88 1.29-1.86 0-3.56-.25-5.11-.76-1.53-.53-2.85-1.36-3.97-2.47a11.7 11.7 0 0 1-2.61-4.35 20.1 20.1 0 0 1-.91-6.4v-24.35h11.73v24.42a6.6 6.6 0 0 0 .31 2.16 4.2 4.2 0 0 0 .9 1.53c.39.39.88.7 1.46.91a7 7 0 0 0 2.05.28c1.76 0 3.14-.37 4.14-1.11a5.8 5.8 0 0 0 2.09-3.03c.42-1.28.63-2.71.63-4.31zm29.5-36.63v53.44h-11.76v-53.44h11.76zm19.62 15.8v37.64h-11.76v-37.64h11.76zm-12.45-9.71c0-1.67.6-3.04 1.81-4.11s2.77-1.6 4.7-1.6 3.49.53 4.7 1.6 1.81 2.44 1.81 4.11-.6 3.04-1.81 4.1-2.77 1.6-4.7 1.6-3.49-.53-4.7-1.6-1.81-2.44-1.81-4.1zm31.21 17.74v29.61h-11.72v-37.64h10.99l.73 8.04zm-1.39 9.5l-2.75.07a26 26 0 0 1 1.04-7.69c.7-2.27 1.68-4.2 2.96-5.77a12.6 12.6 0 0 1 4.56-3.58c1.79-.83 3.77-1.25 5.95-1.25 1.74 0 3.33.25 4.77.76a9.1 9.1 0 0 1 3.76 2.47c1.07 1.14 1.88 2.64 2.44 4.52.58 1.86.87 4.15.87 6.89v23.69h-11.79v-23.73c0-1.51-.21-2.66-.63-3.44-.42-.81-1.02-1.37-1.81-1.67a8.1 8.1 0 0 0-2.89-.45c-1.21 0-2.23.23-3.06.7a5.4 5.4 0 0 0-2.02 1.95c-.49.81-.85 1.77-1.08 2.89-.21 1.11-.31 2.33-.31 3.65zm53.75-17.53h10.65v36.18c0 3.48-.8 6.43-2.4 8.84-1.6 2.44-3.84 4.28-6.71 5.53-2.85 1.27-6.19 1.91-10.02 1.91a21.3 21.3 0 0 1-5.18-.66c-1.76-.42-3.41-1.04-4.94-1.88s-2.82-1.87-3.86-3.1l4.91-6.89c.95 1.07 2.15 1.97 3.58 2.71 1.44.77 3.13 1.15 5.08 1.15 1.69 0 3.11-.3 4.24-.9 1.16-.6 2.04-1.48 2.64-2.64.6-1.14.9-2.52.9-4.14v-27.21l1.11-8.91zm-25.01 19.27v-.73a27.3 27.3 0 0 1 1.04-7.79c.72-2.37 1.74-4.4 3.06-6.09 1.35-1.72 2.97-3.04 4.87-3.97a14.5 14.5 0 0 1 6.44-1.39c2.57 0 4.69.5 6.33 1.5a10.8 10.8 0 0 1 4 4.1c1.02 1.76 1.81 3.83 2.37 6.19.58 2.34 1.07 4.87 1.46 7.58v.87c-.39 2.55-.94 4.96-1.64 7.24a24.3 24.3 0 0 1-2.64 5.98 12.4 12.4 0 0 1-4.11 4.11c-1.62.97-3.57 1.46-5.84 1.46a14.1 14.1 0 0 1-6.4-1.43 14.3 14.3 0 0 1-4.84-4c-1.32-1.72-2.34-3.73-3.06-6.05a26.3 26.3 0 0 1-1.04-7.59zm11.72-.73v.73a19 19 0 0 0 .38 3.93c.28 1.21.7 2.27 1.25 3.2.56.91 1.24 1.61 2.05 2.12a5.5 5.5 0 0 0 2.92.77 7.1 7.1 0 0 0 4.11-1.08 6 6 0 0 0 2.26-3.06c.46-1.32.66-2.88.59-4.66v-2.75c.05-1.53-.06-2.88-.31-4.04a8 8 0 0 0-1.22-2.96 4.9 4.9 0 0 0-2.16-1.77c-.88-.42-1.95-.63-3.2-.63a5.4 5.4 0 0 0-2.89.77 6.2 6.2 0 0 0-2.09 2.16c-.56.9-.99 1.98-1.29 3.24-.28 1.23-.42 2.57-.42 4.04zm-324.24 72.44h9.95l11.31 35.24 11.31-35.24h9.95l-17.22 50.65h-8.07l-17.22-50.65zm-6.05 0h10.3l1.91 38.83v11.83h-12.21v-50.65zm44.32 0h10.33v50.65h-12.25v-11.83l1.91-38.83zm37.16 41.19v-15.52a7.5 7.5 0 0 0-.45-2.75c-.3-.77-.78-1.36-1.43-1.77-.65-.44-1.52-.66-2.61-.66-.88 0-1.63.15-2.26.45a3.1 3.1 0 0 0-1.43 1.36c-.32.6-.49 1.37-.49 2.3H183.7a10.4 10.4 0 0 1 1.15-4.84c.79-1.51 1.9-2.82 3.34-3.93 1.46-1.11 3.2-1.97 5.22-2.57a23.2 23.2 0 0 1 6.82-.94c2.99 0 5.66.5 8 1.5a12.5 12.5 0 0 1 5.6 4.49c1.37 1.97 2.05 4.45 2.05 7.44v15.41c0 2.46.14 4.32.42 5.6a12.9 12.9 0 0 0 1.18 3.31v.59h-11.76c-.56-1.16-.97-2.57-1.25-4.24a35 35 0 0 1-.38-5.22zm1.43-13.53l.07 6.26h-5.18a7.6 7.6 0 0 0-2.78.45 4.7 4.7 0 0 0-1.81 1.25c-.44.51-.77 1.09-.97 1.74a7.4 7.4 0 0 0-.28 2.05c0 .7.16 1.32.49 1.88a3.6 3.6 0 0 0 1.39 1.25c.58.3 1.23.45 1.95.45a6.9 6.9 0 0 0 3.31-.73c.93-.51 1.64-1.12 2.12-1.84s.73-1.39.73-2.02l2.57 4.8a32 32 0 0 1-1.6 2.82c-.58.95-1.31 1.83-2.19 2.64-.86.79-1.91 1.44-3.17 1.95a12.6 12.6 0 0 1-4.56.73 14.4 14.4 0 0 1-6.4-1.43c-1.92-.95-3.47-2.27-4.63-3.97a10.3 10.3 0 0 1-1.74-5.91c0-1.95.35-3.69 1.04-5.22a10.2 10.2 0 0 1 3.23-3.9c1.44-1.07 3.27-1.88 5.5-2.44s4.85-.84 7.86-.84h5.04zm38.51 14.37v-44.81h11.79v53.44h-10.58l-1.22-8.63zm-23.1-9.74v-.73c0-2.85.31-5.45.94-7.79.63-2.37 1.55-4.4 2.78-6.09 1.23-1.72 2.76-3.04 4.59-3.97s3.94-1.39 6.33-1.39c2.13 0 4 .5 5.6 1.5 1.6.97 2.97 2.34 4.11 4.1s2.06 3.83 2.78 6.19c.72 2.34 1.26 4.87 1.63 7.58v.87c-.37 2.55-.92 4.96-1.63 7.24-.72 2.25-1.65 4.24-2.78 5.98s-2.52 3.11-4.14 4.11c-1.6.97-3.48 1.46-5.64 1.46-2.39 0-4.5-.47-6.33-1.43a13 13 0 0 1-4.56-4c-1.21-1.72-2.12-3.73-2.75-6.05a29 29 0 0 1-.94-7.59zm11.72-.73v.73c0 1.42.09 2.73.28 3.93a11.5 11.5 0 0 0 .94 3.2c.46.91 1.07 1.61 1.81 2.12.77.51 1.7.77 2.82.77a6.1 6.1 0 0 0 3.72-1.08c1-.72 1.73-1.74 2.19-3.06a12.1 12.1 0 0 0 .63-4.66v-2.75a16.6 16.6 0 0 0-.31-4.04 8 8 0 0 0-1.22-2.96c-.53-.79-1.22-1.38-2.05-1.77-.81-.42-1.77-.63-2.89-.63a4.9 4.9 0 0 0-2.78.77c-.74.51-1.35 1.23-1.81 2.16-.46.9-.8 1.98-1.01 3.24-.21 1.23-.31 2.57-.31 4.04zm48.04 19.79c-3.06 0-5.8-.47-8.21-1.43-2.41-.97-4.45-2.31-6.12-4-1.65-1.69-2.91-3.64-3.79-5.85a19.1 19.1 0 0 1-1.29-6.99v-1.32a24.5 24.5 0 0 1 1.15-7.65c.76-2.37 1.9-4.43 3.41-6.19a15.2 15.2 0 0 1 5.67-4.1 19.6 19.6 0 0 1 7.93-1.5 18.9 18.9 0 0 1 7.17 1.29 14.6 14.6 0 0 1 5.36 3.69c1.48 1.6 2.61 3.54 3.37 5.81.79 2.27 1.18 4.82 1.18 7.65v4.77h-30.75v-7.34h19.31v-.9c.02-1.25-.2-2.32-.66-3.2-.44-.88-1.09-1.55-1.95-2.02a6.5 6.5 0 0 0-3.13-.7 5.6 5.6 0 0 0-3.17.83c-.81.56-1.45 1.32-1.91 2.3a12.1 12.1 0 0 0-.94 3.31c-.19 1.25-.28 2.57-.28 3.97v1.32c0 1.39.19 2.65.56 3.79a8.6 8.6 0 0 0 1.67 2.92 7.9 7.9 0 0 0 2.64 1.84c1.04.44 2.23.66 3.55.66a13 13 0 0 0 4.73-.91c1.55-.6 2.89-1.6 4-2.99l5.32 6.33c-.76 1.09-1.85 2.15-3.27 3.17-1.39 1.02-3.06 1.86-5.01 2.5a21.3 21.3 0 0 1-6.54.94zm79.56-12.44l-2.04 11.74h-32.83l2.04-11.74h32.83zm-18.52-51.58l-11 63.32h-14.87l10.96-63.32h14.92zm18.87 25.13l-1.96 11.35h-28.61l2-11.35h28.57zm8.7-25.13l-2.04 11.78H334.3l2.09-11.78h32.92zm29.57 14.05l-23.31 49.27h-16.48l33.57-63.32h10.52l-4.31 14.05zm4 49.27l-6.44-50.79.35-12.52h9.92l11.7 63.32h-15.52zm3.39-23.61l-2.09 11.78h-31.62l2.09-11.78h31.62zm51.45 6.48c.26-1.36.16-2.52-.3-3.48a6.2 6.2 0 0 0-2-2.44c-.87-.67-1.87-1.23-3-1.7-1.1-.49-2.18-.94-3.22-1.35-2.26-.9-4.49-1.91-6.7-3.04a31.3 31.3 0 0 1-6-4.09c-1.8-1.57-3.2-3.39-4.22-5.48-.99-2.09-1.41-4.54-1.26-7.35.2-3.22 1.12-5.99 2.74-8.31a19.1 19.1 0 0 1 6.22-5.65 29.2 29.2 0 0 1 8.22-3.22c2.96-.7 5.84-1.01 8.65-.96 4 .06 7.57.87 10.7 2.44a17.8 17.8 0 0 1 7.44 6.74c1.8 2.9 2.67 6.41 2.61 10.52h-14.74c.06-1.62-.16-3.03-.65-4.22-.46-1.22-1.23-2.16-2.31-2.83a7.8 7.8 0 0 0-4.17-1.09 12.2 12.2 0 0 0-4.26.69 9.7 9.7 0 0 0-3.7 2.18 6.8 6.8 0 0 0-2 3.83c-.2 1.19-.01 2.23.56 3.13a7.8 7.8 0 0 0 2.39 2.26 21.5 21.5 0 0 0 3.18 1.57l2.96 1.13a50.5 50.5 0 0 1 6.83 3.18c2.2 1.19 4.15 2.59 5.83 4.22 1.71 1.62 3.01 3.52 3.91 5.7.93 2.15 1.3 4.64 1.13 7.48-.23 3.28-1.1 6.07-2.61 8.39a18.1 18.1 0 0 1-5.83 5.65 26.6 26.6 0 0 1-7.83 3.18c-2.84.67-5.73.99-8.65.96a31.2 31.2 0 0 1-9.18-1.48 22.4 22.4 0 0 1-7.44-4.13 18.6 18.6 0 0 1-4.91-6.7c-1.16-2.67-1.71-5.73-1.65-9.18l14.92.04c-.09 1.62.01 3.06.31 4.31a7.6 7.6 0 0 0 1.56 3.09c.75.81 1.73 1.44 2.91 1.87a13.4 13.4 0 0 0 4.31.61c1.42 0 2.78-.22 4.09-.65 1.33-.46 2.46-1.17 3.39-2.13s1.52-2.19 1.78-3.7zm41.36-46.18l6.52 27.4 16.05-27.4h16.7l-27.27 41.27-3.78 22.05h-15.18l4.09-23.48-12.7-39.79 15.57-.04zm58.75 0l-9.31 43.27h-11.65l5.7-43.27h15.26zm-25.48 57.01c-.06-2.26.7-4.1 2.26-5.52a8.2 8.2 0 0 1 5.65-2.13c2.09-.03 3.9.62 5.44 1.96 1.57 1.31 2.38 3.03 2.44 5.18.03 2.23-.74 4.07-2.31 5.52-1.57 1.42-3.44 2.13-5.61 2.13a8.1 8.1 0 0 1-5.48-1.91c-1.54-1.3-2.33-3.04-2.39-5.22z" fill="#5b5b5b"/><g filter="url(#E)"><path d="M323 71.25a11.9 11.9 0 0 0-11.87-11.87H0v89.06h311.13A11.9 11.9 0 0 0 323 136.56V71.25z" fill="#3886e7"/><path d="M47.66 107.53h-6.3v-4.71h6.3c.86 0 1.55-.14 2.09-.44s.92-.69 1.17-1.2c.26-.52.38-1.11.38-1.76 0-.7-.13-1.34-.38-1.93-.24-.59-.63-1.07-1.17-1.43-.53-.37-1.23-.56-2.09-.56h-4v20.61h-6.11V90.8h10.11c2.03 0 3.77.37 5.24 1.11 1.47.74 2.6 1.76 3.39 3.06a8.3 8.3 0 0 1 1.18 4.42 7.7 7.7 0 0 1-1.18 4.28c-.79 1.22-1.92 2.17-3.39 2.85-1.46.67-3.21 1.01-5.24 1.01zm22.39 3.86v-7.76c0-.53-.08-.99-.23-1.37s-.39-.68-.71-.89c-.32-.22-.76-.33-1.3-.33-.44 0-.82.08-1.13.23s-.55.38-.71.68a2.4 2.4 0 0 0-.24 1.15h-5.86a5.2 5.2 0 0 1 .57-2.42 6 6 0 0 1 1.67-1.97c.73-.56 1.6-.99 2.61-1.29a11.6 11.6 0 0 1 3.41-.47c1.5 0 2.83.25 4 .75 1.18.5 2.12 1.25 2.8 2.24.68.99 1.03 2.23 1.03 3.72v7.71c0 1.23.07 2.16.21 2.8.14.63.34 1.18.59 1.65v.3h-5.88c-.28-.58-.49-1.29-.63-2.12a17.5 17.5 0 0 1-.19-2.61zm.71-6.77l.03 3.13h-2.59a3.8 3.8 0 0 0-1.39.23c-.37.15-.67.36-.9.63-.22.25-.38.55-.49.87-.09.33-.14.67-.14 1.03 0 .35.08.66.24.94.17.27.41.48.7.63s.61.23.97.23c.65 0 1.2-.12 1.65-.36.46-.26.82-.56 1.06-.92s.37-.7.37-1.01l1.29 2.4c-.23.46-.5.93-.8 1.41a6.1 6.1 0 0 1-1.1 1.32c-.43.4-.96.72-1.58.98a6.3 6.3 0 0 1-2.28.36 7.2 7.2 0 0 1-3.2-.71c-.96-.48-1.73-1.14-2.31-1.98-.58-.86-.87-1.84-.87-2.96 0-.97.17-1.84.52-2.61a5.1 5.1 0 0 1 1.62-1.95c.72-.53 1.64-.94 2.75-1.22s2.42-.42 3.93-.42h2.52zm14.35-2.66v14.16h-5.86V97.3h5.48l.38 4.66zm5.57-4.8l-.1 5.44-.94-.09-.99-.05c-.68 0-1.28.08-1.77.24a3 3 0 0 0-1.22.7c-.31.3-.55.68-.7 1.15a5.3 5.3 0 0 0-.19 1.62l-1.06-.7a15 15 0 0 1 .37-3.44c.26-1.04.61-1.94 1.08-2.7.46-.77 1.03-1.35 1.69-1.76a4.1 4.1 0 0 1 2.23-.63c.29 0 .57.02.85.05.29.03.55.09.77.16zm12.8.14v4.07H92.14V97.3h11.34zm-8.96-4.68h5.86v17.36c0 .5.06.89.17 1.17.12.27.31.46.59.57.29.1.67.16 1.15.16l.84-.02.63-.09v4.19c-.5.16-1.02.28-1.56.37-.55.09-1.12.14-1.74.14-1.25 0-2.32-.2-3.22-.59a4.2 4.2 0 0 1-2.02-1.86c-.46-.85-.7-1.95-.7-3.3V92.62zm31.61 10.32v4.54h-10.45v-4.54h10.45zm18.72-1.93h2.85a3.7 3.7 0 0 0 1.79-.38c.47-.27.83-.64 1.06-1.11.23-.49.35-1.06.35-1.72 0-.51-.11-.98-.33-1.41-.21-.43-.53-.77-.97-1.03-.44-.27-1-.4-1.69-.4a3.3 3.3 0 0 0-1.36.3c-.44.19-.81.45-1.1.8-.28.35-.42.77-.42 1.27h-5.88c0-1.44.39-2.67 1.18-3.69.8-1.03 1.85-1.82 3.15-2.37a10.7 10.7 0 0 1 4.23-.83 12.4 12.4 0 0 1 4.73.83c1.36.55 2.41 1.36 3.17 2.44.76 1.07 1.15 2.39 1.15 3.97 0 .87-.2 1.69-.61 2.45a6.4 6.4 0 0 1-1.71 2.02c-.73.58-1.59 1.04-2.57 1.38a10.1 10.1 0 0 1-3.2.49h-3.83v-2.99zm0 4.37v-2.92h3.83a12.9 12.9 0 0 1 3.46.43c1.04.28 1.94.7 2.7 1.25s1.33 1.25 1.74 2.07a6.2 6.2 0 0 1 .61 2.8c0 1.18-.24 2.24-.71 3.17a6.7 6.7 0 0 1-2 2.35c-.86.64-1.86 1.13-3.01 1.46a13.7 13.7 0 0 1-3.74.49c-1.06 0-2.11-.14-3.17-.42a9.6 9.6 0 0 1-2.89-1.32 7 7 0 0 1-2.1-2.3 6.8 6.8 0 0 1-.78-3.36h5.88a2.6 2.6 0 0 0 .44 1.46c.3.43.7.77 1.2 1.03a3.5 3.5 0 0 0 1.62.38c.72 0 1.33-.13 1.83-.4.51-.28.9-.65 1.17-1.11s.4-.98.4-1.55c0-.86-.14-1.54-.44-2.05-.28-.51-.69-.88-1.23-1.11-.53-.23-1.18-.35-1.93-.35h-2.85z" class="B"/></g><g clip-path="url(#AD)"><g opacity=".3"><g opacity=".2"><mask id="D" maskUnits="userSpaceOnUse" x="635" y="387" width="416" height="57"><path d="M1050.93 387.45H635.3v56.27l415.63-.06v-56.21z" class="B"/></mask><g mask="url(#D)"><path d="M1027.97 387.45c3.1 11.97 22.09 82.43-6.65 130.61s-72.1 73.35-131.6 72.04c-43.14-.95-84.99-14.35-113.82-54.94S717.07 514.05 674 487.18c-29.37-18.33-33.12-66.17-16.96-99.73h370.94z" fill="url(#I)"/><path d="M674.76 387.45c1.28 11.8 2.81 38.97-12 44.43s-21.44-9.36-15.32-19.59 19.5-12.61 20.47-24.84h6.84z" fill="url(#J)"/><path d="M671.68 392.63l-.63 4.15a69.9 69.9 0 0 1-2.02 8.22 66.7 66.7 0 0 1-7.04 15.5 62 62 0 0 1-5.75 7.84c-.11.13-.17-.08-.1-.17 3.5-4.52 6.55-9.4 8.94-14.6 2.33-5.07 4.09-10.41 5.17-15.88a68.6 68.6 0 0 0 .75-4.62l.27-2.31c.08-.82.16-1.64.36-2.44.03-.11.21-.2.24-.04.21 1.42-.02 2.93-.19 4.35z" class="H"/><path d="M652.83 400.09c-6.83-.41-6.09-6.56-.52-7.96 5.08-1.27 8.56-.71 12.12-4.68h1.69c-1.56 5.07-5.93 13.08-13.29 12.64z" fill="url(#K)"/><path d="M1012.43 387.45c-1.27 11.8-2.8 38.97 12 44.43 14.81 5.47 21.45-9.36 15.32-19.59s-19.5-12.61-20.47-24.84h-6.85z" fill="url(#L)"/><path d="M1015.33 392.12l.62 4.15a70.3 70.3 0 0 0 2.03 8.22c1.69 5.42 4.03 10.69 7.04 15.5a62.1 62.1 0 0 0 5.75 7.84c.1.13.16-.08.09-.17-3.5-4.52-6.55-9.4-8.94-14.6-2.33-5.07-4.09-10.41-5.17-15.88a72.1 72.1 0 0 1-.75-4.62l-.26-2.31c-.09-.82-.16-1.64-.36-2.44-.03-.11-.22-.2-.24-.04-.21 1.42.02 2.93.19 4.35z" class="H"/><path d="M1034.36 400.09c6.83-.41 6.08-6.56.52-7.96-5.08-1.27-8.56-.71-12.12-4.68h-1.7c1.57 5.07 5.94 13.08 13.3 12.64z" fill="url(#M)"/><path d="M923.04 387.45h-52.41v10.21h52.41v-10.21z" fill="#000"/><path d="M820.76 429.59a8.6 8.6 0 0 1-1.4-4.42 16.6 16.6 0 0 1 1.07-6.94l1.98-.02c1.14 0 1.77-.23 2.3-.4 1.41-.44 1.8-.87 3.02-1.72 1.09-.76 9.82-5.08 11.46-5.37 1.48-.26 2.24-.48 3.05-.39 1.2.13 2.97.73 1.91 2.48 1.99-1.19 4.23-.49 4.07 1.42 1.07-.9 2.9-1.01 3.84.03.41.45.19 1.34-.03 1.89-3.12 8.04-4.92 7.97-13.54 11.9-2.85 1.3-4.89 1.99-7.85 2.04-2.47.05-8.51-.19-9.88-.49z" class="I"/><path d="M837.64 410.47c.38.18.77.38 1.06.68s.48.75.37 1.16c-.34 1.26-2.2 1.08-3.16.95l.54.54c.33.33.67.7.68 1.17 0 .35-.21.68-.49.89s-.63.31-.98.37a4.6 4.6 0 0 1-1.11.06l-.69-.02c.29.31.57.66.7 1.07.36 1.1-.65 1.93-1.69 1.87a4.1 4.1 0 0 1-1.55-.5c-1.56-.77-3.39-1.71-4.31-3.24-.26-.42-.45-.99-.14-1.42.34-.48.94-.75 1.51-.84a6.4 6.4 0 0 1 2.21.18c-.34-.37-.39-.95-.19-1.41.5-1.17 1.98-1.06 3.05-.91-.1-.32.11-.68.4-.85 1.23-.75 2.62-.3 3.81.28zm10.18 19.79c-2.21.66-4.38 1.49-6.67 1.76a5 5 0 0 1-2.04-.09c-.71-.21-1.32-.68-1.89-1.16a36.7 36.7 0 0 1-5.22-5.32c-.09-.12-.18-.23-.23-.37-.11-.31.02-.67.27-.9a1.7 1.7 0 0 1 .9-.38c1.38-.22 2.76.42 3.89 1.24.65.48 1.28 1.03 2.07 1.25.92.26 1.9 0 2.81-.31 2.28-.78 4.31-1.71 5.64-2.71.63-.48 1.65-2.01 2.68-3.7l2.03-3.45 5.53 2.07-1.26 7.93-.79 3.54s-1.72-.2-2.73-.13a26.5 26.5 0 0 0-4.98.7z" class="E"/><path d="M858.53 432l-4.22-1.71 3.07-14.11 4.94 1.58-3.79 14.24z" fill="url(#N)"/><path d="M873.02 439.98l-15.82-7.95 4.03-16.01 11.04 3.8.75 20.17z" class="D"/><path d="M890.99 475.82l-9.93-4.39s-5.3-19.36-6.16-39.5-.34-34.26-.34-34.26c9.06-3.5 27.14-1.75 45.22 0v72.32l-9.87 7.26s-14.49-6.09-16.93-5.81-2 4.39-2 4.39z" fill="url(#O)"/><path d="M919.8 451.53l-22.96-5.12c-2.95-18.44-3.63-38.19-5.73-41.42-3.43-5.25-8.67-6.23-16.64-2.55l.11-4.78c9.06-3.5 27.14-1.75 45.22 0v53.87z" class="C"/><path d="M890.99 475.82c-3.22-4.09-6.52-8.89-9.17-19.81s-4.13-28.27-4.13-37.25l-.3-23.99-6.77 2.88c.44 18.15 1.5 45.94 6.01 65.28 1.75 7.5 3.38 9.61 7.93 11.85s7.78 3.37 7.78 3.37l-1.34-2.34z" fill="url(#P)"/><path d="M889.57 465.13c-2.7-7.56-9.46-34.08-9.21-38.23s1.81-18.08 3.77-18.45 6.32 13.69 6.76 16.74 1.42 39.46 1.42 39.46l-2.74.48z" fill="url(#Q)"/><path d="M910.91 479.5c-.75-3.26-6.57-9.1-10.53-20.71s-5.08-17.92-5.67-33.57c-.55-14.61.27-31.1.27-31.1l28.06 3.53s-3.15 23.07-2.43 33.12 2.22 42.91 2.22 42.91-7.28 1.72-11.92 5.8z" fill="url(#R)"/><path d="M911.51 475.42l-.15-8.26c-2.2-1.92-5.14-4.87-7.56-7.17l-.51-21.02c-2.38-4.07-5.43-9.36-7.23-14.21 2.08 4.97 5.05 9.54 7.68 14.2l.53 20.92-.07-.16 7.45 7.44-.15 8.26zm11.32-1.72c3.86-1.78 6.62-5.42 8.3-10.39s10.33-33.98 11.34-37.69 1.91-6.86-2.58-13.49-14.12-24.68-14.12-24.68h-17.73l10.83 26.08c1.91 4.05 2.32 8.74-.65 17.72-2.66 8.03-4.08 13.01-4.66 16.95s1.37 19.69 9.27 25.49zm-158.34-76.04c-1.71-4.41-2.26-10.21-2.26-10.21h58.17v10.21h-55.91z" class="D"/><path d="M779.86 472.75l24.21-17.95-5.56 15.56 5.9-1.58s9.07-16.13 11.12-24.65 3.4-46.46 3.4-46.46c-5.72-5.04-30.18-2.12-52.75 0 0 0 6.03 14.66 6.71 20.11s-5.67 30.45-6.69 35.45-1.36 8.07 0 10 13.67 9.53 13.67 9.53z" fill="url(#S)"/><path d="M818.81 400.64c-5.63-2.06-13.17-1.89-14.18-.12-1.29 2.26 0 7.92 0 7.92l13.53 6.27-.4 7.03-28.84-2.95-16.02 1.26a12.6 12.6 0 0 0 0-2.28c-.68-5.45-6.71-20.11-6.71-20.11 22.57-2.12 47.03-5.04 52.75 0l-.12 2.98z" class="C"/><path d="M779.86 472.75s9.33-10.17 14.64-21c4.59-9.34 5.52-11.65 6.71-28.38s.58-30.82.58-30.82c-14.18-1.03-26.86.28-37.31 5.11l5.35 19.09c1.46 5.58-.27 12.63-2.78 22.45s-3.85 19.84-3.58 22.23 6.44 4.66 16.39 11.32z" fill="url(#T)"/><path d="M798.51 470.35c5.97-6.82 12.31-18.36 13.74-26.78s2.59-49.76 2.59-49.76c2.91.87 5.11 2.01 5.57 3.85l-2.69 43.19c-1.03 9.85-11.6 27.48-11.6 27.48l-7.6 2.03z" fill="url(#U)"/><path d="M815.34 429.15l5.62.46s-1.16-2.71-1-6.25 1-5.7 1-5.7l-5.45-1.06s-.84 1.9-1.04 5.88.87 6.67.87 6.67z" fill="url(#V)"/><path d="M764.43 462.9c-2.31-2.36-2.53-5.96 0-18.66s10.76-29.08 12.2-32.35 3.62-5.2 10.38-3.75 29.34 7.52 29.34 7.52a29.2 29.2 0 0 0-.97 13.77l-23.91-3.14-5.34 20.54c-2.75 9.32-11.47 22-21.71 16.08z" fill="url(#W)"/><path d="M791.75 426.54l-4.34 16.42c-1.4 4.88-3.18 9.83-6.42 13.82-1.72 2.11-3.77 3.98-6.17 5.28-.03.02-.03-.05-.01-.07 4.06-2.5 6.91-6.44 8.95-10.68 2.39-4.98 3.64-10.43 5.04-15.75l2.36-8.93c.01-.03-.01-.07-.05-.08-2.57-.48-5.13-1-7.63-1.77-.05-.02-.04-.13.02-.13 2.05.33 4.08.74 6.12 1.14l2.21.42-.07.32z" class="F"/><path d="M800.9 427.51c-.4 0-8.39-.77-9.79-.95-.13-.02.49-.38.59-.36l9.2 1.31zm9.21-9.73l-.39 2.46-.17 2.41c-.02.85.07 1.73-.02 2.57-.01.09-.14.18-.18.06-.22-.78-.17-1.65-.15-2.46a27.3 27.3 0 0 1 .15-2.49 25.8 25.8 0 0 1 .4-2.52 10.6 10.6 0 0 1 .75-2.46c.04-.09.12-.04.11.04-.09.81-.32 1.59-.49 2.38z" class="F"/><path d="M687.68 397.7l-1.08-10.25h54.58v10.25h-53.49z" fill="#000"/><path d="M750.72 447.6s5.8 3.81 8.63 5.32c4.51 2.41 5.81 3.49 8.06 2.97 3.38-.77 6.17-1.23 6.11-2.51s-2.9-1.58-5.01-1.2c2.62-1.43 5.2-1.94 8.41-1.77s3.83-.25 4.39-1.17-.32-1.76-.32-1.76c.98.08 2.27-.08 2.73-1.42.38-1.1-.7-2.16-1.35-2.27 1-.86.26-2.95-1.44-3.18.45-.93-.37-2.33-2.98-2.57a40.4 40.4 0 0 0-9.99.59c-5.15.92-5.34.12-7.05-1.03l-3.28-2.19s-2.58-.06-5.05 4.44-1.84 7.74-1.84 7.74z" class="E"/><path d="M749.34 447.06l5.42 3.36s0-3.79 2.18-7.73 5.1-4.81 5.1-4.81l-4.91-3.39s-6.62 3.67-7.79 12.57z" fill="url(#X)"/><path d="M780.92 440.62c-.85 1.46-2.96 1.21-4.4 1.19-1.57-.05-3.15.08-4.71.29.76-.22 1.55-.34 2.34-.44 1.56-.24 3.17.04 4.73-.1.75-.09 1.61-.25 2.04-.94z" class="G"/><path d="M751.71 448.62c-.6-2.83 2.16-11.37 7.41-13.41l-18.1-15.5c-2.08-1.98-4.01-2.97-5.02-2.85s1.57 24.23 1.57 24.23l14.14 7.54z" class="D"/><path d="M748.27 443.7c.12-1.03.27-2.03.52-3.04a14.5 14.5 0 0 1 .93-2.6c.38-.81.84-1.59 1.38-2.32l.91-1.12c.28-.33.45-.72.73-1.04.02-.02.01-.1-.03-.08-.38.26-.78.45-1.11.78-.35.34-.66.74-.95 1.13a13.9 13.9 0 0 0-1.48 2.49c-.81 1.77-1.31 3.78-1.13 5.74.01.11.19.22.21.06z" class="J"/><path d="M720.02 476.62l10.02-4.43s5.34-19.55 6.21-39.9.35-34.6.35-34.6c-7.53-3.68-26.83-1.72-45.64 0v73.04l9.96 7.33s14.63-6.15 17.09-5.87 2.02 4.43 2.02 4.43z" fill="url(#Y)"/><path d="M724.12 399.38c-5.71 1.68-6.28 10.98-6.28 10.98l4.6.57c1.99-5.29 3.3-5.38 3.97-1.28l.97 12.7h-36.41V397.7c18.81-1.72 38.11-3.68 45.64 0a225.2 225.2 0 0 0 .09 3.53c-4.79-1.47-9.94-2.62-12.57-1.85z" class="C"/><path d="M720.63 476.62c3.25-4.13 6.58-8.98 9.25-20s4.17-28.55 4.17-37.61.53-24.1.53-24.1c2.59.39 4.91 1.15 6.6 2.79-.45 18.33-.11 45.81-4.66 65.33-1.76 7.57-4.81 10.29-9.4 12.56s-7.85 3.4-7.85 3.4l1.35-2.36z" fill="url(#Z)"/><path d="M720.93 463.95c2.73-7.64 9.55-34.41 9.3-38.61s-1.82-18.26-3.81-18.63-6.38 13.82-6.83 16.91-1.43 39.85-1.43 39.85l2.76.48z" fill="url(#a)"/><path d="M699.92 480.35c.75-3.29 6.63-9.19 10.63-20.91s5.13-18.1 5.73-33.9c.56-14.75-.81-31.69-.81-31.69-10.76.38-20.26 1.52-27.78 3.85 0 0 3.18 23.29 2.46 33.45s-2.24 43.34-2.24 43.34 7.35 1.74 12.03 5.86z" fill="url(#b)"/><path d="M699.31 476.23l-.15-8.34c2.39-2.55 5.02-5.02 7.52-7.51l-.07.17.53-21.13c2.66-4.71 5.65-9.32 7.75-14.34-1.81 4.89-4.89 10.24-7.29 14.35l-.52 21.23-7.63 7.24-.15 8.34z" class="D"/><path d="M687.9 474.48c-5.23-1.08-7.55-3.29-11.22-14.93s-9.66-36.03-10.27-41.54l20.97 11.03 5.69 16.05s2.25 23.25-5.17 29.39z" fill="url(#c)"/><path d="M687.78 429.65c-.85.06-1.71.01-2.56 0l-2.76-.1-2.5-.18c-.9-.08-1.82-.15-2.7-.36-.12-.03-.01-.24.08-.24 1.75-.03 3.51.15 5.26.21l2.48.06 2.77.02c.4.03.3.56-.06.59z" class="D"/><path d="M723.99 413.46l-31.55-5.14c-.91-.15-1.77.47-1.92 1.39l-6.8 41.93c-.15.91.47 1.78 1.38 1.92l31.55 5.14c.91.15 1.77-.47 1.92-1.39l6.8-41.93c.15-.91-.47-1.78-1.38-1.92z" fill="#fa5b7e"/><path d="M706.64 430.14c1.19.35 2.82 2.11 3.88 4.5 1.38 3.09.62 7.52.53 8.99s1.81 2.76 3.02.52 2.15-5.18 2.45-6.61c0 0 2.82 1.16 4.92 1.68s3.48 1.08 4.09-.88-1.35-3.44-1.35-3.44.74-.86.83-2.68-.52-2.5-.52-2.5 1.29-3.97-1.98-6.82-15.7-5.53-15.7-5.53l-.17 12.76z" class="E"/><path d="M701.24 429.38l5.58.95s.88-2.33 1.23-7 0-6.82 0-6.82l-5.43-1.04-1.38 13.9z" fill="url(#d)"/><path d="M702.38 429.9l-15-.86-20.97-11.03c-.61-5.52.98-8.7 7.46-8.33s29.84 5.15 29.84 5.15 1.01 6.62-1.33 15.07z" fill="url(#e)"/><path d="M946.02 397.7v-10.25h61.27a54.9 54.9 0 0 1-2.07 10.25h-59.2 0z" class="J"/><path d="M936.87 446.66c-3.57 3.47-4.81 4.5-7.77 6.62-3.47 2.47-5.63 3.93-8.93 2.98s-6.03-1.59-5.89-2.85 2.97-1.38 5.03-.88c-2.51-1.57-5.02-2.24-8.21-2.26s-3.77-.48-4.27-1.42.43-1.72.43-1.72c-.97.02-2.24-.22-2.62-1.57-.31-1.11.82-2.09 1.47-2.16-.94-.91-.08-2.93 1.62-3.06-.38-.94.51-2.28 3.11-2.36a40.1 40.1 0 0 1 9.85 1.19c5.04 1.22 5.85-.17 6.8-1.05 1.92-1.78 2.35-2.03 2.35-2.03s3.82.63 5.99 5.23 1.05 5.34 1.05 5.34z" class="E"/><path d="M907.73 440.35c.75 1.5 2.85 1.37 4.28 1.44a28 28 0 0 1 4.64.57 14.2 14.2 0 0 0-2.28-.58c-1.53-.34-3.14-.16-4.67-.38-.74-.13-1.57-.35-1.96-1.05zm-1.61 3.06c1.09 1.5 3.2 1.01 4.78 1.18l5.04.47c-1.64-.46-3.34-.62-5.03-.73-1.61-.16-3.56.41-4.8-.92z" class="G"/><path d="M936.47 447.13c.27-2.85-1.94-9.17-7.34-10.58l15.11-17.99c1.82-2.18 3.62-3.38 4.62-3.37s.86 22.99.86 22.99l-13.25 8.96z" fill="url(#f)"/><path d="M939.83 442.97a23.1 23.1 0 0 0-.86-2.93 14.3 14.3 0 0 0-1.21-2.45c-.47-.76-1.01-1.47-1.62-2.12-.32-.35-.67-.67-1.02-1-.31-.29-.52-.65-.84-.94-.02-.02-.02-.1.02-.08.4.21.82.36 1.18.64a9.4 9.4 0 0 1 1.06 1 13.8 13.8 0 0 1 1.73 2.28c1 1.65 1.72 3.57 1.76 5.52 0 .1-.16.24-.2.08z" class="F"/><path d="M998.6 397.7c-1.53 7.65-5.69 28.98-5.24 32.55.55 4.36 5.79 36.3 5.79 36.3l-13.25 7.69-.27-4.83c-6.07-3.59-19.59-4.7-25.67 0 0 0-8.82-16.3-8.82-34.78V397.7c11.04-3.16 28.65-1.98 47.45 0z" fill="url(#g)"/><path d="M998.6 397.71c-1.53 7.65-5.69 28.98-5.24 32.55.18 1.43.87 5.82 1.71 11.08l-22.56-32.17c-4.97-6.18-13.55-6.91-21.36-3.46v-8.01c11.04-3.16 28.65-1.98 47.45 0z" class="C"/><path d="M1005.22 397.7c-2.91 7.13-10.46 25.98-10.37 29.01.14 4.4 3.35 16.82 5.63 26.41 2.34 9.86.7 13.15.7 13.15s-1.4 1.06-6.68 3.98-10.82 5.58-10.82 5.58c-7.21-10.97-9.31-24.81-9.31-41.66 0-13.29 2.15-33.63 2.81-40.1 9.09-2.25 18.49-.31 28.04 3.63z" fill="url(#h)"/><path d="M946.03 397.7c1.8-.76 4.45-1.46 7.79-2.13-.13 8.14-.38 34.68.88 48.51.52 5.7 1.62 14.84 8.06 25.13 1.09 1.74 3.11 3.73 3.75 5.31-1.24-1.36-5.57-2.35-5.57-2.35s-5.55-3.96-10.11-11.92c-3.79-6.63-5.32-9.07-5.6-15.22s2.09-10.89 1.95-16.14l-1.15-31.19z" fill="url(#i)"/><path d="M986.43 399.99c-1.42-2.07-2.55-3.33-6.19-2.91l-8.04 1.11c-2.31.31-3.62-.7-6.57-3.61s-6.61-7.41-3.63-9.06 6.4-1.08 8.7-.3 3.05 1.95 6.84-.11 7.88-1.67 10.53.02 6.28 6.03 6.28 6.03-1.12 7.35-7.93 8.83z" class="E"/><path d="M998.29 468.36c6.4-2.65 9.7-6.48 10.69-10.49l5.81-22.46c3.24-11.78 4.31-14.63.39-20.79-3.53-5.54-20.56-23.97-20.56-23.97s-4.19 7.1-8.18 9.34c0 0 11.96 19.51 12.36 22.34-.16 1.19-6.63 14.87-7.9 21.08-1.77 8.66-.08 19.39 7.4 24.96z" fill="url(#j)"/><path d="M1000.16 424.57c-.35-.48-.58-1.08-.85-1.62l-.36-.72c-2.29 5.37-4.84 10.66-6.58 16.25-1.63 5.24-2.45 10.75-1.67 16.21.42 2.91 1.32 5.83 2.68 8.44.02.03-.01.13-.05.07a18.3 18.3 0 0 1-2.01-3.73 22.3 22.3 0 0 1-1.09-3.92 29.9 29.9 0 0 1-.33-8.06c.49-5.7 2.38-11.15 4.57-16.39 1.32-3.16 2.77-6.26 4.12-9.41.01-.03.03-.05.05-.07l-.15-.31c-.55-1.08-1.13-2.13-1.72-3.19l-3.45-6.18a83.2 83.2 0 0 1-1.9-3.77c-.01-.03.01-.1.04-.06 2.49 4.22 5.22 8.29 7.4 12.69.29.59.58 1.18.85 1.79.25.56.53 1.18.64 1.79.01.07-.1.29-.19.18zm-6.46-24.26a12.5 12.5 0 0 1-1.51 1.49l-.88.66c-.28.19-.58.45-.93.46-.1 0-.22-.08-.19-.2.08-.3.38-.39.62-.54l.76-.51c.59-.42 1.16-.88 1.68-1.39a13.9 13.9 0 0 0 2.65-3.62c.03-.07.09.01.07.06a13.1 13.1 0 0 1-2.26 3.59z" class="F"/></g></g><path d="M1050.93 387.47H635.3v56.2h415.63v-56.2z" fill="url(#k)"/></g><path d="M1035.26 387.45H650.98c-.3 0-.55-.25-.55-.55s.25-.55.55-.55h384.28c.3 0 .54.25.54.55s-.24.55-.54.55z" class="K"/><path d="M1004.7 386.72c2.71-10.47 19.32-72.1-5.83-114.24-25.14-42.15-63.06-64.16-115.1-63.01-37.74.83-74.34 12.55-99.55 48.05s-51.47 18.47-89.14 41.97c-25.69 16.03-28.97 57.88-14.84 87.23h324.46z" fill="#cbe1fb"/><path d="M952.07 372h-73v14.22h73V372z" fill="#000"/><path d="M937.02 239.77c4.21-7.05 8.45-17.69 8.25-22.17s-3.83-9.81-12.33-14.42c2.57-1.49 3.4-2.6 1.2-3.61s-8.4-2.91-17.2-2.8c1.7-2.95.9-3.91-3.8-2.81s-19.23 2.69-17.16 17.81c1.46 10.68 16.36 26.25 26.86 28.37s14.19-.36 14.19-.36z" fill="url(#l)"/><path d="M901.38 214.5c-1.22-.15-1.73-2.52-1.73-3.37l.09-3.21c-1.35 1.1-4.01 2.78-5.72 10.31-1.82 8.04-3.15 21.79-1.5 27.31 2.09 7 13.25 8.26 18.26 8.75-.46 4.9-.06 8.7-3.35 8.84.13 5.07-3.82 12.51 3.36 14.56s23.6-5.76 25.73-14.21c-3.57-1.28-5.86-2.23-5.86-8.03 0-3.34.59-7.26.59-7.26s1.74-.62 3.61-3.32c3.39-4.9 3.34-12.08-1.58-13.86-3.83-1.38-6.54.83-7.84 3.93-.51 1.2-2.06 1.89-3.07.83-.79-.82-.65-2.07-.66-3.12-.02-1.27-.63-1.89-1.52-2.74a12.8 12.8 0 0 1-3-13.46c.56-1.48 1.4-2.84 2.09-4.26.39-.81.73-1.79.29-2.57-.22-.39-.61-.66-1-.89-5.53-3.19-12.68.75-16.33 5.09-.25.3-.48.73-.86.69z" class="E"/><path d="M910.79 254.3c4.11-.08 7.44-.96 12.16-6.09-.83 6.12-5.57 9.37-12.39 9.25l.23-3.16z" fill="url(#m)"/><g fill="#18185e"><path d="M909.02 226.01c-.15 1-.92 1.7-1.71 1.58s-1.31-1.03-1.15-2.03.92-1.7 1.71-1.58 1.31 1.03 1.15 2.03zM897 224.75c-.15.95-.87 1.62-1.62 1.5s-1.24-.98-1.09-1.92.88-1.62 1.62-1.5 1.24.98 1.09 1.92zm13.97-2.05c-.08-.13-.13-.26-.23-.38l-.42-.53c-.35-.43-.87-.76-1.39-.92-.33-.1-.65-.15-.99-.16-.35 0-.66.07-.99.13-.26.04-.52-.06-.6-.33-.08-.26.06-.5.31-.59-.24.16-.28.18-.11.05l.11-.05c.05-.02.11-.04.16-.05a3.9 3.9 0 0 1 .32-.07 4.4 4.4 0 0 1 .73-.06 3.6 3.6 0 0 1 1.45.28c.61.27 1.14.75 1.46 1.33.1.18.18.35.2.55.02.25.07.55.04.81 0 .03-.04.01-.04 0zm-17.37-1.95a2.3 2.3 0 0 1 .58-1.17 2.7 2.7 0 0 1 1.43-.81c.91-.19 1.89.07 2.66.56.21.13.25.45.12.65-.15.22-.42.23-.63.1l.1.06-.1-.06-.1-.06-.19-.09a3.9 3.9 0 0 0-.54-.2c-.33-.09-.7-.13-1.04-.1-.42.03-.87.17-1.25.35a3.6 3.6 0 0 0-.55.34c-.18.13-.29.31-.45.47-.02.03-.03-.03-.03-.04z"/></g><g class="G"><path d="M931.26 248.19c-3.38 1.06-5.72-.46-6.34-2.25-.44 1.99 2.87 4.77 6.34 2.25zm3.49-12.41c-.57-1.03-2.05-1.17-3.08-.91-1.04.26-1.97.88-2.68 1.69a6.1 6.1 0 0 0-1.33 2.6c-.21.9-.34 2.17.27 2.94.09.11.3.15.34-.02.09-.42-.01-.88-.01-1.31a6.1 6.1 0 0 1 .14-1.28c.18-.84.56-1.64 1.1-2.31.04-.06.09-.1.14-.15.69.55 1.3 1.2 1.68 1.99a5.7 5.7 0 0 1 .5 2.64c0 .06.09.2.15.11.57-.87.38-2.08-.02-2.98a6.5 6.5 0 0 0-1.79-2.27 4.5 4.5 0 0 1 1.5-.88c1.01-.34 1.97-.12 2.89.37.16.09.3-.08.21-.23z"/></g><path d="M921.22 230.33c-.02 4.08-1.84 6.73-5.11 8.88-2.58 1.69-6.07 1.05-9.42-.72-2.43-1.28-4.87-1.64-7.85-1.88-2.49-.2-5.71.39-7.11 1.64-.69 2.5-.71 10.34 1.95 12.92s7.9 3.91 14.39 3.76 12.05-2.11 14.15-5.41c3.65-5.74 2.41-12.72 3.4-14.93l-4.39-4.26z" fill="url(#n)"/><g class="G"><path d="M900.54 222.98c-.1.78-.42 1.54-.67 2.28l-.75 2.29-1.31 4.52-.53 2.18c-.12.76.06 1.38.78 1.74a6.8 6.8 0 0 0 2.12.57 8 8 0 0 0 1.15.07c.27 0 .59-.07.84.04.1.04.07.21-.02.25-.43.21-.97.18-1.43.17a8.2 8.2 0 0 1-2-.29c-1.03-.29-2.07-.77-2.07-2 0-.56.17-1.12.31-1.67l.54-2.07 1.19-3.93c.47-1.42.92-2.94 1.69-4.23.05-.09.16-.02.15.07zm5.22 17.83c-.26.07-.49.25-.74.35a9.3 9.3 0 0 1-.91.29 6.9 6.9 0 0 1-1.47.23 6.1 6.1 0 0 1-1.36-.09c-.24-.04-.48-.04-.67.14s-.07.46.13.59.51.14.75.17l.64.04a6.3 6.3 0 0 0 1.38-.11c.47-.1.93-.23 1.36-.43.27-.13.54-.28.76-.47.14-.12.38-.3.36-.51-.01-.11-.12-.24-.24-.21z"/></g><g fill="#6565c2"><path d="M940.95 212.81c-1.13-.93-2.45-1.64-3.76-2.28-1.28-.62-2.6-1.15-3.96-1.58a28.9 28.9 0 0 0-8.24-1.38c-1.58-.03-3.3-.01-4.83.41-.08.02-.07.2.02.2l4.05-.17c1.39.02 2.77.11 4.15.31 2.8.4 5.54 1.2 8.12 2.37 1.53.69 2.93 1.59 4.39 2.39.19.1.18-.19.07-.27zm1.45 5.01c-3.93-4.43-9.77-7.06-15.6-7.68a22.1 22.1 0 0 0-2.43-.12c-.83 0-1.71-.01-2.52.2-.09.02-.07.22.02.23.75.04 1.52-.03 2.27-.02a27 27 0 0 1 2.2.12 26.2 26.2 0 0 1 4.3.76 25.9 25.9 0 0 1 7.81 3.55c1.39.94 2.68 1.96 3.9 3.11.07.06.1-.1.06-.14zm-4.05 4.64c-1.29-2.23-3.17-4.17-5.2-5.74-2.11-1.64-4.5-2.93-7.03-3.79-1.36-.46-2.8-.87-4.24-.94-.13 0-.1.22.01.25l3.86.96c1.23.4 2.42.9 3.57 1.49 2.28 1.18 4.36 2.72 6.16 4.55 1.03 1.04 1.91 2.16 2.78 3.33.06.08.12-.06.08-.12z"/></g><path d="M809.61 327.52c-1.01 1.3-1.78 3.62-1.96 6.16-.24 3.6.35 6.25 1.49 9.67l2.76.04c1.59 0 2.47.33 3.2.56 1.96.62 2.51 1.22 4.21 2.39 1.52 1.06 13.68 7.08 15.96 7.49 2.06.37 3.12.67 4.25.54 1.67-.19 4.14-1.01 2.66-3.46 2.77 1.66 5.89.68 5.67-1.97 1.49 1.25 4.04 1.41 5.35-.04.57-.63.26-1.86-.04-2.63-4.34-11.2-6.85-11.11-18.87-16.58-3.96-1.81-6.81-2.76-10.93-2.84-3.44-.06-11.85.27-13.76.68z" class="I"/><g class="E"><path d="M833.12 354.15c.53-.26 1.07-.52 1.48-.95s.67-1.04.52-1.61c-.47-1.76-3.06-1.5-4.4-1.33l.75-.75c.45-.45.94-.98.94-1.62 0-.49-.29-.95-.69-1.24a3.3 3.3 0 0 0-1.37-.52 6.7 6.7 0 0 0-1.55-.09l-.96.04a4.2 4.2 0 0 0 .98-1.49c.51-1.53-.9-2.69-2.35-2.6-.76.05-1.48.36-2.16.7-2.17 1.07-4.72 2.38-6.01 4.52-.36.59-.63 1.38-.2 1.98.48.67 1.32 1.05 2.11 1.17a8.7 8.7 0 0 0 3.08-.25c-.47.52-.54 1.33-.26 1.97.7 1.63 2.76 1.48 4.24 1.27-.14.45.15.94.55 1.19 1.71 1.05 3.64.42 5.3-.39zm14.17-27.56c-3.07-.92-6.11-2.08-9.29-2.46-.95-.11-1.92-.15-2.84.12-.99.3-1.84.95-2.64 1.62a51 51 0 0 0-7.28 7.41c-.13.16-.26.32-.32.51-.16.43.03.94.37 1.25s.8.46 1.25.54c1.92.31 3.84-.58 5.42-1.73.91-.67 1.79-1.44 2.88-1.75 1.28-.36 2.65 0 3.91.43 3.17 1.09 6 2.38 7.85 3.77.88.67 2.29 2.8 3.74 5.15a285.2 285.2 0 0 1 2.83 4.8l7.7-2.89c-.47-3.7-.93-7.4-1.75-11.04l-1.1-4.94s-2.39.28-3.81.18a36.9 36.9 0 0 1-6.93-.98z"/></g><path d="M862.21 324.16l-5.88 2.38 4.28 19.65 6.87-2.2-5.28-19.83z" fill="url(#o)"/><path d="M882.39 313.05l-22.03 11.08 5.61 22.31 15.38-5.3 1.04-28.09z" class="D"/><path d="M907.43 263.14l-13.83 6.12s-7.38 26.96-8.57 55.02-.48 47.72-.48 47.72c12.63 4.88 37.8 2.44 62.99 0V271.27l-13.74-10.11s-20.19 8.48-23.58 8.1-2.79-6.12-2.79-6.12z" fill="url(#p)"/><path d="M947.54 296.96l-31.98 7.14c-4.11 25.69-5.05 53.2-7.99 57.69-4.78 7.31-12.08 8.68-23.18 3.55l.15 6.66c12.63 4.88 37.8 2.44 62.99 0v-75.04z" class="C"/><path d="M907.43 263.14c-4.48 5.7-9.08 12.38-12.77 27.59s-5.76 39.37-5.76 51.88l-.41 33.41-9.43-4.01c.62-25.28 2.09-64 8.37-90.92 2.43-10.44 4.71-13.38 11.04-16.51s10.83-4.69 10.83-4.69l-1.87 3.25z" fill="url(#q)"/><path d="M910.22 266.09l-1.33-.58s-3.43 1.17-4.01 4.73.57 7.77.57 7.77l3.81.67 3.64-5.55c.91-1.41-2.67-7.05-2.67-7.05z" fill="url(#r)"/><path d="M905.44 278.02c-3.76 10.53-13.17 47.47-12.83 53.25s2.52 25.19 5.25 25.7 8.8-19.06 9.42-23.32 1.97-54.97 1.97-54.97l-3.81-.67z" fill="url(#s)"/><g class="C"><path d="M908.89 265.51c.31-2.32.83-3.12 1.33-4.95 0-1.1.27-2.33.27-2.33s-.48-.17-1.19.58c-1.77 1.86-6.14 6.41-7.06 9.35-2.01 6.46-.93 10.38-.93 10.38s2.88-7.64 7.57-13.03zm1.33.58s12.04-1.08 20.52-12.95l.1-1.37s1.17-.74 1.58 1.06 7.17 8.32 7.17 8.32-7.9 15.49-26.26 19.4c-.25-7.35-3.11-14.47-3.11-14.47z"/></g><path d="M935.17 258.01c-1.04 4.54-9.15 12.68-14.66 28.84s-7.08 24.96-7.9 46.76c-.77 20.35.38 43.32.38 43.32l39.09-4.92s-4.38-32.13-3.39-46.14 3.09-59.77 3.09-59.77-10.14-2.4-16.6-8.08z" fill="url(#t)"/><g class="D"><path d="M936 263.69l.2 11.51c-3.3 3.52-6.93 6.92-10.38 10.36l.1-.23-.73 29.14c-3.67 6.5-7.8 12.86-10.7 19.78 2.49-6.74 6.76-14.12 10.06-19.8l.71-29.28 10.53-9.98.21-11.51zm15.77 2.4c5.38 2.48 9.22 7.55 11.57 14.47a2467.7 2467.7 0 0 1 15.79 52.5c1.4 5.17 2.66 9.55-3.6 18.79s-19.67 34.37-19.67 34.37h-24.69l15.09-36.33c2.66-5.64 3.23-12.17-.91-24.68-3.7-11.19-5.69-18.13-6.49-23.61s1.9-27.43 12.91-35.5z"/></g><path d="M789.19 273.57c6.99 2.03 9.17 6.27 10.74 12.09s3.16 16.88 3.16 16.88l-13.9-28.97z" class="F"/><path d="M732.07 244.2a9.8 9.8 0 0 0-3.1 4.62c-.61 2.13-.5 4.41-.2 6.61.29 2.15.74 4.46-.21 6.41-1.28 2.62-4.51 3.52-6.81 5.32-2.67 2.1-4.08 5.69-3.56 9.04.55 3.56 3.07 6.67 3.21 10.27.14 3.7-.78 7.57 1.36 10.92 2.13 3.32 5.51 5.16 9.37 5.94 6.82 1.37 11.17-4.37 17.15-6.11 6.3-1.83 13.4 1.94 19.38-1.43 2.19-1.24 3.83-3.42 4.41-5.87.48-2.06.25-4.26.99-6.24 1.22-3.3 4.73-5.08 6.96-7.8 3.17-3.86 3.53-9.55 1.66-14.19s-5.65-8.29-9.92-10.89-9.03-4.24-13.75-5.87c-5.41-1.86-10.91-4.63-16.75-4.62-3.32.01-7.38 1.44-10.19 3.89z" fill="url(#u)"/><path opacity=".3" d="M727.59 288.11c.15-1.12.3-2.27.14-3.4-.12-.84-.42-1.64-.79-2.41-.82-1.68-2.02-3.19-2.56-5-.58-1.98-.19-4.18 1-5.85 1.85-2.59 5.04-3.74 7.29-5.91 1.14-1.1 1.97-2.44 2.21-4.02.27-1.73-.05-3.49-.4-5.18-.4-1.98-.9-4.02-.49-6.04.5-2.46 2.55-4.02 4.78-4.86.07-.03.03-.23-.05-.21-1.79.51-3.52 1.56-4.52 3.18-.95 1.55-1.02 3.35-.8 5.11.43 3.55 2.05 7.49-.41 10.67-2.03 2.61-5.4 3.7-7.6 6.13a7.2 7.2 0 0 0-1.94 5.15c.09 2.02 1.14 3.71 2.17 5.38a12.7 12.7 0 0 1 1.46 2.96c.4 1.33.26 2.72.09 4.08-.28 2.16-.58 4.56.95 6.34.15.17.22-.11.13-.23-1.27-1.67-.92-3.95-.65-5.88zm11.16-29.82c-.72-2.41-1.32-5.4.34-7.58.02-.03 0-.13-.04-.08-1.46 1.65-1.4 3.91-.99 5.96.51 2.55 1.8 5.15 1.27 7.8-.82 4.16-5.82 5.01-7.8 8.37-1.49 2.52-.62 5.55.53 8.01.04.08.1-.01.08-.07-.88-2.26-1.47-5.04-.32-7.32.86-1.7 2.56-2.77 4.06-3.84 1.47-1.05 2.97-2.22 3.6-3.98.84-2.37-.03-4.97-.72-7.27z" class="K"/><path d="M787.28 230.73c3.34-4.63 5.96-16.88 0-23.16s-12.62-3.75-12.62-3.75-6.91-3.4-15.46-2.64-18.01 6.46-20.62 12.34c-2.57 5.78-3.68 24.53 13.75 34.8l34.95-17.59z" class="J"/><path d="M777.14 214.44c1.07-.94 2-2.06 2.75-3.26 2.24 1.94 4.48 6.71 5.88 12.43 1.9 7.78 3.03 16.24 3.04 20.96.01 3.77-.25 4.96-.68 6.52-1.61 5.93-7.56 7.55-12.28 7.53.21 5.86.3 12.66 3.59 12.58 3.14 6.38 14.5 22.72 7.48 25.25s-34.61-17.67-37.32-25.95c3.43-3.45 4.96-5.2 4.28-10.96-.53-4.58-1.57-11.22-1.57-11.22s-4.31 1.41-7.96-2.96c-3.82-4.58-4.53-10.72.25-12.83 3.72-1.64 7.18 1.36 8.69 4.36.59 1.17 2.18 1.74 3.12.62.74-.87.5-2.11.44-3.16-.07-1.27.5-1.92 1.33-2.84 1.86-2.06 2.6-4.75 1.63-7.4-.59-1.62-2.46-4.09-1.73-5.89.49-1.2 2.07-1.48 3.36-1.39 4.3.31 8.77 1.29 12.87-.57a11.5 11.5 0 0 0 2.81-1.83z" class="I"/><path d="M775.87 258.61c-4.1.21-12.29-1.15-17.06-7.73 2.24 9.21 10.47 12.97 17.26 12.38l-.2-4.65z" fill="url(#v)"/><g fill="#18185e"><path d="M769.04 232.56c.22.98 1.04 1.64 1.82 1.46s1.23-1.12 1.01-2.1-1.04-1.64-1.82-1.46-1.23 1.12-1.01 2.1zm13.17-2.4c.21.93.98 1.55 1.72 1.38s1.17-1.06.96-1.99-.98-1.55-1.72-1.38-1.17 1.06-.96 1.99zm-15.35-.77c.07-.13.11-.27.2-.4l.38-.56c.32-.45.81-.81 1.33-1.01.32-.12.63-.2.97-.22.35-.03.66.03 1 .06.26.03.51-.1.58-.37s-.1-.5-.35-.57c.25.15.29.16.12.04l-.12-.04c-.06-.02-.11-.03-.17-.04l-.33-.05c-.24-.02-.49-.03-.73-.01-.49.04-.99.15-1.43.38a3.1 3.1 0 0 0-1.37 1.43c-.08.18-.15.36-.16.56-.01.25-.03.56.02.81.01.03.04.01.05-.01zm18.46-4.4a2.3 2.3 0 0 0-.65-1.12c-.41-.39-.92-.63-1.48-.71a3.7 3.7 0 0 0-2.62.74c-.2.15-.22.47-.07.65.16.21.44.2.64.06l-.1.06.1-.06.1-.07.19-.11c.17-.09.34-.17.52-.23.33-.12.69-.18 1.03-.17a3.7 3.7 0 0 1 1.27.26c.2.08.39.19.57.3.19.12.31.29.48.44.03.02.03-.03.03-.05z"/></g><g fill="#b55d5d"><path d="M750.28 248.52c3.52-.39 5.05-2.72 4.9-4.61 1.2 1.65-.71 5.53-4.9 4.61zm-6.18-11.6c.5-1.07 1.96-1.31 3.01-1.12s2.03.75 2.79 1.5a6.1 6.1 0 0 1 1.51 2.51c.27.88.48 2.14-.07 2.95-.08.11-.29.17-.34 0-.12-.41-.05-.88-.08-1.31a5.9 5.9 0 0 0-.23-1.27 5.7 5.7 0 0 0-1.25-2.23l-.15-.14a6 6 0 0 0-1.54 2.1c-.35.85-.4 1.77-.32 2.67.01.06-.07.21-.14.12-.63-.84-.52-2.05-.18-2.98a6.5 6.5 0 0 1 1.63-2.39 4.5 4.5 0 0 0-1.55-.78c-1.04-.28-1.97.02-2.86.57-.16.1-.3-.06-.23-.22zm34.09-8.43c.2.76.61 1.47.95 2.18l1.03 2.18 1.87 4.32.8 2.09c.22.74.11 1.38-.55 1.82a7.1 7.1 0 0 1-2.03.84 8.2 8.2 0 0 1-1.13.22c-.27.03-.59.01-.83.15-.09.06-.04.22.05.25.45.15.98.06 1.44-.02a8.2 8.2 0 0 0 1.95-.54c.99-.42 1.96-1.03 1.8-2.25-.08-.56-.31-1.09-.51-1.61l-.8-1.98-1.68-3.74c-.64-1.35-1.28-2.8-2.21-3.98-.06-.08-.16 0-.14.08zm-6.47 16.22c-.07.24.08.43.18.64.14.27.35.48.58.68.39.35.85.61 1.32.82a8.4 8.4 0 0 0 2.83.74 7 7 0 0 0 1.46.01c.26-.03.58-.22.68-.49.13-.36-.3-.71-.62-.72-.47-.02-.93.02-1.41-.03-.5-.05-.98-.15-1.46-.28a9.9 9.9 0 0 1-1.42-.53l-1.03-.5c-.13-.07-.27-.12-.4-.19-.17-.09-.31-.21-.5-.28-.09-.04-.19.03-.21.12z"/></g><path d="M731.22 372c-2.38 6.15-3.15 14.22-3.15 14.22h81.02V372h-77.88z" class="D"/><path d="M752.62 267.41l33.71 25-7.74-21.67 8.22 2.2s12.64 22.47 15.49 34.34 4.74 64.71 4.74 64.71c-7.97 7.02-42.03 2.95-73.48 0 0 0 8.4-20.42 9.35-28.01s-7.9-42.41-9.32-49.38-1.89-11.24 0-13.93 19.04-13.28 19.04-13.28z" fill="url(#w)"/><path d="M806.88 367.85c-7.84 2.87-18.35 2.64-19.75.17-1.8-3.15 0-11.04 0-11.04l18.84-8.73-.56-9.79-40.18 4.11-22.32-1.75a17.6 17.6 0 0 1 .01 3.17c-.95 7.6-9.35 28.01-9.35 28.01 31.44 2.95 65.51 7.02 73.47 0l-.16-4.15z" class="C"/><path d="M752.63 267.41s13 14.17 20.4 29.24c6.39 13.01 7.68 16.23 9.35 39.53s.81 42.93.81 42.93c-19.75 1.44-37.42-.39-51.96-7.11l7.44-26.59c2.03-7.77-.37-17.6-3.88-31.27s-5.36-27.64-4.99-30.97 8.97-6.49 22.83-15.77z" fill="url(#x)"/><path d="M778.59 270.75c8.32 9.51 17.15 25.57 19.13 37.31s3.6 69.32 3.6 69.32c4.06-1.21 7.12-2.81 7.75-5.37l-3.75-60.16c-1.44-13.72-16.16-38.27-16.16-38.27l-10.59-2.83z" fill="url(#y)"/><path d="M802.04 328.15l7.83-.64s-1.61 3.78-1.39 8.7a27.5 27.5 0 0 0 1.39 7.94l-7.59 1.47s-1.17-2.65-1.45-8.19 1.21-9.29 1.21-9.29z" fill="url(#z)"/><path d="M731.13 281.14c-3.22 3.29-3.53 8.31 0 25.99s14.98 40.51 17 45.06 5.04 7.24 14.46 5.22 40.87-10.47 40.87-10.47c-1.91-5.68-2.48-12.93-1.35-19.18l-33.3 4.38-7.44-28.61c-3.83-12.99-15.97-30.65-30.24-22.4z" fill="url(#AA)"/><g class="F"><path d="M769.18 331.78l-6.04-22.87c-1.96-6.8-4.43-13.69-8.95-19.25a29.2 29.2 0 0 0-8.6-7.36c-.04-.02-.05.07-.02.09 5.66 3.48 9.63 8.96 12.47 14.88 3.34 6.94 5.08 14.52 7.02 21.94l3.29 12.44c.01.05-.02.1-.07.11-3.58.67-7.15 1.4-10.63 2.46-.07.02-.05.19.03.18 2.85-.46 5.68-1.03 8.52-1.58l3.08-.58c0 0-.06-.31-.09-.44z"/><path d="M781.92 330.42a598.6 598.6 0 0 0-13.64 1.33c-.17.02.68.53.82.5.75-.12 12.83-1.83 12.82-1.83zm12.83 13.56l-.54-3.43a38 38 0 0 1-.24-3.36c-.03-1.19.1-2.41-.04-3.59-.01-.12-.2-.25-.25-.08-.3 1.08-.23 2.3-.22 3.42a36.5 36.5 0 0 0 .21 3.47 37.7 37.7 0 0 0 .56 3.51c.25 1.19.52 2.33 1.05 3.43.06.13.16.06.15-.06-.13-1.13-.45-2.21-.68-3.32z"/></g><path d="M853.36 409.12l71.59 14.58 32.16-13.33-7.64-1.25h-96.1z" class="K"/><path d="M923.5 419.7c1.3.62 3.77-.21 10.21-2.73l15.03-5.99c1.27-.6 1.41-.61 1.41-1.41v-1.01s-2.09-.84-3.4-1.11c-3.33-.69-25.26-5.62-25.26-5.62l2 17.87z" class="C"/><path d="M923.23 417.54c.85.85 1.46 1.17 10.7-2.39l15.54-6.04c1.65-.69.18-.99-2.7-1.66l-25.26-5.62 1.73 15.71z" class="H"/><path d="M854.01 408.44l69.14 12.07c.7.1 1.31-.49 1.23-1.2l-6.44-57.87c-.22-1.89-1.66-3.41-3.54-3.71l-64.24-10.16c-2.41-.39-4.32 1.28-3.99 3.71 1.25 15.91 3.62 37.8 5.93 55.35.24 1.28 1.02 1.61 1.89 1.8z" class="C"/><path d="M853.35 409.12l69.14 12.07c.7.1 1.31-.49 1.23-1.19l-6.44-57.87c-.22-1.89-1.66-3.41-3.53-3.71l-64.24-10.16c-2.41-.39-4.32 1.28-3.99 3.71 1.25 15.91 3.62 37.8 5.93 55.35.24 1.28 1.02 1.62 1.89 1.8z" fill="url(#AB)"/><path d="M917.29 362.13c-.22-1.89-1.66-3.41-3.53-3.71l-13.37-2.12c4.9 1.39 9.31 2.24 11.05 6.03 2.88 6.27-.36 30.47-21.49 41.23-20.12 10.25-35.27 2.8-39.64-5.37l1.16 9.12c.24 1.28 1.02 1.62 1.89 1.8l69.14 12.07c.09.01.17.02.26.01.25-.02.48-.13.65-.3.23-.22.36-.55.32-.9l-6.44-57.86z" fill="#ebf7ff"/><path d="M887.43 385.04c.56 3.23-1.33 5.86-4.22 5.86s-5.69-2.62-6.26-5.86 1.33-5.86 4.22-5.86 5.69 2.62 6.25 5.86z" fill="#cbe3fe"/><g fill="#0668e1"><path d="M848.47 170.07c0-12.35-11.59-22.35-25.89-22.35s-25.89 10.01-25.89 22.35c0 9.58 6.99 17.75 16.8 20.93-.14 2.93-2.28 6-5.65 7.34-.25.1-.18.45.09.47 5.54.33 9.83-.21 15.43-6.4 13.94-.36 25.12-10.22 25.12-22.34z"/><path d="M832.59 182.45c0-12.34 11.59-22.35 25.89-22.35s25.89 10.01 25.89 22.35c0 9.58-6.99 17.75-16.8 20.93.14 2.93 2.28 6 5.65 7.34.25.1.18.45-.09.47-5.54.33-9.83-.21-15.43-6.4-13.94-.36-25.11-10.22-25.11-22.34z"/></g><path d="M848.47 170.07c0 8.76-5.84 16.33-14.33 20-1-2.37-1.54-4.94-1.54-7.62 0-8.76 5.83-16.34 14.33-20.01 1 2.38 1.54 4.94 1.54 7.62z" fill="#4b9cff"/><path d="M991.56 497.75a1079.5 1079.5 0 0 0-296.87 0c8.53-14.37 12.8-20.78 21.33-32.57-8.54-11.85-12.8-18.3-21.33-32.74 99.61 13.68 197.27 13.68 296.87 0a282.8 282.8 0 0 1-27.78 32.74c11.12 11.45 16.68 17.8 27.78 32.57z" fill="#0668e1"/><path d="M741.72 466.33h2.77c-.06.91-.31 1.72-.75 2.42-.44.71-1.05 1.25-1.85 1.65-.79.4-1.73.59-2.84.59a5.8 5.8 0 0 1-2.33-.44c-.69-.3-1.27-.74-1.76-1.3s-.85-1.24-1.1-2.04a8.8 8.8 0 0 1-.38-2.68v-.94a8.6 8.6 0 0 1 .39-2.68 5.9 5.9 0 0 1 1.13-2.05c.5-.56 1.09-1 1.77-1.3s1.45-.45 2.3-.45c1.13 0 2.07.2 2.85.61.78.41 1.38.97 1.81 1.69a5.7 5.7 0 0 1 .78 2.45h-2.78c-.03-.54-.14-1-.32-1.38-.19-.38-.47-.67-.84-.86-.37-.2-.87-.3-1.48-.3-.46 0-.87.09-1.22.26s-.64.44-.87.79a3.9 3.9 0 0 0-.53 1.34c-.11.53-.17 1.16-.17 1.87v.96a9.6 9.6 0 0 0 .16 1.85 4.2 4.2 0 0 0 .48 1.34c.22.36.51.63.85.82.35.18.78.27 1.27.27.58 0 1.06-.09 1.44-.28s.66-.46.86-.83c.2-.37.33-.82.36-1.36zm4.01-.44v-.19a6.3 6.3 0 0 1 .32-2.03 4.7 4.7 0 0 1 .92-1.62 4.1 4.1 0 0 1 1.49-1.07c.59-.26 1.26-.39 2.02-.39a5 5 0 0 1 2.03.39 4.1 4.1 0 0 1 1.49 1.07 4.6 4.6 0 0 1 .93 1.62c.21.62.32 1.3.32 2.03v.19a6.3 6.3 0 0 1-.32 2.03c-.21.62-.52 1.16-.93 1.62-.4.46-.9.81-1.49 1.07s-1.26.38-2.02.38-1.44-.13-2.03-.38c-.59-.25-1.08-.61-1.49-1.07a4.8 4.8 0 0 1-.92-1.62c-.21-.62-.32-1.3-.32-2.03zm2.67-.19v.19c0 .42.04.81.11 1.18s.19.69.35.96c.17.27.38.49.65.64s.59.23.97.23c.37 0 .69-.08.96-.23s.48-.37.64-.64c.16-.28.28-.6.35-.96a5.5 5.5 0 0 0 .12-1.18v-.19a5.3 5.3 0 0 0-.12-1.15c-.07-.37-.19-.69-.36-.97a1.8 1.8 0 0 0-.64-.67c-.27-.16-.59-.24-.97-.24s-.7.08-.97.24c-.26.16-.47.38-.64.67-.16.28-.28.6-.35.97a5.6 5.6 0 0 0-.11 1.15zm11.15-2.85v7.96h-2.68v-10.04h2.51l.17 2.08zm-.37 2.59h-.74c0-.7.08-1.34.25-1.93a4.7 4.7 0 0 1 .75-1.54c.33-.44.75-.78 1.23-1.02s1.05-.36 1.7-.36c.45 0 .85.07 1.23.2.37.13.69.34.95.62.27.28.48.64.63 1.09a5.1 5.1 0 0 1 .22 1.6v6.7h-2.67v-6.4c0-.46-.06-.81-.19-1.06s-.3-.42-.53-.52c-.22-.1-.49-.15-.81-.15-.35 0-.65.07-.91.21a1.8 1.8 0 0 0-.63.59c-.17.25-.29.54-.37.87a4.6 4.6 0 0 0-.12 1.08zm5.97-.31l-.96.12a6.6 6.6 0 0 1 .24-1.83c.17-.56.41-1.06.73-1.49a3.4 3.4 0 0 1 1.22-.99c.48-.24 1.04-.36 1.67-.36.48 0 .92.07 1.32.21.4.14.73.36 1.01.66.28.3.5.69.65 1.17.16.48.23 1.07.23 1.77v6.41h-2.68v-6.41c0-.46-.06-.82-.19-1.06-.12-.25-.29-.42-.52-.51-.22-.1-.49-.15-.8-.15-.32 0-.6.06-.84.19-.24.12-.44.3-.6.52s-.28.48-.36.78c-.08.29-.12.61-.12.96zm10.86-2.28v7.96h-2.68v-10.04h2.51l.17 2.08zm-.37 2.59h-.74c0-.7.08-1.34.25-1.93a4.7 4.7 0 0 1 .75-1.54c.33-.44.75-.78 1.23-1.02s1.06-.36 1.7-.36c.45 0 .85.07 1.23.2.37.13.69.34.96.62.27.28.48.64.63 1.09a5.1 5.1 0 0 1 .22 1.6v6.7h-2.67v-6.4c0-.46-.06-.81-.19-1.06s-.3-.42-.53-.52c-.22-.1-.49-.15-.81-.15-.35 0-.65.07-.91.21a1.8 1.8 0 0 0-.63.59c-.17.25-.29.54-.37.87a4.6 4.6 0 0 0-.12 1.08zm5.97-.31l-.96.12a6.6 6.6 0 0 1 .24-1.83c.17-.56.41-1.06.73-1.49a3.4 3.4 0 0 1 1.22-.99c.48-.24 1.04-.36 1.67-.36.48 0 .92.07 1.32.21.4.14.73.36 1.01.66.28.3.5.69.65 1.17.15.48.23 1.07.23 1.77v6.41h-2.68v-6.41c0-.46-.06-.82-.19-1.06-.12-.25-.29-.42-.52-.51-.22-.1-.49-.15-.8-.15-.32 0-.6.06-.84.19-.24.12-.44.3-.6.52s-.28.48-.36.78c-.08.29-.12.61-.12.96zm11-4.36v10.04h-2.68v-10.04h2.68zm-2.85-2.62c0-.39.14-.71.41-.97s.64-.38 1.1-.38c.45 0 .81.13 1.09.38.28.25.42.58.42.97s-.14.71-.42.96c-.27.25-.63.38-1.09.38-.46 0-.82-.13-1.1-.38s-.41-.57-.41-.96zm9.97 2.62v1.89h-5.85v-1.89h5.85zm-4.4-2.48h2.67v9.49c0 .29.04.51.11.67.08.15.2.26.35.32.15.06.35.08.59.08l.44-.02.34-.06.01 1.97a5 5 0 0 1-.74.18c-.27.04-.56.06-.88.06-.59 0-1.1-.1-1.54-.29-.43-.2-.77-.51-1-.95s-.35-1-.35-1.71v-9.76zm8.59 4.56v7.96h-2.68v-10.04h2.51l.17 2.08zm-.37 2.59h-.74c0-.7.08-1.34.25-1.93a4.7 4.7 0 0 1 .75-1.54c.33-.44.75-.78 1.23-1.02s1.06-.36 1.7-.36c.44 0 .85.07 1.22.2.37.13.69.34.96.62.27.28.48.64.63 1.09a5.1 5.1 0 0 1 .22 1.6v6.7h-2.67v-6.4c0-.46-.06-.81-.19-1.06s-.3-.42-.53-.52c-.22-.1-.49-.15-.81-.15-.35 0-.65.07-.91.21a1.8 1.8 0 0 0-.63.59c-.17.25-.29.54-.37.87a4.6 4.6 0 0 0-.12 1.08zm5.98-.31l-.96.12a6.6 6.6 0 0 1 .24-1.83c.17-.56.41-1.06.73-1.49.33-.43.73-.76 1.22-.99.48-.24 1.04-.36 1.67-.36.48 0 .92.07 1.32.21.4.14.73.36 1.01.66.28.3.5.69.65 1.17a5.9 5.9 0 0 1 .23 1.77v6.41h-2.68v-6.41c0-.46-.06-.82-.19-1.06-.12-.25-.29-.42-.52-.51-.22-.1-.49-.15-.8-.15-.32 0-.6.06-.85.19-.24.12-.44.3-.6.52s-.28.48-.36.78c-.08.29-.12.61-.12.96zm12.8 5.86a5.6 5.6 0 0 1-2.1-.37 4.6 4.6 0 0 1-1.58-1.05c-.43-.45-.75-.96-.98-1.55a5.2 5.2 0 0 1-.34-1.89v-.37a6.4 6.4 0 0 1 .33-2.09 4.9 4.9 0 0 1 .93-1.64 4.1 4.1 0 0 1 1.48-1.07 4.9 4.9 0 0 1 1.97-.38c.71 0 1.34.12 1.89.35a3.7 3.7 0 0 1 1.38 1 4.3 4.3 0 0 1 .85 1.56c.19.6.29 1.27.29 2v1.11h-7.98v-1.78h5.35v-.2c0-.37-.07-.7-.2-.99-.13-.3-.33-.53-.59-.71s-.61-.26-1.02-.26c-.35 0-.66.08-.91.23a1.8 1.8 0 0 0-.62.65c-.15.28-.27.61-.35.98-.07.37-.11.78-.11 1.23v.37c0 .4.06.77.17 1.11.12.34.28.63.49.88.22.25.48.44.78.58.31.14.66.2 1.05.2.48 0 .93-.09 1.35-.28a2.9 2.9 0 0 0 1.09-.86l1.3 1.41c-.21.3-.5.59-.86.87a4.6 4.6 0 0 1-1.3.69c-.51.17-1.09.26-1.73.26zm8.26-8.08v7.9h-2.67v-10.04h2.5l.17 2.14zm-.39 2.52h-.72a6.5 6.5 0 0 1 .29-2c.19-.6.46-1.11.81-1.53.35-.43.76-.75 1.23-.97a3.7 3.7 0 0 1 1.61-.34 3.9 3.9 0 0 1 1.29.2c.39.14.72.35 1 .65s.5.69.65 1.18c.15.49.23 1.09.23 1.79v6.4h-2.69v-6.41c0-.44-.06-.79-.19-1.04s-.31-.42-.55-.52c-.23-.11-.53-.16-.87-.16-.36 0-.67.07-.94.21-.26.14-.48.34-.65.59-.17.25-.29.54-.38.87s-.13.69-.13 1.08zm13.34-4.67v1.89h-5.85v-1.89h5.85zm-4.4-2.48h2.67v9.49c0 .29.04.51.11.67.08.15.2.26.35.32.16.06.35.08.59.08l.45-.02.34-.06.01 1.97a5 5 0 0 1-.74.18c-.27.04-.56.06-.88.06a3.8 3.8 0 0 1-1.54-.29c-.43-.2-.77-.51-1-.95s-.35-1-.35-1.71v-9.76zm18.65 8.03h2.77c-.06.91-.31 1.72-.75 2.42-.44.71-1.05 1.25-1.85 1.65-.78.4-1.73.59-2.84.59a5.8 5.8 0 0 1-2.33-.44c-.69-.3-1.28-.74-1.76-1.3s-.85-1.24-1.1-2.04a8.8 8.8 0 0 1-.38-2.68v-.94a8.6 8.6 0 0 1 .39-2.68 5.9 5.9 0 0 1 1.13-2.05c.5-.56 1.08-1 1.77-1.3s1.45-.45 2.3-.45c1.13 0 2.07.2 2.85.61.78.41 1.38.97 1.81 1.69a5.7 5.7 0 0 1 .78 2.45h-2.78c-.03-.54-.14-1-.33-1.38-.18-.38-.47-.67-.84-.86-.37-.2-.87-.3-1.48-.3-.46 0-.87.09-1.22.26s-.64.44-.87.79a3.9 3.9 0 0 0-.53 1.34 9.2 9.2 0 0 0-.17 1.87v.96a9.6 9.6 0 0 0 .16 1.85 4.2 4.2 0 0 0 .48 1.34c.22.36.51.63.85.82.35.18.78.27 1.27.27.58 0 1.06-.09 1.44-.28s.66-.46.86-.83c.2-.37.32-.82.36-1.36zm4.01-.44v-.19a6.3 6.3 0 0 1 .32-2.03 4.7 4.7 0 0 1 .92-1.62 4.1 4.1 0 0 1 1.49-1.07c.59-.26 1.26-.39 2.02-.39a5 5 0 0 1 2.03.39 4.1 4.1 0 0 1 1.49 1.07 4.6 4.6 0 0 1 .93 1.62c.21.62.32 1.3.32 2.03v.19a6.3 6.3 0 0 1-.32 2.03c-.21.62-.52 1.16-.93 1.62-.4.46-.9.81-1.49 1.07s-1.26.38-2.02.38-1.44-.13-2.03-.38c-.59-.25-1.09-.61-1.49-1.07a4.8 4.8 0 0 1-.92-1.62c-.21-.62-.32-1.3-.32-2.03zm2.67-.19v.19c0 .42.04.81.11 1.18a3.2 3.2 0 0 0 .35.96c.17.27.38.49.65.64s.59.23.97.23c.37 0 .69-.08.96-.23s.48-.37.64-.64a3.2 3.2 0 0 0 .35-.96 5.5 5.5 0 0 0 .12-1.18v-.19a5.3 5.3 0 0 0-.12-1.15c-.07-.37-.2-.69-.36-.97a1.8 1.8 0 0 0-.64-.67c-.27-.16-.59-.24-.97-.24s-.7.08-.96.24c-.26.16-.47.38-.64.67a3.2 3.2 0 0 0-.35.97 5.7 5.7 0 0 0-.11 1.15zm11.1-2.78v7.9h-2.67v-10.04h2.5l.17 2.14zm-.39 2.52h-.72c0-.74.1-1.41.29-2 .19-.6.46-1.11.81-1.53.35-.43.76-.75 1.23-.97.48-.23 1.02-.34 1.62-.34a3.9 3.9 0 0 1 1.29.2c.39.14.72.35 1 .65.28.3.5.69.65 1.18a6 6 0 0 1 .23 1.79v6.4h-2.69v-6.41c0-.44-.06-.79-.19-1.04s-.31-.42-.55-.52c-.23-.11-.52-.16-.87-.16-.36 0-.67.07-.94.21-.26.14-.48.34-.65.59a2.8 2.8 0 0 0-.38.87 4.3 4.3 0 0 0-.13 1.08zm13.85 2.6c0-.19-.06-.37-.17-.52s-.32-.3-.62-.43a6.1 6.1 0 0 0-1.29-.37 10 10 0 0 1-1.42-.42c-.43-.17-.81-.38-1.13-.62a2.7 2.7 0 0 1-.74-.85c-.18-.33-.27-.72-.27-1.14a2.7 2.7 0 0 1 .27-1.19c.19-.37.45-.7.79-.98.35-.29.77-.52 1.26-.68.5-.17 1.06-.25 1.69-.25a5.5 5.5 0 0 1 2.25.42c.63.28 1.11.66 1.45 1.15a2.8 2.8 0 0 1 .51 1.65h-2.67c0-.26-.06-.49-.17-.7-.11-.21-.27-.37-.5-.49-.22-.12-.51-.19-.87-.19-.3 0-.55.05-.77.16-.22.1-.38.23-.5.41-.11.17-.17.35-.17.56 0 .15.03.29.09.42.07.12.18.23.32.32s.34.19.58.28a7 7 0 0 0 .89.22c.72.15 1.37.34 1.94.58.57.24 1.02.56 1.35.97a2.4 2.4 0 0 1 .5 1.59c0 .44-.1.85-.3 1.22s-.48.7-.85.97a4.3 4.3 0 0 1-1.34.64c-.51.15-1.09.22-1.74.22-.93 0-1.73-.17-2.37-.5-.64-.33-1.13-.76-1.47-1.27-.33-.52-.49-1.05-.49-1.6h2.53c.01.37.11.66.28.88s.4.38.68.48c.28.1.58.15.9.15a2.3 2.3 0 0 0 .86-.14c.23-.1.4-.23.52-.39.12-.17.19-.36.19-.57zm7.15-7.26v10.04h-2.68v-10.04h2.68zm-2.85-2.62c0-.39.14-.71.41-.97s.64-.38 1.1-.38.81.13 1.09.38c.28.25.42.58.42.97s-.14.71-.42.96c-.27.25-.63.38-1.09.38s-.82-.13-1.1-.38-.41-.57-.41-.96zm10.48 9.88c0-.19-.06-.37-.17-.52s-.32-.3-.62-.43c-.3-.14-.73-.26-1.29-.37a10 10 0 0 1-1.42-.42c-.43-.17-.81-.38-1.13-.62a2.7 2.7 0 0 1-.74-.85c-.18-.33-.27-.72-.27-1.14a2.7 2.7 0 0 1 .27-1.19c.19-.37.45-.7.79-.98.35-.29.77-.52 1.26-.68.5-.17 1.06-.25 1.69-.25a5.5 5.5 0 0 1 2.25.42c.63.28 1.11.66 1.45 1.15a2.8 2.8 0 0 1 .51 1.65h-2.67c0-.26-.06-.49-.17-.7-.11-.21-.27-.37-.5-.49-.22-.12-.51-.19-.87-.19-.3 0-.55.05-.77.16-.22.1-.38.23-.5.41-.11.17-.17.35-.17.56 0 .15.03.29.09.42.07.12.18.23.32.32s.34.19.58.28a7 7 0 0 0 .89.22c.72.15 1.37.34 1.94.58.57.24 1.02.56 1.35.97a2.4 2.4 0 0 1 .5 1.59c0 .44-.1.85-.3 1.22s-.48.7-.85.97a4.3 4.3 0 0 1-1.34.64c-.51.15-1.09.22-1.74.22-.93 0-1.73-.17-2.37-.5-.64-.33-1.13-.76-1.47-1.27-.33-.52-.49-1.05-.49-1.6h2.53c.01.37.11.66.28.88s.4.38.68.48c.28.1.58.15.9.15a2.3 2.3 0 0 0 .86-.14c.23-.1.4-.23.52-.39.12-.17.19-.36.19-.57zm9.25-7.26v1.89h-5.85v-1.89h5.85zm-4.4-2.48h2.67v9.49c0 .29.04.51.11.67.08.15.2.26.35.32.16.06.35.08.59.08l.45-.02.34-.06.01 1.97a5 5 0 0 1-.74.18c-.27.04-.56.06-.88.06-.59 0-1.1-.1-1.54-.29-.43-.2-.77-.51-1-.95s-.35-1-.35-1.71v-9.76zm10.54 12.7a5.6 5.6 0 0 1-2.1-.37 4.6 4.6 0 0 1-1.58-1.05c-.43-.45-.75-.96-.98-1.55a5.2 5.2 0 0 1-.34-1.89v-.37a6.4 6.4 0 0 1 .33-2.09 4.9 4.9 0 0 1 .93-1.64 4.1 4.1 0 0 1 1.48-1.07 4.9 4.9 0 0 1 1.97-.38c.71 0 1.34.12 1.89.35a3.7 3.7 0 0 1 1.38 1 4.3 4.3 0 0 1 .85 1.56c.19.6.29 1.27.29 2v1.11h-7.98v-1.78h5.35v-.2c0-.37-.07-.7-.2-.99-.13-.3-.33-.53-.59-.71s-.61-.26-1.02-.26c-.35 0-.66.08-.91.23a1.8 1.8 0 0 0-.62.65c-.15.28-.27.61-.35.98-.07.37-.11.78-.11 1.23v.37c0 .4.06.77.17 1.11.12.34.28.63.49.88.22.25.48.44.78.58.31.14.66.2 1.05.2.48 0 .93-.09 1.35-.28a2.9 2.9 0 0 0 1.09-.86l1.3 1.41c-.21.3-.5.59-.86.87a4.6 4.6 0 0 1-1.3.69c-.51.17-1.09.26-1.74.26zm8.26-8.08v7.9h-2.67v-10.04h2.5l.17 2.14zm-.39 2.52h-.72a6.5 6.5 0 0 1 .29-2c.19-.6.46-1.11.81-1.53.35-.43.76-.75 1.23-.97a3.7 3.7 0 0 1 1.61-.34 3.9 3.9 0 0 1 1.29.2c.39.14.72.35 1 .65s.5.69.65 1.18c.15.49.23 1.09.23 1.79v6.4h-2.69v-6.41c0-.44-.06-.79-.19-1.04s-.31-.42-.55-.52c-.24-.11-.53-.16-.87-.16-.36 0-.67.07-.94.21-.26.14-.48.34-.65.59-.17.25-.29.54-.38.87s-.13.69-.13 1.08zm12.57 3.47c.33 0 .62-.06.87-.19.25-.13.45-.31.59-.54.15-.24.23-.51.23-.83h2.51c-.01.7-.2 1.33-.57 1.88a3.9 3.9 0 0 1-1.49 1.29c-.62.31-1.32.46-2.1.46s-1.46-.13-2.04-.39c-.57-.26-1.05-.62-1.44-1.08a4.7 4.7 0 0 1-.86-1.61c-.19-.62-.29-1.28-.29-1.99v-.27a6.6 6.6 0 0 1 .29-1.99 4.6 4.6 0 0 1 .86-1.61c.38-.46.86-.83 1.44-1.09s1.25-.39 2.02-.39a4.7 4.7 0 0 1 2.16.47 3.5 3.5 0 0 1 1.47 1.35c.36.58.54 1.27.55 2.07h-2.51a2.1 2.1 0 0 0-.21-.91c-.13-.27-.32-.49-.57-.65-.25-.17-.55-.25-.92-.25-.39 0-.71.08-.95.25a1.6 1.6 0 0 0-.58.67c-.14.28-.23.6-.29.95a8.1 8.1 0 0 0-.07 1.11v.27a8.3 8.3 0 0 0 .07 1.12c.05.36.14.68.28.96.14.28.34.5.59.66s.57.24.96.24zm8.74.77l2.66-8.91h2.87l-4.03 11.55a6.3 6.3 0 0 1-.35.82 3.3 3.3 0 0 1-.58.83c-.24.27-.55.48-.92.65-.37.17-.81.25-1.35.25a3.4 3.4 0 0 1-.62-.05l-.58-.13v-1.96h.21l.21.01a2.6 2.6 0 0 0 .86-.12c.22-.08.4-.21.54-.37.14-.16.24-.37.33-.63l.75-1.94zm-1.11-8.91l2.18 7.27.38 2.83-1.82.19-3.61-10.3h2.87z" class="B"/></g></g><rect x="1" y="1" width="1138" height="638" rx="15" stroke="#0668e1" stroke-width="2"/><defs><filter id="E" x="-4.75" y="56.41" width="332.5" height="98.56" filterUnits="userSpaceOnUse" color-interpolation-filters="sRGB"><feFlood flood-opacity="0" result="A"/><feColorMatrix in="SourceAlpha" values="0 0 0 0 0 0 0 0 0 0 0 0 0 0 0 0 0 0 127 0" result="B"/><feOffset dy="1.78125"/><feGaussianBlur stdDeviation="2.38"/><feComposite in2="B" operator="out"/><feColorMatrix values="0 0 0 0 0 0 0 0 0 0 0 0 0 0 0 0 0 0 0.3 0"/><feBlend in2="A"/><feBlend in="SourceGraphic"/></filter><linearGradient id="F" x1="305.21" y1="465.52" x2="296.87" y2="65.26" href="#AE"><stop stop-color="#ddecff"/><stop offset="1" stop-color="#eaf3ff"/></linearGradient><linearGradient id="G" x1="367.64" y1="207.09" x2="792.65" y2="606.15" href="#AE"><stop stop-color="#e0eeff"/><stop offset="1" stop-color="#f9f9f9"/></linearGradient><linearGradient id="H" x1="26.45" y1="343.58" x2="329.1" y2="581.48" href="#AE"><stop stop-color="#d6e8ff"/><stop offset="1" stop-color="#cfe4ff"/></linearGradient><linearGradient id="I" x1="842.27" y1="582.55" x2="842.27" y2="393.06" href="#AE"><stop stop-color="#fff"/><stop offset=".41" stop-color="#fcfdff"/><stop offset=".69" stop-color="#f3f9ff"/><stop offset=".93" stop-color="#e4f0fe"/><stop offset="1" stop-color="#deedfe"/></linearGradient><linearGradient id="J" x1="654.89" y1="431.08" x2="669.66" y2="388.02" href="#AE"><stop stop-color="#40c9e2"/><stop offset="1" stop-color="#5586fc"/></linearGradient><linearGradient id="K" x1="654.13" y1="400.2" x2="659.07" y2="385.8" href="#AE"><stop stop-color="#40c9e2"/><stop offset="1" stop-color="#5586fc"/></linearGradient><linearGradient id="L" x1="1032.3" y1="431.08" x2="1017.53" y2="388.02" href="#AE"><stop stop-color="#40c9e2"/><stop offset="1" stop-color="#5586fc"/></linearGradient><linearGradient id="M" x1="1033.06" y1="400.2" x2="1028.12" y2="385.8" href="#AE"><stop stop-color="#40c9e2"/><stop offset="1" stop-color="#5586fc"/></linearGradient><linearGradient id="N" x1="858.82" y1="417.62" x2="857.79" y2="430.79" href="#AE"><stop stop-color="#ebf7ff"/><stop offset=".98" stop-color="#fff"/></linearGradient><linearGradient id="O" x1="901.24" y1="469.47" x2="896.16" y2="398.77" href="#AE"><stop offset=".02" stop-color="#fff"/><stop offset="1" stop-color="#ebf7ff"/></linearGradient><linearGradient id="P" x1="881.09" y1="478.05" x2="882.03" y2="380.94" href="#AE"><stop stop-color="#4862aa"/><stop offset=".31" stop-color="#455fa6"/><stop offset=".6" stop-color="#3b569b"/><stop offset=".88" stop-color="#2b4789"/><stop offset=".99" stop-color="#223f7f"/></linearGradient><linearGradient id="Q" x1="880.35" y1="436.79" x2="892.31" y2="436.79" href="#AE"><stop stop-color="#81bffd"/><stop offset=".32" stop-color="#7dbcfd"/><stop offset=".61" stop-color="#72b4fd"/><stop offset=".89" stop-color="#60a6fc"/><stop offset="1" stop-color="#569ffc"/></linearGradient><linearGradient id="R" x1="908.33" y1="478.18" x2="909.28" y2="380.7" href="#AE"><stop stop-color="#4862aa"/><stop offset=".31" stop-color="#455fa6"/><stop offset=".6" stop-color="#3b569b"/><stop offset=".88" stop-color="#2b4789"/><stop offset=".99" stop-color="#223f7f"/></linearGradient><linearGradient id="S" x1="792.34" y1="467.72" x2="791.97" y2="404.64" href="#AE"><stop offset=".02" stop-color="#fff"/><stop offset="1" stop-color="#ebf7ff"/></linearGradient><linearGradient id="T" x1="786.13" y1="472.26" x2="779.99" y2="392.94" href="#AE"><stop stop-color="#81bffd"/><stop offset=".32" stop-color="#7dbcfd"/><stop offset=".61" stop-color="#72b4fd"/><stop offset=".89" stop-color="#60a6fc"/><stop offset="1" stop-color="#569ffc"/></linearGradient><linearGradient id="U" x1="798.51" y1="432.08" x2="820.4" y2="432.08" href="#AE"><stop stop-color="#81bffd"/><stop offset=".32" stop-color="#7dbcfd"/><stop offset=".61" stop-color="#72b4fd"/><stop offset=".89" stop-color="#60a6fc"/><stop offset="1" stop-color="#569ffc"/></linearGradient><linearGradient id="V" x1="814.45" y1="423.11" x2="820.96" y2="423.11" href="#AE"><stop stop-color="#ebf7ff"/><stop offset=".98" stop-color="#fff"/></linearGradient><linearGradient id="W" x1="762.61" y1="436.03" x2="816.36" y2="436.03" href="#AE"><stop stop-color="#81bffd"/><stop offset=".32" stop-color="#7dbcfd"/><stop offset=".61" stop-color="#72b4fd"/><stop offset=".89" stop-color="#60a6fc"/><stop offset="1" stop-color="#569ffc"/></linearGradient><linearGradient id="X" x1="757.11" y1="435.69" x2="753.98" y2="450.34" href="#AE"><stop stop-color="#ebf7ff"/><stop offset=".98" stop-color="#fff"/></linearGradient><linearGradient id="Y" x1="715.92" y1="473.75" x2="711.93" y2="400.16" href="#AE"><stop offset=".02" stop-color="#fff"/><stop offset="1" stop-color="#ebf7ff"/></linearGradient><linearGradient id="Z" x1="730.62" y1="478.87" x2="729.67" y2="380.95" href="#AE"><stop stop-color="#4862aa"/><stop offset=".31" stop-color="#455fa6"/><stop offset=".6" stop-color="#3b569b"/><stop offset=".88" stop-color="#2b4789"/><stop offset=".99" stop-color="#223f7f"/></linearGradient><linearGradient id="a" x1="730.23" y1="435.32" x2="718.16" y2="435.32" href="#AE"><stop stop-color="#81bffd"/><stop offset=".32" stop-color="#7dbcfd"/><stop offset=".61" stop-color="#72b4fd"/><stop offset=".89" stop-color="#60a6fc"/><stop offset="1" stop-color="#569ffc"/></linearGradient><linearGradient id="b" x1="702.49" y1="480.32" x2="701.65" y2="393.98" href="#AE"><stop stop-color="#4862aa"/><stop offset=".31" stop-color="#455fa6"/><stop offset=".6" stop-color="#3b569b"/><stop offset=".88" stop-color="#2b4789"/><stop offset=".99" stop-color="#223f7f"/></linearGradient><linearGradient id="c" x1="691.6" y1="475.43" x2="672.98" y2="411.87" href="#AE"><stop stop-color="#4862aa"/><stop offset=".31" stop-color="#455fa6"/><stop offset=".6" stop-color="#3b569b"/><stop offset=".88" stop-color="#2b4789"/><stop offset=".99" stop-color="#223f7f"/></linearGradient><linearGradient id="d" x1="704.14" y1="416.24" x2="705.13" y2="428.96" href="#AE"><stop stop-color="#ebf7ff"/><stop offset=".98" stop-color="#fff"/></linearGradient><linearGradient id="e" x1="701.46" y1="472.54" x2="682.83" y2="408.98" href="#AE"><stop stop-color="#4862aa"/><stop offset=".31" stop-color="#455fa6"/><stop offset=".6" stop-color="#3b569b"/><stop offset=".88" stop-color="#2b4789"/><stop offset=".99" stop-color="#223f7f"/></linearGradient><linearGradient id="f" x1="929.13" y1="431.16" x2="949.73" y2="431.16" href="#AE"><stop stop-color="#81bffd"/><stop offset=".32" stop-color="#7dbcfd"/><stop offset=".61" stop-color="#72b4fd"/><stop offset=".89" stop-color="#60a6fc"/><stop offset="1" stop-color="#569ffc"/></linearGradient><linearGradient id="g" x1="976.54" y1="468.38" x2="974.36" y2="400.95" href="#AE"><stop offset=".02" stop-color="#fff"/><stop offset="1" stop-color="#ebf7ff"/></linearGradient><linearGradient id="h" x1="974.37" y1="434.47" x2="1006.34" y2="434.47" href="#AE"><stop stop-color="#81bffd"/><stop offset=".32" stop-color="#7dbcfd"/><stop offset=".61" stop-color="#72b4fd"/><stop offset=".89" stop-color="#60a6fc"/><stop offset="1" stop-color="#569ffc"/></linearGradient><linearGradient id="i" x1="945.2" y1="435.04" x2="966.51" y2="435.04" href="#AE"><stop stop-color="#81bffd"/><stop offset=".32" stop-color="#7dbcfd"/><stop offset=".61" stop-color="#72b4fd"/><stop offset=".89" stop-color="#60a6fc"/><stop offset="1" stop-color="#569ffc"/></linearGradient><linearGradient id="j" x1="983.69" y1="428.29" x2="1011.91" y2="430.97" href="#AE"><stop stop-color="#81bffd"/><stop offset=".32" stop-color="#7dbcfd"/><stop offset=".61" stop-color="#72b4fd"/><stop offset=".89" stop-color="#60a6fc"/><stop offset="1" stop-color="#569ffc"/></linearGradient><linearGradient id="k" x1="843.12" y1="388.67" x2="843.12" y2="441.04" href="#AE"><stop stop-color="#fff" stop-opacity="0"/><stop offset=".98" stop-color="#fff"/></linearGradient><linearGradient id="l" x1="910.29" y1="192.23" x2="936.12" y2="248.31" href="#AE"><stop stop-color="#6565c2"/><stop offset=".99" stop-color="#313180"/></linearGradient><linearGradient id="m" x1="919.32" y1="256.02" x2="915.62" y2="251.44" href="#AE"><stop stop-color="#fbc8c7"/><stop offset=".99" stop-color="#fb929c"/></linearGradient><linearGradient id="n" x1="890.83" y1="202.29" x2="916.26" y2="257.51" href="#AE"><stop stop-color="#6565c2"/><stop offset=".99" stop-color="#313180"/></linearGradient><linearGradient id="o" x1="862.61" y1="344.2" x2="861.18" y2="325.85" href="#AE"><stop stop-color="#ebf7ff"/><stop offset=".98" stop-color="#fff"/></linearGradient><linearGradient id="p" x1="921.7" y1="271.99" x2="914.62" y2="370.46" href="#AE"><stop offset=".02" stop-color="#fff"/><stop offset="1" stop-color="#ebf7ff"/></linearGradient><linearGradient id="q" x1="893.64" y1="260.03" x2="894.95" y2="395.29" href="#AE"><stop stop-color="#4862aa"/><stop offset=".31" stop-color="#455fa6"/><stop offset=".6" stop-color="#3b569b"/><stop offset=".88" stop-color="#2b4789"/><stop offset=".99" stop-color="#223f7f"/></linearGradient><linearGradient id="r" x1="904.71" y1="272.1" x2="913.04" y2="272.1" href="#AE"><stop stop-color="#81bffd"/><stop offset=".32" stop-color="#7dbcfd"/><stop offset=".61" stop-color="#72b4fd"/><stop offset=".89" stop-color="#60a6fc"/><stop offset="1" stop-color="#569ffc"/></linearGradient><linearGradient id="s" x1="892.6" y1="317.51" x2="909.26" y2="317.51" href="#AE"><stop stop-color="#81bffd"/><stop offset=".32" stop-color="#7dbcfd"/><stop offset=".61" stop-color="#72b4fd"/><stop offset=".89" stop-color="#60a6fc"/><stop offset="1" stop-color="#569ffc"/></linearGradient><linearGradient id="t" x1="931.58" y1="259.84" x2="932.89" y2="395.62" href="#AE"><stop stop-color="#4862aa"/><stop offset=".31" stop-color="#455fa6"/><stop offset=".6" stop-color="#3b569b"/><stop offset=".88" stop-color="#2b4789"/><stop offset=".99" stop-color="#223f7f"/></linearGradient><linearGradient id="u" x1="741.62" y1="241.49" x2="752.31" y2="278.48" href="#AE"><stop stop-color="#4862aa"/><stop offset=".31" stop-color="#455fa6"/><stop offset=".6" stop-color="#3b569b"/><stop offset=".88" stop-color="#2b4789"/><stop offset=".99" stop-color="#223f7f"/></linearGradient><linearGradient id="v" x1="765.97" y1="262.3" x2="767.99" y2="255.1" href="#AE"><stop stop-color="#d18080"/><stop offset=".99" stop-color="#b55d5d"/></linearGradient><linearGradient id="w" x1="770" y1="274.42" x2="769.49" y2="362.29" href="#AE"><stop offset=".02" stop-color="#fff"/><stop offset="1" stop-color="#ebf7ff"/></linearGradient><linearGradient id="x" x1="761.36" y1="268.09" x2="752.8" y2="378.57" href="#AE"><stop stop-color="#81bffd"/><stop offset=".32" stop-color="#7dbcfd"/><stop offset=".61" stop-color="#72b4fd"/><stop offset=".89" stop-color="#60a6fc"/><stop offset="1" stop-color="#569ffc"/></linearGradient><linearGradient id="y" x1="778.59" y1="324.06" x2="809.09" y2="324.06" href="#AE"><stop stop-color="#81bffd"/><stop offset=".32" stop-color="#7dbcfd"/><stop offset=".61" stop-color="#72b4fd"/><stop offset=".89" stop-color="#60a6fc"/><stop offset="1" stop-color="#569ffc"/></linearGradient><linearGradient id="z" x1="800.79" y1="336.57" x2="809.87" y2="336.57" href="#AE"><stop stop-color="#ebf7ff"/><stop offset=".98" stop-color="#fff"/></linearGradient><linearGradient id="AA" x1="728.59" y1="318.56" x2="803.46" y2="318.56" href="#AE"><stop stop-color="#81bffd"/><stop offset=".32" stop-color="#7dbcfd"/><stop offset=".61" stop-color="#72b4fd"/><stop offset=".89" stop-color="#60a6fc"/><stop offset="1" stop-color="#569ffc"/></linearGradient><linearGradient id="AB" x1="894.09" y1="420.48" x2="875.44" y2="351.89" href="#AE"><stop stop-color="#ebf7ff"/><stop offset=".98" stop-color="#fff"/></linearGradient><clipPath id="AC"><rect width="1140" height="640" rx="16" class="B"/></clipPath><clipPath id="AD"><path transform="translate(665 141.5)" d="M0 0h356.25v356.25H0z" class="B"/></clipPath><linearGradient id="AE" gradientUnits="userSpaceOnUse"/></defs></svg>