<svg xmlns="http://www.w3.org/2000/svg" width="1140" height="640" fill="none" xmlns:v="https://vecta.io/nano"><style><![CDATA[.B{fill:#fff}.C{stroke-linecap:round}.D{stroke-linejoin:round}.E{fill:#0668e1}.F{stroke:#141b25}.G{fill:#eaa387}.H{fill:#110909}.I{stroke-width:.33}.J{stroke:#110909}.K{fill:#2a2e44}.L{fill:#343852}.M{fill:#2a4579}.N{stroke-width:.36}.O{fill:#6b6b6b}.P{fill:#efcdaf}.Q{stroke-width:5.04}]]></style><g clip-path="url(#W)"><rect width="1140" height="640" rx="16" class="B"/><path d="M0 0h1140v690.63H0V0z" fill="#f1f7ff"/><mask id="A" maskUnits="userSpaceOnUse" x="534" y="0" width="606" height="691"><path d="M534.61 690.63c70.39-334.13 465.65-272.9 486.8-657.16.62-11.25-.44-22.43-1.3-33.47H1140v377.35 313.28H534.61z" class="B"/></mask><g mask="url(#A)"><path d="M534.61 0H1140v690.63H534.61V0z" fill="url(#H)"/></g><mask id="B" maskUnits="userSpaceOnUse" x="227" y="0" width="795" height="691"><path d="M949.27 0h70.83a426.2 426.2 0 0 1 1.31 33.47c0 393.68-364.1 321.95-434.72 657.16H227.75C339.82 213.68 793.03 429.99 949.27 0z" class="B"/></mask><g mask="url(#B)"><path d="M227.75 0h793.67v690.63H227.75V0z" fill="url(#I)"/></g><mask id="C" maskUnits="userSpaceOnUse" x="724" y="280" width="416" height="411"><path d="M1140 280.42v96.93 313.28H724.84C832.35 514.3 1062.09 487.47 1140 280.42z" class="B"/></mask><g mask="url(#C)"><path d="M724.84 280.3H1140v410.21H724.84V280.3z" fill="url(#J)"/></g><path d="M132.91 228.38h5.28c-.07 1.53-.48 2.88-1.24 4.04s-1.8 2.08-3.13 2.73c-1.33.64-2.9.97-4.7.97-1.47 0-2.78-.25-3.94-.74a8 8 0 0 1-2.92-2.12 9.6 9.6 0 0 1-1.83-3.36c-.41-1.32-.62-2.8-.62-4.45v-1.19a14.2 14.2 0 0 1 .65-4.45 9.8 9.8 0 0 1 1.87-3.38 8.1 8.1 0 0 1 2.93-2.14 9.4 9.4 0 0 1 3.78-.74 10.4 10.4 0 0 1 4.84 1.03c1.32.68 2.34 1.62 3.06 2.82a9.2 9.2 0 0 1 1.28 4.06h-5.28c-.02-.82-.16-1.51-.42-2.06a2.6 2.6 0 0 0-1.24-1.27c-.56-.28-1.31-.42-2.25-.42-.65 0-1.22.12-1.7.36a3 3 0 0 0-1.21 1.15 6.1 6.1 0 0 0-.72 2.03c-.15.82-.23 1.82-.23 2.98v1.22c0 1.17.07 2.16.21 2.99s.37 1.5.68 2.02.71.91 1.21 1.16a4.2 4.2 0 0 0 1.84.36 4.9 4.9 0 0 0 2.03-.38c.55-.26.98-.65 1.28-1.18.3-.53.46-1.21.48-2.03zm16.01 3.33v-6.72c0-.46-.06-.86-.2-1.19s-.34-.59-.62-.77c-.28-.19-.66-.29-1.13-.29-.38 0-.71.06-.98.2s-.48.33-.62.59-.21.59-.21.99h-5.08a4.5 4.5 0 0 1 .5-2.1c.34-.65.82-1.22 1.45-1.7a7 7 0 0 1 2.26-1.12c.88-.27 1.87-.41 2.95-.41 1.3 0 2.45.22 3.47.65 1.03.43 1.83 1.08 2.43 1.94.59.85.89 1.93.89 3.23v6.68c0 1.06.06 1.87.18 2.43.12.54.29 1.02.51 1.43v.26h-5.1a6.9 6.9 0 0 1-.54-1.84 15.2 15.2 0 0 1-.17-2.26zm.62-5.86l.03 2.71h-2.25a3.3 3.3 0 0 0-1.21.2c-.32.13-.58.31-.78.54-.19.22-.33.47-.42.75-.08.28-.12.58-.12.89 0 .3.07.57.21.81.15.23.35.41.6.54a1.8 1.8 0 0 0 .84.2c.56 0 1.04-.11 1.43-.32.4-.22.71-.49.92-.8s.32-.6.32-.87l1.12 2.08a13.9 13.9 0 0 1-.69 1.22c-.25.41-.57.79-.95 1.15a4.5 4.5 0 0 1-1.37.84c-.54.21-1.2.32-1.97.32-1 0-1.93-.21-2.77-.62-.83-.41-1.5-.99-2-1.72-.5-.74-.75-1.6-.75-2.56a5.4 5.4 0 0 1 .45-2.26c.31-.66.78-1.23 1.4-1.69s1.42-.81 2.38-1.06a14.2 14.2 0 0 1 3.41-.36h2.19zm12.3-2.86v12.83h-5.08V219.5h4.76l.32 3.48zm-.6 4.12l-1.19.03c0-1.25.15-2.36.45-3.33.3-.98.73-1.82 1.28-2.5s1.21-1.2 1.97-1.55a6 6 0 0 1 2.58-.54c.75 0 1.44.11 2.06.33.63.22 1.18.58 1.63 1.07a4.8 4.8 0 0 1 1.06 1.96c.25.8.38 1.8.38 2.98v10.27h-5.11v-10.28c0-.65-.09-1.15-.27-1.49-.18-.35-.44-.59-.78-.72a3.5 3.5 0 0 0-1.25-.2 2.7 2.7 0 0 0-1.33.3c-.36.2-.65.48-.87.84-.21.35-.37.77-.47 1.25-.09.48-.14 1.01-.14 1.58zm22.42 4.98v-19.42h5.11v23.16h-4.58l-.53-3.74zm-10.01-4.22v-.32c0-1.24.14-2.36.41-3.38.27-1.03.67-1.91 1.21-2.64.53-.74 1.2-1.32 1.99-1.72a6 6 0 0 1 2.74-.6 4.5 4.5 0 0 1 2.43.65c.69.42 1.29 1.01 1.78 1.78s.89 1.66 1.21 2.68a20.9 20.9 0 0 1 .71 3.29v.38c-.16 1.11-.4 2.15-.71 3.14-.31.97-.71 1.84-1.21 2.59a5.7 5.7 0 0 1-1.79 1.78 4.6 4.6 0 0 1-2.44.63c-1.03 0-1.95-.21-2.74-.62a5.6 5.6 0 0 1-1.97-1.73c-.52-.74-.92-1.62-1.19-2.62s-.41-2.1-.41-3.29zm5.08-.32v.32c0 .61.04 1.18.12 1.7s.22.98.41 1.39c.2.39.46.7.78.92.33.22.74.33 1.22.33.65 0 1.19-.16 1.61-.47.43-.31.75-.75.95-1.33.21-.57.3-1.25.27-2.02v-1.19c.02-.66-.03-1.25-.14-1.75-.11-.51-.29-.94-.53-1.28-.23-.34-.53-.6-.89-.77a2.7 2.7 0 0 0-1.25-.27c-.47 0-.87.11-1.21.33-.32.22-.58.53-.78.94-.2.39-.35.86-.44 1.4a10.4 10.4 0 0 0-.14 1.75zm18.29-8.03v16.31h-5.1V219.5h5.1zm-5.4-4.21c0-.72.26-1.32.78-1.78s1.2-.69 2.03-.69 1.51.23 2.03.69.78 1.06.78 1.78-.26 1.32-.78 1.78-1.2.69-2.03.69-1.51-.23-2.03-.69-.78-1.06-.78-1.78zm17.91 16.78v-19.42h5.11v23.16h-4.58l-.53-3.74zm-10.01-4.22v-.32a13.1 13.1 0 0 1 .41-3.38c.27-1.03.67-1.91 1.21-2.64.53-.74 1.2-1.32 1.99-1.72a6 6 0 0 1 2.74-.6 4.5 4.5 0 0 1 2.43.65c.69.42 1.29 1.01 1.78 1.78a10.6 10.6 0 0 1 1.21 2.68c.31 1.01.55 2.11.71 3.29v.38c-.16 1.11-.4 2.15-.71 3.14a10.6 10.6 0 0 1-1.21 2.59 5.7 5.7 0 0 1-1.79 1.78 4.6 4.6 0 0 1-2.44.63c-1.03 0-1.95-.21-2.74-.62a5.6 5.6 0 0 1-1.97-1.73 8.3 8.3 0 0 1-1.19-2.62 12.6 12.6 0 0 1-.41-3.29zm5.08-.32v.32c0 .61.04 1.18.12 1.7s.22.98.41 1.39c.2.39.46.7.78.92.33.22.74.33 1.22.33.65 0 1.19-.16 1.61-.47.43-.31.75-.75.95-1.33.21-.57.3-1.25.27-2.02v-1.19c.02-.66-.03-1.25-.14-1.75-.11-.51-.29-.94-.53-1.28a2.2 2.2 0 0 0-.89-.77 2.7 2.7 0 0 0-1.25-.27c-.47 0-.87.11-1.21.33-.32.22-.58.53-.78.94-.2.39-.35.86-.44 1.4a10.4 10.4 0 0 0-.14 1.75zm21.39 4.18v-6.72c0-.46-.06-.86-.2-1.19s-.34-.59-.62-.77c-.28-.19-.66-.29-1.13-.29-.38 0-.71.06-.98.2s-.48.33-.62.59-.21.59-.21.99h-5.08a4.5 4.5 0 0 1 .5-2.1 5.2 5.2 0 0 1 1.45-1.7 7 7 0 0 1 2.26-1.12c.89-.27 1.87-.41 2.96-.41 1.3 0 2.45.22 3.47.65 1.03.43 1.84 1.08 2.43 1.94.59.85.89 1.93.89 3.23v6.68c0 1.06.06 1.87.18 2.43a5.6 5.6 0 0 0 .51 1.43v.26h-5.09a6.9 6.9 0 0 1-.54-1.84 15.2 15.2 0 0 1-.17-2.26zm.62-5.86l.03 2.71h-2.25a3.3 3.3 0 0 0-1.21.2c-.32.13-.58.31-.78.54-.19.22-.33.47-.42.75-.08.28-.12.58-.12.89 0 .3.07.57.21.81.15.23.35.41.6.54a1.8 1.8 0 0 0 .84.2c.56 0 1.04-.11 1.43-.32.4-.22.71-.49.92-.8s.32-.6.32-.87l1.12 2.08c-.2.4-.43.81-.69 1.22a5.3 5.3 0 0 1-.95 1.15 4.5 4.5 0 0 1-1.37.84c-.54.21-1.2.32-1.97.32-1 0-1.93-.21-2.77-.62-.83-.41-1.5-.99-2-1.72-.5-.74-.75-1.6-.75-2.56a5.4 5.4 0 0 1 .45-2.26c.31-.66.78-1.23 1.4-1.69s1.42-.81 2.38-1.06 2.1-.36 3.41-.36h2.19zm15.91-6.35v3.53h-9.83v-3.53h9.83zm-7.76-4.06h5.08v15.05a2.7 2.7 0 0 0 .15 1.01c.1.23.27.4.51.5.25.09.58.14 1 .14l.72-.01.54-.07v3.63a8.3 8.3 0 0 1-1.36.32c-.47.08-.97.12-1.51.12-1.09 0-2.02-.17-2.79-.51-.76-.34-1.35-.88-1.75-1.61s-.6-1.69-.6-2.86v-15.68zm17.68 20.67c-1.33 0-2.51-.21-3.56-.62-1.04-.42-1.93-1-2.65-1.73a7.7 7.7 0 0 1-1.64-2.53c-.37-.95-.56-1.96-.56-3.03v-.57c0-1.2.17-2.3.5-3.32.33-1.03.83-1.92 1.48-2.68a6.6 6.6 0 0 1 2.46-1.78 8.5 8.5 0 0 1 3.44-.65 8.2 8.2 0 0 1 3.11.56 6.3 6.3 0 0 1 2.32 1.6c.64.69 1.13 1.53 1.46 2.52.34.99.51 2.09.51 3.32v2.07h-13.33v-3.18h8.37v-.39c.01-.54-.09-1-.29-1.39-.19-.38-.47-.67-.84-.87s-.82-.3-1.36-.3c-.55 0-1.01.12-1.37.36-.35.24-.63.57-.83 1a5.2 5.2 0 0 0-.41 1.43c-.08.54-.12 1.12-.12 1.72v.57c0 .6.08 1.15.24 1.64.17.49.41.91.72 1.27a3.4 3.4 0 0 0 1.15.8c.45.19.97.29 1.54.29a5.6 5.6 0 0 0 2.05-.39 4.1 4.1 0 0 0 1.73-1.3l2.31 2.74a6 6 0 0 1-1.42 1.37 7.8 7.8 0 0 1-2.17 1.08c-.84.27-1.79.41-2.83.41zm26.58-22.25v21.95h-5.29v-21.95h5.29zm6.6 0v4.09h-18.35v-4.09h18.35zm6.13 9.68v12.27h-5.08V219.5h4.75l.33 4.04zm4.82-4.16l-.09 4.72-.81-.08-.86-.04a5 5 0 0 0-1.54.21 2.6 2.6 0 0 0-1.06.6c-.27.26-.47.59-.6 1a4.6 4.6 0 0 0-.17 1.4l-.92-.6c0-1.09.11-2.09.32-2.99.22-.9.53-1.68.94-2.34.4-.66.89-1.17 1.46-1.52.57-.36 1.22-.54 1.93-.54.25 0 .5.01.74.04.25.03.47.08.66.14zm9.77 12.33v-6.72c0-.46-.07-.86-.2-1.19s-.34-.59-.62-.77c-.28-.19-.66-.29-1.13-.29-.38 0-.71.06-.98.2s-.48.33-.62.59-.21.59-.21.99h-5.08a4.5 4.5 0 0 1 .5-2.1 5.2 5.2 0 0 1 1.45-1.7c.63-.48 1.39-.86 2.26-1.12.88-.27 1.87-.41 2.95-.41a8.8 8.8 0 0 1 3.47.65c1.03.43 1.83 1.08 2.43 1.94.59.85.89 1.93.89 3.23v6.68c0 1.06.06 1.87.18 2.43a5.6 5.6 0 0 0 .51 1.43v.26h-5.1c-.24-.5-.42-1.12-.54-1.84a15.1 15.1 0 0 1-.17-2.26zm.62-5.86l.03 2.71h-2.25c-.47 0-.87.06-1.21.2-.32.13-.58.31-.78.54-.19.22-.33.47-.42.75a3.2 3.2 0 0 0-.12.89c0 .3.07.57.21.81.15.23.35.41.6.54a1.8 1.8 0 0 0 .84.2 3 3 0 0 0 1.43-.32c.4-.22.71-.49.92-.8s.32-.6.32-.87l1.12 2.08a13.9 13.9 0 0 1-.69 1.22 5.3 5.3 0 0 1-.95 1.15 4.5 4.5 0 0 1-1.37.84c-.54.21-1.2.32-1.97.32-1 0-1.93-.21-2.77-.62-.83-.41-1.5-.99-2-1.72-.5-.74-.75-1.6-.75-2.56a5.4 5.4 0 0 1 .45-2.26c.31-.66.78-1.23 1.4-1.69s1.42-.81 2.38-1.06 2.1-.36 3.41-.36h2.19zm12.3-2.86v12.83h-5.08V219.5h4.76l.32 3.48zm-.6 4.12l-1.19.03c0-1.25.15-2.36.45-3.33.3-.98.73-1.82 1.28-2.5s1.21-1.2 1.97-1.55a6 6 0 0 1 2.58-.54c.75 0 1.44.11 2.07.33.63.22 1.18.58 1.63 1.07a4.8 4.8 0 0 1 1.06 1.96c.25.8.38 1.8.38 2.98v10.27h-5.11v-10.28c0-.65-.09-1.15-.27-1.49-.18-.35-.44-.59-.78-.72a3.5 3.5 0 0 0-1.25-.2 2.7 2.7 0 0 0-1.33.3c-.36.2-.65.48-.87.84a4 4 0 0 0-.47 1.25c-.09.48-.13 1.01-.13 1.58zm21.59 4.13c0-.28-.1-.52-.29-.72-.18-.21-.5-.4-.97-.57a13.4 13.4 0 0 0-1.94-.54c-.79-.17-1.54-.4-2.25-.68a7.8 7.8 0 0 1-1.82-1.02c-.52-.4-.93-.88-1.24-1.43-.29-.55-.44-1.19-.44-1.9a4.5 4.5 0 0 1 .44-1.96c.3-.62.74-1.17 1.31-1.64a6.4 6.4 0 0 1 2.13-1.13 8.9 8.9 0 0 1 2.85-.42c1.47 0 2.73.23 3.8.68 1.06.44 1.88 1.07 2.46 1.87.58.79.88 1.71.88 2.76h-5.08c0-.41-.07-.76-.21-1.06-.13-.29-.35-.51-.65-.66-.3-.16-.7-.24-1.21-.24-.35 0-.67.06-.97.2-.28.13-.51.31-.68.54s-.26.5-.26.81c0 .22.05.42.15.6.11.17.28.33.5.48.22.14.5.27.84.39a10.1 10.1 0 0 0 1.24.3 16.8 16.8 0 0 1 3.08.86 5.8 5.8 0 0 1 2.32 1.58c.6.68.9 1.6.9 2.76 0 .72-.17 1.39-.5 2a5 5 0 0 1-1.43 1.6c-.62.45-1.37.8-2.25 1.06a10.7 10.7 0 0 1-2.95.38c-1.56 0-2.87-.28-3.95-.83-1.07-.56-1.89-1.27-2.44-2.11a4.8 4.8 0 0 1-.81-2.59h4.73a2.3 2.3 0 0 0 .36 1.24c.23.32.54.56.92.71a3.6 3.6 0 0 0 1.33.23c.46 0 .84-.06 1.15-.2.31-.13.55-.31.71-.53.16-.23.24-.5.24-.8zm13.51 4.58h-5.11v-17.64c0-1.27.26-2.33.77-3.2a4.9 4.9 0 0 1 2.17-1.96c.94-.45 2.04-.68 3.32-.68.44 0 .86.03 1.25.09l1.15.23.01 3.74c-.18-.05-.37-.09-.56-.11a7 7 0 0 0-.71-.03 3.1 3.1 0 0 0-1.25.23c-.34.14-.6.36-.78.65-.17.28-.26.63-.26 1.04v17.64zm3.17-16.31v3.53h-10.63v-3.53h10.63zm1.19 8.32v-.32a10.2 10.2 0 0 1 .51-3.3 7.5 7.5 0 0 1 1.51-2.64c.66-.74 1.48-1.32 2.46-1.73.98-.42 2.1-.63 3.38-.63 1.29 0 2.42.21 3.39.63.99.41 1.81.99 2.47 1.73a7.5 7.5 0 0 1 1.51 2.64 10.2 10.2 0 0 1 .51 3.3v.32a10.3 10.3 0 0 1-.51 3.3 7.7 7.7 0 0 1-1.51 2.64c-.66.74-1.48 1.32-2.46 1.73a8.6 8.6 0 0 1-3.38.62c-1.28 0-2.41-.21-3.39-.62s-1.81-.99-2.47-1.73a7.7 7.7 0 0 1-1.51-2.64 10.3 10.3 0 0 1-.51-3.3zm5.08-.32v.32a10.2 10.2 0 0 0 .14 1.72c.09.53.24 1 .45 1.4.21.39.5.7.86.92s.81.33 1.36.33c.53 0 .98-.11 1.33-.33.36-.22.65-.53.86-.92.21-.4.36-.87.45-1.4a10.2 10.2 0 0 0 .14-1.72v-.32c0-.59-.04-1.15-.14-1.67a4.7 4.7 0 0 0-.45-1.4c-.21-.41-.5-.73-.86-.96s-.81-.35-1.36-.35c-.53 0-.98.12-1.34.35-.35.23-.63.55-.84.96a4.7 4.7 0 0 0-.45 1.4c-.09.52-.14 1.08-.14 1.67zm18.05-3.97v12.27h-5.08V219.5h4.75l.33 4.04zm4.82-4.16l-.09 4.72-.81-.08-.86-.04a5 5 0 0 0-1.54.21 2.6 2.6 0 0 0-1.06.6c-.27.26-.47.59-.6 1a4.6 4.6 0 0 0-.17 1.4l-.92-.6c0-1.09.11-2.09.32-2.99.22-.9.53-1.68.94-2.34.4-.66.89-1.17 1.46-1.52.57-.36 1.22-.54 1.93-.54a6 6 0 0 1 .74.04c.25.03.47.08.66.14zm6.87 3.57v12.86h-5.08V219.5h4.76l.32 3.45zm-.62 4.15l-1.16.03c0-1.15.13-2.2.41-3.17a7.6 7.6 0 0 1 1.21-2.52c.53-.71 1.19-1.27 1.96-1.66a6 6 0 0 1 2.71-.59c.71 0 1.36.11 1.94.33.58.21 1.08.55 1.51 1.01.42.45.74 1.05.96 1.78.23.72.35 1.59.35 2.61v10.88h-5.08v-10.24c0-.69-.08-1.22-.24-1.57-.15-.35-.37-.59-.66-.71a2.8 2.8 0 0 0-1.07-.18c-.44 0-.84.1-1.19.3s-.65.48-.9.84c-.24.35-.43.77-.56 1.25-.12.48-.18 1.01-.18 1.58zm9.32 0l-1.42.03c0-1.15.13-2.2.38-3.17.26-.97.65-1.8 1.16-2.52a5.4 5.4 0 0 1 1.95-1.66 5.9 5.9 0 0 1 2.7-.59 6.1 6.1 0 0 1 2.05.33c.62.22 1.16.58 1.61 1.07s.81 1.15 1.06 1.96c.25.8.38 1.8.38 2.98v10.27h-5.1v-10.27c0-.67-.08-1.18-.24-1.52-.15-.35-.37-.59-.66-.71-.29-.13-.64-.2-1.04-.2-.48 0-.9.1-1.25.3s-.65.48-.89.84a3.8 3.8 0 0 0-.51 1.25c-.11.48-.17 1.01-.17 1.58zm21.24 4.61v-6.72c0-.46-.07-.86-.2-1.19s-.34-.59-.62-.77c-.28-.19-.66-.29-1.13-.29-.38 0-.71.06-.98.2s-.48.33-.62.59-.21.59-.21.99h-5.08a4.5 4.5 0 0 1 .5-2.1 5.2 5.2 0 0 1 1.45-1.7c.63-.48 1.39-.86 2.26-1.12.88-.27 1.87-.41 2.95-.41a8.8 8.8 0 0 1 3.47.65c1.02.43 1.83 1.08 2.43 1.94.59.85.89 1.93.89 3.23v6.68c0 1.06.06 1.87.18 2.43a5.6 5.6 0 0 0 .51 1.43v.26h-5.1c-.24-.5-.42-1.12-.54-1.84a15.1 15.1 0 0 1-.17-2.26zm.62-5.86l.03 2.71h-2.25c-.47 0-.87.06-1.21.2-.32.13-.58.31-.78.54-.19.22-.33.47-.42.75a3.2 3.2 0 0 0-.12.89c0 .3.07.57.21.81.15.23.35.41.6.54a1.8 1.8 0 0 0 .84.2 3 3 0 0 0 1.43-.32c.4-.22.71-.49.92-.8s.32-.6.32-.87l1.12 2.08a13.9 13.9 0 0 1-.69 1.22 5.3 5.3 0 0 1-.95 1.15 4.5 4.5 0 0 1-1.37.84c-.54.21-1.2.32-1.98.32-1 0-1.93-.21-2.77-.62-.83-.41-1.5-.99-2-1.72-.5-.74-.75-1.6-.75-2.56a5.4 5.4 0 0 1 .45-2.26c.31-.66.78-1.23 1.4-1.69s1.42-.81 2.38-1.06 2.1-.36 3.41-.36h2.19zm15.9-6.35v3.53h-9.83v-3.53h9.83zm-7.76-4.06h5.08v15.05c0 .43.05.77.15 1.01.1.23.27.4.51.5.25.09.58.14 1 .14l.72-.01.54-.07v3.63c-.43.14-.88.25-1.36.32a8.9 8.9 0 0 1-1.51.12c-1.09 0-2.02-.17-2.79-.51-.76-.34-1.35-.88-1.75-1.61s-.6-1.69-.6-2.86v-15.68zm15.15 4.06v16.31h-5.1V219.5h5.1zm-5.4-4.21c0-.72.26-1.32.78-1.78s1.2-.69 2.04-.69 1.51.23 2.03.69.78 1.06.78 1.78-.26 1.32-.78 1.78-1.2.69-2.03.69-1.51-.23-2.04-.69-.78-1.06-.78-1.78zm7.9 12.53v-.32a10.2 10.2 0 0 1 .51-3.3 7.5 7.5 0 0 1 1.51-2.64c.66-.74 1.48-1.32 2.46-1.73.98-.42 2.1-.63 3.38-.63 1.29 0 2.42.21 3.39.63.99.41 1.81.99 2.47 1.73a7.5 7.5 0 0 1 1.51 2.64 10.2 10.2 0 0 1 .51 3.3v.32a10.3 10.3 0 0 1-.51 3.3 7.7 7.7 0 0 1-1.51 2.64c-.66.74-1.48 1.32-2.46 1.73a8.6 8.6 0 0 1-3.38.62c-1.28 0-2.41-.21-3.39-.62s-1.81-.99-2.47-1.73a7.7 7.7 0 0 1-1.51-2.64 10.3 10.3 0 0 1-.51-3.3zm5.08-.32v.32a10.2 10.2 0 0 0 .14 1.72c.09.53.24 1 .45 1.4.21.39.5.7.86.92s.81.33 1.36.33c.53 0 .98-.11 1.33-.33.36-.22.65-.53.86-.92.21-.4.36-.87.45-1.4a10.2 10.2 0 0 0 .14-1.72v-.32c0-.59-.04-1.15-.14-1.67a4.7 4.7 0 0 0-.45-1.4c-.21-.41-.5-.73-.86-.96s-.81-.35-1.36-.35c-.53 0-.98.12-1.34.35-.35.23-.63.55-.84.96a4.7 4.7 0 0 0-.45 1.4c-.09.52-.14 1.08-.14 1.67zm17.91-4.52v12.83h-5.08V219.5h4.76l.32 3.48zm-.6 4.12l-1.19.03a11.3 11.3 0 0 1 .45-3.33c.3-.98.73-1.82 1.28-2.5s1.21-1.2 1.97-1.55a6 6 0 0 1 2.58-.54c.75 0 1.44.11 2.07.33.63.22 1.18.58 1.63 1.07a4.8 4.8 0 0 1 1.06 1.96c.25.8.38 1.8.38 2.98v10.27h-5.11v-10.28c0-.65-.09-1.15-.27-1.49-.18-.35-.44-.59-.78-.72a3.5 3.5 0 0 0-1.25-.2 2.7 2.7 0 0 0-1.33.3c-.36.2-.65.48-.87.84a4 4 0 0 0-.47 1.25c-.09.48-.13 1.01-.13 1.58zm-339.94 52.88c0-.34-.05-.65-.15-.92-.1-.28-.29-.54-.56-.78a5 5 0 0 0-1.18-.72c-.5-.25-1.17-.51-1.99-.78l-2.79-1.08c-.89-.41-1.69-.89-2.4-1.43-.7-.55-1.26-1.2-1.67-1.93-.41-.74-.62-1.61-.62-2.59 0-.94.21-1.79.63-2.55a5.8 5.8 0 0 1 1.76-1.94c.76-.54 1.66-.95 2.68-1.24 1.02-.29 2.14-.44 3.36-.44a10.1 10.1 0 0 1 4.25.84 6.7 6.7 0 0 1 2.89 2.37c.7 1.01 1.06 2.22 1.06 3.6h-5.26a3 3 0 0 0-.35-1.46c-.22-.42-.56-.75-1.01-1a3.6 3.6 0 0 0-1.7-.36c-.66 0-1.22.1-1.67.3s-.79.47-1.03.81c-.23.33-.35.7-.35 1.1a1.6 1.6 0 0 0 .27.91c.19.26.46.51.8.74a8.3 8.3 0 0 0 1.27.66c.5.21 1.07.42 1.69.62a20.6 20.6 0 0 1 3.1 1.25 9.5 9.5 0 0 1 2.31 1.55c.63.57 1.11 1.23 1.43 1.96.33.73.5 1.56.5 2.49a5.8 5.8 0 0 1-.57 2.62c-.38.76-.93 1.41-1.64 1.94-.71.52-1.57.92-2.56 1.19s-2.11.41-3.33.41c-1.13 0-2.24-.14-3.33-.42-1.08-.29-2.07-.73-2.95-1.33-.88-.6-1.59-1.37-2.12-2.31-.52-.95-.78-2.07-.78-3.36h5.31c0 .64.09 1.19.26 1.63s.42.8.75 1.07c.33.26.74.45 1.22.57.48.11 1.04.17 1.66.17a3.9 3.9 0 0 0 1.63-.29c.41-.2.71-.46.91-.78.19-.33.29-.69.29-1.09zm12.78 3.92l4.22-14.4h5.46l-6.56 18.74c-.14.41-.33.85-.56 1.33a5.5 5.5 0 0 1-.95 1.37c-.4.43-.92.78-1.55 1.06-.62.27-1.4.41-2.32.41a5.6 5.6 0 0 1-1.08-.08l-1.03-.23v-3.63h.33.33a4.1 4.1 0 0 0 1.3-.17c.33-.11.58-.27.75-.48.18-.21.32-.47.42-.77l1.24-3.15zm-1.07-14.4l3.21 11.41.56 5.38h-3.41L138 269.5h5.44zm20.62 11.73c0-.28-.1-.52-.29-.72-.18-.21-.5-.4-.97-.57-.46-.18-1.11-.36-1.94-.54a14 14 0 0 1-2.25-.68 7.8 7.8 0 0 1-1.82-1.02c-.52-.4-.93-.88-1.24-1.43a4 4 0 0 1-.44-1.9 4.5 4.5 0 0 1 .44-1.96c.3-.62.74-1.17 1.31-1.64a6.4 6.4 0 0 1 2.13-1.13 8.9 8.9 0 0 1 2.85-.42c1.47 0 2.73.23 3.8.68 1.07.44 1.88 1.06 2.46 1.87.58.79.87 1.71.87 2.76h-5.08c0-.41-.07-.76-.21-1.06-.13-.29-.35-.51-.65-.66-.3-.16-.7-.24-1.21-.24-.35 0-.67.06-.97.2-.28.13-.51.31-.68.54s-.26.5-.26.81c0 .22.05.42.15.6.11.17.28.33.5.48.22.14.5.27.84.39a10.2 10.2 0 0 0 1.24.3 16.8 16.8 0 0 1 3.08.86 5.8 5.8 0 0 1 2.32 1.58c.6.68.9 1.6.9 2.76 0 .72-.17 1.39-.5 2a5 5 0 0 1-1.43 1.6c-.62.45-1.37.8-2.25 1.06a10.7 10.7 0 0 1-2.95.38c-1.56 0-2.87-.28-3.95-.83-1.07-.56-1.89-1.27-2.44-2.11a4.8 4.8 0 0 1-.81-2.59h4.73a2.3 2.3 0 0 0 .36 1.24c.23.32.54.56.92.71a3.6 3.6 0 0 0 1.33.23 2.9 2.9 0 0 0 1.15-.2c.31-.13.55-.31.71-.53.16-.23.24-.5.24-.8zm15.87-11.73v3.53h-9.83v-3.53h9.83zm-7.76-4.06h5.08v15.05c0 .43.05.77.15 1.01.1.23.27.4.51.5.25.09.58.14 1 .14l.72-.01.54-.08v3.63c-.43.14-.88.25-1.36.32-.47.08-.97.12-1.51.12-1.08 0-2.01-.17-2.79-.51-.76-.34-1.35-.88-1.75-1.61s-.6-1.69-.6-2.86v-15.68zm17.68 20.67c-1.33 0-2.51-.21-3.56-.62-1.05-.42-1.93-1-2.65-1.73-.71-.73-1.26-1.58-1.64-2.53-.37-.95-.56-1.96-.56-3.03v-.57c0-1.2.17-2.3.5-3.32.33-1.02.82-1.92 1.48-2.68a6.6 6.6 0 0 1 2.46-1.78 8.5 8.5 0 0 1 3.44-.65 8.2 8.2 0 0 1 3.11.56c.91.37 1.69.9 2.32 1.6.64.69 1.13 1.53 1.46 2.52.34.99.51 2.09.51 3.32v2.07H183.4v-3.18h8.37v-.39c.01-.54-.09-1-.29-1.39-.19-.38-.47-.67-.84-.87s-.82-.3-1.36-.3c-.55 0-1.01.12-1.37.36-.35.24-.63.57-.83 1a5.2 5.2 0 0 0-.41 1.43c-.08.54-.12 1.12-.12 1.72v.57c0 .6.08 1.15.24 1.64.17.49.41.91.72 1.27a3.4 3.4 0 0 0 1.15.8c.45.19.97.29 1.54.29a5.6 5.6 0 0 0 2.05-.39 4.1 4.1 0 0 0 1.73-1.3l2.31 2.74a6 6 0 0 1-1.42 1.37c-.6.44-1.33.8-2.17 1.08-.84.27-1.79.41-2.83.41zm14.05-13.16v12.86h-5.08V269.5h4.76l.32 3.45zm-.62 4.15l-1.16.03c0-1.15.14-2.2.41-3.17a7.6 7.6 0 0 1 1.21-2.52c.53-.71 1.19-1.27 1.96-1.66a6 6 0 0 1 2.71-.59c.71 0 1.36.11 1.95.33.58.21 1.08.55 1.51 1.01.42.45.74 1.05.96 1.78a8.6 8.6 0 0 1 .35 2.61v10.88h-5.08v-10.24c0-.69-.08-1.22-.24-1.57-.15-.35-.37-.59-.66-.71a2.8 2.8 0 0 0-1.07-.18c-.44 0-.84.1-1.19.3s-.65.48-.91.84c-.24.35-.43.77-.56 1.25-.12.48-.18 1.01-.18 1.58zm9.32 0l-1.42.03c0-1.15.13-2.2.38-3.17.26-.97.65-1.8 1.16-2.52a5.4 5.4 0 0 1 1.94-1.66 5.9 5.9 0 0 1 2.7-.59 6.1 6.1 0 0 1 2.05.33c.62.22 1.16.58 1.61 1.07s.8 1.15 1.06 1.96c.25.8.38 1.8.38 2.99v10.27h-5.1v-10.27c0-.67-.08-1.18-.24-1.52-.15-.35-.37-.59-.66-.71-.29-.13-.64-.2-1.04-.2-.48 0-.9.1-1.25.3s-.65.48-.89.84a3.8 3.8 0 0 0-.51 1.25c-.11.48-.17 1.01-.17 1.58zm-70.2 36.5v42.21h-10.18V313.6h10.18zm12.7 0v7.86h-35.28v-7.86h35.28zm13.42-2.32v44.53h-9.77v-44.53h9.77zm-1.16 27.77l-2.29.06c0-2.2.27-4.23.81-6.09s1.31-3.47 2.32-4.84 2.21-2.44 3.62-3.19a9.8 9.8 0 0 1 4.7-1.13 12.8 12.8 0 0 1 4.23.67c1.29.45 2.41 1.16 3.33 2.15a9.7 9.7 0 0 1 2.17 3.86 18.7 18.7 0 0 1 .78 5.8v19.48h-9.83v-19.54c0-1.28-.18-2.26-.55-2.96-.35-.71-.85-1.21-1.51-1.48-.66-.29-1.46-.44-2.41-.44-1.14 0-2.07.19-2.78.58s-1.27.93-1.65 1.62c-.37.68-.62 1.48-.75 2.41a21.2 21.2 0 0 0-.2 3.04zm40.3 17.34c-2.55 0-4.83-.4-6.84-1.19a14.9 14.9 0 0 1-5.1-3.33 14.8 14.8 0 0 1-3.16-4.87 15.9 15.9 0 0 1-1.07-5.83v-1.1c0-2.3.32-4.43.96-6.38a14.9 14.9 0 0 1 2.84-5.16 12.7 12.7 0 0 1 4.73-3.42c1.89-.83 4.1-1.25 6.61-1.25 2.22 0 4.21.36 5.97 1.07s3.25 1.74 4.47 3.07a13.2 13.2 0 0 1 2.81 4.84c.66 1.89.99 4.02.99 6.38v3.97h-25.63v-6.12h16.09v-.75c.02-1.04-.16-1.93-.55-2.67a3.8 3.8 0 0 0-1.62-1.68c-.71-.39-1.58-.58-2.61-.58-1.06 0-1.94.23-2.64.7-.68.46-1.21 1.1-1.59 1.91-.37.79-.63 1.71-.78 2.75s-.23 2.15-.23 3.31v1.1c0 1.16.16 2.21.46 3.16.33.95.79 1.76 1.39 2.44.62.66 1.35 1.17 2.2 1.54.87.37 1.86.55 2.96.55 1.33 0 2.65-.25 3.94-.75s2.41-1.33 3.33-2.49l4.44 5.28a11.5 11.5 0 0 1-2.72 2.64c-1.16.85-2.55 1.55-4.18 2.09a17.8 17.8 0 0 1-5.45.78zm-49.98 47.47v1.71c0 3.23-.45 6.13-1.36 8.7a18.9 18.9 0 0 1-3.8 6.55c-1.64 1.8-3.59 3.18-5.83 4.15a18.9 18.9 0 0 1-7.42 1.42c-2.73 0-5.22-.47-7.48-1.42-2.24-.97-4.19-2.35-5.86-4.15-1.64-1.82-2.92-4-3.83-6.55-.89-2.57-1.33-5.47-1.33-8.7v-1.71c0-3.23.45-6.13 1.33-8.7.91-2.57 2.17-4.75 3.8-6.55 1.64-1.82 3.59-3.2 5.83-4.15 2.26-.97 4.75-1.45 7.48-1.45 2.71 0 5.18.48 7.42 1.45a16.3 16.3 0 0 1 5.86 4.15 18.9 18.9 0 0 1 3.83 6.55c.91 2.57 1.36 5.47 1.36 8.7zm-10.32 1.71v-1.77a24.6 24.6 0 0 0-.55-5.51c-.35-1.6-.87-2.95-1.57-4.03s-1.55-1.89-2.58-2.44c-1-.56-2.16-.84-3.45-.84-1.35 0-2.53.28-3.54.84-1.01.54-1.85 1.35-2.52 2.44a12.6 12.6 0 0 0-1.54 4.03 27.4 27.4 0 0 0-.49 5.51v1.77c0 2.07.17 3.9.49 5.51.35 1.59.86 2.93 1.54 4.03.7 1.1 1.55 1.93 2.55 2.49a7.3 7.3 0 0 0 3.57.84c1.29 0 2.44-.28 3.45-.84s1.85-1.39 2.52-2.49c.7-1.1 1.22-2.44 1.57-4.03.37-1.6.55-3.44.55-5.51zm27.11 20.24h-9.83v-33.92c0-2.44.49-4.48 1.48-6.15a9.4 9.4 0 0 1 4.17-3.77 14.5 14.5 0 0 1 6.38-1.3c.85 0 1.65.06 2.41.17l2.2.44.03 7.19c-.35-.1-.7-.16-1.07-.2s-.82-.06-1.36-.06c-.95 0-1.75.15-2.41.44a3.1 3.1 0 0 0-1.51 1.25c-.33.54-.49 1.21-.49 2v33.92zm6.09-31.37v6.79h-20.44v-6.79h20.44zm15.48 31.37h-9.83v-33.92c0-2.44.49-4.48 1.48-6.15a9.4 9.4 0 0 1 4.17-3.77 14.5 14.5 0 0 1 6.38-1.3c.85 0 1.65.06 2.41.17l2.2.44.03 7.19a6.7 6.7 0 0 0-1.07-.2c-.37-.04-.82-.06-1.36-.06-.95 0-1.75.15-2.41.44a3.1 3.1 0 0 0-1.51 1.25c-.33.54-.49 1.21-.49 2v33.92zm6.09-31.37v6.79h-20.44v-6.79h20.44zm18 31.95c-2.55 0-4.83-.4-6.84-1.19a14.9 14.9 0 0 1-5.1-3.33 14.8 14.8 0 0 1-3.16-4.87 15.9 15.9 0 0 1-1.07-5.83v-1.1c0-2.3.32-4.43.96-6.38a14.9 14.9 0 0 1 2.84-5.16 12.7 12.7 0 0 1 4.72-3.42c1.89-.83 4.1-1.25 6.61-1.25 2.22 0 4.21.36 5.97 1.07s3.25 1.74 4.46 3.07a13.2 13.2 0 0 1 2.81 4.84c.66 1.89.99 4.02.99 6.38v3.97H207.7v-6.12h16.09v-.75c.02-1.04-.16-1.93-.55-2.67a3.8 3.8 0 0 0-1.62-1.68c-.72-.39-1.59-.58-2.61-.58-1.06 0-1.94.23-2.64.7-.68.46-1.21 1.1-1.59 1.91-.37.79-.63 1.71-.78 2.75a22.5 22.5 0 0 0-.23 3.31v1.1c0 1.16.15 2.21.46 3.16.33.95.79 1.76 1.39 2.44a6.6 6.6 0 0 0 2.2 1.54c.87.37 1.85.55 2.96.55 1.33 0 2.65-.25 3.94-.75a7.9 7.9 0 0 0 3.33-2.49l4.44 5.28c-.64.91-1.55 1.79-2.73 2.64-1.16.85-2.55 1.55-4.17 2.09a17.8 17.8 0 0 1-5.45.78zm27.02-24.18v23.6h-9.77v-31.37h9.13l.64 7.77zm9.28-8l-.17 9.07-1.57-.14-1.65-.09c-1.14 0-2.13.14-2.96.41a5 5 0 0 0-2.03 1.16c-.52.5-.91 1.14-1.16 1.91-.23.77-.34 1.67-.32 2.7l-1.77-1.16c0-2.11.2-4.02.61-5.74a15.6 15.6 0 0 1 1.8-4.49c.77-1.28 1.71-2.25 2.81-2.93a6.8 6.8 0 0 1 3.71-1.04c.48 0 .96.03 1.42.09.48.06.91.14 1.28.26zm53.87-10.61v42.21h-10.15l-14.93-26.27v26.27h-10.18V383.6h10.18l14.93 26.27V383.6h10.15zm4.75 26.85v-.61a19.6 19.6 0 0 1 .99-6.35c.66-1.95 1.62-3.64 2.9-5.07s2.85-2.54 4.73-3.33c1.88-.81 4.04-1.22 6.49-1.22 2.47 0 4.65.41 6.52 1.22 1.89.79 3.48 1.9 4.75 3.33s2.24 3.12 2.9 5.07a19.6 19.6 0 0 1 .99 6.35v.61c0 2.28-.33 4.4-.99 6.35a14.8 14.8 0 0 1-2.9 5.07c-1.27 1.43-2.85 2.54-4.73 3.33s-4.04 1.19-6.5 1.19a16.8 16.8 0 0 1-6.52-1.19c-1.89-.79-3.48-1.9-4.75-3.33a14.8 14.8 0 0 1-2.9-5.07c-.66-1.95-.99-4.07-.99-6.35zm9.77-.61v.61c0 1.18.09 2.28.26 3.31a9 9 0 0 0 .87 2.7c.41.75.96 1.34 1.65 1.77s1.57.64 2.61.64c1.03 0 1.88-.21 2.55-.64.7-.43 1.25-1.01 1.65-1.77a9 9 0 0 0 .87-2.7c.17-1.02.26-2.13.26-3.31v-.61c0-1.14-.09-2.21-.26-3.22a9 9 0 0 0-.87-2.7c-.41-.79-.96-1.41-1.65-1.86s-1.57-.67-2.61-.67a4.7 4.7 0 0 0-2.58.67c-.68.44-1.22 1.06-1.62 1.86a9 9 0 0 0-.87 2.7c-.17 1-.26 2.08-.26 3.22zm43.92-6v7.57h-17.42v-7.57h17.42zM392.84 417c0-.54-.18-1-.55-1.39a4.5 4.5 0 0 0-1.86-1.1c-.89-.35-2.14-.7-3.74-1.04a26.7 26.7 0 0 1-4.32-1.31 14.9 14.9 0 0 1-3.51-1.97 8.7 8.7 0 0 1-2.38-2.75c-.56-1.06-.84-2.28-.84-3.65 0-1.33.28-2.59.84-3.77.58-1.2 1.42-2.25 2.52-3.16a12.3 12.3 0 0 1 4.09-2.18 17.1 17.1 0 0 1 5.48-.81c2.82 0 5.26.44 7.31 1.3 2.05.85 3.62 2.05 4.73 3.59 1.12 1.53 1.68 3.3 1.68 5.31h-9.77c0-.79-.14-1.47-.41-2.03-.25-.56-.67-.99-1.25-1.27-.58-.31-1.35-.46-2.32-.46-.68 0-1.3.13-1.86.38-.54.25-.98.6-1.3 1.04s-.49.97-.49 1.57c0 .43.1.81.29 1.16.21.33.53.64.96.93.43.27.97.52 1.62.75a19.5 19.5 0 0 0 2.38.58 32.4 32.4 0 0 1 5.91 1.65c1.84.72 3.32 1.73 4.46 3.05 1.16 1.31 1.74 3.08 1.74 5.31 0 1.39-.32 2.68-.96 3.86a9.6 9.6 0 0 1-2.75 3.07c-1.2.87-2.64 1.55-4.32 2.03s-3.58.72-5.68.72c-3 0-5.53-.53-7.6-1.59-2.07-1.08-3.63-2.44-4.7-4.06-1.04-1.64-1.56-3.3-1.56-4.99h9.1c.04.97.27 1.76.7 2.38a3.9 3.9 0 0 0 1.77 1.36 6.9 6.9 0 0 0 2.55.44c.89 0 1.62-.12 2.2-.38.6-.25 1.05-.59 1.36-1.01.31-.44.46-.96.46-1.54zm23.57-35.72v44.53h-9.77v-44.53h9.77zm-1.16 27.77l-2.29.06c0-2.2.27-4.23.81-6.09s1.31-3.47 2.32-4.84 2.21-2.44 3.62-3.19a9.8 9.8 0 0 1 4.7-1.13 12.8 12.8 0 0 1 4.23.67c1.3.45 2.41 1.16 3.33 2.15a9.7 9.7 0 0 1 2.18 3.86 18.7 18.7 0 0 1 .78 5.8v19.48h-9.83v-19.54c0-1.28-.18-2.26-.55-2.96-.35-.71-.85-1.21-1.51-1.48-.66-.29-1.46-.44-2.41-.44-1.14 0-2.07.19-2.78.58s-1.27.93-1.65 1.62c-.37.68-.62 1.48-.75 2.41a21.2 21.2 0 0 0-.2 3.04zm23.89 1.39v-.61a19.6 19.6 0 0 1 .99-6.35c.66-1.95 1.62-3.64 2.9-5.07s2.85-2.54 4.73-3.33c1.88-.81 4.04-1.22 6.49-1.22a16.3 16.3 0 0 1 6.52 1.22 13 13 0 0 1 4.75 3.33c1.28 1.43 2.24 3.12 2.9 5.07a19.6 19.6 0 0 1 .99 6.35v.61a19.8 19.8 0 0 1-.99 6.35 14.8 14.8 0 0 1-2.9 5.07c-1.28 1.43-2.85 2.54-4.73 3.33s-4.04 1.19-6.49 1.19a16.8 16.8 0 0 1-6.52-1.19 13 13 0 0 1-4.75-3.33 14.8 14.8 0 0 1-2.9-5.07 19.8 19.8 0 0 1-.99-6.35zm9.77-.61v.61c0 1.18.09 2.28.26 3.31a9 9 0 0 0 .87 2.7c.41.75.96 1.34 1.65 1.77s1.56.64 2.61.64a4.7 4.7 0 0 0 2.55-.64c.7-.43 1.25-1.01 1.65-1.77a9 9 0 0 0 .87-2.7c.17-1.02.26-2.13.26-3.31v-.61c0-1.14-.09-2.21-.26-3.22a9 9 0 0 0-.87-2.7c-.41-.79-.96-1.41-1.65-1.86s-1.56-.67-2.61-.67a4.7 4.7 0 0 0-2.58.67c-.68.44-1.22 1.06-1.62 1.86a9 9 0 0 0-.87 2.7c-.17 1-.26 2.08-.26 3.22zm34.38 6.64l5.8-22.03h6.12l-2.17 11.05-5.74 20.32h-4.9l.9-9.34zM481 394.44l3.6 21.86.41 9.51h-5.94l-7.42-31.37H481zm19.37 21.4l3.62-21.4h9.36l-7.36 31.37h-5.94l.32-9.97zm-4.46-21.4l5.86 21.98.9 9.39h-4.96l-5.62-20.26-2.09-11.1h5.91zM127.01 453.6h8.29l9.42 29.37 9.42-29.37h8.29l-14.35 42.21h-6.73l-14.35-42.21zm-5.05 0h8.58l1.59 32.35v9.86h-10.18V453.6zm36.94 0h8.61v42.21h-10.21v-9.86l1.59-32.35zm24.3 38.53l8.12-27.69h10.5l-12.61 36.04a22 22 0 0 1-1.07 2.55 10.6 10.6 0 0 1-1.83 2.64 8.7 8.7 0 0 1-2.99 2.03 11.2 11.2 0 0 1-4.47.78c-.95 0-1.64-.05-2.09-.15l-1.97-.44v-6.99h.64.64a7.9 7.9 0 0 0 2.49-.32c.64-.21 1.12-.52 1.45-.93.35-.41.62-.9.81-1.48l2.38-6.06zm-2.06-27.69l6.18 21.95 1.07 10.35h-6.55l-11.16-32.3h10.47zM220.8 487c0-.54-.18-1-.55-1.39a4.5 4.5 0 0 0-1.86-1.1 25.7 25.7 0 0 0-3.74-1.04c-1.53-.33-2.97-.76-4.32-1.31a14.9 14.9 0 0 1-3.51-1.97c-1-.77-1.8-1.69-2.38-2.75-.56-1.06-.84-2.28-.84-3.65 0-1.33.28-2.59.84-3.77.58-1.2 1.42-2.25 2.52-3.16a12.3 12.3 0 0 1 4.09-2.18 17.1 17.1 0 0 1 5.48-.81c2.82 0 5.26.44 7.31 1.3 2.05.85 3.62 2.05 4.73 3.59 1.12 1.53 1.68 3.3 1.68 5.31h-9.77c0-.79-.13-1.47-.41-2.03-.25-.56-.67-.99-1.25-1.27-.58-.31-1.35-.46-2.32-.46-.68 0-1.29.13-1.85.38-.54.25-.98.6-1.31 1.04s-.49.97-.49 1.57c0 .43.1.81.29 1.16a3.4 3.4 0 0 0 .96.93 8 8 0 0 0 1.62.75c.66.21 1.45.41 2.38.58a32.4 32.4 0 0 1 5.91 1.65c1.84.72 3.32 1.73 4.47 3.05 1.16 1.31 1.74 3.08 1.74 5.31 0 1.39-.32 2.68-.96 3.86a9.6 9.6 0 0 1-2.75 3.07c-1.2.87-2.64 1.55-4.32 2.03s-3.58.72-5.68.72c-3 0-5.53-.53-7.6-1.59-2.07-1.08-3.63-2.44-4.7-4.06a9.2 9.2 0 0 1-1.57-4.99h9.1c.04.97.27 1.76.7 2.38a3.9 3.9 0 0 0 1.77 1.36 6.9 6.9 0 0 0 2.55.44c.89 0 1.62-.12 2.2-.38.6-.25 1.05-.59 1.36-1.01.31-.44.46-.96.46-1.54zm30.53-22.56v6.79h-18.9v-6.79h18.9zm-14.93-7.8h9.77v28.93a5.2 5.2 0 0 0 .29 1.94c.19.44.52.76.99.96.48.17 1.12.26 1.91.26l1.39-.03 1.04-.14v6.99a16.1 16.1 0 0 1-2.61.61c-.91.15-1.87.23-2.9.23-2.09 0-3.87-.33-5.36-.99a7 7 0 0 1-3.36-3.1c-.77-1.41-1.16-3.25-1.16-5.51v-30.15zm34.01 39.75c-2.55 0-4.83-.4-6.84-1.19a14.9 14.9 0 0 1-5.1-3.33 14.8 14.8 0 0 1-3.16-4.87 15.9 15.9 0 0 1-1.07-5.83v-1.1c0-2.3.32-4.43.96-6.38a14.9 14.9 0 0 1 2.84-5.16 12.7 12.7 0 0 1 4.73-3.42c1.89-.83 4.1-1.25 6.61-1.25 2.22 0 4.21.36 5.97 1.07s3.25 1.74 4.46 3.07a13.2 13.2 0 0 1 2.81 4.84c.66 1.89.99 4.02.99 6.38v3.97h-25.63v-6.12h16.09v-.75c.02-1.04-.17-1.93-.55-2.67a3.8 3.8 0 0 0-1.62-1.68c-.72-.39-1.59-.58-2.61-.58-1.06 0-1.94.23-2.64.7-.68.46-1.21 1.1-1.6 1.91-.37.79-.63 1.71-.78 2.75s-.23 2.15-.23 3.31v1.1c0 1.16.16 2.21.46 3.16.33.95.79 1.76 1.39 2.44.62.66 1.35 1.17 2.2 1.54.87.37 1.86.55 2.96.55 1.33 0 2.65-.25 3.94-.75s2.41-1.33 3.33-2.49l4.44 5.28a11.5 11.5 0 0 1-2.72 2.64c-1.16.85-2.55 1.55-4.18 2.09a17.8 17.8 0 0 1-5.45.78zm27.02-24.18v23.6h-9.77v-31.37h9.13l.64 7.77zm9.28-8l-.17 9.07-1.56-.14-1.65-.09c-1.14 0-2.13.14-2.96.41a5 5 0 0 0-2.03 1.16c-.52.5-.91 1.14-1.16 1.91-.23.77-.34 1.67-.32 2.7l-1.77-1.16c0-2.11.2-4.02.61-5.74.43-1.74 1.03-3.24 1.8-4.49.77-1.28 1.71-2.25 2.81-2.93a6.8 6.8 0 0 1 3.71-1.04c.48 0 .96.03 1.42.09.48.06.91.14 1.27.26zm13.51 27.92l8.12-27.69h10.5l-12.61 36.04a22.2 22.2 0 0 1-1.07 2.55 10.6 10.6 0 0 1-1.83 2.64c-.77.83-1.77 1.51-2.99 2.03a11.2 11.2 0 0 1-4.46.78c-.95 0-1.64-.05-2.09-.15l-1.97-.44v-6.99h.64.64a7.9 7.9 0 0 0 2.49-.32c.64-.21 1.12-.52 1.45-.93.35-.41.62-.9.81-1.48l2.38-6.06zm-2.06-27.69l6.18 21.95 1.07 10.35h-6.55l-11.16-32.3h10.47z" fill="#5b5b5b"/><g filter="url(#G)"><path d="M323 71.25a11.9 11.9 0 0 0-11.87-11.87H0v89.06h311.13A11.9 11.9 0 0 0 323 136.56V71.25z" fill="#3886e7"/><path d="M49.82 90.8v25.33h-6.11V90.8h6.11zm7.62 0v4.71H36.27V90.8h21.17zm8.05-1.39v26.72h-5.86V89.41h5.86zm-.7 16.66l-1.37.03a13 13 0 0 1 .49-3.65c.32-1.11.79-2.08 1.39-2.91s1.33-1.46 2.17-1.91a5.9 5.9 0 0 1 2.82-.68c.93 0 1.77.13 2.54.4a4.9 4.9 0 0 1 2 1.29 5.8 5.8 0 0 1 1.3 2.31 11.2 11.2 0 0 1 .47 3.48v11.69h-5.9V104.4c0-.77-.11-1.36-.33-1.77-.21-.43-.51-.72-.9-.89-.39-.17-.88-.26-1.44-.26a3.5 3.5 0 0 0-1.67.35c-.43.23-.76.56-.99.97a4.3 4.3 0 0 0-.45 1.44 12.7 12.7 0 0 0-.12 1.83zm24.18 10.4c-1.53 0-2.9-.24-4.11-.71-1.21-.49-2.23-1.15-3.06-2-.82-.85-1.46-1.82-1.9-2.92-.43-1.1-.64-2.27-.64-3.5v-.66c0-1.38.19-2.66.57-3.83.38-1.18.95-2.21 1.7-3.1a7.6 7.6 0 0 1 2.84-2.05 9.8 9.8 0 0 1 3.97-.75c1.33 0 2.53.21 3.58.64a7.3 7.3 0 0 1 2.68 1.84c.74.8 1.3 1.77 1.69 2.9.39 1.14.59 2.41.59 3.83v2.38H81.51v-3.67h9.65v-.45c.01-.63-.1-1.16-.33-1.6-.22-.44-.55-.78-.97-1.01s-.95-.35-1.57-.35a2.8 2.8 0 0 0-1.58.42c-.41.28-.72.66-.96 1.15a6 6 0 0 0-.47 1.65c-.09.63-.14 1.29-.14 1.98v.66a6.1 6.1 0 0 0 .28 1.9 4.3 4.3 0 0 0 .83 1.46c.37.39.81.7 1.32.92.52.22 1.11.33 1.77.33a6.5 6.5 0 0 0 2.37-.45c.78-.3 1.44-.8 2-1.5l2.66 3.17a6.9 6.9 0 0 1-1.64 1.58c-.7.51-1.53.93-2.5 1.25-.97.31-2.06.47-3.27.47zm33.85-8.92h6.09a9.2 9.2 0 0 1-1.43 4.66 8.8 8.8 0 0 1-3.62 3.15c-1.53.74-3.34 1.11-5.43 1.11a11.5 11.5 0 0 1-4.54-.85c-1.32-.57-2.45-1.39-3.37-2.45-.92-1.07-1.62-2.36-2.11-3.88-.48-1.52-.71-3.23-.71-5.13v-1.37a16.4 16.4 0 0 1 .75-5.13 11.3 11.3 0 0 1 2.16-3.9c.94-1.08 2.06-1.9 3.38-2.47s2.77-.85 4.37-.85c2.2 0 4.06.39 5.58 1.18a8.7 8.7 0 0 1 3.53 3.25 10.6 10.6 0 0 1 1.48 4.68h-6.09a5.9 5.9 0 0 0-.49-2.38 3 3 0 0 0-1.43-1.46c-.65-.32-1.51-.49-2.59-.49-.75 0-1.41.14-1.97.42s-1.02.72-1.39 1.32a7 7 0 0 0-.83 2.35c-.17.95-.26 2.1-.26 3.44v1.41c0 1.34.08 2.49.24 3.44s.42 1.73.78 2.33.82 1.05 1.39 1.34a4.9 4.9 0 0 0 2.12.42c.93 0 1.71-.14 2.35-.43a3.3 3.3 0 0 0 1.48-1.36 5 5 0 0 0 .56-2.35zm7.97-.64v-.37c0-1.38.2-2.65.59-3.81.39-1.17.97-2.19 1.74-3.04a7.8 7.8 0 0 1 2.84-2c1.13-.49 2.42-.73 3.9-.73 1.48 0 2.79.24 3.91.73a7.8 7.8 0 0 1 2.85 2c.77.86 1.34 1.87 1.74 3.04.39 1.16.59 2.43.59 3.81v.37c0 1.37-.2 2.64-.59 3.81-.39 1.16-.97 2.17-1.74 3.04-.77.86-1.71 1.53-2.84 2s-2.42.71-3.9.71-2.78-.24-3.91-.71a7.8 7.8 0 0 1-2.85-2c-.76-.87-1.34-1.88-1.74-3.04-.39-1.17-.59-2.44-.59-3.81zm5.86-.37v.37a11.8 11.8 0 0 0 .16 1.98 5.4 5.4 0 0 0 .52 1.62c.24.45.57.81.99 1.06s.94.38 1.57.38c.61 0 1.13-.13 1.53-.38.42-.26.75-.61.99-1.06a5.4 5.4 0 0 0 .52-1.62 11.9 11.9 0 0 0 .16-1.98v-.37c0-.68-.05-1.33-.16-1.93a5.4 5.4 0 0 0-.52-1.62 2.8 2.8 0 0 0-.99-1.11c-.42-.27-.94-.4-1.57-.4-.61 0-1.13.13-1.55.4-.41.27-.73.64-.97 1.11a5.4 5.4 0 0 0-.52 1.62c-.11.6-.16 1.25-.16 1.93zm20.67-5.22v14.8h-5.86V97.3h5.5l.37 4.02zm-.7 4.75l-1.37.03a13 13 0 0 1 .52-3.84 8.5 8.5 0 0 1 1.48-2.89 6.3 6.3 0 0 1 2.28-1.79c.89-.42 1.88-.63 2.97-.63a7.1 7.1 0 0 1 2.38.38c.73.26 1.36.67 1.88 1.24.53.57.94 1.32 1.22 2.26a11.7 11.7 0 0 1 .44 3.44v11.85h-5.9v-11.86c0-.75-.1-1.33-.31-1.72-.21-.41-.51-.68-.91-.83s-.88-.23-1.44-.23c-.6 0-1.11.12-1.53.35a2.7 2.7 0 0 0-1.01.97 4.6 4.6 0 0 0-.54 1.44c-.1.56-.16 1.17-.16 1.83zm23 5.88a3 3 0 0 0 1.39-.3c.39-.21.69-.5.89-.87a2.7 2.7 0 0 0 .29-1.37h5.52a6.5 6.5 0 0 1-1.04 3.72c-.7 1.06-1.65 1.88-2.85 2.47-1.19.58-2.54.87-4.05.87a9.7 9.7 0 0 1-3.86-.71c-1.1-.49-2.02-1.16-2.76-2.02a8.9 8.9 0 0 1-1.65-3.04 12.7 12.7 0 0 1-.54-3.77v-.4a12.7 12.7 0 0 1 .54-3.77c.37-1.17.92-2.19 1.65-3.04a7.5 7.5 0 0 1 2.75-2.02c1.1-.49 2.38-.73 3.84-.73a9.2 9.2 0 0 1 4.14.89 6.7 6.7 0 0 1 2.84 2.57c.68 1.13 1.02 2.49 1.01 4.09h-5.52a3.8 3.8 0 0 0-.26-1.53c-.19-.45-.48-.81-.87-1.08-.38-.28-.88-.42-1.48-.42s-1.09.13-1.46.4-.66.64-.85 1.11c-.19.46-.31 1-.38 1.6l-.09 1.93v.4l.09 1.97a5.8 5.8 0 0 0 .4 1.6c.2.45.48.81.85 1.08.37.25.86.38 1.48.38zm16.79-22.54v26.72h-5.88V89.41h5.88zm14.61 22.14V97.3h5.88v18.82h-5.5l-.38-4.58zm.56-3.83l1.53-.03a13 13 0 0 1-.45 3.51 8.4 8.4 0 0 1-1.34 2.78 6.1 6.1 0 0 1-2.16 1.84c-.85.43-1.83.64-2.94.64-.93 0-1.78-.13-2.56-.38-.77-.27-1.43-.68-1.98-1.23-.56-.57-.99-1.29-1.31-2.17-.3-.89-.45-1.96-.45-3.2V97.3h5.86v12.21a3.3 3.3 0 0 0 .16 1.08 2.1 2.1 0 0 0 .45.77c.2.2.44.35.73.45a3.5 3.5 0 0 0 1.03.14 3.4 3.4 0 0 0 2.07-.56 2.9 2.9 0 0 0 1.04-1.51c.21-.64.31-1.36.31-2.16zm18.42 3.11c0-.33-.11-.6-.33-.84-.21-.24-.58-.46-1.11-.66-.53-.21-1.28-.42-2.24-.63-.92-.2-1.78-.46-2.59-.78-.8-.33-1.5-.72-2.1-1.18s-1.08-1.02-1.43-1.65c-.34-.64-.5-1.37-.5-2.19a5.2 5.2 0 0 1 .5-2.26 5.6 5.6 0 0 1 1.51-1.9c.67-.56 1.49-.99 2.45-1.3.96-.32 2.06-.49 3.29-.49 1.69 0 3.15.26 4.38.78 1.23.51 2.17 1.23 2.84 2.16.67.92 1.01 1.98 1.01 3.18h-5.86c0-.48-.08-.88-.24-1.22-.15-.34-.4-.59-.75-.77-.35-.19-.81-.28-1.39-.28a2.7 2.7 0 0 0-1.11.23 2 2 0 0 0-.78.63c-.2.27-.3.58-.3.94 0 .26.06.49.17.7.13.2.32.38.57.56.25.16.58.31.97.45.39.13.87.24 1.43.35 1.26.23 2.45.56 3.55.99a6.7 6.7 0 0 1 2.68 1.83c.69.79 1.04 1.85 1.04 3.18a4.8 4.8 0 0 1-.57 2.31c-.38.69-.93 1.31-1.65 1.84-.72.52-1.58.93-2.59 1.22s-2.14.44-3.41.44c-1.8 0-3.32-.32-4.56-.96-1.24-.65-2.18-1.46-2.82-2.44-.63-.99-.94-1.98-.94-2.99h5.46c.02.58.16 1.06.42 1.43.27.37.62.64 1.06.82s.95.26 1.53.26c.53 0 .97-.08 1.32-.23.36-.15.63-.35.82-.61.19-.27.28-.57.28-.92zm14.59-13.53v18.82h-5.88V97.3h5.88zm-6.23-4.85c0-.84.3-1.52.9-2.05s1.39-.8 2.35-.8 1.75.27 2.35.8.91 1.22.91 2.05-.3 1.52-.91 2.05-1.39.8-2.35.8-1.74-.27-2.35-.8-.9-1.22-.9-2.05zm9.12 14.46v-.37c0-1.38.2-2.65.59-3.81.4-1.17.97-2.19 1.74-3.04a7.8 7.8 0 0 1 2.84-2c1.13-.49 2.42-.73 3.9-.73 1.48 0 2.79.24 3.91.73a7.8 7.8 0 0 1 2.85 2c.77.86 1.35 1.87 1.74 3.04.39 1.16.59 2.43.59 3.81v.37c0 1.37-.2 2.64-.59 3.81-.39 1.16-.97 2.17-1.74 3.04a7.8 7.8 0 0 1-2.83 2c-1.12.47-2.42.71-3.9.71s-2.78-.24-3.91-.71a7.8 7.8 0 0 1-2.85-2c-.77-.87-1.34-1.88-1.74-3.04-.39-1.17-.59-2.44-.59-3.81zm5.86-.37v.37a11.8 11.8 0 0 0 .16 1.98 5.4 5.4 0 0 0 .52 1.62c.24.45.57.81.99 1.06s.94.38 1.57.38c.61 0 1.12-.13 1.53-.38.42-.26.75-.61.99-1.06.24-.46.42-1 .52-1.62a11.9 11.9 0 0 0 .16-1.98v-.37c0-.68-.05-1.33-.16-1.93-.1-.61-.28-1.15-.52-1.62a2.8 2.8 0 0 0-.99-1.11c-.42-.27-.94-.4-1.57-.4-.61 0-1.13.13-1.55.4-.41.27-.73.64-.97 1.11a5.4 5.4 0 0 0-.52 1.62c-.1.6-.16 1.25-.16 1.93zm20.66-5.22v14.8h-5.86V97.3h5.5l.36 4.02zm-.69 4.75l-1.37.03a13 13 0 0 1 .52-3.84 8.5 8.5 0 0 1 1.48-2.89 6.3 6.3 0 0 1 2.28-1.79c.89-.42 1.88-.63 2.97-.63a7.1 7.1 0 0 1 2.38.38c.73.26 1.36.67 1.88 1.24.53.57.94 1.32 1.22 2.26a11.7 11.7 0 0 1 .44 3.44v11.85h-5.9v-11.86c0-.75-.1-1.33-.31-1.72-.21-.41-.51-.68-.9-.83s-.88-.23-1.44-.23c-.6 0-1.11.12-1.53.35s-.75.56-1.01.97c-.24.41-.42.89-.54 1.44-.1.56-.16 1.17-.16 1.83z" class="B"/></g><g clip-path="url(#X)"><g class="K"><path d="M797.7 410.16l-5.87-.07-10.71-4.71.35-.79 10.53 4.63 5.7.07v.87z"/><path d="M807.34 409.82c0 1.02-.84 1.85-1.88 1.82l-9.02-.12a1.9 1.9 0 0 1-1.88-1.88c0-1.03.84-1.85 1.88-1.83l9.02.12a1.9 1.9 0 0 1 1.88 1.88v.02z"/></g><path d="M787.38 421.91l-7.37-.08v-18.49l9.92.15v15.95a2.5 2.5 0 0 1-2.54 2.48v-.01z" fill="#404360"/><path d="M806.32 376.66v-14.94c0-9.11 3.78-17.17 2.63-42.65l-2.18-40.85c-.25-4.06-3.66-7.36-7.79-7.55l-63.7-2.79a7.4 7.4 0 0 0-7.79 7.92l2.12 40.63c1.15 25.92-2.63 34.12-2.63 43.39v15.19l79.33 1.63h.01z" fill="#64667a"/><path d="M814.69 376.82v-14.91c0-9.1 3.78-17.14 2.63-42.57l-2.18-40.78c-.25-4.05-3.66-7.35-7.79-7.53l-63.7-2.79a7.4 7.4 0 0 0-7.79 7.91l2.12 40.56c1.15 25.87-2.63 34.06-2.63 43.31v15.17l79.33 1.63.01-.01z" fill="#7a7d91"/><path d="M731.81 385.82l74.42 1.35v-10.52l-79.24-1.62v5.88c0 2.67 2.16 4.87 4.83 4.92l-.01-.01z" class="L"/><path d="M740.15 385.97l69.6 1.27c2.67.05 4.83-2.03 4.83-4.64v-5.77l-79.24-1.62v5.87c0 2.66 2.16 4.86 4.82 4.91l-.01-.01z" class="K"/><path d="M744.96 397.05l43.3.69c5.45.09 9.88-4.2 9.88-9.58v-1.14l-63.06-1.15v1.16c0 5.45 4.42 9.93 9.88 10.02z" fill="#404360"/><g class="L"><path d="M795.51 403.56l-15.9-.24a5.9 5.9 0 0 1-5.81-5.83l27.51.43c0 3.15-2.6 5.67-5.81 5.62h0z"/><path d="M754.97 397.2l43.3.69a9.6 9.6 0 0 0 9.88-9.55v-1.14l-63.05-1.15v1.15c0 5.44 4.42 9.91 9.88 10z"/></g><path d="M785.49 403.42l-15.9-.24a5.9 5.9 0 0 1-5.81-5.84l27.51.43c0 3.16-2.6 5.68-5.81 5.64z" class="K"/><path d="M784.96 421.88l-7.38-.08c-1.4-.01-2.54-1.15-2.54-2.54v-16l9.92.15v18.47z" class="L"/><g class="K"><path d="M786.51 444.33l-8.4-.05v-22.46l8.4.09v22.42z"/><path d="M835.98 464.35c0 2.85-2.3 5.15-5.12 5.15s-5.12-2.32-5.12-5.16c0-2.18 1.33-4.02 3.23-4.79v-6.91l-38.44-4.39 14.84 6.67.87 1.61v2.92a5.2 5.2 0 0 1 3.4 4.87c0 2.87-2.28 5.18-5.12 5.18s-5.12-2.33-5.12-5.19c0-2.12 1.25-3.94 3.05-4.73v-2l-20.61-10.47-20.61 10.36v2.02c1.79.81 3.05 2.65 3.05 4.78 0 2.88-2.29 5.23-5.12 5.23s-5.12-2.35-5.12-5.24a5.2 5.2 0 0 1 3.4-4.92v-2.94l.87-1.63 14.84-6.59-38.44 4.11v7.06a5.3 5.3 0 0 1 3.23 4.9 5.2 5.2 0 0 1-5.12 5.26 5.2 5.2 0 0 1-5.12-5.28c0-2.23 1.33-4.11 3.23-4.9v-8.66l1.54-1.91 49.38-6.24 49.38 6.68 1.54 1.88v8.47a5.2 5.2 0 0 1 3.23 4.79l-.04.01z"/></g><use href="#Y" stroke="#2a2e44" class="C D Q"/><path d="M846.88 398.66l-92.71-1.46c-5.01-.08-9.07-4.19-9.07-9.18v-6.93a8.8 8.8 0 0 1 9.07-8.84l92.71 1.96c5.01.11 9.07 4.14 9.07 9.01v6.76c0 4.87-4.06 8.75-9.07 8.67z" class="L"/><path d="M837.76 461.13l18.57-.19-3.6-20.36-18.66.09 3.7 20.46z" class="G"/><path d="M854.16 448.69l-18.66-.09-1.43-7.94 18.66-.09 1.43 8.12z" class="H"/><path d="M871.04 469.09s2.3-1.01 1.57-3.81-7.78-4.61-11.14-7.16c-3.52-2.67-7.1-7.95-11.26-7.25-4.15.7-3.76 4.95-2.86 6.82s.71 2.26.71 2.26-10.14-3.51-11.23-4.28-1.68 13.83-1.68 13.83l7.42-.09s-1.01-3.53.25-3.6 3.7 3.55 3.7 3.55l24.54-.27-.01.01z" class="M"/><path d="M864.56 459.94s-2.07-.31-4.38-.29" class="C D F I"/><path d="M875.5 461.2l18.57-.19-3.6-20.19-18.66.09 3.7 20.28z" class="G"/><path d="M891.9 448.87l-18.66-.09-1.43-7.87 18.66-.09 1.43 8.05z" class="H"/><path d="M908.79 469.09s2.3-1.01 1.57-3.78c-.73-2.78-7.78-4.57-11.14-7.11-3.52-2.65-7.1-7.88-11.26-7.19-4.15.69-3.76 4.91-2.85 6.76s.71 2.24.71 2.24-10.14-3.48-11.23-4.24c-1.09-.76-1.68 13.71-1.68 13.71l7.41-.08s-1.01-3.5.25-3.57 3.7 3.52 3.7 3.52l24.54-.28-.01.01z" class="M"/><path d="M902.31 460.01s-2.07-.31-4.38-.28" class="C D F I"/><path d="M895.57 444.64s-7.76.88-19.01.79l-7.22-.21-15.43-64.71s-68.09 8.62-60.56-32.59l8.41-.26c18.12-.42 59.92-.68 69.26 5.08 16.27 9.98 24.54 91.88 24.54 91.88l.01.01z" class="M"/><g style="mix-blend-mode:multiply" opacity=".2"><path d="M876.56 445.42l-7.22-.21-15.43-64.7s-68.09 8.62-60.56-32.59l8.41-.25c.44 3.63 1.8 8.43 4.88 14.49 7.16 14 40.33 11.39 49.82 10.35a2.9 2.9 0 0 1 3.14 2.16l16.94 70.74.01.01z" fill="#301f1e"/></g><path d="M745.12 352.42s4.83 7.13 16.55 7.32c8.48.14 27.74-.21 44.04.31 3.82.12 8.78-1.31 12.08-2.45a6 6 0 0 0 4.06-5.01c.2-1.76.36-3.9.32-5.8-.07-3.81-63.5-2.01-67.85-1.82-4.36.19-9.2 7.46-9.2 7.46z" class="H"/><path d="M869.4 303.06l-5.27 2.58h-.01c-6.15-5.53-5.37-11.51-5.06-12.93l5.36-1.27c-.24 2.36.08 7.03 4.98 11.63z" fill="#fcfcfa"/><path d="M890.96 288.81l-6.61 4.57c-2.08 1.73-6.77 6.43-10.97 6.29 0 0-.5 1.41-4.14 3.24-4.18-3.91-5.25-7.91-4.84-11.48 2.96-.73 3.24-.76 4.4-1.29 5.32-2.35 7.08-4.72 9.72-6.04 2.63-1.31 5.04-2.55 5.46-2.1.12.12.16.39.14.7 0 0 5.21-2.8 6.49-3.03 1.29-.21 1.22 1.39 1.22 1.39s1.72-1 2.61.02c.89 1.03-.21 2.14-1.25 2.75 0 0 .77 1.4-.53 2.29l-1.04.69s.35 1.34-.68 2.03l.01-.02z" class="G"/><g class="C D F I"><path d="M884.13 282.69c-.03.8-.5 1.96-1.25 2.56-1.06.86-3.21 1.94-3.21 1.94s-.13 3.72-3.13 5.89m15.29-12.02s-.07.86-2.38 2.31c-1.82 1.14-7.47 4.1-7.47 4.1m11.21-3.67l-9.9 5.53m8.33-2.56l-7.58 4.23m-10.78 8.59s-1.23-.81-1.83-1.47"/><path d="M881.24 287.1s2.51 1.71 2.62 5.17"/></g><path d="M864.12 305.65c-5.39 2.64-13.6 6.46-18.6 8.52-11.42 4.7-23.12 7.22-32.13-3.05-8.74-9.98-18-27.85-18.57-28.96l-.03-.06 15.85-15.69c4.77 10.07 10.61 22.32 17.73 32.79l30.65-6.5c-.3 1.42-1.07 7.4 5.08 12.94h.01z" class="E"/><path d="M788.95 259.36s16.23.68 20.94 7.77c4.71 7.08 4.06 37.66 5.31 52.11l1.66 21.74s-6.39 3.62-25.88 3.67-36.17-3.34-36.17-3.34 5.56-26.72 3.01-51.5c-2.29-22.3.61-28.23 4.56-29.24 5.39-1.37 11.45-2.73 26.58-1.2v-.01z" class="B"/><path d="M807.98 227.24s-.85 5.71-3.17 6.89-2-7.95-2-7.95l5.17 1.06z" class="H"/><g class="G"><path d="M791.24 215.71c9.26-.14 15.55 4.66 14.92 12.8-.81 10.57 1.38 12.69-.22 17.19-1.75 4.94-6.4 7.31-13.5 7.06-9.27-.34-16.38-6.04-16.17-19.95.19-12.91 7.46-16.97 14.97-17.07v-.02z"/><path d="M797.09 260.59l-.17-8.04-20.26-14.01.88 20.14 13.4 9.78c.66.02 6.14-7.86 6.14-7.86l.01-.01z"/></g><g class="H"><path d="M796.93 252.56l.05 4.3c-10.06.31-13.32-6.32-13.5-6.72 2.55 1.66 5.61 2.48 8.96 2.61a22.6 22.6 0 0 0 4.4-.24l.08.06v-.01zm-20.52-15.92s5.38 1.75 6.29-5.9c0 0 2.23-8.05 12.15-5.05 13.92 4.18 20.15 1.21 20.54-6.53.33-6.76-3.71-10.21-10-10.87-2.89-.3-3.76 1.21-4.45 1.01-1.16-.32-15.99-6.19-22.66 3.91 0 0-10.24 1.57-8.57 15.67.9 7.57 5.84 11.4 7.07 12.43l-.37-4.68z"/></g><path d="M780.89 234.22c.03 2.48-1.58 4.42-3.6 4.35s-3.68-2.16-3.71-4.65c-.03-2.48 1.58-4.44 3.6-4.35s3.68 2.17 3.71 4.65z" class="G"/><g class="C D"><g stroke-width=".29" class="J"><path d="M775.97 232.09s-.74 3.08 2.31 3.93"/><path d="M777.95 232.7s-1.28.54-1.38 2.26"/></g><path d="M799.31 232.13l-.73 2.06 1.14 2.97c.15.38-.13.78-.54.78l-2.62-.05" stroke="#431e19" stroke-width=".24"/><g stroke-width=".59" class="J"><path d="M788.44 230.6s2.47-2.12 4.66-.83m7.84.13s1.47-.81 3.72 1.43"/></g></g><path d="M797.98 240.92s-.14 2.55-1.44 4.25c0 0-5.61.44-5.87-5.07-.01-.19.04-.35.13-.49.25-.41.81-.56 1.27-.25.81.56 2 1.2 3.46 1.47l.4.07c.15.03.27.04.41.04l.42.03a3.1 3.1 0 0 0 .43 0 7.1 7.1 0 0 0 .77-.05z" fill="#431e19"/><path d="M797.32 240.98s-.36 1.06-1.22 1.26c-.81.2-3.33-.2-5.32-2.63.25-.41.81-.56 1.27-.25a9.2 9.2 0 0 0 3.46 1.47c.14.04.28.05.4.07.15.03.27.04.41.04.15.03.28.03.42.03a3.1 3.1 0 0 0 .43 0h.12l.01.01z" class="B"/><path d="M796.13 245.18c-.89-.02-3.06-.24-4.38-1.91 0 0 1.13-.65 2.33-.31 1.6.45 2.06 2.23 2.06 2.23z" fill="#7b2b23"/><g class="H"><path d="M792.97 233.84c.03.8-.62 1.45-1.43 1.43-.82-.02-1.51-.69-1.54-1.49s.62-1.45 1.43-1.43c.82.02 1.51.69 1.54 1.49zm8.04.11c0 .8.67 1.49 1.49 1.53s1.48-.58 1.48-1.38-.67-1.49-1.49-1.53-1.48.58-1.48 1.38z"/></g><g class="E"><path d="M788.61 269.82l-.79 51.69 6.78 7.85 6.66-7.64-8.66-51.79-3.99-.11z"/><path d="M790.79 271.59c-2.52-.07-4.49-3.84-3.79-5 .7-1.16 1.26-2.4 3.26-2.35s2.6 1.34 3.33 2.53c.75 1.2-.54 4.87-2.81 4.81z"/></g><g fill="#ddf0f6"><path d="M797.01 258.4l-6.78 5.89 5.24 3.94s2.02-5.21 2.19-7.65l-.65-2.18v.01z"/><path d="M777.43 256.12l12.81 8.18-5.15 4.53s-2.35-1.77-5.74-5.2c-2.61-2.65-3.79-4.94-3.79-4.94l1.86-2.58z"/></g><path d="M817.32 318.1c3.36 13.19 5.73 27.5 4.54 33.16 0 0-3.98-2.26-7.08-1.51-6.13 1.48-8.55-.29-8.55-.29s3.65-49.76-8.57-88.88c3.29.71 7.57 2.07 11.39 4.22 6.23 3.5 5.35 23.75 5.35 23.75s-.4 16.36 2.94 29.57h-.01z" class="E"/><path d="M806.65 339.37s-19.62.03-27.36-.32l.14 7.66s16.03.84 26.97-.06l.25-7.29v.01z" fill="#ecc565"/><path d="M798.3 347.42l-10.36-.11c-.99-.01-1.81-.81-1.82-1.79l-.09-4.92c-.02-.98.77-1.76 1.76-1.75l10.36.13c.99.01 1.82.81 1.83 1.79l.09 4.91c.02.97-.77 1.76-1.77 1.75v-.01z" fill="#c1554f"/><path d="M756.32 346.91s65.65-2.62 77.68 4.86c16.26 10.06 24.13 93.38 24.13 93.38s-14.25.55-26.21.48l-15.02-65.87s-71.71 12.44-60.57-32.85l-.01.01z" class="M"/><g class="C D"><path d="M816.73 347.86c7.88.81 14.25 2.05 17.26 3.92 5.52 3.42 10.08 15.33 13.68 29.54" class="F I"/><path d="M842.98 445.24l-20.01-75.6a3.5 3.5 0 0 0-3.84-2.53c-11.43 1.55-50.99 5.34-51.21-17.27" stroke="#fff" stroke-width=".39"/></g><path d="M716.73 215.87c.26-2.12 4.73-1.12 4.73-1.12l-3.41 7.41s-1.64-3.77-1.31-6.29z" fill="#141b25"/><path d="M724.02 251.6a8.1 8.1 0 0 0 8.96-8.32l-.94-40.34s1.65-7.62 2.82-10.86l.45.2 1.19-14.77c.2-2.97-.07-3.72-1.27-3.92s-1.95 1.4-2.71 5.32a166.8 166.8 0 0 0-1.26 8.38c-.13-.36-.59-1.42-1.87-1.59-2.16-.28-2.88 1.15-2.88 1.15s-.39-1.12-2.13-.95-1.93 1.25-1.93 1.25-2.44-.25-3.24 1.39c-.88 1.84-2.09 8.01-.29 11.36 1.24 2.3 1.36 3.59 1.01 6.5l-4.06 35.3a9.1 9.1 0 0 0 8.17 9.94v-.02z" class="G"/><g stroke-width=".17" class="C D F"><path d="M732.66 183.98a7.7 7.7 0 0 0 2.54.43m-1.75-5.57a9 9 0 0 0 1.99.36"/></g><g style="mix-blend-mode:multiply" opacity=".3"><path d="M731.6 194.8l-.14.93s-3.88-.45-6.5 1.44c-1.52 1.1-5.37.03-6.08-3.32-.39-1.8-.31-3.05-.31-3.05s.05 2.52 1.38 3.15 2.26-.22 2.29-.94c0 0 .61 1.03 1.85 1.02 1.25 0 1.75-1.25 1.75-1.25s.51 1.1 1.82 1.2c1.31.09 1.34-.53 1.34-.53s.96 1.14 2.6 1.34v.01z" fill="#9d5652"/></g><g stroke-width=".15" class="C D F"><path d="M726.49 186.83s-1.19 5.97-.38 9.52m-3.68-9.24s-.94 4.48.31 8.01c0 0 .69 1.72 2.73.94m-6.89-5.43s-.56 6.01 3.22 4.91m9.49-8.14s-1.7 5.8-1.8 8.27"/><path d="M725.04 191.59s-.94.4-1.94-.04m5.14.18s-.66.06-1.57-.09m-5.34.02s-.97.26-1.94-.04"/></g><path d="M730.67 203.55s4.52-1.42 5.35-5.34c.63-2.96.41-6.29-1.74-6.76-1.98-.43-3.96-2.34-5.58-1.35-1.81 1.11.19 4.43 2.9 4.7l-.14.93s-4.07-.63-6.72 1.62c-2.64 2.25-1.53 5.09 1.24 6 2.77.9 4.68.2 4.68.2z" class="G"/><g stroke-width=".15" class="C D F"><path d="M735.32 192c-1.98-.43-4.97-2.81-6.63-1.89-1.75.96.19 4.43 2.9 4.7l-.14.93s-4.07-.63-6.72 1.62m7.2 5.68s-2.01.54-4.19.23m-.91-.06s-.85-.05-1.36-.2"/></g><path d="M778.38 297.81c-.97-18.78-3.09-39.23-3.09-39.23s-10.43 1.03-18.11.89c-6.81-.12-23.97-11.48-23.97-11.48.08-4.43-.38-9.1-.33-12.39.08-5.99-.46-16.25-.46-16.25s-3.41 8.5-9.51 6.66c-6.09-1.83-6.18-10.15-6.18-10.15s-1.2 14.58-2.9 25.73c-.3 2.02-.51 3.91-.58 5.64 0 0-.84 1.62.34 5.4.36 1.77.99 3.28 1.96 4.5 3.81 7.02 37.81 29.63 37.81 29.63.47 8.06-.81 37.69-3.1 46.94-1.6 7.74-5.05 18.65-5.05 18.65 4.76-4.64 13.28-.48 21.36.15 8.05.62 12.74-3.53 12.74-3.53s.05-32.38-.94-51.17h.01z" class="E"/><g style="mix-blend-mode:multiply" opacity=".3"><path d="M718.64 217.36l-.51 4.38c.89 1.82 2.35 3.55 4.77 4.28 4.95 1.48 8.14-3.84 9.16-5.89-5.66 6.67-12.39.88-13.42-2.77z" fill="#9d5652"/></g><g class="C D"><path d="M759.38 278.62s5.81-13.78-.07-18.98" class="F I"/><path d="M781.75 346.47s5.24 14.12-5.78 16.85" stroke="#fff" stroke-width=".39"/><path d="M811.38 267.92s3.05 5.58 3.05 19.03a188.6 188.6 0 0 0 1.73 25.6" class="F I"/><path d="M727.84 336.45l17.35.51c5.15.15 9.33 4.35 9.33 9.37v40.93" stroke="#2a2e44" class="Q"/></g><mask id="D" class="B"><path d="M1021.25 339.81H665v157.94h356.25V339.81z"/></mask><path d="M1021.25 339.81H665v157.94h356.25V339.81z" fill="#ddecff"/><path d="M665 497.75v1.19h-.59v-1.19h.59zm356.25 0h.59v1.19h-.59v-1.19zM665 339.81h.59v157.94H665h-.59V339.81h.59zm0 157.94v-1.19h356.25v1.19 1.19H665v-1.19zm356.25 0h-.59V339.81h.59.59v157.94h-.59z" mask="url(#D)" class="E"/><mask id="E" class="B"><path d="M1021.25 339.81H665v11.88h356.25v-11.88z"/></mask><path d="M1021.25 339.81H665v11.88h356.25v-11.88z" fill="#82baff"/><path d="M665 351.69v-2.38h356.25v2.38 2.37H665v-2.37z" mask="url(#E)" class="E"/><path d="M953.58 278.14c-9.52 3.18-.58 36.78 10.99 36.78s-.58-40.25-10.99-36.78z" fill="#42756b"/><path d="M955.02 281.61s9.55 19.12 9.55 33.31v9.13" class="C D J N"/><path d="M977.43 292.04c6.69 2.23.4 25.85-7.73 25.85s.4-28.29 7.73-25.85z" fill="#4b8477"/><path d="M976.4 294.47s-6.71 13.43-6.71 23.4v6.41" class="C D J N"/><path d="M952.39 292.04c-6.69 2.23-.4 25.85 7.73 25.85s-.4-28.29-7.73-25.85z" fill="#519074"/><path d="M953.41 294.47s6.71 13.43 6.71 23.4v6.41" class="C D J N"/><path d="M981.3 301.14c4.84 1.61.29 18.68-5.59 18.68s.3-20.45 5.59-18.68z" fill="#519074"/><path d="M980.57 302.91s-4.86 9.71-4.86 16.93v4.63" class="C D J N"/><path d="M973.33 339.74h-13.76c-2.29 0-4.23-1.97-4.44-4.56l-1-11.65h24.64l-1 11.65c-.22 2.59-2.15 4.56-4.44 4.56h.01z" fill="#a55a09"/><path d="M827.25 341.1h70.42v-2.89h-70.42v2.89z" fill="#d5d5d7"/><g class="B"><use href="#Z"/><use href="#a"/><path d="M885.88 338.22h3.29c0-.36-.29-.65-.65-.65h-1.97c-.36 0-.65.29-.65.65h-.01z"/><path d="M882.6 338.22h3.29c0-.36-.29-.65-.65-.65h-1.97c-.36 0-.65.29-.65.65h-.01z"/><path d="M879.33 338.22h3.29c0-.36-.29-.65-.65-.65h-1.97c-.36 0-.65.29-.65.65h-.01z"/><path d="M876.05 338.22h3.29c0-.36-.29-.65-.65-.65h-1.97c-.36 0-.65.29-.65.65h-.01z"/><path d="M872.78 338.22h3.29c0-.36-.29-.65-.65-.65h-1.97c-.36 0-.65.29-.65.65h-.01z"/><path d="M869.5 338.22h3.28c0-.36-.29-.65-.65-.65h-1.97c-.36 0-.65.29-.65.65z"/><path d="M866.23 338.22h3.29c0-.36-.29-.65-.65-.65h-1.97c-.36 0-.65.29-.65.65h-.01z"/><path d="M862.95 338.22h3.29c0-.36-.29-.65-.65-.65h-1.97c-.36 0-.65.29-.65.65h-.01z"/><path d="M859.67 338.22h3.29c0-.36-.29-.65-.65-.65h-1.97c-.36 0-.65.29-.65.65h-.01z"/><path d="M856.4 338.22h3.29c0-.36-.29-.65-.65-.65h-1.97c-.36 0-.65.29-.65.65h-.01z"/><path d="M853.13 338.22h3.29c0-.36-.29-.65-.65-.65h-1.97c-.36 0-.65.29-.65.65h-.01z"/><path d="M849.85 338.22h3.28c0-.36-.29-.65-.65-.65h-1.97c-.36 0-.65.29-.65.65zm-5.78 0h3.29c0-.36-.29-.65-.65-.65h-1.97c-.36 0-.65.29-.65.65h-.01z"/><path d="M840.78 338.22h3.29c0-.36-.29-.65-.65-.65h-1.97c-.36 0-.65.29-.65.65h-.01z"/><path d="M837.5 338.22h3.29c0-.36-.29-.65-.65-.65h-1.97c-.36 0-.65.29-.65.65h-.01zm-5.65 0h3.29c0-.36-.29-.65-.65-.65h-1.97c-.36 0-.65.29-.65.65h-.01z"/><path d="M828.56 338.22h3.29c0-.36-.29-.65-.65-.65h-1.97c-.36 0-.65.29-.65.65h-.01zm-5.58 2.89l-13.29-.04c-.77 0-1.24-1.03-.87-1.87a7.8 7.8 0 0 1 .73-1.32c1.08-1.59 3.03-3.18 6.49-3.16 3.5.02 5.67 1.63 6.95 3.23.32.4.58.8.81 1.17.49.83 0 1.99-.82 1.99z"/></g><path d="M822.98 341.11l-13.29-.04c-.77 0-1.24-1.03-.87-1.87.18-.42.42-.87.73-1.32.07-.04 2.6-1.5 5.06.03 2.51 1.55 8.99 2.23 8.38.04.32.4.58.8.81 1.17.49.83 0 1.99-.82 1.99z" fill="#dfeeff"/><use href="#b" fill="#fafcff"/><use href="#b" class="O"/><path d="M835.36 266.58h80.05c1.31 0 2.28 1.06 2.16 2.37l-4.82 54.15c-.12 1.31-1.27 2.37-2.58 2.37h-80.05c-1.31 0-2.28-1.06-2.16-2.37l4.82-54.15c.12-1.31 1.27-2.37 2.58-2.37z" fill="#d5d5d7"/><g fill="#e9ebee"><path d="M848.82 321.09c.52 0 .97-.42 1.02-.94l.4-4.44c.05-.52-.34-.94-.85-.94s-.98.42-1.02.94l-.4 4.44c-.05.52.34.94.85.94zm-2.97 0c.52 0 .97-.42 1.02-.94l.4-4.44c.05-.52-.34-.94-.85-.94s-.97.42-1.02.94l-.39 4.44c-.05.52.34.94.85.94zm-2.97 0c.52 0 .98-.42 1.02-.94l.4-4.44c.05-.52-.34-.94-.85-.94s-.97.42-1.02.94l-.4 4.44c-.05.52.34.94.85.94zm-2.96 0c.52 0 .97-.42 1.02-.94l.4-4.44c.05-.52-.34-.94-.85-.94s-.97.42-1.02.94l-.4 4.44c-.05.52.34.94.85.94zm-2.97 0c.52 0 .98-.42 1.02-.94l.4-4.44c.05-.52-.34-.94-.85-.94s-.98.42-1.02.94l-.4 4.44c-.05.52.34.94.85.94z"/></g><g class="O"><path d="M854.1 338.81h11.16v2.09l-11.16.34v-2.44z"/><path d="M869.4 329.41l-2.85-33.4h12.29l5.32 33.06c.72 3.82-.46 7.87-2.84 9.71l-2.73 2.11h-15.13l.27-2.09a8.6 8.6 0 0 0 5.66-9.4z"/></g><path d="M871.2 329.41l-2.85-33.4h12.29l5.32 33.06c.72 3.82-.46 7.87-2.84 9.71l-2.73 2.11h-15.13l3-2.32c2.25-1.75 3.45-5.49 2.93-9.17z" fill="#a5a5a5"/><path d="M870.94 334.14h14.91c-.47 1.95-1.41 3.64-2.72 4.65l-2.73 2.11h-15.13l3-2.32c1.26-.98 2.19-2.58 2.67-4.44z" class="O"/><g class="E"><path d="M837.19 202.06l-1.03-.59 1.81 1.48-.78-.89zm2.97-7.42l1.17.19-1.17-.19zm0-5.64l1.18-.12-.11-1.07h-1.08V189zm-17.81-17.81h-1.19 0 1.19zm17.81-17.81v-1.19h0v1.19zm124.69 17.81h1.19 0-1.19zM852.03 189v-1.19h-.45l-.34.3.78.89zm-14.84 13.06l1.03.59.03-.06.08-.15.3-.55.93-1.88c.69-1.49 1.49-3.47 1.76-5.18l-1.17-.19-1.17-.19a19.4 19.4 0 0 1-1.57 4.55l-.88 1.77-.28.51-.08.14-.02.03c0 .01 0 .01 1.03.6zm2.97-7.42l1.17.19c.19-1.21.19-2.72.14-3.87l-.08-1.47-.04-.44-.01-.12v-.03c0-.01 0-.01-1.18.1l-1.18.12v.03l.01.11.03.41.08 1.39a18.9 18.9 0 0 1-.12 3.41l1.17.19zm0-5.64v-1.19a16.6 16.6 0 0 1-16.62-16.62h-1.19-1.19a19 19 0 0 0 19 19V189zm-17.81-17.81h1.19c0-9.18 7.44-16.62 16.63-16.63v-1.19-1.19a19 19 0 0 0-19 19h1.19zm17.81-17.81v1.19h106.88v-1.19-1.19H840.16v1.19zm106.88 0v1.19c9.18 0 16.63 7.44 16.63 16.63h1.19 1.19a19 19 0 0 0-19-19v1.19zm17.81 17.81h-1.19c0 9.18-7.44 16.63-16.62 16.63V189v1.19a19 19 0 0 0 19-19h-1.19zM947.03 189v-1.19h-95V189v1.19h95V189zm-95 0l-.78-.89-14.84 13.06.78.89.78.89 14.84-13.06-.79-.89zm16.61-12.72v-9.97h2.31v9.97h-2.31zm4.13-5.84l.94-3.42.31 1.3c-.41 0-.75-.12-1.01-.36-.26-.25-.38-.58-.38-1 0-.41.13-.74.4-.98.27-.26.59-.38.98-.38.4 0 .73.13.98.38.26.25.38.57.38.98a2.3 2.3 0 0 1-.03.37 1.6 1.6 0 0 1-.1.41 7.3 7.3 0 0 1-.24.64l-.83 2.05h-1.41zm13.93-1.94a3.4 3.4 0 0 1 1.61.37c.48.24.85.61 1.11 1.11.28.49.41 1.13.41 1.91v4.39h-2.22v-4.05c0-.62-.13-1.07-.38-1.37s-.62-.44-1.08-.44c-.32 0-.61.08-.87.23-.26.14-.46.36-.6.66s-.21.67-.21 1.13v3.85h-2.22v-4.05c0-.62-.13-1.07-.38-1.37-.25-.29-.6-.44-1.07-.44-.32 0-.61.08-.87.23-.26.14-.46.36-.6.66s-.21.67-.21 1.13v3.85h-2.22v-7.67h2.12v2.09l-.4-.61c.27-.52.64-.92 1.13-1.18a3.4 3.4 0 0 1 1.68-.41c.7 0 1.32.18 1.84.54.53.35.88.89 1.05 1.63l-.78-.21a3.1 3.1 0 0 1 1.23-1.43c.57-.35 1.22-.53 1.95-.53zm16.16-2.19h2.31v9.97h-2.31v-9.97zm-4.53 9.97h-2.31v-9.97h2.31v9.97zm4.7-4.09h-4.87v-1.95h4.87v1.95zm8.15 4.2a5 5 0 0 1-2.31-.51 3.8 3.8 0 0 1-1.52-1.4 3.9 3.9 0 0 1-.54-2.04 3.9 3.9 0 0 1 .53-2.04 3.8 3.8 0 0 1 1.47-1.4 4.3 4.3 0 0 1 2.1-.51 4.2 4.2 0 0 1 2.02.48 3.5 3.5 0 0 1 1.44 1.37 4.1 4.1 0 0 1 .53 2.12 3.9 3.9 0 0 1-.01.3l-.03.3h-6.23v-1.3h5.06l-.86.39c0-.4-.08-.75-.24-1.04a1.7 1.7 0 0 0-.67-.68 1.9 1.9 0 0 0-1-.26c-.38 0-.72.09-1.01.26-.28.16-.51.39-.67.7-.16.29-.24.65-.24 1.05v.34c0 .42.09.79.27 1.11.19.31.45.56.78.73a2.8 2.8 0 0 0 1.2.24c.41 0 .76-.06 1.07-.19a2.6 2.6 0 0 0 .86-.56l1.18 1.28a3.5 3.5 0 0 1-1.33.93 5 5 0 0 1-1.84.31zm5.18-.11v-7.67h2.12v2.17l-.3-.63c.23-.54.59-.95 1.1-1.23.5-.28 1.12-.43 1.84-.43v2.05l-.26-.01c-.08-.01-.16-.01-.24-.01a2.1 2.1 0 0 0-1.48.53c-.37.34-.56.88-.56 1.61v3.62h-2.22zm9.83.11c-.87 0-1.64-.17-2.31-.51a3.8 3.8 0 0 1-1.52-1.4 3.9 3.9 0 0 1-.54-2.04 3.9 3.9 0 0 1 .53-2.04 3.8 3.8 0 0 1 1.47-1.4 4.3 4.3 0 0 1 2.09-.51 4.2 4.2 0 0 1 2.02.48 3.5 3.5 0 0 1 1.44 1.37 4.1 4.1 0 0 1 .53 2.12c0 .09 0 .19-.01.3l-.03.3h-6.23v-1.3h5.06l-.86.39c0-.4-.08-.75-.24-1.04s-.38-.52-.67-.68a1.9 1.9 0 0 0-1-.26c-.38 0-.72.09-1.01.26a1.7 1.7 0 0 0-.67.7c-.16.29-.24.65-.24 1.05v.34c0 .42.09.79.27 1.11.19.31.45.56.78.73a2.8 2.8 0 0 0 1.2.24c.41 0 .76-.06 1.07-.19a2.6 2.6 0 0 0 .86-.56l1.18 1.28a3.5 3.5 0 0 1-1.32.93 5 5 0 0 1-1.84.31z"/></g><path d="M843.71 182.09a10.9 10.9 0 1 0 0-21.81 10.9 10.9 0 1 0 0 21.81z" class="B"/><g class="E"><path d="M843.71 183.06a11.8 11.8 0 0 1-8.4-3.48 11.7 11.7 0 0 1-2.54-3.77 11.8 11.8 0 0 1 0-9.25 11.9 11.9 0 0 1 2.54-3.77 11.8 11.8 0 0 1 16.8 0 11.7 11.7 0 0 1 2.54 3.77 11.8 11.8 0 0 1 0 9.25 11.9 11.9 0 0 1-2.54 3.77 11.8 11.8 0 0 1-8.4 3.48zm0-21.72a9.8 9.8 0 0 0-9.08 6.02 9.8 9.8 0 0 0-.77 3.83 9.8 9.8 0 0 0 6.01 9.07 9.8 9.8 0 0 0 3.83.77 9.8 9.8 0 0 0 3.83-.77c1.17-.5 2.23-1.21 3.13-2.11a9.8 9.8 0 0 0 2.88-6.96 9.8 9.8 0 0 0-2.88-6.96 9.7 9.7 0 0 0-3.13-2.11 9.8 9.8 0 0 0-3.83-.77zm0 10.92c.59 0 1.08-.48 1.08-1.07s-.48-1.08-1.08-1.08-1.07.48-1.07 1.08.48 1.07 1.07 1.07z"/></g><g fill="#a3aeb7"><path d="M843.91 164.52h-.39c-.07 0-.13-.06-.13-.13v-1.82c0-.07.06-.13.13-.13h.39c.07 0 .13.06.13.13v1.82c0 .07-.06.13-.13.13zm-6.29 3.09l-.05.08c-.02.04-.07.05-.11.03l-.96-.56c-.04-.02-.05-.07-.03-.11l.05-.08c.02-.04.07-.05.11-.03l.96.56c.04.02.05.07.03.11zm2.6-2.56l-.08.05c-.04.02-.09.01-.11-.03l-.56-.96c-.02-.04-.01-.09.03-.11l.08-.05c.04-.02.09-.01.11.03l.56.96c.02.04.01.09-.03.11zm-3.17 5.94v.39c0 .07-.06.13-.13.13h-1.82c-.07 0-.13-.06-.13-.13v-.39c0-.07.06-.13.13-.13h1.82c.07 0 .13.06.13.13zm3.08 6.29l.08.05c.04.02.05.07.03.11l-.56.96c-.02.04-.07.05-.11.03l-.08-.05c-.04-.02-.05-.07-.03-.11l.56-.96c.02-.04.07-.05.11-.03zm-2.56-2.6l.05.08c.02.04.01.09-.03.11l-.96.56c-.04.02-.09.01-.11-.03l-.05-.08c-.02-.04-.01-.09.03-.11l.96-.56c.04-.02.09-.01.11.03zm5.94 3.17h.39c.07 0 .13.06.13.13v1.82c0 .07-.06.13-.13.13h-.39c-.07 0-.13-.06-.13-.13v-1.82c0-.07.06-.13.13-.13zm6.3-3.09l.05-.08c.02-.04.07-.05.11-.03l.96.56c.04.02.05.07.03.11l-.05.08c-.02.04-.07.05-.11.03l-.96-.56c-.04-.02-.05-.07-.03-.11zm-2.61 2.57l.08-.05c.04-.02.09-.01.11.03l.55.96c.02.04.01.09-.03.11l-.08.05c-.04.02-.09.01-.11-.03l-.56-.96c-.02-.04-.01-.09.03-.11zm3.18-5.95v-.39c0-.07.06-.13.13-.13h1.82c.07 0 .13.06.13.13v.39c0 .07-.06.13-.13.13h-1.82c-.07 0-.13-.06-.13-.13z"/><path d="M847.28 165.1l-.08-.05c-.04-.02-.05-.07-.03-.11l.56-.96c.02-.04.07-.05.11-.03l.08.05c.04.02.05.07.03.11l-.55.96c-.02.04-.07.05-.11.03zm2.58 2.6l-.05-.08c-.02-.04-.01-.09.03-.11l.96-.56c.04-.02.09-.01.11.03l.05.08c.02.04.01.09-.03.11l-.96.56c-.04.02-.09.01-.11-.03z"/></g><g fill="#000"><path d="M844.36 170.07c-.19-.11-.41-.17-.64-.17s-.45.06-.64.17l.31-4.5c.01-.18.16-.31.33-.31s.32.14.33.31l.31 4.5zm3.39 3.17c-.06.13-.21.18-.34.13l-2.86-1.21c.24-.21.41-.51.44-.85l2.66 1.58c.12.07.16.22.1.35z"/></g><path d="M975.2 314.81h-76.51c-6.09 0-11.03-.99-11.03-2.2v-32.94c0-1.22 4.94-2.2 11.03-2.2h76.51c6.09 0 11.03.98 11.03 2.2v32.94c0 1.21-4.94 2.2-11.02 2.2z" class="E"/><path d="M975.19 314.17h-76.08c-5.13 0-9.29-.81-9.29-1.81v-32.43c0-1 4.16-1.81 9.29-1.81h76.08c5.13 0 9.29.81 9.29 1.81v32.43c0 1-4.16 1.81-9.29 1.81z" fill="url(#K)"/><g class="B"><use href="#c"/><path d="M900.76 303.61l.36.73c.02.05.07.08.12.08l.8.12c.13.02.18.17.09.26l-.58.57c-.04.04-.05.09-.05.14l.14.8c.02.13-.11.22-.23.16l-.72-.38c-.05-.02-.1-.02-.15 0l-.72.38c-.12.06-.25-.04-.23-.16l.14-.8c.01-.05-.01-.1-.05-.14l-.58-.57c-.09-.09-.04-.25.09-.26l.8-.12c.05-.01.09-.04.12-.08l.36-.73c.06-.12.22-.12.28 0zm4.46 0l.36.73c.02.05.07.08.12.08l.8.12c.13.02.18.17.09.26l-.58.57c-.04.04-.05.09-.04.14l.14.8c.02.13-.11.22-.23.16l-.72-.38c-.04-.02-.1-.02-.14 0l-.72.38c-.12.06-.25-.04-.23-.16l.14-.8c.01-.05-.01-.1-.04-.14l-.58-.57c-.09-.09-.04-.25.09-.26l.8-.12c.05-.01.09-.04.12-.08l.36-.73c.06-.12.22-.12.28 0zm4.47 0l.36.73c.02.05.07.08.12.08l.8.12c.13.02.18.17.09.26l-.58.57c-.04.04-.05.09-.04.14l.14.8c.02.13-.11.22-.23.16l-.72-.38c-.05-.02-.1-.02-.14 0l-.72.38c-.11.06-.25-.04-.23-.16l.14-.8c.01-.05-.01-.1-.04-.14l-.58-.57c-.09-.09-.04-.25.09-.26l.8-.12c.05-.01.09-.04.12-.08l.36-.73c.06-.12.22-.12.28 0zm4.46 0l.36.73c.02.05.07.08.12.08l.8.12c.13.02.18.17.09.26l-.58.57c-.04.04-.05.09-.04.14l.14.8c.02.13-.11.22-.23.16l-.72-.38c-.05-.02-.1-.02-.14 0l-.72.38c-.11.06-.25-.04-.23-.16l.14-.8c.01-.05-.01-.1-.05-.14l-.58-.57c-.09-.09-.04-.25.09-.26l.8-.12c.05-.01.09-.04.12-.08l.36-.73c.06-.12.22-.12.28 0zm-9.73-2.81a8 8 0 0 0 7.98-7.98 8 8 0 0 0-7.98-7.98 8 8 0 0 0-7.98 7.98 8 8 0 0 0 7.98 7.98z"/></g><mask id="F" maskUnits="userSpaceOnUse" x="896" y="284" width="17" height="17"><path d="M904.42 300.8a8 8 0 0 0 7.98-7.98 8 8 0 0 0-7.98-7.98 8 8 0 0 0-7.98 7.98 8 8 0 0 0 7.98 7.98z" class="B"/></mask><g mask="url(#F)"><path d="M905.78 293.7c-.15-.35-.22-.65-.24-.87-.01-.12-.01-.22-.01-.3.01-.12.02-.18.02-.18l-.06.02-1.07.29-1.08-.3h-.06s.02.06.02.18c0 .08 0 .18-.01.3-.02.22-.09.52-.24.87 0 0-.1.25-.79.34 0 0 .05.19.18.44l.05.09.15.25a3 3 0 0 0 .32.42c.13.36.41.67.74.72a2.8 2.8 0 0 0 .46.04h.17l.08-.01.08.01h.17a2.8 2.8 0 0 0 .46-.04c.33-.05.61-.36.74-.72a3 3 0 0 0 .32-.42 3.3 3.3 0 0 0 .15-.25l.09-.18c.1-.21.12-.31.12-.31-.69-.09-.78-.39-.78-.39z" class="P"/><path d="M910.32 299.53l-1.94-1.94-.17 5.25c-1.15.55-2.43.85-3.78.85-1.36 0-2.65-.31-3.8-.86l-.02-.68-.14-4.56-.26.26h-1.43c.3-1.38.71-2.63 2.08-3.36.5-.26 1.45-.49 1.68-.51.04 0 .08.02.1.06a4.1 4.1 0 0 0 .19.37c.01.01.02.03.03.04.25.42.69 1.01 1.34 1.28a.6.6 0 0 0 .46 0c.65-.27 1.09-.86 1.34-1.28 0-.02.01-.03.02-.04a3.9 3.9 0 0 0 .19-.37c.02-.04.06-.06.1-.06l1.62.54c1.96 1.03 2.25 3.29 2.39 5.02z" fill="url(#L)"/><path d="M905.55 292.83c-.01-.12-.01-.22 0-.3l-.04-.09-1.07.28-1.07-.28-.04.09c0 .08 0 .18-.01.3.14.24.5.68 1.12.69h0 0c.62 0 .97-.45 1.11-.69z" fill="#cc6362"/><path d="M902.5 290.34s.12.41.22.93c.05.29.01.44-.25.4-.2-.03-.71-.63-.54-1.15.04-.12.25-.33.56-.18zm3.9 1.33h-.03c-.23.02-.26-.12-.21-.4l.02-.11.2-.82c.31-.15.52.06.56.18.17.51-.33 1.12-.54 1.15z" class="P"/><path opacity=".5" d="M906.37 291.67c-.23.02-.26-.12-.21-.4l.02-.11.05.02s0 .48.14.49zm-3.87 0c.23.02.26-.12.21-.4l-.02-.11-.05.02s0 .48-.14.49z" fill="#cc6362"/><path d="M904.43 289h-2.28a15.1 15.1 0 0 0 .33 1.41c.22 1.24.27 2.84 1.96 2.84 1.7 0 1.73-1.59 1.96-2.84.13-.74.33-1.41.33-1.41h-2.28z" class="P"/><path d="M906.82 288.44c-.28-.84-.94.65-.94.65.25.1.51 1.32.51 1.32l.18-.11h0 0s.49-1.15.25-1.86z" fill="url(#M)"/><path d="M899.87 300.81c.33-.6.68-1.68.68-1.68l-2.13-.8c-.86 1.78-1.14 3.25-1.14 3.25l2.59-.78zm9.07-.44l-.86-1.72 2.18-.98a36.7 36.7 0 0 0 1.27 3.48l-2.59-.78z" fill="#ffc1cd"/><path d="M901.63 294.18s-1.54.47-2.03 1.05c-.54.65-.91 1.82-1.68 3.86 0 0 1.7.82 2.62.85l1.08-5.76z" fill="url(#N)"/><path d="M906.85 294.15s1.99.49 2.37 1.01a12.7 12.7 0 0 1 1.72 3.94s-1.71.82-2.63.85l-1.45-5.8z" fill="url(#O)"/><path d="M902.53 287.88s-.3-.61.35-.97c1.08-.59 4 .26 4.34.82.44.71-.42 1.84-1.78 1.8s-2.02-.62-2.55-.4-.62-.77-.62-.77l.25-.48z" fill="url(#P)"/><path d="M902.87 289.07l-.34-1.18s-.65-.21-.65.56c0 .41.07.49.16.77a3.7 3.7 0 0 0 .26 1.09l.18.11s.25-1.21.51-1.32l-.12-.03z" fill="url(#Q)"/><path d="M908.08 297.1l.01.12.04.32.05.45.05.52.04.52.02.46.01.45-.02-.12-.05-.32-.06-.45-.05-.52-.03-.52-.01-.46.01-.32.01-.12z" fill="url(#R)"/><path d="M900.77 297.1s0 .04.01.12l.01.32-.01.46-.03.52-.05.52-.06.45-.06.32-.02.12.01-.45.02-.46.04-.52.05-.52.05-.45.04-.32.01-.12z" fill="url(#S)"/><path d="M904.43 294.78l-.54.38.15.57s.09.04.38.05c.29-.01.38-.05.38-.05l.15-.57-.54-.38z" class="B"/><path d="M902.55 293.97l.54-.3s.3.61 1.35 1.1c0 0-.13.11-.25.45-.04.12-.12.5-.12.5s-1.05-.32-1.51-1.76z" fill="url(#T)"/><path d="M906.32 293.97l-.54-.3s-.3.61-1.35 1.1c0 0 .14.11.25.45.04.12.12.5.12.5s1.05-.32 1.51-1.76z" fill="url(#U)"/><path d="M904.74 295.74l-.31-.09-.31.09-.69 6.58c.06 1.06.69 2.03.92 2.36.04.06.13.06.17 0 .23-.32.85-1.29.92-2.36.03-.53-.7-6.58-.7-6.58z" class="B"/></g><path d="M924.03 292.24c-.38 0-.74-.06-1.07-.19s-.61-.3-.85-.53a2.5 2.5 0 0 1-.56-.8c-.13-.31-.19-.64-.19-1s.07-.69.19-1c.13-.31.32-.57.56-.8s.52-.4.85-.53a2.9 2.9 0 0 1 1.06-.19c.38 0 .74.06 1.06.19s.6.3.84.53.43.49.56.8.2.63.2 1a2.5 2.5 0 0 1-.2 1.01c-.13.31-.32.57-.56.8s-.52.4-.84.52-.67.19-1.05.19zm-.01-.96c.22 0 .42-.04.6-.11s.35-.18.49-.32.25-.3.32-.49.12-.4.12-.63-.04-.44-.12-.63-.18-.36-.32-.49-.29-.25-.48-.32-.39-.11-.6-.11-.42.04-.61.11-.34.18-.48.32-.25.3-.33.49c-.07.19-.11.4-.11.63 0 .23.04.44.11.63.08.19.19.35.32.49s.3.25.49.32.39.11.61.11zm3.56.88v-3.82c0-.42.13-.76.38-1.01s.61-.38 1.07-.38a2 2 0 0 1 .45.05c.15.03.27.08.38.15l-.28.79c-.06-.04-.13-.07-.2-.1s-.15-.04-.24-.04c-.16 0-.28.05-.37.14s-.12.22-.12.4v.35l.03.47v3h-1.08zm-.58-2.82v-.83h2.59v.83H927zm3.32 2.82v-3.82c0-.42.13-.76.38-1.01s.61-.38 1.07-.38a2 2 0 0 1 .45.05c.15.03.27.08.38.15l-.28.79c-.06-.04-.13-.07-.2-.1s-.15-.04-.24-.04c-.16 0-.28.05-.37.14s-.12.22-.12.4v.35l.03.47v3h-1.08zm-.58-2.82v-.83h2.59v.83h-2.59zm4.94 2.88c-.43 0-.8-.08-1.13-.25s-.57-.39-.74-.68-.26-.62-.26-.99a1.9 1.9 0 0 1 .26-.99c.18-.29.41-.52.72-.68s.64-.25 1.02-.25c.37 0 .69.08.99.24.3.15.53.38.7.67s.26.63.26 1.04c0 .04 0 .09-.01.15l-.01.15h-3.04v-.63h2.47l-.42.19c0-.19-.04-.36-.12-.51s-.19-.25-.33-.33-.3-.12-.49-.12-.35.04-.49.13-.25.19-.33.34-.12.31-.12.51v.17c0 .2.04.38.13.54s.22.27.38.35c.17.08.36.12.58.12.2 0 .37-.03.52-.09s.29-.15.42-.27l.58.63c-.17.19-.39.35-.65.45s-.56.15-.9.15zm2.53-.06v-3.74h1.04v1.06l-.15-.31c.11-.26.29-.46.53-.6s.54-.21.9-.21v1l-.12-.01c-.04 0-.08-.01-.12-.01-.3 0-.54.08-.72.26-.18.17-.27.43-.27.78v1.76h-1.08zm4.4 0l2.17-4.86h1.11l2.18 4.86h-1.18l-1.78-4.29h.45l-1.79 4.29h-1.15zm1.08-1.04l.3-.85h2.5l.31.85h-3.11zm6.57 1.1c-.4 0-.76-.08-1.08-.24a1.9 1.9 0 0 1-.74-.69c-.18-.29-.26-.62-.26-.99 0-.38.09-.71.26-.99.18-.29.43-.52.74-.68s.67-.25 1.08-.25c.39 0 .74.08 1.03.25s.51.4.65.7l-.84.45c-.1-.18-.22-.31-.37-.39-.14-.08-.3-.12-.47-.12-.19 0-.35.04-.5.13s-.27.2-.35.36-.13.34-.13.56.04.4.13.56.21.27.35.36.31.13.5.13c.17 0 .33-.04.47-.12.15-.08.27-.22.37-.4l.84.46c-.14.3-.35.54-.65.7s-.63.24-1.03.24zm4.06 0c-.4 0-.76-.08-1.08-.24a1.9 1.9 0 0 1-.74-.69c-.18-.29-.26-.62-.26-.99 0-.38.09-.71.26-.99.18-.29.43-.52.74-.68s.67-.25 1.08-.25c.39 0 .74.08 1.03.25s.51.4.65.7l-.84.45c-.1-.18-.22-.31-.37-.39-.14-.08-.3-.12-.47-.12-.19 0-.35.04-.5.13s-.27.2-.35.36-.13.34-.13.56.04.4.13.56.21.27.35.36.31.13.5.13c.17 0 .33-.04.47-.12.15-.08.27-.22.37-.4l.84.46c-.14.3-.35.54-.65.7s-.63.24-1.03.24zm4.11 0c-.43 0-.8-.08-1.13-.25s-.57-.39-.74-.68-.26-.62-.26-.99a1.9 1.9 0 0 1 .26-.99c.18-.29.41-.52.72-.68s.64-.25 1.02-.25c.37 0 .69.08.99.24.3.15.53.38.7.67s.26.63.26 1.04c0 .04 0 .09-.01.15l-.01.15h-3.04v-.63h2.47l-.42.19c0-.19-.04-.36-.12-.51s-.19-.25-.33-.33-.3-.12-.49-.12-.35.04-.49.13-.25.19-.33.34-.12.31-.12.51v.17c0 .2.04.38.13.54s.22.27.38.35.36.12.58.12c.2 0 .37-.03.52-.09s.29-.15.42-.27l.58.63c-.17.19-.39.35-.65.45s-.56.15-.9.15zm4.74 0c-.31 0-.59-.07-.83-.21s-.42-.35-.56-.63-.19-.65-.19-1.08a2.7 2.7 0 0 1 .19-1.08c.13-.28.31-.49.54-.63s.52-.21.85-.21c.35 0 .67.08.94.24.28.16.5.38.67.67s.25.63.25 1.01a2 2 0 0 1-.25 1.02c-.16.29-.38.51-.67.67-.28.16-.59.24-.94.24zm-2.21 1.29v-5.08h1.04v.76l-.02 1.11.07 1.1v2.11h-1.08zm2.02-2.18c.18 0 .34-.04.48-.12a.9.9 0 0 0 .34-.36c.09-.16.13-.34.13-.56a1.1 1.1 0 0 0-.13-.56.9.9 0 0 0-.34-.36c-.14-.08-.3-.12-.48-.12s-.34.04-.49.13a.9.9 0 0 0-.34.36c-.08.15-.12.34-.12.56s.04.4.13.56a.9.9 0 0 0 .34.36c.14.08.31.13.49.13zm4.3.89c-.44 0-.78-.11-1.03-.33s-.37-.56-.37-1.01v-3.28h1.08v3.26c0 .16.04.28.13.37s.2.13.34.13a.7.7 0 0 0 .44-.14l.29.76c-.11.08-.25.14-.4.18s-.31.06-.48.06zm-1.97-2.88v-.83h2.59v.83h-2.59zm5.2 2.88c-.43 0-.8-.08-1.13-.25s-.57-.39-.74-.68-.26-.62-.26-.99a1.9 1.9 0 0 1 .26-.99c.18-.29.41-.52.72-.68s.64-.25 1.02-.25c.36 0 .69.08.99.24s.53.38.7.67.26.63.26 1.04a2.1 2.1 0 0 1-.01.15l-.01.15h-3.04v-.63h2.47l-.42.19c0-.19-.04-.36-.12-.51s-.19-.25-.33-.33-.3-.12-.49-.12-.35.04-.49.13-.25.19-.33.34-.12.31-.12.51v.17c0 .2.04.38.13.54s.22.27.38.35.36.12.58.12c.2 0 .37-.03.52-.09.15-.06.29-.15.42-.27l.58.63c-.17.19-.39.35-.65.45s-.56.15-.9.15zm4.13 0c-.35 0-.67-.08-.95-.24s-.51-.39-.67-.67-.24-.62-.24-1.01.08-.74.24-1.02.39-.51.67-.67.6-.24.95-.24a1.6 1.6 0 0 1 .83.21c.24.14.42.35.55.63s.19.64.19 1.08-.06.8-.19 1.08-.31.49-.54.63-.51.21-.84.21zm.19-.89c.18 0 .34-.04.48-.12s.26-.2.34-.36c.09-.16.13-.34.13-.56a1.1 1.1 0 0 0-.13-.56c-.08-.15-.2-.27-.34-.36s-.3-.12-.48-.12-.34.04-.49.13-.26.2-.35.36-.12.34-.12.56.04.4.13.56.2.27.35.36.31.13.49.13zm.98.83v-.76l.02-1.11-.07-1.1V287h1.08v5.15h-1.03z" class="B"/><path d="M911.36 291.87c1.58 0 2.86-1.28 2.86-2.86s-1.28-2.86-2.86-2.86-2.86 1.28-2.86 2.86 1.28 2.86 2.86 2.86z" fill="url(#V)"/><g class="B"><path d="M909.51 288.5c.32.07.93.28 1.4.84.02.02.06.02.07 0a5.3 5.3 0 0 1 2.19-1.83c.05-.02.09.04.05.08-.59.46-1.79 1.54-2.21 2.9-.01.04-.07.05-.09 0a4.1 4.1 0 0 0-1.45-1.91c-.04-.03-.01-.09.04-.08z"/><use href="#d"/><path d="M974.7 303.04h-50.77c-.85 0-1.53-.32-1.53-.72s.69-.72 1.53-.72h50.77c.85 0 1.53.32 1.53.72s-.69.72-1.53.72zm0 3.29h-50.77c-.85 0-1.53-.32-1.53-.72s.69-.72 1.53-.72h50.77c.85 0 1.53.32 1.53.72s-.69.72-1.53.72z"/></g><path d="M991.56 456.19a1079.5 1079.5 0 0 0-296.87 0c8.53-14.37 12.8-20.78 21.33-32.57a356.3 356.3 0 0 1-21.33-32.74 1079.2 1079.2 0 0 0 296.87 0 282.7 282.7 0 0 1-27.78 32.74c11.12 11.45 16.68 17.8 27.78 32.57z" class="E"/><path d="M783.76 429.25h-2.94l.02-2.17h2.92a3.3 3.3 0 0 0 1.85-.49c.5-.33.88-.82 1.13-1.46a6.1 6.1 0 0 0 .39-2.31v-.66c0-.69-.07-1.3-.22-1.83-.14-.52-.36-.97-.64-1.33s-.63-.63-1.05-.81c-.41-.19-.89-.28-1.43-.28h-3.02v-2.18h3.02c.9 0 1.73.15 2.48.46a5.6 5.6 0 0 1 1.96 1.31c.55.57.97 1.25 1.27 2.04.3.79.45 1.66.45 2.63v.64a7.3 7.3 0 0 1-.45 2.63c-.3.79-.72 1.47-1.27 2.04-.54.56-1.2 1-1.96 1.31-.75.3-1.59.45-2.5.45zm-1.36-13.51v13.51h-2.78v-13.51h2.78zm14.83 11.24v-4.47c0-.32-.05-.6-.16-.83-.11-.24-.27-.42-.49-.55-.22-.13-.5-.19-.84-.19-.3 0-.55.05-.77.16-.22.1-.38.25-.5.44-.12.19-.18.41-.18.66h-2.67a2.6 2.6 0 0 1 .3-1.22 3 3 0 0 1 .86-1.01c.38-.3.82-.53 1.35-.7a5.8 5.8 0 0 1 1.76-.25c.78 0 1.47.13 2.08.39s1.08.65 1.43 1.17c.35.52.53 1.17.53 1.95v4.3c0 .55.03 1 .1 1.35.07.35.17.65.3.91v.16h-2.7a3.9 3.9 0 0 1-.3-1.02 8.5 8.5 0 0 1-.09-1.24zm.35-3.85l.02 1.51h-1.49c-.35 0-.66.04-.92.12a1.7 1.7 0 0 0-.64.34c-.17.14-.29.31-.37.5-.07.19-.11.4-.11.63s.05.44.16.62c.11.18.26.32.45.43.2.1.43.15.7.15.4 0 .75-.08 1.05-.24s.52-.36.69-.59c.17-.24.25-.46.26-.67l.71 1.13a4.6 4.6 0 0 1-.41.79c-.17.27-.38.53-.64.77-.26.24-.57.43-.94.59-.37.15-.8.22-1.3.22a3.9 3.9 0 0 1-1.73-.38c-.51-.26-.92-.62-1.23-1.07a2.8 2.8 0 0 1-.45-1.56c0-.53.1-.99.3-1.4s.49-.75.87-1.03a4.1 4.1 0 0 1 1.46-.64 8.2 8.2 0 0 1 2.02-.22h1.55zm9.32-3.92v1.89h-5.85v-1.89h5.85zm-4.4-2.48h2.67v9.49a1.6 1.6 0 0 0 .11.67c.08.15.2.26.35.32.15.06.35.08.58.08l.45-.02.34-.06.01 1.97a5 5 0 0 1-.74.18c-.27.04-.56.06-.88.06a3.8 3.8 0 0 1-1.54-.29c-.43-.2-.77-.51-1-.95s-.35-1-.35-1.71v-9.76zm10.54 12.7a5.6 5.6 0 0 1-2.1-.37 4.6 4.6 0 0 1-1.58-1.05c-.43-.44-.75-.96-.98-1.55a5.2 5.2 0 0 1-.34-1.89v-.37a6.4 6.4 0 0 1 .33-2.09 4.9 4.9 0 0 1 .93-1.64c.41-.46.9-.82 1.49-1.07.58-.25 1.24-.38 1.97-.38a4.8 4.8 0 0 1 1.89.35 3.7 3.7 0 0 1 1.38 1 4.3 4.3 0 0 1 .85 1.56c.19.6.29 1.27.29 2v1.11h-7.98v-1.78h5.35v-.2c0-.37-.07-.7-.2-.99-.13-.3-.33-.53-.59-.7s-.61-.26-1.02-.26c-.35 0-.66.08-.91.23a1.8 1.8 0 0 0-.62.65c-.15.28-.27.61-.35.98-.07.37-.11.78-.11 1.22v.37c0 .4.06.77.17 1.11a2.7 2.7 0 0 0 .49.88c.22.25.48.44.78.57.31.14.66.2 1.05.2.48 0 .93-.09 1.35-.28.42-.19.78-.48 1.08-.86l1.3 1.41c-.21.3-.5.59-.86.87a4.6 4.6 0 0 1-1.3.69c-.51.17-1.09.26-1.74.26zm9.95-5.1v-.2a6.3 6.3 0 0 1 .31-2.03 4.7 4.7 0 0 1 .92-1.62c.4-.46.9-.81 1.49-1.07.59-.26 1.26-.39 2.02-.39a5 5 0 0 1 2.03.39 4.1 4.1 0 0 1 1.49 1.07c.41.46.72 1 .93 1.62s.32 1.3.32 2.03v.2a6.3 6.3 0 0 1-.32 2.03c-.21.62-.52 1.16-.93 1.62a4.1 4.1 0 0 1-1.49 1.07c-.59.25-1.26.38-2.02.38s-1.44-.13-2.03-.38a4.2 4.2 0 0 1-1.49-1.07 4.8 4.8 0 0 1-.92-1.62c-.21-.62-.31-1.3-.31-2.03zm2.67-.2v.2a5.9 5.9 0 0 0 .11 1.18 3.2 3.2 0 0 0 .35.96c.17.27.38.49.65.64a1.9 1.9 0 0 0 .97.23c.37 0 .69-.08.95-.23s.48-.37.64-.64a3.2 3.2 0 0 0 .35-.96c.08-.37.12-.76.12-1.18v-.2a5.2 5.2 0 0 0-.12-1.15c-.07-.37-.2-.69-.36-.96-.16-.29-.37-.51-.64-.67s-.59-.24-.96-.24-.7.08-.97.24a1.9 1.9 0 0 0-.64.67 3.2 3.2 0 0 0-.35.96 5.7 5.7 0 0 0-.11 1.15zm11.88 5.11h-2.69v-10.93c0-.76.15-1.4.45-1.92a2.9 2.9 0 0 1 1.27-1.19c.55-.27 1.2-.41 1.96-.41.25 0 .49.02.72.06l.67.12-.03 2.01a2.3 2.3 0 0 0-.37-.06c-.13-.01-.28-.02-.46-.02-.32 0-.6.06-.83.17-.22.11-.39.26-.51.47s-.18.47-.18.77v10.93zm2-10.04v1.89h-6.19v-1.89h6.19zm11.76 5.89v-9.36h2.77v9.36a4.4 4.4 0 0 1-.59 2.33c-.4.64-.94 1.14-1.62 1.48a5 5 0 0 1-2.3.52 5.8 5.8 0 0 1-2.35-.45c-.68-.3-1.22-.75-1.61-1.36s-.58-1.4-.58-2.35h2.79c0 .5.07.89.2 1.18.14.29.34.5.6.62s.57.19.94.19c.35 0 .66-.08.92-.25s.46-.41.6-.73a2.8 2.8 0 0 0 .22-1.18zm4.56-.77v-.2a6.3 6.3 0 0 1 .31-2.03 4.7 4.7 0 0 1 .92-1.62 4.1 4.1 0 0 1 1.49-1.07c.59-.26 1.26-.39 2.02-.39a5 5 0 0 1 2.03.39 4.1 4.1 0 0 1 1.49 1.07c.41.46.72 1 .93 1.62s.32 1.3.32 2.03v.2a6.3 6.3 0 0 1-.32 2.03c-.21.62-.52 1.16-.93 1.62a4.1 4.1 0 0 1-1.49 1.07c-.59.25-1.26.38-2.02.38s-1.44-.13-2.03-.38a4.2 4.2 0 0 1-1.49-1.07 4.8 4.8 0 0 1-.92-1.62c-.21-.62-.31-1.3-.31-2.03zm2.67-.2v.2c0 .42.04.81.11 1.18s.19.69.35.96c.17.27.38.49.65.64a1.9 1.9 0 0 0 .97.23c.37 0 .69-.08.95-.23s.48-.37.64-.64c.16-.28.28-.6.35-.96a5.5 5.5 0 0 0 .12-1.18v-.2c0-.41-.04-.79-.12-1.15-.07-.37-.2-.69-.36-.96a1.8 1.8 0 0 0-.64-.67c-.27-.16-.59-.24-.96-.24s-.7.08-.97.24a1.9 1.9 0 0 0-.64.67c-.16.28-.28.6-.35.96a5.6 5.6 0 0 0-.11 1.15zm11.3-4.93v10.04h-2.68v-10.04h2.68zm-2.85-2.62c0-.39.14-.71.41-.97s.64-.38 1.1-.38c.45 0 .81.13 1.09.38.28.25.42.58.42.97s-.14.71-.42.96c-.27.25-.63.38-1.09.38-.46 0-.82-.13-1.1-.38s-.41-.58-.41-.96zm7.67 4.76v7.89h-2.67v-10.04h2.5l.17 2.14zm-.39 2.52h-.72a6.5 6.5 0 0 1 .29-2c.19-.6.46-1.11.81-1.53.35-.43.76-.75 1.23-.97a3.7 3.7 0 0 1 1.61-.34 3.9 3.9 0 0 1 1.29.2c.39.14.72.35 1 .65a2.9 2.9 0 0 1 .65 1.18 6 6 0 0 1 .23 1.79v6.4h-2.69v-6.41c0-.44-.06-.79-.19-1.04s-.31-.42-.55-.52c-.24-.11-.53-.16-.87-.16-.36 0-.67.07-.94.21-.26.14-.48.34-.65.59a2.8 2.8 0 0 0-.38.87c-.09.33-.13.69-.13 1.08zm11.24-4.67v10.04h-2.68v-10.04h2.68zm-2.85-2.62c0-.39.14-.71.41-.97s.64-.38 1.1-.38c.45 0 .81.13 1.09.38.28.25.42.58.42.97s-.14.71-.42.96c-.27.25-.63.38-1.09.38-.46 0-.82-.13-1.1-.38s-.41-.58-.41-.96zm7.67 4.76v7.89h-2.67v-10.04h2.5l.17 2.14zm-.39 2.52h-.72a6.5 6.5 0 0 1 .29-2c.19-.6.46-1.11.81-1.53.35-.43.76-.75 1.23-.97.48-.23 1.02-.34 1.62-.34a3.9 3.9 0 0 1 1.29.2c.39.14.72.35 1 .65.29.3.5.69.65 1.18a6 6 0 0 1 .23 1.79v6.4h-2.69v-6.41c0-.44-.06-.79-.18-1.04s-.31-.42-.55-.52c-.24-.11-.53-.16-.87-.16-.36 0-.67.07-.94.21-.26.14-.48.34-.65.59-.17.25-.29.54-.38.87a4.3 4.3 0 0 0-.13 1.08zm14.78-4.67h2.42v9.7c0 .92-.2 1.69-.61 2.33-.4.64-.96 1.13-1.69 1.46-.72.33-1.56.5-2.52.5a5.8 5.8 0 0 1-1.33-.17 5.3 5.3 0 0 1-1.34-.52 3.5 3.5 0 0 1-1.06-.89l1.18-1.58c.31.36.67.64 1.08.83a3 3 0 0 0 1.35.31c.48 0 .89-.09 1.22-.27.33-.17.59-.43.77-.77.18-.33.27-.74.27-1.21v-7.4l.26-2.32zm-6.75 5.14v-.19a7.3 7.3 0 0 1 .28-2.09 5 5 0 0 1 .81-1.62c.35-.45.78-.8 1.28-1.05a3.8 3.8 0 0 1 1.7-.37c.67 0 1.23.12 1.68.37s.82.6 1.11 1.06a5.5 5.5 0 0 1 .68 1.61c.17.61.3 1.28.39 2.01v.43c-.09.7-.23 1.35-.42 1.95a6 6 0 0 1-.73 1.58c-.3.45-.68.79-1.13 1.04-.45.25-.98.37-1.6.37s-1.18-.13-1.68-.38c-.5-.25-.92-.61-1.27-1.07s-.62-1-.82-1.61a7 7 0 0 1-.28-2.02zm2.67-.19v.19c0 .41.04.8.12 1.16a3.2 3.2 0 0 0 .37.96c.17.27.39.49.64.64.26.15.57.22.92.22.49 0 .89-.1 1.2-.31.31-.21.54-.5.7-.86a3.7 3.7 0 0 0 .27-1.26v-1.21c-.01-.39-.06-.74-.16-1.05a2.5 2.5 0 0 0-.39-.81c-.17-.22-.38-.4-.65-.52s-.58-.19-.95-.19a1.7 1.7 0 0 0-.92.24c-.25.16-.47.37-.64.64-.17.27-.29.59-.38.96-.09.37-.13.76-.13 1.19z" class="B"/></g></g><rect x="1" y="1" width="1138" height="638" rx="15" stroke="#0668e1" stroke-width="2"/><defs><filter id="G" x="-4.75" y="56.41" width="332.5" height="98.56" filterUnits="userSpaceOnUse" color-interpolation-filters="sRGB"><feFlood flood-opacity="0" result="A"/><feColorMatrix in="SourceAlpha" values="0 0 0 0 0 0 0 0 0 0 0 0 0 0 0 0 0 0 127 0" result="B"/><feOffset dy="1.78125"/><feGaussianBlur stdDeviation="2.38"/><feComposite in2="B" operator="out"/><feColorMatrix values="0 0 0 0 0 0 0 0 0 0 0 0 0 0 0 0 0 0 0.3 0"/><feBlend in2="A"/><feBlend in="SourceGraphic"/></filter><linearGradient id="H" x1="834.79" y1="465.52" x2="843.13" y2="65.26" href="#e"><stop stop-color="#ddecff"/><stop offset="1" stop-color="#eaf3ff"/></linearGradient><linearGradient id="I" x1="772.36" y1="207.09" x2="347.35" y2="606.15" href="#e"><stop stop-color="#e0eeff"/><stop offset="1" stop-color="#f9f9f9"/></linearGradient><linearGradient id="J" x1="1113.55" y1="343.58" x2="810.9" y2="581.48" href="#e"><stop stop-color="#d6e8ff"/><stop offset="1" stop-color="#cfe4ff"/></linearGradient><linearGradient id="K" x1="937.15" y1="279.2" x2="937.15" y2="309.96" href="#e"><stop stop-color="#6eaefd"/><stop offset="1" stop-color="#0776ff"/></linearGradient><linearGradient id="L" x1="904.55" y1="294.44" x2="904.55" y2="300.59" href="#e"><stop stop-color="#7995fd"/><stop offset="1" stop-color="#54deff"/></linearGradient><linearGradient id="M" x1="906.38" y1="290.33" x2="906.38" y2="288.11" href="#e"><stop stop-color="#00004f"/><stop offset="1" stop-color="#000079"/></linearGradient><linearGradient id="N" x1="899.78" y1="294.44" x2="899.78" y2="300.58" href="#e"><stop stop-color="#7995fd"/><stop offset="1" stop-color="#54deff"/></linearGradient><linearGradient id="O" x1="908.89" y1="294.44" x2="908.89" y2="300.59" href="#e"><stop stop-color="#7995fd"/><stop offset="1" stop-color="#54deff"/></linearGradient><linearGradient id="P" x1="904.81" y1="290.33" x2="904.81" y2="288.11" href="#e"><stop stop-color="#00004f"/><stop offset="1" stop-color="#000079"/></linearGradient><linearGradient id="Q" x1="902.43" y1="290.34" x2="902.43" y2="288.12" href="#e"><stop stop-color="#00004f"/><stop offset="1" stop-color="#000079"/></linearGradient><linearGradient id="R" x1="908.18" y1="296.87" x2="908.18" y2="300.9" href="#e"><stop stop-color="#d1d3d4"/><stop offset="1" stop-color="#a7a9ac"/></linearGradient><linearGradient id="S" x1="900.66" y1="296.87" x2="900.66" y2="300.9" href="#e"><stop stop-color="#d1d3d4"/><stop offset="1" stop-color="#a7a9ac"/></linearGradient><linearGradient id="T" x1="902.75" y1="293.84" x2="904.13" y2="295.28" href="#e"><stop stop-color="#7995fd"/><stop offset="1" stop-color="#54deff"/></linearGradient><linearGradient id="U" x1="906.15" y1="293.85" x2="904.73" y2="295.27" href="#e"><stop stop-color="#7995fd"/><stop offset="1" stop-color="#54deff"/></linearGradient><linearGradient id="V" x1="913.6" y1="290.94" x2="908.65" y2="286.68" href="#e"><stop stop-color="#84cf9b"/><stop offset="1" stop-color="#79d3fd"/></linearGradient><clipPath id="W"><rect width="1140" height="640" rx="16" class="B"/></clipPath><clipPath id="X"><path transform="translate(665 141.5)" d="M0 0h356.25v356.25H0z" class="B"/></clipPath><path id="Y" d="M816.99 336.45l17.35.51c5.15.15 9.33 4.35 9.33 9.37v40.93"/><path id="Z" d="M892.42 338.22h3.29c0-.36-.29-.65-.65-.65h-1.97c-.36 0-.65.29-.65.65h-.01z"/><path id="a" d="M889.14 338.22h3.28c0-.36-.29-.65-.65-.65h-1.97c-.36 0-.65.29-.65.65z"/><path id="b" d="M833.87 266.58h80.05a2.1 2.1 0 0 1 2.13 2.37l-5.61 54.15a2.7 2.7 0 0 1-2.62 2.37h-80.05a2.1 2.1 0 0 1-2.13-2.37l5.61-54.15a2.7 2.7 0 0 1 2.62-2.37z"/><path id="c" d="M896.29 303.61l.36.73c.02.05.07.08.12.08l.8.12c.13.02.18.17.09.26l-.58.57c-.04.04-.05.09-.04.14l.14.8c.02.13-.11.22-.23.16l-.72-.38c-.05-.02-.1-.02-.14 0l-.72.38c-.11.06-.25-.04-.23-.16l.14-.8c.01-.05-.01-.1-.04-.14l-.58-.57c-.09-.09-.04-.25.09-.26l.8-.12c.05-.01.09-.04.12-.08l.36-.73c.06-.12.22-.12.28 0z"/><path id="d" d="M974.7 299.74h-50.77c-.85 0-1.53-.32-1.53-.72s.69-.72 1.53-.72h50.77c.85 0 1.53.32 1.53.72s-.69.72-1.53.72z"/><linearGradient id="e" gradientUnits="userSpaceOnUse"/></defs></svg>