<svg xmlns="http://www.w3.org/2000/svg" width="1140" height="640" fill="none" xmlns:v="https://vecta.io/nano"><g clip-path="url(#J)"><rect width="1140" height="640" rx="16" fill="#fff"/><path d="M1140 .55H0v690.63h1140V.55z" fill="#f1f7ff"/><mask id="A" maskUnits="userSpaceOnUse" x="0" y="0" width="606" height="692"><path d="M605.39 691.18C535 357.05 139.75 418.28 118.59 34.02c-.62-11.25.44-22.43 1.3-33.47H0V377.9v313.28h605.39z" fill="#fff"/></mask><g mask="url(#A)"><path d="M605.39.55H0v690.63h605.39V.55z" fill="url(#E)"/></g><mask id="B" maskUnits="userSpaceOnUse" x="118" y="0" width="795" height="692"><path d="M190.73.55H119.9c-.87 11.04-1.31 22.21-1.31 33.47 0 393.68 364.1 321.95 434.72 657.16h358.94C800.18 214.23 346.97 430.54 190.73.55z" fill="#fff"/></mask><g mask="url(#B)"><path d="M912.26.55H118.59v690.63h793.66V.55z" fill="url(#F)"/></g><mask id="C" maskUnits="userSpaceOnUse" x="0" y="280" width="416" height="412"><path d="M0 280.96v96.93 313.28h415.16C307.65 514.85 77.91 488.01 0 280.96z" fill="#fff"/></mask><g mask="url(#C)"><path d="M415.16 280.84H0v410.21h415.16V280.84z" fill="url(#G)"/></g><path d="M135.59 222.16v50.65h-12.18v-50.65h12.18zm19.55 21.05v29.61h-11.72v-37.64h10.99l.73 8.04zm-1.39 9.5l-2.75.07a26 26 0 0 1 1.04-7.69c.7-2.27 1.68-4.2 2.96-5.78a12.6 12.6 0 0 1 4.56-3.58c1.79-.84 3.77-1.25 5.95-1.25 1.74 0 3.33.26 4.77.77a9.1 9.1 0 0 1 3.76 2.47 11.1 11.1 0 0 1 2.44 4.52c.58 1.86.87 4.15.87 6.89v23.69h-11.79v-23.73c0-1.51-.21-2.66-.63-3.45-.42-.81-1.02-1.37-1.81-1.67a8.1 8.1 0 0 0-2.89-.45c-1.21 0-2.23.23-3.06.7a5.4 5.4 0 0 0-2.02 1.95c-.49.81-.85 1.77-1.08 2.89-.21 1.11-.31 2.33-.31 3.65zm49.92-17.53v8.14h-22.68v-8.14h22.68zm-17.92-9.36h11.72v34.72c0 1 .12 1.77.35 2.33.23.53.63.92 1.18 1.15.58.21 1.34.31 2.3.31l1.67-.04 1.25-.17v8.38a19.2 19.2 0 0 1-3.13.73 20.7 20.7 0 0 1-3.48.28c-2.5 0-4.65-.39-6.44-1.18a8.4 8.4 0 0 1-4.04-3.72c-.93-1.69-1.39-3.9-1.39-6.61v-36.18zm40.81 47.7c-3.06 0-5.8-.47-8.21-1.43-2.41-.97-4.45-2.31-6.12-4-1.65-1.69-2.91-3.64-3.79-5.85a19.1 19.1 0 0 1-1.29-6.99v-1.32a24.5 24.5 0 0 1 1.15-7.65c.76-2.37 1.9-4.43 3.41-6.19a15.2 15.2 0 0 1 5.67-4.1 19.6 19.6 0 0 1 7.93-1.5 18.9 18.9 0 0 1 7.17 1.29 14.6 14.6 0 0 1 5.36 3.69c1.48 1.6 2.61 3.54 3.38 5.81.79 2.27 1.18 4.82 1.18 7.65v4.77h-30.75v-7.34h19.31v-.9c.02-1.25-.2-2.32-.66-3.2-.44-.88-1.09-1.55-1.95-2.02a6.5 6.5 0 0 0-3.13-.7 5.6 5.6 0 0 0-3.17.84c-.81.56-1.45 1.32-1.91 2.3-.44.95-.75 2.05-.94 3.31a27 27 0 0 0-.28 3.97v1.32c0 1.39.19 2.66.56 3.79a8.6 8.6 0 0 0 1.67 2.92c.74.79 1.62 1.4 2.64 1.84 1.04.44 2.23.66 3.55.66a13 13 0 0 0 4.73-.91c1.55-.6 2.89-1.6 4-2.99l5.32 6.33a13.8 13.8 0 0 1-3.27 3.17c-1.39 1.02-3.06 1.86-5.01 2.5-1.95.63-4.13.94-6.54.94zm32.42-29.01v28.32h-11.72v-37.64h10.96l.77 9.32zm11.13-9.6l-.21 10.89-1.88-.17-1.98-.1c-1.37 0-2.55.16-3.55.49a6 6 0 0 0-2.44 1.39c-.63.6-1.09 1.37-1.39 2.3-.28.93-.41 2.01-.38 3.24l-2.12-1.39c0-2.53.24-4.82.73-6.89a18.7 18.7 0 0 1 2.16-5.39c.93-1.53 2.05-2.7 3.38-3.51 1.32-.84 2.81-1.25 4.45-1.25.58 0 1.15.03 1.7.1a8.5 8.5 0 0 1 1.53.31zm18.23 29.89l7.41-29.61h12.35l-12.31 37.64h-7.31l-.14-8.04zm-4.38-29.61l7.31 29.61-.07 8.04h-7.34l-12.28-37.64h12.38zm40.01 0v37.64h-11.76v-37.64h11.76zm-12.45-9.71c0-1.67.6-3.04 1.81-4.1s2.77-1.6 4.7-1.6 3.49.53 4.7 1.6 1.81 2.44 1.81 4.1-.6 3.04-1.81 4.11-2.77 1.6-4.7 1.6-3.49-.53-4.7-1.6-1.81-2.44-1.81-4.11zm37.92 48.04c-3.06 0-5.8-.47-8.21-1.43-2.41-.97-4.45-2.31-6.12-4-1.65-1.69-2.91-3.64-3.79-5.85a19.1 19.1 0 0 1-1.29-6.99v-1.32c0-2.76.38-5.31 1.15-7.65.76-2.37 1.9-4.43 3.41-6.19a15.2 15.2 0 0 1 5.67-4.1 19.6 19.6 0 0 1 7.93-1.5 18.9 18.9 0 0 1 7.17 1.29c2.11.86 3.9 2.09 5.36 3.69 1.48 1.6 2.61 3.54 3.37 5.81.79 2.27 1.18 4.82 1.18 7.65v4.77h-30.75v-7.34h19.31v-.9c.02-1.25-.2-2.32-.66-3.2-.44-.88-1.09-1.55-1.95-2.02a6.5 6.5 0 0 0-3.13-.7 5.6 5.6 0 0 0-3.17.84c-.81.56-1.45 1.32-1.91 2.3-.44.95-.75 2.05-.94 3.31s-.28 2.57-.28 3.97v1.32c0 1.39.19 2.66.56 3.79a8.6 8.6 0 0 0 1.67 2.92c.74.79 1.62 1.4 2.64 1.84 1.04.44 2.23.66 3.55.66a13 13 0 0 0 4.73-.91c1.55-.6 2.89-1.6 4-2.99l5.32 6.33c-.76 1.09-1.85 2.15-3.27 3.17-1.39 1.02-3.06 1.86-5.01 2.5a21.3 21.3 0 0 1-6.54.94zm32.04-11.9l6.96-26.44h7.34l-2.61 13.26-6.89 24.39h-5.88l1.08-11.2zm-2.75-26.44l4.31 26.23.49 11.41h-7.13l-8.91-37.64h11.24zm23.24 25.68l4.35-25.68h11.24l-8.84 37.64h-7.13l.38-11.97zm-5.36-25.68l7.03 26.37 1.08 11.27h-5.95l-6.75-24.32-2.5-13.32h7.1zM148.7 342.35c0-.79-.12-1.5-.35-2.12-.23-.65-.66-1.25-1.29-1.81a11.5 11.5 0 0 0-2.71-1.67c-1.16-.58-2.69-1.18-4.59-1.81l-6.44-2.5c-2.06-.95-3.91-2.05-5.53-3.31-1.62-1.28-2.91-2.76-3.86-4.45-.95-1.72-1.43-3.71-1.43-5.98a11.8 11.8 0 0 1 1.46-5.88 13.4 13.4 0 0 1 4.07-4.49c1.76-1.25 3.83-2.2 6.19-2.85a28.3 28.3 0 0 1 7.76-1.01c3.71 0 6.98.65 9.81 1.95 2.85 1.27 5.08 3.1 6.68 5.46 1.62 2.34 2.44 5.11 2.44 8.31h-12.14a6.9 6.9 0 0 0-.8-3.37c-.51-.97-1.29-1.74-2.33-2.3a8.3 8.3 0 0 0-3.93-.83 9.5 9.5 0 0 0-3.86.7 5.4 5.4 0 0 0-2.37 1.88c-.53.77-.8 1.61-.8 2.54a3.7 3.7 0 0 0 .63 2.09c.44.6 1.06 1.17 1.84 1.71.81.53 1.79 1.04 2.92 1.53 1.16.49 2.46.96 3.9 1.43a47.5 47.5 0 0 1 7.17 2.89 22 22 0 0 1 5.32 3.58 13.2 13.2 0 0 1 3.31 4.52c.77 1.69 1.15 3.61 1.15 5.74 0 2.27-.44 4.29-1.32 6.05a12.6 12.6 0 0 1-3.79 4.49c-1.65 1.21-3.62 2.12-5.91 2.75s-4.86.94-7.69.94c-2.6 0-5.16-.32-7.69-.97-2.5-.67-4.78-1.69-6.82-3.06-2.04-1.39-3.68-3.17-4.91-5.32-1.21-2.18-1.81-4.77-1.81-7.76h12.25c0 1.48.2 2.74.59 3.76s.97 1.84 1.74 2.47c.76.6 1.7 1.04 2.82 1.32 1.11.26 2.39.38 3.83.38 1.55 0 2.81-.22 3.76-.66.95-.46 1.65-1.07 2.09-1.81.44-.77.66-1.6.66-2.5zm33.85 5.11a6 6 0 0 0 2.78-.59c.79-.42 1.38-1 1.77-1.74a5.4 5.4 0 0 0 .59-2.75h11.03c.02 2.83-.67 5.31-2.09 7.44-1.39 2.11-3.29 3.76-5.71 4.94-2.39 1.16-5.09 1.74-8.11 1.74-2.94 0-5.52-.47-7.72-1.43-2.2-.97-4.05-2.32-5.53-4.04-1.46-1.74-2.56-3.77-3.31-6.09-.72-2.32-1.08-4.84-1.08-7.55v-.8c0-2.71.36-5.23 1.08-7.55.74-2.34 1.84-4.37 3.31-6.09a15 15 0 0 1 5.5-4.04c2.2-.97 4.77-1.46 7.69-1.46 3.13 0 5.89.59 8.28 1.77a13.4 13.4 0 0 1 5.67 5.15c1.37 2.25 2.04 4.98 2.02 8.18H187.7a7.6 7.6 0 0 0-.52-3.06 4.7 4.7 0 0 0-1.74-2.16 4.9 4.9 0 0 0-2.96-.83 4.9 4.9 0 0 0-2.92.8c-.74.53-1.31 1.28-1.7 2.23-.37.93-.63 2-.77 3.2a40.4 40.4 0 0 0-.17 3.86v.8c0 1.39.06 2.7.17 3.93.14 1.21.41 2.27.8 3.2a5.1 5.1 0 0 0 1.71 2.16c.74.51 1.73.77 2.96.77zm32.67-45.09v53.44H203.5v-53.44h11.72zm-1.39 33.33l-2.75.07a26 26 0 0 1 .97-7.31 18.5 18.5 0 0 1 2.78-5.81 12.9 12.9 0 0 1 4.35-3.83c1.69-.91 3.57-1.36 5.64-1.36 1.86 0 3.55.27 5.08.8 1.55.53 2.89 1.39 4 2.57a11.6 11.6 0 0 1 2.61 4.63 22.4 22.4 0 0 1 .94 6.96v23.38h-11.79v-23.45c0-1.53-.22-2.71-.66-3.55-.42-.86-1.02-1.45-1.81-1.77-.79-.35-1.75-.52-2.89-.52a7 7 0 0 0-3.34.7c-.86.46-1.52 1.11-1.98 1.95-.44.81-.74 1.77-.9 2.89a25.3 25.3 0 0 0-.24 3.65zm48.36 20.8c-3.06 0-5.8-.47-8.21-1.43-2.41-.97-4.45-2.31-6.12-4-1.65-1.69-2.91-3.64-3.79-5.85a19.1 19.1 0 0 1-1.29-6.99v-1.32a24.5 24.5 0 0 1 1.15-7.65c.76-2.37 1.9-4.43 3.41-6.19a15.2 15.2 0 0 1 5.67-4.1 19.6 19.6 0 0 1 7.93-1.5 18.9 18.9 0 0 1 7.17 1.29 14.6 14.6 0 0 1 5.36 3.69c1.49 1.6 2.61 3.54 3.38 5.81.79 2.27 1.18 4.82 1.18 7.65v4.77h-30.75v-7.34h19.31v-.9c.02-1.25-.2-2.32-.66-3.2-.44-.88-1.09-1.55-1.95-2.02a6.5 6.5 0 0 0-3.13-.7 5.6 5.6 0 0 0-3.17.83c-.81.56-1.45 1.32-1.91 2.3a12 12 0 0 0-.94 3.31 27 27 0 0 0-.28 3.97v1.32c0 1.39.19 2.65.56 3.79a8.6 8.6 0 0 0 1.67 2.92c.74.79 1.62 1.4 2.64 1.84 1.04.44 2.23.66 3.55.66a13 13 0 0 0 4.73-.91c1.55-.6 2.89-1.6 4-2.99l5.32 6.33a13.8 13.8 0 0 1-3.27 3.17c-1.39 1.02-3.06 1.86-5.01 2.5-1.95.63-4.13.94-6.54.94zm42.23-9.32v-44.81h11.79v53.44h-10.58l-1.22-8.63zm-23.1-9.74v-.73c0-2.85.31-5.45.94-7.79.63-2.37 1.55-4.4 2.78-6.09 1.23-1.72 2.76-3.04 4.59-3.97s3.94-1.39 6.33-1.39c2.13 0 4 .5 5.6 1.5 1.6.97 2.97 2.34 4.11 4.1s2.06 3.83 2.78 6.19c.72 2.34 1.26 4.87 1.64 7.58v.87c-.37 2.55-.92 4.96-1.64 7.24-.72 2.25-1.65 4.24-2.78 5.98a13.2 13.2 0 0 1-4.14 4.11c-1.6.97-3.48 1.46-5.64 1.46-2.39 0-4.5-.47-6.33-1.43a13 13 0 0 1-4.56-4c-1.21-1.72-2.12-3.73-2.75-6.05s-.94-4.85-.94-7.59zm11.72-.73v.73a26 26 0 0 0 .28 3.93 11.5 11.5 0 0 0 .94 3.2c.46.91 1.07 1.61 1.81 2.12.76.51 1.7.77 2.82.77a6.1 6.1 0 0 0 3.72-1.08c1-.72 1.73-1.74 2.19-3.06a12.1 12.1 0 0 0 .63-4.66v-2.75c.05-1.53-.06-2.88-.31-4.04a8 8 0 0 0-1.22-2.96c-.53-.79-1.22-1.38-2.05-1.77-.81-.42-1.77-.63-2.89-.63a4.9 4.9 0 0 0-2.78.77c-.74.51-1.34 1.23-1.81 2.16-.46.9-.8 1.98-1.01 3.24-.21 1.23-.31 2.57-.31 4.04zm51.8 9.95v-28.49h11.76v37.64h-10.99l-.77-9.15zm1.11-7.65l3.06-.07c0 2.53-.3 4.87-.9 7.03-.6 2.13-1.5 3.99-2.68 5.57-1.16 1.58-2.6 2.81-4.31 3.69-1.69.86-3.65 1.29-5.88 1.29-1.86 0-3.56-.25-5.11-.76-1.53-.53-2.85-1.36-3.97-2.47a11.7 11.7 0 0 1-2.61-4.35 20.1 20.1 0 0 1-.91-6.4v-24.35h11.73v24.42a6.6 6.6 0 0 0 .31 2.16 4.2 4.2 0 0 0 .9 1.53c.39.39.88.7 1.46.91a7 7 0 0 0 2.05.28c1.76 0 3.14-.37 4.14-1.11a5.8 5.8 0 0 0 2.09-3.03c.42-1.28.63-2.71.63-4.31zm29.5-36.63v53.44h-11.76v-53.44h11.76zm19.62 15.8v37.64h-11.76v-37.64h11.76zm-12.45-9.71c0-1.67.6-3.04 1.81-4.11s2.77-1.6 4.7-1.6 3.49.53 4.7 1.6 1.81 2.44 1.81 4.11-.6 3.04-1.81 4.1-2.77 1.6-4.7 1.6-3.49-.53-4.7-1.6-1.81-2.44-1.81-4.1zm31.21 17.74v29.61h-11.72v-37.64h10.99l.73 8.04zm-1.39 9.5l-2.75.07a26 26 0 0 1 1.04-7.69c.7-2.27 1.68-4.2 2.96-5.77a12.6 12.6 0 0 1 4.56-3.58c1.79-.83 3.77-1.25 5.95-1.25 1.74 0 3.33.25 4.77.76a9.1 9.1 0 0 1 3.76 2.47c1.07 1.14 1.88 2.64 2.44 4.52.58 1.86.87 4.15.87 6.89v23.69h-11.79v-23.73c0-1.51-.21-2.66-.63-3.44-.42-.81-1.02-1.37-1.81-1.67a8.1 8.1 0 0 0-2.89-.45c-1.21 0-2.23.23-3.06.7a5.4 5.4 0 0 0-2.02 1.95c-.49.81-.85 1.77-1.08 2.89-.21 1.11-.31 2.33-.31 3.65zm53.75-17.53h10.65v36.18c0 3.48-.8 6.43-2.4 8.84-1.6 2.44-3.84 4.28-6.71 5.53-2.85 1.27-6.19 1.91-10.02 1.91a21.3 21.3 0 0 1-5.18-.66c-1.76-.42-3.41-1.04-4.94-1.88s-2.82-1.87-3.86-3.1l4.91-6.89c.95 1.07 2.15 1.97 3.58 2.71 1.44.77 3.13 1.15 5.08 1.15 1.69 0 3.11-.3 4.24-.9 1.16-.6 2.04-1.48 2.64-2.64.6-1.14.9-2.52.9-4.14v-27.21l1.11-8.91zm-25.01 19.27v-.73a27.3 27.3 0 0 1 1.04-7.79c.72-2.37 1.74-4.4 3.06-6.09 1.35-1.72 2.97-3.04 4.87-3.97a14.5 14.5 0 0 1 6.44-1.39c2.57 0 4.69.5 6.33 1.5a10.8 10.8 0 0 1 4 4.1c1.02 1.76 1.81 3.83 2.37 6.19.58 2.34 1.07 4.87 1.46 7.58v.87c-.39 2.55-.94 4.96-1.64 7.24a24.3 24.3 0 0 1-2.64 5.98 12.4 12.4 0 0 1-4.11 4.11c-1.62.97-3.57 1.46-5.84 1.46a14.1 14.1 0 0 1-6.4-1.43 14.3 14.3 0 0 1-4.84-4c-1.32-1.72-2.34-3.73-3.06-6.05a26.3 26.3 0 0 1-1.04-7.59zm11.72-.73v.73a19 19 0 0 0 .38 3.93c.28 1.21.7 2.27 1.25 3.2.56.91 1.24 1.61 2.05 2.12a5.5 5.5 0 0 0 2.92.77 7.1 7.1 0 0 0 4.11-1.08 6 6 0 0 0 2.26-3.06c.46-1.32.66-2.88.59-4.66v-2.75c.05-1.53-.06-2.88-.31-4.04a8 8 0 0 0-1.22-2.96 4.9 4.9 0 0 0-2.16-1.77c-.88-.42-1.95-.63-3.2-.63a5.4 5.4 0 0 0-2.89.77 6.2 6.2 0 0 0-2.09 2.16c-.56.9-.99 1.98-1.29 3.24-.28 1.23-.42 2.57-.42 4.04zm-324.24 72.44h9.95l11.31 35.24 11.31-35.24h9.95l-17.22 50.65h-8.07l-17.22-50.65zm-6.05 0h10.3l1.91 38.83v11.83h-12.21v-50.65zm44.32 0h10.33v50.65h-12.25v-11.83l1.91-38.83zm37.16 41.19v-15.52a7.5 7.5 0 0 0-.45-2.75c-.3-.77-.78-1.36-1.43-1.77-.65-.44-1.52-.66-2.61-.66-.88 0-1.63.15-2.26.45a3.1 3.1 0 0 0-1.43 1.36c-.32.6-.49 1.37-.49 2.3H183.7a10.4 10.4 0 0 1 1.15-4.84c.79-1.51 1.9-2.82 3.34-3.93 1.46-1.11 3.2-1.97 5.22-2.57a23.2 23.2 0 0 1 6.82-.94c2.99 0 5.66.5 8 1.5a12.5 12.5 0 0 1 5.6 4.49c1.37 1.97 2.05 4.45 2.05 7.44v15.41c0 2.46.14 4.32.42 5.6a12.9 12.9 0 0 0 1.18 3.31v.59h-11.76c-.56-1.16-.97-2.57-1.25-4.24a35 35 0 0 1-.38-5.22zm1.43-13.53l.07 6.26h-5.18a7.6 7.6 0 0 0-2.78.45 4.7 4.7 0 0 0-1.81 1.25c-.44.51-.77 1.09-.97 1.74a7.4 7.4 0 0 0-.28 2.05c0 .7.16 1.32.49 1.88a3.6 3.6 0 0 0 1.39 1.25c.58.3 1.23.45 1.95.45a6.9 6.9 0 0 0 3.31-.73c.93-.51 1.64-1.12 2.12-1.84s.73-1.39.73-2.02l2.57 4.8a32 32 0 0 1-1.6 2.82c-.58.95-1.31 1.83-2.19 2.64-.86.79-1.91 1.44-3.17 1.95a12.6 12.6 0 0 1-4.56.73 14.4 14.4 0 0 1-6.4-1.43c-1.92-.95-3.47-2.27-4.63-3.97a10.3 10.3 0 0 1-1.74-5.91c0-1.95.35-3.69 1.04-5.22a10.2 10.2 0 0 1 3.23-3.9c1.44-1.07 3.27-1.88 5.5-2.44s4.85-.84 7.86-.84h5.04zm38.51 14.37v-44.81h11.79v53.44h-10.58l-1.22-8.63zm-23.1-9.74v-.73c0-2.85.31-5.45.94-7.79.63-2.37 1.55-4.4 2.78-6.09 1.23-1.72 2.76-3.04 4.59-3.97s3.94-1.39 6.33-1.39c2.13 0 4 .5 5.6 1.5 1.6.97 2.97 2.34 4.11 4.1s2.06 3.83 2.78 6.19c.72 2.34 1.26 4.87 1.63 7.58v.87c-.37 2.55-.92 4.96-1.63 7.24-.72 2.25-1.65 4.24-2.78 5.98s-2.52 3.11-4.14 4.11c-1.6.97-3.48 1.46-5.64 1.46-2.39 0-4.5-.47-6.33-1.43a13 13 0 0 1-4.56-4c-1.21-1.72-2.12-3.73-2.75-6.05a29 29 0 0 1-.94-7.59zm11.72-.73v.73c0 1.42.09 2.73.28 3.93a11.5 11.5 0 0 0 .94 3.2c.46.91 1.07 1.61 1.81 2.12.77.51 1.7.77 2.82.77a6.1 6.1 0 0 0 3.72-1.08c1-.72 1.73-1.74 2.19-3.06a12.1 12.1 0 0 0 .63-4.66v-2.75a16.6 16.6 0 0 0-.31-4.04 8 8 0 0 0-1.22-2.96c-.53-.79-1.22-1.38-2.05-1.77-.81-.42-1.77-.63-2.89-.63a4.9 4.9 0 0 0-2.78.77c-.74.51-1.35 1.23-1.81 2.16-.46.9-.8 1.98-1.01 3.24-.21 1.23-.31 2.57-.31 4.04zm48.04 19.79c-3.06 0-5.8-.47-8.21-1.43-2.41-.97-4.45-2.31-6.12-4-1.65-1.69-2.91-3.64-3.79-5.85a19.1 19.1 0 0 1-1.29-6.99v-1.32a24.5 24.5 0 0 1 1.15-7.65c.76-2.37 1.9-4.43 3.41-6.19a15.2 15.2 0 0 1 5.67-4.1 19.6 19.6 0 0 1 7.93-1.5 18.9 18.9 0 0 1 7.17 1.29 14.6 14.6 0 0 1 5.36 3.69c1.48 1.6 2.61 3.54 3.37 5.81.79 2.27 1.18 4.82 1.18 7.65v4.77h-30.75v-7.34h19.31v-.9c.02-1.25-.2-2.32-.66-3.2-.44-.88-1.09-1.55-1.95-2.02a6.5 6.5 0 0 0-3.13-.7 5.6 5.6 0 0 0-3.17.83c-.81.56-1.45 1.32-1.91 2.3a12.1 12.1 0 0 0-.94 3.31c-.19 1.25-.28 2.57-.28 3.97v1.32c0 1.39.19 2.65.56 3.79a8.6 8.6 0 0 0 1.67 2.92 7.9 7.9 0 0 0 2.64 1.84c1.04.44 2.23.66 3.55.66a13 13 0 0 0 4.73-.91c1.55-.6 2.89-1.6 4-2.99l5.32 6.33c-.76 1.09-1.85 2.15-3.27 3.17-1.39 1.02-3.06 1.86-5.01 2.5a21.3 21.3 0 0 1-6.54.94zm79.56-12.44l-2.04 11.74h-32.83l2.04-11.74h32.83zm-18.52-51.58l-11 63.32h-14.87l10.96-63.32h14.92zm18.87 25.13l-1.96 11.35h-28.61l2-11.35h28.57zm8.7-25.13l-2.04 11.78H334.3l2.09-11.78h32.92zm29.57 14.05l-23.31 49.27h-16.48l33.57-63.32h10.52l-4.31 14.05zm4 49.27l-6.44-50.79.35-12.52h9.92l11.7 63.32h-15.52zm3.39-23.61l-2.09 11.78h-31.62l2.09-11.78h31.62zm51.45 6.48c.26-1.36.16-2.52-.3-3.48a6.2 6.2 0 0 0-2-2.44c-.87-.67-1.87-1.23-3-1.7-1.1-.49-2.18-.94-3.22-1.35-2.26-.9-4.49-1.91-6.7-3.04a31.3 31.3 0 0 1-6-4.09c-1.8-1.57-3.2-3.39-4.22-5.48-.99-2.09-1.41-4.54-1.26-7.35.2-3.22 1.12-5.99 2.74-8.31a19.1 19.1 0 0 1 6.22-5.65 29.2 29.2 0 0 1 8.22-3.22c2.96-.7 5.84-1.01 8.65-.96 4 .06 7.57.87 10.7 2.44a17.8 17.8 0 0 1 7.44 6.74c1.8 2.9 2.67 6.41 2.61 10.52h-14.74c.06-1.62-.16-3.03-.65-4.22-.46-1.22-1.23-2.16-2.31-2.83a7.8 7.8 0 0 0-4.17-1.09 12.2 12.2 0 0 0-4.26.69 9.7 9.7 0 0 0-3.7 2.18 6.8 6.8 0 0 0-2 3.83c-.2 1.19-.01 2.23.56 3.13a7.8 7.8 0 0 0 2.39 2.26 21.5 21.5 0 0 0 3.18 1.57l2.96 1.13a50.5 50.5 0 0 1 6.83 3.18c2.2 1.19 4.15 2.59 5.83 4.22 1.71 1.62 3.01 3.52 3.91 5.7.93 2.15 1.3 4.64 1.13 7.48-.23 3.28-1.1 6.07-2.61 8.39a18.1 18.1 0 0 1-5.83 5.65 26.6 26.6 0 0 1-7.83 3.18c-2.84.67-5.73.99-8.65.96a31.2 31.2 0 0 1-9.18-1.48 22.4 22.4 0 0 1-7.44-4.13 18.6 18.6 0 0 1-4.91-6.7c-1.16-2.67-1.71-5.73-1.65-9.18l14.92.04c-.09 1.62.01 3.06.31 4.31a7.6 7.6 0 0 0 1.56 3.09c.75.81 1.73 1.44 2.91 1.87a13.4 13.4 0 0 0 4.31.61c1.42 0 2.78-.22 4.09-.65 1.33-.46 2.46-1.17 3.39-2.13s1.52-2.19 1.78-3.7zm41.36-46.18l6.52 27.4 16.05-27.4h16.7l-27.27 41.27-3.78 22.05h-15.18l4.09-23.48-12.7-39.79 15.57-.04zm58.23 43.27l-12 .09c.14-2.23.46-4.33.96-6.31.52-1.97 1.3-3.81 2.35-5.52 1.07-1.71 2.51-3.28 4.31-4.7a71.6 71.6 0 0 0 3.52-2.83 20.1 20.1 0 0 0 3.13-3.35c.9-1.22 1.46-2.6 1.7-4.13a9.5 9.5 0 0 0 .04-3c-.14-.96-.52-1.73-1.13-2.31-.61-.61-1.54-.93-2.78-.96-1.36-.03-2.51.32-3.44 1.04a7.6 7.6 0 0 0-2.13 2.78 15.9 15.9 0 0 0-1.09 3.39l-14.35.09c.32-4.06 1.46-7.47 3.44-10.22a18.5 18.5 0 0 1 7.78-6.26 25.8 25.8 0 0 1 10.74-2c3.45.09 6.57.77 9.35 2.04 2.78 1.25 4.94 3.12 6.48 5.61 1.54 2.46 2.17 5.55 1.91 9.26a14.2 14.2 0 0 1-2.22 6.96c-1.28 2-2.84 3.81-4.7 5.44-1.86 1.6-3.74 3.15-5.65 4.65a17.2 17.2 0 0 0-4.18 4.48c-.98 1.6-1.67 3.51-2.04 5.74zm-16.53 13.52c-.06-2.26.7-4.1 2.26-5.52a8.4 8.4 0 0 1 5.65-2.17 8.3 8.3 0 0 1 5.48 1.96c1.57 1.31 2.36 3.03 2.39 5.18a6.8 6.8 0 0 1-2.31 5.52c-1.56 1.42-3.43 2.13-5.61 2.13a8.1 8.1 0 0 1-5.48-1.91 6.7 6.7 0 0 1-2.39-5.18z" fill="#5b5b5b"/><g filter="url(#D)"><path d="M323 71.25a11.9 11.9 0 0 0-11.87-11.87H0v89.06h311.13A11.9 11.9 0 0 0 323 136.56V71.25z" fill="#3886e7"/><path d="M44.04 90.8v25.33h-6.09V90.8h6.09zm9.78 10.52v14.8h-5.86V97.3h5.5l.37 4.02zm-.7 4.75l-1.37.03a13 13 0 0 1 .52-3.84 8.5 8.5 0 0 1 1.48-2.89 6.3 6.3 0 0 1 2.28-1.79c.89-.42 1.88-.63 2.97-.63a7.1 7.1 0 0 1 2.38.38c.73.26 1.36.67 1.88 1.24.53.57.94 1.32 1.22 2.26a11.7 11.7 0 0 1 .43 3.44v11.85h-5.9v-11.86c0-.75-.1-1.33-.31-1.72-.21-.41-.51-.68-.9-.83s-.88-.23-1.44-.23a3.1 3.1 0 0 0-1.53.35 2.7 2.7 0 0 0-1.01.97c-.24.41-.42.89-.54 1.44-.1.56-.16 1.17-.16 1.83zm24.96-8.77v4.07H66.74V97.3h11.34zm-8.96-4.68h5.86v17.36c0 .5.06.89.17 1.17.12.27.31.46.59.57.29.1.67.16 1.15.16l.83-.02.63-.09v4.19c-.5.16-1.02.28-1.57.37-.55.09-1.12.14-1.74.14-1.25 0-2.33-.2-3.22-.59a4.2 4.2 0 0 1-2.02-1.86c-.46-.85-.7-1.95-.7-3.3V92.62zm17.2 9.34v14.16h-5.86V97.3h5.48l.38 4.66zm5.57-4.8l-.1 5.44-.94-.09-.99-.05c-.68 0-1.28.08-1.77.24a3 3 0 0 0-1.22.7c-.31.3-.55.68-.7 1.15a5.3 5.3 0 0 0-.19 1.62l-1.06-.7a15 15 0 0 1 .37-3.44c.26-1.04.61-1.94 1.08-2.7.46-.77 1.03-1.35 1.69-1.76a4.1 4.1 0 0 1 2.23-.63c.29 0 .57.02.85.05.29.03.55.09.77.16zm.66 9.74v-.37c0-1.38.2-2.65.59-3.81.39-1.17.97-2.19 1.74-3.04a7.8 7.8 0 0 1 2.84-2c1.12-.49 2.42-.73 3.9-.73 1.48 0 2.79.24 3.91.73a7.8 7.8 0 0 1 2.85 2c.77.86 1.35 1.87 1.74 3.04.39 1.16.59 2.43.59 3.81v.37c0 1.37-.2 2.64-.59 3.81-.39 1.16-.97 2.17-1.74 3.04a7.8 7.8 0 0 1-2.84 2c-1.12.47-2.42.71-3.9.71s-2.78-.24-3.91-.71a7.8 7.8 0 0 1-2.85-2c-.77-.87-1.35-1.88-1.74-3.04-.39-1.17-.59-2.44-.59-3.81zm5.86-.37v.37c0 .71.05 1.37.16 1.98a5.4 5.4 0 0 0 .52 1.62c.24.45.57.81.99 1.06s.94.38 1.57.38c.61 0 1.13-.13 1.53-.38.42-.26.75-.61.99-1.06.24-.46.42-1 .52-1.62a11.9 11.9 0 0 0 .16-1.98v-.37c0-.68-.05-1.33-.16-1.93-.1-.61-.28-1.15-.52-1.62a2.8 2.8 0 0 0-.99-1.11c-.42-.27-.94-.4-1.56-.4-.61 0-1.13.13-1.55.4-.41.27-.73.64-.97 1.11a5.4 5.4 0 0 0-.52 1.62c-.1.6-.16 1.25-.16 1.93zm25.73 5.27v-22.4h5.9v26.72h-5.29l-.61-4.31zm-11.55-4.87v-.36a15.1 15.1 0 0 1 .47-3.9 9.1 9.1 0 0 1 1.39-3.04 6.3 6.3 0 0 1 2.3-1.98 6.9 6.9 0 0 1 3.17-.7 5.2 5.2 0 0 1 2.8.75 6.4 6.4 0 0 1 2.05 2.05c.57.88 1.03 1.91 1.39 3.1a24 24 0 0 1 .82 3.79v.44c-.19 1.28-.46 2.48-.82 3.62-.36 1.13-.82 2.12-1.39 2.99a6.6 6.6 0 0 1-2.07 2.05 5.3 5.3 0 0 1-2.82.73c-1.19 0-2.25-.24-3.16-.71a6.5 6.5 0 0 1-2.28-2c-.6-.86-1.06-1.87-1.37-3.03s-.47-2.42-.47-3.79zm5.86-.36v.36c0 .71.05 1.36.14 1.97s.25 1.14.47 1.6c.23.45.53.81.9 1.06.38.25.85.38 1.41.38.75 0 1.38-.18 1.86-.54.5-.36.86-.87 1.1-1.53.24-.66.35-1.44.31-2.33v-1.37a8.3 8.3 0 0 0-.16-2.02c-.13-.59-.33-1.08-.61-1.48a2.5 2.5 0 0 0-1.03-.89c-.41-.21-.89-.31-1.44-.31-.55 0-1.01.13-1.39.38-.37.25-.67.61-.91 1.08a5.5 5.5 0 0 0-.5 1.62c-.11.61-.16 1.29-.16 2.02zm25.9 4.97V97.3h5.88v18.82h-5.5l-.38-4.58zm.56-3.83l1.53-.03a13 13 0 0 1-.45 3.51 8.4 8.4 0 0 1-1.34 2.78 6.1 6.1 0 0 1-2.16 1.84 6.4 6.4 0 0 1-2.94.64c-.93 0-1.78-.13-2.56-.38-.76-.27-1.43-.68-1.98-1.23-.56-.57-.99-1.29-1.3-2.17-.3-.89-.45-1.96-.45-3.2V97.3h5.86v12.21a3.3 3.3 0 0 0 .16 1.08 2.1 2.1 0 0 0 .45.77c.2.2.44.35.73.45.3.09.64.14 1.03.14a3.4 3.4 0 0 0 2.07-.56 2.9 2.9 0 0 0 1.04-1.51 6.9 6.9 0 0 0 .31-2.16zm16.51 4.23a3 3 0 0 0 1.39-.3c.39-.21.69-.5.89-.87a2.7 2.7 0 0 0 .29-1.37h5.51c.01 1.41-.34 2.66-1.04 3.72-.7 1.06-1.65 1.88-2.85 2.47-1.19.58-2.54.87-4.05.87a9.7 9.7 0 0 1-3.86-.71c-1.1-.49-2.02-1.16-2.77-2.02a8.9 8.9 0 0 1-1.65-3.04c-.36-1.16-.54-2.42-.54-3.77v-.4c0-1.36.18-2.61.54-3.77a8.7 8.7 0 0 1 1.65-3.04 7.5 7.5 0 0 1 2.75-2.02c1.1-.49 2.38-.73 3.84-.73a9.2 9.2 0 0 1 4.14.89 6.7 6.7 0 0 1 2.84 2.57 7.6 7.6 0 0 1 1.01 4.09H164c.01-.57-.07-1.08-.26-1.53s-.47-.81-.87-1.08c-.38-.28-.88-.42-1.48-.42s-1.09.13-1.46.4-.66.64-.85 1.11c-.19.46-.31 1-.38 1.6l-.09 1.93v.4l.09 1.97c.07.6.2 1.14.4 1.6.2.45.48.81.85 1.08.37.25.86.38 1.48.38zm20.51-14.65v4.07h-11.34V97.3h11.34zm-8.96-4.68h5.86v17.36c0 .5.06.89.17 1.17.12.27.31.46.59.57.29.1.67.16 1.15.16l.83-.02.63-.09v4.19c-.5.16-1.02.28-1.57.37-.54.09-1.12.14-1.74.14-1.25 0-2.32-.2-3.22-.59a4.2 4.2 0 0 1-2.02-1.86c-.46-.85-.7-1.95-.7-3.3V92.62zm17.48 4.68v18.82h-5.88V97.3h5.88zm-6.23-4.85c0-.84.3-1.52.9-2.05s1.39-.8 2.35-.8 1.75.27 2.35.8.9 1.22.9 2.05-.3 1.52-.9 2.05-1.39.8-2.35.8-1.75-.27-2.35-.8-.9-1.22-.9-2.05zm9.12 14.46v-.37c0-1.38.2-2.65.59-3.81.39-1.17.97-2.19 1.74-3.04a7.8 7.8 0 0 1 2.84-2c1.13-.49 2.42-.73 3.9-.73 1.49 0 2.79.24 3.91.73 1.14.48 2.09 1.14 2.85 2a8.7 8.7 0 0 1 1.74 3.04c.39 1.16.59 2.43.59 3.81v.37c0 1.37-.2 2.64-.59 3.81a8.9 8.9 0 0 1-1.74 3.04 7.8 7.8 0 0 1-2.84 2c-1.12.47-2.42.71-3.9.71s-2.78-.24-3.91-.71a7.8 7.8 0 0 1-2.85-2c-.77-.87-1.35-1.88-1.74-3.04-.39-1.17-.59-2.44-.59-3.81zm5.86-.37v.37a11.9 11.9 0 0 0 .16 1.98c.1.61.28 1.15.52 1.62.24.45.57.81.99 1.06s.94.38 1.57.38c.61 0 1.13-.13 1.53-.38.42-.26.75-.61.99-1.06a5.4 5.4 0 0 0 .52-1.62 11.8 11.8 0 0 0 .16-1.98v-.37c0-.68-.05-1.33-.16-1.93a5.4 5.4 0 0 0-.52-1.62c-.24-.48-.58-.85-.99-1.11s-.94-.4-1.57-.4c-.61 0-1.13.13-1.55.4-.41.27-.73.64-.97 1.11-.24.46-.42 1-.52 1.62-.1.6-.16 1.25-.16 1.93zm20.66-5.22v14.8h-5.86V97.3h5.5l.36 4.02zm-.7 4.75l-1.37.03a13 13 0 0 1 .52-3.84 8.5 8.5 0 0 1 1.48-2.89 6.3 6.3 0 0 1 2.28-1.79c.89-.42 1.89-.63 2.97-.63a7.1 7.1 0 0 1 2.38.38c.73.26 1.36.67 1.88 1.24.53.57.94 1.32 1.22 2.26a11.7 11.7 0 0 1 .44 3.44v11.85h-5.9v-11.86c0-.75-.1-1.33-.31-1.72-.21-.41-.51-.68-.9-.83s-.88-.23-1.44-.23a3.1 3.1 0 0 0-1.53.35 2.7 2.7 0 0 0-1.01.97c-.24.41-.42.89-.54 1.44a9.9 9.9 0 0 0-.16 1.83z" fill="#fff"/></g><g clip-path="url(#K)"><path opacity=".95" d="M823.12 214.68H878a9.1 9.1 0 0 0 9.1-9.14V157.7a9.1 9.1 0 0 0-9.1-9.14h-54.88a9.1 9.1 0 0 0-9.09 9.14v47.85a9.1 9.1 0 0 0 9.09 9.14z" fill="url(#H)"/><path d="M845.6 142.77s-4.67 2.58-3.19 8.91 2.05 7.17.84 9.73-2.26 13.29-.98 15.25 14.31-9.57 15.76-18.8-1.81-13.15-2.97-14.61-5.35-2.83-9.47-.48z" fill="#344052"/><path d="M836.83 195.12h5l.42-4.46c-.07-.42 4.98-13.72 5.45-14.83s2.32-4.05 2.57-6.83-3.36-3.9-3.36-3.9c-4.87.88-6.52 7.64-6.52 7.64s-2.04 13.72-3.08 17.58c-.27.99-.41 2.74-.47 4.79z" fill="#eea886"/><g fill="#eb4747"><path d="M839.35 176.05l7.44 3.15s6.84-17.06 1.11-15.16c-5.72 1.9-8.29 5.47-8.55 12z"/><path d="M841 184.09l.91 9.31c-.03.27-.14.88-.31 1.72h17.95l-1.17-4.11c-.87-2.91-.04-3.68.4-6.01.17-.91.77-2.64 1.43-4.59l.66-2.01c.79-2.46 1.16-4.97 1.38-6.44 1.08-6.94-4.23-7.61-4.23-7.61-1.97-.36-5.42-1.44-5.42-1.44l-5.4 1.13s-.51.19-1.26.75a10 10 0 0 0-1.22 1.07c-.59.61-1.76 2.35-2.94 4.27l-1.06 1.78c-1.1 1.91-1.88 3.45-1.85 5.19.02 1.71 1.91 5.28 2.12 6.98z"/></g><g fill="#eea886"><path d="M847.21 164.06s-3.38 5.81-2.12 6.24 7.89-1.03 10.48-6.52c0 0-4.35-1.99-8.35.28z"/><path d="M847.71 166.71s3 1.28 5.73-2.93c0 0-.73-4.78.81-7.54s-6.76 3.31-6.76 3.31l.27 1.41.2 1.46.1 1.37c.03 1.07-.04 2.14-.36 2.91z"/></g><path d="M855.16 173.22c.62 3.2 5.06 7.2 5.06 7.2l.66-2.01c-3.06-1.96-5.72-5.19-5.72-5.19z" fill="#393d63"/><path d="M856.27 175.76a178.4 178.4 0 0 1 1.44 13.37c-.08.23-.71 2.96-1.34 5.99h5.79c.59-1.96.95-3.58.86-4.5-.37-3.98.97-16.67.97-16.67s1.2-7.68-5.14-8.64c0 0-3.74.5-3.97 3.27s1.1 6 1.38 7.16z" fill="#eea886"/><path d="M864.47 177.39l-7.87 1.85s-6.24-12.18-.62-14.4c5.93-2.34 9.91 5.91 8.49 12.55z" fill="#eb4747"/><path d="M846.33 143.43s-6.84 2.52-2.5 14.38 13.18-2.02 11.84-9.31-9.34-5.07-9.34-5.07z" fill="#eea987"/><path d="M842.78 150.65s3.61 3.24 9.4 3.39l1.57 4.33s5.72-9.87-.86-14.86-12.54 5.07-10.12 7.14z" fill="#344052"/><path d="M851.39 154.74c0-.88.45-2.9 1.77-2.4s.14 4.62-.73 4.41c0 0-1.04.06-1.04-2.01z" fill="#eea987"/><path d="M848.05 163.6a7.3 7.3 0 0 0 4.49-4.07c-2.61 3.39-4.58 2.91-4.58 2.91l.09 1.17z" fill="#a77860"/><g fill="#4598e6"><path d="M847.94 202.17h5.8v1.08h-5.8v-1.08zm-14.75-41.65v1.06h-6.18v5.83h-1.05v-6.88h7.23zm41.96 6.88h-1.05v-5.83h-6.18v-1.06h7.23v6.88zm-48.14 30.07v5.83h6.18v1.06h-7.23v-6.88h1.05zm47.09 0h1.05v6.88h-7.23v-1.06h6.18v-5.83z"/></g><path opacity=".95" d="M676.34 300.03h100.81c6.59 0 11.94-5.36 11.94-11.96V165.34c0-6.61-5.35-11.96-11.94-11.96H676.34c-6.59 0-11.94 5.36-11.94 11.96v122.73c0 6.61 5.35 11.96 11.94 11.96z" fill="url(#I)"/><g fill="#4598e6"><path d="M722.95 239.97h9.88v1.84h-9.88v-1.84zm-25.14-72.02v1.8h-10.54v9.93h-1.79v-11.73h12.32zm71.54 11.73h-1.79v-9.93h-10.53v-1.8h12.32v11.73zm-82.08 51.26v9.94h10.54v1.8h-12.32v-11.74h1.79 0zm80.29 0h1.79v11.74h-12.32v-1.8h10.53v-9.94z"/></g><path d="M691.55 230.13h5.99l.27-.62c1.78-4.22 10.94-13.89 10.94-13.89v.02c.01.01.01.02.01.02 0 .01.01.03.01.04.01.02.01.05.02.08 0 .02.01.04.01.05s.01.03.01.04a161.8 161.8 0 0 1 3.14 14.25h40.55c.09-.54.2-1.05.33-1.53a33 33 0 0 0 .78-4.21c0-.07.02-.13.02-.2l.08-.73c.35-3.66.09-6.46.07-6.74.12.25.93 3.26 2.01 6.99l1.92 6.43h9.57l-12.02-34.83c-.26-.21-3.38-1.72-5.66-2.81-2.32-1.11-5.12-2.74-7.65-4.13-1.29-.71-2.51-1.36-3.57-1.84l-.16-.07h0l-2.91-1.33-.76-.07-12.55-1.09c-.21-.02-.38-.02-.52-.03a2.1 2.1 0 0 0-.25 0c-.32.02-1.88.57-3.93 1.35-.08.03-.16.06-.24.09l-.29.11-.54.21-1.13.44c-.13.05-.27.1-.4.16-4.1 1.64-8.81 3.66-9.92 4.47-.74.53-3.04 4.88-5.7 10.27-2.87 9.23-6.38 22.55-7.53 29.12z" fill="#decbc4"/><path d="M721.3 182.72c.11 5.48 10.66 8.47 10.66 8.47s4.41-5.56 3.36-6.09c-.41-.21-.58-1.04-.63-1.97-.05-.89.01-1.86.06-2.48l.06-.64s-1.51-1.6-3.43-3.5c-3.35-3.33-7.96-7.6-7.97-5.9 0 .09.01.2.04.32.81 3.82-2.15 11.79-2.15 11.79z" fill="#eea886"/><path d="M725.37 174.69a26.5 26.5 0 0 0 1.23 1.67c1.62 2.05 4.67 5.41 8.09 6.76a19.4 19.4 0 0 1 .06-2.48 5.5 5.5 0 0 0 1.05-.13c-.94-1.65-2.29-3.37-2.29-3.37l-2.12-.64-6.02-1.81z" fill="#a77860"/><path d="M723.35 170.68l2.03 4.02a7.1 7.1 0 0 0 1.23 1.67c1.74 1.88 4.97 4.37 8.15 4.28.35-.01.7-.05 1.05-.13 1.28-.28 2.8-.88 3.63-2.52 6.58-12.95 1.82-23.54 1.82-23.54s-18-5.12-20.82.33c-1.98 3.82.77 11.21 2.91 15.89z" fill="#eea886"/><path d="M741.25 154.46s1.67-.09 2.09-3.28c.41-3.15-.42-4.02-.42-4.02s-7.43-3.13-10.1-3.53-9.23-.8-10.77.97c0 0-3.74-.87-4.76 5.36-1.62 9.89 5.5 19.49 5.5 19.49s-.06-6.46 1.36-7.32 2.64 1.18 2.64 1.18l2.9.52s-4.41-9.56.88-9.91 7.65 1.09 10.67.53z" fill="#e8734d"/><path d="M726.72 160.74c-.28-2.85-5.4-3.93-5.06-.95s2.87 5.85 4.03 5.75 1.23-2.63 1.02-4.8z" fill="#eea886"/><g fill="#3c4145"><path d="M696.72 201.28c1.67-5.37 3.11-9.62 3.75-10.08 1.12-.81 10.01-3.26 14.23-4.92l.4-.16 1.13-.44.54-.21.29-.11.23-.09s.01.02.02.02a69.5 69.5 0 0 1 4.66 5.98c4.36 6.22 10.04 16.31 9.17 25.62l-1.2 12.09-.14 1.15h-19.67c-.24-5.04-.67-11.68-1.31-14.25 0-.02-.01-.03-.01-.04s0-.04-.01-.05c0-.03-.01-.05-.02-.08-.01-.02-.01-.03-.02-.04s-.01-.02-.01-.02-4.76 7.48-5.01 14.49h-12.38c.61-6.51 2.5-19.64 5.36-28.86zm41.59-14.71s1.49 4.97 3.41 17.37l.2 1.28.02.15.13.87.01.1.09.6.22 1.5a902.6 902.6 0 0 1 2.65 21.69h7.78c.42-2.38.82-4.55.79-6.04.02.03.03.07.04.1l2 5.44.19.5h13.4l-13.35-35.09c-.27-.21-3.7-2.07-5.98-3.15l-8.03-3.77-3.48-1.61-.08.06z"/></g><g fill="#51565c"><path d="M720.23 198.84l5.14 2.91-2.19 2.25 4.82 26.13h1.81c.67-5.28 1.05-10.02 1.35-13.25 1.34-14.4-12.96-30.64-13.85-31.63l-2.2.85 5.12 12.73zm18-12.41s1.92 6.29 4.15 22.01a889.5 889.5 0 0 1 2.66 21.69h.76l1-24.68-2.45-2.66 2.17-2.73-4.65-11.94-3.48-1.61-.16-.07z"/></g><g fill="#f5e2d9"><path d="M717.05 185.32l4.26-2.6s.12 2.34 10.66 8.47l-2.99 8.47-11.92-14.35z"/><path d="M734.77 183.9s-.17 2.53-2.8 7.29l5.84 7.65.43-12.41-3.46-2.53z"/></g><g fill="#d44040"><path d="M731.95 191.19s-1.13 4.55-.73 5.82c0 0 2.49.91 4.28-.23 0 0-1.27-3.19-3.55-5.6z"/><path d="M733.33 206.66a115 115 0 0 1 .75 23.46h4.99l.19-3.1c.93-16.18-4.77-30.65-4.77-30.65l-2.54-.64 1.37 10.92z"/></g><path d="M753.45 216.75l.16 7.33.01.3.02-.19 2 5.44a58.4 58.4 0 0 0 .15-5.93c-.28-10.89-3.68-16.6-3.68-16.6.78 1.9 1.16 5.97 1.34 9.65z" fill="#2d3133"/><path d="M698.2 267.27v16.39h-3.63v-16.39h3.63zm6.1 6.29v2.71h-6.29v-2.71h6.29zm3.35-6.29v16.39h-3.61v-16.39h3.61zm8.68 4.35c1.47 0 2.65.21 3.54.62.89.4 1.52 1.04 1.9 1.95a9.2 9.2 0 0 1 .59 3.63c0 1.49-.2 2.68-.59 3.59-.38.9-1.01 1.55-1.9 1.95a8.8 8.8 0 0 1-3.54.59c-1.46 0-2.63-.2-3.51-.59s-1.53-1.04-1.92-1.95-.59-2.1-.59-3.59a9.2 9.2 0 0 1 .59-3.63c.39-.9 1.04-1.55 1.92-1.95.89-.41 2.06-.62 3.51-.62zm0 2.54a2.8 2.8 0 0 0-1.42.31c-.35.21-.59.57-.74 1.09a9.1 9.1 0 0 0-.21 2.26c0 .95.07 1.69.21 2.21s.39.89.74 1.09a3 3 0 0 0 1.42.28c.62 0 1.1-.09 1.45-.28.35-.21.59-.57.71-1.09.14-.52.21-1.26.21-2.21 0-.98-.07-1.73-.21-2.26-.13-.52-.37-.89-.71-1.09s-.83-.31-1.45-.31zm26.69-2.23l-2.9 10.81c-.06.28-.21.51-.43.69-.22.16-.48.24-.78.24h-2.66c-.32 0-.59-.1-.83-.29-.24-.21-.37-.47-.4-.78l-1.31-6.63-.12-.97a11 11 0 0 0-.14-.97h-.28l-.14.97-.14.97-1.28 6.63c-.05.32-.19.58-.43.78-.24.19-.51.29-.83.29h-2.64c-.28 0-.54-.08-.76-.24-.22-.17-.36-.4-.43-.69l-2.9-10.81h3.51l1.62 7.6.17.97.12.95h.31l.14-.95.17-.97 1.31-6.56c.03-.3.16-.55.38-.74.24-.21.51-.31.83-.31h2.28c.32 0 .59.1.81.31.24.19.38.44.43.76l1.26 6.53.17.95.17.97h.29l.14-.95.17-.97 1.62-7.6h3.54zm11.59-5.18c1.73 0 3.01.3 3.85.9.84.59 1.26 1.51 1.26 2.78 0 .7-.14 1.3-.43 1.81a6.2 6.2 0 0 1-1.02 1.4l-1.24 1.28a7.2 7.2 0 0 0-1.09 1.5 5.1 5.1 0 0 0-.55 2.04h-2.83a6.2 6.2 0 0 1 .26-2.19c.22-.63.5-1.19.83-1.66a12.5 12.5 0 0 1 1.02-1.28c.35-.4.64-.77.88-1.12.25-.35.4-.71.43-1.09.06-.54-.09-.93-.45-1.16-.35-.25-.93-.38-1.76-.38l-1.95.02-1.4.02-1.45.07-.12-2.37 1.24-.21 1.14-.19c.41-.06.88-.1 1.4-.12l1.97-.05zm-.21 13.3c.46 0 .78.1.95.29.17.17.26.49.26.95v1.14c0 .46-.09.78-.26.97-.17.17-.49.26-.95.26h-.83c-.46 0-.78-.09-.97-.26-.17-.19-.26-.51-.26-.97v-1.14c0-.46.09-.78.26-.95.19-.19.51-.29.97-.29h.83z" fill="#1b1c17"/><g fill="#093542"><path d="M944.52 422.97h14.04l24.5 74.78h-1.89l-36.65-74.78zm-36.75 0h-14.05l-24.49 74.19h1.88l36.66-74.19zm30.55 73h2.33l4.47-68.26h-11.26l4.47 68.26z"/></g><g fill="#6a89ce"><path d="M1019.04 344.65l-38.11 71.57h-63.49c-1.23 0-11.28-.82-11.86-.01l45.55-85.53c4.39-8.25 12.99-13.42 22.35-13.42h29.08a18.3 18.3 0 0 1 1.87.1c13.01 1.23 20.93 15.43 14.62 27.3z"/><path d="M980.93 416.21a28 28 0 0 1-24.92 15.28h-79.09a12.4 12.4 0 0 1-10.94-6.56l-.22-.43a12.2 12.2 0 0 1-1.26-5.45v-.18c.01-1.48 1.2-2.66 2.67-2.66l113.76-.01z"/></g><path d="M1019.03 344.65l-38.11 71.57a28 28 0 0 1-24.92 15.28h-79.09a12.4 12.4 0 0 1-10.94-6.56c3.51-1.66 9.86-.46 13.42-.47 21.35-.04 45.73 3.14 64.45-8.25a45.5 45.5 0 0 0 8.64-6.79c12.22-12.19 20.08-28.39 27.21-43.7 7.61-16.35 15.41-32.85 24.72-48.38 13.01 1.23 20.92 15.43 14.61 27.3z" fill="#4f72b2"/><path d="M877.77 328.93c0-7.41.91-13.31 2.72-17.71s5.13-8.72 9.96-12.98 8.03-7.74 9.63-10.4c1.57-2.55 2.39-5.47 2.4-8.47 0-8.95-4.15-13.42-12.47-13.42-3.94 0-7.11 1.2-9.47 3.62-2.37 2.42-3.61 5.74-3.72 9.98h-23.18c.11-10.11 3.4-18.02 9.88-23.74 6.47-5.71 15.31-8.57 26.5-8.57 11.3 0 20.07 2.72 26.3 8.14s9.35 13.09 9.35 22.99c.01 4.43-1.03 8.79-3.03 12.74-2.03 4-5.58 8.43-10.64 13.3l-6.46 6.13a21.7 21.7 0 0 0-6.95 13.58l-.32 4.85-20.49-.04zm-2.32 24.32c0-3.53 1.21-6.44 3.64-8.74s5.52-3.44 9.31-3.44 6.88 1.15 9.31 3.44a11.5 11.5 0 0 1 3.64 8.74c0 3.48-1.19 6.35-3.55 8.62-2.36 2.26-5.5 3.4-9.39 3.4s-7.01-1.14-9.39-3.4a11.4 11.4 0 0 1-3.57-8.62z" fill="#0668e1"/><path d="M885.95 365.94c-3.97 0-7.21-1.18-9.64-3.5a11.8 11.8 0 0 1-3.67-8.87 11.9 11.9 0 0 1 3.75-8.99c2.48-2.35 5.7-3.54 9.56-3.54s7.07 1.19 9.56 3.54c2.48 2.34 3.75 5.37 3.75 8.99 0 3.57-1.24 6.53-3.67 8.87-2.44 2.34-5.67 3.5-9.64 3.5zm0-24.19c-3.68 0-6.72 1.12-9.07 3.35a11.2 11.2 0 0 0-3.53 8.48c0 3.37 1.16 6.18 3.46 8.36s5.37 3.31 9.15 3.31 6.86-1.11 9.15-3.31a11.1 11.1 0 0 0 3.45-8.36 11.2 11.2 0 0 0-3.53-8.48c-2.35-2.22-5.41-3.35-9.07-3.35zm10.17-12.14h-21.15v-.35c0-7.42.92-13.42 2.74-17.85 1.82-4.42 5.21-8.83 10.05-13.11 4.77-4.22 7.99-7.7 9.56-10.32a16 16 0 0 0 2.35-8.3c0-8.79-3.96-13.07-12.12-13.07-3.82 0-6.94 1.19-9.22 3.51-2.29 2.34-3.51 5.61-3.61 9.73v.34h-23.88v-.35c.11-10.17 3.47-18.24 9.99-24s15.51-8.66 26.73-8.66c11.33 0 20.26 2.77 26.53 8.22 6.26 5.46 9.47 13.29 9.47 23.25a28.3 28.3 0 0 1-3.07 12.9c-2.03 4.02-5.63 8.52-10.71 13.39l-6.47 6.12c-3.97 3.79-6.28 8.3-6.84 13.35l-.34 5.2zm-20.44-.71h19.78l.29-4.52c.59-5.26 2.97-9.9 7.07-13.81l6.47-6.12c5.01-4.82 8.56-9.25 10.56-13.2a27.7 27.7 0 0 0 2.99-12.58c0-9.75-3.1-17.39-9.23-22.72s-14.91-8.04-26.07-8.04c-11.05 0-19.88 2.85-26.26 8.49-6.29 5.55-9.57 13.33-9.74 23.12h22.48c.17-4.16 1.45-7.48 3.8-9.87 2.43-2.47 5.7-3.72 9.73-3.72 8.5 0 12.82 4.64 12.82 13.77-.01 3.05-.86 6.04-2.45 8.64-1.61 2.69-4.88 6.22-9.7 10.48-4.76 4.21-8.08 8.53-9.86 12.86-1.74 4.26-2.64 10.06-2.66 17.22z" fill="#fff"/></g></g><rect x="1" y="1" width="1138" height="638" rx="15" stroke="#0668e1" stroke-width="2"/><defs><filter id="D" x="-4.75" y="56.41" width="332.5" height="98.56" filterUnits="userSpaceOnUse" color-interpolation-filters="sRGB"><feFlood flood-opacity="0" result="A"/><feColorMatrix in="SourceAlpha" values="0 0 0 0 0 0 0 0 0 0 0 0 0 0 0 0 0 0 127 0" result="B"/><feOffset dy="1.78125"/><feGaussianBlur stdDeviation="2.38"/><feComposite in2="B" operator="out"/><feColorMatrix values="0 0 0 0 0 0 0 0 0 0 0 0 0 0 0 0 0 0 0.3 0"/><feBlend in2="A"/><feBlend in="SourceGraphic"/></filter><linearGradient id="E" x1="305.21" y1="466.07" x2="296.87" y2="65.81" href="#L"><stop stop-color="#ddecff"/><stop offset="1" stop-color="#eaf3ff"/></linearGradient><linearGradient id="F" x1="367.64" y1="207.64" x2="792.65" y2="606.7" href="#L"><stop stop-color="#e0eeff"/><stop offset="1" stop-color="#f9f9f9"/></linearGradient><linearGradient id="G" x1="26.45" y1="344.13" x2="329.1" y2="582.02" href="#L"><stop stop-color="#d6e8ff"/><stop offset="1" stop-color="#cfe4ff"/></linearGradient><linearGradient id="H" x1="850.56" y1="224.39" x2="850.56" y2="164.42" href="#L"><stop stop-color="#d1d7e0"/><stop offset="1" stop-color="#ebebff"/></linearGradient><linearGradient id="I" x1="726.75" y1="321.56" x2="726.75" y2="188.54" href="#L"><stop stop-color="#d1d7e0"/><stop offset="1" stop-color="#ebebff"/></linearGradient><clipPath id="J"><rect width="1140" height="640" rx="16" fill="#fff"/></clipPath><clipPath id="K"><path fill="#fff" transform="translate(665 141.5)" d="M0 0h356.25v356.25H0z"/></clipPath><linearGradient id="L" gradientUnits="userSpaceOnUse"/></defs></svg>