<svg xmlns="http://www.w3.org/2000/svg" width="1140" height="640" fill="none" xmlns:v="https://vecta.io/nano"><style><![CDATA[.B{fill:#0668e1}.C{fill:#fff}.D{fill:#eea886}.E{fill:#1b1c17}.F{fill:#ff8d68}.G{fill:#e2e7ff}.H{fill:#e5e5e5}.I{fill:#201360}.J{stroke-miterlimit:10}.K{stroke-width:1.02}.L{color-interpolation-filters:sRGB}]]></style><g clip-path="url(#K)"><rect width="1140" height="640" rx="16" class="C"/><path d="M1140 0H0v690.63h1140V0z" fill="#f1f7ff"/><mask id="A" maskUnits="userSpaceOnUse" x="0" y="0" width="606" height="691"><path d="M605.39 690.63C535 356.5 139.75 417.73 118.59 33.47c-.62-11.25.44-22.43 1.3-33.47H0v377.35 313.28h605.39z" class="C"/></mask><g mask="url(#A)"><path d="M605.39 0H0v690.63h605.39V0z" fill="url(#F)"/></g><mask id="B" maskUnits="userSpaceOnUse" x="118" y="0" width="795" height="691"><path d="M190.73 0H119.9c-.87 11.04-1.31 22.21-1.31 33.47 0 393.68 364.1 321.95 434.72 657.16h358.94C800.18 213.68 346.97 429.99 190.73 0z" class="C"/></mask><g mask="url(#B)"><path d="M912.26 0H118.59v690.63h793.66V0z" fill="url(#G)"/></g><mask id="C" maskUnits="userSpaceOnUse" x="0" y="280" width="416" height="411"><path d="M0 280.42v96.93 313.28h415.16C307.65 514.3 77.91 487.47 0 280.42z" class="C"/></mask><g mask="url(#C)"><path d="M415.16 280.3H0v410.21h415.16V280.3z" fill="url(#H)"/></g><path d="M135.59 222.16v50.65h-12.18v-50.65h12.18zm19.55 21.05v29.61h-11.72v-37.64h10.99l.73 8.04zm-1.39 9.5l-2.75.07a26 26 0 0 1 1.04-7.69c.7-2.27 1.68-4.2 2.96-5.78a12.6 12.6 0 0 1 4.56-3.58c1.79-.84 3.77-1.25 5.95-1.25 1.74 0 3.33.26 4.77.77a9.1 9.1 0 0 1 3.76 2.47 11.1 11.1 0 0 1 2.44 4.52c.58 1.86.87 4.15.87 6.89v23.69h-11.79v-23.73c0-1.51-.21-2.66-.63-3.45-.42-.81-1.02-1.37-1.81-1.67a8.1 8.1 0 0 0-2.89-.45c-1.21 0-2.23.23-3.06.7a5.4 5.4 0 0 0-2.02 1.95c-.49.81-.85 1.77-1.08 2.89-.21 1.11-.31 2.33-.31 3.65zm49.92-17.53v8.14h-22.68v-8.14h22.68zm-17.92-9.36h11.72v34.72c0 1 .12 1.77.35 2.33.23.53.63.92 1.18 1.15.58.21 1.34.31 2.3.31l1.67-.04 1.25-.17v8.38a19.2 19.2 0 0 1-3.13.73 20.7 20.7 0 0 1-3.48.28c-2.5 0-4.65-.39-6.44-1.18a8.4 8.4 0 0 1-4.04-3.72c-.93-1.69-1.39-3.9-1.39-6.61v-36.18zm40.81 47.7c-3.06 0-5.8-.47-8.21-1.43-2.41-.97-4.45-2.31-6.12-4-1.65-1.69-2.91-3.64-3.79-5.85a19.1 19.1 0 0 1-1.29-6.99v-1.32a24.5 24.5 0 0 1 1.15-7.65c.76-2.37 1.9-4.43 3.41-6.19a15.2 15.2 0 0 1 5.67-4.1 19.6 19.6 0 0 1 7.93-1.5 18.9 18.9 0 0 1 7.17 1.29 14.6 14.6 0 0 1 5.36 3.69c1.48 1.6 2.61 3.54 3.38 5.81.79 2.27 1.18 4.82 1.18 7.65v4.77h-30.75v-7.34h19.31v-.9c.02-1.25-.2-2.32-.66-3.2-.44-.88-1.09-1.55-1.95-2.02a6.5 6.5 0 0 0-3.13-.7 5.6 5.6 0 0 0-3.17.84c-.81.56-1.45 1.32-1.91 2.3-.44.95-.75 2.05-.94 3.31a27 27 0 0 0-.28 3.97v1.32c0 1.39.19 2.66.56 3.79a8.6 8.6 0 0 0 1.67 2.92c.74.79 1.62 1.4 2.64 1.84 1.04.44 2.23.66 3.55.66a13 13 0 0 0 4.73-.91c1.55-.6 2.89-1.6 4-2.99l5.32 6.33a13.8 13.8 0 0 1-3.27 3.17c-1.39 1.02-3.06 1.86-5.01 2.5-1.95.63-4.13.94-6.54.94zm32.42-29.01v28.32h-11.72v-37.64h10.96l.77 9.32zm11.13-9.6l-.21 10.89-1.88-.17-1.98-.1c-1.37 0-2.55.16-3.55.49a6 6 0 0 0-2.44 1.39c-.63.6-1.09 1.37-1.39 2.3-.28.93-.41 2.01-.38 3.24l-2.12-1.39c0-2.53.24-4.82.73-6.89a18.7 18.7 0 0 1 2.16-5.39c.93-1.53 2.05-2.7 3.38-3.51 1.32-.84 2.81-1.25 4.45-1.25.58 0 1.15.03 1.7.1a8.5 8.5 0 0 1 1.53.31zm18.23 29.89l7.41-29.61h12.35l-12.31 37.64h-7.31l-.14-8.04zm-4.38-29.61l7.31 29.61-.07 8.04h-7.34l-12.28-37.64h12.38zm40.01 0v37.64h-11.76v-37.64h11.76zm-12.45-9.71c0-1.67.6-3.04 1.81-4.1s2.77-1.6 4.7-1.6 3.49.53 4.7 1.6 1.81 2.44 1.81 4.1-.6 3.04-1.81 4.11-2.77 1.6-4.7 1.6-3.49-.53-4.7-1.6-1.81-2.44-1.81-4.11zm37.92 48.04c-3.06 0-5.8-.47-8.21-1.43-2.41-.97-4.45-2.31-6.12-4-1.65-1.69-2.91-3.64-3.79-5.85a19.1 19.1 0 0 1-1.29-6.99v-1.32c0-2.76.38-5.31 1.15-7.65.76-2.37 1.9-4.43 3.41-6.19a15.2 15.2 0 0 1 5.67-4.1 19.6 19.6 0 0 1 7.93-1.5 18.9 18.9 0 0 1 7.17 1.29c2.11.86 3.9 2.09 5.36 3.69 1.48 1.6 2.61 3.54 3.37 5.81.79 2.27 1.18 4.82 1.18 7.65v4.77h-30.75v-7.34h19.31v-.9c.02-1.25-.2-2.32-.66-3.2-.44-.88-1.09-1.55-1.95-2.02a6.5 6.5 0 0 0-3.13-.7 5.6 5.6 0 0 0-3.17.84c-.81.56-1.45 1.32-1.91 2.3-.44.95-.75 2.05-.94 3.31s-.28 2.57-.28 3.97v1.32c0 1.39.19 2.66.56 3.79a8.6 8.6 0 0 0 1.67 2.92c.74.79 1.62 1.4 2.64 1.84 1.04.44 2.23.66 3.55.66a13 13 0 0 0 4.73-.91c1.55-.6 2.89-1.6 4-2.99l5.32 6.33c-.76 1.09-1.85 2.15-3.27 3.17-1.39 1.02-3.06 1.86-5.01 2.5a21.3 21.3 0 0 1-6.54.94zm32.04-11.9l6.96-26.44h7.34l-2.61 13.26-6.89 24.39h-5.88l1.08-11.2zm-2.75-26.44l4.31 26.23.49 11.41h-7.13l-8.91-37.64h11.24zm23.24 25.68l4.35-25.68h11.24l-8.84 37.64h-7.13l.38-11.97zm-5.36-25.68l7.03 26.37 1.08 11.27h-5.95l-6.75-24.32-2.5-13.32h7.1zM148.7 342.35c0-.79-.12-1.5-.35-2.12-.23-.65-.66-1.25-1.29-1.81a11.5 11.5 0 0 0-2.71-1.67c-1.16-.58-2.69-1.18-4.59-1.81l-6.44-2.5c-2.06-.95-3.91-2.05-5.53-3.31-1.62-1.28-2.91-2.76-3.86-4.45-.95-1.72-1.43-3.71-1.43-5.98a11.8 11.8 0 0 1 1.46-5.88 13.4 13.4 0 0 1 4.07-4.49c1.76-1.25 3.83-2.2 6.19-2.85a28.3 28.3 0 0 1 7.76-1.01c3.71 0 6.98.65 9.81 1.95 2.85 1.27 5.08 3.1 6.68 5.46 1.62 2.34 2.44 5.11 2.44 8.31h-12.14a6.9 6.9 0 0 0-.8-3.37c-.51-.97-1.29-1.74-2.33-2.3a8.3 8.3 0 0 0-3.93-.83 9.5 9.5 0 0 0-3.86.7 5.4 5.4 0 0 0-2.37 1.88c-.53.77-.8 1.61-.8 2.54a3.7 3.7 0 0 0 .63 2.09c.44.6 1.06 1.17 1.84 1.71.81.53 1.79 1.04 2.92 1.53 1.16.49 2.46.96 3.9 1.43a47.5 47.5 0 0 1 7.17 2.89 22 22 0 0 1 5.32 3.58 13.2 13.2 0 0 1 3.31 4.52c.77 1.69 1.15 3.61 1.15 5.74 0 2.27-.44 4.29-1.32 6.05a12.6 12.6 0 0 1-3.79 4.49c-1.65 1.21-3.62 2.12-5.91 2.75s-4.86.94-7.69.94c-2.6 0-5.16-.32-7.69-.97-2.5-.67-4.78-1.69-6.82-3.06-2.04-1.39-3.68-3.17-4.91-5.32-1.21-2.18-1.81-4.77-1.81-7.76h12.25c0 1.48.2 2.74.59 3.76s.97 1.84 1.74 2.47c.76.6 1.7 1.04 2.82 1.32 1.11.26 2.39.38 3.83.38 1.55 0 2.81-.22 3.76-.66.95-.46 1.65-1.07 2.09-1.81.44-.77.66-1.6.66-2.5zm33.85 5.11a6 6 0 0 0 2.78-.59c.79-.42 1.38-1 1.77-1.74a5.4 5.4 0 0 0 .59-2.75h11.03c.02 2.83-.67 5.31-2.09 7.44-1.39 2.11-3.29 3.76-5.71 4.94-2.39 1.16-5.09 1.74-8.11 1.74-2.94 0-5.52-.47-7.72-1.43-2.2-.97-4.05-2.32-5.53-4.04-1.46-1.74-2.56-3.77-3.31-6.09-.72-2.32-1.08-4.84-1.08-7.55v-.8c0-2.71.36-5.23 1.08-7.55.74-2.34 1.84-4.37 3.31-6.09a15 15 0 0 1 5.5-4.04c2.2-.97 4.77-1.46 7.69-1.46 3.13 0 5.89.59 8.28 1.77a13.4 13.4 0 0 1 5.67 5.15c1.37 2.25 2.04 4.98 2.02 8.18H187.7a7.6 7.6 0 0 0-.52-3.06 4.7 4.7 0 0 0-1.74-2.16 4.9 4.9 0 0 0-2.96-.83 4.9 4.9 0 0 0-2.92.8c-.74.53-1.31 1.28-1.7 2.23-.37.93-.63 2-.77 3.2a40.4 40.4 0 0 0-.17 3.86v.8c0 1.39.06 2.7.17 3.93.14 1.21.41 2.27.8 3.2a5.1 5.1 0 0 0 1.71 2.16c.74.51 1.73.77 2.96.77zm32.67-45.09v53.44H203.5v-53.44h11.72zm-1.39 33.33l-2.75.07a26 26 0 0 1 .97-7.31 18.5 18.5 0 0 1 2.78-5.81 12.9 12.9 0 0 1 4.35-3.83c1.69-.91 3.57-1.36 5.64-1.36 1.86 0 3.55.27 5.08.8 1.55.53 2.89 1.39 4 2.57a11.6 11.6 0 0 1 2.61 4.63 22.4 22.4 0 0 1 .94 6.96v23.38h-11.79v-23.45c0-1.53-.22-2.71-.66-3.55-.42-.86-1.02-1.45-1.81-1.77-.79-.35-1.75-.52-2.89-.52a7 7 0 0 0-3.34.7c-.86.46-1.52 1.11-1.98 1.95-.44.81-.74 1.77-.9 2.89a25.3 25.3 0 0 0-.24 3.65zm48.36 20.8c-3.06 0-5.8-.47-8.21-1.43-2.41-.97-4.45-2.31-6.12-4-1.65-1.69-2.91-3.64-3.79-5.85a19.1 19.1 0 0 1-1.29-6.99v-1.32a24.5 24.5 0 0 1 1.15-7.65c.76-2.37 1.9-4.43 3.41-6.19a15.2 15.2 0 0 1 5.67-4.1 19.6 19.6 0 0 1 7.93-1.5 18.9 18.9 0 0 1 7.17 1.29 14.6 14.6 0 0 1 5.36 3.69c1.49 1.6 2.61 3.54 3.38 5.81.79 2.27 1.18 4.82 1.18 7.65v4.77h-30.75v-7.34h19.31v-.9c.02-1.25-.2-2.32-.66-3.2-.44-.88-1.09-1.55-1.95-2.02a6.5 6.5 0 0 0-3.13-.7 5.6 5.6 0 0 0-3.17.83c-.81.56-1.45 1.32-1.91 2.3a12 12 0 0 0-.94 3.31 27 27 0 0 0-.28 3.97v1.32c0 1.39.19 2.65.56 3.79a8.6 8.6 0 0 0 1.67 2.92c.74.79 1.62 1.4 2.64 1.84 1.04.44 2.23.66 3.55.66a13 13 0 0 0 4.73-.91c1.55-.6 2.89-1.6 4-2.99l5.32 6.33a13.8 13.8 0 0 1-3.27 3.17c-1.39 1.02-3.06 1.86-5.01 2.5-1.95.63-4.13.94-6.54.94zm42.23-9.32v-44.81h11.79v53.44h-10.58l-1.22-8.63zm-23.1-9.74v-.73c0-2.85.31-5.45.94-7.79.63-2.37 1.55-4.4 2.78-6.09 1.23-1.72 2.76-3.04 4.59-3.97s3.94-1.39 6.33-1.39c2.13 0 4 .5 5.6 1.5 1.6.97 2.97 2.34 4.11 4.1s2.06 3.83 2.78 6.19c.72 2.34 1.26 4.87 1.64 7.58v.87c-.37 2.55-.92 4.96-1.64 7.24-.72 2.25-1.65 4.24-2.78 5.98a13.2 13.2 0 0 1-4.14 4.11c-1.6.97-3.48 1.46-5.64 1.46-2.39 0-4.5-.47-6.33-1.43a13 13 0 0 1-4.56-4c-1.21-1.72-2.12-3.73-2.75-6.05s-.94-4.85-.94-7.59zm11.72-.73v.73a26 26 0 0 0 .28 3.93 11.5 11.5 0 0 0 .94 3.2c.46.91 1.07 1.61 1.81 2.12.76.51 1.7.77 2.82.77a6.1 6.1 0 0 0 3.72-1.08c1-.72 1.73-1.74 2.19-3.06a12.1 12.1 0 0 0 .63-4.66v-2.75c.05-1.53-.06-2.88-.31-4.04a8 8 0 0 0-1.22-2.96c-.53-.79-1.22-1.38-2.05-1.77-.81-.42-1.77-.63-2.89-.63a4.9 4.9 0 0 0-2.78.77c-.74.51-1.34 1.23-1.81 2.16-.46.9-.8 1.98-1.01 3.24-.21 1.23-.31 2.57-.31 4.04zm51.8 9.95v-28.49h11.76v37.64h-10.99l-.77-9.15zm1.11-7.65l3.06-.07c0 2.53-.3 4.87-.9 7.03-.6 2.13-1.5 3.99-2.68 5.57-1.16 1.58-2.6 2.81-4.31 3.69-1.69.86-3.65 1.29-5.88 1.29-1.86 0-3.56-.25-5.11-.76-1.53-.53-2.85-1.36-3.97-2.47a11.7 11.7 0 0 1-2.61-4.35 20.1 20.1 0 0 1-.91-6.4v-24.35h11.73v24.42a6.6 6.6 0 0 0 .31 2.16 4.2 4.2 0 0 0 .9 1.53c.39.39.88.7 1.46.91a7 7 0 0 0 2.05.28c1.76 0 3.14-.37 4.14-1.11a5.8 5.8 0 0 0 2.09-3.03c.42-1.28.63-2.71.63-4.31zm29.5-36.63v53.44h-11.76v-53.44h11.76zm19.62 15.8v37.64h-11.76v-37.64h11.76zm-12.45-9.71c0-1.67.6-3.04 1.81-4.11s2.77-1.6 4.7-1.6 3.49.53 4.7 1.6 1.81 2.44 1.81 4.11-.6 3.04-1.81 4.1-2.77 1.6-4.7 1.6-3.49-.53-4.7-1.6-1.81-2.44-1.81-4.1zm31.21 17.74v29.61h-11.72v-37.64h10.99l.73 8.04zm-1.39 9.5l-2.75.07a26 26 0 0 1 1.04-7.69c.7-2.27 1.68-4.2 2.96-5.77a12.6 12.6 0 0 1 4.56-3.58c1.79-.83 3.77-1.25 5.95-1.25 1.74 0 3.33.25 4.77.76a9.1 9.1 0 0 1 3.76 2.47c1.07 1.14 1.88 2.64 2.44 4.52.58 1.86.87 4.15.87 6.89v23.69h-11.79v-23.73c0-1.51-.21-2.66-.63-3.44-.42-.81-1.02-1.37-1.81-1.67a8.1 8.1 0 0 0-2.89-.45c-1.21 0-2.23.23-3.06.7a5.4 5.4 0 0 0-2.02 1.95c-.49.81-.85 1.77-1.08 2.89-.21 1.11-.31 2.33-.31 3.65zm53.75-17.53h10.65v36.18c0 3.48-.8 6.43-2.4 8.84-1.6 2.44-3.84 4.28-6.71 5.53-2.85 1.27-6.19 1.91-10.02 1.91a21.3 21.3 0 0 1-5.18-.66c-1.76-.42-3.41-1.04-4.94-1.88s-2.82-1.87-3.86-3.1l4.91-6.89c.95 1.07 2.15 1.97 3.58 2.71 1.44.77 3.13 1.15 5.08 1.15 1.69 0 3.11-.3 4.24-.9 1.16-.6 2.04-1.48 2.64-2.64.6-1.14.9-2.52.9-4.14v-27.21l1.11-8.91zm-25.01 19.27v-.73a27.3 27.3 0 0 1 1.04-7.79c.72-2.37 1.74-4.4 3.06-6.09 1.35-1.72 2.97-3.04 4.87-3.97a14.5 14.5 0 0 1 6.44-1.39c2.57 0 4.69.5 6.33 1.5a10.8 10.8 0 0 1 4 4.1c1.02 1.76 1.81 3.83 2.37 6.19.58 2.34 1.07 4.87 1.46 7.58v.87c-.39 2.55-.94 4.96-1.64 7.24a24.3 24.3 0 0 1-2.64 5.98 12.4 12.4 0 0 1-4.11 4.11c-1.62.97-3.57 1.46-5.84 1.46a14.1 14.1 0 0 1-6.4-1.43 14.3 14.3 0 0 1-4.84-4c-1.32-1.72-2.34-3.73-3.06-6.05a26.3 26.3 0 0 1-1.04-7.59zm11.72-.73v.73a19 19 0 0 0 .38 3.93c.28 1.21.7 2.27 1.25 3.2.56.91 1.24 1.61 2.05 2.12a5.5 5.5 0 0 0 2.92.77 7.1 7.1 0 0 0 4.11-1.08 6 6 0 0 0 2.26-3.06c.46-1.32.66-2.88.59-4.66v-2.75c.05-1.53-.06-2.88-.31-4.04a8 8 0 0 0-1.22-2.96 4.9 4.9 0 0 0-2.16-1.77c-.88-.42-1.95-.63-3.2-.63a5.4 5.4 0 0 0-2.89.77 6.2 6.2 0 0 0-2.09 2.16c-.56.9-.99 1.98-1.29 3.24-.28 1.23-.42 2.57-.42 4.04zm-324.24 72.44h9.95l11.31 35.24 11.31-35.24h9.95l-17.22 50.65h-8.07l-17.22-50.65zm-6.05 0h10.3l1.91 38.83v11.83h-12.21v-50.65zm44.32 0h10.33v50.65h-12.25v-11.83l1.91-38.83zm37.16 41.19v-15.52a7.5 7.5 0 0 0-.45-2.75c-.3-.77-.78-1.36-1.43-1.77-.65-.44-1.52-.66-2.61-.66-.88 0-1.63.15-2.26.45a3.1 3.1 0 0 0-1.43 1.36c-.32.6-.49 1.37-.49 2.3H183.7a10.4 10.4 0 0 1 1.15-4.84c.79-1.51 1.9-2.82 3.34-3.93 1.46-1.11 3.2-1.97 5.22-2.57a23.2 23.2 0 0 1 6.82-.94c2.99 0 5.66.5 8 1.5a12.5 12.5 0 0 1 5.6 4.49c1.37 1.97 2.05 4.45 2.05 7.44v15.41c0 2.46.14 4.32.42 5.6a12.9 12.9 0 0 0 1.18 3.31v.59h-11.76c-.56-1.16-.97-2.57-1.25-4.24a35 35 0 0 1-.38-5.22zm1.43-13.53l.07 6.26h-5.18a7.6 7.6 0 0 0-2.78.45 4.7 4.7 0 0 0-1.81 1.25c-.44.51-.77 1.09-.97 1.74a7.4 7.4 0 0 0-.28 2.05c0 .7.16 1.32.49 1.88a3.6 3.6 0 0 0 1.39 1.25c.58.3 1.23.45 1.95.45a6.9 6.9 0 0 0 3.31-.73c.93-.51 1.64-1.12 2.12-1.84s.73-1.39.73-2.02l2.57 4.8a32 32 0 0 1-1.6 2.82c-.58.95-1.31 1.83-2.19 2.64-.86.79-1.91 1.44-3.17 1.95a12.6 12.6 0 0 1-4.56.73 14.4 14.4 0 0 1-6.4-1.43c-1.92-.95-3.47-2.27-4.63-3.97a10.3 10.3 0 0 1-1.74-5.91c0-1.95.35-3.69 1.04-5.22a10.2 10.2 0 0 1 3.23-3.9c1.44-1.07 3.27-1.88 5.5-2.44s4.85-.84 7.86-.84h5.04zm38.51 14.37v-44.81h11.79v53.44h-10.58l-1.22-8.63zm-23.1-9.74v-.73c0-2.85.31-5.45.94-7.79.63-2.37 1.55-4.4 2.78-6.09 1.23-1.72 2.76-3.04 4.59-3.97s3.94-1.39 6.33-1.39c2.13 0 4 .5 5.6 1.5 1.6.97 2.97 2.34 4.11 4.1s2.06 3.83 2.78 6.19c.72 2.34 1.26 4.87 1.63 7.58v.87c-.37 2.55-.92 4.96-1.63 7.24-.72 2.25-1.65 4.24-2.78 5.98s-2.52 3.11-4.14 4.11c-1.6.97-3.48 1.46-5.64 1.46-2.39 0-4.5-.47-6.33-1.43a13 13 0 0 1-4.56-4c-1.21-1.72-2.12-3.73-2.75-6.05a29 29 0 0 1-.94-7.59zm11.72-.73v.73c0 1.42.09 2.73.28 3.93a11.5 11.5 0 0 0 .94 3.2c.46.91 1.07 1.61 1.81 2.12.77.51 1.7.77 2.82.77a6.1 6.1 0 0 0 3.72-1.08c1-.72 1.73-1.74 2.19-3.06a12.1 12.1 0 0 0 .63-4.66v-2.75a16.6 16.6 0 0 0-.31-4.04 8 8 0 0 0-1.22-2.96c-.53-.79-1.22-1.38-2.05-1.77-.81-.42-1.77-.63-2.89-.63a4.9 4.9 0 0 0-2.78.77c-.74.51-1.35 1.23-1.81 2.16-.46.9-.8 1.98-1.01 3.24-.21 1.23-.31 2.57-.31 4.04zm48.04 19.79c-3.06 0-5.8-.47-8.21-1.43-2.41-.97-4.45-2.31-6.12-4-1.65-1.69-2.91-3.64-3.79-5.85a19.1 19.1 0 0 1-1.29-6.99v-1.32a24.5 24.5 0 0 1 1.15-7.65c.76-2.37 1.9-4.43 3.41-6.19a15.2 15.2 0 0 1 5.67-4.1 19.6 19.6 0 0 1 7.93-1.5 18.9 18.9 0 0 1 7.17 1.29 14.6 14.6 0 0 1 5.36 3.69c1.48 1.6 2.61 3.54 3.37 5.81.79 2.27 1.18 4.82 1.18 7.65v4.77h-30.75v-7.34h19.31v-.9c.02-1.25-.2-2.32-.66-3.2-.44-.88-1.09-1.55-1.95-2.02a6.5 6.5 0 0 0-3.13-.7 5.6 5.6 0 0 0-3.17.83c-.81.56-1.45 1.32-1.91 2.3a12.1 12.1 0 0 0-.94 3.31c-.19 1.25-.28 2.57-.28 3.97v1.32c0 1.39.19 2.65.56 3.79a8.6 8.6 0 0 0 1.67 2.92 7.9 7.9 0 0 0 2.64 1.84c1.04.44 2.23.66 3.55.66a13 13 0 0 0 4.73-.91c1.55-.6 2.89-1.6 4-2.99l5.32 6.33c-.76 1.09-1.85 2.15-3.27 3.17-1.39 1.02-3.06 1.86-5.01 2.5a21.3 21.3 0 0 1-6.54.94zm79.56-12.44l-2.04 11.74h-32.83l2.04-11.74h32.83zm-18.52-51.58l-11 63.32h-14.87l10.96-63.32h14.92zm18.87 25.13l-1.96 11.35h-28.61l2-11.35h28.57zm8.7-25.13l-2.04 11.78H334.3l2.09-11.78h32.92zm29.57 14.05l-23.31 49.27h-16.48l33.57-63.32h10.52l-4.31 14.05zm4 49.27l-6.44-50.79.35-12.52h9.92l11.7 63.32h-15.52zm3.39-23.61l-2.09 11.78h-31.62l2.09-11.78h31.62zm51.45 6.48c.26-1.36.16-2.52-.3-3.48a6.2 6.2 0 0 0-2-2.44c-.87-.67-1.87-1.23-3-1.7-1.1-.49-2.18-.94-3.22-1.35-2.26-.9-4.49-1.91-6.7-3.04a31.3 31.3 0 0 1-6-4.09c-1.8-1.57-3.2-3.39-4.22-5.48-.99-2.09-1.41-4.54-1.26-7.35.2-3.22 1.12-5.99 2.74-8.31a19.1 19.1 0 0 1 6.22-5.65 29.2 29.2 0 0 1 8.22-3.22c2.96-.7 5.84-1.01 8.65-.96 4 .06 7.57.87 10.7 2.44a17.8 17.8 0 0 1 7.44 6.74c1.8 2.9 2.67 6.41 2.61 10.52h-14.74c.06-1.62-.16-3.03-.65-4.22-.46-1.22-1.23-2.16-2.31-2.83a7.8 7.8 0 0 0-4.17-1.09 12.2 12.2 0 0 0-4.26.69 9.7 9.7 0 0 0-3.7 2.18 6.8 6.8 0 0 0-2 3.83c-.2 1.19-.01 2.23.56 3.13a7.8 7.8 0 0 0 2.39 2.26 21.5 21.5 0 0 0 3.18 1.57l2.96 1.13a50.5 50.5 0 0 1 6.83 3.18c2.2 1.19 4.15 2.59 5.83 4.22 1.71 1.62 3.01 3.52 3.91 5.7.93 2.15 1.3 4.64 1.13 7.48-.23 3.28-1.1 6.07-2.61 8.39a18.1 18.1 0 0 1-5.83 5.65 26.6 26.6 0 0 1-7.83 3.18c-2.84.67-5.73.99-8.65.96a31.2 31.2 0 0 1-9.18-1.48 22.4 22.4 0 0 1-7.44-4.13 18.6 18.6 0 0 1-4.91-6.7c-1.16-2.67-1.71-5.73-1.65-9.18l14.92.04c-.09 1.62.01 3.06.31 4.31a7.6 7.6 0 0 0 1.56 3.09c.75.81 1.73 1.44 2.91 1.87a13.4 13.4 0 0 0 4.31.61c1.42 0 2.78-.22 4.09-.65 1.33-.46 2.46-1.17 3.39-2.13s1.52-2.19 1.78-3.7zm41.36-46.18l6.52 27.4 16.05-27.4h16.7l-27.27 41.27-3.78 22.05h-15.18l4.09-23.48-12.7-39.79 15.57-.04zm58.75 0l-9.31 43.27h-11.65l5.7-43.27h15.26zm-25.48 57.01c-.06-2.26.7-4.1 2.26-5.52a8.2 8.2 0 0 1 5.65-2.13c2.09-.03 3.9.62 5.44 1.96 1.57 1.31 2.38 3.03 2.44 5.18.03 2.23-.74 4.07-2.31 5.52-1.57 1.42-3.44 2.13-5.61 2.13a8.1 8.1 0 0 1-5.48-1.91c-1.54-1.3-2.33-3.04-2.39-5.22z" fill="#5b5b5b"/><g filter="url(#D)"><path d="M323 71.25a11.9 11.9 0 0 0-11.87-11.87H0v89.06h311.13A11.9 11.9 0 0 0 323 136.56V71.25z" fill="#3886e7"/><path d="M49.82 90.8v25.33h-6.11V90.8h6.11zm7.62 0v4.71H36.27V90.8h21.17zm8.05-1.39v26.72h-5.86V89.41h5.86zm-.7 16.66l-1.37.03a13 13 0 0 1 .49-3.65c.32-1.11.79-2.08 1.39-2.91s1.33-1.46 2.17-1.91a5.9 5.9 0 0 1 2.82-.68c.93 0 1.77.13 2.54.4a4.9 4.9 0 0 1 2 1.29 5.8 5.8 0 0 1 1.3 2.31 11.2 11.2 0 0 1 .47 3.48v11.69h-5.9V104.4c0-.77-.11-1.36-.33-1.77-.21-.43-.51-.72-.9-.89-.39-.17-.88-.26-1.44-.26a3.5 3.5 0 0 0-1.67.35c-.43.23-.76.56-.99.97a4.3 4.3 0 0 0-.45 1.44 12.7 12.7 0 0 0-.12 1.83zm24.18 10.4c-1.53 0-2.9-.24-4.11-.71-1.21-.49-2.23-1.15-3.06-2-.82-.85-1.46-1.82-1.9-2.92-.43-1.1-.64-2.27-.64-3.5v-.66c0-1.38.19-2.66.57-3.83.38-1.18.95-2.21 1.7-3.1a7.6 7.6 0 0 1 2.84-2.05 9.8 9.8 0 0 1 3.97-.75c1.33 0 2.53.21 3.58.64a7.3 7.3 0 0 1 2.68 1.84c.74.8 1.3 1.77 1.69 2.9.39 1.14.59 2.41.59 3.83v2.38H81.51v-3.67h9.65v-.45c.01-.63-.1-1.16-.33-1.6-.22-.44-.55-.78-.97-1.01s-.95-.35-1.57-.35a2.8 2.8 0 0 0-1.58.42c-.41.28-.72.66-.96 1.15a6 6 0 0 0-.47 1.65c-.09.63-.14 1.29-.14 1.98v.66a6.1 6.1 0 0 0 .28 1.9 4.3 4.3 0 0 0 .83 1.46c.37.39.81.7 1.32.92.52.22 1.11.33 1.77.33a6.5 6.5 0 0 0 2.37-.45c.78-.3 1.44-.8 2-1.5l2.66 3.17a6.9 6.9 0 0 1-1.64 1.58c-.7.51-1.53.93-2.5 1.25-.97.31-2.06.47-3.27.47zm33.85-8.92h6.09a9.2 9.2 0 0 1-1.43 4.66 8.8 8.8 0 0 1-3.62 3.15c-1.53.74-3.34 1.11-5.43 1.11a11.5 11.5 0 0 1-4.54-.85c-1.32-.57-2.45-1.39-3.37-2.45-.92-1.07-1.62-2.36-2.11-3.88-.48-1.52-.71-3.23-.71-5.13v-1.37a16.4 16.4 0 0 1 .75-5.13 11.3 11.3 0 0 1 2.16-3.9c.94-1.08 2.06-1.9 3.38-2.47s2.77-.85 4.37-.85c2.2 0 4.06.39 5.58 1.18a8.7 8.7 0 0 1 3.53 3.25 10.6 10.6 0 0 1 1.48 4.68h-6.09a5.9 5.9 0 0 0-.49-2.38 3 3 0 0 0-1.43-1.46c-.65-.32-1.51-.49-2.59-.49-.75 0-1.41.14-1.97.42s-1.02.72-1.39 1.32a7 7 0 0 0-.83 2.35c-.17.95-.26 2.1-.26 3.44v1.41c0 1.34.08 2.49.24 3.44s.42 1.73.78 2.33.82 1.05 1.39 1.34a4.9 4.9 0 0 0 2.12.42c.93 0 1.71-.14 2.35-.43a3.3 3.3 0 0 0 1.48-1.36 5 5 0 0 0 .56-2.35zm7.97-.64v-.37c0-1.38.2-2.65.59-3.81.39-1.17.97-2.19 1.74-3.04a7.8 7.8 0 0 1 2.84-2c1.13-.49 2.42-.73 3.9-.73 1.48 0 2.79.24 3.91.73a7.8 7.8 0 0 1 2.85 2c.77.86 1.34 1.87 1.74 3.04.39 1.16.59 2.43.59 3.81v.37c0 1.37-.2 2.64-.59 3.81-.39 1.16-.97 2.17-1.74 3.04-.77.86-1.71 1.53-2.84 2s-2.42.71-3.9.71-2.78-.24-3.91-.71a7.8 7.8 0 0 1-2.85-2c-.76-.87-1.34-1.88-1.74-3.04-.39-1.17-.59-2.44-.59-3.81zm5.86-.37v.37a11.8 11.8 0 0 0 .16 1.98 5.4 5.4 0 0 0 .52 1.62c.24.45.57.81.99 1.06s.94.38 1.57.38c.61 0 1.13-.13 1.53-.38.42-.26.75-.61.99-1.06a5.4 5.4 0 0 0 .52-1.62 11.9 11.9 0 0 0 .16-1.98v-.37c0-.68-.05-1.33-.16-1.93a5.4 5.4 0 0 0-.52-1.62 2.8 2.8 0 0 0-.99-1.11c-.42-.27-.94-.4-1.57-.4-.61 0-1.13.13-1.55.4-.41.27-.73.64-.97 1.11a5.4 5.4 0 0 0-.52 1.62c-.11.6-.16 1.25-.16 1.93zm20.67-5.22v14.8h-5.86V97.3h5.5l.37 4.02zm-.7 4.75l-1.37.03a13 13 0 0 1 .52-3.84 8.5 8.5 0 0 1 1.48-2.89 6.3 6.3 0 0 1 2.28-1.79c.89-.42 1.88-.63 2.97-.63a7.1 7.1 0 0 1 2.38.38c.73.26 1.36.67 1.88 1.24.53.57.94 1.32 1.22 2.26a11.7 11.7 0 0 1 .44 3.44v11.85h-5.9v-11.86c0-.75-.1-1.33-.31-1.72-.21-.41-.51-.68-.91-.83s-.88-.23-1.44-.23c-.6 0-1.11.12-1.53.35a2.7 2.7 0 0 0-1.01.97 4.6 4.6 0 0 0-.54 1.44c-.1.56-.16 1.17-.16 1.83zm23 5.88a3 3 0 0 0 1.39-.3c.39-.21.69-.5.89-.87a2.7 2.7 0 0 0 .29-1.37h5.52a6.5 6.5 0 0 1-1.04 3.72c-.7 1.06-1.65 1.88-2.85 2.47-1.19.58-2.54.87-4.05.87a9.7 9.7 0 0 1-3.86-.71c-1.1-.49-2.02-1.16-2.76-2.02a8.9 8.9 0 0 1-1.65-3.04 12.7 12.7 0 0 1-.54-3.77v-.4a12.7 12.7 0 0 1 .54-3.77c.37-1.17.92-2.19 1.65-3.04a7.5 7.5 0 0 1 2.75-2.02c1.1-.49 2.38-.73 3.84-.73a9.2 9.2 0 0 1 4.14.89 6.7 6.7 0 0 1 2.84 2.57c.68 1.13 1.02 2.49 1.01 4.09h-5.52a3.8 3.8 0 0 0-.26-1.53c-.19-.45-.48-.81-.87-1.08-.38-.28-.88-.42-1.48-.42s-1.09.13-1.46.4-.66.64-.85 1.11c-.19.46-.31 1-.38 1.6l-.09 1.93v.4l.09 1.97a5.8 5.8 0 0 0 .4 1.6c.2.45.48.81.85 1.08.37.25.86.38 1.48.38zm16.79-22.54v26.72h-5.88V89.41h5.88zm14.61 22.14V97.3h5.88v18.82h-5.5l-.38-4.58zm.56-3.83l1.53-.03a13 13 0 0 1-.45 3.51 8.4 8.4 0 0 1-1.34 2.78 6.1 6.1 0 0 1-2.16 1.84c-.85.43-1.83.64-2.94.64-.93 0-1.78-.13-2.56-.38-.77-.27-1.43-.68-1.98-1.23-.56-.57-.99-1.29-1.31-2.17-.3-.89-.45-1.96-.45-3.2V97.3h5.86v12.21a3.3 3.3 0 0 0 .16 1.08 2.1 2.1 0 0 0 .45.77c.2.2.44.35.73.45a3.5 3.5 0 0 0 1.03.14 3.4 3.4 0 0 0 2.07-.56 2.9 2.9 0 0 0 1.04-1.51c.21-.64.31-1.36.31-2.16zm18.42 3.11c0-.33-.11-.6-.33-.84-.21-.24-.58-.46-1.11-.66-.53-.21-1.28-.42-2.24-.63-.92-.2-1.78-.46-2.59-.78-.8-.33-1.5-.72-2.1-1.18s-1.08-1.02-1.43-1.65c-.34-.64-.5-1.37-.5-2.19a5.2 5.2 0 0 1 .5-2.26 5.6 5.6 0 0 1 1.51-1.9c.67-.56 1.49-.99 2.45-1.3.96-.32 2.06-.49 3.29-.49 1.69 0 3.15.26 4.38.78 1.23.51 2.17 1.23 2.84 2.16.67.92 1.01 1.98 1.01 3.18h-5.86c0-.48-.08-.88-.24-1.22-.15-.34-.4-.59-.75-.77-.35-.19-.81-.28-1.39-.28a2.7 2.7 0 0 0-1.11.23 2 2 0 0 0-.78.63c-.2.27-.3.58-.3.94 0 .26.06.49.17.7.13.2.32.38.57.56.25.16.58.31.97.45.39.13.87.24 1.43.35 1.26.23 2.45.56 3.55.99a6.7 6.7 0 0 1 2.68 1.83c.69.79 1.04 1.85 1.04 3.18a4.8 4.8 0 0 1-.57 2.31c-.38.69-.93 1.31-1.65 1.84-.72.52-1.58.93-2.59 1.22s-2.14.44-3.41.44c-1.8 0-3.32-.32-4.56-.96-1.24-.65-2.18-1.46-2.82-2.44-.63-.99-.94-1.98-.94-2.99h5.46c.02.58.16 1.06.42 1.43.27.37.62.64 1.06.82s.95.26 1.53.26c.53 0 .97-.08 1.32-.23.36-.15.63-.35.82-.61.19-.27.28-.57.28-.92zm14.59-13.53v18.82h-5.88V97.3h5.88zm-6.23-4.85c0-.84.3-1.52.9-2.05s1.39-.8 2.35-.8 1.75.27 2.35.8.91 1.22.91 2.05-.3 1.52-.91 2.05-1.39.8-2.35.8-1.74-.27-2.35-.8-.9-1.22-.9-2.05zm9.12 14.46v-.37c0-1.38.2-2.65.59-3.81.4-1.17.97-2.19 1.74-3.04a7.8 7.8 0 0 1 2.84-2c1.13-.49 2.42-.73 3.9-.73 1.48 0 2.79.24 3.91.73a7.8 7.8 0 0 1 2.85 2c.77.86 1.35 1.87 1.74 3.04.39 1.16.59 2.43.59 3.81v.37c0 1.37-.2 2.64-.59 3.81-.39 1.16-.97 2.17-1.74 3.04a7.8 7.8 0 0 1-2.83 2c-1.12.47-2.42.71-3.9.71s-2.78-.24-3.91-.71a7.8 7.8 0 0 1-2.85-2c-.77-.87-1.34-1.88-1.74-3.04-.39-1.17-.59-2.44-.59-3.81zm5.86-.37v.37a11.8 11.8 0 0 0 .16 1.98 5.4 5.4 0 0 0 .52 1.62c.24.45.57.81.99 1.06s.94.38 1.57.38c.61 0 1.12-.13 1.53-.38.42-.26.75-.61.99-1.06.24-.46.42-1 .52-1.62a11.9 11.9 0 0 0 .16-1.98v-.37c0-.68-.05-1.33-.16-1.93-.1-.61-.28-1.15-.52-1.62a2.8 2.8 0 0 0-.99-1.11c-.42-.27-.94-.4-1.57-.4-.61 0-1.13.13-1.55.4-.41.27-.73.64-.97 1.11a5.4 5.4 0 0 0-.52 1.62c-.1.6-.16 1.25-.16 1.93zm20.66-5.22v14.8h-5.86V97.3h5.5l.36 4.02zm-.69 4.75l-1.37.03a13 13 0 0 1 .52-3.84 8.5 8.5 0 0 1 1.48-2.89 6.3 6.3 0 0 1 2.28-1.79c.89-.42 1.88-.63 2.97-.63a7.1 7.1 0 0 1 2.38.38c.73.26 1.36.67 1.88 1.24.53.57.94 1.32 1.22 2.26a11.7 11.7 0 0 1 .44 3.44v11.85h-5.9v-11.86c0-.75-.1-1.33-.31-1.72-.21-.41-.51-.68-.9-.83s-.88-.23-1.44-.23c-.6 0-1.11.12-1.53.35s-.75.56-1.01.97c-.24.41-.42.89-.54 1.44-.1.56-.16 1.17-.16 1.83z" class="C"/></g><g clip-path="url(#L)"><path opacity=".6" d="M927.43 497.75c38.69 0 70.06-1.46 70.06-3.27s-31.37-3.26-70.06-3.26-70.06 1.46-70.06 3.26 31.37 3.27 70.06 3.27z" fill="#ddd"/><g class="G"><path d="M787.66 345.11l-22.94 150.4h-5.54l15.03-151.2 13.45.8zm-46.68 0l-22.95 150.4h-5.54l15.03-151.2 13.45.8z"/></g><g fill="#c2d3eb"><path d="M875.48 345.11l22.95 150.4h5.54l-15.03-151.2-13.45.8zm46.61-.37l23.44 146.47h5.66l-15.36-147.25-13.74.78z"/></g><path d="M724.36 343.52h206.51v7.16H724.36v-7.16z" fill="#a9a7e7"/><path d="M720.41 346.7h204.14c2.19 0 3.96-1.78 3.96-3.98s-1.77-3.98-3.96-3.98H720.41c-2.18 0-3.96 1.78-3.96 3.98s1.77 3.98 3.96 3.98z" fill="#ffc757"/><path d="M844.78 342.47l8.36-22.22h20.89l-8.36 22.22" fill="#4f57a0"/><path d="M920.6 324.66H801.8l-2.08-11.21h118.81" class="G"/><path d="M908 256.74l10.51 56.72H799.71l-10.27-55.41c-.41-2.2 1.27-4.24 3.5-4.24H904.5c1.71 0 3.19 1.23 3.5 2.93z" fill="#243fa7"/><path d="M804.57 308.11l107.89-.72-9.35-49.15H795.22l9.35 49.87z" fill="#2e60be"/><g filter="url(#E)" class="C"><path transform="matrix(1 0 .1736 .9848 795.023 257.875)" d="M0 0h108.69v51.05H0z"/></g><g class="E"><path d="M816.81 299.74l.4 2.28h-.31l-.4-2.28h.31zm.97.95l.24 1.33h-.29l-.3-1.7h.28l.08.36zm0 .42h-.12c-.02-.12-.02-.22 0-.32s.05-.19.1-.26.11-.13.19-.17.17-.06.27-.06c.08 0 .16.01.24.03s.13.06.19.11.11.11.14.19.07.17.09.28l.2 1.11h-.3l-.2-1.11c-.02-.09-.04-.16-.08-.21s-.08-.09-.14-.12-.12-.04-.19-.04-.14.01-.19.04-.1.07-.13.13-.06.12-.07.18-.01.14 0 .22zm2.16-.78l.04.22h-.93l-.04-.22h.93zm-.69-.41h.29l.3 1.69c.01.06.03.1.05.13s.05.05.08.06.06.01.09.01c.02 0 .05 0 .08-.01l.06-.01.04.24c-.02.01-.05.01-.09.02s-.08.01-.13.01c-.07 0-.14-.01-.21-.04s-.12-.07-.17-.14-.08-.16-.1-.27l-.3-1.69zm2.05 2.14c-.12 0-.23-.02-.34-.06s-.2-.1-.28-.17-.15-.16-.2-.26-.09-.21-.11-.33l-.01-.07c-.02-.14-.02-.26 0-.37s.06-.2.12-.28.13-.13.21-.17.17-.06.27-.06c.12 0 .23.02.33.06s.18.1.25.18.13.16.17.26.08.21.1.33l.02.13h-1.28l-.04-.24h.99v-.02c-.02-.08-.05-.15-.09-.22s-.09-.13-.16-.18-.15-.07-.25-.07c-.07 0-.13.01-.18.04s-.09.07-.12.12-.05.12-.06.2 0 .17.01.27l.01.07c.01.08.04.16.07.23s.08.13.13.19.12.09.18.13.14.05.22.05c.1 0 .19-.02.25-.06s.12-.1.16-.17l.2.14c-.03.06-.06.11-.11.16s-.11.09-.19.12-.17.05-.29.05zm1.05-1.46l.25 1.43h-.29l-.3-1.7h.29l.06.27zm.49-.28l.05.27c-.03-.01-.05-.01-.07-.01a.8.8 0 0 0-.07 0c-.07 0-.13.01-.17.03s-.09.05-.12.09-.05.08-.06.13-.01.11-.01.17l-.07.05c-.02-.1-.02-.2-.02-.29s.02-.17.05-.24.08-.12.14-.16.14-.06.23-.06c.02 0 .05 0 .07.01s.05.01.06.01zm1.08 1.44l.22-1.43h.3l-.32 1.7h-.2v-.26zm-.65-1.43l.74 1.44.08.25h-.2l-.92-1.7h.3zm1.77 0l.3 1.7h-.29l-.3-1.7h.3zm-.4-.45c-.01-.05 0-.09.02-.12s.07-.05.12-.05.1.02.14.05.06.07.07.12 0 .08-.02.12-.07.05-.12.05-.1-.02-.14-.05-.06-.07-.06-.12zm1.89 2.18c-.12 0-.23-.02-.34-.06s-.2-.1-.28-.17-.15-.16-.2-.26a1.1 1.1 0 0 1-.11-.33l-.01-.07c-.02-.14-.03-.26 0-.37s.06-.2.12-.28.13-.13.21-.17.17-.06.27-.06c.12 0 .23.02.33.06s.18.1.25.18.13.16.17.26.08.21.1.33l.02.13h-1.29l-.04-.24h.99v-.02c-.02-.08-.05-.15-.09-.22s-.09-.13-.16-.18-.15-.07-.25-.07c-.07 0-.13.01-.18.04s-.09.07-.12.12-.05.12-.06.2 0 .17.01.27l.01.07c.01.08.04.16.07.23s.08.13.13.19.11.09.18.13.14.05.22.05c.1 0 .19-.02.25-.06s.12-.1.16-.17l.2.14c-.03.06-.06.11-.11.16s-.11.09-.19.12-.17.05-.29.05zm1.39-.33l.2-1.39h.19l.01.28-.2 1.42h-.19l-.01-.3zm-.54-1.39l.63 1.41.08.28h-.2l-.8-1.7h.29zm1.6 1.4l.11-1.4h.29l-.2 1.7h-.2l-.01-.3zm-.63-1.4l.67 1.37.11.32h-.19l-.71-1.42-.09-.27h.21zm3.87-.59l.4 2.28h-.31l-1.48-1.76.31 1.76h-.31l-.4-2.28h.31l1.48 1.76-.31-1.76h.3zm.68 1.45l-.01-.04c-.02-.12-.02-.24-.01-.34s.05-.2.11-.27.13-.14.22-.18a.7.7 0 0 1 .31-.07c.12 0 .23.02.34.07s.2.1.28.18.15.17.21.27a1.2 1.2 0 0 1 .11.34v.04c.02.12.02.24.01.34s-.05.2-.11.27-.13.14-.22.18a.7.7 0 0 1-.31.06c-.12 0-.23-.02-.34-.06s-.2-.1-.28-.18-.15-.17-.2-.27a1.2 1.2 0 0 1-.11-.34zm.29-.04l.01.04a1 1 0 0 0 .07.24c.03.07.07.14.13.2s.11.1.18.14.14.05.22.05.15-.02.2-.05.1-.08.13-.14.05-.12.06-.2 0-.15-.01-.24l-.01-.04c-.01-.08-.04-.16-.07-.24s-.08-.14-.13-.2-.11-.1-.18-.14-.14-.05-.22-.05-.15.02-.2.05-.1.08-.13.14-.05.12-.05.2 0 .15.01.24zm2.22-.22l.04.24h-.78l-.04-.24h.78zm1.4.64c-.01-.04-.02-.08-.05-.12s-.07-.07-.13-.1-.15-.06-.27-.08l-.27-.07a1 1 0 0 1-.21-.1c-.06-.04-.11-.08-.15-.14s-.06-.11-.07-.18-.01-.13.01-.19.05-.11.1-.16a.5.5 0 0 1 .18-.11c.07-.03.16-.04.26-.04.14 0 .26.02.37.07s.19.11.26.19.11.17.12.26h-.29c-.01-.05-.03-.09-.07-.14a.4.4 0 0 0-.14-.11c-.06-.03-.13-.04-.2-.04s-.15.01-.19.04-.08.06-.09.09-.02.08-.01.12c.01.03.02.06.03.09s.04.05.07.07a.6.6 0 0 0 .13.06c.06.02.13.04.21.05.15.03.27.07.37.11s.18.1.23.16.09.14.11.23c.01.07.01.14-.01.2s-.06.11-.11.16-.12.08-.19.1-.17.04-.27.04c-.15 0-.28-.03-.4-.08s-.21-.12-.27-.21-.11-.17-.13-.27h.3c.02.08.05.14.1.19s.11.08.17.1.13.03.19.03c.08 0 .15-.01.2-.03s.09-.05.11-.09.03-.08.02-.13zm.63-1.96l.42 2.41h-.29l-.42-2.41h.29zm.19 1.5h-.12c-.02-.12-.02-.22 0-.32s.05-.19.1-.26a.5.5 0 0 1 .19-.17c.08-.04.17-.06.27-.06.09 0 .16.01.24.03s.14.06.19.11.11.11.15.19.07.17.09.28l.2 1.11h-.3l-.2-1.11c-.01-.09-.04-.16-.08-.21s-.08-.09-.14-.12-.12-.04-.19-.04a.4.4 0 0 0-.19.04c-.05.03-.1.07-.13.13s-.06.12-.07.18-.01.14 0 .22zm1.51.08v-.04c-.02-.12-.02-.24-.01-.34s.05-.2.11-.27.13-.14.21-.18a.7.7 0 0 1 .31-.07c.12 0 .23.02.34.07s.2.1.28.18.15.17.21.27.09.22.11.34l.01.04c.02.12.02.24.01.34s-.05.2-.11.27-.12.14-.21.18-.19.06-.31.06-.23-.02-.34-.06-.2-.1-.28-.18-.15-.17-.2-.27-.09-.22-.12-.34zm.29-.04l.01.04c.01.09.04.17.07.24s.08.14.13.2.11.1.18.14.14.05.22.05.15-.02.2-.05.1-.08.13-.14.05-.12.06-.2 0-.15-.01-.24v-.04c-.01-.08-.04-.16-.07-.24s-.08-.14-.13-.2-.11-.1-.18-.14-.14-.05-.22-.05-.15.02-.2.05-.1.08-.13.14-.05.12-.06.2 0 .15.01.24zm2.18.56l.2-1.39h.2l.01.28-.2 1.42h-.19l-.01-.3zm-.54-1.39l.63 1.41.08.28h-.2l-.8-1.7h.3zm1.6 1.4l.11-1.4h.29l-.2 1.7h-.2l-.01-.3zm-.63-1.4l.67 1.37.11.32h-.19l-.71-1.42-.09-.27h.21z"/><path d="M869.71 299.8l.4 2.28h-.31l-.4-2.28h.31zm.98.95l.24 1.33h-.29l-.3-1.69h.28l.08.36zm0 .42h-.12c-.02-.12-.02-.22 0-.32s.05-.19.1-.26.11-.13.19-.17.17-.06.27-.06c.08 0 .16.01.23.03s.14.06.19.11.11.11.15.19.07.17.09.28l.2 1.11h-.3l-.2-1.11c-.02-.09-.04-.16-.08-.21s-.08-.09-.14-.12-.12-.04-.2-.04-.14.02-.19.05-.1.07-.13.13-.06.11-.07.18-.01.14 0 .22zm2.16-.78l.04.22h-.93l-.04-.22h.93zm-.69-.41h.29l.3 1.69c.01.06.03.1.05.13s.05.05.08.06.06.01.1.01c.02 0 .05 0 .08-.01l.06-.01.04.24c-.02.01-.05.01-.09.02s-.08.01-.13.01a.5.5 0 0 1-.21-.04c-.06-.03-.12-.07-.17-.14s-.08-.16-.1-.27l-.3-1.69zm2.05 2.14c-.12 0-.23-.02-.34-.06s-.2-.1-.28-.17-.15-.16-.21-.26-.09-.21-.11-.33l-.01-.07c-.02-.14-.03-.26 0-.37s.06-.2.12-.28.13-.13.21-.17.17-.06.27-.06c.12 0 .23.02.33.06s.18.1.25.18.13.16.17.26.08.21.1.33l.02.13h-1.29l-.04-.24h.99v-.02c-.02-.08-.05-.15-.09-.22s-.09-.13-.16-.17-.15-.07-.25-.07c-.07 0-.12.01-.18.04s-.09.07-.12.12-.05.12-.06.2 0 .17.01.27l.01.07c.01.08.04.16.07.23s.08.13.13.19.12.1.18.13.14.05.23.05c.1 0 .19-.02.25-.06s.12-.1.16-.17l.2.14c-.03.06-.07.11-.11.16s-.11.09-.19.12-.17.05-.29.05zm1.05-1.46l.25 1.43h-.29l-.3-1.69h.29l.06.27zm.49-.27l.05.27c-.02 0-.05-.01-.07-.01s-.05 0-.07 0c-.07 0-.13.01-.17.03s-.09.05-.12.09-.05.08-.06.13-.01.11-.01.17l-.07.05c-.02-.1-.02-.2-.02-.29s.02-.17.05-.24.08-.12.14-.16.14-.06.23-.06c.02 0 .05 0 .07.01s.05.01.06.01zm1.08 1.44l.22-1.43h.3l-.32 1.69h-.2v-.26zm-.65-1.43l.74 1.44.08.25h-.2l-.92-1.69h.3zm1.77 0l.3 1.69h-.3l-.3-1.69h.3zm-.4-.45c-.01-.05 0-.09.02-.12s.07-.05.12-.05.1.02.14.05.06.07.07.12 0 .08-.03.12-.06.05-.12.05-.1-.02-.14-.05-.06-.07-.06-.12zm1.89 2.18c-.12 0-.23-.02-.34-.06s-.2-.1-.28-.17-.15-.16-.2-.26-.09-.21-.11-.33l-.01-.07c-.03-.14-.03-.26 0-.37s.06-.2.12-.28.13-.13.21-.17.17-.06.27-.06c.12 0 .23.02.33.06s.18.1.25.18.13.16.17.26.08.21.1.33l.02.13h-1.29l-.04-.24h.99v-.02c-.02-.08-.05-.15-.09-.22a.5.5 0 0 0-.16-.17c-.07-.05-.15-.07-.25-.07-.07 0-.13.01-.18.04s-.09.07-.12.12-.05.12-.06.2 0 .17.01.27l.01.07c.01.08.04.16.07.23s.08.13.13.19.12.1.18.13.14.05.23.05c.1 0 .19-.02.25-.06s.12-.1.16-.17l.2.14c-.03.06-.06.11-.11.16s-.11.09-.19.12-.17.05-.29.05zm1.39-.33l.2-1.39h.19l.01.28-.2 1.42h-.19l-.01-.3zm-.54-1.39l.63 1.41.08.29h-.2l-.8-1.69h.29zm1.6 1.4l.11-1.4h.29l-.2 1.69h-.2v-.3zm-.63-1.4l.67 1.37.11.32h-.19l-.71-1.42-.09-.27h.21zm3.87-.59l.4 2.28h-.31l-1.48-1.76.31 1.76h-.31l-.4-2.28h.31l1.48 1.76-.31-1.76h.3zm.68 1.45v-.04c-.02-.12-.02-.24-.01-.34s.05-.2.11-.27.13-.14.21-.18.19-.06.31-.06.23.02.34.06.2.1.28.18.15.17.21.27.09.22.11.34l.01.04c.02.12.02.24.01.34s-.05.19-.11.27-.12.14-.21.18-.19.06-.31.06a.9.9 0 0 1-.34-.06c-.1-.04-.2-.11-.28-.18s-.15-.17-.2-.27-.09-.22-.12-.34zm.29-.04l.01.04c.02.08.04.17.07.24s.08.14.13.2.11.1.18.14.14.05.22.05a.4.4 0 0 0 .2-.05c.06-.03.1-.08.13-.14s.05-.12.06-.2 0-.16-.01-.24l-.01-.04c-.01-.08-.04-.16-.07-.24s-.08-.14-.13-.2-.11-.11-.18-.14-.14-.05-.22-.05-.15.02-.2.05-.1.08-.13.14-.05.12-.06.2 0 .15.01.24zm2.22-.22l.04.24h-.78l-.04-.24h.78zm1.4.64c-.01-.04-.02-.08-.05-.12s-.07-.07-.13-.1a1.1 1.1 0 0 0-.27-.08l-.27-.07c-.08-.03-.15-.06-.21-.1s-.11-.08-.15-.14-.06-.11-.08-.18-.01-.13.01-.19.05-.11.1-.16a.5.5 0 0 1 .18-.11c.07-.03.16-.04.26-.04.14 0 .26.02.37.07s.19.11.26.19.11.17.13.26h-.29c-.01-.05-.03-.09-.07-.14s-.08-.08-.14-.11-.13-.04-.2-.04-.15.01-.19.04-.08.06-.09.09-.02.08-.01.12c0 .03.02.06.03.09s.04.05.07.07.08.04.13.06a2.1 2.1 0 0 0 .21.05c.15.03.27.07.37.11s.18.1.23.16.09.14.11.23c.01.07.01.14-.01.2s-.06.12-.11.16-.11.08-.19.1-.17.04-.27.04c-.15 0-.28-.03-.4-.08s-.21-.12-.27-.21-.11-.17-.13-.27h.3c.02.08.05.14.1.19s.11.08.17.1.13.03.19.03c.08 0 .15-.01.2-.03s.09-.05.11-.09.03-.08.02-.12zm.63-1.96l.42 2.41h-.29l-.42-2.41h.29zm.19 1.49h-.12a1 1 0 0 1 0-.32c.02-.1.05-.19.1-.26s.11-.13.19-.17.17-.06.27-.06c.09 0 .16.01.24.03s.14.06.19.11.11.11.14.19a1 1 0 0 1 .09.28l.2 1.11h-.3l-.2-1.11c-.02-.09-.04-.16-.08-.21s-.08-.09-.14-.12-.12-.04-.2-.04-.14.02-.19.05-.1.07-.13.13-.06.11-.07.18-.01.14 0 .22zm1.51.08v-.04c-.02-.12-.02-.24-.01-.34s.05-.2.11-.27.13-.14.22-.18.19-.06.31-.06.23.02.34.06.2.1.28.18.15.17.21.27a1.2 1.2 0 0 1 .11.34l.01.04c.02.12.02.24.01.34s-.05.19-.11.27-.13.14-.22.18-.19.06-.31.06-.23-.02-.34-.06-.2-.11-.28-.18-.15-.17-.2-.27-.09-.22-.11-.34zm.29-.04l.01.04a1 1 0 0 0 .07.24.8.8 0 0 0 .13.2c.05.06.11.1.18.14s.14.05.22.05.15-.02.2-.05.1-.08.13-.14.05-.12.06-.2 0-.16-.01-.24v-.04c-.01-.08-.04-.16-.07-.24s-.08-.14-.13-.2-.11-.11-.18-.14-.14-.05-.22-.05-.15.02-.21.05-.1.08-.13.14-.05.12-.06.2 0 .15.01.24zm2.18.56l.2-1.39h.19l.01.28-.2 1.42h-.19l-.01-.3zm-.54-1.39l.63 1.41.08.29h-.2l-.8-1.69h.29zm1.6 1.4l.11-1.4h.29l-.2 1.69h-.2l-.01-.3zm-.63-1.4l.67 1.37.11.32h-.19l-.71-1.42-.09-.27h.21z"/></g><path d="M820.87 283.88l.08.45c.04.21.05.38.03.53s-.06.26-.12.36-.15.16-.25.2-.22.06-.36.06c-.11 0-.21-.01-.31-.04s-.19-.07-.27-.13-.16-.13-.23-.22-.13-.2-.18-.32a2.3 2.3 0 0 1-.12-.43l-.08-.45c-.04-.2-.05-.38-.03-.52s.06-.26.12-.35.15-.16.25-.2.22-.06.36-.06c.11 0 .21.01.31.04s.19.07.27.13.16.13.23.22.13.2.17.32a2.1 2.1 0 0 1 .12.43zm-.4.51l-.1-.58c-.02-.1-.04-.19-.07-.27s-.05-.14-.08-.2-.07-.1-.11-.13-.08-.06-.13-.07-.1-.02-.15-.02c-.06 0-.12.01-.17.04s-.08.06-.11.12-.04.13-.04.21a1.8 1.8 0 0 0 .03.32l.1.58c.02.1.04.19.06.27s.05.14.09.2.07.1.11.14.08.06.13.08.09.02.15.02c.07 0 .12-.01.17-.04s.08-.07.11-.12.04-.13.04-.22-.01-.2-.03-.33zm2.72.32c.03.17.01.31-.04.42s-.15.2-.28.26-.27.08-.45.08-.33-.03-.48-.08-.27-.15-.37-.26-.16-.25-.19-.42c-.02-.11-.01-.21.01-.3s.08-.17.15-.23.15-.12.26-.15.22-.05.35-.05c.17 0 .33.03.48.09s.27.15.37.26.16.24.18.38zm-.5-.03c-.01-.08-.04-.16-.09-.22s-.1-.11-.17-.15-.14-.05-.22-.05-.15.02-.21.05-.09.08-.12.15-.03.14-.01.22.04.16.09.22.1.11.17.14.14.05.23.05.15-.02.21-.05.09-.08.12-.14.03-.14.01-.22zm.22-1.2c.02.13.01.25-.05.36s-.14.18-.26.24-.25.09-.42.09-.31-.03-.45-.09-.25-.14-.34-.24-.15-.22-.17-.36c-.03-.16-.01-.29.04-.4s.14-.19.25-.25.26-.09.42-.09.32.03.45.09.25.14.34.25.15.24.18.4zm-.49.02a.5.5 0 0 0-.08-.2c-.04-.06-.09-.1-.15-.13s-.12-.05-.2-.05-.13.01-.18.04-.08.08-.1.13-.02.12-.01.2.04.14.08.2.09.1.14.14.13.05.2.05.13-.02.18-.05.08-.08.1-.14.02-.12.01-.2zm2.79.38l.08.45c.04.21.05.38.03.53s-.06.26-.12.36-.15.16-.25.2-.22.06-.36.06c-.11 0-.21-.01-.31-.04s-.19-.07-.27-.13-.16-.13-.23-.22-.13-.2-.18-.32a2.3 2.3 0 0 1-.12-.43l-.08-.45c-.04-.2-.05-.38-.03-.52s.06-.26.12-.35.15-.16.25-.2.22-.06.36-.06c.11 0 .21.01.31.04s.19.07.27.13.16.13.23.22.13.2.17.32.09.27.12.43zm-.4.51l-.1-.58c-.02-.1-.04-.19-.07-.27s-.05-.14-.08-.2-.07-.1-.11-.13-.08-.06-.13-.07-.1-.02-.15-.02c-.07 0-.12.01-.17.04s-.08.06-.11.12-.04.13-.04.21.01.19.03.32l.1.58c.02.1.04.19.06.27s.05.14.09.2.07.1.11.14.08.06.13.08.1.02.15.02c.06 0 .12-.01.16-.04s.08-.07.11-.12.04-.13.04-.22-.01-.2-.03-.33z" fill="#c1c1c1"/><path transform="matrix(.1736 .9848 -1 0 826.328 283.113)" stroke="#d9d9d9" stroke-width=".14" d="M0-.07h2.72"/><path d="M829.5 283.88l.08.45c.04.21.05.38.03.53s-.06.26-.12.36-.15.16-.25.2-.22.06-.36.06c-.11 0-.21-.01-.31-.04s-.19-.07-.27-.13-.16-.13-.23-.22-.13-.2-.18-.32a2.3 2.3 0 0 1-.12-.43l-.08-.45c-.04-.2-.05-.38-.03-.52s.06-.26.12-.35.15-.16.25-.2.22-.06.36-.06c.11 0 .21.01.31.04s.19.07.27.13.16.13.23.22.13.2.18.32.09.27.12.43zm-.4.51l-.1-.58c-.02-.1-.04-.19-.07-.27s-.05-.14-.09-.2a.5.5 0 0 0-.11-.13c-.04-.03-.08-.06-.13-.07s-.09-.02-.15-.02c-.07 0-.12.01-.17.04s-.08.06-.11.12-.04.13-.04.21.01.19.03.32l.1.58c.02.1.04.19.06.27s.05.14.09.2.07.1.11.14.08.06.13.08.1.02.15.02c.07 0 .12-.01.17-.04s.08-.07.11-.12.04-.13.04-.22-.01-.2-.03-.33zm2.82.67l.07.38h-1.83l-.06-.33.71-.93c.07-.1.13-.19.17-.27s.07-.14.08-.2.01-.12 0-.18c-.01-.08-.04-.15-.08-.21s-.09-.11-.15-.14-.13-.05-.22-.05c-.09 0-.16.02-.22.06a.3.3 0 0 0-.12.17c-.02.07-.02.15 0 .25h-.49c-.03-.16-.02-.3.03-.43s.14-.23.26-.31.28-.12.47-.12c.18 0 .35.03.49.09s.25.14.34.26.14.24.17.4c.01.09.02.17 0 .25s-.04.17-.08.25-.08.16-.14.25a3.5 3.5 0 0 1-.19.25l-.43.58h1.2zm1.92-1.18l.08.45c.04.21.05.38.03.53s-.06.26-.12.36-.15.16-.25.2-.22.06-.36.06c-.11 0-.21-.01-.31-.04s-.19-.07-.27-.13-.16-.13-.23-.22-.13-.2-.18-.32a2.3 2.3 0 0 1-.12-.43l-.08-.45c-.04-.2-.05-.38-.03-.52s.06-.26.12-.35.15-.16.25-.2.22-.06.36-.06c.11 0 .21.01.31.04s.19.07.27.13.16.13.23.22.13.2.18.32.09.27.12.43zm-.4.51l-.1-.58c-.02-.1-.04-.19-.07-.27s-.05-.14-.08-.2a.5.5 0 0 0-.11-.13c-.04-.03-.08-.06-.13-.07s-.1-.02-.15-.02c-.06 0-.12.01-.17.04s-.08.06-.11.12-.04.13-.04.21.01.19.03.32l.1.58c.02.1.04.19.06.27s.05.14.09.2.07.1.11.14.08.06.13.08.1.02.15.02c.07 0 .12-.01.17-.04s.08-.07.11-.12.04-.13.04-.22-.01-.2-.03-.33z" class="B"/><path d="M824.5 272.85a14.8 14.8 0 0 1 14.02 11.77c1.15 6.5-3.28 11.77-9.87 11.77a14.8 14.8 0 0 1-14.02-11.77c-1.15-6.5 3.27-11.77 9.87-11.77zm.33 1.87a8.1 8.1 0 0 0-8.3 9.89c.96 5.47 6.24 9.89 11.79 9.89a8.1 8.1 0 0 0 8.3-9.89c-.96-5.46-6.24-9.89-11.79-9.89z" class="H"/><path d="M824.23 271.25a16.8 16.8 0 0 1 15.94 13.37 14.7 14.7 0 0 1 .08.53h-5.17a9.2 9.2 0 0 0-.07-.53 10.4 10.4 0 0 0-9.88-8.29l-.9-5.08zm-11.21 13.44l-.01-.07-.01-.07.02.14z" class="B"/><path d="M873.6 283.88l.08.45c.04.21.05.38.03.53s-.06.26-.12.36-.15.16-.25.2-.22.06-.36.06c-.11 0-.21-.01-.31-.04s-.19-.07-.27-.13-.16-.13-.23-.22-.13-.2-.18-.32-.09-.27-.12-.43l-.08-.45c-.04-.2-.05-.38-.03-.52s.06-.26.12-.35.15-.16.25-.2.22-.06.36-.06c.11 0 .21.01.31.04s.19.07.27.13.16.13.23.22.13.2.18.32.09.27.12.43zm-.4.51l-.1-.58c-.02-.1-.04-.19-.07-.27s-.05-.14-.08-.2a.5.5 0 0 0-.11-.13c-.04-.03-.08-.06-.13-.07s-.1-.02-.15-.02c-.06 0-.12.01-.17.04s-.08.06-.11.12-.04.13-.04.21.01.19.03.32l.1.58c.02.1.04.19.06.27s.05.14.09.2.07.1.11.14.08.06.13.08.1.02.15.02c.07 0 .12-.01.17-.04s.08-.07.11-.12.04-.13.04-.22-.01-.2-.03-.33zm2.72.32c.03.17.01.31-.04.42s-.15.2-.28.26-.27.08-.45.08-.33-.03-.48-.08-.27-.15-.37-.26-.16-.25-.19-.42c-.02-.11-.01-.21.01-.3s.08-.17.15-.23.16-.12.26-.15.22-.05.35-.05c.17 0 .33.03.48.09s.27.15.37.26.16.24.18.38zm-.5-.03c-.02-.08-.05-.16-.09-.22s-.1-.11-.17-.15-.14-.05-.22-.05-.15.02-.21.05-.09.08-.12.15-.03.14-.01.22.04.16.09.22.1.11.17.14.14.05.23.05.15-.02.21-.05.09-.08.11-.14.03-.14.01-.22zm.22-1.2c.02.13.01.25-.04.36s-.14.18-.26.24-.26.09-.42.09-.31-.03-.45-.09-.25-.14-.34-.24-.15-.22-.17-.36c-.03-.16-.01-.29.04-.4s.14-.19.25-.25.26-.09.42-.09.32.03.45.09.25.14.34.25.15.24.18.4zm-.49.02c-.01-.07-.04-.14-.08-.2a.4.4 0 0 0-.15-.13c-.06-.03-.12-.05-.2-.05s-.13.01-.18.04-.08.08-.1.13-.02.12-.01.2.04.14.08.2.09.1.15.14.12.05.2.05.13-.02.18-.05.08-.08.1-.14.02-.12.01-.2zm2.78.38l.08.45c.04.21.05.38.03.53s-.06.26-.12.36-.15.16-.25.2-.22.06-.36.06c-.11 0-.21-.01-.31-.04s-.19-.07-.27-.13-.16-.13-.23-.22-.13-.2-.18-.32-.09-.27-.12-.43l-.08-.45a1.8 1.8 0 0 1-.03-.52c.02-.14.06-.26.12-.35s.15-.16.25-.2.22-.06.36-.06c.11 0 .21.01.31.04s.19.07.27.13.16.13.23.22.13.2.18.32.09.27.12.43zm-.4.51l-.1-.58c-.02-.1-.04-.19-.06-.27s-.05-.14-.09-.2-.07-.1-.11-.13-.08-.06-.13-.07-.1-.02-.15-.02c-.06 0-.12.01-.17.04s-.08.06-.11.12-.04.13-.04.21.01.19.03.32l.1.58c.02.1.04.19.06.27s.06.14.09.2.07.1.11.14.08.06.13.08.1.02.15.02c.07 0 .12-.01.17-.04s.08-.07.11-.12.04-.13.04-.22-.01-.2-.03-.33z" fill="#d9d9d9"/><path transform="matrix(.1736 .9848 -1 0 879.32 283.113)" stroke="#d9d9d9" stroke-width=".14" d="M0-.07h2.72"/><path d="M882.77 283.88l.08.45a1.9 1.9 0 0 1 .03.53c-.02.14-.06.26-.12.36s-.15.16-.25.2-.22.06-.36.06c-.11 0-.21-.01-.31-.04s-.19-.07-.27-.13-.16-.13-.23-.22-.13-.2-.18-.32-.09-.27-.12-.43l-.08-.45c-.04-.2-.05-.38-.03-.52s.06-.26.12-.35.15-.16.25-.2.22-.06.36-.06c.11 0 .21.01.31.04s.19.07.27.13.16.13.23.22.13.2.18.32.09.27.12.43zm-.4.51l-.1-.58c-.02-.1-.04-.19-.07-.27s-.05-.14-.09-.2-.07-.1-.11-.13-.08-.06-.13-.07-.09-.02-.15-.02c-.06 0-.12.01-.17.04s-.08.06-.11.12-.04.13-.04.21.01.19.03.32l.1.58c.02.1.04.19.06.27s.06.14.09.2.07.1.11.14.08.06.13.08.09.02.15.02c.07 0 .12-.01.17-.04s.08-.07.11-.12.04-.13.04-.22-.01-.2-.03-.33zm2.82.67l.07.38h-1.83l-.06-.33.71-.93a2.4 2.4 0 0 0 .17-.27c.04-.07.06-.14.08-.2s.01-.12 0-.18c-.01-.08-.04-.15-.08-.21s-.09-.11-.16-.14-.13-.05-.22-.05c-.09 0-.16.02-.22.06s-.09.1-.12.17-.02.15 0 .25h-.49c-.03-.16-.02-.3.04-.43s.14-.23.26-.31.28-.12.47-.12.35.03.49.09.25.14.34.26.14.24.17.4c.01.09.01.17 0 .25s-.04.17-.08.25-.08.16-.14.25l-.19.25-.43.58h1.2zm1.92-1.18l.08.45a1.9 1.9 0 0 1 .03.53c-.02.14-.06.26-.12.36s-.15.16-.25.2-.22.06-.36.06c-.11 0-.21-.01-.31-.04s-.19-.07-.27-.13-.16-.13-.23-.22-.13-.2-.18-.32-.09-.27-.12-.43l-.08-.45c-.04-.2-.04-.38-.03-.52s.06-.26.12-.35.15-.16.25-.2.22-.06.36-.06c.11 0 .21.01.31.04s.19.07.27.13.16.13.23.22.13.2.18.32.09.27.12.43zm-.4.51l-.1-.58c-.02-.1-.04-.19-.06-.27s-.05-.14-.09-.2-.07-.1-.11-.13-.08-.06-.13-.07-.1-.02-.15-.02c-.06 0-.12.01-.17.04s-.08.06-.11.12-.04.13-.04.21a1.7 1.7 0 0 0 .03.32l.1.58c.02.1.04.19.06.27s.05.14.09.2.07.1.11.14.08.06.13.08.1.02.15.02c.07 0 .12-.01.17-.04s.08-.07.11-.12.04-.13.04-.22-.01-.2-.03-.33z" class="B"/><path d="M877.04 272.85a14.8 14.8 0 0 1 14.02 11.77c1.15 6.5-3.27 11.77-9.87 11.77a14.8 14.8 0 0 1-14.02-11.77c-1.15-6.5 3.28-11.77 9.87-11.77zm.33 1.87a8.1 8.1 0 0 0-8.3 9.89c.96 5.47 6.24 9.89 11.79 9.89a8.1 8.1 0 0 0 8.3-9.89c-.96-5.46-6.24-9.89-11.79-9.89z" class="H"/><path d="M876.74 271.25a16.8 16.8 0 0 1 15.94 13.37 12.6 12.6 0 0 1 .08.54h-5.17l-.07-.53a10.4 10.4 0 0 0-9.88-8.29l-.9-5.08z" class="B"/><path d="M891.63 263.83l.34 1.9h-.26l-1.23-1.47.26 1.47h-.26l-.34-1.9h.26l1.24 1.47-.26-1.47h.25zm1.35 1.93c-.1 0-.19-.02-.28-.05s-.16-.08-.23-.14-.12-.13-.17-.22a.9.9 0 0 1-.09-.27l-.01-.06c-.02-.12-.02-.22 0-.31s.05-.17.1-.23.11-.11.18-.14.14-.05.22-.05c.1 0 .19.02.27.05s.15.08.21.15.11.13.14.22.07.17.08.27l.02.11h-1.07l-.04-.2h.83v-.02c-.01-.06-.04-.12-.07-.18s-.08-.11-.13-.15-.12-.06-.21-.06c-.06 0-.11.01-.15.03s-.08.06-.1.1-.04.1-.05.17 0 .14.01.23l.01.06c.01.07.03.13.06.19s.07.11.11.15.1.08.15.1.12.04.19.04c.09 0 .16-.02.21-.05s.1-.08.13-.14l.17.12c-.02.05-.05.09-.1.13s-.09.07-.16.1-.14.04-.24.04zm1.16-.28l.16-1.16h.16l.01.23-.17 1.18h-.16l-.01-.25zm-.45-1.16l.52 1.18.06.24h-.16l-.67-1.41h.24zm1.34 1.17l.09-1.17h.24l-.17 1.41h-.16l-.01-.25zm-.52-1.17l.56 1.14.09.27h-.16l-.6-1.18-.07-.23h.17z" class="E"/><rect width="3.8" height="3.8" rx="1.09" transform="matrix(1 0 .1736 .9848 883.836 263.223)" class="B"/><path d="M877.4 264.72l.02.12c.03.14.03.27.01.38s-.05.21-.11.29-.12.14-.21.18a.7.7 0 0 1-.31.06c-.11 0-.22-.02-.33-.06s-.19-.1-.28-.18-.15-.18-.21-.29-.1-.24-.12-.38l-.02-.12c-.02-.14-.03-.27-.01-.38s.05-.21.11-.29.13-.14.21-.18a.7.7 0 0 1 .3-.06c.12 0 .23.02.33.06s.2.1.28.18.15.18.21.29.1.24.12.38zm-.23.12l-.02-.12c-.02-.11-.05-.21-.09-.3s-.09-.16-.14-.22-.12-.1-.19-.13-.14-.05-.23-.05-.15.01-.21.05-.1.07-.14.13-.06.13-.07.22 0 .19.02.3l.02.12c.02.11.05.22.09.3s.09.16.14.22.12.1.19.13.14.05.22.05.15-.02.21-.05.11-.07.14-.13.05-.13.06-.22 0-.19-.02-.3zm.67-1.12l.35 2h-.25l-.35-2h.25zm1.6 1.73l-.31-1.73h.25l.35 2h-.23l-.07-.27zm-1.04-.42v-.03c-.02-.11-.02-.21-.01-.29s.04-.16.08-.23.09-.11.15-.15.14-.05.23-.05.17.02.24.05.14.08.2.14.11.13.15.21.08.18.11.28l.02.12c.01.1.01.2-.01.28s-.04.15-.08.21-.09.1-.15.14-.14.05-.23.05c-.08 0-.16-.02-.24-.05a.7.7 0 0 1-.2-.15c-.06-.06-.11-.14-.16-.23s-.07-.18-.09-.29zm.24-.03v.03c.01.07.03.14.06.2s.06.12.1.16.09.08.14.11a.4.4 0 0 0 .18.04c.08 0 .14-.02.19-.05s.08-.08.1-.13.04-.12.04-.18l-.06-.31c-.02-.05-.04-.09-.07-.14s-.06-.09-.1-.12-.08-.06-.13-.08-.11-.03-.17-.03c-.07 0-.12.01-.17.04s-.08.06-.1.11-.04.1-.04.16 0 .13.01.2z" class="E"/><rect width="3.8" height="3.8" rx="1.09" transform="matrix(1 0 .1736 .9848 869.445 263.223)" class="H"/><path d="M801.91 263.9h.36l.98 1.76.36-1.76h.36l-.48 2.28h-.28l-1.28-2.28zm-.16 0h.34l.33 1.52.13.76h-.4l-.4-2.28zm2.04 0h.34l.4 2.28h-.4l-.13-.76-.21-1.52zm1.65 2.1l.2-1.51h.41l-.35 1.95c-.01.04-.02.09-.04.14s-.04.1-.07.14-.08.08-.13.11-.13.04-.21.04c-.03 0-.07 0-.1-.01l-.09-.02-.05-.29h.04.04c.06 0 .12-.01.16-.02s.07-.04.09-.07.04-.08.05-.13l.07-.33zm-.53-1.51l.63 1.27.14.4-.25.07-.93-1.73h.41zm3.24.84h-.6l-.05-.31h.6c.11 0 .19-.02.25-.05s.1-.08.12-.14a.4.4 0 0 0 .01-.2c-.01-.07-.04-.14-.08-.2s-.1-.11-.17-.15-.16-.06-.26-.06h-.48l.35 1.97h-.4l-.4-2.28h.88c.18 0 .34.03.47.09s.25.15.33.26.14.23.16.37c.03.15.02.27-.03.38s-.13.19-.25.24-.26.08-.44.08zm1.46-.52l.24 1.37h-.38l-.3-1.69h.37l.08.32zm.47-.33l.06.35c-.02 0-.05-.01-.08-.01h-.08c-.07 0-.12.01-.17.03s-.08.04-.11.08-.05.07-.06.12-.01.1 0 .16l-.09.01c-.02-.11-.03-.21-.02-.3s.02-.17.05-.24.08-.12.13-.16.13-.06.22-.06c.02 0 .05 0 .08.01s.05.01.06.01zm1.27 1.74c-.13 0-.25-.02-.36-.06s-.21-.1-.29-.17-.15-.16-.21-.26-.09-.21-.11-.32l-.01-.06c-.02-.13-.02-.25 0-.36s.06-.2.12-.28.13-.14.22-.18.19-.06.3-.06c.12 0 .23.02.33.06s.19.1.26.17.14.16.18.26.08.21.11.34l.03.16h-1.33l-.05-.27h.95v-.03c-.01-.07-.04-.13-.08-.19s-.08-.11-.14-.14-.13-.06-.21-.06c-.06 0-.12.01-.16.04s-.08.06-.1.11a.5.5 0 0 0-.04.18 1 1 0 0 0 .02.24l.01.06c.01.07.04.14.07.21s.07.12.12.17.1.08.17.11.13.04.2.04c.09 0 .17-.02.24-.06s.12-.09.16-.15l.24.19a.6.6 0 0 1-.12.15c-.05.05-.12.09-.2.12s-.18.05-.29.05zm1.97-.38l-.36-2.06h.38l.42 2.41h-.35l-.1-.35zm-1.2-.48v-.03c-.02-.13-.03-.25-.02-.35a.7.7 0 0 1 .08-.27c.05-.08.11-.14.18-.18s.17-.06.27-.06.2.02.28.06.16.1.23.17.13.16.18.26.09.21.13.34l.02.11c.01.12 0 .23-.01.33s-.04.19-.09.26-.1.13-.17.17-.16.06-.26.06-.2-.02-.29-.06a.8.8 0 0 1-.24-.18c-.07-.08-.13-.17-.18-.27s-.08-.22-.11-.34zm.38-.03l.01.03c.01.08.03.15.06.22s.06.13.1.18.09.09.14.12.12.04.19.04c.09 0 .15-.02.2-.06s.08-.09.11-.15.03-.14.03-.22l-.05-.28c-.02-.06-.04-.12-.07-.17s-.06-.1-.1-.14-.09-.07-.14-.09-.11-.03-.18-.03-.13.01-.17.04-.08.07-.1.12-.03.11-.04.18 0 .14.02.22zm1.79-.83l.3 1.69h-.39l-.3-1.69h.38zm-.49-.45c-.01-.06 0-.1.03-.14s.08-.06.15-.06.13.02.17.06.07.08.08.14 0 .1-.03.14-.08.06-.15.06-.13-.02-.17-.06-.07-.08-.08-.14zm1.86 1.87c.06 0 .12-.01.16-.04s.08-.06.1-.1.03-.09.03-.15h.36c.02.11 0 .21-.05.3s-.12.16-.22.21-.21.08-.34.08-.25-.02-.36-.07-.2-.11-.28-.18-.14-.17-.19-.27-.09-.21-.11-.33l-.01-.06c-.02-.12-.02-.23-.01-.33s.05-.19.1-.27.12-.14.21-.18.2-.07.33-.07c.14 0 .26.03.38.08s.21.13.28.22.13.21.15.33h-.36c-.01-.06-.04-.12-.08-.17a.4.4 0 0 0-.14-.12c-.06-.03-.12-.05-.19-.05-.08 0-.14.02-.18.05s-.08.07-.1.13-.03.11-.03.18.01.13.02.2l.01.06c.01.07.03.14.05.2s.05.13.09.18.09.09.14.12.12.05.2.05zm1.54-1.43l.05.27h-.97l-.05-.27h.97zm-.76-.42h.38l.29 1.64c.01.05.02.09.04.12s.05.05.08.06.06.01.1.01c.03 0 .05 0 .08-.01l.06-.01.05.29c-.03.01-.07.02-.11.02s-.09.01-.14.01c-.09 0-.17-.02-.24-.05s-.14-.08-.19-.15-.09-.16-.11-.28l-.29-1.67zm1.47.42l.3 1.69h-.38l-.3-1.69h.38zm-.49-.45c-.01-.06 0-.1.03-.14s.08-.06.15-.06.13.02.17.06.07.08.08.14 0 .1-.03.14-.08.06-.15.06-.13-.02-.17-.06-.07-.08-.08-.14zm.99 1.31v-.04a1 1 0 0 1 0-.34c.02-.1.05-.2.11-.27s.13-.14.22-.18.2-.07.33-.07a.9.9 0 0 1 .35.07c.11.04.2.1.28.18s.15.17.21.27.09.22.11.34v.04c.02.12.02.24.01.34s-.05.2-.11.27-.13.14-.22.18-.2.06-.33.06-.24-.02-.35-.06-.2-.1-.28-.18a1 1 0 0 1-.21-.27c-.06-.1-.09-.22-.11-.34zm.38-.04l.01.04c.01.08.03.15.06.22s.06.13.11.18.09.09.15.12.12.04.2.04.13-.02.18-.04.08-.07.11-.12.04-.11.04-.18 0-.14-.01-.22v-.04c-.01-.07-.04-.15-.06-.21s-.06-.13-.11-.18-.09-.09-.15-.12a.4.4 0 0 0-.19-.05c-.07 0-.13.02-.18.05s-.08.07-.11.12-.04.11-.04.18 0 .14.01.21zm1.84-.47l.24 1.33h-.38l-.3-1.69h.36l.09.36zm.01.42h-.12c-.02-.12-.02-.23-.01-.33s.05-.19.09-.26.11-.13.19-.17.17-.06.27-.06c.08 0 .16.01.23.04s.14.06.19.11.11.12.15.2.07.18.09.29l.19 1.1h-.38l-.19-1.1c-.01-.08-.04-.15-.07-.19s-.07-.08-.12-.1-.11-.03-.17-.03-.12.01-.17.04-.08.06-.11.11-.04.1-.05.16-.01.13.01.2z" class="E"/><path d="M827.02 262.31h46.15c4.05 0 6.52-3.3 5.51-7.38s-5.11-7.38-9.17-7.38h-46.15c-4.05 0-6.52 3.3-5.51 7.38s5.11 7.38 9.17 7.38z" class="B"/><path d="M868.27 256.86l1.98.93c.19.09.34-.05.27-.24l-.82-1.96c-.03-.07-.02-.15.02-.2l1.07-1.39c.1-.13-.03-.36-.22-.38l-2.03-.29c-.08-.01-.15-.06-.2-.12l-1.32-1.78c-.12-.17-.36-.17-.4 0l-.43 1.78c-.02.07-.07.11-.14.12l-1.88.29c-.18.03-.2.25-.03.38l1.76 1.39c.06.05.11.13.11.2l.15 1.96c.01.18.24.32.38.24l1.52-.93c.06-.04.14-.04.21 0z" fill="#c2d4d9"/><g class="C"><path d="M858.52 256.86l1.98.93c.19.09.34-.05.27-.24l-.82-1.96c-.03-.07-.02-.15.02-.2l1.07-1.39c.1-.13-.03-.36-.22-.38l-2.03-.29c-.08-.01-.15-.06-.2-.12l-1.32-1.78c-.12-.17-.36-.17-.4 0l-.43 1.78c-.02.07-.07.11-.14.12l-1.88.29c-.18.03-.2.25-.03.38l1.76 1.39c.07.05.11.13.11.2l.15 1.96c.01.18.24.32.38.24l1.52-.93c.06-.04.14-.04.21 0zm-9.73 0l1.98.93c.19.09.34-.05.27-.24l-.82-1.96c-.03-.07-.02-.15.01-.2l1.07-1.39c.1-.13-.03-.36-.22-.38l-2.03-.29c-.08-.01-.15-.06-.2-.12l-1.32-1.78c-.12-.17-.36-.17-.4 0l-.43 1.78c-.02.07-.07.11-.14.12l-1.89.29c-.18.03-.19.25-.03.38l1.76 1.39c.07.05.11.13.12.2l.15 1.96c.01.18.24.32.38.24l1.52-.93c.06-.04.13-.04.21 0z"/><use href="#M"/><path d="M829.3 256.86l1.98.93c.19.09.34-.05.27-.24l-.82-1.96c-.03-.07-.02-.15.02-.2l1.07-1.39c.1-.13-.03-.36-.22-.38l-2.03-.29c-.08-.01-.15-.06-.2-.12l-1.32-1.78c-.12-.17-.36-.17-.4 0l-.43 1.78c-.02.07-.07.11-.14.12l-1.89.29c-.18.03-.19.25-.03.38l1.76 1.39c.07.05.11.13.11.2l.15 1.96c.01.18.24.32.38.24l1.52-.93c.06-.04.13-.04.21 0z"/></g><path d="M917.71 480.39s-1.3-3.19-6.72-2.63-6.1 1.58-6.85 4.26-2.76 5.5-4.03 6.06-5.98 3.46-9.74 3.91-4.28 2.71-3.5 3.8 14.82 2.61 17.95 2.34c0 0 10.57.31 13.1-.4s-.04-16.29-.19-17.34z" class="I"/><path d="M916.26 457.48l1.63 24.94s-3.87 1.25-6.81 3.42c-4.35 3.2-7.91-.68-7.91-.68l-.98-15.69 14.07-11.99z" class="F"/><path d="M884.78 413.55l16.02 69.23s8.31 1.19 18.4-3.58l-9.5-69.23c-.59-4.18-23.74 0-24.92 3.58z" class="B"/><g class="F"><path d="M949.73 234.43s-6.58 1.23-10.9 10.98-3.28 31.13-1 33.79 9.76 2.2 20.27-.53c11.11-2.88 15.53-14 17.97-21.37 4.67-14.11-6.77-29.71-26.34-22.87z"/><path d="M967.99 291.45l-3.78-18.23s-9.74-3.58-16.39 2.67l-2.26 2.77-.77 11.65s10.21 2.77 23.2 1.13z"/></g><g class="I"><path d="M968.21 403.54s-21.2 6.24-46.35 5.38-28.47-8.03-29.26-14.87 18.78-11 27.28-13.24 37.6-10.66 45.47-2.13 9.7 19.03 2.85 24.86zm-109.25 76.85s-1.3-3.19-6.72-2.63-6.1 1.58-6.85 4.26-2.76 5.5-4.03 6.06-5.98 3.46-9.74 3.91-4.28 2.71-3.51 3.8 14.82 2.61 17.95 2.34c0 0 10.57.31 13.1-.4s-.04-16.29-.2-17.34z"/></g><path d="M865.2 459.31l-5.93 24.27s-4.75-1.19-7.52 1.19-7.91.8-7.91.8l4.35-19.1 17.01-7.16z" class="F"/><path d="M914.26 382.3c-1.19 0-41.54 13.53-49.45 19.5-7.91 6.37-20.57 77.29-21.36 78.88s11.47 5.97 19.39 4.77c.39-1.59 18.99-61.37 18.99-65.35 0 0 31.65-1.59 45.1-3.98s22.55-2.79 28.09-17.51-26.9-15.92-26.9-15.92l-13.85-.4z" class="B"/><g class="G"><path d="M845.22 325.81s-7.72-.2-8.31.6-3.36 7.96-.79 10.94l2.18 1.59h6.73l.2-13.13zm124.12-37l-2.08-5.37s-12.46-3.88-23.14.9c-2.67 2.69-4.15 6.86-4.15 6.86l29.38-2.39z"/></g><g class="B"><path d="M972.02 289.41s-1.58-2.78-4.35-3.18-15.43-1.99-23.74.4c-3.16 1.19-4.75 2.78-4.75 2.78s-11.87 3.98-15.82 6.37-5.14 20.69-5.93 26.66 1.58 12.33 1.58 12.33-9.5 38.99-9.5 44.56 3.16 11.94 14.24 15.91 41.14 2.39 51.43-3.98c3.16-6.37 7.91-81.97 8.7-89.13s-11.87-12.73-11.87-12.73z"/><path d="M979.14 294.18s6.33 3.18 9.1 12.33-12.27 33.82-12.27 32.63-15.03-7.96-15.03-7.96l7.52-27.85 10.68-9.15z"/></g><path d="M825.73 334.47l-31.45-23.57 30.86-1.79 29.08 22.68-28.49 2.69z" class="C"/><path d="M834.54 326.81l-7.91-4.38-7.86-3.18c-.22 0-.89.75-.07 2.31s2.97 1.94 2.97 1.94l1.41 3.95-7.32-1.04-1.68-.4s1.19 2.99 1.68 3.68 3.26 2.49 3.26 2.49 5.24 4.38 7.12 4.87 8.41.8 8.41.8l4.15-.1 3.86.8s1.98-3.68 1.68-8.85l-9.69-2.88z" class="F"/><g stroke="#e66657" class="J K"><path d="M824.16 331.38l-8.41-1.69-1.68-3.68m1.98 3.89l4.85 3.88a33.4 33.4 0 0 0 3.26 1"/></g><path d="M929.89 294.18s-2.97-1.79-10.09 2.98-26.7 22.68-29.08 23.87-48.07 3.58-48.07 3.58-6.53 8.36.59 14.92c0 0 44.11 1.79 52.42 1.19s36-16.71 36-16.71 11.28-16.71-1.78-29.84z" class="B"/><g stroke="#1b2048" stroke-width=".66" class="J"><path d="M939.4 320.52s-36.99 19.53-41.31 20.15-20.65 0-20.65 0"/><path d="M889.46 325.47s-1.23 6.82 3.08 10.85m-5.86-12.7s-3.7 5.89-1.85 10.23m54.88-21.09s3.08-10.85-7.71-17.98m47.48 7.75s2.16 19.22 2.16 28.22m-13.26-40.93s-14.18-1.24-25.9 0m-66.9 124.95s-6.78-2.17-9.25-12.71m4.62 13.65s-4.01-1.24-5.86-6.82m30.53 18.91l10.17 51.16"/></g><path d="M940.27 247.33s-1.19 5.37 3.56 8.95l-.3 5.97s-1.78 5.37-.59 5.97 1.48-.3 1.48-.3 3.86-6.27 5.05-6.56-2.67 8.35-2.67 8.35 3.86 5.97 10.98 6.86l-1.48-2.09s3.26 2.09 8.31 1.79 8.9-8.06 8.9-8.06-.89 2.09 0 2.98 5.93-6.86 6.23-16.71l1.48 2.98s-.3-6.86-2.97-14.62-14.54-13.43-21.07-13.43-13.05.6-14.83 0-.89 4.48-.89 4.48-.89-2.09-1.19-3.88c-1.19-.89-2.97 6.27-2.37 8.95l.59 2.69s-2.08-2.69-2.37-4.18c-1.19-.3-.89 6.27 4.15 9.85z" class="I"/><path d="M944.58 262.2s1.2-4 4.49-1.89-1.38 11.51-4.13 10.7-1.08-7.28-.36-8.8z" fill="#ff634d"/><path d="M945.91 272.3s1.19 4.18-5.93 6.56" stroke="#e66657" class="J K"/><g fill="#093542"><path d="M944.52 422.97h14.04l24.5 74.78h-1.89l-36.65-74.78zm-36.75 0h-14.05l-24.49 74.19h1.88l36.66-74.19zm30.54 73h2.33l4.47-68.26h-11.26l4.46 68.26z"/></g><g fill="#6a89ce"><path d="M1019.03 344.65l-38.11 71.57h-63.49c-1.23 0-11.27-.82-11.86-.01l45.55-85.53c4.39-8.25 12.99-13.42 22.35-13.42h29.08a18.3 18.3 0 0 1 1.87.1c13.01 1.23 20.93 15.43 14.62 27.3z"/><path d="M980.92 416.21a28 28 0 0 1-24.92 15.28h-79.09a12.4 12.4 0 0 1-10.94-6.56l-.22-.43a12.2 12.2 0 0 1-1.26-5.45v-.18c.01-1.48 1.21-2.66 2.68-2.66l113.76-.01z"/></g><path d="M1019.03 344.65l-38.11 71.57A28 28 0 0 1 956 431.5h-79.09a12.4 12.4 0 0 1-10.94-6.56c3.51-1.66 9.86-.46 13.42-.47 21.35-.04 45.73 3.14 64.46-8.25 3.14-1.9 6.04-4.18 8.64-6.79 12.22-12.19 20.08-28.39 27.21-43.7 7.61-16.35 15.41-32.85 24.73-48.38 13 1.23 20.92 15.43 14.61 27.3z" fill="#4f72b2"/><path opacity=".95" d="M823.12 214.68H878a9.1 9.1 0 0 0 9.1-9.14V157.7a9.1 9.1 0 0 0-9.1-9.14h-54.88a9.1 9.1 0 0 0-9.09 9.14v47.85a9.1 9.1 0 0 0 9.09 9.14z" fill="url(#I)"/><path d="M845.6 142.77s-4.67 2.58-3.19 8.91 2.05 7.17.84 9.73-2.26 13.29-.98 15.25 14.31-9.57 15.76-18.8-1.81-13.15-2.97-14.61-5.35-2.83-9.47-.48z" fill="#344052"/><path d="M836.83 195.12h5l.42-4.46c-.07-.42 4.98-13.72 5.45-14.83s2.32-4.05 2.57-6.83-3.36-3.9-3.36-3.9c-4.87.88-6.52 7.64-6.52 7.64s-2.04 13.72-3.08 17.58c-.27.99-.41 2.74-.47 4.79z" class="D"/><g fill="#eb4747"><path d="M839.35 176.05l7.44 3.15s6.84-17.06 1.11-15.16c-5.72 1.9-8.29 5.47-8.55 12z"/><path d="M841 184.09l.91 9.31c-.03.27-.14.88-.31 1.72h17.95l-1.17-4.11c-.87-2.91-.04-3.68.4-6.01.17-.91.77-2.64 1.43-4.59l.66-2.01c.79-2.46 1.16-4.97 1.38-6.44 1.08-6.94-4.23-7.61-4.23-7.61-1.97-.36-5.42-1.44-5.42-1.44l-5.4 1.13s-.51.19-1.26.75a10 10 0 0 0-1.22 1.07c-.59.61-1.76 2.35-2.94 4.27l-1.06 1.78c-1.1 1.91-1.88 3.45-1.85 5.19.02 1.71 1.91 5.28 2.12 6.98z"/></g><g class="D"><path d="M847.21 164.06s-3.38 5.81-2.12 6.24 7.89-1.03 10.48-6.52c0 0-4.35-1.99-8.35.28z"/><path d="M847.71 166.71s3 1.28 5.73-2.93c0 0-.73-4.78.81-7.54s-6.76 3.31-6.76 3.31l.27 1.41.2 1.46.1 1.37c.03 1.07-.04 2.14-.36 2.91z"/></g><path d="M855.16 173.22c.62 3.2 5.06 7.2 5.06 7.2l.66-2.01c-3.06-1.96-5.72-5.19-5.72-5.19z" fill="#393d63"/><path d="M856.27 175.76a178.4 178.4 0 0 1 1.44 13.37c-.08.23-.71 2.96-1.34 5.99h5.79c.59-1.96.95-3.58.86-4.5-.37-3.98.97-16.67.97-16.67s1.2-7.68-5.14-8.64c0 0-3.74.5-3.97 3.27s1.1 6 1.38 7.16z" class="D"/><path d="M864.47 177.39l-7.87 1.85s-6.24-12.18-.62-14.4c5.93-2.34 9.91 5.91 8.49 12.55z" fill="#eb4747"/><path d="M846.33 143.43s-6.84 2.52-2.5 14.38 13.18-2.02 11.84-9.31-9.34-5.07-9.34-5.07z" fill="#eea987"/><path d="M842.78 150.65s3.61 3.24 9.4 3.39l1.57 4.33s5.72-9.87-.86-14.86-12.54 5.07-10.12 7.14z" fill="#344052"/><path d="M851.39 154.74c0-.88.45-2.9 1.77-2.4s.14 4.62-.73 4.41c0 0-1.04.06-1.04-2.01z" fill="#eea987"/><path d="M848.05 163.6a7.3 7.3 0 0 0 4.49-4.07c-2.61 3.39-4.58 2.91-4.58 2.91l.09 1.17z" fill="#a77860"/><g fill="#4598e6"><path d="M847.94 202.17h5.8v1.08h-5.8v-1.08zm-14.75-41.65v1.06h-6.18v5.83h-1.05v-6.88h7.23zm41.96 6.88h-1.05v-5.83h-6.18v-1.06h7.23v6.88zm-48.14 30.07v5.83h6.18v1.06h-7.23v-6.88h1.05zm47.09 0h1.05v6.88h-7.23v-1.06h6.18v-5.83z"/></g><path opacity=".95" d="M676.34 300.03h100.81c6.59 0 11.94-5.36 11.94-11.96V165.34c0-6.61-5.35-11.96-11.94-11.96H676.34c-6.59 0-11.94 5.36-11.94 11.96v122.73c0 6.61 5.35 11.96 11.94 11.96z" fill="url(#J)"/><g fill="#4598e6"><path d="M722.95 239.97h9.88v1.84h-9.88v-1.84zm-25.14-72.02v1.8h-10.54v9.93h-1.79v-11.73h12.32zm71.54 11.73h-1.79v-9.93h-10.53v-1.8h12.32v11.73zm-82.08 51.26v9.94h10.54v1.8h-12.32v-11.74h1.79 0zm80.29 0h1.79v11.74h-12.32v-1.8h10.53v-9.94z"/></g><path d="M691.55 230.13h5.99l.27-.62c1.78-4.22 10.94-13.89 10.94-13.89v.02c.01.01.01.02.01.02 0 .01.01.03.01.04.01.02.01.05.02.08 0 .02.01.04.01.05s.01.03.01.04a161.8 161.8 0 0 1 3.14 14.25h40.55c.09-.54.2-1.05.33-1.53a33 33 0 0 0 .78-4.21c0-.07.02-.13.02-.2l.08-.73c.35-3.66.09-6.46.07-6.74.12.25.93 3.26 2.01 6.99l1.92 6.43h9.57l-12.02-34.83c-.26-.21-3.38-1.72-5.66-2.81-2.32-1.11-5.12-2.74-7.65-4.13-1.29-.71-2.51-1.36-3.57-1.84l-.16-.07h0l-2.91-1.33-.76-.07-12.55-1.09c-.21-.02-.38-.02-.52-.03a2.1 2.1 0 0 0-.25 0c-.32.02-1.88.57-3.93 1.35-.08.03-.16.06-.24.09l-.29.11-.54.21-1.13.44c-.13.05-.27.1-.4.16-4.1 1.64-8.81 3.66-9.92 4.47-.74.53-3.04 4.88-5.7 10.27-2.87 9.23-6.38 22.55-7.53 29.12z" fill="#decbc4"/><path d="M721.3 182.72c.11 5.48 10.66 8.47 10.66 8.47s4.41-5.56 3.36-6.09c-.41-.21-.58-1.04-.63-1.97-.05-.89.01-1.86.06-2.48l.06-.64s-1.51-1.6-3.43-3.5c-3.35-3.33-7.96-7.6-7.97-5.9 0 .09.01.2.04.32.81 3.82-2.15 11.79-2.15 11.79z" class="D"/><path d="M725.37 174.69a26.5 26.5 0 0 0 1.23 1.67c1.62 2.05 4.67 5.41 8.09 6.76a19.4 19.4 0 0 1 .06-2.48 5.5 5.5 0 0 0 1.05-.13c-.94-1.65-2.29-3.37-2.29-3.37l-2.12-.64-6.02-1.81z" fill="#a77860"/><path d="M723.35 170.68l2.03 4.02a7.1 7.1 0 0 0 1.23 1.67c1.74 1.88 4.97 4.37 8.15 4.28.35-.01.7-.05 1.05-.13 1.28-.28 2.8-.88 3.63-2.52 6.58-12.95 1.82-23.54 1.82-23.54s-18-5.12-20.82.33c-1.98 3.82.77 11.21 2.91 15.89z" class="D"/><path d="M741.25 154.46s1.67-.09 2.09-3.28c.41-3.15-.42-4.02-.42-4.02s-7.43-3.13-10.1-3.53-9.23-.8-10.77.97c0 0-3.74-.87-4.76 5.36-1.62 9.89 5.5 19.49 5.5 19.49s-.06-6.46 1.36-7.32 2.64 1.18 2.64 1.18l2.9.52s-4.41-9.56.88-9.91 7.65 1.09 10.67.53z" fill="#e8734d"/><path d="M726.72 160.74c-.28-2.85-5.4-3.93-5.06-.95s2.87 5.85 4.03 5.75 1.23-2.63 1.02-4.8z" class="D"/><g fill="#3c4145"><path d="M696.72 201.28c1.67-5.37 3.11-9.62 3.75-10.08 1.12-.81 10.01-3.26 14.23-4.92l.4-.16 1.13-.44.54-.21.29-.11.23-.09s.01.02.02.02a69.5 69.5 0 0 1 4.66 5.98c4.36 6.22 10.04 16.31 9.17 25.62l-1.2 12.09-.14 1.15h-19.67c-.24-5.04-.67-11.68-1.31-14.25 0-.02-.01-.03-.01-.04s0-.04-.01-.05c0-.03-.01-.05-.02-.08-.01-.02-.01-.03-.02-.04s-.01-.02-.01-.02-4.76 7.48-5.01 14.49h-12.38c.61-6.51 2.5-19.64 5.36-28.86zm41.59-14.71s1.49 4.97 3.41 17.37l.2 1.28.02.15.13.87.01.1.09.6.22 1.5a902.6 902.6 0 0 1 2.65 21.69h7.78c.42-2.38.82-4.55.79-6.04.02.03.03.07.04.1l2 5.44.19.5h13.4l-13.35-35.09c-.27-.21-3.7-2.07-5.98-3.15l-8.03-3.77-3.48-1.61-.08.06z"/></g><g fill="#51565c"><path d="M720.23 198.84l5.14 2.91-2.19 2.25 4.82 26.13h1.81c.67-5.28 1.05-10.02 1.35-13.25 1.34-14.4-12.96-30.64-13.85-31.63l-2.2.85 5.12 12.73zm18-12.41s1.92 6.29 4.15 22.01a889.5 889.5 0 0 1 2.66 21.69h.76l1-24.68-2.45-2.66 2.17-2.73-4.65-11.94-3.48-1.61-.16-.07z"/></g><g fill="#f5e2d9"><path d="M717.05 185.32l4.26-2.6s.12 2.34 10.66 8.47l-2.99 8.47-11.92-14.35z"/><path d="M734.77 183.9s-.17 2.53-2.8 7.29l5.84 7.65.43-12.41-3.46-2.53z"/></g><g fill="#d44040"><path d="M731.95 191.19s-1.13 4.55-.73 5.82c0 0 2.49.91 4.28-.23 0 0-1.27-3.19-3.55-5.6z"/><path d="M733.33 206.66a115 115 0 0 1 .75 23.46h4.99l.19-3.1c.93-16.18-4.77-30.65-4.77-30.65l-2.54-.64 1.37 10.92z"/></g><path d="M753.45 216.75l.16 7.33.01.3.02-.19 2 5.44a58.4 58.4 0 0 0 .15-5.93c-.28-10.89-3.68-16.6-3.68-16.6.78 1.9 1.16 5.97 1.34 9.65z" fill="#2d3133"/><path d="M677.59 269.62l1.77.06a12.1 12.1 0 0 1 1.37.15l1.28.28-.26 2.42-1.3-.06-1.26-.04-1.6-.02c-.73 0-1.3.15-1.71.45-.4.29-.68.78-.86 1.48s-.26 1.68-.26 2.93c0 1.24.09 2.22.26 2.93.17.7.46 1.19.86 1.48.41.29.98.43 1.71.43l2.48-.04 1.99-.15.28 2.39a11.7 11.7 0 0 1-2.1.45c-.71.1-1.6.15-2.65.15-1.52 0-2.74-.24-3.66-.73-.91-.5-1.57-1.3-1.99-2.42-.4-1.11-.6-2.61-.6-4.49s.2-3.38.6-4.49c.41-1.11 1.08-1.91 1.99-2.39.91-.5 2.13-.75 3.66-.75zm11.63 4.17c1.33 0 2.39.19 3.18.56.8.36 1.37.94 1.71 1.75.36.81.53 1.9.53 3.27 0 1.34-.18 2.41-.53 3.23-.34.81-.91 1.4-1.71 1.75s-1.86.54-3.18.54c-1.31 0-2.37-.18-3.16-.54a3.3 3.3 0 0 1-1.73-1.75c-.36-.81-.54-1.89-.54-3.23 0-1.37.18-2.46.54-3.27a3.3 3.3 0 0 1 1.73-1.75c.8-.37 1.85-.56 3.16-.56zm0 2.29c-.54 0-.97.09-1.28.28s-.53.51-.66.98a8.2 8.2 0 0 0-.19 2.03c0 .85.06 1.52.19 1.99s.35.8.66.98a2.7 2.7 0 0 0 1.28.26c.55 0 .99-.08 1.3-.26.31-.19.53-.51.64-.98.13-.47.19-1.13.19-1.99a8.2 8.2 0 0 0-.19-2.03c-.11-.47-.33-.8-.64-.98s-.75-.28-1.3-.28zm14.94-2.29c2 0 2.99.98 2.99 2.93v7.91h-3.16v-6.93c0-.47-.08-.79-.26-.96-.17-.19-.46-.28-.88-.28a3.9 3.9 0 0 0-1.41.28c-.49.17-1.08.43-1.8.79l-.15-1.75c.75-.64 1.52-1.13 2.31-1.48.8-.34 1.58-.51 2.35-.51zm-4.81.28l.36 2.09.26.28v8.19h-3.14v-10.56h2.52zm17.65-.28c2 0 2.99.98 2.99 2.93v7.91h-3.16v-6.93c0-.47-.09-.79-.26-.96-.17-.19-.46-.28-.88-.28-.46 0-.93.09-1.41.28-.48.17-1.08.43-1.79.79l-.15-1.75c.75-.64 1.52-1.13 2.31-1.48.8-.34 1.58-.51 2.35-.51zm-4.81.28l.36 2.09.26.28v8.19h-3.14v-10.56h2.52zm15.3-.28c1.78 0 3.06.31 3.83.92.78.6 1.18 1.5 1.18 2.69.01.96-.23 1.68-.73 2.16s-1.36.73-2.59.73h-5.9v-1.77h5.05c.47 0 .77-.1.9-.3.14-.21.21-.5.21-.88 0-.5-.14-.84-.43-1.03-.27-.2-.74-.3-1.41-.3-.58-.01-1.04.06-1.37.23-.33.16-.56.46-.68.9s-.19 1.08-.19 1.92c0 .88.08 1.57.24 2.05.16.47.42.8.79.98a3.7 3.7 0 0 0 1.58.28l1.8-.04 2.18-.19.3 1.95a6.3 6.3 0 0 1-1.41.47 12.1 12.1 0 0 1-1.62.24l-1.6.09a7.6 7.6 0 0 1-3.23-.58c-.81-.4-1.4-1-1.77-1.82-.36-.81-.53-1.85-.53-3.12 0-1.38.18-2.48.53-3.29a3.4 3.4 0 0 1 1.75-1.75 7.8 7.8 0 0 1 3.14-.53zm11.98 0a13.5 13.5 0 0 1 1.26.06c.46.03.91.09 1.37.19.47.09.9.21 1.28.38l-.34 1.99-1.64-.04-1.39-.02c-.64 0-1.15.08-1.52.26s-.64.47-.81.9c-.16.43-.23 1.03-.23 1.82s.08 1.4.23 1.84c.17.44.44.75.81.92s.88.26 1.52.26l.88-.02 1.15-.04 1.22-.13.3 2.01c-.57.26-1.22.44-1.94.56a13.9 13.9 0 0 1-2.16.17c-1.3 0-2.34-.18-3.12-.54-.78-.37-1.35-.96-1.69-1.77s-.51-1.89-.51-3.25.17-2.44.51-3.25a3.3 3.3 0 0 1 1.71-1.75c.78-.36 1.82-.53 3.12-.53zm10.08-2.65v10.11c0 .38.09.66.26.83.18.16.48.23.9.23h1.37l.34 2.14c-.26.08-.57.16-.94.21-.37.07-.74.12-1.11.15l-.94.04c-.96 0-1.7-.25-2.24-.75-.53-.51-.79-1.23-.79-2.16v-10.82h3.16zm2.95 2.93v2.07h-7.95v-1.97l2.05-.11h5.9z" class="E"/><path d="M762.07 269.81l2.39.02 2.39.04 2.2.15-.15 2.37h-5.66c-.36 0-.63.09-.81.28-.17.17-.26.44-.26.81v7.52c0 .36.09.63.26.81.19.19.46.28.81.28h5.66l.15 2.37-2.2.13-2.39.04-2.39.02c-.94 0-1.7-.27-2.29-.81-.57-.54-.86-1.25-.88-2.14v-8.94a2.9 2.9 0 0 1 .88-2.16c.58-.54 1.35-.81 2.29-.81zm-2.78 5.99h8.83v2.31h-8.83v-2.31zm17.73-6.18l1.77.06a12.1 12.1 0 0 1 1.37.15l1.28.28-.26 2.42-1.3-.06-1.26-.04-1.6-.02c-.73 0-1.3.15-1.71.45-.4.29-.68.78-.86 1.48s-.26 1.68-.26 2.93c0 1.24.09 2.22.26 2.93.17.7.46 1.19.86 1.48.41.29.98.43 1.71.43l2.48-.04 1.99-.15.28 2.39a11.7 11.7 0 0 1-2.1.45c-.71.1-1.6.15-2.65.15-1.52 0-2.74-.24-3.66-.73-.91-.5-1.57-1.3-1.99-2.42-.4-1.11-.6-2.61-.6-4.49s.2-3.38.6-4.49c.41-1.11 1.08-1.91 1.99-2.39.91-.5 2.13-.75 3.66-.75z" class="B"/></g></g><rect x="1" y="1" width="1138" height="638" rx="15" stroke="#0668e1" stroke-width="2"/><defs><filter id="D" x="-4.75" y="56.41" width="332.5" height="98.56" filterUnits="userSpaceOnUse" class="L"><feFlood flood-opacity="0" result="A"/><feColorMatrix in="SourceAlpha" values="0 0 0 0 0 0 0 0 0 0 0 0 0 0 0 0 0 0 127 0" result="B"/><feOffset dy="1.78125"/><feGaussianBlur stdDeviation="2.38"/><feComposite in2="B" operator="out"/><feColorMatrix values="0 0 0 0 0 0 0 0 0 0 0 0 0 0 0 0 0 0 0.3 0"/><feBlend in2="A"/><feBlend in="SourceGraphic"/></filter><filter id="E" x="794.48" y="257.33" width="118.64" height="51.64" filterUnits="userSpaceOnUse" class="L"><feFlood flood-opacity="0" result="A"/><feColorMatrix in="SourceAlpha" values="0 0 0 0 0 0 0 0 0 0 0 0 0 0 0 0 0 0 127 0" result="B"/><feOffset/><feGaussianBlur stdDeviation=".27"/><feComposite in2="B" operator="out"/><feColorMatrix values="0 0 0 0 0.71 0 0 0 0 0.71 0 0 0 0 0.71 0 0 0 0.3 0"/><feBlend in2="A" result="C"/><feColorMatrix in="SourceAlpha" values="0 0 0 0 0 0 0 0 0 0 0 0 0 0 0 0 0 0 127 0" result="B"/><feOffset dy="0.271562"/><feGaussianBlur stdDeviation=".27"/><feComposite in2="B" operator="out"/><feColorMatrix values="0 0 0 0 0 0 0 0 0 0 0 0 0 0 0 0 0 0 0.2 0"/><feBlend in2="C"/><feBlend in="SourceGraphic"/></filter><linearGradient id="F" x1="305.21" y1="465.52" x2="296.87" y2="65.26" href="#N"><stop stop-color="#ddecff"/><stop offset="1" stop-color="#eaf3ff"/></linearGradient><linearGradient id="G" x1="367.64" y1="207.09" x2="792.65" y2="606.15" href="#N"><stop stop-color="#e0eeff"/><stop offset="1" stop-color="#f9f9f9"/></linearGradient><linearGradient id="H" x1="26.45" y1="343.58" x2="329.1" y2="581.48" href="#N"><stop stop-color="#d6e8ff"/><stop offset="1" stop-color="#cfe4ff"/></linearGradient><linearGradient id="I" x1="850.56" y1="224.39" x2="850.56" y2="164.42" href="#N"><stop stop-color="#d1d7e0"/><stop offset="1" stop-color="#ebebff"/></linearGradient><linearGradient id="J" x1="726.75" y1="321.56" x2="726.75" y2="188.54" href="#N"><stop stop-color="#d1d7e0"/><stop offset="1" stop-color="#ebebff"/></linearGradient><clipPath id="K"><rect width="1140" height="640" rx="16" class="C"/></clipPath><clipPath id="L"><path transform="translate(665 141.5)" d="M0 0h356.25v356.25H0z" class="C"/></clipPath><path id="M" d="M839.05 256.86l1.98.93c.19.09.34-.05.27-.24l-.82-1.96c-.03-.07-.02-.15.02-.2l1.07-1.39c.1-.13-.03-.36-.22-.38l-2.03-.29c-.08-.01-.15-.06-.2-.12l-1.32-1.78c-.12-.17-.36-.17-.4 0l-.43 1.78c-.02.07-.07.11-.14.12l-1.89.29c-.18.03-.19.25-.03.38l1.76 1.39c.07.05.11.13.11.2l.15 1.96c.01.18.24.32.38.24l1.52-.93c.06-.04.13-.04.21 0z"/><linearGradient id="N" gradientUnits="userSpaceOnUse"/></defs></svg>