<svg xmlns="http://www.w3.org/2000/svg" width="1140" height="640" fill="none" xmlns:v="https://vecta.io/nano"><style><![CDATA[.B{fill:#fff}.C{fill:#0668e1}.D{fill:#000}.E{fill:#ffa8a7}.F{opacity:.5}.G{opacity:.2}.H{fill:#263238}.I{fill:#f28f8f}]]></style><g clip-path="url(#J)"><rect width="1140" height="640" rx="16" class="B"/><path d="M1140 0H0v690.63h1140V0z" fill="#f1f7ff"/><mask id="A" maskUnits="userSpaceOnUse" x="0" y="0" width="606" height="691"><path d="M605.39 690.63C535 356.5 139.75 417.73 118.59 33.47c-.62-11.25.44-22.43 1.3-33.47H0v377.35 313.28h605.39z" class="B"/></mask><g mask="url(#A)"><path d="M605.39 0H0v690.63h605.39V0z" fill="url(#E)"/></g><mask id="B" maskUnits="userSpaceOnUse" x="118" y="0" width="795" height="691"><path d="M190.73 0H119.9c-.87 11.04-1.31 22.21-1.31 33.47 0 393.68 364.1 321.95 434.72 657.16h358.94C800.18 213.68 346.97 429.99 190.73 0z" class="B"/></mask><g mask="url(#B)"><path d="M912.26 0H118.59v690.63h793.66V0z" fill="url(#F)"/></g><mask id="C" maskUnits="userSpaceOnUse" x="0" y="280" width="416" height="411"><path d="M0 280.42v96.93 313.28h415.16C307.65 514.3 77.91 487.47 0 280.42z" class="B"/></mask><g mask="url(#C)"><path d="M415.16 280.3H0v410.21h415.16V280.3z" fill="url(#G)"/></g><path d="M135.59 222.16v50.65h-12.18v-50.65h12.18zm19.55 21.05v29.61h-11.72v-37.64h10.99l.73 8.04zm-1.39 9.5l-2.75.07a26 26 0 0 1 1.04-7.69c.7-2.27 1.68-4.2 2.96-5.78a12.6 12.6 0 0 1 4.56-3.58c1.79-.84 3.77-1.25 5.95-1.25 1.74 0 3.33.26 4.77.77a9.1 9.1 0 0 1 3.76 2.47 11.1 11.1 0 0 1 2.44 4.52c.58 1.86.87 4.15.87 6.89v23.69h-11.79v-23.73c0-1.51-.21-2.66-.63-3.45-.42-.81-1.02-1.37-1.81-1.67a8.1 8.1 0 0 0-2.89-.45c-1.21 0-2.23.23-3.06.7a5.4 5.4 0 0 0-2.02 1.95c-.49.81-.85 1.77-1.08 2.89-.21 1.11-.31 2.33-.31 3.65zm49.92-17.53v8.14h-22.68v-8.14h22.68zm-17.92-9.36h11.72v34.72c0 1 .12 1.77.35 2.33.23.53.63.92 1.18 1.15.58.21 1.34.31 2.3.31l1.67-.04 1.25-.17v8.38a19.2 19.2 0 0 1-3.13.73 20.7 20.7 0 0 1-3.48.28c-2.5 0-4.65-.39-6.44-1.18a8.4 8.4 0 0 1-4.04-3.72c-.93-1.69-1.39-3.9-1.39-6.61v-36.18zm40.81 47.7c-3.06 0-5.8-.47-8.21-1.43-2.41-.97-4.45-2.31-6.12-4-1.65-1.69-2.91-3.64-3.79-5.85a19.1 19.1 0 0 1-1.29-6.99v-1.32a24.5 24.5 0 0 1 1.15-7.65c.76-2.37 1.9-4.43 3.41-6.19a15.2 15.2 0 0 1 5.67-4.1 19.6 19.6 0 0 1 7.93-1.5 18.9 18.9 0 0 1 7.17 1.29 14.6 14.6 0 0 1 5.36 3.69c1.48 1.6 2.61 3.54 3.38 5.81.79 2.27 1.18 4.82 1.18 7.65v4.77h-30.75v-7.34h19.31v-.9c.02-1.25-.2-2.32-.66-3.2-.44-.88-1.09-1.55-1.95-2.02a6.5 6.5 0 0 0-3.13-.7 5.6 5.6 0 0 0-3.17.84c-.81.56-1.45 1.32-1.91 2.3-.44.95-.75 2.05-.94 3.31a27 27 0 0 0-.28 3.97v1.32c0 1.39.19 2.66.56 3.79a8.6 8.6 0 0 0 1.67 2.92c.74.79 1.62 1.4 2.64 1.84 1.04.44 2.23.66 3.55.66a13 13 0 0 0 4.73-.91c1.55-.6 2.89-1.6 4-2.99l5.32 6.33a13.8 13.8 0 0 1-3.27 3.17c-1.39 1.02-3.06 1.86-5.01 2.5-1.95.63-4.13.94-6.54.94zm32.42-29.01v28.32h-11.72v-37.64h10.96l.77 9.32zm11.13-9.6l-.21 10.89-1.88-.17-1.98-.1c-1.37 0-2.55.16-3.55.49a6 6 0 0 0-2.44 1.39c-.63.6-1.09 1.37-1.39 2.3-.28.93-.41 2.01-.38 3.24l-2.12-1.39c0-2.53.24-4.82.73-6.89a18.7 18.7 0 0 1 2.16-5.39c.93-1.53 2.05-2.7 3.38-3.51 1.32-.84 2.81-1.25 4.45-1.25.58 0 1.15.03 1.7.1a8.5 8.5 0 0 1 1.53.31zm18.23 29.89l7.41-29.61h12.35l-12.31 37.64h-7.31l-.14-8.04zm-4.38-29.61l7.31 29.61-.07 8.04h-7.34l-12.28-37.64h12.38zm40.01 0v37.64h-11.76v-37.64h11.76zm-12.45-9.71c0-1.67.6-3.04 1.81-4.1s2.77-1.6 4.7-1.6 3.49.53 4.7 1.6 1.81 2.44 1.81 4.1-.6 3.04-1.81 4.11-2.77 1.6-4.7 1.6-3.49-.53-4.7-1.6-1.81-2.44-1.81-4.11zm37.92 48.04c-3.06 0-5.8-.47-8.21-1.43-2.41-.97-4.45-2.31-6.12-4-1.65-1.69-2.91-3.64-3.79-5.85a19.1 19.1 0 0 1-1.29-6.99v-1.32c0-2.76.38-5.31 1.15-7.65.76-2.37 1.9-4.43 3.41-6.19a15.2 15.2 0 0 1 5.67-4.1 19.6 19.6 0 0 1 7.93-1.5 18.9 18.9 0 0 1 7.17 1.29c2.11.86 3.9 2.09 5.36 3.69 1.48 1.6 2.61 3.54 3.37 5.81.79 2.27 1.18 4.82 1.18 7.65v4.77h-30.75v-7.34h19.31v-.9c.02-1.25-.2-2.32-.66-3.2-.44-.88-1.09-1.55-1.95-2.02a6.5 6.5 0 0 0-3.13-.7 5.6 5.6 0 0 0-3.17.84c-.81.56-1.45 1.32-1.91 2.3-.44.95-.75 2.05-.94 3.31s-.28 2.57-.28 3.97v1.32c0 1.39.19 2.66.56 3.79a8.6 8.6 0 0 0 1.67 2.92c.74.79 1.62 1.4 2.64 1.84 1.04.44 2.23.66 3.55.66a13 13 0 0 0 4.73-.91c1.55-.6 2.89-1.6 4-2.99l5.32 6.33c-.76 1.09-1.85 2.15-3.27 3.17-1.39 1.02-3.06 1.86-5.01 2.5a21.3 21.3 0 0 1-6.54.94zm32.04-11.9l6.96-26.44h7.34l-2.61 13.26-6.89 24.39h-5.88l1.08-11.2zm-2.75-26.44l4.31 26.23.49 11.41h-7.13l-8.91-37.64h11.24zm23.24 25.68l4.35-25.68h11.24l-8.84 37.64h-7.13l.38-11.97zm-5.36-25.68l7.03 26.37 1.08 11.27h-5.95l-6.75-24.32-2.5-13.32h7.1zM148.7 342.35c0-.79-.12-1.5-.35-2.12-.23-.65-.66-1.25-1.29-1.81a11.5 11.5 0 0 0-2.71-1.67c-1.16-.58-2.69-1.18-4.59-1.81l-6.44-2.5c-2.06-.95-3.91-2.05-5.53-3.31-1.62-1.28-2.91-2.76-3.86-4.45-.95-1.72-1.43-3.71-1.43-5.98a11.8 11.8 0 0 1 1.46-5.88 13.4 13.4 0 0 1 4.07-4.49c1.76-1.25 3.83-2.2 6.19-2.85a28.3 28.3 0 0 1 7.76-1.01c3.71 0 6.98.65 9.81 1.95 2.85 1.27 5.08 3.1 6.68 5.46 1.62 2.34 2.44 5.11 2.44 8.31h-12.14a6.9 6.9 0 0 0-.8-3.37c-.51-.97-1.29-1.74-2.33-2.3a8.3 8.3 0 0 0-3.93-.83 9.5 9.5 0 0 0-3.86.7 5.4 5.4 0 0 0-2.37 1.88c-.53.77-.8 1.61-.8 2.54a3.7 3.7 0 0 0 .63 2.09c.44.6 1.06 1.17 1.84 1.71.81.53 1.79 1.04 2.92 1.53 1.16.49 2.46.96 3.9 1.43a47.5 47.5 0 0 1 7.17 2.89 22 22 0 0 1 5.32 3.58 13.2 13.2 0 0 1 3.31 4.52c.77 1.69 1.15 3.61 1.15 5.74 0 2.27-.44 4.29-1.32 6.05a12.6 12.6 0 0 1-3.79 4.49c-1.65 1.21-3.62 2.12-5.91 2.75s-4.86.94-7.69.94c-2.6 0-5.16-.32-7.69-.97-2.5-.67-4.78-1.69-6.82-3.06-2.04-1.39-3.68-3.17-4.91-5.32-1.21-2.18-1.81-4.77-1.81-7.76h12.25c0 1.48.2 2.74.59 3.76s.97 1.84 1.74 2.47c.76.6 1.7 1.04 2.82 1.32 1.11.26 2.39.38 3.83.38 1.55 0 2.81-.22 3.76-.66.95-.46 1.65-1.07 2.09-1.81.44-.77.66-1.6.66-2.5zm33.85 5.11a6 6 0 0 0 2.78-.59c.79-.42 1.38-1 1.77-1.74a5.4 5.4 0 0 0 .59-2.75h11.03c.02 2.83-.67 5.31-2.09 7.44-1.39 2.11-3.29 3.76-5.71 4.94-2.39 1.16-5.09 1.74-8.11 1.74-2.94 0-5.52-.47-7.72-1.43-2.2-.97-4.05-2.32-5.53-4.04-1.46-1.74-2.56-3.77-3.31-6.09-.72-2.32-1.08-4.84-1.08-7.55v-.8c0-2.71.36-5.23 1.08-7.55.74-2.34 1.84-4.37 3.31-6.09a15 15 0 0 1 5.5-4.04c2.2-.97 4.77-1.46 7.69-1.46 3.13 0 5.89.59 8.28 1.77a13.4 13.4 0 0 1 5.67 5.15c1.37 2.25 2.04 4.98 2.02 8.18H187.7a7.6 7.6 0 0 0-.52-3.06 4.7 4.7 0 0 0-1.74-2.16 4.9 4.9 0 0 0-2.96-.83 4.9 4.9 0 0 0-2.92.8c-.74.53-1.31 1.28-1.7 2.23-.37.93-.63 2-.77 3.2a40.4 40.4 0 0 0-.17 3.86v.8c0 1.39.06 2.7.17 3.93.14 1.21.41 2.27.8 3.2a5.1 5.1 0 0 0 1.71 2.16c.74.51 1.73.77 2.96.77zm32.67-45.09v53.44H203.5v-53.44h11.72zm-1.39 33.33l-2.75.07a26 26 0 0 1 .97-7.31 18.5 18.5 0 0 1 2.78-5.81 12.9 12.9 0 0 1 4.35-3.83c1.69-.91 3.57-1.36 5.64-1.36 1.86 0 3.55.27 5.08.8 1.55.53 2.89 1.39 4 2.57a11.6 11.6 0 0 1 2.61 4.63 22.4 22.4 0 0 1 .94 6.96v23.38h-11.79v-23.45c0-1.53-.22-2.71-.66-3.55-.42-.86-1.02-1.45-1.81-1.77-.79-.35-1.75-.52-2.89-.52a7 7 0 0 0-3.34.7c-.86.46-1.52 1.11-1.98 1.95-.44.81-.74 1.77-.9 2.89a25.3 25.3 0 0 0-.24 3.65zm48.36 20.8c-3.06 0-5.8-.47-8.21-1.43-2.41-.97-4.45-2.31-6.12-4-1.65-1.69-2.91-3.64-3.79-5.85a19.1 19.1 0 0 1-1.29-6.99v-1.32a24.5 24.5 0 0 1 1.15-7.65c.76-2.37 1.9-4.43 3.41-6.19a15.2 15.2 0 0 1 5.67-4.1 19.6 19.6 0 0 1 7.93-1.5 18.9 18.9 0 0 1 7.17 1.29 14.6 14.6 0 0 1 5.36 3.69c1.49 1.6 2.61 3.54 3.38 5.81.79 2.27 1.18 4.82 1.18 7.65v4.77h-30.75v-7.34h19.31v-.9c.02-1.25-.2-2.32-.66-3.2-.44-.88-1.09-1.55-1.95-2.02a6.5 6.5 0 0 0-3.13-.7 5.6 5.6 0 0 0-3.17.83c-.81.56-1.45 1.32-1.91 2.3a12 12 0 0 0-.94 3.31 27 27 0 0 0-.28 3.97v1.32c0 1.39.19 2.65.56 3.79a8.6 8.6 0 0 0 1.67 2.92c.74.79 1.62 1.4 2.64 1.84 1.04.44 2.23.66 3.55.66a13 13 0 0 0 4.73-.91c1.55-.6 2.89-1.6 4-2.99l5.32 6.33a13.8 13.8 0 0 1-3.27 3.17c-1.39 1.02-3.06 1.86-5.01 2.5-1.95.63-4.13.94-6.54.94zm42.23-9.32v-44.81h11.79v53.44h-10.58l-1.22-8.63zm-23.1-9.74v-.73c0-2.85.31-5.45.94-7.79.63-2.37 1.55-4.4 2.78-6.09 1.23-1.72 2.76-3.04 4.59-3.97s3.94-1.39 6.33-1.39c2.13 0 4 .5 5.6 1.5 1.6.97 2.97 2.34 4.11 4.1s2.06 3.83 2.78 6.19c.72 2.34 1.26 4.87 1.64 7.58v.87c-.37 2.55-.92 4.96-1.64 7.24-.72 2.25-1.65 4.24-2.78 5.98a13.2 13.2 0 0 1-4.14 4.11c-1.6.97-3.48 1.46-5.64 1.46-2.39 0-4.5-.47-6.33-1.43a13 13 0 0 1-4.56-4c-1.21-1.72-2.12-3.73-2.75-6.05s-.94-4.85-.94-7.59zm11.72-.73v.73a26 26 0 0 0 .28 3.93 11.5 11.5 0 0 0 .94 3.2c.46.91 1.07 1.61 1.81 2.12.76.51 1.7.77 2.82.77a6.1 6.1 0 0 0 3.72-1.08c1-.72 1.73-1.74 2.19-3.06a12.1 12.1 0 0 0 .63-4.66v-2.75c.05-1.53-.06-2.88-.31-4.04a8 8 0 0 0-1.22-2.96c-.53-.79-1.22-1.38-2.05-1.77-.81-.42-1.77-.63-2.89-.63a4.9 4.9 0 0 0-2.78.77c-.74.51-1.34 1.23-1.81 2.16-.46.9-.8 1.98-1.01 3.24-.21 1.23-.31 2.57-.31 4.04zm51.8 9.95v-28.49h11.76v37.64h-10.99l-.77-9.15zm1.11-7.65l3.06-.07c0 2.53-.3 4.87-.9 7.03-.6 2.13-1.5 3.99-2.68 5.57-1.16 1.58-2.6 2.81-4.31 3.69-1.69.86-3.65 1.29-5.88 1.29-1.86 0-3.56-.25-5.11-.76-1.53-.53-2.85-1.36-3.97-2.47a11.7 11.7 0 0 1-2.61-4.35 20.1 20.1 0 0 1-.91-6.4v-24.35h11.73v24.42a6.6 6.6 0 0 0 .31 2.16 4.2 4.2 0 0 0 .9 1.53c.39.39.88.7 1.46.91a7 7 0 0 0 2.05.28c1.76 0 3.14-.37 4.14-1.11a5.8 5.8 0 0 0 2.09-3.03c.42-1.28.63-2.71.63-4.31zm29.5-36.63v53.44h-11.76v-53.44h11.76zm19.62 15.8v37.64h-11.76v-37.64h11.76zm-12.45-9.71c0-1.67.6-3.04 1.81-4.11s2.77-1.6 4.7-1.6 3.49.53 4.7 1.6 1.81 2.44 1.81 4.11-.6 3.04-1.81 4.1-2.77 1.6-4.7 1.6-3.49-.53-4.7-1.6-1.81-2.44-1.81-4.1zm31.21 17.74v29.61h-11.72v-37.64h10.99l.73 8.04zm-1.39 9.5l-2.75.07a26 26 0 0 1 1.04-7.69c.7-2.27 1.68-4.2 2.96-5.77a12.6 12.6 0 0 1 4.56-3.58c1.79-.83 3.77-1.25 5.95-1.25 1.74 0 3.33.25 4.77.76a9.1 9.1 0 0 1 3.76 2.47c1.07 1.14 1.88 2.64 2.44 4.52.58 1.86.87 4.15.87 6.89v23.69h-11.79v-23.73c0-1.51-.21-2.66-.63-3.44-.42-.81-1.02-1.37-1.81-1.67a8.1 8.1 0 0 0-2.89-.45c-1.21 0-2.23.23-3.06.7a5.4 5.4 0 0 0-2.02 1.95c-.49.81-.85 1.77-1.08 2.89-.21 1.11-.31 2.33-.31 3.65zm53.75-17.53h10.65v36.18c0 3.48-.8 6.43-2.4 8.84-1.6 2.44-3.84 4.28-6.71 5.53-2.85 1.27-6.19 1.91-10.02 1.91a21.3 21.3 0 0 1-5.18-.66c-1.76-.42-3.41-1.04-4.94-1.88s-2.82-1.87-3.86-3.1l4.91-6.89c.95 1.07 2.15 1.97 3.58 2.71 1.44.77 3.13 1.15 5.08 1.15 1.69 0 3.11-.3 4.24-.9 1.16-.6 2.04-1.48 2.64-2.64.6-1.14.9-2.52.9-4.14v-27.21l1.11-8.91zm-25.01 19.27v-.73a27.3 27.3 0 0 1 1.04-7.79c.72-2.37 1.74-4.4 3.06-6.09 1.35-1.72 2.97-3.04 4.87-3.97a14.5 14.5 0 0 1 6.44-1.39c2.57 0 4.69.5 6.33 1.5a10.8 10.8 0 0 1 4 4.1c1.02 1.76 1.81 3.83 2.37 6.19.58 2.34 1.07 4.87 1.46 7.58v.87c-.39 2.55-.94 4.96-1.64 7.24a24.3 24.3 0 0 1-2.64 5.98 12.4 12.4 0 0 1-4.11 4.11c-1.62.97-3.57 1.46-5.84 1.46a14.1 14.1 0 0 1-6.4-1.43 14.3 14.3 0 0 1-4.84-4c-1.32-1.72-2.34-3.73-3.06-6.05a26.3 26.3 0 0 1-1.04-7.59zm11.72-.73v.73a19 19 0 0 0 .38 3.93c.28 1.21.7 2.27 1.25 3.2.56.91 1.24 1.61 2.05 2.12a5.5 5.5 0 0 0 2.92.77 7.1 7.1 0 0 0 4.11-1.08 6 6 0 0 0 2.26-3.06c.46-1.32.66-2.88.59-4.66v-2.75c.05-1.53-.06-2.88-.31-4.04a8 8 0 0 0-1.22-2.96 4.9 4.9 0 0 0-2.16-1.77c-.88-.42-1.95-.63-3.2-.63a5.4 5.4 0 0 0-2.89.77 6.2 6.2 0 0 0-2.09 2.16c-.56.9-.99 1.98-1.29 3.24-.28 1.23-.42 2.57-.42 4.04zm-324.24 72.44h9.95l11.31 35.24 11.31-35.24h9.95l-17.22 50.65h-8.07l-17.22-50.65zm-6.05 0h10.3l1.91 38.83v11.83h-12.21v-50.65zm44.32 0h10.33v50.65h-12.25v-11.83l1.91-38.83zm37.16 41.19v-15.52a7.5 7.5 0 0 0-.45-2.75c-.3-.77-.78-1.36-1.43-1.77-.65-.44-1.52-.66-2.61-.66-.88 0-1.63.15-2.26.45a3.1 3.1 0 0 0-1.43 1.36c-.32.6-.49 1.37-.49 2.3H183.7a10.4 10.4 0 0 1 1.15-4.84c.79-1.51 1.9-2.82 3.34-3.93 1.46-1.11 3.2-1.97 5.22-2.57a23.2 23.2 0 0 1 6.82-.94c2.99 0 5.66.5 8 1.5a12.5 12.5 0 0 1 5.6 4.49c1.37 1.97 2.05 4.45 2.05 7.44v15.41c0 2.46.14 4.32.42 5.6a12.9 12.9 0 0 0 1.18 3.31v.59h-11.76c-.56-1.16-.97-2.57-1.25-4.24a35 35 0 0 1-.38-5.22zm1.43-13.53l.07 6.26h-5.18a7.6 7.6 0 0 0-2.78.45 4.7 4.7 0 0 0-1.81 1.25c-.44.51-.77 1.09-.97 1.74a7.4 7.4 0 0 0-.28 2.05c0 .7.16 1.32.49 1.88a3.6 3.6 0 0 0 1.39 1.25c.58.3 1.23.45 1.95.45a6.9 6.9 0 0 0 3.31-.73c.93-.51 1.64-1.12 2.12-1.84s.73-1.39.73-2.02l2.57 4.8a32 32 0 0 1-1.6 2.82c-.58.95-1.31 1.83-2.19 2.64-.86.79-1.91 1.44-3.17 1.95a12.6 12.6 0 0 1-4.56.73 14.4 14.4 0 0 1-6.4-1.43c-1.92-.95-3.47-2.27-4.63-3.97a10.3 10.3 0 0 1-1.74-5.91c0-1.95.35-3.69 1.04-5.22a10.2 10.2 0 0 1 3.23-3.9c1.44-1.07 3.27-1.88 5.5-2.44s4.85-.84 7.86-.84h5.04zm38.51 14.37v-44.81h11.79v53.44h-10.58l-1.22-8.63zm-23.1-9.74v-.73c0-2.85.31-5.45.94-7.79.63-2.37 1.55-4.4 2.78-6.09 1.23-1.72 2.76-3.04 4.59-3.97s3.94-1.39 6.33-1.39c2.13 0 4 .5 5.6 1.5 1.6.97 2.97 2.34 4.11 4.1s2.06 3.83 2.78 6.19c.72 2.34 1.26 4.87 1.63 7.58v.87c-.37 2.55-.92 4.96-1.63 7.24-.72 2.25-1.65 4.24-2.78 5.98s-2.52 3.11-4.14 4.11c-1.6.97-3.48 1.46-5.64 1.46-2.39 0-4.5-.47-6.33-1.43a13 13 0 0 1-4.56-4c-1.21-1.72-2.12-3.73-2.75-6.05a29 29 0 0 1-.94-7.59zm11.72-.73v.73c0 1.42.09 2.73.28 3.93a11.5 11.5 0 0 0 .94 3.2c.46.91 1.07 1.61 1.81 2.12.77.51 1.7.77 2.82.77a6.1 6.1 0 0 0 3.72-1.08c1-.72 1.73-1.74 2.19-3.06a12.1 12.1 0 0 0 .63-4.66v-2.75a16.6 16.6 0 0 0-.31-4.04 8 8 0 0 0-1.22-2.96c-.53-.79-1.22-1.38-2.05-1.77-.81-.42-1.77-.63-2.89-.63a4.9 4.9 0 0 0-2.78.77c-.74.51-1.35 1.23-1.81 2.16-.46.9-.8 1.98-1.01 3.24-.21 1.23-.31 2.57-.31 4.04zm48.04 19.79c-3.06 0-5.8-.47-8.21-1.43-2.41-.97-4.45-2.31-6.12-4-1.65-1.69-2.91-3.64-3.79-5.85a19.1 19.1 0 0 1-1.29-6.99v-1.32a24.5 24.5 0 0 1 1.15-7.65c.76-2.37 1.9-4.43 3.41-6.19a15.2 15.2 0 0 1 5.67-4.1 19.6 19.6 0 0 1 7.93-1.5 18.9 18.9 0 0 1 7.17 1.29 14.6 14.6 0 0 1 5.36 3.69c1.48 1.6 2.61 3.54 3.37 5.81.79 2.27 1.18 4.82 1.18 7.65v4.77h-30.75v-7.34h19.31v-.9c.02-1.25-.2-2.32-.66-3.2-.44-.88-1.09-1.55-1.95-2.02a6.5 6.5 0 0 0-3.13-.7 5.6 5.6 0 0 0-3.17.83c-.81.56-1.45 1.32-1.91 2.3a12.1 12.1 0 0 0-.94 3.31c-.19 1.25-.28 2.57-.28 3.97v1.32c0 1.39.19 2.65.56 3.79a8.6 8.6 0 0 0 1.67 2.92 7.9 7.9 0 0 0 2.64 1.84c1.04.44 2.23.66 3.55.66a13 13 0 0 0 4.73-.91c1.55-.6 2.89-1.6 4-2.99l5.32 6.33c-.76 1.09-1.85 2.15-3.27 3.17-1.39 1.02-3.06 1.86-5.01 2.5a21.3 21.3 0 0 1-6.54.94zm79.56-12.44l-2.04 11.74h-32.83l2.04-11.74h32.83zm-18.52-51.58l-11 63.32h-14.87l10.96-63.32h14.92zm18.87 25.13l-1.96 11.35h-28.61l2-11.35h28.57zm8.7-25.13l-2.04 11.78H334.3l2.09-11.78h32.92zm29.57 14.05l-23.31 49.27h-16.48l33.57-63.32h10.52l-4.31 14.05zm4 49.27l-6.44-50.79.35-12.52h9.92l11.7 63.32h-15.52zm3.39-23.61l-2.09 11.78h-31.62l2.09-11.78h31.62zm51.45 6.48c.26-1.36.16-2.52-.3-3.48a6.2 6.2 0 0 0-2-2.44c-.87-.67-1.87-1.23-3-1.7-1.1-.49-2.18-.94-3.22-1.35-2.26-.9-4.49-1.91-6.7-3.04a31.3 31.3 0 0 1-6-4.09c-1.8-1.57-3.2-3.39-4.22-5.48-.99-2.09-1.41-4.54-1.26-7.35.2-3.22 1.12-5.99 2.74-8.31a19.1 19.1 0 0 1 6.22-5.65 29.2 29.2 0 0 1 8.22-3.22c2.96-.7 5.84-1.01 8.65-.96 4 .06 7.57.87 10.7 2.44a17.8 17.8 0 0 1 7.44 6.74c1.8 2.9 2.67 6.41 2.61 10.52h-14.74c.06-1.62-.16-3.03-.65-4.22-.46-1.22-1.23-2.16-2.31-2.83a7.8 7.8 0 0 0-4.17-1.09 12.2 12.2 0 0 0-4.26.69 9.7 9.7 0 0 0-3.7 2.18 6.8 6.8 0 0 0-2 3.83c-.2 1.19-.01 2.23.56 3.13a7.8 7.8 0 0 0 2.39 2.26 21.5 21.5 0 0 0 3.18 1.57l2.96 1.13a50.5 50.5 0 0 1 6.83 3.18c2.2 1.19 4.15 2.59 5.83 4.22 1.71 1.62 3.01 3.52 3.91 5.7.93 2.15 1.3 4.64 1.13 7.48-.23 3.28-1.1 6.07-2.61 8.39a18.1 18.1 0 0 1-5.83 5.65 26.6 26.6 0 0 1-7.83 3.18c-2.84.67-5.73.99-8.65.96a31.2 31.2 0 0 1-9.18-1.48 22.4 22.4 0 0 1-7.44-4.13 18.6 18.6 0 0 1-4.91-6.7c-1.16-2.67-1.71-5.73-1.65-9.18l14.92.04c-.09 1.62.01 3.06.31 4.31a7.6 7.6 0 0 0 1.56 3.09c.75.81 1.73 1.44 2.91 1.87a13.4 13.4 0 0 0 4.31.61c1.42 0 2.78-.22 4.09-.65 1.33-.46 2.46-1.17 3.39-2.13s1.52-2.19 1.78-3.7zm41.36-46.18l6.52 27.4 16.05-27.4h16.7l-27.27 41.27-3.78 22.05h-15.18l4.09-23.48-12.7-39.79 15.57-.04zm58.75 0l-9.31 43.27h-11.65l5.7-43.27h15.26zm-25.48 57.01c-.06-2.26.7-4.1 2.26-5.52a8.2 8.2 0 0 1 5.65-2.13c2.09-.03 3.9.62 5.44 1.96 1.57 1.31 2.38 3.03 2.44 5.18.03 2.23-.74 4.07-2.31 5.52-1.57 1.42-3.44 2.13-5.61 2.13a8.1 8.1 0 0 1-5.48-1.91c-1.54-1.3-2.33-3.04-2.39-5.22z" fill="#5b5b5b"/><g filter="url(#D)"><path d="M323 71.25a11.9 11.9 0 0 0-11.87-11.87H0v89.06h311.13A11.9 11.9 0 0 0 323 136.56V71.25z" fill="#3886e7"/><path d="M47.66 107.53h-6.3v-4.71h6.3c.86 0 1.55-.14 2.09-.44s.92-.69 1.17-1.2c.26-.52.38-1.11.38-1.76 0-.7-.13-1.34-.38-1.93-.24-.59-.63-1.07-1.17-1.43-.53-.37-1.23-.56-2.09-.56h-4v20.61h-6.11V90.8h10.11c2.03 0 3.77.37 5.24 1.11 1.47.74 2.6 1.76 3.39 3.06a8.3 8.3 0 0 1 1.18 4.42 7.7 7.7 0 0 1-1.18 4.28c-.79 1.22-1.92 2.17-3.39 2.85-1.46.67-3.21 1.01-5.24 1.01zm22.39 3.86v-7.76c0-.53-.08-.99-.23-1.37s-.39-.68-.71-.89c-.32-.22-.76-.33-1.3-.33-.44 0-.82.08-1.13.23s-.55.38-.71.68a2.4 2.4 0 0 0-.24 1.15h-5.86a5.2 5.2 0 0 1 .57-2.42 6 6 0 0 1 1.67-1.97c.73-.56 1.6-.99 2.61-1.29a11.6 11.6 0 0 1 3.41-.47c1.5 0 2.83.25 4 .75 1.18.5 2.12 1.25 2.8 2.24.68.99 1.03 2.23 1.03 3.72v7.71c0 1.23.07 2.16.21 2.8.14.63.34 1.18.59 1.65v.3h-5.88c-.28-.58-.49-1.29-.63-2.12a17.5 17.5 0 0 1-.19-2.61zm.71-6.77l.03 3.13h-2.59a3.8 3.8 0 0 0-1.39.23c-.37.15-.67.36-.9.63-.22.25-.38.55-.49.87-.09.33-.14.67-.14 1.03 0 .35.08.66.24.94.17.27.41.48.7.63s.61.23.97.23c.65 0 1.2-.12 1.65-.36.46-.26.82-.56 1.06-.92s.37-.7.37-1.01l1.29 2.4c-.23.46-.5.93-.8 1.41a6.1 6.1 0 0 1-1.1 1.32c-.43.4-.96.72-1.58.98a6.3 6.3 0 0 1-2.28.36 7.2 7.2 0 0 1-3.2-.71c-.96-.48-1.73-1.14-2.31-1.98-.58-.86-.87-1.84-.87-2.96 0-.97.17-1.84.52-2.61a5.1 5.1 0 0 1 1.62-1.95c.72-.53 1.64-.94 2.75-1.22s2.42-.42 3.93-.42h2.52zm14.35-2.66v14.16h-5.86V97.3h5.48l.38 4.66zm5.57-4.8l-.1 5.44-.94-.09-.99-.05c-.68 0-1.28.08-1.77.24a3 3 0 0 0-1.22.7c-.31.3-.55.68-.7 1.15a5.3 5.3 0 0 0-.19 1.62l-1.06-.7a15 15 0 0 1 .37-3.44c.26-1.04.61-1.94 1.08-2.7.46-.77 1.03-1.35 1.69-1.76a4.1 4.1 0 0 1 2.23-.63c.29 0 .57.02.85.05.29.03.55.09.77.16zm12.8.14v4.07H92.14V97.3h11.34zm-8.96-4.68h5.86v17.36c0 .5.06.89.17 1.17.12.27.31.46.59.57.29.1.67.16 1.15.16l.84-.02.63-.09v4.19c-.5.16-1.02.28-1.56.37-.55.09-1.12.14-1.74.14-1.25 0-2.32-.2-3.22-.59a4.2 4.2 0 0 1-2.02-1.86c-.46-.85-.7-1.95-.7-3.3V92.62zm31.61 10.32v4.54h-10.45v-4.54h10.45zm31.05 8.66v4.52h-17.67v-3.83l8.14-8.56a23.6 23.6 0 0 0 1.74-2.21c.44-.66.76-1.26.96-1.79a4 4 0 0 0 .31-1.44c0-.73-.11-1.34-.33-1.83-.21-.5-.52-.88-.94-1.13-.41-.26-.91-.38-1.51-.38s-1.13.17-1.58.52-.81.82-1.06 1.43a5.4 5.4 0 0 0-.36 2.04h-5.88c0-1.55.38-2.97 1.13-4.26.77-1.29 1.83-2.31 3.18-3.08 1.36-.78 2.93-1.17 4.71-1.17 1.87 0 3.43.29 4.7.87s2.21 1.42 2.85 2.52c.65 1.09.97 2.41.97 3.95 0 .88-.14 1.73-.42 2.54a10.9 10.9 0 0 1-1.2 2.42c-.52.79-1.16 1.6-1.91 2.44l-2.54 2.66-3.27 3.77h9.98z" class="B"/></g><g clip-path="url(#K)"><path d="M846.98 552.38c111.98 0 202.76-47.85 202.76-106.87s-90.78-106.87-202.76-106.87-202.77 47.85-202.77 106.88 90.78 106.88 202.77 106.88z" fill="url(#H)" fill-opacity=".6"/><path d="M991.56 497.75a1079.5 1079.5 0 0 0-296.87 0c8.53-14.37 12.8-20.78 21.33-32.57-8.54-11.85-12.8-18.3-21.33-32.74 99.61 13.68 197.27 13.68 296.87 0a282.8 282.8 0 0 1-27.78 32.74c11.12 11.45 16.68 17.8 27.78 32.57z" class="C"/><path d="M795.36 457.31v13.51h-2.78l-5.43-9.05v9.05h-2.78v-13.51h2.78l5.44 9.06v-9.06h2.77zm8.19 11.11v-7.64h2.67v10.04h-2.51l-.16-2.4zm.3-2.06l.79-.02c0 .67-.08 1.29-.23 1.86-.15.57-.39 1.06-.69 1.48-.31.41-.7.74-1.17.97-.47.23-1.02.34-1.66.34-.49 0-.94-.07-1.36-.2-.41-.14-.76-.36-1.06-.66-.29-.3-.52-.69-.69-1.16-.16-.48-.24-1.05-.24-1.72v-6.49h2.67v6.5a2.4 2.4 0 0 0 .1.75c.07.2.18.37.31.5s.28.22.46.28c.18.05.38.08.59.08.55 0 .98-.11 1.3-.33.32-.22.55-.53.68-.91.14-.39.2-.82.2-1.3zm10.34 2.27v-12.06h2.69v14.25h-2.42l-.27-2.19zm-6.35-2.71v-.19a7.8 7.8 0 0 1 .26-2.09c.17-.63.43-1.17.76-1.62s.75-.8 1.23-1.05 1.05-.37 1.67-.37a3.1 3.1 0 0 1 1.54.37c.45.25.82.6 1.13 1.06.32.45.57.99.76 1.61a11.1 11.1 0 0 1 .42 2.01v.43c-.09.7-.23 1.35-.42 1.95s-.45 1.13-.76 1.58c-.31.44-.69.79-1.13 1.04s-.97.37-1.56.37c-.62 0-1.18-.13-1.67-.38-.48-.25-.89-.61-1.22-1.07-.33-.46-.58-1-.75-1.61a7.5 7.5 0 0 1-.26-2.02zm2.67-.19v.19c0 .41.03.8.09 1.16.07.36.18.68.33.95.15.27.35.49.59.64.25.15.55.22.9.22.46 0 .83-.1 1.13-.31.3-.21.52-.5.68-.86.16-.37.25-.79.28-1.26v-1.22c-.02-.39-.08-.74-.17-1.05-.09-.32-.22-.58-.39-.81-.17-.22-.38-.4-.63-.52-.25-.12-.54-.19-.88-.19a1.6 1.6 0 0 0-.89.24c-.25.15-.45.37-.6.64a3.4 3.4 0 0 0-.33.96 6.5 6.5 0 0 0-.1 1.19zm14.81-4.94h2.42v9.7c0 .92-.2 1.69-.61 2.33-.4.64-.96 1.13-1.69 1.46-.72.33-1.56.5-2.52.5a5.8 5.8 0 0 1-1.34-.17c-.46-.11-.91-.29-1.34-.52-.42-.23-.77-.53-1.06-.89l1.18-1.58c.31.36.67.64 1.08.83a3 3 0 0 0 1.35.31c.48 0 .89-.09 1.23-.27.33-.17.59-.43.77-.77.18-.33.27-.74.27-1.21v-7.4l.26-2.32zm-6.75 5.14v-.19c0-.77.09-1.46.28-2.09.19-.63.46-1.17.81-1.62.35-.45.78-.8 1.28-1.05a3.8 3.8 0 0 1 1.7-.37c.67 0 1.23.12 1.68.37s.82.6 1.11 1.06a5.5 5.5 0 0 1 .68 1.61c.17.61.3 1.28.39 2.01v.43c-.09.7-.23 1.35-.42 1.95s-.43 1.13-.73 1.58c-.3.44-.68.79-1.13 1.04-.44.25-.98.37-1.59.37s-1.18-.13-1.68-.38c-.5-.25-.92-.61-1.27-1.07a5.1 5.1 0 0 1-.82-1.61c-.19-.62-.28-1.29-.28-2.02zm2.67-.19v.19c0 .41.04.8.12 1.16s.2.68.37.95c.17.27.39.49.64.64.26.15.57.22.92.22.49 0 .89-.1 1.2-.31.31-.21.54-.5.7-.86s.24-.79.27-1.26v-1.22a4.1 4.1 0 0 0-.16-1.05 2.5 2.5 0 0 0-.39-.81c-.17-.22-.38-.4-.65-.52s-.58-.19-.95-.19c-.35 0-.66.08-.92.24-.25.15-.47.37-.64.64-.17.27-.29.59-.38.96a5.1 5.1 0 0 0-.13 1.19zm13.2 5.28a5.6 5.6 0 0 1-2.1-.37 4.6 4.6 0 0 1-1.58-1.05c-.43-.45-.75-.96-.98-1.55a5.2 5.2 0 0 1-.34-1.89v-.37a6.4 6.4 0 0 1 .32-2.09 4.9 4.9 0 0 1 .93-1.64 4.1 4.1 0 0 1 1.49-1.07 4.9 4.9 0 0 1 1.97-.38c.71 0 1.34.12 1.89.35a3.7 3.7 0 0 1 1.38 1c.38.43.66.95.85 1.56.19.6.29 1.27.29 2v1.11h-7.98v-1.78h5.35v-.2c0-.37-.07-.7-.2-.99-.13-.3-.33-.53-.59-.71s-.61-.26-1.02-.26c-.35 0-.66.08-.91.23a1.8 1.8 0 0 0-.62.65c-.15.28-.27.61-.35.98-.07.37-.11.78-.11 1.23v.37c0 .4.06.77.17 1.11a2.7 2.7 0 0 0 .49.88c.22.25.48.44.78.58.31.14.66.2 1.05.2.48 0 .93-.09 1.35-.28a2.9 2.9 0 0 0 1.09-.86l1.3 1.41c-.21.3-.5.59-.86.87a4.6 4.6 0 0 1-1.3.69c-.51.17-1.09.26-1.74.26zm16.08-13.69v13.51h-2.77v-13.51h2.77zm4.16 0v2.18h-11.02v-2.18h11.02zm4.03-.74v14.25h-2.67v-14.25h2.67zm-.38 8.88h-.73a6.8 6.8 0 0 1 .28-1.93c.18-.59.44-1.11.77-1.54.33-.44.73-.78 1.2-1.02.47-.24.99-.36 1.56-.36a4 4 0 0 1 1.34.21 2.5 2.5 0 0 1 1.05.67 3 3 0 0 1 .69 1.2c.16.5.24 1.1.24 1.8v6.35h-2.69v-6.36c0-.44-.07-.79-.2-1.05-.12-.26-.31-.44-.55-.55-.23-.11-.53-.17-.87-.17a2.1 2.1 0 0 0-.98.21c-.27.14-.48.34-.64.59-.16.25-.28.54-.35.87a4.9 4.9 0 0 0-.11 1.08zm13.04 5.56a5.6 5.6 0 0 1-2.1-.37 4.6 4.6 0 0 1-1.58-1.05 4.7 4.7 0 0 1-.98-1.55 5.2 5.2 0 0 1-.34-1.89v-.37a6.4 6.4 0 0 1 .32-2.09 4.9 4.9 0 0 1 .93-1.64c.41-.46.9-.82 1.49-1.07a4.9 4.9 0 0 1 1.97-.38 4.8 4.8 0 0 1 1.89.35 3.7 3.7 0 0 1 1.38 1c.38.43.66.95.85 1.56.19.6.29 1.27.29 2v1.11h-7.98v-1.78h5.35v-.2c0-.37-.07-.7-.2-.99-.13-.3-.33-.53-.59-.71s-.61-.26-1.02-.26c-.35 0-.66.08-.91.23a1.8 1.8 0 0 0-.62.65c-.15.28-.27.61-.35.98-.07.37-.11.78-.11 1.23v.37c0 .4.06.77.17 1.11.12.34.28.63.49.88s.48.44.78.58c.31.14.66.2 1.05.2.48 0 .93-.09 1.34-.28a2.9 2.9 0 0 0 1.09-.86l1.3 1.41a4 4 0 0 1-.86.87 4.6 4.6 0 0 1-1.3.69c-.51.17-1.09.26-1.74.26zm5.21-5.1v-.19c0-.74.11-1.41.32-2.03a4.7 4.7 0 0 1 .92-1.62 4.1 4.1 0 0 1 1.48-1.07c.59-.26 1.26-.39 2.02-.39a5 5 0 0 1 2.03.39 4.1 4.1 0 0 1 1.49 1.07c.41.46.72 1 .93 1.62a6.3 6.3 0 0 1 .31 2.03v.19c0 .73-.11 1.41-.31 2.03-.21.62-.52 1.16-.93 1.62-.4.46-.9.81-1.48 1.07s-1.26.38-2.02.38-1.44-.13-2.03-.38a4.2 4.2 0 0 1-1.49-1.07 4.8 4.8 0 0 1-.92-1.62 6.3 6.3 0 0 1-.32-2.03zm2.67-.19v.19c0 .42.04.81.11 1.18a3.2 3.2 0 0 0 .35.96c.17.27.38.49.65.64s.59.23.97.23c.37 0 .69-.08.96-.23s.48-.37.64-.64a3.2 3.2 0 0 0 .35-.96 5.5 5.5 0 0 0 .12-1.18v-.19a5.3 5.3 0 0 0-.12-1.15c-.08-.37-.2-.69-.36-.97a1.8 1.8 0 0 0-.64-.67c-.27-.16-.59-.24-.96-.24s-.7.08-.97.24a1.9 1.9 0 0 0-.64.67 3.2 3.2 0 0 0-.35.97 5.7 5.7 0 0 0-.11 1.15zm11.15-2.74v7.85h-2.67v-10.04h2.51l.16 2.19zm3.02-2.25l-.05 2.48-.47-.05-.49-.03c-.38 0-.71.05-.98.15-.27.09-.5.23-.69.42-.18.19-.32.41-.41.68-.09.27-.14.57-.15.91l-.54-.17a7.7 7.7 0 0 1 .2-1.79c.13-.55.32-1.03.57-1.44s.56-.72.93-.95.78-.33 1.25-.33c.15 0 .3.01.45.04a1.7 1.7 0 0 1 .38.08zm4.41 8.97l2.66-8.91h2.87l-4.04 11.55a6.3 6.3 0 0 1-.35.82 3.3 3.3 0 0 1-.59.83c-.24.27-.55.48-.92.65-.37.17-.81.25-1.35.25-.25 0-.46-.02-.62-.05l-.58-.13v-1.96h.21l.21.01a2.6 2.6 0 0 0 .86-.12c.22-.08.4-.21.54-.37.14-.16.25-.37.33-.63l.75-1.94zm-1.11-8.91l2.18 7.27.38 2.83-1.82.19-3.61-10.3h2.87z" class="B"/><path d="M741.56 333.61v1.93c0 1.31.92 2.9 2.05 3.56l20.94 12.1c1.13.65 2.97.65 4.11 0l49.84-28.79c1.13-.66 2.05-2.25 2.05-3.56v-1.93c0-1.31-.92-2.9-2.05-3.56l-20.94-12.1c-1.13-.65-2.97-.65-4.11 0l-49.84 28.79c-1.13.65-2.05 2.25-2.05 3.56z" class="C"/><path d="M743.62 332.43l20.94 12.1c1.13.65 2.97.65 4.11 0l49.84-28.79c1.13-.66 1.13-1.72 0-2.37l-20.94-12.1c-1.13-.65-2.97-.65-4.11 0l-49.84 28.79c-1.13.65-1.13 1.72 0 2.37z" class="B F"/><path d="M766.61 345.01v6.68a4.2 4.2 0 0 1-2.05-.49l-20.94-12.1c-1.13-.65-2.05-2.25-2.05-3.56v-1.93a4.6 4.6 0 0 1 1.85-3.43c-.92.66-.85 1.63.21 2.24l20.94 12.1a4.2 4.2 0 0 0 2.05.49z" class="D G"/><g class="C"><path d="M820.56 316.92v1.93c0 1.31-.92 2.9-2.05 3.56l-49.85 28.79a4.2 4.2 0 0 1-2.05.49v-6.68a4.2 4.2 0 0 0 2.05-.49l49.85-28.79c1.06-.61 1.13-1.58.21-2.24a4.6 4.6 0 0 1 1.85 3.43zM684 214.97v1.45a3.4 3.4 0 0 0 1.54 2.67l15.71 9.07a3.4 3.4 0 0 0 3.08 0l37.38-21.59a3.4 3.4 0 0 0 1.54-2.67v-1.45a3.4 3.4 0 0 0-1.54-2.67L726 190.7a3.4 3.4 0 0 0-3.08 0l-37.38 21.59a3.4 3.4 0 0 0-1.54 2.67z"/></g><path d="M685.54 214.08l15.7 9.07a3.4 3.4 0 0 0 3.08 0l37.38-21.59c.85-.49.85-1.29 0-1.78L726 190.7a3.4 3.4 0 0 0-3.08 0l-37.38 21.59c-.85.49-.85 1.29 0 1.78z" class="B F"/><path d="M702.79 223.51v5.01c-.56 0-1.11-.12-1.54-.37l-15.71-9.07a3.4 3.4 0 0 1-1.54-2.67v-1.45c0-.92.61-2.03 1.38-2.57-.69.49-.64 1.22.16 1.68l15.71 9.07c.42.25.98.37 1.54.37z" class="D G"/><g class="C"><path d="M743.25 202.45v1.45a3.4 3.4 0 0 1-1.54 2.67l-37.38 21.59a3.1 3.1 0 0 1-1.54.37v-5.01c.56 0 1.12-.12 1.54-.37l37.38-21.59c.79-.46.85-1.19.16-1.68.77.54 1.38 1.65 1.38 2.57zm-18.07 98.05v1.81c0 1.23.86 2.72 1.93 3.34l19.63 11.34a4.3 4.3 0 0 0 3.85 0L797.32 290a4.3 4.3 0 0 0 1.93-3.34v-1.81c0-1.23-.86-2.72-1.93-3.34l-19.63-11.34c-1.06-.62-2.79-.62-3.85 0l-46.73 26.99a4.3 4.3 0 0 0-1.93 3.34z"/></g><path d="M748.54 311.19v6.26c-.65-.02-1.3-.17-1.8-.46l-19.63-11.34c-1.06-.61-1.93-2.11-1.93-3.33v-1.81c0-1.15.75-2.52 1.71-3.2-.84.62-.77 1.52.21 2.09l19.63 11.34c.5.29 1.14.44 1.8.46z" class="D G"/><path d="M727.11 299.39l19.63 11.34c1.06.62 2.79.62 3.85 0l46.73-26.99c1.06-.62 1.06-1.61 0-2.22l-19.63-11.34c-1.06-.62-2.79-.62-3.85 0l-46.73 26.99c-1.06.61-1.06 1.61 0 2.22z" class="B F"/><path d="M710.52 270.34v1.69a4 4 0 0 0 1.8 3.11l18.32 10.58a4 4 0 0 0 3.6 0l43.61-25.19a4 4 0 0 0 1.8-3.11v-1.69a4 4 0 0 0-1.8-3.11l-18.32-10.58c-.99-.57-2.6-.57-3.59 0l-43.61 25.19a4 4 0 0 0-1.8 3.11z" class="C"/><path d="M712.32 269.3l18.32 10.58a4 4 0 0 0 3.59 0l43.61-25.19c.99-.57.99-1.5 0-2.08l-18.32-10.58c-.99-.57-2.6-.57-3.59 0l-43.61 25.19c-.99.57-.99 1.5 0 2.08z" class="B F"/><path d="M732.44 280.31v5.84a3.7 3.7 0 0 1-1.8-.43l-18.32-10.58a4 4 0 0 1-1.8-3.11v-1.69a4 4 0 0 1 1.61-3c-.8.57-.74 1.42.18 1.96l18.32 10.58a3.7 3.7 0 0 0 1.8.43z" class="D G"/><path d="M696.98 242.15v1.57a3.7 3.7 0 0 0 1.67 2.89l17.01 9.83a3.7 3.7 0 0 0 3.34 0l40.5-23.39a3.7 3.7 0 0 0 1.67-2.89v-1.57a3.7 3.7 0 0 0-1.67-2.89l-17.01-9.83a3.7 3.7 0 0 0-3.34 0l-40.5 23.39a3.7 3.7 0 0 0-1.67 2.89z" class="C"/><path d="M698.64 241.18l17.01 9.83a3.7 3.7 0 0 0 3.34 0l40.5-23.39c.92-.53.92-1.4 0-1.93l-17.01-9.83a3.7 3.7 0 0 0-3.34 0l-40.5 23.39c-.92.53-.92 1.4 0 1.93z" class="B F"/><path d="M717.23 251.41v5.42a3.3 3.3 0 0 1-1.57-.4l-17.02-9.82a3.7 3.7 0 0 1-1.67-2.9v-1.57c0-.95.59-2.07 1.36-2.68-.6.53-.5 1.24.3 1.71l17.02 9.83c.43.25 1 .39 1.57.4z" class="D G"/><path d="M737.1 167.18c5.72-1.73 9.39-4.81 11.45-11.04 0 0-3.21 2.9-8.89 2.9s-11.13-1.95-16.19-1.95-10.09 1.95-10.09 1.95v17.25s4.31-2.99 10.09-2.99c5.06 0 10.51 1.95 16.19 1.95 2.52 0 4.57-.54 6.04-1.21 2.85-1.3 5.26-3.99 5.26-3.99s-7.23 1.59-13.86-2.87z" class="C"/><path d="M726.7 169.49l-2.2-1.12-2.17 1.17c-.45.24-.98-.14-.9-.64l.39-2.44-1.79-1.7c-.37-.35-.17-.97.33-1.05l2.44-.38 1.07-2.23c.22-.46.87-.47 1.1-.01l1.12 2.2 2.45.33c.5.07.71.68.35 1.04l-1.75 1.74.45 2.43c.09.5-.43.89-.88.66z" class="B"/><path d="M713.38 154.07c-.01-.18-.12-.35-.36-.49-.48-.28-1.25-.28-1.73 0-.23.14-.35.31-.36.49h0v52.48c0 .38.55.69 1.22.69s1.22-.31 1.22-.69h0v-52.48h0z" fill="#455a64"/><path d="M712.15 154.77c.68 0 1.23-.31 1.23-.7s-.55-.7-1.23-.7-1.23.31-1.23.7.55.7 1.23.7z" fill="#37474f"/><path d="M891.53 234.09c4.68.21 7.33.82 9.7 4.29s9.49 19.74 10.56 21.88 2.06 5 .5 7.55-14.25 18.83-14.25 18.83l-4.89-7.31 9.17-13.99-9.98-15.63-.81-15.61z" class="E"/><use href="#L" class="C"/><use href="#L" opacity=".7" fill="#4f9eff"/><path opacity=".1" d="M904.28 267.61l-2.27-3.32s-2.3-5.1-1.71-9.31c1.21-8.69.16-12.21-1.56-15.56l-6.75.54 2.85 14.87 6.94 10.35c.76 1.14 2.5 2.42 2.5 2.42z" class="D"/><path d="M898.67 285.02c-3.58-6.85-5.98-10.06-5.98-10.06l-5.59 23.45-8.93 9.49 6.63 33.53c1.11 5.05 7.45 40.12 7.45 40.12l.97 8.25c5.93 1.38 7.1-.21 7.1-1.49s.44-6.42.44-6.42 1.33-.57 1.56-2.77c.12-1.17-1.59-1.91-1.45-4.89.42-9.36 2.06-20.63 2.09-23.64.08-8.72-3.15-13.75-3.15-13.75-.4-8.55.53-23.54.43-34.07 2.72-9.26.81-13.17-1.58-17.74z" class="E"/><path d="M896.34 385.56c-1.23-2.98-8.91-30.45-8.91-30.45s2.82 15.12 3.15 19.01c.23 2.76.46 8.22-.57 11.48s-3.61 8.4-6.43 8.8c1.5 1.04 7.75 2.47 10.17-1.47a19.2 19.2 0 0 0 1.45-2.76c4.24.62 5.14-.74 5.14-1.87 0-.29.02-.8.06-1.39-.86 2.16-2.82 1.63-4.05-1.35z" class="I"/><use href="#M" class="C"/><use href="#M" opacity=".3" class="D"/><path d="M901.67 376.72c-1.01-.48-3.59.71-5.08 2.11-1.96 1.83-2.35 4.22-3.27 7.04-.99 3.01-2.83 7.17-4.42 8.15s-4.6.26-7.06.35-4.31 1.29-4.37 3.09c-.01 1.41 6.5 4.39 10.54 4.39 3.35 0 4.52.52 6.16-4.45s2.24-7.76 3.85-4.49 2.53 10.74 2.53 10.74 1.36.89 2.75-.11c0 0-.03-4.78.26-7.8s1.7-7.83 1.34-11.45-2.24-7.09-3.24-7.54z" class="H"/><path d="M880.31 309.7c.85-6.89-19.32-14.91-19.32-14.91l-3.54 60.74-.52 45.81.97 8.25c5.93 1.38 7.1-.21 7.1-1.49s.44-6.42.44-6.42.89-.44 1.12-2.64c.12-1.17-.27-2.73-.13-4.54.72-9.34 2.78-15.72 4.78-24.68 1.88-8.44 1.73-16.46 1.73-16.46l7.36-43.66z" class="E"/><path d="M861.01 405.36c-1.23-2.98-4.08-35.28-4.08-35.29l-.58 25.06c-.22 3.56-.65 7-1.67 10.26s-3.61 8.4-6.44 8.79c1.5 1.04 7.75 2.47 10.17-1.47.74-1.2 1.18-2.09 1.45-2.76 4.24.62 5.14-.74 5.14-1.87a28.8 28.8 0 0 1 .06-1.39c-.86 2.16-2.82 1.63-4.05-1.35z" class="I"/><use href="#N" class="C"/><use href="#N" opacity=".3" class="D"/><path d="M866.47 397.2c-.99-.52-3.62.57-5.16 1.9-2.03 1.75-2.52 4.12-3.56 6.9-1.11 2.97-3.12 7.05-4.75 7.96s-4.61.07-7.06.06-4.36 1.11-4.5 2.9c-.07 1.41 6.32 4.65 10.35 4.82 3.35.14 4.49.71 6.34-4.19s2.56-7.66 4.03-4.33 2.03 10.28 2.03 10.28 1.16 1.38 2.96.07c0 0 0-4.29.42-7.3s2.02-7.75 1.82-11.38-1.95-7.18-2.92-7.67z" class="H"/><path d="M862.24 276.52c-1.8 10.92-2.13 14.31-3.46 28.31-1.03 10.89-1.67 42.38-1.72 46.77l-.71 31.58s6.02 5.13 11.62 1.12l4.42-16.13a34.4 34.4 0 0 0 1.24-15.01l5.96-37.05 6.42 34.15c1.43 7.57 3.17 14.61 3.17 14.61s2.37 1.58 6.35 1.45 6.19-2.89 6.19-2.89 1.56-9.71 1.59-13.12c.04-5.41-.9-9.24-3.17-13.62l.75-33.95s2.48-6.03.77-11.92c-2.13-7.37-8.63-18.45-8.63-18.45l-30.8 4.14z" fill="#37474f"/><path d="M879.59 316.12l2.4-8.83s7.4-.58 11.34-5.69c-1.26 2.4-2.47 5.23-9.14 7.77l-2.33 9 3.69 29.42-5.96-31.68z" class="H"/><g class="C"><use href="#O"/><use href="#O" opacity=".8"/></g><path d="M874.92 227.8l.4 8.63c5.2 1.82 12.34.5 11.5-2.54l-.12-7.8-11.78 1.71z" class="E"/><path d="M861.12 201.36c-.11-.65-.16-1.32-.12-1.98.04-.79.18-1.59.6-2.26 1.06-1.68 2.96-1.6 4.69-1.5a27.3 27.3 0 0 0 10.15-1.18l4.01-1.45c3.42-1.07 7.3-1.09 10.44.63a9.3 9.3 0 0 1 4.58 5.95c.27 1.19.08 2.38.26 3.58.22 1.47.77 2.86.97 4.34.22 1.59.24 3.19.24 4.79-.03 6.61-15.54 10.23-15.43 14.77l-7.73-10.29c.02-.41-1.09-1.49-1.34-1.85-.46-.68-.86-1.4-1.28-2.1-.78-1.31-1.84-2.41-3.08-3.31-1.17-.84-2.53-1.4-3.63-2.34-1.73-1.46-2.93-3.55-3.32-5.78z" class="H"/><path d="M866.7 212.74s-2.82 3.82-2.49 4.25a6.4 6.4 0 0 0 1.99.95l.5-5.2z" class="I"/><path d="M875.33 200.64c-2.63 1.19-7.18 3.41-8.73 12.67-1.59 9.51.43 12.93 1.7 14.24.86.88 5.46 1.39 7.9.76 3.05-.79 9.72-3.67 13-8.47 3.86-5.65 4.94-13.35.91-16.57-5.66-4.53-12.56-3.65-14.79-2.63z" class="E"/><path d="M868.54 227.73c1.06.64 4.12 1.03 6.42.79l.01-1.72s-1.31.54-3.09.86c-1.78.32-3.32.07-3.33.07z" class="I"/><g class="H"><path d="M874.21 200.31c-1.08.41-2.11.81-3.07 1.59-.45.37-.87.79-1.12 1.31-.23.47-.31 1.01-.28 1.53a4.1 4.1 0 0 0 2.26 3.43 4 4 0 0 0-.79 3.3c.29 1.37 1.27 2.47 2.21 3.5.06.06.11.12.19.15.14.05.3-.03.43-.11 1.66-1.01 2.74-2.83 4.99-1.98 2.95 1.11 2.99 4.03 1.11 6.53-.86 1.14-1.79 1.73-2.88 1.82-1.23.1-1.85-.61-1.85-.61s.25 5.55 4.36 7.64c0 0 4.87 1.34 7.56-.26 1.67-1.94 4.43-4.39 6.72-6.59 7.52-7.24 8.41-18.21-2.04-22.14a21.6 21.6 0 0 0-1.09-.38c-3.35-1.05-6.96-1.26-10.41-.68a22.6 22.6 0 0 0-5.05 1.46 30.5 30.5 0 0 1-1.24.48z"/><path d="M873.08 218.33c-1.16-.47-1.71-1.77-1.23-2.91s1.8-1.68 2.96-1.21l-1.72 4.12zm21.97-16.48c.85.7 2.09.58 2.78-.26a2 2 0 0 0-.3-2.8l-2.47 3.07z"/></g><use href="#P" class="C"/><use href="#P" opacity=".7" class="B"/><path d="M865.72 237.06c-3.68.51-5.23 1.36-8.5 6.06s-13.97 21-15.27 24.68c-1.75 4.94-.35 6.1 1.94 8.23 2.09 1.95 13.32 11.14 14.08 12.12s.01 9.2 1.38 10.56c0 .06.01.07.01.02.03-.29.26-1.52.62-3.05.66-2.47 2.02-4.95 3.17-6.88s2.2-4.12 1.86-6.39c-.18-1.25-1.97-2.13-3.2-3.3-3.23-3.08-7.77-8.62-7.77-8.62l13.86-16.64c1.63-2.09 5.63-10.73-2.18-16.78z" class="E"/><use href="#Q" class="C"/><use href="#Q" opacity=".7" fill="#4f9eff"/><path opacity=".1" d="M854.04 270.49s-1.32 1.28-2.64 2.25l3.39-1.36-.74-.89z" class="D"/><path d="M886.98 255.81l-2.15-2.58v3.01l-4.3-.86 4.73 3.44-2.15 1.72 3.01.43-.43 3.44 2.15-1.72 1.72-2.15 2.15 1.72-.86-4.3 2.15-3.01-3.44-.43-.43-2.58-2.15 3.87z" class="B"/><path d="M928.31 257.46c1.39-.07 6.66.32 9.12.53l.7 13.83c-.93-.29-3.56-.42-6.69 1.41-3.91 2.29-5.3 3.1-9.03 4.14-2.84.79-4.17.26-7.12 1.32-4.19 1.5-10.86 4.49-11.38-.18-.29-2.63 2.52-3.17 4.34-4.14s8.43-3.44 8.25-5.82-3.3-4.49-4.6-5.11a14.7 14.7 0 0 0-4.17-.79l-16.85-2.73c-3.91-.7-4.26-2.2-3.47-2.64s.78-.26 3.3-.97 17.37 0 18.59 0 3.82-1.41 4.95-1.41 2.26.62 4 1.23a49.4 49.4 0 0 0 10.07 1.32z" fill="#f9b495"/><path d="M932.78 256.31l38.17-3.78c.21 7.73 0 23.18 0 23.18l-37.02-2.73-1.15-16.67z" fill="url(#I)"/><path d="M903.36 269.94c-.17-2.94 2.03-6.85 3.19-8.28 0 0 3.86.07 5.98 1.36 2.34 1.42 5.06 3.16 4.68 5.87-.31 2.2-1.24 2.36-3.04 3.67-1.82 1.33-5.24 2.41-5.24 2.41-3.69-1.93-5.24-4.16-5.56-5.03z" fill="#fba583"/><path d="M909.84 268.16c1.85.42 3.77 2.83 4.51 3.98.25-.17 1.57-.94 2.2-1.68.84-.92.73-2.06.63-2.52-.25-2.1-3.25-4.16-4.72-4.93.17 1.09-1.68 3.88-2.62 5.14z" fill="#f99976"/><path d="M914.11 268.27c.67-1.01.7-2.8.63-3.57.84.84 2.52 2.41 2.52 3.99 0 1.17-.63 1.75-.94 1.89l-2.2-2.31z" fill="#f18a69"/><g class="B"><path d="M892.91 247.19l-1.38 5.46 3.88-3.86-2.5-1.6zm-14.16 5.02l5.27 2.92-3.12-4.97-2.14 2.06zm.65 12.11l5.46-2.29-3.54 4.55-1.92-2.27z"/></g></g></g><rect x="1" y="1" width="1138" height="638" rx="15" stroke="#0668e1" stroke-width="2"/><defs><filter id="D" x="-4.75" y="56.41" width="332.5" height="98.56" filterUnits="userSpaceOnUse" color-interpolation-filters="sRGB"><feFlood flood-opacity="0" result="A"/><feColorMatrix in="SourceAlpha" values="0 0 0 0 0 0 0 0 0 0 0 0 0 0 0 0 0 0 127 0" result="B"/><feOffset dy="1.78125"/><feGaussianBlur stdDeviation="2.38"/><feComposite in2="B" operator="out"/><feColorMatrix values="0 0 0 0 0 0 0 0 0 0 0 0 0 0 0 0 0 0 0.3 0"/><feBlend in2="A"/><feBlend in="SourceGraphic"/></filter><linearGradient id="E" x1="305.21" y1="465.52" x2="296.87" y2="65.26" href="#R"><stop stop-color="#ddecff"/><stop offset="1" stop-color="#eaf3ff"/></linearGradient><linearGradient id="F" x1="367.64" y1="207.09" x2="792.65" y2="606.15" href="#R"><stop stop-color="#e0eeff"/><stop offset="1" stop-color="#f9f9f9"/></linearGradient><linearGradient id="G" x1="26.45" y1="343.58" x2="329.1" y2="581.48" href="#R"><stop stop-color="#d6e8ff"/><stop offset="1" stop-color="#cfe4ff"/></linearGradient><linearGradient id="H" x1="846.98" y1="338.63" x2="846.98" y2="552.38" href="#R"><stop stop-color="#f5f5f5"/><stop offset="1" stop-color="#fff"/></linearGradient><linearGradient id="I" x1="951.91" y1="252.53" x2="951.91" y2="275.71" href="#R"><stop stop-color="#3884ff"/><stop offset="1" stop-color="#0668e1"/></linearGradient><clipPath id="J"><rect width="1140" height="640" rx="16" class="B"/></clipPath><clipPath id="K"><path transform="translate(665 141.5)" d="M0 0h356.25v356.25H0z" class="B"/></clipPath><path id="L" d="M890.88 234.09c1.66-.19 4.72-2.7 7.71-.53s4.33 6.24 6.14 10.13c1.23 2.63 7.9 17.29 8.38 18.68s1.17 3.28-.47 5.63-6.74 8.45-6.74 8.45-4.73-1.19-6.28-7l2.17-4.27-6.94-10.35-3.97-20.75z"/><path id="M" d="M889.63 401.19s.96 1.53 5.7-.7 6-4.7 6-4.7-1.66-9.64-4.55-7.08-7.16 12.48-7.16 12.48z"/><path id="N" d="M853.41 421.16s.89 1.57 5.73-.47 6.19-4.45 6.19-4.45-1.26-9.7-4.25-7.26-7.67 12.18-7.67 12.18z"/><path id="O" d="M899.96 244.25c-.5-3.56-1.77-7.87-5.2-9.35s-9.6-.9-9.6-.9c-.48 1.62-6.4 3.7-9.32.9-2.83.6-6.31 1.24-10.13 2.17-3.03.74-4.79 12.2-6.79 15.89-2.34 4.34-.06 10.27 2.91 12.55 0 0 .05 6.12.39 11.03 5.22 4.37 14.98 5.56 22.52 3.6 5.68-1.48 7.26-3.37 8.47-7.41.5-1.69 1.24-4.07 2.29-7 2.45-6.8 5.12-16.74 4.45-21.48z"/><path id="P" d="M875.09 231.6c-.65-.04-1.06.27-1.84 1.28l-2.58 3.08s1.34 2.46 5.57 3.3 7.85.46 10.04-.43 2.52-1.61 2.8-2.58-.24-2.54-.87-3.91-1.43-1.3-1.43-1.3v1.09s-.23 1.17-3.5 1.74-7.16 0-8.11-.91l-.06-1.37z"/><path id="Q" d="M866.69 236.83c-2.51-1.94-7.15-3.01-10.05 4.44-1.36 3.49-10.21 16.58-12.75 21.2s-4.74 8.63-2.72 11.3 8.42 7.2 8.42 7.2 5.68-1.85 7.09-7.38l-2.62-3.1 11.96-13.68c1.91-2.19 3.74-3.93 4.66-7.75s.8-8.13-3.98-12.22z"/><linearGradient id="R" gradientUnits="userSpaceOnUse"/></defs></svg>