<svg xmlns="http://www.w3.org/2000/svg" width="1140" height="640" fill="none" xmlns:v="https://vecta.io/nano"><style><![CDATA[.B{fill:#fff}.C{fill:#0668e1}.D{stroke-linecap:round}.E{stroke-linejoin:round}.F{fill:#2a2e44}.G{fill:#343852}.H{stroke:#110909}.I{stroke-width:.36}.J{fill:#6b6b6b}.K{fill:#efcdaf}.L{stroke-width:5.04}]]></style><g clip-path="url(#W)"><rect width="1140" height="640" rx="16" class="B"/><path d="M0 0h1140v690.63H0V0z" fill="#f1f7ff"/><mask id="A" maskUnits="userSpaceOnUse" x="534" y="0" width="606" height="691"><path d="M534.61 690.63c70.39-334.13 465.65-272.9 486.8-657.16.62-11.25-.44-22.43-1.3-33.47H1140v377.35 313.28H534.61z" class="B"/></mask><g mask="url(#A)"><path d="M534.61 0H1140v690.63H534.61V0z" fill="url(#H)"/></g><mask id="B" maskUnits="userSpaceOnUse" x="227" y="0" width="795" height="691"><path d="M949.27 0h70.83a426.2 426.2 0 0 1 1.31 33.47c0 393.68-364.1 321.95-434.72 657.16H227.75C339.82 213.68 793.03 429.99 949.27 0z" class="B"/></mask><g mask="url(#B)"><path d="M227.75 0h793.67v690.63H227.75V0z" fill="url(#I)"/></g><mask id="C" maskUnits="userSpaceOnUse" x="724" y="280" width="416" height="411"><path d="M1140 280.42v96.93 313.28H724.84C832.35 514.3 1062.09 487.47 1140 280.42z" class="B"/></mask><g mask="url(#C)"><path d="M724.84 280.3H1140v410.21H724.84V280.3z" fill="url(#J)"/></g><path d="M132.91 228.38h5.28c-.07 1.53-.48 2.88-1.24 4.04s-1.8 2.08-3.13 2.73c-1.33.64-2.9.97-4.7.97-1.47 0-2.78-.25-3.94-.74a8 8 0 0 1-2.92-2.12 9.6 9.6 0 0 1-1.83-3.36c-.41-1.32-.62-2.8-.62-4.45v-1.19a14.2 14.2 0 0 1 .65-4.45 9.8 9.8 0 0 1 1.87-3.38 8.1 8.1 0 0 1 2.93-2.14 9.4 9.4 0 0 1 3.78-.74 10.4 10.4 0 0 1 4.84 1.03c1.32.68 2.34 1.62 3.06 2.82a9.2 9.2 0 0 1 1.28 4.06h-5.28c-.02-.82-.16-1.51-.42-2.06a2.6 2.6 0 0 0-1.24-1.27c-.56-.28-1.31-.42-2.25-.42-.65 0-1.22.12-1.7.36a3 3 0 0 0-1.21 1.15 6.1 6.1 0 0 0-.72 2.03c-.15.82-.23 1.82-.23 2.98v1.22c0 1.17.07 2.16.21 2.99s.37 1.5.68 2.02.71.91 1.21 1.16a4.2 4.2 0 0 0 1.84.36 4.9 4.9 0 0 0 2.03-.38c.55-.26.98-.65 1.28-1.18.3-.53.46-1.21.48-2.03zm12.66-4.84v12.27h-5.08V219.5h4.75l.33 4.04zm4.82-4.16l-.09 4.72-.81-.08-.86-.04a5 5 0 0 0-1.54.21 2.6 2.6 0 0 0-1.06.6c-.27.26-.47.59-.6 1a4.6 4.6 0 0 0-.17 1.4l-.92-.6c0-1.09.11-2.09.32-2.99.22-.9.53-1.68.94-2.34.4-.66.89-1.17 1.46-1.52.57-.36 1.22-.54 1.93-.54a6 6 0 0 1 .74.04c.25.03.47.08.66.14zm9.77 12.33v-6.72c0-.46-.06-.86-.2-1.19s-.34-.59-.62-.77c-.28-.19-.66-.29-1.13-.29-.38 0-.71.06-.98.2s-.48.33-.62.59-.21.59-.21.99h-5.08a4.5 4.5 0 0 1 .5-2.1 5.2 5.2 0 0 1 1.45-1.7c.63-.48 1.39-.86 2.26-1.12.88-.27 1.87-.41 2.96-.41 1.3 0 2.45.22 3.47.65 1.03.43 1.83 1.08 2.43 1.94.59.85.89 1.93.89 3.23v6.68c0 1.06.06 1.87.18 2.43a5.6 5.6 0 0 0 .51 1.43v.26h-5.1c-.24-.5-.42-1.12-.54-1.84a15.1 15.1 0 0 1-.17-2.26zm.62-5.86l.03 2.71h-2.25a3.3 3.3 0 0 0-1.21.2c-.32.13-.58.31-.78.54-.19.22-.33.47-.42.75a3.2 3.2 0 0 0-.12.89c0 .3.07.57.21.81.15.23.35.41.6.54a1.8 1.8 0 0 0 .84.2 3 3 0 0 0 1.43-.32c.4-.22.71-.49.92-.8s.32-.6.32-.87l1.11 2.08a13.9 13.9 0 0 1-.69 1.22 5.3 5.3 0 0 1-.95 1.15 4.5 4.5 0 0 1-1.37.84c-.54.21-1.2.32-1.97.32-1 0-1.93-.21-2.77-.62-.84-.41-1.5-.99-2.01-1.72-.5-.74-.75-1.6-.75-2.56a5.4 5.4 0 0 1 .45-2.26c.31-.66.78-1.23 1.4-1.69s1.42-.81 2.38-1.06 2.1-.36 3.41-.36h2.19zm14.2 6.35a2.6 2.6 0 0 0 1.21-.26 1.8 1.8 0 0 0 .77-.75c.18-.33.27-.73.26-1.19h4.78a5.6 5.6 0 0 1-.9 3.23 6.1 6.1 0 0 1-2.47 2.14c-1.04.5-2.21.75-3.51.75a8.4 8.4 0 0 1-3.35-.62 6.7 6.7 0 0 1-2.4-1.75 7.7 7.7 0 0 1-1.43-2.64 11 11 0 0 1-.47-3.27v-.35a11 11 0 0 1 .47-3.27 7.5 7.5 0 0 1 1.43-2.64 6.5 6.5 0 0 1 2.38-1.75c.95-.42 2.06-.63 3.33-.63 1.36 0 2.55.26 3.59.77a5.8 5.8 0 0 1 2.46 2.23 6.6 6.6 0 0 1 .87 3.54h-4.78c.01-.49-.07-.94-.23-1.33s-.41-.7-.75-.93c-.33-.24-.76-.36-1.28-.36s-.94.12-1.27.35-.57.55-.74.96c-.16.4-.27.86-.33 1.39l-.08 1.67v.35l.08 1.7a5 5 0 0 0 .35 1.39 2.2 2.2 0 0 0 .74.94c.32.22.75.33 1.28.33zm14.31-19.55v23.17h-5.08v-23.17h5.08zm10.43 6.86l-7.09 8.31-3.71 3.71-2.22-3.23 3.09-4.03 3.83-4.76h6.09zm-5.44 16.31l-4.36-7.43 3.75-2.67 6.42 10.1h-5.82zm12.14-16.31v16.31h-5.09V219.5h5.09zm-5.4-4.21c0-.72.26-1.32.78-1.78s1.2-.69 2.03-.69 1.51.23 2.04.69.78 1.06.78 1.78-.26 1.32-.78 1.78-1.2.69-2.04.69-1.51-.23-2.03-.69-.78-1.06-.78-1.78zm13.52 7.69v12.83h-5.08V219.5h4.76l.32 3.48zm-.6 4.12l-1.19.03a11.3 11.3 0 0 1 .45-3.33c.3-.98.73-1.82 1.28-2.5s1.21-1.2 1.97-1.55a6 6 0 0 1 2.58-.54c.75 0 1.44.11 2.07.33.63.22 1.18.58 1.63 1.07a4.8 4.8 0 0 1 1.06 1.96 10.1 10.1 0 0 1 .38 2.98v10.27h-5.11v-10.28c0-.65-.09-1.15-.27-1.49-.18-.35-.44-.59-.78-.72a3.5 3.5 0 0 0-1.25-.2 2.7 2.7 0 0 0-1.33.3c-.36.2-.65.48-.87.84-.21.35-.37.77-.47 1.25-.09.48-.14 1.01-.14 1.58zm23.29-7.6h4.61v15.68c0 1.51-.35 2.78-1.04 3.83a6.5 6.5 0 0 1-2.91 2.4c-1.24.55-2.68.83-4.34.83-.73 0-1.48-.1-2.25-.29a8.6 8.6 0 0 1-2.14-.81c-.66-.36-1.22-.81-1.67-1.34l2.13-2.99a5.3 5.3 0 0 0 1.55 1.18c.62.33 1.36.5 2.2.5a3.9 3.9 0 0 0 1.84-.39c.5-.26.88-.64 1.14-1.15.26-.49.39-1.09.39-1.79v-11.79l.48-3.86zm-10.84 8.35v-.32a11.8 11.8 0 0 1 .45-3.38 8 8 0 0 1 1.33-2.64 6 6 0 0 1 2.11-1.72c.82-.4 1.75-.6 2.79-.6 1.12 0 2.03.22 2.74.65a4.7 4.7 0 0 1 1.73 1.78c.44.76.78 1.66 1.03 2.68l.63 3.29v.38c-.17 1.11-.41 2.15-.71 3.14a10.5 10.5 0 0 1-1.15 2.59c-.47.75-1.06 1.35-1.78 1.78-.7.42-1.55.63-2.53.63a6.1 6.1 0 0 1-2.77-.62 6.2 6.2 0 0 1-2.1-1.73c-.57-.74-1.02-1.62-1.33-2.62a11.4 11.4 0 0 1-.45-3.29zm5.08-.32v.32a8.2 8.2 0 0 0 .17 1.7c.12.52.3.98.54 1.39a2.8 2.8 0 0 0 .89.92c.36.22.78.33 1.27.33.73 0 1.33-.16 1.78-.47a2.6 2.6 0 0 0 .98-1.33c.2-.57.29-1.25.26-2.02v-1.19c.02-.66-.03-1.25-.13-1.75-.11-.51-.29-.94-.53-1.28-.23-.34-.54-.6-.94-.77-.38-.18-.84-.27-1.39-.27-.47 0-.89.11-1.25.33a2.7 2.7 0 0 0-.9.94c-.24.39-.43.86-.56 1.4a7.9 7.9 0 0 0-.18 1.75zm33.71.84h5.28c-.07 1.53-.48 2.88-1.24 4.04s-1.8 2.08-3.14 2.73c-1.33.64-2.89.97-4.7.97-1.47 0-2.78-.25-3.93-.74a8 8 0 0 1-2.92-2.12 9.6 9.6 0 0 1-1.82-3.36c-.41-1.32-.62-2.8-.62-4.45v-1.19a14.2 14.2 0 0 1 .65-4.45 9.8 9.8 0 0 1 1.87-3.38 8.1 8.1 0 0 1 2.92-2.14 9.4 9.4 0 0 1 3.78-.74 10.4 10.4 0 0 1 4.84 1.03c1.32.68 2.34 1.62 3.06 2.82a9.2 9.2 0 0 1 1.28 4.06h-5.28c-.02-.82-.16-1.51-.42-2.06a2.6 2.6 0 0 0-1.24-1.27c-.56-.28-1.31-.42-2.25-.42-.65 0-1.22.12-1.7.36a3 3 0 0 0-1.21 1.15 6.1 6.1 0 0 0-.72 2.03c-.15.82-.23 1.82-.23 2.98v1.22c0 1.17.07 2.16.21 2.99s.37 1.5.68 2.02.71.91 1.21 1.16a4.2 4.2 0 0 0 1.84.36 4.9 4.9 0 0 0 2.04-.38c.55-.26.98-.65 1.28-1.18.3-.53.46-1.21.48-2.03zm16.01 3.33v-6.72c0-.46-.07-.86-.2-1.19s-.34-.59-.62-.77c-.28-.19-.66-.29-1.13-.29-.38 0-.71.06-.98.2s-.48.33-.62.59-.21.59-.21.99h-5.08a4.5 4.5 0 0 1 .5-2.1c.34-.65.82-1.22 1.45-1.7a7 7 0 0 1 2.26-1.12c.88-.27 1.87-.41 2.95-.41a8.8 8.8 0 0 1 3.47.65c1.02.43 1.83 1.08 2.43 1.94.59.85.89 1.93.89 3.23v6.68c0 1.06.06 1.87.18 2.43a5.6 5.6 0 0 0 .51 1.43v.26h-5.1a6.9 6.9 0 0 1-.54-1.84 15.2 15.2 0 0 1-.17-2.26zm.62-5.86l.03 2.71h-2.25a3.3 3.3 0 0 0-1.21.2c-.32.13-.58.31-.78.54-.19.22-.33.47-.42.75-.08.28-.12.58-.12.89 0 .3.07.57.21.81.15.23.35.41.6.54a1.8 1.8 0 0 0 .84.2c.56 0 1.04-.11 1.43-.32.4-.22.71-.49.92-.8s.32-.6.32-.87l1.12 2.08a13.9 13.9 0 0 1-.69 1.22c-.25.41-.57.79-.95 1.15a4.5 4.5 0 0 1-1.37.84c-.54.21-1.2.32-1.98.32-1 0-1.93-.21-2.77-.62-.83-.41-1.5-.99-2-1.72-.5-.74-.75-1.6-.75-2.56a5.4 5.4 0 0 1 .45-2.26 4.4 4.4 0 0 1 1.4-1.69c.62-.46 1.42-.81 2.38-1.06s2.1-.36 3.41-.36h2.19zm12.3-2.86v12.83h-5.08V219.5h4.76l.32 3.48zm-.6 4.12l-1.19.03c0-1.25.15-2.36.45-3.33.3-.98.73-1.82 1.28-2.5s1.21-1.2 1.97-1.55a6 6 0 0 1 2.58-.54c.75 0 1.44.11 2.06.33.63.22 1.18.58 1.63 1.07a4.8 4.8 0 0 1 1.06 1.96c.25.8.38 1.8.38 2.98v10.27h-5.11v-10.28c0-.65-.09-1.15-.27-1.49-.18-.35-.44-.59-.78-.72a3.5 3.5 0 0 0-1.25-.2 2.7 2.7 0 0 0-1.33.3c-.36.2-.65.48-.87.84a4 4 0 0 0-.47 1.25c-.09.48-.14 1.01-.14 1.58zm22.42 4.98v-19.42h5.11v23.16h-4.58l-.53-3.74zm-10.01-4.22v-.32c0-1.24.13-2.36.41-3.38.27-1.03.67-1.91 1.21-2.64.53-.74 1.2-1.32 1.99-1.72a6 6 0 0 1 2.74-.6 4.5 4.5 0 0 1 2.43.65c.69.42 1.29 1.01 1.78 1.78s.89 1.66 1.21 2.68a20.9 20.9 0 0 1 .71 3.29v.38c-.16 1.11-.4 2.15-.71 3.14-.31.97-.71 1.84-1.21 2.59a5.7 5.7 0 0 1-1.79 1.78 4.6 4.6 0 0 1-2.44.63c-1.03 0-1.95-.21-2.74-.62a5.6 5.6 0 0 1-1.98-1.73c-.52-.74-.92-1.62-1.19-2.62s-.41-2.1-.41-3.29zm5.08-.32v.32c0 .61.04 1.18.12 1.7s.22.98.41 1.39c.2.39.46.7.78.92.33.22.74.33 1.22.33.65 0 1.19-.16 1.61-.47.43-.31.75-.75.95-1.33.21-.57.3-1.25.27-2.02v-1.19c.02-.66-.03-1.25-.14-1.75-.11-.51-.29-.94-.53-1.28-.23-.34-.53-.6-.89-.77a2.7 2.7 0 0 0-1.25-.27c-.47 0-.87.11-1.21.33-.32.22-.58.53-.78.94-.2.39-.35.86-.44 1.4a10.4 10.4 0 0 0-.14 1.75zm18.29-8.03v16.31h-5.1V219.5h5.1zm-5.4-4.21c0-.72.26-1.32.78-1.78s1.2-.69 2.04-.69 1.51.23 2.03.69.78 1.06.78 1.78-.26 1.32-.78 1.78-1.2.69-2.03.69-1.51-.23-2.04-.69-.78-1.06-.78-1.78zm17.91 16.78v-19.42h5.11v23.16h-4.58l-.53-3.74zm-10.01-4.22v-.32c0-1.24.13-2.36.41-3.38.27-1.03.67-1.91 1.21-2.64.53-.74 1.2-1.32 1.99-1.72a6 6 0 0 1 2.74-.6 4.5 4.5 0 0 1 2.43.65c.69.42 1.29 1.01 1.78 1.78s.9 1.66 1.21 2.68a20.9 20.9 0 0 1 .71 3.29v.38c-.16 1.11-.4 2.15-.71 3.14-.31.97-.71 1.84-1.21 2.59a5.7 5.7 0 0 1-1.79 1.78 4.6 4.6 0 0 1-2.44.63c-1.04 0-1.95-.21-2.74-.62a5.6 5.6 0 0 1-1.97-1.73c-.52-.74-.92-1.62-1.19-2.62s-.41-2.1-.41-3.29zm5.08-.32v.32c0 .61.04 1.18.12 1.7s.22.98.41 1.39c.2.39.46.7.78.92.33.22.74.33 1.22.33.65 0 1.19-.16 1.61-.47.43-.31.75-.75.95-1.33.21-.57.3-1.25.27-2.02v-1.19c.02-.66-.03-1.25-.14-1.75-.11-.51-.29-.94-.53-1.28a2.2 2.2 0 0 0-.89-.77 2.7 2.7 0 0 0-1.25-.27c-.47 0-.87.11-1.21.33-.32.22-.58.53-.78.94-.2.39-.35.86-.44 1.4a10.4 10.4 0 0 0-.14 1.75zm21.39 4.18v-6.72c0-.46-.06-.86-.2-1.19s-.34-.59-.62-.77c-.28-.19-.66-.29-1.13-.29-.38 0-.71.06-.98.2s-.48.33-.62.59-.21.59-.21.99h-5.08a4.5 4.5 0 0 1 .5-2.1c.34-.65.82-1.22 1.45-1.7a7 7 0 0 1 2.26-1.12c.88-.27 1.87-.41 2.95-.41 1.3 0 2.45.22 3.47.65 1.03.43 1.84 1.08 2.43 1.94.59.85.89 1.93.89 3.23v6.68c0 1.06.06 1.87.18 2.43.12.54.29 1.02.51 1.43v.26h-5.1a6.9 6.9 0 0 1-.54-1.84 15.2 15.2 0 0 1-.17-2.26zm.62-5.86l.03 2.71h-2.25a3.3 3.3 0 0 0-1.21.2c-.32.13-.58.31-.78.54-.19.22-.33.47-.42.75-.08.28-.12.58-.12.89 0 .3.07.57.21.81.15.23.35.41.6.54a1.8 1.8 0 0 0 .84.2c.56 0 1.04-.11 1.43-.32.4-.22.71-.49.92-.8s.32-.6.32-.87l1.12 2.08a13.9 13.9 0 0 1-.69 1.22c-.25.41-.57.79-.95 1.15a4.5 4.5 0 0 1-1.37.84c-.54.21-1.2.32-1.97.32-1 0-1.93-.21-2.77-.62-.83-.41-1.5-.99-2-1.72-.5-.74-.75-1.6-.75-2.56a5.4 5.4 0 0 1 .45-2.26c.31-.66.78-1.23 1.4-1.69s1.42-.81 2.38-1.06a14.2 14.2 0 0 1 3.41-.36h2.19zm15.9-6.35v3.53h-9.83v-3.53h9.83zm-7.76-4.06h5.08v15.05a2.7 2.7 0 0 0 .15 1.01c.1.23.27.4.51.5.25.09.58.14 1 .14l.72-.01.54-.07v3.63a8.3 8.3 0 0 1-1.36.32c-.47.08-.98.12-1.51.12-1.08 0-2.01-.17-2.79-.51-.76-.34-1.35-.88-1.75-1.61s-.6-1.69-.6-2.86v-15.68zm17.68 20.67c-1.33 0-2.51-.21-3.56-.62-1.05-.42-1.93-1-2.65-1.73a7.7 7.7 0 0 1-1.64-2.53c-.37-.95-.56-1.96-.56-3.03v-.57c0-1.2.17-2.3.5-3.32.33-1.03.82-1.92 1.48-2.68a6.6 6.6 0 0 1 2.46-1.78 8.5 8.5 0 0 1 3.44-.65 8.2 8.2 0 0 1 3.11.56 6.3 6.3 0 0 1 2.32 1.6c.64.69 1.13 1.53 1.46 2.52.34.99.51 2.09.51 3.32v2.07h-13.33v-3.18h8.37v-.39c.01-.54-.09-1-.29-1.39-.19-.38-.47-.67-.84-.87s-.82-.3-1.36-.3c-.55 0-1.01.12-1.37.36-.35.24-.63.57-.83 1-.19.41-.33.89-.41 1.43s-.12 1.12-.12 1.72v.57c0 .6.08 1.15.24 1.64.17.49.41.91.72 1.27a3.4 3.4 0 0 0 1.15.8c.45.19.96.29 1.54.29a5.6 5.6 0 0 0 2.05-.39 4.1 4.1 0 0 0 1.73-1.3l2.31 2.74a6 6 0 0 1-1.42 1.37 7.8 7.8 0 0 1-2.17 1.08c-.84.27-1.79.41-2.83.41zm-257.15 35.7h-4.87l.03-4.07h4.84c1 0 1.85-.24 2.55-.72a4.4 4.4 0 0 0 1.6-2.15c.37-.96.56-2.15.56-3.56v-.95c0-1.06-.11-1.98-.32-2.77a5.5 5.5 0 0 0-.9-2.01c-.4-.54-.91-.95-1.51-1.22-.59-.27-1.28-.41-2.05-.41h-4.89v-4.09h4.89c1.49 0 2.85.26 4.08.77 1.25.5 2.32 1.23 3.23 2.17a9.6 9.6 0 0 1 2.11 3.33 11.5 11.5 0 0 1 .75 4.25v.92c0 1.55-.25 2.96-.75 4.25-.49 1.29-1.19 2.4-2.09 3.33s-1.98 1.66-3.21 2.17c-1.23.5-2.57.75-4.04.75zm-1.84-21.95v21.95h-5.29v-21.95h5.29zm19.82 5.64v16.31h-5.09V255.5h5.09zm-5.4-4.21c0-.72.26-1.32.78-1.78s1.2-.69 2.04-.69 1.51.23 2.04.69.78 1.06.78 1.78-.26 1.32-.78 1.78-1.2.69-2.04.69-1.51-.23-2.04-.69-.78-1.06-.78-1.78zm17.08 15.93c0-.28-.1-.52-.29-.72-.18-.21-.5-.4-.97-.57-.46-.18-1.11-.36-1.95-.54-.79-.17-1.54-.4-2.25-.68-.69-.28-1.3-.62-1.82-1.02s-.94-.88-1.24-1.43c-.29-.55-.44-1.19-.44-1.9a4.5 4.5 0 0 1 .44-1.96c.3-.62.74-1.17 1.31-1.64a6.4 6.4 0 0 1 2.13-1.13 8.9 8.9 0 0 1 2.85-.42c1.47 0 2.73.23 3.8.68a5.5 5.5 0 0 1 2.46 1.87c.58.79.88 1.71.88 2.76h-5.08c0-.41-.07-.76-.21-1.06-.13-.29-.35-.51-.65-.66-.3-.16-.7-.24-1.21-.24-.35 0-.67.06-.97.2-.28.13-.51.31-.68.54s-.26.5-.26.81c0 .22.05.42.15.6.11.17.28.33.5.48a4.1 4.1 0 0 0 .84.39 10.2 10.2 0 0 0 1.24.3 16.8 16.8 0 0 1 3.08.86 5.8 5.8 0 0 1 2.32 1.58c.6.68.91 1.6.91 2.76 0 .72-.17 1.39-.5 2a5 5 0 0 1-1.43 1.6c-.62.45-1.37.8-2.25 1.06a10.7 10.7 0 0 1-2.96.38c-1.56 0-2.87-.28-3.95-.83-1.07-.56-1.89-1.27-2.44-2.11a4.8 4.8 0 0 1-.81-2.59h4.73a2.3 2.3 0 0 0 .36 1.24c.23.32.54.56.92.71a3.6 3.6 0 0 0 1.33.23c.46 0 .84-.06 1.15-.2.31-.13.55-.31.71-.53.16-.23.24-.5.24-.8zm15.75.48v-6.72c0-.46-.06-.86-.2-1.19s-.34-.59-.62-.77c-.28-.19-.66-.29-1.13-.29-.38 0-.71.06-.98.2s-.48.33-.62.59-.21.59-.21 1h-5.08a4.5 4.5 0 0 1 .5-2.1 5.2 5.2 0 0 1 1.45-1.7 7 7 0 0 1 2.26-1.12c.88-.27 1.87-.41 2.96-.41 1.3 0 2.45.22 3.47.65 1.03.43 1.83 1.08 2.43 1.94.59.85.89 1.93.89 3.23v6.68c0 1.06.06 1.87.18 2.43.12.54.29 1.02.51 1.43v.26h-5.09a6.9 6.9 0 0 1-.54-1.84 15.2 15.2 0 0 1-.17-2.26zm.62-5.87l.03 2.71h-2.25a3.3 3.3 0 0 0-1.21.2c-.32.13-.58.31-.78.54-.19.22-.33.47-.42.75-.08.28-.12.58-.12.89 0 .3.07.57.21.81.15.23.35.41.6.54a1.8 1.8 0 0 0 .84.2c.56 0 1.04-.11 1.43-.32.4-.22.71-.49.92-.8s.32-.6.32-.87l1.12 2.08c-.2.4-.43.81-.69 1.22-.25.41-.57.79-.95 1.15-.37.34-.83.62-1.37.84-.54.21-1.2.32-1.97.32-1 0-1.93-.21-2.77-.62-.83-.41-1.5-.98-2-1.72-.5-.74-.75-1.6-.75-2.56a5.4 5.4 0 0 1 .45-2.26c.31-.66.78-1.23 1.4-1.69s1.42-.81 2.38-1.06 2.1-.36 3.41-.36h2.19zm12.44-3.21v19.45h-5.08V255.5h4.73l.35 3.14zm10.01 4.82v.32c0 1.19-.14 2.29-.41 3.3s-.67 1.9-1.21 2.65-1.2 1.34-1.99 1.76a5.8 5.8 0 0 1-2.73.62 4.7 4.7 0 0 1-2.52-.65c-.7-.43-1.29-1.03-1.76-1.79s-.86-1.64-1.15-2.62a24 24 0 0 1-.69-3.12v-.41c.17-1.18.4-2.27.69-3.27a10.3 10.3 0 0 1 1.15-2.65c.47-.75 1.06-1.34 1.75-1.76a4.8 4.8 0 0 1 2.52-.63c1.03 0 1.94.2 2.73.59.79.39 1.46.96 1.99 1.69.54.72.95 1.59 1.22 2.61a13.1 13.1 0 0 1 .41 3.38zm-5.08.32v-.32c0-.63-.05-1.21-.14-1.73a4.8 4.8 0 0 0-.44-1.39c-.19-.39-.45-.69-.77-.9s-.72-.32-1.19-.32c-.54 0-1 .08-1.37.26-.36.16-.65.41-.87.75-.21.33-.36.75-.45 1.25a10 10 0 0 0-.1 1.73v1.24c-.02.76.06 1.44.23 2.02.17.57.47 1.02.89 1.34s.99.48 1.72.48c.48 0 .88-.11 1.21-.33.32-.23.58-.55.77-.95a5.2 5.2 0 0 0 .41-1.42 11.6 11.6 0 0 0 .12-1.72zm12.47-5.14v19.45h-5.08V255.5h4.73l.35 3.14zm10.01 4.82v.32c0 1.19-.13 2.29-.41 3.3s-.67 1.9-1.21 2.65-1.2 1.34-1.99 1.76c-.78.41-1.69.62-2.73.62a4.7 4.7 0 0 1-2.52-.65c-.7-.43-1.29-1.03-1.76-1.79a10.8 10.8 0 0 1-1.15-2.62 24.2 24.2 0 0 1-.69-3.12v-.41a24.4 24.4 0 0 1 .69-3.27 10.4 10.4 0 0 1 1.15-2.65c.47-.75 1.06-1.34 1.75-1.76a4.8 4.8 0 0 1 2.52-.63c1.03 0 1.94.2 2.73.59.79.39 1.46.96 1.99 1.69.54.72.95 1.59 1.22 2.61s.41 2.14.41 3.38zm-5.08.32v-.32c0-.63-.05-1.21-.14-1.73-.09-.53-.24-.99-.44-1.39a2.2 2.2 0 0 0-.77-.9c-.32-.21-.72-.32-1.19-.32-.54 0-1 .08-1.37.26-.36.16-.65.41-.87.75-.21.33-.36.75-.45 1.25a9.9 9.9 0 0 0-.11 1.73v1.24c-.02.76.06 1.44.23 2.02.17.57.47 1.02.89 1.34s.99.48 1.72.48c.48 0 .88-.11 1.21-.33.32-.23.58-.55.77-.95a5.2 5.2 0 0 0 .41-1.42c.08-.53.12-1.11.12-1.72zm15.24 8.34c-1.33 0-2.51-.21-3.56-.62-1.05-.42-1.93-1-2.65-1.73a7.7 7.7 0 0 1-1.64-2.53c-.37-.95-.56-1.96-.56-3.03v-.57a10.6 10.6 0 0 1 .5-3.32c.33-1.02.82-1.92 1.48-2.68a6.6 6.6 0 0 1 2.46-1.78 8.5 8.5 0 0 1 3.44-.65c1.16 0 2.19.19 3.1.56a6.3 6.3 0 0 1 2.32 1.6c.64.69 1.13 1.53 1.46 2.52.34.99.51 2.09.51 3.32v2.07h-13.33v-3.18h8.37v-.39c.01-.54-.09-1-.29-1.39-.19-.38-.47-.67-.84-.87s-.82-.3-1.36-.3c-.55 0-1.01.12-1.37.36-.35.24-.63.57-.83 1-.19.41-.33.89-.41 1.43s-.12 1.12-.12 1.72v.57c0 .6.08 1.15.24 1.64.17.49.41.91.72 1.27a3.4 3.4 0 0 0 1.15.8c.45.19.97.29 1.54.29a5.6 5.6 0 0 0 2.05-.39 4.1 4.1 0 0 0 1.73-1.3l2.31 2.74a6 6 0 0 1-1.42 1.37c-.6.44-1.33.8-2.17 1.08-.84.27-1.79.41-2.84.41zm17.4-4.4v-6.72c0-.46-.07-.86-.2-1.19s-.34-.59-.62-.77c-.28-.19-.66-.29-1.13-.29-.38 0-.71.06-.98.2s-.48.33-.62.59-.21.59-.21 1h-5.08a4.5 4.5 0 0 1 .5-2.1 5.2 5.2 0 0 1 1.45-1.7 7 7 0 0 1 2.26-1.12c.88-.27 1.87-.41 2.95-.41a8.8 8.8 0 0 1 3.47.65c1.03.43 1.83 1.08 2.43 1.94.59.85.89 1.93.89 3.23v6.68c0 1.06.06 1.87.18 2.43a5.6 5.6 0 0 0 .51 1.43v.26h-5.1c-.24-.5-.42-1.12-.54-1.84a15.1 15.1 0 0 1-.17-2.26zm.62-5.87l.03 2.71h-2.25c-.47 0-.87.06-1.21.2-.32.13-.58.31-.78.54-.19.22-.33.47-.42.75a3.2 3.2 0 0 0-.12.89c0 .3.07.57.21.81.15.23.35.41.6.54a1.8 1.8 0 0 0 .84.2 3 3 0 0 0 1.43-.32c.4-.22.71-.49.92-.8s.32-.6.32-.87l1.12 2.08a13.9 13.9 0 0 1-.69 1.22 5.3 5.3 0 0 1-.95 1.15 4.5 4.5 0 0 1-1.37.84c-.54.21-1.2.32-1.97.32-1 0-1.93-.21-2.77-.62-.83-.41-1.5-.98-2-1.72-.5-.74-.75-1.6-.75-2.56a5.4 5.4 0 0 1 .45-2.26c.31-.66.78-1.23 1.4-1.69s1.42-.81 2.38-1.06 2.1-.36 3.41-.36h2.19zm12.44-2.31v12.27h-5.08V255.5h4.75l.33 4.04zm4.82-4.16l-.09 4.72-.81-.08-.86-.05a5 5 0 0 0-1.54.21 2.6 2.6 0 0 0-1.06.6c-.27.26-.47.59-.6 1a4.6 4.6 0 0 0-.17 1.4l-.92-.6c0-1.1.11-2.09.32-2.99.22-.9.53-1.68.93-2.34.4-.66.89-1.17 1.46-1.52.57-.36 1.22-.54 1.93-.54.25 0 .5.01.74.04.25.03.47.08.66.14zm9.77 12.33v-6.72c0-.46-.07-.86-.2-1.19s-.34-.59-.62-.77c-.28-.19-.66-.29-1.13-.29-.38 0-.71.06-.98.2s-.48.33-.62.59-.21.59-.21 1h-5.08a4.5 4.5 0 0 1 .5-2.1c.34-.65.82-1.22 1.45-1.7a7 7 0 0 1 2.26-1.12c.88-.27 1.87-.41 2.95-.41a8.8 8.8 0 0 1 3.47.65c1.02.43 1.83 1.08 2.43 1.94.59.85.89 1.93.89 3.23v6.68c0 1.06.06 1.87.18 2.43a5.6 5.6 0 0 0 .51 1.43v.26h-5.1a6.9 6.9 0 0 1-.54-1.84 15.2 15.2 0 0 1-.16-2.26zm.62-5.87l.03 2.71h-2.25a3.3 3.3 0 0 0-1.21.2c-.32.13-.58.31-.78.54-.19.22-.33.47-.42.75-.08.28-.12.58-.12.89 0 .3.07.57.21.81.15.23.35.41.6.54a1.8 1.8 0 0 0 .84.2c.56 0 1.04-.11 1.43-.32.4-.22.71-.49.92-.8s.32-.6.32-.87l1.12 2.08a13.9 13.9 0 0 1-.69 1.22c-.25.41-.57.79-.95 1.15a4.5 4.5 0 0 1-1.37.84c-.54.21-1.2.32-1.98.32-1 0-1.93-.21-2.77-.62-.83-.41-1.5-.98-2-1.72-.5-.74-.75-1.6-.75-2.56a5.4 5.4 0 0 1 .45-2.26 4.4 4.4 0 0 1 1.4-1.69c.62-.46 1.42-.81 2.38-1.06s2.1-.36 3.41-.36h2.19zm12.3-2.86v12.83h-5.08V255.5h4.76l.32 3.48zm-.6 4.12l-1.19.03c0-1.25.15-2.36.45-3.33.3-.99.73-1.82 1.28-2.5s1.21-1.2 1.98-1.55a6 6 0 0 1 2.58-.54c.75 0 1.44.11 2.06.33.63.22 1.18.58 1.63 1.07a4.8 4.8 0 0 1 1.06 1.96c.25.8.38 1.8.38 2.99v10.27h-5.11v-10.28c0-.65-.09-1.15-.27-1.49-.18-.35-.44-.59-.78-.72a3.5 3.5 0 0 0-1.25-.2 2.7 2.7 0 0 0-1.33.3c-.36.2-.65.48-.87.84a4 4 0 0 0-.47 1.25c-.09.48-.14 1.01-.14 1.58zm19.93 5.1a2.6 2.6 0 0 0 1.21-.26 1.8 1.8 0 0 0 .77-.75c.18-.33.27-.73.26-1.19h4.78a5.6 5.6 0 0 1-.9 3.23 6.1 6.1 0 0 1-2.47 2.14c-1.04.5-2.21.75-3.51.75a8.4 8.4 0 0 1-3.35-.62 6.7 6.7 0 0 1-2.4-1.75 7.7 7.7 0 0 1-1.43-2.64 11 11 0 0 1-.47-3.27v-.35a11 11 0 0 1 .47-3.27c.32-1.01.8-1.89 1.43-2.64a6.5 6.5 0 0 1 2.38-1.75c.95-.42 2.07-.63 3.33-.63 1.36 0 2.55.26 3.59.77a5.8 5.8 0 0 1 2.46 2.23 6.6 6.6 0 0 1 .88 3.54h-4.78c.01-.49-.07-.94-.23-1.33s-.41-.7-.75-.93c-.33-.24-.76-.36-1.28-.36s-.94.11-1.27.35-.57.55-.74.96a5.4 5.4 0 0 0-.33 1.39l-.08 1.67v.35l.08 1.7a5 5 0 0 0 .35 1.39 2.2 2.2 0 0 0 .74.94c.32.22.75.33 1.28.33zm17.08 3.92c-1.33 0-2.51-.21-3.56-.62-1.04-.42-1.93-1-2.65-1.73a7.7 7.7 0 0 1-1.64-2.53c-.37-.95-.56-1.96-.56-3.03v-.57c0-1.2.17-2.3.5-3.32.33-1.02.82-1.92 1.48-2.68a6.6 6.6 0 0 1 2.46-1.78 8.5 8.5 0 0 1 3.44-.65 8.2 8.2 0 0 1 3.11.56 6.3 6.3 0 0 1 2.32 1.6c.64.69 1.13 1.53 1.46 2.52.34.99.51 2.09.51 3.32v2.07h-13.33v-3.18h8.37v-.39c.01-.54-.09-1-.29-1.39-.19-.38-.47-.67-.84-.87s-.82-.3-1.36-.3c-.55 0-1.01.12-1.37.36-.35.24-.63.57-.83 1-.19.41-.33.89-.41 1.43s-.12 1.12-.12 1.72v.57c0 .6.08 1.15.24 1.64.17.49.41.91.72 1.27a3.4 3.4 0 0 0 1.15.8c.45.19.96.29 1.54.29a5.6 5.6 0 0 0 2.05-.39 4.1 4.1 0 0 0 1.73-1.3l2.31 2.74a6 6 0 0 1-1.42 1.37 7.8 7.8 0 0 1-2.17 1.08c-.84.27-1.79.41-2.83.41zM142.41 299.6v42.21h-10.18V299.6h10.18zm12.7 0v7.86h-35.28v-7.86h35.28zm13.42-2.32v44.53h-9.77v-44.53h9.77zm-1.16 27.77l-2.29.06c0-2.2.27-4.23.81-6.09s1.31-3.47 2.32-4.84 2.21-2.44 3.62-3.19a9.8 9.8 0 0 1 4.7-1.13 12.8 12.8 0 0 1 4.23.67c1.29.45 2.41 1.16 3.33 2.15a9.7 9.7 0 0 1 2.17 3.86 18.7 18.7 0 0 1 .78 5.8v19.48h-9.83v-19.54c0-1.28-.18-2.26-.55-2.96-.35-.71-.85-1.21-1.51-1.48-.66-.29-1.46-.44-2.41-.44-1.14 0-2.07.19-2.78.58s-1.27.93-1.65 1.62c-.37.68-.62 1.48-.75 2.41a21.2 21.2 0 0 0-.2 3.04zm40.3 17.34c-2.55 0-4.83-.4-6.84-1.19a14.9 14.9 0 0 1-5.1-3.33 14.8 14.8 0 0 1-3.16-4.87 15.9 15.9 0 0 1-1.07-5.83v-1.1c0-2.3.32-4.43.96-6.38a14.9 14.9 0 0 1 2.84-5.16 12.7 12.7 0 0 1 4.73-3.42c1.89-.83 4.1-1.25 6.61-1.25 2.22 0 4.21.36 5.97 1.07s3.25 1.74 4.47 3.07a13.2 13.2 0 0 1 2.81 4.84c.66 1.89.99 4.02.99 6.38v3.97h-25.63v-6.12h16.09v-.75c.02-1.04-.16-1.93-.55-2.67a3.8 3.8 0 0 0-1.62-1.68c-.71-.39-1.58-.58-2.61-.58-1.06 0-1.94.23-2.64.7-.68.46-1.21 1.1-1.59 1.91-.37.79-.63 1.71-.78 2.75s-.23 2.15-.23 3.31v1.1c0 1.16.16 2.21.46 3.16.33.95.79 1.76 1.39 2.44.62.66 1.35 1.17 2.2 1.54.87.37 1.86.55 2.96.55 1.33 0 2.65-.25 3.94-.75s2.41-1.33 3.33-2.49l4.44 5.28a11.5 11.5 0 0 1-2.72 2.64c-1.16.85-2.55 1.55-4.18 2.09a17.8 17.8 0 0 1-5.45.78zm-49.98 47.47v1.71c0 3.23-.45 6.13-1.36 8.7a18.9 18.9 0 0 1-3.8 6.55c-1.64 1.8-3.59 3.18-5.83 4.15a18.9 18.9 0 0 1-7.42 1.42c-2.73 0-5.22-.47-7.48-1.42-2.24-.97-4.19-2.35-5.86-4.15-1.64-1.82-2.92-4-3.83-6.55-.89-2.57-1.33-5.47-1.33-8.7v-1.71c0-3.23.45-6.13 1.33-8.7.91-2.57 2.17-4.75 3.8-6.55 1.64-1.82 3.59-3.2 5.83-4.15 2.26-.97 4.75-1.45 7.48-1.45 2.71 0 5.18.48 7.42 1.45a16.3 16.3 0 0 1 5.86 4.15 18.9 18.9 0 0 1 3.83 6.55c.91 2.57 1.36 5.47 1.36 8.7zm-10.32 1.71v-1.77a24.6 24.6 0 0 0-.55-5.51c-.35-1.6-.87-2.95-1.57-4.03s-1.55-1.89-2.58-2.44c-1-.56-2.16-.84-3.45-.84-1.35 0-2.53.28-3.54.84-1.01.54-1.85 1.35-2.52 2.44a12.6 12.6 0 0 0-1.54 4.03 27.4 27.4 0 0 0-.49 5.51v1.77c0 2.07.17 3.9.49 5.51.35 1.59.86 2.93 1.54 4.03.7 1.1 1.55 1.93 2.55 2.49a7.3 7.3 0 0 0 3.57.84c1.29 0 2.44-.28 3.45-.84s1.85-1.39 2.52-2.49c.7-1.1 1.22-2.44 1.57-4.03.37-1.6.55-3.44.55-5.51zm27.11 20.24h-9.83v-33.92c0-2.44.49-4.48 1.48-6.15a9.4 9.4 0 0 1 4.17-3.77 14.5 14.5 0 0 1 6.38-1.3c.85 0 1.65.06 2.41.17l2.2.44.03 7.19c-.35-.1-.7-.16-1.07-.2s-.82-.06-1.36-.06c-.95 0-1.75.15-2.41.44a3.1 3.1 0 0 0-1.51 1.25c-.33.54-.49 1.21-.49 2v33.92zm6.09-31.37v6.79h-20.44v-6.79h20.44zm15.48 31.37h-9.83v-33.92c0-2.44.49-4.48 1.48-6.15a9.4 9.4 0 0 1 4.17-3.77 14.5 14.5 0 0 1 6.38-1.3c.85 0 1.65.06 2.41.17l2.2.44.03 7.19a6.7 6.7 0 0 0-1.07-.2c-.37-.04-.82-.06-1.36-.06-.95 0-1.75.15-2.41.44a3.1 3.1 0 0 0-1.51 1.25c-.33.54-.49 1.21-.49 2v33.92zm6.09-31.37v6.79h-20.44v-6.79h20.44zm18 31.95c-2.55 0-4.83-.4-6.84-1.19a14.9 14.9 0 0 1-5.1-3.33 14.8 14.8 0 0 1-3.16-4.87 15.9 15.9 0 0 1-1.07-5.83v-1.1c0-2.3.32-4.43.96-6.38a14.9 14.9 0 0 1 2.84-5.16 12.7 12.7 0 0 1 4.72-3.42c1.89-.83 4.1-1.25 6.61-1.25 2.22 0 4.21.36 5.97 1.07s3.25 1.74 4.46 3.07a13.2 13.2 0 0 1 2.81 4.84c.66 1.89.99 4.02.99 6.38v3.97H207.7v-6.12h16.09v-.75c.02-1.04-.16-1.93-.55-2.67a3.8 3.8 0 0 0-1.62-1.68c-.72-.39-1.59-.58-2.61-.58-1.06 0-1.94.23-2.64.7-.68.46-1.21 1.1-1.59 1.91-.37.79-.63 1.71-.78 2.75a22.5 22.5 0 0 0-.23 3.31v1.1c0 1.16.15 2.21.46 3.16.33.95.79 1.76 1.39 2.44a6.6 6.6 0 0 0 2.2 1.54c.87.37 1.85.55 2.96.55 1.33 0 2.65-.25 3.94-.75a7.9 7.9 0 0 0 3.33-2.49l4.44 5.28c-.64.91-1.55 1.79-2.73 2.64-1.16.85-2.55 1.55-4.17 2.09a17.8 17.8 0 0 1-5.45.78zm27.02-24.18v23.6h-9.77v-31.37h9.13l.64 7.77zm9.28-8l-.17 9.07-1.57-.14-1.65-.09c-1.14 0-2.13.14-2.96.41a5 5 0 0 0-2.03 1.16c-.52.5-.91 1.14-1.16 1.91-.23.77-.34 1.67-.32 2.7l-1.77-1.16c0-2.11.2-4.02.61-5.74a15.6 15.6 0 0 1 1.8-4.49c.77-1.28 1.71-2.25 2.81-2.93a6.8 6.8 0 0 1 3.71-1.04c.48 0 .96.03 1.42.09.48.06.91.14 1.28.26zm53.87-10.61v42.21h-10.15l-14.93-26.27v26.27h-10.18V369.6h10.18l14.93 26.27V369.6h10.15zm4.75 26.85v-.61a19.6 19.6 0 0 1 .99-6.35c.66-1.95 1.62-3.64 2.9-5.07s2.85-2.54 4.73-3.33c1.88-.81 4.04-1.22 6.49-1.22 2.47 0 4.65.41 6.52 1.22 1.89.79 3.48 1.9 4.75 3.33s2.24 3.12 2.9 5.07a19.6 19.6 0 0 1 .99 6.35v.61c0 2.28-.33 4.4-.99 6.35a14.8 14.8 0 0 1-2.9 5.07c-1.27 1.43-2.85 2.54-4.73 3.33s-4.04 1.19-6.5 1.19a16.8 16.8 0 0 1-6.52-1.19c-1.89-.79-3.48-1.9-4.75-3.33a14.8 14.8 0 0 1-2.9-5.07c-.66-1.95-.99-4.07-.99-6.35zm9.77-.61v.61c0 1.18.09 2.28.26 3.31a9 9 0 0 0 .87 2.7c.41.75.96 1.34 1.65 1.77s1.57.64 2.61.64c1.03 0 1.88-.21 2.55-.64.7-.43 1.25-1.01 1.65-1.77a9 9 0 0 0 .87-2.7c.17-1.02.26-2.13.26-3.31v-.61c0-1.14-.09-2.21-.26-3.22a9 9 0 0 0-.87-2.7c-.41-.79-.96-1.41-1.65-1.86s-1.57-.67-2.61-.67a4.7 4.7 0 0 0-2.58.67c-.68.44-1.22 1.06-1.62 1.86a9 9 0 0 0-.87 2.7c-.17 1-.26 2.08-.26 3.22zm43.92-6v7.57h-17.42v-7.57h17.42zM392.84 403c0-.54-.18-1-.55-1.39a4.5 4.5 0 0 0-1.86-1.1c-.89-.35-2.14-.7-3.74-1.04a26.7 26.7 0 0 1-4.32-1.31 14.9 14.9 0 0 1-3.51-1.97 8.7 8.7 0 0 1-2.38-2.75c-.56-1.06-.84-2.28-.84-3.65 0-1.33.28-2.59.84-3.77.58-1.2 1.42-2.25 2.52-3.16a12.3 12.3 0 0 1 4.09-2.18 17.1 17.1 0 0 1 5.48-.81c2.82 0 5.26.44 7.31 1.3 2.05.85 3.62 2.05 4.73 3.59 1.12 1.53 1.68 3.3 1.68 5.31h-9.77c0-.79-.14-1.47-.41-2.03-.25-.56-.67-.99-1.25-1.27-.58-.31-1.35-.46-2.32-.46-.68 0-1.3.13-1.86.38-.54.25-.98.6-1.3 1.04s-.49.97-.49 1.57c0 .43.1.81.29 1.16.21.33.53.64.96.93.43.27.97.52 1.62.75a19.5 19.5 0 0 0 2.38.58 32.4 32.4 0 0 1 5.91 1.65c1.84.72 3.32 1.73 4.46 3.05 1.16 1.31 1.74 3.08 1.74 5.31 0 1.39-.32 2.68-.96 3.86a9.6 9.6 0 0 1-2.75 3.07c-1.2.87-2.64 1.55-4.32 2.03s-3.58.72-5.68.72c-3 0-5.53-.53-7.6-1.59-2.07-1.08-3.63-2.44-4.7-4.06-1.04-1.64-1.56-3.3-1.56-4.99h9.1c.04.97.27 1.76.7 2.38a3.9 3.9 0 0 0 1.77 1.36 6.9 6.9 0 0 0 2.55.44c.89 0 1.62-.12 2.2-.38.6-.25 1.05-.59 1.36-1.01.31-.44.46-.96.46-1.54zm23.57-35.72v44.53h-9.77v-44.53h9.77zm-1.16 27.77l-2.29.06c0-2.2.27-4.23.81-6.09s1.31-3.47 2.32-4.84 2.21-2.44 3.62-3.19a9.8 9.8 0 0 1 4.7-1.13 12.8 12.8 0 0 1 4.23.67c1.3.45 2.41 1.16 3.33 2.15a9.7 9.7 0 0 1 2.18 3.86 18.7 18.7 0 0 1 .78 5.8v19.48h-9.83v-19.54c0-1.28-.18-2.26-.55-2.96-.35-.71-.85-1.21-1.51-1.48-.66-.29-1.46-.44-2.41-.44-1.14 0-2.07.19-2.78.58s-1.27.93-1.65 1.62c-.37.68-.62 1.48-.75 2.41a21.2 21.2 0 0 0-.2 3.04zm23.89 1.39v-.61a19.6 19.6 0 0 1 .99-6.35c.66-1.95 1.62-3.64 2.9-5.07s2.85-2.54 4.73-3.33c1.88-.81 4.04-1.22 6.49-1.22a16.3 16.3 0 0 1 6.52 1.22 13 13 0 0 1 4.75 3.33c1.28 1.43 2.24 3.12 2.9 5.07a19.6 19.6 0 0 1 .99 6.35v.61a19.8 19.8 0 0 1-.99 6.35 14.8 14.8 0 0 1-2.9 5.07c-1.28 1.43-2.85 2.54-4.73 3.33s-4.04 1.19-6.49 1.19a16.8 16.8 0 0 1-6.52-1.19 13 13 0 0 1-4.75-3.33 14.8 14.8 0 0 1-2.9-5.07 19.8 19.8 0 0 1-.99-6.35zm9.77-.61v.61c0 1.18.09 2.28.26 3.31a9 9 0 0 0 .87 2.7c.41.75.96 1.34 1.65 1.77s1.56.64 2.61.64a4.7 4.7 0 0 0 2.55-.64c.7-.43 1.25-1.01 1.65-1.77a9 9 0 0 0 .87-2.7c.17-1.02.26-2.13.26-3.31v-.61c0-1.14-.09-2.21-.26-3.22a9 9 0 0 0-.87-2.7c-.41-.79-.96-1.41-1.65-1.86s-1.56-.67-2.61-.67a4.7 4.7 0 0 0-2.58.67c-.68.44-1.22 1.06-1.62 1.86a9 9 0 0 0-.87 2.7c-.17 1-.26 2.08-.26 3.22zm34.38 6.64l5.8-22.03h6.12l-2.17 11.05-5.74 20.32h-4.9l.9-9.34zM481 380.44l3.6 21.86.41 9.51h-5.94l-7.42-31.37H481zm19.37 21.4l3.62-21.4h9.36l-7.36 31.37h-5.94l.32-9.97zm-4.46-21.4l5.86 21.98.9 9.39h-4.96l-5.62-20.26-2.09-11.1h5.91zM127.01 439.6h8.29l9.42 29.37 9.42-29.37h8.29l-14.35 42.21h-6.73l-14.35-42.21zm-5.05 0h8.58l1.59 32.35v9.86h-10.18V439.6zm36.94 0h8.61v42.21h-10.21v-9.86l1.59-32.35zm24.3 38.53l8.12-27.69h10.5l-12.61 36.04a22 22 0 0 1-1.07 2.55 10.6 10.6 0 0 1-1.83 2.64 8.7 8.7 0 0 1-2.99 2.03 11.2 11.2 0 0 1-4.47.78c-.95 0-1.64-.05-2.09-.15l-1.97-.44v-6.99h.64.64a7.9 7.9 0 0 0 2.49-.32c.64-.21 1.12-.52 1.45-.93.35-.41.62-.9.81-1.48l2.38-6.06zm-2.06-27.69l6.18 21.95 1.07 10.35h-6.55l-11.16-32.3h10.47zM220.8 473c0-.54-.18-1-.55-1.39a4.5 4.5 0 0 0-1.86-1.1 25.7 25.7 0 0 0-3.74-1.04c-1.53-.33-2.97-.76-4.32-1.31a14.9 14.9 0 0 1-3.51-1.97c-1-.77-1.8-1.69-2.38-2.75-.56-1.06-.84-2.28-.84-3.65 0-1.33.28-2.59.84-3.77.58-1.2 1.42-2.25 2.52-3.16a12.3 12.3 0 0 1 4.09-2.18 17.1 17.1 0 0 1 5.48-.81c2.82 0 5.26.44 7.31 1.3 2.05.85 3.62 2.05 4.73 3.59 1.12 1.53 1.68 3.3 1.68 5.31h-9.77c0-.79-.13-1.47-.41-2.03-.25-.56-.67-.99-1.25-1.27-.58-.31-1.35-.46-2.32-.46-.68 0-1.29.13-1.85.38-.54.25-.98.6-1.31 1.04s-.49.97-.49 1.57c0 .43.1.81.29 1.16a3.4 3.4 0 0 0 .96.93 8 8 0 0 0 1.62.75c.66.21 1.45.41 2.38.58a32.4 32.4 0 0 1 5.91 1.65c1.84.72 3.32 1.73 4.47 3.05 1.16 1.31 1.74 3.08 1.74 5.31 0 1.39-.32 2.68-.96 3.86a9.6 9.6 0 0 1-2.75 3.07c-1.2.87-2.64 1.55-4.32 2.03s-3.58.72-5.68.72c-3 0-5.53-.53-7.6-1.59-2.07-1.08-3.63-2.44-4.7-4.06a9.2 9.2 0 0 1-1.57-4.99h9.1c.04.97.27 1.76.7 2.38a3.9 3.9 0 0 0 1.77 1.36 6.9 6.9 0 0 0 2.55.44c.89 0 1.62-.12 2.2-.38.6-.25 1.05-.59 1.36-1.01.31-.44.46-.96.46-1.54zm30.53-22.56v6.79h-18.9v-6.79h18.9zm-14.93-7.8h9.77v28.93a5.2 5.2 0 0 0 .29 1.94c.19.44.52.76.99.96.48.17 1.12.26 1.91.26l1.39-.03 1.04-.14v6.99a16.1 16.1 0 0 1-2.61.61c-.91.15-1.87.23-2.9.23-2.09 0-3.87-.33-5.36-.99a7 7 0 0 1-3.36-3.1c-.77-1.41-1.16-3.25-1.16-5.51v-30.15zm34.01 39.75c-2.55 0-4.83-.4-6.84-1.19a14.9 14.9 0 0 1-5.1-3.33 14.8 14.8 0 0 1-3.16-4.87 15.9 15.9 0 0 1-1.07-5.83v-1.1c0-2.3.32-4.43.96-6.38a14.9 14.9 0 0 1 2.84-5.16 12.7 12.7 0 0 1 4.73-3.42c1.89-.83 4.1-1.25 6.61-1.25 2.22 0 4.21.36 5.97 1.07s3.25 1.74 4.46 3.07a13.2 13.2 0 0 1 2.81 4.84c.66 1.89.99 4.02.99 6.38v3.97h-25.63v-6.12h16.09v-.75c.02-1.04-.17-1.93-.55-2.67a3.8 3.8 0 0 0-1.62-1.68c-.72-.39-1.59-.58-2.61-.58-1.06 0-1.94.23-2.64.7-.68.46-1.21 1.1-1.6 1.91-.37.79-.63 1.71-.78 2.75s-.23 2.15-.23 3.31v1.1c0 1.16.16 2.21.46 3.16.33.95.79 1.76 1.39 2.44.62.66 1.35 1.17 2.2 1.54.87.37 1.86.55 2.96.55 1.33 0 2.65-.25 3.94-.75s2.41-1.33 3.33-2.49l4.44 5.28a11.5 11.5 0 0 1-2.72 2.64c-1.16.85-2.55 1.55-4.18 2.09a17.8 17.8 0 0 1-5.45.78zm27.02-24.18v23.6h-9.77v-31.37h9.13l.64 7.77zm9.28-8l-.17 9.07-1.56-.14-1.65-.09c-1.14 0-2.13.14-2.96.41a5 5 0 0 0-2.03 1.16c-.52.5-.91 1.14-1.16 1.91-.23.77-.34 1.67-.32 2.7l-1.77-1.16c0-2.11.2-4.02.61-5.74.43-1.74 1.03-3.24 1.8-4.49.77-1.28 1.71-2.25 2.81-2.93a6.8 6.8 0 0 1 3.71-1.04c.48 0 .96.03 1.42.09.48.06.91.14 1.27.26zm13.51 27.92l8.12-27.69h10.5l-12.61 36.04a22.2 22.2 0 0 1-1.07 2.55 10.6 10.6 0 0 1-1.83 2.64c-.77.83-1.77 1.51-2.99 2.03a11.2 11.2 0 0 1-4.46.78c-.95 0-1.64-.05-2.09-.15l-1.97-.44v-6.99h.64.64a7.9 7.9 0 0 0 2.49-.32c.64-.21 1.12-.52 1.45-.93.35-.41.62-.9.81-1.48l2.38-6.06zm-2.06-27.69l6.18 21.95 1.07 10.35h-6.55l-11.16-32.3h10.47z" fill="#5b5b5b"/><g filter="url(#G)"><path d="M323 71.25a11.9 11.9 0 0 0-11.87-11.87H0v89.06h311.13A11.9 11.9 0 0 0 323 136.56V71.25z" fill="#3886e7"/><path d="M44.04 90.8v25.33h-6.09V90.8h6.09zm9.78 10.52v14.8h-5.86V97.3h5.5l.37 4.02zm-.7 4.75l-1.37.03a13 13 0 0 1 .52-3.84 8.5 8.5 0 0 1 1.48-2.89 6.3 6.3 0 0 1 2.28-1.79c.89-.42 1.88-.63 2.97-.63a7.1 7.1 0 0 1 2.38.38c.73.26 1.36.67 1.88 1.24.53.57.94 1.32 1.22 2.26a11.7 11.7 0 0 1 .43 3.44v11.85h-5.9v-11.86c0-.75-.1-1.33-.31-1.72-.21-.41-.51-.68-.9-.83s-.88-.23-1.44-.23a3.1 3.1 0 0 0-1.53.35 2.7 2.7 0 0 0-1.01.97c-.24.41-.42.89-.54 1.44-.1.56-.16 1.17-.16 1.83zm24.96-8.77v4.07H66.74V97.3h11.34zm-8.96-4.68h5.86v17.36c0 .5.06.89.17 1.17.12.27.31.46.59.57.29.1.67.16 1.15.16l.83-.02.63-.09v4.19c-.5.16-1.02.28-1.57.37-.55.09-1.12.14-1.74.14-1.25 0-2.33-.2-3.22-.59a4.2 4.2 0 0 1-2.02-1.86c-.46-.85-.7-1.95-.7-3.3V92.62zm17.2 9.34v14.16h-5.86V97.3h5.48l.38 4.66zm5.57-4.8l-.1 5.44-.94-.09-.99-.05c-.68 0-1.28.08-1.77.24a3 3 0 0 0-1.22.7c-.31.3-.55.68-.7 1.15a5.3 5.3 0 0 0-.19 1.62l-1.06-.7a15 15 0 0 1 .37-3.44c.26-1.04.61-1.94 1.08-2.7.46-.77 1.03-1.35 1.69-1.76a4.1 4.1 0 0 1 2.23-.63c.29 0 .57.02.85.05.29.03.55.09.77.16zm.66 9.74v-.37c0-1.38.2-2.65.59-3.81.39-1.17.97-2.19 1.74-3.04a7.8 7.8 0 0 1 2.84-2c1.12-.49 2.42-.73 3.9-.73 1.48 0 2.79.24 3.91.73a7.8 7.8 0 0 1 2.85 2c.77.86 1.35 1.87 1.74 3.04.39 1.16.59 2.43.59 3.81v.37c0 1.37-.2 2.64-.59 3.81-.39 1.16-.97 2.17-1.74 3.04a7.8 7.8 0 0 1-2.84 2c-1.12.47-2.42.71-3.9.71s-2.78-.24-3.91-.71a7.8 7.8 0 0 1-2.85-2c-.77-.87-1.35-1.88-1.74-3.04-.39-1.17-.59-2.44-.59-3.81zm5.86-.37v.37c0 .71.05 1.37.16 1.98a5.4 5.4 0 0 0 .52 1.62c.24.45.57.81.99 1.06s.94.38 1.57.38c.61 0 1.13-.13 1.53-.38.42-.26.75-.61.99-1.06.24-.46.42-1 .52-1.62a11.9 11.9 0 0 0 .16-1.98v-.37c0-.68-.05-1.33-.16-1.93-.1-.61-.28-1.15-.52-1.62a2.8 2.8 0 0 0-.99-1.11c-.42-.27-.94-.4-1.56-.4-.61 0-1.13.13-1.55.4-.41.27-.73.64-.97 1.11a5.4 5.4 0 0 0-.52 1.62c-.1.6-.16 1.25-.16 1.93zm25.73 5.27v-22.4h5.9v26.72h-5.29l-.61-4.31zm-11.55-4.87v-.36a15.1 15.1 0 0 1 .47-3.9 9.1 9.1 0 0 1 1.39-3.04 6.3 6.3 0 0 1 2.3-1.98 6.9 6.9 0 0 1 3.17-.7 5.2 5.2 0 0 1 2.8.75 6.4 6.4 0 0 1 2.05 2.05c.57.88 1.03 1.91 1.39 3.1a24 24 0 0 1 .82 3.79v.44c-.19 1.28-.46 2.48-.82 3.62-.36 1.13-.82 2.12-1.39 2.99a6.6 6.6 0 0 1-2.07 2.05 5.3 5.3 0 0 1-2.82.73c-1.19 0-2.25-.24-3.16-.71a6.5 6.5 0 0 1-2.28-2c-.6-.86-1.06-1.87-1.37-3.03s-.47-2.42-.47-3.79zm5.86-.36v.36c0 .71.05 1.36.14 1.97s.25 1.14.47 1.6c.23.45.53.81.9 1.06.38.25.85.38 1.41.38.75 0 1.38-.18 1.86-.54.5-.36.86-.87 1.1-1.53.24-.66.35-1.44.31-2.33v-1.37a8.3 8.3 0 0 0-.16-2.02c-.13-.59-.33-1.08-.61-1.48a2.5 2.5 0 0 0-1.03-.89c-.41-.21-.89-.31-1.44-.31-.55 0-1.01.13-1.39.38-.37.25-.67.61-.91 1.08a5.5 5.5 0 0 0-.5 1.62c-.11.61-.16 1.29-.16 2.02zm25.9 4.97V97.3h5.88v18.82h-5.5l-.38-4.58zm.56-3.83l1.53-.03a13 13 0 0 1-.45 3.51 8.4 8.4 0 0 1-1.34 2.78 6.1 6.1 0 0 1-2.16 1.84 6.4 6.4 0 0 1-2.94.64c-.93 0-1.78-.13-2.56-.38-.76-.27-1.43-.68-1.98-1.23-.56-.57-.99-1.29-1.3-2.17-.3-.89-.45-1.96-.45-3.2V97.3h5.86v12.21a3.3 3.3 0 0 0 .16 1.08 2.1 2.1 0 0 0 .45.77c.2.2.44.35.73.45.3.09.64.14 1.03.14a3.4 3.4 0 0 0 2.07-.56 2.9 2.9 0 0 0 1.04-1.51 6.9 6.9 0 0 0 .31-2.16zm16.51 4.23a3 3 0 0 0 1.39-.3c.39-.21.69-.5.89-.87a2.7 2.7 0 0 0 .29-1.37h5.51c.01 1.41-.34 2.66-1.04 3.72-.7 1.06-1.65 1.88-2.85 2.47-1.19.58-2.54.87-4.05.87a9.7 9.7 0 0 1-3.86-.71c-1.1-.49-2.02-1.16-2.77-2.02a8.9 8.9 0 0 1-1.65-3.04c-.36-1.16-.54-2.42-.54-3.77v-.4c0-1.36.18-2.61.54-3.77a8.7 8.7 0 0 1 1.65-3.04 7.5 7.5 0 0 1 2.75-2.02c1.1-.49 2.38-.73 3.84-.73a9.2 9.2 0 0 1 4.14.89 6.7 6.7 0 0 1 2.84 2.57 7.6 7.6 0 0 1 1.01 4.09H164c.01-.57-.07-1.08-.26-1.53s-.47-.81-.87-1.08c-.38-.28-.88-.42-1.48-.42s-1.09.13-1.46.4-.66.64-.85 1.11c-.19.46-.31 1-.38 1.6l-.09 1.93v.4l.09 1.97c.07.6.2 1.14.4 1.6.2.45.48.81.85 1.08.37.25.86.38 1.48.38zm20.51-14.65v4.07h-11.34V97.3h11.34zm-8.96-4.68h5.86v17.36c0 .5.06.89.17 1.17.12.27.31.46.59.57.29.1.67.16 1.15.16l.83-.02.63-.09v4.19c-.5.16-1.02.28-1.57.37-.54.09-1.12.14-1.74.14-1.25 0-2.32-.2-3.22-.59a4.2 4.2 0 0 1-2.02-1.86c-.46-.85-.7-1.95-.7-3.3V92.62zm17.48 4.68v18.82h-5.88V97.3h5.88zm-6.23-4.85c0-.84.3-1.52.9-2.05s1.39-.8 2.35-.8 1.75.27 2.35.8.9 1.22.9 2.05-.3 1.52-.9 2.05-1.39.8-2.35.8-1.75-.27-2.35-.8-.9-1.22-.9-2.05zm9.12 14.46v-.37c0-1.38.2-2.65.59-3.81.39-1.17.97-2.19 1.74-3.04a7.8 7.8 0 0 1 2.84-2c1.13-.49 2.42-.73 3.9-.73 1.49 0 2.79.24 3.91.73 1.14.48 2.09 1.14 2.85 2a8.7 8.7 0 0 1 1.74 3.04c.39 1.16.59 2.43.59 3.81v.37c0 1.37-.2 2.64-.59 3.81a8.9 8.9 0 0 1-1.74 3.04 7.8 7.8 0 0 1-2.84 2c-1.12.47-2.42.71-3.9.71s-2.78-.24-3.91-.71a7.8 7.8 0 0 1-2.85-2c-.77-.87-1.35-1.88-1.74-3.04-.39-1.17-.59-2.44-.59-3.81zm5.86-.37v.37a11.9 11.9 0 0 0 .16 1.98c.1.61.28 1.15.52 1.62.24.45.57.81.99 1.06s.94.38 1.57.38c.61 0 1.13-.13 1.53-.38.42-.26.75-.61.99-1.06a5.4 5.4 0 0 0 .52-1.62 11.8 11.8 0 0 0 .16-1.98v-.37c0-.68-.05-1.33-.16-1.93a5.4 5.4 0 0 0-.52-1.62c-.24-.48-.58-.85-.99-1.11s-.94-.4-1.57-.4c-.61 0-1.13.13-1.55.4-.41.27-.73.64-.97 1.11-.24.46-.42 1-.52 1.62-.1.6-.16 1.25-.16 1.93zm20.66-5.22v14.8h-5.86V97.3h5.5l.36 4.02zm-.7 4.75l-1.37.03a13 13 0 0 1 .52-3.84 8.5 8.5 0 0 1 1.48-2.89 6.3 6.3 0 0 1 2.28-1.79c.89-.42 1.89-.63 2.97-.63a7.1 7.1 0 0 1 2.38.38c.73.26 1.36.67 1.88 1.24.53.57.94 1.32 1.22 2.26a11.7 11.7 0 0 1 .44 3.44v11.85h-5.9v-11.86c0-.75-.1-1.33-.31-1.72-.21-.41-.51-.68-.9-.83s-.88-.23-1.44-.23a3.1 3.1 0 0 0-1.53.35 2.7 2.7 0 0 0-1.01.97c-.24.41-.42.89-.54 1.44a9.9 9.9 0 0 0-.16 1.83z" class="B"/></g><g clip-path="url(#X)"><g class="F"><path d="M797.7 410.16l-5.87-.07-10.71-4.71.35-.79 10.53 4.63 5.7.07v.87z"/><path d="M807.34 409.82c0 1.02-.84 1.85-1.88 1.82l-9.02-.12a1.9 1.9 0 0 1-1.88-1.88c0-1.03.84-1.85 1.88-1.83l9.02.12a1.9 1.9 0 0 1 1.88 1.88v.02z"/></g><path d="M787.38 421.91l-7.37-.08v-18.49l9.92.15v15.95a2.5 2.5 0 0 1-2.54 2.48v-.01z" fill="#404360"/><path d="M806.33 376.66v-14.94c0-9.11 3.78-17.17 2.63-42.65l-2.18-40.85c-.25-4.06-3.66-7.36-7.79-7.55l-63.7-2.79a7.4 7.4 0 0 0-7.79 7.92l2.12 40.63c1.15 25.92-2.63 34.12-2.63 43.39v15.19l79.33 1.63h.01z" fill="#64667a"/><path d="M814.7 376.82v-14.91c0-9.1 3.78-17.14 2.63-42.57l-2.18-40.78c-.25-4.05-3.66-7.35-7.79-7.53l-63.7-2.79a7.4 7.4 0 0 0-7.79 7.91l2.12 40.56c1.15 25.87-2.63 34.06-2.63 43.31v15.17l79.33 1.63.01-.01z" fill="#7a7d91"/><path d="M731.82 385.82l74.42 1.35v-10.52L727 375.04v5.88c0 2.67 2.16 4.87 4.83 4.92l-.01-.01z" class="G"/><path d="M740.17 385.97l69.6 1.27c2.67.05 4.83-2.03 4.83-4.64v-5.77l-79.24-1.62v5.87c0 2.66 2.16 4.86 4.83 4.91l-.01-.01z" class="F"/><path d="M744.97 397.05l43.3.69c5.45.09 9.88-4.2 9.88-9.58v-1.14l-63.05-1.15v1.16c0 5.45 4.42 9.93 9.88 10.02z" fill="#404360"/><g class="G"><path d="M795.52 403.56l-15.9-.24a5.9 5.9 0 0 1-5.81-5.83l27.51.43c0 3.15-2.6 5.67-5.81 5.62h0z"/><path d="M754.98 397.2l43.3.69a9.6 9.6 0 0 0 9.88-9.55v-1.14l-63.06-1.15v1.15c0 5.44 4.42 9.91 9.88 10z"/></g><path d="M785.5 403.42l-15.9-.24a5.9 5.9 0 0 1-5.81-5.84l27.51.43c0 3.16-2.6 5.68-5.81 5.64z" class="F"/><path d="M784.97 421.88l-7.38-.08c-1.4-.01-2.54-1.15-2.54-2.54v-16l9.92.15v18.47z" class="G"/><g class="F"><path d="M786.51 444.33l-8.4-.05v-22.46l8.4.09v22.42z"/><path d="M835.99 464.35c0 2.85-2.29 5.15-5.12 5.15s-5.12-2.32-5.12-5.16c0-2.18 1.33-4.02 3.23-4.79v-6.91l-38.44-4.39 14.84 6.67.87 1.61v2.92a5.2 5.2 0 0 1 3.4 4.87c0 2.87-2.28 5.18-5.12 5.18s-5.12-2.33-5.12-5.19c0-2.12 1.25-3.94 3.05-4.73v-2l-20.61-10.47-20.61 10.36v2.02c1.79.81 3.05 2.65 3.05 4.78 0 2.88-2.3 5.23-5.12 5.23s-5.12-2.35-5.12-5.24a5.2 5.2 0 0 1 3.4-4.92v-2.94l.87-1.63 14.84-6.59-38.44 4.11v7.06a5.3 5.3 0 0 1 3.23 4.9 5.2 5.2 0 0 1-5.12 5.26 5.2 5.2 0 0 1-5.12-5.28c0-2.23 1.33-4.11 3.23-4.9v-8.66l1.54-1.91 49.38-6.24 49.38 6.68 1.54 1.88v8.47a5.2 5.2 0 0 1 3.23 4.79l-.04.01z"/></g><use href="#Y" stroke="#2a2e44" class="D E L"/><path d="M846.89 398.66l-92.72-1.46c-5.01-.08-9.07-4.19-9.07-9.18v-6.93a8.8 8.8 0 0 1 9.07-8.84l92.72 1.96c5.01.11 9.07 4.14 9.07 9.01v6.76c0 4.87-4.06 8.75-9.07 8.67z" class="G"/><path d="M773.02 260.73c0-5.05.62-9.07 1.85-12.06s3.5-5.94 6.79-8.84 5.48-5.27 6.57-7.09c1.07-1.74 1.63-3.73 1.64-5.77 0-6.1-2.83-9.14-8.51-9.14-2.69 0-4.85.82-6.46 2.47-1.62 1.65-2.46 3.91-2.54 6.8h-15.81c.07-6.89 2.32-12.28 6.74-16.17 4.42-3.89 10.44-5.84 18.08-5.84 7.71 0 13.69 1.85 17.95 5.55s6.38 8.92 6.38 15.66a19 19 0 0 1-2.07 8.68c-1.39 2.72-3.8 5.74-7.26 9.06l-4.41 4.17c-2.76 2.64-4.34 5.72-4.74 9.25l-.22 3.3-13.98-.03zm-1.58 16.57c0-2.4.83-4.39 2.48-5.96s3.77-2.34 6.35-2.34 4.7.78 6.35 2.34c1.65 1.57 2.48 3.54 2.48 5.96a7.8 7.8 0 0 1-2.42 5.88c-1.61 1.54-3.75 2.31-6.4 2.31a8.9 8.9 0 0 1-6.4-2.31c-1.63-1.55-2.44-3.51-2.44-5.87z" class="C"/><path d="M778.61 285.93c-2.71 0-4.92-.8-6.58-2.39s-2.5-3.61-2.5-6.04a8.1 8.1 0 0 1 2.55-6.12c1.69-1.6 3.89-2.41 6.52-2.41s4.82.81 6.52 2.41a8.1 8.1 0 0 1 2.55 6.13c0 2.43-.84 4.45-2.5 6.04-1.66 1.59-3.87 2.39-6.58 2.39zm0-16.48c-2.51 0-4.59.77-6.19 2.28s-2.41 3.45-2.41 5.78c0 2.3.79 4.21 2.36 5.7s3.66 2.25 6.24 2.25 4.68-.76 6.24-2.25 2.36-3.41 2.36-5.7c0-2.32-.81-4.27-2.41-5.78-1.6-1.51-3.69-2.28-6.19-2.28zm6.93-8.27h-14.43v-.24c0-5.06.63-9.14 1.87-12.16 1.24-3.01 3.55-6.02 6.85-8.93 3.26-2.88 5.45-5.24 6.52-7.03a10.9 10.9 0 0 0 1.6-5.65c0-5.99-2.7-8.9-8.27-8.9-2.61 0-4.73.81-6.29 2.39-1.56 1.59-2.39 3.82-2.46 6.63v.23h-16.29v-.24c.07-6.93 2.37-12.43 6.82-16.35s10.58-5.9 18.23-5.9c7.73 0 13.83 1.89 18.1 5.6 4.27 3.72 6.46 9.05 6.46 15.84.01 3.05-.71 6.06-2.1 8.79-1.38 2.74-3.84 5.8-7.3 9.13l-4.42 4.17c-2.71 2.58-4.28 5.65-4.67 9.1l-.23 3.54zm-13.94-.48h13.49l.2-3.08c.4-3.59 2.02-6.75 4.82-9.41l4.42-4.17c3.42-3.28 5.84-6.3 7.21-8.99 1.35-2.66 2.05-5.6 2.04-8.57 0-6.64-2.11-11.85-6.3-15.48s-10.17-5.47-17.78-5.47c-7.54 0-13.56 1.94-17.92 5.79-4.29 3.78-6.53 9.08-6.65 15.75h15.34c.12-2.83.99-5.09 2.59-6.72 1.66-1.68 3.89-2.54 6.64-2.54 5.8 0 8.74 3.16 8.74 9.38-.01 2.07-.59 4.11-1.67 5.88-1.1 1.83-3.33 4.24-6.62 7.14-3.25 2.87-5.51 5.81-6.73 8.76-1.19 2.9-1.8 6.85-1.82 11.73z" class="B"/><path d="M727.84 336.45l17.35.51c5.15.15 9.33 4.35 9.33 9.37v40.93" stroke="#2a2e44" class="D E L"/><mask id="D" class="B"><path d="M1021.25 339.81H665v157.94h356.25V339.81z"/></mask><path d="M1021.25 339.81H665v157.94h356.25V339.81z" fill="#ddecff"/><path d="M665 497.75v1.19h-.59v-1.19h.59zm356.25 0h.59v1.19h-.59v-1.19zM665 339.81h.59v157.94H665h-.59V339.81h.59zm0 157.94v-1.19h356.25v1.19 1.19H665v-1.19zm356.25 0h-.59V339.81h.59.59v157.94h-.59z" mask="url(#D)" class="C"/><mask id="E" class="B"><path d="M1021.25 339.81H665v14.36h356.25v-14.36z"/></mask><path d="M1021.25 339.81H665v14.36h356.25v-14.36z" fill="#82baff"/><path d="M665 354.17v-2.37h356.25v2.38 2.38H665v-2.37z" mask="url(#E)" class="C"/><path d="M953.59 278.14c-9.52 3.18-.58 36.78 11 36.78s-.58-40.25-11-36.78z" fill="#42756b"/><path d="M955.02 281.61s9.55 19.12 9.55 33.31v9.13" class="D E H I"/><path d="M977.43 292.04c6.69 2.23.4 25.85-7.73 25.85s.4-28.29 7.73-25.85z" fill="#4b8477"/><path d="M976.41 294.47s-6.71 13.43-6.71 23.4v6.41" class="D E H I"/><path d="M952.4 292.04c-6.69 2.23-.4 25.85 7.73 25.85s-.4-28.29-7.73-25.85z" fill="#519074"/><path d="M953.41 294.47s6.71 13.43 6.71 23.4v6.41" class="D E H I"/><path d="M981.31 301.14c4.83 1.61.29 18.68-5.59 18.68s.29-20.45 5.59-18.68z" fill="#519074"/><path d="M980.57 302.91s-4.86 9.71-4.86 16.93v4.63" class="D E H I"/><path d="M973.33 339.74h-13.76c-2.29 0-4.23-1.97-4.44-4.56l-1-11.65h24.64l-1 11.65c-.22 2.59-2.15 4.56-4.44 4.56h.01z" fill="#a55a09"/><path d="M827.25 341.1h70.42v-2.89h-70.42v2.89z" fill="#d5d5d7"/><g class="B"><use href="#Z"/><use href="#a"/><path d="M885.88 338.22h3.29c0-.36-.29-.65-.65-.65h-1.97c-.36 0-.65.29-.65.65h-.01z"/><path d="M882.6 338.22h3.29c0-.36-.29-.65-.65-.65h-1.97c-.36 0-.65.29-.65.65h-.01z"/><path d="M879.33 338.22h3.29c0-.36-.29-.65-.65-.65h-1.97c-.36 0-.65.29-.65.65h-.01z"/><path d="M876.05 338.22h3.29c0-.36-.29-.65-.65-.65h-1.97c-.36 0-.65.29-.65.65h-.01z"/><path d="M872.79 338.22h3.29c0-.36-.29-.65-.65-.65h-1.97c-.36 0-.65.29-.65.65h-.01z"/><path d="M869.51 338.22h3.28c0-.36-.29-.65-.65-.65h-1.97c-.36 0-.65.29-.65.65z"/><path d="M866.23 338.22h3.29c0-.36-.29-.65-.65-.65h-1.97c-.36 0-.65.29-.65.65h-.01z"/><path d="M862.95 338.22h3.29c0-.36-.29-.65-.65-.65h-1.97c-.36 0-.65.29-.65.65h-.01z"/><path d="M859.69 338.22h3.29c0-.36-.29-.65-.65-.65h-1.97c-.36 0-.65.29-.65.65h-.01z"/><path d="M856.41 338.22h3.29c0-.36-.29-.65-.65-.65h-1.97c-.36 0-.65.29-.65.65h-.01z"/><path d="M853.13 338.22h3.29c0-.36-.29-.65-.65-.65h-1.97c-.36 0-.65.29-.65.65h-.01z"/><path d="M849.85 338.22h3.28c0-.36-.29-.65-.65-.65h-1.97c-.36 0-.65.29-.65.65zm-5.78 0h3.29c0-.36-.29-.65-.65-.65h-1.97c-.36 0-.65.29-.65.65h-.01z"/><path d="M840.78 338.22h3.29c0-.36-.29-.65-.65-.65h-1.97c-.36 0-.65.29-.65.65h-.01z"/><path d="M837.52 338.22h3.29c0-.36-.29-.65-.65-.65h-1.97c-.36 0-.65.29-.65.65h-.01zm-5.67 0h3.29c0-.36-.29-.65-.65-.65h-1.97c-.36 0-.65.29-.65.65h-.01z"/><path d="M828.56 338.22h3.29c0-.36-.29-.65-.65-.65h-1.97c-.36 0-.65.29-.65.65h-.01zm-5.58 2.89l-13.29-.04c-.77 0-1.24-1.03-.87-1.87a7.8 7.8 0 0 1 .73-1.32c1.08-1.59 3.03-3.18 6.49-3.16 3.5.02 5.67 1.63 6.95 3.23.32.4.58.8.81 1.17.49.83 0 1.99-.82 1.99z"/></g><path d="M822.98 341.11l-13.29-.04c-.77 0-1.24-1.03-.87-1.87.18-.42.42-.87.73-1.32.07-.04 2.6-1.5 5.06.03 2.51 1.55 8.99 2.23 8.38.04.32.4.58.8.81 1.17.49.83 0 1.99-.82 1.99z" fill="#dfeeff"/><use href="#b" fill="#fafcff"/><use href="#b" class="J"/><path d="M835.36 266.58h80.05c1.31 0 2.28 1.06 2.16 2.37l-4.82 54.15c-.12 1.31-1.27 2.37-2.58 2.37h-80.05c-1.31 0-2.28-1.06-2.16-2.37l4.82-54.15c.12-1.31 1.27-2.37 2.58-2.37z" fill="#d5d5d7"/><g fill="#e9ebee"><path d="M848.82 321.09c.52 0 .97-.42 1.02-.94l.4-4.44c.05-.52-.34-.94-.85-.94s-.98.42-1.02.94l-.4 4.44c-.05.52.34.94.85.94zm-2.97 0c.52 0 .97-.42 1.02-.94l.4-4.44c.05-.52-.34-.94-.85-.94s-.97.42-1.02.94l-.39 4.44c-.05.52.34.94.85.94zm-2.97 0c.52 0 .98-.42 1.02-.94l.4-4.44c.05-.52-.34-.94-.85-.94s-.97.42-1.02.94l-.4 4.44c-.05.52.34.94.85.94zm-2.96 0c.52 0 .97-.42 1.02-.94l.4-4.44c.05-.52-.34-.94-.85-.94s-.97.42-1.02.94l-.4 4.44c-.05.52.34.94.85.94zm-2.97 0c.52 0 .98-.42 1.02-.94l.4-4.44c.05-.52-.34-.94-.85-.94s-.98.42-1.02.94l-.4 4.44c-.05.52.34.94.85.94z"/></g><g class="J"><path d="M854.1 338.81h11.16v2.09l-11.16.34v-2.44z"/><path d="M869.4 329.41l-2.85-33.4h12.29l5.32 33.06c.72 3.82-.46 7.87-2.84 9.71l-2.73 2.11h-15.13l.27-2.09a8.6 8.6 0 0 0 5.66-9.4z"/></g><path d="M871.2 329.41l-2.85-33.4h12.29l5.32 33.06c.72 3.82-.46 7.87-2.84 9.71l-2.73 2.11h-15.13l3-2.32c2.25-1.75 3.45-5.49 2.93-9.17z" fill="#a5a5a5"/><path d="M870.94 334.14h14.91c-.47 1.95-1.41 3.64-2.72 4.65l-2.73 2.11h-15.13l3-2.32c1.26-.98 2.19-2.58 2.67-4.44z" class="J"/><g class="C"><path d="M837.19 202.06l-1.03-.59 1.81 1.48-.78-.89zm2.97-7.42l1.17.19-1.17-.19zm0-5.64l1.18-.12-.11-1.07h-1.08V189zm-17.81-17.81h-1.19 0 1.19zm17.81-17.81v-1.19h0v1.19zm124.69 17.81h1.19 0-1.19zM852.03 189v-1.19h-.45l-.34.3.78.89zm-14.84 13.06l1.03.59.03-.06.08-.15.3-.55.93-1.88c.69-1.49 1.49-3.47 1.76-5.18l-1.17-.19-1.17-.19a19.4 19.4 0 0 1-1.57 4.55l-.88 1.77-.28.51-.08.14-.02.03c0 .01 0 .01 1.03.6zm2.97-7.42l1.17.19c.19-1.21.19-2.72.14-3.87l-.08-1.47-.04-.44-.01-.12v-.03c0-.01 0-.01-1.18.1l-1.18.12v.03l.01.11.03.41.08 1.39a18.9 18.9 0 0 1-.12 3.41l1.17.19zm0-5.64v-1.19a16.6 16.6 0 0 1-16.62-16.62h-1.19-1.19a19 19 0 0 0 19 19V189zm-17.81-17.81h1.19c0-9.18 7.44-16.62 16.63-16.63v-1.19-1.19a19 19 0 0 0-19 19h1.19zm17.81-17.81v1.19h106.88v-1.19-1.19H840.16v1.19zm106.88 0v1.19c9.18 0 16.63 7.44 16.63 16.63h1.19 1.19a19 19 0 0 0-19-19v1.19zm17.81 17.81h-1.19c0 9.18-7.44 16.63-16.62 16.63V189v1.19a19 19 0 0 0 19-19h-1.19zM947.03 189v-1.19h-95V189v1.19h95V189zm-95 0l-.78-.89-14.84 13.06.78.89.78.89 14.84-13.06-.79-.89zm16.62-12.72v-9.97h1.91l5.88 7.18h-.93v-7.18h2.28v9.97h-1.89l-5.9-7.18h.93v7.18h-2.28zm15 .11c-.82 0-1.54-.17-2.18-.51a4 4 0 0 1-1.5-1.4 3.9 3.9 0 0 1-.54-2.04c0-.77.18-1.45.54-2.04a3.9 3.9 0 0 1 1.5-1.4c.64-.34 1.36-.51 2.18-.51a4.5 4.5 0 0 1 2.17.51 3.7 3.7 0 0 1 1.5 1.38c.36.59.54 1.27.54 2.05a3.9 3.9 0 0 1-2.04 3.44 4.5 4.5 0 0 1-2.17.51zm0-1.82c.37 0 .7-.09 1-.26s.53-.41.7-.73a2.4 2.4 0 0 0 .26-1.14c0-.45-.09-.83-.26-1.14s-.4-.56-.7-.73-.63-.26-1-.26-.7.09-1 .26-.53.41-.71.73c-.17.31-.26.69-.26 1.14a2.4 2.4 0 0 0 .26 1.14 2 2 0 0 0 .71.73c.29.17.63.26 1 .26zm5.54-1.41v-1.78h4.03v1.78h-4.03zm8.36 3.24a7.8 7.8 0 0 1-1.9-.23 4.8 4.8 0 0 1-1.42-.6l.74-1.6a4.9 4.9 0 0 0 1.24.54 5.5 5.5 0 0 0 1.43.2c.51 0 .87-.06 1.08-.19.22-.12.33-.29.33-.51 0-.18-.09-.31-.26-.4-.16-.1-.38-.17-.66-.21l-.91-.14-.98-.19a3.7 3.7 0 0 1-.91-.37c-.27-.16-.5-.38-.67-.66a2.1 2.1 0 0 1-.24-1.07 2.1 2.1 0 0 1 .41-1.28 2.8 2.8 0 0 1 1.23-.87 5 5 0 0 1 1.91-.33c.52 0 1.05.06 1.6.17a4.1 4.1 0 0 1 1.35.5l-.74 1.58a3.6 3.6 0 0 0-1.13-.44c-.37-.09-.73-.13-1.08-.13-.49 0-.86.07-1.08.2s-.34.3-.34.51c0 .19.08.33.24.43a2.6 2.6 0 0 0 .67.23l.9.16a7.3 7.3 0 0 1 1 .19 3.3 3.3 0 0 1 .9.37 1.8 1.8 0 0 1 .67.64c.17.27.26.62.26 1.05 0 .47-.14.9-.43 1.27a2.8 2.8 0 0 1-1.24.85 5.3 5.3 0 0 1-1.95.31zm9.65-7.89a3.4 3.4 0 0 1 1.62.37c.49.24.87.61 1.14 1.11.28.49.41 1.13.41 1.91v4.39h-2.22v-4.05c0-.62-.14-1.07-.41-1.37-.27-.29-.65-.44-1.14-.44a2 2 0 0 0-.95.23c-.28.14-.49.37-.66.67-.15.3-.23.69-.23 1.17v3.79h-2.22v-10.57h2.22v5.03l-.5-.64c.28-.51.67-.91 1.18-1.18a3.7 3.7 0 0 1 1.75-.41zm8.9 7.89c-.82 0-1.54-.17-2.18-.51a4 4 0 0 1-1.5-1.4 3.9 3.9 0 0 1-.54-2.04c0-.77.18-1.45.54-2.04a3.9 3.9 0 0 1 1.5-1.4c.64-.34 1.36-.51 2.18-.51a4.5 4.5 0 0 1 2.17.51 3.7 3.7 0 0 1 1.5 1.38c.36.59.54 1.27.54 2.05a3.9 3.9 0 0 1-2.04 3.44 4.5 4.5 0 0 1-2.17.51zm0-1.82c.37 0 .7-.09 1-.26s.53-.41.7-.73a2.4 2.4 0 0 0 .26-1.14c0-.45-.09-.83-.26-1.14s-.4-.56-.7-.73-.63-.26-1-.26-.7.09-1 .26-.53.41-.71.73c-.17.31-.26.69-.26 1.14a2.4 2.4 0 0 0 .26 1.14 2 2 0 0 0 .71.73c.29.17.63.26 1 .26zm7.23 1.71l-2.76-7.67h2.09l2.29 6.6h-1l2.39-6.6h1.88l2.32 6.6h-1l2.37-6.6h1.97l-2.78 7.67h-2.15l-2.04-5.66h.66l-2.11 5.66h-2.14z"/></g><path d="M843.72 182.09a10.9 10.9 0 1 0 0-21.81 10.9 10.9 0 1 0 0 21.81z" class="B"/><g class="C"><path d="M843.72 183.06a11.8 11.8 0 0 1-8.4-3.48 11.7 11.7 0 0 1-2.54-3.77 11.8 11.8 0 0 1-.93-4.62 11.8 11.8 0 0 1 .93-4.62 11.9 11.9 0 0 1 2.54-3.77 11.8 11.8 0 0 1 16.8 0 11.7 11.7 0 0 1 2.54 3.77 11.8 11.8 0 0 1 0 9.25 11.9 11.9 0 0 1-2.54 3.77 11.8 11.8 0 0 1-8.4 3.48zm0-21.72a9.8 9.8 0 0 0-9.85 9.85 9.8 9.8 0 0 0 9.85 9.85 9.8 9.8 0 0 0 9.84-9.85 9.8 9.8 0 0 0-9.84-9.85zm0 10.92c.59 0 1.08-.48 1.08-1.07s-.48-1.08-1.08-1.08-1.08.48-1.08 1.08.48 1.07 1.08 1.07z"/></g><g fill="#a3aeb7"><path d="M843.92 164.52h-.39c-.07 0-.13-.06-.13-.13v-1.82c0-.07.06-.13.13-.13h.39c.07 0 .13.06.13.13v1.82c0 .07-.06.13-.13.13zm-6.29 3.09l-.05.08c-.02.04-.07.05-.11.03l-.96-.56c-.04-.02-.05-.07-.03-.11l.05-.08c.02-.04.07-.05.11-.03l.96.56c.04.02.05.07.03.11zm2.6-2.56l-.08.05c-.04.02-.09.01-.11-.03l-.55-.96c-.02-.04-.01-.09.03-.11l.08-.05c.04-.02.09-.01.11.03l.56.96c.02.04.01.09-.03.11zm-3.17 5.94v.39c0 .07-.06.13-.13.13h-1.82c-.07 0-.13-.06-.13-.13v-.39c0-.07.06-.13.13-.13h1.82c.07 0 .13.06.13.13zm3.09 6.29l.08.05c.04.02.05.07.03.11l-.56.96c-.02.04-.07.05-.11.03l-.08-.05c-.04-.02-.05-.07-.03-.11l.55-.96c.02-.04.07-.05.11-.03zm-2.57-2.6l.05.08c.02.04.01.09-.03.11l-.96.56c-.04.02-.09.01-.11-.03l-.05-.08c-.02-.04-.01-.09.03-.11l.96-.56c.04-.02.09-.01.11.03zm5.95 3.17h.39c.07 0 .13.06.13.13v1.82c0 .07-.06.13-.13.13h-.39c-.07 0-.13-.06-.13-.13v-1.82c0-.07.06-.13.13-.13zm6.29-3.09l.05-.08c.02-.04.07-.05.11-.03l.96.56c.04.02.05.07.03.11l-.05.08c-.02.04-.07.05-.11.03l-.96-.56c-.04-.02-.05-.07-.03-.11zm-2.61 2.57l.08-.05c.04-.02.09-.01.11.03l.56.96c.02.04.01.09-.03.11l-.08.05c-.04.02-.09.01-.11-.03l-.56-.96c-.02-.04-.01-.09.03-.11zm3.17-5.95v-.39c0-.07.06-.13.13-.13h1.82c.07 0 .13.06.13.13v.39c0 .07-.06.13-.13.13h-1.82c-.07 0-.13-.06-.13-.13z"/><path d="M847.3 165.1l-.08-.05c-.04-.02-.05-.07-.03-.11l.56-.96c.02-.04.07-.05.11-.03l.08.05c.04.02.05.07.03.11l-.56.96c-.02.04-.07.05-.11.03zm2.56 2.6l-.05-.08c-.02-.04-.01-.09.03-.11l.96-.56c.04-.02.09-.01.11.03l.05.08c.02.04.01.09-.03.11l-.96.56c-.04.02-.09.01-.11-.03z"/></g><g fill="#000"><path d="M844.36 170.07c-.19-.11-.41-.17-.64-.17s-.45.06-.64.17l.31-4.5c.01-.18.16-.31.33-.31s.32.14.33.31l.31 4.5zm3.4 3.17c-.06.13-.21.18-.34.13l-2.86-1.21c.24-.21.4-.51.44-.85l2.66 1.58c.12.07.16.22.1.35z"/></g><path d="M975.2 314.81h-76.51c-6.09 0-11.03-.99-11.03-2.2v-32.94c0-1.22 4.94-2.2 11.03-2.2h76.51c6.09 0 11.03.98 11.03 2.2v32.94c0 1.21-4.94 2.2-11.02 2.2z" class="C"/><path d="M975.2 314.17h-76.08c-5.13 0-9.29-.81-9.29-1.81v-32.43c0-1 4.16-1.81 9.29-1.81h76.08c5.13 0 9.29.81 9.29 1.81v32.43c0 1-4.16 1.81-9.29 1.81z" fill="url(#K)"/><g class="B"><path d="M896.3 303.61l.36.73c.02.05.07.08.12.08l.8.12c.13.02.18.17.09.26l-.58.57c-.04.04-.05.09-.05.14l.14.8c.02.13-.11.22-.23.16l-.72-.38c-.05-.02-.1-.02-.15 0l-.72.38c-.12.06-.25-.04-.23-.16l.14-.8c.01-.05-.01-.1-.05-.14l-.58-.57c-.09-.09-.04-.25.09-.26l.8-.12c.05-.01.1-.04.12-.08l.36-.73c.06-.12.22-.12.28 0zm4.46 0l.36.73c.02.05.07.08.12.08l.8.12c.13.02.18.17.09.26l-.58.57c-.04.04-.05.09-.05.14l.14.8c.02.13-.11.22-.23.16l-.72-.38c-.05-.02-.1-.02-.15 0l-.72.38c-.12.06-.25-.04-.23-.16l.14-.8c.01-.05-.01-.1-.05-.14l-.58-.57c-.09-.09-.04-.25.09-.26l.8-.12c.05-.01.09-.04.12-.08l.36-.73c.06-.12.22-.12.28 0zm4.47 0l.36.73c.02.05.07.08.12.08l.8.12c.13.02.18.17.09.26l-.58.57c-.04.04-.05.09-.04.14l.14.8c.02.13-.11.22-.23.16l-.72-.38c-.04-.02-.1-.02-.14 0l-.72.38c-.12.06-.25-.04-.23-.16l.14-.8c.01-.05-.01-.1-.04-.14l-.58-.57c-.09-.09-.04-.25.09-.26l.8-.12c.05-.01.09-.04.12-.08l.36-.73c.06-.12.22-.12.28 0zm4.46 0l.36.73c.02.05.07.08.12.08l.8.12c.13.02.18.17.09.26l-.58.57c-.04.04-.05.09-.04.14l.14.8c.02.13-.11.22-.23.16l-.72-.38c-.05-.02-.1-.02-.14 0l-.72.38c-.11.06-.25-.04-.23-.16l.14-.8c.01-.05-.01-.1-.04-.14l-.58-.57c-.09-.09-.04-.25.09-.26l.8-.12c.05-.01.09-.04.12-.08l.36-.73c.06-.12.22-.12.28 0zm4.47 0l.36.73c.02.05.07.08.12.08l.8.12c.13.02.18.17.09.26l-.58.57c-.04.04-.05.09-.05.14l.14.8c.02.13-.11.22-.23.16l-.72-.38c-.05-.02-.1-.02-.14 0l-.72.38c-.11.06-.25-.04-.23-.16l.14-.8c.01-.05-.01-.1-.04-.14l-.58-.57c-.09-.09-.04-.25.09-.26l.8-.12c.05-.01.1-.04.12-.08l.36-.73c.06-.12.22-.12.28 0zm-9.74-2.81a8 8 0 0 0 7.98-7.98 8 8 0 0 0-7.98-7.98 8 8 0 0 0-7.98 7.98 8 8 0 0 0 7.98 7.98z"/></g><mask id="F" maskUnits="userSpaceOnUse" x="896" y="284" width="17" height="17"><path d="M904.42 300.8a8 8 0 0 0 7.98-7.98 8 8 0 0 0-7.98-7.98 8 8 0 0 0-7.98 7.98 8 8 0 0 0 7.98 7.98z" class="B"/></mask><g mask="url(#F)"><path d="M905.79 293.7a2.9 2.9 0 0 1-.24-.87c-.01-.12-.01-.22-.01-.3.01-.12.02-.18.02-.18l-.06.02-1.07.29-1.07-.3h-.06s.02.06.02.18c0 .08 0 .18-.01.3-.02.22-.09.52-.24.87 0 0-.1.25-.79.34a2.9 2.9 0 0 0 .18.44l.05.09c.04.08.09.17.15.25a3 3 0 0 0 .32.42c.13.36.41.67.74.72a2.8 2.8 0 0 0 .46.04h.17l.08-.01.08.01h.17a2.8 2.8 0 0 0 .46-.04c.33-.05.61-.36.74-.72.13-.14.24-.28.33-.42a3.3 3.3 0 0 0 .15-.25l.09-.18c.09-.21.12-.31.12-.31-.69-.09-.78-.39-.78-.39z" class="K"/><path d="M910.32 299.53l-1.94-1.94-.17 5.25c-1.15.55-2.43.85-3.78.85-1.36 0-2.65-.31-3.8-.86l-.02-.68-.14-4.56-.26.26h-1.43c.3-1.38.71-2.63 2.08-3.36.5-.26 1.45-.49 1.68-.51.04 0 .08.02.1.06a4.1 4.1 0 0 0 .19.37c.01.01.02.03.03.04.25.42.69 1.01 1.34 1.28a.6.6 0 0 0 .46 0c.65-.27 1.09-.86 1.34-1.28 0-.02.01-.03.02-.04a3.9 3.9 0 0 0 .19-.37c.02-.04.06-.06.1-.06l1.62.54c1.96 1.03 2.25 3.29 2.39 5.02z" fill="url(#L)"/><path d="M905.55 292.83c-.01-.12-.01-.22 0-.3l-.04-.09-1.07.28-1.07-.28-.04.09c0 .08 0 .18-.01.3.14.24.5.68 1.12.69h0 0c.62 0 .97-.45 1.11-.69z" fill="#cc6362"/><path d="M902.5 290.34s.12.41.22.93c.06.29.01.44-.25.4-.2-.03-.71-.63-.54-1.15.04-.12.25-.33.56-.18zm3.91 1.33h-.03c-.23.02-.26-.12-.21-.4l.02-.11.2-.82c.31-.15.52.06.56.18.17.51-.34 1.12-.54 1.15z" class="K"/><path opacity=".5" d="M906.37 291.67c-.23.02-.26-.12-.21-.4l.02-.11.05.02s0 .48.14.49zm-3.87 0c.23.02.26-.12.21-.4l-.02-.11-.05.02s0 .48-.14.49z" fill="#cc6362"/><path d="M904.43 289h-2.28s.19.66.33 1.41c.22 1.24.27 2.84 1.96 2.84 1.7 0 1.73-1.59 1.96-2.84.13-.74.33-1.41.33-1.41h-2.28z" class="K"/><path d="M906.83 288.44c-.28-.84-.94.65-.94.65.25.1.51 1.32.51 1.32l.18-.11h0 0s.49-1.15.25-1.86z" fill="url(#M)"/><path d="M899.87 300.81c.33-.6.68-1.68.68-1.68l-2.13-.8c-.86 1.78-1.14 3.25-1.14 3.25l2.59-.78zm9.07-.44l-.86-1.72 2.18-.98a36.7 36.7 0 0 0 1.27 3.48l-2.59-.78z" fill="#ffc1cd"/><path d="M901.63 294.18s-1.54.47-2.03 1.05c-.54.65-.91 1.82-1.68 3.86 0 0 1.7.82 2.62.85l1.08-5.76z" fill="url(#N)"/><path d="M906.86 294.15s1.99.49 2.37 1.01a12.7 12.7 0 0 1 1.72 3.94s-1.71.82-2.63.85l-1.45-5.8z" fill="url(#O)"/><path d="M902.53 287.88s-.3-.61.35-.97c1.08-.59 4 .26 4.34.82.44.71-.42 1.84-1.78 1.8s-2.02-.62-2.55-.4-.62-.77-.62-.77l.25-.48z" fill="url(#P)"/><path d="M902.87 289.07l-.34-1.18s-.65-.21-.65.56c0 .41.07.49.16.77a3.7 3.7 0 0 0 .26 1.09l.18.11s.25-1.21.51-1.32l-.12-.03z" fill="url(#Q)"/><path d="M908.08 297.1l.01.12.04.32.05.45.05.52.04.52.02.46.01.45-.02-.12-.05-.32-.06-.45-.05-.52-.03-.52-.01-.46.01-.32.01-.12z" fill="url(#R)"/><path d="M900.77 297.1s.01.04.01.12l.01.32-.01.46-.03.52-.06.52-.06.45-.05.32-.02.12.01-.45.02-.46.04-.52.05-.52.05-.45.04-.32.01-.12z" fill="url(#S)"/><path d="M904.43 294.78l-.54.38.15.57s.09.04.38.05c.29-.01.38-.05.38-.05l.15-.57-.54-.38z" class="B"/><path d="M902.55 293.97l.54-.3s.3.61 1.35 1.1c0 0-.13.11-.25.45-.04.12-.12.5-.12.5s-1.05-.32-1.51-1.76z" fill="url(#T)"/><path d="M906.32 293.97l-.54-.3s-.3.61-1.35 1.1c0 0 .14.11.25.45.04.12.12.5.12.5s1.05-.32 1.51-1.76z" fill="url(#U)"/><path d="M904.74 295.74l-.31-.09-.31.09-.69 6.58c.06 1.06.69 2.03.92 2.36.04.06.13.06.17 0 .23-.32.85-1.29.92-2.36.03-.53-.7-6.58-.7-6.58z" class="B"/></g><path d="M924.03 292.24c-.38 0-.74-.06-1.07-.19s-.61-.3-.85-.53a2.5 2.5 0 0 1-.56-.8c-.13-.31-.19-.64-.19-1s.06-.69.19-1c.13-.31.32-.57.56-.8s.52-.4.85-.53.68-.19 1.06-.19c.38 0 .74.06 1.06.19.32.13.61.3.84.53s.43.49.56.8.2.63.2 1a2.5 2.5 0 0 1-.2 1.01c-.13.31-.32.57-.56.8s-.52.4-.84.52c-.32.13-.67.19-1.05.19zm-.01-.96c.22 0 .42-.04.6-.11s.35-.18.49-.32.25-.3.32-.49.12-.4.12-.63-.04-.44-.12-.63-.18-.36-.32-.49-.29-.25-.48-.32-.39-.11-.61-.11-.42.04-.6.11-.34.18-.48.32-.25.3-.33.49-.11.4-.11.63c0 .23.04.44.11.63s.18.35.32.49.3.25.49.32.39.11.6.11zm3.56.88v-3.82c0-.42.13-.76.38-1.01s.61-.38 1.07-.38a2 2 0 0 1 .45.05c.15.03.27.08.38.15l-.29.79c-.06-.04-.13-.07-.2-.1s-.15-.04-.24-.04c-.16 0-.28.05-.37.14s-.12.22-.12.4v.35l.03.47v3h-1.08zm-.58-2.82v-.83h2.59v.83h-2.59zm3.32 2.82v-3.82c0-.42.13-.76.38-1.01s.61-.38 1.07-.38c.16 0 .31.02.45.05s.27.08.38.15l-.28.79c-.06-.04-.13-.07-.2-.1s-.15-.04-.24-.04c-.16 0-.28.05-.37.14s-.12.22-.12.4v.35l.03.47v3h-1.08zm-.58-2.82v-.83h2.59v.83h-2.59zm4.94 2.88c-.43 0-.8-.08-1.12-.25s-.57-.39-.74-.68-.26-.62-.26-.99a1.9 1.9 0 0 1 .26-.99c.18-.29.41-.52.71-.68s.64-.25 1.02-.25c.37 0 .69.08.99.24s.53.38.7.67.26.63.26 1.04a2.1 2.1 0 0 1-.01.15l-.01.15h-3.04v-.63h2.47l-.42.19c0-.19-.04-.36-.12-.51s-.19-.25-.33-.33-.3-.12-.49-.12-.35.04-.49.13-.25.19-.33.34-.12.31-.12.51v.17c0 .2.04.38.13.54s.22.27.38.35.36.12.58.12c.2 0 .37-.03.52-.09s.29-.15.42-.27l.58.63c-.17.19-.39.35-.65.45s-.56.15-.9.15zm2.53-.06v-3.74h1.04v1.06l-.15-.31c.11-.26.29-.46.54-.6a1.8 1.8 0 0 1 .9-.21v1l-.12-.01c-.04 0-.08-.01-.12-.01-.3 0-.54.08-.72.26-.18.17-.27.43-.27.78v1.76h-1.08zm4.4 0l2.17-4.86h1.11l2.17 4.86h-1.18l-1.78-4.29h.44l-1.78 4.29h-1.15zm1.08-1.04l.3-.85h2.5l.31.85h-3.11zm6.57 1.1c-.4 0-.76-.08-1.08-.24a1.9 1.9 0 0 1-.74-.69c-.18-.29-.26-.62-.26-.99 0-.38.09-.71.26-.99.18-.29.43-.52.74-.68s.67-.25 1.08-.25c.39 0 .74.08 1.03.25s.51.4.65.7l-.84.45c-.1-.18-.22-.31-.37-.39s-.3-.12-.47-.12c-.18 0-.35.04-.5.13s-.27.2-.35.36-.12.34-.12.56.04.4.13.56.21.27.35.36.32.13.5.13c.17 0 .33-.04.47-.12.15-.08.27-.22.37-.4l.84.46c-.14.3-.35.54-.65.7s-.63.24-1.03.24zm4.06 0c-.4 0-.76-.08-1.08-.24a1.9 1.9 0 0 1-.74-.69c-.18-.29-.26-.62-.26-.99 0-.38.09-.71.26-.99.18-.29.43-.52.74-.68s.67-.25 1.08-.25c.39 0 .74.08 1.03.25s.51.4.65.7l-.84.45c-.1-.18-.22-.31-.37-.39s-.3-.12-.47-.12c-.18 0-.35.04-.5.13s-.27.2-.35.36-.12.34-.12.56.04.4.13.56.21.27.35.36.32.13.5.13c.17 0 .33-.04.47-.12.15-.08.27-.22.37-.4l.84.46c-.14.3-.35.54-.65.7s-.63.24-1.03.24zm4.11 0c-.43 0-.8-.08-1.12-.25s-.57-.39-.74-.68-.26-.62-.26-.99a1.9 1.9 0 0 1 .26-.99c.18-.29.41-.52.71-.68s.64-.25 1.02-.25c.37 0 .69.08.99.24s.53.38.7.67.26.63.26 1.04a2.1 2.1 0 0 1-.01.15l-.01.15h-3.04v-.63h2.47l-.42.19c0-.19-.04-.36-.12-.51s-.19-.25-.33-.33-.3-.12-.49-.12-.35.04-.49.13-.25.19-.33.34-.12.31-.12.51v.17c0 .2.04.38.13.54s.22.27.38.35.36.12.58.12c.2 0 .37-.03.52-.09s.29-.15.42-.27l.58.63c-.17.19-.39.35-.65.45s-.56.15-.9.15zm4.74 0a1.6 1.6 0 0 1-.83-.21c-.24-.14-.42-.35-.56-.63s-.19-.65-.19-1.08a2.7 2.7 0 0 1 .19-1.08c.13-.28.31-.49.54-.63s.52-.21.85-.21c.35 0 .67.08.95.24s.5.38.67.67c.17.29.25.63.25 1.01a2 2 0 0 1-.25 1.02c-.16.29-.38.51-.67.67s-.59.24-.95.24zm-2.21 1.29v-5.08h1.04v.76l-.02 1.11.07 1.1v2.11h-1.08zm2.02-2.18c.18 0 .34-.04.48-.12a.9.9 0 0 0 .34-.36c.09-.16.13-.34.13-.56a1.1 1.1 0 0 0-.13-.56.9.9 0 0 0-.34-.36c-.14-.08-.3-.12-.48-.12s-.34.04-.49.13a.9.9 0 0 0-.34.36c-.08.15-.12.34-.12.56s.04.4.13.56a.9.9 0 0 0 .34.36c.14.08.3.13.49.13zm4.3.89c-.44 0-.78-.11-1.03-.33s-.37-.56-.37-1.01v-3.28h1.08v3.26c0 .16.04.28.13.37s.2.13.34.13a.7.7 0 0 0 .44-.14l.29.76c-.11.08-.25.14-.4.18-.15.04-.31.06-.48.06zm-1.97-2.88v-.83h2.59v.83h-2.59zm5.2 2.88c-.43 0-.8-.08-1.12-.25s-.57-.39-.74-.68-.26-.62-.26-.99a1.9 1.9 0 0 1 .26-.99c.18-.29.41-.52.72-.68s.64-.25 1.02-.25c.37 0 .7.08.99.24s.53.38.7.67.26.63.26 1.04a2.1 2.1 0 0 1-.01.15l-.01.15h-3.04v-.63h2.47l-.42.19c0-.19-.04-.36-.12-.51s-.19-.25-.33-.33-.3-.12-.49-.12-.35.04-.49.13-.25.19-.33.34-.12.31-.12.51v.17c0 .2.04.38.13.54s.22.27.38.35.36.12.58.12c.2 0 .37-.03.52-.09s.29-.15.42-.27l.58.63c-.17.19-.39.35-.65.45s-.56.15-.9.15zm4.13 0c-.35 0-.67-.08-.95-.24s-.51-.39-.67-.67c-.16-.29-.24-.62-.24-1.01s.08-.74.24-1.02c.17-.29.39-.51.67-.67s.6-.24.95-.24a1.6 1.6 0 0 1 .83.21c.24.14.42.35.55.63a2.6 2.6 0 0 1 .19 1.08c0 .44-.06.8-.19 1.08s-.3.49-.54.63c-.23.14-.51.21-.84.21zm.19-.89c.18 0 .34-.04.48-.12a.9.9 0 0 0 .34-.36c.09-.16.13-.34.13-.56a1.1 1.1 0 0 0-.13-.56.9.9 0 0 0-.34-.36c-.14-.08-.3-.12-.48-.12s-.34.04-.49.13-.26.2-.35.36-.12.34-.12.56.04.4.13.56.2.27.35.36.31.13.49.13zm.98.83v-.76l.02-1.11-.07-1.1V287h1.08v5.15h-1.04z" class="B"/><path d="M911.36 291.87c1.58 0 2.86-1.28 2.86-2.86s-1.28-2.86-2.86-2.86-2.86 1.28-2.86 2.86 1.28 2.86 2.86 2.86z" fill="url(#V)"/><g class="B"><path d="M909.51 288.5c.32.07.93.28 1.4.84.02.02.06.02.07 0a5.3 5.3 0 0 1 2.19-1.83c.05-.02.09.04.05.08-.59.46-1.79 1.54-2.21 2.9-.01.04-.07.05-.09 0a4.1 4.1 0 0 0-1.45-1.91c-.04-.03-.01-.09.04-.08z"/><use href="#c"/><path d="M974.7 303.04h-50.77c-.85 0-1.53-.32-1.53-.72s.69-.72 1.53-.72h50.77c.85 0 1.53.32 1.53.72s-.69.72-1.53.72zm0 3.29h-50.77c-.85 0-1.53-.32-1.53-.72s.69-.72 1.53-.72h50.77c.85 0 1.53.32 1.53.72s-.69.72-1.53.72z"/></g><path d="M991.56 456.19a1079.5 1079.5 0 0 0-296.87 0c8.53-14.37 12.8-20.78 21.33-32.57a356.3 356.3 0 0 1-21.33-32.74 1079.2 1079.2 0 0 0 296.87 0 282.7 282.7 0 0 1-27.78 32.74c11.12 11.45 16.68 17.8 27.78 32.57z" class="C"/><path d="M783.62 429.25h-2.94l.02-2.17h2.92a3.3 3.3 0 0 0 1.85-.49c.5-.33.88-.82 1.13-1.46s.39-1.41.39-2.31v-.66c0-.69-.07-1.3-.22-1.83s-.36-.97-.64-1.33-.63-.63-1.05-.81c-.41-.19-.89-.28-1.43-.28h-3.02v-2.18h3.02c.9 0 1.73.15 2.48.46a5.6 5.6 0 0 1 1.96 1.31c.55.57.97 1.25 1.27 2.04.3.79.46 1.66.46 2.63v.64a7.3 7.3 0 0 1-.46 2.63c-.3.79-.72 1.47-1.27 2.04-.54.56-1.2 1-1.96 1.31-.75.3-1.59.45-2.5.45zm-1.36-13.51v13.51h-2.78v-13.51h2.78zm14.83 11.24v-4.47c0-.32-.05-.6-.16-.83-.11-.24-.27-.42-.49-.55s-.5-.19-.85-.19c-.3 0-.55.05-.77.16-.22.1-.38.25-.5.44-.12.19-.18.41-.18.66h-2.67a2.6 2.6 0 0 1 .3-1.22c.2-.38.49-.72.86-1.01.38-.3.83-.53 1.35-.7a5.8 5.8 0 0 1 1.76-.25c.78 0 1.47.13 2.08.39s1.08.65 1.43 1.17a3.4 3.4 0 0 1 .53 1.95v4.3c0 .55.03 1 .1 1.35a3.6 3.6 0 0 0 .3.91v.16h-2.7c-.13-.27-.23-.61-.3-1.02a8.4 8.4 0 0 1-.09-1.24zm.35-3.85l.02 1.51h-1.49c-.35 0-.66.04-.92.12a1.7 1.7 0 0 0-.64.34c-.17.14-.29.31-.37.5-.07.19-.11.4-.11.63s.05.44.16.62c.11.18.26.32.46.43.2.1.43.15.7.15.4 0 .75-.08 1.05-.24s.53-.36.69-.59c.17-.24.25-.46.26-.67l.7 1.13a4.6 4.6 0 0 1-.41.79c-.17.27-.38.53-.64.77a3.3 3.3 0 0 1-.94.59c-.37.15-.8.22-1.3.22a3.9 3.9 0 0 1-1.74-.38c-.51-.26-.92-.62-1.22-1.07a2.8 2.8 0 0 1-.45-1.56c0-.53.1-.99.3-1.4s.49-.75.87-1.03a4.1 4.1 0 0 1 1.46-.64 8.2 8.2 0 0 1 2.02-.22h1.55zm9.31-3.92v1.89h-5.84v-1.89h5.84zm-4.4-2.48h2.67v9.49c0 .29.04.51.11.67.08.15.2.26.35.32.15.06.35.08.59.08l.44-.02.34-.06.01 1.97a5 5 0 0 1-.74.18 5.5 5.5 0 0 1-.88.06c-.59 0-1.1-.1-1.54-.29-.43-.2-.77-.51-1-.95s-.35-1-.35-1.71v-9.76zm10.54 12.7a5.6 5.6 0 0 1-2.1-.37 4.6 4.6 0 0 1-1.58-1.05c-.43-.44-.75-.96-.98-1.55-.23-.59-.34-1.22-.34-1.89v-.37a6.4 6.4 0 0 1 .32-2.09 4.9 4.9 0 0 1 .93-1.64c.41-.46.9-.82 1.48-1.07.58-.25 1.24-.38 1.97-.38.71 0 1.34.12 1.89.35a3.7 3.7 0 0 1 1.38 1c.38.43.66.95.85 1.56.19.6.29 1.27.29 2v1.11h-7.98v-1.78h5.35v-.2c0-.37-.07-.7-.2-.99-.13-.3-.33-.53-.59-.7s-.61-.26-1.02-.26c-.35 0-.66.08-.91.23s-.46.37-.62.65c-.15.28-.27.61-.35.98a6.2 6.2 0 0 0-.11 1.22v.37c0 .4.06.77.17 1.11.12.34.28.63.49.88.22.25.48.44.78.57.31.14.66.2 1.05.2.48 0 .93-.09 1.34-.28.42-.19.78-.48 1.09-.86l1.3 1.41c-.21.3-.5.59-.86.87a4.6 4.6 0 0 1-1.3.69c-.51.17-1.09.26-1.74.26zm9.94-5.1v-.2a6.3 6.3 0 0 1 .32-2.03 4.7 4.7 0 0 1 .92-1.62c.4-.46.9-.81 1.48-1.07.59-.26 1.26-.39 2.02-.39a5 5 0 0 1 2.03.39 4.1 4.1 0 0 1 1.49 1.07c.41.46.72 1 .93 1.62a6.3 6.3 0 0 1 .31 2.03v.2c0 .73-.1 1.41-.31 2.03-.21.62-.52 1.16-.93 1.62a4.1 4.1 0 0 1-1.48 1.07c-.59.25-1.26.38-2.02.38a5.1 5.1 0 0 1-2.03-.38 4.2 4.2 0 0 1-1.49-1.07c-.4-.46-.71-1-.92-1.62-.21-.62-.32-1.3-.32-2.03zm2.67-.2v.2a5.9 5.9 0 0 0 .11 1.18c.07.36.19.69.35.96.17.27.38.49.65.64a1.9 1.9 0 0 0 .97.23c.37 0 .69-.08.96-.23s.48-.37.64-.64a3.2 3.2 0 0 0 .35-.96 5.5 5.5 0 0 0 .12-1.18v-.2a5.3 5.3 0 0 0-.12-1.15c-.08-.37-.2-.69-.36-.96a1.8 1.8 0 0 0-.64-.67c-.27-.16-.59-.24-.96-.24s-.7.08-.97.24a1.9 1.9 0 0 0-.64.67c-.16.28-.28.6-.35.96a5.7 5.7 0 0 0-.11 1.15zm11.88 5.11h-2.69v-10.93c0-.76.15-1.4.44-1.92a2.9 2.9 0 0 1 1.27-1.19c.55-.27 1.2-.41 1.96-.41.25 0 .49.02.71.06l.67.12-.03 2.01c-.12-.03-.24-.05-.37-.06s-.28-.02-.45-.02c-.32 0-.6.06-.83.17-.22.11-.39.26-.51.47s-.18.47-.18.77v10.93zm2-10.04v1.89h-6.19v-1.89h6.19zm11.76 5.89v-9.36h2.77v9.36a4.4 4.4 0 0 1-.59 2.33c-.4.64-.94 1.14-1.62 1.48a5 5 0 0 1-2.3.52c-.88 0-1.67-.15-2.35-.45s-1.22-.75-1.61-1.36-.58-1.4-.58-2.35h2.79a2.8 2.8 0 0 0 .21 1.18c.14.29.34.5.6.62s.57.19.94.19c.35 0 .66-.08.92-.25s.46-.41.6-.73a2.8 2.8 0 0 0 .22-1.18zm4.55-.77v-.2a6.3 6.3 0 0 1 .32-2.03 4.7 4.7 0 0 1 .92-1.62c.4-.46.9-.81 1.48-1.07.59-.26 1.26-.39 2.02-.39a5 5 0 0 1 2.03.39 4.1 4.1 0 0 1 1.49 1.07c.41.46.72 1 .93 1.62a6.3 6.3 0 0 1 .31 2.03v.2c0 .73-.11 1.41-.31 2.03-.21.62-.52 1.16-.93 1.62a4.1 4.1 0 0 1-1.48 1.07c-.59.25-1.26.38-2.02.38s-1.44-.13-2.03-.38a4.2 4.2 0 0 1-1.49-1.07c-.4-.46-.71-1-.92-1.62-.21-.62-.32-1.3-.32-2.03zm2.67-.2v.2a5.9 5.9 0 0 0 .11 1.18c.07.36.19.69.35.96.17.27.38.49.65.64a1.9 1.9 0 0 0 .97.23c.37 0 .69-.08.96-.23s.48-.37.64-.64c.16-.28.28-.6.35-.96.08-.37.12-.76.12-1.18v-.2a5.2 5.2 0 0 0-.12-1.15c-.07-.37-.19-.69-.36-.96a1.8 1.8 0 0 0-.64-.67c-.26-.16-.59-.24-.96-.24s-.7.08-.96.24a1.9 1.9 0 0 0-.64.67c-.16.28-.28.6-.35.96a5.7 5.7 0 0 0-.11 1.15zm11.3-4.93v10.04H867v-10.04h2.68zm-2.85-2.62c0-.39.14-.71.41-.97s.64-.38 1.09-.38c.45 0 .81.13 1.09.38.28.25.42.58.42.97s-.14.71-.42.96c-.27.25-.63.38-1.09.38-.46 0-.82-.13-1.09-.38s-.41-.58-.41-.96zm7.67 4.76v7.89h-2.67v-10.04h2.5l.17 2.14zm-.39 2.52h-.72a6.5 6.5 0 0 1 .29-2c.19-.6.46-1.11.81-1.53.35-.43.76-.75 1.23-.97.48-.23 1.02-.34 1.61-.34a3.9 3.9 0 0 1 1.29.2c.39.14.72.35 1 .65.28.3.5.69.65 1.18a6 6 0 0 1 .23 1.79v6.4h-2.69v-6.41c0-.44-.06-.79-.19-1.04s-.31-.42-.55-.52c-.24-.11-.53-.16-.87-.16-.36 0-.67.07-.94.21-.26.14-.48.34-.65.59-.17.25-.29.54-.38.87s-.13.69-.13 1.08zm11.24-4.67v10.04h-2.68v-10.04h2.68zm-2.85-2.62c0-.39.14-.71.41-.97s.64-.38 1.1-.38c.45 0 .81.13 1.09.38s.42.58.42.97-.14.71-.42.96-.63.38-1.09.38c-.46 0-.82-.13-1.1-.38s-.41-.58-.41-.96zm7.67 4.76v7.89h-2.67v-10.04h2.5l.17 2.14zm-.39 2.52h-.72a6.5 6.5 0 0 1 .29-2c.19-.6.46-1.11.81-1.53.35-.43.76-.75 1.23-.97a3.7 3.7 0 0 1 1.61-.34 3.9 3.9 0 0 1 1.29.2c.39.14.72.35 1 .65s.5.69.65 1.18a6 6 0 0 1 .23 1.79v6.4h-2.69v-6.41c0-.44-.06-.79-.19-1.04s-.31-.42-.55-.52c-.24-.11-.53-.16-.87-.16-.36 0-.67.07-.94.21s-.48.34-.65.59a2.8 2.8 0 0 0-.38.87c-.09.33-.13.69-.13 1.08zm14.78-4.67H907v9.7c0 .92-.2 1.69-.61 2.33-.4.64-.96 1.13-1.69 1.46-.72.33-1.57.5-2.52.5a5.8 5.8 0 0 1-1.34-.17c-.46-.11-.91-.28-1.34-.52-.42-.24-.77-.53-1.06-.89l1.18-1.58c.31.36.67.64 1.08.83.41.2.86.31 1.35.31.48 0 .89-.09 1.23-.27.33-.17.59-.43.77-.77.18-.33.27-.74.27-1.21v-7.4l.26-2.32zm-6.75 5.14v-.19c0-.77.09-1.46.28-2.09.19-.63.46-1.17.81-1.62a3.7 3.7 0 0 1 1.28-1.05 3.8 3.8 0 0 1 1.7-.37c.67 0 1.23.12 1.68.37s.82.6 1.11 1.06c.29.45.52.99.68 1.61.17.61.3 1.28.39 2.01v.43c-.09.7-.23 1.35-.42 1.95s-.43 1.13-.73 1.58-.68.79-1.13 1.04c-.44.25-.98.37-1.59.37s-1.18-.13-1.68-.38c-.49-.25-.92-.61-1.27-1.07a5.1 5.1 0 0 1-.82-1.61c-.18-.62-.28-1.29-.28-2.02zm2.67-.19v.19a5.3 5.3 0 0 0 .12 1.16c.08.36.2.68.37.96a2 2 0 0 0 .64.64c.26.15.57.22.92.22.49 0 .89-.1 1.2-.31.31-.21.54-.5.7-.86s.24-.79.27-1.26v-1.21c-.01-.39-.06-.74-.16-1.05-.09-.31-.22-.58-.39-.81s-.38-.4-.65-.52-.58-.19-.95-.19c-.35 0-.66.08-.92.24-.25.16-.47.37-.64.64-.17.27-.29.59-.38.96a5.1 5.1 0 0 0-.13 1.19z" class="B"/></g></g><rect x="1" y="1" width="1138" height="638" rx="15" stroke="#0668e1" stroke-width="2"/><defs><filter id="G" x="-4.75" y="56.41" width="332.5" height="98.56" filterUnits="userSpaceOnUse" color-interpolation-filters="sRGB"><feFlood flood-opacity="0" result="A"/><feColorMatrix in="SourceAlpha" values="0 0 0 0 0 0 0 0 0 0 0 0 0 0 0 0 0 0 127 0" result="B"/><feOffset dy="1.78125"/><feGaussianBlur stdDeviation="2.38"/><feComposite in2="B" operator="out"/><feColorMatrix values="0 0 0 0 0 0 0 0 0 0 0 0 0 0 0 0 0 0 0.3 0"/><feBlend in2="A"/><feBlend in="SourceGraphic"/></filter><linearGradient id="H" x1="834.79" y1="465.52" x2="843.13" y2="65.26" href="#d"><stop stop-color="#ddecff"/><stop offset="1" stop-color="#eaf3ff"/></linearGradient><linearGradient id="I" x1="772.36" y1="207.09" x2="347.35" y2="606.15" href="#d"><stop stop-color="#e0eeff"/><stop offset="1" stop-color="#f9f9f9"/></linearGradient><linearGradient id="J" x1="1113.55" y1="343.58" x2="810.9" y2="581.48" href="#d"><stop stop-color="#d6e8ff"/><stop offset="1" stop-color="#cfe4ff"/></linearGradient><linearGradient id="K" x1="937.16" y1="279.2" x2="937.16" y2="309.96" href="#d"><stop stop-color="#6eaefd"/><stop offset="1" stop-color="#0776ff"/></linearGradient><linearGradient id="L" x1="904.55" y1="294.44" x2="904.55" y2="300.59" href="#d"><stop stop-color="#7995fd"/><stop offset="1" stop-color="#54deff"/></linearGradient><linearGradient id="M" x1="906.39" y1="290.33" x2="906.39" y2="288.11" href="#d"><stop stop-color="#00004f"/><stop offset="1" stop-color="#000079"/></linearGradient><linearGradient id="N" x1="899.78" y1="294.44" x2="899.78" y2="300.58" href="#d"><stop stop-color="#7995fd"/><stop offset="1" stop-color="#54deff"/></linearGradient><linearGradient id="O" x1="908.9" y1="294.44" x2="908.9" y2="300.59" href="#d"><stop stop-color="#7995fd"/><stop offset="1" stop-color="#54deff"/></linearGradient><linearGradient id="P" x1="904.81" y1="290.33" x2="904.81" y2="288.11" href="#d"><stop stop-color="#00004f"/><stop offset="1" stop-color="#000079"/></linearGradient><linearGradient id="Q" x1="902.43" y1="290.34" x2="902.43" y2="288.12" href="#d"><stop stop-color="#00004f"/><stop offset="1" stop-color="#000079"/></linearGradient><linearGradient id="R" x1="908.18" y1="296.87" x2="908.18" y2="300.9" href="#d"><stop stop-color="#d1d3d4"/><stop offset="1" stop-color="#a7a9ac"/></linearGradient><linearGradient id="S" x1="900.67" y1="296.87" x2="900.67" y2="300.9" href="#d"><stop stop-color="#d1d3d4"/><stop offset="1" stop-color="#a7a9ac"/></linearGradient><linearGradient id="T" x1="902.75" y1="293.84" x2="904.13" y2="295.28" href="#d"><stop stop-color="#7995fd"/><stop offset="1" stop-color="#54deff"/></linearGradient><linearGradient id="U" x1="906.15" y1="293.85" x2="904.73" y2="295.27" href="#d"><stop stop-color="#7995fd"/><stop offset="1" stop-color="#54deff"/></linearGradient><linearGradient id="V" x1="913.6" y1="290.94" x2="908.65" y2="286.68" href="#d"><stop stop-color="#84cf9b"/><stop offset="1" stop-color="#79d3fd"/></linearGradient><clipPath id="W"><rect width="1140" height="640" rx="16" class="B"/></clipPath><clipPath id="X"><path transform="translate(665 141.5)" d="M0 0h356.25v356.25H0z" class="B"/></clipPath><path id="Y" d="M817 336.45l17.35.51c5.15.15 9.33 4.35 9.33 9.37v40.93"/><path id="Z" d="M892.43 338.22h3.29c0-.36-.29-.65-.65-.65h-1.97c-.36 0-.65.29-.65.65h-.01z"/><path id="a" d="M889.15 338.22h3.28c0-.36-.29-.65-.65-.65h-1.97c-.36 0-.65.29-.65.65z"/><path id="b" d="M833.87 266.58h80.05a2.1 2.1 0 0 1 2.13 2.37l-5.61 54.15a2.7 2.7 0 0 1-2.62 2.37h-80.05a2.1 2.1 0 0 1-2.13-2.37l5.61-54.15a2.7 2.7 0 0 1 2.62-2.37z"/><path id="c" d="M974.7 299.74h-50.77c-.85 0-1.53-.32-1.53-.72s.69-.72 1.53-.72h50.77c.85 0 1.53.32 1.53.72s-.69.72-1.53.72z"/><linearGradient id="d" gradientUnits="userSpaceOnUse"/></defs></svg>