<svg xmlns="http://www.w3.org/2000/svg" width="1140" height="640" fill="none" xmlns:v="https://vecta.io/nano"><style><![CDATA[.B{fill:#fff}.C{fill:#151823}.D{fill:#cc9987}.E{opacity:.5}.F{stroke-linecap:round}.G{stroke-linejoin:round}.H{fill:#0668e1}.I{fill:#f0bb8f}.J{fill:#eaa387}.K{fill:#110909}.L{fill:#282a35}.M{fill:#dce1e5}.N{stroke:#141b25}.O{stroke-width:.17}.P{fill:#af664b}.Q{fill:#412332}.R{fill:#8a3f24}.S{fill:#7e7982}.T{fill:#dbb2a5}.U{fill:#2a2e44}.V{fill:#343852}.W{fill:#2a4579}.X{fill:#8f8894}.Y{stroke-width:.18}.Z{fill:#102b8c}.a{fill:#bf845c}]]></style><g clip-path="url(#J)"><rect width="1140" height="640" rx="16" class="B"/><path d="M0 0h1140v690.63H0V0z" fill="#f1f7ff"/><mask id="A" maskUnits="userSpaceOnUse" x="534" y="0" width="606" height="691"><path d="M534.61 690.63c70.39-334.13 465.65-272.9 486.8-657.16.62-11.25-.44-22.43-1.3-33.47H1140v377.35 313.28H534.61z" class="B"/></mask><g mask="url(#A)"><path d="M534.61 0H1140v690.63H534.61V0z" fill="url(#G)"/></g><mask id="B" maskUnits="userSpaceOnUse" x="227" y="0" width="795" height="691"><path d="M949.27 0h70.83a426.2 426.2 0 0 1 1.31 33.47c0 393.68-364.1 321.95-434.72 657.16H227.75C339.82 213.68 793.03 429.99 949.27 0z" class="B"/></mask><g mask="url(#B)"><path d="M227.75 0h793.67v690.63H227.75V0z" fill="url(#H)"/></g><mask id="C" maskUnits="userSpaceOnUse" x="724" y="280" width="416" height="411"><path d="M1140 280.42v96.93 313.28H724.84C832.35 514.3 1062.09 487.47 1140 280.42z" class="B"/></mask><g mask="url(#C)"><path d="M724.84 280.3H1140v410.21H724.84V280.3z" fill="url(#I)"/></g><path d="M129.38 226.48h-5.65l-.03-3.47h4.58c.82 0 1.48-.09 1.97-.27.49-.19.85-.47 1.07-.83.23-.36.35-.81.35-1.36 0-.62-.12-1.13-.35-1.51s-.6-.66-1.1-.83c-.49-.18-1.13-.27-1.92-.27h-2.59v17.86h-5.29v-21.95h7.88a15.9 15.9 0 0 1 3.63.38 7.9 7.9 0 0 1 2.71 1.12 5 5 0 0 1 1.72 1.9 5.7 5.7 0 0 1 .59 2.67 5.7 5.7 0 0 1-.57 2.52 4.4 4.4 0 0 1-1.92 1.91c-.88.48-2.1.73-3.63.75l-1.46 1.37zm-.21 9.33h-6.72l1.81-4.07h4.91c.72 0 1.3-.11 1.73-.33.44-.23.76-.53.95-.9.2-.38.3-.8.3-1.27 0-.56-.09-1.05-.29-1.46-.18-.41-.47-.73-.87-.95-.4-.23-.94-.35-1.61-.35h-4.45l.03-3.47h5.32l1.24 1.39c1.47-.06 2.63.15 3.48.62.86.47 1.48 1.1 1.85 1.87s.56 1.58.56 2.43a6.5 6.5 0 0 1-.93 3.6c-.61.97-1.53 1.69-2.76 2.17a12.5 12.5 0 0 1-4.55.72zm20.47-3.96V219.5h5.1v16.31h-4.76l-.33-3.96zm.48-3.32l1.33-.03c0 1.09-.13 2.11-.39 3.04-.26.93-.65 1.73-1.16 2.41a5.3 5.3 0 0 1-1.87 1.6c-.73.37-1.58.56-2.55.56-.8 0-1.54-.11-2.22-.33a4.5 4.5 0 0 1-1.72-1.07c-.48-.49-.86-1.12-1.13-1.88a8.7 8.7 0 0 1-.39-2.77V219.5h5.08v10.58c0 .36.05.67.14.93a1.8 1.8 0 0 0 .39.66 1.7 1.7 0 0 0 .63.39c.26.08.56.12.89.12.76 0 1.36-.16 1.79-.48a2.5 2.5 0 0 0 .9-1.31 6 6 0 0 0 .27-1.87zm12.78-9.03v16.31h-5.1V219.5h5.1zm-5.4-4.21c0-.72.26-1.32.78-1.78s1.2-.69 2.03-.69 1.51.23 2.03.69.78 1.06.78 1.78-.26 1.32-.78 1.78-1.2.69-2.03.69-1.51-.23-2.03-.69-.78-1.06-.78-1.78zm13.9-2.64v23.16h-5.09v-23.16h5.09zm12.51 19.42v-19.42h5.11v23.16h-4.58l-.53-3.74zm-10.01-4.22v-.32a13.1 13.1 0 0 1 .41-3.38c.27-1.03.67-1.91 1.21-2.64.53-.74 1.2-1.32 1.99-1.72a6 6 0 0 1 2.74-.6 4.5 4.5 0 0 1 2.43.65c.69.42 1.29 1.01 1.78 1.78s.89 1.66 1.21 2.68c.31 1.01.55 2.11.71 3.29v.38c-.16 1.11-.4 2.15-.71 3.14-.31.97-.71 1.84-1.21 2.59a5.7 5.7 0 0 1-1.79 1.78 4.6 4.6 0 0 1-2.44.63c-1.04 0-1.95-.21-2.74-.62a5.6 5.6 0 0 1-1.98-1.73c-.52-.74-.92-1.62-1.19-2.62a12.6 12.6 0 0 1-.41-3.29zm5.08-.32v.32c0 .61.04 1.18.12 1.7s.22.98.41 1.39c.2.39.46.7.78.92.33.22.74.33 1.22.33.65 0 1.19-.16 1.61-.47.43-.31.75-.75.95-1.33.21-.57.3-1.25.27-2.02v-1.19c.02-.66-.03-1.25-.14-1.75-.11-.51-.29-.94-.53-1.28-.23-.34-.53-.6-.89-.77a2.7 2.7 0 0 0-1.25-.27c-.47 0-.87.11-1.21.33-.32.22-.58.53-.78.94a4.8 4.8 0 0 0-.44 1.4c-.09.53-.14 1.12-.14 1.75zm29.81-1.06h-5.65l-.03-3.47h4.58c.82 0 1.48-.09 1.97-.27.49-.19.85-.47 1.07-.83.23-.36.35-.81.35-1.36 0-.62-.12-1.13-.35-1.51s-.6-.66-1.1-.83c-.49-.18-1.13-.27-1.91-.27h-2.59v17.86h-5.29v-21.95h7.88a15.9 15.9 0 0 1 3.63.38c1.06.24 1.97.61 2.71 1.12a5 5 0 0 1 1.72 1.9 5.7 5.7 0 0 1 .59 2.67c0 .89-.19 1.73-.57 2.52a4.4 4.4 0 0 1-1.91 1.91c-.88.48-2.1.73-3.63.75l-1.46 1.37zm-.21 9.33h-6.72l1.81-4.07h4.92c.72 0 1.3-.11 1.73-.33.44-.23.76-.53.95-.9.2-.38.3-.8.3-1.27 0-.56-.09-1.05-.29-1.46-.18-.41-.47-.73-.87-.95-.4-.23-.94-.35-1.61-.35h-4.45l.03-3.47h5.32l1.24 1.39c1.47-.06 2.63.15 3.48.62a4.2 4.2 0 0 1 1.86 1.87c.37.77.56 1.58.56 2.43a6.5 6.5 0 0 1-.93 3.6c-.61.97-1.53 1.69-2.76 2.17a12.5 12.5 0 0 1-4.55.72zm18.85.3c-1.33 0-2.51-.21-3.56-.62-1.04-.42-1.93-1-2.65-1.73a7.7 7.7 0 0 1-1.64-2.53c-.37-.95-.56-1.96-.56-3.03v-.57a10.6 10.6 0 0 1 .5-3.32c.33-1.03.82-1.92 1.48-2.68a6.6 6.6 0 0 1 2.46-1.78 8.5 8.5 0 0 1 3.44-.65c1.16 0 2.19.19 3.1.56a6.3 6.3 0 0 1 2.32 1.6c.64.69 1.13 1.53 1.46 2.52.34.99.51 2.09.51 3.32v2.07h-13.33v-3.18h8.37v-.39c.01-.54-.09-1-.29-1.39-.19-.38-.47-.67-.84-.87s-.82-.3-1.36-.3c-.55 0-1.01.12-1.37.36-.35.24-.63.57-.83 1a5.2 5.2 0 0 0-.41 1.43c-.08.54-.12 1.12-.12 1.72v.57c0 .6.08 1.15.24 1.64.17.49.41.91.72 1.27a3.4 3.4 0 0 0 1.15.8 3.9 3.9 0 0 0 1.54.29 5.6 5.6 0 0 0 2.05-.39 4.1 4.1 0 0 0 1.73-1.3l2.31 2.74a6 6 0 0 1-1.42 1.37c-.6.44-1.33.8-2.17 1.08-.84.27-1.79.41-2.83.41zm14.29-23.46v23.16h-5.09v-23.16h5.09zm2.5 15.17v-.32a10.2 10.2 0 0 1 .51-3.3 7.5 7.5 0 0 1 1.51-2.64c.66-.74 1.48-1.32 2.46-1.73.97-.42 2.1-.63 3.38-.63 1.29 0 2.42.21 3.39.63.99.41 1.81.99 2.47 1.73a7.5 7.5 0 0 1 1.51 2.64 10.2 10.2 0 0 1 .51 3.3v.32a10.3 10.3 0 0 1-.51 3.3 7.7 7.7 0 0 1-1.51 2.64c-.66.74-1.48 1.32-2.46 1.73a8.6 8.6 0 0 1-3.38.62c-1.28 0-2.41-.21-3.39-.62s-1.81-.99-2.47-1.73a7.7 7.7 0 0 1-1.51-2.64 10.3 10.3 0 0 1-.51-3.3zm5.08-.32v.32c0 .61.05 1.19.14 1.72a4.7 4.7 0 0 0 .45 1.4c.21.39.5.7.86.92s.81.33 1.36.33c.53 0 .97-.11 1.33-.33.36-.22.65-.53.86-.92.21-.4.36-.87.45-1.4s.14-1.11.14-1.72v-.32c0-.59-.05-1.15-.14-1.67a4.7 4.7 0 0 0-.45-1.4c-.21-.41-.5-.73-.86-.96s-.81-.35-1.36-.35c-.53 0-.98.12-1.34.35-.35.23-.63.55-.84.96a4.7 4.7 0 0 0-.45 1.4c-.09.52-.14 1.08-.14 1.67zm17.91-4.52v12.83h-5.08V219.5h4.76l.32 3.48zm-.6 4.12l-1.19.03c0-1.25.15-2.36.45-3.33.3-.98.73-1.82 1.28-2.5s1.21-1.2 1.98-1.55a6 6 0 0 1 2.58-.54c.75 0 1.44.11 2.06.33.63.22 1.18.58 1.63 1.07a4.8 4.8 0 0 1 1.06 1.96c.25.8.38 1.8.38 2.98v10.27h-5.11v-10.28c0-.65-.09-1.15-.27-1.49-.18-.35-.44-.59-.78-.72a3.5 3.5 0 0 0-1.25-.2 2.7 2.7 0 0 0-1.33.3c-.36.2-.65.48-.87.84a4 4 0 0 0-.47 1.25c-.09.48-.14 1.01-.14 1.58zm23.29-7.6h4.61v15.68c0 1.51-.35 2.78-1.04 3.83-.69 1.06-1.66 1.85-2.91 2.4-1.24.55-2.68.83-4.34.83-.73 0-1.48-.1-2.25-.29-.76-.18-1.48-.45-2.14-.81s-1.22-.81-1.67-1.34l2.13-2.99a5.3 5.3 0 0 0 1.55 1.18 4.6 4.6 0 0 0 2.2.5 3.9 3.9 0 0 0 1.84-.39c.5-.26.88-.64 1.15-1.15.26-.49.39-1.09.39-1.79v-11.79l.48-3.86zm-10.84 8.35v-.32c0-1.24.15-2.36.45-3.38.31-1.03.75-1.91 1.33-2.64a6 6 0 0 1 2.11-1.72c.82-.4 1.75-.6 2.79-.6 1.12 0 2.03.22 2.74.65.72.42 1.3 1.01 1.73 1.78.44.76.78 1.66 1.02 2.68l.63 3.29v.38c-.17 1.11-.41 2.15-.71 3.14a10.6 10.6 0 0 1-1.15 2.59c-.47.75-1.06 1.35-1.78 1.78-.7.42-1.55.63-2.53.63a6.1 6.1 0 0 1-2.77-.62 6.2 6.2 0 0 1-2.1-1.73c-.57-.74-1.01-1.62-1.33-2.62a11.4 11.4 0 0 1-.45-3.29zm5.08-.32v.32c0 .61.06 1.18.17 1.7.12.52.3.98.54 1.39a2.8 2.8 0 0 0 .89.92c.36.22.78.33 1.27.33.73 0 1.33-.16 1.78-.47a2.6 2.6 0 0 0 .98-1.33c.2-.57.29-1.25.26-2.02v-1.19c.02-.66-.02-1.25-.14-1.75-.11-.51-.29-.94-.53-1.28-.23-.34-.54-.6-.94-.77-.38-.18-.84-.27-1.39-.27-.47 0-.89.11-1.25.33a2.7 2.7 0 0 0-.9.94 4.8 4.8 0 0 0-.56 1.4c-.12.53-.18 1.12-.18 1.75zm18.66-8.03v16.31h-5.1V219.5h5.1zm-5.4-4.21c0-.72.26-1.32.78-1.78s1.2-.69 2.03-.69 1.51.23 2.04.69.78 1.06.78 1.78-.26 1.32-.78 1.78-1.2.69-2.04.69-1.51-.23-2.03-.69-.78-1.06-.78-1.78zm13.52 7.69v12.83h-5.08V219.5h4.76l.32 3.48zm-.6 4.12l-1.19.03a11.3 11.3 0 0 1 .45-3.33c.3-.98.73-1.82 1.28-2.5s1.21-1.2 1.97-1.55a6 6 0 0 1 2.58-.54c.75 0 1.44.11 2.07.33.63.22 1.18.58 1.63 1.07a4.8 4.8 0 0 1 1.06 1.96c.25.8.38 1.8.38 2.98v10.27h-5.11v-10.28c0-.65-.09-1.15-.27-1.49-.18-.35-.44-.59-.78-.72a3.5 3.5 0 0 0-1.25-.2 2.7 2.7 0 0 0-1.33.3c-.36.2-.65.48-.87.84a4 4 0 0 0-.47 1.25c-.09.48-.13 1.01-.13 1.58zm23.29-7.6h4.61v15.68c0 1.51-.35 2.78-1.04 3.83a6.5 6.5 0 0 1-2.91 2.4c-1.24.55-2.68.83-4.34.83-.73 0-1.48-.1-2.25-.29a8.6 8.6 0 0 1-2.14-.81c-.66-.36-1.22-.81-1.67-1.34l2.13-2.99a5.3 5.3 0 0 0 1.55 1.18 4.6 4.6 0 0 0 2.2.5 3.9 3.9 0 0 0 1.84-.39c.5-.26.88-.64 1.15-1.15.26-.49.39-1.09.39-1.79v-11.79l.48-3.86zm-10.84 8.35v-.32a11.8 11.8 0 0 1 .45-3.38 8 8 0 0 1 1.33-2.64 6 6 0 0 1 2.11-1.72c.82-.4 1.75-.6 2.79-.6 1.11 0 2.03.22 2.74.65a4.7 4.7 0 0 1 1.73 1.78 9.8 9.8 0 0 1 1.02 2.68l.63 3.29v.38c-.17 1.11-.41 2.15-.71 3.14a10.5 10.5 0 0 1-1.15 2.59c-.47.75-1.07 1.35-1.78 1.78-.7.42-1.55.63-2.53.63a6.1 6.1 0 0 1-2.77-.62 6.2 6.2 0 0 1-2.1-1.73c-.57-.74-1.01-1.62-1.33-2.62a11.4 11.4 0 0 1-.45-3.29zm5.08-.32v.32a8.2 8.2 0 0 0 .17 1.7c.12.52.3.98.54 1.39a2.8 2.8 0 0 0 .89.92c.36.22.78.33 1.27.33.73 0 1.33-.16 1.78-.47a2.6 2.6 0 0 0 .98-1.33c.2-.57.29-1.25.26-2.02v-1.19c.02-.66-.03-1.25-.14-1.75-.11-.51-.29-.94-.53-1.28-.23-.34-.54-.6-.94-.77-.38-.18-.84-.27-1.39-.27-.47 0-.89.11-1.25.33a2.7 2.7 0 0 0-.9.94c-.24.39-.43.86-.56 1.4a7.9 7.9 0 0 0-.18 1.75zm30.18-1.06h-5.65l-.03-3.47h4.58c.82 0 1.48-.09 1.97-.27.49-.19.85-.47 1.07-.83.23-.36.35-.81.35-1.36 0-.62-.12-1.13-.35-1.51s-.6-.66-1.1-.83c-.49-.18-1.13-.27-1.92-.27h-2.59v17.86h-5.29v-21.95h7.88a15.9 15.9 0 0 1 3.63.38 7.9 7.9 0 0 1 2.71 1.12 5 5 0 0 1 1.72 1.9 5.7 5.7 0 0 1 .59 2.67 5.7 5.7 0 0 1-.57 2.52 4.4 4.4 0 0 1-1.92 1.91c-.88.48-2.1.73-3.63.75l-1.46 1.37zm-.21 9.33h-6.72l1.81-4.07h4.91c.72 0 1.3-.11 1.73-.33.44-.23.76-.53.95-.9.2-.38.3-.8.3-1.27 0-.56-.09-1.05-.29-1.46-.18-.41-.47-.73-.87-.95-.4-.23-.94-.35-1.61-.35h-4.45l.03-3.47h5.32l1.24 1.39c1.47-.06 2.63.15 3.48.62.86.47 1.48 1.1 1.85 1.87s.56 1.58.56 2.43a6.5 6.5 0 0 1-.94 3.6c-.61.97-1.53 1.69-2.76 2.17a12.5 12.5 0 0 1-4.55.72zm18.85.3c-1.33 0-2.51-.21-3.56-.62-1.05-.42-1.93-1-2.65-1.73a7.7 7.7 0 0 1-1.64-2.53 8.3 8.3 0 0 1-.56-3.03v-.57c0-1.2.17-2.3.5-3.32.33-1.03.82-1.92 1.48-2.68a6.6 6.6 0 0 1 2.46-1.78 8.5 8.5 0 0 1 3.44-.65 8.2 8.2 0 0 1 3.11.56 6.3 6.3 0 0 1 2.32 1.6c.64.69 1.13 1.53 1.46 2.52a10.1 10.1 0 0 1 .51 3.32v2.07h-13.33v-3.18h8.37v-.39c.01-.54-.08-1-.29-1.39-.19-.38-.47-.67-.84-.87s-.82-.3-1.36-.3c-.55 0-1.01.12-1.37.36-.35.24-.63.57-.83 1a5.2 5.2 0 0 0-.41 1.43c-.08.54-.12 1.12-.12 1.72v.57a5.3 5.3 0 0 0 .24 1.64c.17.49.41.91.72 1.27a3.4 3.4 0 0 0 1.15.8c.45.19.97.29 1.54.29a5.6 5.6 0 0 0 2.05-.39 4.1 4.1 0 0 0 1.73-1.3l2.31 2.74a6 6 0 0 1-1.42 1.37c-.6.44-1.33.8-2.17 1.08-.84.27-1.79.41-2.83.41zm15.15-.3h-5.11v-17.64c0-1.27.26-2.33.77-3.2a4.9 4.9 0 0 1 2.17-1.96c.94-.45 2.04-.68 3.32-.68.44 0 .86.03 1.25.09l1.15.23.01 3.74c-.18-.05-.37-.09-.56-.11a7 7 0 0 0-.71-.03 3.1 3.1 0 0 0-1.25.23c-.34.14-.6.36-.78.65-.17.28-.26.63-.26 1.04v17.64zM395 219.5v3.53h-10.63v-3.53H395zm1.19 8.32v-.32a10.2 10.2 0 0 1 .51-3.3c.34-1.02.85-1.89 1.51-2.64s1.48-1.32 2.46-1.73c.97-.42 2.1-.63 3.38-.63 1.29 0 2.42.21 3.39.63.98.41 1.81.99 2.47 1.73a7.5 7.5 0 0 1 1.51 2.64 10.2 10.2 0 0 1 .51 3.3v.32a10.3 10.3 0 0 1-.51 3.3 7.7 7.7 0 0 1-1.51 2.64c-.66.74-1.48 1.32-2.46 1.73a8.6 8.6 0 0 1-3.38.62c-1.28 0-2.41-.21-3.39-.62s-1.81-.99-2.47-1.73a7.7 7.7 0 0 1-1.51-2.64 10.3 10.3 0 0 1-.51-3.3zm5.08-.32v.32c0 .61.05 1.19.14 1.72s.24 1 .45 1.4c.21.39.5.7.86.92s.81.33 1.36.33c.53 0 .98-.11 1.33-.33.36-.22.65-.53.86-.92a4.7 4.7 0 0 0 .45-1.4c.09-.53.13-1.11.13-1.72v-.32c0-.59-.05-1.15-.13-1.67a4.7 4.7 0 0 0-.45-1.4c-.21-.41-.5-.73-.86-.96s-.81-.35-1.36-.35c-.53 0-.98.12-1.34.35-.35.23-.63.55-.85.96a4.7 4.7 0 0 0-.45 1.4c-.09.52-.14 1.08-.14 1.67zm18.05-3.97v12.27h-5.08V219.5h4.75l.33 4.04zm4.82-4.16l-.09 4.72-.81-.08-.86-.04c-.59 0-1.11.07-1.54.21a2.6 2.6 0 0 0-1.06.6c-.27.26-.47.59-.6 1a4.6 4.6 0 0 0-.17 1.4l-.92-.6c0-1.09.1-2.09.32-2.99.22-.9.53-1.68.94-2.34.4-.66.89-1.17 1.46-1.52.57-.36 1.22-.54 1.93-.54a6 6 0 0 1 .74.04c.25.03.47.08.66.14zm9.35 16.73c-1.33 0-2.51-.21-3.56-.62-1.05-.42-1.93-1-2.65-1.73a7.7 7.7 0 0 1-1.64-2.53c-.37-.95-.56-1.96-.56-3.03v-.57c0-1.2.17-2.3.5-3.32.33-1.03.82-1.92 1.48-2.68a6.6 6.6 0 0 1 2.46-1.78 8.5 8.5 0 0 1 3.44-.65 8.2 8.2 0 0 1 3.11.56 6.3 6.3 0 0 1 2.32 1.6c.64.69 1.13 1.53 1.46 2.52.34.99.51 2.09.51 3.32v2.07h-13.33v-3.18h8.37v-.39c.01-.54-.09-1-.29-1.39-.19-.38-.47-.67-.84-.87s-.82-.3-1.36-.3c-.55 0-1.01.12-1.37.36-.35.24-.63.57-.83 1a5.2 5.2 0 0 0-.41 1.43c-.08.54-.12 1.12-.12 1.72v.57c0 .6.08 1.15.24 1.64.17.49.41.91.72 1.27a3.4 3.4 0 0 0 1.15.8c.45.19.97.29 1.54.29a5.6 5.6 0 0 0 2.05-.39 4.1 4.1 0 0 0 1.73-1.3l2.31 2.74a6 6 0 0 1-1.42 1.37 7.8 7.8 0 0 1-2.17 1.08c-.84.27-1.79.41-2.83.41zm23.99-.3h-4.87l.03-4.07h4.84c1.01 0 1.85-.24 2.55-.72a4.4 4.4 0 0 0 1.6-2.16c.37-.97.56-2.15.56-3.56v-.95c0-1.05-.1-1.98-.32-2.77a5.5 5.5 0 0 0-.91-2c-.4-.54-.9-.95-1.51-1.22-.59-.27-1.28-.41-2.05-.41h-4.88v-4.09h4.88a10.6 10.6 0 0 1 4.09.77c1.25.5 2.32 1.23 3.23 2.17a9.6 9.6 0 0 1 2.11 3.33 11.5 11.5 0 0 1 .75 4.25v.92c0 1.55-.25 2.97-.75 4.25-.49 1.29-1.19 2.4-2.1 3.33s-1.97 1.66-3.21 2.17c-1.23.5-2.57.75-4.04.75zm-1.84-21.95v21.95h-5.29v-21.95h5.29zm22.93 17.85v-6.72c0-.46-.06-.86-.2-1.19s-.34-.59-.62-.77c-.28-.19-.66-.29-1.13-.29-.38 0-.71.06-.98.2s-.48.33-.62.59-.21.59-.21.99h-5.08a4.5 4.5 0 0 1 .5-2.1c.34-.65.82-1.22 1.45-1.7a7 7 0 0 1 2.26-1.12c.88-.27 1.87-.41 2.95-.41 1.3 0 2.45.22 3.47.65 1.03.43 1.83 1.08 2.43 1.94.59.85.89 1.93.89 3.23v6.68c0 1.06.06 1.87.18 2.43.12.54.29 1.02.51 1.43v.26h-5.1a6.9 6.9 0 0 1-.54-1.84 15.2 15.2 0 0 1-.17-2.26zm.62-5.86l.03 2.71h-2.25a3.3 3.3 0 0 0-1.21.2c-.32.13-.58.31-.78.54-.19.22-.33.47-.42.75-.08.28-.12.58-.12.89 0 .3.07.57.21.81.15.23.35.41.6.54a1.8 1.8 0 0 0 .84.2c.56 0 1.04-.11 1.43-.32.4-.22.71-.49.92-.8s.32-.6.32-.87l1.12 2.08c-.2.4-.43.81-.69 1.22a5.3 5.3 0 0 1-.95 1.15 4.5 4.5 0 0 1-1.37.84c-.54.21-1.2.32-1.98.32-1 0-1.93-.21-2.77-.62-.83-.41-1.5-.99-2-1.72-.5-.74-.75-1.6-.75-2.56a5.4 5.4 0 0 1 .45-2.26c.31-.66.78-1.23 1.4-1.69s1.42-.81 2.38-1.06a14.2 14.2 0 0 1 3.41-.36h2.18zm12.08 8.05l4.22-14.4h5.46l-6.56 18.74c-.14.41-.33.85-.56 1.33a5.5 5.5 0 0 1-.95 1.37 4.5 4.5 0 0 1-1.55 1.06c-.62.27-1.4.41-2.32.41-.49 0-.86-.03-1.09-.08l-1.03-.23v-3.63h.33.33a4.1 4.1 0 0 0 1.3-.17c.33-.11.58-.27.75-.48.18-.21.32-.47.42-.77l1.24-3.15zm-1.07-14.4l3.21 11.41.56 5.38h-3.41l-5.81-16.79h5.44zm38.58 4.9v.89c0 1.68-.24 3.19-.71 4.52-.46 1.33-1.12 2.46-1.97 3.41-.85.94-1.86 1.65-3.03 2.16a9.8 9.8 0 0 1-3.86.74c-1.42 0-2.71-.25-3.89-.74a8.9 8.9 0 0 1-3.05-2.16 10 10 0 0 1-1.99-3.41c-.46-1.34-.69-2.84-.69-4.52v-.89c0-1.68.23-3.19.69-4.52.47-1.34 1.13-2.47 1.97-3.41a8.5 8.5 0 0 1 3.03-2.16 9.8 9.8 0 0 1 3.89-.75c1.41 0 2.69.25 3.86.75 1.18.49 2.19 1.21 3.05 2.16.85.94 1.52 2.07 1.99 3.41s.71 2.84.71 4.52zm-5.37.89v-.92c0-1.09-.09-2.04-.29-2.86-.18-.84-.45-1.53-.81-2.1s-.81-.98-1.34-1.27a3.6 3.6 0 0 0-1.79-.44 3.7 3.7 0 0 0-1.84.44 3.5 3.5 0 0 0-1.31 1.27c-.35.56-.62 1.26-.8 2.1a14.3 14.3 0 0 0-.26 2.86v.92c0 1.08.09 2.03.26 2.86a6.8 6.8 0 0 0 .8 2.1 3.7 3.7 0 0 0 1.33 1.3 3.8 3.8 0 0 0 1.85.44 3.6 3.6 0 0 0 3.11-1.73 6.5 6.5 0 0 0 .81-2.1 12.9 12.9 0 0 0 .29-2.86zm12.86-2.31v12.83h-5.08V219.5h4.76l.32 3.48zm-.6 4.12l-1.19.03a11.3 11.3 0 0 1 .45-3.33c.3-.98.73-1.82 1.28-2.5s1.21-1.2 1.98-1.55a6 6 0 0 1 2.58-.54c.75 0 1.44.11 2.06.33.63.22 1.18.58 1.63 1.07a4.8 4.8 0 0 1 1.05 1.96 10.1 10.1 0 0 1 .38 2.98v10.27h-5.11v-10.28c0-.65-.09-1.15-.27-1.49-.18-.35-.44-.59-.78-.72a3.5 3.5 0 0 0-1.25-.2 2.7 2.7 0 0 0-1.33.3c-.36.2-.65.48-.87.84-.21.35-.37.77-.47 1.25-.09.48-.14 1.01-.14 1.58zm20.94 9.02c-1.33 0-2.51-.21-3.56-.62-1.04-.42-1.93-1-2.65-1.73a7.7 7.7 0 0 1-1.64-2.53c-.37-.95-.56-1.96-.56-3.03v-.57c0-1.2.17-2.3.5-3.32.33-1.03.83-1.92 1.48-2.68a6.6 6.6 0 0 1 2.46-1.78 8.5 8.5 0 0 1 3.44-.65 8.2 8.2 0 0 1 3.11.56 6.3 6.3 0 0 1 2.32 1.6c.64.69 1.13 1.53 1.46 2.52.34.99.51 2.09.51 3.32v2.07h-13.33v-3.18h8.37v-.39c.01-.54-.09-1-.29-1.39-.19-.38-.47-.67-.84-.87s-.82-.3-1.36-.3c-.55 0-1.01.12-1.37.36-.35.24-.63.57-.83 1a5.2 5.2 0 0 0-.41 1.43c-.08.54-.12 1.12-.12 1.72v.57c0 .6.08 1.15.24 1.64.17.49.41.91.72 1.27a3.4 3.4 0 0 0 1.15.8c.45.19.97.29 1.54.29a5.6 5.6 0 0 0 2.05-.39 4.1 4.1 0 0 0 1.73-1.3l2.31 2.74a6 6 0 0 1-1.42 1.37 7.8 7.8 0 0 1-2.17 1.08c-.84.27-1.79.41-2.83.41zM142.41 263.6v42.21h-10.18V263.6h10.18zm12.7 0v7.86h-35.28v-7.86h35.28zm13.42-2.32v44.53h-9.77v-44.53h9.77zm-1.16 27.77l-2.29.06c0-2.2.27-4.23.81-6.09s1.31-3.47 2.32-4.84 2.21-2.44 3.62-3.19a9.8 9.8 0 0 1 4.7-1.13 12.8 12.8 0 0 1 4.23.67c1.29.45 2.41 1.16 3.33 2.15a9.7 9.7 0 0 1 2.17 3.86 18.7 18.7 0 0 1 .78 5.8v19.48h-9.83v-19.54c0-1.28-.18-2.26-.55-2.96-.35-.71-.85-1.21-1.51-1.48-.66-.29-1.46-.44-2.41-.44-1.14 0-2.07.19-2.78.58s-1.27.93-1.65 1.62c-.37.68-.62 1.48-.75 2.41a21.2 21.2 0 0 0-.2 3.04zm40.3 17.34c-2.55 0-4.83-.4-6.84-1.19a14.9 14.9 0 0 1-5.1-3.33 14.8 14.8 0 0 1-3.16-4.87 15.9 15.9 0 0 1-1.07-5.83v-1.1c0-2.3.32-4.43.96-6.38a14.9 14.9 0 0 1 2.84-5.16 12.7 12.7 0 0 1 4.73-3.42c1.89-.83 4.1-1.25 6.61-1.25 2.22 0 4.21.36 5.97 1.07s3.25 1.74 4.47 3.07a13.2 13.2 0 0 1 2.81 4.84c.66 1.89.99 4.02.99 6.38v3.97h-25.63v-6.12h16.09v-.75c.02-1.04-.16-1.93-.55-2.67a3.8 3.8 0 0 0-1.62-1.68c-.71-.39-1.58-.58-2.61-.58-1.06 0-1.94.23-2.64.7-.68.46-1.21 1.1-1.59 1.91-.37.79-.63 1.71-.78 2.75s-.23 2.15-.23 3.31v1.1c0 1.16.16 2.21.46 3.16.33.95.79 1.76 1.39 2.44.62.66 1.35 1.17 2.2 1.54.87.37 1.86.55 2.96.55 1.33 0 2.65-.25 3.94-.75s2.41-1.33 3.33-2.49l4.44 5.28a11.5 11.5 0 0 1-2.72 2.64c-1.16.85-2.55 1.55-4.18 2.09a17.8 17.8 0 0 1-5.45.78zm-49.98 47.47v1.71c0 3.23-.45 6.13-1.36 8.7a18.9 18.9 0 0 1-3.8 6.55c-1.64 1.8-3.59 3.18-5.83 4.15a18.9 18.9 0 0 1-7.42 1.42c-2.73 0-5.22-.47-7.48-1.42-2.24-.97-4.19-2.35-5.86-4.15-1.64-1.82-2.92-4-3.83-6.55-.89-2.57-1.33-5.47-1.33-8.7v-1.71c0-3.23.45-6.13 1.33-8.7.91-2.57 2.17-4.75 3.8-6.55 1.64-1.82 3.59-3.2 5.83-4.15 2.26-.97 4.75-1.45 7.48-1.45 2.71 0 5.18.48 7.42 1.45a16.3 16.3 0 0 1 5.86 4.15 18.9 18.9 0 0 1 3.83 6.55c.91 2.57 1.36 5.47 1.36 8.7zm-10.32 1.71v-1.77a24.6 24.6 0 0 0-.55-5.51c-.35-1.6-.87-2.95-1.57-4.03s-1.55-1.89-2.58-2.44c-1-.56-2.16-.84-3.45-.84-1.35 0-2.53.28-3.54.84-1.01.54-1.85 1.35-2.52 2.44a12.6 12.6 0 0 0-1.54 4.03 27.4 27.4 0 0 0-.49 5.51v1.77c0 2.07.17 3.9.49 5.51.35 1.59.86 2.93 1.54 4.03.7 1.1 1.55 1.93 2.55 2.49a7.3 7.3 0 0 0 3.57.84c1.29 0 2.44-.28 3.45-.84s1.85-1.39 2.52-2.49c.7-1.1 1.22-2.44 1.57-4.03.37-1.6.55-3.44.55-5.51zm27.11 20.24h-9.83v-33.92c0-2.44.49-4.48 1.48-6.15a9.4 9.4 0 0 1 4.17-3.77 14.5 14.5 0 0 1 6.38-1.3c.85 0 1.65.06 2.41.17l2.2.44.03 7.19c-.35-.1-.7-.16-1.07-.2s-.82-.06-1.36-.06c-.95 0-1.75.15-2.41.44a3.1 3.1 0 0 0-1.51 1.25c-.33.54-.49 1.21-.49 2v33.92zm6.09-31.37v6.79h-20.44v-6.79h20.44zm15.48 31.37h-9.83v-33.92c0-2.44.49-4.48 1.48-6.15a9.4 9.4 0 0 1 4.17-3.77 14.5 14.5 0 0 1 6.38-1.3c.85 0 1.65.06 2.41.17l2.2.44.03 7.19a6.7 6.7 0 0 0-1.07-.2c-.37-.04-.82-.06-1.36-.06-.95 0-1.75.15-2.41.44a3.1 3.1 0 0 0-1.51 1.25c-.33.54-.49 1.21-.49 2v33.92zm6.09-31.37v6.79h-20.44v-6.79h20.44zm18 31.95c-2.55 0-4.83-.4-6.84-1.19a14.9 14.9 0 0 1-5.1-3.33 14.8 14.8 0 0 1-3.16-4.87 15.9 15.9 0 0 1-1.07-5.83v-1.1c0-2.3.32-4.43.96-6.38a14.9 14.9 0 0 1 2.84-5.16 12.7 12.7 0 0 1 4.72-3.42c1.89-.83 4.1-1.25 6.61-1.25 2.22 0 4.21.36 5.97 1.07s3.25 1.74 4.46 3.07a13.2 13.2 0 0 1 2.81 4.84c.66 1.89.99 4.02.99 6.38v3.97H207.7v-6.12h16.09v-.75c.02-1.04-.16-1.93-.55-2.67a3.8 3.8 0 0 0-1.62-1.68c-.72-.39-1.59-.58-2.61-.58-1.06 0-1.94.23-2.64.7-.68.46-1.21 1.1-1.59 1.91-.37.79-.63 1.71-.78 2.75a22.5 22.5 0 0 0-.23 3.31v1.1c0 1.16.15 2.21.46 3.16.33.95.79 1.76 1.39 2.44a6.6 6.6 0 0 0 2.2 1.54c.87.37 1.85.55 2.96.55 1.33 0 2.65-.25 3.94-.75a7.9 7.9 0 0 0 3.33-2.49l4.44 5.28c-.64.91-1.55 1.79-2.73 2.64-1.16.85-2.55 1.55-4.17 2.09a17.8 17.8 0 0 1-5.45.78zm27.02-24.18v23.6h-9.77v-31.37h9.13l.64 7.77zm9.28-8l-.17 9.07-1.57-.14-1.65-.09c-1.14 0-2.13.14-2.96.41a5 5 0 0 0-2.03 1.16c-.52.5-.91 1.14-1.16 1.91-.23.77-.34 1.67-.32 2.7l-1.77-1.16c0-2.11.2-4.02.61-5.74a15.6 15.6 0 0 1 1.8-4.49c.77-1.28 1.71-2.25 2.81-2.93a6.8 6.8 0 0 1 3.71-1.04c.48 0 .96.03 1.42.09.48.06.91.14 1.28.26zm53.87-10.61v42.21h-10.15l-14.93-26.27v26.27h-10.18V333.6h10.18l14.93 26.27V333.6h10.15zm4.75 26.85v-.61a19.6 19.6 0 0 1 .99-6.35c.66-1.95 1.62-3.64 2.9-5.07s2.85-2.54 4.73-3.33c1.88-.81 4.04-1.22 6.49-1.22 2.47 0 4.65.41 6.52 1.22 1.89.79 3.48 1.9 4.75 3.33s2.24 3.12 2.9 5.07a19.6 19.6 0 0 1 .99 6.35v.61c0 2.28-.33 4.4-.99 6.35a14.8 14.8 0 0 1-2.9 5.07c-1.27 1.43-2.85 2.54-4.73 3.33s-4.04 1.19-6.5 1.19a16.8 16.8 0 0 1-6.52-1.19c-1.89-.79-3.48-1.9-4.75-3.33a14.8 14.8 0 0 1-2.9-5.07c-.66-1.95-.99-4.07-.99-6.35zm9.77-.61v.61c0 1.18.09 2.28.26 3.31a9 9 0 0 0 .87 2.7c.41.75.96 1.34 1.65 1.77s1.57.64 2.61.64c1.03 0 1.88-.21 2.55-.64.7-.43 1.25-1.01 1.65-1.77a9 9 0 0 0 .87-2.7c.17-1.02.26-2.13.26-3.31v-.61c0-1.14-.09-2.21-.26-3.22a9 9 0 0 0-.87-2.7c-.41-.79-.96-1.41-1.65-1.86s-1.57-.67-2.61-.67a4.7 4.7 0 0 0-2.58.67c-.68.44-1.22 1.06-1.62 1.86a9 9 0 0 0-.87 2.7c-.17 1-.26 2.08-.26 3.22zm43.92-6v7.57h-17.42v-7.57h17.42zM392.84 367c0-.54-.18-1-.55-1.39a4.5 4.5 0 0 0-1.86-1.1c-.89-.35-2.14-.7-3.74-1.04a26.7 26.7 0 0 1-4.32-1.31 14.9 14.9 0 0 1-3.51-1.97 8.7 8.7 0 0 1-2.38-2.75c-.56-1.06-.84-2.28-.84-3.65 0-1.33.28-2.59.84-3.77.58-1.2 1.42-2.25 2.52-3.16a12.3 12.3 0 0 1 4.09-2.18 17.1 17.1 0 0 1 5.48-.81c2.82 0 5.26.44 7.31 1.3 2.05.85 3.62 2.05 4.73 3.59 1.12 1.53 1.68 3.3 1.68 5.31h-9.77c0-.79-.14-1.47-.41-2.03-.25-.56-.67-.99-1.25-1.27-.58-.31-1.35-.46-2.32-.46-.68 0-1.3.13-1.86.38-.54.25-.98.6-1.3 1.04s-.49.97-.49 1.57c0 .43.1.81.29 1.16.21.33.53.64.96.93.43.27.97.52 1.62.75a19.5 19.5 0 0 0 2.38.58 32.4 32.4 0 0 1 5.91 1.65c1.84.72 3.32 1.73 4.46 3.05 1.16 1.31 1.74 3.08 1.74 5.31 0 1.39-.32 2.68-.96 3.86a9.6 9.6 0 0 1-2.75 3.07c-1.2.87-2.64 1.55-4.32 2.03s-3.58.72-5.68.72c-3 0-5.53-.53-7.6-1.59-2.07-1.08-3.63-2.44-4.7-4.06-1.04-1.64-1.56-3.3-1.56-4.99h9.1c.04.97.27 1.76.7 2.38a3.9 3.9 0 0 0 1.77 1.36 6.9 6.9 0 0 0 2.55.44c.89 0 1.62-.12 2.2-.38.6-.25 1.05-.59 1.36-1.01.31-.44.46-.96.46-1.54zm23.57-35.72v44.53h-9.77v-44.53h9.77zm-1.16 27.77l-2.29.06c0-2.2.27-4.23.81-6.09s1.31-3.47 2.32-4.84 2.21-2.44 3.62-3.19a9.8 9.8 0 0 1 4.7-1.13 12.8 12.8 0 0 1 4.23.67c1.3.45 2.41 1.16 3.33 2.15a9.7 9.7 0 0 1 2.18 3.86 18.7 18.7 0 0 1 .78 5.8v19.48h-9.83v-19.54c0-1.28-.18-2.26-.55-2.96-.35-.71-.85-1.21-1.51-1.48-.66-.29-1.46-.44-2.41-.44-1.14 0-2.07.19-2.78.58s-1.27.93-1.65 1.62c-.37.68-.62 1.48-.75 2.41a21.2 21.2 0 0 0-.2 3.04zm23.89 1.39v-.61a19.6 19.6 0 0 1 .99-6.35c.66-1.95 1.62-3.64 2.9-5.07s2.85-2.54 4.73-3.33c1.88-.81 4.04-1.22 6.49-1.22a16.3 16.3 0 0 1 6.52 1.22 13 13 0 0 1 4.75 3.33c1.28 1.43 2.24 3.12 2.9 5.07a19.6 19.6 0 0 1 .99 6.35v.61a19.8 19.8 0 0 1-.99 6.35 14.8 14.8 0 0 1-2.9 5.07c-1.28 1.43-2.85 2.54-4.73 3.33s-4.04 1.19-6.49 1.19a16.8 16.8 0 0 1-6.52-1.19 13 13 0 0 1-4.75-3.33 14.8 14.8 0 0 1-2.9-5.07 19.8 19.8 0 0 1-.99-6.35zm9.77-.61v.61c0 1.18.09 2.28.26 3.31a9 9 0 0 0 .87 2.7c.41.75.96 1.34 1.65 1.77s1.56.64 2.61.64a4.7 4.7 0 0 0 2.55-.64c.7-.43 1.25-1.01 1.65-1.77a9 9 0 0 0 .87-2.7c.17-1.02.26-2.13.26-3.31v-.61c0-1.14-.09-2.21-.26-3.22a9 9 0 0 0-.87-2.7c-.41-.79-.96-1.41-1.65-1.86s-1.56-.67-2.61-.67a4.7 4.7 0 0 0-2.58.67c-.68.44-1.22 1.06-1.62 1.86a9 9 0 0 0-.87 2.7c-.17 1-.26 2.08-.26 3.22zm34.38 6.64l5.8-22.03h6.12l-2.17 11.05-5.74 20.32h-4.9l.9-9.34zM481 344.44l3.6 21.86.41 9.51h-5.94l-7.42-31.37H481zm19.37 21.4l3.62-21.4h9.36l-7.36 31.37h-5.94l.32-9.97zm-4.46-21.4l5.86 21.98.9 9.39h-4.96l-5.62-20.26-2.09-11.1h5.91zM127.01 403.6h8.29l9.42 29.37 9.42-29.37h8.29l-14.35 42.21h-6.73l-14.35-42.21zm-5.05 0h8.58l1.59 32.35v9.86h-10.18V403.6zm36.94 0h8.61v42.21h-10.21v-9.86l1.59-32.35zm24.3 38.53l8.12-27.69h10.5l-12.61 36.04a22 22 0 0 1-1.07 2.55 10.6 10.6 0 0 1-1.83 2.64 8.7 8.7 0 0 1-2.99 2.03 11.2 11.2 0 0 1-4.47.78c-.95 0-1.64-.05-2.09-.15l-1.97-.44v-6.99h.64.64a7.9 7.9 0 0 0 2.49-.32c.64-.21 1.12-.52 1.45-.93.35-.41.62-.9.81-1.48l2.38-6.06zm-2.06-27.69l6.18 21.95 1.07 10.35h-6.55l-11.16-32.3h10.47zM220.8 437c0-.54-.18-1-.55-1.39a4.5 4.5 0 0 0-1.86-1.1 25.7 25.7 0 0 0-3.74-1.04c-1.53-.33-2.97-.76-4.32-1.31a14.9 14.9 0 0 1-3.51-1.97c-1-.77-1.8-1.69-2.38-2.75-.56-1.06-.84-2.28-.84-3.65 0-1.33.28-2.59.84-3.77.58-1.2 1.42-2.25 2.52-3.16a12.3 12.3 0 0 1 4.09-2.18 17.1 17.1 0 0 1 5.48-.81c2.82 0 5.26.44 7.31 1.3 2.05.85 3.62 2.05 4.73 3.59 1.12 1.53 1.68 3.3 1.68 5.31h-9.77c0-.79-.13-1.47-.41-2.03-.25-.56-.67-.99-1.25-1.27-.58-.31-1.35-.46-2.32-.46-.68 0-1.29.13-1.85.38-.54.25-.98.6-1.31 1.04s-.49.97-.49 1.57c0 .43.1.81.29 1.16a3.4 3.4 0 0 0 .96.93 8 8 0 0 0 1.62.75c.66.21 1.45.41 2.38.58a32.4 32.4 0 0 1 5.91 1.65c1.84.72 3.32 1.73 4.47 3.05 1.16 1.31 1.74 3.08 1.74 5.31 0 1.39-.32 2.68-.96 3.86a9.6 9.6 0 0 1-2.75 3.07c-1.2.87-2.64 1.55-4.32 2.03s-3.58.72-5.68.72c-3 0-5.53-.53-7.6-1.59-2.07-1.08-3.63-2.44-4.7-4.06a9.2 9.2 0 0 1-1.57-4.99h9.1c.04.97.27 1.76.7 2.38a3.9 3.9 0 0 0 1.77 1.36 6.9 6.9 0 0 0 2.55.44c.89 0 1.62-.12 2.2-.38.6-.25 1.05-.59 1.36-1.01.31-.44.46-.96.46-1.54zm30.53-22.56v6.79h-18.9v-6.79h18.9zm-14.93-7.8h9.77v28.93a5.2 5.2 0 0 0 .29 1.94c.19.44.52.76.99.96.48.17 1.12.26 1.91.26l1.39-.03 1.04-.14v6.99a16.1 16.1 0 0 1-2.61.61c-.91.15-1.87.23-2.9.23-2.09 0-3.87-.33-5.36-.99a7 7 0 0 1-3.36-3.1c-.77-1.41-1.16-3.25-1.16-5.51v-30.15zm34.01 39.75c-2.55 0-4.83-.4-6.84-1.19a14.9 14.9 0 0 1-5.1-3.33 14.8 14.8 0 0 1-3.16-4.87 15.9 15.9 0 0 1-1.07-5.83v-1.1c0-2.3.32-4.43.96-6.38a14.9 14.9 0 0 1 2.84-5.16 12.7 12.7 0 0 1 4.73-3.42c1.89-.83 4.1-1.25 6.61-1.25 2.22 0 4.21.36 5.97 1.07s3.25 1.74 4.46 3.07a13.2 13.2 0 0 1 2.81 4.84c.66 1.89.99 4.02.99 6.38v3.97h-25.63v-6.12h16.09v-.75c.02-1.04-.17-1.93-.55-2.67a3.8 3.8 0 0 0-1.62-1.68c-.72-.39-1.59-.58-2.61-.58-1.06 0-1.94.23-2.64.7-.68.46-1.21 1.1-1.6 1.91-.37.79-.63 1.71-.78 2.75s-.23 2.15-.23 3.31v1.1c0 1.16.16 2.21.46 3.16.33.95.79 1.76 1.39 2.44.62.66 1.35 1.17 2.2 1.54.87.37 1.86.55 2.96.55 1.33 0 2.65-.25 3.94-.75s2.41-1.33 3.33-2.49l4.44 5.28a11.5 11.5 0 0 1-2.72 2.64c-1.16.85-2.55 1.55-4.18 2.09a17.8 17.8 0 0 1-5.45.78zm27.02-24.18v23.6h-9.77v-31.37h9.13l.64 7.77zm9.28-8l-.17 9.07-1.56-.14-1.65-.09c-1.14 0-2.13.14-2.96.41a5 5 0 0 0-2.03 1.16c-.52.5-.91 1.14-1.16 1.91-.23.77-.34 1.67-.32 2.7l-1.77-1.16c0-2.11.2-4.02.61-5.74.43-1.74 1.03-3.24 1.8-4.49.77-1.28 1.71-2.25 2.81-2.93a6.8 6.8 0 0 1 3.71-1.04c.48 0 .96.03 1.42.09.48.06.91.14 1.27.26zm13.51 27.92l8.12-27.69h10.5l-12.61 36.04a22.2 22.2 0 0 1-1.07 2.55 10.6 10.6 0 0 1-1.83 2.64c-.77.83-1.77 1.51-2.99 2.03a11.2 11.2 0 0 1-4.46.78c-.95 0-1.64-.05-2.09-.15l-1.97-.44v-6.99h.64.64a7.9 7.9 0 0 0 2.49-.32c.64-.21 1.12-.52 1.45-.93.35-.41.62-.9.81-1.48l2.38-6.06zm-2.06-27.69l6.18 21.95 1.07 10.35h-6.55l-11.16-32.3h10.47z" fill="#5b5b5b"/><g filter="url(#F)"><path d="M323 71.25a11.9 11.9 0 0 0-11.87-11.87H0v89.06h311.13A11.9 11.9 0 0 0 323 136.56V71.25z" fill="#3886e7"/><path d="M47.66 107.53h-6.3v-4.71h6.3c.86 0 1.55-.14 2.09-.44s.92-.69 1.17-1.2c.26-.52.38-1.11.38-1.76 0-.7-.13-1.34-.38-1.93-.24-.59-.63-1.07-1.17-1.43-.53-.37-1.23-.56-2.09-.56h-4v20.61h-6.11V90.8h10.11c2.03 0 3.77.37 5.24 1.11 1.47.74 2.6 1.76 3.39 3.06a8.3 8.3 0 0 1 1.18 4.42 7.7 7.7 0 0 1-1.18 4.28c-.79 1.22-1.92 2.17-3.39 2.85-1.46.67-3.21 1.01-5.24 1.01zm22.39 3.86v-7.76c0-.53-.08-.99-.23-1.37s-.39-.68-.71-.89c-.32-.22-.76-.33-1.3-.33-.44 0-.82.08-1.13.23s-.55.38-.71.68a2.4 2.4 0 0 0-.24 1.15h-5.86a5.2 5.2 0 0 1 .57-2.42 6 6 0 0 1 1.67-1.97c.73-.56 1.6-.99 2.61-1.29a11.6 11.6 0 0 1 3.41-.47c1.5 0 2.83.25 4 .75 1.18.5 2.12 1.25 2.8 2.24.68.99 1.03 2.23 1.03 3.72v7.71c0 1.23.07 2.16.21 2.8.14.63.34 1.18.59 1.65v.3h-5.88c-.28-.58-.49-1.29-.63-2.12a17.5 17.5 0 0 1-.19-2.61zm.71-6.77l.03 3.13h-2.59a3.8 3.8 0 0 0-1.39.23c-.37.15-.67.36-.9.63-.22.25-.38.55-.49.87-.09.33-.14.67-.14 1.03 0 .35.08.66.24.94.17.27.41.48.7.63s.61.23.97.23c.65 0 1.2-.12 1.65-.36.46-.26.82-.56 1.06-.92s.37-.7.37-1.01l1.29 2.4c-.23.46-.5.93-.8 1.41a6.1 6.1 0 0 1-1.1 1.32c-.43.4-.96.72-1.58.98a6.3 6.3 0 0 1-2.28.36 7.2 7.2 0 0 1-3.2-.71c-.96-.48-1.73-1.14-2.31-1.98-.58-.86-.87-1.84-.87-2.96 0-.97.17-1.84.52-2.61a5.1 5.1 0 0 1 1.62-1.95c.72-.53 1.64-.94 2.75-1.22s2.42-.42 3.93-.42h2.52zm14.35-2.66v14.16h-5.86V97.3h5.48l.38 4.66zm5.57-4.8l-.1 5.44-.94-.09-.99-.05c-.68 0-1.28.08-1.77.24a3 3 0 0 0-1.22.7c-.31.3-.55.68-.7 1.15a5.3 5.3 0 0 0-.19 1.62l-1.06-.7a15 15 0 0 1 .37-3.44c.26-1.04.61-1.94 1.08-2.7.46-.77 1.03-1.35 1.69-1.76a4.1 4.1 0 0 1 2.23-.63c.29 0 .57.02.85.05.29.03.55.09.77.16zm12.8.14v4.07H92.14V97.3h11.34zm-8.96-4.68h5.86v17.36c0 .5.06.89.17 1.17.12.27.31.46.59.57.29.1.67.16 1.15.16l.84-.02.63-.09v4.19c-.5.16-1.02.28-1.56.37-.55.09-1.12.14-1.74.14-1.25 0-2.32-.2-3.22-.59a4.2 4.2 0 0 1-2.02-1.86c-.46-.85-.7-1.95-.7-3.3V92.62zm31.61 10.32v4.54h-10.45v-4.54h10.45zm26.35-12.14v25.33h-5.86V97.41l-5.78 1.69v-4.45l11.1-3.84h.54z" class="B"/></g><g clip-path="url(#K)"><path d="M1000.42 434.81c-.44 2.37 1.18 3.84 1.18 3.84s-5.03 5.47-10.95 5.92-9.47-2.52-9.47-2.52 7.1-3.55 8.14-6.51 11.1-.74 11.1-.74z" class="I"/><path d="M1001.61 438.65c1.45.9.75 7.2.75 7.2s-14.68 6.84-22.28 5.71-8.1-4.88-5.77-6.39 8.44-3.96 8.44-3.96l2.35-2.94s1.33-.17 2.7 1.04c1.38 1.21-.32 3.16-.32 3.16s3.2.19 6.65-.63 7.47-3.19 7.47-3.19z" class="Q"/><path d="M972.67 429.43a4.1 4.1 0 0 0 1.12 3.64s-4.76 5.18-10.36 5.6-8.96-2.38-8.96-2.38 6.72-3.36 7.7-6.16 10.5-.7 10.5-.7z" class="I"/><path d="M973.79 433.07c1.37.85.72 6.81.72 6.81s-13.89 6.46-21.07 5.4-7.66-4.62-5.46-6.04 7.98-3.75 7.98-3.75l2.23-2.78s1.25-.16 2.56.99-.3 2.99-.3 2.99 3.03.18 6.29-.59 7.06-3.02 7.06-3.02z" class="Q"/><path d="M999.29 377.54c-2.59-8.77-3.05-36.96-3.31-46.67-.26-9.71-.52-13.15-1.43-18.07l-23.32-9.36-17.75 12.88-.37 28.51c.15 5.64.23 32.17 1.92 37.06s1.69 7.52 1.51 13.36c-.17 5.29.74 29.14.92 33.54.01.44.27.84.67 1.03 5.87 2.85 13.26 1.53 15.65.99.49-.11.83-.5.9-1 .71-5.62 1.84-25.69 2.02-31.93.19-6.58-1.88-9.59-3.2-14.11-.9-3.07.36-27.72.43-39.88l8.23 43.46c.94 2.82 2.45 6.58 3.2 17.68a1008.8 1008.8 0 0 1 1.29 30.13c.01.46.27.87.68 1.05 4.29 1.85 11.58.45 14.09-.11.52-.12.89-.55.92-1.08l1.42-28.97c.63-14.41-1.88-19.73-4.47-28.5z" fill="#fcffff"/><g class="E"><path d="M966.3 377.54c1.87 5.61 1.94 54 1.94 54a32.9 32.9 0 0 0 5.53-.73c.49-.11.83-.5.9-1 .71-5.62 1.84-25.69 2.02-31.93.19-6.58-1.88-9.59-3.2-14.11-.9-3.07.36-27.72.44-39.88l-.49-28.49-6.22 2.36s-2.79 54.16-.92 59.77z" fill="#e4e7f4"/></g><g class="E"><path d="M992.68 377.54c3.57 9.89 3.88 51.16 2.91 59.47a45.2 45.2 0 0 0 5.84-.91c.52-.12.89-.55.92-1.08l1.42-28.97c.63-14.41-1.88-19.73-4.47-28.5s-3.05-36.96-3.31-46.67-.74-10.2-.76-15.53l-19.88-10.87c-3.36.63-6.19 1.09-8.12 1.15l-2.35.25-6.13 8.46c10.49 5.6 26.86 2.68 26.86 2.68s3.25 49.95 7.08 60.54z" fill="#e4e7f4"/></g><path d="M959.93 223.18c-2.35 16.38-.83 30.14-.83 30.14l22.07-2.06-7.11-28.08h-14.13z" class="R"/><path d="M969.28 246.93c-1.75.25-6.43.88-9.3 2.01s-5.38 4.01-7.9 12.04c-1.46 4.69-2.59 9.25-3.27 12.23-.48 2.13-2.88 15.1-2.88 15.1l27.99.9v-37.25l-4.65-5.02z" class="X"/><path d="M969.28 246.93c-1.75.25-6.43.88-9.3 2.01-2.64 1.04-4.98 3.61-7.28 10.24l.26.43c2.48-4.18 6.03-7 7.91-7.78s7.81-2 7.81-2l1.54-1.88-.94-1.01z" class="S"/><path d="M969.41 242.67c.75 1.74-.12 4.89-.88 6.02s-.25 5.27 4.64 6.14 8.16-.88 9.79-2.89 0-15.43 0-15.43l-4.39-2.67-9.16 8.82z" class="I"/><path d="M955.63 275.45c-.6-5.18 3.23-14.35 3.23-14.35s-1.73 10.75 0 14.83l-3.23-.48z" class="S"/><g class="E"><path d="M983.65 244.88l-.41-5.83c-1.74-.99-3.59-1.64-3.59-1.64l-4.96.18-5.27 5.08c.38.87.35 2.07.13 3.21.07.01 8.27 1.66 14.1-1z" fill="#e8ab79"/></g><path d="M981.39 230.97c1.52 3.8-.51 7.85-4.06 10.38s-7.6 4.3-9.88 2.03-5.15-6.14-5.15-8.67-2.96-2.72-2.2-8.04 4.31-8.86 6.33-9.37 14.19 5.06 14.19 5.06l.76 8.61z" class="I"/><path d="M965.25 217.87c.2 1.16-1.24 5.23-3.62 8.11s.1 6.02-1.64 8.91 3.12 11.79 0 15.18-6.14 3.51-7.02 9.53c0 0-2.64-5.64-.75-9.91s4.02-6.52 2.13-10.41-2.38-10.16-.25-12.42 4.47-7.53 4.31-10.66 6.36-10.16 10.13-7.53l-3.28 9.2z" fill="#a0593f"/><path d="M993.89 278.66c-2.31 8.41-2.16 12.95-.5 18.31 1.42 4.61 2.2 15.68 2.59 18.78.12.9-.33 1.74-1.12 2.18-2.52 1.39-9.01 4.04-22.02 4.04-13.79 0-18.12-3.94-19.36-5.66-.31-.44-.42-.97-.35-1.51.35-2.46 1.49-16.69 1.75-19.87.31-3.78 5.83-29.11 5.83-29.11l8.34-13.43 18.43-7.97 7.53 4-1.13 30.23z" class="X"/><g class="I"><path d="M962.76 276.29c-.31-1.08-1.63-3.53-3.39-3.47a19.3 19.3 0 0 0-4.96.94c-.76.31-2.07 2.26-2.07 2.26l10.41.27zm-9.72 16.8c-.95 1.07-2.71 1.13-4.52.63s-2.76-4.49-2.58-5.41 3.34-6.69 3.34-6.69l3.76 11.48z"/></g><path d="M970.5 276.41l7.71 22.95c.14.41-.18.83-.61.81l-21.58-.94c-.26-.01-.48-.18-.56-.43l-7.39-22.56c-.13-.4.18-.82.61-.81l21.26.54c.26.01.49.17.57.42z" fill="#c3c6d5"/><path d="M995.98 315.75c-.39-3.1-1.17-14.17-2.6-18.78-1.66-5.36-1.81-9.9.5-18.31-1.57-5.01-2.89-15.55-2.89-15.55s-4.52 19.27-3.92 25.18c.61 5.89 1.26 31.91 1.26 32.04 3.21-.81 5.32-1.74 6.51-2.39.79-.44 1.24-1.28 1.12-2.18z" class="S"/><path d="M970.11 276.89l7.71 22.95c.13.41-.18.83-.62.81l-21.58-.94c-.26-.01-.48-.18-.56-.43l-7.4-22.56c-.13-.4.18-.82.6-.81l21.26.54c.26.01.49.17.57.42z" fill="#d9dfed"/><g class="E"><path d="M977.82 299.84l-7.71-22.95c-.08-.25-.31-.41-.57-.42l-.86-.02c1.86 7.31 6.55 21.6 6.29 21.9-.22.27-16.49.06-20.21.01l.31.94c.08.24.3.42.56.42l21.58.94c.44.02.75-.4.62-.81z" fill="#c3c6d5"/></g><path d="M991 289.2c-2.51.07-7.63 1.28-9.44 1.4s-4.19-1.31-5.37-2.69c-1.4-1.66-2.98-1.76-2.98-1.76l1.02 3.06s-.75-.01-3.58 0-4.88-2.33-5.3-1.79.42 4.09.96 4.88 3.5 1.56 4.7 1.93 5.53-.12 7.1 0c1.57.12 10.82 2.35 15.26 2.77s3.66-5.42 3.66-5.42L991 289.2z" class="I"/><path d="M995.01 248.43c5.53 2.26 7.29 4.64 9.04 10.03 1.76 5.4 3.02 24.08 3.39 29.23.38 5.14 0 7.53-1.13 8.03s-5.27 1.63-12.93 1.25c0 0 1.76-6.27-2.38-7.78 0 0 4.77-.5 6.52 0 0 0-3.08-7.63-4.34-12.9l1.83-27.86z" class="X"/><path d="M965.25 217.87c-.48 3.72 9.14 7.03 12.93 9.47 3.15 2.03-.73 11.94 3.72 14.82s-2.95 6.77 0 11.66-.94 9.28-.94 9.28 6.78-2.26 6.9-6.4 1.63-10.54 7.15-8.28c0 0 1.38-7.03-1.38-9.66s-4.39-9.28-2.89-11.29-1.51-11.54-5.15-11.29-5.77-11.79-17.07-7.53l-3.28 9.2z" fill="#a0593f"/><path d="M962.99 286.39c.41 1.13-.11 2.34-1.22 2.71-1.2.4-2.61-.34-3.04-1.65-.43-1.29.31-2.51 1.53-2.72 1.14-.2 2.32.55 2.73 1.67z" class="B"/><g opacity=".3" class="B"><path d="M962.76 276.3l-9.72 16.79 1.11 3.4 10.55-20.13-1.94-.05z"/></g><g opacity=".3" class="B"><path d="M967.22 276.41l-9.09 23.42 3.51.15 7.04-23.53-1.46-.04z"/></g><path d="M1004.7 261.09c0 .07 1.33 29.76.72 31.22-.6 1.46-7.99 3.84-11.68 2.27l-.01.02c-.07 1.33-.34 2.37-.34 2.37 7.66.38 11.8-.75 12.93-1.25s1.51-2.89 1.13-8.03c-.33-4.49-1.33-19.33-2.75-26.6z" class="S"/><g class="E R"><path d="M961.63 225.99c.14-.17.27-.36.4-.54-.13.13-.26.3-.4.54z"/></g><g class="E R"><path d="M990.75 227.49c-3.64 2.02 1.07 12.62-4.84 11.81-7.61-1.04-4.64-7.04-6.77-10.61 1.23 3.42-1.05 11.01 2.76 13.48 4.46 2.89-2.95 6.77 0 11.66s-.94 9.28-.94 9.28 6.78-2.26 6.91-6.4c.12-4.14 1.63-10.54 7.15-8.28 0 0 1.38-7.03-1.38-9.66s-4.39-9.28-2.89-11.29z"/></g><g class="E R"><path d="M959.6 236.45c-1.95 6.48-6.65 1.06-6.88-4.58a18.1 18.1 0 0 0 1.62 7.41c1.88 3.89-.25 6.14-2.13 10.41s.75 9.91.75 9.91c.88-6.02 3.89-6.14 7.02-9.53 2.68-2.91-.52-9.87-.38-13.62z"/></g><path d="M704.7 420.71c1.44 12.24 2.36 15.25 8.87 18.32 3.01 1.39-1.63 5.66-1.63 5.66s-9.92-1.93-14.02-4.1c-5.52-2.9-.52-4.95-1.21-17.14-.32-5.49 7.98-2.75 7.98-2.75z" class="D"/><g class="C"><path d="M712.77 438.37c1.04 1.41.8 2.83-1.13 3.23-2.77.57-10.61-1.64-16.59-6.62-2.68 10.45 1.31 9.72 7.23 9.06 1.27-.14 7.25 6.63 18.61 2.3 2.04-.78 1.2-4.75-3.75-5.96-3.52-.86-4.37-2.01-4.37-2.01zm-2.78-140.5c-1.18 4.35-8.19 10.77-7.32 20.76.5 5.74 2.01 10.75 2.61 12.95 1.87 6.8-2.58 34.7-4.82 50.4 0 0-5.91 16.22-3.43 47.73 9.33 2.11 13.4-.47 13.4-.47s.96-30.73 3.34-39.2c4.61-16.41 10.78-56.87 10.95-62.17.43-13.08-1.93-25.73-4.08-31.3l-10.65 1.3z"/><path d="M711.9 425.04c.11.87.49 5.96-.86 6.54-3.72 1.58-15.19-.08-16.11-1.11.33-2.56-.36-6.89-.36-6.89s4.61 2.79 11.39 2.84c3.5.02 5.94-1.37 5.94-1.37z"/></g><path d="M710.53 424.58c1.01.19 1.94.56 1.09.83-3.11.99-12.42.72-15-.43-2.46-1.1-2.2-1.57-1.84-1.33.32.22.58.15.58.15s.66.88 2.82 1.31c7.55 1.49 12.36-.53 12.36-.53z" class="L"/><path d="M712.13 269.42c-.03-3.44 2.89-18.71 2.89-18.71 5.29 7.99 11.42 25.38 14.97 31.29 4.75 2.62 15.67 11.13 15.67 11.13l-2.11 1.23s-7.85.85-11.54-.82c-3.15-1.44-6.37-1.93-7.4-3.32l-.03.1s-12.42-17.45-12.45-20.9z" class="D"/><path d="M708.83 247.91c4.01 2.5 7.22 1.83 10.08 5.21s9.83 23.86 9.83 23.86l-12.77 6.67s-3.86-22.8-3.26-24.23c.6-1.44-3.88-11.51-3.88-11.51z" fill="#197dfa"/><path d="M726.93 272.06l-8.85 5.32.82 1.84 8.99-4.39-.96-2.76z" class="B"/><path d="M694.15 426c-1.54 13.71-4.73 15.51 3 26.65 1.79 2.58-3.54 3.07-3.54 3.07s-10.35-2.7-13.93-5.36c-4.8-3.58 3.29-6.79 4.05-20.62.29-5.28 10.42-3.75 10.42-3.75z" class="D"/><g class="C"><path d="M695.33 449.86c.77 1.48.57 3.43-1.29 3.69-5.03.74-10.66-3.64-15.07-8.89-4.08 6.22-.58 8.79 1.18 9.75 8.06 4.4 6.12 6.82 16.79 7.18 5.08.17 7.35-1.54 5.23-4.36-2.58-3.43-6.84-7.37-6.84-7.37zm4.69-150.5c-4.3 9.65-9.22 16.55-9.67 22.94a47.8 47.8 0 0 0 1.5 14.15c1.86 6.8 9.12 32.32 6.87 48.03-.14.19-18.59 20.16-18.04 48.34 9.32 2.12 13.26 1.59 13.26 1.59s15.92-38.65 21.97-45.22c5.57-6.04 2.62-48.75 3.22-54.03 1.07-9.43-1.08-26.37.21-32.59l-19.33-3.22z"/></g><path d="M716.55 256.14c-1.02-2.63-5.9-7.17-7.1-11.34-1.67-7.15 3.63-11.91 6.72-14.27 0 0-19.13-10-18.26-4.41.67 4.35-.34 18.04-3.16 21.04-5.31 5.66-6.44 15.37-1.33 19.87 3.46 3.05 19.84-.66 20.1-.87.82-.62 5.24-4.49 3.04-10.03z" class="D"/><path d="M692.6 217.41c-1.18-1.38-3.52-4.16-7.74-.85-4.2 3.29-9.52 10.57-2.82 23.85 6.43 12.75 1.25 19.8-.39 19.64 4.49 1.93 12.85-4.97 13.59-12.37 1-10.26-1.74-6.3-6.55-19.22-2.16-5.82 1.9-7.96 2.79-8.13.89-.17 1.12-2.92 1.12-2.92z" fill="#3d0c04"/><path d="M692.85 224.64c-2.75-9.22 2.34-14.35 9.68-16.53 7.35-2.18 13.15 2.03 15.9 11.24.53 1.76-.59 2.95-.37 4.62a43.4 43.4 0 0 0 2.65 3.95c.26.75-.86 2.08-1.87 2.54-.34 4.98-.64 9.31-6.05 9.27-7.67-.05-17.2-5.87-19.94-15.08z" class="D"/><path d="M713.45 218.86l2.75-4.74c1.75-5.23-11.17-11.1-20.31-5.34-8.5 5.35-8.07 10.71-6.44 16.36 1.61 5.65 6.11 13.64 6.11 13.64s1.84.51 5.6-1.44c2.95-1.52 6.67-6.59 5.75-7.15-1.27-.77-2.23-5.09-.41-5.98.88-.45 2.48.71 2.48.71l4.47-6.06z" fill="#3d0c04"/><path d="M696.97 244.91l-7.83 8.86s-1.78 8.83.61 17.98c1.83 6.91 9.52 14.97 3.24 30.54-6.51 16.15-4.69 21.72-4.69 21.72s8.56-2.43 21.59 1.14c7.91 2.17 16.76-1.43 16.76-1.43s2.36-13.65-3.44-45.16c0 0 5.86-4.27.64-15.65-1.93-4.22-6.49-12.63-7.66-13.65-.69-.6-4.36-2.85-4.36-2.85s5.81 8.47.15 8.51c-5.89.05-15.01-10-15.01-10z" fill="#654153"/><path d="M692.67 271.81c.13 4.39 3.29 14.76 4.55 18.29s.58 8.51-.01 9.23 4.35 1.23 3.62 2.18-5.13 1.84-5.13 1.84 8.29 3.9 4.93 2.81c-3.35-1.1-4.75-1.32-5.57.8s-.06 8.28.07 8.82c.14.54-6.57.67-6.57.67s5.51-16.59 5.7-22.01-4.97-20.83-5.68-27.57-.23-11.4.54-12.17 3.55 17.1 3.55 17.1z" class="Q"/><path d="M727.08 316.63c-6.38 4.45-18.92.64-23.77-.97-6.2-2.04-12.74-2.5-14.22-.94-.01.95-.66 2.66-.66 2.66s3.01-2.58 12.94.08c7.02 1.88 11.76 3.32 18.9 2.52 7.09-.79 6.72-1.97 6.72-1.97l.09-1.39z" class="B"/><path d="M709.97 243.21c2 1.05 6.83 9.59 6.39 13.15s-1.11 3.41-1.54 4.37-2.45-.67-2.91-1.89-.36-3.05.25-4.08-1.97-7.93-2.66-9.42c-.68-1.49.48-2.13.48-2.13z" class="M"/><path d="M709.74 257.44c-.73 5.46 8.49 4.37 9.13 15.51 1.5.64 1.13 1.45 1.13 1.45s1.61-14.9-3.66-16.96c-3.57-1.4-6.59 0-6.59 0z" class="B"/><path d="M694.68 245.06c-3.4 3.68.88 8.62 7.05 10.68s14.69 3.16 15.14 2.78.05-.22-1.87-2.48c-1.93-2.26-20.33-10.98-20.33-10.98z" class="M"/><path d="M695.69 240.69c2.08 4.8 18.33 12.27 20.34 13.37s-.23 2.21-.23 2.21-15.04-.08-20.51-6.79.4-8.79.4-8.79z" class="B"/><path d="M710.56 256.97c-.96 1.96 2.19 4.77 2.67 4.99s-1.89-2.34-1.43-2.91 3.2 2.16 6.1 6.39c.36.53 1.52 5.69 1.63 3.19.14-3.19-4.02-10.32-4.1-11.23-.08-.89-4.87-.43-4.87-.43z" class="M"/><path d="M714.24 253.86c4.34 1.53 9.47 7.92 8.65 15.18-3.87-8.11-11.05-11.49-11.34-12.78-.29-1.28 2.68-2.41 2.68-2.41z" class="B"/><g class="C"><path d="M749 291.01c-.09.26-.3.42-.5.36l-11.2 3.89c-.23-.06-.34-.35-.25-.63l9.54-37.38c.26-.87.8-1.03 1.34-1.12l10.2-.9c.52-.01.75.6.67.86l-9.8 34.91z"/><path d="M708.64 291.28c-.17.12-.33.34-.08.35l29.23 2.67c.31.01 1.47-.24 1.3-.4l6.28-4.71c-.09-.1 1.57-1.25 1.35-1.25l-16-1.11c-.2-.01-.87-.02-.97.05l-21.1 4.42z"/></g><g class="L"><path d="M708.37 292.27c-.02.29.17.54.42.56l28.46 2.45c.25.02.48-.21.5-.5l.04-.48c.02-.3-.17-.54-.42-.56l-28.46-2.45c-.25-.02-.49.2-.51.49l-.04.48zm8.54 37.61c.57 4.57 2 45.45 1.43 51.45s-3.15 8.86-5.16 11.15-19.3 34.7-19.25 41.93-3.67-1.73-3.67-1.73 13.61-36.62 17.26-40.92 6.45-8.36 6.45-13.51 2.94-48.38 2.94-48.38z"/></g><path d="M696.13 432.41c-.06.87-.65 5.91-2.02 6.23-3.8.88-14.3-2.79-14.98-3.96.78-2.44.93-6.79.93-6.79s3.83 3.55 10.21 4.8c3.31.65 5.86-.28 5.86-.28z" class="C"/><path d="M694.93 431.7c.91.37 1.73.89.87 1.01-3.12.41-11.84-1.52-14.07-3.1-2.12-1.51-1.78-1.92-1.49-1.62.27.27.52.25.52.25s.46.98 2.41 1.78c6.84 2.8 11.75 1.68 11.75 1.68z" class="L"/><path d="M730.47 290.2c-.88-.05-1.46 0-1.92.05.44-.12 1.06-.17 1.62-.45.49-.25 1.37-.13 1.31-1.04-.03-.58-2.85.59-5.1.59-1.59 0-3.3 2.19-4.86 2.89-4.47-.24-17.87-6.66-22.58-6.81-.43-2.14 2.65-19.98-.43-20.58-3.71-.71-9.66 1.5-9.66 1.5.22 19.72-.21 25.08 1.07 26.16 6.49 3.47 25.83 4.53 30.5 4.61 3.94 2.03 7.33-1.08 8.35-.78 1.49.07 5.32-.15 5.38-.55.07-.46-.49-.26-1.76-.38-.37-.03-2.9-.3-3.15-.3-.07-.7 4.42-.03 5.58-.55.73-.33.74-.67-.24-.82-1.6-.22-5.34-.53-5.34-.53s6.45.29 6.6-.35c.14-.56-5.42-1.15-5.42-1.15l.3-.32 4.97.71c.63-.47-1.53-1.71-5.21-1.89z" class="T"/><path d="M691.76 253.9c-3.41.58-5.33 5.25-5.6 13.47-.27 8.3.67 15.77.67 15.77s2 .43 4.58.36c4.38-.11 10.34-.81 10.49-1.34.23-.85.9-13.76-.02-21.58-.7-5.85-10.11-6.67-10.11-6.67z" class="Q"/><path d="M702.34 277.47c-2.78 2.27-14.8 2.81-15.92.97-.08 1.69.16 2.69.16 2.69s7.01 1.96 15.41-.78c.54-.18.35-2.88.35-2.88z" class="B"/><path d="M742.3 292.97c1.07-.54 1.69-2.23 1.69-2.23s.43-2.15.59-2.15c.64.03.51 1.69.19 2.55s-.75 1.61-.75 1.61 1.34-1.74 1.34-2.17-.43-2.46.11-2.44c.76.04.97 1.82.91 2.36-.09.86-.54 1.82-.54 1.82l.89-2.01s-.46-2.41.03-2.44c.86-.05.96 1.18.96 2.25s-.59 1.88-.59 1.88.92-1.67.81-2.31c-.38-2.01.62-1.96.62-1.96s.19 2.22.08 2.98-.54 1.82-1.61 2.79-3.97 1.61-5.15 1.29-2.22-.29-1.79-.61c.44-.32 2.23-1.21 2.23-1.21z" class="D"/><g class="U"><path d="M816.14 387l-4.5-.05-8.2-3.6.27-.61 8.07 3.54 4.36.05v.67z"/><path d="M823.52 386.75a1.4 1.4 0 0 1-1.44 1.4l-6.91-.09c-.8-.01-1.44-.65-1.44-1.44s.64-1.41 1.44-1.4l6.91.09c.8.01 1.44.65 1.44 1.43v.01z"/></g><g fill="#404360"><path d="M808.24 396l-5.65-.06V381.8l7.59.11v12.2c0 1.06-.87 1.91-1.95 1.9V396zm14.5-34.62v-11.43c0-6.97 2.89-13.14 2.01-32.63l-1.67-31.25c-.19-3.11-2.8-5.63-5.96-5.77l-48.77-2.13c-3.44-.15-6.17 2.62-5.96 6.06l1.62 31.09c.88 19.83-2.01 26.1-2.01 33.2v11.62l60.74 1.25h.01z"/></g><g class="V"><path d="M829.14 361.51v-11.4c0-6.96 2.89-13.12 2.01-32.57l-1.67-31.2c-.19-3.1-2.8-5.62-5.96-5.76l-48.77-2.13c-3.44-.15-6.16 2.61-5.96 6.05l1.62 31.03c.88 19.79-2.01 26.06-2.01 33.14v11.61l60.74 1.25v-.01z"/><path d="M765.69 368.4l56.98 1.04v-8.05L762 360.15v4.5c0 2.04 1.65 3.72 3.7 3.76h-.01z"/></g><path d="M772.08 368.51l53.29.97c2.04.04 3.69-1.55 3.69-3.55v-4.41l-60.67-1.24v4.49c0 2.03 1.65 3.72 3.69 3.75h-.01z" class="U"/><path d="M775.75 376.98l33.15.53c4.17.07 7.56-3.21 7.56-7.33v-.87l-48.28-.88v.89a7.7 7.7 0 0 0 7.56 7.66z" fill="#404360"/><g class="V"><path d="M814.45 381.96l-12.17-.18a4.5 4.5 0 0 1-4.45-4.46l21.06.33c0 2.41-1.99 4.34-4.45 4.3v.01z"/><path d="M783.42 377.1l33.15.53c4.17.07 7.56-3.21 7.56-7.31v-.87l-48.28-.88v.88a7.7 7.7 0 0 0 7.56 7.65z"/></g><path d="M806.79 381.85l-12.17-.18a4.5 4.5 0 0 1-4.44-4.47l21.06.33c0 2.42-1.99 4.35-4.45 4.32z" class="U"/><path d="M806.39 395.98l-5.65-.06c-1.07-.01-1.94-.88-1.94-1.94v-12.24l7.59.11v14.13z" class="V"/><g class="U"><path d="M807.56 413.15l-6.43-.04v-17.18l6.43.07v17.15z"/><path d="M845.44 428.46c0 2.18-1.76 3.94-3.92 3.94s-3.92-1.77-3.92-3.95c0-1.67 1.02-3.08 2.47-3.66v-5.29l-29.43-3.36 11.36 5.1.67 1.23v2.23c1.51.55 2.61 2.01 2.61 3.72 0 2.19-1.75 3.96-3.92 3.96s-3.92-1.78-3.92-3.97c0-1.62.95-3.01 2.34-3.62v-1.53L804 415.27l-15.78 7.93v1.55a4 4 0 0 1 2.34 3.66c0 2.21-1.76 4-3.92 4s-3.92-1.8-3.92-4.01c0-1.74 1.09-3.21 2.61-3.76v-2.25l.67-1.25 11.36-5.05-29.43 3.15v5.4c1.44.61 2.47 2.05 2.47 3.75 0 2.22-1.75 4.02-3.92 4.02s-3.92-1.81-3.92-4.04c0-1.7 1.02-3.15 2.47-3.75V418l1.18-1.46 37.81-4.77 37.81 5.11 1.18 1.44v6.48c1.44.59 2.47 2 2.47 3.66l-.03.01z"/></g><use href="#L" stroke="#2a2e44" stroke-width="2.5" class="F G"/><path d="M853.79 378.21l-70.99-1.12c-3.84-.06-6.95-3.21-6.95-7.02v-5.3c0-3.82 3.11-6.85 6.95-6.76l70.99 1.5c3.84.08 6.95 3.17 6.95 6.89v5.17c0 3.72-3.11 6.7-6.95 6.64z" class="V"/><path d="M846.81 426.01l14.22-.14-2.76-15.58-14.29.07 2.83 15.65z" class="J"/><path d="M859.36 416.49l-14.29-.07-1.1-6.07 14.29-.07 1.1 6.21z" class="K"/><path d="M872.3 432.1s1.76-.77 1.2-2.91-5.96-3.53-8.53-5.48c-2.7-2.04-5.44-6.08-8.62-5.55-3.18.53-2.88 3.78-2.18 5.22s.54 1.73.54 1.73-7.76-2.69-8.6-3.27-1.28 10.58-1.28 10.58l5.68-.07s-.77-2.7.19-2.75 2.83 2.72 2.83 2.72l18.79-.21-.01.01z" class="W"/><path d="M867.33 425.09s-1.58-.24-3.36-.23" class="F G N O"/><path d="M875.71 426.05l14.22-.14-2.75-15.44-14.29.07 2.83 15.52z" class="J"/><path d="M888.26 416.62l-14.29-.07-1.1-6.02 14.29-.07 1.1 6.16z" class="K"/><path d="M901.19 432.09s1.76-.77 1.2-2.89c-.56-2.12-5.96-3.5-8.53-5.44-2.7-2.03-5.44-6.03-8.62-5.5-3.18.52-2.88 3.75-2.19 5.17s.54 1.71.54 1.71-7.76-2.66-8.6-3.24c-.83-.59-1.28 10.49-1.28 10.49l5.68-.06s-.77-2.68.19-2.73 2.83 2.7 2.83 2.7l18.79-.21h-.01z" class="W"/><path d="M896.22 425.15s-1.59-.24-3.36-.22" class="F G N O"/><path d="M891.07 413.39s-5.94.67-14.55.6a163.2 163.2 0 0 1-5.53-.16l-11.81-49.5s-52.13 6.59-46.37-24.93l6.44-.2c13.87-.32 45.88-.52 53.02 3.89 12.46 7.63 18.79 70.29 18.79 70.29l.01.01z" class="W"/><g style="mix-blend-mode:multiply" opacity=".2"><path d="M876.51 413.99l-5.53-.16-11.81-49.5s-52.13 6.59-46.37-24.93l6.44-.19c.34 2.78 1.37 6.45 3.74 11.09 5.48 10.71 30.88 8.72 38.15 7.92 1.1-.12 2.15.59 2.4 1.65l12.97 54.12v.01z" fill="#301f1e"/></g><path d="M775.88 342.83s3.69 5.46 12.67 5.6c6.5.11 21.24-.16 33.72.24 2.92.09 6.72-1.01 9.25-1.88a4.6 4.6 0 0 0 3.11-3.84 35.2 35.2 0 0 0 .25-4.44c-.05-2.91-48.62-1.54-51.95-1.4-3.34.14-7.04 5.71-7.04 5.71z" class="K"/><path d="M871.03 305.08l-4.03 1.97h-.01c-4.71-4.23-4.11-8.81-3.87-9.89l4.1-.98c-.18 1.81.06 5.38 3.81 8.9z" fill="#fcfcfa"/><path d="M887.54 294.18l-5.06 3.5c-1.59 1.32-5.18 4.92-8.4 4.81 0 0-.38 1.08-3.17 2.48-3.2-2.99-4.02-6.05-3.7-8.78 2.27-.56 2.48-.58 3.37-.98 4.07-1.79 5.42-3.61 7.44-4.62 2.01-1.01 3.86-1.95 4.18-1.61.09.09.12.3.11.53l4.97-2.32c.98-.16.93 1.07.93 1.07s1.31-.76 2 .01c.68.79-.16 1.64-.96 2.1 0 0 .59 1.07-.4 1.75l-.8.52s.27 1.03-.52 1.55l.01-.01z" class="J"/><g class="F G N O"><path d="M882.31 289.49a2.9 2.9 0 0 1-.96 1.96c-.81.66-2.46 1.49-2.46 1.49s-.1 2.84-2.4 4.5m11.72-9.2s-.05.66-1.83 1.76c-1.4.87-5.72 3.14-5.72 3.14m8.6-2.8l-7.58 4.23m6.38-1.96l-5.8 3.24m-8.28 6.57s-.94-.62-1.4-1.13"/><path d="M880.1 292.86s1.92 1.31 2 3.96"/></g><path d="M867 307.06c-4.13 2.02-10.42 4.94-14.24 6.52-8.74 3.6-17.7 5.52-24.6-2.33-6.69-7.63-13.78-21.31-14.22-22.15l-.02-.05 12.13-12c3.65 7.7 8.13 17.07 13.58 25.09l23.47-4.97c-.23 1.09-.82 5.66 3.89 9.9h.01z" class="H"/><path d="M809.45 271.64s12.43.52 16.03 5.94c3.6 5.42 3.11 28.81 4.06 39.86l1.27 16.63s-4.9 2.77-19.82 2.81-27.69-2.55-27.69-2.55 4.26-20.44 2.3-39.4c-1.76-17.06.47-21.6 3.49-22.37 4.13-1.05 8.77-2.09 20.35-.92h0z" class="B"/><path d="M824.02 247.07s-.65 4.37-2.42 5.27-1.53-6.08-1.53-6.08l3.96.81z" class="K"/><g class="J"><path d="M811.19 238.24c7.09-.11 11.9 3.57 11.42 9.79-.62 8.09 1.06 9.71-.16 13.15-1.34 3.78-4.9 5.59-10.33 5.4-7.1-.26-12.54-4.62-12.38-15.26.14-9.88 5.72-12.98 11.46-13.06v-.01z"/><path d="M815.67 272.58l-.13-6.15-15.52-10.72.68 15.41 10.26 7.48c.5.02 4.7-6.01 4.7-6.01v-.01z"/></g><g class="K"><path d="M815.56 266.44l.04 3.29c-7.71.24-10.2-4.83-10.33-5.14 1.95 1.27 4.3 1.9 6.86 2 1.22.05 2.34-.01 3.37-.18l.06.05v-.01zm-15.71-12.18s4.12 1.34 4.81-4.51c0 0 1.71-6.16 9.3-3.87 10.66 3.2 15.42.92 15.73-4.99.26-5.17-2.84-7.81-7.65-8.32-2.22-.23-2.88.92-3.41.77-.89-.25-12.24-4.74-17.35 3 0 0-7.84 1.2-6.56 11.99.69 5.79 4.47 8.72 5.41 9.51l-.29-3.58z"/></g><path d="M803.27 252.4c.02 1.9-1.21 3.39-2.76 3.33s-2.82-1.65-2.84-3.56c-.02-1.9 1.21-3.39 2.76-3.33s2.82 1.66 2.84 3.56z" class="J"/><g class="F G"><g stroke="#110909" stroke-width=".14"><path d="M799.5 250.78s-.56 2.36 1.77 3"/><path d="M801.01 251.25s-.98.41-1.06 1.73"/></g><path d="M817.38 250.81l-.56 1.58.87 2.28c.11.29-.1.59-.41.59l-2-.04" stroke="#431e19" stroke-width=".12"/><g stroke="#110909" stroke-width=".3"><path d="M809.05 249.64s1.89-1.62 3.57-.64m6.01.1s1.13-.62 2.85 1.1"/></g></g><path d="M816.35 257.53s-.1 1.95-1.1 3.25c0 0-4.3.34-4.49-3.88-.01-.14.03-.27.1-.37.19-.31.62-.43.98-.19a7 7 0 0 0 2.65 1.13c.1.02.2.05.31.05.11.02.21.03.32.03l.32.02a2.6 2.6 0 0 0 .33 0c.2 0 .39-.01.59-.04z" fill="#431e19"/><path d="M815.85 257.58s-.28.81-.93.96c-.62.15-2.55-.15-4.07-2.01.19-.31.62-.43.98-.19a7 7 0 0 0 2.65 1.13c.1.03.21.04.31.05a1.5 1.5 0 0 0 .31.03c.11.02.22.02.32.02a2.6 2.6 0 0 0 .33 0h.09v.01z" class="B"/><path d="M814.94 260.8c-.68-.02-2.34-.19-3.36-1.46 0 0 .86-.5 1.78-.24 1.22.34 1.58 1.7 1.58 1.7z" fill="#7b2b23"/><g class="K"><path d="M812.51 252.12c.02.62-.47 1.11-1.1 1.1s-1.16-.53-1.18-1.14.47-1.11 1.1-1.1 1.16.53 1.18 1.14zm6.16.08a1.2 1.2 0 0 0 1.14 1.17c.63.03 1.13-.44 1.13-1.06a1.2 1.2 0 0 0-1.14-1.17c-.63-.03-1.13.44-1.13 1.06z"/></g><g class="H"><path d="M809.19 279.65l-.6 39.55 5.19 6 5.1-5.85-6.63-39.62-3.06-.08z"/><path d="M810.85 281c-1.93-.05-3.44-2.94-2.9-3.82.53-.89.96-1.84 2.49-1.8s1.99 1.02 2.55 1.94c.57.92-.41 3.72-2.15 3.68z"/></g><g fill="#3d94ff"><path d="M815.62 270.91l-5.19 4.5 4.01 3.01s1.55-3.99 1.67-5.86l-.5-1.67v.01zm-15-1.74l9.81 6.26-3.94 3.47s-1.8-1.35-4.39-3.98c-2-2.03-2.9-3.78-2.9-3.78l1.43-1.97z"/></g><path d="M831.17 316.58c2.58 10.09 4.38 21.04 3.48 25.37 0 0-3.05-1.73-5.42-1.16-4.69 1.13-6.55-.22-6.55-.22s2.79-38.07-6.56-68c2.52.54 5.8 1.58 8.72 3.23 4.77 2.68 4.09 18.17 4.09 18.17s-.31 12.51 2.25 22.62h-.01z" class="H"/><path d="M822.99 332.86s-15.02.02-20.95-.25l.11 5.86s12.27.65 20.65-.05l.2-5.58v.01z" fill="#89beff"/><path d="M816.6 339.01l-7.93-.08c-.76-.01-1.39-.62-1.4-1.37l-.07-3.76c-.01-.75.59-1.34 1.35-1.34l7.93.1c.76.01 1.39.62 1.4 1.37l.07 3.75c.02.74-.59 1.34-1.35 1.34v-.01z" class="H"/><path d="M784.46 338.63s50.27-2 59.47 3.72c12.45 7.69 18.47 71.44 18.47 71.44s-10.91.42-20.07.37l-11.5-50.4s-54.9 9.52-46.37-25.13v.01z" class="W"/><g class="F G"><path d="M830.7 339.35c6.03.62 10.91 1.57 13.22 3 4.23 2.62 7.72 11.73 10.48 22.6" class="N O"/><path d="M850.81 413.84l-15.32-57.84c-.34-1.28-1.62-2.12-2.94-1.94-8.75 1.19-39.04 4.08-39.21-13.21" stroke="#fff" stroke-width=".19"/><path d="M826.6 278.2s2.34 4.27 2.34 14.56a144.1 144.1 0 0 0 1.32 19.59" class="N O"/></g><path d="M801.34 301.06c-.74-14.37-2.37-30.01-2.37-30.01s-7.99.79-13.86.68c-5.21-.09-6.77.03-9.5 2.76-3.4 3.4-14.63 26.22-6.23 38.49 7.36 10.75 47.01 8.49 47.01 8.49s-2.83-1.13-2.27-5.92c.27-2.32 3.4-3.7 3.4-3.7l-16.99-2.83-12.46-3.96-2.83-1.13c-3.25-1.3-3.06-13.58-3.06-13.58v2.27c.36 6.16-.62 28.84-2.37 35.92-1.22 5.92-3.87 14.27-3.87 14.27 3.64-3.55 10.17-.37 16.36.11 6.17.47 9.75-2.7 9.75-2.7s.04-24.77-.72-39.15h.01z" class="H"/><path d="M769.95 313.54c8.5 9.62 42.71 7.92 43.62 7.92" stroke="#000" class="Y"/><path d="M829.41 306.76c-1.24.24-8.51 5.59-9.72 6.38-1.14.74-3.16 1-6.12 1.56.59 2.54.93 4.95 1.11 6.77 2.05-.66 5.98-1.88 7.59-1.96 2.22-.11 5.03-1.77 6.99-2.62s5.74 1.36 6.82.87 5.14-3.83 4.63-5.33-10.07-5.91-11.31-5.67z" class="J"/><g stroke="#000" class="Y"><use href="#M"/><path d="M838.49 315.81c-1.32-.94-4.53-2.94-6.8-3.4m5.67 4.53c-1.32-.94-4.53-2.94-6.8-3.4"/></g><path d="M818.19 321.84l-4.49-.23h-.01c-2.06-5.98 1.57-10.33 1.57-10.33l3.9.93c-1.04 1.5-2.56 4.74-.98 9.63z" class="B"/><path d="M782.41 295.43c0 2.26.57 7.13 2.83 8.49 2.83 1.7 13.6 5.66 30.02 7.36" stroke="#000" class="Y"/><g class="F G"><path d="M803.92 338.28s4.01 10.8-4.42 12.89" stroke="#fff" stroke-width=".19"/><path d="M762.64 330.62l13.28.39c3.94.11 7.14 3.33 7.14 7.17v31.31" stroke="#2a2e44" stroke-width="2.5"/></g><path d="M838.16 453.29c1.6-1.93 1.46-2.95-1.06-3.82-2.51-.86-16.74-6.26-16.83-4.43-.2 3.91 17.89 8.25 17.89 8.25z" class="C"/><path d="M825.68 439.28c.23 6.16-7.42 19.74-16.21 25.05-7.79 4.71 4.3 6.09 6.75 6.24 2.46.16 15.3-3.18 15.41-4.81.23-3.65-.38-2.77.37-8.58.45-3.54 8.62-11.56 9-14.39.39-2.84-15.32-3.5-15.32-3.5z" class="D"/><g class="C"><path d="M805.38 464.93s4.29-2.35 7.05-5.77c3.69-4.55 5.64 3.94 1.85 8.54 1.97-.58 4.94.39 9.14-2.08 6.12-3.6 8.84-3.66 8.84-3.66 1.43 5.77-.52 10.66-2.13 11.02-1.36.3-6.79-1.48-12.06.38-.5.48-6.59 1.88-7.52 1.94-6.5.43-12.74-.33-13.35-3.44-1.04-5.25 8.17-6.93 8.17-6.93zm14.57-14.54c.53-1.19 18.66-52.25 18.66-52.25 3.2-11.22 24.48-51.48 25.81-53.83 5.53-9.72 6.31-12.88 10.6-18.81l26.34.62s-.91 15.2-1.98 23.68c-1.06 8.47-11.61 2.53-12.99 4.9a3672.6 3672.6 0 0 0-27.11 50.83c-8.33 32.01-16.27 38.07-24.52 50.17 0 0-15.52-3.72-14.8-5.31z"/></g><path d="M839.26 451.28c-3.73 1.46-18.56-3.1-18.93-6.65-1.29 2.81-1.34 6.22-1.34 6.22s10.09 6.93 16.85 5.91c1.97-.3 3.42-5.47 3.42-5.47z" class="L"/><path d="M879.82 459.3c1.32-2.25.92-3.21-2.08-3.48s-20.04-2.34-19.74-.52c.63 3.88 21.82 4 21.82 4z" class="C"/><path d="M866.44 445.42c-.93 6.44-5.78 22.98-14.12 27.81s.89 4.95 3.42 5.58 15.85-.07 16.27-1.75c.93-3.75 1.29-4.21 1.07-10.41-.24-7 5.17-15.38 6.11-18.26s-12.75-2.97-12.75-2.97z" class="D"/><g class="C"><path d="M859.79 457.62c.47-1.21 2.15-58.12 2.15-58.12 2.85-12.52 16.46-48.14 17.57-50.18 6.2-11.47 6.84-22.29 10.06-25.55l26.28 3.08s4.16 12.16 2.89 20.61c-1.98 13.1-8.65 10.74-9.91 13.19-11.59 22.53-26.39 36.92-26.72 39.92-1.31 12.04 1.86 50.8-5.73 63.33 0 0-17.22-4.64-16.6-6.27zm-10.27 16.56l5.11-5.2c4.08-3.84 9.71 1.85 5.09 9.23 1.85-.66 7.02-3 8.45-3.56 2.43-.94 5.36-5.03 5.36-5.03 1.67 5.44 1.07 12-.42 12.51-5.87 1.98-5.02-.8-9.95 1.25-.45.48-1.87 1.38-2.62 1.86-8.67 5.54-17.41 3.83-19.77-.35-2.45-4.32 8.76-10.72 8.76-10.72z"/></g><g class="L"><path d="M882.04 345.3c-2.71 8.14-21.79 49.83-22.09 52.79-.74 7.17-.07 11.77-.25 12.97-.44 3.01.02 39.51.1 40.49s-.5 4.42-.5 4.42 7.53 1.92 10.55 1.28c3.49-.74.35-1.92.35-1.92l-7.25-3.68 6.56-.9-5.51-2.9s2.01-34.58.78-37.65a20.3 20.3 0 0 1 .77-15.33c1.75-3.11 16.5-49.56 16.5-49.56zm-1.47 111.8c-3.8 2.27-21.36 1.17-22.6-2.2-.77 3.03-.02 6.36-.02 6.36s11.67 5.58 18.93 3.06c2.12-.74 3.69-7.21 3.69-7.21z"/></g><path d="M841.27 306.2l-4.42-.8c-1.04-.34-3.43.03-5.67-1.14-.62-.32-1.32.27-.68.82.63.57 2.42 1.13 3.41 1.65 1.22.64-2.6 1.51-3.57 1.82-.85.25-5.81 2.46-5.54 3.02.52 1.04 5.91-1.63 6.02-1.13.09.38-6.08 1.74-5.81 2.43.74 1.91 5.74-.59 6.59-.14 0 0-1.39.28-2.65.83-1.14.51-2.7.66-2.76 1.05-.25 1.39 7.01-1.28 7.11-.24.08.82-3.77 2.33-3.14 3.09.31.38 5.57-1.64 5.57-1.64s7.04-1.65 9.35-2.83c1.39-.72 5.22-1.69 5.22-1.69l-3.58-5.83c0 0-3.56.98-5.43.73z" class="D"/><path d="M846.11 304.68c-.77.04-3.86 1.03-3.86 1.03s3.13 7.87 2.82 9.42 3.61-1.32 3.61-1.32l-2.57-9.13z" class="B"/><path d="M874.62 264.84c-1.82.38-4 5.2-4.27 11.58-.21 4.77-7.93 20.73-7.93 20.73s-11.15 6.23-19.19 8.17c2.78 3.62 5.25 11.04 5.25 11.04s18.2-1.2 21.82-4.27c3.62-3.06 11.42-15.58 12.08-25.73s-7.74-21.51-7.74-21.51z" class="Z"/><g fill="#2a4fc6"><path d="M873.53 265.99c-1.61.86-3.69 8.11-3.35 10.94s-6.8 19.4-7.76 20.2-19.42 7.61-19.19 8.17 1.93 1.53 2.39 1.71c.46.19 17.95-7.4 19.48-6.55a9.9 9.9 0 0 0 2.46 1.06l-2.98-3.27 2.3 1.05-1.26-3.04s6.14-12.85 6.63-16.58c.49-3.73 1.92-10.39 2.56-10.83.65-.44-1.27-2.88-1.27-2.88z"/><path d="M906.68 253.94c14.64 4.1 20.27 7.23 20.27 7.23s-3.82 26.22-3.56 28.89c.26 2.69-1.18 18.99-.94 33.52.2 12.2-1.82 10.03-3.29 16.88-.38 1.8 2.07 3.72 2.41 6.53-3.5-.05-9.22-1.28-14.46-5.59-6.31-5.19-23.64-7.1-27.64-7.74-7.28-1.17-9.16-.24-9.16-.24.11-1.29.8-3.97.94-5.62.7-8.44 2.6-13.59 4.6-21.72 2.41-9.88-.18-15.5-.24-20.13-.07-4.64-3.57-17.19-1.95-20.44s6.52-6.22 15.83-9.19c4.19-1.34 17.21-2.39 17.21-2.39z"/></g><path d="M909.91 254.36c.11-1.69-1.99-2.56-5.47-2.52-3.48.05-17.59 2.47-17.28 5.64s-.83 9.89 8.73 6.64c9.57-3.24 13.96-8.88 14.02-9.76z" fill="#c7d3e0"/><path d="M887.17 246.25c1.21 3.41 2.14 10.06 1.14 13.23-.99 3.17.91 6.05 5.43 7.03 9.16 1.98 17.43-10.1 17.43-10.1s-3.7-2.5-4.52-4.19c-.07-.12-.13-.27-.19-.42-.86-2-2.03-6.23-3.37-15.14-.42-2.75-15.91 9.59-15.91 9.59z" class="D"/><path d="M880.61 232.69s9.36-.19 9.45.81-1.26.45-1.26.45l-8.52.63.33-1.9z" class="C"/><path d="M911.85 234.96c-.39 2.5-3.33 8.87-4.71 10.12-.37.33-1.89 3.32-2.57 2.38-.66-.95-.77-13.97-.24-14.54.54-.56 7.51 2.05 7.51 2.05z" class="P"/><path d="M908.97 252.66c-.36 2.35-5.26 10.66-15.21 9.98-6.24-.43-6.39-3.93-6.56-5.66-1.19 2.72-1.67 4.81-1.67 4.81s2.02 2.66 5.14 4.04c2.64 1.18 6.08 1.27 9.69.04 6.96-2.38 12.01-10.06 12.01-10.06l-3.41-3.14z" class="B"/><g class="a"><path d="M900.21 225.37c.5-2.17 1.34-3.27-.9-4.43-2.24-1.15 1.16-.22 2.24 1.16s.24 2.53.24 2.53l-1.58.74zm-17.43 7.09c-.34-3.53-.92-8.42.98-11.38 1.9-2.95 7.84-6.09 14.76-5.18a78.9 78.9 0 0 1 5.03.8s-17.97 8.75-17.49 10.1c.46 1.35-3.28 5.66-3.28 5.66z"/></g><path d="M882.3 240.73c.14-5.4.43-12.96 3.48-17.49 1.99-2.89 3.76-4.2 6.28-4.05.6.28 7.14-3.57 7.71-3.21 1.66-.11 3.5 2.28 5.92 2.84 10.67 2.41 1.92 9.84.44 16.79 2.75-.88 3.24 1.72 2.42 4.43-.62 2.07-1.75 3.45-3.33 3.82-2.98 8.12-11.74 11.74-18.25 10.01-3.49-1.79-4.81-8.07-4.68-13.14z" class="T"/><path d="M888.4 217.24c3.58-3.91 17.69-1.84 18.2-.64.01.01 2.87 2.37 3.37 4.24-.32-.03-1.46.57-2.87 1.47-3.18 1.43-5.91 2.27-7.13 3.43-2.23-.39-6.15 1.04-9.8.28-.72-.15-1.84-1.24-2.58-1.68-1.8-1.07-2.5.28-2.97.53-1.37.72-1.95-3.9 3.78-7.62zm21.61 3.63c-.01-.01-.03-.02-.04-.03.03 0 .05.02.04.03zm-.04-.03c3.69 1.27 2.42 4.58 3.1 6.92 1.38 4.77-1.43 9.35-1.43 9.35l-5.06-2.4-1.73 6.44-2.27 2.1s.86-10.7.31-12.3c-.31-.9-.49-4.21-2.1-5.11 1.57-1.75 3.72-1.78 6.05-3.24 1.62-.73 3.07-1.6 3.15-1.75z" class="P"/><path d="M899.97 234.81s8.89-.31 8.99.71c.1 1.04-1.29.47-1.29.47l-8.65 1.28.95-2.47z" class="C"/><g class="B"><path opacity=".36" d="M889.92 235.03c.37 1.2.09 3.96 1.16 4.74s5.86 1.16 6.48.96c.62-.21 1.95-4.44 1.41-5.39-.54-.94-2.15-1.03-4.41-1.45-3.88-.72-4.64 1.14-4.64 1.14z"/><path opacity=".37" d="M886.85 234.01c-.04 1.15.35 4.1-1.4 4.95-1.75.87-3.8.69-4.33-.15-.52-.84-1.71-6.1-.88-6.32a23 23 0 0 1 6.18.67c.27.27.43.85.43.85z"/></g><path d="M879.81 232.45s.34-.48.92-.46a69.6 69.6 0 0 1 5.19.61c1.41.26 1.57.65 1.84 1.31.1.25.61-.59 1.87.28l.52-.58c.89-.98 4.21-.53 6.41-.28 2.8.32 2.99 1.23 3.41 1.48.42.26-.32 4.43-1.66 5.95-1.34 1.51-6.57.37-7.14-.06-.96-.73-1.81-4.8-1.81-4.8-.43-.36-1.86-.26-1.86-.26s-.68 3.1-1.5 4c-.56.61-3.06.51-4.25.15-3.04-.93-1.95-7.34-1.95-7.34zm11.91 7.32c.82.31 5.24.93 5.82.22.57-.69 1.77-4.74.55-5.05-.86-.22-5.84-.97-6.65-.65-.39.16-1.1.85-.93 2.12s.39 3.03 1.22 3.35zm-5.99-1.54c.95-2.12 1.06-3.89 1.06-3.89-.25-.47-.69-.86-1.95-1.03-1.25-.18-4.19-.56-4.24-.25-.42 2.48.01 5.07.77 5.6.65.44 3.6 1.29 4.36-.42z" class="C"/><path d="M888.79 225.58c-4.69-1.64-6.5-6.44-5.55-9.1.28 2.7 3.11 6.36 4.19 6.66 1.08.31 1.37 2.44 1.37 2.44z" class="P"/><g class="a"><path d="M900.53 221.51c-2.58.73-9.32-1.75-8.62-6.51.38 2.66 1.07 3.19 3.19 4.27s2.48 1.12 2.48 1.12-3.65-1.09-4.07-4.67c1.02 3.04 3.83 4.21 5.9 4.81s1.12.97 1.12.97z"/><path d="M899.97 225.73c.54-1.94.96-3.73-1.3-4.64l-2.96-1.04s2.88 1.09 3.49 1.99.2 3.67.36 3.7l.41-.01zm2.74-1.9c.48-1.65.68-4.49-1.72-4.5-2.41-.01-3.88-.19-4.31-2.07 0 0 1.26 1.4 2.52 1.53 1.26.12 4.1-.43 4.28 1.79s-.55 3.47-.55 3.47l-.22-.22z"/></g><path d="M892.2 218.34c-1.68-1.53-4.29-2.79-4.45-4.39-1.33 3.31-.16 4.11-.16 4.11s-2.44-1.94-2.14-3.81c-.75 1.36-1.42 2.79-.15 5.07 1.27 2.29 6.91-.98 6.91-.98z" class="P"/><path d="M896.31 225.89c-2.56.97-6.58 1.12-8.74-1.33-2.17-2.44-5.89-7.63-3.08-11.03-.41 5.74 2.57 7.22 3.81 7.58-2.05-1.25-2.48-5.06-1.56-6.77.02 3.52 3.58 7.06 5.3 7.37l1.72.32c-3.89-2.76-3.59-4.71-3.23-5.95.47 3.97 3.76 4.7 6.07 6.16s-.29 3.65-.29 3.65z" class="a"/><g class="P"><path d="M892.56 225.45c-.47-1.57-1.39-1.88-4.16-3.06a7.8 7.8 0 0 1-4.02-7.4c.27 2.8.76 5.31 3.78 6.62 3.03 1.32 5.01 1.85 4.85 3.47-.17 1.62-.45.37-.45.37zm2.13.36c.61-1.19.09-2.42-1.85-3.28-1.93-.86-4.5-2.46-5.01-3.53 2.76 2.71 5.47 2.52 6.61 3.46a2.7 2.7 0 0 1 .57 3.4c-.57.78-.33-.05-.33-.05z"/></g><path d="M922.13 274.06c-4.94 5.16-8.85 23.52-8.14 26.81.7 3.28-.24 11.25.94 15s-.24 12.42-1.64 14.06c-1.41 1.65-18.79-3.28-28.89-3.98-1.41.93 17.62 1.88 28.66 10.08 3.16 2.35-1.51 6.65-.71 7.5 2.59 2.74 9.22 3.48 9.22 3.48s-1.7-3.72-.76-7 4.23-3.75 2.59-11.49c-1.65-7.74-1.41-28.13.94-37.28s-2.19-17.19-2.19-17.19z" class="Z"/><path d="M899.05 304.33c3.66.38 11.38-.19 13.49-.19 2.13 0 5.02 9.62 2.71 10.2s-16.97-2.5-18.13-3.85c-1.15-1.34 1.93-6.16 1.93-6.16z" class="T"/><path d="M896.59 294.88l-14.84-.88 1.25 21.73c0 .02-.03.03-.03.04-.03.36 2.19.79 4.96.94 2.67.17 4.85.02 5.01-.32h.05l3.6-21.52z" class="M"/><path d="M887.94 316.7c-2.77-.16-4.99-.58-4.96-.94 0-.01-1.22-21.77-1.22-21.77l7.42.44-1.23 22.27z" class="B"/><path d="M896.59 294.95c-.03.53-3.39.78-7.5.53-4.09-.24-7.42-.89-7.39-1.4.03-.54 3.41-.78 7.5-.53 4.13.24 7.42.87 7.39 1.4z" fill="#a3cce2"/><path d="M881.45 292.7l-.89 3.27c.2.47 3.81 1.12 8.52 1.4 4.75.29 8.46.07 8.65-.39.02-.02.02-.06.03-.09l-.21-3.23-16.11-.96z" class="M"/><path d="M897.55 293.65c-.02.46-3.64.64-8.09.37-4.44-.27-8.01-.87-7.99-1.33.03-.47 3.65-.63 8.1-.37s8.01.85 7.98 1.33z" class="B"/><g class="T"><path d="M894.4 300.73c-.93-.95-3.16-1.36-3.64-1.26 0 0 1.85 7.92.5 9.58-.56.69 5.25 2.29 6.72 1.95 4.61.26 2.28-1.95 2.68-4.57.42-2.8-1.06-1.18-6.26-5.7z"/><path d="M890.37 299.42c-.96.17-2.21.85-3.22 1.36-1 .49-4.03 2.31-3.78 2.92.26.61 2.18-.49 4.12-1.11 2.07-.66 2.09-.51 2.59-.26l-3.11.98c-1.1.37-4.19 1.29-3.72 2.38.34.8 2.36-.51 3.91-.73l3.44-.6-2.99 1.01c-1.66.65-3.5 1.05-3.4 1.64.11.61 2.25.27 4.03.19 1.5-.09 3.02.12 3.02.12s-6.53.77-5.52 1.63c1.02.86 5.29.56 7.71.03 1.18-.25.93-3.12.37-5.6-.91-4.16-3.45-3.95-3.45-3.95z"/></g><path d="M909.4 303.82c-.58 0-4.65.63-4.65.63s2.31 4.26.2 10.47c3.91.58 5.7.53 5.7.53l-1.25-11.63z" class="B"/><path d="M926.94 261.18c2.65-.64 4.25 3.85 6.31 9.06 2.05 5.21 14.48 35.44 7.54 44.82-3.12 4.21-29.89 1.36-31.85 1.16.71-2.77.65-11.97-2.11-12.49 10.34-2.25 20.02-3.57 20.02-3.57s-4.85-5.91-5.84-11.33c-2.89-15.77 5.94-27.64 5.94-27.64z" class="Z"/><path d="M920.87 282.33c.94 5.31 4.42 17.19 5.97 17.82s-16.09 2.34-17.45 3.67 1.77 2.58 1.77 2.58 19.73-3.75 21.92-2.19-3.44-2.5-3.44-2.5 4.7.94 5.64 1.57c.94.62-5.64-4.69-5.64-4.69s-7.52-16.26-6.89-25.63c-2.19 4.38-1.88 9.38-1.88 9.38z" fill="#2a4fc6"/><mask id="D" class="B"><path d="M1021.25 336.25H665v157.94h356.25V336.25z"/></mask><path d="M1021.25 336.25H665v157.94h356.25V336.25z" fill="#dfedff"/><path d="M665 494.19v1.19h-.59v-1.19h.59zm356.25 0h.59v1.19h-.59v-1.19zM665 336.25h.59v157.94H665h-.59V336.25h.59zm0 157.94V493h356.25v1.19 1.19H665v-1.19zm356.25 0h-.59V336.25h.59.59v157.94h-.59z" mask="url(#D)" class="H"/><mask id="E" class="B"><path d="M1021.25 336.25H665v10.09h356.25v-10.09z"/></mask><path d="M1021.25 336.25H665v10.09h356.25v-10.09z" fill="#82baff"/><g class="H"><path d="M665 346.34v-2.37h356.25v2.38 2.38H665v-2.37z" mask="url(#E)"/><path d="M991.56 452.63a1079.5 1079.5 0 0 0-296.87 0c8.53-14.37 12.8-20.78 21.33-32.57-8.54-11.85-12.8-18.3-21.33-32.74a1079.2 1079.2 0 0 0 296.87 0c-11.11 14.85-16.66 21.23-27.78 32.74 11.12 11.45 16.68 17.8 27.78 32.57z"/></g><path d="M754.03 419.76h-3.47l-.02-1.91h2.91c.51 0 .93-.06 1.26-.19.33-.14.57-.33.73-.58.17-.26.25-.57.25-.95 0-.42-.08-.76-.24-1.02-.15-.26-.4-.45-.73-.57-.33-.12-.75-.18-1.27-.18h-1.93v11.33h-2.78v-13.51h4.71c.79 0 1.49.07 2.11.22a4.6 4.6 0 0 1 1.59.68 3 3 0 0 1 .99 1.15 3.6 3.6 0 0 1 .34 1.63 3.2 3.2 0 0 1-.38 1.54c-.25.47-.64.85-1.18 1.15-.53.3-1.23.46-2.09.49l-.81.71zm-.12 5.93h-4.11l1.09-2.17h3.02a2.7 2.7 0 0 0 1.2-.23c.31-.16.54-.38.69-.65s.22-.58.22-.94c0-.4-.07-.74-.2-1.03-.13-.29-.34-.51-.63-.67-.29-.16-.67-.24-1.15-.24h-2.68l.02-1.91h3.34l.64.75c.82-.01 1.48.13 1.99.44.51.3.88.68 1.1 1.16.24.48.35.99.35 1.53a4 4 0 0 1-.57 2.19c-.38.59-.93 1.03-1.66 1.33a7 7 0 0 1-2.65.45zm11.42.19a5.6 5.6 0 0 1-2.1-.37 4.6 4.6 0 0 1-1.58-1.05 4.7 4.7 0 0 1-.98-1.55 5.2 5.2 0 0 1-.34-1.89v-.37a6.4 6.4 0 0 1 .32-2.09 4.9 4.9 0 0 1 .93-1.64c.41-.46.9-.82 1.49-1.07a4.9 4.9 0 0 1 1.97-.38 4.8 4.8 0 0 1 1.89.35 3.7 3.7 0 0 1 1.38 1c.38.43.66.95.85 1.56a6.6 6.6 0 0 1 .29 2v1.11h-7.98v-1.78h5.35v-.2c0-.37-.07-.7-.2-.99-.13-.3-.33-.53-.59-.71s-.61-.26-1.02-.26c-.35 0-.65.08-.91.23a1.8 1.8 0 0 0-.62.65c-.15.28-.27.61-.35.98-.07.37-.11.78-.11 1.23v.37c0 .4.06.77.17 1.11.12.34.28.63.49.88s.48.44.78.58c.31.14.66.2 1.05.2.48 0 .93-.09 1.35-.28a2.9 2.9 0 0 0 1.09-.86l1.3 1.41a4 4 0 0 1-.86.87 4.6 4.6 0 0 1-1.3.69c-.51.17-1.08.26-1.73.26zm9.05-.19h-2.69v-10.93c0-.76.15-1.4.45-1.92.3-.53.73-.92 1.27-1.19.55-.27 1.2-.41 1.96-.41.25 0 .49.02.71.06l.67.12-.03 2.01c-.12-.03-.24-.05-.37-.06a5 5 0 0 0-.45-.02c-.32 0-.6.06-.83.17a1.1 1.1 0 0 0-.51.47c-.12.21-.18.47-.18.77v10.93zm2-10.04v1.89h-6.19v-1.89h6.19zm.97 5.12v-.19a6.3 6.3 0 0 1 .31-2.03 4.7 4.7 0 0 1 .92-1.62 4.1 4.1 0 0 1 1.48-1.07c.59-.26 1.26-.39 2.02-.39a5 5 0 0 1 2.03.39 4.1 4.1 0 0 1 1.49 1.07 4.6 4.6 0 0 1 .93 1.62c.21.62.32 1.3.32 2.03v.19a6.3 6.3 0 0 1-.32 2.03c-.21.62-.52 1.16-.93 1.62-.4.46-.9.81-1.49 1.07s-1.26.38-2.02.38-1.44-.13-2.03-.38a4.2 4.2 0 0 1-1.49-1.07 4.8 4.8 0 0 1-.92-1.62c-.21-.62-.31-1.3-.31-2.03zm2.67-.19v.19c0 .42.04.81.11 1.18a3.2 3.2 0 0 0 .35.96c.17.27.38.49.65.64s.59.23.97.23c.37 0 .69-.08.96-.23s.48-.37.64-.64a3.2 3.2 0 0 0 .35-.96c.08-.37.12-.76.12-1.18v-.19a5.2 5.2 0 0 0-.12-1.15c-.07-.37-.2-.69-.36-.97a1.8 1.8 0 0 0-.64-.67c-.27-.16-.59-.24-.96-.24s-.7.08-.96.24a1.9 1.9 0 0 0-.64.67 3.2 3.2 0 0 0-.35.97 5.7 5.7 0 0 0-.11 1.15zm11.15-2.74v7.85h-2.67v-10.04h2.51l.16 2.19zm3.02-2.25l-.05 2.48-.47-.05-.49-.03c-.38 0-.7.05-.98.15-.27.09-.5.23-.69.42-.18.19-.31.41-.41.68-.09.27-.14.57-.15.91l-.54-.17a7.7 7.7 0 0 1 .2-1.79c.13-.55.32-1.03.57-1.44.25-.41.56-.72.93-.95s.78-.33 1.25-.33c.15 0 .3.01.46.04a1.7 1.7 0 0 1 .38.08zm5.7 10.29a5.6 5.6 0 0 1-2.1-.37 4.6 4.6 0 0 1-1.58-1.05c-.43-.45-.75-.96-.98-1.55s-.34-1.22-.34-1.89v-.37a6.4 6.4 0 0 1 .32-2.09 4.9 4.9 0 0 1 .93-1.64 4.1 4.1 0 0 1 1.48-1.07 4.9 4.9 0 0 1 1.97-.38c.71 0 1.34.12 1.89.35a3.7 3.7 0 0 1 1.38 1c.38.43.66.95.85 1.56.19.6.29 1.27.29 2v1.11h-7.98v-1.78h5.35v-.2c0-.37-.07-.7-.2-.99-.13-.3-.33-.53-.59-.71s-.61-.26-1.02-.26c-.35 0-.66.08-.91.23a1.8 1.8 0 0 0-.62.65 3.5 3.5 0 0 0-.35.98 6.2 6.2 0 0 0-.11 1.23v.37c0 .4.06.77.17 1.11.12.34.28.63.49.88.22.25.48.44.78.58.31.14.66.2 1.05.2.48 0 .93-.09 1.35-.28a2.9 2.9 0 0 0 1.09-.86l1.3 1.41c-.21.3-.5.59-.86.87a4.6 4.6 0 0 1-1.3.69c-.51.17-1.08.26-1.73.26zm14.69-.19h-2.94l.02-2.17h2.92a3.3 3.3 0 0 0 1.85-.49c.5-.33.88-.82 1.13-1.46s.39-1.41.39-2.31v-.66c0-.69-.07-1.3-.22-1.83s-.36-.97-.64-1.33-.63-.63-1.05-.81-.89-.28-1.43-.28h-3.02v-2.18h3.02a6.4 6.4 0 0 1 2.48.46 5.6 5.6 0 0 1 1.96 1.31c.55.57.97 1.25 1.27 2.04.3.79.46 1.66.46 2.63v.64a7.3 7.3 0 0 1-.46 2.63c-.3.79-.72 1.47-1.27 2.04-.54.56-1.2 1-1.96 1.31-.75.3-1.59.45-2.5.45zm-1.36-13.51v13.51h-2.78v-13.51h2.78zm14.82 11.24v-4.47c0-.32-.05-.6-.16-.83-.1-.23-.27-.42-.49-.55-.22-.13-.5-.19-.84-.19-.3 0-.55.05-.77.16-.22.1-.38.24-.5.44-.12.19-.18.4-.18.66h-2.67c0-.43.1-.83.3-1.22s.49-.72.86-1.01c.38-.3.83-.53 1.35-.7a5.8 5.8 0 0 1 1.76-.25c.78 0 1.47.13 2.08.39s1.08.65 1.43 1.17a3.4 3.4 0 0 1 .53 1.95v4.3a7.3 7.3 0 0 0 .1 1.35 3.6 3.6 0 0 0 .3.91v.16h-2.7c-.13-.27-.23-.61-.3-1.02a8.4 8.4 0 0 1-.09-1.24zm.35-3.85l.02 1.51h-1.49a3.1 3.1 0 0 0-.92.12 1.7 1.7 0 0 0-.64.34c-.17.14-.29.31-.37.5-.07.19-.11.4-.11.63s.05.44.16.62.26.32.46.43c.2.1.43.15.7.15.4 0 .75-.08 1.05-.24s.53-.36.69-.59c.17-.24.25-.46.26-.67l.71 1.13a4.6 4.6 0 0 1-.41.79c-.17.27-.38.53-.64.77a3.3 3.3 0 0 1-.94.58c-.37.15-.8.22-1.3.22a3.9 3.9 0 0 1-1.74-.38c-.51-.26-.92-.62-1.22-1.07a2.8 2.8 0 0 1-.45-1.56c0-.53.1-.99.3-1.4s.49-.75.87-1.03a4.1 4.1 0 0 1 1.46-.64c.58-.15 1.25-.22 2.02-.22h1.55zm9.31-3.93v1.89h-5.85v-1.89h5.85zm-4.4-2.48h2.67v9.49c0 .29.04.51.11.67.08.15.2.26.35.32.15.06.35.08.58.08l.45-.02.34-.06.01 1.97c-.23.07-.48.13-.74.18s-.56.06-.88.06c-.59 0-1.1-.1-1.54-.29-.43-.2-.77-.51-1-.95s-.35-1-.35-1.71v-9.76zm10.54 12.7a5.6 5.6 0 0 1-2.1-.37 4.6 4.6 0 0 1-1.58-1.05c-.43-.45-.75-.96-.98-1.55s-.34-1.22-.34-1.89v-.37a6.4 6.4 0 0 1 .33-2.09 4.9 4.9 0 0 1 .93-1.64 4.1 4.1 0 0 1 1.48-1.07 4.9 4.9 0 0 1 1.97-.38c.71 0 1.34.12 1.89.35a3.7 3.7 0 0 1 1.38 1c.38.43.66.95.85 1.56.19.6.29 1.27.29 2v1.11h-7.98v-1.78h5.35v-.2c0-.37-.07-.7-.2-.99-.13-.3-.33-.53-.59-.71s-.61-.26-1.02-.26c-.35 0-.66.08-.91.23a1.8 1.8 0 0 0-.62.65c-.15.28-.27.61-.35.98a6.2 6.2 0 0 0-.11 1.23v.37c0 .4.06.77.17 1.11.12.34.28.63.49.88.22.25.48.44.78.58.31.14.66.2 1.05.2.48 0 .93-.09 1.35-.28a2.9 2.9 0 0 0 1.09-.86l1.3 1.41c-.21.3-.5.59-.86.87a4.6 4.6 0 0 1-1.3.69c-.51.17-1.08.26-1.73.26zm9.94-5.1v-.19a6.3 6.3 0 0 1 .32-2.03 4.7 4.7 0 0 1 .92-1.62 4.1 4.1 0 0 1 1.48-1.07c.59-.26 1.26-.39 2.02-.39a5 5 0 0 1 2.03.39 4.1 4.1 0 0 1 1.49 1.07c.41.46.72 1 .93 1.62a6.3 6.3 0 0 1 .31 2.03v.19c0 .73-.11 1.41-.31 2.03-.21.62-.52 1.16-.93 1.62-.4.46-.9.81-1.48 1.07s-1.26.38-2.02.38-1.44-.13-2.03-.38a4.2 4.2 0 0 1-1.49-1.07c-.4-.46-.71-1-.92-1.62-.21-.62-.32-1.3-.32-2.03zm2.67-.19v.19c0 .42.04.81.11 1.18s.19.69.35.96c.17.27.38.49.65.64s.59.23.97.23c.37 0 .69-.08.96-.23s.48-.37.64-.64c.16-.28.28-.6.35-.96.08-.37.12-.76.12-1.18v-.19a5.2 5.2 0 0 0-.12-1.15c-.07-.37-.19-.69-.36-.97-.16-.28-.37-.51-.64-.67s-.59-.24-.97-.24-.7.08-.96.24a1.9 1.9 0 0 0-.64.67c-.16.28-.28.6-.35.97a5.7 5.7 0 0 0-.11 1.15zm11.88 5.11h-2.69v-10.93c0-.76.15-1.4.45-1.92.3-.53.73-.92 1.27-1.19.55-.27 1.2-.41 1.96-.41.25 0 .49.02.72.06l.67.12-.03 2.01a2.4 2.4 0 0 0-.37-.06c-.13-.01-.28-.02-.46-.02-.32 0-.6.06-.82.17-.22.1-.39.26-.51.47s-.18.47-.18.77v10.93zm2-10.04v1.89h-6.19v-1.89h6.19zm11.76 5.89v-9.36h2.77v9.36c0 .9-.2 1.68-.59 2.33-.4.64-.94 1.14-1.62 1.48a5 5 0 0 1-2.3.52c-.88 0-1.67-.15-2.35-.44s-1.21-.75-1.6-1.36c-.39-.62-.58-1.4-.58-2.35h2.79c0 .5.07.89.2 1.18.14.29.34.5.6.62s.57.19.94.19c.35 0 .66-.08.92-.25s.46-.41.6-.73a2.8 2.8 0 0 0 .22-1.18zm4.55-.77v-.19a6.3 6.3 0 0 1 .32-2.03 4.7 4.7 0 0 1 .92-1.62 4.1 4.1 0 0 1 1.48-1.07c.59-.26 1.26-.39 2.02-.39a5 5 0 0 1 2.03.39 4.1 4.1 0 0 1 1.49 1.07c.41.46.72 1 .93 1.62a6.3 6.3 0 0 1 .32 2.03v.19c0 .73-.11 1.41-.32 2.03-.21.62-.52 1.16-.93 1.62-.4.46-.9.81-1.48 1.07s-1.26.38-2.02.38-1.44-.13-2.03-.38a4.2 4.2 0 0 1-1.49-1.07c-.4-.46-.71-1-.92-1.62-.21-.62-.32-1.3-.32-2.03zm2.67-.19v.19c0 .42.04.81.11 1.18s.19.69.35.96c.17.27.38.49.65.64s.59.23.97.23c.37 0 .69-.08.96-.23s.48-.37.64-.64c.16-.28.28-.6.35-.96.08-.37.12-.76.12-1.18v-.19a5.2 5.2 0 0 0-.12-1.15c-.07-.37-.19-.69-.36-.97a1.8 1.8 0 0 0-.64-.67c-.27-.16-.59-.24-.96-.24s-.7.08-.97.24a1.9 1.9 0 0 0-.64.67c-.16.28-.28.6-.35.97a5.7 5.7 0 0 0-.11 1.15zm11.3-4.93v10.04h-2.68v-10.04h2.68zm-2.85-2.62c0-.39.14-.71.41-.97s.64-.38 1.09-.38.81.13 1.09.38c.28.25.42.58.42.97s-.14.71-.42.96c-.27.25-.63.38-1.09.38s-.82-.13-1.09-.38-.41-.57-.41-.96zm7.67 4.76v7.9h-2.67v-10.04h2.5l.17 2.14zm-.39 2.52h-.72a6.5 6.5 0 0 1 .29-2c.19-.6.46-1.11.81-1.53.35-.43.76-.75 1.23-.97.48-.23 1.02-.34 1.61-.34a3.9 3.9 0 0 1 1.29.2c.39.14.72.35 1 .65.28.3.5.69.65 1.18.15.49.23 1.09.23 1.79v6.4h-2.69v-6.41c0-.44-.06-.79-.19-1.04s-.31-.42-.55-.52c-.24-.11-.53-.16-.87-.16-.36 0-.67.07-.94.21-.26.14-.48.34-.65.59a2.8 2.8 0 0 0-.38.87c-.09.33-.13.69-.13 1.08zm11.24-4.67v10.04h-2.68v-10.04h2.68zm-2.85-2.62c0-.39.14-.71.41-.97s.64-.38 1.09-.38c.45 0 .81.13 1.09.38.28.25.42.58.42.97s-.14.71-.42.96c-.27.25-.63.38-1.09.38-.46 0-.82-.13-1.09-.38s-.41-.57-.41-.96zm7.67 4.76v7.9h-2.67v-10.04h2.5l.17 2.14zm-.39 2.52h-.72a6.5 6.5 0 0 1 .29-2c.19-.6.46-1.11.81-1.53.35-.43.76-.75 1.23-.97a3.7 3.7 0 0 1 1.61-.34 3.9 3.9 0 0 1 1.29.2c.39.14.72.35 1 .65s.5.69.65 1.18c.15.49.23 1.09.23 1.79v6.4h-2.69v-6.41c0-.44-.06-.79-.18-1.04s-.31-.42-.55-.52c-.24-.11-.53-.16-.87-.16-.36 0-.67.07-.94.21-.26.14-.48.34-.65.59-.17.25-.29.54-.38.87s-.13.69-.13 1.08zm14.78-4.67h2.42v9.7c0 .92-.2 1.69-.61 2.33-.4.64-.97 1.13-1.69 1.46-.72.33-1.57.5-2.52.5a5.8 5.8 0 0 1-1.34-.17c-.46-.11-.91-.29-1.34-.52-.42-.23-.77-.53-1.06-.89l1.18-1.58a3.3 3.3 0 0 0 1.08.83c.41.2.86.31 1.35.31.48 0 .89-.09 1.23-.27.33-.17.59-.43.77-.77.18-.33.27-.74.27-1.21v-7.4l.26-2.32zm-6.75 5.14v-.19a7.3 7.3 0 0 1 .28-2.09c.19-.63.46-1.17.81-1.62.35-.45.78-.8 1.28-1.05a3.8 3.8 0 0 1 1.7-.37c.67 0 1.23.12 1.68.37s.82.6 1.11 1.06a5.5 5.5 0 0 1 .68 1.61c.17.61.3 1.28.39 2.01v.43a11.9 11.9 0 0 1-.42 1.95c-.19.6-.43 1.13-.73 1.58-.3.44-.68.79-1.13 1.04-.45.25-.98.37-1.6.37s-1.18-.13-1.68-.38c-.49-.25-.92-.61-1.27-1.07a5.1 5.1 0 0 1-.82-1.61 7 7 0 0 1-.28-2.02zm2.67-.19v.19c0 .41.04.8.12 1.16s.2.68.37.95c.17.27.39.49.64.64.26.15.57.22.92.22.49 0 .89-.1 1.2-.31.31-.21.54-.5.7-.86a3.7 3.7 0 0 0 .27-1.26v-1.22a4.1 4.1 0 0 0-.16-1.05 2.5 2.5 0 0 0-.39-.81c-.17-.22-.38-.4-.65-.52s-.58-.19-.95-.19c-.35 0-.66.08-.92.24-.25.15-.47.37-.64.64-.17.27-.29.59-.38.96-.09.37-.13.76-.13 1.19z" class="B"/></g></g><rect x="1" y="1" width="1138" height="638" rx="15" stroke="#0668e1" stroke-width="2"/><defs><filter id="F" x="-4.75" y="56.41" width="332.5" height="98.56" filterUnits="userSpaceOnUse" color-interpolation-filters="sRGB"><feFlood flood-opacity="0" result="A"/><feColorMatrix in="SourceAlpha" values="0 0 0 0 0 0 0 0 0 0 0 0 0 0 0 0 0 0 127 0" result="B"/><feOffset dy="1.78125"/><feGaussianBlur stdDeviation="2.38"/><feComposite in2="B" operator="out"/><feColorMatrix values="0 0 0 0 0 0 0 0 0 0 0 0 0 0 0 0 0 0 0.3 0"/><feBlend in2="A"/><feBlend in="SourceGraphic"/></filter><linearGradient id="G" x1="834.79" y1="465.52" x2="843.13" y2="65.26" gradientUnits="userSpaceOnUse"><stop stop-color="#ddecff"/><stop offset="1" stop-color="#eaf3ff"/></linearGradient><linearGradient id="H" x1="772.36" y1="207.09" x2="347.35" y2="606.15" gradientUnits="userSpaceOnUse"><stop stop-color="#e0eeff"/><stop offset="1" stop-color="#f9f9f9"/></linearGradient><linearGradient id="I" x1="1113.55" y1="343.58" x2="810.9" y2="581.48" gradientUnits="userSpaceOnUse"><stop stop-color="#d6e8ff"/><stop offset="1" stop-color="#cfe4ff"/></linearGradient><clipPath id="J"><rect width="1140" height="640" rx="16" class="B"/></clipPath><clipPath id="K"><path transform="translate(665 141.5)" d="M0 0h356.25v356.25H0z" class="B"/></clipPath><path id="L" d="M830.9 330.62l13.28.39c3.94.11 7.14 3.33 7.14 7.17v31.31"/><path id="M" d="M840.19 314.11c-1.32-.94-4.53-2.94-6.8-3.4"/></defs></svg>