<svg xmlns="http://www.w3.org/2000/svg" width="100" height="100" fill="none" xmlns:v="https://vecta.io/nano"><g clip-path="url(#C)"><path opacity=".95" d="M44.39 20.54h15.41c1.41 0 2.55-1.15 2.55-2.56V4.55c0-1.42-1.14-2.56-2.55-2.56H44.39c-1.41 0-2.55 1.15-2.55 2.56v13.43c0 1.42 1.14 2.56 2.55 2.56z" fill="url(#A)"/><path d="M50.7.36s-1.31.72-.89 2.5.57 2.01.24 2.73-.64 3.73-.27 4.28 4.02-2.69 4.42-5.28-.51-3.69-.83-4.1-1.5-.8-2.66-.14z" fill="#344052"/><path d="M48.23 15.05h1.4l.12-1.25c-.02-.12 1.4-3.85 1.53-4.16s.65-1.14.72-1.92-.94-1.09-.94-1.09c-1.37.25-1.83 2.15-1.83 2.15l-.86 4.93c-.07.28-.12.77-.13 1.34z" fill="#eea886"/><g fill="#eb4747"><path d="M48.94 9.7l2.09.89s1.92-4.79.31-4.25a3.2 3.2 0 0 0-2.4 3.37z"/><path d="M49.41 11.96l.26 2.61c-.01.08-.04.25-.09.48h5.04l-.33-1.15c-.24-.82-.01-1.03.11-1.69.05-.26.22-.74.4-1.29l.19-.57c.22-.69.32-1.4.39-1.81.3-1.95-1.19-2.13-1.19-2.13-.55-.1-1.52-.4-1.52-.4l-1.52.32s-.14.05-.35.21a2.8 2.8 0 0 0-.34.3 9.2 9.2 0 0 0-.82 1.2l-.3.5c-.31.54-.53.97-.52 1.46.01.48.53 1.48.6 1.96z"/></g><g fill="#eea886"><path d="M51.15 6.33s-.95 1.63-.6 1.75 2.21-.29 2.94-1.83c0 0-1.22-.56-2.34.08z"/><path d="M51.28 7.08s.84.36 1.61-.82c0 0-.21-1.34.23-2.12s-1.9.93-1.9.93l.08.4.06.41.03.38c.01.3-.01.6-.1.82z"/></g><path d="M53.38 8.9c.17.9 1.42 2.02 1.42 2.02l.19-.56c-.86-.55-1.61-1.46-1.61-1.46z" fill="#393d63"/><path d="M53.69 9.62c.08.33.44 3.64.4 3.75a39.5 39.5 0 0 0-.38 1.68h1.63c.17-.55.27-1 .24-1.26-.1-1.12.27-4.68.27-4.68s.34-2.15-1.44-2.42c0 0-1.05.14-1.11.92s.31 1.69.39 2.01z" fill="#eea886"/><path d="M55.99 10.07l-2.21.52s-1.75-3.42-.17-4.04c1.66-.66 2.78 1.66 2.38 3.52z" fill="#eb4747"/><path d="M50.9.54s-1.92.71-.7 4.04 3.7-.57 3.32-2.61S50.9.54 50.9.54z" fill="#eea987"/><path d="M49.9 2.57a4.4 4.4 0 0 0 2.64.95l.44 1.22s1.61-2.77-.24-4.17-3.52 1.42-2.84 2z" fill="#344052"/><path d="M52.32 3.71c0-.25.13-.81.5-.67s.04 1.3-.21 1.24c0 0-.29.02-.29-.56z" fill="#eea987"/><path d="M51.38 6.2c.9-.25 1.25-1.11 1.26-1.14-.73.95-1.29.82-1.29.82l.03.33z" fill="#a77860"/><g fill="#4598e6"><path d="M51.35 17.03h1.63v.3h-1.63v-.3zM47.21 5.34v.3h-1.73v1.64h-.29V5.34h2.03zm11.78 1.93h-.29V5.64h-1.73v-.3H59v1.93zm-13.51 8.44v1.64h1.73v.3h-2.03v-1.93h.29zm13.22 0h.29v1.93h-2.03v-.3h1.73V15.7z"/></g><path opacity=".95" d="M3.19 44.5h28.3c1.85 0 3.35-1.5 3.35-3.36V6.69c0-1.85-1.5-3.36-3.35-3.36H3.19c-1.85 0-3.35 1.5-3.35 3.36v34.45c0 1.85 1.5 3.36 3.35 3.36z" fill="url(#B)"/><g fill="#4598e6"><path d="M16.27 27.64h2.77v.52h-2.77v-.52zM9.21 7.43v.5H6.25v2.79h-.5V7.43h3.46zm20.08 3.29h-.5V7.93h-2.96v-.5h3.46v3.29zM6.25 25.11v2.79h2.96v.5H5.75v-3.29h.5 0zm22.54 0h.5v3.29h-3.46v-.5h2.96v-2.79z"/></g><path d="M7.46 24.88h1.68l.08-.17c.5-1.18 3.07-3.9 3.07-3.9 0 .02 0 .02.01.02l.01.02.01.03.88 4h11.38l.09-.43a9.3 9.3 0 0 0 .22-1.18l.01-.06.02-.21c.1-1.03.02-1.81.02-1.89.03.07.26.92.56 1.96l.54 1.8h2.69l-3.37-9.78a33 33 0 0 0-1.59-.79c-.65-.31-1.44-.77-2.15-1.16l-1-.52-.05-.02h0l-.82-.37-.21-.02-3.52-.31-.15-.01c-.03 0-.06 0-.07 0-.09.01-.53.16-1.1.38l-.07.03-.08.03-.15.06-.32.12-.11.04-2.79 1.25c-.21.15-.85 1.37-1.6 2.88-.81 2.59-1.79 6.33-2.11 8.17z" fill="#decbc4"/><path d="M15.81 11.57c.03 1.54 2.99 2.38 2.99 2.38s1.24-1.56.94-1.71c-.12-.06-.16-.29-.18-.55-.01-.25 0-.52.02-.7l.02-.18-.96-.98c-.94-.93-2.23-2.13-2.24-1.66 0 .03 0 .06.01.09.23 1.07-.6 3.31-.6 3.31z" fill="#eea886"/><path d="M16.95 9.32a7.5 7.5 0 0 0 .35.47c.45.57 1.31 1.52 2.27 1.9-.01-.25 0-.52.02-.7.1 0 .2-.01.29-.04-.26-.46-.64-.95-.64-.95l-.59-.18-1.69-.51z" fill="#a77860"/><path d="M16.38 8.19l.57 1.13c.05.11.17.28.35.47.49.53 1.4 1.23 2.29 1.2.1 0 .2-.01.29-.04.36-.08.79-.25 1.02-.71 1.85-3.64.51-6.61.51-6.61s-5.05-1.44-5.84.09c-.55 1.07.22 3.15.82 4.46z" fill="#eea886"/><path d="M21.41 3.64s.47-.03.59-.92c.11-.88-.12-1.13-.12-1.13S19.79.71 19.04.6s-2.59-.22-3.02.27c0 0-1.05-.24-1.33 1.5-.45 2.78 1.55 5.47 1.55 5.47s-.02-1.81.38-2.05.74.33.74.33l.81.15s-1.24-2.68.25-2.78 2.15.3 3 .15z" fill="#e8734d"/><path d="M17.33 5.4c-.08-.8-1.52-1.1-1.42-.27s.8 1.64 1.13 1.61.35-.74.29-1.35z" fill="#eea886"/><g fill="#3c4145"><path d="M8.91 16.78c.47-1.51.87-2.7 1.05-2.83.31-.23 2.81-.92 3.99-1.38l.11-.04.32-.12.15-.06.08-.03.07-.03A19.3 19.3 0 0 1 16 13.97c1.22 1.75 2.82 4.58 2.57 7.19l-.34 3.39-.04.32h-5.52l-.37-4-.01-.03c0-.01 0-.01-.01-.02-.01-.02-1.34 2.08-1.41 4.05H7.4a46.5 46.5 0 0 1 1.5-8.1zm11.67-4.13s.42 1.39.96 4.88l.06.36.01.04.04.24v.03l.02.17.06.42.75 6.09h2.18c.12-.67.23-1.28.22-1.7 0 .01.01.02.01.03l.56 1.53.05.14h3.76l-3.75-9.85c-.07-.06-1.04-.58-1.68-.89l-2.25-1.06-.98-.45-.02.02z"/></g><g fill="#51565c"><path d="M15.5 16.1l1.44.82-.62.63 1.35 7.33h.51l.38-3.72c.38-4.04-3.64-8.6-3.89-8.88l-.62.24 1.44 3.57zm5.06-3.49s.54 1.77 1.17 6.18l.75 6.09h.21l.28-6.93-.69-.75.61-.77-1.31-3.35-.98-.45-.05-.02z"/></g><g fill="#f5e2d9"><path d="M14.61 12.3l1.19-.73s.03.66 2.99 2.38l-.84 2.38-3.35-4.03z"/><path d="M19.58 11.9s-.05.71-.79 2.05l1.64 2.15.12-3.48-.97-.71z"/></g><g fill="#d44040"><path d="M18.79 13.95s-.32 1.28-.2 1.64c0 0 .7.26 1.2-.06 0 0-.36-.89-1-1.57z"/><path d="M19.18 18.29c.34 2.29.34 4.62.21 6.59h1.4l.05-.87c.26-4.54-1.34-8.6-1.34-8.6l-.71-.18.38 3.07z"/></g><path d="M24.83 21.12l.05 2.06v.08-.05l.56 1.53.04-1.66c-.08-3.06-1.03-4.66-1.03-4.66.22.53.32 1.68.38 2.71z" fill="#2d3133"/><path d="M9.32 35.57v4.6H8.3v-4.6h1.02zm1.71 1.77v.76H9.27v-.76h1.77zm.94-1.77v4.6h-1.01v-4.6h1.01zm2.44 1.22c.41 0 .74.06.99.17a1 1 0 0 1 .53.55c.11.25.17.59.17 1.02 0 .42-.06.75-.17 1.01a1 1 0 0 1-.53.55c-.25.11-.58.17-.99.17s-.74-.06-.99-.17-.43-.29-.54-.55-.17-.59-.17-1.01c0-.43.06-.77.17-1.02s.29-.44.54-.55.58-.17.99-.17zm0 .71c-.17 0-.3.03-.4.09s-.17.16-.21.31-.06.36-.06.63c0 .27.02.47.06.62s.11.25.21.31.23.08.4.08.31-.03.41-.08.16-.16.2-.31.06-.35.06-.62c0-.28-.02-.49-.06-.63s-.1-.25-.2-.31a.8.8 0 0 0-.41-.09zm7.49-.63l-.81 3.03c-.02.08-.06.14-.12.19s-.14.07-.22.07h-.75c-.09 0-.17-.03-.23-.08s-.1-.13-.11-.22l-.37-1.86-.03-.27a3.1 3.1 0 0 0-.04-.27h-.08l-.04.27-.04.27-.36 1.86c-.01.09-.05.16-.12.22s-.14.08-.23.08h-.74c-.08 0-.15-.02-.21-.07s-.1-.11-.12-.19l-.81-3.03h.99l.45 2.13.05.27.03.27h.09l.04-.27.05-.27.37-1.84c.01-.08.04-.15.11-.21s.14-.09.23-.09h.64c.09 0 .16.03.23.09s.11.12.12.21l.35 1.83.05.27.05.27h.08l.04-.27.05-.27.45-2.13h.99zm3.25-1.45c.48 0 .84.08 1.08.25s.35.42.35.78c0 .2-.04.36-.12.51s-.17.27-.29.39l-.35.36a2 2 0 0 0-.31.42c-.08.16-.14.35-.15.57h-.79c-.01-.24.02-.44.07-.61s.14-.33.23-.47a3.5 3.5 0 0 1 .29-.36c.1-.11.18-.22.25-.31a.6.6 0 0 0 .12-.31c.02-.15-.02-.26-.13-.33s-.26-.11-.49-.11l-.55.01-.39.01-.41.02-.03-.67.35-.06.32-.05c.12-.02.25-.03.39-.03l.55-.01zm-.06 3.73c.13 0 .22.03.27.08s.07.14.07.27v.32c0 .13-.02.22-.07.27s-.14.07-.27.07h-.23c-.13 0-.22-.02-.27-.07s-.07-.14-.07-.27v-.32c0-.13.02-.22.07-.27s.14-.08.27-.08h.23z" fill="#1b1c17"/><g fill="#093542"><path d="M78.47 79.01h3.94L89.29 100h-.53L78.47 79.01zm-10.32 0H64.2l-6.87 20.83h.53l10.29-20.83zm8.57 20.49h.66l1.25-19.16h-3.16l1.25 19.16z"/></g><g fill="#6a89ce"><path d="M99.38 57.02l-10.7 20.09H70.86c-.34 0-3.16-.23-3.33 0L80.32 53.1a7.1 7.1 0 0 1 6.27-3.77h8.16c.17 0 .35.01.52.03 3.65.35 5.88 4.33 4.1 7.66z"/><path d="M88.68 77.11c-1.34 2.63-4.04 4.29-6.99 4.29h-22.2c-1.29 0-2.47-.71-3.07-1.84l-.06-.12c-.23-.47-.36-1-.35-1.53v-.05c0-.41.34-.75.75-.75h31.93z"/></g><path d="M99.38 57.02l-10.7 20.09c-1.34 2.63-4.04 4.29-6.99 4.29h-22.2c-1.29 0-2.47-.71-3.07-1.84.98-.47 2.77-.13 3.77-.13 5.99-.01 12.84.88 18.09-2.32.88-.53 1.7-1.17 2.43-1.9 3.43-3.42 5.64-7.97 7.64-12.27 2.14-4.59 4.33-9.22 6.94-13.58 3.65.35 5.87 4.33 4.1 7.66z" fill="#4f72b2"/><path d="M59.72 52.61c0-2.08.26-3.74.76-4.97s1.44-2.45 2.79-3.64a14.2 14.2 0 0 0 2.7-2.92c.44-.72.67-1.54.67-2.38 0-2.51-1.17-3.77-3.5-3.77-1.11 0-1.99.34-2.66 1.02s-1.01 1.61-1.04 2.8h-6.51c.03-2.84.95-5.06 2.77-6.66s4.3-2.41 7.44-2.41c3.17 0 5.63.76 7.38 2.29s2.62 3.68 2.62 6.45c0 1.24-.29 2.47-.85 3.58-.57 1.12-1.57 2.37-2.99 3.73l-1.81 1.72a6.1 6.1 0 0 0-1.95 3.81l-.09 1.36-5.75-.01zm-.65 6.83c0-.99.34-1.81 1.02-2.45s1.55-.96 2.61-.96 1.93.32 2.61.96 1.02 1.46 1.02 2.45c0 .98-.33 1.78-1 2.42s-1.54.95-2.64.95-1.97-.32-2.64-.95a3.2 3.2 0 0 1-1-2.42z" fill="#0668e1"/><path d="M62.02 63c-1.11 0-2.02-.33-2.71-.98s-1.03-1.49-1.03-2.49c0-1.02.36-1.86 1.05-2.52s1.6-.99 2.68-.99 1.98.33 2.68.99 1.05 1.51 1.05 2.52c0 1-.35 1.83-1.03 2.49s-1.59.98-2.71.98zm0-6.79c-1.03 0-1.89.32-2.55.94s-.99 1.42-.99 2.38a3.1 3.1 0 0 0 .97 2.35c.64.61 1.51.93 2.57.93s1.92-.31 2.57-.93.97-1.4.97-2.35c0-.96-.33-1.76-.99-2.38s-1.52-.94-2.55-.94zm2.85-3.41h-5.94v-.1a13.5 13.5 0 0 1 .77-5.01c.51-1.24 1.46-2.48 2.82-3.68 1.34-1.18 2.24-2.16 2.68-2.9a4.5 4.5 0 0 0 .66-2.33c0-2.47-1.11-3.67-3.4-3.67-1.07 0-1.95.33-2.59.99a3.9 3.9 0 0 0-1.01 2.73v.1h-6.7v-.1c.03-2.85.97-5.12 2.81-6.74s4.35-2.43 7.5-2.43c3.18 0 5.69.78 7.45 2.31s2.66 3.73 2.66 6.53c0 1.26-.29 2.5-.86 3.62a14.8 14.8 0 0 1-3.01 3.76l-1.82 1.72c-1.11 1.06-1.76 2.33-1.92 3.75l-.1 1.46zm-5.74-.2h5.55l.08-1.27a6.2 6.2 0 0 1 1.98-3.88l1.82-1.72c1.41-1.35 2.4-2.6 2.96-3.7.56-1.1.84-2.31.84-3.53 0-2.74-.87-4.88-2.59-6.38s-4.19-2.26-7.32-2.26c-3.1 0-5.58.8-7.37 2.38-1.77 1.56-2.69 3.74-2.74 6.49h6.31c.05-1.17.41-2.1 1.07-2.77.68-.69 1.6-1.05 2.73-1.05 2.39 0 3.6 1.3 3.6 3.87 0 .85-.24 1.69-.69 2.42-.45.76-1.37 1.75-2.72 2.94-1.34 1.18-2.27 2.4-2.77 3.61-.49 1.2-.74 2.82-.75 4.83z" fill="#fff"/></g><defs><linearGradient id="A" x1="52.09" y1="23.27" x2="52.09" y2="6.43" gradientUnits="userSpaceOnUse"><stop stop-color="#d1d7e0"/><stop offset="1" stop-color="#ebebff"/></linearGradient><linearGradient id="B" x1="17.34" y1="50.54" x2="17.34" y2="13.2" gradientUnits="userSpaceOnUse"><stop stop-color="#d1d7e0"/><stop offset="1" stop-color="#ebebff"/></linearGradient><clipPath id="C"><path fill="#fff" d="M0 0h100v100H0z"/></clipPath></defs></svg>