<svg xmlns="http://www.w3.org/2000/svg" width="100" height="100" fill="none" xmlns:v="https://vecta.io/nano"><style><![CDATA[.B{fill:#fff}.C{fill:#0668e1}.D{stroke-linecap:round}.E{stroke-linejoin:round}.F{fill:#2a2e44}.G{fill:#343852}.H{stroke:#110909}.I{stroke-width:.1}.J{fill:#6b6b6b}.K{fill:#efcdaf}.L{stroke-width:1.41}]]></style><g clip-path="url(#P)"><g class="F"><path d="M37.25 75.41l-1.65-.02-3.01-1.32.1-.22 2.96 1.3 1.6.02v.25z"/><path d="M39.96 75.32c0 .29-.24.52-.53.51l-2.53-.03c-.29 0-.53-.24-.53-.53s.24-.52.53-.52l2.53.03c.29 0 .53.24.53.53v.01z"/></g><path d="M34.35 78.71l-2.07-.02V73.5l2.78.04v4.48a.7.7 0 0 1-.71.7h0z" fill="#404360"/><path d="M39.67 66.01v-4.19c0-2.56 1.06-4.82.74-11.97l-.61-11.47a2.3 2.3 0 0 0-2.19-2.12l-17.88-.78c-1.26-.06-2.26.96-2.19 2.22l.59 11.41c.32 7.27-.74 9.58-.74 12.18v4.26l22.27.46h0z" fill="#64667a"/><path d="M42.02 66.06v-4.18c0-2.55 1.06-4.81.74-11.95l-.61-11.45c-.07-1.14-1.03-2.06-2.19-2.11l-17.88-.78c-1.26-.06-2.26.96-2.19 2.22l.59 11.38c.32 7.26-.74 9.56-.74 12.16v4.26l22.27.46h0z" fill="#7a7d91"/><path d="M18.76 68.58l20.89.38v-2.95l-22.24-.45v1.65c0 .75.61 1.37 1.35 1.38h0z" class="G"/><path d="M21.1 68.62l19.54.36c.75.01 1.35-.57 1.35-1.3v-1.62l-22.24-.45v1.65c0 .75.61 1.36 1.35 1.38h0z" class="F"/><path d="M22.44 71.73l12.16.19a2.7 2.7 0 0 0 2.77-2.69v-.32l-17.7-.32v.33c0 1.53 1.24 2.79 2.77 2.81z" fill="#404360"/><g class="G"><path d="M36.64 73.56l-4.46-.07c-.9-.01-1.63-.75-1.63-1.64l7.72.12c0 .88-.73 1.59-1.63 1.58h0z"/><path d="M25.26 71.78l12.16.19a2.7 2.7 0 0 0 2.77-2.68v-.32l-17.7-.32v.32c0 1.53 1.24 2.78 2.77 2.81z"/></g><path d="M33.83 73.52l-4.46-.07c-.9-.01-1.63-.75-1.63-1.64l7.72.12c0 .89-.73 1.59-1.63 1.58z" class="F"/><path d="M33.67 78.7l-2.07-.02c-.39 0-.71-.32-.71-.71v-4.49l2.78.04v5.18z" class="G"/><g class="F"><path d="M34.11 85l-2.36-.01v-6.31l2.36.02V85z"/><path d="M48 90.62c0 .8-.64 1.45-1.44 1.45s-1.44-.65-1.44-1.45c0-.61.37-1.13.91-1.34v-1.94L35.24 86.1l4.17 1.87.24.45v.82c.55.2.96.74.96 1.37 0 .8-.64 1.45-1.44 1.45s-1.44-.65-1.44-1.46c0-.59.35-1.1.86-1.33v-.56l-5.78-2.94-5.78 2.91v.57c.5.23.86.74.86 1.34 0 .81-.64 1.47-1.44 1.47S25 91.41 25 90.6c0-.64.4-1.18.96-1.38v-.83l.25-.46 4.17-1.85-10.79 1.15v1.98c.53.22.91.75.91 1.37 0 .82-.64 1.48-1.44 1.48s-1.44-.66-1.44-1.48c0-.63.37-1.15.91-1.37v-2.43l.43-.54 13.86-1.75 13.86 1.88.43.53v2.38c.53.22.91.74.91 1.34H48z"/></g><use href="#Q" stroke="#2a2e44" class="D E L"/><path d="M51.06 72.19l-26.03-.41a2.6 2.6 0 0 1-2.55-2.58v-1.94c0-1.4 1.14-2.51 2.55-2.48l26.03.55c1.41.03 2.55 1.16 2.55 2.53v1.9c0 1.37-1.14 2.46-2.55 2.43z" class="G"/><path d="M30.33 33.47c0-1.42.17-2.55.52-3.39s.98-1.67 1.91-2.48 1.54-1.48 1.84-1.99a3.1 3.1 0 0 0 .46-1.62c0-1.71-.8-2.57-2.39-2.57-.75 0-1.36.23-1.81.69a2.7 2.7 0 0 0-.71 1.91H25.7c.02-1.93.65-3.45 1.89-4.54s2.93-1.64 5.07-1.64c2.16 0 3.84.52 5.04 1.56s1.79 2.5 1.79 4.4c0 .85-.2 1.68-.58 2.44a10.1 10.1 0 0 1-2.04 2.54l-1.24 1.17c-.78.74-1.22 1.6-1.33 2.6l-.06.93-3.92-.01zm-.44 4.65a2.2 2.2 0 0 1 .7-1.67c.46-.44 1.06-.66 1.78-.66a2.5 2.5 0 0 1 1.78.66 2.2 2.2 0 0 1 .7 1.67c0 .66-.23 1.21-.68 1.65s-1.05.65-1.8.65a2.5 2.5 0 0 1-1.8-.65c-.46-.43-.68-.98-.68-1.65z" class="C"/><path d="M31.9 40.54c-.76 0-1.38-.22-1.85-.67s-.7-1.01-.7-1.7c0-.69.24-1.27.72-1.72s1.09-.68 1.83-.68 1.35.23 1.83.68.72 1.03.72 1.72c0 .68-.24 1.25-.7 1.7s-1.09.67-1.85.67zm0-4.63c-.7 0-1.29.21-1.74.64s-.68.97-.68 1.62c0 .64.22 1.18.66 1.6s1.03.63 1.75.63 1.31-.21 1.75-.63.66-.96.66-1.6c0-.65-.23-1.2-.68-1.62s-1.04-.64-1.74-.64zm1.95-2.32h-4.05v-.07c0-1.42.18-2.57.53-3.41s1-1.69 1.92-2.51a9.7 9.7 0 0 0 1.83-1.97c.29-.48.45-1.03.45-1.59 0-1.68-.76-2.5-2.32-2.5-.73 0-1.33.23-1.76.67s-.67 1.07-.69 1.86v.06h-4.57v-.07c.02-1.94.66-3.49 1.91-4.59s2.97-1.66 5.12-1.66c2.17 0 3.88.53 5.08 1.57a5.6 5.6 0 0 1 1.81 4.45 5.4 5.4 0 0 1-.59 2.47c-.39.77-1.08 1.63-2.05 2.56l-1.24 1.17a4.1 4.1 0 0 0-1.31 2.55l-.07.99zm-3.91-.13h3.79l.06-.86c.11-1.01.57-1.89 1.35-2.64l1.24-1.17c.96-.92 1.64-1.77 2.02-2.52a5.3 5.3 0 0 0 .57-2.41c0-1.86-.59-3.33-1.77-4.35s-2.86-1.54-4.99-1.54c-2.12 0-3.81.54-5.03 1.62-1.2 1.06-1.83 2.55-1.87 4.42h4.3c.03-.79.28-1.43.73-1.89a2.5 2.5 0 0 1 1.86-.71c1.63 0 2.45.89 2.45 2.63 0 .58-.16 1.15-.47 1.65-.31.51-.93 1.19-1.86 2-.91.8-1.55 1.63-1.89 2.46-.33.81-.5 1.92-.51 3.29z" class="B"/><path d="M17.64 54.72l4.87.14c1.45.04 2.62 1.22 2.62 2.63v11.49" stroke="#2a2e44" class="D E L"/><mask id="A" class="B"><path d="M100 55.67H0V100h100V55.67z"/></mask><path d="M100 55.67H0V100h100V55.67z" fill="#ddecff"/><path d="M0 100v.33h-.17V100H0zm100 0h.17v.33H100V100zM0 55.67h.17V100H0-.17V55.67H0zM0 100v-.33h100v.33.33H0V100zm100 0h-.17V55.67h.17.17V100H100z" mask="url(#A)" class="C"/><mask id="B" class="B"><path d="M100 55.67H0v4.03h100v-4.03z"/></mask><path d="M100 55.67H0v4.03h100v-4.03z" fill="#82baff"/><path d="M0 59.7v-.67h100v.67.67H0v-.67z" mask="url(#B)" class="C"/><path d="M81.01 38.35c-2.67.89-.16 10.32 3.09 10.32s-.16-11.3-3.09-10.32z" fill="#42756b"/><path d="M81.41 39.33s2.68 5.37 2.68 9.35v2.56" class="D E H I"/><path d="M87.7 42.26c1.88.63.11 7.26-2.17 7.26s.11-7.94 2.17-7.26z" fill="#4b8477"/><path d="M87.41 42.94s-1.88 3.77-1.88 6.57v1.8" class="D E H I"/><path d="M80.67 42.26c-1.88.63-.11 7.26 2.17 7.26s-.11-7.94-2.17-7.26z" fill="#519074"/><path d="M80.95 42.94s1.88 3.77 1.88 6.57v1.8" class="D E H I"/><path d="M88.79 44.81c1.36.45.08 5.24-1.57 5.24s.08-5.74 1.57-5.24z" fill="#519074"/><path d="M88.58 45.3s-1.36 2.73-1.36 4.75v1.3" class="D E H I"/><path d="M86.55 55.65h-3.86c-.64 0-1.19-.55-1.25-1.28l-.28-3.27h6.92l-.28 3.27c-.06.73-.6 1.28-1.25 1.28h0z" fill="#a55a09"/><path d="M45.55 56.03h19.77v-.81H45.55v.81z" fill="#d5d5d7"/><g class="B"><use href="#R"/><use href="#S"/><path d="M62.01 55.22h.92c0-.1-.08-.18-.18-.18h-.55c-.1 0-.18.08-.18.18h0z"/><path d="M61.09 55.22h.92c0-.1-.08-.18-.18-.18h-.55c-.1 0-.18.08-.18.18h0zm-.93 0h.92c0-.1-.08-.18-.18-.18h-.55c-.1 0-.18.08-.18.18h0z"/><path d="M59.24 55.22h.92c0-.1-.08-.18-.18-.18h-.55c-.1 0-.18.08-.18.18h0z"/><path d="M58.33 55.22h.92c0-.1-.08-.18-.18-.18h-.55c-.1 0-.18.08-.18.18h0z"/><path d="M57.41 55.22h.92c0-.1-.08-.18-.18-.18h-.55c-.1 0-.18.08-.18.18z"/><path d="M56.49 55.22h.92c0-.1-.08-.18-.18-.18h-.55c-.1 0-.18.08-.18.18h0z"/><path d="M55.57 55.22h.92c0-.1-.08-.18-.18-.18h-.55c-.1 0-.18.08-.18.18h0z"/><path d="M54.65 55.22h.92c0-.1-.08-.18-.18-.18h-.55c-.1 0-.18.08-.18.18h0z"/><path d="M53.73 55.22h.92c0-.1-.08-.18-.18-.18h-.55c-.1 0-.18.08-.18.18h0z"/><path d="M52.81 55.22h.92c0-.1-.08-.18-.18-.18H53c-.1 0-.18.08-.18.18h0z"/><path d="M51.89 55.22h.92c0-.1-.08-.18-.18-.18h-.55c-.1 0-.18.08-.18.18zm-1.62 0h.92c0-.1-.08-.18-.18-.18h-.55c-.1 0-.18.08-.18.18h0z"/><path d="M49.34 55.22h.92c0-.1-.08-.18-.18-.18h-.55c-.1 0-.18.08-.18.18h0z"/><path d="M48.43 55.22h.92c0-.1-.08-.18-.18-.18h-.55c-.1 0-.18.08-.18.18h0zm-1.59 0h.92c0-.1-.08-.18-.18-.18h-.55c-.1 0-.18.08-.18.18h0zm-.93 0h.92c0-.1-.08-.18-.18-.18h-.55c-.1 0-.18.08-.18.18h0zm-1.56.81l-3.73-.01c-.22 0-.35-.29-.24-.53a2.2 2.2 0 0 1 .21-.37c.3-.45.85-.89 1.82-.89a2.4 2.4 0 0 1 1.95.91c.09.11.16.22.23.33.14.23 0 .56-.23.56z"/></g><path d="M44.35 56.03l-3.73-.01c-.22 0-.35-.29-.24-.53a2.2 2.2 0 0 1 .21-.37c.02-.01.73-.42 1.42.01.7.44 2.52.63 2.35.01.09.11.16.22.23.33.14.23 0 .56-.23.56z" fill="#dfeeff"/><use href="#T" fill="#fafcff"/><use href="#T" class="J"/><path d="M47.82 35.11h22.47a.6.6 0 0 1 .61.66l-1.35 15.2c-.03.37-.36.66-.72.66H46.35a.6.6 0 0 1-.61-.66l1.35-15.2c.03-.37.36-.66.72-.66z" fill="#d5d5d7"/><g fill="#e9ebee"><path d="M51.6 50.41c.15 0 .27-.12.29-.26L52 48.9c.01-.15-.09-.26-.24-.26s-.27.12-.29.26l-.11 1.25c-.01.15.09.26.24.26z"/><use href="#U"/><path d="M49.93 50.41c.15 0 .27-.12.29-.26l.11-1.25c.01-.15-.09-.26-.24-.26s-.27.12-.29.26l-.11 1.25c-.01.15.09.26.24.26zm-.83 0c.15 0 .27-.12.29-.26l.11-1.25c.01-.15-.09-.26-.24-.26s-.27.12-.29.26l-.11 1.25c-.01.15.09.26.24.26zm-.83 0c.15 0 .27-.12.29-.26l.11-1.25c.01-.15-.09-.26-.24-.26s-.27.12-.29.26l-.11 1.25c-.01.15.09.26.24.26z"/></g><g class="J"><path d="M53.08 55.38h3.13v.59l-3.13.1v-.68z"/><path d="M57.37 52.75l-.8-9.37h3.45l1.49 9.28c.2 1.07-.13 2.21-.8 2.73l-.77.59h-4.25l.08-.59c1.24-.47 1.74-1.61 1.59-2.64z"/></g><path d="M57.88 52.75l-.8-9.37h3.45l1.49 9.28c.2 1.07-.13 2.21-.8 2.73l-.77.59h-4.25l.84-.65c.63-.49.97-1.54.82-2.57z" fill="#a5a5a5"/><path d="M57.81 54.07h4.18c-.13.55-.4 1.02-.76 1.31l-.77.59h-4.25l.84-.65c.35-.27.61-.72.75-1.25z" class="J"/><g class="C"><path d="M48.34 17l-.29-.17.51.42-.22-.25zm.83-2.08l.33.05h0l-.33-.05zm0-1.58V13h-.37l.04.37.33-.03zm-5-5h-.33 0 .33zm35-5V3h0v.33zm5 5h.33 0-.33zm-5 5v.33h0v-.33zm-26.67 0V13h-.13l-.09.08.22.25zM48.34 17l.29.17.03-.06.08-.16.26-.53a6 6 0 0 0 .49-1.45l-.33-.05-.33-.05a5.4 5.4 0 0 1-.44 1.28l-.25.5-.08.14-.02.04c-.01.01-.01.01.28.18zm.83-2.08l.33.05c.05-.34.05-.76.04-1.09l-.02-.41-.01-.12v-.03c0-.01 0-.01-.33.02l-.33.03v.04l.01.11.02.39a5.4 5.4 0 0 1-.03.96l.33.05zm0-1.58v.33h0v-.33V13h0v.33zm0 0V13c-2.58 0-4.67-2.09-4.67-4.67h-.33-.33c0 2.95 2.39 5.33 5.33 5.33v-.33zm-5-5h.33c0-2.58 2.09-4.67 4.67-4.67v-.33V3c-2.95 0-5.33 2.39-5.33 5.33h.33zm5-5v.33h30v-.33V3h-30v.33zm30 0v.33c2.58 0 4.67 2.09 4.67 4.67h.33.33c0-2.95-2.39-5.33-5.33-5.33v.33zm5 5h-.33c0 2.58-2.09 4.67-4.67 4.67v.33.33c2.95 0 5.33-2.39 5.33-5.33h-.33zm-5 5V13H52.5v.33.33h26.67v-.33zm-26.67 0l-.22-.25-4.17 3.67.22.25.22.25 4.17-3.67-.22-.25zm4.67-3.5v-2.8h.54l1.65 2.02h-.26V7.04h.64v2.8h-.53l-1.66-2.02h.26v2.02h-.64zm4.21.03c-.23 0-.43-.05-.61-.14s-.32-.23-.42-.39-.15-.36-.15-.57.05-.41.15-.57.24-.3.42-.39.38-.14.61-.14.43.05.61.14.32.22.42.39.15.36.15.58a1.1 1.1 0 0 1-.15.57c-.1.17-.24.3-.42.39s-.38.14-.61.14zm0-.51c.1 0 .2-.02.28-.07s.15-.12.2-.2.07-.2.07-.32-.02-.23-.07-.32-.11-.16-.2-.2-.18-.07-.28-.07-.2.02-.28.07-.15.12-.2.2-.07.19-.07.32.02.23.07.32.12.16.2.2.18.07.28.07zm1.56-.4v-.5h1.13v.5h-1.13zm2.35.91c-.18 0-.36-.02-.53-.06s-.3-.1-.4-.17l.21-.45c.1.06.21.11.35.15s.27.06.4.06c.14 0 .25-.02.3-.05s.09-.08.09-.14c0-.05-.02-.09-.07-.11s-.11-.05-.18-.06L65.2 9l-.28-.05c-.09-.02-.18-.06-.26-.1s-.14-.11-.19-.18-.07-.18-.07-.3c0-.14.04-.26.12-.36s.19-.19.34-.24.33-.09.54-.09a2.3 2.3 0 0 1 .45.05c.15.03.28.08.38.14l-.21.44c-.1-.06-.21-.1-.32-.12s-.21-.04-.3-.04c-.14 0-.24.02-.3.06s-.1.09-.1.14.02.09.07.12.11.05.19.06l.25.04c.09.01.19.03.28.05s.18.06.25.1.14.1.19.18.07.17.07.3a.6.6 0 0 1-.12.36c-.08.11-.2.18-.35.24a1.5 1.5 0 0 1-.55.09zM68 7.65a1 1 0 0 1 .46.1c.14.07.24.17.32.31s.12.32.12.54v1.23h-.62V8.7c0-.17-.04-.3-.12-.38s-.18-.12-.32-.12c-.1 0-.19.02-.27.06s-.14.1-.18.19-.06.19-.06.33v1.06h-.62V6.87h.62v1.41l-.14-.18a.8.8 0 0 1 .33-.33c.14-.08.31-.12.49-.12zm2.5 2.22c-.23 0-.43-.05-.61-.14s-.32-.23-.42-.39-.15-.36-.15-.57.05-.41.15-.57.24-.3.42-.39.38-.14.61-.14.43.05.61.14.32.22.42.39.15.36.15.58a1.1 1.1 0 0 1-.15.57c-.1.17-.24.3-.42.39s-.38.14-.61.14zm0-.51c.1 0 .2-.02.28-.07s.15-.12.2-.2.07-.2.07-.32-.02-.23-.07-.32-.11-.16-.2-.2-.18-.07-.28-.07-.2.02-.28.07-.15.12-.2.2-.07.19-.07.32.02.23.07.32.12.16.2.2.18.07.28.07zm2.03.48l-.78-2.15h.59l.64 1.85h-.28l.67-1.85h.53l.65 1.85h-.28l.66-1.85h.55l-.78 2.15h-.6l-.57-1.59h.18l-.59 1.59h-.6z"/></g><path d="M50.17 11.4c1.69 0 3.06-1.37 3.06-3.06s-1.37-3.06-3.06-3.06-3.06 1.37-3.06 3.06 1.37 3.06 3.06 3.06z" class="B"/><g class="C"><path d="M50.17 11.67a3.3 3.3 0 0 1-1.3-.26c-.4-.17-.75-.41-1.06-.71s-.55-.66-.71-1.06a3.3 3.3 0 0 1-.26-1.3 3.3 3.3 0 0 1 .26-1.3c.17-.4.41-.75.71-1.06s.66-.55 1.06-.71a3.3 3.3 0 0 1 1.3-.26 3.3 3.3 0 0 1 1.3.26c.4.17.75.41 1.06.71s.55.66.71 1.06a3.3 3.3 0 0 1 .26 1.3 3.3 3.3 0 0 1-.26 1.3c-.17.4-.41.75-.71 1.06s-.66.55-1.06.71a3.3 3.3 0 0 1-1.3.26zm0-6.1c-.37 0-.74.07-1.08.22a2.9 2.9 0 0 0-.88.59c-.26.25-.45.55-.59.88-.14.34-.22.7-.22 1.08s.07.74.22 1.08a2.9 2.9 0 0 0 .59.88c.25.26.55.45.88.59.34.14.7.22 1.08.22s.74-.07 1.08-.22a2.9 2.9 0 0 0 .88-.59c.26-.25.45-.55.59-.88.14-.34.22-.7.22-1.08s-.07-.74-.22-1.08a2.9 2.9 0 0 0-.59-.88c-.25-.26-.55-.45-.88-.59-.34-.14-.7-.22-1.08-.22zm0 3.06a.3.3 0 0 0 .3-.3c0-.16-.14-.3-.3-.3s-.3.14-.3.3.14.3.3.3z"/></g><g fill="#a3aeb7"><path d="M50.23 6.46h-.11c-.02 0-.04-.02-.04-.04v-.51c0-.02.02-.04.04-.04h.11c.02 0 .04.02.04.04v.51c0 .02-.02.04-.04.04zm-1.77.87l-.01.02c-.01.01-.02.01-.03.01l-.27-.16c-.01-.01-.01-.02-.01-.03l.01-.02c.01-.01.02-.01.03-.01l.27.16c.01.01.01.02.01.03zm.73-.72l-.02.01c-.01.01-.03 0-.03-.01l-.16-.27c-.01-.01 0-.03.01-.03l.02-.01c.01-.01.03 0 .03.01l.16.27c.01.01 0 .03-.01.03zm-.9 1.67v.11c0 .02-.02.04-.04.04h-.51c-.02 0-.04-.02-.04-.04v-.11c0-.02.02-.04.04-.04h.51c.02 0 .04.02.04.04zm.88 1.76l.02.01c.01.01.01.02.01.03l-.16.27c-.01.01-.02.01-.03.01l-.02-.01c-.01-.01-.01-.02-.01-.03l.16-.27c.01-.01.02-.01.03-.01zm-.72-.73l.01.02c.01.01 0 .03-.01.03l-.27.16c-.01.01-.03 0-.03-.01l-.01-.02c-.01-.01 0-.03.01-.03l.27-.16c.01-.01.03 0 .03.01zm1.66.89h.11c.02 0 .04.02.04.04v.51c0 .02-.02.04-.04.04h-.11c-.02 0-.04-.02-.04-.04v-.51c0-.02.02-.04.04-.04zm1.77-.86l.01-.02c.01-.01.02-.01.03-.01l.27.16c.01.01.01.02.01.03l-.01.02c-.01.01-.02.01-.03.01l-.27-.16c-.01-.01-.01-.02-.01-.03zm-.73.72l.02-.01c.01-.01.03 0 .03.01l.16.27c.01.01 0 .03-.01.03l-.02.01c-.01.01-.03 0-.03-.01l-.16-.27c-.01-.01 0-.03.01-.03zm.89-1.67v-.11c0-.02.02-.04.04-.04h.51c.02 0 .04.02.04.04v.11c0 .02-.02.04-.04.04h-.51c-.02 0-.04-.02-.04-.04z"/><path d="M51.18 6.62l-.02-.01c-.01-.01-.01-.02-.01-.03l.16-.27c.01-.01.02-.01.03-.01l.02.01c.01.01.01.02.01.03l-.16.27c-.01.01-.02.01-.03.01zm.71.73l-.01-.02c-.01-.01 0-.03.01-.03l.27-.16c.01-.01.03 0 .03.01l.01.02c.01.01 0 .03-.01.03l-.27.16c-.01.01-.03 0-.03-.01z"/></g><g fill="#000"><path d="M50.35 8.02c-.05-.03-.11-.05-.18-.05s-.13.02-.18.05l.09-1.26c0-.05.04-.09.09-.09s.09.04.09.09l.09 1.26zm.95.89c-.02.03-.06.05-.1.04l-.8-.34c.07-.06.11-.14.12-.24l.75.44c.03.02.05.06.03.1z"/></g><path d="M87.07 48.65H65.59c-1.71 0-3.09-.28-3.09-.62v-9.25c0-.34 1.39-.62 3.09-.62h21.48c1.71 0 3.09.28 3.09.62v9.25c0 .34-1.39.62-3.09.62z" class="C"/><path d="M87.07 48.47H65.72c-1.44 0-2.61-.23-2.61-.51v-9.1c0-.28 1.17-.51 2.61-.51h21.36c1.44 0 2.61.23 2.61.51v9.1c0 .28-1.17.51-2.61.51z" fill="url(#D)"/><g class="B"><use href="#V"/><path d="M66.18 45.5l.1.2c.01.01.02.02.03.02l.23.03c.04.01.05.05.02.07l-.16.16c-.01.01-.02.02-.01.04l.04.22c.01.04-.03.06-.06.05l-.2-.11c-.01-.01-.03-.01-.04 0l-.2.11c-.03.02-.07-.01-.06-.05l.04-.22c0-.01 0-.03-.01-.04l-.16-.16c-.03-.03-.01-.07.02-.07l.23-.03c.01 0 .03-.01.03-.02l.1-.2c.02-.03.06-.03.08 0z"/><path d="M67.44 45.5l.1.2c.01.01.02.02.03.02l.23.03c.04.01.05.05.02.07l-.16.16c-.01.01-.02.02-.01.04l.04.22c.01.04-.03.06-.06.05l-.2-.11c-.01-.01-.03-.01-.04 0l-.2.11c-.03.02-.07-.01-.06-.05l.04-.22c0-.01 0-.03-.01-.04l-.16-.16c-.03-.03-.01-.07.02-.07l.23-.03c.01 0 .03-.01.03-.02l.1-.2c.02-.03.06-.03.08 0z"/><path d="M68.69 45.5l.1.2c.01.01.02.02.03.02l.23.03c.04.01.05.05.02.07l-.16.16c-.01.01-.02.02-.01.04l.04.22c.01.04-.03.06-.06.05l-.2-.11c-.01-.01-.03-.01-.04 0l-.2.11c-.03.02-.07-.01-.06-.05l.04-.22c0-.01 0-.03-.01-.04l-.16-.16c-.03-.03-.01-.07.02-.07l.23-.03c.01 0 .03-.01.03-.02l.1-.2c.02-.03.06-.03.08 0z"/><path d="M69.94 45.5l.1.2c.01.01.02.02.03.02l.23.03c.04.01.05.05.02.07l-.16.16c-.01.01-.02.02-.01.04l.04.22c.01.04-.03.06-.06.05l-.2-.11c-.01-.01-.03-.01-.04 0l-.2.11c-.03.02-.07-.01-.06-.05l.04-.22c0-.01 0-.03-.01-.04l-.16-.16c-.03-.03-.01-.07.02-.07l.23-.03c.01 0 .03-.01.03-.02l.1-.2c.02-.03.06-.03.08 0zm-2.73-.78c1.24 0 2.24-1 2.24-2.24s-1-2.24-2.24-2.24-2.24 1-2.24 2.24 1 2.24 2.24 2.24z"/></g><mask id="C" maskUnits="userSpaceOnUse" x="64" y="40" width="6" height="5"><path d="M67.21 44.72c1.24 0 2.24-1 2.24-2.24s-1-2.24-2.24-2.24-2.24 1-2.24 2.24 1 2.24 2.24 2.24z" class="B"/></mask><g mask="url(#C)"><path d="M67.59 42.72c-.04-.1-.06-.18-.07-.24 0-.03 0-.06 0-.08 0-.03.01-.05.01-.05h-.02l-.3.08-.3-.08h-.02s0 .02.01.05c0 .02 0 .05 0 .08-.01.06-.02.15-.07.24 0 0-.03.07-.22.1 0 0 .01.05.05.12l.01.03.04.07c.02.04.06.08.09.12.04.1.11.19.21.2.05.01.09.01.13.01h.05.02.02.05c.04 0 .08 0 .13-.01.09-.01.17-.1.21-.2.04-.04.07-.08.09-.12.02-.02.03-.05.04-.07l.02-.05c.03-.06.03-.09.03-.09-.19-.02-.22-.11-.22-.11z" class="K"/><path d="M68.87 44.36l-.55-.55-.05 1.47c-.32.15-.68.24-1.06.24s-.74-.09-1.07-.24l-.01-.19-.04-1.28-.07.07h-.4c.08-.39.2-.74.58-.94.14-.07.41-.14.47-.14.01 0 .02.01.03.02.01.02.03.06.05.1.08.13.2.3.38.37.04.02.09.02.13 0 .18-.08.31-.24.38-.36.03-.06.05-.1.06-.12 0-.01.02-.02.03-.02l.45.15c.55.29.63.92.67 1.41z" fill="url(#E)"/><path d="M67.53 42.48c0-.03 0-.06 0-.08l-.01-.02-.3.08-.3-.08-.01.02c0 .02 0 .05 0 .08.04.07.14.19.31.19h0 0c.17 0 .27-.13.31-.19z" fill="#cc6362"/><path d="M66.67 41.78a2.9 2.9 0 0 0 .06.26c.02.08 0 .12-.07.11a.3.3 0 0 1-.15-.32c.01-.03.07-.09.16-.05zm1.09.37c-.07.01-.08-.03-.07-.11l.01-.03.06-.23c.09-.04.15.02.16.05.05.14-.09.31-.15.32z" class="K"/><path opacity=".5" d="M67.75 42.15c-.06.01-.07-.03-.06-.11l.01-.03h.01s0 .13.04.14zm-1.08 0c.06.01.07-.03.06-.11v-.03h-.01s0 .13-.04.14z" fill="#cc6362"/><path d="M67.21 41.4h-.64s.05.19.09.4c.06.35.08.8.55.8s.49-.45.55-.8c.04-.21.09-.4.09-.4h-.64z" class="K"/><path d="M67.88 41.25c-.08-.24-.26.18-.26.18.07.03.14.37.14.37l.05-.03h0 0s.14-.32.07-.52z" fill="url(#F)"/><path d="M65.93 44.72c.09-.17.19-.47.19-.47l-.6-.22c-.24.5-.32.91-.32.91l.73-.22zm2.55-.13l-.24-.48.61-.27a9.9 9.9 0 0 0 .36.98l-.73-.22z" fill="#ffc1cd"/><path d="M66.42 42.86s-.43.13-.57.3c-.15.18-.26.51-.47 1.08 0 0 .48.23.74.24l.3-1.62z" fill="url(#G)"/><path d="M67.89 42.85s.56.14.66.28c.13.18.31.52.48 1.11 0 0-.48.23-.74.24l-.41-1.63z" fill="url(#H)"/><path d="M66.67 41.09s-.09-.17.1-.27c.3-.17 1.12.07 1.22.23.12.2-.12.52-.5.51s-.57-.18-.72-.11-.17-.22-.17-.22l.07-.13z" fill="url(#I)"/><path d="M66.77 41.42l-.1-.33s-.18-.06-.18.16c0 .11.02.14.05.22.01.16.07.3.07.3l.05.03s.07-.34.14-.37l-.03-.01z" fill="url(#J)"/><path d="M68.23 43.68v.03l.01.09.01.13.01.15.01.15.01.13v.13-.03l-.02-.09-.02-.13-.02-.15-.01-.15v-.13-.09-.03z" fill="url(#K)"/><path d="M66.18 43.68v.03.09.13l-.01.15-.02.15-.02.13-.02.09v.03-.13l.01-.13.01-.15.01-.15.01-.13.01-.09v-.03z" fill="url(#L)"/><path d="M67.21 43.03l-.15.11.04.16s.03.01.11.01c.08 0 .11-.01.11-.01l.04-.16-.15-.11z" class="B"/><path d="M66.68 42.8l.15-.08s.08.17.38.31c0 0-.04.03-.07.13-.01.03-.03.14-.03.14s-.3-.09-.42-.49z" fill="url(#M)"/><path d="M67.74 42.8l-.15-.08s-.08.17-.38.31c0 0 .04.03.07.13.01.03.03.14.03.14s.3-.09.42-.49z" fill="url(#N)"/><path d="M67.3 43.29l-.09-.02-.09.02-.2 1.85c.02.3.19.57.26.66.01.02.04.02.05 0 .06-.09.24-.36.26-.66.01-.15-.2-1.85-.2-1.85z" class="B"/></g><path d="M72.72 42.63c-.11 0-.21-.02-.3-.05s-.17-.08-.24-.15-.12-.14-.16-.22-.05-.18-.05-.28.02-.2.05-.28.09-.16.16-.22.15-.11.24-.15.19-.05.3-.05.21.02.3.05a.7.7 0 0 1 .24.15c.07.06.12.14.16.22s.06.18.06.28-.02.2-.06.28-.09.16-.16.22-.14.11-.24.15a.8.8 0 0 1-.29.05zm0-.27c.06 0 .12-.01.17-.03s.1-.05.14-.09.07-.09.09-.14.03-.11.03-.18-.01-.12-.03-.18-.05-.1-.09-.14-.08-.07-.13-.09-.11-.03-.17-.03-.12.01-.17.03-.1.05-.13.09-.07.09-.09.14-.03.11-.03.18.01.12.03.18.05.1.09.14.08.07.14.09.11.03.17.03zm1 .25v-1.07c0-.12.04-.21.11-.28s.17-.11.3-.11c.04 0 .09 0 .13.01s.08.02.11.04l-.08.22c-.02-.01-.04-.02-.06-.03s-.04-.01-.07-.01c-.04 0-.08.01-.1.04s-.04.06-.04.11v.1l.01.13v.84h-.3zm-.16-.79v-.23h.73v.23h-.73zm.93.79v-1.07c0-.12.04-.21.11-.28s.17-.11.3-.11c.04 0 .09 0 .13.01s.08.02.11.04l-.08.22c-.02-.01-.04-.02-.06-.03s-.04-.01-.07-.01c-.04 0-.08.01-.1.04s-.04.06-.04.11v.1l.01.13v.84h-.3zm-.16-.79v-.23h.73v.23h-.73zm1.39.81c-.12 0-.22-.02-.32-.07s-.16-.11-.21-.19-.07-.17-.07-.28.02-.2.07-.28.12-.15.2-.19.18-.07.29-.07.2.02.28.07.15.11.2.19.07.18.07.29c0 .01 0 .03 0 .04v.04h-.85v-.18h.69l-.12.05c0-.05-.01-.1-.03-.14s-.05-.07-.09-.09-.08-.04-.14-.04-.1.01-.14.04-.07.05-.09.1-.03.09-.03.14v.05c0 .06.01.11.04.15s.06.08.11.1.1.03.16.03c.06 0 .1-.01.15-.03s.08-.04.12-.08l.16.18c-.05.05-.11.1-.18.13s-.16.04-.25.04zm.71-.02v-1.05h.29v.3l-.04-.09c.03-.07.08-.13.15-.17s.15-.06.25-.06v.28h-.04c-.01 0-.02 0-.03 0-.08 0-.15.02-.2.07s-.08.12-.08.22v.5h-.3zm1.23 0l.61-1.37h.31l.61 1.37h-.33l-.5-1.21h.12l-.5 1.21h-.32zm.3-.29l.08-.24h.7l.09.24h-.87zm1.84.31c-.11 0-.21-.02-.3-.07s-.16-.11-.21-.19-.07-.17-.07-.28.02-.2.07-.28.12-.15.21-.19.19-.07.3-.07.21.02.29.07.14.11.18.2l-.24.13c-.03-.05-.06-.09-.1-.11s-.08-.04-.13-.04-.1.01-.14.04-.07.06-.1.1-.04.09-.04.16.01.11.04.16.06.08.1.1.09.04.14.04.09-.01.13-.03.08-.06.1-.11l.24.13c-.04.08-.1.15-.18.2s-.18.07-.29.07zm1.14 0c-.11 0-.21-.02-.3-.07s-.16-.11-.21-.19-.07-.17-.07-.28.02-.2.07-.28.12-.15.21-.19.19-.07.3-.07.21.02.29.07.14.11.18.2l-.24.13c-.03-.05-.06-.09-.1-.11s-.08-.04-.13-.04-.1.01-.14.04-.07.06-.1.1-.04.09-.04.16.01.11.04.16.06.08.1.1.09.04.14.04.09-.01.13-.03.08-.06.1-.11l.24.13c-.04.08-.1.15-.18.2s-.18.07-.29.07zm1.15 0c-.12 0-.22-.02-.32-.07s-.16-.11-.21-.19-.07-.17-.07-.28.02-.2.07-.28.12-.15.2-.19.18-.07.29-.07.2.02.28.07.15.11.2.19.07.18.07.29a.5.5 0 0 1 0 .04v.04h-.85v-.18h.69l-.12.05c0-.05-.01-.1-.03-.14s-.05-.07-.09-.09-.08-.04-.14-.04-.1.01-.14.04-.07.05-.09.1-.03.09-.03.14v.05c0 .06.01.11.04.15s.06.08.11.1.1.03.16.03c.06 0 .1-.01.15-.03s.08-.04.12-.08l.16.18c-.05.05-.11.1-.18.13s-.16.04-.25.04zm1.33 0c-.09 0-.17-.02-.23-.06s-.12-.1-.16-.18-.05-.18-.05-.3.02-.22.05-.3.09-.14.15-.18.15-.06.24-.06c.1 0 .19.02.27.07s.14.11.19.19.07.18.07.28-.02.21-.07.29-.11.14-.19.19-.17.07-.27.07zm-.62.36v-1.43h.29v.21l-.01.31.02.31v.59h-.3zm.57-.61c.05 0 .1-.01.13-.04s.07-.06.1-.1.04-.1.04-.16-.01-.11-.04-.16-.06-.08-.1-.1-.08-.04-.13-.04-.1.01-.14.04-.07.06-.1.1-.04.09-.04.16.01.11.04.16.06.08.1.1.09.04.14.04zm1.21.25c-.12 0-.22-.03-.29-.09s-.1-.16-.1-.28v-.92h.3v.92c0 .04.01.08.04.1s.06.04.1.04c.05 0 .09-.01.12-.04l.08.21c-.03.02-.07.04-.11.05s-.09.02-.13.02zm-.55-.81v-.23h.73v.23h-.73zm1.46.81c-.12 0-.22-.02-.32-.07s-.16-.11-.21-.19-.07-.17-.07-.28.02-.2.07-.28.12-.15.2-.19.18-.07.29-.07.2.02.28.07.15.11.2.19.07.18.07.29c0 .01 0 .03 0 .04v.04h-.85v-.18h.69l-.12.05c0-.05-.01-.1-.03-.14s-.05-.07-.09-.09-.08-.04-.14-.04-.1.01-.14.04-.07.05-.09.1-.03.09-.03.14v.05c0 .06.01.11.04.15s.06.08.11.1.1.03.16.03c.06 0 .1-.01.15-.03s.08-.04.12-.08l.16.18c-.05.05-.11.1-.18.13s-.16.04-.25.04zm1.16 0c-.1 0-.19-.02-.27-.07s-.14-.11-.19-.19-.07-.18-.07-.28.02-.21.07-.29.11-.14.19-.19.17-.07.27-.07c.09 0 .17.02.23.06s.12.1.15.18.05.18.05.3-.02.22-.05.3-.09.14-.15.18-.14.06-.24.06zm.05-.25c.05 0 .09-.01.13-.04s.07-.06.1-.1.04-.1.04-.16-.01-.11-.04-.16-.06-.08-.1-.1-.09-.04-.13-.04-.1.01-.14.04-.07.06-.1.1-.04.09-.04.16.01.11.04.16.06.08.1.1.09.04.14.04zm.28.23v-.21l.01-.31-.02-.31v-.61h.3v1.45h-.29z" class="B"/><path d="M69.15 42.21a.8.8 0 1 0 0-1.6.8.8 0 1 0 0 1.6z" fill="url(#O)"/><g class="B"><path d="M68.63 41.26c.09.02.26.08.39.24.01.01.02.01.02 0 .04-.07.23-.33.61-.51.01-.01.03.01.01.02-.16.13-.5.43-.62.81 0 .01-.02.01-.02 0-.04-.1-.15-.36-.41-.54-.01-.01 0-.03.01-.02z"/><use href="#W"/><path d="M86.93 45.34H72.68c-.24 0-.43-.09-.43-.2s.19-.2.43-.2h14.25c.24 0 .43.09.43.2s-.19.2-.43.2zm0 .93H72.68c-.24 0-.43-.09-.43-.2s.19-.2.43-.2h14.25c.24 0 .43.09.43.2s-.19.2-.43.2z"/></g><path d="M91.67 88.33c-27.96-3.84-55.37-3.84-83.33 0a100 100 0 0 1 5.99-9.14A100.1 100.1 0 0 1 8.34 70c27.96 3.84 55.37 3.84 83.33 0-3.12 4.17-4.68 5.96-7.8 9.19 3.12 3.21 4.68 5 7.8 9.14z" class="C"/><path d="M24.99 79.34h-.97v-.54h.82c.14 0 .26-.02.35-.05s.16-.09.21-.16.07-.16.07-.27c0-.12-.02-.21-.07-.29s-.11-.13-.21-.16-.21-.05-.36-.05h-.54V81h-.78v-3.79h1.32c.22 0 .42.02.59.06s.32.11.45.19.21.19.28.32.1.28.1.46a.9.9 0 0 1-.11.43c-.07.13-.18.24-.33.32a1.3 1.3 0 0 1-.59.14l-.23.2zM24.96 81h-1.15l.3-.61h.85c.14 0 .25-.02.34-.07s.15-.11.19-.18.06-.16.06-.26c0-.11-.02-.21-.06-.29s-.1-.14-.18-.19-.19-.07-.32-.07h-.75l.01-.54h.94l.18.21c.23 0 .42.04.56.12s.25.19.31.33.1.28.1.43c0 .24-.05.45-.16.61s-.26.29-.47.37-.45.13-.74.13zm3.21.05c-.22 0-.41-.03-.59-.1s-.32-.17-.44-.29a1.3 1.3 0 0 1-.28-.43c-.06-.17-.1-.34-.1-.53v-.1a1.8 1.8 0 0 1 .09-.59c.06-.18.15-.33.26-.46s.25-.23.42-.3.35-.11.55-.11c.2 0 .38.03.53.1s.28.16.39.28.19.27.24.44.08.36.08.56v.31h-2.24v-.5h1.5v-.06c0-.1-.02-.2-.06-.28s-.09-.15-.17-.2-.17-.07-.29-.07c-.1 0-.18.02-.26.07s-.13.1-.17.18-.08.17-.1.28-.03.22-.03.34v.1a1 1 0 0 0 .05.31c.03.1.08.18.14.25s.13.12.22.16.18.06.29.06c.14 0 .26-.03.38-.08s.22-.13.3-.24l.36.4c-.06.08-.14.17-.24.24a1.3 1.3 0 0 1-.36.19 1.5 1.5 0 0 1-.49.07zm2.54-.05h-.76v-3.07c0-.21.04-.39.13-.54s.2-.26.36-.33.34-.11.55-.11c.07 0 .14.01.2.02l.19.03-.01.57c-.03-.01-.07-.01-.1-.02s-.08-.01-.13-.01c-.09 0-.17.02-.23.05s-.11.07-.14.13-.05.13-.05.22V81zm.56-2.82v.53h-1.74v-.53h1.74zm.27 1.44v-.05c0-.21.03-.4.09-.57s.15-.33.26-.46.25-.23.42-.3.35-.11.57-.11.4.04.57.11.31.17.42.3a1.3 1.3 0 0 1 .26.46c.06.17.09.36.09.57v.05c0 .2-.03.39-.09.57s-.15.33-.26.46-.25.23-.42.3-.35.11-.57.11-.4-.04-.57-.11-.3-.17-.42-.3-.2-.28-.26-.46-.09-.37-.09-.57zm.75-.05v.05c0 .12.01.23.03.33s.05.19.1.27.11.14.18.18.17.07.27.07.19-.02.27-.07.13-.1.18-.18.08-.17.1-.27.03-.21.03-.33v-.05c0-.11-.01-.22-.03-.32s-.05-.19-.1-.27-.1-.14-.18-.19-.16-.07-.27-.07-.2.02-.27.07-.13.11-.18.19-.08.17-.1.27a1.6 1.6 0 0 0-.03.32zm3.13-.77V81h-.75v-2.82h.71l.04.61zm.85-.63l-.01.7-.13-.01-.14-.01c-.11 0-.2.01-.28.04s-.14.07-.19.12-.09.12-.11.19-.04.16-.04.26l-.15-.05c0-.18.02-.35.05-.5s.09-.29.16-.4.16-.2.26-.27.22-.09.35-.09c.04 0 .08 0 .13.01s.08.01.11.02zm1.6 2.89c-.22 0-.41-.03-.59-.1s-.32-.17-.44-.29-.21-.27-.28-.43-.1-.34-.1-.53v-.1a1.8 1.8 0 0 1 .09-.59c.06-.18.15-.33.26-.46s.25-.23.42-.3.35-.11.55-.11c.2 0 .38.03.53.1s.28.16.39.28.19.27.24.44.08.36.08.56v.31h-2.24v-.5h1.5v-.06c0-.1-.02-.2-.06-.28s-.09-.15-.17-.2-.17-.07-.29-.07c-.1 0-.18.02-.26.07s-.13.1-.17.18-.08.17-.1.28-.03.22-.03.34v.1a1 1 0 0 0 .05.31c.03.1.08.18.14.25s.13.12.22.16.18.06.29.06c.14 0 .26-.03.38-.08s.22-.13.3-.24l.36.4c-.06.08-.14.17-.24.24a1.3 1.3 0 0 1-.36.19 1.5 1.5 0 0 1-.49.07zm4.12-.05h-.83v-.61h.82c.2 0 .38-.05.52-.14s.25-.23.32-.41.11-.39.11-.65v-.18a1.9 1.9 0 0 0-.06-.51c-.04-.15-.1-.27-.18-.37s-.18-.18-.29-.23-.25-.08-.4-.08h-.85v-.61H42a1.8 1.8 0 0 1 .7.13c.21.09.39.21.55.37s.27.35.36.57.13.47.13.74v.18c0 .27-.04.51-.13.74s-.2.41-.36.57-.34.28-.55.37-.45.13-.7.13zm-.38-3.79V81h-.78v-3.79h.78zm4.16 3.16v-1.26c0-.09-.01-.17-.04-.23s-.08-.12-.14-.15-.14-.05-.24-.05c-.08 0-.16.01-.22.04s-.11.07-.14.12-.05.11-.05.18h-.75c0-.12.03-.23.08-.34s.14-.2.24-.28a1.2 1.2 0 0 1 .38-.2c.15-.05.31-.07.49-.07.22 0 .41.04.58.11s.3.18.4.33.15.33.15.55v1.21c0 .15.01.28.03.38a1 1 0 0 0 .08.26V81h-.76c-.04-.08-.06-.17-.08-.29s-.03-.23-.03-.35zm.1-1.08l.01.42h-.42c-.1 0-.18.01-.26.03s-.13.05-.18.1-.08.09-.1.14-.03.11-.03.18.01.12.04.17.07.09.13.12.12.04.2.04c.11 0 .21-.02.29-.07s.15-.1.19-.17.07-.13.07-.19l.2.32c-.03.07-.07.14-.11.22s-.11.15-.18.22-.16.12-.26.16-.22.06-.36.06c-.18 0-.34-.04-.49-.11s-.26-.17-.34-.3-.12-.27-.12-.44c0-.15.03-.28.08-.39s.14-.21.24-.29.25-.14.41-.18a2.3 2.3 0 0 1 .57-.06h.43zm2.61-1.1v.53h-1.64v-.53h1.64zm-1.23-.7H48v2.66c0 .08.01.14.03.19s.06.07.1.09.1.02.16.02h.13l.1-.02v.55c-.06.02-.13.04-.21.05s-.16.02-.25.02c-.16 0-.31-.03-.43-.08s-.22-.14-.28-.27a1 1 0 0 1-.1-.48v-2.74zm2.96 3.57c-.22 0-.41-.03-.59-.1s-.32-.17-.44-.29-.21-.27-.28-.43-.1-.34-.1-.53v-.1a1.8 1.8 0 0 1 .09-.59c.06-.18.15-.33.26-.46s.25-.23.42-.3.35-.11.55-.11c.2 0 .38.03.53.1s.28.16.39.28.19.27.24.44.08.36.08.56v.31h-2.24v-.5h1.5v-.06c0-.1-.02-.2-.06-.28s-.09-.15-.17-.2-.17-.07-.29-.07c-.1 0-.18.02-.26.07s-.13.1-.17.18-.08.17-.1.28-.03.22-.03.34v.1a1 1 0 0 0 .05.31c.03.1.08.18.14.25s.13.12.22.16.18.06.29.06c.14 0 .26-.03.38-.08s.22-.13.3-.24l.36.4c-.06.08-.14.17-.24.24a1.3 1.3 0 0 1-.36.19 1.5 1.5 0 0 1-.49.07zM53 79.62v-.05c0-.21.03-.4.09-.57s.14-.33.26-.46.25-.23.42-.3.35-.11.57-.11.4.04.57.11.31.17.42.3a1.3 1.3 0 0 1 .26.46c.06.17.09.36.09.57v.05c0 .2-.03.39-.09.57s-.15.33-.26.46-.25.23-.42.3-.35.11-.57.11-.4-.04-.57-.11-.3-.17-.42-.3-.2-.28-.26-.46-.09-.37-.09-.57zm.75-.05v.05c0 .12.01.23.03.33s.05.19.1.27.11.14.18.18.17.07.27.07.19-.02.27-.07.13-.1.18-.18.08-.17.1-.27.03-.21.03-.33v-.05c0-.11-.01-.22-.03-.32s-.05-.19-.1-.27-.11-.14-.18-.19-.16-.07-.27-.07-.2.02-.27.07-.13.11-.18.19-.08.17-.1.27-.03.21-.03.32zM57.09 81h-.76v-3.07c0-.21.04-.39.13-.54s.2-.26.36-.33.34-.11.55-.11c.07 0 .14.01.2.02l.19.03-.01.57c-.03-.01-.07-.01-.1-.02s-.08-.01-.13-.01c-.09 0-.17.02-.23.05s-.11.07-.14.13-.05.13-.05.22V81zm.56-2.82v.53h-1.74v-.53h1.74zm3.3 1.65v-2.63h.78v2.63c0 .25-.06.47-.17.65s-.26.32-.46.42a1.4 1.4 0 0 1-.65.15c-.25 0-.47-.04-.66-.12s-.34-.21-.45-.38-.16-.39-.16-.66h.78c0 .14.02.25.06.33s.1.14.17.17.16.05.26.05.18-.02.26-.07.13-.12.17-.21.06-.2.06-.33zm1.28-.22v-.05c0-.21.03-.4.09-.57s.14-.33.26-.46.25-.23.42-.3.35-.11.57-.11.4.04.57.11.31.17.42.3a1.3 1.3 0 0 1 .26.46c.06.17.09.36.09.57v.05c0 .2-.03.39-.09.57s-.15.33-.26.46-.25.23-.42.3-.35.11-.57.11-.4-.04-.57-.11-.3-.17-.42-.3-.2-.28-.26-.46-.09-.37-.09-.57zm.75-.05v.05c0 .12.01.23.03.33s.05.19.1.27.11.14.18.18.17.07.27.07.19-.02.27-.07.13-.1.18-.18.08-.17.1-.27.03-.21.03-.33v-.05c0-.11-.01-.22-.03-.32s-.05-.19-.1-.27-.11-.14-.18-.19-.16-.07-.27-.07-.2.02-.27.07-.13.11-.18.19-.08.17-.1.27a1.6 1.6 0 0 0-.03.32zm3.17-1.38V81h-.75v-2.82h.75zm-.8-.73c0-.11.04-.2.11-.27s.18-.11.31-.11.23.04.3.11.12.16.12.27-.04.2-.12.27-.18.11-.3.11-.23-.04-.31-.11-.11-.16-.11-.27zm2.15 1.34V81h-.75v-2.82h.7l.05.6zm-.11.71h-.2c0-.21.03-.4.08-.56s.13-.31.23-.43.21-.21.35-.27.29-.1.45-.1c.13 0 .25.02.36.06s.2.1.28.18.14.19.18.33.07.3.07.5V81h-.76v-1.8c0-.12-.02-.22-.05-.29s-.09-.12-.15-.15a.6.6 0 0 0-.24-.04c-.1 0-.19.02-.26.06s-.13.1-.18.17-.08.15-.11.24a1.2 1.2 0 0 0-.04.3zm3.16-1.31V81h-.75v-2.82h.75zm-.8-.73c0-.11.04-.2.11-.27s.18-.11.31-.11.23.04.3.11.12.16.12.27-.04.2-.12.27-.18.11-.3.11-.23-.04-.31-.11-.11-.16-.11-.27zm2.15 1.34V81h-.75v-2.82h.7l.05.6zm-.11.71h-.2c0-.21.03-.4.08-.56s.13-.31.23-.43.21-.21.35-.27.29-.1.45-.1c.13 0 .25.02.36.06s.2.1.28.18.14.19.18.33.07.3.07.5V81h-.76v-1.8c0-.12-.02-.22-.05-.29s-.09-.12-.15-.15a.6.6 0 0 0-.24-.04c-.1 0-.19.02-.26.06s-.13.1-.18.17-.08.15-.11.24a1.2 1.2 0 0 0-.04.3zm4.15-1.31h.68v2.72c0 .26-.06.47-.17.65s-.27.32-.47.41-.44.14-.71.14c-.12 0-.24-.02-.37-.05a1.5 1.5 0 0 1-.37-.15c-.12-.07-.22-.15-.3-.25l.33-.44c.09.1.19.18.3.23s.24.09.38.09.25-.03.34-.08a.5.5 0 0 0 .22-.22c.05-.09.08-.21.08-.34v-2.08l.07-.65zm-1.9 1.44v-.05c0-.22.03-.41.08-.59s.13-.33.23-.46.22-.22.36-.29.3-.1.48-.1c.19 0 .34.03.47.1s.23.17.31.3.14.28.19.45.08.36.11.57v.12c-.03.2-.07.38-.12.55s-.12.32-.21.44-.19.22-.32.29-.27.1-.45.1-.33-.04-.47-.11-.26-.17-.36-.3-.18-.28-.23-.45-.08-.36-.08-.57zm.75-.05v.05c0 .12.01.22.03.33a.9.9 0 0 0 .1.27c.05.08.11.14.18.18s.16.06.26.06a.6.6 0 0 0 .34-.09c.09-.06.15-.14.2-.24s.07-.22.08-.35v-.34c0-.11-.02-.21-.04-.29s-.06-.16-.11-.23-.11-.11-.18-.15-.16-.05-.27-.05-.18.02-.26.07-.13.1-.18.18-.08.17-.11.27-.04.21-.04.33z" class="B"/></g><defs><linearGradient id="D" x1="76.39" y1="38.65" x2="76.39" y2="47.29" href="#X"><stop stop-color="#6eaefd"/><stop offset="1" stop-color="#0776ff"/></linearGradient><linearGradient id="E" x1="67.25" y1="42.93" x2="67.25" y2="44.66" href="#X"><stop stop-color="#7995fd"/><stop offset="1" stop-color="#54deff"/></linearGradient><linearGradient id="F" x1="67.76" y1="41.78" x2="67.76" y2="41.15" href="#X"><stop stop-color="#00004f"/><stop offset="1" stop-color="#000079"/></linearGradient><linearGradient id="G" x1="65.9" y1="42.93" x2="65.9" y2="44.66" href="#X"><stop stop-color="#7995fd"/><stop offset="1" stop-color="#54deff"/></linearGradient><linearGradient id="H" x1="68.46" y1="42.93" x2="68.46" y2="44.66" href="#X"><stop stop-color="#7995fd"/><stop offset="1" stop-color="#54deff"/></linearGradient><linearGradient id="I" x1="67.31" y1="41.78" x2="67.31" y2="41.15" href="#X"><stop stop-color="#00004f"/><stop offset="1" stop-color="#000079"/></linearGradient><linearGradient id="J" x1="66.65" y1="41.78" x2="66.65" y2="41.16" href="#X"><stop stop-color="#00004f"/><stop offset="1" stop-color="#000079"/></linearGradient><linearGradient id="K" x1="68.26" y1="43.61" x2="68.26" y2="44.74" href="#X"><stop stop-color="#d1d3d4"/><stop offset="1" stop-color="#a7a9ac"/></linearGradient><linearGradient id="L" x1="66.15" y1="43.61" x2="66.15" y2="44.74" href="#X"><stop stop-color="#d1d3d4"/><stop offset="1" stop-color="#a7a9ac"/></linearGradient><linearGradient id="M" x1="66.74" y1="42.76" x2="67.12" y2="43.17" href="#X"><stop stop-color="#7995fd"/><stop offset="1" stop-color="#54deff"/></linearGradient><linearGradient id="N" x1="67.69" y1="42.76" x2="67.3" y2="43.16" href="#X"><stop stop-color="#7995fd"/><stop offset="1" stop-color="#54deff"/></linearGradient><linearGradient id="O" x1="69.78" y1="41.95" x2="68.39" y2="40.75" href="#X"><stop stop-color="#84cf9b"/><stop offset="1" stop-color="#79d3fd"/></linearGradient><clipPath id="P"><path d="M0 0h100v100H0z" class="B"/></clipPath><path id="Q" d="M42.67 54.72l4.87.14c1.45.04 2.62 1.22 2.62 2.63v11.49"/><path id="R" d="M63.84 55.22h.92c0-.1-.08-.18-.18-.18h-.55c-.1 0-.18.08-.18.18h0z"/><path id="S" d="M62.92 55.22h.92c0-.1-.08-.18-.18-.18h-.55c-.1 0-.18.08-.18.18z"/><path id="T" d="M47.41 35.11h22.47c.37 0 .63.3.6.66l-1.57 15.2c-.04.37-.37.66-.73.66H45.69c-.37 0-.63-.3-.6-.66l1.57-15.2c.04-.37.37-.66.73-.66z"/><path id="U" d="M50.77 50.41c.15 0 .27-.12.29-.26l.11-1.25c.01-.15-.09-.26-.24-.26s-.27.12-.29.26l-.11 1.25c-.01.15.09.26.24.26z"/><path id="V" d="M64.93 45.5l.1.2c.01.01.02.02.03.02l.23.03c.04.01.05.05.02.07l-.16.16c-.01.01-.02.02-.01.04l.04.22c.01.04-.03.06-.06.05l-.2-.11c-.01-.01-.03-.01-.04 0l-.2.11c-.03.02-.07-.01-.06-.05l.04-.22c0-.01 0-.03-.01-.04l-.16-.16c-.03-.03-.01-.07.02-.07l.23-.03c.01 0 .03-.01.03-.02l.1-.2c.02-.03.06-.03.08 0z"/><path id="W" d="M86.93 44.42H72.68c-.24 0-.43-.09-.43-.2s.19-.2.43-.2h14.25c.24 0 .43.09.43.2s-.19.2-.43.2z"/><linearGradient id="X" gradientUnits="userSpaceOnUse"/></defs></svg>