<svg xmlns="http://www.w3.org/2000/svg" width="1140" height="640" fill="none" xmlns:v="https://vecta.io/nano"><style><![CDATA[.B{fill:#fff}.C{fill:#407bff}.D{fill:#263238}.E{opacity:.3}.F{fill:#000}.G{opacity:.2}.H{fill:#ebb376}.I{opacity:.7}.J{opacity:.8}.K{fill:#de5753}.L{fill:#e4897b}.M{fill:#9f5b53}.N{fill:#eec1bb}]]></style><g clip-path="url(#H)"><rect width="1140" height="640" rx="16" class="B"/><path d="M1140 0H0v690.63h1140V0z" fill="#f1f7ff"/><mask id="A" maskUnits="userSpaceOnUse" x="0" y="0" width="606" height="691"><path d="M605.39 690.63C535 356.5 139.75 417.73 118.59 33.47c-.62-11.25.44-22.43 1.3-33.47H0v377.35 313.28h605.39z" class="B"/></mask><g mask="url(#A)"><path d="M605.39 0H0v690.63h605.39V0z" fill="url(#E)"/></g><mask id="B" maskUnits="userSpaceOnUse" x="118" y="0" width="795" height="691"><path d="M190.73 0H119.9c-.87 11.04-1.31 22.21-1.31 33.47 0 393.68 364.1 321.95 434.72 657.16h358.94C800.18 213.68 346.97 429.99 190.73 0z" class="B"/></mask><g mask="url(#B)"><path d="M912.26 0H118.59v690.63h793.66V0z" fill="url(#F)"/></g><mask id="C" maskUnits="userSpaceOnUse" x="0" y="280" width="416" height="411"><path d="M0 280.42v96.93 313.28h415.16C307.65 514.3 77.91 487.47 0 280.42z" class="B"/></mask><g mask="url(#C)"><path d="M415.16 280.3H0v410.21h415.16V280.3z" fill="url(#G)"/></g><path d="M135.59 222.16v50.65h-12.18v-50.65h12.18zm19.55 21.05v29.61h-11.72v-37.64h10.99l.73 8.04zm-1.39 9.5l-2.75.07a26 26 0 0 1 1.04-7.69c.7-2.27 1.68-4.2 2.96-5.78a12.6 12.6 0 0 1 4.56-3.58c1.79-.84 3.77-1.25 5.95-1.25 1.74 0 3.33.26 4.77.77a9.1 9.1 0 0 1 3.76 2.47 11.1 11.1 0 0 1 2.44 4.52c.58 1.86.87 4.15.87 6.89v23.69h-11.79v-23.73c0-1.51-.21-2.66-.63-3.45-.42-.81-1.02-1.37-1.81-1.67a8.1 8.1 0 0 0-2.89-.45c-1.21 0-2.23.23-3.06.7a5.4 5.4 0 0 0-2.02 1.95c-.49.81-.85 1.77-1.08 2.89-.21 1.11-.31 2.33-.31 3.65zm49.92-17.53v8.14h-22.68v-8.14h22.68zm-17.92-9.36h11.72v34.72c0 1 .12 1.77.35 2.33.23.53.63.92 1.18 1.15.58.21 1.34.31 2.3.31l1.67-.04 1.25-.17v8.38a19.2 19.2 0 0 1-3.13.73 20.7 20.7 0 0 1-3.48.28c-2.5 0-4.65-.39-6.44-1.18a8.4 8.4 0 0 1-4.04-3.72c-.93-1.69-1.39-3.9-1.39-6.61v-36.18zm40.81 47.7c-3.06 0-5.8-.47-8.21-1.43-2.41-.97-4.45-2.31-6.12-4-1.65-1.69-2.91-3.64-3.79-5.85a19.1 19.1 0 0 1-1.29-6.99v-1.32a24.5 24.5 0 0 1 1.15-7.65c.76-2.37 1.9-4.43 3.41-6.19a15.2 15.2 0 0 1 5.67-4.1 19.6 19.6 0 0 1 7.93-1.5 18.9 18.9 0 0 1 7.17 1.29 14.6 14.6 0 0 1 5.36 3.69c1.48 1.6 2.61 3.54 3.38 5.81.79 2.27 1.18 4.82 1.18 7.65v4.77h-30.75v-7.34h19.31v-.9c.02-1.25-.2-2.32-.66-3.2-.44-.88-1.09-1.55-1.95-2.02a6.5 6.5 0 0 0-3.13-.7 5.6 5.6 0 0 0-3.17.84c-.81.56-1.45 1.32-1.91 2.3-.44.95-.75 2.05-.94 3.31a27 27 0 0 0-.28 3.97v1.32c0 1.39.19 2.66.56 3.79a8.6 8.6 0 0 0 1.67 2.92c.74.79 1.62 1.4 2.64 1.84 1.04.44 2.23.66 3.55.66a13 13 0 0 0 4.73-.91c1.55-.6 2.89-1.6 4-2.99l5.32 6.33a13.8 13.8 0 0 1-3.27 3.17c-1.39 1.02-3.06 1.86-5.01 2.5-1.95.63-4.13.94-6.54.94zm32.42-29.01v28.32h-11.72v-37.64h10.96l.77 9.32zm11.13-9.6l-.21 10.89-1.88-.17-1.98-.1c-1.37 0-2.55.16-3.55.49a6 6 0 0 0-2.44 1.39c-.63.6-1.09 1.37-1.39 2.3-.28.93-.41 2.01-.38 3.24l-2.12-1.39c0-2.53.24-4.82.73-6.89a18.7 18.7 0 0 1 2.16-5.39c.93-1.53 2.05-2.7 3.38-3.51 1.32-.84 2.81-1.25 4.45-1.25.58 0 1.15.03 1.7.1a8.5 8.5 0 0 1 1.53.31zm18.23 29.89l7.41-29.61h12.35l-12.31 37.64h-7.31l-.14-8.04zm-4.38-29.61l7.31 29.61-.07 8.04h-7.34l-12.28-37.64h12.38zm40.01 0v37.64h-11.76v-37.64h11.76zm-12.45-9.71c0-1.67.6-3.04 1.81-4.1s2.77-1.6 4.7-1.6 3.49.53 4.7 1.6 1.81 2.44 1.81 4.1-.6 3.04-1.81 4.11-2.77 1.6-4.7 1.6-3.49-.53-4.7-1.6-1.81-2.44-1.81-4.11zm37.92 48.04c-3.06 0-5.8-.47-8.21-1.43-2.41-.97-4.45-2.31-6.12-4-1.65-1.69-2.91-3.64-3.79-5.85a19.1 19.1 0 0 1-1.29-6.99v-1.32c0-2.76.38-5.31 1.15-7.65.76-2.37 1.9-4.43 3.41-6.19a15.2 15.2 0 0 1 5.67-4.1 19.6 19.6 0 0 1 7.93-1.5 18.9 18.9 0 0 1 7.17 1.29c2.11.86 3.9 2.09 5.36 3.69 1.48 1.6 2.61 3.54 3.37 5.81.79 2.27 1.18 4.82 1.18 7.65v4.77h-30.75v-7.34h19.31v-.9c.02-1.25-.2-2.32-.66-3.2-.44-.88-1.09-1.55-1.95-2.02a6.5 6.5 0 0 0-3.13-.7 5.6 5.6 0 0 0-3.17.84c-.81.56-1.45 1.32-1.91 2.3-.44.95-.75 2.05-.94 3.31s-.28 2.57-.28 3.97v1.32c0 1.39.19 2.66.56 3.79a8.6 8.6 0 0 0 1.67 2.92c.74.79 1.62 1.4 2.64 1.84 1.04.44 2.23.66 3.55.66a13 13 0 0 0 4.73-.91c1.55-.6 2.89-1.6 4-2.99l5.32 6.33c-.76 1.09-1.85 2.15-3.27 3.17-1.39 1.02-3.06 1.86-5.01 2.5a21.3 21.3 0 0 1-6.54.94zm32.04-11.9l6.96-26.44h7.34l-2.61 13.26-6.89 24.39h-5.88l1.08-11.2zm-2.75-26.44l4.31 26.23.49 11.41h-7.13l-8.91-37.64h11.24zm23.24 25.68l4.35-25.68h11.24l-8.84 37.64h-7.13l.38-11.97zm-5.36-25.68l7.03 26.37 1.08 11.27h-5.95l-6.75-24.32-2.5-13.32h7.1zM148.7 342.35c0-.79-.12-1.5-.35-2.12-.23-.65-.66-1.25-1.29-1.81a11.5 11.5 0 0 0-2.71-1.67c-1.16-.58-2.69-1.18-4.59-1.81l-6.44-2.5c-2.06-.95-3.91-2.05-5.53-3.31-1.62-1.28-2.91-2.76-3.86-4.45-.95-1.72-1.43-3.71-1.43-5.98a11.8 11.8 0 0 1 1.46-5.88 13.4 13.4 0 0 1 4.07-4.49c1.76-1.25 3.83-2.2 6.19-2.85a28.3 28.3 0 0 1 7.76-1.01c3.71 0 6.98.65 9.81 1.95 2.85 1.27 5.08 3.1 6.68 5.46 1.62 2.34 2.44 5.11 2.44 8.31h-12.14a6.9 6.9 0 0 0-.8-3.37c-.51-.97-1.29-1.74-2.33-2.3a8.3 8.3 0 0 0-3.93-.83 9.5 9.5 0 0 0-3.86.7 5.4 5.4 0 0 0-2.37 1.88c-.53.77-.8 1.61-.8 2.54a3.7 3.7 0 0 0 .63 2.09c.44.6 1.06 1.17 1.84 1.71.81.53 1.79 1.04 2.92 1.53 1.16.49 2.46.96 3.9 1.43a47.5 47.5 0 0 1 7.17 2.89 22 22 0 0 1 5.32 3.58 13.2 13.2 0 0 1 3.31 4.52c.77 1.69 1.15 3.61 1.15 5.74 0 2.27-.44 4.29-1.32 6.05a12.6 12.6 0 0 1-3.79 4.49c-1.65 1.21-3.62 2.12-5.91 2.75s-4.86.94-7.69.94c-2.6 0-5.16-.32-7.69-.97-2.5-.67-4.78-1.69-6.82-3.06-2.04-1.39-3.68-3.17-4.91-5.32-1.21-2.18-1.81-4.77-1.81-7.76h12.25c0 1.48.2 2.74.59 3.76s.97 1.84 1.74 2.47c.76.6 1.7 1.04 2.82 1.32 1.11.26 2.39.38 3.83.38 1.55 0 2.81-.22 3.76-.66.95-.46 1.65-1.07 2.09-1.81.44-.77.66-1.6.66-2.5zm33.85 5.11a6 6 0 0 0 2.78-.59c.79-.42 1.38-1 1.77-1.74a5.4 5.4 0 0 0 .59-2.75h11.03c.02 2.83-.67 5.31-2.09 7.44-1.39 2.11-3.29 3.76-5.71 4.94-2.39 1.16-5.09 1.74-8.11 1.74-2.94 0-5.52-.47-7.72-1.43-2.2-.97-4.05-2.32-5.53-4.04-1.46-1.74-2.56-3.77-3.31-6.09-.72-2.32-1.08-4.84-1.08-7.55v-.8c0-2.71.36-5.23 1.08-7.55.74-2.34 1.84-4.37 3.31-6.09a15 15 0 0 1 5.5-4.04c2.2-.97 4.77-1.46 7.69-1.46 3.13 0 5.89.59 8.28 1.77a13.4 13.4 0 0 1 5.67 5.15c1.37 2.25 2.04 4.98 2.02 8.18H187.7a7.6 7.6 0 0 0-.52-3.06 4.7 4.7 0 0 0-1.74-2.16 4.9 4.9 0 0 0-2.96-.83 4.9 4.9 0 0 0-2.92.8c-.74.53-1.31 1.28-1.7 2.23-.37.93-.63 2-.77 3.2a40.4 40.4 0 0 0-.17 3.86v.8c0 1.39.06 2.7.17 3.93.14 1.21.41 2.27.8 3.2a5.1 5.1 0 0 0 1.71 2.16c.74.51 1.73.77 2.96.77zm32.67-45.09v53.44H203.5v-53.44h11.72zm-1.39 33.33l-2.75.07a26 26 0 0 1 .97-7.31 18.5 18.5 0 0 1 2.78-5.81 12.9 12.9 0 0 1 4.35-3.83c1.69-.91 3.57-1.36 5.64-1.36 1.86 0 3.55.27 5.08.8 1.55.53 2.89 1.39 4 2.57a11.6 11.6 0 0 1 2.61 4.63 22.4 22.4 0 0 1 .94 6.96v23.38h-11.79v-23.45c0-1.53-.22-2.71-.66-3.55-.42-.86-1.02-1.45-1.81-1.77-.79-.35-1.75-.52-2.89-.52a7 7 0 0 0-3.34.7c-.86.46-1.52 1.11-1.98 1.95-.44.81-.74 1.77-.9 2.89a25.3 25.3 0 0 0-.24 3.65zm48.36 20.8c-3.06 0-5.8-.47-8.21-1.43-2.41-.97-4.45-2.31-6.12-4-1.65-1.69-2.91-3.64-3.79-5.85a19.1 19.1 0 0 1-1.29-6.99v-1.32a24.5 24.5 0 0 1 1.15-7.65c.76-2.37 1.9-4.43 3.41-6.19a15.2 15.2 0 0 1 5.67-4.1 19.6 19.6 0 0 1 7.93-1.5 18.9 18.9 0 0 1 7.17 1.29 14.6 14.6 0 0 1 5.36 3.69c1.49 1.6 2.61 3.54 3.38 5.81.79 2.27 1.18 4.82 1.18 7.65v4.77h-30.75v-7.34h19.31v-.9c.02-1.25-.2-2.32-.66-3.2-.44-.88-1.09-1.55-1.95-2.02a6.5 6.5 0 0 0-3.13-.7 5.6 5.6 0 0 0-3.17.83c-.81.56-1.45 1.32-1.91 2.3a12 12 0 0 0-.94 3.31 27 27 0 0 0-.28 3.97v1.32c0 1.39.19 2.65.56 3.79a8.6 8.6 0 0 0 1.67 2.92c.74.79 1.62 1.4 2.64 1.84 1.04.44 2.23.66 3.55.66a13 13 0 0 0 4.73-.91c1.55-.6 2.89-1.6 4-2.99l5.32 6.33a13.8 13.8 0 0 1-3.27 3.17c-1.39 1.02-3.06 1.86-5.01 2.5-1.95.63-4.13.94-6.54.94zm42.23-9.32v-44.81h11.79v53.44h-10.58l-1.22-8.63zm-23.1-9.74v-.73c0-2.85.31-5.45.94-7.79.63-2.37 1.55-4.4 2.78-6.09 1.23-1.72 2.76-3.04 4.59-3.97s3.94-1.39 6.33-1.39c2.13 0 4 .5 5.6 1.5 1.6.97 2.97 2.34 4.11 4.1s2.06 3.83 2.78 6.19c.72 2.34 1.26 4.87 1.64 7.58v.87c-.37 2.55-.92 4.96-1.64 7.24-.72 2.25-1.65 4.24-2.78 5.98a13.2 13.2 0 0 1-4.14 4.11c-1.6.97-3.48 1.46-5.64 1.46-2.39 0-4.5-.47-6.33-1.43a13 13 0 0 1-4.56-4c-1.21-1.72-2.12-3.73-2.75-6.05s-.94-4.85-.94-7.59zm11.72-.73v.73a26 26 0 0 0 .28 3.93 11.5 11.5 0 0 0 .94 3.2c.46.91 1.07 1.61 1.81 2.12.76.51 1.7.77 2.82.77a6.1 6.1 0 0 0 3.72-1.08c1-.72 1.73-1.74 2.19-3.06a12.1 12.1 0 0 0 .63-4.66v-2.75c.05-1.53-.06-2.88-.31-4.04a8 8 0 0 0-1.22-2.96c-.53-.79-1.22-1.38-2.05-1.77-.81-.42-1.77-.63-2.89-.63a4.9 4.9 0 0 0-2.78.77c-.74.51-1.34 1.23-1.81 2.16-.46.9-.8 1.98-1.01 3.24-.21 1.23-.31 2.57-.31 4.04zm51.8 9.95v-28.49h11.76v37.64h-10.99l-.77-9.15zm1.11-7.65l3.06-.07c0 2.53-.3 4.87-.9 7.03-.6 2.13-1.5 3.99-2.68 5.57-1.16 1.58-2.6 2.81-4.31 3.69-1.69.86-3.65 1.29-5.88 1.29-1.86 0-3.56-.25-5.11-.76-1.53-.53-2.85-1.36-3.97-2.47a11.7 11.7 0 0 1-2.61-4.35 20.1 20.1 0 0 1-.91-6.4v-24.35h11.73v24.42a6.6 6.6 0 0 0 .31 2.16 4.2 4.2 0 0 0 .9 1.53c.39.39.88.7 1.46.91a7 7 0 0 0 2.05.28c1.76 0 3.14-.37 4.14-1.11a5.8 5.8 0 0 0 2.09-3.03c.42-1.28.63-2.71.63-4.31zm29.5-36.63v53.44h-11.76v-53.44h11.76zm19.62 15.8v37.64h-11.76v-37.64h11.76zm-12.45-9.71c0-1.67.6-3.04 1.81-4.11s2.77-1.6 4.7-1.6 3.49.53 4.7 1.6 1.81 2.44 1.81 4.11-.6 3.04-1.81 4.1-2.77 1.6-4.7 1.6-3.49-.53-4.7-1.6-1.81-2.44-1.81-4.1zm31.21 17.74v29.61h-11.72v-37.64h10.99l.73 8.04zm-1.39 9.5l-2.75.07a26 26 0 0 1 1.04-7.69c.7-2.27 1.68-4.2 2.96-5.77a12.6 12.6 0 0 1 4.56-3.58c1.79-.83 3.77-1.25 5.95-1.25 1.74 0 3.33.25 4.77.76a9.1 9.1 0 0 1 3.76 2.47c1.07 1.14 1.88 2.64 2.44 4.52.58 1.86.87 4.15.87 6.89v23.69h-11.79v-23.73c0-1.51-.21-2.66-.63-3.44-.42-.81-1.02-1.37-1.81-1.67a8.1 8.1 0 0 0-2.89-.45c-1.21 0-2.23.23-3.06.7a5.4 5.4 0 0 0-2.02 1.95c-.49.81-.85 1.77-1.08 2.89-.21 1.11-.31 2.33-.31 3.65zm53.75-17.53h10.65v36.18c0 3.48-.8 6.43-2.4 8.84-1.6 2.44-3.84 4.28-6.71 5.53-2.85 1.27-6.19 1.91-10.02 1.91a21.3 21.3 0 0 1-5.18-.66c-1.76-.42-3.41-1.04-4.94-1.88s-2.82-1.87-3.86-3.1l4.91-6.89c.95 1.07 2.15 1.97 3.58 2.71 1.44.77 3.13 1.15 5.08 1.15 1.69 0 3.11-.3 4.24-.9 1.16-.6 2.04-1.48 2.64-2.64.6-1.14.9-2.52.9-4.14v-27.21l1.11-8.91zm-25.01 19.27v-.73a27.3 27.3 0 0 1 1.04-7.79c.72-2.37 1.74-4.4 3.06-6.09 1.35-1.72 2.97-3.04 4.87-3.97a14.5 14.5 0 0 1 6.44-1.39c2.57 0 4.69.5 6.33 1.5a10.8 10.8 0 0 1 4 4.1c1.02 1.76 1.81 3.83 2.37 6.19.58 2.34 1.07 4.87 1.46 7.58v.87c-.39 2.55-.94 4.96-1.64 7.24a24.3 24.3 0 0 1-2.64 5.98 12.4 12.4 0 0 1-4.11 4.11c-1.62.97-3.57 1.46-5.84 1.46a14.1 14.1 0 0 1-6.4-1.43 14.3 14.3 0 0 1-4.84-4c-1.32-1.72-2.34-3.73-3.06-6.05a26.3 26.3 0 0 1-1.04-7.59zm11.72-.73v.73a19 19 0 0 0 .38 3.93c.28 1.21.7 2.27 1.25 3.2.56.91 1.24 1.61 2.05 2.12a5.5 5.5 0 0 0 2.92.77 7.1 7.1 0 0 0 4.11-1.08 6 6 0 0 0 2.26-3.06c.46-1.32.66-2.88.59-4.66v-2.75c.05-1.53-.06-2.88-.31-4.04a8 8 0 0 0-1.22-2.96 4.9 4.9 0 0 0-2.16-1.77c-.88-.42-1.95-.63-3.2-.63a5.4 5.4 0 0 0-2.89.77 6.2 6.2 0 0 0-2.09 2.16c-.56.9-.99 1.98-1.29 3.24-.28 1.23-.42 2.57-.42 4.04zm-324.24 72.44h9.95l11.31 35.24 11.31-35.24h9.95l-17.22 50.65h-8.07l-17.22-50.65zm-6.05 0h10.3l1.91 38.83v11.83h-12.21v-50.65zm44.32 0h10.33v50.65h-12.25v-11.83l1.91-38.83zm37.16 41.19v-15.52a7.5 7.5 0 0 0-.45-2.75c-.3-.77-.78-1.36-1.43-1.77-.65-.44-1.52-.66-2.61-.66-.88 0-1.63.15-2.26.45a3.1 3.1 0 0 0-1.43 1.36c-.32.6-.49 1.37-.49 2.3H183.7a10.4 10.4 0 0 1 1.15-4.84c.79-1.51 1.9-2.82 3.34-3.93 1.46-1.11 3.2-1.97 5.22-2.57a23.2 23.2 0 0 1 6.82-.94c2.99 0 5.66.5 8 1.5a12.5 12.5 0 0 1 5.6 4.49c1.37 1.97 2.05 4.45 2.05 7.44v15.41c0 2.46.14 4.32.42 5.6a12.9 12.9 0 0 0 1.18 3.31v.59h-11.76c-.56-1.16-.97-2.57-1.25-4.24a35 35 0 0 1-.38-5.22zm1.43-13.53l.07 6.26h-5.18a7.6 7.6 0 0 0-2.78.45 4.7 4.7 0 0 0-1.81 1.25c-.44.51-.77 1.09-.97 1.74a7.4 7.4 0 0 0-.28 2.05c0 .7.16 1.32.49 1.88a3.6 3.6 0 0 0 1.39 1.25c.58.3 1.23.45 1.95.45a6.9 6.9 0 0 0 3.31-.73c.93-.51 1.64-1.12 2.12-1.84s.73-1.39.73-2.02l2.57 4.8a32 32 0 0 1-1.6 2.82c-.58.95-1.31 1.83-2.19 2.64-.86.79-1.91 1.44-3.17 1.95a12.6 12.6 0 0 1-4.56.73 14.4 14.4 0 0 1-6.4-1.43c-1.92-.95-3.47-2.27-4.63-3.97a10.3 10.3 0 0 1-1.74-5.91c0-1.95.35-3.69 1.04-5.22a10.2 10.2 0 0 1 3.23-3.9c1.44-1.07 3.27-1.88 5.5-2.44s4.85-.84 7.86-.84h5.04zm38.51 14.37v-44.81h11.79v53.44h-10.58l-1.22-8.63zm-23.1-9.74v-.73c0-2.85.31-5.45.94-7.79.63-2.37 1.55-4.4 2.78-6.09 1.23-1.72 2.76-3.04 4.59-3.97s3.94-1.39 6.33-1.39c2.13 0 4 .5 5.6 1.5 1.6.97 2.97 2.34 4.11 4.1s2.06 3.83 2.78 6.19c.72 2.34 1.26 4.87 1.63 7.58v.87c-.37 2.55-.92 4.96-1.63 7.24-.72 2.25-1.65 4.24-2.78 5.98s-2.52 3.11-4.14 4.11c-1.6.97-3.48 1.46-5.64 1.46-2.39 0-4.5-.47-6.33-1.43a13 13 0 0 1-4.56-4c-1.21-1.72-2.12-3.73-2.75-6.05a29 29 0 0 1-.94-7.59zm11.72-.73v.73c0 1.42.09 2.73.28 3.93a11.5 11.5 0 0 0 .94 3.2c.46.91 1.07 1.61 1.81 2.12.77.51 1.7.77 2.82.77a6.1 6.1 0 0 0 3.72-1.08c1-.72 1.73-1.74 2.19-3.06a12.1 12.1 0 0 0 .63-4.66v-2.75a16.6 16.6 0 0 0-.31-4.04 8 8 0 0 0-1.22-2.96c-.53-.79-1.22-1.38-2.05-1.77-.81-.42-1.77-.63-2.89-.63a4.9 4.9 0 0 0-2.78.77c-.74.51-1.35 1.23-1.81 2.16-.46.9-.8 1.98-1.01 3.24-.21 1.23-.31 2.57-.31 4.04zm48.04 19.79c-3.06 0-5.8-.47-8.21-1.43-2.41-.97-4.45-2.31-6.12-4-1.65-1.69-2.91-3.64-3.79-5.85a19.1 19.1 0 0 1-1.29-6.99v-1.32a24.5 24.5 0 0 1 1.15-7.65c.76-2.37 1.9-4.43 3.41-6.19a15.2 15.2 0 0 1 5.67-4.1 19.6 19.6 0 0 1 7.93-1.5 18.9 18.9 0 0 1 7.17 1.29 14.6 14.6 0 0 1 5.36 3.69c1.48 1.6 2.61 3.54 3.37 5.81.79 2.27 1.18 4.82 1.18 7.65v4.77h-30.75v-7.34h19.31v-.9c.02-1.25-.2-2.32-.66-3.2-.44-.88-1.09-1.55-1.95-2.02a6.5 6.5 0 0 0-3.13-.7 5.6 5.6 0 0 0-3.17.83c-.81.56-1.45 1.32-1.91 2.3a12.1 12.1 0 0 0-.94 3.31c-.19 1.25-.28 2.57-.28 3.97v1.32c0 1.39.19 2.65.56 3.79a8.6 8.6 0 0 0 1.67 2.92 7.9 7.9 0 0 0 2.64 1.84c1.04.44 2.23.66 3.55.66a13 13 0 0 0 4.73-.91c1.55-.6 2.89-1.6 4-2.99l5.32 6.33c-.76 1.09-1.85 2.15-3.27 3.17-1.39 1.02-3.06 1.86-5.01 2.5a21.3 21.3 0 0 1-6.54.94zm79.56-12.44l-2.04 11.74h-32.83l2.04-11.74h32.83zm-18.52-51.58l-11 63.32h-14.87l10.96-63.32h14.92zm18.87 25.13l-1.96 11.35h-28.61l2-11.35h28.57zm8.7-25.13l-2.04 11.78H334.3l2.09-11.78h32.92zm29.57 14.05l-23.31 49.27h-16.48l33.57-63.32h10.52l-4.31 14.05zm4 49.27l-6.44-50.79.35-12.52h9.92l11.7 63.32h-15.52zm3.39-23.61l-2.09 11.78h-31.62l2.09-11.78h31.62zm51.45 6.48c.26-1.36.16-2.52-.3-3.48a6.2 6.2 0 0 0-2-2.44c-.87-.67-1.87-1.23-3-1.7-1.1-.49-2.18-.94-3.22-1.35-2.26-.9-4.49-1.91-6.7-3.04a31.3 31.3 0 0 1-6-4.09c-1.8-1.57-3.2-3.39-4.22-5.48-.99-2.09-1.41-4.54-1.26-7.35.2-3.22 1.12-5.99 2.74-8.31a19.1 19.1 0 0 1 6.22-5.65 29.2 29.2 0 0 1 8.22-3.22c2.96-.7 5.84-1.01 8.65-.96 4 .06 7.57.87 10.7 2.44a17.8 17.8 0 0 1 7.44 6.74c1.8 2.9 2.67 6.41 2.61 10.52h-14.74c.06-1.62-.16-3.03-.65-4.22-.46-1.22-1.23-2.16-2.31-2.83a7.8 7.8 0 0 0-4.17-1.09 12.2 12.2 0 0 0-4.26.69 9.7 9.7 0 0 0-3.7 2.18 6.8 6.8 0 0 0-2 3.83c-.2 1.19-.01 2.23.56 3.13a7.8 7.8 0 0 0 2.39 2.26 21.5 21.5 0 0 0 3.18 1.57l2.96 1.13a50.5 50.5 0 0 1 6.83 3.18c2.2 1.19 4.15 2.59 5.83 4.22 1.71 1.62 3.01 3.52 3.91 5.7.93 2.15 1.3 4.64 1.13 7.48-.23 3.28-1.1 6.07-2.61 8.39a18.1 18.1 0 0 1-5.83 5.65 26.6 26.6 0 0 1-7.83 3.18c-2.84.67-5.73.99-8.65.96a31.2 31.2 0 0 1-9.18-1.48 22.4 22.4 0 0 1-7.44-4.13 18.6 18.6 0 0 1-4.91-6.7c-1.16-2.67-1.71-5.73-1.65-9.18l14.92.04c-.09 1.62.01 3.06.31 4.31a7.6 7.6 0 0 0 1.56 3.09c.75.81 1.73 1.44 2.91 1.87a13.4 13.4 0 0 0 4.31.61c1.42 0 2.78-.22 4.09-.65 1.33-.46 2.46-1.17 3.39-2.13s1.52-2.19 1.78-3.7zm41.36-46.18l6.52 27.4 16.05-27.4h16.7l-27.27 41.27-3.78 22.05h-15.18l4.09-23.48-12.7-39.79 15.57-.04zm58.75 0l-9.31 43.27h-11.65l5.7-43.27h15.26zm-25.48 57.01c-.06-2.26.7-4.1 2.26-5.52a8.2 8.2 0 0 1 5.65-2.13c2.09-.03 3.9.62 5.44 1.96 1.57 1.31 2.38 3.03 2.44 5.18.03 2.23-.74 4.07-2.31 5.52-1.57 1.42-3.44 2.13-5.61 2.13a8.1 8.1 0 0 1-5.48-1.91c-1.54-1.3-2.33-3.04-2.39-5.22z" fill="#5b5b5b"/><g filter="url(#D)"><path d="M323 71.25a11.9 11.9 0 0 0-11.87-11.87H0v89.06h311.13A11.9 11.9 0 0 0 323 136.56V71.25z" fill="#3886e7"/><path d="M47.66 107.53h-6.3v-4.71h6.3c.86 0 1.55-.14 2.09-.44s.92-.69 1.17-1.2c.26-.52.38-1.11.38-1.76 0-.7-.13-1.34-.38-1.93-.24-.59-.63-1.07-1.17-1.43-.53-.37-1.23-.56-2.09-.56h-4v20.61h-6.11V90.8h10.11c2.03 0 3.77.37 5.24 1.11 1.47.74 2.6 1.76 3.39 3.06a8.3 8.3 0 0 1 1.18 4.42 7.7 7.7 0 0 1-1.18 4.28c-.79 1.22-1.92 2.17-3.39 2.85-1.46.67-3.21 1.01-5.24 1.01zm22.39 3.86v-7.76c0-.53-.08-.99-.23-1.37s-.39-.68-.71-.89c-.32-.22-.76-.33-1.3-.33-.44 0-.82.08-1.13.23s-.55.38-.71.68a2.4 2.4 0 0 0-.24 1.15h-5.86a5.2 5.2 0 0 1 .57-2.42 6 6 0 0 1 1.67-1.97c.73-.56 1.6-.99 2.61-1.29a11.6 11.6 0 0 1 3.41-.47c1.5 0 2.83.25 4 .75 1.18.5 2.12 1.25 2.8 2.24.68.99 1.03 2.23 1.03 3.72v7.71c0 1.23.07 2.16.21 2.8.14.63.34 1.18.59 1.65v.3h-5.88c-.28-.58-.49-1.29-.63-2.12a17.5 17.5 0 0 1-.19-2.61zm.71-6.77l.03 3.13h-2.59a3.8 3.8 0 0 0-1.39.23c-.37.15-.67.36-.9.63-.22.25-.38.55-.49.87-.09.33-.14.67-.14 1.03 0 .35.08.66.24.94.17.27.41.48.7.63s.61.23.97.23c.65 0 1.2-.12 1.65-.36.46-.26.82-.56 1.06-.92s.37-.7.37-1.01l1.29 2.4c-.23.46-.5.93-.8 1.41a6.1 6.1 0 0 1-1.1 1.32c-.43.4-.96.72-1.58.98a6.3 6.3 0 0 1-2.28.36 7.2 7.2 0 0 1-3.2-.71c-.96-.48-1.73-1.14-2.31-1.98-.58-.86-.87-1.84-.87-2.96 0-.97.17-1.84.52-2.61a5.1 5.1 0 0 1 1.62-1.95c.72-.53 1.64-.94 2.75-1.22s2.42-.42 3.93-.42h2.52zm14.35-2.66v14.16h-5.86V97.3h5.48l.38 4.66zm5.57-4.8l-.1 5.44-.94-.09-.99-.05c-.68 0-1.28.08-1.77.24a3 3 0 0 0-1.22.7c-.31.3-.55.68-.7 1.15a5.3 5.3 0 0 0-.19 1.62l-1.06-.7a15 15 0 0 1 .37-3.44c.26-1.04.61-1.94 1.08-2.7.46-.77 1.03-1.35 1.69-1.76a4.1 4.1 0 0 1 2.23-.63c.29 0 .57.02.85.05.29.03.55.09.77.16zm12.8.14v4.07H92.14V97.3h11.34zm-8.96-4.68h5.86v17.36c0 .5.06.89.17 1.17.12.27.31.46.59.57.29.1.67.16 1.15.16l.84-.02.63-.09v4.19c-.5.16-1.02.28-1.56.37-.55.09-1.12.14-1.74.14-1.25 0-2.32-.2-3.22-.59a4.2 4.2 0 0 1-2.02-1.86c-.46-.85-.7-1.95-.7-3.3V92.62zm31.61 10.32v4.54h-10.45v-4.54h10.45zm26.35-12.14v25.33h-5.86V97.41l-5.78 1.69v-4.45l11.1-3.84h.54z" class="B"/></g><g clip-path="url(#I)"><g fill="#ebebeb"><path d="M1021.25 413.96H665v.18h356.25v-.18zm-35.7 11.47h-23.6v.18h23.6v-.18zm-84.56 1.93h-6.19v.18h6.19v-.18zm60.25-8.55h-13.67v.18h13.67v-.18zm-228.09 1.2h-30.77v.18h30.77v-.18zm10.85 0h-4.51v.18H744v-.18zm81.41 3.01h-66.74v.18h66.74v-.18zm8.46-40.84H696.29c-2.24 0-4.07-1.82-4.07-4.07v-193.4c0-2.24 1.82-4.07 4.07-4.07h137.58a4.1 4.1 0 0 1 4.07 4.07v193.4c0 2.24-1.82 4.07-4.07 4.07zM696.29 180.83a3.9 3.9 0 0 0-3.89 3.89v193.4a3.9 3.9 0 0 0 3.89 3.89h137.58a3.9 3.9 0 0 0 3.89-3.89v-193.4a3.9 3.9 0 0 0-3.89-3.89H696.29zm291.69 201.35H850.4c-2.24 0-4.07-1.82-4.07-4.07v-193.4c0-2.24 1.82-4.07 4.07-4.07h137.58a4.1 4.1 0 0 1 4.07 4.07v193.4c0 2.24-1.82 4.07-4.07 4.07zM850.4 180.83a3.9 3.9 0 0 0-3.89 3.89v193.4a3.9 3.9 0 0 0 3.89 3.89h137.58a3.9 3.9 0 0 0 3.89-3.89v-193.4a3.9 3.9 0 0 0-3.89-3.89H850.4z"/></g><g fill="#f0f0f0"><path d="M945.67 245.74l-77.55-26.19-.06-.06-40.97-41.99-32.86 30.01-.48-.53 33.37-30.48 41.39 42.43 76.89 25.97 31.56-43.42.58.42-31.87 43.84zm-241.05 64.47c0 2.12-1.72 3.83-3.83 3.83s-3.83-1.71-3.83-3.83 1.72-3.83 3.83-3.83 3.83 1.72 3.83 3.83z"/><use href="#J"/><path d="M981.09 201.69c0 2.12-1.72 3.83-3.83 3.83s-3.83-1.72-3.83-3.83 1.72-3.83 3.83-3.83 3.83 1.72 3.83 3.83zm.33 202.28c0 2.12-1.72 3.83-3.83 3.83s-3.83-1.72-3.83-3.83 1.72-3.83 3.83-3.83 3.83 1.72 3.83 3.83zM872.16 219.24c0 2.12-1.72 3.83-3.83 3.83s-3.83-1.72-3.83-3.83 1.72-3.83 3.83-3.83 3.83 1.72 3.83 3.83z"/><path d="M801.34 404.07l-.3-.06-96.13-18.15.13-.7 95.83 18.1 67.11-184.14.67.25-67.31 184.71zm-91.83-167.88l-.47.53 32.8 29.04.47-.53-32.8-29.04zM977.4 404.28l-47.53-29.45 1.04-.28 49.93-48.04-35.63-81.03.65-.29 35.83 81.49-.18.17-50.04 48.14 46.3 28.69-.37.6z"/><path d="M705.28 385.71l-.6-.39 28.73-44.37-33.12-30.72.24-.26 41.48-44.91.25.14 189.02 109.34-.36.62-188.77-109.2-40.85 44.23 33.03 30.64-29.05 44.87z"/></g><path d="M843.12 446.14c76.3 0 138.15-3.61 138.15-8.07S919.41 430 843.12 430s-138.15 3.61-138.15 8.07 61.85 8.07 138.15 8.07z" fill="#f5f5f5"/><use href="#K" class="C"/><g class="I B"><use href="#K"/></g><g class="C"><use href="#L"/><use href="#M"/><use href="#N"/><use href="#O"/><use href="#P"/></g><g opacity=".4" class="B"><use href="#L"/><use href="#M"/><use href="#N"/><use href="#O"/><use href="#P"/></g><use href="#Q" class="C"/><path d="M710.78 244.86a8 8 0 1 0-2.56-15.83 8 8 0 1 0 2.56 15.83z" class="B E"/><path d="M704.74 236.81c.1 1.02.98 1.19.98 1.19s-.2.54.03 1.19 1.55.65 1.55.65.11.35.6.4c.03.04.06.07.08.1l.19.26c.16 1.29.13 2.65-.5 3.34 0 0 .01.01.01.01l-1.65.22-.78.13a8.4 8.4 0 0 0 9.47-.67l-.82-.01c-.44 0-.94 0-1.49.01 0-.01-.01-.02-.01-.03-.91-.15-1.36-.58-1.54-1.13-.09-.27-.11-.57-.1-.88a2.8 2.8 0 0 0 .7-.23c.64-.31 1.17-.86 1.44-1.58.04-.09.07-.19.1-.3.19-.72.27-1.64.18-2.53.24-.14.49-.39.58-.82.17-.86-.6-1.07-.6-1.07s.84-.14.87-1.19-.87-1.06-.87-1.06.31-.45-.29-1.28-1.43-.32-1.43-.32-.63-1-1.66-.75-1.3.86-1.3.86 0-.61-1.17-.27-1.03 1.7-1.03 1.7-.79-.4-1.2.45.47 2.34.47 2.34-.91.25-.81 1.27z" class="C"/><use href="#Q" class="B I"/><use href="#R" class="C"/><path d="M712.31 386.32a7.1 7.1 0 0 1-7.12 7.13c-1.49 0-2.87-.46-4.01-1.24a7.1 7.1 0 0 1-3.11-5.89c0-3.94 3.18-7.13 7.11-7.13s7.12 3.19 7.12 7.13z" class="B E"/><path d="M710.82 390.69a7.1 7.1 0 0 1-5.62 2.76c-1.49 0-2.87-.46-4.01-1.24l.39-.87a20.8 20.8 0 0 1 2.71-.67 2.1 2.1 0 0 1 .93-.46c.19-.57.08-1.2-.05-1.62-.28-.19-.52-.44-.72-.72-.14-.1-.27-.23-.38-.38-.22-.09-1.73-.8-1.81-3.28 0-.1 0-.2.01-.31-.47-.05-.96.1-.62 1.06.59 1.65-.03 2.51-.03 2.51.03-.53-.05-1.09-.05-1.09 0 1.7-.92 1.81-.92 1.81s.59-.61-.28-2.51-.61-4.47 1.03-4.58c.88-.06 1.46.36 1.82.76.93-.83 2.33-.97 3.23-.38 0 0 1.48-.36 1.89.03.09.09.02.28-.16.54.38.25.69.63.83 1.22.23 1.02-.07 1.8-.4 2.32.2 1.88-.12 3.28-1.61 3.41l-.01.14-.01.19c-.01.36.04.62.1.8a4 4 0 0 1 .62.17 33.5 33.5 0 0 1 2.82.14c.1.06.2.14.32.24z" class="C"/><use href="#R" class="B I"/><use href="#S" class="C"/><path d="M989.41 327.26c0 1.61-.48 3.11-1.31 4.36-1.41 2.12-3.81 3.51-6.54 3.51a7.8 7.8 0 0 1-4.81-1.65c-1.85-1.44-3.04-3.69-3.04-6.22 0-4.35 3.51-7.87 7.85-7.87s7.85 3.52 7.85 7.87z" class="B E"/><path d="M988.1 331.61c-1.41 2.12-3.81 3.51-6.54 3.51a7.8 7.8 0 0 1-4.81-1.65c-.09-.48.01-.94.04-1.29.1-.96 1.21-1.74 1.18-2.41s-1.14-1.54-.41-1.93.88-1.89.3-2.73c-.48-.55-.83-1.43.04-2.56.55-.7 1.34-1.03 2.14-1.17.55-.3 1.31-.45 2.32-.34a4.9 4.9 0 0 1 2.31.79c.57.4.96.91 1.2 1.48a4.7 4.7 0 0 0 .25 3.41c-.39 1.12 1.35 1.06 1.4 2.09s-.82 1.09-.67 1.78c.07.32.67.62 1.23 1.01z" class="C"/><use href="#S" class="B I"/><g class="C"><use href="#T"/><use href="#U"/><use href="#V"/></g><use href="#T" class="B J"/><use href="#W" class="C"/><g class="B"><use href="#W" class="J"/><use href="#U" class="J"/><use href="#V" class="J"/></g><use href="#X" class="C"/><use href="#X" class="B J"/><g class="C"><use href="#Y"/><path d="M824.51 251.66a3.1 3.1 0 0 1-3.09 3.1 3.1 3.1 0 0 1 0-6.2 3.1 3.1 0 0 1 3.09 3.1z"/></g><path d="M821.72 249.47c.34.45.07 1.24-.61 1.76s-1.51.57-1.85.12-.07-1.24.61-1.76 1.51-.57 1.85-.12z" class="B E"/><g class="C"><path d="M883.15 271.96l-1.07 6.25-1.07-6.25h2.14z"/><use href="#Z"/></g><path d="M882.38 269.77c.35.45.07 1.24-.61 1.76s-1.51.57-1.85.12-.07-1.24.61-1.76 1.51-.57 1.85-.12z" class="B E"/><g class="C"><path d="M804.18 324.59l-1.07 6.25-1.07-6.25h2.14z"/><path d="M803.11 327.69a3.1 3.1 0 1 0 0-6.2 3.1 3.1 0 1 0 0 6.2z"/></g><use href="#a" class="B E"/><g class="C"><path d="M891.29 313.48l-1.07 6.25-1.07-6.25h2.14z"/><path d="M893.32 313.48a3.1 3.1 0 0 1-3.1 3.1 3.1 3.1 0 1 1 0-6.2 3.1 3.1 0 0 1 3.1 3.1z"/></g><path d="M890.53 311.3c.34.45.07 1.24-.61 1.76s-1.51.57-1.86.12-.07-1.24.61-1.76 1.51-.57 1.86-.12z" class="B E"/><path d="M969.59 245.83c0 5.35-1.76 10.29-4.74 14.27-1.06 1.42-2.27 2.71-3.62 3.84-1.2 1.04-2.52 1.96-3.93 2.73-3.39 1.88-7.31 2.96-11.48 2.96a23.5 23.5 0 0 1-9.83-2.14 9.4 9.4 0 0 1-.82-.39l-.01-.01c-1.67-.83-3.24-1.87-4.66-3.07a23.5 23.5 0 0 1-5.31-6.38c-2-3.48-3.14-7.51-3.14-11.81a23.8 23.8 0 0 1 23.77-23.81 23.8 23.8 0 0 1 23.76 23.81z" class="C"/><path d="M962.14 262.17c9.01-9.03 9.01-23.66 0-32.69s-23.62-9.03-32.63 0-9.01 23.66 0 32.69 23.62 9.03 32.63 0z" class="B I"/><path d="M930.52 256.63l2.23-9.26s1.41-1.13 1.5-1.95-.87-5.67-1.48-5.97-4.23.97-4.41 2.01 1.25 5.11 1.54 5.44l-3.66 10.78 4.28-1.05z" class="L"/><g class="C"><use href="#b"/><use href="#c"/></g><g class="F"><use href="#b" class="E"/><use href="#c" class="E"/></g><path d="M933.3 249.72l-.73 1.64-5.06-.84.12-.93 5.67.14z" class="C"/><path d="M959.87 237.88c-.59 2.27 2.64 8.51 1.33 19.88s-13.75 10.67-19.34 6.88-4.62-24.35-2.7-28.41 20.72 1.64 20.72 1.64z" class="D"/><path d="M963.16 256.26l-.34.99-.33.96-.61 1.83-1.1 3.38a21.9 21.9 0 0 1-3.81 2.65 22.9 22.9 0 0 1-11.14 2.88 22.8 22.8 0 0 1-9.54-2.07 9.6 9.6 0 0 1-.8-.38l.01-.68.01-.66.05-1.84.04-1.11.03-.52.11-1.75.03-.51.11-1.38c.26-2.64.61-3.69.84-4.1.04-.09.09-.14.12-.18.07-.08.11-.09.11-.09s.35-.03.93-.08a92.1 92.1 0 0 1 7.62-.34c.05 0 .11 0 .16.01a24.5 24.5 0 0 1 1.15.05l4.44.39 1.64.23 1.77.29.24.04 6.47 1.48 1.76.53h.01 0z" class="C"/><path d="M963.15 256.26l-.33.99-.33.96-.61 1.83-1.1 3.38a21.9 21.9 0 0 1-3.81 2.65 22.9 22.9 0 0 1-11.14 2.88 22.8 22.8 0 0 1-9.54-2.07l-.8-.38-.01-.01.02-.67.01-.66.05-1.84.04-1.11.03-.52a43.2 43.2 0 0 1 .11-1.75l.04-.51.11-1.38c.26-2.64.61-3.69.84-4.1.04-.09.09-.14.12-.18.07-.08.11-.09.11-.09s.35-.03.93-.08l7.62-.34c.05 0 .11 0 .17.01l1.15.05 4.44.39 1.64.23 1.77.29.24.04 6.47 1.48 1.76.53z" class="E F"/><path d="M949.82 252.63c5.09.4 5.71 1.94 5.17 2.75s-7.44 7.56-9.51 12.08c0 0-7.47-15.76 4.34-14.83z" class="B"/><path d="M947.18 257.76c5.04-.65 6.55-2.8 6.55-2.8-3.2-3.02-.54-8.26-.54-8.26l-6.06 1.13c.16 1 .23 1.85.24 2.56.05 3.69-1.62 3.72-1.62 3.72-1.06 2 1.43 3.64 1.43 3.64z" class="L"/><path d="M947.13 247.83c.16 1 .23 1.85.24 2.56 4.1 0 5.83-3.69 5.83-3.69l-6.06 1.13z" class="F G"/><path d="M950.48 230.85c-5.27-.29-7.12 2.45-7.81 7.87-.86 6.78.39 11.69 7.06 10.6 9.06-1.48 9.5-17.98.75-18.47z" class="L"/><path d="M946.1 238.61s-.81 1.34-1.65 2.11c0 0 .41.74 1.36.67l.3-2.78z" class="K"/><g class="D"><use href="#d"/><path d="M950.05 237.64l-.91-.44s.41.83.91.44zm-6.07.2c-.03.43.17.8.46.82s.55-.31.58-.74-.17-.8-.46-.83-.55.31-.58.74z"/><path d="M944.69 237.12l-.91-.44s.41.83.91.44zm7.15-1.24c-.08 0-.15-.03-.2-.1-.66-.91-2.01-.83-2.03-.82-.14.01-.25-.09-.26-.23s.09-.25.23-.26c.07 0 1.64-.11 2.46 1.03.08.11.06.26-.05.34-.04.03-.09.04-.14.04zm-8.18-1.04c-.08 0-.16-.04-.21-.12-.07-.12-.03-.27.09-.34 1.3-.77 2.3-.35 2.35-.33.12.05.18.2.13.32s-.2.18-.32.13c-.03-.01-.83-.33-1.9.31-.04.02-.08.03-.12.03zm2.79 8.67a13.4 13.4 0 0 1 .51 1.87l.34-.01c1.54-.07 2.24-.61 2.53-1.2a2 2 0 0 0 .2-.92c0-.31-.07-.54-.07-.54-.8.53-2.23.71-3 .77l-.52.03z"/></g><path d="M946.98 243.48l.17.55c1.45-.07 2.47-.32 2.9-.78 0-.31-.07-.54-.07-.54-.8.53-2.23.71-3 .77z" class="B"/><path d="M947.31 245.36c1.54-.07 2.24-.62 2.53-1.2-.53.04-1.15.16-1.7.42-.42.2-.67.49-.84.78z" class="K"/><path d="M955.75 240.06s-2.23-4.47-1.67-7.8c0 0-10.21-4.85-11.31 5.75 0 0-.5-9.49 8.57-9.2 9.06.29 8.31 13.57 3.41 17.27 0 0 2.38-3.21 1-6.01z" class="D"/><path d="M954.83 241.13c.08-.85 1.04-2.24 2.61-1.98 1.62.27 2.22 3.67-1.89 4.25-.59.08-.89-.5-.72-2.27z" class="L"/><g class="D"><path d="M952.68 231.73s-.84 6.52 3.07 12.43c2.97 4.49-.44 8.42-.44 8.42s5.26-3.36 5.45-8.42c0 0 4.35-12.1-4.68-15.37 0 0-.04-2.72-5.92-2.21s-10.63 5.57-11.53 12.01 2.45 13.63 2.45 13.63-3.56-22.83 11.59-20.5z"/><path d="M953.02 231.84c-.42 1.47-.5 3.1-.44 4.68.09 1.59.34 3.18.76 4.72a20 20 0 0 0 1.76 4.46c.78 1.4 1.73 2.73 2.98 3.75a13 13 0 0 1-3.14-3.66c-.82-1.4-1.48-2.9-1.95-4.45-.48-1.55-.8-3.16-.95-4.79-.12-1.64-.11-3.27.29-4.93l.68.22z"/></g><use href="#e" class="C"/><use href="#e" class="E F"/><use href="#f" class="C"/><path d="M899.86 196.06a12.2 12.2 0 0 1-12.23 12.25 12.2 12.2 0 0 1-9.42-4.44c-1.76-2.12-2.81-4.84-2.81-7.81 0-6.77 5.47-12.25 12.23-12.25 6.75 0 12.23 5.48 12.23 12.25z" class="B E"/><path d="M896.59 204.39a12.2 12.2 0 0 1-18.38-.53c.06-.03.13-.05.19-.06.16-.22.34-.43.59-.61 0-.03 0-.06 0-.1l.22-.04c.36-.21.79-.35 1.34-.35a3.2 3.2 0 0 1 .4.02l.76-.14-.02.21 4.12.28c.38-.29.62-.66.76-1.07.14-.44.17-.92.14-1.41-.59-.03-1.18-.18-1.71-.45a4.4 4.4 0 0 1-2.11-2.41 4 4 0 0 1-.13-.44 11.1 11.1 0 0 1-.07-4.63c-.04-.01-.09 0-.13-.01-.06-.01-.11-.06-.11-.14 0-.01.01-.02.01-.03.02-.08.09-.13.16-.12.01 0 .02 0 .04 0-.1-1.03.05-2.07.2-2.77-.42-.75-.42-2.21-.02-2.8.46-.66.1-.3 1.3-.4s.47-1.17 1.24-1.18.61.47 1.54.82.59-.71 1.65-.81 1.22.71 1.98.91.91 0 1.47 0 .61 1.63.84 1.93.63-.15 1.13.68c.07.11.09.24.09.4 0 1.08-1.34 3.13-1.34 3.13a15.1 15.1 0 0 1-.27 1.52c.4.39.52 1.03.24 1.62-.26.53-.68.97-1.18 1.27a8.6 8.6 0 0 1-.77 1.35c-.34 1.87-.5 4.08.13 5.47 2.16.23 4.23.51 5.68.9z" class="C"/><use href="#f" opacity=".5" class="B"/><use href="#g" class="C"/><path d="M813.58 403.37a12.2 12.2 0 0 1-3.83 8.89c-2.19 2.08-5.15 3.36-8.4 3.36-2.57 0-4.95-.79-6.92-2.15-3.21-2.21-5.31-5.91-5.31-10.1 0-6.77 5.47-12.25 12.23-12.25s12.23 5.48 12.23 12.25z" class="B G"/><path d="M809.76 412.27c-2.19 2.09-5.15 3.36-8.4 3.36-2.57 0-4.95-.79-6.92-2.15l2.77-.33c.74-1.6.55-4.16.16-6.32a10.5 10.5 0 0 1-.88-1.56 3.4 3.4 0 0 1-1.37-1.46c-.32-.68-.19-1.42.27-1.87a14.3 14.3 0 0 1-.4-2.95l-.05.03s-.99-3.8 2.69-5.2 7.39 1.1 7.39 1.1.8-1.49 1.75-1.1c.81.33.38 1.38.23 1.71.1-.16.35-.51.83-.73.65-.3 1.55.53-.47 2.55-.21.21-.45.38-.72.52a10 10 0 0 1 .05 2.76c.38 1.82.3 3.82-.08 5.34a4 4 0 0 1-.16.51 5 5 0 0 1-2.44 2.78 4.8 4.8 0 0 1-1.97.53 4.5 4.5 0 0 0 .17 1.63c.16.48.44.9.88 1.24l4.76-.32-.02-.24.88.16a3.7 3.7 0 0 1 1.04.02z" class="C"/><use href="#g" opacity=".5" class="B"/><use href="#h" class="C"/><path d="M754.53 266.06c0 3.13-1.18 6-3.11 8.16a12.2 12.2 0 0 1-9.12 4.09c-2.69 0-5.18-.87-7.2-2.35-3.05-2.23-5.03-5.84-5.03-9.9 0-6.77 5.47-12.25 12.23-12.25s12.23 5.48 12.23 12.25z" class="B G"/><path d="M751.43 274.22a12.2 12.2 0 0 1-9.12 4.09c-2.69 0-5.18-.87-7.2-2.35l4.85-1.5c.09.1.18.22.27.33l.62-.12 1.17-.18c.28-.47.43-.99.48-1.5l-.67.03c.13-.48-.59-1.49-.59-1.49l-.24 1.33s-.49-.08-.82-.29-.75-1.65-.75-1.65l-1.02 1.73c-.19.33-.67 0-.67 0s-.32-1.22.08-2.48c.41-1.27-.86-1.23-.86-1.23s0 .53-.32 1.39c-.33.86-.33 1.3-.33 1.81s.04.87-.32.87-.41-.32-.37-.87c.04-.55-.53-1.08-.2-1.53s.08-1.67.08-1.67c-.21.86-1.14.82-1.3 1.43-.17.61.45 1.47.16 1.78s-.77 0-.77 0 .41-.67.12-1.07c-.28-.39-.74-.59-.53-1.38s.57-.79.45-1.68c-.12-.88-.53-.83 0-1.16s1.22-1.87 1.22-2.55-.28-2.22.86-2.76 1.42-.96 1.22-2.4c-.2-1.44.89-1.34 2.28-1.05 0 0 .69-1.1 1.34-.89.65.2 1.14.08 1.28-.29.13-.37 1.93-.33 2.2 0s1.24.57 1.82.32 2.15.73 2.1 1.38c-.05.66-.04 1.02.8 1.4.83.37 1 .57 1.36 2.03s-.24 2.05.49 2.61c.73.56.65 2.82.69 3.51.04.69 0 1.46 0 1.46l-.2.06c-.21.05-.37-.75-.33-1.35.04-.57-1.24-1.41-1.34-1.48l.41.95c.16.42.2 1.5.16 2.19-.04.69.77 1.08.77 1.08l-.89.45s-.69-1.48-.46-2.25-.44-1.46-.44-1.46v1.46s-.24.52-.61 1.22.28.9.39 1.27-.8.39-.8.39l-.17-.88-.31.88c-.32.24-1 .41-1.76.54.04.67.18 1.11.36 1.39l.87-.04 1.75.03h.01a64.8 64.8 0 0 1 2.73.15z" class="C"/><use href="#h" opacity=".5" class="B"/><path d="M793.35 228.39a21.8 21.8 0 0 0 21.75-21.79 21.8 21.8 0 0 0-21.75-21.79c-12.01 0-21.75 9.76-21.75 21.79a21.8 21.8 0 0 0 21.75 21.79z" class="C"/><path d="M814.4 206.59a21 21 0 0 1-4.38 12.85c-.75.98-1.58 1.89-2.5 2.73-.84.77-1.74 1.47-2.7 2.09-.03.04-.08.06-.12.08a19.1 19.1 0 0 1-2.34 1.31 20.9 20.9 0 0 1-9 2.03 21 21 0 0 1-16.01-7.42h-.01a21 21 0 0 1-5.02-13.65 21.1 21.1 0 0 1 21.05-21.08 21.1 21.1 0 0 1 21.04 21.08z" class="B I"/><path d="M798.25 206.6c.46-1.03.79-.58 2.13.45a3.4 3.4 0 0 1 1.55 3.07c0 1.1-.21 3.29-.21 3.29l3.48 3.91-1.57 2.38-4.04-4.57s-2-1.51-2.33-3.2.99-5.32.99-5.32z" class="H"/><path d="M797.79 205.42l2.85 5.12c.13.23.1.52-.07.72l-2.21 2.56c-.28.32-.79.28-1.01-.09l-2.55-4.22 3-4.1z" class="D"/><g class="C"><path opacity=".4" d="M797.63 205.98l2.51 4.74-2.39 2.82-2.57-4.19 2.45-3.38z"/><path d="M804.82 224.26l.05.31-.17-.23a19.2 19.2 0 0 1-2.34 1.31l.58-3.85.43-2.4.19-.97v-.01c.25.04.5.12.75.24 1.09.53 2.17 1.81 3.21 3.51a19.7 19.7 0 0 1-2.7 2.09z"/><path d="M804.87 224.56l-.17-.23c-.75.49-1.52.93-2.34 1.31a20.9 20.9 0 0 1-9 2.03 21 21 0 0 1-16.01-7.42l1.1-.23.11-.02.22-.04 2.93-.49c.01-.01.01-.01.02-.01l1.29-.18 1.7-.21a.9.9 0 0 1 .14-.01l3.88-.37 1.24-.08h.01l1.58-.1 1.54-.07.62-.02 1.79-.05 4.83-.03.87.01a42.3 42.3 0 0 1 1.25.04l1.08.03.25.98a76.4 76.4 0 0 1 1.01 4.85l.05.31z"/></g><path d="M804.87 224.56l-.17-.23c-.75.49-1.52.93-2.34 1.31a20.9 20.9 0 0 1-9 2.03 21 21 0 0 1-16.01-7.42l-.51.11.51-.12 1.11-.23.11-.02.22-.04a64.1 64.1 0 0 1 2.93-.49c.01-.01.01-.01.02-.01l1.29-.18 1.7-.21c.04-.01.09-.01.13-.01a94.7 94.7 0 0 1 3.88-.36l1.23-.09 1.6-.09 1.54-.07.62-.02 1.78-.06 4.84-.03.87.01 1.24.03 1.1.04v.01l.25.98 1.01 4.85.05.31z" class="F G"/><path d="M784.7 219.05c2.31 2.11 7.98 1.33 7.98 1.33s3.54-.97 2.8-2.08c-2.08-.34-3.09-1.32-3.51-2.57-.24-.73-.28-1.54-.21-2.39.03-.44.1-.89.18-1.33l-7.01-5.2c.92 3.43 2.04 9.74-.22 12.23z" class="H"/><path d="M786.54 210.12c.28 4.21 3.73 5.38 5.43 5.61-.24-.73-.28-1.54-.21-2.39l-5.21-3.23z" class="F G"/><path d="M798.63 196.8s1 6.56-2.48 9.08-3.47-9.69-3.47-9.69l5.95.61z" class="D"/><path d="M786.08 211.09c1.69 2.43 4.43 3.06 6.82 2.31a6.6 6.6 0 0 0 3.78-3.08 7.1 7.1 0 0 0 .31-.63c1.71-4.01 2.25-11.01-1.98-13.64a6.4 6.4 0 0 0-9.84 4.86c-.52 4.69-1.04 7.41.9 10.19z" class="H"/><g class="D"><path d="M791.99 203.41c-.09.37.08.72.33.76s.5-.23.56-.61-.09-.72-.33-.76-.5.23-.56.61zm4.26.73c-.09.37.09.72.33.76s.5-.23.56-.61-.09-.72-.33-.76-.5.25-.57.61z"/></g><path d="M794.86 204.09c.25 1.23.67 2.43 1.25 3.55-.59.29-1.27.3-1.87.03l.62-3.57z" fill="#d58745"/><g class="D"><path d="M790.9 201.8c.08.03.17.01.23-.05.41-.4.98-.59 1.55-.5.12.03.24-.04.27-.16s-.04-.24-.16-.27h0c-.71-.13-1.44.1-1.96.61-.09.08-.1.22-.02.32.03.03.06.05.09.06zm7.44 1.18c.04.02.08.03.13.03.12-.03.19-.16.16-.27-.19-.71-.7-1.28-1.38-1.53-.12-.04-.24.03-.28.15s.03.24.15.28c.53.21.93.67 1.08 1.22.03.06.09.1.15.12zm-8.78-7.29v2.09c-.72.28-1.22.99-1.01 1.84.45 1.82-.86 4.38-2.32 5.3 0 0 .05-.76-.6-.66s-.96 4.03.05 6.05c0 0-1.66-1.92-2.22-6.15-.51-3.92-.25-7.1.71-8.47h5.38z"/></g><path d="M782.49 204.37a4.5 4.5 0 0 0 2.15 2.67c1.38.74 2.42-.41 2.32-1.9-.1-1.32-.92-3.34-2.45-3.46s-2.42 1.29-2.02 2.69z" class="H"/><g class="D"><path d="M789.56 197.79s1.36 1.35 2.68.36c0 0 1.49 1.25 2.71.36 0 0 .67 1.13 1.76 1.26s1.1-.99 1.1-.99 1.72.99 2.36.53-.35-2.32-.35-2.32.81-.44.29-1.93-2.93-1.14-2.93-1.14.09-1.39-1.59-2.84-2.68.35-2.68.35-1.63-2.21-3.64-1.91-1.78 1.68-1.78 1.68-2.32-1.45-3.36 0 0 2.15 0 2.15-2.32.78-2.2 2.36 1.3 1.35 1.3 1.35-.67.75.84 1.39 2.92-.93 2.92-.93-.59.9.5 1.51 2.09-1.23 2.09-1.23zm4.6 11.28c-.54.46-1.32 1.42-1.32 1.42l-.3-.17c-1.34-.78-1.7-1.58-1.7-2.23 0-.36.12-.67.25-.91.14-.28.31-.44.31-.44.46.84 1.65 1.66 2.31 2.07l.45.27z"/></g><path d="M793.69 208.8l-.4.41c-1.26-.73-2.04-1.42-2.22-2.03.14-.28.31-.44.31-.44.46.84 1.65 1.66 2.31 2.07z" class="B"/><path d="M792.54 210.32c-1.34-.78-1.7-1.58-1.7-2.23a5 5 0 0 1 1.31 1.16c.28.37.37.74.38 1.08z" class="K"/><g class="C"><path d="M792.67 220.38s-8.18-5.56-10.78-5.88-2.14 2.94-2.14 2.94-2.01 0-1.24 2.47 11.88 3.84 15.98 2.62 6.54-3.53 5.86-5.7-2.58-.31-2.58-.31-1.1-2.05-2.69-1.57-2.42 5.43-2.42 5.43z"/><path d="M810.03 219.44a20.8 20.8 0 0 1-2.5 2.73 19.6 19.6 0 0 1-2.7 2.09l.05.31-.17-.23-1.76-2.53c-.74-1.19-1.42-2.42-1.72-3.44v-.01a3.4 3.4 0 0 1-.17-.89l-.68-.94.22-.26 1.8-2.11.39-.46.77 1.01s.99-.36 4.16 2.38c.81.7 1.64 1.58 2.31 2.36zm-76.81 141.92a20.6 20.6 0 1 0 0-41.21 20.6 20.6 0 1 0 0 41.21z"/></g><path d="M753.07 340.76c0 4.76-1.67 9.13-4.46 12.55-.84 1.03-1.78 1.98-2.82 2.83a15.9 15.9 0 0 1-1.03.79c-.96.7-2 1.31-3.08 1.82a19.7 19.7 0 0 1-8.47 1.91 19.6 19.6 0 0 1-9.99-2.71c-.76-.44-1.48-.93-2.16-1.46h-.01c-.03-.03-.07-.06-.11-.09-.8-.62-1.56-1.32-2.25-2.07-3.32-3.55-5.35-8.32-5.35-13.55a19.9 19.9 0 0 1 19.85-19.89 19.9 19.9 0 0 1 19.86 19.89z" class="B I"/><path d="M745.8 356.13l-1.03.79a19.3 19.3 0 0 1-3.08 1.82 19.7 19.7 0 0 1-8.47 1.91 19.6 19.6 0 0 1-9.99-2.71 18.5 18.5 0 0 1-2.16-1.46h-.01l-.11-.09.04-.13v-.01l.48-2.01.58-2.94c.44-2.64.69-5.5.6-8.41-.35-10.53 1.56-14.4 5.86-16.46.19-.09.39-.19.61-.28 1.01-.43 2.04-.51 3.03-.38 3.69.5 6.88 3.94 6.88 3.94s.71.98 1.68 2.85c1.74 3.36 4.3 9.61 4.94 18.16v.01a53.7 53.7 0 0 1 .15 5.43z" class="D"/><use href="#i" class="C"/><use href="#i" class="B G"/><path d="M734.2 353.38c-4.62-.59-6-2.57-6-2.57 1.89-1.78 1.54-4.41 1.06-6.05-.26-.91-.57-1.51-.57-1.51l5.56 1.04a16.1 16.1 0 0 0-.21 2.34 7 7 0 0 0 .16 1.72c.38 1.66 1.32 1.69 1.32 1.69.97 1.83-1.31 3.34-1.31 3.34z" class="N"/><path d="M734.04 346.63c-.01.72.05 1.28.16 1.72-2.21-.29-3.88-2.06-4.93-3.6-.26-.91-.57-1.51-.57-1.51l5.56 1.04a16.1 16.1 0 0 0-.22 2.34z" class="F G"/><path d="M733.11 328.88c4.83.18 6.29 2.83 6.46 7.83.21 6.25-1.33 10.63-7.32 9.07-8.14-2.11-7.16-17.2.86-16.9z" class="N"/><path d="M736.46 336.32s.62 1.29 1.33 2.06c0 0-.44.64-1.29.5l-.04-2.56z" fill="#d4827d"/><g class="D"><path d="M731.47 333.38c-.06 0-.12-.02-.17-.06-.1-.09-.12-.25-.02-.36.86-.98 2.29-.75 2.35-.74.14.02.23.15.21.29s-.15.23-.29.21c-.01 0-1.22-.19-1.89.57-.05.06-.12.09-.19.09zm7.56-.26c-.05 0-.1-.02-.15-.05-.92-.66-1.66-.44-1.69-.43-.13.04-.27-.03-.32-.17s.03-.27.16-.32c.04-.02 1-.32 2.14.5.11.08.14.24.06.35-.05.07-.13.1-.21.11zm-3.3 7.64c-.3.57-.62 1.66-.62 1.66l-.31-.04c-1.4-.19-1.99-.75-2.21-1.3-.12-.3-.13-.61-.11-.86.02-.29.11-.48.11-.48.68.55 1.97.83 2.67.95l.48.07z"/></g><path d="M735.25 340.69l-.2.49c-1.32-.19-2.22-.5-2.58-.95.02-.29.11-.48.11-.48.68.55 1.97.83 2.67.95z" class="B"/><path d="M734.79 342.38c-1.4-.19-1.99-.75-2.21-1.3.48.09 1.04.24 1.51.53.36.22.57.5.7.78z" class="K"/><path d="M727.53 336.84s2.41-3.89 2.18-6.98c0 0 9.72-3.56 9.83 6.19 0 0 1.26-8.61-7.04-9.11-8.29-.5-8.71 11.67-4.56 15.46 0 0-1.9-3.13-.41-5.56z" class="D"/><path d="M728.29 337.89c0-.78-.76-2.13-2.21-2.02-1.5.11-2.33 3.16 1.37 4.04.53.13.85-.39.85-2.01z" class="N"/><g class="D"><path d="M730.41 325.68c2.61-.73 9.58-.82 11.23 6.4l-.97.49s-2.32-1.26-5.22-1.55c0 0-.58-1.07-1.36-1.94a10.8 10.8 0 0 0 0 1.84s-4.54.67-6.58 2.52c-3.19 2.91-3.39 4.75-3.39 4.75s-2.21-10.14 6.29-12.5z"/><path d="M742.31 332.01c-.07 0-.14-.05-.17-.12-.83-2.48-2.24-4.23-4.2-5.2-3.58-1.77-7.82-.33-7.86-.31-.09.03-.19-.02-.22-.11s.02-.19.11-.22c.04-.02 4.42-1.5 8.13.33 2.05 1.01 3.52 2.83 4.38 5.4.03.09-.02.19-.11.22-.02.01-.04.01-.06.01zm-10.11 3.81s1.13-.96 1.67.33c0 0-.83-.43-1.67-.33zm5.36.72s.63-1.31 1.46-.38c0 0-.95.03-1.46.38z"/></g><path d="M949.67 394.21a25.6 25.6 0 0 0 0-36.11c-9.95-9.97-26.09-9.97-36.05 0a25.6 25.6 0 0 0 0 36.11c9.95 9.97 26.09 9.97 36.05 0z" class="C"/><path d="M956.42 376.15c0 4-.95 7.79-2.64 11.15a24.9 24.9 0 0 1-1.1 1.96 21.5 21.5 0 0 1-.98 1.45c-1.45 2.01-3.19 3.78-5.17 5.28-.45.34-.91.66-1.39.98a24.5 24.5 0 0 1-6.21 2.92 24.6 24.6 0 0 1-7.29 1.1c-3.65 0-7.12-.79-10.24-2.22a37.3 37.3 0 0 1-1.19-.58v-.01a24.8 24.8 0 0 1-6-4.4c-1.73-1.71-3.2-3.67-4.37-5.82a25.7 25.7 0 0 1-.91-1.89h-.01a24.7 24.7 0 0 1-2.06-9.91c0-13.68 11.12-24.82 24.78-24.82s24.77 11.14 24.77 24.82z" class="B I"/><path d="M919.28 375.17c-.32.61-1.53 1.86-1.53 1.86l-2.14 10.13-1.4 6.61c-1.72-1.71-3.2-3.67-4.37-5.82l.53-1.66 3.38-10.67c.23-.96-.61-5.65-.41-6.51.2-.86 4.47-1.87 5.4-1.86s.85 7.31.54 7.92z" class="M"/><use href="#j" class="C"/><use href="#j" class="E F"/><use href="#k" class="C"/><use href="#k" class="E F"/><path d="M946.53 395.98l-1.39.98a24.5 24.5 0 0 1-6.21 2.92 24.6 24.6 0 0 1-7.29 1.1c-3.65 0-7.12-.79-10.24-2.22a37.3 37.3 0 0 1-1.19-.58v-.01c.04-.21.06-.41.09-.61.41-.64.88-1.3 1.41-1.96 2.55-3.26 6.14-6.56 7.96-8.15.51.63 1.37 1.16 2.77 1.44 2.34.46 5.01-.64 7.23-1.96 1 .99 2.5 2.57 3.88 4.29a22.7 22.7 0 0 1 2.63 3.96 12.3 12.3 0 0 1 .34.79z" class="B J"/><path d="M942.1 384.51s-2.9 3.59-8.44 3.84c-4.8.21-3.19-3.59-3.19-3.59 1.76-.46 2.74-1.29 3.23-2.3.62-1.29.44-2.89.04-4.46l-.09-.33 7.01-6.25c-.65 3.76-1.23 10.65 1.44 13.09z" class="M"/><path d="M939.51 376.94c-.37 2.41-3.3 4.79-5.81 5.53.62-1.29.44-2.89.04-4.46l5.8-4.46a9.1 9.1 0 0 1-.03 3.39z" class="F G"/><path d="M934.97 363.29c1.66 1.88.16 3.97-5.32 6.43-1.24-2.87-.36-7.62 1.41-8.41s2.45.35 3.91 1.98z" class="D"/><path d="M942.66 369.27c-1.47 4.87-2.09 7.79-5.18 9.74-4.65 2.93-10.21-.78-10.22-6 0-4.68 2.4-11.87 7.7-12.68 3.78-.6 7.33 1.98 7.93 5.76.17 1.06.09 2.15-.24 3.18z" class="M"/><g class="D"><path d="M934.98 368.87c-.09.4-.39.68-.65.61s-.4-.44-.3-.84.38-.68.64-.62.37.44.3.84zm-4.57-1.08c-.1.4-.39.68-.65.61s-.4-.44-.3-.84.39-.68.65-.61.4.44.31.84z"/></g><path d="M931.85 368.34c-.77 1.12-1.69 2.12-2.73 2.99.57.84 1.84.81 1.84.81l.9-3.8z" fill="#892b29"/><g class="D"><path d="M936.56 367.73c.05.02.11.02.16 0 .12-.05.18-.19.13-.32a2.4 2.4 0 0 0-1.69-1.43c-.13-.02-.25.06-.28.18-.02.15.07.27.2.3a1.9 1.9 0 0 1 1.32 1.14c.03.06.09.11.16.13zm-7.87-1.97c.09.02.19-.01.25-.08.38-.49.96-.77 1.58-.75.13.01.25-.08.27-.22s-.08-.25-.21-.27c-.78-.03-1.53.31-2.01.93-.08.1-.07.25.03.34h0c.03.02.06.04.09.05zm13.04-1.34c-2.49.24-2.8 2.8-.45 8.33 2.86-1.27 5.43-5.35 4.67-7.13s-2.04-1.41-4.21-1.2z"/></g><path d="M944.07 373.78c-.63 1.12-1.67 1.94-2.9 2.28-1.63.44-2.44-1.02-1.97-2.56.42-1.38 1.78-3.29 3.41-3.05s2.23 1.95 1.47 3.32z" class="M"/><g class="D"><path d="M936.95 362.36s-.52 5.12 4.14 6.65 6.43-1.15 6.43-1.15-.76-.08-1.19-.2c0 0 2-2.04 1.2-4.71s-4.91-6.29-8.73-5.94c0 0-3.03-2.13-6.8-1.05s-4.25 5.39-4.25 5.39.5-2.57 2.21-2.88c0 0-3.22 4.73-.73 6.84 0 0 1.59-5.06 7.73-2.93zm-6.87 11.63c.42.59.95 1.74.95 1.74l.34-.09c1.52-.43 2.08-1.13 2.25-1.78a2.1 2.1 0 0 0-.01-.97c-.07-.31-.19-.52-.19-.52-.67.71-2.06 1.22-2.81 1.46l-.52.16z"/></g><path d="M930.59 373.84l.29.51c1.43-.41 2.38-.89 2.71-1.45-.07-.31-.19-.52-.19-.52-.67.71-2.06 1.22-2.81 1.46z" class="B"/><path d="M931.36 375.64c1.52-.43 2.08-1.13 2.25-1.78-.51.17-1.11.42-1.59.81-.37.3-.56.64-.65.97z" class="K"/><path d="M864.15 300.62s5.66-5.66 7.48-9.69c0 0-.69-2.25-.04-3.42s4.41-4.51 5.42-3.8 2.46 3.52 1.86 4.69-4.3 3.59-4.3 3.59-4.58 9.19-7.42 11.26-3-2.63-3-2.63z" class="H"/><use href="#l" class="D"/><use href="#l" opacity=".05" class="B"/><path d="M869.84 430.95l-4.33.76-1.77-5.9-1.62-5.42 4.99-1.74 1.45 6.51 1.28 5.79z" class="H"/><path d="M864.53 431.6c-.07-.48 5.85-1.14 5.85-1.14s4.25 3.03 7.9 3.24 2.06 2.65-1.85 3.34l-9.69 1.71c-2.78.49-1.46-2.19-2.22-7.15z" class="D"/><path d="M873.3 431.45c-.81 0-1.84-.27-2.12-.35-.02 0-.04-.01-.05-.02s-.03-.03-.04-.04h0c-.01-.01-.01-.02-.02-.04h0c-.01-.02-.01-.05 0-.07.01-.07.26-1.52 1-1.99.23-.15.49-.19.76-.11.29.08.45.22.47.43.04.31-.33.69-.76 1.03.49-.13 1-.21 1.34-.09.18.07.31.18.38.34.15.33.07.54-.03.65-.17.2-.52.27-.93.27zm-1.61-.54c.93.21 2.06.35 2.29.07.02-.02.08-.1-.02-.32-.04-.08-.1-.14-.2-.17-.46-.17-1.44.16-2.07.42zm.87-1.81c-.12 0-.23.03-.33.1-.4.26-.66.96-.78 1.44.81-.48 1.57-1.09 1.54-1.35-.01-.08-.16-.13-.24-.16-.06-.02-.12-.03-.18-.03z" class="C"/><path d="M868.58 425.3l-4.82.63-1.63-5.48 4.99-1.77 1.47 6.61z" class="F G"/><path d="M840.94 432.81h-4.39l-.72-6.12-.65-5.61 5.22-.85.29 6.66.26 5.92z" class="H"/><path d="M835.61 432.52c.01-.49 5.96-.11 5.96-.11s3.66 3.73 7.22 4.56 1.57 2.97-2.41 2.97h-9.83c-2.83 0-1.06-2.41-.94-7.43z" class="D"/><path d="M844.71 433.94c-.83 0-2.15-.61-2.47-.75-.02-.01-.04-.02-.05-.04h0c-.01-.01-.01-.02-.02-.03-.02-.04-.02-.08-.01-.12.02-.06.52-1.45 1.33-1.78.26-.11.51-.1.77.02.27.13.4.3.39.5-.02.31-.44.63-.93.88.5-.05 1.02-.03 1.34.15.17.1.27.23.32.4.09.35-.03.54-.14.63-.12.1-.31.14-.52.14zm-1.92-.85c.88.37 1.97.7 2.25.47.03-.02.1-.08.04-.31-.02-.09-.08-.16-.17-.21-.43-.25-1.45-.09-2.12.05zm1.06-1.64c-.08 0-.16.02-.24.05-.44.18-.82.83-1.02 1.28.88-.33 1.73-.8 1.75-1.07 0-.08-.13-.16-.21-.2-.09-.04-.18-.07-.27-.07z" class="C"/><path d="M840.68 427.02l-4.86-.21-.65-5.68 5.22-.88.29 6.77z" class="F G"/><g class="C"><path d="M868.99 421.86l-7.11 1.25c-7.18-17.89-12.29-32.82-15.89-45.21a280.9 280.9 0 0 1-4.62-17.91l.32 19.47v44.23h-7.22c-17.58-83.81-5.12-102.97-5.12-102.97l21.02-3.59c.8 3.14 1.4 8.23 1.76 11.77l.95 6.95 8.22 42.44 7.69 43.56z"/><path d="M860.76 422.24l8.82-2.93-.12 3.75-7.3 2.33-1.41-3.16zm-27.24.4l9.2-1.35-.77 3.68-7.59 1.02-.84-3.35z"/></g><g class="D"><path d="M848.47 274.87c-.03 0-.06-.01-.09-.03-2.68-1.62-5.07-7.57-5.17-7.82-.04-.09.01-.19.1-.23s.19.01.23.1c.03.06 2.45 6.09 5.03 7.65.08.05.11.16.06.25-.03.06-.09.09-.15.09z"/><path d="M826.9 259.24s1.05-3.56 8.03-4.16 10.46 6.27 8.81 11.38c0 0 1.47 6.96 4.29 9 0 0-13.43 6.07-20.22 6.11-1.51.01-4.74-7.49-5.15-12.89-.4-5.2 1.17-9.28 4.25-9.44z"/><use href="#m"/></g><g class="B"><use href="#m" class="E"/><path d="M845.82 316.15l-4.69.42.32 3.56 4.69-.42-.32-3.56z"/></g><g class="C"><path d="M836.55 316.27l-1.06.05.28 5.42 1.06-.05-.28-5.42zm13.08-1.42l-1.06.05.28 5.42 1.06-.06-.28-5.42z"/></g><path d="M850.87 315.76l-21.45 1.85-.91-9.13a73.5 73.5 0 0 0-1.37-6.62l-1.86-6.59-.12-.41c-.44-1.42-3.58-.33-3.87-2.04-1.24-7.58 6.94-8.14 9.95-8.64 3.18-.56 6.4-.9 9.63-1.01a99.4 99.4 0 0 1 8.96.43s.68.16 1.11 4.59c.39 4.15.78 12.45-.09 27.56z" class="D"/><path d="M839.11 287.91c-5.28-.68-6.87-2.93-6.87-2.93 3.35-3.16.57-8.65.57-8.65l6.36 1.19a18.7 18.7 0 0 0-.25 2.68c-.05 3.86 1.7 3.9 1.7 3.9 1.12 2.09-1.51 3.81-1.51 3.81z" class="H"/><path d="M839.17 277.52c-.17 1.05-.24 1.93-.25 2.68-4.3 0-6.11-3.87-6.11-3.87l6.36 1.19z" class="F G"/><path d="M834.29 259.71c5.4-1.22 7.79 1.28 9.45 6.75 2.07 6.84 1.65 12.14-5.44 12.18-9.63.06-12.98-16.9-4.01-18.93z" class="H"/><path d="M840.18 266.95s1.07 1.24 2.08 1.89c0 0-.3.84-1.29.93l-.79-2.82z" fill="#d58745"/><g class="D"><use href="#n"/><path d="M835.92 266.65l.87-.62s-.27.93-.87.62zm6.32-.86c.11.44-.04.86-.33.93s-.62-.22-.73-.67.04-.86.33-.93.62.22.73.67z"/><path d="M841.38 265.18l.87-.62s-.28.93-.87.62zm-7.66-.03c-.04 0-.08-.01-.11-.03-.13-.06-.18-.22-.12-.35.65-1.31 2.29-1.48 2.36-1.49.14-.01.27.09.28.23s-.09.27-.23.28c-.01 0-1.43.15-1.95 1.2-.05.09-.14.14-.23.14zm6.03-2.47c-.08 0-.17-.04-.22-.12-.08-.12-.04-.28.08-.36.04-.03 1-.63 2.49-.07.13.05.2.2.15.33s-.2.2-.33.15c-1.23-.47-1.99 0-2.02.02-.04.03-.09.04-.14.04zm.91 9.4c-.17.72-.21 2.02-.21 2.02l-.36.05c-1.61.2-2.42-.24-2.83-.79a2.2 2.2 0 0 1-.37-.92c-.05-.32-.02-.57-.02-.57.92.4 2.43.34 3.24.27l.55-.06z"/></g><path d="M840.11 272.13l-.08.59c-1.51.18-2.61.11-3.14-.29-.05-.32-.02-.57-.02-.57.91.4 2.43.34 3.24.27z" class="B"/><path d="M840.1 274.14c-1.61.2-2.42-.24-2.83-.79a5.2 5.2 0 0 1 1.83.13c.47.13.78.39 1 .66z" class="K"/><path d="M830.45 270.15s1.52-5.01.36-8.35c0 0 9.71-6.8 12.7 3.95 0 0-1.14-9.89-10.47-8-9.32 1.89-6.22 15.46-.5 18.43 0 0-3.02-2.9-2.08-6.03z" class="D"/><path d="M831.59 271.09c-.23-.86-1.47-2.13-3.04-1.59-1.63.56-1.65 4.18 2.7 4.06.62-.02.83-.68.34-2.47z" class="H"/><path d="M830.8 261.8s5.6-2.06 8.75-.51c0 0-3.4-3.05-9.15-.18l.4.69z" class="D"/><path d="M827.33 285.56s6.21 5.03 11.98 4.95 7.81-6.58 7.81-6.58-8.96-2.65-19.79 1.63z" class="H"/><path d="M845.98 377.91c-1.94-6.69-3.46-12.63-4.62-17.91 0 0 .12-10.25 1.36-18.67 0 0 3.08 24.09 3.26 36.58z" class="F G"/><path d="M809.98 296.72s-4.25-6.78-5.13-11.11c0 0 1.17-2.04.8-3.32s-3.3-5.38-4.43-4.92-3.18 2.88-2.86 4.16 3.39 4.46 3.39 4.46 2.41 9.97 4.72 12.63 3.51-1.89 3.51-1.89z" class="H"/><use href="#o" class="D"/><use href="#o" opacity=".05" class="B"/><g class="D"><path d="M800.45 290.02l5.34-3.2.85 1.38-5.03 4.46-1.15-2.63zm67.35 4.08l4.32 5.35.75-1.68-3.88-4.52-1.19.85z"/></g><use href="#p" class="C"/><use href="#p" class="E F"/><path d="M869.68 286.53l6.83-8.32c.24-.29.67-.32.94-.06l3.04 2.87c.25.23.27.61.06.88l-6.93 8.51c-.25.3-.7.32-.96.04l-2.94-3.07c-.23-.24-.24-.6-.03-.85z" class="C"/><path opacity=".6" d="M876.78 278.54l3.38 3.26-6.61 8.13-3.29-3.45 6.51-7.94z" class="B"/><path d="M991.56 497.75a1079.5 1079.5 0 0 0-296.87 0c8.53-14.37 12.8-20.78 21.33-32.57-8.54-11.85-12.8-18.3-21.33-32.74 99.61 13.68 197.27 13.68 296.87 0a282.8 282.8 0 0 1-27.78 32.74c11.12 11.45 16.68 17.8 27.78 32.57z" fill="#0668e1"/><path d="M792.58 467.28a1.8 1.8 0 0 0-.11-.65c-.07-.2-.2-.38-.39-.54-.19-.17-.46-.33-.81-.49s-.79-.33-1.35-.5c-.61-.2-1.19-.42-1.74-.67a7.2 7.2 0 0 1-1.45-.86 3.9 3.9 0 0 1-.98-1.16 3.2 3.2 0 0 1-.35-1.53c0-.56.12-1.07.37-1.53.25-.46.59-.86 1.04-1.19.44-.33.97-.59 1.58-.77.61-.18 1.28-.27 2.01-.27 1 0 1.87.18 2.61.54s1.32.85 1.73 1.48c.41.63.62 1.34.62 2.14h-2.76c0-.39-.08-.74-.25-1.04a1.7 1.7 0 0 0-.74-.71c-.33-.17-.74-.26-1.24-.26-.48 0-.88.07-1.21.22-.32.14-.56.34-.72.58-.16.24-.24.51-.24.82 0 .23.06.44.17.62.12.19.29.36.52.52a4.6 4.6 0 0 0 .84.45 12 12 0 0 0 1.16.42 12.4 12.4 0 0 1 1.94.75c.56.28 1.03.59 1.41.94a3.5 3.5 0 0 1 .85 1.18 3.7 3.7 0 0 1 .29 1.49 3.5 3.5 0 0 1-.34 1.58c-.23.46-.56.86-.99 1.18a4.7 4.7 0 0 1-1.55.73 7.5 7.5 0 0 1-2.01.25c-.67 0-1.33-.09-1.98-.26a6 6 0 0 1-1.77-.81c-.53-.36-.95-.82-1.26-1.37s-.47-1.21-.47-1.98h2.79a2.6 2.6 0 0 0 .2 1.07c.13.29.31.53.55.7.24.18.52.31.85.39a4.7 4.7 0 0 0 1.1.12c.48 0 .88-.07 1.19-.2.32-.14.55-.33.7-.57.15-.24.23-.51.23-.82zm7.33-6.5v10.04h-2.68v-10.04h2.68zm-2.85-2.62c0-.39.14-.71.41-.97s.64-.38 1.1-.38c.45 0 .81.13 1.08.38.28.25.42.58.42.97s-.14.71-.42.96c-.27.25-.63.38-1.08.38-.46 0-.82-.13-1.1-.38s-.41-.57-.41-.96zm11.41 2.62h2.42v9.7c0 .92-.2 1.69-.61 2.33-.4.64-.97 1.13-1.69 1.46-.72.33-1.57.5-2.52.5-.42 0-.87-.06-1.34-.17-.46-.11-.91-.29-1.34-.52-.42-.23-.77-.53-1.06-.89l1.18-1.58c.31.36.67.64 1.08.83a3 3 0 0 0 1.36.31c.48 0 .89-.09 1.22-.27.33-.17.59-.43.77-.77.18-.33.27-.74.27-1.21v-7.4l.26-2.32zm-6.75 5.14v-.19a7.3 7.3 0 0 1 .28-2.09c.19-.63.46-1.17.81-1.62s.78-.8 1.28-1.05a3.8 3.8 0 0 1 1.7-.37c.67 0 1.23.12 1.68.37s.82.6 1.11 1.06c.29.45.52.99.68 1.61.17.61.3 1.28.39 2.01v.43c-.09.7-.23 1.35-.42 1.95a6 6 0 0 1-.73 1.58c-.3.44-.68.79-1.13 1.04-.44.25-.98.37-1.6.37s-1.18-.13-1.68-.38c-.5-.25-.92-.61-1.27-1.07s-.62-1-.82-1.61a7 7 0 0 1-.28-2.02zm2.67-.19v.19c0 .41.04.8.12 1.16a3.2 3.2 0 0 0 .37.95c.17.27.39.49.64.64.26.15.57.22.92.22.49 0 .89-.1 1.2-.31.31-.21.54-.5.7-.86a3.7 3.7 0 0 0 .27-1.26v-1.22c-.01-.39-.07-.74-.16-1.05-.09-.32-.22-.58-.39-.81s-.38-.4-.65-.52-.58-.19-.95-.19c-.35 0-.66.08-.92.24-.25.15-.47.37-.64.64-.17.27-.29.59-.38.96a5.1 5.1 0 0 0-.13 1.19zm11.2-2.8v7.9h-2.67v-10.04h2.5l.17 2.14zm-.39 2.52h-.72a6.5 6.5 0 0 1 .29-2c.19-.6.46-1.11.81-1.53.35-.43.76-.75 1.23-.97.48-.23 1.02-.34 1.61-.34a3.9 3.9 0 0 1 1.29.2c.39.14.72.35 1 .65.28.3.5.69.65 1.18.15.49.23 1.09.23 1.79v6.4h-2.69v-6.41c0-.44-.06-.79-.19-1.04s-.31-.42-.55-.52c-.24-.11-.53-.16-.87-.16-.36 0-.67.07-.94.21-.26.14-.48.34-.65.59a2.8 2.8 0 0 0-.38.87c-.09.33-.13.69-.13 1.08zm13.84 3.11v-4.47c0-.32-.05-.6-.16-.83-.11-.23-.27-.42-.49-.55s-.5-.19-.85-.19c-.3 0-.55.05-.77.16-.22.1-.38.24-.5.44-.12.19-.18.4-.18.66h-2.67c0-.43.1-.83.3-1.22s.49-.72.86-1.01c.38-.3.83-.53 1.34-.7a5.8 5.8 0 0 1 1.76-.25c.78 0 1.47.13 2.08.39s1.08.65 1.43 1.17a3.4 3.4 0 0 1 .53 1.95v4.3c0 .55.03 1 .1 1.35a3.6 3.6 0 0 0 .3.91v.16h-2.7c-.13-.27-.23-.61-.3-1.02a8.4 8.4 0 0 1-.09-1.24zm.35-3.85l.02 1.51h-1.49a3.1 3.1 0 0 0-.92.12 1.7 1.7 0 0 0-.64.34c-.17.14-.29.31-.37.5-.07.19-.11.4-.11.63s.05.44.16.62.26.32.46.43c.2.1.43.15.7.15.4 0 .75-.08 1.05-.24s.53-.36.69-.59c.17-.24.25-.46.26-.67l.7 1.13a4.6 4.6 0 0 1-.41.79c-.17.27-.38.53-.64.77a3.3 3.3 0 0 1-.94.58c-.37.15-.8.22-1.3.22a3.9 3.9 0 0 1-1.74-.38c-.51-.26-.92-.62-1.22-1.07a2.8 2.8 0 0 1-.45-1.56c0-.53.1-.99.3-1.4s.49-.75.87-1.03a4.1 4.1 0 0 1 1.46-.64c.58-.15 1.25-.22 2.02-.22h1.55zm7.22-8.14v14.25h-2.68v-14.25h2.68zm12.64.74v13.51h-2.77v-13.51h2.77zm4.16 0v2.18h-11.02v-2.18h11.02zm4.03-.74v14.25h-2.67v-14.25h2.67zm-.38 8.88h-.73a6.8 6.8 0 0 1 .28-1.93c.18-.59.44-1.11.77-1.54.33-.44.73-.78 1.2-1.02.47-.24.99-.36 1.56-.36.5 0 .94.07 1.35.21a2.5 2.5 0 0 1 1.05.67 3 3 0 0 1 .69 1.2c.16.5.24 1.1.24 1.8v6.35h-2.69v-6.36c0-.44-.06-.79-.19-1.05-.12-.26-.31-.44-.55-.55-.24-.11-.53-.17-.87-.17a2.1 2.1 0 0 0-.98.21c-.27.14-.48.34-.64.59-.16.25-.28.54-.35.87s-.11.69-.11 1.08zM870.1 471a5.6 5.6 0 0 1-2.1-.37 4.6 4.6 0 0 1-1.58-1.05c-.43-.45-.75-.96-.98-1.55a5.2 5.2 0 0 1-.34-1.89v-.37a6.4 6.4 0 0 1 .33-2.09 4.9 4.9 0 0 1 .93-1.64 4.1 4.1 0 0 1 1.49-1.07 4.9 4.9 0 0 1 1.97-.38c.71 0 1.34.12 1.89.35a3.7 3.7 0 0 1 1.38 1c.38.43.66.95.85 1.56.19.6.29 1.27.29 2v1.11h-7.98v-1.78h5.35v-.2c0-.37-.07-.7-.2-.99-.13-.3-.33-.53-.59-.71s-.61-.26-1.02-.26c-.35 0-.66.08-.91.23a1.8 1.8 0 0 0-.62.65 3.5 3.5 0 0 0-.35.98 6.2 6.2 0 0 0-.11 1.23v.37c0 .4.06.77.17 1.11.12.34.28.63.49.88.22.25.48.44.78.58.31.14.66.2 1.05.2.48 0 .93-.09 1.35-.28a2.9 2.9 0 0 0 1.09-.86l1.3 1.41c-.21.3-.5.59-.86.87a4.6 4.6 0 0 1-1.3.69c-.51.17-1.08.26-1.73.26zm5.21-5.1v-.19a6.3 6.3 0 0 1 .32-2.03 4.7 4.7 0 0 1 .92-1.62 4.1 4.1 0 0 1 1.48-1.07c.59-.26 1.26-.39 2.02-.39a5 5 0 0 1 2.03.39 4.1 4.1 0 0 1 1.49 1.07 4.6 4.6 0 0 1 .93 1.62c.21.62.32 1.3.32 2.03v.19a6.3 6.3 0 0 1-.32 2.03 4.7 4.7 0 0 1-.93 1.62c-.4.46-.9.81-1.48 1.07s-1.26.38-2.02.38-1.44-.13-2.03-.38a4.2 4.2 0 0 1-1.49-1.07 4.8 4.8 0 0 1-.92-1.62c-.21-.62-.32-1.3-.32-2.03zm2.67-.19v.19c0 .42.04.81.11 1.18s.19.69.35.96c.17.27.38.49.65.64s.59.23.97.23c.37 0 .69-.08.96-.23s.48-.37.64-.64c.16-.28.28-.6.35-.96a5.5 5.5 0 0 0 .12-1.18v-.19a5.3 5.3 0 0 0-.12-1.15c-.07-.37-.19-.69-.36-.97a1.8 1.8 0 0 0-.64-.67c-.27-.16-.59-.24-.97-.24s-.7.08-.97.24a1.9 1.9 0 0 0-.64.67c-.16.28-.28.6-.35.97a5.6 5.6 0 0 0-.11 1.15zm11.15-2.74v7.85h-2.67v-10.04h2.51l.16 2.19zm3.02-2.25l-.05 2.48-.47-.05-.49-.03c-.38 0-.71.05-.98.15-.27.09-.5.23-.69.42-.18.19-.32.41-.41.68s-.14.57-.15.91l-.54-.17a7.7 7.7 0 0 1 .19-1.79c.13-.55.32-1.03.57-1.44.25-.41.56-.72.93-.95s.78-.33 1.25-.33c.15 0 .3.01.45.04.15.02.28.05.38.08zm4.41 8.97l2.66-8.91h2.87l-4.04 11.55a6.3 6.3 0 0 1-.35.82 3.3 3.3 0 0 1-.58.83c-.24.27-.55.48-.92.65-.37.17-.81.25-1.35.25a3.4 3.4 0 0 1-.62-.05l-.58-.13v-1.96h.21l.21.01a2.6 2.6 0 0 0 .86-.12c.22-.08.4-.21.54-.37.14-.16.24-.37.32-.63l.75-1.94zm-1.11-8.91l2.18 7.27.38 2.83-1.82.19-3.61-10.3h2.87z" class="B"/></g></g><rect x="1" y="1" width="1138" height="638" rx="15" stroke="#0668e1" stroke-width="2"/><defs><filter id="D" x="-4.75" y="56.41" width="332.5" height="98.56" filterUnits="userSpaceOnUse" color-interpolation-filters="sRGB"><feFlood flood-opacity="0" result="A"/><feColorMatrix in="SourceAlpha" values="0 0 0 0 0 0 0 0 0 0 0 0 0 0 0 0 0 0 127 0" result="B"/><feOffset dy="1.78125"/><feGaussianBlur stdDeviation="2.38"/><feComposite in2="B" operator="out"/><feColorMatrix values="0 0 0 0 0 0 0 0 0 0 0 0 0 0 0 0 0 0 0.3 0"/><feBlend in2="A"/><feBlend in="SourceGraphic"/></filter><linearGradient id="E" x1="305.21" y1="465.52" x2="296.87" y2="65.26" gradientUnits="userSpaceOnUse"><stop stop-color="#ddecff"/><stop offset="1" stop-color="#eaf3ff"/></linearGradient><linearGradient id="F" x1="367.64" y1="207.09" x2="792.65" y2="606.15" gradientUnits="userSpaceOnUse"><stop stop-color="#e0eeff"/><stop offset="1" stop-color="#f9f9f9"/></linearGradient><linearGradient id="G" x1="26.45" y1="343.58" x2="329.1" y2="581.48" gradientUnits="userSpaceOnUse"><stop stop-color="#d6e8ff"/><stop offset="1" stop-color="#cfe4ff"/></linearGradient><clipPath id="H"><rect width="1140" height="640" rx="16" class="B"/></clipPath><clipPath id="I"><path transform="translate(665 141.5)" d="M0 0h356.25v356.25H0z" class="B"/></clipPath><path id="J" d="M830.94 177c0 2.12-1.72 3.83-3.83 3.83s-3.83-1.72-3.83-3.83 1.72-3.83 3.83-3.83 3.83 1.72 3.83 3.83z"/><path id="K" d="M836.71 354.63a59 59 0 0 0 5.7.19c16.11-.24 30.84-7.14 41.29-18.25 8.66-9.21 14.38-21.31 15.51-34.89l.08-1.05a57.8 57.8 0 0 0-2.46-20.88h0c-6.25-20.09-23.19-35.78-44.69-39.77a58.9 58.9 0 0 0-5.88-.78c-4.81-.4-9.53-.2-14.09.55-13.5 2.19-25.59 9.09-34.33 19.09a57.7 57.7 0 0 0-14.07 33.31 57.8 57.8 0 0 0 1.78 19.84c6.17 22.91 26.16 40.58 51.17 42.65z"/><path id="L" d="M798.11 311.04c-.19 1.08-1.56 1.46-2.66 1.6l-4.97.62c-.78-2.06-3.22-2.08-4.93-1.27 6.17 22.91 26.16 40.58 51.17 42.65 1.92.16 3.81.22 5.69.19.03-.05.06-.09.09-.14.86-1.52-.39-2.86-1.06-4.11-.15-.28-1.57-3.87-1.1-3.88a15.3 15.3 0 0 1-4.51-.58c-.11-.03-.23-.07-.29-.17-.14-.24.19-.47.46-.53.68-.16 1.39-.2 2.06-.4s1.33-.61 1.59-1.26.07-1.4.22-2.09c.18-.84.87-1.5 1.64-1.87.75-.36 1.59-.49 2.39-.64-1.75-.95-.48-2.94-1.85-4.26-.44-.43-1.08-.95-.81-1.5.26-.52 1.18-.52 1.3-1.09.08-.4-.34-.73-.74-.82s-.83-.06-1.19-.26c-.5-.28-.67-1.02-.34-1.49.3-.42.85-.55 1.31-.79s.87-.8.59-1.24c-.06-.1-.16-.18-.26-.25-.74-.46-1.71-.07-2.44.41s-1.46 1.1-2.33 1.09c-.2-.33-.06-.81.29-.98.12-.06.26-.09.35-.18.2-.21.05-.55-.09-.8a5.2 5.2 0 0 1-.4-3.98l5.3.1c.04-.4.09-.63.51-.75-1.18-1.42-2.48-2.73-3.53-4.28-.12-.18-.26-.38-.47-.46-.22-.08-.46 0-.69-.04-.76-.11-.89-1.15-.81-1.92-.11-.23-.48-.13-.62.08s-.17.49-.35.68c-.26.28-.72.25-1.07.12-1.24-.48-1.9-2.09-1.35-3.3.07-.14.15-.29.29-.37.3-.17.67.04 1.01.1 1.35.24 1.15-1.25.82-1.96-.44-.96-1.76-1.58-2.72-1.82-1.12-.29-8.58-1.71-7.35-4.14.11-.23.34-.38.57-.49.71-.31 1.53-.22 2.28-.43s1.47-.99 1.15-1.69c-.13-.28-.4-.48-.55-.75-.42-.76.23-1.74-.07-2.55-.14-.37-.45-.65-.65-1s-.23-.86.11-1.07c.38-.23.9.11 1.31-.07.43-.19.39-.89.01-1.16s-.93-.17-1.32.1c-.2.14-.39.32-.64.35-.43.06-.76-.37-.98-.75l-1.06-1.81c-.4.01-.7.37-.84.75s-.16.78-.32 1.16c-.75 1.79-3.47 1.57-3.12 4.02.73-.09 1.41.74 1.18 1.44-.28.87-1.58 1.34-1.4 2.23.06.31.31.56.36.88.14.86-1.2 1.18-1.77 1.38-1.9.65-2.03-.6-3.68-.67-.75-.03-1.43.47-2.18.56-.69.07-1.38-.22-2.07-.18-1.91.11-.95 2.69-.81 3.82-1.02-.68-2.39.11-3.21 1.03-1.25 1.41-1.13 1.16-2.79 1.23-.44.02-.9.23-1.07.63-.31.7.35 1.45.36 2.21.01.37-.13.73-.1 1.09.09.96 1.22 1.37 1.91 2.04.6.59.88 1.48.73 2.31-.49.03-.98 0-1.46-.1l-.86-1.66c-.25-.49-.52-1-.97-1.32-.25-.18-.55-.31-.73-.56-.36-.5-.07-1.18.02-1.78.21-1.47-.53-3.96-.89-5.42-.38-1.56-1.42-2.17-1.8-3.61-.07-.25-.42-.34-.65-.21s-.35.39-.41.65c-.15.59-.09 1.23.16 1.78-.33-.73-2.17 1.19-2.28 1.55-.18.59.21 1.44.2 2.06-.04 1.53-.41 2.39-1.99 1.26-.61-.43-1.38-.94-2.02-.56.14.42-.14.89-.53 1.08s-.86.18-1.29.1c-.29-.06-.59-.15-.78-.38-.1-.12-.16-.28-.29-.38-.41-.32-.92.23-1.14.7"/><path id="M" d="M868.09 265.49c.32.5-.02 1.16-.38 1.63s-.79 1.02-.63 1.6l2.06.19c.13.01.27.03.36.13s.07.25.06.38l-.16 1.32c-.43.34-.85-.73-1.39-.62-.24.05-.36.3-.49.51-1.12 1.75-3.06.44-4.11-.47-1.21-1.06-2.96-1.12-4.57-1.14-.57-.01-1.21.01-1.62.42-.4.4-.42 1.03-.62 1.56-.35.92-1.23 1.53-1.73 2.38-1.75 2.97 1.4 5.26 4.08 4.45 1.39-.42 1.15-.66 2.57-.25.59.17 1.32.02 1.68.68.38.7-.15 1.62-.97 1.61-.8-.01-1.56.12-2.28-.26.27.94-.03 2.01-.1 3.01-.91-.21-1.81.91-1.4 1.75.45.01 1.06.18 1.03.63-.01.13-.08.25-.16.36-.31.45-.72.84-.99 1.32-.42.74-.41 2.96-1.47 3.22-.19.05-.39.03-.57.09-.39.13-.61.59-.52.99s.44.71.84.81c.26.07.54.06.8.15 1.37.48.17 1.83.5 2.5.16.32 2.44 1.77 2.73 1.82-.81.55-1.51 1.42-1.54 2.43-.03 1.11.82 1.65 1.88 1.99 1.12.35 2.48.47 3.28.78.43.17.96.32 1.33.03.46-.36.36-1.21.88-1.45.17-.08.36-.07.54-.09 1.08-.1 1.94-1.23 1.74-2.3.25-.32.74-.29 1.14-.28s.93-.12.99-.53c.07-.47-.53-.72-1-.75a5.2 5.2 0 0 0-1.43.11c-.35.08-.73.19-1.05.04-.25-.11-.41-.35-.55-.58-.34-.56-.64-1.18-.58-1.83s.58-1.3 1.23-1.28c.18.01.35.06.52.03.44-.07.64-.62.61-1.07s-.18-.91-.06-1.34.72-.75 1.02-.42c.25-.57.42-1.41-.14-1.69-.18-.09-.39-.08-.59-.1-1.24-.12-2.91-1.79-1.54-2.75.9-.63 2.37.68 3.16-.51.38-.57.14-1.4.54-1.96.23-.17.5.17.55.45.16.89-.18 1.85-.86 2.44.7.41 1.8-.06 2.27.6.47.64-.22 1.76.39 2.27.18.14.41.18.64.22 1.11.16 3.19-.03 3.26 1.57.01.19-.02.39.04.58.17.56.93.62 1.52.56.3-.57-.09-1.25-.35-1.84s-.24-1.51.39-1.65c.45-.11.98.28 1.36.02.18-.12.26-.36.45-.46.46-.25.85.46 1.35.62.68.22 1.2-.68 1.2-1.4s-.18-1.53.29-2.08c.15-.17.35-.29.51-.45.5-.49.6-1.25.67-1.94.11-1.11 4.51 1.77 4.78 1.82 2.11.35 3.41-1.74 4.86-2.89.76-.6 1.64-1.01 2.52-1.43-6.01-19.34-22.21-34.53-41.94-39.19-.88-.21-1.8-.45-2.69-.52.27 1.35 1.1 3.47.2 4.75-1.15 1.62-3.58.2-4.47 2.1-.03.49.78.41 1.15.72.21.17.26.46.36.71s.35.5.61.42c.3.45-.17 1-.57 1.37-.47.43-.91.93-1.08 1.54-.37 1.27.47 2.54 1 3.75.44 1 .69 2.08.94 3.14.01-.51.72-.71 1.18-.48s.73.69 1.09 1.04c.62.6 1.43.24 2.1.75.84.63 1.37 1.77 2.4 1.94 1.25.21 2.16-1.12 2.71-2.26 1.37.73 2.22 2.49 3.78 2.6a4 4 0 0 0 1.73-.4l3.41-1.34c.47-.19.99-.37 1.47-.2.56.2.85.81 1.07 1.36l.74 1.79c.1.25.2.52.14.77-.07.27-.31.46-.55.62-1.29.85-2.9 1.17-4.42.9.15 2.06.55 4.11 1.21 6.07-1.16-.3-2.5.09-3.57-.36"/><path id="N" d="M854.84 312.52c-.44.52-1.07.91-1.75.9-.42-.01-.82-.17-1.23-.23s-.9.02-1.12.37c-.29.45-.01 1.03.26 1.49.22.37.49.77.9.89.3.09.63 0 .95.05.62.1 1.01.69 1.43 1.16s1.08.9 1.63.59c.36-.2.51-.66.86-.88.85-.54 1.9.63 2.67.19.91-.52.58-2.01.2-2.85-.38-.85-1.16-1.5-1.82-2.14-1.85-1.8-1.59-1.2-2.98.45z"/><path id="O" d="M883.72 336.52c9.11-9.03 14.44-22.19 15.49-34.84l.08-1.05c-1.76-1.81-5.26-2.97-6.17.29-.36-.02-.43-.24-.71-.44-.43-.32-1.04.11-1.28.59-.79 1.57-.9 3.55-3.09 3.13-2.6-.51-.84-1.62-1.69-3.06-.12-.21-.34-.34-.51-.51-.62-.63-.54-1.65-.41-2.52.5.26 1.2-.03 1.37-.57.06-.2.06-.44.2-.6.29-.35.9-.02 1.04.41s.03.91.13 1.36.58.88.97.65c.16-.1.25-.29.31-.47.23-.76.06-1.64-.45-2.26.43-.11.75-.54.74-.99s-.35-.86-.78-.95c-.63-.14-1.54.23-1.79-.36.09.52-.13 1.08-.56 1.39-1.68 1.22-5.46.13-5.08 3.71.06.57.26 1.14.25 1.71s-.33 1.22-.9 1.33c1.02.82.65 2.71 1.74 3.43a1.4 1.4 0 0 0 1.7-.18c.07-.07.14-.16.24-.19.2-.06.38.13.59.17.36.07.66-.29 1.02-.31.51-.03.78.58.87 1.07s.22 1.11.71 1.25c.17.05.35.02.51.07.34.09.54.46.56.81s-.11.69-.23 1.01c-.21.21-.59.08-.79-.14s-.33-.51-.56-.7c-.13-.1-3.16.13-3.06-.09-.45 1.04-.68 3.32-2.24 2.74-.55-.21-1.12-.58-1.68-.41l.78-2.22c-.23-.2-.59.07-.68.36s-.11.64-.36.83c-.17.13-.4.13-.62.13l-2.1-.04c-.76-.01-1.63.02-2.1.61-.54.67-.23 1.71.34 2.35.14.15.3.32.28.53-.01.19-.17.33-.3.46-.71.68-1.18 1.68-1.03 2.65s1.06 1.84 2.04 1.75c.38-.03.85-.16 1.07.15.13.18.13.47.33.56.26.12.47-.21.65-.42.33-.38.95-.48 1.38-.22.22.13.92 2.28.74 2.6-.42.72-2.4.44-3.18.47-.3.01-.63.04-.83.27-.31.35-.06.92.28 1.23s.79.57.96 1c.1.25.09.54.08.81-.02.55-.08 1.17-.5 1.53-.2.17-.45.25-.65.42-.45.38-.48 1.07-.32 1.64s.46 1.09.57 1.67c.23 1.23-.45 2.57.04 3.72.24.56.97 1 1.43.61.4-.34.39-1.14.91-1.2.5-.06 1.12 1.2 1.53 1.44.33.19.99-.12 1.59.31.49.36.59 1.13 1.11 1.52z"/><path id="P" d="M806.38 259.35c.51-.65.84-1.4 1.8-1.57 1.31-.23 1.81.51 1.23 1.75-.05.11-.11.23-.08.35.09.38.66.16.98-.06.75-.51 1.71-.47 2.51-.12.19.08.55-3.51.36-3.92-.65-1.44-3.68-.76-3.06-2.34 1.13-.02 2.3.12 3.43.21l.19-1.64c-.05.41 2.07.32 2.31.2.93-.47.68-2.17 2.35-1.89 2.12.35 2.24 4.51-.17 3.83a10.8 10.8 0 0 0-.86 4.03l-1.31-.01c-.22.3-.28.71-.16 1.06 1.04.73 2.55.75 3.61.03.69.53 1.66.02 2.37-.48.99 1.59 3.83 1.37 4.56-.36s-1.09-3.92-2.92-3.53a4.2 4.2 0 0 0-.89-2.42 5.5 5.5 0 0 0 5.23-3.63c.37-1.08.45-2.4 1.36-3.08.41-.31.92-.44 1.35-.72.95-.64 1.23-1.89 1.38-3.02l.21-2.29c-13.5 2.19-25.59 9.09-34.33 19.09-.05.4-.07.82.09 1.18.3.67 1.1.94 1.82 1.12 2.78.73 4.56.57 6.48-1.59.06-.06.11-.12.16-.19z"/><path id="Q" d="M701.01 236.94a8.5 8.5 0 0 0 4.25 7.37 8.4 8.4 0 0 0 9.47-.67 8.5 8.5 0 0 0-5.23-15.2 8.5 8.5 0 0 0-8.49 8.5z"/><path id="R" d="M705.19 393.88c4.17 0 7.55-3.38 7.55-7.56s-3.38-7.56-7.55-7.56-7.55 3.38-7.55 7.56 3.38 7.56 7.55 7.56z"/><path id="S" d="M987.45 333.15c3.25-3.26 3.25-8.54 0-11.8a8.3 8.3 0 0 0-11.78 0c-3.25 3.26-3.25 8.54 0 11.8a8.3 8.3 0 0 0 11.78 0z"/><path id="T" d="M945.51 244.01l-63.57 27.62.28.66 63.57-27.62-.28-.66z"/><path id="U" d="M794.54 207.48l-.61.38 27.18 43.99.61-.38-27.18-43.99z"/><path id="V" d="M803.04 324.6l-70.52 14.8.15.7 70.52-14.8-.15-.7z"/><path id="W" d="M890.52 313.29l-.6.38 40.57 64.88.6-.38-40.57-64.88z"/><path id="X" d="M801.24 404.9l-69.04-65.03 9.76-73.97.07-.08 52.02-58.49.13-.02 94.27-13.06 57.57 49.94-.02.19-14.88 134.28-.25.05-129.63 26.18zm-68.29-65.29l68.51 64.52 129.01-26.06 14.8-133.58-57.04-49.48-93.82 13-51.77 58.22-9.69 73.38z"/><path id="Y" d="M822.48 251.66l-1.07 6.25-1.07-6.25h2.14z"/><path id="Z" d="M882.08 275.06a3.1 3.1 0 1 0 0-6.2 3.1 3.1 0 1 0 0 6.2z"/><path id="a" d="M803.41 322.4c.34.45.07 1.24-.61 1.76s-1.51.57-1.86.12-.07-1.24.61-1.76 1.51-.57 1.86-.12z"/><path id="b" d="M932.3 251.32l-1.34 12.17c-2.06-1.73-3.82-3.83-5.16-6.2l2.05-6.72.21-.65.77.09 3.17.4.39.05-.1.85z"/><path id="c" d="M938.36 259.17l-2.07 7.7c-.27-.11-.54-.25-.8-.38h-.01c-1.63-.8-3.15-1.81-4.52-2.98.16-.37 4.4-9.95 5.98-9.84l1.42 5.51z"/><path id="d" d="M949.35 238.35c-.03.43.17.8.46.82s.55-.31.58-.74-.17-.8-.46-.83-.55.31-.58.74z"/><path id="e" d="M964.3 259.69c-1.03 1.38-2.21 2.63-3.51 3.73a21.9 21.9 0 0 1-3.81 2.65 11.9 11.9 0 0 1 .29-.92c.9-2.56 2.5-4.9 3.8-6.53 1.07-1.34 1.94-2.21 2.08-2.34l.02-.02c.55.45.9 1.7 1.14 3.42z"/><path id="f" d="M887.63 209.05a13 13 0 0 0 12.97-12.99 13 13 0 0 0-12.97-12.99 13 13 0 0 0-12.97 12.99 13 13 0 0 0 12.97 12.99z"/><path id="g" d="M810.53 412.57a13 13 0 0 0 0-18.37c-5.06-5.07-13.27-5.07-18.34 0a13 13 0 0 0 0 18.37c5.07 5.07 13.28 5.07 18.34 0z"/><path id="h" d="M754.92 269.05a13 13 0 0 0-9.64-15.63c-6.97-1.65-13.95 2.67-15.6 9.66a13 13 0 0 0 9.64 15.63c6.97 1.65 13.95-2.68 15.6-9.66z"/><path id="i" d="M745.65 350.71v-.01c-.77-.56-1.49-.96-2.07-1.09l-7.83-.38-1.2.06-5.58.57-1.62.26-5.28 1.15-2.49.73c-.31.39-.58 1.19-.85 2.3.68.75 1.44 1.45 2.25 2.07.03.04.07.06.11.09h.01c.68.54 1.4 1.03 2.16 1.46a19.6 19.6 0 0 0 9.99 2.71 19.7 19.7 0 0 0 8.47-1.91c1.08-.51 2.12-1.12 3.08-1.82l1.03-.79a19.9 19.9 0 0 0 2.81-2.83c-.97-.96-2.01-1.9-2.97-2.59z"/><path id="j" d="M922.63 386.33s0 .01-.01.04l-.9 9.23-.31 3.16-1.19-.58v-.01a24.8 24.8 0 0 1-6-4.4c-1.73-1.71-3.2-3.67-4.37-5.82l-.91-1.89 1.45.24 5.23.86 1.13.19-1.32 6.4s4.8-6.69 7.21-7.42z"/><path id="k" d="M953.77 387.3a24.9 24.9 0 0 1-1.1 1.96l-.98 1.45c-1.45 2.01-3.19 3.78-5.17 5.28l-1.39.98a24.5 24.5 0 0 1-6.21 2.92 24.6 24.6 0 0 1-7.29 1.1c-3.65 0-7.12-.79-10.24-2.22a37.3 37.3 0 0 1-1.19-.58v-.01c1-7.13 2.27-11.39 2.4-11.8.01-.02.01-.04.01-.04a51.4 51.4 0 0 1 7.84-1.6c.04 0 .08-.01.12-.01 3.81-.3 7.65-.38 11.47-.24h.04c2.65.07 5.29.33 7.9.79.34.14 2.1.87 3.78 2.03z"/><path id="l" d="M849.84 283.61c3.3.43 7.05 16.4 9.68 17.91s9.46-7.32 9.46-7.32l3.13 3.57s-9.02 12.57-12.59 11.45-10.29-13.52-10.29-13.52l.6-12.08z"/><path id="m" d="M829.34 317.6v3.14l21.44-1.64v-3.71l-21.44 2.22z"/><path id="n" d="M836.77 267.26c.11.44-.04.86-.33.93s-.62-.22-.73-.67.04-.86.33-.93.62.22.73.67z"/><path id="o" d="M821.55 289.11c2.16-.3 6.52 3.92 5.86 7.57s-6.77 13.91-11.49 13.11c-6.66-1.13-13.98-18.69-13.98-18.69l3.65-3.19s8.63 14.94 10.33 14.65 5.63-13.45 5.63-13.45z"/><path id="p" d="M869.95 286.86l6.83-8.32c.24-.29.67-.32.94-.06l3.04 2.87c.25.23.27.61.06.88l-6.94 8.51c-.24.3-.7.32-.96.04l-2.94-3.06c-.23-.24-.24-.6-.03-.85z"/></defs></svg>