<svg xmlns="http://www.w3.org/2000/svg" width="1140" height="640" fill="none" xmlns:v="https://vecta.io/nano"><style><![CDATA[.B{fill:#fff}.C{fill:#0668e1}.D{fill:#c8d1dd}.E{fill:#a8cff0}.F{fill:#cdcdcd}.G{fill:#d6d6d6}.H{fill:#f6ba28}.I{fill:#f2a305}.J{fill:#a5b3bf}.K{color-interpolation-filters:sRGB}.L{flood-opacity:0}.M{fill:#d1ebff}.N{fill:#e9e9e9}.O{fill:#ffc8b3}.P{fill:#1b1c17}]]></style><g clip-path="url(#H)"><rect width="1140" height="640" rx="16" class="B"/><g filter="url(#A)" class="C"><path d="M911.77 101.48a8.8 8.8 0 0 1 7.84-12.69h97.62c4.84 0 8.77 3.93 8.77 8.77v19.73c0 4.84-3.93 8.77-8.77 8.77h-87.74c-3.32 0-6.36-1.87-7.84-4.85l-9.87-19.73z"/></g><g class="B"><path d="M988.57 111.48c.04-.75.03-1.5.15-2.23.09-.56-.03-.96-.39-1.36a28.2 28.2 0 0 1-1.4-1.7c-.74-.95-.39-2.16.77-2.3a4.9 4.9 0 0 0 4.25-3.2c.5-1.14 1.7-1.08 2.37-.01.04.06.09.12.11.19a4.2 4.2 0 0 0 3.91 2.97c.32.03.68.21.93.43.53.45.57 1.22.12 1.82-.41.55-.82 1.13-1.31 1.59-.59.56-.68 1.2-.57 1.95l.16 1.8c.08 1.16-.82 1.88-1.85 1.47l-2.18-.92a1.7 1.7 0 0 0-1.04.01c-.74.26-1.45.63-2.18.92-1.03.39-1.89-.28-1.84-1.41zm-19.76.21c.05-.83.01-1.45.15-2.03.2-.87-.01-1.53-.62-2.13-.42-.41-.77-.9-1.13-1.37-.74-.97-.4-2.02.74-2.33l1.82-.45c.67-.11 1.13-.4 1.44-1.06.28-.6.66-1.16 1.01-1.73.63-.99 1.7-1 2.32-.02.41.64.74 1.34 1.19 1.95a2.4 2.4 0 0 0 .99.77c.63.24 1.3.33 1.96.49 1.33.33 1.68 1.38.82 2.47l-1.43 1.77c-.2.28-.31.69-.3 1.04.01.77.13 1.54.18 2.31.08 1.21-.88 2.03-1.88 1.44a4.8 4.8 0 0 0-5.32-.01c-.99.58-1.94-.17-1.92-1.1zm-19.73-.05l.19-2.54c0-.39-.16-.83-.38-1.15-.43-.63-.96-1.18-1.43-1.78-.74-.95-.38-2.02.76-2.33.2-.06.4-.15.61-.15 1.71-.06 2.73-1.06 3.38-2.6.09-.21.22-.42.36-.61.58-.82 1.6-.84 2.17.01.44.65.85 1.33 1.21 2.03a1.5 1.5 0 0 0 1.18.85l1.96.48c1.14.31 1.49 1.37.77 2.33l-.36.44c-1.59 1.92-1.59 1.92-1.31 4.43.02.19.05.39.04.58-.03 1.01-.88 1.64-1.79 1.29l-2.32-.98c-.28-.1-.64-.1-.92 0l-2.26.95c-1 .39-1.91-.3-1.87-1.24z"/></g><g filter="url(#B)" class="C"><path d="M1050.94 67.83a7.1 7.1 0 0 1 7.12 0l28.95 16.71a7.1 7.1 0 0 1 3.56 6.17v33.43a7.1 7.1 0 0 1-3.56 6.17l-28.95 16.71a7.1 7.1 0 0 1-7.12 0l-28.95-16.71c-2.2-1.27-3.56-3.62-3.56-6.17V90.71c0-2.55 1.36-4.9 3.56-6.17l28.95-16.71z"/></g><g clip-path="url(#I)" class="B"><path d="M1046.69 113.38l.01-7.75a2.7 2.7 0 0 1 .25-1.08l5.32-11.36c.26-.58.65-.86 1.29-.84.91.03 1.82-.08 2.67.32a3.8 3.8 0 0 1 2.36 3.63l.01 3.63v1.49c0 .73.02.75.72.75l6.05.01a4.2 4.2 0 0 1 1.45.25c1.81.67 2.77 2.44 2.47 4.34l-1.56 10.07-.44 2.63c-.33 1.7-1.88 3.01-3.61 3.01h-15.89c-.7 0-1.1-.44-1.1-1.19v-7.92zm-1.35 9.08c-1.11 0-2.33.07-3.53-.02-1.24-.09-2.13-1.17-2.14-2.47v-6.96-6.08c0-1.67 1-2.67 2.66-2.67h3.02l-.07 2.58v12.65l.06 2.98z"/></g><g filter="url(#C)" class="C"><path d="M228.22 527.88a8.8 8.8 0 0 0-7.84-12.69h-97.61c-4.84 0-8.77 3.93-8.77 8.77v19.73c0 4.84 3.93 8.77 8.77 8.77h87.74c3.32 0 6.36-1.88 7.84-4.85l9.87-19.73z"/></g><g stroke="#fff" stroke-width="1.1"><path d="M146.94 526.8c-.21 0-.53.15-.8.57l-.01.01-.04.05-.02.03a5 5 0 0 1-1.69 2.36c-.75.56-1.66.86-2.69.95h0c-.18.01-.43.13-.62.3h0c-.27.23-.34.66-.03 1.08l1.24 1.52h0a2.4 2.4 0 0 1 .7 1.17c.11.42.09.85.03 1.26-.08.57-.11 1.15-.16 1.76-.03.43.12.71.3.85.17.14.44.21.8.07h0l1.07-.47 1.14-.47h.01l.17-.05c.4-.1.85-.07 1.23.06h0l1.14.47 1.06.46c.36.14.63.07.8-.06s.32-.39.3-.81l-.15-2.18a2.2 2.2 0 0 1 .04-.98 2 2 0 0 1 .33-.65l.16-.19.7-.81.68-.85c.28-.36.31-.71.24-.95-.07-.22-.26-.42-.63-.46a5.7 5.7 0 0 1-2.84-1.06c-.79-.59-1.39-1.42-1.85-2.47h0c-.18-.41-.42-.51-.61-.5zm19.67 0c-.19 0-.46.11-.69.48h0l-.57.96-.64 1.02h0a2.9 2.9 0 0 1-1.24.95h0a9.2 9.2 0 0 1-1.04.3l-.97.21h0c-.55.14-.78.39-.85.59s-.04.55.32 1l1.28 1.56.17.24c.27.38.41.91.4 1.36l-.08 1.2-.06.57-.05.56c-.03.46.14.78.33.93.17.13.41.19.73 0 .97-.57 1.94-.88 2.94-.88a5.5 5.5 0 0 1 2.58.67l.37.2c.32.19.58.14.76.03.17-.11.3-.31.32-.55v-.1l-.04-1.1c-.01-.32-.03-.58-.09-.82h0c-.12-.51-.12-.99.02-1.45a2.8 2.8 0 0 1 .76-1.2h0c.38-.37.7-.82 1.08-1.31.29-.37.32-.7.25-.91s-.27-.44-.69-.55l-1.77-.44h0c-.39-.06-.76-.18-1.09-.42s-.58-.55-.76-.95h0c-.26-.56-.61-1.09-.98-1.66h0c-.24-.38-.51-.5-.7-.5zm19.72 0c-.19 0-.43.1-.62.38h0a18.9 18.9 0 0 0-1.17 1.97h0c-.17.34-.39.6-.67.79s-.58.29-.9.35l-1.92.47h0c-.43.12-.63.35-.7.56s-.05.54.23.91l.35.43c.76.92 1.25 1.5 1.46 2.18s.11 1.45-.02 2.65h0l-.04.49v.01c.01.35.16.6.34.73.17.13.42.18.7.07h0l1.13-.48 1.19-.5h0c.4-.15.9-.14 1.29 0h0l1.16.48 1.1.48c.64.25 1.14-.17 1.12-.7l-.19-2.58a2.8 2.8 0 0 1 .47-1.45h0l.18-.25.56-.69.71-.86h0c.28-.36.31-.68.24-.89s-.28-.45-.71-.57h0l-.32-.1c-.08-.03-.13-.03-.16-.03h0a3.9 3.9 0 0 1-2.41-.86c-.64-.53-1.11-1.25-1.45-2.07v-.01c-.06-.15-.16-.31-.29-.5-.2-.29-.45-.39-.65-.39z"/></g><g filter="url(#D)" class="C"><path d="M89.06 494.23a7.1 7.1 0 0 0-7.12 0l-28.95 16.71c-2.2 1.27-3.56 3.63-3.56 6.17v33.43a7.1 7.1 0 0 0 3.56 6.17l28.95 16.71a7.1 7.1 0 0 0 7.13 0l28.95-16.71a7.1 7.1 0 0 0 3.56-6.17v-33.43a7.1 7.1 0 0 0-3.56-6.17l-28.95-16.71z"/></g><g clip-path="url(#J)" class="B"><path d="M93.31 527.87l-.01 7.75a2.7 2.7 0 0 1-.25 1.08l-5.32 11.36c-.26.57-.65.86-1.29.84-.9-.03-1.82.08-2.67-.32a3.8 3.8 0 0 1-2.36-3.63l-.01-3.63v-1.49c0-.73-.02-.75-.73-.75-2.01 0-4.03.01-6.04-.01-.49-.01-1-.07-1.45-.25-1.81-.67-2.77-2.44-2.47-4.34l1.56-10.07.44-2.63c.34-1.7 1.88-3.01 3.61-3.01h15.89c.7 0 1.1.44 1.1 1.18v7.92zm1.35-9.08l3.53.02c1.24.09 2.13 1.17 2.14 2.47l.01 6.96v6.08c0 1.67-1.01 2.67-2.66 2.67h-3.02l.08-2.58v-12.65l-.06-2.98z"/></g><path d="M122.65 243.05h4.29l4.87 15.18 4.87-15.18h4.29l-7.42 21.82h-3.48l-7.42-21.82zm-2.61 0h4.44l.83 16.72v5.1h-5.26v-21.82zm19.09 0h4.45v21.82h-5.28v-5.1l.82-16.72zm15.44 22.12c-1.32 0-2.5-.2-3.54-.61a7.7 7.7 0 0 1-2.64-1.72c-.71-.73-1.25-1.57-1.63-2.52-.37-.95-.55-1.95-.55-3.01v-.57a10.6 10.6 0 0 1 .49-3.3 7.7 7.7 0 0 1 1.47-2.67c.65-.76 1.46-1.35 2.44-1.77.98-.43 2.12-.65 3.42-.65 1.15 0 2.18.19 3.09.56a6.3 6.3 0 0 1 2.31 1.59c.64.69 1.12 1.52 1.45 2.5a10 10 0 0 1 .51 3.3v2.05h-13.25v-3.16h8.32v-.39a2.8 2.8 0 0 0-.28-1.38c-.19-.38-.47-.67-.84-.87a2.8 2.8 0 0 0-1.35-.3c-.55 0-1 .12-1.36.36-.35.24-.62.57-.82.99a5.2 5.2 0 0 0-.41 1.42c-.08.54-.12 1.11-.12 1.71v.57c0 .6.08 1.14.24 1.63a3.7 3.7 0 0 0 .72 1.26 3.4 3.4 0 0 0 1.14.8 3.9 3.9 0 0 0 1.53.28 5.6 5.6 0 0 0 2.04-.39c.67-.26 1.24-.69 1.72-1.29l2.29 2.73a5.9 5.9 0 0 1-1.41 1.36c-.6.44-1.32.8-2.16 1.08a9.2 9.2 0 0 1-2.82.4zm13.83-13.05v12.75h-5.05v-16.22h4.74l.31 3.46zm-.6 4.09l-1.18.03a11.2 11.2 0 0 1 .45-3.31 7.3 7.3 0 0 1 1.27-2.49 5.4 5.4 0 0 1 1.96-1.54c.77-.36 1.62-.54 2.56-.54a6.1 6.1 0 0 1 2.05.33 3.9 3.9 0 0 1 1.62 1.06c.46.49.81 1.14 1.05 1.95.25.8.38 1.79.38 2.97v10.21h-5.08v-10.22c0-.65-.09-1.14-.27-1.48-.18-.35-.44-.59-.78-.72s-.75-.19-1.24-.19c-.52 0-.96.1-1.32.3s-.65.48-.87.84c-.21.35-.36.76-.46 1.24-.09.48-.14 1-.14 1.57zm21.51-7.55v3.51h-9.77v-3.51h9.77zm-7.72-4.03h5.05v14.96c0 .43.05.76.15 1 .1.23.27.39.51.5.25.09.58.13.99.13l.72-.01.54-.08v3.61a8.3 8.3 0 0 1-1.35.31c-.47.08-.97.12-1.5.12-1.08 0-2-.17-2.77-.51a3.6 3.6 0 0 1-1.74-1.6c-.4-.73-.6-1.68-.6-2.85v-15.59zm18.15 16.17v-6.68c0-.46-.06-.85-.19-1.18s-.34-.59-.62-.76c-.28-.19-.65-.28-1.12-.28-.38 0-.7.06-.97.19s-.47.32-.61.58-.21.59-.21.99h-5.05c0-.75.17-1.44.5-2.08.34-.65.82-1.21 1.44-1.69a6.9 6.9 0 0 1 2.25-1.11c.88-.27 1.86-.41 2.94-.41a8.7 8.7 0 0 1 3.45.65 5.4 5.4 0 0 1 2.41 1.93 5.5 5.5 0 0 1 .88 3.21v6.64c0 1.06.06 1.86.18 2.41.12.54.29 1.01.51 1.42v.25h-5.06c-.24-.5-.42-1.11-.54-1.83-.11-.73-.16-1.48-.16-2.25zm.62-5.83l.03 2.7h-2.23c-.47 0-.87.06-1.2.19a2 2 0 0 0-.78.54c-.19.22-.33.47-.42.75a3.2 3.2 0 0 0-.12.88c0 .3.07.57.21.81.15.23.35.41.6.54a1.8 1.8 0 0 0 .84.19c.56 0 1.03-.11 1.42-.31.4-.22.7-.48.91-.79s.31-.6.31-.87l1.11 2.07c-.2.4-.43.8-.69 1.21-.25.41-.56.79-.94 1.14a4.5 4.5 0 0 1-1.36.84c-.54.21-1.19.31-1.96.31a6.2 6.2 0 0 1-2.76-.61 5.1 5.1 0 0 1-1.99-1.71c-.5-.74-.75-1.59-.75-2.55a5.4 5.4 0 0 1 .45-2.25 4.4 4.4 0 0 1 1.39-1.68c.62-.46 1.41-.81 2.37-1.05s2.09-.36 3.39-.36h2.17zm12.6-13.11v23.02h-5.06v-23.02h5.06zm22.24 17.22c0-.34-.05-.64-.15-.91-.1-.28-.28-.54-.56-.78s-.66-.48-1.17-.72a15.1 15.1 0 0 0-1.98-.78l-2.77-1.08a12.3 12.3 0 0 1-2.38-1.42c-.7-.55-1.25-1.19-1.66-1.92-.41-.74-.61-1.6-.61-2.58a5.1 5.1 0 0 1 .63-2.53c.42-.76 1-1.4 1.75-1.93a8.4 8.4 0 0 1 2.67-1.23c1.02-.29 2.13-.43 3.34-.43 1.6 0 3.01.28 4.23.84 1.23.55 2.19 1.33 2.88 2.35.7 1.01 1.05 2.2 1.05 3.58h-5.23a3 3 0 0 0-.34-1.45c-.22-.42-.56-.75-1-.99s-1.01-.36-1.69-.36a4.1 4.1 0 0 0-1.66.3c-.45.2-.79.47-1.02.81-.23.33-.34.69-.34 1.09 0 .33.09.63.27.9.19.26.45.5.79.73.35.23.77.45 1.26.66a21.4 21.4 0 0 0 1.68.61c1.16.37 2.19.78 3.09 1.24.91.45 1.67.96 2.29 1.54a5.7 5.7 0 0 1 1.42 1.95c.33.73.5 1.55.5 2.47 0 .98-.19 1.85-.57 2.61a5.4 5.4 0 0 1-1.63 1.93c-.71.52-1.56.92-2.55 1.18s-2.09.4-3.31.4c-1.12 0-2.22-.14-3.31-.42-1.08-.29-2.06-.73-2.94-1.32-.88-.6-1.58-1.36-2.11-2.29a6.8 6.8 0 0 1-.78-3.34h5.27a4.5 4.5 0 0 0 .26 1.62 2.5 2.5 0 0 0 .75 1.06c.33.26.73.45 1.21.57.48.11 1.03.16 1.65.16.67 0 1.21-.09 1.62-.28.41-.2.71-.46.9-.78.19-.33.28-.69.28-1.08zm12.68-17.22v23.02h-5.05v-23.02h5.05zm-.6 14.36l-1.18.03a11.2 11.2 0 0 1 .42-3.15 8 8 0 0 1 1.2-2.5c.52-.71 1.14-1.26 1.87-1.65s1.54-.59 2.43-.59a6.6 6.6 0 0 1 2.19.34 4.2 4.2 0 0 1 1.72 1.11 5 5 0 0 1 1.12 1.99 9.7 9.7 0 0 1 .4 3v10.07h-5.08v-10.1c0-.66-.09-1.17-.28-1.53-.18-.37-.44-.62-.78-.76a3.1 3.1 0 0 0-1.24-.22c-.59 0-1.07.1-1.44.3a2.1 2.1 0 0 0-.85.84 3.7 3.7 0 0 0-.39 1.24c-.07.48-.1 1-.1 1.57zm12.35.72v-.31c0-1.19.17-2.28.51-3.28.34-1.01.84-1.88 1.5-2.62a6.7 6.7 0 0 1 2.44-1.72c.97-.42 2.09-.63 3.36-.63a8.4 8.4 0 0 1 3.37.63 6.7 6.7 0 0 1 2.46 1.72 7.5 7.5 0 0 1 1.5 2.62c.34 1 .51 2.09.51 3.28v.31c0 1.18-.17 2.27-.51 3.28-.34 1-.84 1.87-1.5 2.62-.66.74-1.47 1.31-2.44 1.72s-2.09.61-3.36.61-2.39-.2-3.37-.61a6.7 6.7 0 0 1-2.46-1.72c-.66-.75-1.16-1.62-1.5-2.62a10.2 10.2 0 0 1-.51-3.28zm5.05-.31v.31a10.2 10.2 0 0 0 .13 1.71c.09.53.24.99.45 1.39.21.39.5.69.86.91s.81.33 1.35.33c.53 0 .97-.11 1.32-.33.36-.22.65-.52.85-.91.21-.4.36-.87.45-1.39a10.2 10.2 0 0 0 .13-1.71v-.31c0-.59-.05-1.14-.13-1.66-.09-.53-.24-.99-.45-1.39-.21-.41-.49-.73-.85-.96s-.81-.34-1.35-.34c-.53 0-.97.11-1.33.34-.35.23-.63.55-.84.96-.21.4-.36.87-.45 1.39-.09.52-.13 1.07-.13 1.66zm17.94-3.94v12.2h-5.05v-16.22h4.72l.33 4.02zm4.8-4.14l-.09 4.69-.81-.08-.85-.04c-.59 0-1.1.07-1.53.21-.42.13-.77.33-1.05.6-.27.26-.47.59-.6.99-.12.4-.18.86-.17 1.39l-.91-.6a13 13 0 0 1 .31-2.97c.22-.9.53-1.67.93-2.32a4.4 4.4 0 0 1 1.45-1.51c.57-.36 1.21-.54 1.92-.54a5.9 5.9 0 0 1 .73.04c.25.03.47.08.66.14zm11.03.12v3.51h-9.77v-3.51h9.77zm-7.72-4.03h5.05v14.96c0 .43.05.76.15 1 .1.23.27.39.51.5a3 3 0 0 0 .99.13l.72-.01.54-.08v3.61c-.43.14-.88.24-1.35.31a8.9 8.9 0 0 1-1.5.12c-1.08 0-2-.17-2.77-.51a3.6 3.6 0 0 1-1.74-1.6 5.9 5.9 0 0 1-.6-2.85v-15.59zm16.58 16.65c.47 0 .87-.08 1.2-.25.34-.18.6-.43.77-.75.18-.33.26-.72.25-1.18h4.75a5.6 5.6 0 0 1-.9 3.21 6.1 6.1 0 0 1-2.46 2.13 7.9 7.9 0 0 1-3.49.75c-1.27 0-2.38-.2-3.33-.61-.95-.42-1.74-1-2.38-1.74-.63-.75-1.1-1.62-1.42-2.62-.31-1-.46-2.08-.46-3.25v-.34c0-1.17.15-2.25.46-3.25.32-1.01.79-1.88 1.42-2.62.64-.75 1.43-1.33 2.37-1.74.95-.42 2.05-.63 3.31-.63 1.35 0 2.54.25 3.57.76 1.04.51 1.85 1.25 2.44 2.22s.88 2.14.87 3.52h-4.75a3.3 3.3 0 0 0-.22-1.32c-.16-.39-.41-.7-.75-.93-.33-.24-.75-.36-1.27-.36a2.1 2.1 0 0 0-1.26.34c-.32.23-.56.55-.74.96-.16.4-.27.86-.33 1.38l-.07 1.66v.34l.07 1.69a5 5 0 0 0 .34 1.38 2.2 2.2 0 0 0 2.01 1.26zm18.6-.34v-12.27h5.06v16.22h-4.74l-.33-3.94zm.48-3.3l1.32-.03a11.2 11.2 0 0 1-.39 3.03 7.2 7.2 0 0 1-1.15 2.4c-.5.68-1.12 1.21-1.86 1.59-.73.37-1.57.55-2.53.55-.8 0-1.53-.11-2.2-.33-.66-.23-1.23-.58-1.71-1.06-.48-.49-.85-1.11-1.12-1.87-.26-.77-.39-1.69-.39-2.76v-10.49h5.05v10.52c0 .36.05.67.13.93s.22.48.39.66c.17.17.38.3.63.39.26.08.55.12.88.12.76 0 1.35-.16 1.78-.48s.73-.75.9-1.3c.18-.55.27-1.17.27-1.86zm15.92-8.98v3.51h-9.77v-3.51h9.77zm-7.72-4.03h5.05v14.96c0 .43.05.76.15 1 .1.23.27.39.51.5.25.09.58.13.99.13l.72-.01.54-.08v3.61a8.3 8.3 0 0 1-1.35.31c-.47.08-.97.12-1.5.12-1.08 0-2-.17-2.77-.51a3.6 3.6 0 0 1-1.74-1.6c-.4-.73-.6-1.68-.6-2.85v-15.59zm18.22 15.69c0-.28-.09-.52-.28-.72-.18-.21-.5-.4-.96-.57a13.4 13.4 0 0 0-1.93-.54c-.79-.17-1.53-.39-2.23-.67a7.7 7.7 0 0 1-1.81-1.02 4.5 4.5 0 0 1-1.23-1.42 4 4 0 0 1-.44-1.89 4.5 4.5 0 0 1 .44-1.95c.3-.62.73-1.16 1.3-1.63.58-.48 1.28-.85 2.11-1.12.83-.28 1.77-.42 2.83-.42 1.46 0 2.72.22 3.78.67a5.5 5.5 0 0 1 2.44 1.86 4.5 4.5 0 0 1 .87 2.74h-5.05a2.4 2.4 0 0 0-.21-1.05c-.13-.29-.35-.51-.65-.66-.3-.16-.7-.24-1.2-.24-.35 0-.67.06-.96.19-.28.13-.5.31-.67.54s-.25.5-.25.81c0 .22.05.42.15.6.11.17.27.33.49.48.22.14.5.27.84.39.34.11.75.21 1.23.3a16.8 16.8 0 0 1 3.06.85c.95.37 1.72.9 2.31 1.57a4 4 0 0 1 .9 2.74c0 .72-.17 1.38-.5 1.99-.33.6-.8 1.13-1.42 1.59a7.1 7.1 0 0 1-2.23 1.05c-.87.25-1.85.38-2.94.38-1.55 0-2.86-.27-3.93-.82-1.07-.56-1.88-1.26-2.43-2.1-.54-.85-.81-1.71-.81-2.58h4.71c.02.5.14.91.36 1.23.23.32.53.55.91.7s.82.22 1.32.22c.46 0 .84-.06 1.14-.19.31-.13.54-.31.7-.52.16-.23.24-.5.24-.8zm24.79-17.26v21.82h-5.26v-21.82h5.26zm6.56 0v4.06h-18.24v-4.06h18.24zm6.94-1.2v23.02h-5.05v-23.02h5.05zm-.6 14.36l-1.18.03a11.2 11.2 0 0 1 .42-3.15c.28-.96.68-1.79 1.2-2.5s1.14-1.26 1.87-1.65 1.54-.59 2.43-.59a6.6 6.6 0 0 1 2.19.34 4.2 4.2 0 0 1 1.72 1.11 5 5 0 0 1 1.12 1.99c.27.82.41 1.82.41 3v10.07h-5.08v-10.1c0-.66-.1-1.17-.29-1.53-.18-.37-.44-.62-.78-.76a3.1 3.1 0 0 0-1.24-.22c-.59 0-1.07.1-1.44.3a2.1 2.1 0 0 0-.85.84 3.7 3.7 0 0 0-.39 1.24c-.07.48-.1 1-.1 1.57zm21.4 4.59v-6.68c0-.46-.06-.85-.19-1.18s-.33-.59-.61-.76c-.28-.19-.66-.28-1.12-.28-.38 0-.7.06-.97.19s-.47.32-.62.58-.21.59-.21.99h-5.05a4.5 4.5 0 0 1 .49-2.08c.34-.65.82-1.21 1.44-1.69.63-.48 1.38-.85 2.25-1.11.88-.27 1.86-.41 2.94-.41a8.7 8.7 0 0 1 3.45.65 5.4 5.4 0 0 1 2.41 1.93 5.5 5.5 0 0 1 .88 3.21v6.64c0 1.06.06 1.86.18 2.41.12.54.29 1.01.51 1.42v.25h-5.07c-.24-.5-.42-1.11-.54-1.83-.11-.73-.17-1.48-.17-2.25zm.61-5.83l.03 2.7h-2.23c-.47 0-.87.06-1.2.19a2 2 0 0 0-.78.54c-.19.22-.33.47-.42.75a3.2 3.2 0 0 0-.12.88c0 .3.07.57.21.81.15.23.35.41.6.54s.53.19.84.19c.56 0 1.03-.11 1.42-.31.4-.22.7-.48.91-.79s.31-.6.31-.87l1.11 2.07c-.2.4-.43.8-.69 1.21-.25.41-.56.79-.94 1.14a4.5 4.5 0 0 1-1.36.84c-.54.21-1.19.31-1.96.31a6.2 6.2 0 0 1-2.76-.61 5.1 5.1 0 0 1-1.99-1.71c-.5-.74-.75-1.59-.75-2.55 0-.84.15-1.59.45-2.25a4.4 4.4 0 0 1 1.39-1.68c.62-.46 1.41-.81 2.37-1.05s2.09-.36 3.39-.36h2.17zm15.81-6.31v3.51h-9.77v-3.51h9.77zm-7.72-4.03h5.05v14.96a2.7 2.7 0 0 0 .15 1c.1.23.27.39.51.5.25.09.58.13.99.13l.72-.01.54-.08v3.61a8.3 8.3 0 0 1-1.35.31 8.9 8.9 0 0 1-1.5.12c-1.08 0-2-.17-2.77-.51a3.6 3.6 0 0 1-1.74-1.6 5.9 5.9 0 0 1-.6-2.85v-15.59zm24.7 20.25h-4.84l.03-4.05h4.81c1 0 1.84-.24 2.53-.72.7-.48 1.23-1.19 1.59-2.14.37-.96.56-2.14.56-3.54v-.94c0-1.05-.1-1.97-.31-2.76a5.5 5.5 0 0 0-.9-1.99c-.4-.54-.9-.94-1.5-1.21-.59-.27-1.27-.41-2.04-.41h-4.86v-4.06h4.86a10.5 10.5 0 0 1 4.06.76 9.1 9.1 0 0 1 3.21 2.16c.91.93 1.61 2.03 2.1 3.31.5 1.27.75 2.68.75 4.23v.91a11.5 11.5 0 0 1-.75 4.23c-.49 1.28-1.18 2.38-2.08 3.31a9.4 9.4 0 0 1-3.19 2.16 10.5 10.5 0 0 1-4.02.75zm-1.83-21.82v21.82h-5.26v-21.82h5.26zm19.71 5.6v16.22h-5.07v-16.22h5.07zm-5.37-4.18c0-.72.26-1.31.78-1.77s1.19-.69 2.02-.69 1.5.23 2.02.69.78 1.05.78 1.77-.26 1.31-.78 1.77-1.19.69-2.02.69-1.5-.23-2.02-.69-.78-1.05-.78-1.77zm16.98 15.84c0-.28-.09-.52-.28-.72-.18-.21-.5-.4-.96-.57a13.4 13.4 0 0 0-1.93-.54c-.79-.17-1.53-.39-2.23-.67a7.7 7.7 0 0 1-1.81-1.02 4.5 4.5 0 0 1-1.23-1.42 4 4 0 0 1-.44-1.89 4.5 4.5 0 0 1 .44-1.95c.3-.62.73-1.16 1.3-1.63.58-.48 1.28-.85 2.11-1.12.83-.28 1.77-.42 2.83-.42 1.46 0 2.72.22 3.78.67a5.5 5.5 0 0 1 2.44 1.86 4.5 4.5 0 0 1 .87 2.74h-5.05c0-.41-.07-.76-.21-1.05-.13-.29-.34-.51-.64-.66-.3-.16-.7-.24-1.2-.24-.35 0-.67.06-.96.19-.28.13-.5.31-.67.54s-.25.5-.25.81c0 .22.05.42.15.6.11.17.28.33.49.48.22.14.5.27.84.39.34.11.75.21 1.23.3a16.8 16.8 0 0 1 3.06.85c.95.37 1.72.9 2.31 1.57a4 4 0 0 1 .9 2.74c0 .72-.16 1.38-.5 1.99-.33.6-.8 1.13-1.42 1.59a7.1 7.1 0 0 1-2.23 1.05c-.87.25-1.85.38-2.94.38-1.55 0-2.86-.27-3.93-.82a6.3 6.3 0 0 1-2.43-2.1c-.54-.85-.81-1.71-.81-2.58h4.7c.02.5.14.91.36 1.23.23.32.53.55.91.7s.82.22 1.32.22c.46 0 .84-.06 1.14-.19.31-.13.55-.31.7-.52.16-.23.24-.5.24-.8zm15.78-11.66v3.51h-9.77v-3.51h9.77zm-7.72-4.03h5.05v14.96c0 .43.05.76.15 1 .1.23.27.39.51.5.25.09.58.13.99.13l.72-.01.54-.08v3.61a8.3 8.3 0 0 1-1.35.31c-.47.08-.97.12-1.5.12-1.08 0-2-.17-2.77-.51a3.6 3.6 0 0 1-1.74-1.6c-.4-.73-.6-1.68-.6-2.85v-15.59zm8.65 12.3v-.31c0-1.19.17-2.28.51-3.28.34-1.01.84-1.88 1.5-2.62s1.47-1.31 2.44-1.72c.97-.42 2.09-.63 3.36-.63a8.4 8.4 0 0 1 3.37.63 6.7 6.7 0 0 1 2.46 1.72 7.5 7.5 0 0 1 1.5 2.62c.34 1 .51 2.09.51 3.28v.31c0 1.18-.17 2.27-.51 3.28-.34 1-.84 1.87-1.5 2.62-.66.74-1.47 1.31-2.44 1.72s-2.09.61-3.36.61-2.39-.2-3.37-.61a6.7 6.7 0 0 1-2.46-1.72c-.66-.75-1.16-1.62-1.5-2.62a10.2 10.2 0 0 1-.51-3.28zm5.05-.31v.31a10.3 10.3 0 0 0 .13 1.71c.09.53.24.99.45 1.39.21.39.49.69.85.91s.81.33 1.35.33c.53 0 .97-.11 1.32-.33.36-.22.64-.52.85-.91.21-.4.36-.87.45-1.39a10.2 10.2 0 0 0 .13-1.71v-.31c0-.59-.04-1.14-.13-1.66-.09-.53-.24-.99-.45-1.39-.21-.41-.49-.73-.85-.96s-.81-.34-1.35-.34c-.53 0-.97.11-1.33.34-.35.23-.63.55-.84.96-.21.4-.36.87-.45 1.39-.09.52-.13 1.07-.13 1.66zm17.94-3.94v12.2h-5.05v-16.22h4.72l.33 4.02zm4.8-4.14l-.09 4.69-.81-.08-.85-.04c-.59 0-1.1.07-1.53.21-.42.13-.77.33-1.05.6-.27.26-.47.59-.6.99-.12.4-.17.86-.16 1.39l-.91-.6c0-1.09.1-2.08.31-2.97a8.1 8.1 0 0 1 .93-2.32 4.4 4.4 0 0 1 1.45-1.51 3.5 3.5 0 0 1 1.92-.54 5.9 5.9 0 0 1 .73.04c.25.03.47.08.66.14zm11.03.12v3.51h-9.77v-3.51h9.77zm-7.72-4.03h5.05v14.96a2.7 2.7 0 0 0 .15 1c.1.23.27.39.51.5.25.09.58.13.99.13l.72-.01.54-.08v3.61a8.3 8.3 0 0 1-1.35.31 8.9 8.9 0 0 1-1.5.12c-1.08 0-2-.17-2.77-.51a3.6 3.6 0 0 1-1.74-1.6 5.9 5.9 0 0 1-.6-2.85v-15.59zm-368.59 93.85l-1.64 9.39h-26.27l1.64-9.39h26.27zm-14.82-41.26l-8.8 50.65h-11.9l8.77-50.65h11.93zm15.1 20.11l-1.56 9.08h-22.89l1.6-9.08h22.86zm6.96-20.11l-1.63 9.43h-26.37l1.67-9.43h26.34zm11.97 21.6l-5.04 29.05h-11.45l6.54-37.64h10.68l-.73 8.59zm-2.85 8.94l-2.47.1a32.1 32.1 0 0 1 1.43-6.68 22.1 22.1 0 0 1 3.06-5.98 14.4 14.4 0 0 1 4.84-4.24c1.93-1.04 4.18-1.53 6.75-1.46 1.9.05 3.48.45 4.73 1.22 1.25.74 2.23 1.74 2.92 2.99.72 1.23 1.18 2.63 1.39 4.21.23 1.55.27 3.17.1 4.84l-4.17 25.12h-11.45l3.93-23.66a13.8 13.8 0 0 0 .07-2.75 3.4 3.4 0 0 0-.83-2.09c-.49-.56-1.31-.85-2.47-.87-1.25-.05-2.33.22-3.24.8a7.5 7.5 0 0 0-2.3 2.23c-.6.93-1.1 1.94-1.5 3.03-.37 1.09-.64 2.16-.8 3.2zm20.84 0l-3.03.1a32.9 32.9 0 0 1 1.39-6.64c.72-2.2 1.71-4.2 2.96-5.98 1.28-1.79 2.86-3.2 4.77-4.24a13.3 13.3 0 0 1 6.75-1.5c2.09.07 3.8.52 5.15 1.36s2.37 1.95 3.06 3.34c.72 1.39 1.18 2.95 1.39 4.66a24 24 0 0 1 .03 5.32l-3.97 23.69h-11.48l3.97-23.73c.12-.95.14-1.84.07-2.68a3.4 3.4 0 0 0-.84-2.09c-.46-.56-1.26-.85-2.4-.87-1.3-.05-2.41.21-3.34.77-.9.56-1.66 1.3-2.26 2.23a11.7 11.7 0 0 0-1.43 3.03c-.35 1.09-.62 2.17-.8 3.24zm41.71-9.67l-7.69 44.25h-11.45l9.05-52.12h10.61l-.52 7.86zm20.53 10.3l-.1.73c-.25 2.27-.78 4.57-1.56 6.89a24.4 24.4 0 0 1-3.17 6.37 15.4 15.4 0 0 1-4.94 4.63c-1.97 1.14-4.29 1.67-6.96 1.6-2.34-.07-4.26-.72-5.74-1.95-1.48-1.25-2.64-2.83-3.48-4.73-.81-1.93-1.38-3.95-1.7-6.09-.3-2.16-.43-4.16-.38-6.02l.1-1.01a38.6 38.6 0 0 1 1.74-6.47 28 28 0 0 1 3.2-6.33c1.32-1.97 2.91-3.56 4.77-4.77 1.85-1.23 4.01-1.81 6.47-1.74 2.57.07 4.69.68 6.33 1.84a10.9 10.9 0 0 1 3.76 4.49 18.8 18.8 0 0 1 1.63 6.05c.23 2.2.24 4.37.03 6.51zm-11.52.7l.07-.73.17-2.89c.05-1.09-.02-2.16-.21-3.2-.16-1.04-.54-1.91-1.15-2.61-.58-.72-1.47-1.1-2.68-1.15-1.41-.07-2.6.15-3.55.66a6.4 6.4 0 0 0-2.33 2.12 11.5 11.5 0 0 0-1.36 3.06 21 21 0 0 0-.7 3.44l-.31 2.85c-.16 1.32-.2 2.67-.1 4.04.09 1.34.49 2.48 1.18 3.41.72.93 1.93 1.41 3.62 1.46 1.34.02 2.46-.3 3.34-.97.91-.67 1.62-1.55 2.16-2.64.56-1.09.97-2.24 1.25-3.44l.59-3.41zm34.51-34.65l-9.25 53.44H255.7l9.25-53.44h11.48zm-.49 35.21l.07-.73a26.5 26.5 0 0 1 1.98-7.62 21.1 21.1 0 0 1 4.07-6.23c1.72-1.79 3.73-3.17 6.05-4.14a18.4 18.4 0 0 1 7.79-1.39c2.76.05 5.15.58 7.17 1.6s3.68 2.41 4.97 4.17c1.3 1.74 2.22 3.76 2.75 6.05a22.1 22.1 0 0 1 .49 7.27l-.07.77c-.3 2.69-.97 5.21-2.02 7.55a21 21 0 0 1-4.14 6.16 17.8 17.8 0 0 1-6.02 4.11c-2.32.97-4.91 1.43-7.76 1.36-2.71-.05-5.09-.57-7.13-1.57-2.02-1.02-3.68-2.39-4.97-4.11-1.3-1.74-2.23-3.73-2.78-5.98-.53-2.27-.68-4.7-.45-7.27zm11.51-.73l-.07.73-.14 3.13a13.6 13.6 0 0 0 .38 3.24c.25 1.02.72 1.87 1.39 2.54.7.65 1.69 1 2.99 1.04 1.39.05 2.55-.24 3.48-.87.95-.63 1.72-1.46 2.3-2.5a13.8 13.8 0 0 0 1.32-3.37c.32-1.21.54-2.37.66-3.48l.07-.73.1-3.1a12.8 12.8 0 0 0-.35-3.31 5.2 5.2 0 0 0-1.43-2.57c-.7-.69-1.69-1.07-2.99-1.11-1.39-.05-2.56.25-3.51.91-.93.65-1.68 1.51-2.26 2.57a13.7 13.7 0 0 0-1.32 3.41 25 25 0 0 0-.63 3.48zm36.95 13.99l14.96-32.67H352l-22.06 43.28c-.67 1.44-1.44 2.75-2.3 3.93a15 15 0 0 1-2.85 3.06c-1.07.86-2.27 1.52-3.62 1.98s-2.86.7-4.56.7a13.4 13.4 0 0 1-2.57-.24l-2.5-.52.87-8.42c.23.02.46.03.7.03a6.7 6.7 0 0 0 .66.04c.97 0 1.84-.11 2.61-.31.79-.19 1.48-.52 2.09-1.01.63-.49 1.17-1.16 1.64-2.02l4.31-7.83zm3.17-32.67l2.71 26.93-.87 11.83h-7.44l-6.26-38.76h11.86zm38.76 38.34a18.9 18.9 0 0 1-7.1-1.43c-2.13-.93-3.94-2.2-5.43-3.83a15.6 15.6 0 0 1-3.31-5.71c-.7-2.2-.95-4.6-.76-7.2l.14-1.36c.28-2.74.93-5.29 1.95-7.65 1.02-2.39 2.39-4.48 4.1-6.26a18.1 18.1 0 0 1 6.05-4.21 18.7 18.7 0 0 1 7.86-1.39c2.62.05 4.88.57 6.78 1.56 1.92 1 3.49 2.35 4.7 4.07 1.21 1.69 2.04 3.64 2.5 5.84.49 2.18.6 4.5.35 6.96l-.66 4.77H353.6l1.18-7.34 18.44.04.21-1.01a6.9 6.9 0 0 0-.14-2.96c-.25-.88-.73-1.58-1.43-2.09-.7-.53-1.63-.82-2.82-.87-1.44-.02-2.63.29-3.58.94a7.4 7.4 0 0 0-2.26 2.57 15.2 15.2 0 0 0-1.29 3.48 30.5 30.5 0 0 0-.66 3.55l-.14 1.32c-.09 1.14-.06 2.24.1 3.31s.49 2.03.97 2.89a6.1 6.1 0 0 0 2.05 2.09c.86.51 1.94.79 3.23.83a10.8 10.8 0 0 0 4.87-.97c1.51-.7 2.86-1.65 4.07-2.85l4.77 6.33c-1.04 1.58-2.39 2.85-4.04 3.83a19.3 19.3 0 0 1-5.32 2.09 21.7 21.7 0 0 1-5.5.66zm35.42-28.39l-4.8 27.69H385.5l6.54-37.64h10.65l-.94 9.95zm12.31-10.26l-1.5 10.92-1.81-.24-1.84-.14c-1.27-.02-2.44.13-3.48.45-1.02.3-1.91.78-2.68 1.43-.74.63-1.36 1.41-1.84 2.37s-.85 2.05-1.08 3.31l-1.91-1.39a46.9 46.9 0 0 1 1.11-5.6 26 26 0 0 1 2.23-5.64c.95-1.76 2.18-3.19 3.69-4.28 1.51-1.11 3.36-1.67 5.57-1.67a11.3 11.3 0 0 1 1.77.14l1.77.35zm-286.81 70.3l18.75.03c3.09.05 5.93.6 8.52 1.67s4.64 2.7 6.12 4.9c1.48 2.18 2.11 4.98 1.88 8.38-.21 2.81-.84 5.17-1.88 7.1a15.2 15.2 0 0 1-4.25 4.87 30.7 30.7 0 0 1-6.3 3.58l-4.31 2.23h-16.84l1.6-9.43 11.45.07c1.53-.02 2.89-.32 4.07-.91 1.21-.58 2.19-1.4 2.96-2.47s1.25-2.37 1.46-3.9a7.9 7.9 0 0 0-.14-3.34c-.28-1-.81-1.79-1.6-2.37a5.7 5.7 0 0 0-3.13-.97l-8.07-.03-7.17 41.23h-11.9l8.77-50.65zm18.4 50.65l-6.99-22.41 12.07-.07 7.62 21.88v.59h-12.7zm36.01.7a18.9 18.9 0 0 1-7.1-1.43 15.8 15.8 0 0 1-5.43-3.83 15.6 15.6 0 0 1-3.3-5.71 19.2 19.2 0 0 1-.77-7.2l.14-1.36c.28-2.74.93-5.29 1.95-7.65 1.02-2.39 2.39-4.48 4.11-6.26a18.1 18.1 0 0 1 6.05-4.21c2.34-1 4.96-1.46 7.86-1.39 2.62.05 4.88.57 6.78 1.56 1.93 1 3.49 2.35 4.7 4.07 1.21 1.69 2.04 3.64 2.5 5.84.49 2.18.6 4.5.35 6.96l-.66 4.77h-29.92l1.18-7.34 18.44.04.21-1.01a6.9 6.9 0 0 0-.14-2.96c-.25-.88-.73-1.58-1.43-2.09-.7-.53-1.64-.82-2.82-.87-1.44-.02-2.63.29-3.58.94a7.4 7.4 0 0 0-2.26 2.57c-.56 1.07-.99 2.23-1.29 3.48a30.3 30.3 0 0 0-.66 3.55l-.14 1.32a14.2 14.2 0 0 0 .1 3.31c.16 1.07.49 2.03.97 2.89a6.1 6.1 0 0 0 2.05 2.09c.86.51 1.94.79 3.24.83a10.8 10.8 0 0 0 4.87-.97c1.51-.7 2.86-1.65 4.07-2.85l4.77 6.33c-1.04 1.58-2.39 2.85-4.03 3.83a19.3 19.3 0 0 1-5.32 2.09 21.7 21.7 0 0 1-5.5.66zm33.4-9.19l11.66-29.15h12.35l-17.85 37.64h-7.27l1.11-8.49zm.28-29.15l2.51 30.16-1.25 7.48h-6.99l-6.05-37.64h11.79zm39.21 0l-6.51 37.64h-11.48l6.54-37.64h11.45zm-10.44-9.5c-.05-1.81.56-3.25 1.81-4.31 1.28-1.07 2.77-1.61 4.49-1.63 1.65-.02 3.11.46 4.38 1.46 1.28.97 1.93 2.33 1.95 4.07.05 1.81-.57 3.25-1.84 4.31a6.8 6.8 0 0 1-4.45 1.63c-1.65.02-3.11-.45-4.38-1.43-1.25-1-1.9-2.37-1.95-4.11zm29.47 47.84a18.9 18.9 0 0 1-7.1-1.43c-2.13-.93-3.94-2.2-5.43-3.83s-2.59-3.53-3.31-5.71a19.2 19.2 0 0 1-.77-7.2l.14-1.36a25.8 25.8 0 0 1 1.95-7.65c1.02-2.39 2.39-4.48 4.1-6.26a18.1 18.1 0 0 1 6.05-4.21c2.34-1 4.96-1.46 7.86-1.39 2.62.05 4.88.57 6.78 1.56 1.92 1 3.49 2.35 4.7 4.07 1.21 1.69 2.04 3.64 2.5 5.84.49 2.18.6 4.5.35 6.96l-.66 4.77h-29.92l1.18-7.34 18.44.04.21-1.01a6.9 6.9 0 0 0-.14-2.96c-.25-.88-.73-1.58-1.43-2.09-.7-.53-1.63-.82-2.82-.87-1.44-.02-2.63.29-3.58.94a7.4 7.4 0 0 0-2.26 2.57c-.56 1.07-.99 2.23-1.29 3.48a30.3 30.3 0 0 0-.66 3.55l-.14 1.32c-.09 1.14-.06 2.24.1 3.31s.49 2.03.97 2.89a6.1 6.1 0 0 0 2.05 2.09c.86.51 1.94.79 3.23.83a10.8 10.8 0 0 0 4.87-.97c1.51-.7 2.86-1.65 4.07-2.85l4.77 6.33c-1.04 1.58-2.39 2.85-4.04 3.83a19.3 19.3 0 0 1-5.32 2.09 21.7 21.7 0 0 1-5.5.66zm32.22-12.45l11.1-25.88h7.44l-5.01 13.74-10.68 23.9h-5.98l3.13-11.76zm1.81-25.88l-.38 26.82-1.43 10.82h-6.82l-2.12-37.64h10.75zm18.19 25.12l8.49-25.12h11.2l-15.1 37.64h-7.17l2.57-12.52zm-.9-25.12l2.3 27-.87 10.65h-5.64l-2.37-24.81-.14-12.84h6.71zm39.17 26.86c.19-.97-.1-1.72-.87-2.23-.74-.53-1.63-.93-2.68-1.18l-2.47-.66a32.1 32.1 0 0 1-4.21-1.43 17.5 17.5 0 0 1-3.79-2.23c-1.11-.9-2.01-1.98-2.68-3.24-.65-1.27-.94-2.76-.87-4.45.07-2.09.59-3.9 1.57-5.43 1-1.53 2.28-2.8 3.86-3.79 1.58-1.02 3.29-1.77 5.15-2.26a20.2 20.2 0 0 1 5.6-.66c2.55.02 4.95.48 7.2 1.36a12.7 12.7 0 0 1 5.53 4.04c1.44 1.81 2.17 4.11 2.19 6.89l-11.38-.03a6.2 6.2 0 0 0-.35-2.37c-.23-.67-.64-1.18-1.22-1.53-.58-.37-1.37-.56-2.37-.56a5.6 5.6 0 0 0-2.19.45c-.72.3-1.34.73-1.88 1.29-.51.56-.84 1.23-.97 2.02-.14.67-.05 1.24.28 1.7a3.6 3.6 0 0 0 1.32 1.08 11.4 11.4 0 0 0 1.74.7l1.67.38a37.2 37.2 0 0 1 6.12 2.05c2 .83 3.62 2.03 4.87 3.58 1.27 1.53 1.88 3.57 1.81 6.12-.07 2.16-.65 4-1.74 5.53a12.7 12.7 0 0 1-4.21 3.69 20 20 0 0 1-5.5 2.02 24.3 24.3 0 0 1-5.67.63c-2.55-.05-4.96-.56-7.24-1.53a13.9 13.9 0 0 1-5.57-4.31 11.9 11.9 0 0 1-2.23-6.99l10.58.03c.02 1.09.22 2.01.59 2.75a4.1 4.1 0 0 0 1.71 1.67 6.1 6.1 0 0 0 2.75.56 8.1 8.1 0 0 0 2.37-.35c.79-.25 1.46-.65 2.02-1.18.58-.56.96-1.26 1.15-2.12z" fill="#5b5b5b"/><g filter="url(#E)"><path d="M323.37 71.07a11.9 11.9 0 0 0-11.87-11.87H1.1v88.79h310.39a11.9 11.9 0 0 0 11.88-11.87V71.07z" fill="#3886e7"/><path d="M48.03 107.35h-6.3v-4.71h6.3c.86 0 1.55-.15 2.09-.44s.92-.69 1.17-1.2c.26-.52.38-1.11.38-1.76 0-.7-.13-1.34-.38-1.93a3.1 3.1 0 0 0-1.17-1.43c-.53-.37-1.23-.56-2.09-.56h-4v20.61h-6.11V90.62h10.11c2.03 0 3.77.37 5.24 1.11 1.47.74 2.6 1.76 3.39 3.06a8.3 8.3 0 0 1 1.18 4.42 7.7 7.7 0 0 1-1.18 4.28c-.79 1.22-1.92 2.17-3.39 2.85-1.46.67-3.21 1.01-5.24 1.01zm22.39 3.86v-7.76c0-.53-.08-.99-.23-1.37s-.39-.68-.71-.89c-.32-.22-.76-.33-1.3-.33-.44 0-.82.07-1.13.23s-.55.38-.71.68-.24.69-.24 1.15h-5.86a5.2 5.2 0 0 1 .57-2.42c.39-.75.95-1.41 1.67-1.97.73-.56 1.6-.99 2.61-1.29a11.6 11.6 0 0 1 3.41-.47c1.5 0 2.83.25 4 .75 1.18.5 2.12 1.25 2.8 2.24.68.99 1.03 2.23 1.03 3.72v7.71c0 1.23.07 2.16.21 2.8.14.63.34 1.18.59 1.65v.29h-5.88c-.28-.58-.49-1.29-.63-2.12a17.5 17.5 0 0 1-.19-2.61zm.71-6.77l.03 3.13h-2.59c-.55 0-1.01.08-1.39.23-.37.15-.67.36-.9.63-.22.26-.38.55-.49.87-.09.33-.14.67-.14 1.03 0 .35.08.66.24.94a1.8 1.8 0 0 0 .7.63c.29.15.61.23.97.23.65 0 1.2-.12 1.65-.36.46-.25.82-.56 1.06-.92s.37-.7.37-1.01l1.29 2.4c-.23.46-.5.93-.8 1.41-.29.47-.66.92-1.1 1.32-.43.39-.96.72-1.58.97a6.3 6.3 0 0 1-2.28.37 7.2 7.2 0 0 1-3.2-.71 5.9 5.9 0 0 1-2.31-1.98c-.58-.86-.87-1.84-.87-2.96 0-.97.17-1.84.52-2.61a5.1 5.1 0 0 1 1.62-1.95 7.7 7.7 0 0 1 2.75-1.22 16.3 16.3 0 0 1 3.93-.42h2.52zm14.35-2.66v14.16h-5.86V97.12h5.48l.38 4.66zm5.57-4.8l-.1 5.44-.94-.09-.99-.05c-.68 0-1.28.08-1.77.24a3 3 0 0 0-1.22.7c-.31.3-.55.68-.7 1.15a5.3 5.3 0 0 0-.19 1.62l-1.06-.7c0-1.26.12-2.41.37-3.44.26-1.04.61-1.94 1.08-2.7.46-.77 1.03-1.35 1.69-1.76a4.1 4.1 0 0 1 2.23-.63c.29 0 .57.02.85.05.29.03.55.09.77.16zm12.8.14v4.07H92.51v-4.07h11.34zm-8.96-4.68h5.86v17.36c0 .5.06.89.17 1.16.12.27.31.46.59.57.29.11.67.16 1.15.16l.83-.02.63-.09v4.19c-.5.16-1.02.28-1.56.36-.55.09-1.12.14-1.74.14-1.25 0-2.32-.2-3.22-.59a4.2 4.2 0 0 1-2.02-1.86c-.46-.85-.7-1.95-.7-3.31V92.44zm31.61 10.32v4.54h-10.45v-4.54h10.45zm31.05 8.66v4.52h-17.67v-3.83l8.14-8.56c.72-.82 1.3-1.56 1.74-2.21.44-.66.76-1.26.96-1.79a4 4 0 0 0 .31-1.44c0-.73-.11-1.34-.33-1.83-.21-.5-.52-.88-.94-1.13a2.8 2.8 0 0 0-1.51-.38c-.6 0-1.13.17-1.58.52s-.81.82-1.06 1.43a5.4 5.4 0 0 0-.37 2.04h-5.88c0-1.55.38-2.97 1.13-4.26.76-1.29 1.83-2.31 3.18-3.08 1.36-.78 2.93-1.17 4.71-1.17 1.87 0 3.43.29 4.7.87s2.22 1.42 2.85 2.52c.65 1.09.97 2.41.97 3.95 0 .88-.14 1.73-.42 2.54a10.9 10.9 0 0 1-1.2 2.42c-.52.79-1.16 1.6-1.91 2.44l-2.54 2.66-3.27 3.78h9.99z" class="B"/></g><g clip-path="url(#K)"><path transform="translate(843.12 141.5)" fill="url(#F)" fill-opacity=".1" d="M0 0h178.13v356.25H0z"/><path d="M825.31 442.27V289.14c0-4.89-3.69-7.12-8.25-5.01l-103.36 47.83c-4.56 2.11-8.25 7.79-8.25 12.66v153.13l119.85-55.47z" class="M"/><path d="M704.2 497.22V344.09a15.3 15.3 0 0 1 8.25-12.66L815.8 283.6c1.81-.83 3.48-.99 4.83-.57.17.05 1.4.56 1.56.63-1.41-.54-3.19-.44-5.13.46L713.7 331.95c-4.56 2.11-8.25 7.79-8.25 12.66v153.13l-1.26-.53h.01z" class="E"/><g fill="#f0f8ff"><path d="M786.09 334.33l34.59-16.18v121.97l-34.59 16.02V334.33zm-4.62-11.12v135.07l-71.39 33.04V356.59l71.39-33.38z"/></g><path d="M704.2 353.92v-9.83a15.3 15.3 0 0 1 8.25-12.66L815.8 283.6c1.81-.83 3.48-.99 4.83-.57.17.05 1.4.56 1.56.63-1.41-.54-3.19-.44-5.13.46L713.7 331.95c-4.56 2.11-8.25 7.79-8.25 12.66v9.83l-1.26-.53h.01z" fill="#004eae"/><g class="C"><path d="M713.71 331.95l103.36-47.82c4.56-2.11 8.25.13 8.25 5.01v9.67l-119.85 55.48v-9.67a15.3 15.3 0 0 1 8.25-12.66v-.01zm20.69 28.12l-6.86 3.18v-1.81l6.86-3.18v1.81zm8.38-3.87l-6.77 3.12v-1.81l6.77-3.12v1.81zm20.6-9.55l-18.99 8.8v-1.81l18.99-8.8v1.81zm1.61-2.56l9.69-4.59v1.81l-9.69 4.59v-1.81zm-26.65 7.12l36.34-17.1v2.75l-36.34 17.11v-2.75z"/></g><g class="E"><path d="M744.22 378.01l-16.68 7.74v-1.81l16.68-7.74v1.81zm3.62-1.66l-2.01.91v-1.81l2.01-.91v1.81zm15.55-7.21l-13.93 6.46v-1.81l13.93-6.46v1.81zm1.61-2.56l9.69-4.59v1.81l-9.69 4.59v-1.81zm-44.35 24.91l12.94-6.02v1.81l-12.94 6.02v-1.81zm14.57-6.77l12.82-5.93v1.81l-12.82 5.93v-1.81zm14.43-6.67l9.79-4.6v1.81l-9.79 4.6v-1.81zm11.41-5.35l13.64-6.44v1.81l-13.64 6.44v-1.81zm-21.62 16.1l-11.9 5.53v-1.81l11.9-5.53v1.81zm8.39-3.86l-6.77 3.12v-1.81l6.77-3.12v1.81zm15.55-7.21l-13.93 6.46v-1.81l13.93-6.46v1.81zm1.61-2.56l9.69-4.59v1.81l-9.69 4.59v-1.81z"/></g><path d="M734.4 407.07l-10.85 4.9v-1.81l10.85-4.9v1.81zm8.38-3.87l-6.77 3.12v-1.81l6.77-3.12v1.81zm20.6-9.55l-18.99 8.8v-1.81l18.99-8.8v1.81zm1.61-2.56l9.69-4.59v1.81L765 392.9v-1.81zm-26.65 7.11l36.34-17.1v2.75l-36.34 17.11v-2.75z" class="C"/><path d="M725.77 444.54l9.93-4.51v1.81l-9.93 4.5v-1.81zm11.55-5.26l12.82-5.93v1.81l-12.82 5.93v-1.81zm14.43-6.67l15.75-7.31v1.81l-15.75 7.31v-1.81zm17.37-8.07l5.57-2.66v1.81l-5.57 2.66v-1.81z" class="E"/><path d="M734.4 437.28l-6.86 3.18v-1.81l6.86-3.18v1.81zm8.38-3.87l-6.77 3.12v-1.81l6.77-3.12v1.81zm20.6-9.55l-18.99 8.8v-1.81l18.99-8.8v1.81zm1.61-2.56l9.69-4.59v1.81l-9.69 4.59v-1.81zm-26.65 6.18l36.34-17.11v2.75l-36.34 17.1v-2.75z" class="C"/><g class="E"><path d="M744.31 442.15l-15.93 7.3v-1.81l15.93-7.3v1.81zm3.53-1.68l-1.92.93v-1.81l1.92-.93v1.81zm15.55-7.21l-13.93 6.46v-1.81l13.93-6.46v1.81zm1.61-2.56l9.69-4.59v1.81l-9.69 4.59v-1.81zm-39.23 22.5l17.33-7.95v1.81l-17.33 7.95v-1.81zm18.94-8.7l12.82-5.93v1.81l-12.82 5.93v-1.81zm14.44-6.67l2-.93v1.81l-2 .93v-1.81zm3.61-1.69l11.93-5.58v1.81l-11.93 5.59v-1.81-.01z"/></g><g class="D"><use href="#N"/><path d="M721.82 374.61l2.11 1.01h0v-.01h0c-.12-.14.03-.49.29-.62l2.5-1.2c.15-.07.27-.22.32-.37l.77-2.66c.04-.16.23-.38.42-.41.05-.01.1 0 .14.01l-2.14-1.03c-.01 0-.01-.01-.02-.01-.04-.02-.08-.02-.14-.01-.18.02-.37.25-.42.41l-.77 2.65c-.04.15-.17.3-.32.37l-2.5 1.2c-.29.14-.45.56-.24.66h0 0zm8.29-4.43c-.07-.03-.16-.02-.24.02l-1.28.61.63 1.56c.04.1.16.14.32.07l2.5-1.2c.09-.05.17-.05.23-.02l-2.16-1.04z"/></g><path d="M732.04 371.24l-2.5 1.2c-.16.08-.28.03-.32-.07l-.63-1.56-.14-.36c-.02-.04-.04-.07-.08-.09s-.09-.02-.14-.02c-.19.03-.37.25-.42.41l-.77 2.65c-.04.15-.17.3-.32.37l-2.5 1.2c-.26.13-.41.48-.29.62h0c0 .01.01.01.01.02h0c.02.01.03.02.03.02s.02.01.04.01l2.02.44c.14.03.16.18.12.3l-.77 2.65c-.04.14-.01.23.06.28.01 0 .01.01.02.01.11.05.28 0 .43-.18l2.02-2.38c.02-.03.05-.06.07-.08.07-.07.21-.13.32-.11l2.02.44c.26.06.61-.36.52-.61l-.77-1.91c-.06-.13.02-.31.12-.42l2.02-2.38c.18-.21.17-.44.04-.51-.07-.03-.14-.02-.24.02z" class="J"/><g class="H"><path d="M734.42 370.58l-.7 2.4c-.03.1-.03.23.08.29l2.14 1.03c-.07-.04-.1-.14-.06-.28l.77-2.65c.03-.11.02-.24-.08-.29-.01-.01-.03-.01-.04-.02l-2.02-.44c-.02-.01-.04-.02-.06-.03-.01 0-.02-.01-.03-.01z"/><path d="M738.3 365.72c.05-.16.23-.38.42-.41.05-.01.1 0 .14.02l-2.14-1.03c-.01 0-.01-.01-.02-.01-.04-.02-.09-.02-.14-.02-.18.03-.37.25-.42.41l-.77 2.66c-.04.15-.17.3-.32.37l-2.5 1.2c-.3.15-.45.57-.24.66l2.1 1.01v-.01c-.12-.14.03-.49.29-.62l2.5-1.2c.15-.07.27-.23.32-.37l.77-2.65z"/><use href="#O"/></g><path d="M738.94 365.42c-.01-.04-.04-.07-.08-.09s-.09-.02-.14-.02c-.18.03-.37.25-.42.41l-.77 2.66c-.04.15-.17.3-.32.37l-2.5 1.2c-.26.13-.41.48-.29.62.01.01.02.02.03.03.02.01.04.02.06.02l2.02.44c.01 0 .03.01.04.02.1.05.11.18.08.29l-.77 2.65c-.04.14-.01.23.06.28.01 0 .01.01.02.01.11.05.28 0 .44-.18l2.02-2.38a.9.9 0 0 1 .07-.08c.07-.06.21-.13.32-.11l2.02.44c.26.05.61-.36.51-.61l-.77-1.91c-.05-.13.02-.3.12-.42l2.02-2.38c.18-.21.17-.44.04-.51-.01 0-.02-.01-.02-.01-.06-.02-.12-.01-.21.03l-2.5 1.2c-.16.08-.28.03-.32-.07l-.63-1.55-.14-.36z" class="I"/><g class="H"><use href="#P"/><path d="M749.35 360.28l-2.14-1.03c-.01 0-.01 0-.02-.01-.04-.02-.08-.02-.14-.02-.18.02-.37.25-.42.41l-.77 2.65c-.04.15-.17.3-.32.38l-2.5 1.2c-.29.14-.45.57-.24.66l2.1 1.01v-.01c-.12-.14.03-.49.29-.62l2.5-1.2c.15-.07.28-.23.32-.37l.77-2.65c.05-.16.23-.38.42-.41.05-.01.1 0 .14.02h0z"/><use href="#Q"/></g><path d="M753.22 361.64c.18-.21.17-.44.04-.51-.07-.03-.14-.02-.24.02l-2.5 1.2c-.16.08-.28.03-.32-.07l-.63-1.55-.14-.36c-.01-.04-.04-.07-.08-.09-.04-.02-.08-.03-.14-.02-.18.03-.37.25-.42.41l-.77 2.66c-.04.14-.17.3-.32.37l-2.5 1.2c-.27.13-.42.48-.29.62 0 .01.01.02.02.02.02.01.03.02.04.02s.02.01.04.02l2.02.44c.14.03.15.18.12.3l-.77 2.65c-.04.14 0 .23.07.28.01 0 .01.01.02.01.11.05.28 0 .43-.18l2.02-2.38c.02-.03.05-.05.07-.08.07-.07.21-.13.32-.11l2.02.44c.26.06.61-.36.51-.61l-.77-1.91c-.05-.13.02-.3.12-.42l2.02-2.38z" class="I"/><g class="H"><use href="#R"/><path d="M757.7 354.21c-.01 0-.01-.01-.02-.01-.04-.02-.09-.02-.14-.02-.19.03-.37.25-.42.41l-.77 2.65c-.04.16-.18.31-.32.38l-2.5 1.2c-.29.14-.45.57-.24.66h0l2.11 1.01v-.01c-.13-.14.02-.5.29-.62l2.5-1.2c.15-.07.28-.23.32-.37l.77-2.65c.05-.16.23-.38.42-.41.05-.01.1 0 .13.02h0l-2.14-1.03z"/></g><path d="M763.52 356.11l-2.5 1.2c-.1.05-.17.05-.23.02-.01 0-.02-.01-.03-.01-.02-.02-.05-.05-.06-.08l-.63-1.56-.14-.36c-.01-.04-.04-.07-.09-.09s-.08-.03-.13-.02c-.18.03-.37.25-.42.41l-.77 2.65c-.04.15-.17.3-.32.37l-2.49 1.2c-.27.13-.42.48-.29.62.01.01.02.02.03.03.02.01.04.02.06.03l2.02.44c.14.03.15.18.12.3l-.77 2.65c-.04.14-.01.23.06.28.01 0 .01.01.02.01.11.05.28 0 .43-.18l2.02-2.38c.02-.03.05-.05.08-.08.07-.06.21-.13.32-.11l2.02.44c.26.06.61-.36.51-.61l-.77-1.91c-.05-.13.03-.3.12-.42l2.02-2.38c.18-.21.17-.44.04-.51-.01 0-.02-.01-.03-.01-.06-.01-.13-.01-.21.03z" class="I"/><g class="H"><path d="M763.51 356.11c.09-.04.15-.05.21-.03l-2.14-1.03c-.05-.03-.13-.03-.24.02l-1.28.62.63 1.55c.01.03.03.06.06.08l.03.01c.06.03.14.03.23-.02l2.5-1.2zm2.5-.62c-.01 0-.03-.01-.04-.02s-.02-.01-.03-.01-.02-.01-.03-.02l-.7 2.4c-.03.1-.03.24.08.29l2.14 1.03c-.07-.05-.1-.14-.06-.28l.77-2.65c.03-.12.02-.27-.12-.3l-2.02-.44z"/><path d="M765.92 355.44c-.12-.14.03-.5.29-.62l2.5-1.2c.14-.07.27-.21.32-.37l.77-2.65c.05-.16.23-.38.42-.41.05-.01.1 0 .14.01l-2.15-1.03c-.05-.02-.1-.03-.15-.02-.18.02-.37.25-.42.41l-.77 2.65c-.05.17-.18.31-.32.38l-2.5 1.2c-.29.14-.45.57-.24.66l2.11 1.01v-.01h0 0z"/><use href="#S"/></g><path d="M774.01 351.07l-2.5 1.2c-.16.08-.28.03-.32-.07l-.63-1.56-.14-.36c-.02-.04-.05-.07-.09-.09s-.08-.02-.14-.01c-.18.03-.37.25-.42.41l-.77 2.66c-.05.16-.18.31-.32.37l-2.5 1.2c-.26.13-.41.48-.29.62h0c.01.01.01.02.03.03s.02.01.03.01.02.01.04.02l2.02.44c.14.03.15.18.12.3l-.77 2.65c-.04.14-.01.23.06.28.01 0 .01.01.02.01.11.05.28 0 .43-.18l2.02-2.38.08-.08c.07-.07.21-.13.32-.11l2.02.44c.26.06.61-.36.51-.61l-.77-1.91c-.05-.13.03-.3.12-.42l2.02-2.38c.18-.21.17-.44.04-.51-.07-.03-.15-.02-.24.02z" class="I"/><g class="D"><path d="M723.93 423.48l-.7 2.4c-.03.1-.03.24.08.29l2.14 1.03c-.07-.05-.1-.14-.06-.28l.77-2.65c.04-.12.02-.27-.12-.3l-2.02-.44c-.01 0-.03-.01-.04-.01l-.03-.01-.03-.02z"/><path d="M721.82 422.47l2.11 1.01h0v-.01h0c-.12-.14.03-.49.29-.62l2.5-1.2c.15-.07.27-.22.32-.37l.77-2.65c.04-.16.23-.38.42-.41.05-.01.1 0 .14.02l-2.14-1.03c-.01 0-.01-.01-.02-.01-.04-.02-.08-.02-.14-.02-.18.02-.37.25-.42.41l-.77 2.65c-.04.15-.17.3-.32.38l-2.5 1.2c-.29.14-.45.56-.24.66h0 0z"/><use href="#T"/></g><path d="M732.04 419.1l-2.5 1.2c-.16.08-.28.03-.32-.07l-.63-1.55-.14-.36c-.02-.04-.04-.07-.08-.09s-.09-.02-.14-.02c-.19.03-.37.25-.42.41l-.77 2.65c-.04.15-.17.3-.32.37l-2.5 1.2c-.26.13-.41.48-.29.62h0c0 .01.01.01.01.02h0c.02.01.03.02.03.02s.02.01.04.02l2.02.44c.14.03.16.18.12.3l-.77 2.65c-.04.14-.01.23.06.28l.02.01c.11.05.28 0 .43-.18l2.02-2.38c.02-.03.05-.06.07-.08.07-.07.21-.13.32-.11l2.02.44c.26.06.61-.36.52-.61l-.77-1.91c-.06-.13.02-.3.12-.42l2.02-2.38c.18-.21.17-.44.04-.51-.07-.03-.14-.02-.24.02z" class="J"/><g class="H"><path d="M734.42 418.44l-.7 2.4c-.03.1-.03.23.08.29l2.14 1.03c-.07-.04-.1-.14-.06-.28l.77-2.65c.03-.11.02-.24-.08-.29-.01-.01-.03-.01-.04-.02l-2.02-.44c-.02-.01-.04-.01-.06-.02-.01 0-.02-.01-.03-.01z"/><path d="M738.3 413.57c.05-.16.23-.38.42-.41.05-.01.1 0 .14.02l-2.14-1.03c-.01 0-.01-.01-.02-.01-.04-.02-.09-.03-.14-.02-.18.03-.37.25-.42.41l-.77 2.65c-.04.15-.17.3-.32.38l-2.5 1.2c-.3.14-.45.57-.24.66l2.1 1.01v-.01c-.12-.14.03-.5.29-.62l2.5-1.2c.15-.07.27-.23.32-.37l.77-2.65zm2.06-.56l-1.28.61.63 1.55c.04.1.16.15.32.07l2.5-1.2c.09-.04.16-.05.21-.03l-2.14-1.03c-.07-.03-.16-.02-.24.02z"/></g><path d="M738.94 413.28c-.01-.04-.04-.07-.08-.09s-.09-.02-.14-.02c-.18.03-.37.25-.42.41l-.77 2.65c-.04.15-.17.3-.32.38l-2.5 1.2c-.26.13-.41.48-.29.62.01.01.02.02.03.03.02.01.04.02.06.03l2.02.44c.01 0 .03.01.04.02.1.05.11.18.08.29l-.77 2.65c-.04.14-.01.23.06.28.01 0 .01.01.02.01.11.05.28 0 .44-.18l2.02-2.38c.02-.03.05-.05.07-.08.07-.06.21-.13.32-.11l2.02.44c.26.06.61-.36.51-.61l-.77-1.91c-.05-.13.02-.3.12-.42l2.02-2.38c.18-.21.17-.44.04-.51-.01 0-.02-.01-.02-.01-.06-.02-.12-.01-.21.03l-2.5 1.2c-.16.08-.28.03-.32-.07l-.63-1.56-.14-.36z" class="I"/><g class="H"><path d="M744.92 413.4l-.69 2.4c-.03.1-.03.24.08.29l2.14 1.03c-.07-.05-.1-.14-.07-.28l.78-2.65c.03-.12.02-.27-.12-.3l-2.02-.44c-.01 0-.03-.01-.04-.02-.01 0-.02-.01-.03-.01s-.02-.01-.03-.01z"/><path d="M749.35 408.14l-2.14-1.03c-.01 0-.01-.01-.02-.01-.04-.02-.08-.02-.14-.02-.18.02-.37.25-.42.41l-.77 2.65c-.04.15-.17.3-.32.38l-2.5 1.2c-.29.14-.45.57-.24.66l2.1 1.01v-.01c-.12-.14.03-.5.29-.62l2.5-1.2c.15-.07.28-.23.32-.37l.77-2.65c.05-.16.23-.38.42-.41a.2.2 0 0 1 .14.02h0zm3.91.84l-2.16-1.04c-.07-.03-.16-.02-.24.02l-1.28.61.63 1.56c.04.1.16.15.32.07l2.5-1.2c.09-.05.17-.05.23-.02z"/></g><path d="M753.22 409.5c.18-.21.17-.44.04-.51-.07-.03-.14-.02-.24.02l-2.5 1.2c-.16.08-.28.03-.32-.07l-.63-1.56-.14-.36c-.01-.04-.04-.07-.08-.09-.04-.02-.08-.03-.14-.02-.18.03-.37.25-.42.41l-.77 2.65c-.04.14-.17.3-.32.37l-2.5 1.2c-.27.13-.42.48-.29.62 0 .01.01.01.02.02l.04.02c.01.01.02.01.04.02l2.02.44c.14.03.15.18.12.3l-.77 2.65c-.04.14 0 .23.07.28.01 0 .01.01.02.01.11.05.28 0 .43-.18l2.02-2.38c.02-.03.05-.05.07-.08.07-.07.21-.13.32-.11l2.02.44c.26.06.61-.36.51-.61l-.77-1.91c-.05-.13.02-.3.12-.42l2.02-2.38z" class="I"/><g class="H"><path d="M755.42 408.35l-.7 2.4c-.03.1-.03.23.08.29l2.15 1.03c-.07-.04-.1-.14-.06-.28l.77-2.65c.03-.12.02-.27-.12-.3l-2.02-.44c-.02-.01-.04-.02-.06-.02-.01 0-.02-.01-.03-.01z"/><path d="M757.7 402.07c-.01 0-.01-.01-.02-.01-.04-.02-.09-.02-.14-.02-.19.03-.37.25-.42.41l-.77 2.66c-.04.16-.18.31-.32.37l-2.5 1.2c-.29.14-.45.57-.24.66h0l2.11 1.01v-.01c-.13-.14.02-.49.29-.62l2.5-1.2c.15-.07.28-.23.32-.37l.77-2.65c.05-.16.23-.38.42-.41.05-.01.1 0 .13.02h0l-2.14-1.03z"/></g><path d="M763.52 403.96l-2.5 1.2c-.1.05-.17.05-.23.02l-.03-.01c-.02-.02-.05-.05-.06-.08l-.63-1.55-.14-.36c-.01-.04-.04-.07-.09-.09s-.08-.02-.13-.02c-.18.03-.37.25-.42.41l-.77 2.65c-.04.15-.17.3-.32.38l-2.49 1.2c-.27.13-.42.48-.29.62.01.01.02.02.03.03.02.01.04.02.06.02l2.02.44c.14.03.15.18.12.3l-.77 2.65c-.04.14-.01.23.06.28.01 0 .01.01.02.01.11.05.28 0 .43-.18l2.02-2.38c.02-.03.05-.05.08-.08.07-.06.21-.13.32-.11l2.02.44c.26.06.61-.36.51-.61l-.77-1.91c-.05-.13.03-.3.12-.42l2.02-2.38c.18-.21.17-.44.04-.51-.01 0-.02-.01-.03-.01-.06-.01-.13-.01-.21.03z" class="I"/><g class="H"><path d="M763.51 403.96c.09-.04.15-.05.21-.03l-2.14-1.03c-.05-.02-.13-.03-.24.02l-1.28.61.63 1.56c.01.03.03.06.06.08.01 0 .02.01.03.01.06.03.14.03.23-.02l2.5-1.2zm2.5-.61c-.01 0-.03-.01-.04-.02s-.02-.01-.03-.01l-.03-.01-.7 2.4c-.03.1-.03.24.08.29l2.14 1.03c-.07-.05-.1-.14-.06-.28l.77-2.65c.03-.12.02-.27-.12-.3l-2.02-.44z"/><path d="M765.92 403.3c-.12-.14.03-.49.29-.62l2.5-1.2c.14-.07.27-.21.32-.37l.77-2.65c.05-.16.23-.38.42-.41.05-.01.1 0 .14.01l-2.15-1.03a.2.2 0 0 0-.15-.02c-.18.02-.37.25-.42.41l-.77 2.65c-.05.17-.18.31-.32.38l-2.5 1.2c-.29.14-.45.57-.24.66l2.11 1.01v-.01h0 0zm5.93-5.41l-1.28.61.63 1.55c.04.1.15.14.32.07l2.5-1.2c.09-.04.17-.05.23-.03l-2.15-1.03c-.07-.03-.16-.02-.24.02z"/></g><path d="M774.01 398.93l-2.5 1.2c-.16.08-.28.03-.32-.07l-.63-1.55-.14-.36c-.02-.04-.05-.07-.09-.09s-.08-.03-.14-.02c-.18.03-.37.25-.42.41l-.77 2.65c-.05.16-.18.31-.32.38l-2.5 1.2c-.26.13-.41.48-.29.62h0c.01.01.01.02.03.02l.03.01c.01.01.02.01.04.01l2.02.44c.14.03.15.18.12.3l-.77 2.65c-.04.14-.01.23.06.28.01 0 .01.01.02.01.11.05.28 0 .43-.18l2.02-2.38.08-.08c.07-.07.21-.14.32-.11l2.02.44c.26.06.61-.36.51-.6l-.77-1.91c-.05-.13.03-.31.12-.42l2.02-2.38c.18-.21.17-.44.04-.51-.07-.03-.15-.02-.24.02z" class="I"/><g class="D"><path d="M723.93 471.34l-.7 2.4c-.03.1-.03.24.08.29l2.14 1.03c-.07-.05-.1-.14-.06-.28l.77-2.65c.04-.12.02-.27-.12-.3l-2.02-.44c-.01 0-.03-.01-.04-.02l-.03-.01-.03-.01z"/><path d="M721.82 470.32l2.11 1.01h0 0 0c-.12-.14.03-.5.29-.62l2.5-1.2c.15-.07.27-.22.32-.37l.77-2.66c.04-.16.23-.38.42-.41.05-.01.1 0 .14.02l-2.14-1.03c-.01 0-.01-.01-.02-.01-.04-.02-.08-.02-.14-.01-.18.02-.37.25-.42.41l-.77 2.65c-.04.15-.17.3-.32.37l-2.5 1.2c-.29.14-.45.56-.24.66h0 0zm8.29-4.43c-.07-.03-.16-.02-.24.02l-1.28.61.63 1.55c.04.1.16.14.32.07l2.5-1.2c.09-.05.17-.05.23-.02l-2.16-1.04z"/></g><path d="M732.04 466.95l-2.5 1.2c-.16.08-.28.03-.32-.07l-.63-1.56-.14-.36c-.02-.04-.04-.07-.08-.09s-.09-.02-.14-.01c-.19.03-.37.25-.42.41l-.77 2.65c-.04.15-.17.3-.32.37l-2.5 1.2c-.26.13-.41.48-.29.62h0c0 .01.01.01.01.02h0c.02.01.03.02.03.02s.02.01.04.02l2.02.44c.14.03.16.18.12.3l-.77 2.65c-.04.14-.01.23.06.28.01 0 .01.01.02.01.11.05.28 0 .43-.18l2.02-2.38c.02-.03.05-.06.07-.08.07-.07.21-.14.32-.11l2.02.44c.26.06.61-.36.52-.61l-.77-1.91c-.06-.13.02-.3.12-.42l2.02-2.38c.18-.21.17-.44.04-.51-.07-.03-.14-.02-.24.02z" class="J"/><g class="H"><path d="M734.42 466.3l-.7 2.4c-.03.1-.03.23.08.29l2.14 1.03c-.07-.04-.1-.14-.06-.28l.77-2.66c.03-.11.02-.24-.08-.29-.01-.01-.03-.01-.04-.01l-2.02-.44c-.02-.01-.04-.01-.06-.02-.01 0-.02-.01-.03-.01z"/><path d="M738.3 461.43c.05-.16.23-.38.42-.41.05-.01.1 0 .14.01l-2.14-1.03c-.01 0-.01-.01-.02-.01-.04-.02-.09-.02-.14-.01-.18.03-.37.25-.42.41l-.77 2.65c-.04.15-.17.3-.32.38l-2.5 1.2c-.3.14-.45.57-.24.66l2.1 1.01v-.01c-.12-.14.03-.49.29-.62l2.5-1.2c.15-.07.27-.23.32-.37l.77-2.66zm2.06-.56l-1.28.61.63 1.55c.04.1.16.15.32.07l2.5-1.2c.09-.04.16-.05.21-.03l-2.14-1.03c-.07-.03-.16-.02-.24.02z"/></g><path d="M738.94 461.13c-.01-.04-.04-.07-.08-.09s-.09-.02-.14-.01c-.18.03-.37.25-.42.41l-.77 2.65c-.04.15-.17.3-.32.38l-2.5 1.2c-.26.13-.41.48-.29.62.01.01.02.02.03.03.02.01.04.02.06.02l2.02.44c.01 0 .03.01.04.01.1.05.11.18.08.29l-.77 2.66c-.04.14-.01.23.06.28.01 0 .01.01.02.01.11.05.28 0 .44-.17l2.02-2.38a.9.9 0 0 1 .07-.08c.07-.06.21-.14.32-.11l2.02.44c.26.06.61-.36.51-.61l-.77-1.91c-.05-.13.02-.3.12-.41l2.02-2.38c.18-.21.17-.44.04-.51-.01 0-.02-.01-.02-.01-.06-.02-.12-.01-.21.03l-2.5 1.2c-.16.08-.28.03-.32-.07l-.63-1.56-.14-.36z" class="I"/><g class="H"><path d="M744.92 461.25l-.69 2.4c-.03.1-.03.24.08.29l2.14 1.03c-.07-.05-.1-.14-.07-.28l.78-2.65c.03-.12.02-.27-.12-.3l-2.02-.44c-.01 0-.03-.01-.04-.01-.01 0-.02-.01-.03-.02s-.02-.01-.03-.01z"/><path d="M749.35 456l-2.14-1.03c-.01 0-.01-.01-.02-.01-.04-.02-.08-.02-.14-.01-.18.02-.37.25-.42.41l-.77 2.65c-.04.15-.17.3-.32.37l-2.5 1.2c-.29.14-.45.57-.24.66l2.1 1.01v-.01c-.12-.14.03-.49.29-.62l2.5-1.2c.15-.07.28-.23.32-.37l.77-2.66c.05-.16.23-.38.42-.41.05-.01.1 0 .14.02h0zm3.91.84l-2.16-1.04c-.07-.03-.16-.02-.24.02l-1.28.61.63 1.55c.04.1.16.15.32.07l2.5-1.2c.09-.05.17-.05.23-.02z"/></g><path d="M753.22 457.35c.18-.21.17-.44.04-.51-.07-.03-.14-.02-.24.02l-2.5 1.2c-.16.08-.28.03-.32-.07l-.63-1.55-.14-.36c-.01-.04-.04-.07-.08-.09-.04-.02-.08-.03-.14-.02-.18.03-.37.25-.42.41l-.77 2.65c-.04.14-.17.3-.32.37l-2.5 1.2c-.27.13-.42.48-.29.62 0 .01.01.02.02.02.02.01.03.01.04.02s.02.01.04.01l2.02.44c.14.03.15.18.12.3l-.77 2.65c-.04.14 0 .23.07.28.01 0 .01.01.02.01.11.05.28 0 .43-.18l2.02-2.38c.02-.03.05-.05.07-.08.07-.07.21-.13.32-.11l2.02.44c.26.06.61-.36.51-.61l-.77-1.91c-.05-.13.02-.3.12-.42l2.02-2.38z" class="I"/><g class="H"><path d="M755.42 456.21l-.7 2.4c-.03.1-.03.23.08.29l2.15 1.03c-.07-.04-.1-.14-.06-.28l.77-2.65c.03-.12.02-.27-.12-.3l-2.02-.44c-.02-.01-.04-.01-.06-.02-.01 0-.02-.01-.03-.02z"/><path d="M757.7 449.92c-.01 0-.01-.01-.02-.01-.04-.02-.09-.02-.14-.02-.19.03-.37.25-.42.41l-.77 2.65c-.04.16-.18.31-.32.38l-2.5 1.2c-.29.14-.45.57-.24.66h0l2.11 1.01v-.01c-.13-.14.02-.49.29-.62l2.5-1.2c.15-.07.28-.23.32-.37l.77-2.66c.05-.16.23-.38.42-.41.05-.01.1 0 .13.02h0l-2.14-1.03z"/></g><path d="M763.52 451.82l-2.5 1.2c-.1.05-.17.05-.23.02-.01 0-.02-.01-.03-.01-.02-.02-.05-.05-.06-.08l-.63-1.56-.14-.36c-.01-.04-.04-.07-.09-.09s-.08-.02-.13-.02c-.18.03-.37.25-.42.41l-.77 2.65c-.04.15-.17.3-.32.38l-2.49 1.2c-.27.13-.42.48-.29.62.01.01.02.02.03.03.02.01.04.02.06.02l2.02.44c.14.03.15.18.12.3l-.77 2.65c-.04.14-.01.23.06.28.01 0 .01.01.02.01.11.05.28 0 .43-.18l2.02-2.38c.02-.03.05-.05.08-.08.07-.06.21-.13.32-.11l2.02.44c.26.06.61-.36.51-.61l-.77-1.91c-.05-.13.03-.3.12-.42l2.02-2.38c.18-.21.17-.44.04-.51-.01 0-.02-.01-.03-.01-.06-.01-.13-.01-.21.03z" class="I"/><g class="H"><path d="M763.51 451.82c.09-.04.15-.05.21-.03l-2.14-1.03c-.05-.03-.13-.03-.24.02l-1.28.62.63 1.55c.01.03.03.06.06.08.01 0 .02.01.03.01.06.03.14.03.23-.02l2.5-1.2zm2.5-.61c-.01 0-.03-.01-.04-.01s-.02-.01-.03-.01-.02-.01-.03-.02l-.7 2.4c-.03.1-.03.24.08.29l2.14 1.03c-.07-.05-.1-.14-.06-.28l.77-2.65c.03-.12.02-.27-.12-.3l-2.02-.44z"/><path d="M765.92 451.15c-.12-.14.03-.5.29-.62l2.5-1.2c.14-.07.27-.21.32-.37l.77-2.65c.05-.16.23-.38.42-.41.05-.01.1 0 .14.02l-2.15-1.03c-.05-.02-.1-.03-.15-.02-.18.02-.37.25-.42.41l-.77 2.65c-.05.17-.18.31-.32.38l-2.5 1.2c-.29.14-.45.57-.24.66l2.11 1.01v-.01h0 0zm5.93-5.41l-1.28.61.63 1.56c.04.1.15.14.32.07l2.5-1.2c.09-.04.17-.05.23-.03l-2.15-1.03c-.07-.03-.16-.02-.24.02z"/></g><path d="M774.01 446.78l-2.5 1.2c-.16.08-.28.03-.32-.07l-.63-1.56-.14-.36c-.02-.04-.05-.07-.09-.09s-.08-.02-.14-.02c-.18.03-.37.25-.42.41l-.77 2.66c-.05.16-.18.31-.32.37l-2.5 1.2c-.26.13-.41.48-.29.62h0c.01.01.01.02.03.02s.02.01.03.01.02.01.04.02l2.02.44c.14.03.15.18.12.3l-.77 2.65c-.04.14-.01.23.06.28.01 0 .01.01.02.01.11.05.28 0 .43-.18l2.02-2.38.08-.08c.07-.07.21-.13.32-.11l2.02.44c.26.06.61-.36.51-.61l-.77-1.91c-.05-.13.03-.3.12-.42l2.02-2.38c.18-.21.17-.44.04-.51-.07-.03-.15-.02-.24.02z" class="I"/><g class="B"><path d="M746.28 329.04l2.27-1.02v1.81l-2.27 1.02v-1.81zm3.88-1.78l8.3-3.84v1.81l-8.3 3.84v-1.81zm9.92-4.59l5.14-2.45v1.81l-5.14 2.45v-1.81zm6.76-3.19l7.98-3.79v1.81l-7.98 3.79v-1.81zm-28.37 7.34l36.34-17.11v2.75l-36.34 17.11v-2.75z"/></g><g class="C"><path d="M794.17 390.89l8.08-3.79v1.81l-8.08 3.79v-1.81zm9.69-4.53l2.93-1.4v1.81l-2.93 1.4v-1.81zm4.55-2.16l7.98-3.79v1.81l-7.98 3.79v-1.81z"/><use href="#U"/></g><path d="M790.03 341.41l18.56-8.75v1.88l-18.56 8.75v-1.89z" class="E"/><path d="M792.99 323.29c-5.68-2.67-5.62-11.23.13-19.12s15-12.14 20.68-9.47 5.62 11.23-.13 19.12-15 12.14-20.68 9.47z" class="B"/><path d="M796.4 318.54a15.9 15.9 0 0 0 2.91-2.58c2.43 1.11 6.34-.72 8.77-4.07.86.17 1.85.14 2.91-.12 1.51-.37 2.71.16 3.13 1.34-2.63 3.87-6.4 7.29-10.61 9.25-4.05 1.88-7.71 2.02-10.32.75.33-1.67 1.58-3.46 3.2-4.57h.01z" class="C"/><g class="M"><path d="M808.08 311.9l1.16 1.84-5.6 1.87 4.43-3.71z"/><path d="M799.28 315.98l-1.16 2.92 5.6-3.33-4.43.41z"/></g><path d="M799.32 315.96l.79-.97c.62-.82.64-1.76.04-2.04-.78-.36-1.48-.94-1.92-1.71-.65.14-1.14-.21-1.24-.87-.15-.94.18-1.43.72-1.83.16-3.14 1.5-6.37 6-8.46s5.83-.1 6 2.9c.54-.1.89.27.72 1.17-.15.78-.59 1.56-1.24 2.02-.45 1.19-1.14 2.41-1.92 3.5-.6.83-.62 1.71-.01 1.98.26.11.54.2.85.26-2.43 3.35-6.34 5.18-8.77 4.07l-.03-.02z" fill="#fccdb7"/><path d="M809.7 302.97c-.81.38-1.1 1.49-1.1 1.49l-.03-1.66c0-.7-.26-3.23-2.88-1.21-2.61 2.01-3.36 3.37-4.65 3.73s-2.16.51-2.16 1.41-.11 1.87-.11 1.87-.62-.27-1.07-.06v-3.06c0-1.7 2.25-5.97 7.31-6.81 4.95-.82 4.68.02 4.68 4.31v.01z" fill="#03336e"/><use href="#V" class="C"/><path d="M790.03 349.67l18.56-8.75v1.89l-18.56 8.75v-1.89z" class="E"/><path d="M810.46 341.22c0 1.82 1.6 2.56 3.58 1.64s3.58-3.14 3.58-4.96-1.6-2.56-3.58-1.64-3.58 3.14-3.58 4.96z" class="C"/><path d="M790.03 357.8l18.56-8.75v1.88l-18.56 8.75v-1.88z" class="E"/><path d="M810.46 349.33c0 1.82 1.6 2.56 3.58 1.64s3.58-3.14 3.58-4.96-1.6-2.56-3.58-1.64-3.58 3.14-3.58 4.96z" class="C"/><path d="M790.03 365.91l18.56-8.75v1.9l-18.56 8.75v-1.89z" class="E"/><path d="M810.46 357.45c0 1.82 1.6 2.56 3.58 1.64s3.58-3.14 3.58-4.96-1.6-2.56-3.58-1.64-3.58 3.14-3.58 4.96z" class="C"/><path d="M790.03 374.19l18.56-8.75v1.89l-18.56 8.75v-1.88z" class="E"/><path d="M810.46 365.72c0 1.82 1.6 2.56 3.58 1.64s3.58-3.14 3.58-4.96-1.6-2.56-3.58-1.64-3.58 3.14-3.58 4.96z" class="C"/><use href="#W" class="E"/><use href="#X" class="C"/><use href="#Y" class="E"/><path d="M794.36 404.72l22.02-10.34v2.76l-22.02 10.33v-2.75z" class="C"/><path d="M789.94 412.61l26.45-12.43v2.75l-26.45 12.43v-2.75z" class="E"/><path d="M806.29 404.92l10.1-4.74v2.75l-10.1 4.74v-2.75z" class="C"/><path d="M789.94 418.4l26.45-12.42v2.75l-26.45 12.43v-2.76z" class="E"/><path d="M798.84 414.22l17.55-8.24v2.75l-17.55 8.24v-2.75z" class="C"/><path d="M789.94 423.96l26.45-12.42v2.75l-26.45 12.43v-2.76z" class="E"/><path d="M811.01 414.07l5.38-2.53v2.75l-5.38 2.53v-2.75z" class="C"/><path d="M789.94 429.76l26.45-12.43v2.76l-26.45 12.42v-2.75z" class="E"/><g class="C"><path d="M795.04 427.37l21.35-10.03v2.76l-21.35 10.03v-2.75z"/><use href="#Z"/><path d="M807.35 434.67l3.15-1.46v-2.91l-3.15 1.46v2.91z"/><use href="#a"/></g><g class="E"><path d="M795.7 440.08l3.15-1.47v-2.9l-3.15 1.46v2.91zm-5.82 2.7l3.15-1.47v-2.91l-3.15 1.47v2.91z"/></g><g class="C"><use href="#b"/><path d="M807.35 439.63l3.15-1.46v-2.91l-3.15 1.47v2.9zm-5.83 2.7l3.15-1.46v-2.91l-3.15 1.46v2.91zm-5.82 2.7l3.15-1.46v-2.91l-3.15 1.46v2.91z"/></g><path d="M789.88 447.73l3.15-1.46v-2.91l-3.15 1.46v2.91z" class="E"/><path d="M860.34 442.27V289.14c0-4.89 3.69-7.12 8.25-5.01l103.35 47.83c4.56 2.11 8.25 7.79 8.25 12.66v153.13l-119.85-55.47z" class="N"/><path d="M981.46 497.22V344.09a15.3 15.3 0 0 0-8.25-12.66L869.86 283.6c-1.81-.83-3.48-.99-4.83-.57-.17.05-1.4.56-1.56.63 1.41-.54 3.19-.44 5.13.46l103.35 47.82c4.56 2.11 8.25 7.79 8.25 12.66v153.13l1.26-.53h-.01z" fill="#7a7e86"/><g fill="#f6f6f6"><path d="M899.56 334.33l-34.59-16.18v121.97l34.59 16.02V334.33zm4.63-11.12v135.07l71.39 33.04V356.59l-71.39-33.38z"/></g><path d="M981.46 353.92v-9.83a15.3 15.3 0 0 0-8.25-12.66L869.86 283.6c-1.81-.83-3.48-.99-4.83-.57-.17.05-1.4.56-1.56.63 1.41-.54 3.19-.44 5.13.46l103.35 47.82c4.56 2.11 8.25 7.79 8.25 12.66v9.83l1.26-.53h-.01z" fill="#7a7e86"/><path d="M971.95 331.95l-103.35-47.82c-4.56-2.11-8.25.13-8.25 5.01v9.67l119.85 55.48v-9.67c0-4.88-3.69-10.55-8.25-12.66v-.01z" fill="#c5c5c5"/><path d="M951.26 360.07l6.86 3.18v-1.81l-6.86-3.18v1.81zm-8.38-3.87l6.77 3.12v-1.81l-6.77-3.12v1.81zm-20.6-9.55l18.99 8.8v-1.81l-18.99-8.8v1.81zm-1.61-2.56l-9.69-4.59v1.81l9.69 4.59v-1.81zm26.65 7.12l-36.34-17.1v2.75l36.34 17.11v-2.75z" class="F"/><g class="G"><path d="M941.44 378.01l16.68 7.74v-1.81l-16.68-7.74v1.81zm-3.62-1.66l2.01.91v-1.81l-2.01-.91v1.81zm-15.55-7.21l13.93 6.46v-1.81l-13.93-6.46v1.81zm-1.61-2.56l-9.69-4.59v1.81l9.69 4.59v-1.81zm44.35 24.91l-12.94-6.02v1.81l12.94 6.02v-1.81zm-14.57-6.77l-12.82-5.93v1.81l12.82 5.93v-1.81zm-14.43-6.67l-9.79-4.6v1.81l9.79 4.6v-1.81zm-11.41-5.35l-13.64-6.44v1.81l13.64 6.44v-1.81zm21.61 16.1l11.9 5.53v-1.81l-11.9-5.53v1.81zm-8.39-3.86l6.77 3.12v-1.81l-6.77-3.12v1.81zm-15.55-7.21l13.93 6.46v-1.81l-13.93-6.46v1.81zm-1.61-2.56l-9.69-4.59v1.81l9.69 4.59v-1.81z"/></g><path d="M951.26 407.07l10.85 4.9v-1.81l-10.85-4.9v1.81zm-8.38-3.87l6.77 3.12v-1.81l-6.77-3.12v1.81zm-20.6-9.55l18.99 8.8v-1.81l-18.99-8.8v1.81zm-1.61-2.56l-9.69-4.59v1.81l9.69 4.59v-1.81zm26.65 7.11l-36.34-17.1v2.75l36.34 17.11v-2.75z" class="F"/><path d="M959.89 444.54l-9.93-4.51v1.81l9.93 4.5v-1.81zm-11.55-5.26l-12.82-5.93v1.81l12.82 5.93v-1.81zm-14.43-6.67l-15.75-7.31v1.81l15.75 7.31v-1.81zm-17.37-8.07l-5.57-2.66v1.81l5.57 2.66v-1.81z" class="G"/><path d="M951.26 437.28l6.86 3.18v-1.81l-6.86-3.18v1.81zm-8.38-3.87l6.77 3.12v-1.81l-6.77-3.12v1.81zm-20.6-9.55l18.99 8.8v-1.81l-18.99-8.8v1.81zm-1.61-2.56l-9.69-4.59v1.81l9.69 4.59v-1.81zm26.65 6.18l-36.34-17.11v2.75l36.34 17.1v-2.75z" class="F"/><g class="G"><path d="M941.35 442.15l15.93 7.3v-1.81l-15.93-7.3v1.81zm-3.53-1.68l1.92.93v-1.81l-1.92-.93v1.81zm-15.55-7.21l13.93 6.46v-1.81l-13.93-6.46v1.81zm-1.61-2.56l-9.69-4.59v1.81l9.69 4.59v-1.81zm39.23 22.5l-17.33-7.95v1.81l17.33 7.95v-1.81zm-18.95-8.7l-12.82-5.93v1.81l12.82 5.93v-1.81zm-14.44-6.67l-2-.93v1.81l2 .93v-1.81zm-3.61-1.69l-11.93-5.58v1.81l11.93 5.59v-1.81-.01z"/></g><g class="D"><use href="#c"/><path d="M963.83 374.61l-2.11 1.01h0v-.01h0c.13-.14-.03-.49-.29-.62l-2.5-1.2c-.15-.07-.27-.22-.32-.37l-.77-2.66c-.04-.16-.23-.38-.42-.41-.05-.01-.1 0-.14.01l2.14-1.03c.01 0 .01-.01.02-.01.04-.02.09-.02.14-.01.18.02.37.25.42.41l.77 2.65c.04.15.17.3.32.37l2.5 1.2c.29.14.45.56.24.66h0 0zm-8.28-4.43c.07-.03.16-.02.24.02l1.28.61-.63 1.56c-.04.1-.16.14-.32.07l-2.5-1.2c-.09-.05-.17-.05-.23-.02l2.16-1.04z"/></g><path d="M953.62 371.24l2.5 1.2c.16.08.28.03.32-.07l.63-1.56.14-.36c.02-.04.04-.07.08-.09s.08-.02.14-.02c.18.03.37.25.42.41l.77 2.65c.04.15.17.3.32.37l2.5 1.2c.26.13.41.48.29.62h0c0 .01-.01.01-.01.02h0c-.01.01-.03.02-.03.02s-.03.01-.04.01l-2.02.44c-.14.03-.16.18-.12.3l.77 2.65c.04.14.01.23-.06.28-.01 0-.01.01-.02.01-.11.05-.28 0-.43-.18l-2.02-2.38c-.02-.03-.05-.06-.07-.08-.07-.07-.21-.13-.32-.11l-2.02.44c-.26.06-.61-.36-.52-.61l.77-1.91c.05-.13-.02-.31-.12-.42l-2.02-2.38c-.18-.21-.17-.44-.04-.51.07-.03.14-.02.24.02z" class="B"/><g class="D"><path d="M951.23 370.58l.7 2.4c.03.1.02.23-.09.29l-2.14 1.03c.07-.04.1-.14.06-.28l-.77-2.65c-.03-.11-.02-.24.08-.29.01-.01.03-.01.04-.02l2.02-.44c.02-.01.04-.02.06-.03.01 0 .02-.01.03-.01z"/><path d="M947.36 365.72c-.05-.16-.23-.38-.42-.41-.05-.01-.1 0-.14.02l2.14-1.03c.01 0 .01-.01.02-.01.04-.02.08-.02.14-.02.18.03.37.25.42.41l.77 2.66c.04.15.17.3.32.37l2.5 1.2c.3.15.45.57.24.66l-2.1 1.01v-.01c.13-.14-.03-.49-.29-.62l-2.5-1.2c-.15-.07-.27-.23-.32-.37l-.77-2.65z"/><use href="#d"/></g><path d="M946.72 365.42c.01-.04.04-.07.08-.09s.08-.02.14-.02c.19.03.37.25.42.41l.77 2.66c.04.15.17.3.32.37l2.5 1.2c.26.13.41.48.29.62-.01.01-.02.02-.03.03-.02.01-.04.02-.06.02l-2.02.44c-.01 0-.03.01-.04.02-.1.05-.11.18-.08.29l.77 2.65c.04.14.01.23-.06.28-.01 0-.01.01-.02.01-.11.05-.28 0-.43-.18l-2.02-2.38c-.02-.03-.05-.05-.07-.08-.07-.06-.21-.13-.32-.11l-2.02.44c-.26.05-.61-.36-.51-.61l.77-1.91c.05-.13-.02-.3-.12-.42l-2.02-2.38c-.18-.21-.17-.44-.04-.51.01 0 .02-.01.03-.01.06-.02.13-.01.21.03l2.5 1.2c.16.08.28.03.32-.07l.63-1.55.14-.36z" class="B"/><g class="D"><use href="#e"/><path d="M936.31 360.28l2.15-1.03c.01 0 .01 0 .02-.01.04-.02.08-.02.14-.02.18.02.37.25.42.41l.77 2.65c.04.15.17.3.32.38l2.5 1.2c.3.14.45.57.24.66l-2.11 1.01v-.01c.13-.14-.02-.49-.29-.62l-2.5-1.2c-.15-.07-.28-.23-.32-.37l-.77-2.65c-.05-.16-.23-.38-.42-.41-.05-.01-.1 0-.14.02h0z"/><use href="#f"/></g><path d="M932.43 361.64c-.18-.21-.17-.44-.04-.51.07-.03.14-.02.24.02l2.5 1.2c.16.08.28.03.32-.07l.63-1.55.14-.36c.01-.04.04-.07.08-.09a.2.2 0 0 1 .14-.02c.18.03.37.25.42.41l.77 2.66c.04.14.17.3.32.37l2.5 1.2c.27.13.42.48.29.62 0 .01-.01.02-.02.02-.02.01-.03.02-.04.02s-.02.01-.04.02l-2.02.44c-.14.03-.15.18-.12.3l.78 2.65c.04.14 0 .23-.07.28-.01 0-.01.01-.02.01-.11.05-.28 0-.43-.18l-2.02-2.38c-.02-.03-.05-.05-.07-.08-.07-.07-.21-.13-.32-.11l-2.02.44c-.26.06-.61-.36-.51-.61l.77-1.91c.05-.13-.03-.3-.12-.42l-2.02-2.38z" class="B"/><g class="D"><use href="#g"/><path d="M927.95 354.21c.01 0 .01-.01.02-.01.04-.02.08-.02.14-.02.18.03.37.25.42.41l.77 2.65c.04.16.18.31.32.38l2.5 1.2c.29.14.45.57.24.66h0l-2.11 1.01v-.01c.13-.14-.02-.5-.29-.62l-2.5-1.2c-.15-.07-.28-.23-.32-.37l-.77-2.65c-.05-.16-.23-.38-.42-.41-.05-.01-.1 0-.13.02h0l2.14-1.03z"/></g><path d="M922.13 356.11l2.5 1.2c.1.05.17.05.23.02.01 0 .02-.01.03-.01.03-.02.05-.05.06-.08l.63-1.56.14-.36c.01-.04.04-.07.08-.09s.08-.03.13-.02c.18.03.37.25.42.41l.77 2.65c.04.15.17.3.32.37l2.5 1.2c.27.13.42.48.29.62-.01.01-.02.02-.03.03-.02.01-.04.02-.06.03l-2.02.44c-.14.03-.15.18-.12.3l.77 2.65c.04.14.01.23-.06.28-.01 0-.01.01-.02.01-.11.05-.28 0-.43-.18l-2.02-2.38c-.02-.03-.05-.05-.08-.08-.07-.06-.21-.13-.32-.11l-2.02.44c-.26.06-.61-.36-.51-.61l.77-1.91c.05-.13-.02-.3-.12-.42l-2.02-2.38c-.18-.21-.17-.44-.04-.51l.03-.01c.05-.01.13-.01.21.03z" class="B"/><g class="D"><path d="M922.14 356.11c-.09-.04-.16-.05-.21-.03l2.14-1.03c.05-.03.13-.03.24.02l1.28.62-.63 1.55c-.01.03-.03.06-.06.08l-.02.01c-.06.03-.14.03-.23-.02l-2.5-1.2zm-2.5-.62c.01 0 .03-.01.04-.02s.02-.01.03-.01.02-.01.03-.02l.7 2.4c.03.1.03.24-.08.29l-2.14 1.03c.07-.05.1-.14.06-.28l-.77-2.65c-.03-.12-.02-.27.12-.3l2.02-.44z"/><path d="M919.73 355.44c.13-.14-.02-.5-.29-.62l-2.5-1.2c-.14-.07-.27-.21-.32-.37l-.77-2.65c-.05-.16-.23-.38-.42-.41-.05-.01-.1 0-.14.01l2.15-1.03c.05-.02.1-.03.15-.02.18.02.37.25.42.41l.77 2.65c.05.17.18.31.32.38l2.5 1.2c.29.14.45.57.24.66l-2.11 1.01v-.01h0 0z"/><use href="#h"/></g><path d="M911.65 351.07l2.5 1.2c.16.08.28.03.32-.07l.63-1.56.14-.36c.02-.04.05-.07.08-.09.04-.02.09-.02.14-.01.18.03.37.25.42.41l.77 2.66c.05.16.18.31.32.37l2.5 1.2c.26.13.41.48.29.62h0c-.01.01-.01.02-.03.03s-.02.01-.03.01-.03.01-.04.02l-2.02.44c-.14.03-.15.18-.12.3l.77 2.65c.04.14.01.23-.06.28-.01 0-.01.01-.02.01-.11.05-.28 0-.43-.18l-2.02-2.38-.08-.08c-.07-.07-.21-.13-.32-.11l-2.02.44c-.26.06-.61-.36-.51-.61l.77-1.91c.05-.13-.03-.3-.12-.42l-2.02-2.38c-.18-.21-.17-.44-.04-.51.07-.03.14-.02.24.02z" class="J"/><g class="D"><path d="M961.73 423.48l.7 2.4c.03.1.02.24-.08.29l-2.14 1.03c.07-.05.1-.14.06-.28l-.77-2.65c-.04-.12-.02-.27.12-.3l2.02-.44c.02 0 .03-.01.04-.01l.02-.01.03-.02z"/><path d="M963.83 422.47l-2.11 1.01h0v-.01h0c.13-.14-.03-.49-.29-.62l-2.5-1.2c-.15-.07-.27-.22-.32-.37l-.77-2.65c-.04-.16-.23-.38-.42-.41-.05-.01-.1 0-.14.02l2.14-1.03c.01 0 .01-.01.02-.01.04-.02.09-.02.14-.02.18.02.37.25.42.41l.77 2.65c.04.15.17.3.32.38l2.5 1.2c.29.14.45.56.24.66h0 0z"/><use href="#i"/></g><path d="M953.62 419.1l2.5 1.2c.16.08.28.03.32-.07l.63-1.55.14-.36c.02-.04.04-.07.08-.09s.08-.02.14-.02c.18.03.37.25.42.41l.77 2.65c.04.15.17.3.32.37l2.5 1.2c.26.13.41.48.29.62h0c0 .01-.01.01-.01.02h0c-.01.01-.03.02-.03.02s-.03.01-.04.02l-2.02.44c-.14.03-.16.18-.12.3l.77 2.65c.04.14.01.23-.06.28l-.02.01c-.11.05-.28 0-.43-.18l-2.02-2.38c-.02-.03-.05-.06-.07-.08-.07-.07-.21-.13-.32-.11l-2.02.44c-.26.06-.61-.36-.52-.61l.77-1.91c.05-.13-.02-.3-.12-.42l-2.02-2.38c-.18-.21-.17-.44-.04-.51.07-.03.14-.02.24.02z" class="B"/><g class="D"><path d="M951.23 418.44l.7 2.4c.03.1.02.23-.09.29l-2.14 1.03c.07-.04.1-.14.06-.28l-.77-2.65c-.03-.11-.02-.24.08-.29.01-.01.03-.01.04-.02l2.02-.44c.02-.01.04-.01.06-.02.01 0 .02-.01.03-.01z"/><path d="M947.36 413.57c-.05-.16-.23-.38-.42-.41-.05-.01-.1 0-.14.02l2.14-1.03c.01 0 .01-.01.02-.01.04-.02.08-.03.14-.02.18.03.37.25.42.41l.77 2.65c.04.15.17.3.32.38l2.5 1.2c.3.14.45.57.24.66l-2.1 1.01v-.01c.13-.14-.03-.5-.29-.62l-2.5-1.2c-.15-.07-.27-.23-.32-.37l-.77-2.65zm-2.07-.56l1.28.61-.63 1.55c-.04.1-.16.15-.32.07l-2.5-1.2c-.08-.04-.15-.05-.21-.03l2.14-1.03c.07-.03.16-.02.24.02z"/></g><path d="M946.72 413.28c.01-.04.04-.07.08-.09s.08-.02.14-.02c.19.03.37.25.42.41l.77 2.65c.04.15.17.3.32.38l2.5 1.2c.26.13.41.48.29.62-.01.01-.02.02-.03.03-.02.01-.04.02-.06.03l-2.02.44c-.01 0-.03.01-.04.02-.1.05-.11.18-.08.29l.77 2.65c.04.14.01.23-.06.28-.01 0-.01.01-.02.01-.11.05-.28 0-.43-.18l-2.02-2.38c-.02-.03-.05-.05-.07-.08-.07-.06-.21-.13-.32-.11l-2.02.44c-.26.06-.61-.36-.51-.61l.77-1.91c.05-.13-.02-.3-.12-.42l-2.02-2.38c-.18-.21-.17-.44-.04-.51.01 0 .02-.01.03-.01.06-.02.13-.01.21.03l2.5 1.2c.16.08.28.03.32-.07l.63-1.56.14-.36z" class="B"/><g class="D"><path d="M940.73 413.4l.69 2.4c.03.1.03.24-.08.29l-2.15 1.03c.07-.05.1-.14.07-.28l-.77-2.65c-.03-.12-.02-.27.12-.3l2.02-.44c.01 0 .02-.01.04-.02.01 0 .02-.01.03-.01s.02-.01.03-.01z"/><path d="M936.31 408.14l2.15-1.03c.01 0 .01-.01.02-.01.04-.02.08-.02.14-.02.18.02.37.25.42.41l.77 2.65c.04.15.17.3.32.38l2.5 1.2c.3.14.45.57.24.66l-2.11 1.01v-.01c.13-.14-.02-.5-.29-.62l-2.5-1.2c-.15-.07-.28-.23-.32-.37l-.77-2.65c-.05-.16-.23-.38-.42-.41-.05-.01-.1 0-.14.02h0zm-3.91.84l2.16-1.04c.07-.03.16-.02.24.02l1.28.61-.63 1.56c-.04.1-.16.15-.32.07l-2.5-1.2c-.09-.05-.17-.05-.23-.02z"/></g><path d="M932.43 409.5c-.18-.21-.17-.44-.04-.51.07-.03.14-.02.24.02l2.5 1.2c.16.08.28.03.32-.07l.63-1.56.14-.36c.01-.04.04-.07.08-.09a.2.2 0 0 1 .14-.02c.18.03.37.25.42.41l.77 2.65c.04.14.17.3.32.37l2.5 1.2c.27.13.42.48.29.62 0 .01-.01.01-.02.02l-.04.02c-.01.01-.02.01-.04.02l-2.02.44c-.14.03-.15.18-.12.3l.78 2.65c.04.14 0 .23-.07.28-.01 0-.01.01-.02.01-.11.05-.28 0-.43-.18l-2.02-2.38c-.02-.03-.05-.05-.07-.08-.07-.07-.21-.13-.32-.11l-2.02.44c-.26.06-.61-.36-.51-.61l.77-1.91c.05-.13-.03-.3-.12-.42l-2.02-2.38z" class="J"/><g class="D"><path d="M930.24 408.35l.7 2.4c.03.1.03.23-.08.29l-2.14 1.03c.07-.04.1-.14.06-.28l-.77-2.65c-.03-.12-.02-.27.12-.3l2.02-.44c.03-.01.04-.02.06-.02.01 0 .02-.01.03-.01z"/><path d="M927.95 402.07c.01 0 .01-.01.02-.01.04-.02.08-.02.14-.02.18.03.37.25.42.41l.77 2.66c.04.16.18.31.32.37l2.5 1.2c.29.14.45.57.24.66h0l-2.11 1.01v-.01c.13-.14-.02-.49-.29-.62l-2.5-1.2c-.15-.07-.28-.23-.32-.37l-.77-2.65c-.05-.16-.23-.38-.42-.41-.05-.01-.1 0-.13.02h0l2.14-1.03z"/></g><path d="M922.13 403.96l2.5 1.2c.1.05.17.05.23.02l.03-.01c.03-.02.05-.05.06-.08l.63-1.55.14-.36c.01-.04.04-.07.08-.09s.08-.02.13-.02c.18.03.37.25.42.41l.77 2.65c.04.15.17.3.32.38l2.5 1.2c.27.13.42.48.29.62-.01.01-.02.02-.03.03-.02.01-.04.02-.06.02l-2.02.44c-.14.03-.15.18-.12.3l.77 2.65c.04.14.01.23-.06.28-.01 0-.01.01-.02.01-.11.05-.28 0-.43-.18l-2.02-2.38c-.02-.03-.05-.05-.08-.08-.07-.06-.21-.13-.32-.11l-2.02.44c-.26.06-.61-.36-.51-.61l.77-1.91c.05-.13-.02-.3-.12-.42l-2.02-2.38c-.18-.21-.17-.44-.04-.51l.03-.01c.05-.01.13-.01.21.03z" class="J"/><g class="D"><path d="M922.14 403.96c-.09-.04-.16-.05-.21-.03l2.14-1.03c.05-.02.13-.03.24.02l1.28.61-.63 1.56c-.01.03-.03.06-.06.08-.01 0-.02.01-.02.01-.06.03-.14.03-.23-.02l-2.5-1.2zm-2.5-.61c.01 0 .03-.01.04-.02s.02-.01.03-.01l.03-.01.7 2.4c.03.1.03.24-.08.29l-2.14 1.03c.07-.05.1-.14.06-.28l-.77-2.65c-.03-.12-.02-.27.12-.3l2.02-.44z"/><path d="M919.73 403.3c.13-.14-.02-.49-.29-.62l-2.5-1.2c-.14-.07-.27-.21-.32-.37l-.77-2.65c-.05-.16-.23-.38-.42-.41-.05-.01-.1 0-.14.01l2.15-1.03a.2.2 0 0 1 .15-.02c.18.02.37.25.42.41l.77 2.65c.05.17.18.31.32.38l2.5 1.2c.29.14.45.57.24.66l-2.11 1.01v-.01h0 0zm-5.92-5.41l1.28.61-.63 1.55c-.04.1-.15.14-.32.07l-2.5-1.2c-.09-.04-.17-.05-.22-.03l2.15-1.03c.07-.03.16-.02.24.02z"/></g><path d="M911.65 398.93l2.5 1.2c.16.08.28.03.32-.07l.63-1.55.14-.36c.02-.04.05-.07.08-.09.04-.02.09-.03.14-.02.18.03.37.25.42.41l.77 2.65c.05.16.18.31.32.38l2.5 1.2c.26.13.41.48.29.62h0c-.01.01-.01.02-.03.02l-.03.01c-.01.01-.03.01-.04.01l-2.02.44c-.14.03-.15.18-.12.3l.77 2.65c.04.14.01.23-.06.28-.01 0-.01.01-.02.01-.11.05-.28 0-.43-.18l-2.02-2.38-.08-.08c-.07-.07-.21-.14-.32-.11l-2.02.44c-.26.06-.61-.36-.51-.6l.77-1.91c.05-.13-.03-.31-.12-.42l-2.02-2.38c-.18-.21-.17-.44-.04-.51.07-.03.14-.02.24.02z" class="J"/><g class="D"><path d="M961.73 471.34l.7 2.4c.03.1.02.24-.08.29l-2.14 1.03c.07-.05.1-.14.06-.28l-.77-2.65c-.04-.12-.02-.27.12-.3l2.02-.44c.02 0 .03-.01.04-.02l.02-.01.03-.01z"/><path d="M963.83 470.32l-2.11 1.01h0 0 0c.13-.14-.03-.5-.29-.62l-2.5-1.2c-.15-.07-.27-.22-.32-.37l-.77-2.66c-.04-.16-.23-.38-.42-.41-.05-.01-.1 0-.14.02l2.14-1.03c.01 0 .01-.01.02-.01.04-.02.09-.02.14-.01.18.02.37.25.42.41l.77 2.65c.04.15.17.3.32.37l2.5 1.2c.29.14.45.56.24.66h0 0zm-8.28-4.43c.07-.03.16-.02.24.02l1.28.61-.63 1.55c-.04.1-.16.14-.32.07l-2.5-1.2c-.09-.05-.17-.05-.23-.02l2.16-1.04z"/></g><path d="M953.62 466.95l2.5 1.2c.16.08.28.03.32-.07l.63-1.56.14-.36c.02-.04.04-.07.08-.09s.08-.02.14-.01c.18.03.37.25.42.41l.77 2.65c.04.15.17.3.32.37l2.5 1.2c.26.13.41.48.29.62h0c0 .01-.01.01-.01.02h0c-.01.01-.03.02-.03.02s-.03.01-.04.02l-2.02.44c-.14.03-.16.18-.12.3l.77 2.65c.04.14.01.23-.06.28-.01 0-.01.01-.02.01-.11.05-.28 0-.43-.18l-2.02-2.38c-.02-.03-.05-.06-.07-.08-.07-.07-.21-.14-.32-.11l-2.02.44c-.26.06-.61-.36-.52-.61l.77-1.91c.05-.13-.02-.3-.12-.42l-2.02-2.38c-.18-.21-.17-.44-.04-.51.07-.03.14-.02.24.02z" class="B"/><g class="D"><path d="M951.23 466.3l.7 2.4c.03.1.02.23-.09.29l-2.14 1.03c.07-.04.1-.14.06-.28l-.77-2.66c-.03-.11-.02-.24.08-.29.01-.01.03-.01.04-.01l2.02-.44c.02-.01.04-.01.06-.02.01 0 .02-.01.03-.01z"/><path d="M947.36 461.43c-.05-.16-.23-.38-.42-.41-.05-.01-.1 0-.14.01l2.14-1.03c.01 0 .01-.01.02-.01.04-.02.08-.02.14-.01.18.03.37.25.42.41l.77 2.65c.04.15.17.3.32.38l2.5 1.2c.3.14.45.57.24.66l-2.1 1.01v-.01c.13-.14-.03-.49-.29-.62l-2.5-1.2c-.15-.07-.27-.23-.32-.37l-.77-2.66zm-2.07-.56l1.28.61-.63 1.55c-.04.1-.16.15-.32.07l-2.5-1.2c-.08-.04-.15-.05-.21-.03l2.14-1.03c.07-.03.16-.02.24.02z"/></g><path d="M946.72 461.13c.01-.04.04-.07.08-.09s.08-.02.14-.01c.19.03.37.25.42.41l.77 2.65c.04.15.17.3.32.38l2.5 1.2c.26.13.41.48.29.62-.01.01-.02.02-.03.03-.02.01-.04.02-.06.02l-2.02.44c-.01 0-.03.01-.04.01-.1.05-.11.18-.08.29l.77 2.66c.04.14.01.23-.06.28-.01 0-.01.01-.02.01-.11.05-.28 0-.43-.17l-2.02-2.38c-.02-.03-.05-.05-.07-.08-.07-.06-.21-.14-.32-.11l-2.02.44c-.26.06-.61-.36-.51-.61l.77-1.91c.05-.13-.02-.3-.12-.41l-2.02-2.38c-.18-.21-.17-.44-.04-.51.01 0 .02-.01.03-.01.06-.02.13-.01.21.03l2.5 1.2c.16.08.28.03.32-.07l.63-1.56.14-.36z" class="B"/><g class="D"><path d="M940.73 461.25l.69 2.4c.03.1.03.24-.08.29l-2.15 1.03c.07-.05.1-.14.07-.28l-.77-2.65c-.03-.12-.02-.27.12-.3l2.02-.44c.01 0 .02-.01.04-.01.01 0 .02-.01.03-.02s.02-.01.03-.01z"/><path d="M936.31 456l2.15-1.03c.01 0 .01-.01.02-.01.04-.02.08-.02.14-.01.18.02.37.25.42.41l.77 2.65c.04.15.17.3.32.37l2.5 1.2c.3.14.45.57.24.66l-2.11 1.01v-.01c.13-.14-.02-.49-.29-.62l-2.5-1.2c-.15-.07-.28-.23-.32-.37l-.77-2.66c-.05-.16-.23-.38-.42-.41-.05-.01-.1 0-.14.02h0zm-3.91.84l2.16-1.04c.07-.03.16-.02.24.02l1.28.61-.63 1.55c-.04.1-.16.15-.32.07l-2.5-1.2c-.09-.05-.17-.05-.23-.02z"/></g><path d="M932.43 457.35c-.18-.21-.17-.44-.04-.51.07-.03.14-.02.24.02l2.5 1.2c.16.08.28.03.32-.07l.63-1.55.14-.36c.01-.04.04-.07.08-.09a.2.2 0 0 1 .14-.02c.18.03.37.25.42.41l.77 2.65c.04.14.17.3.32.37l2.5 1.2c.27.13.42.48.29.62 0 .01-.01.02-.02.02-.02.01-.03.01-.04.02s-.02.01-.04.01l-2.02.44c-.14.03-.15.18-.12.3l.78 2.65c.04.14 0 .23-.07.28-.01 0-.01.01-.02.01-.11.05-.28 0-.43-.18l-2.02-2.38c-.02-.03-.05-.05-.07-.08-.07-.07-.21-.13-.32-.11l-2.02.44c-.26.06-.61-.36-.51-.61l.77-1.91c.05-.13-.03-.3-.12-.42l-2.02-2.38z" class="B"/><g class="D"><path d="M930.24 456.21l.7 2.4c.03.1.03.23-.08.29l-2.14 1.03c.07-.04.1-.14.06-.28l-.77-2.65c-.03-.12-.02-.27.12-.3l2.02-.44c.03-.01.04-.01.06-.02.01 0 .02-.01.03-.02z"/><path d="M927.95 449.92c.01 0 .01-.01.02-.01.04-.02.08-.02.14-.02.18.03.37.25.42.41l.77 2.65c.04.16.18.31.32.38l2.5 1.2c.29.14.45.57.24.66h0l-2.11 1.01v-.01c.13-.14-.02-.49-.29-.62l-2.5-1.2c-.15-.07-.28-.23-.32-.37l-.77-2.66c-.05-.16-.23-.38-.42-.41-.05-.01-.1 0-.13.02h0l2.14-1.03z"/></g><path d="M922.13 451.82l2.5 1.2c.1.05.17.05.23.02.01 0 .02-.01.03-.01.03-.02.05-.05.06-.08l.63-1.56.14-.36c.01-.04.04-.07.08-.09s.08-.02.13-.02c.18.03.37.25.42.41l.77 2.65c.04.15.17.3.32.38l2.5 1.2c.27.13.42.48.29.62-.01.01-.02.02-.03.03-.02.01-.04.02-.06.02l-2.02.44c-.14.03-.15.18-.12.3l.77 2.65c.04.14.01.23-.06.28-.01 0-.01.01-.02.01-.11.05-.28 0-.43-.18l-2.02-2.38c-.02-.03-.05-.05-.08-.08-.07-.06-.21-.13-.32-.11l-2.02.44c-.26.06-.61-.36-.51-.61l.77-1.91c.05-.13-.02-.3-.12-.42l-2.02-2.38c-.18-.21-.17-.44-.04-.51.01 0 .02-.01.03-.01.05-.01.13-.01.21.03z" class="B"/><g class="D"><path d="M922.14 451.82c-.09-.04-.16-.05-.21-.03l2.14-1.03c.05-.03.13-.03.24.02l1.28.62-.63 1.55c-.01.03-.03.06-.06.08-.01 0-.02.01-.02.01-.06.03-.14.03-.23-.02l-2.5-1.2zm-2.5-.61c.01 0 .03-.01.04-.01s.02-.01.03-.01.02-.01.03-.02l.7 2.4c.03.1.03.24-.08.29l-2.14 1.03c.07-.05.1-.14.06-.28l-.77-2.65c-.03-.12-.02-.27.12-.3l2.02-.44z"/><path d="M919.73 451.15c.13-.14-.02-.5-.29-.62l-2.5-1.2c-.14-.07-.27-.21-.32-.37l-.77-2.65c-.05-.16-.23-.38-.42-.41-.05-.01-.1 0-.14.02l2.15-1.03c.05-.02.1-.03.15-.02.18.02.37.25.42.41l.77 2.65c.05.17.18.31.32.38l2.5 1.2c.29.14.45.57.24.66l-2.11 1.01v-.01h0 0zm-5.92-5.41l1.28.61-.63 1.56c-.04.1-.15.14-.32.07l-2.5-1.2c-.09-.04-.17-.05-.22-.03l2.15-1.03c.07-.03.16-.02.24.02z"/></g><path d="M911.65 446.78l2.5 1.2c.16.08.28.03.32-.07l.63-1.56.14-.36c.02-.04.05-.07.08-.09.04-.02.09-.02.14-.02.18.03.37.25.42.41l.77 2.66c.05.16.18.31.32.37l2.5 1.2c.26.13.41.48.29.62h0c-.01.01-.01.02-.03.02s-.02.01-.03.01-.03.01-.04.02l-2.02.44c-.14.03-.15.18-.12.3l.77 2.65c.04.14.01.23-.06.28-.01 0-.01.01-.02.01-.11.05-.28 0-.43-.18l-2.02-2.38-.08-.08c-.07-.07-.21-.13-.32-.11l-2.02.44c-.26.06-.61-.36-.51-.61l.77-1.91c.05-.13-.03-.3-.12-.42l-2.02-2.38c-.18-.21-.17-.44-.04-.51.07-.03.14-.02.24.02z" class="J"/><g class="B"><path d="M939.37 329.04l-2.27-1.02v1.81l2.27 1.02v-1.81zm-3.88-1.78l-8.31-3.84v1.81l8.31 3.84v-1.81zm-9.92-4.59l-5.14-2.45v1.81l5.14 2.45v-1.81zm-6.76-3.19l-7.98-3.79v1.81l7.98 3.79v-1.81zm28.38 7.34l-36.34-17.11v2.75l36.34 17.11v-2.75z"/></g><g class="F"><path d="M891.48 390.89l-8.08-3.79v1.81l8.08 3.79v-1.81zm-9.69-4.53l-2.93-1.4v1.81l2.93 1.4v-1.81zm-4.55-2.16l-7.98-3.79v1.81l7.98 3.79v-1.81z"/><use href="#j"/></g><path d="M895.63 341.41l-18.56-8.75v1.88l18.56 8.75v-1.89z" class="G"/><path d="M892.66 323.29c5.68-2.67 5.62-11.23-.13-19.12s-15-12.14-20.68-9.47-5.62 11.23.13 19.12 15 12.14 20.68 9.47z" class="B"/><path d="M889.26 318.54c-1.07-.73-2.05-1.61-2.91-2.58-2.43 1.11-6.34-.72-8.77-4.07-.86.17-1.85.14-2.91-.12-1.51-.37-2.71.16-3.12 1.34 2.63 3.87 6.4 7.29 10.61 9.25 4.05 1.88 7.71 2.02 10.32.75-.33-1.67-1.58-3.46-3.2-4.57h-.01z" class="F"/><g class="M"><path d="M877.57 311.9l-1.16 1.84 5.6 1.87-4.43-3.71z"/><path d="M886.37 315.98l1.16 2.92-5.6-3.33 4.43.41z"/></g><path d="M886.34 315.96l-.79-.97c-.62-.82-.64-1.76-.05-2.04.78-.36 1.48-.94 1.92-1.71.65.14 1.14-.21 1.24-.87.15-.94-.18-1.43-.72-1.83-.16-3.14-1.5-6.37-6-8.46s-5.83-.1-6 2.9c-.54-.1-.89.27-.72 1.17.15.78.59 1.56 1.24 2.02a15.9 15.9 0 0 0 1.92 3.5c.6.83.62 1.71.01 1.98-.26.11-.54.2-.85.26 2.43 3.35 6.34 5.18 8.77 4.07l.03-.02z" fill="#fccdb7"/><path d="M875.96 302.97c.81.38 1.09 1.49 1.09 1.49l.03-1.66c0-.7.26-3.23 2.88-1.21 2.61 2.01 3.36 3.37 4.65 3.73s2.15.51 2.15 1.41a18.5 18.5 0 0 0 .11 1.87s.62-.27 1.07-.06v-3.06c0-1.7-2.25-5.97-7.31-6.81-4.95-.82-4.68.02-4.68 4.31v.01z" fill="#03336e"/><use href="#k" class="F"/><path d="M895.63 349.67l-18.56-8.75v1.89l18.56 8.75v-1.89z" class="G"/><path d="M875.2 341.22c0 1.82-1.6 2.56-3.58 1.64s-3.58-3.14-3.58-4.96 1.6-2.56 3.58-1.64 3.58 3.14 3.58 4.96z" class="F"/><path d="M895.63 357.8l-18.56-8.75v1.88l18.56 8.75v-1.88z" class="G"/><path d="M875.2 349.33c0 1.82-1.6 2.56-3.58 1.64s-3.58-3.14-3.58-4.96 1.6-2.56 3.58-1.64 3.58 3.14 3.58 4.96z" class="F"/><path d="M895.63 365.91l-18.56-8.75v1.9l18.56 8.75v-1.89z" class="G"/><path d="M875.2 357.45c0 1.82-1.6 2.56-3.58 1.64s-3.58-3.14-3.58-4.96 1.6-2.56 3.58-1.64 3.58 3.14 3.58 4.96z" class="F"/><path d="M895.63 374.19l-18.56-8.75v1.89l18.56 8.75v-1.88z" class="G"/><path d="M875.2 365.72c0 1.82-1.6 2.56-3.58 1.64s-3.58-3.14-3.58-4.96 1.6-2.56 3.58-1.64 3.58 3.14 3.58 4.96z" class="F"/><use href="#l" class="G"/><use href="#m" class="F"/><use href="#n" class="G"/><path d="M891.29 404.72l-22.02-10.34v2.76l22.02 10.33v-2.75z" class="F"/><path d="M895.71 412.61l-26.45-12.43v2.75l26.45 12.43v-2.75z" class="G"/><path d="M879.36 404.92l-10.1-4.74v2.75l10.1 4.74v-2.75z" class="F"/><path d="M895.71 418.4l-26.45-12.42v2.75l26.45 12.43v-2.76z" class="G"/><path d="M886.81 414.22l-17.55-8.24v2.75l17.55 8.24v-2.75z" class="F"/><path d="M895.71 423.96l-26.45-12.42v2.75l26.45 12.43v-2.76z" class="G"/><path d="M874.65 414.07l-5.38-2.53v2.75l5.38 2.53v-2.75z" class="F"/><path d="M895.71 429.76l-26.45-12.43v2.76l26.45 12.42v-2.75z" class="G"/><g class="F"><path d="M890.61 427.37l-21.35-10.03v2.76l21.35 10.03v-2.75z"/><use href="#o"/><path d="M878.31 434.67l-3.15-1.46v-2.91l3.15 1.46v2.91z"/><use href="#p"/></g><g class="G"><path d="M889.95 440.08l-3.15-1.47v-2.9l3.15 1.46v2.91zm5.82 2.7l-3.15-1.47v-2.91l3.15 1.47v2.91z"/></g><g class="F"><use href="#q"/><path d="M878.31 439.63l-3.15-1.46v-2.91l3.15 1.47v2.9zm5.82 2.7l-3.15-1.46v-2.91l3.15 1.46v2.91zm5.82 2.7l-3.15-1.46v-2.91l3.15 1.46v2.91z"/></g><path d="M895.77 447.73l-3.15-1.46v-2.91l3.15 1.46v2.91z" class="G"/><g opacity=".75"><path d="M846.09 497.75c16.4 0 29.69-3.99 29.69-8.91s-13.29-8.91-29.69-8.91-29.69 3.99-29.69 8.91 13.29 8.91 29.69 8.91z" fill="#eaeaea"/></g><path d="M827.02 415.26c.7 1.73 2.5 2.43 4.3 2.75 1.64.31 3.44.31 5.16.47 1.09.08 1.25-.08 1.56-1.25l.78-2.82c-2.35-2.12-6.33-.86-9.07-1.57l-2.74 2.43z" fill="#eaa28c"/><path d="M824.98 410.24c.63 1.88.78 6.51 3.52 6.2 1.72-.16 2.58-2.04 4.22-2.51.78-.31 4.77-.94 3.91-2.59-.47-.86-1.88.24-2.58.47-.78.24-1.95.24-2.89.16-2.35-.24-3.36-2.04-5-3.14l-1.17 1.41z" class="O"/><path d="M831.63 366.62c-2.76.82-4.33 2.34-5.74 4.31s-2.08 4.17-2.94 6.36c-.78 2.12-2.35 3.76-3.21 5.81-1.64 3.76-4.46 6.98-6.1 10.67-.78 1.57.94 4.24 1.88 5.65 1.25 1.88 2.27 3.92 3.6 5.65 1.72 2.12 3.6 4.47 4.85 6.98 2.03-.55 4.53-2.67 6.1-4.08-2.5-2.98-4.85-6.59-6.72-10.04.39-.24 1.56-.86 1.41-1.41 0-.08-1.41-.86-1.56-.94.63-.31 2.27-.86 2.5-1.65.16-.86-.86-1.25-.55-2.27.23-.94 1.41-1.8 1.8-2.75.45-1.16 1.18-1.79 1.64-2.9.78-1.8 1.72-3.45 2.66-5.18.55-.94 1.56-1.8 2.19-2.74.47-.78 1.56-2.28 1.72-3.22v-.31l-3.52-7.92z" class="C"/><g fill="#659de4"><path d="M822.56 396.66a3.7 3.7 0 0 1-1.56 1.94 3.6 3.6 0 0 1-2.42.57 7.4 7.4 0 0 0 2.19-.94c.67-.42 1.25-.95 1.79-1.58zm-.86-1.01a5 5 0 0 1-.98.36l-1.02.24-1.04.14c-.36.01-.7.06-1.11-.11-.1-.05-.23-.16-.24-.32-.02-.15.04-.26.09-.36.1-.18.24-.32.41-.43a3.4 3.4 0 0 1 1.03-.39c.68-.17 1.41-.22 2-.43h.02.01a16.2 16.2 0 0 0 2.55-.99v.36c-.88-.43-1.82-.75-2.8-.93a11 11 0 0 0-2.98-.12 9.1 9.1 0 0 1 3.02-.14c1.01.12 2.01.39 2.93.83l.37.17-.36.19a14.1 14.1 0 0 1-2.61 1.05l.02-.01c-.37.14-.71.19-1.06.25l-1.01.18c-.33.07-.66.16-.92.32-.12.07-.23.18-.31.3-.04.06-.06.11-.06.13 0 .01.01.04.06.07.24.12.61.13.94.13a10.8 10.8 0 0 0 1.02-.08 10.2 10.2 0 0 0 2.03-.4zm5.71-20.55l1.39 2.24 1.27 2.31a9.7 9.7 0 0 1-1.64-2.09c-.45-.77-.83-1.58-1.02-2.46zm-1.18 1.72c.42.79.94 1.51 1.46 2.24l1.53 2.21.15.26-.3.03c-.48.05-.97-.06-1.39-.23s-.83-.39-1.22-.6l-1.17-.56c-.4-.14-.81-.22-1.21-.17l.17-.19c-.03.36.31.73.65 1a6 6 0 0 0 1.2.7 11.7 11.7 0 0 0 1.32.49 4.7 4.7 0 0 0 1.39.24 4.3 4.3 0 0 1-1.43-.08 8 8 0 0 1-1.39-.4 6.1 6.1 0 0 1-1.3-.66c-.2-.14-.4-.31-.57-.51s-.29-.48-.28-.79v-.16l.17-.03c.48-.07.97.01 1.4.17a8.4 8.4 0 0 1 1.23.58l1.17.59a2.7 2.7 0 0 0 1.21.23l-.15.29-1.4-2.27a13.3 13.3 0 0 1-1.25-2.38z"/></g><g class="O"><path d="M838.39 349.83c-1.87-.07-3.39 1.18-3.32 3.12.07 2.5 3.53 4.79 5.39 2.57l-2.08-5.69zm10.94 0c1.87-.07 3.39 1.18 3.32 3.12-.07 2.5-3.53 4.79-5.39 2.57l2.07-5.69z"/><path d="M840.15 359.95c.08-2.43-1.33-4.86-2.19-6.98-1.72-4.24.47-8.63 5.16-8.86 3.83-.23 5.32 3.06 5.63 6.35.39 3.06.31 6.12.7 9.18l-.16-.16-9.15.47z"/></g><path d="M840.62 356.42c-.39-.63-.7-1.41-1.09-2.12-.78-1.57-2.03-2.82-2.81-4.31-.86-1.57-1.41-3.45-1.25-5.18.16-2.12 2.03-2.67 3.83-3.06-.08-2.28 2.19-3.45 4.22-3.69 2.34-.24 3.99.7 5.78 2.04.63.47 1.72.94 2.11 1.65.47.71.39 1.88.31 2.67-.16 1.73-.39 3.37-1.02 5.02-.47 1.25-.55 2.51-1.1 3.77-.39.78-1.09 2.35-1.56 2.9l-7.43.31z" fill="#774b23"/><path d="M831.16 486.25c-.08.39-.08.86-.16 1.26.39.71 1.49.71 2.27.78 1.02.08 1.56-.08 1.96.79.39.78.39 1.57 1.09 2.2 1.25 1.02 3.6.63 5.08.71.7 0 1.88.16 2.35-.39.31-.47.39-2.12.08-2.59-.7-1.02-2.19-.16-2.74-1.33-.16-.47.08-1.25-.31-1.57-.47-.31-1.96-.08-2.5-.08l-7.12.24z" class="P"/><path d="M836.09 479.19c.08 1.1-.55 2.04-.7 3.06a7 7 0 0 0-2.81.63c-1.64.78-1.17 2.2-1.56 3.61 1.09.39 2.27.86 3.44.86.78 0 .86 0 1.49.39.55.31 1.1.94 1.56 1.33 1.72 1.41 4.38 1.18 6.41.63.16-1.88-.23-3.76-.39-5.65-.24-1.57-.31-3.29-.86-4.79l-6.57-.08z" fill="#3d3d3d"/><path d="M864.58 486.25c.08.39.08.86.16 1.26-.39.71-1.49.71-2.27.78-1.02.08-1.56-.08-1.96.79-.39.78-.39 1.57-1.09 2.2-1.25 1.02-3.6.63-5.08.71-.7 0-1.88.16-2.34-.39a3.7 3.7 0 0 1-.08-2.59c.7-1.02 2.19-.16 2.74-1.33.16-.47-.08-1.25.31-1.57.47-.31 1.95-.08 2.5-.08l7.12.24z" class="P"/><path d="M859.65 479.19c-.08 1.1.55 2.04.7 3.06a7 7 0 0 1 2.81.63c1.64.78 1.17 2.2 1.56 3.61-1.09.39-2.27.86-3.44.86-.78 0-.86 0-1.49.39-.55.31-1.09.94-1.56 1.33-1.72 1.41-4.38 1.18-6.41.63-.16-1.88.24-3.76.39-5.65.23-1.57.31-3.29.86-4.79l6.57-.08z" fill="#3d3d3d"/><path d="M861.52 458.09c-.24-2.94-1.76-5.41-1.88-8.35s0-6 .24-8.83c.59-6.82.7-13.65 1.64-20.47a29.4 29.4 0 0 0-.12-9.06c-.24-1.53-.35-2.35-1.41-3.41l-11.7-.88c0-.03-.01-.06-.02-.06l-.41.03-.42-.03c-.01.01-.01.03-.02.06l-11.7.88c-1.06 1.06-1.17 1.88-1.41 3.41a29.4 29.4 0 0 0-.12 9.06c.94 6.82 1.05 13.65 1.64 20.47.23 2.82.35 5.88.23 8.83s-1.64 5.41-1.88 8.35c-.35 2.59 1.64 4.59 1.64 7.3 0 1.06-.7 2.24-.82 3.41-.23 1.41.24 2.35.59 3.65.59 1.77.59 5.53-.59 7.06 2.11 2.24 6.22 2.59 8.91 1.3-.07-7.39 1.92-35.42 3.24-54.72h1.37l3.24 54.72c2.7 1.29 6.8.94 8.91-1.3-1.17-1.53-1.17-5.29-.59-7.06.35-1.29.82-2.24.59-3.65-.12-1.18-.82-2.35-.82-3.41 0-2.71 1.99-4.71 1.64-7.3z" fill="url(#G)"/><path d="M860.52 405.84H834.8v2.71h25.72v-2.71z" fill="#000"/><g class="P"><path d="M846.79 409.85a19.7 19.7 0 0 0-.47-4.31c.86.31 2.03 0 2.97.08-.16.78-.16 1.65-.16 2.51 0 .63.08 1.18.16 1.8a7 7 0 0 0 .08 1.02m-9.45 15.06l4.07-.19a55.5 55.5 0 0 1 4.08.03l4.06.21 4.06.14h-.01c.27-.07.53-.05.8-.04-.26.02-.53.04-.77.12h0-.01a36.9 36.9 0 0 1-4.07.14l-4.06-.15-4.06-.14-4.07-.13z"/><path d="M847.96 408.67l.16 4.34.24 4.32a43.1 43.1 0 0 1 .08 4.36l-.11 2.18-.08 1.08-.02.54-.02.27-.01.14c-.03-.03 0-.09-.01-.13 0 .04.02.1-.01.13l-.01-.14-.02-.27-.03-.54-.02-1.09-.01-2.17-.18-4.32-.14-4.35.17-4.34zm-10.47 3.06a8.5 8.5 0 0 0-.2 2.06l-.05 2.09a17.4 17.4 0 0 0 0 2.07 4.9 4.9 0 0 0 .48 1.94l-.01-.01c.34.52.96.79 1.59.9.64.12 1.31.11 1.98.1l2-.1c.64-.07 1.29-.26 1.57-.78a2.1 2.1 0 0 0 .25-.88l.05-1 .1-2.02.04-2.02-.05-1-.07-.48c-.03-.14-.11-.32-.14-.33l.06.01-3.79-.26-3.79-.3zm0 0l3.8.09 3.79.14h.03l.02.01c.15.07.2.18.24.27s.07.18.09.27c.05.18.07.35.1.52a10.2 10.2 0 0 1 .07 1.03l-.01 2.04-.08 2.03-.04 1.02a2.6 2.6 0 0 1-.29 1.06 1.7 1.7 0 0 1-.85.74c-.34.15-.7.2-1.04.24-.69.07-1.37.07-2.04.08a10.1 10.1 0 0 1-2.05-.13c-.34-.07-.69-.17-1.01-.35s-.6-.43-.8-.74l-.01-.01h0c-.33-.66-.43-1.38-.46-2.08a18.4 18.4 0 0 1 .06-2.1l.15-2.08a7.6 7.6 0 0 1 .32-2.06zm21.17 0c.23.66.28 1.37.32 2.06l.15 2.08.06 2.1c-.03.7-.13 1.42-.46 2.08h0v.01c-.2.31-.48.57-.8.74s-.66.28-1 .35a10.1 10.1 0 0 1-2.05.13l-2.04-.08a3.9 3.9 0 0 1-1.04-.24 1.7 1.7 0 0 1-.85-.74c-.19-.34-.26-.7-.29-1.06l-.04-1.02-.08-2.03-.01-2.04.07-1.03a3.4 3.4 0 0 1 .1-.52c.02-.09.05-.18.09-.27s.1-.2.24-.27l.03-.01h.03l3.79-.14 3.8-.09zm0 0l-3.79.3-3.79.26.06-.01c-.03.01-.11.18-.14.33a3.8 3.8 0 0 0-.07.48l-.05 1 .03 2.02.1 2.02.05 1a2.1 2.1 0 0 0 .25.88c.28.52.92.71 1.57.78.66.07 1.32.08 2 .1a9.8 9.8 0 0 0 1.98-.1c.63-.12 1.24-.38 1.59-.9v.01c.31-.58.43-1.26.48-1.94a17.4 17.4 0 0 0 0-2.07l-.05-2.08a8.9 8.9 0 0 0-.2-2.06zm-16.24 62.48c-.25.26-.57.43-.87.6l-.94.48-1.9.91-.89.52c-.13.09-.27.2-.35.3-.07.13-.06.1 0 .16.09.05.26.08.42.1a6 6 0 0 0 .51.03h1.05l1.07.03a4 4 0 0 1 1.1.2c.18.07.38.18.52.39s.12.48.05.67c-.03.1-.06.18-.14.29-.07.09-.15.17-.23.23-.17.12-.35.18-.53.23-1.45.34-2.85.05-4.26.04.7-.1 1.41-.06 2.11-.1.69-.03 1.41-.06 2.05-.26.32-.11.58-.26.64-.54.09-.29-.05-.45-.35-.56-.6-.19-1.33-.17-2.02-.18-.35 0-.7 0-1.06-.01l-.55-.04c-.19-.03-.37-.05-.59-.17-.12-.08-.21-.19-.24-.37-.01-.17.07-.3.13-.38.14-.17.3-.28.45-.38a7.3 7.3 0 0 1 .96-.5l1.96-.8c.65-.26 1.33-.48 1.9-.89zm15.95-.11l-1.65.8a3.7 3.7 0 0 1-.92.25c-.32.04-.65.02-.95-.1.62-.11 1.14-.32 1.7-.55.55-.21 1.17-.45 1.81-.39zm-5.52 2.7c.42.12.84.1 1.26.04l1.25-.23a8.3 8.3 0 0 1 1.3-.18 2.4 2.4 0 0 1 1.35.31l.19.12-.12.18c-.27.39-.6.67-.95.92a5.9 5.9 0 0 1-1.12.64 4.5 4.5 0 0 1-1.23.37c-.42.05-.91.02-1.22-.28.37.21.8.18 1.18.07a5.2 5.2 0 0 0 1.12-.46 7.8 7.8 0 0 0 1.02-.67c.31-.25.63-.52.83-.82l.07.3c-.31-.2-.71-.26-1.11-.26-.41-.01-.83.06-1.25.1l-1.29.11a2.7 2.7 0 0 1-1.27-.25z"/></g><path d="M837.41 364.74c.39-1.18.31-2.43.78-3.61.7-1.73 1.17-1.49 2.89-1.73 1.64-.24 3.05-.55 4.77-.55 1.25 0 3.67-.23 4.53.71 1.17 1.18 1.17 3.14 2.03 4.39l-15.01.78z" class="C"/><path d="M859.46 350.38l-2.42-.71c-.47-.08-1.17-.16-1.64-.08-.94.16-1.02.71-1.72 1.33s-1.33.55-2.19.78c-.94.31-1.56.86-2.42 1.41-.94.55-1.56.08-.94-1.02.55-.86 1.64-1.26 2.5-1.8.78-.55 2.27-2.35 1.02-3.3-.78-.55-2.89-.16-3.67.16-1.17.39-2.27 1.1-3.44 1.41-1.88.47-.63-1.73.31-2.27-.55 0-.78-.47-.62-1.02.16-.47.63-.63 1.09-.86-1.88-.39.94-1.65 1.41-1.88-.23-.08-.83.12-.7-.39.47-.94 3.28-1.02 4.22-1.02a7.7 7.7 0 0 1 4.46 1.57c1.49 1.02 2.74 2.35 4.46 2.98 1.33.47 2.89.86 4.3 1.18l-3.99 3.53z" class="O"/><g fill="#eaa28c"><path d="M843.68 347.69a2.7 2.7 0 0 1 .51-.94 3.1 3.1 0 0 1 .86-.66l.95-.49a5.5 5.5 0 0 1 1.03-.32c.71-.15 1.41-.17 2.1-.22.69-.04 1.46-.06 2.09.3-.68-.19-1.37-.04-2.05.05l-2.05.3a6.8 6.8 0 0 0-.98.27 5.8 5.8 0 0 0-.47.19l-.48.21c-.63.26-1.18.68-1.52 1.31zm.58-2.52c.14-.31.41-.54.69-.73a4.7 4.7 0 0 1 .9-.45c.63-.24 1.26-.4 1.91-.56l.98-.2c.35-.05.68-.06 1.02-.03a6.9 6.9 0 0 1 1.93.52l-1.95-.17a4.8 4.8 0 0 0-.94.1l-.95.21-1.9.46-.91.31c-.29.13-.57.3-.79.55zm.45-1.32c.12-.32.42-.52.68-.72a6.7 6.7 0 0 1 .86-.51c.3-.14.6-.3.95-.37a6.4 6.4 0 0 1 .99-.18c.66-.06 1.32-.09 1.99-.01a5.2 5.2 0 0 1 1.9.59 10 10 0 0 0-1.93-.24c-.63-.01-1.29.04-1.93.09a10.1 10.1 0 0 0-.95.13c-.3.05-.6.17-.9.28l-.89.38c-.28.14-.59.29-.78.56z"/></g><path d="M862.24 344.54c-.23.84-1.17 1.31-1.76 2.03-1.52 1.55-2.46 3.58-2.35 5.85a23.6 23.6 0 0 1 4.81 1.19c1.52.48 3.28.6 4.81 1.55-.94 0-1.76.48-1.64 1.55-1.76-.12-1.99 1.07-2.81 2.39-.94 1.79-1.41.96-3.17.96-2.35.12-4.69 1.2-6.8 2.15a17 17 0 0 1-6.92 1.31c-2.58 0-4.93.6-7.39.84-2.34.36-4.93 1.31-7.04 2.15-1.29.48-2.46.84-2.81 2.15-.24 1.08.12 2.39.24 3.35l1.17 9.56c.12 3.46.35 6.81.94 10.15.59 3.23.82 6.45.94 9.68 0 1.19-.47 2.51-.23 3.7.23 1.31 1.41 1.67 2.7 1.91 2.34.36 4.92-.24 7.27-.24h7.86c2.35 0 4.69-.36 7.04-.36 1.76 0 6.68.84 5.63-2.75-.47-1.31-1.29-2.15-1.52-3.7-.24-1.31-.12-2.87-.12-4.3a127.9 127.9 0 0 1 .47-11.59c.24-2.75 0-5.5 1.76-7.88a82 82 0 0 0 6.21-9.08c1.64-2.75 3.28-5.5 5.16-8 1.52-2.15 3.28-4.9 3.99-7.53.7-2.99-3.87-3.7-6.1-4.3-2.34-.72-4.81-1.19-7.15-2.03l-3.17-.72z" class="C"/><g fill="#659de4"><path d="M868.51 354.6a10.9 10.9 0 0 1 2.31-1.1 4.8 4.8 0 0 1 2.56-.19 16.4 16.4 0 0 0-2.43.61c-.79.25-1.59.55-2.44.69zm4.28-2.59l-2.45 1.01-2.47 1.01-.75.27.52-.61c.65-.76 1.35-1.48 2.15-2.1a8.9 8.9 0 0 1 1.27-.82 3.5 3.5 0 0 1 1.44-.41 3.9 3.9 0 0 0-1.33.6 8.7 8.7 0 0 0-1.16.9 22.6 22.6 0 0 0-2.04 2.11l-.23-.34 2.49-.9a15.2 15.2 0 0 1 2.57-.72z"/></g><rect x=".11" y=".07" width="118.51" height="44.88" rx="3.69" transform="matrix(.9205 -.3907 0 1 733.884 259.188)" stroke="#0668e1" stroke-width=".24" class="C"/><path transform="matrix(.9205 -.3907 0 1 733.875 276.797)" stroke="#e0e0e0" stroke-width=".22" d="M0-.11h118.22"/><path d="M743.28 262.15l2.03-.86c.42-.18.77-.26 1.07-.25s.53.11.69.31.24.49.24.88c0 .32-.05.61-.15.88-.1.26-.24.51-.42.74s-.38.43-.62.62l-.36.35-1.76.75-.01-.95 1.31-.56a1.5 1.5 0 0 0 .49-.32 1.3 1.3 0 0 0 .29-.44c.07-.16.1-.33.1-.51 0-.19-.03-.34-.1-.45s-.16-.18-.29-.19-.3.02-.5.1l-.91.39v4.96l-1.12.48v-5.91zm3.04 4.62l-1.24-2.11 1.19-.51 1.25 2.05v.06l-1.2.51zm3.65-1.47c-.31.13-.59.2-.84.2s-.46-.07-.63-.19-.3-.29-.4-.51-.14-.48-.14-.77v-.16a3.6 3.6 0 0 1 .13-.97c.09-.31.21-.61.37-.88a3.1 3.1 0 0 1 .6-.72c.23-.21.5-.38.79-.5a1.8 1.8 0 0 1 .76-.17c.22.01.41.08.56.2s.27.3.34.54.12.51.12.83v.49l-3.21 1.36v-.78l2.15-.92v-.09c0-.16-.03-.3-.08-.4s-.13-.18-.24-.21-.24-.01-.41.06c-.14.06-.26.15-.37.26s-.19.24-.25.39-.11.31-.14.49-.05.36-.05.56v.16a1.4 1.4 0 0 0 .07.46c.05.13.11.23.2.3s.19.11.31.12.26-.02.42-.09c.19-.08.38-.2.54-.35s.32-.34.44-.56l.52.4c-.09.17-.2.34-.35.53s-.32.36-.52.52a3 3 0 0 1-.7.41zm3.59-2.46l.9-3.92 1.12-.48-1.36 4.97-.68.29.02-.86zm-.62-3.28l.9 3.16.02.84-.68.29-1.36-3.81 1.13-.48zm4.25-1.81v4.39l-1.08.46v-4.39l1.08-.46zm-1.15-.66c0-.17.06-.33.16-.49s.26-.27.44-.35.33-.08.44-.02.17.18.17.35-.06.34-.17.49-.25.27-.44.35-.33.09-.44.02-.16-.18-.16-.35zm3.9 3.96c-.31.13-.6.2-.84.2s-.46-.07-.64-.19-.3-.29-.4-.51a2 2 0 0 1-.14-.77v-.16a3.6 3.6 0 0 1 .5-1.85c.16-.27.36-.51.6-.72s.5-.38.79-.5a1.8 1.8 0 0 1 .76-.17c.22.01.41.08.56.2s.27.3.34.54a2.6 2.6 0 0 1 .12.83v.49l-3.21 1.36v-.78l2.15-.91v-.09c0-.16-.03-.3-.08-.4s-.13-.18-.24-.21-.24-.01-.41.06c-.14.06-.26.15-.37.26s-.19.24-.25.39-.11.31-.14.49-.04.36-.04.55v.16a1.4 1.4 0 0 0 .07.46.7.7 0 0 0 .2.3c.09.07.19.11.31.12s.26-.02.42-.09a1.9 1.9 0 0 0 .54-.35c.17-.16.31-.34.44-.56l.52.39c-.08.17-.2.34-.35.53s-.32.36-.52.52-.44.3-.7.41zm3.43-2.67l.84-3.61.68-.29-.22 1.37-.84 3.47-.57.24.11-1.18zm-.43-3.07l.6 3 .06 1.12-.67.29-1.02-3.96 1.04-.44zm2.72 2.04l.59-3.45 1.04-.44-1.02 4.83-.67.28.06-1.22zm-.68-2.91l.84 2.88.12 1.11-.58.24-.84-2.75-.21-1.19.68-.29z" class="B"/><path d="M829.18 245.56l.07.09.13-.04 4.74-1.48-3.32 4.26-.14.18.04.17.88 3.65-4.37-.04h-.11l-.1.09-4.31 3.84.74-4.36.03-.2-.14-.05-3.42-1.31 4.71-2.64.13-.07.07-.15 2.12-4.7 2.25 2.8z" stroke="#fff" stroke-width=".59" class="C"/><g class="B"><path d="M805.07 255.7l-5.38 3.02 3.96 1.52-.84 4.96 4.79-4.26 4.86.04-1-4.16 3.85-4.93-5.41 1.69-2.48-3.09-2.34 5.2z"/><use href="#r"/><path d="M765.17 276.56l-.85 4.97 4.61-4.09.18-.16 4.86.04-.98-4.17 3.84-4.93-5.4 1.69-2.49-3.09-2.35 5.21-5.38 3.03 3.97 1.51zm-17.54 3.52l-5.38 3.02 3.96 1.52-.84 4.96 4.79-4.26 4.86.04-1-4.16 3.85-4.93-5.41 1.69-2.49-3.09-2.34 5.2z"/></g><rect x="-.11" y=".07" width="118.51" height="44.88" rx="3.69" transform="matrix(-.9205 -.3907 0 1 952.224 259.097)" stroke="#c5c5c5" stroke-width=".24" class="N"/><path transform="matrix(-.9205 -.3907 0 1 952.438 276.793)" stroke="#70757d" stroke-width=".22" d="M0-.11h118.22"/><g fill="#70757d"><path d="M850.15 222.16l2.04.83a3.9 3.9 0 0 1 1.08.64c.3.26.54.55.7.88a2.4 2.4 0 0 1 .25 1.08c0 .32-.05.57-.15.76s-.24.32-.42.39-.39.11-.63.1l-.36.06-1.78-.72v-.95l1.32.53c.2.08.36.11.49.09s.23-.09.29-.2a.8.8 0 0 0 .1-.43c0-.19-.03-.37-.1-.53s-.16-.31-.3-.44-.3-.23-.5-.31l-.91-.37v4.96l-1.13-.46v-5.91zm3.06 7.15l-1.25-3.14 1.19.47 1.26 3.1v.06l-1.21-.49zm3.68 1.57a3.2 3.2 0 0 1-.85-.51 3.4 3.4 0 0 1-1.04-1.56c-.09-.3-.14-.59-.14-.88v-.16a2.5 2.5 0 0 1 .13-.86c.09-.24.21-.43.38-.57s.37-.21.6-.22.5.04.8.16c.29.12.54.27.77.46s.41.41.56.66a3.1 3.1 0 0 1 .35.82c.08.29.12.6.12.92v.49l-3.24-1.31v-.78l2.17.88v-.09c0-.16-.03-.32-.08-.47s-.13-.29-.24-.41a1.1 1.1 0 0 0-.41-.28.6.6 0 0 0-.37-.05c-.1.03-.19.09-.25.18a1.1 1.1 0 0 0-.14.37c-.03.15-.05.32-.05.52v.16c0 .18.02.35.07.51a1.9 1.9 0 0 0 .2.47c.09.14.19.27.32.38s.27.2.42.26c.2.08.38.11.55.1s.32-.08.44-.2l.53.83c-.09.1-.2.18-.35.24s-.32.09-.53.09-.44-.06-.7-.17zm3.62.53l.9-3.18 1.13.46-1.37 3.84-.69-.28.02-.84zm-.62-3.79l.91 3.91.02.86-.69-.28-1.37-4.95 1.14.46zm4.29 1.73v4.39l-1.09-.44v-4.39l1.09.44zm-1.15-1.61c0-.17.06-.29.16-.35s.26-.06.44.01.33.19.44.34.17.32.17.49-.06.29-.17.35-.26.06-.44-.01-.33-.19-.44-.35-.16-.32-.16-.49zm3.93 7.2c-.32-.13-.6-.3-.85-.51s-.46-.45-.64-.72a3.3 3.3 0 0 1-.4-.84c-.09-.3-.14-.59-.14-.88v-.16a2.5 2.5 0 0 1 .13-.86c.09-.24.21-.43.38-.57s.37-.21.6-.22.5.04.8.16a2.7 2.7 0 0 1 .77.46c.22.19.41.42.56.67s.27.53.35.82a3.6 3.6 0 0 1 .12.92v.49l-3.24-1.31v-.78l2.17.88v-.09c0-.16-.03-.32-.08-.47s-.13-.29-.24-.41-.25-.21-.41-.28c-.14-.06-.27-.07-.37-.05s-.19.09-.25.18-.11.22-.14.37-.04.32-.04.52v.16c0 .18.02.35.07.52s.11.32.2.47.19.27.32.38.27.2.43.26a1.2 1.2 0 0 0 .54.1c.17-.01.32-.08.44-.2l.53.83c-.08.1-.2.18-.35.24s-.32.09-.53.09a2.1 2.1 0 0 1-.7-.17zm3.45.18l.85-2.91.69.28-.22 1.19-.85 2.77-.57-.23.11-1.09zm-.43-3.43l.61 3.5.06 1.16-.68-.27-1.03-4.81 1.05.42zm2.74 4.31l.59-2.96 1.05.42-1.03 3.97-.67-.27.06-1.17zm-.68-3.47l.84 3.57.12 1.21-.58-.24-.85-3.45-.21-1.37.68.28z"/><use href="#s"/><path d="M881.24 255.69l5.38 3.02-3.96 1.52.84 4.96-4.79-4.26-4.86.04 1-4.16-3.85-4.93 5.41 1.69 2.48-3.09 2.34 5.2zm18.96 8.05l5.38 3.02-3.96 1.52.84 4.96-4.79-4.26-4.86.04 1-4.16-3.85-4.93 5.41 1.69 2.49-3.09 2.34 5.2zm20.94 12.83l.85 4.96-4.61-4.09-.18-.16-4.86.04.98-4.17-3.84-4.93 5.4 1.69 2.49-3.09 2.35 5.2 5.38 3.03-3.97 1.51z"/></g><path d="M934.09 278.23l-.07.09-.13-.04-4.74-1.48 3.32 4.26.14.17-.04.17-.88 3.65 4.37-.04h.11l.1.09 4.31 3.84-.74-4.36-.03-.2.14-.05 3.42-1.31-4.71-2.64-.13-.07-.07-.15-2.11-4.7-2.25 2.8z" stroke="#70757d" stroke-width=".59" class="N"/><g clip-path="url(#L)" class="C"><path d="M812.45 179.9a4.3 4.3 0 0 1 2.79-3.98l8.81-3.21-1.34-6.3c-.03-.14-.04-.3-.04-.46 0-.61.24-1.26.61-1.8l1.48-2.1 9.18 6.43c.52.36.82.99.82 1.81v14.84a4.3 4.3 0 0 1-2.79 3.98l-12.55 4.57c-1.16.42-2.15.04-2.57-.88l-4.21-8.93c-.12-.3-.2-.63-.2-1.01v-2.97zm30.69 5.16l-5.58 2.03v-17.81l5.58-2.03v17.81z"/></g><g clip-path="url(#M)"><path d="M874.02 194.74c0 .79-.29 1.44-.82 1.8s-1.23.42-1.97.15l-8.82-3.21 1.34 7.27c.03.16.04.33.04.49 0 .61-.24 1.09-.61 1.35l-1.48 1.02-9.18-13.11a4.3 4.3 0 0 1-.82-2.41v-14.84c0-.79.29-1.44.82-1.8s1.23-.42 1.97-.15l12.55 4.57c1.16.42 2.15 1.52 2.57 2.75l4.21 12c.13.39.19.77.19 1.16v2.97zm-30.69-27.5l5.58 2.03v17.81l-5.58-2.03v-17.81z" fill="#c5c5c5"/></g></g></g><rect x="1" y="1" width="1138" height="638" rx="15" stroke="#0668e1" stroke-width="2"/><defs><filter id="A" x="910.84" y="82.85" width="115.16" height="49.15" filterUnits="userSpaceOnUse" class="K"><feFlood class="L"/><feBlend in="SourceGraphic" result="B"/><feColorMatrix in="SourceAlpha" values="0 0 0 0 0 0 0 0 0 0 0 0 0 0 0 0 0 0 127 0" result="C"/><feOffset dy="5.94115"/><feGaussianBlur stdDeviation="5.94"/><feComposite in2="C" operator="arithmetic" k2="-1" k3="1"/><feColorMatrix values="0 0 0 0 0 0 0 0 0 0 0 0 0 0 0 0 0 0 0.25 0"/><feBlend in2="B" result="D"/><feColorMatrix in="SourceAlpha" values="0 0 0 0 0 0 0 0 0 0 0 0 0 0 0 0 0 0 127 0" result="C"/><feOffset dy="-5.94115"/><feGaussianBlur stdDeviation="5.94"/><feComposite in2="C" operator="arithmetic" k2="-1" k3="1"/><feColorMatrix values="0 0 0 0 0 0 0 0 0 0 0 0 0 0 0 0 0 0 0.25 0"/><feBlend in2="D"/></filter><filter id="B" x="1018.43" y="60.93" width="72.14" height="92.98" filterUnits="userSpaceOnUse" class="K"><feFlood class="L"/><feBlend in="SourceGraphic" result="B"/><feColorMatrix in="SourceAlpha" values="0 0 0 0 0 0 0 0 0 0 0 0 0 0 0 0 0 0 127 0" result="C"/><feOffset dy="-5.9375"/><feGaussianBlur stdDeviation="5.94"/><feComposite in2="C" operator="arithmetic" k2="-1" k3="1"/><feColorMatrix values="0 0 0 0 0 0 0 0 0 0 0 0 0 0 0 0 0 0 0.25 0"/><feBlend in2="B" result="D"/><feColorMatrix in="SourceAlpha" values="0 0 0 0 0 0 0 0 0 0 0 0 0 0 0 0 0 0 127 0" result="C"/><feOffset dy="5.9375"/><feGaussianBlur stdDeviation="5.94"/><feComposite in2="C" operator="arithmetic" k2="-1" k3="1"/><feColorMatrix values="0 0 0 0 0 0 0 0 0 0 0 0 0 0 0 0 0 0 0.25 0"/><feBlend in2="D"/></filter><filter id="C" x="114" y="509.25" width="115.16" height="49.15" filterUnits="userSpaceOnUse" class="K"><feFlood class="L"/><feBlend in="SourceGraphic" result="B"/><feColorMatrix in="SourceAlpha" values="0 0 0 0 0 0 0 0 0 0 0 0 0 0 0 0 0 0 127 0" result="C"/><feOffset dy="5.94115"/><feGaussianBlur stdDeviation="5.94"/><feComposite in2="C" operator="arithmetic" k2="-1" k3="1"/><feColorMatrix values="0 0 0 0 0 0 0 0 0 0 0 0 0 0 0 0 0 0 0.25 0"/><feBlend in2="B" result="D"/><feColorMatrix in="SourceAlpha" values="0 0 0 0 0 0 0 0 0 0 0 0 0 0 0 0 0 0 127 0" result="C"/><feOffset dy="-5.94115"/><feGaussianBlur stdDeviation="5.94"/><feComposite in2="C" operator="arithmetic" k2="-1" k3="1"/><feColorMatrix values="0 0 0 0 0 0 0 0 0 0 0 0 0 0 0 0 0 0 0.25 0"/><feBlend in2="D"/></filter><filter id="D" x="49.42" y="487.34" width="72.14" height="92.98" filterUnits="userSpaceOnUse" class="K"><feFlood class="L"/><feBlend in="SourceGraphic" result="B"/><feColorMatrix in="SourceAlpha" values="0 0 0 0 0 0 0 0 0 0 0 0 0 0 0 0 0 0 127 0" result="C"/><feOffset dy="-5.9375"/><feGaussianBlur stdDeviation="5.94"/><feComposite in2="C" operator="arithmetic" k2="-1" k3="1"/><feColorMatrix values="0 0 0 0 0 0 0 0 0 0 0 0 0 0 0 0 0 0 0.25 0"/><feBlend in2="B" result="D"/><feColorMatrix in="SourceAlpha" values="0 0 0 0 0 0 0 0 0 0 0 0 0 0 0 0 0 0 127 0" result="C"/><feOffset dy="5.9375"/><feGaussianBlur stdDeviation="5.94"/><feComposite in2="C" operator="arithmetic" k2="-1" k3="1"/><feColorMatrix values="0 0 0 0 0 0 0 0 0 0 0 0 0 0 0 0 0 0 0.25 0"/><feBlend in2="D"/></filter><filter id="E" x="-3.65" y="56.22" width="331.77" height="98.29" filterUnits="userSpaceOnUse" class="K"><feFlood result="A" class="L"/><feColorMatrix in="SourceAlpha" values="0 0 0 0 0 0 0 0 0 0 0 0 0 0 0 0 0 0 127 0" result="B"/><feOffset dy="1.78125"/><feGaussianBlur stdDeviation="2.38"/><feComposite in2="B" operator="out"/><feColorMatrix values="0 0 0 0 0 0 0 0 0 0 0 0 0 0 0 0 0 0 0.3 0"/><feBlend in2="A"/><feBlend in="SourceGraphic"/></filter><linearGradient id="F" x1="178.13" y1="178.13" x2="0" y2="178.13" gradientUnits="userSpaceOnUse"><stop stop-color="#fff"/><stop offset="1" stop-color="#999" stop-opacity=".4"/></linearGradient><linearGradient id="G" x1="847.71" y1="415.28" x2="847.86" y2="481.55" gradientUnits="userSpaceOnUse"><stop stop-color="#1b1c17"/><stop offset="1" stop-color="#494949"/></linearGradient><clipPath id="H"><rect width="1140" height="640" rx="16" class="B"/></clipPath><clipPath id="I"><path transform="translate(1038.06 90.98)" d="M0 0h32.88v32.88H0z" class="B"/></clipPath><clipPath id="J"><path transform="matrix(-1 0 0 -1 101.938 550.27)" d="M0 0h32.88v32.88H0z" class="B"/></clipPath><clipPath id="K"><path transform="translate(665 141.5)" d="M0 0h356.25v356.25H0z" class="B"/></clipPath><clipPath id="L"><path transform="matrix(.9397 -.342 0 1 811.059 165.559)" d="M0 0h35.63v35.63H0z" class="B"/></clipPath><clipPath id="M"><path transform="matrix(.9397 .342 0 1 841.934 165.25)" d="M0 0h35.63v35.63H0z" class="B"/></clipPath><path id="N" d="M723.93 375.63l-.7 2.4c-.03.1-.03.24.08.29l2.14 1.03c-.07-.05-.1-.14-.06-.28l.77-2.65c.04-.12.02-.27-.12-.3l-2.02-.44c-.01 0-.03-.01-.04-.02l-.03-.01-.03-.01z"/><path id="O" d="M740.36 365.16l-1.28.61.63 1.55c.04.1.16.15.32.07l2.5-1.2c.09-.04.16-.05.21-.03l-2.14-1.03c-.07-.03-.16-.02-.24.02z"/><path id="P" d="M744.92 365.54l-.69 2.4c-.03.1-.03.24.08.29l2.14 1.03c-.07-.05-.1-.14-.07-.28l.78-2.65c.03-.12.02-.27-.12-.3l-2.02-.44c-.01 0-.03-.01-.04-.01-.01 0-.02-.01-.03-.02s-.02-.01-.03-.01z"/><path id="Q" d="M753.26 361.13l-2.16-1.04c-.07-.03-.16-.02-.24.02l-1.28.61.63 1.56c.04.1.16.15.32.07l2.5-1.2c.09-.05.17-.05.23-.02z"/><path id="R" d="M755.42 360.5l-.7 2.4c-.03.1-.03.23.08.29l2.15 1.03c-.07-.04-.1-.14-.06-.28l.77-2.65c.03-.12.02-.27-.12-.3l-2.02-.44c-.02-.01-.04-.01-.06-.02-.01 0-.02-.01-.03-.02z"/><path id="S" d="M771.85 350.03l-1.28.61.63 1.56c.04.1.15.14.32.07l2.5-1.2c.09-.04.17-.05.23-.03l-2.15-1.03c-.07-.03-.16-.02-.24.02z"/><path id="T" d="M730.11 418.04c-.07-.03-.16-.02-.24.02l-1.28.61.63 1.55c.04.1.16.14.32.07l2.5-1.2c.09-.05.17-.05.23-.02l-2.16-1.04z"/><path id="U" d="M789.94 386.86l26.45-12.43v2.75l-26.45 12.43v-2.75z"/><path id="V" d="M810.46 332.95c0 1.82 1.6 2.56 3.58 1.64s3.58-3.14 3.58-4.96-1.6-2.56-3.58-1.64-3.58 3.14-3.58 4.96z"/><path id="W" d="M789.94 401.01l26.45-12.42v2.75l-26.45 12.43v-2.76z"/><path id="X" d="M798.84 396.83l17.55-8.24v2.75l-17.55 8.24v-2.75z"/><path id="Y" d="M789.94 406.8l26.45-12.43v2.76l-26.45 12.42v-2.75z"/><path id="Z" d="M813.17 431.98l3.15-1.46v-2.91l-3.15 1.46v2.91z"/><path id="a" d="M801.52 437.38l3.15-1.47v-2.9l-3.15 1.46v2.91z"/><path id="b" d="M813.17 436.92l3.15-1.46v-2.91l-3.15 1.47v2.9z"/><path id="c" d="M961.73 375.63l.7 2.4c.03.1.02.24-.08.29l-2.14 1.03c.07-.05.1-.14.06-.28l-.77-2.65c-.04-.12-.02-.27.12-.3l2.02-.44c.02 0 .03-.01.04-.02l.02-.01.03-.01z"/><path id="d" d="M945.29 365.16l1.28.61-.63 1.55c-.04.1-.16.15-.32.07l-2.5-1.2c-.08-.04-.15-.05-.21-.03l2.14-1.03c.07-.03.16-.02.24.02z"/><path id="e" d="M940.73 365.54l.69 2.4c.03.1.03.24-.08.29l-2.15 1.03c.07-.05.1-.14.07-.28l-.77-2.65c-.03-.12-.02-.27.12-.3l2.02-.44c.01 0 .02-.01.04-.01.01 0 .02-.01.03-.02s.02-.01.03-.01z"/><path id="f" d="M932.4 361.13l2.16-1.04c.07-.03.16-.02.24.02l1.28.61-.63 1.56c-.04.1-.16.15-.32.07l-2.5-1.2c-.09-.05-.17-.05-.23-.02z"/><path id="g" d="M930.24 360.5l.7 2.4c.03.1.03.23-.08.29l-2.14 1.03c.07-.04.1-.14.06-.28l-.77-2.65c-.03-.12-.02-.27.12-.3l2.02-.44c.03-.01.04-.01.06-.02.01 0 .02-.01.03-.02z"/><path id="h" d="M913.81 350.03l1.28.61-.63 1.56c-.04.1-.15.14-.32.07l-2.5-1.2c-.09-.04-.17-.05-.22-.03l2.15-1.03c.07-.03.16-.02.24.02z"/><path id="i" d="M955.55 418.04c.07-.03.16-.02.24.02l1.28.61-.63 1.55c-.04.1-.16.14-.32.07l-2.5-1.2c-.09-.05-.17-.05-.23-.02l2.16-1.04z"/><path id="j" d="M895.71 386.86l-26.45-12.43v2.75l26.45 12.43v-2.75z"/><path id="k" d="M875.2 332.95c0 1.82-1.6 2.56-3.58 1.64s-3.58-3.14-3.58-4.96 1.6-2.56 3.58-1.64 3.58 3.14 3.58 4.96z"/><path id="l" d="M895.71 401.01l-26.45-12.42v2.75l26.45 12.43v-2.76z"/><path id="m" d="M886.81 396.83l-17.55-8.24v2.75l17.55 8.24v-2.75z"/><path id="n" d="M895.71 406.8l-26.45-12.43v2.76l26.45 12.42v-2.75z"/><path id="o" d="M872.48 431.98l-3.15-1.46v-2.91l3.15 1.46v2.91z"/><path id="p" d="M884.13 437.38l-3.15-1.47v-2.9l3.15 1.46v2.91z"/><path id="q" d="M872.48 436.92l-3.15-1.46v-2.91l3.15 1.47v2.9z"/><path id="r" d="M786.1 263.74l-5.38 3.02 3.96 1.52-.84 4.96 4.79-4.26 4.86.04-1-4.16 3.85-4.93-5.41 1.69-2.49-3.09-2.34 5.2z"/><path id="s" d="M861.73 247.4l5.38 3.02-3.96 1.52.84 4.96-4.79-4.26-4.86.04 1-4.16-3.85-4.93 5.41 1.69 2.48-3.09 2.34 5.2z"/></defs></svg>