<svg xmlns="http://www.w3.org/2000/svg" width="1140" height="640" fill="none" xmlns:v="https://vecta.io/nano"><style><![CDATA[.B{fill:#fff}.C{fill:#0668e1}.D{stroke-miterlimit:10}.E{stroke-linecap:round}.F{stroke-linejoin:round}.G{color-interpolation-filters:sRGB}.H{flood-opacity:0}.I{stroke:#fff}.J{stroke-width:1.12}.K{stroke:#0668e1}.L{stroke-width:.59}]]></style><g clip-path="url(#h)"><rect width="1140" height="640" rx="16" class="B"/><g filter="url(#A)" class="C"><path d="M911.77 101.48a8.8 8.8 0 0 1 7.84-12.69h97.62c4.84 0 8.77 3.93 8.77 8.77v19.73c0 4.84-3.93 8.77-8.77 8.77h-87.74c-3.32 0-6.36-1.87-7.84-4.85l-9.87-19.73z"/></g><g class="B"><path d="M988.57 111.48c.04-.75.03-1.5.15-2.23.09-.56-.03-.96-.39-1.36a28.2 28.2 0 0 1-1.4-1.7c-.74-.95-.39-2.16.77-2.3a4.9 4.9 0 0 0 4.25-3.2c.5-1.14 1.7-1.08 2.37-.01.04.06.09.12.11.19a4.2 4.2 0 0 0 3.91 2.97c.32.03.68.21.93.43.53.45.57 1.22.12 1.82-.41.55-.82 1.13-1.31 1.59-.59.56-.68 1.2-.57 1.95l.16 1.8c.08 1.16-.82 1.88-1.85 1.47l-2.18-.92a1.7 1.7 0 0 0-1.04.01c-.74.26-1.45.63-2.18.92-1.03.39-1.89-.28-1.84-1.41zm-19.76.21c.05-.83.01-1.45.15-2.03.2-.87-.01-1.53-.62-2.13-.42-.41-.77-.9-1.13-1.37-.74-.97-.4-2.02.74-2.33l1.82-.45c.67-.11 1.13-.4 1.44-1.06.28-.6.66-1.16 1.01-1.73.63-.99 1.7-1 2.32-.02.41.64.74 1.34 1.19 1.95a2.4 2.4 0 0 0 .99.77c.63.24 1.3.33 1.96.49 1.33.33 1.68 1.38.82 2.47l-1.43 1.77c-.2.28-.31.69-.3 1.04.01.77.13 1.54.18 2.31.08 1.21-.88 2.03-1.88 1.44a4.8 4.8 0 0 0-5.32-.01c-.99.58-1.94-.17-1.92-1.1zm-19.73-.05l.19-2.54c0-.39-.16-.83-.38-1.15-.43-.63-.96-1.18-1.43-1.78-.74-.95-.38-2.02.76-2.33.2-.06.4-.15.61-.15 1.71-.06 2.73-1.06 3.38-2.6.09-.21.22-.42.36-.61.58-.82 1.6-.84 2.17.01.44.65.85 1.33 1.21 2.03a1.5 1.5 0 0 0 1.18.85l1.96.48c1.14.31 1.49 1.37.77 2.33l-.36.44c-1.59 1.92-1.59 1.92-1.31 4.43.02.19.05.39.04.58-.03 1.01-.88 1.64-1.79 1.29l-2.32-.98c-.28-.1-.64-.1-.92 0l-2.26.95c-1 .39-1.91-.3-1.87-1.24z"/></g><g filter="url(#B)" class="C"><path d="M1050.94 67.83a7.1 7.1 0 0 1 7.12 0l28.95 16.71a7.1 7.1 0 0 1 3.56 6.17v33.43a7.1 7.1 0 0 1-3.56 6.17l-28.95 16.71a7.1 7.1 0 0 1-7.12 0l-28.95-16.71c-2.2-1.27-3.56-3.62-3.56-6.17V90.71c0-2.55 1.36-4.9 3.56-6.17l28.95-16.71z"/></g><g clip-path="url(#i)" class="B"><path d="M1046.69 113.38l.01-7.75a2.7 2.7 0 0 1 .25-1.08l5.32-11.36c.26-.58.65-.86 1.29-.84.91.03 1.82-.08 2.67.32a3.8 3.8 0 0 1 2.36 3.63l.01 3.63v1.49c0 .73.02.75.72.75l6.05.01a4.2 4.2 0 0 1 1.45.25c1.81.67 2.77 2.44 2.47 4.34l-1.56 10.07-.44 2.63c-.33 1.7-1.88 3.01-3.61 3.01h-15.89c-.7 0-1.1-.44-1.1-1.19v-7.92zm-1.35 9.08c-1.11 0-2.33.07-3.53-.02-1.24-.09-2.13-1.17-2.14-2.47v-6.96-6.08c0-1.67 1-2.67 2.66-2.67h3.02l-.07 2.58v12.65l.06 2.98z"/></g><g filter="url(#C)" class="C"><path d="M228.22 527.88a8.8 8.8 0 0 0-7.84-12.69h-97.61c-4.84 0-8.77 3.93-8.77 8.77v19.73c0 4.84 3.93 8.77 8.77 8.77h87.74c3.32 0 6.36-1.88 7.84-4.85l9.87-19.73z"/></g><g stroke-width="1.1" class="I"><path d="M146.94 526.8c-.21 0-.53.15-.8.57l-.01.01-.04.05-.02.03a5 5 0 0 1-1.69 2.36c-.75.56-1.66.86-2.69.95h0c-.18.01-.43.13-.62.3h0c-.27.23-.34.66-.03 1.08l1.24 1.52h0a2.4 2.4 0 0 1 .7 1.17c.11.42.09.85.03 1.26-.08.57-.11 1.15-.16 1.76-.03.43.12.71.3.85.17.14.44.21.8.07h0l1.07-.47 1.14-.47h.01l.17-.05c.4-.1.85-.07 1.23.06h0l1.14.47 1.06.46c.36.14.63.07.8-.06s.32-.39.3-.81l-.15-2.18a2.2 2.2 0 0 1 .04-.98 2 2 0 0 1 .33-.65l.16-.19.7-.81.68-.85c.28-.36.31-.71.24-.95-.07-.22-.26-.42-.63-.46a5.7 5.7 0 0 1-2.84-1.06c-.79-.59-1.39-1.42-1.85-2.47h0c-.18-.41-.42-.51-.61-.5zm19.67 0c-.19 0-.46.11-.69.48h0l-.57.96-.64 1.02h0a2.9 2.9 0 0 1-1.24.95h0a9.2 9.2 0 0 1-1.04.3l-.97.21h0c-.55.14-.78.39-.85.59s-.04.55.32 1l1.28 1.56.17.24c.27.38.41.91.4 1.36l-.08 1.2-.06.57-.05.56c-.03.46.14.78.33.93.17.13.41.19.73 0 .97-.57 1.94-.88 2.94-.88a5.5 5.5 0 0 1 2.58.67l.37.2c.32.19.58.14.76.03.17-.11.3-.31.32-.55v-.1l-.04-1.1c-.01-.32-.03-.58-.09-.82h0c-.12-.51-.12-.99.02-1.45a2.8 2.8 0 0 1 .76-1.2h0c.38-.37.7-.82 1.08-1.31.29-.37.32-.7.25-.91s-.27-.44-.69-.55l-1.77-.44h0c-.39-.06-.76-.18-1.09-.42s-.58-.55-.76-.95h0c-.26-.56-.61-1.09-.98-1.66h0c-.24-.38-.51-.5-.7-.5zm19.72 0c-.19 0-.43.1-.62.38h0a18.9 18.9 0 0 0-1.17 1.97h0c-.17.34-.39.6-.67.79s-.58.29-.9.35l-1.92.47h0c-.43.12-.63.35-.7.56s-.05.54.23.91l.35.43c.76.92 1.25 1.5 1.46 2.18s.11 1.45-.02 2.65h0l-.04.49v.01c.01.35.16.6.34.73.17.13.42.18.7.07h0l1.13-.48 1.19-.5h0c.4-.15.9-.14 1.29 0h0l1.16.48 1.1.48c.64.25 1.14-.17 1.12-.7l-.19-2.58a2.8 2.8 0 0 1 .47-1.45h0l.18-.25.56-.69.71-.86h0c.28-.36.31-.68.24-.89s-.28-.45-.71-.57h0l-.32-.1c-.08-.03-.13-.03-.16-.03h0a3.9 3.9 0 0 1-2.41-.86c-.64-.53-1.11-1.25-1.45-2.07v-.01c-.06-.15-.16-.31-.29-.5-.2-.29-.45-.39-.65-.39z"/></g><g filter="url(#D)" class="C"><path d="M89.06 494.23a7.1 7.1 0 0 0-7.12 0l-28.95 16.71c-2.2 1.27-3.56 3.63-3.56 6.17v33.43a7.1 7.1 0 0 0 3.56 6.17l28.95 16.71a7.1 7.1 0 0 0 7.13 0l28.95-16.71a7.1 7.1 0 0 0 3.56-6.17v-33.43a7.1 7.1 0 0 0-3.56-6.17l-28.95-16.71z"/></g><g clip-path="url(#j)" class="B"><path d="M93.31 527.87l-.01 7.75a2.7 2.7 0 0 1-.25 1.08l-5.32 11.36c-.26.57-.65.86-1.29.84-.9-.03-1.82.08-2.67-.32a3.8 3.8 0 0 1-2.36-3.63l-.01-3.63v-1.49c0-.73-.02-.75-.73-.75-2.01 0-4.03.01-6.04-.01-.49-.01-1-.07-1.45-.25-1.81-.67-2.77-2.44-2.47-4.34l1.56-10.07.44-2.63c.34-1.7 1.88-3.01 3.61-3.01h15.89c.7 0 1.1.44 1.1 1.18v7.92zm1.35-9.08l3.53.02c1.24.09 2.13 1.17 2.14 2.47l.01 6.96v6.08c0 1.67-1.01 2.67-2.66 2.67h-3.02l.08-2.58v-12.65l-.06-2.98z"/></g><path d="M134.75 251.71v4.05h-11.19v-4.05h11.19zm-9.44-8.66v21.82h-5.26v-21.82h5.26zm12.98 0v21.82h-5.25v-21.82h5.25zm2.47 13.88v-.31c0-1.19.17-2.28.51-3.28.34-1.01.84-1.88 1.5-2.62a6.7 6.7 0 0 1 2.44-1.72c.97-.42 2.09-.63 3.36-.63 1.28 0 2.4.21 3.37.63a6.7 6.7 0 0 1 2.46 1.72c.66.74 1.16 1.61 1.5 2.62.34 1 .51 2.09.51 3.28v.31a10.2 10.2 0 0 1-.51 3.28c-.34 1-.84 1.87-1.5 2.62a6.7 6.7 0 0 1-2.44 1.72c-.97.41-2.09.61-3.36.61s-2.39-.2-3.37-.61a6.7 6.7 0 0 1-2.46-1.72c-.66-.75-1.16-1.62-1.5-2.62a10.2 10.2 0 0 1-.51-3.28zm5.05-.31v.31a10.2 10.2 0 0 0 .14 1.71c.09.53.24.99.45 1.39.21.39.49.69.85.91s.81.33 1.35.33c.53 0 .97-.11 1.32-.33.36-.22.65-.52.86-.91a4.7 4.7 0 0 0 .45-1.39 10.2 10.2 0 0 0 .14-1.71v-.31c0-.59-.05-1.14-.14-1.66a4.7 4.7 0 0 0-.45-1.39c-.21-.41-.5-.73-.86-.96s-.81-.34-1.35-.34c-.53 0-.97.11-1.33.34-.35.23-.63.55-.84.96-.21.4-.36.87-.45 1.39-.09.52-.14 1.07-.14 1.66zm12.21.31v-.31c0-1.19.17-2.28.51-3.28.34-1.01.84-1.88 1.5-2.62s1.47-1.31 2.44-1.72c.97-.42 2.09-.63 3.36-.63a8.4 8.4 0 0 1 3.37.63 6.7 6.7 0 0 1 2.46 1.72c.66.74 1.16 1.61 1.5 2.62.34 1 .51 2.09.51 3.28v.31a10.2 10.2 0 0 1-.51 3.28c-.34 1-.84 1.87-1.5 2.62-.66.74-1.47 1.31-2.44 1.72s-2.09.61-3.36.61-2.39-.2-3.37-.61a6.7 6.7 0 0 1-2.46-1.72c-.66-.75-1.16-1.62-1.5-2.62a10.2 10.2 0 0 1-.51-3.28zm5.05-.31v.31a10.2 10.2 0 0 0 .13 1.71c.09.53.24.99.45 1.39.21.39.49.69.85.91s.81.33 1.35.33c.53 0 .97-.11 1.32-.33.36-.22.64-.52.85-.91.21-.4.36-.87.45-1.39a10.2 10.2 0 0 0 .13-1.71v-.31c0-.59-.04-1.14-.13-1.66-.09-.53-.24-.99-.45-1.39-.21-.41-.49-.73-.85-.96s-.81-.34-1.35-.34c-.53 0-.97.11-1.33.34-.35.23-.63.55-.84.96-.21.4-.36.87-.45 1.39-.09.52-.13 1.07-.13 1.66zm17.94-14.78v23.03h-5.05v-23.03h5.05zm10.37 6.82l-7.04 8.26-3.69 3.69-2.2-3.21 3.07-4 3.81-4.74h6.06zm-5.41 16.22l-4.33-7.39 3.73-2.65 6.38 10.04h-5.78zm14.28.3c-1.32 0-2.5-.2-3.54-.61a7.7 7.7 0 0 1-2.64-1.72c-.71-.73-1.25-1.57-1.63-2.52a8.2 8.2 0 0 1-.56-3.01v-.57c0-1.19.17-2.29.5-3.3a7.7 7.7 0 0 1 1.47-2.67c.65-.76 1.46-1.35 2.44-1.77.98-.43 2.12-.65 3.42-.65 1.15 0 2.18.19 3.09.56a6.3 6.3 0 0 1 2.31 1.59c.64.69 1.12 1.52 1.45 2.5a10 10 0 0 1 .51 3.3v2.05h-13.25v-3.16h8.32v-.39c.01-.54-.09-1-.28-1.38-.19-.38-.47-.67-.84-.87a2.8 2.8 0 0 0-1.35-.3 2.4 2.4 0 0 0-1.36.36c-.35.24-.62.57-.83.99-.19.41-.32.88-.4 1.42s-.12 1.11-.12 1.71v.57c0 .6.08 1.14.24 1.63a3.7 3.7 0 0 0 .72 1.26 3.4 3.4 0 0 0 1.14.8 3.9 3.9 0 0 0 1.53.28 5.6 5.6 0 0 0 2.04-.39c.67-.26 1.24-.69 1.72-1.29l2.29 2.73a5.9 5.9 0 0 1-1.41 1.36c-.6.44-1.32.8-2.16 1.08-.84.27-1.78.4-2.82.4zm18.19-4.02v-19.3h5.08v23.02h-4.56l-.52-3.72zm-9.95-4.2v-.31a13 13 0 0 1 .4-3.36c.27-1.02.67-1.89 1.2-2.62a5.4 5.4 0 0 1 1.98-1.71c.79-.4 1.7-.6 2.73-.6.92 0 1.72.22 2.41.65.69.42 1.28 1.01 1.77 1.77s.89 1.65 1.2 2.67c.31 1.01.54 2.1.7 3.27v.37c-.16 1.1-.39 2.14-.7 3.12-.31.97-.71 1.83-1.2 2.58a5.7 5.7 0 0 1-1.78 1.77c-.69.42-1.5.63-2.43.63-1.03 0-1.94-.2-2.73-.61a5.6 5.6 0 0 1-1.96-1.72c-.52-.74-.91-1.61-1.18-2.61a12.5 12.5 0 0 1-.4-3.27zm5.05-.31v.31c0 .61.04 1.17.12 1.69a5 5 0 0 0 .4 1.38c.2.39.46.69.78.91.33.22.73.33 1.21.33.65 0 1.18-.15 1.6-.46.43-.31.75-.75.94-1.32a5.2 5.2 0 0 0 .27-2.01v-1.18c.02-.66-.03-1.24-.13-1.74-.11-.51-.28-.93-.52-1.27-.23-.34-.53-.59-.88-.76-.35-.18-.76-.27-1.24-.27-.47 0-.87.11-1.2.33a2.4 2.4 0 0 0-.78.93 4.8 4.8 0 0 0-.43 1.39 10.4 10.4 0 0 0-.13 1.74zm28.91 4.15v-6.68c0-.46-.06-.85-.19-1.18s-.34-.59-.61-.76c-.28-.19-.66-.28-1.12-.28-.38 0-.7.06-.97.19s-.47.32-.61.58-.21.59-.21.99h-5.05a4.5 4.5 0 0 1 .49-2.08c.34-.65.82-1.21 1.44-1.69.63-.48 1.38-.85 2.25-1.11.88-.27 1.86-.41 2.94-.41a8.7 8.7 0 0 1 3.45.65 5.4 5.4 0 0 1 2.41 1.93 5.5 5.5 0 0 1 .88 3.21v6.64c0 1.06.06 1.86.18 2.41.12.54.29 1.01.51 1.42v.25h-5.07c-.24-.5-.42-1.11-.54-1.83-.11-.73-.17-1.48-.17-2.25zm.61-5.83l.03 2.7h-2.23c-.47 0-.87.06-1.2.19-.32.13-.58.31-.78.54-.19.22-.33.47-.42.75-.08.28-.12.57-.12.88 0 .3.07.57.21.81.15.23.35.41.6.54s.53.19.84.19c.56 0 1.03-.11 1.42-.31.4-.22.7-.48.91-.79s.31-.6.31-.87l1.11 2.07c-.2.4-.43.8-.69 1.21-.25.41-.56.79-.94 1.14a4.5 4.5 0 0 1-1.36.84c-.54.21-1.19.31-1.96.31a6.2 6.2 0 0 1-2.76-.61 5.1 5.1 0 0 1-1.99-1.71c-.5-.74-.75-1.59-.75-2.55 0-.84.15-1.59.45-2.25a4.4 4.4 0 0 1 1.39-1.68c.62-.46 1.41-.81 2.37-1.05s2.09-.36 3.39-.36h2.17zm12.23-2.85v12.75h-5.05v-16.22h4.74l.31 3.46zm-.6 4.09l-1.18.03c0-1.24.15-2.34.45-3.31.3-.98.72-1.81 1.27-2.49a5.4 5.4 0 0 1 1.96-1.54c.77-.36 1.62-.54 2.56-.54a6.1 6.1 0 0 1 2.05.33 3.9 3.9 0 0 1 1.62 1.06c.46.49.81 1.14 1.05 1.95.25.8.38 1.79.38 2.97v10.21h-5.08v-10.22c0-.65-.09-1.14-.27-1.48-.18-.35-.44-.59-.78-.72s-.75-.19-1.24-.19c-.52 0-.96.1-1.32.3s-.65.48-.87.84c-.21.35-.36.76-.46 1.24-.09.48-.14 1-.14 1.57zm22.29 4.95v-19.3h5.08v23.02h-4.56l-.52-3.72zm-9.95-4.2v-.31c0-1.23.13-2.35.4-3.36.27-1.02.67-1.89 1.2-2.62a5.4 5.4 0 0 1 1.98-1.71c.79-.4 1.7-.6 2.73-.6.92 0 1.72.22 2.41.65.69.42 1.28 1.01 1.77 1.77s.89 1.65 1.2 2.67c.31 1.01.54 2.1.7 3.27v.37c-.16 1.1-.39 2.14-.7 3.12-.31.97-.71 1.83-1.2 2.58s-1.08 1.34-1.78 1.77c-.69.42-1.5.63-2.43.63-1.03 0-1.94-.2-2.73-.61a5.6 5.6 0 0 1-1.96-1.72c-.52-.74-.91-1.61-1.18-2.61s-.4-2.09-.4-3.27zm5.05-.31v.31c0 .61.04 1.17.12 1.69s.21.98.4 1.38c.2.39.46.69.78.91.33.22.73.33 1.21.33.65 0 1.18-.15 1.6-.46.43-.31.75-.75.94-1.32.21-.57.3-1.24.27-2.01v-1.18c.02-.66-.02-1.24-.13-1.74-.11-.51-.28-.93-.52-1.27-.23-.34-.52-.59-.88-.76-.35-.18-.76-.27-1.24-.27-.47 0-.87.11-1.2.33a2.4 2.4 0 0 0-.78.93c-.2.39-.34.85-.44 1.39a10.4 10.4 0 0 0-.13 1.74zm23.33-13.59h4.29l4.87 15.18 4.87-15.18h4.29l-7.42 21.82h-3.48l-7.42-21.82zm-2.61 0h4.44l.83 16.72v5.1h-5.26v-21.82zm19.09 0h4.45v21.82h-5.27v-5.1l.82-16.72zm12.92 5.6v16.22h-5.07v-16.22h5.07zm-5.37-4.18c0-.72.26-1.31.78-1.77s1.19-.69 2.02-.69 1.5.23 2.02.69.78 1.05.78 1.77-.26 1.31-.78 1.77-1.19.69-2.02.69-1.5-.23-2.02-.69-.78-1.05-.78-1.77zm16.98 15.84c0-.28-.09-.52-.28-.72-.18-.21-.5-.4-.96-.57a13.4 13.4 0 0 0-1.93-.54c-.79-.17-1.53-.39-2.23-.67a7.7 7.7 0 0 1-1.81-1.02 4.5 4.5 0 0 1-1.23-1.42 4 4 0 0 1-.44-1.89 4.5 4.5 0 0 1 .44-1.95c.3-.62.73-1.16 1.3-1.63.58-.48 1.28-.85 2.11-1.12.83-.28 1.77-.42 2.83-.42 1.46 0 2.72.22 3.78.67a5.5 5.5 0 0 1 2.44 1.86 4.5 4.5 0 0 1 .87 2.74h-5.05a2.4 2.4 0 0 0-.21-1.05c-.13-.29-.34-.51-.64-.66-.3-.16-.7-.24-1.2-.24-.35 0-.67.06-.96.19-.28.13-.5.31-.67.54s-.25.5-.25.81c0 .22.05.42.15.6.11.17.27.33.49.48.22.14.5.27.84.39.34.11.75.21 1.23.3a16.8 16.8 0 0 1 3.06.85c.95.37 1.72.9 2.31 1.57.6.68.9 1.59.9 2.74 0 .72-.17 1.38-.5 1.99-.33.6-.8 1.13-1.42 1.59a7.1 7.1 0 0 1-2.23 1.05c-.87.25-1.85.38-2.94.38-1.55 0-2.86-.27-3.93-.82a6.3 6.3 0 0 1-2.43-2.1c-.54-.85-.81-1.71-.81-2.58h4.7c.02.5.14.91.36 1.23.23.32.53.55.91.7s.82.22 1.32.22c.46 0 .84-.06 1.14-.19.31-.13.54-.31.7-.52.16-.23.24-.5.24-.8zm12.57-18.46v23.02h-5.07v-23.02h5.07zm10.97 23.32c-1.32 0-2.5-.2-3.54-.61a7.7 7.7 0 0 1-2.64-1.72c-.71-.73-1.25-1.57-1.63-2.52a8.2 8.2 0 0 1-.56-3.01v-.57c0-1.19.16-2.29.5-3.3a7.7 7.7 0 0 1 1.47-2.67c.65-.76 1.46-1.35 2.44-1.77.98-.43 2.12-.65 3.42-.65 1.15 0 2.18.19 3.09.56s1.68.9 2.31 1.59c.64.69 1.12 1.52 1.45 2.5a10 10 0 0 1 .51 3.3v2.05h-13.25v-3.16h8.32v-.39a2.8 2.8 0 0 0-.28-1.38c-.19-.38-.47-.67-.84-.87a2.8 2.8 0 0 0-1.35-.3 2.4 2.4 0 0 0-1.36.36c-.35.24-.62.57-.82.99-.19.41-.32.88-.4 1.42s-.12 1.11-.12 1.71v.57c0 .6.08 1.14.24 1.63.17.49.41.91.72 1.26a3.4 3.4 0 0 0 1.14.8 3.9 3.9 0 0 0 1.53.28 5.6 5.6 0 0 0 2.04-.39c.67-.26 1.24-.69 1.72-1.29l2.29 2.73a5.9 5.9 0 0 1-1.41 1.36c-.6.44-1.32.8-2.16 1.08-.84.27-1.78.4-2.82.4zm18.19-4.02v-19.3h5.08v23.02h-4.56l-.52-3.72zm-9.95-4.2v-.31a13 13 0 0 1 .41-3.36 7.8 7.8 0 0 1 1.2-2.62 5.4 5.4 0 0 1 1.98-1.71c.79-.4 1.7-.6 2.73-.6.92 0 1.72.22 2.41.65.69.42 1.28 1.01 1.77 1.77a10.6 10.6 0 0 1 1.2 2.67c.31 1.01.54 2.1.7 3.27v.37c-.16 1.1-.39 2.14-.7 3.12a10.6 10.6 0 0 1-1.2 2.58 5.7 5.7 0 0 1-1.78 1.77c-.69.42-1.5.63-2.43.63-1.03 0-1.94-.2-2.73-.61a5.6 5.6 0 0 1-1.96-1.72 8.2 8.2 0 0 1-1.18-2.61 12.5 12.5 0 0 1-.41-3.27zm5.05-.31v.31c0 .61.04 1.17.12 1.69a5 5 0 0 0 .4 1.38c.2.39.46.69.78.91.33.22.73.33 1.21.33.65 0 1.18-.15 1.6-.46.43-.31.74-.75.94-1.32a5.2 5.2 0 0 0 .27-2.01v-1.18c.02-.66-.02-1.24-.13-1.74-.11-.51-.29-.93-.52-1.27-.23-.34-.53-.59-.88-.76-.35-.18-.76-.27-1.24-.27-.47 0-.87.11-1.2.33a2.4 2.4 0 0 0-.78.93 4.8 4.8 0 0 0-.43 1.39 10.4 10.4 0 0 0-.13 1.74zm20.53-14.79h5.05v19.03l-.53 3.99h-4.53v-23.02zm15 14.73v.31c0 1.23-.12 2.35-.37 3.36s-.63 1.88-1.15 2.62c-.52.73-1.17 1.29-1.96 1.69s-1.72.6-2.8.6a4.8 4.8 0 0 1-2.52-.63 5.4 5.4 0 0 1-1.75-1.77c-.47-.76-.85-1.63-1.14-2.62a24.6 24.6 0 0 1-.69-3.21v-.37c.17-1.13.4-2.19.69-3.18.29-1 .67-1.87 1.14-2.62.47-.76 1.05-1.35 1.74-1.77.7-.43 1.53-.65 2.5-.65 1.09 0 2.03.2 2.82.62a5.4 5.4 0 0 1 1.98 1.72c.52.74.9 1.61 1.15 2.61a13.5 13.5 0 0 1 .38 3.28zm-5.05.31v-.31a12.5 12.5 0 0 0-.11-1.66c-.07-.52-.19-.98-.37-1.38s-.44-.71-.76-.94a2.2 2.2 0 0 0-1.29-.34 3.1 3.1 0 0 0-1.36.27c-.36.18-.65.44-.87.78-.21.33-.36.74-.45 1.23-.09.48-.13 1.02-.12 1.63v1.18c-.02.83.06 1.54.22 2.13s.47 1.04.88 1.35.99.46 1.72.46c.54 0 .97-.1 1.3-.31.34-.21.6-.51.77-.9s.28-.86.34-1.39.09-1.13.09-1.78zm12.09 6.07l4.2-14.31h5.43l-6.52 18.63a11.4 11.4 0 0 1-.56 1.32 5.5 5.5 0 0 1-.94 1.36 4.5 4.5 0 0 1-1.54 1.05 5.8 5.8 0 0 1-2.31.4 5.6 5.6 0 0 1-1.08-.07l-1.02-.22v-3.61h.33.33c.54 0 .97-.06 1.29-.17.33-.11.58-.27.75-.48.18-.21.32-.46.42-.76l1.23-3.13zm-1.06-14.31l3.19 11.35.55 5.35h-3.39l-5.77-16.69h5.41zm-260.78 89.82l-1.64 9.39h-26.27l1.64-9.39h26.27zm-14.82-41.26l-8.8 50.65h-11.9l8.77-50.65h11.93zm15.1 20.11l-1.56 9.08h-22.89l1.6-9.08h22.86zm6.96-20.11l-1.63 9.43h-26.37l1.67-9.43h26.34zm11.97 21.6l-5.04 29.05h-11.45l6.54-37.64h10.68l-.73 8.59zm-2.85 8.94l-2.47.1a32.1 32.1 0 0 1 1.43-6.68 22.1 22.1 0 0 1 3.06-5.98 14.4 14.4 0 0 1 4.84-4.24c1.93-1.04 4.18-1.53 6.75-1.46 1.9.05 3.48.45 4.73 1.22 1.25.74 2.23 1.74 2.92 2.99.72 1.23 1.18 2.63 1.39 4.21.23 1.55.27 3.17.1 4.84l-4.17 25.12h-11.45l3.93-23.66a13.8 13.8 0 0 0 .07-2.75 3.4 3.4 0 0 0-.83-2.09c-.49-.56-1.31-.85-2.47-.87-1.25-.05-2.33.22-3.24.8a7.5 7.5 0 0 0-2.3 2.23c-.6.93-1.1 1.94-1.5 3.03-.37 1.09-.64 2.16-.8 3.2zm20.84 0l-3.03.1a32.9 32.9 0 0 1 1.39-6.64c.72-2.2 1.71-4.2 2.96-5.98 1.28-1.79 2.86-3.2 4.77-4.24a13.3 13.3 0 0 1 6.75-1.5c2.09.07 3.8.52 5.15 1.36s2.37 1.95 3.06 3.34c.72 1.39 1.18 2.95 1.39 4.66a24 24 0 0 1 .03 5.32l-3.97 23.69h-11.48l3.97-23.73c.12-.95.14-1.84.07-2.68a3.4 3.4 0 0 0-.84-2.09c-.46-.56-1.26-.85-2.4-.87-1.3-.05-2.41.21-3.34.77-.9.56-1.66 1.3-2.26 2.23a11.7 11.7 0 0 0-1.43 3.03c-.35 1.09-.62 2.17-.8 3.24zm41.71-9.67l-7.69 44.25h-11.45l9.05-52.12h10.61l-.52 7.86zm20.53 10.3l-.1.73c-.25 2.27-.78 4.57-1.56 6.89a24.4 24.4 0 0 1-3.17 6.37 15.4 15.4 0 0 1-4.94 4.63c-1.97 1.14-4.29 1.67-6.96 1.6-2.34-.07-4.26-.72-5.74-1.95-1.48-1.25-2.64-2.83-3.48-4.73-.81-1.93-1.38-3.95-1.7-6.09-.3-2.16-.43-4.16-.38-6.02l.1-1.01a38.6 38.6 0 0 1 1.74-6.47 28 28 0 0 1 3.2-6.33c1.32-1.97 2.91-3.56 4.77-4.77 1.85-1.23 4.01-1.81 6.47-1.74 2.57.07 4.69.68 6.33 1.84a10.9 10.9 0 0 1 3.76 4.49 18.8 18.8 0 0 1 1.63 6.05c.23 2.2.24 4.37.03 6.51zm-11.52.7l.07-.73.17-2.89c.05-1.09-.02-2.16-.21-3.2-.16-1.04-.54-1.91-1.15-2.61-.58-.72-1.47-1.1-2.68-1.15-1.41-.07-2.6.15-3.55.66a6.4 6.4 0 0 0-2.33 2.12 11.5 11.5 0 0 0-1.36 3.06 21 21 0 0 0-.7 3.44l-.31 2.85c-.16 1.32-.2 2.67-.1 4.04.09 1.34.49 2.48 1.18 3.41.72.93 1.93 1.41 3.62 1.46 1.34.02 2.46-.3 3.34-.97.91-.67 1.62-1.55 2.16-2.64.56-1.09.97-2.24 1.25-3.44l.59-3.41zm34.51-34.65l-9.25 53.44H255.7l9.25-53.44h11.48zm-.49 35.21l.07-.73a26.5 26.5 0 0 1 1.98-7.62 21.1 21.1 0 0 1 4.07-6.23c1.72-1.79 3.73-3.17 6.05-4.14a18.4 18.4 0 0 1 7.79-1.39c2.76.05 5.15.58 7.17 1.6s3.68 2.41 4.97 4.17c1.3 1.74 2.22 3.76 2.75 6.05a22.1 22.1 0 0 1 .49 7.27l-.07.77c-.3 2.69-.97 5.21-2.02 7.55a21 21 0 0 1-4.14 6.16 17.8 17.8 0 0 1-6.02 4.11c-2.32.97-4.91 1.43-7.76 1.36-2.71-.05-5.09-.57-7.13-1.57-2.02-1.02-3.68-2.39-4.97-4.11-1.3-1.74-2.23-3.73-2.78-5.98-.53-2.27-.68-4.7-.45-7.27zm11.51-.73l-.07.73-.14 3.13a13.6 13.6 0 0 0 .38 3.24c.25 1.02.72 1.87 1.39 2.54.7.65 1.69 1 2.99 1.04 1.39.05 2.55-.24 3.48-.87.95-.63 1.72-1.46 2.3-2.5a13.8 13.8 0 0 0 1.32-3.37c.32-1.21.54-2.37.66-3.48l.07-.73.1-3.1a12.8 12.8 0 0 0-.35-3.31 5.2 5.2 0 0 0-1.43-2.57c-.7-.69-1.69-1.07-2.99-1.11-1.39-.05-2.56.25-3.51.91-.93.65-1.68 1.51-2.26 2.57a13.7 13.7 0 0 0-1.32 3.41 25 25 0 0 0-.63 3.48zm36.95 13.99l14.96-32.67H352l-22.06 43.28c-.67 1.44-1.44 2.75-2.3 3.93a15 15 0 0 1-2.85 3.06c-1.07.86-2.27 1.52-3.62 1.98s-2.86.7-4.56.7a13.4 13.4 0 0 1-2.57-.24l-2.5-.52.87-8.42c.23.02.46.03.7.03a6.7 6.7 0 0 0 .66.04c.97 0 1.84-.11 2.61-.31.79-.19 1.48-.52 2.09-1.01.63-.49 1.17-1.16 1.64-2.02l4.31-7.83zm3.17-32.67l2.71 26.93-.87 11.83h-7.44l-6.26-38.76h11.86zm38.76 38.34a18.9 18.9 0 0 1-7.1-1.43c-2.13-.93-3.94-2.2-5.43-3.83a15.6 15.6 0 0 1-3.31-5.71c-.7-2.2-.95-4.6-.76-7.2l.14-1.36c.28-2.74.93-5.29 1.95-7.65 1.02-2.39 2.39-4.48 4.1-6.26a18.1 18.1 0 0 1 6.05-4.21 18.7 18.7 0 0 1 7.86-1.39c2.62.05 4.88.57 6.78 1.56 1.92 1 3.49 2.35 4.7 4.07 1.21 1.69 2.04 3.64 2.5 5.84.49 2.18.6 4.5.35 6.96l-.66 4.77H353.6l1.18-7.34 18.44.04.21-1.01a6.9 6.9 0 0 0-.14-2.96c-.25-.88-.73-1.58-1.43-2.09-.7-.53-1.63-.82-2.82-.87-1.44-.02-2.63.29-3.58.94a7.4 7.4 0 0 0-2.26 2.57 15.2 15.2 0 0 0-1.29 3.48 30.5 30.5 0 0 0-.66 3.55l-.14 1.32c-.09 1.14-.06 2.24.1 3.31s.49 2.03.97 2.89a6.1 6.1 0 0 0 2.05 2.09c.86.51 1.94.79 3.23.83a10.8 10.8 0 0 0 4.87-.97c1.51-.7 2.86-1.65 4.07-2.85l4.77 6.33c-1.04 1.58-2.39 2.85-4.04 3.83a19.3 19.3 0 0 1-5.32 2.09 21.7 21.7 0 0 1-5.5.66zm35.42-28.39l-4.8 27.69H385.5l6.54-37.64h10.65l-.94 9.95zm12.31-10.26l-1.5 10.92-1.81-.24-1.84-.14c-1.27-.02-2.44.13-3.48.45-1.02.3-1.91.78-2.68 1.43-.74.63-1.36 1.41-1.84 2.37s-.85 2.05-1.08 3.31l-1.91-1.39a46.9 46.9 0 0 1 1.11-5.6 26 26 0 0 1 2.23-5.64c.95-1.76 2.18-3.19 3.69-4.28 1.51-1.11 3.36-1.67 5.57-1.67a11.3 11.3 0 0 1 1.77.14l1.77.35zm-286.81 70.3l18.75.03c3.09.05 5.93.6 8.52 1.67s4.64 2.7 6.12 4.9c1.48 2.18 2.11 4.98 1.88 8.38-.21 2.81-.84 5.17-1.88 7.1a15.2 15.2 0 0 1-4.25 4.87 30.7 30.7 0 0 1-6.3 3.58l-4.31 2.23h-16.84l1.6-9.43 11.45.07c1.53-.02 2.89-.32 4.07-.91 1.21-.58 2.19-1.4 2.96-2.47s1.25-2.37 1.46-3.9a7.9 7.9 0 0 0-.14-3.34c-.28-1-.81-1.79-1.6-2.37a5.7 5.7 0 0 0-3.13-.97l-8.07-.03-7.17 41.23h-11.9l8.77-50.65zm18.4 50.65l-6.99-22.41 12.07-.07 7.62 21.88v.59h-12.7zm36.01.7a18.9 18.9 0 0 1-7.1-1.43 15.8 15.8 0 0 1-5.43-3.83 15.6 15.6 0 0 1-3.3-5.71 19.2 19.2 0 0 1-.77-7.2l.14-1.36c.28-2.74.93-5.29 1.95-7.65 1.02-2.39 2.39-4.48 4.11-6.26a18.1 18.1 0 0 1 6.05-4.21c2.34-1 4.96-1.46 7.86-1.39 2.62.05 4.88.57 6.78 1.56 1.93 1 3.49 2.35 4.7 4.07 1.21 1.69 2.04 3.64 2.5 5.84.49 2.18.6 4.5.35 6.96l-.66 4.77h-29.92l1.18-7.34 18.44.04.21-1.01a6.9 6.9 0 0 0-.14-2.96c-.25-.88-.73-1.58-1.43-2.09-.7-.53-1.64-.82-2.82-.87-1.44-.02-2.63.29-3.58.94a7.4 7.4 0 0 0-2.26 2.57c-.56 1.07-.99 2.23-1.29 3.48a30.3 30.3 0 0 0-.66 3.55l-.14 1.32a14.2 14.2 0 0 0 .1 3.31c.16 1.07.49 2.03.97 2.89a6.1 6.1 0 0 0 2.05 2.09c.86.51 1.94.79 3.24.83a10.8 10.8 0 0 0 4.87-.97c1.51-.7 2.86-1.65 4.07-2.85l4.77 6.33c-1.04 1.58-2.39 2.85-4.03 3.83a19.3 19.3 0 0 1-5.32 2.09 21.7 21.7 0 0 1-5.5.66zm33.4-9.19l11.66-29.15h12.35l-17.85 37.64h-7.27l1.11-8.49zm.28-29.15l2.51 30.16-1.25 7.48h-6.99l-6.05-37.64h11.79zm39.21 0l-6.51 37.64h-11.48l6.54-37.64h11.45zm-10.44-9.5c-.05-1.81.56-3.25 1.81-4.31 1.28-1.07 2.77-1.61 4.49-1.63 1.65-.02 3.11.46 4.38 1.46 1.28.97 1.93 2.33 1.95 4.07.05 1.81-.57 3.25-1.84 4.31a6.8 6.8 0 0 1-4.45 1.63c-1.65.02-3.11-.45-4.38-1.43-1.25-1-1.9-2.37-1.95-4.11zm29.47 47.84a18.9 18.9 0 0 1-7.1-1.43c-2.13-.93-3.94-2.2-5.43-3.83s-2.59-3.53-3.31-5.71a19.2 19.2 0 0 1-.77-7.2l.14-1.36a25.8 25.8 0 0 1 1.95-7.65c1.02-2.39 2.39-4.48 4.1-6.26a18.1 18.1 0 0 1 6.05-4.21c2.34-1 4.96-1.46 7.86-1.39 2.62.05 4.88.57 6.78 1.56 1.92 1 3.49 2.35 4.7 4.07 1.21 1.69 2.04 3.64 2.5 5.84.49 2.18.6 4.5.35 6.96l-.66 4.77h-29.92l1.18-7.34 18.44.04.21-1.01a6.9 6.9 0 0 0-.14-2.96c-.25-.88-.73-1.58-1.43-2.09-.7-.53-1.63-.82-2.82-.87-1.44-.02-2.63.29-3.58.94a7.4 7.4 0 0 0-2.26 2.57c-.56 1.07-.99 2.23-1.29 3.48a30.3 30.3 0 0 0-.66 3.55l-.14 1.32c-.09 1.14-.06 2.24.1 3.31s.49 2.03.97 2.89a6.1 6.1 0 0 0 2.05 2.09c.86.51 1.94.79 3.23.83a10.8 10.8 0 0 0 4.87-.97c1.51-.7 2.86-1.65 4.07-2.85l4.77 6.33c-1.04 1.58-2.39 2.85-4.04 3.83a19.3 19.3 0 0 1-5.32 2.09 21.7 21.7 0 0 1-5.5.66zm32.22-12.45l11.1-25.88h7.44l-5.01 13.74-10.68 23.9h-5.98l3.13-11.76zm1.81-25.88l-.38 26.82-1.43 10.82h-6.82l-2.12-37.64h10.75zm18.19 25.12l8.49-25.12h11.2l-15.1 37.64h-7.17l2.57-12.52zm-.9-25.12l2.3 27-.87 10.65h-5.64l-2.37-24.81-.14-12.84h6.71zm39.17 26.86c.19-.97-.1-1.72-.87-2.23-.74-.53-1.63-.93-2.68-1.18l-2.47-.66a32.1 32.1 0 0 1-4.21-1.43 17.5 17.5 0 0 1-3.79-2.23c-1.11-.9-2.01-1.98-2.68-3.24-.65-1.27-.94-2.76-.87-4.45.07-2.09.59-3.9 1.57-5.43 1-1.53 2.28-2.8 3.86-3.79 1.58-1.02 3.29-1.77 5.15-2.26a20.2 20.2 0 0 1 5.6-.66c2.55.02 4.95.48 7.2 1.36a12.7 12.7 0 0 1 5.53 4.04c1.44 1.81 2.17 4.11 2.19 6.89l-11.38-.03a6.2 6.2 0 0 0-.35-2.37c-.23-.67-.64-1.18-1.22-1.53-.58-.37-1.37-.56-2.37-.56a5.6 5.6 0 0 0-2.19.45c-.72.3-1.34.73-1.88 1.29-.51.56-.84 1.23-.97 2.02-.14.67-.05 1.24.28 1.7a3.6 3.6 0 0 0 1.32 1.08 11.4 11.4 0 0 0 1.74.7l1.67.38a37.2 37.2 0 0 1 6.12 2.05c2 .83 3.62 2.03 4.87 3.58 1.27 1.53 1.88 3.57 1.81 6.12-.07 2.16-.65 4-1.74 5.53a12.7 12.7 0 0 1-4.21 3.69 20 20 0 0 1-5.5 2.02 24.3 24.3 0 0 1-5.67.63c-2.55-.05-4.96-.56-7.24-1.53a13.9 13.9 0 0 1-5.57-4.31 11.9 11.9 0 0 1-2.23-6.99l10.58.03c.02 1.09.22 2.01.59 2.75a4.1 4.1 0 0 0 1.71 1.67 6.1 6.1 0 0 0 2.75.56 8.1 8.1 0 0 0 2.37-.35c.79-.25 1.46-.65 2.02-1.18.58-.56.96-1.26 1.15-2.12z" fill="#5b5b5b"/><g filter="url(#E)"><path d="M323.37 71.07a11.9 11.9 0 0 0-11.87-11.87H1.1v88.79h310.39a11.9 11.9 0 0 0 11.88-11.87V71.07z" fill="#3886e7"/><path d="M48.03 107.34h-6.3v-4.71h6.3c.86 0 1.55-.14 2.09-.44s.92-.69 1.17-1.2c.26-.52.38-1.11.38-1.76 0-.7-.13-1.34-.38-1.93a3.1 3.1 0 0 0-1.17-1.43c-.53-.37-1.23-.56-2.09-.56h-4v20.61h-6.11V90.61h10.11c2.03 0 3.77.37 5.24 1.11 1.47.74 2.6 1.76 3.39 3.06a8.3 8.3 0 0 1 1.18 4.42 7.7 7.7 0 0 1-1.18 4.28c-.79 1.22-1.92 2.17-3.39 2.85-1.46.67-3.21 1.01-5.24 1.01zm22.39 3.86v-7.76c0-.53-.08-.99-.23-1.37a1.8 1.8 0 0 0-.71-.89c-.32-.22-.76-.33-1.3-.33-.44 0-.82.08-1.13.23s-.55.38-.71.68a2.4 2.4 0 0 0-.24 1.15h-5.86a5.2 5.2 0 0 1 .57-2.42 6 6 0 0 1 1.67-1.97c.73-.56 1.6-.99 2.61-1.29a11.6 11.6 0 0 1 3.41-.47c1.5 0 2.83.25 4 .75 1.18.5 2.12 1.25 2.8 2.24.68.99 1.03 2.23 1.03 3.72v7.71c0 1.23.07 2.16.21 2.8.14.63.34 1.18.59 1.65v.3h-5.88c-.28-.58-.49-1.29-.63-2.12a17.5 17.5 0 0 1-.19-2.61zm.71-6.77l.03 3.13h-2.59a3.8 3.8 0 0 0-1.39.23c-.37.15-.67.36-.9.63-.22.25-.38.55-.49.87a3.7 3.7 0 0 0-.14 1.03c0 .35.08.66.24.94a1.8 1.8 0 0 0 .7.63c.29.15.61.23.97.23.65 0 1.2-.12 1.65-.37.46-.26.82-.56 1.06-.92s.37-.69.37-1.01l1.29 2.4c-.23.46-.5.93-.8 1.41-.29.48-.66.92-1.1 1.32-.43.39-.96.72-1.58.97a6.3 6.3 0 0 1-2.28.36 7.2 7.2 0 0 1-3.2-.71 5.9 5.9 0 0 1-2.31-1.98c-.58-.86-.87-1.84-.87-2.96 0-.97.17-1.84.52-2.61a5.1 5.1 0 0 1 1.62-1.95 7.7 7.7 0 0 1 2.75-1.22c1.11-.28 2.42-.42 3.93-.42h2.52zm14.35-2.66v14.16h-5.86V97.12h5.48l.38 4.66zm5.57-4.8l-.1 5.45-.94-.09-.99-.05c-.68 0-1.28.08-1.77.24a3 3 0 0 0-1.22.7c-.31.3-.55.68-.7 1.15a5.3 5.3 0 0 0-.19 1.62l-1.06-.7a15 15 0 0 1 .37-3.44c.26-1.04.61-1.94 1.08-2.7.46-.77 1.03-1.35 1.69-1.76a4.1 4.1 0 0 1 2.23-.63c.29 0 .57.02.85.05.29.03.55.09.77.16zm12.8.14v4.07H92.51v-4.07h11.34zm-8.96-4.68h5.86v17.36c0 .5.06.89.17 1.17.12.27.31.46.59.57.29.1.67.16 1.15.16l.83-.02.63-.09v4.19c-.5.16-1.02.28-1.56.36-.55.09-1.12.14-1.74.14-1.25 0-2.32-.2-3.22-.59a4.2 4.2 0 0 1-2.02-1.86c-.46-.85-.7-1.95-.7-3.3V92.44zm31.61 10.32v4.54h-10.45v-4.54h10.45zm26.35-12.14v25.33h-5.86V97.22l-5.78 1.69v-4.45l11.1-3.84h.54z" class="B"/></g><g clip-path="url(#k)"><path style="mix-blend-mode:multiply" d="M923.88 487.69s7.43 8.21 50.13 9.97c13.98.57 92.61-1.69 88.65-4.46-3.95-2.77-17.92-5.34-17.92-5.34l-120.87-.18.01.01z" fill="url(#F)"/><path d="M957.48 481.76s1.17 4.77.81 5.83-1.17 2.45-1.17 2.45v1.24h-24.55c-2.56-.35-8.38-2.25-8.65-2.52s.74-3.15 1.35-3.22c.62-.07 6.63 0 6.63 0s10.71-7.89 12.96-8.01 12.33-.27 12.33-.27l.27 4.5h.01z" fill="url(#G)"/><path d="M1017.04 459.49c.12 0 2.1-.43 3.03-.23.94.2 3.64 1.82 3.84 1.91a36.1 36.1 0 0 0 1.24.35s.66 6.48-.97 9.36c-1.08 7.04-3.68 15.97-7.37 18.69-3.68 2.72-4.76 2.45-4.76 2.45l-2.02-2.37a49.8 49.8 0 0 1 1.63-4.86c.32-.7.23-5.71.23-5.71s-2.17-7.27-2.29-8.59c-.11-1.32 7.45-11 7.45-11l-.01-.01z" fill="url(#H)"/><path d="M954.58 380.32s-3.2 6.79-3.2 8.25-.06 2.27-.58 3.91-.23 2.16 0 3.33.58 3.96.58 5.13-1 22.14-.87 23.54c.11 1.4-.93 5.01-.58 6.12s1.22 1.28 1.1 1.8-.76.41-.7 1.46.93 2.21 1.22 2.74a9.2 9.2 0 0 1 .56 1.46s-.56.88-.62 1.57-.29 1.05.11 2.39-1.22 21.85-1.51 22.26-4.42 5.71-3.78 6.75 1.46 1.57 1.46 1.57-1.06.29-1.52.88-1.22 2.74-1.22 2.74-.93 1.22-.99 1.64 3.2 3.03 5.27 4.08c2.06 1.05 9.92 1.4 9.92 1.4s-.06-2.63-.29-3.26-.41-1.05.29-1.98 1.1-1.28.99-1.98-.76-2.04-.63-2.33c.12-.29 4.02-4.32 6.4-10.19 2.38-5.89 2.09-37.17 2.09-37.17l1.39-51.45-14.89 5.39v-.01z" fill="url(#I)"/><path d="M959.47 350.34l-5.57-4.32c-.95-.32-2.18-.37-2.18-.37l-2.31-1.29-1.17-.22-3.23-2.49c-.27-.06-4.96 2.96-5.37 4.65s-.85 3.52.22 4.12l6.34 3.85s-.13 1.29.63 1.49l2.02.4s.43 1.06 1.28 1.29 6.45 3.48 6.45 3.48l2.88-10.58h.01z" fill="#529fff"/><path d="M945.3 343.57s.28 2.78-.95 4.44c-.67.91-2.06 2.38-2.66 2.38s-3.61-1.02-3.84-1.2l-1.32-1.06s-1.22-.66-1.31-1.46c-.89-.33-1.6-1.29-1.53-1.64-.7-.06-.83-1.76-.83-1.97s-2.53-.55-2.64-1.24a10.4 10.4 0 0 1 .21-2.85c.08-.01 1.06.08 1.44.67s6.3.66 6.3.66-2.28-.64-2.4-.89c-.12-.25-.77-2.53.45-2.68s4.38 1.17 4.71 1.44l4.38 4c.13.38 0 1.36 0 1.36l.01.03z" fill="url(#J)"/><path d="M988.5 384.75s2.07 10.48-3.75 13.74c-.33 5.38.09 6.02 0 6.37-.09.36-.68.93-.85 1.51s-.27 2.35-.27 2.35v10.77c-.09.15.49.21.36.76-.11.55-.63.64-.67 1.43l-.18 3.15s-.26.18-.29.55.93.96.76 1.61-.5 1.02-.47 1.46.44.81.55 1.25.73.52 1.13.76c.41.23.15.5.44.81.29.32 6.4 2.19 10.47 5.91 4.07 3.73 9.95 11.36 11.05 12.35s2.44 3.91 4.6 4.48c2.15.58 4.42.81 4.83 1.46.4.65.23 1.57.81 2.39s1.8 1.05 1.8 1.05-1.22 7.34-2.56 8.57-5.7 5.01-6.11 4.66c-.4-.36-1.1-3.33-1.75-3.56-.63-.23-1.8-.12-1.86-.58s.11-.7-.7-.87-1.51-.47-1.51-.47-5.99-4.72-7.32-6.35c-1.34-1.64-19.14-15.1-19.14-15.1s-9.25-4.61-9.89-5.71-4.32-11.95-6.06-19.06-6.1-21.21-7.26-23.31-.81-9.32 0-11.83c.81-2.5 16.98-10.37 16.98-10.37l16.83 9.81.01.01z" fill="url(#K)"/><path d="M980.48 306.38c-.04-.16-2.63-6.53-2.76-7.38-.11-.85-.23-11.11-2.9-14.69s-8.61-6.91-12.87-4.9-6 4.65-7.35 6.21c-1.46 1.69-2.42 5.56-2.27 7.73s1.24 5.98 2.21 6.57c.27 1.48-.58 5.09-.11 5.56s2.02.16 2.79-.04c.54.27 1.67 2.06 1.82 2.37.16.31 1.35 2.92 2.02 4.08.65 1.17.7 1.98 2.33 1.21 1.63-.78 2.63-1.71 4.96-.54s1.17 5.6 1.17 5.6 11.44-7.74 11.71-8.66-.74-3.11-.74-3.11z" fill="url(#L)"/><path d="M984.82 307.75s2.69 22.18 2.11 25.29c-.56 3.11 3.28 28.64 2.97 29.41-.31.78-1.51 2.33-1.51 2.79a1234 1234 0 0 0 .2 9.4c.04 1.32.07 3.38.58 4.23s1.35 1.28.76 1.6c-.6.31-1.03.7-1.03.7s.58 4.5.47 4.86-7.72.97-10.28 0-15.57-.58-17.13 0-6.3 1.94-6.88 2.18c-.58.23-1.44 0-1.55-.31s-.78-5.09-.35-5.56-.5-1.94-.54-3.03c-.04-1.08-.62-2.95-.5-4.93.12-1.98 1.24-22.18 1.86-23.81.63-1.64 2.72-16.82 3.33-18.02.63-1.21 11.99-16.13 14.31-18.18s8.69-6.95 13.19-6.61z" fill="#3b92ff"/><path d="M970.66 387.79l-1.71 4.21c-.04.15.11 2.63 0 2.81.22.06.48.88.41 1s-1.58 1.29-2.13.61c-.55-.69-1.54-3.54-1.54-3.54s.41 2.42 0 3.07c.63.74.5 1.06.5 1.06s.76.32.55.66-2.48.8-2.66.28c-.28.57-.66 1.34-1.72.59-1.06-.74-2.26-1.82-2.37-2.38s-.11-1.13-.11-1.13-1.5-.78-1.42-2.05-.1-4.1.21-4.55l3.3-5.4 8.7 4.73z" fill="url(#M)"/><path d="M972.49 385.6s-1.22 3.41-1.69 3.56-8.2-3.64-8.64-4.34-.73-1.4-.61-1.75 1.17-2.74 1.17-2.74l9.77 5.27z" fill="#82baff"/><path d="M983.9 307.75a66.7 66.7 0 0 0 5.12 6.56c1.91 2.97 5.96 8.75 5.88 10.52s-.21 12.61-.87 13.6c-.5 2.74-1.72 15.91-2.59 18.88s-4.83 10.26-4.83 10.26-6.08 6.3-5.9 7.32c0 0-.21 1.02-1.17 1.14s.47 1.22-.7 2.06-1.54 2.97-2.59 3.29-1.17.15-1.17.15-2.06 5.1-2.88 5.13c-.81.03-10.06-5.16-10.24-5.62-.18-.47 2.91-4.43 2.91-4.43s0-1.69.58-1.98.55-2.01 1.54-2.5c.99-.5.29-.21 1.2-1.22.91-1.02 2.04-3.49 2.38-3.64.35-.15.18-1.1.63-1.77.47-.67.29-2.19 1.07-3.78.78-1.61.97-1.14 1.64-3.41s1.52-4.58 2.25-5.62c.73-1.05.37-.93.18-2.33-.21-1.4-2.26-11.51-2.42-12.85s-1.35-3.47-1.82-4.25l-1.98-3.35s2.12-12.09 5.85-14.43 7.91-7.69 7.91-7.69l.01-.02z" fill="#529fff"/><path d="M985.18 309.44l1.53.85c.45.23.27-1.3-.62-1.91-.12-1.48.09-3.63-.72-3.96s-4.17-.79-7.17 1.38c-3.01 2.18-12.72 8.04-12.45 8.49s2.63 1.3 2.38 2.29-.56 3.38 1.21 2.45 11.86-9.69 13.36-9.81c1.49-.12 2.49.21 2.49.21l-.01.01z" fill="#3b92ff"/><path d="M977.86 299.51s-3.16-.79-4.09-1.26-2.21-4.95-4.47-5.45-4.46-.23-4.56.72.23 2.51-.58 2.84-.9.7-1.51-.11c-.61-.81-.9-2.27-1.39-2.53-.5-.26-1.39-.29-1.98-.32s-.96.18-1.2-.67c-.23-.84-.23-1.4-.35-1.83-.11-.44-.93-2.74-.93-2.74s-1.2 1.14-2.85 2.19-1.62 2.74-1.62 2.74-3.73 0-3.76-2.01 2.38-1.92 3.14-3.76c.76-1.84 8.78-11.36 15.77-9.12s11.34 9.79 10.4 21.34h-.01z" fill="#160838"/><path d="M967.22 298.2s2.64 3.24 2.72-1.81c.07-5.05-1.98-5.67-3.46-5.36s-1.44 3.57-1.44 3.57" fill="url(#N)"/><path d="M940.18 346.83s-12.85-14.4-13.32-14.4-.76.81-.76.81l13.43 14.45.63-.88.01.01z" fill="#160838"/><path d="M933.11 344.42l-.16-1.25.33-1.15c.13-.52.66-1.13 1.22-.93s.79 1.21.47 2.1c.21.29.21 2.07.21 2.07s2.11-2.43 2.91-2.29c.79.13-.14 3.13-.56 4.08s1.17.31 1.28.14 2.62-3.49 3.24-3.17c.62.33-.95 4.41-.95 4.41l-.38.68" fill="url(#O)"/><path opacity=".5" d="M926.86 332.44l32.61-80.5s19.06 11.47 32.16 22.65 15.01 24.93 15.01 24.93l-72.49 40.63-7.3-7.7v-.01z" fill="url(#P)"/><path d="M767.18 254.06h-64.35a2.8 2.8 0 0 1-2.8-2.79v-37.62a2.8 2.8 0 0 1 2.8-2.79h64.35a2.8 2.8 0 0 1 2.79 2.79v37.62a2.8 2.8 0 0 1-2.79 2.79z" fill="#a6ceff"/><g class="D E F I J"><path d="M713.36 220.31h34.11m-34.11 4.94h34.11m-34.11 4.94h14.11m-14.11 4.73h34.11m-34.11 4.94h34.11m-34.11 4.95h14.11"/></g><path d="M887.59 187.83h-18.61c-.51 0-.92-.41-.92-.92V172.7c0-.51.41-.92.92-.92h18.61c.51 0 .92.41.92.92v14.21c0 .51-.41.92-.92.92z" fill="#93c3ff"/><path d="M989 224.49h-58.76a2.8 2.8 0 0 1-2.79-2.79v-37.62a2.8 2.8 0 0 1 2.79-2.79H989a2.8 2.8 0 0 1 2.8 2.79v37.62a2.8 2.8 0 0 1-2.8 2.79z" fill="#aed3ff"/><path d="M991.79 194.41h-64.35v-10.34a2.8 2.8 0 0 1 2.79-2.79H989a2.8 2.8 0 0 1 2.8 2.79v10.34h0z" fill="#8bbfff"/><path d="M942.98 189.75v-4.7h.9l2.77 3.38h-.44v-3.38h1.07v4.7h-.89l-2.78-3.38h.44v3.38h-1.07zm6.42-2.8h2.26v.84h-2.26v-.84zm.08 1.93h2.56v.87h-3.64v-4.7h3.55v.87h-2.47v2.95zm4.48.87l-1.54-4.7h1.13l1.34 4.16h-.56l1.4-4.16h1.01l1.34 4.16h-.54l1.37-4.16h1.04l-1.54 4.7h-1.17l-1.19-3.65h.31l-1.22 3.65h-1.17zm8.12.08c-.38 0-.74-.05-1.08-.15-.34-.1-.62-.24-.83-.4l.37-.82c.2.14.44.26.71.35a2.7 2.7 0 0 0 .84.13 1.8 1.8 0 0 0 .52-.06c.13-.04.23-.1.29-.18s.09-.16.09-.26c0-.12-.05-.22-.15-.3s-.23-.14-.39-.18l-.54-.13-.58-.16a2.5 2.5 0 0 1-.53-.24c-.16-.1-.29-.23-.39-.39s-.15-.37-.15-.62c0-.27.07-.51.22-.73s.37-.4.66-.53.66-.2 1.11-.2c.29 0 .59.03.87.11.29.07.54.17.76.31l-.34.82a2.7 2.7 0 0 0-.66-.28c-.22-.06-.43-.09-.64-.09a1.5 1.5 0 0 0-.52.07.6.6 0 0 0-.29.19c-.06.08-.09.17-.09.27 0 .12.05.22.15.3s.23.13.39.17l.53.13.58.15a2.3 2.3 0 0 1 .54.23c.16.1.29.23.39.39.1.16.15.37.15.61 0 .26-.07.5-.22.72s-.37.4-.66.53-.66.2-1.11.2z" class="B"/><g class="D E F I J"><path d="M961.41 202.88h17.53m-17.53 4.95h17.53m-17.53 4.94h13.02"/></g><path d="M947.9 200.16h-7.18c-2.62 0-4.75 2.13-4.75 4.75v7.18c0 2.62 2.13 4.75 4.75 4.75h7.18c2.62 0 4.75-2.13 4.75-4.75v-7.18c0-2.62-2.13-4.75-4.75-4.75z" class="B"/><path d="M805.19 310.29h-37.17c-1.81 0-3.28-1.47-3.28-3.28v-23.6h43.73v23.6c0 1.81-1.47 3.28-3.28 3.28z" fill="#83bbff"/><path d="M764.75 283.41l21.86 17.58 21.86-17.58h-43.73z" fill="#4297ff"/><path d="M768.96 415.4h-64.35a2.8 2.8 0 0 1-2.8-2.8v-37.62a2.8 2.8 0 0 1 2.8-2.8h64.35a2.8 2.8 0 0 1 2.8 2.8v37.62a2.8 2.8 0 0 1-2.8 2.8z" fill="#aed3ff"/><path d="M771.75 385.32h-69.94v-10.33a2.8 2.8 0 0 1 2.8-2.8h64.35a2.8 2.8 0 0 1 2.8 2.8v10.33h0z" fill="#8bbfff"/><path d="M719.73 380.66v-4.7h1.09v4.7h-1.09zm2.2 0v-4.7h.9l2.77 3.38h-.44v-3.38h1.07v4.7h-.89l-2.78-3.38h.44v3.38h-1.07zm6.42-2.58h2.25v.87h-2.25v-.87zm.08 2.58h-1.09v-4.7h3.55v.87h-2.46v3.82zm5.43.08c-.37 0-.72-.06-1.03-.18s-.59-.29-.82-.51a2.4 2.4 0 0 1-.54-.77c-.13-.29-.19-.62-.19-.97s.06-.67.19-.97.31-.55.54-.77.5-.39.82-.51a2.8 2.8 0 0 1 1.02-.18c.37 0 .71.06 1.02.18a2.4 2.4 0 0 1 .81.51c.23.22.41.48.54.77s.19.61.19.97-.06.67-.19.97-.31.55-.54.77-.5.38-.81.5-.65.18-1.01.18zm-.01-.93a1.5 1.5 0 0 0 .58-.11c.18-.07.34-.17.47-.31s.24-.29.31-.48.11-.39.11-.61-.04-.43-.11-.61-.17-.34-.31-.48a1.3 1.3 0 0 0-.46-.31c-.18-.07-.37-.11-.58-.11s-.4.03-.58.11a1.4 1.4 0 0 0-.46.31c-.13.13-.24.29-.31.48s-.11.39-.11.61.04.42.11.61a1.5 1.5 0 0 0 .31.48c.13.13.29.24.47.31s.37.11.58.11z" class="B"/><g class="D E F I J"><path d="M712.66 393.8h46.24m-46.24 4.94h46.24m-46.24 4.95h19.13"/></g><path d="M767.72 393.84c8.2 0 14.84-6.65 14.84-14.84s-6.64-14.84-14.84-14.84-14.84 6.65-14.84 14.84 6.65 14.84 14.84 14.84z" class="C"/><path d="M766.62 380.01l-.75-11.02h4.49l-.75 11.02h-2.99zm1.5 6.05c-.68 0-1.23-.22-1.66-.65a2.1 2.1 0 0 1-.65-1.54c0-.61.22-1.12.65-1.52a2.3 2.3 0 0 1 1.66-.63c.69 0 1.25.21 1.66.63.43.4.65.91.65 1.52a2.1 2.1 0 0 1-.65 1.54 2.2 2.2 0 0 1-1.66.65z" class="B"/><path d="M838.83 206.67h-22.79c-1.11 0-2.01-.9-2.01-2.01v-14.47h26.81v14.47c0 1.11-.9 2.01-2.01 2.01z" fill="#83bbff"/><path d="M814.03 190.19l12.15 9.76c.73.59 1.78.59 2.52 0l12.14-9.76h-26.81z" fill="#4297ff"/><g stroke-width="4.49" class="D K"><path d="M742.62 253.61a12.5 12.5 0 0 0 12.48-12.48 12.5 12.5 0 0 0-12.48-12.48 12.5 12.5 0 0 0-12.48 12.48 12.5 12.5 0 0 0 12.48 12.48z" class="B"/><path d="M733.8 232.3l17.65 17.65"/></g><path d="M869.82 281.17l11.16 10.09.12-10.09h-11.28z" fill="url(#Q)"/><path d="M881.44 281.32h-50.5a6.8 6.8 0 0 1-6.81-6.81v-22.29a6.8 6.8 0 0 1 6.81-6.81h50.5a6.8 6.8 0 0 1 6.81 6.81v22.29a6.8 6.8 0 0 1-6.81 6.81z" fill="url(#R)"/><path opacity=".2" d="M888.25 252.22v22.29a6.8 6.8 0 0 1-6.81 6.81h-50.51a6.8 6.8 0 0 1-6.8-6.39 6.8 6.8 0 0 0 4.33 1.55h50.5a6.8 6.8 0 0 0 6.81-6.82v-22.28l-.01-.42a6.8 6.8 0 0 1 2.49 5.26z" class="C"/><g opacity=".3"><g fill="#6696ce"><use href="#l"/><path d="M876.03 263.76h-38.95a1 1 0 0 1-1-1 1 1 0 0 1 1-1h38.95a1 1 0 0 1 1 1 1 1 0 0 1-1 1z"/></g><path d="M876.03 270.07h-38.95a1 1 0 0 1-1-1 1 1 0 0 1 1-1h38.95a1 1 0 0 1 1 1 1 1 0 0 1-1 1z" fill="#d8dbda"/></g><g class="B"><path d="M875.34 256.9h-38.95a1 1 0 1 1 0-2h38.95a1 1 0 1 1 0 2zm0 6.3h-38.95a1 1 0 1 1 0-2h38.95a1 1 0 1 1 0 2zm0 6.31h-38.95a1 1 0 1 1 0-2h38.95a1 1 0 1 1 0 2z"/></g><g class="C"><path d="M732.45 326h-32.73a6.8 6.8 0 0 1-6.81-6.81v-12.34a6.8 6.8 0 0 1 6.81-6.81h32.73a6.8 6.8 0 0 1 6.81 6.81v12.34a6.8 6.8 0 0 1-6.81 6.81z"/><path opacity=".3" d="M739.26 306.85v12.33a6.8 6.8 0 0 1-6.81 6.82h-32.73c-3.08 0-5.68-2.04-6.53-4.85a6.8 6.8 0 0 0 4.45 1.66h32.73a6.8 6.8 0 0 0 6.81-6.81v-12.34c0-.68-.1-1.34-.28-1.97a6.8 6.8 0 0 1 2.36 5.16z"/><path d="M725.94 325.89l8.07 7.3.08-7.3h-8.15z"/><use href="#m" opacity=".3"/><path opacity=".3" d="M718.73 312.54a2.6 2.6 0 1 1-5.2 0 2.6 2.6 0 1 1 5.2 0zm9.15 0a2.6 2.6 0 1 1-5.2 0 2.6 2.6 0 1 1 5.2 0z"/></g><g class="B"><path d="M708.74 312.17a2.6 2.6 0 1 1-5.2 0 2.6 2.6 0 1 1 5.2 0zm9.15 0a2.6 2.6 0 1 1-5.2 0 2.6 2.6 0 1 1 5.2 0zm9.16 0a2.6 2.6 0 1 1-5.2 0 2.6 2.6 0 1 1 5.2 0z"/></g><use href="#n" fill="url(#S)"/><use href="#o" fill="url(#T)"/><use href="#p" opacity=".2" class="B"/><use href="#q" fill="url(#U)"/><path d="M694.4 171.71c0 .95.54 1.72 1.21 1.72s1.21-.77 1.21-1.72-.54-1.72-1.21-1.72-1.21.77-1.21 1.72z" fill="url(#V)"/><path d="M688.035 176.66C688.035 178.562 689.786 180.104 691.946 180.104C694.106 180.104 695.857 178.562 695.857 176.66" stroke="url(#W)" class="D E F L"/><path d="M911.34 245.26c6.22 0 11.26-5.04 11.26-11.26s-5.04-11.26-11.26-11.26-11.26 5.04-11.26 11.26 5.04 11.26 11.26 11.26z" fill="url(#X)"/><path d="M899.79 233.51c0 6.22 5.04 11.26 11.26 11.26s11.26-5.04 11.26-11.26-5.04-11.26-11.26-11.26-11.26 5.04-11.26 11.26z" fill="url(#Y)"/><path opacity=".2" d="M900.69 236.27c3.52 2.27 16.19-1.59 13.07-13.62-.95-.26-1.94-.4-2.97-.4-6.22 0-11.26 5.04-11.26 11.26a11.3 11.3 0 0 0 .2 2.08c.31.24.63.47.96.68z" class="B"/><path d="M906.16 231.18c0 .95.54 1.72 1.21 1.72s1.21-.77 1.21-1.72-.54-1.72-1.21-1.72-1.21.77-1.21 1.72z" fill="url(#Z)"/><path d="M913.49 231.09c0 .95.54 1.72 1.21 1.72s1.21-.77 1.21-1.72-.54-1.72-1.21-1.72-1.21.77-1.21 1.72z" fill="url(#a)"/><path d="M907.129 237.352H914.951" stroke="url(#b)" class="D E F L"/><path d="M807.44 356.88c6.22 0 11.26-5.04 11.26-11.26s-5.04-11.26-11.26-11.26-11.26 5.04-11.26 11.26 5.04 11.26 11.26 11.26z" fill="url(#c)"/><path d="M795.88 345.13c0 6.22 5.04 11.26 11.26 11.26s11.26-5.04 11.26-11.26-5.04-11.26-11.26-11.26-11.26 5.04-11.26 11.26z" fill="url(#d)"/><path opacity=".2" d="M796.78 347.89c3.51 2.27 16.19-1.59 13.07-13.62-.94-.26-1.94-.4-2.97-.4-6.22 0-11.26 5.04-11.26 11.26a11.3 11.3 0 0 0 .19 2.08c.31.24.63.47.96.68z" class="B"/><path d="M802.26 342.81c0 .95.54 1.72 1.21 1.72s1.21-.77 1.21-1.72-.54-1.72-1.21-1.72-1.21.77-1.21 1.72z" fill="url(#e)"/><path d="M809.59 342.71c0 .95.54 1.72 1.21 1.72s1.21-.77 1.21-1.72-.54-1.72-1.21-1.72-1.21.77-1.21 1.72z" fill="url(#f)"/><g class="L"><path d="M811.056 351.104C811.056 349.203 809.305 347.66 807.145 347.66C804.985 347.66 803.234 349.203 803.234 351.104" stroke="url(#g)" class="D E F"/><path d="M862.72 336.12a3.1 3.1 0 0 1 2.83-.67h0c.12.03.18.12.17.21l-.13 2.64-.03 1.37.01.5a1.8 1.8 0 0 0 .04.35h0a14 14 0 0 0 1.65 3.11l1.02 1.49.73.99c.06.08.09.17.09.26l.57.1c.07-.17.25-.31.48-.31h4.21c.3 0 .52.23.52.48v10.78c0 .25-.22.48-.52.48h-4.21c-.25 0-.44-.16-.49-.34l-.26-.83-.3.81c-.06.17-.22.31-.43.34h-.09l-12.67.02c-.82-.29-1.21-.84-1.34-1.39-.14-.58.01-1.15.27-1.44l.31-.36-.46-.12c-1-.26-1.53-.76-1.72-1.29s-.06-1.18.43-1.78l.24-.3-.35-.16c-.85-.4-1.26-.82-1.44-1.19-.17-.37-.14-.75-.01-1.1.14-.36.38-.69.59-.93l.27-.28.08-.07.02-.02.27-.22-.25-.23c-.64-.59-.9-1.1-.96-1.5-.06-.39.06-.74.27-1.03.39-.55 1.05-.88 1.77-.92h.14l7.53.02h.33l-.04-.33h0l-.01-.06-.02-.19-.05-.69a26 26 0 0 1-.06-2.19 13 13 0 0 1 .24-2.43c.14-.66.35-1.16.62-1.48l.12-.12z" stroke="#57a2ff" class="C"/><path d="M768.89 170.31h0c.18 0 .33.12.39.28l.31.86.26-.87c.04-.15.19-.26.36-.26h3.5c.21 0 .38.17.38.38v9.4c0 .21-.17.38-.38.38h-3.5c-.16 0-.3-.1-.35-.24l-.57.1c0 .07-.03.14-.07.21l-1.45 2.17a12.4 12.4 0 0 0-1.38 2.72h0c-.02.08-.03.2-.04.31l-.01.44.03 1.19.06 1.3.05 1.01c0 .07-.04.13-.11.15-.49.12-1.43.21-2.29-.57h0c-.26-.24-.47-.72-.6-1.37-.13-.64-.19-1.39-.2-2.11a23.8 23.8 0 0 1 .05-1.91l.05-.6.02-.16v-.04-.01l.04-.33h-.33l-6.25.02h0c-.58 0-1.13-.25-1.48-.69l-.06-.09c-.17-.25-.26-.54-.22-.88s.26-.77.79-1.28l.24-.23-.25-.21-.02-.02-.07-.06a3.5 3.5 0 0 1-.23-.24c-.18-.21-.37-.49-.49-.8s-.13-.63 0-.94.47-.68 1.17-1.02l.33-.16-.23-.29c-.4-.52-.5-1.07-.35-1.52s.58-.88 1.39-1.1l.44-.12-.29-.36c-.2-.25-.33-.73-.21-1.23.11-.47.42-.93 1.08-1.18l10.51.02z" fill="#bedbff" class="K"/></g></g></g><rect x="1" y="1" width="1138" height="638" rx="15" stroke-width="2" class="K"/><defs><filter id="A" x="910.84" y="82.85" width="115.16" height="49.15" filterUnits="userSpaceOnUse" class="G"><feFlood class="H"/><feBlend in="SourceGraphic" result="B"/><feColorMatrix in="SourceAlpha" values="0 0 0 0 0 0 0 0 0 0 0 0 0 0 0 0 0 0 127 0" result="C"/><feOffset dy="5.94115"/><feGaussianBlur stdDeviation="5.94"/><feComposite in2="C" operator="arithmetic" k2="-1" k3="1"/><feColorMatrix values="0 0 0 0 0 0 0 0 0 0 0 0 0 0 0 0 0 0 0.25 0"/><feBlend in2="B" result="D"/><feColorMatrix in="SourceAlpha" values="0 0 0 0 0 0 0 0 0 0 0 0 0 0 0 0 0 0 127 0" result="C"/><feOffset dy="-5.94115"/><feGaussianBlur stdDeviation="5.94"/><feComposite in2="C" operator="arithmetic" k2="-1" k3="1"/><feColorMatrix values="0 0 0 0 0 0 0 0 0 0 0 0 0 0 0 0 0 0 0.25 0"/><feBlend in2="D"/></filter><filter id="B" x="1018.43" y="60.93" width="72.14" height="92.98" filterUnits="userSpaceOnUse" class="G"><feFlood class="H"/><feBlend in="SourceGraphic" result="B"/><feColorMatrix in="SourceAlpha" values="0 0 0 0 0 0 0 0 0 0 0 0 0 0 0 0 0 0 127 0" result="C"/><feOffset dy="-5.9375"/><feGaussianBlur stdDeviation="5.94"/><feComposite in2="C" operator="arithmetic" k2="-1" k3="1"/><feColorMatrix values="0 0 0 0 0 0 0 0 0 0 0 0 0 0 0 0 0 0 0.25 0"/><feBlend in2="B" result="D"/><feColorMatrix in="SourceAlpha" values="0 0 0 0 0 0 0 0 0 0 0 0 0 0 0 0 0 0 127 0" result="C"/><feOffset dy="5.9375"/><feGaussianBlur stdDeviation="5.94"/><feComposite in2="C" operator="arithmetic" k2="-1" k3="1"/><feColorMatrix values="0 0 0 0 0 0 0 0 0 0 0 0 0 0 0 0 0 0 0.25 0"/><feBlend in2="D"/></filter><filter id="C" x="114" y="509.25" width="115.16" height="49.15" filterUnits="userSpaceOnUse" class="G"><feFlood class="H"/><feBlend in="SourceGraphic" result="B"/><feColorMatrix in="SourceAlpha" values="0 0 0 0 0 0 0 0 0 0 0 0 0 0 0 0 0 0 127 0" result="C"/><feOffset dy="5.94115"/><feGaussianBlur stdDeviation="5.94"/><feComposite in2="C" operator="arithmetic" k2="-1" k3="1"/><feColorMatrix values="0 0 0 0 0 0 0 0 0 0 0 0 0 0 0 0 0 0 0.25 0"/><feBlend in2="B" result="D"/><feColorMatrix in="SourceAlpha" values="0 0 0 0 0 0 0 0 0 0 0 0 0 0 0 0 0 0 127 0" result="C"/><feOffset dy="-5.94115"/><feGaussianBlur stdDeviation="5.94"/><feComposite in2="C" operator="arithmetic" k2="-1" k3="1"/><feColorMatrix values="0 0 0 0 0 0 0 0 0 0 0 0 0 0 0 0 0 0 0.25 0"/><feBlend in2="D"/></filter><filter id="D" x="49.42" y="487.34" width="72.14" height="92.98" filterUnits="userSpaceOnUse" class="G"><feFlood class="H"/><feBlend in="SourceGraphic" result="B"/><feColorMatrix in="SourceAlpha" values="0 0 0 0 0 0 0 0 0 0 0 0 0 0 0 0 0 0 127 0" result="C"/><feOffset dy="-5.9375"/><feGaussianBlur stdDeviation="5.94"/><feComposite in2="C" operator="arithmetic" k2="-1" k3="1"/><feColorMatrix values="0 0 0 0 0 0 0 0 0 0 0 0 0 0 0 0 0 0 0.25 0"/><feBlend in2="B" result="D"/><feColorMatrix in="SourceAlpha" values="0 0 0 0 0 0 0 0 0 0 0 0 0 0 0 0 0 0 127 0" result="C"/><feOffset dy="5.9375"/><feGaussianBlur stdDeviation="5.94"/><feComposite in2="C" operator="arithmetic" k2="-1" k3="1"/><feColorMatrix values="0 0 0 0 0 0 0 0 0 0 0 0 0 0 0 0 0 0 0.25 0"/><feBlend in2="D"/></filter><filter id="E" x="-3.65" y="56.22" width="331.77" height="98.29" filterUnits="userSpaceOnUse" class="G"><feFlood result="A" class="H"/><feColorMatrix in="SourceAlpha" values="0 0 0 0 0 0 0 0 0 0 0 0 0 0 0 0 0 0 127 0" result="B"/><feOffset dy="1.78125"/><feGaussianBlur stdDeviation="2.38"/><feComposite in2="B" operator="out"/><feColorMatrix values="0 0 0 0 0 0 0 0 0 0 0 0 0 0 0 0 0 0 0.3 0"/><feBlend in2="A"/><feBlend in="SourceGraphic"/></filter><linearGradient id="F" x1="931.76" y1="492.72" x2="1049.45" y2="492.72" href="#r"><stop stop-color="#e5e5e5"/><stop offset="1" stop-color="#fff"/></linearGradient><linearGradient id="G" x1="958.35" y1="484.34" x2="923.88" y2="484.34" href="#r"><stop offset=".19" stop-color="#676767"/><stop offset=".75" stop-color="#1b1c17"/></linearGradient><linearGradient id="H" x1="1025.28" y1="475.61" x2="1009.59" y2="475.61" href="#r"><stop offset=".19" stop-color="#676767"/><stop offset=".75" stop-color="#1b1c17"/></linearGradient><linearGradient id="I" x1="956.44" y1="452.37" x2="960.95" y2="401.71" href="#r"><stop offset=".07" stop-color="#494949"/><stop offset=".89" stop-color="#1b1c17"/></linearGradient><linearGradient id="J" x1="945.35" y1="343.57" x2="930.19" y2="343.57" href="#r"><stop stop-color="#e2b49d"/><stop offset=".3" stop-color="#dd9777"/><stop offset="1" stop-color="#d5815d"/></linearGradient><linearGradient id="K" x1="993.4" y1="468.66" x2="970.9" y2="381.04" href="#r"><stop offset=".07" stop-color="#494949"/><stop offset=".89" stop-color="#34352f"/></linearGradient><linearGradient id="L" x1="962.85" y1="306.96" x2="970.43" y2="292.72" href="#r"><stop stop-color="#e2b49d"/><stop offset=".3" stop-color="#dd9777"/><stop offset="1" stop-color="#d5815d"/></linearGradient><linearGradient id="M" x1="950.63" y1="422.72" x2="934.88" y2="458.6" href="#r"><stop stop-color="#e2b49d"/><stop offset=".3" stop-color="#dd9777"/><stop offset="1" stop-color="#d5815d"/></linearGradient><linearGradient id="N" x1="966.71" y1="284.25" x2="968.31" y2="306.12" href="#r"><stop stop-color="#e2b49d"/><stop offset=".3" stop-color="#dd9777"/><stop offset="1" stop-color="#d5815d"/></linearGradient><linearGradient id="O" x1="942.19" y1="345.07" x2="932.95" y2="345.07" href="#r"><stop stop-color="#e2b49d"/><stop offset=".3" stop-color="#dd9777"/><stop offset="1" stop-color="#d5815d"/></linearGradient><linearGradient id="P" x1="938.43" y1="328.41" x2="967.19" y2="294.58" href="#r"><stop stop-color="#dfdfdf"/><stop offset="1" stop-color="#fff" stop-opacity="0"/></linearGradient><linearGradient id="Q" x1="883.21" y1="298.84" x2="878.16" y2="277.47" href="#r"><stop stop-color="#03397b"/><stop offset="1" stop-color="#0668e1"/></linearGradient><linearGradient id="R" x1="858.48" y1="299" x2="855.07" y2="245.86" href="#r"><stop stop-color="#093b76"/><stop offset=".05" stop-color="#0f4780"/><stop offset=".25" stop-color="#236ea0"/><stop offset=".45" stop-color="#2e71c3"/><stop offset=".65" stop-color="#4283d3"/><stop offset=".83" stop-color="#418ae4"/><stop offset="1" stop-color="#4592f2"/></linearGradient><linearGradient id="S" x1="681.34" y1="170.63" x2="701.78" y2="178.12" href="#r"><stop stop-color="#084da2"/><stop offset="1" stop-color="#0668e1"/></linearGradient><linearGradient id="T" x1="691.55" y1="187.91" x2="692.31" y2="161.99" href="#r"><stop stop-color="#0b4893"/><stop offset="1" stop-color="#6aa8f3"/></linearGradient><linearGradient id="U" x1="687.07" y1="171.81" x2="689.49" y2="171.81" href="#r"><stop stop-color="#093b76"/><stop offset="1" stop-color="#001340"/></linearGradient><linearGradient id="V" x1="694.39" y1="171.71" x2="696.82" y2="171.71" href="#r"><stop stop-color="#093b76"/><stop offset="1" stop-color="#001340"/></linearGradient><linearGradient id="W" x1="687.74" y1="178.38" x2="696.15" y2="178.38" href="#r"><stop stop-color="#093b76"/><stop offset="1" stop-color="#001340"/></linearGradient><linearGradient id="X" x1="921.64" y1="248.15" x2="906.6" y2="227.47" href="#r"><stop stop-color="#0668e1"/><stop offset="1" stop-color="#77b4ff"/></linearGradient><linearGradient id="Y" x1="904.76" y1="225.76" x2="918.91" y2="243.18" href="#r"><stop stop-color="#76b4ff"/><stop offset="1" stop-color="#0668e1"/></linearGradient><linearGradient id="Z" x1="906.16" y1="231.18" x2="908.59" y2="231.18" href="#r"><stop stop-color="#093b76"/><stop offset="1" stop-color="#001340"/></linearGradient><linearGradient id="a" x1="913.49" y1="231.09" x2="915.91" y2="231.09" href="#r"><stop stop-color="#093b76"/><stop offset="1" stop-color="#001340"/></linearGradient><linearGradient id="b" x1="-nan" y1="-nan" x2="-nan" y2="-nan" href="#r"><stop stop-color="#093b76"/><stop offset="1" stop-color="#001340"/></linearGradient><linearGradient id="c" x1="817.74" y1="359.78" x2="802.69" y2="339.1" href="#r"><stop stop-color="#55a1ff"/><stop offset="1" stop-color="#0668e1"/></linearGradient><linearGradient id="d" x1="800.85" y1="337.39" x2="815" y2="354.81" href="#r"><stop stop-color="#57a2ff"/><stop offset="1" stop-color="#217ff2"/></linearGradient><linearGradient id="e" x1="802.26" y1="342.81" x2="804.68" y2="342.81" href="#r"><stop stop-color="#093b76"/><stop offset="1" stop-color="#001340"/></linearGradient><linearGradient id="f" x1="809.59" y1="342.71" x2="812.01" y2="342.71" href="#r"><stop stop-color="#093b76"/><stop offset="1" stop-color="#001340"/></linearGradient><linearGradient id="g" x1="811.35" y1="349.38" x2="802.94" y2="349.38" href="#r"><stop stop-color="#093b76"/><stop offset="1" stop-color="#001340"/></linearGradient><clipPath id="h"><rect width="1140" height="640" rx="16" class="B"/></clipPath><clipPath id="i"><path transform="translate(1038.06 90.98)" d="M0 0h32.88v32.88H0z" class="B"/></clipPath><clipPath id="j"><path transform="matrix(-1 0 0 -1 101.938 550.27)" d="M0 0h32.88v32.88H0z" class="B"/></clipPath><clipPath id="k"><path transform="translate(665 141.5)" d="M0 0h356.25v356.25H0z" class="B"/></clipPath><path id="l" d="M876.03 257.46h-38.95a1 1 0 0 1-1-1 1 1 0 0 1 1-1h38.95a1 1 0 0 1 1 1 1 1 0 0 1-1 1z"/><path id="m" d="M709.58 312.54a2.6 2.6 0 1 1-5.2 0 2.6 2.6 0 1 1 5.2 0z"/><path id="n" d="M692.25 185.88c6.22 0 11.26-5.04 11.26-11.26s-5.04-11.26-11.26-11.26-11.26 5.04-11.26 11.26 5.04 11.26 11.26 11.26z"/><path id="o" d="M680.7 174.13c0 6.22 5.04 11.26 11.26 11.26s11.26-5.04 11.26-11.26-5.04-11.26-11.26-11.26-11.26 5.04-11.26 11.26z"/><path id="p" d="M681.59 176.89c3.52 2.27 16.19-1.59 13.07-13.62-.95-.26-1.94-.4-2.97-.4-6.22 0-11.26 5.04-11.26 11.26a11.3 11.3 0 0 0 .2 2.08c.31.24.63.47.96.68z"/><path id="q" d="M687.07 171.81c0 .95.54 1.72 1.21 1.72s1.21-.77 1.21-1.72-.54-1.72-1.21-1.72-1.21.77-1.21 1.72z"/><linearGradient id="r" gradientUnits="userSpaceOnUse"/></defs></svg>