<svg xmlns="http://www.w3.org/2000/svg" width="1140" height="640" fill="none" xmlns:v="https://vecta.io/nano"><style><![CDATA[.B{fill:#fff}.C{fill:#e8a273}.D{fill:#c87e53}.E{fill:#0668e1}.F{fill:#fac2b0}.G{fill:#603f3c}.H{fill:#1c5c91}.I{color-interpolation-filters:sRGB}.J{flood-opacity:0}.K{fill:#367ec6}.L{fill:#aa784b}.M{fill:#0072ff}.N{stroke:#0668e1}.O{fill:#232222}.P{fill:#aaa58d}.Q{fill:#f2f2f2}]]></style><g clip-path="url(#N)"><rect width="1140" height="640" rx="16" class="B"/><g filter="url(#A)" class="E"><path d="M911.77 101.48a8.8 8.8 0 0 1 7.84-12.69h97.62c4.84 0 8.77 3.93 8.77 8.77v19.73c0 4.84-3.93 8.77-8.77 8.77h-87.74c-3.32 0-6.36-1.87-7.84-4.85l-9.87-19.73z"/></g><g class="B"><path d="M988.57 111.48c.04-.75.03-1.5.15-2.23.09-.56-.03-.96-.39-1.36a28.2 28.2 0 0 1-1.4-1.7c-.74-.95-.39-2.16.77-2.3a4.9 4.9 0 0 0 4.25-3.2c.5-1.14 1.7-1.08 2.37-.01.04.06.09.12.11.19a4.2 4.2 0 0 0 3.91 2.97c.32.03.68.21.93.43.53.45.57 1.22.12 1.82-.41.55-.82 1.13-1.31 1.59-.59.56-.68 1.2-.57 1.95l.16 1.8c.08 1.16-.82 1.88-1.85 1.47l-2.18-.92a1.7 1.7 0 0 0-1.04.01c-.74.26-1.45.63-2.18.92-1.03.39-1.89-.28-1.84-1.41zm-19.76.21c.05-.83.01-1.45.15-2.03.2-.87-.01-1.53-.62-2.13-.42-.41-.77-.9-1.13-1.37-.74-.97-.4-2.02.74-2.33l1.82-.45c.67-.11 1.13-.4 1.44-1.06.28-.6.66-1.16 1.01-1.73.63-.99 1.7-1 2.32-.02.41.64.74 1.34 1.19 1.95a2.4 2.4 0 0 0 .99.77c.63.24 1.3.33 1.96.49 1.33.33 1.68 1.38.82 2.47l-1.43 1.77c-.2.28-.31.69-.3 1.04.01.77.13 1.54.18 2.31.08 1.21-.88 2.03-1.88 1.44a4.8 4.8 0 0 0-5.32-.01c-.99.58-1.94-.17-1.92-1.1zm-19.73-.05l.19-2.54c0-.39-.16-.83-.38-1.15-.43-.63-.96-1.18-1.43-1.78-.74-.95-.38-2.02.76-2.33.2-.06.4-.15.61-.15 1.71-.06 2.73-1.06 3.38-2.6.09-.21.22-.42.36-.61.58-.82 1.6-.84 2.17.01.44.65.85 1.33 1.21 2.03a1.5 1.5 0 0 0 1.18.85l1.96.48c1.14.31 1.49 1.37.77 2.33l-.36.44c-1.59 1.92-1.59 1.92-1.31 4.43.02.19.05.39.04.58-.03 1.01-.88 1.64-1.79 1.29l-2.32-.98c-.28-.1-.64-.1-.92 0l-2.26.95c-1 .39-1.91-.3-1.87-1.24z"/></g><g filter="url(#B)" class="E"><path d="M1050.94 67.83a7.1 7.1 0 0 1 7.12 0l28.95 16.71a7.1 7.1 0 0 1 3.56 6.17v33.43a7.1 7.1 0 0 1-3.56 6.17l-28.95 16.71a7.1 7.1 0 0 1-7.12 0l-28.95-16.71c-2.2-1.27-3.56-3.62-3.56-6.17V90.71c0-2.55 1.36-4.9 3.56-6.17l28.95-16.71z"/></g><g clip-path="url(#O)" class="B"><path d="M1046.69 113.38l.01-7.75a2.7 2.7 0 0 1 .25-1.08l5.32-11.36c.26-.58.65-.86 1.29-.84.91.03 1.82-.08 2.67.32a3.8 3.8 0 0 1 2.36 3.63l.01 3.63v1.49c0 .73.02.75.72.75l6.05.01a4.2 4.2 0 0 1 1.45.25c1.81.67 2.77 2.44 2.47 4.34l-1.56 10.07-.44 2.63c-.33 1.7-1.88 3.01-3.61 3.01h-15.89c-.7 0-1.1-.44-1.1-1.19v-7.92zm-1.35 9.08c-1.11 0-2.33.07-3.53-.02-1.24-.09-2.13-1.17-2.14-2.47v-6.96-6.08c0-1.67 1-2.67 2.66-2.67h3.02l-.07 2.58v12.65l.06 2.98z"/></g><g filter="url(#C)" class="E"><path d="M228.22 527.88a8.8 8.8 0 0 0-7.84-12.69h-97.61c-4.84 0-8.77 3.93-8.77 8.77v19.73c0 4.84 3.93 8.77 8.77 8.77h87.74c3.32 0 6.36-1.88 7.84-4.85l9.87-19.73z"/></g><g stroke="#fff" stroke-width="1.1"><path d="M146.94 526.8c-.21 0-.53.15-.8.57l-.01.01-.04.05-.02.03a5 5 0 0 1-1.69 2.36c-.75.56-1.66.86-2.69.95h0c-.18.01-.43.13-.62.3h0c-.27.23-.34.66-.03 1.08l1.24 1.52h0a2.4 2.4 0 0 1 .7 1.17c.11.42.09.85.03 1.26-.08.57-.11 1.15-.16 1.76-.03.43.12.71.3.85.17.14.44.21.8.07h0l1.07-.47 1.14-.47h.01l.17-.05c.4-.1.85-.07 1.23.06h0l1.14.47 1.06.46c.36.14.63.07.8-.06s.32-.39.3-.81l-.15-2.18a2.2 2.2 0 0 1 .04-.98 2 2 0 0 1 .33-.65l.16-.19.7-.81.68-.85c.28-.36.31-.71.24-.95-.07-.22-.26-.42-.63-.46a5.7 5.7 0 0 1-2.84-1.06c-.79-.59-1.39-1.42-1.85-2.47h0c-.18-.41-.42-.51-.61-.5zm19.67 0c-.19 0-.46.11-.69.48h0l-.57.96-.64 1.02h0a2.9 2.9 0 0 1-1.24.95h0a9.2 9.2 0 0 1-1.04.3l-.97.21h0c-.55.14-.78.39-.85.59s-.04.55.32 1l1.28 1.56.17.24c.27.38.41.91.4 1.36l-.08 1.2-.06.57-.05.56c-.03.46.14.78.33.93.17.13.41.19.73 0 .97-.57 1.94-.88 2.94-.88a5.5 5.5 0 0 1 2.58.67l.37.2c.32.19.58.14.76.03.17-.11.3-.31.32-.55v-.1l-.04-1.1c-.01-.32-.03-.58-.09-.82h0c-.12-.51-.12-.99.02-1.45a2.8 2.8 0 0 1 .76-1.2h0c.38-.37.7-.82 1.08-1.31.29-.37.32-.7.25-.91s-.27-.44-.69-.55l-1.77-.44h0c-.39-.06-.76-.18-1.09-.42s-.58-.55-.76-.95h0c-.26-.56-.61-1.09-.98-1.66h0c-.24-.38-.51-.5-.7-.5zm19.72 0c-.19 0-.43.1-.62.38h0a18.9 18.9 0 0 0-1.17 1.97h0c-.17.34-.39.6-.67.79s-.58.29-.9.35l-1.92.47h0c-.43.12-.63.35-.7.56s-.05.54.23.91l.35.43c.76.92 1.25 1.5 1.46 2.18s.11 1.45-.02 2.65h0l-.04.49v.01c.01.35.16.6.34.73.17.13.42.18.7.07h0l1.13-.48 1.19-.5h0c.4-.15.9-.14 1.29 0h0l1.16.48 1.1.48c.64.25 1.14-.17 1.12-.7l-.19-2.58a2.8 2.8 0 0 1 .47-1.45h0l.18-.25.56-.69.71-.86h0c.28-.36.31-.68.24-.89s-.28-.45-.71-.57h0l-.32-.1c-.08-.03-.13-.03-.16-.03h0a3.9 3.9 0 0 1-2.41-.86c-.64-.53-1.11-1.25-1.45-2.07v-.01c-.06-.15-.16-.31-.29-.5-.2-.29-.45-.39-.65-.39z"/></g><g filter="url(#D)" class="E"><path d="M89.06 494.23a7.1 7.1 0 0 0-7.12 0l-28.95 16.71c-2.2 1.27-3.56 3.63-3.56 6.17v33.43a7.1 7.1 0 0 0 3.56 6.17l28.95 16.71a7.1 7.1 0 0 0 7.13 0l28.95-16.71a7.1 7.1 0 0 0 3.56-6.17v-33.43a7.1 7.1 0 0 0-3.56-6.17l-28.95-16.71z"/></g><g clip-path="url(#P)" class="B"><path d="M93.31 527.87l-.01 7.75a2.7 2.7 0 0 1-.25 1.08l-5.32 11.36c-.26.57-.65.86-1.29.84-.9-.03-1.82.08-2.67-.32a3.8 3.8 0 0 1-2.36-3.63l-.01-3.63v-1.49c0-.73-.02-.75-.73-.75-2.01 0-4.03.01-6.04-.01-.49-.01-1-.07-1.45-.25-1.81-.67-2.77-2.44-2.47-4.34l1.56-10.07.44-2.63c.34-1.7 1.88-3.01 3.61-3.01h15.89c.7 0 1.1.44 1.1 1.18v7.92zm1.35-9.08l3.53.02c1.24.09 2.13 1.17 2.14 2.47l.01 6.96v6.08c0 1.67-1.01 2.67-2.66 2.67h-3.02l.08-2.58v-12.65l-.06-2.98z"/></g><path d="M138.27 243.05v21.82h-5.25l-7.72-13.58v13.58h-5.26v-21.82h5.26l7.72 13.58v-13.58h5.25zm11.51 17.74v-6.68c0-.46-.06-.85-.19-1.18s-.34-.59-.62-.76c-.28-.19-.65-.28-1.12-.28-.38 0-.7.06-.97.19s-.47.32-.61.58-.21.59-.21.99H141c0-.75.16-1.44.49-2.08.34-.65.82-1.21 1.44-1.69a6.9 6.9 0 0 1 2.25-1.11c.88-.27 1.86-.41 2.94-.41a8.7 8.7 0 0 1 3.45.65 5.4 5.4 0 0 1 2.41 1.93 5.5 5.5 0 0 1 .88 3.21v6.64c0 1.06.06 1.86.18 2.41.12.54.29 1.01.51 1.42v.25h-5.06c-.24-.5-.42-1.11-.54-1.83-.11-.73-.16-1.48-.16-2.25zm.62-5.83l.03 2.7h-2.23c-.47 0-.87.06-1.2.19a2 2 0 0 0-.78.54c-.19.22-.33.47-.42.75a3.2 3.2 0 0 0-.12.88c0 .3.07.57.21.81.15.23.35.41.6.54a1.8 1.8 0 0 0 .84.19c.56 0 1.03-.11 1.42-.31.4-.22.7-.48.91-.79s.31-.6.31-.87l1.11 2.07c-.2.4-.43.8-.69 1.21-.25.41-.56.79-.94 1.14a4.5 4.5 0 0 1-1.36.84c-.54.21-1.19.31-1.96.31a6.2 6.2 0 0 1-2.76-.61 5.1 5.1 0 0 1-1.99-1.71c-.5-.74-.75-1.59-.75-2.55a5.4 5.4 0 0 1 .45-2.25 4.4 4.4 0 0 1 1.39-1.68c.62-.46 1.41-.81 2.37-1.05s2.09-.36 3.39-.36h2.17zm12.87 6.44l3.19-12.75h5.32l-5.31 16.22h-3.15l-.06-3.46zm-1.89-12.75l3.15 12.75-.03 3.46h-3.16l-5.29-16.22h5.33zm17.23 0v16.22h-5.06v-16.22h5.06zm-5.37-4.18c0-.72.26-1.31.78-1.77s1.19-.69 2.02-.69 1.5.23 2.02.69.78 1.05.78 1.77-.26 1.31-.78 1.77-1.19.69-2.02.69-1.5-.23-2.02-.69-.78-1.05-.78-1.77zm18.67 4.18h4.59v15.59c0 1.5-.34 2.77-1.03 3.81-.69 1.05-1.65 1.84-2.89 2.38a10.5 10.5 0 0 1-4.32.82c-.73 0-1.47-.09-2.23-.28a8.5 8.5 0 0 1-2.13-.81 5.8 5.8 0 0 1-1.66-1.33l2.11-2.97c.41.46.92.85 1.54 1.17a4.6 4.6 0 0 0 2.19.5c.73 0 1.34-.13 1.83-.39a2.6 2.6 0 0 0 1.14-1.14c.26-.49.39-1.08.39-1.78v-11.72l.48-3.84zm-10.78 8.3v-.31c0-1.23.15-2.35.45-3.36a8 8 0 0 1 1.32-2.62c.58-.74 1.28-1.31 2.1-1.71s1.74-.6 2.77-.6a5.2 5.2 0 0 1 2.73.65c.72.42 1.29 1.01 1.72 1.77.44.76.78 1.65 1.02 2.67l.63 3.27v.37c-.17 1.1-.41 2.14-.7 3.12-.29.97-.67 1.83-1.14 2.58s-1.06 1.34-1.77 1.77a4.8 4.8 0 0 1-2.52.63c-1.02 0-1.94-.2-2.76-.61-.81-.41-1.5-.98-2.08-1.72a8.2 8.2 0 0 1-1.32-2.61 11.3 11.3 0 0 1-.45-3.27zm5.05-.31v.31c0 .61.06 1.17.16 1.69.12.52.3.98.54 1.38.24.39.53.69.88.91.36.22.78.33 1.26.33.73 0 1.32-.15 1.77-.46s.77-.75.97-1.32.28-1.24.25-2.01v-1.18c.02-.66-.03-1.24-.13-1.74-.11-.51-.28-.93-.52-1.27-.23-.34-.54-.59-.93-.76a3.2 3.2 0 0 0-1.38-.27c-.47 0-.88.11-1.24.33s-.66.53-.9.93a4.8 4.8 0 0 0-.56 1.39c-.12.53-.18 1.11-.18 1.74zm21.64 4.15v-6.68c0-.46-.06-.85-.19-1.18s-.33-.59-.61-.76c-.28-.19-.66-.28-1.12-.28-.38 0-.7.06-.97.19s-.47.32-.62.58-.21.59-.21.99h-5.05c0-.75.16-1.44.5-2.08.34-.65.82-1.21 1.44-1.69.63-.48 1.38-.85 2.25-1.11a10 10 0 0 1 2.94-.41 8.7 8.7 0 0 1 3.45.65c1.02.43 1.82 1.07 2.41 1.93a5.5 5.5 0 0 1 .89 3.21v6.64c0 1.06.06 1.86.18 2.41.12.54.29 1.01.51 1.42v.25h-5.07c-.24-.5-.42-1.11-.54-1.83-.11-.73-.17-1.48-.17-2.25zm.62-5.83l.03 2.7h-2.23c-.47 0-.87.06-1.2.19a2 2 0 0 0-.78.54c-.19.22-.33.47-.42.75a3.2 3.2 0 0 0-.12.88c0 .3.07.57.21.81.15.23.35.41.6.54s.53.19.84.19c.56 0 1.03-.11 1.42-.31.4-.22.7-.48.91-.79s.31-.6.31-.87l1.11 2.07a14 14 0 0 1-.69 1.21 5.3 5.3 0 0 1-.94 1.14 4.5 4.5 0 0 1-1.36.84c-.54.21-1.19.31-1.96.31a6.2 6.2 0 0 1-2.76-.61 5.1 5.1 0 0 1-1.99-1.71c-.5-.74-.75-1.59-.75-2.55 0-.84.15-1.59.45-2.25a4.4 4.4 0 0 1 1.39-1.68c.62-.46 1.41-.81 2.37-1.05s2.09-.36 3.39-.36h2.17zm15.81-6.31v3.51h-9.77v-3.51h9.77zm-7.72-4.03h5.05v14.96c0 .43.05.76.15 1 .1.23.27.39.51.5a3 3 0 0 0 .99.13l.72-.01.54-.08v3.61a8.3 8.3 0 0 1-1.35.31 8.9 8.9 0 0 1-1.5.12c-1.08 0-2-.17-2.77-.51a3.6 3.6 0 0 1-1.74-1.6 5.9 5.9 0 0 1-.6-2.85v-15.59zm15.06 4.03v16.22h-5.07v-16.22h5.07zm-5.37-4.18c0-.72.26-1.31.78-1.77s1.19-.69 2.02-.69 1.5.23 2.02.69.78 1.05.78 1.77-.26 1.31-.78 1.77-1.19.69-2.02.69-1.5-.23-2.02-.69-.78-1.05-.78-1.77zm13.44 7.64v12.75h-5.05v-16.22h4.74l.31 3.46zm-.6 4.09l-1.18.03a11.2 11.2 0 0 1 .45-3.31 7.3 7.3 0 0 1 1.27-2.49 5.4 5.4 0 0 1 1.96-1.54c.77-.36 1.62-.54 2.56-.54a6.1 6.1 0 0 1 2.05.33 3.9 3.9 0 0 1 1.62 1.06c.46.49.81 1.14 1.05 1.95.25.8.38 1.79.38 2.97v10.21h-5.08v-10.22c0-.65-.09-1.14-.27-1.48-.18-.35-.44-.59-.78-.72a3.5 3.5 0 0 0-1.24-.19c-.52 0-.96.1-1.32.3s-.65.48-.87.84a4 4 0 0 0-.46 1.24c-.09.48-.13 1-.13 1.57zm23.15-7.55h4.59v15.59c0 1.5-.35 2.77-1.03 3.81-.69 1.05-1.65 1.84-2.89 2.38-1.23.55-2.67.82-4.32.82a9.2 9.2 0 0 1-2.23-.28c-.76-.18-1.47-.45-2.13-.81a5.8 5.8 0 0 1-1.66-1.33l2.11-2.97c.41.46.92.85 1.54 1.17a4.6 4.6 0 0 0 2.19.5c.73 0 1.34-.13 1.83-.39.5-.26.88-.64 1.14-1.14.26-.49.39-1.08.39-1.78v-11.72l.48-3.84zm-10.78 8.3v-.31a11.8 11.8 0 0 1 .45-3.36 8 8 0 0 1 1.32-2.62c.58-.74 1.28-1.31 2.1-1.71s1.74-.6 2.77-.6a5.2 5.2 0 0 1 2.73.65c.72.42 1.29 1.01 1.72 1.77.44.76.78 1.65 1.02 2.67l.63 3.27v.37c-.17 1.1-.4 2.14-.7 3.12a10.5 10.5 0 0 1-1.14 2.58c-.47.75-1.06 1.34-1.77 1.77a4.8 4.8 0 0 1-2.52.63 6.1 6.1 0 0 1-2.76-.61c-.81-.41-1.5-.98-2.08-1.72-.57-.74-1.01-1.61-1.32-2.61-.3-1-.45-2.09-.45-3.27zm5.05-.31v.31a8.2 8.2 0 0 0 .17 1.69c.12.52.3.98.54 1.38.24.39.53.69.88.91.36.22.78.33 1.26.33.73 0 1.32-.15 1.77-.46s.77-.75.97-1.32a5.4 5.4 0 0 0 .25-2.01v-1.18c.02-.66-.02-1.24-.13-1.74-.11-.51-.29-.93-.52-1.27-.23-.34-.54-.59-.93-.76a3.2 3.2 0 0 0-1.38-.27c-.47 0-.89.11-1.24.33s-.66.53-.9.93a4.8 4.8 0 0 0-.56 1.39c-.12.53-.18 1.11-.18 1.74zm29.4-7.99v3.51h-9.77v-3.51h9.77zm-7.72-4.03h5.05v14.96c0 .43.05.76.15 1 .1.23.27.39.51.5a3 3 0 0 0 .99.13l.72-.01.54-.08v3.61a8.3 8.3 0 0 1-1.35.31c-.47.08-.97.12-1.5.12-1.08 0-2-.17-2.77-.51a3.6 3.6 0 0 1-1.74-1.6 5.9 5.9 0 0 1-.6-2.85v-15.59zm14.67-2.77v23.02h-5.05v-23.02h5.05zm-.6 14.36l-1.18.03a11.2 11.2 0 0 1 .42-3.15c.28-.96.68-1.79 1.2-2.5s1.14-1.26 1.87-1.65 1.54-.59 2.43-.59a6.6 6.6 0 0 1 2.19.34 4.2 4.2 0 0 1 1.72 1.11 5 5 0 0 1 1.12 1.99c.27.82.41 1.82.41 3v10.07h-5.08v-10.1c0-.66-.09-1.17-.28-1.53-.18-.37-.44-.62-.78-.76-.34-.15-.75-.22-1.24-.22-.59 0-1.07.1-1.44.3a2.1 2.1 0 0 0-.86.84c-.19.35-.32.76-.39 1.24s-.1 1-.1 1.57zm20.83 8.96c-1.32 0-2.5-.2-3.54-.61a7.7 7.7 0 0 1-2.64-1.72c-.71-.73-1.25-1.57-1.63-2.52-.37-.95-.55-1.95-.55-3.01v-.57a10.6 10.6 0 0 1 .49-3.3 7.7 7.7 0 0 1 1.47-2.67c.65-.76 1.46-1.35 2.44-1.77.98-.43 2.12-.65 3.42-.65 1.15 0 2.18.19 3.09.56a6.3 6.3 0 0 1 2.31 1.59c.64.69 1.12 1.52 1.45 2.5a10 10 0 0 1 .51 3.3v2.05h-13.25v-3.16h8.32v-.39a2.8 2.8 0 0 0-.28-1.38c-.19-.38-.47-.67-.84-.87a2.8 2.8 0 0 0-1.35-.3c-.55 0-1 .12-1.36.36-.35.24-.62.57-.82.99a5.2 5.2 0 0 0-.4 1.42c-.08.54-.12 1.11-.12 1.71v.57c0 .6.08 1.14.24 1.63a3.7 3.7 0 0 0 .72 1.26 3.4 3.4 0 0 0 1.14.8 3.9 3.9 0 0 0 1.53.28 5.6 5.6 0 0 0 2.04-.39c.67-.26 1.24-.69 1.72-1.29l2.29 2.73a5.9 5.9 0 0 1-1.41 1.36c-.6.44-1.32.8-2.16 1.08a9.2 9.2 0 0 1-2.82.4zm19.36-22.12h4.29l4.87 15.18 4.87-15.18h4.29l-7.42 21.82h-3.48l-7.42-21.82zm-2.61 0h4.44l.82 16.72v5.1h-5.26v-21.82zm19.09 0h4.45v21.82h-5.28v-5.1l.82-16.72zm12.92 5.6v16.22h-5.06v-16.22h5.06zm-5.37-4.18c0-.72.26-1.31.78-1.77s1.19-.69 2.02-.69 1.5.23 2.02.69.78 1.05.78 1.77-.26 1.31-.78 1.77-1.19.69-2.02.69-1.5-.23-2.02-.69-.78-1.05-.78-1.77zm13.44 7.64v12.75h-5.05v-16.22h4.74l.32 3.46zm-.6 4.09l-1.18.03a11.2 11.2 0 0 1 .45-3.31 7.3 7.3 0 0 1 1.27-2.49 5.4 5.4 0 0 1 1.96-1.54c.77-.36 1.62-.54 2.56-.54a6.1 6.1 0 0 1 2.05.33c.63.22 1.17.57 1.62 1.06a4.8 4.8 0 0 1 1.05 1.95 10.1 10.1 0 0 1 .37 2.97v10.21h-5.08v-10.22c0-.65-.09-1.14-.27-1.48-.18-.35-.44-.59-.78-.72s-.75-.19-1.24-.19c-.52 0-.96.1-1.32.3s-.65.48-.87.84c-.21.35-.37.76-.47 1.24-.09.48-.13 1-.13 1.57zm20.82 8.96c-1.32 0-2.5-.2-3.54-.61a7.7 7.7 0 0 1-2.64-1.72c-.71-.73-1.25-1.57-1.63-2.52a8.2 8.2 0 0 1-.56-3.01v-.57c0-1.19.16-2.29.5-3.3a7.7 7.7 0 0 1 1.47-2.67c.65-.76 1.46-1.35 2.44-1.77.98-.43 2.12-.65 3.42-.65 1.15 0 2.18.19 3.09.56s1.68.9 2.31 1.59c.64.69 1.12 1.52 1.45 2.5a10 10 0 0 1 .51 3.3v2.05h-13.25v-3.16h8.32v-.39a2.8 2.8 0 0 0-.28-1.38c-.19-.38-.47-.67-.84-.87a2.8 2.8 0 0 0-1.35-.3c-.55 0-1 .12-1.36.36-.35.24-.62.57-.82.99a5.2 5.2 0 0 0-.4 1.42 11.8 11.8 0 0 0-.12 1.71v.57c0 .6.08 1.14.24 1.63a3.7 3.7 0 0 0 .72 1.26c.32.34.7.61 1.14.8a3.9 3.9 0 0 0 1.53.28 5.6 5.6 0 0 0 2.04-.39c.67-.26 1.24-.69 1.72-1.29l2.29 2.73a5.9 5.9 0 0 1-1.41 1.36c-.6.44-1.32.8-2.16 1.08-.84.27-1.78.4-2.82.4zm15.12-.3h-5.08v-16.64c0-1.45.3-2.67.9-3.66a5.7 5.7 0 0 1 2.62-2.26c1.14-.52 2.52-.78 4.14-.78a14.3 14.3 0 0 1 2.65.24l2.64.63-.7 3.99-1.86-.45c-.64-.14-1.44-.21-2.41-.21a3.2 3.2 0 0 0-2.13.64c-.51.43-.76 1.05-.76 1.86v16.64zm3.18-16.22v3.51h-10.6v-3.51h10.6zm7 0v16.22h-5.07v-16.22h5.07zm10.97 16.51c-1.32 0-2.5-.2-3.54-.61a7.7 7.7 0 0 1-2.64-1.72c-.71-.73-1.25-1.57-1.63-2.52a8.2 8.2 0 0 1-.56-3.01v-.57c0-1.19.17-2.29.5-3.3a7.7 7.7 0 0 1 1.47-2.67c.65-.76 1.46-1.35 2.44-1.77.98-.43 2.12-.65 3.42-.65 1.15 0 2.18.19 3.09.56a6.3 6.3 0 0 1 2.31 1.59c.64.69 1.12 1.52 1.45 2.5a10 10 0 0 1 .51 3.3v2.05H420v-3.16h8.32v-.39a2.8 2.8 0 0 0-.28-1.38c-.19-.38-.47-.67-.84-.87a2.8 2.8 0 0 0-1.35-.3 2.4 2.4 0 0 0-1.36.36c-.35.24-.62.57-.83.99-.19.41-.32.88-.4 1.42s-.12 1.11-.12 1.71v.57c0 .6.08 1.14.24 1.63.17.49.41.91.72 1.26a3.4 3.4 0 0 0 1.14.8 3.9 3.9 0 0 0 1.53.28 5.6 5.6 0 0 0 2.04-.39c.67-.26 1.24-.69 1.72-1.29l2.29 2.73a5.9 5.9 0 0 1-1.41 1.36c-.6.44-1.32.8-2.16 1.08-.84.27-1.78.4-2.82.4zm14.21-23.32v23.02h-5.06v-23.02h5.06zm12.44 19.3v-19.3h5.08v23.02h-4.56l-.52-3.72zm-9.95-4.2v-.31c0-1.23.13-2.35.4-3.36.27-1.02.67-1.89 1.2-2.62a5.4 5.4 0 0 1 1.98-1.71c.79-.4 1.7-.6 2.73-.6.92 0 1.72.22 2.41.65.69.42 1.28 1.01 1.77 1.77a10.5 10.5 0 0 1 1.2 2.67c.31 1.01.54 2.1.7 3.27v.37c-.16 1.1-.39 2.14-.7 3.12a10.5 10.5 0 0 1-1.2 2.58c-.49.75-1.08 1.34-1.78 1.77-.69.42-1.5.63-2.43.63-1.03 0-1.94-.2-2.73-.61a5.6 5.6 0 0 1-1.96-1.72c-.52-.74-.91-1.61-1.18-2.61s-.4-2.09-.4-3.27zm5.05-.31v.31c0 .61.04 1.17.12 1.69s.21.98.4 1.38c.2.39.46.69.78.91.33.22.73.33 1.21.33.65 0 1.18-.15 1.6-.46.43-.31.74-.75.94-1.32a5.2 5.2 0 0 0 .27-2.01v-1.18a7.2 7.2 0 0 0-.13-1.74c-.11-.51-.28-.93-.52-1.27-.23-.34-.52-.59-.88-.76-.35-.18-.76-.27-1.24-.27-.47 0-.87.11-1.2.33a2.4 2.4 0 0 0-.78.93c-.2.39-.35.85-.44 1.39a10.4 10.4 0 0 0-.13 1.74zm19.86.28v-.31c0-1.19.17-2.28.51-3.28.34-1.01.84-1.88 1.5-2.62a6.7 6.7 0 0 1 2.44-1.72c.97-.42 2.09-.63 3.36-.63a8.4 8.4 0 0 1 3.37.63 6.7 6.7 0 0 1 2.46 1.72 7.5 7.5 0 0 1 1.5 2.62c.34 1 .51 2.09.51 3.28v.31c0 1.18-.17 2.27-.51 3.28-.34 1-.84 1.87-1.5 2.62-.66.74-1.47 1.31-2.44 1.72s-2.09.61-3.36.61-2.39-.2-3.37-.61a6.7 6.7 0 0 1-2.46-1.72c-.66-.75-1.16-1.62-1.5-2.62a10.2 10.2 0 0 1-.51-3.28zm5.05-.31v.31a10.2 10.2 0 0 0 .13 1.71c.09.53.24.99.45 1.39.21.39.5.69.85.91s.81.33 1.35.33c.53 0 .97-.11 1.32-.33.36-.22.64-.52.85-.91.21-.4.36-.87.45-1.39a10.2 10.2 0 0 0 .13-1.71v-.31c0-.59-.04-1.14-.13-1.66-.09-.53-.24-.99-.45-1.39-.21-.41-.49-.73-.85-.96s-.81-.34-1.35-.34c-.53 0-.97.11-1.33.34-.35.23-.63.55-.84.96-.21.4-.36.87-.45 1.39-.09.52-.13 1.07-.13 1.66zm19.03 8.26h-5.08v-17.53c0-1.26.25-2.32.76-3.18s1.23-1.51 2.16-1.95a7.5 7.5 0 0 1 3.3-.68c.44 0 .85.03 1.24.09a13.4 13.4 0 0 1 1.14.23l.01 3.72c-.18-.05-.36-.09-.55-.1a6.9 6.9 0 0 0-.7-.03c-.49 0-.91.07-1.24.22a1.6 1.6 0 0 0-.78.64c-.17.28-.25.62-.25 1.03v17.53zm3.15-16.22v3.51H484.7v-3.51h10.57zm-341.25 89.82l-1.64 9.39h-26.27l1.64-9.39h26.27zm-14.82-41.26l-8.8 50.65h-11.9l8.77-50.65h11.93zm15.1 20.11l-1.56 9.08h-22.89l1.6-9.08h22.86zm6.96-20.11l-1.63 9.43h-26.37l1.67-9.43h26.34zm11.97 21.6l-5.04 29.05h-11.45l6.54-37.64h10.68l-.73 8.59zm-2.85 8.94l-2.47.1a32.1 32.1 0 0 1 1.43-6.68 22.1 22.1 0 0 1 3.06-5.98 14.4 14.4 0 0 1 4.84-4.24c1.93-1.04 4.18-1.53 6.75-1.46 1.9.05 3.48.45 4.73 1.22 1.25.74 2.23 1.74 2.92 2.99.72 1.23 1.18 2.63 1.39 4.21.23 1.55.27 3.17.1 4.84l-4.17 25.12h-11.45l3.93-23.66a13.8 13.8 0 0 0 .07-2.75 3.4 3.4 0 0 0-.83-2.09c-.49-.56-1.31-.85-2.47-.87-1.25-.05-2.33.22-3.24.8a7.5 7.5 0 0 0-2.3 2.23c-.6.93-1.1 1.94-1.5 3.03-.37 1.09-.64 2.16-.8 3.2zm20.84 0l-3.03.1a32.9 32.9 0 0 1 1.39-6.64c.72-2.2 1.71-4.2 2.96-5.98 1.28-1.79 2.86-3.2 4.77-4.24a13.3 13.3 0 0 1 6.75-1.5c2.09.07 3.8.52 5.15 1.36s2.37 1.95 3.06 3.34c.72 1.39 1.18 2.95 1.39 4.66a24 24 0 0 1 .03 5.32l-3.97 23.69h-11.48l3.97-23.73c.12-.95.14-1.84.07-2.68a3.4 3.4 0 0 0-.84-2.09c-.46-.56-1.26-.85-2.4-.87-1.3-.05-2.41.21-3.34.77-.9.56-1.66 1.3-2.26 2.23a11.7 11.7 0 0 0-1.43 3.03c-.35 1.09-.62 2.17-.8 3.24zm41.71-9.67l-7.69 44.25h-11.45l9.05-52.12h10.61l-.52 7.86zm20.53 10.3l-.1.73c-.25 2.27-.78 4.57-1.56 6.89a24.4 24.4 0 0 1-3.17 6.37 15.4 15.4 0 0 1-4.94 4.63c-1.97 1.14-4.29 1.67-6.96 1.6-2.34-.07-4.26-.72-5.74-1.95-1.48-1.25-2.64-2.83-3.48-4.73-.81-1.93-1.38-3.95-1.7-6.09-.3-2.16-.43-4.16-.38-6.02l.1-1.01a38.6 38.6 0 0 1 1.74-6.47 28 28 0 0 1 3.2-6.33c1.32-1.97 2.91-3.56 4.77-4.77 1.85-1.23 4.01-1.81 6.47-1.74 2.57.07 4.69.68 6.33 1.84a10.9 10.9 0 0 1 3.76 4.49 18.8 18.8 0 0 1 1.63 6.05c.23 2.2.24 4.37.03 6.51zm-11.52.7l.07-.73.17-2.89c.05-1.09-.02-2.16-.21-3.2-.16-1.04-.54-1.91-1.15-2.61-.58-.72-1.47-1.1-2.68-1.15-1.41-.07-2.6.15-3.55.66a6.4 6.4 0 0 0-2.33 2.12 11.5 11.5 0 0 0-1.36 3.06 21 21 0 0 0-.7 3.44l-.31 2.85c-.16 1.32-.2 2.67-.1 4.04.09 1.34.49 2.48 1.18 3.41.72.93 1.93 1.41 3.62 1.46 1.34.02 2.46-.3 3.34-.97.91-.67 1.62-1.55 2.16-2.64.56-1.09.97-2.24 1.25-3.44l.59-3.41zm34.51-34.65l-9.25 53.44H255.7l9.25-53.44h11.48zm-.49 35.21l.07-.73a26.5 26.5 0 0 1 1.98-7.62 21.1 21.1 0 0 1 4.07-6.23c1.72-1.79 3.73-3.17 6.05-4.14a18.4 18.4 0 0 1 7.79-1.39c2.76.05 5.15.58 7.17 1.6s3.68 2.41 4.97 4.17c1.3 1.74 2.22 3.76 2.75 6.05a22.1 22.1 0 0 1 .49 7.27l-.07.77c-.3 2.69-.97 5.21-2.02 7.55a21 21 0 0 1-4.14 6.16 17.8 17.8 0 0 1-6.02 4.11c-2.32.97-4.91 1.43-7.76 1.36-2.71-.05-5.09-.57-7.13-1.57-2.02-1.02-3.68-2.39-4.97-4.11-1.3-1.74-2.23-3.73-2.78-5.98-.53-2.27-.68-4.7-.45-7.27zm11.51-.73l-.07.73-.14 3.13a13.6 13.6 0 0 0 .38 3.24c.25 1.02.72 1.87 1.39 2.54.7.65 1.69 1 2.99 1.04 1.39.05 2.55-.24 3.48-.87.95-.63 1.72-1.46 2.3-2.5a13.8 13.8 0 0 0 1.32-3.37c.32-1.21.54-2.37.66-3.48l.07-.73.1-3.1a12.8 12.8 0 0 0-.35-3.31 5.2 5.2 0 0 0-1.43-2.57c-.7-.69-1.69-1.07-2.99-1.11-1.39-.05-2.56.25-3.51.91-.93.65-1.68 1.51-2.26 2.57a13.7 13.7 0 0 0-1.32 3.41 25 25 0 0 0-.63 3.48zm36.95 13.99l14.96-32.67H352l-22.06 43.28c-.67 1.44-1.44 2.75-2.3 3.93a15 15 0 0 1-2.85 3.06c-1.07.86-2.27 1.52-3.62 1.98s-2.86.7-4.56.7a13.4 13.4 0 0 1-2.57-.24l-2.5-.52.87-8.42c.23.02.46.03.7.03a6.7 6.7 0 0 0 .66.04c.97 0 1.84-.11 2.61-.31.79-.19 1.48-.52 2.09-1.01.63-.49 1.17-1.16 1.64-2.02l4.31-7.83zm3.17-32.67l2.71 26.93-.87 11.83h-7.44l-6.26-38.76h11.86zm38.76 38.34a18.9 18.9 0 0 1-7.1-1.43c-2.13-.93-3.94-2.2-5.43-3.83a15.6 15.6 0 0 1-3.31-5.71c-.7-2.2-.95-4.6-.76-7.2l.14-1.36c.28-2.74.93-5.29 1.95-7.65 1.02-2.39 2.39-4.48 4.1-6.26a18.1 18.1 0 0 1 6.05-4.21 18.7 18.7 0 0 1 7.86-1.39c2.62.05 4.88.57 6.78 1.56 1.92 1 3.49 2.35 4.7 4.07 1.21 1.69 2.04 3.64 2.5 5.84.49 2.18.6 4.5.35 6.96l-.66 4.77H353.6l1.18-7.34 18.44.04.21-1.01a6.9 6.9 0 0 0-.14-2.96c-.25-.88-.73-1.58-1.43-2.09-.7-.53-1.63-.82-2.82-.87-1.44-.02-2.63.29-3.58.94a7.4 7.4 0 0 0-2.26 2.57 15.2 15.2 0 0 0-1.29 3.48 30.5 30.5 0 0 0-.66 3.55l-.14 1.32c-.09 1.14-.06 2.24.1 3.31s.49 2.03.97 2.89a6.1 6.1 0 0 0 2.05 2.09c.86.51 1.94.79 3.23.83a10.8 10.8 0 0 0 4.87-.97c1.51-.7 2.86-1.65 4.07-2.85l4.77 6.33c-1.04 1.58-2.39 2.85-4.04 3.83a19.3 19.3 0 0 1-5.32 2.09 21.7 21.7 0 0 1-5.5.66zm35.42-28.39l-4.8 27.69H385.5l6.54-37.64h10.65l-.94 9.95zm12.31-10.26l-1.5 10.92-1.81-.24-1.84-.14c-1.27-.02-2.44.13-3.48.45-1.02.3-1.91.78-2.68 1.43-.74.63-1.36 1.41-1.84 2.37s-.85 2.05-1.08 3.31l-1.91-1.39a46.9 46.9 0 0 1 1.11-5.6 26 26 0 0 1 2.23-5.64c.95-1.76 2.18-3.19 3.69-4.28 1.51-1.11 3.36-1.67 5.57-1.67a11.3 11.3 0 0 1 1.77.14l1.77.35zm-286.81 70.3l18.75.03c3.09.05 5.93.6 8.52 1.67s4.64 2.7 6.12 4.9c1.48 2.18 2.11 4.98 1.88 8.38-.21 2.81-.84 5.17-1.88 7.1a15.2 15.2 0 0 1-4.25 4.87 30.7 30.7 0 0 1-6.3 3.58l-4.31 2.23h-16.84l1.6-9.43 11.45.07c1.53-.02 2.89-.32 4.07-.91 1.21-.58 2.19-1.4 2.96-2.47s1.25-2.37 1.46-3.9a7.9 7.9 0 0 0-.14-3.34c-.28-1-.81-1.79-1.6-2.37a5.7 5.7 0 0 0-3.13-.97l-8.07-.03-7.17 41.23h-11.9l8.77-50.65zm18.4 50.65l-6.99-22.41 12.07-.07 7.62 21.88v.59h-12.7zm36.01.7a18.9 18.9 0 0 1-7.1-1.43 15.8 15.8 0 0 1-5.43-3.83 15.6 15.6 0 0 1-3.3-5.71 19.2 19.2 0 0 1-.77-7.2l.14-1.36c.28-2.74.93-5.29 1.95-7.65 1.02-2.39 2.39-4.48 4.11-6.26a18.1 18.1 0 0 1 6.05-4.21c2.34-1 4.96-1.46 7.86-1.39 2.62.05 4.88.57 6.78 1.56 1.93 1 3.49 2.35 4.7 4.07 1.21 1.69 2.04 3.64 2.5 5.84.49 2.18.6 4.5.35 6.96l-.66 4.77h-29.92l1.18-7.34 18.44.04.21-1.01a6.9 6.9 0 0 0-.14-2.96c-.25-.88-.73-1.58-1.43-2.09-.7-.53-1.64-.82-2.82-.87-1.44-.02-2.63.29-3.58.94a7.4 7.4 0 0 0-2.26 2.57c-.56 1.07-.99 2.23-1.29 3.48a30.3 30.3 0 0 0-.66 3.55l-.14 1.32a14.2 14.2 0 0 0 .1 3.31c.16 1.07.49 2.03.97 2.89a6.1 6.1 0 0 0 2.05 2.09c.86.51 1.94.79 3.24.83a10.8 10.8 0 0 0 4.87-.97c1.51-.7 2.86-1.65 4.07-2.85l4.77 6.33c-1.04 1.58-2.39 2.85-4.03 3.83a19.3 19.3 0 0 1-5.32 2.09 21.7 21.7 0 0 1-5.5.66zm33.4-9.19l11.66-29.15h12.35l-17.85 37.64h-7.27l1.11-8.49zm.28-29.15l2.51 30.16-1.25 7.48h-6.99l-6.05-37.64h11.79zm39.21 0l-6.51 37.64h-11.48l6.54-37.64h11.45zm-10.44-9.5c-.05-1.81.56-3.25 1.81-4.31 1.28-1.07 2.77-1.61 4.49-1.63 1.65-.02 3.11.46 4.38 1.46 1.28.97 1.93 2.33 1.95 4.07.05 1.81-.57 3.25-1.84 4.31a6.8 6.8 0 0 1-4.45 1.63c-1.65.02-3.11-.45-4.38-1.43-1.25-1-1.9-2.37-1.95-4.11zm29.47 47.84a18.9 18.9 0 0 1-7.1-1.43c-2.13-.93-3.94-2.2-5.43-3.83s-2.59-3.53-3.31-5.71a19.2 19.2 0 0 1-.77-7.2l.14-1.36a25.8 25.8 0 0 1 1.95-7.65c1.02-2.39 2.39-4.48 4.1-6.26a18.1 18.1 0 0 1 6.05-4.21c2.34-1 4.96-1.46 7.86-1.39 2.62.05 4.88.57 6.78 1.56 1.92 1 3.49 2.35 4.7 4.07 1.21 1.69 2.04 3.64 2.5 5.84.49 2.18.6 4.5.35 6.96l-.66 4.77h-29.92l1.18-7.34 18.44.04.21-1.01a6.9 6.9 0 0 0-.14-2.96c-.25-.88-.73-1.58-1.43-2.09-.7-.53-1.63-.82-2.82-.87-1.44-.02-2.63.29-3.58.94a7.4 7.4 0 0 0-2.26 2.57c-.56 1.07-.99 2.23-1.29 3.48a30.3 30.3 0 0 0-.66 3.55l-.14 1.32c-.09 1.14-.06 2.24.1 3.31s.49 2.03.97 2.89a6.1 6.1 0 0 0 2.05 2.09c.86.51 1.94.79 3.23.83a10.8 10.8 0 0 0 4.87-.97c1.51-.7 2.86-1.65 4.07-2.85l4.77 6.33c-1.04 1.58-2.39 2.85-4.04 3.83a19.3 19.3 0 0 1-5.32 2.09 21.7 21.7 0 0 1-5.5.66zm32.22-12.45l11.1-25.88h7.44l-5.01 13.74-10.68 23.9h-5.98l3.13-11.76zm1.81-25.88l-.38 26.82-1.43 10.82h-6.82l-2.12-37.64h10.75zm18.19 25.12l8.49-25.12h11.2l-15.1 37.64h-7.17l2.57-12.52zm-.9-25.12l2.3 27-.87 10.65h-5.64l-2.37-24.81-.14-12.84h6.71zm39.17 26.86c.19-.97-.1-1.72-.87-2.23-.74-.53-1.63-.93-2.68-1.18l-2.47-.66a32.1 32.1 0 0 1-4.21-1.43 17.5 17.5 0 0 1-3.79-2.23c-1.11-.9-2.01-1.98-2.68-3.24-.65-1.27-.94-2.76-.87-4.45.07-2.09.59-3.9 1.57-5.43 1-1.53 2.28-2.8 3.86-3.79 1.58-1.02 3.29-1.77 5.15-2.26a20.2 20.2 0 0 1 5.6-.66c2.55.02 4.95.48 7.2 1.36a12.7 12.7 0 0 1 5.53 4.04c1.44 1.81 2.17 4.11 2.19 6.89l-11.38-.03a6.2 6.2 0 0 0-.35-2.37c-.23-.67-.64-1.18-1.22-1.53-.58-.37-1.37-.56-2.37-.56a5.6 5.6 0 0 0-2.19.45c-.72.3-1.34.73-1.88 1.29-.51.56-.84 1.23-.97 2.02-.14.67-.05 1.24.28 1.7a3.6 3.6 0 0 0 1.32 1.08 11.4 11.4 0 0 0 1.74.7l1.67.38a37.2 37.2 0 0 1 6.12 2.05c2 .83 3.62 2.03 4.87 3.58 1.27 1.53 1.88 3.57 1.81 6.12-.07 2.16-.65 4-1.74 5.53a12.7 12.7 0 0 1-4.21 3.69 20 20 0 0 1-5.5 2.02 24.3 24.3 0 0 1-5.67.63c-2.55-.05-4.96-.56-7.24-1.53a13.9 13.9 0 0 1-5.57-4.31 11.9 11.9 0 0 1-2.23-6.99l10.58.03c.02 1.09.22 2.01.59 2.75a4.1 4.1 0 0 0 1.71 1.67 6.1 6.1 0 0 0 2.75.56 8.1 8.1 0 0 0 2.37-.35c.79-.25 1.46-.65 2.02-1.18.58-.56.96-1.26 1.15-2.12z" fill="#5b5b5b"/><g filter="url(#E)"><path d="M323 71.25a11.9 11.9 0 0 0-11.87-11.87H0v89.06h311.12A11.9 11.9 0 0 0 323 136.56V71.25z" fill="#3886e7"/><path d="M44.04 90.8v25.33h-6.09V90.8h6.09zm9.78 10.52v14.8h-5.86V97.31h5.5l.37 4.02zm-.7 4.75l-1.37.03a13 13 0 0 1 .52-3.84 8.5 8.5 0 0 1 1.48-2.89 6.3 6.3 0 0 1 2.28-1.79c.89-.42 1.88-.63 2.97-.63a7.1 7.1 0 0 1 2.38.38c.73.26 1.36.67 1.88 1.23.53.57.94 1.32 1.22 2.26a11.7 11.7 0 0 1 .43 3.44v11.85h-5.9v-11.86c0-.75-.1-1.33-.31-1.72-.21-.41-.51-.68-.9-.84s-.88-.23-1.44-.23a3.1 3.1 0 0 0-1.53.35 2.7 2.7 0 0 0-1.01.97 4.6 4.6 0 0 0-.54 1.44c-.1.56-.16 1.17-.16 1.83zm24.96-8.77v4.07H66.74v-4.07h11.34zm-8.96-4.68h5.86v17.36c0 .5.06.89.17 1.17.12.27.31.46.59.57.29.1.67.16 1.15.16l.83-.02.63-.09v4.19c-.5.16-1.02.28-1.57.37-.55.09-1.12.14-1.74.14-1.25 0-2.33-.2-3.22-.59a4.2 4.2 0 0 1-2.02-1.86c-.46-.85-.7-1.95-.7-3.31V92.63zm17.2 9.34v14.16h-5.86V97.31h5.48l.38 4.66zm5.57-4.8l-.1 5.44-.94-.09-.99-.05c-.68 0-1.28.08-1.77.24a3 3 0 0 0-1.22.7c-.31.3-.55.68-.7 1.15a5.3 5.3 0 0 0-.19 1.62l-1.06-.7a15 15 0 0 1 .37-3.44c.26-1.04.61-1.94 1.08-2.7.46-.77 1.03-1.35 1.69-1.76a4.1 4.1 0 0 1 2.23-.63c.29 0 .57.02.85.05.29.03.55.09.77.16zm.66 9.74v-.37c0-1.38.2-2.65.59-3.81.39-1.17.97-2.19 1.74-3.04a7.8 7.8 0 0 1 2.84-2c1.12-.49 2.42-.73 3.9-.73 1.48 0 2.79.24 3.91.73a7.8 7.8 0 0 1 2.85 2c.77.86 1.35 1.87 1.74 3.04.39 1.16.59 2.43.59 3.81v.37c0 1.37-.2 2.64-.59 3.81-.39 1.16-.97 2.17-1.74 3.04a7.8 7.8 0 0 1-2.84 2c-1.12.48-2.42.71-3.9.71s-2.78-.24-3.91-.71a7.8 7.8 0 0 1-2.85-2 8.9 8.9 0 0 1-1.74-3.04c-.39-1.17-.59-2.44-.59-3.81zm5.86-.37v.37c0 .71.05 1.37.16 1.98a5.4 5.4 0 0 0 .52 1.62c.24.45.57.81.99 1.06s.94.38 1.57.38c.61 0 1.13-.13 1.53-.38.42-.25.75-.61.99-1.06.24-.46.42-1 .52-1.62a11.9 11.9 0 0 0 .16-1.98v-.37c0-.68-.05-1.33-.16-1.93-.1-.61-.28-1.15-.52-1.62a2.8 2.8 0 0 0-.99-1.11c-.42-.27-.94-.4-1.56-.4-.61 0-1.13.13-1.55.4-.41.27-.73.64-.97 1.11a5.4 5.4 0 0 0-.52 1.62 11.3 11.3 0 0 0-.16 1.93zm25.73 5.27v-22.4h5.9v26.72h-5.29l-.61-4.31zm-11.55-4.87v-.37a15.1 15.1 0 0 1 .47-3.9 9.1 9.1 0 0 1 1.39-3.04 6.3 6.3 0 0 1 2.3-1.98 6.9 6.9 0 0 1 3.17-.7 5.2 5.2 0 0 1 2.8.75 6.4 6.4 0 0 1 2.05 2.05c.57.88 1.03 1.91 1.39 3.1a24 24 0 0 1 .82 3.79v.43c-.19 1.28-.46 2.48-.82 3.62-.36 1.13-.82 2.12-1.39 2.99a6.6 6.6 0 0 1-2.07 2.05 5.3 5.3 0 0 1-2.82.73c-1.19 0-2.25-.24-3.16-.71a6.5 6.5 0 0 1-2.28-2c-.6-.86-1.06-1.87-1.37-3.03a14.5 14.5 0 0 1-.47-3.79zm5.86-.37v.37c0 .71.05 1.36.14 1.97s.25 1.14.47 1.6a2.8 2.8 0 0 0 .9 1.06c.38.26.85.38 1.41.38.75 0 1.38-.18 1.86-.54.5-.36.86-.87 1.1-1.53.24-.66.35-1.44.31-2.33v-1.37a8.3 8.3 0 0 0-.16-2.02c-.13-.59-.33-1.08-.61-1.48-.27-.4-.61-.69-1.03-.89-.41-.21-.89-.31-1.44-.31-.55 0-1.01.13-1.39.38a2.8 2.8 0 0 0-.91 1.08c-.23.45-.4.99-.5 1.62a12 12 0 0 0-.16 2.02zm25.9 4.98V97.31h5.88v18.82h-5.5l-.38-4.58zm.56-3.83l1.53-.04a13 13 0 0 1-.45 3.51 8.4 8.4 0 0 1-1.34 2.78 6.1 6.1 0 0 1-2.16 1.84 6.4 6.4 0 0 1-2.94.64c-.93 0-1.78-.13-2.56-.38-.76-.27-1.43-.68-1.98-1.23-.56-.57-.99-1.29-1.3-2.17-.3-.89-.45-1.96-.45-3.2V97.31h5.86v12.21a3.3 3.3 0 0 0 .16 1.08 2.1 2.1 0 0 0 .45.77c.2.2.44.35.73.45.3.09.64.14 1.03.14a3.4 3.4 0 0 0 2.07-.56 2.9 2.9 0 0 0 1.04-1.51 6.9 6.9 0 0 0 .31-2.16zm16.51 4.23a3 3 0 0 0 1.39-.3c.39-.21.69-.5.89-.87a2.7 2.7 0 0 0 .29-1.37h5.51c.01 1.41-.34 2.66-1.04 3.72-.7 1.05-1.65 1.88-2.85 2.47-1.19.58-2.54.87-4.05.87a9.7 9.7 0 0 1-3.86-.71c-1.1-.49-2.02-1.16-2.77-2.02a8.9 8.9 0 0 1-1.65-3.04c-.36-1.16-.54-2.42-.54-3.77v-.4c0-1.36.18-2.61.54-3.78a8.7 8.7 0 0 1 1.65-3.04 7.5 7.5 0 0 1 2.75-2.02c1.1-.49 2.38-.73 3.84-.73a9.2 9.2 0 0 1 4.14.89 6.7 6.7 0 0 1 2.84 2.57 7.6 7.6 0 0 1 1.01 4.09H164c.01-.57-.07-1.08-.26-1.53s-.47-.81-.87-1.08c-.38-.28-.88-.42-1.48-.42s-1.09.13-1.46.4-.66.64-.85 1.11c-.19.46-.31 1-.38 1.6l-.09 1.93v.4l.09 1.97c.07.6.2 1.14.4 1.6.2.45.48.81.85 1.08.37.26.86.38 1.48.38zm20.51-14.65v4.07h-11.34v-4.07h11.34zm-8.96-4.68h5.86v17.36c0 .5.06.89.17 1.17.12.27.31.46.59.57.29.1.67.16 1.15.16l.83-.02.63-.09v4.19c-.5.16-1.02.28-1.57.37-.54.09-1.12.14-1.74.14-1.25 0-2.32-.2-3.22-.59a4.2 4.2 0 0 1-2.02-1.86c-.46-.85-.7-1.95-.7-3.31V92.63zm17.48 4.68v18.82h-5.88V97.31h5.88zm-6.23-4.85c0-.84.3-1.52.9-2.05s1.39-.8 2.35-.8 1.75.27 2.35.8.9 1.22.9 2.05-.3 1.52-.9 2.05-1.39.8-2.35.8-1.75-.27-2.35-.8-.9-1.22-.9-2.05zm9.12 14.46v-.37c0-1.38.2-2.65.59-3.81.39-1.17.97-2.19 1.74-3.04a7.8 7.8 0 0 1 2.84-2c1.13-.49 2.42-.73 3.9-.73 1.49 0 2.79.24 3.91.73 1.14.48 2.09 1.14 2.85 2a8.7 8.7 0 0 1 1.74 3.04c.39 1.16.59 2.43.59 3.81v.37c0 1.37-.2 2.64-.59 3.81a8.9 8.9 0 0 1-1.74 3.04 7.8 7.8 0 0 1-2.84 2c-1.12.48-2.42.71-3.9.71s-2.78-.24-3.91-.71a7.8 7.8 0 0 1-2.85-2c-.77-.87-1.35-1.88-1.74-3.04-.39-1.17-.59-2.44-.59-3.81zm5.86-.37v.37a11.9 11.9 0 0 0 .16 1.98c.1.61.28 1.15.52 1.62.24.45.57.81.99 1.06s.94.38 1.57.38c.61 0 1.13-.13 1.53-.38.42-.25.75-.61.99-1.06a5.4 5.4 0 0 0 .52-1.62 11.8 11.8 0 0 0 .16-1.98v-.37c0-.68-.05-1.33-.16-1.93a5.4 5.4 0 0 0-.52-1.62c-.24-.48-.58-.85-.99-1.11s-.94-.4-1.57-.4c-.61 0-1.13.13-1.55.4-.41.27-.73.64-.97 1.11-.24.46-.42 1-.52 1.62-.1.6-.16 1.25-.16 1.93zm20.66-5.22v14.8h-5.86V97.31h5.5l.36 4.02zm-.7 4.75l-1.37.03a13 13 0 0 1 .52-3.84 8.5 8.5 0 0 1 1.48-2.89 6.3 6.3 0 0 1 2.28-1.79c.89-.42 1.89-.63 2.97-.63a7.1 7.1 0 0 1 2.38.38c.73.26 1.36.67 1.88 1.23.53.57.94 1.32 1.22 2.26a11.7 11.7 0 0 1 .44 3.44v11.85h-5.9v-11.86c0-.75-.1-1.33-.31-1.72-.21-.41-.51-.68-.9-.84s-.88-.23-1.44-.23a3.1 3.1 0 0 0-1.53.35 2.7 2.7 0 0 0-1.01.97c-.24.41-.42.89-.54 1.44a9.9 9.9 0 0 0-.16 1.83z" class="B"/></g><g clip-path="url(#Q)"><ellipse cx="843.12" cy="439.57" rx="178.13" ry="58.19" fill="url(#F)"/><path d="M887.59 187.83h-18.61c-.51 0-.92-.41-.92-.92V172.7c0-.51.41-.92.92-.92h18.61c.51 0 .92.41.92.92v14.21c0 .51-.41.92-.92.92z" fill="#93c3ff"/><path d="M838.82 206.67h-22.79c-1.11 0-2.01-.9-2.01-2.01v-14.47h26.81v14.47c0 1.11-.9 2.01-2.01 2.01z" fill="#83bbff"/><path d="M814.02 190.19l12.14 9.76c.74.59 1.78.59 2.52 0l12.14-9.76h-26.81z" fill="#4297ff"/><path d="M869.81 281.18l11.16 10.1.12-10.1h-11.28z" fill="url(#G)"/><path d="M881.43 281.32h-50.5a6.8 6.8 0 0 1-6.81-6.81v-22.29a6.8 6.8 0 0 1 6.81-6.81h50.5a6.8 6.8 0 0 1 6.81 6.81v22.29a6.8 6.8 0 0 1-6.81 6.81z" fill="url(#H)"/><path opacity=".2" d="M888.24 252.22v22.29a6.8 6.8 0 0 1-6.81 6.81h-50.5a6.8 6.8 0 0 1-6.8-6.39 6.8 6.8 0 0 0 4.33 1.55h50.5a6.8 6.8 0 0 0 6.81-6.82v-22.28l-.01-.42a6.8 6.8 0 0 1 2.49 5.26z" class="E"/><g opacity=".3"><g fill="#6696ce"><use href="#R"/><path d="M876.02 263.76h-38.95a1 1 0 0 1-1-1 1 1 0 0 1 1-1h38.95a1 1 0 0 1 1 1 1 1 0 0 1-1 1z"/></g><path d="M876.02 270.07h-38.95a1 1 0 0 1-1-1 1 1 0 0 1 1-1h38.95a1 1 0 0 1 1 1 1 1 0 0 1-1 1z" fill="#d8dbda"/></g><g class="B"><path d="M875.33 256.9h-38.95a1 1 0 1 1 0-2h38.95a1 1 0 1 1 0 2zm0 6.3h-38.95a1 1 0 1 1 0-2h38.95a1 1 0 1 1 0 2zm0 6.31h-38.95a1 1 0 1 1 0-2h38.95a1 1 0 1 1 0 2z"/></g><path d="M807.43 356.88c6.22 0 11.26-5.04 11.26-11.26s-5.04-11.26-11.26-11.26-11.26 5.04-11.26 11.26 5.04 11.26 11.26 11.26z" fill="url(#I)"/><path d="M795.88 345.13c0 6.22 5.04 11.26 11.26 11.26s11.26-5.04 11.26-11.26-5.04-11.26-11.26-11.26-11.26 5.04-11.26 11.26z" fill="url(#J)"/><path opacity=".2" d="M796.78 347.89c3.52 2.27 16.19-1.59 13.07-13.62-.95-.26-1.94-.4-2.97-.4-6.22 0-11.26 5.04-11.26 11.26a11.4 11.4 0 0 0 .2 2.08c.31.24.63.47.96.68z" class="B"/><use href="#S" fill="url(#K)"/><path d="M809.58 342.72c0 .95.54 1.72 1.21 1.72s1.21-.77 1.21-1.72-.54-1.72-1.21-1.72-1.21.77-1.21 1.72z" fill="url(#L)"/><g stroke-width=".59"><path d="M811.044 351.104C811.044 349.203 809.293 347.66 807.133 347.66C804.973 347.66 803.223 349.203 803.223 351.104" stroke="url(#M)" stroke-miterlimit="10" stroke-linecap="round" stroke-linejoin="round"/><g class="E"><path d="M862.71 336.12a3.1 3.1 0 0 1 2.82-.67h0c.12.03.18.12.17.21l-.13 2.64-.03 1.37.01.5c.01.13.02.26.04.35h0c.24.83.95 2.04 1.65 3.11l1.02 1.49.73.99c.06.08.09.17.09.26l.57.1c.07-.17.25-.31.48-.31h4.21c.3 0 .52.23.52.48v10.78c0 .25-.22.48-.52.48h-4.21c-.24 0-.44-.16-.49-.34l-.26-.83-.3.81c-.06.17-.23.31-.43.34l-.09.01-12.67.02c-.82-.29-1.21-.84-1.34-1.39-.14-.58.01-1.15.27-1.44l.31-.36-.46-.12c-1-.26-1.53-.76-1.72-1.29s-.06-1.18.43-1.78l.24-.3-.35-.16c-.85-.4-1.26-.82-1.44-1.19-.17-.37-.14-.75-.01-1.1s.38-.69.59-.93a4.2 4.2 0 0 1 .27-.28l.08-.07.02-.02.27-.22-.25-.23c-.64-.59-.9-1.1-.96-1.5-.06-.39.06-.74.27-1.03.39-.55 1.05-.88 1.77-.92h.14l7.53.02h.34l-.04-.33h0l-.01-.06-.02-.19a25.6 25.6 0 0 1-.06-.69 26 26 0 0 1-.06-2.19 13 13 0 0 1 .24-2.42c.14-.66.35-1.16.62-1.48l.12-.12z" stroke="#57a2ff"/></g></g><path d="M904.47 186.75v215.88c0 1.24-.13 2.45-.36 3.62-.12.58-.27 1.15-.44 1.71l-.28.84c-.6 1.65-1.44 3.18-2.47 4.56a18.3 18.3 0 0 1-1.69 1.95c-.61.61-1.26 1.17-1.95 1.69l-1.42.97h-.01c-.49.3-.99.57-1.51.83h-.01c-.78.38-1.6.7-2.43.96h-.01c-.56.17-1.13.32-1.71.44-1.17.24-2.38.36-3.62.36h-88.43c-1.31 0-2.58-.14-3.81-.41l-.61-.14-.67-.18c-.93-.28-1.82-.62-2.68-1.03l-1.25-.67-.56-.34-1.14-.79c-1.15-.86-2.19-1.86-3.1-2.96l-1.03-1.38c-.48-.72-.91-1.47-1.29-2.25a17.1 17.1 0 0 1-1.2-3.29h0a17.9 17.9 0 0 1-.57-4.48V186.75c0-9.89 8.02-17.94 17.92-17.94h88.43c9.9 0 17.91 8.04 17.91 17.94z" class="E"/><path d="M900.53 186.75v215.88c0 .95-.09 1.91-.28 2.84-.08.42-.19.84-.33 1.29l-.26.76a13.5 13.5 0 0 1-1.9 3.48 13.7 13.7 0 0 1-1.33 1.53 13.8 13.8 0 0 1-1.53 1.33l-.96.65-.15.09-.95.54-.23.1c-.54.27-1.11.5-1.69.69l-.2.06-1.32.35a15 15 0 0 1-2.84.28h-88.43c-1 0-2-.1-2.97-.32l-.98-.24a14.3 14.3 0 0 1-2.12-.82l-.95-.51-.4-.24-.09-.06-.86-.59c-.87-.66-1.69-1.44-2.42-2.33l-.8-1.06c-.39-.58-.72-1.18-1.01-1.77a13.5 13.5 0 0 1-.89-2.36l-.06-.21c-.29-1.14-.44-2.32-.44-3.5V186.75a14 14 0 0 1 13.98-13.99h88.43a14 14 0 0 1 12.98 8.83 13.9 13.9 0 0 1 .99 5.16z" class="B"/><g class="E"><path d="M904.47 241.42v-25.49a3.6 3.6 0 0 1 3.59 3.6v18.29a3.6 3.6 0 0 1-3.59 3.6zm-124.21-12.75H782v-12.75h-1.74c-1.02 0-1.86.83-1.86 1.86v9.03c0 1.03.83 1.86 1.86 1.86zm0 15.38H782V231.3h-1.74c-1.02 0-1.86.83-1.86 1.86v9.03c0 1.03.83 1.86 1.86 1.86z"/></g><g fill="#ecf5ff"><path opacity=".3" d="M867.13 172.53l-83.32 127.75v-62.81l42.36-64.94h40.97zm25.54 8.33l-108.86 166.9v-29.1l95.31-146.13h1.31a13.2 13.2 0 0 1 12.25 8.33zm.94 74.28l-96.16 147.45h18.98l77.18-118.34v-29.11z"/></g><path d="M855.5 178.15h-26.3a8 8 0 0 1-8.01-8.02h42.32a8 8 0 0 1-8.01 8.02z" class="E"/><rect x="726.92" y="183.23" width="116.04" height="54.29" rx="5.17" stroke-width=".34" class="B N"/><path stroke="#e0e0e0" stroke-width=".31" d="M726.75 204.28h115.86"/><path d="M736.75 190.31h2.12c.44 0 .81.07 1.12.2s.56.32.73.58.25.57.25.94c0 .31-.05.57-.16.79s-.25.4-.43.54-.4.26-.65.34l-.37.19h-1.85l-.01-.91h1.37c.21 0 .38-.04.51-.11s.24-.17.31-.3.11-.28.11-.45c0-.18-.03-.34-.1-.47s-.17-.23-.31-.31-.31-.1-.52-.1h-.95V196h-1.17v-5.69zm3.18 5.69l-1.3-2.54 1.24-.01 1.31 2.49v.05h-1.25zm3.82.08c-.33 0-.62-.05-.88-.16s-.48-.25-.66-.44-.32-.41-.41-.65-.15-.51-.15-.8v-.16a2.7 2.7 0 0 1 .14-.88c.09-.26.22-.5.39-.69a1.7 1.7 0 0 1 .63-.45c.25-.11.52-.16.83-.16.3 0 .56.05.8.15s.43.24.58.42.28.4.36.66.12.53.12.84v.47h-3.36v-.75h2.25v-.09c0-.16-.03-.3-.09-.42s-.14-.22-.25-.3-.25-.11-.43-.11c-.15 0-.28.03-.38.1s-.19.16-.26.27-.11.25-.15.41-.05.33-.05.52v.16a1.5 1.5 0 0 0 .07.47c.05.14.12.27.21.37s.2.19.33.24.28.09.44.09c.2 0 .39-.04.57-.12s.33-.2.46-.36l.55.59c-.09.13-.21.25-.36.37s-.33.21-.55.29-.46.11-.73.11zm3.76-.9l.94-3.41h1.18l-1.43 4.23h-.71l.02-.82zm-.64-3.41l.94 3.41.02.82h-.71l-1.43-4.23h1.18zm4.45 0V196h-1.13v-4.23h1.13zm-1.2-1.1c0-.16.06-.3.17-.41s.27-.16.46-.16.34.05.46.16.18.24.18.41-.06.3-.18.41-.27.16-.46.16-.35-.05-.46-.16-.17-.24-.17-.41zm4.08 5.41c-.33 0-.62-.05-.88-.16s-.48-.25-.66-.44-.32-.41-.41-.65-.14-.51-.14-.8v-.16a2.7 2.7 0 0 1 .14-.88c.09-.26.22-.5.39-.69a1.7 1.7 0 0 1 .63-.45c.25-.11.52-.16.83-.16.3 0 .56.05.8.15s.43.24.58.42.28.4.36.66.12.53.12.84v.47h-3.36v-.75h2.25v-.09c0-.16-.03-.3-.09-.42s-.14-.22-.25-.3-.25-.11-.43-.11c-.15 0-.28.03-.38.1s-.19.16-.26.27-.12.25-.15.41-.05.33-.05.52v.16a1.5 1.5 0 0 0 .07.47c.05.14.12.27.21.37s.2.19.33.24.28.09.44.09c.2 0 .39-.04.57-.12s.33-.2.46-.36l.55.59c-.09.13-.21.25-.36.37s-.33.21-.55.29-.46.11-.73.11zm3.58-1.17l.88-3.13h.72l-.23 1.23-.88 3h-.6l.11-1.09zm-.45-3.13l.63 3.13.06 1.1h-.7l-1.07-4.23h1.09zm2.84 3.08l.61-3.08h1.09l-1.07 4.23h-.7l.07-1.15zm-.71-3.08l.88 3.11.12 1.12h-.6l-.88-2.99-.22-1.23h.71z" fill="#29363c"/><path d="M823.33 215.47l-5.73.89 4.21 3.88-.9 5.57 5.1-2.7 5.18 2.55-1.07-5.54 4.1-4-5.76-.73-2.64-5.02-2.49 5.09z" fill="#e1efff"/><g class="E"><path d="M802.54 215.47l-5.73.89 4.22 3.88-.9 5.57 5.1-2.7 5.18 2.55-1.07-5.54 4.1-4-5.76-.73-2.64-5.02-2.49 5.09zm-20.18 0l-5.73.89 4.22 3.88-.9 5.57 5.1-2.7 5.18 2.55-1.06-5.54 4.1-4-5.76-.73-2.65-5.02-2.49 5.09zm-22.29 4.78l-.91 5.57 4.91-2.58.19-.1 5.17 2.55-1.05-5.55 4.09-3.99-5.75-.73-2.65-5.03-2.5 5.09-5.73.9 4.23 3.87zm-18.68-4.78l-5.73.89 4.22 3.88-.9 5.57 5.1-2.7 5.18 2.55-1.06-5.54 4.1-4-5.75-.73-2.65-5.02-2.49 5.09z"/></g><rect x="843.29" y="294.86" width="116.04" height="54.29" rx="5.17" stroke-width=".34" class="B N"/><path stroke="#e0e0e0" stroke-width=".31" d="M843.12 315.91h115.86"/><path d="M853.13 301.94h2.12c.44 0 .81.06 1.12.19s.56.32.73.58.25.57.25.94c0 .31-.05.57-.16.79s-.25.4-.43.54-.4.26-.65.34l-.37.19h-1.85l-.01-.91h1.37c.21 0 .38-.04.51-.11s.24-.17.31-.3.11-.28.11-.45c0-.18-.03-.34-.1-.47s-.17-.23-.31-.3-.31-.11-.52-.11h-.95v4.77h-1.17v-5.69zm3.18 5.69l-1.3-2.54 1.24-.01 1.31 2.49v.06h-1.25zm3.82.08c-.33 0-.62-.05-.88-.16s-.48-.25-.66-.44-.32-.41-.41-.65a2.2 2.2 0 0 1-.15-.8v-.16a2.7 2.7 0 0 1 .14-.88c.09-.27.22-.5.39-.69s.38-.34.63-.45.52-.16.83-.16c.3 0 .56.05.8.15s.43.24.58.42.28.4.36.66.12.53.12.84v.47h-3.36v-.75h2.25v-.09c0-.16-.03-.3-.09-.42s-.14-.22-.25-.3-.25-.11-.43-.11c-.15 0-.28.03-.38.1s-.19.16-.26.27-.11.25-.15.41-.05.33-.05.52v.16a1.5 1.5 0 0 0 .07.47c.05.14.12.27.21.37s.2.18.33.24.28.09.44.09c.2 0 .39-.04.57-.12s.33-.2.46-.36l.55.59c-.09.13-.21.25-.36.37s-.33.21-.55.29-.46.11-.73.11zm3.76-.9l.94-3.41h1.18l-1.43 4.23h-.71l.02-.82zm-.64-3.41l.94 3.41.02.82h-.71l-1.43-4.23h1.18zm4.45 0v4.23h-1.13v-4.23h1.13zm-1.2-1.1c0-.16.06-.3.17-.41s.27-.16.46-.16.34.05.46.16.18.24.18.41-.06.3-.18.41-.27.16-.46.16-.35-.05-.46-.16-.17-.24-.17-.41zm4.08 5.41c-.33 0-.62-.05-.88-.16s-.48-.25-.66-.44-.32-.41-.41-.65a2.2 2.2 0 0 1-.14-.8v-.16a2.7 2.7 0 0 1 .14-.88c.09-.27.22-.5.39-.69s.38-.34.63-.45.52-.16.83-.16c.3 0 .56.05.8.15s.43.24.58.42.28.4.36.66.12.53.12.84v.47h-3.36v-.75h2.25v-.09c0-.16-.03-.3-.09-.42s-.14-.22-.25-.3-.25-.11-.43-.11c-.15 0-.28.03-.38.1s-.19.16-.26.27-.12.25-.15.41-.05.33-.05.52v.16a1.5 1.5 0 0 0 .07.47c.05.14.12.27.21.37s.2.18.33.24.28.09.44.09c.2 0 .39-.04.57-.12s.33-.2.46-.36l.55.59c-.09.13-.21.25-.36.37s-.33.21-.55.29-.46.11-.73.11zm3.58-1.17l.88-3.13h.72l-.23 1.23-.88 3h-.6l.11-1.09zm-.45-3.13l.63 3.13.06 1.1h-.7l-1.07-4.23h1.09zm2.84 3.08l.61-3.08h1.09l-1.07 4.23h-.7l.07-1.15zm-.71-3.08l.88 3.11.12 1.12h-.6l-.88-2.99-.22-1.23h.71z" fill="#29363c"/><use href="#T" fill="#e1efff"/><g class="E"><path d="M918.92 327.1l-5.73.89 4.22 3.88-.9 5.57 5.1-2.7 5.18 2.55-1.07-5.55 4.1-4-5.76-.73-2.64-5.02-2.49 5.1z"/><use href="#U"/><path d="M876.44 331.87l-.91 5.57 4.91-2.58.19-.1 5.17 2.55-1.05-5.55 4.09-3.99-5.75-.73-2.65-5.03-2.5 5.1-5.73.9 4.23 3.87zm-18.68-4.77l-5.73.89 4.22 3.88-.9 5.57 5.1-2.7 5.18 2.55-1.06-5.55 4.1-4-5.75-.73-2.65-5.02-2.49 5.1z"/></g><path d="M977.58 383.79c-1.68-.16-4.6-.72-6.18-.12l-3.51.72c-.06 1.91.51 2.5 1.61 3.25 1.22.82 3.22.85 4.54.69 3.46-.42 5.6-1.84 8.83-2.76l.23-1.28c-1.79-.04-3.69-.32-5.52-.5z" class="D"/><g class="C"><path d="M971.17 373.98c-.07 1.08-.88 2.06-1.33 3.04-.53 1.16-.91 2.47-1.29 3.7-.5 1.63-1.21 4.11-.31 5.66 2.33 4 6.36-4.58 7.28-6.24l.5-.89-4.86-5.26zm20.29-2.6c.94 3.02 1.13 13.52-.13 15.1-3.23 4.08-5.09-6.87-5.59-9.02-.09-.38-.16-.83-.28-1.15l6-4.93z"/></g><path d="M992.36 374.82a20.8 20.8 0 0 0-1.2-4.63c-.58-1.52-1.87-3.58-3.3-4.07l.73 14.53h.44c.83 0 1.5-.12 2.28-.34.84-.23 1.19-.19 1.34-.94.28-1.39-.1-3.21-.29-4.56z" fill="#8e0e3f"/><path d="M981.9 445.61l-.08.34c-1.43 5.78-2.81 11-1.8 17.4-1.16.06-4.57.82-5.27.05 1.11-3.47 2.34-3.71 2.15-7.66-.18-3.76-.75-8.95-1.22-13.75-.26-2.66-.48-5.19-.58-7.3-.15-3.11-.57-6.19-.84-9.3-.18-2.02.37-6.91-.88-8.41l8.96-3.22c-.8 1.89-.19 5.19-.52 7.37-.38 2.5-.62 5.14-.35 7.65.32 2.94 1.24 5.58 1.4 8.59.14 2.76-.34 5.62-.97 8.25z" class="C"/><path d="M981.82 445.94c-1.43 5.78-2.81 11-1.8 17.4-1.16.06-4.57.82-5.27.05 1.11-3.47 2.35-3.71 2.15-7.66-.18-3.76-.75-8.95-1.22-13.75 1.86 1.8 4.09 3.42 6.22 3.63l-.08.34z" class="D"/><path d="M980.62 464.94a14.2 14.2 0 0 0-.94-2.82c-.59-.82-1.13-.85-2.08-.38-1.38.68-2.62 2.49-1.99-.42a14.7 14.7 0 0 0-1.71 1.25l-2.39 2.03v.7c1.77.52 6.97.43 9.14.19 0 0 .11.19-.03-.56z" class="B"/><path d="M980.62 464.94c-2.37.26-7.95.42-9.11-.28.29-.62 1.48-1.73 2.57-2.63a14.7 14.7 0 0 1 1.71-1.25c-.63 2.9.62 1.1 1.99.42.95-.47 1.5-.44 2.08.38.19.26.38 1.14.53 1.93l.23 1.43z" fill="#e2bc50"/><use href="#V" fill="#cea338"/><path d="M990.08 445.61l-.08.34c-1.43 5.78-2.81 11-1.8 17.4-1.16.06-4.57.82-5.27.05 1.11-3.47 2.34-3.71 2.15-7.66-.18-3.76-.75-8.95-1.21-13.75a161 161 0 0 1-.58-7.3c-.15-3.11-.57-6.19-.84-9.3-.18-2.02.37-6.91-.88-8.41l8.96-3.22c-.8 1.89-.19 5.19-.52 7.37-.38 2.5-.62 5.14-.35 7.65.32 2.94 1.24 5.58 1.4 8.59.14 2.76-.34 5.62-.97 8.25z" class="C"/><path d="M990 445.94c-1.43 5.78-2.81 11-1.8 17.4-1.16.06-4.57.82-5.27.05 1.1-3.47 2.34-3.71 2.15-7.66-.18-3.76-.75-8.95-1.21-13.75 1.86 1.8 4.09 3.42 6.22 3.63l-.08.34z" class="D"/><path d="M988.8 464.94a14.2 14.2 0 0 0-.94-2.82c-.59-.82-1.13-.85-2.08-.38-1.38.68-2.63 2.49-1.99-.42-.35.2-1.01.67-1.71 1.25l-2.39 2.03v.7c1.77.52 6.97.43 9.14.19 0 0 .11.19-.03-.56z" class="B"/><path d="M988.8 464.94c-2.37.26-7.95.42-9.11-.28.29-.62 1.48-1.73 2.57-2.63a14.6 14.6 0 0 1 1.71-1.25c-.63 2.9.62 1.1 1.99.42.95-.47 1.5-.44 2.08.38.19.26.38 1.14.53 1.93l.23 1.43z" fill="#e2bc50"/><path d="M988.8 464.94c-2.37.26-7.95.42-9.11-.28.29-.62 1.48-1.73 2.57-2.63.06.8.52 1.48 1.88 1.8a8.2 8.2 0 0 0 4.43-.32l.23 1.43z" fill="#cea338"/><path d="M987.25 368.47c-.54.58-2.4.83-3.15.94l-.56.09c-.97.15-2.02.31-2.94.23.18-1.4.73-2.63.53-4.17-.23-1.81-1.37-2.26-2.79-2.76l4.31-1.64 3.6-1.36c.81 1.32 1.08 2.65 1.24 4.18.11 1.04.56 3.63-.25 4.49z" class="C"/><path d="M982.23 364.91c-.68.23-1.8.45-2.34.93-.55.49-.54 1.13-.82 1.67l8.47-.18c.26-4.11-3.96-2.87-5.3-2.41z" class="B"/><path d="M995.12 432.1c-6.33 2.19-6.95 1.86-10.71 2.28-6.47.73-10.07-.59-14.07-1.95-2.27-9.46.06-28.89 1.64-36.4.03-.3.1-.6.2-.9.84-2.44 2.11-7.83 2.66-11.1.19-1.13.33-1.71.5-2.22.03-.08.05-.15.08-.23.12-.31-.88 1.56-1.41 1.53-1.1-.07-2.76-.44-3.96-1.16-.79-.47-1.38-1.08-1.48-1.85-.03-.24-.02-.5.05-.77 1.95-7.44 8.65-13.3 16.26-13.25l2.96.02c.64.36 7.32 2.19 2.26 17.93-.58 1.81-.75 4.19-.85 6.66a48.5 48.5 0 0 0-.03.94l.09-.02.44 1.29c3.52 10.48 5.42 35.62 5.36 39.17z" fill="#dd2c67"/><g fill="#8e0e3f"><path d="M975.44 381.59c.12-.31-.88 1.56-1.41 1.53-1.82-.12-5.18-1.06-5.44-3a10.7 10.7 0 0 0 2.12 1c1.47.51 2.04.6 3.2-.34 2-1.62 3.1-4.29 3.87-6.14.01 2.57-1.07 4.93-2.43 7.19l.08-.23z"/><path d="M976.25 427.62c-2.79-4.9-3.16-11.3-3.16-16.66 0-6.69 1.03-13.25 2.13-19.86l2.2-14c.12-1.08-2.72 4.7-4.58 5.86a9.3 9.3 0 0 0 1.18.16c.53.03 1.52-1.84 1.41-1.53-.03.08-.06.15-.08.23-.18.51-.31 1.09-.5 2.22-.55 3.27-1.82 8.66-2.66 11.1a4.3 4.3 0 0 0-.2.9c-1.59 7.51-3.92 26.93-1.64 36.4 4 1.36 7.61 2.68 14.07 1.95-3.63-1.32-6.35-3.56-8.16-6.76z"/><path d="M989.77 392.92c-2.16.5-4.31.86-6.72.85-3.18-.01-6.16-.43-9.11-.79-.09-.61-.16-1.23-.35-1.79 1.82.9 5.77.98 7.89.86 1.72-.09 5.28-.49 7.79-1.35l-.03.94.09-.02.44 1.29zm-3.65-25.29l.12.06c.04.02.09.05.13.08s.11.08.17.14a2.8 2.8 0 0 1 .37.43c.13.18.25.38.36.61.12.23.22.49.32.77l.27.88.22.95.16.99.11 1 .06.97a17.2 17.2 0 0 1-.01 1.72c-.03.5-.09.92-.14 1.21a3 3 0 0 1-.08.33l-.03.12.01-.12.03-.34c.02-.29.02-.71.01-1.2l-.03-.8-.06-.9-.09-.96-.12-.99-.15-.98-.19-.94-.22-.87-.26-.77-.07-.17-.07-.16c-.04-.11-.1-.2-.15-.29a2.7 2.7 0 0 0-.31-.44 1.9 1.9 0 0 0-.26-.25l-.11-.08z"/></g><path d="M976.97 358.21c-.38.28-1.63-.05-1.74-.55-.02-.07-.01-.15.03-.23.16-.32.68-.55.92-.84.25-.3.56-.8.69-1.04l.07 2.11.02.55z" class="C"/><path d="M976.97 358.21c-.38.28-1.63-.05-1.74-.55.31.14.82.13 1.03.13a2.1 2.1 0 0 0 .68-.13l.02.55z" class="D"/><path d="M988.14 356.08c-.39 1.48-1.26 2.84-2.41 4l-.31.31-.3.27c-1.9 1.68-4.36 2.83-6.58 3.11-.63.08-.86.13-1.03.03h0c-.12-.06-.21-.19-.37-.43-1.03-1.41-1.35-3.9-.76-6.65.09-.42.31-.86.5-1.28.12-.25.22-.49.29-.71l.04-.16c.2-.96.1-2.67.08-3.21l8.34-.98c2.34 1.34 3.31 2.71 2.52 5.71z" class="C"/><path d="M985.73 360.08l-.31.31-.3.27a12.9 12.9 0 0 1-6.58 3.11c-.63.08-.86.13-1.03.03a68.6 68.6 0 0 0 6.46-3.83c.05.04 1.19.02 1.76.1z" class="D"/><path d="M978.39 354.26c-.31-.47-.83-.82-1.17-.62v.53c.38-.01 1.24.36 1.15 1.28.49.04.17-.97.02-1.2z" class="G"/><path d="M978.16 355.16c-.15.24-.34.34-.53.36-.25.03-.51-.05-.75-.1l.25-.72.58.2a1.5 1.5 0 0 1 .45.25z" class="B"/><path d="M977.67 355.37c-.01.06-.03.11-.05.16-.25.03-.51-.05-.75-.1l.25-.72.58.2c.01.14 0 .29-.04.45z" class="G"/><path d="M992.18 357.5c-.75 2.47-2.95 3.5-4.88 5.89.32.81.49 1.74.54 2.73.19 3.15-.75 6.86-1.6 9.08a16.5 16.5 0 0 1-2.77 4.66l-4.73 5.26c-.49-1.74-.12-3.76-.3-5.44-.34.96-1.03 1.61-1.32 2.62-1.24-2.97-1-6.6.31-9.45l.08-.18c.49-1.02 1.05-1.95 1.67-2.84l1.36-1.76a20.6 20.6 0 0 0 1.37-1.93 20.9 20.9 0 0 0 1.12-1.97 7.4 7.4 0 0 0 .57-1.5c-2.41-1.68-3.14-3.69-3.07-6.53.03-.93.39-1.54.04-2.85-.16-.61-1.22-1-1.7-1.29-.35-.21-1.24-.57-1.82-.5a5.7 5.7 0 0 1 1.21-2.71c1.17-1.32 3.15-1.72 6.39-1.85 0 0 7.51.24 7.8 8.28.03.89-.07 1.64-.27 2.29z" fill="#99473b"/><path d="M987.31 363.39c.32.81.49 1.74.54 2.73-.61.17-1.23.26-1.84.28-1.29.03-2.72-.01-4.09-.26a13.3 13.3 0 0 0 1.69-3.47c-2.41-1.68-3.15-3.69-3.07-6.53.02-.93.39-1.54.04-2.85-.16-.61-1.22-1-1.7-1.29-.35-.21-1.24-.57-1.82-.5.24-1.18.63-2.06 1.21-2.71.38.52 1.2.75 1.88 1.03 1.1.46 2.3.99 2.72 2.18.33.92.04 1.68.12 2.55.89-.52 1.6-1.3 1.5-2.33 1 .7 1.06 2.14.84 3.23-.19.96-1.15 2.48-.65 3.36.67 1.19 2.22.78 3.11.06.43-.35.85-.84 1.09-1.32.22-.44.15-1.32.57-1.57.42.49.36 1.11.62 1.65.33.7.69.49 1.47.2.26-.09.48-.2.67-.32-.75 2.46-2.95 3.5-4.87 5.89z" fill="#823830"/><path d="M982.49 357.37c.22-.5.58-1.59-.36-1.82-.69-.17-1.49.64-1.73 1.15l-.27.61c-.22.67.08 1.77.96 1.57.71-.16 1.13-.9 1.39-1.5z" class="C"/><g class="D"><path d="M980.51 357.61l-.1-.11c.03.05.06.09.1.11z"/><path d="M980.87 356.56c.7.41.01 1.32-.37 1.04.22.26.59.69.99.26.46-.49.1-1.13-.32-1.31.48-.27 1.17-.27 1.02.5.5-1.38-.61-1.41-1.32-.5z"/></g><path d="M983.48 379.87l-4.73 5.26c-.49-1.74-.12-3.76-.3-5.44-.34.96-1.03 1.61-1.32 2.62-1.24-2.97-1-6.59.31-9.45l1.75-3.02 1.36-1.76a20.2 20.2 0 0 0 1.37-1.93 21 21 0 0 0 1.12-1.98l2.47.89c.41.72-3.01 4.34-3.63 5.23a14.8 14.8 0 0 0-2.51 6.18c.5-.47 1.21-.96 1.57-1.61v2.9c-.07.92-.59 1.82.27 2.25.66.33 1.47.21 2.28-.14z" fill="#823830"/><path d="M988.18 364.5l-.09.24c-1.25-.13-4.13-.2-4.79-1.35l-.18-.77 1.47.06c1.34.05 2.71 0 3.99-.45.18.97-.09 1.48-.4 2.26z" fill="#892745"/><path d="M988.18 364.5l-.09.24c-1.25-.14-4.13-.2-4.79-1.35l-.18-.77 1.47.06c0 .01 0 .02.01.03.26.75 2.13.71 2.72.74-.33.13-.8.07-1.08.32.2.49 1.14.72 1.93.72z" fill="#59172f"/><path d="M768.13 421.82c-.36-2.42-1.29-6.62-.82-8.97l.38-5.17c2.05-.25 2.75.52 3.69 2.07 1.03 1.69 1.28 4.6 1.25 6.53-.06 5.06-1.62 8.43-2.25 13.2-.45.17-.62.23-1.09.31-.24-2.6-.76-5.34-1.15-7.98z" class="C"/><g class="D"><path d="M769.62 429.72c.23.64.18 1.47-.1 2 .36.04.74.1 1.05.27.23-.33.55-.64.99-.48.02.91-.87 1.41-1.74 1.26-1.06-.19-1.15-.95-1.47-1.81l-.35-.9 1.62-.34z"/><path d="M769.16 430.93c-.04.15-.09.29-.16.42.36.04.74.1 1.05.27.23-.33.56-.64.99-.48.02.91-.88 1.41-1.74 1.26-.81-.15-.9-1.45-1.11-2.05l.97.58z"/><path d="M770.2 428.16c.65.87.68 2.16.99 3.29.27.97-.43.86-.89.2-.34-.48-.68-1.24-.88-1.7l.78-1.8z"/></g><path d="M768.08 429.16c.21-.71.77-1.75.78-2.74l1.39 1.44a8.5 8.5 0 0 1-.58 4.57 2.9 2.9 0 0 1 1.05.27c.23-.33.56-.64.99-.48.02.91-.88 1.41-1.74 1.26-1.06-.19-1.15-.95-1.46-1.81-.34-.93-.73-1.51-.42-2.52z" class="C"/><g class="D"><path d="M769.74 412.07c-.02-.01-.02-.01 0 0z"/><path d="M771.32 411.91s-.31.81-.7.85c-.44.04-.65-.36-.88-.69.4.32 1.22.14 1.58-.16z"/></g><g class="C"><path d="M771.2 387.32c-.87 2.79-1.04 12.51.12 13.98 2.99 3.78 4.71-6.36 5.18-8.35.08-.35.15-.77.26-1.07l-5.55-4.56zm7.01 53.54c-1.22 1.33-.96 5.87-1.22 7.73l-1.22 8.56-.89 6.72c-.6 4.05-1.31 8.41-1.69 11.78l-.09.87c-.37 3.64.77 3.93 1.62 7.19-.68.68-3.8-.19-4.87-.3a27.1 27.1 0 0 0 .49-7.71c-.2-2.82-.76-5.57-1.32-8.46l-.06-.32c-.46-2.46-.76-5.13-.5-7.67.29-2.77 1.27-5.16 1.7-7.87.37-2.31 1.17-6.18.94-8.51-.2-2.03-.63-11.3.66-14.46l6.45 12.47z"/></g><path d="M769.29 485.04c.14-.73.71-2.36.88-2.61.55-.76 1.05-.78 1.93-.34 1.27.64 2.42 2.32 1.85-.37.32.18.93.63 1.57 1.16l2.21 1.89v.65c-1.65.47-6.46.36-8.46.13 0 0-.1.18.03-.52z" class="B"/><path d="M769.29 485.04c2.2.26 7.35.43 8.44-.21-.26-.57-1.36-1.61-2.37-2.44a13.7 13.7 0 0 0-1.57-1.16c.57 2.69-.58 1.01-1.85.37-.88-.44-1.38-.42-1.93.34a6.7 6.7 0 0 0-.5 1.78l-.22 1.32z" fill="#af5354"/><path d="M769.29 485.04c2.2.26 7.35.43 8.44-.21-.26-.57-1.36-1.61-2.37-2.44-.06.74-.49 1.37-1.75 1.65a7.6 7.6 0 0 1-4.1-.32l-.22 1.32z" fill="#722a2e"/><path d="M777.24 450.72c-.4 2.87-.3 4.03-.59 6.9l-.93 6.62c-.6 4.05-2.14 8.04-2.52 11.41l-2.86.05c-.2-2.82-.76-5.57-1.32-8.46-.02-.11-.04-.21-.06-.32a27.3 27.3 0 0 1-.5-7.67c.29-2.77 1.27-5.16 1.7-7.87.37-2.31.25-15.81.02-18.14-.05-.49-.49-1.81-.96-3.18 0-.02-.01-.03-.01-.04l-.5-1.45-.34-1.02c-.81-2.53-.25-5.45 2.39-9.5.02-.04.05-.08.07-.11l.39-.58 7.58 1.08 2.71.39c1.05 14.16-4.01 30.04-4.27 31.9z" fill="#146f84"/><path d="M776.21 424.85c-.29 5.59-7.35 4.17-7.51 3.71l-.34-1.02c-.81-2.53-.25-5.45 2.39-9.5l.08-.11 5.64 4.36c.04.88-.22 1.71-.26 2.56z" fill="#238cad"/><path d="M787.21 440.63c-1.08 1.45-.35 5.94-.41 7.81l-.33 8.64-.19 6.78-.46 11.89v.87c.01 3.66 1.17 3.82 2.36 6.98-.61.75-3.8.22-4.88.22a27.1 27.1 0 0 0-.31-7.72c-.5-2.79-1.33-5.46-2.18-8.27l-.09-.31a27.3 27.3 0 0 1-1.29-7.57c0-2.79.73-5.27.88-8 .13-2.34.52-6.27.05-8.57-.41-2-1.79-11.17-.84-14.45l7.7 11.71z" class="C"/><path d="M782.8 485.32a13.2 13.2 0 0 1 .73-2.65c.5-.79 1.01-.84 1.91-.45 1.31.56 2.55 2.17 1.82-.48.34.17.97.57 1.64 1.07l2.31 1.76.03.65c-1.62.57-6.42.74-8.44.63 0 0-.09.18 0-.52z" class="B"/><path d="M782.81 485.32c2.21.12 7.37-.01 8.41-.71-.29-.56-1.45-1.53-2.5-2.3a13.5 13.5 0 0 0-1.64-1.07c.73 2.65-.52 1.04-1.82.48-.9-.39-1.4-.34-1.91.45-.16.25-.3 1.07-.4 1.81l-.14 1.33z" fill="#af5354"/><path d="M782.81 485.33c2.21.12 7.37 0 8.41-.71-.29-.55-1.45-1.53-2.5-2.3-.02.74-.41 1.4-1.65 1.76a7.6 7.6 0 0 1-4.11-.08l-.14 1.33z" fill="#722a2e"/><path d="M788.22 418.35c2.51 13.96-.89 30.3-.96 32.18-.1 2.89.11 4.04.12 6.92 0 1.95-.13 4.21-.24 6.68-.18 4.1-1.3 8.22-1.33 11.61l-2.84.35c-.5-2.79-1.33-5.46-2.18-8.27l-.09-.31a27.3 27.3 0 0 1-1.29-7.57c0-2.79.73-5.27.88-8 .13-2.34-1.39-15.75-1.86-18.04-.17-.81-3.77-4.52-4.54-6.25-1.13-2.57-1.61-5.85.95-10.56l13.37 1.28z" fill="#238cad"/><path d="M789.52 425.4c-5.61 3.04-10.6 3.23-15.51 2.67-1.08-.12-5.85-1.46-6.09-2.43.13-.33.25-1.61.36-3.51l.04-.69.27-5.86.47-11.39.03-.66.27-5.15.31-4.39c.29-3.45.66-5.91 1.12-6.39.54-.56 1.78-.93 3.29-1.17 2.56-.4 5.91-.43 8.01-.39l1.99.06a5.5 5.5 0 0 1 2.23.46c1.32.66 1.47 1.95 1.3 3.58-.18 1.79-.72 3.97-.49 6.13 1.06 9.76.8 23.49 2.39 29.14z" fill="#ff1515"/><g class="C"><path d="M774.49 386.3c0 1 1.22 5.77 8.48.85-1.79-.73-1.75-6.9-.54-7.59l-2.76-.23-3.5-.64c-.52 1.34-.56 2.59-.46 4.02.06.97-1.21 2.49-1.21 3.59zm9.87-10.61c.39.19 1.48-.31 1.49-.79 0-.07-.02-.14-.07-.21-.2-.26-.71-.39-.97-.61a8.6 8.6 0 0 1-.8-.83l.28 1.93.07.5z"/></g><path d="M784.36 375.69c.39.19 1.48-.31 1.49-.79-.26.18-.72.26-.92.29-.22.03-.44.04-.64 0l.07.5z" class="D"/><path d="M773.83 375.62c.59 1.28 1.61 2.38 2.84 3.24l.34.23.31.2a11.9 11.9 0 0 0 6.49 1.74c.58-.03.8-.02.94-.14h0c.1-.08.16-.21.27-.45.71-1.46.61-3.77-.38-6.19-.15-.37-.42-.73-.66-1.08-.14-.21-.28-.41-.37-.6-.02-.05-.05-.1-.06-.14-.34-.85-.51-2.41-.59-2.91l-7.76.49c-1.92 1.61-2.58 3.02-1.38 5.62z" class="C"/><path d="M776.68 378.86l.33.23.32.2a11.9 11.9 0 0 0 6.49 1.74c.59-.03.8-.02.95-.14a63.4 63.4 0 0 1-6.51-2.41c-.04.04-1.08.22-1.58.39z" class="D"/><path d="M782.43 372.34c.21-.48.63-.89.97-.76l.08.49c-.35.05-1.07.53-.84 1.36-.44.12-.31-.86-.21-1.09z" class="G"/><path d="M782.79 373.12c.18.2.36.25.54.24.23-.01.46-.13.67-.21l-.34-.61-.5.28c-.15.09-.28.19-.37.3z" class="B"/><path d="M783.27 373.22l.07.14c.23-.01.46-.13.67-.21l-.34-.61-.5.28c.01.13.05.27.11.4z" class="G"/><path d="M789.64 425.46c-5.61 3.03-10.6 3.23-15.52 2.67-1.07-.12-6.21-.73-6.57-2.91.15-.37 0-2.19.88-3.72 3.84 2.19 8.06 3.52 12.56 1.76 5.28-2.06 2.67-6.48 2.68-11.65 0-.39-.72-4.13-1.07-8.86-.32-4.25.94-5 .83-6.68-.31-4.7 2.27-3.68 4.31-5.89-.18 1.79-.72 3.97-.49 6.13l.17 1.7c.22 2.44.38 5.07.51 7.72.39 7.78.59 15.75 1.71 19.73z" fill="#ba0404"/><g class="O"><path d="M786.33 386.54c-1.07.73-2.62 2.28-4.57 5.53-1.12 1.87-1.6 4.07-2.01 6.23l-.13.71-.78 3.58-1.22-.36-1.87-.56a35.5 35.5 0 0 0 .7-3.27l.37-1.91.66-2.64a16.3 16.3 0 0 1 1.52-3.5 29.1 29.1 0 0 1 3.1-4.35l1.99.06a5.3 5.3 0 0 1 2.23.46zm-16.2 12.06l-3.09-.92a35.6 35.6 0 0 0 .7-3.27c.47-2.55 1-5.45 2.56-8.04 2.82-4.71 5.6-7.3 8.26-7.7l.47 3.24c-.76.11-2.85.94-5.98 6.16-1.25 2.08-1.7 4.55-2.14 6.94a38.1 38.1 0 0 1-.78 3.59z"/></g><path d="M780.24 404.24c.33 6.35.5 14.43-5.64 17.1-5.37 2.33-12.66.46-12.2-6.78l.03-.51c1.34-19.44 8.55-20.74 8.93-20.8 1.46-.23 3.02-.54 4.44-.19a4.5 4.5 0 0 1 2.57 1.74c1.76 2.31 1.72 6.56 1.87 9.45z" fill="#3a3a3a"/><path d="M780.24 404.24c.33 6.35.5 14.43-5.64 17.09-5.37 2.33-12.66.46-12.2-6.78l.03-.51c.04.03.08.05.12.07 5.3 2.91 11.83 1.59 14.22-4.62.34-.9.96-3.12.53-4.12-.52-1.23-9.85-1.59-12.17-.69 1.72-1.14 10.35-2.23 12.54-1.89-.12-2.14-.59-6.58-1.86-9.74.93.23 1.81.74 2.57 1.74 1.76 2.31 1.72 6.56 1.87 9.45z" class="O"/><path d="M783.67 369c-1.06.9-2.36 1.33-3.06 2.92a6.7 6.7 0 0 0-.58 4.03c.21 1.53.5 13.1.54 13.27-1.12.73-8.96-.98-10.38-.91.38-2.35-.29-6.06-.51-9.43a20.2 20.2 0 0 1 .02-3.73c.33-2.75 2.65-5.8 4.97-7.24 1.67-1.04 4.96-.79 5.89-.62.57.1 1.03.22 1.41.35.23.08.43.16.6.24 1.14.54 1.11 1.13 1.11 1.13z" class="G"/><path d="M783.67 369c-1.06.9-2.36 1.33-3.06 2.92a6.7 6.7 0 0 0-.58 4.03c.21 1.53.5 13.1.54 13.27-.6.39-3.84.72-6.27.36a10.3 10.3 0 0 1-4.12-1.27c.38-2.35-.29-6.06-.51-9.44a4.9 4.9 0 0 0 1.37.56c3.43.84 4.5-1.49 5.05-4.23.6-3.03 2.96-6 5.87-7.56.23.08.43.16.6.24 1.14.54 1.11 1.13 1.11 1.13z" fill="#4c312f"/><path d="M778.59 377.19c-.1-.58-.2-1.82.84-1.82.76 0 1.39 1.07 1.52 1.66l.13.71c.06.75-.54 1.83-1.41 1.38-.7-.36-.95-1.24-1.08-1.94z" class="C"/><g class="D"><path d="M780.49 376.77c-.84.25-.35 1.38.12 1.19-.29.21-.79.57-1.11.01-.36-.63.18-1.21.67-1.28-.44-.41-1.16-.59-1.19.25-.17-1.57 1-1.32 1.51-.17z"/><path d="M780.6 377.96l.13-.09c-.04.04-.09.07-.13.09z"/></g><path d="M787.82 404.76c-.36.91-.77 1.78-1.23 2.62l-.17.3c-2.14 3.8-5.15 6.66-8.51 8.06l-.89-2.19c3.63-1.52 7.31-5.42 9.18-11.22.52-1.62.9-3.39 1.1-5.29a199.4 199.4 0 0 1 .51 7.72z" class="O"/><path d="M791.44 423.71c-.13-2.45-.06-6.75-.99-8.95l-1.4-4.98c-2.06.18-2.59 1.08-3.2 2.79-.67 1.87-.33 4.77.08 6.66 1.07 4.94 3.27 7.91 4.85 12.46.47.08.65.09 1.13.08-.28-2.6-.32-5.38-.47-8.05z" class="C"/><g class="D"><path d="M791.55 431.75c-.1.67.11 1.48.5 1.94-.34.12-.7.25-.98.48-.29-.27-.67-.51-1.06-.26.17.9 1.14 1.2 1.96.87 1-.41.94-1.17 1.07-2.08l.16-.96h-1.65z"/><path d="M792.26 432.85c.07.14.15.27.24.37-.34.12-.7.25-.98.48-.3-.27-.67-.51-1.06-.26.17.9 1.14 1.2 1.96.87.76-.31.6-1.6.68-2.24l-.84.77z"/><path d="M790.67 430.35c-.46.99-.23 2.25-.31 3.43-.07 1.01.59.76.92.01.24-.54.42-1.35.52-1.84l-1.13-1.6z"/></g><path d="M792.96 430.89c-.35-.65-1.1-1.55-1.31-2.52l-1.07 1.7c0 1.76 1.01 3.79 1.48 4.35-.34.11-.7.25-.98.48-.29-.27-.67-.51-1.06-.26.16.9 1.14 1.2 1.96.87 1-.41.94-1.17 1.07-2.07.14-.98.41-1.63-.09-2.55z" class="C"/><path d="M788.14 413.39c.8-.13 1.59-.21 2.39-.26 1.65-7.23-1.66-25.6-3.7-26.25 0 0-2.83 2.53-4.05 6.73-.98 3.37 1.33 15.21 2.46 20.52.93-.36 1.91-.58 2.9-.74z" fill="#ff1515"/><g class="D"><path d="M787.92 414.5c.02-.02.02-.02 0 0zm-1.59.18s.47.73.85.68c.44-.05.57-.49.73-.85-.33.4-1.16.4-1.58.17z"/></g><path d="M950.9 440.25c.89 1.55 1.84 3.04 2.54 4.81.95 2.37 2.79 18.44 5.53 23.69-.92.45-2.35 1.9-3.15 1.46-.15-3.41-.32-3.68-1.67-7.06-1.28-3.23-3.31-7.57-5.13-11.61l-2.68-6.19c-.69-1.72-1.46-3.4-2.23-5.09h6.78z" class="C"/><path d="M959.96 469.93c-.33-.65-1.24-2.04-1.43-2.22-.61-.57-.96-.45-1.41.21-.65.95-.88 2.86-1.36.15-.16.26-.42.85-.68 1.53l-.87 2.4.21.62c1.26-.01 4.46-1.43 5.74-2.21 0 0 .13.14-.19-.48z" fill="#06090a"/><path d="M959.96 469.93c-1.4.84-4.81 2.43-5.75 2.12-.01-.61.4-1.9.8-2.96.26-.68.42-1.49.58-1.75.48 2.7.82 1.02 1.47.07.45-.66.79-.78 1.41-.21a8.4 8.4 0 0 1 .91 1.55l.57 1.19z" fill="#0b4b55"/><path d="M959.96 469.93c-1.4.85-4.81 2.43-5.75 2.12-.01-.61.4-1.9.8-2.96.28.68.77 1.16 1.71 1.08a4.2 4.2 0 0 0 2.66-1.43l.57 1.19z" fill="#022a36"/><path d="M940.19 435.63c.53 3.07 1.17 5.93 1.95 8.3 1.34 4.05 6.02 9.45 12.38 21.57.08.16.31.2.62.16.69-.08 1.76-.56 2.37-.95a2.3 2.3 0 0 0 .33-.25s.64-16.29-7.61-25.74c-1.06-1.21-.19-18.93 0-26.76.05-1.95-1.01-3.71-1.05-4.11-4.01-.74-10.62-.35-10.7.49a31.6 31.6 0 0 0-.11 1.98c-.18 5.49.3 16.31 1.84 25.32z" fill="#281619"/><path d="M942.47 444.73c.93-4.71-1.62-30.93 8.15-28.51.05-1.95-1.42-7.97-1.46-8.38-4.01-.74-10.62-.35-10.7.49-.05.54-.09 1.21-.11 1.98-.18 5.49.88 26.81 4.13 34.42z" fill="#512e31"/><g class="C"><path d="M954.87 386.64c1.15 6.34 3.99 11.14 6.33 10.73s3.3-5.88 2.15-12.23-3.99-11.14-6.33-10.73-3.31 5.88-2.15 12.23zm-13.75-22.92c.07.59 1.25.99 1.74 1.1l.21-.59 1.3-3.61-3.25 3.11z"/></g><path d="M941.12 363.72c.06.59 1.25.99 1.74 1.1l.21-.59c-.44-.14-.5-.42-.89-.69-.28 1.26-1.08 0-1.06.18z" class="D"/><g class="C"><path d="M941.93 368.49c.03.13.08.25.13.35 0 .01.01.01.01.02.36.8 2.51.78 4.39.67l1.56-.11 1.07-.06c.43 0 .82.72.88.64l-.27-1.91-.01-.08 1.24-3.04 2.57-6.29-5.75-4.27c-.06-.03.03-.16-.14-.12a26.2 26.2 0 0 0-2.54 3.18c-.62.9-.45 2.02-.8 2.93-.1.27-.25.52-.48.74l-.06.05c-1.1 1.07-1.18 1.86-1.45 3.46-.25 1.45-.62 2.71-.33 3.84z"/><path d="M944.96 375.25a10.3 10.3 0 0 1 2.52.65l3.41 1.16c.33-1.79 1.14-1.26 1.54-3.19.44-2.1 1.91-7.14 2.77-8.71l-4.3-.19-.66-.03-3.41-.16-.19 3.03-.17 1.44-.04.28-.05.33c-.13.84-.29 1.68-.49 2.49-.25 1.02-.57 2.01-.96 2.9z"/></g><path d="M944.49 358.73c.55.06 1.72.84 1.58 1.38l-.21.58a4.7 4.7 0 0 0-1.69-.92c.07-.34.12-.76.32-1.04z" fill="#863b35"/><path d="M943.71 361.19l.53.19.38.13c.18.06.35.13.41.22l.33-.55c-.2-.19-.4-.35-.61-.49-.16-.11-.33-.2-.5-.28-.1.27-.25.52-.49.74l-.05.05z" class="B"/><path d="M943.71 361.19l.53.19.38.13c.02-.07.05-.14.06-.21.05-.21.07-.42.07-.61-.16-.11-.33-.2-.5-.28-.1.27-.25.52-.49.74l-.05.05z" fill="#1c1918"/><path d="M942.07 368.86c.36.8 2.51.78 4.39.67l-.05.33c-.13.84-.29 1.68-.49 2.49l2.18-.19c-.27-.75-.18-1.83-.08-2.74l.08-.74c.1-.89.17-2.34.61-3.05l-.33-.41c-.36.66-.5 1.49-1.07 2.03l-.64.56c-.43.35-.92.69-1.38.86a5.5 5.5 0 0 1-3.22.19z" class="D"/><path d="M953.53 369.77c-1.02-.54-1.97-1.15-3.1-1.34l-1.56-.2c-.04-1.96.38-4.12.44-5.06-1.06 1.06-1.03 1.47-1.69 2.62-.46-.5-.41-3.24 1.7-7.43.38-.76-3.87-2.14-3.78-2.86.35-2.71 8.39-1.1 11.06.93 2.4 1.83 2.53 4.25 1.67 5.89-1.14 2.17-4.35 7.65-4.74 7.45z" fill="#863b35"/><path d="M948.31 362.82c.56-.51 1.95.39 2.13 1.02.2.69-.52 1.51-.93 2.05-1.18 1.55-3.99.67-1.21-3.07z" class="C"/><path d="M948.32 363.59l.3-.29c.59.1 1.03.32 1.03 1.11.01.71-.48 1.16-1.03 1.39.29-.24.62-.62.64-1 .03-.46-.25-.78-.64-.69.3.42-.08 1.37-.62 1.07-.59-.33.06-1.21.31-1.59z" class="D"/><path d="M950.09 450.69l.56-6.83.31-3.75 6.66.2c-.02 2.42.33 4.72.05 7.2-.29 2.57-6.69 17.5-6.7 23.56-1.12-.12-3.25.35-3.8-.47 1.59-3.04 1.56-3.36 1.98-7.04.4-3.5.64-8.38.94-12.88z" class="C"/><path d="M952.2 472.14c-.11-.74-.57-2.4-.71-2.64-.45-.77-.88-.8-1.63-.37-1.09.63-2.08 2.31-1.56-.4-.28.18-.8.62-1.35 1.15l-1.9 1.88-.01.66c1.39.5 5.47.45 7.17.24 0 0 .09.18-.02-.52z" fill="#06090a"/><path d="M952.2 472.14c-1.87.23-6.24.34-7.15-.33.23-.57 1.18-1.61 2.04-2.44.55-.53 1.04-1.22 1.32-1.4-.52 2.71.5 1.28 1.59.65.75-.43 1.18-.41 1.63.37.14.25.29 1.07.4 1.81l.17 1.34z" fill="#0b4b55"/><path d="M952.2 472.14c-1.87.23-6.24.34-7.15-.32.23-.57 1.18-1.61 2.04-2.44.04.75.39 1.39 1.46 1.7 1.16.33 2.36.17 3.48-.27l.17 1.34z" fill="#022a36"/><path d="M947.53 407.87c3.84 12.4.6 53.86.78 57.93.01.18.21.34.52.47a8.2 8.2 0 0 0 2.78.48c.18 0 .33-.01.45-.04 0 0 5.7-14.01 6.79-24.78.31-3.11.05-14.41.16-24.39.03-3.35.11-6.55.27-9.24l.02-.38-.33-.01-8.03-.4c-2-.05-3.5.01-3.4.34z" fill="#512e31"/><path d="M949.58 413.54c.77 3.62 3.86 6.04 6.89 5.42a4.9 4.9 0 0 0 2.53-1.41c1.43-1.47 2.1-3.83 1.58-6.27-.24-1.12-.7-2.13-1.31-2.96l-.31-.39-8.03-.4c-1.26 1.48-1.83 3.71-1.34 6.02z" fill="#503637"/><path d="M955.28 386.07a5.4 5.4 0 0 1 1.01 1.62c.52 1.22.84 2.65 1.36 3.74a18.2 18.2 0 0 0 1.7 2.77l6.07-1.18h.01l-.05-.56-.32-2.36c-.46-2.67-1.13-5.35-1.76-8.01-.54-2.26-1.76-7.77-4.85-8.69l-.34 7-1.44 2.88-1.4 2.79z" class="K"/><path d="M956.29 387.7c.52 1.22.84 2.65 1.36 3.74.45.94 1.04 1.88 1.69 2.77l6.07-1.18.01-.02-.05-.55c-1.11.06-2.59.4-3.66-.28-1.28-.8-2.22-11.29-2.71-13.35-.06-.25-.85 1.88-.9 1.57-.17-1.29-.28-2.98-.86-3.77-.14 2.2-.36 4.42-.58 6.65l-.39 4.41z" class="H"/><path d="M948.24 416.41c3.13-.47 8.8.19 10.77-2.91.03 2.59-1.94 3.75-4.27 4.58-.96.34-2.05.5-2.85.9-.85.43-3.83 2.22-3.83 2.22l.19-4.79z" fill="#281619"/><path d="M943.66 373.87l5.91.06 5.83.06c-.24-.16 0-1.3-.19-2.23-.04-.2-.11-.4-.2-.57-2.25-.62-4.79-1-7.24-.77-.92.09-2.51.25-3.34.65-1.11.54-.78 1.47-.78 2.8z" class="K"/><path d="M943.66 373.87l5.91.06c0-.12-.03-.26-.09-.43-.21-.62-1.02-1.22-1.13-1.84s.45-.43.99-.43l3.42.12c.75.07 1.62.3 2.45.41-.04-.2-.11-.4-.2-.57-2.25-.62-4.79-1-7.24-.77-.92.09-2.51.25-3.34.65-1.11.54-.78 1.47-.78 2.8z" class="H"/><path d="M952.61 416.56c.28-.44.93-.26 1.3-.59.46-.41.65-.74 1.29-.91.43-.11 1.22-.29 1.34-.8l2.06 1.66c-.2.67-.32 1.32-.63 1.99-.5 1.07-1.24 2.43-2.62 1.64-1.15-.66-.6-1.83-.5-2.83-.4.14-.83.25-1.25.33-.34.06-1.41.16-.99-.49z" class="C"/><path d="M937.29 376.27l.02 1.2.17 3.22c.27 6.51.94 12.91.94 19.51 0 3.25.43 7.27-.77 10.14 13.88 3.13 22.5-1.66 22.5-1.66-.22-1.09-.37-2.21-.47-3.36-.38-4.28-.62-8.85-.28-13.03.37-4.53-.38-9.35.47-13.72.49-2.51.33-4.31-1.09-5.06-2.44-1.29-7.41-1.51-10.8-1.47-2.9.03-5.88.48-8.47 1.25l-.49.16c-.55.19-.93.38-1.19.65-.41.43-.52 1.06-.53 2.18z" class="K"/><path d="M938.41 400.19c0 3.25.43 7.27-.77 10.14 13.88 3.13 22.5-1.66 22.5-1.66a31.3 31.3 0 0 1-.47-3.36c-1.99.9-4.61 1.28-6.15 1.43-2.73.27-6.02.28-8.61-.56-2.53-.82-2.52-3.42-2.74-5.65-.35-3.58-.23-7.25-.73-10.83l-1.65-11.04c-.23-1.59-.43-3.45-.78-5.23-.55.19-.93.38-1.19.65-.01.17-.04.34-.06.52-.13.96-.29 1.91-.45 2.86.04 1.06.12 2.1.17 3.22.27 6.51.94 12.91.94 19.51z" class="H"/><path d="M956.16 414.81c.54.6 1.53 1.32 2.35 1.55.94-1.74 2.15-5.59 2.7-7.07.75-2.02 1.63-5.49 2.05-8.08a11.7 11.7 0 0 0-.36-5.01c-.06-.17-.12-.34-.19-.49a4.1 4.1 0 0 0-.28-.52l-2.89-.83c-3.31 4.93-2.07 17.4-3.37 20.46z" class="C"/><g class="D"><path d="M960.33 396.07c.97.89 1.88.87 2.56.12a4.7 4.7 0 0 0-.19-.49c-.74.39-1.6.78-2.37.38zm-3.8 20.7a5.2 5.2 0 0 1 .85 1.85c.06.25.29.72.14.97-.08.14-.48.23-.62.3-.38.17-.71.49-1.08.65-.38.16-.6-.03-.94-.23-.57-.33-1.07-.72-1.44-1.28-.87-1.31-.83-3.01-1.79-4.23l4.87 1.98z"/></g><g class="C"><path d="M953.85 414.25c.33.26 1.91 1.26 2.24 1.52s.74.4 1.06.68c.25.21.48.5.71.75s.6.78.99 1.13c.27.25-.56.59-.85.53-.9-.18-.98-.89-1.15-1.02-.04-.03-.07-.08-.11-.11-.61.46-1.23.34-1.94.04-.99-.41-2.09-2.71-2.12-3.17l1.18-.35z"/><path d="M954.74 418.84c.3.3.45.86.57 1.19.05-.38-.25-1.49.43-1.39.55.08.54.96.6 1.37 0-.34-.11-1.27.31-1.34.46-.07.56.84.57 1.14.07-.22.13-1.73.57-.86.23.46.28 1.45-.03 1.87l-.11.25c-.31.18-.97.07-1.21-.15-.2.2-.43.25-.68.14-.19-.08-.32-.24-.47-.38-.22-.22-.25-.1-.5-.16-.37-.09-.54-.7-.57-1.05-.04-.43.07-1.09.53-.64zm-15.62-29.47c1.96 6.14 5.22 10.61 7.27 9.98s1.19-8.29-.77-14.43-4.28-8.46-6.34-7.82-2.13 6.13-.16 12.27z"/></g><path d="M936.88 384.56l2.57 8.56.78 2.07.39.91 7.75-2.33.31-.09c.1-1.21-1.23-3.19-1.32-4.32-.16-2-3.7-11.92-3.27-13.85l-4.94-2.06c-5.37 1.35-2.97 8.68-2.28 11.12z" class="K"/><path d="M946.96 394.58c1.8-.39 7.09 19.15 8.02 20.9-.94.2-1.66 1.09-2.53.83-2.25-4.08-11.18-14.76-10.49-21.24l5-.49z" class="C"/><path d="M940.24 395.19l.39.91 7.75-2.33c-1.7-5.59-3.41-7.52-4.91-15.61-.37 5.46 2.22 13.95 1.8 14.81-.46.93-2.33 1.54-3.22 1.84-.61.2-1.2.32-1.81.39z" class="H"/><path d="M946.47 395.23h.19c-.92 1.34-2.12 1.5-3.15.18.86.64 2.06.11 2.96-.18z" class="D"/><g class="C"><path d="M953.74 419.38c.09-.28.32-.61.57-.85.36-.34.83-.18.68.26-.13.38-.49.77-.67 1.13l-.13.21c-.6.22-.53-.5-.45-.75z"/><path d="M953.17 418.77a2.5 2.5 0 0 1 .62-.93c.39-.37.91-.2.74.28-.14.41-.53.84-.73 1.23l-.14.23c-.65.24-.58-.54-.49-.81z"/><path d="M952.45 418.18c.11-.33.37-.71.66-.99.42-.4.97-.21.79.3-.15.44-.57.9-.78 1.32l-.15.24c-.7.26-.62-.58-.52-.87z"/><path d="M951.97 417.91a2.4 2.4 0 0 1 .59-.88c.37-.36.86-.19.71.27-.13.39-.51.79-.7 1.17l-.13.21c-.62.23-.55-.51-.46-.78z"/></g><path d="M951.11 372.89l.16.62.09.33.09.38.2.92.2 1.09.1.6.09.63c.07.42.09.87.15 1.32l.05.68.03.34.02.34.04.69.02.68.01 1.33-.03 1.24-.05 1.11-.08.94-.08.73-.08.64.23-.6.22-.71.22-.94.19-1.12.08-.62.05-.65.03-.67.02-.69v-.7l-.03-.7-.13-1.4-.1-.68-.12-.66-.13-.64-.16-.6c-.09-.39-.22-.75-.34-1.09-.1-.34-.24-.64-.35-.9l-.16-.37-.15-.3-.3-.57z" class="H"/><path d="M825.13 487.01a11.7 11.7 0 0 0-.8-2.34c-.5-.68-.96-.7-1.75-.3-1.15.57-2.19 2.09-1.68-.34a12.5 12.5 0 0 0-1.43 1.05l-2 1.7v.59c1.5.42 5.86.32 7.68.11 0 0 .09.16-.03-.46z" fill="#04090a"/><path d="M825.13 487.01c-1.99.23-6.68.39-7.66-.19.24-.51 1.24-1.45 2.15-2.2a12.4 12.4 0 0 1 1.43-1.05c-.52 2.42.52.91 1.68.34.8-.39 1.25-.38 1.75.3.16.22.33.95.46 1.61l.2 1.19z" fill="#0a252d"/><path d="M825.13 487.01c-1.99.23-6.68.39-7.66-.19.24-.51 1.24-1.45 2.15-2.2.06.66.44 1.23 1.59 1.49 1.24.28 2.53.11 3.73-.29l.2 1.19z" fill="#051519"/><path d="M827.56 433.29l-.76 7.81c-.11 4.89-.47 9.06-.45 13.09.01 4-.78 24.09-1.47 29.44-.1.77-.19 1.23-.28 1.3-.93.69-3.97.26-4.74-.45.11-.27-.73-8.46-1.07-12.41l-1.36-17.5-1.92-20.26c-.31-2.97-.77-5.95-.9-8.93-.07-1.57 0-3.15 0-4.72 0-.88.38-2.33.11-2.99l13.77 2.39c.42 4.3-.31 8.76-.94 13.25z" fill="#252c30"/><path d="M828.66 487.01c.13-.66.64-2.13.8-2.34.5-.68.96-.7 1.75-.3 1.15.57 2.2 2.09 1.68-.34a12.4 12.4 0 0 1 1.43 1.05l2 1.7v.59c-1.5.42-5.86.32-7.68.11 0 0-.09.16.02-.46z" fill="#04090a"/><path d="M828.66 487.01c2 .23 6.68.39 7.66-.19-.24-.51-1.24-1.45-2.15-2.2a12.5 12.5 0 0 0-1.43-1.05c.52 2.42-.52.91-1.68.34-.8-.39-1.26-.38-1.75.3a6 6 0 0 0-.46 1.61l-.2 1.19z" fill="#0a252d"/><path d="M828.66 487.01c2 .23 6.68.39 7.66-.19-.24-.51-1.24-1.45-2.15-2.2-.06.66-.44 1.23-1.59 1.49-1.24.28-2.53.11-3.73-.29l-.2 1.19z" fill="#051519"/><path d="M825.29 420.04l13.77-2.39c-.27.66.11 2.11.11 2.99v4.72c-.13 2.98-.59 5.96-.9 8.93l-1.92 20.26c-.56 5.82-.85 11.68-1.36 17.5l-1.07 12.41c-.77.72-3.81 1.14-4.74.45-.72-.53-1.27-26.04-1.25-30.62.01-4.03-.23-9.4-.23-13.43 0-7.08-3.08-14.04-2.42-20.83z" fill="#252c30"/><g fill="#171c1e"><path d="M826.8 441.1c-.11 4.89-.47 9.06-.45 13.09.01 4-.78 24.09-1.47 29.43 0-.64.02-1.26 0-1.78-.38-7.81.32-49.62.21-51.43-2.73-.46-5.26-1.43-7.39-3.44 1.47.58 8.81 1.79 9.53 2.08.07 1.23-.37 9.45-.43 12.05z"/><path d="M827.17 441.1c.11 4.89.47 9.06.45 13.09a458.8 458.8 0 0 0 1.46 29.43c0-.64-.02-1.26 0-1.78.38-7.81-.32-49.62-.21-51.43 2.73-.46 5.26-1.43 7.39-3.44-1.47.58-8.81 1.79-9.53 2.08-.07 1.23.37 9.45.43 12.05z"/></g><path d="M840.75 402.35c-1.95 5.97-2.07 11.52-1.38 17.64-1.96.35-4.38.03-6.41.03-2.18 0-4.25-.18-6.43-.19-.31 0-.63 0-.95 0-3.61-.03-8.03-.11-11.2 1.09-.51-.99.04-2.56.09-3.69.06-1.4-.07-2.73-.13-4.09-.11-2.64-.25-5.26-.84-7.81a48.5 48.5 0 0 0-.81-3.05c-.49-1.64-1.06-3.26-1.7-4.81-.97-2.37-2.51-5.23-.17-7.16 1.6-1.33 5-2.49 7.8-3.98 2.16-1.15 3.97-2.49 4.35-4.25l6.27.37c.13.63 1.62 1.69 3.37 2.75 2.24 1.36 4.92 2.72 5.77 3.21 2.16 1.22 3.98 2.09 4.4 5.21.36 2.63-1.24 6.32-2.03 8.74z" fill="#c6bfa3"/><g class="P"><path d="M832.61 385.19c-3.12.6-6.41.61-9.38.79l-4.61.35c2.16-1.15 3.97-2.49 4.35-4.25l6.27.37c.13.63 1.62 1.68 3.37 2.75zm-5.46 2.07l.02.03c.01.02.03.05.05.1.03.09.08.22.12.39a7.2 7.2 0 0 1 .13.63l.11.82.09.97.07 1.08.04 2.35-.07 2.35-.07 1.08-.09.97-.19 1.44-.1.54-.03-.55-.06-1.45-.03-.97-.02-1.08-.01-1.15v-1.19l.03-2.34.05-2.04.02-.81v-.63l-.03-.4c0-.05-.02-.08-.02-.11l-.01-.04z"/></g><path d="M832.7 376.29c-.45 1.85-1.15 3.69-1.31 4.46-.11.54-.06 1.62-.24 2.33-.05.19-.11.36-.2.48l-.03.03c-.66.78-1.76.43-2.82.48-2.23.11-4.34 0-6.58 0l-2.26-6.29c-.46-2.18-.33-4.23 1.09-6.08a5.5 5.5 0 0 1 .59-.65c2.49-2.4 7.66-3.5 8.92.59 3.66-1.27 3.55 1.7 2.84 4.64z" fill="#6d4a46"/><path d="M832.7 376.29l-1.55 6.79c-.07.22-.14.38-.2.48l-.03.04c-.66.78-1.76.43-2.82.48-2.23.11-4.34 0-6.58 0l-2.26-6.29c-.46-2.18-.33-4.23 1.09-6.08a5.5 5.5 0 0 1 .59-.65c-.39 1.38 0 2.83 1.11 3.83 2.24 2.02 6.03 1.23 7.97-.74-.01.43-.21 1.52-.01 1.89.22.42.98.43 1.48.44.42 0 .83-.07 1.22-.19z" fill="#4f3331"/><g class="P"><path d="M825.57 419.83c-3.61-.03-8.03-.11-11.2 1.09-.51-.99.04-2.56.09-3.69.06-1.4-.07-2.72-.13-4.09-.12-2.64-.25-5.26-.84-7.81a48.3 48.3 0 0 0-.81-3.05l1.75-3.42c-.34 7.63 1.13 13.32 2.82 15.48 1.88 2.4 5.43 4 8.04 5.35.09.05.18.09.27.13zm2.13.11c3.61-.03 8.03-.11 11.2 1.09.51-.99-.04-2.56-.09-3.69-.06-1.4.07-2.72.13-4.09.12-2.64.25-5.26.84-7.81a48.5 48.5 0 0 1 .81-3.05l-1.75-3.41c.34 7.63-1.13 13.32-2.82 15.48-1.88 2.4-5.43 4-8.04 5.35a6.1 6.1 0 0 1-.27.13z"/></g><g class="D"><path d="M831.14 423.7c-1.86.32-3.23.78-4.84 1.8-.42.27-1.9 1.06-1.81 1.69.07.54 1.57 1.38 1.99 1.56 1.3.53 3.13.08 4.46-.4 1.63-.59 2.27-1.8 3.14-3.1l-2.93-1.55z"/><path d="M828.43 427.05a17.1 17.1 0 0 0-5.28-3.18c-.32-.12-.7-.19-.97-.14l-3.23.81c-.4 2.03 2.68 2.93 3.66 4.23.27.36 1.07 1.88 1.65 1.54.61-.36-.64-1.9-.82-2.25 1.09.24 1.97.91 3.03 1.12.32.06 1.3.32 1.23-.24 0-.03-.01-.05-.03-.08a2.7 2.7 0 0 0 1.14.39c.1-.25-.09-.54-.37-.84.27.19.53.34.72.39 1.24.31-.42-1.45-.75-1.75zm-1.36.19l.09.08-.09-.08z"/></g><g class="C"><path d="M824.89 424.93c-.96-1.85-2.05-1.21-3.44-2.16l-1.97 1.23c.14.19.51 1.32.67 1.5 1.05 1.15 2.05.74 3.5.98.87.14 1.09.13 1.8.73.31.26 1.42.59 1.81-.06.17-.29-2.07-1.65-2.37-2.22z"/><path d="M827.71 425.36c1.08-1.79 2.12-1.08 3.57-1.95l1.89 1.35c-.15.18-.59 1.29-.76 1.46-1.12 1.09-2.09.61-3.56.76-.87.09-1.1.06-1.84.61-.33.24-1.45.51-1.8-.17-.15-.3 2.17-1.52 2.5-2.07z"/><path d="M827.28 428.45c.08-.46-.08-.9-.6-.59-.33.2-.46.56-.57.91l.02.09c-.01.36.26.74.67.53.26-.13.43-.66.48-.95zm1.59 0c.25-.57.25-1.15-.39-.84-.41.2-.67.64-.91 1.07l-.01.12c-.14.46-.01.98.48.77.31-.13.68-.77.84-1.12z"/><path d="M829.91 428.49c.25-.57.25-1.15-.39-.84-.41.2-.67.64-.92 1.07l-.01.12c-.14.46-.01.98.48.77.31-.13.68-.77.84-1.12z"/><path d="M830.79 428.44c.25-.57.25-1.15-.39-.84-.41.2-.67.64-.91 1.06l-.01.12c-.14.46-.01.98.48.77.31-.13.68-.77.84-1.12z"/></g><g fill="#c6bfa3"><path d="M821.85 422.87c-1.23 1-1.2 2.31-2.44 3.31-1.45-1.66-13-8.98-13.09-11.95-.11-3.41 1.13-22.08 4.5-23.92l2.71 5.82.4.85 1.09 2.33a137.4 137.4 0 0 0-.87 5.58c-.34 2.48-.64 5.03-.6 5.92.12 2.24.49 1.88 2.6 4.1.73.77 1.35 1.55 1.9 2.33 1.4 1.97 2.37 3.92 3.81 5.63zm24.83-8.64c-.02 2.97-11.39 10.59-12.79 12.28-1.26-.97-1.5-1.84-2.75-2.82.72-.9 1.35-1.92 1.98-3 1.08-1.82 2.17-3.78 3.75-5.54 2.05-2.27 2.43-1.93 2.49-4.16.03-1.14-.56-4.93-1.08-7.88l-.68-3.57.26-.59.33-.75 3.34-7.65c3 2.63 5.17 20.25 5.14 23.67z"/></g><g class="P"><path d="M818.03 417.24a34.5 34.5 0 0 0-4.38-2.85 5.5 5.5 0 0 1-1.68 1.65 14.6 14.6 0 0 1 .65-2.93c-1.19-.01-2.47.98-3.7 1.1.72-1 2.43-1.83 3.58-2.04.29-5.26 1.34-17.22 1.34-17.22 1.61 3.92-.36 14.98-.31 15.87.12 2.23.49 1.88 2.6 4.1.73.77 1.35 1.55 1.9 2.33zm22.19-4.16c.69.76.95 1.96 1.09 2.93-.5-.9-1.24-1.87-2.12-2.34-1.24 1.76-2.92 3.28-4.29 4.91l-1.78 2.12c1.07-1.82 2.17-3.78 3.75-5.54 2.05-2.27 2.43-1.93 2.49-4.16.03-1.14-.56-4.93-1.08-7.88l-.12-1.61-.3-2.56-.06-2.27.39 1.52c1.08 4.45 1.79 9.4 2.57 13.96 1.13.34 1.96 1.41 2.56 2.36-1.05-.58-2.06-.96-3.11-1.45z"/></g><g fill="#87582e"><path d="M886.04 414.61c-.15.83-1.07 1.66-1.61 2.24l-1.75 1.95c-.53.68-.78 1.65-1.36 2.24-.88-1.46-1.12-3.45-2.24-4.82.78-.15 1.56-.68 2.24-1.07.54-.34 1.31-.68 1.75-1.12l2.97.58zm-31.79 0c.15.83 1.07 1.66 1.61 2.24l1.75 1.95c.54.68.87 1.98 1.45 2.56.88-1.46 1.03-3.78 2.15-5.14-.78-.15-1.56-.68-2.24-1.07-.53-.34-1.31-.68-1.75-1.12l-2.97.58z"/></g><path d="M874.83 480.41a14.5 14.5 0 0 0 3.21-.38c.38-.08.83-.2 1.23-.2.06-.36-.14-.89-.28-1.23-.07-.19-.16-.34-.26-.49l-.91-.32a1.3 1.3 0 0 1-.97-1.13c-.14-.59-.77-5.09-.77-6.77l-2.6-.02c.25 1.32-.54 8.35-.68 10.21l.34.09c.53.14 1.13.22 1.68.24z" class="L"/><path d="M881.15 480.31a2.4 2.4 0 0 0-.24-.75c-.4-.76-1.32-1.14-2.18-1.44.1.15.19.3.26.49.14.34.34.87.28 1.23-.4 0-.85.12-1.23.2-1.05.22-2.12.4-3.21.38a8.1 8.1 0 0 1-1.68-.24l-.34-.09-.02.42c.02.34-.02 1.17.28 1.37.12.06 2.6.3 3.11.18 1.11-.26 4.22-1.25 4.72-1.35.3-.06.3-.12.26-.4z" fill="#000"/><path d="M866.43 480.41a14.5 14.5 0 0 1-3.21-.38c-.38-.08-.83-.2-1.23-.2-.06-.36.14-.89.28-1.23.07-.19.16-.34.26-.49l.91-.32a1.3 1.3 0 0 0 .97-1.13c.14-.59.77-5.09.77-6.77l2.6-.02c-.25 1.32.54 8.35.67 10.21l-.34.09a8 8 0 0 1-1.68.24z" class="L"/><path d="M860.1 480.31a2.4 2.4 0 0 1 .24-.75c.4-.76 1.32-1.14 2.18-1.44-.1.15-.19.3-.26.49-.14.34-.34.87-.28 1.23.4 0 .85.12 1.23.2 1.05.22 2.12.4 3.21.38a8.1 8.1 0 0 0 1.69-.24l.34-.09.02.42c-.02.34.02 1.17-.28 1.37-.12.06-2.6.3-3.11.18-1.11-.26-4.22-1.25-4.72-1.35-.3-.06-.3-.12-.26-.4z" fill="#000"/><path d="M880.97 416.31c-1.17-2.43-3.12-3.99-5.26-5.45l-5.08 3.22-5.08-3.22c-2.14 1.46-4.09 3.02-5.26 5.45-1.75 3.89-1.36 8.27-1.07 12.46a51.2 51.2 0 0 0 1.17 7.59c.58 2.72 1.56 5.45 2.05 8.27.88 4.67-1.46 9.05-1.07 13.62l1.07 12.65a13.4 13.4 0 0 0 3.41.19c.68 0 2.73-.39 3.12-.97s0-2.63 0-3.31l.1-7.59.68-14.99c.18-5.27.03-10.62.25-15.98a56.4 56.4 0 0 1 1.3.1c.21 5.33.06 10.65.24 15.88l.68 14.99c.1 2.53.1 5.06.1 7.59 0 .68-.39 2.73 0 3.31s2.43.97 3.12.97c1.07.1 2.34 0 3.41-.19l1.07-12.65c.39-4.57-1.95-8.95-1.07-13.62.49-2.82 1.46-5.55 2.05-8.27.58-2.53.97-5.06 1.17-7.59.29-4.18.68-8.56-1.07-12.46z" fill="#afafaf"/><g fill="#777"><path d="M862.97 427.91c.33 0 .66.08.98.15l.48.08c.15.02.33.02.49.02l1.96.04 3.94-.06 1.97.04 1.97.02 1.97.05c.33.01.65.03.97-.01s.63-.16.92-.3c-.28.18-.58.32-.91.4s-.66.08-.99.1l-1.97.05-1.97.04c-.66.01-1.32-.02-1.97-.02-1.31-.02-2.62.01-3.94-.02-.66-.01-1.32-.07-1.97-.14-.68-.02-1.28-.35-1.93-.43z"/><path d="M870.83 428.23l-.17-3.14-.11-3.15v-3.15l.08-3.15.13 1.57.07 1.58.08 3.14.02 3.15-.03 1.57-.08 1.57zm-9.59-9.53l.21 5.3c.02.44.06.87.24 1.25.09.19.21.35.36.48a2 2 0 0 0 .53.32 4.4 4.4 0 0 0 1.23.33c.43.06.86.04 1.31.05a10.6 10.6 0 0 0 1.3-.05 2.8 2.8 0 0 0 1.18-.37 1.7 1.7 0 0 0 .69-.95 1.5 1.5 0 0 0 .06-.29l.02-.32.01-.65-.18-5.29.14.13-3.55.05-3.55.01zm0 0l3.54-.19 3.55-.15.13-.01.01.14.25 5.3v.67l-.02.34c-.01.11-.03.25-.07.36-.12.46-.43.89-.84 1.15s-.88.36-1.33.41-.9.04-1.35.04c-.87.01-1.82-.03-2.66-.43-.21-.1-.42-.21-.59-.38s-.32-.37-.41-.58c-.19-.44-.21-.9-.22-1.35l.01-5.3zm19 0l.01 5.3c-.01.44-.03.91-.22 1.35-.09.22-.23.42-.41.58a2.7 2.7 0 0 1-.59.38c-.84.4-1.79.44-2.66.43-.44.01-.89.01-1.35-.04s-.92-.15-1.33-.41-.72-.69-.84-1.15c-.03-.11-.06-.24-.07-.36l-.02-.34-.01-.67.25-5.3.01-.14.13.01 3.54.15 3.55.19zm0 0c-1.18.01-2.37-.01-3.55-.01l-3.55-.05.14-.13-.18 5.29.01.65.02.32c.01.11.02.19.06.29.11.39.35.73.69.95s.76.32 1.18.37a10.4 10.4 0 0 0 1.3.05c.45 0 .88.01 1.31-.05a4.3 4.3 0 0 0 1.23-.33c.19-.09.38-.18.53-.32s.27-.3.36-.48a3.4 3.4 0 0 0 .24-1.25l.21-5.3zm-11.38 45.9l-1.04.88h0l-.01.01c-.43.3-.94.5-1.45.59a6.6 6.6 0 0 1-1.54.08c.49-.17.99-.27 1.47-.4l.7-.23c.23-.09.44-.19.66-.31l-.01.01a5.4 5.4 0 0 1 1.22-.62zm-5.76 2.42c.58.12 1.17.06 1.75.06.3-.01.59-.01.86-.07l.84-.21c.16-.04.26-.07.4-.13l.42-.15.22-.07c.08-.02.14-.04.27-.04.21.03.43.18.47.42.04.23-.05.39-.12.54-.08.14-.18.27-.28.39a2.7 2.7 0 0 1-.73.6l.02-.01a3.7 3.7 0 0 1-.85.37 8.9 8.9 0 0 1-.88.23 4.6 4.6 0 0 1-.9.1c-.15 0-.3-.01-.45-.04s-.3-.09-.4-.21c.11.1.26.13.41.14a2.2 2.2 0 0 0 .44-.02 7.2 7.2 0 0 0 .86-.19l.83-.28c.27-.11.55-.23.76-.37h0l.02-.01c.21-.12.43-.33.61-.54.09-.1.17-.22.23-.33s.1-.23.08-.3c0-.06-.08-.11-.14-.13-.02 0-.1.01-.16.03l-.2.06-.41.14a2.4 2.4 0 0 1-.44.12l-.88.17c-.15.02-.31.03-.46.02l-.44-.02-.88-.07c-.29-.04-.59-.07-.87-.19zm10.35-2.69a1.3 1.3 0 0 0 .5.46 6.8 6.8 0 0 0 .61.29l.65.22.65.21c.44.12.88.19 1.33.21a5.8 5.8 0 0 0 1.37-.09c-.42.22-.89.35-1.37.37a4.6 4.6 0 0 1-1.43-.15 6 6 0 0 1-.67-.23l-.65-.28a3 3 0 0 1-.6-.4c-.17-.16-.35-.36-.39-.6zm4.46 2.53l-2.12.3a6.2 6.2 0 0 1-1.09.04c-.36-.01-.75-.11-1.02-.09-.03 0-.05.01-.04 0 .02-.01.03-.06.02-.04 0 .02.04.1.08.16a2.4 2.4 0 0 0 .15.2l.04.05.01.01h0l.02.02.09.1c.23.24.51.44.81.62a8.8 8.8 0 0 0 1.96.77 5.9 5.9 0 0 1-2.09-.52 3.8 3.8 0 0 1-.92-.63l-.1-.09-.02-.02-.03-.03-.05-.05-.18-.22c-.05-.08-.12-.16-.14-.31-.02-.07.01-.22.11-.28.09-.06.15-.07.21-.08.23-.02.4.02.58.04l.52.06a7.4 7.4 0 0 0 1.04.02l2.14-.02z"/></g><path d="M884.91 398.31c.68.92 1.56 1.6 2.34 2.38l2.77 2.82c-.83 1.17-1.27 2.63-2.09 3.84l-2.34 3.26c-.44.49-.73 1.02-1.12 1.56-.39.58-.34.63-1.02.83-1.17.44-1.56 1.75-2.68 2.24-.49.24-3.26.15-2.87 1.02.24.58 2.53.44 3.07.19.54-.19.83-.78 1.41-.83.49 0 1.22.19 1.75.29 1.02.15 2.14.15 2.58-1.02.1-.39.05-.73.1-1.07.1-.58.39-.73.83-1.12l2.68-2.33 5.65-5.4-3.65-5.06-4.62-5.06-2.78 3.46z" class="L"/><path d="M878.88 394.66c.15.92 1.17 1.9 1.61 2.68.58.97 1.36 2 1.8 3.02.49-.1 1.02-.58 1.46-.83l1.61-.88c1.12-.73 2.63-2.48 3.46-3.55l-2.09-2.43-2.78-3.02c-1.17-1.36-2.09-2.82-3.94-3.21-.78-.15-1.51-.34-2.24-.34-.58 0-1.36-.29-1.9-.1l3.02 8.66z" fill="#abcdff"/><path d="M855.37 398.31c-.68.92-1.56 1.6-2.34 2.38l-2.77 2.82c.83 1.17 1.27 2.63 2.09 3.84l2.34 3.26c.44.49.73 1.02 1.12 1.56.39.58.34.63 1.02.83 1.17.44 1.56 1.75 2.68 2.24.49.24 3.26.15 2.87 1.02-.24.58-2.53.44-3.07.19-.53-.19-.83-.78-1.41-.83-.49 0-1.22.19-1.75.29-1.02.15-2.14.15-2.58-1.02-.1-.39-.05-.73-.1-1.07-.1-.58-.39-.73-.83-1.12l-2.68-2.33-5.65-5.4 3.65-5.06 4.63-5.06 2.78 3.46z" class="L"/><g fill="#abcdff"><path d="M861.4 394.66c-.15.92-1.17 1.9-1.61 2.68-.58.97-1.36 2-1.8 3.02-.49-.1-1.02-.58-1.46-.83l-1.61-.88c-1.12-.73-2.63-2.48-3.46-3.55l2.09-2.43 2.77-3.02c1.17-1.36 2.09-2.82 3.94-3.21.78-.15 1.51-.34 2.24-.34.58 0 1.36-.29 1.9-.1l-3.02 8.66z"/><path d="M866.23 385.93c-.79 0-1.46.14-2.18.27-1.7.2-2.55.27-3.27 2.19-1.27 3.35.73 7.04 1.09 10.39.18 1.44.36 2.74.36 4.17 0 .68.12 1.3-.12 1.98-.24.55-.67 1.09-.61 1.78s.55 1.16.43 1.98c-.06.62-.43 1.3-.67 1.92-.49 1.3-1.09 2.6-.97 4.03.85 0 1.7.48 2.49.68a41.2 41.2 0 0 1 2.61.48c1.82.34 3.7.89 5.58.96 1.76.07 3.46-.07 5.16-.55.79-.2 1.52-.41 2.3-.75.42-.2 1.64-.61 1.88-1.02.3-.55 0-1.71-.24-2.19-.42-.82-1.46-1.3-1.7-2.19-.24-.96.61-1.44.73-2.26.12-1.03-.79-1.37-1.15-2.05-.79-1.5.36-4.17.67-5.68.36-1.98.79-4.03 1.03-6.02s.42-5.13-.67-6.84c-1.15-1.71-3.58-.96-5.15-1.57l-7.58.27z"/></g><g fill="#97b2d3"><path d="M874.97 408.94a23.6 23.6 0 0 1-5.99 1.04c-1.85.11-3.69-.13-5.54.08-.04 0-.13.02-.13.08.01 1.18 2.69 1.35 3.46 1.44l2.83.23c1.73.1 3.37-.12 5.09-.16.21-.01.2-.15-.01-.14l-3.6.21-3.07-.17c-1.25-.09-2.64-.19-3.78-.73-.21-.1-.39-.24-.51-.43-.21-.34 1.59-.28 1.77-.27l3.49.03a23.5 23.5 0 0 0 6.17-1.07c.22-.07-.08-.15-.19-.12zm1.97 3.11c-2.18 1.06-4.68 1.14-7.06 1.1a24.3 24.3 0 0 1-3.96-.41c-1.19-.22-2.77-.22-3.75-1-.07-.06-.42-.1-.27.02.75.59 1.72.75 2.64.91l4.66.64c2.7.1 5.58.1 8.06-1.11.07-.03-.22-.19-.32-.14z"/></g><path d="M871.65 365.94a7.7 7.7 0 0 0-2.78.51c-2.01.84-3.31 2.14-4.22 4.09-1.88 4.15-1.3 9.02-1.3 13.43 0 4.22-2.79 7.92-2.27 12.26.32 2.4 1.49 4.15 3.76 5.06a21.9 21.9 0 0 0 5.78 1.23c3.63.39 8.05-.65 9.15-4.54 1.1-3.63.13-7.66-.91-11.09-1.17-3.76-2.08-7.33-2.21-11.29-.08-2.44.12-5.1-1.14-7.31-.94-1.64-2.33-2.32-3.87-2.35z" fill="#000"/><g class="F"><path d="M695.76 353.67c2.33.49 4.63.55 4.78 3.86s-.3 10.33-3.54 8.63-6.02-3.77-6.17-7.53 2.57-5.46 4.93-4.96h0z"/><path d="M695.96 370.74l1.98-6.74-6.04-1.84-1.48 8.58h5.54z"/></g><path d="M689.38 368.36c-.94-.75-4.16 2.48-5.15 4.48s-4.77 7.91-4.35 12.43 8.79 7.05 8.79 7.05l2.37-4.33-1.65-19.62h0z" fill="#c667a7"/><g class="F"><path d="M703.68 463.11c-1.85-.96-3.93-2.66-4.5-3.94l-.76 3.81h-1.39l-.94-5.53s-1.71-1.84 0-5.14c0 0 .94-7.25-.19-11.44-1.13-4.19-2.77-9.21-.94-13.14l-.38-5.91 6.43 3.24c-.06.19-.3 3.99-.36 4.37s-.33 20.78.05 22.55c.2.93 1.22 3.19 2.35 5.22 1.04 1.88 2.15 3.59 2.76 3.86 1.26.57-.28 2.98-2.12 2.04h0z"/><path d="M695.33 460c-2.69-.65-5.42-5.04-5.42-5.04l-.59 5.04h-.97l-1.08-6.61c-1.24-2.71.16-4.66.16-4.66a142.7 142.7 0 0 0-.43-17c-.43-3.36 1.56-6.45 1.56-6.45v-4.93l5.86-.59s-.22 5.74-.53 7.96-2.4 22.17-2.4 22.17c.47 1.96 2.25 4.28 3.84 6.06l2.75 2.85c.54.59-.05 1.84-2.74 1.19h0z"/></g><path d="M695.33 460c-2.69-.65-5.42-5.04-5.42-5.04s-.5-1.05-2.63-1.57c-1.24-2.71.16-4.66.16-4.66s1.23-.25 1.94.71 2.96 6 4.75 6.34l1.19.16 2.75 2.85c.54.59-.05 1.84-2.75 1.19z" fill="#2c53a4"/><path d="M689.91 454.96l-.59 5.04h-.97l-1.08-6.61c2.13.51 2.63 1.57 2.63 1.57h0z" fill="#234180"/><path d="M703.67 463.11c-1.85-.96-3.93-2.67-4.5-3.94l-.76 3.81h-1.39l-.94-5.53s-1.71-1.84 0-5.14c.82.17 2.06.55 2.56 1.51.65 1.26 1.78 3.74 3.34 3.74.37 0 .72-.14 1.05-.35 1.04 1.88 2.15 3.59 2.76 3.86 1.26.57-.28 2.98-2.12 2.04h0z" fill="#2c53a4"/><path d="M699.18 459.17l-.76 3.81h-1.39l-.94-5.53a4.9 4.9 0 0 0 3.09 1.72z" fill="#234180"/><path d="M685.33 391.35s-2.09 4.51-.81 8.27 4.28 15.77 3.55 22.19c0 0 4.34 4.58 13.04 4.22 0 0 6.11-19.23-.55-29.65l-15.23-5.03h0z" fill="#173660"/><path d="M693.49 368.07c2.17.83 8.57 4.85 9.53 6.19s-.78 6.83-1.42 9.74-1.34 11.18-1.04 12.37-6.48 2.17-10.65-.88-4.58-4.15-4.58-4.15-.46-7.39.32-14.91 2.06-10.57 7.83-8.36h0z" fill="#b0519e"/><path d="M704.36 379.55c-.33 1.67-2.64 9.91-2.08 13.24.19 1.09.69 2.78 1.29 4.62-2.19 1.08-3.74 1.4-4.72 1.46-.7-1.7-1.23-3.62-1.3-5.65-.24-6.29.95-13.48 1.98-15.91s2.3-3.37 3.66-2.67c1.22.64 1.5 3.24 1.16 4.9h0z" fill="#c667a7"/><path d="M704.34 413.61c-1.59.05-1.91-1.14-1.59-3.33s.8-2.52.19-4.09c-.42-1.07-2.63-3.74-4.09-7.31.98-.06 2.53-.38 4.72-1.46l2.91 9.1c.09 1.48-.56 7.05-2.15 7.1z" class="F"/><path d="M701.09 355.42a8.6 8.6 0 0 1-1.72 5.05c-1.14 1.43-2.55 6.67-1.54 8.74 0 0-2.15-2.6-2.55-5.86 0 0 .49 6.88-2.34 6.88s-5.35-1.15-4.8-4.25 2.37-4.06 2.37-4.06-3.81-2.6-1.32-7.84 11.38-2.82 11.9 1.34h0z" fill="#52260f"/><path d="M724.17 460.54s-.66 3.81-.26 4.36 4.17 1.56 6.13 0 5.88-6.01 5.14-7.2-2.01-1.36-3.36-1.29-7.65 4.13-7.65 4.13z" fill="#3a2410"/><path d="M738.54 416.66s-2.03 13.79-4.15 21.18c0 0-.16 4.88-.98 6.58s-2.03 5.69-2.52 9.1l-.98 6.9s-1.06 2.52-6.27.41c0 0 .72-10.24.44-13.24s.46-8.69 2.25-11.62c0 0 1.18-20.37.57-23.64l11.64 4.33h-.01z" fill="#212120"/><path d="M736.66 466.22s-.62 3.58-.37 4.23.84 2.13 2.66 1.98 3.47-1.39 4.64-1.54 8.51-2.01 8.3-3.21-11.58-2.78-11.58-2.78l-3.65 1.33h0z" fill="#3a2410"/><path d="M749.66 416.14s-.78 15-2.62 23.93c0 0-.27 5.2-.87 7.17s-3.53 18.82-3.53 18.82-1.03 2.12-6.68.51c0 0-.98-17.63-.73-19.33.3-2.11 2.25-4.47 2.25-4.47s-.85-8.64-1.29-10.76-1.25-12.99-.37-16.34l13.85.46z" fill="#2b2b2b"/><g class="F"><path d="M743.67 364.7s-1.41-3.05-2.85-1.76 1.73 3.53 2.85 3.8v-2.04z"/><path d="M737.23 356.05c1.8-.42 5.61-.73 6.98 1.33s2.37 8.3.17 12.34c0 0-2.44.3-5.81-1.57s-3.74-11.53-1.34-12.1z"/><path d="M743.25 368.42s-1.71 2.26-1.62 6.42c0 0-3.11-2.05-6.8-2.2 0 0 .81-2.26.13-6.17 0 0 4.32-.25 8.29 1.95z"/></g><path d="M742.87 364.69c.32-.78.82-1.62 0-3.18s-.88-2.92-.29-3.21 2.53-.05 2.42-1.09-7.15-5.17-12.04 0c0 0-4.19 2.46 2.28 11.93 0 0 5.22 1.41 7.64-4.45h0z" fill="#52260f"/><path d="M742.86 376v-1.99s-3.61-2.66-8.73-2.88l-.65 1.07s2.02 1.88 9.38 3.8h0z" class="Q"/><path d="M757.16 382.64s1.07-4.85 2.1-4.69.47 2.34.47 2.34 4.06-1.69 4.46-.82.8 3.64.11 4.53-3.15 1.76-5.59 1.97l-1.55-3.33h0z" class="F"/><path d="M755.68 383.15l1.48-.51s1.18.67 1.55 3.33l-1.41.74s-.14-1.87-1.62-3.56z" class="Q"/><g fill="#383838"><path d="M728.52 371.89s-5.02 2.21-3.99 11.05c.76 6.49 16.46 9.43 20.11 9.13s12.99-5.37 12.99-5.37 0-2.76-1.79-3.72c0 0-9.4 2.83-12.17 2.53s-10.9-6.7-12.06-9.01-2.06-4.34-3.1-4.61z"/><path d="M737.46 373.39c3.09 1.19 7.83 3.61 10.63 6.7 2.79 3.09-1.7 18.05-1.05 21.18s2.12 7.17 3.37 16.4c0 0-5.72 4.58-16 1.23 0 0-3.44-.64-8.86-5.28 0 0 2.07-10.13 1.08-16.23-.99-6.08-5.05-20.73 1.83-25.46.04-.03.09-.05.14-.06.55-.07 3.89-.4 8.87 1.51z"/></g><path d="M747.71 416.65s-1.44 2.59-1.54 4.16c-.1 1.57 1.96 3.59 4.16 2.45s2.24-4.18 1.11-7.58l-3.72.97z" class="F"/><path d="M751.04 413.76l.39 1.91s-1.03 1.13-3.72.97l-.67-1.64s2.84-.36 4-1.25h0z" class="Q"/><path d="M747.03 379.83c-3.56.21-4.67 3.28-4.96 5.96s-1.21 11.4-.88 13.7 5.85 15.92 5.85 15.92 2.63.33 4.2-1.44c0 0-.92-6.62-3.09-13.24l1.32-15.33c.39-4.59-.97-5.66-2.43-5.57h0z" fill="#454545"/><path d="M933.37 472.52s.9 4.02.55 4.76-2.39 2.07-4.67 1.87-5.32-2.25-6.92-2.32-5.27-2.69-3.11-4.02 6.65.1 9.18-1.02l4.97.72h0z" fill="#663017"/><path d="M934.8 416.28s1.28 3.05 1.45 8.56-3.07 19.84-3.07 19.84 2.05 4.24 1.54 6.7-2.13 14.07-1.88 16.53.77 4.83.77 4.83-4.91 1.86-7.62-.51l-5.17-30.61 1.62-24.42 12.36-.93h0z" fill="#702b18"/><path d="M924.96 473.65s1.26 3.55.98 4.7-1.63 2.47-3.52 2.56c-1.89.08-3.11-1.15-4.09-1.13s-8.18 1.77-9.53-3.92c0 0-.11-1.25 1.48-1.51s7.46 0 8.38-.91l6.31.22h0z" fill="#663017"/><path d="M913.07 418.83s-1.97 3.98.84 30.52c0 0 .21 11.66 3.51 24.86 0 0 4.63 2.44 7.73-.49 0 0-1.05-7.61-.84-9.15s2.67-11.24-1.12-15.02l3.51-14.25c.63-1.75 4.36-7.9 3.27-14.29l-16.89-2.2v.01z" fill="#832e1b"/><path d="M911.54 389.78s-2.95-.72-4.34-3.28l3.51-2.58 2.71 2.93-1.88 2.93h0z" class="F"/><path d="M919.22 389.46l-5.26-2.85s-2.23.68-2.41 3.17l4.22 4.33s1.17-3.55 3.46-4.66v.01z" fill="#f69265"/><path d="M911.31 385.25l-15.54 9.64c-.31.19-.72.06-.86-.27l-5.5-13.29c-.11-.27 0-.58.25-.73l16.32-9.28c.32-.18.72-.03.85.31l4.72 12.94c.09.26 0 .55-.24.7h0z" fill="#383838"/><path d="M906.18 372.32l4.52 12.24c.05.14 0 .3-.13.37l-14.55 9.04c-.17.1-.38.03-.46-.15l-5.18-12.54c-.06-.15 0-.31.13-.39l15.21-8.73c.17-.1.39-.02.45.16h0z" fill="#caeaf8"/><g class="F"><path d="M913.95 386.61l-.82-3.31s-1.09-1.34-1.87-1.43-3.1-.17-3.05.24 1.1.99 2.87 1.36c0 0-.79 2.26-.48 3.31l.94 3s1.08-2.44 2.41-3.17zm8.15-19.16c-1.93.48-3.76 1.87-3.85 3.83s.22 9.97 1.43 10.19 5.37-2.31 6.85-4.94.44-10.28-4.43-9.08h0z"/><path d="M930.95 377.59l-.46 6.94s-2.18 1.94-8.21 1.46c0 0-.02-2.14-.36-3.23s-1.63-3.33-1.63-3.33 7.53-2.81 10.66-1.83v-.01z"/></g><path d="M927.72 383.85s4.82-2.97 7.2-2.67 5.12 6.4 4.43 10.94-3.75 10.81-3.67 13.06.85 10.94.09 11.7-3.41 4.49-11.04 5.43-11.59-1.49-12.15-3.09.3-5.47.81-6.61 1.92-7.25 1.11-12.34-.96-9.96 5.32-13.65l7.9-2.76h0z" fill="#f48451"/><path d="M932.48 370.27s.31-2.64-2.54-3.8-8.71-2.12-11.5.86c0 0-1.13 1.29 2.76 2.94 0 0 .25.97-.72 2.33s.91 2.29 1.25 3.27 1.47 5.85 3.07 5.85 6.17-.66 6.48-1.22 5.04-7.85 1.19-10.25v.01z" fill="#784d46"/><path d="M920.74 375.13s.22-1.84 1.69-1.31.31 3.02-1.07 3.46l-.63-2.15z" class="F"/><path d="M932.06 383.13L931 381.6s-1.04 2.67-11.48 2.89c0 0-.43.28-.26.71l.56 1.42s.96-.27 1.52-.23 8.29.76 10.71-3.26h0z" fill="#f4a986"/><path d="M899.96 394.94s.42-2.82 0-4.04c-.42-1.22-1.25-1.54-1.57-2.44s-.79-4.92-1.66-4.88-.33 4.2-.72 4.7c-.4.5-2.93 2.76-2.82 3.56s.47 2.74 1.08 3.11 2.39 2.74 2.39 2.74 1.73-1.79 3.3-2.74z" class="F"/><path d="M918.92 392.97c-2.15-2.34-4.14-1.71-5.04-.43-.9 1.29-7.24 11.74-7.24 11.74s-3.75-7.07-6.68-9.34c0 0-3.19.94-3.49 2.44s6.51 14.99 8.23 14.95 2.89.73 5.86-1.93 7.42-9.81 8.66-12.25a5.1 5.1 0 0 0-.31-5.18h0z" fill="#f69265"/><g class="E"><use href="#W"/><use href="#X"/></g><path d="M789.71 250.12h24.9v24.9h-24.9z" class="M"/><path d="M799.96 261.9h6.31v2.47h-6.31v-2.47zm.22 7.31h-3.04v-13.3h9.94v2.47h-6.9v10.83z" class="B"/><g class="E"><path d="M814.96 275.03h24.86l1.66 1.66h-24.1l-2.41-1.66z"/><path d="M841.47 276.7v-24.18l-1.66-2.42v24.94l1.66 1.66z"/></g><path d="M814.98 250.12h24.9v24.9h-24.9z" class="M"/><path d="M820.75 268.39l5.27-11.64h2.7l5.29 11.64h-2.87l-4.32-10.27h1.08l-4.34 10.27h-2.8zm2.63-2.49l.73-2.05h6.08l.74 2.05h-7.55z" class="B"/><use href="#Y" class="E"/><path d="M851.91 275.15l-.13-2.78 4.99-5.24h2.68l-4.5 4.82-1.34 1.43-1.7 1.77zm-2.16 2.38v-10.39h2.4v10.39h-2.4zm7.13 0l-3.71-4.53 1.58-1.71 4.94 6.24h-2.81z" class="B"/><path d="M841.05 247.19h27.34v16.63h-27.34z" class="M"/><path d="M855.39 260.91a6.4 6.4 0 0 1-2.25-.39 5.4 5.4 0 0 1-1.79-1.13 5.3 5.3 0 0 1-1.19-1.72 5.5 5.5 0 0 1-.42-2.16 5.5 5.5 0 0 1 .42-2.16 5.3 5.3 0 0 1 1.19-1.72c.52-.49 1.12-.86 1.8-1.12a6.1 6.1 0 0 1 2.25-.4 6 6 0 0 1 2.44.48 4.7 4.7 0 0 1 1.85 1.37l-1.55 1.43c-.36-.41-.75-.71-1.19-.91-.44-.21-.91-.31-1.43-.31-.49 0-.93.08-1.34.24s-.76.39-1.06.69-.53.65-.7 1.06a3.7 3.7 0 0 0-.24 1.36 3.7 3.7 0 0 0 .24 1.36c.17.41.4.76.7 1.06s.65.53 1.06.69.85.24 1.34.24a3.4 3.4 0 0 0 1.43-.3c.44-.21.83-.52 1.19-.94l1.55 1.43a4.8 4.8 0 0 1-1.85 1.39c-.72.32-1.54.48-2.46.48z" class="B"/><path d="M869.22 247.19h27.34v16.63h-27.34z" class="M"/><path d="M881.68 260.91v-8.43h-3.35v-1.96h9.11v1.96h-3.35v8.43h-2.42z" class="B"/><path d="M869.22 263.82h27.34v16.63h-27.34z" class="E"/><path d="M881.02 270.91h5.15v1.87h-5.15v-1.87zm.18 4.28h5.82v1.93h-8.28v-10.39h8.09v1.93h-5.62v6.53z" class="B"/></g></g><rect x="1" y="1" width="1138" height="638" rx="15" stroke-width="2" class="N"/><defs><filter id="A" x="910.84" y="82.85" width="115.16" height="49.15" filterUnits="userSpaceOnUse" class="I"><feFlood class="J"/><feBlend in="SourceGraphic" result="B"/><feColorMatrix in="SourceAlpha" values="0 0 0 0 0 0 0 0 0 0 0 0 0 0 0 0 0 0 127 0" result="C"/><feOffset dy="5.94115"/><feGaussianBlur stdDeviation="5.94"/><feComposite in2="C" operator="arithmetic" k2="-1" k3="1"/><feColorMatrix values="0 0 0 0 0 0 0 0 0 0 0 0 0 0 0 0 0 0 0.25 0"/><feBlend in2="B" result="D"/><feColorMatrix in="SourceAlpha" values="0 0 0 0 0 0 0 0 0 0 0 0 0 0 0 0 0 0 127 0" result="C"/><feOffset dy="-5.94115"/><feGaussianBlur stdDeviation="5.94"/><feComposite in2="C" operator="arithmetic" k2="-1" k3="1"/><feColorMatrix values="0 0 0 0 0 0 0 0 0 0 0 0 0 0 0 0 0 0 0.25 0"/><feBlend in2="D"/></filter><filter id="B" x="1018.43" y="60.93" width="72.14" height="92.98" filterUnits="userSpaceOnUse" class="I"><feFlood class="J"/><feBlend in="SourceGraphic" result="B"/><feColorMatrix in="SourceAlpha" values="0 0 0 0 0 0 0 0 0 0 0 0 0 0 0 0 0 0 127 0" result="C"/><feOffset dy="-5.9375"/><feGaussianBlur stdDeviation="5.94"/><feComposite in2="C" operator="arithmetic" k2="-1" k3="1"/><feColorMatrix values="0 0 0 0 0 0 0 0 0 0 0 0 0 0 0 0 0 0 0.25 0"/><feBlend in2="B" result="D"/><feColorMatrix in="SourceAlpha" values="0 0 0 0 0 0 0 0 0 0 0 0 0 0 0 0 0 0 127 0" result="C"/><feOffset dy="5.9375"/><feGaussianBlur stdDeviation="5.94"/><feComposite in2="C" operator="arithmetic" k2="-1" k3="1"/><feColorMatrix values="0 0 0 0 0 0 0 0 0 0 0 0 0 0 0 0 0 0 0.25 0"/><feBlend in2="D"/></filter><filter id="C" x="114" y="509.25" width="115.16" height="49.15" filterUnits="userSpaceOnUse" class="I"><feFlood class="J"/><feBlend in="SourceGraphic" result="B"/><feColorMatrix in="SourceAlpha" values="0 0 0 0 0 0 0 0 0 0 0 0 0 0 0 0 0 0 127 0" result="C"/><feOffset dy="5.94115"/><feGaussianBlur stdDeviation="5.94"/><feComposite in2="C" operator="arithmetic" k2="-1" k3="1"/><feColorMatrix values="0 0 0 0 0 0 0 0 0 0 0 0 0 0 0 0 0 0 0.25 0"/><feBlend in2="B" result="D"/><feColorMatrix in="SourceAlpha" values="0 0 0 0 0 0 0 0 0 0 0 0 0 0 0 0 0 0 127 0" result="C"/><feOffset dy="-5.94115"/><feGaussianBlur stdDeviation="5.94"/><feComposite in2="C" operator="arithmetic" k2="-1" k3="1"/><feColorMatrix values="0 0 0 0 0 0 0 0 0 0 0 0 0 0 0 0 0 0 0.25 0"/><feBlend in2="D"/></filter><filter id="D" x="49.42" y="487.34" width="72.14" height="92.98" filterUnits="userSpaceOnUse" class="I"><feFlood class="J"/><feBlend in="SourceGraphic" result="B"/><feColorMatrix in="SourceAlpha" values="0 0 0 0 0 0 0 0 0 0 0 0 0 0 0 0 0 0 127 0" result="C"/><feOffset dy="-5.9375"/><feGaussianBlur stdDeviation="5.94"/><feComposite in2="C" operator="arithmetic" k2="-1" k3="1"/><feColorMatrix values="0 0 0 0 0 0 0 0 0 0 0 0 0 0 0 0 0 0 0.25 0"/><feBlend in2="B" result="D"/><feColorMatrix in="SourceAlpha" values="0 0 0 0 0 0 0 0 0 0 0 0 0 0 0 0 0 0 127 0" result="C"/><feOffset dy="5.9375"/><feGaussianBlur stdDeviation="5.94"/><feComposite in2="C" operator="arithmetic" k2="-1" k3="1"/><feColorMatrix values="0 0 0 0 0 0 0 0 0 0 0 0 0 0 0 0 0 0 0.25 0"/><feBlend in2="D"/></filter><filter id="E" x="-4.75" y="56.41" width="332.5" height="98.56" filterUnits="userSpaceOnUse" class="I"><feFlood result="A" class="J"/><feColorMatrix in="SourceAlpha" values="0 0 0 0 0 0 0 0 0 0 0 0 0 0 0 0 0 0 127 0" result="B"/><feOffset dy="1.78125"/><feGaussianBlur stdDeviation="2.38"/><feComposite in2="B" operator="out"/><feColorMatrix values="0 0 0 0 0 0 0 0 0 0 0 0 0 0 0 0 0 0 0.3 0"/><feBlend in2="A"/><feBlend in="SourceGraphic"/></filter><linearGradient id="F" x1="843.12" y1="381.38" x2="843.12" y2="497.75" href="#Z"><stop stop-color="#eaf4ff"/><stop offset="1" stop-color="#edf5ff"/></linearGradient><linearGradient id="G" x1="883.19" y1="298.85" x2="878.15" y2="277.47" href="#Z"><stop stop-color="#03397b"/><stop offset="1" stop-color="#0668e1"/></linearGradient><linearGradient id="H" x1="858.47" y1="299" x2="855.06" y2="245.86" href="#Z"><stop stop-color="#093b76"/><stop offset=".05" stop-color="#0f4780"/><stop offset=".25" stop-color="#236ea0"/><stop offset=".45" stop-color="#2e71c3"/><stop offset=".65" stop-color="#4283d3"/><stop offset=".83" stop-color="#418ae4"/><stop offset="1" stop-color="#4592f2"/></linearGradient><linearGradient id="I" x1="817.73" y1="359.78" x2="802.69" y2="339.1" href="#Z"><stop stop-color="#55a1ff"/><stop offset="1" stop-color="#0668e1"/></linearGradient><linearGradient id="J" x1="800.84" y1="337.39" x2="814.99" y2="354.81" href="#Z"><stop stop-color="#57a2ff"/><stop offset="1" stop-color="#217ff2"/></linearGradient><linearGradient id="K" x1="802.25" y1="342.81" x2="804.67" y2="342.81" href="#Z"><stop stop-color="#093b76"/><stop offset="1" stop-color="#001340"/></linearGradient><linearGradient id="L" x1="809.58" y1="342.72" x2="812" y2="342.72" href="#Z"><stop stop-color="#093b76"/><stop offset="1" stop-color="#001340"/></linearGradient><linearGradient id="M" x1="811.34" y1="349.38" x2="802.93" y2="349.38" href="#Z"><stop stop-color="#093b76"/><stop offset="1" stop-color="#001340"/></linearGradient><clipPath id="N"><rect width="1140" height="640" rx="16" class="B"/></clipPath><clipPath id="O"><path transform="translate(1038.06 90.98)" d="M0 0h32.88v32.88H0z" class="B"/></clipPath><clipPath id="P"><path transform="matrix(-1 0 0 -1 101.938 550.27)" d="M0 0h32.88v32.88H0z" class="B"/></clipPath><clipPath id="Q"><path transform="translate(665 141.5)" d="M0 0h356.25v356.25H0z" class="B"/></clipPath><path id="R" d="M876.02 257.46h-38.95a1 1 0 0 1-1-1 1 1 0 0 1 1-1h38.95a1 1 0 0 1 1 1 1 1 0 0 1-1 1z"/><path id="S" d="M802.25 342.81c0 .95.54 1.72 1.21 1.72s1.21-.77 1.21-1.72-.54-1.72-1.21-1.72-1.21.77-1.21 1.72z"/><path id="T" d="M939.7 327.1l-5.73.89 4.22 3.88-.9 5.57 5.1-2.7 5.18 2.55-1.07-5.55 4.1-4-5.76-.73-2.64-5.02-2.49 5.1z"/><path id="U" d="M898.73 327.1l-5.73.89 4.22 3.88-.9 5.57 5.1-2.7 5.18 2.55-1.06-5.55 4.1-4-5.75-.73-2.65-5.02-2.49 5.1z"/><path id="V" d="M980.62 464.94c-2.37.26-7.95.42-9.11-.28.29-.62 1.48-1.73 2.57-2.63.06.8.52 1.48 1.88 1.8a8.2 8.2 0 0 0 4.43-.32l.23 1.43z"/><path id="W" d="M789.68 275.03h24.86l1.66 1.66h-24.1l-2.41-1.66z"/><path id="X" d="M816.2 276.7v-24.18l-1.66-2.42v24.94l1.66 1.66z"/><path id="Y" d="M841.05 263.82h27.34v16.63h-27.34z"/><linearGradient id="Z" gradientUnits="userSpaceOnUse"/></defs></svg>