<svg xmlns="http://www.w3.org/2000/svg" viewBox="0 0 1140 640" xmlns:v="https://vecta.io/nano"><style><![CDATA[.Aa{fill:#e8a273}.Ab{fill:#fff}.Ac{fill:#c87e53}.Ad{fill:#0668e1}.Ae{fill:#fac2b0}.Af{fill:#99c7ff}.Ag{fill:#603f3c}.Ah{fill:#1c5c91}.Ai{fill:#367ec6}.Aj{fill:#aa784b}.Ak{fill:#1b1c17}.Al{fill:#232222}.Am{fill:#aaa58d}.An{fill:#f2f2f2}.Ao{fill:#2a89ff}]]></style><defs><path id="A" d="M16,0h1108c8.8,0,16,7.2,16,16v608c0,8.8-7.2,16-16,16H16c-8.8,0-16-7.2-16-16V16C0,7.2,7.2,0,16,0z"/><path id="B" d="M837.6 344.8l-1.7.1.8 2c.1.1.2.2.4.2l3.2-.2c.1 0 .2 0 .3.1l-2.8-2.2c0 0-.1 0-.2 0z"/><path id="C" d="M980.6 464.9c-2.4.3-7.9.4-9.1-.3.3-.6 1.5-1.7 2.6-2.6.7-.6 1.4-1 1.7-1.2-.6 2.9.6 1.1 2 .4 1-.5 1.5-.4 2.1.4.2.3.4 1.1.5 1.9l.2 1.4z"/><path id="D" d="M980.6 464.9c-2.4.3-7.9.4-9.1-.3.3-.6 1.5-1.7 2.6-2.6.1.8.5 1.5 1.9 1.8a8.2 8.2 0 0 0 4.4-.3l.2 1.4z"/><path id="E" d="M944.6 225.7c0 .9-.7 1.2-1.6.7a3.2 3.2 0 0 1-1.6-2.5c0-.9.7-1.2 1.6-.7a3.2 3.2 0 0 1 1.6 2.5z"/></defs><clipPath id="F"><use href="#A"/></clipPath><g clip-path="url(#F)"><path d="M16,0h1108c8.8,0,16,7.2,16,16v608c0,8.8-7.2,16-16,16H16c-8.8,0-16-7.2-16-16V16C0,7.2,7.2,0,16,0z" class="Ab"/><path d="M911.8 101.5a8.8 8.8 0 0 1 7.8-12.7h97.6a8.8 8.8 0 0 1 8.8 8.8v19.7a8.8 8.8 0 0 1-8.8 8.8h-87.7c-3.3 0-6.4-1.9-7.8-4.8l-9.9-19.8z" class="Ad"/><g class="Ab"><path d="M988.6 111.5c0-.7 0-1.5.2-2.2.1-.6 0-1-.4-1.4a11.5 11.5 0 0 1-1.4-1.7c-.7-1-.4-2.2.8-2.3a4.7 4.7 0 0 0 4.2-3.2c.5-1.1 1.7-1.1 2.4 0 0 .1.1.1.1.2.7 1.9 2 2.8 3.9 3 .3 0 .7.2.9.4.5.5.6 1.2.1 1.8a10.1 10.1 0 0 1-1.3 1.6c-.6.6-.7 1.2-.6 2 .1.6.1 1.2.2 1.8.1 1.2-.8 1.9-1.8 1.5-.7-.3-1.4-.7-2.2-.9a1.7 1.7 0 0 0-1 0l-2.2.9c-1.1.3-2-.4-1.9-1.5zm-19.8.2c.1-.8 0-1.4.1-2 .2-.9 0-1.5-.6-2.1-.4-.4-.8-.9-1.1-1.4-.7-1-.4-2 .7-2.3l1.8-.5a1.6 1.6 0 0 0 1.4-1.1c.3-.6.7-1.2 1-1.7.6-1 1.7-1 2.3 0 .4.6.7 1.3 1.2 2 .2.3.6.6 1 .8.6.2 1.3.3 2 .5 1.3.3 1.7 1.4.8 2.5-.5.6-1 1.1-1.4 1.8-.2.3-.3.7-.3 1 0 .8.1 1.5.2 2.3.1 1.2-.9 2-1.9 1.4-1.8-1.1-3.5-1.1-5.3 0-1 .5-1.9-.3-1.9-1.2zm-19.7-.1l.2-2.5c0-.4-.2-.8-.4-1.2-.4-.6-1-1.2-1.4-1.8-.7-.9-.4-2 .8-2.3.2-.1.4-.1.6-.2 1.7-.1 2.7-1.1 3.4-2.6.1-.2.2-.4.4-.6a1.3 1.3 0 0 1 2.2 0l1.2 2c.3.5.7.7 1.2.9.7.1 1.3.3 2 .5 1.1.3 1.5 1.4.8 2.3-.1.2-.2.3-.4.4-1.6 1.9-1.6 1.9-1.3 4.4v.6c0 1-.9 1.6-1.8 1.3l-2.3-1c-.3-.1-.6-.1-.9 0l-2.3 1c-1.2.5-2.1-.2-2-1.2z"/></g><path d="M1050.9 67.8c2.2-1.3 4.9-1.3 7.1 0l28.9 16.7a7.2 7.2 0 0 1 3.6 6.2v33.4a7.1 7.1 0 0 1-3.6 6.2L1058 147c-2.2 1.3-4.9 1.3-7.1 0l-28.9-16.7a7.2 7.2 0 0 1-3.6-6.2V90.7a7.3 7.3 0 0 1 3.6-6.2l28.9-16.7z" class="Ad"/><defs><path id="G" d="M1038.1 91h32.9v32.9h-32.9z"/></defs><clipPath id="H"><use href="#G"/></clipPath><g clip-path="url(#H)" class="Ab"><path d="M1046.7 113.4v-7.7a3.6 3.6 0 0 1 .2-1.1l5.3-11.4c.3-.6.7-.9 1.3-.8.9 0 1.8-.1 2.7.3 1.6.7 2.3 1.9 2.4 3.6v3.6 1.5c0 .7 0 .7.7.7h6.1a5.9 5.9 0 0 1 1.4.2c1.8.7 2.8 2.4 2.5 4.3l-1.6 10.1-.4 2.6c-.3 1.7-1.9 3-3.6 3h-15.9c-.7 0-1.1-.4-1.1-1.2v-7.7zm-1.4 9.1h-3.5c-1.2-.1-2.1-1.2-2.1-2.5v-7-6.1c0-1.7 1-2.7 2.7-2.7h3l-.1 2.6v12.6 3.1z"/></g><path d="M228.2 527.9a8.8 8.8 0 0 0-7.8-12.7h-97.6a8.8 8.8 0 0 0-8.8 8.8v19.7a8.8 8.8 0 0 0 8.8 8.8h87.7c3.3 0 6.4-1.9 7.8-4.8l9.9-19.8z" class="Ad"/><g fill="none" stroke="#fff" stroke-width="1.1"><path d="M146.9 526.8c-.2 0-.5.1-.8.6h0v.1c-.4 1-.9 1.8-1.7 2.4s-1.7.9-2.7 1h0c-.2 0-.4.1-.6.3h0c-.3.2-.3.7 0 1.1.4.6.8 1.1 1.2 1.5h0c.4.3.6.7.7 1.2.1.4.1.8 0 1.3-.1.6-.1 1.1-.2 1.8 0 .4.1.7.3.9.2.1.4.2.8.1h0c.4-.1.7-.3 1.1-.5l1.1-.5h0 .2c.4-.1.9-.1 1.2.1h0a3.7 3.7 0 0 1 1.1.5l1.1.5c.4.1.6.1.8-.1.2-.1.3-.4.3-.8 0-.8 0-1.5-.1-2.2a1.7 1.7 0 0 1 0-1c.1-.2.2-.5.3-.6l.2-.2c.2-.3.5-.5.7-.8l.7-.9c.3-.4.3-.7.2-1-.1-.2-.3-.4-.6-.5-1.1-.1-2-.5-2.8-1.1s-1.4-1.4-1.9-2.5h0c-.1-.6-.4-.7-.6-.7zm19.7 0c-.2 0-.5.1-.7.5h0a8.8 8.8 0 0 0-.6 1c-.2.3-.4.7-.6 1h0c-.3.4-.8.8-1.2 1h0l-1 .3c-.4.1-.7.1-1 .2h0c-.6.1-.8.4-.8.6-.1.2 0 .5.3 1 .4.5.9 1 1.3 1.6l.2.2a2.3 2.3 0 0 1 .4 1.4c0 .4 0 .8-.1 1.2 0 .2 0 .4-.1.6v.6c0 .5.1.8.3.9s.4.2.7 0c1-.6 1.9-.9 2.9-.9a5.1 5.1 0 0 1 2.6.7l.4.2c.3.2.6.1.8 0s.3-.3.3-.5v-.1-1.1c0-.3 0-.6-.1-.8h0a3.3 3.3 0 0 1 0-1.4c.1-.5.4-.8.8-1.2h0c.4-.4.7-.8 1.1-1.3.3-.4.3-.7.2-.9s-.3-.4-.7-.6c-.6-.2-1.2-.3-1.8-.4h0c-.4-.1-.8-.2-1.1-.4s-.6-.6-.8-1h0c-.3-.6-.6-1.1-1-1.7h0c-.2-.6-.5-.7-.7-.7zm19.7 0c-.2 0-.4.1-.6.4h0c-.4.6-.8 1.3-1.2 2h0c-.2.3-.4.6-.7.8s-.6.3-.9.4a13.3 13.3 0 0 0-1.9.5h0c-.4.1-.6.3-.7.6-.1.2 0 .5.2.9.1.1.2.2.3.4.8.9 1.3 1.5 1.5 2.2s.1 1.4 0 2.6h0v.5h0c0 .4.2.6.3.7.2.1.4.2.7.1h0c.4-.1.7-.3 1.1-.5s.8-.3 1.2-.5h0c.4-.1.9-.1 1.3 0h0a6.1 6.1 0 0 1 1.2.5l1.1.5c.6.3 1.1-.2 1.1-.7l-.2-2.6a2.7 2.7 0 0 1 .5-1.5h0l.2-.2c.2-.2.4-.5.6-.7.3-.3.5-.6.7-.9h0c.3-.4.3-.7.2-.9s-.3-.5-.7-.6h0c-.1 0-.3-.1-.3-.1h-.2 0c-1 0-1.8-.3-2.4-.9-.6-.5-1.1-1.2-1.5-2.1h0c-.1-.1-.2-.3-.3-.5-.1-.3-.4-.4-.6-.4z"/></g><path d="M89.1 494.2c-2.2-1.3-4.9-1.3-7.1 0l-29 16.7a7.2 7.2 0 0 0-3.6 6.2v33.4a7.3 7.3 0 0 0 3.6 6.2l28.9 16.7c2.2 1.3 4.9 1.3 7.1 0l28.9-16.7a7.2 7.2 0 0 0 3.6-6.2v-33.4a7.3 7.3 0 0 0-3.6-6.2l-28.8-16.7z" class="Ad"/><defs><path id="I" d="M69.1 517.4H102v32.9H69.1z"/></defs><clipPath id="J"><use href="#I"/></clipPath><g clip-path="url(#J)" class="Ab"><path d="M93.3 527.9v7.7a3.6 3.6 0 0 1-.2 1.1l-5.3 11.4c-.3.6-.7.9-1.3.8-.9 0-1.8.1-2.7-.3-1.5-.7-2.3-1.9-2.4-3.6v-3.6-1.5c0-.7 0-.7-.7-.7h-6c-.5 0-1-.1-1.5-.2-1.8-.7-2.8-2.4-2.5-4.3l1.6-10.1.4-2.6c.3-1.7 1.9-3 3.6-3h15.9c.7 0 1.1.4 1.1 1.2v7.7zm1.4-9.1h3.5c1.2.1 2.1 1.2 2.1 2.5v7 6.1c0 1.7-1 2.7-2.7 2.7h-3l.1-2.6v-12.6-3.1z"/></g><path d="M124 254.9l4 9.5 4.1-9.5h5.7l-7.1 14.1v7.9h-5.4V269l-7.1-14.1h5.8zm13.6 14v-.3a11.4 11.4 0 0 1 .5-3.3c.3-1 .8-1.9 1.5-2.6a7.4 7.4 0 0 1 2.5-1.7c1-.4 2.1-.6 3.4-.6s2.4.2 3.4.6a7.4 7.4 0 0 1 2.5 1.7c.7.7 1.2 1.6 1.5 2.6a11.4 11.4 0 0 1 .5 3.3v.3a11.4 11.4 0 0 1-.5 3.3c-.3 1-.8 1.9-1.5 2.6a7.4 7.4 0 0 1-2.5 1.7c-1 .4-2.1.6-3.4.6s-2.4-.2-3.4-.6a7.4 7.4 0 0 1-2.5-1.7 6.8 6.8 0 0 1-1.5-2.6 8.8 8.8 0 0 1-.5-3.3zm5.1-.3v.3c0 .6 0 1.2.1 1.7s.2 1 .5 1.4c.2.4.5.7.9.9a2.9 2.9 0 0 0 1.4.3 2.5 2.5 0 0 0 1.3-.3c.4-.2.6-.5.9-.9a5.8 5.8 0 0 0 .5-1.4c.1-.5.1-1.1.1-1.7v-.3c0-.6 0-1.1-.1-1.7-.1-.5-.2-1-.5-1.4-.2-.4-.5-.7-.9-1a2.9 2.9 0 0 0-1.4-.3 2.5 2.5 0 0 0-1.3.3c-.4.2-.6.6-.8 1a5.8 5.8 0 0 0-.5 1.4c-.2.5-.2 1.1-.2 1.7zm22.4 4.3v-12.3h5.1v16.3h-4.8l-.3-4zm.5-3.3h1.3c0 1.1-.1 2.1-.4 3s-.6 1.7-1.2 2.4c-.5.7-1.1 1.2-1.9 1.6-.7.4-1.6.6-2.5.6a7.8 7.8 0 0 1-2.2-.3c-.7-.2-1.2-.6-1.7-1.1a4 4 0 0 1-1.1-1.9c-.3-.8-.4-1.7-.4-2.8v-10.6h5.1v10.6c0 .4 0 .7.1.9.1.3.2.5.4.7s.4.3.6.4c.3.1.6.1.9.1.8 0 1.4-.2 1.8-.5s.7-.8.9-1.3.3-1.1.3-1.8zm12.5-5v12.3H173v-16.3h4.7l.4 4zm4.9-4.2l-.1 4.7c-.2 0-.5 0-.8-.1h-.9c-.6 0-1.1.1-1.5.2s-.8.3-1.1.6-.5.6-.6 1a5.9 5.9 0 0 0-.2 1.4l-.9-.6c0-1.1.1-2.1.3-3a6.9 6.9 0 0 1 .9-2.3 3.6 3.6 0 0 1 1.5-1.5 3.2 3.2 0 0 1 1.9-.5h.7c.3 0 .6.1.8.1zm27.6 4.7v9c-.4.4-.9.9-1.7 1.3-.8.5-1.7.9-2.9 1.2a16.4 16.4 0 0 1-4.1.5 10.2 10.2 0 0 1-4-.7c-1.2-.5-2.2-1.2-3.1-2.1-.8-.9-1.5-2-2-3.3s-.7-2.8-.7-4.6v-1.2c0-1.7.2-3.2.7-4.6a10.6 10.6 0 0 1 1.9-3.3c.8-.9 1.8-1.6 3-2.1a9.2 9.2 0 0 1 3.8-.7c2 0 3.7.3 4.9 1a6.7 6.7 0 0 1 2.9 2.6c.7 1.1 1 2.4 1.2 3.9h-5.1c-.1-.7-.3-1.3-.6-1.8s-.7-.9-1.2-1.2-1.2-.4-2-.4c-.6 0-1.2.1-1.7.4s-1 .7-1.3 1.2c-.4.5-.6 1.2-.8 2.1a12.3 12.3 0 0 0-.3 2.9v1.3a12.3 12.3 0 0 0 .3 2.9c.2.8.5 1.5.8 2.1.4.5.9 1 1.4 1.2.6.3 1.3.4 2.1.4.6 0 1 0 1.4-.1a3 3 0 0 0 1-.4l.6-.4v-3.4h-3.7v-3.6h9.2zm12.4 7.8v-12.3h5.1v16.3h-4.8l-.3-4zm.4-3.3h1.3c0 1.1-.1 2.1-.4 3s-.6 1.7-1.2 2.4c-.5.7-1.1 1.2-1.9 1.6-.7.4-1.6.6-2.5.6a7.8 7.8 0 0 1-2.2-.3c-.7-.2-1.2-.6-1.7-1.1a4 4 0 0 1-1.1-1.9c-.3-.8-.4-1.7-.4-2.8v-10.6h5.1v10.6c0 .4 0 .7.1.9.1.3.2.5.4.7s.4.3.6.4c.3.1.6.1.9.1.8 0 1.4-.2 1.8-.5s.7-.8.9-1.3c.3-.5.3-1.1.3-1.8zm12.8-9v16.3h-5.1v-16.3h5.1zm-5.4-4.3a2.5 2.5 0 0 1 .8-1.8c.5-.5 1.2-.7 2-.7s1.5.2 2 .7a2.5 2.5 0 0 1 .8 1.8 2.5 2.5 0 0 1-.8 1.8c-.5.5-1.2.7-2 .7s-1.5-.2-2-.7a2.2 2.2 0 0 1-.8-1.8zm17.9 16.8v-19.4h5.1v23.2h-4.6l-.5-3.8zm-10-4.2v-.3a12.2 12.2 0 0 1 .4-3.4c.3-1 .7-1.9 1.2-2.6a5.5 5.5 0 0 1 2-1.7c.8-.4 1.7-.6 2.7-.6.9 0 1.7.2 2.4.6s1.3 1 1.8 1.8.9 1.7 1.2 2.7a27.2 27.2 0 0 1 .7 3.3v.4l-.7 3.1c-.3 1-.7 1.8-1.2 2.6s-1.1 1.3-1.8 1.8c-.7.4-1.5.6-2.4.6-1 0-1.9-.2-2.7-.6s-1.4-1-2-1.7c-.5-.7-.9-1.6-1.2-2.6-.2-1.1-.4-2.2-.4-3.4zm5.1-.3v.3c0 .6 0 1.2.1 1.7s.2 1 .4 1.4.5.7.8.9.7.3 1.2.3c.7 0 1.2-.2 1.6-.5s.7-.8 1-1.3a6 6 0 0 0 .3-2v-1.2c0-.7 0-1.2-.1-1.7s-.3-.9-.5-1.3c-.2-.3-.5-.6-.9-.8s-.8-.3-1.3-.3-.9.1-1.2.3-.6.5-.8.9-.3.9-.4 1.4l-.2 1.9zm20.8 8.6c-1.3 0-2.5-.2-3.6-.6a9.5 9.5 0 0 1-2.7-1.7 6.7 6.7 0 0 1-1.6-2.5c-.4-1-.6-2-.6-3v-.6a11.4 11.4 0 0 1 .5-3.3 7.2 7.2 0 0 1 1.5-2.7 6.4 6.4 0 0 1 2.5-1.8c1-.4 2.1-.6 3.4-.6 1.2 0 2.2.2 3.1.6s1.7.9 2.3 1.6 1.1 1.5 1.5 2.5a11.4 11.4 0 0 1 .5 3.3v2.1h-13.3v-3.2h8.4v-.4a3.2 3.2 0 0 0-.3-1.4c-.2-.4-.5-.7-.8-.9a2.9 2.9 0 0 0-1.4-.3c-.6 0-1 .1-1.4.4-.4.2-.6.6-.8 1s-.3.9-.4 1.4-.1 1.1-.1 1.7v.6c0 .6.1 1.2.2 1.6a5.4 5.4 0 0 0 .7 1.3c.3.3.7.6 1.1.8a4 4 0 0 0 1.5.3c.7 0 1.4-.1 2.1-.4a3.7 3.7 0 0 0 1.7-1.3l2.3 2.7c-.3.5-.8.9-1.4 1.4a9 9 0 0 1-2.2 1.1c-.7.1-1.6.3-2.7.3zm25.2-16.6v3.5H280v-3.5h9.8zm-7.7-4.1h5.1v15c0 .4 0 .8.2 1a1.2 1.2 0 0 0 .5.5c.3.1.6.1 1 .1h.7c.2 0 .4 0 .5-.1v3.6l-1.4.3c-.5.1-1 .1-1.5.1a7.8 7.8 0 0 1-2.8-.5c-.8-.3-1.3-.9-1.7-1.6s-.6-1.7-.6-2.9v-15.5zm8.7 12.4v-.3a11.4 11.4 0 0 1 .5-3.3c.3-1 .8-1.9 1.5-2.6a7.4 7.4 0 0 1 2.5-1.7c1-.4 2.1-.6 3.4-.6s2.4.2 3.4.6a7.4 7.4 0 0 1 2.5 1.7c.7.7 1.2 1.6 1.5 2.6a11.4 11.4 0 0 1 .5 3.3v.3a11.4 11.4 0 0 1-.5 3.3c-.3 1-.8 1.9-1.5 2.6a7.4 7.4 0 0 1-2.5 1.7c-1 .4-2.1.6-3.4.6s-2.4-.2-3.4-.6a7.4 7.4 0 0 1-2.5-1.7 6.8 6.8 0 0 1-1.5-2.6 8.8 8.8 0 0 1-.5-3.3zm5.1-.3v.3c0 .6 0 1.2.1 1.7s.2 1 .5 1.4c.2.4.5.7.9.9a2.9 2.9 0 0 0 1.4.3 2.5 2.5 0 0 0 1.3-.3c.4-.2.6-.5.9-.9a5.8 5.8 0 0 0 .5-1.4c.1-.5.1-1.1.1-1.7v-.3c0-.6 0-1.1-.1-1.7-.1-.5-.2-1-.5-1.4-.2-.4-.5-.7-.9-1a2.9 2.9 0 0 0-1.4-.3 2.5 2.5 0 0 0-1.3.3c-.4.2-.6.6-.8 1a5.8 5.8 0 0 0-.5 1.4c-.2.5-.2 1.1-.2 1.7zm20.8-13.7h8.6c1.7 0 3.2.3 4.4.8s2.2 1.2 2.9 2.2a6.1 6.1 0 0 1 1 3.6 7.6 7.6 0 0 1-.6 3.2c-.4.8-.9 1.5-1.6 2.1a9.2 9.2 0 0 1-2.4 1.3l-1.7 1H320V265h5.4c.7 0 1.2-.1 1.7-.4a2.4 2.4 0 0 0 1-1c.2-.5.3-1 .3-1.6a3.8 3.8 0 0 0-.3-1.6c-.2-.5-.6-.8-1-1s-1-.4-1.6-.4H322v17.9h-5.3v-22zm12 22l-4.9-9.7h5.6l4.9 9.5v.2h-5.6zm15.8.3c-1.3 0-2.5-.2-3.6-.6a9.5 9.5 0 0 1-2.7-1.7 6.7 6.7 0 0 1-1.6-2.5c-.4-1-.6-2-.6-3v-.6a11.4 11.4 0 0 1 .5-3.3 7.2 7.2 0 0 1 1.5-2.7 6.4 6.4 0 0 1 2.5-1.8c1-.4 2.1-.6 3.4-.6 1.2 0 2.2.2 3.1.6s1.7.9 2.3 1.6 1.1 1.5 1.5 2.5a11.4 11.4 0 0 1 .5 3.3v2.1H338v-3.2h8.4v-.4a3.2 3.2 0 0 0-.3-1.4c-.2-.4-.5-.7-.8-.9a2.9 2.9 0 0 0-1.4-.3c-.6 0-1 .1-1.4.4-.4.2-.6.6-.8 1s-.3.9-.4 1.4-.1 1.1-.1 1.7v.6c0 .6.1 1.2.2 1.6a5.4 5.4 0 0 0 .7 1.3c.3.3.7.6 1.1.8a4 4 0 0 0 1.5.3c.7 0 1.4-.1 2.1-.4a3.7 3.7 0 0 0 1.7-1.3l2.3 2.7c-.3.5-.8.9-1.4 1.4a9 9 0 0 1-2.2 1.1c-.7.1-1.7.3-2.7.3zm17.4-4.4V266c0-.5-.1-.9-.2-1.2s-.3-.6-.6-.8-.7-.3-1.1-.3-.7.1-1 .2a.9.9 0 0 0-.6.6c-.1.3-.2.6-.2 1h-5.1c0-.8.2-1.5.5-2.1.3-.7.8-1.2 1.4-1.7a5.5 5.5 0 0 1 2.3-1.1c.9-.3 1.9-.4 3-.4a9.5 9.5 0 0 1 3.5.6c1 .4 1.8 1.1 2.4 1.9a5.5 5.5 0 0 1 .9 3.2v6.7c0 1.1.1 1.9.2 2.4a5.8 5.8 0 0 0 .5 1.4v.3h-5.1c-.2-.5-.4-1.1-.5-1.8a7.1 7.1 0 0 1-.3-2.1zm.6-5.9v2.7h-2.2c-.5 0-.9.1-1.2.2s-.6.3-.8.5-.3.5-.4.8-.1.6-.1.9.1.6.2.8c.2.2.4.4.6.5.3.1.5.2.8.2a2.9 2.9 0 0 0 1.4-.3c.4-.2.7-.5.9-.8s.3-.6.3-.9l1.1 2.1c-.2.4-.4.8-.7 1.2l-.9 1.1c-.4.3-.8.6-1.4.8-.5.2-1.2.3-2 .3a6.7 6.7 0 0 1-2.8-.6 5.5 5.5 0 0 1-2-1.7c-.5-.7-.8-1.6-.8-2.6 0-.8.2-1.6.5-2.3s.8-1.2 1.4-1.7 1.4-.8 2.4-1.1a16.7 16.7 0 0 1 3.4-.4h2.3zm12.7-13.2v23.2h-5.1v-23.2h5.1zm8 19.3v3.2a8 8 0 0 1-.9 3.6c-.6 1.2-1.3 2.2-2.2 2.9l-2.6-1.2c.2-.5.4-.9.7-1.4a4.4 4.4 0 0 0 .6-1.6c.2-.6.3-1.3.3-2.1V273h4.1zm11.4-18.1h8.6c1.7 0 3.2.3 4.4.8s2.2 1.2 2.9 2.2a6.1 6.1 0 0 1 1 3.6 7.6 7.6 0 0 1-.6 3.2c-.4.8-.9 1.5-1.6 2.1a9.2 9.2 0 0 1-2.4 1.3l-1.7 1h-7.3V265h5.4c.7 0 1.2-.1 1.7-.4a2.4 2.4 0 0 0 1-1c.2-.5.3-1 .3-1.6a3.8 3.8 0 0 0-.3-1.6c-.2-.5-.6-.8-1-1s-1-.4-1.6-.4h-3.3v17.9h-5.3v-22zm12 22l-4.9-9.7h5.6l4.9 9.5v.2h-5.6zm15.8.3c-1.3 0-2.5-.2-3.6-.6a9.5 9.5 0 0 1-2.7-1.7 6.7 6.7 0 0 1-1.6-2.5c-.4-1-.6-2-.6-3v-.6a11.4 11.4 0 0 1 .5-3.3 7.2 7.2 0 0 1 1.5-2.7 6.4 6.4 0 0 1 2.5-1.8c1-.4 2.1-.6 3.4-.6 1.2 0 2.2.2 3.1.6s1.7.9 2.3 1.6 1.1 1.5 1.5 2.5a11.4 11.4 0 0 1 .5 3.3v2.1h-13.3v-3.2h8.4v-.4a3.2 3.2 0 0 0-.3-1.4c-.2-.4-.5-.7-.8-.9a2.9 2.9 0 0 0-1.4-.3c-.6 0-1 .1-1.4.4-.4.2-.6.6-.8 1s-.3.9-.4 1.4-.1 1.1-.1 1.7v.6c0 .6.1 1.2.2 1.6a5.4 5.4 0 0 0 .7 1.3c.3.3.7.6 1.1.8a4 4 0 0 0 1.5.3c.7 0 1.4-.1 2-.4a3.7 3.7 0 0 0 1.7-1.3l2.3 2.7c-.3.5-.8.9-1.4 1.4a9 9 0 0 1-2.2 1.1c-.6.1-1.6.3-2.6.3zm14.3-23.5v23.2h-5.1v-23.2h5.1zm8.5 6.9v16.3h-5.1v-16.3h5.1zm-5.4-4.3a2.5 2.5 0 0 1 .8-1.8c.5-.5 1.2-.7 2-.7s1.5.2 2 .7a2.5 2.5 0 0 1 .8 1.8 2.5 2.5 0 0 1-.8 1.8c-.5.5-1.2.7-2 .7s-1.5-.2-2-.7c-.6-.4-.8-1-.8-1.8zm17 16.5V266c0-.5-.1-.9-.2-1.2s-.3-.6-.6-.8-.7-.3-1.1-.3-.7.1-1 .2a.9.9 0 0 0-.6.6c-.1.3-.2.6-.2 1H448c0-.8.2-1.5.5-2.1.3-.7.8-1.2 1.4-1.7a5.5 5.5 0 0 1 2.3-1.1c.9-.3 1.9-.4 3-.4a9.5 9.5 0 0 1 3.5.6c1 .4 1.8 1.1 2.4 1.9a5.5 5.5 0 0 1 .9 3.2v6.7c0 1.1.1 1.9.2 2.4a5.8 5.8 0 0 0 .5 1.4v.3h-5.1c-.2-.5-.4-1.1-.5-1.8-.3-.6-.3-1.4-.3-2.1zm.6-5.9v2.7h-2.2c-.5 0-.9.1-1.2.2s-.6.3-.8.5-.3.5-.4.8-.1.6-.1.9.1.6.2.8c.2.2.4.4.6.5.3.1.5.2.8.2a2.9 2.9 0 0 0 1.4-.3c.4-.2.7-.5.9-.8s.3-.6.3-.9l1.1 2.1c-.2.4-.4.8-.7 1.2s-.6.8-1 1.1-.8.6-1.4.8c-.5.2-1.2.3-2 .3a6.7 6.7 0 0 1-2.8-.6 5.5 5.5 0 0 1-2-1.7c-.5-.7-.8-1.6-.8-2.6 0-.8.2-1.6.5-2.3s.8-1.2 1.4-1.7 1.4-.8 2.4-1.1a16.7 16.7 0 0 1 3.4-.4h2.4zm7.4-13.2h5.1v19.1l-.5 4h-4.6v-23.1zm15.1 14.8v.3a12.2 12.2 0 0 1-.4 3.4c-.3 1-.6 1.9-1.2 2.6a5.5 5.5 0 0 1-2 1.7 6.1 6.1 0 0 1-2.8.6c-1 0-1.8-.2-2.5-.6s-1.3-1-1.8-1.8-.9-1.6-1.1-2.6c-.3-1-.5-2.1-.7-3.2v-.4l.7-3.2a12.7 12.7 0 0 1 1.1-2.6 5.9 5.9 0 0 1 1.7-1.8c.7-.4 1.5-.6 2.5-.6a6.1 6.1 0 0 1 2.8.6 5.5 5.5 0 0 1 2 1.7c.5.7.9 1.6 1.2 2.6a11.4 11.4 0 0 1 .5 3.3zm-5.1.3v-.3c0-.6 0-1.1-.1-1.7-.1-.5-.2-1-.4-1.4s-.4-.7-.8-1a2.5 2.5 0 0 0-1.3-.3 3.2 3.2 0 0 0-1.4.3c-.4.2-.7.4-.9.8-.2.3-.4.7-.5 1.2s-.1 1-.1 1.6v1.2a12.5 12.5 0 0 0 .2 2.1 3.4 3.4 0 0 0 .9 1.4c.4.3 1 .5 1.7.5a2.5 2.5 0 0 0 1.3-.3c.3-.2.6-.5.8-.9a3.2 3.2 0 0 0 .3-1.4c.2-.5.3-1.1.3-1.8zm12.7-15.1v23.2h-5.1v-23.2h5.1zm11 23.5c-1.3 0-2.5-.2-3.6-.6a9.5 9.5 0 0 1-2.7-1.7 6.7 6.7 0 0 1-1.6-2.5c-.4-1-.6-2-.6-3v-.6a11.4 11.4 0 0 1 .5-3.3 7.2 7.2 0 0 1 1.5-2.7 6.4 6.4 0 0 1 2.5-1.8c1-.4 2.1-.6 3.4-.6 1.2 0 2.2.2 3.1.6s1.7.9 2.3 1.6 1.1 1.5 1.5 2.5a11.4 11.4 0 0 1 .5 3.3v2.1H492v-3.2h8.4v-.4a3.2 3.2 0 0 0-.3-1.4c-.2-.4-.5-.7-.8-.9a2.9 2.9 0 0 0-1.4-.3c-.6 0-1 .1-1.4.4-.4.2-.6.6-.8 1s-.3.9-.4 1.4-.1 1.1-.1 1.7v.6c0 .6.1 1.2.2 1.6a5.4 5.4 0 0 0 .7 1.3c.3.3.7.6 1.1.8a4 4 0 0 0 1.5.3c.7 0 1.4-.1 2.1-.4a3.7 3.7 0 0 0 1.7-1.3l2.3 2.7c-.3.5-.8.9-1.4 1.4a9 9 0 0 1-2.2 1.1c-.7.1-1.6.3-2.7.3zM154 350.5l-1.6 9.4h-26.3l1.6-9.4H154zm-14.8-41.3l-8.8 50.7h-11.9l8.8-50.7h11.9zm15.1 20.1l-1.6 9.1h-22.9l1.6-9.1h22.9zm6.9-20.1l-1.6 9.4h-26.4l1.7-9.4h26.3zm12 21.6l-5 29h-11.4l6.5-37.6H174l-.8 8.6zm-2.8 9l-2.5.1a32 32 0 0 1 1.4-6.7c.7-2.2 1.8-4.2 3.1-6a13.8 13.8 0 0 1 4.8-4.2c1.9-1 4.2-1.5 6.7-1.5a9.3 9.3 0 0 1 4.7 1.2 7 7 0 0 1 2.9 3c.7 1.2 1.2 2.6 1.4 4.2a19.3 19.3 0 0 1 .1 4.8l-4.2 25.1h-11.4l3.9-23.7c.1-1 .1-1.9.1-2.7-.1-.9-.3-1.6-.8-2.1-.5-.6-1.3-.8-2.5-.9-1.3 0-2.3.2-3.2.8s-1.7 1.3-2.3 2.2a14 14 0 0 0-1.5 3c-.3 1.2-.6 2.3-.7 3.4zm20.8 0l-3 .1c.2-2.2.7-4.5 1.4-6.6a21.1 21.1 0 0 1 3-6 13.8 13.8 0 0 1 4.8-4.2c1.9-1 4.2-1.5 6.7-1.5 2.1.1 3.8.5 5.1 1.4a8.2 8.2 0 0 1 3.1 3.3 13.6 13.6 0 0 1 1.4 4.7 23.5 23.5 0 0 1 0 5.3l-4 23.7h-11.5l4-23.7c.1-1 .1-1.8.1-2.7-.1-.9-.3-1.6-.8-2.1-.5-.6-1.3-.8-2.4-.9-1.3 0-2.4.2-3.3.8s-1.7 1.3-2.3 2.2a10.3 10.3 0 0 0-1.4 3 16.8 16.8 0 0 0-.9 3.2zm41.7-9.7l-7.7 44.3h-11.4l9-52.1h10.6l-.5 7.8zm20.5 10.3l-.1.7a34.4 34.4 0 0 1-1.6 6.9c-.8 2.3-1.8 4.4-3.2 6.4-1.3 1.9-3 3.5-4.9 4.6a13.2 13.2 0 0 1-7 1.6c-2.3-.1-4.3-.7-5.7-1.9a13.8 13.8 0 0 1-3.5-4.7c-.8-1.9-1.4-4-1.7-6.1-.3-2.2-.4-4.2-.4-6l.1-1a36.9 36.9 0 0 1 1.7-6.5c.8-2.3 1.9-4.4 3.2-6.3a15.7 15.7 0 0 1 4.8-4.8c1.9-1.2 4-1.8 6.5-1.7 2.6.1 4.7.7 6.3 1.8a11.2 11.2 0 0 1 3.8 4.5c.9 1.8 1.4 3.9 1.6 6.1s.3 4.3.1 6.4zm-11.5.7l.1-.7c.1-.8.1-1.8.2-2.9 0-1.1 0-2.2-.2-3.2s-.5-1.9-1.1-2.6-1.5-1.1-2.7-1.1c-1.4-.1-2.6.2-3.5.7-1 .5-1.7 1.2-2.3 2.1s-1 1.9-1.4 3.1c-.3 1.1-.6 2.3-.7 3.4l-.3 2.9c-.2 1.3-.2 2.7-.1 4s.5 2.5 1.2 3.4 1.9 1.4 3.6 1.5a5 5 0 0 0 3.3-1c.9-.7 1.6-1.6 2.2-2.6.6-1.1 1-2.2 1.3-3.4l.4-3.6zm34.5-34.7l-9.3 53.4h-11.5l9.3-53.4h11.5zm-.5 35.2l.1-.7c.3-2.7 1-5.3 2-7.6a20.3 20.3 0 0 1 4.1-6.2c1.7-1.8 3.7-3.2 6.1-4.1a17.8 17.8 0 0 1 7.8-1.4c2.8 0 5.1.6 7.2 1.6 2 1 3.7 2.4 5 4.2a15.4 15.4 0 0 1 2.7 6.1c.6 2.3.7 4.7.5 7.3l-.1.8a25.9 25.9 0 0 1-2 7.5 21.6 21.6 0 0 1-4.1 6.2 17.8 17.8 0 0 1-6 4.1c-2.3 1-4.9 1.4-7.8 1.4a15.8 15.8 0 0 1-7.1-1.6c-2-1-3.7-2.4-5-4.1a16.6 16.6 0 0 1-2.8-6 23.6 23.6 0 0 1-.6-7.5zm11.6-.7l-.1.7c-.1 1-.1 2-.1 3.1s.1 2.2.4 3.2.7 1.9 1.4 2.5a4.5 4.5 0 0 0 3 1c1.4 0 2.6-.2 3.5-.9 1-.6 1.7-1.5 2.3-2.5s1-2.2 1.3-3.4l.7-3.5.1-.7c.1-.9.1-2 .1-3.1 0-1.2-.1-2.3-.3-3.3-.3-1-.7-1.9-1.4-2.6s-1.7-1.1-3-1.1c-1.4 0-2.6.3-3.5.9a7.3 7.3 0 0 0-2.3 2.6c-.6 1-1 2.2-1.3 3.4-.5 1.4-.7 2.6-.8 3.7zm36.9 14l15-32.7H352l-22.1 43.3a25 25 0 0 1-2.3 3.9c-.8 1.2-1.8 2.2-2.9 3.1s-2.3 1.5-3.6 2-2.9.7-4.6.7c-.9 0-1.7-.1-2.6-.2a22.1 22.1 0 0 1-2.5-.5l.9-8.4h.7.7a10.3 10.3 0 0 0 2.6-.3 5.1 5.1 0 0 0 2.1-1 6.4 6.4 0 0 0 1.6-2l4.4-7.9zm3.2-32.7l2.7 26.9-.9 11.8H322l-6.3-38.8h11.9zm38.7 38.4a18 18 0 0 1-7.1-1.4 16 16 0 0 1-5.4-3.8c-1.5-1.6-2.6-3.5-3.3-5.7a18.8 18.8 0 0 1-.8-7.2l.1-1.4c.3-2.7.9-5.3 1.9-7.7s2.4-4.5 4.1-6.3a17.5 17.5 0 0 1 6.1-4.2c2.3-1 5-1.5 7.9-1.4 2.6 0 4.9.6 6.8 1.6a13.3 13.3 0 0 1 4.7 4.1c1.2 1.7 2 3.6 2.5 5.8a20.3 20.3 0 0 1 .3 7l-.7 4.8h-29.9l1.2-7.3h18.4l.2-1c.2-1.1.1-2.1-.1-3-.3-.9-.7-1.6-1.4-2.1s-1.6-.8-2.8-.9c-1.4 0-2.6.3-3.6.9a7.3 7.3 0 0 0-2.3 2.6 13.3 13.3 0 0 0-1.3 3.5c-.3 1.2-.5 2.4-.7 3.5l-.1 1.3c-.1 1.1-.1 2.2.1 3.3s.5 2 1 2.9a5.3 5.3 0 0 0 2.1 2.1 6.3 6.3 0 0 0 3.2.8c1.7 0 3.4-.3 4.9-1a12.8 12.8 0 0 0 4.1-2.9l4.8 6.3a11.2 11.2 0 0 1-4 3.8c-1.6 1-3.4 1.6-5.3 2.1a16 16 0 0 1-5.6.9zm35.4-28.4l-4.8 27.7h-11.4l6.5-37.6h10.6l-.9 9.9zm12.4-10.3l-1.5 10.9-1.8-.2c-.6-.1-1.2-.1-1.8-.1a9.9 9.9 0 0 0-3.5.5c-1 .3-1.9.8-2.7 1.4-.7.6-1.4 1.4-1.8 2.4-.5 1-.8 2.1-1.1 3.3l-1.9-1.4c.2-1.8.6-3.6 1.1-5.6a25.1 25.1 0 0 1 2.2-5.6 13 13 0 0 1 3.7-4.3 9.3 9.3 0 0 1 5.6-1.7c.6 0 1.2 0 1.8.1l1.7.3zm-286.8 70.3h18.8a21.5 21.5 0 0 1 8.5 1.7c2.6 1.1 4.6 2.7 6.1 4.9s2.1 5 1.9 8.4c-.2 2.8-.8 5.2-1.9 7.1-1 1.9-2.5 3.5-4.2 4.9-1.8 1.3-3.9 2.5-6.3 3.6l-4.3 2.2H129l1.6-9.4 11.4.1c1.5 0 2.9-.3 4.1-.9s2.2-1.4 3-2.5a8.4 8.4 0 0 0 1.5-3.9c.2-1.3.1-2.4-.1-3.3-.3-1-.8-1.8-1.6-2.4a5.7 5.7 0 0 0-3.1-1h-8.1l-7.2 41.2h-11.9l8.7-50.7zm18.4 50.7l-7-22.4 12.1-.1 7.6 21.9v.6h-12.7zm36 .7a18 18 0 0 1-7.1-1.4 16 16 0 0 1-5.4-3.8c-1.5-1.6-2.6-3.5-3.3-5.7a18.8 18.8 0 0 1-.8-7.2l.1-1.4c.3-2.7.9-5.3 1.9-7.7s2.4-4.5 4.1-6.3a17.5 17.5 0 0 1 6.1-4.2c2.3-1 5-1.5 7.9-1.4 2.6 0 4.9.6 6.8 1.6a13.3 13.3 0 0 1 4.7 4.1c1.2 1.7 2 3.6 2.5 5.8a20.3 20.3 0 0 1 .3 7l-.7 4.8h-29.9l1.2-7.3h18.4l.2-1c.2-1.1.1-2.1-.1-3-.3-.9-.7-1.6-1.4-2.1s-1.6-.8-2.8-.9c-1.4 0-2.6.3-3.6.9a7.3 7.3 0 0 0-2.3 2.6 13.3 13.3 0 0 0-1.3 3.5c-.3 1.2-.5 2.4-.7 3.5l-.1 1.3c-.1 1.1-.1 2.2.1 3.3s.5 2 1 2.9a5.3 5.3 0 0 0 2.1 2.1 6.3 6.3 0 0 0 3.2.8c1.7 0 3.4-.3 4.9-1a12.8 12.8 0 0 0 4.1-2.9l4.8 6.3a11.2 11.2 0 0 1-4 3.8c-1.6 1-3.4 1.6-5.3 2.1-2 .7-3.8.9-5.6.9zm33.4-9.2l11.7-29.2h12.4l-17.8 37.6H214l1.1-8.4zm.2-29.2l2.5 30.2-1.3 7.5h-7l-6.1-37.6h11.9zm39.3 0l-6.5 37.6h-11.5l6.5-37.6h11.5zm-10.5-9.5a5.5 5.5 0 0 1 1.8-4.3 6.7 6.7 0 0 1 4.5-1.6 7.1 7.1 0 0 1 4.4 1.5c1.3 1 1.9 2.3 1.9 4.1a5.5 5.5 0 0 1-1.8 4.3c-1.3 1.1-2.7 1.6-4.5 1.6-1.6 0-3.1-.5-4.4-1.4-1.2-1.1-1.8-2.4-1.9-4.2zm29.5 47.9a18 18 0 0 1-7.1-1.4 16 16 0 0 1-5.4-3.8c-1.5-1.6-2.6-3.5-3.3-5.7a18.8 18.8 0 0 1-.8-7.2l.1-1.4c.3-2.7.9-5.3 1.9-7.7s2.4-4.5 4.1-6.3a17.5 17.5 0 0 1 6.1-4.2c2.3-1 5-1.5 7.9-1.4 2.6 0 4.9.6 6.8 1.6a13.3 13.3 0 0 1 4.7 4.1c1.2 1.7 2 3.6 2.5 5.8a20.3 20.3 0 0 1 .3 7l-.7 4.8h-29.9l1.2-7.3h18.4l.2-1c.2-1.1.1-2.1-.1-3-.3-.9-.7-1.6-1.4-2.1s-1.6-.8-2.8-.9c-1.4 0-2.6.3-3.6.9a7.3 7.3 0 0 0-2.3 2.6 13.3 13.3 0 0 0-1.3 3.5c-.3 1.2-.5 2.4-.7 3.5l-.1 1.3c-.1 1.1-.1 2.2.1 3.3s.5 2 1 2.9a5.3 5.3 0 0 0 2.1 2.1 6.3 6.3 0 0 0 3.2.8c1.7 0 3.4-.3 4.9-1a12.8 12.8 0 0 0 4.1-2.9l4.8 6.3a11.2 11.2 0 0 1-4 3.8c-1.6 1-3.4 1.6-5.3 2.1-2 .7-3.8.9-5.6.9zm32.2-12.5l11.1-25.9h7.4l-5 13.7-10.7 23.9h-6l3.2-11.7zm1.8-25.9l-.4 26.8-1.4 10.8H299l-2.1-37.6h10.7zm18.2 25.1l8.5-25.1h11.2l-15.1 37.6h-7.2l2.6-12.5zm-.9-25.1l2.3 27-.9 10.6h-5.6l-2.4-24.8-.1-12.8h6.7zm39.2 26.9c.2-1-.1-1.7-.9-2.2-.7-.5-1.6-.9-2.7-1.2l-2.5-.7-4.2-1.4c-1.4-.6-2.7-1.3-3.8-2.2a11.8 11.8 0 0 1-2.7-3.2c-.6-1.3-.9-2.8-.9-4.5a10.4 10.4 0 0 1 1.6-5.4c1-1.5 2.3-2.8 3.9-3.8a19.5 19.5 0 0 1 5.1-2.3 21.5 21.5 0 0 1 5.6-.7c2.6 0 5 .5 7.2 1.4a12.5 12.5 0 0 1 5.5 4c1.4 1.8 2.2 4.1 2.2 6.9h-11.4c0-.9-.1-1.7-.3-2.4s-.6-1.2-1.2-1.5c-.6-.4-1.4-.6-2.4-.6-.7 0-1.5.1-2.2.5-.7.3-1.3.7-1.9 1.3-.5.6-.8 1.2-1 2-.1.7 0 1.2.3 1.7.3.4.8.8 1.3 1.1a12.2 12.2 0 0 0 1.7.7c.6.2 1.2.3 1.7.4 2.1.5 4.2 1.2 6.1 2.1 2 .8 3.6 2 4.9 3.6 1.3 1.5 1.9 3.6 1.8 6.1a9.7 9.7 0 0 1-1.7 5.5c-1.1 1.5-2.5 2.7-4.2 3.7-1.7.9-3.5 1.6-5.5 2a27.6 27.6 0 0 1-5.7.6 18.9 18.9 0 0 1-7.2-1.5c-2.3-1-4.1-2.4-5.6-4.3-1.4-1.9-2.2-4.2-2.2-7h10.6a5.4 5.4 0 0 0 .6 2.7 4.6 4.6 0 0 0 1.7 1.7c.7.4 1.7.6 2.7.6.8 0 1.6-.1 2.4-.3.8-.3 1.5-.6 2-1.2a4.6 4.6 0 0 0 1.3-2.2z" fill="#5b5b5b"/><path d="M323.4 71.1c0-6.6-5.3-11.9-11.9-11.9H1.1V148h310.4c6.6 0 11.9-5.3 11.9-11.9v-65z" fill="#3886e7"/><path d="M50.2 90.6v25.3h-6.1V90.6h6.1zm7.6 0v4.7H36.6v-4.7h21.2zm8.1-1.4v26.7H60V89.2h5.9zm-.7 16.7h-1.4a15 15 0 0 1 .5-3.7 8.7 8.7 0 0 1 1.4-2.9c.6-.8 1.3-1.5 2.2-1.9a5.3 5.3 0 0 1 2.8-.7c.9 0 1.8.1 2.5.4.8.3 1.4.7 2 1.3s1 1.4 1.3 2.3a11.8 11.8 0 0 1 .5 3.5v11.7h-5.9v-11.7c0-.8-.1-1.4-.3-1.8s-.5-.7-.9-.9a3.2 3.2 0 0 0-1.4-.3 4.3 4.3 0 0 0-1.7.3 2.4 2.4 0 0 0-1 1 5.8 5.8 0 0 0-.5 1.4c-.1.7-.1 1.3-.1 2zm24.1 10.4a10.7 10.7 0 0 1-4.1-.7 11 11 0 0 1-3.1-2c-.8-.8-1.5-1.8-1.9-2.9a10.3 10.3 0 0 1-.6-3.5v-.7c0-1.4.2-2.7.6-3.8a10.3 10.3 0 0 1 1.7-3.1c.8-.9 1.7-1.6 2.8-2.1s2.5-.7 4-.7c1.3 0 2.5.2 3.6.6s1.9 1 2.7 1.8c.7.8 1.3 1.8 1.7 2.9s.6 2.4.6 3.8v2.4H81.9v-3.7h9.7v-.5a3.8 3.8 0 0 0-.3-1.6c-.2-.4-.5-.8-1-1a3.8 3.8 0 0 0-1.6-.3c-.6 0-1.2.1-1.6.4s-.7.7-1 1.1c-.2.5-.4 1-.5 1.7-.1.6-.1 1.3-.1 2v.7a5.8 5.8 0 0 0 .3 1.9 5.3 5.3 0 0 0 .8 1.5 3.8 3.8 0 0 0 1.3.9c.5.2 1.1.3 1.8.3.8 0 1.6-.2 2.4-.5a4.8 4.8 0 0 0 2-1.5l2.7 3.2c-.4.5-.9 1.1-1.6 1.6s-1.5.9-2.5 1.3a12.7 12.7 0 0 1-3.4.5zm33.9-8.9h6.1c-.1 1.8-.6 3.3-1.4 4.7-.9 1.3-2.1 2.4-3.6 3.1s-3.3 1.1-5.4 1.1c-1.7 0-3.2-.3-4.5-.9s-2.4-1.4-3.4-2.5c-.9-1.1-1.6-2.4-2.1-3.9s-.7-3.2-.7-5.1v-1.4c0-1.9.2-3.6.7-5.1a10.7 10.7 0 0 1 2.2-3.9 9.4 9.4 0 0 1 3.4-2.5 10.5 10.5 0 0 1 4.4-.9c2.2 0 4.1.4 5.6 1.2a8.6 8.6 0 0 1 3.5 3.3 11.8 11.8 0 0 1 1.5 4.7h-6.1a5.7 5.7 0 0 0-.5-2.4 4 4 0 0 0-1.4-1.5c-.7-.3-1.5-.5-2.6-.5a4.2 4.2 0 0 0-2 .4c-.6.3-1 .7-1.4 1.3a6.9 6.9 0 0 0-.8 2.3 17.2 17.2 0 0 0-.3 3.4v1.4c0 1.3.1 2.5.2 3.4.2 1 .4 1.7.8 2.3s.8 1 1.4 1.3 1.3.4 2.1.4c.9 0 1.7-.1 2.3-.4a4 4 0 0 0 1.5-1.4c.3-.2.5-1 .5-1.9zm8-.7v-.4c0-1.4.2-2.7.6-3.8a8.7 8.7 0 0 1 1.7-3 8 8 0 0 1 2.8-2c1.1-.5 2.4-.7 3.9-.7s2.8.2 3.9.7 2.1 1.1 2.9 2 1.3 1.9 1.7 3c.4 1.2.6 2.4.6 3.8v.4c0 1.4-.2 2.6-.6 3.8a8.7 8.7 0 0 1-1.7 3 8 8 0 0 1-2.8 2c-1.1.5-2.4.7-3.9.7s-2.8-.2-3.9-.7-2.1-1.1-2.9-2-1.3-1.9-1.7-3-.6-2.4-.6-3.8zm5.8-.3v.4a12.3 12.3 0 0 0 .2 2c.1.6.3 1.2.5 1.6.2.5.6.8 1 1.1s.9.4 1.6.4c.6 0 1.1-.1 1.5-.4s.7-.6 1-1.1c.2-.5.4-1 .5-1.6a12.3 12.3 0 0 0 .2-2v-.4c0-.7-.1-1.3-.2-1.9s-.3-1.2-.5-1.6c-.2-.5-.6-.8-1-1.1s-.9-.4-1.6-.4c-.6 0-1.1.1-1.5.4s-.7.6-1 1.1c-.2.5-.4 1-.5 1.6-.1.5-.2 1.2-.2 1.9zm20.7-5.3v14.8h-5.9V97.1h5.5l.4 4zm-.7 4.8h-1.4c0-1.4.2-2.7.5-3.8a7.3 7.3 0 0 1 1.5-2.9 5.8 5.8 0 0 1 2.3-1.8 7.3 7.3 0 0 1 3-.6c.9 0 1.7.1 2.4.4s1.4.7 1.9 1.2c.5.6.9 1.3 1.2 2.3.3.9.4 2.1.4 3.4v11.8h-5.9V104c0-.8-.1-1.3-.3-1.7s-.5-.7-.9-.8c-.4-.2-.9-.2-1.4-.2-.6 0-1.1.1-1.5.3a2.4 2.4 0 0 0-1 1 5.8 5.8 0 0 0-.5 1.4c-.3.6-.3 1.2-.3 1.9zm23 5.9a3.2 3.2 0 0 0 1.4-.3c.4-.2.7-.5.9-.9a2.9 2.9 0 0 0 .3-1.4h5.5c0 1.4-.3 2.7-1 3.7a6.5 6.5 0 0 1-2.9 2.5c-1.2.6-2.5.9-4.1.9-1.5 0-2.8-.2-3.9-.7a9.5 9.5 0 0 1-2.8-2 11.1 11.1 0 0 1-1.7-3c-.4-1.2-.5-2.4-.5-3.8v-.4a15.2 15.2 0 0 1 .5-3.8c.4-1.2.9-2.2 1.7-3 .7-.9 1.7-1.5 2.7-2a9.2 9.2 0 0 1 3.8-.7c1.6 0 2.9.3 4.1.9a5.9 5.9 0 0 1 2.8 2.6c.7 1.1 1 2.5 1 4.1h-5.5c0-.6-.1-1.1-.3-1.5-.2-.5-.5-.8-.9-1.1s-.9-.4-1.5-.4-1.1.1-1.5.4-.7.6-.9 1.1a7.5 7.5 0 0 0-.4 1.6c-.1.6-.1 1.2-.1 1.9v.4c0 .7 0 1.4.1 2a7.5 7.5 0 0 0 .4 1.6c.2.5.5.8.9 1.1.8 0 1.3.2 1.9.2zm16.8-22.6v26.7h-5.9V89.2h5.9zm14.6 22.2V97.1h5.9v18.8h-5.5l-.4-4.5zm.5-3.9h1.5c0 1.3-.2 2.4-.5 3.5s-.7 2-1.3 2.8a5.5 5.5 0 0 1-2.2 1.8c-.8.4-1.8.6-2.9.6-.9 0-1.8-.1-2.6-.4s-1.4-.7-2-1.2c-.6-.6-1-1.3-1.3-2.2s-.5-2-.5-3.2V97.1h5.9v12.2a3.6 3.6 0 0 0 .2 1.1c.1.3.3.6.5.8s.4.3.7.5c.3.1.6.1 1 .1.9 0 1.6-.2 2.1-.6s.8-.9 1-1.5a5.1 5.1 0 0 0 .4-2.2zm18.5 3.2c0-.3-.1-.6-.3-.8s-.6-.5-1.1-.7-1.3-.4-2.2-.6-1.8-.5-2.6-.8a7.2 7.2 0 0 1-2.1-1.2c-.6-.5-1.1-1-1.4-1.7a5.1 5.1 0 0 1-.5-2.2c0-.8.2-1.6.5-2.3a5.5 5.5 0 0 1 1.5-1.9 6.6 6.6 0 0 1 2.5-1.3 11.4 11.4 0 0 1 3.3-.5c1.7 0 3.2.3 4.4.8s2.2 1.2 2.8 2.2a5.1 5.1 0 0 1 1 3.2h-5.9c0-.5-.1-.9-.2-1.2s-.4-.6-.7-.8-.8-.3-1.4-.3a3.6 3.6 0 0 0-1.1.2l-.8.6c-.2.3-.3.6-.3.9s.1.5.2.7a1.7 1.7 0 0 0 .6.6c.3.2.6.3 1 .5l1.4.3a17.9 17.9 0 0 1 3.5 1c1.1.4 2 1 2.7 1.8s1 1.8 1 3.2c0 .8-.2 1.6-.6 2.3s-.9 1.3-1.7 1.8c-.7.5-1.6.9-2.6 1.2s-2.1.4-3.4.4c-1.8 0-3.3-.3-4.6-1-1.2-.6-2.2-1.5-2.8-2.4a5.8 5.8 0 0 1-.9-3h5.5c0 .6.2 1.1.4 1.4.3.4.6.6 1.1.8.4.2 1 .3 1.5.3s1-.1 1.3-.2c.4-.2.6-.4.8-.6.1-.1.2-.4.2-.7zM245 97.1v18.8h-5.9V97.1h5.9zm-6.3-4.8c0-.8.3-1.5.9-2.1.6-.5 1.4-.8 2.3-.8 1 0 1.7.3 2.3.8s.9 1.2.9 2.1-.3 1.5-.9 2.1c-.6.5-1.4.8-2.3.8-1 0-1.7-.3-2.3-.8-.6-.6-.9-1.3-.9-2.1zm9.1 14.4v-.4c0-1.4.2-2.7.6-3.8a8.7 8.7 0 0 1 1.7-3 8 8 0 0 1 2.8-2c1.1-.5 2.4-.7 3.9-.7s2.8.2 3.9.7 2.1 1.1 2.9 2 1.3 1.9 1.7 3c.4 1.2.6 2.4.6 3.8v.4c0 1.4-.2 2.6-.6 3.8a8.7 8.7 0 0 1-1.7 3 8 8 0 0 1-2.8 2c-1.1.5-2.4.7-3.9.7s-2.8-.2-3.9-.7-2.1-1.1-2.9-2-1.3-1.9-1.7-3-.6-2.4-.6-3.8zm5.9-.3v.4a12.3 12.3 0 0 0 .2 2c.1.6.3 1.2.5 1.6.2.5.6.8 1 1.1s.9.4 1.6.4c.6 0 1.1-.1 1.5-.4s.7-.6 1-1.1c.2-.5.4-1 .5-1.6a12.3 12.3 0 0 0 .2-2v-.4c0-.7-.1-1.3-.2-1.9s-.3-1.2-.5-1.6c-.2-.5-.6-.8-1-1.1s-.9-.4-1.6-.4c-.6 0-1.1.1-1.5.4s-.7.6-1 1.1c-.2.5-.4 1-.5 1.6-.1.5-.2 1.2-.2 1.9zm20.7-5.3v14.8h-5.9V97.1h5.5l.4 4zm-.7 4.8h-1.4c0-1.4.2-2.7.5-3.8a7.3 7.3 0 0 1 1.5-2.9 5.8 5.8 0 0 1 2.3-1.8 7.3 7.3 0 0 1 3-.6c.9 0 1.7.1 2.4.4s1.4.7 1.9 1.2c.5.6.9 1.3 1.2 2.3.3.9.4 2.1.4 3.4v11.8h-5.9V104c0-.8-.1-1.3-.3-1.7s-.5-.7-.9-.8c-.4-.2-.9-.2-1.4-.2-.6 0-1.1.1-1.5.3a2.4 2.4 0 0 0-1 1 5.8 5.8 0 0 0-.5 1.4c-.3.6-.3 1.2-.3 1.9z" class="Ab"/><defs><path id="K" d="M665 141.5h356.2v356.2H665z"/></defs><clipPath id="L"><use href="#K"/></clipPath><g clip-path="url(#L)"><linearGradient id="M" gradientUnits="userSpaceOnUse" x1="843.12" y1="381.37" x2="843.12" y2="497.75"><stop offset="0" stop-color="#eaf4ff"/><stop offset="1" stop-color="#edf5ff"/></linearGradient><ellipse cx="843.1" cy="439.6" rx="178.1" ry="58.2" fill="url(#M)"/><path d="M904.5 186.7v215.9a14.2 14.2 0 0 1-.4 3.6c-.1.6-.3 1.2-.4 1.7l-.3.8a17.2 17.2 0 0 1-2.5 4.6c-.5.7-1.1 1.3-1.7 2-.6.6-1.3 1.2-1.9 1.7-.5.3-.9.7-1.4 1h0l-1.5.8h0c-.8.4-1.6.7-2.4 1h0c-.6.2-1.1.3-1.7.4l-3.6.4h-88.4a15.8 15.8 0 0 1-3.8-.4c-.2 0-.4-.1-.6-.1-.2-.1-.4-.1-.7-.2l-2.7-1c-.4-.2-.9-.4-1.3-.7l-.6-.3c-.4-.2-.8-.5-1.1-.8a22 22 0 0 1-3.1-3 7.1 7.1 0 0 1-1-1.4c-.5-.7-.9-1.5-1.3-2.3-.5-1-.9-2.1-1.2-3.3h0a16.3 16.3 0 0 1-.6-4.5V186.7a17.9 17.9 0 0 1 17.9-17.9h88.4a17.9 17.9 0 0 1 17.9 17.9z" class="Ad"/><path d="M900.5 186.7v215.9c0 1-.1 1.9-.3 2.8l-.3 1.3-.3.8a13.3 13.3 0 0 1-1.9 3.5l-1.3 1.5c-.4.5-1 .9-1.5 1.3l-1 .7-.2.1c-.3.2-.6.4-1 .5l-.2.1c-.5.3-1.1.5-1.7.7l-.2.1c-.5.1-.9.3-1.3.3-.9.2-1.9.3-2.8.3h-88.4c-1 0-2-.1-3-.3-.3-.1-.7-.1-1-.2-.7-.2-1.4-.5-2.1-.8-.3-.2-.7-.3-.9-.5-.2-.1-.3-.2-.4-.2l-.1-.1c-.2-.2-.5-.3-.9-.6-.9-.7-1.7-1.4-2.4-2.3-.3-.4-.6-.7-.8-1.1a16.2 16.2 0 0 1-1-1.8 9.9 9.9 0 0 1-.9-2.4l-.1-.2c-.3-1.1-.4-2.3-.4-3.5V186.7c0-7.7 6.3-14 14-14h88.4c5.9 0 10.9 3.7 13 8.8.7 1.7 1 3.4 1 5.2z" class="Ab"/><g class="Ad"><path d="M904.5 241.4v-25.5a3.6 3.6 0 0 1 3.6 3.6v18.3a3.6 3.6 0 0 1-3.6 3.6zm-124.2-12.7h1.7V216h-1.7a1.9 1.9 0 0 0-1.9 1.9v9c0 .9.8 1.8 1.9 1.8zm0 15.3h1.7v-12.7h-1.7a1.9 1.9 0 0 0-1.9 1.9v9c0 1 .8 1.8 1.9 1.8zm16.4 94.4v7.2.8l.9 19.9 7.4 5.8-.9-19.9v-.8-7.2c0-6.1 5.9-11.1 13-11.4l55.4-2.8c1.4-.1 2.9 0 4.5.4s3.3 1.2 4.7 2.3l-7.2-5.6-.2-.2c-.4-.3-.8-.6-1.2-.8a10.3 10.3 0 0 0-4-1.5c-1.4-.3-2.7-.4-4-.3l-55.4 2.7c-7.2.4-13 5.5-13 11.4z"/></g><g class="Af"><path d="M816.3 348.7l-.9 2.3c0 .1 0 .3.1.4l2.8 2.2c-.1-.1-.1-.2-.1-.3l1-2.6c0-.1 0-.3-.2-.4l-2.6-1.4c0-.1 0-.1-.1-.2.1.1.1.1 0 0z"/><path d="M813.6 346.6l2.7 2.1h0 0 0c-.2-.2 0-.5.4-.6l3.2-.2c.2 0 .4-.1.4-.3l1-2.6c.1-.2.3-.3.5-.3.1 0 .1 0 .2.1l-2.8-2.2s-.1-.1-.2-.1c-.2-.1-.5.1-.5.3l-1 2.6c-.1.1-.2.3-.4.3l-3.2.2c-.4.1-.6.5-.3.7h0 0zm10.7-1c-.1-.1-.2-.1-.3-.1l-1.7.1.8 2c.1.1.2.2.4.2l3.2-.2c.1 0 .2 0 .3.1-.8-.7-1.8-1.4-2.7-2.1z"/></g><path d="M826.8 347.6l-3.2.2c-.2 0-.4-.1-.4-.2l-.8-2-.2-.5c0-.1-.1-.1-.1-.1s-.1-.1-.2-.1c-.2-.1-.5.1-.5.3l-1 2.6c-.1.1-.2.3-.4.3l-3.2.2c-.3 0-.5.3-.4.6h0 0 .1l2.6 1.4c.2.1.2.3.2.4l-1 2.6c-.1.1 0 .3.1.3.1.1.4.1.6 0l2.6-1.7s.1 0 .1-.1c.1 0 .3-.1.4 0l2.6 1.4c.3.2.8-.1.7-.4l-1-2.5c-.1-.2 0-.3.2-.4l2.6-1.7c.2-.1.2-.4.1-.5-.3 0-.4-.1-.5-.1z" class="Ab"/><g class="Af"><path d="M829.9 348l-.9 2.3c0 .1 0 .2.1.4l2.8 2.2c-.1-.1-.1-.2-.1-.3l1-2.6c0-.1 0-.3-.1-.4l-2.6-1.4-.2-.2c0 .1 0 .1 0 0z"/><path d="M834.9 344.4c.1-.2.3-.3.5-.3.1 0 .1 0 .2.1l-2.8-2.2s-.1-.1-.2-.1c-.2-.1-.5.1-.5.3l-1 2.6c-.1.1-.2.3-.4.3l-3.2.2c-.4 0-.6.4-.3.6l2.7 2.1h0c-.2-.2 0-.5.4-.6l3.2-.2c.2 0 .4-.1.4-.3l1-2.5z"/><use href="#B"/></g><path d="M835.7 344.4c0-.1-.1-.1-.1-.1s-.1-.1-.2-.1c-.2-.1-.5.1-.5.3l-1 2.6c-.1.1-.2.3-.4.3l-3.2.2c-.3 0-.5.3-.4.6 0 0 .1 0 .1.1l2.6 1.4c.1.1.1.3.1.4l-1 2.6c-.1.1 0 .3.1.3.1.1.4.1.6 0l2.6-1.7s.1 0 .1-.1h.4l2.6 1.4c.3.2.8-.1.7-.4l-1-2.5c-.1-.2 0-.3.2-.4l2.6-1.7c.2-.1.2-.4.1-.5-.1 0-.2-.1-.3-.1l-3.2.2c-.2 0-.4-.1-.4-.2l-.8-2-.3-.6z" class="Ab"/><g class="Af"><path d="M843.5 347.4l-.9 2.4c0 .1 0 .3.1.4l2.8 2.2c-.1-.1-.1-.2-.1-.3l1-2.6c0-.1 0-.3-.2-.4l-2.6-1.4c0-.2 0-.3-.1-.3h0z"/><path d="M849.2 343.6l-2.8-2.2s-.1-.1-.2-.1c-.2-.1-.5.1-.5.3l-1 2.6c-.1.1-.2.3-.4.3l-3.2.2c-.4 0-.6.4-.3.6l2.7 2.1h0c-.2-.2 0-.5.4-.6l3.2-.2c.2 0 .4-.1.4-.3l1-2.6c.1-.2.3-.3.5-.3l.2.2h0zm5.1 2.8l-2.8-2.2c-.1-.1-.2-.1-.3-.1l-1.7.1.8 2c.1.1.2.2.4.2l3.2-.2c.2.1.3.1.4.2z"/></g><path d="M854.2 346.9c.2-.1.2-.4.1-.5s-.2-.1-.3-.1l-3.2.2c-.2 0-.4-.1-.4-.2l-1-2.5c0-.1-.1-.1-.1-.1s-.1-.1-.2-.1c-.2-.1-.5.1-.5.3l-1 2.6c-.1.1-.2.3-.4.3l-3.2.2c-.3 0-.5.3-.4.6l2.6 1.4c.2.1.2.3.2.4l-1 2.6c0 .1 0 .3.1.3.1.1.4.1.6 0l2.6-1.7s.1 0 .1-.1h.4l2.6 1.4c.3.2.8-.1.7-.4l-1-2.5c-.1-.2 0-.3.2-.4l2.5-1.7z" class="Ab"/><g class="Af"><path d="M857.1 346.7l-.9 2.4c0 .1 0 .2.1.4l2.8 2.2c-.1-.1-.1-.2-.1-.3l1-2.6c0-.1 0-.3-.2-.4l-2.6-1.4c0-.2-.1-.3-.1-.3z"/><path d="M860 340.8c0-.1 0-.1 0 0-.1-.1-.1-.1-.2-.1-.2-.1-.5.1-.5.3l-1 2.6c-.1.2-.2.3-.4.3l-3.2.2c-.4 0-.6.4-.3.6h0l2.7 2.1h0c-.2-.2 0-.5.4-.6l3.2-.2c.2 0 .4-.1.4-.3l1-2.6c.1-.2.3-.3.5-.3.1 0 .1 0 .2.1h0l-2.8-2.1z"/></g><path d="M867.6 345.6l-3.2.2c-.1 0-.2 0-.3-.1l-.1-.1-1-2.5c0-.1-.1-.1-.1-.1s-.1-.1-.2-.1c-.2-.1-.5.1-.5.3l-1 2.6c-.1.1-.2.3-.4.3l-3.2.2c-.3 0-.5.3-.4.6l.1.1 2.6 1.4c.2.1.2.3.2.4l-1 2.6c-.1.1 0 .3.1.3.1.1.4.1.6 0l2.6-1.7h.1c.1 0 .3-.1.4 0l2.6 1.4c.3.2.8-.1.7-.4l-1-2.5c-.1-.2 0-.3.2-.4l2.6-1.7c.2-.1.2-.4.1-.5-.3-.3-.4-.3-.5-.3z" class="Ab"/><g class="Af"><path d="M867.6 345.6c.1 0 .2 0 .3.1l-2.8-2.2c-.1-.1-.2-.1-.3-.1l-1.7.1.8 2s0 .1.1.1c.1.1.2.1.3.1l3.3-.1zm3.2.5c-.1 0-.1 0 0 0l-.1-.1-.9 2.3c0 .1 0 .3.1.4l2.8 2.2c-.1-.1-.1-.2-.1-.3l1-2.6c0-.1 0-.3-.2-.4l-2.6-1.5z"/><path d="M870.7 346c-.2-.2 0-.5.4-.6l3.2-.2c.2 0 .3-.1.4-.3l1-2.6c.1-.2.3-.3.5-.3.1 0 .1 0 .2.1l-2.8-2.2s-.1-.1-.2-.1c-.2-.1-.5.1-.5.3l-1 2.6c-.1.2-.2.3-.4.3l-3.2.2c-.4 0-.6.4-.3.6.8.8 1.8 1.5 2.7 2.2h0 0 0z"/></g><path d="M822.3 345.5l1.7-.1c.1 0 .2 0 .3.1l2.8 2.2c.2.1.2.4-.1.5l-2.6 1.7c-.1.1-.2.2-.2.4l1 2.5c.1.3-.3.6-.7.4l-2.6-1.4c-.1-.1-.3-.1-.4 0 0 0-.1 0-.1.1l-2.6 1.7c-.2.1-.4.1-.6 0l-2.8-2.2c-.1-.1-.1-.3-.1-.4l.9-2.4-2.7-2.1h0c-.3-.2-.1-.6.3-.6l3.2-.2c.2 0 .4-.1.4-.3l1-2.6c.1-.2.3-.3.5-.3.1 0 .1 0 .2.1l2.8 2.2.1.1.3.6zm13.3-1.2l.1.1.2.5 1.7-.1c.1 0 .2 0 .3.1l2.8 2.2c.2.1.2.4-.1.5l-2.6 1.7c-.1.1-.2.2-.2.4l1 2.5c.1.3-.3.6-.7.4l-2.6-1.4c-.1-.1-.3-.1-.4 0 0 0-.1 0-.1.1l-2.6 1.7c-.2.1-.4.1-.6 0l-2.8-2.2c-.1-.1-.1-.3-.1-.4l.9-2.3-2.7-2.1c-.3-.2-.1-.6.3-.6l3.2-.2c.2 0 .4-.1.4-.3l1-2.6c.1-.2.3-.3.5-.3.1 0 .1 0 .2.1 1.1.7 2 1.4 2.9 2.2zm13.6-.7h0l.1.1.2.5 1.7-.1c.1 0 .2 0 .3.1l2.8 2.2c.2.1.2.4-.1.5l-2.6 1.7c-.1.1-.2.2-.2.4l1 2.5c.1.3-.3.6-.7.4l-2.6-1.4c-.1-.1-.3-.1-.4 0 0 0-.1 0-.1.1l-2.6 1.7c-.2.1-.4.1-.6 0l-2.8-2.2c-.1-.1-.1-.3-.1-.4l.9-2.4h0l-2.7-2.1c-.3-.2-.1-.6.3-.6l3.2-.2c.2 0 .4-.1.4-.3l1-2.6c.1-.2.3-.3.5-.3.1 0 .1 0 .2.1l2.9 2.3zm13.6-.7h0l.1.1.2.5 1.7-.1c.1 0 .2 0 .3.1l2.8 2.2c.2.1.2.4-.1.5l-2.6 1.7c-.1.1-.2.2-.2.4l1 2.5c.1.3-.3.6-.7.4l-2.6-1.4c-.1-.1-.3-.1-.4 0h-.1l-2.6 1.7c-.2.1-.4.1-.6 0l-2.8-2.2c-.1-.1-.1-.3-.1-.4l.9-2.3-2.7-2.1h0c-.3-.2-.1-.6.3-.6l3.2-.2c.2 0 .4-.1.4-.3l1-2.6c.1-.2.3-.3.5-.3.1 0 .1 0 .2.1l2.9 2.3zm13.9-.1l1.7-.1c.1 0 .2 0 .3.1l2.8 2.2c.2.1.2.4-.1.5l-2.6 1.7c-.1.1-.2.2-.2.4l1 2.5c.1.3-.3.6-.7.4l-2.6-1.4c-.1-.1-.3-.1-.4 0h-.1l-2.6 1.7c-.2.1-.4.1-.6 0l-2.8-2.2c-.1-.1-.1-.3-.1-.4l.9-2.3-2.7-2.1c-.3-.2-.1-.6.3-.6l3.2-.2c.2 0 .4-.1.4-.3l1-2.6c.1-.2.3-.3.5-.3.1 0 .1 0 .2.1l2.8 2.2.1.1.3.6zm-72.6 1.4v7.2.8l.9 19.9 8.3-7.3c2.7-2.3 6.1-3.5 9.2-3.6l50-2.5c7.3-.4 13-5.5 13-11.4v-7.2c0-1.1-.2-2.4-.8-3.7s-1.6-2.7-3-3.7c-1.4-1.1-3.1-1.8-4.7-2.3-1.6-.4-3.1-.5-4.5-.4l-55.4 2.8c-7.1.4-13 5.4-13 11.4z" fill="#0072ff"/><path d="M878.4 342.8l-1.7.1.8 2c.1.1.2.2.4.2l3.2-.2c.1 0 .2 0 .3.1l-2.8-2.2c0 0-.1 0-.2 0z" class="Af"/><path d="M881.2 344.9l-3.2.2c-.2 0-.4-.1-.4-.2l-1-2.5c0-.1-.1-.1-.1-.1-.1 0-.1-.1-.2-.1-.2-.1-.5.1-.5.3l-1 2.6c-.1.2-.2.3-.4.3l-3.2.2c-.3 0-.5.3-.4.6h0 .1l2.6 1.4c.2.1.2.3.2.4l-1 2.6c-.1.1 0 .3.1.3.1.1.4.1.6 0l2.6-1.7h.1c.1 0 .3-.1.4 0l2.6 1.4c.3.2.8-.1.7-.4l-1-2.5c-.1-.2 0-.3.2-.4l2.6-1.7c.2-.1.2-.4.1-.5-.3-.1-.4-.2-.5-.2z" class="Ab"/><g class="Ad"><path d="M800.7 255.1h14.2c2.9 0 5.4.4 7.5 1.3s3.7 2.2 4.9 3.9c1.1 1.7 1.7 3.8 1.7 6.3 0 2-.3 3.8-1 5.2s-1.6 2.7-2.9 3.6a14.1 14.1 0 0 1-4.4 2.3l-2.5 1.3h-12.3l-.1-6.1h9.2c1.4 0 2.5-.2 3.4-.7a4.8 4.8 0 0 0 2-2c.5-.9.7-1.9.7-3 0-1.2-.2-2.3-.7-3.2a4.1 4.1 0 0 0-2.1-2c-.9-.5-2.1-.7-3.5-.7h-6.3v31.9h-7.8v-38.1zm21.2 38l-8.7-17 8.3-.1 8.8 16.6v.4h-8.4zm13.4-24.8c-.5 0-.9-.1-1.3-.2a3.5 3.5 0 0 1-.9-.6c-.3-.3-.5-.6-.6-.9-.1-.4-.2-.7-.2-1.1v-.2c0-.5.1-.9.2-1.2.1-.4.3-.7.6-1 .2-.3.5-.5.9-.6.3-.2.7-.2 1.2-.2a3.6 3.6 0 0 1 1.1.2c.3.1.6.3.8.6s.4.6.5.9a5 5 0 0 1 .2 1.2v.7H833v-1.1h3.2v-.1c0-.2 0-.4-.1-.6s-.2-.3-.4-.4-.4-.2-.6-.2-.4 0-.5.1c-.2.1-.3.2-.4.4s-.2.4-.2.6-.1.5-.1.7v.2a1.7 1.7 0 0 0 .1.7c.1.2.2.4.3.5s.3.3.5.3c.2.1.4.1.6.1.3 0 .6-.1.8-.2.3-.1.5-.3.6-.5l.8.8a1.2 1.2 0 0 1-.5.5c-.2.2-.5.3-.8.4s-.6.2-1 .2zm6.6-1.5v-2.7c0-.2 0-.4-.1-.5l-.3-.3c-.1-.1-.3-.1-.5-.1s-.3 0-.5.1c-.1.1-.2.1-.3.3-.1.1-.1.2-.1.4h-1.6c0-.3.1-.5.2-.7s.3-.4.5-.6.5-.3.8-.4.7-.1 1.1-.1c.5 0 .9.1 1.2.2.4.2.6.4.9.7.2.3.3.7.3 1.2v2.6c0 .3 0 .6.1.8 0 .2.1.4.2.5v.1h-1.6c-.1-.2-.1-.4-.2-.6-.1-.4-.1-.6-.1-.9zm.2-2.3v.9h-.9c-.2 0-.4 0-.5.1-.2 0-.3.1-.4.2s-.2.2-.2.3-.1.2-.1.4c0 .1 0 .3.1.4l.3.3c.1.1.3.1.4.1.2 0 .4 0 .6-.1s.3-.2.4-.4c.1-.1.2-.3.2-.4l.4.7c-.1.2-.1.3-.2.5s-.2.3-.4.5c-.2.1-.3.3-.6.3-.2.1-.5.1-.8.1-.4 0-.7-.1-1-.2-.3-.2-.5-.4-.7-.6-.2-.3-.3-.6-.3-.9s.1-.6.2-.8.3-.4.5-.6.5-.3.9-.4c.3-.1.7-.1 1.2-.1h.9zm4.3-4.8v8.5h-1.6v-8.5h1.6zm-11.1 21.6c-.5 0-.9-.1-1.3-.2a3.5 3.5 0 0 1-.9-.6c-.3-.3-.5-.6-.6-.9-.1-.4-.2-.7-.2-1.1v-.2c0-.5.1-.9.2-1.2.1-.4.3-.7.6-1 .2-.3.5-.5.9-.6.3-.2.7-.2 1.2-.2a3.6 3.6 0 0 1 1.1.2c.3.1.6.3.8.6s.4.6.5.9a5 5 0 0 1 .2 1.2v.7H833v-1.1h3.2v-.1c0-.2 0-.4-.1-.6s-.2-.3-.4-.4-.4-.2-.6-.2-.4 0-.5.1c-.2.1-.3.2-.4.4s-.2.4-.2.6-.1.5-.1.7v.2a1.7 1.7 0 0 0 .1.7c.1.2.2.4.3.5s.3.3.5.3c.2.1.4.1.6.1.3 0 .6-.1.8-.2.3-.1.5-.3.6-.5l.8.8a1.2 1.2 0 0 1-.5.5c-.2.2-.5.3-.8.4s-.6.2-1 .2zm5-8.6v8.5h-1.6v-8.5h1.6zm3 2.5v6h-1.6v-6h1.6zm-1.7-1.6c0-.2.1-.4.2-.6s.4-.2.7-.2.5.1.6.2c.2.2.2.3.2.6 0 .2-.1.4-.2.6-.2.2-.4.2-.6.2-.3 0-.5-.1-.7-.2s-.2-.3-.2-.6zm6.3 6.2v-2.7c0-.2 0-.4-.1-.5l-.3-.3c-.1-.1-.3-.1-.5-.1s-.3 0-.5.1c-.1.1-.2.1-.3.3-.1.1-.1.2-.1.4h-1.6c0-.3.1-.5.2-.7s.3-.4.5-.6.5-.3.8-.4.7-.1 1.1-.1c.5 0 .9.1 1.2.2.4.2.6.4.9.7.2.3.3.7.3 1.2v2.6c0 .3 0 .6.1.8 0 .2.1.4.2.5v.1h-1.6c-.1-.2-.1-.4-.2-.6-.1-.4-.1-.6-.1-.9zm.2-2.3v.9h-.9c-.2 0-.4 0-.5.1-.2 0-.3.1-.4.2s-.2.2-.2.3-.1.2-.1.4c0 .1 0 .3.1.4l.3.3c.1.1.3.1.4.1.2 0 .4 0 .6-.1s.3-.2.4-.4c.1-.1.2-.3.2-.4l.4.7c-.1.2-.1.3-.2.5s-.2.3-.4.5c-.2.1-.3.3-.6.3-.2.1-.5.1-.8.1-.4 0-.7-.1-1-.2-.3-.2-.5-.4-.7-.6-.2-.3-.3-.6-.3-.9s.1-.6.2-.8.3-.4.5-.6.5-.3.9-.4c.3-.1.7-.1 1.2-.1h.9zm2.6-4.8h1.6v7.1l-.2 1.4h-1.4v-8.5zm5.4 5.4v.1c0 .4 0 .9-.1 1.2a3 3 0 0 1-.4 1c-.2.3-.4.5-.7.6s-.6.2-1 .2-.7-.1-1-.2-.5-.4-.7-.6c-.2-.3-.3-.6-.4-.9-.1-.4-.2-.8-.2-1.2v-.3c.1-.4.1-.8.2-1.2s.3-.7.4-.9c.2-.3.4-.5.7-.6s.6-.2.9-.2c.4 0 .7.1 1 .2s.5.4.7.6a3 3 0 0 1 .4 1 5 5 0 0 1 .2 1.2zm-1.6.1v-.1c0-.2 0-.5-.1-.7 0-.2-.1-.4-.2-.6s-.2-.3-.3-.4-.3-.1-.6-.1c-.2 0-.4 0-.6.1s-.3.2-.4.3-.2.3-.2.5-.1.4-.1.6v.7c0 .3.1.5.1.8.1.2.2.4.4.5s.4.2.7.2c.2 0 .4 0 .6-.1.1-.1.3-.2.3-.4.1-.2.1-.4.2-.6.2-.2.2-.4.2-.7zm4.3-5.5v8.5h-1.6v-8.5h1.6zm4 8.6c-.5 0-.9-.1-1.2-.2a3.5 3.5 0 0 1-.9-.6c-.3-.3-.4-.6-.6-.9-.1-.4-.2-.7-.2-1.1v-.2c0-.5.1-.9.2-1.2.1-.4.3-.7.6-1 .2-.3.5-.5.9-.6.3-.2.7-.2 1.2-.2a3.6 3.6 0 0 1 1.1.2c.3.1.6.3.8.6s.4.6.5.9a5 5 0 0 1 .2 1.2v.7h-4.8v-1.1h3.2v-.1c0-.2 0-.4-.1-.6s-.2-.3-.4-.4-.4-.2-.6-.2-.4 0-.5.1c-.2.1-.3.2-.4.4s-.2.4-.2.6-.1.5-.1.7v.2a1.7 1.7 0 0 0 .1.7c.1.2.2.4.3.5s.3.3.5.3c.2.1.4.1.6.1.3 0 .6-.1.8-.2.3-.1.5-.3.6-.5l.8.8a1.2 1.2 0 0 1-.5.5c-.2.2-.5.3-.8.4a3.6 3.6 0 0 1-1.1.2zm-27.5 12c-.5 0-.9-.1-1.3-.2a3.5 3.5 0 0 1-.9-.6c-.3-.3-.5-.6-.6-.9-.1-.4-.2-.7-.2-1.1v-.2c0-.5.1-.9.2-1.2.1-.4.3-.7.6-1 .2-.3.5-.5.9-.6.3-.2.7-.2 1.2-.2a3.6 3.6 0 0 1 1.1.2c.3.1.6.3.8.6s.4.6.5.9a5 5 0 0 1 .2 1.2v.7H833v-1.1h3.2v-.1c0-.2 0-.4-.1-.6s-.2-.3-.4-.4-.4-.2-.6-.2-.4 0-.5.1c-.2.1-.3.2-.4.4s-.2.4-.2.6-.1.5-.1.7v.2a1.7 1.7 0 0 0 .1.7c.1.2.2.4.3.5s.3.3.5.3c.2.1.4.1.6.1.3 0 .6-.1.8-.2.3-.1.5-.3.6-.5l.8.8a1.2 1.2 0 0 1-.5.5c-.2.2-.5.3-.8.4s-.6.2-1 .2zm5.3-1.3l1.3-4.8h1.7l-2 6h-1V292zm-.9-4.8l1.3 4.8v1.2h-1l-2-6h1.7zm6.3 0v6h-1.6v-6h1.6zm-1.7-1.6c0-.2.1-.4.2-.6s.4-.2.7-.2.5.1.6.2c.2.2.2.3.2.6 0 .2-.1.4-.2.6-.2.2-.4.2-.6.2-.3 0-.5-.1-.7-.2s-.2-.3-.2-.6zm5.8 7.7c-.5 0-.9-.1-1.2-.2a3.5 3.5 0 0 1-.9-.6c-.3-.3-.5-.6-.6-.9-.1-.4-.2-.7-.2-1.1v-.2c0-.5.1-.9.2-1.2.1-.4.3-.7.6-1 .2-.3.5-.5.9-.6.3-.2.7-.2 1.2-.2a3.6 3.6 0 0 1 1.1.2c.3.1.6.3.8.6s.4.6.5.9a5 5 0 0 1 .2 1.2v.7h-4.8v-1.1h3.2v-.1c0-.2 0-.4-.1-.6s-.2-.3-.4-.4-.4-.2-.6-.2-.4 0-.5.1c-.2.1-.3.2-.4.4s-.2.4-.2.6-.1.5-.1.7v.2c0 .2 0 .5.1.7s.2.4.3.5.3.3.5.3c.2.1.4.1.6.1.3 0 .6-.1.8-.2.3-.1.5-.3.6-.5l.8.8a1.2 1.2 0 0 1-.5.5c-.2.2-.5.3-.8.4-.4.1-.8.2-1.1.2zm5-1.7l1.2-4.4h1l-.3 1.7-1.2 4.2h-.8l.1-1.5zm-.6-4.4l.9 4.4.1 1.6h-1l-1.5-6h1.5zm4 4.4l.9-4.4h1.5l-1.5 6h-1l.1-1.6zm-1-4.4l1.2 4.4.2 1.6h-.9l-1.2-4.2-.3-1.7h1zm7.5 4.3c0-.1 0-.2-.1-.3s-.2-.2-.4-.3-.4-.2-.8-.2c-.3-.1-.6-.1-.8-.2-.3-.1-.5-.2-.7-.4-.2-.1-.3-.3-.4-.5s-.2-.4-.2-.7c0-.2.1-.5.2-.7s.3-.4.5-.6.5-.3.8-.4.6-.1 1-.1c.5 0 1 .1 1.3.2.4.2.7.4.9.7s.3.6.3 1H865c0-.2 0-.3-.1-.4l-.3-.3c-.1-.1-.3-.1-.5-.1s-.3 0-.5.1c-.1.1-.2.1-.3.2s-.1.2-.1.3 0 .2.1.2c0 .1.1.1.2.2s.2.1.3.2c.1 0 .3.1.5.1l1.2.3c.3.1.6.3.8.6.2.2.3.6.3.9s-.1.5-.2.7-.3.4-.5.6-.5.3-.8.4a3.4 3.4 0 0 1-1 .1 2.9 2.9 0 0 1-1.4-.3c-.4-.2-.7-.5-.9-.8s-.3-.6-.3-1h1.5c0 .2.1.4.2.5s.2.2.4.3a.9.9 0 0 0 .5.1c.2 0 .4 0 .5-.1s.2-.1.3-.2c0 .2.1.1.1-.1z"/></g><path d="M794.9 209.7h.5.4c.1 0 .2 0 .4.1l-.1.7h-.4-.3-.4c-.2 0-.4 0-.5.1s-.2.2-.2.4-.1.5-.1.8 0 .6.1.8c0 .2.1.3.2.4s.3.1.5.1h.7.5l.1.7c-.2.1-.4.1-.6.1h-.7c-.4 0-.7-.1-1-.2-.2-.1-.4-.4-.5-.7s-.2-.7-.2-1.2.1-.9.2-1.2.3-.5.5-.7c.1-.1.4-.2.9-.2zm3.1 1.1a2 2 0 0 1 .9.2 1.2 1.2 0 0 1 .5.5c.1.2.1.5.1.9s0 .7-.1.9-.2.4-.5.5c-.2.1-.5.1-.9.1s-.6 0-.9-.1a1.2 1.2 0 0 1-.5-.5c-.1-.2-.1-.5-.1-.9s0-.7.1-.9a1.2 1.2 0 0 1 .5-.5c.3-.1.6-.2.9-.2zm0 .7c-.1 0-.3 0-.4.1s-.1.1-.2.3c0 .1-.1.3-.1.6 0 .2 0 .4.1.5 0 .1.1.2.2.3.1 0 .2.1.4.1s.3 0 .4-.1.1-.1.2-.3c0-.1.1-.3.1-.5s0-.4-.1-.6c0-.1-.1-.2-.2-.3s-.2-.1-.4-.1zm4.1-.7c.5 0 .8.3.8.8v2.2h-.9v-1.9c0-.1 0-.2-.1-.3 0-.1-.1-.1-.2-.1s-.3 0-.4.1c-.1 0-.3.1-.5.2v-.5c.2-.2.4-.3.6-.4.3 0 .5-.1.7-.1zm-1.3.1l.1.6.1.1v2.2h-.9v-2.9h.7zm4.8-.1c.5 0 .8.3.8.8v2.2h-.9v-1.9c0-.1 0-.2-.1-.3 0-.1-.1-.1-.2-.1s-.3 0-.4.1c-.1 0-.3.1-.5.2v-.5c.2-.2.4-.3.6-.4.3 0 .5-.1.7-.1zm-1.3.1l.1.6.1.1v2.2h-.9v-2.9h.7zm4.2-.1c.5 0 .8.1 1 .3s.3.4.3.7-.1.5-.2.6-.4.2-.7.2h-1.6v-.5h1.4c.1 0 .2 0 .2-.1s.1-.1.1-.2 0-.2-.1-.3-.2-.1-.4-.1-.3 0-.4.1c-.1 0-.2.1-.2.2s-.1.3-.1.5 0 .4.1.6c0 .1.1.2.2.3s.2.1.4.1h.5c.2 0 .4 0 .6-.1l.1.5c-.1.1-.2.1-.4.1-.1 0-.3.1-.4.1h-.4a2 2 0 0 1-.9-.2 1.2 1.2 0 0 1-.5-.5c-.1-.2-.1-.5-.1-.9s0-.7.1-.9a1.2 1.2 0 0 1 .5-.5c.2-.1.5 0 .9 0zm3.2 0h.3c.1 0 .2 0 .4.1.1 0 .2.1.3.1l-.1.5h-.4-.4c-.2 0-.3 0-.4.1-.1 0-.2.1-.2.2s-.1.3-.1.5 0 .4.1.5c0 .1.1.2.2.3.1 0 .2.1.4.1h.2.3.3l.1.5c-.2.1-.3.1-.5.2h-.6c-.4 0-.6 0-.9-.1a1.2 1.2 0 0 1-.5-.5c-.1-.2-.1-.5-.1-.9s0-.7.1-.9a1.2 1.2 0 0 1 .5-.5c.2-.1.7-.2 1-.2zm2.8-.7v2.8c0 .1 0 .2.1.2s.1.1.2.1h.4l.1.6c-.1 0-.2 0-.3.1h-.3-.3c-.3 0-.5-.1-.6-.2s-.2-.3-.2-.6v-3h.9zm.8.8v.6h-2.2v-.5h.6 1.6z" class="Ak"/><g class="Ad"><path d="M817.9 209.8h.7.7.6l-.1.8h-1.5c-.1 0-.2 0-.2.1 0 0-.1.1-.1.2v1.9c0 .1 0 .1.1.2 0 0 .1.1.2.1h1.5l.1.8h-.6-.7-.7c-.3 0-.5-.1-.7-.2-.2-.2-.3-.4-.3-.6v-2.3c0-.3.1-.5.3-.6.2-.4.4-.4.7-.4zm-.8 1.6h2.6v.7h-2.6v-.7zm4.9-1.7h.5.4c.1 0 .2 0 .4.1l-.1.8h-.4-.4-.5c-.2 0-.3 0-.4.1s-.2.2-.2.4-.1.4-.1.7 0 .5.1.7c0 .2.1.3.2.3.1.1.2.1.4.1h.7.6l.1.8c-.2.1-.4.1-.6.1h-.8c-.4 0-.8-.1-1-.2-.3-.1-.4-.4-.6-.7-.1-.3-.2-.7-.2-1.2s.1-.9.2-1.2.3-.5.6-.7c.4 0 .7-.1 1.1-.1zm4.4-1a.9.9 0 0 1-1.8 0 .9.9 0 0 1 1.8 0zm-1.5 0c0 .4.3.7.7.7s.7-.3.7-.7-.3-.7-.7-.7c-.4-.1-.7.3-.7.7zm.5.4h-.2v-.9h.3c.1 0 .2 0 .3.1.1 0 .1.1.1.2s-.1.2-.2.2c.1 0 .1.1.2.2 0 .1 0 .2.1.2h-.2s0-.1-.1-.2c0-.1-.1-.1-.2-.1h-.1v.3zm0-.5h0c.2 0 .3 0 .3-.1s-.1-.1-.2-.1h-.1v.2z"/></g><path d="M832.6 222.2c-.2 0-.4-.1-.4-.3v-21.4c0-.1.2-.3.4-.3s.4.1.4.3V222c0 .1-.2.2-.4.2z" class="Ak"/><path d="M840.8 202.7h.5.4c.1 0 .2 0 .4.1l-.1.8h-.4-.4-.5c-.2 0-.3 0-.4.1s-.2.2-.2.4-.1.4-.1.7 0 .5.1.7c0 .2.1.3.2.3.1.1.2.1.4.1h.7.6l.1.8c-.2.1-.4.1-.6.1h-.8c-.4 0-.8-.1-1-.2-.3-.1-.4-.4-.6-.7-.1-.3-.2-.7-.2-1.2s.1-.9.2-1.2.3-.5.6-.7c.3 0 .7-.1 1.1-.1zm-.8 7.1h.7.7.6l-.1.8h-1.5c-.1 0-.2 0-.2.1 0 0-.1.1-.1.2v1.9c0 .1 0 .1.1.2 0 0 .1.1.2.1h1.5l.1.8h-.6-.7-.7c-.3 0-.5-.1-.7-.2-.2-.2-.3-.4-.3-.6v-2.3c0-.3.1-.5.3-.6.3-.4.5-.4.7-.4zm-.8 1.6h2.5v.7h-2.5v-.7zm29.5-1.7h.5.4c.1 0 .2 0 .4.1l-.1.8h-.4-.4-.5c-.2 0-.3 0-.4.1s-.2.2-.2.4-.1.4-.1.7 0 .5.1.7c0 .2.1.3.2.3.1.1.2.1.4.1h.7.6l.1.8c-.2.1-.4.1-.6.1h-.8c-.4 0-.8-.1-1-.2-.3-.1-.4-.4-.6-.7-.1-.3-.2-.7-.2-1.2s.1-.9.2-1.2.3-.5.6-.7c.3 0 .7-.1 1.1-.1zm-28.7 7.1h.7.7.6l-.1.8h-1.5c-.1 0-.2 0-.2.1 0 0-.1.1-.1.2v1.9c0 .1 0 .1.1.2 0 0 .1.1.2.1h1.5l.1.8h-.6-.7-.7c-.3 0-.5-.1-.7-.2-.2-.2-.3-.4-.3-.6v-2.3c0-.3.1-.5.3-.6.3-.4.5-.4.7-.4zm-.8 1.6h2.5v.7h-2.5v-.7zm5.5-1.6c.1 0 .2 0 .2.1.1.1.1.1.1.2l1.1 3.7H845l-.7-2.8v-.2-.2h-.2v.2.2l-.7 2.8h-1.1l1.1-3.7c0-.1.1-.2.1-.2.1-.1.1-.1.2-.1h1zm.6 2.3v.8h-2.1v-.8h2.1zm2.6-2.4h.7c.2 0 .5.1.7.1l-.1.7h-.6-.7-.2-.1s-.1 0-.1.1v.1c0 .1 0 .2.1.2s.2.1.3.1l.8.3c.3.1.6.3.7.5s.2.4.2.7c0 .2 0 .4-.1.6s-.1.3-.3.4c-.1.1-.3.2-.5.2s-.4.1-.7.1h-.6c-.3 0-.6-.1-.9-.2l.1-.8h.6.5.3.3c.1 0 .1 0 .1-.1v-.2-.2l-.1-.1s-.1-.1-.2-.1l-.8-.3c-.3-.1-.5-.3-.7-.5-.1-.2-.2-.4-.2-.7 0-.2 0-.4.1-.6.1-.1.1-.3.3-.4.1-.1.3-.1.5-.2.1.3.4.3.6.3zm5.4.1l-1.4 2.8h-1l-1.4-2.8h1.1l.6 1.4c0 .1.1.2.1.3s0 .2.1.3h.1c0-.1 0-.2.1-.3 0-.1.1-.2.1-.3l.6-1.4h1zm-1.3 2.1v1.9h-1.1v-1.9h1.1z" class="Ad"/><path d="M844 203.9c.3 0 .6 0 .8.1s.3.3.4.5.1.5.1.9 0 .7-.1.9-.2.4-.4.5-.5.1-.8.1-.6 0-.8-.1-.3-.3-.4-.5-.1-.5-.1-.9 0-.7.1-.9.2-.4.4-.5.4-.1.8-.1zm0 .4c-.2 0-.4 0-.5.1l-.3.3c0 .2-.1.4-.1.6s0 .5.1.6c.1.2.1.3.3.3.1.1.3.1.5.1s.4 0 .5-.1l.3-.3c0-.2.1-.4.1-.6s0-.5-.1-.6c-.1-.2-.1-.3-.3-.3-.2-.1-.3-.1-.5-.1zm3.8-.4c.5 0 .8.3.8.8v2.1h-.5v-2c0-.2 0-.3-.1-.4s-.2-.1-.3-.1c-.2 0-.4 0-.5.1l-.6.3v-.4c.2-.2.4-.3.7-.4h.5zm-1.3.1v.5.1 2.2h-.5V204h.5zm4.7-.1c.5 0 .8.3.8.8v2.1h-.5v-2c0-.2 0-.3-.1-.4s-.2-.1-.3-.1c-.2 0-.4 0-.5.1l-.6.3v-.4c.2-.2.4-.3.7-.4h.5zm-1.3.1v.5.1 2.2h-.5V204h.5zm4.1-.1a2 2 0 0 1 .9.2c.2.2.3.4.3.7s0 .5-.2.6c-.1.1-.3.2-.5.2h-1.7v-.4h1.5c.1 0 .2 0 .3-.1 0-.1.1-.2.1-.3 0-.2-.1-.3-.2-.4s-.3-.1-.5-.1-.4 0-.5.1l-.3.3c0 .1-.1.4-.1.6 0 .3 0 .5.1.7s.2.3.3.3c.1.1.3.1.5.1h.5c.2 0 .3 0 .5-.1l.1.3c-.1 0-.2.1-.3.1s-.3 0-.4.1h-.4c-.3 0-.6 0-.8-.1s-.3-.3-.4-.5-.1-.5-.1-.9 0-.7.1-.9.2-.4.4-.5h.8zm3.2 0h.3.3c.1 0 .2 0 .3.1l-.1.3h-.4-.4c-.2 0-.4 0-.5.1l-.3.3c-.1.2-.1.4-.1.6 0 .3 0 .5.1.7s.2.3.3.3c.1.1.3.1.5.1h.2.3.3l.1.3c-.1.1-.3.1-.5.1h-.5c-.3 0-.6 0-.8-.1s-.3-.3-.4-.5-.1-.5-.1-.9 0-.7.1-.9.2-.4.4-.5h.9zm2.4-.8v2.9c0 .1 0 .2.1.3s.2.1.3.1h.4l.1.4h-.2-.2-.2c-.2 0-.4-.1-.5-.2s-.2-.3-.2-.6v-3h.4zm.9.9v.4h-1.9v-.4h.6 1.3zm-14.3 6.9c.2 0 .4.1.6.2.1.1.2.3.2.6v2.1h-.5v-2c0-.2 0-.3-.1-.4s-.2-.1-.3-.1-.2 0-.3.1c-.1 0-.2.1-.3.2s-.2.2-.4.3v-.3c.2-.2.4-.3.6-.4.1-.3.3-.3.5-.3zm-3.1.1v.5l.1.1v2.2h-.5V211h.4zm1.2-.1c.2 0 .4.1.6.2.1.1.2.3.2.6v2.1h-.5v-2c0-.2 0-.3-.1-.4s-.2-.1-.3-.1h-.3c-.1 0-.2.1-.3.2s-.2.2-.4.3v-.3c.2-.2.4-.3.6-.4.1-.2.3-.2.5-.2zm5.1 0c.3 0 .6.1.7.4.2.3.2.6.2 1.1 0 .4 0 .7-.1.9s-.2.4-.4.5-.4.1-.6.1-.4 0-.6-.1-.4-.1-.5-.2v-.3a.9.9 0 0 0 .5.1h.4c.2 0 .3 0 .4-.1s.2-.2.2-.3c0-.2.1-.4.1-.6 0-.3 0-.5-.1-.6 0-.2-.1-.3-.2-.3-.1-.1-.2-.1-.4-.1s-.3 0-.5.1-.3.2-.5.3v-.3c.1-.1.2-.2.4-.3.1-.1.3-.1.4-.2.4-.1.5-.1.6-.1zm-1.2.1l.1.6v.1 1.8.1.3.3.8h-.5v-4h.4zm3.5-1.3v3.3c0 .1 0 .2.1.3s.2.1.3.1h.3l.1.4h-.2-.2-.2c-.2 0-.4-.1-.5-.2s-.2-.3-.2-.5v-3.4h.5zm2.4 1.2c.3 0 .6 0 .8.1s.3.3.4.5.1.5.1.9 0 .7-.1.9-.2.4-.4.5-.5.1-.8.1-.6 0-.8-.1-.3-.3-.4-.5-.1-.5-.1-.9 0-.7.1-.9.2-.4.4-.5c.3-.1.5-.1.8-.1zm0 .4c-.2 0-.4 0-.5.1l-.3.3c0 .2-.1.4-.1.6s0 .5.1.6c.1.2.1.3.3.3.1.1.3.1.5.1s.4 0 .5-.1l.3-.3c.1-.2.1-.4.1-.6s0-.5-.1-.6c-.1-.2-.1-.3-.3-.3-.1-.1-.3-.1-.5-.1zm4.6-.3l-1.1 3c0 .1-.1.2-.2.4l-.3.3c-.1.1-.2.2-.4.2-.1.1-.3.1-.5.1v-.3c.2-.1.4-.2.5-.3s.2-.3.3-.5l.1-.3c0-.1.1-.2.1-.3s.1-.2.1-.3l.7-2.1h.7zm-2.3 0l.8 2.1c0 .1 0 .1.1.2v.2h.1l-.2.4h-.2-.1l-.1-.1-1-2.7h.6zm4-.1a2 2 0 0 1 .9.2c.2.2.3.4.3.7s0 .5-.2.6c-.1.1-.3.2-.5.2h-1.7v-.4h1.5c.1 0 .2 0 .3-.1 0-.1.1-.2.1-.3 0-.2-.1-.3-.2-.4s-.3-.1-.5-.1-.4 0-.5.1l-.3.3c0 .1-.1.4-.1.6 0 .3 0 .5.1.7s.2.3.3.3c.1.1.3.1.5.1h.5c.2 0 .3 0 .5-.1l.1.3c-.1 0-.2.1-.3.1s-.3 0-.4.1h-.4c-.3 0-.6 0-.8-.1s-.3-.3-.4-.5-.1-.5-.1-.9 0-.7.1-.9.2-.4.4-.5h.8zm2.4.1l.1.5v.1 2.2h-.5V211h.4zm1.4-.1l-.1.5h-.1c-.2 0-.3 0-.5.1l-.6.3v-.3c.2-.2.4-.3.6-.4s.4-.1.6-.1h.1zm2.2 1.1v.5h-1.7v-.5h1.7zm5.6-1.1c.2 0 .4 0 .5.1s.3.1.3.3c.1.1.1.3.1.5v2h-.4l-.1-.6v-.1-1.3c0-.2 0-.3-.1-.4s-.2-.1-.5-.1h-.6c-.2 0-.4 0-.7.1v-.4c.1 0 .3 0 .4-.1h.5.6zm.7 1.1v.4h-1.4c-.1 0-.2 0-.3.1s-.1.2-.1.3v.2c0 .1 0 .3.1.3.1.1.2.1.3.1s.2 0 .4-.1c.1 0 .3-.1.4-.2s.3-.2.4-.3v.4c0 .1-.1.1-.2.2s-.2.1-.3.2-.2.1-.4.2c-.1 0-.3.1-.4.1-.2 0-.3 0-.4-.1l-.3-.3c-.1-.1-.1-.3-.1-.4v-.3c0-.2.1-.4.2-.5s.3-.2.6-.2h1.5zm2.9-1.1c.5 0 .8.3.8.8v2.1h-.5v-2c0-.2 0-.3-.1-.4s-.2-.1-.3-.1c-.2 0-.4 0-.5.1l-.6.3v-.4c.2-.2.4-.3.7-.4h.5zm-1.3.1v.5.1 2.2h-.5V211h.5zm3.9-.1c.2 0 .4 0 .6.1.2 0 .4.1.5.2v.3c-.2-.1-.3-.1-.5-.1h-.4c-.2 0-.3 0-.4.1s-.2.2-.2.3c0 .2-.1.4-.1.6a1.7 1.7 0 0 0 .1.7c0 .2.1.3.2.3.1.1.2.1.4.1h.3c.1 0 .2-.1.3-.1.1-.1.2-.1.4-.2v.4c-.2.1-.3.3-.5.4s-.4.2-.6.2c-.4 0-.6-.1-.8-.4s-.2-.6-.2-1.1c0-.4 0-.7.1-.9s.2-.4.4-.5c-.1-.4.1-.4.4-.4zm1.5-1.2v4.1h-.4l-.1-.5h-.1v-1.9-.1-.3-.3-.9h.6zm1.4 1.3v2.8h-.5V211h.5zm-.1-1.3c.1 0 .2.1.2.2v.3c0 .1-.1.2-.2.2h-.2c-.1 0-.2-.1-.2-.2v-.3c0-.1.1-.2.2-.2h.2zm2 1.2c.2 0 .4 0 .6.1.2 0 .4.1.5.2v.3c-.2-.1-.3-.1-.5-.1h-.4c-.2 0-.3 0-.4.1s-.2.2-.2.3c0 .2-.1.4-.1.6a1.7 1.7 0 0 0 .1.7c0 .2.1.3.2.3.1.1.2.1.4.1h.3c.1 0 .2-.1.3-.1.1-.1.2-.1.4-.2v.4c-.2.1-.3.3-.5.4s-.4.2-.6.2c-.4 0-.6-.1-.8-.4s-.2-.6-.2-1.1c0-.4 0-.7.1-.9s.2-.4.4-.5c-.1-.4.1-.4.4-.4zm1.5-1.2v4.1h-.4l-.1-.5h-.1v-1.9-.1-.3-.3-.9h.6zm2.2 1.2c.2 0 .4 0 .5.1s.3.1.3.3c.1.1.1.3.1.5v2h-.4l-.1-.6v-.1-1.3c0-.2 0-.3-.1-.4s-.2-.1-.5-.1h-.6c-.2 0-.4 0-.7.1v-.4c.1 0 .3 0 .4-.1h.5.6zm.8 1.1v.4h-1.4c-.1 0-.2 0-.3.1s-.1.2-.1.3v.2c0 .1 0 .3.1.3.1.1.2.1.3.1s.2 0 .4-.1c.1 0 .3-.1.4-.2s.3-.2.4-.3v.4c0 .1-.1.1-.2.2s-.2.1-.3.2-.2.1-.4.2c-.1 0-.3.1-.4.1-.2 0-.3 0-.4-.1l-.3-.3c-.1-.1-.1-.3-.1-.4v-.3c0-.2.1-.4.2-.5s.3-.2.6-.2h1.5zm1.8-1.9v2.9c0 .1 0 .2.1.3s.2.1.3.1h.4l.1.4h-.2-.2-.2c-.2 0-.4-.1-.5-.2s-.2-.3-.2-.6v-3h.4zm.9.9v.4h-1.9v-.4h.6 1.3zm1.8-.1a2 2 0 0 1 .9.2c.2.2.3.4.3.7s0 .5-.2.6c-.1.1-.3.2-.5.2h-1.7v-.4h1.5c.1 0 .2 0 .3-.1 0-.1.1-.2.1-.3 0-.2-.1-.3-.2-.4s-.3-.1-.5-.1-.4 0-.5.1l-.3.3c0 .1-.1.4-.1.6 0 .3 0 .5.1.7s.2.3.3.3c.1.1.3.1.5.1h.5c.2 0 .3 0 .5-.1l.1.3c-.1 0-.2.1-.3.1s-.3 0-.4.1h-.4c-.3 0-.6 0-.8-.1s-.3-.3-.4-.5-.1-.5-.1-.9 0-.7.1-.9.2-.4.4-.5h.8z" class="Ak"/><g fill="#ecf5ff"><path d="M867.1 172.5l-83.3 127.8v-62.8l42.4-64.9h40.9zm25.6 8.4L783.8 347.8v-29.1l95.3-146.1h1.3c5.6-.1 10.3 3.4 12.3 8.3zm.9 74.2l-96.2 147.5h19l77.2-118.3v-29.2z" opacity=".3" enable-background="new"/></g><path d="M855.5 178.2h-26.3c-4.4 0-8-3.6-8-8h42.3c0 4.4-3.6 8-8 8z" class="Ad"/><path d="M977.6 383.8c-1.7-.2-4.6-.7-6.2-.1l-3.5.7a2.9 2.9 0 0 0 1.6 3.2c1.2.8 3.2.8 4.5.7 3.5-.4 5.6-1.8 8.8-2.8.1-.4.2-.8.2-1.3a50.9 50.9 0 0 1-5.4-.4z" class="Ac"/><g class="Aa"><path d="M971.2 374c-.1 1.1-.9 2.1-1.3 3-.5 1.2-.9 2.5-1.3 3.7-.5 1.6-1.2 4.1-.3 5.7 2.3 4 6.4-4.6 7.3-6.2.2-.3.3-.7.5-.9l-4.9-5.3zm20.3-2.6c.9 3 1.1 13.5-.1 15.1-3.2 4.1-5.1-6.9-5.6-9l-.3-1.2 6-4.9z"/></g><path d="M992.4 374.8c-.2-1.6-.6-3.1-1.2-4.6s-1.9-3.6-3.3-4.1l.7 14.5h.4a9.1 9.1 0 0 0 2.3-.3c.8-.2 1.2-.2 1.3-.9.3-1.4-.1-3.2-.2-4.6z" fill="#8e0e3f"/><path d="M981.9 445.6c0 .1-.1.2-.1.3-1.4 5.8-2.8 11-1.8 17.4-1.2.1-4.6.8-5.3 0 1.1-3.5 2.3-3.7 2.2-7.7-.2-3.8-.8-9-1.2-13.7-.3-2.7-.5-5.2-.6-7.3-.2-3.1-.6-6.2-.8-9.3-.2-2 .4-6.9-.9-8.4l9-3.2c-.8 1.9-.2 5.2-.5 7.4-.4 2.5-.6 5.1-.4 7.7.3 2.9 1.2 5.6 1.4 8.6.1 2.7-.4 5.6-1 8.2z" class="Aa"/><path d="M981.8 445.9c-1.4 5.8-2.8 11-1.8 17.4-1.2.1-4.6.8-5.3 0 1.1-3.5 2.3-3.7 2.2-7.7-.2-3.8-.8-9-1.2-13.7 1.9 1.8 4.1 3.4 6.2 3.6 0 .2-.1.3-.1.4z" class="Ac"/><path d="M980.6 464.9a10.2 10.2 0 0 0-.9-2.8c-.6-.8-1.1-.8-2.1-.4-1.4.7-2.6 2.5-2-.4-.4.2-1 .7-1.7 1.2l-2.4 2v.7c1.8.5 7 .4 9.1.2 0 .1.2.3 0-.5z" class="Ab"/><use href="#C" fill="#e2bc50"/><use href="#D" fill="#cea338"/><path d="M990.1 445.6c0 .1-.1.2-.1.3-1.4 5.8-2.8 11-1.8 17.4-1.2.1-4.6.8-5.3 0 1.1-3.5 2.3-3.7 2.2-7.7-.2-3.8-.8-9-1.2-13.7-.3-2.7-.5-5.2-.6-7.3-.2-3.1-.6-6.2-.8-9.3-.2-2 .4-6.9-.9-8.4l9-3.2c-.8 1.9-.2 5.2-.5 7.4a32.9 32.9 0 0 0-.4 7.7c.3 2.9 1.2 5.6 1.4 8.6.1 2.7-.4 5.6-1 8.2z" class="Aa"/><path d="M990 445.9c-1.4 5.8-2.8 11-1.8 17.4-1.2.1-4.6.8-5.3 0 1.1-3.5 2.3-3.7 2.2-7.7-.2-3.8-.8-9-1.2-13.7 1.9 1.8 4.1 3.4 6.2 3.6-.1.2-.1.3-.1.4z" class="Ac"/><path d="M988.8 464.9a10.2 10.2 0 0 0-.9-2.8c-.6-.8-1.1-.8-2.1-.4-1.4.7-2.6 2.5-2-.4-.4.2-1 .7-1.7 1.2l-2.4 2v.7c1.8.5 7 .4 9.1.2 0 .1.1.3 0-.5z" class="Ab"/><path d="M988.8 464.9c-2.4.3-7.9.4-9.1-.3.3-.6 1.5-1.7 2.6-2.6.7-.6 1.4-1 1.7-1.2-.6 2.9.6 1.1 2 .4 1-.5 1.5-.4 2.1.4.2.3.4 1.1.5 1.9l.2 1.4z" fill="#e2bc50"/><path d="M988.8 464.9c-2.4.3-7.9.4-9.1-.3.3-.6 1.5-1.7 2.6-2.6.1.8.5 1.5 1.9 1.8a8.2 8.2 0 0 0 4.4-.3l.2 1.4z" fill="#cea338"/><path d="M987.2 368.5c-.5.6-2.4.8-3.1.9-.2 0-.4.1-.6.1-1 .2-2 .3-2.9.2.2-1.4.7-2.6.5-4.2-.2-1.8-1.4-2.3-2.8-2.8l4.3-1.6 3.6-1.4c.8 1.3 1.1 2.6 1.2 4.2.2 1.1.7 3.7-.2 4.6z" class="Aa"/><path d="M982.2 364.9c-.7.2-1.8.4-2.3.9-.6.5-.5 1.1-.8 1.7l8.5-.2c.2-4.1-4-2.8-5.4-2.4z" class="Ab"/><path d="M995.1 432.1c-6.3 2.2-7 1.9-10.7 2.3-6.5.7-10.1-.6-14.1-2-2.3-9.5.1-28.9 1.6-36.4 0-.3.1-.6.2-.9.8-2.4 2.1-7.8 2.7-11.1.2-1.1.3-1.7.5-2.2 0-.1.1-.2.1-.2.1-.3-.9 1.6-1.4 1.5-1.1-.1-2.8-.4-4-1.2-.8-.5-1.4-1.1-1.5-1.8 0-.2 0-.5.1-.8 1.9-7.4 8.6-13.3 16.3-13.2h3c.6.4 7.3 2.2 2.3 17.9-.6 1.8-.7 4.2-.8 6.7v.9h.1c.1.4.3.8.4 1.3 3.4 10.5 5.3 35.6 5.2 39.2z" fill="#dd2c67"/><g fill="#8e0e3f"><path d="M975.4 381.6c.1-.3-.9 1.6-1.4 1.5-1.8-.1-5.2-1.1-5.4-3a20 20 0 0 0 2.1 1c1.5.5 2 .6 3.2-.3 2-1.6 3.1-4.3 3.9-6.1 0 2.6-1.1 4.9-2.4 7.2v-.3z"/><path d="M976.3 427.6c-2.8-4.9-3.2-11.3-3.2-16.7 0-6.7 1-13.3 2.1-19.9l2.2-14c.1-1.1-2.7 4.7-4.6 5.9.4.1.8.1 1.2.2.5 0 1.5-1.8 1.4-1.5 0 .1-.1.2-.1.2-.2.5-.3 1.1-.5 2.2-.6 3.3-1.8 8.7-2.7 11.1-.1.3-.2.6-.2.9-1.6 7.5-3.9 26.9-1.6 36.4 4 1.4 7.6 2.7 14.1 1.9a14.2 14.2 0 0 1-8.1-6.7z"/><path d="M989.8 392.9c-2.2.5-4.3.9-6.7.9-3.2 0-6.2-.4-9.1-.8-.1-.6-.2-1.2-.4-1.8 1.8.9 5.8 1 7.9.9 1.7-.1 5.3-.5 7.8-1.3v.9h.1c.1.3.2.8.4 1.2zm-3.7-25.3l.1.1s.1 0 .1.1c0 0 .1.1.2.1.1.1.2.3.4.4.1.2.3.4.4.6a6.9 6.9 0 0 1 .3.8l.3.9c.1.3.2.6.2 1 .1.3.1.7.2 1 0 .3.1.7.1 1s0 .7.1 1v1.7c0 .5-.1.9-.1 1.2 0 .1-.1.3-.1.3v.1-.1-.3-1.2-.8c0-.3 0-.6-.1-.9 0-.3-.1-.6-.1-1 0-.3-.1-.7-.1-1s-.1-.7-.2-1-.1-.6-.2-.9-.1-.6-.2-.9l-.3-.8c0-.1 0-.1-.1-.2 0-.1 0-.1-.1-.2 0-.1-.1-.2-.1-.3-.1-.2-.2-.3-.3-.4s-.2-.2-.3-.2l-.1-.1z"/></g><path d="M977 358.2c-.4.3-1.6 0-1.7-.5v-.2c.2-.3.7-.6.9-.8l.7-1 .1 2.1v.4z" class="Aa"/><path d="M977 358.2c-.4.3-1.6 0-1.7-.5.3.1.8.1 1 .1s.5 0 .7-.1v.5z" class="Ac"/><path d="M988.1 356.1c-.4 1.5-1.3 2.8-2.4 4l-.3.3-.3.3c-1.9 1.7-4.4 2.8-6.6 3.1-.6.1-.9.1-1 0h0l-.4-.4c-1-1.4-1.4-3.9-.8-6.7.1-.4.3-.9.5-1.3.1-.2.2-.5.3-.7v-.2c.2-1 .1-2.7.1-3.2l8.3-1c2.5 1.4 3.4 2.8 2.6 5.8z" class="Aa"/><path d="M985.7 360.1l-.3.3-.3.3c-1.9 1.7-4.4 2.8-6.6 3.1-.6.1-.9.1-1 0 2.8-1.4 5.8-3.4 6.5-3.8 0 0 1.2 0 1.7.1z" class="Ac"/><path d="M978.4 354.3c-.3-.5-.8-.8-1.2-.6v.5c.4 0 1.2.4 1.1 1.3.6 0 .2-1 .1-1.2z" class="Ag"/><path d="M978.2 355.2c-.2.2-.3.3-.5.4-.2 0-.5-.1-.7-.1.1-.2.2-.5.3-.7.2.1.4.1.6.2 0 0 .1.1.3.2z" class="Ab"/><path d="M977.7 355.4v.2c-.2 0-.5-.1-.7-.1.1-.2.2-.5.3-.7.2.1.4.1.6.2-.2.1-.2.2-.2.4z" class="Ag"/><path d="M992.2 357.5c-.8 2.5-2.9 3.5-4.9 5.9.3.8.5 1.7.5 2.7.2 3.1-.8 6.9-1.6 9.1-.7 1.9-1.7 3.3-2.8 4.7l-4.7 5.3c-.5-1.7-.1-3.8-.3-5.4-.3 1-1 1.6-1.3 2.6-1.2-3-1-6.6.3-9.4 0-.1.1-.1.1-.2.5-1 1-2 1.7-2.8.4-.6.9-1.2 1.4-1.8a11.7 11.7 0 0 0 1.4-1.9 12.8 12.8 0 0 0 1.1-2 7.7 7.7 0 0 0 .6-1.5c-2.4-1.7-3.1-3.7-3.1-6.5 0-.9.4-1.5 0-2.9-.2-.6-1.2-1-1.7-1.3a3.2 3.2 0 0 0-1.8-.5c.2-1.2.6-2.1 1.2-2.7 1.2-1.3 3.1-1.7 6.4-1.8 0 0 7.5.2 7.8 8.3a7.1 7.1 0 0 1-.3 2.1z" fill="#99473b"/><path d="M987.3 363.4c.3.8.5 1.7.5 2.7-.6.2-1.2.3-1.8.3-1.3 0-2.7 0-4.1-.3a12.3 12.3 0 0 0 1.7-3.5c-2.4-1.7-3.1-3.7-3.1-6.5 0-.9.4-1.5 0-2.9-.2-.6-1.2-1-1.7-1.3a3.2 3.2 0 0 0-1.8-.5c.2-1.2.6-2.1 1.2-2.7.4.5 1.2.7 1.9 1 1.1.5 2.3 1 2.7 2.2.3.9 0 1.7.1 2.6.9-.5 1.6-1.3 1.5-2.3 1 .7 1.1 2.1.8 3.2-.2 1-1.1 2.5-.6 3.4.7 1.2 2.2.8 3.1.1.4-.3.8-.8 1.1-1.3.2-.4.1-1.3.6-1.6.4.5.4 1.1.6 1.6.3.7.7.5 1.5.2.3-.1.5-.2.7-.3-.8 2.5-3 3.5-4.9 5.9z" fill="#823830"/><path d="M982.5 357.4c.2-.5.6-1.6-.4-1.8-.7-.2-1.5.6-1.7 1.1l-.3.6c-.2.7.1 1.8 1 1.6.7-.2 1.1-.9 1.4-1.5z" class="Aa"/><g class="Ac"><path d="M980.5 357.6l-.1-.1.1.1z"/><path d="M980.9 356.6c.7.4 0 1.3-.4 1 .2.3.6.7 1 .3.5-.5.1-1.1-.3-1.3.5-.3 1.2-.3 1 .5.5-1.4-.6-1.5-1.3-.5z"/></g><path d="M983.5 379.9l-4.7 5.3c-.5-1.7-.1-3.8-.3-5.4-.3 1-1 1.6-1.3 2.6-1.2-3-1-6.6.3-9.4l1.8-3c.4-.6.9-1.2 1.4-1.8a11.7 11.7 0 0 0 1.4-1.9 12.8 12.8 0 0 0 1.1-2l2.5.9c.4.7-3 4.3-3.6 5.2-1.4 2-2.1 3.8-2.5 6.2.5-.5 1.2-1 1.6-1.6 0 .9.1 1.9 0 2.9-.1.9-.6 1.8.3 2.2.4.2 1.2.1 2-.2z" fill="#823830"/><path d="M988.2 364.5c0 .1-.1.2-.1.2-1.3-.1-4.1-.2-4.8-1.3l-.2-.8c.5 0 1 .1 1.5.1 1.3 0 2.7 0 4-.4.2.9-.1 1.4-.4 2.2z" fill="#892745"/><path d="M988.2 364.5c0 .1-.1.2-.1.2-1.3-.1-4.1-.2-4.8-1.3l-.2-.8c.5 0 1 0 1.5.1.3.7 2.1.7 2.7.7-.3.1-.8.1-1.1.3.2.6 1.2.8 2 .8z" fill="#59172f"/><path d="M768.1 421.8c-.4-2.4-1.3-6.6-.8-9l.4-5.2c2.1-.2 2.8.5 3.7 2.1 1 1.7 1.3 4.6 1.3 6.5-.1 5.1-1.6 8.4-2.3 13.2-.4.2-.6.2-1.1.3-.3-2.5-.8-5.2-1.2-7.9z" class="Aa"/><g class="Ac"><path d="M769.6 429.7c.2.6.2 1.5-.1 2 .4 0 .7.1 1.1.3.2-.3.6-.6 1-.5 0 .9-.9 1.4-1.7 1.3-1.1-.2-1.2-.9-1.5-1.8l-.3-.9 1.5-.4z"/><path d="M769.2 430.9c0 .1-.1.3-.2.4.4 0 .7.1 1.1.3.2-.3.6-.6 1-.5 0 .9-.9 1.4-1.7 1.3s-.9-1.4-1.1-2.1l.9.6z"/><path d="M770.2 428.2c.6.9.7 2.2 1 3.3.3 1-.4.9-.9.2l-.9-1.7.8-1.8z"/></g><path d="M768.1 429.2c.2-.7.8-1.7.8-2.7l1.4 1.4a7.8 7.8 0 0 1-.6 4.6c.4 0 .7.1 1.1.3.2-.3.6-.6 1-.5 0 .9-.9 1.4-1.7 1.3-1.1-.2-1.2-.9-1.5-1.8-.4-1.1-.8-1.6-.5-2.6z" class="Aa"/><g class="Ac"><path d="M769.7 412.1zm1.6-.2s-.3.8-.7.8-.7-.4-.9-.7c.4.4 1.3.2 1.6-.1z"/></g><g class="Aa"><path d="M771.2 387.3c-.9 2.8-1 12.5.1 14 3 3.8 4.7-6.4 5.2-8.3.1-.4.2-.8.3-1.1l-5.6-4.6zm7 53.6c-1.2 1.3-1 5.9-1.2 7.7l-1.2 8.6-.9 6.7-1.7 11.8c0 .3-.1.6-.1.9-.4 3.6.8 3.9 1.6 7.2-.7.7-3.8-.2-4.9-.3a25.4 25.4 0 0 0 .5-7.7c-.2-2.8-.8-5.6-1.3-8.5 0-.1 0-.2-.1-.3-.5-2.5-.8-5.1-.5-7.7.3-2.8 1.3-5.2 1.7-7.9.4-2.3 1.2-6.2.9-8.5-.2-2-.6-11.3.7-14.5l6.5 12.5z"/></g><path d="M769.3 485a9.7 9.7 0 0 1 .9-2.6c.5-.8 1.1-.8 1.9-.3 1.3.6 2.4 2.3 1.8-.4.3.2.9.6 1.6 1.2.8.6 1.7 1.3 2.2 1.9v.7c-1.6.5-6.5.4-8.5.1.1 0 0 .1.1-.6z" class="Ab"/><path d="M769.3 485c2.2.3 7.4.4 8.4-.2-.3-.6-1.4-1.6-2.4-2.4l-1.6-1.2c.6 2.7-.6 1-1.8.4-.9-.4-1.4-.4-1.9.3-.2.2-.4 1.1-.5 1.8l-.2 1.3z" fill="#af5354"/><path d="M769.3 485c2.2.3 7.4.4 8.4-.2-.3-.6-1.4-1.6-2.4-2.4-.1.7-.5 1.4-1.7 1.7-1.4.3-2.8.1-4.1-.3l-.2 1.2z" fill="#722a2e"/><path d="M777.2 450.7c-.4 2.9-.3 4-.6 6.9l-.9 6.6c-.6 4.1-2.1 8-2.5 11.4h-2.9c-.2-2.8-.8-5.6-1.3-8.5 0-.1 0-.2-.1-.3-.5-2.5-.8-5.1-.5-7.7.3-2.8 1.3-5.2 1.7-7.9.4-2.3.2-15.8 0-18.1a31.5 31.5 0 0 0-1-3.2c-.2-.5-.3-1-.5-1.4-.1-.4-.2-.7-.3-1-.8-2.5-.2-5.5 2.4-9.5 0 0 0-.1.1-.1.1-.2.3-.4.4-.6l7.6 1.1 2.7.4c1.1 14.2-4 30.1-4.3 31.9z" fill="#146f84"/><path d="M776.2 424.8c-.3 5.6-7.4 4.2-7.5 3.7l-.3-1c-.8-2.5-.2-5.5 2.4-9.5 0 0 0-.1.1-.1l5.6 4.4c0 .9-.2 1.7-.3 2.5z" fill="#238cad"/><path d="M787.2 440.6c-1.1 1.4-.3 5.9-.4 7.8l-.3 8.6-.2 6.8-.5 11.9v.9c0 3.7 1.2 3.8 2.4 7-.6.8-3.8.2-4.9.2.3-2.8.1-5.3-.3-7.7-.5-2.8-1.3-5.5-2.2-8.3 0-.1-.1-.2-.1-.3-.7-2.4-1.3-5-1.3-7.6 0-2.8.7-5.3.9-8 .1-2.3.5-6.3.1-8.6-.4-2-1.8-11.2-.8-14.5l7.6 11.8z" class="Aa"/><path d="M782.8 485.3c.1-.7.6-2.4.7-2.7.5-.8 1-.8 1.9-.5 1.3.6 2.5 2.2 1.8-.5.3.2 1 .6 1.6 1.1.8.6 1.8 1.2 2.3 1.8v.7c-1.6.6-6.4.7-8.4.6.1 0 0 .2.1-.5z" class="Ab"/><path d="M782.8 485.3c2.2.1 7.4 0 8.4-.7-.3-.6-1.5-1.5-2.5-2.3l-1.6-1.1c.7 2.7-.5 1-1.8.5-.9-.4-1.4-.3-1.9.5-.2.3-.3 1.1-.4 1.8l-.2 1.3z" fill="#af5354"/><path d="M782.8 485.3c2.2.1 7.4 0 8.4-.7-.3-.6-1.5-1.5-2.5-2.3 0 .7-.4 1.4-1.7 1.8s-2.8.3-4.1-.1c0 .7-.1 1.3-.1 1.3z" fill="#722a2e"/><path d="M788.2 418.3c2.5 14-.9 30.3-1 32.2-.1 2.9.1 4 .1 6.9 0 2-.1 4.2-.2 6.7-.2 4.1-1.3 8.2-1.3 11.6l-2.8.4c-.5-2.8-1.3-5.5-2.2-8.3 0-.1-.1-.2-.1-.3-.7-2.4-1.3-5-1.3-7.6 0-2.8.7-5.3.9-8 .1-2.3-1.4-15.7-1.9-18-.2-.8-3.8-4.5-4.5-6.3-1.1-2.6-1.6-5.9 1-10.6l13.3 1.3z" fill="#238cad"/><path d="M789.5 425.4c-5.6 3-10.6 3.2-15.5 2.7-1.1-.1-5.8-1.5-6.1-2.4a20.2 20.2 0 0 0 .4-3.5v-.7l.3-5.9.5-11.4v-.7l.3-5.2.3-4.4c.3-3.5.7-5.9 1.1-6.4.5-.6 1.8-.9 3.3-1.2 2.6-.4 5.9-.4 8-.4 1.1 0 1.8.1 2 .1a4.2 4.2 0 0 1 2.2.5c1.3.7 1.5 2 1.3 3.6-.2 1.8-.7 4-.5 6.1 1.1 9.8.8 23.5 2.4 29.2z" fill="#ff1515"/><g class="Aa"><path d="M774.5 386.3c0 1 1.2 5.8 8.5.9-1.8-.7-1.8-6.9-.5-7.6l-2.8-.2-3.5-.6c-.5 1.3-.6 2.6-.5 4 .1.9-1.2 2.4-1.2 3.5zm9.9-10.6c.4.2 1.5-.3 1.5-.8 0-.1 0-.1-.1-.2-.2-.3-.7-.4-1-.6s-.6-.6-.8-.8l.3 1.9.1.5z"/></g><path d="M784.4 375.7c.4.2 1.5-.3 1.5-.8a1.9 1.9 0 0 1-.9.3h-.6v.5z" class="Ac"/><path d="M773.8 375.6c.6 1.3 1.6 2.4 2.8 3.2.1.1.2.2.3.2.1.1.2.1.3.2 2 1.2 4.4 1.9 6.5 1.7.6 0 .8 0 .9-.1h0c.1-.1.2-.2.3-.5.7-1.5.6-3.8-.4-6.2-.1-.4-.4-.7-.7-1.1-.1-.2-.3-.4-.4-.6 0 0 0-.1-.1-.1-.3-.8-.5-2.4-.6-2.9l-7.8.5c-1.6 1.7-2.3 3.1-1.1 5.7z" class="Aa"/><path d="M776.7 378.9c.1.1.2.2.3.2.1.1.2.1.3.2 2 1.2 4.4 1.9 6.5 1.7.6 0 .8 0 .9-.1a51.5 51.5 0 0 1-6.5-2.4c0 0-1 .2-1.5.4z" class="Ac"/><path d="M782.4 372.3c.2-.5.6-.9 1-.8l.1.5c-.4.1-1.1.5-.8 1.4-.5.1-.4-.8-.3-1.1z" class="Ag"/><path d="M782.8 373.1c.2.2.4.3.5.2.2 0 .5-.1.7-.2-.1-.2-.3-.4-.3-.6-.1.1-.3.2-.5.3s-.3.2-.4.3z" class="Ab"/><path d="M783.3 373.2s0 .1.1.1c.2 0 .5-.1.7-.2-.1-.2-.3-.4-.3-.6-.1.1-.3.2-.5.3-.1.2-.1.3 0 .4z" class="Ag"/><path d="M789.6 425.5c-5.6 3-10.6 3.2-15.5 2.7-1.1-.1-6.2-.7-6.6-2.9.1-.4 0-2.2.9-3.7 3.8 2.2 8.1 3.5 12.6 1.8 5.3-2.1 2.7-6.5 2.7-11.6 0-.4-.7-4.1-1.1-8.9-.3-4.3.9-5 .8-6.7-.3-4.7 2.3-3.7 4.3-5.9-.2 1.8-.7 4-.5 6.1.1.6.1 1.1.2 1.7a176 176 0 0 1 .5 7.7c.4 7.7.6 15.7 1.7 19.7z" fill="#ba0404"/><g class="Al"><path d="M786.3 386.5c-1.1.7-2.6 2.3-4.6 5.5-1.1 1.9-1.6 4.1-2 6.2 0 .2-.1.5-.1.7-.2 1.3-.5 2.4-.8 3.6l-1.2-.4-1.9-.6a27.2 27.2 0 0 0 .7-3.3c.1-.6.2-1.3.4-1.9l.7-2.6c.4-1.2.8-2.4 1.5-3.5 1-1.7 2.1-3.2 3.1-4.3 1.1 0 1.8.1 2 .1a8 8 0 0 1 2.2.5zm-16.2 12.1l-3.1-.9a27.2 27.2 0 0 0 .7-3.3c.5-2.6 1-5.4 2.6-8 2.8-4.7 5.6-7.3 8.3-7.7l.5 3.2c-.8.1-2.9.9-6 6.2-1.2 2.1-1.7 4.6-2.1 6.9-.3 1.3-.5 2.5-.9 3.6z"/></g><path d="M780.2 404.2c.3 6.4.5 14.4-5.6 17.1-5.4 2.3-12.7.5-12.2-6.8v-.5c1.3-19.4 8.6-20.7 8.9-20.8 1.5-.2 3-.5 4.4-.2.9.2 1.8.7 2.6 1.7 1.8 2.4 1.8 6.6 1.9 9.5z" fill="#3a3a3a"/><path d="M780.2 404.2c.3 6.4.5 14.4-5.6 17.1-5.4 2.3-12.7.5-12.2-6.8v-.5s.1 0 .1.1c5.3 2.9 11.8 1.6 14.2-4.6.3-.9 1-3.1.5-4.1-.5-1.2-9.8-1.6-12.2-.7 1.7-1.1 10.4-2.2 12.5-1.9-.1-2.1-.6-6.6-1.9-9.7.9.2 1.8.7 2.6 1.7 1.9 2.3 1.9 6.5 2 9.4z" class="Al"/><path d="M783.7 369c-1.1.9-2.4 1.3-3.1 2.9a6.9 6.9 0 0 0-.6 4 388.9 388.9 0 0 1 .5 13.3c-1.1.7-9-1-10.4-.9.4-2.4-.3-6.1-.5-9.4a22.8 22.8 0 0 1 0-3.7c.3-2.7 2.6-5.8 5-7.2 1.7-1 5-.8 5.9-.6.6.1 1 .2 1.4.3.2.1.4.2.6.2 1.2.5 1.2 1.1 1.2 1.1z" class="Ag"/><path d="M783.7 369c-1.1.9-2.4 1.3-3.1 2.9a6.9 6.9 0 0 0-.6 4 388.9 388.9 0 0 1 .5 13.3c-.6.4-3.8.7-6.3.4a9 9 0 0 1-4.1-1.3c.4-2.4-.3-6.1-.5-9.4.4.2.9.4 1.4.6 3.4.8 4.5-1.5 5.1-4.2.6-3 3-6 5.9-7.6.2.1.4.2.6.2 1.1.5 1.1 1.1 1.1 1.1z" fill="#4c312f"/><path d="M778.6 377.2c-.1-.6-.2-1.8.8-1.8.8 0 1.4 1.1 1.5 1.7l.1.7c.1.8-.5 1.8-1.4 1.4-.6-.4-.9-1.3-1-2z" class="Aa"/><g class="Ac"><path d="M780.5 376.8c-.8.2-.3 1.4.1 1.2-.3.2-.8.6-1.1 0-.4-.6.2-1.2.7-1.3-.4-.4-1.2-.6-1.2.3-.2-1.6 1-1.4 1.5-.2z"/><path d="M780.6 378l.1-.1s-.1 0-.1.1z"/></g><path d="M787.8 404.8l-1.2 2.6c-.1.1-.1.2-.2.3-2.1 3.8-5.1 6.7-8.5 8.1l-.9-2.2c3.6-1.5 7.3-5.4 9.2-11.2.5-1.6.9-3.4 1.1-5.3.2 2.4.4 5 .5 7.7z" class="Al"/><path d="M791.4 423.7c-.1-2.4-.1-6.8-1-9l-1.4-5c-2.1.2-2.6 1.1-3.2 2.8-.7 1.9-.3 4.8.1 6.7 1.1 4.9 3.3 7.9 4.9 12.5a4.1 4.1 0 0 0 1.1.1c-.3-2.6-.3-5.4-.5-8.1z" class="Aa"/><g class="Ac"><path d="M791.6 431.8c-.1.7.1 1.5.5 1.9-.3.1-.7.2-1 .5-.3-.3-.7-.5-1.1-.3.2.9 1.1 1.2 2 .9 1-.4.9-1.2 1.1-2.1.1-.4.1-.7.2-1h-1.7z"/><path d="M792.3 432.8c.1.1.1.3.2.4-.3.1-.7.2-1 .5-.3-.3-.7-.5-1.1-.3.2.9 1.1 1.2 2 .9.8-.3.6-1.6.7-2.2l-.8.7z"/><path d="M790.7 430.3c-.5 1-.2 2.3-.3 3.4-.1 1 .6.8.9 0 .2-.5.4-1.4.5-1.8l-1.1-1.6z"/></g><path d="M793 430.9c-.4-.6-1.1-1.5-1.3-2.5l-1.1 1.7c0 1.8 1 3.8 1.5 4.4-.3.1-.7.2-1 .5-.3-.3-.7-.5-1.1-.3.2.9 1.1 1.2 2 .9 1-.4.9-1.2 1.1-2.1.1-1 .4-1.7-.1-2.6z" class="Aa"/><path d="M788.1 413.4l2.4-.3c1.7-7.2-1.7-25.6-3.7-26.2 0 0-2.8 2.5-4.1 6.7-1 3.4 1.3 15.2 2.5 20.5 1-.3 1.9-.6 2.9-.7z" fill="#ff1515"/><g class="Ac"><path d="M787.9 414.5z"/><path d="M786.3 414.7s.5.7.9.7c.4-.1.6-.5.7-.9-.3.4-1.2.4-1.6.2z"/></g><path d="M950.9 440.2c.9 1.6 1.8 3 2.5 4.8.9 2.4 2.8 18.4 5.5 23.7-.9.4-2.3 1.9-3.2 1.5a15.4 15.4 0 0 0-1.7-7.1c-1.3-3.2-3.3-7.6-5.1-11.6a131.8 131.8 0 0 1-2.7-6.2c-.7-1.7-1.5-3.4-2.2-5.1h6.9z" class="Aa"/><path d="M960 469.9c-.3-.7-1.2-2-1.4-2.2-.6-.6-1-.4-1.4.2-.7 1-.9 2.9-1.4.2-.2.3-.4.9-.7 1.5l-.9 2.4.2.6c1.3 0 4.5-1.4 5.7-2.2 0 0 .2.2-.1-.5z" fill="#06090a"/><path d="M960 469.9c-1.4.8-4.8 2.4-5.7 2.1 0-.6.4-1.9.8-3 .3-.7.4-1.5.6-1.8.5 2.7.8 1 1.5.1.4-.7.8-.8 1.4-.2.2.2.6.9.9 1.6a5.5 5.5 0 0 0 .5 1.2z" fill="#0b4b55"/><path d="M960 469.9c-1.4.8-4.8 2.4-5.7 2.1 0-.6.4-1.9.8-3 .3.7.8 1.2 1.7 1.1 1-.1 1.9-.6 2.7-1.4a5.5 5.5 0 0 0 .5 1.2z" fill="#022a36"/><path d="M940.2 435.6c.5 3.1 1.2 5.9 2 8.3 1.3 4.1 6 9.5 12.4 21.6.1.2.3.2.6.2a7.2 7.2 0 0 0 2.4-1c.1-.1.3-.2.3-.2s.6-16.3-7.6-25.7c-1.1-1.2-.2-18.9 0-26.8 0-1.9-1-3.7-1.1-4.1-4-.7-10.6-.3-10.7.5-.1.5-.1 1.2-.1 2-.2 5.4.3 16.2 1.8 25.2z" fill="#281619"/><path d="M942.5 444.7c.9-4.7-1.6-30.9 8.1-28.5 0-2-1.4-8-1.5-8.4-4-.7-10.6-.3-10.7.5-.1.5-.1 1.2-.1 2-.1 5.5.9 26.8 4.2 34.4z" fill="#512e31"/><g class="Aa"><path d="M954.9 386.6c1.2 6.3 4 11.1 6.3 10.7s3.3-5.9 2.2-12.2c-1.2-6.3-4-11.1-6.3-10.7-2.4.4-3.4 5.9-2.2 12.2zm-13.8-22.9c.1.6 1.2 1 1.7 1.1l.2-.6 1.3-3.6-3.2 3.1z"/></g><path d="M941.1 363.7c.1.6 1.2 1 1.7 1.1l.2-.6c-.4-.1-.5-.4-.9-.7-.2 1.3-1 0-1 .2z" class="Ac"/><g class="Aa"><path d="M941.9 368.5c0 .1.1.2.1.4.4.8 2.5.8 4.4.7.6 0 1.1-.1 1.6-.1s.8-.1 1.1-.1c.4 0 .8.7.9.6l-.3-1.9v-.1l1.2-3 2.6-6.3-5.8-4.3c-.1 0 0-.2-.1-.1a25.1 25.1 0 0 0-2.5 3.2c-.6.9-.5 2-.8 2.9-.1.3-.3.5-.5.7l-.1.1c-1.1 1.1-1.2 1.9-1.4 3.5-.3 1.4-.7 2.7-.4 3.8z"/><path d="M945 375.2c.8.1 1.7.3 2.5.7l3.4 1.2c.3-1.8 1.1-1.3 1.5-3.2.4-2.1 1.9-7.1 2.8-8.7l-4.3-.2h-.7l-3.4-.2a30.2 30.2 0 0 1-.2 3 5.9 5.9 0 0 1-.2 1.4v.3.3a22.1 22.1 0 0 1-.5 2.5c-.2 1.1-.6 2.1-.9 2.9z"/></g><path d="M944.5 358.7c.6.1 1.7.8 1.6 1.4l-.2.6a3.5 3.5 0 0 0-1.7-.9c0-.4.1-.8.3-1.1z" fill="#863b35"/><path d="M943.7 361.2c.2.1.4.1.5.2.1 0 .2.1.4.1.2.1.3.1.4.2l.3-.6c-.2-.2-.4-.4-.6-.5s-.3-.2-.5-.3c-.1.4-.2.6-.5.9z" class="Ab"/><path d="M943.7 361.2c.2.1.4.1.5.2.1 0 .2.1.4.1 0-.1 0-.1.1-.2.1-.2.1-.4.1-.6-.2-.1-.3-.2-.5-.3-.2.3-.3.5-.6.8z" fill="#1c1918"/><path d="M942.1 368.9c.4.8 2.5.8 4.4.7v.3a22.1 22.1 0 0 1-.5 2.5c.7-.1 1.5-.1 2.2-.2-.3-.8-.2-1.8-.1-2.7 0-.3.1-.5.1-.7.1-.9.2-2.3.6-3l-.3-.4c-.4.7-.5 1.5-1.1 2l-.6.6a4.2 4.2 0 0 1-1.4.9c-1 .1-2.3.3-3.3 0z" class="Ac"/><path d="M953.5 369.8c-1-.5-2-1.1-3.1-1.3-.5-.1-1-.1-1.6-.2 0-2 .4-4.1.4-5.1-1.1 1.1-1 1.5-1.7 2.6-.5-.5-.4-3.2 1.7-7.4.4-.8-3.9-2.1-3.8-2.9.4-2.7 8.4-1.1 11.1.9 2.4 1.8 2.5 4.3 1.7 5.9-1.1 2.2-4.3 7.7-4.7 7.5z" fill="#863b35"/><path d="M948.3 362.8c.6-.5 1.9.4 2.1 1 .2.7-.5 1.5-.9 2-1.2 1.6-4 .7-1.2-3z" class="Aa"/><path d="M948.3 363.6l.3-.3c.6.1 1 .3 1 1.1 0 .7-.5 1.2-1 1.4.3-.2.6-.6.6-1 0-.5-.2-.8-.6-.7.3.4-.1 1.4-.6 1.1-.6-.4.1-1.2.3-1.6z" class="Ac"/><path d="M950.1 450.7l.6-6.8.3-3.7 6.7.2c0 2.4.3 4.7.1 7.2-.3 2.6-6.7 17.5-6.7 23.6-1.1-.1-3.2.3-3.8-.5 1.6-3 1.6-3.4 2-7 .3-3.6.5-8.5.8-13z" class="Aa"/><path d="M952.2 472.1a18.3 18.3 0 0 0-.7-2.6c-.5-.8-.9-.8-1.6-.4-1.1.6-2.1 2.3-1.6-.4a6.4 6.4 0 0 0-1.3 1.2l-1.9 1.9v.7c1.4.5 5.5.5 7.2.2-.1 0 0 .1-.1-.6z" fill="#06090a"/><path d="M952.2 472.1c-1.9.2-6.2.3-7.2-.3.2-.6 1.2-1.6 2-2.4.6-.5 1-1.2 1.3-1.4-.5 2.7.5 1.3 1.6.6.7-.4 1.2-.4 1.6.4.1.2.3 1.1.4 1.8a13.2 13.2 0 0 1 .3 1.3z" fill="#0b4b55"/><path d="M952.2 472.1c-1.9.2-6.2.3-7.2-.3.2-.6 1.2-1.6 2-2.4 0 .7.4 1.4 1.5 1.7 1.2.3 2.4.2 3.5-.3l.2 1.3z" fill="#022a36"/><path d="M947.5 407.9c3.8 12.4.6 53.9.8 57.9 0 .2.2.3.5.5.7.3 2 .5 2.8.5h.4s5.7-14 6.8-24.8c.3-3.1.1-14.4.2-24.4 0-3.4.1-6.5.3-9.2v-.4h-.3l-8-.4c-2.1-.1-3.6-.1-3.5.3z" fill="#512e31"/><path d="M949.6 413.5c.8 3.6 3.9 6 6.9 5.4a4.8 4.8 0 0 0 2.5-1.4c1.4-1.5 2.1-3.8 1.6-6.3-.2-1.1-.7-2.1-1.3-3-.1-.1-.2-.3-.3-.4l-8-.4a7.2 7.2 0 0 0-1.4 6.1z" fill="#503637"/><path d="M955.3 386.1c.4.4.7 1 1 1.6.5 1.2.8 2.6 1.4 3.7a14 14 0 0 0 1.7 2.8l6.1-1.2h0v-.5l-.3-2.4-1.8-8c-.5-2.3-1.8-7.8-4.8-8.7l-.3 7-1.4 2.9-1.6 2.8z" class="Ai"/><path d="M956.3 387.7c.5 1.2.8 2.6 1.4 3.7a14 14 0 0 0 1.7 2.8l6.1-1.2h0v-.5c-1.1.1-2.6.4-3.7-.3-1.3-.8-2.2-11.3-2.7-13.3-.1-.2-.9 1.9-.9 1.6-.2-1.3-.3-3-.9-3.8-.1 2.2-.4 4.4-.6 6.6-.2 1.4-.3 2.9-.4 4.4z" class="Ah"/><path d="M948.2 416.4c3.1-.5 8.8.2 10.8-2.9 0 2.6-1.9 3.8-4.3 4.6-1 .3-2.1.5-2.9.9-.9.4-3.8 2.2-3.8 2.2l.2-4.8z" fill="#281619"/><path d="M943.7 373.9l5.9.1 5.8.1c-.2-.2 0-1.3-.2-2.2 0-.2-.1-.4-.2-.6-2.3-.6-4.8-1-7.2-.8-.9.1-2.5.2-3.3.6-1.2.5-.8 1.4-.8 2.8z" class="Ai"/><path d="M943.7 373.9l5.9.1c0-.1 0-.3-.1-.4-.2-.6-1-1.2-1.1-1.8s.4-.4 1-.4l3.4.1 2.4.4c0-.2-.1-.4-.2-.6-2.3-.6-4.8-1-7.2-.8-.9.1-2.5.2-3.3.6-1.2.5-.8 1.4-.8 2.8z" class="Ah"/><path d="M952.6 416.6c.3-.4.9-.3 1.3-.6.5-.4.7-.7 1.3-.9.4-.1 1.2-.3 1.3-.8l2.1 1.7c-.2.7-.3 1.3-.6 2-.5 1.1-1.2 2.4-2.6 1.6-1.2-.7-.6-1.8-.5-2.8-.4.1-.8.3-1.2.3s-1.5.1-1.1-.5z" class="Aa"/><path d="M937.3 376.3v1.2c0 1.1.1 2.1.2 3.2.3 6.5.9 12.9.9 19.5 0 3.2.4 7.3-.8 10.1 13.9 3.1 22.5-1.7 22.5-1.7-.2-1.1-.4-2.2-.5-3.4a81.2 81.2 0 0 1-.3-13c.4-4.5-.4-9.3.5-13.7.5-2.5.3-4.3-1.1-5.1-2.4-1.3-7.4-1.5-10.8-1.5-2.9 0-5.9.5-8.5 1.2-.2.1-.3.1-.5.2-.6.2-.9.4-1.2.6-.3.6-.4 1.2-.4 2.4z" class="Ai"/><path d="M938.4 400.2c0 3.2.4 7.3-.8 10.1 13.9 3.1 22.5-1.7 22.5-1.7-.2-1.1-.4-2.2-.5-3.4-2 .9-4.6 1.3-6.1 1.4-2.7.3-6 .3-8.6-.6-2.5-.8-2.5-3.4-2.7-5.7-.4-3.6-.2-7.2-.7-10.8l-1.7-11c-.2-1.6-.4-3.5-.8-5.2-.6.2-.9.4-1.2.6 0 .2 0 .3-.1.5-.1 1-.3 1.9-.5 2.9 0 1.1.1 2.1.2 3.2.3 6.7 1 13.1 1 19.7z" class="Ah"/><path d="M956.2 414.8c.5.6 1.5 1.3 2.4 1.5.9-1.7 2.1-5.6 2.7-7.1a53.3 53.3 0 0 0 2-8.1c.2-1.2.2-3.4-.4-5-.1-.2-.1-.3-.2-.5s-.2-.4-.3-.5l-2.9-.8c-3.3 5-2 17.4-3.3 20.5z" class="Aa"/><g class="Ac"><path d="M960.3 396.1c1 .9 1.9.9 2.6.1-.1-.2-.1-.3-.2-.5-.7.4-1.6.8-2.4.4zm-3.8 20.7c.4.6.7 1.1.9 1.9.1.3.3.7.1 1-.1.1-.5.2-.6.3-.4.2-.7.5-1.1.6-.4.2-.6 0-.9-.2-.6-.3-1.1-.7-1.4-1.3-.9-1.3-.8-3-1.8-4.2l4.8 1.9z"/></g><g class="Aa"><path d="M953.9 414.2c.3.3 1.9 1.3 2.2 1.5.3.3.7.4 1.1.7l.7.7c.2.2.6.8 1 1.1.3.2-.6.6-.8.5-.9-.2-1-.9-1.2-1l-.1-.1c-.6.5-1.2.3-1.9 0-1-.4-2.1-2.7-2.1-3.2l1.1-.2zm.8 4.6c.3.3.5.9.6 1.2 0-.4-.3-1.5.4-1.4.5.1.5 1 .6 1.4 0-.3-.1-1.3.3-1.3.5-.1.6.8.6 1.1.1-.2.1-1.7.6-.9.2.5.3 1.5 0 1.9l-.1.2c-.3.2-1 .1-1.2-.1-.2.2-.4.2-.7.1-.2-.1-.3-.2-.5-.4s-.3-.1-.5-.2c-.4-.1-.5-.7-.6-1 0-.4.1-1 .5-.6zm-15.6-29.4c2 6.1 5.2 10.6 7.3 10s1.2-8.3-.8-14.4-4.3-8.5-6.3-7.8c-2.1.5-2.1 6-.2 12.2z"/></g><path d="M936.9 384.6l2.6 8.6c.2.7.5 1.4.8 2.1.1.3.3.6.4.9l7.8-2.3.3-.1c.1-1.2-1.2-3.2-1.3-4.3-.2-2-3.7-11.9-3.3-13.9l-4.9-2.1c-5.5 1.3-3.1 8.6-2.4 11.1z" class="Ai"/><path d="M947 394.6c1.8-.4 7.1 19.2 8 20.9-.9.2-1.7 1.1-2.5.8-2.2-4.1-11.2-14.8-10.5-21.2l5-.5z" class="Aa"/><path d="M940.2 395.2c.1.3.3.6.4.9l7.8-2.3c-1.7-5.6-3.4-7.5-4.9-15.6-.4 5.5 2.2 13.9 1.8 14.8-.5.9-2.3 1.5-3.2 1.8-.7.2-1.3.3-1.9.4z" class="Ah"/><path d="M946.5 395.2h.2c-.9 1.3-2.1 1.5-3.1.2.8.6 2 .1 2.9-.2z" class="Ac"/><g class="Aa"><path d="M953.7 419.4c.1-.3.3-.6.6-.9.4-.3.8-.2.7.3-.1.4-.5.8-.7 1.1l-.1.2c-.6.2-.5-.5-.5-.7z"/><path d="M953.2 418.8a1.8 1.8 0 0 1 .6-.9c.4-.4.9-.2.7.3-.1.4-.5.8-.7 1.2l-.1.2c-.7.2-.6-.6-.5-.8z"/><path d="M952.5 418.2c.1-.3.4-.7.7-1 .4-.4 1-.2.8.3-.2.4-.6.9-.8 1.3l-.2.2c-.7.3-.6-.5-.5-.8z"/><path d="M952 417.9c.1-.3.3-.6.6-.9.4-.4.9-.2.7.3-.1.4-.5.8-.7 1.2l-.1.2c-.7.2-.6-.5-.5-.8z"/></g><path d="M951.1 372.9s.1.2.2.6c0 .1.1.2.1.3s.1.2.1.4c.1.3.1.6.2.9s.1.7.2 1.1c0 .2.1.4.1.6s.1.4.1.6c.1.4.1.9.1 1.3 0 .2 0 .5.1.7v.3.3.7.7 1.3 1.2c0 .4 0 .8-.1 1.1 0 .3-.1.7-.1.9 0 .3-.1.5-.1.7-.1.4-.1.6-.1.6s.1-.2.2-.6c.1-.2.1-.4.2-.7s.2-.6.2-.9c.1-.3.1-.7.2-1.1 0-.2.1-.4.1-.6s0-.4.1-.6v-.7-.7-.7-.7c0-.5-.1-.9-.1-1.4 0-.2-.1-.5-.1-.7s-.1-.4-.1-.7c0-.2-.1-.4-.1-.6-.1-.2-.1-.4-.2-.6l-.3-1.1-.3-.9c-.1-.1-.1-.3-.2-.4s-.1-.2-.2-.3-.2-.3-.2-.3z" class="Ah"/><path d="M825.1 487c-.1-.7-.6-2.1-.8-2.3-.5-.7-1-.7-1.8-.3-1.2.6-2.2 2.1-1.7-.3l-1.4 1-2 1.7v.6c1.5.4 5.9.3 7.7.1.1 0 .1.1 0-.5z" fill="#04090a"/><path d="M825.1 487c-2 .2-6.7.4-7.7-.2.2-.5 1.2-1.5 2.1-2.2.6-.5 1.1-.9 1.4-1-.5 2.4.5.9 1.7.3.8-.4 1.3-.4 1.8.3.2.2.3.9.5 1.6l.2 1.2z" fill="#0a252d"/><path d="M825.1 487c-2 .2-6.7.4-7.7-.2.2-.5 1.2-1.5 2.1-2.2.1.7.4 1.2 1.6 1.5s2.5.1 3.7-.3a9 9 0 0 1 .3 1.2z" fill="#051519"/><path d="M827.6 433.3c-.4 2.6-.7 5.2-.8 7.8-.1 4.9-.5 9.1-.5 13.1s-.8 24.1-1.5 29.4c-.1.8-.2 1.2-.3 1.3-.9.7-4 .3-4.7-.5.1-.3-.7-8.5-1.1-12.4l-1.4-17.5-1.9-20.3c-.3-3-.8-5.9-.9-8.9-.1-1.6 0-3.2 0-4.7 0-.9.4-2.3.1-3l13.8 2.4c.5 4.3-.2 8.8-.8 13.3z" fill="#252c30"/><path d="M828.7 487c.1-.7.6-2.1.8-2.3.5-.7 1-.7 1.8-.3 1.2.6 2.2 2.1 1.7-.3l1.4 1 2 1.7v.6c-1.5.4-5.9.3-7.7.1-.1 0-.2.1 0-.5z" fill="#04090a"/><path d="M828.7 487c2 .2 6.7.4 7.7-.2-.2-.5-1.2-1.5-2.1-2.2-.6-.5-1.1-.9-1.4-1 .5 2.4-.5.9-1.7.3-.8-.4-1.3-.4-1.8.3-.2.2-.3.9-.5 1.6-.2.6-.2 1.2-.2 1.2z" fill="#0a252d"/><path d="M828.7 487c2 .2 6.7.4 7.7-.2-.2-.5-1.2-1.5-2.1-2.2-.1.7-.4 1.2-1.6 1.5s-2.5.1-3.7-.3c-.3.6-.3 1.2-.3 1.2z" fill="#051519"/><path d="M825.3 420l13.8-2.4c-.3.7.1 2.1.1 3v4.7c-.1 3-.6 6-.9 8.9l-1.9 20.3c-.6 5.8-.9 11.7-1.4 17.5l-1.1 12.4a6 6 0 0 1-4.7.5c-.7-.5-1.3-26-1.3-30.6 0-4-.2-9.4-.2-13.4 0-7.1-3.1-14.1-2.4-20.9z" fill="#252c30"/><g fill="#171c1e"><path d="M826.8 441.1c-.1 4.9-.5 9.1-.5 13.1s-.8 24.1-1.5 29.4v-1.8c-.4-7.8.3-49.6.2-51.4-2.7-.5-5.3-1.4-7.4-3.4 1.5.6 8.8 1.8 9.5 2.1.2 1.2-.2 9.4-.3 12z"/><path d="M827.2 441.1c.1 4.9.5 9.1.5 13.1s.8 24.1 1.5 29.4v-1.8c.4-7.8-.3-49.6-.2-51.4 2.7-.5 5.3-1.4 7.4-3.4-1.5.6-8.8 1.8-9.5 2.1-.2 1.2.2 9.4.3 12z"/></g><path d="M840.8 402.3c-2 6-2.1 11.5-1.4 17.6-2 .3-4.4 0-6.4 0-2.2 0-4.3-.2-6.4-.2h-1c-3.6 0-8-.1-11.2 1.1-.5-1 0-2.6.1-3.7.1-1.4-.1-2.7-.1-4.1-.1-2.6-.2-5.3-.8-7.8-.2-1-.5-2-.8-3-.5-1.6-1.1-3.3-1.7-4.8-1-2.4-2.5-5.2-.2-7.2 1.6-1.3 5-2.5 7.8-4 2.2-1.1 4-2.5 4.4-4.3l6.3.4c.1.6 1.6 1.7 3.4 2.7 2.2 1.4 4.9 2.7 5.8 3.2 2.2 1.2 4 2.1 4.4 5.2.1 2.8-1.5 6.5-2.2 8.9z" fill="#c6bfa3"/><g class="Am"><path d="M832.6 385.2c-3.1.6-6.4.6-9.4.8l-4.6.3c2.2-1.1 4-2.5 4.4-4.3l6.3.4c.1.7 1.6 1.7 3.3 2.8zm-5.4 2.1c0 .1.1.1.1.1 0 .1.1.2.1.4s.1.4.1.6.1.5.1.8.1.6.1 1c0 .3.1.7.1 1.1v2.4l-.1 2.3c0 .4 0 .7-.1 1.1 0 .3-.1.7-.1 1-.1.6-.1 1.1-.2 1.4s-.1.5-.1.5v-.6c0-.4 0-.8-.1-1.4v-1-1.1-1.2-1.2-2.3c0-.7 0-1.4.1-2v-.8-.6-.4-.1z"/></g><path d="M832.7 376.3l-1.3 4.5c-.1.5-.1 1.6-.2 2.3 0 .2-.1.4-.2.5-.7.8-1.8.4-2.8.5h-6.6l-2.3-6.3c-.5-2.2-.3-4.2 1.1-6.1.2-.2.4-.4.6-.7 2.5-2.4 7.7-3.5 8.9.6 3.6-1.2 3.5 1.7 2.8 4.7z" fill="#6d4a46"/><path d="M832.7 376.3l-1.6 6.8c-.1.2-.1.4-.2.5-.7.8-1.8.4-2.8.5h-6.6l-2.3-6.3c-.5-2.2-.3-4.2 1.1-6.1.2-.2.4-.4.6-.7-.4 1.4 0 2.8 1.1 3.8 2.2 2 6 1.2 8-.7 0 .4-.2 1.5 0 1.9s1 .4 1.5.4c.4.1.8 0 1.2-.1z" fill="#4f3331"/><g class="Am"><path d="M825.6 419.8c-3.6 0-8-.1-11.2 1.1-.5-1 0-2.6.1-3.7.1-1.4-.1-2.7-.1-4.1-.1-2.6-.2-5.3-.8-7.8-.2-1-.5-2-.8-3l1.8-3.4c-.3 7.6 1.1 13.3 2.8 15.5 1.9 2.4 5.4 4 8 5.3 0 0 .1.1.2.1zm2.1.1c3.6 0 8-.1 11.2 1.1.5-1 0-2.6-.1-3.7-.1-1.4.1-2.7.1-4.1.1-2.6.2-5.3.8-7.8.2-1 .5-2 .8-3l-1.8-3.4c.3 7.6-1.1 13.3-2.8 15.5-1.9 2.4-5.4 4-8 5.3 0 .1-.1.1-.2.1z"/></g><g class="Ac"><path d="M831.1 423.7c-1.9.3-3.2.8-4.8 1.8-.4.3-1.9 1.1-1.8 1.7.1.5 1.6 1.4 2 1.6 1.3.5 3.1.1 4.5-.4 1.6-.6 2.3-1.8 3.1-3.1l-3-1.6z"/><path d="M828.4 427c-1.4-1.3-3.5-2.5-5.3-3.2-.3-.1-.7-.2-1-.1l-3.2.8c-.4 2 2.7 2.9 3.7 4.2.3.4 1.1 1.9 1.7 1.5s-.6-1.9-.8-2.2c1.1.2 2 .9 3 1.1.3.1 1.3.3 1.2-.2v-.1a2.1 2.1 0 0 0 1.1.4c.1-.2-.1-.5-.4-.8.3.2.5.3.7.4 1.3.3-.3-1.5-.7-1.8zm-1.3.2c0 .1 0 .1 0 0 0 .1 0 .1 0 0z"/></g><g class="Aa"><path d="M824.9 424.9c-1-1.8-2.1-1.2-3.4-2.2l-2 1.2c.1.2.5 1.3.7 1.5 1.1 1.2 2 .7 3.5 1 .9.1 1.1.1 1.8.7.3.3 1.4.6 1.8-.1.1-.1-2.1-1.5-2.4-2.1z"/><path d="M827.7 425.4c1.1-1.8 2.1-1.1 3.6-1.9l1.9 1.4c-.1.2-.6 1.3-.8 1.5-1.1 1.1-2.1.6-3.6.8-.9.1-1.1.1-1.8.6-.3.2-1.5.5-1.8-.2-.1-.5 2.2-1.7 2.5-2.2z"/><path d="M827.3 428.4c.1-.5-.1-.9-.6-.6a1.8 1.8 0 0 0-.6.9v.1c0 .4.3.7.7.5.2 0 .4-.6.5-.9zm1.6 0c.3-.6.3-1.2-.4-.8-.4.2-.7.6-.9 1.1v.1c-.1.5 0 1 .5.8.2-.2.6-.8.8-1.2z"/><path d="M829.9 428.5c.3-.6.3-1.2-.4-.8-.4.2-.7.6-.9 1.1v.1c-.1.5 0 1 .5.8.3-.2.7-.9.8-1.2z"/><path d="M830.8 428.4c.3-.6.3-1.2-.4-.8-.4.2-.7.6-.9 1.1v.1c-.1.5 0 1 .5.8.3-.2.6-.8.8-1.2z"/></g><g fill="#c6bfa3"><path d="M821.8 422.9c-1.2 1-1.2 2.3-2.4 3.3-1.4-1.7-13-9-13.1-12-.1-3.4 1.1-22.1 4.5-23.9l2.7 5.8.4.9 1.1 2.3c-.1.7-.5 3.1-.9 5.6-.3 2.5-.6 5-.6 5.9.1 2.2.5 1.9 2.6 4.1.7.8 1.3 1.6 1.9 2.3 1.4 2 2.4 4 3.8 5.7zm24.9-8.7c0 3-11.4 10.6-12.8 12.3-1.3-1-1.5-1.8-2.8-2.8.7-.9 1.4-1.9 2-3 1.1-1.8 2.2-3.8 3.8-5.5 2.1-2.3 2.4-1.9 2.5-4.2 0-1.1-.6-4.9-1.1-7.9l-.7-3.6.3-.6.3-.7 3.3-7.6c3 2.6 5.2 20.2 5.2 23.6z"/></g><g class="Am"><path d="M818 417.2c-1.3-1.1-2.9-2-4.4-2.8-.4.6-1 1.3-1.7 1.6.1-.9.3-2 .6-2.9-1.2 0-2.5 1-3.7 1.1.7-1 2.4-1.8 3.6-2l1.3-17.2c1.6 3.9-.4 15-.3 15.9.1 2.2.5 1.9 2.6 4.1.9.7 1.5 1.5 2 2.2zm22.2-4.1c.7.8.9 2 1.1 2.9-.5-.9-1.2-1.9-2.1-2.3-1.2 1.8-2.9 3.3-4.3 4.9l-1.8 2.1c1.1-1.8 2.2-3.8 3.8-5.5 2.1-2.3 2.4-1.9 2.5-4.2 0-1.1-.6-4.9-1.1-7.9 0-.6 0-1.1-.1-1.6l-.3-2.6c-.1-.8-.1-1.5-.1-2.3.1.5.3 1 .4 1.5 1.1 4.5 1.8 9.4 2.6 14 1.1.3 2 1.4 2.6 2.4-1.1-.6-2.1-.9-3.2-1.4z"/></g><g fill="#87582e"><path d="M886 414.6c-.1.8-1.1 1.7-1.6 2.2a33.2 33.2 0 0 1-1.8 1.9c-.5.7-.8 1.7-1.4 2.2-.9-1.5-1.1-3.5-2.2-4.8.8-.1 1.6-.7 2.2-1.1.5-.3 1.3-.7 1.8-1.1l3 .7zm-31.8 0c.1.8 1.1 1.7 1.6 2.2l1.8 1.9c.5.7.9 2 1.5 2.6.9-1.5 1-3.8 2.1-5.1-.8-.1-1.6-.7-2.2-1.1-.5-.3-1.3-.7-1.8-1.1l-3 .6z"/></g><path d="M874.8 480.4c1.1 0 2.2-.2 3.2-.4.4-.1.8-.2 1.2-.2.1-.4-.1-.9-.3-1.2-.1-.2-.2-.3-.3-.5l-.9-.3c-.6-.2-.9-.5-1-1.1s-.8-5.1-.8-6.8h-2.6c.2 1.3-.5 8.3-.7 10.2.1 0 .2.1.3.1.8.1 1.4.2 1.9.2z" class="Aj"/><path d="M881.1 480.3c0-.3-.1-.5-.2-.8-.4-.8-1.3-1.1-2.2-1.4.1.1.2.3.3.5.1.3.3.9.3 1.2a4.3 4.3 0 0 0-1.2.2c-1 .2-2.1.4-3.2.4-.6 0-1.1-.1-1.7-.2-.1 0-.2-.1-.3-.1v.4c0 .3 0 1.2.3 1.4a14.2 14.2 0 0 0 3.1.2l4.7-1.3c.2-.2.2-.2.1-.5z"/><path d="M866.4 480.4c-1.1 0-2.2-.2-3.2-.4-.4-.1-.8-.2-1.2-.2-.1-.4.1-.9.3-1.2.1-.2.2-.3.3-.5l.9-.3c.6-.2.9-.5 1-1.1l.8-6.8h2.6c-.2 1.3.5 8.3.7 10.2-.1 0-.2.1-.3.1-.7.1-1.3.2-1.9.2z" class="Aj"/><path d="M860.1 480.3c0-.3.1-.5.2-.8.4-.8 1.3-1.1 2.2-1.4-.1.1-.2.3-.3.5-.1.3-.3.9-.3 1.2a4.3 4.3 0 0 1 1.2.2c1.1.2 2.1.4 3.2.4.6 0 1.1-.1 1.7-.2.1 0 .2-.1.3-.1v.4c0 .3 0 1.2-.3 1.4a14.2 14.2 0 0 1-3.1.2l-4.7-1.3c-.1-.2-.1-.2-.1-.5z"/><path d="M881 416.3c-1.2-2.4-3.1-4-5.3-5.4l-5.1 3.2-5.1-3.2c-2.1 1.5-4.1 3-5.3 5.4-1.8 3.9-1.4 8.3-1.1 12.5a50 50 0 0 0 1.2 7.6c.6 2.7 1.6 5.5 2 8.3.9 4.7-1.5 9.1-1.1 13.6l1.1 12.7c1.1.2 2.3.3 3.4.2.7 0 2.7-.4 3.1-1s0-2.6 0-3.3l.1-7.6.7-15c.2-5.3 0-10.6.2-16 .4 0 .9.1 1.3.1.2 5.3.1 10.6.2 15.9l.7 15c.1 2.5.1 5.1.1 7.6 0 .7-.4 2.7 0 3.3s2.4 1 3.1 1c1.1.1 2.3 0 3.4-.2.3-4.2.7-8.4 1.1-12.7.4-4.6-1.9-9-1.1-13.6.5-2.8 1.5-5.5 2-8.3a50 50 0 0 0 1.2-7.6c.5-4.2.9-8.6-.8-12.5z" fill="#afafaf"/><g fill="#777"><path d="M863 427.9c.3 0 .7.1 1 .2.2 0 .3.1.5.1h.5c.7 0 1.3.1 2 0l3.9-.1h2 2l2 .1h1c.3 0 .6-.2.9-.3-.3.2-.6.3-.9.4a3.4 3.4 0 0 1-1 .1l-2 .1h-2-2-3.9c-.7 0-1.3-.1-2-.1-.8-.1-1.4-.4-2-.5z"/><path d="M870.8 428.2l-.2-3.1c-.1-1-.1-2.1-.1-3.1v-3.2l.1-3.1.1 1.6c0 .5.1 1.1.1 1.6l.1 3.1v3.1 1.6c0 .5 0 1-.1 1.5zm-9.6-9.5l.2 5.3a4.3 4.3 0 0 0 .2 1.2c.1.2.2.4.4.5.1.1.3.2.5.3.4.2.8.3 1.2.3.4.1.9 0 1.3 0h1.3c.4 0 .8-.2 1.2-.4.3-.2.6-.6.7-.9 0-.1 0-.2.1-.3v-.3-.7l-.2-5.3.1.1-3.5.1c-1.1.1-2.3.1-3.5.1zm0 0l3.5-.2 3.5-.2h.1v.1l.2 5.3v.7.3c0 .1 0 .3-.1.4-.1.5-.4.9-.8 1.1a2.2 2.2 0 0 1-1.3.4H865c-.9 0-1.8 0-2.7-.4-.2-.1-.4-.2-.6-.4s-.3-.4-.4-.6c-.2-.4-.2-.9-.2-1.3l.1-5.2zm19 0c.1 1.8 0 3.5 0 5.3 0 .4 0 .9-.2 1.3-.1.2-.2.4-.4.6s-.4.3-.6.4c-.8.4-1.8.4-2.7.4H875c-.5 0-.9-.2-1.3-.4a2.1 2.1 0 0 1-.8-1.1c0-.1-.1-.2-.1-.4v-.3-.7a47.1 47.1 0 0 1 .3-5.3v-.1h.1l3.5.2 3.5.1zm0 0h-3.5l-3.5-.1.1-.1-.2 5.3v.7.3c0 .1 0 .2.1.3.1.4.3.7.7.9.3.2.8.3 1.2.4s.9 0 1.3 0h1.3l1.2-.3c.2-.1.4-.2.5-.3.2-.1.3-.3.4-.5.2-.4.2-.8.2-1.2l.2-5.4zm-11.3 45.9c-.3.3-.7.6-1 .9h0 0a3.5 3.5 0 0 1-1.4.6c-.5.1-1 .1-1.5.1.5-.2 1-.3 1.5-.4.2-.1.5-.1.7-.2s.4-.2.7-.3h0c.1-.3.5-.6 1-.7zm-5.8 2.4c.6.1 1.2.1 1.8.1.3 0 .6 0 .9-.1s.6-.1.8-.2c.2 0 .3-.1.4-.1.1-.1.3-.1.4-.2.1 0 .1 0 .2-.1h.3c.2 0 .4.2.5.4 0 .2 0 .4-.1.5s-.2.3-.3.4c-.2.2-.4.4-.7.6h0c-.3.2-.6.3-.9.4s-.6.2-.9.2c-.3.1-.6.1-.9.1h-.5c-.1 0-.3-.1-.4-.2.1.1.3.1.4.1h.4c.3 0 .6-.1.9-.2l.8-.3a3 3 0 0 0 .8-.4h0 0c.2-.1.4-.3.6-.5.1-.1.2-.2.2-.3.1-.1.1-.2.1-.3s-.1-.1-.1-.1h-.2c-.1 0-.1 0-.2.1l-.4.1c-.1 0-.3.1-.4.1-.3.1-.6.1-.9.2h-.5-.4c-.3 0-.6 0-.9-.1a3.1 3.1 0 0 1-.8-.2zm10.3-2.7c.1.2.3.3.5.5l.6.3c.2.1.4.2.6.2.2.1.4.1.7.2.4.1.9.2 1.3.2.5 0 .9 0 1.4-.1-.4.2-.9.3-1.4.4-.5 0-1 0-1.4-.1-.2-.1-.5-.1-.7-.2s-.4-.2-.7-.3c-.2-.1-.4-.2-.6-.4 0-.2-.2-.4-.3-.7zm4.5 2.6l-2.1.3c-.4 0-.7.1-1.1 0-.4 0-.7-.1-1-.1 0 0-.1 0 0 0 0 0 0-.1 0 0 0 0 0 .1.1.2 0 .1.1.1.2.2h0 0 0 0l.1.1c.2.2.5.4.8.6a11.9 11.9 0 0 0 2 .8c-.7-.1-1.4-.2-2.1-.5l-.9-.6-.1-.1h0 0v-.1l-.2-.2c-.1-.1-.1-.2-.1-.3s0-.2.1-.3.2-.1.2-.1h.6a.9.9 0 0 1 .5.1h1a6.7 6.7 0 0 1 2 0z"/></g><path d="M884.9 398.3c.7.9 1.6 1.6 2.3 2.4 1 .9 1.9 1.9 2.8 2.8-.8 1.2-1.3 2.6-2.1 3.8l-2.3 3.3c-.4.5-.7 1-1.1 1.6s-.3.6-1 .8c-1.2.4-1.6 1.8-2.7 2.2-.5.2-3.3.1-2.9 1 .2.6 2.5.4 3.1.2.5-.2.8-.8 1.4-.8.5 0 1.2.2 1.8.3 1 .1 2.1.1 2.6-1 .1-.4 0-.7.1-1.1.1-.6.4-.7.8-1.1l2.7-2.3 5.6-5.4c-1.2-1.7-2.3-3.5-3.7-5.1l-4.6-5.1-2.8 3.5z" class="Aj"/><path d="M878.9 394.7c.1.9 1.2 1.9 1.6 2.7.6 1 1.4 2 1.8 3 .5-.1 1-.6 1.5-.8l1.6-.9c1.1-.7 2.6-2.5 3.5-3.6l-2.1-2.4-2.8-3c-1.2-1.4-2.1-2.8-3.9-3.2-.8-.1-1.5-.3-2.2-.3-.6 0-1.4-.3-1.9-.1l2.9 8.6z" fill="#abcdff"/><path d="M855.4 398.3c-.7.9-1.6 1.6-2.3 2.4-1 .9-1.9 1.9-2.8 2.8.8 1.2 1.3 2.6 2.1 3.8l2.3 3.3c.4.5.7 1 1.1 1.6s.3.6 1 .8c1.2.4 1.6 1.8 2.7 2.2.5.2 3.3.1 2.9 1-.2.6-2.5.4-3.1.2-.5-.2-.8-.8-1.4-.8-.5 0-1.2.2-1.8.3-1 .1-2.1.1-2.6-1-.1-.4 0-.7-.1-1.1-.1-.6-.4-.7-.8-1.1l-2.7-2.3-5.6-5.4c1.2-1.7 2.3-3.5 3.7-5.1l4.6-5.1 2.8 3.5z" class="Aj"/><g fill="#abcdff"><path d="M861.4 394.7c-.1.9-1.2 1.9-1.6 2.7-.6 1-1.4 2-1.8 3-.5-.1-1-.6-1.5-.8l-1.6-.9c-1.1-.7-2.6-2.5-3.5-3.6l2.1-2.4 2.8-3c1.2-1.4 2.1-2.8 3.9-3.2.8-.1 1.5-.3 2.2-.3.6 0 1.4-.3 1.9-.1l-2.9 8.6z"/><path d="M866.2 385.9a7.8 7.8 0 0 0-2.2.3c-1.7.2-2.5.3-3.3 2.2-1.3 3.4.7 7 1.1 10.4.2 1.4.4 2.7.4 4.2 0 .7.1 1.3-.1 2-.2.5-.7 1.1-.6 1.8s.5 1.2.4 2a7.3 7.3 0 0 1-.7 1.9c-.5 1.3-1.1 2.6-1 4 .8 0 1.7.5 2.5.7.8.1 1.7.3 2.6.5 1.8.3 3.7.9 5.6 1 1.8.1 3.5-.1 5.2-.5a10.5 10.5 0 0 0 2.3-.8c.4-.2 1.6-.6 1.9-1 .3-.5 0-1.7-.2-2.2-.4-.8-1.5-1.3-1.7-2.2-.2-1 .6-1.4.7-2.3.1-1-.8-1.4-1.2-2.1-.8-1.5.4-4.2.7-5.7.4-2 .8-4 1-6s.4-5.1-.7-6.8c-1.2-1.7-3.6-1-5.2-1.6l-7.5.2z"/></g><g fill="#97b2d3"><path d="M875 408.9a24.3 24.3 0 0 1-6 1c-1.8.1-3.7-.1-5.5.1 0 0-.1 0-.1.1 0 1.2 2.7 1.3 3.5 1.4l2.8.2c1.7.1 3.4-.1 5.1-.2.2 0 .2-.1 0-.1-1.2 0-2.4.2-3.6.2-1 0-2-.1-3.1-.2-1.2-.1-2.6-.2-3.8-.7-.2-.1-.4-.2-.5-.4-.2-.3 1.6-.3 1.8-.3h3.5c2.1-.1 4.2-.4 6.2-1.1.1.1-.2 0-.3 0zm1.9 3.1c-2.2 1.1-4.7 1.1-7.1 1.1-1.3 0-2.6-.2-4-.4-1.2-.2-2.8-.2-3.7-1-.1-.1-.4-.1-.3 0 .7.6 1.7.8 2.6.9 1.5.3 3.1.6 4.7.6 2.7.1 5.6.1 8.1-1.1.1.1-.2-.1-.3-.1z"/></g><path d="M871.7 365.9c-.9 0-1.8.2-2.8.5-2 .8-3.3 2.1-4.2 4.1-1.9 4.2-1.3 9-1.3 13.4 0 4.2-2.8 7.9-2.3 12.3.3 2.4 1.5 4.2 3.8 5.1 1.8.7 3.8 1 5.8 1.2 3.6.4 8-.6 9.2-4.5 1.1-3.6.1-7.7-.9-11.1-1.2-3.8-2.1-7.3-2.2-11.3-.1-2.4.1-5.1-1.1-7.3-1.1-1.7-2.5-2.3-4-2.4z"/><g class="Ae"><path d="M695.8 353.7c2.3.5 4.6.6 4.8 3.9.1 3.3-.3 10.3-3.5 8.6s-6-3.8-6.2-7.5c-.2-3.8 2.5-5.5 4.9-5h0z"/><path d="M696 370.7l2-6.7-6-1.8-1.5 8.6h5.5z"/></g><path d="M689.4 368.4c-.9-.7-4.2 2.5-5.2 4.5s-4.8 7.9-4.3 12.4 8.8 7 8.8 7l2.4-4.3-1.7-19.6h0z" fill="#c667a7"/><g class="Ae"><path d="M703.7 463.1c-1.8-1-3.9-2.7-4.5-3.9l-.8 3.8H697l-.9-5.5s-1.7-1.8 0-5.1c0 0 .9-7.2-.2-11.4s-2.8-9.2-.9-13.1l-.4-5.9 6.4 3.2c-.1.2-.3 4-.4 4.4s-.3 20.8 0 22.6c.2.9 1.2 3.2 2.3 5.2 1 1.9 2.2 3.6 2.8 3.9 1.4.3-.2 2.8-2 1.8h0z"/><path d="M695.3 460c-2.7-.6-5.4-5-5.4-5l-.6 5h-1l-1.1-6.6c-1.2-2.7.2-4.7.2-4.7a141.5 141.5 0 0 0-.4-17c-.4-3.4 1.6-6.4 1.6-6.4v-4.9l5.9-.6s-.2 5.7-.5 8c-.3 2.2-2.4 22.2-2.4 22.2.5 2 2.2 4.3 3.8 6.1 1.3 1.5 2.5 2.6 2.7 2.9.5.4-.1 1.6-2.8 1h0z"/></g><path d="M695.3 460c-2.7-.6-5.4-5-5.4-5s-.5-1.1-2.6-1.6c-1.2-2.7.2-4.7.2-4.7s1.2-.3 1.9.7 3 6 4.8 6.3c.4.1.8.1 1.2.2l2.7 2.9c.5.6-.1 1.8-2.8 1.2z" fill="#2c53a4"/><path d="M689.9 455l-.6 5h-1l-1.1-6.6c2.2.5 2.7 1.6 2.7 1.6h0z" fill="#234180"/><path d="M703.7 463.1c-1.8-1-3.9-2.7-4.5-3.9l-.8 3.8H697l-.9-5.5s-1.7-1.8 0-5.1c.8.2 2.1.6 2.6 1.5.6 1.3 1.8 3.7 3.3 3.7.4 0 .7-.1 1-.4 1 1.9 2.1 3.6 2.8 3.9 1.3.5-.3 3-2.1 2h0z" fill="#2c53a4"/><path d="M699.2 459.2l-.8 3.8H697l-.9-5.5s1.9.2 3.1 1.7z" fill="#234180"/><path d="M685.3 391.3s-2.1 4.5-.8 8.3 4.3 15.8 3.6 22.2c0 0 4.3 4.6 13 4.2 0 0 6.1-19.2-.6-29.7l-15.2-5h0z" fill="#173660"/><path d="M693.5 368.1c2.2.8 8.6 4.9 9.5 6.2 1 1.3-.8 6.8-1.4 9.7s-1.3 11.2-1 12.4-6.5 2.2-10.6-.9c-4.2-3-4.6-4.2-4.6-4.2s-.5-7.4.3-14.9c.7-7.5 2-10.5 7.8-8.3h0z" fill="#b0519e"/><path d="M704.4 379.5c-.3 1.7-2.6 9.9-2.1 13.2a38.6 38.6 0 0 0 1.3 4.6c-2.2 1.1-3.7 1.4-4.7 1.5a17 17 0 0 1-1.3-5.7c-.2-6.3.9-13.5 2-15.9 1-2.4 2.3-3.4 3.7-2.7 1.1.8 1.4 3.4 1.1 5h0z" fill="#c667a7"/><path d="M704.3 413.6c-1.6 0-1.9-1.1-1.6-3.3s.8-2.5.2-4.1c-.4-1.1-2.6-3.7-4.1-7.3 1-.1 2.5-.4 4.7-1.5l2.9 9.1c.2 1.5-.5 7.1-2.1 7.1z" class="Ae"/><path d="M701.1 355.4c.1 1.2-.6 3.6-1.7 5.1-1.1 1.4-2.6 6.7-1.5 8.7 0 0-2.2-2.6-2.6-5.9 0 0 .5 6.9-2.3 6.9s-5.4-1.1-4.8-4.2c.5-3.1 2.4-4.1 2.4-4.1s-3.8-2.6-1.3-7.8c2.4-5.3 11.3-2.8 11.8 1.3h0z" fill="#52260f"/><path d="M724.2 460.5s-.7 3.8-.3 4.4c.4.5 4.2 1.6 6.1 0 2-1.6 5.9-6 5.1-7.2-.7-1.2-2-1.4-3.4-1.3-1.2.1-7.5 4.1-7.5 4.1z" fill="#3a2410"/><path d="M738.5 416.7s-2 13.8-4.2 21.2c0 0-.2 4.9-1 6.6s-2 5.7-2.5 9.1l-1 6.9s-1.1 2.5-6.3.4c0 0 .7-10.2.4-13.2s.5-8.7 2.2-11.6c0 0 1.2-20.4.6-23.6l11.8 4.2h0z" fill="#212120"/><path d="M736.7 466.2s-.6 3.6-.4 4.2.8 2.1 2.7 2c1.8-.2 3.5-1.4 4.6-1.5 1.2-.2 8.5-2 8.3-3.2s-11.6-2.8-11.6-2.8l-3.6 1.3h0z" fill="#3a2410"/><path d="M749.7 416.1s-.8 15-2.6 23.9c0 0-.3 5.2-.9 7.2s-3.5 18.8-3.5 18.8-1 2.1-6.7.5c0 0-1-17.6-.7-19.3.3-2.1 2.2-4.5 2.2-4.5l-1.3-10.8c-.4-2.1-1.2-13-.4-16.3l13.9.5z" fill="#2b2b2b"/><g class="Ae"><path d="M743.7 364.7s-1.4-3-2.9-1.8c-1.4 1.3 1.7 3.5 2.9 3.8v-2z"/><path d="M737.2 356c1.8-.4 5.6-.7 7 1.3 1.4 2.1 2.4 8.3.2 12.3 0 0-2.4.3-5.8-1.6-3.4-1.7-3.8-11.4-1.4-12z"/><path d="M743.3 368.4s-1.7 2.3-1.6 6.4c0 0-3.1-2-6.8-2.2 0 0 .8-2.3.1-6.2 0 .1 4.3-.2 8.3 2z"/></g><path d="M742.9 364.7c.3-.8.8-1.6 0-3.2s-.9-2.9-.3-3.2 2.5-.1 2.4-1.1-7.2-5.2-12 0c0 0-4.2 2.5 2.3 11.9-.1 0 5.2 1.4 7.6-4.4h0z" fill="#52260f"/><path d="M742.9 376v-2s-3.6-2.7-8.7-2.9l-.6 1.1c-.1 0 1.9 1.9 9.3 3.8h0z" class="An"/><path d="M757.2 382.6s1.1-4.9 2.1-4.7.5 2.3.5 2.3 4.1-1.7 4.5-.8.8 3.6.1 4.5-3.1 1.8-5.6 2l-1.6-3.3h0z" class="Ae"/><path d="M755.7 383.1l1.5-.5s1.2.7 1.6 3.3l-1.4.7c-.1.1-.2-1.8-1.7-3.5z" class="An"/><g fill="#383838"><path d="M728.5 371.9s-5 2.2-4 11c.8 6.5 16.5 9.4 20.1 9.1 3.7-.3 13-5.4 13-5.4s0-2.8-1.8-3.7c0 0-9.4 2.8-12.2 2.5s-10.9-6.7-12.1-9c-1-2.2-1.9-4.2-3-4.5z"/><path d="M737.5 373.4c3.1 1.2 7.8 3.6 10.6 6.7s-1.7 18-1.1 21.2c.6 3.1 2.1 7.2 3.4 16.4 0 0-5.7 4.6-16 1.2 0 0-3.4-.6-8.9-5.3 0 0 2.1-10.1 1.1-16.2s-5.1-20.7 1.8-25.5c0 0 .1 0 .1-.1.6 0 4-.3 9 1.6z"/></g><path d="M747.7 416.6s-1.4 2.6-1.5 4.2 2 3.6 4.2 2.4c2.2-1.1 2.2-4.2 1.1-7.6l-3.8 1z" class="Ae"/><path d="M751 413.8l.4 1.9s-1 1.1-3.7 1l-.7-1.7s2.9-.4 4-1.2h0z" class="An"/><path d="M747 379.8c-3.6.2-4.7 3.3-5 6s-1.2 11.4-.9 13.7 5.8 15.9 5.8 15.9 2.6.3 4.2-1.4c0 0-.9-6.6-3.1-13.2l1.3-15.3c.6-4.7-.8-5.8-2.3-5.7h0z" fill="#454545"/><path d="M933.4 472.5s.9 4 .5 4.8-2.4 2.1-4.7 1.9-5.3-2.2-6.9-2.3-5.3-2.7-3.1-4 6.6.1 9.2-1l5 .6h0z" fill="#663017"/><path d="M934.8 416.3s1.3 3.1 1.5 8.6-3.1 19.8-3.1 19.8 2.1 4.2 1.5 6.7c-.5 2.5-2.1 14.1-1.9 16.5a58.3 58.3 0 0 0 .8 4.8s-4.9 1.9-7.6-.5l-5.2-30.6 1.6-24.4 12.4-.9h0z" fill="#702b18"/><path d="M925 473.7s1.3 3.6 1 4.7a3.9 3.9 0 0 1-3.5 2.6c-1.9.1-3.1-1.1-4.1-1.1s-8.2 1.8-9.5-3.9c0 0-.1-1.3 1.5-1.5 1.6-.3 7.5 0 8.4-.9l6.2.1h0z" fill="#663017"/><path d="M913.1 418.8s-2 4 .8 30.5a123.7 123.7 0 0 0 3.5 24.9s4.6 2.4 7.7-.5c0 0-1.1-7.6-.8-9.1.2-1.5 2.7-11.2-1.1-15l3.5-14.2c.6-1.7 4.4-7.9 3.3-14.3l-16.9-2.3h0z" fill="#832e1b"/><path d="M911.5 389.8s-3-.7-4.3-3.3l3.5-2.6 2.7 2.9-1.9 3h0z" class="Ae"/><path d="M919.2 389.5l-5.3-2.8s-2.2.7-2.4 3.2l4.2 4.3c.1-.1 1.2-3.6 3.5-4.7h0z" fill="#f69265"/><path d="M911.3 385.2l-15.5 9.6c-.3.2-.7.1-.9-.3l-5.5-13.3c-.1-.3 0-.6.3-.7l16.3-9.3c.3-.2.7 0 .8.3l4.7 12.9c.1.4 0 .7-.2.8h0z" fill="#383838"/><path d="M906.2 372.3l4.5 12.2c.1.1 0 .3-.1.4l-14.5 9c-.2.1-.4 0-.5-.1l-5.2-12.5c-.1-.1 0-.3.1-.4l15.2-8.7c.2-.1.4-.1.5.1h0z" fill="#caeaf8"/><g class="Ae"><path d="M914 386.6l-.8-3.3s-1.1-1.3-1.9-1.4-3.1-.2-3 .2c0 .4 1.1 1 2.9 1.4 0 0-.8 2.3-.5 3.3l.9 3s1-2.5 2.4-3.2zm8.1-19.2c-1.9.5-3.8 1.9-3.9 3.8-.1 2 .2 10 1.4 10.2s5.4-2.3 6.8-4.9c1.6-2.6.6-10.3-4.3-9.1h0z"/><path d="M931 377.6l-.5 6.9s-2.2 1.9-8.2 1.5c0 0 0-2.1-.4-3.2-.3-1.1-1.6-3.3-1.6-3.3s7.5-2.9 10.7-1.9h0z"/></g><path d="M927.7 383.9s4.8-3 7.2-2.7 5.1 6.4 4.4 10.9-3.8 10.8-3.7 13.1c.1 2.2.9 10.9.1 11.7s-3.4 4.5-11 5.4-11.6-1.5-12.2-3.1.3-5.5.8-6.6 1.9-7.2 1.1-12.3-1-10 5.3-13.6l8-2.8h0z" fill="#f48451"/><path d="M932.5 370.3s.3-2.6-2.5-3.8c-2.9-1.1-8.7-2.1-11.5.9 0 0-1.1 1.3 2.8 2.9 0 0 .3 1-.7 2.3-1 1.4.9 2.3 1.3 3.3.3 1 1.5 5.9 3.1 5.9s6.2-.7 6.5-1.2c.1-.7 4.8-7.9 1-10.3h0z" fill="#784d46"/><path d="M920.7 375.1s.2-1.8 1.7-1.3.3 3-1.1 3.5l-.6-2.2z" class="Ae"/><path d="M932.1 383.1l-1.1-1.5s-1 2.7-11.5 2.9c0 0-.4.3-.3.7.2.4.6 1.4.6 1.4s1-.3 1.5-.2c.6 0 8.3.7 10.8-3.3h0z" fill="#f4a986"/><path d="M900 394.9s.4-2.8 0-4-1.2-1.5-1.6-2.4c-.3-.9-.8-4.9-1.7-4.9s-.3 4.2-.7 4.7-2.9 2.8-2.8 3.6.5 2.7 1.1 3.1 2.4 2.7 2.4 2.7 1.7-1.8 3.3-2.8z" class="Ae"/><path d="M918.9 393c-2.1-2.3-4.1-1.7-5-.4s-7.2 11.7-7.2 11.7-3.7-7.1-6.7-9.3c0 0-3.2.9-3.5 2.4s6.5 15 8.2 14.9c1.7 0 2.9.7 5.9-1.9 3-2.7 7.4-9.8 8.7-12.3a5 5 0 0 0-.4-5.1h0z" fill="#f69265"/><path d="M753 227v.8 18.4l-7.3-2.1c-1.3-.4-3-.1-4.3.4a5.4 5.4 0 0 0-1.3.7l-5.6 3.2c-1 .6-2 1-3.2 1.2a5.3 5.3 0 0 1-3.3-.5c-1-.6-1.7-1.6-2.1-2.6-.4-1.1-.6-2.2-.6-3.4V236c0-5.8 4-13 9.3-16l8.7-5c2.8-1.6 5.3-1.8 7.1-.8 1.7 1 2.7 3 2.7 5.8v7h-.1z" class="Ad"/><path d="M736.6 239.9l-1.1.6c-.8.5-1.4.2-1.4-.6v-6.1c0-.8.6-1.8 1.4-2.3l2.5-1.5v7.5c0 .9-.6 1.9-1.4 2.4zm9.9-13.8c-.3-.2-.8-.1-1.3.2l-2.7 1.5.5-2.4c.2-.9.2-1.6.1-2.2-.1-.3-.2-.7-.5-.9-.2-.1-.5-.2-.8-.1-.5.2-.7.5-.9 1l-.6 2.4c0 .2-.1.3-.2.5-.4.9-.9 1.9-1.5 2.9v8.7l4.2-1.5c.1 0 .2-.1.3-.1 1.3-.7 2.4-2.3 2.8-3.8l.9-4.5c0-.2.1-.5.1-.7.1-.5-.1-.8-.4-1z" class="Ab"/><path d="M721.7 245.3c-2-1.2-2.7-3.7-2.7-6v-7.1c0-5.8 4.1-13 9.3-16l8.7-5c2.2-1.3 5-2 7.1-.8 0 0 .1 0 .1.1l6.2 3.6c-1.8-1-4.3-.9-7.1.8l-8.7 5c-5.2 3-9.3 10.2-9.3 16v7.1c0 1.1.1 2.3.6 3.4a5 5 0 0 0 2.1 2.6c-2.1-1.3-4.2-2.5-6.3-3.7z" fill="#3790ff"/><g class="Ad"><path d="M938.1 301.8l-2.2 1.3c.1 0 .2 0 .4.1l4.2 2.4c.2.1.3.1.4 0l.1-.1.7-1.8-3.1-1.9c-.2 0-.3-.1-.5 0zm11.7 10.1l2.2-1.3c.3-.2.1-.9-.4-1.2l-4.2-2.4c-.2-.1-.5-.4-.5-.7l-1.3-4.9c-.1-.3-.4-.7-.7-.8h-.3l-2.2 1.3h.3c.3.1.6.5.7.8l1.3 4.9c.1.3.3.6.5.7l4.2 2.4c.5.3.7 1 .4 1.2zm-2.4 6.1c.1.2 0 .4-.1.5l2.2-1.3c.2-.1.2-.3.1-.5l-1.3-4.5 1.2-.2-3.3.6c-.2 0-.3.3-.2.5l1.4 4.9z"/></g><path d="M946.6 318.1c.3.3.6.4.7.3s.2-.2.1-.5l-1.3-4.9c-.1-.2 0-.5.2-.5l3.3-.6h.1.1c.3-.2 0-.9-.4-1.2l-4.2-2.4c-.2-.1-.5-.4-.5-.7l-1.3-4.9c-.1-.3-.4-.7-.7-.8h-.3c-.1 0-.1.1-.1.1l-.2.6-1.1 2.8c0 .1-.1.1-.1.1-.1.1-.3 0-.4 0l-4.2-2.4c-.2-.1-.3-.1-.4-.1-.2.1-.2.5.1.9l3.4 4.5c.2.2.3.5.2.8l-1.3 3.4c-.2.4.4 1.2.9 1.1l3.4-.6c.2 0 .5.2.7.4l3.3 4.6z" class="Ao"/><g class="Ad"><path d="M757.4 300.6l2.2 1.3c-.1 0-.2 0-.4.1l-4.2 2.4c-.2.1-.3.1-.4 0l-.1-.1-.7-1.8 3.1-1.9h.5zm-11.7 10.1l-2.2-1.3c-.3-.2-.1-.9.4-1.2l4.2-2.4c.2-.1.5-.4.5-.7l1.3-4.9c.1-.3.4-.7.7-.8h.3l2.2 1.3h-.3c-.3.1-.6.5-.7.8l-1.3 4.9c-.1.3-.3.6-.5.7l-4.2 2.4c-.4.3-.6 1-.4 1.2zm2.4 6.1c-.1.2 0 .4.1.5L746 316c-.2-.1-.2-.3-.1-.5l1.3-4.5-1.2-.2 3.3.6c.2 0 .3.3.2.5l-1.4 4.9z"/></g><path d="M749 316.9c-.3.3-.6.4-.7.3s-.2-.2-.1-.5l1.3-4.9c.1-.2 0-.5-.2-.5l-3.3-.6h-.1-.1c-.3-.2 0-.9.4-1.2l4.2-2.4c.2-.1.5-.4.5-.7l1.3-4.9c.1-.3.4-.7.7-.8h.3c.1 0 .1.1.1.1l.2.6 1.1 2.8c0 .1.1.1.1.1.1.1.3 0 .4 0l4.2-2.4c.2-.1.3-.1.4-.1.2.1.2.5-.1.9l-3.4 4.5c-.2.2-.3.5-.2.8l1.3 3.4c.2.4-.4 1.2-.9 1.1l-3.4-.6c-.2 0-.5.2-.7.4l-3.3 4.6z" class="Ao"/><path d="M963.3 242.6h0l-5.6 3.2c2.4-1.4 3.8-4.4 3.8-8.3-.1-9.7-7.4-20.1-14.5-23.1-2.9-1.2-5.3-1.2-7.2-.1l5.4-3.1c1.5-.9 3.2-1 4.9-.7 8.4 1.5 17 13.8 17 23.8-.1 3.3-1.1 6.8-3.8 8.3z" class="Ad"/><path d="M961.4 237.6c0 3.9-1.4 6.9-3.8 8.3-1.9 1.1-4.4 1.2-7.4 0-2.4-1-4.4-2.6-6.2-4.4-3.5-3.5-6.2-8.2-7.6-13.1-.9-3.2-1.3-7.2 0-10.3.6-1.6 1.6-2.9 3-3.6.1 0 .1-.1.2-.1 1.9-1 4.3-1.1 7.2.1 7.2 3 14.5 13.4 14.6 23.1z" class="Ao"/><g class="Ab"><path d="M957.9 240.5c-.6 1.4-1.5 2.3-2.9 2.7-1.7.5-4 .1-6.5-1.3a20.2 20.2 0 0 1-6.5-6.2 22.1 22.1 0 0 1-2.9-6c-.5-1.8.7-2.7 2.3-1.8l14.2 8.2c1.7.9 2.8 3.1 2.3 4.4z"/><use href="#E"/><path d="M955.7 232.1c0 .9-.7 1.2-1.6.7a3.2 3.2 0 0 1-1.6-2.5c0-.9.7-1.2 1.6-.7a3.2 3.2 0 0 1 1.6 2.5z"/></g></g></g><path d="M16 1h1108a15 15 0 0 1 15 15v608a15 15 0 0 1-15 15H16a15 15 0 0 1-15-15V16A15 15 0 0 1 16 1z" fill="none" stroke="#0668e1" stroke-width="2"/></svg>