<svg xmlns="http://www.w3.org/2000/svg" width="1140" height="640" fill="none" xmlns:v="https://vecta.io/nano"><style><![CDATA[.B{fill:#fff}.C{stroke-miterlimit:10}.D{fill:#0668e1}.E{fill:#151823}.F{fill:#8dade0}.G{stroke:#8dade0}.H{stroke-width:.08}.I{stroke-linecap:round}.J{fill:#ffb27d}.K{fill:#071a22}.L{opacity:.55}.M{opacity:.51}.N{fill:#0745b4}.O{fill:#cc9987}.P{fill:#ff9c78}.Q{fill:#37474f}.R{fill:#ffa98f}.S{stroke:#0668e1}.T{stroke-width:1.1}.U{fill:#e0e0e0}.V{fill:#282a35}.W{fill:#455a64}.X{fill:#f99746}.Y{fill:#ffd0ca}.Z{fill:#263238}.a{fill:#ffa8a7}.b{fill:#ed7d2b}.c{stroke-width:1.19}.d{stroke-width:.89}.e{fill:#1b1c17}.f{fill:#05387d}.g{fill:#197dfa}.h{fill:#dce1e5}.i{color-interpolation-filters:sRGB}.j{flood-opacity:0}]]></style><g clip-path="url(#P)"><rect width="1140" height="640" rx="16" class="B"/><g fill="#b8d8ff" class="S T"><path d="M887.13 33.53L864.68 54.9l22.44 21.38h845.73l-22.02-20.98-.42-.4.42-.4 22.03-20.98H887.13zm-114.24 0L750.57 54.9l22.32 21.38h89.52L840.49 55.3l-.41-.4.41-.4 21.91-20.98h-89.52z"/></g><g filter="url(#M)" class="D"><path d="M1029.01 19.6c2.21-1.27 4.92-1.27 7.13 0l28.95 16.71c2.2 1.27 3.56 3.62 3.56 6.17v33.43c0 2.55-1.36 4.9-3.56 6.17l-28.95 16.71c-2.21 1.27-4.92 1.27-7.13 0l-28.95-16.71c-2.2-1.27-3.56-3.62-3.56-6.17V42.48c0-2.55 1.36-4.9 3.56-6.17l28.95-16.71z"/></g><path d="M1029.29 20.07c2.03-1.17 4.54-1.17 6.57 0l28.95 16.71c2.04 1.17 3.29 3.35 3.29 5.7v33.43c0 2.35-1.25 4.52-3.29 5.7l-28.95 16.71c-2.03 1.17-4.54 1.17-6.57 0l-28.95-16.71c-2.04-1.17-3.29-3.35-3.29-5.7V42.48c0-2.35 1.25-4.52 3.29-5.7l28.95-16.71z" stroke="#fff" class="T"/><g class="B"><path d="M1041.58 47.29c1.51 0 2.55.29 3.13.87.58.64.9 1.74.96 3.3v5.04c-.06 3.19-.43 5.91-1.13 8.17a27.3 27.3 0 0 1-2.96 6.43l-4.71-1.39c.47-1.74.79-3.42.96-5.04l.26-5.3c-2.21 0-3.34-1.22-3.4-3.65l.09-4.26c.06-1.56.41-2.66 1.05-3.3.58-.58 1.62-.87 3.13-.87h2.62zm-15.21 0c1.51 0 2.56.29 3.14.87.58.64.9 1.74.96 3.3v5.04c-.06 3.19-.44 5.91-1.13 8.17a26.9 26.9 0 0 1-2.97 6.43l-4.7-1.39c.46-1.74.78-3.42.96-5.04l.26-5.3c-2.21 0-3.34-1.22-3.4-3.65l.09-4.26c.05-1.56.4-2.66 1.04-3.3.58-.58 1.63-.87 3.14-.87h2.61z"/></g><g fill="#b8d8ff" class="S T"><path d="M313.28 559.68l22.44 21.37-22.44 21.38h-845.74l22.03-20.98.42-.4-.42-.4-22.03-20.98h845.74zm114.24.01l22.32 21.37-22.32 21.38H338l21.91-20.98.41-.4-.41-.4L338 559.68h89.52z"/></g><g filter="url(#N)" class="D"><path d="M103.86 542.46a7.1 7.1 0 0 1 7.13 0l28.95 16.71c2.21 1.27 3.56 3.63 3.56 6.17v33.43c0 2.55-1.36 4.9-3.56 6.17l-28.95 16.71a7.1 7.1 0 0 1-7.12 0l-28.95-16.71c-2.2-1.27-3.56-3.62-3.56-6.17v-33.43c0-2.55 1.36-4.9 3.56-6.17l28.95-16.71z"/></g><path d="M104.14 542.93a6.6 6.6 0 0 1 6.58 0l28.95 16.71a6.6 6.6 0 0 1 3.29 5.7v33.43a6.6 6.6 0 0 1-3.29 5.7l-28.95 16.71a6.6 6.6 0 0 1-6.58 0l-28.95-16.71a6.6 6.6 0 0 1-3.29-5.7v-33.43a6.6 6.6 0 0 1 3.29-5.7l28.95-16.71z" stroke="#fff" class="T"/><g class="B"><path d="M98.42 593.96c-1.51 0-2.56-.29-3.14-.87-.58-.64-.9-1.74-.96-3.3v-5.04c.06-3.19.44-5.91 1.13-8.17s1.68-4.4 2.96-6.43l4.71 1.39a33.2 33.2 0 0 0-.96 5.04l-.26 5.3c2.21 0 3.34 1.22 3.4 3.65l-.09 4.26c-.06 1.56-.41 2.66-1.05 3.3-.58.58-1.63.87-3.14.87h-2.61zm15.21 0c-1.51 0-2.56-.29-3.14-.87-.58-.64-.9-1.74-.96-3.3v-5.04c.06-3.19.44-5.91 1.13-8.17s1.69-4.4 2.96-6.43l4.7 1.39c-.46 1.74-.78 3.42-.96 5.04l-.26 5.3c2.21 0 3.34 1.22 3.4 3.65l-.09 4.26c-.06 1.56-.41 2.66-1.05 3.3-.58.58-1.63.87-3.14.87h-2.61z"/></g><path d="M147.14 222.16v50.65h-12.21v-50.65h12.21zm15.24 0v9.43h-42.34v-9.43h42.34zm16.11-2.78v53.44h-11.72v-53.44h11.72zm-1.39 33.33l-2.75.07c0-2.64.32-5.08.97-7.31a18.5 18.5 0 0 1 2.78-5.81c1.21-1.65 2.66-2.92 4.35-3.83s3.57-1.36 5.64-1.36c1.86 0 3.55.27 5.08.8 1.55.53 2.89 1.39 4 2.57 1.14 1.18 2.01 2.73 2.61 4.63.63 1.9.94 4.22.94 6.96v23.38h-11.79v-23.45c0-1.53-.22-2.71-.66-3.55-.42-.86-1.02-1.45-1.81-1.77-.79-.35-1.75-.52-2.89-.52a7 7 0 0 0-3.34.7c-.86.46-1.52 1.11-1.98 1.95-.44.81-.74 1.77-.91 2.89s-.24 2.33-.24 3.65zm48.36 20.8c-3.06 0-5.8-.47-8.21-1.43-2.41-.97-4.45-2.31-6.12-4a17.8 17.8 0 0 1-3.79-5.85 19.1 19.1 0 0 1-1.29-6.99v-1.32c0-2.76.38-5.31 1.15-7.65.77-2.37 1.9-4.43 3.41-6.19a15.2 15.2 0 0 1 5.67-4.1 19.6 19.6 0 0 1 7.93-1.5c2.67 0 5.06.43 7.17 1.29s3.9 2.09 5.36 3.69c1.48 1.6 2.61 3.54 3.38 5.81.79 2.27 1.18 4.82 1.18 7.65v4.77h-30.75v-7.34h19.31v-.9c.02-1.25-.2-2.32-.66-3.2-.44-.88-1.09-1.55-1.95-2.02a6.5 6.5 0 0 0-3.13-.7 5.6 5.6 0 0 0-3.17.84c-.81.56-1.45 1.32-1.91 2.3-.44.95-.75 2.05-.94 3.31s-.28 2.57-.28 3.97v1.32c0 1.39.19 2.66.56 3.79a8.6 8.6 0 0 0 1.67 2.92c.74.79 1.62 1.4 2.64 1.84 1.04.44 2.23.66 3.55.66a13 13 0 0 0 4.73-.91c1.55-.6 2.89-1.6 4-2.99l5.32 6.33a13.8 13.8 0 0 1-3.27 3.17c-1.39 1.02-3.06 1.86-5.01 2.5a21.3 21.3 0 0 1-6.54.94zm67.7-17.85h12.18a18.4 18.4 0 0 1-2.85 9.32 17.6 17.6 0 0 1-7.24 6.3c-3.06 1.48-6.68 2.23-10.86 2.23-3.39 0-6.41-.57-9.08-1.7a18.5 18.5 0 0 1-6.75-4.91 22.1 22.1 0 0 1-4.21-7.76 34.3 34.3 0 0 1-1.43-10.26v-2.75a32.8 32.8 0 0 1 1.5-10.26 22.6 22.6 0 0 1 4.31-7.79 18.7 18.7 0 0 1 6.75-4.94c2.62-1.14 5.53-1.7 8.73-1.7 4.41 0 8.13.79 11.17 2.37s5.39 3.75 7.06 6.51c1.67 2.74 2.66 5.86 2.96 9.36h-12.18c-.05-1.9-.37-3.49-.97-4.77a6 6 0 0 0-2.85-2.92c-1.3-.65-3.03-.97-5.18-.97a8.7 8.7 0 0 0-3.93.84 6.9 6.9 0 0 0-2.78 2.64c-.74 1.21-1.3 2.77-1.67 4.7-.35 1.9-.52 4.2-.52 6.89v2.82c0 2.69.16 4.99.49 6.89s.85 3.46 1.57 4.66 1.65 2.1 2.78 2.68c1.16.56 2.57.83 4.24.83 1.86 0 3.42-.29 4.7-.87 1.28-.6 2.26-1.51 2.96-2.71.7-1.23 1.07-2.8 1.11-4.7zm39.38 8v-28.49h11.76v37.64H333.3l-.76-9.15zm1.11-7.65l3.06-.07c0 2.53-.3 4.87-.9 7.03-.6 2.13-1.5 3.99-2.68 5.57-1.16 1.58-2.6 2.81-4.31 3.69-1.69.86-3.65 1.29-5.88 1.29a16.3 16.3 0 0 1-5.11-.76c-1.53-.53-2.85-1.36-3.97-2.47a11.7 11.7 0 0 1-2.61-4.35 20.1 20.1 0 0 1-.9-6.4v-24.35h11.72v24.42a6.6 6.6 0 0 0 .31 2.16 4.2 4.2 0 0 0 .91 1.53 3.9 3.9 0 0 0 1.46.91 7 7 0 0 0 2.05.28c1.76 0 3.14-.37 4.14-1.11a5.8 5.8 0 0 0 2.09-3.03c.42-1.28.63-2.71.63-4.31zm29.5-36.63v53.44H351.4v-53.44h11.76zm27.07 15.79v8.14h-22.68v-8.14h22.68zm-17.92-9.36h11.72v34.72c0 1 .12 1.77.35 2.33.23.53.63.92 1.18 1.15.58.21 1.34.31 2.3.31.67 0 1.23-.01 1.67-.04a17.7 17.7 0 0 0 1.25-.17v8.38a19.2 19.2 0 0 1-3.13.73 20.7 20.7 0 0 1-3.48.28c-2.5 0-4.65-.39-6.44-1.18a8.4 8.4 0 0 1-4.04-3.72c-.93-1.69-1.39-3.9-1.39-6.61v-36.18zm44.57 37.85v-28.49h11.76v37.64h-10.99l-.76-9.15zm1.11-7.65l3.06-.07c0 2.53-.3 4.87-.91 7.03-.6 2.13-1.5 3.99-2.68 5.57a12.2 12.2 0 0 1-4.31 3.69c-1.69.86-3.65 1.29-5.88 1.29a16.3 16.3 0 0 1-5.11-.76c-1.53-.53-2.85-1.36-3.97-2.47a11.7 11.7 0 0 1-2.61-4.35 20.1 20.1 0 0 1-.9-6.4v-24.35h11.72v24.42a6.6 6.6 0 0 0 .31 2.16 4.2 4.2 0 0 0 .9 1.53 3.9 3.9 0 0 0 1.46.91 7 7 0 0 0 2.05.28c1.76 0 3.14-.37 4.14-1.11a5.8 5.8 0 0 0 2.09-3.03c.42-1.28.63-2.71.63-4.31zm28.94-11.52v28.32H435.2v-37.64h10.96l.76 9.32zm11.13-9.6l-.21 10.89-1.88-.17a23.1 23.1 0 0 0-1.98-.1c-1.37 0-2.55.16-3.55.49a6 6 0 0 0-2.44 1.39c-.63.6-1.09 1.37-1.39 2.3-.28.93-.41 2.01-.38 3.24l-2.12-1.39c0-2.53.24-4.82.73-6.89a18.7 18.7 0 0 1 2.16-5.39c.93-1.53 2.05-2.7 3.38-3.51 1.32-.84 2.81-1.25 4.45-1.25a13.8 13.8 0 0 1 1.7.1 8.5 8.5 0 0 1 1.53.31zm22.54 28.46v-15.52a7.5 7.5 0 0 0-.45-2.75c-.3-.77-.78-1.36-1.43-1.77-.65-.44-1.52-.66-2.61-.66-.88 0-1.63.15-2.26.45a3.1 3.1 0 0 0-1.43 1.36c-.32.6-.49 1.37-.49 2.3h-11.72a10.4 10.4 0 0 1 1.15-4.84c.79-1.51 1.9-2.82 3.34-3.93 1.46-1.11 3.2-1.97 5.22-2.57a23.2 23.2 0 0 1 6.82-.94c2.99 0 5.66.5 8 1.5a12.5 12.5 0 0 1 5.6 4.49c1.37 1.97 2.05 4.45 2.05 7.44v15.41c0 2.46.14 4.32.42 5.6a12.9 12.9 0 0 0 1.18 3.31v.59h-11.76c-.56-1.16-.97-2.57-1.25-4.24a35 35 0 0 1-.38-5.22zm1.43-13.53l.07 6.26h-5.18a7.6 7.6 0 0 0-2.78.45 4.7 4.7 0 0 0-1.81 1.25c-.44.51-.76 1.09-.97 1.74a7.4 7.4 0 0 0-.28 2.05c0 .7.16 1.32.49 1.88.35.53.81.95 1.39 1.25s1.23.45 1.95.45a6.9 6.9 0 0 0 3.31-.73c.93-.51 1.63-1.12 2.12-1.84s.73-1.39.73-2.02l2.57 4.8c-.46.93-1 1.87-1.6 2.82-.58.95-1.31 1.83-2.19 2.64-.86.79-1.91 1.44-3.17 1.95a12.6 12.6 0 0 1-4.56.73 14.4 14.4 0 0 1-6.4-1.43c-1.92-.95-3.47-2.27-4.63-3.97a10.3 10.3 0 0 1-1.74-5.91c0-1.95.35-3.69 1.04-5.22a10.2 10.2 0 0 1 3.24-3.9c1.44-1.07 3.27-1.88 5.5-2.44s4.85-.84 7.86-.84h5.04zm29.26-30.44v53.44h-11.76v-53.44h11.76zM151.42 338.66h12.18a18.4 18.4 0 0 1-2.85 9.32 17.6 17.6 0 0 1-7.24 6.3c-3.06 1.48-6.68 2.23-10.85 2.23-3.39 0-6.41-.57-9.08-1.7a18.5 18.5 0 0 1-6.75-4.91 22.1 22.1 0 0 1-4.21-7.76 34.3 34.3 0 0 1-1.43-10.26v-2.75c0-3.8.5-7.23 1.5-10.26 1.02-3.06 2.46-5.66 4.31-7.79 1.88-2.16 4.13-3.8 6.75-4.94s5.53-1.7 8.73-1.7c4.41 0 8.13.79 11.17 2.37s5.39 3.75 7.06 6.51a21.2 21.2 0 0 1 2.96 9.36h-12.18c-.05-1.9-.37-3.49-.97-4.77a6 6 0 0 0-2.85-2.92c-1.3-.65-3.03-.97-5.18-.97a8.7 8.7 0 0 0-3.93.83 6.9 6.9 0 0 0-2.78 2.64c-.74 1.21-1.3 2.77-1.67 4.7-.35 1.9-.52 4.2-.52 6.89v2.82c0 2.69.16 4.99.49 6.89s.85 3.46 1.56 4.66 1.65 2.1 2.78 2.68c1.16.56 2.58.83 4.25.83 1.85 0 3.42-.29 4.7-.87 1.28-.6 2.26-1.51 2.96-2.71.7-1.23 1.07-2.8 1.11-4.7zm15.93-1.29v-.73c0-2.76.39-5.3 1.18-7.62.79-2.34 1.95-4.37 3.48-6.09s3.42-3.05 5.67-4c2.25-.97 4.85-1.46 7.79-1.46 2.97 0 5.58.49 7.83 1.46 2.27.95 4.18 2.29 5.71 4s2.69 3.75 3.48 6.09c.79 2.32 1.18 4.86 1.18 7.62v.73c0 2.74-.39 5.28-1.18 7.62-.79 2.32-1.95 4.35-3.48 6.09-1.53 1.72-3.42 3.05-5.67 4s-4.85 1.43-7.79 1.43-5.55-.47-7.83-1.43-4.18-2.28-5.71-4c-1.53-1.74-2.69-3.77-3.48-6.09-.79-2.34-1.18-4.88-1.18-7.62zm11.72-.73v.73a23.7 23.7 0 0 0 .31 3.97c.21 1.23.56 2.31 1.04 3.24.49.91 1.15 1.61 1.98 2.12a5.9 5.9 0 0 0 3.13.77c1.23 0 2.25-.25 3.06-.77.84-.51 1.5-1.22 1.98-2.12.49-.93.84-2.01 1.04-3.24a23.7 23.7 0 0 0 .31-3.97v-.73c0-1.37-.1-2.65-.31-3.86-.21-1.23-.56-2.31-1.04-3.24a5.6 5.6 0 0 0-1.98-2.23 5.7 5.7 0 0 0-3.13-.8c-1.23 0-2.26.27-3.1.8a5.7 5.7 0 0 0-1.95 2.23c-.49.93-.84 2.01-1.04 3.24-.21 1.21-.31 2.49-.31 3.86zm49.54 8.59c0-.65-.22-1.21-.66-1.67a5.4 5.4 0 0 0-2.23-1.32c-1.07-.42-2.56-.84-4.49-1.25-1.83-.39-3.56-.92-5.18-1.57a17.9 17.9 0 0 1-4.21-2.37 10.5 10.5 0 0 1-2.85-3.31c-.67-1.28-1.01-2.74-1.01-4.38a10.4 10.4 0 0 1 1.01-4.52c.7-1.44 1.71-2.7 3.03-3.79 1.34-1.11 2.98-1.98 4.91-2.61 1.92-.65 4.12-.97 6.58-.97 3.39 0 6.31.52 8.77 1.56 2.46 1.02 4.35 2.46 5.67 4.31 1.34 1.83 2.02 3.95 2.02 6.37h-11.72c0-.95-.16-1.76-.49-2.44a3.1 3.1 0 0 0-1.5-1.53c-.7-.37-1.62-.56-2.78-.56-.81 0-1.55.15-2.23.45a4 4 0 0 0-1.56 1.25c-.39.53-.59 1.16-.59 1.88 0 .51.12.97.35 1.39.25.39.64.77 1.15 1.11.51.32 1.16.63 1.95.9.79.25 1.74.49 2.85.7 2.53.46 4.89 1.13 7.1 1.98s3.99 2.08 5.36 3.65c1.39 1.58 2.09 3.7 2.09 6.37 0 1.67-.38 3.21-1.15 4.63-.77 1.39-1.87 2.62-3.31 3.69a16.5 16.5 0 0 1-5.18 2.44c-2.02.58-4.29.87-6.82.87-3.59 0-6.63-.64-9.12-1.91-2.48-1.3-4.36-2.92-5.64-4.87-1.25-1.97-1.88-3.97-1.88-5.98h10.92c.05 1.16.33 2.11.84 2.85.53.74 1.24 1.29 2.12 1.63a8.3 8.3 0 0 0 3.06.52 6.7 6.7 0 0 0 2.64-.45c.72-.3 1.26-.71 1.63-1.22.37-.53.56-1.15.56-1.84zm36.63-27.07v8.14h-22.68v-8.14h22.68zm-17.92-9.36h11.72v34.72c0 1 .12 1.77.35 2.33.23.53.63.92 1.18 1.15.58.21 1.34.31 2.3.31.67 0 1.23-.01 1.67-.04a17.6 17.6 0 0 0 1.25-.17v8.38a19.2 19.2 0 0 1-3.13.73 20.7 20.7 0 0 1-3.48.28c-2.5 0-4.65-.39-6.44-1.18a8.4 8.4 0 0 1-4.04-3.72c-.93-1.69-1.39-3.9-1.39-6.61v-36.18zm38.86 28.56v-.73c0-2.76.4-5.3 1.18-7.62.79-2.34 1.95-4.37 3.48-6.09s3.42-3.05 5.67-4c2.25-.97 4.85-1.46 7.79-1.46 2.97 0 5.58.49 7.83 1.46 2.27.95 4.18 2.29 5.71 4s2.69 3.75 3.48 6.09c.79 2.32 1.18 4.86 1.18 7.62v.73c0 2.74-.39 5.28-1.18 7.62-.79 2.32-1.95 4.35-3.48 6.09-1.53 1.72-3.42 3.05-5.67 4s-4.85 1.43-7.79 1.43-5.56-.47-7.83-1.43-4.17-2.28-5.71-4c-1.53-1.74-2.69-3.77-3.48-6.09-.79-2.34-1.18-4.88-1.18-7.62zm11.73-.73v.73a23.7 23.7 0 0 0 .31 3.97 10.8 10.8 0 0 0 1.04 3.24c.49.91 1.15 1.61 1.98 2.12a5.9 5.9 0 0 0 3.13.77c1.23 0 2.25-.25 3.06-.77.84-.51 1.5-1.22 1.98-2.12.49-.93.84-2.01 1.04-3.24a23.7 23.7 0 0 0 .31-3.97v-.73c0-1.37-.1-2.65-.31-3.86-.21-1.23-.56-2.31-1.04-3.24a5.6 5.6 0 0 0-1.98-2.23 5.7 5.7 0 0 0-3.13-.8c-1.23 0-2.26.27-3.1.8a5.7 5.7 0 0 0-1.95 2.23 10.8 10.8 0 0 0-1.04 3.24c-.21 1.21-.31 2.49-.31 3.86zm44.18 19.17h-11.79v-40.7c0-2.92.59-5.38 1.77-7.37a11.3 11.3 0 0 1 5.01-4.52 17.4 17.4 0 0 1 7.65-1.57 19 19 0 0 1 2.89.21 31.3 31.3 0 0 1 2.64.52l.03 8.63c-.42-.12-.85-.2-1.29-.24s-.99-.07-1.63-.07c-1.14 0-2.1.17-2.89.52-.79.32-1.39.82-1.81 1.5-.39.65-.59 1.45-.59 2.4v40.7zm7.31-37.64v8.14h-24.53v-8.14h24.53zM153.5 442.68c.26-1.36.16-2.52-.3-3.48a6.2 6.2 0 0 0-2-2.44c-.87-.67-1.87-1.23-3-1.7-1.1-.49-2.17-.94-3.22-1.35-2.26-.9-4.49-1.91-6.7-3.04-2.2-1.16-4.2-2.52-6-4.09s-3.2-3.39-4.22-5.48c-.98-2.09-1.41-4.54-1.26-7.35.2-3.22 1.12-5.99 2.74-8.31a19.1 19.1 0 0 1 6.22-5.65 29.2 29.2 0 0 1 8.22-3.22c2.96-.7 5.84-1.01 8.65-.96 4 .06 7.57.87 10.7 2.44a17.8 17.8 0 0 1 7.44 6.74c1.8 2.9 2.67 6.41 2.61 10.52h-14.74c.06-1.62-.16-3.03-.65-4.22-.46-1.22-1.23-2.16-2.3-2.83a7.8 7.8 0 0 0-4.18-1.09 12.2 12.2 0 0 0-4.26.69 9.7 9.7 0 0 0-3.7 2.18 6.8 6.8 0 0 0-2 3.83c-.2 1.19-.01 2.23.57 3.13a7.8 7.8 0 0 0 2.39 2.26c1.01.61 2.07 1.13 3.17 1.57l2.96 1.13a50.5 50.5 0 0 1 6.83 3.18c2.2 1.19 4.15 2.59 5.83 4.22a16.4 16.4 0 0 1 3.91 5.7c.93 2.15 1.3 4.64 1.13 7.48-.23 3.28-1.1 6.07-2.61 8.39a18.1 18.1 0 0 1-5.83 5.65 26.6 26.6 0 0 1-7.83 3.18c-2.84.67-5.72.99-8.65.96a31.2 31.2 0 0 1-9.18-1.48 22.4 22.4 0 0 1-7.44-4.13c-2.12-1.83-3.75-4.06-4.91-6.7-1.16-2.67-1.71-5.73-1.65-9.18l14.92.04c-.09 1.62.01 3.06.3 4.31a7.6 7.6 0 0 0 1.57 3.09c.75.81 1.72 1.44 2.91 1.87a13.4 13.4 0 0 0 4.31.61c1.42 0 2.78-.22 4.09-.65 1.33-.46 2.47-1.17 3.39-2.13s1.52-2.19 1.78-3.7zm42.05-29.92l-8.13 47.05h-14.35l8.18-47.05h14.31zm-13.05-11.87c-.06-2.26.69-4.06 2.26-5.39 1.59-1.33 3.47-2.02 5.61-2.04 2.06-.03 3.89.58 5.48 1.83 1.59 1.22 2.41 2.91 2.44 5.09.06 2.26-.71 4.06-2.31 5.39a8.5 8.5 0 0 1-5.57 2.04c-2.06.03-3.88-.56-5.48-1.78-1.57-1.25-2.38-2.96-2.44-5.13zm40.23-7.87l-11.57 66.8h-14.35l11.57-66.8h14.35zm20.35 67.67a23.6 23.6 0 0 1-8.87-1.78 19.7 19.7 0 0 1-6.78-4.78c-1.85-2.03-3.23-4.41-4.13-7.13a24 24 0 0 1-.96-9l.17-1.7c.35-3.42 1.16-6.61 2.44-9.57a25.8 25.8 0 0 1 5.13-7.83c2.15-2.26 4.67-4.02 7.57-5.26 2.93-1.25 6.2-1.83 9.83-1.74 3.28.06 6.1.71 8.48 1.96a16.1 16.1 0 0 1 5.87 5.09c1.51 2.12 2.55 4.55 3.13 7.31.61 2.72.75 5.63.44 8.7l-.83 5.96h-37.4l1.48-9.17 23.05.04.26-1.26c.2-1.36.15-2.6-.17-3.7a4.8 4.8 0 0 0-1.78-2.61c-.87-.67-2.04-1.03-3.52-1.09-1.8-.03-3.29.36-4.48 1.17-1.16.81-2.1 1.88-2.83 3.22-.7 1.33-1.23 2.78-1.61 4.35-.38 1.54-.65 3.01-.83 4.44l-.17 1.65c-.12 1.42-.07 2.8.13 4.13a10.4 10.4 0 0 0 1.22 3.61 7.6 7.6 0 0 0 2.57 2.61 8.4 8.4 0 0 0 4.04 1.04c2.17.06 4.2-.35 6.09-1.22a17.5 17.5 0 0 0 5.09-3.57l5.96 7.92a15.3 15.3 0 0 1-5.05 4.78c-2.06 1.19-4.28 2.06-6.65 2.61a27.1 27.1 0 0 1-6.87.83zm44.18-37.1l-6.31 36.23h-14.31l8.18-47.05h13.35l-.91 10.83zm-3.57 11.09l-2.96.17a38.2 38.2 0 0 1 1.74-8.35c.9-2.78 2.14-5.29 3.74-7.52 1.62-2.23 3.62-3.99 6-5.26 2.41-1.31 5.23-1.93 8.48-1.87 2.64.09 4.8.65 6.48 1.7a10.4 10.4 0 0 1 3.91 4.18c.9 1.71 1.46 3.65 1.7 5.83.26 2.15.28 4.36.04 6.65l-4.96 29.62h-14.39l5-29.75c.14-1.36.1-2.57-.13-3.61a3.8 3.8 0 0 0-1.48-2.44c-.75-.58-1.88-.88-3.39-.91-1.68-.03-3.1.29-4.26.96a8.5 8.5 0 0 0-2.83 2.74 15.6 15.6 0 0 0-1.74 3.78c-.41 1.36-.72 2.73-.96 4.09zm53.27 14.74a7.1 7.1 0 0 0 3.52-.74 6.3 6.3 0 0 0 2.35-2.26c.61-.99 1-2.12 1.17-3.39l13.44-.04c-.17 3.71-1.26 6.9-3.26 9.57-1.97 2.67-4.51 4.71-7.61 6.13a22.4 22.4 0 0 1-10 2c-3.42-.06-6.36-.73-8.83-2a16.9 16.9 0 0 1-6-5.22c-1.54-2.2-2.62-4.73-3.26-7.57-.61-2.84-.77-5.84-.48-9l.13-1.04a33.3 33.3 0 0 1 2.35-9.35 26.2 26.2 0 0 1 4.96-7.7c2.06-2.23 4.49-3.96 7.31-5.17 2.84-1.25 6.03-1.83 9.57-1.74 3.77.06 6.97.9 9.61 2.52a15.6 15.6 0 0 1 6.04 6.65c1.36 2.81 2 6.06 1.91 9.74l-13.44-.04c.06-1.25-.06-2.44-.35-3.57-.26-1.16-.78-2.1-1.57-2.83-.78-.75-1.91-1.16-3.39-1.22-1.71-.06-3.1.32-4.18 1.13a8.6 8.6 0 0 0-2.56 3.22 17.9 17.9 0 0 0-1.35 4.22 51.1 51.1 0 0 0-.65 4.17l-.04 1a128.9 128.9 0 0 0-.35 3.7c-.09 1.39-.04 2.75.13 4.09.2 1.33.67 2.45 1.39 3.35.73.87 1.87 1.33 3.44 1.39zm47.01 11.26a23.6 23.6 0 0 1-8.87-1.78 19.7 19.7 0 0 1-6.78-4.78c-1.86-2.03-3.23-4.41-4.13-7.13a24 24 0 0 1-.96-9l.17-1.7c.35-3.42 1.16-6.61 2.44-9.57a25.8 25.8 0 0 1 5.13-7.83 22.6 22.6 0 0 1 7.57-5.26c2.93-1.25 6.2-1.83 9.83-1.74 3.28.06 6.1.71 8.48 1.96a16.1 16.1 0 0 1 5.87 5.09 19.3 19.3 0 0 1 3.13 7.31c.61 2.72.75 5.63.44 8.7l-.83 5.96h-37.4l1.48-9.17 23.05.04.26-1.26c.2-1.36.14-2.6-.17-3.7a4.8 4.8 0 0 0-1.78-2.61c-.87-.67-2.04-1.03-3.52-1.09-1.8-.03-3.29.36-4.48 1.17-1.16.81-2.1 1.88-2.83 3.22a18.9 18.9 0 0 0-1.61 4.35c-.38 1.54-.65 3.01-.83 4.44l-.17 1.65c-.12 1.42-.07 2.8.13 4.13s.61 2.54 1.22 3.61a7.6 7.6 0 0 0 2.57 2.61 8.4 8.4 0 0 0 4.05 1.04c2.17.06 4.2-.35 6.09-1.22s3.58-2.06 5.09-3.57l5.96 7.92a15.3 15.3 0 0 1-5.04 4.78 24.1 24.1 0 0 1-6.65 2.61 27.1 27.1 0 0 1-6.87.83zm50.88-64.19l-9.31 43.27H413.9l5.7-43.27h15.26zm-25.48 57.01c-.06-2.26.7-4.1 2.26-5.52a8.2 8.2 0 0 1 5.65-2.13c2.09-.03 3.9.62 5.44 1.96 1.56 1.31 2.38 3.03 2.43 5.18.03 2.23-.74 4.07-2.3 5.52-1.56 1.42-3.44 2.13-5.61 2.13a8.1 8.1 0 0 1-5.48-1.91c-1.54-1.3-2.33-3.04-2.39-5.22z" fill="#5b5b5b"/><g filter="url(#O)"><path d="M323 71.25a11.9 11.9 0 0 0-11.87-11.87H0v89.06h311.12A11.9 11.9 0 0 0 323 136.57V71.25z" fill="#3886e7"/><path d="M47.66 107.54h-6.3v-4.71h6.3c.86 0 1.55-.14 2.09-.43s.92-.69 1.17-1.2c.26-.52.38-1.11.38-1.76 0-.7-.13-1.34-.38-1.93a3.1 3.1 0 0 0-1.17-1.43c-.53-.37-1.23-.56-2.09-.56h-4v20.61h-6.11V90.81h10.11c2.03 0 3.77.37 5.24 1.11 1.47.74 2.6 1.76 3.39 3.06a8.3 8.3 0 0 1 1.18 4.42 7.7 7.7 0 0 1-1.18 4.28c-.79 1.22-1.92 2.17-3.39 2.85-1.46.67-3.21 1.01-5.24 1.01zm22.39 3.86v-7.76c0-.53-.08-.99-.23-1.37s-.39-.68-.71-.89c-.32-.22-.76-.33-1.3-.33a2.6 2.6 0 0 0-1.13.23c-.31.15-.55.38-.71.68a2.4 2.4 0 0 0-.24 1.15h-5.86a5.2 5.2 0 0 1 .57-2.42 6 6 0 0 1 1.67-1.97c.73-.56 1.6-.99 2.61-1.29a11.6 11.6 0 0 1 3.41-.47c1.5 0 2.83.25 4 .75 1.18.5 2.12 1.25 2.8 2.24.68.99 1.03 2.23 1.03 3.72v7.71c0 1.23.07 2.16.21 2.8.14.63.34 1.18.59 1.65v.3h-5.88c-.28-.58-.49-1.29-.63-2.12a17.5 17.5 0 0 1-.19-2.61zm.71-6.77l.03 3.13h-2.59a3.8 3.8 0 0 0-1.39.23c-.37.15-.67.36-.9.63-.22.26-.38.55-.49.87-.09.33-.14.67-.14 1.03 0 .35.08.66.24.94.17.27.41.48.7.63s.61.23.97.23c.65 0 1.2-.12 1.65-.36a3 3 0 0 0 1.06-.92c.24-.36.37-.7.37-1.01l1.29 2.4c-.23.46-.5.93-.8 1.41-.29.48-.66.92-1.1 1.32a5.2 5.2 0 0 1-1.58.97 6.3 6.3 0 0 1-2.28.37 7.2 7.2 0 0 1-3.2-.71c-.96-.48-1.73-1.14-2.31-1.98-.58-.86-.87-1.84-.87-2.96 0-.97.17-1.84.52-2.61a5.1 5.1 0 0 1 1.62-1.95 7.7 7.7 0 0 1 2.75-1.22c1.11-.28 2.42-.42 3.93-.42h2.52zm14.35-2.66v14.16h-5.86V97.31h5.48l.38 4.66zm5.57-4.8l-.1 5.44-.94-.09-.99-.05c-.68 0-1.28.08-1.77.24a3 3 0 0 0-1.22.7c-.31.3-.55.68-.7 1.15a5.3 5.3 0 0 0-.19 1.62l-1.06-.7a15 15 0 0 1 .37-3.44c.26-1.04.61-1.94 1.08-2.7.46-.77 1.03-1.35 1.69-1.76a4.1 4.1 0 0 1 2.23-.63c.29 0 .57.02.85.05.29.03.55.09.77.16zm12.8.14v4.07H92.14v-4.07h11.34zm-8.96-4.68h5.86v17.36c0 .5.06.89.17 1.17.12.27.31.46.59.57.29.1.67.16 1.15.16l.84-.02.63-.09v4.19c-.5.16-1.02.28-1.56.37-.55.09-1.12.14-1.74.14-1.25 0-2.32-.2-3.22-.59a4.2 4.2 0 0 1-2.02-1.86c-.46-.85-.7-1.95-.7-3.31V92.63zm31.61 10.31v4.54h-10.45v-4.54h10.45zm18.72-1.93h2.85a3.7 3.7 0 0 0 1.79-.38c.47-.27.83-.64 1.06-1.11.23-.49.35-1.06.35-1.72 0-.51-.11-.98-.33-1.41-.21-.43-.53-.77-.97-1.03-.44-.27-1-.4-1.69-.4a3.3 3.3 0 0 0-1.36.3c-.44.19-.81.45-1.1.8-.28.35-.42.77-.42 1.27h-5.88c0-1.44.39-2.67 1.18-3.69.8-1.03 1.85-1.82 3.15-2.37a10.7 10.7 0 0 1 4.23-.83 12.4 12.4 0 0 1 4.73.83c1.36.55 2.41 1.36 3.17 2.44.76 1.07 1.15 2.39 1.15 3.97 0 .87-.2 1.69-.61 2.45a6.4 6.4 0 0 1-1.71 2.02 8.5 8.5 0 0 1-2.57 1.37c-.97.33-2.04.49-3.2.49h-3.83v-2.99zm0 4.37v-2.92h3.83a12.9 12.9 0 0 1 3.46.44c1.04.28 1.94.7 2.7 1.25s1.33 1.25 1.74 2.07a6.2 6.2 0 0 1 .61 2.8c0 1.18-.24 2.24-.71 3.17a6.7 6.7 0 0 1-2 2.35c-.86.64-1.86 1.13-3.01 1.46a13.7 13.7 0 0 1-3.74.49c-1.06 0-2.11-.14-3.17-.42a9.6 9.6 0 0 1-2.89-1.32 7 7 0 0 1-2.1-2.3 6.8 6.8 0 0 1-.78-3.36h5.88a2.6 2.6 0 0 0 .44 1.46c.3.43.7.77 1.2 1.03a3.5 3.5 0 0 0 1.62.38c.72 0 1.33-.13 1.83-.4.51-.28.9-.65 1.17-1.11s.4-.98.4-1.55c0-.86-.14-1.54-.44-2.05-.28-.51-.69-.88-1.23-1.11-.53-.23-1.18-.35-1.93-.35h-2.85z" class="B"/></g><g style="mix-blend-mode:multiply" class="U"><path d="M731.99 458.35c13.83-3.75 23.76-11.65 22.18-17.66s-14.07-7.83-27.91-4.09-23.76 11.65-22.18 17.66 14.07 7.83 27.91 4.09z"/></g><path d="M744.92 443.34c.37.17.37.32.37.93s-.13 1.37-1.66 2.01-3.27.27-4.57-.48-1.39-1.35-3.05-2.27c-1.66-.92-1.53-.12-2.76-.65s-2.31-1.08-2.42-1.89.04-1.54 0-1.74 1.04-.39 1.04-.39l13.04 4.48h.01z" fill="#191c21"/><path d="M736.94 435.97c.68 1.53 5.64 4.44 6.96 5.3s1.23 1.69 1.22 2.53c-.01.69-1.42 2.52-4.11 1.9s-3.86-2.63-5.25-3.06-4.69-1.28-4.74-3.73.66-5.41.66-5.41l5.26 2.47h-.01z" fill="#4b4d4f"/><path d="M725.1 454.56c.38.43.41.83.41 1.29s-.23.88-1.38 1.37-2.7.75-4.13.22c-1.98-.74-3.63-1.92-4.37-3.06-.74-1.14-.64-1.83-1.1-2.14s-1.45-.61-1.49-1.79.04-1.27.12-1.48c.16-.4.74-.27 1.24-.15s10.68 5.75 10.68 5.75l.01.01z" fill="#191c21"/><path d="M718.7 444.61c1.08 1.11 1.3.06 1.69 1.61.88 3.52 4.1 5.13 4.71 7.02.25.79.29.98.23 1.91-.02.4-.26.75-.62.92-2.45 1.12-4.07.73-4.07.73s-1.29-.48-2.64-1.4c-1.16-.78-2.36-1.89-2.82-3.29-.21-.62-.28-.67-.61-.82-.59-.43-1.41-.59-1.37-2.03.04-1.68.2-4.98.51-5.86.21-.58 2.29-.84 2.29-.84l2.7 2.05z" fill="#4b4d4f"/><g fill="#3b4157"><path d="M729.13 391.83l.26 8 .69 12.98.13.95c.48 2.53.85 3.88 2.3 4.85a6.9 6.9 0 0 0 .95.51c2.26 1 5.36-1 5.78-2.14s.91-13.53 1.25-20.81.32-5.39-.2-11.56l-11.17 7.22h.01z"/><path d="M730.9 435.93c.07 1.17.91 1.84 1.97 2.14 1.83.54 4.28.03 4.46-.7.29-1.15.33-14.73 1.92-20.4 0 0-4.1-3.44-6.84-4.52-1.13-.44-2.01-.5-2.29.26-.01.03-.02.07-.04.1-.89 2.83-.49 16.46.82 23.12z"/></g><path d="M730.09 412.81c-.9 2.83-.49 16.46.81 23.12.07 1.17.91 1.84 1.97 2.15l-.74-10.22c-.51-5.83.2-10.62.29-12.24.23-4.31-.14-13.37 2.19-15.16l-5.22-.64.69 12.98v.01z" fill="#363c53"/><g fill="#3b4157"><path d="M717.02 403.16l.71 16.91.2 1.43a11 11 0 0 0 1.35 3.17c.55.91 1.15 1.61 1.57 1.85.85.48 3.68.86 4.51-.81.11-.23.27-.75.47-1.5v-.02c1.24-4.79 3.85-18.46 4.63-20.11.89-1.92 3.35-2.06 4.02-3.3s1.02-5.69.97-9.37c0 0-11.73-9.62-13.71-8.33-.66.43-1.41 1.95-2.13 4a60 60 0 0 0-2.58 16.1z"/><path d="M713.8 443.97s.04 1.34 2 2.11l.89.3c2.87.81 3.87-.63 3.87-.63l1.03-7.51c1.03-7.51 2.83-9.71 3.91-12.88a9.1 9.1 0 0 0 .31-1.16v-.02c.51-2.6-.32-4.55-.32-4.55l-5.66-2.96-.29-.15s-.79 1.36-1.84 3.55c-.96 2.01-2.14 4.72-3.11 7.69-2.03 6.22-.82 16.21-.82 16.21v-.01z"/></g><path d="M713.8 443.98s.04 1.34 2 2.11l.89.3c-1.32-19.36 1.22-20.32 2.58-21.71.51-.52.86-1.11.77-2.76l-.19-5.25c-.07-3.52-.05-7.87.24-12.14.37-5.38 1.19-12.6 2.81-15.94a27 27 0 0 0-3.3-1.53 60 60 0 0 0-2.58 16.1l.71 16.91c-.96 2.01-2.14 4.71-3.11 7.69-2.03 6.22-.82 16.21-.82 16.21h-.01z" fill="#363c53"/><path d="M739.82 373.1v-5.34l4.75-.89 2.38 4.45 3.86 9.2-2.08 1.48s-5.94-4.75-8.91-8.91z" class="P"/><g fill="#1b84c1"><path d="M735.67 352.79c3.09-.09 3.83.6 6.7 8.4 1.03 2.79 2.2 5.68 2.2 5.68l-5.34 1.19s-2.6-1.01-3.56-4.45 0-10.82 0-10.82v.01z"/><path d="M725.24 352.66c-2.57 1.25-10.37 5.85-10.62 6.64s5.33 24.88 5.26 26.5-.18 1.87-.18 1.87.76 2.69 8.86 2.88 10.9-3.5 11.07-4.26.52-9.56.58-15.32c.12-9.86-1.24-14.6-1.9-16.17-.4-.96-.92-1.51-1.36-1.64-2.19-.65-6.82-.03-6.82-.03l-4.91-.46h.01z"/></g><g class="P"><path d="M749.33 380.44c.4-.53.6-1.06 1.05-1.18s2.05.37 2.05.37l.74.38s.95-.22 1.24-.15.45.64.21.86-1.24.85-1.24.85l-1.69 2.53s-1.66.46-2.72.14c-1.05-.33-1.24-.43-1.3-1.06-.07-.63 1.66-2.73 1.66-2.73h0zm-11.42 1.07c.54-.02 2.86 1.16 3.23 1.27l2.48.69c.3.14.18.68-.13.81s-4.42-.69-4.42-.69a15.2 15.2 0 0 0 1.3 1.7 17.6 17.6 0 0 1 .11 2.14c-.04.27-.43 1.16-.73 1.21s-.68-.41-.68-.41l.29-1.23-.27-1.01-.13 1.17-.44.8-.89.18.02-.33s-.39.41-.78.27-1.16-1.67-1.59-1.83-1.52.09-1.91-.06c-.39-.14-2.46-.12-2.76-1.12s.14-2.58 1.39-3.07 3.42-.16 3.69-.23 2.23-.27 2.23-.27h0z"/><path d="M713.99 380.22c0-2.37-.89-5.94-.89-5.94l6.53-.59s-.04 2.65.59 4.16a604.3 604.3 0 0 0 12.47 4.16l-1.19 3.56s-14.55-1.19-17.52-5.34z"/></g><path d="M744.52 381.07l-4.72 9.79-.78 1.07.76.72 16.49-17.3-.75-.73-10.99 6.44z" fill="#4a5161"/><path d="M745.27 381.81l-4.72 9.79-.78 1.07 10.92-6.4 5.58-10.9-10.99 6.44z" fill="#2f343e"/><path d="M752.17 382.85s-.29.63-.56.75a2.8 2.8 0 0 0-.92.62c-.18.23-.05.59-.05.59l-.67.19-.28.43-.49.31s-.21.54-.12.69.35.11.35.11-.04.32.26.33.91-.43 1.1-.51a15.8 15.8 0 0 0 1.85-1.17c.27-.24.79-1.33.89-1.97s-.07-1.05-.07-1.05l-.38-.15-.9.85v-.01z" class="P"/><g fill="#1b84c1"><path d="M714.54 358.93c1.43-.72 4.58 1.92 5.05 5.38s1.24 7.49.64 8.79c-.61 1.3-7.36 2.79-8.02 1.19s-.79-13.41 2.32-15.36h0zm14.65 8.11l.43 6.35-3.52 1.61-3.57-1.01-.09-6.95h6.75z"/></g><path d="M732.14 354.65l-.07.12c-.52.93-.71 2.33-1.05 2.7-.36.38-1.92.54-3.15.06s-3.23-3.57-3-4.74l.94-3.98c.27-1.23-.18-4.2.5-5.22s2.19-1.36 2.19-1.36 5.02 5.85 5.04 8.2-1.39 4.22-1.39 4.22l-.01-.01z" fill="#ff8f66"/><path d="M723.79 343.47c-.01 1.06.83 5.05 1.4 5.67.15.16.01 1.36-.24 1.29-.25-.07.96.31 1.37-.04a27.1 27.1 0 0 0 1-6.83c-.22-.27-3.53-.09-3.53-.09z" class="E"/><path d="M727.95 345.19s-1.12 5.76-.76 6.67 2.24 2.86 3.13 3.13 2.97 0 4.16-.89c2-1.5 2.53-3.35 3.13-5.59.61-2.24.86-4.52.68-5.3-.18-.78-1.76-2.19-4.21-2.69s-5.83.52-5.83.52l-.3 4.16z" class="P"/><path d="M730.92 351.77c-.02.09.03.17.06.25.05.11.12.19.19.26.13.13.28.23.44.32.3.16.62.25.95.29.16.02.33.03.49 0 .09-.01.2-.08.23-.19.04-.14-.1-.27-.21-.28-.16-.01-.31.01-.47-.01-.17-.02-.33-.06-.49-.11s-.32-.12-.48-.21l-.34-.19c-.04-.03-.09-.05-.13-.07-.06-.04-.1-.08-.16-.11-.03-.01-.06.01-.07.05z" fill="#b55d5d"/><path d="M733.95 347.57a13.7 13.7 0 0 1-1.25 3.55 2.2 2.2 0 0 0 1.87.03l-.62-3.57z" fill="#f68c65"/><g fill="#18185e"><use href="#Q"/><path d="M734.88 347.33c.06.32.38.56.7.52s.53-.34.47-.66-.37-.56-.7-.52-.53.34-.47.66zm-4.54-.79c.03-.04.04-.09.08-.13l.14-.18c.12-.14.29-.25.47-.31.11-.03.22-.05.33-.05s.22.02.34.04c.09.01.18-.02.2-.11s-.02-.17-.1-.2c.08.06.09.06.04.02l-.04-.02c-.02-.01-.04-.01-.06-.02-.04-.01-.07-.02-.11-.02l-.25-.02c-.17 0-.34.03-.49.1-.2.09-.39.25-.49.45-.03.06-.06.12-.07.19-.01.09-.02.19-.01.27zm5.87-.66c-.02-.14-.1-.29-.2-.39-.13-.14-.3-.23-.48-.27-.31-.06-.64.03-.9.19-.07.04-.08.15-.04.22.05.07.14.08.21.04l-.03.02.03-.02.03-.02.07-.03c.06-.03.12-.05.18-.07a1 1 0 0 1 .35-.03c.14.01.29.06.42.12.06.03.13.07.19.11s.1.11.15.16z"/></g><path d="M726.81 349.62c-.39.12-.93-.54-1.17-1.68-.25-1.14-.57-1.99.59-2.35 1.16-.37 1.32 1.32 1.21 1.65s-.06 2.21-.63 2.39h0z" class="P"/><path d="M733.46 339.84l-.12-.27s-1.28-.67-1.05-.68c.14-.01.59-.41.89.2l-.61-1.02 2.94.81s.64-.11 1.12.23l.85.59s-.08.45-.17-.18c.65.17 1.11 1.61 1.12 2.69.07.32.13.67.16 1.06.18 1.6-.35 3.44-.35 3.44l-.64.26s.84-3.94-.69-5c-1.53-1.05-4.81-.03-4.81-.03l1.37-2.11z" class="V"/><path d="M724.18 339.93c.46-.97 1.09-2.42 1.8-2.78.35-.78 3.1-1.69 5.52-1.46h.59c.59.03 1.49.3 1.49.3l.89.59h.3s-.4.03.59 0c1.83-.06 3.11 1.63 3.86 2.67.92.86-.56 1.94-1.48 2.67-2.15 1.68-5.42-.1-6.83 0-1.27.09-1.82.7-2.08 1.19-.34.66-.89 3.56-.89 3.56l-.89-.89-.41-2.19-2.86.41s-.53-2.11.39-4.08z" class="E"/><g style="mix-blend-mode:multiply" class="U"><path d="M668.67 480.31c-13.83-3.75-23.76-11.65-22.18-17.66s14.07-7.83 27.91-4.09 23.76 11.65 22.18 17.66-14.07 7.84-27.91 4.09z"/></g><path d="M655.43 466.46c0 .59-.11.81.61 1.34s2.28.77 3.47.45c1.04-.28 1.42-.58 1.92-1.16.57-.66.9-1.41 1.11-1.68s1.17-.77 2.11-1.19c.98-.44 2.86-1.3 3.53-2.89s.21-2.73.21-2.73l-12.96 7.84z" class="Z"/><path d="M661.7 458.39c-1.9 1.24-3.5 4.35-6.1 3.41-.13 1.52-.53 3.17-.17 4.66 1.11 1.37 3.53 1.63 4.93.65.7-.6 1.1-1.3 1.78-1.93.54-.5 1.16-.81 1.87-1.14.64-.3 1.74-.89 2.26-1.25 4.2-3.09 2.12-8.75-4.56-4.4z" class="Q"/><path d="M668.4 475.34c0 .64.04 1.12.43 1.38s3.3.75 4.08.84.89-.42 1.43-.24 1.81 1.11 3.71 1.53 3.45.87 6.09 0 2.9-1.89 2.86-2.78-18.6-.73-18.6-.73z" class="Z"/><path d="M668.78 469.4c-.42 1.82-.87 4.55-.38 5.94.53.53 2.31.83 3.86 1.04 1.46.2 2.78.58 4.11 1.28 3.01 1.25 8.31 1.71 10.42-1.12 2.11-3.78-8.86-2.85-10.21-7.23-.49-1.59-5.81.51-7.81.08z" class="Q"/><path d="M654.82 445.43c.01-2.03.36-3.44.96-5.22l.47-34.83s21.46-2.28 22 5.14a487.6 487.6 0 0 1 .22 31.7c-.08 3.31-1.73 25.24-1.73 27.57-5.43 2.69-8.11.38-8.11.38.15-7.88-1.47-17.12-.55-21.82 0 0-1.59-15.56-1.59-15.56l-4.36 30.2c-1.6 2.38-5.84 1.01-6.6-.42-.33-5.57-.75-9.4-.72-17.14z" class="W"/><path d="M666.49 432.79l-1.14-9.74s-3.71-1.43-6.09-4.41c.09 2.06 2.5 4.14 4.65 5.24l1.63 8.39-.68 11.27 1.63-10.75z" class="Q"/><path d="M658.46 381.39c-3.84.78-4.34 1.48-5.89 4.15s-5.31 9.37-5.97 11.16-1.39 2.88 1.24 5.8c2.17 2.41 8.29 8.92 8.29 8.92l3.29-4.63-4.76-7.52 4.6-8.08-.79-9.8z" class="W"/><path d="M654.65 399.27c-.87 1.35-2.25 2.17-2.91 2.23 1.27 0 2.48-.24 3.36-1.51l-.46-.72z" class="Q"/><path d="M670.18 378.4l-.14 3.8-7.3-.57.36-6.33 7.08 3.11z" class="a"/><path d="M674.23 369.8s2.08 2.78 1.88 3.07-1.59.64-1.59.64l-.29-3.71z" fill="#f28f8f"/><path d="M669.32 363.43c3.36.5 5.16 1.5 5.11 6.75-.01 1.34.5 2.26.53 3.78.06 2.9-.57 4.03-1.08 4.62-.46.53-3.1.56-4.49.26-1.74-.37-5.75-1.28-7.73-3.94-2.33-3.12-3.15-7.5-.98-9.44 3.06-2.74 7.28-2.24 8.65-2.04z" class="a"/><path d="M670.17 378.97l.1-1.16s1.65 1.19 3.39.94c-.59.34-2.17.38-3.48.22z" fill="#f28f8f"/><path d="M673.9 365.6c.07 1.18-1.2 1.84-2.08 1.96-.5.07-.78-.06-.78-.06.02.8-.39 1.25-.56 1.6-.29.57.2.86.26 1.84.03.42-.48.9-.86.27s-1.22-1.88-2.34-1.64c-1.71.36-1.81 2.57-.64 3.84 1.16 1.26 2.13.7 2.15.7-.02.35-.04 2.27-1.66 3.31-.99.64-2.77 1.26-4.31.74-1.03-.41-1.75-1.56-2.78-3.12a19.9 19.9 0 0 1-1.95-4.24c-.52-1.69-.59-2.52-.26-3.78s1.3-2.09 2.27-2.3c.1-1.21.58-2.18 2.01-3.13 2.6-1.74 6.18-.8 8.14-.22 1.08.32 2.38.96 3.47 1.26a4.3 4.3 0 0 0 1.24.1c.12 0 .54-.11.64-.04.12.08.06.49.05.62-.04.52-.36 1.8-2 2.28z" class="Z"/><path d="M658.2 381.44l3.88-.93c.26 1.09 5.24 2.12 8.11 1.48.86.24 6.14 2.43 6.38 2.59 0 0 1.27 3.84 1.61 11.28s.44 22.22.44 22.22c-4.49 3.32-21.55 1.09-22.8-6.1 0 0 .4-4.22.17-8.45-.15-2.75-.49-6.43-.96-9.11-.56-3.23-.73-5.66-.46-7.51.31-2.11 1.53-5.02 3.62-5.46z" class="Q"/><path d="M694.13 387.72c-1.09-3.15.77-3.25 1.67.42l1.37 5.3-.93 1.26c-.23 0-.91 1.64-.91 1.64l-1.83-.36-1.28-.73-2.01-.91.25-1.82s-.1.13 0-2.99c-1.07-1.85-.33-3.23.96-1.19a3.1 3.1 0 0 0 .28.48 6.4 6.4 0 0 0-.28-.48c-.67-1.41.01-2.79 1.06-1.1-.96-2.69.93-1.44 1.64.49z" class="a"/><g class="W"><path d="M688.93 407.82c2.37-.83 3.65-5.29 3.65-5.29s1.94-4.79 3.47-6.56c-8.22-6.02-7.6 3.98-8.58 1.82-1.57-3.45-3.78-7.08-5.02-9.08-1.53-2.48-3.37-3.05-6.43-4.39-1.8 1.03-3.95 5.82-1.28 10.95l7.62 10.08s2.55 3.88 6.57 2.47z"/><path d="M688.93 395.6l5.48-.73s-2.3-1.54-4.14-1.44l-1.34 2.17z"/></g><path d="M670.43 381.46l-.2-1.08s-2.83.05-4.66-.16c-2.44-.28-3.2-1.1-3.2-1.1l-.46.99s2.29 2.51 8.52 1.36z" fill="#ebebeb"/><path d="M673.49 383.26c-1.51-1.11-2.19-2.17-3.23-2.15-1.36.03-4.58.04-6.22-.37-1.59-.4-2.01-1-2.01-1l-1.37 1.14s-.35 1.78 3.32 2.56c3.96.85 6.15-.6 9.51-.19z" class="W"/><path d="M692.45 393.54l-2.97-3.89c-.13-.16-.14-.4-.03-.58l6.27-10.69.3.13c.07.03.15.06.21.13l3.29 4.01c.13.16.14.39.03.57l-6.21 10.32c-.09.14-.23.21-.37.19l-.53-.21z" fill="#060c16"/><path d="M692.35 393.46l-3.26-3.97c-.13-.16-.14-.4-.03-.58l6.24-10.37c.13-.21.39-.24.54-.05l3.29 4.01c.13.16.14.39.03.57l-6.21 10.32c-.14.23-.44.26-.61.06z" fill="#0a172b"/><g class="F"><path d="M689.48 388.23l3.8 4.64 5.49-9.13-3.8-4.64-5.49 9.13zm1.59 2.7c-.06.13-.18.18-.28.1s-.12-.25-.06-.38.18-.18.28-.1.12.25.06.38z"/></g><path d="M696.79 380.4l.66.83" class="C G H I"/><g class="L"><mask id="A" maskUnits="userSpaceOnUse" x="693" y="381" width="2" height="1"><path d="M694.36 381.42l-.38-.06-.09.52.38.06.09-.52z" class="B"/></mask><g mask="url(#A)" class="F"><use href="#R"/></g></g><g class="M"><mask id="B" maskUnits="userSpaceOnUse" x="693" y="381" width="6" height="5"><path d="M698.25 381.74l-3.86-.65-.63 3.71 3.86.65.63-3.71z" class="B"/></mask><g mask="url(#B)" class="B"><path d="M697.65 383.87l-2-2.44c-.22-.26-.61-.22-.79.08l-.41.7h-.24l2.45 2.98c.22.26.61.22.79-.08l.26-.42c.15-.26.13-.59-.05-.81z"/></g></g><g class="C G H I"><path d="M695.27 381.87l2.02 2.46m-2.33-1.93l1.16 1.41"/></g><g class="L"><mask id="C" maskUnits="userSpaceOnUse" x="690" y="387" width="1" height="1"><path d="M690.72 387.15l-.38-.06-.09.53.38.06.09-.52z" class="B"/></mask><g mask="url(#C)" class="F"><path d="M690.66 387.51c-.06.13-.17.17-.26.1s-.12-.23-.06-.36.17-.17.26-.1.12.23.06.36z"/></g></g><g class="M"><mask id="D" maskUnits="userSpaceOnUse" x="690" y="386" width="5" height="6"><path d="M694.63 387.48l-3.86-.66-.63 3.72 3.86.65.63-3.71z" class="B"/></mask><g mask="url(#D)" class="B"><path d="M694.04 389.61l-2-2.44c-.22-.26-.61-.23-.79.08l-.41.7h-.24l2.45 2.98c.22.26.61.22.79-.08l.26-.42c.15-.26.13-.59-.05-.81z"/></g></g><g class="C G H I"><path d="M691.65 387.6l2.02 2.46m-2.33-1.93l1.16 1.41"/></g><g class="L"><mask id="E" maskUnits="userSpaceOnUse" x="695" y="387" width="1" height="2"><path d="M695.7 388.03l-.38-.06-.09.53.38.06.09-.52z" class="B"/></mask><g mask="url(#E)" class="F"><path d="M695.64 388.4c-.06.13-.17.17-.26.1s-.12-.23-.06-.36.17-.17.26-.1.12.24.06.36z"/></g></g><g class="M"><mask id="F" maskUnits="userSpaceOnUse" x="691" y="383" width="6" height="6"><path d="M696.07 384.16l-3.64-.62-.72 4.23 3.64.62.72-4.23z" class="B"/></mask><g mask="url(#F)" class="B"><path d="M695.52 386.45l-2.16-2.65c-.18-.22-.51-.19-.66.07l-.4.66c-.11.18-.09.41.03.57l2.67 3.24-.02-.39.57-.93c.11-.18.1-.41-.03-.57z"/></g></g><g class="C G H I"><path d="M693.04 384.34l2.02 2.46m-2.33-1.93l1.16 1.41m.17.22l.45.55"/></g><path d="M693.86 386.84c0-1.09.86-1.23 1.47-.8 2.49 1.75 3.09 5.73 1.73 7.54" fill="#ffa09f"/><g style="mix-blend-mode:multiply" class="U"><path d="M784.72 488.8c-14.29 1.04-26.28-3.13-26.78-9.32s10.69-12.05 24.98-13.1 26.28 3.13 26.78 9.32-10.69 12.05-24.98 13.1z"/></g><path d="M773.87 477.05c-.1 1.32-1.95 1.33-4.06 1.09s-1.55.29-4.5.33-3.97-.93-4.11-1.36c-.13-.37 1.29-.69 2.81-1.06l.58-.14c1.71-.44 2.85-1.72 4.32-2.84 1.39-1.06 3.18-4.9 3.18-4.9l4.03-.18-2.34 4.93c-.37.87-.22 1.95-.05 2.77a5.2 5.2 0 0 1 .14 1.37z" class="J"/><path d="M769.8 478.14c-2.11-.25-1.55.29-4.5.33s-3.97-.94-4.11-1.36c-.13-.37 1.29-.69 2.81-1.06l.02.03s1.9 1.02 4.33.78c1.98-.2 4-1.03 5.37-1.17a5.2 5.2 0 0 1 .14 1.37c-.1 1.32-1.95 1.33-4.06 1.09z" fill="#233862"/><path d="M801.71 477.32c-.1 1.32-1.95 1.33-4.06 1.09s-1.55.29-4.5.34-3.97-.93-4.11-1.35c-.13-.37 1.29-.69 2.81-1.06l.58-.14c1.71-.44 2.85-1.72 4.31-2.84 1.39-1.06 0-7.35 0-7.35l4.43-.43-.21 7.7c0 .95.44 1.86.6 2.69a5.2 5.2 0 0 1 .14 1.37z" class="J"/><path d="M797.65 478.41c-2.11-.24-1.55.29-4.5.33s-3.97-.93-4.11-1.35c-.13-.37 1.29-.69 2.81-1.06l.02.03s1.9 1.02 4.33.77c1.98-.2 4-1.03 5.37-1.18a5.2 5.2 0 0 1 .14 1.37c-.1 1.32-1.95 1.33-4.06 1.09z" fill="#233862"/><path d="M788.76 368.6c-.76-3.14.34-4.6 1.34-5.38.47-1.16 1.01-1.99 1.57-2.3 1.01-.57 2.21-.64 3.06-.59-.22-.22-.64-.31-.64-.31.52-.08 1.69.44 1.69.44 7.28-2.81 8.43 7.92 8.28 10.41s-.13 5.43 3.66 7.39c7.23 3.75-2.4 17.86-2.4 17.86.18-2.01-9.11-12.64-13.96-15.82-1.18-1.74-1.6-4.81-1.63-5.05.2 2.43.62 3.8.99 4.57-2.21-2.03-2.54-6.92-1.95-11.23z" fill="#a9453d"/><path d="M791.64 380.46c-.02.01 2.34 1.24 4.12.75 1.67-.46 2.77-2.63 2.74-2.63-.71-.14-.91-1.11-.9-5.3l-.32.06-5.39 1.07.13 3.29c0 1.34-.08 2.61-.38 2.75z" class="J"/><path d="M791.91 374.41l.13 3.29c3.01-.09 4.61-2.83 5.26-4.36l-5.39 1.07z" fill="#ed975d"/><path d="M769.99 470.3c-.26.83.33 1.68 1.2 1.72l2.1.1 2.23.07c.56.02 1.09-.23 1.44-.66a62.6 62.6 0 0 0 10.57-20l.3-.9c2.19-6.39 6.73-14.41 9.13-21.67a119.7 119.7 0 0 0 1.03-3.27l.29-.97c1.76-6.13 2.27-10.16 2.75-14.45l-17.29.14s-3.64 28.29-13.73 59.91z" fill="#2a4e96"/><path d="M786.14 400.46c.04 8.23-1.21 11.76-1.21 11.76s7.4 3.76 16.2.99c.1-.03 7.28-1.67 7.28-1.67-.15-.33-1.46-5.88-1.6-6.18-1.86-3.99-3.27-5.74-3.49-6.96-.41-2.29-.42-4.66-.21-6.89.54-5.91 2.13-10.82 2.13-10.82-2.4-.55-4.64-1.5-7.14-2.44-.57.72-2.33 1.46-3.85 1.43-1.75-.04-2.32-.79-2.23-1.61-1.87 1.04-3.36 2.02-3.36 2.02-1.59 2.76-4.81 5.43-5.04 9.66-.06 1.04 2.5 10.49 2.5 10.72z" class="B"/><path d="M801.01 401.38c.76 1.07 2.21 7.57 5.81 8.39-1.86-4.63-3.27-6.66-3.49-8.09a35.2 35.2 0 0 1-.21-8l-2.11-3.56c-.09-.34-1.92-5.98-2.5-.94a23.3 23.3 0 0 0 2.5 12.21z" fill="#5f9aa8"/><path d="M790.9 375.93s7.13.12 7.14-4.32.93-7.42-3.62-7.68-5.44 1.43-5.8 2.91.43 8.95 2.29 9.09z" class="J"/><g fill="#a9453d"><path d="M791.16 363.81s1.95 5.21 4.95 5.98 4.3-.03 4.3-.03-2.3-1.83-2.77-5.01c0 0-5-3.42-6.47-.94z"/><path d="M791.65 364.24s-1.46 1.16-1.81 2.29-.51 3.46-1.19 3.38c0 0-1.47-3.54.18-5.55 1.75-2.12 2.83-.13 2.83-.13z"/></g><path d="M783.97 396.66l-13.63 5.03.79 2.67 14.21-1.71-1.37-5.98z" class="J"/><g class="X"><path d="M788.76 379.47s-3.97 1.58-5.12 4.03-.97 10.13-1.67 11.82-.59 2.67-.59 2.67.36 4.03 2.38 4.16 5-22.68 5-22.68z"/><path d="M792.03 378.06s-4.13 10.19-4.25 12.25-.49 33.73-.49 33.73.24 1.46-2.55.85-3.52-1.21-3.52-1.21 2.67-19.54 1.94-26.33 5.58-17.88 5.58-17.88l3.28-1.42z"/></g><path d="M773.29 472.12l2.42.07a1.4 1.4 0 0 0 1.12-.51 62.4 62.4 0 0 0 10.7-20.16l.3-.9c2.19-6.39 6.73-14.41 9.13-21.67a119.9 119.9 0 0 0 1.03-3.27l.28-.97-2.55-1.93s-7.64 12.38-10.01 24.02c-2.06 10.12-10.29 22.29-12.42 25.32z" fill="#1e3d70"/><path d="M795.45 447.89c-.04 5.36.21 17.3.86 23.14.06.54.51.94 1.05.94h1.8l1.71-.01c.33 0 .61-.24.67-.56 1.79-9.13 3.08-16.71 4.02-23.26l2.02-14.23c.54-4.07.92-7.48 1.05-10.37l.04-1.32v-1.26l-14.94-1.46c.19 9.92 1.72 25.1 1.7 28.39z" fill="#2a4e96"/><path d="M799.17 471.96l1.59-.01c.4 0 .74-.29.81-.68a456.6 456.6 0 0 0 3.99-23.15l2.02-14.24c.54-4.07.92-7.48 1.05-10.37l-5.48 3.22s3.5 1.23 2.16 10.58-4.29 33.31-6.15 34.63z" fill="#1e3d70"/><path d="M798.47 423.44s1.05 3.8 4.69 3.32 8.82-2.67 8.82-2.67l-3.49-11.37c-2.34-7.82-5.24-17.9-6.61-24.25-.38-1.78-.64-3.27-.74-4.33l-3.02-5.86s-4.5 10.11-4.75 12.65 5.1 32.52 5.1 32.52z" class="X"/><path d="M802.1 390.54l-3.99-12.27c.01 0 5.03 1.49 7.56 2.77 0 0 1.58 2.04 2.56 6.73 0 0 1.03 11.28-1.27 15.4 0 0-7.28 1.46-18.93-2.55v-2.67l15.35.97-1.28-8.39z" class="J"/><path d="M798.62 396.26c.16 4.13 1.13 12.13 9.79 16.42l.07.03c-2.34-7.82-5.24-17.9-6.61-24.25-1.59 2.38-3.34 5.53-3.25 7.8z" class="b"/><path d="M798.12 378.27s7.39.52 9.17 4.48 2.35 17.15.08 21.03c0 0-3.12.89-8.63-.14l-.2-.04s-1.76-4.31-.18-5.16c0 0 4.65.24 4.17-1.29s-4.39-18.88-4.39-18.88z" class="X"/><path d="M772.09 403.55s-2.57 3.51-4.22 3.8-4.94-.48-4.81-1.07 3.77-1.03 4.08-1.5 1.14-1.06.6-1.13-1.6.3-1.72.03 1.52-.87 1.89-1.37 2.85-.42 3.58-.87.6 2.11.6 2.11z" class="J"/><path d="M767.54 408.74l2.16-2.84c.09-.12.1-.29.02-.42l-4.57-7.8-.22.1c-.05.02-.11.05-.15.1l-2.4 2.93c-.09.12-.1.29-.02.42l4.53 7.53c.06.1.17.15.27.14l.39-.15z" fill="#060c16"/><path d="M767.61 408.68l2.37-2.9c.09-.12.1-.29.02-.42l-4.55-7.56c-.09-.15-.29-.17-.4-.04l-2.4 2.93c-.09.12-.1.29-.02.42l4.53 7.52c.1.17.32.19.44.05z" fill="#0a172b"/><g class="F"><path d="M769.7 404.87l-2.77 3.38-4-6.66 2.77-3.38 4.01 6.66zm-1.15 1.97c.04.1.13.13.2.08s.09-.18.05-.28-.13-.14-.2-.08-.09.18-.05.28z"/></g><path d="M764.38 399.16l-.48.6" class="C G H I"/><g class="L"><mask id="G" maskUnits="userSpaceOnUse" x="766" y="399" width="1" height="2"><path d="M766.16 399.89l.27-.05.07.38-.27.05-.07-.38z" class="B"/></mask><g mask="url(#G)" class="F"><path d="M766.2 400.16c.04.09.13.13.19.07s.09-.17.04-.26-.13-.12-.19-.07-.09.17-.04.26z"/></g></g><g class="M"><mask id="H" maskUnits="userSpaceOnUse" x="763" y="399" width="4" height="4"><path d="M763.31 400.13l2.82-.48.46 2.71-2.82.48-.46-2.71z" class="B"/></mask><g mask="url(#H)" class="B"><path d="M763.74 401.69l1.46-1.78c.16-.19.45-.16.58.06l.3.51h.18l-1.79 2.17c-.16.19-.44.16-.58-.06l-.19-.31c-.11-.19-.1-.43.03-.59z"/></g></g><g class="C G H I"><path d="M765.48 400.23l-1.47 1.79m1.7-1.41l-.85 1.03"/></g><g class="L"><mask id="I" maskUnits="userSpaceOnUse" x="768" y="404" width="2" height="1"><path d="M768.78 404.08l.27-.05.07.38-.27.05-.07-.38z" class="B"/></mask><g mask="url(#I)" class="F"><path d="M768.83 404.35c.04.09.13.12.19.07s.09-.17.04-.26-.13-.12-.19-.07-.08.17-.04.26z"/></g></g><g class="M"><mask id="J" maskUnits="userSpaceOnUse" x="765" y="403" width="5" height="5"><path d="M765.96 404.32l2.82-.48.46 2.71-2.82.48-.46-2.71z" class="B"/></mask><g mask="url(#J)" class="B"><path d="M766.39 405.87l1.46-1.78c.16-.19.44-.16.58.06l.3.51h.18l-1.79 2.17c-.16.19-.44.16-.58-.06l-.19-.31c-.11-.19-.1-.43.04-.59z"/></g></g><g class="C G H I"><path d="M768.13 404.41l-1.48 1.79m1.7-1.41l-.85 1.03"/></g><g class="L"><mask id="K" maskUnits="userSpaceOnUse" x="765" y="404" width="1" height="2"><path d="M765.16 404.72l.27-.05.07.38-.27.05-.07-.38z" class="B"/></mask><g mask="url(#K)" class="F"><path d="M765.21 404.99c.04.09.13.13.19.07s.09-.17.04-.26-.13-.12-.19-.07-.08.17-.04.26z"/></g></g><g class="M"><mask id="L" maskUnits="userSpaceOnUse" x="764" y="401" width="5" height="4"><path d="M764.9 401.9l2.66-.45.52 3.09-2.66.45-.52-3.09z" class="B"/></mask><g mask="url(#L)" class="B"><path d="M765.3 403.57l1.58-1.93c.13-.16.37-.13.48.05l.29.48c.08.13.07.3-.02.42l-1.95 2.36.01-.28-.41-.68c-.08-.13-.07-.3.02-.41z"/></g></g><g class="C G H I"><path d="M767.11 402.03l-1.48 1.79m1.7-1.41l-.85 1.03m-.12.17l-.33.4"/></g><g class="J"><path d="M772.09 403.54v.6l-2.01-.5-1.14.03s-.65.04-1.2-.03-1.52.59-1.72.03c.02-.76 1.08-.84 1.89-1.37.37-.51 2.85-.42 3.58-.87s.6 2.11.6 2.11zm15.94-5.58s-2.75-1.69-3.9-1.43-4.09 2.39-2.68 2.85 2.56-.02 3.1.31.95.95 3.48.94 0-2.67 0-2.67z"/></g><g class="S"><path d="M789.09 308.34a10.9 10.9 0 0 1 5.97 1.64c1.51 1 2.34 2.32 2.34 3.71s-.84 2.7-2.34 3.7-3.61 1.64-5.97 1.64-4.47-.64-5.97-1.64-2.34-2.32-2.34-3.7.84-2.7 2.34-3.71a10.9 10.9 0 0 1 5.97-1.64z" class="c"/><path d="M792.66 343.82c1.39 0 2.52 1.13 2.52 2.52s-1.13 2.52-2.52 2.52-2.52-1.13-2.52-2.52 1.13-2.52 2.52-2.52z" class="d"/><path d="M668.57 302.41c-2.36 0-4.47.64-5.97 1.64s-2.34 2.32-2.34 3.7.84 2.7 2.34 3.7 3.61 1.64 5.97 1.64 4.47-.64 5.97-1.64 2.34-2.32 2.34-3.7-.84-2.7-2.34-3.7-3.61-1.64-5.97-1.64z" class="c"/><path d="M663.22 338.47c-1.39 0-2.52 1.13-2.52 2.52s1.13 2.52 2.52 2.52 2.52-1.13 2.52-2.52-1.13-2.52-2.52-2.52z" class="d"/><path d="M730.91 156.94c23.26 0 44.26 5.94 59.41 15.47 15.16 9.54 24.31 22.58 24.31 36.78s-9.15 27.24-24.31 36.78c-15.15 9.53-36.15 15.47-59.41 15.47s-44.26-5.94-59.4-15.47c-15.16-9.54-24.31-22.58-24.31-36.78s9.15-27.24 24.31-36.78c15.15-9.53 36.15-15.47 59.4-15.47z" stroke-width="2.38"/><path d="M732.69 288.16c2.36 0 4.47.64 5.97 1.64s2.34 2.32 2.34 3.7-.84 2.7-2.34 3.7-3.61 1.64-5.97 1.64-4.47-.64-5.97-1.64-2.34-2.32-2.34-3.7.84-2.7 2.34-3.7 3.61-1.64 5.97-1.64z" class="c"/><path d="M730.91 323.04a3.7 3.7 0 1 1 0 7.42 3.7 3.7 0 1 1 0-7.42z" class="d"/></g><path d="M693.98 201.55l2.35-9.56h1.27l.08 2.01-2.52 9.81h-1.35l.15-2.26zm-1.49-9.56l1.93 9.52v2.3h-1.47l-2.68-11.82h2.22zm7.64 9.48l1.9-9.48h2.22l-2.68 11.82h-1.47l.02-2.34zm-1.92-9.48l2.35 9.59.14 2.23h-1.35l-2.51-9.81.1-2h1.27zm9.39-.65v12.47h-2.15v-12.47h2.15zm-.34 7.76h-.63a5.6 5.6 0 0 1 .24-1.69c.16-.51.39-.96.69-1.34s.65-.68 1.06-.89a3 3 0 0 1 1.38-.32 3.5 3.5 0 0 1 1.18.19c.36.12.66.31.92.58a2.6 2.6 0 0 1 .58 1.04 4.9 4.9 0 0 1 .21 1.54v5.6h-2.16v-5.62c0-.41-.06-.72-.18-.96s-.29-.41-.51-.51-.48-.15-.8-.15c-.35 0-.64.07-.89.2s-.45.31-.62.54c-.16.23-.28.5-.36.8s-.11.63-.11.98zm12.36 2.84v-4.05c0-.3-.05-.56-.15-.77s-.26-.38-.47-.5-.48-.18-.8-.18c-.29 0-.54.05-.75.15-.21.1-.37.24-.49.41-.11.17-.17.37-.17.6h-2.15c0-.36.09-.71.26-1.03.17-.33.42-.62.74-.88.32-.26.71-.46 1.16-.61s.96-.22 1.53-.22a4.4 4.4 0 0 1 1.78.34 2.7 2.7 0 0 1 1.23 1.01c.3.45.46 1.02.46 1.7v3.83c0 .44.03.81.08 1.13.06.31.15.58.26.8v.14h-2.18c-.1-.22-.18-.5-.24-.84s-.08-.69-.08-1.02zm.3-3.48l.02 1.27h-1.35c-.34 0-.63.04-.89.11s-.46.16-.62.29-.28.28-.36.46c-.08.17-.12.37-.12.59s.05.41.15.59.25.31.44.41c.19.1.42.15.68.15.38 0 .71-.08.99-.23.28-.16.5-.35.66-.57s.24-.43.25-.63l.62.93c-.08.22-.19.46-.34.71a3.2 3.2 0 0 1-.59.7 3 3 0 0 1-2.03.75c-.57 0-1.08-.11-1.53-.34a2.7 2.7 0 0 1-1.06-.93 2.4 2.4 0 0 1-.39-1.35 2.8 2.8 0 0 1 .26-1.23c.17-.36.43-.66.77-.9.34-.25.76-.44 1.27-.56.51-.13 1.09-.19 1.74-.19h1.45zm7.95-3.43v1.54h-5.03v-1.54h5.03zm-3.68-2.16h2.15v8.41c0 .26.03.46.11.6s.17.24.32.28.31.07.5.07c.14 0 .27-.01.39-.03l.3-.05.01 1.61c-.18.06-.38.11-.61.15a4.5 4.5 0 0 1-.75.06c-.48 0-.9-.08-1.27-.24a1.8 1.8 0 0 1-.84-.8c-.2-.37-.3-.87-.3-1.48v-8.58zm11.53 2.16v8.78h-2.15v-8.78h2.15zm-2.3-2.3c0-.32.11-.59.32-.8.22-.21.52-.32.89-.32s.67.1.89.32c.22.21.33.48.33.8s-.11.58-.33.79c-.22.21-.51.32-.89.32s-.67-.11-.89-.32c-.22-.21-.32-.47-.32-.79zm9.17 8.68c0-.18-.05-.35-.15-.5s-.28-.28-.55-.4a5.6 5.6 0 0 0-1.17-.35c-.46-.1-.87-.22-1.26-.37a4.1 4.1 0 0 1-.99-.53 2.4 2.4 0 0 1-.65-.74c-.15-.29-.23-.62-.23-.99 0-.36.08-.7.24-1.02a2.5 2.5 0 0 1 .68-.85c.3-.25.66-.44 1.09-.58.43-.15.91-.22 1.44-.22.75 0 1.39.12 1.92.37s.95.58 1.24 1.01c.29.42.43.9.43 1.43h-2.14c0-.23-.05-.44-.16-.63s-.26-.34-.48-.45c-.22-.12-.49-.18-.82-.18-.3 0-.55.05-.75.15a1.1 1.1 0 0 0-.45.38c-.1.16-.15.33-.15.52 0 .14.03.27.08.38.06.11.15.21.28.3a2.1 2.1 0 0 0 .53.25 7.8 7.8 0 0 0 .84.22c.65.13 1.23.3 1.71.52.49.21.88.49 1.15.84s.41.8.41 1.35a2.3 2.3 0 0 1-.25 1.07c-.17.32-.41.6-.73.84a3.7 3.7 0 0 1-1.15.56c-.44.13-.94.19-1.5.19-.81 0-1.49-.14-2.04-.43-.56-.29-.98-.66-1.27-1.1-.29-.45-.43-.91-.43-1.4h2.05c.02.34.11.61.28.82s.38.35.63.45a2.6 2.6 0 0 0 .82.13c.32 0 .6-.04.82-.13.22-.09.39-.21.5-.37s.17-.33.17-.53zm10-4.58v6.98h-2.14v-8.78h2.02l.12 1.8zm-.32 2.27h-.66c0-.61.07-1.17.22-1.69s.37-.96.66-1.34.65-.68 1.08-.89a3.4 3.4 0 0 1 1.5-.32 3.2 3.2 0 0 1 1.09.18c.33.11.61.3.85.54.24.24.43.56.56.96s.19.86.19 1.41v5.86h-2.14v-5.64c0-.41-.06-.73-.18-.97-.11-.23-.28-.4-.49-.49-.22-.1-.48-.15-.78-.15-.34 0-.62.07-.87.2-.24.13-.44.31-.59.54a2.6 2.6 0 0 0-.34.8 4.3 4.3 0 0 0-.11.98zm5.34-.4l-.88.16a5.5 5.5 0 0 1 .23-1.55c.15-.49.36-.91.64-1.27a3 3 0 0 1 1.06-.86 3.3 3.3 0 0 1 1.48-.32c.43 0 .82.06 1.17.19.35.12.65.31.9.58s.44.6.57 1.02c.14.42.2.92.2 1.53v5.64h-2.16v-5.65c0-.43-.06-.76-.18-.98-.11-.23-.28-.38-.5-.47-.22-.09-.47-.14-.76-.14-.3 0-.56.06-.78.17-.22.11-.4.26-.55.46s-.26.42-.33.68c-.07.26-.11.53-.11.83zm9.86 4.13l2.36-7.81h2.3l-3.52 10.12c-.08.22-.19.45-.32.71a3 3 0 0 1-.5.72c-.21.23-.48.42-.8.57a2.7 2.7 0 0 1-1.14.22 3 3 0 0 1-.52-.04l-.48-.1v-1.61l.19.01h.19c.31 0 .57-.04.78-.11.21-.07.37-.19.5-.35.13-.16.24-.36.33-.62l.65-1.71zm-1.16-7.81l1.99 6.47.35 2.27-1.48.27-3.17-9h2.31zm-73.02 18.96v11.82h-2.23v-11.82h2.23zm4.76 5.11v1.76h-5.35v-1.76h5.35zm.63-5.11v1.76h-5.97v-1.76h5.97zm5.12 11.98a4.7 4.7 0 0 1-1.79-.32c-.53-.22-.98-.52-1.36-.9-.37-.39-.65-.84-.85-1.36-.19-.52-.29-1.08-.29-1.67v-.33c0-.68.1-1.29.29-1.84a4.2 4.2 0 0 1 .83-1.44c.36-.4.78-.71 1.28-.92s1.05-.33 1.65-.33c.62 0 1.17.11 1.65.32a3.2 3.2 0 0 1 1.19.88c.32.38.56.83.72 1.36a5.9 5.9 0 0 1 .24 1.75v.9h-6.88v-1.48h4.77v-.16a2.6 2.6 0 0 0-.2-.93c-.12-.29-.3-.51-.55-.68s-.57-.26-.97-.26c-.32 0-.6.07-.84.21s-.43.33-.59.59a2.9 2.9 0 0 0-.34.89 5.4 5.4 0 0 0-.11 1.15v.33c0 .37.05.71.15 1.02s.25.59.45.82c.2.23.44.41.71.54.28.12.6.19.96.19a2.8 2.8 0 0 0 1.22-.26c.37-.18.69-.44.96-.79l1.08 1.12c-.18.27-.43.53-.75.78-.31.25-.68.45-1.12.61-.44.15-.94.23-1.52.23zm8.94 0a4.7 4.7 0 0 1-1.79-.32c-.53-.22-.98-.52-1.36-.9-.37-.39-.65-.84-.85-1.36a4.7 4.7 0 0 1-.29-1.67v-.33a5.5 5.5 0 0 1 .29-1.84c.19-.56.47-1.04.83-1.44s.78-.71 1.28-.92 1.05-.33 1.65-.33c.62 0 1.17.11 1.65.32a3.2 3.2 0 0 1 1.19.88c.32.38.56.83.72 1.36s.24 1.11.24 1.75v.9h-6.88v-1.48h4.77v-.16a2.6 2.6 0 0 0-.19-.93c-.12-.29-.3-.51-.55-.68s-.57-.26-.97-.26c-.32 0-.6.07-.84.21-.23.14-.43.33-.58.59-.15.25-.26.55-.34.89a5.4 5.4 0 0 0-.11 1.15v.33c0 .37.05.71.15 1.02.1.31.25.59.45.82.2.23.44.41.71.54.28.12.6.19.96.19a2.8 2.8 0 0 0 1.22-.26c.37-.18.69-.44.96-.79l1.08 1.12c-.18.27-.43.53-.75.78a3.8 3.8 0 0 1-1.12.61c-.44.15-.94.23-1.52.23zm10.27-2.03v-10.6h2.16v12.47h-1.95l-.21-1.87zm-5.64-2.42v-.17a6.8 6.8 0 0 1 .23-1.83 4.3 4.3 0 0 1 .68-1.42c.3-.4.66-.7 1.08-.92.43-.22.91-.33 1.45-.33.53 0 .98.11 1.37.32a2.9 2.9 0 0 1 1.01.9 4.8 4.8 0 0 1 .67 1.39c.17.53.29 1.11.37 1.75v.46a9.2 9.2 0 0 1-.37 1.71c-.17.52-.39.97-.67 1.36-.28.39-.61.68-1.01.89a2.9 2.9 0 0 1-1.39.32 3.1 3.1 0 0 1-1.44-.33c-.42-.22-.78-.53-1.08-.93a4.5 4.5 0 0 1-.67-1.41c-.15-.54-.23-1.13-.23-1.77zm2.15-.17v.17a5.5 5.5 0 0 0 .1 1.06c.07.33.17.62.32.88.15.25.33.44.56.58a1.6 1.6 0 0 0 .84.21c.42 0 .77-.09 1.04-.28.28-.19.49-.45.64-.77.15-.33.25-.7.29-1.11v-1.28c-.02-.32-.08-.62-.17-.9s-.21-.51-.37-.71c-.16-.2-.35-.36-.58-.47s-.51-.17-.83-.17c-.33 0-.61.07-.84.22-.23.14-.42.34-.57.59s-.25.55-.33.88a5.7 5.7 0 0 0-.1 1.09zm7.58-8.01h2.15v10.53l-.21 1.94h-1.94v-12.47zm7.8 7.99v.17c0 .66-.07 1.26-.22 1.8a4.2 4.2 0 0 1-.64 1.42c-.29.4-.64.7-1.07.93a3.2 3.2 0 0 1-1.49.32 3 3 0 0 1-1.41-.32c-.39-.21-.73-.51-1-.89s-.49-.85-.65-1.37-.28-1.11-.37-1.74v-.46c.08-.63.2-1.21.37-1.74s.38-.98.65-1.37.6-.69 1-.9.86-.32 1.4-.32a3.2 3.2 0 0 1 1.5.33c.43.22.79.53 1.07.93a4.1 4.1 0 0 1 .64 1.41 6.9 6.9 0 0 1 .22 1.79zm-2.15.17v-.17a6 6 0 0 0-.09-1.06c-.06-.34-.16-.63-.29-.89s-.32-.45-.55-.6-.52-.22-.88-.22c-.34 0-.62.06-.86.17s-.43.27-.59.47c-.15.2-.27.44-.36.71s-.13.56-.16.88v1.27c.04.42.13.79.27 1.13a1.8 1.8 0 0 0 .63.79c.28.19.64.29 1.09.29.35 0 .64-.07.87-.2.23-.14.42-.34.55-.58.13-.25.23-.55.28-.88s.09-.7.09-1.1zm8.55 2.44v-4.05c0-.3-.05-.56-.15-.77s-.26-.38-.47-.5-.48-.18-.8-.18c-.29 0-.54.05-.75.15s-.37.24-.49.41c-.11.17-.17.37-.17.6h-2.15c0-.36.09-.71.26-1.03.17-.33.42-.62.74-.88.33-.26.71-.46 1.16-.61a5 5 0 0 1 1.53-.22 4.4 4.4 0 0 1 1.78.34 2.7 2.7 0 0 1 1.23 1.01c.3.45.45 1.02.45 1.7v3.83c0 .44.03.81.08 1.13.06.31.15.58.26.8v.14h-2.18a3.2 3.2 0 0 1-.24-.84c-.05-.35-.08-.69-.08-1.02zm.3-3.48l.02 1.27h-1.36c-.34 0-.63.04-.88.11s-.46.16-.62.29-.28.28-.37.46c-.08.17-.12.37-.12.59s.05.41.15.59c.1.17.25.31.44.41.19.1.42.15.68.15.38 0 .71-.08.99-.23.28-.16.5-.35.66-.57s.24-.43.25-.63l.62.93a3.6 3.6 0 0 1-.34.71c-.15.25-.35.48-.58.7a3 3 0 0 1-2.03.75c-.57 0-1.08-.11-1.53-.34a2.7 2.7 0 0 1-1.06-.93 2.4 2.4 0 0 1-.39-1.35 2.8 2.8 0 0 1 .26-1.23c.17-.36.43-.66.77-.9.34-.25.76-.44 1.27-.56a7.1 7.1 0 0 1 1.75-.19h1.45zm7.39 3.82a1.8 1.8 0 0 0 .81-.18c.24-.12.43-.29.57-.5s.22-.47.24-.75h2.02c-.01.59-.18 1.13-.5 1.6s-.76.84-1.3 1.12c-.53.27-1.14.41-1.8.41-.68 0-1.27-.11-1.77-.34s-.92-.54-1.26-.95a4.2 4.2 0 0 1-.75-1.41 5.9 5.9 0 0 1-.24-1.72v-.26a5.9 5.9 0 0 1 .24-1.72 4.2 4.2 0 0 1 .75-1.41c.34-.41.75-.72 1.26-.95s1.09-.34 1.76-.34c.71 0 1.33.14 1.87.41.54.28.96.66 1.27 1.17s.47 1.1.48 1.78h-2.02c-.01-.31-.08-.6-.21-.84s-.31-.45-.55-.6-.53-.23-.87-.23c-.36 0-.66.08-.91.23-.24.15-.42.36-.56.63-.13.26-.22.55-.28.88-.05.32-.07.66-.07 1.01v.26c0 .36.02.7.07 1.02.05.32.15.62.28.88s.32.46.56.61c.24.15.55.23.93.23zm7.21-10.95v12.48h-2.14v-12.48h2.14zm5.5 3.69l-3.82 4.29-2.07 2.1-.68-1.66 1.6-2.01 2.39-2.72h2.59zm-2.19 8.78l-2.72-4.09 1.43-1.39 3.77 5.48h-2.48zm7.14-3.55h-1.94c0-.49.05-.91.12-1.27.08-.35.21-.67.4-.95a4.8 4.8 0 0 1 .75-.88l.67-.66c.2-.21.36-.43.47-.66.11-.23.17-.5.17-.79 0-.33-.05-.61-.16-.83s-.26-.39-.46-.5c-.2-.12-.45-.18-.75-.18-.25 0-.48.05-.71.15s-.4.26-.54.48c-.13.21-.21.49-.22.83h-2.15c.02-.71.18-1.3.5-1.77a2.9 2.9 0 0 1 1.29-1.06c.54-.24 1.15-.36 1.82-.36a4.4 4.4 0 0 1 1.9.37c.53.24.93.6 1.21 1.07.28.47.42 1.04.42 1.7a2.9 2.9 0 0 1-.28 1.28c-.18.37-.43.72-.73 1.05l-.98.98c-.31.28-.52.57-.62.88s-.16.68-.17 1.09zm-2.14 2.53a1.1 1.1 0 0 1 .32-.81c.22-.22.52-.33.89-.33s.67.11.88.33c.22.22.33.49.33.81 0 .31-.11.58-.33.8-.22.22-.51.32-.88.32s-.67-.11-.89-.32c-.22-.22-.32-.48-.32-.8z" class="e"/><g class="D"><path d="M1029.56 313.69c4.92 0 8.91-2.66 8.91-5.94s-3.99-5.94-8.91-5.94-8.9 2.66-8.9 5.94 3.98 5.94 8.9 5.94zm5.34 30.28c1.64 0 2.97-1.33 2.97-2.97s-1.33-2.97-2.97-2.97-2.97 1.33-2.97 2.97 1.33 2.97 2.97 2.97zm-125.87-24.35c-4.92 0-8.91-2.66-8.91-5.94s3.99-5.94 8.91-5.94 8.91 2.66 8.91 5.94-3.99 5.94-8.91 5.94zm-3.56 29.69c-1.64 0-2.97-1.33-2.97-2.97s1.33-2.97 2.97-2.97 2.97 1.33 2.97 2.97-1.33 2.97-2.97 2.97zm61.75-86.68c46.89 0 84.9-23.93 84.9-53.44s-38.01-53.44-84.9-53.44-84.91 23.93-84.91 53.44 38.01 53.44 84.91 53.44zm2.37 36.81c5.25 0 9.5-2.66 9.5-5.94s-4.25-5.94-9.5-5.94-9.5 2.66-9.5 5.94 4.25 5.94 9.5 5.94zm-2.37 30.87c2.29 0 4.16-1.86 4.16-4.16s-1.86-4.16-4.16-4.16-4.16 1.86-4.16 4.16 1.86 4.16 4.16 4.16z"/></g><path d="M937.73 213.08c0-.3-.05-.57-.14-.81-.09-.25-.25-.47-.49-.67-.24-.21-.58-.41-1.01-.61s-.99-.41-1.68-.63c-.77-.25-1.49-.53-2.18-.84a8.9 8.9 0 0 1-1.81-1.08c-.52-.42-.93-.9-1.23-1.45a4 4 0 0 1-.44-1.91c0-.7.15-1.34.46-1.91.31-.58.74-1.07 1.3-1.49.56-.42 1.21-.74 1.97-.96a8.9 8.9 0 0 1 2.52-.34 7.4 7.4 0 0 1 3.26.67 5.2 5.2 0 0 1 2.16 1.84c.52.78.78 1.67.78 2.68h-3.46a2.6 2.6 0 0 0-.31-1.3c-.2-.38-.51-.68-.93-.89a3.3 3.3 0 0 0-1.55-.32 3.6 3.6 0 0 0-1.51.28c-.4.18-.7.42-.91.73a1.8 1.8 0 0 0-.3 1.02c0 .29.07.54.21.78.15.23.36.45.65.65a5.8 5.8 0 0 0 1.06.57 15.2 15.2 0 0 0 1.45.52c.92.28 1.73.59 2.42.94a7.5 7.5 0 0 1 1.76 1.17c.47.43.83.92 1.07 1.47a4.6 4.6 0 0 1 .36 1.87 4.4 4.4 0 0 1-.43 1.97c-.29.58-.7 1.07-1.24 1.47s-1.19.71-1.94.92-1.59.31-2.52.31a9.5 9.5 0 0 1-2.47-.32 7.5 7.5 0 0 1-2.21-1.01 5.1 5.1 0 0 1-1.58-1.72c-.39-.7-.59-1.52-.59-2.47h3.49c0 .53.08.97.24 1.33s.39.66.68.88c.3.22.66.39 1.07.49.42.1.87.15 1.37.15.6 0 1.1-.09 1.49-.25.39-.17.68-.41.87-.71.19-.3.29-.64.29-1.02zm9.16-8.13v12.55h-3.35v-12.55h3.35zm-3.56-3.27c0-.49.17-.89.51-1.21s.8-.47 1.37-.47c.56 0 1.02.16 1.36.47.35.32.52.72.52 1.21s-.17.89-.52 1.21c-.34.32-.79.48-1.36.48-.57 0-1.03-.16-1.37-.48s-.51-.72-.51-1.21zm9.85-1.99v17.81h-3.35v-17.81h3.35zm8.53 18.04a7 7 0 0 1-2.62-.46c-.77-.32-1.43-.75-1.97-1.31-.53-.56-.94-1.2-1.23-1.94a6.5 6.5 0 0 1-.43-2.37v-.46a8 8 0 0 1 .41-2.61c.27-.79.66-1.47 1.16-2.05a5.1 5.1 0 0 1 1.86-1.33 6.1 6.1 0 0 1 2.46-.48c.89 0 1.68.15 2.37.44s1.26.71 1.73 1.25a5.4 5.4 0 0 1 1.07 1.95c.24.75.36 1.59.36 2.5v1.39h-9.97v-2.23h6.69v-.26a2.9 2.9 0 0 0-.25-1.24c-.16-.37-.41-.66-.74-.88a2.3 2.3 0 0 0-1.28-.32c-.44 0-.82.1-1.14.29s-.58.46-.78.81c-.19.35-.34.76-.44 1.23a7.9 7.9 0 0 0-.14 1.53v.46c0 .5.07.97.21 1.39a3.4 3.4 0 0 0 .62 1.1 2.8 2.8 0 0 0 .97.72c.39.17.82.25 1.31.25.6 0 1.16-.12 1.68-.35.52-.24.98-.6 1.36-1.08l1.62 1.76c-.26.38-.62.74-1.08 1.09-.45.35-.99.63-1.62.86a6.7 6.7 0 0 1-2.17.32zm10.32-10.1v9.87h-3.34v-12.55h3.13l.21 2.68zm-.49 3.16h-.9c0-.93.12-1.76.36-2.5a5.7 5.7 0 0 1 1.01-1.91c.43-.53.95-.94 1.54-1.22.6-.29 1.27-.43 2.02-.43.59 0 1.13.09 1.61.26a3.1 3.1 0 0 1 1.25.81 3.6 3.6 0 0 1 .81 1.47 7.5 7.5 0 0 1 .29 2.24v8h-3.36v-8.01c0-.56-.08-.99-.23-1.3s-.38-.53-.68-.65c-.29-.13-.66-.2-1.09-.2-.45 0-.84.09-1.17.27-.32.18-.59.42-.81.74a3.5 3.5 0 0 0-.47 1.09 5.3 5.3 0 0 0-.16 1.35zm15.71 4.34c.41 0 .77-.08 1.09-.23.32-.16.56-.39.74-.67.19-.29.28-.64.29-1.03h3.14a4.2 4.2 0 0 1-.71 2.35c-.46.68-1.09 1.22-1.87 1.61a5.8 5.8 0 0 1-2.62.58 6.2 6.2 0 0 1-2.55-.49 5 5 0 0 1-1.8-1.34 5.9 5.9 0 0 1-1.08-2.02c-.24-.77-.36-1.6-.36-2.48v-.34a8.3 8.3 0 0 1 .36-2.48c.24-.77.6-1.45 1.08-2.02a4.9 4.9 0 0 1 1.8-1.36 6.1 6.1 0 0 1 2.53-.49c1.03 0 1.93.2 2.7.59a4.4 4.4 0 0 1 1.83 1.69 4.9 4.9 0 0 1 .68 2.59h-3.14c-.01-.42-.1-.8-.27-1.14-.16-.34-.4-.61-.72-.81a2 2 0 0 0-1.15-.31c-.49 0-.88.1-1.19.31a2 2 0 0 0-.72.84c-.17.35-.29.75-.36 1.19a10 10 0 0 0-.09 1.39v.34c0 .49.03.95.09 1.4s.18.85.35 1.19a2.1 2.1 0 0 0 .73.82c.31.2.71.3 1.21.3zm12.98 2.61a7 7 0 0 1-2.62-.46c-.77-.32-1.43-.75-1.97-1.31-.53-.56-.94-1.2-1.23-1.94a6.5 6.5 0 0 1-.43-2.37v-.46a8 8 0 0 1 .41-2.61c.27-.79.66-1.47 1.16-2.05a5.1 5.1 0 0 1 1.86-1.33 6.1 6.1 0 0 1 2.46-.48c.89 0 1.67.15 2.36.44a4.6 4.6 0 0 1 1.73 1.25c.47.54.83 1.19 1.07 1.95a8.2 8.2 0 0 1 .36 2.5v1.39h-9.98v-2.23h6.69v-.26a2.9 2.9 0 0 0-.25-1.24c-.16-.37-.41-.66-.74-.88-.34-.22-.76-.32-1.28-.32-.44 0-.82.1-1.14.29s-.58.46-.78.81a4.4 4.4 0 0 0-.44 1.23 7.8 7.8 0 0 0-.14 1.53v.46c0 .5.07.97.21 1.39a3.4 3.4 0 0 0 .62 1.1 2.8 2.8 0 0 0 .97.72c.39.17.82.25 1.31.25.6 0 1.16-.12 1.68-.35a3.6 3.6 0 0 0 1.35-1.08l1.63 1.76a4.8 4.8 0 0 1-1.08 1.09 5.8 5.8 0 0 1-1.62.86c-.64.22-1.36.32-2.17.32z" class="B"/><g class="N"><path d="M1018.87 395.57s6.57 1.77 6.86 2.95c.2.79-.65 7.52-2.83 12.62-1.72-.78-4.69-2.2-5.86-2.93.39-2.94 2.12-12.34 2.12-12.34"/><path d="M1023.31 402.12l-5.02-1.55a62.6 62.6 0 0 1 1.89-11.95 10.5 10.5 0 0 1 2.23-4.27c1.09-1.24 2.61-2.35 4.36-1.86 3.5.97-3.46 19.64-3.46 19.64zm-4.96 4.16c-2.66 1.3-6.6 3.2-9.89 5.11-3.42 1.98-5.63 2.83-5.63 2.83l1.95 4.44 9.53-3.19 6.36-2.34"/></g><path d="M1020.13 474.55c1.38.02 5.51-1.67 7.88-3.14h0 0l.32-.2.55-.4c.17-.12.32-.25.44-.37.18-.18.31-.34.37-.48l-.16-2.04c-.12-.81-.31-1.51-.62-2.05l-.29-2.66-.09-.87h-6.14l.13 1.75.17 2.1s-.06.1-.21.3c-.46.63-1.81 2.23-4.69 4.22-1.11.76-1.2 3.84 2.34 3.84z" class="K"/><path d="M1022.04 418.86l-1.56 19.71c.35 10.54 1.47 15.13 1.91 27.3.09 2.46 7.75 3.48 7.57 1.6.51-8.14.89-18.25-.28-25.52 1.62-5.74 2.73-14.6 2.76-20l-10.4-3.08z" class="f"/><path d="M1033.04 484.09c1.38.01 5.5-1.67 7.87-3.14h0c.12-.06.22-.13.32-.21.21-.13.39-.27.56-.4l.29-.23.15-.14c.18-.17.31-.34.37-.48-.01-.72-.06-1.42-.16-2.04-.01-.03-.01-.06-.01-.08-.12-.77-.31-1.45-.61-1.98l-.29-2.66-.09-.87h-6.14l.13 1.75.17 2.1-.21.31-.12.16c-.56.72-1.9 2.22-4.57 4.06-1.11.76-1.2 3.84 2.34 3.84z" class="K"/><path d="M1028.09 428.28l2.7 18.26c2.12 10.66 2.89 15.46 4.24 28.89l.03.24c.02.18.09.36.21.52.77 1.04 3.4 1.9 5.36 1.78.73-.04 1.38-.23 1.8-.6.13-.11.24-.24.31-.39.13-.21.19-.46.19-.75-.11-2.77-.12-15.04-.53-18.99-.03-.25-.04-.51-.07-.78l-.13-1.09c0-.09-.02-.19-.03-.27-.01-.12-.03-.23-.05-.36a39.1 39.1 0 0 0-.35-2.35c-.04-.2-.06-.4-.1-.6 0-.02-.01-.03-.01-.04-.04-.21-.08-.42-.13-.62-.04-.21-.07-.42-.12-.63-.05-.2-.09-.4-.14-.6l-.18-.73a22 22 0 0 0-.64-2.04c.97-5.52 1.12-11.66.68-16.86-.03-.32-.05-.63-.08-.95 1.04-3.14 1.05-6.53.2-10.47l-2.8-.68-8.33-2.04-7.69-1.89-.3-.07c-.37 7.74-.12 10.77 5.96 14.1z" class="f"/><path d="M1041.22 418.15l.01 2.47c-5.9 4.11-18.09-.89-19.18-4.79.03-.81-.11-1.6.01-2.66 3.62 4.89 14.74 7.45 19.16 4.98z" class="K"/><path d="M1025.71 418.89c.6.5 1.44.82 2.43 1.19v-1.52c-.92-.37-1.74-.68-2.43-1.19v1.52z" class="N"/><path d="M1022.02 413.88c3.11 4.25 13.96 8.26 19.21 4.45 1.09-.8.76-1.79 1.08-4.15l.71-6.95c.76-8.26.93-13.54.81-16.27v-.01c-.01-.52.07-.68.03-1.02-2.13-2.49-5.95-5.36-9.03-7.31-4.18-1.87-3.69-1.86-5.9-1.62-5.12.56-7.93 31.48-6.91 32.87z" fill="#f6f6f6"/><g class="N"><path d="M1029.71 426.69a5 5 0 0 0 3.27 4.58c.75.28 1.52.45 2.34.53a13.7 13.7 0 0 0 4.28-.24l1.52-.37a28.5 28.5 0 0 0 3.25-1.16l-.37-28.4-.03-2.42-.12-9.27c-1.67-2.24-4.64-4.43-7.29-6.22-3.2 4.33-4.95 12.01-5.96 20.12l-.5 12.28-.39 10.57zm.39-43.94c-2.31 5.88-4.54 10.54-5.08 18.2l-1.59 19.91c.02 1.76 0 4.86-2.95 3.44l-1.38-.77 2.22-30.59c.99-8.96 3-12.41 8.78-10.19z"/></g><path d="M1028.86 388.11c-1.64 3.93-3.04 17.64-3.81 22.42l1.27 2.45 1.73-1.58c-.01-4.43 1.07-18.3 1.93-22.92l1.65-2.4-2.55-.9-.22 2.93z" class="f"/><path d="M1037.44 384.16c.81 1.94-3.82 4.96-6.04 4.96-.59-.86-.59-2.16-1.12-3.15-.74.5-1.57 1.29-2.48 1.92-.82-6.33 6.54-8.41 8.19-5.79.33.52 1.21 1.5 1.45 2.05z" class="D"/><g fill="#1d1d1b"><path d="M1031 403.75l-.16-.07 5.43-12.61-2.36-1.9 2.61.29c.87-1.98 1.25-3.52 1.17-4.86l.18-.01c.07 1.38-.31 2.97-1.21 5l-.03.06-.06-.01-2.08-.23 2 1.6-.03.06-5.46 12.67zm-6.32-1.44a90.6 90.6 0 0 1-.1-15.84l.01-.09 1.68.26-1.47-1.13.04-.07 3.76-5.58.06.01 1.73.41-.04.17-1.67-.4-3.64 5.41 1.87 1.44-2.16-.33c-.42 4.51-.38 9.8.11 15.72l-.18.01z"/></g><path d="M1028.78 384.9l-.03-.11-.18-2.31-.2-3.38 7.12-1.77.5 4.48c.84 4.48-6.42 5.35-7.21 3.09z" class="R"/><path d="M1028.78 384.89l-.03-.11-.42-5.64 5.87-1.42c.36 2.84-2.52 7.89-5.42 7.17z" fill="#ef947f"/><path d="M1039.61 431.57l1.52-.37a29.2 29.2 0 0 0 3.25-1.16l-.38-28.4-.03-2.42-6.18-2.84 3.45 14.06c1.16 8.03 1.37 15.51-1.63 21.13z" fill="#073266"/><path d="M1025.85 371.08s-.91 3.19-.78 6.27c.14 3.09.22 3.79 1.33 4.53s2.19 1 4.46.06c2.26-.93 3.76-2.84 3.76-2.84s.25.24 1.13-.44c1.36-1.06 1.7-1.66 2.01-3.38.32-1.72.28-3.97-.67-6.45-.94-2.49-5.23-2.51-7.29-1.9-2.06.62-3.24 2.28-3.95 4.14z" class="R"/><path d="M1038.44 369.29c-.02-1.66-1.68-3.29-4.29-3.74 0 0-3.31-.82-5.38.83l-.36.29c-.16.67-.27 1.35.14 1.93.36.5 1.02.92 1.59 1.13.5.19 1.06.24 1.5.55.38.27.62.71.65 1.17.04.54-.17.97-.44 1.42l-.6.94c.22 1.34 1.18 1.68 1.62 2.03.48.39.31 2.03.31 2.03l.69.05s.26-1.53.64-2.27c.39-.72 1.78-1.09 2.3.16.43 1.02-.33 2.03-.92 2.75 0 0 1.16.59 2.39-4.33.01 0 2.89-2.77.16-4.93z" class="K"/><g class="e"><path d="M1030.84 374.24a5.9 5.9 0 0 0-2.42-.54l-.02-.2a6.2 6.2 0 0 1 2.5.56l-.06.18zm-5.33-.7l-.08-.19c.64-.21 1.31-.01 1.89.16l-.03.19c-.56-.17-1.19-.36-1.78-.16zm.3 1.93c-.04.27.07.52.23.57s.32-.13.36-.4-.06-.52-.22-.57c-.16-.04-.33.13-.37.4zm3.01.3c-.04.27.07.52.23.57.17.05.33-.13.37-.4s-.07-.52-.23-.57-.33.13-.37.4z"/></g><path d="M1035.67 370.49l.62-1.71c-.78-.51-1.68-.82-2.59-1l-2.15-.33c-1.49-.26-3.15-1.54-4.63-.56-.79.53-1.24 1.51-2.11 1.9l-.94.37c-.91.39-1.41 1.52-1.15 2.5.01.06.03.11.05.16.32.92 1 1.63 2.01 1.45.58-.1.91-.26 1.22-.72.22-.32.54-.56.92-.64.46-.09.95.01 1.38.21.19.09.38.2.59.21.63.03 1.15-.85 1.72-.57.42.2.38.8.38 1.27 0 .56.21 1.19.72 1.43.42.19.9.07 1.36.13.33.04.64.19.94.37.43-1.52 1.11-2.98 1.66-4.48z" class="K"/><g fill="#183862"><path d="M1024.57 375.16c.15-.89.8-1.45 1.45-1.27s1.05 1.05.9 1.94c-.16.89-.8 1.45-1.45 1.27s-1.06-1.06-.9-1.94zm.12.04c-.14.82.22 1.62.8 1.78.58.17 1.17-.36 1.31-1.18s-.22-1.62-.8-1.78c-.59-.17-1.18.36-1.31 1.18zm3.24.38c.25-.99 1.03-1.57 1.75-1.31.71.27 1.09 1.29.84 2.28s-1.03 1.57-1.75 1.31c-.71-.27-1.09-1.29-.84-2.28zm.11.04c-.24.93.11 1.88.76 2.12.66.24 1.38-.31 1.62-1.24.23-.93-.11-1.88-.77-2.12-.65-.24-1.38.31-1.61 1.24z"/><path d="M1026.88 375.77l1.04.15v-.11l-1.04-.15v.11zm7.52.12l-.03.06-3.82.4.02-.13 3.87-.39c-.02.02-.03.04-.04.06z"/></g><path d="M1035.16 376.95l-.16-.08c.05-.11.53-1.05 1.07-.96l-.03.17c-.02 0-.03 0-.05 0-.32 0-.71.62-.83.87z" class="K"/><g class="e"><path d="M1027.81 379.78c-.55 0-.96-.3-.98-.31l.11-.14c.04.03 1.17.84 2.15-.47l.14.1c-.34.46-.75.73-1.2.79-.07.01-.15.02-.22.02z"/><path d="M1028.87 378.72c.21.1.4.24.56.41a1.9 1.9 0 0 1-.56-.41z"/></g><path d="M1023.48 406.84c.34 1.79-.5 4.45-1.88 4.71s-3.08-.91-3.41-2.7c-.34-1.79.5-3.44 1.89-3.7 1.38-.26 3.06-.09 3.4 1.69z" class="N"/><g stroke-width=".1" class="C"><path d="M1019.85 413.15s.75-11.75 1.16-14.54" stroke="#1d1d1b"/><path d="M1027.33 375.94s-.34 2.42-.05 2.42.82-.45.82-.45" stroke="#1b1c17"/></g><path d="M1016.16 420.14c.38.18 1.11-.06 2.99-.79l4.4-1.74c.37-.17.41-.18.41-.41v-.29s-.61-.25-.99-.32l-7.39-1.63.58 5.19z" class="D"/><path d="M1016.08 419.5c.25.25.43.34 3.13-.69l4.55-1.76c.48-.2.05-.29-.79-.48l-7.39-1.63.5 4.56z" fill="#c9e3ff"/><path d="M995.83 416.86l20.23 3.51c.2.03.38-.14.36-.35l-1.89-16.82c-.06-.55-.48-.99-1.03-1.08l-18.79-2.95c-.71-.11-1.26.37-1.17 1.08.36 4.63 1.06 10.99 1.73 16.09.07.37.3.47.55.52z" class="D"/><path d="M995.65 417.06l20.22 3.51c.2.03.38-.14.36-.35l-1.88-16.82c-.07-.55-.49-.99-1.04-1.08l-18.78-2.95c-.71-.11-1.26.37-1.17 1.08a338.9 338.9 0 0 0 1.73 16.09c.07.37.3.47.55.53z" fill="#e0eeff"/><path d="M1014.34 403.4c-.06-.55-.49-.99-1.03-1.08l-3.91-.62c1.43.4 2.72.65 3.23 1.75.84 1.82-.11 8.86-6.29 11.99-5.88 2.98-10.31.81-11.59-1.56l.34 2.65c.07.37.3.47.55.52l20.22 3.51c.03 0 .05 0 .08 0 .07-.01.14-.04.19-.09.07-.06.11-.16.09-.26l-1.88-16.82z" fill="#cae2ff"/><path d="M1005.61 410.06c.17.94-.39 1.7-1.23 1.7-.85 0-1.67-.76-1.83-1.7-.17-.94.39-1.7 1.23-1.7.85 0 1.67.76 1.83 1.7z" class="D"/><path d="M1047.71 401.61l1.44 7.6c0 1.1-3.68 3-5.78 2.49-.83-.46-3.62-6.91-3.62-6.91" fill="#ffd1a4"/><g fill="#ea6157"><path d="M1045.57 396.43l-.25-1.78.25 1.78zm-.67-4.56c0 .04.01.09.02.14l.01.01c-.01-.05-.03-.1-.03-.15z"/></g><path d="M1044.93 392.03c-.01-.06-.03-.12-.03-.16 0 .03.01.09.02.14 0-.03-.02-.06-.04-.08-.13-.35-.28-.67-.43-.96l-.65-1.21-.18-.27c-.71-.18-1.43-.32-2.17-.34l.03.03c-2.17.07-5.31 1.54-5.3 4.54.01 2.9 4.7 14.25 6.03 17.64 0 0 1.88 1.24 4.09.27 2.89-1.26 3.37-3.12 3.37-3.12-.37-1.46-4.43-15.72-4.74-16.48z" class="N"/><path d="M1026.11 415.21l-2.34.95-1.49-.84c-.19-.07-2.77-.42-3.29-.4s-1.09-.07-1.09-.07l3.1 1.89 1.95 2.59a6 6 0 0 0 1.67.29c.86.01 2.89-.49 2.89-.49l-1.4-3.92z" class="R"/><path d="M1041.65 409.97l-16.42 5.31 16.22-5.9.2.59z" fill="#073266"/><path d="M1026.82 419.6c9.1 0 14.04-1.18 16.41-1.97" stroke="#000" stroke-width=".39"/><path d="M1017.29 415.46c.03.17.15.31.32.34.03.01.07.01.11.01.25 0 .37-.48.37-.48l1.16.16 2.24 2.68c2.31 2.33 2.9.65 2.9.65l-.71-2.74-1.47-2.45s.09.15.06-.24c-.04-.38-.72-.45-.72-.45-.04-.2-.44-.39-.44-.39l-1.85-.34a1.3 1.3 0 0 0-1.07.29l-1.12.96s-.66.73-.66.95c.01.33.35.36.35.36s-.09.59.06.65c.14.06.47.03.47.03z" class="R"/><g fill="#ff9a6c"><path d="M1021.61 414.93c-.01.02-.24-.08-.63-.18a5.6 5.6 0 0 0-1.53-.17c-.31.01-.6.04-.85.09-.26.06-.51.09-.63.22-.06.07-.07.15-.04.22.02.07.06.12.1.15.08.07.15.06.14.07.01 0-.07.03-.17-.03-.05-.03-.11-.09-.14-.17s-.03-.2.05-.29c.07-.09.18-.14.29-.18l.37-.09a5.1 5.1 0 0 1 .87-.1c.62-.02 1.18.09 1.57.21.38.12.6.24.6.26z"/><path d="M1021.38 416.1c-.01.03-.73-.22-1.64-.44l-1.65-.36c0-.02.19-.01.49.03l1.19.22 1.15.35a2.1 2.1 0 0 1 .46.2zm-4.07-.69c-.01 0 .01-.07.04-.2s.07-.3.15-.52l.17-.35a1 1 0 0 1 .29-.33c.24-.19.54-.38.88-.48s.67-.17.98-.17.59.06.81.12l.52.16.19.08c-.01.02-.28-.06-.73-.16-.22-.05-.49-.1-.79-.09-.29 0-.62.08-.95.17s-.61.26-.84.45c-.24.17-.35.42-.45.62l-.27.68zm3.57-2.43c0 .02-.27-.06-.71-.14-.43-.06-1.1-.23-1.65.22a6.6 6.6 0 0 0-1.33 1.12c-.28.34-.35.62-.37.61-.01 0 0-.07.05-.19.04-.12.12-.29.26-.47.26-.38.76-.77 1.33-1.16.14-.1.29-.19.45-.24s.33-.07.48-.07c.31.01.57.06.79.11.45.1.71.2.7.22z"/><path d="M1020.46 417.12c-.01 0-.03-.04-.08-.11l-.23-.33a12.6 12.6 0 0 0-.92-1.16l.02.01-1.16-.15.05-.03c-.03.09-.06.18-.1.26-.05.08-.11.17-.21.23-.05.03-.12.03-.17.02-.05 0-.11-.01-.16-.04-.1-.05-.18-.13-.22-.23-.02-.03-.02-.05-.03-.08l-.01-.02v-.01h0 0c-.01-.01.11.08.06.04h0-.01-.04l-.15.01c-.06 0-.11 0-.17-.01-.03 0-.05-.01-.08-.02s-.06-.02-.1-.05c-.05-.06-.05-.12-.06-.18s-.01-.11-.01-.17c0-.11.01-.22.02-.33l.06.06c-.16-.02-.31-.1-.37-.27-.03-.07-.04-.16-.01-.24.03-.08.06-.14.1-.2a6.1 6.1 0 0 1 .55-.7h0 .01l.59-.51.38-.32c.13-.1.25-.22.4-.3s.32-.13.48-.14c.17-.02.34.02.49.05l1.74.32h.01 0c.1.05.19.1.27.17s.17.14.2.26l-.05-.04c.21-.02.43.05.56.21s.16.36.15.54l-.01-.03 1.02 1.68.27.46c.06.11.09.16.08.17a1.1 1.1 0 0 1-.1-.15l-.3-.45-1.04-1.66-.01-.01v-.02c.01-.16-.02-.34-.13-.47s-.3-.19-.48-.17h-.04l-.01-.04c-.02-.07-.09-.14-.17-.2s-.16-.11-.25-.15h.01l-1.74-.31c-.16-.03-.3-.06-.46-.04-.15.01-.3.06-.43.13-.14.07-.25.18-.38.29l-.38.32-.6.51h.01c-.2.22-.39.45-.54.68-.04.06-.07.12-.09.18-.02.05-.01.11 0 .17.04.11.16.18.28.19l.05.01v.06c-.02.11-.03.21-.03.32 0 .1.01.22.04.27.01 0 .02.01.05.02.02.01.04.01.07.01.04.01.09.01.14.01h.15.04 0 0c-.05-.04.08.05.06.04h0l.01.01v.02c0 .02.01.04.02.06.04.08.1.15.18.19.03.02.08.03.12.03.05.01.08 0 .11-.01.14-.08.22-.27.27-.42l.01-.04.04.01 1.16.17h.01l.01.01a10.6 10.6 0 0 1 .9 1.19c.1.15.17.26.21.34.05.08.07.12.07.12z"/></g><path d="M1041.9 409.88l-16.71 5.43 1.58 4.26s13.49.17 19.79-3.23c1.57-.85 2.78-1.71 3.3-3.41.79-2.58-.79-6.29-.79-6.29l-7.17 3.25z" class="N"/><path d="M1006.54 418.75a2.9 2.9 0 0 1-1.77 1.18c-.89.16-2.11.02-2.62-.07-.54-.11-1.69-.51-1.9-1.25s.53-2.19.92-2.83c.13-.07.43-.17.59-.07.2.13 0 1.18-.13 1.64s.52-1.71 1.24-1.64c.57.05.37 1.09.19 1.75.21-.64.63-1.65 1.06-1.22.47.47.38 1.33.24 1.82.2-.61.58-1.53.87-1.29.4.33.59.06.53 1.77l.78.2z" class="R"/><g style="mix-blend-mode:multiply" class="U"><path d="M1026.71 484.58c-12.5-3.33-21.47-10.37-20.04-15.71s12.71-6.97 25.21-3.64c12.49 3.33 21.46 10.37 20.04 15.71-1.43 5.34-12.72 6.97-25.21 3.64z"/></g><path d="M918.53 484.98c0 6.39-10.23 11.58-22.86 11.58-12.62 0-22.86-5.19-22.86-11.58s10.24-11.58 22.86-11.58c12.63 0 22.86 5.19 22.86 11.58z" fill="#e2e7e8"/><path d="M898.15 470.28c.73 6.27 1.2 7.81 4.51 9.38 1.53.71-.83 2.9-.83 2.9s-5.04-.99-7.13-2.1c-2.8-1.48-.26-2.54-.61-8.77-.16-2.81 4.06-1.41 4.06-1.41z" class="O"/><g class="E"><path d="M902.25 479.33c.53.72.41 1.45-.57 1.65-1.41.29-5.39-.84-8.44-3.39-1.36 5.35.67 4.97 3.68 4.64.65-.07 3.69 3.4 9.46 1.18 1.04-.4.61-2.43-1.91-3.05-1.79-.44-2.22-1.03-2.22-1.03zm-1.41-71.92c-.6 2.23-4.17 5.51-3.72 10.63.25 2.94 1.02 5.5 1.33 6.63.95 3.48-1.31 17.76-2.45 25.8 0 0-3.01 8.3-1.74 24.43 4.74 1.08 6.82-.24 6.82-.24s.49-15.73 1.7-20.06c2.34-8.4 5.48-29.11 5.57-31.82.22-6.69-.98-13.17-2.08-16.02l-5.42.66z"/><path d="M901.81 472.51c.06.44.25 3.05-.44 3.35-1.89.81-7.72-.04-8.19-.57.17-1.31-.18-3.53-.18-3.53s2.35 1.43 5.79 1.45c1.78.01 3.02-.7 3.02-.7z"/></g><path d="M901.11 472.27c.51.1.99.29.55.43-1.58.51-6.31.37-7.63-.22-1.25-.56-1.12-.8-.93-.68.16.11.29.08.29.08s.34.45 1.43.67c3.84.76 6.28-.27 6.28-.27z" class="V"/><path d="M901.93 392.85c-.02-1.76 1.47-9.58 1.47-9.58 2.69 4.09 5.8 12.99 7.61 16.01 2.41 1.34 7.97 5.7 7.97 5.7l-1.07.63s-3.99.44-5.87-.42c-1.6-.74-3.24-.99-3.76-1.7l-.02.05s-6.32-8.93-6.33-10.7z" class="O"/><path d="M900.24 381.84c2.04 1.28 3.67.93 5.13 2.67s5 12.21 5 12.21l-6.5 3.41s-1.96-11.67-1.66-12.4-1.97-5.89-1.97-5.89z" class="g"/><path d="M909.45 394.21l-4.5 2.72.42.94 4.57-2.25-.49-1.41z" class="B"/><path d="M892.78 473c-.78 7.02-2.4 7.94 1.53 13.64.91 1.32-1.8 1.57-1.8 1.57s-5.26-1.38-7.08-2.74c-2.44-1.83 1.67-3.47 2.06-10.55.15-2.7 5.3-1.92 5.3-1.92z" class="O"/><g class="E"><path d="M893.38 485.21c.39.75.29 1.75-.66 1.89-2.56.38-5.42-1.86-7.66-4.55-2.08 3.18-.29 4.5.6 4.99 4.1 2.25 3.11 3.49 8.54 3.67 2.58.09 3.74-.79 2.66-2.23-1.31-1.76-3.48-3.77-3.48-3.77zm2.39-77.03c-2.18 4.94-4.69 8.47-4.91 11.74a24.6 24.6 0 0 0 .76 7.24c.95 3.48 4.64 16.54 3.49 24.58-.07.1-9.45 10.32-9.17 24.74 4.74 1.08 6.74.82 6.74.82s8.09-19.79 11.17-23.15c2.83-3.09 1.33-24.96 1.64-27.65.55-4.83-.55-13.5.11-16.68l-9.83-1.65z"/></g><path d="M904.17 386.05c-.52-1.34-3-3.67-3.61-5.8-.85-3.66 1.84-6.1 3.42-7.3 0 0-9.72-5.12-9.29-2.26.34 2.23-.17 9.23-1.61 10.77-2.7 2.9-3.27 7.87-.68 10.17 1.76 1.56 10.09-.34 10.22-.44.42-.32 2.66-2.3 1.55-5.14z" class="O"/><path d="M891.99 366.23c-.6-.71-1.79-2.13-3.93-.44-2.14 1.69-4.84 5.41-1.44 12.21 3.27 6.53.64 10.13-.2 10.05 2.28.99 6.53-2.55 6.91-6.33.51-5.25-.88-3.23-3.33-9.84-1.1-2.98.97-4.07 1.42-4.16s.57-1.49.57-1.49z" fill="#3d0c04"/><path d="M892.12 369.93c-1.4-4.72 1.19-7.34 4.92-8.46s6.69 1.04 8.08 5.75c.27.9-.3 1.51-.19 2.37a22.3 22.3 0 0 0 1.35 2.02c.13.38-.44 1.06-.95 1.3-.17 2.55-.33 4.77-3.08 4.74a11.3 11.3 0 0 1-10.14-7.72z" class="O"/><path d="M902.6 366.97l1.4-2.43c.89-2.67-5.68-5.68-10.32-2.74-4.32 2.74-4.1 5.48-3.27 8.37.82 2.89 3.1 6.98 3.1 6.98s.94.26 2.85-.73c1.5-.78 3.39-3.37 2.93-3.66-.65-.39-1.13-2.61-.21-3.06.45-.23 1.26.37 1.26.37l2.27-3.1z" fill="#3d0c04"/><path d="M894.22 380.31l-3.98 4.53s-.91 4.52.31 9.2c.93 3.54 4.84 7.66 1.65 15.63-3.31 8.27-2.38 11.12-2.38 11.12s4.35-1.24 10.98.59c4.02 1.11 8.52-.73 8.52-.73s1.2-6.99-1.75-23.12c0 0 2.98-2.18.33-8.01-.98-2.16-3.3-6.46-3.89-6.99-.35-.31-2.22-1.46-2.22-1.46s2.95 4.33.08 4.36c-3 .02-7.63-5.12-7.63-5.12z" class="D"/><path d="M892.03 394.07c.07 2.25 1.67 7.55 2.31 9.36s.29 4.36-.01 4.73 2.21.63 1.84 1.11-2.61.94-2.61.94 4.22 2 2.51 1.44c-1.7-.56-2.42-.68-2.83.41s-.03 4.24.04 4.52-3.34.34-3.34.34 2.8-8.49 2.9-11.27-2.53-10.66-2.89-14.11-.12-5.84.28-6.23 1.81 8.75 1.81 8.75z" class="g"/><path d="M909.52 417.01c-3.24 2.28-9.62.33-12.09-.49-3.15-1.04-6.48-1.28-7.23-.48 0 .49-.34 1.36-.34 1.36s1.53-1.32 6.58.04c3.57.96 5.98 1.7 9.61 1.29 3.61-.4 3.42-1.01 3.42-1.01l.05-.71z" class="B"/><path d="M900.82 379.43c1.01.53 3.47 4.91 3.25 6.73s-.56 1.75-.78 2.24-1.25-.34-1.48-.97-.18-1.56.13-2.09-1-4.06-1.35-4.82.24-1.09.24-1.09z" class="h"/><path d="M900.71 386.71c-.37 2.79 4.31 2.24 4.64 7.94.76.33.57.74.57.74s.82-7.63-1.86-8.68c-1.81-.71-3.35 0-3.35 0z" class="B"/><path d="M893.05 380.38c-1.73 1.88.45 4.41 3.59 5.47s7.47 1.62 7.7 1.42.02-.11-.95-1.27-10.34-5.62-10.34-5.62z" class="h"/><path d="M893.56 378.15c1.06 2.45 9.32 6.28 10.34 6.84s-.12 1.13-.12 1.13-7.64-.04-10.43-3.47.2-4.5.2-4.5z" class="B"/><path d="M901.12 386.48c-.49 1 1.11 2.44 1.36 2.55s-.96-1.2-.73-1.49 1.63 1.1 3.1 3.27c.18.27.77 2.91.83 1.63.07-1.63-2.05-5.29-2.09-5.75s-2.48-.22-2.48-.22z" class="h"/><path d="M902.99 384.89a7.8 7.8 0 0 1 4.4 7.77c-1.97-4.15-5.62-5.88-5.76-6.54s1.36-1.23 1.36-1.23z" class="B"/><g class="E"><path d="M920.67 403.9c-.04.13-.15.22-.25.19l-5.69 1.99c-.11-.03-.17-.18-.13-.32l4.85-19.13c.13-.45.41-.53.68-.57l5.19-.46c.27 0 .38.31.34.44l-4.98 17.87z"/><path d="M900.15 404.04c-.08.06-.17.18-.04.18l14.86 1.37c.16.01.75-.12.66-.2l3.19-2.41c-.04-.05.8-.64.69-.64l-8.13-.57c-.1-.01-.44-.01-.5.02l-10.73 2.26z"/></g><g class="V"><path d="M900.01 404.55c-.01.15.08.28.22.29l14.47 1.25c.13.01.24-.11.25-.25l.02-.24c.01-.15-.09-.28-.21-.29l-14.47-1.25c-.13-.01-.25.1-.26.25l-.02.25zm4.34 19.25c.29 2.34 1.02 23.26.73 26.34s-1.6 4.53-2.62 5.71-9.82 17.76-9.79 21.46-1.87-.89-1.87-.89 6.92-18.75 8.78-20.94 3.28-4.28 3.28-6.91 1.49-24.76 1.49-24.76z"/></g><path d="M893.79 476.27c-.03.45-.33 3.02-1.03 3.19-1.93.45-7.27-1.43-7.62-2.03.4-1.25.48-3.48.48-3.48s1.95 1.82 5.19 2.46c1.68.33 2.98-.14 2.98-.14z" class="E"/><path d="M893.17 475.92c.46.19.88.46.44.51-1.58.21-6.02-.78-7.15-1.58-1.08-.77-.9-.98-.76-.83.13.14.26.13.26.13s.24.5 1.23.91c3.48 1.43 5.98.86 5.98.86z" class="V"/><path d="M911.25 403.49c-.44-.02-.74 0-.97.03.22-.06.54-.08.82-.23.25-.13.7-.07.67-.53-.02-.29-1.45.3-2.59.3-.81 0-1.68 1.12-2.47 1.48-2.27-.12-9.09-3.41-11.48-3.49-.22-1.1 1.35-10.23-.22-10.53-1.88-.37-4.91.77-4.91.77.11 10.1-.11 12.84.55 13.39 3.3 1.78 13.13 2.32 15.51 2.36 2 1.04 3.73-.55 4.25-.4.76.04 2.71-.08 2.73-.28.03-.24-.25-.13-.89-.19-.19-.01-1.47-.15-1.6-.15-.04-.36 2.25-.01 2.84-.28.37-.17.37-.34-.12-.42-.81-.12-2.71-.27-2.71-.27s3.28.15 3.36-.18c.07-.29-2.76-.59-2.76-.59l.15-.17 2.53.36c.32-.24-.78-.87-2.65-.97z" fill="#dbb2a5"/><path d="M891.57 384.91c-1.74.3-2.71 2.69-2.84 6.89a58 58 0 0 0 .34 8.07 10.8 10.8 0 0 0 2.33.18c2.23-.06 5.26-.42 5.33-.69.12-.44.46-7.04-.01-11.05-.35-2.99-5.14-3.42-5.14-3.42z" class="g"/><path d="M896.95 396.98c-1.41 1.16-7.53 1.44-8.09.5-.04.87.08 1.38.08 1.38s3.57 1 7.83-.4c.27-.09.18-1.47.18-1.47z" class="B"/><path d="M917.26 404.91c.55-.27.86-1.14.86-1.14s.22-1.1.3-1.1c.33.01.26.87.1 1.3s-.38.82-.38.82.68-.89.68-1.11-.22-1.26.05-1.25c.38.02.49.93.46 1.21-.04.44-.27.93-.27.93l.45-1.03s-.23-1.24.01-1.25c.44-.03.49.6.49 1.15s-.3.96-.3.96.47-.86.41-1.18c-.19-1.03.31-1 .31-1s.1 1.14.04 1.52-.27.93-.82 1.43-2.02.82-2.62.66-1.13-.15-.91-.31 1.13-.62 1.13-.62z" class="O"/><path d="M982.06 452.62c0 6.23-9.3 11.28-20.78 11.28s-20.78-5.05-20.78-11.28 9.3-11.28 20.78-11.28 20.78 5.05 20.78 11.28z" fill="#e8e8e8"/><path d="M955.3 352.13l-1.94 1.36s.54 3.38-1.73 5.03-3.76 2.5-2.53 3.85c.5.54.31.94-1.73 2.83-.68.63-1.35 2.55-.36 4.2s8.86 1.6 12.24-.56 7.8-5.61 7.8-5.61 3.04-3.88 1.45-5.33-3.37-3.43-3.37-3.43l-9.83-2.34z" class="K"/><path d="M961.37 404.78c-.58-1.45 9.4-2.56 9.4-2.56a173 173 0 0 0 .29 10.03c.41 4.49.32 6.63-1.05 12.65a103 103 0 0 0-1.16 16.34c.3 5.22 2.83 7.68 3.69 8.97s-2.42 2.51-4.49.63-2.29-2.25-3.46-2.83-.77-2-.69-4.94c.06-2.28-.98-9.86-1.37-14.73-.57-6.9 1.03-7.05.92-10.55-.21-6.57-1.71-12.06-2.09-13.01z" fill="#f9b4af"/><path d="M962.96 444.57l.01-.04c.03-.12.06-.18.06-.18h0c.27-.69.88-1.29.88-1.29s.49 4.18 3.08 5.9c2.89 1.92 4.18 2.21 5.56 1.25a27.7 27.7 0 0 0 2.29 2.66c.85.9.14 1.8-2.38 1.63a6.5 6.5 0 0 1-4.29-2.01c-1.11-1.34-1.96-2.79-3-3.66l-.44-.38h0l-.1 2.61c-.24.37-.62.28-.91 0-.17-.88.05-1.69-.47-3.32-.55-1.72-.41-2.75-.3-3.17z" class="E"/><path d="M961.25 417.66s-1.42 9.88-2.14 13.45-2.66 15.1-2.43 18.06c.16 2.01 1 4.74 1.53 6.42.52 1.68-.18 2.91-1.38 3.26-2.16.63-4.93-6.35-4.77-9.57.24-4.82-1.34-17.95-.83-20.9s1.58-4.72 1.89-6.34c.27-1.39-.94-7.34-.94-7.34l9.06 2.96z" class="Y"/><g class="E"><path d="M951.43 451.03l.25 2.99c.06 1 .19 1.86.19 1.86s.85.65 1.07-.25c-.15-2.88-1.51-4.6-1.51-4.6z"/><path d="M958.2 455.43a34.1 34.1 0 0 0 .95 3.46c.24 1.01.05 2.31-1.05 2.46-2.81.39-3.65-1.37-4.21-2.46-.71-1.38-1.44-5.05-2.11-6.9-1.14-2.2.29-3.19.29-3.19s.08 2.86 1.07 5.07c1.33 2.96 2.37 3.59 3.74 3.63 1.5.04 1.32-2.06 1.32-2.06zm13.06-39.77c-3.01 2.66-8.92 5.17-12.98 4.63-3.53-.48-4.51-1.09-6.1-1.97-.98-4.41-1.93-11.08-2.45-16.1-.64-6.23 1.39-9.29 3.2-12.69.01-.02 3.96-.11 5.87-.14 3.51-.05 7.44.84 10.77-.45.19-.07.33.03.39.18.06 0 .12.02.14.09 1.6 5.66 2.03 17.52 1.17 26.46z"/></g><g class="Y"><path d="M990.49 361.85c-1.79 1.07-1.84 2.7-4.98 2.7-.4 0-.74.02-1.03.07-1.84.29-1.81 1.49-4.03 3.88a91 91 0 0 1-5.26 5.04l-.14-.24c-1.8-3.05-4.07-8.5-7.17-11.68-1.71-1.75-2.27-.88-4.33.25-5.8 3.17 4.33 10.96 4.33 10.96s3.37 4.86 5.85 7.18c.72.75.95.59 2.17.22 1.49-.45 3.38-1.98 5.06-5.05.92-1.67 3.17-6.37 3.73-6.68.35-.19 3.09.13 4.89-1.01 1.11-.7 2.09-2.67 2.57-3.52 1.27-2.25.43-3.35-1.66-2.11z"/><path d="M987.07 362.57c.93-.86 1.8-.62 1.01.6-.22.35-.98.9-1.37 1.3-.66.67-.79 1.38-.79 1.38s-3.05-.22-2.75-.68c.76-1.21 2.72-1.51 3.9-2.6z"/></g><path d="M973.04 369.52s-1.32-6.89-3.82-8.46-5.48-.08-5.73.41 5.53 10.14 5.53 10.14 2.85-1.42 4.02-2.09z" class="b"/><path d="M972.89 368.83l.58 1.51s-2.87 1.22-4.36 2.26-1.8-.39-.84-1.41c1.18-1.26 4.63-2.36 4.63-2.36z" class="B"/><path d="M969.15 382.95c.06 1.16.89 6.16 1.32 7.82-2.22 5.06-14.29 4.99-18.85 1.03.45-2.51 2.82-9.65 2.69-12.02 0 0-5.92-6.21-4.29-12.35.49-1.86 5.49-4.2 5.49-4.2s3.19 3.06 4.37 3.93a29.2 29.2 0 0 1 3.18 3.18h.03c-.02-.35-.25-3.2-1.42-6.22-.37-.95.19-3.74.19-3.74s.47-.11 1.15-.23c1.02 1.07 3.02 3.91 4.11 5.09 1.05 1.14 4.13 5.08 3.19 8.8-.8 3.18-1.23 7.35-1.14 8.92z" class="X"/><g class="B"><path d="M956.76 361.66s.96 3.65 2.34 4.96l4.36 4.19s-3.18.31-5.15.82c-1.45-1.37-3.55-5.27-3.55-6.49 0-3.27 2-3.47 2-3.47z"/><path d="M963.55 361.85s2.98 4.25 3.67 6.19c-1.27.79-3.76 2.76-3.76 2.76l-1.65-8.1 1.73-.85z"/></g><path d="M962.76 365.71c.5.74 1 3.07.71 5.1-1.11-.59-3.22-2.5-4.42-3.87-1.15-1.32-1.98-2.43-2.37-4.02.17-1.35.19-3.77-.55-6.77 2.13-.91 6.09 4.66 6.09 4.66s-.04 3.2.55 4.91z" fill="#f9b4af"/><g class="Y"><path d="M956.67 349.27c2.03-1.79 7.18-2.79 9.61 2.13 2.55 5.16-1.86 12.31-4.7 11.43-1.59-.49-5.02-2.45-6.22-5.18-1.34-3.07-.27-7 1.3-8.39zm2.42 36.44c-1.43-1.37-2.92-5.9-3.59-7.72-.91-2.51-1.64-7.11-3.61-9.26-1.91-2.09-5.23-2.41-3.56 5.88.35 1.77.77 3.68 1.6 5.38.77 1.57 2.35 5.89 4.97 8.31a16.2 16.2 0 0 1 4.19-2.6z"/></g><path d="M967.75 397.8l8.32-13.67c.5-.82 1.61-1.77 2.47-2.13l7.71-4.23c.36-.15.62-.16.77-.07v-.01l.78.43-.65.56-.19-.18-.05.1-8.32 13.66c-.5.82-1.61 1.77-2.47 2.13l-7.27 3.99-.38.77-.82-.45v-.01c-.2-.12-.18-.44.11-.91z" fill="#e8e8e8"/><path d="M987.71 379.06l-8.32 13.66a6.1 6.1 0 0 1-2.47 2.13l-7.71 4.23c-.86.35-1.16-.02-.66-.84l8.32-13.67c.5-.82 1.61-1.77 2.47-2.13l7.71-4.23c.86-.35 1.16.03.66.84z" fill="#adadad"/><path d="M955.6 377.42c.73 2.01 2.39 7.01 3.96 8.5.73.69 6.91 4.23 9.04 4.61 1.36.25 2.54-.73 3.89-.54-.17.37-.5 1.55.18 1.98 1.29.81 3.38-.39 4.42.16.99.52-1.42 2.54-2.9 3.23-2.66 1.22-4.32.2-6.98-1.02-2.6-1.19-7.41-1.88-11.56-4.97-3.32-2.47-5.28-7.88-6.19-9.76s-1.37-3.98-1.76-5.92c-1.83-9.11 2.59-6.6 4.69-4.3 2.16 2.37 2.19 5.26 3.2 8.03z" class="Y"/><path d="M955.28 376.46s.99-8.09-2.97-10.13c-3.41-1.76-6.26 1.71-6.23 5.29.03 3.54 2.95 6.99 2.95 6.99l6.25-2.15z" class="b"/><path d="M955.29 376.46l.49 1.44-3.12 1.02-2.98 1.13-.64-1.44s2.28-1.33 6.26-2.15z" class="B"/><g class="K"><path d="M964.51 348.91s-1.04 5.17-4.32 8.04c-1.61 1.41-4.69 2.84-4.69 2.84s-5.37.43-3.88-1.27c2.16-2.46.68-4.21.68-6.02 0-5.94 3.68-6.65 5.69-7.19 3.76-1.01 6.52 3.59 6.52 3.59z"/><path d="M959.83 346.56s.88-1.57 3.72-1.39 5.41 3.34 5.77 6.3c.25 2.02-2.27 3.68-2.27 3.68s-1.54-4.31-4.19-4.67-3.02-3.91-3.02-3.91z"/></g></g><rect x="1" y="1" width="1138" height="638" rx="15" stroke-width="2" class="S"/><defs><filter id="M" x="996.5" y="12.7" width="72.14" height="92.98" filterUnits="userSpaceOnUse" class="i"><feFlood class="j"/><feBlend in="SourceGraphic" result="B"/><feColorMatrix in="SourceAlpha" values="0 0 0 0 0 0 0 0 0 0 0 0 0 0 0 0 0 0 127 0" result="C"/><feOffset dy="-5.9375"/><feGaussianBlur stdDeviation="5.94"/><feComposite in2="C" operator="arithmetic" k2="-1" k3="1"/><feColorMatrix values="0 0 0 0 0 0 0 0 0 0 0 0 0 0 0 0 0 0 0.25 0"/><feBlend in2="B" result="D"/><feColorMatrix in="SourceAlpha" values="0 0 0 0 0 0 0 0 0 0 0 0 0 0 0 0 0 0 127 0" result="C"/><feOffset dy="5.9375"/><feGaussianBlur stdDeviation="5.94"/><feComposite in2="C" operator="arithmetic" k2="-1" k3="1"/><feColorMatrix values="0 0 0 0 0 0 0 0 0 0 0 0 0 0 0 0 0 0 0.25 0"/><feBlend in2="D"/></filter><filter id="N" x="71.35" y="535.57" width="72.14" height="92.98" filterUnits="userSpaceOnUse" class="i"><feFlood class="j"/><feBlend in="SourceGraphic" result="B"/><feColorMatrix in="SourceAlpha" values="0 0 0 0 0 0 0 0 0 0 0 0 0 0 0 0 0 0 127 0" result="C"/><feOffset dy="-5.9375"/><feGaussianBlur stdDeviation="5.94"/><feComposite in2="C" operator="arithmetic" k2="-1" k3="1"/><feColorMatrix values="0 0 0 0 0 0 0 0 0 0 0 0 0 0 0 0 0 0 0.25 0"/><feBlend in2="B" result="D"/><feColorMatrix in="SourceAlpha" values="0 0 0 0 0 0 0 0 0 0 0 0 0 0 0 0 0 0 127 0" result="C"/><feOffset dy="5.9375"/><feGaussianBlur stdDeviation="5.94"/><feComposite in2="C" operator="arithmetic" k2="-1" k3="1"/><feColorMatrix values="0 0 0 0 0 0 0 0 0 0 0 0 0 0 0 0 0 0 0.25 0"/><feBlend in2="D"/></filter><filter id="O" x="-4.75" y="56.41" width="332.5" height="98.56" filterUnits="userSpaceOnUse" class="i"><feFlood result="A" class="j"/><feColorMatrix in="SourceAlpha" values="0 0 0 0 0 0 0 0 0 0 0 0 0 0 0 0 0 0 127 0" result="B"/><feOffset dy="1.78125"/><feGaussianBlur stdDeviation="2.38"/><feComposite in2="B" operator="out"/><feColorMatrix values="0 0 0 0 0 0 0 0 0 0 0 0 0 0 0 0 0 0 0.3 0"/><feBlend in2="A"/><feBlend in="SourceGraphic"/></filter><clipPath id="P"><rect width="1140" height="640" rx="16" class="B"/></clipPath><path id="Q" d="M730.72 347.33c.06.32.38.56.7.52s.53-.34.47-.66-.37-.56-.7-.52-.53.34-.47.66z"/><path id="R" d="M694.28 381.78c-.06.13-.17.17-.26.1s-.12-.23-.06-.36.17-.17.26-.1.12.23.06.36z"/></defs></svg>