<svg xmlns="http://www.w3.org/2000/svg" width="1140" height="640" fill="none" xmlns:v="https://vecta.io/nano"><style><![CDATA[.B{fill:#fff}.C{fill:#0668e1}.D{stroke-width:1.1}.E{stroke:#fff}.F{stroke-width:.34}.G{fill:#8dade0}.H{stroke:#8dade0}.I{stroke-width:.08}.J{stroke-miterlimit:10}.K{stroke-linecap:round}.L{stroke:#0668e1}.M{fill:#0745b4}.N{fill:#f5f9ff}.O{stroke:#0745b4}.P{stroke-width:.56}.Q{color-interpolation-filters:sRGB}.R{flood-opacity:0}]]></style><g clip-path="url(#M)"><rect width="1140" height="640" rx="16" class="B"/><g fill="#b8d8ff" class="D L"><path d="M887.13 33.53L864.68 54.9l22.44 21.38h845.73l-22.02-20.98-.42-.4.42-.4 22.03-20.98H887.13zm-114.24 0L750.57 54.9l22.32 21.38h89.52L840.49 55.3l-.41-.4.41-.4 21.91-20.98h-89.52z"/></g><g filter="url(#G)" class="C"><path d="M1029.01 19.6c2.21-1.27 4.92-1.27 7.13 0l28.95 16.71c2.2 1.27 3.56 3.62 3.56 6.17v33.43c0 2.55-1.36 4.9-3.56 6.17l-28.95 16.71c-2.21 1.27-4.92 1.27-7.13 0l-28.95-16.71c-2.2-1.27-3.56-3.62-3.56-6.17V42.48c0-2.55 1.36-4.9 3.56-6.17l28.95-16.71z"/></g><path d="M1029.29 20.07c2.03-1.17 4.54-1.17 6.57 0l28.95 16.71c2.04 1.17 3.29 3.35 3.29 5.7v33.43c0 2.35-1.25 4.52-3.29 5.7l-28.95 16.71c-2.03 1.17-4.54 1.17-6.57 0l-28.95-16.71c-2.04-1.17-3.29-3.35-3.29-5.7V42.48c0-2.35 1.25-4.52 3.29-5.7l28.95-16.71z" class="D E"/><g class="B"><path d="M1041.58 47.29c1.51 0 2.55.29 3.13.87.58.64.9 1.74.96 3.3v5.04c-.06 3.19-.43 5.91-1.13 8.17a27.3 27.3 0 0 1-2.96 6.43l-4.71-1.39c.47-1.74.79-3.42.96-5.04l.26-5.3c-2.21 0-3.34-1.22-3.4-3.65l.09-4.26c.06-1.56.41-2.66 1.05-3.3.58-.58 1.62-.87 3.13-.87h2.62zm-15.21 0c1.51 0 2.56.29 3.14.87.58.64.9 1.74.96 3.3v5.04c-.06 3.19-.44 5.91-1.13 8.17a26.9 26.9 0 0 1-2.97 6.43l-4.7-1.39c.46-1.74.78-3.42.96-5.04l.26-5.3c-2.21 0-3.34-1.22-3.4-3.65l.09-4.26c.05-1.56.4-2.66 1.04-3.3.58-.58 1.63-.87 3.14-.87h2.61z"/></g><g fill="#b8d8ff" class="D L"><path d="M313.28 559.68l22.44 21.37-22.44 21.38h-845.74l22.03-20.98.42-.4-.42-.4-22.03-20.98h845.74zm114.24.01l22.32 21.37-22.32 21.38H338l21.91-20.98.41-.4-.41-.4L338 559.68h89.52z"/></g><g filter="url(#H)" class="C"><path d="M103.86 542.46a7.1 7.1 0 0 1 7.13 0l28.95 16.71c2.21 1.27 3.56 3.63 3.56 6.17v33.43c0 2.55-1.36 4.9-3.56 6.17l-28.95 16.71a7.1 7.1 0 0 1-7.12 0l-28.95-16.71c-2.2-1.27-3.56-3.62-3.56-6.17v-33.43c0-2.55 1.36-4.9 3.56-6.17l28.95-16.71z"/></g><path d="M104.14 542.93a6.6 6.6 0 0 1 6.58 0l28.95 16.71a6.6 6.6 0 0 1 3.29 5.7v33.43a6.6 6.6 0 0 1-3.29 5.7l-28.95 16.71a6.6 6.6 0 0 1-6.58 0l-28.95-16.71a6.6 6.6 0 0 1-3.29-5.7v-33.43a6.6 6.6 0 0 1 3.29-5.7l28.95-16.71z" class="D E"/><g class="B"><path d="M98.42 593.96c-1.51 0-2.56-.29-3.14-.87-.58-.64-.9-1.74-.96-3.3v-5.04c.06-3.19.44-5.91 1.13-8.17s1.68-4.4 2.96-6.43l4.71 1.39a33.2 33.2 0 0 0-.96 5.04l-.26 5.3c2.21 0 3.34 1.22 3.4 3.65l-.09 4.26c-.06 1.56-.41 2.66-1.05 3.3-.58.58-1.63.87-3.14.87h-2.61zm15.21 0c-1.51 0-2.56-.29-3.14-.87-.58-.64-.9-1.74-.96-3.3v-5.04c.06-3.19.44-5.91 1.13-8.17s1.69-4.4 2.96-6.43l4.7 1.39c-.46 1.74-.78 3.42-.96 5.04l-.26 5.3c2.21 0 3.34 1.22 3.4 3.65l-.09 4.26c-.06 1.56-.41 2.66-1.05 3.3-.58.58-1.63.87-3.14.87h-2.61z"/></g><path d="M148.71 259.35c0-.79-.12-1.5-.35-2.12-.23-.65-.66-1.25-1.29-1.81a11.5 11.5 0 0 0-2.71-1.67c-1.16-.58-2.69-1.18-4.59-1.81l-6.44-2.5c-2.06-.95-3.91-2.05-5.53-3.31-1.62-1.28-2.91-2.76-3.86-4.45-.95-1.72-1.43-3.71-1.43-5.98 0-2.18.49-4.14 1.46-5.88a13.4 13.4 0 0 1 4.07-4.49c1.76-1.25 3.83-2.2 6.19-2.85 2.37-.67 4.95-1.01 7.76-1.01 3.71 0 6.98.65 9.81 1.95 2.85 1.28 5.08 3.1 6.68 5.46 1.62 2.34 2.44 5.11 2.44 8.31h-12.14a6.9 6.9 0 0 0-.8-3.37c-.51-.97-1.29-1.74-2.33-2.3a8.3 8.3 0 0 0-3.93-.84 9.5 9.5 0 0 0-3.86.7 5.4 5.4 0 0 0-2.37 1.88c-.53.77-.8 1.61-.8 2.54 0 .77.21 1.46.63 2.09.44.6 1.06 1.17 1.84 1.7.81.53 1.79 1.04 2.92 1.53 1.16.49 2.46.96 3.9 1.43 2.69.86 5.08 1.82 7.17 2.89a22 22 0 0 1 5.32 3.58c1.46 1.32 2.56 2.83 3.3 4.52.77 1.69 1.15 3.61 1.15 5.74 0 2.27-.44 4.29-1.32 6.05s-2.15 3.26-3.79 4.49c-1.65 1.21-3.62 2.12-5.91 2.75s-4.86.94-7.69.94c-2.6 0-5.16-.32-7.69-.97-2.51-.67-4.78-1.69-6.82-3.06-2.04-1.39-3.68-3.17-4.9-5.32-1.21-2.18-1.81-4.77-1.81-7.76h12.25c0 1.48.2 2.74.59 3.76s.97 1.84 1.74 2.47a7.4 7.4 0 0 0 2.82 1.32c1.11.26 2.39.38 3.83.38 1.55 0 2.81-.22 3.76-.66.95-.46 1.65-1.07 2.09-1.81.44-.77.66-1.6.66-2.5zm37.78-24.18v8.14h-22.68v-8.14h22.68zm-17.92-9.36h11.72v34.72c0 1 .12 1.77.35 2.33.23.53.63.92 1.18 1.15.58.21 1.34.31 2.3.31a33 33 0 0 0 1.67-.04 17.7 17.7 0 0 0 1.25-.17v8.38a19.2 19.2 0 0 1-3.13.73 20.7 20.7 0 0 1-3.48.28c-2.51 0-4.65-.39-6.44-1.18a8.4 8.4 0 0 1-4.03-3.72c-.93-1.69-1.39-3.9-1.39-6.61v-36.18zm34.41 18.68v28.32h-11.72v-37.64h10.96l.77 9.32zm11.13-9.6l-.21 10.89-1.88-.17a23.1 23.1 0 0 0-1.98-.1c-1.37 0-2.55.16-3.55.49a6 6 0 0 0-2.44 1.39c-.63.6-1.09 1.37-1.39 2.3a10.6 10.6 0 0 0-.38 3.24l-2.12-1.39c0-2.53.24-4.82.73-6.89a18.7 18.7 0 0 1 2.16-5.39c.93-1.53 2.05-2.7 3.38-3.51 1.32-.84 2.81-1.25 4.45-1.25.58 0 1.15.03 1.71.1a8.5 8.5 0 0 1 1.53.31zm26.02 28.77v-28.49h11.76v37.64H240.9l-.77-9.15zm1.11-7.65l3.06-.07c0 2.53-.3 4.87-.9 7.03-.6 2.13-1.5 3.99-2.68 5.57-1.16 1.58-2.6 2.81-4.31 3.69-1.69.86-3.65 1.29-5.88 1.29-1.85 0-3.56-.25-5.11-.76-1.53-.53-2.85-1.36-3.97-2.47a11.7 11.7 0 0 1-2.61-4.35 20.1 20.1 0 0 1-.91-6.4v-24.35h11.72v24.42a6.6 6.6 0 0 0 .31 2.16 4.2 4.2 0 0 0 .9 1.53 3.9 3.9 0 0 0 1.46.91 7 7 0 0 0 2.05.28c1.76 0 3.14-.37 4.14-1.11a5.8 5.8 0 0 0 2.09-3.03c.42-1.28.63-2.71.63-4.31zm40.77-20.84h10.64v36.18c0 3.48-.8 6.43-2.4 8.84-1.6 2.44-3.84 4.28-6.72 5.53-2.85 1.27-6.19 1.91-10.02 1.91a21.3 21.3 0 0 1-5.18-.66c-1.76-.42-3.41-1.04-4.94-1.88s-2.82-1.87-3.86-3.1l4.91-6.89c.95 1.07 2.15 1.97 3.58 2.71 1.44.77 3.13 1.15 5.08 1.15 1.69 0 3.11-.3 4.25-.9 1.16-.6 2.04-1.48 2.64-2.64.6-1.14.9-2.52.9-4.14v-27.21l1.11-8.91zm-25.01 19.27v-.73a27.3 27.3 0 0 1 1.04-7.79c.72-2.37 1.74-4.39 3.06-6.09 1.34-1.72 2.97-3.04 4.87-3.97a14.5 14.5 0 0 1 6.44-1.39c2.57 0 4.69.5 6.33 1.5a10.8 10.8 0 0 1 4 4.1c1.02 1.76 1.81 3.83 2.37 6.19.58 2.34 1.07 4.87 1.46 7.58v.87a51.6 51.6 0 0 1-1.63 7.24c-.67 2.25-1.55 4.24-2.64 5.98a12.4 12.4 0 0 1-4.11 4.11c-1.62.97-3.57 1.46-5.85 1.46a14.1 14.1 0 0 1-6.4-1.43 14.3 14.3 0 0 1-4.84-4c-1.32-1.72-2.34-3.73-3.06-6.05a26.3 26.3 0 0 1-1.04-7.59zm11.72-.73v.73a19 19 0 0 0 .38 3.93c.28 1.21.7 2.27 1.25 3.2.56.91 1.24 1.61 2.05 2.12a5.5 5.5 0 0 0 2.92.77 7.1 7.1 0 0 0 4.11-1.08 6 6 0 0 0 2.26-3.06 12.6 12.6 0 0 0 .59-4.66v-2.75a16.6 16.6 0 0 0-.31-4.04 8 8 0 0 0-1.22-2.96 4.9 4.9 0 0 0-2.16-1.77c-.88-.42-1.95-.63-3.2-.63a5.4 5.4 0 0 0-2.89.77 6.2 6.2 0 0 0-2.09 2.16c-.56.9-.99 1.98-1.29 3.23a18.3 18.3 0 0 0-.42 4.04zm54.34-18.54h10.65v36.18c0 3.48-.8 6.43-2.4 8.84-1.6 2.44-3.84 4.28-6.71 5.53-2.85 1.27-6.19 1.91-10.02 1.91a21.3 21.3 0 0 1-5.18-.66 19.8 19.8 0 0 1-4.94-1.88c-1.53-.84-2.82-1.87-3.86-3.1l4.91-6.89c.95 1.07 2.14 1.97 3.58 2.71 1.44.77 3.13 1.15 5.08 1.15 1.69 0 3.11-.3 4.24-.9 1.16-.6 2.04-1.48 2.64-2.64.6-1.14.91-2.52.91-4.14v-27.21l1.11-8.91zm-25.01 19.27v-.73c0-2.85.35-5.45 1.04-7.79.72-2.37 1.74-4.39 3.06-6.09 1.35-1.72 2.97-3.04 4.87-3.97a14.5 14.5 0 0 1 6.44-1.39c2.57 0 4.69.5 6.33 1.5a10.8 10.8 0 0 1 4 4.1c1.02 1.76 1.81 3.83 2.37 6.19.58 2.34 1.07 4.87 1.46 7.58v.87a51.6 51.6 0 0 1-1.63 7.24c-.67 2.25-1.55 4.24-2.64 5.98a12.4 12.4 0 0 1-4.1 4.11c-1.62.97-3.57 1.46-5.85 1.46a14.1 14.1 0 0 1-6.4-1.43 14.3 14.3 0 0 1-4.84-4c-1.32-1.72-2.34-3.73-3.06-6.05-.69-2.32-1.04-4.85-1.04-7.59zm11.72-.73v.73a19 19 0 0 0 .38 3.93c.28 1.21.7 2.27 1.25 3.2.56.91 1.24 1.61 2.05 2.12a5.5 5.5 0 0 0 2.92.77 7.1 7.1 0 0 0 4.1-1.08 6 6 0 0 0 2.26-3.06c.46-1.32.66-2.88.59-4.66v-2.75c.05-1.53-.06-2.88-.31-4.04a8 8 0 0 0-1.22-2.96 4.9 4.9 0 0 0-2.16-1.77c-.88-.42-1.95-.63-3.2-.63a5.4 5.4 0 0 0-2.89.77 6.2 6.2 0 0 0-2.09 2.16 11.1 11.1 0 0 0-1.29 3.23 18.3 18.3 0 0 0-.42 4.04zm43.07-34.34v53.44H341.1v-53.44h11.76zm19.62 15.79v37.64h-11.76v-37.64h11.76zm-12.45-9.71c0-1.67.6-3.04 1.81-4.1s2.77-1.6 4.7-1.6 3.49.53 4.7 1.6 1.81 2.44 1.81 4.1-.6 3.04-1.81 4.11-2.77 1.6-4.7 1.6-3.49-.53-4.7-1.6-1.81-2.44-1.81-4.11zm31.21 17.74v29.61h-11.72v-37.64h10.99l.73 8.04zm-1.39 9.5l-2.75.07a26 26 0 0 1 1.04-7.69c.7-2.27 1.68-4.2 2.96-5.78a12.6 12.6 0 0 1 4.56-3.58c1.79-.84 3.77-1.25 5.95-1.25 1.74 0 3.33.26 4.77.77a9.1 9.1 0 0 1 3.76 2.47 11.1 11.1 0 0 1 2.44 4.52c.58 1.86.87 4.15.87 6.89v23.69h-11.79v-23.73c0-1.51-.21-2.66-.63-3.45-.42-.81-1.02-1.37-1.81-1.67a8.1 8.1 0 0 0-2.89-.45c-1.21 0-2.23.23-3.06.7a5.4 5.4 0 0 0-2.02 1.95c-.49.81-.85 1.77-1.08 2.89-.21 1.11-.31 2.33-.31 3.65zm53.75-17.53h10.64v36.18c0 3.48-.8 6.43-2.4 8.84-1.6 2.44-3.84 4.28-6.71 5.53-2.85 1.27-6.19 1.91-10.02 1.91a21.3 21.3 0 0 1-5.18-.66c-1.76-.42-3.41-1.04-4.94-1.88s-2.82-1.87-3.86-3.1l4.91-6.89c.95 1.07 2.15 1.97 3.58 2.71 1.44.77 3.13 1.15 5.08 1.15 1.69 0 3.11-.3 4.25-.9 1.16-.6 2.04-1.48 2.64-2.64.6-1.14.9-2.52.9-4.14v-27.21l1.11-8.91zm-25.01 19.27v-.73a27.3 27.3 0 0 1 1.04-7.79c.72-2.37 1.74-4.39 3.06-6.09 1.34-1.72 2.97-3.04 4.87-3.97a14.5 14.5 0 0 1 6.44-1.39c2.57 0 4.69.5 6.33 1.5a10.8 10.8 0 0 1 4 4.1c1.02 1.76 1.81 3.83 2.37 6.19.58 2.34 1.07 4.87 1.46 7.58v.87a51.6 51.6 0 0 1-1.63 7.24c-.67 2.25-1.55 4.24-2.64 5.98a12.4 12.4 0 0 1-4.11 4.11c-1.62.97-3.57 1.46-5.85 1.46a14.1 14.1 0 0 1-6.4-1.43 14.3 14.3 0 0 1-4.84-4c-1.32-1.72-2.34-3.73-3.06-6.05a26.3 26.3 0 0 1-1.04-7.59zm11.72-.73v.73a19 19 0 0 0 .38 3.93c.28 1.21.7 2.27 1.25 3.2.56.91 1.24 1.61 2.05 2.12a5.5 5.5 0 0 0 2.92.77 7.1 7.1 0 0 0 4.11-1.08 6 6 0 0 0 2.26-3.06 12.6 12.6 0 0 0 .59-4.66v-2.75a16.6 16.6 0 0 0-.31-4.04 8 8 0 0 0-1.22-2.96 4.9 4.9 0 0 0-2.16-1.77c-.88-.42-1.95-.63-3.2-.63a5.4 5.4 0 0 0-2.89.77 6.2 6.2 0 0 0-2.09 2.16c-.56.9-.99 1.98-1.29 3.23a18.3 18.3 0 0 0-.42 4.04zm68.26-18.54v8.14h-22.68v-8.14h22.68zm-17.92-9.36h11.72v34.72c0 1 .12 1.77.35 2.33.23.53.63.92 1.18 1.15.58.21 1.35.31 2.3.31.67 0 1.23-.01 1.67-.04a17.6 17.6 0 0 0 1.25-.17v8.38a19.2 19.2 0 0 1-3.13.73 20.7 20.7 0 0 1-3.48.28c-2.5 0-4.65-.39-6.44-1.18a8.4 8.4 0 0 1-4.04-3.72c-.93-1.69-1.39-3.9-1.39-6.61v-36.18zm20.07 28.56v-.73c0-2.76.39-5.3 1.18-7.62.79-2.34 1.95-4.37 3.48-6.09s3.42-3.05 5.67-4c2.25-.97 4.85-1.46 7.79-1.46 2.97 0 5.58.49 7.83 1.46 2.27.95 4.17 2.28 5.71 4s2.69 3.75 3.48 6.09c.79 2.32 1.18 4.86 1.18 7.62v.73c0 2.74-.39 5.28-1.18 7.62-.79 2.32-1.95 4.35-3.48 6.09-1.53 1.72-3.42 3.05-5.67 4s-4.85 1.43-7.79 1.43-5.55-.47-7.83-1.43-4.18-2.28-5.71-4c-1.53-1.74-2.69-3.77-3.48-6.09-.79-2.34-1.18-4.88-1.18-7.62zm11.72-.73v.73a23.7 23.7 0 0 0 .31 3.97c.21 1.23.56 2.31 1.04 3.24.49.91 1.15 1.61 1.98 2.12a5.9 5.9 0 0 0 3.13.77c1.23 0 2.25-.25 3.06-.77.83-.51 1.5-1.22 1.98-2.12a10.8 10.8 0 0 0 1.04-3.24 23.7 23.7 0 0 0 .31-3.97v-.73c0-1.37-.1-2.66-.31-3.86a10.8 10.8 0 0 0-1.04-3.24 5.6 5.6 0 0 0-1.98-2.23 5.7 5.7 0 0 0-3.13-.8c-1.23 0-2.26.27-3.1.8a5.7 5.7 0 0 0-1.95 2.23c-.49.93-.83 2.01-1.04 3.24-.21 1.21-.31 2.49-.31 3.86zm-366.72 64.53h10.65v36.18c0 3.48-.8 6.43-2.4 8.84-1.6 2.44-3.84 4.28-6.71 5.53-2.85 1.27-6.19 1.91-10.02 1.91a21.3 21.3 0 0 1-5.18-.66c-1.76-.42-3.41-1.04-4.94-1.88s-2.82-1.87-3.86-3.1l4.9-6.89c.95 1.07 2.15 1.97 3.58 2.71 1.44.77 3.13 1.15 5.08 1.15 1.69 0 3.11-.3 4.24-.9 1.16-.6 2.04-1.48 2.64-2.64.6-1.14.91-2.52.91-4.14v-27.21l1.11-8.91zm-25.01 19.27v-.73a27.3 27.3 0 0 1 1.04-7.79c.72-2.37 1.74-4.4 3.06-6.09 1.35-1.72 2.97-3.04 4.87-3.97a14.5 14.5 0 0 1 6.44-1.39c2.57 0 4.69.5 6.33 1.5a10.8 10.8 0 0 1 4 4.1c1.02 1.76 1.81 3.83 2.37 6.19.58 2.34 1.07 4.87 1.46 7.58v.87a51.9 51.9 0 0 1-1.63 7.24c-.67 2.25-1.55 4.24-2.64 5.98a12.4 12.4 0 0 1-4.11 4.11c-1.62.97-3.57 1.46-5.84 1.46a14.1 14.1 0 0 1-6.4-1.43 14.3 14.3 0 0 1-4.84-4c-1.32-1.72-2.34-3.73-3.06-6.05a26.3 26.3 0 0 1-1.04-7.59zm11.72-.73v.73a19 19 0 0 0 .38 3.93c.28 1.21.7 2.27 1.25 3.2.56.91 1.24 1.61 2.05 2.12a5.5 5.5 0 0 0 2.92.77 7.1 7.1 0 0 0 4.11-1.08 6 6 0 0 0 2.26-3.06 12.6 12.6 0 0 0 .59-4.66v-2.75c.05-1.53-.06-2.88-.31-4.04a8 8 0 0 0-1.22-2.96 4.9 4.9 0 0 0-2.16-1.77c-.88-.42-1.95-.63-3.2-.63a5.4 5.4 0 0 0-2.89.77 6.2 6.2 0 0 0-2.09 2.16c-.56.9-.99 1.98-1.29 3.24a18.3 18.3 0 0 0-.42 4.04zm48.92 19.79c-3.06 0-5.8-.47-8.21-1.43-2.41-.97-4.45-2.31-6.12-4-1.65-1.69-2.91-3.64-3.79-5.85-.86-2.2-1.29-4.53-1.29-6.99v-1.32c0-2.76.38-5.31 1.15-7.65.77-2.37 1.9-4.43 3.41-6.19a15.2 15.2 0 0 1 5.67-4.1 19.6 19.6 0 0 1 7.93-1.5c2.67 0 5.06.43 7.17 1.29s3.9 2.09 5.36 3.69c1.49 1.6 2.61 3.54 3.38 5.81.79 2.27 1.18 4.82 1.18 7.65v4.77h-30.75v-7.34h19.31v-.9c.02-1.25-.2-2.32-.66-3.2-.44-.88-1.09-1.55-1.95-2.02a6.5 6.5 0 0 0-3.13-.7 5.6 5.6 0 0 0-3.17.83c-.81.56-1.45 1.32-1.91 2.3a12 12 0 0 0-.94 3.31 27 27 0 0 0-.28 3.97v1.32c0 1.39.19 2.65.56 3.79a8.6 8.6 0 0 0 1.67 2.92c.74.79 1.62 1.4 2.64 1.84 1.04.44 2.23.66 3.55.66a13 13 0 0 0 4.73-.91c1.55-.6 2.89-1.6 4-2.99l5.32 6.33a13.8 13.8 0 0 1-3.27 3.17c-1.39 1.02-3.06 1.86-5.01 2.5-1.95.63-4.13.94-6.54.94zm40.43-38.34v8.14h-22.68v-8.14h22.68zm-17.92-9.36h11.72v34.72c0 1 .12 1.77.35 2.33.23.53.63.92 1.18 1.15.58.21 1.35.31 2.3.31a33 33 0 0 0 1.67-.04c.44-.05.86-.1 1.25-.17v8.38a19.2 19.2 0 0 1-3.13.73 20.7 20.7 0 0 1-3.48.28c-2.5 0-4.65-.39-6.44-1.18a8.4 8.4 0 0 1-4.04-3.72c-.93-1.69-1.39-3.9-1.39-6.61v-36.18zm53.85-3.65v50.65h-12.18v-50.65h12.18zm19.55 21.05v29.61h-11.72v-37.64h10.99l.73 8.04zm-1.39 9.5l-2.75.07a26 26 0 0 1 1.04-7.69c.7-2.27 1.68-4.2 2.96-5.77a12.6 12.6 0 0 1 4.56-3.58c1.79-.83 3.77-1.25 5.95-1.25 1.74 0 3.33.25 4.77.76a9.1 9.1 0 0 1 3.76 2.47 11.1 11.1 0 0 1 2.44 4.52c.58 1.86.87 4.15.87 6.89v23.69h-11.79v-23.73c0-1.51-.21-2.66-.63-3.44-.42-.81-1.02-1.37-1.81-1.67a8.1 8.1 0 0 0-2.89-.45c-1.21 0-2.23.23-3.06.7a5.4 5.4 0 0 0-2.02 1.95c-.49.81-.85 1.77-1.08 2.89-.21 1.11-.31 2.33-.31 3.65zm49.92-17.53v8.14h-22.68v-8.14h22.68zm-17.92-9.36h11.72v34.72c0 1 .12 1.77.35 2.33.23.53.63.92 1.18 1.15.58.21 1.35.31 2.3.31.67 0 1.23-.01 1.67-.04a17.7 17.7 0 0 0 1.25-.17v8.38a19.2 19.2 0 0 1-3.13.73 20.7 20.7 0 0 1-3.48.28c-2.5 0-4.65-.39-6.44-1.18a8.4 8.4 0 0 1-4.04-3.72c-.93-1.69-1.39-3.9-1.39-6.61v-36.18zm40.81 47.7c-3.06 0-5.8-.47-8.21-1.43-2.41-.97-4.45-2.31-6.12-4-1.65-1.69-2.91-3.64-3.79-5.85a19.1 19.1 0 0 1-1.29-6.99v-1.32a24.5 24.5 0 0 1 1.15-7.65c.77-2.37 1.9-4.43 3.41-6.19a15.2 15.2 0 0 1 5.67-4.1 19.6 19.6 0 0 1 7.93-1.5 18.9 18.9 0 0 1 7.17 1.29 14.6 14.6 0 0 1 5.36 3.69c1.49 1.6 2.61 3.54 3.38 5.81.79 2.27 1.18 4.82 1.18 7.65v4.77h-30.76v-7.34h19.31v-.9c.02-1.25-.2-2.32-.66-3.2-.44-.88-1.09-1.55-1.95-2.02a6.5 6.5 0 0 0-3.13-.7 5.6 5.6 0 0 0-3.17.83c-.81.56-1.45 1.32-1.91 2.3a12 12 0 0 0-.94 3.31 27 27 0 0 0-.28 3.97v1.32c0 1.39.19 2.65.56 3.79a8.6 8.6 0 0 0 1.67 2.92c.74.79 1.62 1.4 2.64 1.84 1.04.44 2.23.66 3.55.66a13 13 0 0 0 4.73-.91c1.55-.6 2.89-1.6 4-2.99l5.32 6.33a13.8 13.8 0 0 1-3.27 3.17c-1.39 1.02-3.06 1.86-5.01 2.5-1.95.63-4.13.94-6.54.94zm32.43-29.01v28.32h-11.73v-37.64h10.96l.77 9.32zm11.13-9.6l-.21 10.89-1.88-.17a23.1 23.1 0 0 0-1.98-.11c-1.37 0-2.55.16-3.55.49a6 6 0 0 0-2.44 1.39c-.63.6-1.09 1.37-1.39 2.3a10.6 10.6 0 0 0-.38 3.24l-2.12-1.39c0-2.53.24-4.82.73-6.89a18.7 18.7 0 0 1 2.16-5.39c.93-1.53 2.05-2.7 3.38-3.51 1.32-.83 2.81-1.25 4.45-1.25.58 0 1.15.04 1.71.1a8.5 8.5 0 0 1 1.53.31zm18.23 29.88l7.41-29.61h12.35l-12.32 37.64h-7.31l-.14-8.04zm-4.38-29.61l7.31 29.61-.07 8.04h-7.34l-12.28-37.64h12.38zm40.01 0v37.64h-11.76v-37.64h11.76zm-12.45-9.71c0-1.67.6-3.04 1.81-4.11s2.77-1.6 4.7-1.6 3.49.53 4.7 1.6 1.81 2.44 1.81 4.11-.6 3.04-1.81 4.1-2.77 1.6-4.7 1.6-3.49-.53-4.7-1.6-1.81-2.44-1.81-4.1zm37.92 48.04c-3.06 0-5.8-.47-8.21-1.43-2.41-.97-4.45-2.31-6.12-4-1.65-1.69-2.91-3.64-3.79-5.85a19.1 19.1 0 0 1-1.29-6.99v-1.32c0-2.76.38-5.31 1.15-7.65.76-2.37 1.9-4.43 3.41-6.19a15.2 15.2 0 0 1 5.67-4.1 19.6 19.6 0 0 1 7.93-1.5 18.9 18.9 0 0 1 7.17 1.29 14.6 14.6 0 0 1 5.36 3.69c1.48 1.6 2.61 3.54 3.37 5.81.79 2.27 1.18 4.82 1.18 7.65v4.77h-30.75v-7.34h19.31v-.9c.02-1.25-.2-2.32-.66-3.2-.44-.88-1.09-1.55-1.95-2.02a6.5 6.5 0 0 0-3.13-.7 5.6 5.6 0 0 0-3.17.83c-.81.56-1.45 1.32-1.91 2.3-.44.95-.75 2.05-.94 3.31s-.28 2.57-.28 3.97v1.32c0 1.39.19 2.65.56 3.79a8.6 8.6 0 0 0 1.67 2.92 7.9 7.9 0 0 0 2.64 1.84c1.04.44 2.23.66 3.55.66a13 13 0 0 0 4.73-.91c1.55-.6 2.89-1.6 4-2.99l5.32 6.33c-.76 1.09-1.86 2.15-3.27 3.17-1.39 1.02-3.06 1.86-5.01 2.5a21.3 21.3 0 0 1-6.54.94zm32.04-11.9l6.96-26.44h7.34l-2.61 13.25-6.89 24.39h-5.88l1.08-11.2zm-2.75-26.44l4.31 26.23.49 11.41h-7.13l-8.91-37.64h11.24zm23.24 25.68l4.35-25.68h11.24l-8.84 37.64h-7.13l.38-11.97zm-5.36-25.68l7.03 26.37 1.08 11.27h-5.95l-6.75-24.32-2.51-13.32h7.1zM144.76 396.5l-11 63.32h-14.87l10.96-63.32h14.92zm19.31 26.35l-2.04 11.74h-28.18l2.04-11.74h28.18zm6.96-26.35l-2.04 11.78h-30.62l2.09-11.78h30.57zm16.74 64.19a23.6 23.6 0 0 1-8.87-1.78 19.7 19.7 0 0 1-6.78-4.78c-1.85-2.03-3.23-4.41-4.13-7.13a24 24 0 0 1-.96-9l.17-1.7c.35-3.42 1.16-6.61 2.43-9.57a25.8 25.8 0 0 1 5.13-7.83c2.15-2.26 4.67-4.02 7.57-5.26 2.93-1.25 6.2-1.83 9.83-1.74 3.28.06 6.1.71 8.48 1.96a16.1 16.1 0 0 1 5.87 5.09 19.3 19.3 0 0 1 3.13 7.31c.61 2.72.75 5.63.44 8.7l-.83 5.96h-37.4l1.48-9.17 23.05.04.26-1.26c.2-1.36.15-2.6-.17-3.7a4.8 4.8 0 0 0-1.78-2.61c-.87-.67-2.04-1.03-3.52-1.09-1.8-.03-3.29.36-4.48 1.17-1.16.81-2.1 1.88-2.83 3.22-.7 1.33-1.23 2.78-1.61 4.35-.38 1.54-.65 3.01-.83 4.44l-.17 1.65c-.12 1.42-.07 2.8.13 4.13a10.4 10.4 0 0 0 1.22 3.61 7.6 7.6 0 0 0 2.56 2.61 8.4 8.4 0 0 0 4.05 1.04c2.17.06 4.2-.35 6.09-1.22s3.58-2.06 5.09-3.57l5.96 7.92a15.3 15.3 0 0 1-5.04 4.78c-2.06 1.19-4.28 2.06-6.65 2.61-2.35.58-4.64.86-6.87.83zm47.14 0a23.6 23.6 0 0 1-8.87-1.78 19.7 19.7 0 0 1-6.78-4.78c-1.86-2.03-3.23-4.41-4.13-7.13a24 24 0 0 1-.96-9l.17-1.7a32.2 32.2 0 0 1 2.44-9.57 25.8 25.8 0 0 1 5.13-7.83c2.15-2.26 4.67-4.02 7.57-5.26 2.93-1.25 6.2-1.83 9.83-1.74 3.28.06 6.1.71 8.48 1.96a16.1 16.1 0 0 1 5.87 5.09c1.51 2.12 2.55 4.55 3.13 7.31.61 2.72.75 5.63.44 8.7l-.83 5.96h-37.4l1.48-9.17 23.05.04.26-1.26c.2-1.36.14-2.6-.17-3.7a4.8 4.8 0 0 0-1.78-2.61c-.87-.67-2.04-1.03-3.52-1.09-1.8-.03-3.29.36-4.48 1.17-1.16.81-2.1 1.88-2.83 3.22-.7 1.33-1.23 2.78-1.61 4.35-.38 1.54-.65 3.01-.83 4.44l-.17 1.65c-.12 1.42-.07 2.8.13 4.13a10.4 10.4 0 0 0 1.22 3.61 7.6 7.6 0 0 0 2.57 2.61 8.4 8.4 0 0 0 4.04 1.04c2.18.06 4.2-.35 6.09-1.22s3.58-2.06 5.09-3.57l5.96 7.92a15.3 15.3 0 0 1-5.04 4.78c-2.06 1.19-4.28 2.06-6.65 2.61a27.1 27.1 0 0 1-6.87.83zm52.1-12.48l9.57-55.18h14.39l-11.57 66.8h-12.83l.44-11.61zm-26-11l.09-.96c.35-2.87 1-5.77 1.96-8.7a31.1 31.1 0 0 1 3.91-8c1.68-2.41 3.75-4.32 6.22-5.74 2.49-1.42 5.45-2.07 8.87-1.96 2.9.12 5.28.99 7.13 2.61s3.29 3.68 4.31 6.18a31.8 31.8 0 0 1 2.09 7.78 46.6 46.6 0 0 1 .48 7.52l-.13 1.17a42.6 42.6 0 0 1-2.26 7.87c-1.04 2.75-2.42 5.35-4.13 7.78-1.68 2.41-3.68 4.36-6 5.87-2.32 1.48-4.94 2.18-7.87 2.09-3.19-.09-5.8-.86-7.83-2.31a14.4 14.4 0 0 1-4.7-5.65c-1.07-2.32-1.77-4.84-2.09-7.57a38.9 38.9 0 0 1-.04-8zm14.44-1l-.09.91c-.09 1.04-.16 2.25-.22 3.61s.01 2.7.22 4c.23 1.31.71 2.41 1.44 3.31.75.87 1.87 1.35 3.35 1.44 2.15.09 3.9-.42 5.26-1.52a10.5 10.5 0 0 0 3.17-4.22c.75-1.74 1.23-3.52 1.44-5.35l.39-3.48a31.3 31.3 0 0 0 .22-3.78 13.4 13.4 0 0 0-.44-3.78 6.1 6.1 0 0 0-1.74-2.96c-.84-.78-2.06-1.19-3.65-1.22-1.68-.06-3.1.33-4.26 1.18a9.3 9.3 0 0 0-2.74 3.31 20.5 20.5 0 0 0-1.57 4.31c-.35 1.51-.61 2.93-.78 4.26zm43.66-43.18h14.31l-9.74 56.01-3.26 10.78h-12.92l11.61-66.8zm34.79 42.49l-.09.96a47.7 47.7 0 0 1-1.91 8.78c-.93 2.9-2.22 5.54-3.87 7.91a18.2 18.2 0 0 1-6.17 5.61c-2.46 1.39-5.41 2.04-8.83 1.96-2.96-.09-5.38-.91-7.26-2.48s-3.33-3.55-4.35-5.96a31.1 31.1 0 0 1-2.09-7.7c-.35-2.72-.49-5.28-.43-7.65l.09-1.13c.46-2.52 1.2-5.19 2.22-8a36.7 36.7 0 0 1 4.05-7.87 20.8 20.8 0 0 1 5.96-5.96 13.6 13.6 0 0 1 8-2.13c3.28.06 5.94.81 8 2.26 2.06 1.42 3.62 3.29 4.7 5.61a23.2 23.2 0 0 1 2 7.61c.29 2.75.29 5.48 0 8.18zm-14.35.91l.04-.96a56.7 56.7 0 0 0 .26-3.7 18.2 18.2 0 0 0-.17-4c-.2-1.3-.68-2.39-1.44-3.26s-1.91-1.33-3.48-1.39c-1.71-.09-3.16.19-4.35.83s-2.16 1.51-2.91 2.61a13 13 0 0 0-1.74 3.74c-.41 1.39-.7 2.81-.87 4.26l-.39 3.48a37.8 37.8 0 0 0-.17 5.13c.09 1.74.56 3.2 1.44 4.39s2.41 1.81 4.61 1.87c1.8.06 3.26-.32 4.39-1.13s2.01-1.87 2.65-3.17a17.4 17.4 0 0 0 1.39-4.31 55.5 55.5 0 0 0 .74-4.39zm42.31 11.57l3.04-19.57a11.5 11.5 0 0 0-.04-3c-.12-.96-.48-1.74-1.09-2.35-.58-.64-1.49-.97-2.74-1-1.13-.03-2.09.17-2.87.61a4.9 4.9 0 0 0-1.87 1.83 8.5 8.5 0 0 0-1 2.7l-14.35.09c.12-2.72.84-5.07 2.17-7.05s3.04-3.58 5.13-4.83a23.9 23.9 0 0 1 6.83-2.74c2.49-.58 4.94-.84 7.35-.78 3.31.06 6.29.75 8.96 2.09a14.1 14.1 0 0 1 6.22 5.7c1.48 2.46 2.04 5.46 1.7 9l-3.09 19.31c-.26 1.74-.49 3.6-.69 5.57-.2 1.94.09 3.75.87 5.44l-.04.83-13.96.04a18.2 18.2 0 0 1-.96-5.87 41.2 41.2 0 0 1 .44-6zm4.65-16.92l-1.31 7.83-5.61-.04c-1.1.03-2.16.22-3.17.56a8.6 8.6 0 0 0-2.65 1.39c-.78.61-1.44 1.36-1.96 2.26-.49.9-.81 1.93-.96 3.09a4.3 4.3 0 0 0 .17 2.13c.26.61.65 1.1 1.17 1.48.55.38 1.23.58 2.04.61a8.6 8.6 0 0 0 3.61-.7c1.16-.49 2.16-1.19 3-2.09.87-.9 1.46-1.94 1.78-3.13l2.52 6.13c-.75 1.51-1.62 2.88-2.61 4.13-.96 1.25-2.04 2.33-3.26 3.26a13.8 13.8 0 0 1-4 2.09 14.7 14.7 0 0 1-4.91.7c-2.58-.06-4.96-.68-7.13-1.87a13.7 13.7 0 0 1-5.18-4.87c-1.28-2.06-1.87-4.44-1.78-7.13.12-3.13.88-5.73 2.31-7.78a14.8 14.8 0 0 1 5.52-4.83 26.5 26.5 0 0 1 7.44-2.52 44.4 44.4 0 0 1 8-.74l6.96.04zm36.66 18.35a7.1 7.1 0 0 0 3.52-.74 6.3 6.3 0 0 0 2.35-2.26 8.6 8.6 0 0 0 1.17-3.39l13.44-.04c-.17 3.71-1.26 6.9-3.26 9.57-1.97 2.67-4.51 4.71-7.61 6.13a22.4 22.4 0 0 1-10 2c-3.42-.06-6.36-.73-8.83-2a16.9 16.9 0 0 1-6-5.22c-1.54-2.2-2.62-4.73-3.26-7.57-.61-2.84-.77-5.84-.48-9l.13-1.04a33.3 33.3 0 0 1 2.35-9.35 26.2 26.2 0 0 1 4.96-7.7c2.06-2.23 4.49-3.96 7.31-5.17 2.84-1.25 6.03-1.83 9.57-1.74 3.77.06 6.97.9 9.61 2.52a15.6 15.6 0 0 1 6.05 6.65c1.36 2.81 2 6.06 1.91 9.74l-13.44-.04c.06-1.25-.06-2.44-.35-3.57-.26-1.16-.78-2.1-1.56-2.83-.78-.75-1.91-1.16-3.39-1.22-1.71-.06-3.1.32-4.18 1.13a8.6 8.6 0 0 0-2.57 3.22c-.61 1.31-1.06 2.71-1.35 4.22-.29 1.48-.51 2.87-.65 4.17l-.04 1a128.9 128.9 0 0 0-.35 3.7c-.09 1.39-.04 2.75.13 4.09.2 1.33.67 2.45 1.39 3.35.73.87 1.87 1.33 3.44 1.39zm49.75-56.45l-11.61 66.84H447l11.61-66.84h14.31zm26.27 19.79L475 436.94l-12.13 10.57-5-10.05 10.39-11.26 12.79-13.44h18.13zm-23.61 47.05l-8.65-21.96 11.26-7.31 13.13 29.27h-15.74zm45.05-20.05l-12 .09c.14-2.23.46-4.33.96-6.31a20.7 20.7 0 0 1 2.35-5.52c1.07-1.71 2.51-3.28 4.31-4.7a71.6 71.6 0 0 0 3.52-2.83 20.1 20.1 0 0 0 3.13-3.35c.9-1.22 1.46-2.6 1.7-4.13a9.5 9.5 0 0 0 .04-3c-.15-.96-.52-1.73-1.13-2.31-.61-.61-1.54-.93-2.78-.96-1.36-.03-2.51.32-3.43 1.04a7.6 7.6 0 0 0-2.13 2.78 15.9 15.9 0 0 0-1.09 3.39l-14.35.09c.32-4.06 1.46-7.47 3.44-10.22 2-2.78 4.6-4.87 7.79-6.26a25.8 25.8 0 0 1 10.74-2c3.45.09 6.57.77 9.35 2.04 2.78 1.25 4.94 3.12 6.48 5.61 1.54 2.46 2.17 5.55 1.91 9.26a14.2 14.2 0 0 1-2.22 6.96c-1.28 2-2.84 3.81-4.7 5.44a169.5 169.5 0 0 1-5.65 4.65 17.2 17.2 0 0 0-4.17 4.48c-.99 1.6-1.67 3.51-2.04 5.74zm-16.52 13.52c-.06-2.26.7-4.1 2.26-5.52a8.4 8.4 0 0 1 5.65-2.17 8.3 8.3 0 0 1 5.48 1.96c1.57 1.31 2.36 3.03 2.39 5.18a6.8 6.8 0 0 1-2.31 5.52c-1.56 1.42-3.43 2.13-5.61 2.13a8.1 8.1 0 0 1-5.48-1.91 6.7 6.7 0 0 1-2.39-5.18z" fill="#5b5b5b"/><g filter="url(#I)"><path d="M323 71.25a11.9 11.9 0 0 0-11.87-11.87H0v89.06h311.12A11.9 11.9 0 0 0 323 136.56V71.25z" fill="#3886e7"/><path d="M44.04 90.8v25.33h-6.09V90.8h6.09zm9.78 10.52v14.8h-5.86V97.3h5.5l.37 4.02zm-.7 4.75l-1.37.03a13 13 0 0 1 .52-3.84 8.5 8.5 0 0 1 1.48-2.89 6.3 6.3 0 0 1 2.28-1.79c.89-.42 1.88-.63 2.97-.63a7.1 7.1 0 0 1 2.38.38c.73.26 1.36.67 1.88 1.24.53.57.94 1.32 1.22 2.26a11.7 11.7 0 0 1 .43 3.44v11.85h-5.9v-11.86c0-.75-.1-1.33-.31-1.72-.21-.41-.51-.68-.9-.83s-.88-.23-1.44-.23a3.1 3.1 0 0 0-1.53.35 2.7 2.7 0 0 0-1.01.97c-.24.41-.42.89-.54 1.44-.1.56-.16 1.17-.16 1.83zm24.96-8.77v4.07H66.74V97.3h11.34zm-8.96-4.68h5.86v17.36c0 .5.06.89.17 1.17.12.27.31.46.59.57.29.1.67.16 1.15.16l.83-.02.63-.09v4.19c-.5.16-1.02.28-1.57.37-.55.09-1.12.14-1.74.14-1.25 0-2.33-.2-3.22-.59a4.2 4.2 0 0 1-2.02-1.86c-.46-.85-.7-1.95-.7-3.3V92.62zm17.2 9.34v14.16h-5.86V97.3h5.48l.38 4.66zm5.57-4.8l-.1 5.44-.94-.09-.99-.05c-.68 0-1.28.08-1.77.24a3 3 0 0 0-1.22.7c-.31.3-.55.68-.7 1.15a5.3 5.3 0 0 0-.19 1.62l-1.06-.7a15 15 0 0 1 .37-3.44c.26-1.04.61-1.94 1.08-2.7.46-.77 1.03-1.35 1.69-1.76a4.1 4.1 0 0 1 2.23-.63c.29 0 .57.02.85.05.29.03.55.09.77.16zm.66 9.74v-.37c0-1.38.2-2.65.59-3.81.39-1.17.97-2.19 1.74-3.04a7.8 7.8 0 0 1 2.84-2c1.12-.49 2.42-.73 3.9-.73 1.48 0 2.79.24 3.91.73a7.8 7.8 0 0 1 2.85 2c.77.86 1.35 1.87 1.74 3.04.39 1.16.59 2.43.59 3.81v.37c0 1.37-.2 2.64-.59 3.81-.39 1.16-.97 2.17-1.74 3.04a7.8 7.8 0 0 1-2.84 2c-1.12.47-2.42.71-3.9.71s-2.78-.24-3.91-.71a7.8 7.8 0 0 1-2.85-2c-.77-.87-1.35-1.88-1.74-3.04-.39-1.17-.59-2.44-.59-3.81zm5.86-.37v.37c0 .71.05 1.37.16 1.98a5.4 5.4 0 0 0 .52 1.62c.24.45.57.81.99 1.06s.94.38 1.57.38c.61 0 1.13-.13 1.53-.38.42-.26.75-.61.99-1.06.24-.46.42-1 .52-1.62a11.9 11.9 0 0 0 .16-1.98v-.37c0-.68-.05-1.33-.16-1.93-.1-.61-.28-1.15-.52-1.62a2.8 2.8 0 0 0-.99-1.11c-.42-.27-.94-.4-1.56-.4-.61 0-1.13.13-1.55.4-.41.27-.73.64-.97 1.11a5.4 5.4 0 0 0-.52 1.62c-.1.6-.16 1.25-.16 1.93zm25.73 5.27v-22.4h5.9v26.72h-5.29l-.61-4.31zm-11.55-4.87v-.36a15.1 15.1 0 0 1 .47-3.9 9.1 9.1 0 0 1 1.39-3.04 6.3 6.3 0 0 1 2.3-1.98 6.9 6.9 0 0 1 3.17-.7 5.2 5.2 0 0 1 2.8.75 6.4 6.4 0 0 1 2.05 2.05c.57.88 1.03 1.91 1.39 3.1a24 24 0 0 1 .82 3.79v.44c-.19 1.28-.46 2.48-.82 3.62-.36 1.13-.82 2.12-1.39 2.99a6.6 6.6 0 0 1-2.07 2.05 5.3 5.3 0 0 1-2.82.73c-1.19 0-2.25-.24-3.16-.71a6.5 6.5 0 0 1-2.28-2c-.6-.86-1.06-1.87-1.37-3.03s-.47-2.42-.47-3.79zm5.86-.36v.36c0 .71.05 1.36.14 1.97s.25 1.14.47 1.6c.23.45.53.81.9 1.06.38.25.85.38 1.41.38.75 0 1.38-.18 1.86-.54.5-.36.86-.87 1.1-1.53.24-.66.35-1.44.31-2.33v-1.37a8.3 8.3 0 0 0-.16-2.02c-.13-.59-.33-1.08-.61-1.48a2.5 2.5 0 0 0-1.03-.89c-.41-.21-.89-.31-1.44-.31-.55 0-1.01.13-1.39.38-.37.25-.67.61-.91 1.08a5.5 5.5 0 0 0-.5 1.62c-.11.61-.16 1.29-.16 2.02zm25.9 4.97V97.3h5.88v18.82h-5.5l-.38-4.58zm.56-3.83l1.53-.03a13 13 0 0 1-.45 3.51 8.4 8.4 0 0 1-1.34 2.78 6.1 6.1 0 0 1-2.16 1.84 6.4 6.4 0 0 1-2.94.64c-.93 0-1.78-.13-2.56-.38-.76-.27-1.43-.68-1.98-1.23-.56-.57-.99-1.29-1.3-2.17-.3-.89-.45-1.96-.45-3.2V97.3h5.86v12.21a3.3 3.3 0 0 0 .16 1.08 2.1 2.1 0 0 0 .45.77c.2.2.44.35.73.45.3.09.64.14 1.03.14a3.4 3.4 0 0 0 2.07-.56 2.9 2.9 0 0 0 1.04-1.51 6.9 6.9 0 0 0 .31-2.16zm16.51 4.23a3 3 0 0 0 1.39-.3c.39-.21.69-.5.89-.87a2.7 2.7 0 0 0 .29-1.37h5.51c.01 1.41-.34 2.66-1.04 3.72-.7 1.06-1.65 1.88-2.85 2.47-1.19.58-2.54.87-4.05.87a9.7 9.7 0 0 1-3.86-.71c-1.1-.49-2.02-1.16-2.77-2.02a8.9 8.9 0 0 1-1.65-3.04c-.36-1.16-.54-2.42-.54-3.77v-.4c0-1.36.18-2.61.54-3.77a8.7 8.7 0 0 1 1.65-3.04 7.5 7.5 0 0 1 2.75-2.02c1.1-.49 2.38-.73 3.84-.73a9.2 9.2 0 0 1 4.14.89 6.7 6.7 0 0 1 2.84 2.57 7.6 7.6 0 0 1 1.01 4.09H164c.01-.57-.07-1.08-.26-1.53s-.47-.81-.87-1.08c-.38-.28-.88-.42-1.48-.42s-1.09.13-1.46.4-.66.64-.85 1.11c-.19.46-.31 1-.38 1.6l-.09 1.93v.4l.09 1.97c.07.6.2 1.14.4 1.6.2.45.48.81.85 1.08.37.25.86.38 1.48.38zm20.51-14.65v4.07h-11.34V97.3h11.34zm-8.96-4.68h5.86v17.36c0 .5.06.89.17 1.17.12.27.31.46.59.57.29.1.67.16 1.15.16l.83-.02.63-.09v4.19c-.5.16-1.02.28-1.57.37-.54.09-1.12.14-1.74.14-1.25 0-2.32-.2-3.22-.59a4.2 4.2 0 0 1-2.02-1.86c-.46-.85-.7-1.95-.7-3.3V92.62zm17.48 4.68v18.82h-5.88V97.3h5.88zm-6.23-4.85c0-.84.3-1.52.9-2.05s1.39-.8 2.35-.8 1.75.27 2.35.8.9 1.22.9 2.05-.3 1.52-.9 2.05-1.39.8-2.35.8-1.75-.27-2.35-.8-.9-1.22-.9-2.05zm9.12 14.46v-.37c0-1.38.2-2.65.59-3.81.39-1.17.97-2.19 1.74-3.04a7.8 7.8 0 0 1 2.84-2c1.13-.49 2.42-.73 3.9-.73 1.49 0 2.79.24 3.91.73 1.14.48 2.09 1.14 2.85 2a8.7 8.7 0 0 1 1.74 3.04c.39 1.16.59 2.43.59 3.81v.37c0 1.37-.2 2.64-.59 3.81a8.9 8.9 0 0 1-1.74 3.04 7.8 7.8 0 0 1-2.84 2c-1.12.47-2.42.71-3.9.71s-2.78-.24-3.91-.71a7.8 7.8 0 0 1-2.85-2c-.77-.87-1.35-1.88-1.74-3.04-.39-1.17-.59-2.44-.59-3.81zm5.86-.37v.37a11.9 11.9 0 0 0 .16 1.98c.1.61.28 1.15.52 1.62.24.45.57.81.99 1.06s.94.38 1.57.38c.61 0 1.13-.13 1.53-.38.42-.26.75-.61.99-1.06a5.4 5.4 0 0 0 .52-1.62 11.8 11.8 0 0 0 .16-1.98v-.37c0-.68-.05-1.33-.16-1.93a5.4 5.4 0 0 0-.52-1.62c-.24-.48-.58-.85-.99-1.11s-.94-.4-1.57-.4c-.61 0-1.13.13-1.55.4-.41.27-.73.64-.97 1.11-.24.46-.42 1-.52 1.62-.1.6-.16 1.25-.16 1.93zm20.66-5.22v14.8h-5.86V97.3h5.5l.36 4.02zm-.7 4.75l-1.37.03a13 13 0 0 1 .52-3.84 8.5 8.5 0 0 1 1.48-2.89 6.3 6.3 0 0 1 2.28-1.79c.89-.42 1.89-.63 2.97-.63a7.1 7.1 0 0 1 2.38.38c.73.26 1.36.67 1.88 1.24.53.57.94 1.32 1.22 2.26a11.7 11.7 0 0 1 .44 3.44v11.85h-5.9v-11.86c0-.75-.1-1.33-.31-1.72-.21-.41-.51-.68-.9-.83s-.88-.23-1.44-.23a3.1 3.1 0 0 0-1.53.35 2.7 2.7 0 0 0-1.01.97c-.24.41-.42.89-.54 1.44a9.9 9.9 0 0 0-.16 1.83z" class="B"/></g><path d="M919.81 473.82h-10.34c-7.19 0-18.38-20.12-18.38-27.91 0-7.75 11.15-28.3 18.38-28.3h10.34c9.16 0 16.39 2.85 21.51 8.46 4.91 5.4 7.4 12.08 7.4 19.85 0 7.82-2.52 14.46-7.49 19.75-5.11 5.42-12.32 8.17-21.42 8.17zm-27.35-80.5l.16-8.08c.27-13.94 2.17-24.82 5.79-33.27 3.65-8.53 10.64-17.48 21.37-27.37l.17-.15 24.84-21.64c9.05-8.69 13.45-17.53 13.45-27.02 0-9.03-2.59-15.79-7.92-20.66-5.45-4.98-13.92-7.51-25.16-7.51-11.18 0-20.12 2.41-26.57 7.17-5.87 4.33-8.61 9.74-8.61 17.04v7.92h-51.26l.12-8.03c.29-19.95 8.78-36.26 25.23-48.46 15.76-11.7 36.31-17.63 61.09-17.63 25.79 0 46.37 6.1 61.18 18.14 15.29 12.44 23.04 29.61 23.04 51.04 0 21.08-11.29 41.78-33.56 61.54l-.17.15-20.61 17.26c-7.58 7.2-11.27 17.56-11.27 31.65v7.92h-51.3z" class="C"/><path d="M909.47 473.82c-9.13 0-16.32-2.76-21.37-8.22-4.88-5.27-7.35-11.9-7.35-19.7 0-7.75 2.44-14.41 7.26-19.79 5.05-5.65 12.27-8.51 21.46-8.51 9.16 0 16.39 2.85 21.51 8.46 4.91 5.4 7.4 12.08 7.4 19.85 0 7.82-2.52 14.46-7.49 19.74-5.11 5.42-12.32 8.17-21.42 8.17zm-27.35-80.5l.16-8.08c.27-13.94 2.17-24.82 5.79-33.27 3.65-8.53 10.64-17.48 21.37-27.37l.17-.15 24.84-21.64c9.05-8.69 13.45-17.53 13.45-27.02 0-9.03-2.59-15.79-7.92-20.66-5.45-4.98-13.92-7.51-25.16-7.51-11.18 0-20.12 2.41-26.57 7.17-5.87 4.33-8.61 9.74-8.61 17.04v7.92h-51.26l.12-8.03c.29-19.95 8.78-36.26 25.23-48.46 15.76-11.7 36.31-17.63 61.09-17.63 25.79 0 46.37 6.1 61.18 18.14 15.29 12.44 23.04 29.61 23.04 51.04 0 21.08-11.29 41.78-33.56 61.54l-.17.15-20.61 17.26c-7.58 7.2-11.27 17.56-11.27 31.65v7.92h-51.3z" fill="#7fb6fb"/><g fill="#3b4157"><path d="M826.84 374.76c2.17-5.97 19.91-23.5 28.51-31.52l-2.04 34.4 16.63 11.19 16.63 12.54c-3.34 6.44-10.35 18.71-11.71 16.27-1.7-3.05-6.45-4.58-8.15-6.27-1.36-1.36-15.73-9.6-22.74-13.56-2.83-1.75-9.4-6-13.07-8.98-4.58-3.73-6.79-6.61-4.07-14.07z"/><path d="M867.24 338.82c-3.11-.76-8.66-1.81-11.37-1.53 0 1.47-.34 5.73-1.7 11.02s-15.5 72.93-22.4 106.09c4.07 2.98 15.39 3.84 20.54 3.9.51-4.91 9.16-32.37 12.22-49.15s11.54-34.91 13.75-40.67 13.92-18.13 12.39-18.81-17.82-9.47-23.42-10.85z"/></g><path d="M843.47 398.83l12.05-56.77 1.02.51-13.07 56.27z" fill="#363c53"/><path d="M899.15 410.18c-3.12-3.12-8.66-4.01-11.03-4.07.34 1.69-.51 5.93-1.53 7.46-.81 1.22-4.07 3.79-5.6 4.92l.68 8.13c.27 2.44-.79 7.91-1.36 10.34-.28 1.52-.61 4.81.34 5.76s2.88.96 3.73.85l14.77-33.39z" fill="#4b4d4f"/><g class="E F"><path d="M881.32 421.87c.34-.34 1.32-.68 2.55-.68m-2.03 6.79c.28-.39 1.09-.95 2.72-.68m-2.88-2.37c.34-.4 1.22-.95 2.72-.68m-1.72 18.64l14.94-32.2"/><path d="M881.15 433.06c1.07-.62 4.11-1.42 6.28-.34"/></g><path d="M880.64 418.31c-.27-1.36-1.7-2.82-2.38-3.39l6.45-10.68 3.39 1.69c3.22 5.42-7.13 14.07-7.47 12.37z" fill="#fc9b66"/><path d="M847.49 473.6c1.76-4.05.56-9.51-.26-11.74a14.5 14.5 0 0 1-7.51 1.32c-1.43-.31-5.02-2.4-6.63-3.4-1.54.73-5.16 2.47-7.33 3.61s-7.66 2.17-10.13 2.53c-1.52.3-4.71 1.2-5.24 2.43s.16 3.03.58 3.78l36.52 1.47z" fill="#4b4d4f"/><g class="E F"><path d="M830.06 461.34c.44.19 1.12.98 1.57 2.12m-7.06.59c.47.12 1.28.66 1.63 2.27m1.15-3.55c.49.17 1.33.79 1.63 2.27m-18 5.27l35.48 2.06"/><path d="M819.59 465.28c.97.77 2.83 3.29 2.62 5.71"/></g><path d="M833.12 459.4c1.16-.75 2.01-2.61 2.29-3.45l12.31 2.07-.33 3.77c-3.87 4.99-15.72-1.46-14.26-2.4z" fill="#fc9b66"/><path d="M881.49 262.23c1.49-1.36 6.36-3.9 8.85-4.75-3.12-2.85-5.83-9.21-6.79-12.03l2.38-3.9-2.04-4.58-5.6-1.02-3.57-2.03-3.39-5.93h-9l-4.24 3.56c-.11 1.3-.51 1.53.17 5.08s1.02 5.93.68 7.8c-.21 1.12-3.39 2.88-3.05 5.25 1.02.85 3.9.68 3.9.68.68 3.8 3.03 7.97 5.26 8.3 2.86 0 6.28-.51 8.32.85s2.43 5.2 2.38 6.95c1.13-1.02 4.25-2.88 5.75-4.24z" fill="#fe9b62"/><path d="M863.3 229.42c-2.99-.27-5.09 1.47-5.77 2.37-.9-.28-3.09-1.46-4.58-3.9-1.87-3.05-1.19-5.42 0-6.95s11.03-.68 13.24-.68 9.16-4.75 17.65 0c7.98 6.1 6.62 11.02 6.62 13.9 0 2.31-3.96 10.9-5.94 14.91l-1.53-3.39c.06-.06.3-.34.85-1.02.68-.85.85-3.22.34-5.08a4.1 4.1 0 0 0-4.24-2.71c-1.09.27-2.6 2.37-3.23 3.39a16.5 16.5 0 0 1-3.9-6.1c-1.19-3.56-3.56-4.58-3.9-4.75s-3.06-.51-5.6 0z" fill="#342542"/><path d="M873.01 257.48c1.36-.62 4.34-2.51 5.43-5.08" stroke="#df7a42" class="F"/><path d="M881.83 239.52c-1.36-1.22-1.92.73-2.04 1.86h.51c0 .62.03 1.87.17 1.87.17 0 .51.34 1.36 0 .68-.27.96-.9 1.02-1.19.23-.34.34-1.32-1.02-2.54z" fill="#df7a42"/><path d="M862.14 253.25c.17-.73.88-2.24 2.38-2.37" stroke="#df7a42" class="F"/><path d="M859.75 237.75c-.02.36.26.71.66.71h1.58a9.1 9.1 0 0 1 1.97.36c.66.24.61-.37.39-.59-.26-.28-.92-.51-1.58-.87a3.4 3.4 0 0 0-1.97-.2s-1.03.16-1.05.59z" fill="#2e2a4d"/><circle cx="862.72" cy="241.84" r="1.19" fill="#4d273c"/><path d="M893.45 316.49c3.41-6.05 8.6-20.39 8.6-20.39l-19.18-.85s1.88 3.32-1.92 6.25c-7.34-1.13-46.74-8.9-46.74-8.9l-4.75 7.72s50.44 22.5 63.98 16.16z" fill="#fa9c66"/><path d="M861.47 300.02c0 2.44-3.51 26.1-5.26 37.62a107.1 107.1 0 0 1 6.79.17c1.7.17 11.54 2.88 14.76 6.1 2.58 2.58 11.71 5.37 15.95 6.44 2.21-5.76 1.87-17.96 1.36-26.61-.41-6.92-2.55-20.9-3.56-27.12l10.52.51c.11-8.47-.03-26.54-1.53-31.01s-7.52-7.63-10.35-8.64c-16.8 6.27-24.44 21.35-26.31 26.78s-2.38 12.71-2.38 15.76z" fill="#1b84c1"/><g fill="#fa9c66"><path d="M830.93 300.66l3.7-6.57s-9.36-15.92-9.98-15.67c-1.26.51 3.34 8.74 3.34 8.74s-5.66-8.49-6.06-7.98c-.71.91 4.04 9.71 4.04 9.71s-5.22-8.5-5.68-7.71 5.11 12.89 5.11 12.89l5.52 6.59z"/><path d="M835.91 294.56l-1.52-2.02s-1-3.71-2.44-6.3c-1.44-2.59-2.38-3.79-2.89-3.71s.73 4.28.73 4.28-.25 3.83 1.43 6.01"/></g><path d="M828.13 295.02l3.58-4.7c.16-.19.17-.48.04-.7l-7.57-12.9-.37.16c-.08.04-.18.08-.25.16l-3.97 4.85c-.16.19-.17.48-.04.69l7.49 12.45c.1.17.28.25.44.23l.64-.25z" fill="#060c16"/><path d="M828.24 294.91l3.93-4.79c.16-.19.17-.48.04-.7l-7.53-12.52c-.15-.25-.48-.28-.65-.06l-3.97 4.85c-.16.19-.17.48-.04.69l7.49 12.45c.17.28.53.32.73.08z" fill="#0a172b"/><g class="G"><path d="M831.72 288.6l-4.59 5.6-6.63-11.03 4.59-5.6 6.63 11.03zm-1.93 3.27c.07.16.22.22.34.13s.15-.3.08-.46-.22-.22-.34-.13-.15.3-.08.46z"/></g><path d="M822.89 279.16l-.8 1" class="H I J K"/><g opacity=".55"><mask id="A" maskUnits="userSpaceOnUse" x="825" y="280" width="2" height="2"><path d="M825.84 280.37l.46-.08.11.63-.45.08-.11-.63z" class="B"/></mask><g mask="url(#A)" class="G"><use href="#N"/></g></g><g opacity=".51"><mask id="B" maskUnits="userSpaceOnUse" x="821" y="279" width="6" height="7"><path d="M821.14 280.78l4.66-.79.76 4.48-4.66.79-.76-4.49z" class="B"/></mask><g mask="url(#B)" class="B"><path d="M821.84 283.35l2.42-2.95c.26-.32.74-.27.95.09l.5.84h.29l-2.96 3.59c-.26.32-.73.27-.95-.09l-.31-.51c-.18-.31-.16-.71.06-.98z"/></g></g><g class="H I J K"><path d="M824.73 280.93l-2.43 2.97m2.81-2.34l-1.4 1.7"/></g><g opacity=".55"><mask id="C" maskUnits="userSpaceOnUse" x="830" y="287" width="1" height="1"><path d="M830.21 287.3l.45-.08.11.63-.46.08-.11-.63z" class="B"/></mask><g mask="url(#C)" class="G"><path d="M830.29 287.74c.07.15.21.21.32.12s.14-.28.07-.44-.21-.21-.32-.12-.14.28-.07.44z"/></g></g><g opacity=".51"><mask id="D" maskUnits="userSpaceOnUse" x="825" y="286" width="6" height="7"><path d="M825.5 287.7l4.66-.79.76 4.48-4.66.79-.76-4.48z" class="B"/></mask><g mask="url(#D)" class="B"><path d="M826.21 290.27l2.42-2.95c.26-.32.74-.27.95.09l.5.84h.29l-2.96 3.59c-.26.32-.73.27-.95-.1l-.31-.51c-.18-.31-.16-.71.06-.98z"/></g></g><g class="H I J K"><path d="M829.1 287.85l-2.44 2.96m2.81-2.33l-1.4 1.71"/></g><g opacity=".55"><mask id="E" maskUnits="userSpaceOnUse" x="824" y="288" width="1" height="1"><path d="M824.19 288.36l.45-.08.11.63-.45.08-.11-.63z" class="B"/></mask><g mask="url(#E)" class="G"><path d="M824.28 288.8c.07.16.21.21.32.12s.14-.28.07-.44-.21-.21-.32-.12-.14.29-.07.44z"/></g></g><g opacity=".51"><mask id="F" maskUnits="userSpaceOnUse" x="823" y="282" width="7" height="7"><path d="M823.76 283.69l4.4-.75.87 5.11-4.4.75-.87-5.11z" class="B"/></mask><g mask="url(#F)" class="B"><path d="M824.42 286.44l2.61-3.19c.22-.26.61-.22.8.08l.48.79c.13.22.11.5-.04.69l-3.22 3.91.02-.47-.68-1.12c-.14-.21-.12-.5.04-.69z"/></g></g><g class="H I J K"><path d="M827.41 283.91l-2.44 2.97m2.82-2.34l-1.4 1.7m-.2.28l-.54.66"/></g><path d="M829.9 300.45c-1.36 0-4.63-2.57-7.37-8.77-.73-1.67-2.76-6.24-2-6.36s3.35 4.14 3.69 4.87c1.67.56 5.59 3.2 6.01 5.86" fill="#ffa16b"/><path d="M902.03 297.14l-14.53-.68-1.53 11.86c-.17 2.03-8.65 25.08-9.67 27.12-.81 1.63-3.28 3.62-4.41 4.41-.54 3.93 2.72 9.77 4.41 12.2 2.04-2.03 4.24-6.78 4.92-8.98.68-2.54 2.38-4.07 3.05-5.08s15.11-26.1 15.61-27.96c.41-1.49 1.64-9.15 2.15-12.88z" fill="#fe9b62"/><path d="M805.36 278.65l-123.85-8.5 30.27-41.54 101.83 50.04h-8.26z" fill="url(#J)"/><rect width="40.95" height="40.95" rx="5.57" transform="matrix(-1 0 0 1 714.211 229.207)" class="M"/><rect width="40.95" height="40.95" rx="5.57" transform="matrix(-1 0 0 1 715.465 226.727)" class="C"/><g class="B"><path d="M685.54 240.48c.03.08.08.16.14.23l6.89 7.9c1.31 1.51 3.58 1.66 5.08.33.12-.1.23-.21.33-.33l7.02-8.04c.01-.02.03-.03.04-.05a2.4 2.4 0 0 1 .35 1.24v10.89a2.4 2.4 0 0 1-2.38 2.41h-15.42a2.4 2.4 0 0 1-2.38-2.41v-10.88c-.01-.46.11-.9.35-1.29zm18.62-.31l-7.24 8.28c-.79.91-2.16 1-3.06.2-.07-.06-.14-.13-.2-.2l-7.11-8.14a1 1 0 0 0-.2-.16c.31-.14.64-.21.99-.21h15.92c.33 0 .65.07.95.19-.02.02-.04.03-.05.04z"/></g><use href="#O" class="N O P"/><use href="#P" class="C"/><path d="M813.62 278.65l28.44-76.48-36.7-6.61v83.09h8.26z" fill="url(#K)"/><rect width="40.95" height="40.95" rx="5.57" transform="matrix(-1 0 0 1 846.316 163.117)" class="M"/><rect width="40.95" height="40.95" rx="5.57" transform="matrix(-1 0 0 1 847.566 160.637)" class="C"/><path d="M809.04 157.14c-3.89 0-7.06 3.25-7.06 7.28s3.17 7.27 7.06 7.27 7.06-3.25 7.06-7.27-3.17-7.28-7.06-7.28z" class="N O P"/><path d="M809.28 167.19c-.46 0-.84.39-.84.86s.38.86.84.86.84-.39.84-.86-.37-.86-.84-.86zm-.63-.86h1.25l.63-6.03h-2.51l.63 6.03z" class="C"/><g class="B"><path d="M814.54 184.64c0-3.57 3.59-6.47 8.03-6.47s8.03 2.9 8.03 6.47-3.59 6.47-8.03 6.47a9.9 9.9 0 0 1-2.1-.25l-4.33 1.87 1.49-3.01c-1.87-1.19-3.09-3.01-3.09-5.08zm10.44-.41c.67 0 1.21-.54 1.21-1.21s-.54-1.22-1.2-1.22c-.67 0-1.21.54-1.21 1.21a1.2 1.2 0 0 0 1.2 1.22zm-4.82 0c.67 0 1.21-.54 1.21-1.21s-.54-1.22-1.2-1.22-1.21.54-1.21 1.21a1.2 1.2 0 0 0 1.2 1.22zm10.43-14.16c5.32 0 9.63 3.62 9.63 8.1 0 2.58-1.45 4.87-3.68 6.34l1.28 2.56-3.46-1.49a11.8 11.8 0 0 1-2.34.59 7 7 0 0 0 .18-1.52c0-4.46-4.32-8.09-9.63-8.09-.48 0-.96.04-1.43.09.83-3.73 4.75-6.57 9.44-6.57zm3.21 6.06c.67 0 1.21-.54 1.21-1.21 0-.68-.54-1.22-1.2-1.22-.67 0-1.21.54-1.21 1.21 0 .68.54 1.22 1.2 1.22zm-6.42 0c.67 0 1.21-.54 1.21-1.21 0-.68-.54-1.22-1.2-1.22s-1.21.54-1.21 1.21a1.2 1.2 0 0 0 1.2 1.22z"/></g><path d="M739.31 226.73l30.27-41.54s4.59-.47 6.42 3.78l37.61 89.7h-8.26l-66.05-51.93z" fill="url(#L)"/><rect width="40.95" height="40.95" rx="5.57" transform="matrix(-1 0 0 1 776.598 187.664)" class="M"/><rect width="40.95" height="40.95" rx="5.57" transform="matrix(-1 0 0 1 777.852 185.18)" class="C"/><g class="B"><path d="M766.19 200.29h-18.62c-.5 0-.91.42-.91.94v9.44c0 .52.4.94.91.94h18.62c.5 0 .91-.42.91-.94v-9.44c0-.52-.4-.94-.91-.94z"/><path d="M767.09 203.01h1.59v5.89h-1.59v-5.89z"/></g><path d="M748.14 200.95h2.23v9.91h-2.23v-9.91z" class="C"/><path d="M739.32 181.68c-3.89 0-7.06 3.25-7.06 7.27s3.17 7.27 7.06 7.27 7.06-3.25 7.06-7.27-3.17-7.27-7.06-7.27z" class="N O P"/><path d="M739.56 191.74c-.46 0-.84.39-.84.86s.37.86.84.86.84-.39.84-.86-.37-.86-.84-.86zm-.63-.86h1.25l.63-6.03h-2.51l.63 6.03z" class="C"/></g><rect x="1" y="1" width="1138" height="638" rx="15" stroke-width="2" class="L"/><defs><filter id="G" x="996.5" y="12.7" width="72.14" height="92.98" filterUnits="userSpaceOnUse" class="Q"><feFlood class="R"/><feBlend in="SourceGraphic" result="B"/><feColorMatrix in="SourceAlpha" values="0 0 0 0 0 0 0 0 0 0 0 0 0 0 0 0 0 0 127 0" result="C"/><feOffset dy="-5.9375"/><feGaussianBlur stdDeviation="5.94"/><feComposite in2="C" operator="arithmetic" k2="-1" k3="1"/><feColorMatrix values="0 0 0 0 0 0 0 0 0 0 0 0 0 0 0 0 0 0 0.25 0"/><feBlend in2="B" result="D"/><feColorMatrix in="SourceAlpha" values="0 0 0 0 0 0 0 0 0 0 0 0 0 0 0 0 0 0 127 0" result="C"/><feOffset dy="5.9375"/><feGaussianBlur stdDeviation="5.94"/><feComposite in2="C" operator="arithmetic" k2="-1" k3="1"/><feColorMatrix values="0 0 0 0 0 0 0 0 0 0 0 0 0 0 0 0 0 0 0.25 0"/><feBlend in2="D"/></filter><filter id="H" x="71.35" y="535.57" width="72.14" height="92.98" filterUnits="userSpaceOnUse" class="Q"><feFlood class="R"/><feBlend in="SourceGraphic" result="B"/><feColorMatrix in="SourceAlpha" values="0 0 0 0 0 0 0 0 0 0 0 0 0 0 0 0 0 0 127 0" result="C"/><feOffset dy="-5.9375"/><feGaussianBlur stdDeviation="5.94"/><feComposite in2="C" operator="arithmetic" k2="-1" k3="1"/><feColorMatrix values="0 0 0 0 0 0 0 0 0 0 0 0 0 0 0 0 0 0 0.25 0"/><feBlend in2="B" result="D"/><feColorMatrix in="SourceAlpha" values="0 0 0 0 0 0 0 0 0 0 0 0 0 0 0 0 0 0 127 0" result="C"/><feOffset dy="5.9375"/><feGaussianBlur stdDeviation="5.94"/><feComposite in2="C" operator="arithmetic" k2="-1" k3="1"/><feColorMatrix values="0 0 0 0 0 0 0 0 0 0 0 0 0 0 0 0 0 0 0.25 0"/><feBlend in2="D"/></filter><filter id="I" x="-4.75" y="56.4" width="332.5" height="98.56" filterUnits="userSpaceOnUse" class="Q"><feFlood result="A" class="R"/><feColorMatrix in="SourceAlpha" values="0 0 0 0 0 0 0 0 0 0 0 0 0 0 0 0 0 0 127 0" result="B"/><feOffset dy="1.78125"/><feGaussianBlur stdDeviation="2.38"/><feComposite in2="B" operator="out"/><feColorMatrix values="0 0 0 0 0 0 0 0 0 0 0 0 0 0 0 0 0 0 0.3 0"/><feBlend in2="A"/><feBlend in="SourceGraphic"/></filter><linearGradient id="J" x1="699.4" y1="247.02" x2="809.97" y2="277.91" gradientUnits="userSpaceOnUse"><stop stop-color="#f9f9f9" stop-opacity=".4"/><stop offset="1" stop-color="#f9f9f9"/></linearGradient><linearGradient id="K" x1="823.71" y1="195.57" x2="809.16" y2="278.52" gradientUnits="userSpaceOnUse"><stop stop-color="#f9f9f9" stop-opacity=".2"/><stop offset="1" stop-color="#f9f9f9"/></linearGradient><linearGradient id="L" x1="759.95" y1="203.59" x2="811.46" y2="277.28" gradientUnits="userSpaceOnUse"><stop stop-color="#f9f9f9" stop-opacity=".4"/><stop offset="1" stop-color="#f9f9f9"/></linearGradient><clipPath id="M"><rect width="1140" height="640" rx="16" class="B"/></clipPath><path id="N" d="M825.92 280.81c.07.15.21.21.32.12s.14-.28.07-.44-.21-.21-.32-.12-.14.28-.07.44z"/><path id="O" d="M676.94 223.22c-3.89 0-7.06 3.25-7.06 7.28s3.17 7.27 7.06 7.27 7.06-3.25 7.06-7.27-3.17-7.28-7.06-7.28z"/><path id="P" d="M677.17 233.29c-.46 0-.84.39-.84.86s.37.86.84.86.84-.39.84-.86-.37-.86-.84-.86zm-.63-.86h1.25l.63-6.03h-2.51l.63 6.03z"/></defs></svg>