<svg xmlns="http://www.w3.org/2000/svg" width="1140" height="640" fill="none" xmlns:v="https://vecta.io/nano"><style><![CDATA[.B{fill:#fff}.C{fill:#0668e1}.D{fill:#0745b4}.E{fill:#071a22}.F{stroke:#0668e1}.G{fill:#ff9c78}.H{fill:#ffa98f}.I{stroke-width:1.1}.J{fill:#1b1c17}.K{fill:#05387d}.L{color-interpolation-filters:sRGB}.M{flood-opacity:0}]]></style><g clip-path="url(#D)"><rect width="1140" height="640" rx="16" class="B"/><g fill="#b8d8ff" class="F I"><path d="M887.13 33.53L864.68 54.9l22.44 21.38h845.73l-22.02-20.98-.42-.4.42-.4 22.03-20.98H887.13zm-114.24 0L750.57 54.9l22.32 21.38h89.52L840.49 55.3l-.41-.4.41-.4 21.91-20.98h-89.52z"/></g><g filter="url(#A)" class="C"><path d="M1029.01 19.6c2.21-1.27 4.92-1.27 7.13 0l28.95 16.71c2.2 1.27 3.56 3.62 3.56 6.17v33.43c0 2.55-1.36 4.9-3.56 6.17l-28.95 16.71c-2.21 1.27-4.92 1.27-7.13 0l-28.95-16.71c-2.2-1.27-3.56-3.62-3.56-6.17V42.48c0-2.55 1.36-4.9 3.56-6.17l28.95-16.71z"/></g><path d="M1029.29 20.07c2.03-1.17 4.54-1.17 6.57 0l28.95 16.71c2.04 1.17 3.29 3.35 3.29 5.7v33.43c0 2.35-1.25 4.52-3.29 5.7l-28.95 16.71c-2.03 1.17-4.54 1.17-6.57 0l-28.95-16.71c-2.04-1.17-3.29-3.35-3.29-5.7V42.48c0-2.35 1.25-4.52 3.29-5.7l28.95-16.71z" stroke="#fff" class="I"/><g class="B"><path d="M1041.58 47.29c1.51 0 2.55.29 3.13.87.58.64.9 1.74.96 3.3v5.04c-.06 3.19-.43 5.91-1.13 8.17a27.3 27.3 0 0 1-2.96 6.43l-4.71-1.39c.47-1.74.79-3.42.96-5.04l.26-5.3c-2.21 0-3.34-1.22-3.4-3.65l.09-4.26c.06-1.56.41-2.66 1.05-3.3.58-.58 1.62-.87 3.13-.87h2.62zm-15.21 0c1.51 0 2.56.29 3.14.87.58.64.9 1.74.96 3.3v5.04c-.06 3.19-.44 5.91-1.13 8.17a26.9 26.9 0 0 1-2.97 6.43l-4.7-1.39c.46-1.74.78-3.42.96-5.04l.26-5.3c-2.21 0-3.34-1.22-3.4-3.65l.09-4.26c.05-1.56.4-2.66 1.04-3.3.58-.58 1.63-.87 3.14-.87h2.61z"/></g><g fill="#b8d8ff" class="F I"><path d="M313.28 559.68l22.44 21.37-22.44 21.38h-845.74l22.03-20.98.42-.4-.42-.4-22.03-20.98h845.74zm114.24.01l22.32 21.37-22.32 21.38H338l21.91-20.98.41-.4-.41-.4L338 559.68h89.52z"/></g><g filter="url(#B)" class="C"><path d="M103.86 542.46a7.1 7.1 0 0 1 7.13 0l28.95 16.71c2.21 1.27 3.56 3.63 3.56 6.17v33.43c0 2.55-1.36 4.9-3.56 6.17l-28.95 16.71a7.1 7.1 0 0 1-7.12 0l-28.95-16.71c-2.2-1.27-3.56-3.62-3.56-6.17v-33.43c0-2.55 1.36-4.9 3.56-6.17l28.95-16.71z"/></g><path d="M104.14 542.93a6.6 6.6 0 0 1 6.58 0l28.95 16.71a6.6 6.6 0 0 1 3.29 5.7v33.43a6.6 6.6 0 0 1-3.29 5.7l-28.95 16.71a6.6 6.6 0 0 1-6.58 0l-28.95-16.71a6.6 6.6 0 0 1-3.29-5.7v-33.43a6.6 6.6 0 0 1 3.29-5.7l28.95-16.71z" stroke="#fff" class="I"/><g class="B"><path d="M98.42 593.96c-1.51 0-2.56-.29-3.14-.87-.58-.64-.9-1.74-.96-3.3v-5.04c.06-3.19.44-5.91 1.13-8.17s1.68-4.4 2.96-6.43l4.71 1.39a33.2 33.2 0 0 0-.96 5.04l-.26 5.3c2.21 0 3.34 1.22 3.4 3.65l-.09 4.26c-.06 1.56-.41 2.66-1.05 3.3-.58.58-1.63.87-3.14.87h-2.61zm15.21 0c-1.51 0-2.56-.29-3.14-.87-.58-.64-.9-1.74-.96-3.3v-5.04c.06-3.19.44-5.91 1.13-8.17s1.69-4.4 2.96-6.43l4.7 1.39c-.46 1.74-.78 3.42-.96 5.04l-.26 5.3c2.21 0 3.34 1.22 3.4 3.65l-.09 4.26c-.06 1.56-.41 2.66-1.05 3.3-.58.58-1.63.87-3.14.87h-2.61z"/></g><path d="M147.14 222.16v50.65h-12.21v-50.65h12.21zm15.24 0v9.43h-42.34v-9.43h42.34zm16.11-2.78v53.44h-11.72v-53.44h11.72zm-1.39 33.33l-2.75.07a26 26 0 0 1 .97-7.31 18.5 18.5 0 0 1 2.78-5.81 12.9 12.9 0 0 1 4.35-3.83c1.69-.91 3.57-1.36 5.64-1.36 1.86 0 3.55.27 5.08.8 1.55.53 2.89 1.39 4 2.57 1.14 1.18 2.01 2.73 2.61 4.63.63 1.9.94 4.22.94 6.96v23.38h-11.79v-23.45c0-1.53-.22-2.71-.66-3.55-.42-.86-1.02-1.45-1.81-1.77-.79-.35-1.75-.52-2.89-.52a7 7 0 0 0-3.34.7c-.86.46-1.52 1.11-1.98 1.95-.44.81-.74 1.78-.91 2.89s-.24 2.33-.24 3.65zm48.36 20.8c-3.06 0-5.8-.48-8.21-1.43-2.41-.97-4.45-2.31-6.12-4a17.8 17.8 0 0 1-3.79-5.84 19.1 19.1 0 0 1-1.29-6.99v-1.32c0-2.76.38-5.31 1.15-7.65.77-2.37 1.9-4.43 3.41-6.19a15.2 15.2 0 0 1 5.67-4.11c2.27-1 4.92-1.5 7.93-1.5 2.67 0 5.06.43 7.17 1.29s3.9 2.09 5.36 3.69c1.48 1.6 2.61 3.54 3.38 5.81.79 2.27 1.18 4.82 1.18 7.65v4.77h-30.75v-7.34h19.31v-.9c.02-1.25-.2-2.32-.66-3.2-.44-.88-1.09-1.55-1.95-2.02a6.5 6.5 0 0 0-3.13-.7 5.6 5.6 0 0 0-3.17.84c-.81.56-1.45 1.32-1.91 2.3-.44.95-.75 2.05-.94 3.31s-.28 2.57-.28 3.97v1.32a12.2 12.2 0 0 0 .56 3.79 8.6 8.6 0 0 0 1.67 2.92 7.9 7.9 0 0 0 2.64 1.84c1.04.44 2.23.66 3.55.66a13 13 0 0 0 4.73-.9c1.55-.6 2.89-1.6 4-2.99l5.32 6.33c-.77 1.09-1.86 2.15-3.27 3.17-1.39 1.02-3.06 1.86-5.01 2.5a21.3 21.3 0 0 1-6.54.94zm44.95-51.35h9.95l11.31 35.24 11.31-35.24h9.95l-17.22 50.65h-8.07l-17.22-50.65zm-6.05 0h10.3l1.91 38.83v11.83h-12.21v-50.65zm44.32 0h10.33v50.65h-12.25v-11.83l1.91-38.83zm16.14 32.22v-.73c0-2.76.39-5.3 1.18-7.62.79-2.34 1.95-4.37 3.48-6.09s3.42-3.05 5.67-4c2.25-.97 4.85-1.46 7.79-1.46 2.97 0 5.58.49 7.83 1.46 2.27.95 4.17 2.28 5.7 4s2.69 3.75 3.48 6.09c.79 2.32 1.18 4.86 1.18 7.62v.73c0 2.74-.39 5.28-1.18 7.62-.79 2.32-1.95 4.35-3.48 6.09-1.53 1.72-3.42 3.05-5.67 4s-4.85 1.43-7.79 1.43-5.55-.48-7.83-1.43-4.18-2.29-5.71-4c-1.53-1.74-2.69-3.77-3.48-6.09-.79-2.34-1.18-4.88-1.18-7.62zm11.73-.73v.73a23.7 23.7 0 0 0 .31 3.97 10.8 10.8 0 0 0 1.04 3.24c.49.9 1.15 1.61 1.98 2.12a5.9 5.9 0 0 0 3.13.77c1.23 0 2.25-.25 3.06-.77.83-.51 1.5-1.22 1.98-2.12.49-.93.83-2.01 1.04-3.24a23.8 23.8 0 0 0 .31-3.97v-.73c0-1.37-.1-2.66-.31-3.86-.21-1.23-.56-2.31-1.04-3.23a5.6 5.6 0 0 0-1.98-2.23 5.7 5.7 0 0 0-3.13-.8c-1.23 0-2.26.27-3.1.8a5.7 5.7 0 0 0-1.95 2.23 10.8 10.8 0 0 0-1.04 3.23c-.21 1.21-.31 2.49-.31 3.86zm41.64-9.15v28.32h-11.72v-37.64h10.96l.76 9.32zm11.13-9.6l-.21 10.89-1.88-.17-1.98-.1c-1.37 0-2.55.16-3.55.49a6 6 0 0 0-2.44 1.39c-.63.6-1.09 1.37-1.39 2.3a10.6 10.6 0 0 0-.38 3.24l-2.12-1.39c0-2.53.24-4.82.73-6.89a18.7 18.7 0 0 1 2.16-5.39c.93-1.53 2.05-2.7 3.37-3.51 1.32-.83 2.81-1.25 4.45-1.25.58 0 1.15.03 1.7.1a8.5 8.5 0 0 1 1.53.31zm22.54 28.46v-15.52a7.5 7.5 0 0 0-.45-2.75c-.3-.77-.78-1.36-1.43-1.78-.65-.44-1.52-.66-2.61-.66-.88 0-1.63.15-2.26.45a3.1 3.1 0 0 0-1.43 1.36c-.32.6-.49 1.37-.49 2.3h-11.72a10.4 10.4 0 0 1 1.15-4.84c.79-1.51 1.9-2.82 3.34-3.93 1.46-1.11 3.2-1.97 5.22-2.57a23.2 23.2 0 0 1 6.82-.94c2.99 0 5.66.5 8 1.5a12.5 12.5 0 0 1 5.6 4.49c1.37 1.97 2.05 4.45 2.05 7.45v15.41c0 2.46.14 4.32.42 5.6a12.9 12.9 0 0 0 1.18 3.31v.59H413.5c-.56-1.16-.97-2.57-1.25-4.24a35 35 0 0 1-.38-5.22zm1.43-13.53l.07 6.26h-5.18a7.6 7.6 0 0 0-2.78.45 4.7 4.7 0 0 0-1.81 1.25c-.44.51-.76 1.09-.97 1.74a7.4 7.4 0 0 0-.28 2.05c0 .7.16 1.32.49 1.88a3.6 3.6 0 0 0 1.39 1.25c.58.3 1.23.45 1.95.45a6.9 6.9 0 0 0 3.31-.73c.93-.51 1.64-1.12 2.12-1.84s.73-1.39.73-2.02l2.57 4.8a32 32 0 0 1-1.6 2.82c-.58.95-1.31 1.83-2.19 2.64-.86.79-1.91 1.44-3.17 1.95a12.6 12.6 0 0 1-4.56.73 14.4 14.4 0 0 1-6.4-1.43c-1.93-.95-3.47-2.27-4.63-3.97a10.3 10.3 0 0 1-1.74-5.92c0-1.95.35-3.69 1.04-5.22a10.2 10.2 0 0 1 3.24-3.9c1.44-1.07 3.27-1.88 5.5-2.44s4.85-.84 7.86-.84h5.04zm29.26-30.44v53.44h-11.76v-53.44h11.76zM151.42 338.67h12.18a18.4 18.4 0 0 1-2.85 9.32 17.6 17.6 0 0 1-7.24 6.3c-3.06 1.48-6.68 2.23-10.85 2.23-3.39 0-6.41-.57-9.08-1.7a18.5 18.5 0 0 1-6.75-4.91 22.1 22.1 0 0 1-4.21-7.76 34.3 34.3 0 0 1-1.43-10.26v-2.75c0-3.8.5-7.22 1.5-10.26 1.02-3.06 2.46-5.66 4.31-7.79 1.88-2.16 4.13-3.8 6.75-4.94s5.53-1.7 8.73-1.7c4.41 0 8.13.79 11.17 2.37s5.39 3.75 7.06 6.51a21.2 21.2 0 0 1 2.96 9.36h-12.18c-.05-1.9-.37-3.49-.97-4.77a6 6 0 0 0-2.85-2.92c-1.3-.65-3.03-.97-5.18-.97a8.7 8.7 0 0 0-3.93.83 6.9 6.9 0 0 0-2.78 2.64c-.74 1.21-1.3 2.77-1.67 4.7-.35 1.9-.52 4.2-.52 6.89v2.82c0 2.69.16 4.99.49 6.89s.85 3.46 1.56 4.66 1.65 2.1 2.78 2.68c1.16.56 2.58.83 4.25.83 1.85 0 3.42-.29 4.7-.87 1.28-.6 2.26-1.51 2.96-2.71.7-1.23 1.07-2.8 1.11-4.7zm15.93-1.29v-.73c0-2.76.39-5.3 1.18-7.62.79-2.34 1.95-4.37 3.48-6.09s3.42-3.05 5.67-4c2.25-.97 4.85-1.46 7.79-1.46 2.97 0 5.58.49 7.83 1.46 2.27.95 4.18 2.28 5.71 4s2.69 3.75 3.48 6.09c.79 2.32 1.18 4.86 1.18 7.62v.73c0 2.74-.39 5.28-1.18 7.62a17.8 17.8 0 0 1-3.48 6.09c-1.53 1.72-3.42 3.05-5.67 4s-4.85 1.43-7.79 1.43-5.55-.48-7.83-1.43-4.18-2.29-5.71-4a17.8 17.8 0 0 1-3.48-6.09c-.79-2.34-1.18-4.88-1.18-7.62zm11.72-.73v.73a23.7 23.7 0 0 0 .31 3.97c.21 1.23.56 2.31 1.04 3.24.49.9 1.15 1.61 1.98 2.12a5.9 5.9 0 0 0 3.13.77c1.23 0 2.25-.25 3.06-.77.84-.51 1.5-1.22 1.98-2.12.49-.93.84-2.01 1.04-3.24a23.7 23.7 0 0 0 .31-3.97v-.73c0-1.37-.1-2.66-.31-3.86-.21-1.23-.56-2.31-1.04-3.24a5.6 5.6 0 0 0-1.98-2.23 5.7 5.7 0 0 0-3.13-.8c-1.23 0-2.26.27-3.1.8a5.7 5.7 0 0 0-1.95 2.23c-.49.93-.84 2.01-1.04 3.24-.21 1.21-.31 2.49-.31 3.86zm49.54 8.59c0-.65-.22-1.21-.66-1.67a5.4 5.4 0 0 0-2.23-1.32c-1.07-.42-2.56-.83-4.49-1.25-1.83-.39-3.56-.92-5.18-1.57a17.9 17.9 0 0 1-4.21-2.37 10.5 10.5 0 0 1-2.85-3.31c-.67-1.28-1.01-2.74-1.01-4.38a10.4 10.4 0 0 1 1.01-4.52c.7-1.44 1.71-2.7 3.03-3.79 1.34-1.11 2.98-1.98 4.91-2.61a20.5 20.5 0 0 1 6.58-.97c3.39 0 6.31.52 8.77 1.56 2.46 1.02 4.35 2.46 5.67 4.31 1.34 1.83 2.02 3.95 2.02 6.37h-11.72c0-.95-.16-1.76-.49-2.44a3.1 3.1 0 0 0-1.5-1.53c-.7-.37-1.62-.56-2.78-.56a5.4 5.4 0 0 0-2.23.45 4 4 0 0 0-1.56 1.25c-.39.53-.59 1.16-.59 1.88 0 .51.12.97.35 1.39.25.39.64.77 1.15 1.11a9.6 9.6 0 0 0 1.95.91c.79.25 1.74.49 2.85.7 2.53.46 4.89 1.13 7.1 1.98s3.99 2.08 5.36 3.65c1.39 1.58 2.09 3.7 2.09 6.37 0 1.67-.38 3.21-1.15 4.63-.77 1.39-1.87 2.62-3.31 3.69-1.44 1.04-3.16 1.86-5.18 2.44s-4.29.87-6.82.87c-3.59 0-6.63-.64-9.12-1.91-2.48-1.3-4.36-2.92-5.64-4.87-1.25-1.97-1.88-3.97-1.88-5.98h10.92c.05 1.16.33 2.11.84 2.85.53.74 1.24 1.29 2.12 1.64a8.3 8.3 0 0 0 3.06.52 6.7 6.7 0 0 0 2.64-.45c.72-.3 1.26-.71 1.63-1.22.37-.53.56-1.15.56-1.84zm36.63-27.07v8.14h-22.68v-8.14h22.68zm-17.92-9.36h11.72v34.72c0 1 .12 1.77.35 2.33.23.53.63.92 1.18 1.15.58.21 1.34.31 2.3.31.67 0 1.23-.01 1.67-.03.44-.05.86-.11 1.25-.17v8.38a19.2 19.2 0 0 1-3.13.73 20.8 20.8 0 0 1-3.48.28c-2.5 0-4.65-.39-6.44-1.18a8.4 8.4 0 0 1-4.04-3.72c-.93-1.69-1.39-3.9-1.39-6.61v-36.18zm38.86 28.56v-.73c0-2.76.4-5.3 1.18-7.62.79-2.34 1.95-4.37 3.48-6.09s3.42-3.05 5.67-4c2.25-.97 4.85-1.46 7.79-1.46 2.97 0 5.58.49 7.83 1.46 2.27.95 4.18 2.28 5.71 4s2.69 3.75 3.48 6.09c.79 2.32 1.18 4.86 1.18 7.62v.73c0 2.74-.39 5.28-1.18 7.62-.79 2.32-1.95 4.35-3.48 6.09-1.53 1.72-3.42 3.05-5.67 4s-4.85 1.43-7.79 1.43-5.56-.48-7.83-1.43-4.17-2.29-5.71-4c-1.53-1.74-2.69-3.77-3.48-6.09-.79-2.34-1.18-4.88-1.18-7.62zm11.73-.73v.73a23.7 23.7 0 0 0 .31 3.97 10.8 10.8 0 0 0 1.04 3.24c.49.9 1.15 1.61 1.98 2.12a5.9 5.9 0 0 0 3.13.77c1.23 0 2.25-.25 3.06-.77.84-.51 1.5-1.22 1.98-2.12.49-.93.84-2.01 1.04-3.24a23.7 23.7 0 0 0 .31-3.97v-.73c0-1.37-.1-2.66-.31-3.86-.21-1.23-.56-2.31-1.04-3.24a5.6 5.6 0 0 0-1.98-2.23 5.7 5.7 0 0 0-3.13-.8c-1.23 0-2.26.27-3.1.8a5.7 5.7 0 0 0-1.95 2.23 10.8 10.8 0 0 0-1.04 3.24c-.21 1.21-.31 2.49-.31 3.86zm44.18 19.17h-11.79v-40.7c0-2.92.59-5.38 1.77-7.37a11.3 11.3 0 0 1 5.01-4.52 17.4 17.4 0 0 1 7.65-1.57 19 19 0 0 1 2.89.21 31.3 31.3 0 0 1 2.64.52l.03 8.63c-.42-.12-.85-.2-1.29-.24s-.99-.07-1.63-.07c-1.14 0-2.1.17-2.89.52-.79.32-1.39.82-1.81 1.5-.39.65-.59 1.45-.59 2.4v40.7zm7.31-37.64v8.14h-24.53v-8.14h24.53zM153.5 442.68c.26-1.36.16-2.52-.3-3.48a6.2 6.2 0 0 0-2-2.44c-.87-.67-1.87-1.23-3-1.7-1.1-.49-2.17-.94-3.22-1.35-2.26-.9-4.49-1.91-6.7-3.04-2.2-1.16-4.2-2.52-6-4.09s-3.2-3.39-4.22-5.48c-.98-2.09-1.41-4.54-1.26-7.35.2-3.22 1.12-5.99 2.74-8.31a19.1 19.1 0 0 1 6.22-5.65 29.2 29.2 0 0 1 8.22-3.22c2.96-.7 5.84-1.01 8.65-.96 4 .06 7.57.87 10.7 2.44a17.8 17.8 0 0 1 7.44 6.74c1.8 2.9 2.67 6.41 2.61 10.52h-14.74c.06-1.62-.16-3.03-.65-4.22-.46-1.22-1.23-2.16-2.3-2.83a7.8 7.8 0 0 0-4.18-1.09c-1.42-.03-2.84.2-4.26.7a9.7 9.7 0 0 0-3.7 2.18 6.8 6.8 0 0 0-2 3.83c-.2 1.19-.01 2.23.57 3.13a7.8 7.8 0 0 0 2.39 2.26c1.01.61 2.07 1.13 3.17 1.57l2.96 1.13a50.5 50.5 0 0 1 6.83 3.17 26.3 26.3 0 0 1 5.83 4.22 16.4 16.4 0 0 1 3.91 5.7c.93 2.14 1.3 4.64 1.13 7.48-.23 3.28-1.1 6.07-2.61 8.39a18.1 18.1 0 0 1-5.83 5.65 26.6 26.6 0 0 1-7.83 3.18c-2.84.67-5.72.99-8.65.96a31.2 31.2 0 0 1-9.18-1.48 22.4 22.4 0 0 1-7.44-4.13c-2.12-1.83-3.75-4.06-4.91-6.7-1.16-2.67-1.71-5.73-1.65-9.18l14.92.04c-.09 1.62.01 3.06.3 4.31a7.6 7.6 0 0 0 1.57 3.09c.75.81 1.72 1.44 2.91 1.87a13.4 13.4 0 0 0 4.31.61c1.42 0 2.78-.22 4.09-.65 1.33-.46 2.47-1.18 3.39-2.13s1.52-2.19 1.78-3.7zm42.05-29.92l-8.13 47.05h-14.35l8.18-47.05h14.31zm-13.05-11.87c-.06-2.26.69-4.06 2.26-5.39 1.59-1.33 3.47-2.01 5.61-2.04 2.06-.03 3.89.58 5.48 1.83 1.59 1.22 2.41 2.91 2.44 5.09.06 2.26-.71 4.06-2.31 5.39a8.5 8.5 0 0 1-5.57 2.04c-2.06.03-3.88-.56-5.48-1.78-1.57-1.25-2.38-2.96-2.44-5.13zm40.23-7.87l-11.57 66.8h-14.35l11.57-66.8h14.35zm20.35 67.67a23.6 23.6 0 0 1-8.87-1.78 19.7 19.7 0 0 1-6.78-4.78c-1.85-2.03-3.23-4.41-4.13-7.13a24 24 0 0 1-.96-9l.17-1.7c.35-3.42 1.16-6.61 2.44-9.57a25.8 25.8 0 0 1 5.13-7.83c2.15-2.26 4.67-4.02 7.57-5.26 2.93-1.25 6.2-1.83 9.83-1.74 3.28.06 6.1.71 8.48 1.96a16.1 16.1 0 0 1 5.87 5.09c1.51 2.12 2.55 4.55 3.13 7.31.61 2.72.75 5.62.44 8.7l-.83 5.96h-37.4l1.48-9.18 23.05.04.26-1.26c.2-1.36.15-2.59-.17-3.7a4.8 4.8 0 0 0-1.78-2.61c-.87-.67-2.04-1.03-3.52-1.09-1.8-.03-3.29.36-4.48 1.17-1.16.81-2.1 1.89-2.83 3.22-.7 1.33-1.23 2.78-1.61 4.35-.38 1.54-.65 3.02-.83 4.44l-.17 1.65c-.12 1.42-.07 2.8.13 4.13a10.4 10.4 0 0 0 1.22 3.61 7.6 7.6 0 0 0 2.57 2.61 8.4 8.4 0 0 0 4.04 1.04c2.17.06 4.2-.35 6.09-1.22a17.5 17.5 0 0 0 5.09-3.57l5.96 7.91c-1.31 1.97-2.99 3.57-5.05 4.78-2.06 1.19-4.28 2.06-6.65 2.61a27.1 27.1 0 0 1-6.87.83zm44.18-37.09l-6.31 36.22h-14.31l8.18-47.05h13.35l-.91 10.83zm-3.57 11.09l-2.96.17a38.2 38.2 0 0 1 1.74-8.35c.9-2.78 2.14-5.29 3.74-7.52 1.62-2.23 3.62-3.99 6-5.26 2.41-1.31 5.23-1.93 8.48-1.87 2.64.09 4.8.65 6.48 1.7a10.4 10.4 0 0 1 3.91 4.17c.9 1.71 1.46 3.65 1.7 5.83.26 2.14.28 4.36.04 6.65l-4.96 29.61h-14.39l5-29.74c.14-1.36.1-2.57-.13-3.61a3.8 3.8 0 0 0-1.48-2.44c-.75-.58-1.88-.88-3.39-.91-1.68-.03-3.1.29-4.26.96a8.5 8.5 0 0 0-2.83 2.74 15.6 15.6 0 0 0-1.74 3.78c-.41 1.36-.72 2.72-.96 4.09zm53.27 14.74a7.1 7.1 0 0 0 3.52-.74 6.3 6.3 0 0 0 2.35-2.26c.61-.99 1-2.12 1.17-3.39l13.44-.04c-.17 3.71-1.26 6.9-3.26 9.57-1.97 2.67-4.51 4.71-7.61 6.13a22.4 22.4 0 0 1-10 2c-3.42-.06-6.36-.72-8.83-2a16.9 16.9 0 0 1-6-5.22c-1.54-2.2-2.62-4.72-3.26-7.57-.61-2.84-.77-5.84-.48-9l.13-1.04a33.3 33.3 0 0 1 2.35-9.35 26.2 26.2 0 0 1 4.96-7.7c2.06-2.23 4.49-3.96 7.31-5.18 2.84-1.25 6.03-1.83 9.57-1.74 3.77.06 6.97.9 9.61 2.52a15.6 15.6 0 0 1 6.04 6.65c1.36 2.81 2 6.06 1.91 9.74l-13.44-.04c.06-1.25-.06-2.44-.35-3.57-.26-1.16-.78-2.1-1.57-2.83-.78-.75-1.91-1.16-3.39-1.22-1.71-.06-3.1.32-4.18 1.13a8.6 8.6 0 0 0-2.56 3.22 17.9 17.9 0 0 0-1.35 4.22 51.2 51.2 0 0 0-.65 4.18l-.04 1c-.12 1.04-.23 2.28-.35 3.7-.09 1.39-.04 2.75.13 4.09.2 1.33.67 2.45 1.39 3.35.73.87 1.87 1.33 3.44 1.39zm47.01 11.26a23.6 23.6 0 0 1-8.87-1.78 19.7 19.7 0 0 1-6.78-4.78c-1.86-2.03-3.23-4.41-4.13-7.13a24 24 0 0 1-.96-9l.17-1.7c.35-3.42 1.16-6.61 2.44-9.57a25.8 25.8 0 0 1 5.13-7.83 22.6 22.6 0 0 1 7.57-5.26c2.93-1.25 6.2-1.83 9.83-1.74 3.28.06 6.1.71 8.48 1.96a16.1 16.1 0 0 1 5.87 5.09 19.3 19.3 0 0 1 3.13 7.31c.61 2.72.75 5.62.44 8.7l-.83 5.96h-37.4l1.48-9.18 23.05.04.26-1.26c.2-1.36.14-2.59-.17-3.7a4.8 4.8 0 0 0-1.78-2.61c-.87-.67-2.04-1.03-3.52-1.09-1.8-.03-3.29.36-4.48 1.17-1.16.81-2.1 1.89-2.83 3.22a18.9 18.9 0 0 0-1.61 4.35c-.38 1.54-.65 3.02-.83 4.44l-.17 1.65c-.12 1.42-.07 2.8.13 4.13s.61 2.54 1.22 3.61a7.6 7.6 0 0 0 2.57 2.61 8.4 8.4 0 0 0 4.05 1.04c2.17.06 4.2-.35 6.09-1.22s3.58-2.06 5.09-3.57l5.96 7.91c-1.3 1.97-2.99 3.57-5.04 4.78a24.1 24.1 0 0 1-6.65 2.61 27.1 27.1 0 0 1-6.87.83zm50.88-64.19l-9.31 43.27H413.9l5.7-43.27h15.26zm-25.48 57.01c-.06-2.26.7-4.1 2.26-5.52a8.2 8.2 0 0 1 5.65-2.13c2.09-.03 3.9.62 5.44 1.96 1.56 1.3 2.38 3.03 2.43 5.17.03 2.23-.74 4.07-2.3 5.52-1.56 1.42-3.44 2.13-5.61 2.13a8.1 8.1 0 0 1-5.48-1.91c-1.54-1.3-2.33-3.04-2.39-5.22z" fill="#5b5b5b"/><g filter="url(#C)"><path d="M323 71.25a11.9 11.9 0 0 0-11.87-11.87H0v89.06h311.12A11.9 11.9 0 0 0 323 136.56V71.25z" fill="#3886e7"/><path d="M47.66 107.54h-6.3v-4.71h6.3c.86 0 1.55-.14 2.09-.44s.92-.69 1.17-1.2c.26-.52.38-1.11.38-1.76 0-.7-.13-1.34-.38-1.93-.24-.59-.63-1.07-1.17-1.43-.53-.37-1.23-.56-2.09-.56h-4v20.61h-6.11V90.8h10.11c2.03 0 3.77.37 5.24 1.11 1.47.74 2.6 1.76 3.39 3.06a8.3 8.3 0 0 1 1.18 4.42 7.7 7.7 0 0 1-1.18 4.28c-.79 1.22-1.92 2.17-3.39 2.85-1.46.67-3.21 1.01-5.24 1.01zm22.39 3.86v-7.76c0-.53-.08-.99-.23-1.37s-.39-.68-.71-.89c-.32-.22-.76-.33-1.3-.33-.44 0-.82.08-1.13.23s-.55.38-.71.68a2.4 2.4 0 0 0-.24 1.15h-5.86a5.2 5.2 0 0 1 .57-2.42 6 6 0 0 1 1.67-1.97c.73-.56 1.6-.99 2.61-1.29a11.6 11.6 0 0 1 3.41-.47c1.5 0 2.83.25 4 .75 1.18.5 2.12 1.25 2.8 2.24.68.99 1.03 2.23 1.03 3.72v7.71c0 1.23.07 2.16.21 2.8.14.63.34 1.18.59 1.65v.3h-5.88c-.28-.58-.49-1.29-.63-2.12a17.5 17.5 0 0 1-.19-2.61zm.71-6.77l.03 3.13h-2.59a3.8 3.8 0 0 0-1.39.23c-.37.15-.67.36-.9.63-.22.25-.38.55-.49.87-.09.33-.14.67-.14 1.03 0 .35.08.66.24.94.17.27.41.47.7.63s.61.23.97.23c.65 0 1.2-.12 1.65-.37.46-.25.82-.56 1.06-.92s.37-.7.37-1.01l1.29 2.4c-.23.46-.5.93-.8 1.41a6.1 6.1 0 0 1-1.1 1.32c-.43.39-.96.72-1.58.97a6.3 6.3 0 0 1-2.28.37 7.2 7.2 0 0 1-3.2-.71c-.96-.48-1.73-1.14-2.31-1.98-.58-.86-.87-1.84-.87-2.96 0-.97.17-1.84.52-2.61a5.1 5.1 0 0 1 1.62-1.95 7.7 7.7 0 0 1 2.75-1.22c1.11-.28 2.42-.42 3.93-.42h2.52zm14.35-2.66v14.16h-5.86V97.31h5.48l.38 4.66zm5.57-4.8l-.1 5.44-.94-.09-.99-.05c-.68 0-1.28.08-1.77.24a3 3 0 0 0-1.22.7c-.31.3-.55.68-.7 1.15a5.3 5.3 0 0 0-.19 1.62l-1.06-.7a15 15 0 0 1 .37-3.44c.26-1.04.61-1.94 1.08-2.7.46-.77 1.03-1.35 1.69-1.76a4.1 4.1 0 0 1 2.23-.63c.29 0 .57.02.85.05.29.03.55.09.77.16zm12.8.14v4.07H92.14v-4.07h11.34zm-8.96-4.68h5.86v17.36c0 .5.06.89.17 1.17.12.27.31.46.59.57.29.1.67.16 1.15.16l.84-.02.63-.09v4.19c-.5.16-1.02.28-1.56.37-.55.09-1.12.14-1.74.14-1.25 0-2.32-.2-3.22-.59a4.2 4.2 0 0 1-2.02-1.86c-.46-.85-.7-1.95-.7-3.31V92.63zm31.61 10.31v4.54h-10.45v-4.54h10.45zm26.35-12.14v25.33h-5.86V97.41l-5.78 1.69v-4.45l11.1-3.84h.54z" class="B"/></g><g clip-path="url(#E)"><path d="M753.64 468.8c-19.51-5.47-33.52-17.01-31.29-25.78s19.85-11.44 39.37-5.96 33.52 17.01 31.29 25.77-19.85 11.44-39.37 5.97z" fill="#b6d7ff"/><path d="M722.13 456.78c-.27-2.75-.01-12.11-.01-12.11.18.92.51 3.57 1.64 5.5 3.56 6.05 10.67 10.18 13.4 11.83 3.01 1.65 10.39 5.23 17.78 7.15 7.93 1.65 9.03 2.2 19.15 2.48 9.85-.28 12.86-2.48 15.87-4.4 2.47-1.93 3.01-3.85 3.28-6.6v9.36c0 1.1.27 3.58-2.74 5.78-3.34 2.44-5.74 3.3-10.39 4.13-9.28 1.65-19.42-.27-24.07-1.65s-14.14-4.39-22.98-9.91c-7.93-4.95-10.66-8.81-10.93-11.56z" fill="#8fc1ff"/><path d="M736.57 445.63c-.5.23-.5.43-.5 1.25s.17 1.86 2.21 2.72 4.37.37 6.1-.65 1.86-1.83 4.08-3.07c2.21-1.24 2.05-.16 3.69-.88s3.08-1.46 3.23-2.56-.06-2.08 0-2.35-1.38-.53-1.38-.53l-17.43 6.06-.01-.01z" fill="#191c21"/><path d="M747.24 435.68c-.91 2.07-7.54 6-9.3 7.16s-1.64 2.29-1.64 3.43c.01.93 1.9 3.41 5.49 2.56s5.16-3.56 7.01-4.14 6.27-1.74 6.33-5.04-.88-7.31-.88-7.31l-7.03 3.34h.01z" fill="#4b4d4f"/><path d="M763.05 460.81c-.51.58-.55 1.12-.55 1.75s.3 1.19 1.84 1.85 3.61 1.01 5.52.29c2.64-1 4.85-2.6 5.84-4.14.99-1.54.85-2.47 1.47-2.9s1.94-.82 1.99-2.41-.05-1.71-.16-2c-.21-.54-.98-.37-1.65-.21s-14.28 7.77-14.28 7.77h-.01z" fill="#191c21"/><path d="M771.6 447.35c-1.44 1.5-1.74.08-2.26 2.18-1.17 4.75-5.48 6.94-6.29 9.49-.34 1.07-.38 1.32-.31 2.58.03.53.35 1.02.82 1.24 3.28 1.52 5.44.99 5.44.99s1.73-.65 3.53-1.89c1.55-1.06 3.16-2.56 3.77-4.44.28-.84.37-.91.81-1.1.79-.58 1.88-.79 1.83-2.74-.06-2.27-.26-6.74-.68-7.93-.28-.78-3.06-1.14-3.06-1.14l-3.6 2.77z" fill="#4b4d4f"/><g fill="#3b4157"><path d="M757.66 375.98l-.35 10.81-.93 17.56a18.2 18.2 0 0 1-.17 1.28c-.63 3.43-1.14 5.25-3.08 6.56a9.1 9.1 0 0 1-1.27.69c-3.03 1.35-7.16-1.34-7.73-2.9s-1.22-18.3-1.67-28.13-.42-7.29.27-15.62l14.93 9.77-.01-.01z"/><path d="M755.3 435.62c-.09 1.59-1.22 2.48-2.64 2.9-2.44.74-5.72.04-5.96-.94-.38-1.55-.44-19.91-2.57-27.59 0 0 5.48-4.65 9.14-6.12 1.5-.6 2.69-.68 3.07.35.02.04.03.09.05.13 1.2 3.83.65 22.26-1.09 31.27z"/></g><path d="M756.39 404.35c1.2 3.83.65 22.26-1.09 31.27-.09 1.59-1.22 2.48-2.64 2.9l.99-13.81c.68-7.89-.27-14.36-.38-16.55-.3-5.82.19-18.07-2.93-20.5l6.97-.87-.93 17.56v.01z" fill="#363c53"/><g fill="#3b4157"><path d="M773.85 391.31l-.94 22.86-.26 1.93c-.32 1.45-1.03 3.02-1.8 4.29-.74 1.23-1.54 2.18-2.1 2.5-1.14.65-4.91 1.16-6.03-1.1a14.4 14.4 0 0 1-.63-2.03v-.03c-1.65-6.48-5.15-24.96-6.19-27.19-1.2-2.59-4.48-2.78-5.37-4.46-.9-1.68-1.37-7.7-1.3-12.68 0 0 15.68-13.01 18.32-11.26.88.58 1.89 2.64 2.85 5.41 1.93 5.6 3.62 16.75 3.45 21.77z"/><path d="M778.15 446.5s-.06 1.81-2.67 2.85l-1.19.4c-3.83 1.09-5.18-.85-5.18-.85l-1.38-10.15c-1.38-10.16-3.78-13.13-5.23-17.41a12.5 12.5 0 0 1-.41-1.56v-.03c-.68-3.51.42-6.15.42-6.15l7.56-4 .38-.2a74.1 74.1 0 0 0 2.46 4.8c1.29 2.72 2.86 6.38 4.15 10.4 2.71 8.41 1.1 21.93 1.1 21.93l-.01-.01z"/></g><path d="M778.15 446.5s-.06 1.81-2.67 2.85c-.42.17-.82.3-1.19.4 1.77-26.18-1.63-27.47-3.45-29.35-.68-.71-1.15-1.5-1.03-3.73a234.8 234.8 0 0 0 .25-7.09c.1-4.76.07-10.64-.33-16.41-.5-7.27-1.59-17.04-3.76-21.55a35.7 35.7 0 0 1 4.41-2.07c1.93 5.6 3.62 16.75 3.45 21.77l-.94 22.86a86.8 86.8 0 0 1 4.15 10.4c2.71 8.41 1.1 21.93 1.1 21.93h.01z" fill="#363c53"/><path d="M743.38 350.66v-7.22l-6.35-1.21-3.17 6.02-5.16 12.44 2.78 2.01s7.94-6.42 11.9-12.04z" class="G"/><g fill="#1b84c1"><path d="M748.94 323.2c-4.12-.12-5.12.82-8.96 11.36-1.37 3.77-2.94 7.68-2.94 7.68l7.14 1.61s3.48-1.37 4.76-6.02 0-14.63 0-14.63v.01z"/><path d="M762.87 323.03c3.43 1.7 13.86 7.91 14.2 8.97s-7.13 33.65-7.03 35.83.24 2.52.24 2.52-1.02 3.64-11.85 3.89-14.56-4.73-14.8-5.76-.69-12.93-.78-20.71c-.16-13.34 1.66-19.74 2.54-21.87.54-1.3 1.23-2.05 1.81-2.22 2.93-.88 9.11-.04 9.11-.04l6.57-.62h-.01z"/></g><g class="G"><path d="M730.67 360.58c-.54-.72-.8-1.44-1.4-1.6-.6-.17-2.73.49-2.73.49l-.99.52s-1.27-.29-1.65-.21a.8.8 0 0 0-.28 1.16 22.1 22.1 0 0 0 1.65 1.14l2.25 3.43a8 8 0 0 0 3.63.18c1.4-.44 1.65-.58 1.74-1.43.1-.85-2.22-3.68-2.22-3.68v-.01zm15.28 1.46c-.72-.03-3.82 1.56-4.31 1.71l-3.31.93c-.41.19-.24.92.17 1.09s5.91-.93 5.91-.93l-1.74 2.3a24.2 24.2 0 0 0-.15 2.89c.05.37.57 1.56.98 1.64s.9-.56.9-.56l-.38-1.66.36-1.37.17 1.59.59 1.08 1.19.24-.02-.44s.52.56 1.05.37c.52-.19 1.55-2.26 2.12-2.47.57-.22 2.03.13 2.55-.07.52-.19 3.29-.17 3.69-1.51s-.19-3.49-1.85-4.15-4.57-.22-4.93-.31-2.98-.36-2.98-.36v.01z"/><path d="M777.9 360.3c0-3.21 1.19-8.03 1.19-8.03l-8.73-.8s.06 3.58-.79 5.62c-3.17 1.2-16.66 5.62-16.66 5.62l1.59 4.82s19.44-1.61 23.41-7.23z"/></g><path d="M737.11 361.45l6.31 13.24 1.04 1.44-1.01.98-22.04-23.39 1.01-.99 14.69 8.71z" fill="#4a5161"/><path d="M736.1 362.44l6.31 13.24 1.04 1.44-14.59-8.65-7.45-14.74 14.69 8.71z" fill="#2f343e"/><path d="M726.89 363.86s.38.85.75 1.01.99.52 1.24.84.07.8.07.8l.89.25.38.58.65.43s.28.74.16.93-.46.14-.46.14.06.43-.35.45-1.22-.59-1.47-.69a21.1 21.1 0 0 1-2.47-1.58c-.36-.33-1.06-1.8-1.2-2.67-.14-.86.09-1.42.09-1.42l.51-.21 1.2 1.14h.01z" class="G"/><g fill="#1b84c1"><path d="M777.17 331.51c-1.9-.98-6.12 2.59-6.75 7.27s-1.66 10.12-.85 11.89c.81 1.76 9.84 3.78 10.71 1.61s1.05-18.14-3.11-20.77v.01zm-19.58 10.96l-.57 8.59 4.7 2.18 4.77-1.37.12-9.4h-9.02z"/></g><path d="M753.64 325.72l.1.17c.69 1.25.95 3.16 1.41 3.65.48.51 2.57.74 4.22.07s4.31-4.82 4-6.41l-1.26-5.38c-.36-1.66.24-5.68-.67-7.05s-2.92-1.84-2.92-1.84-6.71 7.9-6.74 11.09 1.86 5.71 1.86 5.71l.01-.01z" fill="#ff8f66"/><path d="M764.81 310.6c.01 1.44-1.11 6.83-1.87 7.66-.2.22-.01 1.83.32 1.74.33-.09-1.28.42-1.83-.05-.53-.48-1.62-8.86-1.34-9.23.29-.37 4.72-.13 4.72-.13z" fill="#151823"/><path d="M759.26 312.93s1.49 7.79 1.01 9.01a10.9 10.9 0 0 1-4.19 4.24c-1.2.37-3.97 0-5.55-1.2-2.68-2.03-3.38-4.53-4.18-7.56-.81-3.03-1.15-6.12-.9-7.17.24-1.05 2.36-2.96 5.62-3.64s7.79.71 7.79.71l.4 5.62z" class="G"/><path d="M755.28 321.83c.03.12-.04.23-.08.34-.06.14-.16.25-.26.36-.18.18-.38.32-.59.43a3.4 3.4 0 0 1-1.27.39 2.7 2.7 0 0 1-.65.01c-.12-.02-.26-.12-.3-.26-.06-.19.13-.37.28-.38.21-.01.42.01.63-.01.22-.03.44-.08.66-.15s.43-.17.63-.28l.46-.26c.06-.04.12-.06.18-.1.08-.05.14-.11.22-.14.04-.02.08.01.1.06z" fill="#b55d5d"/><path d="M751.23 316.14c.34 1.67.9 3.28 1.67 4.79-.79.39-1.7.4-2.5.04l.83-4.83z" fill="#f68c65"/><g fill="#18185e"><path d="M755.54 315.82c-.09.44-.5.75-.93.7s-.71-.46-.63-.9.5-.75.93-.7.71.46.63.9zm-5.55 0c-.08.44-.5.75-.93.7s-.71-.46-.63-.9.5-.75.93-.7.71.46.63.9zm6.06-1.07l-.1-.18-.19-.25c-.16-.19-.39-.35-.63-.42-.15-.05-.29-.07-.45-.07s-.3.03-.45.06c-.12.02-.24-.03-.27-.15s.03-.23.14-.27c-.11.07-.12.08-.05.02l.05-.02c.02-.01.05-.02.07-.02l.15-.03a1.9 1.9 0 0 1 .33-.03c.22 0 .45.04.66.13a1.4 1.4 0 0 1 .66.61c.04.08.08.16.09.25.01.12.03.25.02.37 0 .01-.02.01-.02 0zm-7.85-.88c.03-.19.13-.39.26-.53a1.2 1.2 0 0 1 .65-.37c.41-.09.85.03 1.21.26.09.06.11.21.05.3-.07.1-.19.11-.29.05l.05.02-.05-.02-.05-.03c-.03-.02-.06-.03-.09-.04l-.24-.09a1.5 1.5 0 0 0-.47-.05c-.19.01-.39.08-.56.16-.09.04-.17.1-.25.15-.08.06-.13.14-.2.22-.01.01-.02-.01-.01-.02z"/></g><path d="M760.77 318.91c.52.17 1.24-.74 1.57-2.27.33-1.55.76-2.69-.79-3.18-1.55-.49-1.76 1.79-1.62 2.23s.07 2.98.84 3.23v-.01z" class="G"/><path d="M751.88 305.69l.16-.37s1.72-.9 1.4-.92c-.18-.01-.79-.56-1.19.27l.82-1.38-3.92 1.09s-.86-.15-1.5.31l-1.14.8s.1.61.23-.24c-.87.24-1.48 2.18-1.5 3.64a12.2 12.2 0 0 0-.22 1.43 14.2 14.2 0 0 0 .47 4.66l.85.35s-1.12-5.33.92-6.76c2.05-1.43 6.43-.04 6.43-.04l-1.82-2.85z" fill="#282a35"/><path d="M764.29 305.81c-.62-1.32-1.46-3.27-2.41-3.76-.47-1.05-4.14-2.29-7.38-1.97h-.79c-.79.04-1.98.4-1.98.4l-1.19.8h-.4s.53.04-.79 0c-2.45-.08-4.16 2.21-5.16 3.61-1.23 1.17.74 2.63 1.98 3.61 2.88 2.28 7.25-.14 9.13 0 1.7.12 2.43.94 2.78 1.61a35 35 0 0 1 1.19 4.82l1.19-1.2.55-2.97 3.82.56s.7-2.85-.52-5.51z" fill="#151823"/><g stroke-width=".89" class="F"><path d="M698.85 288.6a8.7 8.7 0 0 1 4.79 1.32c1.21.81 1.89 1.87 1.89 2.99s-.68 2.18-1.89 2.99a8.7 8.7 0 0 1-4.79 1.32 8.7 8.7 0 0 1-4.79-1.32c-1.21-.81-1.89-1.87-1.89-2.99s.68-2.18 1.89-2.99a8.7 8.7 0 0 1 4.79-1.32zm11.28 13.07c1.39 0 2.52 1.13 2.52 2.52s-1.13 2.52-2.52 2.52-2.52-1.13-2.52-2.52 1.13-2.52 2.52-2.52z"/></g><path d="M649.5 250.55l1.35-5.46h.73l.05 1.15-1.44 5.6h-.77l.09-1.29zm-.85-5.46l1.1 5.44v1.31h-.84l-1.53-6.75h1.27zm4.37 5.42l1.08-5.42h1.27l-1.53 6.75H653l.01-1.34zm-1.1-5.42l1.35 5.48.08 1.28h-.77l-1.43-5.61.06-1.15h.72zm5.37-.37v7.13h-1.23v-7.12h1.23zm-.19 4.43h-.36a3.2 3.2 0 0 1 .14-.97c.09-.29.22-.55.39-.76a1.8 1.8 0 0 1 .61-.51c.24-.12.5-.18.79-.18.25 0 .47.03.67.11s.38.18.52.33.26.35.33.59.12.53.12.88v3.2h-1.23v-3.21c0-.23-.03-.41-.1-.55s-.17-.23-.29-.29-.28-.09-.46-.09c-.2 0-.37.04-.51.12s-.26.18-.35.31-.16.29-.2.46-.06.36-.06.56zm6.55 2.78c-.38 0-.72-.06-1.02-.19s-.56-.3-.77-.52-.37-.48-.49-.77a2.7 2.7 0 0 1-.17-.96v-.19c0-.39.06-.74.17-1.05s.27-.59.47-.82.45-.41.73-.53.6-.19.94-.19a2.3 2.3 0 0 1 .94.18 1.8 1.8 0 0 1 .68.5c.18.22.32.48.41.78s.14.63.14 1v.52h-3.93v-.84h2.73v-.09c-.01-.19-.04-.37-.11-.53s-.17-.29-.32-.39-.33-.15-.55-.15c-.18 0-.34.04-.48.12s-.25.19-.33.33-.15.31-.19.51-.07.42-.07.66v.19c0 .21.03.41.08.58a1.4 1.4 0 0 0 .25.47c.12.13.25.23.41.31s.34.11.55.11a1.6 1.6 0 0 0 .7-.15c.21-.1.39-.25.55-.45l.62.64c-.1.16-.25.3-.43.45s-.39.26-.64.35-.54.13-.87.13zm4.06-4.04v3.95h-1.22v-5.02h1.15l.07 1.07zm-.19 1.26h-.36c0-.36.05-.69.15-.99s.23-.55.4-.77.38-.38.63-.49.51-.17.81-.17c.24 0 .46.03.65.1s.36.18.5.32.25.34.32.58a2.9 2.9 0 0 1 .12.88v3.22h-1.23v-3.23a1.2 1.2 0 0 0-.1-.54c-.07-.13-.16-.23-.29-.28s-.28-.08-.46-.08-.35.04-.5.12-.26.18-.35.31-.16.29-.21.46-.07.36-.07.56zm8.06 1.49l1.1-3.81h.78l-.23 1.32-1.11 3.7h-.67l.13-1.21zm-.61-3.81l.83 3.82.07 1.2h-.78l-1.32-5.02h1.19zm3.51 3.77l.81-3.77h1.19l-1.31 5.02h-.77l.09-1.25zm-.9-3.77l1.09 3.78.14 1.24h-.67l-1.12-3.7-.23-1.32h.78zm4.92 0v5.02h-1.23v-5.02h1.23zm-1.31-1.31c0-.18.06-.33.19-.46s.3-.18.51-.18.38.06.51.18a.6.6 0 0 1 .19.46c0 .18-.06.33-.19.45s-.29.18-.51.18-.38-.06-.51-.18-.19-.27-.19-.45zm3.78-.79v7.13h-1.23v-7.12h1.23zm2.47 0v7.13h-1.23v-7.12h1.23zm-37.3 15.11v.88h-2.88v-.88h2.88zm-2.11-1.23h1.23v4.81c0 .15.02.26.06.34s.1.13.18.16.18.04.29.04a1.7 1.7 0 0 0 .22-.01l.17-.03v.92c-.1.03-.22.06-.35.08s-.27.03-.43.03c-.27 0-.52-.05-.72-.14s-.37-.25-.48-.46-.17-.5-.17-.84v-4.9zm4.12-.87v7.13h-1.23v-7.12h1.23zm-.19 4.43h-.36a3.2 3.2 0 0 1 .14-.97 2.4 2.4 0 0 1 .39-.76 1.8 1.8 0 0 1 .61-.51c.24-.12.5-.18.79-.18.25 0 .47.03.67.11s.38.18.52.33.26.35.33.59.12.54.12.88v3.2h-1.23v-3.21c0-.23-.03-.42-.1-.55s-.17-.23-.29-.29-.28-.09-.46-.09c-.2 0-.37.04-.51.12s-.26.18-.35.31-.16.29-.2.46-.06.36-.06.56zm6.55 2.78c-.38 0-.72-.06-1.02-.19s-.56-.29-.77-.51-.37-.48-.49-.77a2.7 2.7 0 0 1-.17-.96v-.19c0-.39.06-.74.17-1.05s.27-.59.47-.82.45-.41.73-.53.6-.18.94-.18a2.3 2.3 0 0 1 .94.18 1.8 1.8 0 0 1 .68.5c.18.22.32.48.41.78s.14.63.14 1v.51h-3.93v-.84h2.73v-.09c-.01-.19-.04-.37-.11-.53s-.17-.29-.32-.39-.33-.15-.55-.15c-.18 0-.34.04-.48.12s-.25.19-.33.33-.15.31-.19.51a3.1 3.1 0 0 0-.07.66v.19c0 .21.03.41.08.58s.14.34.26.47.25.23.41.31.34.11.55.11a1.6 1.6 0 0 0 .7-.15c.21-.1.39-.25.55-.45l.62.64c-.1.16-.25.3-.43.45s-.39.26-.64.35-.54.13-.87.13zm4.26-.65l1.35-4.46h1.31l-2.01 5.78c-.05.12-.11.26-.18.4s-.17.28-.29.41-.27.24-.45.32-.4.13-.65.13c-.11 0-.21-.01-.3-.02l-.27-.06v-.92a1.1 1.1 0 0 0 .11 0h.11c.18 0 .33-.02.44-.06s.21-.11.28-.2.14-.21.19-.35l.37-.97zm-.66-4.46l1.14 3.7.2 1.29-.84.15-1.81-5.14h1.32zm7.51 1.03v3.99h-1.23v-5.02h1.16l.07 1.03zm1.53-1.06l-.02 1.14c-.07-.01-.14-.02-.23-.03l-.24-.01c-.19 0-.35.03-.5.08s-.26.12-.36.22-.16.21-.21.35-.08.29-.08.46l-.26-.03a3.8 3.8 0 0 1 .1-.89c.06-.27.16-.51.28-.71s.28-.36.46-.47.41-.17.65-.17c.07 0 .14.01.22.02s.14.02.19.04zm2.83 5.15c-.38 0-.72-.06-1.02-.19s-.56-.29-.78-.51-.37-.48-.49-.77a2.7 2.7 0 0 1-.17-.96v-.19c0-.39.06-.74.17-1.05s.27-.59.47-.82a2.1 2.1 0 0 1 .73-.53c.28-.12.6-.18.94-.18a2.3 2.3 0 0 1 .94.18c.27.12.5.28.68.5s.32.48.41.78.14.63.14 1v.51h-3.93v-.84h2.73v-.09a1.5 1.5 0 0 0-.11-.53c-.07-.16-.17-.29-.31-.39s-.33-.15-.55-.15c-.18 0-.34.04-.48.12s-.24.19-.33.33-.15.31-.19.51a3.1 3.1 0 0 0-.07.66v.19c0 .21.03.41.08.58s.14.34.25.47.25.23.41.31.34.11.55.11a1.6 1.6 0 0 0 .7-.15c.21-.1.39-.25.55-.45l.62.64c-.11.16-.25.3-.43.45a2.2 2.2 0 0 1-.64.35c-.25.09-.54.13-.87.13zm5.62-1.47c0-.11-.03-.2-.08-.28s-.16-.16-.32-.23-.37-.14-.67-.2a4.9 4.9 0 0 1-.72-.21c-.22-.08-.41-.18-.57-.3s-.28-.26-.37-.42-.13-.35-.13-.57c0-.21.04-.4.13-.58s.22-.35.39-.49.38-.25.62-.33.52-.12.83-.12c.43 0 .79.07 1.1.21s.54.33.71.58.25.51.25.82h-1.22c0-.13-.03-.25-.09-.36s-.15-.19-.27-.26-.28-.1-.47-.1a1 1 0 0 0-.43.08c-.11.06-.2.13-.26.22s-.09.19-.09.3a.5.5 0 0 0 .05.22c.03.06.09.12.16.17a1.2 1.2 0 0 0 .3.14c.13.04.29.09.48.13a4.6 4.6 0 0 1 .98.3c.28.12.5.28.66.48s.24.46.24.77c0 .22-.05.43-.14.61s-.23.34-.42.48a2.1 2.1 0 0 1-.65.32c-.25.07-.54.11-.86.11-.46 0-.85-.08-1.17-.25s-.56-.38-.72-.63-.25-.52-.25-.8h1.17c.01.19.06.35.16.47s.22.2.36.26.3.07.47.07c.19 0 .34-.02.47-.07s.22-.12.29-.21.1-.19.1-.31zm3.35-2.68v5.98h-1.23v-6.95h1.14l.09.97zm3.22 1.49v.1c0 .37-.04.7-.13 1.02s-.21.58-.37.81-.37.41-.61.54-.52.19-.84.19c-.31 0-.58-.06-.81-.18s-.42-.29-.58-.51-.28-.48-.38-.76-.16-.61-.21-.96v-.31c.05-.37.12-.7.21-1s.22-.56.38-.78.35-.39.57-.51a1.7 1.7 0 0 1 .8-.18c.32 0 .6.06.84.18s.45.29.62.52.29.5.38.81a4 4 0 0 1 .13 1.04zm-1.23.1v-.1c0-.22-.02-.43-.06-.62s-.1-.36-.19-.5-.19-.26-.33-.34-.29-.12-.48-.12-.35.03-.49.09-.25.15-.33.26-.15.25-.2.41-.08.33-.09.51v.77c.03.23.08.44.16.62s.2.33.35.44.36.16.61.16c.19 0 .35-.04.48-.13s.24-.2.32-.34.14-.32.18-.51.06-.4.06-.61zm1.91 0v-.1c0-.37.05-.71.16-1.02s.26-.58.46-.81.45-.41.74-.53.62-.19.99-.19c.38 0 .71.06 1 .19s.54.3.74.53.35.5.46.81.16.65.16 1.02v.1c0 .37-.05.7-.16 1.02a2.4 2.4 0 0 1-.46.81c-.2.23-.45.41-.74.53s-.62.19-1 .19-.7-.06-1-.19-.54-.3-.74-.53a2.4 2.4 0 0 1-.46-.81c-.11-.31-.16-.65-.16-1.02zm1.23-.1v.1c0 .22.02.43.07.62s.11.36.2.51.21.26.35.34.32.12.52.12.37-.04.51-.12a1 1 0 0 0 .35-.34c.09-.15.16-.31.2-.51s.07-.4.07-.62v-.1c0-.22-.02-.42-.07-.61s-.11-.36-.2-.5-.21-.26-.35-.35-.31-.13-.51-.13-.37.04-.51.13-.26.2-.35.35-.16.31-.2.5-.07.39-.07.61zm5.58-1.39v3.95h-1.23v-5.02h1.15l.07 1.07zm-.2 1.26h-.36a3.3 3.3 0 0 1 .15-.99c.1-.3.23-.55.4-.77s.38-.38.63-.49.51-.17.81-.17c.24 0 .46.03.65.1s.36.18.5.32.25.34.32.58.12.53.12.88v3.22h-1.23v-3.23a1.2 1.2 0 0 0-.1-.54c-.07-.13-.16-.23-.29-.28s-.28-.08-.46-.08c-.19 0-.35.04-.5.12s-.26.18-.35.31-.16.29-.21.46-.07.36-.07.56zm7.31 1.62v-6.06h1.23v7.13h-1.11l-.12-1.07zm-3.22-1.38v-.1a3.9 3.9 0 0 1 .13-1.04c.09-.31.22-.59.39-.81a1.8 1.8 0 0 1 .62-.53c.24-.12.52-.18.83-.18.3 0 .56.06.78.18s.42.29.58.51.29.49.38.79a5.5 5.5 0 0 1 .21 1v.26a5.3 5.3 0 0 1-.21.98 2.8 2.8 0 0 1-.38.78c-.16.22-.35.39-.58.51s-.49.18-.79.18-.58-.06-.83-.19a1.8 1.8 0 0 1-.62-.53c-.17-.23-.3-.5-.39-.81s-.13-.65-.13-1.01zm1.23-.1v.1c0 .22.02.42.06.61s.1.36.18.5.19.25.32.33.29.12.48.12c.24 0 .44-.05.59-.16s.28-.25.37-.44.14-.4.17-.63V262c-.01-.19-.05-.36-.1-.51s-.12-.29-.21-.41-.2-.2-.33-.27-.29-.1-.47-.1-.35.04-.48.13-.24.19-.33.34-.14.31-.18.51a3.2 3.2 0 0 0-.06.62z" class="J"/><path d="M716.54 259.83c0-1.63.22-2.93.65-3.9s1.22-1.92 2.37-2.85 1.91-1.7 2.29-2.29c.37-.56.57-1.2.57-1.86 0-1.97-.99-2.95-2.97-2.95-.94 0-1.69.26-2.25.8s-.86 1.26-.88 2.2h-5.52c.02-2.22.81-3.96 2.35-5.22s3.64-1.89 6.31-1.89c2.69 0 4.78.6 6.26 1.79s2.23 2.88 2.23 5.06a5.8 5.8 0 0 1-.72 2.8c-.48.88-1.33 1.85-2.53 2.93l-1.54 1.35c-.96.85-1.52 1.85-1.65 2.99l-.08 1.07-4.88-.01zm-.55 5.35c0-.78.29-1.42.87-1.92s1.32-.76 2.22-.76 1.64.25 2.22.76.87 1.14.87 1.92c0 .76-.28 1.4-.85 1.9s-1.31.75-2.23.75-1.67-.25-2.24-.75-.85-1.13-.85-1.9z" class="C"/><path d="M718.49 267.97c-.95 0-1.72-.26-2.3-.77a2.5 2.5 0 0 1-.87-1.95c0-.8.3-1.46.89-1.98s1.36-.78 2.28-.78 1.68.26 2.28.78.89 1.18.89 1.98a2.5 2.5 0 0 1-.87 1.95c-.58.52-1.35.77-2.29.77zm0-5.32c-.88 0-1.6.25-2.16.74s-.84 1.12-.84 1.87c0 .74.28 1.36.82 1.84s1.28.73 2.18.73 1.63-.24 2.18-.73.82-1.1.82-1.84c0-.75-.28-1.38-.84-1.87s-1.29-.74-2.16-.74zm2.42-2.67h-5.03v-.08c0-1.63.22-2.95.65-3.93a8.2 8.2 0 0 1 2.39-2.88c1.14-.93 1.9-1.69 2.28-2.27.36-.55.55-1.18.56-1.83a2.5 2.5 0 0 0-2.88-2.87c-.91 0-1.65.26-2.19.77s-.83 1.23-.86 2.14v.08h-5.68v-.08c.02-2.24.83-4.01 2.38-5.28s3.69-1.91 6.36-1.91c2.7 0 4.83.61 6.32 1.81s2.25 2.92 2.25 5.11c0 .99-.25 1.96-.73 2.84-.48.89-1.34 1.88-2.55 2.95l-1.54 1.34a4.6 4.6 0 0 0-1.63 2.94l-.08 1.14zm-4.87-.15h4.71l.07-1c.14-1.16.71-2.18 1.68-3.04l1.54-1.35c1.19-1.06 2.04-2.04 2.51-2.9.47-.86.72-1.81.71-2.77 0-2.14-.74-3.83-2.2-5s-3.55-1.77-6.21-1.77c-2.63 0-4.73.63-6.25 1.87a6.4 6.4 0 0 0-2.32 5.09h5.35c.04-.91.35-1.65.9-2.17.58-.54 1.36-.82 2.32-.82 2.02 0 3.05 1.02 3.05 3.03 0 .67-.2 1.33-.58 1.9-.38.59-1.16 1.37-2.31 2.31-1.13.93-1.92 1.88-2.35 2.83-.41.94-.63 2.21-.63 3.79z" class="B"/><g stroke-width=".89" class="F"><path d="M779.6 238.13c-2.38 0-4.52.64-6.05 1.66s-2.41 2.38-2.41 3.83.88 2.81 2.41 3.83 3.67 1.66 6.05 1.66 4.52-.64 6.05-1.66 2.41-2.38 2.41-3.83-.88-2.81-2.41-3.83-3.67-1.66-6.05-1.66zm-9.5 27.91c-1.72 0-3.12 1.4-3.12 3.12s1.4 3.12 3.12 3.12 3.12-1.39 3.12-3.12-1.4-3.12-3.12-3.12z"/></g><path d="M742.7 193.45l1.68-6.82h.91l.06 1.44-1.8 7h-.96l.11-1.62zm-1.06-6.82l1.38 6.8v1.64h-1.05l-1.91-8.44h1.58zm5.46 6.77l1.36-6.77h1.59l-1.91 8.44h-1.05l.02-1.67zm-1.37-6.77l1.68 6.85.1 1.59h-.96l-1.79-7.01.07-1.43h.9zm6.71-.46v8.91h-1.54v-8.91h1.54zm-.24 5.54h-.45a4 4 0 0 1 .17-1.21c.12-.37.28-.69.49-.96.21-.28.47-.49.76-.64s.63-.23.99-.23a2.5 2.5 0 0 1 .84.13c.25.08.47.22.65.41s.32.44.42.74a3.5 3.5 0 0 1 .15 1.1v4h-1.54v-4.01c0-.29-.04-.52-.13-.68s-.21-.29-.37-.37-.35-.11-.57-.11c-.25 0-.46.05-.64.15s-.32.22-.44.39-.2.36-.25.57a2.9 2.9 0 0 0-.08.7zm8.83 2.03v-2.89c0-.21-.04-.4-.11-.55a.8.8 0 0 0-.34-.36c-.15-.09-.34-.13-.57-.13a1.3 1.3 0 0 0-.54.1c-.15.07-.27.17-.35.3-.08.12-.12.27-.12.43h-1.54c0-.26.06-.5.19-.74s.3-.44.53-.63.51-.33.83-.44.69-.16 1.09-.16c.48 0 .9.08 1.27.24s.67.4.88.72.32.73.32 1.21v2.74a4.9 4.9 0 0 0 .06.81c.04.22.11.41.19.57v.1h-1.56c-.07-.16-.13-.36-.17-.6s-.06-.49-.06-.73zm.21-2.49l.01.91h-.97c-.24 0-.45.03-.63.08s-.33.12-.45.21-.2.2-.26.32-.09.26-.09.42.03.29.11.42.18.22.31.3.3.1.49.1c.27 0 .51-.05.71-.16s.36-.25.47-.41.17-.31.18-.45l.44.66c-.05.16-.13.33-.24.5s-.25.34-.42.5-.37.28-.61.38-.52.15-.84.15c-.41 0-.77-.08-1.09-.24s-.57-.38-.76-.67-.28-.6-.28-.96a2 2 0 0 1 .18-.88 1.7 1.7 0 0 1 .55-.64c.24-.18.54-.31.9-.4s.78-.14 1.25-.14h1.03zm5.68-2.45v1.1h-3.6v-1.1h3.6zm-2.63-1.54h1.54v6.01c0 .19.02.33.08.43s.13.17.23.2.22.05.36.05c.1 0 .19-.01.28-.02l.22-.03.01 1.15c-.13.04-.27.08-.43.1s-.34.04-.54.04c-.34 0-.65-.06-.9-.17a1.3 1.3 0 0 1-.6-.57c-.14-.27-.21-.62-.21-1.06v-6.13zm8.23 1.54v6.27h-1.54v-6.27h1.54zm-1.64-1.64c0-.23.08-.42.23-.57s.37-.23.64-.23.48.08.63.23.24.34.24.57-.08.41-.24.56-.37.23-.63.23-.48-.08-.64-.23-.23-.34-.23-.56zm6.55 6.2c0-.13-.03-.25-.1-.35a.9.9 0 0 0-.39-.28 4 4 0 0 0-.84-.25c-.33-.07-.62-.16-.9-.26a2.9 2.9 0 0 1-.71-.38c-.2-.15-.35-.33-.46-.53a1.5 1.5 0 0 1-.16-.71c0-.26.06-.5.17-.73s.27-.44.49-.61.47-.32.78-.42a3.2 3.2 0 0 1 1.03-.16 3.3 3.3 0 0 1 1.37.26c.39.17.68.41.89.72s.31.64.31 1.02h-1.53a.9.9 0 0 0-.12-.45c-.07-.13-.19-.24-.34-.33s-.35-.13-.59-.13c-.21 0-.39.03-.54.1s-.25.16-.33.27-.11.24-.11.37c0 .1.02.19.06.27s.11.15.2.22.22.13.38.18.36.11.6.16a5.8 5.8 0 0 1 1.22.37c.35.15.63.35.82.6s.29.57.29.96c0 .28-.06.53-.18.77s-.29.43-.52.6-.5.3-.82.4a3.8 3.8 0 0 1-1.07.14c-.58 0-1.06-.1-1.46-.31s-.7-.47-.9-.79-.31-.65-.31-1h1.47c.01.24.08.44.2.59s.27.25.45.32.38.09.59.09c.23 0 .43-.03.59-.09s.28-.15.36-.26.12-.24.12-.38zm7.14-3.27v4.99h-1.53v-6.27h1.44l.09 1.29zm-.23 1.62h-.47a4.4 4.4 0 0 1 .16-1.21c.11-.37.27-.69.48-.96.21-.28.47-.49.77-.64.31-.15.67-.23 1.07-.23.28 0 .54.04.78.13a1.5 1.5 0 0 1 .61.39 1.7 1.7 0 0 1 .4.68c.09.28.14.61.14 1v4.19h-1.53v-4.03c0-.29-.04-.52-.13-.69s-.2-.28-.35-.35-.34-.11-.56-.11c-.24 0-.45.05-.62.15a1.2 1.2 0 0 0-.42.39c-.11.17-.19.36-.24.57a3.1 3.1 0 0 0-.08.7zm3.82-.28l-.63.12a3.9 3.9 0 0 1 .16-1.11c.1-.35.26-.65.46-.91s.46-.47.76-.61c.31-.15.66-.23 1.06-.23.31 0 .59.04.83.13.25.08.47.22.64.41a1.8 1.8 0 0 1 .41.73c.1.3.14.66.14 1.09v4.03h-1.54v-4.04c0-.31-.04-.54-.13-.7s-.2-.27-.35-.34-.34-.1-.54-.1-.4.04-.56.12-.29.19-.39.32a1.5 1.5 0 0 0-.24.49c-.05.18-.08.38-.08.59zm7.04 2.95l1.68-5.58h1.64l-2.52 7.22c-.06.16-.13.32-.23.5s-.21.35-.36.52-.34.3-.57.41-.5.16-.82.16c-.14 0-.26-.01-.37-.03l-.34-.08v-1.15c.04 0 .08.01.13.01l.14.01c.22 0 .41-.03.56-.08s.26-.13.35-.25.17-.26.23-.44l.46-1.22zm-.83-5.58l1.42 4.62.25 1.62-1.05.19-2.27-6.43h1.65zm-52.16 12.83v8.44h-1.6v-8.44h1.6zm3.4 3.65v1.26h-3.82v-1.26h3.82zm.45-3.65v1.26h-4.27v-1.26h4.27zm3.66 8.56c-.48 0-.9-.08-1.28-.23s-.7-.37-.97-.64-.47-.6-.61-.97-.21-.77-.21-1.2v-.23c0-.48.07-.92.21-1.32a3 3 0 0 1 .59-1.03 2.6 2.6 0 0 1 .92-.66 2.9 2.9 0 0 1 1.18-.23c.44 0 .84.07 1.18.23s.62.35.85.63.4.59.52.97a4.2 4.2 0 0 1 .17 1.25v.64h-4.92v-1.06h3.41v-.12c-.01-.24-.05-.47-.14-.67s-.22-.37-.39-.49-.41-.19-.69-.19c-.23 0-.43.05-.6.15s-.3.23-.42.42-.19.39-.24.64-.08.52-.08.82v.23c0 .26.03.51.1.73.07.22.18.42.32.58s.31.29.51.38.43.13.68.13c.32 0 .61-.06.87-.19s.49-.31.68-.56l.77.8a2.6 2.6 0 0 1-.53.56c-.22.18-.49.32-.8.44s-.67.16-1.08.16zm6.39 0c-.48 0-.9-.08-1.28-.23s-.7-.37-.97-.64-.47-.6-.61-.97-.21-.77-.21-1.2v-.23c0-.48.07-.92.21-1.32s.34-.74.59-1.03a2.6 2.6 0 0 1 .92-.66 2.9 2.9 0 0 1 1.18-.23c.44 0 .84.07 1.18.23s.62.35.85.63.4.59.52.97a4.2 4.2 0 0 1 .17 1.25v.64h-4.92v-1.06h3.41v-.12c-.01-.24-.05-.47-.14-.67s-.22-.37-.39-.49-.41-.19-.69-.19c-.23 0-.43.05-.6.15s-.31.23-.42.42-.19.39-.24.64-.08.52-.08.82v.23c0 .26.03.51.1.73s.18.42.32.58.31.29.51.38.43.13.68.13c.32 0 .61-.06.87-.19s.49-.31.68-.56l.77.8c-.13.19-.31.38-.53.56s-.49.32-.8.44-.68.16-1.08.16zm7.33-1.45v-7.57h1.54v8.91h-1.39l-.15-1.33zm-4.03-1.73v-.12a4.9 4.9 0 0 1 .16-1.3c.11-.39.27-.73.49-1.01s.47-.5.77-.66.65-.23 1.04-.23c.38 0 .7.07.98.23s.52.37.72.64.36.61.48.99a6.8 6.8 0 0 1 .26 1.25v.33c-.05.44-.14.85-.26 1.22a3.5 3.5 0 0 1-.48.97c-.2.27-.44.49-.72.64s-.61.23-.99.23-.73-.08-1.03-.24-.56-.38-.77-.67a3.2 3.2 0 0 1-.48-1.01 4.7 4.7 0 0 1-.16-1.26zm1.54-.12v.12a3.9 3.9 0 0 0 .07.76c.05.24.12.44.23.63s.24.32.4.42.37.15.6.15c.3 0 .55-.07.74-.2s.35-.32.46-.55.18-.5.21-.79v-.91c-.01-.23-.06-.45-.12-.64s-.15-.37-.27-.51-.25-.26-.42-.34-.36-.12-.59-.12c-.24 0-.44.05-.6.16s-.3.24-.41.42-.18.39-.23.63-.07.5-.07.78zm5.42-5.72h1.54v7.52l-.15 1.39h-1.39v-8.91zm5.57 5.71v.12c0 .47-.05.9-.16 1.29s-.25.73-.46 1.02-.46.5-.76.66a2.3 2.3 0 0 1-1.06.23c-.39 0-.72-.07-1.01-.23s-.52-.36-.71-.64-.35-.6-.46-.98-.2-.79-.26-1.24v-.33a7.4 7.4 0 0 1 .26-1.24c.12-.37.27-.7.46-.98s.43-.49.71-.64.62-.23 1-.23a2.3 2.3 0 0 1 1.07.24c.31.16.56.38.76.66s.36.62.46 1.01a4.9 4.9 0 0 1 .16 1.28zm-1.54.12v-.12a4.3 4.3 0 0 0-.06-.75c-.04-.24-.11-.45-.21-.63s-.23-.32-.39-.43-.37-.16-.63-.16c-.24 0-.44.04-.61.12s-.31.19-.42.34-.19.31-.25.5-.1.4-.12.63v.9a2.7 2.7 0 0 0 .19.81c.1.24.25.42.45.56s.46.21.78.21c.25 0 .45-.05.62-.15s.3-.24.4-.42.16-.39.2-.63.06-.5.06-.78zm6.11 1.75v-2.89c0-.21-.04-.4-.11-.55a.8.8 0 0 0-.34-.36c-.15-.09-.34-.13-.57-.13a1.3 1.3 0 0 0-.54.1c-.15.07-.27.17-.35.3-.08.12-.12.27-.12.43h-1.54c0-.26.06-.5.19-.74s.3-.44.53-.63.51-.33.83-.44.69-.16 1.09-.16c.48 0 .9.08 1.27.24s.67.4.88.72.32.73.32 1.21v2.74a4.9 4.9 0 0 0 .06.81c.04.22.11.41.19.57v.1h-1.56c-.07-.16-.13-.36-.17-.6s-.06-.49-.06-.73zm.22-2.49l.01.91h-.97a2.4 2.4 0 0 0-.63.08c-.18.05-.33.12-.45.21s-.2.2-.26.32-.09.26-.09.42.03.29.1.42.18.22.31.3.3.1.49.1c.27 0 .51-.05.71-.16s.36-.25.47-.41.17-.31.18-.45l.44.66c-.05.16-.14.33-.24.5s-.25.34-.42.5-.37.28-.61.38-.52.15-.84.15c-.41 0-.77-.08-1.09-.24s-.57-.38-.76-.67-.28-.6-.28-.96a2 2 0 0 1 .19-.88c.12-.25.31-.47.55-.64s.55-.31.91-.4.78-.14 1.25-.14h1.03zm5.28 2.73c.22 0 .41-.04.58-.13s.3-.21.41-.36.16-.33.17-.54h1.44c-.01.43-.13.81-.36 1.14s-.54.6-.93.8c-.38.19-.81.29-1.29.29-.48 0-.9-.08-1.26-.24s-.66-.39-.9-.68-.41-.63-.53-1.01-.17-.79-.17-1.23v-.19a4.2 4.2 0 0 1 .17-1.23c.12-.38.3-.72.53-1.01s.54-.52.9-.68.78-.24 1.26-.24c.51 0 .95.1 1.33.29a2.2 2.2 0 0 1 .9.84c.22.36.34.78.34 1.27h-1.44c-.01-.22-.06-.43-.15-.6s-.22-.32-.39-.43-.38-.16-.62-.16c-.26 0-.48.05-.65.16s-.3.26-.4.45-.16.39-.2.63-.05.47-.05.72v.19a4.9 4.9 0 0 0 .05.73c.04.23.1.44.2.63s.23.33.4.44.39.16.66.16zm5.15-7.82v8.91h-1.53v-8.91h1.53zm3.93 2.64l-2.73 3.07-1.48 1.5-.49-1.19 1.14-1.44 1.7-1.94h1.85zm-1.57 6.27l-1.94-2.92 1.02-.99 2.7 3.91h-1.77z" class="J"/><path d="M817.32 204.32c0-1.93.23-3.46.69-4.6a9.4 9.4 0 0 1 2.53-3.37c1.22-1.11 2.04-2.01 2.44-2.7a4.3 4.3 0 0 0 .61-2.2c0-2.33-1.06-3.49-3.17-3.49-1 0-1.8.31-2.4.94s-.92 1.49-.95 2.6h-5.89c.03-2.63.86-4.69 2.51-6.17s3.89-2.23 6.73-2.23c2.87 0 5.1.71 6.68 2.12s2.37 3.4 2.37 5.97a7.4 7.4 0 0 1-.77 3.31c-.51 1.04-1.42 2.19-2.7 3.46l-1.64 1.59a5.7 5.7 0 0 0-1.76 3.53l-.08 1.26-5.2-.01zm-.59 6.32c0-.92.31-1.67.92-2.27s1.4-.89 2.36-.89 1.75.3 2.36.89.92 1.35.92 2.27c0 .9-.3 1.65-.9 2.24s-1.4.88-2.38.88-1.78-.3-2.38-.88a3 3 0 0 1-.91-2.24z" class="C"/><path d="M819.39 213.94c-1.01 0-1.83-.31-2.45-.91a3.1 3.1 0 0 1-.93-2.31c0-.94.32-1.73.95-2.34s1.45-.92 2.43-.92 1.79.31 2.43.92.95 1.4.95 2.34a3.1 3.1 0 0 1-.93 2.31c-.62.61-1.44.91-2.45.91zm0-6.29c-.93 0-1.71.29-2.3.87s-.9 1.32-.9 2.2c0 .88.29 1.61.88 2.17a3.2 3.2 0 0 0 2.32.86c.96 0 1.74-.29 2.32-.86s.88-1.3.88-2.17c0-.89-.3-1.63-.9-2.2s-1.37-.87-2.3-.87zm2.58-3.16h-5.37v-.09c0-1.93.24-3.49.7-4.64s1.32-2.3 2.55-3.41c1.21-1.1 2.03-2 2.43-2.68.39-.65.59-1.4.6-2.16 0-2.29-1-3.4-3.08-3.4-.97 0-1.76.31-2.34.91s-.89 1.46-.92 2.53v.09h-6.06v-.09c.03-2.64.88-4.74 2.54-6.24s3.94-2.25 6.79-2.25c2.88 0 5.15.72 6.74 2.14s2.4 3.46 2.4 6.04a7.5 7.5 0 0 1-.78 3.35c-.52 1.05-1.43 2.22-2.72 3.48l-1.65 1.59c-1.01.98-1.59 2.16-1.74 3.47l-.09 1.35zm-5.19-.18h5.02l.07-1.18a5.8 5.8 0 0 1 1.8-3.59l1.64-1.59c1.27-1.25 2.17-2.41 2.68-3.43.5-1.02.76-2.14.76-3.27 0-2.53-.79-4.52-2.34-5.91s-3.79-2.09-6.62-2.09c-2.81 0-5.05.74-6.67 2.21-1.6 1.44-2.43 3.46-2.48 6.01h5.71a3.8 3.8 0 0 1 .96-2.56c.62-.64 1.45-.97 2.47-.97 2.16 0 3.25 1.21 3.25 3.58a4.4 4.4 0 0 1-.62 2.25 13.2 13.2 0 0 1-2.47 2.72c-1.21 1.09-2.05 2.22-2.5 3.34-.44 1.11-.67 2.62-.68 4.48z" class="B"/><rect width="83.13" height="30.88" rx="4.75" transform="matrix(.866 .5 -.809 .5878 697.066 452.629)" fill="#589bed"/><path d="M701.75 468.07l.83.51c.23.15.42.29.59.43s.33.29.49.45l-1.21.72-.6-.38-.59-.37-.76-.45c-.35-.2-.69-.31-1.02-.33a2.3 2.3 0 0 0-1.07.24c-.4.18-.88.47-1.44.88-.56.4-.95.75-1.19 1.03-.23.28-.31.51-.25.72.07.21.28.41.63.62l1.21.68 1.02.5-.94.86c-.43-.12-.83-.26-1.21-.43-.39-.17-.83-.4-1.34-.69-.73-.42-1.21-.84-1.43-1.25-.21-.42-.17-.86.13-1.34.31-.47.88-1.02 1.73-1.63s1.61-1.05 2.31-1.3a4.2 4.2 0 0 1 2.03-.23 5.8 5.8 0 0 1 2.1.77zm3.99 4.74c.43.25.73.49.92.74.19.24.24.5.13.78-.09.27-.36.57-.79.88l-3.14 2.28-1.2-.69.81-.87.04-.16 1.97-1.43c.22-.17.33-.33.3-.46-.01-.14-.16-.3-.47-.47l-1.02-.55-1.26-.65.81-.76.96.4 1.04.5.9.47zm-.59 2.2l-.81.57-2.26-1.31c-.19-.1-.37-.15-.53-.13-.16.02-.31.08-.45.18l-.23.17c-.16.12-.24.24-.23.36.01.12.13.24.34.36.18.1.41.19.68.26a5.6 5.6 0 0 0 .92.15c.33.02.67.02 1.01-.01l-.62.45-.64.1a6.9 6.9 0 0 1-.88.04 5.5 5.5 0 0 1-.99-.12 3.5 3.5 0 0 1-.98-.39c-.3-.17-.53-.37-.69-.59-.14-.22-.19-.44-.13-.67s.23-.45.52-.66l.49-.36a2.1 2.1 0 0 1 1.3-.41c.49 0 .97.15 1.45.42l2.75 1.58zm7.31 1.68c.96.55 1 1.15.12 1.79l-3.56 2.58-1.52-.88 3.11-2.26c.21-.15.31-.28.31-.38 0-.11-.1-.22-.3-.33-.22-.13-.49-.23-.8-.3-.31-.08-.72-.16-1.22-.24l.72-.61c.65 0 1.24.05 1.77.16.54.11.99.27 1.36.49zm-2.44-1.25l-.77.78v.16l-3.68 2.67-1.51-.87 4.75-3.45 1.21.7zm6.82 3.77c.36.21.66.44.89.7s.37.54.4.85l-.75.41-.46-.48c-.13-.14-.32-.29-.57-.43-.21-.12-.42-.2-.62-.22s-.43.02-.7.13a5.5 5.5 0 0 0-1 .61 4.4 4.4 0 0 0-.78.68c-.13.18-.17.33-.13.45.06.13.19.25.39.36.18.1.35.18.51.23.17.05.35.08.55.11l.73.06-.6.57c-.47.08-.97.09-1.48.03-.51-.06-1-.23-1.48-.5-.65-.38-.9-.8-.75-1.28.16-.47.65-1.01 1.46-1.6.63-.46 1.2-.78 1.7-.95.5-.18.97-.24 1.4-.18.44.06.87.21 1.29.46zm5.01.48l-6.73 4.89-1.2-.69.72-.72-.06-.17 3.11-2.26.2-.06.54-.46.61-.46 1.29-.94 1.52.88zm.81 3.05l-4.75 3.45-1.5-.87 4.75-3.45 1.5.87zm1.67-1.76c.3.17.31.36.03.57l-.52.38c-.28.2-.57.22-.87.05l-.66-.38c-.3-.17-.31-.36-.03-.57l.52-.38c.28-.2.57-.22.88-.05l.66.38zm1.48 3.42c.36.21.66.44.89.7s.37.54.4.85l-.75.41-.46-.48c-.13-.15-.33-.29-.57-.43-.21-.12-.42-.2-.62-.22a1.4 1.4 0 0 0-.7.13c-.27.11-.6.32-1.01.61-.38.28-.64.5-.78.68-.13.18-.17.33-.13.45.06.13.19.25.39.36.18.1.35.18.51.23.17.05.35.08.55.11l.73.06-.6.57c-.48.08-.97.09-1.48.03-.51-.06-1-.23-1.48-.51-.65-.38-.9-.8-.75-1.28.16-.48.65-1.01 1.46-1.6.63-.46 1.2-.78 1.7-.95.5-.18.97-.24 1.4-.18.44.06.87.21 1.29.46zm5.01.48l-6.73 4.89-1.2-.69.72-.72-.06-.17 3.11-2.26.2-.06.53-.45.61-.46 1.29-.94 1.52.88zm2.07 3.61c.42.25.73.49.92.74.19.25.24.5.13.78-.09.27-.36.57-.79.88l-3.14 2.28-1.2-.69.81-.87.04-.16 1.97-1.43c.22-.17.33-.33.31-.46-.01-.14-.17-.3-.47-.47l-1.02-.55-1.26-.65.81-.76.96.4 1.04.5.9.47zm-.59 2.2l-.81.57-2.26-1.31c-.19-.1-.37-.15-.54-.13-.16.02-.31.08-.45.18l-.23.17c-.16.12-.24.23-.23.35.01.12.13.24.34.36.18.1.41.19.68.26a5.5 5.5 0 0 0 .93.14c.33.03.67.02 1.01-.01l-.62.45-.64.11a6.9 6.9 0 0 1-.88.04 5.7 5.7 0 0 1-.99-.12c-.34-.08-.66-.21-.98-.39-.3-.17-.53-.37-.69-.59-.14-.22-.19-.44-.13-.67s.23-.45.52-.66l.49-.36a2.1 2.1 0 0 1 1.29-.4c.49 0 .97.14 1.45.42l2.75 1.59zm6.95-.08l-4.54 3.3c-.17.13-.26.24-.25.34.02.1.13.21.33.33l.66.38-.8.79a4.5 4.5 0 0 1-.55-.19l-.6-.26-.47-.25c-.46-.27-.71-.56-.74-.87-.02-.31.17-.62.59-.92l4.86-3.53 1.52.88zm.1 1.78l-.93.68-3.83-2.21.88-.64 1.03.54 2.84 1.64zm3.34 1.77c.86.5 1.33.95 1.43 1.36.11.41-.11.81-.64 1.21-.42.32-.86.48-1.32.5s-.98-.14-1.57-.48l-2.84-1.64.8-.58 2.43 1.4c.23.13.41.18.57.15.16-.03.33-.11.5-.23.22-.16.31-.31.26-.45-.04-.14-.22-.3-.55-.49-.27-.17-.53-.27-.76-.3a1.3 1.3 0 0 0-.73.1 5 5 0 0 0-.96.57 3.6 3.6 0 0 0-.81.74c-.14.2-.16.38-.06.54.1.17.31.34.64.53l.88.49 1.14.54-.73.72c-.29-.05-.59-.13-.89-.24a8.7 8.7 0 0 1-.89-.37l-.81-.42c-.64-.37-1.08-.73-1.29-1.08-.21-.36-.22-.72-.04-1.09a3.8 3.8 0 0 1 1.15-1.17c.62-.45 1.2-.76 1.74-.93a3.4 3.4 0 0 1 1.63-.08c.54.11 1.13.34 1.75.7z" class="B"/><path d="M971.8 468.8c19.51-5.47 33.52-17.01 31.3-25.78-2.23-8.76-19.86-11.44-39.37-5.96s-33.52 17.01-31.29 25.77 19.85 11.44 39.37 5.97z" fill="#b6d7ff"/><path d="M1003.32 456.78c.27-2.75.01-12.11.01-12.11-.18.92-.51 3.57-1.64 5.5-3.56 6.05-10.67 10.18-13.41 11.83-3.01 1.65-10.4 5.23-17.78 7.15-7.93 1.65-9.03 2.2-19.15 2.48-9.85-.28-12.86-2.48-15.87-4.4-2.47-1.93-3.01-3.85-3.28-6.6v9.36c0 1.1-.27 3.58 2.74 5.78 3.34 2.44 5.75 3.3 10.4 4.13 9.28 1.65 19.42-.27 24.07-1.65s14.15-4.39 22.98-9.91c7.93-4.95 10.66-8.81 10.94-11.56z" fill="#8fc1ff"/><rect width="83.13" height="30.88" rx="4.75" transform="matrix(-.866 .5 .809 .5878 1026.01 453.219)" fill="#4d9dff"/><path d="M980.19 492.59a7.1 7.1 0 0 1 1.69-.74c.51-.14.99-.16 1.45-.06a3.9 3.9 0 0 1 1.47.71 2.7 2.7 0 0 1 .68.67c.15.21.19.43.14.65s-.24.44-.54.67l.05.03a2 2 0 0 1 .51-.12 2.6 2.6 0 0 1 .7.01c.25.03.52.11.81.25l2.68 1.14-1.65.95-2.57-1.16c-.29-.12-.53-.17-.72-.16-.2.01-.41.07-.63.2l-1.18.67-.81.46-.61.32-1.03-.79 2.56-1.48c.28-.16.47-.31.58-.44.1-.13.11-.27.04-.41a1.6 1.6 0 0 0-.49-.49c-.26-.19-.49-.31-.69-.37s-.41-.06-.62-.01c-.22.05-.46.15-.75.32l-1.62.95-.89.54-1.19-.66.74-.51.81-.5 1.08-.64zm-1.09.75l6.63 4.82-1.54.89-6.63-4.82 1.54-.89zm9.13-2.98c.86-.5 1.61-.75 2.25-.76.65-.02 1.24.16 1.78.55.44.31.64.61.62.91s-.33.62-.92.96l-2.84 1.64-.8-.58 2.43-1.4c.23-.13.33-.25.3-.35-.03-.11-.12-.23-.29-.35-.22-.16-.45-.24-.67-.22-.22.01-.49.11-.81.29-.29.16-.47.31-.55.46-.09.14-.06.3.07.48s.39.41.77.68c.4.29.74.49 1.04.6.29.11.56.14.82.1.27-.05.56-.16.89-.35l.85-.51.96-.67 1.02.55c-.11.18-.26.36-.47.55s-.43.36-.68.53l-.73.47c-.64.37-1.25.61-1.81.71-.57.09-1.13.06-1.67-.1-.54-.17-1.09-.46-1.66-.87-.62-.45-1.03-.86-1.22-1.22-.19-.37-.17-.72.05-1.06s.65-.69 1.27-1.05zm5.76-3.33l.63-.33a6.3 6.3 0 0 1 .75-.32 4.6 4.6 0 0 1 .79-.23l.73.74-.81.44-.68.38c-.31.18-.51.35-.62.51s-.1.33.01.52a2.8 2.8 0 0 0 .7.66c.35.26.67.43.94.54.28.1.55.12.8.07s.54-.16.85-.34l.41-.25.54-.33.53-.38 1.05.57c-.16.24-.39.48-.69.72s-.62.46-.96.66a5.6 5.6 0 0 1-1.74.69 3.3 3.3 0 0 1-1.61-.11 6.2 6.2 0 0 1-1.71-.92 4.2 4.2 0 0 1-1.21-1.2c-.19-.36-.18-.71.03-1.05a3.7 3.7 0 0 1 1.26-1.04zm4.18-2.25l1.13.58h.27l3.67 2.67-1.51.87-4.74-3.45 1.18-.68zm2.35-1.52l1.17 1.03-.43.24a3.2 3.2 0 0 0-.65.5c-.2.2-.43.46-.69.79l-.9-.52c.06-.42.2-.79.41-1.11a2.4 2.4 0 0 1 .83-.78l.26-.15zm2.34-1.18l3.12 2.27c.2.14.38.22.56.23.17 0 .37-.05.57-.17.22-.12.39-.27.52-.44a4.3 4.3 0 0 0 .44-.72l.89.5c-.07.43-.22.8-.43 1.11-.2.31-.49.57-.87.8-.96.55-1.88.51-2.76-.12l-3.56-2.58 1.52-.87zm3.36-1.94l4.75 3.45-1.2.69-1.1-.58-.29-.01-3.68-2.67 1.52-.88zm2.79-1.61l4.75 3.45-1.5.87-4.75-3.45 1.5-.87zm-2.51-1.28c.3-.17.59-.16.87.05l.52.38c.28.21.27.39-.03.57l-.66.38c-.3.17-.59.16-.87-.05l-.52-.38c-.28-.2-.27-.39.03-.57l.66-.38zm4.47-1.57l4.55 3.3c.17.13.34.19.49.2.16 0 .34-.06.54-.17l.66-.38 1.13.6c-.09.1-.21.21-.36.33a5.2 5.2 0 0 1-.47.36l-.43.27c-.46.26-.93.39-1.42.38-.48-.02-.93-.18-1.35-.49l-4.86-3.53 1.52-.88zm2.74.14l.93.68-3.83 2.21-.88-.64.94-.61 2.84-1.64zm3.09-1.95a4.9 4.9 0 0 1 2.26-.76c.64-.02 1.24.16 1.77.55.44.31.65.61.62.91-.02.3-.32.62-.91.96l-2.84 1.64-.8-.58 2.43-1.4c.22-.13.32-.25.3-.35-.03-.11-.13-.23-.3-.35-.22-.16-.44-.24-.66-.22-.22.01-.49.11-.82.29-.28.16-.47.31-.55.46-.09.14-.06.3.08.48.13.18.39.41.77.68a5 5 0 0 0 1.03.6 1.6 1.6 0 0 0 .83.1 2.8 2.8 0 0 0 .88-.35l.85-.51.96-.67 1.02.55a2.6 2.6 0 0 1-.47.55 5.8 5.8 0 0 1-.68.53l-.73.47c-.64.37-1.25.61-1.81.71-.57.1-1.13.06-1.67-.1a5.7 5.7 0 0 1-1.66-.87c-.62-.45-1.03-.86-1.22-1.22s-.17-.72.05-1.06c.23-.34.65-.69 1.27-1.05zm4.72-2.56l1.13.58h.27l3.67 2.67-1.51.87-4.74-3.45 1.18-.68zm2.35-1.52l1.17 1.03-.43.24c-.24.14-.45.31-.65.5s-.43.46-.69.79l-.9-.52a2.7 2.7 0 0 1 .41-1.11c.21-.32.48-.58.83-.78l.26-.15z" class="B"/><g class="D"><path d="M985.69 327.28s-9.91 2.67-10.36 4.46c-.3 1.19.98 11.36 4.27 19.06 2.6-1.18 7.08-3.33 8.85-4.42-.58-4.44-3.19-18.63-3.19-18.63"/><path d="M978.98 337.17l7.57-2.35c-.51-8.23-1.96-14.69-2.85-18.05a15.9 15.9 0 0 0-3.37-6.45c-1.64-1.87-3.94-3.55-6.58-2.81-5.28 1.46 5.23 29.65 5.23 29.65zm7.5 6.27c4.02 1.96 9.97 4.84 14.93 7.72 5.16 3 8.51 4.28 8.51 4.28l-2.95 6.71-14.4-4.81-9.6-3.54"/></g><path d="M983.79 446.52c-2.08.03-8.32-2.53-11.9-4.74h-.01v-.01a7.6 7.6 0 0 1-.47-.31 12.2 12.2 0 0 1-.84-.6c-.26-.19-.48-.37-.66-.55-.27-.27-.46-.51-.56-.72.03-1.09.1-2.14.25-3.09.17-1.22.47-2.29.93-3.09l.44-4.02.14-1.31h9.27l-.2 2.65-.26 3.18s.1.16.32.46c.7.96 2.73 3.37 7.08 6.37 1.68 1.15 1.82 5.79-3.52 5.79z" class="E"/><path d="M980.89 362.44l2.35 29.76c-.52 15.92-2.21 22.85-2.88 41.21-.14 3.72-11.7 5.26-11.43 2.42-.78-12.29-1.34-27.56.41-38.54-2.45-8.67-4.12-22.04-4.17-30.21l15.71-4.65z" class="K"/><path d="M964.3 460.94c-2.08.02-8.32-2.53-11.9-4.74h0c-.17-.1-.33-.2-.48-.31a10.2 10.2 0 0 1-.84-.6 5.4 5.4 0 0 1-.44-.34c-.08-.08-.17-.15-.23-.22-.27-.26-.47-.51-.56-.72a21.9 21.9 0 0 1 .25-3.09c.01-.04.01-.08.02-.12a8.8 8.8 0 0 1 .91-2.98l.44-4.01.14-1.31h9.27l-.2 2.65-.26 3.18s.1.16.32.46c.05.07.11.15.18.24.84 1.08 2.88 3.35 6.9 6.14 1.68 1.14 1.82 5.79-3.52 5.79z" class="E"/><path d="M971.76 376.66l-4.08 27.57a365.8 365.8 0 0 0-6.4 43.63l-.04.37c-.03.27-.14.54-.32.79-1.17 1.58-5.13 2.86-8.09 2.68a4.6 4.6 0 0 1-2.72-.9c-.2-.17-.36-.37-.47-.59-.19-.31-.29-.69-.29-1.13.17-4.18.19-22.7.8-28.67.04-.38.07-.78.11-1.17l.2-1.65c0-.14.03-.28.05-.41.01-.19.04-.35.07-.54.14-1.17.32-2.35.53-3.54.06-.3.1-.61.16-.9 0-.03.01-.05.01-.07.06-.31.11-.63.19-.94l.19-.95c.07-.3.13-.6.21-.9a18.8 18.8 0 0 1 .27-1.1 32.9 32.9 0 0 1 .96-3.09c-1.46-8.34-1.68-17.61-1.03-25.45l.13-1.44c-1.57-4.74-1.59-9.87-.3-15.81l4.22-1.03 12.58-3.09 11.62-2.85.45-.11c.57 11.69.18 16.26-9 21.3z" class="K"/><path d="M951.94 361.36c-.01.05-.08 2.71-.01 3.73 8.91 6.21 27.31-1.35 28.97-7.23-.04-1.23.16-2.42-.01-4.02-5.47 7.38-22.27 11.25-28.94 7.53z" class="E"/><path d="M975.36 362.48c-.91.76-2.17 1.23-3.68 1.8v-2.29c1.4-.55 2.63-1.03 3.68-1.8v2.29z" class="D"/><path d="M980.93 354.93c-4.7 6.41-21.08 12.48-29 6.72-1.65-1.2-1.15-2.7-1.64-6.26l-1.07-10.49c-1.14-12.47-1.4-20.44-1.22-24.56v-.01c.02-.79-.1-1.03-.05-1.55 3.22-3.77 8.99-8.09 13.64-11.03 6.3-2.82 5.56-2.8 8.91-2.44 7.73.84 11.97 47.54 10.43 49.64z" fill="#f6f6f6"/><g class="D"><path d="M969.3 374.27c-.08 3.07-2 5.85-4.94 6.91-1.12.42-2.3.69-3.53.81-2.03.24-4.19.1-6.47-.37l-2.3-.56a43.6 43.6 0 0 1-4.91-1.76l.57-42.88.05-3.65.18-14c2.52-3.38 7.01-6.69 11-9.39 4.84 6.55 7.47 18.13 9 30.39l.76 18.55.58 15.95zm-.57-66.35c3.48 8.88 6.85 15.91 7.66 27.48l2.41 30.07c-.03 2.66 0 7.33 4.45 5.19l2.09-1.17-3.36-46.19c-1.49-13.53-4.52-18.74-13.25-15.39z"/></g><path d="M970.6 316c2.48 5.93 4.59 26.63 5.75 33.86l-1.92 3.69-2.61-2.38c.02-6.69-1.61-27.63-2.91-34.6l-2.49-3.62 3.86-1.37.32 4.42z" class="K"/><path d="M957.65 310.05c-1.23 2.92 5.76 7.5 9.12 7.5.88-1.29.89-3.26 1.69-4.76 1.11.75 2.36 1.95 3.74 2.91 1.24-9.57-9.87-12.7-12.36-8.74-.5.78-1.84 2.26-2.19 3.1z" class="C"/><g fill="#1d1d1b"><path d="M967.37 339.63l.25-.11-8.21-19.03 3.56-2.86-3.94.43c-1.31-2.98-1.88-5.32-1.77-7.34l-.26-.01c-.11 2.08.47 4.48 1.83 7.55l.04.09.1-.02 3.13-.34-3.01 2.42.04.09 8.24 19.13zm9.55-2.18c.75-9.02.8-17.07.15-23.92l-.01-.14-2.54.39 2.22-1.7-.07-.11-5.68-8.42-.09.02-2.61.62.06.26 2.52-.6 5.5 8.17-2.83 2.18 3.27-.49c.63 6.81.57 14.8-.17 23.74l.27.01z"/></g><path d="M970.72 311.15c.02-.05.04-.11.05-.16l.27-3.48.29-5.11-10.75-2.67-.75 6.76c-1.28 6.77 9.69 8.09 10.88 4.66z" class="H"/><path d="M970.72 311.15c.02-.05.04-.11.05-.16l.63-8.52-8.87-2.15c-.54 4.29 3.81 11.92 8.18 10.83z" fill="#ef947f"/><path d="M954.37 381.63l-2.29-.56a43.7 43.7 0 0 1-4.91-1.76l.57-42.88.04-3.65 9.35-4.28-5.22 21.23c-1.76 12.12-2.07 23.41 2.46 31.9z" fill="#073266"/><path d="M975.15 290.28s1.38 4.81 1.18 9.47c-.2 4.66-.33 5.72-2.01 6.84s-3.31 1.5-6.73.1-5.68-4.28-5.68-4.28-.38.36-1.71-.66a6.6 6.6 0 0 1-3.04-5.1 18.2 18.2 0 0 1 1.01-9.75c1.43-3.76 7.9-3.8 11.01-2.86 3.11.94 4.89 3.44 5.96 6.25z" class="H"/><path d="M956.15 287.58c.02-2.5 2.54-4.97 6.47-5.64 0 0 5-1.24 8.13 1.26l.54.43c.23 1.01.4 2.03-.22 2.91-.54.76-1.54 1.38-2.4 1.71-.75.29-1.6.36-2.26.84-.57.41-.93 1.08-.98 1.77-.06.81.26 1.46.67 2.14l.9 1.42c-.33 2.03-1.77 2.53-2.45 3.06-.72.58-.46 3.06-.46 3.06l-1.05.07s-.38-2.32-.97-3.42c-.58-1.09-2.69-1.64-3.47.24-.64 1.54.51 3.06 1.39 4.15 0 0-1.75.89-3.61-6.54-.01 0-4.36-4.18-.23-7.45z" class="E"/><g class="J"><path d="M967.61 295.06c1.18-.54 2.44-.82 3.65-.82l.03-.3a9.4 9.4 0 0 0-3.78.85l.1.27zm8.05-1.05l.12-.29c-.97-.31-1.97-.01-2.85.25l.05.29c.84-.25 1.8-.54 2.68-.25zm-.45 2.92c.06.4-.1.78-.34.86-.25.07-.49-.19-.55-.6s.1-.78.34-.86c.24-.07.49.19.55.6zm-4.55.45c.06.4-.1.78-.34.86-.25.07-.49-.19-.55-.6s.1-.78.34-.86c.25-.07.49.2.55.6z"/></g><path d="M960.32 289.39l-.94-2.58c1.18-.77 2.54-1.24 3.91-1.5l3.25-.5c2.25-.4 4.76-2.33 6.98-.85 1.2.8 1.88 2.29 3.19 2.86l1.41.56c1.38.58 2.13 2.3 1.74 3.77l-.08.25c-.48 1.39-1.52 2.47-3.03 2.2-.88-.16-1.38-.39-1.85-1.08-.32-.48-.81-.85-1.38-.96-.69-.13-1.43.02-2.08.31-.3.13-.58.3-.89.32-.95.05-1.74-1.28-2.6-.87-.63.31-.57 1.21-.57 1.92 0 .85-.33 1.8-1.1 2.16-.63.29-1.36.11-2.04.2-.51.07-.97.29-1.42.55-.65-2.3-1.68-4.51-2.51-6.76z" class="E"/><g fill="#183862"><path d="M977.09 296.45c-.23-1.34-1.21-2.19-2.19-1.91s-1.59 1.59-1.36 2.93 1.21 2.19 2.19 1.91 1.59-1.6 1.36-2.93zm-.18.05c.21 1.23-.33 2.44-1.22 2.69-.88.25-1.77-.55-1.98-1.78s.33-2.44 1.22-2.69c.88-.25 1.77.55 1.98 1.78zm-4.9.57c-.38-1.5-1.56-2.38-2.64-1.97s-1.65 1.94-1.28 3.44 1.56 2.38 2.64 1.97 1.65-1.94 1.28-3.44zm-.17.06c.36 1.4-.17 2.83-1.15 3.2s-2.08-.47-2.44-1.87.17-2.83 1.15-3.2 2.08.47 2.44 1.87z"/><path d="M973.61 297.36l-1.58.23-.01-.17 1.59-.23v.17zm-11.38.2c.01.03.02.06.04.1l5.77.61-.03-.2-5.84-.59.06.09z"/></g><path d="M961.09 299.15l.24-.12c-.08-.16-.81-1.59-1.62-1.44l.05.26c.02-.01.05-.01.07-.01.49 0 1.07.93 1.26 1.31z" class="E"/><g class="J"><path d="M972.19 303.43c.83 0 1.45-.45 1.48-.46l-.16-.22c-.07.05-1.77 1.26-3.25-.7l-.22.16c.52.69 1.13 1.1 1.81 1.2.11.02.23.03.33.03z"/><path d="M970.59 301.82a2.9 2.9 0 0 0-.85.62 2.9 2.9 0 0 0 .85-.62z"/></g><path d="M978.72 344.3c-.51 2.7.76 6.72 2.85 7.11s4.64-1.37 5.15-4.07-.76-5.2-2.85-5.59-4.63-.14-5.14 2.56z" class="D"/><g stroke-width=".15" stroke-miterlimit="10"><path d="M984.2 353.82s-1.12-17.75-1.74-21.96" stroke="#1d1d1b"/><path d="M972.93 297.63s.5 3.65.07 3.65-1.24-.68-1.24-.68" stroke="#1b1c17"/></g><path d="M989.78 364.37c-.58.27-1.67-.09-4.51-1.2l-6.64-2.63c-.56-.26-.62-.27-.62-.62v-.44s.92-.37 1.5-.49c1.47-.3 11.15-2.47 11.15-2.47l-.88 7.84z" class="C"/><path d="M989.9 363.42c-.38.38-.64.51-4.72-1.05l-6.86-2.65c-.73-.3-.08-.43 1.19-.73l11.15-2.47-.76 6.9z" fill="#c9e3ff"/><path d="M1020.47 359.42l-30.54 5.3c-.31.04-.58-.21-.54-.52l2.84-25.4c.1-.83.73-1.5 1.56-1.63l28.37-4.46c1.07-.17 1.91.56 1.76 1.63-.55 6.98-1.6 16.59-2.62 24.29-.1.56-.45.71-.83.79z" class="C"/><path d="M1020.75 359.72l-30.53 5.3c-.31.04-.58-.22-.54-.53l2.84-25.4c.1-.83.73-1.5 1.56-1.63l28.37-4.46c1.06-.17 1.91.56 1.76 1.63-.55 6.98-1.6 16.59-2.62 24.29-.1.56-.45.71-.84.79z" fill="#e0eeff"/><path d="M992.52 339.1c.1-.83.73-1.5 1.56-1.63l5.9-.93c-2.16.61-4.11.98-4.88 2.65-1.27 2.75.16 13.37 9.5 18.1 8.89 4.5 15.58 1.23 17.5-2.36l-.51 4c-.1.56-.45.71-.84.79l-30.53 5.3c-.04.01-.08.01-.11 0-.11-.01-.21-.06-.29-.13-.1-.1-.16-.24-.14-.39l2.84-25.4z" fill="#cae2ff"/><path d="M1005.71 349.15c-.25 1.42.59 2.57 1.86 2.57 1.28 0 2.52-1.15 2.77-2.57.24-1.42-.59-2.57-1.87-2.57s-2.51 1.15-2.76 2.57z" class="C"/><path d="M942.14 336.38s-2.17 9.81-2.17 11.47 5.55 4.54 8.73 3.77c1.25-.69 5.47-10.43 5.47-10.43" fill="#ffd1a4"/><g fill="#ea6157"><path d="M945.38 328.56l.37-2.68-.37 2.68zm1.01-6.88l-.03.21-.01.02.04-.22z"/></g><path d="M946.34 321.93v-.02c.01-.07.04-.16.05-.22-.01.05-.02.13-.04.21.01-.05.04-.09.06-.12a15.3 15.3 0 0 1 .66-1.45l.98-1.82.26-.41a14.7 14.7 0 0 1 3.28-.51l-.05.05c3.28.1 8.02 2.33 8 6.85-.01 4.38-7.09 21.52-9.1 26.64 0 0-2.84 1.88-6.18.41-4.36-1.91-5.08-4.72-5.08-4.72.55-2.2 6.68-23.74 7.16-24.89z" class="D"/><path d="M974.77 356.92l3.53 1.43 2.25-1.27c.29-.11 4.18-.64 4.97-.61s1.64-.1 1.64-.1l-4.67 2.86-2.96 3.92s-1.22.42-2.52.44-4.36-.73-4.36-.73l2.12-5.93z" class="H"/><path d="M951.3 349.02l24.79 8.01-24.49-8.91-.3.89z" fill="#073266"/><path d="M973.7 363.56c-13.74 0-21.21-1.78-24.79-2.97" stroke="#000" stroke-width=".59"/><path d="M988.09 357.3c-.04.25-.23.46-.48.52-.05.01-.11.02-.16.02-.38-.01-.57-.72-.57-.72l-1.75.24-3.39 4.05c-3.48 3.52-4.38.98-4.38.98l1.08-4.14 2.22-3.7s-.14.22-.08-.36 1.08-.68 1.08-.68c.07-.3.67-.59.67-.59l2.79-.51c.57-.11 1.17.05 1.61.43l1.69 1.45s1 1.11 1 1.44c-.01.5-.52.54-.52.54s.13.89-.09.99-.72.04-.72.04z" class="H"/><g fill="#ff9a6c"><path d="M981.56 356.51c.01.03.36-.12.94-.26s1.41-.29 2.33-.26c.46.01.89.06 1.28.14.38.08.77.13.95.33.09.1.1.22.07.33s-.09.18-.15.23c-.12.1-.23.09-.23.11-.01 0 .11.05.27-.05.08-.05.16-.13.21-.26s.04-.3-.07-.44-.28-.22-.45-.27l-.56-.14c-.4-.08-.84-.14-1.31-.15a7.4 7.4 0 0 0-2.36.32c-.59.19-.92.37-.91.39z"/><path d="M981.91 358.27c.02.05 1.1-.33 2.47-.66l2.5-.55c0-.02-.29-.01-.75.05a16 16 0 0 0-1.79.33l-1.74.53c-.44.16-.7.28-.69.31zm6.14-1.03c.01 0-.01-.11-.05-.3a6.4 6.4 0 0 0-.24-.79 3.9 3.9 0 0 0-.24-.52c-.1-.18-.26-.36-.44-.5-.36-.29-.81-.57-1.33-.72s-1.01-.26-1.49-.25a5.1 5.1 0 0 0-1.22.18l-.79.24c-.18.06-.28.1-.28.12.01.03.42-.08 1.1-.24a5.8 5.8 0 0 1 1.19-.14c.45 0 .94.11 1.44.26a3.9 3.9 0 0 1 1.28.68c.36.26.53.63.67.94l.41 1.03zm-5.39-3.67c.01.02.42-.09 1.08-.21.65-.09 1.65-.35 2.48.33.85.59 1.6 1.16 2.01 1.69.42.52.53.94.56.93.01 0-.01-.11-.07-.29a2.8 2.8 0 0 0-.39-.71c-.4-.57-1.15-1.17-2.01-1.76-.22-.15-.44-.28-.69-.37a1.9 1.9 0 0 0-.73-.1c-.46.01-.86.09-1.2.17-.67.15-1.06.31-1.06.33z"/><path d="M983.31 359.81c0 0 .05-.06.12-.17l.34-.5 1.4-1.75-.04.02 1.75-.23-.08-.05a1.9 1.9 0 0 0 .16.4c.07.13.16.26.31.34.08.04.18.05.25.03.08 0 .16-.02.24-.06a.7.7 0 0 0 .35-.36.8.8 0 0 0 .04-.12l.01-.03v-.01-.01h0a3.4 3.4 0 0 0-.09.06h0 0 .06l.24.01c.08 0 .16 0 .25-.01l.13-.02c.04-.01.09-.03.15-.08.07-.1.08-.18.1-.27s.01-.17.01-.25c0-.17-.02-.33-.04-.5l-.08.1c.23-.03.47-.16.56-.4.04-.11.06-.24.01-.37-.04-.12-.1-.21-.16-.3a9.4 9.4 0 0 0-.83-1.05h0 0l-.9-.77-.57-.49c-.19-.16-.37-.34-.6-.46-.23-.12-.48-.19-.73-.22-.25-.03-.51.02-.73.07l-2.63.49h-.01-.01a2.4 2.4 0 0 0-.41.25c-.12.1-.25.21-.3.39l.09-.06c-.32-.03-.65.07-.85.31s-.23.54-.22.81l.01-.04-1.53 2.54-.41.7-.13.25c.01 0 .06-.08.16-.23l.44-.68 1.58-2.51.01-.02v-.02c-.01-.24.03-.51.2-.7.16-.2.45-.28.72-.25l.07.01.02-.06c.03-.11.14-.21.25-.3a2.4 2.4 0 0 1 .38-.23h-.02l2.63-.47c.24-.04.45-.09.68-.06.23.02.45.09.66.2.21.1.38.28.57.44l.57.49.9.77-.01-.01c.29.33.58.67.81 1.03a1.5 1.5 0 0 1 .14.27c.03.07.02.17-.01.25-.06.17-.24.27-.41.29l-.09.01.01.08a4.1 4.1 0 0 1 .04.48c0 .15-.01.33-.06.41 0 0-.03.02-.06.03s-.07.01-.11.02c-.07.01-.15.01-.22.01s-.15 0-.23-.01h-.06 0 0a5 5 0 0 0-.09.07h0v.01.02c-.01.03-.02.06-.03.09-.05.12-.15.22-.26.28-.06.03-.12.04-.19.05-.07.01-.12.01-.17-.02-.21-.12-.32-.4-.4-.64l-.02-.06h-.06l-1.75.25h-.02l-.01.02a16.8 16.8 0 0 0-1.36 1.79l-.32.52c-.07.12-.1.19-.1.19z"/></g><path d="M950.91 348.89l25.23 8.19-2.4 6.43s-20.37.25-29.87-4.88c-2.37-1.28-4.19-2.59-4.98-5.15-1.2-3.89 1.19-9.5 1.19-9.5l10.83 4.92z" class="D"/><path d="M1004.3 362.26c.33.5 1.32 1.55 2.67 1.79s3.2.03 3.96-.1c.82-.17 2.55-.77 2.87-1.89s-.79-3.31-1.39-4.27c-.19-.1-.65-.26-.89-.1-.29.2 0 1.79.2 2.48s-.79-2.58-1.88-2.48c-.86.08-.55 1.64-.28 2.64-.32-.96-.96-2.49-1.6-1.84-.71.71-.57 2-.37 2.74-.3-.92-.88-2.31-1.31-1.95-.6.5-.89.1-.79 2.68l-1.19.3z" class="H"/><g class="C"><path d="M1004.76 249.64c6.46-1.14 11.09-5.47 10.35-9.66s-6.57-6.68-13.03-5.54-11.1 5.47-10.36 9.66 6.58 6.68 13.04 5.54zm-19.72 18.33c2.3 0 4.16-1.86 4.16-4.16s-1.86-4.16-4.16-4.16-4.16 1.86-4.16 4.16 1.86 4.16 4.16 4.16z"/><ellipse cx="973.75" cy="171.79" rx="77.19" ry="45.13"/></g><path d="M949.26 175.15c0-.26-.04-.49-.12-.69-.07-.21-.21-.4-.41-.57-.2-.18-.49-.35-.86-.52s-.84-.35-1.43-.53a18.2 18.2 0 0 1-1.85-.71 7.6 7.6 0 0 1-1.54-.92c-.44-.35-.79-.77-1.05-1.23a3.4 3.4 0 0 1-.37-1.63c0-.6.13-1.14.39-1.63.26-.49.63-.91 1.1-1.26.47-.36 1.03-.63 1.68-.82.65-.19 1.36-.29 2.14-.29a6.3 6.3 0 0 1 2.77.57c.79.38 1.4.9 1.83 1.57.44.66.66 1.42.66 2.28h-2.94c0-.42-.09-.79-.27-1.1a1.8 1.8 0 0 0-.79-.76 2.8 2.8 0 0 0-1.32-.28c-.51 0-.94.08-1.28.24-.34.15-.6.36-.77.62-.17.26-.26.55-.26.87 0 .24.06.46.18.66a2 2 0 0 0 .55.55 5 5 0 0 0 .9.48 12.9 12.9 0 0 0 1.23.44 13.1 13.1 0 0 1 2.06.8c.6.3 1.1.63 1.5 1a3.7 3.7 0 0 1 .91 1.25c.2.47.3 1 .3 1.59 0 .62-.12 1.18-.37 1.68s-.59.91-1.05 1.25-1.01.6-1.65.78-1.35.27-2.14.27a8.1 8.1 0 0 1-2.1-.28c-.69-.19-1.32-.48-1.88-.86-.56-.38-1-.87-1.34-1.46a4.2 4.2 0 0 1-.5-2.1h2.97c0 .45.07.82.21 1.13s.33.56.58.75c.26.19.56.33.91.41.36.09.74.13 1.16.13.51 0 .93-.07 1.26-.22.34-.14.58-.34.74-.6.16-.26.25-.54.25-.87zm7.79-6.91v10.66h-2.85v-10.66h2.85zm-3.03-2.78c0-.41.14-.76.43-1.03s.68-.4 1.16-.4c.48 0 .86.13 1.15.4.3.27.44.61.44 1.03s-.15.76-.44 1.02c-.29.27-.67.4-1.15.4-.49 0-.87-.13-1.16-.4s-.43-.61-.43-1.02zm8.37-1.7v15.14h-2.85v-15.14h2.85zm7.25 15.34c-.83 0-1.57-.13-2.23-.39a4.9 4.9 0 0 1-1.68-1.11c-.45-.47-.8-1.02-1.04-1.65-.24-.63-.36-1.3-.36-2.01v-.39a6.8 6.8 0 0 1 .35-2.22 5.2 5.2 0 0 1 .99-1.75c.43-.49.96-.87 1.58-1.13.62-.27 1.31-.4 2.09-.4.76 0 1.43.12 2.01.37s1.07.6 1.47 1.06a4.6 4.6 0 0 1 .91 1.66 7 7 0 0 1 .31 2.13v1.18h-8.48v-1.89h5.69v-.22c0-.39-.07-.75-.22-1.05-.14-.32-.35-.56-.63-.75s-.64-.28-1.08-.28c-.37 0-.7.08-.97.25a1.9 1.9 0 0 0-.66.69c-.16.3-.29.64-.37 1.04-.08.39-.12.83-.12 1.3v.39c0 .43.06.82.18 1.18a2.9 2.9 0 0 0 .52.94 2.4 2.4 0 0 0 .83.61c.33.14.7.22 1.11.22.51 0 .99-.1 1.43-.3a3.1 3.1 0 0 0 1.15-.92l1.38 1.5a4.2 4.2 0 0 1-.92.93c-.38.3-.84.54-1.38.73a5.7 5.7 0 0 1-1.84.28zm8.77-8.59v8.39h-2.84v-10.66h2.66l.18 2.28zm-.41 2.68h-.77c0-.79.1-1.5.31-2.13.2-.64.49-1.18.86-1.63a3.7 3.7 0 0 1 1.31-1.04c.51-.24 1.08-.36 1.71-.36.5 0 .96.07 1.37.22s.77.38 1.07.69c.3.32.53.73.69 1.25a6.4 6.4 0 0 1 .25 1.9v6.8h-2.86v-6.81a2.5 2.5 0 0 0-.2-1.1 1.1 1.1 0 0 0-.58-.55c-.25-.11-.56-.17-.93-.17-.38 0-.71.08-1 .23-.28.15-.51.36-.69.63-.18.26-.31.57-.4.93s-.14.74-.14 1.14zm13.36 3.69c.35 0 .66-.07.93-.2.27-.14.48-.33.63-.57.16-.25.24-.54.25-.88h2.67c-.01.75-.21 1.42-.6 2-.39.58-.92 1.03-1.59 1.37-.66.33-1.41.49-2.23.49-.83 0-1.55-.14-2.17-.41-.61-.28-1.12-.66-1.53-1.14a5 5 0 0 1-.92-1.72 7.1 7.1 0 0 1-.31-2.11v-.28a7 7 0 0 1 .31-2.11 4.9 4.9 0 0 1 .92-1.72c.41-.49.92-.88 1.53-1.15s1.33-.41 2.15-.41a5 5 0 0 1 2.3.5c.66.34 1.18.81 1.56 1.44.38.62.58 1.35.58 2.2h-2.67c-.01-.35-.08-.68-.23-.97-.14-.29-.34-.52-.61-.69a1.7 1.7 0 0 0-.98-.27c-.41 0-.75.09-1.01.27a1.7 1.7 0 0 0-.61.71c-.14.3-.25.64-.31 1.02a8.6 8.6 0 0 0-.08 1.18v.28a8.8 8.8 0 0 0 .08 1.19c.05.38.15.72.3 1.02.15.3.36.53.62.7s.6.26 1.02.26zm11.03 2.22c-.83 0-1.57-.13-2.23-.39a4.9 4.9 0 0 1-1.67-1.11c-.45-.47-.8-1.02-1.05-1.65-.24-.63-.37-1.3-.37-2.01v-.39a6.8 6.8 0 0 1 .35-2.22c.23-.67.56-1.25.99-1.75.43-.49.96-.87 1.58-1.13.61-.27 1.31-.4 2.09-.4a5.1 5.1 0 0 1 2.01.37c.58.25 1.07.6 1.47 1.06s.7 1.01.9 1.66a6.8 6.8 0 0 1 .31 2.13v1.18h-8.48v-1.89h5.69v-.22c0-.39-.07-.75-.22-1.05a1.7 1.7 0 0 0-.63-.75c-.28-.18-.64-.28-1.08-.28-.38 0-.7.08-.97.25s-.49.39-.66.69c-.16.3-.29.64-.37 1.04-.08.39-.12.83-.12 1.3v.39a3.9 3.9 0 0 0 .17 1.18c.13.36.3.67.53.94a2.4 2.4 0 0 0 .82.61c.33.14.7.22 1.12.22.51 0 .99-.1 1.43-.3.44-.2.83-.51 1.15-.92l1.38 1.5a4.1 4.1 0 0 1-.92.93c-.38.3-.84.54-1.38.73-.53.18-1.15.28-1.84.28z" class="B"/></g></g><rect x="1" y="1" width="1138" height="638" rx="15" stroke-width="2" class="F"/><defs><filter id="A" x="996.5" y="12.7" width="72.14" height="92.98" filterUnits="userSpaceOnUse" class="L"><feFlood class="M"/><feBlend in="SourceGraphic" result="B"/><feColorMatrix in="SourceAlpha" values="0 0 0 0 0 0 0 0 0 0 0 0 0 0 0 0 0 0 127 0" result="C"/><feOffset dy="-5.9375"/><feGaussianBlur stdDeviation="5.94"/><feComposite in2="C" operator="arithmetic" k2="-1" k3="1"/><feColorMatrix values="0 0 0 0 0 0 0 0 0 0 0 0 0 0 0 0 0 0 0.25 0"/><feBlend in2="B" result="D"/><feColorMatrix in="SourceAlpha" values="0 0 0 0 0 0 0 0 0 0 0 0 0 0 0 0 0 0 127 0" result="C"/><feOffset dy="5.9375"/><feGaussianBlur stdDeviation="5.94"/><feComposite in2="C" operator="arithmetic" k2="-1" k3="1"/><feColorMatrix values="0 0 0 0 0 0 0 0 0 0 0 0 0 0 0 0 0 0 0.25 0"/><feBlend in2="D"/></filter><filter id="B" x="71.35" y="535.57" width="72.14" height="92.98" filterUnits="userSpaceOnUse" class="L"><feFlood class="M"/><feBlend in="SourceGraphic" result="B"/><feColorMatrix in="SourceAlpha" values="0 0 0 0 0 0 0 0 0 0 0 0 0 0 0 0 0 0 127 0" result="C"/><feOffset dy="-5.9375"/><feGaussianBlur stdDeviation="5.94"/><feComposite in2="C" operator="arithmetic" k2="-1" k3="1"/><feColorMatrix values="0 0 0 0 0 0 0 0 0 0 0 0 0 0 0 0 0 0 0.25 0"/><feBlend in2="B" result="D"/><feColorMatrix in="SourceAlpha" values="0 0 0 0 0 0 0 0 0 0 0 0 0 0 0 0 0 0 127 0" result="C"/><feOffset dy="5.9375"/><feGaussianBlur stdDeviation="5.94"/><feComposite in2="C" operator="arithmetic" k2="-1" k3="1"/><feColorMatrix values="0 0 0 0 0 0 0 0 0 0 0 0 0 0 0 0 0 0 0.25 0"/><feBlend in2="D"/></filter><filter id="C" x="-4.75" y="56.41" width="332.5" height="98.56" filterUnits="userSpaceOnUse" class="L"><feFlood result="A" class="M"/><feColorMatrix in="SourceAlpha" values="0 0 0 0 0 0 0 0 0 0 0 0 0 0 0 0 0 0 127 0" result="B"/><feOffset dy="1.78125"/><feGaussianBlur stdDeviation="2.38"/><feComposite in2="B" operator="out"/><feColorMatrix values="0 0 0 0 0 0 0 0 0 0 0 0 0 0 0 0 0 0 0.3 0"/><feBlend in2="A"/><feBlend in="SourceGraphic"/></filter><clipPath id="D"><rect width="1140" height="640" rx="16" class="B"/></clipPath><clipPath id="E"><path transform="translate(635.32 126.66)" d="M0 0h415.63v385.94H0z" class="B"/></clipPath></defs></svg>