<svg xmlns="http://www.w3.org/2000/svg" width="100" height="100" fill="none" xmlns:v="https://vecta.io/nano"><style><![CDATA[.e{fill:#e8a273}.f{fill:#c87e53}.g{fill:#fff}.h{fill:#0668e1}.i{fill:#fac2b0}.j{fill:#99c7ff}.k{fill:#1b1c17}.l{fill:#603f3c}.m{fill:#1c5c91}.n{fill:#367ec6}.o{fill:#aa784b}.p{fill:#232222}.q{fill:#aaa58d}.r{fill:#f2f2f2}.s{fill:#2a89ff}]]></style><ellipse cx="50" cy="83.67" rx="50" ry="16.33" fill="url(#A)"/><path d="M67.21 12.7v60.6a5.1 5.1 0 0 1-.1 1.02 4.9 4.9 0 0 1-.12.48l-.08.24a5.1 5.1 0 0 1-.69 1.28l-.48.55a5.3 5.3 0 0 1-.55.47l-.4.27h0a4.9 4.9 0 0 1-.42.23h0c-.22.11-.45.2-.68.27h0a4.9 4.9 0 0 1-1.5.22H37.36a5 5 0 0 1-1.07-.11l-.17-.04-.19-.05c-.26-.08-.51-.17-.75-.29l-.35-.19-.16-.1-.32-.22a5.1 5.1 0 0 1-.87-.83l-.29-.39a5.1 5.1 0 0 1-.36-.63 4.8 4.8 0 0 1-.34-.92h0a5.2 5.2 0 0 1-.16-1.26V12.7c0-2.78 2.25-5.03 5.03-5.03h24.82c2.78 0 5.03 2.26 5.03 5.03z" class="h"/><path d="M66.11 12.7v60.6a4 4 0 0 1-.08.8 2.7 2.7 0 0 1-.09.36l-.07.21a3.8 3.8 0 0 1-.9 1.41 3.2 3.2 0 0 1-.43.37l-.27.18-.04.03-.27.15-.06.03c-.15.08-.31.14-.48.19l-.06.02-.37.1a4.2 4.2 0 0 1-.8.08H37.36a3.9 3.9 0 0 1-.83-.09l-.27-.07a4 4 0 0 1-.6-.23l-.27-.14-.11-.07-.02-.02-.24-.17a4.1 4.1 0 0 1-.68-.65l-.22-.3a4 4 0 0 1-.28-.5 3.8 3.8 0 0 1-.25-.66l-.02-.06c-.08-.32-.12-.65-.12-.98V12.7c0-2.16 1.76-3.93 3.92-3.93h24.82a3.9 3.9 0 0 1 3.64 2.48 3.9 3.9 0 0 1 .28 1.45z" class="g"/><g class="h"><path d="M67.22 28.05V20.9c.56 0 1.01.45 1.01 1.01v5.13c0 .56-.45 1.01-1.01 1.01z"/><use href="#B"/><use href="#B" y="4.31"/><path d="M36.95 55.28v2.01l.01.22.25 5.59 2.08 1.62-.25-5.6-.01-.22v-2.01c0-1.7 1.67-3.1 3.64-3.2l15.55-.77a4.1 4.1 0 0 1 1.26.12c.45.12.93.33 1.32.63l-2.02-1.58-.06-.05c-.11-.09-.23-.16-.34-.23a3.7 3.7 0 0 0-1.12-.43 4.3 4.3 0 0 0-1.12-.09l-15.55.77c-2 .1-3.64 1.52-3.64 3.2z"/></g><g class="j"><path d="M42.47 58.17l-.25.66c-.01.03-.01.07.03.1l.78.61c-.03-.02-.04-.06-.02-.1l.28-.73c.01-.03.01-.08-.04-.11l-.73-.41-.02-.02z"/><path d="M41.7 57.57l.77.6h0 0 0c-.05-.06.01-.15.1-.16l.91-.05c.06 0 .1-.03.12-.07l.28-.73c.02-.04.08-.09.15-.07.02 0 .04.01.05.02l-.78-.61c-.02-.02-.04-.02-.06-.03-.07-.02-.14.03-.15.07l-.28.73c-.02.04-.06.07-.12.08l-.91.05c-.11 0-.16.12-.09.17h0 0zm3.02-.29c-.02-.02-.06-.03-.09-.02l-.47.02.23.57c.01.04.06.07.12.06l.91-.04c.03 0 .06.01.08.02l-.78-.61z"/></g><path d="M45.42 57.87l-.91.04c-.06 0-.1-.03-.12-.06l-.23-.57-.05-.13c-.01-.02-.02-.03-.03-.04s-.03-.02-.05-.02c-.07-.02-.14.03-.15.07l-.28.73c-.02.04-.06.07-.12.07l-.91.05c-.1 0-.15.1-.1.16h0 .01c.02.01.02.02.03.02l.73.41c.05.03.06.08.04.11l-.28.73c-.01.04 0 .07.02.1.05.03.11.04.16.01l.74-.48c.01-.01.02-.01.03-.01.03-.01.08-.01.12.01l.73.41c.1.05.22-.03.19-.12l-.28-.7c-.02-.05.01-.09.04-.12l.74-.48c.06-.04.06-.12.01-.15-.02-.02-.05-.03-.09-.02z" class="g"/><g class="j"><path d="M46.29 57.98l-.25.66c-.01.03-.01.07.03.1l.78.61c-.03-.02-.04-.06-.02-.1l.28-.73c.01-.03.01-.07-.03-.1l-.75-.42c-.01 0-.02-.01-.02-.02z"/><path d="M47.7 56.97c.02-.04.08-.09.15-.07.02.01.04.01.05.02l-.78-.61c-.02-.02-.04-.02-.06-.03-.07-.02-.13.03-.15.07l-.28.73c-.01.04-.06.07-.12.08l-.91.04c-.11.01-.17.12-.09.18l.76.6h0c-.05-.06.01-.15.1-.16l.91-.05c.06 0 .1-.04.12-.08l.28-.73zm.74.1l-.47.02.23.57c.01.04.06.07.12.06l.91-.05c.03 0 .06.01.08.02l-.78-.61c-.02-.02-.06-.03-.09-.03z"/></g><path d="M47.93 56.96c-.01-.01-.02-.03-.03-.04s-.03-.02-.05-.02c-.07-.02-.13.03-.15.07l-.28.73c-.02.04-.06.07-.12.08l-.91.05c-.1 0-.15.1-.1.16.02.02.03.02.03.03l.74.41c.05.04.05.08.04.11l-.28.73c-.01.04 0 .07.02.09.05.04.11.04.17.01l.73-.48c.01-.01.02-.01.03-.01.03-.01.08-.01.12.01l.74.41c.09.05.22-.03.19-.12l-.28-.7c-.02-.05.01-.09.04-.11l.73-.48c.06-.04.06-.12.01-.15-.03-.02-.05-.03-.09-.03l-.91.05c-.06 0-.1-.03-.12-.06l-.23-.57-.05-.13z" class="g"/><g class="j"><path d="M50.1 57.79l-.25.66c-.01.03-.01.07.03.1l.78.61c-.03-.02-.04-.06-.02-.1l.28-.73c.01-.03.01-.08-.04-.11l-.74-.41-.02-.02z"/><path d="M51.71 56.73l-.78-.61c-.02-.02-.04-.02-.06-.03-.07-.02-.13.03-.15.07l-.28.73c-.01.04-.06.07-.12.08l-.91.05c-.11.01-.16.12-.09.18l.76.6h0c-.05-.06.01-.15.11-.16l.91-.05c.06 0 .1-.03.12-.07l.28-.73c.02-.04.08-.09.15-.07.02 0 .04.01.05.02h0zm1.42.78l-.78-.61c-.02-.02-.06-.03-.09-.02l-.47.02.23.57c.01.04.06.07.12.06l.91-.04c.03 0 .06.01.08.02z"/></g><path d="M53.12 57.67c.07-.04.06-.11.01-.15-.02-.02-.05-.03-.09-.02l-.91.04c-.06 0-.1-.03-.12-.06l-.28-.7c-.01-.02-.02-.03-.03-.04s-.03-.02-.05-.02c-.07-.02-.13.03-.15.07l-.28.73c-.01.04-.06.07-.12.07l-.91.05c-.1 0-.15.1-.11.16l.02.02.75.42c.05.03.06.08.04.11l-.28.73c-.01.04 0 .07.02.1.05.03.11.04.16.01l.73-.48c.01-.01.02-.01.03-.01.03-.01.08-.01.12.01l.74.41c.09.05.22-.03.19-.12l-.28-.7c-.02-.05.01-.09.04-.11l.73-.48z" class="g"/><g class="j"><path d="M53.91 57.6l-.25.66c-.01.03-.01.07.03.1l.78.61c-.03-.02-.04-.06-.02-.1l.28-.73c.01-.03.01-.08-.04-.11l-.73-.41c-.01-.01-.02-.01-.02-.02z"/><path d="M54.75 55.93c-.02-.02-.04-.02-.06-.03-.07-.02-.13.03-.15.07l-.28.73c-.02.05-.07.07-.12.08l-.91.04c-.11.01-.16.12-.09.18h0l.77.6h0c-.05-.06.01-.15.1-.16l.91-.05c.06 0 .1-.03.12-.08l.28-.73c.02-.04.08-.09.15-.07.02.01.03.01.05.02h0l-.78-.61z"/></g><path d="M56.86 57.3l-.91.05c-.03 0-.06-.01-.08-.02s-.03-.03-.03-.04l-.28-.7c-.01-.02-.02-.03-.03-.04s-.03-.02-.05-.02c-.07-.02-.13.03-.15.07l-.28.73c-.01.04-.06.07-.12.08l-.91.05c-.1 0-.15.1-.1.16l.03.03.73.41c.05.03.06.08.04.11l-.28.73c-.01.04 0 .07.02.1.05.04.11.04.16.01l.73-.48c.01-.01.02-.01.03-.01.03-.01.08-.01.12.01l.73.41c.09.05.22-.03.19-.12l-.28-.7c-.02-.05.01-.09.04-.12l.73-.48c.06-.04.06-.12.01-.15-.03-.02-.06-.03-.09-.03z" class="g"/><g class="j"><path d="M56.86 57.3c.03 0 .06.01.08.02l-.78-.61c-.02-.01-.05-.03-.09-.03l-.47.02.23.57c0 .01.01.02.02.03.03.02.06.03.09.03l.91-.05zm.9.14l-.02-.02-.26.65c-.01.03-.01.07.03.1l.78.61c-.03-.02-.04-.06-.02-.1l.28-.73c.01-.03.01-.08-.04-.11l-.73-.41z"/><path d="M57.73 57.41c-.05-.06.01-.15.1-.16l.91-.04c.05 0 .1-.03.12-.08l.28-.73c.02-.04.08-.09.15-.07.02 0 .03.01.05.02l-.78-.61c-.02-.01-.03-.02-.05-.03-.07-.02-.14.03-.15.07l-.28.73c-.02.05-.07.07-.12.07l-.91.05c-.11.01-.16.12-.09.18l.77.6h0 0 0z"/></g><path d="M44.16 57.28l.47-.02c.03 0 .06.01.09.02l.78.61c.05.04.05.11-.01.16l-.74.48c-.03.02-.06.07-.04.12l.28.7c.04.09-.09.17-.19.12l-.73-.41c-.04-.02-.09-.02-.12-.01-.01 0-.02.01-.03.01l-.74.48c-.05.04-.12.03-.16 0l-.79-.61c-.04-.03-.04-.07-.03-.1l.25-.66-.77-.6h0c-.08-.06-.02-.17.09-.17l.91-.05c.06 0 .1-.04.12-.08l.28-.73c.02-.04.08-.09.15-.07.02 0 .04.01.05.02l.79.61c.01.01.02.02.03.04l.05.13zm3.73-.36c.01.01.02.02.03.04l.05.13.47-.02c.03 0 .06.01.09.03l.78.61c.06.05.06.12-.01.16l-.73.48c-.04.02-.06.07-.04.11l.28.7c.04.09-.09.17-.19.12l-.74-.41c-.04-.02-.09-.02-.12-.01-.01 0-.02.01-.03.01l-.73.48c-.06.03-.12.03-.16 0l-.78-.61c-.04-.03-.04-.07-.03-.1l.25-.66-.76-.6c-.08-.06-.02-.17.09-.18l.91-.04c.06 0 .1-.03.12-.08l.28-.73c.02-.04.08-.09.15-.07.02 0 .04.01.05.02l.79.61zm3.81-.19h0c.01.01.02.02.03.04l.05.13.47-.02c.03 0 .06.01.09.02l.78.61c.05.04.05.11-.01.16l-.73.48c-.03.02-.06.07-.04.11l.28.7c.04.09-.09.17-.19.12l-.74-.41c-.04-.02-.09-.02-.12-.01-.01 0-.02.01-.03.01l-.73.48c-.05.04-.12.03-.16 0l-.79-.61c-.04-.03-.04-.07-.03-.1l.25-.66h0l-.76-.6c-.08-.06-.02-.17.09-.18l.91-.05c.06 0 .1-.03.12-.08l.28-.73c.02-.04.09-.09.15-.07.02 0 .04.01.05.02l.79.61zm3.81-.19h0c.01.01.03.02.03.04l.05.13.47-.02c.04 0 .07.01.09.03l.78.61c.06.05.06.12-.01.16l-.73.48c-.03.02-.06.07-.04.11l.28.7c.04.09-.09.17-.19.12l-.73-.41c-.04-.02-.09-.02-.12-.01-.01 0-.02.01-.03.01l-.73.48c-.05.04-.12.03-.16 0l-.79-.61c-.04-.03-.04-.07-.03-.1l.25-.66-.77-.6h0c-.08-.06-.02-.17.09-.18l.91-.04c.05 0 .1-.03.12-.08l.28-.73c.02-.04.08-.09.15-.07.02 0 .03.01.05.02l.79.61zm3.9-.02l.46-.02c.03 0 .06.01.09.02l.78.61c.05.04.05.12-.01.16l-.73.48c-.03.02-.06.07-.04.11l.28.7c.04.09-.09.17-.19.12l-.73-.41c-.04-.02-.09-.02-.12-.01-.01 0-.02.01-.03.01l-.73.48c-.05.04-.12.03-.16 0l-.79-.61c-.04-.03-.04-.07-.03-.1l.25-.66-.77-.6c-.08-.06-.02-.17.09-.18l.91-.05c.05 0 .1-.03.12-.07l.28-.73c.02-.04.08-.09.15-.07.02 0 .04.01.05.02l.78.61c.01.01.02.02.03.04l.05.13zm-20.39.38v2.01a2.4 2.4 0 0 0 .01.22l.25 5.6 2.32-2.04c.75-.66 1.71-.97 2.57-1.01l14.04-.7c2.04-.1 3.64-1.56 3.64-3.2v-2.01c0-.32-.05-.66-.22-1.03s-.46-.75-.84-1.05-.87-.51-1.32-.63-.87-.14-1.26-.12l-15.55.77c-1.98.1-3.64 1.5-3.64 3.2z" fill="#0072ff"/><path d="M59.89 56.5l-.46.02.23.57c.01.04.06.07.12.06l.91-.04c.03 0 .06.01.08.02l-.78-.61c-.02-.02-.06-.03-.09-.02z" class="j"/><path d="M60.67 57.11l-.91.04c-.06 0-.1-.03-.12-.06l-.28-.7c-.01-.02-.02-.03-.03-.04s-.03-.02-.05-.02c-.07-.02-.13.03-.15.07l-.28.73c-.02.04-.07.07-.12.08l-.91.04c-.1 0-.15.1-.1.16h0l.02.02.75.42c.05.03.06.08.04.11l-.28.73c-.01.04 0 .07.02.1.05.04.11.04.16.01l.73-.48c.01-.01.02-.01.03-.01.03-.01.08-.01.12.01l.73.41c.1.05.22-.03.19-.12l-.28-.7c-.02-.05.01-.09.04-.11l.73-.48c.07-.04.06-.12.01-.15-.03-.02-.05-.03-.09-.02z" class="g"/><path d="M38.08 32.25h3.98a5.3 5.3 0 0 1 2.1.37c.58.25 1.05.61 1.36 1.09a3.2 3.2 0 0 1 .48 1.77 3.4 3.4 0 0 1-.29 1.47 2.7 2.7 0 0 1-.81 1.02c-.35.27-.76.48-1.22.65l-.7.37h-3.46l-.01-1.72h2.57c.39 0 .71-.07.96-.21s.44-.33.57-.57.2-.53.2-.85c0-.34-.06-.64-.19-.89s-.32-.44-.58-.57-.58-.2-.98-.2h-1.78v8.95h-2.2V32.25zm5.97 10.68l-2.43-4.76 2.32-.01 2.46 4.67v.1h-2.35zm3.74-7.15c-.13 0-.25-.02-.35-.06s-.19-.1-.26-.18-.13-.16-.16-.26-.06-.2-.06-.32v-.06c0-.13.02-.24.05-.35s.09-.2.16-.27.15-.14.25-.18.21-.06.33-.06a.8.8 0 0 1 .32.06c.09.04.17.1.23.17s.11.16.14.26a1.1 1.1 0 0 1 .05.34v.19h-1.34v-.3h.9v-.03c0-.06-.01-.12-.03-.17s-.05-.09-.1-.12-.1-.04-.17-.04c-.06 0-.11.01-.15.04a.3.3 0 0 0-.1.11c-.03.05-.05.1-.06.16s-.02.13-.02.2v.06a.6.6 0 0 0 .03.19c.02.06.05.11.08.15s.08.07.13.1.11.03.18.03c.08 0 .16-.02.23-.05s.13-.08.18-.14l.22.24c-.04.05-.08.1-.14.15s-.13.08-.22.11a.9.9 0 0 1-.29.04zm1.85-.41v-.75c0-.05-.01-.1-.03-.14s-.05-.07-.08-.09-.08-.03-.14-.03c-.05 0-.09.01-.13.03s-.06.04-.08.07-.03.07-.03.11h-.45c0-.07.02-.14.05-.2s.08-.12.14-.17.14-.09.23-.12.19-.04.3-.04c.13 0 .25.02.35.07s.18.11.24.2.09.2.09.33v.72a1.4 1.4 0 0 0 .02.23c.01.06.03.11.05.15v.03h-.45c-.02-.05-.04-.1-.05-.17l-.02-.21zm.06-.64v.25h-.25c-.06 0-.11.01-.15.02s-.08.03-.11.06-.05.05-.06.08-.02.07-.02.11.01.07.03.1.04.05.08.07.07.02.12.02c.07 0 .13-.01.18-.04s.09-.06.11-.1.04-.08.04-.11l.12.19c-.02.04-.04.09-.07.13s-.06.09-.11.13-.1.07-.16.1-.13.04-.22.04c-.11 0-.2-.02-.29-.06s-.15-.1-.2-.18-.07-.16-.07-.26c0-.09.02-.17.05-.23s.08-.13.15-.17.15-.08.24-.11.21-.04.34-.04h.26zm1.21-1.36v2.39h-.45v-2.39h.45zm-3.12 5.42c-.13 0-.25-.02-.35-.06s-.19-.1-.26-.18-.13-.16-.16-.26-.06-.2-.06-.32v-.06c0-.13.02-.24.05-.35s.09-.2.16-.27.15-.14.25-.18.21-.06.33-.06a.8.8 0 0 1 .32.06c.09.04.17.1.23.17s.11.16.14.26a1.1 1.1 0 0 1 .05.34v.19h-1.34v-.3h.9v-.03c0-.06-.01-.12-.03-.17s-.05-.09-.1-.12-.1-.04-.17-.04c-.06 0-.11.01-.15.04a.3.3 0 0 0-.1.11c-.03.05-.05.1-.06.16s-.02.13-.02.2v.06a.6.6 0 0 0 .03.19c.02.06.05.11.08.15s.08.07.13.1.11.03.18.03c.08 0 .16-.02.23-.05s.13-.08.18-.14l.22.24c-.04.05-.08.1-.14.15s-.13.08-.22.11a.9.9 0 0 1-.29.04zm1.42-2.42v2.39h-.45v-2.39h.45zm.84.7v1.68h-.45v-1.68h.45zm-.48-.44c0-.07.02-.12.07-.16s.11-.06.18-.06.14.02.18.06.07.1.07.16-.02.12-.07.16-.11.06-.18.06-.14-.02-.18-.06-.07-.1-.07-.16zm1.75 1.74v-.75c0-.05-.01-.1-.03-.14s-.04-.07-.08-.09-.08-.03-.14-.03c-.05 0-.09.01-.13.03s-.06.04-.08.07-.03.07-.03.11h-.45c0-.07.02-.14.05-.2s.08-.12.14-.17.14-.09.23-.12.19-.04.3-.04c.13 0 .25.02.35.07s.18.11.24.2.09.2.09.33v.72a1.4 1.4 0 0 0 .02.23.6.6 0 0 0 .05.15v.03h-.45c-.02-.05-.04-.1-.05-.17a1.4 1.4 0 0 1-.02-.21zm.06-.64v.25h-.25c-.06 0-.11.01-.15.02s-.08.03-.11.06-.05.05-.06.08-.02.07-.02.11.01.07.03.1.04.05.08.07.07.02.12.02c.07 0 .13-.01.18-.04s.09-.06.11-.1.04-.08.04-.11l.12.19c-.02.04-.04.09-.07.13s-.06.09-.11.13-.1.07-.16.1-.13.04-.22.04c-.11 0-.2-.02-.29-.06s-.15-.1-.2-.18-.07-.16-.07-.26c0-.09.02-.17.05-.23s.08-.13.15-.17.15-.08.24-.11.21-.04.34-.04h.26zm.74-1.36h.45v2l-.05.39h-.4v-2.39zm1.51 1.53v.03c0 .13-.01.24-.04.34s-.07.2-.12.27-.12.13-.2.18-.18.06-.29.06c-.1 0-.19-.02-.27-.06s-.14-.1-.19-.18-.09-.16-.12-.27a3.2 3.2 0 0 1-.07-.33v-.07l.07-.33c.03-.1.07-.19.12-.27s.11-.13.19-.18.16-.06.26-.06c.11 0 .21.02.29.06s.15.1.2.18.1.17.12.27.04.22.04.34zm-.45.03v-.03c0-.07-.01-.13-.02-.19s-.03-.11-.05-.16-.06-.08-.1-.11-.09-.04-.16-.04-.11.01-.16.03-.08.05-.11.09-.05.08-.06.13-.02.11-.02.17v.2c0 .08.02.15.04.22s.06.11.11.15.12.05.2.05a.3.3 0 0 0 .16-.04c.04-.02.07-.06.1-.11s.04-.1.05-.16.01-.13.01-.2zm1.2-1.56v2.39h-.45v-2.39h.45zm1.14 2.42c-.13 0-.25-.02-.35-.06s-.19-.1-.26-.18-.13-.16-.16-.26-.06-.2-.06-.32v-.06c0-.13.02-.24.05-.35s.09-.2.16-.27.15-.14.25-.18.21-.06.33-.06a.8.8 0 0 1 .32.06c.09.04.17.1.23.17s.11.16.14.26a1.1 1.1 0 0 1 .05.34v.19h-1.34v-.3h.9v-.03c0-.06-.01-.12-.03-.17s-.05-.09-.1-.12-.1-.04-.17-.04c-.06 0-.11.01-.15.04a.3.3 0 0 0-.1.11c-.03.05-.05.1-.06.16s-.02.13-.02.2v.06a.6.6 0 0 0 .03.19c.02.06.05.11.08.15s.08.07.13.1.11.03.18.03c.08 0 .16-.02.23-.05s.13-.08.18-.14l.22.24c-.04.05-.08.1-.14.15s-.13.08-.22.11a.9.9 0 0 1-.29.04zm-7.73 4c-.13 0-.25-.02-.35-.06s-.19-.1-.26-.18-.13-.16-.16-.26-.06-.2-.06-.32v-.06c0-.13.02-.24.05-.35s.09-.2.16-.27.15-.14.25-.18.21-.06.33-.06a.8.8 0 0 1 .32.06c.09.04.17.1.23.17s.11.16.14.26a1.1 1.1 0 0 1 .05.34v.19h-1.34v-.3h.9v-.03c0-.06-.01-.12-.03-.17s-.05-.09-.1-.12-.1-.04-.17-.04c-.06 0-.11.01-.15.04a.3.3 0 0 0-.1.11c-.03.05-.05.1-.06.16s-.02.13-.02.2v.06a.6.6 0 0 0 .03.19c.02.06.05.11.08.15s.08.07.13.1.11.03.18.03c.08 0 .16-.02.23-.05s.13-.08.18-.14l.22.24c-.04.05-.08.1-.14.15s-.13.08-.22.11a.9.9 0 0 1-.29.04zm1.49-.36l.37-1.35h.47l-.57 1.68h-.28v-.33zm-.26-1.35l.37 1.36.01.32h-.28l-.57-1.68h.47zm1.77 0v1.68h-.45v-1.68h.45zm-.48-.44c0-.07.02-.12.07-.16s.11-.06.18-.06.14.02.18.06.07.1.07.16-.02.12-.07.16-.11.06-.18.06-.14-.02-.18-.06-.07-.1-.07-.16zm1.62 2.15c-.13 0-.25-.02-.35-.06s-.19-.1-.26-.18-.13-.16-.16-.26-.06-.2-.06-.32v-.06c0-.13.02-.24.05-.35s.09-.2.16-.27.15-.14.25-.18.21-.06.33-.06a.8.8 0 0 1 .32.06c.09.04.17.1.23.17s.11.16.14.26a1.1 1.1 0 0 1 .05.34v.19h-1.34v-.3h.9v-.03c0-.06-.01-.12-.03-.17s-.05-.09-.1-.12-.1-.04-.17-.04c-.06 0-.11.01-.15.04a.3.3 0 0 0-.1.11c-.03.05-.05.1-.06.16s-.02.13-.02.2v.06a.6.6 0 0 0 .03.19c.02.06.05.11.08.15s.08.07.13.1.11.03.18.03c.08 0 .16-.02.23-.05s.13-.08.18-.14l.22.24c-.04.05-.08.1-.14.15s-.13.08-.22.11a.9.9 0 0 1-.29.04zm1.42-.47l.35-1.25h.3l-.09.49-.35 1.19h-.24l.05-.43zm-.18-1.25l.25 1.24.02.44h-.28l-.43-1.68h.43zm1.13 1.22l.24-1.22h.43l-.43 1.68h-.28l.03-.46zm-.28-1.22l.35 1.24.05.44h-.24l-.35-1.19-.09-.49h.28zm2.09 1.22c0-.03-.01-.06-.03-.09s-.05-.05-.1-.07-.12-.04-.22-.06a1.7 1.7 0 0 1-.24-.07c-.07-.03-.14-.06-.19-.1s-.09-.09-.12-.14-.04-.12-.04-.19.02-.14.04-.2.08-.12.13-.16.13-.09.21-.11.18-.04.28-.04c.15 0 .27.02.38.07s.19.11.24.19.09.17.09.28h-.45c0-.04-.01-.08-.03-.12s-.05-.06-.08-.08a.3.3 0 0 0-.15-.03c-.05 0-.09.01-.13.03s-.06.04-.08.07-.03.06-.03.09.01.05.02.07.03.04.05.05l.1.05c.04.02.09.03.15.04.12.02.23.06.32.1s.17.09.23.16.08.16.08.27c0 .07-.02.14-.05.2s-.08.12-.14.16-.14.08-.22.11-.18.04-.29.04c-.16 0-.29-.03-.4-.08s-.19-.13-.25-.21-.08-.18-.08-.27h.42c0 .06.02.11.05.15s.07.06.11.08.1.02.15.02.11-.01.14-.02.07-.04.09-.07.03-.06.03-.1z" class="h"/><path d="M36.45 19.44h.14c.04 0 .07.01.1.01l.1.02-.02.19h-.1-.1-.12c-.06 0-.1.01-.13.03s-.05.06-.07.11-.02.13-.02.22.01.17.02.22.03.09.07.11.08.03.13.03h.19l.15-.01.02.18c-.05.02-.11.03-.16.03s-.12.01-.2.01a.6.6 0 0 1-.28-.06c-.07-.04-.12-.1-.15-.19s-.05-.2-.05-.34.02-.26.05-.34.08-.15.15-.18.16-.06.28-.06zm.89.32c.1 0 .18.01.24.04s.1.07.13.13.04.15.04.25-.01.18-.04.25-.07.11-.13.13-.14.04-.24.04a.6.6 0 0 1-.24-.04c-.06-.03-.11-.07-.13-.13s-.04-.14-.04-.25.01-.19.04-.25.07-.11.13-.13.14-.04.24-.04zm0 .18c-.04 0-.07.01-.1.02s-.04.04-.05.08-.01.09-.01.16 0 .12.01.15.03.06.05.08.06.02.1.02.08-.01.1-.02.04-.04.05-.08.01-.09.01-.15 0-.12-.01-.16-.03-.06-.05-.08-.06-.02-.1-.02zm1.14-.18c.15 0 .23.07.23.22v.61h-.24v-.53c0-.04-.01-.06-.02-.07s-.04-.02-.07-.02a.3.3 0 0 0-.11.02c-.04.01-.08.03-.14.06l-.01-.13c.06-.05.12-.09.18-.11s.12-.04.18-.04zm-.37.02l.03.16.02.02v.63h-.24v-.81h.19zm1.35-.02c.15 0 .23.07.23.22v.61h-.24v-.53c0-.04-.01-.06-.02-.07s-.04-.02-.07-.02a.3.3 0 0 0-.11.02c-.04.01-.08.03-.14.06l-.01-.13c.06-.05.12-.09.18-.11s.12-.04.18-.04zm-.37.02l.03.16.02.02v.63h-.24v-.81h.19zm1.17-.02c.14 0 .23.02.29.07s.09.11.09.21c0 .07-.02.13-.06.17s-.1.06-.2.06h-.45v-.14h.39c.04 0 .06-.01.07-.02s.02-.04.02-.07c0-.04-.01-.06-.03-.08s-.06-.02-.11-.02c-.04 0-.08 0-.1.02s-.04.03-.05.07-.01.08-.01.15.01.12.02.16.03.06.06.08.07.02.12.02h.14l.17-.01.02.15c-.03.02-.07.03-.11.04a.9.9 0 0 1-.12.02l-.12.01c-.1 0-.19-.01-.25-.04s-.11-.08-.14-.14a.6.6 0 0 1-.04-.24c0-.11.01-.19.04-.25s.07-.11.13-.13.14-.04.24-.04zm.92 0h.1a.7.7 0 0 1 .1.01l.1.03-.03.15h-.13-.11c-.05 0-.09.01-.12.02s-.05.04-.06.07-.02.08-.02.14.01.11.02.14.03.06.06.07.07.02.12.02h.07.09l.09-.01.02.15c-.04.02-.09.03-.15.04s-.11.01-.17.01c-.1 0-.18-.01-.24-.04s-.1-.07-.13-.14-.04-.15-.04-.25.01-.19.04-.25.07-.11.13-.13.14-.04.24-.04zm.77-.2v.77c0 .03.01.05.02.06s.04.02.07.02h.1l.03.16c-.02.01-.04.01-.07.02s-.06.01-.09.01h-.07c-.07 0-.13-.02-.17-.06s-.06-.09-.06-.17v-.83h.24zm.23.22v.16h-.61v-.15l.16-.01h.45z" class="k"/><path d="M42.91 19.45h.19.19l.18.01-.01.22h-.42c-.02 0-.04.01-.06.02s-.02.03-.02.05v.52c0 .02.01.04.02.05s.03.02.06.02h.42l.01.22-.18.01h-.19-.19c-.08 0-.14-.02-.18-.07s-.07-.1-.07-.18v-.66c0-.07.02-.13.07-.18s.11-.07.18-.07zm-.22.45h.72v.21h-.72v-.21zm1.39-.46h.14l.11.01c.03.01.07.01.1.02l-.02.23h-.1-.1-.13c-.04 0-.08.01-.11.03s-.04.05-.05.1-.01.11-.01.2.01.15.01.2.03.08.05.1.06.03.11.03h.2l.16-.01.02.22c-.05.02-.11.03-.17.04s-.13.01-.21.01c-.12 0-.22-.02-.29-.06s-.12-.1-.16-.19-.05-.2-.05-.34.02-.26.05-.34.09-.15.16-.18.17-.06.29-.06zm1.22-.61c0 .14-.11.25-.25.25s-.25-.11-.25-.25.11-.24.25-.24.25.1.25.24zm-.43 0c0 .11.08.2.19.2.1 0 .19-.09.19-.19 0-.11-.08-.2-.19-.2-.11-.01-.19.09-.19.19zm.15.13h-.06v-.24c.03-.01.05-.01.09-.01s.07.01.08.02.03.03.03.05-.02.05-.05.06c.03.01.03.03.04.06s.01.05.02.06h-.06c-.01-.01-.01-.03-.02-.06s-.02-.03-.05-.03h-.03v.09zm0-.14h.03c.03 0 .06-.01.06-.03s-.02-.03-.05-.03h-.03v.07z" class="h"/><path d="M47.04 22.66c-.05 0-.1-.04-.1-.07V16.6c0-.04.05-.07.1-.07s.1.04.1.07v6.01c0 .02-.05.06-.1.06z" class="k"/><path d="M49.35 17.44h.14l.11.01c.03.01.07.01.1.02l-.02.23h-.1-.1-.13c-.04 0-.08.01-.11.03s-.04.05-.05.1-.01.11-.01.2 0 .15.01.2.03.08.05.1.06.03.11.03h.2l.16-.01.02.22c-.05.02-.11.03-.17.04s-.13.01-.21.01c-.12 0-.22-.02-.29-.06s-.12-.1-.16-.18-.05-.2-.05-.34.02-.26.05-.34.09-.15.16-.18.17-.06.29-.06zm-.22 2.01h.19.19l.18.01-.01.22h-.42c-.02 0-.04.01-.06.02s-.02.03-.02.05v.52c0 .02.01.04.02.05s.03.02.06.02h.42l.01.22-.18.01h-.19-.19c-.08 0-.14-.02-.18-.07s-.07-.1-.07-.18v-.66c0-.07.02-.13.07-.18s.11-.07.18-.07zm-.22.45h.72v.21h-.72v-.21zm8.27-.46h.14l.11.01c.03.01.07.01.1.02l-.02.23h-.1-.1-.13c-.04 0-.08.01-.11.03s-.04.05-.05.1-.01.11-.01.2 0 .15.01.2.03.08.05.1.06.03.11.03h.2l.16-.01.02.22c-.05.02-.11.03-.17.04s-.13.01-.21.01c-.12 0-.22-.02-.29-.06s-.12-.1-.16-.18-.05-.2-.05-.34.02-.26.05-.34.09-.15.16-.18.17-.06.29-.06zm-8.04 2.01h.19.19l.18.01-.01.22h-.42c-.02 0-.04.01-.06.02s-.02.03-.02.05v.52c0 .02.01.04.02.05s.03.02.06.02h.42l.01.22-.18.01h-.19-.19c-.08 0-.14-.02-.18-.07s-.07-.1-.07-.18v-.66c0-.07.02-.13.07-.18s.11-.07.18-.07zm-.22.45h.72v.21h-.72v-.21zm1.53-.44c.03 0 .05.01.07.02s.03.03.04.06l.31 1.05h-.31l-.2-.78-.01-.06-.01-.06h-.04c0 .02-.01.04-.01.06l-.01.06-.2.78h-.31l.31-1.05c.01-.03.02-.04.04-.06s.04-.02.07-.02h.28zm.16.64v.22H50v-.22h.59zm.75-.66l.19.01c.07.01.14.02.2.04l-.02.2h-.18-.2-.06c-.01 0-.03 0-.04.01s-.02.01-.02.02-.01.02-.01.04c0 .03.01.05.02.06s.04.03.09.04l.21.08c.09.04.16.08.19.13s.06.12.06.2c0 .06-.01.12-.02.16s-.04.08-.08.1-.08.04-.14.06-.12.02-.21.02c-.04 0-.09 0-.17-.01l-.25-.04.02-.22h.17.13.09.09c.02 0 .03-.01.04-.02s.01-.03.01-.05 0-.03-.01-.04l-.03-.03c-.01-.01-.03-.02-.05-.02l-.23-.09c-.09-.04-.15-.08-.19-.13s-.06-.12-.06-.2c0-.07.01-.12.02-.16s.04-.07.08-.1.08-.04.14-.05.13-.02.2-.02zm1.52.02l-.38.78h-.29l-.38-.78h.32l.16.38c.01.02.02.05.02.08l.02.08h.02l.01-.08c.01-.03.01-.05.02-.08l.16-.38h.32zm-.37.6v.53h-.31v-.53h.31z" class="h"/><path d="M50.23 17.77c.09 0 .16.01.22.04s.1.07.12.13.04.14.04.24-.01.18-.04.25-.06.11-.12.13-.13.04-.22.04a.5.5 0 0 1-.22-.04c-.05-.03-.09-.07-.12-.13s-.04-.14-.04-.25.01-.18.04-.24.06-.11.12-.13a.5.5 0 0 1 .22-.04zm0 .12c-.06 0-.1.01-.14.03s-.06.05-.07.09-.02.1-.02.18.01.14.02.18.04.07.07.09.08.03.14.03.1-.01.14-.03.06-.05.07-.09.02-.1.02-.18-.01-.14-.02-.18-.04-.07-.07-.09-.08-.03-.14-.03zm1.08-.12c.14 0 .22.07.22.22v.6h-.14v-.56c0-.05-.01-.09-.03-.11s-.05-.03-.09-.03c-.05 0-.1.01-.15.04l-.18.1-.01-.1c.06-.05.12-.09.19-.11s.12-.04.18-.04zm-.37.02l.01.15.01.02v.62h-.14v-.8h.12zm1.32-.02c.14 0 .22.07.22.22v.6h-.14v-.56c0-.05-.01-.09-.03-.11s-.05-.03-.09-.03c-.05 0-.1.01-.15.04l-.18.1-.01-.1c.06-.05.12-.09.19-.11s.12-.04.18-.04zm-.37.02l.01.15.01.02v.62h-.14v-.8h.12zm1.16-.02c.12 0 .21.02.26.07s.08.11.08.19c0 .07-.01.13-.04.17s-.08.06-.15.06h-.47v-.11h.43c.04 0 .06-.01.07-.04s.02-.05.02-.08c0-.05-.02-.09-.05-.11s-.08-.03-.15-.03c-.06 0-.1.01-.14.03s-.06.05-.07.09-.02.1-.02.18c0 .09.01.15.02.19s.04.08.08.09.09.02.15.02h.14l.14-.01.01.09c-.03.01-.06.02-.09.02l-.11.01h-.1c-.09 0-.17-.01-.22-.04s-.1-.07-.12-.13-.04-.14-.04-.25.01-.19.04-.25.07-.1.12-.13.12-.04.21-.04zm.89 0h.08c.03 0 .06.01.09.01s.06.01.09.02l-.02.09-.11-.01h-.1c-.06 0-.11.01-.15.03s-.06.05-.08.09-.02.1-.02.18.01.14.02.18.04.07.08.09.09.03.15.03h.06.08l.09-.01.01.09-.13.03c-.05.01-.09.01-.14.01-.09 0-.17-.01-.22-.04s-.1-.07-.12-.13-.04-.14-.04-.25.01-.18.04-.25.07-.1.12-.13.13-.04.22-.04zm.66-.22v.81c0 .04.01.07.02.08s.04.02.08.02h.12l.02.11c-.02 0-.04.01-.06.01l-.07.01h-.05c-.07 0-.12-.02-.15-.06s-.05-.09-.05-.16v-.83h.14zm.25.24v.11h-.54v-.1l.16-.01h.38zm-4.01 1.98c.07 0 .12.02.16.06s.06.09.06.16v.6h-.14v-.56c0-.05-.01-.08-.03-.11s-.05-.03-.09-.03c-.03 0-.06 0-.08.01s-.05.02-.08.04l-.11.08-.01-.1a.7.7 0 0 1 .17-.11c.05-.03.11-.04.17-.04zm-.86.02l.01.15.01.02v.62h-.14v-.8h.11zm.33-.02c.07 0 .12.02.16.06s.05.09.06.16v.6h-.13v-.56c0-.05-.01-.09-.03-.11s-.05-.03-.09-.03c-.03 0-.05 0-.08.01s-.05.02-.09.04l-.11.08-.01-.1a.7.7 0 0 1 .17-.11c.05-.03.11-.04.17-.04zm1.44 0c.1 0 .17.04.21.11s.06.18.06.31a.9.9 0 0 1-.03.25c-.02.07-.06.1-.1.13s-.1.04-.17.04c-.05 0-.1-.01-.16-.02s-.1-.04-.15-.07v-.08l.14.04c.04.01.08.01.12.01s.08-.01.11-.02.05-.05.06-.09.02-.1.02-.18a.7.7 0 0 0-.02-.18c-.01-.04-.03-.07-.06-.09s-.06-.03-.1-.03-.09.01-.13.03-.09.05-.15.09l-.01-.09c.03-.03.06-.06.1-.08s.08-.04.12-.05a.4.4 0 0 1 .12-.02zm-.34.02l.01.17.01.02v.51l-.01.02v.09.09.23h-.14v-1.13h.11zm.97-.35v.93c0 .03.01.06.03.08s.05.03.08.03h.08l.02.11c-.01 0-.02.01-.04.01s-.04.01-.06.01h-.05c-.06 0-.11-.02-.14-.05s-.05-.09-.05-.15v-.96h.14zm.68.33c.09 0 .16.01.22.04s.1.07.12.13.04.14.04.24-.01.18-.04.25-.06.11-.12.13-.13.04-.22.04a.5.5 0 0 1-.22-.04c-.05-.03-.09-.07-.12-.13s-.04-.14-.04-.25.01-.18.04-.24.06-.11.12-.13a.5.5 0 0 1 .22-.04zm0 .12c-.06 0-.1.01-.14.03s-.06.05-.07.09-.02.1-.02.18.01.14.02.18.04.07.07.09.08.03.14.03.1-.01.14-.03.06-.05.07-.09.02-.1.02-.18-.01-.14-.02-.18-.04-.07-.07-.09-.08-.03-.14-.03zm1.29-.1l-.32.84c-.01.03-.03.07-.05.1s-.04.06-.07.09-.06.05-.1.07-.08.03-.13.03l-.01-.09c.06-.02.11-.05.15-.08s.06-.08.08-.13l.04-.09.03-.07.02-.07.21-.59h.15zm-.66 0l.21.59.02.05c.01.02.01.03.01.05H54l-.05.11h-.04c-.01 0-.02 0-.03-.01s-.01-.02-.02-.03l-.29-.76h.15zm1.13-.02c.12 0 .21.02.26.07s.08.11.08.19c0 .07-.01.13-.04.17s-.08.06-.15.06h-.47v-.11h.43c.04 0 .06-.01.07-.04s.02-.05.02-.08c0-.05-.02-.09-.05-.11s-.08-.03-.15-.03c-.06 0-.1.01-.14.03s-.06.05-.07.09-.02.1-.02.18c0 .09.01.15.02.19s.04.08.08.09.09.02.15.02h.14l.14-.01.01.09c-.03.01-.06.02-.09.02l-.11.01h-.1c-.09 0-.17-.01-.22-.04s-.1-.07-.12-.13-.04-.14-.04-.25.01-.19.04-.25.07-.1.12-.13.12-.04.21-.04zm.66.02l.02.15.01.02v.62h-.14v-.8h.11zm.39-.02l-.02.13h-.05c-.05 0-.09.01-.14.03s-.1.05-.17.08l-.01-.09c.06-.05.12-.09.18-.11s.12-.04.17-.04h.04zm.61.32v.15h-.49v-.15h.49zm1.58-.32a.4.4 0 0 1 .15.02c.04.02.07.04.09.08s.03.09.03.15v.56h-.11l-.02-.17-.01-.02v-.37c0-.05-.01-.08-.03-.1s-.06-.03-.13-.03l-.16.01-.19.01-.01-.1.12-.02.14-.01h.13zm.21.33v.1h-.38c-.04 0-.06.01-.08.03s-.02.04-.02.08v.05c0 .04.01.07.03.09s.05.03.1.03c.03 0 .06-.01.1-.02s.08-.03.12-.05.08-.05.11-.09v.1c-.01.02-.03.03-.05.05s-.05.04-.08.06-.07.03-.1.05-.08.02-.12.02-.09-.01-.12-.02-.06-.04-.09-.08-.03-.07-.03-.12v-.09c0-.06.02-.11.06-.14s.09-.05.16-.05h.41zm.8-.33c.14 0 .22.07.22.22v.6h-.14v-.56c0-.05-.01-.09-.03-.11s-.05-.03-.09-.03c-.05 0-.1.01-.15.04l-.18.1-.01-.1c.06-.05.12-.09.19-.11s.12-.04.18-.04zm-.37.02l.01.15.01.02v.62h-.14v-.8h.12zm1.1-.02c.05 0 .1.01.16.02s.1.03.15.06l-.01.09-.14-.04c-.04-.01-.08-.01-.13-.01s-.08.01-.11.02-.05.04-.06.09-.02.1-.02.18.01.14.02.18.03.07.06.09.06.03.1.03c.03 0 .06 0 .09-.01a.3.3 0 0 0 .08-.04l.1-.07.01.1c-.04.04-.09.07-.15.1s-.12.04-.18.04c-.1 0-.17-.04-.22-.11s-.06-.18-.06-.31c0-.1.01-.19.03-.25s.06-.1.1-.13.1-.04.17-.04zm.42-.33v1.15h-.11l-.02-.14-.01-.01v-.55l.01-.02c0-.03-.01-.06-.01-.09v-.09-.25h.14zm.4.35v.8h-.14v-.8h.14zm-.04-.34c.03 0 .04.01.04.04v.09c0 .03-.01.04-.04.04h-.07c-.03 0-.04-.01-.04-.04v-.09c0-.03.01-.04.04-.04h.07zm.56.32c.05 0 .1.01.16.02s.1.03.15.06l-.01.09-.14-.04c-.04-.01-.08-.01-.13-.01s-.08.01-.11.02-.05.04-.06.09-.02.1-.02.18.01.14.02.18.03.07.06.09.06.03.1.03c.03 0 .06 0 .09-.01a.3.3 0 0 0 .08-.04l.1-.07.01.1c-.04.04-.09.07-.15.1s-.12.04-.18.04c-.1 0-.17-.04-.22-.11s-.06-.18-.06-.31c0-.1.01-.19.03-.25s.06-.1.1-.13.1-.04.17-.04zm.42-.33v1.15h-.11l-.02-.14-.01-.01v-.55l.01-.02c0-.03-.01-.06-.01-.09v-.09-.25h.14zm.63.33a.4.4 0 0 1 .15.02c.04.02.07.04.09.08s.03.09.03.15v.56h-.11l-.02-.17-.01-.02v-.37c0-.05-.01-.08-.03-.1s-.06-.03-.13-.03l-.16.01-.19.01-.01-.1.12-.02.14-.01h.13zm.21.33v.1h-.38c-.04 0-.06.01-.08.03s-.02.04-.02.08v.05c0 .04.01.07.03.09s.05.03.09.03c.03 0 .06-.01.1-.02s.08-.03.12-.05.08-.05.11-.09v.1c-.01.02-.03.03-.05.05s-.05.04-.08.06-.06.03-.1.05-.08.02-.12.02-.09-.01-.12-.02-.06-.04-.09-.08-.03-.07-.03-.12v-.09c0-.06.02-.11.06-.14s.09-.05.16-.05h.41zm.51-.54v.81c0 .04.01.07.02.08s.04.02.08.02h.12l.02.11c-.02 0-.04.01-.06.01l-.07.01h-.05c-.07 0-.12-.02-.15-.06s-.05-.09-.05-.16v-.83h.14zm.25.24v.11h-.54v-.1l.16-.01h.38zm.5-.02c.12 0 .21.02.26.07s.08.11.08.19c0 .07-.01.13-.04.17s-.08.06-.15.06h-.47v-.11h.43c.04 0 .06-.01.07-.04s.02-.05.02-.08c0-.05-.02-.09-.05-.11s-.08-.03-.15-.03c-.06 0-.1.01-.14.03s-.06.05-.07.09-.02.1-.02.18c0 .09.01.15.02.19s.04.08.08.09.09.02.15.02h.14l.14-.01.01.09c-.03.01-.06.02-.09.02l-.11.01h-.1c-.09 0-.17-.01-.22-.04s-.1-.07-.12-.13-.04-.14-.04-.25.01-.19.04-.25.07-.1.12-.13.12-.04.21-.04z" class="k"/><path opacity=".3" d="M56.73 8.71L33.34 44.57V26.94L45.23 8.71h11.5zm7.17 2.34L33.34 57.9v-8.17L60.1 8.71h.37a3.7 3.7 0 0 1 3.44 2.34zm.27 20.85l-27 41.39h5.33l21.67-33.22V31.9z" fill="#ecf5ff"/><path d="M53.47 10.29h-7.38c-1.24 0-2.25-1.01-2.25-2.25h11.88c0 1.24-1.01 2.25-2.25 2.25z" class="h"/><path d="M87.74 68.01c-.47-.05-1.29-.2-1.73-.03l-.99.2c-.02.54.14.7.45.91.34.23.9.24 1.27.19.97-.12 1.57-.52 2.48-.77l.07-.36c-.5-.01-1.04-.09-1.55-.14z" class="f"/><path d="M85.94 65.26c-.02.3-.25.58-.37.85a7.5 7.5 0 0 0-.36 1.04c-.14.46-.34 1.15-.09 1.59.66 1.12 1.78-1.29 2.04-1.75.05-.08.09-.18.14-.25l-1.37-1.48zm5.7-.73c.26.85.32 3.79-.04 4.24-.91 1.15-1.43-1.93-1.57-2.53l-.08-.32 1.68-1.38z" class="e"/><path d="M91.89 65.49a5.4 5.4 0 0 0-.34-1.3c-.16-.43-.52-1-.93-1.14l.2 4.08h.12a2.3 2.3 0 0 0 .64-.09c.24-.06.33-.05.38-.26.08-.39-.03-.9-.08-1.28z" fill="#8e0e3f"/><path d="M88.97 85.36l-.02.1c-.4 1.62-.79 3.09-.51 4.88-.33.02-1.28.23-1.48.01.31-.97.66-1.04.6-2.15l-.34-3.86-.16-2.05-.24-2.61c-.05-.57.1-1.94-.25-2.36l2.52-.9c-.22.53-.05 1.46-.15 2.07a8.5 8.5 0 0 0-.1 2.15c.09.83.35 1.57.39 2.41a8.3 8.3 0 0 1-.27 2.31z" class="e"/><use href="#C" class="f"/><use href="#D" class="g"/><use href="#E" fill="#e2bc50"/><path d="M88.6 90.79c-.67.07-2.23.12-2.56-.08.08-.17.42-.49.72-.74.02.22.14.42.53.51a2.3 2.3 0 0 0 1.24-.09l.06.4z" fill="#cea338"/><path d="M91.25 85.36l-.02.1c-.4 1.62-.79 3.09-.51 4.88-.33.02-1.28.23-1.48.01.31-.97.66-1.04.6-2.15l-.34-3.86-.16-2.05-.24-2.61c-.05-.57.1-1.94-.25-2.36l2.52-.9c-.22.53-.05 1.46-.15 2.07-.11.7-.18 1.44-.1 2.15.09.83.35 1.57.39 2.41.04.77-.1 1.58-.27 2.31z" class="e"/><use href="#C" x="2.3" class="f"/><use href="#D" x="2.29" class="g"/><use href="#E" x="2.29" fill="#e2bc50"/><path d="M90.89 90.79c-.67.07-2.23.12-2.56-.08.08-.17.42-.49.72-.74.02.22.15.42.53.51a2.3 2.3 0 0 0 1.24-.09l.06.4z" fill="#cea338"/><path d="M90.46 63.71c-.15.16-.67.23-.88.26l-.16.02c-.27.04-.57.09-.82.07.05-.39.2-.74.15-1.17-.06-.51-.39-.63-.78-.78l1.21-.46 1.01-.38c.23.37.3.74.35 1.17.03.29.16 1.02-.07 1.26z" class="e"/><path d="M89.05 62.71c-.19.07-.51.13-.66.26s-.15.32-.23.47l2.38-.05c.07-1.15-1.11-.81-1.49-.68z" class="g"/><path d="M92.67 81.57c-1.78.62-1.95.52-3.01.64-1.82.2-2.83-.17-3.95-.55-.64-2.66.02-8.11.46-10.22a1.2 1.2 0 0 1 .06-.25 25.9 25.9 0 0 0 .75-3.12 3.8 3.8 0 0 1 .14-.62c.01-.02.02-.04.02-.06.03-.09-.25.44-.39.43-.31-.02-.78-.12-1.11-.32-.22-.13-.39-.3-.42-.52-.01-.07-.01-.14.01-.22.55-2.09 2.43-3.73 4.56-3.72l.83.01c.18.1 2.05.62.63 5.03a7.5 7.5 0 0 0-.24 1.87 11.5 11.5 0 0 0-.01.26h.02l.12.36c.99 2.94 1.52 10 1.5 11z" fill="#dd2c67"/><g fill="#8e0e3f"><path d="M87.14 67.39c.03-.09-.25.44-.39.43-.51-.03-1.45-.3-1.53-.84a3 3 0 0 0 .6.28c.41.14.57.17.9-.1.56-.45.87-1.2 1.09-1.72a4 4 0 0 1-.68 2.02l.02-.06z"/><path d="M87.38 80.31c-.78-1.37-.89-3.17-.89-4.68 0-1.88.29-3.72.6-5.58l.62-3.93c.03-.3-.76 1.32-1.29 1.64l.33.05c.15.01.43-.52.39-.43l-.02.06c-.05.14-.09.31-.14.62-.16.92-.51 2.43-.75 3.12-.03.08-.05.17-.06.25-.45 2.11-1.1 7.56-.46 10.22 1.12.38 2.13.75 3.95.55-1.02-.37-1.78-1-2.29-1.9z"/><path d="M91.17 70.57a8.1 8.1 0 0 1-1.89.24c-.89 0-1.73-.12-2.56-.22-.03-.17-.04-.35-.1-.5a5.7 5.7 0 0 0 2.21.24 9.8 9.8 0 0 0 2.19-.38l-.01.26h.02l.12.36zm-1.03-7.09l.03.02c.01.01.02.01.04.02s.03.02.05.04c.03.03.07.07.1.12l.1.17c.03.06.06.14.09.22l.08.25.06.27.05.28.03.28.02.27a4.8 4.8 0 0 1 0 .48c-.01.14-.02.26-.04.34-.01.04-.02.07-.02.09l-.01.03v-.03c0-.02 0-.05.01-.09a1.9 1.9 0 0 0 0-.34l-.01-.23-.02-.25-.03-.27-.03-.28-.04-.28-.05-.26-.06-.24-.07-.21-.02-.05-.02-.04c-.01-.03-.03-.06-.04-.08-.03-.05-.06-.09-.09-.12s-.05-.06-.07-.07l-.03-.02z"/></g><path d="M87.58 60.83c-.11.08-.46-.01-.49-.15 0-.02 0-.04.01-.07.05-.09.19-.16.26-.24s.16-.22.19-.29l.02.59.01.15z" class="e"/><path d="M87.58 60.83c-.11.08-.46-.01-.49-.15.09.04.23.04.29.04.07 0 .13-.01.19-.04v.15z" class="f"/><path d="M90.71 60.23c-.11.41-.35.8-.68 1.12l-.09.09-.08.08c-.53.47-1.22.8-1.85.87-.18.02-.24.04-.29.01h0c-.03-.02-.06-.05-.11-.12-.29-.4-.38-1.09-.21-1.87.03-.12.09-.24.14-.36a1.5 1.5 0 0 0 .08-.2c0-.02.01-.03.01-.05a4 4 0 0 0 .02-.9l2.34-.28a1.2 1.2 0 0 1 .71 1.6z" class="e"/><path d="M90.04 61.35l-.09.09-.08.08c-.53.47-1.22.8-1.85.87-.18.02-.24.04-.29.01a19.3 19.3 0 0 0 1.81-1.08c.01.01.33.01.49.03z" class="f"/><path d="M87.97 59.72c-.09-.13-.23-.23-.33-.17v.15c.11 0 .35.1.32.36.14.01.05-.27.01-.34z" class="l"/><path d="M87.91 59.98c-.04.07-.09.09-.15.1-.07.01-.14-.02-.21-.03l.07-.2.16.06c.05.02.09.04.13.07z" class="g"/><path d="M87.77 60.03c0 .02-.01.03-.01.04-.07.01-.14-.02-.21-.03l.07-.2.16.06c0 .04 0 .08-.01.13z" class="l"/><path d="M91.85 60.63c-.21.69-.83.98-1.37 1.65.09.23.14.49.15.77a6.8 6.8 0 0 1-.45 2.55c-.2.52-.47.93-.78 1.31l-1.33 1.48c-.14-.49-.03-1.06-.08-1.53-.1.27-.29.45-.37.73a3.4 3.4 0 0 1 .09-2.65l.02-.05a5.7 5.7 0 0 1 .47-.8l.38-.5a5.7 5.7 0 0 0 .39-.54c.11-.18.23-.37.31-.55.08-.16.13-.3.16-.42-.68-.47-.88-1.04-.86-1.83.01-.26.11-.43.01-.8-.05-.17-.34-.28-.48-.36-.1-.06-.35-.16-.51-.14a1.6 1.6 0 0 1 .34-.76c.33-.37.88-.48 1.79-.52 0 0 2.11.07 2.19 2.32.01.25-.02.46-.07.64z" fill="#99473b"/><path d="M90.48 62.29c.09.23.14.49.15.77-.17.05-.34.07-.52.08-.36.01-.77 0-1.15-.07.21-.33.42-.72.47-.97-.68-.47-.88-1.04-.86-1.83.01-.26.11-.43.01-.8-.05-.17-.34-.28-.48-.36-.1-.06-.35-.16-.51-.14a1.6 1.6 0 0 1 .34-.76c.11.15.34.21.53.29.31.13.64.28.76.61.09.26.01.47.03.72.25-.14.45-.37.42-.65.28.2.3.6.23.91-.05.27-.32.7-.18.94.19.33.62.22.87.02a1.2 1.2 0 0 0 .31-.37c.06-.12.04-.37.16-.44.12.14.1.31.17.46.09.2.19.14.41.06l.19-.09c-.21.69-.83.98-1.37 1.65z" fill="#823830"/><path d="M89.13 60.6c.06-.14.16-.45-.1-.51-.19-.05-.42.18-.49.32l-.08.17c-.06.19.02.5.27.44.2-.05.32-.25.39-.42z" class="e"/><g class="f"><path d="M88.57 60.66l-.03-.03.03.03z"/><path d="M88.67 60.37c.2.12 0 .37-.1.29.06.07.16.19.28.07.13-.14.03-.32-.09-.37.14-.08.33-.07.28.14.14-.39-.17-.4-.37-.14z"/></g><path d="M89.4 66.91l-1.33 1.48c-.14-.49-.03-1.06-.08-1.53-.1.27-.29.45-.37.73a3.4 3.4 0 0 1 .09-2.65l.49-.85.38-.5a5.7 5.7 0 0 0 .39-.54 5.8 5.8 0 0 0 .31-.55l.69.25c.12.2-.85 1.22-1.02 1.47-.38.55-.58 1.07-.7 1.73.14-.13.34-.27.44-.45v.82c-.02.26-.17.51.08.63.19.09.41.06.64-.04z" fill="#823830"/><path d="M90.72 62.6l-.03.07c-.35-.04-1.16-.06-1.34-.38l-.05-.22.41.02c.38.01.76 0 1.12-.13.05.27-.03.41-.11.63z" fill="#892745"/><path d="M90.72 62.6l-.03.07c-.35-.04-1.16-.06-1.34-.38l-.05-.22.41.02c.08.22.6.21.77.22-.09.04-.22.02-.3.09.06.14.32.2.54.2z" fill="#59172f"/><path d="M28.95 78.69c-.1-.68-.36-1.86-.23-2.52l.11-1.45c.58-.07.77.15 1.04.58a3.9 3.9 0 0 1 .35 1.83c-.02 1.42-.45 2.37-.63 3.71-.13.05-.17.06-.31.09l-.32-2.24z" class="e"/><g class="f"><path d="M29.37 80.9c.07.18.05.41-.03.56.1.01.21.03.3.08.07-.09.16-.18.28-.13 0 .26-.25.4-.49.35-.3-.05-.32-.27-.41-.51l-.1-.25.45-.1z"/><path d="M29.24 81.24c-.01.04-.03.08-.04.12.1.01.21.03.3.08.07-.09.16-.18.28-.13 0 .26-.25.4-.49.35-.23-.04-.25-.41-.31-.58l.27.16z"/><path d="M29.53 80.46c.18.24.19.61.28.92.08.27-.12.24-.25.06a3 3 0 0 1-.25-.48l.22-.5z"/></g><path d="M28.93 80.75c.06-.2.22-.49.22-.77l.39.4c.1.48-.07 1.1-.16 1.28.1.01.21.03.3.08.07-.09.16-.18.28-.13 0 .26-.25.4-.49.35-.3-.05-.32-.27-.41-.51-.09-.26-.2-.42-.12-.71z" class="e"/><path d="M29.4 75.95zm.44-.04s-.09.23-.2.24c-.12.01-.18-.1-.25-.19.11.09.34.04.44-.04z" class="f"/><path d="M29.81 69c-.24.78-.29 3.51.03 3.92.84 1.06 1.32-1.78 1.45-2.34l.07-.3L29.81 69zm1.97 15.03c-.34.37-.27 1.65-.34 2.17l-.34 2.4-.25 1.89-.47 3.31-.03.24c-.1 1.02.22 1.1.46 2.02-.19.19-1.07-.05-1.37-.08a7.6 7.6 0 0 0 .14-2.16c-.06-.79-.21-1.56-.37-2.37l-.02-.09c-.13-.69-.21-1.44-.14-2.15.08-.78.36-1.45.48-2.21.1-.65.33-1.74.26-2.39-.06-.57-.18-3.17.19-4.06l1.81 3.5z" class="e"/><path d="M29.27 96.43a3.7 3.7 0 0 1 .25-.73c.15-.21.3-.22.54-.09.36.18.68.65.52-.11.09.05.26.18.44.33l.62.53v.18a9.5 9.5 0 0 1-2.38.04s-.03.05.01-.15z" class="g"/><path d="M29.27 96.43c.62.07 2.06.12 2.37-.06-.07-.16-.38-.45-.66-.69l-.44-.33c.16.76-.16.28-.52.11-.25-.12-.39-.12-.54.09-.05.07-.1.3-.14.5l-.06.37z" fill="#af5354"/><path d="M29.27 96.43c.62.07 2.06.12 2.37-.06-.07-.16-.38-.45-.66-.69-.02.21-.14.38-.49.46-.38.09-.78.03-1.15-.09l-.06.37z" fill="#722a2e"/><path d="M31.51 86.8c-.11.8-.09 1.13-.17 1.94l-.26 1.86c-.17 1.14-.6 2.26-.71 3.2l-.8.01c-.06-.79-.21-1.56-.37-2.37l-.02-.09c-.13-.69-.21-1.44-.14-2.15.08-.78.36-1.45.48-2.21.11-.65.07-4.44 0-5.09a6.6 6.6 0 0 0-.27-.89l-.14-.42-.09-.29c-.23-.71-.07-1.53.67-2.67l.02-.03.11-.16 2.13.3.76.11c.3 3.97-1.13 8.43-1.2 8.95z" fill="#146f84"/><path d="M31.22 79.54c-.08 1.57-2.06 1.17-2.11 1.04l-.1-.29c-.23-.71-.07-1.53.67-2.67l.02-.03 1.58 1.22c.01.25-.06.48-.07.72z" fill="#238cad"/><path d="M34.3 83.97c-.3.41-.1 1.67-.12 2.19l-.09 2.42-.05 1.9-.13 3.34v.24c0 1.03.33 1.07.66 1.96-.17.21-1.07.06-1.37.06a7.6 7.6 0 0 0-.09-2.17c-.14-.78-.37-1.53-.61-2.32l-.03-.09a7.6 7.6 0 0 1-.36-2.13c0-.78.2-1.48.25-2.25.04-.66.15-1.76.01-2.41-.12-.56-.5-3.14-.23-4.06l2.16 3.29z" class="e"/><path d="M33.07 96.51a3.7 3.7 0 0 1 .21-.74c.14-.22.28-.24.54-.13.37.16.71.61.51-.14a3.8 3.8 0 0 1 .46.3l.65.49.01.18a9.5 9.5 0 0 1-2.37.18s-.03.05 0-.15z" class="g"/><path d="M33.07 96.51c.62.03 2.07 0 2.36-.2a3 3 0 0 0-.7-.65 3.8 3.8 0 0 0-.46-.3c.2.74-.14.29-.51.14-.25-.11-.39-.09-.54.13-.05.07-.08.3-.11.51l-.04.37z" fill="#af5354"/><path d="M33.07 96.51c.62.03 2.07 0 2.36-.2a3 3 0 0 0-.7-.65c-.01.21-.11.39-.46.49-.38.11-.78.08-1.15-.02l-.04.37z" fill="#722a2e"/><path d="M34.59 77.71c.7 3.92-.25 8.51-.27 9.03-.03.81.03 1.14.03 1.94l-.07 1.87c-.05 1.15-.37 2.31-.37 3.26l-.8.1c-.14-.78-.37-1.53-.61-2.32l-.03-.09a7.6 7.6 0 0 1-.36-2.13c0-.78.2-1.48.25-2.25a51.1 51.1 0 0 0-.52-5.06c-.05-.23-1.06-1.27-1.27-1.76-.32-.72-.45-1.64.27-2.97l3.75.36z" fill="#238cad"/><path d="M34.95 79.69c-1.57.85-2.98.91-4.36.75-.3-.03-1.64-.41-1.71-.68.04-.09.07-.45.1-.99l.01-.19.07-1.64.13-3.2.01-.19.08-1.45.09-1.23c.08-.97.18-1.66.31-1.79.15-.16.5-.26.92-.33.72-.11 1.66-.12 2.25-.11l.56.02c.27.01.48.05.63.13.37.18.41.55.37 1-.05.5-.2 1.12-.14 1.72.3 2.74.22 6.59.67 8.18z" fill="#ff1515"/><path d="M30.73 68.71c0 .28.34 1.62 2.38.24-.5-.2-.49-1.94-.15-2.13l-.78-.06-.98-.18c-.15.38-.16.73-.13 1.13.02.27-.34.7-.34 1.01zm2.77-2.97c.11.05.42-.09.42-.22 0-.02-.01-.04-.02-.06-.06-.07-.2-.11-.27-.17s-.18-.18-.22-.23l.08.54.02.14z" class="e"/><path d="M33.5 65.74c.11.05.42-.09.42-.22-.07.05-.2.07-.26.08s-.12.01-.18 0l.02.14z" class="f"/><path d="M30.55 65.72c.17.36.45.67.8.91l.09.06.09.06c.56.34 1.24.52 1.82.49.16-.01.23-.01.27-.04h0c.03-.02.04-.06.08-.13.2-.41.17-1.06-.11-1.74-.04-.1-.12-.21-.19-.3-.04-.06-.08-.11-.11-.17l-.02-.04c-.09-.24-.14-.68-.16-.82l-2.18.14c-.54.45-.72.85-.39 1.58z" class="e"/><path d="M31.35 66.63l.09.06.09.06c.56.34 1.24.52 1.82.49.16-.01.23-.01.27-.04a17.7 17.7 0 0 1-1.83-.68c-.01.01-.3.06-.44.11z" class="f"/><path d="M32.96 64.8c.06-.14.18-.25.27-.21l.02.14c-.1.01-.3.15-.24.38-.12.03-.09-.24-.06-.31z" class="l"/><path d="M33.07 65.01c.05.05.1.07.15.07.06 0 .13-.04.19-.06l-.1-.17-.14.08c-.04.02-.08.05-.1.08z" class="g"/><path d="M33.2 65.04c.01.01.01.03.02.04.06 0 .13-.04.19-.06l-.1-.17-.14.08c0 .04.01.08.03.11z" class="l"/><path d="M34.98 79.71c-1.57.85-2.98.91-4.36.75-.3-.03-1.74-.2-1.84-.82.04-.1 0-.61.25-1.04 1.08.61 2.26.99 3.52.5 1.48-.58.75-1.82.75-3.27 0-.11-.2-1.16-.3-2.49-.09-1.19.26-1.4.23-1.87-.09-1.32.64-1.03 1.21-1.65-.05.5-.2 1.12-.14 1.72l.05.48.14 2.17c.11 2.18.17 4.42.48 5.54z" fill="#ba0404"/><path d="M34.05 68.79c-.3.21-.74.64-1.28 1.55-.31.53-.45 1.14-.56 1.75l-.04.2-.22 1.01-.34-.1-.53-.16a9.8 9.8 0 0 0 .2-.92l.1-.54c.05-.24.11-.49.19-.74a4.5 4.5 0 0 1 .43-.98c.29-.49.58-.89.87-1.22l.56.02c.27.01.48.05.63.13zm-4.54 3.37l-.87-.26a9.8 9.8 0 0 0 .2-.92c.13-.72.28-1.53.72-2.26.79-1.32 1.57-2.05 2.32-2.16l.13.91c-.21.03-.8.26-1.68 1.73-.35.58-.48 1.28-.6 1.95l-.22 1.01z" class="p"/><path d="M32.35 73.75c.09 1.78.14 4.05-1.58 4.8-1.51.65-3.55.13-3.43-1.9l.01-.14c.38-5.46 2.4-5.82 2.51-5.84.41-.07.85-.15 1.25-.05.26.06.51.21.72.49.49.65.48 1.84.52 2.65z" fill="#3a3a3a"/><path d="M32.35 73.75c.09 1.78.14 4.05-1.58 4.8-1.51.65-3.55.13-3.43-1.9l.01-.14.03.02c1.49.82 3.32.45 3.99-1.3.1-.25.27-.87.15-1.16-.15-.35-2.76-.45-3.42-.19a9.8 9.8 0 0 1 3.52-.53 9.8 9.8 0 0 0-.52-2.73c.26.06.51.21.72.49.49.65.48 1.84.52 2.65z" class="p"/><path d="M33.31 63.86c-.3.25-.66.37-.86.82a1.9 1.9 0 0 0-.16 1.13c.06.43.14 3.68.15 3.72-.31.2-2.51-.28-2.91-.26.11-.66-.08-1.7-.14-2.65a5.7 5.7 0 0 1 .01-1.05c.09-.77.74-1.63 1.39-2.03.47-.29 1.39-.22 1.65-.17l.4.1c.06.02.12.04.17.07.32.15.31.32.31.32z" class="l"/><path d="M33.31 63.86c-.3.25-.66.37-.86.82-.17.39-.22.7-.16 1.13.06.43.14 3.68.15 3.72-.17.11-1.08.2-1.76.1a2.9 2.9 0 0 1-1.16-.36c.11-.66-.08-1.7-.14-2.65.11.07.24.12.38.16.96.24 1.26-.42 1.42-1.19a3.3 3.3 0 0 1 1.65-2.12c.06.02.12.04.17.07.32.15.31.32.31.32z" fill="#4c312f"/><path d="M31.88 66.16c-.03-.16-.06-.51.24-.51.21 0 .39.3.43.47l.04.2c.02.21-.15.51-.4.39-.2-.1-.27-.35-.3-.54z" class="e"/><path d="M32.41 66.04c-.23.07-.1.39.03.33-.08.06-.22.16-.31 0-.1-.18.05-.34.19-.36-.12-.12-.32-.16-.33.07-.05-.44.28-.37.42-.05zm.04.33l.04-.03c-.01.01-.02.02-.04.03z" class="f"/><path d="M34.48 73.9a6.9 6.9 0 0 1-.34.74l-.05.09a5.1 5.1 0 0 1-2.39 2.26l-.25-.61c1.02-.43 2.05-1.52 2.58-3.15a7.3 7.3 0 0 0 .31-1.49l.14 2.17z" class="p"/><path d="M35.49 79.22c-.04-.69-.02-1.9-.28-2.51l-.39-1.4c-.58.05-.73.3-.9.78-.19.53-.09 1.34.02 1.87.3 1.39.92 2.22 1.36 3.5.13.02.18.03.32.02-.08-.73-.09-1.51-.13-2.26z" class="e"/><g class="f"><path d="M35.52 81.48c-.03.19.03.41.14.54-.1.03-.2.07-.27.14-.08-.08-.19-.14-.3-.07.05.25.32.34.55.24.28-.11.26-.33.3-.58l.05-.27h-.46z"/><path d="M35.72 81.78c.02.04.04.07.07.11-.1.03-.2.07-.27.14-.08-.08-.19-.14-.3-.07.05.25.32.34.55.24.21-.09.17-.45.19-.63l-.23.22z"/><path d="M35.28 81.08c-.13.28-.07.63-.09.96-.02.28.17.21.26 0 .07-.15.12-.38.15-.52l-.32-.45z"/></g><path d="M35.92 81.23c-.1-.18-.31-.43-.37-.71l-.3.48c0 .49.28 1.06.42 1.22-.1.03-.2.07-.27.14-.08-.08-.19-.14-.3-.07.05.25.32.34.55.24.28-.11.26-.33.3-.58.04-.27.12-.46-.02-.72z" class="e"/><path d="M34.56 76.32c.22-.04.45-.06.67-.07.46-2.03-.47-7.19-1.04-7.37 0 0-.8.71-1.14 1.89-.28.95.37 4.27.69 5.76a4 4 0 0 1 .81-.21z" fill="#ff1515"/><g class="f"><path d="M34.5 76.63z"/><path d="M34.06 76.68s.13.2.24.19c.12-.02.16-.14.2-.24-.09.11-.33.11-.44.05z"/></g><path d="M80.25 83.86c.25.44.52.85.71 1.35.27.66.78 5.18 1.55 6.65-.26.13-.66.53-.88.41-.04-.96-.09-1.03-.47-1.98l-1.44-3.26-.75-1.74-.63-1.43h1.9z" class="e"/><path d="M82.79 92.19a4.5 4.5 0 0 0-.4-.62c-.17-.16-.27-.13-.4.06-.18.27-.25.8-.38.04a3.3 3.3 0 0 0-.19.43l-.25.67.06.17c.35 0 1.25-.4 1.61-.62 0 0 .04.04-.05-.14z" fill="#06090a"/><path d="M82.78 92.19c-.39.24-1.35.68-1.61.6 0-.17.11-.53.23-.83l.16-.49c.14.76.23.29.41.02.13-.18.22-.22.4-.06.05.05.16.25.26.44l.16.33z" fill="#0b4b55"/><path d="M82.78 92.19c-.39.24-1.35.68-1.61.6 0-.17.11-.53.23-.83.08.19.22.33.48.3.29-.02.54-.18.75-.4l.16.33z" fill="#022a36"/><path d="M77.25 82.56a16.5 16.5 0 0 0 .55 2.33c.38 1.14 1.69 2.65 3.47 6.05.02.04.09.06.17.05.19-.02.5-.16.66-.27.04-.02.07-.05.09-.07 0 0 .18-4.57-2.14-7.23-.3-.34-.05-5.31 0-7.51.01-.55-.28-1.04-.3-1.15-1.13-.21-2.98-.1-3 .14l-.03.56a40.9 40.9 0 0 0 .52 7.11z" fill="#281619"/><path d="M77.88 85.12c.26-1.32-.46-8.68 2.29-8 .01-.55-.4-2.24-.41-2.35-1.13-.21-2.98-.1-3 .14l-.03.56c-.05 1.54.25 7.52 1.16 9.66z" fill="#512e31"/><path d="M81.37 68.81c.32 1.78 1.12 3.13 1.78 3.01s.93-1.65.6-3.43-1.12-3.13-1.78-3.01-.93 1.65-.6 3.43zm-3.86-6.43c.02.17.35.28.49.31l.06-.17.37-1.01-.91.87z" class="e"/><path d="M77.51 62.38c.02.17.35.28.49.31l.06-.17c-.12-.04-.14-.12-.25-.19-.08.35-.3 0-.3.05z" class="f"/><g class="e"><path d="M77.73 63.71c.01.04.02.07.04.1.1.23.71.23 1.24.19l.44-.03.3-.02c.12 0 .23.2.25.18l-.08-.54v-.02l.35-.85.72-1.76-1.61-1.2c-.02-.01.01-.04-.04-.03a7.4 7.4 0 0 0-.71.89c-.17.25-.13.57-.23.82-.03.08-.07.15-.14.21l-.02.01c-.31.3-.33.52-.41.97-.07.41-.17.76-.09 1.08z"/><path d="M78.59 65.61a2.9 2.9 0 0 1 .71.18l.96.32c.09-.5.32-.35.43-.89.12-.59.54-2 .78-2.45l-1.21-.05-.18-.01-.96-.04-.05.85-.05.4-.01.08-.01.09-.14.7a5.1 5.1 0 0 1-.27.81z"/></g><path d="M78.46 60.98c.16.02.48.23.44.39l-.06.16c-.12-.1-.32-.22-.47-.26.02-.1.03-.21.09-.29z" fill="#863b35"/><path d="M78.23 61.67l.15.05.11.04c.05.02.1.04.11.06l.09-.16a1.2 1.2 0 0 0-.17-.14 1 1 0 0 0-.14-.08c-.03.08-.07.15-.14.21l-.01.01z" class="g"/><path d="M78.23 61.67l.15.05.11.04c.01-.02.01-.04.02-.06l.02-.17a1 1 0 0 0-.14-.08c-.03.08-.07.15-.14.21l-.01.01z" fill="#1c1918"/><path d="M77.77 63.82c.1.22.71.22 1.23.19l-.01.09-.14.7.61-.05a1.9 1.9 0 0 1-.02-.77l.02-.21c.03-.25.05-.66.17-.86l-.09-.12c-.1.18-.14.42-.3.57l-.18.16c-.12.1-.26.19-.39.24-.24.09-.62.15-.91.05z" class="f"/><path d="M80.99 64.08c-.29-.15-.55-.32-.87-.38l-.44-.06c-.01-.55.11-1.16.12-1.42-.3.3-.29.41-.47.74-.13-.14-.11-.91.48-2.09.11-.21-1.09-.6-1.06-.8.1-.76 2.36-.31 3.1.26.67.51.71 1.19.47 1.65-.32.61-1.22 2.15-1.33 2.09z" fill="#863b35"/><path d="M79.52 62.12c.16-.14.55.11.6.29.06.19-.14.42-.26.57-.33.44-1.12.19-.34-.86z" class="e"/><path d="M79.53 62.34l.08-.08c.17.03.29.09.29.31 0 .2-.13.33-.29.39.08-.07.17-.17.18-.28.01-.13-.07-.22-.18-.19.09.12-.02.38-.17.3-.17-.09.02-.34.09-.45z" class="f"/><path d="M80.03 86.79l.16-1.92.09-1.05 1.87.06c-.01.68.09 1.33.01 2.02-.08.72-1.88 4.91-1.88 6.61-.31-.03-.91.1-1.07-.13.45-.85.44-.94.55-1.98l.26-3.62z" class="e"/><path d="M80.62 92.81a4.2 4.2 0 0 0-.2-.74c-.13-.22-.25-.22-.46-.1-.3.18-.58.65-.44-.11a3.3 3.3 0 0 0-.38.32l-.53.53v.19c.39.14 1.53.13 2.01.07 0 0 .02.05 0-.15z" fill="#06090a"/><path d="M80.62 92.81c-.52.06-1.75.09-2.01-.09.06-.16.33-.45.57-.68.16-.15.29-.34.37-.39-.15.76.14.36.45.18.21-.12.33-.11.46.1.04.07.08.3.11.51l.05.38z" fill="#0b4b55"/><path d="M80.62 92.81c-.52.06-1.75.09-2.01-.09.06-.16.33-.45.57-.68.01.21.11.39.41.48.32.09.66.05.98-.08l.05.38z" fill="#022a36"/><path d="M79.31 74.77c1.08 3.48.17 15.12.22 16.26 0 .05.06.1.15.13a2.3 2.3 0 0 0 .78.14c.05 0 .09 0 .13-.01 0 0 1.6-3.93 1.91-6.96.09-.87.02-4.05.05-6.85.01-.94.03-1.84.07-2.59l.01-.11h-.09l-2.26-.11c-.56-.01-.98 0-.95.1z" fill="#512e31"/><path d="M79.88 76.36c.22 1.02 1.08 1.7 1.94 1.52.28-.06.52-.2.71-.39.4-.41.59-1.08.44-1.76-.07-.31-.2-.6-.37-.83l-.09-.11-2.26-.11c-.35.41-.51 1.04-.38 1.69z" fill="#503637"/><path d="M81.48 68.65c.12.12.21.28.28.46.15.34.24.74.38 1.05a5.1 5.1 0 0 0 .48.78l1.7-.33h0l-.01-.16-.09-.66c-.13-.75-.32-1.5-.49-2.25-.15-.64-.49-2.18-1.36-2.44l-.09 1.97-.4.81-.39.78z" class="n"/><path d="M81.77 69.11c.15.34.24.74.38 1.05a5.1 5.1 0 0 0 .48.78l1.7-.33v-.01l-.01-.15c-.31.02-.73.11-1.03-.08-.36-.23-.62-3.17-.76-3.75-.02-.07-.24.53-.25.44-.05-.36-.08-.84-.24-1.06l-.16 1.87-.11 1.24z" class="m"/><path d="M79.51 77.16c.88-.13 2.47.05 3.02-.82.01.73-.54 1.05-1.2 1.28-.27.1-.58.14-.8.25-.24.12-1.08.62-1.08.62l.05-1.34z" fill="#281619"/><path d="M78.22 65.22l1.66.02 1.64.02c-.07-.05 0-.36-.05-.63a.6.6 0 0 0-.06-.16 5.7 5.7 0 0 0-2.03-.21c-.26.03-.71.07-.94.18-.31.15-.22.41-.22.78z" class="n"/><path d="M78.22 65.22l1.66.02c0-.03-.01-.07-.02-.12-.06-.17-.29-.34-.32-.52s.13-.12.28-.12l.96.03c.21.02.46.08.69.11a.6.6 0 0 0-.06-.16 5.7 5.7 0 0 0-2.03-.21c-.26.03-.71.07-.94.18-.31.15-.22.41-.22.78z" class="m"/><path d="M80.73 77.21c.08-.12.26-.07.37-.17.13-.12.18-.21.36-.25.12-.03.34-.08.38-.23l.58.47c-.06.19-.09.37-.18.56-.14.3-.35.68-.73.46-.32-.19-.17-.51-.14-.79a2 2 0 0 1-.35.09c-.1.02-.4.04-.28-.14z" class="e"/><path d="M76.44 65.9v.34l.05.9.26 5.48c0 .91.12 2.04-.22 2.85 3.9.88 6.31-.47 6.31-.47a8.8 8.8 0 0 1-.13-.94 21.9 21.9 0 0 1-.08-3.66c.1-1.27-.11-2.62.13-3.85.14-.71.09-1.21-.31-1.42-.68-.36-2.08-.42-3.03-.41a8.9 8.9 0 0 0-2.38.35l-.14.04c-.15.05-.26.11-.33.18-.12.12-.15.3-.15.61z" class="n"/><path d="M76.75 72.61c0 .91.12 2.04-.22 2.85 3.9.88 6.31-.47 6.31-.47a8.8 8.8 0 0 1-.13-.94 6 6 0 0 1-1.73.4 6.3 6.3 0 0 1-2.42-.16c-.71-.23-.71-.96-.77-1.59l-.2-3.04-.46-3.1-.22-1.47c-.15.05-.26.11-.33.18l-.02.15-.13.8.05.9.26 5.48z" class="m"/><path d="M81.73 76.72c.15.17.43.37.66.43.26-.49.6-1.57.76-1.98a14.1 14.1 0 0 0 .57-2.27 3.3 3.3 0 0 0-.1-1.41l-.05-.14c-.02-.05-.05-.1-.08-.14l-.81-.23c-.93 1.38-.58 4.88-.95 5.74z" class="e"/><path d="M82.91 71.46c.27.25.53.24.72.03l-.05-.14c-.21.11-.45.22-.66.11zm-1.07 5.81c.11.17.19.32.24.52.02.07.08.2.04.27-.02.04-.13.06-.17.08-.11.05-.2.14-.3.18s-.17-.01-.26-.06c-.16-.09-.3-.2-.4-.36-.24-.37-.23-.85-.5-1.19l1.37.56z" class="f"/><g class="e"><path d="M81.08 76.56c.09.07.54.35.63.43s.21.11.3.19c.07.06.13.14.2.21s.17.22.28.32c.08.07-.16.17-.24.15-.25-.05-.28-.25-.32-.29l-.03-.03c-.17.13-.34.1-.55.01-.28-.12-.59-.76-.6-.89l.33-.1z"/><path d="M81.33 77.85c.09.08.13.24.16.34.01-.11-.07-.42.12-.39.15.02.15.27.17.39 0-.09-.03-.36.09-.38.13-.02.16.23.16.32.02-.06.04-.49.16-.24.07.13.08.41-.01.53l-.03.07c-.09.05-.27.02-.34-.04-.06.06-.12.07-.19.04-.05-.02-.09-.07-.13-.11-.06-.06-.07-.03-.14-.04-.11-.03-.15-.2-.16-.29-.01-.12.02-.31.15-.18zm-4.38-8.27c.55 1.72 1.46 2.98 2.04 2.8s.33-2.33-.22-4.05-1.2-2.37-1.78-2.2-.6 1.72-.05 3.45z"/></g><path d="M76.32 68.23l.72 2.4.22.58.11.25 2.18-.65.09-.03c.03-.34-.34-.89-.37-1.21-.05-.56-1.04-3.34-.92-3.89l-1.39-.58c-1.51.38-.83 2.44-.64 3.12z" class="n"/><path d="M79.15 71.04c.51-.11 1.99 5.38 2.25 5.87-.26.06-.47.31-.71.23-.63-1.15-3.14-4.14-2.94-5.96l1.4-.14z" class="e"/><path d="M77.27 71.21l.11.25 2.18-.65c-.48-1.57-.96-2.11-1.38-4.38-.11 1.53.62 3.92.5 4.16-.13.26-.65.43-.9.52a2.6 2.6 0 0 1-.51.11z" class="m"/><path d="M79.01 71.22h.05c-.26.38-.59.42-.88.05.24.18.58.03.83-.05z" class="f"/><g class="e"><path d="M81.05 78c.03-.08.09-.17.16-.24.1-.1.23-.05.19.07-.04.11-.14.22-.19.32l-.04.06c-.17.06-.15-.14-.13-.21z"/><path d="M80.89 77.83c.03-.09.1-.19.17-.26.11-.11.25-.06.21.08-.04.12-.15.23-.21.35l-.04.06c-.18.07-.16-.15-.14-.23z"/><path d="M80.69 77.66c.03-.09.1-.2.19-.28.12-.11.27-.06.22.09-.04.12-.16.25-.22.37l-.04.07c-.2.07-.17-.16-.15-.25z"/><path d="M80.55 77.59c.03-.08.09-.18.17-.25.1-.1.24-.05.2.08-.04.11-.14.22-.2.33l-.04.06c-.17.06-.15-.14-.13-.22z"/></g><path d="M80.31 64.95l.05.17.03.09.02.11.06.26.06.31.03.17.02.18a4.2 4.2 0 0 1 .04.37l.02.19.01.1v.1l.01.19.01.19v.37l-.01.35-.02.31-.02.26-.02.2-.02.18.06-.17.06-.2.06-.26.05-.31.02-.17.01-.18.01-.19v-.19-.2l-.01-.2-.04-.39-.03-.19-.03-.19-.04-.18-.04-.17-.09-.31c-.03-.1-.07-.18-.1-.25l-.04-.1-.04-.08-.08-.16z" class="m"/><path d="M44.96 96.99a3.3 3.3 0 0 0-.22-.66c-.14-.19-.27-.2-.49-.09-.32.16-.62.59-.47-.09-.08.05-.24.16-.4.29l-.56.48v.16a8.7 8.7 0 0 0 2.16.03s.03.04-.01-.13z" fill="#04090a"/><path d="M44.96 96.99a6.8 6.8 0 0 1-2.15-.05c.07-.14.35-.41.6-.62a3.5 3.5 0 0 1 .4-.29c-.15.68.15.26.47.09.22-.11.35-.11.49.09.04.06.09.27.13.45l.06.33z" fill="#0a252d"/><path d="M44.96 96.99a6.8 6.8 0 0 1-2.15-.05c.07-.14.35-.41.6-.62.02.19.12.35.45.42.35.08.71.03 1.05-.08l.06.33z" fill="#051519"/><path d="M45.64 81.91l-.21 2.19-.13 3.67a128.9 128.9 0 0 1-.41 8.26c-.03.22-.05.35-.08.36-.26.19-1.12.07-1.33-.13.03-.08-.2-2.38-.3-3.48l-.38-4.91-.54-5.69-.25-2.51v-1.33c0-.25.11-.65.03-.84l3.87.67c.12 1.21-.09 2.46-.26 3.72z" fill="#252c30"/><path d="M45.95 96.99a3.3 3.3 0 0 1 .23-.66c.14-.19.27-.2.49-.09.32.16.62.59.47-.09.08.05.24.16.4.29l.56.48v.16a8.7 8.7 0 0 1-2.16.03s-.03.04.01-.13z" fill="#04090a"/><path d="M45.95 96.99c.56.06 1.87.11 2.15-.05-.07-.14-.35-.41-.6-.62l-.4-.29c.15.68-.15.26-.47.09-.22-.11-.35-.11-.49.09-.04.06-.09.27-.13.45l-.06.33z" fill="#0a252d"/><path d="M45.95 96.99c.56.06 1.87.11 2.15-.05-.07-.14-.35-.41-.6-.62-.02.19-.12.35-.45.42-.35.08-.71.03-1.05-.08l-.06.33z" fill="#051519"/><path d="M45.01 78.19l3.87-.67c-.08.19.03.59.03.84v1.33l-.25 2.51-.54 5.69-.38 4.91-.3 3.48c-.22.2-1.07.32-1.33.13-.2-.15-.36-7.31-.35-8.59l-.06-3.77c0-1.99-.86-3.94-.68-5.85z" fill="#252c30"/><g fill="#171c1e"><path d="M45.43 84.1l-.13 3.67a128.8 128.8 0 0 1-.41 8.26v-.5c-.11-2.19.09-13.93.06-14.44-.77-.13-1.48-.4-2.07-.97.41.16 2.47.5 2.68.58.02.35-.1 2.65-.12 3.38z"/><path d="M45.53 84.1l.13 3.67a128.8 128.8 0 0 0 .41 8.26v-.5c.11-2.19-.09-13.93-.06-14.44.77-.13 1.48-.4 2.07-.97-.41.16-2.47.5-2.68.58-.02.35.1 2.65.12 3.38z"/></g><path d="M49.34 73.22c-.55 1.68-.58 3.23-.39 4.95-.55.1-1.23.01-1.8.01-.61 0-1.19-.05-1.81-.05h-.27c-1.01-.01-2.25-.03-3.14.31-.14-.28.01-.72.03-1.04.02-.39-.02-.76-.04-1.15-.03-.74-.07-1.48-.23-2.19l-.23-.85-.48-1.35c-.27-.66-.71-1.47-.05-2.01.45-.37 1.4-.7 2.19-1.12.61-.32 1.12-.7 1.22-1.19l1.76.1c.04.18.45.47.95.77l1.62.9c.61.34 1.12.59 1.24 1.46.1.74-.35 1.77-.57 2.45z" fill="#c6bfa3"/><g class="q"><path d="M47.05 68.41c-.88.17-1.8.17-2.63.22l-1.29.1c.61-.32 1.12-.7 1.22-1.19l1.76.1c.04.18.45.47.95.77z"/><path d="M45.53 68.98l.02.04c.01.03.02.06.03.11l.04.18.03.23.03.27.02.3.01.66-.02.66-.02.3-.02.27-.05.4-.03.15-.01-.15-.02-.41-.01-.27v-.3-.32-.33l.01-.66.01-.57v-.23-.18-.11c0-.01 0-.02-.01-.03z"/></g><path d="M47.08 65.9l-.37 1.25c-.03.15-.02.45-.07.65-.01.05-.03.1-.06.13-.19.23-.5.13-.8.14-.63.03-1.22 0-1.85 0l-.63-1.77c-.13-.61-.09-1.19.31-1.71a1.4 1.4 0 0 1 .17-.18c.7-.67 2.15-.98 2.51.17 1.03-.36 1 .48.8 1.3z" fill="#6d4a46"/><path d="M47.08 65.9l-.44 1.91c-.02.06-.04.11-.06.13-.19.23-.5.13-.8.14-.63.03-1.22 0-1.85 0l-.63-1.76c-.13-.61-.09-1.19.31-1.71.05-.06.1-.12.17-.18-.11.39 0 .8.31 1.08.63.57 1.69.35 2.24-.21 0 .12-.06.43 0 .53.06.12.27.12.41.12.12 0 .23-.02.34-.05z" fill="#4f3331"/><path d="M45.08 78.13c-1.01-.01-2.25-.03-3.14.31-.14-.28.01-.72.03-1.04.02-.39-.02-.76-.04-1.15-.03-.74-.07-1.48-.23-2.19l-.23-.86.49-.96c-.1 2.14.32 3.74.79 4.35.53.67 1.52 1.12 2.26 1.5l.08.04zm.59.03c1.01-.01 2.25-.03 3.14.31.14-.28-.01-.72-.03-1.04-.02-.39.02-.76.04-1.15.03-.74.07-1.48.23-2.19l.23-.85-.49-.96c.1 2.14-.32 3.74-.79 4.35-.53.67-1.52 1.12-2.26 1.5l-.08.04z" class="q"/><g class="f"><path d="M46.64 79.21c-.52.09-.91.22-1.36.5-.12.08-.53.3-.51.48.02.15.44.39.56.44.36.15.88.02 1.25-.11.46-.17.64-.5.88-.87l-.82-.44z"/><path d="M45.88 80.15a4.8 4.8 0 0 0-1.48-.89c-.09-.03-.2-.05-.27-.04l-.91.23c-.11.57.75.82 1.03 1.19.08.1.3.53.46.43.17-.1-.18-.53-.23-.63.31.07.55.25.85.31.09.02.36.09.35-.07 0-.01 0-.01-.01-.02.1.05.2.1.32.11.03-.07-.02-.15-.1-.23.08.05.15.1.2.11.35.09-.12-.41-.21-.49zm-.38.05l.03.02-.03-.02z"/></g><g class="e"><path d="M44.88 79.56c-.27-.52-.58-.34-.97-.61l-.55.35c.04.05.14.37.19.42.3.32.57.21.98.28.24.04.31.04.51.2.09.07.4.17.51-.02.05-.08-.58-.46-.67-.62z"/><path d="M45.67 79.68c.3-.5.6-.3 1-.55l.53.38c-.04.05-.17.36-.21.41-.31.3-.59.17-1 .21-.25.02-.31.02-.52.17-.09.07-.41.14-.51-.05-.04-.08.61-.43.7-.58z"/><path d="M45.55 80.55c.02-.13-.02-.25-.17-.16-.09.06-.13.16-.16.26v.03c0 .1.07.21.19.15.07-.04.12-.19.14-.27z"/><use href="#F"/><path d="M46.29 80.56c.07-.16.07-.32-.11-.24-.11.06-.19.18-.26.3v.03c-.04.13 0 .28.13.22.09-.04.19-.22.24-.32z"/><use href="#F" x=".53"/></g><path d="M44.03 78.98c-.34.28-.34.65-.68.93-.41-.46-3.65-2.52-3.68-3.35-.03-.96.32-6.2 1.26-6.72l.76 1.64.11.24.3.66-.24 1.57-.17 1.66c.03.63.14.53.73 1.15.21.22.38.44.53.65l1.07 1.58zM51 76.55c-.01.83-3.2 2.97-3.59 3.45-.35-.27-.42-.52-.77-.79.2-.25.38-.54.56-.84.3-.51.61-1.06 1.05-1.55.58-.64.68-.54.7-1.17a19.2 19.2 0 0 0-.3-2.21l-.19-1 .07-.17.09-.21.94-2.15c.84.74 1.45 5.69 1.44 6.64z" fill="#c6bfa3"/><path d="M42.96 77.4c-.38-.3-.81-.56-1.23-.8-.12.17-.29.37-.47.46a4.6 4.6 0 0 1 .18-.82c-.33 0-.69.27-1.04.31.2-.28.68-.51 1.01-.57l.38-4.83c.45 1.1-.1 4.2-.09 4.46.03.63.14.53.73 1.15.21.22.38.44.53.65zm6.23-1.17c.19.21.27.55.31.82-.14-.25-.35-.52-.6-.66-.35.49-.82.92-1.2 1.38l-.5.59c.3-.51.61-1.06 1.05-1.55.58-.64.68-.54.7-1.17a19.2 19.2 0 0 0-.3-2.21l-.03-.45-.08-.72-.02-.64.11.43.72 3.92c.32.1.55.4.72.66-.29-.16-.58-.27-.87-.41z" class="q"/><path d="M62.04 76.66c-.04.23-.3.46-.45.63l-.49.55c-.15.19-.22.46-.38.63-.25-.41-.31-.97-.63-1.35.22-.04.44-.19.63-.3.15-.1.37-.19.49-.31l.83.16zm-8.92 0c.04.23.3.46.45.63l.49.55c.15.19.24.55.41.72.25-.41.29-1.06.6-1.44-.22-.04-.44-.19-.63-.3-.15-.1-.37-.19-.49-.31l-.83.16z" fill="#87582e"/><path d="M58.9 95.13c.31.01.61-.04.9-.11.11-.02.23-.06.34-.06.02-.1-.04-.25-.08-.34-.02-.05-.05-.1-.07-.14l-.25-.09c-.17-.06-.24-.14-.27-.32a16.4 16.4 0 0 1-.22-1.9h-.73c.07.37-.15 2.34-.19 2.87l.09.02c.15.04.32.06.47.07z" class="o"/><path d="M60.67 95.1c-.01-.07-.03-.15-.07-.21-.11-.21-.37-.32-.61-.4.03.04.05.09.07.14.04.09.09.24.08.34-.11 0-.24.03-.34.06a4.1 4.1 0 0 1-.9.11c-.16-.01-.32-.03-.47-.07l-.09-.02-.01.12c.01.09-.01.33.08.38a4.5 4.5 0 0 0 .87.05c.31-.07 1.18-.35 1.32-.38.08-.02.08-.03.07-.11z" class="k"/><path d="M56.53 95.13c-.31.01-.61-.04-.9-.11-.11-.02-.23-.06-.34-.06-.02-.1.04-.25.08-.34.02-.05.05-.1.07-.14l.25-.09c.17-.06.24-.14.27-.32.04-.17.22-1.43.22-1.9h.73c-.07.37.15 2.34.19 2.87l-.09.02c-.15.04-.32.06-.47.07z" class="o"/><path d="M54.76 95.1c.01-.07.03-.15.07-.21.11-.21.37-.32.61-.4-.03.04-.05.09-.07.14-.04.09-.09.24-.08.34.11 0 .24.03.35.06a4.1 4.1 0 0 0 .9.11c.16-.01.32-.03.47-.07l.09-.02v.12c-.01.09.01.33-.08.38a4.5 4.5 0 0 1-.87.05c-.31-.07-1.18-.35-1.32-.38-.08-.02-.08-.03-.07-.11z" class="k"/><path d="M60.61 77.14c-.33-.68-.87-1.12-1.48-1.53l-1.43.9-1.43-.9c-.6.41-1.15.85-1.48 1.53-.49 1.09-.38 2.32-.3 3.5.05.71.16 1.42.33 2.13l.57 2.32c.25 1.31-.41 2.54-.3 3.82l.3 3.55c.3.05.66.08.96.05.19 0 .77-.11.87-.27s0-.74 0-.93l.03-2.13.19-4.21.07-4.49.37.03.07 4.46.19 4.21.03 2.13c0 .19-.11.76 0 .93s.68.27.87.27c.3.03.66 0 .96-.05l.3-3.55c.11-1.28-.55-2.51-.3-3.82.14-.79.41-1.56.57-2.32.16-.71.27-1.42.33-2.13.08-1.17.19-2.4-.3-3.5z" fill="#afafaf"/><g fill="#777"><path d="M55.56 80.39c.09 0 .18.02.27.04l.13.02c.04.01.09 0 .14.01l.55.01 1.11-.02.55.01.55.01.55.01c.09 0 .18.01.27 0s.18-.04.26-.08c-.08.05-.16.09-.25.11s-.19.02-.28.03l-.55.01-.55.01c-.19 0-.37-.01-.55-.01-.37-.01-.74 0-1.11-.01-.19 0-.37-.02-.55-.04-.19-.01-.36-.1-.54-.12z"/><path d="M57.77 80.49l-.05-.88-.03-.88v-.88l.02-.88.03.44.02.44.02.88.01.88-.01.44-.02.44zm-2.7-2.68l.06 1.49c.01.12.02.24.07.35.02.05.06.1.1.14s.09.06.15.09c.11.05.23.08.35.09s.24.01.37.01l.37-.01c.12-.01.24-.04.33-.1s.16-.16.19-.27c.01-.03.01-.05.02-.08v-.09-.18l-.05-1.48.04.04-1 .01h-1zm0 0l.99-.05 1-.04h.04v.04l.07 1.49v.19.1c0 .03-.01.07-.02.1-.03.13-.12.25-.24.32s-.25.1-.37.11-.25.01-.38.01a1.7 1.7 0 0 1-.75-.12c-.06-.03-.12-.06-.17-.11s-.09-.1-.12-.16a1 1 0 0 1-.06-.38v-1.49zm5.34 0v1.49c0 .12-.01.25-.06.38-.03.06-.07.12-.11.16s-.11.08-.17.11a1.7 1.7 0 0 1-.75.12c-.12 0-.25 0-.38-.01a.8.8 0 0 1-.37-.11c-.11-.07-.2-.19-.24-.32-.01-.03-.02-.07-.02-.1l-.01-.1v-.19l.07-1.49v-.04h.04l1 .04 1 .05zm0 0h-1l-1-.01.04-.04-.05 1.48v.18l.01.09c0 .03.01.05.02.08.03.11.1.21.19.27s.21.09.33.1.24.01.37.01l.37-.01c.12-.01.24-.04.35-.09.05-.02.11-.05.15-.09s.08-.08.1-.14c.05-.1.06-.23.07-.35l.06-1.49zm-3.2 12.89l-.29.25h0 0c-.12.08-.26.14-.41.17s-.29.03-.43.02c.14-.05.28-.08.41-.11l.2-.06c.06-.02.13-.05.19-.09h0c.11-.07.22-.13.34-.18zm-1.62.68c.16.03.33.02.49.02.08 0 .16 0 .24-.02l.24-.06c.04-.01.07-.02.11-.04l.12-.04.06-.02c.02-.01.04-.01.08-.01.06.01.12.05.13.12s-.01.11-.04.15-.05.08-.08.11c-.06.07-.12.12-.2.17h.01c-.08.05-.16.08-.24.1s-.16.05-.25.06l-.25.03c-.04 0-.09 0-.13-.01s-.08-.02-.11-.06c.03.03.07.04.11.04s.08 0 .12-.01c.08-.01.16-.03.24-.05s.16-.05.23-.08.15-.06.21-.1h0 .01c.06-.03.12-.09.17-.15.03-.03.05-.06.07-.09s.03-.07.02-.08-.02-.03-.04-.04c-.01 0-.03 0-.05.01l-.06.02-.12.04c-.04.01-.09.03-.12.03l-.25.05c-.04 0-.09.01-.13.01h-.12l-.25-.02c-.08-.01-.17-.02-.24-.05zm2.91-.76c.03.06.08.1.14.13s.11.06.17.08l.18.06.18.06c.12.03.25.05.37.06s.26 0 .38-.02a.9.9 0 0 1-.38.1c-.13.01-.27-.01-.4-.04a1.7 1.7 0 0 1-.19-.06l-.18-.08c-.06-.03-.12-.07-.17-.11s-.1-.1-.11-.17z"/><path d="M59.75 91.33l-.59.08c-.1.01-.2.02-.31.01s-.21-.03-.29-.02c0 0 .01.02.02.03s.03.04.04.06l.01.01h0 0 .01l.03.03c.06.07.14.12.23.17.17.1.36.16.55.22-.2-.02-.4-.06-.59-.15a1.1 1.1 0 0 1-.26-.18l-.03-.03h-.01v-.01l-.01-.01-.05-.06c-.02-.02-.03-.05-.04-.09-.01-.02 0-.06.03-.08s.04-.02.06-.02c.06-.01.11 0 .16.01l.15.02a2.1 2.1 0 0 0 .29.01h.6z"/></g><path d="M61.73 72.09c.19.26.44.45.66.67l.78.79c-.23.33-.36.74-.59 1.08l-.66.92c-.12.14-.2.29-.31.44-.11.16-.1.18-.29.23-.33.12-.44.49-.75.63-.14.07-.92.04-.81.29.07.16.71.12.86.05.15-.05.23-.22.4-.23.14 0 .34.05.49.08.29.04.6.04.72-.29.03-.11.01-.2.03-.3.03-.16.11-.2.23-.31l.75-.66 1.59-1.52-1.03-1.42-1.3-1.42-.78.97z" class="o"/><path d="M60.03 71.06c.04.26.33.53.45.75.16.27.38.56.51.85.14-.03.29-.16.41-.23l.45-.25c.31-.2.74-.7.97-1l-.59-.68-.78-.85c-.33-.38-.59-.79-1.11-.9-.22-.04-.42-.1-.63-.1-.16 0-.38-.08-.53-.03l.85 2.43z" fill="#abcdff"/><path d="M53.43 72.09c-.19.26-.44.45-.66.67l-.78.79c.23.33.36.74.59 1.08l.66.92c.12.14.21.29.31.44.11.16.1.18.29.23.33.12.44.49.75.63.14.07.92.04.81.29-.07.16-.71.12-.86.05-.15-.05-.23-.22-.4-.23-.14 0-.34.05-.49.08-.29.04-.6.04-.72-.29-.03-.11-.01-.2-.03-.3-.03-.16-.11-.2-.23-.31l-.75-.66-1.59-1.52 1.02-1.42 1.3-1.42.78.97z" class="o"/><g fill="#abcdff"><path d="M55.13 71.06c-.04.26-.33.53-.45.75-.16.27-.38.56-.51.85-.14-.03-.29-.16-.41-.23l-.45-.25a5.1 5.1 0 0 1-.97-1l.59-.68.78-.85c.33-.38.59-.79 1.11-.9.22-.04.42-.1.63-.1.16 0 .38-.08.53-.03l-.85 2.43z"/><path d="M56.49 68.61c-.22 0-.41.04-.61.08-.48.06-.71.08-.92.61-.36.94.2 1.98.31 2.92l.1 1.17c0 .19.03.36-.03.56-.07.15-.19.31-.17.5s.15.33.12.56c-.02.17-.12.36-.19.54-.14.36-.31.73-.27 1.13.24 0 .48.13.7.19l.73.13c.51.1 1.04.25 1.57.27a4.6 4.6 0 0 0 1.45-.15l.65-.21c.12-.06.46-.17.53-.29.09-.15 0-.48-.07-.61-.12-.23-.41-.36-.48-.61-.07-.27.17-.4.2-.63.03-.29-.22-.38-.32-.58-.22-.42.1-1.17.19-1.59l.29-1.69c.07-.56.12-1.44-.19-1.92-.32-.48-1-.27-1.45-.44l-2.13.08z"/></g><path d="M58.94 75.07a6.6 6.6 0 0 1-1.68.29c-.52.03-1.04-.04-1.55.02-.01 0-.04.01-.04.02 0 .33.75.38.97.4l.79.07c.48.03.95-.03 1.43-.04.06 0 .06-.04 0-.04l-1.01.06-.86-.05c-.35-.03-.74-.05-1.06-.21-.06-.03-.11-.07-.14-.12-.06-.09.45-.08.5-.08l.98.01c.59-.03 1.17-.12 1.73-.3.06-.02-.02-.04-.05-.03zm.55.87a4.3 4.3 0 0 1-1.98.31 6.8 6.8 0 0 1-1.11-.12c-.33-.06-.78-.06-1.05-.28-.02-.02-.12-.03-.08.01.21.17.48.21.74.26l1.31.18c.76.03 1.57.03 2.26-.31.02-.01-.06-.05-.09-.04z" fill="#97b2d3"/><path d="M58 63c-.25-.01-.52.05-.78.14-.56.24-.93.6-1.18 1.15-.53 1.17-.36 2.53-.36 3.77 0 1.18-.78 2.22-.64 3.44.09.67.42 1.17 1.06 1.42.51.2 1.08.29 1.62.35 1.02.11 2.26-.18 2.57-1.27.31-1.02.04-2.15-.26-3.11-.33-1.06-.58-2.06-.62-3.17-.02-.69.03-1.43-.32-2.05-.26-.46-.65-.65-1.08-.66z" class="k"/><g class="i"><path d="M8.63 59.56c.65.14 1.3.15 1.34 1.08s-.08 2.9-.99 2.42S7.29 62 7.25 60.95s.72-1.53 1.38-1.39h0z"/><path d="M8.7 64.35l.55-1.89-1.69-.52-.42 2.41H8.7z"/></g><path d="M6.85 63.68c-.26-.21-1.17.69-1.45 1.26s-1.34 2.22-1.22 3.49 2.47 1.98 2.47 1.98l.66-1.22-.46-5.51h0z" fill="#c667a7"/><g class="i"><path d="M10.87 90.28c-.52-.27-1.1-.75-1.26-1.11l-.21 1.07H9l-.27-1.55s-.48-.52 0-1.44c0 0 .27-2.03-.05-3.21s-.78-2.58-.27-3.69l-.11-1.66 1.8.91c-.02.05-.08 1.12-.1 1.23s-.09 5.83.01 6.33a7.6 7.6 0 0 0 .66 1.47c.29.53.6 1.01.77 1.08.35.16-.08.84-.6.57h0z"/><path d="M8.52 89.4C7.77 89.22 7 87.99 7 87.99l-.17 1.41h-.27l-.3-1.85c-.35-.76.05-1.31.05-1.31.07-.73 0-3.83-.12-4.77s.44-1.81.44-1.81v-1.38l1.64-.17-.15 2.23-.67 6.22c.13.55.63 1.2 1.08 1.7l.77.8c.15.17-.01.52-.77.34h0z"/></g><path d="M8.52 89.4C7.77 89.22 7 87.99 7 87.99s-.14-.3-.74-.44c-.35-.76.05-1.31.05-1.31s.35-.07.54.2.83 1.68 1.33 1.78l.33.05.77.8c.15.17-.01.52-.77.34z" fill="#2c53a4"/><path d="M7 87.99l-.17 1.41h-.27l-.3-1.85c.6.14.74.44.74.44h0z" fill="#234180"/><path d="M10.86 90.28c-.52-.27-1.1-.75-1.26-1.11l-.21 1.07H9l-.27-1.55s-.48-.52 0-1.44c.23.05.58.15.72.42.18.35.5 1.05.94 1.05.1 0 .2-.04.29-.1.29.53.6 1.01.77 1.08.35.16-.08.84-.6.57h0z" fill="#2c53a4"/><path d="M9.6 89.17l-.21 1.07H9l-.27-1.55s.55.06.87.48z" fill="#234180"/><path d="M5.72 70.13s-.59 1.27-.23 2.32 1.2 4.43 1 6.23c0 0 1.22 1.29 3.66 1.18 0 0 1.72-5.4-.16-8.32l-4.27-1.41h0z" fill="#173660"/><path d="M8 63.6c.61.23 2.4 1.36 2.67 1.74s-.22 1.92-.4 2.73a17.9 17.9 0 0 0-.29 3.47c.08.34-1.82.61-2.99-.25s-1.29-1.17-1.29-1.17-.13-2.07.09-4.19.58-2.97 2.2-2.35h0z" fill="#b0519e"/><path d="M11.05 66.82c-.09.47-.74 2.78-.58 3.72.05.31.19.78.36 1.3-.61.3-1.05.39-1.32.41-.2-.48-.34-1.02-.37-1.59-.07-1.77.27-3.78.56-4.47s.65-.95 1.03-.75c.34.18.42.91.33 1.38h0z" fill="#c667a7"/><path d="M11.05 76.38c-.45.01-.54-.32-.45-.94s.23-.71.05-1.15c-.12-.3-.74-1.05-1.15-2.05.27-.02.71-.11 1.32-.41l.82 2.55c.03.41-.16 1.98-.6 1.99z" class="i"/><path d="M10.14 60.05c.04.32-.16 1.02-.48 1.42s-.72 1.87-.43 2.45c0 0-.6-.73-.72-1.64 0 0 .14 1.93-.66 1.93s-1.5-.32-1.35-1.19.67-1.14.67-1.14-1.07-.73-.37-2.2 3.19-.79 3.34.37h0z" fill="#52260f"/><path d="M16.61 89.55s-.19 1.07-.07 1.22 1.17.44 1.72 0 1.65-1.69 1.44-2.02-.56-.38-.94-.36-2.15 1.16-2.15 1.16z" fill="#3a2410"/><path d="M20.64 77.24l-1.17 5.94s-.05 1.37-.27 1.85a10.7 10.7 0 0 0-.71 2.55l-.27 1.94s-.3.71-1.76.11l.12-3.72a6.5 6.5 0 0 1 .63-3.26l.16-6.64 3.27 1.22h0z" fill="#212120"/><path d="M20.11 91.15s-.17 1.01-.1 1.19.23.6.75.56.97-.39 1.3-.43 2.39-.56 2.33-.9-3.25-.78-3.25-.78l-1.03.37h0z" fill="#3a2410"/><path d="M23.77 77.09s-.22 4.21-.74 6.72c0 0-.08 1.46-.25 2.01s-.99 5.28-.99 5.28-.29.6-1.87.14l-.21-5.43c.08-.59.63-1.25.63-1.25l-.36-3.02c-.12-.6-.35-3.65-.1-4.59l3.89.13z" fill="#2b2b2b"/><g class="i"><path d="M22.09 62.65s-.39-.85-.8-.49.48.99.8 1.07v-.57z"/><path d="M20.28 60.22c.5-.12 1.58-.21 1.96.37a4.1 4.1 0 0 1 .05 3.46s-.68.08-1.63-.44-1.05-3.24-.38-3.4z"/><path d="M21.97 63.69s-.48.63-.45 1.8c0 0-.87-.57-1.91-.62 0 0 .23-.63.04-1.73 0 0 1.21-.07 2.33.55z"/></g><path d="M21.86 62.65c.09-.22.23-.45 0-.89s-.25-.82-.08-.9.71-.01.68-.31a2.4 2.4 0 0 0-3.38 0s-1.18.69.64 3.35c0 0 1.47.4 2.14-1.25h0z" fill="#52260f"/><path d="M21.86 65.82v-.56s-1.01-.75-2.45-.81l-.18.3s.57.53 2.63 1.07h0z" class="r"/><path d="M25.87 67.69s.3-1.36.59-1.32.13.66.13.66 1.14-.47 1.25-.23.23 1.02.03 1.27-.88.49-1.57.55l-.44-.94h0z" class="i"/><path d="M25.45 67.83l.41-.14s.33.19.44.94l-.39.21s-.04-.53-.45-1z" class="r"/><g fill="#383838"><path d="M17.83 64.67s-1.41.62-1.12 3.1c.21 1.82 4.62 2.65 5.65 2.56S26 68.83 26 68.83s0-.77-.5-1.05c0 0-2.64.79-3.41.71a8.4 8.4 0 0 1-3.38-2.53c-.32-.65-.58-1.22-.87-1.29z"/><path d="M20.34 65.09c.87.33 2.2 1.01 2.98 1.88s-.48 5.07-.3 5.95.6 2.01.95 4.6c0 0-1.6 1.29-4.49.34 0 0-.97-.18-2.49-1.48 0 0 .58-2.84.3-4.56s-1.42-5.82.51-7.15c.01-.01.03-.01.04-.02a5.4 5.4 0 0 1 2.49.43z"/></g><path d="M23.22 77.23s-.4.73-.43 1.17.55 1.01 1.17.69.63-1.17.31-2.13l-1.05.27z" class="i"/><path d="M24.16 76.42l.11.54s-.29.32-1.05.27l-.19-.46s.8-.1 1.12-.35h0z" class="r"/><path d="M23.02 66.9c-1 .06-1.31.92-1.39 1.67l-.25 3.84a55.4 55.4 0 0 0 1.64 4.47s.74.09 1.18-.4c0 0-.26-1.86-.87-3.72l.37-4.3c.11-1.29-.27-1.59-.68-1.56h0z" fill="#454545"/><path d="M75.34 92.92s.25 1.13.15 1.34-.67.58-1.31.53-1.49-.63-1.94-.65-1.48-.76-.87-1.13 1.87.03 2.58-.29l1.39.2h0z" fill="#663017"/><path d="M75.74 77.13s.36.86.41 2.4-.86 5.57-.86 5.57.58 1.19.43 1.88-.6 3.95-.53 4.64.22 1.36.22 1.36-1.38.52-2.14-.14l-1.45-8.59.46-6.85 3.47-.26h0z" fill="#702b18"/><path d="M72.98 93.24s.35 1 .28 1.32-.46.69-.99.72-.87-.32-1.15-.32-2.3.5-2.68-1.1c0 0-.03-.35.42-.42s2.1 0 2.35-.26l1.77.06h0z" fill="#663017"/><path d="M69.64 77.85s-.55 1.12.24 8.57c0 0 .06 3.27.99 6.98 0 0 1.3.69 2.17-.14 0 0-.3-2.14-.24-2.57s.75-3.16-.32-4.22l.99-4c.18-.49 1.22-2.22.92-4.01l-4.74-.62h0z" fill="#832e1b"/><path d="M69.21 69.69s-.83-.2-1.22-.92l.99-.73.76.82-.53.82h0z" class="i"/><path d="M71.36 69.6l-1.48-.8s-.62.19-.68.89l1.18 1.22s.33-1 .97-1.31h0z" fill="#f69265"/><path d="M69.14 68.42l-4.36 2.71c-.09.05-.2.02-.24-.08L63 67.32c-.03-.08 0-.16.07-.21l4.58-2.61c.09-.05.2-.01.24.09l1.32 3.63c.03.07 0 .15-.07.2h0z" fill="#383838"/><path d="M67.7 64.79l1.27 3.44c.01.04 0 .08-.04.1l-4.08 2.54c-.05.03-.11.01-.13-.04l-1.45-3.52c-.02-.04 0-.09.04-.11l4.27-2.45c.05-.03.11-.01.13.05h0z" fill="#caeaf8"/><g class="i"><path d="M69.89 68.8l-.23-.93s-.3-.38-.52-.4-.87-.05-.86.07.31.28.81.38c0 0-.22.63-.13.93l.26.84s.3-.68.68-.89zm2.29-5.37c-.54.13-1.06.52-1.08 1.07s.06 2.8.4 2.86 1.51-.65 1.92-1.39.13-2.89-1.24-2.55h0z"/><path d="M74.66 66.27l-.13 1.95s-.61.55-2.31.41c0 0-.01-.6-.1-.91s-.46-.94-.46-.94 2.11-.79 2.99-.52h0z"/></g><path d="M73.75 68.03s1.35-.83 2.02-.75 1.44 1.8 1.24 3.07-1.05 3.03-1.03 3.67.24 3.07.02 3.28-.96 1.26-3.1 1.52-3.25-.42-3.41-.87.08-1.54.23-1.86.54-2.03.31-3.46-.27-2.8 1.49-3.83l2.22-.77h0z" fill="#f48451"/><path d="M75.08 64.21s.09-.74-.71-1.07-2.44-.59-3.23.24c0 0-.32.36.77.83 0 0 .07.27-.2.66s.25.64.35.92.41 1.64.86 1.64 1.73-.18 1.82-.34 1.42-2.2.33-2.88h0z" fill="#784d46"/><path d="M71.79 65.58s.06-.52.48-.37.09.85-.3.97l-.18-.6z" class="i"/><path d="M74.97 67.82l-.3-.43s-.29.75-3.22.81c0 0-.12.08-.07.2l.16.4s.27-.08.43-.06 2.33.21 3.01-.91h0z" fill="#f4a986"/><path d="M65.96 71.14s.12-.79 0-1.13-.35-.43-.44-.69-.22-1.38-.47-1.37-.09 1.18-.2 1.32-.82.78-.79 1 .13.77.3.87.67.77.67.77.48-.5.93-.77z" class="i"/><path d="M71.27 70.59c-.6-.66-1.16-.48-1.42-.12s-2.03 3.3-2.03 3.3-1.05-1.98-1.87-2.62c0 0-.89.26-.98.69s1.83 4.21 2.31 4.2.81.2 1.64-.54 2.08-2.75 2.43-3.44.03-1.33-.09-1.45h0z" fill="#f69265"/><path d="M24.71 23.99v.22 5.18l-2.05-.6c-.38-.11-.84-.04-1.2.11l-.37.18-1.56.9a2.5 2.5 0 0 1-.9.33c-.32.04-.67.01-.94-.15s-.48-.44-.6-.74a2.5 2.5 0 0 1-.16-.94v-2c0-1.63 1.14-3.66 2.6-4.5l2.43-1.4c.79-.46 1.5-.5 2-.21.47.27.75.83.75 1.63v1.99h0z" class="h"/><path d="M20.1 27.61l-.3.17c-.22.13-.4.05-.4-.17V25.9c0-.22.18-.51.4-.64l.7-.41v2.11c0 .22-.18.51-.4.64zm2.79-3.87c-.1-.05-.23-.03-.37.06l-.75.43.15-.67c.06-.26.07-.45.04-.61-.02-.08-.05-.19-.13-.25-.06-.04-.13-.05-.22-.02-.13.04-.21.13-.25.28l-.17.68c-.01.05-.02.1-.04.13-.12.26-.26.52-.43.8V27a13.5 13.5 0 0 0 1.17-.43l.08-.04a1.8 1.8 0 0 0 .78-1.05l.26-1.25c.01-.06.03-.13.03-.19.01-.14-.04-.25-.13-.3z" class="g"/><path d="M15.93 29.15c-.57-.33-.76-1.03-.76-1.68v-2c0-1.63 1.14-3.66 2.6-4.5l2.43-1.4c.62-.35 1.39-.57 2-.21l.03.02 1.73 1c-.5-.29-1.21-.24-2 .21l-2.43 1.4c-1.46.84-2.6 2.88-2.6 4.5v2a2.5 2.5 0 0 0 .16.94c.12.3.33.58.6.74l-1.76-1.02z" fill="#3790ff"/><g class="h"><path d="M76.67 45l-.62.36c.03-.01.07-.01.11.02l1.18.68c.04.02.09.03.12.01.02-.01.03-.02.03-.04l.19-.49-.88-.52c-.04-.02-.08-.03-.12-.01zm3.28 2.84l.62-.36c.1-.05.03-.27-.11-.34l-1.18-.68c-.07-.04-.13-.12-.15-.2l-.36-1.37c-.02-.09-.11-.2-.2-.22-.03-.01-.05-.01-.07.01l-.63.36c.02-.01.04-.01.07-.01.09.02.17.13.2.22l.36 1.37c.02.08.08.16.15.2l1.18.68c.13.08.2.28.12.34z"/><path d="M79.28 49.53c.02.07 0 .12-.03.14l.62-.36c.04-.03.05-.09.03-.14l-.36-1.26.34-.06-.91.16c-.07.01-.07.08-.06.15l.36 1.37z"/></g><path d="M79.04 49.58c.07.1.16.13.21.1.04-.02.05-.07.03-.14l-.36-1.37c-.02-.07-.01-.14.06-.15l.91-.16h.04c.01 0 .02 0 .03-.01.09-.06.02-.26-.12-.34l-1.18-.68c-.07-.04-.13-.12-.15-.2l-.36-1.37c-.02-.09-.11-.2-.2-.22-.03-.01-.05-.01-.07.01s-.03.02-.03.04l-.07.18-.3.77c-.01.02-.02.03-.03.04-.03.02-.08.01-.12-.01l-1.18-.68c-.05-.03-.08-.03-.11-.02-.06.04-.06.15.02.26l.95 1.27c.05.06.08.15.06.21l-.36.95c-.05.12.12.34.24.32l.95-.17c.07-.01.14.05.18.11l.95 1.27z" class="s"/><path d="M25.95 44.67l.62.36c-.03-.01-.07-.01-.11.02l-1.18.68c-.04.02-.09.03-.12.01-.02-.01-.03-.02-.03-.04l-.19-.49.88-.52c.04-.02.08-.03.12-.01zm-3.28 2.83l-.62-.36c-.1-.05-.03-.27.11-.34l1.18-.68c.07-.04.13-.12.15-.2l.36-1.37c.02-.09.11-.2.2-.22.03-.01.05-.01.07.01l.63.36c-.02-.01-.04-.01-.07-.01-.09.02-.17.13-.2.22l-.36 1.37c-.02.08-.08.16-.15.2l-1.18.68c-.13.08-.2.28-.12.34zm.68 1.7c-.02.07 0 .12.03.14l-.62-.36c-.04-.03-.05-.09-.03-.14l.36-1.26-.34-.06.91.16c.07.01.07.08.06.15l-.36 1.37z" class="h"/><path d="M23.59 49.24c-.07.1-.16.13-.21.1-.04-.02-.05-.07-.03-.14l.36-1.37c.02-.07.01-.14-.06-.15l-.91-.16-.04-.01c-.01 0-.02 0-.03-.01-.09-.06-.02-.26.12-.34l1.18-.68c.07-.04.13-.12.15-.2l.36-1.37c.02-.09.11-.2.2-.22.03-.01.05-.01.07.01s.03.02.03.04l.07.18.3.77c.01.02.02.03.03.04.03.02.08.01.12-.01l1.18-.68c.05-.03.08-.03.11-.02.06.04.06.15-.02.26l-.95 1.27c-.05.06-.08.15-.06.22l.36.95c.05.12-.12.34-.24.32l-.95-.17c-.07-.01-.14.05-.18.11l-.95 1.27z" class="s"/><path d="M83.72 28.39h0l-1.57.91c.67-.39 1.06-1.22 1.05-2.33-.02-2.72-2.08-5.63-4.08-6.48-.81-.34-1.5-.32-2.02-.04l1.52-.88a2 2 0 0 1 1.38-.21c2.36.42 4.78 3.87 4.78 6.69 0 .92-.28 1.88-1.05 2.33z" class="h"/><path d="M83.2 26.97c0 1.11-.39 1.94-1.05 2.33-.53.31-1.24.34-2.07-.01a5.4 5.4 0 0 1-1.73-1.22c-.97-.99-1.75-2.3-2.12-3.67-.25-.91-.35-2.02-.01-2.9a2 2 0 0 1 .83-1.02l.05-.03c.52-.28 1.21-.3 2.02.04 2 .85 4.06 3.76 4.08 6.48z" class="s"/><g class="g"><path d="M82.22 27.78c-.15.38-.43.64-.8.75-.49.15-1.13.04-1.83-.36s-1.34-1.03-1.83-1.75a5.7 5.7 0 0 1-.8-1.67c-.14-.51.19-.75.63-.49l3.99 2.3c.45.26.77.88.63 1.23z"/><use href="#G"/><use href="#G" x="3.13" y="1.8"/></g><defs><linearGradient id="A" x1="50" y1="67.33" x2="50" y2="100" gradientUnits="userSpaceOnUse"><stop stop-color="#eaf4ff"/><stop offset="1" stop-color="#edf5ff"/></linearGradient><path id="B" d="M32.35 24.47h.49v-3.58h-.49c-.29 0-.52.23-.52.52v2.53c0 .29.23.52.52.52z"/><path id="C" d="M88.94 85.46c-.4 1.62-.79 3.09-.51 4.88-.33.02-1.28.23-1.48.01.31-.97.66-1.04.6-2.15l-.34-3.86c.52.51 1.15.96 1.75 1.02l-.02.1z"/><path id="D" d="M88.6 90.79a4 4 0 0 0-.26-.79c-.16-.23-.32-.24-.58-.11-.39.19-.74.7-.56-.12-.1.06-.28.19-.48.35l-.67.57v.2c.5.15 1.96.12 2.57.05 0 0 .03.05-.01-.16z"/><path id="E" d="M88.6 90.79c-.67.07-2.23.12-2.56-.08.08-.17.42-.49.72-.74l.48-.35c-.18.81.17.31.56.12.27-.13.42-.12.58.11.05.07.11.32.15.54l.06.4z"/><path id="F" d="M46.01 80.55c.07-.16.07-.32-.11-.23-.11.06-.19.18-.26.3v.03c-.04.13 0 .28.13.22.09-.04.19-.22.24-.32z"/><path id="G" d="M78.48 23.64c0 .25-.2.33-.45.19s-.45-.46-.45-.71.2-.33.45-.19.45.46.45.71z"/></defs></svg>