<svg xmlns="http://www.w3.org/2000/svg" width="100" height="100" fill="none" xmlns:v="https://vecta.io/nano"><style><![CDATA[.B{fill:#fff}.C{fill:#0668e1}.D{stroke-width:.1}.E{fill:#8dade0}.F{stroke:#8dade0}.G{stroke-width:.02}.H{stroke-miterlimit:10}.I{stroke-linecap:round}.J{fill:#0745b4}.K{fill:#f5f9ff}.L{stroke:#0745b4}.M{stroke-width:.16}]]></style><path d="M73.64 94.48H70.6c-2.12 0-5.41-5.87-5.41-8.14 0-2.26 3.28-8.26 5.41-8.26h3.04c2.7 0 4.82.83 6.33 2.47a8.3 8.3 0 0 1 2.18 5.79c0 2.28-.74 4.22-2.2 5.76-1.5 1.58-3.62 2.38-6.3 2.38zm-8.05-23.49l.05-2.36c.08-4.07.64-7.24 1.7-9.71 1.08-2.49 3.13-5.1 6.29-7.99l.05-.04 7.31-6.31c2.66-2.53 3.96-5.11 3.96-7.88 0-2.64-.76-4.61-2.33-6.03-1.6-1.45-4.1-2.19-7.41-2.19-3.29 0-5.92.7-7.82 2.09a5.7 5.7 0 0 0-2.53 4.97v2.31H49.77l.03-2.34c.09-5.82 2.58-10.58 7.43-14.14 4.64-3.41 10.69-5.14 17.98-5.14 7.59 0 13.65 1.78 18.01 5.29 4.5 3.63 6.78 8.64 6.78 14.89 0 6.15-3.32 12.19-9.88 17.95l-.05.04-6.07 5.04c-2.23 2.1-3.32 5.12-3.32 9.23v2.31h-15.1z" class="C"/><path d="M70.6 94.48c-2.69 0-4.8-.81-6.29-2.4-1.44-1.54-2.16-3.47-2.16-5.75 0-2.26.72-4.2 2.14-5.77 1.49-1.65 3.61-2.48 6.32-2.48 2.7 0 4.83.83 6.33 2.47a8.3 8.3 0 0 1 2.18 5.79c0 2.28-.74 4.22-2.2 5.76-1.5 1.58-3.62 2.38-6.3 2.38zm-8.05-23.49l.05-2.36c.08-4.07.64-7.24 1.7-9.71 1.08-2.49 3.13-5.1 6.29-7.99l.05-.04 7.31-6.31c2.66-2.53 3.96-5.11 3.96-7.88 0-2.64-.76-4.61-2.33-6.03-1.6-1.45-4.1-2.19-7.41-2.19-3.29 0-5.92.7-7.82 2.09a5.7 5.7 0 0 0-2.53 4.97v2.31H46.73l.03-2.34c.09-5.82 2.58-10.58 7.43-14.14 4.64-3.41 10.69-5.14 17.98-5.14 7.59 0 13.65 1.78 18.01 5.29 4.5 3.63 6.78 8.64 6.78 14.89 0 6.15-3.32 12.19-9.88 17.95l-.05.04-6.07 5.04c-2.23 2.1-3.32 5.12-3.32 9.23v2.31h-15.1z" fill="#7fb6fb"/><g fill="#3b4157"><path d="M46.29 65.58c.64-1.74 5.86-6.86 8.39-9.2l-.6 10.04 4.9 3.26 4.9 3.66c-.98 1.88-3.05 5.46-3.45 4.75-.5-.89-1.9-1.34-2.4-1.83-.4-.4-4.63-2.8-6.69-3.96a45.5 45.5 0 0 1-3.85-2.62c-1.35-1.09-2-1.93-1.2-4.1z"/><path d="M58.17 55.09c-.92-.22-2.55-.53-3.35-.45 0 .43-.1 1.67-.5 3.21s-4.56 21.28-6.59 30.95c1.2.87 4.53 1.12 6.04 1.14.15-1.43 2.7-9.44 3.6-14.34s3.4-10.19 4.05-11.87 4.1-5.29 3.65-5.49-5.24-2.76-6.89-3.16z"/></g><path d="M51.18 72.6l3.55-16.57.3.15-3.85 16.42z" fill="#363c53"/><path d="M67.56 75.91c-.92-.91-2.55-1.17-3.25-1.19a4.2 4.2 0 0 1-.45 2.18 10.1 10.1 0 0 1-1.65 1.43l.2 2.37c.08.71-.23 2.31-.4 3.02-.08.44-.18 1.4.1 1.68s.85.28 1.1.25l4.35-9.74z" fill="#4b4d4f"/><g stroke="#fff" class="D"><path d="M62.32 79.32c.1-.1.39-.2.75-.2m-.6 1.99c.08-.12.32-.28.8-.2m-.85-.69c.1-.12.36-.28.8-.2m-.5 5.44l4.4-9.4"/><path d="M62.27 82.59c.32-.18 1.21-.42 1.85-.1"/></g><path d="M62.12 78.29c-.08-.4-.5-.82-.7-.99l1.9-3.12 1 .49c.95 1.58-2.1 4.1-2.2 3.61z" fill="#fc9b66"/><path d="M52.36 94.42c.52-1.18.17-2.78-.08-3.43a4.3 4.3 0 0 1-2.21.38c-.42-.09-1.48-.7-1.95-.99l-2.16 1.05c-.64.33-2.25.63-2.98.74-.45.09-1.39.35-1.54.71s.05.88.17 1.1l10.75.43z" fill="#4b4d4f"/><g stroke="#fff" class="D"><path d="M47.24 90.85c.13.06.33.29.46.62m-2.08.17c.14.03.38.19.48.66m.34-1.04c.14.05.39.23.48.66m-5.3 1.54l10.44.6"/><path d="M44.14 92c.29.22.83.96.77 1.67"/></g><path d="M48.13 90.27c.34-.22.59-.76.67-1.01l3.62.61-.1 1.1c-1.14 1.45-4.63-.43-4.2-.7z" fill="#fc9b66"/><path d="M62.38 32.75c.44-.4 1.87-1.14 2.6-1.38-.92-.83-1.72-2.69-2-3.51l.7-1.14-.6-1.34-1.65-.3-1.05-.59-1-1.73h-2.65l-1.25 1.04c-.03.38-.15.45.05 1.48s.3 1.73.2 2.27c-.06.33-1 .84-.9 1.53.3.25 1.15.2 1.15.2.2 1.11.89 2.32 1.55 2.42.84 0 1.85-.15 2.45.25s.72 1.52.7 2.03c.33-.3 1.25-.84 1.69-1.24z" fill="#fe9b62"/><path d="M57.02 23.17c-.88-.08-1.5.43-1.7.69-.27-.08-.91-.43-1.35-1.14-.55-.89-.35-1.58 0-2.03s3.25-.2 3.9-.2 2.7-1.38 5.19 0c2.35 1.78 1.95 3.21 1.95 4.05 0 .67-1.17 3.18-1.75 4.35l-.45-.99c.02-.02.09-.1.25-.3.2-.25.25-.94.1-1.48s-.85-.89-1.25-.79c-.32.08-.77.69-.95.99a4.8 4.8 0 0 1-1.15-1.78c-.35-1.04-1.05-1.34-1.15-1.38s-.9-.15-1.65 0z" fill="#342542"/><path d="M59.88 31.36c.4-.18 1.28-.73 1.6-1.48" stroke="#df7a42" class="D"/><path d="M62.47 26.12c-.4-.36-.57.21-.6.54h.15c0 .18.01.54.05.54.05 0 .15.1.4 0 .2-.08.28-.26.3-.35.07-.1.1-.39-.3-.74z" fill="#df7a42"/><path d="M56.68 30.13c.05-.21.26-.65.7-.69" stroke="#df7a42" class="D"/><path d="M55.98 25.61c-.01.11.08.21.19.21h.46c.09 0 .43.05.58.1.19.07.18-.11.12-.17-.08-.08-.27-.15-.46-.25-.15-.08-.45-.09-.58-.06 0 0-.3.05-.31.17z" fill="#2e2a4d"/><ellipse cx="56.85" cy="26.8" rx=".35" ry=".35" fill="#4d273c"/><path d="M65.89 48.58c1-1.77 2.53-5.95 2.53-5.95l-5.64-.25s.55.97-.56 1.82c-2.16-.33-13.76-2.6-13.76-2.6l-1.4 2.25s14.85 6.57 18.83 4.72z" fill="#fa9c66"/><path d="M56.48 43.77c0 .71-1.03 7.61-1.55 10.98a31.6 31.6 0 0 1 2 .05c.5.05 3.4.84 4.35 1.78.76.75 3.45 1.57 4.7 1.88.65-1.68.55-5.24.4-7.76-.12-2.02-.75-6.1-1.05-7.91l3.1.15c.03-2.47-.01-7.74-.45-9.05s-2.21-2.23-3.05-2.52c-4.95 1.83-7.19 6.23-7.74 7.81s-.7 3.71-.7 4.6z" fill="#1b84c1"/><g fill="#fa9c66"><path d="M47.49 43.96l1.09-1.92-2.94-4.57c-.37.15.98 2.55.98 2.55s-1.67-2.48-1.78-2.33c-.21.27 1.19 2.83 1.19 2.83s-1.54-2.48-1.67-2.25 1.5 3.76 1.5 3.76l1.63 1.92z"/><path d="M48.96 42.18l-.45-.59s-.29-1.08-.72-1.84-.7-1.11-.85-1.08.21 1.25.21 1.25-.07 1.12.42 1.75"/></g><path d="M46.67 42.31l1.05-1.37c.05-.06.05-.14.01-.2l-2.23-3.76-.11.05c-.02.01-.05.02-.07.05l-1.17 1.41c-.05.06-.05.14-.01.2l2.21 3.63c.03.05.08.07.13.07l.19-.07z" fill="#060c16"/><path d="M46.71 42.28l1.16-1.4c.05-.06.05-.14.01-.2l-2.22-3.65c-.04-.07-.14-.08-.19-.02l-1.17 1.41c-.05.06-.05.14-.01.2l2.21 3.63c.05.08.16.09.22.02z" fill="#0a172b"/><path d="M47.73 40.44l-1.35 1.63-1.95-3.22 1.35-1.63 1.95 3.22zm-.57.96c.02.05.07.06.1.04s.04-.09.02-.13-.06-.06-.1-.04-.04.09-.02.13z" class="E"/><path d="M45.13 37.69l-.24.29" class="F G H I"/><g opacity=".55"><mask id="A" maskUnits="userSpaceOnUse" x="46" y="38" width="1" height="1"><path d="M46 38.04l.13-.02.03.18-.13.02-.03-.18z" class="B"/></mask><g mask="url(#A)" class="E"><use href="#J"/></g></g><g opacity=".51"><mask id="B" maskUnits="userSpaceOnUse" x="44" y="37" width="3" height="3"><path d="M44.61 38.16l1.37-.23.22 1.31-1.37.23-.22-1.31z" class="B"/></mask><g mask="url(#B)" class="B"><use href="#K"/></g></g><path d="M45.67 38.2l-.72.87m.83-.68l-.41.5" class="F G H I"/><g opacity=".55"><mask id="C" maskUnits="userSpaceOnUse" x="47" y="40" width="1" height="1"><path d="M47.28 40.07l.13-.02.03.18-.13.02-.03-.18z" class="B"/></mask><g mask="url(#C)" class="E"><use href="#J" x="1.29" y="2.02"/></g></g><g opacity=".51"><mask id="D" maskUnits="userSpaceOnUse" x="45" y="39" width="3" height="3"><path d="M45.9 40.18l1.37-.23.22 1.31-1.37.23-.22-1.31z" class="B"/></mask><g mask="url(#D)" class="B"><use href="#K" x="1.29" y="2.02"/></g></g><path d="M46.95 40.22l-.72.87m.84-.68l-.41.5" class="F G H I"/><g opacity=".55"><mask id="E" maskUnits="userSpaceOnUse" x="45" y="40" width="1" height="1"><path d="M45.51 40.37l.13-.02.03.18-.13.02-.03-.18z" class="B"/></mask><g mask="url(#E)" class="E"><use href="#J" x="-0.49" y="2.33"/></g></g><g opacity=".51"><mask id="F" maskUnits="userSpaceOnUse" x="45" y="38" width="2" height="3"><path d="M45.38 39.01l1.29-.22.26 1.49-1.29.22-.26-1.49z" class="B"/></mask><g mask="url(#F)" class="B"><path d="M45.58 39.81l.77-.93c.06-.08.18-.07.23.02l.14.23c.04.06.03.15-.01.2l-.95 1.14v-.14l-.2-.33c-.04-.06-.03-.15.01-.2z"/></g></g><path d="M46.46 39.07l-.72.87m.83-.68l-.41.5m-.06.08l-.16.19" class="F G H I"/><path d="M47.19 43.9c-.4 0-1.36-.75-2.17-2.56-.22-.49-.81-1.82-.59-1.86s.99 1.21 1.09 1.42c.49.16 1.64.93 1.77 1.71" fill="#ffa16b"/><path d="M68.41 42.93l-4.28-.2-.45 3.46c-.05.59-2.55 7.32-2.85 7.91a4.7 4.7 0 0 1-1.3 1.29c-.16 1.15.8 2.85 1.3 3.56.6-.59 1.25-1.98 1.45-2.62.2-.74.7-1.19.9-1.48s4.45-7.62 4.6-8.16c.12-.44.48-2.67.63-3.76z" fill="#fe9b62"/><path d="M39.96 37.54L3.51 35.06l8.91-12.12 29.97 14.6h-2.43z" fill="url(#G)"/><rect width="12" height="12" rx="1.64" transform="matrix(-1 0 0 1 13.0781 23.0586)" class="J"/><rect width="12" height="12" rx="1.64" transform="matrix(-1 0 0 1 13.5 22.3867)" class="C"/><g class="B"><path d="M4.69 26.4c.01.02.02.05.04.07l2.03 2.31c.39.44 1.05.48 1.49.1.03-.03.07-.06.1-.1l2.07-2.35c.08.1.11.22.11.35v3.18a.7.7 0 0 1-.7.7H5.29a.7.7 0 0 1-.7-.7v-3.17c0-.13.03-.26.1-.38z"/><path d="M10.17 26.31l-2.13 2.42c-.23.26-.64.29-.9.06-.02-.02-.04-.04-.06-.06l-2.09-2.38c-.02-.02-.04-.03-.06-.05.09-.04.19-.06.29-.06h4.68c.1 0 .19.02.28.06z"/></g><use href="#L" class="K L M"/><use href="#M" class="C"/><path d="M42.4 37.54l8.37-22.31-10.8-1.93v24.24h2.43z" fill="url(#H)"/><rect width="12" height="12" rx="1.64" transform="matrix(-1 0 0 1 51.9609 3.7773)" class="J"/><rect width="12" height="12" rx="1.64" transform="matrix(-1 0 0 1 52.3828 3.1055)" class="C"/><use href="#L" x="38.88" y="-19.29" class="K L M"/><path d="M41.11 5.02c-.14 0-.25.11-.25.25s.11.25.25.25.25-.11.25-.25-.11-.25-.25-.25zm-.18-.25h.37L41.48 3h-.74l.18 1.76z" class="C"/><g class="B"><path d="M42.67 10.11c0-1.04 1.06-1.89 2.36-1.89s2.36.85 2.36 1.89-1.06 1.89-2.36 1.89c-.21 0-.41-.03-.62-.07l-1.27.55.44-.88c-.55-.35-.91-.88-.91-1.48zm3.07-.12c.2 0 .36-.16.36-.35s-.16-.35-.35-.35-.36.16-.36.35.16.35.35.35zm-1.42 0c.2 0 .36-.16.36-.35s-.16-.35-.35-.35-.36.16-.36.35.16.35.35.35z"/><path d="M47.39 5.86c1.57 0 2.84 1.06 2.84 2.36 0 .75-.43 1.42-1.08 1.85l.38.75-1.02-.44c-.22.08-.45.14-.69.17.03-.14.05-.29.05-.44 0-1.3-1.27-2.36-2.84-2.36-.14 0-.28.01-.42.03.24-1.09 1.4-1.92 2.78-1.92zm.95 1.77c.2 0 .36-.16.36-.35s-.16-.35-.35-.35-.36.16-.36.35.16.35.35.35zm-1.89 0c.2 0 .36-.16.36-.35s-.16-.35-.35-.35-.36.16-.36.35.16.35.35.35z"/></g><path d="M20.52 22.39l8.91-12.12s1.35-.14 1.89 1.1l11.07 26.17h-2.43L20.52 22.39z" fill="url(#I)"/><rect width="12" height="12" rx="1.64" transform="matrix(-1 0 0 1 31.4375 10.9375)" class="J"/><rect width="12" height="12" rx="1.64" transform="matrix(-1 0 0 1 31.8672 10.2656)" class="C"/><g class="B"><path d="M28.44 14.68h-5.48c-.15 0-.27.12-.27.28v2.75c0 .15.12.28.27.28h5.48c.15 0 .27-.12.27-.28v-2.75c0-.15-.12-.28-.27-.28z"/><path d="M28.7 15.47h.47v1.72h-.47v-1.72z"/></g><path d="M23.12 14.87h.66v2.89h-.66v-2.89z" class="C"/><use href="#L" x="18.37" y="-12.12" class="K L M"/><use href="#M" x="18.36" y="-12.12" class="C"/><defs><linearGradient id="G" x1="8.78" y1="28.31" x2="41.27" y2="37.47" gradientUnits="userSpaceOnUse"><stop stop-color="#f9f9f9" stop-opacity=".4"/><stop offset="1" stop-color="#f9f9f9"/></linearGradient><linearGradient id="H" x1="45.37" y1="13.3" x2="41.15" y2="37.51" gradientUnits="userSpaceOnUse"><stop stop-color="#f9f9f9" stop-opacity=".2"/><stop offset="1" stop-color="#f9f9f9"/></linearGradient><linearGradient id="I" x1="26.6" y1="15.64" x2="41.58" y2="37.26" gradientUnits="userSpaceOnUse"><stop stop-color="#f9f9f9" stop-opacity=".4"/><stop offset="1" stop-color="#f9f9f9"/></linearGradient><path id="J" d="M46.02 38.17c.02.05.06.06.09.04s.04-.08.02-.13-.06-.06-.09-.04-.04.08-.02.13z"/><path id="K" d="M44.82 38.91l.71-.86c.08-.09.22-.08.28.03l.15.25h.09l-.87 1.05c-.08.09-.22.08-.28-.03l-.09-.15c-.05-.09-.05-.21.02-.28z"/><path id="L" d="M2.16 21.37a2.1 2.1 0 0 0-2.08 2.12 2.1 2.1 0 0 0 2.08 2.12 2.1 2.1 0 0 0 2.08-2.12 2.1 2.1 0 0 0-2.08-2.12z"/><path id="M" d="M2.23 24.3c-.14 0-.25.11-.25.25s.11.25.25.25.25-.11.25-.25-.11-.25-.25-.25zm-.18-.25h.37l.18-1.76h-.74l.18 1.76z"/></defs></svg>