<svg xmlns="http://www.w3.org/2000/svg" width="1140" height="640" fill="none" xmlns:v="https://vecta.io/nano"><style><![CDATA[.B{fill:#fff}.C{fill:#0668e1}.D{color-interpolation-filters:sRGB}.E{flood-opacity:0}.F{stroke:#0668e1}.G{fill:#efb488}]]></style><g clip-path="url(#AE)"><rect width="1140" height="640" rx="16" class="B"/><g filter="url(#A)" class="C"><path d="M911.77 101.48a8.8 8.8 0 0 1 7.84-12.69h97.62c4.84 0 8.77 3.93 8.77 8.77v19.73c0 4.84-3.93 8.77-8.77 8.77h-87.74c-3.32 0-6.36-1.87-7.84-4.85l-9.87-19.73z"/></g><g class="B"><path d="M988.57 111.48c.04-.75.03-1.5.15-2.23.09-.56-.03-.96-.39-1.36a28.2 28.2 0 0 1-1.4-1.7c-.74-.95-.39-2.16.77-2.3a4.9 4.9 0 0 0 4.25-3.2c.5-1.14 1.7-1.08 2.37-.01.04.06.09.12.11.19a4.2 4.2 0 0 0 3.91 2.97c.32.03.68.21.93.43.53.45.57 1.22.12 1.82-.41.55-.82 1.13-1.31 1.59-.59.56-.68 1.2-.57 1.95l.16 1.8c.08 1.16-.82 1.88-1.85 1.47l-2.18-.92a1.7 1.7 0 0 0-1.04.01c-.74.26-1.45.63-2.18.92-1.03.39-1.89-.28-1.84-1.41zm-19.76.21c.05-.83.01-1.45.15-2.03.2-.87-.01-1.53-.62-2.13-.42-.41-.77-.9-1.13-1.37-.74-.97-.4-2.02.74-2.33l1.82-.45c.67-.11 1.13-.4 1.44-1.06.28-.6.66-1.16 1.01-1.73.63-.99 1.7-1 2.32-.02.41.64.74 1.34 1.19 1.95a2.4 2.4 0 0 0 .99.77c.63.24 1.3.33 1.96.49 1.33.33 1.68 1.38.82 2.47l-1.43 1.77c-.2.28-.31.69-.3 1.04.01.77.13 1.54.18 2.31.08 1.21-.88 2.03-1.88 1.44a4.8 4.8 0 0 0-5.32-.01c-.99.58-1.94-.17-1.92-1.1zm-19.73-.05l.19-2.54c0-.39-.16-.83-.38-1.15-.43-.63-.96-1.18-1.43-1.78-.74-.95-.38-2.02.76-2.33.2-.06.4-.15.61-.15 1.71-.06 2.73-1.06 3.38-2.6.09-.21.22-.42.36-.61.58-.82 1.6-.84 2.17.01.44.65.85 1.33 1.21 2.03a1.5 1.5 0 0 0 1.18.85l1.96.48c1.14.31 1.49 1.37.77 2.33l-.36.44c-1.59 1.92-1.59 1.92-1.31 4.43.02.19.05.39.04.58-.03 1.01-.88 1.64-1.79 1.29l-2.32-.98c-.28-.1-.64-.1-.92 0l-2.26.95c-1 .39-1.91-.3-1.87-1.24z"/></g><g filter="url(#B)" class="C"><path d="M1050.94 67.83a7.1 7.1 0 0 1 7.12 0l28.95 16.71a7.1 7.1 0 0 1 3.56 6.17v33.43a7.1 7.1 0 0 1-3.56 6.17l-28.95 16.71a7.1 7.1 0 0 1-7.12 0l-28.95-16.71c-2.2-1.27-3.56-3.62-3.56-6.17V90.71c0-2.55 1.36-4.9 3.56-6.17l28.95-16.71z"/></g><g clip-path="url(#AF)" class="B"><path d="M1046.69 113.38l.01-7.75a2.7 2.7 0 0 1 .25-1.08l5.32-11.36c.26-.58.65-.86 1.29-.84.91.03 1.82-.08 2.67.32a3.8 3.8 0 0 1 2.36 3.63l.01 3.63v1.49c0 .73.02.75.72.75l6.05.01a4.2 4.2 0 0 1 1.45.25c1.81.67 2.77 2.44 2.47 4.34l-1.56 10.07-.44 2.63c-.33 1.7-1.88 3.01-3.61 3.01h-15.89c-.7 0-1.1-.44-1.1-1.19v-7.92zm-1.35 9.08c-1.11 0-2.33.07-3.53-.02-1.24-.09-2.13-1.17-2.14-2.47v-6.96-6.08c0-1.67 1-2.67 2.66-2.67h3.02l-.07 2.58v12.65l.06 2.98z"/></g><g filter="url(#C)" class="C"><path d="M228.22 527.88a8.8 8.8 0 0 0-7.84-12.69h-97.61c-4.84 0-8.77 3.93-8.77 8.77v19.73c0 4.84 3.93 8.77 8.77 8.77h87.74c3.32 0 6.36-1.88 7.84-4.85l9.87-19.73z"/></g><g stroke="#fff" stroke-width="1.1"><path d="M146.94 526.8c-.21 0-.53.15-.8.57l-.01.01-.04.05-.02.03a5 5 0 0 1-1.69 2.36c-.75.56-1.66.86-2.69.95h0c-.18.01-.43.13-.62.3h0c-.27.23-.34.66-.03 1.08l1.24 1.52h0a2.4 2.4 0 0 1 .7 1.17c.11.42.09.85.03 1.26-.08.57-.11 1.15-.16 1.76-.03.43.12.71.3.85.17.14.44.21.8.07h0l1.07-.47 1.14-.47h.01l.17-.05c.4-.1.85-.07 1.23.06h0l1.14.47 1.06.46c.36.14.63.07.8-.06s.32-.39.3-.81l-.15-2.18a2.2 2.2 0 0 1 .04-.98 2 2 0 0 1 .33-.65l.16-.19.7-.81.68-.85c.28-.36.31-.71.24-.95-.07-.22-.26-.42-.63-.46a5.7 5.7 0 0 1-2.84-1.06c-.79-.59-1.39-1.42-1.85-2.47h0c-.18-.41-.42-.51-.61-.5zm19.67 0c-.19 0-.46.11-.69.48h0l-.57.96-.64 1.02h0a2.9 2.9 0 0 1-1.24.95h0a9.2 9.2 0 0 1-1.04.3l-.97.21h0c-.55.14-.78.39-.85.59s-.04.55.32 1l1.28 1.56.17.24c.27.38.41.91.4 1.36l-.08 1.2-.06.57-.05.56c-.03.46.14.78.33.93.17.13.41.19.73 0 .97-.57 1.94-.88 2.94-.88a5.5 5.5 0 0 1 2.58.67l.37.2c.32.19.58.14.76.03.17-.11.3-.31.32-.55v-.1l-.04-1.1c-.01-.32-.03-.58-.09-.82h0c-.12-.51-.12-.99.02-1.45a2.8 2.8 0 0 1 .76-1.2h0c.38-.37.7-.82 1.08-1.31.29-.37.32-.7.25-.91s-.27-.44-.69-.55l-1.77-.44h0c-.39-.06-.76-.18-1.09-.42s-.58-.55-.76-.95h0c-.26-.56-.61-1.09-.98-1.66h0c-.24-.38-.51-.5-.7-.5zm19.72 0c-.19 0-.43.1-.62.38h0a18.9 18.9 0 0 0-1.17 1.97h0c-.17.34-.39.6-.67.79s-.58.29-.9.35l-1.92.47h0c-.43.12-.63.35-.7.56s-.05.54.23.91l.35.43c.76.92 1.25 1.5 1.46 2.18s.11 1.45-.02 2.65h0l-.04.49v.01c.01.35.16.6.34.73.17.13.42.18.7.07h0l1.13-.48 1.19-.5h0c.4-.15.9-.14 1.29 0h0l1.16.48 1.1.48c.64.25 1.14-.17 1.12-.7l-.19-2.58a2.8 2.8 0 0 1 .47-1.45h0l.18-.25.56-.69.71-.86h0c.28-.36.31-.68.24-.89s-.28-.45-.71-.57h0l-.32-.1c-.08-.03-.13-.03-.16-.03h0a3.9 3.9 0 0 1-2.41-.86c-.64-.53-1.11-1.25-1.45-2.07v-.01c-.06-.15-.16-.31-.29-.5-.2-.29-.45-.39-.65-.39z"/></g><g filter="url(#D)" class="C"><path d="M89.06 494.23a7.1 7.1 0 0 0-7.12 0l-28.95 16.71c-2.2 1.27-3.56 3.63-3.56 6.17v33.43a7.1 7.1 0 0 0 3.56 6.17l28.95 16.71a7.1 7.1 0 0 0 7.13 0l28.95-16.71a7.1 7.1 0 0 0 3.56-6.17v-33.43a7.1 7.1 0 0 0-3.56-6.17l-28.95-16.71z"/></g><g clip-path="url(#AG)" class="B"><path d="M93.31 527.87l-.01 7.75a2.7 2.7 0 0 1-.25 1.08l-5.32 11.36c-.26.57-.65.86-1.29.84-.9-.03-1.82.08-2.67-.32a3.8 3.8 0 0 1-2.36-3.63l-.01-3.63v-1.49c0-.73-.02-.75-.73-.75-2.01 0-4.03.01-6.04-.01-.49-.01-1-.07-1.45-.25-1.81-.67-2.77-2.44-2.47-4.34l1.56-10.07.44-2.63c.34-1.7 1.88-3.01 3.61-3.01h15.89c.7 0 1.1.44 1.1 1.18v7.92zm1.35-9.08l3.53.02c1.24.09 2.13 1.17 2.14 2.47l.01 6.96v6.08c0 1.67-1.01 2.67-2.66 2.67h-3.02l.08-2.58v-12.65l-.06-2.98z"/></g><path d="M131.29 259.07c0-.34-.05-.64-.15-.91-.1-.28-.28-.54-.55-.78s-.66-.48-1.17-.72c-.5-.25-1.16-.51-1.98-.78l-2.77-1.08c-.89-.41-1.68-.88-2.38-1.42-.7-.55-1.25-1.19-1.66-1.92-.41-.74-.61-1.6-.61-2.58a5.1 5.1 0 0 1 .63-2.53c.42-.76 1-1.4 1.75-1.93a8.4 8.4 0 0 1 2.67-1.23c1.02-.29 2.13-.43 3.34-.43 1.6 0 3.01.28 4.23.84 1.23.55 2.19 1.33 2.88 2.35.7 1.01 1.05 2.2 1.05 3.58h-5.23c0-.55-.12-1.03-.34-1.45-.22-.42-.55-.75-1-.99s-1.01-.36-1.69-.36a4.1 4.1 0 0 0-1.66.3c-.45.2-.79.47-1.02.81-.23.33-.34.69-.34 1.09a1.6 1.6 0 0 0 .27.9c.19.26.45.5.8.73a8.1 8.1 0 0 0 1.26.66 21.4 21.4 0 0 0 1.68.61c1.16.37 2.19.78 3.09 1.24.91.45 1.67.96 2.29 1.54a5.7 5.7 0 0 1 1.42 1.95c.33.73.49 1.55.49 2.47 0 .98-.19 1.85-.57 2.61a5.4 5.4 0 0 1-1.63 1.93c-.71.52-1.56.92-2.55 1.18s-2.09.4-3.31.4c-1.12 0-2.22-.14-3.31-.42-1.08-.29-2.06-.73-2.94-1.32-.88-.6-1.58-1.36-2.11-2.29a6.8 6.8 0 0 1-.78-3.34h5.28a4.5 4.5 0 0 0 .25 1.62c.17.44.42.79.75 1.06.33.26.73.45 1.21.57a7.4 7.4 0 0 0 1.65.16c.67 0 1.21-.09 1.62-.28.41-.2.71-.46.9-.78.19-.33.28-.69.28-1.08zm12.83-6.98v12.78h-5.05v-16.22h4.74l.31 3.43zm-.62 4.12l-1.15.03a11.6 11.6 0 0 1 .41-3.15c.27-.96.67-1.79 1.2-2.5a5.5 5.5 0 0 1 1.95-1.65c.78-.39 1.68-.59 2.7-.59a5.4 5.4 0 0 1 1.93.33 3.7 3.7 0 0 1 1.5 1 4.4 4.4 0 0 1 .96 1.77 8.6 8.6 0 0 1 .34 2.59v10.82h-5.05v-10.18a3.9 3.9 0 0 0-.24-1.56c-.15-.35-.37-.59-.66-.71a2.8 2.8 0 0 0-1.06-.18c-.44 0-.84.1-1.18.3s-.65.48-.9.84c-.24.35-.42.76-.55 1.24a6.5 6.5 0 0 0-.18 1.57zm9.26 0l-1.41.03c0-1.14.13-2.19.38-3.15.26-.96.64-1.79 1.15-2.5a5.4 5.4 0 0 1 1.93-1.65c.77-.39 1.66-.59 2.68-.59.74 0 1.42.11 2.04.33s1.15.57 1.6 1.06a5 5 0 0 1 1.05 1.95c.25.8.38 1.79.38 2.97v10.21h-5.06v-10.21c0-.67-.08-1.17-.24-1.51-.15-.35-.37-.59-.66-.7-.29-.13-.63-.19-1.03-.19-.48 0-.89.1-1.24.3s-.64.48-.88.84c-.23.35-.4.76-.51 1.24s-.16 1-.16 1.57zm21.12 4.59v-6.68c0-.46-.06-.85-.19-1.18s-.33-.59-.61-.76c-.28-.19-.65-.28-1.12-.28-.38 0-.7.06-.97.19s-.47.32-.61.58-.21.59-.21.99h-5.05a4.5 4.5 0 0 1 .49-2.08c.34-.65.82-1.21 1.44-1.69.63-.48 1.38-.85 2.25-1.11.88-.27 1.86-.41 2.94-.41a8.7 8.7 0 0 1 3.45.65 5.4 5.4 0 0 1 2.41 1.93 5.5 5.5 0 0 1 .88 3.21v6.64c0 1.06.06 1.86.18 2.41.12.54.29 1.01.51 1.42v.25h-5.07a6.8 6.8 0 0 1-.54-1.83c-.11-.73-.17-1.48-.17-2.25zm.61-5.83l.03 2.7h-2.23c-.47 0-.87.06-1.2.19-.32.13-.58.31-.78.54-.19.22-.33.47-.42.75a3.2 3.2 0 0 0-.12.88c0 .3.07.57.21.81.15.23.35.41.6.54s.53.19.84.19c.56 0 1.03-.11 1.42-.31.4-.22.7-.48.91-.79s.31-.6.31-.87l1.11 2.07c-.2.4-.43.8-.69 1.21a5.3 5.3 0 0 1-.94 1.14 4.5 4.5 0 0 1-1.36.84c-.54.21-1.19.31-1.96.31a6.2 6.2 0 0 1-2.76-.61 5.1 5.1 0 0 1-1.99-1.71c-.5-.74-.75-1.59-.75-2.55 0-.84.15-1.59.45-2.25a4.4 4.4 0 0 1 1.39-1.68c.62-.46 1.41-.81 2.37-1.05s2.09-.36 3.39-.36h2.17zm12.36-2.29v12.2h-5.05v-16.22h4.72l.33 4.02zm4.8-4.14l-.09 4.69-.81-.08-.85-.04c-.59 0-1.1.07-1.53.21-.42.13-.77.33-1.05.6-.27.26-.47.59-.6.99-.12.4-.18.86-.16 1.39l-.91-.6c0-1.09.11-2.08.31-2.97.22-.9.53-1.67.93-2.32a4.4 4.4 0 0 1 1.45-1.51 3.5 3.5 0 0 1 1.92-.54 5.9 5.9 0 0 1 .73.04c.25.03.47.08.66.14zm11.03.12v3.51h-9.77v-3.51h9.77zm-7.72-4.03h5.05v14.96c0 .43.05.76.15 1 .1.23.27.39.51.5.25.09.58.13.99.13l.72-.01.54-.08v3.61a8.3 8.3 0 0 1-1.35.31c-.47.08-.97.12-1.5.12-1.08 0-2-.17-2.77-.51a3.6 3.6 0 0 1-1.74-1.6c-.4-.73-.6-1.68-.6-2.85v-15.59zm17.58 20.55c-1.32 0-2.5-.2-3.54-.61a7.7 7.7 0 0 1-2.64-1.72c-.71-.73-1.25-1.57-1.63-2.52a8.2 8.2 0 0 1-.56-3.01v-.57c0-1.19.16-2.29.5-3.3a7.7 7.7 0 0 1 1.47-2.67c.65-.76 1.46-1.35 2.44-1.77.98-.43 2.12-.65 3.42-.65 1.15 0 2.18.19 3.09.56s1.68.9 2.31 1.59c.64.69 1.12 1.52 1.45 2.5a10 10 0 0 1 .51 3.3v2.05h-13.25v-3.16h8.32v-.39a2.8 2.8 0 0 0-.29-1.38c-.19-.38-.47-.67-.84-.87a2.8 2.8 0 0 0-1.35-.3 2.4 2.4 0 0 0-1.36.36c-.35.24-.62.57-.82.99-.19.41-.32.88-.4 1.42s-.12 1.11-.12 1.71v.57c0 .6.08 1.14.24 1.63.17.49.41.91.72 1.26a3.4 3.4 0 0 0 1.14.8 3.9 3.9 0 0 0 1.53.28 5.6 5.6 0 0 0 2.04-.39c.67-.26 1.24-.69 1.72-1.29l2.29 2.73a5.9 5.9 0 0 1-1.41 1.36c-.6.44-1.32.8-2.16 1.08-.84.27-1.78.4-2.82.4zm13.97-12.5v12.2h-5.05v-16.22h4.72l.33 4.02zm4.8-4.14l-.09 4.69-.81-.08-.85-.04c-.59 0-1.1.07-1.53.21-.42.13-.77.33-1.05.6-.27.26-.47.59-.6.99-.12.4-.17.86-.16 1.39l-.92-.6c0-1.09.11-2.08.31-2.97a8.1 8.1 0 0 1 .93-2.32 4.4 4.4 0 0 1 1.45-1.51 3.5 3.5 0 0 1 1.92-.54 5.9 5.9 0 0 1 .73.04c.25.03.47.08.66.14zm14.66 14.36l4.35-19.84h2.59l1.41 1.69-4.63 20.13h-2.86l-.85-1.98zm-1.15-19.84l3.67 19.99-.94 1.83h-3.31l-4.63-21.82h5.22zm11.88 19.89l3.64-19.89h5.2l-4.63 21.82h-3.3l-.91-1.93zm-1.92-19.89l4.45 19.96-.9 1.86h-2.86l-4.74-20.16 1.47-1.66h2.58zm20.5 17.74v-6.68c0-.46-.06-.85-.19-1.18s-.33-.59-.61-.76c-.28-.19-.65-.28-1.12-.28-.38 0-.7.06-.97.19s-.48.32-.62.58-.21.59-.21.99h-5.05c0-.75.16-1.44.49-2.08.34-.65.82-1.21 1.44-1.69.63-.48 1.38-.85 2.25-1.11a10 10 0 0 1 2.94-.41 8.7 8.7 0 0 1 3.45.65 5.4 5.4 0 0 1 2.41 1.93 5.5 5.5 0 0 1 .89 3.21v6.64c0 1.06.06 1.86.18 2.41a5.5 5.5 0 0 0 .51 1.42v.25h-5.06c-.24-.5-.42-1.11-.54-1.83-.11-.73-.16-1.48-.16-2.25zm.62-5.83l.03 2.7h-2.23c-.47 0-.87.06-1.2.19a2 2 0 0 0-.78.54c-.19.22-.33.47-.42.75a3.2 3.2 0 0 0-.12.88c0 .3.07.57.21.81.15.23.35.41.6.54s.53.19.84.19c.56 0 1.04-.11 1.42-.31.4-.22.7-.48.91-.79s.31-.6.31-.87l1.11 2.07a14 14 0 0 1-.69 1.21c-.25.41-.56.79-.94 1.14a4.5 4.5 0 0 1-1.36.84c-.54.21-1.19.31-1.96.31a6.2 6.2 0 0 1-2.76-.61 5.1 5.1 0 0 1-1.99-1.71c-.5-.74-.75-1.59-.75-2.55 0-.84.15-1.59.45-2.25a4.4 4.4 0 0 1 1.39-1.68c.62-.46 1.41-.81 2.37-1.05s2.09-.36 3.39-.36h2.17zm12 8l4.2-14.31h5.43L291 267.28a11.6 11.6 0 0 1-.55 1.32 5.5 5.5 0 0 1-.94 1.36 4.5 4.5 0 0 1-1.54 1.05 5.8 5.8 0 0 1-2.31.4c-.49 0-.85-.02-1.08-.07l-1.02-.22v-3.61h.33.33c.54 0 .97-.06 1.29-.17.33-.11.58-.27.75-.48.18-.21.32-.46.42-.76l1.23-3.13zm-1.06-14.31l3.19 11.35.55 5.35h-3.39l-5.77-16.69h5.41zm20.5 11.66c0-.28-.09-.52-.28-.72-.18-.21-.5-.4-.96-.57a13.4 13.4 0 0 0-1.93-.54c-.79-.17-1.53-.39-2.23-.67a7.7 7.7 0 0 1-1.81-1.02 4.5 4.5 0 0 1-1.23-1.42 4 4 0 0 1-.44-1.89 4.5 4.5 0 0 1 .44-1.95c.3-.62.73-1.16 1.3-1.63.58-.48 1.28-.85 2.11-1.12.83-.28 1.77-.42 2.83-.42 1.46 0 2.72.22 3.78.67a5.5 5.5 0 0 1 2.44 1.86 4.5 4.5 0 0 1 .87 2.74h-5.05a2.4 2.4 0 0 0-.21-1.05c-.13-.29-.35-.51-.65-.66-.3-.16-.7-.24-1.2-.24-.35 0-.67.06-.96.19-.28.13-.5.31-.67.54s-.25.5-.25.81c0 .22.05.42.15.6.11.17.28.33.49.48.22.14.5.27.84.39.34.11.75.21 1.23.3a16.8 16.8 0 0 1 3.06.85c.95.37 1.72.9 2.31 1.57a4 4 0 0 1 .9 2.74c0 .72-.16 1.38-.49 1.99-.33.6-.8 1.13-1.42 1.59a7.1 7.1 0 0 1-2.23 1.05c-.87.25-1.85.38-2.94.38-1.55 0-2.86-.27-3.93-.82-1.07-.56-1.88-1.26-2.43-2.1-.54-.85-.81-1.71-.81-2.58h4.71c.02.5.14.91.36 1.23.23.32.53.55.91.7s.82.22 1.32.22c.46 0 .84-.06 1.14-.19.31-.13.55-.31.71-.52.16-.23.24-.5.24-.8zm23.42-11.66v3.51h-9.77v-3.51h9.77zm-7.72-4.03h5.05v14.96a2.7 2.7 0 0 0 .15 1c.1.23.27.39.51.5.25.09.58.13.99.13l.72-.01.54-.08v3.61a8.3 8.3 0 0 1-1.35.31 8.9 8.9 0 0 1-1.5.12c-1.08 0-2-.17-2.77-.51a3.6 3.6 0 0 1-1.74-1.6 5.9 5.9 0 0 1-.6-2.85v-15.59zm8.65 12.3v-.31c0-1.19.17-2.28.51-3.28.34-1.01.84-1.88 1.5-2.62a6.7 6.7 0 0 1 2.44-1.72c.97-.42 2.09-.63 3.36-.63a8.4 8.4 0 0 1 3.37.63 6.7 6.7 0 0 1 2.46 1.72 7.5 7.5 0 0 1 1.5 2.62c.34 1 .51 2.09.51 3.28v.31c0 1.18-.17 2.27-.51 3.28-.34 1-.84 1.87-1.5 2.62-.66.74-1.47 1.31-2.44 1.72s-2.09.61-3.36.61-2.39-.2-3.37-.61a6.7 6.7 0 0 1-2.46-1.72c-.66-.75-1.16-1.62-1.5-2.62a10.2 10.2 0 0 1-.51-3.28zm5.05-.31v.31a10.2 10.2 0 0 0 .13 1.71c.09.53.24.99.45 1.39.21.39.5.69.86.91s.81.33 1.35.33c.53 0 .97-.11 1.32-.33.36-.22.65-.52.85-.91.21-.4.36-.87.45-1.39a10.2 10.2 0 0 0 .13-1.71v-.31c0-.59-.05-1.14-.13-1.66-.09-.53-.24-.99-.45-1.39-.21-.41-.49-.73-.85-.96s-.81-.34-1.35-.34c-.53 0-.97.11-1.33.34-.35.23-.63.55-.84.96-.21.4-.36.87-.45 1.39-.09.52-.13 1.07-.13 1.66zm29.97-8.98l-5.32 17.23h-5.65l8.02-21.82h3.58l-.63 4.59zm4.41 17.23l-5.34-17.23-.69-4.59h3.63l8.06 21.82h-5.66zm-.21-8.14v4.06h-11.19v-4.06h11.19zm11.48-4.62v12.75h-5.05v-16.22h4.74l.31 3.46zm-.6 4.09l-1.18.03a11.2 11.2 0 0 1 .45-3.31 7.3 7.3 0 0 1 1.27-2.49 5.4 5.4 0 0 1 1.96-1.54c.77-.36 1.62-.54 2.56-.54a6.1 6.1 0 0 1 2.05.33 3.9 3.9 0 0 1 1.62 1.06c.46.49.81 1.14 1.05 1.95.25.8.38 1.79.38 2.97v10.21h-5.08v-10.22c0-.65-.09-1.14-.27-1.48-.18-.35-.44-.59-.78-.72s-.75-.19-1.24-.19c-.52 0-.96.1-1.32.3s-.65.48-.87.84c-.21.35-.37.76-.46 1.24-.09.48-.13 1-.13 1.57zm21.39 4.59v-6.68c0-.46-.06-.85-.19-1.18s-.33-.59-.61-.76c-.28-.19-.66-.28-1.12-.28-.38 0-.7.06-.98.19s-.47.32-.61.58-.21.59-.21.99h-5.05a4.5 4.5 0 0 1 .49-2.08c.34-.65.82-1.21 1.44-1.69.63-.48 1.38-.85 2.25-1.11.88-.27 1.86-.41 2.94-.41a8.7 8.7 0 0 1 3.45.65 5.4 5.4 0 0 1 2.41 1.93 5.5 5.5 0 0 1 .88 3.21v6.64c0 1.06.06 1.86.18 2.41.12.54.29 1.01.51 1.42v.25h-5.07c-.24-.5-.42-1.11-.54-1.83-.11-.73-.17-1.48-.17-2.25zm.61-5.83l.03 2.7h-2.23c-.47 0-.87.06-1.2.19-.32.13-.58.31-.78.54-.19.22-.33.47-.42.75-.08.28-.12.57-.12.88 0 .3.07.57.21.81.15.23.35.41.6.54s.53.19.84.19c.56 0 1.03-.11 1.42-.31.4-.22.7-.48.91-.79s.31-.6.31-.87l1.11 2.07c-.2.4-.43.8-.69 1.21-.25.41-.56.79-.94 1.14a4.5 4.5 0 0 1-1.36.84c-.54.21-1.19.31-1.96.31a6.2 6.2 0 0 1-2.76-.61 5.1 5.1 0 0 1-1.99-1.71c-.5-.74-.75-1.59-.75-2.55 0-.84.15-1.59.45-2.25a4.4 4.4 0 0 1 1.39-1.68c.62-.46 1.41-.81 2.37-1.05s2.09-.36 3.39-.36h2.17zm12.6-13.11v23.02h-5.06v-23.02h5.06zm8.09 21.12l4.2-14.31h5.43l-6.52 18.63a11.4 11.4 0 0 1-.56 1.32c-.23.48-.54.93-.94 1.36a4.5 4.5 0 0 1-1.54 1.05 5.8 5.8 0 0 1-2.31.4c-.49 0-.85-.02-1.08-.07l-1.02-.22v-3.61h.33.33c.54 0 .97-.06 1.29-.17.33-.11.58-.27.75-.48.18-.21.32-.46.42-.76l1.23-3.13zm-1.06-14.31l3.19 11.35.55 5.35h-3.39l-5.77-16.69h5.41zm25.34 12.32v3.9H436.2v-3.9h12.56zm-.15-9.59l-10.15 13.49H435v-2.82l10.13-13.4h3.48v2.73zm-1.66-2.73v3.9H435.3v-3.9h11.64zm11.91 16.51c-1.32 0-2.5-.2-3.54-.61a7.7 7.7 0 0 1-2.64-1.72c-.71-.73-1.25-1.57-1.63-2.52a8.2 8.2 0 0 1-.56-3.01v-.57c0-1.19.17-2.29.5-3.3a7.7 7.7 0 0 1 1.47-2.67c.65-.76 1.46-1.35 2.44-1.77.98-.43 2.12-.65 3.42-.65 1.15 0 2.18.19 3.09.56s1.68.9 2.31 1.59c.64.69 1.12 1.52 1.45 2.5a10 10 0 0 1 .51 3.3v2.05h-13.25v-3.16h8.32v-.39a2.8 2.8 0 0 0-.29-1.38c-.19-.38-.47-.67-.84-.87a2.8 2.8 0 0 0-1.35-.3c-.55 0-1 .12-1.36.36-.35.24-.62.57-.82.99a5.2 5.2 0 0 0-.41 1.42 11.8 11.8 0 0 0-.12 1.71v.57c0 .6.08 1.14.24 1.63a3.7 3.7 0 0 0 .72 1.26c.32.34.7.61 1.14.8a3.9 3.9 0 0 0 1.53.28 5.6 5.6 0 0 0 2.04-.39c.67-.26 1.24-.69 1.72-1.29l2.29 2.73a5.9 5.9 0 0 1-1.41 1.36c-.6.44-1.32.8-2.16 1.08-.84.27-1.78.4-2.82.4zm-304.85 73.31l-1.64 9.39h-26.27l1.64-9.39h26.27zm-14.82-41.26l-8.8 50.65h-11.9l8.77-50.65h11.93zm15.1 20.11l-1.56 9.08h-22.89l1.6-9.08h22.86zm6.96-20.11l-1.63 9.43h-26.37l1.67-9.43h26.34zm11.97 21.6l-5.04 29.05h-11.45l6.54-37.64h10.68l-.73 8.59zm-2.85 8.94l-2.47.1a32.1 32.1 0 0 1 1.43-6.68 22.1 22.1 0 0 1 3.06-5.98 14.4 14.4 0 0 1 4.84-4.24c1.93-1.04 4.18-1.53 6.75-1.46 1.9.05 3.48.45 4.73 1.22 1.25.74 2.23 1.74 2.92 2.99.72 1.23 1.18 2.63 1.39 4.21.23 1.55.27 3.17.1 4.84l-4.17 25.12h-11.45l3.93-23.66a13.8 13.8 0 0 0 .07-2.75 3.4 3.4 0 0 0-.83-2.09c-.49-.56-1.31-.85-2.47-.87-1.25-.05-2.33.22-3.24.8a7.5 7.5 0 0 0-2.3 2.23c-.6.93-1.1 1.94-1.5 3.03-.37 1.09-.64 2.16-.8 3.2zm20.84 0l-3.03.1a32.9 32.9 0 0 1 1.39-6.64c.72-2.2 1.71-4.2 2.96-5.98 1.28-1.79 2.86-3.2 4.77-4.24a13.3 13.3 0 0 1 6.75-1.5c2.09.07 3.8.52 5.15 1.36s2.37 1.95 3.06 3.34c.72 1.39 1.18 2.95 1.39 4.66a24 24 0 0 1 .03 5.32l-3.97 23.69h-11.48l3.97-23.73c.12-.95.14-1.84.07-2.68a3.4 3.4 0 0 0-.84-2.09c-.46-.56-1.26-.85-2.4-.87-1.3-.05-2.41.21-3.34.77-.9.56-1.66 1.3-2.26 2.23a11.7 11.7 0 0 0-1.43 3.03c-.35 1.09-.62 2.17-.8 3.24zm41.71-9.67l-7.69 44.25h-11.45l9.05-52.12h10.61l-.52 7.86zm20.53 10.3l-.1.73c-.25 2.27-.78 4.57-1.56 6.89a24.4 24.4 0 0 1-3.17 6.37 15.4 15.4 0 0 1-4.94 4.63c-1.97 1.14-4.29 1.67-6.96 1.6-2.34-.07-4.26-.72-5.74-1.95-1.48-1.25-2.64-2.83-3.48-4.73-.81-1.93-1.38-3.95-1.7-6.09-.3-2.16-.43-4.16-.38-6.02l.1-1.01a38.6 38.6 0 0 1 1.74-6.47 28 28 0 0 1 3.2-6.33c1.32-1.97 2.91-3.56 4.77-4.77 1.85-1.23 4.01-1.81 6.47-1.74 2.57.07 4.69.68 6.33 1.84a10.9 10.9 0 0 1 3.76 4.49 18.8 18.8 0 0 1 1.63 6.05c.23 2.2.24 4.37.03 6.51zm-11.52.7l.07-.73.17-2.89c.05-1.09-.02-2.16-.21-3.2-.16-1.04-.54-1.91-1.15-2.61-.58-.72-1.47-1.1-2.68-1.15-1.41-.07-2.6.15-3.55.66a6.4 6.4 0 0 0-2.33 2.12 11.5 11.5 0 0 0-1.36 3.06 21 21 0 0 0-.7 3.44l-.31 2.85c-.16 1.32-.2 2.67-.1 4.04.09 1.34.49 2.48 1.18 3.41.72.93 1.93 1.41 3.62 1.46 1.34.02 2.46-.3 3.34-.97.91-.67 1.62-1.55 2.16-2.64.56-1.09.97-2.24 1.25-3.44l.59-3.41zm34.51-34.65l-9.25 53.44H255.7l9.25-53.44h11.48zm-.49 35.21l.07-.73a26.5 26.5 0 0 1 1.98-7.62 21.1 21.1 0 0 1 4.07-6.23c1.72-1.79 3.73-3.17 6.05-4.14a18.4 18.4 0 0 1 7.79-1.39c2.76.05 5.15.58 7.17 1.6s3.68 2.41 4.97 4.17c1.3 1.74 2.22 3.76 2.75 6.05a22.1 22.1 0 0 1 .49 7.27l-.07.77c-.3 2.69-.97 5.21-2.02 7.55a21 21 0 0 1-4.14 6.16 17.8 17.8 0 0 1-6.02 4.11c-2.32.97-4.91 1.43-7.76 1.36-2.71-.05-5.09-.57-7.13-1.57-2.02-1.02-3.68-2.39-4.97-4.11-1.3-1.74-2.23-3.73-2.78-5.98-.53-2.27-.68-4.7-.45-7.27zm11.51-.73l-.07.73-.14 3.13a13.6 13.6 0 0 0 .38 3.24c.25 1.02.72 1.87 1.39 2.54.7.65 1.69 1 2.99 1.04 1.39.05 2.55-.24 3.48-.87.95-.63 1.72-1.46 2.3-2.5a13.8 13.8 0 0 0 1.32-3.37c.32-1.21.54-2.37.66-3.48l.07-.73.1-3.1a12.8 12.8 0 0 0-.35-3.31 5.2 5.2 0 0 0-1.43-2.57c-.7-.69-1.69-1.07-2.99-1.11-1.39-.05-2.56.25-3.51.91-.93.65-1.68 1.51-2.26 2.57a13.7 13.7 0 0 0-1.32 3.41 25 25 0 0 0-.63 3.48zm36.95 13.99l14.96-32.67H352l-22.06 43.28c-.67 1.44-1.44 2.75-2.3 3.93a15 15 0 0 1-2.85 3.06c-1.07.86-2.27 1.52-3.62 1.98s-2.86.7-4.56.7a13.4 13.4 0 0 1-2.57-.24l-2.5-.52.87-8.42c.23.02.46.03.7.03a6.7 6.7 0 0 0 .66.04c.97 0 1.84-.11 2.61-.31.79-.19 1.48-.52 2.09-1.01.63-.49 1.17-1.16 1.64-2.02l4.31-7.83zm3.17-32.67l2.71 26.93-.87 11.83h-7.44l-6.26-38.76h11.86zm38.76 38.34a18.9 18.9 0 0 1-7.1-1.43c-2.13-.93-3.94-2.2-5.43-3.83a15.6 15.6 0 0 1-3.31-5.71c-.7-2.2-.95-4.6-.76-7.2l.14-1.36c.28-2.74.93-5.29 1.95-7.65 1.02-2.39 2.39-4.48 4.1-6.26a18.1 18.1 0 0 1 6.05-4.21 18.7 18.7 0 0 1 7.86-1.39c2.62.05 4.88.57 6.78 1.56 1.92 1 3.49 2.35 4.7 4.07 1.21 1.69 2.04 3.64 2.5 5.84.49 2.18.6 4.5.35 6.96l-.66 4.77H353.6l1.18-7.34 18.44.04.21-1.01a6.9 6.9 0 0 0-.14-2.96c-.25-.88-.73-1.58-1.43-2.09-.7-.53-1.63-.82-2.82-.87-1.44-.02-2.63.29-3.58.94a7.4 7.4 0 0 0-2.26 2.57 15.2 15.2 0 0 0-1.29 3.48 30.5 30.5 0 0 0-.66 3.55l-.14 1.32c-.09 1.14-.06 2.24.1 3.31s.49 2.03.97 2.89a6.1 6.1 0 0 0 2.05 2.09c.86.51 1.94.79 3.23.83a10.8 10.8 0 0 0 4.87-.97c1.51-.7 2.86-1.65 4.07-2.85l4.77 6.33c-1.04 1.58-2.39 2.85-4.04 3.83a19.3 19.3 0 0 1-5.32 2.09 21.7 21.7 0 0 1-5.5.66zm35.42-28.39l-4.8 27.69H385.5l6.54-37.64h10.65l-.94 9.95zm12.31-10.26l-1.5 10.92-1.81-.24-1.84-.14c-1.27-.02-2.44.13-3.48.45-1.02.3-1.91.78-2.68 1.43-.74.63-1.36 1.41-1.84 2.37s-.85 2.05-1.08 3.31l-1.91-1.39a46.9 46.9 0 0 1 1.11-5.6 26 26 0 0 1 2.23-5.64c.95-1.76 2.18-3.19 3.69-4.28 1.51-1.11 3.36-1.67 5.57-1.67a11.3 11.3 0 0 1 1.77.14l1.77.35zm-286.81 70.3l18.75.03c3.09.05 5.93.6 8.52 1.67s4.64 2.7 6.12 4.9c1.48 2.18 2.11 4.98 1.88 8.38-.21 2.81-.84 5.17-1.88 7.1a15.2 15.2 0 0 1-4.25 4.87 30.7 30.7 0 0 1-6.3 3.58l-4.31 2.23h-16.84l1.6-9.43 11.45.07c1.53-.02 2.89-.32 4.07-.91 1.21-.58 2.19-1.4 2.96-2.47s1.25-2.37 1.46-3.9a7.9 7.9 0 0 0-.14-3.34c-.28-1-.81-1.79-1.6-2.37a5.7 5.7 0 0 0-3.13-.97l-8.07-.03-7.17 41.23h-11.9l8.77-50.65zm18.4 50.65l-6.99-22.41 12.07-.07 7.62 21.88v.59h-12.7zm36.01.7a18.9 18.9 0 0 1-7.1-1.43 15.8 15.8 0 0 1-5.43-3.83 15.6 15.6 0 0 1-3.3-5.71 19.2 19.2 0 0 1-.77-7.2l.14-1.36c.28-2.74.93-5.29 1.95-7.65 1.02-2.39 2.39-4.48 4.11-6.26a18.1 18.1 0 0 1 6.05-4.21c2.34-1 4.96-1.46 7.86-1.39 2.62.05 4.88.57 6.78 1.56 1.93 1 3.49 2.35 4.7 4.07 1.21 1.69 2.04 3.64 2.5 5.84.49 2.18.6 4.5.35 6.96l-.66 4.77h-29.92l1.18-7.34 18.44.04.21-1.01a6.9 6.9 0 0 0-.14-2.96c-.25-.88-.73-1.58-1.43-2.09-.7-.53-1.64-.82-2.82-.87-1.44-.02-2.63.29-3.58.94a7.4 7.4 0 0 0-2.26 2.57c-.56 1.07-.99 2.23-1.29 3.48a30.3 30.3 0 0 0-.66 3.55l-.14 1.32a14.2 14.2 0 0 0 .1 3.31c.16 1.07.49 2.03.97 2.89a6.1 6.1 0 0 0 2.05 2.09c.86.51 1.94.79 3.24.83a10.8 10.8 0 0 0 4.87-.97c1.51-.7 2.86-1.65 4.07-2.85l4.77 6.33c-1.04 1.58-2.39 2.85-4.03 3.83a19.3 19.3 0 0 1-5.32 2.09 21.7 21.7 0 0 1-5.5.66zm33.4-9.19l11.66-29.15h12.35l-17.85 37.64h-7.27l1.11-8.49zm.28-29.15l2.51 30.16-1.25 7.48h-6.99l-6.05-37.64h11.79zm39.21 0l-6.51 37.64h-11.48l6.54-37.64h11.45zm-10.44-9.5c-.05-1.81.56-3.25 1.81-4.31 1.28-1.07 2.77-1.61 4.49-1.63 1.65-.02 3.11.46 4.38 1.46 1.28.97 1.93 2.33 1.95 4.07.05 1.81-.57 3.25-1.84 4.31a6.8 6.8 0 0 1-4.45 1.63c-1.65.02-3.11-.45-4.38-1.43-1.25-1-1.9-2.37-1.95-4.11zm29.47 47.84a18.9 18.9 0 0 1-7.1-1.43c-2.13-.93-3.94-2.2-5.43-3.83s-2.59-3.53-3.31-5.71a19.2 19.2 0 0 1-.77-7.2l.14-1.36a25.8 25.8 0 0 1 1.95-7.65c1.02-2.39 2.39-4.48 4.1-6.26a18.1 18.1 0 0 1 6.05-4.21c2.34-1 4.96-1.46 7.86-1.39 2.62.05 4.88.57 6.78 1.56 1.92 1 3.49 2.35 4.7 4.07 1.21 1.69 2.04 3.64 2.5 5.84.49 2.18.6 4.5.35 6.96l-.66 4.77h-29.92l1.18-7.34 18.44.04.21-1.01a6.9 6.9 0 0 0-.14-2.96c-.25-.88-.73-1.58-1.43-2.09-.7-.53-1.63-.82-2.82-.87-1.44-.02-2.63.29-3.58.94a7.4 7.4 0 0 0-2.26 2.57c-.56 1.07-.99 2.23-1.29 3.48a30.3 30.3 0 0 0-.66 3.55l-.14 1.32c-.09 1.14-.06 2.24.1 3.31s.49 2.03.97 2.89a6.1 6.1 0 0 0 2.05 2.09c.86.51 1.94.79 3.23.83a10.8 10.8 0 0 0 4.87-.97c1.51-.7 2.86-1.65 4.07-2.85l4.77 6.33c-1.04 1.58-2.39 2.85-4.04 3.83a19.3 19.3 0 0 1-5.32 2.09 21.7 21.7 0 0 1-5.5.66zm32.22-12.45l11.1-25.88h7.44l-5.01 13.74-10.68 23.9h-5.98l3.13-11.76zm1.81-25.88l-.38 26.82-1.43 10.82h-6.82l-2.12-37.64h10.75zm18.19 25.12l8.49-25.12h11.2l-15.1 37.64h-7.17l2.57-12.52zm-.9-25.12l2.3 27-.87 10.65h-5.64l-2.37-24.81-.14-12.84h6.71zm39.17 26.86c.19-.97-.1-1.72-.87-2.23-.74-.53-1.63-.93-2.68-1.18l-2.47-.66a32.1 32.1 0 0 1-4.21-1.43 17.5 17.5 0 0 1-3.79-2.23c-1.11-.9-2.01-1.98-2.68-3.24-.65-1.27-.94-2.76-.87-4.45.07-2.09.59-3.9 1.57-5.43 1-1.53 2.28-2.8 3.86-3.79 1.58-1.02 3.29-1.77 5.15-2.26a20.2 20.2 0 0 1 5.6-.66c2.55.02 4.95.48 7.2 1.36a12.7 12.7 0 0 1 5.53 4.04c1.44 1.81 2.17 4.11 2.19 6.89l-11.38-.03a6.2 6.2 0 0 0-.35-2.37c-.23-.67-.64-1.18-1.22-1.53-.58-.37-1.37-.56-2.37-.56a5.6 5.6 0 0 0-2.19.45c-.72.3-1.34.73-1.88 1.29-.51.56-.84 1.23-.97 2.02-.14.67-.05 1.24.28 1.7a3.6 3.6 0 0 0 1.32 1.08 11.4 11.4 0 0 0 1.74.7l1.67.38a37.2 37.2 0 0 1 6.12 2.05c2 .83 3.62 2.03 4.87 3.58 1.27 1.53 1.88 3.57 1.81 6.12-.07 2.16-.65 4-1.74 5.53a12.7 12.7 0 0 1-4.21 3.69 20 20 0 0 1-5.5 2.02 24.3 24.3 0 0 1-5.67.63c-2.55-.05-4.96-.56-7.24-1.53a13.9 13.9 0 0 1-5.57-4.31 11.9 11.9 0 0 1-2.23-6.99l10.58.03c.02 1.09.22 2.01.59 2.75a4.1 4.1 0 0 0 1.71 1.67 6.1 6.1 0 0 0 2.75.56 8.1 8.1 0 0 0 2.37-.35c.79-.25 1.46-.65 2.02-1.18.58-.56.96-1.26 1.15-2.12z" fill="#5b5b5b"/><g filter="url(#E)"><path d="M323.37 71.07a11.9 11.9 0 0 0-11.87-11.87H1.1v88.79h310.39a11.9 11.9 0 0 0 11.88-11.87V71.07z" fill="#3886e7"/><path d="M48.03 107.35h-6.3v-4.71h6.3c.86 0 1.55-.15 2.09-.44s.92-.69 1.17-1.2c.26-.52.38-1.11.38-1.76 0-.7-.13-1.34-.38-1.93a3.1 3.1 0 0 0-1.17-1.43c-.53-.37-1.23-.56-2.09-.56h-4v20.61h-6.11V90.62h10.11c2.03 0 3.77.37 5.24 1.11 1.47.74 2.6 1.76 3.39 3.06a8.3 8.3 0 0 1 1.18 4.42 7.7 7.7 0 0 1-1.18 4.28c-.79 1.22-1.92 2.17-3.39 2.85-1.46.67-3.21 1.01-5.24 1.01zm22.39 3.86v-7.76c0-.53-.08-.99-.23-1.37s-.39-.68-.71-.89c-.32-.22-.76-.33-1.3-.33-.44 0-.82.07-1.13.23s-.55.38-.71.68-.24.69-.24 1.15h-5.86a5.2 5.2 0 0 1 .57-2.42c.39-.75.95-1.41 1.67-1.97.73-.56 1.6-.99 2.61-1.29a11.6 11.6 0 0 1 3.41-.47c1.5 0 2.83.25 4 .75 1.18.5 2.12 1.25 2.8 2.24.68.99 1.03 2.23 1.03 3.72v7.71c0 1.23.07 2.16.21 2.8.14.63.34 1.18.59 1.65v.29h-5.88c-.28-.58-.49-1.29-.63-2.12a17.5 17.5 0 0 1-.19-2.61zm.71-6.77l.03 3.13h-2.59c-.55 0-1.01.08-1.39.23-.37.15-.67.36-.9.63-.22.26-.38.55-.49.87-.09.33-.14.67-.14 1.03 0 .35.08.66.24.94a1.8 1.8 0 0 0 .7.63c.29.15.61.23.97.23.65 0 1.2-.12 1.65-.36.46-.25.82-.56 1.06-.92s.37-.7.37-1.01l1.29 2.4c-.23.46-.5.93-.8 1.41-.29.47-.66.92-1.1 1.32-.43.39-.96.72-1.58.97a6.3 6.3 0 0 1-2.28.37 7.2 7.2 0 0 1-3.2-.71 5.9 5.9 0 0 1-2.31-1.98c-.58-.86-.87-1.84-.87-2.96 0-.97.17-1.84.52-2.61a5.1 5.1 0 0 1 1.62-1.95 7.7 7.7 0 0 1 2.75-1.22 16.3 16.3 0 0 1 3.93-.42h2.52zm14.35-2.66v14.16h-5.86V97.12h5.48l.38 4.66zm5.57-4.8l-.1 5.44-.94-.09-.99-.05c-.68 0-1.28.08-1.77.24a3 3 0 0 0-1.22.7c-.31.3-.55.68-.7 1.15a5.3 5.3 0 0 0-.19 1.62l-1.06-.7c0-1.26.12-2.41.37-3.44.26-1.04.61-1.94 1.08-2.7.46-.77 1.03-1.35 1.69-1.76a4.1 4.1 0 0 1 2.23-.63c.29 0 .57.02.85.05.29.03.55.09.77.16zm12.8.14v4.07H92.51v-4.07h11.34zm-8.96-4.68h5.86v17.36c0 .5.06.89.17 1.16.12.27.31.46.59.57.29.11.67.16 1.15.16l.83-.02.63-.09v4.19c-.5.16-1.02.28-1.56.36-.55.09-1.12.14-1.74.14-1.25 0-2.32-.2-3.22-.59a4.2 4.2 0 0 1-2.02-1.86c-.46-.85-.7-1.95-.7-3.31V92.44zm31.61 10.32v4.54h-10.45v-4.54h10.45zm18.72-1.93h2.85a3.7 3.7 0 0 0 1.79-.38c.47-.27.83-.64 1.06-1.11.23-.49.35-1.06.35-1.72 0-.51-.11-.98-.33-1.41-.21-.43-.53-.77-.97-1.03-.44-.27-1-.4-1.69-.4a3.3 3.3 0 0 0-1.36.3c-.44.19-.81.45-1.1.8-.28.35-.42.77-.42 1.27h-5.88c0-1.44.4-2.67 1.18-3.69.8-1.03 1.85-1.82 3.15-2.37a10.7 10.7 0 0 1 4.23-.83 12.4 12.4 0 0 1 4.73.83c1.36.55 2.41 1.36 3.17 2.44.76 1.07 1.15 2.39 1.15 3.97 0 .87-.2 1.69-.61 2.45a6.4 6.4 0 0 1-1.7 2.02c-.73.58-1.59 1.04-2.58 1.37-.97.33-2.04.49-3.2.49h-3.83v-2.99zm0 4.37v-2.92h3.83a12.9 12.9 0 0 1 3.46.44c1.04.28 1.94.7 2.7 1.25s1.33 1.25 1.74 2.07c.41.81.61 1.75.61 2.8 0 1.18-.24 2.24-.71 3.17a6.7 6.7 0 0 1-2 2.35c-.86.64-1.86 1.13-3.01 1.46a13.7 13.7 0 0 1-3.74.49 12.4 12.4 0 0 1-3.17-.42c-1.05-.29-2.02-.73-2.89-1.32a7 7 0 0 1-2.11-2.3c-.52-.94-.78-2.06-.78-3.36h5.88a2.6 2.6 0 0 0 .44 1.46c.3.43.7.77 1.2 1.03a3.5 3.5 0 0 0 1.62.38c.72 0 1.33-.13 1.83-.4.51-.28.9-.65 1.16-1.11s.4-.98.4-1.55c0-.86-.15-1.54-.44-2.05-.28-.51-.69-.88-1.24-1.11-.53-.23-1.18-.35-1.93-.35h-2.85z" class="B"/></g><g clip-path="url(#AH)"><path d="M1021.25 141.5H665v356.25h356.25V141.5z" class="B"/><path d="M867.48 462.58l-124.58-39.31c-44.04-13.9-65.79-63.38-46.25-105.23l45.7-97.87c19.54-41.84 71.44-56.93 110.37-32.09l110.11 70.28c32.32 20.63 44.36 62.02 28.13 96.77l-31.24 66.9c-16.23 34.74-55.68 52.09-92.25 40.55z" fill="url(#F)"/><path d="M712.09 227.22h94.68a3.5 3.5 0 0 1 3.51 3.51v82.33a3.5 3.5 0 0 1-3.51 3.51h-94.68a3.5 3.5 0 0 1-3.51-3.51v-82.33a3.5 3.5 0 0 1 3.51-3.51z" fill="url(#G)" stroke-width=".3" class="F"/><path opacity=".6" d="M776.12 234.93h-59.46v5.95h59.46v-5.95z" fill="url(#H)"/><path opacity=".6" d="M754.92 244.52h-38.27v5.95h38.27v-5.95z" fill="url(#I)"/><g opacity=".35" class="C"><use href="#AI"/><path d="M800.36 293.86h-81.88c-.16 0-.29-.13-.29-.3s.13-.3.29-.3h81.88a.3.3 0 0 1 .3.3c0 .17-.13.3-.3.3zm0-14.64h-81.88c-.16 0-.29-.13-.29-.3s.13-.3.29-.3h81.88a.3.3 0 0 1 .3.3c0 .17-.13.3-.3.3zm0-14.65h-81.88c-.16 0-.29-.13-.29-.3s.13-.3.29-.3h81.88a.3.3 0 0 1 .3.3c0 .17-.13.3-.3.3z"/></g><path d="M721.23 308.21l10.06-12.38 3.81 2.9 7.01-10.37 4.38 3.96 6.29-6.4 5.49 5.18 10.06-16.01 7.78 9.15 4.27-11.28 6.1 1.83 10.98-13.87v47.1l-76.24.19z" class="C"/><path d="M969.87 453.7h-86.36c-2.3 0-4.17-1.87-4.17-4.17v-130.4c0-2.3 1.87-4.17 4.17-4.17h86.36c2.3 0 4.17 1.87 4.17 4.17v130.4c0 2.3-1.87 4.17-4.17 4.17z" fill="url(#J)"/><path d="M957.31 324.54h-66.72v6.9h66.72v-6.9z" fill="url(#K)"/><path d="M932.59 335.76h-42v4.6h42v-4.6z" fill="url(#L)"/><path d="M926.69 341.97h-36.1v4.6h36.1v-4.6z" fill="url(#M)"/><use href="#AJ" fill="url(#N)"/><path d="M902.89 422.99c-2.46 0-4.45-1.99-4.45-4.45v-27c0-2.46 1.99-4.45 4.45-4.45s4.45 1.99 4.45 4.45v27c0 2.45-1.99 4.45-4.45 4.45z" fill="url(#O)"/><path d="M926.69 423c-2.46 0-4.45-1.99-4.45-4.45v-49.02c0-2.46 1.99-4.45 4.45-4.45s4.45 1.99 4.45 4.45v49.02c0 2.45-1.99 4.45-4.45 4.45z" fill="url(#P)"/><path d="M926.69 423c-2.46 0-4.45-1.99-4.45-4.45v-35.84c0-2.46 1.99-4.45 4.45-4.45s4.45 1.99 4.45 4.45v35.84c0 2.45-1.99 4.45-4.45 4.45z" fill="url(#Q)"/><path d="M950.49 423c-2.46 0-4.45-1.99-4.45-4.45v-49.02c0-2.46 1.99-4.45 4.45-4.45s4.45 1.99 4.45 4.45v49.02c0 2.45-1.99 4.45-4.45 4.45z" fill="url(#R)"/><path d="M950.49 422.99c-2.46 0-4.45-1.99-4.45-4.45v-24.24c0-2.46 1.99-4.45 4.45-4.45s4.45 1.99 4.45 4.45v24.24c0 2.46-1.99 4.45-4.45 4.45z" fill="url(#S)"/><use href="#AK" fill="url(#T)"/><path d="M932.44 431.03h-11.49v7.93h11.49v-7.93z" fill="url(#U)"/><path d="M956.23 431.03h-11.49v7.93h11.49v-7.93z" fill="url(#V)"/><path d="M972.33 300.2H848.24a3.9 3.9 0 0 1-3.91-3.91V189.47a3.9 3.9 0 0 1 3.91-3.91h124.09a3.9 3.9 0 0 1 3.91 3.91v106.82a3.9 3.9 0 0 1-3.91 3.91z" fill="url(#W)"/><path d="M972.33 185.56H848.24a3.9 3.9 0 0 0-3.91 3.91v7.16h131.91v-7.16a3.9 3.9 0 0 0-3.91-3.91z" fill="url(#X)"/><use href="#AL" fill="url(#Y)"/><path d="M962.31 191.23c0 1.61-1.31 2.92-2.92 2.92s-2.92-1.31-2.92-2.92 1.31-2.92 2.92-2.92 2.92 1.31 2.92 2.92z" fill="url(#Z)"/><path d="M953.49 191.23c0 1.61-1.31 2.92-2.92 2.92s-2.92-1.31-2.92-2.92 1.31-2.92 2.92-2.92 2.92 1.31 2.92 2.92z" fill="url(#a)"/><path d="M877.97 247.61a22.3 22.3 0 1 0 0-44.63 22.3 22.3 0 1 0 0 44.63z" class="C"/><path d="M893.21 209.01a22.3 22.3 0 0 0-31.02.5c-4.64 4.64-6.81 10.81-6.51 16.89l22.29-1.11 15.25-16.28z" fill="#9cc8ff"/><path d="M862.18 241.07a22.2 22.2 0 0 0 9.25 5.56l6.53-21.34-22.29 1.11c.26 5.34 2.43 10.59 6.51 14.67z" fill="#3a92ff"/><use href="#AM" class="C"/><path d="M958.65 213.5h-32.13v3.18h32.13v-3.18z" fill="url(#b)"/><path d="M920.87 226.98c0 1.64-1.33 2.97-2.97 2.97s-2.97-1.33-2.97-2.97 1.33-2.97 2.97-2.97 2.97 1.33 2.97 2.97z" fill="#3a92ff"/><path d="M950.6 225.39h-24.08v3.18h24.08v-3.18z" fill="url(#c)"/><path d="M917.9 241.84c1.64 0 2.97-1.33 2.97-2.97s-1.33-2.97-2.97-2.97-2.97 1.33-2.97 2.97 1.33 2.97 2.97 2.97z" fill="#9cc8ff"/><path d="M962.31 237.27h-35.79v3.18h35.79v-3.18z" fill="url(#d)"/><use href="#AN" fill="url(#e)"/><use href="#AO" fill="url(#f)"/><path d="M886.87 259.79h-6.68v31.27h6.68v-31.27z" fill="url(#g)"/><path d="M897.57 270.62h-6.68v20.44h6.68v-20.44z" fill="url(#h)"/><path d="M908.28 259.79h-6.68v31.27h6.68v-31.27z" fill="url(#i)"/><path d="M918.98 270.62h-6.68v20.44h6.68v-20.44z" fill="url(#j)"/><path d="M929.69 259.79H923v31.27h6.68v-31.27z" fill="url(#k)"/><path d="M940.39 270.62h-6.68v20.44h6.68v-20.44z" fill="url(#l)"/><path d="M951.1 259.79h-6.68v31.27h6.68v-31.27z" fill="url(#m)"/><path d="M961.8 270.62h-6.68v20.44h6.68v-20.44z" fill="url(#n)"/><path d="M708.44 347.82h72.57a4 4 0 0 1 4.02 4.02v62.42a4 4 0 0 1-4.02 4.02h-72.57a4 4 0 0 1-4.02-4.02v-62.42a4 4 0 0 1 4.02-4.02z" fill="url(#o)" stroke-width=".3" class="F"/><g class="C"><path d="M775.04 356.26h-61.13v7.54h61.13v-7.54zm-14.57 11.61h-46.56v7.54h46.56v-7.54z"/></g><path d="M779.4 414.35h-34.88v-32.02h34.88v32.02zm-34.21-.67h33.54V383h-33.54v30.67z" fill="url(#p)"/><path d="M759.42 392.42h-7.8v17.3h7.8v-17.3z" fill="url(#q)"/><path d="M771.91 386.96h-7.8v22.76h7.8v-22.76z" fill="url(#r)"/><g class="C"><path d="M737.19 387.74h-23.28v4.68h23.28v-4.68zm-3.12 8.26h-20.16v4.68h20.16V396zm-5.08 8.25H713.9v4.68h15.09v-4.68z"/></g><path d="M907.35 312.06h-.67v-4.52h-37.99v-.67h38.66v5.19z" fill="url(#s)"/><use href="#AP" fill="url(#t)"/><path d="M869.81 307.21c0 .62-.5 1.13-1.13 1.13s-1.13-.5-1.13-1.13.5-1.13 1.13-1.13 1.13.51 1.13 1.13z" fill="url(#u)"/><path d="M814.13 421.42h-.67V380.7h-23.42v-.67h24.1v41.39z" fill="url(#v)"/><use href="#AQ" fill="url(#w)"/><path d="M814.92 421.42c0 .62-.5 1.13-1.13 1.13s-1.13-.5-1.13-1.13.5-1.13 1.13-1.13 1.13.5 1.13 1.13z" fill="url(#x)"/><path d="M812.77 338.46h-26.89v-17.85h.67v17.18h26.22v.67z" fill="url(#y)"/><path d="M787.35 320.61c0 .62-.5 1.13-1.13 1.13s-1.13-.5-1.13-1.13.5-1.13 1.13-1.13 1.13.5 1.13 1.13z" fill="url(#z)"/><path d="M813.91 338.12c0 .62-.5 1.13-1.13 1.13s-1.13-.5-1.13-1.13.5-1.13 1.13-1.13 1.13.5 1.13 1.13z" fill="url(#AA)"/><path d="M830.04 290.04h-.67v-37.13h11.82v.67h-11.15v36.46z" fill="url(#AB)"/><path d="M842.32 253.25c0 .62-.5 1.13-1.13 1.13s-1.13-.5-1.13-1.13.5-1.13 1.13-1.13 1.13.5 1.13 1.13z" fill="url(#AC)"/><path d="M829.71 291.17c.62 0 1.13-.5 1.13-1.13s-.5-1.13-1.13-1.13-1.13.5-1.13 1.13.5 1.13 1.13 1.13z" fill="url(#AD)"/><path d="M804.06 446.74l.53 68.88c-1.85 5.44-2.72 11.17-2.57 16.9l1.32 51.44c.02.96.63 1.82 1.54 2.16 3.17 1.18 10.61 4.44 15.88-1.69.45-.53.69-1.22.71-1.91.31-7.59 2.36-53.69 7.96-78.67 6.11-27.29 9.07-46.62 3.39-59.59l-28.77 2.51.02-.04z" fill="#142e70"/><path d="M824.92 463.58l.53 68.88a48.7 48.7 0 0 0-2.58 16.9l1.32 51.44c.02.96.63 1.82 1.54 2.16 3.17 1.18 10.61 4.44 15.88-1.69.45-.53.69-1.22.71-1.91.31-7.59 2.36-53.69 7.96-78.67 6.11-27.29 9.07-46.61 3.39-59.59l-28.77 2.51.02-.04z" fill="#1b3d96"/><path d="M856.19 455.5s-2.57-31.48-.82-37.77a34.1 34.1 0 0 0 .65-15.65l-2.7-15.3c-3.63-13.19-14.25-18.56-14.25-18.56-8.63-4.29-18.51-13.21-28.7-9.06-17.12 6.99-11.1 33.2-4.82 45.61 3.21 6.37 3.95 13.7 1.72 20.47-2.28 6.97-4.82 13.92-6.04 21.16-.91 5.3-.71 10.48-.34 15.7.29 4.28 2.86 8.06 6.76 9.81l28.54 11.79c1.63.67 3.44.96 5.33.93 3.25-.06 6.11-2.07 7.25-5.11 1.05-2.77 2.01-6.2 2.5-10.21l1.79-.4a23.9 23.9 0 0 1 2.65 6.91c.62-1.51.98-3.15 1.02-4.82l.07-3.42a84.7 84.7 0 0 0-.6-12.12l-.02.04z" fill="#659de4"/><path d="M836.84 369.29c-3.79.33-11.13.09-14.43-6.02l-.43-22.69a14.2 14.2 0 0 1 5.98-11.77c2.77-1.93 6.38-2.42 9.68-2.55 2.61-.11 7.33-.67 9.25 1.53.96 1.09 2.03 5.35 2.03 6.82v22.96c0 1.76-1.69 3.04-3.37 2.55 0 0-6.29-.8-6.36 2.55v4.04a2.6 2.6 0 0 1-2.34 2.58z" class="G"/><g fill="#0d1d48"><path d="M843.64 330.82s4.99 12.88-7.11 16.38c0 0-5.58 11.83-12.69 10.61 0 0-12.69-11.37-9.21-20.47 0 0-2.58-17.89 20.7-19.1 0 0 5.44-3.33 9.37-.31 3.93 3.04 4.53 9.86-1.05 12.88l-.02.02z"/><path d="M841.79 351.4l-1.14-.54a2.4 2.4 0 0 1-1.34-2.15v-5.2h2.48v7.9z"/></g><path d="M848.03 338.38l2.43 6.59c.35.95-.14 1.98-1.09 2.31l-1.58.55.22-9.44h.02z" class="G"/><path d="M855.36 417.73c1.43-5.09 1.65-10.44.65-15.65l-2.7-15.3a30.3 30.3 0 0 0-3.97-8.77 59.9 59.9 0 0 0-7.54 5.99c2.72 3.46 4.46 8.15 4.62 14.99.65 27.07 3.32 73.47-9.26 85.08a14.3 14.3 0 0 0 4.17.6 8.1 8.1 0 0 0 7.49-5.26c1.03-2.75 1.98-6.13 2.45-10.08l1.78-.4c.87 1.44 1.9 3.71 2.65 6.93.62-1.51.98-3.15 1.01-4.82l.07-3.42a84.7 84.7 0 0 0-.6-12.12s-2.57-31.48-.82-37.77z" fill="#478ce4"/><path d="M874.64 410l42.82-24.94a6.1 6.1 0 0 1 .71-.33l11.77-4.64c.91-.36 1.92.14 2.19 1.09.24.82-.18 1.67-.98 1.98l-6.47 2.6c-.67.27-1.02 1-.82 1.71.65 2.24 1.58 6.97-1.31 9.02l-5.42 3.48c-1.45.86-3.06 1.38-4.73 1.56l-3.9.44a11.2 11.2 0 0 0-6.33 2.91l-18.62 17.85L874.6 410h.04z" class="G"/><path d="M841.22 369.65s12.24 1.82 17.44 10.01c4.61 7.24 17.22 29.33 17.22 29.33l2.16-.91s6.91 8.08 6.8 14.34l-11.22 5.91s-4.53 3.86-12.69-9.1-19.04-32.06-19.04-32.06-9.28-12.52-.67-17.5v-.02z" fill="#659de4"/><path d="M876.42 407.1s7.4 8.04 8.61 16.38l7.71-5.46s-.6-11.83-9.07-15.32l-7.25 4.4z" fill="#e0e0e0"/><g fill="#10255c"><path d="M840.25 331.59c-.02-.42-.36-.75-.78-.75-2.37 0-10.51.51-22.52 6.97-1.56.84.67 7.5 4.3 10.46s11.1-8.19 11.1-8.19 8.23-.75 7.87-8.5h.04zm-22.55-1.11c.4-1.33 3.59-9.99 17.4-10.52 0 0 4.95-3.6 9.37-.62.51.35.42 1.11-.14 1.33-1.58.58-4.44 1.51-6.67 1.44-1.25-.06-2.48.31-3.52 1.02-3.68 2.53-11.86 7.75-16.3 7.55-.09 0-.14-.09-.13-.18l-.02-.02z"/></g></g></g><rect x="1" y="1" width="1138" height="638" rx="15" stroke-width="2" class="F"/><defs><filter id="A" x="910.84" y="82.85" width="115.16" height="49.15" filterUnits="userSpaceOnUse" class="D"><feFlood class="E"/><feBlend in="SourceGraphic" result="B"/><feColorMatrix in="SourceAlpha" values="0 0 0 0 0 0 0 0 0 0 0 0 0 0 0 0 0 0 127 0" result="C"/><feOffset dy="5.94115"/><feGaussianBlur stdDeviation="5.94"/><feComposite in2="C" operator="arithmetic" k2="-1" k3="1"/><feColorMatrix values="0 0 0 0 0 0 0 0 0 0 0 0 0 0 0 0 0 0 0.25 0"/><feBlend in2="B" result="D"/><feColorMatrix in="SourceAlpha" values="0 0 0 0 0 0 0 0 0 0 0 0 0 0 0 0 0 0 127 0" result="C"/><feOffset dy="-5.94115"/><feGaussianBlur stdDeviation="5.94"/><feComposite in2="C" operator="arithmetic" k2="-1" k3="1"/><feColorMatrix values="0 0 0 0 0 0 0 0 0 0 0 0 0 0 0 0 0 0 0.25 0"/><feBlend in2="D"/></filter><filter id="B" x="1018.43" y="60.93" width="72.14" height="92.98" filterUnits="userSpaceOnUse" class="D"><feFlood class="E"/><feBlend in="SourceGraphic" result="B"/><feColorMatrix in="SourceAlpha" values="0 0 0 0 0 0 0 0 0 0 0 0 0 0 0 0 0 0 127 0" result="C"/><feOffset dy="-5.9375"/><feGaussianBlur stdDeviation="5.94"/><feComposite in2="C" operator="arithmetic" k2="-1" k3="1"/><feColorMatrix values="0 0 0 0 0 0 0 0 0 0 0 0 0 0 0 0 0 0 0.25 0"/><feBlend in2="B" result="D"/><feColorMatrix in="SourceAlpha" values="0 0 0 0 0 0 0 0 0 0 0 0 0 0 0 0 0 0 127 0" result="C"/><feOffset dy="5.9375"/><feGaussianBlur stdDeviation="5.94"/><feComposite in2="C" operator="arithmetic" k2="-1" k3="1"/><feColorMatrix values="0 0 0 0 0 0 0 0 0 0 0 0 0 0 0 0 0 0 0.25 0"/><feBlend in2="D"/></filter><filter id="C" x="114" y="509.25" width="115.16" height="49.15" filterUnits="userSpaceOnUse" class="D"><feFlood class="E"/><feBlend in="SourceGraphic" result="B"/><feColorMatrix in="SourceAlpha" values="0 0 0 0 0 0 0 0 0 0 0 0 0 0 0 0 0 0 127 0" result="C"/><feOffset dy="5.94115"/><feGaussianBlur stdDeviation="5.94"/><feComposite in2="C" operator="arithmetic" k2="-1" k3="1"/><feColorMatrix values="0 0 0 0 0 0 0 0 0 0 0 0 0 0 0 0 0 0 0.25 0"/><feBlend in2="B" result="D"/><feColorMatrix in="SourceAlpha" values="0 0 0 0 0 0 0 0 0 0 0 0 0 0 0 0 0 0 127 0" result="C"/><feOffset dy="-5.94115"/><feGaussianBlur stdDeviation="5.94"/><feComposite in2="C" operator="arithmetic" k2="-1" k3="1"/><feColorMatrix values="0 0 0 0 0 0 0 0 0 0 0 0 0 0 0 0 0 0 0.25 0"/><feBlend in2="D"/></filter><filter id="D" x="49.42" y="487.34" width="72.14" height="92.98" filterUnits="userSpaceOnUse" class="D"><feFlood class="E"/><feBlend in="SourceGraphic" result="B"/><feColorMatrix in="SourceAlpha" values="0 0 0 0 0 0 0 0 0 0 0 0 0 0 0 0 0 0 127 0" result="C"/><feOffset dy="-5.9375"/><feGaussianBlur stdDeviation="5.94"/><feComposite in2="C" operator="arithmetic" k2="-1" k3="1"/><feColorMatrix values="0 0 0 0 0 0 0 0 0 0 0 0 0 0 0 0 0 0 0.25 0"/><feBlend in2="B" result="D"/><feColorMatrix in="SourceAlpha" values="0 0 0 0 0 0 0 0 0 0 0 0 0 0 0 0 0 0 127 0" result="C"/><feOffset dy="5.9375"/><feGaussianBlur stdDeviation="5.94"/><feComposite in2="C" operator="arithmetic" k2="-1" k3="1"/><feColorMatrix values="0 0 0 0 0 0 0 0 0 0 0 0 0 0 0 0 0 0 0.25 0"/><feBlend in2="D"/></filter><filter id="E" x="-3.65" y="56.22" width="331.77" height="98.29" filterUnits="userSpaceOnUse" class="D"><feFlood result="A" class="E"/><feColorMatrix in="SourceAlpha" values="0 0 0 0 0 0 0 0 0 0 0 0 0 0 0 0 0 0 127 0" result="B"/><feOffset dy="1.78125"/><feGaussianBlur stdDeviation="2.38"/><feComposite in2="B" operator="out"/><feColorMatrix values="0 0 0 0 0 0 0 0 0 0 0 0 0 0 0 0 0 0 0.3 0"/><feBlend in2="A"/><feBlend in="SourceGraphic"/></filter><linearGradient id="F" x1="907.36" y1="200.51" x2="793.36" y2="444.65" href="#AR"><stop stop-color="#bbd9fe"/><stop offset=".5" stop-color="#6aacff"/><stop offset="1" stop-color="#b5d6ff"/></linearGradient><linearGradient id="G" x1="759.4" y1="245.71" x2="759.42" y2="315.82" href="#AR"><stop stop-color="#fff"/><stop offset="1" stop-color="#c8e7ff"/></linearGradient><linearGradient id="H" x1="746.39" y1="235.24" x2="746.33" y2="240.66" href="#AR"><stop stop-color="#d2f2ff"/><stop offset="1" stop-color="#0668e1"/></linearGradient><linearGradient id="I" x1="735.65" y1="244.52" x2="735.65" y2="250.16" href="#AR"><stop stop-color="#c2ddff"/><stop offset="1" stop-color="#0668e1"/></linearGradient><linearGradient id="J" x1="926.69" y1="300.74" x2="926.69" y2="425.62" href="#AR"><stop stop-color="#fffffe"/><stop offset="1" stop-color="#c8e7ff"/></linearGradient><linearGradient id="K" x1="966.13" y1="314.95" x2="899.37" y2="335.58" href="#AR"><stop stop-color="#0cb5f9"/><stop offset="1" stop-color="#625eff"/></linearGradient><linearGradient id="L" x1="970.42" y1="316.91" x2="891.33" y2="345.35" href="#AR"><stop stop-color="#c8e7ff"/><stop offset="1" stop-color="#92b7d4"/></linearGradient><linearGradient id="M" x1="972.05" y1="321.46" x2="892.97" y2="349.91" href="#AR"><stop stop-color="#c8e7ff"/><stop offset="1" stop-color="#92b7d4"/></linearGradient><linearGradient id="N" x1="917.88" y1="389.41" x2="894.16" y2="396.74" href="#AR"><stop stop-color="#c8e7ff"/><stop offset="1" stop-color="#92b7d4"/></linearGradient><linearGradient id="O" x1="902.89" y1="387.97" x2="902.89" y2="424.59" href="#AR"><stop stop-color="#7fb8ff"/><stop offset="1" stop-color="#0668e1"/></linearGradient><linearGradient id="P" x1="941.68" y1="389.41" x2="917.95" y2="396.74" href="#AR"><stop stop-color="#c8e7ff"/><stop offset="1" stop-color="#92b7d4"/></linearGradient><linearGradient id="Q" x1="926.69" y1="378.61" x2="926.69" y2="418.29" href="#AR"><stop stop-color="#014aa5"/><stop offset="1" stop-color="#002f69"/></linearGradient><linearGradient id="R" x1="965.47" y1="389.41" x2="941.75" y2="396.74" href="#AR"><stop stop-color="#c8e7ff"/><stop offset="1" stop-color="#92b7d4"/></linearGradient><linearGradient id="S" x1="950.49" y1="393.18" x2="950.49" y2="424.77" href="#AR"><stop stop-color="#499bff"/><stop offset="1" stop-color="#0668e1"/></linearGradient><linearGradient id="T" x1="935.36" y1="368.76" x2="909.34" y2="421.82" href="#AR"><stop stop-color="#c8e7ff"/><stop offset="1" stop-color="#92b7d4"/></linearGradient><linearGradient id="U" x1="954.55" y1="378.16" x2="928.53" y2="431.23" href="#AR"><stop stop-color="#c8e7ff"/><stop offset="1" stop-color="#92b7d4"/></linearGradient><linearGradient id="V" x1="973.73" y1="387.57" x2="947.72" y2="440.64" href="#AR"><stop stop-color="#c8e7ff"/><stop offset="1" stop-color="#92b7d4"/></linearGradient><linearGradient id="W" x1="910.29" y1="180.64" x2="910.29" y2="299.05" href="#AR"><stop stop-color="#fffffe"/><stop offset="1" stop-color="#c8e7ff"/></linearGradient><linearGradient id="X" x1="912.08" y1="244.82" x2="910.13" y2="188.47" href="#AR"><stop stop-color="#0cb5f9"/><stop offset="1" stop-color="#625eff"/></linearGradient><linearGradient id="Y" x1="967.59" y1="188.07" x2="968.73" y2="193.93" href="#AR"><stop stop-color="#3891ff"/><stop offset="1" stop-color="#123b6e"/></linearGradient><linearGradient id="Z" x1="959.1" y1="189.72" x2="960.24" y2="195.58" href="#AR"><stop stop-color="#fffffe"/><stop offset="1" stop-color="#c8e7ff"/></linearGradient><linearGradient id="a" x1="949.97" y1="187.82" x2="951.44" y2="196.13" href="#AR"><stop stop-color="#fffffe"/><stop offset="1" stop-color="#c8e7ff"/></linearGradient><linearGradient id="b" x1="971.24" y1="199.95" x2="927.76" y2="222.92" href="#AR"><stop stop-color="#c8e7ff"/><stop offset="1" stop-color="#92b7d4"/></linearGradient><linearGradient id="c" x1="975.27" y1="207.59" x2="931.79" y2="230.55" href="#AR"><stop stop-color="#c8e7ff"/><stop offset="1" stop-color="#92b7d4"/></linearGradient><linearGradient id="d" x1="981.46" y1="219.3" x2="937.98" y2="242.26" href="#AR"><stop stop-color="#c8e7ff"/><stop offset="1" stop-color="#92b7d4"/></linearGradient><linearGradient id="e" x1="862.12" y1="258.84" x2="862.12" y2="308.8" href="#AR"><stop stop-color="#3891ff"/><stop offset="1" stop-color="#174073"/></linearGradient><linearGradient id="f" x1="872.82" y1="271.87" x2="872.82" y2="314.05" href="#AR"><stop stop-color="#0cb5f9"/><stop offset="1" stop-color="#625eff"/></linearGradient><linearGradient id="g" x1="883.53" y1="258.84" x2="883.53" y2="308.8" href="#AR"><stop stop-color="#3891ff"/><stop offset="1" stop-color="#0668e1"/></linearGradient><linearGradient id="h" x1="894.23" y1="271.87" x2="894.23" y2="314.05" href="#AR"><stop stop-color="#0cb5f9"/><stop offset="1" stop-color="#625eff"/></linearGradient><linearGradient id="i" x1="904.94" y1="258.84" x2="904.94" y2="308.8" href="#AR"><stop stop-color="#3891ff"/><stop offset="1" stop-color="#174073"/></linearGradient><linearGradient id="j" x1="915.64" y1="271.87" x2="915.64" y2="314.05" href="#AR"><stop stop-color="#0cb5f9"/><stop offset="1" stop-color="#625eff"/></linearGradient><linearGradient id="k" x1="926.34" y1="258.84" x2="926.34" y2="308.8" href="#AR"><stop stop-color="#3891ff"/><stop offset="1" stop-color="#174073"/></linearGradient><linearGradient id="l" x1="937.05" y1="271.87" x2="937.05" y2="314.05" href="#AR"><stop stop-color="#0cb5f9"/><stop offset="1" stop-color="#625eff"/></linearGradient><linearGradient id="m" x1="947.76" y1="258.84" x2="947.76" y2="308.8" href="#AR"><stop stop-color="#3891ff"/><stop offset="1" stop-color="#174073"/></linearGradient><linearGradient id="n" x1="958.46" y1="271.87" x2="958.46" y2="314.05" href="#AR"><stop stop-color="#0cb5f9"/><stop offset="1" stop-color="#625eff"/></linearGradient><linearGradient id="o" x1="744.56" y1="360.89" x2="744.73" y2="418.43" href="#AR"><stop stop-color="#fff"/><stop offset="1" stop-color="#c8e7ff"/></linearGradient><linearGradient id="p" x1="775.96" y1="379.74" x2="747.96" y2="416.93" href="#AR"><stop stop-color="#0cb5f9"/><stop offset="1" stop-color="#625eff"/></linearGradient><linearGradient id="q" x1="751.62" y1="401.07" x2="759.42" y2="401.07" href="#AR"><stop stop-color="#b1d4ff"/><stop offset="1" stop-color="#0668e1"/></linearGradient><linearGradient id="r" x1="764.11" y1="398.34" x2="771.91" y2="398.34" href="#AR"><stop stop-color="#b1d4ff"/><stop offset="1" stop-color="#0668e1"/></linearGradient><linearGradient id="s" x1="887.07" y1="318.33" x2="861.32" y2="560.26" href="#AR"><stop stop-color="#fffffe"/><stop offset="1" stop-color="#c8e7ff"/></linearGradient><linearGradient id="t" x1="906.12" y1="320.36" x2="880.37" y2="562.29" href="#AR"><stop stop-color="#fffffe"/><stop offset="1" stop-color="#c8e7ff"/></linearGradient><linearGradient id="u" x1="867.72" y1="316.27" x2="841.96" y2="558.2" href="#AR"><stop stop-color="#fffffe"/><stop offset="1" stop-color="#c8e7ff"/></linearGradient><linearGradient id="v" x1="810.55" y1="321.16" x2="784.8" y2="563.08" href="#AR"><stop stop-color="#fffffe"/><stop offset="1" stop-color="#c8e7ff"/></linearGradient><linearGradient id="w" x1="796.5" y1="319.67" x2="770.74" y2="561.58" href="#AR"><stop stop-color="#fffffe"/><stop offset="1" stop-color="#c8e7ff"/></linearGradient><linearGradient id="x" x1="824.31" y1="322.62" x2="798.55" y2="564.55" href="#AR"><stop stop-color="#fffffe"/><stop offset="1" stop-color="#c8e7ff"/></linearGradient><linearGradient id="y" x1="800.33" y1="320.07" x2="774.58" y2="562" href="#AR"><stop stop-color="#fffffe"/><stop offset="1" stop-color="#c8e7ff"/></linearGradient><linearGradient id="z" x1="786.44" y1="318.59" x2="760.68" y2="560.52" href="#AR"><stop stop-color="#fffffe"/><stop offset="1" stop-color="#c8e7ff"/></linearGradient><linearGradient id="AA" x1="814.54" y1="321.58" x2="788.79" y2="563.51" href="#AR"><stop stop-color="#fffffe"/><stop offset="1" stop-color="#c8e7ff"/></linearGradient><linearGradient id="AB" x1="827.85" y1="323" x2="802.1" y2="564.93" href="#AR"><stop stop-color="#fffffe"/><stop offset="1" stop-color="#c8e7ff"/></linearGradient><linearGradient id="AC" x1="833.7" y1="323.62" x2="807.95" y2="565.54" href="#AR"><stop stop-color="#fffffe"/><stop offset="1" stop-color="#c8e7ff"/></linearGradient><linearGradient id="AD" x1="826.22" y1="322.83" x2="800.47" y2="564.75" href="#AR"><stop stop-color="#fffffe"/><stop offset="1" stop-color="#c8e7ff"/></linearGradient><clipPath id="AE"><rect width="1140" height="640" rx="16" class="B"/></clipPath><clipPath id="AF"><path transform="translate(1038.06 90.98)" d="M0 0h32.88v32.88H0z" class="B"/></clipPath><clipPath id="AG"><path transform="matrix(-1 0 0 -1 101.938 550.27)" d="M0 0h32.88v32.88H0z" class="B"/></clipPath><clipPath id="AH"><path transform="translate(665 141.5)" d="M0 0h356.25v356.25H0z" class="B"/></clipPath><path id="AI" d="M800.36 308.51h-81.88c-.16 0-.29-.13-.29-.3s.13-.3.29-.3h81.88c.16 0 .3.13.3.3s-.13.3-.3.3z"/><path id="AJ" d="M902.89 423c-2.46 0-4.45-1.99-4.45-4.45v-49.02c0-2.46 1.99-4.45 4.45-4.45s4.45 1.99 4.45 4.45v49.02c0 2.45-1.99 4.45-4.45 4.45z"/><path id="AK" d="M908.64 431.03h-11.49v7.93h11.49v-7.93z"/><path id="AL" d="M971.13 191.23c0 1.61-1.31 2.92-2.92 2.92s-2.92-1.31-2.92-2.92 1.31-2.92 2.92-2.92 2.92 1.31 2.92 2.92z"/><path id="AM" d="M917.9 218.06c1.64 0 2.97-1.33 2.97-2.97s-1.33-2.97-2.97-2.97-2.97 1.33-2.97 2.97 1.33 2.97 2.97 2.97z"/><path id="AN" d="M865.46 259.79h-6.68v31.27h6.68v-31.27z"/><path id="AO" d="M876.16 270.62h-6.68v20.44h6.68v-20.44z"/><path id="AP" d="M907 313.19c.62 0 1.13-.5 1.13-1.13s-.5-1.13-1.13-1.13-1.13.5-1.13 1.13.5 1.13 1.13 1.13z"/><path id="AQ" d="M791.16 380.37c0 .62-.5 1.13-1.13 1.13s-1.13-.5-1.13-1.13.5-1.13 1.13-1.13 1.13.5 1.13 1.13z"/><linearGradient id="AR" gradientUnits="userSpaceOnUse"/></defs></svg>