<svg xmlns="http://www.w3.org/2000/svg" width="1140" height="640" fill="none" xmlns:v="https://vecta.io/nano"><style><![CDATA[.B{fill:#fff}.C{fill:#0668e1}.D{fill:#f6ba28}.E{fill:#f2a305}.F{fill:#a8cff0}.G{fill:#c8d1dd}.H{fill:#a5b3bf}.I{color-interpolation-filters:sRGB}.J{flood-opacity:0}.K{fill:#223763}.L{fill:#8bbfff}.M{fill:#efb488}.N{stroke-linecap:round}.O{stroke-linejoin:round}]]></style><g clip-path="url(#N)"><rect width="1140" height="640" rx="16" class="B"/><g filter="url(#B)" class="C"><path d="M911.77 101.48a8.8 8.8 0 0 1 7.84-12.69h97.62c4.84 0 8.77 3.93 8.77 8.77v19.73c0 4.84-3.93 8.77-8.77 8.77h-87.74c-3.32 0-6.36-1.87-7.84-4.85l-9.87-19.73z"/></g><g class="B"><path d="M988.57 111.48c.04-.75.03-1.5.15-2.23.09-.56-.03-.96-.39-1.36a28.2 28.2 0 0 1-1.4-1.7c-.74-.95-.39-2.16.77-2.3a4.9 4.9 0 0 0 4.25-3.2c.5-1.14 1.7-1.08 2.37-.01.04.06.09.12.11.19a4.2 4.2 0 0 0 3.91 2.97c.32.03.68.21.93.43.53.45.57 1.22.12 1.82-.41.55-.82 1.13-1.31 1.59-.59.56-.68 1.2-.57 1.95l.16 1.8c.08 1.16-.82 1.88-1.85 1.47l-2.18-.92a1.7 1.7 0 0 0-1.04.01c-.74.26-1.45.63-2.18.92-1.03.39-1.89-.28-1.84-1.41zm-19.76.21c.05-.83.01-1.45.15-2.03.2-.87-.01-1.53-.62-2.13-.42-.41-.77-.9-1.13-1.37-.74-.97-.4-2.02.74-2.33l1.82-.45c.67-.11 1.13-.4 1.44-1.06.28-.6.66-1.16 1.01-1.73.63-.99 1.7-1 2.32-.02.41.64.74 1.34 1.19 1.95a2.4 2.4 0 0 0 .99.77c.63.24 1.3.33 1.96.49 1.33.33 1.68 1.38.82 2.47l-1.43 1.77c-.2.28-.31.69-.3 1.04.01.77.13 1.54.18 2.31.08 1.21-.88 2.03-1.88 1.44a4.8 4.8 0 0 0-5.32-.01c-.99.58-1.94-.17-1.92-1.1zm-19.73-.05l.19-2.54c0-.39-.16-.83-.38-1.15-.43-.63-.96-1.18-1.43-1.78-.74-.95-.38-2.02.76-2.33.2-.06.4-.15.61-.15 1.71-.06 2.73-1.06 3.38-2.6.09-.21.22-.42.36-.61.58-.82 1.6-.84 2.17.01.44.65.85 1.33 1.21 2.03a1.5 1.5 0 0 0 1.18.85l1.96.48c1.14.31 1.49 1.37.77 2.33l-.36.44c-1.59 1.92-1.59 1.92-1.31 4.43.02.19.05.39.04.58-.03 1.01-.88 1.64-1.79 1.29l-2.32-.98c-.28-.1-.64-.1-.92 0l-2.26.95c-1 .39-1.91-.3-1.87-1.24z"/></g><g filter="url(#C)" class="C"><path d="M1050.94 67.83a7.1 7.1 0 0 1 7.12 0l28.95 16.71a7.1 7.1 0 0 1 3.56 6.17v33.43a7.1 7.1 0 0 1-3.56 6.17l-28.95 16.71a7.1 7.1 0 0 1-7.12 0l-28.95-16.71c-2.2-1.27-3.56-3.62-3.56-6.17V90.71c0-2.55 1.36-4.9 3.56-6.17l28.95-16.71z"/></g><g clip-path="url(#O)" class="B"><path d="M1046.69 113.38l.01-7.75a2.7 2.7 0 0 1 .25-1.08l5.32-11.36c.26-.58.65-.86 1.29-.84.91.03 1.82-.08 2.67.32a3.8 3.8 0 0 1 2.36 3.63l.01 3.63v1.49c0 .73.02.75.72.75l6.05.01a4.2 4.2 0 0 1 1.45.25c1.81.67 2.77 2.44 2.47 4.34l-1.56 10.07-.44 2.63c-.33 1.7-1.88 3.01-3.61 3.01h-15.89c-.7 0-1.1-.44-1.1-1.19v-7.92zm-1.35 9.08c-1.11 0-2.33.07-3.53-.02-1.24-.09-2.13-1.17-2.14-2.47v-6.96-6.08c0-1.67 1-2.67 2.66-2.67h3.02l-.07 2.58v12.65l.06 2.98z"/></g><g filter="url(#D)" class="C"><path d="M228.22 527.88a8.8 8.8 0 0 0-7.84-12.69h-97.61c-4.84 0-8.77 3.93-8.77 8.77v19.73c0 4.84 3.93 8.77 8.77 8.77h87.74c3.32 0 6.36-1.88 7.84-4.85l9.87-19.73z"/></g><g stroke="#fff" stroke-width="1.1"><path d="M146.94 526.8c-.21 0-.53.15-.8.57l-.01.01-.04.05-.02.03a5 5 0 0 1-1.69 2.36c-.75.56-1.66.86-2.69.95h0c-.18.01-.43.13-.62.3h0c-.27.23-.34.66-.03 1.08l1.24 1.52h0a2.4 2.4 0 0 1 .7 1.17c.11.42.09.85.03 1.26-.08.57-.11 1.15-.16 1.76-.03.43.12.71.3.85.17.14.44.21.8.07h0l1.07-.47 1.14-.47h.01l.17-.05c.4-.1.85-.07 1.23.06h0l1.14.47 1.06.46c.36.14.63.07.8-.06s.32-.39.3-.81l-.15-2.18a2.2 2.2 0 0 1 .04-.98 2 2 0 0 1 .33-.65l.16-.19.7-.81.68-.85c.28-.36.31-.71.24-.95-.07-.22-.26-.42-.63-.46a5.7 5.7 0 0 1-2.84-1.06c-.79-.59-1.39-1.42-1.85-2.47h0c-.18-.41-.42-.51-.61-.5zm19.67 0c-.19 0-.46.11-.69.48h0l-.57.96-.64 1.02h0a2.9 2.9 0 0 1-1.24.95h0a9.2 9.2 0 0 1-1.04.3l-.97.21h0c-.55.14-.78.39-.85.59s-.04.55.32 1l1.28 1.56.17.24c.27.38.41.91.4 1.36l-.08 1.2-.06.57-.05.56c-.03.46.14.78.33.93.17.13.41.19.73 0 .97-.57 1.94-.88 2.94-.88a5.5 5.5 0 0 1 2.58.67l.37.2c.32.19.58.14.76.03.17-.11.3-.31.32-.55v-.1l-.04-1.1c-.01-.32-.03-.58-.09-.82h0c-.12-.51-.12-.99.02-1.45a2.8 2.8 0 0 1 .76-1.2h0c.38-.37.7-.82 1.08-1.31.29-.37.32-.7.25-.91s-.27-.44-.69-.55l-1.77-.44h0c-.39-.06-.76-.18-1.09-.42s-.58-.55-.76-.95h0c-.26-.56-.61-1.09-.98-1.66h0c-.24-.38-.51-.5-.7-.5zm19.72 0c-.19 0-.43.1-.62.38h0a18.9 18.9 0 0 0-1.17 1.97h0c-.17.34-.39.6-.67.79s-.58.29-.9.35l-1.92.47h0c-.43.12-.63.35-.7.56s-.05.54.23.91l.35.43c.76.92 1.25 1.5 1.46 2.18s.11 1.45-.02 2.65h0l-.04.49v.01c.01.35.16.6.34.73.17.13.42.18.7.07h0l1.13-.48 1.19-.5h0c.4-.15.9-.14 1.29 0h0l1.16.48 1.1.48c.64.25 1.14-.17 1.12-.7l-.19-2.58a2.8 2.8 0 0 1 .47-1.45h0l.18-.25.56-.69.71-.86h0c.28-.36.31-.68.24-.89s-.28-.45-.71-.57h0l-.32-.1c-.08-.03-.13-.03-.16-.03h0a3.9 3.9 0 0 1-2.41-.86c-.64-.53-1.11-1.25-1.45-2.07v-.01c-.06-.15-.16-.31-.29-.5-.2-.29-.45-.39-.65-.39z"/></g><g filter="url(#E)" class="C"><path d="M89.06 494.23a7.1 7.1 0 0 0-7.12 0l-28.95 16.71c-2.2 1.27-3.56 3.63-3.56 6.17v33.43a7.1 7.1 0 0 0 3.56 6.17l28.95 16.71a7.1 7.1 0 0 0 7.13 0l28.95-16.71a7.1 7.1 0 0 0 3.56-6.17v-33.43a7.1 7.1 0 0 0-3.56-6.17l-28.95-16.71z"/></g><g clip-path="url(#P)" class="B"><path d="M93.31 527.87l-.01 7.75a2.7 2.7 0 0 1-.25 1.08l-5.32 11.36c-.26.57-.65.86-1.29.84-.9-.03-1.82.08-2.67-.32a3.8 3.8 0 0 1-2.36-3.63l-.01-3.63v-1.49c0-.73-.02-.75-.73-.75-2.01 0-4.03.01-6.04-.01-.49-.01-1-.07-1.45-.25-1.81-.67-2.77-2.44-2.47-4.34l1.56-10.07.44-2.63c.34-1.7 1.88-3.01 3.61-3.01h15.89c.7 0 1.1.44 1.1 1.18v7.92zm1.35-9.08l3.53.02c1.24.09 2.13 1.17 2.14 2.47l.01 6.96v6.08c0 1.67-1.01 2.67-2.66 2.67h-3.02l.08-2.58v-12.65l-.06-2.98z"/></g><path d="M131.29 259.07c0-.34-.05-.64-.15-.91-.1-.28-.28-.54-.55-.78s-.66-.48-1.17-.72c-.5-.25-1.16-.51-1.98-.78l-2.77-1.08c-.89-.41-1.68-.88-2.38-1.42-.7-.55-1.25-1.19-1.66-1.92-.41-.74-.61-1.6-.61-2.58a5.1 5.1 0 0 1 .63-2.53c.42-.76 1-1.4 1.75-1.93a8.4 8.4 0 0 1 2.67-1.23c1.02-.29 2.13-.43 3.34-.43 1.6 0 3.01.28 4.23.84 1.23.55 2.19 1.33 2.88 2.35.7 1.01 1.05 2.2 1.05 3.58h-5.23c0-.55-.12-1.03-.34-1.45-.22-.42-.55-.75-1-.99s-1.01-.36-1.69-.36a4.1 4.1 0 0 0-1.66.3c-.45.2-.79.47-1.02.81-.23.33-.34.69-.34 1.09a1.6 1.6 0 0 0 .27.9c.19.26.45.5.8.73a8.1 8.1 0 0 0 1.26.66 21.4 21.4 0 0 0 1.68.61c1.16.37 2.19.78 3.09 1.24.91.45 1.67.96 2.29 1.54a5.7 5.7 0 0 1 1.42 1.95c.33.73.49 1.55.49 2.47 0 .98-.19 1.85-.57 2.61a5.4 5.4 0 0 1-1.63 1.93c-.71.52-1.56.92-2.55 1.18s-2.09.4-3.31.4c-1.12 0-2.22-.14-3.31-.42-1.08-.29-2.06-.73-2.94-1.32-.88-.6-1.58-1.36-2.11-2.29a6.8 6.8 0 0 1-.78-3.34h5.28a4.5 4.5 0 0 0 .25 1.62c.17.44.42.79.75 1.06.33.26.73.45 1.21.57a7.4 7.4 0 0 0 1.65.16c.67 0 1.21-.09 1.62-.28.41-.2.71-.46.9-.78.19-.33.28-.69.28-1.08zm12.71 3.9l4.2-14.31h5.43l-6.52 18.63a11.4 11.4 0 0 1-.56 1.32c-.23.48-.54.93-.94 1.36a4.5 4.5 0 0 1-1.54 1.05 5.8 5.8 0 0 1-2.31.4c-.49 0-.85-.02-1.08-.07l-1.02-.22v-3.61h.33.33c.54 0 .97-.06 1.29-.17.33-.11.58-.27.75-.48.18-.21.32-.46.42-.76l1.23-3.13zm-1.06-14.31l3.19 11.35.55 5.35h-3.39l-5.77-16.69h5.41zm20.5 11.66c0-.28-.09-.52-.28-.72-.18-.21-.5-.4-.96-.57a13.4 13.4 0 0 0-1.93-.54c-.79-.17-1.53-.39-2.23-.67a7.7 7.7 0 0 1-1.81-1.02 4.5 4.5 0 0 1-1.23-1.42 4 4 0 0 1-.44-1.89 4.5 4.5 0 0 1 .44-1.95c.3-.62.73-1.16 1.3-1.63.58-.48 1.28-.85 2.11-1.12.83-.28 1.77-.42 2.83-.42 1.46 0 2.72.22 3.78.67a5.5 5.5 0 0 1 2.44 1.86 4.5 4.5 0 0 1 .87 2.74h-5.05c0-.41-.07-.76-.21-1.05-.13-.29-.34-.51-.64-.66-.3-.16-.7-.24-1.2-.24-.35 0-.67.06-.96.19-.28.13-.5.31-.67.54s-.25.5-.25.81c0 .22.05.42.15.6.11.17.27.33.49.48.22.14.5.27.84.39.34.11.75.21 1.23.3a16.8 16.8 0 0 1 3.06.85c.95.37 1.72.9 2.31 1.57a4 4 0 0 1 .9 2.74c0 .72-.16 1.38-.5 1.99-.33.6-.8 1.13-1.42 1.59a7.1 7.1 0 0 1-2.23 1.05c-.87.25-1.85.38-2.94.38-1.55 0-2.86-.27-3.93-.82a6.3 6.3 0 0 1-2.43-2.1c-.54-.85-.81-1.71-.81-2.58h4.71c.02.5.14.91.36 1.23.23.32.53.55.91.7s.82.22 1.32.22c.46 0 .84-.06 1.14-.19.31-.13.54-.31.7-.52.16-.23.24-.5.24-.8zm15.78-11.66v3.51h-9.77v-3.51h9.77zm-7.72-4.03h5.05v14.96c0 .43.05.76.15 1 .1.23.27.39.51.5.25.09.58.13.99.13l.72-.01.54-.08v3.61a8.3 8.3 0 0 1-1.35.31c-.47.08-.97.12-1.5.12-1.08 0-2-.17-2.77-.51a3.6 3.6 0 0 1-1.74-1.6c-.4-.73-.6-1.68-.6-2.85v-15.59zm17.58 20.55c-1.32 0-2.5-.2-3.54-.61a7.7 7.7 0 0 1-2.64-1.72c-.71-.73-1.25-1.57-1.63-2.52a8.2 8.2 0 0 1-.55-3.01v-.57c0-1.19.16-2.29.49-3.3a7.7 7.7 0 0 1 1.47-2.67c.65-.76 1.46-1.35 2.44-1.77.98-.43 2.12-.65 3.42-.65 1.15 0 2.18.19 3.09.56a6.3 6.3 0 0 1 2.31 1.59c.64.69 1.12 1.52 1.45 2.5a10 10 0 0 1 .51 3.3v2.05h-13.25v-3.16h8.32v-.39c.01-.54-.08-1-.28-1.38-.19-.38-.47-.67-.84-.87a2.8 2.8 0 0 0-1.35-.3 2.4 2.4 0 0 0-1.36.36c-.35.24-.62.57-.82.99a5.2 5.2 0 0 0-.41 1.42c-.08.54-.12 1.11-.12 1.71v.57c0 .6.08 1.14.24 1.63a3.7 3.7 0 0 0 .72 1.26 3.4 3.4 0 0 0 1.14.8 3.9 3.9 0 0 0 1.53.28 5.6 5.6 0 0 0 2.04-.39c.67-.26 1.24-.69 1.72-1.29l2.29 2.73a5.9 5.9 0 0 1-1.41 1.36c-.6.44-1.32.8-2.16 1.08-.84.27-1.78.4-2.82.4zm13.97-13.08v12.78h-5.05v-16.22h4.74l.31 3.43zm-.61 4.12l-1.15.03a11.6 11.6 0 0 1 .41-3.15c.27-.96.67-1.79 1.2-2.5a5.5 5.5 0 0 1 1.95-1.65c.78-.39 1.68-.59 2.7-.59a5.4 5.4 0 0 1 1.93.33 3.7 3.7 0 0 1 1.5 1 4.4 4.4 0 0 1 .96 1.77c.23.72.34 1.58.34 2.59v10.82h-5.05v-10.18a3.9 3.9 0 0 0-.24-1.56c-.15-.35-.37-.59-.66-.71a2.8 2.8 0 0 0-1.06-.18c-.44 0-.83.1-1.18.3s-.65.48-.9.84c-.24.35-.42.76-.55 1.24a6.5 6.5 0 0 0-.18 1.57zm9.26 0l-1.41.03c0-1.14.13-2.19.38-3.15.26-.96.64-1.79 1.15-2.5.52-.71 1.16-1.26 1.93-1.65s1.66-.59 2.68-.59c.74 0 1.42.11 2.04.33s1.15.57 1.6 1.06.8 1.14 1.05 1.95c.25.8.38 1.79.38 2.97v10.21h-5.07v-10.21a3.7 3.7 0 0 0-.24-1.51c-.15-.35-.37-.59-.66-.7-.29-.13-.63-.19-1.03-.19-.48 0-.89.1-1.24.3s-.64.48-.88.84c-.23.35-.4.76-.51 1.24a7.1 7.1 0 0 0-.16 1.57zm18.03-7.55v16.22h-5.07v-16.22h5.07zm-5.37-4.18c0-.72.26-1.31.78-1.77s1.19-.69 2.02-.69 1.5.23 2.02.69.78 1.05.78 1.77-.26 1.31-.78 1.77-1.19.69-2.02.69-1.5-.23-2.02-.69-.78-1.05-.78-1.77zm15.33 16.8c.47 0 .87-.08 1.2-.25.34-.18.59-.43.76-.75.18-.33.26-.72.25-1.18h4.75a5.6 5.6 0 0 1-.9 3.21 6.1 6.1 0 0 1-2.46 2.13 7.9 7.9 0 0 1-3.49.75c-1.27 0-2.38-.2-3.33-.61-.95-.42-1.74-1-2.38-1.74-.63-.75-1.1-1.62-1.42-2.62-.31-1-.46-2.08-.46-3.25v-.34c0-1.17.16-2.25.46-3.25.32-1.01.79-1.88 1.42-2.62.64-.75 1.43-1.33 2.37-1.74.95-.42 2.05-.63 3.31-.63 1.35 0 2.54.25 3.57.76 1.04.51 1.85 1.25 2.44 2.22s.88 2.14.87 3.52h-4.75a3.3 3.3 0 0 0-.22-1.32c-.16-.39-.41-.7-.75-.93-.33-.24-.75-.36-1.27-.36a2.1 2.1 0 0 0-1.26.34c-.32.23-.56.55-.74.96-.16.4-.27.86-.33 1.38l-.07 1.66v.34l.07 1.69a5 5 0 0 0 .34 1.38 2.2 2.2 0 0 0 2.01 1.26zm22.27-18.22v21.82h-5.26v-21.82h5.26zm8.48 9.08v4.05h-9.98v-4.05h9.98zm.85-9.08v4.06h-10.84v-4.06h10.84zm7.28-1.2v23.02h-5.06v-23.02h5.06zm11.54 18.94v-6.68c0-.46-.06-.85-.19-1.18s-.33-.59-.61-.76c-.28-.19-.65-.28-1.12-.28-.38 0-.7.06-.98.19s-.47.32-.61.58-.21.59-.21.99h-5.05a4.5 4.5 0 0 1 .49-2.08c.34-.65.82-1.21 1.44-1.69.63-.48 1.38-.85 2.25-1.11.88-.27 1.86-.41 2.94-.41a8.7 8.7 0 0 1 3.45.65 5.4 5.4 0 0 1 2.41 1.93 5.5 5.5 0 0 1 .88 3.21v6.64c0 1.06.06 1.86.18 2.41.12.54.29 1.01.51 1.42v.25h-5.07c-.24-.5-.42-1.11-.54-1.83-.11-.73-.17-1.48-.17-2.25zm.61-5.83l.03 2.7h-2.23c-.47 0-.87.06-1.2.19-.32.13-.58.31-.78.54-.19.22-.33.47-.42.75-.08.28-.12.57-.12.88 0 .3.07.57.21.81.15.23.35.41.6.54s.53.19.84.19c.56 0 1.03-.11 1.42-.31.4-.22.7-.48.91-.79s.31-.6.31-.87l1.11 2.07c-.2.4-.43.8-.69 1.21-.25.41-.56.79-.94 1.14a4.5 4.5 0 0 1-1.36.84c-.54.21-1.19.31-1.96.31a6.2 6.2 0 0 1-2.76-.61 5.1 5.1 0 0 1-1.99-1.71c-.5-.74-.75-1.59-.75-2.55 0-.84.15-1.59.45-2.25a4.4 4.4 0 0 1 1.39-1.68c.62-.46 1.41-.81 2.37-1.05s2.09-.36 3.39-.36h2.17zm12.2 5.08l3-11.39h3.16l-1.12 5.71-2.97 10.51h-2.53l.46-4.83zm-1.18-11.39l1.86 11.3.21 4.92h-3.07l-3.84-16.22h4.84zm10.01 11.06l1.87-11.06h4.84l-3.81 16.22h-3.07l.16-5.16zm-2.31-11.06l3.03 11.36.46 4.86h-2.56l-2.91-10.48-1.08-5.74h3.06zm19.35 11.66c0-.28-.1-.52-.29-.72-.18-.21-.5-.4-.96-.57a13.4 13.4 0 0 0-1.93-.54c-.79-.17-1.53-.39-2.23-.67a7.7 7.7 0 0 1-1.81-1.02 4.5 4.5 0 0 1-1.23-1.42 4 4 0 0 1-.44-1.89 4.5 4.5 0 0 1 .44-1.95c.3-.62.73-1.16 1.3-1.63.58-.48 1.28-.85 2.11-1.12.83-.28 1.77-.42 2.83-.42 1.46 0 2.72.22 3.78.67a5.5 5.5 0 0 1 2.44 1.86 4.5 4.5 0 0 1 .87 2.74h-5.05a2.4 2.4 0 0 0-.21-1.05c-.13-.29-.34-.51-.64-.66-.3-.16-.7-.24-1.2-.24-.35 0-.67.06-.96.19-.28.13-.5.31-.68.54s-.25.5-.25.81c0 .22.05.42.15.6.11.17.27.33.49.48.22.14.5.27.84.39.34.11.75.21 1.23.3a16.8 16.8 0 0 1 3.06.85c.95.37 1.72.9 2.31 1.57.6.68.9 1.59.9 2.74 0 .72-.16 1.38-.5 1.99-.33.6-.8 1.13-1.42 1.59a7.1 7.1 0 0 1-2.23 1.05c-.87.25-1.85.38-2.94.38-1.55 0-2.86-.27-3.93-.82a6.3 6.3 0 0 1-2.43-2.1c-.54-.85-.81-1.71-.81-2.58h4.71c.02.5.14.91.36 1.23.23.32.53.55.91.7s.82.22 1.32.22c.46 0 .84-.06 1.14-.19.31-.13.54-.31.7-.52.16-.23.24-.5.24-.8zm24.79-17.26v21.82h-5.26v-21.82h5.26zm6.56 0v4.06h-18.24v-4.06h18.24zm6.94-1.2v23.02h-5.05v-23.02h5.05zm-.6 14.36l-1.18.03a11.2 11.2 0 0 1 .42-3.15c.28-.96.68-1.79 1.2-2.5s1.14-1.26 1.87-1.65 1.54-.59 2.43-.59a6.6 6.6 0 0 1 2.19.34 4.2 4.2 0 0 1 1.72 1.11 5 5 0 0 1 1.12 1.99c.27.82.41 1.82.41 3v10.07h-5.08v-10.1c0-.66-.1-1.17-.28-1.53-.18-.37-.44-.62-.78-.76-.34-.15-.75-.22-1.24-.22-.59 0-1.07.1-1.44.3s-.66.48-.85.84a3.7 3.7 0 0 0-.39 1.24c-.07.48-.11 1-.11 1.57zm21.4 4.59v-6.68c0-.46-.06-.85-.19-1.18s-.33-.59-.62-.76c-.28-.19-.65-.28-1.12-.28-.38 0-.7.06-.97.19s-.47.32-.61.58-.21.59-.21.99h-5.05c0-.75.16-1.44.49-2.08.34-.65.82-1.21 1.44-1.69.63-.48 1.38-.85 2.25-1.11.88-.27 1.86-.41 2.94-.41a8.7 8.7 0 0 1 3.45.65 5.4 5.4 0 0 1 2.41 1.93 5.5 5.5 0 0 1 .88 3.21v6.64c0 1.06.06 1.86.18 2.41.12.54.29 1.01.51 1.42v.25h-5.06a6.8 6.8 0 0 1-.54-1.83c-.11-.73-.17-1.48-.17-2.25zm.61-5.83l.03 2.7h-2.23c-.47 0-.87.06-1.2.19a2 2 0 0 0-.78.54c-.19.22-.33.47-.42.75a3.2 3.2 0 0 0-.12.88c0 .3.07.57.21.81.15.23.35.41.6.54s.53.19.84.19c.56 0 1.03-.11 1.42-.31.4-.22.7-.48.91-.79s.31-.6.31-.87l1.11 2.07a13.5 13.5 0 0 1-.69 1.21 5.3 5.3 0 0 1-.94 1.14 4.5 4.5 0 0 1-1.36.84c-.54.21-1.19.31-1.96.31a6.2 6.2 0 0 1-2.76-.61 5.1 5.1 0 0 1-1.99-1.71c-.5-.74-.75-1.59-.75-2.55 0-.84.15-1.59.45-2.25a4.4 4.4 0 0 1 1.39-1.68c.62-.46 1.41-.81 2.37-1.05s2.09-.36 3.39-.36h2.17zm15.81-6.31v3.51h-9.77v-3.51h9.77zm-7.72-4.03h5.05v14.96c0 .43.05.76.15 1 .1.23.27.39.51.5.25.09.58.13.99.13l.72-.01.54-.08v3.61a8.3 8.3 0 0 1-1.35.31c-.47.08-.97.12-1.5.12-1.08 0-2-.17-2.77-.51a3.6 3.6 0 0 1-1.74-1.6c-.4-.73-.6-1.68-.6-2.85v-15.59zm29.45-1.57h5.26v14.25c0 1.7-.35 3.14-1.06 4.32-.71 1.17-1.7 2.05-2.98 2.65s-2.78.9-4.51.9c-1.71 0-3.21-.3-4.51-.9-1.29-.6-2.3-1.48-3.03-2.65-.72-1.18-1.08-2.62-1.08-4.32v-14.25h5.28v14.25c0 .9.13 1.63.39 2.2.26.56.64.97 1.14 1.23s1.1.39 1.81.39c.72 0 1.32-.13 1.81-.39s.86-.67 1.11-1.23c.25-.57.37-1.3.37-2.2v-14.25zm13.29 9.07v12.75h-5.05v-16.22h4.74l.31 3.46zm-.6 4.09l-1.18.03c0-1.24.15-2.34.45-3.31.3-.98.72-1.81 1.27-2.49a5.4 5.4 0 0 1 1.96-1.54c.77-.36 1.62-.54 2.56-.54a6.1 6.1 0 0 1 2.05.33 3.9 3.9 0 0 1 1.62 1.06 4.8 4.8 0 0 1 1.05 1.95c.25.8.38 1.79.38 2.97v10.21h-5.08v-10.22c0-.65-.09-1.14-.27-1.48-.18-.35-.44-.59-.78-.72s-.75-.19-1.24-.19c-.52 0-.96.1-1.32.3s-.65.48-.87.84c-.21.35-.36.76-.46 1.24-.09.48-.14 1-.14 1.57zm22.29 4.95v-19.3h5.08v23.02h-4.56l-.52-3.72zm-9.95-4.2v-.31c0-1.23.13-2.35.4-3.36.27-1.02.67-1.89 1.2-2.62a5.4 5.4 0 0 1 1.98-1.71c.79-.4 1.7-.6 2.73-.6.92 0 1.72.22 2.41.65.69.42 1.28 1.01 1.77 1.77s.89 1.65 1.2 2.67c.31 1.01.55 2.1.7 3.27v.37a19.6 19.6 0 0 1-.7 3.12c-.31.97-.71 1.83-1.2 2.58s-1.08 1.34-1.78 1.77c-.69.42-1.5.63-2.43.63-1.03 0-1.94-.2-2.73-.61a5.6 5.6 0 0 1-1.96-1.72c-.52-.74-.91-1.61-1.18-2.61s-.4-2.09-.4-3.27zm5.05-.31v.31c0 .61.04 1.17.12 1.69s.21.98.4 1.38c.2.39.46.69.78.91.33.22.73.33 1.21.33.65 0 1.18-.15 1.6-.46.43-.31.75-.75.95-1.32.21-.57.3-1.24.27-2.01v-1.18c.02-.66-.02-1.24-.13-1.74-.11-.51-.28-.93-.52-1.27-.23-.34-.52-.59-.88-.76-.35-.18-.77-.27-1.24-.27-.47 0-.87.11-1.2.33a2.4 2.4 0 0 0-.78.93c-.2.39-.34.85-.44 1.39a10.4 10.4 0 0 0-.13 1.74zm20.7 8.53c-1.32 0-2.5-.2-3.54-.61a7.7 7.7 0 0 1-2.64-1.72c-.71-.73-1.25-1.57-1.63-2.52-.37-.95-.55-1.95-.55-3.01v-.57c0-1.19.17-2.29.5-3.3a7.7 7.7 0 0 1 1.47-2.67c.65-.76 1.46-1.35 2.44-1.77.98-.43 2.12-.65 3.42-.65 1.15 0 2.18.19 3.09.56s1.68.9 2.31 1.59c.64.69 1.12 1.52 1.45 2.5.34.98.51 2.08.51 3.3v2.05h-13.25v-3.16h8.32v-.39a2.8 2.8 0 0 0-.28-1.38c-.19-.38-.47-.67-.84-.87a2.8 2.8 0 0 0-1.35-.3c-.55 0-1 .12-1.36.36-.35.24-.62.57-.82.99a5.2 5.2 0 0 0-.4 1.42c-.08.54-.12 1.11-.12 1.71v.57c0 .6.08 1.14.24 1.63a3.7 3.7 0 0 0 .72 1.26 3.4 3.4 0 0 0 1.14.8 3.9 3.9 0 0 0 1.53.28 5.6 5.6 0 0 0 2.04-.39c.67-.26 1.24-.69 1.72-1.29l2.29 2.73c-.33.47-.8.93-1.41 1.36-.6.44-1.32.8-2.16 1.08-.84.27-1.78.4-2.82.4zm13.97-12.5v12.2h-5.05v-16.22h4.72l.33 4.02zm4.8-4.14l-.09 4.69-.81-.08-.85-.04c-.59 0-1.1.07-1.53.21-.42.13-.77.33-1.05.6-.27.26-.47.59-.6.99-.12.4-.18.86-.16 1.39l-.91-.6c0-1.09.11-2.08.31-2.97.22-.9.53-1.67.93-2.32a4.4 4.4 0 0 1 1.45-1.51c.57-.36 1.21-.54 1.92-.54a5.9 5.9 0 0 1 .73.04c.25.03.47.08.66.14zm6.83 3.55v12.78h-5.05v-16.22h4.74l.31 3.43zm-.61 4.12l-1.15.03a11.6 11.6 0 0 1 .41-3.15c.27-.96.67-1.79 1.2-2.5a5.5 5.5 0 0 1 1.95-1.65c.78-.39 1.68-.59 2.7-.59a5.4 5.4 0 0 1 1.93.33 3.7 3.7 0 0 1 1.5 1 4.4 4.4 0 0 1 .96 1.77c.23.72.34 1.58.34 2.59v10.82h-5.05v-10.18a3.9 3.9 0 0 0-.24-1.56c-.15-.35-.37-.59-.66-.71a2.8 2.8 0 0 0-1.06-.18c-.44 0-.83.1-1.18.3s-.65.48-.9.84c-.24.35-.42.76-.55 1.24a6.5 6.5 0 0 0-.18 1.57zm9.26 0l-1.41.03a12.5 12.5 0 0 1 .37-3.15 7.7 7.7 0 0 1 1.15-2.5 5.4 5.4 0 0 1 1.93-1.65c.77-.39 1.66-.59 2.68-.59.74 0 1.42.11 2.04.33s1.15.57 1.6 1.06.8 1.14 1.05 1.95c.25.8.38 1.79.38 2.97v10.21h-5.07v-10.21c0-.67-.08-1.17-.24-1.51-.15-.35-.37-.59-.66-.7-.29-.13-.63-.19-1.03-.19-.48 0-.89.1-1.24.3s-.64.48-.88.84c-.23.35-.4.76-.51 1.24s-.16 1-.16 1.57zm18.03-7.55v16.22h-5.06v-16.22h5.06zm-5.37-4.18c0-.72.26-1.31.78-1.77s1.19-.69 2.02-.69 1.5.23 2.02.69.78 1.05.78 1.77-.26 1.31-.78 1.77-1.19.69-2.02.69-1.5-.23-2.02-.69-.78-1.05-.78-1.77zm13.44 7.64v12.75h-5.05v-16.22h4.74l.31 3.46zm-.6 4.09l-1.18.03a11.2 11.2 0 0 1 .45-3.31c.3-.98.73-1.81 1.27-2.49a5.4 5.4 0 0 1 1.96-1.54c.77-.36 1.62-.54 2.56-.54a6.1 6.1 0 0 1 2.05.33 3.9 3.9 0 0 1 1.62 1.06 4.8 4.8 0 0 1 1.05 1.95 10.1 10.1 0 0 1 .37 2.97v10.21h-5.08v-10.22c0-.65-.09-1.14-.27-1.48-.18-.35-.44-.59-.78-.72s-.75-.19-1.24-.19c-.52 0-.96.1-1.32.3s-.65.48-.87.84c-.21.35-.37.76-.46 1.24-.09.48-.13 1-.13 1.57zm20.82 8.96c-1.32 0-2.5-.2-3.54-.61a7.7 7.7 0 0 1-2.64-1.72c-.71-.73-1.25-1.57-1.63-2.52a8.2 8.2 0 0 1-.55-3.01v-.57c0-1.19.16-2.29.5-3.3a7.7 7.7 0 0 1 1.47-2.67c.65-.76 1.46-1.35 2.44-1.77.98-.43 2.12-.65 3.42-.65 1.15 0 2.18.19 3.09.56s1.68.9 2.31 1.59c.64.69 1.12 1.52 1.45 2.5a10 10 0 0 1 .51 3.3v2.05h-13.25v-3.16h8.32v-.39a2.8 2.8 0 0 0-.28-1.38c-.19-.38-.47-.67-.84-.87a2.8 2.8 0 0 0-1.35-.3c-.55 0-1 .12-1.36.36-.35.24-.62.57-.82.99a5.2 5.2 0 0 0-.4 1.42c-.08.54-.12 1.11-.12 1.71v.57c0 .6.08 1.14.24 1.63a3.7 3.7 0 0 0 .72 1.26 3.4 3.4 0 0 0 1.14.8 3.9 3.9 0 0 0 1.53.28 5.6 5.6 0 0 0 2.04-.39 4.1 4.1 0 0 0 1.72-1.29l2.29 2.73a5.9 5.9 0 0 1-1.41 1.36c-.6.44-1.32.8-2.16 1.08-.84.27-1.78.4-2.82.4zm-403.37 73.31l-1.64 9.39h-26.27l1.64-9.39h26.27zm-14.82-41.26l-8.8 50.65h-11.9l8.77-50.65h11.93zm15.1 20.11l-1.56 9.08h-22.89l1.6-9.08h22.86zm6.96-20.11l-1.63 9.43h-26.37l1.67-9.43h26.34zm11.97 21.6l-5.04 29.05h-11.45l6.54-37.64h10.68l-.73 8.59zm-2.85 8.94l-2.47.1a32.1 32.1 0 0 1 1.43-6.68 22.1 22.1 0 0 1 3.06-5.98 14.4 14.4 0 0 1 4.84-4.24c1.93-1.04 4.18-1.53 6.75-1.46 1.9.05 3.48.45 4.73 1.22 1.25.74 2.23 1.74 2.92 2.99.72 1.23 1.18 2.63 1.39 4.21.23 1.55.27 3.17.1 4.84l-4.17 25.12h-11.45l3.93-23.66a13.8 13.8 0 0 0 .07-2.75 3.4 3.4 0 0 0-.83-2.09c-.49-.56-1.31-.85-2.47-.87-1.25-.05-2.33.22-3.24.8a7.5 7.5 0 0 0-2.3 2.23c-.6.93-1.1 1.94-1.5 3.03-.37 1.09-.64 2.16-.8 3.2zm20.84 0l-3.03.1a32.9 32.9 0 0 1 1.39-6.64c.72-2.2 1.71-4.2 2.96-5.98 1.28-1.79 2.86-3.2 4.77-4.24a13.3 13.3 0 0 1 6.75-1.5c2.09.07 3.8.52 5.15 1.36s2.37 1.95 3.06 3.34c.72 1.39 1.18 2.95 1.39 4.66a24 24 0 0 1 .03 5.32l-3.97 23.69h-11.48l3.97-23.73c.12-.95.14-1.84.07-2.68a3.4 3.4 0 0 0-.84-2.09c-.46-.56-1.26-.85-2.4-.87-1.3-.05-2.41.21-3.34.77-.9.56-1.66 1.3-2.26 2.23a11.7 11.7 0 0 0-1.43 3.03c-.35 1.09-.62 2.17-.8 3.24zm41.71-9.67l-7.69 44.25h-11.45l9.05-52.12h10.61l-.52 7.86zm20.53 10.3l-.1.73c-.25 2.27-.78 4.57-1.56 6.89a24.4 24.4 0 0 1-3.17 6.37 15.4 15.4 0 0 1-4.94 4.63c-1.97 1.14-4.29 1.67-6.96 1.6-2.34-.07-4.26-.72-5.74-1.95-1.48-1.25-2.64-2.83-3.48-4.73-.81-1.93-1.38-3.95-1.7-6.09-.3-2.16-.43-4.16-.38-6.02l.1-1.01a38.6 38.6 0 0 1 1.74-6.47 28 28 0 0 1 3.2-6.33c1.32-1.97 2.91-3.56 4.77-4.77 1.85-1.23 4.01-1.81 6.47-1.74 2.57.07 4.69.68 6.33 1.84a10.9 10.9 0 0 1 3.76 4.49 18.8 18.8 0 0 1 1.63 6.05c.23 2.2.24 4.37.03 6.51zm-11.52.7l.07-.73.17-2.89c.05-1.09-.02-2.16-.21-3.2-.16-1.04-.54-1.91-1.15-2.61-.58-.72-1.47-1.1-2.68-1.15-1.41-.07-2.6.15-3.55.66a6.4 6.4 0 0 0-2.33 2.12 11.5 11.5 0 0 0-1.36 3.06 21 21 0 0 0-.7 3.44l-.31 2.85c-.16 1.32-.2 2.67-.1 4.04.09 1.34.49 2.48 1.18 3.41.72.93 1.93 1.41 3.62 1.46 1.34.02 2.46-.3 3.34-.97.91-.67 1.62-1.55 2.16-2.64.56-1.09.97-2.24 1.25-3.44l.59-3.41zm34.51-34.65l-9.25 53.44H255.7l9.25-53.44h11.48zm-.49 35.21l.07-.73a26.5 26.5 0 0 1 1.98-7.62 21.1 21.1 0 0 1 4.07-6.23c1.72-1.79 3.73-3.17 6.05-4.14a18.4 18.4 0 0 1 7.79-1.39c2.76.05 5.15.58 7.17 1.6s3.68 2.41 4.97 4.17c1.3 1.74 2.22 3.76 2.75 6.05a22.1 22.1 0 0 1 .49 7.27l-.07.77c-.3 2.69-.97 5.21-2.02 7.55a21 21 0 0 1-4.14 6.16 17.8 17.8 0 0 1-6.02 4.11c-2.32.97-4.91 1.43-7.76 1.36-2.71-.05-5.09-.57-7.13-1.57-2.02-1.02-3.68-2.39-4.97-4.11-1.3-1.74-2.23-3.73-2.78-5.98-.53-2.27-.68-4.7-.45-7.27zm11.51-.73l-.07.73-.14 3.13a13.6 13.6 0 0 0 .38 3.24c.25 1.02.72 1.87 1.39 2.54.7.65 1.69 1 2.99 1.04 1.39.05 2.55-.24 3.48-.87.95-.63 1.72-1.46 2.3-2.5a13.8 13.8 0 0 0 1.32-3.37c.32-1.21.54-2.37.66-3.48l.07-.73.1-3.1a12.8 12.8 0 0 0-.35-3.31 5.2 5.2 0 0 0-1.43-2.57c-.7-.69-1.69-1.07-2.99-1.11-1.39-.05-2.56.25-3.51.91-.93.65-1.68 1.51-2.26 2.57a13.7 13.7 0 0 0-1.32 3.41 25 25 0 0 0-.63 3.48zm36.95 13.99l14.96-32.67H352l-22.06 43.28c-.67 1.44-1.44 2.75-2.3 3.93a15 15 0 0 1-2.85 3.06c-1.07.86-2.27 1.52-3.62 1.98s-2.86.7-4.56.7a13.4 13.4 0 0 1-2.57-.24l-2.5-.52.87-8.42c.23.02.46.03.7.03a6.7 6.7 0 0 0 .66.04c.97 0 1.84-.11 2.61-.31.79-.19 1.48-.52 2.09-1.01.63-.49 1.17-1.16 1.64-2.02l4.31-7.83zm3.17-32.67l2.71 26.93-.87 11.83h-7.44l-6.26-38.76h11.86zm38.76 38.34a18.9 18.9 0 0 1-7.1-1.43c-2.13-.93-3.94-2.2-5.43-3.83a15.6 15.6 0 0 1-3.31-5.71c-.7-2.2-.95-4.6-.76-7.2l.14-1.36c.28-2.74.93-5.29 1.95-7.65 1.02-2.39 2.39-4.48 4.1-6.26a18.1 18.1 0 0 1 6.05-4.21 18.7 18.7 0 0 1 7.86-1.39c2.62.05 4.88.57 6.78 1.56 1.92 1 3.49 2.35 4.7 4.07 1.21 1.69 2.04 3.64 2.5 5.84.49 2.18.6 4.5.35 6.96l-.66 4.77H353.6l1.18-7.34 18.44.04.21-1.01a6.9 6.9 0 0 0-.14-2.96c-.25-.88-.73-1.58-1.43-2.09-.7-.53-1.63-.82-2.82-.87-1.44-.02-2.63.29-3.58.94a7.4 7.4 0 0 0-2.26 2.57 15.2 15.2 0 0 0-1.29 3.48 30.5 30.5 0 0 0-.66 3.55l-.14 1.32c-.09 1.14-.06 2.24.1 3.31s.49 2.03.97 2.89a6.1 6.1 0 0 0 2.05 2.09c.86.51 1.94.79 3.23.83a10.8 10.8 0 0 0 4.87-.97c1.51-.7 2.86-1.65 4.07-2.85l4.77 6.33c-1.04 1.58-2.39 2.85-4.04 3.83a19.3 19.3 0 0 1-5.32 2.09 21.7 21.7 0 0 1-5.5.66zm35.42-28.39l-4.8 27.69H385.5l6.54-37.64h10.65l-.94 9.95zm12.31-10.26l-1.5 10.92-1.81-.24-1.84-.14c-1.27-.02-2.44.13-3.48.45-1.02.3-1.91.78-2.68 1.43-.74.63-1.36 1.41-1.84 2.37s-.85 2.05-1.08 3.31l-1.91-1.39a46.9 46.9 0 0 1 1.11-5.6 26 26 0 0 1 2.23-5.64c.95-1.76 2.18-3.19 3.69-4.28 1.51-1.11 3.36-1.67 5.57-1.67a11.3 11.3 0 0 1 1.77.14l1.77.35zm-286.81 70.3l18.75.03c3.09.05 5.93.6 8.52 1.67s4.64 2.7 6.12 4.9c1.48 2.18 2.11 4.98 1.88 8.38-.21 2.81-.84 5.17-1.88 7.1a15.2 15.2 0 0 1-4.25 4.87 30.7 30.7 0 0 1-6.3 3.58l-4.31 2.23h-16.84l1.6-9.43 11.45.07c1.53-.02 2.89-.32 4.07-.91 1.21-.58 2.19-1.4 2.96-2.47s1.25-2.37 1.46-3.9a7.9 7.9 0 0 0-.14-3.34c-.28-1-.81-1.79-1.6-2.37a5.7 5.7 0 0 0-3.13-.97l-8.07-.03-7.17 41.23h-11.9l8.77-50.65zm18.4 50.65l-6.99-22.41 12.07-.07 7.62 21.88v.59h-12.7zm36.01.7a18.9 18.9 0 0 1-7.1-1.43 15.8 15.8 0 0 1-5.43-3.83 15.6 15.6 0 0 1-3.3-5.71 19.2 19.2 0 0 1-.77-7.2l.14-1.36c.28-2.74.93-5.29 1.95-7.65 1.02-2.39 2.39-4.48 4.11-6.26a18.1 18.1 0 0 1 6.05-4.21c2.34-1 4.96-1.46 7.86-1.39 2.62.05 4.88.57 6.78 1.56 1.93 1 3.49 2.35 4.7 4.07 1.21 1.69 2.04 3.64 2.5 5.84.49 2.18.6 4.5.35 6.96l-.66 4.77h-29.92l1.18-7.34 18.44.04.21-1.01a6.9 6.9 0 0 0-.14-2.96c-.25-.88-.73-1.58-1.43-2.09-.7-.53-1.64-.82-2.82-.87-1.44-.02-2.63.29-3.58.94a7.4 7.4 0 0 0-2.26 2.57c-.56 1.07-.99 2.23-1.29 3.48a30.3 30.3 0 0 0-.66 3.55l-.14 1.32a14.2 14.2 0 0 0 .1 3.31c.16 1.07.49 2.03.97 2.89a6.1 6.1 0 0 0 2.05 2.09c.86.51 1.94.79 3.24.83a10.8 10.8 0 0 0 4.87-.97c1.51-.7 2.86-1.65 4.07-2.85l4.77 6.33c-1.04 1.58-2.39 2.85-4.03 3.83a19.3 19.3 0 0 1-5.32 2.09 21.7 21.7 0 0 1-5.5.66zm33.4-9.19l11.66-29.15h12.35l-17.85 37.64h-7.27l1.11-8.49zm.28-29.15l2.51 30.16-1.25 7.48h-6.99l-6.05-37.64h11.79zm39.21 0l-6.51 37.64h-11.48l6.54-37.64h11.45zm-10.44-9.5c-.05-1.81.56-3.25 1.81-4.31 1.28-1.07 2.77-1.61 4.49-1.63 1.65-.02 3.11.46 4.38 1.46 1.28.97 1.93 2.33 1.95 4.07.05 1.81-.57 3.25-1.84 4.31a6.8 6.8 0 0 1-4.45 1.63c-1.65.02-3.11-.45-4.38-1.43-1.25-1-1.9-2.37-1.95-4.11zm29.47 47.84a18.9 18.9 0 0 1-7.1-1.43c-2.13-.93-3.94-2.2-5.43-3.83s-2.59-3.53-3.31-5.71a19.2 19.2 0 0 1-.77-7.2l.14-1.36a25.8 25.8 0 0 1 1.95-7.65c1.02-2.39 2.39-4.48 4.1-6.26a18.1 18.1 0 0 1 6.05-4.21c2.34-1 4.96-1.46 7.86-1.39 2.62.05 4.88.57 6.78 1.56 1.92 1 3.49 2.35 4.7 4.07 1.21 1.69 2.04 3.64 2.5 5.84.49 2.18.6 4.5.35 6.96l-.66 4.77h-29.92l1.18-7.34 18.44.04.21-1.01a6.9 6.9 0 0 0-.14-2.96c-.25-.88-.73-1.58-1.43-2.09-.7-.53-1.63-.82-2.82-.87-1.44-.02-2.63.29-3.58.94a7.4 7.4 0 0 0-2.26 2.57c-.56 1.07-.99 2.23-1.29 3.48a30.3 30.3 0 0 0-.66 3.55l-.14 1.32c-.09 1.14-.06 2.24.1 3.31s.49 2.03.97 2.89a6.1 6.1 0 0 0 2.05 2.09c.86.51 1.94.79 3.23.83a10.8 10.8 0 0 0 4.87-.97c1.51-.7 2.86-1.65 4.07-2.85l4.77 6.33c-1.04 1.58-2.39 2.85-4.04 3.83a19.3 19.3 0 0 1-5.32 2.09 21.7 21.7 0 0 1-5.5.66zm32.22-12.45l11.1-25.88h7.44l-5.01 13.74-10.68 23.9h-5.98l3.13-11.76zm1.81-25.88l-.38 26.82-1.43 10.82h-6.82l-2.12-37.64h10.75zm18.19 25.12l8.49-25.12h11.2l-15.1 37.64h-7.17l2.57-12.52zm-.9-25.12l2.3 27-.87 10.65h-5.64l-2.37-24.81-.14-12.84h6.71zm39.17 26.86c.19-.97-.1-1.72-.87-2.23-.74-.53-1.63-.93-2.68-1.18l-2.47-.66a32.1 32.1 0 0 1-4.21-1.43 17.5 17.5 0 0 1-3.79-2.23c-1.11-.9-2.01-1.98-2.68-3.24-.65-1.27-.94-2.76-.87-4.45.07-2.09.59-3.9 1.57-5.43 1-1.53 2.28-2.8 3.86-3.79 1.58-1.02 3.29-1.77 5.15-2.26a20.2 20.2 0 0 1 5.6-.66c2.55.02 4.95.48 7.2 1.36a12.7 12.7 0 0 1 5.53 4.04c1.44 1.81 2.17 4.11 2.19 6.89l-11.38-.03a6.2 6.2 0 0 0-.35-2.37c-.23-.67-.64-1.18-1.22-1.53-.58-.37-1.37-.56-2.37-.56a5.6 5.6 0 0 0-2.19.45c-.72.3-1.34.73-1.88 1.29-.51.56-.84 1.23-.97 2.02-.14.67-.05 1.24.28 1.7a3.6 3.6 0 0 0 1.32 1.08 11.4 11.4 0 0 0 1.74.7l1.67.38a37.2 37.2 0 0 1 6.12 2.05c2 .83 3.62 2.03 4.87 3.58 1.27 1.53 1.88 3.57 1.81 6.12-.07 2.16-.65 4-1.74 5.53a12.7 12.7 0 0 1-4.21 3.69 20 20 0 0 1-5.5 2.02 24.3 24.3 0 0 1-5.67.63c-2.55-.05-4.96-.56-7.24-1.53a13.9 13.9 0 0 1-5.57-4.31 11.9 11.9 0 0 1-2.23-6.99l10.58.03c.02 1.09.22 2.01.59 2.75a4.1 4.1 0 0 0 1.71 1.67 6.1 6.1 0 0 0 2.75.56 8.1 8.1 0 0 0 2.37-.35c.79-.25 1.46-.65 2.02-1.18.58-.56.96-1.26 1.15-2.12z" fill="#5b5b5b"/><g filter="url(#F)"><path d="M323.37 71.07a11.9 11.9 0 0 0-11.87-11.87H1.1v88.79h310.39a11.9 11.9 0 0 0 11.88-11.87V71.07z" fill="#3886e7"/><path d="M48.03 107.34h-6.3v-4.71h6.3c.86 0 1.55-.14 2.09-.44s.92-.69 1.17-1.2c.26-.52.38-1.11.38-1.76 0-.7-.13-1.34-.38-1.93a3.1 3.1 0 0 0-1.17-1.43c-.53-.37-1.23-.56-2.09-.56h-4v20.61h-6.11V90.61h10.11c2.03 0 3.77.37 5.24 1.11 1.47.74 2.6 1.76 3.39 3.06a8.3 8.3 0 0 1 1.18 4.42 7.7 7.7 0 0 1-1.18 4.28c-.79 1.22-1.92 2.17-3.39 2.85-1.46.67-3.21 1.01-5.24 1.01zm22.39 3.86v-7.76c0-.53-.08-.99-.23-1.37a1.8 1.8 0 0 0-.71-.89c-.32-.22-.76-.33-1.3-.33-.44 0-.82.08-1.13.23s-.55.38-.71.68a2.4 2.4 0 0 0-.24 1.15h-5.86a5.2 5.2 0 0 1 .57-2.42 6 6 0 0 1 1.67-1.97c.73-.56 1.6-.99 2.61-1.29a11.6 11.6 0 0 1 3.41-.47c1.5 0 2.83.25 4 .75 1.18.5 2.12 1.25 2.8 2.24.68.99 1.03 2.23 1.03 3.72v7.71c0 1.23.07 2.16.21 2.8.14.63.34 1.18.59 1.65v.3h-5.88c-.28-.58-.49-1.29-.63-2.12a17.5 17.5 0 0 1-.19-2.61zm.71-6.77l.03 3.13h-2.59a3.8 3.8 0 0 0-1.39.23c-.37.15-.67.36-.9.63-.22.25-.38.55-.49.87a3.7 3.7 0 0 0-.14 1.03c0 .35.08.66.24.94a1.8 1.8 0 0 0 .7.63c.29.15.61.23.97.23.65 0 1.2-.12 1.65-.37.46-.26.82-.56 1.06-.92s.37-.69.37-1.01l1.29 2.4c-.23.46-.5.93-.8 1.41-.29.48-.66.92-1.1 1.32-.43.39-.96.72-1.58.97a6.3 6.3 0 0 1-2.28.36 7.2 7.2 0 0 1-3.2-.71 5.9 5.9 0 0 1-2.31-1.98c-.58-.86-.87-1.84-.87-2.96 0-.97.17-1.84.52-2.61a5.1 5.1 0 0 1 1.62-1.95 7.7 7.7 0 0 1 2.75-1.22c1.11-.28 2.42-.42 3.93-.42h2.52zm14.35-2.66v14.16h-5.86V97.12h5.48l.38 4.66zm5.57-4.8l-.1 5.45-.94-.09-.99-.05c-.68 0-1.28.08-1.77.24a3 3 0 0 0-1.22.7c-.31.3-.55.68-.7 1.15a5.3 5.3 0 0 0-.19 1.62l-1.06-.7a15 15 0 0 1 .37-3.44c.26-1.04.61-1.94 1.08-2.7.46-.77 1.03-1.35 1.69-1.76a4.1 4.1 0 0 1 2.23-.63c.29 0 .57.02.85.05.29.03.55.09.77.16zm12.8.14v4.07H92.51v-4.07h11.34zm-8.96-4.68h5.86v17.36c0 .5.06.89.17 1.17.12.27.31.46.59.57.29.1.67.16 1.15.16l.83-.02.63-.09v4.19c-.5.16-1.02.28-1.56.36-.55.09-1.12.14-1.74.14-1.25 0-2.32-.2-3.22-.59a4.2 4.2 0 0 1-2.02-1.86c-.46-.85-.7-1.95-.7-3.3V92.44zm31.61 10.32v4.54h-10.45v-4.54h10.45zm31.42 3.29v4.52h-18.23l-.35-3.58 10.18-16.37h4.63l-5.03 8.23-4.17 7.2h12.98zm-2.56-15.43v25.33h-5.86V90.61h5.86z" class="B"/></g><g clip-path="url(#Q)"><ellipse cx="843.12" cy="425.61" rx="178.13" ry="72.14" fill="url(#G)"/><path d="M733.17 367.38l.31 40.38c-1.08 3.19-1.59 6.55-1.51 9.91l.78 30.15a1.4 1.4 0 0 0 .9 1.27c1.86.69 6.22 2.6 9.31-.99a1.8 1.8 0 0 0 .41-1.12c.18-4.45 1.38-31.48 4.67-46.12 3.58-16 5.31-27.33 1.99-34.93l-16.87 1.47.01-.02z" fill="#142e70"/><path d="M734.29 453.77l1.06.63c1.43.85 3.22.79 4.59-.16l.47-.33a3.7 3.7 0 0 0 1.58-3.19l7.92-2.11s4.04-1.18 5.3.51-2.11 8.2-11.03 9.47c0 0-1.51.21-4.12 3.21-1.76 2.03-6.65 1.27-6.91-1.61-.16-1.86-.12-4.29-.06-5.77.02-.61.68-.96 1.2-.65z" fill="#050a1a"/><path d="M731.4 448.03c0-.32.39-.47.61-.23.67.77 2.04 1.74 4.61 1.65 3.27-.11 5.53-1.07 6.58-2.11.22-.22.6-.04.6.27v4.83c0 .15-.02.31-.07.45-.31.89-1.76 3.95-7.17 3.42 0 0-3.22.3-5.03-1.99a1.4 1.4 0 0 1-.26-.9l.15-5.4v.01z" fill="#11275e"/><path d="M745.4 377.26l.31 40.38c-1.08 3.19-1.59 6.55-1.51 9.91l.77 30.15a1.4 1.4 0 0 0 .9 1.27c1.86.69 6.22 2.6 9.31-.99a1.8 1.8 0 0 0 .41-1.12c.18-4.45 1.38-31.48 4.66-46.12 3.58-16 5.31-27.33 1.99-34.93l-16.87 1.47.01-.02z" fill="#1b3d96"/><path d="M746.59 463.17l1.12.66c1.51.9 3.39.83 4.82-.17l.5-.34a3.9 3.9 0 0 0 1.66-3.35l8.32-2.22s4.25-1.25 5.58.53-2.21 8.62-11.61 9.95c0 0-1.58.22-4.34 3.38-1.86 2.13-6.99 1.33-7.26-1.69-.17-1.95-.12-4.51-.06-6.07.02-.64.71-1.01 1.26-.68v-.01z" fill="#050a1a"/><path d="M744.3 456.83c0-.32.39-.47.61-.24.67.77 2.04 1.74 4.61 1.65 3.27-.11 5.53-1.07 6.58-2.11.22-.22.59-.04.59.27v4.83c0 .15-.02.31-.07.45-.31.88-1.76 3.95-7.17 3.42 0 0-3.22.3-5.03-2a1.4 1.4 0 0 1-.27-.9l.15-5.4v.01z" fill="#19398c"/><path d="M763.73 372.51s-1.51-18.45-.48-22.14a20 20 0 0 0 .38-9.17l-1.58-8.97c-2.13-7.73-8.35-10.88-8.35-10.88-5.06-2.52-10.85-7.74-16.82-5.31-10.03 4.09-6.5 19.46-2.83 26.74 1.88 3.73 2.32 8.03 1.01 12-1.34 4.09-2.83 8.16-3.54 12.41-.53 3.1-.41 6.14-.2 9.2.17 2.51 1.68 4.73 3.96 5.75l16.73 6.91c.96.39 2.02.57 3.13.54a4.6 4.6 0 0 0 4.25-3c.62-1.62 1.18-3.64 1.47-5.98l1.05-.23a14 14 0 0 1 1.55 4.05c.36-.89.57-1.85.6-2.83l.04-2c.05-2.37-.06-4.75-.35-7.1l-.01.02z" fill="#659de4"/><path d="M752.39 321.97c-2.22.19-6.52.05-8.46-3.53l-.25-13.3c-.05-2.7 1.3-5.36 3.51-6.9 1.63-1.13 3.74-1.42 5.67-1.49 1.53-.06 4.29-.4 5.42.9.56.64 1.19 3.14 1.19 4v13.46c0 1.03-.99 1.78-1.98 1.49 0 0-3.69-.47-3.73 1.49v2.37c0 .79-.6 1.44-1.37 1.51z" class="M"/><g fill="#0d1d48"><path d="M756.37 299.43s2.92 7.55-4.17 9.6c0 0-3.27 6.93-7.44 6.22 0 0-7.44-6.67-5.4-12 0 0-1.51-10.49 12.14-11.2 0 0 3.19-1.95 5.5-.18 2.31 1.78 2.66 5.78-.62 7.55l-.01.01z"/><path d="M755.29 311.49l-.67-.32a1.4 1.4 0 0 1-.79-1.26v-3.05h1.46v4.63z"/></g><path d="M758.94 303.86l1.42 3.86c.2.55-.08 1.16-.64 1.35l-.92.32.13-5.54h.01z" class="M"/><path d="M763.25 350.38a20 20 0 0 0 .38-9.17l-1.58-8.97a17.8 17.8 0 0 0-2.33-5.14c-1.56 1.06-3.05 2.22-4.42 3.51 1.59 2.03 2.61 4.78 2.71 8.79.38 15.87 1.94 43.07-5.43 49.88a8.4 8.4 0 0 0 2.45.35c1.95-.01 3.69-1.25 4.39-3.08a25.3 25.3 0 0 0 1.43-5.91l1.04-.23c.51.84 1.12 2.18 1.55 4.06.36-.88.57-1.85.59-2.83l.04-2c.05-2.37-.06-4.75-.35-7.1 0 0-1.51-18.45-.48-22.14z" fill="#478ce4"/><path d="M774.55 345.85l25.1-14.62c.14-.07.28-.14.41-.19l6.9-2.72c.53-.21 1.13.09 1.29.64.14.48-.11.98-.57 1.16l-3.79 1.52c-.39.16-.59.59-.48 1 .38 1.31.92 4.08-.76 5.29l-3.18 2.04c-.85.5-1.8.81-2.77.92l-2.28.26c-1.38.16-2.69.76-3.71 1.71l-10.91 10.46-5.25-7.47h.02z" class="M"/><path d="M754.96 322.2s7.17 1.07 10.22 5.87c2.7 4.25 10.1 17.19 10.1 17.19l1.26-.53s4.05 4.74 3.99 8.41l-6.58 3.47s-2.66 2.26-7.44-5.33-11.16-18.79-11.16-18.79-5.44-7.34-.39-10.26v-.01z" fill="#659de4"/><path d="M775.59 344.15s4.34 4.71 5.05 9.6l4.52-3.2s-.35-6.93-5.31-8.98l-4.25 2.58z" fill="#e0e0e0"/><g fill="#10255c"><path d="M754.39 299.88c-.01-.25-.21-.44-.46-.44-1.39 0-6.16.3-13.2 4.09-.91.49.39 4.39 2.52 6.13s6.5-4.8 6.5-4.8 4.82-.44 4.61-4.98h.02zm-13.23-.65c.23-.78 2.1-5.86 10.2-6.16 0 0 2.9-2.11 5.5-.36.3.2.24.65-.08.78-.93.34-2.6.88-3.91.84a3.4 3.4 0 0 0-2.06.6c-2.16 1.48-6.95 4.54-9.55 4.43-.05 0-.09-.05-.07-.11l-.01-.01z"/></g><path d="M766.27 406.51v8.81l123.11-71.35a22.6 22.6 0 0 1 20.55 0l55.17 32.18v-8.79c9.95 5.66 9.95 15.11 0 20.77L841.44 459.8a22.6 22.6 0 0 1-20.55 0l-54.61-31.86-.62-.36c-.72-.42-1.34-.87-1.87-1.35-7.38-5.9-6.55-14.44 2.49-19.74v.01z" fill="#25468f"/><g fill="#275acc"><path d="M938.05 400.36l15.21-8.77c.57-.33 1.03-1.28 1.03-2.12s-.46-1.26-1.03-.93l-15.21 8.77c-.57.33-1.03 1.28-1.03 2.13s.46 1.26 1.03.93z"/><use href="#S"/><path d="M765.73 406.83l123.65-71.66c5.7-3.3 14.9-3.3 20.55 0l55.23 32.21c5.66 3.3 5.63 8.65-.07 11.95l-123.65 71.66c-5.69 3.3-14.89 3.3-20.55 0l-55.22-32.21c-5.66-3.3-5.63-8.65.07-11.95h0z"/></g><path d="M769.77 409.18l123.65-71.66c3.45-2 9.01-2 12.44 0l9.67 5.64c1.12.66 1.28 1.68.38 2.44l-2.19 1.85c-.84.71-.7 1.67.35 2.28l26.01 15.17c1.05.61 2.7.7 3.93.21l3.19-1.27a5.2 5.2 0 0 1 4.21.23l9.67 5.64c3.43 2 3.41 5.23-.04 7.23L837.4 448.63a13.7 13.7 0 0 1-12.44 0l-55.22-32.21c-3.43-2-3.4-5.24.04-7.23h0z" fill="url(#H)"/><g fill="#25468f"><path d="M922.96 350.14c.47-.27 1.23-.27 1.69 0l11.43 6.67c.47.27.46.71 0 .98s-1.23.27-1.69 0l-11.43-6.67c-.47-.27-.46-.72 0-.99m-4.07-2.37c.46-.27 1.22-.27 1.69 0l1.31.76c.46.27.46.71 0 .98s-1.22.27-1.69 0l-1.31-.76c-.47-.27-.46-.71 0-.98zm18.68 10.89a3.3 3.3 0 0 1 2.98 0c.82.48.82 1.25-.01 1.73a3.3 3.3 0 0 1-2.97 0c-.82-.48-.82-1.25 0-1.73z"/></g><g fill="#adc7ff"><path d="M938.42 400.86l15.21-8.78c.57-.33 1.03-1.28 1.03-2.12s-.46-1.26-1.03-.93l-15.21 8.77c-.57.33-1.03 1.28-1.03 2.12s.46 1.26 1.03.93zm-19.2 11.07l15.21-8.78c.57-.33 1.03-1.28 1.03-2.12s-.46-1.26-1.03-.93l-15.21 8.78c-.57.33-1.03 1.28-1.03 2.12s.46 1.26 1.03.93z"/></g><path d="M797.5 443.8l-10.72-6.18c-.6-.34-1.08-1.34-1.08-2.22s.48-1.32 1.08-.97l10.72 6.18c.6.34 1.08 1.34 1.08 2.22s-.48 1.32-1.08.97z" fill="#182747"/><path d="M786.33 434.33c-.15.19-.24.48-.24.85 0 .88.48 1.88 1.08 2.22l10.72 6.18c.17.09.32.12.46.11-.2.25-.5.32-.84.12l-10.72-6.18c-.6-.34-1.08-1.34-1.08-2.22 0-.64.25-1.04.62-1.08h0z" fill="#275acc"/><path d="M812.7 437.99c.25 0 .49-.13.62-.36.2-.34.08-.78-.26-.99l-24.3-13.92c-.34-.2-.78-.08-.98.26s-.08.78.26.99l24.3 13.92c.11.07.24.1.36.1z" fill="#adc7ff"/><g fill="#182747"><use href="#T"/><path d="M779.63 432.03c0-.56-.4-1.24-.88-1.51s-.88-.04-.88.51.4 1.23.88 1.51.88.05.88-.51zm-2.33-1.35c0-.56-.4-1.24-.88-1.51s-.88-.04-.88.51.4 1.23.88 1.51.88.05.88-.51zm-2.33-1.35c0-.56-.4-1.24-.88-1.51s-.88-.04-.88.51.4 1.23.88 1.51.88.05.88-.51zm-2.32-1.35c0-.56-.4-1.24-.88-1.51s-.88-.04-.88.51.4 1.23.88 1.51.88.05.88-.51z"/><use href="#U"/><path d="M816.7 453.47c0-.56-.4-1.24-.88-1.51s-.88-.04-.88.51.4 1.23.88 1.51.88.05.88-.51zm-2.32-1.36c0-.56-.4-1.24-.88-1.51s-.88-.04-.88.51.4 1.23.88 1.51.88.05.88-.51zm-2.34-1.35c0-.56-.4-1.24-.88-1.51s-.88-.04-.88.51.4 1.23.88 1.51.88.05.88-.51zm-2.32-1.35c0-.56-.4-1.24-.88-1.51s-.88-.04-.88.51.4 1.23.88 1.51.88.05.88-.51zm-2.33-1.34c0-.56-.4-1.24-.88-1.51s-.88-.04-.88.51.4 1.23.88 1.51.88.05.88-.51zm-2.33-1.35c0-.56-.4-1.24-.88-1.51s-.88-.04-.88.51.4 1.23.88 1.51.88.05.88-.51z"/></g><g opacity=".2"><g style="mix-blend-mode:overlay" class="K"><path d="M948.79 372.08c3.31 1.92 3.31 5.06 0 6.99s-8.74 1.92-12.05 0-3.32-5.06 0-6.99 8.74-1.92 12.05 0z"/></g><path style="mix-blend-mode:multiply" d="M923.43 360.47h38.67v16.7h-38.67v-16.7z" fill="url(#I)"/><mask id="A" maskUnits="userSpaceOnUse" x="923" y="349" width="40" height="23"><path d="M956.45 352.54c7.53 4.36 7.53 11.5 0 15.87s-19.85 4.36-27.38 0-7.53-11.5 0-15.87 19.85-4.36 27.38 0z" class="B"/></mask><g mask="url(#A)"><path d="M956.45 352.54c7.53 4.36 7.53 11.5 0 15.87s-19.85 4.36-27.38 0-7.53-11.5 0-15.87 19.85-4.36 27.38 0z" fill="#6b9aff"/><path d="M936.24 355.31s11.23-4.23 16.31-1.27c5.07 2.95-2.24 9.47-2.24 9.47a19.1 19.1 0 0 1-7.09-1.51l1.86-1.07a6.6 6.6 0 0 0 3.08-.79l1.21-.7c.52-.3.68-.73.5-1.14-.23-.53-.25-1.29.54-2.27 0 0-2.72.59-5.46-.19-.64-.18-1.41-.14-1.92.16l-1.11.64c-.83.48-1.25 1.11-1.28 1.74l-1.8 1.05c-1.51-1.23-2.53-2.65-2.57-4.13" fill="#ffd000"/><path d="M933.59 359.14l.96.44c1.27.59 3.11.52 4.26-.15l1.8-1.05c.02-.63.45-1.25 1.27-1.73l1.11-.64a2.6 2.6 0 0 1 1.92-.16c2.74.78 5.46.19 5.46.19-.78.98-.76 1.74-.54 2.26.18.41.02.84-.5 1.14l-1.21.7c-.84.49-1.95.76-3.08.79l-1.85 1.08c-1.16.67-1.27 1.74-.27 2.48l.75.56c-1.36.11-4.55.14-7.46-1.56s-2.85-3.55-2.65-4.34" fill="#fc7979"/><path d="M915.59 362.08l8.07-3.86a10.7 10.7 0 0 1 7.65-.33l2.41.85s-.08.15-.14.39c-.2.79-.26 2.65 2.65 4.34s6.1 1.67 7.46 1.55l.67-.08 1.45 1.41c1.45 1.4 1.21 3.19-.59 4.45l-6.66 4.68-22.99-13.41" class="B"/></g></g><g opacity=".2"><g style="mix-blend-mode:multiply" opacity=".19" class="K"><path d="M905.25 360.21c1.08-.62 1.08-1.64 0-2.27l-27.41-15.89c-1.08-.62-2.83-.62-3.91 0l-18.69 10.81 5.55.74 25.97 15.05c1.08.62 2.83.62 3.91 0l14.58-8.45z"/></g><path d="M905.25 354.75c1.08-.62 1.08-1.64 0-2.26l-27.41-15.89c-1.08-.62-2.83-.62-3.91 0l-18.69 10.81 5.55.74 25.97 15.05c1.08.62 2.83.62 3.91 0l14.58-8.45z" fill="url(#J)"/><g stroke="#fff" stroke-width=".75" class="N O"><path d="M895.65 351.88l-20.88-12.1m17.57 14.03l-20.88-12.1m17.56 14.02l-20.88-12.1m6.63 7.67l-9.93-5.75"/></g></g><g style="mix-blend-mode:multiply" opacity=".19" class="K"><path d="M869.14 426.49c1.82-1.19 1.82-3.14 0-4.34l-46.48-30.45a6.6 6.6 0 0 0-6.63 0l-31.69 20.72 9.42 1.42 44.04 28.85a6.6 6.6 0 0 0 6.63 0l24.72-16.19z"/></g><path d="M870.48 420a2.2 2.2 0 0 0 0-4.12l-46.48-28.91a6.9 6.9 0 0 0-6.63 0l-31.69 19.67 9.42 1.35 44.04 27.39a6.9 6.9 0 0 0 6.63 0L870.48 420z" fill="url(#K)"/><path d="M821.01 396.63l1.2.7-3.74 2.44c-.43.28-.9.47-1.39.55s-.97.08-1.46-.02-.94-.27-1.38-.52-.75-.53-.94-.82-.23-.59-.12-.9.38-.6.82-.88l3.74-2.44 1.2.7-3.74 2.44c-.25.17-.42.32-.5.48s-.08.3 0 .44a1.2 1.2 0 0 0 .45.4 2 2 0 0 0 .67.25c.23.04.47.03.71-.03s.49-.17.75-.33l3.74-2.44zm.9 3.42l-3.31 2.16-1.16-.67 4.21-2.74 1.08.63-.83.63zm-1.23.59l-.31-.18c.31-.2.63-.36.96-.47a4.1 4.1 0 0 1 .99-.22c.33-.03.64-.01.94.04.3.06.59.16.84.31.2.12.36.24.47.38s.17.28.16.43-.07.31-.21.49a2.8 2.8 0 0 1-.65.55l-2.68 1.75-1.16-.68 2.68-1.75c.19-.12.31-.23.36-.33s.04-.19-.02-.28-.16-.17-.31-.26c-.16-.09-.32-.15-.5-.18s-.35-.03-.53 0c-.18.03-.35.07-.53.14a2.9 2.9 0 0 0-.51.26zm6.8 5.26l5.85-2.12 1.34.78-7.69 2.51-.88-.51 1.38-.65zm3.21-3.65l-3.1 3.71-.97.89-.89-.52 3.64-4.86 1.33.77zm.55 7.38c-.34-.2-.59-.4-.75-.63s-.24-.45-.24-.68.08-.45.22-.67.36-.42.64-.6l.15-.1c.32-.21.66-.37 1.01-.49s.72-.19 1.09-.22a3.9 3.9 0 0 1 1.09.08c.36.08.7.21 1.01.39.31.18.53.37.67.57s.2.41.18.62-.11.43-.28.64-.41.42-.72.62l-.47.3-3.45-2 .75-.49 2.32 1.34.09-.06c.15-.1.26-.21.33-.32s.08-.23.04-.34-.15-.22-.33-.33c-.15-.09-.32-.14-.49-.16s-.36-.02-.54.02-.37.1-.56.18a4 4 0 0 0-.56.31l-.15.1c-.17.11-.3.23-.39.35s-.14.24-.16.36.02.24.1.35.2.22.37.32c.21.12.44.21.7.26.26.05.54.06.83.04l-.03.71a3.8 3.8 0 0 1-.74.02c-.27-.01-.56-.06-.85-.14a3.6 3.6 0 0 1-.86-.36zm6.96-.11l-3.29 2.14-1.16-.67 4.2-2.74 1.09.63-.85.64zm2.25.14l-1.06.66-.19-.13-.2-.13c-.16-.09-.33-.16-.49-.21-.16-.04-.31-.06-.47-.06a1.7 1.7 0 0 0-.46.08c-.15.05-.3.12-.45.21l-.16-.18a5 5 0 0 1 .83-.44c.29-.12.57-.2.85-.25s.55-.06.8-.03.48.11.68.22c.06.04.13.08.18.12s.1.08.13.12zm1.74 1.04l-4.2 2.74-1.16-.67 4.21-2.74 1.16.67zm-.14-1.43c.16-.11.36-.16.58-.16s.43.06.63.17.3.24.31.38-.06.26-.22.37-.36.16-.58.16-.43-.06-.63-.17-.3-.24-.31-.38.06-.26.23-.37zm-1.67 5.56l-1.16-.67 4.39-2.87c.36-.23.73-.39 1.13-.46s.8-.07 1.21.01.82.24 1.22.47c.23.13.43.27.6.43a6.2 6.2 0 0 1 .5.49l-1.07.49-.35-.36c-.13-.12-.31-.25-.55-.39-.27-.15-.53-.23-.79-.23s-.5.07-.73.23l-4.39 2.87zm5.07-2.24l-.79.52-2.67-1.55.79-.52 2.67 1.55zm1.74 1.01l-4.2 2.74-1.16-.67 4.2-2.74 1.16.67zm-1.32 4.51c-.34-.2-.59-.41-.75-.63s-.24-.45-.24-.68a1.2 1.2 0 0 1 .22-.67c.15-.22.37-.42.64-.6l.15-.1c.32-.21.66-.37 1.01-.49s.72-.19 1.09-.22a3.9 3.9 0 0 1 1.09.08c.36.08.7.21 1.01.39.31.18.53.37.67.57s.2.41.18.62-.11.43-.28.64-.41.42-.71.62l-.47.3-3.45-2 .75-.49 2.32 1.34.09-.06c.16-.1.26-.21.33-.32.07-.11.08-.23.04-.34s-.15-.22-.33-.33c-.15-.09-.32-.14-.49-.16a1.7 1.7 0 0 0-.54.02c-.18.04-.37.1-.57.18a4 4 0 0 0-.56.31l-.16.1c-.17.11-.3.22-.39.35s-.14.24-.16.36.02.24.1.35.2.22.37.32c.21.12.44.21.7.26s.54.06.83.04l-.03.71c-.22.03-.46.04-.74.02s-.55-.06-.85-.14a3.6 3.6 0 0 1-.86-.36zm6 2.25l5.05-3.29 1.16.67-5.97 3.89-1.05-.61.8-.66zm-1.61-2.33l.08-.05c.32-.21.65-.38.99-.5a4.2 4.2 0 0 1 1.01-.25c.33-.04.66-.03.97.02s.61.16.88.32c.25.15.42.31.51.49s.1.37.05.57c-.05.2-.17.41-.34.63a4.6 4.6 0 0 1-.66.65l-.18.12a7.8 7.8 0 0 1-1 .43 5.1 5.1 0 0 1-.99.24c-.32.04-.63.04-.92 0s-.57-.14-.83-.29c-.27-.16-.46-.33-.56-.52s-.13-.39-.08-.6.17-.42.35-.63.43-.42.74-.62zm1.24.62l-.08.05a3.4 3.4 0 0 0-.45.34c-.12.12-.21.23-.26.34-.05.11-.05.22-.01.32s.14.2.3.29c.2.12.4.18.62.2s.43 0 .65-.07a2.6 2.6 0 0 0 .65-.27l.51-.33c.15-.11.28-.22.37-.33.1-.11.15-.21.17-.32s0-.2-.06-.3-.16-.19-.3-.27a1.2 1.2 0 0 0-.49-.16c-.17-.02-.35-.01-.53.02s-.36.1-.55.18-.36.18-.54.3zm-36.77-14.3l2.18 1.26a3 3 0 0 1 .96.8c.19.27.25.54.17.81s-.31.52-.68.76c-.3.2-.62.34-.94.42-.32.08-.65.11-.99.09a4.8 4.8 0 0 1-1.01-.17l-.58-.09-1.89-1.1.9-.6 1.41.82c.21.12.42.2.63.23s.42.03.62-.02.39-.12.56-.23c.18-.12.3-.24.37-.37s.06-.25-.01-.38-.22-.25-.43-.38l-.98-.57-4.75 3.09-1.2-.7 5.66-3.69zm-2.39 5.58l1.19-2.42 1.28.73-1.13 2.39-.06.04-1.29-.75zm3.85 2.32c-.34-.19-.59-.4-.75-.63s-.24-.45-.24-.68a1.2 1.2 0 0 1 .22-.67c.15-.22.37-.42.64-.6l.16-.1a4.3 4.3 0 0 1 1.02-.49 4.4 4.4 0 0 1 1.09-.22c.37-.02.73 0 1.09.08s.69.21 1.01.39c.31.18.53.37.67.57s.2.41.18.62-.11.43-.28.64a3 3 0 0 1-.71.62l-.47.3-3.45-2 .75-.49 2.32 1.34.08-.06c.16-.1.26-.21.33-.32.07-.11.08-.23.04-.34s-.15-.22-.33-.33c-.15-.09-.32-.14-.49-.17s-.36-.01-.54.02-.37.1-.56.18-.37.19-.56.31l-.16.1c-.17.11-.3.22-.39.35s-.14.24-.16.36.02.24.1.35.2.22.37.32c.21.12.44.21.7.26.26.05.54.07.83.04l-.03.71c-.22.03-.46.04-.74.02s-.56-.06-.85-.14a3.6 3.6 0 0 1-.86-.36zm4.75 1.65l4.35-1.65 1.21.7-5.67 1.89-.73-.42.84-.52zm2.73-2.59l-2.42 2.77-.79.54-.73-.43 2.74-3.59 1.21.7zm4.57 2.65l-4.2 2.74-1.16-.67 4.21-2.74 1.16.67zm-.14-1.43c.16-.11.36-.16.58-.16s.43.06.63.17.3.24.31.38-.06.26-.22.37-.36.16-.58.16-.43-.05-.63-.17-.3-.24-.31-.38.06-.26.23-.37zm-1.19 5.93a2.4 2.4 0 0 1-.75-.63c-.16-.22-.24-.45-.24-.68a1.2 1.2 0 0 1 .22-.67c.15-.22.36-.42.64-.6l.16-.1c.32-.21.66-.37 1.01-.49s.72-.19 1.09-.22a3.9 3.9 0 0 1 1.09.08c.36.08.69.21 1.01.39.31.18.53.37.67.57s.2.41.18.62a1.2 1.2 0 0 1-.28.64 3 3 0 0 1-.72.62l-.47.3-3.45-2 .75-.49 2.32 1.34.09-.06c.15-.1.26-.21.33-.32s.08-.23.04-.34-.15-.22-.33-.33c-.15-.09-.32-.14-.49-.17s-.36-.01-.54.02-.37.1-.56.18-.37.18-.56.31l-.15.1c-.17.11-.3.23-.39.35s-.14.24-.16.36.02.24.1.35.2.22.37.32a2.3 2.3 0 0 0 .7.26c.26.05.54.07.83.04l-.03.71a3.8 3.8 0 0 1-.74.02c-.27-.01-.55-.06-.85-.14s-.58-.2-.86-.36zm4.85 1.37l4.02-1.51.73.43-1.46.66-3.88 1.42-.61-.36 1.2-.64zm2.66-2.3l-2.47 2.4-1.03.75-.72-.42 3.1-3.38 1.12.65zm-.14 3.69l3.69-1.63 1.12.65-5.3 2.1-.72-.42 1.21-.7zm2.34-2.42l-2.2 2.54-.99.8-.62-.36 2.07-2.46 1-.93.73.42zm2.36 5.12c.08-.05.13-.11.14-.18s-.01-.16-.09-.27c-.07-.11-.21-.25-.4-.43a3.7 3.7 0 0 1-.44-.47c-.12-.16-.19-.31-.23-.45s-.02-.28.04-.42.18-.26.36-.38.38-.2.61-.26.49-.08.75-.07a3.4 3.4 0 0 1 .83.13c.29.08.56.2.83.36.38.22.64.44.8.68s.21.46.14.68c-.05.22-.21.41-.47.58l-1.16-.67c.11-.07.18-.15.22-.23.04-.08.04-.17-.01-.26-.04-.09-.14-.18-.3-.27-.13-.07-.26-.12-.4-.15s-.26-.03-.39-.01c-.12.02-.22.06-.31.11-.06.04-.11.09-.13.14s-.02.11 0 .17.07.14.13.22c.07.08.17.18.29.28a3.7 3.7 0 0 1 .59.65c.15.21.21.41.18.6s-.17.38-.45.56c-.19.12-.4.21-.64.26s-.5.07-.78.05-.56-.07-.85-.16a4.1 4.1 0 0 1-.84-.37c-.4-.23-.68-.48-.82-.73s-.17-.49-.1-.71.23-.41.46-.56l1.1.63c-.15.1-.23.21-.25.31s.01.21.09.3.19.19.33.27c.15.09.29.15.43.18s.27.04.39.02.23-.05.32-.11z" class="B"/><g opacity=".4"><g style="mix-blend-mode:multiply" opacity=".19" class="K"><path d="M902.19 370.39a4.1 4.1 0 0 1 3.73 0l33.46 19.39c1.02.6 1.02 1.56 0 2.16l-17.49 10.14v-2.84c0-.56-.29-1.09-.78-1.37l-31.3-18.14c-1.02-.59-1.02-1.56 0-2.16l12.39-7.18h0z"/></g><path d="M902.19 364.86a4.1 4.1 0 0 1 3.73 0l33.46 19.39c1.02.59 1.02 1.56 0 2.16l-17.49 10.14v-2.84c0-.57-.29-1.09-.78-1.37l-31.3-18.14c-1.02-.6-1.02-1.56 0-2.16l12.39-7.18h0z" fill="url(#L)"/><g stroke="#fff" stroke-width=".75" class="N O"><path d="M932.36 384.47l-24.64-14.29m22 15.83l-24.64-14.29m21.99 15.82l-19.03-11.04m16.39 12.59l-9.67-5.61"/></g></g><g clip-path="url(#R)"><path opacity=".4" d="M810.95 162.39c1.67-1.04 3.97-1.16 6.56-.07l.52.24 130.71 61.92c2.82 1.34 5.39 3.81 7.25 6.75s3.01 6.29 3.01 9.38v197.82l-150.98-71.54V168.78c0-3.09 1.14-5.29 2.92-6.39z" fill="#d1ebff" stroke="#0668e1" stroke-width=".59"/><path d="M961.88 437.78V240.06c0-6.33-5.52-14.49-11.28-17.22l-130.82-61.23c-2.28-1.08-4.39-1.28-6.1-.74-.22.07-1.76.72-1.98.81 1.78-.7 4.03-.57 6.5.59l130.71 61.93c5.76 2.73 10.43 10.08 10.43 16.4V438.9l2.55-1.12z" class="C"/><g class="B"><path opacity=".6" d="M857.57 227.27l-43.75-20.95v157.94L857.57 385V227.27z"/><path opacity=".2" d="M863.43 212.87v174.91l90.28 42.78V256.1l-90.28-43.23z"/></g><g class="G"><use href="#V"/><path d="M948.07 411.64l-3.33 1.59h0l-.01-.01h0c.2-.22-.04-.78-.45-.98l-3.95-1.89c-.24-.11-.43-.35-.5-.58l-1.22-4.17c-.07-.25-.37-.6-.66-.64-.08-.01-.16 0-.22.02l3.39-1.62c.01 0 .02-.01.03-.01.06-.03.13-.04.22-.02.29.04.59.39.66.64l1.22 4.17c.07.23.26.47.5.59l3.95 1.89c.46.22.7.89.37 1.03h0 0z"/><use href="#W"/></g><use href="#X" class="H"/><g class="G"><path d="M928.16 405.31l1.1 3.77c.05.16.04.37-.13.45l-3.38 1.62c.11-.07.16-.22.1-.44l-1.22-4.17c-.05-.17-.03-.38.13-.45.02-.01.04-.02.06-.03l3.19-.69c.03-.01.07-.02.1-.04.02 0 .03-.01.05-.02z"/><use href="#Y"/><path d="M918.78 396.78l2.02.97-.99 2.44c-.06.16-.25.23-.5.11l-3.95-1.89c-.13-.06-.25-.07-.33-.05l3.38-1.61c.11-.05.25-.03.37.03z"/></g><path d="M921.03 397.19c.02-.06.07-.11.13-.14.06-.02.13-.03.22-.02.29.04.58.4.66.64l1.22 4.17c.07.23.26.47.5.59l3.95 1.89c.41.2.65.76.45.98-.01.01-.03.03-.05.04-.03.01-.06.03-.1.04l-3.2.69c-.02 0-.04.01-.06.02-.16.07-.18.28-.13.45l1.22 4.17c.06.22.01.37-.1.43-.01.01-.02.01-.03.01-.17.08-.45 0-.69-.28l-3.19-3.74c-.03-.04-.08-.08-.12-.12-.12-.1-.34-.21-.5-.17l-3.19.69c-.41.09-.97-.56-.81-.95l1.22-3.01c.08-.2-.04-.47-.19-.65l-3.19-3.74c-.28-.33-.27-.69-.06-.8l.04-.02c.09-.03.2-.01.33.05l3.95 1.89c.25.12.44.05.5-.11l.99-2.44.23-.56z" class="H"/><g class="G"><path d="M911.59 397.38l1.1 3.77c.05.16.05.37-.13.45l-3.39 1.62c.11-.07.16-.22.1-.44l-1.22-4.17c-.05-.19-.03-.43.19-.47l3.2-.69c.02 0 .04-.01.06-.02.02 0 .03-.01.05-.03.02 0 .03-.01.05-.02z"/><path d="M904.59 389.12l3.39-1.62c.01 0 .02-.01.03-.01.06-.03.13-.04.22-.02.29.04.58.39.66.64l1.22 4.17c.06.23.26.48.5.59l3.94 1.89c.47.22.71.89.37 1.04l-3.32 1.58-.01-.01c.2-.22-.04-.78-.46-.98l-3.94-1.89c-.24-.11-.44-.36-.5-.58l-1.22-4.17c-.08-.25-.37-.6-.66-.64-.08-.01-.16 0-.22.03v-.01zm-6.17 1.33l3.4-1.63c.11-.05.25-.03.37.03l2.02.97-.99 2.44c-.06.15-.25.23-.5.11l-3.95-1.88c-.15-.07-.27-.08-.36-.04z"/></g><path d="M898.48 391.25c-.29-.33-.27-.69-.06-.8.11-.04.23-.04.37.03l3.95 1.88c.25.13.44.05.5-.11l.99-2.44.23-.56c.02-.07.07-.12.13-.14.06-.03.13-.04.22-.03.29.04.58.4.66.64l1.22 4.17c.06.23.26.47.5.58l3.94 1.89c.42.2.66.76.46.98-.01.01-.02.02-.03.03-.03.02-.04.02-.06.03s-.04.02-.06.02l-3.2.69c-.22.05-.25.28-.19.47l1.22 4.17c.06.22.01.37-.1.44-.01 0-.02.01-.03.01-.17.08-.45 0-.68-.28l-3.19-3.74c-.04-.04-.08-.08-.12-.12-.12-.11-.34-.21-.5-.18l-3.2.69c-.41.09-.97-.56-.81-.95l1.22-3c.08-.2-.04-.48-.19-.66l-3.19-3.74z" class="H"/><g class="D"><path d="M895.01 389.46l1.1 3.77c.05.16.04.37-.13.45l-3.39 1.62c.11-.07.16-.22.1-.43l-1.22-4.17c-.05-.19-.03-.43.19-.47l3.19-.69c.04-.01.07-.02.1-.04.02 0 .04-.01.05-.02z"/><path d="M891.4 379.57c.01 0 .02-.01.03-.01.06-.03.13-.03.22-.02.29.04.58.39.66.64l1.22 4.17a1 1 0 0 0 .5.59l3.94 1.88c.46.22.71.89.37 1.04h0l-3.33 1.59-.01-.02c.2-.22-.04-.78-.46-.97l-3.94-1.89c-.24-.12-.44-.36-.5-.59l-1.22-4.17c-.08-.25-.37-.6-.66-.64-.08-.01-.15 0-.21.03h-.01l3.39-1.62z"/></g><path d="M882.21 382.56l3.95 1.89c.15.07.27.08.37.03.01 0 .03-.01.04-.02.04-.03.08-.07.09-.12l.99-2.44.23-.56c.02-.07.07-.11.13-.13.06-.03.13-.04.21-.03.29.04.58.4.66.64l1.22 4.17a1 1 0 0 0 .5.59l3.94 1.89c.42.2.66.75.45.98-.01.01-.03.03-.05.04-.03.01-.06.03-.1.04l-3.19.69c-.22.05-.24.29-.19.47l1.22 4.17c.06.22.01.37-.1.43-.01 0-.02.01-.03.01-.17.08-.45 0-.68-.28l-3.19-3.74c-.03-.04-.08-.08-.12-.12-.12-.1-.33-.21-.5-.17l-3.19.69c-.41.09-.97-.56-.81-.95l1.22-3c.08-.2-.04-.48-.19-.66l-3.19-3.74c-.28-.33-.27-.69-.06-.8l.04-.02c.09-.02.2-.01.33.05z" class="E"/><g class="D"><use href="#Z"/><path d="M878.27 381.6c.02 0 .05-.01.06-.02l.04-.02.05-.02 1.1 3.77c.05.16.04.37-.13.45l-3.39 1.62c.11-.07.16-.22.1-.44l-1.22-4.17c-.05-.19-.03-.43.19-.47l3.19-.69z"/><path d="M878.42 381.51c.2-.22-.04-.78-.46-.98l-3.94-1.88c-.22-.11-.42-.33-.5-.59l-1.22-4.17c-.08-.25-.37-.6-.66-.64-.08-.01-.15-.01-.22.02l3.39-1.62c.01-.01.01-.01.02-.01.06-.03.13-.04.22-.02.29.04.59.39.66.64l1.22 4.17a1 1 0 0 0 .51.59l3.94 1.89c.46.22.71.89.37 1.04l-3.33 1.59v-.01h0 0zm-9.37-8.5l2.02.96-.99 2.44c-.06.15-.24.23-.5.11l-3.94-1.88c-.15-.07-.26-.08-.36-.04l3.4-1.62c.11-.05.25-.03.37.04z"/></g><path d="M865.63 374.64l3.94 1.88c.26.12.44.05.5-.11l.99-2.44.23-.56c.03-.07.08-.12.13-.14.06-.03.13-.04.22-.02.29.04.58.4.66.64l1.22 4.17c.08.26.29.48.5.59l3.94 1.88c.41.2.65.76.46.98h0c-.01.01-.02.03-.04.04s-.03.01-.04.02c-.02.01-.04.02-.06.02l-3.19.69c-.22.05-.25.28-.19.47l1.22 4.17c.06.22.01.37-.1.44-.01 0-.02.01-.03.01-.17.08-.45 0-.68-.28l-3.19-3.74-.12-.12c-.12-.11-.33-.21-.5-.18l-3.19.69c-.41.09-.97-.56-.81-.95l1.22-3c.08-.2-.04-.48-.19-.66l-3.19-3.74c-.29-.33-.27-.7-.06-.8.11-.04.23-.03.38.04z" class="E"/><g class="C"><path d="M923.24 382.65l26.25 12.31v-3.08l-26.25-12.31v3.07zm-13.83-6.57l11.18 5.3v-3.07L909.4 373v3.08zm-25.66-12.25l23 10.98v-3.08l-23-10.98v3.08zm-2.65-4.35l-15.97-7.79v3.07l15.97 7.79v-3.07zm64.05 37.89l-27.95-13.16v3.07l27.95 13.16v-3.07zm-30.62-14.42l-21.15-10.07v3.07l21.15 10.07v-3.07zm-23.81-11.35l-19.49-9.38v3.07l19.49 9.38v-3.07zm-22.15-10.66l-3.48-1.71v3.07l3.48 1.71v-3.07z"/></g><g class="G"><path d="M944.74 369.63l1.1 3.77c.05.16.04.37-.13.45l-3.39 1.62c.11-.07.16-.22.1-.44l-1.22-4.17c-.06-.19-.03-.43.19-.47l3.19-.69c.02-.01.05-.01.06-.02l.04-.02.05-.02z"/><path d="M948.07 368.04l-3.33 1.59h0l-.01-.01h0c.2-.22-.04-.78-.45-.98l-3.95-1.89c-.24-.11-.43-.35-.5-.58l-1.22-4.17c-.07-.25-.37-.6-.66-.64-.08-.01-.16-.01-.22.02l3.39-1.62c.01 0 .02-.01.03-.01.06-.03.13-.04.22-.02.29.04.59.39.66.64l1.22 4.17c.07.23.26.47.5.59l3.95 1.89c.46.22.7.89.37 1.03h0 0zm-13.08-6.97c.11-.05.25-.03.37.03l2.02.96-.99 2.44c-.06.15-.25.23-.5.11l-3.95-1.88c-.15-.07-.27-.08-.36-.04l3.4-1.63z"/></g><path d="M931.95 362.74l3.95 1.88c.25.12.44.05.5-.11l.99-2.44.23-.56c.03-.07.07-.11.13-.14s.13-.04.22-.02c.29.04.59.39.66.64l1.22 4.17c.07.23.26.47.5.58l3.95 1.89c.41.2.65.76.45.98h0c-.01.01-.02.02-.02.02h-.01c-.02.02-.04.03-.05.03-.02.01-.04.02-.06.02l-3.19.69c-.22.05-.25.28-.19.47l1.22 4.17c.06.22.01.37-.1.44-.01 0-.02.01-.03.01-.17.08-.45 0-.68-.28l-3.19-3.74c-.03-.04-.08-.09-.12-.12-.12-.11-.33-.21-.5-.18l-3.19.69c-.41.09-.97-.56-.82-.95l1.22-3c.09-.2-.04-.48-.19-.66l-3.2-3.74c-.28-.33-.27-.69-.06-.8.11-.04.23-.04.37.04z" class="H"/><g class="G"><use href="#a"/><path d="M922.03 354.06c-.08-.25-.37-.6-.66-.64-.08-.01-.16 0-.22.03l3.39-1.62c.01 0 .02-.01.03-.01.06-.03.13-.04.22-.02.29.04.58.4.66.64l1.22 4.17c.06.23.26.47.5.59l3.94 1.88c.47.23.72.9.37 1.04l-3.32 1.59-.01-.02c.2-.22-.04-.78-.45-.98l-3.95-1.89c-.24-.12-.43-.36-.5-.59l-1.22-4.17z"/><use href="#b"/></g><path d="M921.03 353.58c.02-.06.07-.11.13-.14s.13-.03.22-.02c.29.04.58.39.66.64l1.22 4.17c.07.23.26.47.5.59l3.95 1.89c.41.2.65.76.45.97-.01.01-.03.03-.05.04-.03.01-.06.03-.1.04l-3.2.69c-.02 0-.04.01-.06.02-.16.07-.18.28-.13.45l1.22 4.17c.06.22.01.37-.1.44-.01 0-.02.01-.03.01-.17.08-.45 0-.69-.28l-3.19-3.74c-.03-.04-.08-.08-.12-.12-.12-.1-.34-.21-.5-.17l-3.19.69c-.41.09-.97-.56-.81-.95l1.22-3.01c.08-.2-.04-.47-.19-.65l-3.19-3.74c-.28-.33-.27-.69-.06-.8.01 0 .03-.01.04-.02.09-.02.2-.01.33.05l3.95 1.89c.25.12.44.05.5-.11l.99-2.44.23-.56z" class="H"/><g class="D"><path d="M911.59 353.78l1.1 3.77c.05.16.05.37-.13.45l-3.39 1.62c.11-.07.16-.22.1-.44l-1.22-4.17c-.05-.19-.03-.43.19-.47l3.2-.69c.02 0 .04-.01.06-.02.02 0 .03-.01.05-.02.02 0 .03-.01.05-.02z"/><path d="M904.59 345.52l3.39-1.62c.01 0 .02-.01.03-.01.06-.03.13-.04.22-.02.29.04.58.39.66.64l1.22 4.17c.06.23.26.48.5.59l3.94 1.89c.47.22.71.89.37 1.04l-3.32 1.58-.01-.01c.2-.22-.04-.78-.46-.98l-3.94-1.89c-.24-.11-.44-.36-.5-.58l-1.22-4.17c-.08-.25-.37-.6-.66-.64-.08-.01-.16 0-.22.03h0z"/><use href="#c"/></g><path d="M898.48 347.65c-.29-.33-.27-.69-.06-.8.11-.04.23-.04.37.03l3.95 1.88c.25.13.44.05.5-.1l.99-2.44.23-.56c.02-.07.07-.12.13-.13.06-.03.13-.04.22-.03.29.04.58.4.66.64l1.22 4.17c.06.23.26.47.5.58l3.94 1.89c.42.2.66.76.46.98-.01.01-.02.02-.03.03l-.06.03c-.02.01-.04.02-.06.02l-3.2.69c-.22.05-.25.28-.19.47l1.22 4.17c.06.22.01.37-.1.44-.01 0-.02.01-.03.01-.17.08-.45 0-.68-.28l-3.19-3.74c-.04-.04-.08-.08-.12-.12-.12-.11-.34-.21-.5-.18l-3.2.69c-.41.09-.97-.56-.81-.95l1.22-3c.08-.2-.04-.48-.19-.66l-3.19-3.74z" class="E"/><g class="D"><path d="M895.01 345.85l1.1 3.77c.05.16.04.37-.13.45l-3.39 1.62c.11-.07.16-.22.1-.43l-1.22-4.17c-.05-.19-.03-.42.19-.47l3.19-.69c.04-.01.07-.03.1-.04.02 0 .04-.01.05-.02z"/><use href="#d"/></g><path d="M882.21 338.96l3.95 1.89c.15.07.27.08.37.03l.04-.02c.04-.03.08-.07.09-.12l.99-2.44.23-.56c.02-.07.07-.11.13-.14.06-.03.13-.04.21-.03.29.04.58.4.66.64l1.22 4.17a1 1 0 0 0 .5.59l3.94 1.89c.42.2.66.75.45.97-.01.02-.03.03-.05.04-.03.01-.06.03-.1.04l-3.19.69c-.22.05-.24.28-.19.47l1.22 4.17c.06.22.01.37-.1.43-.01 0-.02.01-.03.01-.17.08-.45 0-.68-.28l-3.19-3.74c-.03-.04-.08-.08-.12-.12-.12-.1-.33-.21-.5-.17l-3.19.69c-.41.09-.97-.56-.81-.95l1.22-3c.08-.2-.04-.48-.19-.66l-3.19-3.74c-.28-.33-.27-.7-.06-.8l.04-.02c.09-.02.2-.01.33.05z" class="E"/><g class="D"><path d="M882.21 338.96c-.13-.06-.25-.07-.33-.05l3.38-1.61c.08-.04.21-.05.37.03l2.02.97-.99 2.44c-.02.05-.05.09-.09.12l-.04.02c-.09.05-.22.04-.37-.03l-3.95-1.89zm-3.94-.97c.02-.01.05-.01.06-.03l.04-.02c.02-.01.03-.01.05-.02l1.1 3.77c.05.16.04.37-.13.45l-3.39 1.62c.11-.07.16-.22.1-.44l-1.22-4.17c-.05-.19-.03-.42.19-.47l3.19-.69z"/><use href="#e"/><path d="M869.05 329.41l2.02.97-.99 2.44c-.06.16-.24.23-.5.11l-3.94-1.88c-.15-.07-.26-.08-.36-.04l3.4-1.62c.11-.05.25-.03.37.03z"/></g><path d="M865.63 331.04l3.94 1.88c.26.12.44.05.5-.1l.99-2.44.23-.56c.03-.07.08-.12.13-.14.06-.03.13-.04.22-.03.29.04.58.4.66.64l1.22 4.17c.08.26.29.48.5.59l3.94 1.88c.41.2.65.76.46.98h0c-.01.01-.02.03-.04.04l-.04.02c-.02.01-.04.02-.06.02l-3.19.69c-.22.05-.25.28-.19.47l1.22 4.17c.06.22.01.37-.1.44-.01 0-.02.01-.03.01-.17.08-.45 0-.68-.28l-3.19-3.74-.12-.12c-.12-.11-.33-.21-.5-.18l-3.19.69c-.41.09-.97-.56-.81-.95l1.22-3c.08-.2-.04-.48-.19-.66l-3.19-3.74c-.29-.33-.27-.7-.06-.8.11-.04.23-.03.38.04z" class="E"/><g class="C"><path d="M915.35 334.8l27.5 13.15v-3.08l-27.5-13.15v3.08zm-5.96-2.81l3.31 1.55v-3.07l-3.31-1.55v3.07zm-25.67-12.25l23 10.98v-3.07l-23-10.98v3.07zm-2.65-4.35l-15.97-7.79v3.07l15.97 7.79v-3.07zm73.16 42.32l-21.35-10.23v3.07l21.35 10.24v-3.07zm-24.02-11.49l-21.15-10.07v3.07l21.15 10.07v-3.07zm-23.81-11.35l-16.15-7.82v3.08l16.15 7.82v-3.07zm-18.8-9.09l-22.5-10.95v3.08l22.5 10.95v-3.08z"/></g><g class="G"><path d="M944.74 326.21l1.1 3.77c.05.16.04.37-.13.45l-3.39 1.62c.11-.07.16-.22.1-.44l-1.22-4.17c-.06-.19-.03-.43.19-.47l3.19-.69c.02 0 .05-.01.06-.02l.04-.02.05-.02z"/><path d="M948.07 324.62l-3.33 1.59h0l-.01-.01v-.01c.2-.22-.04-.78-.45-.97l-3.95-1.89c-.24-.11-.43-.35-.5-.58l-1.22-4.17c-.07-.25-.37-.6-.66-.64-.08-.01-.16 0-.22.02l3.39-1.62c.01 0 .02-.01.03-.01.06-.03.13-.04.22-.02.29.04.59.39.66.64l1.22 4.17c.07.23.26.47.5.59l3.95 1.89c.46.22.7.89.37 1.03h0 0zm-13.08-6.96c.11-.05.25-.03.37.03l2.02.97-.99 2.44c-.06.15-.25.23-.5.11l-3.95-1.88c-.15-.07-.27-.08-.36-.04l3.4-1.63z"/></g><path d="M931.95 319.33l3.95 1.88c.25.12.44.05.5-.11l.99-2.44.23-.56c.03-.07.07-.11.13-.14s.13-.04.22-.02c.29.04.59.39.66.64l1.22 4.17c.07.23.26.47.5.58l3.95 1.89c.41.2.65.76.45.98h0c-.01.01-.02.02-.02.02h-.01c-.02.02-.04.03-.05.03-.02.01-.04.02-.06.02l-3.19.69c-.22.05-.25.28-.19.47l1.22 4.17c.06.22.01.37-.1.44l-.03.01c-.17.08-.45 0-.68-.27l-3.19-3.74c-.03-.04-.08-.09-.12-.12-.12-.11-.33-.21-.5-.18l-3.19.69c-.41.09-.97-.56-.82-.95l1.22-3c.09-.2-.03-.48-.19-.66l-3.2-3.74c-.28-.33-.27-.69-.06-.8.11-.04.23-.04.37.04z" class="H"/><g class="D"><path d="M928.16 318.29l1.1 3.77c.05.16.04.37-.13.45l-3.38 1.62c.11-.07.16-.22.1-.43l-1.22-4.17c-.05-.17-.03-.38.13-.45.02-.01.04-.02.06-.02l3.19-.69c.03-.01.07-.02.1-.04.02 0 .03-.01.05-.02z"/><path d="M922.03 310.65c-.08-.25-.37-.6-.66-.64-.08-.01-.16 0-.22.02l3.39-1.62c.01 0 .02-.01.03-.01.06-.03.13-.04.22-.02.29.04.58.4.66.64l1.22 4.17c.06.23.26.47.5.59l3.94 1.88c.47.23.72.9.37 1.04l-3.32 1.59-.01-.02c.2-.22-.04-.78-.45-.98l-3.95-1.89c-.24-.12-.43-.36-.5-.59l-1.22-4.17zm-3.25-.89l2.02.96-.99 2.44c-.06.16-.25.23-.5.11l-3.95-1.89c-.13-.06-.24-.07-.33-.05l3.38-1.61c.11-.05.25-.03.37.03z"/></g><path d="M921.03 310.17c.02-.06.07-.11.13-.14s.13-.03.22-.02c.29.04.58.4.66.64l1.22 4.17c.07.23.26.47.5.59l3.95 1.89c.41.2.65.76.45.98-.01.01-.03.03-.05.04-.03.02-.06.03-.1.04l-3.2.69c-.02 0-.04.01-.06.02-.16.07-.18.28-.13.45l1.22 4.17c.06.22.01.37-.1.43-.01 0-.02.01-.03.01-.17.08-.45 0-.69-.28l-3.19-3.74c-.03-.04-.08-.08-.12-.12-.12-.1-.34-.21-.5-.17l-3.19.69c-.41.09-.97-.56-.81-.95l1.22-3.01c.08-.2-.04-.47-.19-.65l-3.19-3.74c-.28-.33-.27-.69-.06-.8l.04-.02c.09-.02.2-.01.33.05l3.95 1.89c.25.12.44.05.5-.11l.99-2.44.23-.56z" class="E"/><g class="D"><path d="M911.59 310.37l1.1 3.77c.05.16.05.37-.13.45l-3.39 1.62c.11-.07.16-.22.1-.44l-1.22-4.17c-.05-.19-.03-.42.19-.47l3.2-.69c.02-.01.04-.01.06-.03.02 0 .03-.01.05-.02.02 0 .03-.01.05-.02z"/><path d="M904.59 302.1l3.39-1.62c.01 0 .02-.01.03-.02.06-.03.13-.04.22-.02.29.04.58.39.66.64l1.22 4.17c.06.23.26.48.5.59l3.94 1.89c.47.22.71.89.37 1.04l-3.32 1.58-.01-.01c.2-.22-.04-.78-.46-.98l-3.94-1.89c-.24-.11-.44-.36-.5-.58l-1.22-4.17c-.08-.25-.37-.6-.66-.64-.08-.01-.16 0-.22.03v-.01zm-6.17 1.33l3.4-1.63c.11-.05.25-.03.37.03l2.02.96-.99 2.44c-.06.16-.25.23-.5.11l-3.95-1.88c-.15-.07-.27-.08-.36-.04z"/></g><path d="M898.48 304.24c-.29-.33-.27-.69-.06-.8.11-.04.23-.04.37.03l3.95 1.88c.25.13.44.05.5-.11l.99-2.44.23-.56c.02-.07.07-.12.13-.14.06-.03.13-.04.22-.03.29.04.58.4.66.64l1.22 4.17c.06.23.26.47.5.58l3.94 1.89c.42.2.66.76.46.98-.01.01-.02.02-.03.03-.03.02-.04.02-.06.03-.02.02-.04.02-.06.03l-3.2.69c-.22.05-.25.28-.19.47l1.22 4.17c.06.22.01.37-.1.44-.01 0-.02.01-.03.01-.17.08-.45 0-.68-.28l-3.19-3.74c-.04-.04-.08-.08-.12-.12-.12-.11-.34-.21-.5-.18l-3.19.69c-.41.09-.97-.56-.81-.95l1.22-3c.08-.2-.04-.48-.19-.66l-3.19-3.74z" class="E"/><g class="D"><path d="M895.01 302.44l1.1 3.77c.05.16.04.37-.13.45l-3.39 1.62c.11-.07.16-.22.1-.44l-1.22-4.17c-.05-.19-.03-.43.19-.47l3.19-.69c.04-.01.07-.02.1-.04.02 0 .04-.01.05-.02z"/><path d="M891.4 292.56c.01 0 .02-.01.03-.01.06-.03.13-.03.22-.02.29.04.58.4.66.64l1.22 4.17a1 1 0 0 0 .5.59l3.94 1.88c.46.22.71.89.37 1.04h0l-3.33 1.59-.01-.02c.2-.22-.04-.78-.46-.98l-3.94-1.89c-.24-.12-.44-.36-.5-.59l-1.22-4.17c-.08-.25-.37-.6-.66-.64-.08-.01-.15 0-.21.03h-.01l3.39-1.62z"/></g><path d="M882.21 295.54l3.95 1.89c.15.07.27.08.37.03l.04-.02c.04-.03.08-.07.09-.12l.99-2.44.23-.56c.02-.07.07-.11.13-.14.06-.03.13-.04.21-.03.29.04.58.4.66.64l1.22 4.17a1 1 0 0 0 .5.59l3.94 1.89c.42.2.66.75.45.97-.01.01-.03.03-.05.04-.03.01-.06.03-.1.04l-3.19.69c-.22.05-.24.29-.19.47l1.22 4.17c.06.22.01.37-.1.44-.01 0-.02.01-.03.01-.17.08-.45 0-.68-.28l-3.19-3.74c-.03-.04-.08-.08-.12-.12-.12-.1-.33-.21-.5-.17l-3.19.69c-.41.09-.97-.56-.81-.95l1.22-3c.08-.2-.04-.48-.19-.66l-3.19-3.74c-.28-.33-.27-.7-.06-.8l.04-.02c.09-.02.2-.01.33.05z" class="E"/><g class="D"><path d="M882.21 295.54c-.13-.06-.25-.07-.33-.05l3.38-1.61c.08-.04.21-.05.37.03l2.02.96-.99 2.44c-.02.05-.05.09-.09.12l-.04.02c-.09.05-.22.04-.37-.03l-3.95-1.89zm-3.94-.96c.02 0 .05-.01.06-.02l.04-.02c.02-.01.03-.01.05-.02l1.1 3.77c.05.16.04.37-.13.45l-3.39 1.62c.11-.07.16-.22.1-.44l-1.22-4.17c-.05-.19-.03-.42.19-.47l3.19-.69z"/><path d="M878.42 294.49c.2-.22-.04-.78-.46-.98l-3.94-1.88c-.22-.11-.42-.33-.5-.59l-1.22-4.17c-.08-.25-.37-.6-.66-.64-.08-.01-.15 0-.22.02l3.39-1.62c.07-.04.15-.05.23-.03.29.04.59.39.66.64l1.22 4.17a1 1 0 0 0 .51.59l3.94 1.89c.46.22.71.89.37 1.04l-3.33 1.59v-.01-.01h0zm-9.37-8.5l2.02.97-.99 2.44c-.06.15-.24.23-.5.11l-3.94-1.88c-.15-.07-.26-.08-.36-.04l3.4-1.62c.11-.05.25-.03.37.03z"/></g><path d="M865.63 287.62l3.94 1.88c.26.12.44.05.5-.11l.99-2.44.23-.56c.03-.07.08-.12.13-.14.06-.03.13-.04.22-.02.29.04.58.4.66.64l1.22 4.17c.08.26.29.48.5.59l3.94 1.88c.41.2.65.76.45.98h0c-.01.01-.02.03-.04.04s-.03.01-.04.02c-.02.01-.04.02-.06.03l-3.19.69c-.22.05-.25.28-.19.47l1.22 4.17c.06.22.01.37-.1.44-.01 0-.02.01-.03.01-.17.08-.45 0-.68-.28l-3.19-3.74-.12-.12c-.12-.11-.33-.21-.5-.18l-3.19.69c-.41.09-.97-.56-.81-.95l1.22-3c.08-.2-.04-.48-.19-.66l-3.19-3.74c-.29-.33-.27-.7-.06-.8.11-.04.23-.03.38.04z" class="E"/><g class="G"><path d="M944.74 278.71l1.1 3.77c.05.16.04.37-.13.45l-3.39 1.62c.11-.07.16-.22.1-.44l-1.22-4.17c-.06-.19-.03-.43.19-.47l3.19-.69c.02 0 .05-.01.06-.02l.04-.02.05-.02z"/><path d="M948.07 277.13l-3.33 1.59h0l-.01-.01h0c.2-.22-.04-.78-.45-.97l-3.95-1.89c-.24-.11-.43-.35-.5-.58l-1.22-4.17c-.07-.25-.37-.6-.66-.64-.08-.01-.16 0-.22.02l3.39-1.62c.01 0 .02-.01.03-.01.06-.03.13-.04.22-.02.29.04.59.39.66.64l1.22 4.17c.07.23.26.47.5.59l3.95 1.89c.46.22.7.89.37 1.03h0 0zm-13.08-6.97c.11-.05.25-.03.37.03l2.02.97-.99 2.44c-.06.15-.25.23-.5.11l-3.95-1.88c-.15-.07-.27-.08-.36-.04l3.4-1.63z"/></g><path d="M931.95 271.82l3.95 1.88c.25.12.44.05.5-.11l.99-2.44.23-.56c.03-.07.07-.11.13-.14s.13-.04.22-.02c.29.04.59.39.66.64l1.22 4.17c.07.23.26.47.5.58l3.95 1.89c.41.2.65.76.45.98v.01c-.01.01-.02.02-.02.02h-.01c-.02.02-.04.03-.05.03-.02.01-.04.02-.06.02l-3.19.69c-.22.05-.25.28-.19.47l1.22 4.17c.06.22.01.37-.1.44l-.03.01c-.17.08-.45 0-.68-.28l-3.19-3.74c-.03-.04-.08-.09-.12-.12-.12-.11-.33-.21-.5-.18l-3.19.69c-.41.09-.97-.56-.82-.95l1.22-3c.09-.2-.03-.48-.19-.66l-3.2-3.74c-.28-.33-.27-.69-.06-.8.11-.04.23-.04.37.03z" class="H"/><g class="D"><path d="M928.16 270.79l1.1 3.77c.05.16.04.37-.13.45l-3.38 1.62c.11-.07.16-.22.1-.43l-1.22-4.17c-.05-.17-.03-.38.13-.45.02-.01.04-.02.06-.02l3.19-.69c.03-.01.07-.02.1-.04.02 0 .03-.01.05-.02z"/><path d="M922.03 263.15c-.08-.25-.37-.6-.66-.64-.08-.01-.16 0-.22.02l3.39-1.62c.01 0 .02-.01.03-.01.06-.03.13-.04.22-.02.29.04.58.4.66.64l1.22 4.17c.06.23.26.47.5.59l3.94 1.88c.47.23.72.9.37 1.04l-3.32 1.59-.01-.02c.2-.22-.04-.78-.45-.98l-3.95-1.89c-.24-.12-.43-.36-.5-.59l-1.22-4.17zm-3.25-.89l2.02.97-.99 2.44c-.06.16-.25.23-.5.11l-3.95-1.89c-.13-.06-.24-.07-.33-.05l3.38-1.61c.11-.05.25-.03.37.03z"/></g><path d="M921.03 262.67c.02-.06.07-.11.13-.14s.13-.03.22-.02c.29.04.58.39.66.64l1.22 4.17c.07.23.26.47.5.59l3.95 1.89c.41.2.65.76.45.98-.01.01-.03.03-.05.04-.03.01-.06.03-.1.04l-3.2.69c-.02.01-.04.01-.06.02-.16.07-.18.28-.13.45l1.22 4.17c.06.22.01.37-.1.43-.01 0-.02.01-.03.01-.17.08-.45 0-.69-.27l-3.19-3.74c-.03-.04-.08-.08-.12-.12-.12-.1-.34-.21-.5-.17l-3.19.69c-.41.09-.97-.56-.81-.95l1.22-3.01c.08-.2-.04-.47-.19-.65l-3.19-3.74c-.28-.33-.27-.69-.06-.8l.04-.02c.09-.02.2-.01.33.05l3.95 1.89c.25.12.44.05.5-.11l.99-2.44.23-.56z" class="E"/><g class="D"><path d="M911.59 262.86l1.1 3.77c.05.16.05.37-.13.45l-3.39 1.62c.11-.07.16-.22.1-.44l-1.22-4.17c-.05-.19-.03-.43.19-.47l3.2-.69c.02 0 .04-.01.06-.03.02 0 .03-.01.05-.02.02 0 .03-.01.05-.02z"/><path d="M904.59 254.61l3.39-1.62c.01-.01.02-.01.03-.02.06-.03.13-.04.22-.02.29.04.58.39.66.64l1.22 4.17c.06.23.26.48.5.59l3.94 1.89c.47.22.71.89.37 1.04l-3.32 1.58-.01-.01c.2-.22-.04-.78-.46-.98l-3.94-1.89c-.24-.11-.44-.36-.5-.58l-1.22-4.17c-.08-.25-.37-.6-.66-.64-.08-.01-.16 0-.22.03h0zm-6.17 1.33l3.4-1.63c.11-.05.25-.03.37.03l2.02.96-.99 2.44c-.06.15-.25.23-.5.11l-3.95-1.88c-.15-.07-.27-.08-.36-.04z"/></g><path d="M898.48 256.73c-.29-.33-.27-.69-.06-.8.11-.04.23-.04.37.03l3.95 1.88c.25.13.44.05.5-.11l.99-2.44.23-.56c.02-.07.07-.12.13-.13.06-.03.13-.04.22-.03.29.04.58.4.66.64l1.22 4.17c.06.23.26.47.5.58l3.94 1.89c.42.2.66.76.46.98-.01.01-.02.02-.03.03-.03.02-.04.02-.06.03s-.04.02-.06.02l-3.2.69c-.22.05-.25.28-.19.47l1.22 4.17c.06.22.01.37-.1.44-.01 0-.02.01-.03.01-.17.08-.45 0-.68-.27l-3.19-3.74c-.04-.04-.08-.08-.12-.12-.12-.11-.34-.21-.5-.18l-3.19.69c-.41.09-.97-.56-.81-.95l1.22-3c.08-.2-.04-.48-.19-.66l-3.19-3.74z" class="E"/><g class="D"><path d="M895.01 254.93l1.1 3.77c.05.16.04.37-.13.45l-3.39 1.62c.11-.07.16-.22.1-.44l-1.22-4.17c-.05-.19-.03-.43.19-.47l3.19-.69c.04-.01.07-.03.1-.04.02 0 .04-.01.05-.02z"/><path d="M891.4 245.06c.01 0 .02-.01.03-.01.06-.03.13-.03.22-.02.29.04.58.4.66.64l1.22 4.17a1 1 0 0 0 .5.59l3.94 1.88c.46.22.71.89.37 1.04h0l-3.33 1.59-.01-.02c.2-.22-.04-.78-.46-.98l-3.94-1.89c-.24-.12-.44-.36-.5-.59l-1.22-4.17c-.08-.25-.37-.6-.66-.64-.08-.01-.15 0-.21.03h-.01l3.39-1.62z"/></g><path d="M882.21 248.04l3.95 1.89c.15.07.27.08.37.03l.04-.02c.04-.03.08-.07.09-.12l.99-2.44.23-.56c.02-.07.07-.11.13-.14.06-.03.13-.04.21-.03.29.04.58.4.66.64l1.22 4.17a1 1 0 0 0 .5.59l3.94 1.89c.42.2.66.75.45.98-.01.01-.03.03-.05.04-.03.01-.06.03-.1.04l-3.19.69c-.22.05-.24.28-.19.47l1.22 4.17c.06.22.01.37-.1.44-.01 0-.02.01-.03.01-.17.08-.45 0-.68-.27l-3.19-3.74c-.03-.04-.08-.08-.12-.12-.12-.1-.33-.21-.5-.17l-3.19.69c-.41.09-.97-.56-.81-.95l1.22-3c.08-.2-.04-.48-.19-.66l-3.19-3.74c-.28-.33-.27-.7-.06-.8l.04-.02c.09-.02.2-.01.33.05z" class="E"/><g class="D"><path d="M882.21 248.05c-.13-.06-.25-.07-.33-.05l3.38-1.61c.08-.04.21-.05.37.03l2.02.97-.99 2.44c-.02.05-.05.09-.09.12-.01 0-.03.01-.04.02-.09.05-.22.04-.37-.03l-3.95-1.89zm-3.94-.97c.02 0 .05-.01.06-.02l.04-.02c.02-.01.03-.01.05-.02l1.1 3.77c.05.16.04.37-.13.45l-3.39 1.62c.11-.07.16-.22.1-.44l-1.22-4.17c-.05-.19-.03-.43.19-.47l3.19-.69z"/><path d="M878.42 246.99c.2-.22-.04-.78-.46-.97l-3.94-1.88c-.22-.11-.42-.33-.5-.59l-1.22-4.17c-.08-.25-.37-.6-.66-.64-.08-.02-.15 0-.22.02l3.39-1.62c.07-.04.15-.05.23-.03.29.04.59.39.66.64l1.22 4.17a1 1 0 0 0 .51.59l3.94 1.89c.46.22.71.89.37 1.04l-3.33 1.59V247v-.01h0zm-9.37-8.5l2.02.96-.99 2.44c-.06.16-.24.23-.5.11l-3.94-1.88c-.15-.07-.26-.08-.36-.04l3.4-1.62c.11-.05.25-.03.37.04z"/></g><path d="M865.63 240.12l3.94 1.88c.26.12.44.05.5-.11l.99-2.44.23-.56c.03-.07.08-.12.13-.14.06-.03.13-.04.22-.03.29.04.58.4.66.64l1.22 4.17c.08.26.29.48.5.59l3.94 1.88c.41.2.65.76.45.97h0c-.01.02-.02.03-.04.04s-.03.01-.04.02c-.02.01-.04.02-.06.02l-3.19.69c-.22.05-.25.28-.19.47l1.22 4.17c.06.22.01.37-.1.44-.01 0-.02.01-.03.01-.17.08-.45 0-.68-.28l-3.19-3.74-.12-.12c-.12-.11-.33-.21-.5-.18l-3.19.69c-.41.09-.97-.56-.81-.95l1.22-3c.08-.2-.04-.48-.19-.66l-3.19-3.74c-.29-.33-.27-.7-.06-.8.11-.04.23-.03.38.04z" class="E"/><g class="C"><path d="M938.44 306.82l-9.11-4.29v3.07l9.11 4.29v-3.08zm-11.78-5.58l-21.16-10.07v3.07l21.16 10.07v-3.07zm-23.81-11.33l-22.02-10.51v3.07l22.02 10.51v-3.08zm-24.68-11.79l-13.16-6.44v3.07l13.16 6.44v-3.08zm60.27 20.99l-9.11-4.29v3.07l9.11 4.29v-3.07zm-11.78-5.58l-21.16-10.07v3.07l21.16 10.07v-3.08zm-23.81-11.33l-22.02-10.51v3.07l22.02 10.51v-3.07zm-24.68-11.79l-13.16-6.44v3.07l13.16 6.44v-3.07z"/></g><g class="L"><path d="M847.12 300.64l-10.23-4.91v2.34l10.23 4.91v-2.34zm-12.26-5.88l-3.72-1.82v2.34l3.72 1.82v-2.34zm-5.75-2.79l-10.09-4.91v2.34l10.09 4.91v-2.34zm23.36 3.44l-33.46-16.09v3.56l33.46 16.09v-3.56z"/><use href="#f"/><use href="#g"/><path d="M852.35 247.17l-23.48-11.32v2.45l23.48 11.32v-2.45z"/><use href="#h"/><path d="M852.35 257.69l-23.48-11.34v2.46l23.48 11.32v-2.44zm-25.83-10.96c0 2.36-2.02 3.31-4.53 2.12-2.5-1.18-4.53-4.06-4.53-6.43s2.02-3.31 4.53-2.12c2.5 1.18 4.53 4.06 4.53 6.43zm25.83 21.47l-23.48-11.32v2.44l23.48 11.33v-2.45zm-25.83-10.97c0 2.37-2.02 3.31-4.53 2.12-2.5-1.18-4.53-4.06-4.53-6.43s2.02-3.31 4.53-2.12c2.5 1.18 4.53 4.06 4.53 6.42zm25.83 21.67l-23.48-11.32v2.44l23.48 11.33v-2.45zm-25.83-10.95c0 2.37-2.02 3.31-4.53 2.12-2.5-1.18-4.53-4.06-4.53-6.43s2.02-3.31 4.53-2.12c2.5 1.18 4.53 4.06 4.53 6.43z"/></g><use href="#i" class="F"/><use href="#j" class="C"/><path d="M852.47 321.15l-33.46-16.09v3.56l33.46 16.1v-3.57z" class="F"/><path d="M846.87 318.45l-27.86-13.39v3.56L846.87 322v-3.56z" class="C"/><path d="M852.47 328.65l-33.46-16.09v3.56l33.46 16.1v-3.57z" class="F"/><path d="M831.79 318.7l-12.78-6.14v3.56l12.78 6.14v-3.56z" class="C"/><path d="M852.47 336.16l-33.46-16.09v3.56l33.46 16.1v-3.57z" class="F"/><path d="M841.22 330.75l-22.2-10.68v3.56l22.2 10.68v-3.56z" class="C"/><use href="#k" class="F"/><path d="M825.82 330.56l-6.81-3.28v3.56l6.81 3.28v-3.56z" class="C"/><path d="M852.47 350.88l-33.46-16.1v3.56l33.46 16.1v-3.56z" class="F"/><path d="M846.02 347.77l-27-12.98v3.56l27 13v-3.57z" class="C"/><g class="L"><use href="#l"/><use href="#m"/><path d="M837.82 360.73l-3.99-1.9v-3.76l3.99 1.9v3.76z"/></g><g class="F"><path d="M845.18 364.23l-3.99-1.9v-3.77l3.99 1.9v3.77zm7.37 3.49l-3.99-1.9v-3.76l3.99 1.9v3.76z"/></g><g class="L"><path d="M823.09 360.15l-3.99-1.9v-3.76l3.99 1.9v3.76zm7.36 3.5l-3.99-1.9v-3.77l3.99 1.9v3.77zm7.37 3.49l-3.99-1.9v-3.76l3.99 1.9v3.76zm7.36 3.5l-3.99-1.9v-3.77l3.99 1.9v3.77z"/></g><path d="M852.55 374.14l-3.99-1.9v-3.76l3.99 1.9v3.76z" class="F"/><path d="M960.92 252.67v-12.73c0-6.32-4.66-13.66-10.43-16.4l-130.71-61.92c-2.28-1.08-4.39-1.28-6.1-.74-.22.07-1.76.72-1.98.81 1.78-.7 4.03-.57 6.5.59l130.71 61.93c5.76 2.73 10.43 10.08 10.43 16.4v12.73l1.6-.68-.01.01z" class="C"/><path d="M948.89 224.21l-130.71-61.91c-5.76-2.73-10.43.17-10.43 6.49v12.53l151.58 71.83v-12.53c0-6.32-4.67-13.66-10.43-16.4l-.01-.01z" fill="#4196ff"/><g class="B"><path d="M907.69 220.45l-2.87-1.33v2.34l2.88 1.33v-2.34zm-4.92-2.3l-10.5-4.97v2.34l10.5 4.98v-2.34zm-12.53-5.95l-6.51-3.17v2.34l6.51 3.17v-2.34zm-8.54-4.13l-10.09-4.91v2.34l10.09 4.91v-2.34zm35.86 9.51l-45.96-22.15V199l45.96 22.14v-3.56z"/></g><path d="M848.59 212.99c7.18-3.45 7.11-14.54-.16-24.76s-18.97-15.71-26.15-12.26-7.11 14.54.16 24.76 18.97 15.71 26.15 12.26z" class="F"/><path d="M837.39 211.12c-10.21-4.85-18.5-16.6-18.5-26.24 0-4.59 1.88-7.85 4.96-9.52-4.2 1.21-6.9 4.82-6.9 10.32 0 9.64 8.27 21.38 18.5 26.24 5.34 2.54 10.16 2.67 13.53.84-3.17.9-7.2.45-11.58-1.64h-.01z" fill="#72b5e8"/><path d="M849.3 214.23c7.28-3.5 7.21-14.75-.16-25.13s-19.26-15.95-26.54-12.45-7.21 14.75.16 25.13 19.26 15.95 26.54 12.45z" class="B"/><path d="M843.26 199.64c0 7.86-16.16.2-16.16-7.68s3.62-11.43 8.08-9.31 8.08 9.13 8.08 16.99z" fill="#03336e"/><g class="L"><path d="M847.39 211.91c-1.34-3.17-3.92-4.85-7.07-8.42l-4.99-1.96-4.99-2.78c-3.16.58-5.73-.19-7.07 1.71-.24.34-.42.77-.55 1.25 3.4 4.8 8.07 9 13.24 11.46 4.65 2.21 8.89 2.62 12.17 1.54-.13-.93-.34-1.89-.73-2.78h-.01z"/><path d="M842.18 194.46c-.02-.57-.08-.95-.18-1.21-.69-5.89-3.12-8.65-6.69-10.34-3.63-1.73-6.28-1.14-6.75 4.42-.02.17-.05.37-.06.64-.62-.11-1.01.34-.82 1.43a3.9 3.9 0 0 0 1.39 2.41 15.3 15.3 0 0 0 2.62 5.07c.21.69.1 1.3-.41 1.53-.3.14-.62.25-.96.33 2.76 4.01 7.23 6.14 9.99 4.75a15.7 15.7 0 0 1-.89-1.16c-.52-.74-.68-1.55-.43-2.06.99-.34 1.8-1.09 2.35-2.16.08-.12.17-.24.24-.36.75.17 1.3-.28 1.41-1.08.17-1.15-.2-1.72-.82-2.21l.01-.01z"/></g><path d="M843.03 214.52c0-2.75.82-4.85 2.12-6l-4.83-5.04c-2.76 1.39-7.24-.74-9.99-4.75-1.87.33-3.54.22-4.87.45a17.1 17.1 0 0 1 2.11 7.98v.11a32.7 32.7 0 0 0 8.39 5.87c2.51 1.2 4.91 1.86 7.1 2.05 0-.22-.04-.46-.04-.69v.01z" class="C"/><g fill="#03336e"><path d="M834.4 184.87c1.6 3.46-1.89 5.42-4.46 5.01-1.53-2.44-3.71-.33-1.42-5.44 2.96-6.59 7.16-1.62 7.16-1.62l-1.29 2.06v-.01z"/><path d="M833.96 184.87c.45 3.69 4.09 4.4 5.43 7.7 1.34 3.3.37 5.72.37 5.72s4.39-3.18 1.63-9.69-8.08-8.99-7.44-3.74z"/></g><path style="mix-blend-mode:multiply" d="M846.05 219.48c8.88-4.27 8.79-17.98-.2-30.63s-23.47-19.44-32.35-15.17-8.79 17.98.2 30.63 23.47 19.44 32.35 15.17z" fill="url(#M)"/></g></g></g><rect x="1" y="1" width="1138" height="638" rx="15" stroke="#0668e1" stroke-width="2"/><defs><filter id="B" x="910.84" y="82.85" width="115.16" height="49.15" filterUnits="userSpaceOnUse" class="I"><feFlood class="J"/><feBlend in="SourceGraphic" result="B"/><feColorMatrix in="SourceAlpha" values="0 0 0 0 0 0 0 0 0 0 0 0 0 0 0 0 0 0 127 0" result="C"/><feOffset dy="5.94115"/><feGaussianBlur stdDeviation="5.94"/><feComposite in2="C" operator="arithmetic" k2="-1" k3="1"/><feColorMatrix values="0 0 0 0 0 0 0 0 0 0 0 0 0 0 0 0 0 0 0.25 0"/><feBlend in2="B" result="D"/><feColorMatrix in="SourceAlpha" values="0 0 0 0 0 0 0 0 0 0 0 0 0 0 0 0 0 0 127 0" result="C"/><feOffset dy="-5.94115"/><feGaussianBlur stdDeviation="5.94"/><feComposite in2="C" operator="arithmetic" k2="-1" k3="1"/><feColorMatrix values="0 0 0 0 0 0 0 0 0 0 0 0 0 0 0 0 0 0 0.25 0"/><feBlend in2="D"/></filter><filter id="C" x="1018.43" y="60.93" width="72.14" height="92.98" filterUnits="userSpaceOnUse" class="I"><feFlood class="J"/><feBlend in="SourceGraphic" result="B"/><feColorMatrix in="SourceAlpha" values="0 0 0 0 0 0 0 0 0 0 0 0 0 0 0 0 0 0 127 0" result="C"/><feOffset dy="-5.9375"/><feGaussianBlur stdDeviation="5.94"/><feComposite in2="C" operator="arithmetic" k2="-1" k3="1"/><feColorMatrix values="0 0 0 0 0 0 0 0 0 0 0 0 0 0 0 0 0 0 0.25 0"/><feBlend in2="B" result="D"/><feColorMatrix in="SourceAlpha" values="0 0 0 0 0 0 0 0 0 0 0 0 0 0 0 0 0 0 127 0" result="C"/><feOffset dy="5.9375"/><feGaussianBlur stdDeviation="5.94"/><feComposite in2="C" operator="arithmetic" k2="-1" k3="1"/><feColorMatrix values="0 0 0 0 0 0 0 0 0 0 0 0 0 0 0 0 0 0 0.25 0"/><feBlend in2="D"/></filter><filter id="D" x="114" y="509.25" width="115.16" height="49.15" filterUnits="userSpaceOnUse" class="I"><feFlood class="J"/><feBlend in="SourceGraphic" result="B"/><feColorMatrix in="SourceAlpha" values="0 0 0 0 0 0 0 0 0 0 0 0 0 0 0 0 0 0 127 0" result="C"/><feOffset dy="5.94115"/><feGaussianBlur stdDeviation="5.94"/><feComposite in2="C" operator="arithmetic" k2="-1" k3="1"/><feColorMatrix values="0 0 0 0 0 0 0 0 0 0 0 0 0 0 0 0 0 0 0.25 0"/><feBlend in2="B" result="D"/><feColorMatrix in="SourceAlpha" values="0 0 0 0 0 0 0 0 0 0 0 0 0 0 0 0 0 0 127 0" result="C"/><feOffset dy="-5.94115"/><feGaussianBlur stdDeviation="5.94"/><feComposite in2="C" operator="arithmetic" k2="-1" k3="1"/><feColorMatrix values="0 0 0 0 0 0 0 0 0 0 0 0 0 0 0 0 0 0 0.25 0"/><feBlend in2="D"/></filter><filter id="E" x="49.42" y="487.34" width="72.14" height="92.98" filterUnits="userSpaceOnUse" class="I"><feFlood class="J"/><feBlend in="SourceGraphic" result="B"/><feColorMatrix in="SourceAlpha" values="0 0 0 0 0 0 0 0 0 0 0 0 0 0 0 0 0 0 127 0" result="C"/><feOffset dy="-5.9375"/><feGaussianBlur stdDeviation="5.94"/><feComposite in2="C" operator="arithmetic" k2="-1" k3="1"/><feColorMatrix values="0 0 0 0 0 0 0 0 0 0 0 0 0 0 0 0 0 0 0.25 0"/><feBlend in2="B" result="D"/><feColorMatrix in="SourceAlpha" values="0 0 0 0 0 0 0 0 0 0 0 0 0 0 0 0 0 0 127 0" result="C"/><feOffset dy="5.9375"/><feGaussianBlur stdDeviation="5.94"/><feComposite in2="C" operator="arithmetic" k2="-1" k3="1"/><feColorMatrix values="0 0 0 0 0 0 0 0 0 0 0 0 0 0 0 0 0 0 0.25 0"/><feBlend in2="D"/></filter><filter id="F" x="-3.65" y="56.22" width="331.77" height="98.29" filterUnits="userSpaceOnUse" class="I"><feFlood result="A" class="J"/><feColorMatrix in="SourceAlpha" values="0 0 0 0 0 0 0 0 0 0 0 0 0 0 0 0 0 0 127 0" result="B"/><feOffset dy="1.78125"/><feGaussianBlur stdDeviation="2.38"/><feComposite in2="B" operator="out"/><feColorMatrix values="0 0 0 0 0 0 0 0 0 0 0 0 0 0 0 0 0 0 0.3 0"/><feBlend in2="A"/><feBlend in="SourceGraphic"/></filter><linearGradient id="G" x1="843.12" y1="353.47" x2="843.12" y2="497.75" href="#n"><stop stop-color="#eaf4ff"/><stop offset="1" stop-color="#c1ddff"/></linearGradient><linearGradient id="H" x1="814.44" y1="480.57" x2="875.7" y2="376.21" href="#n"><stop stop-color="#fff"/><stop offset="1" stop-color="#c9daff"/></linearGradient><linearGradient id="I" x1="942.76" y1="376.23" x2="942.76" y2="357.59" href="#n"><stop stop-color="#fff" stop-opacity="0"/><stop offset=".69" stop-color="#6b9aff"/></linearGradient><linearGradient id="J" x1="869.34" y1="322.99" x2="882.08" y2="353.66" href="#n"><stop stop-color="#275acc"/><stop offset=".14" stop-color="#3466d5"/><stop offset=".49" stop-color="#5481ec"/><stop offset=".79" stop-color="#6792fa"/><stop offset="1" stop-color="#6e99ff"/></linearGradient><linearGradient id="K" x1="809.58" y1="362.22" x2="833.92" y2="416.79" href="#n"><stop stop-color="#275acc"/><stop offset=".14" stop-color="#3466d5"/><stop offset=".49" stop-color="#5481ec"/><stop offset=".79" stop-color="#6792fa"/><stop offset="1" stop-color="#6e99ff"/></linearGradient><linearGradient id="L" x1="949.46" y1="380.48" x2="898.34" y2="380.48" href="#n"><stop stop-color="#275acc"/><stop offset=".14" stop-color="#3466d5"/><stop offset=".49" stop-color="#5481ec"/><stop offset=".79" stop-color="#6792fa"/><stop offset="1" stop-color="#6e99ff"/></linearGradient><radialGradient id="M" cx="0" cy="0" r="1" gradientTransform="matrix(-17.3358 -8.23282 -8.6076 12.2633 -317.501 -349.686)" href="#n"><stop offset=".06" stop-color="#92a3b0"/><stop offset="1" stop-color="#fff"/></radialGradient><clipPath id="N"><rect width="1140" height="640" rx="16" class="B"/></clipPath><clipPath id="O"><path transform="translate(1038.06 90.98)" d="M0 0h32.88v32.88H0z" class="B"/></clipPath><clipPath id="P"><path transform="matrix(-1 0 0 -1 101.938 550.27)" d="M0 0h32.88v32.88H0z" class="B"/></clipPath><clipPath id="Q"><path transform="translate(665 141.5)" d="M0 0h356.25v356.25H0z" class="B"/></clipPath><clipPath id="R"><path transform="translate(805.13 132.07)" d="M0 0h158.53v306.9H0z" class="B"/></clipPath><path id="S" d="M918.85 411.43l15.21-8.78c.57-.33 1.03-1.28 1.03-2.12s-.46-1.26-1.03-.93l-15.21 8.77c-.57.33-1.03 1.28-1.03 2.12s.46 1.26 1.03.93z"/><path id="T" d="M781.96 433.38c0-.56-.4-1.24-.88-1.51s-.88-.04-.88.51.4 1.23.88 1.51.88.05.88-.51z"/><path id="U" d="M770.31 426.63c0-.56-.4-1.24-.88-1.51-.48-.27-.88-.04-.88.51s.4 1.23.88 1.51c.48.28.88.05.88-.51z"/><path id="V" d="M944.74 413.23l1.1 3.77c.05.16.04.37-.13.45l-3.39 1.62c.11-.07.16-.22.1-.44l-1.22-4.17c-.06-.19-.03-.43.19-.47l3.19-.69c.02 0 .05-.01.06-.02l.04-.02.05-.02z"/><path id="W" d="M934.99 404.67c.11-.05.25-.03.37.03l2.02.97-.99 2.44c-.06.15-.25.23-.5.11l-3.95-1.88c-.15-.07-.27-.08-.36-.04l3.4-1.63z"/><path id="X" d="M931.94 406.34l3.95 1.88c.25.12.44.05.5-.11l.99-2.44.23-.56c.03-.07.07-.11.13-.14s.13-.04.22-.02c.29.04.59.39.66.64l1.22 4.17c.07.23.26.47.5.58l3.95 1.89c.41.2.65.76.45.98h0c-.01.01-.02.02-.02.02h-.01c-.02.02-.04.03-.05.03-.02.01-.04.02-.06.02l-3.19.69c-.22.05-.25.28-.19.47l1.22 4.17c.06.22.01.37-.1.44-.01 0-.02.01-.03.01-.17.08-.45 0-.68-.28l-3.19-3.74c-.03-.04-.08-.09-.12-.12-.12-.11-.33-.21-.5-.18l-3.19.69c-.41.09-.97-.56-.82-.95l1.22-3c.09-.2-.04-.48-.19-.66l-3.2-3.74c-.28-.33-.27-.69-.06-.8.11-.04.23-.04.37.04z"/><path id="Y" d="M922.03 397.66c-.08-.25-.37-.6-.66-.64-.08-.01-.16 0-.22.02l3.39-1.62c.01 0 .02-.01.03-.01.06-.03.13-.04.22-.02.29.04.58.4.66.64l1.22 4.17c.06.23.26.47.5.59l3.94 1.88c.47.23.72.9.37 1.04l-3.32 1.59-.01-.02c.2-.22-.04-.78-.45-.98l-3.95-1.89c-.24-.12-.43-.36-.5-.59l-1.22-4.17z"/><path id="Z" d="M882.21 382.56c-.13-.06-.25-.07-.33-.05l3.38-1.61c.08-.04.21-.05.37.03l2.02.96-.99 2.44c-.02.05-.05.09-.09.12l-.04.02c-.09.05-.22.04-.37-.03l-3.95-1.89z"/><path id="a" d="M928.16 361.71l1.1 3.77c.05.16.04.37-.13.45l-3.38 1.62c.11-.07.16-.22.1-.43l-1.22-4.17c-.05-.17-.03-.38.13-.45.02-.01.04-.02.06-.02l3.19-.69c.03-.01.07-.02.1-.04.02 0 .03-.01.05-.02z"/><path id="b" d="M918.78 353.18l2.02.96-.99 2.44c-.06.16-.25.23-.5.11l-3.95-1.89c-.13-.06-.24-.07-.33-.05l3.38-1.61c.11-.05.25-.03.37.03z"/><path id="c" d="M898.42 346.85l3.4-1.63c.11-.05.25-.03.37.03l2.02.96-.99 2.44c-.06.15-.25.23-.5.11l-3.95-1.88c-.15-.07-.27-.08-.36-.04z"/><path id="d" d="M891.4 335.98c.01 0 .02-.01.03-.01.06-.03.13-.03.22-.02.29.04.58.4.66.64l1.22 4.17a1 1 0 0 0 .5.59l3.94 1.88c.46.22.71.89.37 1.04h0l-3.33 1.59-.01-.02c.2-.22-.04-.78-.46-.98l-3.94-1.89c-.24-.12-.44-.36-.5-.59l-1.22-4.17c-.08-.25-.37-.6-.66-.64-.08-.01-.15 0-.21.03h-.01l3.39-1.62z"/><path id="e" d="M878.42 337.9c.2-.22-.04-.78-.46-.98l-3.94-1.88c-.22-.11-.42-.33-.5-.59l-1.22-4.17c-.08-.25-.37-.6-.66-.64-.08-.01-.15 0-.22.02l3.39-1.62c.07-.04.15-.05.23-.03.29.04.59.39.66.64l1.22 4.17a1 1 0 0 0 .51.59l3.94 1.89c.46.22.71.89.37 1.04l-3.33 1.59v-.01-.01h0z"/><path id="f" d="M852.35 236.46l-23.48-11.32v2.44l23.48 11.33v-2.45z"/><path id="g" d="M826.52 225.5c0 2.37-2.02 3.31-4.53 2.12-2.5-1.18-4.53-4.06-4.53-6.43s2.02-3.31 4.53-2.12c2.5 1.18 4.53 4.06 4.53 6.43z"/><path id="h" d="M826.52 236.21c0 2.36-2.02 3.31-4.53 2.12-2.5-1.18-4.53-4.06-4.53-6.43s2.02-3.31 4.53-2.12c2.5 1.18 4.53 4.06 4.53 6.43z"/><path id="i" d="M852.47 313.63l-33.46-16.09v3.56l33.46 16.1v-3.57z"/><path id="j" d="M841.22 308.22l-22.2-10.68v3.56l22.2 10.68v-3.56z"/><path id="k" d="M852.47 343.38l-33.46-16.1v3.56l33.46 16.1v-3.56z"/><path id="l" d="M823.09 353.73l-3.99-1.9v-3.76l3.99 1.9v3.76z"/><path id="m" d="M830.45 357.23l-3.99-1.9v-3.77l3.99 1.9v3.77z"/><linearGradient id="n" gradientUnits="userSpaceOnUse"/></defs></svg>