<svg xmlns="http://www.w3.org/2000/svg" width="1200" height="240" fill="none" xmlns:v="https://vecta.io/nano"><path d="M28.07 90.98c3.12 0 5.89 0 7.97.37a28.5 28.5 0 0 1 5.89.74c1.73.37 3.81.74 5.89 1.49l-1.04 10.05c-2.08 0-3.81-.37-5.89-.37-1.73 0-3.81-.37-5.54-.37h-7.28c-3.81 0-6.93.74-9.01 2.6-2.08 1.49-3.81 4.47-4.5 8.19-1.04 3.72-1.39 8.93-1.39 16s.35 11.91 1.39 16c1.04 3.72 2.42 6.7 4.5 8.19s5.2 2.6 9.01 2.6c4.5 0 7.97 0 11.09-.37 3.12 0 5.89-.37 9.01-.74l1.04 9.67c-3.12 1.12-5.89 1.86-9.35 2.23a101.2 101.2 0 0 1-11.78.74c-6.93 0-12.47-1.12-16.28-3.72-4.16-2.6-6.93-6.33-9.01-11.91C1.04 145.67 0 138.23 0 128.93s1.04-16.74 2.77-22.32 4.85-9.3 8.66-11.91c4.16-2.6 9.7-3.72 16.63-3.72zm50.92 21.21c5.89 0 10.74.74 14.2 2.6a16.2 16.2 0 0 1 7.62 8.56c1.39 3.72 2.43 9.3 2.43 16s-.69 11.91-2.43 16c-1.39 4.09-4.16 7.07-7.62 8.56-3.46 1.86-8.31 2.6-14.2 2.6s-10.39-.74-13.86-2.6-6.24-4.84-7.62-8.56c-1.73-4.09-2.43-9.3-2.43-16s.69-11.91 2.43-16 4.16-7.07 7.62-8.56c3.12-1.86 7.97-2.6 13.86-2.6zm0 9.67c-2.77 0-5.2.37-6.93 1.49s-2.77 2.98-3.46 5.21c-.69 2.6-1.04 5.95-1.04 10.79 0 4.47.35 8.19 1.04 10.79s2.08 4.47 3.46 5.21c1.73 1.12 3.81 1.49 6.93 1.49s5.2-.37 6.93-1.49 2.77-2.6 3.46-5.21 1.04-5.95 1.04-10.79c0-4.47-.35-8.19-1.04-10.79s-1.73-4.47-3.46-5.21a17.8 17.8 0 0 0-6.93-1.49zm41.23-8.56l1.04 10.05 1.04 1.49v40.56h-12.12v-52.1h10.05zm22.17-1.12c9.01 0 13.51 4.84 13.51 14.51v39.07h-12.12v-34.97c0-2.98-.35-4.84-1.39-5.95s-2.43-1.49-4.5-1.49c-2.42 0-4.85.74-7.62 1.86-2.43 1.12-5.54 2.98-9.35 5.21l-.35-7.81c3.46-3.35 7.27-5.58 10.74-7.44a20.8 20.8 0 0 1 11.09-2.98zm32.22 1.12l1.04 10.05 1.04 1.49v40.56h-12.12v-52.1h10.05zm22.17-1.12c9.01 0 13.51 4.84 13.51 14.51v39.07h-12.12v-34.97c0-2.98-.35-4.84-1.39-5.95s-2.42-1.49-4.5-1.49c-2.42 0-4.85.74-7.62 1.86-2.42 1.12-5.54 2.98-9.35 5.21l-.35-7.81c3.46-3.35 7.28-5.58 10.74-7.44 4.16-2.23 7.62-2.98 11.09-2.98zm45.02.01c7.97 0 13.51 1.49 16.98 4.46s5.2 7.44 5.2 13.02c0 4.84-1.04 8.19-3.12 10.79s-5.54 3.72-10.74 3.72H222.4v-7.81H247c2.08 0 3.81-.74 4.16-1.86.69-1.12 1.04-2.98 1.04-4.84 0-2.98-.69-4.84-2.43-5.95s-3.81-1.86-7.28-1.86c-3.12 0-5.54.37-7.28 1.49-1.73.74-2.77 2.6-3.46 4.84s-1.04 5.95-1.04 10.42c0 4.84.35 8.56 1.38 11.16.69 2.61 2.42 4.47 4.16 5.21 2.08 1.12 4.5 1.49 7.97 1.49 2.43 0 5.2 0 8.31-.37s6.24-.37 9.35-.74l1.04 8.19c-1.73.74-3.81 1.49-6.24 1.86l-7.28 1.12c-2.43.37-4.85.37-6.93.37-5.89 0-10.74-1.12-14.2-2.98s-6.23-4.84-7.97-8.93-2.43-9.3-2.43-15.63c0-6.7.69-12.28 2.43-16.37a16.3 16.3 0 0 1 7.62-8.56c3.81-1.49 8.31-2.23 13.86-2.23zm52.68 0c1.73 0 3.46 0 5.54.37 2.08 0 4.16.37 5.89.74 2.08.37 3.81 1.12 5.54 1.86l-1.39 8.19c-2.43 0-4.85-.37-7.27-.37h-6.24c-3.46 0-5.89.37-7.97 1.49a7.7 7.7 0 0 0-4.16 5.21 39.1 39.1 0 0 0-1.39 10.42c0 4.47.35 7.81 1.39 10.42.69 2.61 2.42 4.09 4.16 5.21 2.08 1.12 4.5 1.49 7.97 1.49h3.81c1.73 0 3.46 0 5.2-.37 1.73 0 3.81-.37 5.54-.37l1.04 8.19c-2.43 1.12-5.54 1.86-8.66 2.6-3.12.37-6.24.74-9.35.74-5.89 0-10.39-.74-13.86-2.6s-5.89-4.84-7.62-8.56a49.3 49.3 0 0 1-2.43-16c0-6.7.69-11.91 2.43-16a16.3 16.3 0 0 1 7.62-8.56c3.81-3.35 8.66-4.09 14.2-4.09zm56.81 1.11v8.93H316.3v-8.56l9.35-.37h25.64zm-14.55-14.88v51.35c0 2.23.35 3.72 1.38 4.84a7.4 7.4 0 0 0 4.5 1.49h6.58l1.39 8.93a33.9 33.9 0 0 1-4.16 1.12l-4.5.74h-3.81c-4.16 0-7.62-1.12-9.7-3.72-2.43-2.6-3.46-5.95-3.46-10.42V98.42h11.78z" fill="#1b1c17"/><g fill="#0668e1"><path d="M395.97 92.09h11.09c3.81 0 7.62 0 11.09.37 3.46 0 6.93.37 10.05.74l-.69 11.91h-26.33c-1.73 0-2.77.37-3.81 1.49a6.2 6.2 0 0 0-1.39 4.09v37.21c0 1.86.35 2.98 1.39 4.09.69.74 2.08 1.49 3.81 1.49h26.33l.69 11.91c-3.12.37-6.58.37-10.05.74-3.46 0-7.27.37-11.09.37h-11.09c-4.5 0-7.97-1.49-10.39-4.09-2.77-2.61-4.16-6.33-4.16-10.79V106.6c0-4.47 1.39-8.19 4.16-10.79 2.43-2.6 6.24-3.72 10.39-3.72z"/><path d="M424.04 121.85h-40.88v11.53h40.88v-11.53zm39.49-30.88l8.31.37c2.43 0 4.5.37 6.24.74 2.08.37 3.81.74 5.89 1.49l-1.04 11.91c-2.08 0-4.16-.37-5.89-.37h-5.89-7.62c-3.47 0-5.89.74-7.97 2.23s-3.12 3.72-4.16 7.44c-.69 3.35-1.04 8.19-1.04 14.51s.35 11.16 1.04 14.51 2.08 5.95 4.16 7.44 4.5 2.23 7.97 2.23c4.5 0 8.31 0 11.43-.37a79.4 79.4 0 0 0 9.35-.74l1.38 11.91c-3.12 1.12-6.24 1.86-9.7 2.23s-7.28.74-12.12.74c-6.93 0-12.82-1.12-16.98-3.72s-7.27-6.32-9.35-11.91-2.77-13.02-2.77-22.32 1.04-16.74 2.77-22.32 4.85-9.67 9.35-11.91c4.16-2.98 9.7-4.09 16.63-4.09zM520 82.42c0 5.95-4.5 10.79-10.05 10.79s-10.05-4.84-10.05-10.79S504.41 72 509.95 72 520 76.46 520 82.42zm-17.67 0c0 4.84 3.12 8.56 7.62 8.56 4.16 0 7.62-3.72 7.62-8.19 0-4.84-3.12-8.56-7.62-8.56-4.5-.37-7.62 3.72-7.62 8.19zm6.24 5.58h-2.43V77.58c1.04-.37 2.08-.37 3.81-.37s2.77.37 3.46.74 1.04 1.12 1.04 2.23-.69 2.23-2.08 2.6c1.04.37 1.39 1.12 1.73 2.6s.35 2.23.69 2.6h-2.42c-.35-.37-.35-1.49-.69-2.6s-.69-1.49-2.08-1.49h-1.04V88zm0-5.95h1.04c1.39 0 2.42-.37 2.42-1.49s-.69-1.49-2.08-1.49h-1.39v2.98z"/></g><path d="M604 240c-2 0-4-1.44-4-2.88V2.88c0-1.44 2-2.88 4-2.88s4 1.44 4 2.88V237.6c0 .96-2 2.4-4 2.4z" fill="#1b1c17"/><path d="M812.46 163.52l-12.98 26.29h-4.4l-13.04-26.29h5.24l8.08 16.78a23.3 23.3 0 0 1 .89 2.25l.83 2.25h.39l.84-2.25.89-2.19 8.08-16.84h5.18zm-12.76 22.72v17.06h-4.9v-17.06h4.9zm-33.73-23.4l5.63.29a41.3 41.3 0 0 1 5.79.87l-.33 3.69-5.29-.17-5.57-.12a31.8 31.8 0 0 0-3.57.17 5.4 5.4 0 0 0-2.4.69 3.1 3.1 0 0 0-1.39 1.79 11.6 11.6 0 0 0-.39 3.4c0 2.19.37 3.73 1.11 4.61.78.85 2.03 1.48 3.73 1.9l7.8 2.02c2.97.73 5 2.02 6.07 3.86 1.12 1.81 1.67 4.25 1.67 7.32 0 2.31-.26 4.17-.78 5.59-.48 1.42-1.24 2.52-2.28 3.29-1.04.73-2.38 1.23-4.01 1.5a31.7 31.7 0 0 1-5.79.46 92.2 92.2 0 0 1-4.96-.17 55 55 0 0 1-6.96-.92l.34-3.75 5.29.23 3.45.06h3.01a18.2 18.2 0 0 0 4.62-.46c1.15-.31 1.95-.92 2.4-1.84.48-.92.72-2.29.72-4.09 0-1.54-.17-2.73-.5-3.58s-.87-1.48-1.62-1.9c-.71-.46-1.62-.83-2.73-1.1l-7.97-2.08c-2.79-.73-4.75-2-5.91-3.8-1.11-1.81-1.67-4.23-1.67-7.26 0-2.31.24-4.15.72-5.53.52-1.42 1.28-2.48 2.28-3.17 1.04-.73 2.34-1.21 3.9-1.44s3.42-.35 5.57-.35zm-30.3.68a1.8 1.8 0 0 1 1.17.4c.33.23.56.56.67.98l12.37 38.4h-5.07l-9.97-32.63-.5-1.61-.45-1.61h-1.56l-.44 1.61-.5 1.61-9.97 32.63h-5.07l12.37-38.4c.11-.42.33-.75.67-.98.33-.27.72-.4 1.17-.4h5.13zm7.13 22.95v4.38h-19.5v-4.38h19.5zm-46.28-22.99h5.57l5.57.12 5.35.23-.22 3.98h-15.43c-1.15 0-2 .31-2.56.92-.52.58-.78 1.54-.78 2.88v23.64c0 1.34.26 2.32.78 2.94.56.61 1.41.92 2.56.92h15.43l.22 3.92-5.35.23-5.57.06-5.57.06c-2.27 0-4.07-.62-5.4-1.84-1.3-1.27-1.97-2.96-2.01-5.07V170.4c.04-2.15.71-3.84 2.01-5.07 1.34-1.23 3.14-1.84 5.4-1.84zm-6.41 16.78h20.5v4.09h-20.5v-4.09z" fill="#0668e1"/><path d="M1188.35 111.13c4.09 0 7.04.77 8.86 2.31 1.86 1.54 2.79 3.82 2.79 6.86.03 2.5-.47 4.46-1.51 5.88-1.04 1.38-2.69 2.08-4.96 2.08h-15.82v-3.8h14.6c1.22 0 2.02-.42 2.39-1.27a7.2 7.2 0 0 0 .56-2.88c-.04-1.81-.56-3.09-1.56-3.86s-2.71-1.15-5.12-1.15c-1.97 0-3.53.31-4.68.92a5 5 0 0 0-2.4 3.11c-.44 1.46-.67 3.52-.67 6.17 0 3 .28 5.28.84 6.86.59 1.58 1.52 2.65 2.78 3.23 1.27.58 2.94.86 5.02.86l4.73-.17 4.68-.52.5 3.29a16.3 16.3 0 0 1-3.17.86l-3.85.52-3.5.17c-3.12 0-5.63-.48-7.53-1.44-1.89-1-3.28-2.58-4.17-4.73-.86-2.19-1.28-5.07-1.28-8.65 0-3.69.42-6.59 1.28-8.71.89-2.15 2.24-3.67 4.06-4.55 1.86-.92 4.24-1.38 7.13-1.38zm-25.57-7.61v28.65c0 1.34.28 2.31.84 2.88.55.58 1.5.86 2.84.86h4.12l.56 3.75a20.1 20.1 0 0 1-2.06.4l-2.29.23-1.78.12c-2.26 0-3.99-.65-5.18-1.96s-1.78-3.19-1.78-5.65v-29.29h4.73zm8.64 8.3v3.86h-18.28v-3.57l5.35-.29h12.93zm-33.19-.69c2.01 0 3.7.29 5.07.86a5.9 5.9 0 0 1 3.18 2.77c.7 1.31 1.05 3.09 1.05 5.36v19.77h-3.73l-.72-6.11-.34-.63v-13.03c0-1.73-.39-2.96-1.17-3.69-.74-.77-2.19-1.15-4.34-1.15l-5.35.23-6.29.52-.45-3.63 4.12-.63 4.63-.46 4.34-.17zm7.08 11.47l-.06 3.69-12.98.06c-1.3.04-2.21.4-2.73 1.1-.52.65-.78 1.57-.78 2.77V132c0 1.46.33 2.54 1 3.23.67.65 1.75.98 3.23.98a12.5 12.5 0 0 0 3.51-.58 17.4 17.4 0 0 0 4.02-1.9 16.3 16.3 0 0 0 3.67-3.23v3.63a16.1 16.1 0 0 1-1.78 1.9 19 19 0 0 1-2.73 2.07 17.8 17.8 0 0 1-3.51 1.67 12.9 12.9 0 0 1-4.12.63c-1.6 0-3.01-.29-4.24-.86a7 7 0 0 1-2.89-2.65 8.7 8.7 0 0 1-1.01-4.32v-3.06c0-2.19.65-3.88 1.95-5.07 1.34-1.23 3.2-1.84 5.57-1.84h13.88zm-42.79-11.48a19.1 19.1 0 0 1 5.29.75 18.1 18.1 0 0 1 5.02 2.19l-.28 3.05-4.63-1.27a19 19 0 0 0-4.29-.46c-1.56 0-2.82.29-3.78.86-.93.54-1.62 1.56-2.07 3.06-.44 1.5-.66 3.63-.66 6.4s.2 4.92.61 6.46c.44 1.54 1.13 2.61 2.06 3.23s2.12.92 3.57.92a9.6 9.6 0 0 0 2.89-.4 12.2 12.2 0 0 0 2.79-1.44l3.51-2.48.44 3.46c-1.48 1.42-3.17 2.63-5.07 3.63a12.9 12.9 0 0 1-6.12 1.5c-3.42 0-5.87-1.25-7.36-3.75-1.45-2.5-2.17-6.19-2.17-11.07 0-3.65.37-6.53 1.11-8.65.75-2.15 1.88-3.69 3.4-4.61s3.44-1.38 5.74-1.38zm14.15-11.59v40.36h-3.68l-.55-4.9-.51-.4v-19.26l.34-.87c-.15-1.08-.24-2.11-.28-3.11a79.6 79.6 0 0 1-.06-3.17v-8.65h4.74zm-32.11 12.29v28.08h-4.68v-28.08h4.68zm-1.22-11.93c.96 0 1.45.5 1.45 1.5v3.29c0 1-.49 1.5-1.45 1.5h-2.23c-.97 0-1.45-.5-1.45-1.5v-3.29c0-1 .48-1.5 1.45-1.5h2.23zm-26.59 11.23c1.79 0 3.55.25 5.3.75a18.2 18.2 0 0 1 5.01 2.19l-.28 3.05-4.62-1.27a19.1 19.1 0 0 0-4.29-.46 7.4 7.4 0 0 0-3.79.86c-.93.54-1.62 1.56-2.06 3.06-.45 1.5-.67 3.63-.67 6.4s.2 4.92.61 6.46c.45 1.54 1.14 2.61 2.06 3.23.93.62 2.12.92 3.57.92 1.08 0 2.04-.13 2.9-.4.89-.31 1.82-.79 2.78-1.44a66.4 66.4 0 0 0 3.51-2.48l.45 3.46a22.6 22.6 0 0 1-5.07 3.63c-1.9 1-3.94 1.5-6.13 1.5-3.42 0-5.87-1.25-7.35-3.75-1.45-2.5-2.18-6.19-2.18-11.07 0-3.65.38-6.53 1.12-8.65.74-2.15 1.87-3.69 3.4-4.61a10.9 10.9 0 0 1 5.73-1.38zm14.15-11.59v40.36h-3.67l-.56-4.9-.5-.4v-19.26l.33-.87c-.15-1.08-.24-2.11-.28-3.11l-.05-3.17v-8.65h4.73zm-39.04 11.6c4.9 0 7.35 2.58 7.35 7.72v21.04h-4.73v-19.66c0-1.88-.3-3.17-.9-3.86-.59-.73-1.59-1.09-3-1.09-1.68 0-3.35.42-5.02 1.27a73.1 73.1 0 0 0-5.96 3.46l-.22-3.52a29.1 29.1 0 0 1 6.29-3.92c2.08-.96 4.14-1.44 6.19-1.44zm-12.48.69l.39 5.36.33.87v21.85h-4.73v-28.08h4.01zm-21.78-.69a13.2 13.2 0 0 1 5.06.86c1.42.54 2.47 1.46 3.18 2.77s1.06 3.09 1.06 5.36v19.77h-3.73l-.73-6.11-.33-.63v-13.03c0-1.73-.39-2.96-1.17-3.69-.75-.77-2.19-1.15-4.35-1.15l-5.35.23-6.3.52-.45-3.63 4.12-.63 4.62-.46 4.35-.17zm7.07 11.47l-.06 3.69-12.98.06c-1.3.04-2.21.4-2.73 1.1-.52.65-.78 1.57-.78 2.77V132c0 1.46.33 2.54 1 3.23.67.65 1.75.98 3.23.98a12.5 12.5 0 0 0 3.51-.58 17.3 17.3 0 0 0 4.01-1.9 16.3 16.3 0 0 0 3.68-3.23v3.63a16.3 16.3 0 0 1-1.79 1.9 19 19 0 0 1-2.73 2.07 17.8 17.8 0 0 1-3.51 1.67 12.9 12.9 0 0 1-4.12.63 9.9 9.9 0 0 1-4.23-.86 7 7 0 0 1-2.9-2.65c-.67-1.19-1-2.63-1-4.32v-3.06c0-2.19.65-3.88 1.95-5.07 1.34-1.23 3.19-1.84 5.57-1.84h13.87z" fill="#1b1c17"/><path d="M967.17 99.41l4.18.12c1.19.08 2.26.21 3.23.4 1 .15 2.02.37 3.06.63l-.5 3.86-3.12-.29-3.01-.17-3.84-.06c-2.49 0-4.46.5-5.91 1.5s-2.49 2.67-3.12 5.02c-.6 2.34-.89 5.53-.89 9.57s.3 7.23.89 9.57c.63 2.34 1.67 4.02 3.12 5.02s3.42 1.5 5.91 1.5l5.96-.11 4.79-.52.5 3.81a29.9 29.9 0 0 1-4.96.98 47.5 47.5 0 0 1-6.3.35c-3.68 0-6.63-.65-8.86-1.96-2.19-1.35-3.79-3.52-4.79-6.51-.97-3-1.45-7.03-1.45-12.11s.48-9.11 1.45-12.11c1-3 2.6-5.15 4.79-6.46 2.23-1.34 5.18-2.02 8.86-2.02z" fill="#0668e1"/><path d="M944.64 123.47v3.75h-16.99v-3.75h16.99zm-32.77-11.65l.61 5.36.45.87v21.85h-4.74v-28.08h3.68zm13.32-.69l-.56 4.61h-1.56a12 12 0 0 0-4.79 1.04 63.7 63.7 0 0 0-5.85 2.82l-.39-3.06c2.01-1.69 4.01-3.02 6.02-3.98 2.04-.96 4.01-1.44 5.9-1.44h1.23zm-35.77 0c4.09 0 7.04.77 8.86 2.31 1.86 1.54 2.78 3.82 2.78 6.86.04 2.5-.46 4.46-1.5 5.88-1.04 1.38-2.69 2.08-4.96 2.08h-15.82v-3.8h14.6c1.23 0 2.02-.42 2.4-1.27a7.4 7.4 0 0 0 .56-2.88c-.04-1.81-.56-3.09-1.56-3.86s-2.71-1.15-5.12-1.15c-1.97 0-3.53.31-4.68.92-1.12.58-1.91 1.62-2.4 3.11-.45 1.46-.67 3.52-.67 6.17 0 3 .28 5.28.84 6.86a5.4 5.4 0 0 0 2.79 3.23c1.27.58 2.93.86 5.01.86l4.74-.17 4.68-.52.5 3.29a16.4 16.4 0 0 1-3.18.86l-3.84.52-3.51.17c-3.12 0-5.63-.48-7.52-1.44-1.89-1-3.29-2.58-4.18-4.73-.85-2.19-1.28-5.07-1.28-8.65 0-3.69.43-6.59 1.28-8.71.89-2.15 2.25-3.67 4.07-4.55 1.86-.92 4.23-1.38 7.13-1.38zm-16.25.68l-10.86 29.63a24.6 24.6 0 0 1-1.67 3.63c-.67 1.19-1.49 2.27-2.45 3.23-.93 1-2.04 1.81-3.34 2.42-1.26.61-2.73.96-4.4 1.04l-.45-3.23c2.19-.73 3.88-1.71 5.07-2.94s2.14-2.73 2.84-4.5l1.34-3.34.89-2.54.84-2.48 7.07-20.93h5.13zm-22.34 0l7.19 20.93.56 1.73a12.8 12.8 0 0 1 .45 1.67h1.28l-1.56 3.75h-1.45c-.37 0-.72-.12-1.06-.35-.3-.23-.5-.54-.61-.92l-9.86-26.81h5.07zm-21.58-.68c3.12 0 5.61.48 7.47 1.44a8.3 8.3 0 0 1 4.07 4.73c.82 2.15 1.23 5.02 1.23 8.59s-.41 6.46-1.23 8.65a8.3 8.3 0 0 1-4.07 4.67c-1.86.96-4.35 1.44-7.47 1.44-3.08 0-5.57-.48-7.47-1.44a8.6 8.6 0 0 1-4.07-4.67c-.82-2.19-1.23-5.07-1.23-8.65s.41-6.44 1.23-8.59c.85-2.19 2.21-3.77 4.07-4.73 1.89-.96 4.38-1.44 7.47-1.44zm0 4.15c-1.97 0-3.53.33-4.68.98a5.3 5.3 0 0 0-2.4 3.23c-.49 1.54-.72 3.67-.72 6.4s.24 4.86.72 6.4 1.28 2.63 2.4 3.29c1.15.62 2.71.92 4.68.92s3.53-.31 4.68-.92c1.15-.65 1.97-1.75 2.45-3.29s.72-3.67.72-6.4-.24-4.86-.72-6.4-1.3-2.61-2.45-3.23c-1.15-.65-2.71-.98-4.68-.98zm-23.23-15.75l-.05 32.63c0 1.23.31 2.17.95 2.82.67.62 1.6.92 2.78.92h2.62l.56 3.75a6.4 6.4 0 0 1-1.45.4 14.2 14.2 0 0 1-1.89.23l-1.62.12c-2.01 0-3.62-.62-4.85-1.84-1.19-1.23-1.78-3-1.78-5.3V99.53h4.74zm-21.57 11.6c3.31 0 5.68 1.27 7.13 3.81 1.45 2.5 2.17 6.19 2.17 11.07 0 3.61-.37 6.5-1.11 8.65-.74 2.11-1.87 3.63-3.4 4.56-1.49.92-3.4 1.38-5.74 1.38a19.1 19.1 0 0 1-5.29-.75c-1.71-.5-3.38-1.27-5.01-2.31l.28-2.94 4.62 1.27a18.7 18.7 0 0 0 4.23.46c1.6 0 2.86-.29 3.79-.86.97-.58 1.67-1.61 2.12-3.11s.67-3.61.67-6.34c0-2.65-.2-4.75-.61-6.28s-1.06-2.63-1.95-3.29c-.85-.69-2-1.04-3.45-1.04-1.49 0-2.95.36-4.4 1.1a32.9 32.9 0 0 0-5.07 3.34l-.45-3.29a16.5 16.5 0 0 1 3.4-2.88 16.2 16.2 0 0 1 3.96-1.85 13.3 13.3 0 0 1 4.12-.69zm-11.64.69l.5 5.82.33.75v17.99l-.22.69c.11 1.08.17 2.11.17 3.11a85.9 85.9 0 0 1 .05 3.17v8.13h-4.74v-39.67h3.9zm-19.66-.69c2.34 0 4.12.65 5.35 1.96 1.26 1.31 1.89 3.23 1.89 5.77v21.04h-4.68v-19.66c-.04-1.73-.37-2.98-1-3.75-.63-.81-1.71-1.21-3.23-1.21a7.5 7.5 0 0 0-2.78.52 13.5 13.5 0 0 0-2.84 1.5l-3.79 2.71-.28-3.46c1.97-1.81 3.88-3.15 5.74-4.03 1.86-.92 3.73-1.38 5.63-1.38zm-29.14.69l.33 5.36.5.87v21.85h-4.74v-28.08h3.9zm11.36-.69c2.3 0 4.07.65 5.29 1.96 1.23 1.27 1.86 3.19 1.89 5.77v21.04H738v-19.66c0-1.81-.35-3.07-1.06-3.8-.71-.77-1.76-1.15-3.18-1.15-.93 0-1.84.15-2.73.46a14.8 14.8 0 0 0-2.9 1.5L724.3 120l-.33-3.46c1.97-1.81 3.88-3.15 5.74-4.03 1.86-.92 3.75-1.38 5.68-1.38z" fill="#1b1c17"/><path d="M696.52 100.06h5.57l5.57.11 5.35.23-.22 3.98h-15.43c-1.15 0-2 .31-2.56.92-.52.58-.78 1.54-.78 2.88v23.64c0 1.34.26 2.32.78 2.94.56.62 1.41.92 2.56.92h15.43l.22 3.92-5.35.23-5.57.06-5.57.06c-2.27 0-4.07-.61-5.4-1.84-1.3-1.27-1.97-2.96-2.01-5.07v-26.06c.04-2.15.71-3.84 2.01-5.07 1.34-1.23 3.14-1.84 5.4-1.84zm-6.41 16.78h20.5v4.09h-20.5v-4.09z" fill="#0668e1"/><path d="M881.1 40.09v28.65c0 1.35.28 2.31.83 2.88s1.5.86 2.84.86h4.12l.56 3.75a19.4 19.4 0 0 1-2.06.4l-2.28.23-1.78.12c-2.27 0-3.99-.65-5.18-1.96s-1.78-3.19-1.78-5.65V40.09h4.74zm8.63 8.3v3.86h-18.27v-3.57l5.35-.29h12.92zm-31.11-.69l2.73.12a30.2 30.2 0 0 1 3.06.4c1.08.19 2.06.46 2.95.81l-.61 3.17-3.9-.23-3.45-.12c-2.15 0-3.86.31-5.13.92s-2.17 1.69-2.73 3.23-.84 3.67-.84 6.4.28 4.88.84 6.46c.56 1.54 1.47 2.61 2.73 3.23s2.97.92 5.13.92l2.17-.06 2.84-.17 2.95-.35.5 3.29a22.3 22.3 0 0 1-4.51 1.1 33.5 33.5 0 0 1-4.79.35c-3.12 0-5.63-.48-7.52-1.44s-3.27-2.52-4.12-4.67c-.82-2.15-1.23-5.03-1.23-8.65s.43-6.5 1.28-8.65 2.23-3.69 4.12-4.61c1.89-.96 4.4-1.44 7.52-1.44zm-30.36 0c4.09 0 7.04.77 8.86 2.31 1.86 1.54 2.78 3.82 2.78 6.86.04 2.5-.46 4.46-1.5 5.88-1.04 1.38-2.69 2.08-4.96 2.08h-15.82v-3.8h14.6c1.23 0 2.02-.42 2.4-1.27.37-.88.56-1.84.56-2.88-.04-1.81-.56-3.09-1.56-3.86s-2.71-1.15-5.12-1.15c-1.97 0-3.53.31-4.68.92-1.11.58-1.91 1.61-2.39 3.11-.45 1.46-.67 3.52-.67 6.17 0 3 .28 5.28.84 6.86.59 1.58 1.52 2.65 2.78 3.23s2.93.86 5.01.86l4.74-.17 4.68-.52.5 3.29c-.85.35-1.91.63-3.17.86l-3.84.52-3.51.17c-3.12 0-5.63-.48-7.52-1.44-1.89-1-3.29-2.58-4.18-4.73-.86-2.19-1.28-5.07-1.28-8.65 0-3.69.43-6.59 1.28-8.71.89-2.15 2.25-3.67 4.07-4.55 1.86-.92 4.23-1.38 7.13-1.38zm-27.02 0c4.9 0 7.35 2.58 7.35 7.73v21.04h-4.74V56.81c0-1.88-.3-3.17-.89-3.86-.59-.73-1.6-1.1-3.01-1.1a11 11 0 0 0-5.01 1.27c-1.67.85-3.66 2-5.96 3.46l-.22-3.52c2.12-1.69 4.22-3 6.3-3.92 2.08-.96 4.14-1.44 6.18-1.44zm-12.48.69l.39 5.36.33.86v21.85h-4.74V48.39h4.01zm-19.89-.69c4.9 0 7.35 2.58 7.35 7.73v21.04h-4.74V56.8c0-1.88-.3-3.17-.89-3.86-.6-.73-1.6-1.1-3.01-1.1a11 11 0 0 0-5.01 1.27 72.8 72.8 0 0 0-5.96 3.46l-.22-3.52c2.12-1.69 4.22-3 6.29-3.92 2.08-.96 4.14-1.44 6.18-1.44zm-12.48.69l.39 5.36.33.86v21.85h-4.74V48.39h4.01zm-24.21-.69c3.12 0 5.61.48 7.47 1.44a8.3 8.3 0 0 1 4.07 4.73c.82 2.15 1.23 5.02 1.23 8.59s-.41 6.46-1.23 8.65a8.3 8.3 0 0 1-4.07 4.67c-1.86.96-4.35 1.44-7.47 1.44-3.08 0-5.57-.48-7.46-1.44a8.6 8.6 0 0 1-4.07-4.67c-.82-2.19-1.23-5.07-1.23-8.65s.41-6.44 1.23-8.59c.85-2.19 2.21-3.77 4.07-4.73 1.89-.96 4.38-1.44 7.46-1.44zm0 4.15c-1.97 0-3.53.33-4.68.98-1.12.61-1.91 1.69-2.4 3.23s-.72 3.67-.72 6.4.24 4.86.72 6.4 1.28 2.63 2.4 3.29c1.15.61 2.71.92 4.68.92s3.53-.31 4.68-.92c1.15-.65 1.97-1.75 2.45-3.29s.72-3.67.72-6.4-.24-4.86-.72-6.4-1.3-2.61-2.45-3.23c-1.15-.65-2.71-.98-4.68-.98zM703.1 36l4.18.12c1.19.08 2.27.21 3.23.4 1 .15 2.02.37 3.06.63l-.5 3.86-3.12-.29-3.01-.17-3.84-.06c-2.49 0-4.46.5-5.9 1.5s-2.49 2.67-3.12 5.02c-.59 2.34-.89 5.53-.89 9.57s.3 7.23.89 9.57c.63 2.34 1.67 4.02 3.12 5.02s3.42 1.5 5.9 1.5l5.96-.12 4.79-.52.5 3.8a29.8 29.8 0 0 1-4.96.98c-1.67.23-3.77.35-6.3.35-3.68 0-6.63-.65-8.86-1.96-2.19-1.35-3.79-3.52-4.79-6.51-.97-3-1.45-7.03-1.45-12.11s.48-9.11 1.45-12.11c1-3 2.6-5.15 4.79-6.46 2.23-1.35 5.18-2.02 8.86-2.02z" fill="#1b1c17"/></svg>