<svg xmlns="http://www.w3.org/2000/svg" width="941" height="168" fill="none" xmlns:v="https://vecta.io/nano"><path d="M36.9 42.98l16.66.14a303.8 303.8 0 0 1 16.24.42c5.23.19 9.99.56 14.28 1.12l-2.94 18.62H46.42c-2.52 0-4.39.47-5.6 1.4-1.12.93-1.87 2.61-2.24 5.04l-6.16 44.1c-.28 2.05.05 3.64.98 4.76.93 1.03 2.57 1.54 4.9 1.54h34.44l-.42 18.9c-4.39.56-9.19.89-14.42.98l-15.82.28-15.26.14c-7.75 0-13.44-2.29-17.08-6.86-3.55-4.57-4.85-10.5-3.92-17.78l7.28-52.5c.93-6.25 3.41-11.2 7.42-14.84 4.11-3.64 9.57-5.46 16.38-5.46zM13.24 81.34H73.3l-2.24 17.78H10.44l2.8-17.78zM147.79 43.4a8 8 0 0 1 5.46 2.1c1.68 1.4 2.66 3.13 2.94 5.18L169.91 140h-26.32l-7-66.92a104.5 104.5 0 0 1-.42-5.18v-5.04h-3.92l-1.26 4.76a34.1 34.1 0 0 1-1.82 5.18L102.71 140h-27.3l38.92-90.3a8.9 8.9 0 0 1 3.5-4.62 10.1 10.1 0 0 1 5.74-1.68h24.22zm5.88 54.46l-2.24 19.46h-50.4l2.38-19.46h50.26zm70.29-56.42a175.4 175.4 0 0 1 16.52 1.12 84.8 84.8 0 0 1 16.66 3.5L254.9 63a307 307 0 0 0-9.8-.14l-11.2-.14-11.48-.14c-1.96 0-3.69.09-5.18.28a10.3 10.3 0 0 0-3.64.84c-.93.37-1.68.98-2.24 1.82s-.98 1.96-1.26 3.36c-.09 1.21 0 2.29.28 3.22s.93 1.77 1.96 2.52a46.6 46.6 0 0 0 4.76 2.66l16.8 7.56c5.23 2.33 9.15 4.85 11.76 7.56 2.71 2.71 4.43 5.83 5.18 9.38.84 3.55.98 7.7.42 12.46-.93 7.28-2.8 12.93-5.6 16.94-2.71 4.01-6.77 6.81-12.18 8.4s-12.6 2.38-21.56 2.38c-3.83 0-8.96-.33-15.4-.98a134.5 134.5 0 0 1-20.44-3.5l2.52-18.34 14.56.42 11.06.28h6.44c3.45 0 6.16-.19 8.12-.56 2.05-.37 3.55-1.03 4.48-1.96 1.03-1.03 1.68-2.38 1.96-4.06.28-1.49.28-2.66 0-3.5s-.89-1.59-1.82-2.24-2.24-1.35-3.92-2.1l-18.06-8.26c-5.13-2.52-9.05-5.23-11.76-8.12-2.61-2.89-4.29-6.07-5.04-9.52a35.9 35.9 0 0 1-.42-11.48c.65-5.32 1.91-9.71 3.78-13.16a21.2 21.2 0 0 1 7.7-7.98c3.27-1.96 7.23-3.36 11.9-4.2 4.76-.84 10.22-1.26 16.38-1.26zm129.63 1.96l-41.72 66.92h-25.06L263.85 43.4h26.32l8.96 33.18a36.1 36.1 0 0 1 1.12 7.14 73 73 0 0 1 .28 6.3h1.82c.37-1.87.93-4.01 1.68-6.44.84-2.43 1.82-4.71 2.94-6.86l18.62-33.32h28zm-39.2 51.66L308.23 140h-26.46l6.3-44.94h26.32zm100.67-50.82L412.3 64h-5.84l2.72-19.76h5.88zm-.6-8.72c.64 0 1.09.16 1.36.48.29.32.4.79.32 1.4l-.28 2.16c-.16 1.09-.81 1.64-1.96 1.64h-2.4c-1.25 0-1.81-.63-1.68-1.88l.28-2.12a1.7 1.7 0 0 1 1.92-1.68h2.44zm12.9 8.2l3.16.12 3.24.28 2.76.36-.56 3.64-3.84-.04-3.84-.04-2.44.08c-.59.03-1.01.12-1.28.28s-.43.44-.48.84c-.05.48.08.85.4 1.12.35.27.93.55 1.76.84l4.92 1.76a9.4 9.4 0 0 1 2.56 1.32c.67.51 1.13 1.13 1.4 1.88.29.75.37 1.65.24 2.72-.19 1.6-.69 2.8-1.52 3.6-.8.77-1.88 1.29-3.24 1.56-1.33.27-2.96.4-4.88.4a49.9 49.9 0 0 1-2.92-.08l-2.72-.24-3.2-.4.56-3.68 1.8.08 2.32.04h2.36l3.48-.16a4.5 4.5 0 0 0 1.68-.4 1.2 1.2 0 0 0 .6-.92c.05-.35 0-.61-.16-.8-.13-.19-.39-.36-.76-.52l-1.4-.56-4.84-1.8c-1.07-.4-1.93-.88-2.6-1.44a4.6 4.6 0 0 1-1.32-2.04c-.24-.8-.29-1.71-.16-2.72.19-1.23.59-2.21 1.2-2.96.64-.75 1.59-1.28 2.84-1.6a18.8 18.8 0 0 1 4.88-.52zm30.22-4.96l-2.72 19.04c-.11.72-.04 1.21.2 1.48s.75.4 1.52.4h2.68l.28 4.04a12.1 12.1 0 0 1-1.84.4l-2.04.24-1.64.08c-1.84 0-3.23-.49-4.16-1.48s-1.28-2.33-1.04-4.04l2.92-20.16h5.84zm4.72 5.48l-.56 3.88H446.9l.44-3.68 3.88-.2h11.08zm16.65-.52c1.84 0 3.2.48 4.08 1.44.91.96 1.23 2.35.96 4.16L481.91 64h-5.88l1.84-13.08c.13-.88.09-1.47-.12-1.76s-.65-.44-1.32-.44a6.1 6.1 0 0 0-2.92.8 23.8 23.8 0 0 0-3.6 2.52l-.68-3c1.79-1.81 3.48-3.15 5.08-4 1.63-.88 3.17-1.32 4.64-1.32zM472.51 36l-.96 6.96a24.3 24.3 0 0 1-.76 3.68l-.88 2.84.6.48L468.59 64h-5.92l3.96-28h5.88zm26.15 7.72c2.43 0 4.29.27 5.6.8 1.33.51 2.23 1.27 2.68 2.28s.56 2.27.32 3.76c-.19 1.23-.6 2.2-1.24 2.92-.61.69-1.47 1.21-2.56 1.56a18.6 18.6 0 0 1-4.16.72l-10.08.84.44-3.24 8.52-.84c.72-.08 1.31-.19 1.76-.32.45-.16.81-.4 1.08-.72.27-.35.45-.84.56-1.48.08-.64.03-1.11-.16-1.4-.19-.32-.52-.52-1-.6a9.2 9.2 0 0 0-1.92-.16c-.83 0-1.52.09-2.08.28-.56.16-1.03.45-1.4.88a4.6 4.6 0 0 0-.92 1.76 22.6 22.6 0 0 0-.68 2.92c-.27 1.73-.31 3.04-.12 3.92s.6 1.47 1.24 1.76 1.53.44 2.68.44l2.32-.04 2.76-.16 2.6-.24.4 3.68a14.2 14.2 0 0 1-2.72.84 23.8 23.8 0 0 1-3.08.44l-2.92.16c-2.64 0-4.69-.4-6.16-1.2a5.9 5.9 0 0 1-2.88-3.56c-.45-1.6-.55-3.57-.28-5.92.24-2.03.64-3.69 1.2-5a7.9 7.9 0 0 1 2.24-3.04c.93-.75 2.05-1.27 3.36-1.56a19.8 19.8 0 0 1 4.6-.48zm29.57-7.32L524.34 64h-6.08l3.88-27.6h6.08zm15.72-.4c2.91 0 5.21.44 6.92 1.32 1.73.85 2.89 2.33 3.48 4.44.59 2.08.61 4.96.08 8.64a35.6 35.6 0 0 1-1.6 7.08c-.67 1.81-1.52 3.23-2.56 4.24-1.04.99-2.35 1.68-3.92 2.08-1.57.37-3.45.56-5.64.56a127 127 0 0 1-5.6-.12l-5.2-.24 3-4.52 3.64.16 4.08.04a10.1 10.1 0 0 0 2.88-.36c.83-.27 1.52-.75 2.08-1.44.59-.69 1.07-1.67 1.44-2.92a32.8 32.8 0 0 0 1.04-5 34.6 34.6 0 0 0 .4-4.64c0-1.23-.16-2.17-.48-2.84-.32-.69-.83-1.16-1.52-1.4a7.5 7.5 0 0 0-2.72-.4h-2.6-2.68l-2.36.04-2.32-4.32 3.2-.2 3.48-.16 3.48-.04zm-4.04.4L536.02 64h-6.12l3.88-27.6h6.12zm26.59-.12l4.48.04 4.44.08 4 .28-.72 4.44h-10.32c-.77 0-1.35.16-1.72.48s-.61.88-.72 1.68l-1.92 13.92c-.11.69-.01 1.21.28 1.56s.81.52 1.56.52h10.2l-.12 4.44-3.96.28-4.24.04-4.12.04c-2.16 0-3.73-.6-4.72-1.8-.96-1.2-1.32-2.77-1.08-4.72l2.24-15.84c.24-1.68.91-3 2-3.96 1.09-.99 2.57-1.48 4.44-1.48zm-6.52 11.24h16.28l-.52 4.24h-16.4l.64-4.24zm37.01-11.12c.51 0 .95.16 1.32.48s.59.73.64 1.24L603.3 64h-6.08l-2.72-20.36-.12-1.36-.04-1.36h-1.16l-.44 1.32-.48 1.36-8.52 20.4h-6.36l11.64-26.12c.19-.51.47-.88.84-1.12a2.6 2.6 0 0 1 1.36-.36h5.76zm2.12 15.68l-.56 4.68H584.3l.56-4.68h14.24z" fill="#1b1c17"/><path d="M653.95 36.4l-7.52 25.72c-.16.61-.48 1.08-.96 1.4-.45.32-1.03.48-1.72.48h-6.52a2.7 2.7 0 0 1-1.72-.6c-.48-.43-.71-.96-.68-1.6l-.12-16.12.04-1.96.08-1.96h-.76l-.4 1.96-.48 1.92-4.68 16.48c-.16.59-.48 1.05-.96 1.4-.48.32-1.05.48-1.72.48h-6.64c-.67 0-1.25-.2-1.76-.6-.48-.43-.71-.95-.68-1.56l-.4-25.44h7.4l-.52 18.08-.12 2.04-.12 2.32h.76l.52-2.4.6-2.24 4.56-15.68c.37-1.41 1.28-2.12 2.72-2.12h5.52a2.2 2.2 0 0 1 1.68.68c.45.45.68 1.03.68 1.72l.36 15.72v2.16l-.04 2.16h.8l.4-2.32.48-2.2 4.52-17.92h7.4zm11.07 7.16c2.61 0 4.63.28 6.04.84 1.44.56 2.4 1.37 2.88 2.44a6.6 6.6 0 0 1 .4 3.92 4.9 4.9 0 0 1-1.24 2.84c-.64.67-1.53 1.17-2.68 1.52a23.1 23.1 0 0 1-4.36.68l-10.36.84.48-3.64 8.2-.84a9.1 9.1 0 0 0 1.52-.24c.43-.13.76-.33 1-.6.27-.29.43-.72.48-1.28.08-.45.05-.8-.08-1.04s-.39-.4-.76-.48a5 5 0 0 0-1.56-.12 5.1 5.1 0 0 0-1.68.24c-.45.16-.84.43-1.16.8-.29.35-.55.87-.76 1.56a26.8 26.8 0 0 0-.56 2.64 12.2 12.2 0 0 0-.2 3.36c.13.75.47 1.24 1 1.48.56.24 1.33.36 2.32.36l2.32-.04 2.92-.16 2.72-.24.52 4.48c-.88.37-1.84.69-2.88.96-1.04.24-2.09.4-3.16.48l-3.12.16c-2.85 0-5.05-.4-6.6-1.2a6.1 6.1 0 0 1-3.08-3.6c-.51-1.6-.64-3.55-.4-5.84.24-2.08.65-3.79 1.24-5.12a7.8 7.8 0 0 1 2.36-3.12c.99-.75 2.16-1.27 3.52-1.56 1.39-.32 2.96-.48 4.72-.48zm34.12-7.48c2.37 0 4.28.23 5.72.68 1.47.43 2.48 1.19 3.04 2.28.59 1.07.75 2.57.48 4.52-.27 1.89-.81 3.33-1.64 4.32-.8.96-2.13 1.52-4 1.68l-.04.24c2.16.19 3.6.93 4.32 2.24.75 1.31.96 3.09.64 5.36-.24 1.84-.76 3.27-1.56 4.28-.77 1.01-1.88 1.71-3.32 2.08s-3.28.56-5.52.56a281.4 281.4 0 0 1-5.12-.04 89.8 89.8 0 0 1-3.96-.08l-3.68-.2 1.08-5.12 3.8.08 6.48.04c.99 0 1.77-.09 2.36-.28.59-.21 1.03-.57 1.32-1.08.29-.53.51-1.29.64-2.28.13-.91.13-1.59 0-2.04-.11-.48-.39-.81-.84-1-.43-.19-1.08-.28-1.96-.28h-10.64l.64-4.68h10.16c.85 0 1.52-.08 2-.24.48-.19.84-.52 1.08-1 .27-.48.47-1.17.6-2.08.08-.69.07-1.23-.04-1.6s-.35-.64-.72-.8a4.2 4.2 0 0 0-1.6-.24h-4.28l-3.28.04-2.8.08-.12-5.12 3.2-.2 3.4-.08 4.16-.04zm-3.44.32L691.82 64h-7.32l3.88-27.6h7.32zm26.9 7.16c2.61 0 4.63.28 6.04.84 1.44.56 2.4 1.37 2.88 2.44a6.6 6.6 0 0 1 .4 3.92 4.9 4.9 0 0 1-1.24 2.84c-.64.67-1.53 1.17-2.68 1.52a23.1 23.1 0 0 1-4.36.68l-10.36.84.48-3.64 8.2-.84a9.1 9.1 0 0 0 1.52-.24c.43-.13.76-.33 1-.6.27-.29.43-.72.48-1.28.08-.45.05-.8-.08-1.04s-.39-.4-.76-.48a5 5 0 0 0-1.56-.12 5.1 5.1 0 0 0-1.68.24c-.45.16-.84.43-1.16.8-.29.35-.55.87-.76 1.56a26.8 26.8 0 0 0-.56 2.64 12.2 12.2 0 0 0-.2 3.36c.13.75.47 1.24 1 1.48.56.24 1.33.36 2.32.36l2.32-.04 2.92-.16 2.72-.24.52 4.48c-.88.37-1.84.69-2.88.96-1.04.24-2.09.4-3.16.48l-3.12.16c-2.85 0-5.05-.4-6.6-1.2a6.1 6.1 0 0 1-3.08-3.6c-.51-1.6-.64-3.55-.4-5.84.24-2.08.65-3.79 1.24-5.12a7.8 7.8 0 0 1 2.36-3.12c.99-.75 2.16-1.27 3.52-1.56 1.39-.32 2.96-.48 4.72-.48zm21.8-7.56l-3.04 21.28c-.11.61-.04 1.03.2 1.24s.75.32 1.52.32h1.68l.4 4.84c-.4.19-.93.33-1.6.44a17.2 17.2 0 0 1-2 .28l-1.64.12c-2.05 0-3.63-.49-4.72-1.48-1.07-1.01-1.49-2.39-1.28-4.12L737.17 36h7.24zm12.75 8.12L754.39 64h-7.24l2.76-19.88h7.24zm-1.04-8.96c.77 0 1.33.19 1.68.56s.48.95.4 1.72l-.28 2.12c-.16 1.33-.96 2-2.4 2h-2.88c-1.55 0-2.23-.76-2.04-2.28l.28-2.12c.13-1.33.92-2 2.36-2h2.88zm15.04 8.4c2.61 0 4.63.28 6.04.84 1.44.56 2.4 1.37 2.88 2.44.51 1.04.64 2.35.4 3.92a4.9 4.9 0 0 1-1.24 2.84c-.64.67-1.53 1.17-2.68 1.52a23.1 23.1 0 0 1-4.36.68l-10.36.84.48-3.64 8.2-.84a9.1 9.1 0 0 0 1.52-.24c.43-.13.76-.33 1-.6.27-.29.43-.72.48-1.28.08-.45.05-.8-.08-1.04s-.39-.4-.76-.48a5 5 0 0 0-1.56-.12 5.1 5.1 0 0 0-1.68.24c-.45.16-.84.43-1.16.8-.29.35-.55.87-.76 1.56-.19.67-.37 1.55-.56 2.64-.24 1.49-.31 2.61-.2 3.36.13.75.47 1.24 1 1.48.56.24 1.33.36 2.32.36l2.32-.04 2.92-.16 2.72-.24.52 4.48c-.88.37-1.84.69-2.88.96a21 21 0 0 1-3.16.48l-3.12.16c-2.85 0-5.05-.4-6.6-1.2a6.1 6.1 0 0 1-3.08-3.6c-.51-1.6-.64-3.55-.4-5.84a18 18 0 0 1 1.24-5.12 7.8 7.8 0 0 1 2.36-3.12c.99-.75 2.16-1.27 3.52-1.56 1.39-.32 2.96-.48 4.72-.48zm33.69.56l-.64 3.28-.8 3.16-.92 2.76a40.6 40.6 0 0 1-1.72 4.28l-1.44 2.72c-.59 1.04-1.2 1.83-1.84 2.36a5.4 5.4 0 0 1-2.16 1.04c-.8.19-1.76.28-2.88.28h-5.28c-.53 0-1-.17-1.4-.52-.4-.37-.63-.81-.68-1.32l-2.48-18.04h7.92l.56 15.36h.44c.53 0 .93-.13 1.2-.4a7.4 7.4 0 0 0 1-1.84l.88-2.24c.32-.85.63-1.85.92-3 .4-1.44.71-2.84.92-4.2l.52-3.68h7.88zm12.87-.56c2.61 0 4.63.28 6.04.84 1.44.56 2.4 1.37 2.88 2.44.51 1.04.64 2.35.4 3.92a4.9 4.9 0 0 1-1.24 2.84c-.64.67-1.53 1.17-2.68 1.52a23.1 23.1 0 0 1-4.36.68l-10.36.84.48-3.64 8.2-.84a9.1 9.1 0 0 0 1.52-.24c.43-.13.76-.33 1-.6.27-.29.43-.72.48-1.28.08-.45.05-.8-.08-1.04s-.39-.4-.76-.48a5 5 0 0 0-1.56-.12 5.1 5.1 0 0 0-1.68.24c-.45.16-.84.43-1.16.8-.29.35-.55.87-.76 1.56-.19.67-.37 1.55-.56 2.64a12.2 12.2 0 0 0-.2 3.36c.13.75.47 1.24 1 1.48.56.24 1.33.36 2.32.36l2.32-.04 2.92-.16 2.72-.24.52 4.48c-.88.37-1.84.69-2.88.96a21 21 0 0 1-3.16.48l-3.12.16c-2.85 0-5.05-.4-6.6-1.2a6.1 6.1 0 0 1-3.08-3.6c-.51-1.6-.64-3.55-.4-5.84.24-2.08.65-3.79 1.24-5.12a7.8 7.8 0 0 1 2.36-3.12c.99-.75 2.16-1.27 3.52-1.56 1.39-.32 2.96-.48 4.72-.48zm29.28.56L844.24 64H837l2.76-19.88H847zm-1.04-8.96c.77 0 1.33.19 1.68.56s.48.95.4 1.72l-.28 2.12c-.16 1.33-.96 2-2.4 2h-2.88c-1.55 0-2.23-.76-2.04-2.28l.28-2.12c.13-1.33.92-2 2.36-2h2.88zm19.96 8.4a6.2 6.2 0 0 1 2.88.64 4 4 0 0 1 1.84 1.92c.43.83.55 1.87.36 3.12L868.92 64h-7.28l1.76-12.44c.11-.72.07-1.21-.12-1.48-.19-.29-.59-.41-1.2-.36-.67 0-1.4.2-2.2.6s-1.76 1.05-2.88 1.96l-1.08-3.24c1.44-1.71 3.04-3.04 4.8-4 1.79-.99 3.52-1.48 5.2-1.48zm-8.96.56l.12 5.28.64.52L855.76 64h-7.28l2.76-19.88h5.72zm27.69-7.92l-1.4 10-2 8.88h-5.68l.48-8.88 1.4-10h7.2zm-6 21c.83 0 1.47.23 1.92.68.45.43.61 1.08.48 1.96l-.24 1.8c-.11.8-.39 1.4-.84 1.8-.43.37-1.08.56-1.96.56h-1.44c-1.81 0-2.61-.88-2.4-2.64l.24-1.8c.21-1.57 1.15-2.36 2.8-2.36h1.44z" fill="#0668e1"/><path d="M415.06 116.24L412.3 136h-5.84l2.72-19.76h5.88zm-.6-8.72c.64 0 1.09.16 1.36.48.29.32.4.79.32 1.4l-.28 2.16c-.16 1.09-.81 1.64-1.96 1.64h-2.4c-1.25 0-1.81-.63-1.68-1.88l.28-2.12a1.7 1.7 0 0 1 1.92-1.68h2.44zm12.9 8.2l3.16.12 3.24.28 2.76.36-.56 3.64-3.84-.04-3.84-.04-2.44.08c-.59.03-1.01.12-1.28.28s-.43.44-.48.84c-.05.48.08.85.4 1.12.35.27.93.55 1.76.84l4.92 1.76c1.04.37 1.89.81 2.56 1.32s1.13 1.13 1.4 1.88c.29.75.37 1.65.24 2.72-.19 1.6-.69 2.8-1.52 3.6-.8.77-1.88 1.29-3.24 1.56-1.33.27-2.96.4-4.88.4-1.04 0-2.01-.03-2.92-.08l-2.72-.24-3.2-.4.56-3.68 1.8.08 2.32.04h2.36l3.48-.16a4.5 4.5 0 0 0 1.68-.4c.35-.21.55-.52.6-.92.05-.35 0-.61-.16-.8-.13-.19-.39-.36-.76-.52l-1.4-.56-4.84-1.8c-1.07-.4-1.93-.88-2.6-1.44a4.6 4.6 0 0 1-1.32-2.04c-.24-.8-.29-1.71-.16-2.72.19-1.23.59-2.21 1.2-2.96.64-.75 1.59-1.28 2.84-1.6 1.25-.35 2.88-.52 4.88-.52zm30.22-4.96l-2.72 19.04c-.11.72-.04 1.21.2 1.48s.75.4 1.52.4h2.68l.28 4.04c-.51.16-1.12.29-1.84.4l-2.04.24-1.64.08c-1.84 0-3.23-.49-4.16-1.48s-1.28-2.33-1.04-4.04l2.92-20.16h5.84zm4.72 5.48l-.56 3.88H446.9l.44-3.68 3.88-.2h11.08zm16.65-.52c1.84 0 3.2.48 4.08 1.44.91.96 1.23 2.35.96 4.16L481.91 136h-5.88l1.84-13.08c.13-.88.09-1.47-.12-1.76s-.65-.44-1.32-.44a6.1 6.1 0 0 0-2.92.8c-.99.53-2.19 1.37-3.6 2.52l-.68-3c1.79-1.81 3.48-3.15 5.08-4 1.63-.88 3.17-1.32 4.64-1.32zm-6.44-7.72l-.96 6.96a24.3 24.3 0 0 1-.76 3.68l-.88 2.84.6.48-1.92 14.04h-5.92l3.96-28h5.88zm26.15 7.72c2.43 0 4.29.27 5.6.8 1.33.51 2.23 1.27 2.68 2.28s.56 2.27.32 3.76c-.19 1.23-.6 2.2-1.24 2.92-.61.69-1.47 1.21-2.56 1.56a19 19 0 0 1-4.16.72l-10.08.84.44-3.24 8.52-.84a10.6 10.6 0 0 0 1.76-.32c.45-.16.81-.4 1.08-.72.27-.35.45-.84.56-1.48.08-.64.03-1.11-.16-1.4-.19-.32-.52-.52-1-.6-.48-.11-1.12-.16-1.92-.16-.83 0-1.52.09-2.08.28-.56.16-1.03.45-1.4.88-.37.4-.68.99-.92 1.76-.24.75-.47 1.72-.68 2.92-.27 1.73-.31 3.04-.12 3.92s.6 1.47 1.24 1.76a6.6 6.6 0 0 0 2.68.44l2.32-.04 2.76-.16 2.6-.24.4 3.68c-.8.35-1.71.63-2.72.84s-2.04.36-3.08.44l-2.92.16c-2.64 0-4.69-.4-6.16-1.2a5.9 5.9 0 0 1-2.88-3.56c-.45-1.6-.55-3.57-.28-5.92.24-2.03.64-3.69 1.2-5 .59-1.31 1.33-2.32 2.24-3.04.93-.75 2.05-1.27 3.36-1.56a19.8 19.8 0 0 1 4.6-.48zm28.93-7.44l4.48.04 4.44.08 4 .28-.72 4.44h-10.32c-.77 0-1.35.16-1.72.48s-.61.88-.72 1.68l-1.92 13.92c-.11.69-.01 1.21.28 1.56s.81.52 1.56.52h10.2l-.12 4.44-3.96.28-4.24.04-4.12.04c-2.16 0-3.73-.6-4.72-1.8-.96-1.2-1.32-2.77-1.08-4.72l2.24-15.84c.24-1.68.91-3 2-3.96 1.09-.99 2.57-1.48 4.44-1.48zm-6.52 11.24h16.28l-.52 4.24h-16.4l.64-4.24zm28.21-11.12l4.56 13.96-8.44 13.64h-6.64l9.28-14.2-4.76-13.4h6zm7.16 11.48l-.52 3.76h-6.28l.56-3.76h6.24zm10.6-11.48l-8.68 13.4 5.24 14.2h-6.04l-4.88-14.84 8-12.76h6.36zm13.87-.4c2.48 0 4.44.29 5.88.88a4.8 4.8 0 0 1 2.92 2.88c.53 1.33.63 3.16.28 5.48-.32 2.37-.87 4.2-1.64 5.48-.75 1.25-1.81 2.12-3.2 2.6a18.1 18.1 0 0 1-5.48.68 37.9 37.9 0 0 1-3.52-.16l-3.2-.4-2.56-.52a6.3 6.3 0 0 1-1.44-.52l.24-2.96h5 5.04a7.1 7.1 0 0 0 2.52-.36c.64-.24 1.12-.69 1.44-1.36.35-.67.61-1.64.8-2.92.16-1.12.16-1.97 0-2.56-.13-.61-.47-1.04-1-1.28-.51-.24-1.25-.36-2.24-.36l-6.36.04-3.52.16-.2-4.4 3.12-.28 3.08-.08 4.04-.04zm-4.16.4l-3.88 27.6h-6.08l3.88-27.6h6.08zm23.93-.12l4.48.04 4.44.08 4 .28-.72 4.44h-10.32c-.77 0-1.35.16-1.72.48s-.61.88-.72 1.68l-1.92 13.92c-.11.69-.01 1.21.28 1.56s.81.52 1.56.52h10.2l-.12 4.44-3.96.28-4.24.04-4.12.04c-2.16 0-3.73-.6-4.72-1.8-.96-1.2-1.32-2.77-1.08-4.72l2.24-15.84c.24-1.68.91-3 2-3.96 1.09-.99 2.57-1.48 4.44-1.48zm-6.52 11.24h16.28l-.52 4.24h-16.4l.64-4.24zM628.4 108c2.24 0 4.11.25 5.6.76s2.56 1.37 3.2 2.6c.67 1.23.85 2.92.56 5.08a10.9 10.9 0 0 1-.92 3.24 5.5 5.5 0 0 1-1.92 2.28c-.85.56-1.97.92-3.36 1.08l-.04.24c.48.08.95.28 1.4.6a4.3 4.3 0 0 1 1.2 1.36c.35.56.57 1.32.68 2.28l1.4 8.48h-6.28l-1.16-8.56c-.11-.91-.35-1.51-.72-1.8-.35-.29-.89-.44-1.64-.44l-4.68-.04-3.08-.04-2.24-.08.52-4.44h9.92c1.07 0 1.92-.12 2.56-.36s1.13-.67 1.48-1.28c.37-.64.64-1.52.8-2.64a5.5 5.5 0 0 0-.04-2.24c-.16-.56-.51-.95-1.04-1.16s-1.29-.32-2.28-.32l-6.48.04-3.52.12-.2-4.36 3.16-.28 3.16-.08 3.96-.04zm-4.32.4L620.2 136h-5.96l3.88-27.6h5.96zm25.9 0L646.1 136h-6.08l3.88-27.6h6.08zm11.04-.12l4.48.04 4.44.08 4 .28-.72 4.44H662.9c-.77 0-1.35.16-1.72.48s-.61.88-.72 1.68l-1.92 13.92c-.11.69-.01 1.21.28 1.56s.81.52 1.56.52h10.2l-.12 4.44-3.96.28-4.24.04-4.12.04c-2.16 0-3.73-.6-4.72-1.8-.96-1.2-1.32-2.77-1.08-4.72l2.24-15.84c.24-1.68.91-3 2-3.96 1.09-.99 2.57-1.48 4.44-1.48zm-6.52 11.24h16.28l-.52 4.24h-16.4l.64-4.24zm47.13-11.12l-3.6 25.52c-.11.72-.33 1.25-.68 1.6-.35.32-.88.48-1.6.48h-3.04c-.67 0-1.15-.17-1.44-.52s-.57-.83-.84-1.44l-5.8-14.52a13.1 13.1 0 0 1-.72-1.92l-.52-2.12h-.48l-.08 2.16-.2 2.2-2.28 16.16h-5.76l3.6-25.52c.11-.72.33-1.24.68-1.56.37-.35.92-.52 1.64-.52h3c.64 0 1.11.17 1.4.52s.57.81.84 1.4l5.68 14.04a22.2 22.2 0 0 1 .76 2.04c.27.72.51 1.49.72 2.32h.52l.04-2.24c.03-.69.09-1.4.2-2.12l2.24-15.96h5.72zm15.99-.48l3.36.12a22.8 22.8 0 0 1 2.56.28c.8.13 1.6.32 2.4.56l-.8 4.48-2.44-.12-2.36-.08-2.96-.04c-1.04 0-1.92.13-2.64.4-.72.24-1.35.69-1.88 1.36-.51.64-.93 1.57-1.28 2.8a32.8 32.8 0 0 0-.88 4.72c-.32 2.32-.44 4.12-.36 5.4.11 1.28.48 2.17 1.12 2.68.67.51 1.68.76 3.04.76l4.68-.08 3.68-.28.28 4.52a26.6 26.6 0 0 1-4 .8c-1.33.19-2.95.28-4.84.28-2.85 0-5.09-.48-6.72-1.44s-2.71-2.51-3.24-4.64c-.51-2.13-.51-4.95 0-8.44a35.1 35.1 0 0 1 1.52-6.76c.64-1.81 1.47-3.25 2.48-4.32s2.28-1.83 3.8-2.28 3.35-.68 5.48-.68zm18.4.36l4.48.04 4.44.08 4 .28-.72 4.44H737.9c-.77 0-1.35.16-1.72.48s-.61.88-.72 1.68l-1.92 13.92c-.11.69-.01 1.21.28 1.56s.81.52 1.56.52h10.2l-.12 4.44-3.96.28-4.24.04-4.12.04c-2.16 0-3.73-.6-4.72-1.8-.96-1.2-1.32-2.77-1.08-4.72l2.24-15.84c.24-1.68.91-3 2-3.96 1.09-.99 2.57-1.48 4.44-1.48zm-6.52 11.24h16.28l-.52 4.24h-16.4l.64-4.24z" fill="#1b1c17"/><path d="M797.51 108.4l-7.52 25.72c-.16.61-.48 1.08-.96 1.4-.45.32-1.03.48-1.72.48h-6.52a2.7 2.7 0 0 1-1.72-.6c-.48-.43-.71-.96-.68-1.6l-.12-16.12.04-1.96.08-1.96h-.76l-.4 1.96-.48 1.92-4.68 16.48c-.16.59-.48 1.05-.96 1.4-.48.32-1.05.48-1.72.48h-6.64c-.67 0-1.25-.2-1.76-.6-.48-.43-.71-.95-.68-1.56l-.4-25.44h7.4l-.52 18.08-.12 2.04-.12 2.32h.76l.52-2.4.6-2.24 4.56-15.68c.37-1.41 1.28-2.12 2.72-2.12h5.52a2.2 2.2 0 0 1 1.68.68c.45.45.68 1.03.68 1.72l.36 15.72v2.16l-.04 2.16h.8l.4-2.32.48-2.2 4.52-17.92h7.4zm11.07 7.16c2.61 0 4.63.28 6.04.84 1.44.56 2.4 1.37 2.88 2.44.51 1.04.64 2.35.4 3.92a4.9 4.9 0 0 1-1.24 2.84c-.64.67-1.53 1.17-2.68 1.52-1.15.32-2.6.55-4.36.68l-10.36.84.48-3.64 8.2-.84c.61-.05 1.12-.13 1.52-.24.43-.13.76-.33 1-.6.27-.29.43-.72.48-1.28.08-.45.05-.8-.08-1.04s-.39-.4-.76-.48a5 5 0 0 0-1.56-.12 5.1 5.1 0 0 0-1.68.24c-.45.16-.84.43-1.16.8a4.5 4.5 0 0 0-.76 1.56 27.4 27.4 0 0 0-.56 2.64c-.24 1.49-.31 2.61-.2 3.36.13.75.47 1.24 1 1.48.56.24 1.33.36 2.32.36l2.32-.04 2.92-.16 2.72-.24.52 4.48c-.88.37-1.84.69-2.88.96a21 21 0 0 1-3.16.48l-3.12.16c-2.85 0-5.05-.4-6.6-1.2a6.1 6.1 0 0 1-3.08-3.6c-.51-1.6-.64-3.55-.4-5.84a18 18 0 0 1 1.24-5.12 7.8 7.8 0 0 1 2.36-3.12c.99-.75 2.16-1.27 3.52-1.56 1.39-.32 2.96-.48 4.72-.48zm34.28-7.72c2.91 0 5.25.44 7.04 1.32s3 2.37 3.64 4.48.71 5.05.2 8.84a32.1 32.1 0 0 1-1.6 6.96c-.69 1.81-1.59 3.24-2.68 4.28a8.9 8.9 0 0 1-3.96 2.2c-1.57.43-3.43.64-5.56.64-3.01 0-5.4-.44-7.16-1.32s-2.93-2.37-3.52-4.48c-.56-2.13-.59-5.08-.08-8.84a34.6 34.6 0 0 1 1.6-6.84c.69-1.84 1.57-3.28 2.64-4.32a8.7 8.7 0 0 1 3.92-2.24c1.55-.45 3.39-.68 5.52-.68zm-.12 5.72c-1.17 0-2.12.24-2.84.72-.69.48-1.25 1.36-1.68 2.64a40.4 40.4 0 0 0-1.16 5.56c-.35 2.27-.49 4-.44 5.2.08 1.2.4 2.03.96 2.48s1.41.68 2.56.68c1.2 0 2.15-.24 2.84-.72s1.25-1.36 1.68-2.64c.43-1.31.83-3.16 1.2-5.56.35-2.27.48-4 .4-5.2-.05-1.2-.37-2.03-.96-2.48-.56-.45-1.41-.68-2.56-.68zm24.98-6.04l1.96.08 2.36.16 2.04.28-1.12 4.44h-2.72c-.93 0-1.6.17-2 .52s-.68 1.01-.84 2l-3.32 22.52c-.27 1.87-.95 3.36-2.04 4.48-1.09 1.15-2.83 1.72-5.2 1.72-.75 0-1.59-.05-2.52-.16l-3.36-.36 1.12-4.44h2.2c.96 0 1.64-.19 2.04-.56.43-.35.71-.99.84-1.92l3.24-22.56a8 8 0 0 1 2.08-4.48c1.12-1.15 2.87-1.72 5.24-1.72zm14.96-.4l2.16.04 2.6.16a18.8 18.8 0 0 1 2.24.32l-1.12 4.44h-3.36c-.91 0-1.57.17-2 .52-.4.35-.67 1-.8 1.96l-3.4 22.36c-.27 1.84-.95 3.33-2.04 4.48s-2.84 1.72-5.24 1.72c-.72 0-1.55-.05-2.48-.16l-3.36-.36 1.12-4.44h2.2c.93 0 1.61-.19 2.04-.56.43-.35.71-.99.84-1.92l3.28-22.36c.29-1.89.99-3.4 2.08-4.52 1.12-1.12 2.87-1.68 5.24-1.68zm4.52 9l-.6 4.52h-30.52l.52-4.32 3.52-.2h27.08zm12.13-.56c2.61 0 4.63.28 6.04.84 1.44.56 2.4 1.37 2.88 2.44.51 1.04.64 2.35.4 3.92a4.9 4.9 0 0 1-1.24 2.84c-.64.67-1.53 1.17-2.68 1.52-1.15.32-2.6.55-4.36.68l-10.36.84.48-3.64 8.2-.84c.61-.05 1.12-.13 1.52-.24.43-.13.76-.33 1-.6.27-.29.43-.72.48-1.28.08-.45.05-.8-.08-1.04s-.39-.4-.76-.48a5 5 0 0 0-1.56-.12 5.1 5.1 0 0 0-1.68.24c-.45.16-.84.43-1.16.8a4.5 4.5 0 0 0-.76 1.56 27.4 27.4 0 0 0-.56 2.64c-.24 1.49-.31 2.61-.2 3.36.13.75.47 1.24 1 1.48.56.24 1.33.36 2.32.36l2.32-.04 2.92-.16 2.72-.24.52 4.48c-.88.37-1.84.69-2.88.96a21 21 0 0 1-3.16.48l-3.12.16c-2.85 0-5.05-.4-6.6-1.2a6.1 6.1 0 0 1-3.08-3.6c-.51-1.6-.64-3.55-.4-5.84a18 18 0 0 1 1.24-5.12 7.8 7.8 0 0 1 2.36-3.12c.99-.75 2.16-1.27 3.52-1.56 1.39-.32 2.96-.48 4.72-.48zm19.09.56l.24 4.36.64.52-2.04 15h-7.32l2.8-19.88h5.68zm9.68-.56l-1.52 6.68h-1.68a11.6 11.6 0 0 0-2.72.36l-3.72 1.08-.28-4.12c1.49-1.33 2.96-2.33 4.4-3 1.47-.67 2.85-1 4.16-1h1.36zm11.22-7.36l-1.4 10-2 8.88h-5.68l.48-8.88 1.4-10h7.2zm-6 21a2.6 2.6 0 0 1 1.92.68c.45.43.61 1.08.48 1.96l-.24 1.8a2.8 2.8 0 0 1-.84 1.8c-.43.37-1.08.56-1.96.56h-1.44c-1.81 0-2.61-.88-2.4-2.64l.24-1.8c.21-1.57 1.15-2.36 2.8-2.36h1.44z" fill="#0668e1"/></svg>