<svg xmlns="http://www.w3.org/2000/svg" width="600" height="600" fill="none" xmlns:v="https://vecta.io/nano"><style><![CDATA[.B{fill:#fff}.C{fill:#061728}.D{fill:#ffa98f}.E{fill:#3886e8}.F{stroke:#0668e1}.G{fill:#226cbc}.H{fill:#0668e1}.I{fill:#ced8f2}.J{fill:#0568e0}.K{stroke-width:.833}.L{stroke-width:.8}]]></style><path d="M274.181 118.517a304.41 304.41 0 0 0-15.158 1.502l-.007-.003c-10.816 1.348-21.488 3.27-31.982 5.678l-12.932 3.489c-14.996 4.313-29.369 9.815-42.943 16.314l-11.276 5.954c-12.977 7.177-24.965 15.353-35.84 24.36l-8.829 8.011c-10.072 9.531-18.854 19.855-26.271 30.735l-5.819 9.541c-6.466 11.232-11.43 22.986-14.907 35.009l-2.391 10.395c-2.44 12.193-3.253 24.569-2.552 36.925l1.228 10.541c1.74 12.301 5.13 24.461 9.98 36.303l4.719 9.978c5.843 11.574 13.189 22.688 21.855 33.201l7.911 8.743c9.506 10.066 20.339 19.382 32.197 27.846l10.576 6.902c12.551 7.864 26.097 14.738 40.389 20.595l12.486 4.586c14.737 5.134 30.095 9.108 45.82 11.943l13.567 1.964c15.897 2.059 32.026 2.85 48.106 2.469l13.724-.827c5.314-.385 10.599-.883 16.007-1.557 9.686-1.206 19.76-2.975 31.128-5.564l12.932-3.489c15.012-4.33 29.371-9.815 42.959-16.33l11.26-5.955c12.979-7.164 24.965-15.353 35.84-24.36l8.848-8.014c10.071-9.532 18.837-19.842 26.27-30.735l5.805-9.525c6.483-11.245 11.449-22.986 14.924-35.022l2.373-10.392c2.442-12.18 3.255-24.555 2.554-36.911l-1.212-10.558c-1.756-12.297-5.144-24.445-9.994-36.286l-4.724-9.991c-8.663-17.197-17.663-28.517-29.666-41.984l-11.332 5.877c10.826 12.19 19.526 22.767 28.029 39.514l4.623 10.017c36.09 86.577-21.492 178.854-131.169 210.634l-12.967 3.408a279.24 279.24 0 0 1-29.708 5.336c-23.352 2.909-47.658 2.99-72.112-.117l-13.55-2.049C137.717 446.3 61.681 360.857 79.39 271.561l2.48-10.379c20.015-70.979 93.616-120.09 179.138-130.745 61.989-7.721 130.226 4.746 188.904 43.723l8.932-7.968c-15.858-10.525-29.509-18.751-50.948-27.501l-12.505-4.586c-14.718-5.134-30.095-9.105-45.802-11.942l-13.567-1.965c-15.914-2.042-32.045-2.847-48.125-2.466l-13.716.785zm46.196 37.213a239.42 239.42 0 0 1 11.961 1.19l.005-.002c8.536 1.069 16.957 2.592 25.238 4.5l10.205 2.765c11.834 3.419 23.176 7.78 33.888 12.931l8.898 4.72c10.24 5.688 19.701 12.168 28.282 19.307l6.968 6.349c7.947 7.555 14.878 15.737 20.73 24.361l4.592 7.563c5.103 8.902 9.02 18.218 11.764 27.748l1.887 8.239c1.926 9.664 2.567 19.473 2.014 29.266l-.969 8.355c-1.373 9.75-4.049 19.388-7.876 28.774l-3.724 7.908c-4.611 9.174-10.408 17.983-17.246 26.315l-6.243 6.93c-7.502 7.978-16.05 15.363-25.408 22.071l-8.345 5.471c-9.905 6.233-20.594 11.68-31.872 16.323l-9.853 3.635c-11.629 4.069-23.749 7.219-36.158 9.466l-10.706 1.557c-12.545 1.631-25.273 2.259-37.962 1.957l-10.829-.656c-4.194-.305-8.364-.7-12.632-1.234-7.644-.956-15.593-2.358-24.564-4.41l-10.205-2.766a217.69 217.69 0 0 1-33.9-12.943l-8.886-4.72c-10.241-5.677-19.7-12.168-28.282-19.307l-6.982-6.352c-7.947-7.555-14.865-15.727-20.73-24.361l-4.581-7.549c-5.116-8.913-9.035-18.219-11.777-27.759l-1.872-8.236c-1.928-9.654-2.569-19.463-2.016-29.256l.956-8.368c1.386-9.747 4.06-19.375 7.887-28.761l3.728-7.919c6.836-13.63 13.938-22.602 23.41-33.276l8.942 4.658c-8.542 9.662-15.408 18.045-22.118 31.319l-3.648 7.94c-28.479 68.62 16.96 141.759 103.509 166.948l10.232 2.701c7.637 1.813 15.47 3.233 23.444 4.229 18.427 2.306 37.608 2.371 56.904-.093l10.694-1.624c90.932-16.103 150.935-83.825 136.96-154.601l-1.957-8.227c-15.794-56.258-73.875-95.183-141.362-103.629-48.917-6.119-102.765 3.762-149.069 34.655l-7.048-6.315c12.514-8.342 23.286-14.862 40.204-21.797l9.868-3.635c11.614-4.07 23.749-7.217 36.143-9.466l10.706-1.557c12.558-1.619 25.288-2.256 37.977-1.954l10.824.622zm-35.741 252.411l-9.019-.903-.004.002c-6.436-.811-12.786-1.966-19.03-3.413l-7.695-2.098c-8.922-2.592-17.474-5.9-25.551-9.807l-6.71-3.579c-7.721-4.314-14.854-9.23-21.325-14.644l-5.253-4.816c-5.993-5.73-11.218-11.936-15.631-18.476l-3.463-5.736c-3.847-6.752-6.801-13.818-8.87-21.046l-1.422-6.249c-1.452-7.33-1.936-14.769-1.519-22.197l.731-6.337c1.035-7.395 3.052-14.705 5.938-21.823l2.808-5.998c3.477-6.958 7.848-13.64 13.004-19.959l4.707-5.256c5.657-6.051 12.102-11.652 19.158-16.74l6.292-4.149c7.469-4.728 15.529-8.86 24.032-12.381l7.429-2.757c8.769-3.086 17.907-5.475 27.264-7.179l8.072-1.181c9.459-1.238 19.056-1.713 28.624-1.484l8.165.497c3.163.231 6.307.531 9.525.936 5.763.725 11.757 1.788 18.521 3.345l7.695 2.097c8.932 2.603 17.476 5.901 25.561 9.817l6.7 3.58a137.78 137.78 0 0 1 21.325 14.644l5.264 4.817c5.993 5.73 11.209 11.928 15.631 18.477l3.455 5.726c3.857 6.76 6.812 13.818 8.879 21.053l1.412 6.247c1.453 7.322 1.937 14.762 1.52 22.19l-.721 6.347c-1.045 7.392-3.061 14.695-5.947 21.813l-2.811 6.006c-5.154 10.338-10.509 17.143-17.651 25.238l-6.743-3.532c6.442-7.328 11.619-13.687 16.678-23.754l2.751-6.022c21.473-52.046-12.789-107.518-78.047-126.623l-7.716-2.048c-5.758-1.375-11.664-2.452-17.676-3.208a170.37 170.37 0 0 0-42.907.07l-8.063 1.232c-68.564 12.214-113.807 63.578-103.269 117.259l1.475 6.239c11.909 42.669 55.703 72.192 106.589 78.598 36.884 4.641 77.486-2.854 112.399-26.285l5.315 4.79c-9.436 6.328-17.558 11.272-30.315 16.532l-7.44 2.758c-8.758 3.086-17.907 5.473-27.252 7.179l-8.073 1.18a187.96 187.96 0 0 1-28.635 1.483l-8.161-.472zm24.19-47.155l5.181-.511.003.001a110.02 110.02 0 0 0 10.932-1.935l4.42-1.189a94.68 94.68 0 0 0 14.679-5.56l3.854-2.029c4.435-2.445 8.533-5.232 12.25-8.301l3.018-2.73c3.443-3.248 6.445-6.766 8.98-10.474l1.989-3.251c2.21-3.828 3.907-7.833 5.096-11.931l.817-3.542c.834-4.155 1.112-8.373.872-12.583l-.42-3.593c-.594-4.191-1.753-8.336-3.411-12.371l-1.613-3.4c-1.997-3.944-4.508-7.732-7.47-11.314l-2.704-2.98c-3.25-3.43-6.953-6.605-11.006-9.489l-3.615-2.352c-4.29-2.68-8.92-5.023-13.805-7.019l-4.268-1.563c-5.037-1.749-10.287-3.103-15.662-4.069l-4.637-.67c-5.434-.701-10.948-.971-16.444-.841l-4.691.282c-1.816.131-3.623.301-5.471.53-3.311.411-6.754 1.014-10.64 1.897l-4.42 1.188a94.78 94.78 0 0 0-14.684 5.565l-3.849 2.03c-4.437 2.441-8.534 5.232-12.251 8.301l-3.024 2.731c-3.443 3.248-6.439 6.762-8.98 10.474l-1.984 3.246c-2.216 3.832-3.913 7.833-5.101 11.935l-.811 3.541a49.43 49.43 0 0 0-.873 12.579l.414 3.598c.6 4.19 1.758 8.33 3.416 12.365l1.615 3.405c2.961 5.86 6.037 9.718 10.14 14.307l3.874-2.003c-3.701-4.154-6.675-7.758-9.581-13.465l-1.58-3.414c-12.336-29.503 7.346-60.95 44.835-71.78l4.432-1.161a95.63 95.63 0 0 1 10.155-1.818c7.982-.992 16.29-1.019 24.649.04l4.631.698c39.388 6.924 65.379 36.041 59.325 66.471l-.847 3.537c-6.842 24.188-32 40.924-61.232 44.555-21.189 2.631-44.513-1.617-64.57-14.899l-3.053 2.715c5.42 3.587 10.087 6.39 17.415 9.371l4.274 1.563c5.031 1.75 10.287 3.103 15.656 4.07l4.637.67a109.4 109.4 0 0 0 16.45.84l4.688-.268zm22.774 160.18a372.47 372.47 0 0 0 18.55-1.837l.008.004c13.237-1.65 26.297-4.002 39.139-6.947l15.826-4.268a338.44 338.44 0 0 0 52.553-19.957l13.8-7.285c15.88-8.779 30.551-18.782 43.86-29.801l10.804-9.799c12.326-11.661 23.073-24.29 32.149-37.6l7.122-11.673c7.913-13.741 13.988-28.119 18.243-42.828l2.927-12.717c2.986-14.916 3.98-30.056 3.123-45.171l-1.503-12.896c-2.129-15.048-6.278-29.925-12.214-44.411l-5.775-12.206c-7.15-14.159-16.141-27.757-26.745-40.617l-9.682-10.696c-11.634-12.314-24.891-23.711-39.402-34.065l-12.943-8.444c-15.36-9.62-31.937-18.029-49.426-25.194l-15.28-5.611c-18.035-6.281-36.83-11.142-56.074-14.61l-16.603-2.403c-19.455-2.519-39.193-3.487-58.871-3.021l-16.795 1.012c-6.504.47-12.971 1.08-19.589 1.905-11.854 1.475-24.182 3.639-38.093 6.807l-15.826 4.268c-18.372 5.296-35.944 12.007-52.573 19.977l-13.78 7.285c-15.883 8.764-30.552 18.782-43.86 29.801l-10.828 9.804c-12.325 11.66-23.053 24.273-32.149 37.6l-7.104 11.652c-7.933 13.757-14.011 28.119-18.264 42.844l-2.903 12.713c-2.989 14.9-3.984 30.04-3.126 45.156l1.483 12.915c2.149 15.044 6.295 29.905 12.231 44.391l5.781 12.222C36.5 389.159 38.5 392.643 47 403.094l12-8.361c-6-9.058-7.5-11.148-13.337-21.436l-5.658-12.254c-44.166-105.914 26.302-218.801 160.522-257.68l15.868-4.168a341.74 341.74 0 0 1 36.356-6.528c28.577-3.559 58.323-3.658 88.248.143l16.583 2.507C498.601 120.173 591.653 224.699 569.98 333.94l-3.035 12.696c-24.493 86.833-114.564 146.913-219.224 159.948-75.861 9.445-159.368-5.806-231.176-53.489l-10.931 9.748c19.407 12.876 36.113 22.939 62.349 33.643l15.303 5.611c18.012 6.28 36.83 11.138 56.051 14.609l16.603 2.403c19.475 2.499 39.216 3.483 58.894 3.017l16.786-.96z" fill="#519fff"/><path d="M109.333 434.423S82.497 465 71.219 475.529c-8.858 8.27-26.093 6.829-33.716-1.529-6.684-7.328-6.465-22.713-.006-29.796 12.497-13.704 45-42.504 45-42.504-14-23.692-32.428-36.537-37.426-92.978-3.183-35.94-10-144.931 159-188.828 135.2-35.118 229.001 4.183 273 43.897l-27.499 29.266c-23.5-22.995-39-32.18-58.001-37.626-85.643-24.547-190.499-10.447-237.5 37.626l26.001 27.876c36-30.658 115-63.485 195.5-27.876C477.981 238.358 484.997 322.864 416.997 380l-25.427-32.253c61.123-84.31-35.084-135.738-88.499-133.787-95.5 3.489-133.5 78.741-89.5 133.787S352.726 392.64 382.997 358l25 31.5c-182.5 95.243-329.426-60.566-237.926-159.509-7.5-6.968-14.501-17.424-23.001-25.786-55 24.387-92.499 184.395 57 237.602s269.5-27.174 294-108.001c22.476-74.147-21-119.149-33-134.478l25-22.997s15.21-1.168 43.492 44.71 49.581 154.541-80.869 236.937-282.377 19.86-343.36-23.555z" stroke="#1b1c17" stroke-width="1.2" stroke-dasharray="12 12"/><g class="H"><path d="M267.64 288.2v11.18c0 .92-.307 1.633-.92 2.14-.613.493-1.453.74-2.52.74a9.78 9.78 0 0 1-.98-.06c-.373-.027-.74-.073-1.1-.14-.347-.067-.62-.153-.82-.26l.4-2.38h.94c.853 0 1.28-.3 1.28-.9V288.2h3.72zm7.173 3.58c1.307 0 2.353.173 3.14.52a3.14 3.14 0 0 1 1.7 1.66c.347.76.52 1.787.52 3.08 0 1.28-.173 2.3-.52 3.06-.347.747-.913 1.293-1.7 1.64-.787.333-1.833.5-3.14.5s-2.353-.167-3.14-.5c-.787-.347-1.353-.893-1.7-1.64-.347-.76-.52-1.78-.52-3.06 0-1.293.173-2.32.52-3.08a3.14 3.14 0 0 1 1.7-1.66c.787-.347 1.833-.52 3.14-.52zm0 2.54c-.413 0-.733.073-.96.22-.213.147-.367.413-.46.8s-.14.953-.14 1.7c0 .733.047 1.293.14 1.68s.247.653.46.8c.227.133.547.2.96.2s.733-.067.96-.2c.227-.147.38-.413.46-.8.093-.387.14-.947.14-1.68 0-.747-.047-1.313-.14-1.7-.08-.387-.233-.653-.46-.8s-.547-.22-.96-.22zm13.752-2.54c1.36 0 2.32.4 2.88 1.2s.84 2.113.84 3.94c0 .72-.074 1.4-.22 2.04a4.54 4.54 0 0 1-.74 1.7c-.36.493-.88.88-1.56 1.16-.667.28-1.54.42-2.62.42-.36 0-.787-.02-1.28-.06l-1.5-.14-1.44-.24c-.454-.107-.827-.227-1.12-.36l2.9-2.02c.186.067.42.127.7.18l.88.12.78.02c.373-.027.666-.113.88-.26.213-.16.366-.44.46-.84s.14-.967.14-1.7c0-.64-.04-1.127-.12-1.46-.08-.347-.234-.587-.46-.72-.214-.133-.514-.2-.9-.2s-.727.067-1.02.2c-.294.12-.614.28-.96.48l-.26-1.52c.306-.347.653-.667 1.04-.96s.806-.527 1.26-.7c.466-.187.946-.28 1.44-.28zm-3.14-3.78l.04 2.98c.013.467-.014.933-.08 1.4a5.33 5.33 0 0 1-.32 1.3l.36.26v7.66l-3.62-.16V288h3.62zm18.766-.08c1.147 0 2.113.113 2.9.34s1.427.613 1.92 1.16c.493.533.847 1.26 1.06 2.18s.32 2.087.32 3.5c0 1.4-.107 2.567-.32 3.5-.213.92-.567 1.653-1.06 2.2-.493.533-1.133.913-1.92 1.14s-1.753.34-2.9.34c-1.133 0-2.1-.113-2.9-.34-.787-.227-1.427-.607-1.92-1.14-.493-.547-.847-1.28-1.06-2.2-.213-.933-.32-2.1-.32-3.5 0-1.413.107-2.58.32-3.5s.567-1.647 1.06-2.18c.493-.547 1.133-.933 1.92-1.16.8-.227 1.767-.34 2.9-.34zm0 2.86c-.587 0-1.047.12-1.38.36-.32.24-.547.673-.68 1.3s-.2 1.513-.2 2.66.067 2.033.2 2.66.36 1.06.68 1.3c.333.24.793.36 1.38.36s1.04-.12 1.36-.36c.333-.24.56-.673.68-1.3.133-.627.2-1.513.2-2.66s-.067-2.033-.2-2.66c-.12-.627-.347-1.06-.68-1.3-.32-.24-.773-.36-1.36-.36zm12.385-3.02l.9.04 1.14.08c.4.027.74.073 1.02.14l-.34 2.22h-1.5c-.44 0-.74.087-.9.26s-.24.48-.24.92V302h-3.54v-11.06c.026-.627.146-1.18.36-1.66a2.43 2.43 0 0 1 1.08-1.12c.506-.267 1.18-.4 2.02-.4zm7.34-.2l1 .02 1.3.08c.453.027.833.073 1.14.14l-.34 2.24h-1.88c-.44 0-.74.087-.9.26s-.24.48-.24.92V302h-3.52v-11.28c0-.627.106-1.173.32-1.64a2.43 2.43 0 0 1 1.08-1.12c.506-.267 1.186-.4 2.04-.4zm2.7 4.5v2.26h-15.18v-2.16l1.72-.1h13.46zm6.127-.28c1.787 0 3.06.293 3.82.88s1.14 1.453 1.14 2.6c.013.92-.24 1.593-.76 2.02s-1.44.64-2.76.64h-5.44v-1.82h4.42c.453 0 .74-.067.86-.2.133-.133.2-.373.2-.72-.013-.387-.12-.647-.32-.78s-.547-.2-1.04-.2c-.467-.013-.827.04-1.08.16-.24.12-.407.36-.5.72s-.14.9-.14 1.62.053 1.273.16 1.66c.12.387.327.66.62.82.307.16.733.24 1.28.24l1.68-.04 2.22-.18.34 2.2c-.427.213-.9.38-1.42.5-.507.12-1.033.207-1.58.26l-1.64.08c-1.333 0-2.4-.187-3.2-.56s-1.38-.94-1.74-1.7c-.347-.773-.52-1.74-.52-2.9 0-1.307.18-2.347.54-3.12a3.22 3.22 0 0 1 1.72-1.66c.8-.347 1.847-.52 3.14-.52zm9.383.28l.44 2 .36.26V302h-3.64v-9.94h2.84zm4.84-.28l-.32 3.34h-.96a8.08 8.08 0 0 0-1.32.12c-.48.08-1.087.213-1.82.4l-.22-1.98c.666-.627 1.346-1.093 2.04-1.4.706-.32 1.386-.48 2.04-.48h.56z"/><g fill-rule="evenodd"><path d="M309.645 501.636c2.807-.631 3.267-4.439.69-5.72l-11.78-5.853c-2.415-1.199-5.087 1.089-4.273 3.66l.899 2.841c.044.138.058.284.04.429s-.065.283-.141.407l-1.55 2.546c-1.401 2.303.649 5.161 3.28 4.571l12.835-2.881z"/><use href="#K"/><use href="#K" x="-101" y="102"/><path d="M154.41 214.872c2.651 1.118 5.237-1.714 3.884-4.254l-6.188-11.607c-1.269-2.38-4.773-2.07-5.604.496l-.919 2.835a1 1 0 0 1-.216.372c-.098.108-.218.193-.352.25l-2.741 1.171c-2.478 1.061-2.469 4.579.015 5.626l12.121 5.111zM36.624 476.348c1.952 2.113 5.478.603 5.295-2.268l-.838-13.128c-.172-2.691-3.491-3.857-5.308-1.864l-2.008 2.202a1.02 1.02 0 0 1-.351.249c-.134.058-.278.086-.423.082l-2.98-.065c-2.695-.059-4.141 3.148-2.312 5.129l8.925 9.663z"/></g></g><g clip-path="url(#F)"><use href="#L" class="B"/><circle cx="301.357" cy="460.357" r="20.833" class="I"/><mask id="A" maskUnits="userSpaceOnUse" x="280" y="439" width="43" height="43" mask-type="alpha"><path d="M301.357 481.19c11.506 0 20.833-9.327 20.833-20.833s-9.327-20.834-20.833-20.834-20.834 9.328-20.834 20.834 9.328 20.833 20.834 20.833z" class="B"/></mask><g mask="url(#A)"><use href="#M" class="D"/><use href="#N" class="J"/><use href="#O" class="D"/><use href="#P" class="E"/><use href="#Q" class="E"/><use href="#R" class="B"/><use href="#S" class="B"/><use href="#T" class="E"/><use href="#U" class="G"/><use href="#V" class="G"/><use href="#W" class="D"/><use href="#X" class="D"/><use href="#Y" class="C"/><use href="#Z" class="D"/><use href="#a" class="C"/><use href="#b" class="C"/><use href="#c" class="C"/><use href="#d" class="C"/><use href="#e" class="B"/><use href="#f" class="C"/><use href="#g" class="C"/><use href="#h" class="C"/><use href="#i" class="C"/><path d="M304.875 452.418c.017-.133.1-.242.2-.325a.73.73 0 0 1 .392-.15.89.89 0 0 1 .416.075c.067.025.117.075.167.108.05.05.092.092.125.15-.075.009-.133 0-.2 0-.058 0-.117-.008-.175-.008-.108-.008-.208 0-.3.008-.183.009-.358.059-.625.142z" class="C"/></g></g><use href="#j" class="F K"/><rect x="337.4" y="441.4" width="79.2" height="39.2" rx="19.6" class="B"/><rect x="337.4" y="441.4" width="79.2" height="39.2" rx="19.6" class="F L"/><path d="M356.965 456.263v7.431c0 .24.067.422.201.547s.327.187.576.187h3.471l.101 1.656-2.146.115-2.203.029c-.73 0-1.277-.192-1.642-.576s-.547-.878-.547-1.483v-7.906h2.189zm8.772 2.635c1.2 0 2.059.207 2.577.62.528.403.792 1.008.792 1.814.01.643-.153 1.128-.489 1.454s-.917.49-1.743.49H362.9v-1.195h3.398c.317 0 .519-.067.605-.202.096-.144.144-.341.144-.59 0-.336-.096-.567-.288-.691-.182-.135-.499-.202-.95-.202-.394-.01-.701.043-.922.158-.221.106-.374.308-.461.605s-.129.73-.129 1.296c0 .595.053 1.056.158 1.383.106.316.283.537.533.662.259.125.614.187 1.066.187l1.209-.029 1.469-.129.202 1.31c-.279.135-.596.24-.951.317a7.96 7.96 0 0 1-1.094.158c-.375.039-.735.058-1.08.058-.903 0-1.627-.13-2.175-.389-.547-.269-.945-.677-1.195-1.224-.24-.547-.36-1.248-.36-2.102 0-.931.12-1.671.36-2.218.25-.547.643-.941 1.181-1.181s1.243-.36 2.117-.36zm11.859.188l-2.347 6.609a.83.83 0 0 1-.274.375c-.115.086-.254.129-.417.129h-1.843a.74.74 0 0 1-.692-.504l-2.347-6.609h2.247l1.31 4.449.158.648.144.634h.188l.158-.634.173-.648 1.296-4.449h2.246zm4.228-.188c1.2 0 2.059.207 2.578.62.528.403.792 1.008.792 1.814.009.643-.154 1.128-.49 1.454s-.917.49-1.742.49h-3.975v-1.195h3.399c.317 0 .518-.067.605-.202.096-.144.144-.341.144-.59 0-.336-.096-.567-.288-.691-.183-.135-.5-.202-.951-.202-.393-.01-.701.043-.921.158-.221.106-.375.308-.461.605s-.13.73-.13 1.296c0 .595.053 1.056.159 1.383.105.316.283.537.532.662.26.125.615.187 1.066.187l1.21-.029 1.468-.129.202 1.31a4.22 4.22 0 0 1-.95.317c-.356.077-.72.13-1.095.158-.374.039-.734.058-1.08.058-.902 0-1.627-.13-2.174-.389a2.47 2.47 0 0 1-1.195-1.224c-.24-.547-.36-1.248-.36-2.102 0-.931.12-1.671.36-2.218.249-.547.643-.941 1.18-1.181s1.244-.36 2.117-.36zm6.89-2.779v7.805c0 .24.072.422.216.547.144.115.355.173.634.173h.576l.244 1.44a1.85 1.85 0 0 1-.489.144c-.211.048-.427.082-.648.101l-.562.029c-.643 0-1.152-.164-1.526-.49-.365-.336-.547-.806-.547-1.411v-8.338h2.102zm9.424.144v9.936h-2.189v-7.056l.015-.533a4.76 4.76 0 0 1 .086-.532l-2.361.604-.274-1.425 2.534-.994h2.189z" class="H"/><g clip-path="url(#G)"><path d="M18.678 449.033c-9.763-9.763-9.763-25.592 0-35.355s25.592-9.763 35.355 0 9.763 25.592 0 35.355l-17.678 17.678-17.678-17.678z" class="B"/><circle cx="36.357" cy="431.357" r="20.833" class="I"/><mask id="B" maskUnits="userSpaceOnUse" x="15" y="410" width="43" height="43" mask-type="alpha"><path d="M36.357 452.19c11.506 0 20.833-9.327 20.833-20.833s-9.327-20.834-20.833-20.834-20.833 9.328-20.833 20.834 9.327 20.833 20.833 20.833z" class="B"/></mask><g mask="url(#B)"><path d="M56.895 452.173c-2.017-5.706-5.875-13.645-7.367-14.478l-3.392 8.705c-.408-.75 1.408 2.707 2.917 5.773h7.842z" class="D"/><path d="M26.027 452.173h19.258l.642-2.59.008-.034.383-1.258 3.225-10.62c-2.15-2.266-10-4.207-10-4.207l-1.542-.158c-2.325-.242-4.167-.242-6.925.541-2.708.767-6.183 1.858-7.675 3.207-3.725 3.391 1.833 10.446 1.833 10.446.108.567.558 2.008.792 4.673z" class="J"/><path d="M23.49 452.173l1.675-4.532-2.033-10.571c-1.542.867-5.4 9.247-7.233 15.103h7.592z" class="D"/><path d="M23.807 452.171l.317-1.124c-.058.383-.067.758-.042 1.132H47.24l.533-2.032h.017l.75 2.041h7.65l.208-.075c.617-.208.933-.841.7-1.408-2.125-5.239-6.058-12.262-6.733-13.07-1.867-2.199-7.917-3.49-8.217-3.573-.875-.225-1.75-.433-2.642-.617-.633 1.375-2.033 3.466-2.842 5.298-1.425-1.924-3.458-4.073-4.017-5.298-.883.184-1.767.383-2.642.617-.3.075-6.35 1.366-8.217 3.573-.975 1.142-3.45 5.565-5.325 10.888-.125.391-.383 1.582-.942 3.648h8.283z" class="E"/><path d="M24.133 451.051c.017.008.033.008 0 0h0z" class="E"/><path d="M33.103 452.172c.458-6.364 2.125-13.386 2.15-13.486l-.142-.034c-.025.1-1.7 7.139-2.158 13.52h.15z" class="B"/><path d="M35.914 452.171c-.442-4.532-.042-13.511-.033-13.62l-.15-.008c-.017.441-.408 9.138.033 13.62h.15v.008z" class="B"/><path d="M35.688 439.094c3.18 0 5.758-1.634 5.758-3.649s-2.578-3.648-5.758-3.648-5.758 1.633-5.758 3.648 2.578 3.649 5.758 3.649z" class="E"/><path d="M41.266 434.43c.275.999.108 2.14-.575 2.915-.067.108-.183.183-.267.275-.1.083-.175.183-.292.25-.217.133-.417.3-.658.4-.233.108-.458.233-.717.291l-.367.117-.183.058-.192.034-.758.15-.775.083-.383.042c-.125.008-.258 0-.383 0l-.383-.009-.383-.033a7.92 7.92 0 0 1-1.525-.317c-.5-.15-.975-.358-1.417-.649.85.624 1.883.933 2.917 1.074l.392.042.392.008h.392l.392-.033.783-.075.775-.15.192-.042.192-.058.375-.117c.258-.066.492-.191.725-.308.25-.1.45-.275.675-.416.117-.067.2-.175.3-.259.092-.1.2-.175.275-.291.35-.408.542-.925.625-1.441.067-.508.025-1.05-.142-1.541zm-10.822-.457a2.54 2.54 0 0 0-.517.733 2.02 2.02 0 0 0-.208.883c0 .158.033.308.067.458.058.141.108.291.208.408.083.133.2.233.3.342.117.099.242.174.367.258-.217-.208-.433-.408-.575-.658-.15-.242-.233-.525-.225-.808-.008-.284.067-.567.167-.842a3.51 3.51 0 0 1 .417-.774z" class="G"/><path d="M38.957 429.115l-4.55-5.24-2.075 4.973.358 1.025-.417 3.64c1.617 2.882 6.008 2.524 6.7.775l-.017-5.173z" class="D"/><path d="M40.877 420.974c1.225 1.891 1.717 6.239-.075 9.363-.767 1.333-4.767 1.266-6.017.175-1.092-.95-2.9-6.597-1.483-8.23 1.4-1.641 6.275-4.057 7.575-1.308z" class="D"/><path d="M35.071 422.858a6.1 6.1 0 0 1-.75-.433c-.883-.592-1.717-1.333-2.242-2.224l-.15-.275-.317.158c-.925.533-1.583 1.449-1.742 2.449-.133.825-.242 2.191.625 3.049.408.408.825.858 1 1.391l.917 2.124 1.117-1.008c.392-.383.492-.824.775-1.266.733-1.116 1.108-2.632 1.308-3.715l-.542-.25z" class="C"/><path d="M35.027 426.211c-.275-.333-.625-.7-1.05-.683-.217.008-.408.133-.542.291-.683.808-.525 2.166.425 2.749.4.242.908.317 1.167-.141l.1-1.974c.025-.075-.042-.167-.1-.242z" class="D"/><path d="M39.028 431.334c-.033 0-2.958.291-4.442-1.192l.1-.083c1.442 1.433 4.3 1.158 4.325 1.15l.017.125zm-.262-3.957l-.008-.125.442-.033a.59.59 0 0 0 .433-.242.48.48 0 0 0 .067-.458l-.625-1.774.125-.042.625 1.774c.067.192.033.4-.083.567-.125.166-.317.275-.533.291l-.442.042zm-1.24-2.667c.058.125.058.308.067.408.025.192-.192.3-.383.258-.358-.083-.333-.85.1-.825.108.009.175.075.217.159zm3.243-.067c.058.125.058.309.067.409.025.191-.192.3-.383.258-.358-.083-.333-.85.1-.825.117.008.175.067.217.158z" class="C"/><path d="M39.979 428.191l-2.667-.308s.267 1.491 1.3 1.583c1.2.117 1.367-1.275 1.367-1.275z" class="B"/><path d="M40.082 420.91l1.633 1.957s-.642-2.374-1.242-2.69-.392.733-.392.733zm-5.441 7.821c-.667.092-1.225-.458-1.25-.491l.1-.084c.008.009.692.684 1.383.375l.058.109c-.1.05-.2.083-.292.091z" class="C"/><path d="M32.904 418.668c-.933.25-1.342.392-1.767.692-.358.25-1.192 1.066-1.192 1.741-.008 1.191 2.508 2.232 4.758 2.224.425 0 1.258-.183 2.45-.542 2.625-.783 5.533-2.274 4.85-5.389 0 0-.375.641-.842.741 0 0 .617-2.024-1.817-3.057.133.058-.85 1.2-.917 1.25-.933.824-1.85 1.382-2.725 1.691-.842.291-.842.133-2.8.649z" class="C"/><path d="M36.219 423.779c.058-.142.175-.259.308-.35a1.09 1.09 0 0 1 .458-.175c.333-.059.7.05.9.291-.167 0-.308-.008-.45 0a2.92 2.92 0 0 0-.392.034l-.825.2zm3.656-.361c.017-.133.1-.242.2-.325a.73.73 0 0 1 .392-.15c.142-.008.292.017.417.075.067.025.117.075.167.108a.71.71 0 0 1 .125.15c-.075.009-.133 0-.2 0-.058 0-.117-.008-.175-.008a1.83 1.83 0 0 0-.3.008c-.183.009-.358.059-.625.142z" class="C"/></g></g><path d="M18.973 413.973c9.6-9.601 25.165-9.601 34.766 0s9.6 25.165 0 34.765l-17.383 17.383-17.383-17.383c-9.6-9.6-9.6-25.165 0-34.765z" class="F K"/><g clip-path="url(#H)"><path d="M377.678 330.033c-9.763-9.763-9.763-25.592 0-35.355s25.592-9.763 35.355 0 9.763 25.592 0 35.355l-17.678 17.678-17.677-17.678z" class="B"/><circle cx="395.357" cy="312.357" r="20.833" class="I"/><mask id="C" maskUnits="userSpaceOnUse" x="374" y="291" width="43" height="43" mask-type="alpha"><path d="M395.357 333.19c11.506 0 20.833-9.327 20.833-20.833s-9.327-20.834-20.833-20.834-20.834 9.328-20.834 20.834 9.328 20.833 20.834 20.833z" class="B"/></mask><g mask="url(#C)"><path d="M415.895 333.173c-2.017-5.706-5.875-13.645-7.367-14.478l-3.392 8.705c-.408-.75 1.409 2.707 2.917 5.773h7.842z" class="D"/><path d="M385.027 333.173h19.259l.641-2.59.009-.034.383-1.258 3.225-10.62c-2.15-2.266-10-4.207-10-4.207l-1.542-.158c-2.325-.242-4.166-.242-6.925.541-2.708.767-6.183 1.858-7.675 3.207-3.725 3.391 1.834 10.446 1.834 10.446.108.567.558 2.008.791 4.673z" class="J"/><path d="M382.49 333.173l1.675-4.532-2.033-10.571c-1.542.867-5.4 9.247-7.234 15.103h7.592z" class="D"/><path d="M382.807 333.171l.316-1.124a5.19 5.19 0 0 0-.041 1.132h23.158l.533-2.032h.017l.75 2.041h7.65l.208-.075c.617-.208.934-.841.7-1.408-2.125-5.239-6.058-12.262-6.733-13.07-1.867-2.199-7.917-3.49-8.217-3.573a56.29 56.29 0 0 0-2.641-.617c-.634 1.375-2.034 3.466-2.842 5.298-1.425-1.924-3.458-4.073-4.017-5.298-.883.184-1.766.383-2.641.617-.3.075-6.35 1.366-8.217 3.573-.975 1.142-3.45 5.565-5.325 10.888-.125.391-.383 1.582-.942 3.648h8.284z" class="E"/><path d="M383.133 332.051c.016.008.033.008 0 0h0z" class="E"/><path d="M392.103 333.172c.458-6.364 2.125-13.386 2.15-13.486l-.142-.034c-.025.1-1.7 7.139-2.158 13.52h.15z" class="B"/><path d="M394.914 333.171c-.442-4.532-.042-13.511-.033-13.62l-.15-.008c-.017.441-.409 9.138.033 13.62h.15v.008z" class="B"/><path d="M394.688 320.094c3.18 0 5.758-1.634 5.758-3.649s-2.578-3.648-5.758-3.648-5.758 1.633-5.758 3.648 2.578 3.649 5.758 3.649z" class="E"/><path d="M400.266 315.43c.275.999.108 2.14-.575 2.915-.067.108-.183.183-.267.275-.1.083-.175.183-.291.25-.217.133-.417.3-.659.4-.233.108-.458.233-.716.291l-.367.117-.183.058-.192.034-.758.15-.775.083-.384.042c-.125.008-.258 0-.383 0l-.383-.009-.384-.033c-.516-.058-1.025-.158-1.525-.317-.5-.15-.975-.358-1.416-.649.85.624 1.883.933 2.916 1.074l.392.042.392.008h.391l.392-.033.783-.075.775-.15.192-.042.192-.058.375-.117c.258-.066.491-.191.725-.308.25-.1.45-.275.675-.416.116-.067.2-.175.3-.259.091-.1.2-.175.275-.291.35-.408.541-.925.625-1.441.066-.508.025-1.05-.142-1.541zm-10.822-.457a2.52 2.52 0 0 0-.517.733c-.133.275-.208.574-.208.883 0 .158.033.308.066.458.059.141.109.291.209.408.083.133.2.233.3.342.116.099.241.174.366.258-.216-.208-.433-.408-.575-.658-.15-.242-.233-.525-.225-.808-.008-.284.067-.567.167-.842.1-.266.242-.524.417-.774z" class="G"/><path d="M397.957 310.115l-4.55-5.24-2.075 4.973.358 1.025-.417 3.64c1.617 2.882 6.009 2.524 6.7.775l-.016-5.173z" class="D"/><path d="M399.877 301.974c1.225 1.891 1.716 6.239-.075 9.363-.767 1.333-4.767 1.266-6.017.175-1.092-.95-2.9-6.597-1.483-8.23 1.4-1.641 6.275-4.057 7.575-1.308z" class="D"/><path d="M394.071 303.858c-.266-.125-.508-.275-.75-.433-.883-.592-1.716-1.333-2.241-2.224l-.15-.275-.317.158c-.925.533-1.583 1.449-1.742 2.449-.133.825-.241 2.191.625 3.049.409.408.825.858 1 1.391l.917 2.124 1.117-1.008c.391-.383.491-.824.775-1.266.733-1.116 1.108-2.632 1.308-3.715l-.542-.25z" class="C"/><path d="M394.027 307.211c-.275-.333-.625-.7-1.05-.683-.217.008-.409.133-.542.291-.683.808-.525 2.166.425 2.749.4.242.908.317 1.167-.141l.1-1.974c.025-.075-.042-.167-.1-.242z" class="D"/><path d="M398.028 312.334c-.034 0-2.959.291-4.442-1.192l.1-.083c1.442 1.433 4.3 1.158 4.325 1.15l.017.125zm-.262-3.957l-.008-.125.441-.033c.175-.017.334-.1.434-.242.1-.133.125-.308.066-.458l-.625-1.774.125-.042.625 1.774c.067.192.034.4-.083.567-.125.166-.317.275-.533.291l-.442.042zm-1.24-2.667c.059.125.059.308.067.408.025.192-.192.3-.383.258-.359-.083-.334-.85.1-.825.108.009.175.075.216.159zm3.243-.067c.058.125.058.309.066.409.025.191-.191.3-.383.258-.358-.083-.333-.85.1-.825.117.008.175.067.217.158z" class="C"/><path d="M398.979 309.191l-2.667-.308s.267 1.491 1.3 1.583c1.2.117 1.367-1.275 1.367-1.275z" class="B"/><path d="M399.082 301.91l1.633 1.957s-.641-2.374-1.241-2.69-.392.733-.392.733zm-5.441 7.821c-.667.092-1.225-.458-1.25-.491l.1-.084c.008.009.691.684 1.383.375l.058.109c-.1.05-.2.083-.291.091z" class="C"/><path d="M391.904 299.668c-.934.25-1.342.392-1.767.692-.358.25-1.192 1.066-1.192 1.741-.008 1.191 2.509 2.232 4.759 2.224.425 0 1.258-.183 2.45-.542 2.625-.783 5.533-2.274 4.85-5.389 0 0-.375.641-.842.741 0 0 .617-2.024-1.817-3.057.134.058-.85 1.2-.916 1.25-.934.824-1.85 1.382-2.725 1.691-.842.291-.842.133-2.8.649z" class="C"/><path d="M395.219 304.779c.058-.142.175-.259.308-.35a1.09 1.09 0 0 1 .458-.175c.334-.059.7.05.9.291-.166 0-.308-.008-.45 0-.133 0-.266.017-.391.034l-.825.2z" class="C"/><use href="#k" class="C"/></g></g><use href="#j" x="94" y="-148" class="F K"/><rect x="431.4" y="293.4" width="79.2" height="39.2" rx="19.6" class="B"/><rect x="431.4" y="293.4" width="79.2" height="39.2" rx="19.6" class="F L"/><path d="M450.965 308.263v7.431c0 .24.067.422.201.547s.327.187.576.187h3.471l.101 1.656-2.146.115-2.203.029c-.73 0-1.277-.192-1.642-.576s-.547-.878-.547-1.483v-7.906h2.189zm8.772 2.635c1.2 0 2.059.207 2.577.62.528.403.792 1.008.792 1.814.01.643-.153 1.128-.489 1.454s-.917.49-1.743.49H456.9v-1.195h3.398c.317 0 .519-.067.605-.202.096-.144.144-.341.144-.59 0-.336-.096-.567-.288-.691-.182-.135-.499-.202-.95-.202-.394-.01-.701.043-.922.158-.221.106-.374.308-.461.605s-.129.73-.129 1.296c0 .595.053 1.056.158 1.383.106.316.283.537.533.662.259.125.614.187 1.066.187l1.209-.029 1.469-.129.202 1.31c-.279.135-.596.24-.951.317a7.96 7.96 0 0 1-1.094.158c-.375.039-.735.058-1.08.058-.903 0-1.627-.13-2.175-.389-.547-.269-.945-.677-1.195-1.224-.24-.547-.36-1.248-.36-2.102 0-.931.12-1.671.36-2.218.25-.547.643-.941 1.181-1.181s1.243-.36 2.117-.36zm11.859.188l-2.347 6.609a.83.83 0 0 1-.274.375c-.115.086-.254.129-.417.129h-1.843a.74.74 0 0 1-.692-.504l-2.347-6.609h2.247l1.31 4.449.158.648.144.634h.188l.158-.634.173-.648 1.296-4.449h2.246zm4.228-.188c1.2 0 2.059.207 2.578.62.528.403.792 1.008.792 1.814.009.643-.154 1.128-.49 1.454s-.917.49-1.742.49h-3.975v-1.195h3.399c.317 0 .518-.067.605-.202.096-.144.144-.341.144-.59 0-.336-.096-.567-.288-.691-.183-.135-.5-.202-.951-.202-.393-.01-.701.043-.921.158-.221.106-.375.308-.461.605s-.13.73-.13 1.296c0 .595.053 1.056.159 1.383.105.316.283.537.532.662.26.125.615.187 1.066.187l1.21-.029 1.468-.129.202 1.31a4.22 4.22 0 0 1-.95.317c-.356.077-.72.13-1.095.158-.374.039-.734.058-1.08.058-.902 0-1.627-.13-2.174-.389a2.47 2.47 0 0 1-1.195-1.224c-.24-.547-.36-1.248-.36-2.102 0-.931.12-1.671.36-2.218.249-.547.643-.941 1.18-1.181s1.244-.36 2.117-.36zm6.89-2.779v7.805c0 .24.072.422.216.547.144.115.355.173.634.173h.576l.244 1.44a1.85 1.85 0 0 1-.489.144c-.211.048-.427.082-.648.101l-.562.029c-.643 0-1.152-.164-1.526-.49-.365-.336-.547-.806-.547-1.411v-8.338h2.102zm9.655.144l-2.391 5.717c-.067.154-.067.274 0 .36.067.077.168.115.303.115h5.702v1.311l-1.224.201h-6.062a1.12 1.12 0 0 1-.692-.216c-.182-.144-.307-.331-.374-.561-.058-.24-.038-.485.058-.735l2.62-6.192h2.06zm2.404 1.93v8.006h-2.016v-6.422l.36-1.584h1.656z" class="H"/><g clip-path="url(#I)"><path d="M478.678 227.033c-9.763-9.763-9.763-25.592 0-35.355s25.592-9.763 35.355 0 9.763 25.592 0 35.355l-17.678 17.678-17.677-17.678z" class="B"/><circle cx="496.357" cy="209.357" r="20.833" class="I"/><mask id="D" maskUnits="userSpaceOnUse" x="475" y="188" width="43" height="43" mask-type="alpha"><path d="M496.357 230.19c11.506 0 20.833-9.327 20.833-20.833s-9.327-20.834-20.833-20.834-20.834 9.328-20.834 20.834 9.328 20.833 20.834 20.833z" class="B"/></mask><g mask="url(#D)"><path d="M516.895 230.173c-2.017-5.706-5.875-13.645-7.367-14.478l-3.392 8.705c-.408-.75 1.409 2.707 2.917 5.773h7.842z" class="D"/><path d="M486.027 230.173h19.259l.641-2.59.009-.034.383-1.258 3.225-10.62c-2.15-2.266-10-4.207-10-4.207l-1.542-.158c-2.325-.242-4.166-.242-6.925.541-2.708.767-6.183 1.858-7.675 3.207-3.725 3.391 1.834 10.446 1.834 10.446.108.567.558 2.008.791 4.673z" class="J"/><path d="M483.49 230.173l1.675-4.532-2.033-10.571c-1.542.867-5.4 9.247-7.234 15.103h7.592z" class="D"/><path d="M483.807 230.171l.316-1.124a5.19 5.19 0 0 0-.041 1.132h23.158l.533-2.032h.017l.75 2.041h7.65l.208-.075c.617-.208.934-.841.7-1.408-2.125-5.239-6.058-12.262-6.733-13.07-1.867-2.199-7.917-3.49-8.217-3.573a56.29 56.29 0 0 0-2.641-.617c-.634 1.375-2.034 3.466-2.842 5.298-1.425-1.924-3.458-4.073-4.017-5.298-.883.184-1.766.383-2.641.617-.3.075-6.35 1.366-8.217 3.573-.975 1.142-3.45 5.565-5.325 10.888-.125.391-.383 1.582-.942 3.648h8.284z" class="E"/><path d="M484.133 229.051c.016.008.033.008 0 0h0z" class="E"/><path d="M493.103 230.172c.458-6.364 2.125-13.386 2.15-13.486l-.142-.034c-.025.1-1.7 7.139-2.158 13.52h.15z" class="B"/><path d="M495.914 230.171c-.442-4.532-.042-13.511-.033-13.62l-.15-.008c-.017.441-.409 9.138.033 13.62h.15v.008z" class="B"/><path d="M495.688 217.094c3.18 0 5.758-1.634 5.758-3.649s-2.578-3.648-5.758-3.648-5.758 1.633-5.758 3.648 2.578 3.649 5.758 3.649z" class="E"/><path d="M501.266 212.43c.275.999.108 2.14-.575 2.915-.067.108-.183.183-.267.275-.1.083-.175.183-.291.25-.217.133-.417.3-.659.4-.233.108-.458.233-.716.291l-.367.117-.183.058-.192.034-.758.15-.775.083-.384.042c-.125.008-.258 0-.383 0l-.383-.009-.384-.033c-.516-.058-1.025-.158-1.525-.317-.5-.15-.975-.358-1.416-.649.85.624 1.883.933 2.916 1.074l.392.042.392.008h.391l.392-.033.783-.075.775-.15.192-.042.192-.058.375-.117c.258-.066.491-.191.725-.308.25-.1.45-.275.675-.416.116-.067.2-.175.3-.259.091-.1.2-.175.275-.291.35-.408.541-.925.625-1.441.066-.508.025-1.05-.142-1.541zm-10.822-.457a2.52 2.52 0 0 0-.517.733c-.133.275-.208.574-.208.883 0 .158.033.308.066.458.059.141.109.291.209.408.083.133.2.233.3.342.116.099.241.174.366.258-.216-.208-.433-.408-.575-.658-.15-.242-.233-.525-.225-.808-.008-.284.067-.567.167-.842.1-.266.242-.524.417-.774z" class="G"/><path d="M498.957 207.115l-4.55-5.24-2.075 4.973.358 1.025-.417 3.64c1.617 2.882 6.009 2.524 6.7.775l-.016-5.173z" class="D"/><path d="M500.877 198.974c1.225 1.891 1.716 6.239-.075 9.363-.767 1.333-4.767 1.266-6.017.175-1.092-.95-2.9-6.597-1.483-8.23 1.4-1.641 6.275-4.057 7.575-1.308z" class="D"/><path d="M495.071 200.858c-.266-.125-.508-.275-.75-.433-.883-.592-1.716-1.333-2.241-2.224l-.15-.275-.317.158c-.925.533-1.583 1.449-1.742 2.449-.133.825-.241 2.191.625 3.049.409.408.825.858 1 1.391l.917 2.124 1.117-1.008c.391-.383.491-.824.775-1.266.733-1.116 1.108-2.632 1.308-3.715l-.542-.25z" class="C"/><path d="M495.027 204.211c-.275-.333-.625-.7-1.05-.683-.217.008-.409.133-.542.291-.683.808-.525 2.166.425 2.749.4.242.908.317 1.167-.141l.1-1.974c.025-.075-.042-.167-.1-.242z" class="D"/><path d="M499.028 209.334c-.034 0-2.959.291-4.442-1.192l.1-.083c1.442 1.433 4.3 1.158 4.325 1.15l.017.125zm-.262-3.957l-.008-.125.441-.033c.175-.017.334-.1.434-.242.1-.133.125-.308.066-.458l-.625-1.774.125-.042.625 1.774c.067.192.034.4-.083.567-.125.166-.317.275-.533.291l-.442.042zm-1.24-2.667c.059.125.059.308.067.408.025.192-.192.3-.383.258-.359-.083-.334-.85.1-.825.108.009.175.075.216.159zm3.243-.067c.058.125.058.309.066.409.025.191-.191.3-.383.258-.358-.083-.333-.85.1-.825.117.008.175.067.217.158z" class="C"/><path d="M499.979 206.191l-2.667-.308s.267 1.491 1.3 1.583c1.2.117 1.367-1.275 1.367-1.275z" class="B"/><path d="M500.082 198.91l1.633 1.957s-.641-2.374-1.241-2.69-.392.733-.392.733zm-5.441 7.821c-.667.092-1.225-.458-1.25-.491l.1-.084c.008.009.691.684 1.383.375l.058.109c-.1.05-.2.083-.291.091z" class="C"/><path d="M492.904 196.668c-.934.25-1.342.392-1.767.692-.358.25-1.192 1.066-1.192 1.741-.008 1.191 2.509 2.232 4.759 2.224.425 0 1.258-.183 2.45-.542 2.625-.783 5.533-2.274 4.85-5.389 0 0-.375.641-.842.741 0 0 .617-2.024-1.817-3.057.134.058-.85 1.2-.916 1.25-.934.824-1.85 1.382-2.725 1.691-.842.291-.842.133-2.8.649z" class="C"/><path d="M496.219 201.779c.058-.142.175-.259.308-.35a1.09 1.09 0 0 1 .458-.175c.334-.059.7.05.9.291-.166 0-.308-.008-.45 0-.133 0-.266.017-.391.034l-.825.2zm3.656-.361c.017-.133.1-.242.2-.325a.73.73 0 0 1 .392-.15.89.89 0 0 1 .416.075c.067.025.117.075.167.108.05.05.092.092.125.15-.075.009-.133 0-.2 0-.058 0-.117-.008-.175-.008a1.83 1.83 0 0 0-.3.008c-.183.009-.358.059-.625.142z" class="C"/></g></g><use href="#j" x="195" y="-251" class="F K"/><rect x="381.4" y="190.4" width="79.2" height="39.2" rx="19.6" class="B"/><rect x="381.4" y="190.4" width="79.2" height="39.2" rx="19.6" class="F L"/><path d="M400.965 205.263v7.431c0 .24.067.422.201.547s.327.187.576.187h3.471l.101 1.656-2.146.115-2.203.029c-.73 0-1.277-.192-1.642-.576s-.547-.878-.547-1.483v-7.906h2.189zm8.772 2.635c1.2 0 2.059.207 2.577.62.528.403.792 1.008.792 1.814.01.643-.153 1.128-.489 1.454s-.917.49-1.743.49H406.9v-1.195h3.398c.317 0 .519-.067.605-.202.096-.144.144-.341.144-.59 0-.336-.096-.567-.288-.691-.182-.135-.499-.202-.95-.202-.394-.01-.701.043-.922.158-.221.106-.374.308-.461.605s-.129.73-.129 1.296c0 .595.053 1.056.158 1.383.106.316.283.537.533.662.259.125.614.187 1.066.187l1.209-.029 1.469-.129.202 1.31c-.279.135-.596.24-.951.317a7.96 7.96 0 0 1-1.094.158c-.375.039-.735.058-1.08.058-.903 0-1.627-.13-2.175-.389-.547-.269-.945-.677-1.195-1.224-.24-.547-.36-1.248-.36-2.102 0-.931.12-1.671.36-2.218.25-.547.643-.941 1.181-1.181s1.243-.36 2.117-.36zm11.859.188l-2.347 6.609a.83.83 0 0 1-.274.375c-.115.086-.254.129-.417.129h-1.843a.74.74 0 0 1-.692-.504l-2.347-6.609h2.247l1.31 4.449.158.648.144.634h.188l.158-.634.173-.648 1.296-4.449h2.246zm4.228-.188c1.2 0 2.059.207 2.578.62.528.403.792 1.008.792 1.814.009.643-.154 1.128-.49 1.454s-.917.49-1.742.49h-3.975v-1.195h3.399c.317 0 .518-.067.605-.202.096-.144.144-.341.144-.59 0-.336-.096-.567-.288-.691-.183-.135-.5-.202-.951-.202-.393-.01-.701.043-.921.158-.221.106-.375.308-.461.605s-.13.73-.13 1.296c0 .595.053 1.056.159 1.383.105.316.283.537.532.662.26.125.615.187 1.066.187l1.21-.029 1.468-.129.202 1.31a4.22 4.22 0 0 1-.95.317c-.356.077-.72.13-1.095.158-.374.039-.734.058-1.08.058-.902 0-1.627-.13-2.174-.389a2.47 2.47 0 0 1-1.195-1.224c-.24-.547-.36-1.248-.36-2.102 0-.931.12-1.671.36-2.218.249-.547.643-.941 1.18-1.181s1.244-.36 2.117-.36zm6.89-2.779v7.805c0 .24.072.422.216.547.144.115.355.173.634.173h.576l.244 1.44a1.85 1.85 0 0 1-.489.144c-.211.048-.427.082-.648.101l-.562.029c-.643 0-1.152-.164-1.526-.49-.365-.336-.547-.806-.547-1.411v-8.338h2.102zm8.618-.029c.691 0 1.286.063 1.785.188.5.115.888.34 1.167.676.278.327.417.807.417 1.44 0 .384-.048.74-.144 1.066-.086.317-.249.648-.489.994-.231.345-.567.753-1.008 1.224l-2.607 2.692a6.27 6.27 0 0 1 .72-.072l.749-.028h3.067v1.929h-7.113v-1.181c0-.172.024-.331.072-.475.048-.153.129-.293.245-.417l2.476-2.65c.586-.605 1.032-1.142 1.34-1.613.307-.48.456-.893.446-1.238 0-.211-.053-.36-.158-.447-.106-.096-.26-.158-.461-.187-.192-.038-.442-.057-.749-.057l-.936.014-.936.029-1.152.086-.101-1.627 1.282-.23 1.08-.087 1.008-.029z" class="H"/><g clip-path="url(#J)"><path d="M131.678 188.033c-9.763-9.763-9.763-25.592 0-35.355s25.592-9.763 35.355 0 9.763 25.592 0 35.355l-17.678 17.678-17.677-17.678z" class="B"/><circle cx="149.357" cy="170.357" r="20.833" class="I"/><mask id="E" maskUnits="userSpaceOnUse" x="128" y="149" width="43" height="43" mask-type="alpha"><path d="M149.357 191.19c11.506 0 20.833-9.327 20.833-20.833s-9.327-20.834-20.833-20.834-20.834 9.328-20.834 20.834 9.328 20.833 20.834 20.833z" class="B"/></mask><g mask="url(#E)"><path d="M169.895 191.173c-2.017-5.706-5.875-13.645-7.367-14.478l-3.392 8.705c-.408-.75 1.409 2.707 2.917 5.773h7.842z" class="D"/><path d="M139.027 191.173h19.259l.641-2.59.009-.034.383-1.258 3.225-10.62c-2.15-2.266-10-4.207-10-4.207l-1.542-.158c-2.325-.242-4.166-.242-6.925.541-2.708.767-6.183 1.858-7.675 3.207-3.725 3.391 1.834 10.446 1.834 10.446.108.567.558 2.008.791 4.673z" class="J"/><path d="M136.49 191.173l1.675-4.532-2.033-10.571c-1.542.867-5.4 9.247-7.234 15.103h7.592z" class="D"/><path d="M136.807 191.171l.316-1.124a5.19 5.19 0 0 0-.041 1.132h23.158l.533-2.032h.017l.75 2.041h7.65l.208-.075c.617-.208.934-.841.7-1.408-2.125-5.239-6.058-12.262-6.733-13.07-1.867-2.199-7.917-3.49-8.217-3.573a56.29 56.29 0 0 0-2.641-.617c-.634 1.375-2.034 3.466-2.842 5.298-1.425-1.924-3.458-4.073-4.017-5.298-.883.184-1.766.383-2.641.617-.3.075-6.35 1.366-8.217 3.573-.975 1.142-3.45 5.565-5.325 10.888-.125.391-.383 1.582-.942 3.648h8.284z" class="E"/><path d="M137.133 190.051c.016.008.033.008 0 0h0z" class="E"/><path d="M146.103 191.172c.458-6.364 2.125-13.386 2.15-13.486l-.142-.034c-.025.1-1.7 7.139-2.158 13.52h.15z" class="B"/><path d="M148.914 191.171c-.442-4.532-.042-13.511-.033-13.62l-.15-.008c-.017.441-.409 9.138.033 13.62h.15v.008z" class="B"/><path d="M148.688 178.094c3.18 0 5.758-1.634 5.758-3.649s-2.578-3.648-5.758-3.648-5.758 1.633-5.758 3.648 2.578 3.649 5.758 3.649z" class="E"/><path d="M154.266 173.43c.275.999.108 2.14-.575 2.915-.067.108-.183.183-.267.275-.1.083-.175.183-.291.25-.217.133-.417.3-.659.4-.233.108-.458.233-.716.291l-.367.117-.183.058-.192.034-.758.15-.775.083-.384.042c-.125.008-.258 0-.383 0l-.383-.009-.384-.033c-.516-.058-1.025-.158-1.525-.317-.5-.15-.975-.358-1.416-.649.85.624 1.883.933 2.916 1.074l.392.042.392.008h.391l.392-.033.783-.075.775-.15.192-.042.192-.058.375-.117c.258-.066.491-.191.725-.308.25-.1.45-.275.675-.416.116-.067.2-.175.3-.259.091-.1.2-.175.275-.291.35-.408.541-.925.625-1.441.066-.508.025-1.05-.142-1.541zm-10.822-.457a2.52 2.52 0 0 0-.517.733c-.133.275-.208.574-.208.883 0 .158.033.308.066.458.059.141.109.291.209.408.083.133.2.233.3.342.116.099.241.174.366.258-.216-.208-.433-.408-.575-.658-.15-.242-.233-.525-.225-.808-.008-.284.067-.567.167-.842.1-.266.242-.524.417-.774z" class="G"/><path d="M151.957 168.115l-4.55-5.24-2.075 4.973.358 1.025-.417 3.64c1.617 2.882 6.009 2.524 6.7.775l-.016-5.173z" class="D"/><path d="M153.877 159.974c1.225 1.891 1.716 6.239-.075 9.363-.767 1.333-4.767 1.266-6.017.175-1.092-.95-2.9-6.597-1.483-8.23 1.4-1.641 6.275-4.057 7.575-1.308z" class="D"/><path d="M148.071 161.858c-.266-.125-.508-.275-.75-.433-.883-.592-1.716-1.333-2.241-2.224l-.15-.275-.317.158c-.925.533-1.583 1.449-1.742 2.449-.133.825-.241 2.191.625 3.049.409.408.825.858 1 1.391l.917 2.124 1.117-1.008c.391-.383.491-.824.775-1.266.733-1.116 1.108-2.632 1.308-3.715l-.542-.25z" class="C"/><path d="M148.027 165.211c-.275-.333-.625-.7-1.05-.683-.217.008-.409.133-.542.291-.683.808-.525 2.166.425 2.749.4.242.908.317 1.167-.141l.1-1.974c.025-.075-.042-.167-.1-.242z" class="D"/><path d="M152.028 170.334c-.034 0-2.959.291-4.442-1.192l.1-.083c1.442 1.433 4.3 1.158 4.325 1.15l.017.125zm-.262-3.957l-.008-.125.441-.033c.175-.017.334-.1.434-.242.1-.133.125-.308.066-.458l-.625-1.774.125-.042.625 1.774c.067.192.034.4-.083.567-.125.166-.317.275-.533.291l-.442.042zm-1.24-2.667c.059.125.059.308.067.408.025.192-.192.3-.383.258-.359-.083-.334-.85.1-.825.108.009.175.075.216.159zm3.243-.067c.058.125.058.309.066.409.025.191-.191.3-.383.258-.358-.083-.333-.85.1-.825.117.008.175.067.217.158z" class="C"/><path d="M152.979 167.191l-2.667-.308s.267 1.491 1.3 1.583c1.2.117 1.367-1.275 1.367-1.275z" class="B"/><path d="M153.082 159.91l1.633 1.957s-.641-2.374-1.241-2.69-.392.733-.392.733zm-5.441 7.821c-.667.092-1.225-.458-1.25-.491l.1-.084c.008.009.691.684 1.383.375l.058.109c-.1.05-.2.083-.291.091z" class="C"/><path d="M145.904 157.668c-.934.25-1.342.392-1.767.692-.358.25-1.192 1.066-1.192 1.741-.008 1.191 2.509 2.232 4.759 2.224.425 0 1.258-.183 2.45-.542 2.625-.783 5.533-2.274 4.85-5.389 0 0-.375.641-.842.741 0 0 .617-2.024-1.817-3.057.134.058-.85 1.2-.916 1.25-.934.824-1.85 1.382-2.725 1.691-.842.291-.842.133-2.8.649z" class="C"/><path d="M149.219 162.779c.058-.142.175-.259.308-.35a1.09 1.09 0 0 1 .458-.175c.334-.059.7.05.9.291-.166 0-.308-.008-.45 0-.133 0-.266.017-.391.034l-.825.2zm3.656-.361c.017-.133.1-.242.2-.325a.73.73 0 0 1 .392-.15.89.89 0 0 1 .416.075c.067.025.117.075.167.108.05.05.092.092.125.15-.075.009-.133 0-.2 0-.058 0-.117-.008-.175-.008a1.83 1.83 0 0 0-.3.008c-.183.009-.358.059-.625.142z" class="C"/></g></g><use href="#j" x="-152" y="-290" class="F K"/><rect x="34.4" y="151.4" width="79.2" height="39.2" rx="19.6" class="B"/><rect x="34.4" y="151.4" width="79.2" height="39.2" rx="19.6" class="F L"/><path d="M53.965 166.263v7.431c0 .24.067.422.202.547s.326.187.576.187h3.47l.101 1.656-2.146.115-2.203.029c-.73 0-1.277-.192-1.642-.576s-.547-.878-.547-1.483v-7.906h2.189zm8.772 2.635c1.2 0 2.059.207 2.578.62.528.403.792 1.008.792 1.814.01.643-.154 1.128-.49 1.454s-.917.49-1.742.49H59.9v-1.195h3.398c.317 0 .518-.067.605-.202.096-.144.144-.341.144-.59 0-.336-.096-.567-.288-.691-.182-.135-.499-.202-.95-.202-.394-.01-.701.043-.922.158-.221.106-.374.308-.461.605s-.13.73-.13 1.296c0 .595.053 1.056.158 1.383.106.316.283.537.533.662.259.125.614.187 1.066.187l1.21-.029 1.469-.129.202 1.31c-.278.135-.595.24-.95.317s-.72.13-1.094.158a10.43 10.43 0 0 1-1.08.058c-.902 0-1.627-.13-2.174-.389a2.47 2.47 0 0 1-1.195-1.224c-.24-.547-.36-1.248-.36-2.102 0-.931.12-1.671.36-2.218.25-.547.643-.941 1.181-1.181s1.243-.36 2.117-.36zm11.859.188l-2.347 6.609a.83.83 0 0 1-.274.375c-.115.086-.254.129-.418.129h-1.843c-.163 0-.307-.043-.432-.129a.74.74 0 0 1-.259-.375l-2.347-6.609h2.246l1.31 4.449.158.648.144.634h.187l.158-.634.173-.648 1.296-4.449h2.246zm4.228-.188c1.2 0 2.059.207 2.578.62.528.403.792 1.008.792 1.814.01.643-.154 1.128-.49 1.454s-.917.49-1.742.49h-3.974v-1.195h3.398c.317 0 .518-.067.605-.202.096-.144.144-.341.144-.59 0-.336-.096-.567-.288-.691-.182-.135-.499-.202-.95-.202-.394-.01-.701.043-.922.158-.221.106-.374.308-.461.605s-.13.73-.13 1.296c0 .595.053 1.056.158 1.383.106.316.283.537.533.662.259.125.614.187 1.066.187l1.21-.029 1.469-.129.202 1.31c-.278.135-.595.24-.95.317s-.72.13-1.094.158a10.43 10.43 0 0 1-1.08.058c-.902 0-1.627-.13-2.174-.389a2.47 2.47 0 0 1-1.195-1.224c-.24-.547-.36-1.248-.36-2.102 0-.931.12-1.671.36-2.218.25-.547.643-.941 1.181-1.181s1.243-.36 2.117-.36zm6.89-2.779v7.805c0 .24.072.422.216.547.144.115.355.173.634.173h.576l.245 1.44c-.115.058-.278.106-.49.144-.211.048-.427.082-.648.101l-.562.029c-.643 0-1.152-.164-1.526-.49-.365-.336-.547-.806-.547-1.411v-8.338h2.102zm8.445-.057c.787 0 1.416.072 1.886.216.48.134.826.369 1.037.705.221.336.331.802.331 1.397 0 .451-.043.854-.13 1.21-.086.345-.24.628-.461.849s-.538.37-.95.447v.057c.682.106 1.152.365 1.411.778s.394.984.403 1.713c.01.692-.096 1.258-.317 1.7-.221.432-.586.748-1.094.95-.499.202-1.171.302-2.016.302-.576 0-1.157-.028-1.742-.086l-1.699-.173.086-1.613 1.037.072.864.029.864.015c.461 0 .826-.039 1.094-.116.269-.086.461-.235.576-.446.115-.221.173-.528.173-.922 0-.307-.038-.566-.115-.777a.83.83 0 0 0-.446-.475c-.221-.106-.547-.159-.979-.159l-1.872.015v-1.44h1.872c.317 0 .566-.034.749-.101.192-.077.331-.173.418-.288a.86.86 0 0 0 .173-.432c.029-.173.043-.351.043-.533 0-.326-.048-.566-.144-.72-.096-.163-.259-.274-.49-.331-.221-.058-.533-.087-.936-.087l-1.454.015-1.224.043-.086-1.541c.538-.096 1.066-.163 1.584-.201l1.555-.072z" class="H"/><defs><clipPath id="F"><path d="M283.678 478.033c-9.763-9.763-9.763-25.592 0-35.355s25.592-9.763 35.355 0 9.763 25.592 0 35.355l-17.678 17.678-17.677-17.678z" class="B"/></clipPath><clipPath id="G"><path d="M18.678 449.033c-9.763-9.763-9.763-25.592 0-35.355s25.592-9.763 35.355 0 9.763 25.592 0 35.355l-17.678 17.678-17.678-17.678z" class="B"/></clipPath><clipPath id="H"><path d="M377.678 330.033c-9.763-9.763-9.763-25.592 0-35.355s25.592-9.763 35.355 0 9.763 25.592 0 35.355l-17.678 17.678-17.677-17.678z" class="B"/></clipPath><clipPath id="I"><path d="M478.678 227.033c-9.763-9.763-9.763-25.592 0-35.355s25.592-9.763 35.355 0 9.763 25.592 0 35.355l-17.678 17.678-17.677-17.678z" class="B"/></clipPath><clipPath id="J"><path d="M131.678 188.033c-9.763-9.763-9.763-25.592 0-35.355s25.592-9.763 35.355 0 9.763 25.592 0 35.355l-17.678 17.678-17.677-17.678z" class="B"/></clipPath><path id="K" d="M498.071 257.978c2.103 1.964 5.508.199 5.114-2.652l-1.803-13.03c-.369-2.671-3.765-3.589-5.43-1.468l-1.841 2.343c-.09.115-.203.208-.332.275a1.01 1.01 0 0 1-.416.113l-2.976.154c-2.693.141-3.898 3.445-1.928 5.286l9.612 8.979z"/><path id="L" d="M283.678 478.033c-9.763-9.763-9.763-25.592 0-35.355s25.592-9.763 35.355 0 9.763 25.592 0 35.355l-17.678 17.678-17.677-17.678z"/><path id="M" d="M321.895 481.173c-2.017-5.706-5.875-13.645-7.367-14.478l-3.392 8.705c-.408-.75 1.409 2.707 2.917 5.773h7.842z"/><path id="N" d="M291.027 481.173h19.259l.641-2.59.009-.034.383-1.258 3.225-10.62c-2.15-2.266-10-4.207-10-4.207l-1.542-.158c-2.325-.242-4.166-.242-6.925.541-2.708.767-6.183 1.858-7.675 3.207-3.725 3.391 1.834 10.446 1.834 10.446.108.567.558 2.008.791 4.673z"/><path id="O" d="M288.49 481.173l1.675-4.532-2.033-10.571c-1.542.867-5.4 9.247-7.234 15.103h7.592z"/><path id="P" d="M288.807 481.171l.316-1.124a5.19 5.19 0 0 0-.041 1.132h23.158l.533-2.032h.017l.75 2.041h7.65l.208-.075c.617-.208.934-.841.7-1.408-2.125-5.239-6.058-12.262-6.733-13.07-1.867-2.199-7.917-3.49-8.217-3.573a56.29 56.29 0 0 0-2.641-.617c-.634 1.375-2.034 3.466-2.842 5.298-1.425-1.924-3.458-4.073-4.017-5.298-.883.184-1.766.383-2.641.617-.3.075-6.35 1.366-8.217 3.573-.975 1.142-3.45 5.565-5.325 10.888-.125.391-.383 1.582-.942 3.648h8.284z"/><path id="Q" d="M289.133 480.051c.016.008.033.008 0 0h0z"/><path id="R" d="M298.103 481.172c.458-6.364 2.125-13.386 2.15-13.486l-.142-.034c-.025.1-1.7 7.139-2.158 13.52h.15z"/><path id="S" d="M300.914 481.171c-.442-4.532-.042-13.511-.033-13.62l-.15-.008c-.017.441-.409 9.138.033 13.62h.15v.008z"/><path id="T" d="M300.688 468.094c3.18 0 5.758-1.634 5.758-3.649s-2.578-3.648-5.758-3.648-5.758 1.633-5.758 3.648 2.578 3.649 5.758 3.649z"/><path id="U" d="M306.266 463.43c.275.999.108 2.14-.575 2.915-.067.108-.183.183-.267.275-.1.083-.175.183-.291.25-.217.133-.417.3-.659.4-.233.108-.458.233-.716.291l-.367.117-.183.058-.192.034-.758.15-.775.083-.384.042c-.125.008-.258 0-.383 0l-.383-.009-.384-.033c-.516-.058-1.025-.158-1.525-.317-.5-.15-.975-.358-1.416-.649.85.624 1.883.933 2.916 1.074l.392.042.392.008h.391l.392-.033.783-.075.775-.15.192-.042.192-.058.375-.117c.258-.066.491-.191.725-.308.25-.1.45-.275.675-.416.116-.067.2-.175.3-.259.091-.1.2-.175.275-.291.35-.408.541-.925.625-1.441.066-.508.025-1.05-.142-1.541z"/><path id="V" d="M295.444 462.973a2.52 2.52 0 0 0-.517.733c-.133.275-.208.574-.208.883 0 .158.033.308.066.458.059.141.109.291.209.408.083.133.2.233.3.342.116.099.241.174.366.258-.216-.208-.433-.408-.575-.658-.15-.242-.233-.525-.225-.808-.008-.284.067-.567.167-.842.1-.266.242-.524.417-.774z"/><path id="W" d="M303.957 458.115l-4.55-5.24-2.075 4.973.358 1.025-.417 3.64c1.617 2.882 6.009 2.524 6.7.775l-.016-5.173z"/><path id="X" d="M305.877 449.974c1.225 1.891 1.716 6.239-.075 9.363-.767 1.333-4.767 1.266-6.017.175-1.092-.95-2.9-6.597-1.483-8.23 1.4-1.641 6.275-4.057 7.575-1.308z"/><path id="Y" d="M300.071 451.858c-.266-.125-.508-.275-.75-.433-.883-.592-1.716-1.333-2.241-2.224l-.15-.275-.317.158c-.925.533-1.583 1.449-1.742 2.449-.133.825-.241 2.191.625 3.049.409.408.825.858 1 1.391l.917 2.124 1.117-1.008c.391-.383.491-.824.775-1.266.733-1.116 1.108-2.632 1.308-3.715l-.542-.25z"/><path id="Z" d="M300.027 455.211c-.275-.333-.625-.7-1.05-.683-.217.008-.409.133-.542.291-.683.808-.525 2.166.425 2.749.4.242.908.317 1.167-.141l.1-1.974c.025-.075-.042-.167-.1-.242z"/><path id="a" d="M304.028 460.334c-.034 0-2.959.291-4.442-1.192l.1-.083c1.442 1.433 4.3 1.158 4.325 1.15l.017.125z"/><path id="b" d="M303.766 456.377l-.008-.125.441-.033c.175-.017.334-.1.434-.242.1-.133.125-.308.066-.458l-.625-1.774.125-.042.625 1.774c.067.192.034.4-.083.567-.125.166-.317.275-.533.291l-.442.042z"/><path id="c" d="M302.526 453.71c.059.125.059.308.067.408.025.192-.192.3-.383.258-.359-.083-.334-.85.1-.825.108.009.175.075.216.159z"/><path id="d" d="M305.769 453.643c.058.125.058.309.066.409.025.191-.191.3-.383.258-.358-.083-.333-.85.1-.825.117.008.175.067.217.158z"/><path id="e" d="M304.979 457.191l-2.667-.308s.267 1.491 1.3 1.583c1.2.117 1.367-1.275 1.367-1.275z"/><path id="f" d="M305.082 449.91l1.633 1.957s-.641-2.374-1.241-2.69-.392.733-.392.733z"/><path id="g" d="M299.641 457.731c-.667.092-1.225-.458-1.25-.491l.1-.084c.008.009.691.684 1.383.375l.058.109c-.1.05-.2.083-.291.091z"/><path id="h" d="M297.904 447.668c-.934.25-1.342.392-1.767.692-.358.25-1.192 1.066-1.192 1.741-.008 1.191 2.509 2.232 4.759 2.224.425 0 1.258-.183 2.45-.542 2.625-.783 5.533-2.274 4.85-5.389 0 0-.375.641-.842.741 0 0 .617-2.024-1.817-3.057.134.058-.85 1.2-.916 1.25-.934.824-1.85 1.382-2.725 1.691-.842.291-.842.133-2.8.649z"/><path id="i" d="M301.219 452.779c.058-.142.175-.259.308-.35a1.09 1.09 0 0 1 .458-.175c.334-.059.7.05.9.291-.166 0-.308-.008-.45 0-.133 0-.266.017-.391.034l-.825.2z"/><path id="j" d="M283.973 442.973c9.6-9.601 25.165-9.601 34.765 0s9.601 25.165 0 34.765l-17.383 17.383-17.382-17.383c-9.601-9.6-9.601-25.165 0-34.765z"/><path id="k" d="M398.875 304.418c.017-.133.1-.242.2-.325a.73.73 0 0 1 .392-.15.89.89 0 0 1 .416.075c.067.025.117.075.167.108.05.05.092.092.125.15-.075.009-.133 0-.2 0-.058 0-.117-.008-.175-.008a1.83 1.83 0 0 0-.3.008c-.183.009-.358.059-.625.142z"/></defs></svg>