<svg xmlns="http://www.w3.org/2000/svg" viewBox="0 0 1200 750" xmlns:v="https://vecta.io/nano"><style><![CDATA[.O{fill:#fff}.P{fill:#0668e1}.Q{fill-opacity:.8}.R{fill-rule:evenodd}.S{enable-background:new}.T{shape-rendering:crispEdges}]]></style><path d="M908.7 654H691.3a41.8 41.8 0 0 1-41.9-41.8V137.8c0-23.1 18.8-41.8 41.9-41.8h217.4a41.8 41.8 0 0 1 41.9 41.8v474.4a41.8 41.8 0 0 1-41.9 41.8z" fill="#e3f4fc"/><defs><path id="A" d="M675 102h256c11 0 20 9 20 20v506.6c0 11-9 20-20 20H675c-11 0-20-9-20-20V122a20 20 0 0 1 20-20z"/><path id="B" d="M681.3 558.6h21.4c5.4 0 9.9 4.4 9.9 9.9v21.4c0 5.4-4.4 9.9-9.9 9.9h-21.4c-5.4 0-9.9-4.4-9.9-9.9v-21.4c0-5.5 4.5-9.9 9.9-9.9z"/><path id="C" d="M833.9 142.9h-67.8a13.4 13.4 0 1 1 0-26.8h67.8a13.4 13.4 0 1 1 0 26.8z"/><path id="D" d="M833.9 136.6c3.9 0 7.1-3.2 7.1-7.1s-3.2-7.1-7.1-7.1-7.1 3.2-7.1 7.1a7 7 0 0 0 7.1 7.1z"/><path id="E" d="M833.9 133.8c2.3 0 4.2-1.9 4.2-4.2s-1.9-4.2-4.2-4.2-4.2 1.9-4.2 4.2a4.1 4.1 0 0 0 4.2 4.2z"/><path id="F" d="M810.4 133h-39.8c-1.9 0-3.4-1.5-3.4-3.4s1.5-3.4 3.4-3.4h39.8c1.9 0 3.4 1.5 3.4 3.4 0 1.8-1.5 3.4-3.4 3.4z"/><path id="G" d="M280.7 588.4h21.1a9.7 9.7 0 0 1 9.7 9.7v21.1a9.7 9.7 0 0 1-9.7 9.7h-21.1a9.7 9.7 0 0 1-9.7-9.7v-21.1c0-5.4 4.3-9.7 9.7-9.7z"/><path id="H" d="M444.8 588.4h21.1a9.7 9.7 0 0 1 9.7 9.7v21.1a9.7 9.7 0 0 1-9.7 9.7h-21.1a9.7 9.7 0 0 1-9.7-9.7v-21.1a9.7 9.7 0 0 1 9.7-9.7z"/></defs><clipPath id="I"><use href="#A"/></clipPath><g clip-path="url(#I)"><linearGradient id="J" gradientUnits="userSpaceOnUse" x1="803" y1="107.05" x2="803" y2="650.22"><stop offset="0" stop-color="#fdfeff"/><stop offset="1" stop-color="#75abee"/></linearGradient><path d="M675 102h256c11 0 20 9 20 20v506.6c0 11-9 20-20 20H675c-11 0-20-9-20-20V122a20 20 0 0 1 20-20z" fill="url(#J)"/><use href="#B" fill="#15cf74"/><path d="M689.7 572.6c-.3-3.6-4.1-5.4-4.2-5.5s-.3-.1-.5-.1c-4.4.7-5 3.3-5 3.4v.4c5.2 16.1 16 19.1 19.5 20.1.3.1.5.1.7.2s.4.1.6 0c.1 0 2.7-1.3 3.3-5.2 0-.2 0-.3-.1-.5-.1-.1-1.4-2.7-5.1-3.6h-.4c-.1 0-.2.1-.3.2-1.2 1-2.8 2.1-3.5 2.2-4.7-2.3-7.3-6.7-7.4-7.5-.1-.5 1-2.1 2.3-3.5.1-.1.1-.2.2-.3-.1 0-.1-.1-.1-.3z" class="O"/><path d="M736.8 558.6h21.4c5.4 0 9.9 4.4 9.9 9.9v21.4c0 5.4-4.4 9.9-9.9 9.9h-21.4c-5.4 0-9.9-4.4-9.9-9.9v-21.4c0-5.5 4.5-9.9 9.9-9.9z" fill="#ffcd5e"/><defs><path id="K" d="M734.3 566h26.3v26.3h-26.3z"/></defs><clipPath id="L"><use href="#K"/></clipPath><g clip-path="url(#L)" class="O"><path d="M755.2 571.4a11.4 11.4 0 0 0-6.7-3.2c-2.5-.2-5.1.4-7.2 1.8s-3.7 3.6-4.4 6-.6 5.1.4 7.4a1.7 1.7 0 0 1 .1.7l-1 4.6v.5c.1.2.1.3.3.5.1.1.2.2.4.2.1.1.3.1.4.1h.2l4.7-.9a1.7 1.7 0 0 1 .7.1 10.5 10.5 0 0 0 7.4.4c2.4-.7 4.6-2.3 6-4.4s2.1-4.7 1.8-7.2-1.2-4.8-3.1-6.6h0zm-12.1 8.9c-.2 0-.4-.1-.6-.2s-.3-.3-.4-.5-.1-.4-.1-.6.1-.4.3-.6.3-.3.6-.3c.2 0 .4 0 .6.1s.4.2.5.4.2.4.2.6c0 .3-.1.6-.3.8s-.5.3-.8.3zm4.4 0c-.2 0-.4-.1-.6-.2s-.3-.3-.4-.5-.1-.4-.1-.6.1-.4.3-.6.3-.3.6-.3c.2 0 .4 0 .6.1s.4.2.5.4.2.4.2.6c0 .3-.1.6-.3.8s-.5.3-.8.3zm4.4 0c-.2 0-.4-.1-.6-.2s-.3-.3-.4-.5-.1-.4-.1-.6.1-.4.3-.6.3-.3.6-.3c.2 0 .4 0 .6.1s.4.2.5.4.2.4.2.6c0 .3-.1.6-.3.8s-.5.3-.8.3z"/></g><path d="M792.3 542.2h21.4c5.4 0 9.9 4.4 9.9 9.9v21.4c0 5.4-4.4 9.9-9.9 9.9h-21.4c-5.4 0-9.9-4.4-9.9-9.9V552a9.9 9.9 0 0 1 9.9-9.8z" class="P"/><g class="O"><path d="M810.5 553.7c.8 0 1.5 0 2.1.1.6 0 1.1.1 1.6.2l1.5.3-.3 2.9c-.6 0-1.1-.1-1.6-.1s-1 0-1.5-.1h-1.9c-.9 0-1.6.2-2 .5-.5.3-.8.9-1 1.7a15.6 15.6 0 0 0-.3 3.5 16.2 16.2 0 0 0 .3 3.5c.2.8.5 1.4 1 1.7s1.2.5 2 .5h3a19.4 19.4 0 0 0 2.4-.2l.3 2.8c-.8.3-1.7.4-2.5.5-.9.1-1.9.2-3.2.2-1.8 0-3.3-.3-4.4-.9s-1.9-1.5-2.4-2.9c-.5-1.3-.7-3.1-.7-5.3s.2-4 .7-5.3 1.3-2.3 2.4-2.8c1.2-.5 2.6-.8 4.5-.8zm-17.6 0h2.9l2.9.1c1 0 1.8.1 2.7.2l-.2 2.9h-6.9c-.4 0-.8.1-1 .3s-.3.5-.3 1v9.2c0 .4.1.8.3 1s.6.3 1 .3h6.9l.2 2.9-2.7.2-2.9.1h-2.9c-1.1 0-2.1-.3-2.8-1s-1-1.5-1.1-2.6v-10.9c0-1.1.4-2 1.1-2.6.7-.8 1.6-1.1 2.8-1.1zm-3.4 7.3h10.7v2.8h-10.7V561z"/></g><path d="M847.8 558.6h21.4c5.4 0 9.9 4.4 9.9 9.9v21.4c0 5.4-4.4 9.9-9.9 9.9h-21.4c-5.4 0-9.9-4.4-9.9-9.9v-21.4c0-5.5 4.5-9.9 9.9-9.9z" fill="#03a9f4"/><g class="O"><path d="M858.5 584.2c1.8 0 3.2-1.4 3.2-3.2s-1.4-3.2-3.2-3.2-3.2 1.4-3.2 3.2c0 1.7 1.4 3.2 3.2 3.2zm9.5-10.9h-3c-.2 0-.4-.1-.5-.2-.2-.1-.3-.3-.3-.4l-.3-.9c-.1-.4-.4-.7-.7-.9s-.7-.3-1.1-.3h-7.4c-.4 0-.8.1-1.1.3s-.5.5-.7.9l-.3.9c-.1.2-.2.3-.3.4-.2.1-.3.2-.5.2h-3c-.5 0-.9.2-1.3.5a1.9 1.9 0 0 0-.5 1.3V586c0 .5.2.9.5 1.3a1.9 1.9 0 0 0 1.3.5H868c.5 0 .9-.2 1.3-.5a1.9 1.9 0 0 0 .5-1.3v-10.9c0-.5-.2-.9-.5-1.3a1.9 1.9 0 0 0-1.3-.5zm-9.5 12.7c-2.8 0-5-2.2-5-5s2.2-5 5-5 5 2.2 5 5a5 5 0 0 1-5 5zm5.4-9.1c-.2 0-.5-.1-.6-.3-.2-.2-.3-.4-.3-.6s.1-.5.3-.6c.2-.2.4-.3.6-.3s.5.1.6.3c.2.2.3.4.3.6s-.1.5-.3.6c-.1.2-.3.3-.6.3zm-13.6-4.5h-1.8c-.1 0-.2 0-.3-.1s-.1-.2-.1-.3 0-.2.1-.3.2-.1.3-.1h1.8c.1 0 .2 0 .3.1s.1.2.1.3 0 .2-.1.3c0 0-.1.1-.3.1z"/></g><path d="M903.3 558.6h21.4c5.4 0 9.9 4.4 9.9 9.9v21.4c0 5.4-4.4 9.9-9.9 9.9h-21.4c-5.4 0-9.9-4.4-9.9-9.9v-21.4c0-5.5 4.5-9.9 9.9-9.9z" fill="#5d7e89"/><defs><path id="M" d="M900.8 566h26.3v26.3h-26.3z"/></defs><clipPath id="N"><use href="#M"/></clipPath><g clip-path="url(#N)" class="O"><path d="M922.1 580.2c0-.4.1-.7.1-1.1s0-.7-.1-1.1l2.3-1.8c.2-.2.3-.5.1-.7l-2.2-3.8c-.1-.2-.4-.3-.7-.2l-2.7 1.1a11.8 11.8 0 0 0-1.9-1.1l-.4-2.9c0-.3-.3-.5-.5-.5h-4.4c-.3 0-.5.2-.5.5l-.4 2.9c-.7.3-1.3.6-1.9 1.1l-2.7-1.1c-.3-.1-.5 0-.7.2l-2.2 3.8c-.1.2-.1.5.1.7l2.3 1.8c0 .4-.1.7-.1 1.1a4.1 4.1 0 0 0 .1 1.1l-2.3 1.8c-.2.2-.3.5-.1.7l2.2 3.8c.1.2.4.3.7.2l2.7-1.1a11.8 11.8 0 0 0 1.9 1.1l.4 2.9c0 .3.3.5.5.5h4.4c.3 0 .5-.2.5-.5l.4-2.9c.7-.3 1.3-.6 1.9-1.1l2.7 1.1c.3.1.5 0 .7-.2l2.2-3.8c.1-.2.1-.5-.1-.7l-2.3-1.8zM914 583a3.8 3.8 0 0 1 0-7.6 3.8 3.8 0 0 1 0 7.6z"/></g><g opacity=".6" fill="#303030"><path d="M905.1 117.6c.2.2.3.5.1.8l-5.1 6.3c-.4.5-1.2.5-1.7 0l-5.1-6.3c-.2-.2-.2-.6.1-.8a10.6 10.6 0 0 1 5.8-1.8c3-.1 5.1 1.2 5.9 1.8zm11.9-1.5c.3-.3.9-.1.9.4v8.5c0 .6-.5 1.1-1.1 1.1h-8.5c-.5 0-.7-.6-.4-.9l9.1-9.1zm13.6.2h.8c.5 0 .8.4.8.8v8.2c0 .5-.4.8-.8.8h-4.9c-.5 0-.8-.4-.8-.8v-8.2c0-.5.4-.8.8-.8h.8v-1.1h3.3v1.1zm-254.8 0v8.2h-1.4v-6.6l-2 .7v-1.1l3.2-1.2h.2zm8.3 7.1v1.1h-5.5v-.9l2.7-2.9a5.5 5.5 0 0 0 .7-.9c.2-.2.3-.5.4-.6.1-.2.1-.4.1-.6 0-.3 0-.5-.1-.7s-.2-.4-.4-.5-.4-.2-.7-.2-.6.1-.8.2a1.2 1.2 0 0 0-.5.5c-.1.2-.2.5-.2.8h-1.4c0-.5.1-.9.3-1.3s.5-.7.9-.9.9-.4 1.5-.4a3.2 3.2 0 0 1 1.4.3c.4.2.7.4.9.8.2.3.3.7.3 1.2 0 .3 0 .5-.1.8a3 3 0 0 1-.4.8c-.2.2-.3.5-.5.7s-.4.5-.7.8l-1.8 1.9h3.9zm1.1.4c0-.2.1-.4.2-.5s.3-.2.6-.2c.2 0 .4.1.6.2.1.1.2.3.2.5s-.1.4-.2.5-.3.2-.6.2c-.2 0-.4-.1-.6-.2-.1-.1-.2-.3-.2-.5zm0-4.8c0-.2.1-.4.2-.5s.3-.2.6-.2c.2 0 .4.1.6.2.1.1.2.3.2.5s-.1.4-.2.5-.3.2-.6.2c-.2 0-.4-.1-.6-.2-.1-.1-.2-.3-.2-.5zm4.6.8h.8c.3 0 .6-.1.8-.2s.4-.3.5-.4c.1-.2.2-.4.2-.7s0-.5-.1-.7-.2-.3-.4-.4-.4-.2-.7-.2c-.2 0-.5 0-.7.1s-.3.2-.5.4c-.1.2-.2.4-.2.6h-1.4c0-.4.1-.8.3-1.2.2-.3.5-.6.9-.8s.8-.3 1.3-.3a3.2 3.2 0 0 1 1.4.3c.4.2.7.4.9.8s.3.8.3 1.3c0 .2-.1.5-.2.7s-.3.5-.5.7-.5.4-.8.5a3.6 3.6 0 0 1-1.1.2h-1v-.7zm0 1v-.7h1c.5 0 .9.1 1.2.2s.6.3.8.5.4.4.5.7.2.5.2.8c0 .4-.1.7-.2 1s-.3.5-.6.8c-.3.2-.5.4-.9.5a3.6 3.6 0 0 1-1.1.2c-.4 0-.7 0-1-.1s-.6-.2-.9-.4-.5-.4-.6-.7-.2-.6-.2-1h1.4c0 .2.1.5.2.6.1.2.3.3.5.4s.5.2.7.2c.3 0 .5-.1.7-.2s.4-.3.5-.4c.1-.2.2-.4.2-.7s-.1-.6-.2-.8-.3-.3-.5-.4-.5-.1-.8-.1h-.9zm10.3-1.1v1.3c0 .6-.1 1.2-.2 1.6a3.7 3.7 0 0 1-.5 1.1c-.2.3-.5.5-.8.6a3.6 3.6 0 0 1-1.1.2c-.3 0-.6 0-.9-.1s-.5-.2-.7-.4-.4-.4-.6-.7a3 3 0 0 1-.4-1c-.1-.4-.1-.8-.1-1.4v-1.3c0-.6.1-1.2.2-1.6a3.7 3.7 0 0 1 .5-1.1c.2-.3.5-.5.8-.6a3.6 3.6 0 0 1 1.1-.2c.3 0 .6 0 .9.1s.5.2.7.4.4.4.6.7a3 3 0 0 1 .4 1c0 .4.1.9.1 1.4zm-1.4 1.5v-1.7c0-.3 0-.6-.1-.9 0-.3-.1-.5-.2-.6-.1-.2-.2-.3-.3-.4s-.2-.2-.4-.2c-.1-.1-.3-.1-.5-.1s-.4 0-.6.1-.3.2-.4.4l-.3.7c-.1.3-.1.6-.1 1v1.7c0 .3 0 .6.1.9 0 .3.1.5.2.6.1.2.2.3.3.4s.2.2.4.2c.1.1.3.1.5.1s.4 0 .6-.1.3-.2.4-.4.2-.4.3-.7c.1-.2.1-.6.1-1z"/></g><defs><path id="O" d="M893.4 148h41.1v41.1h-41.1z"/></defs><clipPath id="P"><use href="#O"/></clipPath><g clip-path="url(#P)"><linearGradient id="Q" gradientUnits="userSpaceOnUse" x1="906.6" y1="157.88" x2="906.6" y2="172.47"><stop offset="0" stop-color="#ffc700"/><stop offset="1" stop-color="#ffea00"/></linearGradient><path d="M906.6 172.5c4.1 0 7.4-3.3 7.4-7.3s-3.3-7.3-7.4-7.3-7.4 3.3-7.4 7.3 3.3 7.3 7.4 7.3z" fill="url(#Q)"/><path d="M908.2 179.3c-1.4 0-2.7-.6-3.7-1.5s-1.6-2.1-1.8-3.5a5.7 5.7 0 0 1 .9-3.8 6.2 6.2 0 0 1 3.2-2.3c0-1.7.7-3.3 1.8-4.6s2.7-2.1 4.3-2.4c1.7-.3 3.4.1 4.9 1s2.5 2.2 3.1 3.8c.4-.1.8-.1 1.2-.1 1.8 0 3.5.7 4.7 1.9 1.3 1.2 2 2.9 2 4.7a6.5 6.5 0 0 1-2 4.7c-1.3 1.2-3 1.9-4.7 1.9h-13.9z" fill="#88c3fc" class="R S"/></g><path d="M687.9 356.3h230.2a16.4 16.4 0 0 1 16.4 16.4V478a16.4 16.4 0 0 1-16.4 16.4H687.9a16.4 16.4 0 0 1-16.4-16.4V372.8c-.1-9.1 7.3-16.5 16.4-16.5z" class="O Q T"/><path d="M692.3 386.5v13.6h-3v-13.6h3zm6.6-.6h.9c.4 0 .8 0 1.2.1.4 0 .8.1 1 .1l-.3 1.9H700c-.5 0-.8.1-1 .3s-.3.5-.3 1v10.8h-2.9v-11.2c0-.6.1-1.1.3-1.6s.5-.8 1-1.1c.4-.2 1-.3 1.8-.3zm2.4 4.4v1.9H694v-1.8l1.8-.1h5.5zm14.8 0l-3.5 9.9c-.2.5-.4 1-.7 1.5a4.5 4.5 0 0 1-1.1 1.3c-.4.4-.9.7-1.5.9s-1.3.2-2.1.2l-.2-1.7a6.8 6.8 0 0 0 1.9-.8c.4-.4.8-.8 1-1.4l.6-1.4.3-1 .3-1.1 1.8-6.3h3.2zm-7.7 0l1.9 6.3c.1.2.1.5.2.8.1.2.1.5.1.8h.5l-.9 1.9h-.7c-.2 0-.4-.1-.6-.2s-.3-.3-.4-.5l-3.2-9h3.1zm13.5-.2c1.2 0 2.2.2 2.9.5s1.3.9 1.6 1.6c.3.8.5 1.8.5 3s-.2 2.2-.5 3-.8 1.3-1.6 1.6c-.7.3-1.7.5-2.9.5s-2.2-.2-2.9-.5-1.3-.9-1.6-1.6-.5-1.7-.5-3 .2-2.3.5-3 .9-1.3 1.6-1.6c.8-.4 1.7-.5 2.9-.5zm0 2.1c-.5 0-.9.1-1.2.3s-.5.5-.6.9-.2 1.1-.2 1.9.1 1.4.2 1.8.3.7.6.9.7.2 1.2.2.9-.1 1.2-.2c.3-.2.5-.5.6-.9s.2-1 .2-1.8a9.2 9.2 0 0 0-.2-1.9c-.1-.4-.3-.7-.6-.9-.2-.2-.6-.3-1.2-.3zm9.9-1.9v6.4c0 .4.1.7.3.9s.5.3.9.3.8-.1 1.2-.2l1.5-.7.2 1.6c-.7.6-1.4 1.1-2.1 1.4s-1.4.5-2.1.5c-1.8 0-2.8-.9-2.8-2.7v-7.3h2.9zm6.5 0v9.7H736l-.3-1.9-.3-.3v-7.6h2.9zm24.1-3.8l-2.2 12.8c0 .2-.2.4-.4.6s-.4.2-.7.2h-2.8c-.3 0-.5-.1-.7-.2-.2-.2-.3-.4-.3-.6l-1.5-8.9c0-.3-.1-.6-.1-.9s-.1-.6-.1-.9h-.4c0 .3-.1.6-.1.9s-.1.6-.1.9l-1.5 8.9c0 .2-.2.5-.4.6-.2.2-.4.2-.7.2h-2.8c-.3 0-.5-.1-.7-.2-.2-.2-.3-.4-.4-.6l-2.2-12.8h3l1.4 9.5c0 .3.1.6.1.9s.1.7.1 1h.4c.1-.3.1-.6.2-1s.1-.7.2-1l1.5-8.6c0-.3.1-.5.3-.7s.4-.3.7-.3h2.5c.3 0 .5.1.7.3s.3.4.4.7l1.5 8.6c.1.3.1.6.2 1a3.4 3.4 0 0 1 .1 1h.4c0-.3.1-.6.1-1 0-.3.1-.7.1-.9l1.4-9.5h2.8zm6.6 3.6c.8 0 1.5.1 2.1.3s1 .6 1.3 1.1.5 1.2.5 2.1v6.5h-2.3l-.4-2.1-.2-.3v-4c0-.5-.1-.8-.4-1-.2-.2-.6-.3-1.2-.3-.5 0-1.1 0-1.9.1l-2.3.1-.3-1.9c.5-.1 1-.2 1.6-.2.6-.1 1.2-.1 1.9-.2.5-.2 1.1-.2 1.6-.2zm2.6 4v1.6h-4.3c-.4 0-.6.1-.8.3-.1.2-.2.4-.2.7v.5c0 .3.1.6.3.8s.5.3.9.3c.3 0 .7-.1 1.1-.2s.8-.3 1.2-.6l1.1-.9v1.3c-.1.2-.3.4-.5.8-.2.3-.5.6-.9.9s-.8.5-1.2.7c-.5.2-1 .3-1.6.3s-1.1-.1-1.6-.3-.8-.5-1.1-.9-.4-.9-.4-1.5v-1a2.2 2.2 0 0 1 .8-1.8 3.4 3.4 0 0 1 2.2-.7h5zm10.3-4c1.8 0 2.8.9 2.8 2.7v7.3h-2.9v-6.4a2 2 0 0 0-.2-.9c-.2-.2-.4-.3-.8-.3s-.9.1-1.3.3-1 .4-1.7.7l-.1-1.6c.7-.6 1.4-1 2.1-1.4.6-.3 1.4-.4 2.1-.4zm-4.5.2l.3 1.9.2.3v7.6H775v-9.7h2.4zm13.3-2.7v9.3c0 .4.1.6.2.8.2.1.4.2.8.2h1.3l.3 2c-.2.1-.5.1-.9.2-.3.1-.7.1-1 .1h-.9c-.9 0-1.6-.2-2.1-.7s-.7-1.1-.7-2v-10h3zm2.8 2.7v1.9h-7.3v-1.8l1.9-.1h5.4zm9.3-2.7v9.3c0 .4.1.6.2.8.2.1.4.2.8.2h1.3l.3 2c-.2.1-.5.1-.9.2-.3.1-.7.1-1 .1h-.9c-.9 0-1.6-.2-2.1-.7s-.7-1.1-.7-2v-10h3zm2.7 2.7v1.9h-7.3v-1.8l1.9-.1h5.4zm6.2-.2c1.2 0 2.2.2 2.9.5s1.3.9 1.6 1.6c.3.8.5 1.8.5 3s-.2 2.2-.5 3-.8 1.3-1.6 1.6c-.7.3-1.7.5-2.9.5s-2.2-.2-2.9-.5-1.3-.9-1.6-1.6-.5-1.7-.5-3 .2-2.3.5-3 .9-1.3 1.6-1.6c.7-.4 1.7-.5 2.9-.5zm0 2.1c-.5 0-.9.1-1.2.3s-.5.5-.6.9-.2 1.1-.2 1.9.1 1.4.2 1.8.3.7.6.9.7.2 1.2.2.9-.1 1.2-.2c.3-.2.5-.5.6-.9s.2-1 .2-1.8a9.2 9.2 0 0 0-.2-1.9c-.1-.4-.3-.7-.6-.9s-.7-.3-1.2-.3zm15.6-2.1c1.1 0 2 .1 2.7.3s1.2.5 1.4 1c.3.4.5 1 .5 1.8 0 .7-.1 1.3-.4 1.8-.3.4-.8.8-1.5 1s-1.6.3-2.7.3-2-.1-2.7-.3-1.2-.5-1.4-1c-.3-.4-.4-1-.4-1.8 0-.7.1-1.3.4-1.8s.8-.8 1.5-1a8.8 8.8 0 0 1 2.6-.3zm0 1.8c-.7 0-1.2.1-1.5.3s-.4.5-.4 1 .1.8.4 1 .8.3 1.5.3 1.2-.1 1.5-.3.4-.5.4-1-.1-.8-.4-1-.8-.3-1.5-.3zm5.7-1.6l-.2 1.2-2.6.3-.7-1.6h3.5zm-8.6 5.4l1.4.2c-.2.1-.3.3-.4.5s0 .4.1.6.3.3.7.4l3.6.4c1 .1 1.8.4 2.2.9s.6 1.1.6 2c0 .8-.2 1.5-.5 1.9-.3.5-.9.8-1.6.9-.8.2-1.8.3-3 .3-1 0-1.9-.1-2.5-.2-.7-.1-1.2-.2-1.6-.5-.4-.2-.7-.5-.8-.9-.2-.4-.2-.8-.2-1.3 0-.4.1-.8.2-1 .1-.3.4-.6.8-.8s.8-.5 1.5-.7l1.4-.5 1 .4-.8.5-.8.6c-.2.2-.3.3-.4.5s-.1.4-.1.6c0 .3.1.5.2.7s.4.3.7.3c.4.1.8.1 1.4.1s1.1 0 1.5-.1.6-.2.7-.3c.1-.2.2-.4.2-.7 0-.2 0-.4-.1-.6-.1-.1-.3-.2-.5-.3s-.6-.1-1-.2l-3.1-.3c-.5-.1-.9-.2-1.2-.4s-.5-.5-.6-.8-.1-.6-.1-1c.1-.3.2-.6.4-.9.1 0 .4-.2.7-.3zm14.6-5.6c1.6 0 2.8.3 3.5.8a3.1 3.1 0 0 1 1.1 2.5c0 .9-.2 1.5-.7 2-.5.4-1.3.7-2.4.7h-5.4v-1.6h4.7c.4 0 .7-.1.8-.3s.2-.5.2-.8c0-.5-.1-.8-.4-.9-.2-.2-.7-.3-1.3-.3-.5 0-1 .1-1.3.2s-.5.4-.6.8-.2 1-.2 1.8a9.2 9.2 0 0 0 .2 1.9c.1.4.4.7.7.9.4.2.8.3 1.5.3h1.7c.7 0 1.3-.1 2-.2l.3 1.8c-.4.2-.8.3-1.3.4a7.7 7.7 0 0 1-1.5.2c-.5.1-1 .1-1.5.1-1.2 0-2.2-.2-3-.5-.8-.4-1.3-.9-1.6-1.7s-.5-1.7-.5-2.9c0-1.3.2-2.3.5-3a2.8 2.8 0 0 1 1.6-1.6c.7-.5 1.7-.6 2.9-.6zm10.3-2.5v9.3c0 .4.1.6.2.8.2.1.4.2.8.2h1.3l.3 2c-.2.1-.5.1-.9.2-.3.1-.7.1-1 .1h-.9c-.9 0-1.6-.2-2.1-.7s-.7-1.1-.7-2v-10h3zm2.7 2.7v1.9h-7.3v-1.8l1.9-.1h5.4zm-158.3 28.9c.7 0 1.4 0 2.2.1s1.6.2 2.3.4l-.2 2c-.6 0-1.3 0-2-.1s-1.5 0-2.3 0h-.9c-.2 0-.5.1-.6.2-.2.1-.3.2-.3.4-.1.2-.1.4-.1.7 0 .5.1.8.3 1s.6.4 1.1.6l2.6.8a5.1 5.1 0 0 1 2.3 1.5c.4.6.6 1.5.6 2.5 0 .8-.1 1.4-.3 1.9s-.5.9-.9 1.2-.9.5-1.6.6c-.6.1-1.4.2-2.4.2-.4 0-1.1 0-1.9-.1l-2.8-.4.2-2.1c.8 0 1.5 0 2 .1h1.5 1.1c.5 0 1 0 1.2-.1.3-.1.5-.2.6-.4s.2-.5.2-.8 0-.6-.1-.8-.2-.3-.4-.5c-.2-.1-.5-.2-.8-.3l-2.8-.9c-1.1-.4-1.8-.9-2.2-1.5a4.4 4.4 0 0 1-.6-2.5c0-.8.1-1.4.3-1.9s.5-.9.9-1.1c.4-.3.9-.5 1.5-.6l2.3-.1zm11.6 3.9c1.2 0 2.2.2 2.9.5s1.3.9 1.6 1.6c.3.8.5 1.8.5 3s-.2 2.2-.5 3-.8 1.3-1.6 1.6c-.7.3-1.7.5-2.9.5s-2.2-.2-2.9-.5-1.3-.9-1.6-1.6-.5-1.7-.5-3 .2-2.3.5-3 .9-1.3 1.6-1.6c.7-.4 1.7-.5 2.9-.5zm0 2.1c-.5 0-.9.1-1.2.3s-.5.5-.6.9-.2 1.1-.2 1.9.1 1.4.2 1.8.3.7.6.9.7.2 1.2.2.9-.1 1.2-.2c.3-.2.5-.5.6-.9s.2-1 .2-1.8a9.2 9.2 0 0 0-.2-1.9c-.1-.4-.3-.7-.6-.9s-.7-.3-1.2-.3zm19.3-2.1c.9 0 1.6.2 2 .7.5.5.7 1.1.7 2v7.3h-2.9v-6.4c0-.4-.1-.7-.3-.9s-.4-.3-.8-.3c-.2 0-.4 0-.7.1-.2.1-.5.2-.7.3-.3.1-.6.3-1 .6l-.2-1.6c.6-.6 1.2-1.1 1.9-1.4s1.3-.4 2-.4zm-10 .2l.3 1.9.3.3v7.6h-2.9v-9.7h2.3zm3.9-.2c.9 0 1.5.2 2 .7.5.4.7 1.1.7 2v7.3h-2.8v-6.4c0-.4-.1-.7-.3-.9s-.4-.3-.8-.3c-.2 0-.4 0-.7.1a6.9 6.9 0 0 1-.8.3c-.3.1-.6.3-1 .6l-.2-1.6a7.7 7.7 0 0 1 1.9-1.4c.7-.3 1.3-.4 2-.4zm15.8 0c1.6 0 2.8.3 3.5.8a3.1 3.1 0 0 1 1.1 2.5c0 .9-.2 1.5-.7 2-.5.4-1.3.7-2.4.7h-5.4v-1.6h4.7c.4 0 .7-.1.8-.3s.2-.5.2-.8c0-.5-.1-.8-.4-.9-.2-.2-.7-.3-1.3-.3-.5 0-1 .1-1.3.2s-.5.4-.6.8-.2 1-.2 1.8a9.2 9.2 0 0 0 .2 1.9c.1.4.4.7.7.9.4.2.8.3 1.5.3h1.7c.7 0 1.3-.1 2-.2l.3 1.8c-.4.2-.8.3-1.3.4s-1 .2-1.5.2c-.5.1-1 .1-1.5.1-1.2 0-2.2-.2-3-.5-.8-.4-1.3-.9-1.6-1.7s-.5-1.7-.5-2.9c0-1.3.2-2.3.5-3a2.8 2.8 0 0 1 1.6-1.6c.7-.5 1.7-.6 2.9-.6zm12.6 0c1.3 0 2.2.4 2.8 1.2s.8 2.1.8 3.9c0 .8-.1 1.4-.2 2.1a5.1 5.1 0 0 1-.7 1.7c-.3.5-.8.8-1.4 1.1-.6.2-1.4.4-2.4.4-.3 0-.7 0-1.2-.1-.4 0-.9-.1-1.4-.1-.5-.1-.9-.1-1.3-.2s-.8-.2-1.1-.4l2.3-1.7c.2.1.5.2.8.2.3.1.6.1.9.1h.8c.5 0 .8-.1 1.1-.3s.5-.5.6-.9.2-1.1.2-1.9a7.2 7.2 0 0 0-.2-1.7c-.1-.4-.3-.7-.5-.8-.2-.2-.6-.3-1.1-.3-.4 0-.8.1-1.2.3s-.7.4-1.2.7l-.2-1.4c.3-.4.7-.7 1.1-1a5.4 5.4 0 0 1 1.3-.7c.5-.1 1-.2 1.4-.2zm-3.2-3.8v3.2c0 .4 0 .9-.1 1.3 0 .4-.1.8-.2 1.2l.3.3v7.5l-2.9-.1v-13.3h2.9zm13.5 3.8c1.2 0 2.2.2 2.9.5s1.3.9 1.6 1.6c.3.8.5 1.8.5 3s-.2 2.2-.5 3-.8 1.3-1.6 1.6c-.7.3-1.7.5-2.9.5s-2.2-.2-2.9-.5-1.3-.9-1.6-1.6-.5-1.7-.5-3 .2-2.3.5-3 .9-1.3 1.6-1.6c.7-.4 1.6-.5 2.9-.5zm0 2.1c-.5 0-.9.1-1.2.3s-.5.5-.6.9-.2 1.1-.2 1.9.1 1.4.2 1.8.3.7.6.9.7.2 1.2.2.9-.1 1.2-.2c.3-.2.5-.5.6-.9s.2-1 .2-1.8a9.2 9.2 0 0 0-.2-1.9c-.1-.4-.3-.7-.6-.9s-.7-.3-1.2-.3zm10.3-2.1c.7 0 1.4.1 2 .3s1.2.5 1.7 1l-.2 1.3-1.2-.3c-.4-.1-.8-.2-1.2-.2s-.7.1-1 .2c-.2.1-.4.4-.6.8-.1.4-.2 1-.2 1.9 0 .8.1 1.4.2 1.8s.3.7.5.8a2.4 2.4 0 0 0 .9.2c.3 0 .6 0 .9-.1a6.9 6.9 0 0 1 .8-.3c.2-.2.5-.3.9-.6l.2 1.4a5 5 0 0 1-1.5 1.4c-.6.4-1.4.6-2.3.6-1.2 0-2.1-.4-2.7-1.3-.5-.9-.8-2.2-.8-3.8 0-1.3.1-2.3.4-3s.7-1.3 1.2-1.6c.5-.4 1.2-.5 2-.5zm6-3.8v13.8h-2.3l-.3-1.8-.3-.2v-6.4l.1-.3c0-.4-.1-.8-.1-1.2v-1.3-2.6h2.9zm12.2 4l-3.5 9.9c-.2.5-.4 1-.7 1.5a4.5 4.5 0 0 1-1.1 1.3c-.4.4-.9.7-1.5.9s-1.3.2-2.1.2l-.2-1.7a6.8 6.8 0 0 0 1.9-.8c.4-.4.8-.8 1-1.4l.6-1.4.3-1 .3-1.1 1.8-6.3h3.2zm-7.7 0l1.9 6.3c.1.2.1.5.2.8.1.2.1.5.1.8h.5l-.9 1.9h-.8c-.2 0-.4-.1-.6-.2s-.3-.3-.4-.5l-3.2-9h3.2zm16.4-2.7v9.3c0 .4.1.6.2.8.2.1.4.2.8.2h1.3l.3 2c-.2.1-.5.1-.9.2-.3.1-.7.1-1 .1h-.9c-.9 0-1.6-.2-2.1-.7s-.7-1.1-.7-2v-10h3zm2.7 2.7v1.9h-7.3v-1.8l1.9-.1h5.4zm6.2-.2c1.2 0 2.2.2 2.9.5s1.3.9 1.6 1.6c.3.8.5 1.8.5 3s-.2 2.2-.5 3-.8 1.3-1.6 1.6c-.7.3-1.7.5-2.9.5s-2.2-.2-2.9-.5-1.3-.9-1.6-1.6-.5-1.7-.5-3 .2-2.3.5-3 .9-1.3 1.6-1.6c.8-.4 1.7-.5 2.9-.5zm0 2.1c-.5 0-.9.1-1.2.3s-.5.5-.6.9-.2 1.1-.2 1.9.1 1.4.2 1.8.3.7.6.9.7.2 1.2.2.9-.1 1.2-.2c.3-.2.5-.5.6-.9s.2-1 .2-1.8a9.2 9.2 0 0 0-.2-1.9c-.1-.4-.3-.7-.6-.9-.2-.2-.6-.3-1.2-.3zm14.7-2.1c.7 0 1.4.1 2 .3s1.2.5 1.7 1l-.2 1.3-1.2-.3c-.4-.1-.8-.2-1.2-.2s-.7.1-1 .2c-.2.1-.4.4-.6.8-.1.4-.2 1-.2 1.9 0 .8.1 1.4.2 1.8s.3.7.5.8a2.4 2.4 0 0 0 .9.2c.3 0 .6 0 .9-.1.2-.1.5-.2.8-.3.2-.2.5-.3.9-.6l.2 1.4a5 5 0 0 1-1.5 1.4c-.6.4-1.4.6-2.3.6-1.2 0-2.1-.4-2.7-1.3-.5-.9-.8-2.2-.8-3.8 0-1.3.1-2.3.4-3s.7-1.3 1.2-1.6c.5-.4 1.1-.5 2-.5zm6-3.8v13.8h-2.3l-.3-1.8-.3-.2v-6.4l.1-.3c0-.4-.1-.8-.1-1.2v-1.3-2.6h2.9zm7 3.8c1.2 0 2.2.2 2.9.5s1.3.9 1.6 1.6c.3.8.5 1.8.5 3s-.2 2.2-.5 3-.8 1.3-1.6 1.6c-.7.3-1.7.5-2.9.5s-2.2-.2-2.9-.5-1.3-.9-1.6-1.6-.5-1.7-.5-3 .2-2.3.5-3 .9-1.3 1.6-1.6c.7-.4 1.7-.5 2.9-.5zm0 2.1c-.5 0-.9.1-1.2.3s-.5.5-.6.9-.2 1.1-.2 1.9.1 1.4.2 1.8.3.7.6.9.7.2 1.2.2.9-.1 1.2-.2c.3-.2.5-.5.6-.9s.2-1 .2-1.8a9.2 9.2 0 0 0-.2-1.9c-.1-.4-.3-.7-.6-.9s-.7-.3-1.2-.3zm-137.3 27c.7 0 1.4 0 2.2.1s1.6.2 2.3.4l-.2 2c-.6 0-1.3 0-2-.1s-1.5 0-2.3 0h-.9c-.2 0-.5.1-.6.2-.2.1-.3.2-.3.4-.1.2-.1.4-.1.7 0 .5.1.8.3 1s.6.4 1.1.6l2.6.8a5.1 5.1 0 0 1 2.3 1.5c.4.6.6 1.5.6 2.5 0 .8-.1 1.4-.3 1.9s-.5.9-.9 1.2-.9.5-1.6.6c-.6.1-1.4.2-2.4.2-.4 0-1.1 0-1.9-.1l-2.8-.4.2-2.1c.8 0 1.5 0 2 .1h1.5 1.1c.5 0 1 0 1.2-.1.3-.1.5-.2.6-.4s.2-.5.2-.8 0-.6-.1-.8-.2-.3-.4-.5c-.2-.1-.5-.2-.8-.3l-2.8-.9c-1.1-.4-1.8-.9-2.2-1.5a4.4 4.4 0 0 1-.6-2.5c0-.8.1-1.4.3-1.9s.5-.9.9-1.1c.4-.3.9-.5 1.5-.6l2.3-.1zm11.6 3.9c1.2 0 2.2.2 2.9.5s1.3.9 1.6 1.6c.3.8.5 1.8.5 3s-.2 2.2-.5 3-.8 1.3-1.6 1.6c-.7.3-1.7.5-2.9.5s-2.2-.2-2.9-.5-1.3-.9-1.6-1.6-.5-1.7-.5-3 .2-2.3.5-3 .9-1.3 1.6-1.6c.7-.4 1.7-.5 2.9-.5zm0 2.1c-.5 0-.9.1-1.2.3s-.5.5-.6.9-.2 1.1-.2 1.9.1 1.4.2 1.8.3.7.6.9.7.2 1.2.2.9-.1 1.2-.2c.3-.2.5-.5.6-.9s.2-1 .2-1.8a9.2 9.2 0 0 0-.2-1.9c-.1-.4-.3-.7-.6-.9s-.7-.3-1.2-.3zm19.3-2.1c.9 0 1.6.2 2 .7.5.5.7 1.1.7 2v7.3h-2.9v-6.4c0-.4-.1-.7-.3-.9s-.4-.3-.8-.3c-.2 0-.4 0-.7.1-.2.1-.5.2-.7.3-.3.1-.6.3-1 .6l-.2-1.6c.6-.6 1.2-1.1 1.9-1.4s1.3-.4 2-.4zm-10 .2l.3 1.9.3.3v7.6h-2.9v-9.7h2.3zm3.9-.2c.9 0 1.5.2 2 .7.5.4.7 1.1.7 2v7.3h-2.8v-6.4c0-.4-.1-.7-.3-.9s-.4-.3-.8-.3c-.2 0-.4 0-.7.1a6.9 6.9 0 0 1-.8.3c-.3.1-.6.3-1 .6l-.2-1.6a7.7 7.7 0 0 1 1.9-1.4c.7-.3 1.3-.4 2-.4zm15.8 0c1.6 0 2.8.3 3.5.8a3.1 3.1 0 0 1 1.1 2.5c0 .9-.2 1.5-.7 2-.5.4-1.3.7-2.4.7h-5.4v-1.6h4.7c.4 0 .7-.1.8-.3s.2-.5.2-.8c0-.5-.1-.8-.4-.9-.2-.2-.7-.3-1.3-.3-.5 0-1 .1-1.3.2s-.5.4-.6.8-.2 1-.2 1.8a9.2 9.2 0 0 0 .2 1.9c.1.4.4.7.7.9.4.2.8.3 1.5.3h1.7c.7 0 1.3-.1 2-.2l.3 1.8c-.4.2-.8.3-1.3.4s-1 .2-1.5.2c-.5.1-1 .1-1.5.1-1.2 0-2.2-.2-3-.5-.8-.4-1.3-.9-1.6-1.7s-.5-1.7-.5-2.9c0-1.3.2-2.3.5-3a2.8 2.8 0 0 1 1.6-1.6c.7-.5 1.7-.6 2.9-.6zm10.3-2.5v9.3c0 .4.1.6.2.8.2.1.4.2.8.2h1.3l.3 2c-.2.1-.5.1-.9.2-.3.1-.7.1-1 .1h-.9c-.9 0-1.6-.2-2.1-.7s-.7-1.1-.7-2v-10h3zm2.7 2.7v1.9H740v-1.8l1.9-.1h5.4zm8.4-.2c1.8 0 2.8.9 2.8 2.7v7.3h-2.9v-6.4a2 2 0 0 0-.2-.9c-.2-.2-.4-.3-.8-.3s-.9.1-1.3.2c-.4.2-1 .4-1.7.8l-.3-1.5a9 9 0 0 1 2.2-1.4c.7-.4 1.5-.5 2.2-.5zm-3.9-3.8v3.4c0 .5 0 1-.1 1.5l-.2 1.2.3.3v7.6h-2.9v-13.8h2.9zm11.9 4v9.7h-2.9v-9.7h2.9zm-.8-4.3c.6 0 .9.3.9.9v1.1c0 .6-.3.9-.9.9h-1.3c-.6 0-.9-.3-.9-.9v-1.1c0-.6.3-.9.9-.9h1.3zm10.1 4.1c1.8 0 2.8.9 2.8 2.7v7.3h-2.9v-6.4a2 2 0 0 0-.2-.9c-.2-.2-.4-.3-.8-.3s-.9.1-1.3.3-1 .4-1.7.7l-.1-1.6c.7-.6 1.4-1 2.1-1.4.6-.3 1.4-.4 2.1-.4zm-4.5.2l.3 1.9.2.3v7.6h-2.9v-9.7h2.4zm13.9-.2c1.1 0 2 .1 2.7.3s1.2.5 1.4 1c.3.4.5 1 .5 1.8 0 .7-.1 1.3-.4 1.8-.3.4-.8.8-1.5 1s-1.6.3-2.7.3-2-.1-2.7-.3-1.2-.5-1.4-1c-.3-.4-.4-1-.4-1.8 0-.7.1-1.3.4-1.8s.8-.8 1.5-1c.5-.2 1.5-.3 2.6-.3zm0 1.8c-.7 0-1.2.1-1.5.3s-.4.5-.4 1 .1.8.4 1 .8.3 1.5.3 1.2-.1 1.5-.3.4-.5.4-1-.1-.8-.4-1-.8-.3-1.5-.3zm5.7-1.6l-.2 1.2-2.6.3-.7-1.6h3.5zm-8.7 5.4l1.4.2c-.2.1-.3.3-.4.5s0 .4.1.6.3.3.7.4l3.6.4c1 .1 1.8.4 2.2.9s.6 1.1.6 2c0 .8-.2 1.5-.5 1.9-.3.5-.9.8-1.6.9-.8.2-1.8.3-3 .3-1 0-1.9-.1-2.5-.2-.7-.1-1.2-.2-1.6-.5-.4-.2-.7-.5-.8-.9-.2-.4-.2-.8-.2-1.3 0-.4.1-.8.2-1 .1-.3.4-.6.8-.8s.8-.5 1.5-.7l1.4-.5 1 .4-.8.5-.8.6c-.2.2-.3.3-.4.5s-.1.4-.1.6c0 .3.1.5.2.7s.4.3.7.3c.4.1.8.1 1.4.1s1.1 0 1.5-.1.6-.2.7-.3c.1-.2.2-.4.2-.7 0-.2 0-.4-.1-.6-.1-.1-.3-.2-.5-.3s-.6-.1-1-.2l-3.1-.3c-.5-.1-.9-.2-1.2-.4s-.5-.5-.6-.8-.1-.6-.1-1c.1-.3.2-.6.4-.9.2 0 .4-.2.7-.3zm11.6 1.4c.4 0 .6.1.8.2.1.1.2.4.2.8v1.3c0 .5 0 1-.1 1.4l-.3 1.2c-.1.4-.3.7-.5 1l-1.2-.4a5 5 0 0 0 .2-1.2c0-.4.1-.8.1-1.3-.5 0-.8-.3-.8-.9v-1.1c0-.4.1-.6.2-.8.2-.2.4-.2.8-.2h.6zm19.9-7c.9 0 1.6.2 2 .7.5.5.7 1.1.7 2v7.3h-2.9v-6.4c0-.4-.1-.7-.3-.9s-.4-.3-.8-.3c-.2 0-.4 0-.7.1-.2.1-.5.2-.7.3-.3.1-.6.3-1 .6l-.2-1.6c.6-.6 1.2-1.1 1.9-1.4s1.3-.4 2-.4zm-10 .2l.3 1.9.3.3v7.6h-2.9v-9.7h2.3zm3.9-.2c.9 0 1.5.2 2 .7.5.4.7 1.1.7 2v7.3h-2.8v-6.4c0-.4-.1-.7-.3-.9s-.4-.3-.8-.3c-.2 0-.4 0-.7.1-.2.1-.5.2-.8.3s-.6.3-1 .6l-.2-1.6a7.7 7.7 0 0 1 1.9-1.4c.7-.3 1.3-.4 2-.4zm16.3 0c.8 0 1.5.1 2.1.3s1 .6 1.3 1.1.5 1.2.5 2.1v6.5h-2.3l-.4-2.1-.2-.3v-4c0-.5-.1-.8-.4-1-.2-.2-.6-.3-1.2-.3-.5 0-1.1 0-1.9.1l-2.3.1-.3-1.9c.5-.1 1-.2 1.6-.2.6-.1 1.2-.1 1.9-.2.6-.2 1.1-.2 1.6-.2zm2.6 4v1.6h-4.3c-.4 0-.6.1-.8.3-.1.2-.2.4-.2.7v.5c0 .3.1.6.3.8s.5.3.9.3c.3 0 .7-.1 1.1-.2s.8-.3 1.2-.6l1.1-.9v1.3c-.1.2-.3.4-.5.8-.2.3-.5.6-.9.9s-.8.5-1.2.7c-.5.2-1 .3-1.6.3s-1.1-.1-1.6-.3-.8-.5-1.1-.9-.4-.9-.4-1.5v-1a2.2 2.2 0 0 1 .8-1.8 3.4 3.4 0 0 1 2.2-.7h5zm12.9-3.8l-2.5 3.4a1.2 1.2 0 0 1-.5.5c-.2.2-.3.3-.5.4v.1c.1.1.3.2.5.4s.3.4.5.6l2.9 4.3h-3.3l-3.3-5.5 3-4.3h3.2zm-6.5-4v5.7c0 .5 0 .9-.1 1.3s-.1.9-.2 1.3a5 5 0 0 1 .2 1.2c.1.4.1.8.1 1.2v3.1h-2.9v-13.8h2.9zm1.4 7.5v1.8h-2.3v-1.8h2.3zm11-3.7c1.6 0 2.8.3 3.5.8a3.1 3.1 0 0 1 1.1 2.5c0 .9-.2 1.5-.7 2-.5.4-1.3.7-2.4.7h-5.4v-1.6h4.7c.4 0 .7-.1.8-.3s.2-.5.2-.8c0-.5-.1-.8-.4-.9-.2-.2-.7-.3-1.3-.3-.5 0-1 .1-1.3.2s-.5.4-.6.8-.2 1-.2 1.8a9.2 9.2 0 0 0 .2 1.9c.1.4.4.7.7.9.4.2.8.3 1.5.3h1.7c.7 0 1.3-.1 2-.2l.3 1.8c-.4.2-.8.3-1.3.4s-1 .2-1.5.2c-.5.1-1 .1-1.5.1-1.2 0-2.2-.2-3-.5-.8-.4-1.3-.9-1.6-1.7s-.5-1.7-.5-2.9c0-1.3.2-2.3.5-3a2.8 2.8 0 0 1 1.6-1.6c.7-.5 1.7-.6 2.9-.6zm13.8.2v9.7h-2.9v-9.7h2.9zm-.8-4.3c.6 0 .9.3.9.9v1.1c0 .6-.3.9-.9.9h-1.3c-.6 0-.9-.3-.9-.9v-1.1c0-.6.3-.9.9-.9h1.3zm7.1 1.6v9.3c0 .4.1.6.2.8.2.1.4.2.8.2h1.3l.3 2c-.2.1-.5.1-.9.2-.3.1-.7.1-1 .1h-.9c-.9 0-1.6-.2-2.1-.7s-.7-1.1-.7-2v-10h3zm2.7 2.7v1.9H858v-1.8l1.9-.1h5.4zm8.8-3.9h2.2 2.2c.7 0 1.4.1 2 .1l-.1 2.2h-5.2c-.3 0-.6.1-.8.3s-.2.4-.2.8v6.9c0 .3.1.6.2.8.2.2.4.3.8.3h5.2l.1 2.2c-.6.1-1.3.1-2 .1h-2.2-2.2c-.9 0-1.6-.2-2.1-.8a2.8 2.8 0 0 1-.8-2v-8.2a2.8 2.8 0 0 1 .8-2c.6-.4 1.3-.7 2.1-.7zm-2.5 5.5h8.2v2.1h-8.2v-2.1zm17.6-5.4c.2 0 .5.1.7.2s.3.3.4.6l3.9 12.8h-3.1l-2.8-10c-.1-.2-.1-.4-.2-.7-.1-.2-.1-.5-.1-.7h-.5c0 .2-.1.4-.1.7 0 .2-.1.4-.2.7l-2.8 10h-3.1l3.9-12.8c.1-.2.2-.4.4-.6.2-.1.4-.2.7-.2h2.9zm2.1 7.7v2.2h-7.1v-2.2h7.1zm8.8-8c.7 0 1.4 0 2.2.1s1.6.2 2.3.4l-.2 2c-.6 0-1.3 0-2-.1s-1.5 0-2.3 0h-.9c-.2 0-.5.1-.6.2-.2.1-.3.2-.3.4-.1.2-.1.4-.1.7 0 .5.1.8.3 1s.6.4 1.1.6l2.6.8a5.1 5.1 0 0 1 2.3 1.5c.4.6.6 1.5.6 2.5 0 .8-.1 1.4-.3 1.9s-.5.9-.9 1.2-.9.5-1.6.6c-.6.1-1.4.2-2.4.2-.4 0-1.1 0-1.9-.1l-2.8-.4.2-2.1c.8 0 1.5 0 2 .1h1.5 1.1c.5 0 1 0 1.2-.1.3-.1.5-.2.6-.4s.2-.5.2-.8 0-.6-.1-.8-.2-.3-.4-.5c-.2-.1-.5-.2-.8-.3l-2.8-.9c-1.1-.4-1.8-.9-2.2-1.5a4.4 4.4 0 0 1-.6-2.5c0-.8.1-1.4.3-1.9s.5-.9.9-1.1c.4-.3.9-.5 1.5-.6l2.3-.1zm17.7.3l-4.6 9.3h-2.8l-4.6-9.3h3.1l2.3 5 .3.8c.1.3.2.6.2.9h.2c.1-.3.2-.6.2-.9l.3-.8 2.3-5h3.1zm-4.6 7.4v6.2h-3v-6.2h3z" class="P"/><path d="M803,524.1l-29.6-29.6h59.2L803,524.1z" class="O Q"/></g><g fill="#262c44"><path d="M908.7 660H691.3c-26.4 0-47.9-21.5-47.9-47.8V137.8A47.9 47.9 0 0 1 691.3 90h217.4c26.4 0 47.9 21.5 47.9 47.8v474.4c0 26.3-21.5 47.8-47.9 47.8zM691.3 102c-19.8 0-36 16.1-36 35.9v474.4c0 19.8 16.1 35.9 36 35.9h217.4c19.8 0 36-16.1 36-35.9V137.8c0-19.8-16.1-35.9-36-35.9H691.3z"/><path d="M960 184.9h-9.6v98h9.6v-98zm-310.4 0H640v38.6h9.6v-38.6zm0 55H640v38.6h9.6v-38.6z"/><use href="#C"/></g><use href="#D"/><use href="#E" fill="#181d2d"/><use href="#F"/><path d="M508.7 654H291.3a41.8 41.8 0 0 1-41.9-41.8V137.8c0-23.1 18.8-41.8 41.9-41.8h217.4a41.8 41.8 0 0 1 41.9 41.8v474.4a41.8 41.8 0 0 1-41.9 41.8z" fill="#e3f4fc"/><defs><path id="R" d="M274.8 101.7h252c11 0 20 9 20 20v506.6c0 11-9 20-20 20h-252c-11 0-20-9-20-20V121.7a20 20 0 0 1 20-20z"/></defs><clipPath id="S"><use href="#R"/></clipPath><g clip-path="url(#S)"><linearGradient id="T" gradientUnits="userSpaceOnUse" x1="401.27" y1="108.1" x2="400.25" y2="644.27"><stop offset="0" stop-color="#fdfeff"/><stop offset="1" stop-color="#75abee"/></linearGradient><path d="M274.8 101.7h252c11 0 20 9 20 20v506.6c0 11-9 20-20 20h-252c-11 0-20-9-20-20V121.7a20 20 0 0 1 20-20z" fill="url(#T)"/><use href="#G" fill="#15cf74"/><path d="M289 602.2c-.3-3.6-4-5.3-4.2-5.4-.1-.1-.3-.1-.5-.1-4.3.7-4.9 3.2-5 3.3v.4c5.1 15.9 15.7 18.8 19.2 19.8.3.1.5.1.7.2s.4.1.6 0c.1 0 2.6-1.2 3.2-5.1 0-.2 0-.3-.1-.5-.1-.1-1.4-2.6-5-3.5h-.4c-.1 0-.2.1-.3.2-1.2 1-2.8 2-3.4 2.1-4.6-2.3-7.2-6.6-7.3-7.4-.1-.5 1-2.1 2.2-3.4.1-.1.1-.2.2-.3s.1-.2.1-.3z" class="O"/><path d="M335.4 588.4h21.1a9.7 9.7 0 0 1 9.7 9.7v21.1a9.7 9.7 0 0 1-9.7 9.7h-21.1a9.7 9.7 0 0 1-9.7-9.7v-21.1c0-5.4 4.3-9.7 9.7-9.7z" fill="#ffcd5e"/><defs><path id="U" d="M333 595.7h25.9v25.9H333z"/></defs><clipPath id="V"><use href="#U"/></clipPath><g clip-path="url(#V)" class="O"><path d="M353.6 601c-1.8-1.8-4.1-2.9-6.6-3.1s-5 .4-7.1 1.8-3.6 3.5-4.3 5.9a10.8 10.8 0 0 0 .4 7.3 1.7 1.7 0 0 1 .1.7l-1 4.6v.5c0 .1.1.3.3.5.1.1.2.2.4.2.1.1.3.1.4.1h.2l4.6-.9a1.7 1.7 0 0 1 .7.1c2.3 1 4.9 1.2 7.3.4 2.4-.7 4.5-2.2 5.9-4.3s2-4.6 1.8-7.1a10.5 10.5 0 0 0-3.1-6.7h0zm-12 8.7c-.2 0-.4-.1-.6-.2s-.3-.3-.4-.5-.1-.4-.1-.6.1-.4.3-.6.3-.3.6-.3c.2 0 .4 0 .6.1s.4.2.5.4.2.4.2.6c0 .3-.1.6-.3.8s-.5.3-.8.3zm4.3 0c-.2 0-.4-.1-.6-.2s-.3-.3-.4-.5-.1-.4-.1-.6.1-.4.3-.6.3-.3.6-.3c.2 0 .4 0 .6.1s.4.2.5.4.2.4.2.6c0 .3-.1.6-.3.8s-.5.3-.8.3zm4.4 0c-.2 0-.4-.1-.6-.2s-.3-.3-.4-.5-.1-.4-.1-.6.1-.4.3-.6.3-.3.6-.3c.2 0 .4 0 .6.1s.4.2.5.4.2.4.2.6c0 .3-.1.6-.3.8-.3.2-.5.3-.8.3z"/></g><path d="M390.1 588.4h21.1a9.7 9.7 0 0 1 9.7 9.7v21.1a9.7 9.7 0 0 1-9.7 9.7h-21.1a9.7 9.7 0 0 1-9.7-9.7v-21.1c0-5.4 4.3-9.7 9.7-9.7z" class="P"/><g class="O"><path d="M401.2 599.7c-.8 0-1.6 0-2.1.1-.6 0-1.2.1-1.6.2l-1.5.3.3 2.8c.6 0 1.1-.1 1.6-.1h1.5 1.9c.9 0 1.6.2 2.1.5s.8.9 1 1.7a15.2 15.2 0 0 1 .3 3.4 15.2 15.2 0 0 1-.3 3.4c-.2.8-.5 1.4-1 1.7s-1.2.5-2.1.5c-1.2 0-2.2 0-3-.1-.8 0-1.6-.1-2.4-.2l-.3 2.8 2.5.5c.9.1 1.9.2 3.2.2a10.8 10.8 0 0 0 4.4-.8c1.1-.6 1.9-1.5 2.4-2.8s.7-3 .7-5.2-.2-3.9-.7-5.2-1.3-2.2-2.4-2.8c-1.2-.6-2.6-.9-4.5-.9z"/><path d="M396.4 600h2.9l2.9.1a24.5 24.5 0 0 1 2.7.2l-.2 2.8h-6.8c-.4 0-.8.1-1 .3s-.3.5-.3.9v8.8c0 .4.1.7.3.9s.5.3 1 .3h6.8l.2 2.8c-.8.1-1.7.1-2.7.1h-2.9-2.9c-1.1 0-2.1-.3-2.8-.9s-1-1.5-1.1-2.5v-10.4c0-1 .4-1.9 1.1-2.5a4.1 4.1 0 0 1 2.8-.9zm-3.4 7h10.6v2.7H393V607z"/></g><use href="#H" fill="#03a9f4"/><g class="O"><path d="M455.4 613.6c1.7 0 3.1-1.4 3.1-3.1s-1.4-3.1-3.1-3.1-3.1 1.4-3.1 3.1c-.1 1.7 1.3 3.1 3.1 3.1zm9.3-10.8h-2.9c-.2 0-.4-.1-.5-.2-.2-.1-.3-.3-.3-.4l-.3-.8c-.1-.4-.3-.7-.7-.9-.3-.2-.7-.3-1-.3h-7.3c-.4 0-.7.1-1 .3s-.5.5-.7.9l-.3.8c-.1.2-.2.3-.3.4-.2.1-.3.2-.5.2H446c-.5 0-.9.2-1.3.5a1.9 1.9 0 0 0-.5 1.3v10.7c0 .5.2.9.5 1.3a1.9 1.9 0 0 0 1.3.5h18.8c.5 0 .9-.2 1.3-.5a1.9 1.9 0 0 0 .5-1.3v-10.7c0-.5-.2-.9-.5-1.3-.4-.3-.9-.5-1.4-.5zm-9.3 12.6a4.9 4.9 0 0 1 0-9.8 4.9 4.9 0 1 1 0 9.8zm5.3-9c-.2 0-.5-.1-.6-.3-.2-.2-.3-.4-.3-.6s.1-.5.3-.6c.2-.2.4-.3.6-.3s.5.1.6.3c.2.2.3.4.3.6s-.1.5-.3.6c-.1.2-.3.3-.6.3zm-13.4-4.5h-1.8c-.1 0-.2 0-.3-.1s-.1-.2-.1-.3 0-.2.1-.3.2-.1.3-.1h1.8c.1 0 .2 0 .3.1s.1.2.1.3 0 .2-.1.3-.2.1-.3.1z"/></g><path d="M499.5 588.4h21.1a9.7 9.7 0 0 1 9.7 9.7v21.1a9.7 9.7 0 0 1-9.7 9.7h-21.1a9.7 9.7 0 0 1-9.7-9.7v-21.1a9.7 9.7 0 0 1 9.7-9.7z" fill="#5d7e89"/><defs><path id="W" d="M497.1 595.7H523v25.9h-25.9z"/></defs><clipPath id="X"><use href="#W"/></clipPath><g clip-path="url(#X)" class="O"><path d="M518.1 609.7c0-.3.1-.7.1-1.1s0-.7-.1-1.1l2.3-1.8c.2-.2.3-.5.1-.7l-2.2-3.7c-.1-.2-.4-.3-.7-.2l-2.7 1.1-1.8-1.1-.4-2.9c0-.3-.3-.5-.5-.5h-4.3c-.3 0-.5.2-.5.5l-.4 2.9c-.7.3-1.3.6-1.8 1.1l-2.7-1.1c-.2-.1-.5 0-.7.2l-2.2 3.7c-.1.2-.1.5.1.7l2.3 1.8c0 .3-.1.7-.1 1.1a4.1 4.1 0 0 0 .1 1.1l-2.3 1.8c-.2.2-.3.5-.1.7l2.2 3.7c.1.2.4.3.7.2l2.7-1.1 1.8 1.1.4 2.9c0 .3.3.5.5.5h4.3c.3 0 .5-.2.5-.5l.4-2.9c.7-.3 1.3-.6 1.8-1.1l2.7 1.1c.2.1.5 0 .7-.2l2.2-3.7c.1-.2.1-.5-.1-.7l-2.3-1.8zm-8 2.7a3.8 3.8 0 0 1 0-7.6 3.8 3.8 0 0 1 3.8 3.8c0 2.1-1.8 3.8-3.8 3.8z"/></g><g opacity=".6" fill="#303030"><path d="M502.7 117.4c.2.2.3.5.1.7l-5 6.2c-.4.5-1.2.5-1.7 0l-5-6.2c-.2-.2-.1-.6.1-.8a10.2 10.2 0 0 1 5.7-1.8 11.4 11.4 0 0 1 5.8 1.9zm11.7-1.5c.3-.3.9-.1.9.4v8.4c0 .6-.5 1.1-1.1 1.1h-8.4c-.5 0-.7-.6-.4-.9l9-9zm13.3.2h.5.3c.4 0 .8.4.8.8v8.1c0 .4-.4.8-.8.8h-4.9c-.4 0-.8-.4-.8-.8v-8.1c0-.4.4-.8.8-.8h.3.5V115h3.2v1.1zm-252.5-.2v8.1h-1.3v-6.5l-2 .7v-1.1l3.2-1.2h.1zm8.2 7.1v1.1H278v-.9l2.6-2.9c.3-.3.5-.6.7-.8s.3-.4.3-.6c.1-.2.1-.4.1-.6 0-.3 0-.5-.1-.7s-.2-.3-.4-.5c-.2-.1-.4-.2-.7-.2s-.6.1-.8.2a1.2 1.2 0 0 0-.5.5c-.1.2-.2.5-.2.8h-1.3c0-.5.1-.9.3-1.3s.5-.7.9-.9.9-.3 1.5-.3a3.2 3.2 0 0 1 1.4.3c.4.2.7.4.9.8.2.3.3.7.3 1.2 0 .3 0 .5-.1.7l-.3.7c-.1.2-.3.5-.5.7s-.4.5-.7.7l-1.7 1.9h3.7zm1.2.4c0-.2.1-.4.2-.5s.3-.2.6-.2c.2 0 .4.1.6.2.1.1.2.3.2.5s-.1.4-.2.5-.3.2-.6.2c-.2 0-.4-.1-.6-.2s-.2-.3-.2-.5zm0-4.7c0-.2.1-.4.2-.5s.3-.2.6-.2c.2 0 .4.1.6.2.1.1.2.3.2.5s-.1.4-.2.5-.3.2-.6.2c-.2 0-.4-.1-.6-.2-.1-.2-.2-.3-.2-.5zm4.4.7h.8c.3 0 .6-.1.8-.2s.4-.3.5-.4c.1-.2.1-.4.1-.6 0-.3 0-.5-.1-.7s-.2-.3-.4-.4-.4-.1-.7-.1c-.2 0-.5 0-.6.1-.2.1-.3.2-.4.4s-.2.4-.2.6h-1.3c0-.4.1-.8.3-1.1s.5-.6.9-.8.8-.3 1.3-.3a3.2 3.2 0 0 1 1.4.3c.4.2.7.4.9.8a2.5 2.5 0 0 1 .3 1.3c0 .2-.1.5-.2.7s-.3.5-.5.6c-.2.2-.5.3-.8.5a3.6 3.6 0 0 1-1.1.2h-1v-.9zm0 1v-.7h1c.5 0 .9.1 1.2.2s.6.3.8.5.4.4.5.7c.1.2.1.5.1.8 0 .4-.1.7-.2 1s-.3.5-.6.7c-.2.2-.5.4-.9.5a3.6 3.6 0 0 1-1.1.2c-.3 0-.7 0-1-.1s-.6-.2-.9-.4-.5-.4-.6-.7-.2-.6-.2-1h1.3c0 .2.1.5.2.6.1.2.3.3.5.4s.4.2.7.2.5-.1.7-.2.4-.2.5-.4.2-.4.2-.7-.1-.6-.2-.8-.3-.3-.5-.4-.5-.1-.8-.1h-.7zm10.2-1.1v1.3c0 .6-.1 1.2-.2 1.6a3.7 3.7 0 0 1-.5 1.1c-.2.3-.5.5-.8.6a3.6 3.6 0 0 1-1.1.2c-.3 0-.6 0-.9-.1s-.5-.2-.7-.4-.4-.4-.6-.7a3 3 0 0 1-.4-1c-.1-.4-.1-.8-.1-1.3v-1.3c0-.6.1-1.2.2-1.6a3.7 3.7 0 0 1 .5-1.1c.2-.3.5-.5.8-.6a3.6 3.6 0 0 1 1.1-.2c.3 0 .6 0 .9.1s.5.2.7.4.4.4.6.7a3 3 0 0 1 .4 1c0 .4.1.8.1 1.3zm-1.4 1.5v-1.7c0-.3 0-.6-.1-.8 0-.2-.1-.5-.2-.6-.1-.2-.2-.3-.3-.4s-.2-.2-.4-.2c-.1-.1-.3-.1-.5-.1s-.4 0-.6.1-.3.2-.4.4l-.3.7c-.1.3-.1.6-.1 1v1.7c0 .3 0 .6.1.9 0 .2.1.5.2.6.1.2.2.3.3.4s.2.2.4.2c.1.1.3.1.5.1s.4 0 .6-.1.3-.2.4-.4.2-.4.2-.7c.2-.3.2-.7.2-1.1z"/></g><defs><path id="Y" d="M489.8 147.1h40.5v40.5h-40.5z"/></defs><clipPath id="Z"><use href="#Y"/></clipPath><g clip-path="url(#Z)"><linearGradient id="a" gradientUnits="userSpaceOnUse" x1="502.77" y1="156.81" x2="502.77" y2="171.19"><stop offset="0" stop-color="#ffc700"/><stop offset="1" stop-color="#ffea00"/></linearGradient><path d="M502.8 171.2c4 0 7.3-3.2 7.3-7.2s-3.3-7.2-7.3-7.2-7.3 3.2-7.3 7.2a7.2 7.2 0 0 0 7.3 7.2z" fill="url(#a)"/><path d="M504.3 177.9c-1.3 0-2.6-.6-3.6-1.4a5.7 5.7 0 0 1-1.8-3.4c-.2-1.3.2-2.6.9-3.7s1.9-1.9 3.1-2.3c0-1.7.7-3.2 1.8-4.5 1.1-1.2 2.6-2.1 4.3-2.3a7.2 7.2 0 0 1 4.8.9c1.4.9 2.5 2.2 3 3.8.4-.1.8-.1 1.2-.1 1.8 0 3.4.7 4.7 1.9a6.6 6.6 0 0 1 1.9 4.6 6.6 6.6 0 0 1-1.9 4.6c-1.2 1.2-2.9 1.9-4.7 1.9h-13.7z" fill="#88c3fc" class="R S"/></g><path d="M287.2 413.3h226.9a16.2 16.2 0 0 1 16.2 16.2v103.7a16.2 16.2 0 0 1-16.2 16.2H287.2a16.2 16.2 0 0 1-16.2-16.2V429.5a16.2 16.2 0 0 1 16.2-16.2z" class="O Q T"/><path d="M287.9 452.6c-.1-.1-.1-.1-.2-.1v-2.8l.1-2.8.1-2.8v-2.8c0-.2.1-.4.2-.5s.2-.2.3-.2.2 0 .4.1c.1.1.2.2.3.5v.2c-.2 1.6-.3 3.2-.3 4.8v4.9s.1-.1.2-.1c.1-.1.2-.1.3-.1v.7c0 .3-.1.6-.2.8s-.2.4-.4.5c-.3-.1-.5-.1-.8-.3zm4.8-5.2c-.3 0-.6 0-1 .1s-.7.1-1 .2c-.1 0-.3 0-.4-.1s-.2-.2-.2-.4c-.1-.2-.1-.3 0-.5 0-.1.2-.2.3-.2h.4.7c.3 0 .5 0 .7-.1s.4-.1.4-.2c0-.5 0-1.1-.1-1.7v-1.8c0-.6 0-1.3.1-1.9l.3-1.8c.1-.3.2-.6.4-.7s.5-.1.8-.1c.3.1.6.2.9.5.3.2.6.5.9.9.3.3.5.7.7 1.1a6.9 6.9 0 0 1 .4 1c0 .1 0 .2-.2.3-.1.1-.2.1-.4.1s-.3-.1-.4-.3-.2-.5-.2-1c0 0 0-.1-.1-.1 0-.1-.1-.1-.1-.2l-1.3-1.3c-.3-.1-.5-.1-.6.1-.1.1-.2.3-.3.5s-.1.4-.1.7v.6c0 .5-.1.9-.1 1.3s0 .8-.1 1.2v1.2c0 .4.1.8.1 1.3.1 0 .2 0 .5-.2.3-.1.7-.3 1.1-.4.4-.2.9-.3 1.3-.4.5-.1.8-.2 1.2-.2.3 0 .6.1.7.2.2.1.1.4-.1.8-.1.1-.2.2-.3.2-.2 0-.3 0-.4-.1-.1 0-.2.1-.5.2-.2.1-.4.1-.7.2-.2.1-.4.2-.7.2-.2.1-.4.1-.4.1s-.1 0-.2.1c-.1 0-.2.1-.4.1-.1 0-.3.1-.4.1s-.2 0-.2.1h-.1-.1c-.1 0-.1 0-.2.1v5.4c0 .1-.1.2-.2.2h-.3c-.1 0-.2-.1-.3-.2s-.1-.2-.1-.3v-4.9zm20.8 17c-.4-.2-.7-.7-.9-1.3-.2-.7-.2-1.5-.2-2.4s.2-1.8.4-2.8a13.1 13.1 0 0 1 .9-2.8c.4-.9.8-1.6 1.3-2.2s1-1 1.6-1.1v-.4-.6-.5-.4-1.1-1.3-1.1-.5l-.1-.1a6.8 6.8 0 0 1-.6.9l-1.1 1.4c-.4.5-.9 1-1.4 1.5a7.9 7.9 0 0 1-1.5 1.2 4.7 4.7 0 0 1-1.5.6c-.5 0-.9-.1-1.3-.6-.2-.2-.3-.5-.4-.9s-.1-.8-.1-1.3.1-1 .1-1.5c.1-.5.2-1.1.2-1.5.1-.5.2-.9.2-1.3.1-.4.2-.7.2-.9.1-.2.2-.2.3-.3s.3-.1.4 0c.1 0 .2.1.3.2s.1.2.1.4c-.1.5-.3 1-.4 1.5l-.3 1.5c-.1.5-.1 1-.1 1.5v1.6c.3.3.6.5.9.5.4-.1.8-.2 1.2-.5s.8-.6 1.3-1.1l1.2-1.3c.4-.4.7-.9 1-1.3l.6-.9.3-.6c.1-.2.2-.5.2-.7.1-.2.2-.5.3-.7s.3-.4.4-.5l.6.6v7.8h.4.6c.1 0 .3 0 .3.1s-.1.2-.5.4c-.2.1-.4.2-.5.3-.2.1-.3.2-.5.3l-.3 2.8-.3 2.4c-.1.7-.3 1.5-.5 2.3l-.7 2.7c-.1.2-.2.5-.3.8s-.3.6-.4.8c-.2.3-.4.4-.6.5s-.4.1-.8-.1zm.6-1.2c.1.1.3-.1.5-.5s.4-1 .5-1.7c.2-.7.4-1.5.5-2.3l.5-2.5.3-2.1a6.8 6.8 0 0 0 .1-1.2c-.6.5-1.1 1.1-1.5 1.7l-1.1 2.1c-.3.7-.4 1.5-.6 2.3-.1.8-.1 1.6 0 2.3 0 .1 0 .3.1.4 0 .2.1.4.1.6s.1.3.1.5c0 .1 0 .2.1.2l.4.2zm6.9-10.6c-.4-.3-.6-.6-.8-.9s-.3-.7-.4-1.1-.1-.8 0-1.2l.3-1.2c.1-.3.1-.6.2-.9l.3-1.1a3 3 0 0 1 .4-1c.1-.3.3-.6.5-.7.1-.1.3-.2.5-.2.2-.1.4-.1.6-.1h.6.5c.6 0 1 .2 1.3.6.3.3.5.7.6 1.2a4.8 4.8 0 0 1 0 1.7c-.1.6-.2 1.2-.4 1.8s-.5 1.1-.8 1.7c-.3.5-.7.9-1 1.3-.4.3-.8.5-1.2.6-.4 0-.8-.2-1.2-.5zm.3-1c.3.3.7.3 1 .2.4-.1.7-.4 1-.8s.6-.8.9-1.4c.3-.5.5-1.1.6-1.6s.1-1 .1-1.5c-.1-.5-.3-.8-.6-1-.5-.3-.9-.4-1.3-.3s-.8.4-1.1.7c-.3.4-.6.8-.8 1.4s-.3 1.1-.4 1.7a4.3 4.3 0 0 0 0 1.6c.1.4.3.8.6 1zm14.5 1c-.3-.1-.6-.2-.8-.5-.3-.2-.5-.5-.7-.8s-.4-.7-.5-1c-.2-.4-.3-.8-.4-1.1l-.3-1.1c-.1-.3-.2-.6-.2-.9h-.2c-.2.3-.4.7-.7 1.2a6.4 6.4 0 0 1-1 1.3l-1.2 1.1c-.4.3-.8.5-1.2.6s-.7-.1-1-.3c-.3-.3-.5-.8-.7-1.6l-.1-3.6v-3.6c0-.1.1-.1.2-.2s.2-.1.3-.2c.1 0 .2 0 .3.1s.1.2.1.4v6.3.4c0 .2.1.3.2.5.1.1.2.3.2.4.1.1.2.2.3.2.5.2.9.2 1.2 0 .4-.2.7-.5 1-.9a5.3 5.3 0 0 0 .8-1.5c.3-.6.5-1.2.7-1.7l.6-1.6c.2-.5.3-.9.5-1.1l.1.1.1.1c0 .1.1.2.2.3s.2.2.2.3v1c0 .4 0 .8.1 1.3 0 .5.1 1 .2 1.5l.3 1.5c.1.5.3.9.5 1.3s.5.7.8.9.7.3 1 .3c.4 0 .9-.2 1.4-.5.3-.2.4-.3.5-.5.1-.1.1-.3.1-.4v-.5c0-.2.1-.3.3-.6.3-.1.6-.1.7.1.2.2.3.4.3.7s0 .7-.2 1c-.1.4-.4.7-.7 1s-.7.5-1.2.6a7.1 7.1 0 0 1-2.1-.3zm24.3 0c-.6-.3-1.2-.7-1.7-1.2s-.9-1.1-1.3-1.7-.7-1.3-1-2-.5-1.4-.7-2l-.1-.1s-.1.2-.3.5c-.1.3-.3.6-.5 1l-.7 1.4c-.2.5-.5 1-.8 1.5l-.8 1.3c-.3.4-.6.7-.9 1-.3.2-.6.4-.9.4s-.5-.1-.8-.4c0 0-.1-.1-.1-.2s-.1-.1-.1-.1l-.6-7.9c-.1-.2-.1-.4-.2-.6 0-.2 0-.4.2-.6.3-.1.5-.2.6-.1.2.1.3.3.4.5s.1.6.1.9v1.2c0 .4 0 .8-.1 1.2v.9c0 .1 0 .4.1.7a3.4 3.4 0 0 0 .1 1c0 .4.1.7.1 1s0 .6.1.7c0 0 0 .1.1.2 0 .1.1.2.1.2h.1.1l1.4-1.5c.4-.6.7-1.2 1-1.8l.9-1.9.9-1.9c.1-.2.3-.3.5-.2s.4.2.5.4a4.7 4.7 0 0 1 .6 1.5c.2.5.3 1 .5 1.6.2.5.3 1 .6 1.6s.6 1 1 1.5c.7.7 1.3 1.2 1.8 1.3.6.2 1.1.1 1.5-.1a3.4 3.4 0 0 0 1.2-1.2 9.8 9.8 0 0 0 .8-1.8c.2-.7.4-1.4.4-2.2.1-.8.1-1.5 0-2.1 0-.7-.2-1.2-.4-1.7s-.4-.8-.8-.9h-.1-.1v.7h-.1c-.1 0-.1-.1-.2-.1s-.2-.1-.2-.2c-.1-.1-.1-.1-.1-.2v-1.5c.5-.1 1 0 1.4.3s.7.8 1 1.5c.2.6.4 1.4.5 2.2a11.3 11.3 0 0 1 0 2.6c-.1.9-.2 1.7-.5 2.5-.2.8-.6 1.5-1 2s-.9.9-1.5 1.1-1.3.1-2-.2zm6.6-.5c-.3-.3-.5-.6-.6-1.2-.2-.5-.3-1.1-.3-1.8a7.4 7.4 0 0 1 0-2.1c0-.7.1-1.5.2-2.2a11.7 11.7 0 0 1 .5-2 5.3 5.3 0 0 1 .8-1.5 2.1 2.1 0 0 1 1.1-.8 1.8 1.8 0 0 1 1.4.2c.2.1.4.3.6.5s.4.5.6.8.3.6.5.9c.1.3.2.5.3.7v.6 1.2 1.5c0 .5.1 1.1.1 1.6l.3 1.5.6 1.1c.3.3.6.4 1 .4s.9-.1 1.4-.5c.2-.2.3-.3.4-.5 0-.2.1-.3.1-.4v-.2s.1 0 .3.1c.3.3.3.7.2 1.1s-.3.7-.5 1c-.3.3-.6.5-1.1.6-.4.1-.9.1-1.3-.1s-.9-.5-1.3-1.1c-.4-.5-.7-1.3-1-2.4-.1.2-.2.5-.4.8s-.3.6-.6 1c-.2.3-.5.6-.7.9-.3.3-.5.5-.8.6s-.6.2-.9.2-.6-.2-.9-.5zm.2-1.2c.2.5.5.7.8.7s.6-.1.9-.3c.3-.3.6-.7.9-1.2s.6-1.1.8-1.7a11.7 11.7 0 0 0 .5-2c.1-.7.1-1.4.1-2-.1-.6-.2-1.2-.5-1.8s-.7-1-1.2-1.3h-.1-.1c-.4.2-.7.5-1 .9s-.5.9-.8 1.5c-.2.6-.4 1.2-.5 1.9s-.2 1.3-.2 2a10.3 10.3 0 0 0 .1 1.8c0 .6.1 1.1.3 1.5zm9.1 1.7s-.1-.1-.1-.2-.1-.1-.1-.2c0-.2.1-.5.1-1.1.1-.6.1-1.3.2-2l.2-2.4.3-2.2a5.4 5.4 0 0 1 .4-1.5c.1-.4.3-.4.5-.3a5.7 5.7 0 0 1 1.1 1.1l1 1.4.9 1.5.9 1.5a6.4 6.4 0 0 0 1 1.3c.4.4.7.7 1.1.9h.1c0-.3.1-.7.1-1.1 0-.5.1-1 .1-1.5s.1-1.1.1-1.6c0-.6.1-1.1.1-1.7.1-.5.1-1 .2-1.5l.2-1.2s0-.1.1-.2.1-.2.2-.2c.1-.1.1-.2.2-.2.1-.1.1-.1.2 0l.9.9s0 .1-.1.2-.2.2-.3.4c-.1.1-.2.3-.3.4s-.2.2-.2.3c-.1.3-.2.7-.2 1.2-.1.5-.1 1-.2 1.5 0 .5-.1 1.1-.1 1.6 0 .6-.1 1.1-.1 1.6v1.5 1.2c-.5 0-.9-.2-1.3-.4l-1.2-1c-.4-.4-.8-.9-1.1-1.5-.4-.6-.7-1.1-1-1.7s-.7-1.1-1-1.7l-.9-1.4h-.2c-.1 0-.1.1-.1.4s-.1.6-.1 1-.1.9-.1 1.5c0 .5-.1 1.1-.1 1.7 0 .5-.1 1.1-.2 1.6s-.1.9-.2 1.3c-.1.3-.2.6-.3.7-.3.3-.5.3-.7.1zm13.3 0v-1c0-.4 0-.8.1-1.3v-1.5-1.4c0-.4-.1-.8-.1-1.2 0-.3-.1-.6-.2-.7a5.3 5.3 0 0 1-1.8 0c-.4-.1-.6-.2-.6-.3s.2-.3.6-.4c.4-.2 1.1-.3 2-.3v-.8-1.2-1.2-.8c0-.1 0-.2-.1-.4 0-.2-.1-.3-.1-.5s0-.3-.1-.5v-.4c0-.2.1-.3.2-.3.1-.1.2-.1.3-.1s.2 0 .3.1.2.2.2.3v5.7c0 .1.2.2.5.2s.7 0 1.2-.1c.5 0 .9-.1 1.4-.2s.9-.1 1.3-.1.6.1.7.3c.1.1.1.4-.2.7 0 0-.1.1-.2.1s-.1.1-.2.1h-2.2c-.8 0-1.5.1-2.2.2-.2 0-.4.3-.4.6a7.6 7.6 0 0 0 .1 1.4l.3 1.8.2 1.7c0 .5 0 .9-.2 1.3-.1.3-.4.4-.8.4.1 0 .1 0 0-.2 0 .1 0 0 0 0zm18.7 0v-1c0-.4 0-.8.1-1.3v-1.5-1.4c0-.4-.1-.8-.1-1.2-.1-.3-.1-.6-.2-.7a5.3 5.3 0 0 1-1.8 0c-.4-.1-.6-.2-.6-.3s.2-.3.6-.4c.4-.2 1.1-.3 2-.3v-.8-1.2-1.2-.8c0-.1 0-.2-.1-.4 0-.2-.1-.3-.1-.5s0-.3-.1-.5v-.4c0-.2.1-.3.2-.3.1-.1.2-.1.3-.1s.2 0 .3.1.2.2.2.3v5.7c0 .1.2.2.5.2s.7 0 1.2-.1c.5 0 .9-.1 1.4-.2s.9-.1 1.3-.1.6.1.7.3c.1.1.1.4-.2.7 0 0-.1.1-.2.1s-.1.1-.2.1H411c-.8 0-1.5.1-2.2.2-.2 0-.4.3-.4.6a7.6 7.6 0 0 0 .1 1.4l.3 1.8.2 1.7c0 .5 0 .9-.2 1.3-.1.3-.4.4-.8.4.2 0 .1 0 0-.2.1.1 0 0 0 0zm7.5 0c-.4-.3-.6-.6-.8-.9s-.3-.7-.4-1.1v-1.2l.3-1.2c.1-.3.1-.6.2-.9l.3-1.1a3 3 0 0 1 .4-1c.1-.3.3-.6.5-.7.1-.1.3-.2.5-.2.2-.1.4-.1.6-.1h.6.5c.6 0 1 .2 1.3.6.3.3.5.7.6 1.2a4.8 4.8 0 0 1 0 1.7c-.1.6-.2 1.2-.4 1.8s-.5 1.1-.8 1.7c-.3.5-.7.9-1 1.3-.4.3-.8.5-1.2.6-.4 0-.8-.2-1.2-.5zm.3-1c.3.3.7.3 1 .2.4-.1.7-.4 1-.8s.6-.8.9-1.4c.3-.5.5-1.1.6-1.6s.1-1 .1-1.5c-.1-.5-.3-.8-.6-1-.5-.3-.9-.4-1.3-.3s-.8.4-1.1.7c-.3.4-.6.8-.8 1.4s-.3 1.1-.4 1.7a4.3 4.3 0 0 0 0 1.6c.1.4.3.8.6 1zm18.5 12.1c-.5-.2-.9-.6-1.2-1s-.6-1-.8-1.5c-.2-.6-.3-1.2-.4-1.8s-.1-1.3-.2-1.9c0-.6 0-1.2.1-1.7s.1-1 .2-1.3c0-.1.1-.3.2-.5l.3-.6c.1-.2.2-.4.2-.6.1-.2.1-.3 0-.5h-.4c-.2 0-.4-.1-.6-.2-.2-.2-.3-.3-.5-.6l-.3-.6c-.1-.2-.2-.4-.2-.5 0-.2-.1-.5-.1-.8v-.9c0-.3 0-.6.1-.9 0-.3.1-.6.2-.9s.3-.7.5-1.2.5-.9.8-1.4a4 4 0 0 1 1-1.2c.4-.4.7-.6 1.1-.7s.8 0 1.3.2c.4.2.9.7 1.3 1.4h.3c.1 0 .2 0 .3-.1h.2c.1 0 .1 0 .2.1v.8 1.3c0 .5 0 1-.1 1.4 0 .5-.1.8-.2 1.1v.8 1.2 1.4 1.4 1.2.8c0 .1 0 .2-.1.5 0 .2 0 .5-.1.7 0 .3-.1.5-.1.7v.5c0 .1-.1.3-.1.6-.1.4-.1.8-.2 1.2-.1.5-.3 1-.4 1.5l-.6 1.4c-.2.4-.5.7-.7.9-.4.4-.7.5-1 .3zm-.6-1.5c.3.3.5.5.7.5s.4-.1.6-.3.3-.5.5-.8c.2-.4.3-.7.4-1.2l.3-1.3.2-1.2c.1-.4.1-.7.1-.9v-.4c0-.1 0-.3.1-.6 0-.3 0-.5.1-.8 0-.3 0-.5.1-.7v-.4-.7-1-1-.7h-.4l-2.4 1.7c-.4.3-.6.6-.9 1.1-.2.5-.4 1.1-.5 1.7s-.1 1.3-.1 2a12.3 12.3 0 0 0 .2 2c.1.6.2 1.2.4 1.8.1.4.3.9.6 1.2zm-1.8-11.3c.7.2 1.4.3 2 .2a4.6 4.6 0 0 0 1.6-.7c.4-.4.8-.8 1-1.4s.3-1.2.3-1.8a4.5 4.5 0 0 0-.5-1.9c-.3-.7-.7-1.3-1.4-1.9-.4-.1-.7 0-1 .3s-.6.6-.9 1.1-.5 1.1-.7 1.7l-.5 1.8c-.1.6-.2 1.1-.2 1.6.1.5.2.8.3 1zm10.9 1.7c-.5-.2-.8-.5-1.1-.8-.2-.3-.4-.7-.5-1-.1-.4-.2-.8-.2-1.2s-.1-.9-.1-1.3c-.3.1-.6.1-.9.1s-.5 0-.7-.1c-.2 0-.3-.1-.4-.2s-.1-.2 0-.3.3-.2.5-.3a10.4 10.4 0 0 1 1.2-.3c.1 0 .2 0 .3-.1.2-.1.2-.1.3-.2s.2-.3.2-.6c.1-.3.2-.7.2-1l.3-1.1c.1-.4.3-.7.5-1s.4-.5.7-.6.6-.1 1 .1l.2.2c.1.1.2.1.2.2.1.1.1.2.2.2l.2.2a4.2 4.2 0 0 1-.1 1.6 3.7 3.7 0 0 1-.5 1.1c-.2.3-.5.5-.7.7l-.8.6-.6.6c-.2.2-.3.4-.3.7v.9c0 .3 0 .5.1.8.1.2.2.5.3.7.2.2.4.4.7.6.2.2.5.2.8.1s.6-.2 1-.4l1-.6c.3-.2.6-.4.8-.6s.4-.3.5-.3c.1-.1.1 0 0 .2l-.6 1.3c-.2.4-.5.8-.9 1.1-.3.3-.7.5-1.1.6-.7-.3-1.2-.3-1.7-.6zm-.6-6.9c0 .1 0 .2-.1.4s-.1.3-.1.4h.1.1s.1-.1.2-.1c.1-.1.2-.1.2-.2l.2-.2c.1-.1.1-.1.2-.1.4-.4.6-.7.8-1s.2-.6.2-.8-.1-.3-.2-.4-.3-.1-.5.1c-.2.1-.4.3-.6.7-.2.2-.4.6-.5 1.2zm7.9 6.9v-1c0-.4 0-.8.1-1.3v-1.5-1.4c0-.4-.1-.8-.1-1.2-.1-.3-.1-.6-.2-.7a5.3 5.3 0 0 1-1.8 0c-.4-.1-.6-.2-.6-.3s.2-.3.6-.4c.4-.2 1.1-.3 2-.3v-.8-1.2-1.2-.8c0-.1 0-.2-.1-.4 0-.2-.1-.3-.1-.5s0-.3-.1-.5v-.4c0-.2.1-.3.2-.3.1-.1.2-.1.3-.1s.2 0 .3.1.2.2.2.3v5.7c0 .1.2.2.5.2s.7 0 1.2-.1c.5 0 .9-.1 1.4-.2s.9-.1 1.3-.1.6.1.7.3c.1.1.1.4-.2.7 0 0-.1.1-.2.1s-.1.1-.2.1h-2.2c-.8 0-1.5.1-2.2.2-.2 0-.4.3-.4.6a7.6 7.6 0 0 0 .1 1.4l.3 1.8.2 1.7c0 .5 0 .9-.2 1.3-.1.3-.4.4-.8.4.1 0 .1 0 0-.2 0 .1 0 0 0 0zm-157.4 32c-.3-.1-.6-.2-.9-.4a7 7 0 0 1-1-.8c-.3-.3-.6-.6-.9-1a3 3 0 0 1-.6-1.1c-.1-.4-.2-.7-.1-1.1.1-.3.3-.6.6-.9.1 0 .2-.1.3-.2.2-.1.3-.1.5-.1s.3 0 .4.1.1.2.1.4c-.4.2-.7.4-.8.7s-.1.6 0 1c.1.3.3.7.6 1s.6.7 1 .9c.4.3.8.5 1.2.7s.8.3 1.2.3.7-.1.9-.3c.3-.2.4-.5.4-1 0-.6 0-1.2-.1-1.8s-.4-1.1-.8-1.7a4.7 4.7 0 0 0-1-1c-.3-.3-.7-.5-1-.7s-.7-.4-1-.6-.7-.4-1-.6-.6-.5-.9-.8-.5-.7-.8-1.2c-.3-.6-.4-1.2-.3-1.8s.4-1.1.8-1.4a4.2 4.2 0 0 1 1.4-.9c.6-.2 1.2-.3 1.8-.2a3 3 0 0 1 1 .4c.3.2.6.5.8.9.2.3.4.7.4 1 .1.4.1.7 0 .9a.9.9 0 0 1-.6.6c-.3.1-.7.1-1.3 0-.1-.2 0-.4.1-.5s.2-.2.4-.3.3-.2.4-.3.2-.2.2-.4c-.1-.6-.3-1.1-.7-1.3-.4-.3-.8-.4-1.2-.4a2.2 2.2 0 0 0-1.3.4 2.4 2.4 0 0 0-1.2 2.5c.1.5.4 1.1.9 1.7.4.5.8.8 1.2 1.1l1.1.6 1.1.6a5.3 5.3 0 0 1 1.2 1 3.8 3.8 0 0 1 .9 1.3c.2.5.4 1 .5 1.5a3.8 3.8 0 0 1 0 1.5c-.1.5-.3.8-.5 1.2-.3.3-.6.5-1.1.6a4.3 4.3 0 0 1-2.3-.1zm5.6 0c-.4-.3-.6-.6-.8-.9s-.3-.7-.4-1.1-.1-.8 0-1.2l.3-1.2c.1-.3.1-.6.2-.9l.3-1.1a3 3 0 0 1 .4-1c.1-.3.3-.6.5-.7.1-.1.3-.2.5-.2.2-.1.4-.1.6-.1h.6.5c.6 0 1 .2 1.3.6.3.3.5.7.6 1.2a4.8 4.8 0 0 1 0 1.7c-.1.6-.2 1.2-.4 1.8s-.5 1.1-.8 1.7c-.3.5-.7.9-1 1.3-.4.3-.8.5-1.2.6-.5 0-.9-.2-1.2-.5zm.2-1c.3.3.7.3 1 .2.4-.1.7-.4 1-.8s.6-.8.9-1.4c.3-.5.5-1.1.6-1.6s.1-1 .1-1.5c-.1-.5-.3-.8-.6-1-.5-.3-.9-.4-1.3-.3s-.8.4-1.1.7c-.3.4-.6.8-.8 1.4s-.3 1.1-.4 1.7a4.3 4.3 0 0 0 0 1.6c.2.4.4.8.6 1zm18.1.9s-.1-.1-.1-.2-.1-.2-.1-.2c0-.1-.1-.2-.1-.2v-.1c0-.2 0-.4.1-.7 0-.3.1-.7.1-1.1s.1-.8.1-1.3c0-.4.1-.9.1-1.3s0-.8-.1-1.1c0-.3-.1-.6-.2-.8a.9.9 0 0 0-.6-.6c-.3-.1-.6-.2-.9-.2-.7-.1-1.3.1-1.8.4s-.9.7-1.2 1.3c-.3.5-.5 1.1-.7 1.7s-.3 1.3-.4 1.9l-.3 1.5c-.1.4-.2.7-.4.8-.1.1-.2.1-.3.1s-.1-.1-.2-.2c0-.1-.1-.2-.1-.3s-.1-.2-.1-.3c0-.5 0-1 .1-1.7s.1-1.4.1-2.1v-2a4.3 4.3 0 0 0-.3-1.7c-.2-.5-.4-.8-.6-.9s-.4-.1-.7.2c-.2.2-.5.5-.7 1-.2.4-.4.9-.6 1.5l-.6 1.7-.5 1.7-.3 1.4c-.1.4-.1.7-.2.8 0 .3-.1.4-.3.4s-.3 0-.5-.2c-.2-.1-.3-.3-.3-.5-.1-.2 0-.4.2-.6v-1-1.5-1.8-1.8-1.5c0-.5.1-.8.1-1.1 0-.2.1-.2.2-.2h.3c.1.1.2.1.3.2s.1.2.2.3a2.2 2.2 0 0 1 .1.8 1.7 1.7 0 0 0 .1.7v.7c0 .2.1.5.1.7.1-.2.3-.5.5-.9a8.8 8.8 0 0 1 .6-1c.2-.3.5-.6.8-.8s.6-.4.8-.4c.3-.1.5 0 .8.2s.5.6.7 1.1c.1.2.1.4.2.7s.1.5.2.8.1.6.2.9.2.5.3.6c.2-.1.4-.3.6-.5s.3-.4.5-.7c.2-.2.3-.5.5-.7s.4-.4.7-.5c.9-.3 1.7-.4 2.3-.3s1.1.4 1.5.8a3.6 3.6 0 0 1 .8 1.5 5.8 5.8 0 0 1 .3 1.9c0 .7 0 1.3-.1 1.9l-.3 1.6.1.2c.1.1.2 0 .4-.1.2-.2.5-.3.8-.5s.5-.4.8-.5c.3-.2.4-.2.5-.2v.3l-.4.4c-.1.2-.3.4-.5.6l-.6.6c-.2.2-.4.3-.6.5-.2.1-.4.2-.6.2-.4 0-.6-.1-.8-.3zm7.8.1c-.5-.2-.8-.5-1.1-.8-.2-.3-.4-.7-.5-1a4.3 4.3 0 0 1-.2-1.2c0-.4-.1-.9-.1-1.3-.3.1-.6.1-.9.1s-.5 0-.7-.1c-.2 0-.3-.1-.4-.2s-.1-.2 0-.3.3-.2.5-.3a10.4 10.4 0 0 1 1.2-.3c.1 0 .2 0 .3-.1.2-.1.2-.1.3-.2s.2-.3.2-.6c.1-.3.2-.7.2-1l.3-1.1c.1-.4.3-.7.5-1s.4-.5.7-.6.6-.1 1 .1l.2.2c.1.1.2.1.2.2.1.1.1.2.2.2l.2.2a4.2 4.2 0 0 1-.1 1.6 3.7 3.7 0 0 1-.5 1.1c-.2.3-.5.5-.7.7l-.8.6-.6.6c-.2.2-.3.4-.3.7v.9c0 .3 0 .5.1.8.1.2.2.5.3.7s.4.4.7.6c.2.2.5.2.8.1s.6-.2 1-.4l1-.6c.3-.2.6-.4.8-.6s.4-.3.5-.3c.1-.1.1 0 0 .2l-.6 1.3c-.2.5-.5.8-.9 1.1-.3.3-.7.5-1.1.6-.7-.3-1.2-.3-1.7-.6zm-.6-6.9c0 .1 0 .2-.1.4 0 .2-.1.3-.1.4h.1.1s.1-.1.2-.1c.1-.1.2-.1.2-.2l.2-.2c.1-.1.1-.1.2-.1.4-.4.6-.7.8-1s.2-.6.2-.8-.1-.3-.2-.4-.3-.1-.5.1c-.2.1-.4.3-.6.7-.1.2-.3.6-.5 1.2zm7.4 6.9c-.1-.1-.2-.2-.3-.4s-.1-.3-.2-.4v-2.9c0-1-.1-2-.3-2.9 0-.1-.1-.3-.2-.7l-.3-1.4-.3-1.6c-.1-.5-.2-.9-.2-1.2 0-.2-.1-.5-.2-.8s-.1-.6 0-.8c0-.2.1-.3.2-.4.1 0 .4.2.7.6v.4.5.6c0 .2 0 .3.1.3 0 .3.1.6.2 1s.2.8.2 1.3c.1.4.2.8.2 1.1.1.3.1.5.1.5l.2.3.3-.9c.1-.3.3-.7.5-1a2.7 2.7 0 0 1 .7-.8c.3-.2.6-.4.9-.4.8-.1 1.6 0 2.1.3.6.3 1.1.7 1.4 1.3a6 6 0 0 1 .8 2c.1.7.2 1.5.1 2.2a8.3 8.3 0 0 1-.6 2.1c-.3.6-.7 1.2-1.2 1.5a2.8 2.8 0 0 1-1.8.6c-.7 0-1.5-.2-2.4-.8 0 .2 0 .3-.1.4 0 .1-.1.2-.1.3-.1.1-.1.1-.2.1-.1.2-.2.1-.3 0zm2-1.2c.6.2 1.2.3 1.7.1a2.8 2.8 0 0 0 1.4-1 4.8 4.8 0 0 0 .9-2.1 6.7 6.7 0 0 0 0-2 3.9 3.9 0 0 0-.7-1.6c-.3-.5-.7-.8-1.2-1-.4-.2-.9-.3-1.3-.2-.5.1-.9.4-1.2.9-.4.5-.6 1.3-.9 2.2s-.3 2.3-.2 3.8v-.2c0-.1.1-.2.1-.2 0-.1.1-.2.1-.2 0-.1.1-.1.1-.2s.1-.1.2-.2.2-.1.2-.1l.2.1c0 .2 0 .4-.1.6v.5c0 .2.1.3.2.4.2.3.4.4.5.4zm6.8 1.2c-.4-.3-.6-.6-.8-.9s-.3-.7-.4-1.1-.1-.8 0-1.2l.3-1.2c.1-.3.1-.6.2-.9l.3-1.1a3 3 0 0 1 .4-1c.1-.3.3-.6.5-.7.1-.1.3-.2.5-.2.2-.1.4-.1.6-.1h.6.5c.6 0 1 .2 1.3.6.3.3.5.7.6 1.2a4.8 4.8 0 0 1 0 1.7c-.1.6-.2 1.2-.4 1.8s-.5 1.1-.8 1.7c-.3.5-.7.9-1 1.3-.4.3-.8.5-1.2.6-.4 0-.8-.2-1.2-.5zm.3-1c.3.3.7.3 1 .2.4-.1.7-.4 1-.8s.6-.8.9-1.4c.3-.5.5-1.1.6-1.6s.1-1 .1-1.5c-.1-.5-.3-.8-.6-1-.5-.3-.9-.4-1.3-.3s-.8.4-1.1.7c-.3.4-.6.8-.8 1.4s-.3 1.1-.4 1.7a4.3 4.3 0 0 0 0 1.6c.1.4.3.8.6 1zm6.3.7c-.2-.3-.4-.6-.6-1.1a7.5 7.5 0 0 1-.4-1.6c-.1-.6-.2-1.2-.2-1.8-.1-.6-.1-1.3 0-1.8 0-.6.1-1.1.3-1.6.1-.5.3-.9.6-1.2s.6-.5 1-.5.9.1 1.4.5l1.2 1a3.8 3.8 0 0 1 .9 1.3v-.2-.3-.3-.2c0-.1 0-.3-.1-.7 0-.4-.1-.7-.1-1.1s-.1-.8-.1-1.1v-.7-.5-.6-.5-.2l.2-.2c.1-.1.2-.2.4-.1.1.1.2.2.3.4s.2.4.3.7.1.6.2.8c.1.3.1.5.1.7s0 .3.1.4v.8 1.5 1.8 1.8 1.4c0 .4 0 .6.1.6l.3.1v2.1c0 .1-.1.2-.2.2s-.3-.1-.4-.1c-.2-.1-.3-.2-.4-.3l-.2-.2V482c-.2.4-.5.8-.8 1.2s-.6.7-.9 1-.7.5-1.1.6-.9.2-1.4.1l-.2-.2c-.3-.3-.3-.4-.3-.4zm.3-.9s.1 0 .1.1c.1 0 .1.1.2.1.6.1 1.2-.1 1.6-.4.5-.3.8-.8 1.1-1.3s.5-1.1.7-1.7l.2-1.7c-.3.2-.5.4-.7.4s-.3 0-.3-.1c-.1-.1-.1-.2-.1-.4v-.5c0-.2 0-.4-.1-.6 0-.2-.1-.4-.2-.5-.5-.6-.9-.9-1.3-1.1s-.7-.2-.9 0c-.3.1-.5.4-.6.7-.2.4-.3.8-.3 1.3-.1.5-.1 1-.1 1.6s.1 1.1.1 1.7l.3 1.5c0 .4.1.7.3.9zm11.2 13c-.4-.2-.7-.7-.9-1.3-.2-.7-.2-1.5-.2-2.4l.4-2.8a13.1 13.1 0 0 1 .9-2.8c.4-.9.8-1.6 1.3-2.2s1-1 1.6-1.1v-.4-.6-.5-.4-1.1-1.3-1.1-.5l-.1-.1a6.8 6.8 0 0 1-.6.9l-1.1 1.4c-.4.5-.9 1-1.4 1.5a7.9 7.9 0 0 1-1.5 1.2 4.7 4.7 0 0 1-1.5.6c-.5 0-.9-.1-1.3-.6-.2-.2-.3-.5-.4-.9s-.1-.8-.1-1.3.1-1 .1-1.5c.1-.5.2-1.1.2-1.5.1-.5.2-.9.2-1.3.1-.4.2-.7.2-.9.1-.2.2-.2.3-.3s.3-.1.4 0c.1 0 .2.1.3.2s.1.2.1.4c-.1.5-.3 1-.4 1.5l-.3 1.5c-.1.5-.1 1-.1 1.5v1.6c.3.3.6.5.9.5.4-.1.8-.2 1.2-.5s.8-.6 1.3-1.1l1.2-1.3a7.7 7.7 0 0 0 .9-1.3l.6-.9.3-.6c.1-.2.2-.5.2-.7.1-.2.2-.5.3-.7s.3-.4.4-.5l.6.6v7.8h.4.6c.2 0 .3 0 .3.1s-.1.2-.5.4c-.2.1-.4.2-.5.3-.2.1-.3.2-.5.3l-.3 2.8-.3 2.4c-.1.7-.3 1.5-.5 2.3l-.7 2.7c-.1.2-.2.5-.3.8s-.3.6-.4.8c-.2.3-.4.4-.6.5-.1.1-.4.1-.7-.1zm.6-1.2c.1.1.3-.1.5-.5s.4-1 .5-1.7c.2-.7.4-1.5.5-2.3l.5-2.5.3-2.1a6.8 6.8 0 0 0 .1-1.2c-.6.5-1.1 1.1-1.5 1.7l-1.1 2.1c-.3.7-.4 1.5-.6 2.3-.1.8-.1 1.6 0 2.3 0 .1 0 .3.1.4 0 .2.1.4.1.6s.1.3.1.5c0 .1 0 .2.1.2l.4.2zm18.1-10.6v-1c0-.4 0-.8.1-1.3v-1.5-1.4c0-.4-.1-.8-.1-1.2-.1-.3-.1-.6-.2-.7a5.3 5.3 0 0 1-1.8 0c-.4-.1-.6-.2-.6-.3s.2-.3.6-.4c.4-.2 1.1-.3 2-.3v-.8-1.2-1.2-.8c0-.1 0-.2-.1-.4 0-.2 0-.3-.1-.5 0-.2 0-.3-.1-.5v-.4c0-.2.1-.3.2-.3.1-.1.2-.1.3-.1s.2 0 .3.1.2.2.2.3v5.7c0 .1.2.2.5.2s.7 0 1.2-.1c.5 0 .9-.1 1.4-.2s.9-.1 1.3-.1.6.1.7.3c.1.1.1.4-.2.7 0 0-.1.1-.2.1s-.1.1-.2.1h-2.2c-.8 0-1.5.1-2.2.2-.2 0-.4.3-.4.6a7.6 7.6 0 0 0 .1 1.4l.3 1.8.2 1.7c0 .5 0 .9-.2 1.3-.1.3-.4.4-.8.4.1 0 .1 0 0-.2 0 .1 0 0 0 0zm7.5 0c-.4-.3-.6-.6-.8-.9s-.3-.7-.4-1.1-.1-.8 0-1.2l.3-1.2c.1-.3.1-.6.2-.9l.3-1.1a3 3 0 0 1 .4-1c.1-.3.3-.6.5-.7.1-.1.3-.2.5-.2.2-.1.4-.1.6-.1h.6.5c.6 0 1 .2 1.3.6.3.3.5.7.6 1.2a4.8 4.8 0 0 1 0 1.7c-.1.6-.2 1.2-.4 1.8s-.5 1.1-.8 1.7c-.3.5-.7.9-1 1.3-.4.3-.8.5-1.2.6-.4 0-.8-.2-1.2-.5zm.3-1c.3.3.7.3 1 .2.4-.1.7-.4 1-.8a8.5 8.5 0 0 0 .9-1.4c.3-.5.5-1.1.6-1.6s.1-1 .1-1.5c-.1-.5-.3-.8-.6-1-.5-.3-.9-.4-1.3-.3s-.8.4-1.1.7c-.3.4-.6.8-.8 1.4s-.3 1.1-.4 1.7a4.3 4.3 0 0 0 0 1.6c.1.4.3.8.6 1zm16 .7c-.2-.3-.4-.6-.6-1.1a7.5 7.5 0 0 1-.4-1.6c-.1-.6-.2-1.2-.2-1.8-.1-.6-.1-1.3 0-1.8 0-.6.1-1.1.3-1.6.1-.5.3-.9.6-1.2s.6-.5 1-.5.9.1 1.4.5l1.2 1a3.8 3.8 0 0 1 .9 1.3v-.2-.3-.3-.2c0-.1 0-.3-.1-.7 0-.4-.1-.7-.1-1.1s-.1-.8-.1-1.1v-.7-.5-.6-.5-.2l.2-.2c.1-.1.2-.2.4-.1.1.1.2.2.3.4s.2.4.3.7.1.6.2.8c.1.3.1.5.1.7s0 .3.1.4v.8 1.5 1.8 1.8 1.4c0 .4 0 .6.1.6l.3.1v2.1c0 .1-.1.2-.2.2s-.3-.1-.4-.1c-.2-.1-.3-.2-.4-.3l-.2-.2V482c-.2.4-.5.8-.8 1.2s-.6.7-.9 1-.7.5-1.1.6-.9.2-1.4.1l-.2-.2-.3-.4zm.3-.9s.1 0 .1.1c.1 0 .1.1.2.1.6.1 1.2-.1 1.6-.4.5-.3.8-.8 1.1-1.3s.5-1.1.7-1.7l.2-1.7c-.3.2-.5.4-.7.4s-.3 0-.3-.1c-.1-.1-.1-.2-.1-.4v-.5c0-.2 0-.4-.1-.6 0-.2-.1-.4-.2-.5-.5-.6-.9-.9-1.3-1.1s-.7-.2-.9 0c-.3.1-.5.4-.6.7-.2.4-.3.8-.3 1.3-.1.5-.1 1-.1 1.6s0 1.1.1 1.7l.3 1.5c0 .4.1.7.3.9zm7.6 1.2c-.4-.3-.6-.6-.8-.9s-.3-.7-.4-1.1-.1-.8 0-1.2l.3-1.2c.1-.3.1-.6.2-.9l.3-1.1a3 3 0 0 1 .4-1c.1-.3.3-.6.5-.7.1-.1.3-.2.5-.2.2-.1.4-.1.6-.1h.6.5c.6 0 1 .2 1.3.6.3.3.5.7.6 1.2a4.8 4.8 0 0 1 0 1.7c-.1.6-.2 1.2-.4 1.8s-.5 1.1-.8 1.7c-.3.5-.7.9-1 1.3-.4.3-.8.5-1.2.6-.4 0-.8-.2-1.2-.5zm.3-1c.3.3.7.3 1 .2.4-.1.7-.4 1-.8s.6-.8.9-1.4c.3-.5.5-1.1.6-1.6s.1-1 .1-1.5c-.1-.5-.3-.8-.6-1-.5-.3-.9-.4-1.3-.3s-.8.4-1.1.7c-.3.4-.6.8-.8 1.4s-.3 1.1-.4 1.7a4.3 4.3 0 0 0 0 1.6c.1.4.3.8.6 1zm20.1 1c-.3-.1-.6-.2-.9-.4a7 7 0 0 1-1-.8c-.3-.3-.6-.6-.9-1a3 3 0 0 1-.6-1.1c-.1-.4-.2-.7-.1-1.1.1-.3.3-.6.6-.9 0 0 .2-.1.3-.2.2-.1.3-.1.5-.1s.3 0 .4.1.1.2.1.4c-.4.2-.7.4-.8.7s-.1.6 0 1c.1.3.3.7.6 1s.6.7 1 .9c.4.3.8.5 1.2.7s.8.3 1.2.3.7-.1.9-.3c.3-.2.4-.5.4-1 0-.6 0-1.2-.1-1.8s-.4-1.1-.8-1.7a4.7 4.7 0 0 0-1-1c-.3-.3-.7-.5-1-.7s-.7-.4-1-.6-.7-.4-1-.6-.6-.5-.9-.8-.5-.7-.8-1.2c-.3-.6-.4-1.2-.3-1.8s.4-1.1.8-1.4a4.2 4.2 0 0 1 1.4-.9c.6-.2 1.2-.3 1.8-.2a3 3 0 0 1 1 .4c.3.2.6.5.8.9.2.3.4.7.4 1 .1.4.1.7 0 .9a.9.9 0 0 1-.6.6c-.3.1-.7.1-1.3 0-.1-.2 0-.4.1-.5s.2-.2.4-.3.3-.2.4-.3.2-.2.2-.4c-.1-.6-.3-1.1-.7-1.3-.4-.3-.8-.4-1.2-.4a2.2 2.2 0 0 0-1.3.4 2.4 2.4 0 0 0-1 1c-.2.4-.3.9-.2 1.5.1.5.4 1.1.9 1.7a6 6 0 0 0 1.2 1.1l1.1.6 1.1.6a5.3 5.3 0 0 1 1.2 1 3.8 3.8 0 0 1 .9 1.3 8.8 8.8 0 0 1 .5 1.5 3.8 3.8 0 0 1 0 1.5c-.1.5-.3.8-.5 1.2-.3.3-.6.5-1.1.6a4.3 4.3 0 0 1-2.3-.1zm5.5 0c-.4-.3-.6-.6-.8-.9s-.3-.7-.4-1.1-.1-.8 0-1.2l.3-1.2c.1-.3.1-.6.2-.9l.3-1.1a3 3 0 0 1 .4-1c.1-.3.3-.6.5-.7.1-.1.3-.2.5-.2.2-.1.4-.1.6-.1h.6.5c.6 0 1 .2 1.3.6.3.3.5.7.6 1.2a4.8 4.8 0 0 1 0 1.7c-.1.6-.2 1.2-.4 1.8s-.5 1.1-.8 1.7c-.3.5-.7.9-1 1.3-.4.3-.8.5-1.2.6-.4 0-.8-.2-1.2-.5zm.3-1c.3.3.7.3 1 .2.4-.1.7-.4 1-.8s.6-.8.9-1.4c.3-.5.5-1.1.6-1.6s.1-1 .1-1.5c-.1-.5-.3-.8-.6-1-.5-.3-.9-.4-1.3-.3s-.8.4-1.1.7c-.3.4-.6.8-.8 1.4s-.3 1.1-.4 1.7a4.3 4.3 0 0 0 0 1.6c.1.4.3.8.6 1zm18.1.9s-.1-.1-.1-.2-.1-.2-.1-.2c0-.1 0-.2-.1-.2v-.1c0-.2 0-.4.1-.7 0-.3.1-.7.1-1.1s.1-.8.1-1.3c0-.4.1-.9.1-1.3s0-.8-.1-1.1c0-.3-.1-.6-.2-.8a.9.9 0 0 0-.6-.6c-.3-.1-.6-.2-.9-.2-.7-.1-1.3.1-1.8.4s-.9.7-1.2 1.3c-.3.5-.5 1.1-.7 1.7s-.3 1.3-.4 1.9l-.3 1.5c-.1.4-.2.7-.4.8-.1.1-.2.1-.3.1s-.1-.1-.2-.2-.1-.2-.1-.3-.1-.2-.1-.3c0-.5 0-1 .1-1.7s.1-1.4.1-2.1v-2a4.3 4.3 0 0 0-.3-1.7c-.2-.5-.4-.8-.6-.9s-.4-.1-.7.2c-.2.2-.5.5-.7 1-.2.4-.4.9-.6 1.5l-.6 1.7-.5 1.7-.3 1.4c-.1.4-.1.7-.2.8 0 .3-.1.4-.3.4s-.3 0-.5-.2c-.2-.1-.3-.3-.3-.5s0-.4.2-.6v-1-1.5-1.8-1.8-1.5c0-.5.1-.8.1-1.1 0-.2.1-.2.2-.2h.3c.1.1.2.1.3.2s.1.2.2.3a2.2 2.2 0 0 1 .1.8 1.7 1.7 0 0 0 .1.7v.7c0 .2.1.5.1.7.1-.2.3-.5.5-.9.2-.3.4-.7.6-1s.5-.6.8-.8.6-.4.8-.4c.3-.1.5 0 .8.2s.5.6.7 1.1c.1.2.1.4.2.7s.1.5.2.8.1.6.2.9.2.5.3.6c.2-.1.4-.3.6-.5s.3-.4.5-.7c.2-.2.3-.5.5-.7s.4-.4.7-.5c.9-.3 1.7-.4 2.3-.3s1.1.4 1.5.8a3.6 3.6 0 0 1 .8 1.5 5.8 5.8 0 0 1 .3 1.9c0 .7 0 1.3-.1 1.9l-.3 1.6.1.2c.1.1.2 0 .4-.1.2-.2.5-.3.8-.5s.5-.4.8-.5c.3-.2.4-.2.5-.2v.3l-.4.4c-.1.2-.3.4-.5.6l-.6.6c-.2.2-.4.3-.6.5-.2.1-.4.2-.6.2-.4 0-.6-.1-.8-.3zm7.8.1c-.5-.2-.8-.5-1.1-.8-.2-.3-.4-.7-.5-1-.1-.4-.2-.8-.2-1.2s-.1-.9-.1-1.3c-.3.1-.6.1-.9.1s-.5 0-.7-.1c-.2 0-.3-.1-.4-.2s-.1-.2 0-.3.3-.2.5-.3a10.4 10.4 0 0 1 1.2-.3c.1 0 .2 0 .3-.1.2-.1.2-.1.3-.2s.2-.3.2-.6c.1-.3.2-.7.2-1l.3-1.1c.1-.4.3-.7.5-1s.4-.5.7-.6.6-.1 1 .1l.2.2c.1.1.2.1.2.2.1.1.1.2.2.2l.2.2a4.2 4.2 0 0 1-.1 1.6 3.7 3.7 0 0 1-.5 1.1c-.2.3-.5.5-.7.7l-.8.6-.6.6c-.2.2-.3.4-.3.7v.9c0 .3 0 .5.1.8.1.2.2.5.3.7.2.2.4.4.7.6.2.2.5.2.8.1s.6-.2 1-.4l1-.6c.3-.2.6-.4.8-.6s.4-.3.5-.3c.1-.1.1 0 0 .2l-.6 1.3c-.2.4-.5.8-.9 1.1-.3.3-.7.5-1.1.6-.7-.3-1.2-.3-1.7-.6zm-.7-6.9c0 .1 0 .2-.1.4 0 .2-.1.3-.1.4h.1.1s.1-.1.2-.1c.1-.1.2-.1.2-.2l.2-.2c.1-.1.1-.1.2-.1.4-.4.6-.7.8-1s.2-.6.2-.8-.1-.3-.2-.4-.3-.1-.5.1c-.2.1-.4.3-.6.7-.1.2-.3.6-.5 1.2zm8 6.9v-1c0-.4 0-.8.1-1.3v-1.5-1.4c0-.4-.1-.8-.1-1.2-.1-.3-.1-.6-.2-.7a5.3 5.3 0 0 1-1.8 0c-.4-.1-.6-.2-.6-.3s.2-.3.6-.4c.4-.2 1.1-.3 2-.3v-.8-1.2-1.2-.8c0-.1 0-.2-.1-.4 0-.2-.1-.3-.1-.5s0-.3-.1-.5v-.4c0-.2.1-.3.2-.3.1-.1.2-.1.3-.1s.2 0 .3.1.2.2.2.3v5.7c0 .1.2.2.5.2s.7 0 1.2-.1c.5 0 .9-.1 1.4-.2s.9-.1 1.3-.1.6.1.7.3c.1.1.1.4-.2.7 0 0-.1.1-.2.1s-.1.1-.2.1h-2.2c-.8 0-1.5.1-2.2.2-.2 0-.4.3-.4.6 0 .4 0 .8.1 1.4l.3 1.8.2 1.7c0 .5 0 .9-.2 1.3-.1.3-.4.4-.8.4.1 0 .1 0 0-.2 0 .1 0 0 0 0zm14.2-.6c.1-2.4 0-4.2-.3-5.7-.3-1.4-.6-2.5-1.1-3.1s-1-.9-1.5-.7-1.1.6-1.6 1.4a12.4 12.4 0 0 0-1.3 3.2 17 17 0 0 0-.6 4.8c-.1.2-.1.2-.2.2s-.2-.1-.3-.2l-.3-.3c-.1-.1-.1-.3-.1-.4v-.4c0-.2 0-.4.1-.6 0-.2 0-.4.1-.6s0-.3 0-.4v-.5-.9-1-1-.9-.6-.4-.7c0-.2 0-.5-.1-.7v-.5c0-.1 0-.2-.1-.4 0-.2-.1-.5-.1-.8s-.1-.5-.1-.8c0-.2 0-.4-.1-.5 0-.4 0-.6.2-.7.1-.1.3.1.6.4l.2 3.1a30.2 30.2 0 0 0 .2 3c.1-.4.3-.8.4-1.2l.6-1.2c.2-.4.5-.7.8-1s.7-.5 1.1-.6c.6-.2 1-.2 1.4-.1s.7.4 1 .7.5.7.7 1.2a7.5 7.5 0 0 1 .4 1.6c.1.6.2 1.1.2 1.7.1.6.1 1.1.1 1.7 0 .5.1 1 .1 1.5 0 .4.1.8.1 1s.1.3.3.4c.2 0 .3.1.4.1s.2.1.2.2-.1.3-.3.7c-.1.1-.2.2-.4.3s-.3.1-.5.1-.3-.1-.4-.2c.2.2.2.1.2-.2zm2.3.3c0-.1 0-.3-.1-.8v-1.6-2-2.1c0-.6.1-1.2.1-1.7s.1-.8.1-.9h.2c.1 0 .2.1.2.2l.2.2c.1.1.1.2.1.2v8.4c0 .1 0 .2-.1.3s-.2.1-.3.1-.2 0-.3-.1c0 .1-.1 0-.1-.2zm.1-11.9v-.2-.2-.2-.2c.1-.1.2-.1.3-.1h.4c.2.3.3.5.4.7s.1.3 0 .4c0 .1-.1.1-.3.2h-.4c-.1 0-.2-.1-.4-.1.1-.2 0-.3 0-.3zm2 12.2s-.1-.1-.1-.2-.1-.1-.1-.2c0-.2.1-.5.1-1.1.1-.6.1-1.3.2-2l.2-2.4.3-2.2a5.4 5.4 0 0 1 .4-1.5c.1-.4.3-.4.5-.3a5.7 5.7 0 0 1 1.1 1.1c.3.4.6.9.9 1.4l.9 1.5.9 1.5a6.4 6.4 0 0 0 1 1.3c.4.4.7.7 1.1.9h.1c0-.3.1-.7.1-1.1 0-.5.1-1 .1-1.5s.1-1.1.1-1.6c0-.6.1-1.1.1-1.7.1-.5.1-1 .2-1.5l.2-1.2s0-.1.1-.2.1-.2.2-.2c.1-.1.1-.2.2-.2.1-.1.1-.1.2 0l.9.9s0 .1-.1.2-.2.2-.3.4c-.1.1-.2.3-.3.4s-.2.2-.2.3c-.1.3-.2.7-.2 1.2-.1.5-.1 1-.2 1.5 0 .5-.1 1.1-.1 1.6 0 .6-.1 1.1-.1 1.6v1.5 1.2c-.5 0-.9-.2-1.3-.4l-1.2-1c-.4-.4-.8-.9-1.1-1.5-.4-.6-.7-1.1-1-1.7s-.7-1.1-1-1.7l-.9-1.4h-.4c-.1 0-.1.1-.1.4s-.1.6-.1 1-.1.9-.1 1.5c0 .5-.1 1.1-.1 1.7 0 .5-.1 1.1-.2 1.6s-.1.9-.2 1.3c-.1.3-.2.6-.3.7-.1.3-.3.3-.4.1zm14.2 11.1c-.5-.2-.9-.6-1.2-1s-.6-1-.8-1.5c-.2-.6-.3-1.2-.4-1.8s-.1-1.3-.2-1.9c0-.6 0-1.2.1-1.7s.1-1 .2-1.3c0-.1.1-.3.2-.5l.3-.6c.1-.2.2-.4.2-.6.1-.2.1-.3 0-.5h-.4c-.2 0-.4-.1-.6-.2-.2-.2-.3-.3-.5-.6l-.3-.6c-.1-.2-.2-.4-.2-.5 0-.2-.1-.5-.1-.8v-.9c0-.3 0-.6.1-.9 0-.3.1-.6.2-.9s.3-.7.5-1.2.5-.9.8-1.4a4 4 0 0 1 1-1.2c.4-.4.7-.6 1.1-.7s.8 0 1.3.2c.4.2.9.7 1.3 1.4h.3c.1 0 .2 0 .3-.1h.2c.1 0 .1 0 .2.1v.8 1.3c0 .5 0 1-.1 1.4 0 .5-.1.8-.2 1.1v.8 1.2 1.4 1.4 1.2.8c0 .1 0 .2-.1.5 0 .2 0 .5-.1.7 0 .3-.1.5-.1.7v.5c0 .1-.1.3-.1.6-.1.4-.1.8-.2 1.2-.1.5-.3 1-.4 1.5l-.6 1.4c-.2.4-.5.7-.7.9-.3.4-.6.5-1 .3zm-.5-1.5c.3.3.5.5.7.5s.4-.1.6-.3.3-.5.5-.8c.2-.4.3-.7.4-1.2l.3-1.3c.1-.4.1-.8.2-1.2s.1-.7.1-.9v-.4c0-.1 0-.3.1-.6 0-.3 0-.5.1-.8 0-.3 0-.5.1-.7v-.4-.7-1-1-.7h-.4l-2.4 1.7c-.4.3-.6.6-.9 1.1-.2.5-.4 1.1-.5 1.7s-.1 1.3-.1 2a12.3 12.3 0 0 0 .2 2c.1.6.2 1.2.4 1.8.1.4.3.9.6 1.2zm-1.8-11.3c.7.2 1.4.3 2 .2a4.6 4.6 0 0 0 1.6-.7c.4-.4.8-.8 1-1.4s.3-1.2.3-1.8a4.5 4.5 0 0 0-.5-1.9c-.3-.7-.7-1.3-1.4-1.9-.4-.1-.7 0-1 .3s-.6.6-.9 1.1-.5 1.1-.7 1.7l-.5 1.8c-.1.6-.2 1.1-.2 1.6.1.5.1.8.3 1zm8.5 6.9c-.1-.1-.1-.2-.1-.4s0-.4.1-.6.1-.5.2-.8l.3-.8c.1-.3.2-.5.2-.7.1-.2.1-.4.1-.5v-.4-.5c0-.2 0-.3-.1-.5 0-.2-.1-.3-.1-.3 0-.1-.2-.3-.4-.5s-.4-.4-.6-.7l-.6-.6c-.2-.2-.2-.4-.2-.5.2-.4.4-.5.7-.4s.6.3.8.6c.3.4.5.8.7 1.4s.4 1.2.5 1.9a7.4 7.4 0 0 1 0 2.1 4.8 4.8 0 0 1-.7 2c-.1.2-.3.4-.4.4 0 .1-.2 0-.4-.2zm-206.4 27.7s-.1-.1-.1-.2-.1-.2-.1-.2c0-.1-.1-.2-.1-.2v-.1c0-.2 0-.4.1-.7 0-.3.1-.7.1-1.1s.1-.8.1-1.3c0-.4.1-.9.1-1.3s0-.8-.1-1.1c0-.3-.1-.6-.2-.8a.9.9 0 0 0-.6-.6c-.3-.1-.6-.2-.9-.2-.7-.1-1.3.1-1.8.4s-.9.7-1.2 1.3c-.3.5-.5 1.1-.7 1.7s-.3 1.3-.4 1.9l-.3 1.5c-.1.4-.2.7-.4.8-.1.1-.2.1-.3.1s-.1-.1-.2-.2-.1-.2-.1-.3-.1-.2-.1-.3c0-.5 0-1 .1-1.7s.1-1.4.1-2.1v-2a4.3 4.3 0 0 0-.3-1.7c-.2-.5-.4-.8-.6-.9s-.4-.1-.7.2c-.2.2-.5.5-.7 1-.2.4-.4.9-.6 1.5l-.6 1.7-.5 1.7-.3 1.4c-.1.4-.1.7-.2.8 0 .3-.1.4-.3.4s-.3 0-.5-.2c-.2-.1-.3-.3-.3-.5-.1-.2 0-.4.2-.6v-1-1.5-1.8-1.8-1.5c0-.5.1-.8.1-1.1 0-.2.1-.2.2-.2h.3c.1.1.2.1.3.2s.1.2.2.3a2.2 2.2 0 0 1 .1.8 1.7 1.7 0 0 0 .1.7v.7c0 .2.1.5.1.7.1-.2.3-.5.5-.9a8.8 8.8 0 0 1 .6-1c.2-.3.5-.6.8-.8s.6-.4.8-.4c.3-.1.5 0 .8.2s.5.6.7 1.1c.1.2.1.4.2.7s.1.5.2.8.1.6.2.9.2.5.3.6c.2-.1.4-.3.6-.5s.3-.4.5-.7c.2-.2.3-.5.5-.7s.4-.4.7-.5c.9-.3 1.7-.4 2.3-.3s1.1.4 1.5.8a3.6 3.6 0 0 1 .8 1.5 5.8 5.8 0 0 1 .3 1.9c0 .7 0 1.3-.1 1.9l-.3 1.6.1.2c.1.1.2 0 .4-.1.2-.2.5-.3.8-.5s.5-.4.8-.5c.3-.2.4-.2.5-.2v.3l-.4.4c-.1.2-.3.4-.5.6l-.6.6c-.2.2-.4.3-.6.5-.2.1-.4.2-.6.2-.4 0-.6-.1-.8-.3zm4.7-.4c-.3-.3-.5-.6-.6-1.2-.2-.5-.3-1.1-.3-1.8a7.4 7.4 0 0 1 0-2.1c0-.7.1-1.5.2-2.2a11.7 11.7 0 0 1 .5-2 5.3 5.3 0 0 1 .8-1.5 2.1 2.1 0 0 1 1.1-.8 1.8 1.8 0 0 1 1.4.2c.2.1.4.3.6.5s.4.5.6.8.3.6.5.9c.1.3.2.5.3.7v.6 1.2 1.5c0 .5.1 1.1.1 1.6l.3 1.5.6 1.1c.3.3.6.4 1 .4s.9-.1 1.4-.5c.2-.2.3-.3.4-.5 0-.2.1-.3.1-.4v-.2s.1 0 .3.1c.3.3.3.7.2 1.1s-.3.7-.6 1-.6.5-1.1.6c-.4.1-.9.1-1.3-.1s-.9-.5-1.3-1.1c-.4-.5-.7-1.3-1-2.4-.1.2-.2.5-.4.8s-.3.6-.6.9c-.2.3-.5.6-.7.9-.3.3-.5.5-.8.6s-.6.2-.9.2c-.2.1-.5-.1-.8-.4zm.2-1.2c.2.5.5.7.8.7s.6-.1.9-.3c.3-.3.6-.7.9-1.2s.6-1.1.8-1.7a11.7 11.7 0 0 0 .5-2c.1-.7.1-1.4.1-2-.1-.6-.2-1.2-.5-1.8-.3-.5-.7-1-1.2-1.3h-.1-.1c-.4.2-.7.5-1 .9s-.5.9-.8 1.5c-.2.6-.4 1.2-.5 1.9s-.2 1.3-.2 2a10.3 10.3 0 0 0 .1 1.8c0 .6.1 1.1.3 1.5zm9.8 1.5c.3-2 .4-4 .2-6a24.5 24.5 0 0 0-1.1-5.9c-.1-.2-.1-.3 0-.4s.2-.2.3-.2.2 0 .3.1.2.3.3.5c.2 1 .3 2.1.4 3.1l.4 3.2c.3.3.6.3 1 .2s.7-.4 1.1-.8a6.4 6.4 0 0 0 1-1.3c.3-.5.7-1 .9-1.5l.8-1.3c.2-.4.4-.6.6-.7.3-.2.4-.2.4 0s-.1.4-.3.8-.4.8-.8 1.3c-.3.5-.7 1-1 1.5s-.7.9-1 1.3-.6.6-.8.8c0 0-.1.1-.2.1s-.1.1-.2.1-.2.1-.2.2c-.1 0-.1.1-.2.1v.2l.1.1c.1.1.2.1.3.2s.3.2.4.2c.1.1.2.1.3.2l.9.5c.4.2.7.4 1.1.7.4.2.8.5 1.2.7s.9.4 1.3.5a5 5 0 0 0 1.2.2c.4 0 .7 0 1-.2s.5-.4.7-.8.3-.9.3-1.5h.4c.1 0 .1.1.2.3 0 .2.1.4 0 .7 0 .3 0 .5-.1.8s-.2.6-.4.8-.4.4-.7.6-.7.2-1.1.2c-.6-.1-1.3-.2-1.9-.5l-2-.9-1.9-1.2-1.7-1.1s-.1 0-.3-.1c-.1 0-.2-.1-.2-.1h-.1c-.1.7-.1 1.5-.1 2.3s-.1 1.5-.2 2.2h-.1-.2c-.1 0-.1 0-.2-.1-.1.1-.1 0-.1-.1zm14.6.2c-.5-.2-.8-.5-1.1-.8-.2-.3-.4-.7-.5-1a5 5 0 0 1-.2-1.2c0-.4-.1-.9-.1-1.3-.3.1-.6.1-.9.1s-.5 0-.7-.1c-.2 0-.3-.1-.4-.2s-.1-.2 0-.3.3-.2.5-.3a10.4 10.4 0 0 1 1.2-.3c.1 0 .2 0 .3-.1.2-.1.2-.1.3-.2s.2-.3.2-.6c.1-.3.2-.7.2-1l.3-1.1c.1-.4.3-.7.5-1s.4-.5.7-.6.6-.1 1 .1l.2.2c.1.1.2.1.2.2.1.1.1.2.2.2l.2.2a4.2 4.2 0 0 1-.1 1.6 3.7 3.7 0 0 1-.5 1.1c-.2.3-.5.5-.7.7l-.8.6-.6.6c-.2.2-.3.4-.3.7v.9a2.2 2.2 0 0 0 .1.8c.1.2.2.5.3.7s.4.4.7.6c.2.2.5.2.8.1s.6-.2 1-.4l1-.6c.3-.2.6-.4.8-.6s.4-.3.5-.3c.1-.1.1 0 0 .2l-.6 1.3c-.2.4-.5.8-.9 1.1-.3.3-.7.5-1.1.6-.6-.3-1.1-.3-1.7-.6zm-.6-6.9c0 .1 0 .2-.1.4s-.1.3-.1.4h.1.1s.1-.1.2-.1c.1-.1.2-.1.2-.2l.2-.2c.1-.1.1-.1.2-.1.4-.4.6-.7.8-1s.2-.6.2-.8-.1-.3-.2-.4-.3-.1-.5.1c-.2.1-.4.3-.6.7-.1.2-.3.6-.5 1.2zm15.2 6.6c0-.1 0-.3-.1-.8v-1.6-2-2.1c0-.6.1-1.2.1-1.7s.1-.8.1-.9h.2c.1 0 .2.1.2.2l.2.2c0 .1.1.2.1.2v8.4c0 .1 0 .2-.1.3s-.2.1-.3.1-.2 0-.3-.1c0 .1-.1 0-.1-.2zm.1-11.9v-.2-.2-.2-.2c.1-.1.2-.1.3-.1h.4c.2.3.3.5.4.7s.1.3 0 .4-.1.1-.3.2h-.4c-.1 0-.2-.1-.4-.1.1-.2 0-.3 0-.3zm4.5 12.2v-1c0-.4 0-.8.1-1.3s0-1 0-1.5v-1.4c0-.4-.1-.8-.1-1.2-.1-.3-.1-.6-.2-.7a5.3 5.3 0 0 1-1.8 0c-.4-.1-.6-.2-.6-.3s.2-.3.6-.4c.4-.2 1.1-.3 2-.3v-.8-1.2-1.2-.8c0-.1 0-.2-.1-.4 0-.2-.1-.3-.1-.5s0-.3-.1-.5v-.4c0-.2.1-.3.2-.3.1-.1.2-.1.3-.1s.2 0 .3.1.2.2.2.3v5.7c0 .1.2.2.5.2s.7 0 1.2-.1c.5 0 .9-.1 1.4-.2s.9-.1 1.3-.1.6.1.7.3c.1.1.1.4-.2.7 0 0-.1.1-.2.1s-.1.1-.2.1H352c-.8 0-1.5.1-2.2.2-.2 0-.4.3-.4.6a7.6 7.6 0 0 0 .1 1.4l.3 1.8.2 1.7c0 .5 0 .9-.2 1.3-.1.3-.4.4-.8.4.1 0 .1 0 0-.2 0 .1 0 .1 0 0zm18-.1c-.2-.2-.4-.4-.6-.8s-.3-.9-.4-1.4-.2-1.1-.2-1.8-.1-1.3-.1-2v-2c0-.7.1-1.2.1-1.8 0-.5 0-1 .1-1.3v-.7c0 .1-.1.1-.3.1-.2-.1-.3-.2-.4-.3s-.2-.3-.2-.5.1-.3.3-.4l1-.3c.3-.1.7-.2 1-.2.4-.1.7-.1 1-.2s.7-.1 1-.2l9-.3c.2-.1.4-.1.6-.1s.4.1.5.2.2.2.3.4c0 .2 0 .3-.2.6h-1-1.6-2c-.7 0-1.4 0-2.1.1-.7 0-1.4.1-2.1.1l-1.8.2-1.3.3c-.4.1-.6.2-.7.4-.2.4-.4.8-.4 1.4-.1.6-.1 1.1-.1 1.8 0 .6.1 1.2.1 1.8l.2 1.5h.4.2s.1-.1.2-.1.2-.1.3-.1.2 0 .5-.1c.2-.1.5-.1.8-.2s.7-.1 1-.2c.4-.1.7-.1 1-.2s.6-.1.9-.2c.2-.1.4-.1.5-.1l.9-.2c.2-.1.3-.2.3-.2l.2-.2c0-.1.2-.2.4-.2.2-.1.4 0 .5.1s0 .3-.1.6c-.1.2-.3.5-.5.7s-.6.4-.9.5c-.2 0-.6.1-1.1.2l-1.7.3-1.7.3-1.1.2s-.1 0-.2.1c-.1 0-.2.1-.3.1-.1.1-.2.1-.3.2-.1 0-.1.1-.2.1l-.1.1-.1.1c.1 1.1.2 2 .5 2.5s.6.9 1.1 1 1.1.1 1.8-.1l2.6-.7c.3-.1.6-.1.9-.2l1-.3c.3-.1.7-.2.9-.4.3-.2.5-.4.7-.6.1-.1.1-.1 0-.2 0 0-.1-.1-.1-.2s-.1-.1-.1-.2 0-.2.1-.3c.6.2.9.3 1 .6.1.2.1.5-.2.7s-.6.5-1.1.8-1.1.5-1.7.8c-.6.2-1.3.5-2 .6-.7.2-1.4.3-2.1.4s-1.3.1-1.9.1c-.1-.2-.6-.3-.9-.5zm14.4.1c-.4-.2-.8-.4-1.1-.8s-.5-.8-.7-1.2c-.2-.5-.3-.9-.4-1.4s-.1-1-.2-1.5v-1.5c0-.5 0-.9.1-1.2.1-1.1.3-2.1.6-3.1.4-.9.9-1.8 1.7-2.8.5-.6.9-.9 1.3-1.1s.8-.2 1.2-.1.7.3 1 .6.5.7.7 1.1.4.8.5 1.3a5 5 0 0 1 .2 1.2c0 .4 0 .7-.1.9s-.2.3-.4.3c-.1-.3-.1-.6-.2-.7 0-.2-.1-.3-.1-.5-.1-.2-.1-.3-.2-.6s-.3-.6-.5-1.2c-.4-.7-.7-1.2-1.1-1.3-.4-.2-.7-.2-1.1 0-.3.2-.7.6-1 1.1a7.5 7.5 0 0 0-.8 1.8c-.3.7-.5 1.4-.6 2.2-.2.8-.3 1.6-.4 2.3s-.1 1.4-.1 2 .1 1.1.3 1.5c.1.2.2.5.3.7.1.3.3.5.5.7s.4.3.6.5c.2.1.5.1.8.1.6-.1 1.1-.4 1.6-.8.4-.4.8-.9 1.1-1.4.3-.6.6-1.2.8-1.9a16 16 0 0 0 .5-2.1c.2-.7.3-1.4.4-2l.3-1.8.3-1.3c.1-.3.2-.5.4-.6h.3c.1.1.2.1.2.2.1.1.1.2.1.3v.3a10.2 10.2 0 0 0-.9 2.2c-.2.7-.2 1.5-.2 2.2a11.8 11.8 0 0 0 .4 2c.2.6.5 1.2.8 1.8.3.5.7 1 1 1.4.4.4.8.7 1.1 1 .4.2.7.4 1.1.4.3 0 .6-.1.9-.3a4.4 4.4 0 0 1 1.2-1c.3-.1.5-.1.6 0s.1.3 0 .6-.2.6-.5.9c-.2.3-.5.5-.9.7s-.7.3-1.2.3c-.4 0-.9-.2-1.4-.6s-1-1-1.6-1.8l-.6-.9c-.2-.3-.4-.7-.6-1l-.5-1.1c-.1-.4-.3-.7-.4-1l-.3 1.3a4.7 4.7 0 0 1-.6 1.5c-.2.5-.5 1-.8 1.5a4 4 0 0 1-1 1.2c-.4.3-.8.5-1.2.6a1.7 1.7 0 0 1-1.2-.1zm17 0c-.3-.1-.6-.2-.9-.4a7 7 0 0 1-1-.8 9 9 0 0 1-.9-1 3 3 0 0 1-.6-1.1c-.1-.4-.2-.7-.1-1.1.1-.3.3-.6.6-.9.1 0 .2-.1.3-.2.2-.1.3-.1.5-.1s.3 0 .4.1.1.2.1.4c-.4.2-.7.4-.8.7s-.1.6 0 1c.1.3.3.7.6 1s.6.7 1 .9c.4.3.8.5 1.2.7s.8.3 1.2.3.7-.1.9-.3c.3-.2.4-.5.4-1 0-.6 0-1.2-.1-1.8s-.4-1.1-.8-1.7a4.7 4.7 0 0 0-1-1c-.3-.3-.7-.5-1-.7s-.7-.4-1-.6-.7-.4-1-.6-.6-.5-.9-.8-.5-.7-.8-1.2c-.3-.6-.4-1.2-.3-1.8s.4-1.1.8-1.4a4.2 4.2 0 0 1 1.4-.9c.6-.2 1.2-.3 1.8-.2a3 3 0 0 1 1 .4c.3.2.6.5.8.9.2.3.4.7.4 1 .1.4.1.7 0 .9a.9.9 0 0 1-.6.6c-.3.1-.7.1-1.3 0-.1-.2 0-.4.1-.5s.2-.2.4-.3.3-.2.4-.3.2-.2.2-.4c-.1-.6-.3-1.1-.7-1.3-.4-.3-.8-.4-1.2-.4a2.2 2.2 0 0 0-1.3.4 2.4 2.4 0 0 0-1.2 2.5c.1.5.4 1.1.9 1.7.4.5.8.8 1.2 1.1l1.1.6 1.1.6a5.3 5.3 0 0 1 1.2 1 3.8 3.8 0 0 1 .9 1.3 8.8 8.8 0 0 1 .5 1.5 3.8 3.8 0 0 1 0 1.5c-.1.5-.3.8-.5 1.2-.3.3-.6.5-1.1.6a4.3 4.3 0 0 1-2.3-.1zm12.9-.1c-.2-.2-.3-.5-.4-.9s-.1-.9-.1-1.4 0-1.1.1-1.7l.2-1.7.2-1.5c.1-.5.1-.8.1-1.1h-.2c-.5.8-.9 1.3-1.4 1.7-.4.3-.9.5-1.3.5s-.8-.1-1.2-.3-.7-.5-1-.9-.6-.7-.8-1.1l-.6-1.1-2-3c-.1-.2-.1-.3-.1-.5s0-.3.1-.4.2-.2.3-.2.3 0 .5.2c.2.1.3.3.5.6s.3.6.5 1l.6 1.3c.2.4.5.9.8 1.3s.7.7 1.1 1 .9.5 1.5.6c.4.1.7 0 1-.2s.6-.4.8-.8c.3-.3.5-.7.7-1.2s.4-.9.5-1.4l.5-1.4.5-1.2c.2-.3.3-.6.5-.7.2-.2.4-.2.6-.1l-.3 2.2-.4 2.5-.4 2.6-.3 2.6c-.1.8-.1 1.6-.2 2.4a10.9 10.9 0 0 0 .1 1.9v.4c-.1.1-.2.2-.3.2h-.4c-.1 0-.2-.1-.3-.2z" class="P"/><path d="M400.6 578.7l-29.2-29.2h58.4l-29.2 29.2z" class="O Q"/></g><g fill="#262c44"><path d="M508.7 660H291.3c-26.4 0-47.9-21.5-47.9-47.8V137.8A47.9 47.9 0 0 1 291.3 90h217.4c26.4 0 47.9 21.5 47.9 47.8v474.4c0 26.3-21.5 47.8-47.9 47.8zM291.3 102c-19.8 0-36 16.1-36 35.9v474.4c0 19.8 16.1 35.9 36 35.9h217.4c19.8 0 36-16.1 36-35.9V137.8c0-19.8-16.1-35.9-36-35.9H291.3z"/><path d="M560 184.9h-9.6v98h9.6v-98zm-310.4 0H240v38.6h9.6v-38.6zm0 55H240v38.6h9.6v-38.6z"/><use href="#C" x="-400"/></g><use href="#D" x="-400"/><use href="#E" x="-400" fill="#181d2d"/><use href="#F" x="-400"/></svg>