<svg xmlns="http://www.w3.org/2000/svg" width="807" height="321" fill="none" xmlns:v="https://vecta.io/nano"><style><![CDATA[.B{fill:#1a2e35}.C{fill:#000}.D{fill:#020e44}.E{fill:#f99370}.F{fill:#ff978d}.G{fill:#fe9f73}.H{opacity:.2}.I{fill:#23659b}.J{fill:#c16256}.K{fill:#f07162}.L{fill:#007cff}.M{fill:#3a72aa}.N{fill:#7689d6}.O{fill:#8a9edd}.P{fill:#677cc1}.Q{fill:#3aa1c9}.R{fill:#1d1d1b}.S{fill:#1a1a1a}]]></style><path d="M621.96 182.41c71.77 0 129.96-4.42 129.96-9.88s-58.18-9.88-129.96-9.88S492 167.08 492 172.53s58.18 9.88 129.96 9.88z" fill="url(#A)"/><path d="M806.76 109.61a75.4 75.4 0 0 1-14.59 44.7 75.6 75.6 0 0 1-61.13 31.02c-41.82 0-75.72-33.9-75.72-75.72 0-25.1 12.21-47.35 31.02-61.13 12.53-9.18 27.98-14.59 44.7-14.59 41.82 0 75.72 33.9 75.72 75.72z" fill="#0451b1"/><path d="M806.76 109.61a75.4 75.4 0 0 1-14.59 44.7c-12.53 9.18-27.98 14.59-44.7 14.59-41.82 0-75.72-33.9-75.72-75.72a75.4 75.4 0 0 1 14.59-44.7c12.53-9.18 27.98-14.59 44.7-14.59 41.82 0 75.72 33.9 75.72 75.72z" fill="#0054ce"/><path opacity=".6" d="M758.84 91.61c9.46 0 17.13-7.67 17.13-17.13s-7.67-17.13-17.13-17.13-17.13 7.67-17.13 17.13 7.67 17.13 17.13 17.13z" fill="#0451b1"/><g class="E"><path d="M617.59 34.87s-.02-.04-.03-.04c2.33 4.59 6.4 9.18 11.77 9.78 6.52.45 13.09-1 19.43-2.57 1.89-.7 4.09-.75 4.77 1.56.52 1.92-1.04 3.06-2.53 3.81-8.66 4.72-18.76 9.18-28.84 7.25-6.01-1.35-11.17-4.94-15.14-9.51-9.33-9.02 3.85-20.11 10.58-10.27l-.01-.01z"/><path d="M659.24 39.02c-.7-.7-1.43.55-1.98.91.68-1.93 1.73-3.76 2.83-5.5.24-.46.91-1.02.37-1.5-.62-.47-1.04.39-1.39.78l-1.88 2.53c.55-1.46 1.19-2.91 1.91-4.29.35-.72-.74-1.2-1.06-.46-.09-.48-.81-.58-1.02-.13l-.45.89c-.73-.74-1.19.57-1.51 1.07a28.3 28.3 0 0 0-1.28 2.66c-.79 1.79-2.35 5.14-4.02 5.85l2.38 1.06s.69.73 1 1.19c.3.46-.73 2.48-.73 2.48 1.94-.82 4.72-4.24 5.77-5.53l1.05-1.16c.21-.23.22-.58.01-.83v-.02z"/></g><path d="M651.6 47.06l-2.09 1.29-6.29 3.67-5.16 2.65c-5.1 2.31-18.85 2.17-22.53-2.51-1.74-2.2-2.58-7.02-2.98-11.5-.45-5.02-.36-9.61-.36-9.61s3.31-.29 6.41 4.04c3.09 4.32 6.35 8.53 11.31 9.05 3.65.38 12.26-.98 16.55-1.72l2.53-.46s2.51.86 2.59 5.1h.02z" class="I"/><path d="M651.6 47.06l-2.09 1.29c-.07-3.69-3.04-5.93-3.04-5.93l2.53-.46s2.51.86 2.59 5.1h.01z" fill="#f4d4be"/><path d="M625.45 85.04l-1.51.29c-2.81.5-8.76 1.31-10.88-.29l6.33-28.56 1.71-7.7.06-.26.21 1.96.85 7.65c.02.21.05.42.07.63l3.16 26.27v.01z" class="M"/><path d="M647.58 173.89l-16.4 4.78c-.75.22-1.52-.24-1.7-1a11.3 11.3 0 0 1-.23-1.31 23.6 23.6 0 0 0-.89-4.23l-.7-1.95-4.53-11.16c-.3-.74.11-1.59.88-1.81l7.24-2.11c.78-.23 1.59.28 1.72 1.09l1.74 10.86c.38 2.38 2.48 4.08 4.89 3.99l4.66-.34h.48c1.33 0 2.49.16 3.33.85s.57 2.05-.48 2.35l-.01-.01z" class="E"/><path d="M628.91 177.49c.28.79.94 1.59 1.87 1.3l17.01-4.96c.88-.25 1.25-1.32.7-2.05-1.2-1.66-4.35-3.74-12.52-1.85-1.12.45-3.64 1.61-7.6 2.2 0 0-.71 2.43.55 5.35l-.01.01z" fill="#eb5648"/><path d="M643.06 172.72s-.09.02-.14.01c-.21-.02-.36-.21-.34-.41.22-2.14 1.5-3.15 1.55-3.19.17-.13.4-.1.53.07.13.16.1.4-.07.53 0 0-1.08.87-1.26 2.67-.02.16-.13.28-.27.32zm-2.9.47s-.07.02-.11.02c-.21 0-.37-.17-.37-.38a5.9 5.9 0 0 1 1.66-3.91c.15-.14.39-.14.53.01s.14.39-.01.53c-.01.01-1.39 1.36-1.42 3.38 0 .17-.12.31-.27.35h-.01zm-3.31.54s-.08.02-.12.01c-.21-.01-.37-.19-.36-.39a7.3 7.3 0 0 1 1.55-4.1c.13-.16.37-.18.53-.04.16.13.18.37.05.53a6.8 6.8 0 0 0-1.37 3.66c0 .16-.12.3-.27.34l-.01-.01z" fill="#e8c0a6"/><path d="M648.48 171.79l-19.57 5.7c.25.58.58 1.11 1.03 1.54l17.85-5.2c.87-.25 1.24-1.29.71-2.02 0 0-.01-.02-.02-.03v.01z" fill="#ce3932"/><path d="M637.85 161.78l-.38 3.71s-6.6 4.46-13.83 3.23l-.24-1.71-.17-1.19c-1.37-9.47-5.85-39.27-8.81-45.72-3.31-7.2-9.26-11.39-15.23-15.25-9.01-5.84-18.04-10.93-18-24.49 0-2 17.05-4.69 17.05-4.69l21.49 6.17s11.03 15.11 16.06 32.41c4.43 15.23 2.88 38.53 2.06 47.51v.02z" fill="#1d3f70"/><path d="M625.3 165.83c-.62-4.27-3.08-20.84-6.01-37.32-3.4-19.13-16.73-25.86-16.73-25.86l-3.36 2.21c5.96 3.86 11.92 8.06 15.23 15.25 2.96 6.45 7.44 36.24 8.81 45.72l.41 2.9c7.23 1.23 13.83-3.23 13.83-3.23s.17-1.37.38-3.71c-4.42 3.23-9.71 3.93-12.55 4.05l-.01-.01z" fill="#10325b"/><path d="M538.52 156.92l-3.58-16.7c-.16-.76.35-1.5 1.12-1.63a11.1 11.1 0 0 1 1.33-.13c1.44-.06 2.87-.26 4.28-.59a452.6 452.6 0 0 0 7.94-2.42s3.61 8.02 2.79 8.09l-9.04 2.37c-1.74 1.42-1.34.84-1.41 3.25v4.67c0 .16-.02.32-.03.48-.09 1.33-.34 2.47-1.09 3.26s-2.08.42-2.31-.65z" class="E"/><path d="M536.28 138.04c-.81.22-1.65.83-1.43 1.77l3.72 17.32c.19.9 1.22 1.34 1.99.84 1.74-1.08 4.05-4.07 2.75-12.35-.37-1.15-1.34-3.74-1.65-7.74 0 0-2.38-.88-5.38.16z" fill="#eb5648"/><path d="M540.02 152.51s-.01-.09 0-.14c.04-.2.23-.34.44-.31a4.7 4.7 0 0 1 3.07 1.78c.11.17.07.41-.1.52s-.4.07-.52-.1c0 0-.79-1.14-2.57-1.45-.16-.03-.27-.15-.3-.29h-.02zm-.27-2.94s-.01-.07 0-.11c.02-.21.2-.36.41-.34a5.9 5.9 0 0 1 3.78 1.93c.13.16.11.4-.05.53s-.4.11-.53-.05c-.01-.02-1.26-1.48-3.27-1.66-.17-.02-.3-.14-.33-.3h-.01zm-.3-3.34s-.01-.08 0-.13c.03-.21.21-.35.42-.33 2.38.3 3.92 1.78 3.98 1.84.15.14.15.38 0 .53-.14.15-.38.15-.53 0a6.8 6.8 0 0 0-3.55-1.63c-.16-.02-.29-.14-.32-.29v.01z" fill="#e8c0a6"/><path d="M540.55 157.97l-4.28-19.93c-.59.2-1.15.5-1.61.92l3.9 18.17c.19.88 1.19 1.33 1.96.86 0 0 .02-.01.03-.02z" fill="#ce3932"/><path d="M611.26 30.47c1.2-3.48 1.77-8.77 1.74-10.99.02-4.38-6.97-4.22-6.78.13.24-.09-.74 7.64-1.68 9.64-4.29.32 6.05 8.6 9.42 7.48 2.12-.7-2.71-6.27-2.71-6.27l.01.01z" class="E"/><path d="M606.24 19.26v.15.21c.18-.07-.31 4.21-.98 7.24 2.57 1.93 5.88 2.06 6.49 2.06a50.2 50.2 0 0 0 1.28-8.81l-.01-.63c0-.1 0-.2-.02-.3a3.4 3.4 0 0 0-1.48-2.45c-.56-.38-1.24-.59-1.96-.57s-1.38.25-1.92.64c-.02.01-.05.03-.07.05-.73.56-1.24 1.42-1.32 2.39l-.01.02z" fill="#e57d61"/><path d="M618.53 14.81s.35-3.64-.5-6.28l-2.2.78 2.7 5.5z" fill="#8e4a35"/><path d="M607.81 83.55c-2.82 10.65-8.28 36.45-21.48 48.99-10.76 10.22-25.89 13.61-32.83 14.67-2.34.36-3.75.45-3.75.45s-7.03-5.94-4.52-14.79c0 0 1.18-.33 3.04-.94 5.8-1.9 18.21-6.5 21.91-12.13 8.5-12.97.1-21.8 11.02-39.42l26.62 3.18-.01-.01z" fill="#1d3f70"/><path d="M617.38 25.46c-3.6 2.79-8.74 2.69-12.17.18a6.2 6.2 0 0 1-.71-.65c-10.28-13 7.65-30.34 12.95-12.83 1.9 4.98 5.84 7.97-.06 13.3h-.01z" class="E"/><g class="J"><use href="#E"/><use href="#E" x="3.99" y="-0.21"/><path d="M615.78 19.1c-.28 0-.55-.05-.78-.15-.09-.04-.13-.15-.09-.23.04-.09.15-.13.23-.09.57.26 1.44.06 1.58-.2.05-.09-.06-.2-.17-.27-.94-.65-1.39-2.62-1.41-2.7-.02-.1.04-.19.13-.21.1-.02.19.04.21.13 0 .02.44 1.91 1.27 2.49.45.31.34.62.28.74-.17.31-.72.49-1.26.49h.01z"/></g><path d="M617.03 10.94c-2.37-1.62-7.09-.92-9.33-1.2 0 0 .04 3.9-4.15 6.19-.73 3.5-1.49 4.97 1.66 9.7a6.2 6.2 0 0 1-.71-.65c-9.91-12.41 6.8-29.77 12.54-14.04h-.01z" fill="#e57d61"/><path d="M619.81 3.5c-1.12-3.02-5.25-5.06-9.36-1.95-3.16 2.39-6.25 2.02-6.51 4.89-6.03 1.95-3.9 8.59-3.9 8.59h2.91c3.58-2.3 3.93-6.21 3.93-6.21.73.12 1.5.17 2.2.08 2.18-.3 5.33-.21 7.62.94 2.28 1.15 4.36-2.96 3.11-6.34z" fill="#8e4a35"/><path d="M599.38 17.3c.14 1.51 1.25 2.64 2.46 2.53 1.22-.12 2.09-1.43 1.94-2.94-.14-1.51-1.25-2.64-2.46-2.53-1.22.12-2.09 1.43-1.94 2.94z" class="E"/><path d="M602.42 15.67s-1.09-.57-1.76-.07c-.17.13-.3.31-.38.54 0 .02-.02.04-.03.06-.14.43-.14 1.04 0 1.8.02.09.09.15.18.15h.03c.1-.02.16-.11.14-.21a4 4 0 0 1-.05-1.48c.99.3 1.37 1.49 1.38 1.5.02.08.09.13.17.13h.05c.09-.03.15-.13.12-.22-.02-.06-.43-1.39-1.59-1.75.05-.09.12-.18.19-.23.5-.37 1.38.09 1.39.1.09.05.19.01.24-.07.05-.09.01-.19-.07-.24l-.01-.01z" class="J"/><path d="M619.73 81.86s-9.97 6.67-38.54-1.49l7.02-38.04c5.15-13.13 16.34-13.07 16.34-13.07.84 4.86 7.33 4.98 7.33 4.98.86-1.4-.62-3.76-.62-3.76 6.44 3.64 9 11.67 8.37 23.96-.38 7.37 2.85 20.42.09 27.43l.01-.01z" fill="#f4d4be"/><path d="M611.14 14.5s-.08-.01-.11-.03c-.1-.06-.13-.19-.07-.29.04-.06.93-1.46 2.87-1.57.11 0 .21.08.22.2 0 .11-.08.21-.2.22-1.72.1-2.51 1.32-2.55 1.37-.04.06-.11.1-.18.1h.02zm6.63-.73c-.06 0-.13-.03-.17-.09-.47-.64-1.6-.72-1.61-.72-.11 0-.2-.11-.2-.22s.1-.2.22-.2c.05 0 1.35.09 1.93.89.07.09.05.22-.05.29-.04.03-.08.04-.12.04v.01z" class="J"/><path d="M616.5 21.32l-4.08-2.74s-.54 2.34 1.1 3.18c1.57.81 2.98-.45 2.98-.45v.01z" fill="#f9f8f3"/><path d="M616.5 21.53s-.08-.01-.12-.04l-4.08-2.74c-.1-.06-.12-.19-.06-.29s.19-.12.29-.06l4.08 2.74c.1.06.12.19.06.29-.04.06-.11.09-.17.09v.01z" class="J"/><path d="M612.19 68.25c-.51 9.85-3.43 21.68-3.43 21.68a29.1 29.1 0 0 1-3.32.29c-13.31.49-31.77-6.18-31.77-6.18 3.54-8.64 9.28-31.03 14.03-42.3s14.52-12.2 14.52-12.2c8.48 5.31 10.38 15.82 10.52 25.25.08 5.15-.36 9.97-.55 13.45v.01zm10.29 13.61h-2.74a372.9 372.9 0 0 0-.86-33.46l-.17-1.86c-1.21-11.85-5.67-14.9-5.8-14.99 0 0 .03.01.06.03.03.01.06.03.08.04 2.11 1.1 3.78 3.35 5.08 6.31 1.22 2.76 2.12 6.14 2.79 9.79 2.73 14.85 1.56 34.13 1.56 34.13v.01z" class="M"/><path d="M612.19 68.25c-.51 9.85-3.43 21.68-3.43 21.68a29.1 29.1 0 0 1-3.32.29c.2-.88 5.36-23.76 4.57-38.08l2.73 2.66c.08 5.15-.36 9.97-.55 13.45z" class="I"/><path d="M553.49 147.21l-3.75.45s-7.03-5.94-4.52-14.79l3.04-.94c0 0-.94 9.65 5.23 15.29v-.01z" fill="#10325b"/><path d="M604.69 28.92s-1.16-.37-2.48.63c0 0 2.13 6.95 9.82 7.29 0 0 .59-1.47.16-2.25 0 0 1.5.71 2 1.24 0 0 .28-2.77-1.65-4.67 0 0-.48-.63-1.19-.92l-.08.23s.76 1.92.34 3.28c0 0-3.86-.58-6.91-4.83h-.01z" fill="#eabfac"/><g class="I"><use href="#F"/><use href="#F" x="0.9" y="-6.37"/><use href="#F" x="1.81" y="-12.8"/><use href="#F" x="2.66" y="-18.97"/><use href="#F" x="3.35" y="-24.73"/><path d="M613.05 31.63s3.5 4.38 5.11 14.25c0 0 .8 2.03 1.87 2.46 0 0-1.22-11.88-6.99-16.72l.01.01zm12.4 53.41l-1.51.29a61 61 0 0 1-1.32-6.96c-1.19-8.4-1.77-18.91-1.77-18.91l1.42-.69h.02l3.16 26.26v.01zm-30.71-39.15s5.28 10.23 16.19 14.01l.21-5.23-16.4-8.78z"/><path d="M598.72 33.69c-1.91.09-7.27 1.29-8.75 4.14-1.15 2.23-2.23 8.18-2.62 10.62-.82 5.1-.92 8.47-1.76 13.58-.65 3.98-1.44 16.19 6.04 17.07 5.56.65 4.3-10.27 5.46-14.19a42.2 42.2 0 0 0 1.58-8.49l.06-22.73h-.01z"/></g><path d="M608.84 28.58c-.17-.48-.45-.98-.78-1.37a32.3 32.3 0 0 1-1.23-1.6c-.79-1.09.07-1.71 0-2.88l-.17-1.35c-.53-.84-1.29.18-1.51.72-.27.64-.64 1.12-.88 1.76a6.1 6.1 0 0 0-.26 1.86c0 .94.85 1.84 1.42 2.53 1.13 1.35 2.34 2.73 2.64 4.48 1-.86 1.2-2.99.78-4.15h-.01z" fill="#e07f4f"/><path d="M609.69 25.05c.4.58.37 1.19-.07 1.36l-4.6 1.54c-.53.16-1.24-.18-1.56-.75l-4.51-12.02c-.1-.54.15-1.12.53-1.3l3.19-1.73c.3-.19.66.1.83.65l6.18 12.24.01.01z" fill="#2d2827"/><path d="M609.17 25.22c.33.54.03 1.17-.28 1.29l-3.36 1.07c-.37.1-.92-.87-1.19-1.4l-5.2-10.88c-.12-.49.93-1.14 1.2-1.26l2.24-1.27c.21-.14.51.15.68.65l5.91 11.81v-.01z" fill="#211f1e"/><g class="E"><path d="M607.19 20.52c-.47.05-1.13-.3-1.52-.55-.29-.19-.41-.33-.73-.39-.28-.05-.62 0-.92.02-.49.03-1.12 0-1.56.17l-2.16 1.68-.09.07c.29-.35.61-1.68.78-2.03.29-.58 1.04-.76 1.63-1 1.14-.45 2.35-1.3 3.36-.29.19.19 1.16.98 1.53 1.59.22.37.22.68-.33.74l.01-.01z"/><path d="M607.19 20.52c-.47.05-1.13-.3-1.52-.55-.29-.19-.41-.33-.73-.39-.28-.05-.62 0-.92.02-.49.03-1.12 0-1.56.17l-2.16 1.68s.02-.03.04-.04c.12-.11.21-.25.32-.37l.76-.76c.46-.4-.1-.75.16-1.26 1.02-.33 2.5-.43 2.85-.44.35 0 1.3.44 1.61.21-.07.25-.36.45-.37.72.4.12.71.5 1.15.53.25.01.51-.09.69-.26.22.37.22.68-.33.74h.01z"/><path d="M601.88 20.13l-.81.87-.7.76c-.33-.37-.28-1.29-.41-1.77-.15-.56-.38-1.12-.56-1.69-.18-.56-.96-2.04.21-2.31.04-.01.09 0 .13 0 .19.06.39.3.52.44.48.51.59 1.16.89 1.75l.49.94c.15.31.11.77.25 1l-.01.01z"/><path d="M601.88 20.13l-.81.87-.45.4c-.07-.56.01-1.13 0-1.68 0-.55-.14-1.06-.17-1.6-.05-.79-.15-1.6-.72-2.12.19.06.39.3.52.44.48.51.59 1.16.89 1.75l.49.94c.15.31.11.77.25 1z"/><path d="M606.43 20.52c-.06-.53-.08-1.2-.69-1.38-1.11-.34-2.93-.26-4.07-.19-.92.06-2.46 4.17-2.67 4.76-.13.37-.24.78-.22 1.16.01.22.07.43.19.61l1.33 2.2.78 1.18.97-.06-.64-1.92c-.23-.67-.74-1.52-.6-2.2l.43-1.83c.16-.64.55-1.37.54-2.01.22-.08.48-.07.73-.09.6-.04 1.79-.33 2.3 0 .48.31.62 1.08 1.32 1.17.29.04.41-.12.43-.36.04-.33-.1-.81-.13-1.06v.02z"/><path d="M606.61 21.69c-.03.23-.14.39-.43.36-.7-.09-.85-.87-1.32-1.17-.51-.33-1.7-.03-2.3 0-.24.02-.51 0-.73.09 0 .64-.38 1.36-.54 2.01l-.43 1.83c-.15.68.37 1.53.6 2.2l.87 2.68c0 .01 0 .03.01.04.09.33.18.86.24 1.4.05.45 1.68 4.05 1.66 4.4l-3.89-7.73-1.33-2.2c-.12-.19-.18-.4-.19-.61.3.3.77.16.83.16l.18-.2c.41-.29.69-3.23 1.67-4.22.33-.33.78-.38.28-.94.84.51 2.23.26 3.17.39.55.08.56.38.65.67.1.31.65.9 1 .85v-.01z"/><path d="M608.13 28.51c-1.22-2.33-4.18-3.48-4.37-3.81-.3-.54-.35-.88-.89-1.29.18-.4.57-.72.67-1.16.37-.04.76-.03 1.01-.33l.19.75c.38 1.23 2.55 1.12 1.42-.61-.31-.48-.34-1.16-.71-1.57-.32-.36-1.17-.19-1.68-.13-.58.07-1.23.02-1.78.23-.56.21-.71.86-.88 1.39-.2.66-.34 1.32-.51 1.98-.2.75-.47 1.45-.16 2.18.27.62.68 1.18.97 1.81a55.8 55.8 0 0 1 1.53 4.91c.59 2.21-.85 7.25-2.73 13.66.61.17 2.85.31 3.5.38s2.41.72 3.05.56c.06-.16 1.29-10.55 1.31-10.72l.74-4.53c.18-1.27-.14-2.65-.69-3.7h.01z"/></g><path d="M602.45 36.16l-.69 2.87 6.07 1.66c.41-1.19.75-2.93.84-4.24-1.68-.42-4.46-.5-6.22-.29z" fill="#fffde9"/><path d="M608.55 38.88l-.92 9.5c-.6 4.8-1.5 9.48-2.78 14.23a40.3 40.3 0 0 1-3.49 8.69c-1.02 1.92-5.53 8.53-8.44 8.58-6.58.12-6.44-5.59-5.61-9.78.28-1.4.63-2.63.83-3.41 1.42-5.51 12.21-25.38 13.2-29.34l5.98 1.26 1.23.26v.01z" class="M"/><g class="I"><path d="M608.55 38.88l-.92 9.5c-.6 4.8-1.5 9.48-2.78 14.23a40.3 40.3 0 0 1-3.49 8.69c-1.02 1.92-5.53 8.53-8.44 8.58-6.58.12-6.44-5.59-5.61-9.78 2.37.39 5.03-.19 7.14-1.14 5.54-2.5 7.49-8.9 9.01-13.97a176.1 176.1 0 0 0 2.7-10.01c.39-1.62.49-3.3.81-4.93.09-.46.22-.95.34-1.44l1.23.26.01.01z"/><use href="#G"/><use href="#G" x="-0.53" y="4.37"/></g><path d="M302.7 104.6H2v33.06h300.7V104.6z" fill="url(#B)"/><path d="M355.79 148.89h98.83V50.06h-98.83v98.83z" class="N"/><path d="M355.78 50.06h98.83L416.7 26.19h-98.83l37.91 23.87z" class="O"/><path d="M318.02 125.16l37.76 23.73V50.06l-37.76-23.73v98.83z" class="P"/><path d="M339.53 56.25a28.5 28.5 0 0 0 3.19-4.36c.04-.09.07-.17.09-.24 0-.02 0-.04.01-.05a5.1 5.1 0 0 1 .27-.97l.51-2.66c.14-.31.75-.67 1.15-.89.33-.18.52-.56.42-.93-.06-.21-.21-.41-.55-.5 0 0 .29-1.02-.64-1.15 0 0 .34-1.12-1.16-.95 0 0-.11-.64-.81-.66-.71-.02-2.23.62-2.45.81s-2.53 3.35-2.53 3.35l-2.25 4.57 4.74 4.63h.01z" class="G"/><path d="M339.75 45.62s.04-.02.06-.04c0 0 .6-.78.89-.99a22.5 22.5 0 0 1 2.16-.97c.05-.02.07-.07.05-.12s-.07-.07-.12-.05c-.08.03-1.88.76-2.2.99a7 7 0 0 0-.93 1.03c-.03.04-.02.1.02.13.02.02.05.02.07.02zm1.45 1.02s.04-.02.06-.04c0 0 .46-.63.82-.92.36-.3 1.93-1.09 1.95-1.1.05-.02.06-.08.04-.12s-.08-.06-.12-.04a18.6 18.6 0 0 0-1.98 1.12 6.1 6.1 0 0 0-.85.96c-.03.04-.02.1.02.13.02.01.05.02.07.02l-.01-.01zm1.01.84s.05-.02.06-.04c0 0 .29-.43.65-.74.35-.31 1.73-.96 1.74-.97.05-.02.07-.08.05-.12-.02-.05-.08-.06-.12-.04-.06.03-1.41.67-1.79 1a4.7 4.7 0 0 0-.68.78c-.03.04-.02.1.02.13.02.01.04.02.07.01v-.01z" class="K"/><path d="M252.1 133.06l5.2-5.62-4.92-1.36c-.19.05-4.23 1.4-4.23 1.4s-1.11 1.98-1.06 2.77c.05.8.47 2.67 1.31 3.19s.98.89 1.73.61 1.97-.99 1.97-.99zm44.5 5.79l-6.79.03-.02-1.89 2.67-7.03 7.89.89-3.75 8z" class="G"/><path d="M289.73 139.41h7.41l3-3.27 5.49 3.27h1.18c.41 0 .78.28.86.68.1.54-.31 1.01-.83 1.01h-17.23c-.13 0-.23-.1-.23-.23v-1.12c0-.18.15-.33.33-.33l.02-.01z" fill="#fec786"/><path d="M289.79 139.42v-3.04s1.25-1.68 3.15-.82c0 0 2.87 2.04 5.41-.43l6.29 2.79s1.72.58 2.19 1.5h-17.04z" class="Q"/><g class="C"><path d="M289.86 136.38h-.13v3.03h.13v-3.03zm5.66.03c.24 0 .39-.02.39-.02l-.02-.12s-1.5.21-2.91-.76l-.07.1a4.6 4.6 0 0 0 2.61.8zm-4.93 1.76l-.07.11.8.54.07-.11-.8-.54zm.58-.08l-.07.11.8.54.07-.11-.8-.54z"/><path d="M307.44 140.95c.2-.17.32-.42.32-.69 0-.5-.41-.91-.91-.91h-17.03c-.27 0-.49.22-.49.49v.84h.13v-.84c0-.2.16-.36.36-.36h17.03c.43 0 .78.35.78.78 0 .23-.1.45-.28.6l.08.1.01-.01z"/><path d="M306.79 139.45l.11-.05s-.36-.74-1.65-1.29l-6.89-3.03-.05.12c.06.02 5.62 2.49 6.89 3.03 1.24.53 1.58 1.22 1.58 1.22h.01z"/></g><path d="M330 25.39l-4.39 5.82s-1.4 2.03-3.31.98l-1.66 2.87c-.62 1.07-1.9 1.56-3.06 1.15-.57-.2-1.19-.51-1.81-.97-1.97-1.48-1.92-3.76-1.53-4.62s3.54-4.02 3.54-4.02l1.25-1.78 5.28-6.54L330 25.4v-.01z" class="G"/><g class="C"><path d="M323.06 24.73s-.04-.04-.04-.07c0-.06.03-.11.08-.12.02 0 2.02-.31 2.42 1.3.01.05-.02.11-.07.12-.06.01-.11-.02-.12-.07-.36-1.42-2.12-1.16-2.19-1.15-.03 0-.06 0-.08-.02v.01zm3.75 2.05s-.04-.04-.04-.08c0-.06.04-.11.1-.11.05 0 1.34-.08 1.52.71.01.06-.02.11-.08.12s-.11-.02-.12-.08c-.14-.62-1.29-.55-1.3-.55-.03 0-.05 0-.07-.02l-.01.01zm-2.34-.47c-.1.14-.3.16-.43.06s-.16-.3-.06-.43c.1-.14.3-.16.43-.06.14.1.16.3.06.43zm2.79 1.72c-.1.14-.3.16-.43.06-.14-.1-.16-.3-.06-.43.1-.14.3-.16.43-.06.14.1.16.3.06.43zm-2.97-9.26l-.09 2.98s2.94 4.75 6.51 4.44 3.61-1.72 3.71-3.15c.05-.7-.7-2.77-3.11-3.33-1.31-.3-1.06-2.16-2.7-2.37s-3.85-.09-4.04.47l-.28.96z"/><path d="M324.99 18.02s-1.82-1.52-3.73-.09c-1.9 1.42-1.91 2.91-2.3 3.47s-3.52 3.94-.74 5.61l5.25-5.53.92-3.08.6-.37v-.01z"/></g><path d="M322.5 24.69c-.61.82-1.77.98-2.59.36-.82-.61-.98-1.77-.36-2.59.61-.82 1.77-.98 2.59-.36.82.61.98 1.77.36 2.59z" class="G"/><path d="M320.23 24.4c-.31-.23-.34-.62-.23-.9.13-.33.42-.53.74-.5.48.04.68.4.75.61.06-.22.05-.41-.02-.59-.17-.38-.62-.53-.62-.54-.03 0-.04-.04-.03-.07 0-.03.04-.04.06-.03.02 0 .49.17.68.59.11.24.1.52-.03.82l-.07.17-.03-.18s-.1-.63-.71-.69c-.34-.03-.55.21-.64.43-.09.23-.08.57.2.78.02.02.03.05.01.07s-.05.03-.07.01l.01.02zm-.65 3.12s-2.37 3.38 1.51 6.79l1.22-2.11s-3.07-1.47-2.73-4.68z" class="K"/><path d="M326.6 30.5s-2.43 4.35-5.16 2.51c-3.9-2.62-2.65-5.03-1.55-6.95l2.68-3.64.91-.96c.04.5-.08 1-.35 1.42-.57.92-2.14 3.4-2 3.67.2.38 5.17 3.12 5.47 3.94v.01z" class="C"/><path d="M324.08 28.62s-.03-.04-.02-.06c0-.03.04-.04.07-.03l1.03.35 1.2-2.13s.05-.03.07-.02c.03.01.03.05.02.07l-1.24 2.2-1.11-.37h-.01l-.01-.01z" class="K"/><path d="M313.37 28.94l5.38 12.26 1.76-4.57-3.68-9.39-3.46 1.7z" fill="#a5efed"/><path d="M288.43 84.16s11.84 10.34 21.68 12.96l-19.04 33.19s3.97 4.25 10.56 4.25c0 0 26.04-37.96 26.05-42.39 0-3.18-22.51-18.04-22.51-18.04l-16.74 4.83v5.21-.01z" fill="#3d1f35"/><path d="M246.87 126.19l37.19-62.85 11-.69 10.1 11.48s-4.28 6.14-11.16 12.46-14.88 11.99-23.34 25.01l-13.67 20.64s-6.04-2.42-10.13-6.04l.01-.01z" fill="#49263e"/><path d="M255.41 139.87h-7.04l-4.11-10.85c-.21-.54.15-1.13.73-1.2l3.22-.39s.34 4.58 3.89 5.62l-.6 3.62c1.69.64 2.13.52 3.91 1.46.99.52 0 1.73 0 1.73v.01z" class="Q"/><path d="M306.21 74.89s1.79-10.73 3.37-12.58c1.58-1.86 3.07-3.09 3.07-3.09 2.33 5.13 6.42 12.39 7.67 13.04 2.14 1.12 7.44-2.14 11.62-6.79l8.83-9.58-5.21-6.32-7.34 6.5-3.91 3.45-6.79-26.5c-1.39-4.83-5.11-4.18-5.11-4.18-5.39.93-28.36 34.49-28.36 34.49s5.97 1.8 8 2.7c5.86 2.6 6.27 8.52 14.15 8.86h.01z" class="D"/><g class="R"><path d="M321.19 72.54a2 2 0 0 1-.92-.19c-1.12-.6-3.81-5.46-3.92-5.66-5.74-9.01-6.83-20.45-6.84-20.56l.21-.02c.01.11 1.09 11.51 6.81 20.47.03.06 2.77 5.01 3.84 5.59 1.03.56 3.91-.22 7.79-3.24 3.83-2.98 9.9-10.28 9.96-10.35l.16.13c-.06.07-6.15 7.38-9.99 10.38-3.16 2.46-5.65 3.45-7.1 3.45zm2.33-9.87l-.2-.06.89-3.09-3.88-15.41.2-.05 3.89 15.46-.9 3.15z"/><path d="M335.5 49.53l-11.26 9.94.14.16 11.26-9.94-.14-.16zm-29.69 25.48c-3.02 0-6.19-1.9-9.43-5.64-2.94-3.4-7.93-4.54-7.98-4.55l.05-.21c.05.01 5.11 1.16 8.1 4.62 3.31 3.83 6.53 5.7 9.57 5.57.17-.86 1.64-8.34 2.62-11.11l.2.07c-1.04 2.91-2.62 11.08-2.63 11.16l-.02.08h-.08c-.13.01-.27.02-.4.02v-.01z"/></g><path d="M244.19 128.71l3.92 10.49c.15.4.54.67.97.67h6.08c.17 0 .34.09.42.24.04.07.08.16.1.26.08.33-.13.59-.47.59h-6.77a1.2 1.2 0 0 1-1.13-.8l-3.89-11.26c-.06-.16-.01-.35.13-.45.06-.04.14-.07.23-.06.18.01.33.14.39.31l.02.01z" fill="#fec786"/><path d="M255.22 141.02v-.11c.15 0 .27-.06.35-.16s.1-.23.07-.37c-.02-.08-.05-.17-.1-.25-.07-.13-.22-.21-.37-.21h-6.08a1.1 1.1 0 0 1-1.02-.7l-3.92-10.49c-.06-.16-.19-.27-.34-.27-.08 0-.14.01-.2.05-.12.08-.16.24-.11.39l-.1.03c-.07-.19 0-.4.15-.51.08-.05.17-.07.27-.07.19.01.36.15.44.34l3.92 10.49c.14.38.51.63.92.63h6.08c.2 0 .37.1.46.27.05.09.09.18.11.28.04.17.01.34-.09.46-.1.13-.25.2-.43.2h-.01z" class="R"/><path d="M247.64 128.51l.58-1.03.39.45.28.67.18.35.14.63.16.81-.02.42-.53.3-.2-.49c-.01-.01-.97-2.12-.97-2.12l-.01.01z" class="Q"/><path d="M249.36 130.71l.16.93s.27.63.58.82l.41.24.76.26.71.09.03-.37-2.64-1.96-.01-.01z" class="G"/><g class="R"><path d="M255.66 138.42c-.7-.77-4.15-1.68-4.18-1.69l.03-.1c.14.04 3.51.92 4.23 1.72l-.08.07z"/><path d="M250.42 137.54l-.06-.09 1.09-.79.59-3.55h-.05c-1.07-.15-2.53-.34-2.67-2.18-.21-2.75-1.13-3.43-1.14-3.44l.06-.09s.96.71 1.18 3.52c.14 1.76 1.49 1.94 2.58 2.08l.16.02-.61 3.7-1.13.81v.01z"/></g><path d="M324.38 29.9s-.03 0-.04-.02c-.33-.45-1.94-.73-1.96-.73-.03 0-.05-.03-.04-.06 0-.03.03-.05.06-.04.07.01 1.66.29 2.02.77.02.02.01.06-.01.07 0 0-.02.01-.03.01z" class="K"/><path d="M302.7 212.6H2v33.06h300.7V212.6z" fill="url(#C)"/><path d="M350.44 143.31H248.09v102.35h102.35V143.31z" class="N"/><path d="M224.89 120.11l23.2 23.2v102.34l-23.2-23.19V120.11z" class="P"/><path d="M224.89 120.11h102.35l23.2 23.2H248.09l-23.2-23.2z" class="O"/><path d="M188.01 218.59l-9.25 8.78c-.35-.15-2.87-3.06-2.87-3.06l8.03-8.32 4.09 2.59v.01z" class="F"/><g class="L"><path d="M179.41 228.2s-.03-.1 0-.14.08-.06.12-.04c.08.02 1.96.56 2.4 1.31.09.14.12.31.09.46-.02.19-.15.34-.33.37-.32.07-.82-.31-1.27-.77a9.5 9.5 0 0 1-1.01-1.19zm2.2 1.07c-.54-.42-1.15-.73-1.79-.92.57.75 1.47 1.64 1.85 1.58.05-.01.11-.04.15-.21.02-.1 0-.2-.05-.28-.04-.07-.09-.13-.15-.18l-.01.01z"/><path d="M179.4 228.11s.02-.08.05-.1c.04-.03 1.01-.89 1.8-.81.23.03.44.16.58.35.21.25.15.44.09.55-.3.47-1.85.38-2.45.14-.01 0-.04-.03-.04-.03l-.04-.11.01.01zm1.83-.66a2.5 2.5 0 0 0-1.47.62c.68.17 1.83.16 1.99-.13.01-.03.06-.09-.07-.26l-.06-.04c-.1-.11-.24-.18-.38-.2l-.01.01z"/></g><path d="M179.47 226.99l-2.91-3.22c-.14-.15-.36-.18-.52-.08l-3.39 1.98c-.33.22-.13 1.11-.1 1.15 1.79 2.4 5.63 6.84 7.07 8.38s3.03.32 2.56-.44c-2.07-3.4-2.28-5.26-2.38-6.92 0-.31-.13-.62-.34-.85h.01z" class="B"/><g class="H C"><path d="M180.63 219.32l3.29-3.32 4.09 2.59-4.1 3.82-3.28-3.09z"/></g><use href="#H" class="B"/><g class="H C"><use href="#H"/></g><use href="#I" class="B"/><use href="#I" opacity=".6" fill="#fff"/><path d="M199.13 165.29l1.49.63-10.72 17.83s-5.78 2.3-8.52-3.68c-4.92-10.75 2.98-20.75 2.98-20.75s9.39 3.5 14.78 5.97h-.01z" class="B"/><path d="M155.12 220.14l-10.81 6.76c-.31-.21-2.2-3.57-2.2-3.57l9.53-6.54 3.49 3.36-.01-.01z" class="F"/><g class="L"><path d="M144.77 227.83s0-.1.03-.14c.04-.03.09-.04.13-.02.07.04 1.81.94 2.09 1.76.06.15.06.32 0 .47-.06.18-.22.3-.4.3-.33 0-.74-.47-1.09-1.01-.29-.43-.54-.89-.75-1.37l-.01.01zm1.95 1.49a5.3 5.3 0 0 0-1.57-1.26c.41.85 1.11 1.9 1.49 1.92.05 0 .12-.02.19-.17.04-.09.04-.19 0-.28-.03-.07-.07-.14-.11-.21z"/><path d="M144.78 227.75s.03-.08.07-.09c.05-.02 1.17-.67 1.93-.43a.9.9 0 0 1 .5.46c.15.29.06.46-.02.56-.39.4-1.88 0-2.43-.35l-.04-.04v-.11h-.01zm1.93-.28a2.5 2.5 0 0 0-1.56.31c.63.31 1.76.53 1.97.27.02-.02.08-.08-.02-.27l-.05-.05c-.08-.13-.2-.23-.33-.27l-.01.01z"/></g><path d="M145.07 226.67l-2.2-3.74c-.11-.18-.31-.25-.5-.18l-3.72 1.26c-.36.15-.35 1.07-.32 1.1a139.6 139.6 0 0 0 5.25 9.63c1.1 1.8 2.9.91 2.6.08-1.35-3.75-1.19-5.61-.95-7.25.06-.31 0-.63-.16-.9z" class="B"/><g class="H C"><path d="M147.75 219.38l3.88-2.6 3.49 3.36-4.78 2.92-2.59-3.68z"/></g><g class="B"><path d="M181.52 170.51a11.7 11.7 0 0 0-1.03 2.51c-1.4 4.6-13.45 28.98-14.49 29.51-5.78 2.97-16.45 14.91-16.45 14.91.63 2.01 3.22 5.14 3.22 5.14l19.62-13.13c8.38-5.83 24.96-35.78 23.57-38.63-.78-1.6-10.45-8.2-14.44-.31z"/><use href="#J"/></g><use href="#J" opacity=".6" fill="#fff"/><g class="F"><path d="M235.29 143.77c.05-.55 1.86-3.11 2.24-2.97s1.29 1.68 1.24 1.93c-.09.45-1.29 3.86-3.51 3.84-.85 0 .02-2.8.02-2.8h.01z"/><path d="M237.54 140.81s1.38-.83 1.89-.65 1.24 1 1.24 1l-1.89 1.57-1.24-1.93v.01zm-4.38 3.15l2.13-.19-.02 2.81-4.1-.04 1.99-2.58z"/></g><use href="#K" class="L"/><use href="#K" class="D"/><path d="M216.95 147.56l-8.71-1.13-.26-3.29c1.58 1.61 2.39 2.63 8.98 4.43l-.01-.01z" class="C H"/><path d="M193.7 133.8s1.62-2.13 4.25-1.39l.04.02 3.86 1.68c2.53 1.24 7.9 5.05 8.6 5.69 1.01.87 1.28 2.36 1 3.66-.95 4.16-4.89 14.2-12.07 24.54l-15.01-8.68s4.93-3.94 9.34-25.52h-.01z" class="D"/><path d="M209.2 134.02l-.5.7-.22.33-.51.81c-.27.46-.33.72-.05 1.18.53.88.73 1.96.39 2.94-.33.95-1.04 1.76-2.55 1.17-3.23-1.48-4.03-5.1-4.03-5.1 2.45-.86 3.98-5.63 4.6-8.36l1.22 2.68 1.66 3.65h-.01z" class="F"/><path d="M208.7 134.72l-.22.33-.51.81c-.9-.75-1.69-2.44-1.33-3.54.11-.37.27-.73.47-1.07l1.6 3.47h-.01z" class="C H"/><path d="M209.46 121.55a4.9 4.9 0 0 1 6.78 1.27c2.3 3.19-.02 8.2-2.36 10.64-.66.72-1.53 1.22-2.48 1.43a4.8 4.8 0 0 1-5.75-3.64c-.63-2.63.51-4.48 2.18-7.79a4.8 4.8 0 0 1 1.64-1.91h-.01z" class="F"/><path d="M212.79 133.58s-1.1-.24-3.84-1.67c.77-.82 1.59-.83 2.99-.08s.85 1.75.85 1.75z" class="B"/><g fill="#fafafa"><path d="M212.65 133.54c.06-.26-.02-.53-.21-.72a13.6 13.6 0 0 0-2.54-1.01c-.29-.11-.61-.05-.84.16a20.9 20.9 0 0 0 3.59 1.57z"/><path d="M212.34 132.86a8 8 0 0 1-2.32-.9c-.18-.15-.31-.35-.39-.57.59-.27 1.31-.11 2.31.42.39.18.7.49.89.87-.15.08-.32.14-.48.18h-.01z"/></g><path d="M213.21 131.58c.4.3.91.42 1.4.31-.27-.96-.4-1.96-.4-2.96l-1 2.65z" fill="#ff5551"/><g class="B"><path d="M208.08 119.44l-2.85.67c-.54.13-1.09.26-1.57.53-.48.28-.89.72-.99 1.27-.14.78.4 1.56 1.1 1.94-.44.46-.72.96-.69 1.6a2.4 2.4 0 0 0 .83 1.68c-.2.46-.13.88.07 1.35.2.46 1.47.89 1.41 2.41.41-1.02.83-2.12 1.44-3.04.6-.92 2-3.22 3.93-2.74.42.11 2.53-3.37 1.34-3.83-.72-.28-3.7-1.92-4.01-1.84h-.01z"/><path d="M217.16 125.27a15.3 15.3 0 0 0-.51-4.16c-.17-.54-.39-1.08-.79-1.48s-1.03-.68-1.57-.5c-.27-.45-.56-.9-.96-1.25-.39-.35-.9-.6-1.43-.57-.53.02-1.05.24-1.21.75-.75-.13-1.52-.25-2.28-.17s-1.52.36-2.04.93c-.52.56-.74 1.42-.43 2.12 1-.7 2.38-1.04 3.54-.7 1.17.34 2.16 1.88 2.63 3 1.35-.25 2.71.4 3.36 1.61.28-.16.72-.27 1.01-.11.28.15.65.23.66.55l.02-.02z"/></g><path d="M207.27 124.67c.84.21 1.03 1.08.9 2.15-.19 1.35-1.1 2.29-1.96 1.75-.63-.34-.82-1.47-.73-2.27.11-1.01.9-1.86 1.79-1.63z" class="F"/><path d="M212.76 127.46c.17.11.16.43.02.66s-.4.36-.56.26-.16-.39-.03-.66c.15-.26.4-.37.57-.26zm3.09 1.29c.17.1.19.39.04.66-.15.26-.4.4-.57.3s-.19-.4-.04-.66c.14-.26.4-.39.57-.29v-.01zm.07-1.47c.05.02.09.07.11.13.06.45.33.85.72 1.09.09.04.13.14.09.23s-.15.12-.23.08c-.5-.28-.84-.78-.92-1.34-.01-.1.05-.19.15-.2.03 0 .06 0 .09.02l-.01-.01zm-3.65-.95s.11-.04.17-.02c.41.2.89.21 1.3.01.08-.05.19-.03.24.05s.02.19-.06.24a1.8 1.8 0 0 1-1.63 0c-.09-.04-.13-.15-.09-.24.02-.03.04-.05.06-.07l.01.03z" class="B"/><g class="F"><path d="M231.19 142.71c.03-.56 1.78-3.24 2.17-3.11a4.4 4.4 0 0 1 1.34 1.91c-.07.46-1.17 3.98-3.42 4.05-.87.03-.08-2.85-.08-2.85h-.01z"/><path d="M233.36 139.6s1.37-.9 1.89-.73a4.6 4.6 0 0 1 1.3.97l-1.86 1.67-1.34-1.91h.01zm-4.34 3.39l2.17-.27.09 2.86-4.18.12 1.92-2.71z"/></g><use href="#L" class="L"/><use href="#L" class="D"/><path d="M454.66 287.6H0v33.06h454.66V287.6z" fill="url(#D)"/><path d="M554.44 218.31H452.09v102.35h102.35V218.31z" class="N"/><path d="M428.89 195.11l23.2 23.2v102.34l-23.2-23.19V195.11z" class="P"/><path d="M428.89 195.11h102.35l23.2 23.2H452.09l-23.2-23.2z" class="O"/><path d="M438.23 240.67c-2.13.71-1.97 8.01-3.52 7.9l-7.6-.55-11.15-8.97-3.47 4.78s8.26 8.06 12.23 8.35 10.31 1.44 10.31 1.44c2.34 1.21 4.27-1.43 4.39-3.15.13-1.73-.38-1.94-.38-1.94s1.32-8.58-.82-7.87l.01.01z" fill="#dfb278"/><path d="M427.44 246.92c-1.3-.35-8.57-4.59-9.52-5.19-.95-.61-4.21 1.62-4.27 5.14 0 0 6.52 5.25 9.46 5.77s9.95 1.38 10.47 1.3c.52-.09 2.32-4.06 1.12-5.36s-5.96-1.3-7.26-1.65v-.01z" class="D"/><path d="M322.89 309.16l-5.86-.6-8.1-.76s-.45 1.35 1.91 2.39c2.35 1.04 9.91 2.11 11.73 1.02 1.81-1.08.32-2.06.32-2.06v.01z" fill="gray"/><path d="M315.6 299.6s-6.73 6.63-6.67 8.19c.06 1.57 10.22 2.65 12.83 2.49s1.73-2.3 1.73-2.3-2.65-1.76-2.56-2.96c.09-1.21 3.16-5.32 3.16-5.32l-8.5-.1h.01z" class="S"/><path d="M369.59 311.16l-5.44.82s-1.19 2 1.05 2.33c2.23.34 5.71.24 6.78-.2s2.47-.52 5.84.77c3.38 1.29 6.86-1.24 6.86-1.24l-.42-1.42-14.67-1.07v.01z" fill="gray"/><path d="M377.5 309.83c-2.69-1.24-1.28-3.91-1.28-3.91l-7.54-1.24s-4.61 6.09-4.52 7.31 5.09 1.58 7.03 1.2 7.44.37 10.37.58 3.38-1.14 3.38-1.14l-.41-1.59s-4.34.03-7.03-1.2v-.01z" class="S"/><path d="M362.25 247.47s-13.85 13.92-21.19 24.14c-7.34 10.23-24.45 25.99-26.64 27.56-2.2 1.58 4.5 2.58 7.63 2.46s26.78-22.35 29.28-23.21c2.49-.86 16.11-11.5 16.11-11.5s18.96 16.13 20.17 16.21c1.21.09-21.44 20.48-20.41 22.98s8.74 1.5 9.62 1.39 23.83-22.21 25.11-25.59c1.29-3.38-14.45-20.83-14.29-23.08l-25.37-11.39-.02.03z" fill="#7a7a7a"/><g class="S"><path d="M345.52 277.14s-.46 1.53-.39 2.92-1.72 2.13-2.75 2.06c-1.04-.08.62 1.09 1.33.79a614 614 0 0 1-20.6 16.03c-1.35.87-3.45 1.97-5.02 2.45 1.4.2 2.89.29 3.96.25 3.13-.12 26.78-22.35 29.28-23.21 2.49-.86 16.11-11.5 16.11-11.5s.16.14.45.38l.49-1.36-21.31 13.9c-.9.45-1.54-2.72-1.54-2.72l-.01.01z"/><path d="M395.56 280.95c-5.29 1.18-9.22.37-9.05-2.05.18-2.42 6.56-9.07 3.88-8.05s-6.68 8.37-6.06 4.59c.37-2.22 4.99-6.05 8.02-9.26-2.65-3.54-4.8-6.49-4.74-7.33l-25.22-11.32c-.13.64-.15 1.51-.19 2.7-.13 4.15 11.16 11.22 8.96 12.8-1.32.95-2.82 2.69-3.81 3.94.01-.01.06-.04.06-.04s18.96 16.13 20.17 16.21c.75.05-7.61 7.85-13.86 14.4 5.62-4.33 12.98-11.51 14.34-11.41 1.73.13 3.19 1.45 2.91.56s-4.58-3.8.13-4.15 9.74-2.76 4.45-1.58l.01-.01zm30.5-60.69l-.28.12c1.15.22.63-.26.28-.12z"/><path d="M417.32 215.07c-4.07-1.38-6.32-2.34-9.17-1.38-2.86.95-5.45 4.24-5.54 8.57a105 105 0 0 0 .09 7.44l3.29.78 14.11-7.18s-.61 0 1.12-.09 3.37-.95 3.72-1.12-.95-.87-.95-.87 1.17-.56 1.8-.83c-.27-.05-.63-.14-1.11-.29-2.51-.78-3.29-3.63-7.36-5.02v-.01z"/></g><path d="M412.02 233.56l-9.53-5.03c-2.34-1.21-8.65-2.91-11.42-.51-2.78 2.4-3.37 4.78-5.47 4.98-2.1.19-6.34.84-6.61 2.21s.63 2.42-2.7 2.87-11.8 7.12-14.87 8.81c-3.07 1.68 15.62 14.32 18.8 15.94s3.8-2.15 3.8-2.15 2.18 3.45 4.56 1.72c2.38-1.74 12.33-7.26 15.81-12.21s6.71-4.02 9.26-3.32c0 0 4.74-5.55 4.53-7.48-.21-1.92-6.17-5.83-6.17-5.83h.01z" class="D"/><path d="M401.18 227.56c-.84-.41-6.12-4.09-9.64-1.05s.53 9.41 4.54 11.61l4 2.2 3.25-8.96s-1.31-3.39-2.15-3.8z" fill="#00230f"/><path d="M412.02 233.56l-3.77 8.92-9.98-3.5s4.16 4.81 6.7 5.69-.98 1.49-1.25 2.86-4.76-1.39-4.76-1.39 1.54 2.71 2.4 2.78c.86.06-11.04 11-12.65 11.75-1.62.75-3.71-1.48-5.29-3.68s-8.2-8.93-8.2-8.93 6.2 7.74 7.12 9.54c.91 1.8.24 3.83-2.34 3.47-1.31-.18-3.84-1.21-6.07-2.25 2.84 1.95 5.3 3.51 6.29 4 3.18 1.62 3.8-2.15 3.8-2.15s2.18 3.45 4.56 1.72c2.38-1.74 12.33-7.26 15.81-12.21s6.71-4.02 9.26-3.32c0 0 4.74-5.55 4.53-7.48-.21-1.92-6.17-5.83-6.17-5.83l.01.01z" class="D"/><g fill="#fdcd89"><path d="M442.06 230.88c-.74.64-1.72 4.56-1.72 4.56s-.93.8-1.15 1.48l-1.41 5.1s-6.05-2.69-8.95-3.43c-2.9-.73-12.22-1.41-12.22-1.41l-15.91-5.49c-2.91-.56-4.77 5.9-3.79 6.84.97.94 12.1 5.39 16.94 5.74l24.86 1.81s.28.89 1.74-.05c1.46-.93 2.25-4.69 2.97-9.85.72-5.15-.61-5.95-1.35-5.3h-.01zm-27.11-11.34c.18.08.42.02.68-.08-.07-.26-1.08-.08-.68.08z"/><path d="M420.3 222.36c-.44-1.07-2.54-3.31-3.23-3.36-.44-.03-.98.28-1.44.46.02.07-.03.16-.18.29-.74.64-4.36 2.63-4.36 2.63l-1.19 2-.88.11s.47-4.13-1.25-4.25c-1.73-.13-2.54 3.98-1.21 4.77s-.25 3.45-.25 3.45-2.03-.67-2.48.69c0 0 3.67 4.43 5.94 4.25s3.37-.97 3.37-.97a26.3 26.3 0 0 0 3.75.97c1.04.07 1.95-2.98 1.95-2.98s1.9.14 1.96-.72-.81-3.18-.75-4.05c.06-.86.68-2.21.24-3.28l.01-.01z"/></g><path d="M409.79 228.74c-1.3-1.3-.17 1.73-1.04 1.82-.69.07-2.05.2-2.78.79 1.2 1.08 2.68 2.13 3.81 2.04 2.27-.18 3.37-.97 3.37-.97a26.3 26.3 0 0 0 3.75.97c.27.02.54-.19.78-.49-.33-.04-.7-.1-1.13-.26-2.42-.87-5.45-2.6-6.75-3.89l-.01-.01zm10.82.44c-1.04-.17-1.82.43-1.82.43a8.6 8.6 0 0 0 .07.8c.07 0 1.89.12 1.95-.72 0-.12 0-.28-.03-.45l-.17-.06z" fill="#daa870"/><path d="M371.09 304.85s.59 1.43 2.34 1.21c1.42-.18-.9.86-1.58 1.73 2.23.07 4.5-.22 4.95-.27.82-.1 20.85-19.35 24.57-24.67l-26.1 21.78c-1.84 1.43-4.18.22-4.18.22z" fill="#4a4a4a"/><path d="M412.9 235.32c-4.33-.87-9.69-4.93-9.69-4.93-3.12-.43-5.8 2.77-6.06 3.37-.26.61-1.9 3.98-.61 4.93 1.3.95 14.02 5.37 14.02 5.37s19.82 5.02 21.03 3.89c1.21-1.12 2.51-7.87 2.51-7.87s-1.9-1.04-5.11-2.16c-3.2-1.12-11.77-1.73-16.1-2.6h.01z" fill="#00230f"/><path d="M430.99 241.47l-1.9 3.37a19.3 19.3 0 0 1-.17-3.46c.09-.26-1.47 1.82-2.08 2.34s-4.93.78-9.35-1.47c-4.41-2.25-3.55-4.67-5.19-4.24s-.95 2.42-.43 3.03-9.86-3.89-13.5-5.37c-3.63-1.47.09-1.99.43-2.77.35-.78-2.94-.26-3.63 1.3s-1.47.09-2.34-1.73-2.34-1.64-1.73 1.21 8.22 4.33 8.22 4.33 14.36 5.8 20.34 7.01l10.73 2.08c.69 0 2.34-5.37 2.34-5.37s-1.56 1.9-2.16 2.94c-.61 1.04.43-3.2.43-3.2h-.01z" class="D"/><defs><linearGradient id="A" x1="492" y1="172.53" x2="751.91" y2="172.53" href="#M"><stop stop-color="#fff"/><stop offset=".52" stop-color="#e6f6ff"/><stop offset="1" stop-color="#c7eaff"/></linearGradient><linearGradient id="B" x1="2" y1="121.12" x2="302.7" y2="121.12" href="#M"><stop stop-color="#fff" stop-opacity="0"/><stop offset="1" stop-color="#eef7ff"/></linearGradient><linearGradient id="C" x1="2" y1="229.12" x2="246.36" y2="229.12" href="#M"><stop stop-color="#fff" stop-opacity="0"/><stop offset=".52" stop-color="#f0f9ff"/><stop offset="1" stop-color="#d0ebff"/></linearGradient><linearGradient id="D" x1="0" y1="304.12" x2="454.66" y2="304.12" href="#M"><stop stop-color="#fff" stop-opacity="0"/><stop offset=".43" stop-color="#f3faff"/><stop offset=".48" stop-color="#eff8ff"/><stop offset=".8" stop-color="#d7edff"/><stop offset="1" stop-color="#cfeaff"/></linearGradient><path id="E" d="M613.46 15.42c.14-.22.08-.51-.13-.65-.22-.14-.51-.08-.65.13-.14.22-.08.51.13.65.22.14.51.08.65-.13z"/><path id="F" d="M603.93 86.74c.64 0 1.16-.52 1.16-1.16s-.52-1.16-1.16-1.16-1.16.52-1.16 1.16.52 1.16 1.16 1.16z"/><path id="G" d="M607.37 41.37c.05.47-.29.88-.76.93s-.88-.29-.93-.76.29-.88.76-.93.88.29.93.76z"/><path id="H" d="M184.29 173.87c-.08 1.17-.1 1.54.02 2.71.49 4.79 12.1 25.43 11.12 26.07-3.77 2.47-7.81 6.81-12.88 14.68 1.36 1.61 2.52 2.69 3.9 4.64 0 0 14.67-11.23 18.15-16.02 2.15-2.95-5.75-35.85-8.13-37.94-1.34-1.17-11.57-2.97-12.19 5.85l.01.01z"/><path id="I" d="M188.51 220.84l-2.47 1.97-4.96-5.67 2.03-2.09 5.41 5.8-.01-.01z"/><path id="J" d="M155.11 222l-2.66 1.7-4.35-6.16 2.23-1.87 4.77 6.33h.01z"/><path id="K" d="M234.65 143.6v3.69l-13.58.65c-.51-.08-11.89-1.38-12.84-1.51l-.61-7.6a299.8 299.8 0 0 0 13.42 3.96c1.49.03 12.93.94 13.61.81z"/><path id="L" d="M198.99 132.81c-5-2.46-7.37 3.25-4.68 6.36 1.05 1.21 8.98 5.27 16.54 6.44 6.32.97 17.04 1.01 19.04.93l-.13-4.33-18.39-1.97-12.39-7.42.01-.01z"/><linearGradient id="M" gradientUnits="userSpaceOnUse"/></defs></svg>