<svg xmlns="http://www.w3.org/2000/svg" width="600" height="600" fill="none" xmlns:v="https://vecta.io/nano"><style><![CDATA[.B{fill:#fff}.C{opacity:.69}.D{stroke:#0668e1}.E{stroke-width:.898}.F{fill:#0668e1}.G{fill:#353148}.H{fill:#d9d9d9}.I{fill:#ffbc96}.J{fill:#1b1b43}.K{fill:#78b5ff}.L{fill:#ebebff}.M{fill:#d28572}.N{stroke-linecap:round}]]></style><g clip-path="url(#A)"><path d="M300.903 367.751c65.417 0 118.449-12.547 118.449-28.024s-53.032-28.024-118.449-28.024-118.45 12.547-118.45 28.024 53.032 28.024 118.45 28.024z" fill="#003271"/><path d="M301.452 299.199c37.203 0 70.864 6.427 95.206 16.8 12.172 5.187 21.993 11.352 28.765 18.175 6.736 6.787 10.432 14.202 10.469 21.945a1.15 1.15 0 0 1-.2.08c-.291.09-.748.165-1.371.22-1.236.11-3.02.133-5.183.097-4.322-.073-10.096-.382-15.907-.696l-16.082-.714c-2.216-.042-4.096-.026-5.452.08-.442.034-.837.08-1.175.137 1.552-2.97 2.101-5.735 1.758-8.302-.386-2.893-1.895-5.474-4.247-7.764-4.686-4.564-12.802-8.054-22.499-10.689-19.42-5.277-45.476-7.198-64.082-7.198-18.625 0-46.91 3.549-66.616 9.861-4.929 1.579-9.334 3.335-12.921 5.257-3.581 1.919-6.381 4.022-8.066 6.312-1.699 2.308-2.269 4.819-1.342 7.476.772 2.214 2.569 4.478 5.497 6.797l-.379-.034c-1.503-.125-3.62-.207-6.136-.26-5.034-.106-11.708-.099-18.36-.093s-13.292.009-18.264-.103c-2.487-.056-4.548-.14-5.983-.267-.721-.063-1.267-.137-1.625-.217-.105-.024-.184-.047-.242-.067.063-7.711 3.755-15.096 10.466-21.858 6.772-6.823 16.594-12.988 28.766-18.175 24.342-10.373 58.002-16.8 95.205-16.8z" class="B D E"/><g class="K"><path d="M437.789 346.585c0 3.412-18.185 5.147-19.289 8.415-1-31-47.469-56.247-118.51-56.247S179 328 191.5 353.5c-.44-2.065-27.289-4.796-27.289-6.915 0-35.405 61.236-64.12 136.784-64.12s136.794 28.715 136.794 64.12zm-3.712-16.698c.538-2.254.808-4.543.808-6.86 0-34.381-60.222-62.244-134.495-62.244s-134.495 27.872-134.495 62.244a29.33 29.33 0 0 0 .458 5.172c-4.839-6.268-7.47-12.993-7.47-19.979 0-34.381 63.588-62.243 142.019-62.243s142.019 27.871 142.019 62.243c0 7.615-3.125 14.915-8.844 21.658v.009z"/></g><g class="B D E"><path d="M300.897 260.949c37.198 0 70.855 7.109 95.195 18.584 24.375 11.492 39.256 27.279 39.256 44.567 0 3.033-.458 6.019-1.347 8.941-6.29-14.458-22.822-27.068-45.707-36.127-23.501-9.303-53.791-14.9-86.84-14.9s-63.802 5.787-87.603 15.372c-23.179 9.334-39.862 22.314-45.55 37.154-1.212-3.402-1.844-6.89-1.844-10.44 0-17.288 14.877-33.075 39.25-44.567 24.338-11.475 57.993-18.584 95.19-18.584z"/><path d="M300.896 228.812c42.282 0 80.54 7.847 108.21 20.514 27.71 12.686 44.638 30.12 44.638 49.219 0 15.516-11.167 29.925-30.239 41.601-.088.051-.1.063-.157.091l-.017.009-.017.01c-5.332 3.253-11.271 6.285-17.74 9.064 3.239-1.519 6.305-3.109 9.182-4.763l.001.001c.031-.018.105-.06.171-.101l.001.001c17.769-10.271 28.436-23.095 28.436-37.114 0-8.625-4.046-16.804-11.288-24.202s-17.695-14.037-30.578-19.603c-25.768-11.133-61.337-18.008-100.603-18.008s-74.833 6.875-100.601 18.008c-12.883 5.566-23.338 12.206-30.578 19.603s-11.288 15.577-11.288 24.202c0 15.785 13.53 30.065 35.517 40.887l2.182 1.05a153.66 153.66 0 0 1-9.752-4.594c-23.951-12.366-38.317-28.549-38.317-46.142 0-19.099 16.925-36.533 44.632-49.219 27.668-12.667 65.924-20.513 108.205-20.514z"/></g><g class="K"><path d="M300.741 105.293c-146.643 0-265.514 58.85-265.514 131.446s118.871 131.455 265.514 131.455 265.515-58.849 265.515-131.455-118.872-131.446-265.515-131.446zm-.045 262.749c-140.914 0-255.153-55.842-255.153-124.721S159.782 118.6 300.696 118.6s255.153 55.842 255.153 124.721-114.238 124.721-255.153 124.721z"/><path d="M494.634 269.844c0 23.525-16.27 45.12-43.404 62.046 23.327-15.112 37.137-33.87 37.137-54.198 0-50.032-83.683-90.582-186.914-90.582S114.54 227.66 114.54 277.692s79.777 88.669 179.632 90.528c-104.182-1.715-187.578-45.103-187.578-98.376s86.861-98.43 194.015-98.43 194.025 44.07 194.025 98.43z"/></g><path d="M301.46 187.496c51.562 0 98.221 10.128 131.973 26.483 33.782 16.371 54.492 38.903 54.492 63.65 0 20.108-13.662 38.747-36.932 53.821l-.025.018c-.052.038-.106.073-.173.11l-.014.008-.011.008c-23.564 15.21-56.829 26.709-95.369 32.337 29.704-5.311 55.355-14.862 73.997-27.201a1.07 1.07 0 0 0 .22-.146c20.014-13.299 31.972-29.871 31.972-47.911 0-22.217-18.111-42.206-47.111-56.613-29.028-14.422-69.098-23.328-113.333-23.329s-84.306 9.17-113.334 23.723c-28.996 14.537-47.11 34.525-47.11 56.219 0 21.686 17.266 41.255 45.07 55.578 16.843 8.676 37.599 15.453 60.847 19.635-30.605-4.455-57.85-12.549-79.502-23.33-32.377-16.122-52.121-38.173-52.121-62.927 0-24.747 20.71-47.279 54.492-63.65 33.751-16.355 80.41-26.483 131.972-26.483z" class="B D E"/><path d="M461.183 288.699c0 14.609-7.929 28.294-21.756 40.056 9.805-9.212 15.309-19.547 15.309-30.466 0-38.628-68.76-69.93-153.566-69.93s-153.575 31.302-153.575 69.93c0 10.865 5.441 21.155 15.157 30.323-13.738-11.727-21.604-25.357-21.604-39.913 0-43.926 71.643-79.519 160.022-79.519s160.013 35.593 160.013 79.519z" class="K"/><g class="B D E"><path d="M300 86.563c80.027 0 152.454 16.605 204.857 43.429 52.428 26.837 84.694 63.831 84.694 104.565s-32.268 77.728-84.697 104.565c-52.404 26.825-124.832 43.43-204.854 43.43s-152.45-16.603-204.854-43.427c-52.429-26.836-84.696-63.83-84.696-104.568s32.268-77.732 84.696-104.568C147.55 103.166 219.978 86.563 300 86.563zm.736 18.281c-73.375 0-139.825 14.711-187.947 38.514-48.094 23.79-78.016 56.738-78.017 93.264s29.922 69.473 78.017 93.26c48.122 23.801 114.572 38.51 187.947 38.51s139.825-14.707 187.948-38.507c48.094-23.786 78.016-56.732 78.016-93.263s-29.922-69.479-78.016-93.268c-48.123-23.802-114.572-38.51-187.948-38.51zm-.044 14.199c70.404 0 134.122 13.935 180.222 36.444 46.13 22.525 74.481 53.556 74.482 87.693 0 30.994-23.365 59.428-62.208 81.264-27.996 15.74-63.979 28.014-104.881 35.321 34.432-7.093 64.736-18.243 88.569-32.282 34.675-20.425 55.75-47.025 55.75-76.204 0-32.477-26.102-61.762-68.031-82.901-41.955-21.152-99.882-34.224-163.84-34.224s-121.888 13.072-163.845 34.224c-41.931 21.139-68.035 50.424-68.035 82.901 0 29.328 21.287 56.05 56.275 76.514 23.97 14.019 54.415 25.129 88.982 32.157-41.062-7.236-77.214-19.472-105.371-35.194-39.18-21.877-62.773-50.435-62.773-81.576 0-34.137 28.351-65.168 74.482-87.693 46.1-22.509 109.818-36.444 180.222-36.444z"/></g><path d="M338.354 366.406c-12.23 1.015-24.791 1.536-37.595 1.536a448.96 448.96 0 0 1-36.454-1.446c11.888.835 24.036 1.266 36.391 1.266s25.365-.458 37.658-1.356z" fill="#c20e1a"/><path d="M532.181 251.528c0 60.071-89.996 109.528-205.698 115.975 111.069-6.231 197.329-52.348 197.329-108.316 0-60.214-99.872-109.025-223.062-109.025S77.696 198.973 77.696 259.187c0 55.833 85.821 101.851 196.485 108.271-115.298-6.644-204.853-56.012-204.853-115.93 0-64.443 103.616-116.684 231.422-116.684s231.431 52.241 231.431 116.684z" class="K"/><g class="D"><path d="M300.46 150.609c61.546 0 117.241 12.195 157.533 31.891 40.322 19.71 65.08 46.854 65.08 76.694s-24.76 56.982-65.083 76.69c-25.708 12.565-57.687 22.075-93.454 27.314 27.939-4.935 52.981-13.014 73.478-23.41 35.161-17.833 57.072-42.551 57.072-69.98s-21.913-52.145-57.075-69.976c-35.187-17.844-83.766-28.867-137.399-28.867s-102.208 11.021-137.393 28.864c-35.16 17.83-57.071 42.545-57.072 69.979s21.912 52.151 57.072 69.983c20.833 10.566 46.362 18.74 74.855 23.65-36.448-5.185-69.029-14.794-95.14-27.557-40.321-19.708-65.078-46.85-65.078-76.69s24.757-56.984 65.078-76.694c40.29-19.696 95.984-31.891 157.526-31.891z" class="B E"/><g class="N"><path d="M522 271.499s-8.546-1.544-14-1c-5.232.521-13 3.5-13 3.5m-61.707-60.148s-7.164 4.067-10.746 7.828c-3.436 3.607-7.111 10.642-7.111 10.642m-272.435-1.997s7.361 4.234 11.068 8.101c3.556 3.709 7.409 10.896 7.409 10.896M563.4 173.63s-7.104.589-11.185 2.425c-3.914 1.761-9.073 6.481-9.073 6.481M14.737 210.069s7.644.756 12.07 2.699c4.245 1.864 9.895 6.736 9.895 6.736M107 273.116s-8.546-1.544-14-1c-5.232.522-13 3.5-13 3.5m77-99.116s6.179 4.759 8.5 9c2.228 4.071 3 11.5 3 11.5"/></g></g></g><path d="M37.274 275.99l96.078.275c.93.003 1.843.539 2.552 1.547.664.942 1.109 2.254 1.161 3.738l.005.3-.097 117.704c-.002 1.605-.464 3.027-1.172 4.028s-1.623 1.533-2.553 1.53l-96.077-.272c-.931-.003-1.845-.539-2.554-1.547s-1.167-2.431-1.166-4.037l.088-105.8.009-11.905c.001-1.607.464-3.029 1.173-4.03s1.624-1.534 2.554-1.531z" stroke-width="1.433" class="B D"/><path d="M32.734 296.692l.016-15.993c.003-3.003 1.995-5.432 4.448-5.426l96.152.238c2.453.007 4.44 2.444 4.437 5.447l-.014 15.297" class="F"/><g class="G"><path d="M126.116 311.048l-46.468-.096c-.406-.002-.734-.437-.734-.974s.331-.97.735-.97h.002l46.466.095c.406.002.734.438.734.974s-.33.971-.735.971z" class="C"/><use href="#B" class="C"/><use href="#B" y="6.121" class="C"/><path d="M121.573 363.192l-78.105-.095c-.682-.002-1.233-.438-1.233-.974s.556-.971 1.236-.971h.002l78.104.096c.682.002 1.233.437 1.233.974s-.554.97-1.236.97zm7.433 29.582l-85.423-.098c-.746-.002-1.349-.45-1.349-1.002s.608-.998 1.351-.998h.003l85.42.098c.746.002 1.349.45 1.349 1.002s-.605.998-1.351.998z" class="C"/><use href="#C" class="C"/><use href="#C" y="16.781" class="C"/><path d="M93.461 319.208l-13.797-.036c-.415-.002-.751-.451-.749-1.004s.338-1 .751-1h.002l13.797.036c.415.002.751.451.749 1.004s-.338 1-.752 1zm34.705 0l-29.156-.038c-.398-.002-.721-.449-.721-1.003s.323-.999.721-.999l29.156.038c.398.002.721.448.721 1.003s-.322.999-.721.999zm-14.586 16.17l-33.814-.038c-.462 0-.837-.47-.837-1.049s.375-1.049.837-1.049l33.814.038c.461 0 .836.47.836 1.051s-.375 1.047-.836 1.047zm0-8.398l-33.814-.038c-.462 0-.837-.47-.837-1.049s.375-1.049.837-1.049l33.814.037c.461 0 .836.47.836 1.052s-.375 1.047-.836 1.047z" class="C"/></g><path d="M47.247 283.226c.112 0 .21.032.294.095s.143.146.178.251l2.193 6.893h-1.343l-1.658-5.581-.084-.336-.073-.325h-.294l-.073.325-.095.336-1.647 5.581h-1.343l2.192-6.893a.45.45 0 0 1 .168-.251.52.52 0 0 1 .304-.095h1.28zm1.217 4.144v1.028H44.74v-1.028h3.724zm5.41-2.182c.643 0 1.102.234 1.374.703.28.468.42 1.147.42 2.035 0 .678-.073 1.214-.22 1.605-.14.385-.353.661-.64.829-.287.161-.651.241-1.091.241a3.65 3.65 0 0 1-1.028-.147c-.329-.105-.633-.265-.913-.482l.084-.63.734.2a2.85 2.85 0 0 0 .713.084c.259 0 .462-.042.608-.126.154-.091.266-.259.336-.504s.105-.598.105-1.059c0-.455-.032-.808-.094-1.06s-.168-.427-.315-.525c-.14-.104-.325-.157-.556-.157-.252 0-.49.056-.713.168-.224.105-.483.262-.776.472l-.147-.671a2.69 2.69 0 0 1 .577-.504 3.14 3.14 0 0 1 .745-.346c.266-.084.532-.126.797-.126zm-2.172.126l.126.996.115.147v3.326l-.052.126.042.608.011.64v1.354h-1.269v-7.197h1.028zm8.38-.126c.644 0 1.102.234 1.374.703.28.468.42 1.147.42 2.035 0 .678-.074 1.214-.22 1.605-.14.385-.353.661-.64.829-.287.161-.65.241-1.091.241a3.65 3.65 0 0 1-1.028-.147c-.329-.105-.633-.265-.913-.482l.084-.63.734.2a2.85 2.85 0 0 0 .713.084c.259 0 .462-.042.608-.126.154-.091.266-.259.336-.504s.105-.598.105-1.059c0-.455-.032-.808-.094-1.06s-.168-.427-.315-.525c-.14-.104-.325-.157-.556-.157-.252 0-.489.056-.713.168-.224.105-.483.262-.776.472l-.147-.671a2.69 2.69 0 0 1 .577-.504c.231-.147.479-.262.745-.346s.532-.126.797-.126zm-2.172.126l.126.996.115.147v3.326l-.052.126.042.608.011.64v1.354h-1.269v-7.197h1.028zm6.45-2.193v5.791c0 .196.056.346.168.451.112.098.273.147.483.147h.451l.147.892c-.077.035-.185.066-.325.094-.133.028-.273.046-.42.053l-.367.021c-.427 0-.766-.116-1.018-.346s-.378-.563-.378-.997v-6.106h1.259zm3.341 2.193v5.151h-1.259v-5.151h1.259zm-.346-2.235a.33.33 0 0 1 .378.378v.587a.33.33 0 0 1-.378.378h-.567a.33.33 0 0 1-.378-.378v-.587a.33.33 0 0 1 .378-.378h.567zm4.109 2.109c.832 0 1.43.147 1.794.441.364.286.549.713.556 1.279.007.469-.105.826-.336 1.071-.224.237-.598.356-1.123.356h-2.937v-.787h2.591c.238 0 .388-.063.451-.188a.94.94 0 0 0 .105-.462c-.007-.287-.091-.486-.252-.598-.154-.112-.42-.168-.797-.168-.329 0-.584.046-.766.137s-.311.255-.388.493c-.07.237-.105.58-.105 1.028 0 .475.046.842.136 1.101s.241.437.451.535c.21.091.49.137.839.137l.892-.032.986-.084.126.808c-.189.077-.406.14-.65.189s-.5.084-.766.105c-.259.028-.504.042-.734.042-.629 0-1.136-.091-1.521-.273a1.73 1.73 0 0 1-.829-.881c-.168-.399-.252-.913-.252-1.542 0-.679.084-1.214.252-1.605.175-.399.448-.682.818-.85.378-.168.864-.252 1.458-.252zm5.232 0a3.65 3.65 0 0 1 1.028.147c.336.091.64.245.913.461l-.084.64-.734-.199c-.217-.056-.458-.084-.724-.084-.252 0-.455.046-.608.137-.147.083-.259.248-.336.493-.07.244-.105.601-.105 1.07 0 .447.035.793.105 1.038.07.238.178.406.325.504.154.091.346.136.577.136.189 0 .357-.021.504-.063.147-.049.297-.122.451-.22l.535-.357.105.714c-.238.272-.532.507-.881.702-.343.189-.741.284-1.196.284-.657 0-1.126-.231-1.406-.693-.28-.468-.42-1.147-.42-2.035 0-.678.07-1.21.21-1.594.147-.392.364-.668.65-.829.294-.168.657-.252 1.091-.252zm2.979-2.067v7.344h-.997l-.136-.923-.136-.105v-3.441l.063-.147c-.028-.203-.046-.406-.052-.609l-.01-.64v-1.479h1.269z" class="B"/><circle cx="55.839" cy="321.429" r="12.589" class="H"/><g class="B"><path d="M47.445 330.876s4.908-3.475 8.393-3.147c3.288.309 8.376 3.147 8.376 3.147s-3.147 3.145-8.376 3.147c-5.262.003-8.393-3.147-8.393-3.147z"/><circle cx="55.841" cy="321.431" r="6.294"/><path d="M72.722 211.398l42.124-26.907c.395-.252.912-.289 1.459-.09s1.097.628 1.499 1.255l30.536 47.627c.402.626.563 1.304.515 1.883s-.299 1.031-.693 1.283l-42.124 26.908c-.395.252-.912.288-1.458.09s-1.098-.629-1.5-1.256l-27.448-42.809-3.089-4.817c-.402-.627-.563-1.305-.515-1.883s.298-1.032.693-1.284z" class="D E"/></g><path d="M75.971 220.808l-4.078-6.363c-.766-1.194-.514-2.72.561-3.407l42.146-26.945c1.075-.687 2.567-.277 3.333.918l3.9 6.085" class="F"/><g class="G"><path d="M120.369 200.764l-21.491 13.749c-.188.119-.462.026-.613-.209s-.12-.523.067-.643v-.001l21.49-13.748c.188-.119.462-.026.613.209s.121.523-.066.643zm10.554 16.01l-36.344 23.294c-.318.203-.691.186-.835-.038s-.002-.571.314-.774l.001-.001 36.343-23.293c.317-.203.69-.186.834.038s.003.571-.314.774zm1.648 2.555l-36.343 23.294c-.318.203-.691.186-.835-.038s-.002-.571.314-.774l.001-.001 36.342-23.293c.318-.203.691-.186.835.038s.003.57-.315.774zm-.036 3.628l-34.693 22.234c-.303.193-.665.169-.809-.055s-.013-.564.288-.758l.001-.001 34.692-22.232c.303-.194.664-.169.808.055s.015.563-.288.757zm7.656 11.922l-34.692 22.233c-.304.194-.665.169-.809-.055s-.014-.563.288-.757l.001-.001 34.692-22.232c.303-.194.665-.169.809.055s.014.563-.289.757zm-23.623 1.949l-17.359 11.097c-.152.096-.391-.007-.535-.231s-.137-.484.014-.581h.001l17.358-11.097c.152-.096.391.007.535.231s.138.484-.014.581zm4.375 6.813l-17.359 11.096c-.152.097-.391-.006-.535-.23s-.137-.485.014-.582h.001l17.358-11.096c.152-.097.391.006.535.23s.138.484-.014.582zm-13.637-29.715l-6.248 3.993c-.188.12-.463.027-.613-.209s-.12-.523.066-.643h.001l6.248-3.993c.188-.12.463-.027.613.209s.121.523-.067.643zm16.306-10.48l-13.733 8.801c-.188.119-.462.027-.614-.209s-.121-.522.067-.643l13.733-8.8c.188-.12.462-.028.613.208s.122.522-.066.643zm-4.641 12.164l-13.733 8.801c-.187.12-.462.027-.613-.208s-.121-.523.066-.644l13.732-8.801c.188-.12.463-.027.614.208s.121.523-.066.644zm-2.188-3.407l-13.732 8.801c-.188.121-.462.028-.613-.207s-.122-.524.066-.644l13.732-8.801c.187-.121.462-.028.614.208s.12.523-.067.643z" class="C"/></g><path d="M78.203 211.473c.045-.029.093-.042.144-.038s.096.022.138.055l2.687 2.226-.545.35-2.128-1.833-.122-.114-.115-.113-.119.076.055.152.049.16.787 2.695-.545.35-.907-3.369c-.016-.05-.015-.098.002-.146a.25.25 0 0 1 .099-.117l.52-.334zm1.574 1.364l.268.418-1.511.971-.268-.418 1.511-.971zm1.626-2.296c.261-.168.508-.192.741-.073s.469.356.701.717c.177.275.287.511.329.709.043.192.029.36-.044.503s-.201.267-.38.382c-.142.091-.294.161-.456.209a1.42 1.42 0 0 1-.496.042l-.13-.278.35-.11c.103-.034.206-.085.311-.152s.176-.137.214-.21.04-.174.005-.292-.113-.27-.234-.457-.223-.32-.315-.405-.179-.13-.264-.131-.173.021-.267.081a.75.75 0 0 0-.246.254c-.064.101-.127.232-.192.394l-.235-.234c.016-.119.05-.237.103-.355a1.53 1.53 0 0 1 .212-.335c.086-.103.183-.189.291-.259zm-.849.618l.311.371.085.03.867 1.349.011.065.176.236.171.257.353.549-.515.331-1.876-2.92.417-.268zm3.368-2.237c.261-.167.508-.192.741-.073s.469.356.701.717c.177.275.287.512.329.709s.029.36-.044.503a1.06 1.06 0 0 1-.38.382c-.142.092-.294.161-.456.209a1.42 1.42 0 0 1-.496.042l-.13-.277.35-.111a1.36 1.36 0 0 0 .311-.152c.105-.067.176-.137.214-.21s.04-.174.005-.292-.113-.27-.234-.457-.223-.32-.315-.405-.179-.13-.264-.131-.173.021-.267.081a.76.76 0 0 0-.246.254c-.063.101-.127.232-.192.394l-.235-.234a1.3 1.3 0 0 1 .103-.355c.055-.12.126-.231.212-.335s.183-.189.291-.259zm-.849.618l.311.371.085.03.867 1.35.012.064.176.236.171.257.353.55-.515.331-1.876-2.921.417-.268zm2.046-2.572l1.51 2.35c.051.08.113.126.186.14s.149-.012.234-.066l.183-.118.292.324a.77.77 0 0 1-.107.123 1.27 1.27 0 0 1-.157.13l-.144.105c-.173.111-.341.152-.503.124s-.3-.13-.413-.306l-1.592-2.478.511-.328zm1.927.019l1.343 2.091-.511.328-1.343-2.091.511-.328zm-.723-.817c.102-.065.186-.047.252.055l.153.239c.066.102.047.186-.055.251l-.23.148c-.102.066-.186.048-.252-.055l-.153-.238c-.066-.102-.047-.186.055-.252l.23-.148zm2.217-.215c.338-.217.619-.313.843-.289s.409.146.559.374c.125.189.173.363.143.522s-.15.301-.363.438l-1.192.766-.205-.32 1.052-.675c.097-.062.141-.127.134-.195s-.03-.141-.078-.214c-.078-.115-.164-.174-.258-.177s-.214.041-.367.139c-.133.086-.225.171-.275.255s-.06.185-.029.302.109.263.225.444c.124.193.238.33.343.412s.212.114.323.099.234-.072.376-.163l.354-.245.378-.292.262.295c-.057.081-.128.163-.215.247a3.28 3.28 0 0 1-.283.242c-.098.079-.193.148-.287.208-.255.164-.485.26-.689.286s-.391-.025-.566-.141-.34-.305-.504-.56c-.177-.276-.282-.515-.316-.718a.77.77 0 0 1 .11-.558c.11-.166.285-.327.526-.482zm2.124-1.364c.142-.092.294-.161.456-.209s.324-.067.491-.051l.133.282-.35.111c-.103.033-.208.085-.316.154-.102.066-.173.137-.211.214s-.04.169-.008.288.114.271.236.462c.117.181.221.313.313.394s.178.118.263.119a.54.54 0 0 0 .27-.095.86.86 0 0 0 .188-.157.98.98 0 0 0 .126-.207l.124-.284.229.262c-.025.173-.084.345-.174.515s-.227.309-.411.427c-.267.171-.517.2-.751.086s-.469-.356-.701-.717c-.177-.275-.287-.509-.331-.702s-.027-.366.048-.506a1.05 1.05 0 0 1 .377-.386zm.67-1.616l1.915 2.98-.404.26-.296-.339-.083-.007-.897-1.396-.013-.076c-.064-.075-.124-.153-.18-.234l-.171-.257-.386-.6.515-.331z" class="B"/><circle cx="6.073" cy="6.073" r="6.073" transform="matrix(.841322 -.540534 .540509 .841338 83.5078 223.184)" class="H"/><g class="B"><path d="M90.951 231.028s1.086-2.69 2.585-3.465c1.415-.732 4.22-.907 4.22-.907s-.457 2.097-2.579 3.461c-2.135 1.373-4.227.911-4.227.911z"/><circle cx="3.036" cy="3.036" r="3.036" transform="matrix(.841322 -.540534 .540509 .841338 87.6953 224.094)"/><path d="M393.557 149.132l23.507 14.505c.156.096.274.282.302.554s-.042.605-.237.921l-16.37 26.636c-.195.317-.461.528-.715.626s-.472.076-.627-.02l-23.508-14.504c-.156-.097-.274-.282-.302-.554a1.52 1.52 0 0 1 .237-.923l14.715-23.941 1.655-2.695c.194-.316.46-.528.715-.626s.472-.075.628.021z" class="D E"/></g><path d="M389.755 152.834l2.188-3.558c.41-.667 1.23-.909 1.831-.539l23.531 14.508c.601.37.755 1.211.344 1.879l-2.092 3.403" class="F"/><g class="G"><path d="M410.393 170.121l-12.003-7.395c-.105-.065-.124-.224-.044-.355s.232-.186.336-.122l.001.001 12.003 7.395c.105.065.124.223.043.355s-.231.186-.336.121zm-5.436 9.101l-20.321-12.496c-.177-.11-.258-.3-.181-.425s.284-.138.46-.029h.001l20.321 12.495c.177.11.258.3.181.425s-.283.138-.461.03zm-.882 1.433l-20.322-12.496c-.177-.109-.258-.299-.181-.424s.284-.138.461-.03v.001l20.321 12.495c.177.109.258.299.181.425s-.283.138-.46.029zm-1.814.854l-19.397-11.929c-.17-.104-.244-.29-.167-.416s.277-.142.446-.038h.001l19.396 11.929c.169.104.244.29.167.415s-.277.143-.446.039zm-4.086 6.68l-19.397-11.929c-.17-.105-.244-.291-.167-.416s.277-.142.446-.038h.001l19.396 11.928c.169.105.244.291.167.416s-.277.143-.446.039zm-6.648-11.302l-9.692-5.975c-.084-.053-.09-.196-.013-.322s.208-.184.292-.133l.001.001 9.691 5.975c.085.052.091.196.014.322s-.208.184-.293.132zm-2.336 3.821l-9.692-5.976c-.084-.052-.09-.196-.013-.322s.208-.184.293-.132h0l9.691 5.975c.085.053.091.197.014.322s-.208.185-.293.133zm11.514-13.928l-3.487-2.152c-.105-.065-.125-.224-.044-.355s.232-.185.336-.121h.001l3.488 2.151c.104.065.124.224.043.355s-.232.186-.337.122zm9.128 5.602l-7.677-4.722c-.105-.065-.125-.224-.044-.356s.231-.185.336-.121l7.678 4.722c.104.065.124.224.043.356s-.23.186-.336.121zm-7.163.613l-7.679-4.722c-.105-.064-.124-.223-.043-.355s.231-.186.336-.122l7.678 4.722c.105.064.125.223.044.355s-.231.186-.336.122zm1.172-1.907l-7.679-4.721c-.105-.065-.124-.224-.044-.355s.232-.186.337-.122l7.678 4.722c.105.064.125.223.044.355s-.232.186-.336.121z" class="C"/></g><path d="M394.825 151.954c.026.015.043.036.054.062s.012.054.005.082l-.462 1.872-.305-.187.401-1.499.028-.088.028-.084-.067-.041-.062.063a.82.82 0 0 1-.068.063l-1.152 1.039-.305-.187 1.459-1.261c.021-.02.045-.031.073-.033s.057.005.082.02l.291.179zm-.301 1.111l-.143.234-.846-.519.143-.234.846.519zm1.534.258c.146.09.217.207.214.352s-.065.319-.188.521c-.095.154-.186.265-.274.334s-.173.101-.261.099a.59.59 0 0 1-.282-.098.97.97 0 0 1-.213-.176c-.06-.07-.107-.149-.14-.237l.107-.131.139.147c.041.043.091.083.15.119s.111.055.156.056.097-.022.147-.068.107-.121.171-.226.106-.188.126-.254.022-.12.002-.163-.052-.081-.105-.113a.41.41 0 0 0-.185-.061 1.28 1.28 0 0 0-.242-.001l.06-.173c.063-.021.13-.032.201-.034s.146.007.218.025.138.045.199.082zm-.511-.274l-.111.244.006.05-.464.755-.029.022-.075.144-.087.147-.189.307-.288-.177 1.003-1.635.234.143zm1.921 1.14c.146.089.218.206.215.351s-.065.319-.189.521c-.094.154-.186.265-.274.334a.4.4 0 0 1-.26.099c-.088-.003-.182-.036-.282-.097-.079-.049-.15-.108-.213-.177s-.107-.148-.14-.237l.107-.131.139.148a.73.73 0 0 0 .15.118c.059.036.111.055.156.056s.096-.021.146-.067a1.14 1.14 0 0 0 .172-.226 1.27 1.27 0 0 0 .126-.254c.021-.066.021-.121.002-.163s-.052-.082-.105-.114-.119-.055-.185-.061-.146-.008-.242-.001l.06-.173a.73.73 0 0 1 .201-.034c.073-.001.145.007.218.025s.138.046.198.083zm-.511-.274l-.11.244.006.049-.464.756-.029.021-.076.144-.086.147-.189.308-.288-.177 1.003-1.636.233.144zm1.771.4l-.807 1.316c-.027.045-.035.087-.024.126s.041.072.089.101l.102.063-.091.223a.45.45 0 0 1-.087-.024.66.66 0 0 1-.102-.047l-.087-.046c-.097-.06-.158-.133-.183-.221s-.007-.18.053-.279l.851-1.387.286.175zm.454.964l-.718 1.171-.286-.176.718-1.17.286.175zm.233-.556c.057.035.068.081.033.139l-.082.133c-.035.057-.081.068-.138.033l-.129-.079c-.057-.035-.068-.081-.033-.138l.082-.134c.035-.057.081-.068.138-.033l.129.079zm.639 1.052c.19.116.305.233.347.35s.025.239-.052.369c-.064.107-.139.172-.226.196s-.185-.002-.305-.075l-.667-.41.11-.179.588.361c.054.034.097.04.129.02s.063-.048.088-.09c.039-.066.048-.123.027-.171s-.072-.096-.158-.149a.47.47 0 0 0-.193-.076c-.054-.005-.107.015-.157.058a1 1 0 0 0-.167.219.93.93 0 0 0-.123.269c-.015.072-.006.133.028.185a.57.57 0 0 0 .172.148l.207.117.236.118-.084.201c-.054-.008-.112-.024-.174-.047s-.126-.051-.189-.083l-.173-.093c-.143-.088-.245-.179-.307-.274a.46.46 0 0 1-.066-.316c.017-.114.07-.242.158-.385.094-.154.188-.264.281-.33s.196-.092.304-.079.231.063.366.146zm1.189.729c.08.049.151.108.214.177a.69.69 0 0 1 .143.232l-.109.134-.139-.148a.76.76 0 0 0-.152-.12c-.058-.035-.11-.053-.158-.054s-.093.021-.145.066a1.14 1.14 0 0 0-.173.228c-.062.102-.102.185-.121.251s-.016.117.004.16.06.079.112.111a.51.51 0 0 0 .123.056c.041.009.085.014.134.013l.171-.007-.076.177c-.092.029-.191.041-.298.037s-.208-.039-.311-.102c-.15-.092-.224-.21-.223-.354s.064-.319.188-.521c.095-.154.185-.265.27-.333a.4.4 0 0 1 .263-.097.57.57 0 0 1 .283.094zm.966-.054l-1.024 1.669-.226-.139.097-.229-.016-.043.479-.782.035-.024.073-.146.087-.147.206-.336.289.177z" class="B"/><circle cx="3.356" cy="3.356" r="3.356" transform="matrix(.852412 .522871 -.522846 .852427 390.375 157.156)" class="H"/><g class="B"><path d="M388.269 162.747s1.6-.105 2.346.455c.704.529 1.465 1.883 1.465 1.883s-1.154.276-2.342-.453c-1.196-.732-1.469-1.885-1.469-1.885z"/><circle cx="1.678" cy="1.678" r="1.678" transform="matrix(.852412 .522871 -.522846 .852427 390.93 159.469)"/><path d="M343.81 261.882l23.866 7.317c.143.044.279.167.362.389a1.33 1.33 0 0 1 .003.833l-8.235 27.027c-.095.313-.274.551-.466.688s-.372.163-.515.12l-23.866-7.317c-.143-.044-.279-.168-.362-.39a1.33 1.33 0 0 1-.003-.833l7.402-24.294.833-2.733c.095-.313.274-.55.466-.688s.373-.163.515-.119z" class="D E"/></g><path d="M341.344 265.946l1.1-3.61c.207-.678.869-1.076 1.478-.89l23.888 7.314c.609.187.936.887.73 1.565l-1.053 3.453" class="F"/><g class="G"><path d="M363.339 276.347l-12.184-3.727c-.106-.033-.159-.167-.119-.301s.16-.215.266-.182h.001l12.183 3.726c.107.033.16.167.119.301s-.159.215-.266.183zm-2.68 9.196l-20.622-6.288c-.18-.055-.294-.202-.255-.33s.216-.185.396-.131l.001.001 20.62 6.287c.18.055.295.203.256.33s-.216.186-.396.131zm-.446 1.457l-20.621-6.288c-.18-.055-.294-.202-.256-.33s.217-.185.397-.131v.001l20.621 6.287c.18.055.294.203.256.33s-.216.186-.397.131zm-1.389 1.156l-19.684-6.003c-.172-.053-.28-.198-.241-.325s.21-.188.381-.136h.001l19.683 6.003c.172.053.28.198.241.326s-.21.187-.381.135zm-2.055 6.777l-19.684-6.003c-.172-.052-.279-.198-.241-.325s.21-.187.382-.135h0l19.684 6.003c.171.052.279.198.24.325s-.209.188-.381.135zm-8.384-8.357l-9.838-3.013c-.086-.027-.124-.151-.086-.278s.14-.209.226-.183h0l9.839 3.013c.085.026.123.151.085.278s-.14.209-.226.183zm-1.179 3.871l-9.839-3.013c-.086-.027-.124-.151-.085-.278s.14-.209.225-.183h.001l9.838 3.013c.086.026.124.151.085.278s-.14.209-.225.183zm6.896-14.804l-3.541-1.085c-.106-.033-.16-.168-.119-.301s.16-.215.266-.183h.001l3.541 1.085c.106.033.159.168.119.301s-.161.215-.267.183zm9.259 2.811l-7.792-2.377c-.106-.032-.16-.167-.119-.3s.16-.216.266-.183l7.792 2.376c.106.033.16.167.119.301s-.159.215-.266.183zm-6.125 2.171l-7.792-2.376c-.106-.032-.16-.167-.119-.3s.16-.216.266-.183l7.792 2.376c.106.032.16.166.119.3s-.159.216-.266.183zm.586-1.933l-7.792-2.376c-.106-.033-.16-.167-.119-.301s.16-.215.266-.183l7.792 2.376c.106.032.16.167.119.301s-.16.215-.266.183z" class="C"/></g><path d="M345.494 264.29c.026.008.046.022.061.043s.023.044.023.07l.023 1.743-.309-.094.008-1.403.005-.083.005-.08-.067-.021-.04.07-.045.071-.771 1.171-.309-.094.988-1.435c.014-.023.032-.038.056-.047s.051-.008.077 0l.295.089zm-.01 1.041l-.072.237-.858-.261.072-.237.858.261zm1.4-.124c.148.045.237.131.268.258s.016.294-.046.498c-.048.157-.102.275-.163.355s-.128.127-.206.146a.53.53 0 0 1-.268-.021.84.84 0 0 1-.227-.106c-.068-.047-.127-.105-.177-.175l.064-.139.155.097c.046.029.099.052.159.07s.109.022.149.013.079-.041.112-.092.066-.131.099-.237.049-.189.052-.251-.009-.11-.036-.143-.064-.059-.117-.075-.117-.022-.176-.011-.13.026-.212.054l.013-.165c.05-.032.107-.057.168-.076a.76.76 0 0 1 .196-.027c.067-.001.132.008.193.027zm-.509-.124l-.041.239.016.042-.233.767-.021.025-.032.143-.043.148-.095.312-.292-.089.504-1.658.237.071zm1.94.558c.148.045.238.131.268.258s.016.294-.046.499c-.048.156-.102.274-.163.354s-.128.128-.206.147a.53.53 0 0 1-.268-.021c-.081-.025-.156-.06-.227-.106s-.127-.105-.176-.175l.063-.139.155.097a.68.68 0 0 0 .159.069c.059.019.109.023.149.014s.079-.041.113-.093a.97.97 0 0 0 .098-.236c.032-.105.049-.189.052-.251s-.009-.11-.036-.143a.21.21 0 0 0-.117-.075c-.058-.018-.116-.022-.176-.012s-.129.027-.212.055l.013-.165c.051-.033.107-.058.169-.076s.128-.027.195-.028.132.009.193.027zm-.509-.123l-.041.239.016.042-.233.766-.02.026-.033.143-.043.148-.095.312-.292-.089.504-1.659.237.072zm1.64-.054l-.406 1.335c-.013.045-.011.084.008.116s.052.053.101.068l.104.031-.029.216a.38.38 0 0 1-.082-.001c-.032-.003-.066-.009-.1-.017l-.086-.021c-.098-.03-.169-.08-.21-.151s-.048-.156-.018-.256l.428-1.408.29.088zm.616.74l-.36 1.187-.29-.088.36-1.188.29.089zm.077-.54a.08.08 0 0 1 .061.114l-.041.135a.08.08 0 0 1-.114.061l-.131-.04c-.058-.018-.078-.055-.06-.113l.041-.136c.018-.058.055-.078.113-.06l.131.039zm.8.774c.191.058.319.134.382.227s.077.203.039.334c-.031.109-.082.183-.152.223s-.163.041-.284.004l-.677-.206.055-.181.597.181c.055.017.094.013.117-.012s.044-.057.057-.099c.018-.066.013-.118-.016-.155s-.085-.068-.172-.095c-.076-.023-.138-.03-.186-.022s-.09.037-.124.087a.94.94 0 0 0-.097.229.84.84 0 0 0-.045.264c.003.066.025.117.066.155s.104.065.184.09l.208.055.233.05-.027.195a.91.91 0 0 1-.164-.002 1.55 1.55 0 0 1-.183-.03 1.57 1.57 0 0 1-.173-.041c-.145-.045-.255-.101-.331-.17a.42.42 0 0 1-.13-.261c-.01-.104.006-.228.05-.373.048-.157.105-.274.171-.352s.151-.126.248-.139a.87.87 0 0 1 .354.044zm1.206.366c.08.025.156.06.226.106a.6.6 0 0 1 .178.17l-.064.142-.155-.097a.68.68 0 0 0-.161-.07c-.058-.018-.108-.022-.15-.011s-.077.039-.112.09-.066.131-.099.239-.047.185-.048.247.012.106.039.139.071.055.124.071c.043.014.084.021.12.021a.49.49 0 0 0 .12-.019l.148-.045-.026.172a.78.78 0 0 1-.252.1c-.092.02-.191.014-.296-.018-.151-.046-.243-.132-.275-.258s-.017-.294.046-.499c.047-.156.1-.274.16-.353s.13-.128.208-.145.169-.012.269.018zm.831-.268l-.514 1.693-.23-.07.034-.222-.025-.034.241-.793.025-.029c.008-.049.018-.097.031-.144l.042-.148.104-.341.292.088z" class="B"/><circle cx="3.033" cy="3.033" r="3.033" transform="matrix(.956842 .290609 -.290591 .956847 342.883 269.582)" class="H"/><g class="B"><path d="M342.309 274.949s1.375-.457 2.155-.138c.737.302 1.711 1.312 1.711 1.312s-.946.505-2.151.139c-1.213-.367-1.715-1.313-1.715-1.313z"/><circle cx="1.516" cy="1.516" r="1.516" transform="matrix(.956842 .290609 -.290591 .956847 343.891 271.477)"/><path d="M256.742 192.816l31.431-9.664c.239-.074.525-.024.807.177s.536.541.672.979l11 35.558c.136.438.118.862-.002 1.186s-.326.524-.565.597l-31.432 9.666c-.239.073-.524.024-.806-.177s-.536-.541-.672-.98l-9.888-31.961-1.113-3.596c-.136-.439-.117-.863.002-1.187s.327-.524.566-.598z" class="D E"/></g><path d="M257.106 199.211l-1.468-4.75c-.276-.892.152-1.815.954-2.062l31.452-9.685c.802-.247 1.676.275 1.952 1.167l1.405 4.543" class="F"/><g class="G"><path d="M288.771 194.293l-16.039 4.944c-.14.043-.298-.064-.352-.24s.015-.353.155-.396h0l16.039-4.944c.14-.043.298.064.352.24s-.015.353-.155.396zm3.892 12.007l-27.133 8.388c-.237.073-.47-.003-.522-.171s.099-.362.335-.435l.001-.001 27.132-8.388c.237-.073.47.004.522.171s-.098.362-.335.436zm.586 1.906l-27.133 8.388c-.237.073-.47-.003-.522-.17s.099-.363.335-.436h.001l27.131-8.389c.238-.073.471.004.523.171s-.098.362-.335.436zm-.651 2.299l-25.9 8.006c-.226.069-.451-.01-.503-.177s.091-.36.316-.43h.001l25.899-8.006c.226-.069.451.01.503.177s-.09.359-.316.43zm2.758 8.898l-25.9 8.006c-.226.07-.451-.009-.503-.177s.091-.36.316-.429l.001-.001 25.898-8.005c.227-.07.452.009.503.176s-.089.36-.315.43zm-15.322-2.911l-12.954 3.988c-.113.035-.247-.073-.299-.24s-.001-.331.111-.366h.001l12.954-3.988c.113-.035.246.073.298.24s.002.331-.111.366zm1.579 5.086l-12.955 3.988c-.113.035-.247-.073-.298-.24s-.002-.331.11-.366h.001l12.954-3.988c.113-.035.246.073.298.24s.003.331-.11.366zm-3.43-21.229l-4.662 1.435c-.14.043-.298-.064-.352-.24s.015-.353.155-.396h0l4.663-1.435c.14-.043.298.064.352.24s-.016.353-.156.396zm12.184-3.781l-10.252 3.169c-.14.043-.298-.064-.352-.24s.015-.353.155-.396l10.252-3.169c.14-.043.297.064.352.24s-.014.353-.155.396zm-5.086 6.894l-10.252 3.169c-.14.044-.298-.063-.352-.239s.015-.353.155-.396l10.252-3.17c.14-.043.297.064.352.24s-.015.353-.155.396zm-.781-2.543l-10.252 3.169c-.14.044-.298-.063-.352-.239s.014-.353.154-.396l10.252-3.17c.14-.043.298.064.353.24s-.015.353-.155.396z" class="C"/></g><path d="M260.123 193.424c.034-.01.066-.01.098.001s.057.031.078.06l1.312 1.882-.407.127-1.027-1.536-.057-.094-.053-.091-.089.027.008.106c.003.036.004.073.003.11l.026 1.847-.407.126.016-2.295c-.001-.035.008-.065.028-.092s.049-.047.083-.057l.388-.121zm.759 1.142l.096.311-1.129.351-.096-.312 1.129-.35zm1.434-1.171c.195-.06.356-.032.482.084s.236.308.319.578c.064.205.092.374.084.507s-.045.233-.116.311-.174.134-.308.176c-.106.033-.214.05-.325.052a.94.94 0 0 1-.322-.06l-.034-.199.241-.009a.91.91 0 0 0 .225-.041c.078-.025.135-.056.172-.096s.056-.103.054-.184-.024-.191-.067-.331a1.44 1.44 0 0 0-.129-.312c-.042-.071-.091-.114-.144-.13s-.114-.017-.184.005a.5.5 0 0 0-.2.118c-.058.053-.122.125-.191.216l-.108-.19a.85.85 0 0 1 .128-.206c.056-.067.12-.125.193-.175s.149-.089.23-.114zm-.647.243l.132.29.049.034.313 1.008-.004.043.07.18.063.193.128.41-.385.12-.677-2.181.311-.097zm2.528-.827c.195-.06.356-.032.483.084s.235.308.319.578c.064.205.092.374.084.507a.48.48 0 0 1-.116.311c-.072.076-.174.134-.308.176-.106.033-.214.05-.325.052a.94.94 0 0 1-.322-.06l-.034-.199.241-.009c.071-.003.146-.017.224-.041s.136-.056.173-.096.056-.103.054-.184-.024-.191-.068-.331-.085-.242-.128-.312-.091-.114-.145-.13-.113-.017-.183.005a.5.5 0 0 0-.2.118c-.058.053-.122.125-.191.216l-.108-.19c.031-.072.073-.141.127-.206a.98.98 0 0 1 .194-.175c.072-.051.149-.089.229-.114zm-.646.243l.132.29.049.034.313 1.008-.004.043.07.18.063.193.127.41-.384.12-.677-2.181.311-.097zm1.749-1.271l.544 1.755c.019.059.05.099.094.121s.096.019.16-.001l.137-.043.128.257a.5.5 0 0 1-.09.059c-.037.021-.078.039-.122.055s-.078.031-.109.041c-.13.04-.243.037-.341-.009s-.168-.135-.209-.266l-.574-1.851.382-.118zm1.218.35l.485 1.561-.382.119-.484-1.562.381-.118zm-.315-.645c.077-.024.127.003.15.079l.056.178c.023.076-.003.126-.079.15l-.172.053c-.076.024-.126-.002-.15-.079l-.055-.178c-.024-.076.002-.126.079-.15l.171-.053zm1.444.253c.252-.079.447-.09.585-.035s.234.164.289.335c.046.142.046.26-.001.356s-.148.164-.307.214l-.89.276-.074-.238.785-.244c.072-.023.112-.056.119-.1s.006-.094-.011-.15c-.029-.086-.074-.138-.133-.157s-.143-.012-.257.024c-.1.031-.173.069-.22.113s-.07.107-.071.186.023.186.065.322c.045.144.093.251.145.321s.114.11.187.12.161-.005.267-.038l.268-.093.291-.119.114.233c-.05.041-.11.081-.18.119a2.07 2.07 0 0 1-.222.104l-.219.081c-.19.06-.353.08-.486.061a.55.55 0 0 1-.334-.189c-.089-.105-.162-.253-.222-.444-.063-.206-.088-.376-.074-.51s.071-.249.168-.335.238-.157.418-.213zm1.586-.492c.106-.033.214-.051.325-.053s.217.014.32.054l.035.202-.241.009a.91.91 0 0 0-.228.043.37.37 0 0 0-.171.098c-.037.039-.055.1-.055.181a1.27 1.27 0 0 0 .068.334c.042.136.086.238.13.305s.092.106.146.122.118.009.188-.013c.057-.017.106-.04.146-.066a.65.65 0 0 0 .116-.109l.129-.159.099.207a1.08 1.08 0 0 1-.201.296.78.78 0 0 1-.336.198c-.199.062-.363.036-.491-.078s-.235-.308-.319-.577c-.064-.206-.093-.373-.086-.503s.047-.237.119-.313a.68.68 0 0 1 .307-.178zm.708-.907l.691 2.226-.302.093-.128-.267-.051-.019-.324-1.043.005-.05-.073-.179-.063-.193-.139-.449.384-.119z" class="B"/><circle cx="3.995" cy="3.995" r="3.995" transform="matrix(.955042 -.29642 .296411 .955076 261.469 202.035)" class="H"/><g class="B"><path d="M264.814 208.316s1.16-1.515 2.247-1.743c1.026-.216 2.835.166 2.835.166s-.658 1.249-2.243 1.741c-1.594.496-2.839-.164-2.839-.164z"/><circle cx="1.998" cy="1.998" r="1.998" transform="matrix(.955042 -.29642 .296411 .955076 263.969 203.352)"/><path d="M245.031 306.001c.007.001.048.014.113.097.086.111.167.297.196.533l2.455 20.592c.028.236-.008.435-.066.562-.038.084-.071.109-.082.116l-14.394 1.68c-.011-.003-.051-.019-.111-.096-.086-.111-.168-.297-.196-.533l-2.207-18.509-.248-2.083c-.028-.237.008-.436.065-.563.04-.087.074-.112.083-.117l14.392-1.679z" class="D E"/></g><path d="M230.348 311.008l-.327-2.751c-.062-.516.187-.97.554-1.013l14.42-1.688c.368-.043.716.34.777.857l.314 2.631" class="F"/><g class="G"><path d="M244.537 311.932l-7.353.864c-.065.007-.126-.069-.139-.171s.031-.19.095-.198h0l7.353-.863c.065-.008.126.069.139.17s-.03.19-.095.198zm.901 6.975l-12.442 1.475c-.108.013-.206-.055-.217-.152s.067-.186.176-.199h0l12.441-1.475c.109-.013.206.056.217.153s-.067.185-.175.198zm.132 1.102l-12.441 1.475c-.109.013-.206-.056-.217-.153s.067-.185.175-.198h.001l12.441-1.475c.108-.013.206.055.217.152s-.067.186-.176.199zm-.441 1.17l-11.876 1.407c-.104.013-.197-.056-.209-.153s.064-.185.167-.198h.001l11.875-1.407c.104-.012.197.057.209.154s-.063.185-.167.197zm.625 5.164l-11.876 1.408c-.104.012-.197-.057-.209-.154s.064-.185.167-.198h.001l11.875-1.407c.104-.012.197.057.209.154s-.063.185-.167.197zm-6.523-3.335l-5.939.695c-.052.006-.103-.068-.115-.164s.022-.181.073-.187h0l5.939-.695c.052-.006.103.068.115.165s-.021.18-.073.186zm.352 2.949l-5.939.695c-.052.006-.104-.067-.115-.164s.021-.181.073-.187h0l5.939-.695c.052-.006.103.068.115.165s-.022.18-.073.186zm-.082-11.934l-2.138.249c-.064.008-.126-.069-.138-.17s.03-.19.094-.198h.001l2.137-.25c.064-.007.126.069.138.171s-.03.19-.094.198zm5.579-.663l-4.701.557c-.064.007-.126-.069-.138-.171s.03-.19.094-.197l4.701-.557c.064-.008.126.068.138.17s-.029.19-.094.198zm-2.687 3.164l-4.701.557c-.064.008-.126-.069-.139-.17s.03-.191.095-.198l4.7-.558c.065-.007.127.069.139.171s-.03.19-.094.198zm-.172-1.477l-4.701.557c-.064.008-.126-.068-.139-.17s.03-.19.095-.198l4.701-.557c.064-.008.126.068.138.17s-.03.191-.094.198z" class="C"/></g><path d="M232.145 308.221c.029-.003.055.002.078.015s.041.033.053.059l.77 1.69-.342.041-.594-1.372-.031-.083-.029-.081-.075.009-.009.086c-.003.029-.008.058-.014.088l-.249 1.473-.342.041.348-1.824c.004-.028.016-.051.035-.069s.046-.03.075-.034l.326-.039zm.437 1.019l.032.263-.95.113-.031-.262.949-.114zm1.312-.721c.165-.02.288.026.372.137s.142.28.17.506a1.21 1.21 0 0 1-.008.416c-.023.102-.069.179-.137.231s-.159.081-.271.095c-.089.01-.178.008-.267-.006s-.169-.049-.247-.095l.002-.164.193.029c.057.007.119.007.185-.001s.116-.024.151-.05.06-.074.07-.139.009-.156-.005-.273-.033-.205-.057-.268-.056-.103-.096-.124-.088-.03-.147-.023a.41.41 0 0 0-.176.065 1.33 1.33 0 0 0-.184.144l-.058-.167c.035-.053.079-.101.132-.146a.84.84 0 0 1 .179-.111.69.69 0 0 1 .199-.056zm-.549.098l.062.25.034.034.102.848-.01.034.03.154.022.163.041.345-.323.038-.22-1.834.262-.032zm2.132-.288c.164-.02.288.026.372.137s.142.28.169.506a1.19 1.19 0 0 1-.007.416c-.024.102-.07.179-.138.231s-.158.081-.27.095c-.09.01-.178.008-.267-.006s-.169-.049-.247-.095l.002-.163.193.028c.057.008.119.007.184 0a.32.32 0 0 0 .152-.051c.036-.028.06-.074.07-.139a1.07 1.07 0 0 0-.006-.273 1.17 1.17 0 0 0-.056-.267c-.024-.063-.056-.104-.096-.124a.23.23 0 0 0-.147-.024c-.064.008-.123.03-.177.065s-.115.082-.183.144l-.058-.167c.035-.053.079-.101.132-.146a.84.84 0 0 1 .179-.111.68.68 0 0 1 .199-.056zm-.55.098l.063.251.034.034.102.847-.01.034.029.154.023.163.041.345-.324.039-.22-1.835.262-.032zm1.578-.756l.177 1.477c.006.049.025.086.056.109s.074.03.128.023l.115-.014.065.223c-.019.011-.046.023-.08.034s-.069.02-.106.026l-.093.017c-.109.013-.199-.006-.27-.057s-.113-.132-.127-.243l-.186-1.556.321-.039zm.918.457l.158 1.313-.321.039-.158-1.313.321-.039zm-.156-.559c.064-.008.1.02.108.085l.018.149c.007.065-.021.101-.085.108l-.145.018c-.064.007-.1-.021-.107-.085l-.018-.15c-.008-.064.02-.1.084-.108l.145-.017zm1.112.412c.212-.026.369-.006.471.057s.161.165.18.31c.017.119-.001.213-.052.283s-.142.109-.276.125l-.749.09-.024-.201.661-.079c.061-.007.097-.028.109-.062s.018-.075.013-.121c-.011-.073-.038-.121-.083-.145s-.112-.03-.208-.018a.44.44 0 0 0-.191.058c-.044.029-.072.075-.084.138s-.009.151.005.265a.89.89 0 0 0 .068.277c.031.063.075.104.132.122a.54.54 0 0 0 .218.009l.226-.035.249-.051.057.202a.96.96 0 0 1-.16.068c-.061.02-.125.036-.192.05l-.186.033c-.161.019-.293.012-.396-.023s-.182-.103-.239-.199-.092-.225-.111-.386c-.021-.173-.016-.312.015-.417s.093-.187.183-.241a.91.91 0 0 1 .364-.109zm1.334-.16a.91.91 0 0 1 .266.006.64.64 0 0 1 .247.09l-.002.165-.193-.028c-.057-.008-.119-.007-.187.001s-.115.025-.151.053-.059.071-.071.136-.008.157.006.276.033.201.059.262.058.098.098.118.093.024.151.017c.049-.006.091-.016.127-.031a.55.55 0 0 0 .108-.07l.126-.108.048.179c-.052.077-.12.146-.203.206s-.18.095-.296.109c-.168.02-.294-.024-.38-.133s-.142-.28-.169-.506c-.021-.173-.019-.311.005-.413s.072-.182.14-.232.16-.084.271-.097zm.696-.618l.225 1.872-.255.031-.063-.232-.038-.022-.105-.878.012-.039a1.39 1.39 0 0 1-.032-.153l-.022-.163-.046-.377.324-.039z" class="B"/><ellipse cx="1.762" cy="2.226" rx="1.762" ry="2.226" transform="matrix(.992867 -.119099 .119095 .992899 232.062 313.039)" class="H"/><g class="B"><path d="M233.114 316.834s.609-.692 1.1-.693c.464 0 1.231.413 1.231.413s-.372.605-1.099.692-1.232-.412-1.232-.412z"/><ellipse cx=".881" cy="1.113" rx=".881" ry="1.113" transform="matrix(.992867 -.119099 .119095 .992899 233.07 314.031)"/><path d="M386.512 335.25l-4.68-9.425c-.12-.24.038-.562.353-.719l9.58-4.779 1.078-.537c.314-.157.666-.089.786.151l4.68 9.425c.119.24-.039.563-.353.719l-10.659 5.316c-.314.157-.666.089-.785-.151z"/></g><path d="M391.5 320.449l1.424-.71c.268-.133.581-.046.701.194l4.687 9.431c.12.24 0 .543-.267.677l-1.362.679" class="F"/><g class="G"><path d="M394.7 330.199l-2.392-4.809c-.021-.042.005-.097.058-.124s.112-.013.133.029h0l2.392 4.809c.021.042-.005.097-.058.123s-.112.014-.133-.028zm-3.583 1.857l-4.055-8.134c-.035-.071-.023-.148.027-.174s.12.013.155.084h0l4.054 8.133c.036.071.024.149-.026.174s-.12-.012-.155-.083zm-.586.293l-4.055-8.134c-.035-.071-.023-.149.027-.174s.12.013.155.084h0l4.055 8.133c.035.071.023.149-.027.174s-.12-.012-.155-.083zm-.743-.094l-3.869-7.764c-.034-.068-.021-.143.029-.168s.119.01.152.077h.001l3.869 7.764c.034.068.021.143-.03.168s-.118-.01-.152-.077zm-2.671 1.332l-3.87-7.764c-.034-.068-.021-.143.03-.168s.118.01.152.077h0l3.869 7.764c.034.068.021.143-.029.168s-.119-.01-.152-.077zm.116-4.988l-1.931-3.884c-.017-.034.01-.082.06-.107s.105-.018.122.016h0l1.93 3.884c.017.034-.01.082-.06.107s-.105.018-.121-.016zm-1.524.765l-1.93-3.884c-.017-.034.01-.081.06-.107s.104-.017.121.017h0l1.931 3.884c.017.034-.01.081-.061.106s-.104.018-.121-.016zm6.536-2.197l-.695-1.398c-.02-.042.005-.098.058-.124s.112-.013.133.029h0l.695 1.398c.021.042-.005.097-.058.123s-.112.014-.133-.028zm1.829 3.656l-1.531-3.074c-.021-.042.004-.097.057-.123s.112-.014.133.028l1.532 3.073c.021.042-.005.098-.057.124s-.113.014-.134-.028zm-2.453-1.254l-1.531-3.074c-.021-.041.004-.097.057-.123s.112-.014.133.028l1.532 3.073c.021.042-.005.098-.057.124s-.113.014-.134-.028zm.766-.379l-1.532-3.073c-.021-.042.005-.098.058-.124s.112-.014.133.028l1.532 3.073c.021.042-.005.098-.058.124s-.112.014-.133-.028z" class="C"/></g><path d="M393.452 321.138c.005.01.007.02.005.031s-.007.019-.015.027l-.526.513-.061-.122.432-.404c.008-.008.017-.016.026-.023l.026-.022-.013-.026-.033.008-.035.006-.581.104-.061-.122.725-.114c.011-.002.021-.001.031.004s.017.013.022.024l.058.116zm-.321.298l-.093.047-.169-.338.093-.047.169.338zm.444.393c.029.058.029.11-.001.157s-.086.09-.166.13c-.062.031-.114.048-.156.053s-.076-.002-.104-.021-.052-.048-.072-.088c-.016-.031-.027-.065-.033-.1s-.005-.069.002-.105l.061-.021.015.076c.005.022.013.045.025.069s.025.04.039.049.036.013.061.008a.42.42 0 0 0 .101-.039.43.43 0 0 0 .092-.056c.02-.017.031-.035.034-.053s-.001-.036-.011-.057a.18.18 0 0 0-.048-.058.73.73 0 0 0-.078-.049l.054-.043c.025.006.049.015.072.029s.046.032.065.052.036.043.048.067zm-.11-.192l-.085.057-.008.017-.302.151-.014.001-.053.031-.058.03-.123.062-.057-.115.653-.327.047.093zm.392.756c.029.058.029.11-.001.156a.41.41 0 0 1-.166.131c-.062.031-.114.048-.156.053s-.076-.002-.104-.021-.052-.048-.072-.088c-.016-.032-.027-.065-.033-.1s-.005-.069.002-.105l.061-.021.015.076c.005.022.013.045.025.069s.025.04.039.049.036.013.061.008a.42.42 0 0 0 .101-.039c.041-.02.072-.039.092-.056s.031-.035.034-.053-.001-.036-.011-.057a.18.18 0 0 0-.048-.058.73.73 0 0 0-.078-.049l.054-.043c.025.006.049.015.072.029s.046.032.065.052.036.043.048.067zm-.11-.192l-.085.057-.008.017-.302.151-.014.001-.053.031-.058.03-.123.062-.057-.115.653-.327.047.093zm.492.486l-.526.263c-.018.009-.029.021-.033.036s-.001.032.008.051l.021.041-.075.053c-.006-.005-.014-.013-.023-.025s-.017-.022-.024-.035-.014-.023-.018-.033c-.02-.039-.025-.075-.015-.108s.034-.06.073-.08l.555-.277.057.114zm-.048.403l-.467.234-.058-.114.468-.234.057.114zm.188-.132c.011.022.005.04-.017.051l-.054.027c-.023.011-.04.005-.051-.017l-.026-.052c-.011-.023-.006-.04.017-.051l.054-.027c.022-.011.04-.006.051.017l.026.052zm-.005.469c.038.075.051.136.041.183s-.04.082-.091.108c-.042.022-.08.028-.112.018s-.06-.038-.084-.086l-.133-.266.071-.036.118.235c.011.022.023.033.038.033s.03-.003.046-.012c.026-.013.04-.03.043-.05s-.004-.045-.021-.08c-.015-.03-.03-.051-.047-.063s-.037-.017-.062-.013-.058.017-.098.037-.075.043-.094.063-.029.041-.028.065.009.05.025.082l.044.08.052.086-.068.048a.39.39 0 0 1-.046-.051.53.53 0 0 1-.045-.065l-.037-.064a.38.38 0 0 1-.044-.151c0-.043.014-.081.042-.115s.072-.065.129-.093c.062-.031.114-.048.157-.05s.083.009.115.036.062.067.089.121zm.237.475c.016.032.027.065.034.1a.26.26 0 0 1-.001.104l-.062.021-.015-.076c-.005-.022-.013-.045-.025-.069s-.025-.039-.04-.049-.035-.012-.06-.008-.06.018-.102.039-.071.039-.09.056-.029.035-.031.053.004.038.014.058.018.032.029.043.024.022.04.031l.057.033-.06.042c-.036-.01-.07-.026-.104-.048s-.06-.055-.08-.096c-.03-.06-.03-.113-.001-.159s.085-.091.166-.131c.061-.031.113-.048.154-.053a.15.15 0 0 1 .105.021c.028.019.053.048.072.088zm.323.177l-.667.333-.045-.09.078-.055.003-.017.313-.156.016-.001c.017-.012.035-.023.053-.032a.62.62 0 0 1 .057-.03l.135-.068.057.116z" class="B"/><circle cx="1.278" cy="1.278" r="1.278" transform="matrix(.447119 .894475 -.894463 .447142 390.844 321.988)" class="H"/><g class="B"><path d="M389.025 323.359s.538.288.667.619c.121.313.094.904.094.904s-.428-.143-.666-.618-.095-.905-.095-.905z"/><circle cx=".639" cy=".639" r=".639" transform="matrix(.447119 .894475 -.894463 .447142 390.555 322.855)"/></g><path d="M355.5 154s-2.502 5.953-3 10c-.502 4.074.5 10.5.5 10.5M300 229s-2.39 4.647-2.866 7.805c-.479 3.18.478 8.195.478 8.195m95.43 33.36s-5.184 3.837-7.202 7.051c-2.033 3.236-2.993 9.243-2.993 9.243m-180.842-13.071s5.184 3.837 7.202 7.051c2.033 3.236 2.992 9.243 2.992 9.243M490.53 160.273s-5.258 3.44-7.828 6.439c-2.588 3.019-5.171 8.766-5.171 8.766m-394.655 3.538s5.586 3.937 8.378 7.273c2.811 3.36 5.748 9.644 5.748 9.644M258.001 88.058s2.599 5.271 3.164 8.877c.569 3.63-.327 9.387-.327 9.387" class="D N"/><path d="M507.515 513.251c-8.09 0-14.671-6.142-14.671-13.692s6.581-13.692 14.671-13.692 14.673 6.142 14.673 13.692-6.582 13.692-14.673 13.692zm0-22.28c-5.272 0-9.562 3.852-9.562 8.588s4.29 8.588 9.562 8.588 9.564-3.853 9.564-8.588-4.29-8.588-9.564-8.588z" fill="#3335cf"/><path d="M502.348 530.199h-32.109l-5.489-55.656h43.086l-5.488 55.656z" class="B"/><path d="M502.841 530.746h-33.104l-5.596-56.754h44.297l-5.597 56.754zm-32.108-1.098h31.113l5.381-54.559h-41.875l5.381 54.559z" fill="#3335cf"/><path d="M496.758 525.564h-20.937l-3.579-34.888h28.096l-3.58 34.888z" class="L"/><path d="M326.349 372.732l-38.147-2.314-49.771 13.138a56.04 56.04 0 0 0-38.059 34.173l-31.099 81.362 61.112-54.099 16.832 85.176 114.165-.366-.366-118.258-34.667-38.812z" class="F"/><path d="M295.897 416.89c-6.914 0-13.369-2.69-17.639-7.443l.816-.732c4.57 5.086 11.794 7.695 19.314 6.957 8.06-.782 15.103-5.285 19.325-12.356l.943.563c-4.403 7.373-11.751 12.069-20.161 12.885a27.08 27.08 0 0 1-2.598.126z" fill="#c5c5ff"/><path d="M300.671 402.002c-7.311 3.531-16.29.044-19.968-7.765l-1.24-2.643-12.58-26.704-7.695-16.351 37.18-17.953 16.192 34.37c6.652 14.136 1.35 30.652-11.889 37.046z" class="I"/><path d="M299.906 357.992c-3.271 15.924-11.45 26.835-20.451 33.601l-12.58-26.703 33.031-6.898z" class="J"/><path d="M304.271 338.064c0 19.23-10.853 32.413-24.619 39.208-14.167 6.993-28.96-19.875-36.026-37.837-7.334-18.644 12.856-32.626 29.759-32.626s30.886 12.025 30.886 31.255z" class="I"/><path d="M305.031 327.106c-1.647-19.74-5.663-38.401-23.968-33.631-6.952-9.688-36.042-9.505-43.177 13.525-4.604 14.857-19.394 22.117-19.394 22.117 17.747 9.321 34.107 5.83 56.9-11.515 7.135 10.418 27.443 11.149 27.443 11.149l2.196-1.645z" class="J"/><path d="M310.697 336.372c.8-6.233-2.505-11.792-7.383-12.417s-9.479 3.921-10.279 10.154 2.505 11.792 7.382 12.417 9.48-3.921 10.28-10.154z" class="I"/><path d="M303.658 330.545c-1.183.974-1.571 2.294-1.558 3.704.008.699.119 1.407.323 2.082.214.674.502 1.31.989 1.87l-.326.554c-.904-.296-1.578-1.056-1.994-1.859-.425-.816-.631-1.725-.631-2.642.007-.914.213-1.861.723-2.67.493-.812 1.318-1.442 2.206-1.623l.268.584zm-30.649 14.999c1.53-.101 2.677-1.571 2.564-3.283s-1.446-3.019-2.976-2.917-2.677 1.571-2.563 3.284 1.446 3.018 2.975 2.916zm-13.733 5.105c1.297-.502 1.893-2.085 1.331-3.538s-2.07-2.223-3.367-1.722-1.893 2.085-1.331 3.538 2.07 2.223 3.367 1.722zm21.046-16.217c.058.869-4.565.59-6.551 1.009-1.696.358-4.279 2.008-5.443.361-1.051-1.486 1.588-3.172 4.858-3.388s7.078 1.149 7.136 2.018zm-29.804 9.555c.52.712 2.88-1.738 4.236-2.366 1.157-.537 3.621-.484 3.216-2.342-.366-1.676-2.883-1.73-4.815-.323s-3.156 4.319-2.637 5.031zm18.513 19.575c1.058-1.272 2.569-2.097 4.1-2.612 1.547-.506 3.138-.728 4.744-.611l.118.632c-1.457.691-2.934 1.076-4.355 1.536-1.433.443-2.78.97-4.221 1.57l-.386-.515z" class="J"/><path d="M264.861 349.778c.08 1.194-.097 2.467-.714 3.629-.298.58-.726 1.103-1.159 1.539-.427.437-.859.802-.961 1.063-.033.133-.092.236-.062.433-.007.119.026.126.019.145.004.03.05.069.078.121.204.23.688.464 1.172.642.998.355 2.127.595 3.24.858l-.015.643c-1.199.162-2.391.155-3.626-.113-.617-.153-1.257-.331-1.907-.896-.149-.169-.312-.349-.415-.585-.106-.253-.175-.518-.172-.694-.058-.379.022-.861.208-1.258.427-.784.961-1.13 1.355-1.498a6.66 6.66 0 0 0 1.044-1.129c.593-.824.965-1.862 1.274-2.963l.641.063z" class="M"/><path opacity=".2" d="M294.805 347.014c.047-3.873-3.057-7.051-6.934-7.098a7.02 7.02 0 0 0-7.106 6.927 7.02 7.02 0 1 0 14.04.171z" fill="#fe5b52"/><path d="M389.936 412.471c-10.846-22.789-33.229-37.879-58.444-39.415l-5.148-.318 37.973 86.385 41.563-15.414-15.944-31.238z" class="F"/><path d="M257.28 356.165c-.412-6.306.686-21.111-3.156-19.466s-4.803 23.029-4.803 23.029-.549-35.642-4.665-33.997-4.117 27.417-13.173 54.834L180.62 487.879c-6.118 12.909 1.59 28.117 15.626 30.832a21.9 21.9 0 0 0 24.47-13.312c13.174-32.701 37.371-103.274 39.72-117.019 1.921-11.24 1.425-16.102.683-18.992-1.227-4.776-3.518-8.302-3.839-13.223z" class="I"/><path d="M231.805 378.199c1.556-4.228 2.574-8.647 3.521-13.062.934-4.422 1.719-8.877 2.525-13.33l2.385-13.376c.42-2.228.856-4.455 1.378-6.673.262-1.109.545-2.216.897-3.317.179-.551.373-1.1.624-1.647.123-.273.272-.547.455-.821.198-.259.412-.587.945-.753l-.04.011a2.76 2.76 0 0 1 .489-.051c.153.023.304.081.45.138.232.138.453.315.574.489.299.352.467.711.631 1.068a14.16 14.16 0 0 1 .732 2.159c.384 1.445.654 2.898.889 4.354.458 2.912.772 5.834 1.017 8.76.475 5.851.728 11.716.671 17.592l-1.249-.026a136.6 136.6 0 0 1 .764-9.908c.399-3.29.86-6.585 1.896-9.812.284-.803.595-1.604 1.072-2.371.252-.377.532-.759.951-1.068.395-.333 1.012-.493 1.577-.416.132.03.257.078.385.121.132.057.237.055.404.201.075.06.148.125.216.193.059.064.079.115.12.174.065.111.155.235.193.34.195.434.319.852.425 1.269.216.834.34 1.661.461 2.49.428 3.313.542 6.629.514 9.943-.011 1.671-.116 3.292.028 4.898a27.35 27.35 0 0 0 .842 4.781c.419 1.571.95 3.117 1.531 4.65.594 1.519 1.19 3.127 1.523 4.764.707 3.281.785 6.653.481 9.956-.307 3.309-.953 6.57-1.817 9.762l-.476-.124c.8-3.187 1.378-6.429 1.62-9.692s.097-6.554-.646-9.712c-.358-1.592-.907-3.089-1.527-4.633-.597-1.546-1.149-3.118-1.59-4.73s-.755-3.267-.902-4.941c-.16-1.682-.062-3.362-.064-4.985.008-3.277-.128-6.567-.566-9.791-.122-.8-.249-1.606-.453-2.367-.097-.381-.217-.753-.361-1.071-.032-.09-.078-.128-.112-.196-.04-.086-.068-.092-.068-.092.029-.02-.088-.042-.144-.064-.068-.02-.136-.052-.202-.07-.487-.078-1.015.351-1.408 1.002-.392.637-.683 1.382-.942 2.134-.965 3.065-1.412 6.341-1.783 9.589-.351 3.257-.579 6.544-.693 9.814l-1.249-.027c.055-5.827-.137-11.669-.583-17.484-.226-2.907-.521-5.809-.955-8.681-.222-1.434-.48-2.863-.841-4.248-.175-.693-.39-1.374-.661-1.998-.133-.305-.29-.617-.468-.821-.085-.131-.176-.169-.242-.229-.028.003-.048-.017-.071-.028-.02.016-.032.017-.056.004l-.041.011c-.02-.002-.199.131-.324.325-.131.198-.258.42-.368.662-.225.48-.413 1-.587 1.524-.344 1.053-.628 2.14-.894 3.232-.527 2.187-.975 4.402-1.406 6.62l-2.462 13.353c-.812 4.456-1.699 8.902-2.707 13.324-1.027 4.415-2.122 8.833-3.769 13.084l-.459-.176z" class="M"/><g class="I"><path d="M425.753 503.991c-.187 12.634-5.697 21.462-12.602 26.551l-14.018-.22-3.469-.054h-.077l-16.477-37.474-.033-.088-14.765-33.58 41.561-15.419 15.511 38.033c3.183 8.411 4.468 15.825 4.369 22.251z"/><path d="M414.242 488.863l-109.1 12.195-14.197-4.582a20.13 20.13 0 0 0-18.74 3.412c-12.379 9.878-32.505 28.085-27.289 29.551 8.782 2.467 20.251-2.15 30.548-4.733 5.687-1.427 11.696-.753 16.915 1.918l7.138 3.653 108.688-.016 6.037-41.398z"/></g><path d="M247.516 527.503c2.944-1.72 5.933-3.353 8.932-4.966 2.991-1.63 6.033-3.158 9.047-4.741 1.486-.779 3.077-1.58 4.738-2.155s3.378-.985 5.12-1.177a26.06 26.06 0 0 1 5.231-.06c1.731.191 3.445.525 5.08 1.088l-.168.62c-1.653-.323-3.316-.541-4.983-.56-1.664-.055-3.327.058-4.958.335s-3.237.684-4.781 1.265c-1.559.547-2.996 1.324-4.538 2.096l-9.157 4.527-9.271 4.301-.292-.573zm1.593-5.443l6.169-5.347 6.506-4.941 6.909-4.411c2.416-1.267 4.876-2.65 7.764-2.92l.053.641c-1.247.329-2.463.814-3.624 1.488-1.186.593-2.324 1.316-3.459 2.026l-6.699 4.514-6.604 4.706-6.604 4.74-.411-.496zm144.419-30.524l-14.637.359.04 1.643 14.637-.358-.04-1.644z" class="M"/><path d="M354.189 437.239l-.986.484 10.626 21.616.985-.484-10.625-21.616z" class="L"/><path opacity=".2" d="M425.75 503.987c-.187 12.634-5.698 21.462-12.603 26.55l-14.018-.219c-.011-.022-.011-.034-.011-.055a21.24 21.24 0 0 1-.79-5.758c0-9.069 5.643-16.811 13.623-19.925 2.415-.944 5.039-1.459 7.783-1.459 2.085 0 4.105.296 6.016.866z" fill="#fe5b52"/><path d="M251.962 517.035h-62.571v13.16h62.571v-13.16z" class="J"/><path d="M210.621 530.202h-99.345l-28.542-99.249h99.346l28.541 99.249z" class="L"/><g class="J"><path d="M110.887 530.314l-28.692-99.775h30.735v.823H83.289l28.391 98.724-.792.228zm89.103-36.398l-18.21-62.554h-45.796v-.823h46.414l18.382 63.147-.79.23z"/><path d="M564.308 528.844H23.781v2.158h540.527v-2.158z"/></g><defs><clipPath id="A"><path transform="translate(10 86.113)" d="M0 0h580v296.888H0z" class="B"/></clipPath><path id="B" d="M125.59 350.954l-82.06-.095c-.717-.002-1.296-.438-1.296-.975s.584-.97 1.298-.97h.003l82.058.095c.717.002 1.296.438 1.296.975s-.582.97-1.299.97z"/><path id="C" d="M85.62 369.696l-42.711-.098c-.373-.002-.674-.45-.674-1.002s.304-.998.676-.998h.001l42.71.098c.373.002.674.45.674 1.002s-.303.998-.676.998z"/></defs></svg>