<svg xmlns="http://www.w3.org/2000/svg" width="600" height="600" fill="none" xmlns:v="https://vecta.io/nano"><style><![CDATA[.B{stroke-miterlimit:10}.C{stroke:#000}.D{fill:#0745b4}.E{stroke-width:2.067}.F{fill:#fff}.G{stroke-linecap:round}.H{fill:#0668e1}.I{stroke-width:1.033}.J{stroke:#0668e1}.K{fill:#f17d52}.L{fill:#e77a42}]]></style><g clip-path="url(#B)"><path d="M248.543 305.57c-28.928-30.713-63.082-93.576 31.72-99.319 118.501-7.18 207.675 101.114 220.842 130.431s5.985 86.156-49.675 57.438c-53.464-31.112-162.549-109.73-171.167-175.305-10.774-81.968 56.257-129.234 98.75-64.617s38.902 176.503 0 235.736c-29.925 2.393-95.759 3.47-119.698-11.368-29.925-18.548-13.947-67.668 103.357-138.869 93.844-56.961 156.115-33.943 174.915 0 22.869 41.291-29.017 87.079-112.381 106.294-161.573 37.241-124.878-51.645-108.706-75.745C337 239.697 409 159 451.5 159s76.738 48.638 30.5 88.5c-9.973 8.598-132.82 121.809-188.571 89.182-35.787-20.944-39.465-26.258-44.886-31.112z" stroke-width="2" class="J"/><g class="H"><rect x="280" y="238.391" width="10" height="25" rx="5" transform="rotate(333.961 280 238.391)"/><rect width="8" height="20" rx="4" transform="matrix(-.644635 -.76449 -.76449 .644635 460.246 271.379)"/><rect width="8" height="20" rx="4" transform="matrix(-.032211 -.999481 -.999481 .032211 460.246 162.996)"/><rect width="6" height="15" rx="3" transform="matrix(-.792264 .610178 .610178 .792264 371.453 139.133)"/><rect width="6" height="15" rx="3" transform="matrix(-.920232 -.391374 -.391374 .920232 256.391 332.348)"/><rect width="6" height="15" rx="3" transform="matrix(-.931341 .364148 .364148 .931341 539.98 236.984)"/></g><path d="M538.267 176.882c.378-1.206-.596-2.194-2.035-2.645-.976-.305-2.021-.254-2.985.116-1.36.521-2.89.301-3.938-.709l-.251-.242c-2.081-2.006-1.268-5.586 1.517-6.363 2.539-.709 5.561-.65 9.054.444 6.11 1.912 9.86 5.906 8.337 10.77-1.864 5.954-8.419 5.056-9.357 8.052l-8.017-2.509c1.473-4.71 6.932-4.54 7.675-6.914zm-10.728 12.708c.816-2.608 3.539-3.934 6.574-2.984s4.516 3.592 3.699 6.2c-.804 2.568-3.563 4.012-6.598 3.062s-4.48-3.71-3.675-6.278z" fill="#7db7ff"/><path d="M372.271 59.856c-.214-2.011-2.27-2.841-4.669-2.585-1.627.173-3.126.914-4.306 2.07-1.665 1.63-4.048 2.283-6.23 1.468l-.522-.195c-4.332-1.618-5.418-7.387-1.828-10.302 3.273-2.657 7.746-4.496 13.566-5.116 10.182-1.086 18.226 2.386 19.09 10.492 1.059 9.923-9.131 12.779-8.599 17.773l-13.36 1.425c-.836-7.847 7.281-11.074 6.858-15.029zm-7.645 25.477c-.463-4.345 2.687-8.026 7.745-8.566s8.912 2.394 9.376 6.74c.456 4.28-2.672 8.155-7.73 8.694s-8.935-2.588-9.391-6.868z" class="H"/><g fill="#35435b"><path d="M408.681 502.031h21.295l37.094 113.051h-2.843l-55.546-113.051zm-69.857 0H317.53l-37.116 113.051h2.865l55.545-113.051zm55.701 113.048h3.571l6.842-105.13h-17.254l6.841 105.13z"/></g><path d="M490.669 375.679c-2.095 11.572-4.661 23.294-7.013 34.673l-11.01 53.312-5.559 26.881h-128.26l1.604-6.235 6.692-25.727 14.068-54.102 8.659-33.328c3.613-13.878 6.692-31.214 18.9-40.438a43.4 43.4 0 0 1 25.998-8.732h21.68c8.488 0 18.429-.876 27.794 0 8.381.79 17.04 3.416 22.748 9.202 2.587 2.583 4.469 5.786 5.495 9.287 3.399 11.401.257 23.913-1.796 35.207z" fill="#6a89ce"/><g fill="#fdcd39"><path d="M467.07 490.566a47.27 47.27 0 0 1-10.946 14.113l-1.967 1.644c-8.403 6.64-18.793 10.27-29.505 10.27H290.085a21.07 21.07 0 0 1-18.109-10.27c-.32-.534-.62-1.089-.898-1.644-1.411-2.882-2.138-6.063-2.138-9.266v-.299c.022-2.498 2.053-4.526 4.554-4.526l193.576-.022z"/><path d="M454.176 506.301a47.47 47.47 0 0 1-29.505 10.269H290.104a21.07 21.07 0 0 1-18.109-10.269h182.181z"/></g><path d="M490.667 375.678c-2.095 11.572-4.661 23.294-7.013 34.673l-11.011 53.312-5.558 26.881h-128.26l1.603-6.235c29.719-2.092 59.288-10.675 84.666-26.432 14.111-8.753 25.977-21.243 35.277-35.719 9.899-15.628 16.826-32.944 20.397-51.091 2.672-13.473 2.694-27.052 6.157-39.84 2.587 2.583 4.469 5.786 5.495 9.287 3.442 11.358.299 23.87-1.753 35.164z" fill="#4f72b2"/><path d="M316.599 371.898c1.817 4.248 5.751 13.771 7.697 19.343s9.493 63.945 9.493 63.945h97.835s1.262-50.686-3.036-75.325l-4.297-24.638-33.31-27.969-35.192 9.33-22-1.196-17.19 36.51z" class="F"/><g fill="#db6a4a"><path d="M305.821 275.954c7.547-4.847 16.334-8.348 25.527-8.22a2.47 2.47 0 0 1 1.176.235c.492.363.706.982.556 1.558-.171.555-.449 1.068-.812 1.516.149-.213 2.565-.192 2.95-.213.129-.022.278-.022.406 0a1.18 1.18 0 0 1 .792 1.003c.256 1.281-.535 2.285-1.176 3.288.791-.192 1.582.683 1.56 1.495 0 .811-.534 1.494-1.09 2.092-.748.683-1.604 1.26-2.523 1.708 0 0 1.775-.342 2.01.534s-.962 2.22-1.582 2.882c-3.442 3.502-7.975 6.256-11.759 11.295-1.454 1.921-6.286 7.28-7.612 9.308-2.458 3.779.449 1.452-2.929 4.441-2.266 2.007-9.493 5.338-9.493 5.338l-17.98-2.37 10.497-22.461c.513-1.003-.021-1.323 11.482-13.429z"/><path d="M282.79 310.817s7.355-16.888 12.593-24.788c1.539-2.327 5.452-8.689 7.461-10.611 2.865-2.733 7.099-4.804 11.759-7.472.663-.385 2.801-1.132 3.55-.555s.534 1.622-.043 2.668a14.36 14.36 0 0 1-2.758 3.352c-1.689 1.409-3.314 2.669-3.827 4.804-.428 1.815-.107 3.737.064 5.615.47 5.21-.3 10.462-2.266 15.309"/></g><g class="B C I"><path d="M318.133 270.039c-.748 1.26-1.668 2.37-2.758 3.352-1.689 1.409-3.314 2.669-3.827 4.804-.428 1.815-.107 3.736.064 5.615.47 5.21-.299 10.462-2.266 15.308m22.666-28.141c-2.416 1.067-4.918 1.814-7.398 2.796s-8.039 3.545-9.856 5.402m20.629-4.437c-1.625.918-3.464 1.324-5.238 1.922-3.443 1.174-10.049 5.145-12.593 7.707"/></g><path d="M255.124 396.374c7.034 3.736 15.757 1.067 19.477-5.957l38.036-81.281-23.176-12.32-43.766 68.792c-5.879 11.102-1.667 24.873 9.429 30.766z" class="D"/><g class="B C E"><path d="M312.57 386.707l-36.709 11.657" class="G"/><path d="M312.637 309.142l-23.155-12.298"/></g><path d="M273.77 399.011l46.886-14.881c11.952-3.8 18.58-16.568 14.795-28.524s-4.81-19.664-16.762-15.864l-58.624 15.971c-11.952 3.8-18.579 16.568-14.774 28.524 3.763 11.935 16.527 18.553 28.479 14.774z" class="D"/><path d="M312.336 309.793l-29.975 66.4" class="B C E G"/><path d="M349.312 356.764l-4.019-16.867 21.23-8.284-7.205 25.151 2.609 70.179-11.481 13.451-9.194-12.234 8.06-71.396z" class="D"/><path d="M359.324 356.762H349.318" class="B C E"/><path d="M372.4 455.17c.919-24.617 9.899-102.845 18.601-127.932l15.543 2.242 23.839 125.69H372.4z" class="D"/><path d="M390.977 327.238l-23.797 26.624-12.764-17.422-10.305 16.291-10.326-17.337" class="B C E G"/><g class="F"><path d="M354.416 336.439l27.88-18.404 8.681 9.202-23.797 26.624-12.764-17.422z"/><path d="M339.114 326.746l15.308 9.693-10.305 16.291-10.327-17.337 5.324-8.647z"/></g><path d="M333.659 335.668s-.535 32.111.449 59.739c.983 27.606 4.04 59.781 4.04 59.781s-12.357.512-12.55 0-7.483-53.184-8.466-59.611-7.056-19.365-7.056-19.365l8.574-36.445 15.009-4.099z" class="D"/><g class="B C I"><path d="M325.578 455.171c-.192-.534-7.483-53.184-8.466-59.611s-7.056-19.365-7.056-19.365m24.651 42.441s-14.496-41.164-13.405-79.531"/></g><path d="M357.456 421.652c-9.749 1.345-19.648 2.712-28.67 6.833-8.253 3.757-12.551 6.682-17.981 14.176-.77 1.046-3.934 4.954-2.865 6.213.855 1.046 2.651.918 3.72.662 1.668 1.601 3.186 1.388 5.473.256.62 1.217 3.635 1.217 6.5.299.984.982 2.865 1.751 5.773 1.559l19.99-1.858 20.76-.256" class="K"/><path d="M403.166 329.418s21.188.149 28.5 2.498c9.193 2.946 14.688 19.899 19.028 43.171 6.072 32.431 5.174 41.484 5.815 48.017 1.305 13.13.193 33.285-24.48 33.285-36.838 0-70.341-.299-70.341-.299l-8.701-35.249 55.545-7.324-5.238-44.302" class="D"/><g class="C B"><g class="I"><path d="M323.61 450.096s5.046-4.527 9.856-5.338 11.139-1.516 11.139-1.516m-6.457-5.844s-9.77 2.221-13.512 4.335-7.504 8.07-7.504 8.07m14.321-17.338s-10.412 3.117-14.325 7.451c-2.458 2.797-4.318 6.085-5.473 9.608m92.134-117.985s-8.926 53.518-22.734 84.737m-28.075 4.584l55.524-7.302-5.217-44.324"/><path d="M408.527 413.558s11.353-2.221 23.262 3.352"/></g><g class="E"><path d="M363.627 435.703l1.033 3.1m5.439-3.1l1.034 3.1"/></g></g><path d="M374.853 298.222l9.877 27.948s-20.482 11.871-30.317 10.27-12.785-4.1-12.785-4.1l-2.544-24.147 33.289-13.664 4.661-1.666-2.181 5.359z" fill="#e56d49"/><path d="M335.191 316.005c-5.259-8.049-5.43-22.098-4.639-32.026.513-6.533 2.159-12.105 7.055-16.333 7.975-6.896 23.112-11.337 31.899-2.604 7.355 7.301 9.108 17.977 7.548 27.776-1.219 7.665-3.25 12.896-8.296 18.682-5.067 5.786-15.779 11.102-23.283 10.27-4.661-.555-7.782-1.943-10.284-5.765z" class="K"/><path d="M316.423 275.358l-.32-.705c-1.689-4.099-.235-9.415 3.506-11.657 1.711-1.025 3.742-1.431 5.431-2.455 3.549-2.199 4.917-6.811 8.06-9.587 5.815-5.188 13.812-.555 20.439-.277 3.186.128 6.372 0 9.579.171 4.96.256 10.006 1.345 14.239 4.056 7.184 4.59 11.096 13.323 11.609 21.884s-.662 18.789-10.305 32.218c-3.143-5.103-3.784-17.806-6.927-22.909-.342-.555 1.988-.897 1.518-1.345-.62-.555-1.304-1.003-2.053-1.345-2.138-1.089-4.361-2.22-6.734-2.22-2.01 0-4.041.811-5.965.213-2.352-.747-3.678-3.373-4.02-5.85-.278-2.05-.47-4.74-2.416-5.359-2.651-.854-4.383 3.288-7.141 3.544-.919.086-1.817-.299-2.694-.576-1.967-.598-4.169-.747-6.114-.086a6.43 6.43 0 0 0-3.592 3.352c-1.069 2.2-2.395 3.075-4.875 3.886-4.297 1.345-9.279-1.089-11.225-4.953z" fill="#1b140f"/><path d="M367.777 288.571c.856-3.48 4.041-5.892 6.628-5.807 3.827.128 6.158 3.694 6.799 7.046.62 2.925.171 5.978-1.24 8.604-1.39 2.647-4.575 5.743-7.654 5.551-2.095-.15-3.549-2.455-3.977-4.292" class="K"/><g class="B I"><path d="M372.788 296.407s.527-1.905 1.378-2.756 2.756-1.378 2.756-1.378" stroke="#1b1c17" class="G"/><g class="C"><path d="M368.335 300.482c.534.939 2.138 4.12 5.43 3.437 1.497-.299 5.952-4.049 8.325-9.579"/></g></g><g class="G B C"><path d="M346.957 308.805c-4.133 0-4.133 0-7.234 2.068" class="E"/><path d="M337.914 287.953c-.406 2.05-.748 8.946-.898 11.06-.064.811-.021 1.793.641 2.263a2.22 2.22 0 0 0 1.476.256c1.624-.149 3.228-.512 4.746-1.11" class="I"/><g class="E"><path d="M355.293 280.776c-3.293-1.9-6.97-3.075-10.776-3.374m-8.978 1.582c-2.694.897-5.495 1.879-7.333 4.27"/></g></g><g fill="#000"><path d="M344.966 287.611c0 1.238.599 2.284 1.368 2.305.77.043 1.39-.96 1.412-2.199s-.599-2.284-1.369-2.306c-.769-.042-1.389.94-1.411 2.2zm-13.555 2.793c0 1.238.599 2.284 1.369 2.305.769.043 1.389-.96 1.411-2.199s-.599-2.284-1.368-2.306c-.77-.042-1.39.94-1.412 2.2z"/></g><g stroke="#f9b472" stroke-width="3.1" class="B"><path d="M330.819 299.461c-2.547-.128-4.437-3.706-4.222-7.993s2.455-7.658 5.002-7.531 4.437 3.706 4.222 7.993-2.456 7.658-5.002 7.531zm22.269-13.287c.256 4.249-2.267 8.37-5.623 9.224s-6.286-1.9-6.521-6.149 2.266-8.369 5.623-9.223c3.356-.876 6.285 1.878 6.521 6.148z"/><path d="M335.302 287.676l5.944-1.516m11.716-2.414l16.292 2.05"/></g><path d="M314.796 391.461l24.267 59.824h54.562c0 3.416-2.523 6.149-5.623 6.149H235.134l-25.849-63.731c-.962-2.349.62-4.996 2.951-4.996h98.755c1.71.064 3.228 1.153 3.805 2.754z" fill="#adadad"/><path d="M623 475.086H-23V677.858H623V475.086Z" fill="url(#A)"/><path opacity=".2" d="M623 471.496H-23v8.972h646v-8.972z" fill="#35435b"/><path d="M-22.366 457.141h644.732c.349 0 .634.337.634.75v16.443c0 .413-.285.751-.634.751H-22.366c-.349 0-.634-.338-.634-.751v-16.443c.016-.413.285-.75.634-.75z" class="D"/><path d="M128.898 374.865H46.723a.72.72 0 0 1-.723-.723v-63.443a.72.72 0 0 1 .723-.722h82.175a.72.72 0 0 1 .723.722v63.443c0 .399-.323.723-.723.723z" class="F"/><path d="M128.898 309.975H46.723a.72.72 0 0 1-.723-.722v-7.53a.72.72 0 0 1 .723-.723h82.175a.72.72 0 0 1 .723.723v7.53a.72.72 0 0 1-.723.722z" class="H"/><use href="#C" fill="#abc5c6"/><g fill="#ebf7f7"><path d="M59.232 307.616a2.041 2.041 0 1 0 0-4.081 2.041 2.041 0 1 0 0 4.081zm10.794-2.04a2.041 2.041 0 1 1-4.081 0 2.041 2.041 0 1 1 4.081 0z"/></g><path d="M118.03 323.207l-13.533 22.369c-.27.446-.908.469-1.209.043l-10.356-14.656c-.301-.426-.942-.403-1.21.045l-15.425 25.758c-.328.547-1.15.433-1.318-.182l-4.706-17.335c-.177-.651-1.07-.726-1.353-.114l-10.869 23.484" stroke="#94c4ff" stroke-width="2" stroke-linejoin="round" class="B G"/><g class="H"><use href="#D"/><path d="M121.03 321.069a3 3 0 0 1-3 3 3 3 0 0 1-2.999-3 3 3 0 0 1 2.999-2.999 3 3 0 0 1 3 2.999zm1.84 40.208h-18.534c-.399 0-.723-.323-.723-.722s.324-.723.723-.723h18.534a.72.72 0 0 1 .723.723c0 .398-.324.722-.723.722zm0 3.512h-18.534c-.399 0-.723-.323-.723-.723a.72.72 0 0 1 .723-.722h18.534a.72.72 0 0 1 .723.722c0 .4-.324.723-.723.723zm0 3.516h-18.534c-.399 0-.723-.324-.723-.723s.324-.723.723-.723h18.534c.4 0 .723.324.723.723s-.324.723-.723.723zM537 49.145h-40.844V100H537V49.145z"/></g><g class="L"><path d="M491.559 54.662v3.679h4.597v-9.196c-2.61.437-4.597 2.742-4.597 5.517z"/><use href="#E"/></g><g class="F"><use href="#F"/><path d="M532.381 68.789h-21.94v1.638h21.94v-1.638z"/></g><path d="M507.237 78.719h-6.467v6.57h6.467v-6.57z" class="L"/><g class="F"><path d="M532.381 78.719h-21.94v1.637h21.94v-1.637zm0 4.933h-21.94v1.637h21.94v-1.637z"/></g><g class="L"><path d="M504.556 68.506l-2.689-2.361 1.083-1.272 1.382 1.213 2.81-3.597 1.297 1.045-3.883 4.972zm0 14.484l-2.689-2.362 1.083-1.272 1.382 1.213 2.81-3.597 1.297 1.045-3.883 4.972z"/></g><path d="M530.191 45.25v50.355h-40.343V45.25h40.343z" fill="#d8e9ff" stroke-width=".5" class="J"/><path d="M485 50.517v3.679h4.598V45c-2.611.437-4.598 2.742-4.598 5.517z" fill="#90c2ff"/><g class="H"><path d="M500.682 59.715h-6.467v6.57h6.467v-6.57z"/><use href="#G"/><path d="M525.826 64.644h-21.939v1.638h21.939v-1.638zm-25.144 9.93h-6.467v6.57h6.467v-6.57zm25.144 0h-21.939v1.637h21.939v-1.637zm0 4.93h-21.939v1.637h21.939v-1.637z"/></g><g fill="#fff5f2"><path d="M497.997 64.361L495.309 62l1.083-1.272 1.381 1.213 2.81-3.597 1.296 1.046-3.882 4.971zm0 14.482l-2.688-2.362 1.083-1.273 1.381 1.214 2.81-3.598 1.296 1.046-3.882 4.972z"/></g><g class="J"><path d="M112.89 135.5H98.121c-1.46-.012-2.71 1.079-2.908 2.557l-.001.004-1.28 8.976-.038.271-.248.113a28.07 28.07 0 0 0-4.926 2.896l-.226.166-.259-.106-8.334-3.396c-1.369-.524-2.916.037-3.644 1.332l-.002.003-7.364 12.892c-.724 1.287-.419 2.913.714 3.842l7.085 5.61.218.172-.031.275c-.215 1.92-.215 3.858 0 5.778l.031.276-.218.172-7.078 5.606a3.04 3.04 0 0 0-.736 3.814l7.393 12.967.003.006c.715 1.288 2.253 1.839 3.604 1.301h.001l8.371-3.408.259-.104.225.164a29.13 29.13 0 0 0 4.922 2.901l.246.114.038.269 1.284 9.002v.002c.205 1.467 1.449 2.545 2.899 2.533h14.767c1.455.006 2.697-1.085 2.891-2.559v-.005l1.284-8.97.039-.27.248-.114.646-.307c1.5-.734 2.933-1.601 4.282-2.592l.226-.166.259.106 8.334 3.396c1.369.526 2.916-.035 3.643-1.331l.001-.004 7.363-12.896a3.05 3.05 0 0 0-.518-3.664l-.204-.182-7.081-5.602-.218-.173.031-.275c.218-1.92.218-3.858 0-5.777l-.031-.276.218-.172 7.078-5.605h-.001c1.154-.925 1.462-2.571.717-3.861l-.001-.003-7.371-12.915-.003-.006c-.714-1.288-2.251-1.84-3.601-1.303v.001l-8.366 3.406-.258.104-.225-.164a29.08 29.08 0 0 0-4.921-2.901l-.247-.114-.039-.269-1.283-9.002v-.002c-.203-1.464-1.443-2.542-2.89-2.533zm-7.384 21.75c9.144 0 16.546 7.505 16.546 16.75 0 9.1-7.173 16.515-16.118 16.744l-.428.006c-9.139-.011-16.534-7.51-16.545-16.75l.005-.433c.227-9.045 7.54-16.317 16.54-16.317z" fill="#dbebff"/><path d="M226.759 60.728c-8.846-8.846-23.189-8.846-32.035 0s-8.845 23.188.001 32.034 23.189 8.847 32.035.001 8.846-23.189-.001-32.036z" fill="#7db7ff"/></g><path d="M213.977 64.246l-2.707 16.967-13.726-2.19" stroke="#fff" class="B"/></g><defs><linearGradient id="A" x1="300" y1="475.086" x2="300" y2="598" gradientUnits="userSpaceOnUse"><stop stop-color="#fff"/><stop offset="1" stop-color="#f9f6ff"/></linearGradient><clipPath id="B"><path d="M0 0h600v600H0z" class="F"/></clipPath><path id="C" d="M50.474 307.616a2.04 2.04 0 1 0 0-4.081 2.04 2.04 0 1 0 0 4.081z"/><path id="D" d="M94.929 328.741a3 3 0 0 1-3 3 3 3 0 0 1-2.999-3 3 3 0 0 1 2.999-2.999 3 3 0 0 1 3 2.999z"/><path id="E" d="M507.237 63.859h-6.467v6.57h6.467v-6.57z"/><path id="F" d="M532.381 63.859h-21.94v1.637h21.94v-1.637z"/><path id="G" d="M525.826 59.715h-21.939v1.637h21.939v-1.637z"/></defs></svg>