<svg xmlns="http://www.w3.org/2000/svg" width="570" height="202" fill="none" xmlns:v="https://vecta.io/nano"><g clip-path="url(#A)" fill="#0668e1"><g stroke="#fff" stroke-width="1.68" stroke-linejoin="round"><path d="M342.58 27.8c8.78 8.36 17.38 20.11 25 32.49a318 318 0 0 1 18.3 34.52c.01.03.03.06.04.08.07 8.54-.32 18.81-1.17 26.77-1.2 11.28 1.83 19.78 13.33 20.05 1.83 2.17 3.51 3.61 5.37 4.52.9.44 1.84.76 2.86.97 3.03.64 6.58.32 11.84-.29.85.67 1.66 1.24 2.44 1.74 4.58 2.89 8.32 3.05 13.32 3.26 3.75.16 8.26.35 14.48 1.9 5.79 1.45 11.73 2.47 17.42 3.17l1.44.17c2.78.32 5.49.56 8.09.73a170.7 170.7 0 0 0 8.84.37c22.2 12.16 37.82 25.2 54.68 39.27l3.07 2.56c1.87 1.56 4.23-1.28 2.36-2.84-17.54-14.61-32.9-27.79-55.04-40.39 13.16-2.1 22.95-7.58 26.62-18.9.75-2.31-2.76-3.45-3.51-1.14-2.71 8.35-9.45 13.01-18.57 15.36a67.3 67.3 0 0 1-18.45 1.98 91.3 91.3 0 0 1-8.09-.56c-6.07-.68-12.09-1.9-17.97-3.37a68.6 68.6 0 0 0-15.22-2.02c-5.09-.21-8.68-.37-13.46-4.07-.24-.18-.48-.38-.72-.58-.4-.33-.91-.47-1.39-.41-5.33.62-8.8.99-11.42.43-1.31-.28-2.47-.82-3.62-1.72a19.3 19.3 0 0 1-3.06-3.15c-.38-.48-.96-.72-1.53-.69-9.61.28-11.43-6.7-10.44-15.99 1.63-15.21 1.01-32.22 3.15-48.32.73-5.49 6.58-24.72 8.64-33.75l1-4.79a8 8 0 0 0 4.12 1.07c2.23-.12 4.11-1.57 5.24-4.69.8-2.22 1.2-5.28 1.12-9.14a1.4 1.4 0 0 0-.38-1.03c-1.62-1.69-3.74-3.67-5.97-5.08a16.9 16.9 0 0 0-1.7-.94s-.79-.85-.18-1.13c5.58-2.58 16.26 1.06 14.92 14.53a372.8 372.8 0 0 1-6.18 38.87c-3.43 1.8-7.81 6.91-8.3 12.23-.13 1.38-.28 2.72-.44 4.01-1.35 10.92-3.74 18.92-6.14 30.3-.5 2.38 3.11 3.14 3.61.76l2.53-11.24c1.74-7.55 3.27-14.54 4.1-23.5.37-3.94 2.17-6.26 4.67-7.54.35-.05.68-.18.94-.42 2.2-.86 4.81-1.06 7.43-.94a34.8 34.8 0 0 1 3.09.29 158 158 0 0 0 13.41.83c4.45.04 8.84-.24 13.11-1.09a92.4 92.4 0 0 0 7.45-2.5c1.59 4.14 5.55 4.33 9.59 3.24 2.96-.8 5.96-2.29 8.09-3.43l.96-.52c.43-.23.68-.66.71-1.11.12-1.64-.59-3.09-1.67-4.28-.16-.18-.33-.35-.51-.52a5.2 5.2 0 0 1 .51.18 6.2 6.2 0 0 1 3.28 3.02c2.11 4.15.09 9.57-3.28 13.9-.13.17-.27.34-.41.51-1.15.57-2.36 1.07-3.64 1.5s-2.63.8-4.04 1.09c-1.96.41-4.04.68-6.25.82a157.6 157.6 0 0 1-10.02-1.08c-3.82-.52-7.58-1.15-10.99-1.8-7.64-1.47-12.85 1.72-16.04 9.09a104.9 104.9 0 0 0-3.35 9.11c-2.08 6.36-3.93 12.88-6.78 18.87-1.04 2.19 2.29 3.77 3.33 1.58 1.34-2.81 2.45-5.68 3.45-8.57 2.28-6.56 4.02-13.23 6.75-19.54 2.5-5.79 6.01-8.08 11.96-6.94a205.7 205.7 0 0 0 11.18 1.84c1.71.23 9.62 1.2 10.72 1.1 2.12-.13 4.14-.38 6.05-.74.57-.11 1.14-.23 1.69-.36 1.79 2.4 4.05 2.92 6.39 2.57 1.82-.28 3.7-1.08 5.45-1.93.49-.24.78-.73.77-1.24a6.8 6.8 0 0 0-1.53-4.11c.12-.08.24-.17.36-.25 4.15 4.13 1.76 12.16-5.05 15.41a14.4 14.4 0 0 1-4.14 1.24c-.13.02-.26.05-.38.1a65.2 65.2 0 0 1-3.58.95 54.2 54.2 0 0 1-6.78 1.14c-3.59.37-7.31.38-11.28-.03-1.36-.14-2.37 1.23-1.91 2.47 1.42 3.82.76 6.99-1.51 10.48-.51.79-.38 1.57.11 2.24 3.67 4.92 4.38 9.54 1.2 16.33-1.03 2.2 2.31 3.76 3.34 1.56 3.61-7.69 2.95-13.51-.91-19.16a14.8 14.8 0 0 0 2.21-7.91 183.8 183.8 0 0 1 15.54-1.61c2.76-.15 5.46-.21 8.09-.15a68.1 68.1 0 0 1 9.56.83c9.91 1.62 18.24 5.76 23.68 14.21 1.31 2.04 4.42.05 3.1-2-8.1-12.58-21.79-16.4-36.22-16.74 3.47-1.28 6.18-3.51 8-6.13 3.79-5.46 3.85-13.03-1.98-17.07-.08-.06-.17-.11-.26-.15 2.06-4.26 2.35-8.28 1.35-11.48a51.2 51.2 0 0 1 14.35 11.83c9.01 10.76 9.43 19.96 10.32 21.24 12.47 17.91 39.69 37.56 59.57 47.31 1.38.68 2.54-.41 2.65-1.57v-.33a1.7 1.7 0 0 0-1.03-1.41c-10.97-5.4-23.13-13.19-33.89-21.74-9.9-7.85-18.59-16.31-24.05-24.07a50.2 50.2 0 0 0-10.73-21.8 54.6 54.6 0 0 0-20.42-15.14c-1.79-.75-2.34-1.16-3.99-1.97-.11-.05-.22-.11-.34-.17a45.8 45.8 0 0 0-7.75-4.97c-4.59-2.34-9.34-3.83-14.88-5.56l-1.96-.61c-4.66-3.69-8.28-8.62-11.33-14.38-3.16-5.98-5.72-12.85-8.18-20.17-1.82-5.42-5.99-8.19-10.3-8.77-5.31-.72-9.9 1.9-11.5 7.01-1.59-.27-3.2-.2-4.7.22-2.09.58-4.22 2.35-4.52 4.68-.23.31-.37.7-.37 1.12.06 11.06-2.54 27.14-7.33 37.8-.92-1.73-3.81-4.36-4.91-5.96-1.81-2.65-3.83-5.07-6-7.04-2.73-4.61-5.49-8.25-8.26-11.02-1.82-1.83-3.63-3.47-5.44-4.87-8.56-6.64-16.92-7.96-25.03.09-.74.75-.72 1.93.03 2.64l.01.02zm136.1 56.61a14.3 14.3 0 0 1-3.35 1.21c-1.21.23-2.35.12-3.35-.64 1.16-.37 2.27-.79 3.35-1.27a30.7 30.7 0 0 0 2.3-1.14c.48.48.87 1.18 1.05 1.83v.01zm-18.37-16.54a57.3 57.3 0 0 0 6.94-3.18c1.14-.63 2.25-1.3 3.34-2.03 1.46.72 3.22 1.99 3.6 3.5-1.5.81-4.24 2.3-6.94 3.12-2.9.88-5.75.98-6.94-1.4v-.01zm-42.59-12.52c1.17 1.99 1.5 3.93 2.87 5.79 1.88 2.55 3.95 4.94 6.22 7.12-2.32-.19-4.27-.47-6.22-.58s-2.97-.04-5.29.45l2.42-12.76v-.01zm-4.2-44.06c1.07-3.45 3.25-5.19 7.06-4.44 2.85.56 5.57 2.52 6.8 6.22 4.48 13.35 10.05 28.01 20.99 36.49.99.77 10.76 2.8 18.86 7.28a36.9 36.9 0 0 1 2.86 1.74c-.16.06-.32.14-.47.25-.77.56-1.57 1.09-2.4 1.6-2.2 1.35-4.59 2.51-7.08 3.55a126.9 126.9 0 0 1-10.77 3.81 60.7 60.7 0 0 1-12.28 1c-.99 0-2.52-.06-4.22-.14-4.94-3.79-9.02-8.74-12.32-14.1-1.02-1.66-.08-3.36-.95-5.08A322.2 322.2 0 0 0 422 31.04c1.04-10.42-3.23-17.08-8.51-19.74l.04-.01zm-67 15.2c5.35-4.97 10.49-3.64 15.19-1.28 2.07 1.04 4.05 2.52 5.88 4.17 6.08 5.52 10.49 13.08 11.19 13.7v.15c4.2 3.75 7.5 9.49 9.87 14.76-1.2 3.41-3.09 23.23-2.92 27.8-5.07-10.5-11.27-21.87-18.14-32.46-6.56-10.11-13.72-19.54-21.06-26.85h-.01zm55.2 5.81c.78-4.73 1.28-9.45 1.42-14.04a9.6 9.6 0 0 1 1.68 1.09l.69.51c1.22.95 2.39 2.05 3.42 3.1.03 3.29-.31 5.87-.97 7.7-.66 1.81-1.56 2.67-2.63 2.84-1.05.17-2.28-.31-3.6-1.19h-.01z"/><path d="M401.73 32.3c.78-4.73 1.28-9.45 1.42-14.04.73.4 1.46.9 2.18 1.45l.18.14c1.22.95 2.39 2.05 3.42 3.1.03 3.29-.31 5.87-.97 7.7-.66 1.81-1.56 2.67-2.63 2.84-1.05.17-2.28-.31-3.6-1.19v.01z"/></g><path d="M401.21 35.2s5.81 3.28 8.43-1.68c0 0 2.68-5.11 1.97-11.59 0 0-5.22-5.65-7.77-6.42 0 0-1.73-1.09 1.09-1.75 0 0 10.53-2.35 13.33 9.86 0 0 .69 7.27-1.84 20.7l-4.16 23s-6.73 4.85-7.61 9.33-1.05 6.05-1.05 6.05-1.55 11.92-2.06 12.63l-4.12 18.36s-.4 1.94.54 2.32 2.5 1.09 2.96-1.05l3.29-14.6c-.1.43 2.07-10.39 2.07-10.39l1.63-5.12s-6.4 51.94-9.6 52.86-5.27-.74-5.27-.74-5.11-2.68-4.86-10.54.85-11.5.85-11.5l1.23-26.63 1.05-12.51 9.9-40.6v.01z"/><g stroke="#fff"><path d="M346.25 27.13c5.35-4.97 10.49-3.64 15.19-1.28 2.07 1.04 4.05 2.52 5.88 4.17 6.08 5.52 10.49 13.08 11.19 13.7v.15c4.2 3.75 7.5 9.49 9.87 14.76-1.2 3.41-3.09 23.23-2.92 27.8-5.07-10.5-11.27-21.87-18.14-32.46-6.56-10.11-13.72-19.54-21.06-26.85h-.01z" stroke-width="1.5" stroke-linejoin="round"/><g stroke-width="2" stroke-miterlimit="10"><path d="M197.62 140.99l-9.88-34.47h-36.52l-9.83 34.47H110l37.14-120.86a11.9 11.9 0 0 1 4.49-6.65A12.4 12.4 0 0 1 159.2 11h20.62a12 12 0 0 1 7.56 2.55c2.09 1.62 3.59 3.79 4.44 6.43L229 141h-31.37l-.01-.01zm-17.47-60.88l-10.23-35.64-.47-1.94-.61 2.09-10.12 35.49h21.41.01z"/><path d="M184.62 16.6a7.5 7.5 0 0 0-4.76-1.6h-20.72a7.8 7.8 0 0 0-4.84 1.6 7.5 7.5 0 0 0-2.81 4.24L116 137h21.74l9.87-34.83h43.71l9.94 34.83H223L187.5 20.84a8.5 8.5 0 0 0-2.89-4.24h0zm-32.09 68.26l11.88-41.91 1.53-5.66 1.19-5.48h4.76l1.19 5.48 1.36 5.66 11.95 41.91h-33.86.01zM284.84 141c-3.87 0-9.02-.22-15.75-.69-6.75-.47-14.51-1.63-23.03-3.47l-3.89-.83 2.03-23.38 4.29.15 16.37.59a290.8 290.8 0 0 0 11.23.25h8.92c4.69 0 8.34-.3 10.85-.9 2.08-.49 2.76-1.37 3.09-1.98.55-1.01 1.2-3.08 1.2-7.18 0-3.59-.49-5.51-.9-6.49-.46-1.09-1.17-1.9-2.22-2.54-1.5-.9-3.55-1.7-6.09-2.37l-.19-.05-23.29-7.26c-9.58-3.02-16.49-7.67-20.53-13.84-3.93-6.02-5.93-14-5.93-23.75 0-7.25.84-13.08 2.59-17.83 1.86-5.1 4.81-9.06 8.78-11.79 3.72-2.56 8.48-4.34 14.13-5.3 5.23-.89 11.58-1.33 18.85-1.33h.09a264.7 264.7 0 0 1 18.08 1.03 114.7 114.7 0 0 1 19.01 3.34l3.68.98-2.05 22.3-4.22-.1-16.45-.42a646.5 646.5 0 0 0-17.8-.25 96.9 96.9 0 0 0-8.6.32c-1.77.16-3.21.54-4.15 1.08-.41.24-1 .69-1.45 1.88-.35.92-.78 2.72-.78 6.1 0 5.07 1.14 7.03 1.83 7.74.99 1.05 3.17 2.56 7.89 3.82l22.6 6.8c10.08 3.14 17.18 7.9 21.17 14.14 3.86 6.06 5.82 14.06 5.82 23.77 0 7.13-.87 13.16-2.58 17.91-1.84 5.11-4.75 9.16-8.65 12.06-3.73 2.76-8.57 4.74-14.39 5.88-5.44 1.07-12.02 1.6-19.54 1.6v.02z"/><path d="M301.5 69.98l-22.2-6.71c-4.57-1.23-7.86-2.9-9.88-5.03s-3.02-5.7-3.02-10.73c0-3.24.35-5.78 1.06-7.63.71-1.85 1.82-3.21 3.35-4.1 1.52-.9 3.51-1.45 5.96-1.68 2.45-.22 5.41-.34 8.89-.34l17.71.25 16.24.42 1.3-14.25A109 109 0 0 0 302.88 17c-6.15-.56-11.99-.9-17.55-1-6.96 0-12.92.42-17.87 1.26-4.96.83-9 2.34-12.16 4.53-3.16 2.18-5.49 5.36-7.02 9.56S246 40.93 246 47.52c0 8.83 1.71 15.87 5.14 21.12 3.43 5.26 9.39 9.22 17.87 11.9l23.01 7.2a27.7 27.7 0 0 1 7.18 2.85c1.85 1.12 3.18 2.66 4 4.61.81 1.95 1.22 4.66 1.22 8.13 0 4.02-.57 7.1-1.71 9.22s-3.13 3.52-5.96 4.19c-2.83.67-6.75 1-11.75 1h-8.81c-3.16 0-6.91-.08-11.26-.25l-16.15-.59-1.3 15.08a157.1 157.1 0 0 0 22.12 3.35c6.47.44 11.56.67 15.26.67 7.18 0 13.32-.51 18.44-1.51s9.24-2.68 12.4-5.03c3.15-2.34 5.49-5.64 7.02-9.89s2.29-9.66 2.29-16.26c0-8.83-1.69-15.9-5.06-21.2s-9.52-9.36-18.44-12.15v.01z"/></g><path d="M42.43 141c-8.06 0-14.68-2.5-19.66-7.45-5.04-4.98-7.65-11.67-7.77-19.89V38.41c.13-8.28 2.74-14.98 7.77-19.96C27.76 13.51 34.38 11 42.43 11h17.25a436.3 436.3 0 0 1 17.59.35 338.6 338.6 0 0 1 16.41 1.05l4.3.4-1.5 25h-47.9c-1.19 0-2.76.17-3.48.97-.3.33-.99 1.44-.99 4.51V60.6h46.5v25.23h-46.5v22.89c0 3.07.7 4.18.99 4.5.72.8 2.29.97 3.49.97h47.9l1.5 25-4.3.4a276 276 0 0 1-16.46.97l-17.5.35-17.3.09h-.01z" stroke-width="2.01" stroke-miterlimit="10"/><path d="M43.11 18H59.7c5.64 0 11.21.11 16.69.34h0c5.12.21 9.97.53 14.55.94l-.82 14.04H49.02c-2.14 0-3.98.41-5.46 1.29v-.57l-1.75 2.01c-1.63 1.87-2.35 4.68-2.35 8.21v22.61h44.69v13.78H39.45v28.1c0 3.54.72 6.35 2.35 8.21 1.65 1.88 4.13 2.74 7.21 2.74h41.11l.82 14.04c-4.58.41-9.42.7-14.54.85l-16.72.34-16.57.09c-6.42 0-11.48-1.95-15.25-5.79h0c-3.66-3.71-5.64-8.7-5.85-15.07l-.01-.62V39.47c.1-6.65 2.08-11.85 5.86-15.69C31.64 19.96 36.69 18 43.11 18z" stroke-width="2"/></g></g><defs><clipPath id="A"><path fill="#fff" d="M0 0h570v202H0z"/></clipPath></defs></svg>