<svg width="60" height="60" viewBox="0 0 60 60" fill="none" xmlns="http://www.w3.org/2000/svg">
<path d="M51 6H48V3C48 1.2 46.8 0 45 0C43.2 0 42 1.2 42 3V6H18V3C18 1.2 16.8 0 15 0C13.2 0 12 1.2 12 3V6H9C3.9 6 0 9.9 0 15V18H60V15C60 9.9 56.1 6 51 6ZM0 51C0 56.1 3.9 60 9 60H51C56.1 60 60 56.1 60 51V24H0V51ZM45 30C46.8 30 48 31.2 48 33C48 34.8 46.8 36 45 36C43.2 36 42 34.8 42 33C42 31.2 43.2 30 45 30ZM45 42C46.8 42 48 43.2 48 45C48 46.8 46.8 48 45 48C43.2 48 42 46.8 42 45C42 43.2 43.2 42 45 42ZM30 30C31.8 30 33 31.2 33 33C33 34.8 31.8 36 30 36C28.2 36 27 34.8 27 33C27 31.2 28.2 30 30 30ZM30 42C31.8 42 33 43.2 33 45C33 46.8 31.8 48 30 48C28.2 48 27 46.8 27 45C27 43.2 28.2 42 30 42ZM15 30C16.8 30 18 31.2 18 33C18 34.8 16.8 36 15 36C13.2 36 12 34.8 12 33C12 31.2 13.2 30 15 30ZM15 42C16.8 42 18 43.2 18 45C18 46.8 16.8 48 15 48C13.2 48 12 46.8 12 45C12 43.2 13.2 42 15 42Z" fill="#0668E1"/>
</svg>
