<svg xmlns="http://www.w3.org/2000/svg" width="54" height="60" fill="none" xmlns:v="https://vecta.io/nano"><path d="M21.74 43.32v-1.26l-.31-7.17c-.2-1.93-1.14-3.64-2.32-5.19a8.1 8.1 0 0 0-3.99-2.95 23.6 23.6 0 0 1-11.39-7.86A16.9 16.9 0 0 1 .03 9.8 5.7 5.7 0 0 1 6 3.23h3.13l.15-.52A3.2 3.2 0 0 1 12.65 0H28.3h12.19c2.81 0 3.56.55 4.38 3.23h2.8c1.38.01 2.68.36 3.85 1.1A4.9 4.9 0 0 1 54 8.92c-.24 5.57-2.87 9.89-7.07 13.38a26.8 26.8 0 0 1-8.99 4.83 4.1 4.1 0 0 0-1.46.84 13.2 13.2 0 0 0-4.32 10.35c.01.4-.21.84-.44 1.19-.72 1.1-1.49 2.16-2.26 3.22-.17.23-.42.55-.64.56-2.32.04-4.66.03-7.09.03v-.01zM44.75 5.28v1.07 7.88a14.9 14.9 0 0 1-2.32 8.04c-.13.21-.25.41-.37.62l.17.19c1.13-.81 2.32-1.54 3.37-2.43 3.4-2.91 5.76-6.42 6.23-10.98.24-2.28-.75-3.71-3.02-4.11-1.28-.23-2.61-.17-4.05-.25V5.3zM9.22 5.22c-1.62.15-3.13.12-4.56.47-1.94.47-2.7 1.76-2.5 3.72a15.5 15.5 0 0 0 .39 2.36c1.29 4.91 4.51 8.31 8.75 10.9.17.1.37.17.77.36C9.77 19.8 9.1 16.4 9.2 12.76c.07-2.42.01-4.85.01-7.54v.01zm20.77 50.44H13.45l-.05-.75v-6.94a2.2 2.2 0 0 1 2.55-2.52h11.58.7v6.19h-.82-8.04c-.23 0-.46-.01-.69.01-.62.06-1.04.39-1.05 1.03-.01.69.41 1.07 1.07 1.1l2.85.01 6.39-.02c.84-.03 1.36.17 1.6.99.08.29.27.54.44.89zm4.18 4.33h-1.94-22.22-.69c-.68-.05-1.11-.41-1.1-1.08s.45-1.02 1.12-1.06c.23-.01.46 0 .69 0l20.66-.01c.68 0 1.2.14 1.67.64.48.51 1.08.92 1.8 1.51v-.01zm-3.94-11.17c.02-6.25 5.16-11.43 11.3-11.41 6.38.02 11.5 5.04 11.5 11.27 0 6.33-5.09 11.29-11.56 11.27-6.18-.02-11.25-5.06-11.23-11.13zm9.7 1.63L37.7 48.1c-.51-.52-1.07-.69-1.67-.18-.53.46-.46 1.07.17 1.71l2.8 2.78c.77.75 1.22.76 1.98.01l5.99-5.93c.14-.14.37-.3.37-.45 0-.44.06-1.04-.19-1.28-.26-.24-.87-.21-1.29-.12-.26.05-.47.39-.7.62l-5.24 5.19v.01z" fill="#0668e1"/><path d="M39.93 50.45l5.24-5.19c.22-.22.44-.57.7-.62.43-.08 1.04-.12 1.29.12s.19.84.19 1.28c0 .15-.24.31-.37.45l-5.99 5.93c-.76.75-1.22.73-1.98-.01l-2.81-2.78c-.64-.64-.7-1.25-.17-1.71.6-.52 1.17-.34 1.67.18l2.23 2.35v-.01z" fill="#fff"/></svg>