<svg xmlns="http://www.w3.org/2000/svg" width="60" height="30" fill="none" xmlns:v="https://vecta.io/nano"><path d="M29.98 30h-9.77a1.9 1.9 0 0 1-1.69-.94c-.16-.26-.25-.54-.25-.85v-6.43c.01-.79.34-1.46.84-2.04a6 6 0 0 1 1.65-1.28 17.4 17.4 0 0 1 2.12-.95c.34-.13.66-.31.99-.46l1.72-.81.66-.34c.34-.21.56-.53.64-.93.06-.32.08-.64.13-.96.02-.13-.02-.22-.11-.3-.6-.58-1.08-1.25-1.42-2.02a4.8 4.8 0 0 1-.31-1.06c-.02-.13-.07-.18-.2-.19-.46-.03-.66-.25-.73-.72l-.21-1.34-.06-.43c-.04-.37.12-.63.46-.74.19-.06.19-.06.16-.27-.1-.79-.16-1.58-.04-2.37.1-.67.36-1.27.71-1.83.62-.98 1.46-1.72 2.48-2.22.78-.38 1.59-.51 2.43-.22.27.1.52.26.78.4.09.05.16.09.27.07a3 3 0 0 1 1.91.42 4.3 4.3 0 0 1 2.05 2.6 6.8 6.8 0 0 1 .21 3.13l-.02.09c-.03.11.01.17.12.21.24.08.39.25.44.5.02.07.02.14.01.21l-.31 1.96c-.05.31-.29.51-.61.55-.26.03-.25.03-.31.29a6.4 6.4 0 0 1-1.03 2.23 9.9 9.9 0 0 1-.65.79c-.09.11-.14.21-.12.35l.12.87c.02.11.08.21.14.31l.32.47c.07.08.16.13.26.18l1.31.65 1.32.61 1.87.81a9 9 0 0 1 1.93 1.1 4.1 4.1 0 0 1 1.25 1.51 3 3 0 0 1 .29 1.25l.01 6.31c0 .71-.47 1.4-1.12 1.67-.3.12-.61.18-.93.18h-9.7 0zm-1.46-5.59l-.14-.13-.55-.5c-.18-.14-.38-.24-.61-.25-.58-.03-.99.28-1.28.76-.12.2-.12.43 0 .64a3 3 0 0 0 .32.47 9.5 9.5 0 0 1 .98 1.31 3.9 3.9 0 0 0 .28.39c.12.15.28.24.48.27a3.3 3.3 0 0 0 .89 0c.36-.05.61-.25.76-.6l.38-.93a22.9 22.9 0 0 1 2.15-4.03c.48-.71.99-1.38 1.61-1.97.09-.09.18-.19.25-.29.17-.26.11-.62-.13-.78-.11-.07-.26-.12-.38-.1l-1.19.19c-.15.03-.31.13-.42.25l-.84.93a22.6 22.6 0 0 0-2.42 4.06l-.15.32h0zm-8.6-7.15l-.24.17a7 7 0 0 0-1.73 1.48 4.9 4.9 0 0 0-1.05 2.36c-.03.21-.03.43-.04.65l-.01 4.67v.09c-.01.16-.03.18-.19.19h-.18H2.02c-.31 0-.63 0-.92-.12-.5-.2-.86-.55-1.03-1.08-.05-.15-.07-.32-.07-.48v-5.62c0-.85.36-1.54.93-2.13a6.3 6.3 0 0 1 1.78-1.21l1.52-.66 2.59-1.23c.05-.02.09-.05.14-.07.3-.11.52-.32.67-.61.05-.09.09-.18.1-.28l.13-.91c.02-.13-.04-.22-.13-.3a6 6 0 0 1-.9-1.14c-.29-.47-.51-.97-.6-1.53-.04-.22-.04-.22-.27-.25-.31-.04-.52-.23-.57-.53l-.26-1.69c-.05-.33.08-.55.38-.67.21-.08.2-.08.17-.31-.1-.81-.16-1.63.04-2.43.11-.45.3-.86.54-1.24A5.5 5.5 0 0 1 8.8.24c.76-.32 1.52-.33 2.27.05l.06.03c.26.23.56.24.89.24.73 0 1.37.31 1.93.78.53.45.94 1.01 1.18 1.68.16.44.26.9.31 1.36.07.6.07 1.2-.06 1.79-.02.09.01.14.09.18.09.05.18.1.26.17a.5.5 0 0 1 .16.46l-.28 1.8c-.04.24-.21.38-.44.45-.04.01-.09.02-.13.02-.19.02-.18.02-.25.22l-.4 1.12a5.4 5.4 0 0 1-1.1 1.62c-.11.12-.15.23-.12.39.04.2.04.41.09.62.1.44.31.8.72.99l3.04 1.44 1.47.66c.39.19.75.44 1.11.67.1.07.19.17.3.27h0zm20.17-.02c.22-.24.49-.41.76-.58a9.2 9.2 0 0 1 1.69-.83c.85-.33 1.66-.74 2.49-1.13l1.03-.5c.34-.17.54-.48.62-.85.06-.26.07-.53.11-.8.02-.16-.02-.27-.13-.39a5.6 5.6 0 0 1-1.1-1.5c-.19-.38-.33-.77-.39-1.2-.02-.17-.04-.18-.21-.2-.39-.04-.58-.23-.64-.61l-.24-1.57c-.06-.37.07-.59.41-.71.18-.06.18-.07.15-.26-.1-.65-.13-1.3-.07-1.96a3.9 3.9 0 0 1 .51-1.54A5.3 5.3 0 0 1 47.71.23c.67-.28 1.36-.33 2.04-.04.19.08.37.2.55.3.08.04.17.09.25.08.8-.08 1.51.17 2.15.66a3.9 3.9 0 0 1 1.43 2.07 6.2 6.2 0 0 1 .19 2.81c-.04.21-.03.21.14.29.26.12.39.36.34.66l-.25 1.6c-.07.41-.24.58-.65.62-.11.01-.16.06-.18.16-.26 1.08-.78 2.01-1.52 2.81-.1.1-.14.2-.11.35l.07.55c.08.51.32.9.79 1.12l2.79 1.33 1.52.66a6 6 0 0 1 1.8 1.22c.6.61.93 1.33.93 2.22l.01 5.39c.02.99-.74 1.73-1.6 1.79l-.31.01H43.44h-.09c-.21-.01-.22-.02-.22-.24v-4.67a4.7 4.7 0 0 0-.84-2.7 6.3 6.3 0 0 0-1.83-1.73l-.34-.22c-.01-.01-.01-.03-.03-.06h0z" fill="#0668e1"/><path d="M28.52 24.41l.15-.32a22.6 22.6 0 0 1 2.42-4.06c.25-.33.54-.63.84-.93.11-.11.27-.21.42-.25a10.9 10.9 0 0 1 1.19-.19c.12-.01.27.04.38.1.24.15.3.52.13.78-.07.11-.16.2-.25.29-.62.59-1.13 1.26-1.61 1.97a23 23 0 0 0-2.15 4.03l-.38.93c-.14.34-.39.55-.76.6-.3.04-.59.05-.89 0-.2-.03-.35-.11-.48-.27a3.8 3.8 0 0 1-.28-.39c-.29-.47-.63-.89-.98-1.31a3 3 0 0 1-.32-.47c-.12-.21-.12-.44 0-.64.29-.48.7-.79 1.28-.76.23.01.43.11.61.25.19.15.37.33.55.5l.14.13h0z" fill="#fff"/></svg>