<svg xmlns="http://www.w3.org/2000/svg" width="54" height="60" fill="#0668e1" xmlns:v="https://vecta.io/nano"><path d="M39.1 17.32c0-7.09-6.26-12.68-13.64-11.86-5.71.68-10.16 5.18-10.72 10.77a11.6 11.6 0 0 0 4.59 10.5c.14.14.42.27.56.55.42.55 1.11 1.77 1.11 3.27 0 2.05 1.25 3.68 4.73 3.55v-8.32c0-.68.56-1.09 1.11-1.09.7 0 1.11.55 1.11 1.09v8.32c3.62 0 4.73-1.5 4.73-3.55 0-.55.14-1.09.28-1.64.28-.95.97-1.91 1.81-2.59 2.64-2.18 4.31-5.45 4.31-9zM20.32 35.18c-1.11-.95-2.09-2.45-2.23-3.95s.28-1.77-2.09-4.09c-2.92-2.73-3.76-8.05-3.76-9.14C3.9 16.91 0 18.27 0 18.27v39.95C14.34 55.5 25.61 60 25.61 60V44.04c-6.26-1.77-5.29-6.82-5.29-8.86zM6.26 28.36h5.15c.7 0 1.39.55 1.39 1.36 0 .68-.56 1.36-1.39 1.36H6.26c-.7 0-1.39-.55-1.39-1.36a1.3 1.3 0 0 1 1.39-1.36zm0 9.55h9.05c.7 0 1.39.55 1.39 1.36 0 .68-.56 1.36-1.39 1.36H6.26c-.7 0-1.39-.55-1.39-1.36a1.3 1.3 0 0 1 1.39-1.36zm11.69 11.73H6.26c-.7 0-1.39-.55-1.39-1.36 0-.68.56-1.36 1.39-1.36h11.69c.7 0 1.39.55 1.39 1.36 0 .68-.56 1.36-1.39 1.36zm10.44-5.59V60S39.66 55.5 54 58.09V18.14s-4.04-1.23-12.25-.27c0 1.23-.84 6.41-3.76 9.14-2.37 2.32-1.81 2.59-2.09 4.09-.14 1.5-1.11 3-2.23 3.95 0 2.18.97 7.23-5.29 9zm20.74-14.32c0 .68-.56 1.36-1.39 1.36h-5.15c-.7 0-1.39-.55-1.39-1.36 0-.68.56-1.36 1.39-1.36h5.15c.84 0 1.39.55 1.39 1.36zm0 9.55c0 .68-.56 1.36-1.39 1.36h-9.05c-.7 0-1.39-.55-1.39-1.36 0-.68.56-1.36 1.39-1.36h9.05c.84 0 1.39.55 1.39 1.36zm-14.47 9c0-.68.56-1.36 1.39-1.36h11.69c.7 0 1.39.55 1.39 1.36 0 .68-.56 1.36-1.39 1.36H36.05c-.84 0-1.39-.68-1.39-1.36zM27 41.59a4 4 0 0 1-4.04-3.95v-1.09a25.8 25.8 0 0 0 7.93 0v1.09c.14 2.18-1.67 3.95-3.9 3.95zm-17.26-36L6.26 2.18C5.7 1.64 5.7.95 6.26.41a1.2 1.2 0 0 1 1.81 0l3.48 3.41c.56.55.56 1.23 0 1.77s-1.39.55-1.81 0zm34.1 0l3.48-3.41c.56-.55.56-1.23 0-1.77a1.2 1.2 0 0 0-1.81 0l-3.48 3.41c-.56.55-.56 1.23 0 1.77s1.39.55 1.81 0z"/></svg>