<svg width="120" height="120" viewBox="0 0 120 120" fill="none" xmlns="http://www.w3.org/2000/svg">
<mask id="mask0_19165_63227" style="mask-type:luminance" maskUnits="userSpaceOnUse" x="6" y="0" width="37" height="17">
<path d="M35.4576 1.34555L6.38651 16.7739C8.4897 15.6577 10.9794 15.1849 13.6438 15.5495L42.7148 0.121127C40.0505 -0.24346 37.5608 0.229394 35.4576 1.34555Z" fill="white" style="fill:white;fill-opacity:1;"/>
</mask>
<g mask="url(#mask0_19165_63227)">
<path d="M13.6438 15.5511L42.7148 0.121488C41.0708 -0.103734 39.4931 -0.010416 38.0327 0.356659L8.96162 15.785C10.4233 15.4192 11.9997 15.3246 13.6438 15.5511Z" fill="#107BFF" style="fill:#107BFF;fill:color(display-p3 0.0644 0.4831 1.0000);fill-opacity:1;"/>
<path d="M8.96797 15.7838L38.0391 0.355469C37.2866 0.544606 36.5647 0.805914 35.881 1.13317L6.80992 16.5615C7.49356 16.2343 8.21546 15.973 8.96797 15.7838Z" fill="#107BFF" style="fill:#107BFF;fill:color(display-p3 0.0644 0.4831 1.0000);fill-opacity:1;"/>
<path d="M6.81173 16.5651L35.8828 1.13672C35.7425 1.20391 35.6022 1.27485 35.4657 1.34702L6.39466 16.7754C6.5324 16.7032 6.67143 16.6323 6.81173 16.5651Z" fill="#107BFF" style="fill:#107BFF;fill:color(display-p3 0.0644 0.4831 1.0000);fill-opacity:1;"/>
</g>
<mask id="mask1_19165_63227" style="mask-type:luminance" maskUnits="userSpaceOnUse" x="55" y="71" width="31" height="17">
<path d="M85.4453 71.6504C85.2272 71.7661 85.004 71.8781 84.7783 71.9863C75.0875 77.1291 65.398 82.2719 55.7072 87.4147C55.9329 87.3064 56.1561 87.1945 56.3742 87.0787C65.0957 82.4499 76.7239 76.2793 85.4453 71.6504Z" fill="white" style="fill:white;fill-opacity:1;"/>
</mask>
<g mask="url(#mask1_19165_63227)">
<path d="M56.3742 87.0787L85.4453 71.6504C85.2285 71.7649 85.0078 71.8768 84.7834 71.9839L55.7123 87.4122C55.9367 87.3052 56.1574 87.1945 56.3742 87.0787Z" fill="#258FB2" style="fill:#258FB2;fill:color(display-p3 0.1451 0.5608 0.6980);fill-opacity:1;"/>
<path d="M55.7023 87.4127L84.7734 71.9844C84.5235 72.1038 84.2696 72.2196 84.0107 72.3303C83.146 72.6999 82.2659 72.9997 81.3718 73.2274L52.3007 88.6546C53.1948 88.4281 54.0749 88.1282 54.9396 87.7574C55.1985 87.6479 55.4524 87.5322 55.7023 87.4127Z" fill="#2692B6" style="fill:#2692B6;fill:color(display-p3 0.1490 0.5725 0.7137);fill-opacity:1;"/>
</g>
<mask id="mask2_19165_63227" style="mask-type:luminance" maskUnits="userSpaceOnUse" x="84" y="91" width="36" height="28">
<path d="M84.568 118.636L113.639 103.208C117.453 101.184 119.993 97.043 119.984 91.959L90.9133 107.387C90.9235 112.471 88.3828 116.612 84.568 118.636Z" fill="white" style="fill:white;fill-opacity:1;"/>
</mask>
<g mask="url(#mask2_19165_63227)">
<path d="M84.568 118.636L113.639 103.208C117.453 101.184 119.995 97.043 119.984 91.959L90.9133 107.387C90.9235 112.471 88.3828 116.612 84.568 118.636Z" fill="#1A81FF" style="fill:#1A81FF;fill:color(display-p3 0.1029 0.5043 1.0000);fill-opacity:1;"/>
</g>
<path d="M13.6026 15.5472C6.10305 14.5194 -0.0139618 20.1335 0.00134277 28.0184L0.128891 94.9534C0.144196 102.838 6.28671 110.133 13.785 111.162L77.3542 119.878C84.8436 120.905 90.9606 115.291 90.9453 107.406L90.8177 40.4709C90.8024 32.5861 84.6599 25.2897 77.1718 24.2632L13.6026 15.5472Z" fill="#0668E1" style="fill:#0668E1;fill:color(display-p3 0.0235 0.4078 0.8824);fill-opacity:1;"/>
<path d="M77.1672 24.2608L106.238 8.83324L42.6691 0.117188L13.598 15.546L77.1672 24.2608Z" fill="#107BFF" style="fill:#107BFF;fill:color(display-p3 0.0644 0.4831 1.0000);fill-opacity:1;"/>
<path d="M90.9289 107.404L120 91.9748L119.874 25.041L90.8014 40.4686L90.9289 107.404Z" fill="#1E83FF" style="fill:#1E83FF;fill:color(display-p3 0.1183 0.5128 1.0000);fill-opacity:1;"/>
<mask id="mask3_19165_63227" style="mask-type:luminance" maskUnits="userSpaceOnUse" x="77" y="8" width="43" height="33">
<path d="M90.8039 40.4752L119.875 25.0476C119.86 17.1615 113.717 9.86636 106.229 8.83984L77.158 24.2674C84.6474 25.294 90.7886 32.5891 90.8039 40.4752Z" fill="white" style="fill:white;fill-opacity:1;"/>
</mask>
<g mask="url(#mask3_19165_63227)">
<path d="M90.8039 40.4795L119.875 25.0519C119.871 23.1196 119.5 21.2234 118.83 19.4453L89.7593 34.8729C90.4289 36.6509 90.8001 38.5472 90.8039 40.4795Z" fill="#1A81FF" style="fill:#1A81FF;fill:color(display-p3 0.1029 0.5043 1.0000);fill-opacity:1;"/>
<path d="M89.7648 34.8684L118.836 19.4401C118.545 18.6673 118.198 17.917 117.8 17.1953L88.7292 32.6237C89.1271 33.3454 89.474 34.0957 89.7648 34.8684Z" fill="#1A81FF" style="fill:#1A81FF;fill:color(display-p3 0.1029 0.5043 1.0000);fill-opacity:1;"/>
<path d="M88.7323 32.6276L117.805 17.1993C117.468 16.5883 117.094 15.9985 116.689 15.4336L87.6176 30.862C88.0219 31.4256 88.3956 32.0167 88.7323 32.6276Z" fill="#1A81FF" style="fill:#1A81FF;fill:color(display-p3 0.1029 0.5043 1.0000);fill-opacity:1;"/>
<path d="M87.6086 30.86L116.68 15.4316C116.296 14.8978 115.884 14.3876 115.445 13.9023L86.374 29.3307C86.8127 29.8147 87.226 30.3262 87.6086 30.86Z" fill="#1A81FF" style="fill:#1A81FF;fill:color(display-p3 0.1029 0.5043 1.0000);fill-opacity:1;"/>
<path d="M86.3664 29.3344L115.438 13.9061C114.996 13.4183 114.529 12.9579 114.038 12.5273L84.9673 27.9557C85.457 28.3875 85.9251 28.8479 86.3664 29.3344Z" fill="#1A81FF" style="fill:#1A81FF;fill:color(display-p3 0.1029 0.5043 1.0000);fill-opacity:1;"/>
<path d="M84.9602 27.9485L114.031 12.5201C113.506 12.0585 112.952 11.6304 112.376 11.2422L83.3046 26.6705C83.8824 27.06 84.4347 27.4868 84.9602 27.9485Z" fill="#1A81FF" style="fill:#1A81FF;fill:color(display-p3 0.1029 0.5043 1.0000);fill-opacity:1;"/>
<path d="M83.3195 26.67L112.391 11.2417C111.685 10.7663 110.946 10.3482 110.178 9.99609L81.1066 25.4245C81.8745 25.7766 82.6142 26.1947 83.3195 26.67Z" fill="#1A81FF" style="fill:#1A81FF;fill:color(display-p3 0.1029 0.5043 1.0000);fill-opacity:1;"/>
<path d="M81.1008 25.4279L110.172 9.99954C108.921 9.42591 107.595 9.02898 106.224 8.83984L77.1533 24.2682C78.5244 24.4561 79.8496 24.8543 81.1008 25.4279Z" fill="#1A81FF" style="fill:#1A81FF;fill:color(display-p3 0.1029 0.5043 1.0000);fill-opacity:1;"/>
</g>
<path d="M27.1086 56.4929C28.5288 56.7383 29.9751 57.0013 31.4475 57.2818C32.9194 57.5361 34.3659 57.8122 35.7871 58.11C37.2083 58.4078 38.5398 58.7293 39.7816 59.0744L39.5882 63.3901L29.3236 61.6165C28.6781 61.505 28.1905 61.5905 27.8608 61.8731C27.5566 62.134 27.4105 62.6051 27.4226 63.2863L27.6691 77.1205C27.6807 77.7756 27.8445 78.3001 28.1605 78.6943C28.5022 79.0929 28.9959 79.348 29.6415 79.4595L39.906 81.2331L40.2549 85.6424C39.0172 85.5331 37.6888 85.3819 36.2694 85.1889C34.8501 84.9959 33.4045 84.7722 31.9326 84.5179C30.4612 84.2898 29.0154 84.0531 27.5951 83.8077C25.8908 83.5132 24.5004 82.7767 23.424 81.5981C22.3733 80.424 21.8206 79.0224 21.7659 77.3935L21.4732 60.9654C21.4697 59.3192 21.9754 58.0875 22.9906 57.2703C24.0316 56.4576 25.4043 56.1985 27.1086 56.4929ZM22.2692 66.6274L38.2663 69.3914L38.3419 73.636L22.3448 70.872L22.2692 66.6274ZM54.1876 60.8191C55.453 61.0378 56.5253 61.2622 57.4047 61.4925C58.3094 61.7011 59.1374 61.9356 59.8886 62.196C60.6397 62.4564 61.4175 62.7605 62.2217 63.1085L61.836 67.4692C60.9829 67.2696 60.1946 67.0942 59.4711 66.9431C58.7734 66.7964 58.0112 66.6386 57.1844 66.4696C56.3834 66.3051 55.4149 66.1247 54.2787 65.9284C52.9617 65.7008 51.9337 65.7975 51.1946 66.2183C50.4809 66.6174 49.9806 67.4321 49.6936 68.6624C49.4066 69.8927 49.2836 71.6607 49.3247 73.9664C49.3653 76.2459 49.5522 78.0675 49.8854 79.4311C50.2181 80.7685 50.7507 81.7617 51.4831 82.4106C52.2413 83.064 53.2788 83.5045 54.5958 83.7321C56.3776 84.0399 57.8748 84.2725 59.0875 84.4298C60.3003 84.5871 61.4994 84.7029 62.6849 84.7771L63.2669 89.2659C62.0344 89.4448 60.774 89.5012 59.4856 89.4354C58.1978 89.3957 56.5984 89.2108 54.6875 88.8806C51.9245 88.4032 49.7087 87.5763 48.0402 86.3999C46.3712 85.1973 45.1441 83.5095 44.3588 81.3364C43.5994 79.1678 43.1888 76.3542 43.1272 72.8956C43.0656 69.4371 43.3781 66.7484 44.0648 64.8296C44.7772 62.9153 45.9518 61.6556 47.5886 61.0503C49.2249 60.4188 51.4246 60.3417 54.1876 60.8191Z" fill="white" style="fill:white;fill-opacity:1;"/>
</svg>
