<svg width="20" height="20" viewBox="0 0 20 20" fill="none" xmlns="http://www.w3.org/2000/svg">
<g clip-path="url(#clip0_19935_61385)">
<path d="M10 20C12.6522 20 15.1957 18.9464 17.0711 17.0711C18.9464 15.1957 20 12.6522 20 10C20 7.34784 18.9464 4.8043 17.0711 2.92893C15.1957 1.05357 12.6522 0 10 0C7.34784 0 4.8043 1.05357 2.92893 2.92893C1.05357 4.8043 0 7.34784 0 10C0 12.6522 1.05357 15.1957 2.92893 17.0711C4.8043 18.9464 7.34784 20 10 20ZM10 5.9375C9.1375 5.9375 8.4375 6.6375 8.4375 7.5V7.63375C8.4375 7.88239 8.33873 8.12085 8.16291 8.29666C7.9871 8.47248 7.74864 8.57125 7.5 8.57125C7.25136 8.57125 7.0129 8.47248 6.83709 8.29666C6.66127 8.12085 6.5625 7.88239 6.5625 7.63375V7.5C6.5625 6.58832 6.92466 5.71398 7.56932 5.06932C8.21398 4.42466 9.08832 4.0625 10 4.0625H10.145C10.8175 4.06281 11.4737 4.26902 12.0255 4.6534C12.5773 5.03779 12.9981 5.58191 13.2314 6.2126C13.4648 6.84328 13.4994 7.53029 13.3306 8.18124C13.1619 8.83219 12.7978 9.41585 12.2875 9.85375L11.325 10.6788C11.2042 10.7836 11.1072 10.9129 11.0404 11.0582C10.9736 11.2035 10.9385 11.3613 10.9375 11.5212V12.1875C10.9375 12.4361 10.8387 12.6746 10.6629 12.8504C10.4871 13.0262 10.2486 13.125 10 13.125C9.75136 13.125 9.5129 13.0262 9.33709 12.8504C9.16127 12.6746 9.0625 12.4361 9.0625 12.1875V11.5212C9.0625 10.65 9.4425 9.8225 10.1038 9.25625L11.0675 8.43125C11.2874 8.24276 11.4443 7.99143 11.5171 7.71109C11.5898 7.43075 11.5749 7.13484 11.4745 6.8632C11.374 6.59156 11.1927 6.35722 10.955 6.19172C10.7173 6.02622 10.4346 5.9375 10.145 5.9375H10ZM11.25 15C11.25 15.3315 11.1183 15.6495 10.8839 15.8839C10.6495 16.1183 10.3315 16.25 10 16.25C9.66848 16.25 9.35054 16.1183 9.11612 15.8839C8.8817 15.6495 8.75 15.3315 8.75 15C8.75 14.6685 8.8817 14.3505 9.11612 14.1161C9.35054 13.8817 9.66848 13.75 10 13.75C10.3315 13.75 10.6495 13.8817 10.8839 14.1161C11.1183 14.3505 11.25 14.6685 11.25 15Z" fill="#0668E1" style="fill:#0668E1;fill:color(display-p3 0.0235 0.4078 0.8824);fill-opacity:1;"/>
</g>
<defs>
<clipPath id="clip0_19935_61385">
<rect width="20" height="20" fill="white" style="fill:white;fill-opacity:1;"/>
</clipPath>
</defs>
</svg>
