<svg width="24" height="24" viewBox="0 0 24 24" fill="none" xmlns="http://www.w3.org/2000/svg">
<path d="M12 22C17.5228 22 22 17.5228 22 12C22 6.47715 17.5228 2 12 2C6.47715 2 2 6.47715 2 12C2 17.5228 6.47715 22 12 22Z" fill="#0668E1" style="fill:#0668E1;fill:color(display-p3 0.0235 0.4078 0.8824);fill-opacity:1;"/>
<path d="M7.5 17.2002C7.4 17.2002 7.4 17.2002 7.3 17.2002C7 17.1002 7 16.9002 7 16.7002C7.7 14.6002 9.7 13.2002 11.8 13.2002C13.9 13.2002 15.7 14.5002 16.5 16.4002C16.6 16.7002 16.5 16.9002 16.3 17.0002C16 17.1002 15.8 17.0002 15.7 16.7002C15 15.1002 13.5 14.0002 11.8 14.0002C10 14.0002 8.4 15.2002 7.8 16.9002C7.8 17.1002 7.7 17.2002 7.5 17.2002Z" fill="white" style="fill:white;fill-opacity:1;"/>
<path d="M15.8016 10.8004C16.4643 10.8004 17.0016 10.2631 17.0016 9.60039C17.0016 8.93765 16.4643 8.40039 15.8016 8.40039C15.1388 8.40039 14.6016 8.93765 14.6016 9.60039C14.6016 10.2631 15.1388 10.8004 15.8016 10.8004Z" fill="white" style="fill:white;fill-opacity:1;"/>
<path d="M8.79766 10.8004C9.4604 10.8004 9.99766 10.2631 9.99766 9.60039C9.99766 8.93765 9.4604 8.40039 8.79766 8.40039C8.13492 8.40039 7.59766 8.93765 7.59766 9.60039C7.59766 10.2631 8.13492 10.8004 8.79766 10.8004Z" fill="white" style="fill:white;fill-opacity:1;"/>
</svg>
