<svg width="24" height="24" viewBox="0 0 24 24" fill="none" xmlns="http://www.w3.org/2000/svg">
<mask id="mask0_21627_4721" style="mask-type:luminance" maskUnits="userSpaceOnUse" x="1" y="1" width="22" height="22">
<path d="M12 22C13.3135 22.0016 14.6143 21.7437 15.8278 21.241C17.0412 20.7384 18.1434 20.0009 19.071 19.071C20.0009 18.1434 20.7384 17.0412 21.241 15.8278C21.7437 14.6143 22.0016 13.3135 22 12C22.0016 10.6865 21.7437 9.38572 21.241 8.17225C20.7384 6.95878 20.0009 5.85659 19.071 4.92901C18.1434 3.99909 17.0412 3.26162 15.8278 2.75896C14.6143 2.25631 13.3135 1.99839 12 2.00001C10.6865 1.99839 9.38572 2.25631 8.17225 2.75896C6.95878 3.26162 5.85659 3.99909 4.92901 4.92901C3.99909 5.85659 3.26162 6.95878 2.75896 8.17225C2.25631 9.38572 1.99839 10.6865 2.00001 12C1.99839 13.3135 2.25631 14.6143 2.75896 15.8278C3.26162 17.0412 3.99909 18.1434 4.92901 19.071C5.85659 20.0009 6.95878 20.7384 8.17225 21.241C9.38572 21.7437 10.6865 22.0016 12 22Z" fill="#555555" stroke="white" style="fill:#555555;fill:color(display-p3 0.3333 0.3333 0.3333);fill-opacity:1;stroke:white;stroke-opacity:1;" stroke-width="2" stroke-linejoin="round"/>
<path d="M8 12L11 15L17 9" stroke="white" style="stroke:white;stroke-opacity:1;" stroke-width="2" stroke-linecap="round" stroke-linejoin="round"/>
</mask>
<g mask="url(#mask0_21627_4721)">
<path d="M0 0H24V24H0V0Z" fill="#0668E1" style="fill:#0668E1;fill:color(display-p3 0.0235 0.4078 0.8824);fill-opacity:1;"/>
</g>
</svg>
