<svg width="122" height="120" viewBox="0 0 122 120" fill="none" xmlns="http://www.w3.org/2000/svg">
<path d="M5.89568 120C1.49863 120 0.063487 118.159 1.59024 114.477L46.4768 6.77824C48.3699 2.25941 51.2402 0 55.0876 0H67.9124C71.7598 0 74.6301 2.25941 76.5232 6.77824L121.41 114.477C122.937 118.159 121.501 120 117.104 120H102.539C98.5085 120 95.6992 118.075 94.1114 114.226L84.7677 91.7155H38.2323L28.8886 114.226C27.3007 118.075 24.4915 120 20.4609 120H5.89568ZM46.7516 70.9623H76.2484L64.981 44.3515C63.6375 41.2273 62.813 38.9679 62.5077 37.5732C61.8829 36.3529 61.8829 36.3529 61.5 35.2941C61.1171 36.3529 61.1171 36.3529 60.4007 37.5732C60.1565 38.9679 59.3625 41.2273 58.019 44.3515L46.7516 70.9623Z" fill="#044AA0" style="fill:#044AA0;fill:color(display-p3 0.0157 0.2902 0.6275);fill-opacity:1;"/>
<path d="M4.00556 120C0.407973 120 -0.766238 118.589 0.482923 115.766L37.2083 33.1967C38.7572 29.7322 41.1056 28 44.2535 28H54.7465C57.8944 28 60.2428 29.7322 61.7917 33.1967L98.5171 115.766C99.7662 118.589 98.592 120 94.9944 120H83.0774C79.7797 120 77.4812 118.524 76.1821 115.573L68.5372 98.3152H30.4628L22.8179 115.573C21.5188 118.524 19.2203 120 15.9226 120H4.00556ZM37.4331 82.4045H61.5669L52.3481 62.0028C51.2488 59.6076 50.5743 57.8754 50.3244 56.8061C49.8133 55.8706 49.8133 55.8706 49.5 55.0588C49.1867 55.8706 49.1867 55.8706 48.6006 56.8061C48.4007 57.8754 47.7512 59.6076 46.6519 62.0028L37.4331 82.4045Z" fill="#0668E1" style="fill:#0668E1;fill:color(display-p3 0.0235 0.4078 0.8824);fill-opacity:1;"/>
<path d="M3.11543 120C0.317313 120 -0.595963 118.895 0.375607 116.686L28.9398 52.0669C30.1445 49.3556 31.971 48 34.4194 48H42.5806C45.0289 48 46.8555 49.3556 48.0602 52.0669L76.6244 116.686C77.596 118.895 76.6827 120 73.8846 120H64.6158C62.0508 120 60.2632 118.845 59.2527 116.536L53.3067 103.029H23.6933L17.7473 116.536C16.7368 118.845 14.9492 120 12.3842 120H3.11543ZM29.1146 90.5774H47.8854L40.7152 74.6109C39.8602 72.7364 39.3355 71.3808 39.1412 70.5439C38.7437 69.8118 38.7437 69.8118 38.5 69.1765C38.2563 69.8118 38.2563 69.8118 37.8005 70.5439C37.645 71.3808 37.1398 72.7364 36.2848 74.6109L29.1146 90.5774Z" fill="#589AEB" style="fill:#589AEB;fill:color(display-p3 0.3451 0.6039 0.9216);fill-opacity:1;"/>
</svg>
