<svg width="32" height="32" viewBox="0 0 32 32" fill="none" xmlns="http://www.w3.org/2000/svg">
<path d="M13.8942 21.3275C13.8942 21.1355 13.8997 20.9792 13.8942 20.8229C13.8582 19.8658 13.8693 18.9032 13.7697 17.9544C13.6895 17.1838 13.3132 16.4982 12.8428 15.8784C12.425 15.3327 11.9352 14.9268 11.2462 14.6992C9.42554 14.0959 7.8788 13.0675 6.69177 11.5537C5.85338 10.4842 5.33042 9.28028 5.21144 7.92006C5.07862 6.39256 6.03876 5.33675 7.59934 5.29013C8.01162 5.27916 8.42667 5.29013 8.85001 5.29013C8.87492 5.20786 8.89705 5.14479 8.91089 5.08171C9.06307 4.39063 9.53899 4.00396 10.2612 4.00122C12.3475 3.99848 14.4338 4.00122 16.5173 4.00122C18.1415 4.00122 19.7657 4.00122 21.3927 4.00122C22.5161 4.00122 22.8177 4.22061 23.1442 5.29287C23.5095 5.29287 23.8858 5.29287 24.2649 5.29287C24.8182 5.29562 25.3384 5.43548 25.8033 5.7344C26.4674 6.16495 26.8326 6.75181 26.7966 7.56904C26.7026 9.79584 25.6483 11.5263 23.9688 12.9221C22.9063 13.8079 21.6943 14.425 20.3745 14.8528C20.1642 14.9213 19.9511 15.042 19.7906 15.1901C18.5925 16.3117 18.0308 17.6993 18.0641 19.3311C18.0668 19.4901 17.9783 19.6684 17.887 19.8082C17.5992 20.247 17.2921 20.6721 16.9849 21.0971C16.9185 21.1876 16.8161 21.3165 16.7304 21.3193C15.8007 21.3357 14.8682 21.3302 13.8942 21.3302V21.3275ZM23.1 6.11284C23.1 6.29658 23.1 6.41724 23.1 6.54065C23.1 7.59098 23.1 8.64131 23.1 9.69163C23.0944 10.8489 22.7928 11.9239 22.1702 12.9057C22.1177 12.988 22.0706 13.0702 22.0208 13.1525C22.043 13.1772 22.0651 13.2019 22.0872 13.2265C22.5383 12.9029 23.0142 12.6123 23.4348 12.253C24.7961 11.0902 25.7397 9.6834 25.9278 7.86247C26.0219 6.95201 25.629 6.37885 24.7186 6.21705C24.2067 6.12381 23.6727 6.14849 23.1 6.11833V6.11284ZM8.88875 6.08816C8.24128 6.14849 7.63531 6.13752 7.06531 6.27464C6.29056 6.46112 5.98342 6.97669 6.06367 7.761C6.09687 8.07912 6.13837 8.39723 6.21862 8.70438C6.73327 10.6679 8.02269 12.0281 9.71884 13.0647C9.78802 13.1059 9.86549 13.1333 10.026 13.2073C9.10734 11.9212 8.83895 10.5582 8.88045 9.10202C8.90812 8.13397 8.88598 7.16317 8.88598 6.08542L8.88875 6.08816Z" fill="#0668E1" style="fill:#0668E1;fill:color(display-p3 0.0235 0.4078 0.8824);fill-opacity:1;"/>
<path d="M17.195 26.2631H10.5792C10.5737 26.1643 10.5598 26.0656 10.5598 25.9642C10.5598 25.04 10.5571 24.1131 10.5598 23.1889C10.5598 22.5088 10.8946 22.1824 11.5808 22.1797C13.1248 22.1797 14.6688 22.1797 16.2128 22.1797C16.3151 22.1797 16.4175 22.1797 16.4922 22.1797V24.656C16.4092 24.656 16.2847 24.656 16.163 24.656C15.0921 24.656 14.0185 24.656 12.9477 24.656C12.8564 24.656 12.7623 24.6506 12.671 24.6615C12.422 24.6862 12.256 24.8178 12.2504 25.0729C12.2449 25.3471 12.4137 25.5007 12.6793 25.5117C13.0584 25.5281 13.4402 25.5171 13.8193 25.5171C14.6716 25.5171 15.5266 25.5363 16.376 25.5089C16.7136 25.498 16.9211 25.5775 17.018 25.9066C17.0512 26.0217 17.1259 26.1232 17.195 26.2631Z" fill="#0668E1" style="fill:#0668E1;fill:color(display-p3 0.0235 0.4078 0.8824);fill-opacity:1;"/>
<path d="M18.87 27.997C18.5491 27.997 18.3222 27.997 18.0925 27.997C15.1291 27.997 12.1684 27.997 9.20496 27.997C9.11365 27.997 9.01957 27.9998 8.92826 27.997C8.6571 27.9778 8.48555 27.8325 8.48831 27.5665C8.49108 27.2977 8.66817 27.1579 8.93656 27.1442C9.02787 27.1387 9.12195 27.1442 9.21326 27.1442C11.9692 27.1442 14.7223 27.1469 17.4782 27.1387C17.7522 27.1387 17.9569 27.1963 18.1478 27.3965C18.3415 27.5994 18.5795 27.7639 18.8673 27.9998L18.87 27.997Z" fill="#0668E1" style="fill:#0668E1;fill:color(display-p3 0.0235 0.4078 0.8824);fill-opacity:1;"/>
<path d="M17.2891 23.5262C17.2974 21.0279 19.3533 18.9547 21.8076 18.9629C24.3615 18.9711 26.4063 20.9786 26.4063 23.4714C26.4063 26.0053 24.3698 27.988 21.7827 27.9798C19.3117 27.9716 17.2808 25.956 17.2891 23.5262ZM21.1684 24.1789C20.8557 23.8498 20.568 23.5427 20.2747 23.2383C20.0727 23.0298 19.8458 22.9613 19.605 23.167C19.392 23.3507 19.4197 23.5948 19.6742 23.8498C20.045 24.2255 20.4213 24.5957 20.7976 24.9632C21.1048 25.2621 21.2874 25.2676 21.589 24.9687C22.3914 24.1816 23.1883 23.3864 23.9852 22.5966C24.0405 22.539 24.1346 22.4759 24.1346 22.4156C24.1346 22.24 24.1595 21.9987 24.0599 21.9027C23.9575 21.8067 23.7112 21.8205 23.5425 21.8534C23.4373 21.8726 23.3543 22.0097 23.263 22.1002C22.5796 22.7748 21.8989 23.4522 21.1684 24.1762V24.1789Z" fill="#0668E1" style="fill:#0668E1;fill:color(display-p3 0.0235 0.4078 0.8824);fill-opacity:1;"/>
<path d="M21.1697 24.1802C21.9002 23.4562 22.5809 22.7789 23.2643 22.1043C23.3528 22.0165 23.4386 21.8766 23.5438 21.8574C23.7153 21.8273 23.9616 21.8108 24.0612 21.9068C24.1608 22.0028 24.1387 22.2414 24.1359 22.4196C24.1359 22.48 24.0418 22.543 23.9865 22.6006C23.1896 23.3932 22.3927 24.1857 21.5903 24.9728C21.2859 25.2717 21.1033 25.2662 20.7989 24.9673C20.4226 24.5998 20.0463 24.2268 19.6755 23.8539C19.421 23.5988 19.3961 23.352 19.6064 23.171C19.8471 22.9626 20.074 23.0339 20.276 23.2423C20.5693 23.5467 20.857 23.8539 21.1697 24.183V24.1802Z" fill="white" style="fill:white;fill-opacity:1;"/>
</svg>
