<svg width="72" height="72" viewBox="0 0 72 72" fill="none" xmlns="http://www.w3.org/2000/svg">
<path d="M35.9961 6.00195C38.6841 6.00195 41.2881 6.35595 43.7661 7.01895L37.3881 13.394C36.9042 13.8798 36.4775 14.4192 36.1161 15.002H35.9961C31.8427 15.002 27.7826 16.2336 24.3291 18.5411C20.8757 20.8486 18.1841 24.1283 16.5946 27.9656C15.0052 31.8028 14.5893 36.0252 15.3996 40.0988C16.2099 44.1724 18.2099 47.9143 21.1468 50.8512C24.0838 53.7881 27.8256 55.7882 31.8992 56.5984C35.9728 57.4087 40.1952 56.9929 44.0324 55.4034C47.8697 53.814 51.1494 51.1224 53.457 47.6689C55.7645 44.2155 56.9961 40.1554 56.9961 36.002V35.882C57.5761 35.522 58.1111 35.097 58.6011 34.607L64.9791 28.232C65.6421 30.71 65.9961 33.314 65.9961 36.002C65.9961 52.5709 52.5651 66.0019 35.9961 66.0019C19.4271 66.0019 5.99609 52.5709 5.99609 36.002C5.99609 19.433 19.4271 6.00195 35.9961 6.00195ZM34.7541 21.053C34.7541 23.606 34.6281 26.195 34.7661 28.745L33.1461 30.365C32.5888 30.9222 32.1468 31.5838 31.8452 32.3119C31.5436 33.04 31.3884 33.8204 31.3884 34.6084C31.3884 35.3965 31.5436 36.1769 31.8452 36.905C32.1468 37.6331 32.5888 38.2947 33.1461 38.852C33.7034 39.4092 34.3649 39.8513 35.093 40.1529C35.8211 40.4544 36.6015 40.6097 37.3896 40.6097C38.1777 40.6097 38.9581 40.4544 39.6862 40.1529C40.4143 39.8513 41.0758 39.4092 41.6331 38.852L43.2531 37.232C45.8031 37.3699 48.3891 37.2439 50.9451 37.2439C50.7081 40.095 49.6608 42.8188 47.9266 45.0941C46.1924 47.3694 43.8437 49.1013 41.1575 50.0856C38.4713 51.0699 35.5596 51.2655 32.7659 50.6493C29.9722 50.0332 27.413 48.6309 25.39 46.608C23.3671 44.5851 21.9649 42.0258 21.3487 39.2321C20.7325 36.4384 20.9281 33.5268 21.9124 30.8406C22.8967 28.1544 24.6286 25.8057 26.904 24.0715C29.1793 22.3373 31.9031 21.2899 34.7541 21.053ZM55.5081 6.38295C56.0557 6.60999 56.5237 6.99416 56.8532 7.48698C57.1826 7.9798 57.3586 8.55917 57.3591 9.15195V14.642H62.8461C63.4393 14.6421 64.0192 14.8181 64.5125 15.1477C65.0057 15.4774 65.3901 15.9459 65.6171 16.494C65.8441 17.0421 65.9035 17.6452 65.7878 18.227C65.6721 18.8089 65.3865 19.3434 64.9671 19.763L54.3561 30.3619C53.7936 30.9246 53.0307 31.2408 52.2351 31.241H44.9961L39.5121 36.7279C38.9492 37.2909 38.1857 37.6071 37.3896 37.6071C36.5935 37.6071 35.83 37.2909 35.2671 36.7279C34.7042 36.165 34.3879 35.4015 34.3879 34.6055C34.3879 33.8094 34.7042 33.0459 35.2671 32.483L40.7541 27.002V19.76C40.7538 19.3655 40.8313 18.9749 40.9821 18.6104C41.1329 18.246 41.3541 17.9148 41.6331 17.636L52.2381 7.03095C52.6576 6.61115 53.1923 6.32523 53.7743 6.20935C54.3564 6.09347 54.9598 6.15284 55.5081 6.37995" fill="#0668E1" style="fill:#0668E1;fill:color(display-p3 0.0235 0.4078 0.8824);fill-opacity:1;"/>
</svg>
