<svg width="246" height="76" viewBox="0 0 246 76" fill="none" xmlns="http://www.w3.org/2000/svg">
<path d="M103.851 0.5L39.5322 0.5C38.0482 0.5 36.6271 1.09982 35.5918 2.16309L4.43262 34.1631C2.35358 36.2985 2.35358 39.7015 4.43262 41.8369L35.5918 73.8369C36.6271 74.9002 38.0482 75.5 39.5322 75.5L103.851 75.5C108.706 75.4997 111.179 69.6671 107.804 66.1768L84.9238 42.5186C82.487 39.9989 82.487 36.0011 84.9238 33.4814L107.804 9.82324C111.179 6.33286 108.706 0.500292 103.851 0.5Z" fill="#044AA0" stroke="#0668E1"/>
<path d="M142.149 0.5L206.468 0.5C207.952 0.5 209.373 1.09982 210.408 2.16309L241.567 34.1631C243.646 36.2985 243.646 39.7015 241.567 41.8369L210.408 73.8369C209.373 74.9002 207.952 75.5 206.468 75.5L142.149 75.5C137.294 75.4997 134.821 69.6671 138.196 66.1768L161.076 42.5186C163.513 39.9989 163.513 36.0011 161.076 33.4814L138.196 9.82324C134.821 6.33286 137.294 0.500292 142.149 0.5Z" fill="#044AA0" stroke="#0668E1"/>
<path d="M89.7319 42.1804C87.4226 39.8711 87.4227 36.127 89.7321 33.8179L118.821 4.73168C121.131 2.42261 124.875 2.4228 127.184 4.7321L156.268 33.8198C158.577 36.129 158.577 39.8728 156.268 42.1819L127.182 71.2681C124.873 73.5773 121.129 73.5773 118.82 71.2681L89.7319 42.1804Z" fill="#0668E1"/>
<path d="M117.8 44.192C116.339 44.192 115.256 43.6853 114.552 42.672C113.848 41.6587 113.496 40.24 113.496 38.416C113.496 36.592 113.848 35.1733 114.552 34.16C115.256 33.1467 116.339 32.64 117.8 32.64C119.261 32.64 120.344 33.1467 121.048 34.16C121.752 35.1733 122.104 36.592 122.104 38.416C122.104 40.24 121.752 41.6587 121.048 42.672C120.344 43.6853 119.261 44.192 117.8 44.192ZM117.8 42.16C118.44 42.16 118.883 41.9253 119.128 41.456C119.373 40.9867 119.496 40.3253 119.496 39.472V37.36C119.496 36.5067 119.373 35.8453 119.128 35.376C118.883 34.9067 118.44 34.672 117.8 34.672C117.16 34.672 116.717 34.9067 116.472 35.376C116.227 35.8453 116.104 36.5067 116.104 37.36V39.472C116.104 40.3253 116.227 40.9867 116.472 41.456C116.717 41.9253 117.16 42.16 117.8 42.16ZM124.098 44V42.064H127.106V34.576H126.962L124.69 37.552L123.154 36.352L125.826 32.832H129.506V42.064H131.874V44H124.098Z" fill="white"/>
</svg>
