<svg width="246" height="76" viewBox="0 0 246 76" fill="none" xmlns="http://www.w3.org/2000/svg">
<path d="M103.851 0.5L39.5322 0.5C38.0482 0.5 36.6271 1.09982 35.5918 2.16309L4.43262 34.1631C2.35358 36.2985 2.35358 39.7015 4.43262 41.8369L35.5918 73.8369C36.6271 74.9002 38.0482 75.5 39.5322 75.5L103.851 75.5C108.706 75.4997 111.179 69.6671 107.804 66.1768L84.9238 42.5186C82.487 39.9989 82.487 36.0011 84.9238 33.4814L107.804 9.82324C111.179 6.33286 108.706 0.500292 103.851 0.5Z" fill="#044AA0" stroke="#0668E1"/>
<path d="M142.149 0.5L206.468 0.5C207.952 0.5 209.373 1.09982 210.408 2.16309L241.567 34.1631C243.646 36.2985 243.646 39.7015 241.567 41.8369L210.408 73.8369C209.373 74.9002 207.952 75.5 206.468 75.5L142.149 75.5C137.294 75.4997 134.821 69.6671 138.196 66.1768L161.076 42.5186C163.513 39.9989 163.513 36.0011 161.076 33.4814L138.196 9.82324C134.821 6.33286 137.294 0.500292 142.149 0.5Z" fill="#044AA0" stroke="#0668E1"/>
<path d="M89.7317 42.1801C87.4226 39.8708 87.4228 36.1268 89.7321 33.8176L118.82 4.73169C121.129 2.42273 124.873 2.42278 127.182 4.7318L156.268 33.8174C158.577 36.1267 158.577 39.8708 156.268 42.18L127.179 71.2682C124.87 73.5774 121.126 73.5773 118.817 71.268L89.7317 42.1801Z" fill="#0668E1"/>
<path d="M117.8 44.192C116.339 44.192 115.256 43.6853 114.552 42.672C113.848 41.6587 113.496 40.24 113.496 38.416C113.496 36.592 113.848 35.1733 114.552 34.16C115.256 33.1467 116.339 32.64 117.8 32.64C119.261 32.64 120.344 33.1467 121.048 34.16C121.752 35.1733 122.104 36.592 122.104 38.416C122.104 40.24 121.752 41.6587 121.048 42.672C120.344 43.6853 119.261 44.192 117.8 44.192ZM117.8 42.16C118.44 42.16 118.883 41.9253 119.128 41.456C119.373 40.9867 119.496 40.3253 119.496 39.472V37.36C119.496 36.5067 119.373 35.8453 119.128 35.376C118.883 34.9067 118.44 34.672 117.8 34.672C117.16 34.672 116.717 34.9067 116.472 35.376C116.227 35.8453 116.104 36.5067 116.104 37.36V39.472C116.104 40.3253 116.227 40.9867 116.472 41.456C116.717 41.9253 117.16 42.16 117.8 42.16ZM126.786 37.248C127.383 37.248 127.815 37.136 128.082 36.912C128.359 36.6773 128.498 36.3893 128.498 36.048V35.936C128.498 35.5307 128.364 35.2053 128.098 34.96C127.842 34.7147 127.474 34.592 126.994 34.592C126.546 34.592 126.124 34.7093 125.73 34.944C125.335 35.168 124.999 35.4933 124.722 35.92L123.218 34.512C123.431 34.2347 123.66 33.984 123.906 33.76C124.151 33.5253 124.428 33.328 124.738 33.168C125.047 32.9973 125.394 32.8693 125.778 32.784C126.162 32.688 126.594 32.64 127.074 32.64C127.671 32.64 128.21 32.7093 128.69 32.848C129.18 32.9867 129.596 33.1893 129.938 33.456C130.29 33.712 130.556 34.0213 130.738 34.384C130.93 34.7467 131.026 35.152 131.026 35.6C131.026 35.952 130.967 36.272 130.85 36.56C130.743 36.848 130.588 37.0987 130.386 37.312C130.194 37.5253 129.97 37.7013 129.714 37.84C129.458 37.968 129.186 38.0587 128.898 38.112V38.208C129.228 38.272 129.532 38.3787 129.81 38.528C130.098 38.6667 130.343 38.848 130.546 39.072C130.759 39.296 130.924 39.5627 131.042 39.872C131.159 40.1707 131.218 40.512 131.218 40.896C131.218 41.3973 131.116 41.8507 130.914 42.256C130.711 42.6613 130.423 43.008 130.05 43.296C129.676 43.584 129.228 43.808 128.706 43.968C128.183 44.1173 127.607 44.192 126.978 44.192C126.412 44.192 125.911 44.1333 125.474 44.016C125.036 43.8987 124.652 43.744 124.322 43.552C124.002 43.3493 123.719 43.12 123.474 42.864C123.239 42.608 123.031 42.336 122.85 42.048L124.626 40.672C124.871 41.1307 125.17 41.5093 125.522 41.808C125.884 42.096 126.37 42.24 126.978 42.24C127.522 42.24 127.943 42.1067 128.242 41.84C128.551 41.5627 128.706 41.1893 128.706 40.72V40.624C128.706 40.1653 128.53 39.824 128.178 39.6C127.836 39.3653 127.362 39.248 126.754 39.248H125.746V37.248H126.786Z" fill="white"/>
</svg>
