<svg width="246" height="76" viewBox="0 0 246 76" fill="none" xmlns="http://www.w3.org/2000/svg">
<path d="M103.851 0.5L39.5322 0.5C38.0482 0.5 36.6271 1.09982 35.5918 2.16309L4.43262 34.1631C2.35358 36.2985 2.35358 39.7015 4.43262 41.8369L35.5918 73.8369C36.6271 74.9002 38.0482 75.5 39.5322 75.5L103.851 75.5C108.706 75.4997 111.179 69.6671 107.804 66.1768L84.9238 42.5186C82.487 39.9989 82.487 36.0011 84.9238 33.4814L107.804 9.82324C111.179 6.33286 108.706 0.500292 103.851 0.5Z" fill="#044AA0" stroke="#0668E1"/>
<path d="M142.149 0.5L206.468 0.5C207.952 0.5 209.373 1.09982 210.408 2.16309L241.567 34.1631C243.646 36.2985 243.646 39.7015 241.567 41.8369L210.408 73.8369C209.373 74.9002 207.952 75.5 206.468 75.5L142.149 75.5C137.294 75.4997 134.821 69.6671 138.196 66.1768L161.076 42.5186C163.513 39.9989 163.513 36.0011 161.076 33.4814L138.196 9.82324C134.821 6.33286 137.294 0.500292 142.149 0.5Z" fill="#044AA0" stroke="#0668E1"/>
<path d="M89.7317 42.1782C87.4226 39.8689 87.4228 36.1248 89.7321 33.8157L118.82 4.72974C121.129 2.42078 124.873 2.42082 127.182 4.72984L156.268 33.8155C158.577 36.1247 158.577 39.8688 156.268 42.1781L127.179 71.2663C124.87 73.5754 121.126 73.5753 118.817 71.266L89.7317 42.1782Z" fill="#0668E1"/>
<path d="M117.8 44.192C116.339 44.192 115.256 43.6853 114.552 42.672C113.848 41.6587 113.496 40.24 113.496 38.416C113.496 36.592 113.848 35.1733 114.552 34.16C115.256 33.1467 116.339 32.64 117.8 32.64C119.261 32.64 120.344 33.1467 121.048 34.16C121.752 35.1733 122.104 36.592 122.104 38.416C122.104 40.24 121.752 41.6587 121.048 42.672C120.344 43.6853 119.261 44.192 117.8 44.192ZM117.8 42.16C118.44 42.16 118.883 41.9253 119.128 41.456C119.373 40.9867 119.496 40.3253 119.496 39.472V37.36C119.496 36.5067 119.373 35.8453 119.128 35.376C118.883 34.9067 118.44 34.672 117.8 34.672C117.16 34.672 116.717 34.9067 116.472 35.376C116.227 35.8453 116.104 36.5067 116.104 37.36V39.472C116.104 40.3253 116.227 40.9867 116.472 41.456C116.717 41.9253 117.16 42.16 117.8 42.16ZM131.41 44H123.506V41.808L126.946 38.864C127.255 38.5973 127.516 38.3573 127.73 38.144C127.943 37.92 128.114 37.7067 128.242 37.504C128.38 37.2907 128.476 37.0827 128.53 36.88C128.594 36.6773 128.626 36.4587 128.626 36.224V36C128.626 35.7867 128.583 35.6 128.498 35.44C128.412 35.28 128.3 35.1467 128.162 35.04C128.023 34.9333 127.863 34.8533 127.682 34.8C127.511 34.7467 127.335 34.72 127.154 34.72C126.887 34.72 126.652 34.7627 126.45 34.848C126.258 34.9333 126.087 35.0507 125.938 35.2C125.799 35.3387 125.682 35.504 125.586 35.696C125.49 35.8773 125.415 36.0747 125.362 36.288L123.266 35.488C123.394 35.104 123.57 34.7413 123.794 34.4C124.018 34.048 124.295 33.744 124.626 33.488C124.967 33.2213 125.367 33.0133 125.826 32.864C126.284 32.7147 126.802 32.64 127.378 32.64C127.986 32.64 128.524 32.7253 128.994 32.896C129.463 33.0667 129.858 33.3013 130.178 33.6C130.508 33.8987 130.759 34.256 130.93 34.672C131.1 35.0773 131.186 35.52 131.186 36C131.186 36.48 131.106 36.9173 130.946 37.312C130.786 37.7067 130.567 38.08 130.29 38.432C130.023 38.7733 129.708 39.0987 129.346 39.408C128.983 39.7173 128.604 40.032 128.21 40.352L126.13 41.984H131.41V44Z" fill="white"/>
</svg>
