<svg width="160" height="160" viewBox="0 0 160 160" fill="none" xmlns="http://www.w3.org/2000/svg">
<g filter="url(#filter0_di_20541_75713)">
<rect x="40" y="38" width="80" height="80" rx="40" fill="#0668E1" style="fill:#0668E1;fill:color(display-p3 0.0235 0.4078 0.8824);fill-opacity:1;"/>
<rect x="75" y="57" width="10" height="39" rx="2" fill="white" style="fill:white;fill-opacity:1;"/>
<path d="M90 61C90 59.8954 89.1046 59 88 59H62.9613C62.3537 59 61.7791 59.2762 61.3995 59.7506L58.9995 62.7506C58.4152 63.481 58.4152 64.519 58.9995 65.2494L61.3995 68.2494C61.7791 68.7238 62.3537 69 62.9613 69H88C89.1046 69 90 68.1046 90 67V64V61Z" fill="white" style="fill:white;fill-opacity:1;"/>
<path d="M69 75C69 73.8954 69.8954 73 71 73H96.0387C96.6463 73 97.2209 73.2762 97.6005 73.7506L100 76.7506C100.585 77.481 100.585 78.519 100 79.2494L97.6005 82.2494C97.2209 82.7238 96.6463 83 96.0387 83H71C69.8954 83 69 82.1046 69 81V78V75Z" fill="white" style="fill:white;fill-opacity:1;"/>
<path d="M65 64.42L65.87 65.29C65.925 65.345 65.995 65.3725 66.08 65.3725C66.165 65.3725 66.235 65.345 66.29 65.29C66.345 65.235 66.3725 65.165 66.3725 65.08C66.3725 64.995 66.345 64.925 66.29 64.87L65.42 64L66.29 63.13C66.345 63.075 66.3725 63.005 66.3725 62.92C66.3725 62.835 66.345 62.765 66.29 62.71C66.235 62.655 66.165 62.6275 66.08 62.6275C65.995 62.6275 65.925 62.655 65.87 62.71L65 63.58L64.13 62.71C64.075 62.655 64.005 62.6275 63.92 62.6275C63.835 62.6275 63.765 62.655 63.71 62.71C63.655 62.765 63.6275 62.835 63.6275 62.92C63.6275 63.005 63.655 63.075 63.71 63.13L64.58 64L63.71 64.87C63.655 64.925 63.6275 64.995 63.6275 65.08C63.6275 65.165 63.655 65.235 63.71 65.29C63.765 65.345 63.835 65.3725 63.92 65.3725C64.005 65.3725 64.075 65.345 64.13 65.29L65 64.42ZM65 67C64.585 67 64.195 66.9212 63.83 66.7636C63.465 66.606 63.1475 66.3923 62.8775 66.1225C62.6075 65.8527 62.3938 65.5352 62.2364 65.17C62.079 64.8048 62.0002 64.4148 62 64C61.9998 63.5852 62.0786 63.1952 62.2364 62.83C62.3942 62.4648 62.6079 62.1473 62.8775 61.8775C63.1471 61.6077 63.4646 61.394 63.83 61.2364C64.1954 61.0788 64.5854 61 65 61C65.4146 61 65.8046 61.0788 66.17 61.2364C66.5354 61.394 66.8529 61.6077 67.1225 61.8775C67.3921 62.1473 67.6059 62.4648 67.7639 62.83C67.9219 63.1952 68.0006 63.5852 68 64C67.9994 64.4148 67.9206 64.8048 67.7636 65.17C67.6066 65.5352 67.3929 65.8527 67.1225 66.1225C66.8521 66.3923 66.5346 66.6061 66.17 66.7639C65.8054 66.9217 65.4154 67.0004 65 67Z" fill="#0668E1" style="fill:#0668E1;fill:color(display-p3 0.0235 0.4078 0.8824);fill-opacity:1;"/>
<mask id="mask0_20541_75713" style="mask-type:luminance" maskUnits="userSpaceOnUse" x="90" y="74" width="8" height="8">
<path d="M94 81C94.394 81.0005 94.7843 80.9231 95.1483 80.7723C95.5124 80.6215 95.843 80.4003 96.1213 80.1213C96.4003 79.843 96.6215 79.5124 96.7723 79.1483C96.9231 78.7843 97.0005 78.394 97 78C97.0005 77.606 96.9231 77.2157 96.7723 76.8517C96.6215 76.4876 96.4003 76.157 96.1213 75.8787C95.843 75.5997 95.5124 75.3785 95.1483 75.2277C94.7843 75.0769 94.394 74.9995 94 75C93.606 74.9995 93.2157 75.0769 92.8517 75.2277C92.4876 75.3785 92.157 75.5997 91.8787 75.8787C91.5997 76.157 91.3785 76.4876 91.2277 76.8517C91.0769 77.2157 90.9995 77.606 91 78C90.9995 78.394 91.0769 78.7843 91.2277 79.1483C91.3785 79.5124 91.5997 79.843 91.8787 80.1213C92.157 80.4003 92.4876 80.6215 92.8517 80.7723C93.2157 80.9231 93.606 81.0005 94 81Z" stroke="white" style="stroke:white;stroke-opacity:1;" stroke-width="0.5" stroke-linejoin="round"/>
<path d="M92.7969 78.0016L93.6969 78.9016L95.4969 77.1016" stroke="white" style="stroke:white;stroke-opacity:1;" stroke-width="0.5" stroke-linecap="round" stroke-linejoin="round"/>
</mask>
<g mask="url(#mask0_20541_75713)">
<path d="M90.3984 74.3984H97.5984V81.5984H90.3984V74.3984Z" fill="#0668E1" style="fill:#0668E1;fill:color(display-p3 0.0235 0.4078 0.8824);fill-opacity:1;"/>
</g>
</g>
<defs>
<filter id="filter0_di_20541_75713" x="0" y="0" width="160" height="160" filterUnits="userSpaceOnUse" color-interpolation-filters="sRGB">
<feFlood flood-opacity="0" result="BackgroundImageFix"/>
<feColorMatrix in="SourceAlpha" type="matrix" values="0 0 0 0 0 0 0 0 0 0 0 0 0 0 0 0 0 0 127 0" result="hardAlpha"/>
<feMorphology radius="10" operator="dilate" in="SourceAlpha" result="effect1_dropShadow_20541_75713"/>
<feOffset dy="2"/>
<feGaussianBlur stdDeviation="15"/>
<feComposite in2="hardAlpha" operator="out"/>
<feColorMatrix type="matrix" values="0 0 0 0 0.0235294 0 0 0 0 0.407843 0 0 0 0 0.882353 0 0 0 0.05 0"/>
<feBlend mode="normal" in2="BackgroundImageFix" result="effect1_dropShadow_20541_75713"/>
<feBlend mode="normal" in="SourceGraphic" in2="effect1_dropShadow_20541_75713" result="shape"/>
<feColorMatrix in="SourceAlpha" type="matrix" values="0 0 0 0 0 0 0 0 0 0 0 0 0 0 0 0 0 0 127 0" result="hardAlpha"/>
<feOffset dx="-2" dy="-8"/>
<feGaussianBlur stdDeviation="2.5"/>
<feComposite in2="hardAlpha" operator="arithmetic" k2="-1" k3="1"/>
<feColorMatrix type="matrix" values="0 0 0 0 0 0 0 0 0 0 0 0 0 0 0 0 0 0 0.25 0"/>
<feBlend mode="normal" in2="shape" result="effect2_innerShadow_20541_75713"/>
</filter>
</defs>
</svg>
