<svg width="32" height="32" viewBox="0 0 32 32" fill="none" xmlns="http://www.w3.org/2000/svg">
<path d="M15.9974 21.3333C18.2107 21.3333 19.9974 19.5467 19.9974 17.3333C19.9974 15.84 19.1841 14.5333 17.9974 13.8533L5.05073 6.36L12.4241 19.1333C13.0907 20.44 14.4374 21.3333 15.9974 21.3333ZM15.9974 4C13.5841 4 11.3307 4.66667 9.37073 5.76L12.1707 7.37333C13.3307 6.92 14.6641 6.66667 15.9974 6.66667C21.8907 6.66667 26.6641 11.44 26.6641 17.3333C26.6641 20.28 25.4774 22.9467 23.5441 24.8667H23.5307C23.4071 24.99 23.3091 25.1365 23.2422 25.2978C23.1752 25.4591 23.1408 25.632 23.1408 25.8067C23.1408 25.9813 23.1752 26.1542 23.2422 26.3155C23.3091 26.4768 23.4071 26.6233 23.5307 26.7467C24.0507 27.2667 24.9041 27.2667 25.4241 26.76C26.664 25.5235 27.6475 24.0542 28.3179 22.4364C28.9883 20.8187 29.3325 19.0845 29.3307 17.3333C29.3307 10 23.3307 4 15.9974 4ZM2.66406 17.3333C2.66406 21.0133 4.1574 24.3467 6.57073 26.76C7.09073 27.2667 7.93073 27.2667 8.45073 26.7467C8.57433 26.6233 8.6724 26.4768 8.73931 26.3155C8.80621 26.1542 8.84065 25.9813 8.84065 25.8067C8.84065 25.632 8.80621 25.4591 8.73931 25.2978C8.6724 25.1365 8.57433 24.99 8.45073 24.8667C7.45913 23.8791 6.67289 22.705 6.13739 21.412C5.6019 20.119 5.32774 18.7328 5.33073 17.3333C5.33073 16 5.58406 14.6667 6.05073 13.4667L4.4374 10.6667C3.33073 12.6667 2.66406 14.9067 2.66406 17.3333Z" fill="#0668E1" style="fill:#0668E1;fill:color(display-p3 0.0235 0.4078 0.8824);fill-opacity:1;"/>
</svg>
