<svg width="52" height="52" viewBox="0 0 52 52" fill="none" xmlns="http://www.w3.org/2000/svg">
<path d="M6.5 41.1667H45.5V45.5H6.5V41.1667ZM13 34.6667C15.3833 34.6667 17.3333 32.7167 17.3333 30.3333C17.3333 29.25 16.9 28.1667 16.25 27.5167L19.0667 21.6667H19.5C20.5833 21.6667 21.6667 21.2333 22.3167 20.5833L28.1667 23.6167V23.8333C28.1667 26.2167 30.1167 28.1667 32.5 28.1667C34.8833 28.1667 36.8333 26.2167 36.8333 23.8333C36.8333 22.75 36.4 21.8833 35.75 21.0167L38.5667 15.1667H39C41.3833 15.1667 43.3333 13.2167 43.3333 10.8333C43.3333 8.45 41.3833 6.5 39 6.5C36.6167 6.5 34.6667 8.45 34.6667 10.8333C34.6667 11.9167 35.1 13 35.75 13.65L32.9333 19.5H32.5C31.4167 19.5 30.3333 19.9333 29.6833 20.5833L23.8333 17.7667V17.3333C23.8333 14.95 21.8833 13 19.5 13C17.1167 13 15.1667 14.95 15.1667 17.3333C15.1667 18.4167 15.6 19.5 16.25 20.15L13.4333 26H13C10.6167 26 8.66667 27.95 8.66667 30.3333C8.66667 32.7167 10.6167 34.6667 13 34.6667Z" fill="#0668E1" style="fill:#0668E1;fill:color(display-p3 0.0235 0.4078 0.8824);fill-opacity:1;"/>
</svg>
