<svg width="32" height="32" viewBox="0 0 32 32" fill="none" xmlns="http://www.w3.org/2000/svg">
<path d="M10.214 13.1807C10.849 13.1807 11.484 13.1823 12.119 13.1807C12.9231 13.1782 13.3798 12.8473 13.6273 12.0857C14.0223 10.8707 14.4165 9.65483 14.8056 8.43733C14.9415 8.0115 15.194 7.7015 15.6281 7.57233C16.2873 7.37567 16.904 7.7015 17.1315 8.37983C17.4915 9.454 17.864 10.5248 18.174 11.6132C18.5698 13.0007 19.0415 13.2215 20.3431 13.1865C21.4356 13.1573 22.529 13.174 23.6223 13.1748C24.3006 13.1748 24.7248 13.4548 24.9031 14.0065C25.079 14.5507 24.8956 15.0357 24.3481 15.4348C23.3231 16.1832 22.2923 16.9248 21.2665 17.6715C20.6481 18.1215 20.4698 18.6648 20.7065 19.394C21.104 20.6198 21.5148 21.8407 21.9081 23.0682C22.1648 23.8682 21.749 24.5707 20.9565 24.7115C20.6531 24.7657 20.3848 24.6757 20.1248 24.5248C19.9873 24.4457 19.994 24.3298 19.994 24.2032C19.9948 23.4532 19.9973 22.704 19.994 21.954C19.9881 20.439 18.9356 19.3898 17.4148 19.384C16.4673 19.3807 15.5198 19.3815 14.5723 19.384C13.0123 19.3873 11.9748 20.4207 11.9631 21.9882C11.9573 22.7173 11.9506 23.4457 11.969 24.1748C11.9748 24.4032 11.8848 24.5223 11.6965 24.6057C11.2348 24.809 10.7998 24.7657 10.4115 24.4432C9.99064 24.094 9.8673 23.6415 10.034 23.1232C10.3606 22.104 10.6965 21.0882 11.0298 20.0707C11.104 19.8432 11.1823 19.6173 11.254 19.3898C11.4856 18.6532 11.3173 18.1223 10.6931 17.6673C9.6423 16.9007 8.58397 16.144 7.53564 15.3757C7.05897 15.0265 6.8973 14.5482 7.05397 14.0357C7.2123 13.5165 7.6123 13.1907 8.1548 13.1807C8.84147 13.1673 9.52897 13.1773 10.2156 13.1773C10.2156 13.1782 10.2156 13.179 10.2156 13.1798L10.214 13.1807Z" fill="white" style="fill:white;fill-opacity:1;"/>
<path d="M19.2397 23.8838C18.4264 23.2913 17.6622 22.7388 16.9022 22.1788C16.5231 21.8996 16.1181 21.7588 15.6456 21.8746C15.4081 21.9329 15.2089 22.0646 15.0156 22.2054C14.3439 22.6963 13.6731 23.1888 12.9989 23.6754C12.9197 23.7321 12.8564 23.8296 12.7289 23.8196C12.7289 23.1021 12.6914 22.3854 12.7389 21.6746C12.7964 20.8079 13.4714 20.1696 14.3447 20.1454C15.4264 20.1154 16.5097 20.1163 17.5914 20.1438C18.5206 20.1679 19.2139 20.8888 19.2372 21.8121C19.2539 22.4779 19.2406 23.1438 19.2406 23.8829L19.2397 23.8838Z" fill="white" style="fill:white;fill-opacity:1;"/>
<path d="M15.6094 2.60299C15.6094 2.23883 15.6102 1.87466 15.6094 1.51049C15.6085 1.25633 15.7069 1.07549 15.9827 1.07716C16.2602 1.07883 16.356 1.27133 16.3577 1.51716C16.361 2.24549 16.3619 2.97383 16.3577 3.70216C16.356 3.94799 16.2569 4.13799 15.9769 4.13549C15.6977 4.13216 15.6085 3.94799 15.6102 3.69549C15.6119 3.33133 15.6102 2.96716 15.6102 2.60299H15.6094Z" fill="white" style="fill:white;fill-opacity:1;"/>
<path d="M29.0614 8.77651C29.0664 8.94068 28.9772 9.04985 28.8439 9.12735C28.1897 9.50568 27.5355 9.88485 26.878 10.2582C26.663 10.3807 26.4639 10.334 26.348 10.1157C26.2397 9.91235 26.308 9.73151 26.5097 9.61401C27.163 9.23401 27.8139 8.84985 28.4739 8.48151C28.7664 8.31818 29.0564 8.47651 29.0605 8.77735L29.0614 8.77651Z" fill="white" style="fill:white;fill-opacity:1;"/>
<path d="M26.6882 21.9308C26.7707 21.9216 26.8524 21.97 26.9324 22.0158C27.5515 22.3716 28.1715 22.7275 28.7874 23.0875C29.0582 23.2458 29.1307 23.44 29.0124 23.6458C28.8957 23.8475 28.6774 23.8875 28.4157 23.7383C27.7865 23.3791 27.1615 23.0116 26.5332 22.6516C26.3465 22.545 26.2582 22.3933 26.3207 22.1875C26.369 22.0266 26.4924 21.9325 26.6882 21.9308Z" fill="white" style="fill:white;fill-opacity:1;"/>
<path d="M15.6063 29.6414C15.6063 29.2772 15.6072 28.913 15.6063 28.5489C15.6055 28.2955 15.6972 28.1147 15.9763 28.1114C16.238 28.108 16.3497 28.2822 16.3522 28.5164C16.3597 29.2655 16.3597 30.0147 16.3522 30.7647C16.3497 31.0005 16.2297 31.1772 15.9763 31.1739C15.7063 31.1705 15.6038 30.9897 15.6055 30.7339C15.608 30.3697 15.6055 30.0055 15.6055 29.6414H15.6063Z" fill="white" style="fill:white;fill-opacity:1;"/>
<path d="M5.64479 22.3039C5.64812 22.4697 5.55479 22.5739 5.42145 22.6514C4.78229 23.0205 4.14479 23.3905 3.50312 23.7564C3.28479 23.8814 3.07395 23.873 2.93895 23.6355C2.80895 23.4064 2.91895 23.2355 3.12312 23.1164C3.76062 22.7447 4.39729 22.3714 5.03979 22.0089C5.34895 21.8339 5.64812 21.988 5.64479 22.303V22.3039Z" fill="white" style="fill:white;fill-opacity:1;"/>
<path d="M3.2002 8.41703C3.37437 8.41537 3.46687 8.46453 3.55687 8.51703C4.1602 8.86537 4.76353 9.21287 5.3652 9.56453C5.64437 9.72787 5.73187 9.94703 5.59187 10.1454C5.42187 10.3862 5.21353 10.3445 4.9902 10.2137C4.37187 9.85037 3.74937 9.4937 3.12853 9.13453C2.96103 9.03787 2.85187 8.90287 2.90353 8.70037C2.94937 8.5212 3.0752 8.4212 3.20103 8.41703H3.2002Z" fill="white" style="fill:white;fill-opacity:1;"/>
<path d="M18.3303 16.3945C18.3253 17.7045 17.2686 18.7529 15.9595 18.7462C14.662 18.7395 13.6136 17.6687 13.6211 16.3587C13.6295 15.0729 14.6953 14.0145 15.9786 14.0195C17.282 14.0245 18.3345 15.0879 18.3295 16.3945H18.3303Z" fill="#0668E1" style="fill:#0668E1;fill:color(display-p3 0.0235 0.4078 0.8824);fill-opacity:1;"/>
<path d="M17.5755 16.3822C17.5772 17.2755 16.8705 17.9905 15.9822 17.9964C15.0847 18.0014 14.363 17.2755 14.3672 16.3714C14.3714 15.488 15.0989 14.7647 15.9772 14.7705C16.863 14.7764 17.5747 15.4939 17.5755 16.383V16.3822Z" fill="white" style="fill:white;fill-opacity:1;"/>
</svg>
