<svg width="40" height="40" viewBox="0 0 40 40" fill="none" xmlns="http://www.w3.org/2000/svg">
<path d="M17.3805 25.0329C17.5138 24.3292 17.6378 23.6256 17.7866 22.9251C17.8361 22.6936 17.7928 22.5404 17.6161 22.3809C17.1264 21.9368 16.646 21.4834 16.181 21.0143C16.0788 20.9111 15.9703 20.7046 16.0075 20.5952C16.0447 20.4826 16.2492 20.3794 16.3949 20.3575C17.0458 20.2543 17.6967 20.173 18.3507 20.1073C18.5893 20.0823 18.7133 19.9822 18.8063 19.7696C19.0666 19.1754 19.3394 18.5843 19.6307 18.0057C19.702 17.865 19.8725 17.6805 19.9934 17.6836C20.1173 17.6868 20.2816 17.8744 20.3529 18.0183C20.638 18.5874 20.9046 19.166 21.1587 19.7477C21.2579 19.976 21.3819 20.0854 21.6392 20.1105C22.2683 20.1699 22.8944 20.2512 23.5174 20.3544C23.6848 20.3825 23.8986 20.4857 23.9699 20.6202C24.0164 20.7078 23.8677 20.9455 23.753 21.058C23.3067 21.5084 22.8448 21.9462 22.3706 22.3684C22.1847 22.5373 22.1289 22.6936 22.1847 22.9438C22.3272 23.5912 22.4481 24.2448 22.5535 24.8984C22.5752 25.0329 22.5411 25.2549 22.4543 25.305C22.3427 25.3706 22.132 25.355 22.0049 25.2893C21.4315 24.9954 20.8643 24.6858 20.3095 24.348C20.0646 24.1979 19.8787 24.2167 19.6431 24.3574C19.0759 24.6951 18.4963 25.0079 17.9167 25.3175C17.6192 25.477 17.3774 25.3394 17.3774 25.0329H17.3805Z" fill="#0668E1" style="fill:#0668E1;fill:color(display-p3 0.0235 0.4078 0.8824);fill-opacity:1;"/>
<path d="M23.891 18.7929C23.3486 18.7929 22.8062 18.7772 22.2669 18.7991C22.0004 18.8116 21.8733 18.7116 21.7772 18.4739C21.6253 18.1017 21.4487 17.739 21.2689 17.3762C21.0024 16.8383 20.5746 16.5443 19.9733 16.5474C19.3876 16.5537 18.9691 16.8477 18.7119 17.3699C18.5228 17.7546 18.3647 18.158 18.154 18.527C18.0827 18.6521 17.8936 18.7741 17.7541 18.7772C16.6445 18.796 15.5349 18.7929 14.4254 18.7866C13.9449 18.7866 13.7404 18.6021 13.759 18.1299C13.7962 17.2886 13.759 16.4223 13.9542 15.6124C14.5028 13.3013 16.6012 11.6688 18.9567 11.6312C19.8587 11.6156 20.7699 11.5906 21.6625 11.7C24.0832 11.994 26.008 14.0706 26.1939 16.5255C26.2342 17.0697 26.2218 17.6201 26.2156 18.1643C26.2125 18.5927 26.0204 18.7804 25.5926 18.7866C25.0254 18.796 24.4582 18.7866 23.8879 18.7866L23.891 18.7929Z" fill="#0668E1" style="fill:#0668E1;fill:color(display-p3 0.0235 0.4078 0.8824);fill-opacity:1;"/>
<path d="M23.0142 8.0711C23.008 9.75674 21.6473 11.1203 19.9736 11.1109C18.2999 11.1015 16.9548 9.73485 16.961 8.04295C16.9672 6.35732 18.3309 4.99067 20.0015 5.00005C21.6721 5.00943 23.0204 6.38233 23.0142 8.0711Z" fill="#0668E1" style="fill:#0668E1;fill:color(display-p3 0.0235 0.4078 0.8824);fill-opacity:1;"/>
<path d="M17.8822 31.5674C16.1311 31.5674 14.4016 31.5705 12.6752 31.558C12.5884 31.558 12.4551 31.4329 12.4241 31.3359C12.1793 30.5979 11.7237 30.0099 11.1782 29.4783C8.81329 27.1703 9.11394 27.53 8.00434 24.559C7.32866 22.7576 6.65608 20.9531 5.999 19.1455C5.80994 18.6201 5.65496 18.0822 5.52169 17.5381C5.38531 16.9783 5.91532 16.4466 6.46082 16.6249C6.77386 16.7281 7.1024 16.9376 7.30696 17.191C7.6355 17.6006 7.89586 18.076 8.13451 18.5482C8.65832 19.5802 9.15423 20.6248 9.65014 21.6693C9.70283 21.7788 9.73382 21.9602 9.67803 22.0477C9.28441 22.6826 9.3247 23.3393 9.65324 23.946C9.96938 24.5371 10.3413 25.1125 10.7783 25.616C11.3827 26.3072 12.0708 26.9233 12.7248 27.5706C12.9355 27.7801 13.1804 27.8552 13.4067 27.6238C13.6515 27.3705 13.5337 27.1328 13.3137 26.9139C12.6845 26.2978 12.0274 25.7036 11.4478 25.0437C11.0511 24.5934 10.7194 24.0649 10.4374 23.5301C10.1801 23.0453 10.2793 22.7232 10.6265 22.4042C10.9643 22.0915 11.3672 22.029 11.8073 22.2791C12.0832 22.4355 12.3343 22.6513 12.576 22.8671C13.5771 23.749 14.5194 24.7091 15.5763 25.5128C17.0826 26.6543 17.7521 28.1742 17.8822 30.0006C17.9194 30.5041 17.8884 31.0107 17.8884 31.5674H17.8822Z" fill="#0668E1" style="fill:#0668E1;fill:color(display-p3 0.0235 0.4078 0.8824);fill-opacity:1;"/>
<path d="M15.2211 34.9964C14.3811 34.9964 13.5443 34.9996 12.7043 34.9964C11.8923 34.9933 11.5234 34.5836 11.5234 33.7049C11.5234 32.8605 11.9016 32.4477 12.6981 32.4477C14.4152 32.4445 16.1323 32.4445 17.8463 32.4477C18.6336 32.4477 19.0086 32.8667 19.0086 33.7205C19.0086 34.5774 18.6367 34.9933 17.8525 34.9996C16.9754 35.0058 16.0982 34.9996 15.2211 34.9996V34.9964Z" fill="#0668E1" style="fill:#0668E1;fill:color(display-p3 0.0235 0.4078 0.8824);fill-opacity:1;"/>
<path d="M22.0553 31.5674C22.0398 29.2688 22.294 27.1641 24.2559 25.641C25.3903 24.7623 26.41 23.7396 27.4886 22.7889C27.7211 22.5856 27.9691 22.3917 28.2418 22.251C28.6695 22.0321 29.0477 22.1196 29.3824 22.4261C29.7233 22.7389 29.7667 23.1266 29.5622 23.4925C29.2615 24.0336 28.9392 24.5777 28.5363 25.0406C27.9567 25.7036 27.2872 26.2821 26.6797 26.9201C26.5526 27.0546 26.4658 27.3142 26.4968 27.4893C26.5495 27.7739 26.9214 27.8583 27.157 27.6457C28.2759 26.623 29.4289 25.6254 30.179 24.2681C30.5788 23.5457 30.7802 22.7952 30.2781 22.0164C30.2316 21.9476 30.2626 21.7944 30.306 21.7037C30.8608 20.5435 31.3939 19.3707 31.9983 18.2386C32.2742 17.7226 32.6554 17.2472 33.0676 16.8282C33.3962 16.4935 33.8239 16.5092 34.1338 16.7344C34.419 16.9408 34.5771 17.2066 34.4562 17.5756C34.1865 18.4044 33.9355 19.2394 33.641 20.0556C32.9065 22.0727 32.144 24.0774 31.4094 26.0914C31.0964 26.9514 30.6284 27.6988 29.9682 28.3306C29.463 28.8153 28.933 29.2844 28.4929 29.8223C28.1302 30.2664 27.8823 30.8043 27.5692 31.2921C27.4979 31.4016 27.3709 31.5517 27.2686 31.5517C25.5546 31.5674 23.8375 31.5642 22.0553 31.5642V31.5674Z" fill="#0668E1" style="fill:#0668E1;fill:color(display-p3 0.0235 0.4078 0.8824);fill-opacity:1;"/>
<path d="M24.716 32.4442C25.5683 32.4442 26.4207 32.4411 27.273 32.4442C28.0851 32.4473 28.4539 32.857 28.4539 33.7358C28.4539 34.5802 28.0758 34.993 27.2792 34.9961C25.5621 34.9992 23.845 34.9992 22.131 34.9961C21.3438 34.9961 20.9688 34.577 20.9688 33.7233C20.9688 32.8664 21.3407 32.4504 22.1248 32.4442C22.9896 32.4379 23.8543 32.4442 24.7191 32.4442H24.716Z" fill="#0668E1" style="fill:#0668E1;fill:color(display-p3 0.0235 0.4078 0.8824);fill-opacity:1;"/>
</svg>
