<svg width="40" height="40" viewBox="0 0 40 40" fill="none" xmlns="http://www.w3.org/2000/svg">
<path d="M8.00597 23.2946C8.04117 23.5311 8.04437 23.668 8.07957 23.7955C8.74514 26.1754 9.43631 28.5491 10.0667 30.9384C10.2235 31.5388 10.5819 31.7006 11.1226 31.8188C14.2361 32.497 17.3464 33.1876 20.4503 33.9031C21.2918 34.096 22.0214 34.012 22.767 33.5454C25.1349 32.0645 27.5348 30.6273 29.9219 29.1744C31.7394 28.07 33.5569 26.9656 35.368 25.855C35.976 25.4817 36.1648 25.0212 35.8224 24.567C34.9233 23.3631 33.8033 22.5853 31.9698 23.2635C30.933 23.6462 29.9443 24.1502 28.9203 24.567C28.3123 24.8128 27.9187 25.0555 27.9187 25.8519C27.9219 26.9221 26.9844 27.6936 25.7076 27.9331C23.0101 28.434 20.2903 28.2162 17.5768 28.1105C17.2088 28.0949 16.9144 27.902 16.9336 27.4945C16.9528 27.0776 17.2472 26.9532 17.6376 26.9718C18.3895 27.003 19.1447 27.0714 19.8967 27.0496C21.7366 26.9967 23.5765 26.9158 25.4164 26.8132C25.9572 26.7821 26.3988 26.5114 26.626 25.9981C26.9684 25.2141 26.45 24.3182 25.5316 24.287C23.6309 24.2217 21.7238 24.2622 19.8199 24.2279C19.2311 24.2186 18.6231 24.1782 18.0632 24.0226C16.748 23.6586 15.4681 23.1795 14.1529 22.8155C13.4777 22.6289 12.7386 22.4236 12.0634 22.5044C10.7163 22.66 9.39471 23.0115 8.00597 23.2946ZM6.27804 23.0675C5.51648 23.2666 4.8925 23.3849 4.30693 23.612C4.13413 23.6773 3.98694 24.0444 3.99654 24.2653C4.00934 24.623 4.15973 24.9746 4.25893 25.3292C4.9693 27.8554 5.67647 30.3784 6.39644 32.9014C6.57243 33.5143 6.82202 33.6387 7.44919 33.4925C7.83318 33.4023 8.21716 33.3089 8.60115 33.2063C9.22192 33.0414 9.38831 32.8112 9.21552 32.189C8.42835 29.3455 7.63159 26.5052 6.80602 23.6711C6.73562 23.4284 6.44124 23.248 6.27804 23.0675Z" fill="#0668E1" style="fill:#0668E1;fill:color(display-p3 0.0235 0.4078 0.8824);fill-opacity:1;"/>
<path d="M8.01562 23.295C9.40117 23.0119 10.7259 22.6604 12.0763 22.4986C12.7514 22.4177 13.4906 22.623 14.1658 22.8097C15.4809 23.1737 16.7609 23.6528 18.076 24.0168C18.636 24.1723 19.244 24.2096 19.8327 24.2221C21.7367 24.2563 23.6406 24.219 25.5445 24.2812C26.4629 24.3123 26.9844 25.2114 26.6388 25.9922C26.4117 26.5087 25.9701 26.7793 25.4293 26.8073C23.5926 26.91 21.7527 26.9909 19.9095 27.0438C19.1576 27.0655 18.4024 26.9971 17.6504 26.966C17.26 26.9504 16.9657 27.0749 16.9465 27.4886C16.9273 27.8962 17.2216 28.0922 17.5896 28.1046C20.3031 28.2104 23.023 28.4281 25.7205 27.9273C26.9972 27.6908 27.9348 26.9193 27.9316 25.846C27.9316 25.0496 28.3252 24.8069 28.9332 24.5612C29.9571 24.1443 30.9459 23.6403 31.9826 23.2577C33.8161 22.5795 34.9361 23.3572 35.8353 24.5612C36.1744 25.0154 35.9889 25.4758 35.3809 25.8491C33.5666 26.9598 31.749 28.0611 29.9347 29.1686C27.5476 30.6214 25.1477 32.0587 22.7798 33.5395C22.0342 34.0062 21.3047 34.0902 20.4631 33.8973C17.3592 33.1818 14.249 32.4911 11.1355 31.8129C10.5947 31.6947 10.2363 31.5329 10.0795 30.9325C9.44916 28.5433 8.75799 26.1696 8.09242 23.7897C8.05402 23.6714 8.05082 23.5346 8.01562 23.295Z" fill="#0668E1" style="fill:#0668E1;fill:color(display-p3 0.0235 0.4078 0.8824);fill-opacity:1;"/>
<path d="M6.27804 23.0664C6.44124 23.2468 6.73882 23.4273 6.80922 23.6668C7.63479 26.5009 8.43155 29.3413 9.21872 32.1847C9.39151 32.8038 9.22512 33.0372 8.60435 33.202C8.22356 33.3016 7.83958 33.3949 7.45239 33.4882C6.82202 33.6376 6.57243 33.51 6.39964 32.8972C5.67967 30.3741 4.9725 27.8511 4.26213 25.325C4.15973 24.9703 4.01254 24.6188 3.99654 24.261C3.98694 24.0401 4.13413 23.673 4.30693 23.6077C4.8893 23.3837 5.51648 23.2655 6.27804 23.0664Z" fill="#0668E1" style="fill:#0668E1;fill:color(display-p3 0.0235 0.4078 0.8824);fill-opacity:1;"/>
<path d="M21.2237 12.482C21.3275 12.482 21.4078 12.482 21.4914 12.482C23.0039 12.482 24.5197 12.4788 26.0321 12.482C26.3233 12.482 26.5909 12.4242 26.8285 12.2637C26.9456 12.1834 27.0862 12.1224 27.1966 12.2251C27.2836 12.3022 27.3539 12.4403 27.3539 12.5494C27.3639 13.8917 27.3606 15.2339 27.3606 16.5762C27.3606 16.6597 27.3505 16.7464 27.3304 16.8299C27.2167 17.3693 26.7616 17.745 26.1894 17.7772C26.1325 17.7804 26.0756 17.7804 26.0154 17.7804C22.0034 17.7804 17.9914 17.7804 13.9794 17.7804C13.4306 17.7804 13.0056 17.5813 12.7647 17.1028C12.6877 16.9487 12.6442 16.7624 12.6442 16.589C12.6342 15.2404 12.6342 13.8917 12.6442 12.543C12.6442 12.4338 12.7212 12.2958 12.8049 12.2187C12.9153 12.1192 13.0525 12.1834 13.1729 12.2637C13.4072 12.421 13.6648 12.482 13.9492 12.482C15.4818 12.4788 17.0143 12.482 18.5502 12.4788C18.7175 12.4788 18.7911 12.5109 18.7777 12.6907C18.761 12.8962 18.771 13.1082 18.7744 13.3169C18.7777 13.5417 18.8814 13.6541 19.109 13.6573C19.7046 13.6637 20.2969 13.6637 20.8925 13.6573C21.1133 13.6541 21.2171 13.5449 21.2237 13.333C21.2271 13.0536 21.2237 12.7806 21.2237 12.482Z" fill="#0668E1" style="fill:#0668E1;fill:color(display-p3 0.0235 0.4078 0.8824);fill-opacity:1;"/>
<path d="M16.9332 7.76772C16.9332 7.56863 16.9332 7.39202 16.9332 7.21541C16.9399 6.51217 17.4585 6.00803 18.1913 6.00482C19.3993 5.99839 20.6072 5.99839 21.8118 6.00482C22.5413 6.00803 23.0566 6.51539 23.0633 7.22183C23.0666 7.39202 23.0633 7.56221 23.0633 7.75488C23.1503 7.7613 23.2239 7.76772 23.2975 7.76772C24.2043 7.76772 25.1111 7.76772 26.0179 7.76772C26.8478 7.76772 27.3564 8.25582 27.3597 9.04896C27.3597 9.58843 27.3631 10.1279 27.3597 10.6674C27.3564 11.3835 26.8411 11.8876 26.0949 11.8908C24.5222 11.8972 22.9529 11.894 21.3802 11.8908C21.3367 11.8908 21.2932 11.8844 21.2229 11.878C21.2229 11.7848 21.2263 11.6949 21.2229 11.605C21.2129 11.4156 21.1058 11.3064 20.9084 11.3032C20.3027 11.2968 19.6937 11.2968 19.0881 11.3032C18.894 11.3064 18.7869 11.4188 18.7769 11.6082C18.7735 11.6917 18.7769 11.7784 18.7769 11.8908C18.6932 11.8908 18.6263 11.8908 18.556 11.8908C17.0302 11.8908 15.5044 11.8908 13.9752 11.8908C13.142 11.8908 12.6401 11.4059 12.6367 10.6064C12.6367 10.0733 12.6367 9.54027 12.6367 9.00722C12.6401 8.27187 13.1554 7.77094 13.925 7.76772C14.8452 7.76451 15.7654 7.76772 16.6855 7.76772C16.7592 7.76772 16.8328 7.76772 16.9332 7.76772ZM18.1679 7.75167C19.3959 7.75167 20.6106 7.75167 21.8185 7.75167C21.8185 7.55579 21.8185 7.37597 21.8185 7.19936C20.5938 7.19936 19.3859 7.19936 18.1679 7.19936C18.1679 7.3856 18.1679 7.56221 18.1679 7.75167Z" fill="#0668E1" style="fill:#0668E1;fill:color(display-p3 0.0235 0.4078 0.8824);fill-opacity:1;"/>
</svg>
