<svg width="60" height="60" viewBox="0 0 60 60" fill="none" xmlns="http://www.w3.org/2000/svg">
<g filter="url(#filter0_i_20541_75722)">
<rect width="60" height="60" rx="30" fill="#0668E1" style="fill:#0668E1;fill:color(display-p3 0.0235 0.4078 0.8824);fill-opacity:1;"/>
<path d="M25.9374 8.33511H26.276C26.4566 8.40736 26.6451 8.4209 26.837 8.4209C29.045 8.781 30.8365 10.3467 31.0318 12.8821C31.06 13.2478 31.1932 13.4363 31.5116 13.5797C33.1834 14.3326 34.7208 15.3091 36.045 16.5734C37.9719 18.4123 39.2859 20.6011 39.6776 23.2877C39.9745 25.3253 39.7679 27.3335 39.3999 29.336C38.9517 31.7788 38.209 34.155 37.7608 36.5978C37.5057 37.9874 37.3273 39.3861 37.3985 40.8005C37.4628 42.0727 37.6795 43.3212 38.1356 44.5189C38.1909 44.6645 38.2564 44.8045 38.3693 44.9174C38.4426 45.019 38.56 45.1206 38.3715 45.2233C38.209 45.2888 38.0385 45.2944 37.8714 45.2707C37.0869 45.1556 36.2967 45.203 35.5099 45.2019C30.455 45.1973 25.4012 45.2041 20.3462 45.1928C19.7694 45.1917 19.2004 45.3667 18.6236 45.2425C18.5559 45.2064 18.4204 45.1544 18.5017 45.0777C18.8528 44.7458 18.7173 44.3033 18.7636 43.9195C19.0018 41.9542 19.8179 40.2948 21.2707 38.9492C21.606 38.6117 21.9875 38.3272 22.3556 38.0281C24.7814 35.9702 26.6248 33.4676 28.002 30.6127C28.431 29.7243 28.8001 28.81 29.0846 27.8302C28.8994 27.8144 28.8148 27.9397 28.7098 28.0119C28.0528 28.4646 27.3507 28.8156 26.5672 28.9883C25.6066 29.1994 24.7588 28.845 23.9325 28.433C22.5441 27.741 22.4707 27.7365 21.2312 28.6497C20.8113 28.9601 20.3891 29.266 19.9477 29.5449C19.1124 30.072 18.2793 30.0732 17.4383 29.555C16.9066 29.2277 16.4122 28.8642 16.0352 28.3528C15.035 26.9959 15.0283 25.6312 15.9945 24.2461C16.4777 23.553 17.0726 22.9761 17.7284 22.4659C18.785 21.643 19.5696 20.6282 20.1521 19.4226C20.8158 18.0488 21.6116 16.7461 22.6378 15.606C23.4088 14.7492 24.3073 14.0459 25.3695 13.5808C25.7195 13.4273 25.8391 13.214 25.8335 12.8347C25.8121 11.523 25.8233 10.2112 25.8267 8.89953C25.8267 8.7065 25.7838 8.49992 25.9328 8.33398L25.9374 8.33511Z" fill="white" style="fill:white;fill-opacity:1;"/>
<path d="M39.5673 42.875C39.1937 43.6099 38.75 44.303 38.285 44.9837C38.1845 44.943 38.1382 44.8572 38.1021 44.7636C37.7217 43.7465 37.4586 42.7046 37.3514 41.6186C37.2916 41.0147 37.269 40.4119 37.2803 39.808C37.3108 38.1576 37.6212 36.5456 37.9858 34.9438C38.4407 32.9469 38.9995 30.9725 39.3562 28.953C39.5176 28.0421 39.5955 27.1198 39.6689 26.1953C39.7807 24.791 39.652 23.4172 39.3032 22.066C38.8674 20.3739 37.9994 18.9075 36.8536 17.5924C35.2958 15.8066 33.3666 14.5502 31.2342 13.5749C31.0356 13.4846 30.9328 13.3999 30.9249 13.1527C30.847 10.7223 29.4191 9.21643 27.2393 8.59444C27.0914 8.55267 26.9379 8.5301 26.7866 8.49849C26.7335 8.45672 26.6478 8.43302 26.6997 8.33594H27.7156C27.8093 8.41721 27.9211 8.36416 28.0238 8.37996C28.0927 8.37432 28.1672 8.39802 28.2236 8.33594H28.5623C29.0307 8.53348 29.5432 8.4714 30.0264 8.58654C30.2984 8.65088 30.5739 8.70281 30.847 8.76038C31.4306 8.95228 31.7027 9.47042 32.0301 9.91857C32.3157 10.3091 32.4985 10.7607 32.5584 11.2427C32.6092 11.6457 32.8056 11.8963 33.1578 12.0927C34.9176 13.0714 36.5274 14.259 37.917 15.7185C39.8563 17.7561 41.2256 20.0973 41.5812 22.9454C41.755 24.335 41.729 25.7246 41.5925 27.1175C41.3215 29.8618 40.6307 32.5258 40.0764 35.217C39.7231 36.9294 39.442 38.6532 39.4296 40.4085C39.4251 41.0294 39.5131 41.6446 39.6102 42.2564C39.6441 42.4698 39.6565 42.6752 39.5696 42.8773L39.5673 42.875Z" fill="#0668E1" style="fill:#0668E1;fill:color(display-p3 0.0235 0.4078 0.8824);fill-opacity:1;"/>
<path d="M15.6967 51.6665C15.6877 51.5311 15.4958 51.4916 15.5228 51.3369C15.4472 51.0773 15.5206 50.8098 15.4833 50.5501C15.4291 50.1742 15.5804 49.9992 15.9552 50.0071C16.3446 49.9372 16.7375 49.918 17.1326 49.918C24.724 49.9202 32.3154 49.9191 39.9069 49.918C40.2738 49.918 40.6395 49.9214 40.9996 49.9992C41.3687 50.0015 41.5222 50.1742 41.4692 50.5501C41.4297 50.8368 41.5053 51.1326 41.4297 51.4205C41.371 51.5017 41.3134 51.583 41.2547 51.6643H15.6967V51.6665Z" fill="white" style="fill:white;fill-opacity:1;"/>
<path d="M26.7007 8.33594C26.73 8.39012 26.7582 8.44431 26.7876 8.49849C26.5979 8.50639 26.4264 8.45785 26.2773 8.33594C26.4184 8.33594 26.5596 8.33594 26.7007 8.33594Z" fill="#3F637E" style="fill:#3F637E;fill:color(display-p3 0.2471 0.3882 0.4941);fill-opacity:1;"/>
<path d="M28.0619 8.41044C27.9411 8.41383 27.8113 8.46011 27.7188 8.33594H28.0574C28.0834 8.35061 28.0935 8.36642 28.0856 8.38335C28.0777 8.40141 28.0698 8.40931 28.0619 8.40931V8.41044Z" fill="#6B8394" style="fill:#6B8394;fill:color(display-p3 0.4196 0.5137 0.5804);fill-opacity:1;"/>
<path d="M28.0592 8.41044C28.0558 8.38561 28.0547 8.36077 28.0547 8.33594H28.224C28.1969 8.42286 28.1281 8.41609 28.0592 8.41044Z" fill="#8D9FAC" style="fill:#8D9FAC;fill:color(display-p3 0.5529 0.6235 0.6745);fill-opacity:1;"/>
<path d="M17.4113 45.9125C17.6393 45.4813 17.9734 45.1968 18.4735 45.1393C19.0097 45.216 19.5358 45.0648 20.0686 45.0648C25.7331 45.0648 31.3976 45.067 37.0621 45.0625C37.5396 45.0625 38.0069 45.2251 38.4878 45.1347C38.9913 45.1923 39.3469 45.4531 39.5591 45.9103C39.3367 46.3573 38.9405 46.5424 38.4777 46.6214C38.3253 46.6474 38.1684 46.6372 38.0137 46.6372C31.6775 46.6372 25.3425 46.6372 19.0063 46.6395C18.5322 46.6395 18.0762 46.6034 17.698 46.2715C17.5806 46.1688 17.4734 46.0593 17.4102 45.9125H17.4113Z" fill="white" style="fill:white;fill-opacity:1;"/>
<path d="M39.5663 42.8744C39.4568 41.9149 39.2592 40.961 39.31 39.9891C39.3766 38.7158 39.5234 37.4515 39.7638 36.1984C40.2594 33.6145 40.9367 31.0645 41.3171 28.4591C41.5158 27.1 41.6343 25.7273 41.5914 24.3479C41.5011 21.4457 40.4739 18.9035 38.6305 16.6786C37.5931 15.4267 36.3773 14.3678 35.0532 13.4298C34.342 12.9252 33.6184 12.4409 32.8384 12.0492C32.5822 11.9205 32.4998 11.6925 32.4738 11.4678C32.344 10.3097 31.678 9.48674 30.8438 8.75977C32.4106 9.01827 33.8995 9.53076 35.3072 10.2498C40.3282 12.8157 43.2756 16.9596 44.3706 22.4323C45.1213 26.1902 44.6009 29.8882 43.5827 33.5366C43.2192 34.8382 42.7496 36.1025 42.2811 37.3679C42.2552 37.8567 42.0452 38.2699 41.7517 38.648C41.1173 39.9338 40.5247 41.2398 39.809 42.4838C39.7322 42.617 39.6464 42.7446 39.5652 42.8744H39.5663Z" fill="white" style="fill:white;fill-opacity:1;"/>
<path d="M17.4097 45.9132C17.5542 45.9166 17.6321 46.0261 17.7179 46.1164C17.9866 46.4032 18.3241 46.5059 18.7056 46.5059C25.2405 46.5059 31.7753 46.5014 38.3102 46.5126C38.8464 46.5126 39.1658 46.1605 39.5575 45.9121C40.0012 46.7824 39.6648 47.5997 38.5924 48.1133C39.036 48.1133 39.4097 48.1043 39.7822 48.1156C40.6152 48.1404 41.2835 48.7161 41.4359 49.5244C41.4766 49.8804 41.3328 50.0858 41.0047 50.1407C40.5622 50.038 40.1118 50.0595 39.6625 50.0595C32.8105 50.0595 25.9595 50.0561 19.1075 50.064C18.0543 50.0651 16.9966 49.985 15.9467 50.1407C15.7989 50.0245 15.3654 50.248 15.5155 49.7773C15.5584 48.8651 16.2493 48.1585 17.1569 48.1167C17.5361 48.0998 17.9166 48.1133 18.4279 48.1133C17.8996 47.8943 17.5497 47.6437 17.3646 47.2114C17.1749 46.7689 17.1828 46.3377 17.4097 45.9121V45.9132Z" fill="white" style="fill:white;fill-opacity:1;"/>
<path d="M41.0039 50.1398C41.3696 50.0901 41.4893 49.8677 41.4351 49.5234C41.5435 50.1567 41.5751 50.79 41.4295 51.4221C41.4295 51.1309 41.4035 50.8374 41.4329 50.5484C41.4679 50.2019 41.3155 50.1003 41.005 50.1387L41.0039 50.1398Z" fill="#4E6C83" style="fill:#4E6C83;fill:color(display-p3 0.3059 0.4235 0.5137);fill-opacity:1;"/>
<path d="M15.5137 49.7773C15.4572 50.1363 15.8252 49.9907 15.9449 50.1408C15.6254 50.0945 15.4956 50.2187 15.5283 50.5517C15.5532 50.8102 15.5249 51.0744 15.5193 51.3363C15.4211 50.817 15.4437 50.2966 15.5125 49.7773H15.5137Z" fill="#4E6B82" style="fill:#4E6B82;fill:color(display-p3 0.3059 0.4196 0.5098);fill-opacity:1;"/>
</g>
<defs>
<filter id="filter0_i_20541_75722" x="-2" y="-5" width="62" height="65" filterUnits="userSpaceOnUse" color-interpolation-filters="sRGB">
<feFlood flood-opacity="0" result="BackgroundImageFix"/>
<feBlend mode="normal" in="SourceGraphic" in2="BackgroundImageFix" result="shape"/>
<feColorMatrix in="SourceAlpha" type="matrix" values="0 0 0 0 0 0 0 0 0 0 0 0 0 0 0 0 0 0 127 0" result="hardAlpha"/>
<feOffset dx="-2" dy="-8"/>
<feGaussianBlur stdDeviation="2.5"/>
<feComposite in2="hardAlpha" operator="arithmetic" k2="-1" k3="1"/>
<feColorMatrix type="matrix" values="0 0 0 0 0 0 0 0 0 0 0 0 0 0 0 0 0 0 0.25 0"/>
<feBlend mode="normal" in2="shape" result="effect1_innerShadow_20541_75722"/>
</filter>
</defs>
</svg>
