<svg width="40" height="40" viewBox="0 0 40 40" fill="none" xmlns="http://www.w3.org/2000/svg">
<path d="M18.6499 19.4007C13.5966 22.2272 5 26.0006 5 26.0006C5 26.0006 9.37074 25.1184 11.8999 24.3506C15.1683 23.3584 16.8942 22.4726 19.9998 21.0507C24.7182 18.8904 31.6997 14.7507 31.6997 14.7507L32.7497 16.1007L34.9997 9.80078L28.3998 10.7008L29.5997 12.5008C29.5997 12.5008 23.0611 16.9333 18.6499 19.4007Z" fill="#0668E1" style="fill:#0668E1;fill:color(display-p3 0.0235 0.4078 0.8824);fill-opacity:1;"/>
<path d="M17.9495 11.6003C17.9495 11.6003 15.6125 12.485 14.0496 12.5003C12.5562 12.5149 11.7111 12.2384 10.2996 11.7503C8.93789 11.2794 8.19968 10.7003 6.99964 10.1003C6.43534 9.81816 5.8134 10.1529 5.49966 10.7003C5.17397 11.2685 5.231 12.0254 5.79965 12.3503C6.84982 12.9503 10.7496 14.6003 11.1996 15.6502C11.5733 16.5222 11.3496 22.2502 11.3496 22.2502L16.7495 19.2502C16.7495 19.2502 16.7495 17.0002 17.0495 15.5002C17.1792 14.8519 18.233 14.4585 19.1496 14.0003C20.3495 13.4003 21.0995 13.1003 22.2995 12.2003C22.7774 11.8418 22.872 11.2319 22.5995 10.7003C22.3116 10.1389 21.676 9.84406 21.0995 10.1003C19.7496 10.7003 17.9495 11.6003 17.9495 11.6003Z" fill="#0668E1" style="fill:#0668E1;fill:color(display-p3 0.0235 0.4078 0.8824);fill-opacity:1;"/>
<circle cx="14.0492" cy="7.84997" r="2.84997" fill="#0668E1" style="fill:#0668E1;fill:color(display-p3 0.0235 0.4078 0.8824);fill-opacity:1;"/>
<path d="M13.0977 15.65L13.5477 12.5H14.4476L14.8976 15.65L13.9976 17L13.0977 15.65Z" fill="white" style="fill:white;fill-opacity:1;"/>
<rect x="7.40234" y="28.3984" width="3.59996" height="6.59993" fill="#0668E1" style="fill:#0668E1;fill:color(display-p3 0.0235 0.4078 0.8824);fill-opacity:1;"/>
<rect x="12.5" y="26.6016" width="3.59996" height="8.39991" fill="#0668E1" style="fill:#0668E1;fill:color(display-p3 0.0235 0.4078 0.8824);fill-opacity:1;"/>
<rect x="17.5977" y="24.1992" width="3.59996" height="10.7999" fill="#0668E1" style="fill:#0668E1;fill:color(display-p3 0.0235 0.4078 0.8824);fill-opacity:1;"/>
<rect x="23" y="22.1016" width="3.59996" height="12.8999" fill="#0668E1" style="fill:#0668E1;fill:color(display-p3 0.0235 0.4078 0.8824);fill-opacity:1;"/>
<rect x="28.4023" y="19.6992" width="3.59996" height="14.9998" fill="#0668E1" style="fill:#0668E1;fill:color(display-p3 0.0235 0.4078 0.8824);fill-opacity:1;"/>
</svg>
