<svg width="32" height="32" viewBox="0 0 32 32" fill="none" xmlns="http://www.w3.org/2000/svg">
<g clip-path="url(#clip0_19534_60441)">
<path d="M9.2983 15.1771C9.2983 12.8634 9.2951 10.5497 9.2983 8.23607C9.3015 6.81522 10.1144 6.0056 11.5419 6.0024C14.5216 5.9992 17.5046 5.9992 20.4843 6.0024C21.8765 6.0056 22.7055 6.82482 22.7055 8.20407C22.7087 12.9018 22.7087 17.6027 22.7055 22.3005C22.7055 23.6509 21.8765 24.4829 20.5163 24.4861C17.5174 24.4957 14.5184 24.4925 11.5195 24.4861C10.124 24.4829 9.3015 23.6605 9.2983 22.2781C9.2951 19.91 9.2983 17.5451 9.2983 15.1771ZM11.3435 18.294C14.4704 18.294 17.5398 18.294 20.6059 18.294C20.8716 16.5595 19.7354 14.4346 18.1831 13.7562C18.0551 13.6986 17.8438 13.7306 17.7094 13.7946C16.5828 14.3386 15.469 14.3418 14.3296 13.8202C14.1472 13.737 13.8399 13.7402 13.6735 13.8394C12.0156 14.8283 11.3147 16.3355 11.3435 18.294ZM18.5672 10.6489C18.5736 9.20569 17.4245 8.04406 15.9939 8.05046C14.5824 8.05686 13.4398 9.20249 13.4366 10.6137C13.4334 12.0314 14.56 13.1706 15.9843 13.1866C17.3925 13.2026 18.5608 12.0538 18.5672 10.6489ZM15.9459 20.87C17.4342 20.87 18.9256 20.8668 20.4139 20.8732C20.7755 20.8732 21.134 20.8476 21.1308 20.3836C21.1308 19.9292 20.7819 19.8748 20.4139 19.8748C17.4694 19.8748 14.528 19.8748 11.5835 19.8748C11.2186 19.8748 10.8698 19.926 10.8666 20.3804C10.8634 20.8444 11.2186 20.8764 11.5835 20.8732C13.0398 20.8668 14.4928 20.87 15.9459 20.87ZM13.9487 21.9229C13.1358 21.9229 12.3196 21.9261 11.5067 21.9197C11.1354 21.9165 10.8666 22.0477 10.8698 22.4509C10.873 22.8285 11.145 22.9565 11.4843 22.9565C13.1134 22.9597 14.7393 22.9597 16.3684 22.9565C16.73 22.9565 17.0213 22.8253 17.0053 22.4189C16.9893 22.0221 16.7044 21.9101 16.3364 21.9165C15.5426 21.9293 14.7457 21.9229 13.9487 21.9229Z" fill="white" style="fill:white;fill-opacity:1;"/>
<path d="M30.2631 21.4685C30.3079 19.8557 29.7574 18.6524 28.5123 17.7724C28.2787 17.6092 28.0995 17.606 27.8434 17.7436C26.9505 18.2236 25.9999 18.2876 25.0813 17.8588C24.6109 17.638 24.2364 17.5516 23.8011 18.07C23.8011 15.4843 23.8011 13.0171 23.8011 10.5082C23.9803 10.4986 24.1532 10.4858 24.326 10.4858C26.2047 10.4826 28.0867 10.4826 29.9654 10.4858C31.3161 10.489 32.001 11.161 32.001 12.5019C32.0042 16.3868 32.0042 20.2717 32.001 24.1566C32.001 25.5102 31.3353 26.1599 29.9686 26.1599C27.485 26.1599 25.0013 26.1567 22.5209 26.1631C21.964 26.1631 21.4871 26.0095 21.0742 25.5294C23.225 24.9982 23.9035 23.5262 23.7403 21.4717C25.9359 21.4685 28.0707 21.4685 30.2631 21.4685ZM28.5027 14.9211C28.4963 13.7339 27.5394 12.7707 26.3488 12.7579C25.1485 12.7451 24.1404 13.7467 24.1468 14.9371C24.1532 16.1148 25.1293 17.0876 26.3136 17.1004C27.5202 17.1164 28.5059 16.1308 28.5027 14.9211Z" fill="white" style="fill:white;fill-opacity:1;"/>
<path d="M1.74529 21.44C3.91208 21.44 6.03406 21.44 8.25845 21.44C8.25845 21.744 8.25525 22 8.25845 22.2528C8.27126 23.9201 9.10981 25.0049 10.7261 25.4497C10.7741 25.4625 10.8157 25.4977 10.8925 25.5393C10.5821 25.9745 10.15 26.1473 9.66351 26.1505C7.00383 26.1601 4.34416 26.1665 1.68128 26.1473C0.724309 26.1409 0.0233838 25.3825 0.0105815 24.3809C-0.00862195 23.1104 0.00418034 21.8368 0.00418034 20.5664C0.00418034 17.8815 0.000979767 15.1998 0.00418034 12.5149C0.00738091 11.1709 0.689103 10.4861 2.02694 10.4829C3.92488 10.4797 5.82282 10.4797 7.72076 10.4829C7.87759 10.4829 8.03121 10.4989 8.22325 10.5117C8.22325 13.0013 8.22325 15.4622 8.22325 18.0543C7.72396 17.4111 7.25988 17.7375 6.74778 17.9327C5.88043 18.2623 4.99707 18.1983 4.18093 17.7439C3.90248 17.5903 3.71044 17.6127 3.4672 17.7887C2.22858 18.6815 1.70048 19.8911 1.74529 21.44ZM3.50561 14.9374C3.50881 16.1214 4.46578 17.0879 5.65639 17.1039C6.8566 17.1199 7.86478 16.1214 7.85838 14.9246C7.85198 13.7438 6.88221 12.7709 5.698 12.7581C4.49458 12.7453 3.5024 13.7278 3.50561 14.9374Z" fill="white" style="fill:white;fill-opacity:1;"/>
</g>
<defs>
<clipPath id="clip0_19534_60441">
<rect width="32" height="32" fill="white" style="fill:white;fill-opacity:1;"/>
</clipPath>
</defs>
</svg>
