<svg width="32" height="32" viewBox="0 0 32 32" fill="none" xmlns="http://www.w3.org/2000/svg">
<path d="M16.0003 2.61719C12.2152 2.61719 12.2161 3.56344 11.2698 6.40238L9.37729 12.0801L11.9788 14.6817C13.0063 13.6542 14.4325 13.0273 16.0003 13.0273C17.5681 13.0273 18.9943 13.6542 20.0218 14.6817L22.6234 12.0801L20.7307 6.40244C19.7844 3.56369 19.7854 2.61731 16.0002 2.61731L16.0003 2.61719ZM16.0003 14.9199C13.9099 14.9199 12.2151 16.6126 12.2151 18.7031C12.2151 20.7935 13.9099 22.4883 16.0003 22.4883C18.0907 22.4883 19.7855 20.7935 19.7855 18.7031C19.7855 16.6126 18.0907 14.9199 16.0003 14.9199ZM6.95154 16.2793L2.98079 20.7577C0.995295 22.9967 0.176107 23.47 2.06861 26.7481C3.96111 30.0261 4.78148 29.5531 7.71311 28.9531L13.5764 27.7519L14.5275 24.1973C13.124 23.8212 11.868 22.9008 11.0842 21.5429C10.3002 20.1852 10.13 18.636 10.506 17.2324L6.95136 16.2793H6.95154ZM25.049 16.2793L21.4944 17.2324C21.8705 18.6359 21.7002 20.1851 20.9163 21.5429C20.1324 22.9007 18.8765 23.8211 17.4729 24.1973L18.4242 27.7519L24.2874 28.9531C27.219 29.5531 28.0393 30.0261 29.9319 26.7481C31.8244 23.47 31.0052 22.9967 29.0198 20.7578L25.0492 16.2793H25.049Z" fill="white" style="fill:white;fill-opacity:1;"/>
</svg>
