<svg width="40" height="40" viewBox="0 0 40 40" fill="none" xmlns="http://www.w3.org/2000/svg">
<g filter="url(#filter0_i_20541_75815)">
<rect width="40" height="40" rx="20" fill="#0668E1" style="fill:#0668E1;fill:color(display-p3 0.0235 0.4078 0.8824);fill-opacity:1;"/>
<path d="M19.625 24.5C20.1223 24.5 20.5992 24.3025 20.9508 23.9508C21.3025 23.5992 21.5 23.1223 21.5 22.625C21.5 22.1277 21.3025 21.6508 20.9508 21.2992C20.5992 20.9475 20.1223 20.75 19.625 20.75C19.1277 20.75 18.6508 20.9475 18.2992 21.2992C17.9475 21.6508 17.75 22.1277 17.75 22.625C17.75 23.1223 17.9475 23.5992 18.2992 23.9508C18.6508 24.3025 19.1277 24.5 19.625 24.5Z" fill="white" style="fill:white;fill-opacity:1;"/>
<path fill-rule="evenodd" clip-rule="evenodd" d="M13.625 9.5H17C17.9946 9.5 18.9484 9.89509 19.6517 10.5983C20.3549 11.3016 20.75 12.2554 20.75 13.25V15.125C20.75 16.161 21.59 17 22.625 17H24.5C25.4946 17 26.4484 17.3951 27.1517 18.0983C27.8549 18.8016 28.25 19.7554 28.25 20.75V28.625C28.25 29.66 27.41 30.5 26.375 30.5H13.625C13.1277 30.5 12.6508 30.3025 12.2992 29.9508C11.9475 29.5992 11.75 29.1223 11.75 28.625V11.375C11.75 10.339 12.59 9.5 13.625 9.5ZM19.625 26C20.285 26 20.902 25.81 21.422 25.482L22.47 26.53C22.6122 26.6625 22.8002 26.7346 22.9945 26.7312C23.1888 26.7277 23.3742 26.649 23.5116 26.5116C23.649 26.3742 23.7277 26.1888 23.7312 25.9945C23.7346 25.8002 23.6625 25.6122 23.53 25.47L22.483 24.422C22.8815 23.7885 23.0581 23.0406 22.9851 22.2958C22.9121 21.551 22.5936 20.8515 22.0797 20.3075C21.5658 19.7634 20.8857 19.4056 20.1462 19.2903C19.4068 19.175 18.65 19.3087 17.9949 19.6704C17.3397 20.0322 16.8234 20.6014 16.527 21.2886C16.2307 21.9758 16.1712 22.742 16.3578 23.4667C16.5445 24.1915 16.9667 24.8336 17.5581 25.2922C18.1496 25.7507 18.8766 25.9997 19.625 26Z" fill="white" style="fill:white;fill-opacity:1;"/>
<path d="M22.2517 13.2504C22.2534 11.989 21.7992 10.7694 20.9727 9.81641C22.6459 10.2566 24.1722 11.1331 25.3955 12.3565C26.6189 13.5799 27.4955 15.1062 27.9357 16.7794C26.9827 15.9529 25.7631 15.4987 24.5017 15.5004H22.6267C22.5272 15.5004 22.4318 15.4609 22.3615 15.3906C22.2912 15.3202 22.2517 15.2249 22.2517 15.1254V13.2504Z" fill="white" style="fill:white;fill-opacity:1;"/>
</g>
<defs>
<filter id="filter0_i_20541_75815" x="-2" y="-5" width="42" height="45" filterUnits="userSpaceOnUse" color-interpolation-filters="sRGB">
<feFlood flood-opacity="0" result="BackgroundImageFix"/>
<feBlend mode="normal" in="SourceGraphic" in2="BackgroundImageFix" result="shape"/>
<feColorMatrix in="SourceAlpha" type="matrix" values="0 0 0 0 0 0 0 0 0 0 0 0 0 0 0 0 0 0 127 0" result="hardAlpha"/>
<feOffset dx="-2" dy="-8"/>
<feGaussianBlur stdDeviation="2.5"/>
<feComposite in2="hardAlpha" operator="arithmetic" k2="-1" k3="1"/>
<feColorMatrix type="matrix" values="0 0 0 0 0 0 0 0 0 0 0 0 0 0 0 0 0 0 0.25 0"/>
<feBlend mode="normal" in2="shape" result="effect1_innerShadow_20541_75815"/>
</filter>
</defs>
</svg>
