<svg width="32" height="32" viewBox="0 0 32 32" fill="none" xmlns="http://www.w3.org/2000/svg">
<rect x="4" y="24.1592" width="23.9999" height="3.83998" fill="#0668E1" style="fill:#0668E1;fill:color(display-p3 0.0235 0.4078 0.8824);fill-opacity:1;"/>
<path d="M4 23.6816V20.3217C4 19.5264 4.64471 18.8817 5.44 18.8817H6.39998C7.19527 18.8817 7.83998 19.5264 7.83998 20.3217V23.6816H4Z" fill="#0668E1" style="fill:#0668E1;fill:color(display-p3 0.0235 0.4078 0.8824);fill-opacity:1;"/>
<path d="M10.7227 23.6816V15.5217C10.7227 14.7264 11.3674 14.0817 12.1627 14.0817H13.1226C13.9179 14.0817 14.5626 14.7264 14.5626 15.5217V23.6816H10.7227Z" fill="#0668E1" style="fill:#0668E1;fill:color(display-p3 0.0235 0.4078 0.8824);fill-opacity:1;"/>
<path d="M17.4414 23.6816V16.7217C17.4414 15.9264 18.0861 15.2817 18.8814 15.2817H19.8414C20.6367 15.2817 21.2814 15.9264 21.2814 16.7217V23.6816H17.4414Z" fill="#0668E1" style="fill:#0668E1;fill:color(display-p3 0.0235 0.4078 0.8824);fill-opacity:1;"/>
<path d="M24.1641 23.6816V10.7217C24.1641 9.92641 24.8088 9.2817 25.6041 9.2817H26.564C27.3593 9.2817 28.004 9.92641 28.004 10.7217V23.6816H24.1641Z" fill="#0668E1" style="fill:#0668E1;fill:color(display-p3 0.0235 0.4078 0.8824);fill-opacity:1;"/>
<path d="M6.16406 25.2991C6.16406 25.1997 6.24465 25.1191 6.34406 25.1191H6.70406C6.80347 25.1191 6.88406 25.1997 6.88406 25.2991V27.9991H6.16406V25.2991Z" fill="white" style="fill:white;fill-opacity:1;"/>
<path d="M8.55859 27.221C8.55859 27.1216 8.63918 27.041 8.73859 27.041H9.09859C9.198 27.041 9.27859 27.1216 9.27859 27.221V28.001H8.55859V27.221Z" fill="white" style="fill:white;fill-opacity:1;"/>
<path d="M10.9609 25.2991C10.9609 25.1997 11.0415 25.1191 11.1409 25.1191H11.5009C11.6003 25.1191 11.6809 25.1997 11.6809 25.2991V27.9991H10.9609V25.2991Z" fill="white" style="fill:white;fill-opacity:1;"/>
<path d="M13.3594 27.221C13.3594 27.1216 13.44 27.041 13.5394 27.041H13.8994C13.9988 27.041 14.0794 27.1216 14.0794 27.221V28.001H13.3594V27.221Z" fill="white" style="fill:white;fill-opacity:1;"/>
<path d="M15.7617 25.2991C15.7617 25.1997 15.8423 25.1191 15.9417 25.1191H16.3017C16.4011 25.1191 16.4817 25.1997 16.4817 25.2991V27.9991H15.7617V25.2991Z" fill="white" style="fill:white;fill-opacity:1;"/>
<path d="M18.1641 27.221C18.1641 27.1216 18.2447 27.041 18.3441 27.041H18.7041C18.8035 27.041 18.8841 27.1216 18.8841 27.221V28.001H18.1641V27.221Z" fill="white" style="fill:white;fill-opacity:1;"/>
<path d="M20.5586 25.2991C20.5586 25.1997 20.6392 25.1191 20.7386 25.1191H21.0986C21.198 25.1191 21.2786 25.1997 21.2786 25.2991V27.9991H20.5586V25.2991Z" fill="white" style="fill:white;fill-opacity:1;"/>
<path d="M22.9609 27.221C22.9609 27.1216 23.0415 27.041 23.1409 27.041H23.5009C23.6003 27.041 23.6809 27.1216 23.6809 27.221V28.001H22.9609V27.221Z" fill="white" style="fill:white;fill-opacity:1;"/>
<path d="M25.3594 25.2991C25.3594 25.1997 25.44 25.1191 25.5394 25.1191H25.8994C25.9988 25.1191 26.0794 25.1997 26.0794 25.2991V27.9991H25.3594V25.2991Z" fill="white" style="fill:white;fill-opacity:1;"/>
<path d="M12.5218 11.441L12.5887 11.2739L12.4853 11.2325L12.4021 11.3066L12.5218 11.441ZM19.1218 14.081L19.055 14.2482L19.1857 14.3004L19.2679 14.1862L19.1218 14.081ZM23.6195 8.05213C23.6035 7.95401 23.511 7.88742 23.4129 7.90339L21.8139 8.16369C21.7158 8.17966 21.6492 8.27215 21.6652 8.37027C21.6812 8.46839 21.7736 8.53498 21.8718 8.51901L23.2931 8.28764L23.5244 9.70893C23.5404 9.80705 23.6329 9.87364 23.731 9.85767C23.8291 9.8417 23.8957 9.7492 23.8798 9.65109L23.6195 8.05213ZM5.92188 17.321L6.04161 17.4554L12.6416 11.5754L12.5218 11.441L12.4021 11.3066L5.80214 17.1866L5.92188 17.321ZM12.5218 11.441L12.455 11.6082L19.055 14.2482L19.1218 14.081L19.1887 13.9139L12.5887 11.2739L12.5218 11.441ZM19.1218 14.081L19.2679 14.1862L23.5879 8.18623L23.4418 8.08105L23.2957 7.97588L18.9757 13.9759L19.1218 14.081Z" fill="#0668E1" style="fill:#0668E1;fill:color(display-p3 0.0235 0.4078 0.8824);fill-opacity:1;"/>
<circle cx="5.9214" cy="17.439" r="0.479998" fill="#0668E1" style="fill:#0668E1;fill:color(display-p3 0.0235 0.4078 0.8824);fill-opacity:1;"/>
<circle cx="12.6441" cy="11.439" r="0.479998" fill="#0668E1" style="fill:#0668E1;fill:color(display-p3 0.0235 0.4078 0.8824);fill-opacity:1;"/>
<circle cx="19.1206" cy="14.0796" r="0.479998" fill="#0668E1" style="fill:#0668E1;fill:color(display-p3 0.0235 0.4078 0.8824);fill-opacity:1;"/>
<path d="M25.9129 4.52687C25.9667 4.36103 26.2014 4.36103 26.2552 4.52687L26.4747 5.2023C26.4988 5.27647 26.5679 5.32668 26.6459 5.32668H27.3561C27.5305 5.32668 27.603 5.54981 27.4619 5.6523L26.8873 6.06975C26.8242 6.11558 26.7978 6.19683 26.8219 6.27099L27.0414 6.94643C27.0953 7.11226 26.9055 7.25017 26.7644 7.14767L26.1899 6.73023C26.1268 6.6844 26.0413 6.6844 25.9783 6.73023L25.4037 7.14767C25.2626 7.25017 25.0728 7.11226 25.1267 6.94643L25.3462 6.27099C25.3703 6.19683 25.3439 6.11558 25.2808 6.06975L24.7062 5.6523C24.5651 5.54981 24.6376 5.32668 24.812 5.32668H25.5222C25.6002 5.32668 25.6693 5.27647 25.6934 5.2023L25.9129 4.52687Z" fill="#0668E1" style="fill:#0668E1;fill:color(display-p3 0.0235 0.4078 0.8824);fill-opacity:1;"/>
<path d="M12.4697 7.40773C12.5236 7.24189 12.7582 7.24189 12.8121 7.40773L12.9777 7.91733C13.0018 7.99149 13.0709 8.04171 13.1489 8.04171L13.6847 8.04171C13.8591 8.04171 13.9316 8.26484 13.7905 8.36733L13.357 8.68228C13.2939 8.72812 13.2675 8.80936 13.2916 8.88353L13.4572 9.39313C13.5111 9.55896 13.3213 9.69686 13.1802 9.59437L12.7467 9.27942C12.6836 9.23359 12.5982 9.23359 12.5351 9.27942L12.1016 9.59437C11.9606 9.69686 11.7708 9.55896 11.8246 9.39313L11.9902 8.88353C12.0143 8.80936 11.9879 8.72812 11.9248 8.68228L11.4913 8.36733C11.3503 8.26484 11.4228 8.04171 11.5971 8.04171L12.133 8.04171C12.211 8.04171 12.2801 7.99149 12.3042 7.91733L12.4697 7.40773Z" fill="#0668E1" style="fill:#0668E1;fill:color(display-p3 0.0235 0.4078 0.8824);fill-opacity:1;"/>
</svg>
