<svg width="40" height="40" viewBox="0 0 40 40" fill="none" xmlns="http://www.w3.org/2000/svg">
<path d="M11.7645 19.9727C11.7645 19.9727 14.032 28.5924 10.6172 30.3092C11.8092 31.8596 19.4448 28.8651 19.4448 28.8651C19.4448 28.8651 27.5734 33.0858 29.3474 30.2012C26.893 27.9481 28.3594 20.2715 28.3594 20.2715" fill="#02001F"/>
<path d="M40 36.3159C39.9741 36.1848 39.9341 36.2104 39.8444 36.0633C39.8444 36.0633 39.7735 35.8981 36.9378 32.7599C36.0898 31.8213 34.6775 31.0086 31.8404 30.6632C29.0033 30.3175 26.1099 29.9961 26.1099 29.9961H14.2376C14.2376 29.9961 8.86399 30.5585 6.58277 30.9134C4.30119 31.2684 4.11684 32.1121 2.83567 33.0076C0.709004 34.4941 0 36.3933 0 36.3933C0 36.3933 8.33047 37.8217 19.2024 37.9937C19.2027 37.9937 31.7876 38.1313 40 36.3159Z" fill="#194794"/>
<path d="M23.7089 23.8906H16.9152L15.7734 29.793L20.3123 37.1751L24.8502 29.793L23.7089 23.8906Z" fill="#E5A57D"/>
<path d="M13.7348 17.5906C13.7348 17.5906 12.0686 16.43 11.8549 17.2899C11.6409 18.1491 11.8114 20.7281 12.3679 21.1146C12.9236 21.5009 13.7348 21.6302 13.7348 21.6302" fill="#F1BA90"/>
<path d="M26.832 17.5906C26.832 17.5906 28.4988 16.43 28.7125 17.2899C28.9259 18.1491 28.7547 20.7281 28.1998 21.1146C27.6446 21.5009 26.832 21.6302 26.832 21.6302" fill="#F1BA90"/>
<path d="M26.7674 23.7608C26.0189 25.7223 22.9938 27.3753 22.1666 27.9435C21.34 28.5103 19.5121 28.6446 18.578 27.9943C17.6436 27.3439 14.9053 26.0662 13.9516 23.7605C12.9832 21.419 13.8335 14.1583 13.8335 14.1583L16.3987 12.1133L26.8934 14.1007C26.8934 14.1007 27.5162 21.7998 26.7674 23.7608Z" fill="#F1BA90"/>
<path d="M28.7993 18.7668C28.8995 17.5381 29.1431 13.8113 28.1939 11.7152C26.6544 8.31558 22.711 7.16797 22.711 7.16797C22.711 7.16797 21.4784 10.3242 22.9455 12.6184C24.4135 14.9147 27.1333 17.6608 27.1333 17.6608C27.1333 17.6608 28.4477 16.1036 28.7993 18.7668Z" fill="#02001F"/>
<path d="M14.0567 20.0937C13.8665 19.649 13.6869 19.0178 13.7342 18.5276C13.7962 17.8801 14.5416 17.3745 14.8961 16.8434C15.185 16.4127 15.1311 15.8764 15.2693 15.3839C15.406 14.8942 15.7438 13.5707 15.9708 13.1172C16.6722 14.4119 18.08 15.5215 19.3215 16.041C19.9516 16.3051 20.842 16.3559 21.4904 16.5545C21.8386 16.6618 22.2907 16.7202 22.6277 16.8385C23.0049 16.9709 23.5621 17.0612 23.9463 17.2235C25.2531 17.777 26.0407 18.738 26.8546 19.95C25.6448 18.812 23.9674 18.3245 22.3815 17.9222C21.2933 17.6461 20.171 17.5467 19.1055 17.1426C18.6911 16.9856 18.1797 16.8377 17.7987 16.6189C17.4785 16.4352 17.211 16.1206 16.9184 15.8919C16.6264 15.6636 16.3721 15.4564 16.1506 15.1455C16.0858 15.3635 16.0501 15.6116 15.9695 15.8168C15.8539 16.1091 15.6007 16.2826 15.4252 16.5435C15.1808 16.9078 14.9377 17.3506 14.7373 17.7406C14.5473 18.1088 14.3649 18.4627 14.2694 18.8537C14.1759 19.2334 13.8558 19.867 13.8977 20.2716" fill="#E5A57D"/>
<path d="M23.7646 7.63323C28.1328 9.80832 27.6221 15.7913 27.1328 20.2718C23.8711 15.7913 21.4792 18.0041 17.458 15.2894C15.146 13.728 14.9294 10.2914 16.729 8.22784C18.0819 6.67641 20.3108 5.91247 23.7646 7.63323Z" fill="#02001F"/>
<path d="M13.2106 9.06949C12.3204 9.98025 11.1073 11.9719 11.0438 14.2475C10.9975 15.9761 10.9084 18.9468 11.9696 20.2723C11.7655 18.9541 11.6445 17.589 11.9594 17.1991C12.4391 16.6034 13.4349 18.248 13.4349 18.248C13.4349 18.248 13.069 19.7947 13.9711 20.7343C13.5359 18.2747 14.1572 17.7856 14.9991 16.611C15.8409 15.4359 15.571 13.376 16.58 12.5199C17.9504 11.3589 19.6348 8.27755 18.3658 7.87974C16.8869 7.41651 15.1834 7.04698 13.2106 9.06949Z" fill="#02001F"/>
<path d="M13.2995 9.32082C12.4586 10.1816 11.3116 12.0641 11.2517 14.2159C11.2072 15.8498 11.4334 17.3418 11.7309 16.9736C12.1845 16.4101 13.5119 17.9982 13.5119 17.9982C13.5119 17.9982 14.1936 17.5603 14.9902 16.4501C15.7864 15.3389 15.5314 13.3918 16.4852 12.5828C17.7806 11.4847 19.3727 8.5718 18.1734 8.19572C16.776 7.75787 15.1641 7.40849 13.2995 9.32082Z" fill="#10112D"/>
<path d="M23.6399 8.34694C27.4471 10.2428 27.0015 15.4564 26.5752 19.3622C23.733 15.4564 21.6483 17.3852 18.1437 15.0196C16.1297 13.6589 15.9397 10.6639 17.5092 8.86487C18.6879 7.51339 20.6303 6.84733 23.6399 8.34694Z" fill="#10112D"/>
<path d="M36.8 6.2182L20.3997 11.5111L4 6.2182L20.7037 1.33203L36.8 6.2182Z" fill="#002D54"/>
<path d="M13.1282 7.24141C13.1282 7.24141 13.833 4.92578 20.0298 4.92578C26.2264 4.92578 26.7287 7.14275 26.7287 7.14275L28.4749 11.9119C28.4749 11.9119 24.1682 12.3087 20.2542 12.3087C16.3413 12.3087 11.3789 11.5133 11.3789 11.5133L13.1282 7.24141Z" fill="#003863"/>
<path d="M31.0844 11.1678H30.2578V3.90785C30.2578 3.90785 31.0844 3.58908 31.0844 4.22635C31.0844 4.86388 31.0844 11.1678 31.0844 11.1678Z" fill="#003863"/>
<path d="M32.2256 12.1267C32.2256 13.6849 31.6405 15.1853 30.4539 16.3958C31.0726 14.1437 29.1172 13.6852 29.1172 12.1267C29.1172 11.1856 30.2397 10.2793 30.6715 10.4792C31.5239 10.1772 32.2256 11.0341 32.2256 12.1267Z" fill="#003863"/>
</svg>
