<svg xmlns="http://www.w3.org/2000/svg" width="40" height="40" fill="none" xmlns:v="https://vecta.io/nano"><g clip-path="url(#A)"><path d="M22.14 28.6c2.96 1.78 7.11 5.92 7.11 5.92s-1.78 2.96-2.96 4.15c0 0-6.16.21-15.64-9.27S1.41 13.79 1.41 13.79c1.18-1.18 4.15-2.96 4.15-2.96s4.15 4.15 5.92 7.11L8.52 20.9c1.03 2.05 2.4 4.61 4.38 6.47 1.97 1.9 4.23 3.17 6.29 4.19l2.96-2.96zM38.67 2.34v12.19c0 .52-.42.94-.94.94H25.31l-4.57 4.57v-4.57h-1.52c-.52 0-.94-.42-.94-.94V2.34c0-.52.42-.94.94-.94h18.52c.52 0 .94.42.94.94z" stroke="#484668" stroke-width="2" stroke-miterlimit="10" stroke-linejoin="round"/><path d="M28.83 33.32c-.13 0-.25-.06-.33-.18-.12-.18-.07-.42.11-.54l.63-.44c.17-.13.42-.09.55.08s.09.42-.08.55l-.66.46c-.07.04-.14.06-.21.06zm1.85-1.43c-.11 0-.21-.04-.29-.13-.14-.16-.13-.41.03-.55l.55-.52c.15-.15.4-.15.55 0s.15.4 0 .55l-.58.55c-.07.07-.17.1-.26.1zm1.62-1.69c-.09 0-.18-.03-.25-.09-.17-.14-.19-.38-.05-.55l.47-.6c.13-.17.37-.21.55-.08s.21.37.08.55l-.49.63c-.08.09-.19.14-.3.14zm1.35-1.91c-.07 0-.14-.02-.2-.06-.19-.11-.25-.35-.13-.54l.37-.66c.1-.19.34-.26.53-.16s.26.34.16.53l-.39.7c-.07.12-.2.19-.34.19zm1.05-2.09c-.05 0-.1-.01-.15-.03-.2-.08-.3-.31-.21-.51l.27-.71c.07-.2.29-.31.5-.24s.31.29.24.5l-.28.75c-.06.15-.21.24-.36.24zm.72-2.23c-.03 0-.06 0-.09-.01-.21-.05-.34-.26-.29-.47l.16-.74c.04-.21.25-.35.46-.31s.35.24.31.46l-.17.78c-.04.18-.2.3-.38.3zm.38-2.31c-.01 0-.02 0-.03 0-.21-.02-.37-.21-.35-.42l.05-.76c.01-.22.19-.39.41-.38s.38.19.38.41l-.05.8c-.02.2-.19.36-.39.36zm.03-2.34c-.21 0-.38-.16-.39-.37l-.06-.76c-.02-.21.13-.41.35-.43s.41.13.43.35l.07.8c.01.22-.15.4-.37.41h-.02zm-.31-2.32c-.18 0-.34-.13-.38-.31l-.18-.74c-.06-.21.07-.42.28-.48s.42.07.48.28l.19.78c.04.21-.09.42-.3.46-.03.01-.05.01-.08.01zM7.04 11.4c-.08 0-.17-.03-.24-.08-.17-.13-.21-.38-.08-.55l.5-.63c.14-.17.39-.19.55-.05s.19.39.05.55l-.48.6c-.08.1-.19.15-.31.15zm1.55-1.76c-.1 0-.2-.04-.28-.12-.15-.15-.15-.4.01-.55l.59-.54c.16-.14.41-.13.55.03s.13.41-.03.55l-.56.52c-.08.07-.17.11-.27.11zm1.79-1.51c-.12 0-.24-.06-.32-.16-.13-.18-.09-.42.09-.55l.66-.45c.18-.12.42-.07.54.12s.07.42-.12.54l-.63.43c-.07.05-.15.07-.23.07zm2-1.22c-.14 0-.28-.08-.35-.21-.1-.19-.02-.43.17-.53l.72-.35c.2-.09.43 0 .52.2s0 .43-.2.52l-.69.33c-.06.03-.12.04-.18.04zM14.54 6c-.16 0-.32-.1-.37-.27-.07-.2.04-.43.25-.49l.77-.24c.21-.06.42.06.48.27s-.06.42-.27.48l-.73.22c-.04.01-.08.02-.12.02zm2.27-.58c-.19 0-.35-.13-.38-.32-.04-.21.11-.41.32-.45l.79-.12c.21-.03.41.13.44.34s-.13.41-.34.44l-.75.11c-.02 0-.05.01-.07.01z" fill="#484668"/><g stroke="#484668" stroke-width="2" stroke-miterlimit="10" stroke-linejoin="round"><path d="M24.07 9.59c.9 0 1.63-.73 1.63-1.63s-.73-1.63-1.63-1.63-1.63.73-1.63 1.63.73 1.63 1.63 1.63z"/><use href="#B"/><path d="M34.1 9.25c.53 0 .95-.43.95-.95s-.43-.95-.95-.95-.95.43-.95.95.43.95.95.95z"/></g></g><defs><clipPath id="A"><path fill="#fff" d="M0 0h40v40H0z"/></clipPath><path id="B" d="M29.33 9.25c.53 0 .95-.43.95-.95s-.43-.95-.95-.95-.95.43-.95.95.43.95.95.95z"/></defs></svg>