<svg xmlns="http://www.w3.org/2000/svg" width="40" height="40" fill="none" xmlns:v="https://vecta.io/nano"><g clip-path="url(#A)"><g fill="#0856ca"><path d="M20 40a20 20 0 1 0 0-40 20 20 0 1 0 0 40z" fill-opacity=".5"/><path d="M20 34.07c7.87 0 14.24-.5 14.24-1.12S27.86 31.82 20 31.82s-14.24.5-14.24 1.12 6.38 1.12 14.24 1.12z"/></g><path d="M3.82 4.16h30.62c1.01 0 1.83.82 1.83 1.83v18.86H1.99V5.99c0-1.01.82-1.83 1.83-1.83z" fill="#666"/><path d="M3.2 24h31.6V5.81a.6.6 0 0 0-.58-.61H3.79a.6.6 0 0 0-.58.61V24z" fill="#fff"/><g fill="#0668e1"><path d="M11.75 8l-.25.01h-.04a.5.5 0 0 0-.47.5v3.99a.5.5 0 0 0 .5.5h3.99a.5.5 0 0 0 .5-.47v-.04l.01-.25c0-.56-.11-1.11-.32-1.63s-.53-.98-.92-1.38-.86-.71-1.38-.92A4.3 4.3 0 0 0 11.75 8zm-1.25 2.01a.5.5 0 0 0-.53-.49 4.2 4.2 0 0 0-2.25.83 4.3 4.3 0 0 0-1.45 1.92c-.29.77-.35 1.6-.18 2.39s.57 1.53 1.15 2.11 1.31.98 2.11 1.15 1.63.11 2.39-.18a4.3 4.3 0 0 0 1.92-1.45 4.3 4.3 0 0 0 .83-2.25.5.5 0 0 0-.49-.53h-3.5v-3.49z"/></g><path d="M36.27 24.85v2c0 1.01-.91 1.83-2.02 1.83H4.01c-1.11 0-2.02-.82-2.02-1.83v-2h34.28z" fill="#fff"/><g fill="#93c3ff"><rect x="18" y="9" width="14" height="1" rx=".5"/><rect x="18" y="12" width="14" height="1" rx=".5"/><rect x="18" y="15" width="7" height="1" rx=".5"/><rect x="6" y="20" width="26" height="1" rx=".5"/></g><path d="M22.96 31.47l2.82.9H12.48l2.28-.9v-2.79h8.21v2.79z" fill="#c2c2c4"/><path d="M22.96 31.47l-8.21-2.79h8.21v2.79z" fill="#b0b0b0"/><path d="M14.75 31.47h8.21l2.82.9v.39h-6.65-6.65v-.39l2.28-.9h0z" fill="#ecf0f1"/><path d="M19.13 27.38c.34 0 .61-.27.61-.61s-.27-.61-.61-.61-.61.27-.61.61.27.61.61.61z" fill="#b6b6b8"/></g><defs><clipPath id="A"><path fill="#fff" d="M0 0h40v40H0z"/></clipPath></defs></svg>