<svg width="40" height="40" viewBox="0 0 40 40" fill="none" xmlns="http://www.w3.org/2000/svg">
<g clip-path="url(#clip0_10802_218093)">
<path d="M24.8943 24.9372C26.2533 27.9598 29.4618 28.4934 32.1673 29.0161C36.1248 29.7802 40 33.5147 40 37.7473V39.4722C40 39.763 39.7625 40.0004 39.4707 40.0004H0.529297C0.2375 40.0004 0 39.763 0 39.4722V37.9117C0 32.826 4.11578 29.822 8.2743 29.2659C11.2996 28.8619 13.8173 28.4515 14.8822 24.7969C15.1577 25.038 15.4473 25.2816 15.7422 25.5437C18.4982 27.9924 21.6035 28.0986 24.2586 25.5399C24.4767 25.3289 24.6902 25.1303 24.8943 24.9372Z" fill="#194794"/>
<path d="M24.893 24.9388C25.604 26.5196 26.8209 27.4201 28.2063 27.9932C23.52 31.4292 17.0502 31.2306 12.2305 28.2942C13.6904 27.5085 14.4215 26.3706 14.8795 24.7969C15.1549 25.0381 15.4452 25.2817 15.7409 25.5446C18.497 27.9932 21.6023 28.0995 24.2573 25.5408C24.4755 25.3297 24.6889 25.1312 24.893 24.9388Z" fill="#D2A75F"/>
<path d="M20.2588 30.5326C17.4562 30.545 14.6373 29.76 12.2305 28.2942C13.6849 27.5116 14.4347 26.3559 14.8802 24.7969C15.1565 25.0381 15.4452 25.2817 15.7409 25.5446C17.1884 26.8306 18.7337 27.4704 20.2588 27.4177V30.5326Z" fill="#D2A75F"/>
<path fill-rule="evenodd" clip-rule="evenodd" d="M10.5254 16.5652C10.8891 15.525 11.735 15.8595 12.9398 16.2989L12.9287 16.2469L12.9398 16.2527C13.7995 7.23716 19.6115 12.412 23.965 7.66797C26.2524 8.79363 27.7315 11.0333 27.3529 16.0271L27.3651 16.0174C27.3299 16.2784 27.2899 16.5387 27.2453 16.7982C28.3408 15.969 29.9204 16.0461 29.4236 17.8838L28.7449 19.8048C28.5826 20.2646 28.4741 20.4315 27.8925 20.4003C27.6357 20.3866 27.3773 20.2876 27.1196 20.1175C27.3576 22.9524 25.9806 23.8773 24.2571 25.5396C21.6026 28.0994 18.4971 27.9937 15.7418 25.5443C14.1279 24.1096 12.6947 23.2384 12.6231 20.2894C12.2047 20.4175 11.809 20.4407 11.4636 20.2445C10.775 19.8528 10.5242 18.7131 10.4866 17.9833C10.4715 17.6898 10.4841 16.8641 10.5254 16.5652Z" fill="#E9BE79"/>
<path fill-rule="evenodd" clip-rule="evenodd" d="M10.5248 16.5654C10.8889 15.525 11.7339 15.8599 12.9391 16.2991L12.9283 16.2472L12.9391 16.253C13.5671 9.66322 16.8412 10.6541 20.2578 9.8125V27.4176C18.7332 27.4709 17.1885 26.8315 15.7409 25.5444C14.1271 24.1099 12.6936 23.239 12.6226 20.2897C12.2042 20.4175 11.8084 20.4409 11.463 20.2446C10.4601 19.6742 10.3793 17.6117 10.5248 16.5654Z" fill="#F2CD8C"/>
<path fill-rule="evenodd" clip-rule="evenodd" d="M8.44531 7.24452C13.7616 0.679462 19.8893 -2.89123 24.4904 2.94898C30.129 3.24488 32.085 12.4391 27.3559 16.0261C27.7347 11.0323 26.2554 8.79248 23.968 7.66697C19.6145 12.411 13.8024 7.23601 12.9429 16.2516L10.8564 15.1656C10.6492 12.5799 11.2553 8.09396 8.44531 7.24452Z" fill="#333231"/>
</g>
<defs>
<clipPath id="clip0_10802_218093">
<rect width="40" height="40" fill="white"/>
</clipPath>
</defs>
</svg>
