<svg xmlns="http://www.w3.org/2000/svg" width="40" height="40" fill="none" xmlns:v="https://vecta.io/nano"><g stroke="#fff" stroke-linecap="round"><path d="M7.97 30.03c1.05-1.13 3.85-3.67 5.6-1.93.97.97-.49 3.22-1.46 4.11 2.35-1.13 6.52-3.87 7.3-2.9s-2.11 4.43-3.65 5.56c1.62-.89 3.65-1.45 4.62-.48.49.48-1.95 3.22-2.43 3.62" stroke-width=".97"/><path d="M8.79 24.19c-1.14-2.9-1.98-9.05 0-14.25C10.89 4.42 15.52 2 20.43 2c4.1 0 11.97 2.66 11.97 13.01 0 10.41-3.89 16.91-7.06 18.12" stroke-width="1.2"/><path d="M12.11 12.63s1.22-1.21 3.16-1.21a4.4 4.4 0 0 1 2.68 1.21m4.87 0s.97-1.45 2.92-1.45c1.46 0 2.92 1.45 2.92 1.45" stroke-width=".97"/><path d="M16.49 25.68s1.88-1.93 3.89-1.93c1.51 0 3.41 1.93 3.41 1.93" stroke-width=".8"/></g><g fill="#fff"><ellipse cx="15.52" cy="16.01" rx="1.95" ry="1.93"/><ellipse cx="26.23" cy="16.01" rx="1.95" ry="1.93"/></g></svg>