<svg xmlns="http://www.w3.org/2000/svg" width="40" height="40" fill="none" xmlns:v="https://vecta.io/nano"><path d="M31.08 10.18l-.03.57-2.4 1.14c-.34-.06-2 .04-4.48-1.18-.63-.31-1.24-.48-1.83-.48-.53 0-1.06.13-1.54.37-.63-.14-1.53-.48-2.06-.48-1.2.01-3.91.98-4.66 1.06-.74.08-1.49.28-2.26.61a53.8 53.8 0 0 1-4.06-1.43L1.25 5.63v15.26l4.78 2.28c.07-.08.15-.21.23-.36l.15.07.24.56c-.53.88-.59 1.88-.17 2.75.36.74 1.03 1.26 1.77 1.41.04.46.2.91.46 1.29.47.69 1.21 1.11 1.99 1.11.07 0 .14 0 .21-.01.11.3.27.58.49.82.47.54 1.13.85 1.81.85h.15c.09.33.23.64.44.91.47.64 1.2 1.02 1.95 1.02a2.3 2.3 0 0 0 1.3-.41c.76.49 1.42.83 2 1.04a2.4 2.4 0 0 0 .91.18c.74 0 1.45-.34 1.96-.95.19-.22.34-.47.46-.74.22.07.45.1.68.1.78 0 1.52-.38 2.04-1.05.24-.32.42-.68.52-1.07h.16c.9 0 1.77-.53 2.26-1.39.26-.44.39-.95.39-1.46.89-.13 1.68-.77 2.06-1.7a3 3 0 0 0-.25-2.76L32.68 22l.18.57 5.89-3.13V6.65l-7.67 3.53zm0 1.9l.2 2.24c-.5-.84-1.13-1.22-1.91-1.41l1.71-.82zm-3.27 14.85c-1.34-.46-4.14-3.75-4.14-3.75h.05c.28-.02.9-.32 1.59-.18-1.08-.93-2.27-.14-3.08-.62.19.6 1.09.79 1.32.8l2.68 3.11c1.21 1.41.37 3.15-.85 3.43-.82-.4-3.12-3.14-3.12-3.14.08-.01.55-.16 1.02-.1-1.1-.82-2.34-.11-3.08-.62.42 1.03 1.8.77 1.94.74l1.43 1.83c1.15 1.46.25 3.15-.97 3.38-1.08-.38-1.78-1.73-1.78-1.73.11-.02.47-.18.99-.1-.92-.81-1.99-.07-2.64-.53.4.87 1.39.67 1.45.66.99 1.56-.04 3.19-1.27 3.24h0 0c-.74-.13-1.51-.72-2.39-1.32.3-.33.57-.92.57-.92.88-1.59-.26-2.99-1.44-2.87.95.26 1.67 1.48.92 2.83l-.33.55c-.36.65-.91 1.04-1.32.99-.63-.08-1.51-.99-1.14-2.29.14-.13 1.53-2.25 1.53-2.25.95-1.53-.12-3-1.3-2.95.94.32 1.6 1.58.79 2.88l-1.13 1.76c-.38.62-.88.97-1.36.91-.74-.1-1.25-1-1.13-1.93-.01.01.81-.91.81-.91 1.09-1.42.16-3-1.02-3.09.9.42 1.44 1.75.52 2.96l-.4.49c-.44.57-.96.87-1.43.75-.81-.2-1.22-1.71-.84-2.12.3-.32 1.14-1.35 1.14-1.35 1.09-1.42.16-3-1.02-3.09.91.42 1.44 1.75.52 2.96l-.4.49c-.44.58-.97.87-1.43.75-.97-.24-1.45-1.74-.52-2.95l-.46-1.43-.47-.22c1.09-2.55 2.74-8.17 2.82-10.04.8.29 2.93.9 3.16.9h0c2.29-.72 4.69-.64 5.78-1.06.35-.13 1.06-.14 1.81.28-.47.41-.91.9-1.37 1.35-1.09 1.09-5.17 2.78-4.38 4.56.68 1.54 2.59 3.11 5.79.64l1.8-.25 2.8 1.38 3.59 3.68c1.28 1.31.55 3.09-.63 3.47zm.9-4.06c-.41-.77-1.69-2.03-2.9-3.06l-.01-.01c.56.02 1.14-.88 1.9-.95-.53-.4-1.4.06-1.68.14-1.51.41-3.85-1.49-3.85-1.49l-2.24.32s-2.66 3.25-4.91.57c-1.22-1.45 3.2-3.35 4.28-4.43 1.39-1.38 2.63-3.08 4.93-1.92 1.9.96 2.65.9 5.21 1.35.76.13 1.29.48 1.85 1.16.27 2.24.7 4.72 1.11 6.45a13.4 13.4 0 0 1-3.7 1.87z" fill="#fff"/></svg>