<svg xmlns="http://www.w3.org/2000/svg" width="60" height="60" fill="none" xmlns:v="https://vecta.io/nano"><path d="M57.84 23.72a21.6 21.6 0 0 1-21.62 21.56 21.6 21.6 0 0 1-21.62-21.56A21.6 21.6 0 0 1 36.22 2.16a21.6 21.6 0 0 1 21.62 21.56z" fill="#0668e1" fill-opacity=".6"/><path d="M39.68 11.12c1.19 2.06.91 4.46-.65 5.35s-3.78-.05-4.97-2.12-.9-4.46.65-5.35 3.78.05 4.97 2.12" fill="#fff"/><path d="M60 23.72c0 13.1-10.65 23.72-23.78 23.72-4.96 0-9.57-1.52-13.38-4.11.3 1.33.26 2.72-.12 4.03a8.1 8.1 0 0 1-2.06 3.48l-6.88 6.86a8.1 8.1 0 0 1-11.41-.06C.86 56.13.01 54.09 0 51.96s.82-4.18 2.31-5.7l6.88-6.86a8.1 8.1 0 0 1 3.45-2.04c1.31-.38 2.69-.43 4.01-.14-2.76-3.96-4.24-8.68-4.23-13.5C12.43 10.62 23.08 0 36.22 0S60 10.62 60 23.72zm-4.32 0c0-2.55-.5-5.07-1.48-7.43a19.4 19.4 0 0 0-4.22-6.29c-1.81-1.8-3.95-3.23-6.31-4.21a19.5 19.5 0 0 0-14.89 0c-2.36.98-4.51 2.4-6.31 4.21a19.4 19.4 0 0 0-4.22 6.29c-.98 2.35-1.48 4.88-1.48 7.43 0 5.15 2.05 10.08 5.7 13.72a19.5 19.5 0 0 0 27.52 0c3.65-3.64 5.7-8.57 5.7-13.72z" fill="#0668e1"/><path d="M47.32 18c-1.04 0-1.87.85-1.87 1.89 0 .21.04.42.11.61l-4.57 3.96c-.32-.26-.72-.42-1.16-.42-.51 0-.97.21-1.31.54l-3.58-1.81c-.07-.98-.87-1.76-1.86-1.76-1.04 0-1.87.85-1.87 1.89 0 .29.07.55.18.8l-3.65 4.24c-.2-.08-.42-.13-.65-.13-1.04 0-1.87.85-1.87 1.89s.84 1.89 1.88 1.89 1.88-.85 1.88-1.89a1.9 1.9 0 0 0-.14-.71l3.71-4.3c.18.06.36.09.55.09.55 0 1.03-.24 1.38-.61l3.5 1.77c.01 1.03.84 1.87 1.87 1.87 1.04 0 1.88-.85 1.88-1.89 0-.03-.01-.06-.01-.1l4.88-4.22c.23.1.49.16.76.16 1.04 0 1.88-.85 1.88-1.89S48.36 18 47.32 18z" fill="#fff"/></svg>