<svg xmlns="http://www.w3.org/2000/svg" width="60" height="60" fill="none" xmlns:v="https://vecta.io/nano"><path d="M35.36 16.1a7.5 7.5 0 0 1 1.8 2.92l1.18 3.6c.1.28.28.52.52.69s.53.26.83.26.59-.09.83-.26.42-.41.52-.69l1.18-3.6c.37-1.1.99-2.09 1.81-2.91a7.5 7.5 0 0 1 2.92-1.8l3.63-1.17c.28-.1.52-.28.69-.52s.26-.53.26-.82-.09-.58-.26-.82-.41-.42-.69-.52l-.07-.02-3.62-1.17a7.5 7.5 0 0 1-2.93-1.8c-.82-.82-1.44-1.81-1.81-2.91L40.97.95c-.1-.28-.28-.52-.52-.69S39.92 0 39.62 0s-.59.09-.83.26-.42.41-.52.69l-1.18 3.6-.03.09c-.37 1.07-.98 2.04-1.78 2.84a7.5 7.5 0 0 1-2.85 1.78l-3.63 1.17c-.28.1-.52.28-.69.52s-.26.53-.26.82.09.58.26.82.41.42.69.52l3.63 1.17a7.5 7.5 0 0 1 2.93 1.8zm20.1 10.39l1.98.64.04.01c.15.05.29.15.38.28s.14.29.14.45-.05.32-.14.45-.23.23-.38.28l-1.98.64a4.1 4.1 0 0 0-1.59.98c-.45.45-.79.99-.99 1.58l-.64 1.97c-.05.15-.15.28-.29.37s-.29.14-.45.14-.32-.05-.45-.14-.23-.22-.29-.37l-.64-1.97c-.2-.6-.54-1.14-.98-1.59s-.99-.78-1.6-.98l-1.98-.64c-.15-.05-.29-.15-.38-.28s-.14-.29-.14-.45.05-.32.14-.45.23-.23.38-.28l1.98-.64a4.1 4.1 0 0 0 1.57-.99c.44-.44.77-.98.97-1.58l.64-1.97c.05-.15.15-.28.29-.37s.29-.14.45-.14.32.05.45.14.23.22.29.37l.64 1.97c.2.6.54 1.14.99 1.59s.99.78 1.6.98zM27.84 6.43h2.77l-2.77.94c-.94.3-1.75.89-2.34 1.69s-.89 1.75-.9 2.73c.02.95.33 1.86.89 2.63s1.34 1.34 2.23 1.66l3.68 1.2c.62.2 1.19.54 1.66 1.01 0 .08.09.15.18.24.06.05.12.11.16.17.15.19.28.39.4.6h-18.9c-.57 0-1.12.23-1.52.63s-.63.95-.63 1.52.23 1.11.63 1.52.95.63 1.52.63h20.35c.23.69.62 1.31 1.13 1.82s1.14.89 1.83 1.12 1.43.29 2.14.18 1.4-.38 2-.8c-.34.59-.52 1.25-.54 1.93 0 .82.25 1.62.73 2.29s1.16 1.18 1.94 1.46l2.15.66c.11.05.22.12.3.21.1.09.16.2.19.32l.65 1.95a4.3 4.3 0 0 0 1.57 2.07v3.93H35.92a7 7 0 0 0-4.95 2.04c-1.31 1.31-2.05 3.08-2.05 4.92V60H9a7 7 0 0 1-4.95-2.04C2.74 56.65 2 54.88 2 53.04V13.39c0-1.85.74-3.62 2.05-4.92A7 7 0 0 1 9 6.43h3.77V4.29c0-.57.23-1.11.63-1.52s.95-.63 1.52-.63 1.12.23 1.52.63.63.95.63 1.52v2.14h6.46V4.29c0-.57.23-1.11.63-1.52s.95-.63 1.52-.63 1.12.23 1.52.63.63.95.63 1.52v2.14zM12.77 32.14c0 .57.23 1.11.63 1.52s.95.63 1.52.63h21.54c.57 0 1.12-.23 1.52-.63s.63-.95.63-1.52-.23-1.11-.63-1.52-.95-.63-1.52-.63H14.92c-.57 0-1.12.23-1.52.63s-.63.95-.63 1.52zm2.15 8.57c-.57 0-1.12.23-1.52.63s-.63.95-.63 1.52.23 1.11.63 1.52.95.63 1.52.63h8.62c.57 0 1.12-.23 1.52-.63s.63-.95.63-1.52-.23-1.11-.63-1.52-.95-.63-1.52-.63h-8.62zm18.75 18.66c-.13.13-.28.25-.45.34V47.68c0-1.48 1.21-2.68 2.69-2.68h12.2L33.67 59.37z" fill="#0668e1"/></svg>