<svg xmlns="http://www.w3.org/2000/svg" width="60" height="60" fill="none" xmlns:v="https://vecta.io/nano"><path d="M31.8.01l3.81.76A21 21 0 0 1 46.97 8.4l.3.44-2.48 2.46-1.61-1.94c-5.17-5.31-11.4-7.17-18.47-4.97-7.04 2.2-11.11 7.23-12.41 14.5-.04.23-.11.53-.28.65-.94.66-1.91 1.28-2.87 1.9-.14.09-.29.16-.52.29a20.4 20.4 0 0 1 .72-5.93A21.4 21.4 0 0 1 27.25.19c.32-.05.63-.13.95-.19h3.6zm13.94 18.12a14.1 14.1 0 0 1 .27 4.97c-.83 7.79-7.13 13.82-14.98 14.37-7.69.55-14.75-4.63-16.68-12.18-.15-.6-.07-.92.47-1.28l8.47-5.53c.38-.25.68-.28 1.09-.08.37.18.81.34 1.22.34.73-.01 1.04.37 1.33.96a54.9 54.9 0 0 0 1.65 3.11c.24.42.22.73 0 1.16a5.3 5.3 0 0 0 .55 5.92c1.41 1.82 3.34 2.53 5.59 2.03a5.2 5.2 0 0 0 4.18-4.13c.18-.78.04-1.63.07-2.45.01-.25.02-.57.17-.72l6.41-6.42c.03-.03.09-.03.2-.07h.01zm-33.15 7.38l.34 1.13a17.9 17.9 0 0 0 20.34 12.31c9.05-1.75 15.33-9.98 14.54-19.1-.08-.97-.34-1.92-.47-2.88-.03-.23.02-.56.17-.72.76-.83 1.55-1.62 2.4-2.48.12.23.2.37.26.52 5.3 14.49-6.91 30.11-22.22 28.34-8.92-1.03-14.93-5.95-18.17-14.29-.25-.62-.16-.98.45-1.31.8-.44 1.55-.98 2.38-1.52l-.01.01zm30.92-12.78l-.34.37-7.63 7.63c-.57.57-1.88.38-2.27-.34l-1.88-3.58c-.13-.25-.11-.68.01-.94a5.6 5.6 0 0 0-.74-6.3c-1.49-1.7-3.89-2.33-6.01-1.58a5.5 5.5 0 0 0-3.71 5.13 1 1 0 0 1-.53.95l-6.04 3.94c-.08-4.61 5.8-10.77 11.69-12.26 7.5-1.9 14.46 1.91 17.45 6.96v.02zM0 29.7c.22-.2.41-.44.66-.59l20.43-13.37c.08-.05.17-.09.28-.15l.94 1.41-.47.35L1.72 30.51c-.85.55-1.07.52-1.72-.21v-.6zM60 7.05c-.38.17-.77.52-1.12.47-.59-.08-.65-.65-.65-1.18V1.77h-3.46c-.37 0-.75-.01-1.12 0-.5.01-.96-.04-1.19-.57-.25-.56.15-.88.49-1.2H60v7.05h0zm-3.57-3.46c.2.77-.04 1.3-.58 1.84l-17.24 17.2-.55.52-1.31-1.42c.16-.1.44-.19.64-.38L54.61 4.13c.54-.55 1.07-.74 1.82-.54zm-33.76 9.67c.01-2.1 1.73-3.8 3.83-3.8a3.8 3.8 0 0 1 3.78 3.84c-.03 2.1-1.78 3.8-3.86 3.77a3.8 3.8 0 0 1-3.74-3.81l-.01.01zm14.64 13.18c.02 2.1-1.69 3.83-3.79 3.85a3.8 3.8 0 0 1-3.82-3.73c-.04-2.13 1.7-3.89 3.82-3.89a3.8 3.8 0 0 1 3.79 3.76h0zm-5.62-5.27l-1.55.83-1.82-3.44 1.55-.82 1.83 3.43h-.01zM0 48.45l.4-1.51c1.4-4.85 6.06-7.97 11.05-7.37 5 .59 8.83 4.71 9.06 9.73.23 5-3.24 9.44-8.18 10.48-.26.05-.52.14-.77.22H9.01l-.86-.23A10.1 10.1 0 0 1 .41 52.6C.25 52.07.14 51.53 0 51v-2.55zm11.12-.07l.81.77c.41.37.85.45 1.26.04.4-.41.35-.87-.03-1.27a101.8 101.8 0 0 0-2.28-2.27c-.4-.39-.86-.39-1.27 0a106.5 106.5 0 0 0-2.33 2.33c-.36.38-.37.83.01 1.21.38.37.81.35 1.21.02.26-.22.5-.46.86-.8v.87 3.89c0 .55.27.95.83.96.59.01.89-.37.91-.96.01-.25 0-.5 0-.75v-4.03h.01zM48.45 60l-1.57-.43a10.2 10.2 0 0 1-7.29-11.17c.61-4.91 4.77-8.7 9.79-8.91 4.95-.21 9.39 3.28 10.41 8.18.05.26.14.52.22.78V51l-.23.85a10.1 10.1 0 0 1-7.19 7.74c-.52.16-1.05.27-1.58.41h-2.55-.01zm.43-9.09l-.27.19c-.17-.25-.31-.52-.52-.73-.38-.4-.84-.49-1.26-.1-.46.41-.38.9.02 1.31l2.22 2.23c.4.39.85.46 1.27.07a63.6 63.6 0 0 0 2.38-2.38c.35-.38.35-.84-.04-1.21-.38-.37-.82-.32-1.21.01-.25.22-.47.46-.85.81v-3.85-.82c.01-.6-.22-1.08-.87-1.08-.64 0-.89.45-.88 1.07v4.48h.01zM23.25 60v-5.8h13.5V60h-13.5zM37.9 43.14l-.01 3.46c-.02.6-.44.85-1.03.85h-3.44-9.96c-1.14 0-1.37-.23-1.37-1.34v-2.96a23.4 23.4 0 0 0 15.82 0v-.01zm-4.7 6.11v3.06h-6.37v-3.06h6.37z" fill="#0668e1"/><path d="M11.13 48.37v4.03.75c-.01.59-.31.98-.91.96-.56-.01-.83-.41-.83-.96v-3.89-.87l-.86.8c-.4.34-.83.35-1.21-.02-.38-.38-.37-.83-.01-1.21l2.33-2.33c.41-.4.86-.39 1.27 0l2.28 2.27c.38.4.43.86.03 1.27-.41.41-.85.34-1.26-.04l-.81-.77h-.01zm37.74 2.54v-4.48c0-.61.25-1.07.88-1.07.65 0 .88.47.87 1.08v.82 3.85l.85-.81c.4-.34.83-.38 1.21-.01a.8.8 0 0 1 .04 1.21l-2.38 2.38c-.41.4-.87.32-1.27-.07l-2.22-2.23c-.41-.42-.47-.9-.02-1.31.42-.39.88-.3 1.26.1.2.21.35.48.52.73l.27-.19-.01.01z" fill="#fff"/></svg>