<svg xmlns="http://www.w3.org/2000/svg" width="60" height="60" fill="#0668e1" xmlns:v="https://vecta.io/nano"><path d="M25.85 15.15c0-.33.27-.61.61-.61h15.48c.33 0 .61-.27.61-.61v-.64c0-.49.56-.78.96-.49l4.61 3.27c.34.24.34.75 0 .99l-4.61 3.27c-.4.28-.96 0-.96-.49v-.64c0-.33-.27-.61-.61-.61H26.45c-.33 0-.61-.27-.61-.61v-2.83z"/><path d="M28.48 22.21c-.33 0-.61-.27-.61-.61V6.66c0-.33-.27-.61-.61-.61h-.68c-.5 0-.79-.57-.48-.97L29.48.64c.24-.32.72-.32.97 0l3.37 4.45c.3.4.02.97-.48.97h-.68c-.33 0-.61.27-.61.61v14.94c0 .33-.27.61-.61.61h-2.96z"/><path d="M34.08 9.09c0-.33-.27-.61-.61-.61H17.99c-.33 0-.61-.27-.61-.61v-.64c0-.49-.56-.78-.96-.49l-4.61 3.27c-.34.24-.34.75 0 .99l4.61 3.27c.4.28.96 0 .96-.49v-.64c0-.33.27-.61.61-.61h15.48c.33 0 .61-.27.61-.61V9.09zm7.73 46.82s-.38-.18-.73-.43c-.56-.42-1.04-.94-1.53-1.43-.26-.26-.47-.32-.81-.1a15.1 15.1 0 0 1-4.98 2.04c-.46.09-.59.3-.57.73a22.7 22.7 0 0 1 .01 1.98 1.2 1.2 0 0 1-1.34 1.28L28.4 60c-.94-.01-1.4-.44-1.42-1.34l-.01-1.99c.01-.37-.11-.55-.5-.62a15.8 15.8 0 0 1-5.08-1.98c-.34-.21-.55-.17-.81.11a27.3 27.3 0 0 1-1.39 1.36 1.3 1.3 0 0 1-2.1 0l-2.29-2.19a1.2 1.2 0 0 1-.03-2.03l1.4-1.36c.27-.25.33-.45.11-.79a13.8 13.8 0 0 1-2.1-4.8c-.09-.44-.31-.57-.75-.55l-2.06.02c-.86-.03-1.31-.47-1.33-1.28l-.01-3.33c.01-.92.45-1.35 1.39-1.38l2.06-.02c.39.01.57-.1.65-.48a14.4 14.4 0 0 1 2.07-4.9c.21-.32.19-.53-.11-.78-.51-.44-.98-.92-1.46-1.39-.65-.66-.66-1.26 0-1.92l2.38-2.32c.69-.66 1.33-.65 2.05.01l1.41 1.35c.26.26.46.33.81.11a15.1 15.1 0 0 1 4.98-2.04c.45-.09.6-.29.58-.73a22.6 22.6 0 0 1-.01-1.98c.03-.83.48-1.27 1.34-1.28l3.52-.02a1.2 1.2 0 0 1 1.36 1.33v1.99c-.01.37.1.55.5.63a15.8 15.8 0 0 1 5.08 1.98c.33.2.54.19.81-.1l1.5-1.46c.62-.57 1.25-.58 1.88-.01l2.56 2.44c.55.55.54 1.2-.01 1.77l-1.5 1.46c-.27.25-.34.44-.12.78a13.8 13.8 0 0 1 2.1 4.8c.09.44.31.57.75.55l2.06-.01c.85.03 1.31.47 1.33 1.29l.02 3.4c-.01.86-.48 1.28-1.39 1.31l-2.06.01c-.39-.01-.57.1-.65.48-.38 1.76-1.08 3.39-2.07 4.9-.21.32-.19.53.11.78l1.56 1.5c.49.5.55 1.11.08 1.6l-2.78 2.73c-.1.1-.37.22-.37.22l-.17.06-.45.05zm-7.63-4.4c6.15-2.21 9.31-8.85 7.04-14.82-2.27-5.95-9.14-8.99-15.31-6.79-6.21 2.21-9.4 8.86-7.11 14.84s9.16 9 15.39 6.77zM31.3 43.6h-2.59a8.1 8.1 0 0 1 .14-1.52c.09-.43.25-.82.48-1.17a5.3 5.3 0 0 1 .91-1.03 11.9 11.9 0 0 0 .83-.79c.24-.25.42-.5.56-.77a1.9 1.9 0 0 0 .2-.89c0-.38-.06-.69-.18-.94a1.2 1.2 0 0 0-.53-.58c-.23-.13-.52-.2-.87-.2a1.8 1.8 0 0 0-.81.19c-.25.12-.46.3-.62.55a1.8 1.8 0 0 0-.24.98h-2.94a3.9 3.9 0 0 1 .64-2.22 3.7 3.7 0 0 1 1.65-1.31 6 6 0 0 1 2.32-.43c.95 0 1.76.15 2.43.45a3.3 3.3 0 0 1 1.55 1.31 3.8 3.8 0 0 1 .54 2.08c0 .57-.11 1.08-.34 1.52a5.2 5.2 0 0 1-.9 1.23l-1.23 1.18a2.6 2.6 0 0 0-.79 1.05c-.14.37-.21.8-.21 1.31zm-2.89 3.03c0-.42.15-.77.45-1.04.3-.28.7-.42 1.2-.42.49 0 .89.14 1.19.42.3.27.46.62.46 1.04 0 .41-.15.75-.46 1.03-.3.28-.69.42-1.19.42s-.9-.14-1.2-.42-.45-.62-.45-1.03z"/></svg>