<svg xmlns="http://www.w3.org/2000/svg" width="60" height="60" fill="#0668e1" xmlns:v="https://vecta.io/nano"><path d="M23.36 24.08h-.67c-1.93 0-3.85-.01-5.78 0-.68 0-1.26-.17-1.82-.56l-7.11-4.75c-1.59-1.07-1.59-3.16-.03-4.08.9-.53 1.74-.3 2.55.23l4.82 3.15a3.2 3.2 0 0 0 1.91.58l7.97-.02c.81 0 1.48.26 2.07.85l2.65 2.55 2.54-2.46a3 3 0 0 1 2.33-.95h8.62c.31 0 .66-.1.93-.27l5.42-3.53c1.2-.83 2.64-.22 3.21.67.72 1.12.42 2.45-.75 3.24l-7.16 4.78a3.2 3.2 0 0 1-1.88.58h-5.84-.67l-.03.46.54 25.86.13 6.77c.02 1.53-1.01 2.68-2.46 2.78-1.64.12-2.86-.84-3.06-2.41L30 43.8c0-.03-.04-.05-.12-.19l-.34 2.46-1.45 11.37c-.29 2.21-2.6 3.28-4.41 2.05-.74-.5-1.15-1.2-1.12-2.12l.3-12.81.31-11.36.2-7.91V24.1v-.01zm19.19 21.87l.75-4.22c.12-.61 0-1.04-.45-1.5l-2.88-3.13 4.05-.58c.48-.06.78-.24.99-.69l1.97-4.07.27.41 1.84 3.71a1.2 1.2 0 0 0 1.07.76l3.73.51c.13.02.25.07.26.07l-2.67 2.91c-.84.88-.87 1.24-.51 2.44.32 1.06.47 2.18.72 3.41l-3.92-2.15c-.5-.29-.87-.25-1.34.02l-3.87 2.12h-.01zm-34.09 0l.74-4.13c.14-.68.04-1.17-.48-1.66l-2.98-3.02 2.5-.38 1.98-.29c.28-.07.6-.31.73-.57l2.06-4.19.82 1.61 1.27 2.58c.22.5.56.66 1.03.72l3.79.52c.12.02.23.06.43.12l-2.18 2.07c-.35.33-.67.7-1.05.97-.51.37-.53.82-.42 1.37l.65 3.62c.03.17.04.35.07.63l-3-1.66c-1.03-.71-1.91-.7-2.93.01-.9.63-1.92 1.07-3.03 1.68v-.01zm-6.5-3.97l.51-3.19a1.1 1.1 0 0 0-.32-1.08L0 35.37l1.66-.29c.48-.08.96-.2 1.45-.22.42-.03.62-.25.78-.61l1.38-2.92 1.39 2.94c.16.36.38.54.79.59a13.6 13.6 0 0 1 2.54.55l-2.83.47-2.44.39c-.24.05-.54.22-.63.42-.06.15.12.49.28.66l3.61 3.64c.16.16.22.41.32.62l-.17.14c-.6-.33-1.23-.61-1.78-1-.72-.52-1.35-.48-2.09 0-.7.46-1.47.8-2.31 1.23h0zm52.87-10.56l1.42 2.99c.16.35.38.5.76.54l2.99.4-1.98 2.21c-.32.33-.45.59-.34 1.1.24 1.09.36 2.21.55 3.42l-2.8-1.48c-.39-.22-.7-.24-1.09 0l-2.27 1.25-.17-.1c.11-.22.16-.5.33-.66l3.36-3.4c.22-.23.49-.66.42-.88-.08-.24-.53-.42-.84-.48l-5.06-.93c.62-.11 1.24-.28 1.87-.31.88-.05 1.44-.39 1.75-1.28.28-.79.7-1.52 1.11-2.39h-.01zM29.97 17.3c-2.54-.01-4.52-2.05-4.51-4.64.01-2.56 2.05-4.65 4.53-4.66 2.5 0 4.59 2.15 4.55 4.7-.04 2.59-2.05 4.61-4.57 4.59h0zm1.19-14.21v1.75c-.03.78-.48 1.26-1.15 1.25-.66 0-1.14-.5-1.15-1.26V1.21c.01-.75.46-1.2 1.12-1.21.7-.01 1.15.44 1.18 1.21v1.87h0zm7.83 10.34h-1.83c-.68-.02-1.12-.48-1.13-1.13s.49-1.16 1.17-1.17h3.65A1.1 1.1 0 0 1 42 12.24c.03.66-.44 1.16-1.14 1.19h-1.89 0zm-18.11.01h-1.76a1.2 1.2 0 0 1-1.19-1.22c0-.66.48-1.09 1.21-1.09h3.53c.73 0 1.18.42 1.2 1.11.02.72-.41 1.17-1.16 1.21h-.12-1.71 0zm4.11-5.17c-.39-.21-.7-.31-.91-.51l-2.47-2.42c-.57-.57-.6-1.26-.11-1.75.46-.45 1.14-.41 1.67.14l2.42 2.47c.36.38.52.86.25 1.32-.18.3-.54.49-.84.76h0zm9.99.04c-.26-.2-.61-.37-.79-.65-.27-.4-.2-.88.12-1.23l2.75-2.81c.4-.39 1.09-.32 1.45.05.34.35.43 1.06.07 1.44l-2.83 2.9c-.15.15-.42.17-.76.3h0z"/></svg>