<svg xmlns="http://www.w3.org/2000/svg" width="60" height="60" fill="#0668e1" xmlns:v="https://vecta.io/nano"><path d="M2.56 60c-1.19-.52-1.62-1.42-1.55-2.71.08-1.44.01-2.89.02-4.34 0-1.44.8-2.25 2.25-2.26h8.5c1.15 0 1.65-.31 1.66-1.02s-.5-1.05-1.63-1.05H4.83h-.69l-.03-.61v-4.28a2.1 2.1 0 0 1 2.35-2.36h8.85c.83 0 1.32-.51 1.2-1.21-.09-.54-.5-.85-1.22-.85H9.03h-.71l.02-4.56c.04-.79.79-1.45 1.59-1.59.29-.05.58-.06.88-.06h6.45c.88 0 1.36-.36 1.37-1.01s-.48-1.04-1.34-1.04h-.35-3.87-.62l.02-3.48c.08-.98.97-1.66 2.02-1.68h4.75c.18 0 .35.01.53-.02.56-.08.93-.51.92-1.04a1 1 0 0 0-1.01-1.01l-2.08-.01.01-3.21c.03-.6.48-.92 1.2-.92h6.86 3.25v-7.25h-.67-13.48-.41c-.37.01-.79-.01-.84-.43-.03-.26.16-.63.38-.82l3.68-3.09.31-.26c.47-.42.48-.75 0-1.16l-3.87-3.23c-.3-.25-.68-.46-.52-.95s.61-.41.99-.41H28.2h.76v-.86C28.98.47 29.39 0 30.01 0s1.02.48 1.03 1.24v.47 17.17.79h.72 9.32c1 0 1.34.34 1.34 1.33v2.8c-.71 0-1.4-.02-2.1.01a1 1 0 0 0-1 1.02c0 .53.36.95.92 1.04.17.03.35.02.53.02h4.46c1.59 0 2.36.79 2.36 2.39v2.78h-.65-4.1c-.97 0-1.47.36-1.46 1.04s.5 1.02 1.49 1.02h6.39a2.1 2.1 0 0 1 2.47 2.47v3.74h-.69H45c-.2 0-.39-.01-.59.02a1 1 0 0 0-.94 1.07 1 1 0 0 0 .98.97c.29.02.59.01.88.01h8.27c1.42 0 2.28.84 2.29 2.24v4.97l-.66.03c-2.46 0-4.93-.01-7.39.02a1.6 1.6 0 0 0-1 .35c-.57.53-.25 1.47.51 1.65.22.05.47.05.7.05h8.5c1.67 0 2.42.77 2.43 2.44l.02 4.16c.07 1.28-.36 2.19-1.55 2.71H45.36c-.03-.07-.07-.14-.08-.22l-7.07-32.7-.95-4.4c-.16-.7-.65-1.05-1.26-.92s-.9.65-.77 1.35l.12.66h-10.7l.1-.6c.15-.75-.12-1.27-.75-1.4s-1.1.22-1.27.98L16.05 53.6l-1.41 6.39H2.56V60zm14.19 0l1.29-5.76.63-2.97c.08-.45.26-.59.73-.59l8.32.01 12.83-.01c.5 0 .7.14.8.64l1.79 8.35c.03.11.07.22.11.33h-26.5zm2.52-11.4l.65-3.06.79-3.66c.07-.38.2-.52.6-.51l17.4.01c.26 0 .48-.02.56.34l1.4 6.52c.02.11 0 .23 0 .36h-21.4zm2.01-9.33l1.33-6.17h.63l13.53-.01c.49 0 .66.14.76.62l1.07 5.03.09.54H21.28zm2.89-13.38h11.66L36.94 31H23.07l1.1-5.11z"/></svg>