<svg xmlns="http://www.w3.org/2000/svg" width="64" height="60" fill="none" xmlns:v="https://vecta.io/nano"><g stroke="#0668e1" stroke-linecap="round" stroke-linejoin="round"><path d="M57.15 34.13v-4.16C57.15 16.18 45.91 5 32.05 5c-3.77 0-7.49.84-10.89 2.47s-6.39 4-8.74 6.94m-5.4 11.45v4.16C7.02 43.83 18.26 55 32.13 55c3.76-.01 7.47-.85 10.86-2.46s6.38-3.97 8.75-6.88" stroke-width="4"/><path d="M2 30.63l5-5 4.38 5m50.63 0L57 35l-5.62-4.37" stroke-width="3.28"/></g><path d="M36.87 46.33s-.25-.26-.46-.58c-.33-.52-.55-1.1-.8-1.66-.13-.3-.28-.41-.63-.33a12.5 12.5 0 0 1-4.68.21c-.4-.06-.58.08-.69.44L29 46.07c-.28.68-.79.91-1.49.67l-2.82-1.02c-.77-.29-1-.79-.74-1.55l.61-1.67c.13-.31.08-.49-.21-.68a13.2 13.2 0 0 1-3.51-3.2c-.21-.27-.39-.31-.69-.15l-1.56.73a1.1 1.1 0 0 1-1.71-.64l-1.18-2.53a1.1 1.1 0 0 1 .61-1.71l1.56-.72c.3-.13.41-.28.33-.63a12.6 12.6 0 0 1-.21-4.66c.06-.4-.07-.57-.44-.69l-1.68-.6c-.69-.28-.92-.79-.68-1.48l1.03-2.8c.29-.77.79-1 1.56-.74l1.68.6c.31.13.49.09.68-.21a13.1 13.1 0 0 1 3.21-3.5c.27-.21.32-.39.16-.69-.28-.52-.52-1.07-.75-1.61-.33-.75-.15-1.25.6-1.62L26 13.74c.77-.35 1.28-.15 1.66.63l.72 1.55c.13.3.27.41.63.34a12.5 12.5 0 0 1 4.68-.21c.4.06.58-.07.69-.44l.61-1.67c.28-.69.79-.92 1.48-.68l2.87 1.04c.72.27.94.78.69 1.53l-.61 1.67c-.12.3-.09.49.21.68a13.4 13.4 0 0 1 3.51 3.2c.2.27.38.33.69.16l1.67-.78c.68-.29 1.2-.11 1.54.56l1.32 2.82c.28.63.07 1.17-.56 1.48l-1.67.78c-.3.13-.42.27-.34.62a12.6 12.6 0 0 1 .21 4.66c-.06.4.07.57.44.69l1.68.61c.68.28.92.79.68 1.48l-1.05 2.86c-.28.72-.79.93-1.54.68l-1.68-.61c-.31-.13-.49-.09-.68.21a13.2 13.2 0 0 1-3.21 3.5c-.27.21-.32.39-.16.69l.81 1.73c.24.57.1 1.1-.43 1.37l-3.11 1.46c-.11.05-.37.07-.37.07h-.15l-.38-.09zm-4.83-6c5.69 0 10.33-4.63 10.33-10.33.01-5.68-4.63-10.31-10.34-10.32-5.74-.02-10.4 4.61-10.4 10.33s4.64 10.32 10.4 10.32zm-3.92-13.61c-.7-1.35-.85-2.69-.53-3.89.63-.33 1.15-.53 1.58-.85.9-.65 1.82-1.24 2.99-1.16 1.2.08 2.26.37 2.65 1.69.04.12.22.26.35.28.51.08.72.42.84.85.3 1.09.21 2.13-.44 3.09.66.62.51 2.29-.21 2.85-.19.15-.29.41-.39.64a12.3 12.3 0 0 0-.5 1.34 4 4 0 0 0-.21 1.14c0 .53-.15.93-.61 1.24l-1.83 1.37-2.12-1.65c-.2-.17-.26-.56-.28-.85a3.8 3.8 0 0 0-.38-1.55c-.55-1.11-.91-2.32-1.27-3.51-.09-.29.13-.67.21-1.01l.16-.04-.01.02zm5.01 12.46c-.21-1.04-.64-2 .41-2.87l1.06 1.4.68-4.33c1.25 1.32 2.84 1.57 4.41 2.11a9.8 9.8 0 0 1-6.55 3.69h0zm-4.38-5.6l.64 4.13 1.05-1.41c1.06.86.64 1.83.42 2.87a9.8 9.8 0 0 1-6.54-3.66c1.52-.58 3.14-.77 4.25-1.99l.19.07z" fill="#0668e1"/></svg>