<svg xmlns="http://www.w3.org/2000/svg" width="60" height="60" fill="none" xmlns:v="https://vecta.io/nano"><path d="M0 50.4h60V60H0zm0-1.2v-8.4a3.6 3.6 0 0 1 3.6-3.6H6a3.6 3.6 0 0 1 3.6 3.6v8.4H0zm16.8 0V28.8a3.6 3.6 0 0 1 3.6-3.6h2.4a3.6 3.6 0 0 1 3.6 3.6v20.4h-9.6zm16.8 0V31.8a3.6 3.6 0 0 1 3.6-3.6h2.4a3.6 3.6 0 0 1 3.6 3.6v17.4h-9.6zm16.8 0V16.8a3.6 3.6 0 0 1 3.6-3.6h2.4a3.6 3.6 0 0 1 3.6 3.6v32.4h-9.6z" fill="#0668e1"/><g fill="#fff"><path d="M5.4 53.25c0-.25.2-.45.45-.45h.9c.25 0 .45.2.45.45V60H5.4v-6.75z"/><use href="#B"/><use href="#C"/><use href="#B" x="12"/><use href="#C" x="12"/><use href="#B" x="24"/><use href="#C" x="24"/><use href="#B" x="36"/><use href="#C" x="36"/></g><g fill="#0668e1"><path d="M21.3 18.6l.17-.42-.26-.1-.21.19.3.34zm16.5 6.6l-.17.42.33.13.21-.29-.37-.26zm11.24-15.07c-.04-.25-.27-.41-.52-.37l-4 .65c-.25.04-.41.27-.37.52s.27.41.52.37l3.55-.58.58 3.55c.04.25.27.41.52.37s.41-.27.37-.52l-.65-4zM4.8 33.3l.3.34 16.5-14.7-.3-.34-.3-.34-16.5 14.7.3.34zm16.5-14.7l-.17.42 16.5 6.6.17-.42.17-.42-16.5-6.6-.17.42zm16.5 6.6l.37.26 10.8-15-.37-.26-.37-.26-10.8 15 .37.26z"/><circle cx="4.8" cy="33.6" r="1.2"/><circle cx="21.6" cy="18.6" r="1.2"/><circle cx="37.8" cy="25.2" r="1.2"/><path d="M54.77 1.32c.13-.41.72-.41.86 0l.55 1.69c.06.19.23.31.43.31h1.78c.44 0 .62.56.26.81l-1.44 1.04c-.16.11-.22.32-.16.5l.55 1.69c.13.41-.34.76-.69.5l-1.44-1.04c-.16-.11-.37-.11-.53 0L53.5 7.87c-.35.26-.83-.09-.69-.5l.55-1.69c.06-.19-.01-.39-.16-.5l-1.44-1.04c-.35-.26-.17-.81.26-.81h1.78c.2 0 .37-.13.43-.31l.55-1.69zm-33.6 7.2c.13-.41.72-.41.86 0l.41 1.27c.06.19.23.31.43.31h1.34c.44 0 .62.56.26.81l-1.08.79c-.16.11-.22.32-.16.5l.41 1.27c.13.41-.34.76-.69.5l-1.08-.79c-.16-.11-.37-.11-.53 0l-1.08.79c-.35.26-.83-.09-.69-.5l.41-1.27c.06-.19-.01-.39-.16-.5l-1.08-.79c-.35-.26-.17-.81.26-.81h1.34c.2 0 .37-.13.43-.31l.41-1.27z"/></g><defs ><path id="B" d="M11.4 58.05c0-.25.2-.45.45-.45h.9c.25 0 .45.2.45.45V60h-1.8v-1.95z"/><path id="C" d="M17.4 53.25c0-.25.2-.45.45-.45h.9c.25 0 .45.2.45.45V60h-1.8v-6.75z"/></defs></svg>