<svg xmlns="http://www.w3.org/2000/svg" width="60" height="61" fill="#0668e1" xmlns:v="https://vecta.io/nano"><path d="M31.01 59.99H22.8a4 4 0 0 1-4.29-4.96 10.6 10.6 0 0 1 9.91-8.88c2.14-.11 4.34-.15 6.44.19a10.5 10.5 0 0 1 8.66 9.19c.27 2.38-1.56 4.41-4.06 4.45l-8.46.01zm-19.98-7.91h-5.8c-2.25-.01-3.55-1.57-3.16-3.76a8.3 8.3 0 0 1 8.14-6.88 80.3 80.3 0 0 1 3.06 0A8.5 8.5 0 0 1 21 46.77c.18.46.09.73-.25 1.13a40.2 40.2 0 0 0-2.68 3.58c-.31.46-.56.62-1.09.61l-5.96-.01h.01zm39.85 0c-1.99 0-3.97-.01-5.96.01-.5 0-.74-.17-1.02-.59l-2.73-3.64c-.32-.38-.38-.64-.21-1.06 1.17-3.09 4.26-5.27 7.62-5.35h3.4c4.12.14 7.58 3.31 8.01 7.32.19 1.75-1.14 3.26-2.97 3.29-2.04.04-4.09.01-6.12.01l-.01.01zM24.31 37.3c0-3.62 3-6.58 6.69-6.57 3.65 0 6.63 2.92 6.66 6.51.03 3.63-2.96 6.6-6.65 6.61-3.68.02-6.7-2.93-6.7-6.56v.01zm-12.55 2.05a5.1 5.1 0 0 1-5.13-5 5.1 5.1 0 0 1 5.09-5.04 5.1 5.1 0 0 1 5.14 5 5.1 5.1 0 0 1-5.1 5.04zm38.49-.01a5.1 5.1 0 0 1-5.14-4.99 5.1 5.1 0 0 1 5.09-5.04 5.1 5.1 0 0 1 5.14 4.99 5.1 5.1 0 0 1-5.09 5.04zM40.61 8.6c.73-.19 1.38-.49 2.03-.49.97-.01 1.33.69 1.56 1.57 1.97 7.26-2.64 14.7-10.12 16.27-7.38 1.55-14.71-3.29-15.97-10.54C16.82 7.91 22.08.94 29.73.1a13.1 13.1 0 0 1 11.26 4c1.05 1.07.88 2.22-.42 2.96-.21.12-.43.23-.64.34-4.17-5.53-11-5.38-14.97-2.35-4.21 3.22-5.3 9.01-2.48 13.43a10.5 10.5 0 0 0 13.37 3.76A10.2 10.2 0 0 0 40.6 8.6h.01zm-1.38.98c1.62 2.83 1.22 8.22-3.5 10.98a8.9 8.9 0 0 1-11.97-2.95c-2.52-4.05-1.25-9.31 2.86-11.84 3.97-2.44 9.39-1.35 11.87 2.45L35.74 9.8c-1.02-1.15-2.25-1.91-3.81-2.1a5.6 5.6 0 0 0-5.65 3.05c-1.04 2.12-.58 4.66 1.16 6.29a5.6 5.6 0 0 0 6.45.89c2.09-1.09 3.36-3.44 2.83-5.65-.24-.99.04-1.41.88-1.78.57-.25 1.09-.61 1.64-.91zm-4.97 1.05l-3.14 1.78c-.48.27-.82.63-.46 1.19.32.5.78.4 1.23.14l3.14-1.78a3.8 3.8 0 0 1-2.19 4.76c-1.92.8-4.15.02-5.11-1.8a3.9 3.9 0 0 1 1.43-5.14c1.68-1.04 3.96-.68 5.09.85v.01zM47.99.8l-.43 2.17c-.17.77.17 1.26.89 1.52l2.15.72-4.18 2.34c-.1.05-.27.03-.39-.01l-3.04-.98.66-3.04c.04-.16.17-.36.31-.44L47.99.79V.8z"/></svg>