<svg xmlns="http://www.w3.org/2000/svg" width="60" height="60" fill="none" xmlns:v="https://vecta.io/nano"><path d="M59.99 36.98H0v-1.06V3.2C0 .91.88 0 3.11 0H56.9c2.18 0 3.1.92 3.1 3.12v32.91.96h-.01zM29.98 10.23c-6.47.01-12.05 4.58-13.41 11.05a15.8 15.8 0 0 0-.28 3.04c-.02.74.49 1.18 1.21 1.19.67.01 1.09-.41 1.23-1.09.04-.21.02-.44.03-.67.26-5.73 4.6-10.39 10.18-10.94a11.3 11.3 0 0 1 12.02 8.89c.19.83.2 1.71.3 2.56.09.78.52 1.26 1.28 1.24s1.18-.53 1.2-1.32a8.7 8.7 0 0 0-.02-.77c-.38-7.39-6.45-13.2-13.73-13.2zm-.04 20.39c2.66.03 4.52-2.66 3.52-5.17-.24-.6-.12-.9.26-1.31l3.22-3.61c.7-.81.73-1.54.1-2.08-.58-.51-1.26-.39-1.95.38l-3.42 3.81c-.25.26-.75.44-1.09.39a3.8 3.8 0 0 0-4.3 3.42 3.8 3.8 0 0 0 3.67 4.19h-.01zm-6.36 16.6H22.5 3.01c-2.1 0-3.01-.95-3.01-3.11l.01-4.21c0-.06.03-.12.07-.26h59.87l-.03 5.52c-.1 1.31-1.24 2.06-2.74 2.06H37.49h-1.08l.52 4.1c.1.66.56.93 1.18 1.02 3.43.45 5.53 2.79 5.61 6.28a1.2 1.2 0 0 1-1.07 1.34c-.3.05-.62.04-.94.04H18.29c-1.9 0-2.23-.47-1.81-2.4.35-1.59.79-3.16 2.2-4.07a8.2 8.2 0 0 1 2.92-1.13c.97-.18 1.45-.54 1.54-1.55l.43-3.63v-.01z" fill="#0668e1"/><path d="M29.98 10.23c7.29-.01 13.35 5.81 13.73 13.2a8.7 8.7 0 0 1 .02.77c-.03.79-.43 1.29-1.2 1.32s-1.19-.46-1.28-1.24c-.1-.86-.11-1.72-.3-2.56-1.25-5.63-6.43-9.45-12.02-8.89-5.58.56-9.92 5.22-10.18 10.95-.01.22.01.45-.03.67-.14.68-.55 1.1-1.23 1.09-.71-.02-1.22-.45-1.21-1.19a15.8 15.8 0 0 1 .28-3.04c1.36-6.47 6.94-11.04 13.41-11.05zm-.03 20.38a3.8 3.8 0 0 1-3.67-4.19 3.8 3.8 0 0 1 4.3-3.42c.35.05.85-.13 1.09-.39l3.42-3.81c.69-.77 1.36-.89 1.95-.37.63.54.61 1.27-.1 2.08l-3.22 3.61c-.38.41-.5.71-.26 1.31 1 2.52-.85 5.2-3.52 5.17l.01.01z" fill="#fff"/></svg>