<svg xmlns="http://www.w3.org/2000/svg" width="60" height="60" fill="none" xmlns:v="https://vecta.io/nano"><path d="M30.01 51.58h-3.78c-1.72-.02-2.76-.91-3.07-2.62-.84-4.62-2.98-8.54-6.09-12.01-9.15-10.18-4.13-26.05 9.15-29.03a17.5 17.5 0 0 1 20.83 12.95 16.8 16.8 0 0 1-4.33 16.31 23.3 23.3 0 0 0-5.89 11.84c-.31 1.6-1.35 2.53-2.98 2.55H30h.01zm4.23-23.12c-.04-.05-.08-.11-.12-.16a4.2 4.2 0 0 0 .71-3.2c-.12-.59-.47-.96-1.1-.83-.61.13-.88.58-.72 1.17.3 1.13-.59 2.38-1.85 2.46a4.3 4.3 0 0 0-.95.16c-2.03.61-3.06 1.67-3.03 3.81l.02 16.95v.79h1.87v-3.79l.02-14.1c0-.39.07-.92.33-1.15a2.6 2.6 0 0 1 2.77-.61c.74.26 1.65.46 2.38.26 1.32-.35 2.65-.46 3.99-.64 2.51-.33 4.14-1.94 4.72-4.43.57-2.44-.26-4.46-2.17-6.05-.24-.2-.46-.51-.56-.81-.56-1.68-1.99-2.77-3.77-2.88-.25-.01-.56-.16-.71-.35-1.32-1.62-3.04-2.09-4.96-1.33-.19.07-.47.07-.65-.02a4 4 0 0 0-4.87.55c-.16.14-.43.23-.63.22-1.77-.15-3.3.71-4.14 2.31-.14.28-.41.54-.69.68a4.2 4.2 0 0 0-2.37 4.35c.07.52-.07.83-.34 1.19a4.2 4.2 0 0 0-.05 4.96 5.5 5.5 0 0 1 .52 1.06 5.7 5.7 0 0 0 3.6 3.79c.68.23 1.28-.03 1.39-.58.14-.65-.2-1.01-.81-1.21-1.4-.45-2.12-1.54-2.5-2.92-.08-.3-.18-.63-.37-.86-.94-1.13-1-2.42-.11-3.37.85-.91 1.71-.85 2.99.05.28.19.87.16 1.19-.01.43-.23.45-.75.15-1.18-.15-.22-.35-.42-.56-.59a3.7 3.7 0 0 0-3.25-.74c0-1.25.59-2.09 1.68-2.36.53-.13.88-.35 1.04-.92.32-1.17 1.17-1.85 2.15-1.79.99.05 1.58.71 1.81 2.01.1.55.4.87.95.83.59-.04.88-.4.86-1-.01-.29-.02-.61-.13-.88-.25-.63-.57-1.23-.87-1.85.87-.63 1.54-.65 2.35-.08-.11.5-.27.98-.32 1.46-.08.79.22 1.22.79 1.28.56.06.9-.3 1.01-1.09.12-.84.54-1.48 1.35-1.71.82-.24 1.69-.05 2.1.71.57 1.04 1.18 1.51 2.43 1.28.87-.16 1.88.88 1.95 1.63.06.67-.56 1.34-1.55 1.66-.66.22-.97.67-.8 1.21.16.53.68.75 1.33.6 1.01-.23 1.77-.85 2.37-1.67a4 4 0 0 1 1.06 4.88c-.82 1.68-2.57 2.46-4.41 2.06-.4-.08-.87.1-1.29.23s-.81.35-1.22.54v.02zM32.8 49.63l-.01-2.69c-.02-.57-.34-.97-.9-1s-.94.35-.97.92c-.05.91-.01 1.82-.01 2.78h1.88v-.01zM27.78 60c-.31-.37-.75-.67-.49-1.27.27-.61.77-.6 1.3-.59h2.8c.53 0 1.04-.01 1.3.6.27.61-.18.91-.48 1.27h-4.45zm2.27-7.5h4.37c.63 0 1.07.23 1.11.91.04.59-.33.95-1.06.95h-8.95c-.71 0-1.11-.39-1.05-.97.07-.67.5-.91 1.14-.9h4.44zm-.06 4.67h-3.55c-.61 0-1-.25-1.04-.89-.04-.59.35-.94 1.06-.94h7.1c.61 0 1 .25 1.04.89.04.59-.36.94-1.06.94h-3.55z" fill="#0668e1"/><path d="M34.25 28.46l1.22-.54c.41-.13.9-.32 1.29-.23 1.84.4 3.59-.38 4.41-2.06a4 4 0 0 0-1.06-4.88c-.6.82-1.36 1.43-2.37 1.67-.65.15-1.17-.07-1.33-.6-.17-.54.14-1 .8-1.21.98-.32 1.61-.98 1.55-1.66-.07-.76-1.07-1.79-1.95-1.63-1.26.23-1.86-.23-2.43-1.28-.41-.76-1.28-.94-2.1-.71-.81.23-1.23.87-1.35 1.71-.11.79-.46 1.16-1.01 1.09-.57-.07-.87-.5-.79-1.28.05-.49.21-.97.32-1.46-.81-.58-1.49-.55-2.35.08l.87 1.85c.11.26.12.58.13.88.02.59-.27.97-.86 1-.55.03-.85-.29-.95-.83-.23-1.31-.82-1.96-1.81-2.01s-1.84.62-2.15 1.79c-.15.56-.51.79-1.04.92-1.09.27-1.68 1.11-1.68 2.36a3.7 3.7 0 0 1 3.25.74c.21.17.41.37.56.59.3.43.27.95-.15 1.18-.31.17-.91.2-1.19.01-1.29-.9-2.14-.95-2.99-.05-.89.95-.83 2.23.11 3.37.19.23.28.56.37.86.39 1.37 1.09 2.46 2.5 2.92.62.2.94.55.81 1.21-.11.55-.72.82-1.39.58a5.7 5.7 0 0 1-3.6-3.79c-.13-.37-.3-.74-.52-1.06a4.2 4.2 0 0 1 .05-4.96c.27-.37.41-.68.34-1.19-.25-1.86.71-3.51 2.37-4.35.28-.14.55-.4.69-.68.84-1.61 2.37-2.47 4.14-2.31.21.02.47-.08.63-.22 1.51-1.28 3.08-1.45 4.87-.55.18.09.46.1.65.02 1.92-.76 3.65-.29 4.96 1.33.15.19.47.34.71.35 1.78.11 3.21 1.19 3.77 2.88.1.3.32.61.56.81 1.91 1.59 2.74 3.61 2.17 6.05-.58 2.49-2.21 4.1-4.72 4.43-1.34.17-2.67.28-3.99.64-.72.19-1.63 0-2.38-.26a2.6 2.6 0 0 0-2.77.61c-.25.22-.32.76-.33 1.15l-.02 14.1v3.79H27.2v-.79l-.02-16.95c-.02-2.14 1.01-3.2 3.03-3.81a4.3 4.3 0 0 1 .95-.16c1.26-.08 2.15-1.33 1.85-2.46-.16-.59.12-1.05.72-1.17.63-.13.98.25 1.1.83.23 1.16-.06 2.21-.71 3.2l.12.16v-.02zM32.8 49.63h-1.89l.01-2.78c.03-.56.4-.94.97-.92.56.03.88.43.9 1l.01 2.69h0z" fill="#fff"/><path d="M30.3 0c.46.28.64.68.62 1.24l-.01 3.29c.01.62-.25 1.01-.88 1.07-.55.05-.94-.39-.94-1.07l-.01-3.29c-.02-.56.15-.97.62-1.24h.59zm17.78 8.06c-.21.32-.33.6-.53.8l-2.35 2.39c-.53.52-1 .56-1.42.14-.41-.41-.39-.93.11-1.45l2.48-2.47c.24-.22.74-.28 1.07-.19.25.07.41.47.65.78zM40.19 2.6l-.18.7-1.29 3.17c-.27.64-.79.91-1.28.65-.57-.31-.68-.79-.43-1.39l1.36-3.22c.15-.31.69-.59 1.03-.58.29.01.56.46.79.67l.01.01zM22 7.19c-.14-.13-.5-.32-.63-.61l-1.39-3.36c-.2-.54-.11-1.05.5-1.29.57-.22.97.07 1.19.56l1.37 3.37c.25.67-.18 1.33-1.04 1.32h0zm-9.93 1.04c0-.89.81-1.38 1.36-.89 1.02.89 1.96 1.9 2.89 2.89.33.35.28.86-.12 1.12-.28.17-.7.15-1.06.14-.14 0-.29-.18-.41-.3l-2.3-2.33c-.19-.2-.3-.49-.37-.61h0zM7.7 26.25H6c-.62-.01-1-.35-1.01-.95 0-.57.39-.91.96-.92h3.61c.61.01 1 .37.97.98-.03.55-.41.88-1 .89H7.7zm3.64-7.84l-.73-.23-3.06-1.27c-.62-.26-.88-.79-.63-1.3.27-.55.74-.69 1.3-.45l3.25 1.37c.49.21.76.64.56 1.14-.12.31-.49.53-.71.74h.01zm41.82-2.2c-.12.13-.3.49-.59.62l-3.32 1.42c-.55.22-1.06.07-1.27-.52-.2-.55.04-.98.57-1.21l3.33-1.38c.68-.26 1.28.16 1.28 1.07v-.01zm-.88 8.17h1.77c.59.01.95.35.95.92 0 .56-.36.93-.94.94h-3.69c-.55-.01-.89-.37-.91-.89-.02-.57.31-.94.91-.95h1.91z" fill="#0668e1"/></svg>