<svg xmlns="http://www.w3.org/2000/svg" width="40" height="40" fill="none" xmlns:v="https://vecta.io/nano"><path d="M5 31.67h30V35H5v-3.33zm5-5c1.83 0 3.33-1.5 3.33-3.33 0-.83-.33-1.67-.83-2.17l2.17-4.5H15c.83 0 1.67-.33 2.17-.83l4.5 2.33v.17c0 1.83 1.5 3.33 3.33 3.33s3.33-1.5 3.33-3.33c0-.83-.33-1.5-.83-2.17l2.17-4.5H30c1.83 0 3.33-1.5 3.33-3.33S31.83 5 30 5s-3.33 1.5-3.33 3.33c0 .83.33 1.67.83 2.17L25.33 15H25c-.83 0-1.67.33-2.17.83l-4.5-2.17v-.33c0-1.83-1.5-3.33-3.33-3.33s-3.33 1.5-3.33 3.33c0 .83.33 1.67.83 2.17L10.33 20H10c-1.83 0-3.33 1.5-3.33 3.33s1.5 3.33 3.33 3.33z" fill="#1b1c17"/></svg>