<svg xmlns="http://www.w3.org/2000/svg" width="40" height="40" fill="none" xmlns:v="https://vecta.io/nano"><path d="M19.91 38c-1.74-.02-3.35-.21-4.9-.72C7.77 34.9 3.51 29.93 2.22 22.43c-.33-1.93-.3-1.93 1.37-3l3.16-2.03c.26-.17.45-.19.72-.01l4.37 2.83c.15.1.32.31.34.48a7.9 7.9 0 0 0 7.49 7.19c.05 0 .09.03.19.06l-1.94 3.04c-.34.53-.66 1.06-1.02 1.57-.2.28-.18.49.01.77l3 4.66h0zm-5.56-8.3c-.42-.19-.57-.71-1.1-.36-.09.06-.76-.45-.72-.58.16-.61-.34-.65-.64-.96-.3.94-.61 1.81-.85 2.69-.04.14.21.4.38.54.12.1.38.17.49.11.79-.44 1.56-.92 2.44-1.44h0zM9.9 27c.09.01.13.02.16.01.36-.14.6.01.72.34.11.31-.26.77-.73.93-.32.12-.56 0-.71-.29-.02-.05-.05-.11-.04-.15.2-.5-.2-.63-.5-.83-.41.67-.27 1.32.39 1.85.58.47 1.24.4 1.88-.19.59-.54.65-1.19.18-1.87-.44-.63-.92-.78-1.58-.46l.23.66h0zm-.16-2.69l-1.91.86-.43-.77-.61.29 1.13 2.42.61-.31-.33-.8 1.91-.91-.37-.78z" fill="#1b1c17"/><path d="M14.35 29.7l-2.44 1.44c-.11.06-.37-.01-.49-.11-.17-.14-.41-.4-.38-.54l.85-2.69c.3.31.8.35.64.96-.03.13.63.64.72.58.53-.35.68.17 1.1.36h0zm-2.46.52l.07.08.7-.5-.48-.35-.3.76h0z" fill="#fff"/><path d="M11.89 30.21l.3-.76.48.35-.7.5-.07-.08h0z" fill="#1b1c17"/><g fill="#fff"><path d="M9.9 27l-.23-.66c.66-.32 1.15-.18 1.58.46.47.68.41 1.33-.18 1.87-.64.59-1.3.65-1.88.19-.65-.53-.79-1.18-.39-1.85.3.2.69.33.5.83-.02.04.01.11.04.15.16.29.39.41.71.29.47-.17.84-.62.73-.93-.12-.33-.36-.48-.72-.34-.03.01-.07 0-.16-.01h0z"/><path d="M9.74 24.31l.37.78L8.2 26l.33.8-.61.31-1.13-2.42.61-.29.43.77 1.91-.86z"/></g><path d="M20.17 12.14l2.42-3.73c.67-.9.77-1.59.03-2.51-.8-1-1.42-2.15-2.11-3.24l-.29-.49.05-.17 3.52.49a18 18 0 0 1 14.19 16.55c.03.45-.08.71-.48.95a168.7 168.7 0 0 0-4.2 2.7c-.27.18-.45.17-.72 0l-4.37-2.83c-.2-.14-.34-.48-.38-.74-.49-3.41-2.82-5.98-6.14-6.74-.47-.11-.95-.15-1.52-.23zm6.64-.98l1.25 1.12c.56.41 1.13.26 1.69-.37.54-.6.61-1.17.19-1.68l-.91-1.05-2.22 1.98zm3.82 3.86c.8.01 1.62-.69 1.64-1.4.02-.8-.72-1.64-1.46-1.64-.79 0-1.6.72-1.61 1.44-.01.79.71 1.59 1.43 1.6z" fill="#1b1c17"/><path d="M26.81 11.16l2.22-1.98.91 1.05c.42.52.35 1.09-.19 1.68-.57.63-1.14.78-1.69.37-.43-.32-.8-.71-1.25-1.12zm2.21-.89l-1.07.99c.44.52.65.54 1.07.13.47-.46.47-.7 0-1.12zm1.61 4.75c-.72-.01-1.44-.82-1.43-1.6.01-.71.82-1.44 1.61-1.44.74 0 1.49.83 1.46 1.64-.02.72-.83 1.41-1.64 1.4zm.49-2.2c-.57-.01-1.23.48-1.15.76.07.24.32.54.55.59.4.09 1.04-.47.96-.81-.06-.23-.27-.42-.36-.54z" fill="#fff"/><path d="M29.02 10.27c.47.42.47.66 0 1.12-.42.41-.62.39-1.07-.13l1.07-.99zm2.1 2.55c.08.12.3.31.36.54.08.33-.55.9-.96.81-.22-.05-.48-.35-.55-.59-.08-.29.58-.77 1.15-.76zm-18.98 7.09l-3.53-2.26c-.5-.31-1-.84-1.51-.84-.48-.01-.97.53-1.46.84l-3.47 2.22-.17-.05.44-3.36A18 18 0 0 1 18.83 2.1c.57-.04.93.07 1.25.61l2.54 3.98c.2.3.24.53.02.86l-2.77 4.28c-.1.16-.29.33-.47.36-4.42.76-6.74 3.19-7.26 7.71h0zm.39-8.22l.7-.49-.11-.08c.1-.2.16-.43.31-.59.26-.27.58-.43.9-.05l.75-.53-2.49-1.75c-.23.3-.83.26-.71.81.2.9.45 1.8.67 2.69l-.57-.4-.9.97-1.6-1.4-.58.66 2.13 1.89 1.5-1.74zm5.3-2.7l-.87-2.65-.77.28.43 1.42c-.4-.3-.73-.48-.98-.75-.41-.43-.8-.32-1.25-.06l.87 2.65.78-.26-.45-1.43c.39.3.72.49.97.76.41.42.8.35 1.26.04h0zM7.36 14.03l2.46 1.43.43-.76-.45-.28-.41-.27c.12-.24.24-.45.33-.68.18-.47.01-.88-.44-1.12-.43-.22-.83-.13-1.11.31-.28.43-.52.88-.81 1.38h0z" fill="#1b1c17"/><path d="M17.84 8.98c-.46.31-.85.38-1.26-.04-.25-.26-.58-.45-.97-.76l.45 1.43-.78.26-.87-2.65c.46-.26.84-.37 1.25.06.25.26.58.45.98.75l-.43-1.42.77-.28.87 2.65h0zm-5.29 2.73l-.68-2.7c-.12-.55.48-.51.71-.81l2.49 1.75-.75.53c-.32-.38-.64-.22-.9.05-.15.15-.21.39-.31.59l.11.08-.7.49.01.02h0zm.37-1.61l.48-.34-.64-.54-.08.06.25.82zm-5.56 3.93l.81-1.37c.28-.44.68-.53 1.11-.31.45.23.62.65.44 1.12-.09.23-.21.44-.33.68l.41.27.45.28-.43.76-2.46-1.43h0zm1.55-.15c.04-.26.09-.44.09-.63 0-.05-.2-.16-.24-.14-.16.1-.3.24-.48.4l.64.37z" fill="#fff"/><path d="M8.91 13.89l-.64-.37c.19-.16.32-.3.48-.4.04-.02.24.09.24.14 0 .19-.05.37-.09.63zm4.01-3.79l-.25-.82.08-.06.64.54-.48.34z" fill="#1b1c17"/><path d="M12.54 11.69l-1.5 1.74-2.13-1.89.58-.66 1.6 1.4.9-.97.57.4z" fill="#fff"/><path d="M27.94 20.19l2.76 1.77 1.85 1.2c.28.19.49.17.77-.01l4.2-2.7.48-.29-.15 2.08c-1.07 8.6-8.12 15.21-16.77 15.76-.48.03-.77-.08-1.04-.51a131 131 0 0 0-2.63-4.12c-.2-.3-.21-.51-.01-.81l2.77-4.28c.12-.18.36-.36.56-.38a7.9 7.9 0 0 0 7.14-7.49c0-.05.03-.09.06-.2h0zM23.89 32.4l.33.97.65-.2-.78-2.73-.63.2v1.21c-.55-.43-.75-1.37-1.62-.68.11.13.21.28.34.4.7.59 1.07 1.25.47 2.13-.01.01.03.05.03.06.88.09.95-.61 1.2-1.35zm5.73-4.71l-.48.54-.88-.71-.45.54 2.17 1.83.44-.54-.72-.65.47-.55.76.61.45-.53-2.16-1.83-.45.54.85.76h0zm-1.4 2.33c.08.1.21.24.2.25-.24.29-.5.56-.79.87l.37.42 1.45-1.2-1.79-2.2-1.49 1.21.42.48.94-.73.31.42-.81.69.36.44.84-.66h0zm2.77-2.92c.66.3 1.05.15 1.32-.32.26-.46.24-.97-.19-1.31-.37-.29-.81-.52-1.26-.65-.52-.15-.97.15-1.19.67-.21.48-.07.86.46 1.24l.43-.37c-.05-.07-.07-.12-.11-.16-.2-.22-.26-.44 0-.64.23-.18.95.06 1.17.43.09.14.02.38.01.57 0 .03-.09.04-.13.08l-.51.47h0zm-5.78 4.08c.02-.36-.07-.75.43-.74.3.01.8.82.7 1.16-.14.51-.5.3-.79.17l-.38.42c.37.43.77.55 1.26.32.48-.23.75-.64.6-1.18a3.5 3.5 0 0 0-.62-1.22c-.37-.46-.9-.49-1.4-.18-.46.28-.55.62-.36 1.28l.56-.03h0z" fill="#1b1c17"/><g fill="#fff"><path d="M23.89 32.41c-.25.74-.32 1.44-1.2 1.35 0-.01-.04-.05-.03-.06.6-.88.23-1.54-.47-2.13-.13-.11-.23-.26-.34-.4.87-.69 1.07.25 1.62.68v-1.21l.63-.2.78 2.73-.65.2-.33-.97zm5.74-4.72l-.85-.76.45-.54 2.16 1.83-.45.53-.76-.61-.47.55.72.65-.44.54-2.17-1.83.45-.54.88.71.48-.54h0zm-1.41 2.34l-.84.66-.36-.44.81-.69-.31-.42-.94.73-.42-.48 1.49-1.21 1.79 2.2-1.45 1.2-.37-.42.79-.87c.01-.01-.12-.15-.2-.25h0z"/><path d="M30.99 27.11l.51-.47c.04-.03.13-.05.13-.08.01-.19.08-.43-.01-.57-.23-.37-.95-.61-1.17-.43-.26.2-.2.43 0 .64.04.04.06.09.11.16l-.43.37c-.53-.38-.66-.76-.46-1.24.22-.52.67-.83 1.19-.67.45.13.89.36 1.26.65.43.34.45.85.19 1.31-.27.47-.66.62-1.32.32h0zm-5.78 4.08l-.56.03c-.2-.67-.1-1 .36-1.28.5-.31 1.03-.29 1.4.18.28.35.5.78.62 1.22.15.54-.12.95-.6 1.18-.49.23-.89.12-1.26-.32l.38-.41c.3.13.65.34.79-.17.09-.34-.4-1.15-.7-1.16-.5-.01-.41.38-.43.74h0z"/></g></svg>