<svg xmlns="http://www.w3.org/2000/svg" width="40" height="40" fill="#fff" xmlns:v="https://vecta.io/nano"><path d="M3.31 28.5l-.28.18c-.34.21-.66.07-.71-.32l-.17-1.5c-.04-.45.24-.64.65-.47l1.25.54c.5.22.55.5.15.88-.02.02-.04.05-.08.11.57.7 1.31 1.13 2.17 1.37a4.5 4.5 0 0 0 5.6-3.46c.52-2.54-1.2-4.99-3.77-5.38-2.53-.38-4.93 1.54-5.12 4.1l-.04.43c-.04.3-.23.44-.52.43-.29-.02-.45-.2-.43-.47.04-.51.07-1.03.2-1.52a5.5 5.5 0 0 1 5.74-3.97c2.36.17 4.48 2.06 4.93 4.5.43 2.3-.69 4.68-2.74 5.81-2.11 1.17-4.67.84-6.43-.82-.14-.13-.26-.28-.39-.42h0zm4.26-15.81l-.32.53-3.29 5.77-.13.22c-.15.21-.35.3-.58.16s-.27-.35-.14-.59l.82-1.44 3.19-5.57c.09-.16.31-.36.46-.36s.37.2.46.36l3.75 6.91c.14.26.19.5-.1.69-.24.15-.46.05-.65-.29l-3.19-5.9-.27-.48h0zm-.95 12.26c0-.5.35-.93.84-.87.67.09 1.19-.24 1.76-.47l.65-.3c.19-.07.41-.11.53.12.12.24-.05.37-.23.49l-1.12.71c-.32.21-.62.42-.79.8-.17.37-.6.5-.98.39-.43-.12-.66-.43-.66-.86h0zm4.73-16.77h6.16c.23 0 .41-.04.53-.27.08-.15.21-.31.36-.4.32-.2.39-.48.39-.82l.03-1.65V4.9c.04-.45.39-.86.75-.9s.78.29.85.77c.06.39.04.79.05 1.18l.01.5c.02.45.14.81.48 1.19.41.46.81.54 1.35.54h11.68a2.1 2.1 0 0 1 .67.1c.34.12.49.45.43.85-.05.32-.3.57-.64.58l-2.5.03h-2.36-2l-2.32.01H23.4l-1.75-.02c-.05 0-.1.01-.14.02-.2.06-.84.96-.83 1.17l.21 4.45.09 2.84.29 7.21.13 3.41c.01.34.11.56.44.73 1.37.73 2.14 1.89 2.33 3.44.04.33-.16.29-.35.29h-5.19c-1.06 0-2.13-.01-3.19 0-.32 0-.39-.12-.34-.41a4.4 4.4 0 0 1 2.43-3.39c.19-.1.28-.21.29-.43l.13-2.62.2-4.73.08-2.33.23-5.38.13-2.97c.01-.26-.04-.47-.25-.63a.3.3 0 0 1-.12-.13c-.25-.57-.73-.55-1.23-.54l-3.93.01-3.75.03c-1.1 0-2.19-.02-3.29-.03l-.93.03c-.48.02-.84-.23-.9-.64-.07-.47.18-.81.69-.92.12-.02.24-.03.36-.03h6.12 0zm7.24.78c-.01.62.42 1.08 1.02 1.09s1.05-.42 1.06-1.01c.01-.66-.43-1.13-1.06-1.13-.58 0-1.02.45-1.03 1.05zM27.14 36H12.11l.56-1.33c.04-.09.27-.11.42-.11H19l7.09-.01c.34 0 .56.07.67.42.1.33.25.64.4 1.03h0z"/><path d="M18.59 8.96c.01-.6.45-1.05 1.03-1.05.63 0 1.07.47 1.06 1.13-.01.58-.46 1.02-1.06 1.01s-1.03-.46-1.02-1.09zM38 24.89c-.01 3.04-2.49 5.53-5.53 5.53s-5.53-2.51-5.52-5.54c.01-3.1 2.5-5.59 5.57-5.57 3.03.02 5.49 2.52 5.48 5.57zm-1.07.02c.03-2.46-1.92-4.47-4.39-4.51a4.5 4.5 0 0 0-4.52 4.43 4.5 4.5 0 0 0 4.4 4.52 4.5 4.5 0 0 0 4.51-4.44zm-4.37-11.9l-1.1 1.92-2.51 4.4c-.05.09-.09.23-.17.26-.16.06-.39.14-.51.07-.11-.07-.19-.32-.17-.48.02-.18.16-.34.25-.51l3.76-6.57c.1-.17.32-.39.48-.39s.37.23.47.4l3.59 6.63.17.32c.13.25.12.48-.14.62-.25.13-.46.04-.6-.21l-.79-1.45-2.56-4.74c-.04-.08-.1-.16-.17-.27h0zm1.12 10.78c-.25.06-.41-.05-.5-.35-.1-.33-.38-.45-.71-.43a.6.6 0 0 0-.6.52c-.07.33.03.6.33.76l1.15.57c.75.38.8.73.78 1.5-.02.52-.44.89-1.08 1.03-.23.05-.3.17-.32.4-.01.11-.12.21-.18.32-.08-.11-.21-.21-.22-.33-.03-.25-.14-.34-.37-.4-.43-.12-.84-.31-1.04-.75-.09-.19-.23-.45.04-.6s.67.01.77.28c.16.41.7.6 1.15.42.35-.15.52-.59.31-.94-.09-.16-.27-.3-.44-.39-.32-.18-.67-.31-1-.48-.59-.29-.82-.71-.77-1.36.03-.51.4-.96.96-1.12.29-.08.47-.19.46-.52 0-.09.14-.18.22-.27.06.1.16.19.16.29-.01.28.09.43.38.5.46.12.77.43.91.89.13.42.1.47-.39.47h0z"/></svg>