<svg xmlns="http://www.w3.org/2000/svg" width="60" height="60" fill="#0668e1" xmlns:v="https://vecta.io/nano"><path d="M24.77 40.07l.81-4.22a1 1 0 0 0-.34-1.09l-2.87-2.73c-.2-.21-.42-.62-.35-.84.07-.23.48-.43.77-.48l3.91-.5c.48-.05.73-.25.91-.68L29.26 26c.14-.28.48-.65.73-.64s.58.38.72.67l1.61 3.46c.2.46.45.68.96.73l3.76.49c.33.06.76.26.91.53.09.18-.2.65-.43.88l-2.76 2.62c-.37.34-.48.65-.37 1.15l.74 3.91c.04.27-.02.71-.2.81-.22.13-.64.1-.9-.03l-3.39-1.88c-.49-.3-.86-.26-1.33.02l-3.45 1.92c-.6.32-1.08.04-1.08-.57h.01zm13.01-12.48c-1.08 0-2.17-.03-3.25.01-.53.03-.79-.18-.98-.65l-1.02-2.2c-.53-1.08-1.39-1.66-2.59-1.66a2.7 2.7 0 0 0-2.52 1.64l-1.12 2.31c-.14.25-.52.49-.8.5l-6.66.02c-.96 0-1.37-.37-1.33-1.31.07-1.68 0-3.41.39-5.03 1.1-4.62 5.29-7.89 10-7.96 1.8-.03 3.63-.08 5.41.14 4.84.59 8.69 4.74 9.06 9.65a35.9 35.9 0 0 1 .04 3.28c-.01.86-.39 1.23-1.25 1.24h-3.41v.01zM36.03 6.14c-.01 3.37-2.73 6.1-6.08 6.08a6.1 6.1 0 0 1-6.03-6.14A6.1 6.1 0 0 1 30 0a6.1 6.1 0 0 1 6.03 6.14zM25.76 53.13c-3.5 0-6.96.01-10.41-.02-.17 0-.44-.25-.5-.44-.49-1.48-1.4-2.65-2.49-3.72-4.73-4.62-4.13-3.9-6.35-9.84L2 28.29a31.9 31.9 0 0 1-.95-3.21c-.27-1.12.79-2.18 1.88-1.83a3.8 3.8 0 0 1 1.69 1.13 15.6 15.6 0 0 1 1.66 2.71c1.05 2.06 2.04 4.15 3.03 6.24.11.22.17.58.06.76a3.6 3.6 0 0 0-.05 3.8c.63 1.18 1.38 2.33 2.25 3.34 1.21 1.38 2.58 2.61 3.89 3.91.42.42.91.57 1.36.11.49-.51.25-.98-.19-1.42-1.26-1.23-2.57-2.42-3.73-3.74-.79-.9-1.46-1.96-2.02-3.03a1.6 1.6 0 0 1 .38-2.25c.68-.63 1.48-.75 2.36-.25a9.2 9.2 0 0 1 1.54 1.18c2 1.76 3.89 3.68 6 5.29 3.01 2.28 4.35 5.32 4.61 8.98.07 1.01.01 2.02.01 3.13h-.01zm-5.31 6.86h-5.03c-1.62-.01-2.36-.83-2.36-2.58 0-1.69.76-2.51 2.35-2.51h10.3c1.57 0 2.32.84 2.32 2.55s-.74 2.55-2.31 2.56h-5.26V60zm13.66-6.86c-.03-4.6.48-8.81 4.4-11.85 2.27-1.76 4.31-3.8 6.47-5.7a7.7 7.7 0 0 1 1.51-1.08c.86-.44 1.61-.26 2.28.35.68.63.77 1.4.36 2.13a18.5 18.5 0 0 1-2.05 3.1c-1.16 1.33-2.5 2.48-3.71 3.76-.25.27-.43.79-.37 1.14.11.57.85.74 1.32.31 2.24-2.05 4.54-4.04 6.04-6.76.8-1.44 1.2-2.95.2-4.5-.09-.14-.03-.44.06-.63L54 26.48c.55-1.03 1.31-1.98 2.14-2.82.66-.67 1.51-.64 2.13-.19.57.41.89.94.64 1.68-.54 1.66-1.04 3.33-1.63 4.96l-4.46 12.07c-.63 1.72-1.56 3.22-2.88 4.48-1.01.97-2.07 1.91-2.95 2.98-.73.89-1.22 1.96-1.85 2.94-.14.22-.4.52-.6.52l-10.43.03h0zm5.32 1.76h5.11c1.62.01 2.36.83 2.36 2.58 0 1.69-.76 2.51-2.35 2.52h-10.3c-1.57 0-2.32-.84-2.32-2.55s.74-2.55 2.31-2.56h5.19-.01z"/></svg>