<svg xmlns="http://www.w3.org/2000/svg" width="40" height="40" fill="none" xmlns:v="https://vecta.io/nano"><path d="M29.43 18.67c-.38-.5-.85-.93-1.28-1.37-1.12-1-2.38-1.72-3.45-2.77A8.3 8.3 0 0 1 23.25 5c-1.58.38-2.97 1.25-4.15 2.2-4.32 3.47-6.02 9.58-3.98 14.83.07.17.13.33.13.55 0 .37-.25.7-.58.83-.38.17-.78.07-1.1-.2a1 1 0 0 1-.23-.28c-1.88-2.38-2.18-5.8-.92-8.53-2.78 2.27-4.3 6.1-4.08 9.72.1.83.2 1.67.48 2.5A11.2 11.2 0 0 0 10 29.5c1.8 2.88 4.92 4.95 8.27 5.37 3.57.45 7.38-.2 10.12-2.67 3.05-2.77 4.12-7.2 2.55-11l-.22-.43c-.35-.77-1.28-2.1-1.28-2.1zm-5.27 10.5c-.47.4-1.23.83-1.83 1-1.87.67-3.73-.27-4.83-1.37 1.98-.47 3.17-1.93 3.52-3.42.28-1.33-.25-2.43-.47-3.72-.2-1.23-.17-2.28.28-3.43A10.1 10.1 0 0 0 21.88 20c1.28 1.67 3.3 2.4 3.73 4.67.07.23.1.47.1.72a5.1 5.1 0 0 1-1.55 3.78z" fill="#fff"/></svg>