<svg xmlns="http://www.w3.org/2000/svg" width="40" height="40" fill="#fff" xmlns:v="https://vecta.io/nano"><path d="M23.6 38c-.65 0-1.2-.45-1.32-1.08l-.19-1.11-.39-2.31-.37-2.22-.43-2.54-.32-1.89c-.02-.13-.06-.25-.15-.34-.16-.17-.36-.25-.59-.18s-.39.22-.43.46l-.14.8-.4 2.36-.42 2.54-.38 2.25-.35 2.12c-.12.73-.74 1.22-1.49 1.15s-1.3-.79-1.17-1.52l.4-2.38.57-3.37.48-2.9a31.9 31.9 0 0 0 .35-4.36 14.6 14.6 0 0 0-.22-2.76 14.1 14.1 0 0 0-1.25-3.77l-1.62-3.29-.79-1.62c-.26-.54.03-1.15.6-1.3.4-.11.84.07 1.05.44.16.28.29.57.43.86l1.95 3.95a3.3 3.3 0 0 0 3.33 1.84c1.24-.13 2.15-.76 2.71-1.86l2.06-4.18.28-.56c.19-.36.54-.56.94-.51a.9.9 0 0 1 .8.66c.07.23.05.46-.06.67l-1.37 2.78-1.33 2.74a12 12 0 0 0-.77 2.23c-.2.81-.34 1.63-.38 2.46l-.02 1.83c.02 1.17.12 2.33.28 3.49l.31 1.92.64 3.81.53 3.18c.13.8-.51 1.52-1.33 1.52h0zM20 16.96c-1.31-.01-2.36-1.05-2.35-2.33s1.08-2.31 2.38-2.3c1.29.01 2.33 1.06 2.33 2.34-.01 1.26-1.07 2.3-2.35 2.29h0zm8.64-5.8c-.32 0-.56-.16-.65-.4-.1-.26-.04-.53.16-.71.04-.04.09-.07.14-.1l2.62-1.48c.28-.16.58-.11.8.11.27.27.25.7-.05.94-.1.08-.22.14-.33.2l-2.37 1.35c-.11.06-.23.11-.31.1h0zM8.78 22.43c-.29 0-.53-.17-.62-.41-.1-.25-.04-.52.16-.7.05-.05.11-.09.18-.12l2.5-1.44c.23-.13.46-.18.7-.05.39.2.48.71.16 1.02a1.2 1.2 0 0 1-.26.18l-2.43 1.38c-.13.08-.27.14-.4.13h0zm23.11-.64c0 .46-.5.78-.93.58-.14-.07-.27-.15-.41-.23l-2.24-1.27c-.16-.09-.28-.21-.33-.38-.09-.27-.02-.5.19-.69.19-.17.48-.21.72-.09l.63.35 2.01 1.14c.23.13.36.32.37.59h0zM11.36 11.16c-.09 0-.21-.05-.33-.11l-2.1-1.19-.49-.28c-.21-.12-.32-.3-.33-.54-.02-.44.43-.76.85-.63.07.02.14.06.21.1l2.52 1.43c.15.09.27.2.33.36.16.42-.15.86-.66.87h0zm7.98-7.03V2.69c0-.14.03-.26.1-.38.15-.25.45-.36.74-.29.25.06.45.32.47.58v.08 2.91c0 .22-.07.4-.24.54-.2.17-.44.2-.68.1-.25-.1-.38-.3-.4-.57-.01-.1 0-.2 0-.3V4.13zm6.06 19.78c.22.01.41.11.54.32l.43.73.28.49c.2.39-.02.83-.45.92-.24.05-.44-.03-.61-.2-.02-.02-.04-.04-.05-.06l-.75-1.29c-.22-.42.12-.92.62-.92h0zm-12.14 1.81c.02-.08.04-.18.09-.26l.73-1.24c.27-.42.87-.39 1.11.03.12.21.12.43 0 .63l-.71 1.2c-.14.23-.36.34-.64.31-.27-.03-.45-.19-.54-.44-.02-.07-.03-.14-.04-.23h0zM26.75 5.07c-.03.1-.05.21-.11.31l-.71 1.2c-.23.36-.69.42-1 .14-.22-.2-.28-.52-.13-.79l.71-1.2c.16-.26.46-.37.74-.29.29.09.48.33.5.63h0zm4.7 9.69h.72c.28.01.52.2.6.45.11.39-.14.77-.55.83-.03 0-.07.01-.1.01h-1.34c-.1 0-.21-.03-.31-.07-.27-.11-.42-.4-.37-.68.05-.3.29-.52.59-.54h.76 0zM13.9 4.41c.25.01.43.1.56.28l.2.33.52.89c.25.44 0 .93-.51.98-.27.03-.48-.1-.62-.32l-.45-.76-.25-.43c-.2-.38-.03-.81.38-.94.06-.02.13-.02.17-.03zM8.54 16.05h-.7c-.33-.01-.57-.22-.63-.52-.07-.36.19-.72.57-.76l.1-.01h1.36c.31 0 .54.17.63.45.12.37-.12.76-.51.82a1.4 1.4 0 0 1-.22.01h-.6z"/></svg>