<svg xmlns="http://www.w3.org/2000/svg" width="60" height="60" fill="none" xmlns:v="https://vecta.io/nano"><path d="M46.54 19.23a6 6 0 0 1-1.23 3.81 5.8 5.8 0 0 1-2.29 1.8c-1.14.51-2.32.65-3.55.41a5.7 5.7 0 0 1-2.65-1.26l-.46-.41c-.07-.06-.13-.08-.22-.04l-2.28 1.06-1.85.87-2.4 1.11-1.63.76-1.91.88-.77.36c-.1.05-.1.13-.08.21a6.1 6.1 0 0 1 .06 2c-.01.1-.03.21-.06.3-.04.11 0 .18.1.22l.87.41 1.68.78 2.15.99 1.59.74 1.93.9 1.61.75 1.03.48c.05.02.15-.01.2-.06.35-.34.73-.64 1.16-.89a5.9 5.9 0 0 1 2.95-.83 5.8 5.8 0 0 1 2 .32c.88.31 1.65.79 2.31 1.46a5.8 5.8 0 0 1 1.43 2.4 5.8 5.8 0 0 1 .19 2.7 5.9 5.9 0 0 1-1.1 2.6c-.55.74-1.25 1.32-2.08 1.74a5.9 5.9 0 0 1-2.65.64 5.8 5.8 0 0 1-2.43-.51c-.8-.36-1.49-.85-2.06-1.51-.56-.64-.97-1.37-1.22-2.19-.18-.58-.25-1.16-.25-1.76 0-.14-.05-.22-.16-.28l-.82-.38-1.13-.52-1.15-.53-1.36-.63-1.67-.78-1.37-.65-1.94-.89-1.6-.75-.49-.22c-.07-.02-.17-.02-.23.02-.54.36-1.12.63-1.75.8-.67.19-1.35.24-2.04.19a5.8 5.8 0 0 1-3.6-1.6c-.62-.58-1.1-1.27-1.42-2.07-.43-1.06-.55-2.15-.35-3.27.23-1.29.82-2.39 1.77-3.29.54-.52 1.17-.92 1.88-1.19a5.9 5.9 0 0 1 3.19-.34c.83.15 1.6.45 2.3.91.07.04.2.06.27.03l1.85-.86 1.91-.88 2.17-1.01 1.64-.76 1.63-.76 1.39-.64.97-.47c.05-.03.1-.11.1-.17.02-.18.02-.36.03-.54a5.7 5.7 0 0 1 .45-1.82c.35-.83.86-1.54 1.52-2.14.52-.46 1.1-.82 1.74-1.08a5.9 5.9 0 0 1 2.46-.42c.66.03 1.3.17 1.92.41.74.29 1.4.71 1.97 1.26.63.6 1.1 1.32 1.41 2.13.26.68.41 1.39.39 1.95h0z" fill="#fff"/><path d="M46.96 60H13.04c-.09-.03-.18-.07-.28-.08a12.3 12.3 0 0 1-2.71-.53 18.2 18.2 0 0 1-1.88-.72c-.85-.38-1.65-.86-2.4-1.42-.84-.63-1.61-1.32-2.3-2.12-.82-.94-1.5-1.97-2.05-3.08-.36-.73-.65-1.48-.87-2.26-.21-.76-.38-1.53-.46-2.32-.02-.17-.07-.34-.11-.51V13.04c.04-.17.09-.34.11-.51a13.2 13.2 0 0 1 .98-3.84 13.5 13.5 0 0 1 1.3-2.41 14.2 14.2 0 0 1 2.77-3.05 12.6 12.6 0 0 1 1.92-1.33l1.61-.8C9.2.88 9.74.71 10.27.54 11 .32 11.74.18 12.49.11c.18-.02.36-.07.54-.11h33.93l.56.11 1.67.29c.57.14 1.12.33 1.67.52.67.22 1.3.53 1.91.88a14.5 14.5 0 0 1 2.33 1.63 14.1 14.1 0 0 1 3.24 4.05c.47.88.84 1.8 1.11 2.76.21.74.37 1.49.45 2.26.02.18.07.35.11.52v33.9l-.07.28-.19 1.36a14.2 14.2 0 0 1-.99 3.1c-.4.89-.89 1.73-1.46 2.52A14 14 0 0 1 54.56 57c-.78.61-1.61 1.15-2.51 1.57-.62.29-1.27.53-1.91.76-.85.3-1.74.48-2.64.57-.18.02-.36.07-.54.11h0zm-.42-40.74c.02-.55-.13-1.26-.39-1.95-.31-.81-.78-1.53-1.41-2.13-.57-.55-1.23-.97-1.97-1.26-.62-.24-1.26-.38-1.92-.41-.85-.04-1.67.11-2.46.42-.65.25-1.23.62-1.74 1.08-.67.6-1.18 1.31-1.52 2.14a5.7 5.7 0 0 0-.45 1.82l-.03.54c-.01.06-.05.14-.1.17a29.8 29.8 0 0 1-.97.47l-1.39.64-1.63.76-1.64.76-2.17 1.01-1.91.88-1.85.86c-.07.03-.2.02-.27-.03-.71-.46-1.47-.77-2.3-.91-1.1-.19-2.15-.06-3.19.34-.71.27-1.33.67-1.88 1.19-.94.9-1.54 2-1.77 3.29-.2 1.13-.08 2.21.35 3.27.32.8.79 1.48 1.42 2.07a5.8 5.8 0 0 0 3.6 1.6c.69.06 1.38 0 2.04-.19.62-.17 1.21-.44 1.75-.8.06-.04.16-.04.23-.02.17.06.33.15.49.22l1.6.75 1.94.89 1.37.65 1.67.78 1.36.63 1.15.53 1.13.52.82.38c.12.06.17.14.16.28 0 .6.07 1.18.25 1.76.25.82.66 1.55 1.22 2.19.57.66 1.26 1.15 2.06 1.51.77.34 1.59.52 2.43.51a5.9 5.9 0 0 0 2.65-.64c.83-.42 1.52-1 2.08-1.74a5.9 5.9 0 0 0 1.1-2.6 5.8 5.8 0 0 0-.19-2.7 5.8 5.8 0 0 0-1.43-2.4c-.66-.67-1.43-1.16-2.31-1.46-.65-.22-1.31-.33-2-.32a5.9 5.9 0 0 0-2.95.83 6.2 6.2 0 0 0-1.16.89c-.05.04-.15.08-.2.06l-1.03-.48-1.61-.75-1.93-.9-1.59-.74-2.15-.99-1.68-.78-.87-.41c-.1-.05-.13-.11-.1-.22.03-.1.05-.2.06-.3a6.1 6.1 0 0 0-.06-2c-.02-.08-.02-.17.08-.21l.77-.36 1.91-.88 1.63-.76 2.4-1.11 1.85-.87 2.28-1.06c.09-.04.15-.03.22.04a13.7 13.7 0 0 0 .46.41 5.7 5.7 0 0 0 2.65 1.26 5.8 5.8 0 0 0 3.55-.41 5.8 5.8 0 0 0 2.29-1.8 6 6 0 0 0 1.23-3.81h0z" fill="#0668e1"/></svg>