<svg xmlns="http://www.w3.org/2000/svg" width="40" height="40" fill="#1b1c17" xmlns:v="https://vecta.io/nano"><path d="M6.44 29.59a5.5 5.5 0 0 0 7.16.01 8.1 8.1 0 0 1 3.19 4.92c.44 1.92-.77 3.43-2.75 3.46H5.98c-1.97-.03-3.11-1.55-2.69-3.49.44-1.99 1.48-3.59 3.15-4.89h0zM26.33 9.5c2.79 1.78 4.46 1.79 7.21 0 1.83 1.39 3 3.22 3.25 5.54.16 1.48-.99 2.77-2.49 2.8h-8.64c-1.8-.04-2.91-1.61-2.5-3.45a8.1 8.1 0 0 1 3.17-4.89zm3.54.1c-2.16-.01-3.84-1.65-3.84-3.76 0-2.14 1.77-3.87 3.94-3.84a3.8 3.8 0 0 1 3.75 3.87 3.7 3.7 0 0 1-3.84 3.73h0zM9.92 29.66a3.7 3.7 0 0 1-3.78-3.78c0-2.09 1.7-3.77 3.84-3.76 2.18 0 3.86 1.72 3.82 3.89-.04 2.14-1.66 3.66-3.89 3.65h0zM20.05 6.1c.2 0 .44-.07.59.01.34.18.64.43.95.65-.31.18-.59.46-.92.53-1.67.35-3.46.38-5.02 1.01a12.6 12.6 0 0 0-8.23 10.74c-.02.16.02.35-.06.47-.22.35-.49.66-.74.99-.16-.35-.46-.72-.45-1.07A14.4 14.4 0 0 1 20.05 6.1zm.98 28.71c-.4 0-.69.08-.87-.02-.26-.15-.45-.44-.67-.66.23-.17.45-.45.7-.49 1.03-.15 2.09-.13 3.09-.35 5.74-1.26 9.76-5.85 10.4-11.73.04-.4.44-.76.67-1.15.17.43.51.87.48 1.28a14.4 14.4 0 0 1-13.81 13.12h0z"/></svg>