<svg xmlns="http://www.w3.org/2000/svg" width="60" height="60" fill="none" xmlns:v="https://vecta.io/nano"><path d="M54.21 31.39l-1.2-18.09-8.29 5.1c-4.09-.7-5.19-.7-8.39-2.3-1.9-.9-4.29-.3-5.49.4-1.8-1.9-13.48.9-14.78 1.5-3.49-1-8.69-5.1-8.69-5.1l-1.8 20.49 2.4.6c.2.7.8 2.4.8 2.4-2.2 2.8.4 6.1 2.9 5-1.1 2.8 1.8 5.4 4.09 3.6-.3 2.6 2.4 4.5 4.39 2.7-.9 3.1 2.6 5.4 4.69 2.9 1.5 1 2.9 1.8 4.09 2.2 2.1.9 4.39-1.1 3.99-3.6 2.4 2.8 5.99.1 5.19-3 2.7 2.1 5.99-1.4 4.29-4.5 3 1.7 5.59-2.9 2.7-5.9l9.08-4.4z" fill="#0668e1"/><path d="M11.88 34.29c1.5.7 2.5 3 .9 5l-.7.8c-.8 1-1.6 1.3-2.4 1.3.6.3 1.3.3 2 0 .1-.3.3-.7.6-1l.7-.8c.4-.5.9-.9 1.3-1.1.8-2.1-.6-4.1-2.4-4.2zm11.48 9.9c1.6.4 2.8 2.5 1.6 4.8l-.6.9c-.6 1.1-1.4 1.6-2.2 1.7 1.1.3 2.3-.1 3.09-1.6l.6-.9c1.4-2.8-.5-5.1-2.5-4.9zm-7.09-.8l1.6-2.5c-.1-1.4-1.3-2.6-2.5-2.7 1.5.7 2.5 3 .9 5l-.7.8c-.8 1-1.6 1.3-2.5 1.3.8.4 1.7.3 2.6-.3.1-.5.3-1.1.6-1.6zm4.29-4.5c1.6.5 2.7 2.7 1.3 4.9l-1.9 3c-.7 1.1-1.5 1.5-2.3 1.5 1 .3 2.3 0 3.19-1.4l1.9-3c1.6-2.6-.2-5.1-2.2-5zm13.28 2.5c.1 0 1.3-.2 1.7-.2-1.5-1.5-3.89-.3-5.29-1.1 1 1.7 3.09 1.3 3.29 1.3l2.4 3.1c2 2.5.4 5.4-1.7 5.7 2.2.7 4.39-1.6 3.69-4.1-.1-.1-4.09-4.7-4.09-4.7zm2.4-5.8s1.5-.3 2.8-.3c-1.5-1.2-3.79-.1-5.29-1.1.6 1.3 1.9 1.3 2.3 1.3l4.59 5.3c2.1 2.4.6 5.3-1.5 5.8 2.4.7 4.69-2.4 3.19-5.1-1-.3-6.09-5.9-6.09-5.9zm-3.2 11.49c-1.5-1.2-3.59-.3-4.49-.9.5 1.4 2.4 1.1 2.5 1.1 1.7 2.6-.1 5.3-2.2 5.5 2.1.9 4.39-1.1 3.99-3.6-.1-.1-1.5-1.9-1.5-1.9a7.9 7.9 0 0 1 1.7-.2zm20.07-17.39s-1.7 3.5-8.29 5.4a44.3 44.3 0 0 0-4.99-5.2c1.4-.3 2.1-1.4 3.19-1.6-.4-.4-1.8-.2-2.9.2-2 .7-6.59-2.5-6.59-2.5l-3.79.5c-2.7 2.6-8.49 4-8.79 0-.2-2.8 5.89-4.7 7.79-6.5 2.4-2.3 4.49-5.2 8.39-3.2 3.19 1.6 4.49 1.5 8.89 2.3 1.5.3 2.5 1 3.59 2.5-.9-2.1-2.2-3-3.79-3.3l6.99-3.3.1-1.7-8.29 4.7c-3.79-.6-5.19-.6-8.29-2.1a4.7 4.7 0 0 0-4.89.1c-2.4-1.4-3.79-1.1-4.69-.9-2.8.9-7.29 1-11.28 2.6.7.2 1.4.4 1.9.4 3.89-1.2 7.99-1.1 9.88-1.8.6-.2 1.8-.2 3.09.5-.8.7-1.5 1.5-2.3 2.3-1.9 1.8-7.69 4.4-7.29 7.7.2 1.6 2.4 5.8 9.68 1.1l3.09-.4s5.69 2.7 10.98 8.9c2.1 2.4.8 5-1.3 5.6 2.7.5 4.99-3.3 2.4-5.9l6.29-3.4 1.2-3z" fill="#005bcc"/><path d="M51.32 14.3l3.29 17.09-2.7 1.2c-1.4-3.7-3.49-12.59-3-16.89l2.4-1.4z" fill="#fff"/><path d="M9.08 35.99c-.5-1.2-.8-2.8-.8-2.8l-2.5-1.7-.2 1.9 2.2.6c.3 1 .6 1.8 1 2.4l.3-.4z" fill="#0668e1"/><path d="M4.09 33.09L9.48 14.4l2.5 1.7c.4 2.8-4.19 15.59-5.89 17.49l-2-.5z" fill="#fff"/><path d="M51.21 14.2c-.8.5 2.1 17.79 3.29 17.29 3.79-1.7 5.49-2.2 5.49-2.2V8.7c-.1 0-2.4 1.7-8.79 5.5zM0 7v25.49a94.8 94.8 0 0 0 4.09.8c1.3.3 5.99-18.49 5.69-18.79C6.39 12.2 0 7 0 7z" fill="#0668e1"/></svg>