<svg xmlns="http://www.w3.org/2000/svg" width="60" height="60" fill="none" xmlns:v="https://vecta.io/nano"><path d="M52.32 60H7.68l-.4-.19c-2.7-.79-4.27-2.77-4.27-5.49V20.88c0-3.27 2.43-5.6 5.82-5.64h4.96c.27 0 .54-.02.82-.04l.02-.54c.16-6.94 5.02-12.73 12-14.29.6-.14 1.21-.25 1.81-.37h3.1c.25.06.5.13.74.17 6.5.99 11.58 5.72 12.8 11.96.19 1 .24 2.02.37 3.11h.74 4.96c3.4.04 5.82 2.36 5.82 5.63v33.44c0 2.72-1.56 4.7-4.27 5.5-.14.04-.27.12-.41.18V60zm-22.3-37.26c-8.46-.01-15.37 6.62-15.4 14.8-.03 8.23 6.83 14.93 15.31 14.96 8.49.03 15.41-6.62 15.43-14.84.02-8.23-6.85-14.9-15.35-14.92zm11.75-7.55c-.1-4.41-1.92-7.88-5.83-10.07-4.25-2.39-8.58-2.21-12.64.47-3.44 2.27-5.02 5.56-5.07 9.61h23.53.01zm-11.66 33.8c-6.39.08-11.76-4.97-11.86-11.17-.1-6.26 5.09-11.47 11.52-11.57 6.52-.1 11.89 4.93 11.98 11.2.09 6.28-5.12 11.45-11.64 11.54zm-3.86-11.37v5.4c-.01.8.27 1.43 1.01 1.79.76.38 1.44.17 2.09-.3l7.37-5.36a1.7 1.7 0 0 0 0-3.07l-7.37-5.36c-.65-.47-1.33-.66-2.09-.31-.76.36-1.02.99-1.02 1.79v5.4.01z" fill="#0668e1"/><path d="M26.25 37.62v-5.4c-.01-.8.26-1.43 1.02-1.79s1.44-.17 2.09.31l7.37 5.36c1.23.9 1.22 2.17 0 3.07l-7.37 5.36c-.64.47-1.33.68-2.09.3-.74-.37-1.02-1-1.01-1.79v-5.4h-.01zm3.66-2.08v4.16l2.87-2.08-2.87-2.08z" fill="#fff"/><path d="M28.42 34.67a.9.9 0 0 1 1.4-.75l4.29 2.83a.9.9 0 0 1 0 1.5l-4.29 2.83a.9.9 0 0 1-1.4-.75v-5.65z" fill="#0668e1"/></svg>