<svg xmlns="http://www.w3.org/2000/svg" width="40" height="40" fill="none" xmlns:v="https://vecta.io/nano"><path d="M28.84 15.87l5.3 5.3c.86.85 1.54 1.86 2.01 2.97s.71 2.31.72 3.52-.23 2.41-.69 3.52-1.14 2.13-1.99 2.99-1.87 1.53-2.99 1.99-2.32.7-3.52.69-2.41-.25-3.52-.72-2.13-1.15-2.97-2.01l-1.77-1.77a2.5 2.5 0 0 1-.76-1.78 2.5 2.5 0 0 1 .73-1.79 2.5 2.5 0 0 1 1.79-.73 2.5 2.5 0 0 1 1.78.76l1.77 1.77c.78.78 1.84 1.21 2.94 1.21s2.16-.44 2.94-1.22 1.22-1.84 1.22-2.94-.43-2.16-1.21-2.94l-5.3-5.3c-.57-.57-1.3-.97-2.09-1.13s-1.62-.1-2.37.2l-.76.33-.77.36c-1.03.47-1.83.67-2.84-.34-1.45-1.45-1.08-2.8.7-4.02 1.76-1.21 3.9-1.77 6.03-1.58s4.13 1.13 5.65 2.65zM18.82 5.86l1.77 1.77a2.5 2.5 0 0 1-.03 3.5 2.5 2.5 0 0 1-3.5.03l-1.77-1.77c-.38-.4-.84-.72-1.35-.93s-1.06-.33-1.61-.34-1.1.1-1.61.31-.98.52-1.37.91-.7.86-.91 1.37-.32 1.06-.31 1.61.12 1.1.34 1.61.54.97.93 1.35l5.3 5.3c.57.57 1.3.97 2.1 1.13s1.62.1 2.37-.2l.76-.33.77-.36c1.03-.47 1.83-.67 2.84.34 1.45 1.45 1.08 2.79-.7 4.02-1.76 1.21-3.9 1.77-6.03 1.58s-4.13-1.13-5.65-2.65l-5.3-5.3c-.86-.85-1.54-1.86-2.01-2.97s-.71-2.31-.72-3.52.23-2.41.69-3.52 1.14-2.13 1.99-2.99S7.68 4.28 8.8 3.82s2.32-.7 3.52-.69 2.41.25 3.52.72 2.13 1.15 2.97 2.01z" fill="#1b1c17"/></svg>