<svg width="867" height="428" viewBox="0 0 867 428" fill="none" xmlns="http://www.w3.org/2000/svg">
<path d="M201.95 427.775H112.796V104.937L200.602 87.492L201.95 427.775Z" fill="url(#paint0_linear_17357_73194)" stroke="url(#paint1_linear_17357_73194)" stroke-width="0.450281"/>
<path d="M112.345 104.874V427.775H63.2646V72.7984L112.345 104.874Z" fill="url(#paint2_linear_17357_73194)" stroke="url(#paint3_linear_17357_73194)" stroke-width="0.450281"/>
<path d="M200.257 87.1013L112.616 104.512L63.5781 72.4655L145.85 49.698L200.257 87.1013Z" fill="#D3E6FF" stroke="#0668E1" stroke-width="0.450281"/>
<path d="M273.995 427.775H184.841V203.845L272.646 186.4L273.995 427.775Z" fill="url(#paint4_linear_17357_73194)" stroke="url(#paint5_linear_17357_73194)" stroke-width="0.450281"/>
<path d="M184.39 203.781V427.775H135.31V171.706L184.39 203.781Z" fill="url(#paint6_linear_17357_73194)" stroke="url(#paint7_linear_17357_73194)" stroke-width="0.450281"/>
<path d="M272.302 186.009L184.661 203.42L135.623 171.373L217.895 148.606L272.302 186.009Z" fill="#D3E6FF" stroke="#0668E1" stroke-width="0.450281"/>
<path d="M345.812 427.55H257.11V302.937L344.47 285.581L345.812 427.55Z" fill="url(#paint8_linear_17357_73194)" stroke="url(#paint9_linear_17357_73194)" stroke-width="0.900563"/>
<path d="M256.435 302.689V427.775H207.354V270.614L256.435 302.689Z" fill="url(#paint10_linear_17357_73194)" stroke="url(#paint11_linear_17357_73194)" stroke-width="0.450281"/>
<path d="M344.347 284.916L256.706 302.328L207.668 270.281L289.939 247.513L344.347 284.916Z" fill="#D3E6FF" stroke="#0668E1" stroke-width="0.450281"/>
<path d="M416.51 427.55H329.155V397.796L416.51 379.996V427.55Z" fill="url(#paint12_linear_17357_73194)" stroke="url(#paint13_linear_17357_73194)" stroke-width="0.900563"/>
<path d="M328.479 397.55V427.775H279.399V365.475L328.479 397.55Z" fill="url(#paint14_linear_17357_73194)" stroke="url(#paint15_linear_17357_73194)" stroke-width="0.450281"/>
<path d="M416.392 379.331L328.751 397.189L279.713 365.142L361.984 342.374L416.392 379.331Z" fill="#D3E6FF" stroke="#0668E1" stroke-width="0.450281"/>
<line x1="0.450281" y1="427.55" x2="479.55" y2="427.55" stroke="#86BCFF" stroke-width="0.900563" stroke-linecap="round"/>
<mask id="mask0_17357_73194" style="mask-type:luminance" maskUnits="userSpaceOnUse" x="141" y="0" width="29" height="13">
<path d="M147.409 1.03157L169.212 12.8598C167.634 12.004 165.767 11.6415 163.769 11.9211L141.966 0.0928621C143.964 -0.186649 145.831 0.175865 147.409 1.03157Z" fill="white"/>
</mask>
<g mask="url(#mask0_17357_73194)">
<path d="M163.769 11.9223L141.966 0.0931391C143.199 -0.0795283 144.382 -0.00798548 145.477 0.273434L167.28 12.1016C166.184 11.8212 165.002 11.7487 163.769 11.9223Z" fill="#107BFF"/>
<path d="M167.274 12.099L145.471 0.270844C146.035 0.415846 146.576 0.616178 147.089 0.867071L168.892 12.6953C168.379 12.4444 167.838 12.244 167.274 12.099Z" fill="#107BFF"/>
<path d="M168.891 12.6978L147.088 0.869568C147.193 0.921082 147.298 0.975464 147.401 1.03079L169.204 12.859C169.1 12.8036 168.996 12.7493 168.891 12.6978Z" fill="#107BFF"/>
</g>
<mask id="mask1_17357_73194" style="mask-type:luminance" maskUnits="userSpaceOnUse" x="109" y="54" width="24" height="14">
<path d="M109.917 54.9315C110.081 55.0202 110.248 55.106 110.417 55.189C117.685 59.1317 124.952 63.0745 132.22 67.0172C132.051 66.9342 131.883 66.8484 131.72 66.7596C125.179 63.2109 116.458 58.4802 109.917 54.9315Z" fill="white"/>
</mask>
<g mask="url(#mask1_17357_73194)">
<path d="M131.72 66.7596L109.917 54.9315C110.08 55.0192 110.245 55.1051 110.413 55.1871L132.216 67.0153C132.048 66.9333 131.883 66.8484 131.72 66.7596Z" fill="#258FB2"/>
<path d="M132.223 67.0157L110.42 55.1875C110.607 55.2791 110.798 55.3678 110.992 55.4527C111.64 55.7361 112.301 55.966 112.971 56.1405L134.774 67.9678C134.103 67.7942 133.443 67.5642 132.795 67.28C132.601 67.196 132.41 67.1073 132.223 67.0157Z" fill="#2692B6"/>
</g>
<mask id="mask2_17357_73194" style="mask-type:luminance" maskUnits="userSpaceOnUse" x="84" y="70" width="27" height="21">
<path d="M110.575 90.9567L88.7726 79.1285C85.9125 77.5764 84.007 74.4016 84.0137 70.5037L105.817 82.3319C105.809 86.2298 107.714 89.4046 110.575 90.9567Z" fill="white"/>
</mask>
<g mask="url(#mask2_17357_73194)">
<path d="M110.575 90.9567L88.7726 79.1285C85.9125 77.5764 84.006 74.4016 84.0137 70.5037L105.817 82.3319C105.809 86.2298 107.714 89.4046 110.575 90.9567Z" fill="#1A81FF"/>
</g>
<path d="M163.799 11.9174C169.423 11.1294 174.011 15.4337 174 21.479L173.904 72.7974C173.893 78.8427 169.286 84.4358 163.662 85.2247L115.986 91.9072C110.369 92.6943 105.782 88.39 105.793 82.3447L105.889 31.0262C105.9 24.981 110.507 19.3869 116.123 18.5999L163.799 11.9174Z" fill="#0668E1"/>
<path d="M116.125 18.5985L94.3223 6.77035L141.998 0.0878296L163.801 11.917L116.125 18.5985Z" fill="#107BFF"/>
<path d="M105.803 82.3451L84 70.516L84.0947 19.1985L105.899 31.0267L105.803 82.3451Z" fill="#1E83FF"/>
<mask id="mask3_17357_73194" style="mask-type:luminance" maskUnits="userSpaceOnUse" x="84" y="6" width="33" height="26">
<path d="M105.899 31.0318L84.0957 19.2036C84.1072 13.1574 88.714 7.56427 94.33 6.77725L116.133 18.6054C110.516 19.3925 105.91 24.9856 105.899 31.0318Z" fill="white"/>
</mask>
<g mask="url(#mask3_17357_73194)">
<path d="M105.899 31.0346L84.0957 19.2064C84.0986 17.7249 84.3769 16.2711 84.8791 14.9078L106.682 26.736C106.18 28.0992 105.901 29.5531 105.899 31.0346Z" fill="#1A81FF"/>
<path d="M106.679 26.7338L84.876 14.9056C85.0941 14.3132 85.3543 13.738 85.6527 13.1847L107.456 25.0129C107.157 25.5662 106.897 26.1414 106.679 26.7338Z" fill="#1A81FF"/>
<path d="M107.453 25.0123L85.6494 13.1841C85.9019 12.7157 86.1822 12.2635 86.4864 11.8304L108.289 23.6586C107.986 24.0908 107.706 24.5439 107.453 25.0123Z" fill="#1A81FF"/>
<path d="M108.292 23.6582L86.4893 11.83C86.7772 11.4208 87.0862 11.0297 87.4152 10.6576L109.218 22.4858C108.889 22.8569 108.579 23.249 108.292 23.6582Z" fill="#1A81FF"/>
<path d="M109.224 22.4893L87.4209 10.6611C87.7519 10.2871 88.102 9.93414 88.4702 9.60406L110.273 21.4323C109.906 21.7633 109.555 22.1163 109.224 22.4893Z" fill="#1A81FF"/>
<path d="M110.282 21.4285L88.4795 9.60033C88.8736 9.24641 89.2887 8.91824 89.7211 8.62061L111.524 20.4488C111.091 20.7474 110.677 21.0746 110.282 21.4285Z" fill="#1A81FF"/>
<path d="M111.512 20.4465L89.709 8.61833C90.238 8.25392 90.7928 7.93339 91.3686 7.66342L113.172 19.4916C112.596 19.7616 112.041 20.0821 111.512 20.4465Z" fill="#1A81FF"/>
<path d="M113.176 19.4946L91.373 7.66637C92.3114 7.22659 93.3053 6.92229 94.3336 6.77728L116.137 18.6055C115.108 18.7495 114.114 19.0548 113.176 19.4946Z" fill="#1A81FF"/>
</g>
<path d="M133.508 35.1145C135.484 34.9761 137.495 34.8532 139.543 34.7457C141.59 34.6023 143.601 34.4973 145.578 34.4309C147.554 34.3645 149.406 34.3608 151.133 34.42L150.86 40.4395L136.585 41.4399C135.687 41.5028 135.009 41.7846 134.55 42.2853C134.127 42.7474 133.923 43.4464 133.94 44.3822L134.271 63.3874C134.286 64.2872 134.514 64.956 134.953 65.3938C135.428 65.829 136.114 66.0151 137.012 65.9522L151.287 64.9518L151.768 70.9185C150.047 71.1833 148.2 71.4209 146.226 71.6313C144.252 71.8417 142.241 72.0186 140.194 72.1621C138.148 72.3415 136.137 72.5004 134.162 72.6388C131.792 72.8049 129.859 72.2557 128.362 70.9911C126.902 69.724 126.135 67.9758 126.06 65.7467L125.667 43.1781C125.663 40.9079 126.368 39.0386 127.78 37.5701C129.229 36.0992 131.138 35.2806 133.508 35.1145ZM126.769 50.723L149.016 49.1639L149.118 54.995L126.871 56.5541L126.769 50.723Z" fill="white"/>
<mask id="mask4_17357_73194" style="mask-type:luminance" maskUnits="userSpaceOnUse" x="215" y="98" width="29" height="13">
<path d="M221.409 99.0316L243.212 110.86C241.634 110.004 239.767 109.642 237.769 109.921L215.966 98.0929C217.964 97.8134 219.831 98.1759 221.409 99.0316Z" fill="white"/>
</mask>
<g mask="url(#mask4_17357_73194)">
<path d="M237.769 109.922L215.966 98.0932C217.199 97.9205 218.382 97.992 219.477 98.2735L241.28 110.102C240.184 109.821 239.002 109.749 237.769 109.922Z" fill="#107BFF"/>
<path d="M241.274 110.099L219.471 98.2709C220.035 98.4159 220.576 98.6162 221.089 98.8671L242.892 110.695C242.379 110.444 241.838 110.244 241.274 110.099Z" fill="#107BFF"/>
<path d="M242.891 110.698L221.088 98.8695C221.193 98.9211 221.298 98.9754 221.401 99.0308L243.204 110.859C243.1 110.804 242.996 110.749 242.891 110.698Z" fill="#107BFF"/>
</g>
<mask id="mask5_17357_73194" style="mask-type:luminance" maskUnits="userSpaceOnUse" x="183" y="152" width="24" height="14">
<path d="M183.917 152.931C184.081 153.02 184.248 153.106 184.417 153.189C191.685 157.132 198.952 161.074 206.22 165.017C206.051 164.934 205.884 164.848 205.72 164.76C199.179 161.211 190.458 156.48 183.917 152.931Z" fill="white"/>
</mask>
<g mask="url(#mask5_17357_73194)">
<path d="M205.72 164.76L183.917 152.931C184.08 153.019 184.245 153.105 184.413 153.187L206.216 165.015C206.048 164.933 205.883 164.848 205.72 164.76Z" fill="#258FB2"/>
<path d="M206.223 165.016L184.42 153.187C184.607 153.279 184.798 153.368 184.992 153.453C185.64 153.736 186.301 153.966 186.971 154.14L208.774 165.968C208.104 165.794 207.443 165.564 206.795 165.28C206.601 165.196 206.41 165.107 206.223 165.016Z" fill="#2692B6"/>
</g>
<mask id="mask6_17357_73194" style="mask-type:luminance" maskUnits="userSpaceOnUse" x="158" y="168" width="27" height="21">
<path d="M184.576 188.957L162.773 177.128C159.912 175.576 158.007 172.402 158.014 168.504L179.817 180.332C179.809 184.23 181.714 187.405 184.576 188.957Z" fill="white"/>
</mask>
<g mask="url(#mask6_17357_73194)">
<path d="M184.576 188.957L162.773 177.128C159.912 175.576 158.006 172.402 158.014 168.504L179.817 180.332C179.809 184.23 181.714 187.405 184.576 188.957Z" fill="#1A81FF"/>
</g>
<path d="M237.799 109.917C243.424 109.129 248.011 113.434 248 119.479L247.904 170.797C247.893 176.843 243.286 182.436 237.662 183.225L189.986 189.907C184.369 190.694 179.782 186.39 179.793 180.345L179.889 129.026C179.9 122.981 184.507 117.387 190.123 116.6L237.799 109.917Z" fill="#0668E1"/>
<path d="M190.125 116.599L168.322 104.77L215.998 98.0878L237.801 109.917L190.125 116.599Z" fill="#107BFF"/>
<path d="M179.803 180.345L158 168.516L158.095 117.198L179.899 129.027L179.803 180.345Z" fill="#1E83FF"/>
<mask id="mask7_17357_73194" style="mask-type:luminance" maskUnits="userSpaceOnUse" x="158" y="104" width="33" height="26">
<path d="M179.898 129.032L158.095 117.204C158.106 111.157 162.713 105.564 168.329 104.777L190.132 116.605C184.515 117.392 179.909 122.986 179.898 129.032Z" fill="white"/>
</mask>
<g mask="url(#mask7_17357_73194)">
<path d="M179.898 129.035L158.095 117.206C158.098 115.725 158.376 114.271 158.878 112.908L180.681 124.736C180.179 126.099 179.901 127.553 179.898 129.035Z" fill="#1A81FF"/>
<path d="M180.678 124.734L158.875 112.906C159.093 112.313 159.353 111.738 159.652 111.185L181.455 123.013C181.156 123.566 180.896 124.141 180.678 124.734Z" fill="#1A81FF"/>
<path d="M181.452 123.012L159.648 111.184C159.901 110.716 160.181 110.264 160.485 109.83L182.288 121.659C181.985 122.091 181.705 122.544 181.452 123.012Z" fill="#1A81FF"/>
<path d="M182.292 121.658L160.489 109.83C160.777 109.421 161.086 109.03 161.415 108.658L183.218 120.486C182.889 120.857 182.579 121.249 182.292 121.658Z" fill="#1A81FF"/>
<path d="M183.224 120.489L161.421 108.661C161.752 108.287 162.102 107.934 162.47 107.604L184.273 119.432C183.906 119.763 183.555 120.116 183.224 120.489Z" fill="#1A81FF"/>
<path d="M184.281 119.429L162.479 107.6C162.873 107.246 163.288 106.918 163.72 106.621L185.523 118.449C185.09 118.747 184.676 119.075 184.281 119.429Z" fill="#1A81FF"/>
<path d="M185.512 118.447L163.709 106.618C164.238 106.254 164.793 105.933 165.369 105.663L187.172 117.492C186.596 117.762 186.041 118.082 185.512 118.447Z" fill="#1A81FF"/>
<path d="M187.175 117.495L165.372 105.666C166.31 105.227 167.304 104.922 168.333 104.777L190.136 116.605C189.107 116.749 188.113 117.055 187.175 117.495Z" fill="#1A81FF"/>
</g>
<path d="M218.061 128.375C218.743 128.327 219.34 128.483 219.85 128.844C220.395 129.167 220.763 129.664 220.955 130.336L232.347 164.697L223.938 165.286L215.86 138.374C215.706 137.807 215.552 137.223 215.398 136.621C215.243 135.983 215.106 135.379 214.989 134.811L213.533 134.913C213.435 135.496 213.32 136.117 213.188 136.776C213.091 137.396 212.957 138 212.788 138.589L205.666 166.567L197.257 167.156L207.426 131.284C207.593 130.587 207.926 130.041 208.423 129.645C208.955 129.211 209.562 128.97 210.245 128.922L218.061 128.375ZM224.144 149.206L224.251 155.365L204.954 156.718L204.847 150.559L224.144 149.206Z" fill="white"/>
<mask id="mask8_17357_73194" style="mask-type:luminance" maskUnits="userSpaceOnUse" x="287" y="196" width="29" height="13">
<path d="M293.409 197.032L315.212 208.86C313.634 208.004 311.767 207.642 309.769 207.921L287.966 196.093C289.964 195.813 291.831 196.176 293.409 197.032Z" fill="white"/>
</mask>
<g mask="url(#mask8_17357_73194)">
<path d="M309.769 207.922L287.966 196.093C289.199 195.921 290.382 195.992 291.477 196.273L313.28 208.102C312.184 207.821 311.002 207.749 309.769 207.922Z" fill="#107BFF"/>
<path d="M313.274 208.099L291.471 196.271C292.035 196.416 292.576 196.616 293.089 196.867L314.892 208.695C314.379 208.444 313.838 208.244 313.274 208.099Z" fill="#107BFF"/>
<path d="M314.891 208.698L293.088 196.87C293.193 196.921 293.298 196.975 293.401 197.031L315.204 208.859C315.1 208.804 314.996 208.749 314.891 208.698Z" fill="#107BFF"/>
</g>
<mask id="mask9_17357_73194" style="mask-type:luminance" maskUnits="userSpaceOnUse" x="255" y="250" width="24" height="14">
<path d="M255.918 250.931C256.082 251.02 256.249 251.106 256.418 251.189C263.686 255.132 270.953 259.075 278.221 263.017C278.052 262.934 277.884 262.848 277.721 262.76C271.18 259.211 262.459 254.48 255.918 250.931Z" fill="white"/>
</mask>
<g mask="url(#mask9_17357_73194)">
<path d="M277.721 262.76L255.918 250.931C256.081 251.019 256.246 251.105 256.414 251.187L278.217 263.015C278.049 262.933 277.883 262.848 277.721 262.76Z" fill="#258FB2"/>
<path d="M278.223 263.016L256.42 251.187C256.607 251.279 256.798 251.368 256.992 251.453C257.64 251.736 258.301 251.966 258.971 252.14L280.774 263.968C280.103 263.794 279.443 263.564 278.795 263.28C278.601 263.196 278.41 263.107 278.223 263.016Z" fill="#2692B6"/>
</g>
<mask id="mask10_17357_73194" style="mask-type:luminance" maskUnits="userSpaceOnUse" x="230" y="266" width="27" height="21">
<path d="M256.575 286.957L234.773 275.128C231.912 273.576 230.007 270.402 230.014 266.504L251.817 278.332C251.809 282.23 253.714 285.405 256.575 286.957Z" fill="white"/>
</mask>
<g mask="url(#mask10_17357_73194)">
<path d="M256.575 286.957L234.773 275.128C231.912 273.576 230.006 270.402 230.014 266.504L251.817 278.332C251.809 282.23 253.714 285.405 256.575 286.957Z" fill="#1A81FF"/>
</g>
<path d="M309.799 207.917C315.423 207.129 320.011 211.434 320 217.479L319.904 268.797C319.893 274.843 315.286 280.436 309.662 281.225L261.986 287.907C256.369 288.694 251.782 284.39 251.793 278.345L251.889 227.026C251.9 220.981 256.507 215.387 262.123 214.6L309.799 207.917Z" fill="#0668E1"/>
<path d="M262.125 214.599L240.322 202.77L287.998 196.088L309.801 207.917L262.125 214.599Z" fill="#107BFF"/>
<path d="M251.803 278.345L230 266.516L230.095 215.198L251.899 227.027L251.803 278.345Z" fill="#1E83FF"/>
<mask id="mask11_17357_73194" style="mask-type:luminance" maskUnits="userSpaceOnUse" x="230" y="202" width="33" height="26">
<path d="M251.898 227.032L230.095 215.204C230.106 209.157 234.713 203.564 240.329 202.777L262.132 214.606C256.515 215.393 251.909 220.986 251.898 227.032Z" fill="white"/>
</mask>
<g mask="url(#mask11_17357_73194)">
<path d="M251.898 227.035L230.095 215.206C230.098 213.725 230.376 212.271 230.878 210.908L252.681 222.736C252.179 224.099 251.901 225.553 251.898 227.035Z" fill="#1A81FF"/>
<path d="M252.678 222.734L230.875 210.906C231.093 210.313 231.353 209.738 231.652 209.185L253.455 221.013C253.156 221.566 252.896 222.141 252.678 222.734Z" fill="#1A81FF"/>
<path d="M253.452 221.012L231.648 209.184C231.901 208.716 232.181 208.264 232.485 207.831L254.288 219.659C253.985 220.091 253.705 220.544 253.452 221.012Z" fill="#1A81FF"/>
<path d="M254.292 219.658L232.489 207.83C232.777 207.421 233.086 207.03 233.415 206.658L255.218 218.486C254.889 218.857 254.579 219.249 254.292 219.658Z" fill="#1A81FF"/>
<path d="M255.224 218.489L233.421 206.661C233.752 206.287 234.102 205.934 234.47 205.604L256.273 217.432C255.906 217.763 255.555 218.116 255.224 218.489Z" fill="#1A81FF"/>
<path d="M256.281 217.429L234.479 205.6C234.873 205.247 235.288 204.918 235.72 204.621L257.523 216.449C257.09 216.747 256.676 217.075 256.281 217.429Z" fill="#1A81FF"/>
<path d="M257.512 216.447L235.709 204.618C236.238 204.254 236.793 203.933 237.369 203.663L259.172 215.492C258.596 215.762 258.041 216.082 257.512 216.447Z" fill="#1A81FF"/>
<path d="M259.175 215.495L237.372 203.666C238.31 203.227 239.304 202.922 240.333 202.777L262.136 214.606C261.107 214.75 260.113 215.055 259.175 215.495Z" fill="#1A81FF"/>
</g>
<path d="M284.55 229.463C286.383 229.335 288.379 229.303 290.539 229.368C292.698 229.397 294.807 229.628 296.865 230.061L296.422 235.609C294.84 235.648 292.988 235.724 290.868 235.836C288.747 235.949 286.662 236.077 284.614 236.22C283.608 236.291 282.746 236.387 282.029 236.51C281.347 236.63 280.793 236.813 280.365 237.059C279.938 237.305 279.639 237.687 279.468 238.204C279.296 238.684 279.218 239.339 279.232 240.167C279.254 241.428 279.558 242.326 280.143 242.862C280.763 243.396 281.797 243.846 283.242 244.214L290.452 246.034C293.452 246.834 295.542 248.058 296.722 249.706C297.902 251.354 298.516 253.583 298.565 256.392C298.602 258.517 298.381 260.3 297.903 261.74C297.424 263.18 296.653 264.334 295.589 265.202C294.524 266.069 293.115 266.727 291.359 267.175C289.605 267.658 287.452 267.989 284.901 268.168C283.679 268.254 281.935 268.286 279.668 268.265C277.401 268.279 274.825 268.063 271.939 267.616L272.322 261.747C274.479 261.632 276.331 261.557 277.877 261.52C279.423 261.448 280.753 261.391 281.868 261.349C282.982 261.271 283.952 261.203 284.778 261.145C286.252 261.042 287.382 260.872 288.169 260.637C288.993 260.399 289.561 259.998 289.875 259.435C290.189 258.873 290.338 258.087 290.32 257.078C290.304 256.178 290.166 255.484 289.906 254.998C289.682 254.509 289.297 254.121 288.753 253.835C288.208 253.548 287.502 253.309 286.635 253.117L279.044 251.053C276.152 250.246 274.098 249.038 272.882 247.428C271.703 245.816 271.089 243.605 271.04 240.796C271.003 238.671 271.224 236.906 271.703 235.502C272.219 234.096 273.009 232.995 274.074 232.199C275.139 231.367 276.532 230.746 278.251 230.337C280.007 229.926 282.107 229.635 284.55 229.463Z" fill="white"/>
<mask id="mask12_17357_73194" style="mask-type:luminance" maskUnits="userSpaceOnUse" x="360" y="291" width="29" height="13">
<path d="M366.408 292.032L388.211 303.86C386.633 303.004 384.766 302.642 382.768 302.921L360.965 291.093C362.963 290.813 364.83 291.176 366.408 292.032Z" fill="white"/>
</mask>
<g mask="url(#mask12_17357_73194)">
<path d="M382.768 302.922L360.965 291.093C362.198 290.921 363.381 290.992 364.476 291.274L386.279 303.102C385.183 302.821 384.001 302.749 382.768 302.922Z" fill="#107BFF"/>
<path d="M386.272 303.099L364.469 291.271C365.033 291.416 365.575 291.616 366.087 291.867L387.89 303.695C387.377 303.444 386.836 303.244 386.272 303.099Z" fill="#107BFF"/>
<path d="M387.889 303.698L366.086 291.87C366.191 291.921 366.296 291.975 366.399 292.031L388.202 303.859C388.098 303.804 387.994 303.749 387.889 303.698Z" fill="#107BFF"/>
</g>
<mask id="mask13_17357_73194" style="mask-type:luminance" maskUnits="userSpaceOnUse" x="328" y="345" width="24" height="14">
<path d="M328.917 345.931C329.081 346.02 329.248 346.106 329.417 346.189C336.685 350.132 343.952 354.074 351.22 358.017C351.051 357.934 350.883 357.848 350.72 357.76C344.179 354.211 335.458 349.48 328.917 345.931Z" fill="white"/>
</mask>
<g mask="url(#mask13_17357_73194)">
<path d="M350.72 357.76L328.917 345.931C329.08 346.019 329.245 346.105 329.413 346.187L351.216 358.015C351.048 357.933 350.883 357.848 350.72 357.76Z" fill="#258FB2"/>
<path d="M351.223 358.016L329.42 346.187C329.607 346.279 329.798 346.368 329.992 346.453C330.64 346.736 331.301 346.966 331.971 347.14L353.774 358.968C353.103 358.794 352.443 358.564 351.795 358.28C351.601 358.196 351.41 358.107 351.223 358.016Z" fill="#2692B6"/>
</g>
<mask id="mask14_17357_73194" style="mask-type:luminance" maskUnits="userSpaceOnUse" x="303" y="361" width="27" height="21">
<path d="M329.576 381.957L307.774 370.128C304.913 368.576 303.008 365.402 303.015 361.504L324.818 373.332C324.81 377.23 326.715 380.405 329.576 381.957Z" fill="white"/>
</mask>
<g mask="url(#mask14_17357_73194)">
<path d="M329.576 381.957L307.774 370.128C304.913 368.576 303.007 365.402 303.015 361.504L324.818 373.332C324.81 377.23 326.715 380.405 329.576 381.957Z" fill="#1A81FF"/>
</g>
<path d="M382.799 302.917C388.423 302.129 393.011 306.434 393 312.479L392.904 363.797C392.893 369.843 388.286 375.436 382.662 376.225L334.986 382.907C329.369 383.694 324.782 379.39 324.793 373.345L324.889 322.026C324.9 315.981 329.507 310.387 335.123 309.6L382.799 302.917Z" fill="#0668E1"/>
<path d="M335.124 309.599L313.321 297.77L360.997 291.088L382.8 302.917L335.124 309.599Z" fill="#107BFF"/>
<path d="M324.803 373.345L303 361.516L303.095 310.198L324.899 322.027L324.803 373.345Z" fill="#1E83FF"/>
<mask id="mask15_17357_73194" style="mask-type:luminance" maskUnits="userSpaceOnUse" x="303" y="297" width="33" height="26">
<path d="M324.898 322.032L303.095 310.204C303.106 304.157 307.713 298.564 313.329 297.777L335.132 309.606C329.515 310.393 324.909 315.986 324.898 322.032Z" fill="white"/>
</mask>
<g mask="url(#mask15_17357_73194)">
<path d="M324.898 322.035L303.095 310.206C303.098 308.725 303.376 307.271 303.878 305.908L325.681 317.736C325.179 319.099 324.9 320.553 324.898 322.035Z" fill="#1A81FF"/>
<path d="M325.678 317.734L303.875 305.906C304.093 305.313 304.353 304.738 304.652 304.185L326.455 316.013C326.156 316.566 325.896 317.141 325.678 317.734Z" fill="#1A81FF"/>
<path d="M326.452 316.012L304.648 304.184C304.901 303.716 305.181 303.264 305.485 302.83L327.288 314.659C326.985 315.091 326.705 315.544 326.452 316.012Z" fill="#1A81FF"/>
<path d="M327.292 314.658L305.489 302.83C305.777 302.421 306.086 302.03 306.415 301.658L328.218 313.486C327.889 313.857 327.579 314.249 327.292 314.658Z" fill="#1A81FF"/>
<path d="M328.224 313.489L306.421 301.661C306.752 301.287 307.102 300.934 307.47 300.604L329.273 312.432C328.906 312.763 328.555 313.116 328.224 313.489Z" fill="#1A81FF"/>
<path d="M329.281 312.429L307.479 300.6C307.873 300.247 308.288 299.918 308.72 299.621L330.523 311.449C330.09 311.747 329.676 312.075 329.281 312.429Z" fill="#1A81FF"/>
<path d="M330.512 311.447L308.709 299.618C309.238 299.254 309.793 298.933 310.369 298.663L332.172 310.492C331.596 310.762 331.041 311.082 330.512 311.447Z" fill="#1A81FF"/>
<path d="M332.175 310.495L310.372 298.666C311.31 298.227 312.304 297.922 313.333 297.777L335.136 309.606C334.107 309.75 333.113 310.055 332.175 310.495Z" fill="#1A81FF"/>
</g>
<path d="M374.487 325.084L362.37 351.356L354.608 351.9L341.607 327.388L350.123 326.791L356.615 340.075C356.951 340.773 357.234 341.529 357.464 342.342C357.694 343.155 357.905 343.934 358.098 344.677L358.637 344.64C358.84 343.868 359.041 343.061 359.243 342.217C359.444 341.374 359.682 340.582 359.957 339.841L365.97 325.681L374.487 325.084ZM362.499 346.37L362.793 363.226L354.599 363.801L354.306 346.945L362.499 346.37Z" fill="white"/>
<path d="M456.832 323.16L446.14 340.08H440.956L434.98 323.16H440.488L443.332 332.412C443.476 332.988 443.584 333.54 443.656 334.068C443.728 334.596 443.776 335.112 443.8 335.616H444.232C444.328 335.136 444.496 334.608 444.736 334.032C444.976 333.432 445.228 332.88 445.492 332.376L450.964 323.16H456.832ZM446.68 336.768L445.132 348H439.624L441.208 336.768H446.68ZM463.471 330.216L460.987 348H455.731L458.179 330.216H463.471ZM462.931 322.368C463.507 322.368 463.915 322.512 464.155 322.8C464.419 323.088 464.515 323.508 464.443 324.06L464.191 326.004C464.047 326.988 463.459 327.48 462.427 327.48H460.267C459.139 327.48 458.635 326.916 458.755 325.788L459.007 323.88C459.127 322.872 459.703 322.368 460.735 322.368H462.931ZM476.301 329.748C478.485 329.748 480.165 329.988 481.341 330.468C482.541 330.924 483.345 331.608 483.753 332.52C484.161 333.432 484.257 334.56 484.041 335.904C483.873 337.008 483.501 337.884 482.925 338.532C482.373 339.156 481.605 339.624 480.621 339.936C479.637 340.248 478.389 340.464 476.877 340.584L467.805 341.34L468.201 338.424L475.869 337.668C476.517 337.596 477.045 337.5 477.453 337.38C477.861 337.236 478.185 337.02 478.425 336.732C478.665 336.42 478.833 335.976 478.929 335.4C479.001 334.824 478.953 334.404 478.785 334.14C478.617 333.852 478.317 333.672 477.885 333.6C477.453 333.504 476.877 333.456 476.157 333.456C475.413 333.456 474.789 333.54 474.285 333.708C473.781 333.852 473.361 334.116 473.025 334.5C472.689 334.86 472.413 335.388 472.197 336.084C471.981 336.756 471.777 337.632 471.585 338.712C471.345 340.272 471.309 341.448 471.477 342.24C471.645 343.032 472.017 343.56 472.593 343.824C473.169 344.088 473.973 344.22 475.005 344.22C475.581 344.22 476.277 344.208 477.093 344.184C477.909 344.136 478.737 344.088 479.577 344.04C480.441 343.968 481.221 343.896 481.917 343.824L482.277 347.136C481.557 347.448 480.741 347.7 479.829 347.892C478.917 348.084 477.993 348.216 477.057 348.288C476.121 348.384 475.245 348.432 474.429 348.432C472.053 348.432 470.205 348.072 468.885 347.352C467.589 346.632 466.725 345.564 466.293 344.148C465.885 342.708 465.801 340.932 466.041 338.82C466.257 336.996 466.617 335.496 467.121 334.32C467.649 333.144 468.321 332.232 469.137 331.584C469.977 330.912 470.985 330.444 472.161 330.18C473.361 329.892 474.741 329.748 476.301 329.748ZM494.678 322.8L491.87 342.42C491.774 343.044 491.846 343.488 492.086 343.752C492.35 343.992 492.842 344.112 493.562 344.112H495.182L495.434 347.748C495.146 347.916 494.726 348.036 494.174 348.108C493.646 348.204 493.118 348.276 492.59 348.324C492.062 348.372 491.63 348.396 491.294 348.396C489.614 348.396 488.33 347.964 487.442 347.1C486.578 346.236 486.242 345.048 486.434 343.536L489.386 322.8H494.678ZM506.205 329.748C507.813 329.748 509.397 329.856 510.957 330.072C512.517 330.288 513.801 330.612 514.809 331.044L514.053 333.384C512.973 333.36 511.989 333.348 511.101 333.348C510.213 333.324 509.313 333.312 508.401 333.312C507.561 333.312 506.853 333.384 506.277 333.528C505.725 333.648 505.281 333.9 504.945 334.284C504.609 334.644 504.333 335.184 504.117 335.904C503.901 336.624 503.709 337.584 503.541 338.784C503.373 340.056 503.289 341.076 503.289 341.844C503.289 342.588 503.421 343.128 503.685 343.464C503.949 343.8 504.393 343.968 505.017 343.968C506.049 343.944 507.021 343.632 507.933 343.032C508.869 342.432 509.877 341.628 510.957 340.62L511.965 342.924C511.605 343.404 511.125 343.956 510.525 344.58C509.925 345.204 509.229 345.816 508.437 346.416C507.669 346.992 506.829 347.472 505.917 347.856C505.005 348.24 504.033 348.432 503.001 348.432C501.657 348.432 500.577 348.108 499.761 347.46C498.945 346.788 498.393 345.744 498.105 344.328C497.841 342.888 497.853 341.028 498.141 338.748C498.405 336.876 498.777 335.352 499.257 334.176C499.737 332.976 500.313 332.064 500.985 331.44C501.657 330.792 502.425 330.348 503.289 330.108C504.177 329.868 505.149 329.748 506.205 329.748ZM518.121 322.8L514.593 348H510.381L510.417 343.608L509.913 343.284L511.605 330.972L511.929 330.396C511.929 329.772 511.941 329.16 511.965 328.56C512.013 327.96 512.085 327.324 512.181 326.652L512.829 322.8H518.121ZM555.687 323.16C556.359 323.16 556.863 323.352 557.199 323.736C557.535 324.096 557.667 324.612 557.595 325.284L555.327 348H550.251L552.375 327.372H551.763L545.607 342.96C545.415 343.536 545.139 343.956 544.779 344.22C544.419 344.484 543.927 344.616 543.303 344.616H539.919C539.319 344.616 538.839 344.46 538.479 344.148C538.119 343.812 537.915 343.356 537.867 342.78L535.959 327.372H535.311L531.675 348H526.599L530.739 325.068C530.859 324.42 531.075 323.94 531.387 323.628C531.723 323.316 532.215 323.16 532.863 323.16H537.939C538.515 323.16 538.971 323.328 539.307 323.664C539.643 323.976 539.835 324.42 539.883 324.996L541.431 337.488C541.503 338.088 541.551 338.688 541.575 339.288C541.599 339.864 541.611 340.452 541.611 341.052H542.151C542.343 340.404 542.523 339.804 542.691 339.252C542.883 338.676 543.087 338.112 543.303 337.56L548.163 324.816C548.355 324.216 548.631 323.796 548.991 323.556C549.375 323.292 549.867 323.16 550.467 323.16H555.687ZM570.379 329.748C572.563 329.748 574.243 329.988 575.419 330.468C576.619 330.924 577.423 331.608 577.831 332.52C578.239 333.432 578.335 334.56 578.119 335.904C577.951 337.008 577.579 337.884 577.003 338.532C576.451 339.156 575.683 339.624 574.699 339.936C573.715 340.248 572.467 340.464 570.955 340.584L561.883 341.34L562.279 338.424L569.947 337.668C570.595 337.596 571.123 337.5 571.531 337.38C571.939 337.236 572.263 337.02 572.503 336.732C572.743 336.42 572.911 335.976 573.007 335.4C573.079 334.824 573.031 334.404 572.863 334.14C572.695 333.852 572.395 333.672 571.963 333.6C571.531 333.504 570.955 333.456 570.235 333.456C569.491 333.456 568.867 333.54 568.363 333.708C567.859 333.852 567.439 334.116 567.103 334.5C566.767 334.86 566.491 335.388 566.275 336.084C566.059 336.756 565.855 337.632 565.663 338.712C565.423 340.272 565.387 341.448 565.555 342.24C565.723 343.032 566.095 343.56 566.671 343.824C567.247 344.088 568.051 344.22 569.083 344.22C569.659 344.22 570.355 344.208 571.171 344.184C571.987 344.136 572.815 344.088 573.655 344.04C574.519 343.968 575.299 343.896 575.995 343.824L576.355 347.136C575.635 347.448 574.819 347.7 573.907 347.892C572.995 348.084 572.071 348.216 571.135 348.288C570.199 348.384 569.323 348.432 568.507 348.432C566.131 348.432 564.283 348.072 562.963 347.352C561.667 346.632 560.803 345.564 560.371 344.148C559.963 342.708 559.879 340.932 560.119 338.82C560.335 336.996 560.695 335.496 561.199 334.32C561.727 333.144 562.399 332.232 563.215 331.584C564.055 330.912 565.063 330.444 566.239 330.18C567.439 329.892 568.819 329.748 570.379 329.748ZM590.844 329.748C591.468 329.748 592.164 329.784 592.932 329.856C593.724 329.904 594.516 329.976 595.308 330.072C596.124 330.168 596.88 330.276 597.576 330.396C598.296 330.516 598.884 330.636 599.34 330.756L595.74 333.6C594.78 333.576 593.892 333.552 593.076 333.528C592.284 333.504 591.54 333.492 590.844 333.492C590.052 333.492 589.38 333.552 588.828 333.672C588.276 333.792 587.82 334.032 587.46 334.392C587.1 334.752 586.8 335.28 586.56 335.976C586.32 336.672 586.116 337.608 585.948 338.784C585.732 340.272 585.612 341.412 585.588 342.204C585.588 342.972 585.732 343.5 586.02 343.788C586.308 344.076 586.764 344.208 587.388 344.184C588.036 344.16 588.708 343.944 589.404 343.536C590.124 343.128 590.832 342.576 591.528 341.88C592.248 341.16 592.932 340.356 593.58 339.468L594.48 341.196C594 342.612 593.316 343.86 592.428 344.94C591.564 345.996 590.544 346.824 589.368 347.424C588.192 348.024 586.884 348.36 585.444 348.432C583.884 348.48 582.696 348.168 581.88 347.496C581.064 346.8 580.56 345.72 580.368 344.256C580.176 342.792 580.236 340.956 580.548 338.748C580.86 336.708 581.304 335.088 581.88 333.888C582.456 332.664 583.164 331.764 584.004 331.188C584.868 330.588 585.864 330.204 586.992 330.036C588.144 329.844 589.428 329.748 590.844 329.748ZM594.12 330.432L599.34 330.756L596.928 348H592.788L592.896 343.968L592.248 343.536L594.12 330.432ZM610.276 329.748C611.164 329.748 612.112 329.784 613.12 329.856C614.128 329.928 615.1 330.012 616.036 330.108C616.996 330.204 617.824 330.312 618.52 330.432L618.016 333.708C616.864 333.684 615.712 333.672 614.56 333.672C613.432 333.648 612.28 333.636 611.104 333.636C610.192 333.636 609.46 333.66 608.908 333.708C608.38 333.732 607.996 333.816 607.756 333.96C607.516 334.104 607.372 334.356 607.324 334.716C607.276 335.148 607.396 335.484 607.684 335.724C607.996 335.964 608.524 336.216 609.268 336.48L613.696 338.064C614.632 338.4 615.4 338.796 616 339.252C616.6 339.708 617.02 340.272 617.26 340.944C617.524 341.616 617.596 342.432 617.476 343.392C617.308 344.832 616.852 345.912 616.108 346.632C615.388 347.328 614.416 347.796 613.192 348.036C611.992 348.276 610.528 348.396 608.8 348.396C607.864 348.396 606.988 348.372 606.172 348.324C605.38 348.276 604.564 348.204 603.724 348.108C602.884 348.012 601.924 347.892 600.844 347.748L601.348 344.436C601.78 344.46 602.32 344.484 602.968 344.508C603.64 344.508 604.336 344.52 605.056 344.544C605.8 344.544 606.508 344.544 607.18 344.544C608.548 344.52 609.592 344.472 610.312 344.4C611.032 344.328 611.536 344.208 611.824 344.04C612.136 343.848 612.316 343.572 612.364 343.212C612.412 342.9 612.364 342.66 612.22 342.492C612.1 342.324 611.872 342.168 611.536 342.024C611.224 341.88 610.804 341.712 610.276 341.52L605.92 339.9C604.96 339.54 604.18 339.108 603.58 338.604C603.004 338.076 602.608 337.464 602.392 336.768C602.176 336.048 602.128 335.232 602.248 334.32C602.416 333.216 602.776 332.328 603.328 331.656C603.904 330.984 604.756 330.504 605.884 330.216C607.012 329.904 608.476 329.748 610.276 329.748ZM627.892 330.216L626.2 341.988C626.104 342.732 626.176 343.248 626.416 343.536C626.68 343.824 627.1 343.968 627.676 343.968C628.516 343.968 629.344 343.728 630.16 343.248C630.976 342.768 631.996 342 633.22 340.944L634.012 343.608C632.428 345.264 630.94 346.488 629.548 347.28C628.156 348.072 626.752 348.468 625.336 348.468C623.584 348.468 622.312 348.024 621.52 347.136C620.752 346.248 620.488 345.012 620.728 343.428L622.564 330.216H627.892ZM639.592 330.216L637.144 348H633.004L633.04 343.176L632.608 342.708L634.336 330.216H639.592ZM648.046 330.216L648.082 334.464L648.55 334.968L646.75 348H641.422L643.942 330.216H648.046ZM656.758 329.748L655.606 334.644H654.31C653.47 334.644 652.558 334.836 651.574 335.22C650.614 335.604 649.402 336.156 647.938 336.876L647.722 333.78C649.138 332.46 650.518 331.464 651.862 330.792C653.206 330.096 654.478 329.748 655.678 329.748H656.758ZM667.449 329.748C668.073 329.748 668.769 329.784 669.537 329.856C670.329 329.904 671.121 329.976 671.913 330.072C672.729 330.168 673.485 330.276 674.181 330.396C674.901 330.516 675.489 330.636 675.945 330.756L672.345 333.6C671.385 333.576 670.497 333.552 669.681 333.528C668.889 333.504 668.145 333.492 667.449 333.492C666.657 333.492 665.985 333.552 665.433 333.672C664.881 333.792 664.425 334.032 664.065 334.392C663.705 334.752 663.405 335.28 663.165 335.976C662.925 336.672 662.721 337.608 662.553 338.784C662.337 340.272 662.217 341.412 662.193 342.204C662.193 342.972 662.337 343.5 662.625 343.788C662.913 344.076 663.369 344.208 663.993 344.184C664.641 344.16 665.313 343.944 666.009 343.536C666.729 343.128 667.437 342.576 668.133 341.88C668.853 341.16 669.537 340.356 670.185 339.468L671.085 341.196C670.605 342.612 669.921 343.86 669.033 344.94C668.169 345.996 667.149 346.824 665.973 347.424C664.797 348.024 663.489 348.36 662.049 348.432C660.489 348.48 659.301 348.168 658.485 347.496C657.669 346.8 657.165 345.72 656.973 344.256C656.781 342.792 656.841 340.956 657.153 338.748C657.465 336.708 657.909 335.088 658.485 333.888C659.061 332.664 659.769 331.764 660.609 331.188C661.473 330.588 662.469 330.204 663.597 330.036C664.749 329.844 666.033 329.748 667.449 329.748ZM670.725 330.432L675.945 330.756L673.533 348H669.393L669.501 343.968L668.853 343.536L670.725 330.432ZM691.885 329.748C693.301 329.748 694.417 330.06 695.233 330.684C696.073 331.308 696.625 332.316 696.889 333.708C697.153 335.076 697.117 336.924 696.781 339.252C696.541 340.836 696.205 342.204 695.773 343.356C695.341 344.508 694.753 345.468 694.009 346.236C693.289 346.98 692.377 347.532 691.273 347.892C690.193 348.252 688.873 348.432 687.313 348.432C686.641 348.432 685.873 348.396 685.009 348.324C684.169 348.276 683.305 348.192 682.417 348.072C681.553 347.952 680.725 347.808 679.933 347.64C679.141 347.472 678.469 347.268 677.917 347.028L681.769 344.256C682.297 344.328 682.861 344.4 683.461 344.472C684.085 344.52 684.673 344.568 685.225 344.616C685.777 344.64 686.221 344.64 686.557 344.616C687.397 344.616 688.081 344.544 688.609 344.4C689.161 344.232 689.605 343.944 689.941 343.536C690.277 343.128 690.553 342.552 690.769 341.808C691.009 341.04 691.213 340.056 691.381 338.856C691.573 337.536 691.645 336.528 691.597 335.832C691.573 335.136 691.417 334.668 691.129 334.428C690.865 334.164 690.433 334.032 689.833 334.032C688.969 334.032 688.033 334.332 687.025 334.932C686.017 335.508 684.937 336.288 683.785 337.272L682.993 335.4C683.449 334.704 684.001 334.02 684.649 333.348C685.321 332.676 686.041 332.076 686.809 331.548C687.577 330.996 688.393 330.564 689.257 330.252C690.121 329.916 690.997 329.748 691.885 329.748ZM686.629 322.8L685.837 328.632C685.741 329.496 685.597 330.312 685.405 331.08C685.237 331.848 684.997 332.64 684.685 333.456L685.117 333.816L683.209 347.28L677.917 347.028L681.301 322.8H686.629ZM708.111 322.8L705.303 342.42C705.207 343.044 705.279 343.488 705.519 343.752C705.783 343.992 706.275 344.112 706.995 344.112H708.615L708.867 347.748C708.579 347.916 708.159 348.036 707.607 348.108C707.079 348.204 706.551 348.276 706.023 348.324C705.495 348.372 705.063 348.396 704.727 348.396C703.047 348.396 701.763 347.964 700.875 347.1C700.011 346.236 699.675 345.048 699.867 343.536L702.819 322.8H708.111ZM721.762 329.748C723.946 329.748 725.626 329.988 726.802 330.468C728.002 330.924 728.806 331.608 729.214 332.52C729.622 333.432 729.718 334.56 729.502 335.904C729.334 337.008 728.962 337.884 728.386 338.532C727.834 339.156 727.066 339.624 726.082 339.936C725.098 340.248 723.85 340.464 722.338 340.584L713.266 341.34L713.662 338.424L721.33 337.668C721.978 337.596 722.506 337.5 722.914 337.38C723.322 337.236 723.646 337.02 723.886 336.732C724.126 336.42 724.294 335.976 724.39 335.4C724.462 334.824 724.414 334.404 724.246 334.14C724.078 333.852 723.778 333.672 723.346 333.6C722.914 333.504 722.338 333.456 721.618 333.456C720.874 333.456 720.25 333.54 719.746 333.708C719.242 333.852 718.822 334.116 718.486 334.5C718.15 334.86 717.874 335.388 717.658 336.084C717.442 336.756 717.238 337.632 717.046 338.712C716.806 340.272 716.77 341.448 716.938 342.24C717.106 343.032 717.478 343.56 718.054 343.824C718.63 344.088 719.434 344.22 720.466 344.22C721.042 344.22 721.738 344.208 722.554 344.184C723.37 344.136 724.198 344.088 725.038 344.04C725.902 343.968 726.682 343.896 727.378 343.824L727.738 347.136C727.018 347.448 726.202 347.7 725.29 347.892C724.378 348.084 723.454 348.216 722.518 348.288C721.582 348.384 720.706 348.432 719.89 348.432C717.514 348.432 715.666 348.072 714.346 347.352C713.05 346.632 712.186 345.564 711.754 344.148C711.346 342.708 711.262 340.932 711.502 338.82C711.718 336.996 712.078 335.496 712.582 334.32C713.11 333.144 713.782 332.232 714.598 331.584C715.438 330.912 716.446 330.444 717.622 330.18C718.822 329.892 720.202 329.748 721.762 329.748ZM752.119 322.8C754.135 322.8 755.815 323.028 757.159 323.484C758.503 323.94 759.463 324.72 760.039 325.824C760.639 326.928 760.807 328.452 760.543 330.396C760.399 331.476 760.123 332.448 759.715 333.312C759.331 334.152 758.755 334.836 757.987 335.364C757.219 335.868 756.211 336.192 754.963 336.336L754.927 336.552C755.359 336.624 755.779 336.804 756.187 337.092C756.595 337.38 756.955 337.788 757.267 338.316C757.579 338.82 757.783 339.504 757.879 340.368L759.139 348H753.487L752.443 340.296C752.347 339.48 752.131 338.94 751.795 338.676C751.483 338.412 750.991 338.28 750.319 338.28C748.639 338.256 747.235 338.244 746.107 338.244C745.003 338.22 744.079 338.208 743.335 338.208C742.591 338.184 741.919 338.16 741.319 338.136L741.787 334.14H750.715C751.675 334.14 752.443 334.032 753.019 333.816C753.595 333.6 754.039 333.216 754.351 332.664C754.687 332.088 754.927 331.296 755.071 330.288C755.191 329.424 755.179 328.752 755.035 328.272C754.891 327.768 754.579 327.42 754.099 327.228C753.619 327.036 752.935 326.94 752.047 326.94C749.743 326.94 747.799 326.952 746.215 326.976C744.655 327 743.599 327.036 743.047 327.084L742.867 323.16C743.875 323.04 744.823 322.956 745.711 322.908C746.599 322.86 747.547 322.836 748.555 322.836C749.563 322.812 750.751 322.8 752.119 322.8ZM748.231 323.16L744.739 348H739.375L742.867 323.16H748.231ZM772.844 329.748C775.028 329.748 776.708 329.988 777.884 330.468C779.084 330.924 779.888 331.608 780.296 332.52C780.704 333.432 780.8 334.56 780.584 335.904C780.416 337.008 780.044 337.884 779.468 338.532C778.916 339.156 778.148 339.624 777.164 339.936C776.18 340.248 774.932 340.464 773.42 340.584L764.348 341.34L764.744 338.424L772.412 337.668C773.06 337.596 773.588 337.5 773.996 337.38C774.404 337.236 774.728 337.02 774.968 336.732C775.208 336.42 775.376 335.976 775.472 335.4C775.544 334.824 775.496 334.404 775.328 334.14C775.16 333.852 774.86 333.672 774.428 333.6C773.996 333.504 773.42 333.456 772.7 333.456C771.956 333.456 771.332 333.54 770.828 333.708C770.324 333.852 769.904 334.116 769.568 334.5C769.232 334.86 768.956 335.388 768.74 336.084C768.524 336.756 768.32 337.632 768.128 338.712C767.888 340.272 767.852 341.448 768.02 342.24C768.188 343.032 768.56 343.56 769.136 343.824C769.712 344.088 770.516 344.22 771.548 344.22C772.124 344.22 772.82 344.208 773.636 344.184C774.452 344.136 775.28 344.088 776.12 344.04C776.984 343.968 777.764 343.896 778.46 343.824L778.82 347.136C778.1 347.448 777.284 347.7 776.372 347.892C775.46 348.084 774.536 348.216 773.6 348.288C772.664 348.384 771.788 348.432 770.972 348.432C768.596 348.432 766.748 348.072 765.428 347.352C764.132 346.632 763.268 345.564 762.836 344.148C762.428 342.708 762.344 340.932 762.584 338.82C762.8 336.996 763.16 335.496 763.664 334.32C764.192 333.144 764.864 332.232 765.68 331.584C766.52 330.912 767.528 330.444 768.704 330.18C769.904 329.892 771.284 329.748 772.844 329.748ZM791.401 329.748C792.289 329.748 793.237 329.784 794.245 329.856C795.253 329.928 796.225 330.012 797.161 330.108C798.121 330.204 798.949 330.312 799.645 330.432L799.141 333.708C797.989 333.684 796.837 333.672 795.685 333.672C794.557 333.648 793.405 333.636 792.229 333.636C791.317 333.636 790.585 333.66 790.033 333.708C789.505 333.732 789.121 333.816 788.881 333.96C788.641 334.104 788.497 334.356 788.449 334.716C788.401 335.148 788.521 335.484 788.809 335.724C789.121 335.964 789.649 336.216 790.393 336.48L794.821 338.064C795.757 338.4 796.525 338.796 797.125 339.252C797.725 339.708 798.145 340.272 798.385 340.944C798.649 341.616 798.721 342.432 798.601 343.392C798.433 344.832 797.977 345.912 797.233 346.632C796.513 347.328 795.541 347.796 794.317 348.036C793.117 348.276 791.653 348.396 789.925 348.396C788.989 348.396 788.113 348.372 787.297 348.324C786.505 348.276 785.689 348.204 784.849 348.108C784.009 348.012 783.049 347.892 781.969 347.748L782.473 344.436C782.905 344.46 783.445 344.484 784.093 344.508C784.765 344.508 785.461 344.52 786.181 344.544C786.925 344.544 787.633 344.544 788.305 344.544C789.673 344.52 790.717 344.472 791.437 344.4C792.157 344.328 792.661 344.208 792.949 344.04C793.261 343.848 793.441 343.572 793.489 343.212C793.537 342.9 793.489 342.66 793.345 342.492C793.225 342.324 792.997 342.168 792.661 342.024C792.349 341.88 791.929 341.712 791.401 341.52L787.045 339.9C786.085 339.54 785.305 339.108 784.705 338.604C784.129 338.076 783.733 337.464 783.517 336.768C783.301 336.048 783.253 335.232 783.373 334.32C783.541 333.216 783.901 332.328 784.453 331.656C785.029 330.984 785.881 330.504 787.009 330.216C788.137 329.904 789.601 329.748 791.401 329.748ZM809.017 330.216L807.325 341.988C807.229 342.732 807.301 343.248 807.541 343.536C807.805 343.824 808.225 343.968 808.801 343.968C809.641 343.968 810.469 343.728 811.285 343.248C812.101 342.768 813.121 342 814.345 340.944L815.137 343.608C813.553 345.264 812.065 346.488 810.673 347.28C809.281 348.072 807.877 348.468 806.461 348.468C804.709 348.468 803.437 348.024 802.645 347.136C801.877 346.248 801.613 345.012 801.853 343.428L803.689 330.216H809.017ZM820.717 330.216L818.269 348H814.129L814.165 343.176L813.733 342.708L815.461 330.216H820.717ZM831.439 322.8L828.631 342.42C828.535 343.044 828.607 343.488 828.847 343.752C829.111 343.992 829.603 344.112 830.323 344.112H831.943L832.195 347.748C831.907 347.916 831.487 348.036 830.935 348.108C830.407 348.204 829.879 348.276 829.351 348.324C828.823 348.372 828.391 348.396 828.055 348.396C826.375 348.396 825.091 347.964 824.203 347.1C823.339 346.236 823.003 345.048 823.195 343.536L826.147 322.8H831.439ZM843.913 325.284L841.465 342.42C841.369 343.068 841.429 343.512 841.645 343.752C841.861 343.992 842.317 344.112 843.013 344.112H845.425L845.677 347.748C845.221 347.892 844.669 348.012 844.021 348.108C843.397 348.204 842.785 348.276 842.185 348.324C841.585 348.372 841.093 348.396 840.709 348.396C839.053 348.396 837.805 347.952 836.965 347.064C836.125 346.176 835.813 344.964 836.029 343.428L838.657 325.284H843.913ZM848.161 330.216L847.657 333.708H834.301L834.697 330.396L838.189 330.216H848.161ZM857.565 329.748C858.453 329.748 859.401 329.784 860.409 329.856C861.417 329.928 862.389 330.012 863.325 330.108C864.285 330.204 865.113 330.312 865.809 330.432L865.305 333.708C864.153 333.684 863.001 333.672 861.849 333.672C860.721 333.648 859.569 333.636 858.393 333.636C857.481 333.636 856.749 333.66 856.197 333.708C855.669 333.732 855.285 333.816 855.045 333.96C854.805 334.104 854.661 334.356 854.613 334.716C854.565 335.148 854.685 335.484 854.973 335.724C855.285 335.964 855.813 336.216 856.557 336.48L860.985 338.064C861.921 338.4 862.689 338.796 863.289 339.252C863.889 339.708 864.309 340.272 864.549 340.944C864.813 341.616 864.885 342.432 864.765 343.392C864.597 344.832 864.141 345.912 863.397 346.632C862.677 347.328 861.705 347.796 860.481 348.036C859.281 348.276 857.817 348.396 856.089 348.396C855.153 348.396 854.277 348.372 853.461 348.324C852.669 348.276 851.853 348.204 851.013 348.108C850.173 348.012 849.213 347.892 848.133 347.748L848.637 344.436C849.069 344.46 849.609 344.484 850.257 344.508C850.929 344.508 851.625 344.52 852.345 344.544C853.089 344.544 853.797 344.544 854.469 344.544C855.837 344.52 856.881 344.472 857.601 344.4C858.321 344.328 858.825 344.208 859.113 344.04C859.425 343.848 859.605 343.572 859.653 343.212C859.701 342.9 859.653 342.66 859.509 342.492C859.389 342.324 859.161 342.168 858.825 342.024C858.513 341.88 858.093 341.712 857.565 341.52L853.209 339.9C852.249 339.54 851.469 339.108 850.869 338.604C850.293 338.076 849.897 337.464 849.681 336.768C849.465 336.048 849.417 335.232 849.537 334.32C849.705 333.216 850.065 332.328 850.617 331.656C851.193 330.984 852.045 330.504 853.173 330.216C854.301 329.904 855.765 329.748 857.565 329.748Z" fill="#1B1C17"/>
<path d="M372.384 227.692C373.68 227.692 375.036 227.764 376.452 227.908C377.868 228.052 379.224 228.316 380.52 228.7L380.016 232.336C379.248 232.288 378.42 232.264 377.532 232.264C376.668 232.24 375.78 232.228 374.868 232.228C373.956 232.204 373.032 232.192 372.096 232.192C371.496 232.192 370.956 232.216 370.476 232.264C370.02 232.288 369.624 232.372 369.288 232.516C368.976 232.66 368.724 232.9 368.532 233.236C368.34 233.548 368.196 233.992 368.1 234.568C368.052 235.048 368.064 235.456 368.136 235.792C368.232 236.104 368.436 236.38 368.748 236.62C369.06 236.836 369.528 237.076 370.152 237.34L374.652 239.212C375.972 239.764 376.968 240.376 377.64 241.048C378.312 241.72 378.744 242.512 378.936 243.424C379.128 244.312 379.14 245.368 378.972 246.592C378.756 248.44 378.288 249.868 377.568 250.876C376.848 251.86 375.816 252.544 374.472 252.928C373.128 253.288 371.364 253.468 369.18 253.468C368.292 253.468 367.068 253.396 365.508 253.252C363.972 253.132 362.316 252.88 360.54 252.496L361.116 248.608C362.508 248.632 363.72 248.668 364.752 248.716C365.784 248.74 366.648 248.764 367.344 248.788C368.04 248.788 368.592 248.788 369 248.788C370.056 248.788 370.896 248.728 371.52 248.608C372.144 248.464 372.612 248.224 372.924 247.888C373.236 247.528 373.44 247 373.536 246.304C373.632 245.752 373.632 245.332 373.536 245.044C373.44 244.732 373.248 244.468 372.96 244.252C372.672 244.036 372.252 243.82 371.7 243.604L366.984 241.588C365.712 241.012 364.74 240.376 364.068 239.68C363.396 238.96 362.964 238.156 362.772 237.268C362.58 236.38 362.544 235.396 362.664 234.316C362.856 232.924 363.192 231.796 363.672 230.932C364.152 230.068 364.788 229.408 365.58 228.952C366.396 228.472 367.368 228.148 368.496 227.98C369.624 227.788 370.92 227.692 372.384 227.692ZM389.306 235.216L387.614 246.988C387.518 247.732 387.59 248.248 387.83 248.536C388.094 248.824 388.514 248.968 389.09 248.968C389.93 248.968 390.758 248.728 391.574 248.248C392.39 247.768 393.41 247 394.634 245.944L395.426 248.608C393.842 250.264 392.354 251.488 390.962 252.28C389.57 253.072 388.166 253.468 386.75 253.468C384.998 253.468 383.726 253.024 382.934 252.136C382.166 251.248 381.902 250.012 382.142 248.428L383.978 235.216H389.306ZM401.006 235.216L398.558 253H394.418L394.454 248.176L394.022 247.708L395.75 235.216H401.006ZM416.984 234.784C418.352 234.784 419.444 235.12 420.26 235.792C421.076 236.44 421.604 237.472 421.844 238.888C422.108 240.304 422.084 242.164 421.772 244.468C421.508 246.388 421.124 247.948 420.62 249.148C420.14 250.324 419.54 251.224 418.82 251.848C418.124 252.472 417.308 252.892 416.372 253.108C415.46 253.348 414.428 253.468 413.276 253.468C412.7 253.468 412.04 253.444 411.296 253.396C410.576 253.348 409.832 253.264 409.064 253.144C408.32 253.048 407.6 252.916 406.904 252.748C406.208 252.58 405.608 252.388 405.104 252.172L405.896 249.832C406.976 249.856 407.96 249.88 408.848 249.904C409.736 249.928 410.612 249.94 411.476 249.94C412.364 249.94 413.084 249.868 413.636 249.724C414.212 249.58 414.668 249.316 415.004 248.932C415.34 248.548 415.604 247.996 415.796 247.276C415.988 246.556 416.168 245.62 416.336 244.468C416.552 242.98 416.648 241.852 416.624 241.084C416.624 240.292 416.48 239.752 416.192 239.464C415.928 239.176 415.496 239.032 414.896 239.032C414.416 239.032 413.84 239.188 413.168 239.5C412.496 239.788 411.8 240.196 411.08 240.724C410.36 241.252 409.676 241.876 409.028 242.596L408.056 240.436C408.392 239.908 408.872 239.332 409.496 238.708C410.12 238.06 410.828 237.436 411.62 236.836C412.436 236.236 413.3 235.744 414.212 235.36C415.148 234.976 416.072 234.784 416.984 234.784ZM409.568 235.216L409.424 239.464L409.964 239.896L408.38 252.064L408.02 252.64C408.02 253.264 408.008 253.864 407.984 254.44C407.96 255.04 407.888 255.676 407.768 256.348L407.192 259.876H401.864L405.356 235.216H409.568ZM435.083 234.748C437.267 234.748 438.947 234.988 440.123 235.468C441.323 235.924 442.127 236.608 442.535 237.52C442.943 238.432 443.039 239.56 442.823 240.904C442.655 242.008 442.283 242.884 441.707 243.532C441.155 244.156 440.387 244.624 439.403 244.936C438.419 245.248 437.171 245.464 435.659 245.584L426.587 246.34L426.983 243.424L434.651 242.668C435.299 242.596 435.827 242.5 436.235 242.38C436.643 242.236 436.967 242.02 437.207 241.732C437.447 241.42 437.615 240.976 437.711 240.4C437.783 239.824 437.735 239.404 437.567 239.14C437.399 238.852 437.099 238.672 436.667 238.6C436.235 238.504 435.659 238.456 434.939 238.456C434.195 238.456 433.571 238.54 433.066 238.708C432.563 238.852 432.143 239.116 431.807 239.5C431.471 239.86 431.195 240.388 430.979 241.084C430.763 241.756 430.559 242.632 430.367 243.712C430.127 245.272 430.091 246.448 430.259 247.24C430.427 248.032 430.799 248.56 431.375 248.824C431.951 249.088 432.755 249.22 433.787 249.22C434.363 249.22 435.059 249.208 435.875 249.184C436.691 249.136 437.519 249.088 438.359 249.04C439.223 248.968 440.003 248.896 440.699 248.824L441.059 252.136C440.339 252.448 439.523 252.7 438.611 252.892C437.699 253.084 436.775 253.216 435.839 253.288C434.903 253.384 434.027 253.432 433.211 253.432C430.835 253.432 428.987 253.072 427.667 252.352C426.371 251.632 425.507 250.564 425.075 249.148C424.667 247.708 424.583 245.932 424.823 243.82C425.039 241.996 425.399 240.496 425.903 239.32C426.431 238.144 427.103 237.232 427.919 236.584C428.759 235.912 429.767 235.444 430.943 235.18C432.143 234.892 433.523 234.748 435.083 234.748ZM451.191 235.216L451.227 239.464L451.695 239.968L449.895 253H444.567L447.087 235.216H451.191ZM459.903 234.748L458.751 239.644H457.455C456.615 239.644 455.703 239.836 454.719 240.22C453.759 240.604 452.547 241.156 451.083 241.876L450.867 238.78C452.283 237.46 453.663 236.464 455.007 235.792C456.351 235.096 457.623 234.748 458.823 234.748H459.903ZM470.051 234.748C471.155 234.748 472.343 234.844 473.615 235.036C474.887 235.204 476.003 235.492 476.963 235.9L476.207 239.14C475.151 239.116 474.143 239.104 473.183 239.104C472.223 239.08 471.407 239.068 470.735 239.068C469.679 239.068 468.815 239.212 468.143 239.5C467.471 239.788 466.955 240.292 466.595 241.012C466.235 241.732 465.971 242.764 465.803 244.108C465.611 245.5 465.587 246.556 465.731 247.276C465.875 247.996 466.223 248.488 466.775 248.752C467.351 249.016 468.155 249.148 469.187 249.148C469.619 249.148 470.135 249.136 470.735 249.112C471.359 249.088 472.031 249.064 472.751 249.04C473.471 248.992 474.167 248.92 474.839 248.824L475.199 252.28C474.167 252.688 473.027 252.976 471.779 253.144C470.555 253.336 469.379 253.432 468.251 253.432C466.163 253.432 464.471 253.12 463.175 252.496C461.879 251.848 460.991 250.828 460.511 249.436C460.031 248.02 459.947 246.172 460.259 243.892C460.571 241.684 461.087 239.92 461.807 238.6C462.527 237.256 463.547 236.284 464.867 235.684C466.187 235.06 467.915 234.748 470.051 234.748ZM492.723 234.748C494.379 234.748 495.603 235.18 496.395 236.044C497.211 236.908 497.499 238.156 497.259 239.788L495.387 253H490.095L491.751 241.228C491.871 240.436 491.835 239.908 491.643 239.644C491.451 239.38 491.055 239.248 490.455 239.248C489.591 239.248 488.715 239.488 487.827 239.968C486.939 240.448 485.859 241.204 484.587 242.236L483.975 239.536C485.583 237.904 487.107 236.704 488.547 235.936C490.011 235.144 491.403 234.748 492.723 234.748ZM486.927 227.8L486.063 234.064C485.919 235.192 485.691 236.296 485.379 237.376C485.091 238.456 484.827 239.308 484.587 239.932L485.127 240.364L483.399 253H478.071L481.635 227.8H486.927ZM510.602 234.748C511.226 234.748 511.922 234.784 512.69 234.856C513.482 234.904 514.274 234.976 515.066 235.072C515.882 235.168 516.638 235.276 517.334 235.396C518.054 235.516 518.642 235.636 519.098 235.756L515.498 238.6C514.538 238.576 513.65 238.552 512.834 238.528C512.042 238.504 511.298 238.492 510.602 238.492C509.81 238.492 509.138 238.552 508.586 238.672C508.034 238.792 507.578 239.032 507.218 239.392C506.858 239.752 506.558 240.28 506.318 240.976C506.078 241.672 505.874 242.608 505.706 243.784C505.49 245.272 505.37 246.412 505.346 247.204C505.346 247.972 505.49 248.5 505.778 248.788C506.066 249.076 506.522 249.208 507.146 249.184C507.794 249.16 508.466 248.944 509.162 248.536C509.882 248.128 510.59 247.576 511.286 246.88C512.006 246.16 512.69 245.356 513.338 244.468L514.238 246.196C513.758 247.612 513.074 248.86 512.186 249.94C511.322 250.996 510.302 251.824 509.126 252.424C507.95 253.024 506.642 253.36 505.202 253.432C503.642 253.48 502.454 253.168 501.638 252.496C500.822 251.8 500.318 250.72 500.125 249.256C499.934 247.792 499.994 245.956 500.306 243.748C500.618 241.708 501.062 240.088 501.638 238.888C502.214 237.664 502.922 236.764 503.762 236.188C504.626 235.588 505.622 235.204 506.75 235.036C507.902 234.844 509.186 234.748 510.602 234.748ZM513.878 235.432L519.098 235.756L516.686 253H512.546L512.654 248.968L512.006 248.536L513.878 235.432ZM527.585 235.216L527.621 239.464L528.089 239.968L526.289 253H520.961L523.481 235.216H527.585ZM536.297 234.748L535.145 239.644H533.849C533.009 239.644 532.097 239.836 531.113 240.22C530.153 240.604 528.941 241.156 527.477 241.876L527.261 238.78C528.677 237.46 530.057 236.464 531.401 235.792C532.745 235.096 534.017 234.748 535.217 234.748H536.297ZM550.408 235.432L555.628 235.756L553.432 251.2C553.192 252.976 552.772 254.452 552.172 255.628C551.572 256.828 550.804 257.776 549.868 258.472C548.956 259.168 547.888 259.66 546.664 259.948C545.464 260.26 544.144 260.428 542.704 260.452C542.296 260.452 541.672 260.44 540.832 260.416C540.016 260.392 539.14 260.308 538.204 260.164C537.268 260.02 536.428 259.816 535.684 259.552L536.044 256.492C536.476 256.492 536.908 256.492 537.34 256.492C537.772 256.516 538.288 256.528 538.888 256.528C539.512 256.528 540.268 256.516 541.156 256.492C542.86 256.468 544.324 256.204 545.548 255.7C546.796 255.196 547.636 254.296 548.068 253C548.38 252.256 548.608 251.536 548.752 250.84C548.896 250.12 549.148 249.448 549.508 248.824L548.5 248.428L550.408 235.432ZM545.872 234.748C547.12 234.748 548.356 234.796 549.58 234.892C550.828 234.988 551.968 235.12 553 235.288C554.056 235.432 554.92 235.588 555.592 235.756L551.992 238.6C551.032 238.576 550.144 238.552 549.328 238.528C548.512 238.504 547.744 238.492 547.024 238.492C546.136 238.492 545.404 238.564 544.828 238.708C544.276 238.852 543.832 239.116 543.496 239.5C543.16 239.86 542.884 240.388 542.668 241.084C542.476 241.78 542.296 242.68 542.128 243.784C541.888 245.248 541.768 246.388 541.768 247.204C541.792 247.996 541.948 248.536 542.236 248.824C542.548 249.112 543.004 249.232 543.604 249.184C544.276 249.136 544.96 248.92 545.656 248.536C546.352 248.128 547.048 247.576 547.744 246.88C548.464 246.184 549.16 245.38 549.832 244.468L550.768 246.16C550.288 247.552 549.592 248.776 548.68 249.832C547.792 250.864 546.748 251.68 545.548 252.28C544.348 252.88 543.04 253.204 541.624 253.252C540.136 253.276 538.972 252.964 538.132 252.316C537.292 251.644 536.764 250.6 536.548 249.184C536.332 247.744 536.392 245.932 536.728 243.748C537.04 241.684 537.46 240.052 537.988 238.852C538.516 237.652 539.152 236.764 539.896 236.188C540.664 235.588 541.54 235.204 542.524 235.036C543.532 234.844 544.648 234.748 545.872 234.748ZM568.325 234.748C570.509 234.748 572.189 234.988 573.365 235.468C574.565 235.924 575.369 236.608 575.777 237.52C576.185 238.432 576.281 239.56 576.065 240.904C575.897 242.008 575.525 242.884 574.949 243.532C574.397 244.156 573.629 244.624 572.645 244.936C571.661 245.248 570.413 245.464 568.901 245.584L559.829 246.34L560.225 243.424L567.893 242.668C568.541 242.596 569.069 242.5 569.477 242.38C569.885 242.236 570.209 242.02 570.449 241.732C570.689 241.42 570.857 240.976 570.953 240.4C571.025 239.824 570.977 239.404 570.809 239.14C570.641 238.852 570.341 238.672 569.909 238.6C569.477 238.504 568.901 238.456 568.181 238.456C567.437 238.456 566.813 238.54 566.309 238.708C565.805 238.852 565.385 239.116 565.049 239.5C564.713 239.86 564.437 240.388 564.221 241.084C564.005 241.756 563.801 242.632 563.609 243.712C563.369 245.272 563.333 246.448 563.501 247.24C563.669 248.032 564.041 248.56 564.617 248.824C565.193 249.088 565.997 249.22 567.029 249.22C567.605 249.22 568.301 249.208 569.117 249.184C569.933 249.136 570.761 249.088 571.601 249.04C572.465 248.968 573.245 248.896 573.941 248.824L574.301 252.136C573.581 252.448 572.765 252.7 571.853 252.892C570.941 253.084 570.017 253.216 569.081 253.288C568.145 253.384 567.269 253.432 566.453 253.432C564.077 253.432 562.229 253.072 560.909 252.352C559.613 251.632 558.749 250.564 558.317 249.148C557.909 247.708 557.825 245.932 558.065 243.82C558.281 241.996 558.641 240.496 559.145 239.32C559.673 238.144 560.345 237.232 561.161 236.584C562.001 235.912 563.009 235.444 564.185 235.18C565.385 234.892 566.765 234.748 568.325 234.748ZM598.682 227.8C600.698 227.8 602.378 228.028 603.722 228.484C605.066 228.94 606.026 229.72 606.602 230.824C607.202 231.928 607.37 233.452 607.106 235.396C606.962 236.476 606.686 237.448 606.278 238.312C605.894 239.152 605.318 239.836 604.55 240.364C603.782 240.868 602.774 241.192 601.526 241.336L601.49 241.552C601.922 241.624 602.342 241.804 602.75 242.092C603.158 242.38 603.518 242.788 603.83 243.316C604.142 243.82 604.346 244.504 604.442 245.368L605.702 253H600.05L599.006 245.296C598.91 244.48 598.694 243.94 598.358 243.676C598.046 243.412 597.554 243.28 596.882 243.28C595.202 243.256 593.798 243.244 592.67 243.244C591.566 243.22 590.642 243.208 589.898 243.208C589.154 243.184 588.482 243.16 587.882 243.136L588.35 239.14H597.278C598.238 239.14 599.006 239.032 599.582 238.816C600.158 238.6 600.602 238.216 600.914 237.664C601.25 237.088 601.49 236.296 601.634 235.288C601.754 234.424 601.742 233.752 601.598 233.272C601.454 232.768 601.142 232.42 600.662 232.228C600.182 232.036 599.498 231.94 598.61 231.94C596.306 231.94 594.362 231.952 592.778 231.976C591.218 232 590.162 232.036 589.61 232.084L589.43 228.16C590.438 228.04 591.386 227.956 592.274 227.908C593.162 227.86 594.11 227.836 595.118 227.836C596.126 227.812 597.314 227.8 598.682 227.8ZM594.794 228.16L591.302 253H585.938L589.43 228.16H594.794ZM619.407 234.748C621.591 234.748 623.271 234.988 624.447 235.468C625.647 235.924 626.451 236.608 626.859 237.52C627.267 238.432 627.363 239.56 627.147 240.904C626.979 242.008 626.607 242.884 626.031 243.532C625.479 244.156 624.711 244.624 623.727 244.936C622.743 245.248 621.495 245.464 619.983 245.584L610.911 246.34L611.307 243.424L618.975 242.668C619.623 242.596 620.151 242.5 620.559 242.38C620.967 242.236 621.291 242.02 621.531 241.732C621.771 241.42 621.939 240.976 622.035 240.4C622.107 239.824 622.059 239.404 621.891 239.14C621.723 238.852 621.423 238.672 620.991 238.6C620.559 238.504 619.983 238.456 619.263 238.456C618.519 238.456 617.895 238.54 617.391 238.708C616.887 238.852 616.467 239.116 616.131 239.5C615.795 239.86 615.519 240.388 615.303 241.084C615.087 241.756 614.883 242.632 614.691 243.712C614.451 245.272 614.415 246.448 614.583 247.24C614.751 248.032 615.123 248.56 615.699 248.824C616.275 249.088 617.079 249.22 618.111 249.22C618.687 249.22 619.383 249.208 620.199 249.184C621.015 249.136 621.843 249.088 622.683 249.04C623.547 248.968 624.327 248.896 625.023 248.824L625.383 252.136C624.663 252.448 623.847 252.7 622.935 252.892C622.023 253.084 621.099 253.216 620.163 253.288C619.227 253.384 618.351 253.432 617.535 253.432C615.159 253.432 613.311 253.072 611.991 252.352C610.695 251.632 609.831 250.564 609.399 249.148C608.991 247.708 608.907 245.932 609.147 243.82C609.363 241.996 609.723 240.496 610.227 239.32C610.755 238.144 611.427 237.232 612.243 236.584C613.083 235.912 614.091 235.444 615.267 235.18C616.467 234.892 617.847 234.748 619.407 234.748ZM639.223 234.748C640.327 234.748 641.515 234.844 642.787 235.036C644.059 235.204 645.175 235.492 646.135 235.9L645.379 239.14C644.323 239.116 643.315 239.104 642.355 239.104C641.395 239.08 640.579 239.068 639.907 239.068C638.851 239.068 637.987 239.212 637.315 239.5C636.643 239.788 636.127 240.292 635.767 241.012C635.407 241.732 635.143 242.764 634.975 244.108C634.783 245.5 634.759 246.556 634.903 247.276C635.047 247.996 635.395 248.488 635.947 248.752C636.523 249.016 637.327 249.148 638.359 249.148C638.791 249.148 639.307 249.136 639.907 249.112C640.531 249.088 641.203 249.064 641.923 249.04C642.643 248.992 643.339 248.92 644.011 248.824L644.371 252.28C643.339 252.688 642.199 252.976 640.951 253.144C639.727 253.336 638.551 253.432 637.423 253.432C635.335 253.432 633.643 253.12 632.347 252.496C631.051 251.848 630.163 250.828 629.683 249.436C629.203 248.02 629.119 246.172 629.431 243.892C629.743 241.684 630.259 239.92 630.979 238.6C631.699 237.256 632.719 236.284 634.039 235.684C635.359 235.06 637.087 234.748 639.223 234.748ZM653.867 235.216L653.903 239.464L654.371 239.968L652.571 253H647.243L649.763 235.216H653.867ZM662.579 234.748L661.427 239.644H660.131C659.291 239.644 658.379 239.836 657.395 240.22C656.435 240.604 655.223 241.156 653.759 241.876L653.543 238.78C654.959 237.46 656.339 236.464 657.683 235.792C659.027 235.096 660.299 234.748 661.499 234.748H662.579ZM670.24 235.216L668.548 246.988C668.452 247.732 668.524 248.248 668.764 248.536C669.028 248.824 669.448 248.968 670.024 248.968C670.864 248.968 671.692 248.728 672.508 248.248C673.324 247.768 674.344 247 675.568 245.944L676.36 248.608C674.776 250.264 673.288 251.488 671.896 252.28C670.504 253.072 669.1 253.468 667.684 253.468C665.932 253.468 664.66 253.024 663.868 252.136C663.1 251.248 662.836 250.012 663.076 248.428L664.912 235.216H670.24ZM681.94 235.216L679.492 253H675.352L675.388 248.176L674.956 247.708L676.684 235.216H681.94ZM691.69 235.216L689.206 253H683.95L686.398 235.216H691.69ZM691.15 227.368C691.726 227.368 692.134 227.512 692.374 227.8C692.638 228.088 692.734 228.508 692.662 229.06L692.41 231.004C692.266 231.988 691.678 232.48 690.646 232.48H688.486C687.358 232.48 686.854 231.916 686.974 230.788L687.226 228.88C687.346 227.872 687.922 227.368 688.954 227.368H691.15ZM703.8 230.284L701.352 247.42C701.256 248.068 701.316 248.512 701.532 248.752C701.748 248.992 702.204 249.112 702.9 249.112H705.312L705.564 252.748C705.108 252.892 704.556 253.012 703.908 253.108C703.284 253.204 702.672 253.276 702.072 253.324C701.472 253.372 700.98 253.396 700.596 253.396C698.94 253.396 697.692 252.952 696.852 252.064C696.012 251.176 695.7 249.964 695.916 248.428L698.544 230.284H703.8ZM708.048 235.216L707.544 238.708H694.188L694.584 235.396L698.076 235.216H708.048ZM719.215 234.748C721.399 234.748 723.079 234.988 724.255 235.468C725.455 235.924 726.259 236.608 726.667 237.52C727.075 238.432 727.171 239.56 726.955 240.904C726.787 242.008 726.415 242.884 725.839 243.532C725.287 244.156 724.519 244.624 723.535 244.936C722.551 245.248 721.303 245.464 719.791 245.584L710.719 246.34L711.115 243.424L718.783 242.668C719.431 242.596 719.959 242.5 720.367 242.38C720.775 242.236 721.099 242.02 721.339 241.732C721.579 241.42 721.747 240.976 721.843 240.4C721.915 239.824 721.867 239.404 721.699 239.14C721.531 238.852 721.231 238.672 720.799 238.6C720.367 238.504 719.791 238.456 719.071 238.456C718.327 238.456 717.703 238.54 717.199 238.708C716.695 238.852 716.275 239.116 715.939 239.5C715.603 239.86 715.327 240.388 715.111 241.084C714.895 241.756 714.691 242.632 714.499 243.712C714.259 245.272 714.223 246.448 714.391 247.24C714.559 248.032 714.931 248.56 715.507 248.824C716.083 249.088 716.887 249.22 717.919 249.22C718.495 249.22 719.191 249.208 720.007 249.184C720.823 249.136 721.651 249.088 722.491 249.04C723.355 248.968 724.135 248.896 724.831 248.824L725.191 252.136C724.471 252.448 723.655 252.7 722.743 252.892C721.831 253.084 720.907 253.216 719.971 253.288C719.035 253.384 718.159 253.432 717.343 253.432C714.967 253.432 713.119 253.072 711.799 252.352C710.503 251.632 709.639 250.564 709.207 249.148C708.799 247.708 708.715 245.932 708.955 243.82C709.171 241.996 709.531 240.496 710.035 239.32C710.563 238.144 711.235 237.232 712.051 236.584C712.891 235.912 713.899 235.444 715.075 235.18C716.275 234.892 717.655 234.748 719.215 234.748ZM735.324 235.216L735.36 239.464L735.828 239.968L734.028 253H728.7L731.22 235.216H735.324ZM744.036 234.748L742.884 239.644H741.588C740.748 239.644 739.836 239.836 738.852 240.22C737.892 240.604 736.68 241.156 735.216 241.876L735 238.78C736.416 237.46 737.796 236.464 739.14 235.792C740.484 235.096 741.756 234.748 742.956 234.748H744.036ZM753.065 234.748C753.953 234.748 754.901 234.784 755.909 234.856C756.917 234.928 757.889 235.012 758.825 235.108C759.785 235.204 760.613 235.312 761.309 235.432L760.805 238.708C759.653 238.684 758.501 238.672 757.349 238.672C756.221 238.648 755.069 238.636 753.893 238.636C752.981 238.636 752.249 238.66 751.697 238.708C751.169 238.732 750.785 238.816 750.545 238.96C750.305 239.104 750.161 239.356 750.113 239.716C750.065 240.148 750.185 240.484 750.473 240.724C750.785 240.964 751.313 241.216 752.057 241.48L756.485 243.064C757.421 243.4 758.189 243.796 758.789 244.252C759.389 244.708 759.809 245.272 760.049 245.944C760.313 246.616 760.385 247.432 760.265 248.392C760.097 249.832 759.641 250.912 758.897 251.632C758.177 252.328 757.205 252.796 755.981 253.036C754.781 253.276 753.317 253.396 751.589 253.396C750.653 253.396 749.777 253.372 748.961 253.324C748.169 253.276 747.353 253.204 746.513 253.108C745.673 253.012 744.713 252.892 743.633 252.748L744.137 249.436C744.569 249.46 745.109 249.484 745.757 249.508C746.429 249.508 747.125 249.52 747.845 249.544C748.589 249.544 749.297 249.544 749.969 249.544C751.337 249.52 752.381 249.472 753.101 249.4C753.821 249.328 754.325 249.208 754.613 249.04C754.925 248.848 755.105 248.572 755.153 248.212C755.201 247.9 755.153 247.66 755.009 247.492C754.889 247.324 754.661 247.168 754.325 247.024C754.013 246.88 753.593 246.712 753.065 246.52L748.709 244.9C747.749 244.54 746.969 244.108 746.369 243.604C745.793 243.076 745.397 242.464 745.181 241.768C744.965 241.048 744.917 240.232 745.037 239.32C745.205 238.216 745.565 237.328 746.117 236.656C746.693 235.984 747.545 235.504 748.673 235.216C749.801 234.904 751.265 234.748 753.065 234.748Z" fill="#1B1C17"/>
<path d="M304.236 130.16C304.692 130.16 305.088 130.304 305.424 130.592C305.76 130.88 305.952 131.252 306 131.708L309.924 155H304.452L302.004 136.676C301.956 136.268 301.92 135.86 301.896 135.452C301.872 135.044 301.86 134.636 301.86 134.228H300.816C300.696 134.588 300.564 134.984 300.42 135.416C300.3 135.824 300.156 136.232 299.988 136.64L292.32 155H286.596L297.072 131.492C297.24 131.036 297.492 130.7 297.828 130.484C298.188 130.268 298.596 130.16 299.052 130.16H304.236ZM306.144 144.272L305.64 148.484H292.824L293.328 144.272H306.144ZM318.687 137.216L318.723 141.464L319.191 141.968L317.391 155H312.063L314.583 137.216H318.687ZM327.399 136.748L326.247 141.644H324.951C324.111 141.644 323.199 141.836 322.215 142.22C321.255 142.604 320.043 143.156 318.579 143.876L318.363 140.78C319.779 139.46 321.159 138.464 322.503 137.792C323.847 137.096 325.119 136.748 326.319 136.748H327.399ZM337.547 136.748C338.651 136.748 339.839 136.844 341.111 137.036C342.383 137.204 343.499 137.492 344.459 137.9L343.703 141.14C342.647 141.116 341.639 141.104 340.679 141.104C339.719 141.08 338.903 141.068 338.231 141.068C337.175 141.068 336.311 141.212 335.639 141.5C334.967 141.788 334.451 142.292 334.091 143.012C333.731 143.732 333.467 144.764 333.299 146.108C333.107 147.5 333.083 148.556 333.227 149.276C333.371 149.996 333.719 150.488 334.271 150.752C334.847 151.016 335.651 151.148 336.683 151.148C337.115 151.148 337.631 151.136 338.231 151.112C338.855 151.088 339.527 151.064 340.247 151.04C340.967 150.992 341.663 150.92 342.335 150.824L342.695 154.28C341.663 154.688 340.523 154.976 339.275 155.144C338.051 155.336 336.875 155.432 335.747 155.432C333.659 155.432 331.967 155.12 330.671 154.496C329.375 153.848 328.487 152.828 328.007 151.436C327.527 150.02 327.443 148.172 327.755 145.892C328.067 143.684 328.583 141.92 329.303 140.6C330.023 139.256 331.043 138.284 332.363 137.684C333.683 137.06 335.411 136.748 337.547 136.748ZM360.219 136.748C361.875 136.748 363.099 137.18 363.891 138.044C364.707 138.908 364.995 140.156 364.755 141.788L362.883 155H357.591L359.247 143.228C359.367 142.436 359.331 141.908 359.139 141.644C358.947 141.38 358.551 141.248 357.951 141.248C357.087 141.248 356.211 141.488 355.323 141.968C354.435 142.448 353.355 143.204 352.083 144.236L351.471 141.536C353.079 139.904 354.603 138.704 356.043 137.936C357.507 137.144 358.899 136.748 360.219 136.748ZM354.423 129.8L353.559 136.064C353.415 137.192 353.187 138.296 352.875 139.376C352.587 140.456 352.323 141.308 352.083 141.932L352.623 142.364L350.895 155H345.567L349.131 129.8H354.423ZM375.038 137.216L372.554 155H367.298L369.746 137.216H375.038ZM374.498 129.368C375.074 129.368 375.482 129.512 375.722 129.8C375.986 130.088 376.082 130.508 376.01 131.06L375.758 133.004C375.614 133.988 375.026 134.48 373.994 134.48H371.834C370.706 134.48 370.202 133.916 370.322 132.788L370.574 130.88C370.694 129.872 371.27 129.368 372.302 129.368H374.498ZM387.148 132.284L384.7 149.42C384.604 150.068 384.664 150.512 384.88 150.752C385.096 150.992 385.552 151.112 386.248 151.112H388.66L388.912 154.748C388.456 154.892 387.904 155.012 387.256 155.108C386.632 155.204 386.02 155.276 385.42 155.324C384.82 155.372 384.328 155.396 383.944 155.396C382.288 155.396 381.04 154.952 380.2 154.064C379.36 153.176 379.048 151.964 379.264 150.428L381.892 132.284H387.148ZM391.396 137.216L390.892 140.708H377.536L377.932 137.396L381.424 137.216H391.396ZM402.563 136.748C404.747 136.748 406.427 136.988 407.603 137.468C408.803 137.924 409.607 138.608 410.015 139.52C410.423 140.432 410.519 141.56 410.303 142.904C410.135 144.008 409.763 144.884 409.187 145.532C408.635 146.156 407.867 146.624 406.883 146.936C405.899 147.248 404.651 147.464 403.139 147.584L394.067 148.34L394.463 145.424L402.131 144.668C402.779 144.596 403.307 144.5 403.715 144.38C404.123 144.236 404.447 144.02 404.687 143.732C404.927 143.42 405.095 142.976 405.191 142.4C405.263 141.824 405.215 141.404 405.047 141.14C404.879 140.852 404.579 140.672 404.147 140.6C403.715 140.504 403.139 140.456 402.419 140.456C401.675 140.456 401.051 140.54 400.547 140.708C400.043 140.852 399.623 141.116 399.287 141.5C398.951 141.86 398.675 142.388 398.459 143.084C398.243 143.756 398.039 144.632 397.847 145.712C397.607 147.272 397.571 148.448 397.739 149.24C397.907 150.032 398.279 150.56 398.855 150.824C399.431 151.088 400.235 151.22 401.267 151.22C401.843 151.22 402.539 151.208 403.355 151.184C404.171 151.136 404.999 151.088 405.839 151.04C406.703 150.968 407.483 150.896 408.179 150.824L408.539 154.136C407.819 154.448 407.003 154.7 406.091 154.892C405.179 155.084 404.255 155.216 403.319 155.288C402.383 155.384 401.507 155.432 400.691 155.432C398.315 155.432 396.467 155.072 395.147 154.352C393.851 153.632 392.987 152.564 392.555 151.148C392.147 149.708 392.063 147.932 392.303 145.82C392.519 143.996 392.879 142.496 393.383 141.32C393.911 140.144 394.583 139.232 395.399 138.584C396.239 137.912 397.247 137.444 398.423 137.18C399.623 136.892 401.003 136.748 402.563 136.748ZM422.379 136.748C423.483 136.748 424.671 136.844 425.943 137.036C427.215 137.204 428.331 137.492 429.291 137.9L428.535 141.14C427.479 141.116 426.471 141.104 425.511 141.104C424.551 141.08 423.735 141.068 423.063 141.068C422.007 141.068 421.143 141.212 420.471 141.5C419.799 141.788 419.283 142.292 418.923 143.012C418.563 143.732 418.299 144.764 418.131 146.108C417.939 147.5 417.915 148.556 418.059 149.276C418.203 149.996 418.551 150.488 419.103 150.752C419.679 151.016 420.483 151.148 421.515 151.148C421.947 151.148 422.463 151.136 423.063 151.112C423.687 151.088 424.359 151.064 425.079 151.04C425.799 150.992 426.495 150.92 427.167 150.824L427.527 154.28C426.495 154.688 425.355 154.976 424.107 155.144C422.883 155.336 421.707 155.432 420.579 155.432C418.491 155.432 416.799 155.12 415.503 154.496C414.207 153.848 413.319 152.828 412.839 151.436C412.359 150.02 412.275 148.172 412.587 145.892C412.899 143.684 413.415 141.92 414.135 140.6C414.855 139.256 415.875 138.284 417.195 137.684C418.515 137.06 420.243 136.748 422.379 136.748ZM440.515 132.284L438.067 149.42C437.971 150.068 438.031 150.512 438.247 150.752C438.463 150.992 438.919 151.112 439.615 151.112H442.027L442.279 154.748C441.823 154.892 441.271 155.012 440.623 155.108C439.999 155.204 439.387 155.276 438.787 155.324C438.187 155.372 437.695 155.396 437.311 155.396C435.655 155.396 434.407 154.952 433.567 154.064C432.727 153.176 432.415 151.964 432.631 150.428L435.259 132.284H440.515ZM444.763 137.216L444.259 140.708H430.903L431.299 137.396L434.791 137.216H444.763ZM462.259 130.16L458.767 155H453.259L456.751 130.16H462.259ZM469.963 139.7L469.387 143.84H460.027L460.603 139.7H469.963ZM476.407 130.16L472.915 155H467.443L470.935 130.16H476.407ZM485.499 137.216L483.015 155H477.759L480.207 137.216H485.499ZM484.959 129.368C485.535 129.368 485.943 129.512 486.183 129.8C486.447 130.088 486.543 130.508 486.471 131.06L486.219 133.004C486.075 133.988 485.487 134.48 484.455 134.48H482.295C481.167 134.48 480.663 133.916 480.783 132.788L481.035 130.88C481.155 129.872 481.731 129.368 482.763 129.368H484.959ZM494.117 137.216L494.153 141.464L494.621 141.968L492.821 155H487.493L490.013 137.216H494.117ZM502.829 136.748L501.677 141.644H500.381C499.541 141.644 498.629 141.836 497.645 142.22C496.685 142.604 495.473 143.156 494.009 143.876L493.793 140.78C495.209 139.46 496.589 138.464 497.933 137.792C499.277 137.096 500.549 136.748 501.749 136.748H502.829ZM510.706 137.216L508.222 155H502.966L505.414 137.216H510.706ZM510.166 129.368C510.742 129.368 511.15 129.512 511.39 129.8C511.654 130.088 511.75 130.508 511.678 131.06L511.426 133.004C511.282 133.988 510.694 134.48 509.662 134.48H507.502C506.374 134.48 505.87 133.916 505.99 132.788L506.242 130.88C506.362 129.872 506.938 129.368 507.97 129.368H510.166ZM527.496 136.748C528.48 136.748 529.332 136.94 530.052 137.324C530.772 137.684 531.3 138.236 531.636 138.98C531.972 139.724 532.068 140.66 531.924 141.788L530.052 155H524.724L526.38 143.372C526.476 142.556 526.416 141.992 526.2 141.68C526.008 141.368 525.588 141.224 524.94 141.248C524.148 141.248 523.308 141.5 522.42 142.004C521.532 142.484 520.464 143.216 519.216 144.2L518.604 141.536C520.02 140.024 521.484 138.848 522.996 138.008C524.532 137.168 526.032 136.748 527.496 136.748ZM519.36 137.216V141.896L519.792 142.4L518.028 155H512.7L515.184 137.216H519.36ZM548.65 137.432L553.87 137.756L551.674 153.2C551.434 154.976 551.014 156.452 550.414 157.628C549.814 158.828 549.046 159.776 548.11 160.472C547.198 161.168 546.13 161.66 544.906 161.948C543.706 162.26 542.386 162.428 540.946 162.452C540.538 162.452 539.914 162.44 539.074 162.416C538.258 162.392 537.382 162.308 536.446 162.164C535.51 162.02 534.67 161.816 533.926 161.552L534.286 158.492C534.718 158.492 535.15 158.492 535.582 158.492C536.014 158.516 536.53 158.528 537.13 158.528C537.754 158.528 538.51 158.516 539.398 158.492C541.102 158.468 542.566 158.204 543.79 157.7C545.038 157.196 545.878 156.296 546.31 155C546.622 154.256 546.85 153.536 546.994 152.84C547.138 152.12 547.39 151.448 547.75 150.824L546.742 150.428L548.65 137.432ZM544.114 136.748C545.362 136.748 546.598 136.796 547.822 136.892C549.07 136.988 550.21 137.12 551.242 137.288C552.298 137.432 553.162 137.588 553.834 137.756L550.234 140.6C549.274 140.576 548.386 140.552 547.57 140.528C546.754 140.504 545.986 140.492 545.266 140.492C544.378 140.492 543.646 140.564 543.07 140.708C542.518 140.852 542.074 141.116 541.738 141.5C541.402 141.86 541.126 142.388 540.91 143.084C540.718 143.78 540.538 144.68 540.37 145.784C540.13 147.248 540.01 148.388 540.01 149.204C540.034 149.996 540.19 150.536 540.478 150.824C540.79 151.112 541.246 151.232 541.846 151.184C542.518 151.136 543.202 150.92 543.898 150.536C544.594 150.128 545.29 149.576 545.986 148.88C546.706 148.184 547.402 147.38 548.074 146.468L549.01 148.16C548.53 149.552 547.834 150.776 546.922 151.832C546.034 152.864 544.99 153.68 543.79 154.28C542.59 154.88 541.282 155.204 539.866 155.252C538.378 155.276 537.214 154.964 536.374 154.316C535.534 153.644 535.006 152.6 534.79 151.184C534.574 149.744 534.634 147.932 534.97 145.748C535.282 143.684 535.702 142.052 536.23 140.852C536.758 139.652 537.394 138.764 538.138 138.188C538.906 137.588 539.782 137.204 540.766 137.036C541.774 136.844 542.89 136.748 544.114 136.748Z" fill="#1B1C17"/>
<path d="M223.432 32.052C224.776 32.052 226.12 32.064 227.464 32.088C228.832 32.088 230.164 32.112 231.46 32.16C232.756 32.208 233.956 32.292 235.06 32.412L234.412 36.408H225.124C224.428 36.408 223.912 36.552 223.576 36.84C223.24 37.128 223.024 37.632 222.928 38.352L221.2 50.88C221.104 51.504 221.188 51.972 221.452 52.284C221.716 52.596 222.184 52.752 222.856 52.752H232.036L231.928 56.748C230.824 56.868 229.636 56.952 228.364 57C227.116 57.024 225.844 57.036 224.548 57.036C223.276 57.06 222.04 57.072 220.84 57.072C218.896 57.072 217.48 56.532 216.592 55.452C215.728 54.372 215.404 52.956 215.62 51.204L217.636 36.948C217.852 35.436 218.452 34.248 219.436 33.384C220.42 32.496 221.752 32.052 223.432 32.052ZM217.564 42.168H232.216L231.748 45.984H216.988L217.564 42.168ZM241.945 39.216L241.981 43.32L242.449 43.824L240.613 57H235.321L237.841 39.216H241.945ZM249.037 38.748C250.693 38.748 251.893 39.192 252.637 40.08C253.405 40.968 253.681 42.204 253.465 43.788L251.593 57H246.517L248.137 45.228C248.257 44.484 248.209 43.968 247.993 43.68C247.777 43.392 247.357 43.248 246.733 43.248C246.301 43.248 245.845 43.344 245.365 43.536C244.885 43.704 244.345 44.004 243.745 44.436C243.145 44.868 242.413 45.444 241.549 46.164L240.901 43.536C242.389 41.88 243.769 40.668 245.041 39.9C246.313 39.132 247.645 38.748 249.037 38.748ZM260.125 38.748C261.805 38.748 263.029 39.204 263.797 40.116C264.565 41.004 264.829 42.228 264.589 43.788L262.753 57H257.497L259.117 45.228C259.213 44.436 259.129 43.908 258.865 43.644C258.625 43.38 258.241 43.248 257.713 43.248C257.305 43.248 256.873 43.344 256.417 43.536C255.961 43.704 255.433 44.004 254.833 44.436C254.233 44.844 253.525 45.42 252.709 46.164L252.025 43.536C253.513 41.856 254.881 40.644 256.129 39.9C257.401 39.132 258.733 38.748 260.125 38.748ZM281.074 38.784C282.442 38.784 283.534 39.12 284.35 39.792C285.166 40.44 285.694 41.472 285.934 42.888C286.198 44.304 286.174 46.164 285.862 48.468C285.598 50.388 285.214 51.948 284.71 53.148C284.23 54.324 283.63 55.224 282.91 55.848C282.214 56.472 281.398 56.892 280.462 57.108C279.55 57.348 278.518 57.468 277.366 57.468C276.79 57.468 276.13 57.444 275.386 57.396C274.666 57.348 273.922 57.264 273.154 57.144C272.41 57.048 271.69 56.916 270.994 56.748C270.298 56.58 269.698 56.388 269.194 56.172L269.986 53.832C271.066 53.856 272.05 53.88 272.938 53.904C273.826 53.928 274.702 53.94 275.566 53.94C276.454 53.94 277.174 53.868 277.726 53.724C278.302 53.58 278.758 53.316 279.094 52.932C279.43 52.548 279.694 51.996 279.886 51.276C280.078 50.556 280.258 49.62 280.426 48.468C280.642 46.98 280.738 45.852 280.714 45.084C280.714 44.292 280.57 43.752 280.282 43.464C280.018 43.176 279.586 43.032 278.986 43.032C278.506 43.032 277.93 43.188 277.258 43.5C276.586 43.788 275.89 44.196 275.17 44.724C274.45 45.252 273.766 45.876 273.118 46.596L272.146 44.436C272.482 43.908 272.962 43.332 273.586 42.708C274.21 42.06 274.918 41.436 275.71 40.836C276.526 40.236 277.39 39.744 278.302 39.36C279.238 38.976 280.162 38.784 281.074 38.784ZM273.658 39.216L273.514 43.464L274.054 43.896L272.47 56.064L272.11 56.64C272.11 57.264 272.098 57.864 272.074 58.44C272.05 59.04 271.978 59.676 271.858 60.348L271.282 63.876H265.954L269.446 39.216H273.658ZM297.228 31.8L294.42 51.42C294.324 52.044 294.396 52.488 294.636 52.752C294.9 52.992 295.392 53.112 296.112 53.112H297.732L297.984 56.748C297.696 56.916 297.276 57.036 296.724 57.108C296.196 57.204 295.668 57.276 295.14 57.324C294.612 57.372 294.18 57.396 293.844 57.396C292.164 57.396 290.88 56.964 289.992 56.1C289.128 55.236 288.792 54.048 288.984 52.536L291.936 31.8H297.228ZM310.771 38.748C312.955 38.748 314.707 39.072 316.027 39.72C317.347 40.344 318.235 41.352 318.691 42.744C319.171 44.136 319.243 46.008 318.907 48.36C318.595 50.592 318.055 52.38 317.287 53.724C316.543 55.044 315.487 55.992 314.119 56.568C312.751 57.144 310.975 57.432 308.791 57.432C306.631 57.432 304.879 57.12 303.535 56.496C302.215 55.872 301.303 54.864 300.799 53.472C300.319 52.08 300.247 50.232 300.583 47.928C300.895 45.672 301.423 43.884 302.167 42.564C302.935 41.22 304.015 40.248 305.407 39.648C306.799 39.048 308.587 38.748 310.771 38.748ZM310.699 42.6C309.739 42.6 308.959 42.756 308.359 43.068C307.783 43.38 307.315 43.956 306.955 44.796C306.619 45.612 306.343 46.8 306.127 48.36C305.935 49.728 305.875 50.796 305.947 51.564C306.043 52.332 306.331 52.86 306.811 53.148C307.291 53.436 307.999 53.58 308.935 53.58C309.895 53.58 310.663 53.424 311.239 53.112C311.815 52.776 312.271 52.2 312.607 51.384C312.943 50.568 313.219 49.416 313.435 47.928C313.651 46.512 313.711 45.42 313.615 44.652C313.519 43.884 313.243 43.356 312.787 43.068C312.331 42.756 311.635 42.6 310.699 42.6ZM341.049 39.216C340.857 40.392 340.593 41.592 340.257 42.816C339.945 44.04 339.585 45.252 339.177 46.452C338.769 47.628 338.337 48.768 337.881 49.872C337.449 50.976 337.005 51.996 336.549 52.932C336.117 53.868 335.685 54.684 335.253 55.38C334.053 57.468 332.805 59.16 331.509 60.456C330.213 61.752 328.821 62.712 327.333 63.336C325.845 63.96 324.213 64.32 322.437 64.416L321.897 61.284C322.785 61.02 323.625 60.72 324.417 60.384C325.209 60.072 325.965 59.652 326.685 59.124C327.429 58.596 328.149 57.888 328.845 57C329.541 56.088 330.249 54.924 330.969 53.508C331.689 52.092 332.313 50.676 332.841 49.26C333.393 47.82 333.873 46.296 334.281 44.688C334.713 43.056 335.097 41.232 335.433 39.216H341.049ZM327.405 39.216L328.917 52.896C328.989 53.304 329.229 53.508 329.637 53.508H331.653L330.213 57H326.613C326.037 57 325.557 56.832 325.173 56.496C324.789 56.16 324.549 55.74 324.453 55.236L321.645 39.216H327.405ZM352.75 38.748C354.934 38.748 356.614 38.988 357.79 39.468C358.99 39.924 359.794 40.608 360.202 41.52C360.61 42.432 360.706 43.56 360.49 44.904C360.322 46.008 359.95 46.884 359.374 47.532C358.822 48.156 358.054 48.624 357.07 48.936C356.086 49.248 354.838 49.464 353.326 49.584L344.254 50.34L344.65 47.424L352.318 46.668C352.966 46.596 353.494 46.5 353.902 46.38C354.31 46.236 354.634 46.02 354.874 45.732C355.114 45.42 355.282 44.976 355.378 44.4C355.45 43.824 355.402 43.404 355.234 43.14C355.066 42.852 354.766 42.672 354.334 42.6C353.902 42.504 353.326 42.456 352.606 42.456C351.862 42.456 351.238 42.54 350.734 42.708C350.23 42.852 349.81 43.116 349.474 43.5C349.138 43.86 348.862 44.388 348.646 45.084C348.43 45.756 348.226 46.632 348.034 47.712C347.794 49.272 347.758 50.448 347.926 51.24C348.094 52.032 348.466 52.56 349.042 52.824C349.618 53.088 350.422 53.22 351.454 53.22C352.03 53.22 352.726 53.208 353.542 53.184C354.358 53.136 355.186 53.088 356.026 53.04C356.89 52.968 357.67 52.896 358.366 52.824L358.726 56.136C358.006 56.448 357.19 56.7 356.278 56.892C355.366 57.084 354.442 57.216 353.506 57.288C352.57 57.384 351.694 57.432 350.878 57.432C348.502 57.432 346.654 57.072 345.334 56.352C344.038 55.632 343.174 54.564 342.742 53.148C342.334 51.708 342.25 49.932 342.49 47.82C342.706 45.996 343.066 44.496 343.57 43.32C344.098 42.144 344.77 41.232 345.586 40.584C346.426 39.912 347.434 39.444 348.61 39.18C349.81 38.892 351.19 38.748 352.75 38.748ZM368.859 39.216L368.895 43.464L369.363 43.968L367.563 57H362.235L364.755 39.216H368.859ZM377.571 38.748L376.419 43.644H375.123C374.283 43.644 373.371 43.836 372.387 44.22C371.427 44.604 370.215 45.156 368.751 45.876L368.535 42.78C369.951 41.46 371.331 40.464 372.675 39.792C374.019 39.096 375.291 38.748 376.491 38.748H377.571ZM386.6 38.748C387.488 38.748 388.436 38.784 389.444 38.856C390.452 38.928 391.424 39.012 392.36 39.108C393.32 39.204 394.148 39.312 394.844 39.432L394.34 42.708C393.188 42.684 392.036 42.672 390.884 42.672C389.756 42.648 388.604 42.636 387.428 42.636C386.516 42.636 385.784 42.66 385.232 42.708C384.704 42.732 384.32 42.816 384.08 42.96C383.84 43.104 383.696 43.356 383.648 43.716C383.6 44.148 383.72 44.484 384.008 44.724C384.32 44.964 384.848 45.216 385.592 45.48L390.02 47.064C390.956 47.4 391.724 47.796 392.324 48.252C392.924 48.708 393.344 49.272 393.584 49.944C393.848 50.616 393.92 51.432 393.8 52.392C393.632 53.832 393.176 54.912 392.432 55.632C391.712 56.328 390.74 56.796 389.516 57.036C388.316 57.276 386.852 57.396 385.124 57.396C384.188 57.396 383.312 57.372 382.496 57.324C381.704 57.276 380.888 57.204 380.048 57.108C379.208 57.012 378.248 56.892 377.168 56.748L377.672 53.436C378.104 53.46 378.644 53.484 379.292 53.508C379.964 53.508 380.66 53.52 381.38 53.544C382.124 53.544 382.832 53.544 383.504 53.544C384.872 53.52 385.916 53.472 386.636 53.4C387.356 53.328 387.86 53.208 388.148 53.04C388.46 52.848 388.64 52.572 388.688 52.212C388.736 51.9 388.688 51.66 388.544 51.492C388.424 51.324 388.196 51.168 387.86 51.024C387.548 50.88 387.128 50.712 386.6 50.52L382.244 48.9C381.284 48.54 380.504 48.108 379.904 47.604C379.328 47.076 378.932 46.464 378.716 45.768C378.5 45.048 378.452 44.232 378.572 43.32C378.74 42.216 379.1 41.328 379.652 40.656C380.228 39.984 381.08 39.504 382.208 39.216C383.336 38.904 384.8 38.748 386.6 38.748Z" fill="#1B1C17"/>
<defs>
<linearGradient id="paint0_linear_17357_73194" x1="157.373" y1="87.2185" x2="157.149" y2="427.55" gradientUnits="userSpaceOnUse">
<stop stop-color="#B1D4FF"/>
<stop offset="1" stop-color="#D7E9FF"/>
</linearGradient>
<linearGradient id="paint1_linear_17357_73194" x1="157.373" y1="87.2185" x2="157.598" y2="428" gradientUnits="userSpaceOnUse">
<stop stop-color="#0668E1"/>
<stop offset="1" stop-color="#91C3FE"/>
</linearGradient>
<linearGradient id="paint2_linear_17357_73194" x1="87.8045" y1="72.3824" x2="88.2534" y2="428" gradientUnits="userSpaceOnUse">
<stop stop-color="#A9D0FF"/>
<stop offset="1" stop-color="#DAEBFF"/>
</linearGradient>
<linearGradient id="paint3_linear_17357_73194" x1="87.8045" y1="72.3824" x2="87.8045" y2="348.874" gradientUnits="userSpaceOnUse">
<stop stop-color="#0668E1"/>
<stop offset="1" stop-color="#91C3FE"/>
</linearGradient>
<linearGradient id="paint4_linear_17357_73194" x1="229.418" y1="186.126" x2="229.418" y2="428" gradientUnits="userSpaceOnUse">
<stop stop-color="#B1D4FF"/>
<stop offset="1" stop-color="#DAECFF"/>
</linearGradient>
<linearGradient id="paint5_linear_17357_73194" x1="229.418" y1="186.126" x2="229.418" y2="428" gradientUnits="userSpaceOnUse">
<stop stop-color="#0668E1"/>
<stop offset="1" stop-color="#91C3FE"/>
</linearGradient>
<linearGradient id="paint6_linear_17357_73194" x1="159.849" y1="171.29" x2="159.849" y2="428" gradientUnits="userSpaceOnUse">
<stop stop-color="#ADD2FF"/>
<stop offset="1" stop-color="#DAEBFF"/>
</linearGradient>
<linearGradient id="paint7_linear_17357_73194" x1="158.048" y1="169.042" x2="158.048" y2="428" gradientUnits="userSpaceOnUse">
<stop stop-color="#0668E1"/>
<stop offset="1" stop-color="#91C3FE"/>
</linearGradient>
<linearGradient id="paint8_linear_17357_73194" x1="301.463" y1="285.034" x2="301.463" y2="428" gradientUnits="userSpaceOnUse">
<stop stop-color="#D3E6FF"/>
<stop offset="1" stop-color="#D9EBFF"/>
</linearGradient>
<linearGradient id="paint9_linear_17357_73194" x1="301.463" y1="285.034" x2="301.463" y2="428" gradientUnits="userSpaceOnUse">
<stop stop-color="#0668E1"/>
<stop offset="1" stop-color="#91C3FE"/>
</linearGradient>
<linearGradient id="paint10_linear_17357_73194" x1="232.345" y1="428" x2="232.345" y2="269.748" gradientUnits="userSpaceOnUse">
<stop stop-color="#D9EBFF"/>
<stop offset="1" stop-color="#D3E6FF"/>
</linearGradient>
<linearGradient id="paint11_linear_17357_73194" x1="232.345" y1="269.748" x2="232.345" y2="428" gradientUnits="userSpaceOnUse">
<stop stop-color="#0668E1"/>
<stop offset="1" stop-color="#91C3FE"/>
</linearGradient>
<linearGradient id="paint12_linear_17357_73194" x1="372.833" y1="379.445" x2="372.833" y2="428" gradientUnits="userSpaceOnUse">
<stop stop-color="#D3E6FF"/>
<stop offset="1" stop-color="#D9EBFF"/>
</linearGradient>
<linearGradient id="paint13_linear_17357_73194" x1="372.833" y1="379.445" x2="372.833" y2="428" gradientUnits="userSpaceOnUse">
<stop stop-color="#0668E1"/>
<stop offset="1" stop-color="#91C3FE"/>
</linearGradient>
<linearGradient id="paint14_linear_17357_73194" x1="303.939" y1="365.059" x2="303.939" y2="428" gradientUnits="userSpaceOnUse">
<stop stop-color="#D3E6FF"/>
<stop offset="1" stop-color="#D9EBFF"/>
</linearGradient>
<linearGradient id="paint15_linear_17357_73194" x1="303.939" y1="365.059" x2="303.939" y2="428" gradientUnits="userSpaceOnUse">
<stop stop-color="#0668E1"/>
<stop offset="1" stop-color="#91C3FE"/>
</linearGradient>
</defs>
</svg>
