<svg width="20" height="354" viewBox="0 0 20 354" fill="none" xmlns="http://www.w3.org/2000/svg">
<rect x="5.5" y="354" width="2" height="9" rx="1" transform="rotate(-90 5.5 354)" fill="#0668E1" fill-opacity="0.6"/>
<rect y="346" width="2" height="20" rx="1" transform="rotate(-90 0 346)" fill="#0668E1" fill-opacity="0.6"/>
<rect x="5" y="338" width="2" height="10" rx="1" transform="rotate(-90 5 338)" fill="#0668E1" fill-opacity="0.6"/>
<rect x="7.5" y="330" width="2" height="5" rx="1" transform="rotate(-90 7.5 330)" fill="#0668E1" fill-opacity="0.6"/>
<rect x="4" y="322" width="2" height="12" rx="1" transform="rotate(-90 4 322)" fill="#0668E1" fill-opacity="0.6"/>
<rect x="2.5" y="314" width="2" height="15" rx="1" transform="rotate(-90 2.5 314)" fill="#0668E1" fill-opacity="0.6"/>
<rect x="5" y="306" width="2" height="10" rx="1" transform="rotate(-90 5 306)" fill="#0668E1" fill-opacity="0.6"/>
<rect y="298" width="2" height="20" rx="1" transform="rotate(-90 0 298)" fill="#0668E1" fill-opacity="0.6"/>
<rect x="7.5" y="290" width="2" height="5" rx="1" transform="rotate(-90 7.5 290)" fill="#0668E1" fill-opacity="0.6"/>
<rect x="2.5" y="282" width="2" height="15" rx="1" transform="rotate(-90 2.5 282)" fill="#0668E1" fill-opacity="0.6"/>
<rect x="5" y="274" width="2" height="10" rx="1" transform="rotate(-90 5 274)" fill="#0668E1" fill-opacity="0.6"/>
<rect x="7.5" y="266" width="2" height="5" rx="1" transform="rotate(-90 7.5 266)" fill="#0668E1" fill-opacity="0.6"/>
<rect x="5.5" y="258" width="2" height="9" rx="1" transform="rotate(-90 5.5 258)" fill="#0668E1" fill-opacity="0.6"/>
<rect x="1" y="250" width="2" height="18" rx="1" transform="rotate(-90 1 250)" fill="#0668E1" fill-opacity="0.6"/>
<rect x="4" y="242" width="2" height="12" rx="1" transform="rotate(-90 4 242)" fill="#0668E1" fill-opacity="0.6"/>
<rect x="2" y="234" width="2" height="16" rx="1" transform="rotate(-90 2 234)" fill="#0668E1" fill-opacity="0.6"/>
<rect x="8" y="226" width="2" height="4" rx="1" transform="rotate(-90 8 226)" fill="#0668E1" fill-opacity="0.6"/>
<rect x="6" y="218" width="2" height="8" rx="1" transform="rotate(-90 6 218)" fill="#0668E1" fill-opacity="0.6"/>
<rect x="1" y="210" width="2" height="18" rx="1" transform="rotate(-90 1 210)" fill="#0668E1" fill-opacity="0.6"/>
<rect x="8" y="202" width="2" height="4" rx="1" transform="rotate(-90 8 202)" fill="#0668E1" fill-opacity="0.6"/>
<rect x="2" y="194" width="2" height="16" rx="1" transform="rotate(-90 2 194)" fill="#0668E1" fill-opacity="0.6"/>
<rect x="6" y="186" width="2" height="8" rx="1" transform="rotate(-90 6 186)" fill="#0668E1" fill-opacity="0.6"/>
<rect x="5.5" y="178" width="2" height="9" rx="1" transform="rotate(-90 5.5 178)" fill="#0668E1" fill-opacity="0.6"/>
<rect x="5" y="170" width="2" height="10" rx="1" transform="rotate(-90 5 170)" fill="#0668E1" fill-opacity="0.6"/>
<rect x="4" y="162" width="2" height="12" rx="1" transform="rotate(-90 4 162)" fill="#0668E1" fill-opacity="0.6"/>
<rect x="5" y="154" width="2" height="10" rx="1" transform="rotate(-90 5 154)" fill="#0668E1" fill-opacity="0.6"/>
<rect y="146" width="2" height="20" rx="1" transform="rotate(-90 0 146)" fill="#0668E1" fill-opacity="0.6"/>
<rect x="7.5" y="138" width="2" height="5" rx="1" transform="rotate(-90 7.5 138)" fill="#0668E1" fill-opacity="0.6"/>
<rect x="2.5" y="130" width="2" height="15" rx="1" transform="rotate(-90 2.5 130)" fill="#0668E1" fill-opacity="0.6"/>
<rect x="5" y="122" width="2" height="10" rx="1" transform="rotate(-90 5 122)" fill="#0668E1" fill-opacity="0.6"/>
<rect x="7.5" y="114" width="2" height="5" rx="1" transform="rotate(-90 7.5 114)" fill="#0668E1" fill-opacity="0.6"/>
<rect x="5.5" y="106" width="2" height="9" rx="1" transform="rotate(-90 5.5 106)" fill="#0668E1" fill-opacity="0.6"/>
<rect x="1" y="98" width="2" height="18" rx="1" transform="rotate(-90 1 98)" fill="#0668E1" fill-opacity="0.6"/>
<rect x="4" y="90" width="2" height="12" rx="1" transform="rotate(-90 4 90)" fill="#0668E1" fill-opacity="0.6"/>
<rect x="2" y="82" width="2" height="16" rx="1" transform="rotate(-90 2 82)" fill="#0668E1" fill-opacity="0.6"/>
<rect x="8" y="74" width="2" height="4" rx="1" transform="rotate(-90 8 74)" fill="#0668E1" fill-opacity="0.6"/>
<rect x="6" y="66" width="2" height="8" rx="1" transform="rotate(-90 6 66)" fill="#0668E1" fill-opacity="0.6"/>
<rect x="1" y="58" width="2" height="18" rx="1" transform="rotate(-90 1 58)" fill="#0668E1" fill-opacity="0.6"/>
<rect x="8" y="50" width="2" height="4" rx="1" transform="rotate(-90 8 50)" fill="#0668E1" fill-opacity="0.6"/>
<rect x="2" y="42" width="2" height="16" rx="1" transform="rotate(-90 2 42)" fill="#0668E1" fill-opacity="0.6"/>
<rect x="6" y="34" width="2" height="8" rx="1" transform="rotate(-90 6 34)" fill="#0668E1" fill-opacity="0.6"/>
<rect x="5.5" y="26" width="2" height="9" rx="1" transform="rotate(-90 5.5 26)" fill="#0668E1" fill-opacity="0.6"/>
<rect x="5" y="18" width="2" height="10" rx="1" transform="rotate(-90 5 18)" fill="#0668E1" fill-opacity="0.6"/>
<rect x="4" y="10" width="2" height="12" rx="1" transform="rotate(-90 4 10)" fill="#0668E1" fill-opacity="0.6"/>
<rect x="5" y="2" width="2" height="10" rx="1" transform="rotate(-90 5 2)" fill="#0668E1" fill-opacity="0.6"/>
</svg>
