<svg width="160" height="160" viewBox="0 0 160 160" fill="none" xmlns="http://www.w3.org/2000/svg">
<mask id="mask0_14717_57485" style="mask-type:luminance" maskUnits="userSpaceOnUse" x="8" y="0" width="49" height="23">
<path d="M47.2736 1.79404L8.51287 22.3648C11.3171 20.8766 14.6366 20.2462 18.189 20.7323L56.9498 0.161499C53.3973 -0.324607 50.0778 0.305853 47.2736 1.79404Z" fill="white" style="fill:white;fill-opacity:1;"/>
</mask>
<g mask="url(#mask0_14717_57485)">
<path d="M18.189 20.7344L56.9498 0.161981C54.7577 -0.13831 52.6542 -0.0138878 50.707 0.475537L11.9463 21.0463C13.8951 20.5585 15.997 20.4325 18.189 20.7344Z" fill="#107BFF" style="fill:#107BFF;fill:color(display-p3 0.0644 0.4831 1.0000);fill-opacity:1;"/>
<path d="M11.9566 21.0434L50.7173 0.472656C49.714 0.724834 48.7515 1.07324 47.84 1.50957L9.07925 22.0803C9.99075 21.644 10.9533 21.2956 11.9566 21.0434Z" fill="#107BFF" style="fill:#107BFF;fill:color(display-p3 0.0644 0.4831 1.0000);fill-opacity:1;"/>
<path d="M9.08161 22.084L47.8423 1.51318C47.6553 1.60277 47.4682 1.69735 47.2862 1.79358L8.52552 22.3643C8.70918 22.2681 8.89455 22.1735 9.08161 22.084Z" fill="#107BFF" style="fill:#107BFF;fill:color(display-p3 0.0644 0.4831 1.0000);fill-opacity:1;"/>
</g>
<mask id="mask1_14717_57485" style="mask-type:luminance" maskUnits="userSpaceOnUse" x="74" y="95" width="40" height="22">
<path d="M113.924 95.5332C113.634 95.6875 113.336 95.8368 113.035 95.9811C100.114 102.838 87.195 109.695 74.2742 116.552C74.5752 116.408 74.8728 116.258 75.1636 116.104C86.792 109.932 102.296 101.705 113.924 95.5332Z" fill="white" style="fill:white;fill-opacity:1;"/>
</mask>
<g mask="url(#mask1_14717_57485)">
<path d="M75.1636 116.104L113.924 95.5332C113.635 95.6858 113.341 95.8351 113.042 95.9778L74.281 116.549C74.5803 116.406 74.8745 116.258 75.1636 116.104Z" fill="#258FB2" style="fill:#258FB2;fill:color(display-p3 0.1451 0.5608 0.6980);fill-opacity:1;"/>
<path d="M74.2691 116.55L113.03 95.979C112.697 96.1383 112.358 96.2926 112.013 96.4402C110.86 96.933 109.687 97.3328 108.494 97.6364L69.7337 118.206C70.9258 117.904 72.0992 117.504 73.2522 117.009C73.5974 116.863 73.9358 116.709 74.2691 116.55Z" fill="#2692B6" style="fill:#2692B6;fill:color(display-p3 0.1490 0.5725 0.7137);fill-opacity:1;"/>
</g>
<mask id="mask2_14717_57485" style="mask-type:luminance" maskUnits="userSpaceOnUse" x="112" y="122" width="48" height="37">
<path d="M112.754 158.188L151.515 137.617C156.6 134.918 159.987 129.396 159.975 122.617L121.214 143.188C121.228 149.967 117.84 155.488 112.754 158.188Z" fill="white" style="fill:white;fill-opacity:1;"/>
</mask>
<g mask="url(#mask2_14717_57485)">
<path d="M112.754 158.188L151.515 137.617C156.6 134.918 159.989 129.396 159.975 122.617L121.214 143.188C121.228 149.967 117.84 155.488 112.754 158.188Z" fill="#1A81FF" style="fill:#1A81FF;fill:color(display-p3 0.1029 0.5043 1.0000);fill-opacity:1;"/>
</g>
<path d="M18.1348 20.7253C8.13549 19.3549 -0.0203705 26.8406 3.8147e-05 37.3541L0.170097 126.604C0.190506 137.117 8.38037 146.844 18.3779 148.216L103.135 159.838C113.121 161.207 121.277 153.721 121.256 143.208L121.086 53.9581C121.066 43.4446 112.876 33.7158 102.892 32.3471L18.1348 20.7253Z" fill="#0668E1" style="fill:#0668E1;fill:color(display-p3 0.0235 0.4078 0.8824);fill-opacity:1;"/>
<path d="M102.888 32.3449L141.649 11.7741L56.8917 0.152344L18.1309 20.7248L102.888 32.3449Z" fill="#107BFF" style="fill:#107BFF;fill:color(display-p3 0.0644 0.4831 1.0000);fill-opacity:1;"/>
<path d="M121.238 143.207L159.999 122.635L159.83 33.3867L121.068 53.9575L121.238 143.207Z" fill="#1E83FF" style="fill:#1E83FF;fill:color(display-p3 0.1183 0.5128 1.0000);fill-opacity:1;"/>
<mask id="mask3_14717_57485" style="mask-type:luminance" maskUnits="userSpaceOnUse" x="102" y="11" width="58" height="43">
<path d="M121.07 53.9689L159.831 33.3981C159.81 22.8829 151.62 13.1558 141.636 11.7871L102.876 32.3579C112.861 33.7266 121.049 43.4537 121.07 53.9689Z" fill="white" style="fill:white;fill-opacity:1;"/>
</mask>
<g mask="url(#mask3_14717_57485)">
<path d="M121.07 53.9743L159.831 33.4035C159.826 30.827 159.331 28.2985 158.438 25.9277L119.677 46.4985C120.57 48.8693 121.065 51.3977 121.07 53.9743Z" fill="#1A81FF" style="fill:#1A81FF;fill:color(display-p3 0.1029 0.5043 1.0000);fill-opacity:1;"/>
<path d="M119.683 46.4944L158.444 25.9236C158.056 24.8933 157.594 23.8929 157.063 22.9307L118.302 43.5014C118.833 44.4637 119.295 45.4641 119.683 46.4944Z" fill="#1A81FF" style="fill:#1A81FF;fill:color(display-p3 0.1029 0.5043 1.0000);fill-opacity:1;"/>
<path d="M118.306 43.5002L157.069 22.9294C156.62 22.1148 156.122 21.3284 155.581 20.5752L116.82 41.146C117.359 41.8975 117.858 42.6856 118.306 43.5002Z" fill="#1A81FF" style="fill:#1A81FF;fill:color(display-p3 0.1029 0.5043 1.0000);fill-opacity:1;"/>
<path d="M116.812 41.1444L155.573 20.5737C155.061 19.8619 154.512 19.1817 153.927 18.5347L115.166 39.1054C115.751 39.7508 116.302 40.4327 116.812 41.1444Z" fill="#1A81FF" style="fill:#1A81FF;fill:color(display-p3 0.1029 0.5043 1.0000);fill-opacity:1;"/>
<path d="M115.156 39.1126L153.917 18.5419C153.328 17.8915 152.706 17.2777 152.051 16.7036L113.29 37.2744C113.943 37.8501 114.567 38.4639 115.156 39.1126Z" fill="#1A81FF" style="fill:#1A81FF;fill:color(display-p3 0.1029 0.5043 1.0000);fill-opacity:1;"/>
<path d="M113.277 37.2668L152.038 16.6961C151.337 16.0805 150.599 15.5098 149.83 14.9922L111.07 35.563C111.84 36.0822 112.576 36.6513 113.277 37.2668Z" fill="#1A81FF" style="fill:#1A81FF;fill:color(display-p3 0.1029 0.5043 1.0000);fill-opacity:1;"/>
<path d="M111.089 35.5601L149.85 14.9893C148.91 14.3556 147.923 13.7981 146.9 13.3286L108.139 33.8994C109.163 34.3689 110.149 34.9263 111.089 35.5601Z" fill="#1A81FF" style="fill:#1A81FF;fill:color(display-p3 0.1029 0.5043 1.0000);fill-opacity:1;"/>
<path d="M108.132 33.9041L146.893 13.3333C145.225 12.5685 143.458 12.0393 141.63 11.7871L102.869 32.3579C104.697 32.6084 106.464 33.1393 108.132 33.9041Z" fill="#1A81FF" style="fill:#1A81FF;fill:color(display-p3 0.1029 0.5043 1.0000);fill-opacity:1;"/>
</g>
<path d="M36.1464 75.3229C38.04 75.6501 39.9684 76.0007 41.9315 76.3747C43.8939 76.7138 45.8226 77.0819 47.7175 77.479C49.6124 77.8761 51.3877 78.3047 53.0434 78.7649L52.7855 84.519L39.0997 82.1542C38.239 82.0055 37.5889 82.1195 37.1494 82.4963C36.7437 82.8442 36.5489 83.4722 36.5651 84.3805L36.8937 102.826C36.9092 103.699 37.1276 104.399 37.5489 104.924C38.0045 105.456 38.6628 105.796 39.5235 105.944L53.2092 108.309L53.6744 114.188C52.0242 114.042 50.253 113.841 48.3606 113.584C46.4682 113.326 44.5408 113.028 42.5783 112.689C40.6164 112.385 38.6887 112.069 36.7951 111.742C34.5227 111.349 32.6689 110.367 31.2336 108.796C29.8328 107.23 29.0959 105.362 29.0229 103.19L28.6327 81.2859C28.628 79.091 29.3023 77.4488 30.6559 76.3593C32.0438 75.2757 33.874 74.9302 36.1464 75.3229ZM29.6939 88.8352L51.0231 92.5207L51.1239 98.18L29.7947 94.4945L29.6939 88.8352ZM72.2511 81.0913C73.9381 81.3828 75.3679 81.6821 76.5404 81.9892C77.7467 82.2673 78.8506 82.5799 79.8521 82.9271C80.8537 83.2743 81.8906 83.6799 82.9629 84.1438L82.4487 89.958C81.3113 89.6918 80.2602 89.458 79.2956 89.2565C78.3654 89.0609 77.3491 88.8505 76.2467 88.6252C75.1788 88.4058 73.8873 88.1653 72.3724 87.9035C70.6165 87.6001 69.2459 87.7289 68.2605 88.29C67.3089 88.8221 66.6418 89.9084 66.2591 91.5488C65.8764 93.1892 65.7125 95.5465 65.7672 98.6207C65.8214 101.66 66.0706 104.089 66.5149 105.907C66.9585 107.69 67.6686 109.014 68.645 109.879C69.6559 110.751 71.0393 111.338 72.7952 111.641C75.1709 112.052 77.1672 112.362 78.7841 112.572C80.4011 112.781 81.9999 112.936 83.5805 113.035L84.3564 119.02C82.7132 119.258 81.0326 119.333 79.3149 119.246C77.5978 119.193 75.4653 118.946 72.9175 118.506C69.2336 117.869 66.2792 116.767 64.0546 115.198C61.8293 113.595 60.1932 111.344 59.1462 108.447C58.1336 105.556 57.5863 101.804 57.5042 97.1929C57.422 92.5816 57.8387 88.9967 58.7542 86.4385C59.7041 83.8861 61.2702 82.2064 63.4526 81.3994C65.6343 80.5575 68.5671 80.4548 72.2511 81.0913Z" fill="white" style="fill:white;fill-opacity:1;"/>
</svg>
