<svg xmlns="http://www.w3.org/2000/svg" viewBox="0 0 120 120" xmlns:v="https://vecta.io/nano"><g fill="#0668e1"><path d="M79.1 30.9l-.1-.1h-.1v.1h.2zm1.3-1.3v-.2h-.1-.1c0 .1.2.2.2.2zm7.6 0l.1-.1H88h0v.1zm1.2 1.3l-.1.1h.1.1c-.1.1-.1-.1-.1-.1zm7.4 0l.1-.1h-.1-.1c.1-.1.1.1.1.1zm2.6 2.5l-.2.2h.1.1v-.2h0zm8.3 0l.1-.1h-.1-.1l.1.1h0zm2.2 2.2l-.1.1h.1.1c-.1.1-.1-.1-.1-.1zm4.8 0a1 1 0 0 0 1 1c.6 0 1-.4 1-1s-.4-1-1-1a1 1 0 0 0-1 1zm-35.4 2.2h.2v-6.9h-.2-.2v6.9h.2zm0-6.9l.1.1 1.3-1.3-.1-.1-.1-.1-1.3 1.3.1.1zm1.2-1.2v.2h7.6v-.2-.2h-7.6v.2zm7.6 0l-.1.1 1.3 1.3.1-.1.1-.1-1.3-1.3-.1.1zm1.3 1.2v.2h7.4v-.2-.2h-7.4v.2zm7.4 0l-.1.1 2.5 2.5.1-.1.1-.1-2.5-2.5c.1 0-.1.1-.1.1zm2.6 2.5v.2h8.3v-.2-.2h-8.3v.2zm8.3 0l-.1.1 2.2 2.2.1-.1.1-.1-2.2-2.2s-.1.2-.1.1zm2.2 2.2v.2h5.8v-.2-.2h-5.8v.2zm-32.6-6.8l-.1-.2h-.1v.1h.2zm1.3-1.3v-.2h-.1-.1c0 .1.2.2.2.2zm10.6 0l.1-.1H89h0c0-.1 0 .1 0 .1zm1.7 1.6l-.1.1h.1.1c-.1.1-.1-.1-.1-.1zm7.2 0l.1-.1h-.1-.1c.1-.1.1.1.1.1zm1.5 1.5l-.1.1h.1.1c-.1 0-.1-.1-.1-.1zm9.7 0l.1-.1h-.1-.1l.1.1h0zm1.5 1.4l-.1.1h.1.1l-.1-.1h0zm2.8 0a1 1 0 0 0 1 1c.6 0 1-.4 1-1s-.4-1-1-1a1 1 0 0 0-1 1zm-36.3 6h.2v-9.2h-.2-.2V38h.2zm0-9.2l.1.1 1.3-1.3-.1-.1-.1-.1-1.3 1.2.1.2zm1.3-1.3v.2H89v-.2-.2H78.4v.2zm10.6 0l-.1.1 1.6 1.6.1-.1.1-.1-1.6-1.6-.1.1zm1.7 1.6v.2h7.2v-.2-.2h-7.2v.2zm7.2 0l-.1.1 1.4 1.5.1-.1.1-.1L98 29l-.1.1zm1.5 1.5v.2h9.8v-.2-.2h-9.8c0 0 0 .2 0 .2zm9.7 0l-.1.1 1.4 1.4.1-.1.1-.1-1.4-1.5c.1 0-.1.2-.1.2zm1.5 1.4v.2h3.8V32v-.2h-3.8v.2h0zM75 26l-.1-.1h-.1v.1h.2zm1.2-.9V25h-.1-.1l.2.1zm13.2 0l.1-.1h-.1-.1l.1.1h0zm1.5 1.5l-.1.1h.1.1c-.1.1-.1-.1-.1-.1zm10.6 0l.1-.1h-.1-.1l.1.1h0zm1.3 1.3l-.1.1h.1.1c-.1 0-.1-.2-.1-.1zm5.9 0a1 1 0 0 0 1 1c.6 0 1-.4 1-1s-.4-1-1-1-1 .4-1 1zM75 33l.1.1h.1V33H75zm-1 1v.2h.1.1L74 34zm1-8l.1.1 1.2-.9-.1-.1-.1-.1-1.2.9.1.1zm1.2-.9v.2h13.2v-.2-.1H76.2v.1zm13.2 0l-.1.1 1.4 1.5.1-.1.1-.1-1.4-1.5-.1.1zm1.5 1.5v.2h10.7v-.2-.2H90.8l.1.2h0zm10.6 0l-.1.1 1.3 1.3.1-.1.1-.1-1.3-1.3-.1.1zm1.3 1.3v.1h6.9v-.2-.2h-6.9v.3zM75 33h.2v-7H75h-.2v7h.2zm-3 1v.2h2V34v-.2h-2v.2zm2 0l.1.1 1-1-.1-.1-.1-.1-1 1 .1.1zm6.9-.7l-.1-.1h-.1v.1h.2zm1.6-1.7v-.2h-.1-.1l.2.2zm4.4 0l.1-.1h-.1-.1c.1 0 .1.1.1.1zm2.5 2.6l-.1.1h.1.1c-.1.1-.1-.1-.1-.1zm6.7 0l.1-.1h-.1-.1c.1-.1.1.1.1.1zm2.7 2.7l-.1.1h.1.1l-.1-.1h0zm9.1 0l.1-.1h-.1-.1c.1-.1.1.1.1.1zm2.1 2.2l-.1.1h.1.1c-.1 0-.1-.1-.1-.1zm5.4 0a1 1 0 0 0 1 1c.6 0 1-.4 1-1s-.4-1-1-1-1 .4-1 1zm-34.5-.8h.2v-5.1h-.2-.2v5.1h.2zm0-5l.1.1 1.6-1.6-.1-.1-.1-.1-1.6 1.6c0-.1.1.1.1.1zm1.6-1.7v.2h4.3v-.2-.2h-4.3v.2zm4.4 0l-.1.1 2.5 2.5.1-.1.1-.1-2.5-2.5-.1.1zm2.5 2.6v.2h6.7v-.2-.2h-6.7v.2zm6.7 0l-.1.1 2.7 2.7.1-.1.1-.1-2.7-2.8-.1.2zm2.7 2.7v.2h9.1v-.2-.2h-9.1v.2zm9.1 0l-.1.1 2.2 2.2V39l.1-.1-2.2-2.2v.2zm2.1 2.2v.2h6.3v-.2-.2H110v.2zm-24.6 7.5l.1.1h.1v-.1h-.2zm-3.2 3.3l-.2-.1h-.1v.1h.3zm0 11.2l.1.1h.1v-.1h-.2zm-2 2l-.2-.2v.1.1h.2 0zm-1 15.7a1 1 0 0 0 1 1c.6 0 1-.4 1-1s-.4-1-1-1a1 1 0 0 0-1 1zm6.2-38.5h-.2v6.3h.2.2v-6.3h-.2zm0 6.3l-.1-.1-3.3 3.3.1.1.1.1 3.3-3.2-.1-.2zm-3.2 3.3H82v11.2h.2.2V49.9h-.2zm0 11.2L82 61l-2 2 .1.1.1.1 2-2v-.1zm-2 2H80v15.7h.2.2V63.1h-.2 0zM75 42l.1-.1H75h0v.1zm1 1h.2v-.1h-.1l-.1.1zm-2 12.1a1 1 0 0 0 1 1c.6 0 1-.4 1-1s-.4-1-1-1a1 1 0 0 0-1 1zM76 45l.2.1h0 0-.2zm-1 2l-.2-.1h0 0 .2zm-3-5v.2h3V42v-.2h-3v.2zm3 0l-.1.1 1 1 .1-.1.1-.1-1-1-.1.1zm1 1h-.2v2h.2.2v-2H76zm0 2l-.2-.1-1 2 .2.1.2.1 1-2-.2-.1zm-1 2h-.2l-.1 8.1h.2.2l.1-8.1H75zm3.6-3.6l.1.1h.1v-.1h-.2zm-1.5 1.4l-.1-.1h-.1v.1h.2zm-1 13.6a1 1 0 0 0 1 1c.6 0 1-.4 1-1s-.4-1-1-1-1 .4-1 1zM78.5 38h-.2v5.4h.2.2V38h-.2zm0 5.4l-.1-.1-1.4 1.4.1.1.1.1 1.4-1.5h-.1zm-1.4 1.4h-.2v13.5h.2.2V44.8h-.2 0z"/><path d="M81.1 44.5l.1.1h.1v-.1h-.2zM78.6 47l-.1-.1h-.1v.1h.2zm-1 16.2a1 1 0 0 0 1 1c.6 0 1-.4 1-1s-.4-1-1-1a1 1 0 0 0-1 1zm3.5-24.5h-.2v5.8h.2.2v-5.8h-.2zm0 5.8l-.1-.2-2.5 2.5.1.1.1.1 2.5-2.5h-.1zM78.6 47h-.2v16.3h.2.2V47h-.2zm4.1-.7l.1.1h.1v-.1h-.2zm-2.3 2.3l-.1-.1h-.1v.1h.2zm-1 9.8a1 1 0 0 0 1 1c.6 0 1-.4 1-1s-.4-1-1-1-1 .4-1 1zm3.3-18.1h-.2v6h.2.2v-6h-.2zm0 6l-.1-.1-2.3 2.3.1.1.1.1 2.3-2.3-.1-.1zm-2.3 2.3h-.2v9.8h.2.2v-9.8h-.2zm9.4 1.6l.1.1h.1v-.1h-.2zm-2.2 2.2l-.1-.1h-.1v.1h.2zm-1 18.8a1 1 0 0 0 1 1c.6 0 1-.4 1-1s-.4-1-1-1a1 1 0 0 0-1 1zm3.2-30.9h-.2v9.9h.2.2v-9.9h-.2zm0 10l-.1-.1-2.2 2.2.1.1.1.1 2.2-2.2-.1-.1zm-2.2 2.1h-.2v18.8h.2.2V52.4h-.2 0zm4.9-.5l.1.1h.1v-.1h-.2zM90 54.4l-.1-.1h-.1v.1h.2zm-1 13.9a1 1 0 0 0 1 1c.6 0 1-.4 1-1s-.4-1-1-1a1 1 0 0 0-1 1zm3.5-28h-.2v11.6h.2.2V40.3h-.2zm0 11.6l-.1-.1-2.5 2.5.1.1.1.1 2.5-2.5-.1-.1h0zM90 54.4h-.2v13.9h.2.2V54.4H90z"/><path d="M87.6 47.9l.1.1h.1v-.1h-.2zM84.5 51l-.1-.1h-.1v.1h.2zm0 11.2l.1.1h.1v-.1h-.2zm-1.6 1.6l-.1-.1h-.1v.1h.2zm-1 13.2a1 1 0 0 0 1 1c.6 0 1-.4 1-1s-.4-1-1-1a1 1 0 0 0-1 1zm5.7-36.7h-.2v7.6h.2.2v-7.6h-.2zm0 7.6l-.1-.1-3.1 3.1.1.1.1.1 3.1-3.1-.1-.1zM84.5 51h-.2v11.2h.2.2V51h-.2zm0 11.2l-.1-.1-1.6 1.6.1.1.1.1 1.6-1.6-.1-.1zm-1.6 1.6h-.2V77h.2.2V63.8h-.2 0zm13.9-11.7h-.2v.1h.1l.1-.1zm1.8 1.8h.2v-.1h-.1l-.1.1zm0 5.7l.1.1h.1v-.1h-.2zm-2.9 2.9l-.1-.1h-.1v.1h.2zm-.9 6.4a1 1 0 0 0 1 1c.6 0 1-.4 1-1s-.4-1-1-1-1 .4-1 1zm2-28.6h-.2V52h.2.2V40.3h-.2 0zm0 11.8l-.1.1 1.8 1.8.1-.1.1-.1-1.8-1.8-.1.1zm1.8 1.8h-.2v5.8h.2.2v-5.8h-.2zm0 5.7l-.1-.1-2.9 2.9.1.1.1.1 2.9-2.9-.1-.1zm-2.9 2.9h-.2v6.3h.2.2v-6.3h-.2zm-.9-9.7l.1.1h.1v-.1h-.2zm-2 2l-.1-.1h-.1v.1h.2zm-.9 13.5a1 1 0 0 0 1 1c.6 0 1-.4 1-1s-.4-1-1-1a1 1 0 0 0-1 1zm2.9-28h-.2v12.5h.2.2V40.3h-.2 0zm0 12.5l-.1-.1-2 2 .1.1.1.1 2-2-.1-.1zm-2 2h-.2v13.5h.2.2V54.8h-.2 0zm10.9 2.7h-.2v.1h.1l.1-.1zm1.6 1.6h.2V59h-.1l-.1.1zm0 3.4l.1.1h.1v-.1h-.2zm-4.2 3.3a1 1 0 0 0 1 1c.6 0 1-.4 1-1s-.4-1-1-1-1 .4-1 1zm2.6-22.2h-.2v13.9h.2.2V43.6h-.2 0zm0 13.9l-.1.1 1.6 1.6.1-.1.1-.1-1.6-1.6-.1.1zm1.6 1.6h-.2v3.4h.2.2v-3.4h-.2 0zm0 3.4l-.1-.1-3.3 3.2.1.1.1.1 3.3-3.2-.1-.1h0zM99 44.1l-.1-.1h-.1v.1h.2zm0 6.7h-.2v.1h.1l.1-.1zm1.8 1.8h.2v-.1h-.1l-.1.1zm0 7.8l.1.1h.1v-.1h-.2zM99 62.2l-.1-.2h-.1v.1h.2zm-1 5a1 1 0 0 0 1 1c.6 0 1-.4 1-1s-.4-1-1-1a1 1 0 0 0-1 1zm3.2-25.3l-.1-.1-2.2 2.2.1.1.1.1 2.2-2.2c0 .1-.1-.1-.1-.1zM99 44.1h-.2v6.7h.2.2v-6.7H99zm0 6.7l-.1.1 1.8 1.8.1-.1.1-.1-1.8-1.8-.1.1zm1.8 1.8h-.2v7.8h.2.2v-7.8h-.2zm0 7.8l-.1-.1-1.8 1.7.1.1.1.1 1.8-1.8h-.1zM99 62.2h-.2v5.1h.2.2v-5.1c0 0-.2 0-.2 0zm12.3-9.8h-.2v.1h.1l.1-.1h0zm3.5 2.9h.2v-.1h-.1l-.1.1h0zm-1 4.3a1 1 0 0 0 1 1c.6 0 1-.4 1-1s-.4-1-1-1a1 1 0 0 0-1 1zm-2.5-16h-.2v8.8h.2.2v-8.8h-.2zm0 8.8l-.1.1 3.4 2.9.1-.1.1-.1-3.4-2.9-.1.1zm3.5 2.9h-.2v4.3h.2.2v-4.3h-.2zm-6-1.1h-.2v.1h.1l.1-.1zm3.2 3.3h.2v-.1h-.1l-.1.1zm-.9 6.8a1 1 0 0 0 1 1c.6 0 1-.4 1-1s-.4-1-1-1a1 1 0 0 0-1 1zm-2.3-20.7h-.2v10.7h.2.2V43.6h-.2zm0 10.6l-.1.1 3.3 3.2.1-.1.1-.1-3.3-3.2-.1.1zm3.2 3.3h-.2v6.9h.2.2v-6.9h-.2z"/><path d="M106.4 55.8h-.2v.1h.1l.1-.1zm2.2 2.2h.2v-.1h-.1l-.1.1zm0 4.4l.1.1h.1v-.1h-.2zm-3.2 2.1a1 1 0 0 0 1 1c.6 0 1-.4 1-1s-.4-1-1-1a1 1 0 0 0-1 1zm1-20.9h-.2v12.3h.2.2V43.6h-.2 0zm0 12.3l-.1.1 2.2 2.2.1-.1.1-.1-2.2-2.2-.1.1zm2.2 2.1h-.2v4.3h.2.2V58h-.2zm0 4.4l-.1-.1-2.2 2.2.1.1.1.1 2.2-2.2c0 0-.1-.1-.1-.1zm5.2-12.2h-.2v.1h.1l.1-.1zm3.2 4.2a1 1 0 0 0 1 1c.6 0 1-.4 1-1s-.4-1-1-1a1 1 0 0 0-1 1zm-3.2-10.8h-.2v6.7h.2.2v-6.7h-.2zm0 6.6l-.1.1 4.2 4.2.1-.1.1-.1-4.2-4.2c.1 0-.1.1-.1.1zM68.6 63.8l-.1.1h.1.1l-.1-.1h0zm2.5 0a1 1 0 0 0 1 1c.6 0 1-.4 1-1s-.4-1-1-1-1 .4-1 1zM61 56.2l-.1.1 7.6 7.6.1-.1.1-.1-7.6-7.6c0 0-.1.1-.1.1zm7.6 7.6v.2H72v-.2-.2h-3.4v.2zm-.4 1.8l-.1.1.1.1h.1c-.1 0-.1-.2-.1-.2zm6 0l.1-.2h-.1-.1v.2h.1zm3.4 2.5h.2V68h0l-.2.1h0zm-.9 7.8a1 1 0 0 0 1 1c.6 0 1-.4 1-1s-.4-1-1-1a1 1 0 0 0-1 1zM61 58.4l-.1.1 7.2 7.2.1-.1.1-.1-7.2-7.2-.1.1h0zm7.2 7.2v.2h6v-.2-.2h-6v.2zm6 0l-.1.2 3.4 2.5.1-.2.1-.2-3.4-2.5-.1.2zm3.5 2.5h-.2v7.8h.2.2v-7.8h-.2zM64.1 64h.2v-.1h-.1l-.1.1zm0 2.1h-.2v.1.1c0 0 .2-.2.2-.2zm2.1 2.2l-.1.1.1.1h.1l-.1-.2h0zm4.9 0l.1-.2h0-.1v.2zM74 70h.2v-.1l-.1-.1-.1.2h0zm0 6.1h-.2v.1l.1.1c0-.1.1-.2.1-.2zm1.4 2.3a1 1 0 0 0 1 1c.6 0 1-.4 1-1s-.4-1-1-1a1 1 0 0 0-1 1zM59.7 59.6l-.1.1 4.3 4.3.1-.1.1-.1-4.3-4.3c.1 0-.1.1-.1.1zm4.4 4.4h-.2v2.2h.2.2V64h-.2zm0 2.2l-.1.1 2.2 2.2.1-.1.1-.1-2.2-2.3-.1.2zm2.1 2.1v.2h4.9v-.2-.2h-4.9v.2zm4.9 0l-.1.2 2.9 1.7.1-.2.1-.2-2.9-1.7-.1.2zM74 70h-.2v6.1h.2.2V70H74zm0 6.1l-.1.1 2.3 2.3.1-.1.1-.1-2.2-2.3-.2.1zM56.3 55.3h-.2v.1h0l.2-.1zm-1-3.4a1 1 0 0 0 1 1c.6 0 1-.4 1-1s-.4-1-1-1-1 .4-1 1zm4.8 7.2l.1-.1-3.8-3.8-.1.1-.1.1 3.8 3.8.1-.1zm-3.8-3.8h.2v-3.4h-.2-.2v3.4h.2z"/></g><path d="M52.1,60.7h-10L39.5,58" fill="none" stroke="#0668e1" stroke-width=".36"/><g fill="#0668e1"><path d="M52.5 57.8l.1-.1h0-.1v.1zm-8.3 0l-.2.2h0 .1l.1-.2h0zm-2.7-2.7l.1-.1h0-.1v.1zm-7.9 0a1 1 0 0 0 1 1c.6 0 1-.4 1-1s-.4-1-1-1a1 1 0 0 0-1 1zM54.7 60l.1-.1-2.2-2.2-.1.1-.1.2 2.2 2.2c-.1-.1.1-.2.1-.2zm-2.2-2.2v-.2h-8.3v.2.2h8.3v-.2zm-8.3 0l.1-.1-2.7-2.7-.1.1-.1.1L44 58l.2-.2zm-2.7-2.7v-.2h-6.9v.2.2h6.9v-.2zm10.4-.2l.1-.1v-.1h-.1v.2h0zm-7.2 0l-.1.1h0 .1v-.1h0zm-2.3-2.3l.1-.1h0-.1v.1h0zm-5.2 0a1 1 0 0 0 1 1c.6 0 1-.4 1-1s-.4-1-1-1a1 1 0 0 0-1 1zM56.8 60l.1-.1-4.9-5.1-.1.1-.1.1 4.9 5.1.1-.1zm-4.9-5.1v-.2h-7.2v.2.2h7.2v-.2zm-7.2 0l.1-.1-2.3-2.3-.1.1-.1.1 2.3 2.3.1-.1zm-2.3-2.3v-.2h-4.2v.2.2h4.2v-.2h0zM59 55.3h-.2v.1h0l.2-.1zm-1-1.6a1 1 0 0 0 1 1c.6 0 1-.4 1-1s-.4-1-1-1-1 .4-1 1zm3 3.6l.1-.1-2-2-.1.1-.1.1 2 2 .1-.1zm-2-2h.2v-1.6H59h-.2v1.6h.2zm-21.7 8.5v-.2h-.1 0l.1.2zm-2.4 2.3v.2h.1v-.1l-.1-.1zm-2.5 0V66h-.1v.1h.1zm-9.2 9.2v.2h.1v-.1l-.1-.1h0zm-4.7 0l-.1.1v.1h.1v-.2h0zm-1.3-1.2l.1-.1v-.1h-.1v.2h0zm-7.8 0l-.1.1.1.1h.1l-.1-.2h0zM8 72.6l.1-.1-.1-.1h0v.2h0zm-3.7 0a1 1 0 0 0 1 1c.6 0 1-.4 1-1s-.4-1-1-1a1 1 0 0 0-1 1zm46.2-8.8v-.2H37.3v.2.2h13.2v-.2zm-13.2 0l-.1-.1-2.4 2.3.1.1.1.1 2.3-2.3c.1 0 0-.1 0-.1zm-2.4 2.3V66h-2.5v.2.2h2.5v-.3h0zm-2.5 0l-.1-.1-9.2 9.2.1.1.1.1 9.2-9.2c0 .1-.1-.1-.1-.1zm-9.2 9.2v-.2h-4.7v.2.2h4.7v-.2zm-4.7 0l.1-.1-1.3-1.2-.1.1-.1.1 1.3 1.3.1-.2zm-1.3-1.2v-.2H9.4v.2.2h7.8v-.2zm-7.8 0l.2-.1-1.4-1.4H8l-.1.1 1.4 1.4h.1zM8 72.6v-.2H5.3v.2.2H8v-.2zm26.6-10.4V62h-.1 0l.1.2zM24.3 72.5v.2h.1v-.1l-.1-.1h0zm-8.9 0l-.1.1.1.1h.1l-.1-.2h0zM13.9 71l.1-.1v-.1h-.1v.2h0zm-6 0a1 1 0 0 0 1 1c.6 0 1-.4 1-1s-.4-1-1-1a1 1 0 0 0-1 1zm42.6-8.8V62H34.6v.2.2h15.9v-.2h0zm-15.9 0l-.2-.2-10.3 10.3.1.1.1.1 10.3-10.3h0 0zM24.3 72.5v-.2h-8.9v.2.2h8.9v-.2zm-8.9 0l.1-.1-1.4-1.4h-.2l-.1.1 1.4 1.4h.2zM13.9 71v-.2h-5v.2.2H14l-.1-.2h0zm29.2-1.8V69H43v.1l.1.1zm-2.2 2.2v.2h.1v-.1l-.1-.1h0zm-5.6 0v-.2h-.1v.1l.1.1zm-9.9 9.9v.2h.1v-.1l-.1-.1h0zm-13.5 0a1 1 0 0 0 1 1c.6 0 1-.4 1-1s-.4-1-1-1a1 1 0 0 0-1 1zm38.6-12.1V69h-7.4v.2.2h7.4v-.2zm-7.4 0l-.1-.1-2.2 2.2.1.1.1.1 2.2-2.2c0 .1-.1-.1-.1-.1zm-2.2 2.2v-.2h-5.6v.2.2h5.6v-.2h0zm-5.6 0l-.1-.1-10 9.9.1.1.1.1 10-9.9-.1-.1zm-9.9 9.9v-.2H12.9v.2.2h12.5v-.2h0zm13.5-14.8v-.2h-.1v.1l.1.1zm-2 2v.2h.1v-.1l-.1-.1h0zm-4 0v-.2h-.1v.1l.1.1h0zm-9.4 9.4v.2h.1V78l-.1-.1zm-9.6 0l-.1.1.1.1h.1l-.1-.2h0zm-1.9-2l.1-.1-.1-.1h0v.2h0zm-6.4 0a1 1 0 0 0 1 1c.6 0 1-.4 1-1s-.4-1-1-1-1 .4-1 1zm44.9-9.4v-.2H38.9v.2.2h11.6v-.2zm-11.6 0l-.1-.1-2 2 .1.1.1.1 2-2-.1-.1zm-2 2v-.2h-4v.2.2h4v-.2zm-4 0l-.1-.1-9.4 9.4.1.1.1.1 9.4-9.4c.1 0-.1-.1-.1-.1zm-9.4 9.4v-.2h-9.6v.2.2h9.6v-.2zm-9.6 0l.1-.1-2-2v.1l-.2.1 2 2 .1-.1zm-1.9-2v-.2H6.5v.2.2h5.4l.1-.2h0zm29.6.4v-.2h-.1v.1l.1.1zm-7.4 7.4v.2h.1v-.1l-.1-.1h0zm-5.4 0v-.2h-.1v.1l.1.1h0zm-4.1 3a1 1 0 0 0 1 1c.6 0 1-.4 1-1s-.4-1-1-1a1 1 0 0 0-1 1zm22-10.4v-.2h-5.1v.2.2h5.1v-.2zm-5.1 0l-.1-.1-7.4 7.4.1.1.1.1 7.4-7.4-.1-.1zm-7.4 7.4v-.2h-5.4v.2.2h5.4v-.2zm-5.4 0l-.1-.1-3.1 3.1.1.1.1.1 3.1-3.1-.1-.1zm10.5-10v-.2h-.1v.1l.1.1zm-2.7 2.7v.2h.1v-.1l-.1-.1zm-3.5 0v-.2H33v.1l.1.1zm-6.9 6.9v.2h.1v-.1l-.1-.1h0zm-4.7 0v-.2h-.1v.1l.1.1h0zm-2.1 2a1 1 0 0 0 1 1c.6 0 1-.4 1-1s-.4-1-1-1-1 .4-1 1zM49 73.7v-.2h-9.8v.2.2H49v-.2zm-9.7 0l-.1-.1-2.7 2.7.1.1.1.1 2.7-2.7-.1-.1zm-2.7 2.7v-.2h-3.4v.2.2h3.4v-.2zm-3.5 0l-.1-.1-6.9 6.9.1.1.1.1 6.9-6.9c0 .1-.1-.1-.1-.1zm-6.9 6.9v-.2h-4.7v.2.2h4.7v-.2zm-4.7 0l-.2-.1-1.1 2 .2.1.2.1 1.1-2-.2-.1zm38.4-18.1h.2v-.1H60l-.1.1zm0 4.7h-.2v.1.1c.1 0 .2-.2.2-.2zm2 2l-.1.1v.1h.1v-.2h0zm3.8 0l.1-.1-.1-.1h-.1c.1 0 .1.2.1.2zm1.4 2.4a1 1 0 0 0 1 1c.6 0 1-.4 1-1s-.4-1-1-1-1 .4-1 1zm-9.5-11.2l-.1.1 2.3 2.2.1-.1.1-.1-2.3-2.2c0-.1-.1.1-.1.1zm2.3 2.1h-.2v4.7h.2.2v-4.7h-.2zm0 4.7l-.1.1 2 2 .1-.1.1-.1-2-2-.1.1zm2 2v.2h3.8v-.2-.2h-3.8v.2zm3.8 0l-.1.1 2.3 2.3.1-.1.1-.1-2.3-2.3-.1.1z"/><path d="M53.8 63.1l-.1.1h0 .1v-.1h0zm7.2 0l.1-.1h0-.1v.1zm1.8 1.8h.2v-.1-.1c-.1 0-.2.2-.2.2zm0 3.4h-.2v.1.1l.2-.2zm2.2 2.2l-.1.1.1.1h0c0 0 0-.2 0-.2zm3.2 0l.1-.1-.1-.1h-.1l.1.2h0zm2.8 2.7h.2v-.1l-.1-.1c0 .1-.1.2-.1.2zm-1 4.1a1 1 0 0 0 1 1c.6 0 1-.4 1-1s-.4-1-1-1a1 1 0 0 0-1 1zM51.8 61.1l-.1.1 2 2 .1-.1.1-.1-2-2-.1.1zm2 2v.2H61v-.2-.2h-7.2v.2zm7.2 0l-.1.1 1.8 1.8.1-.1.1-.1-1.8-1.8c0-.1-.1.1-.1.1zm1.8 1.8h-.2v3.4h.2.2v-3.4h-.2zm0 3.4l-.1.1 2.2 2.2.1-.1.1-.1-2.2-2.2c0 0-.1.1-.1.1zm2.2 2.2v.2h3.3v-.2-.2H65v.2zm3.2 0l-.1.1 2.7 2.7.1-.1.1-.1-2.7-2.7-.1.1zm2.8 2.7h-.2v4.2h.2.2v-4.2H71zm-20.3 4.7l.1-.1v-.1h-.1v.2zm2.7 2.7l-.1.1v.1h.1v-.2zm2.8 0a1 1 0 0 0 1 1c.6 0 1-.4 1-1s-.4-1-1-1a1 1 0 0 0-1 1zm-11-2.7v.2h5.4v-.2-.2h-5.4v.2zm5.5 0l-.2.1 2.7 2.7.1-.1.1-.1-2.7-2.7v.1zm2.7 2.7v.2h3.8v-.2-.2h-3.8v.2zm1.4-10.1l.1-.1v-.1h-.1v.2h0zm1.1 1.1h.2v-.1-.1l-.2.2zm0 4.5h-.2v.1.1l.2-.2zm.7 1.6a1 1 0 0 0 1 1c.6 0 1-.4 1-1s-.4-1-1-1a1 1 0 0 0-1 1zm-5.9-7.2v.2h4.2v-.2-.2h-4.2v.2zm4.1 0l-.1.1 1.1 1.1.1-.1.1-.1-1-1.2-.2.2zm1.1 1.1h-.2v4.5h.2.2v-4.5h-.2zm0 4.5l-.1.1 1.6 1.6.1-.1.1-.1L56 76l-.1.1zM55.8 66l.1-.1v-.1h-.1v.2zm2.3 2.3h.2v-.1-.1l-.2.2zm0 4.7h-.2v.1.1l.2-.2zm2.7 2.7l-.1.1v.1h.1v-.2h0zm2.7 0a1 1 0 0 0 1 1c.6 0 1-.4 1-1s-.4-1-1-1a1 1 0 0 0-1 1zm-13-9.7v.2h5.2V66v-.2h-5.2v.2zm5.3 0l-.1.1 2.3 2.3.1-.1.1-.1-2.3-2.3-.1.1zm2.3 2.3h-.2V73h.2.2v-4.7h-.2 0zm0 4.7l-.1.1 2.7 2.7.1-.1.1-.1-2.7-2.7-.1.1zm2.7 2.7v.2h3.6v-.2-.2h-3.6c0 0 0 .2 0 .2zm-23.9 8.5V84h-.1v.1l.1.1h0zm-1.4 1.5l-.1-.1v.1.1c-.1-.1.1-.1.1-.1zm0 3l.1.1v-.1-.1c0 .1-.1.1-.1.1zm-2 2v.2h.1v-.1l-.1-.1h0zm-6.2 0a1 1 0 0 0 1 1c.6 0 1-.4 1-1s-.4-1-1-1a1 1 0 0 0-1 1zm13.8-6.5V84h-4.2v.2.2h4.2v-.2zm-4.2 0l-.1-.1-1.5 1.4.1.1.1.1 1.5-1.4-.1-.1zm-1.4 1.5h-.2v3.1h.2.2v-3.1h-.2zm0 3l-.1-.1-2 2 .1.1.1.1 2-2-.1-.1zm-2 2v-.2h-5.2v.2.2h5.2v-.2zm10.5-2l.1-.2h0 0v.2zm2.2 1.3h.2v-.1l-.1-.1-.1.2h0zm0 4.7H46v.1.1c0-.1.2-.2.2-.2zm1.2 2.1a1 1 0 0 0 1 1c.6 0 1-.4 1-1s-.4-1-1-1a1 1 0 0 0-1 1zm-6.3-8.1v.2H44v-.2-.2h-2.9v.2zm2.9 0l-.1.2 2.2 1.3.1-.2.1-.2-2.2-1.3-.1.2zm2.2 1.3H46v4.7h.2.2V90h-.2zm0 4.7l-.2.1 2.2 2.2.1-.1.1-.1-2.2-2.2c.1-.1 0 .1 0 .1zm-2.6-11.2h-.2v.1.1l.2-.2zm2 2l-.1.1v.1h.1v-.2zm4.5 0l.1-.1v-.1h-.1v.2zm1.8 2.7a1 1 0 0 0 1 1c.6 0 1-.4 1-1s-.4-1-1-1-1 .4-1 1zm-8.3-8.9h-.2v4.2h.2.2v-4.2h-.2zm0 4.2l-.1.1 2 2 .1-.1.1-.1-2-2-.1.1zm2 2v.2h4.5v-.2-.2h-4.5v.2zm4.5 0l-.1.1 2.7 2.7.1-.1.2-.2-2.7-2.7-.2.2zm-11 9v.2h.1v-.1l-.1-.1h0zm-6.9 0a1 1 0 0 0 1 1c.6 0 1-.4 1-1s-.4-1-1-1a1 1 0 0 0-1 1zm8.9-2l-.1-.1-2 2 .1.1.1.1 2-2-.1-.1zm-2 2v-.2h-6v.2.2h6v-.2zm-2 6.9v-.2H37v.1l.1.1h0zm-1.4 1.4v.2h.1v-.1l-.1-.1zm-4.8 0a1 1 0 0 0 1 1c.6 0 1-.4 1-1s-.4-1-1-1a1 1 0 0 0-1 1zm10.2-1.4v-.2h-4v.2.2h4v-.2zm-4 0l-.1-.1-1.5 1.4.1.1.1.1 1.5-1.4-.1-.1zm-1.4 1.4v-.2h-3.8v.2.2h3.8v-.2z"/><path d="M61 58.4l.1.1h0v-.1H61zM59.4 60v.2h.1 0l-.1-.2h0zm-6.7 0v-.2h-.1 0l.1.2zm-2.2 2.2l-.1-.2h0v.1h.1zm0 10.3l.1.1v-.1-.1c.1.1-.1.1-.1.1zm-9.4 9.4l-.1-.2v.1.1c-.1 0 .1 0 .1 0zm0 19.5l.1.1v-.1-.1c.1.1-.1.1-.1.1zm-5.3 5.2l-.1-.1v.1.1c0-.1.1-.1.1-.1zm-.9 9.4a1 1 0 0 0 1 1c.6 0 1-.4 1-1s-.4-1-1-1a1 1 0 0 0-1 1zM61 49.3h-.2v9h.2.2v-9H61zm0 9.1l-.1-.1-1.6 1.6.1.1.1.1 1.6-1.6-.1-.1zM59.4 60v-.2h-6.7v.2.2h6.7V60zm-6.7 0l-.1-.1-2.2 2.1.1.1.1.1 2.2-2.2c0 .1-.1 0-.1 0zm-2.2 2.2h-.2v10.3h.2.2V62.2h-.2zm0 10.3l-.1-.1-9.4 9.3.1.1.1.1 9.4-9.4h-.1zm-9.4 9.4h-.2v19.5h.2.2V81.9h-.2zm0 19.5l-.1-.1-5.2 5.2.1.1.1.1 5.2-5.2-.1-.1zm-5.3 5.2h-.2v9.4h.2.2v-9.4h-.2zm30.3-94.8l.1.1.1-.1v-.1h-.2zm0-5.1l-.1-.1-.1.1v.1h.2zm1-2a1 1 0 0 0 1 1c.6 0 1-.4 1-1s-.4-1-1-1a1 1 0 0 0-1 1zm-3.6 9.1l.1.1 2.5-2-.1-.1-.1-.1-2.5 2c0-.1.1.1.1.1zm2.5-2h.2V6.7H66h-.2v5.1h.2 0zm0-5.1l.1.1 2-2-.1-.1-.1-.1-2 2c0 0 .1.1.1.1zm14.2 11.2v.2h.1.1l-.2-.2zm4.1-4.1v-.2h-.1l-.1.1.2.1h0zm9.3 0v.2h.1l.1-.1c-.1 0-.2-.1-.2-.1zm1.4-2.4a1 1 0 0 0 1 1c.6 0 1-.4 1-1s-.4-1-1-1a1 1 0 0 0-1 1zm-30.6 6.5v.2h15.7v-.2-.2H64.4v.2h0zm15.8 0l.1.1 4.2-4.1-.1-.1-.1-.1-4.3 4.1.2.1zm4.1-4.1v.2h9.2v-.2-.2h-9.2v.2zm9.3 0l.1.1 2.3-2.3-.1-.1-.1-.1-2.3 2.4c-.1-.2.1 0 .1 0zm-18.7 2.3v.2h.1.1c0-.1-.2-.2-.2-.2zm4-4v-.2h-.1v.1l.1.1h0zm8.7 0v.2h.1l.1-.1c-.1 0-.2-.1-.2-.1zm1.2-2.9a1 1 0 0 0 1 1c.6 0 1-.4 1-1s-.4-1-1-1a1 1 0 0 0-1 1zm-22.4 6.9v.2h8.5v-.2-.2h-8.5v.2zm8.5 0l.1.1 4-4-.1-.1-.1-.1-4 4 .1.1zm4-4v.2h8.7v-.2-.2h-8.7v.2zm8.7 0l.1.1 2.2-2.9-.1-.1-.1-.1-2.2 2.9.1.1zm-4.2 7.4v.2h.1.1l-.2-.2zm4-3.9v-.2h-.1l-.1.1c.1-.1.2.1.2.1zm10.8 0a1 1 0 0 0 1 1c.6 0 1-.4 1-1s-.4-1-1-1-1 .4-1 1zm-34.7 3.9v.2h19.9v-.2-.2H63.5v.2h0zm20 0l.1.1 4-4-.1-.1-.1-.1-4 4c-.1 0 .1.1.1.1zm3.9-3.9v.2h11.8v-.2-.2H87.4v.2h0z"/><path d="M74.6 7.8v-.2h-.1l-.1.1c0 0 .2.1.2.1zm3.2 0a1 1 0 0 0 1 1c.6 0 1-.4 1-1s-.4-1-1-1-1 .4-1 1zM63.5 19l.1.1 11-11.2-.1-.1-.1-.1-11 11.2.1.1h0zM74.6 7.8V8h4.2v-.2-.2h-4.2v.2z"/><path d="M72 14.1v.2h.1l.1-.1-.2-.1zm3.8-3.6v-.2h-.1l-.1.1.2.1h0zm4.2-.2v.2h.1.1l-.2-.2zm2.8-3.2a1 1 0 0 0 1 1c.6 0 1-.4 1-1s-.4-1-1-1-1 .4-1 1zm-14.4 7v.2H72v-.2-.2h-3.6v.2zm3.6 0l.1.1 3.8-3.6-.1-.1-.1-.1-3.8 3.6.1.1zm3.8-3.6v.2l4.2-.2v-.2-.2l-4.2.2v.2zm4.2-.2l.1.1 3.8-3.2-.1-.1-.1-.1-3.8 3.2.1.1zM66 25l-.1-.1h0v.1h.1zm20.5-1.1v.2h.1l.1-.1-.2-.1h0zM89 21v-.2h0l-.1.1.1.1h0zm4.9 0l.1-.1h-.1-.1l.1.1h0zm1.8 1.8l-.1.1h.1.1c-.1.1-.1-.1-.1-.1zm10.1 0a1 1 0 0 0 1 1c.6 0 1-.4 1-1s-.4-1-1-1a1 1 0 0 0-1 1zm-38.9 1.1v-.2h-.1l-.1.1.2.1zM66 27h.2v-2H66h-.2v2h.2zm20.5-3.1l.1.1 2.5-2.9-.1-.1-.1-.1-2.5 2.9.1.1zM89 21v.2h4.9V21v-.2H89v.2zm4.9 0l-.1.1 1.8 1.8.1-.1.1-.1-1.8-1.8-.1.1zm1.8 1.8v.2h11v-.2-.2h-11v.2zM66 25l.1.1.9-1.1-.1-.1-.1-.1-.9 1.1.1.1zm.9-1.1v.2h19.6v-.2-.2H66.9v.2zm-2.3-2.4v-.2h-.1-.1l.2.2zm19.6 0v.2h.1.1c-.1 0-.2-.2-.2-.2zm3-3v-.2h-.1-.1c.1 0 .2.1.2.2zm7.3 0l.1-.1h-.1-.1v.1h.1zm1.6 1.4l-.1.1h.1.1v-.1h-.1zm5 0a1 1 0 0 0 1 1c.6 0 1-.4 1-1s-.4-1-1-1a1 1 0 0 0-1 1zM63 23l-.1-.1h-.1v.1h.2zm1.6-1.5v.2h19.5v-.2-.2H64.6v.2zm19.6 0l.1.1 3.1-3.1-.1-.1-.1-.1-3.2 3.1.2.1zm3-3v.2h7.2v-.2-.2h-7.2v.2zm7.3 0l-.1.1L96 20l.1-.1.1-.1-1.6-1.5-.1.2zm1.6 1.4v.2h6v-.2-.2h-6v.2h0zM63 27h.2v-4H63h-.2v4h.2zm0-4l.1.1 1.6-1.5-.1-.1-.1-.1-1.6 1.5c0 0 .1.1.1.1zm-5 2h.2v-.1h-.1l-.1.1h0zm-1.5-1l.1-.1h0 0l-.1.1h0zm-12 0a1 1 0 0 0 1 1c.6 0 1-.4 1-1s-.4-1-1-1a1 1 0 0 0-1 1zM58 27h.2v-2H58h-.2v2h.2zm0-2l.1-.1-1.5-1-.1.1-.1.1 1.5 1 .1-.1zm-1.5-1v-.2h-11v.2.2h11V24zm2.5-8.6l.1.1v-.1-.1H59zm-3.8 3.8v.2h.1 0c0-.1-.1-.2-.1-.2zm-7.5 0a1 1 0 0 0 1 1c.6 0 1-.4 1-1s-.4-1-1-1-1 .4-1 1zM59 10.5h-.2v4.9h.2.2v-4.9H59zm0 4.9l-.1-.1-3.8 3.7.1.1.1.1 3.8-3.8c0 .1-.1 0-.1 0zm-3.8 3.8V19h-6.5v.2.2h6.5v-.2zm6-3.3v-.2h-.1v.1l.1.1h0zm-6 6v.2h.1 0c0-.1-.1-.2-.1-.2zm-9.1 0a1 1 0 0 0 1 1c.6 0 1-.4 1-1s-.4-1-1-1-1 .4-1 1zm17.4-6v-.2h-2.3v.2.2h2.3v-.2zm-2.3 0l-.2-.1-6 6 .1.1.1.1 6-6c.1 0 0-.1 0-.1zm-6 6v-.2h-8.1v.2.2h8.1v-.2zM55 9.1h-.2v.1l.1.1.1-.2zm-1-2.2a1 1 0 0 0 1 1c.6 0 1-.4 1-1s-.4-1-1-1-1 .4-1 1zm2.6 3.4l.1-.1-1.6-1.3-.1.2-.1.1 1.6 1.3.1-.2zM55 9.1h.2V6.9H55h-.2v2.2c0 0 .2 0 .2 0zm-.3 5.9l.2.1V15h0-.2 0zm-1.3 1.8v.2h.1v-.1l-.1-.1h0zm-8 0a1 1 0 0 0 1 1c.6 0 1-.4 1-1s-.4-1-1-1a1 1 0 0 0-1 1zm9.3-6.3h-.2V15h.2.2v-4.5h-.2 0zm0 4.5l-.2-.1-1.3 1.8.2.1.2.1 1.3-1.8-.2-.1zm-1.3 1.8v-.2h-7.1v.2.2h7.1v-.2zm-.7-3.6l.2.1h0v-.1h-.2zm-.7 1.1v.2h.1v-.1l-.1-.1h0zm-10.4 0l-.1.1h0 .1v-.1h0zm-5.1-3.1a1 1 0 0 0 1 1c.6 0 1-.4 1-1s-.4-1-1-1a1 1 0 0 0-1 1zm16.2-.9h-.2v2.9h.2.2v-2.9h-.2zm0 2.9l-.2-.1-.6 1.1.2.1.2.1.6-1.1-.2-.1zm-.7 1.1v-.2H41.6v.2.2H52v-.2h0zm-10.4 0l.1-.1-4.2-3.1-.1.1-.1.1 4.2 3.1.1-.1zm2.5-6.7a1 1 0 0 0 1 1c.6 0 1-.4 1-1s-.4-1-1-1a1 1 0 0 0-1 1zm2.8 1.8l.1-.1-1.8-1.8-.1.1-.1.1 1.8 1.8.1-.1zm4-2h.1 0v-.1l-.1.1zm-2.8-1.8a1 1 0 0 0 1 1c.6 0 1-.4 1-1s-.4-1-1-1a1 1 0 0 0-1 1zm2.8 4.7h.1V7.4h-.2-.2v2.9h.3zm0-2.9l.1-.1-1.8-1.8-.2.1-.1.1 1.8 1.8.2-.1z"/><path d="M61 22.6l-.1-.1h0v.1h.1zm2.5-2.5l.1.1h0v-.1h-.1zm0-7.6h.2v-.1-.1l-.2.2zm-2.2-2.2l.1-.1v-.1h-.1v.2zm-13 0l-.1.2h0 0v-.2zm-1.4-.8l.1-.2-.1-.1-.1.1c-.1.1.1.2.1.2zM45 11.4v.2h0v-.1-.1h0zm-3.7 0l-.1.1v.1h.1v-.2h0zm-2.9-1.9a1 1 0 0 0 1 1c.6 0 1-.4 1-1s-.4-1-1-1-1 .4-1 1zM61 26h.2v-3.4H61h-.2V26h.2zm0-3.4l.1.1 2.5-2.5-.1-.1-.1-.1-2.5 2.5.1.1zm2.5-2.5h.2v-7.6h-.2-.2v7.6h.2zm0-7.6l.1-.1-2.2-2.2-.1.1-.1.1 2.2 2.2c0 0 .1-.1.1-.1zm-2.2-2.2v-.2h-13v.2.2h13v-.2h0zm-13 0l.1-.2-1.4-.8-.1.2-.1.2 1.5.8v-.2zm-1.4-.8l-.1-.1-1.9 1.9.1.1.1.1L47 9.6l-.1-.1zm-2 1.9v-.2h-3.7v.2.2h3.7v-.2zm-3.6 0l.1-.1-1.9-1.9-.1.1-.1.1 1.9 1.9.1-.1zM25.7 49.2h.2v-.1h0c-.1-.1-.2.1-.2.1zm0 11.2h-.2v.1h0c.1 0 .2-.1.2-.1zm2.3 3.2a1 1 0 0 0 1 1c.6 0 1-.4 1-1s-.4-1-1-1a1 1 0 0 0-1 1zm-7-19.1l-.1.1 4.7 4.7.1-.1.1-.1-4.7-4.7c0-.1-.1.1-.1.1zm4.7 4.7h-.2v11.2h.2.2V49.2h-.2zm0 11.2l-.1.1 3.3 3.2.1-.1.1-.1-3.3-3.2-.1.1zm-3.1-9.8h.2v-.1h-.1l-.1.1zm0 9.6h-.2v.1h0c.1 0 .2-.1.2-.1zm1.5 1.4h.2v-.1h0c-.1 0-.2.1-.2.1zm-1 6a1 1 0 0 0 1 1c.6 0 1-.4 1-1s-.4-1-1-1a1 1 0 0 0-1 1zM18.6 47l-.1.1 4 3.6.1-.1.1-.1-4-3.6-.1.1zm4 3.6h-.2v9.6h.2.2v-9.6h-.2zm0 9.6l-.1.1 1.5 1.5.1-.1.1-.1-1.4-1.6-.2.2zm1.5 1.4h-.2v6h.2.2v-6c0 0-.2 0-.2 0zM21 53.5h.2v-.1h-.1l-.1.1h0zm0 14.6h-.2v.1.1c.1 0 .2-.2.2-.2zm1.4 2.4a1 1 0 0 0 1 1c.6 0 1-.4 1-1s-.4-1-1-1-1 .4-1 1zm-4.5-19.7l-.1.1 3.1 2.7.1-.1.1-.1-3.1-2.7-.1.1zm3.1 2.7h-.2v14.6h.2.2V53.5H21zm0 14.6l-.1.1 2.4 2.3.1-.1.1-.1-2.4-2.3-.1.1zm19-22.2h.2v-.1h0l-.2.1zm-1 4.2a1 1 0 0 0 1 1c.6 0 1-.4 1-1s-.4-1-1-1-1 .4-1 1zm-4.1-9.3l-.1.2 5.1 5.1.1-.1.1-.1-5.1-5.1h-.1zm5.1 5.1h-.2v4.2h.2.2v-4.2H40zm-4.7-1.1h.2v-.1h0l-.2.1zm-1 4a1 1 0 0 0 1 1c.6 0 1-.4 1-1s-.4-1-1-1a1 1 0 0 0-1 1zm-3-8l-.1.2 4 4 .1-.1.1-.1-4-4c.1-.1-.1 0-.1 0zm4 4h-.2v4h.2.2v-4h-.2zm-2.2 1.5h.2v-.1h0l-.2.1zm-.9 5.9a1 1 0 0 0 1 1c.6 0 1-.4 1-1s-.4-1-1-1a1 1 0 0 0-1 1zM27.9 41l-.1.1 5.3 5.2.1-.1.1-.1-5.3-5.2-.1.1zm5.2 5.3h-.2v6h.2.2v-6h-.2zm-2.1.9h.2v-.1h0c-.1-.1-.2.1-.2.1zm0 9.2h-.2v.1h0l.2-.1zm3 3l-.1.1h0 .1v-.1zm2.3 0a1 1 0 0 0 1 1c.6 0 1-.4 1-1s-.4-1-1-1a1 1 0 0 0-1 1zM24.8 41l-.1.1 6.1 6.1.1-.1.1-.1-6.1-6.1-.1.1zm6.1 6.2h-.2v9.2h.2.2v-9.2h-.2zm0 9.2l-.1.1 3.1 3.1.1-.1.1-.1-3.1-3.1c.1-.1 0 .1-.1.1zm3.1 3v.2h3.3v-.2-.2H34v.2z"/><path d="M29 48.3h.2v-.1h0c-.1-.1-.2.1-.2.1zm0 10.3h-.2v.1h0l.2-.1zm1.4 2.3a1 1 0 0 0 1 1c.6 0 1-.4 1-1s-.4-1-1-1a1 1 0 0 0-1 1zM23 42.3l-.1.1 6 6 .1-.1.1-.1-6-6-.1.1zm6 6h-.2v10.3h.2.2V48.3H29zm0 10.3l-.1.1 2.4 2.3.1-.1.1-.1-2.4-2.3-.1.1zm-12.5 3.9l.1.1h0v-.1c.1 0-.1 0-.1 0zm-4.8 3.8a1 1 0 0 0 1 1c.6 0 1-.4 1-1s-.4-1-1-1a1 1 0 0 0-1 1zm4.8-7.8h-.2v4h.2.2v-4h-.2zm0 4l-.1-.1-3.8 3.8.1.1.1.1 3.8-3.8-.1-.1h0zm3.2-5.7h.2v-.1h-.1l-.1.1zm0 9.3l.1.1v-.1-.1c.1.1-.1.1-.1.1zM15.9 69a1 1 0 0 0 1 1c.6 0 1-.4 1-1s-.4-1-1-1a1 1 0 0 0-1 1zm1.9-14.1l-.1.1 2 1.8.1-.1.1-.1-2-1.8-.1.1zm1.9 1.9h-.2v9.4h.2.2v-9.4h-.2zm0 9.3l-.1-.1-2.9 2.9.1.1.1.1 2.9-2.9-.1-.1zm-9.9-2.5l-.1-.1h-.1v.1h.2zm-1 2a1 1 0 0 0 1 1c.6 0 1-.4 1-1s-.4-1-1-1a1 1 0 0 0-1 1zm3.3-4.3l-.1-.2-2.3 2.3.1.1.1.1 2.4-2.3c0 .1-.2 0-.2 0zm-2.3 2.3h-.2v2h.2.2v-2c0 0-.2 0-.2 0zM44.5 45h.2v-.1h0l-.2.1zm-.9 4.9a1 1 0 0 0 1 1c.6 0 1-.4 1-1s-.4-1-1-1-1 .4-1 1zM40.5 41l-.1.1 4 4 .1-.1.1-.1-4-4-.1.1zm4 4h-.2v4.9h.2.2V45h-.2zM10.1 59.3l-.1.1h.1.1l-.1-.1h0zm-2.5-2.5l.1-.1h-.1 0v.1h0zm-3.7 0a1 1 0 0 0 1 1c.6 0 1-.4 1-1s-.4-1-1-1-1 .4-1 1zm11.9 2.5v-.2h-5.6v.2.2h5.6v-.2zm-5.7 0l.1-.1-2.5-2.5-.1.1-.1.1 2.5 2.5.1-.1zm-2.5-2.5v-.2H4.9v.2.2h2.7v-.2h0zm4.3-1.3l-.1.1.1.1h.1v-.2zM9.6 53h-.2 0 .1.1zm0-5.3h.2v-.1h-.1l-.1.1h0zm-2.9-2.5l.1-.2h-.1 0v.2zm-5.7 0a1 1 0 0 0 1 1c.6 0 1-.4 1-1s-.4-1-1-1-1 .4-1 1zm16.7 10.3v-.2h-5.8v.2.2h5.8v-.2zm-5.8 0l.1-.1-2.4-2.5v.1l-.1.1 2.4 2.5v-.1zM9.6 53h.2v-5.2h-.2-.2V53c0-.1.2-.1.2 0zm0-5.3l.1-.1L6.8 45l-.1.1-.1.1 2.9 2.5h.1zm-2.9-2.5V45H2v.2.2h4.7v-.2h0zm4 12.3l-.1.1h.1.1v-.1zm-2.5-2.4H8v.1h.1l.1-.1zm0-4.1h.2v-.1h-.1l-.1.1h0zm-1.3-1.1l.1-.1h-.1 0c0-.1 0 .1 0 .1zm-5.9 0a1 1 0 0 0 1 1c.6 0 1-.4 1-1s-.4-1-1-1-1 .4-1 1zm16.4 7.6v-.2h-6.7v.2.2h6.7v-.2zm-6.7 0l.1-.1L8.3 55l-.1.1-.2.2 2.5 2.3c.1 0 .2-.1.2-.1zm-2.5-2.4h.2V51h-.2H8v4.2h.2zm0-4.1l.1-.1L7 49.8l-.1.1-.1.1L8 51.1l.2-.1h0zm-1.3-1.1v-.2H2v.2.2h4.9v-.2zm5.2 2l-.1.1.1.1h.1l-.1-.2h0zM11 50.6h-.2v.1h0l.2-.1zm0-7.6h.2v-.1h-.1l-.1.1zm-2.7-2.7h-.1v.1h.1v-.1zm-.9-7a1 1 0 0 0 1 1c.6 0 1-.4 1-1s-.4-1-1-1-1 .4-1 1zm10.4 18.6v-.2h-5.6v.2.2h5.6v-.2zm-5.7 0l.1-.1-1.1-1.3-.1.1-.1.1L12 52l.1-.1zM11 50.6h.2V43H11h-.2v7.6h.2zm0-7.6l.1-.1-2.7-2.7-.1.1-.1.1 2.7 2.7.1-.1zm-2.7-2.7h.2v-7h-.2-.1v7h.1z"/><path d="M16.5 45.4l-.1.1h0 .1v-.1zm-1.3-1.3H15v.1h.1l.1-.1zm0-9l-.1-.1h0v.1h.1zm1.3-1.5l.1.1h0v-.1h-.1zm0-5.9h.2v-.1h0c-.1-.1-.2.1-.2.1zM13 25.1a1 1 0 0 0 1 1c.6 0 1-.4 1-1s-.4-1-1-1a1 1 0 0 0-1 1zm6.7 20.5v-.2l-3.3-.2v.2.2l3.3.2v-.2zm-3.2-.2l.1-.1-1.3-1.3-.1.1-.1.1 1.3 1.3c-.1 0 .1-.1.1-.1zm-1.3-1.3h.2v-9h-.2-.2v9h.2zm0-9l.1.1 1.3-1.5-.1-.1-.1-.1-1.3 1.5.1.1zm1.3-1.5h.2v-6h-.2-.2v6h.2zm0-5.9l.1-.1-2.5-2.6-.1.1-.1.1 2.5 2.5c-.1.1.1 0 .1 0zm9.4 9.5h.2v-.1h0c-.1 0-.2.1-.2.1zm-3.1-3h-.2v.1h0c.1 0 .2-.1.2-.1zm0-10.5l-.1-.2h-.1v.1l.2.1h0zm2.2-1.3l.1.2h.1v-.1l-.2-.1h0zm-1-3.2a1 1 0 0 0 1 1c.6 0 1-.4 1-1s-.4-1-1-1-1 .4-1 1zm1.9 21.7h.2v-3.6h-.2-.2v3.6h.2zm0-3.6l.1-.1-3.1-3.1-.1.1-.1.1 3.1 3.1.1-.1zm-3.1-3.1h.2V23.7h-.2-.2v10.5h.2 0zm0-10.5l.1.2 2.2-1.2-.1-.2-.1-.2-2.2 1.2.1.2zm2.2-1.2h.2v-3.3H25h-.2v3.3h.2zm3.8 13.3h.2v-.1h0l-.2.1h0zm-3.5-3.6h-.2v.1h0c.1 0 .2-.1.2-.1zm0-5.4l-.1-.1h0v.1h.1zm2.2-2.2l.1.1h0v-.1c.1 0-.1 0-.1 0zm-1-10.1a1 1 0 0 0 1 1c.6 0 1-.4 1-1s-.4-1-1-1-1 .4-1 1zm2.3 26.3h.2v-5.1h-.2-.2v5.1h.2zm0-5l.1-.1-3.4-3.6-.1.1-.1.1 3.4 3.6.1-.1h0zm-3.5-3.6h.2v-5.4h-.2-.2v5.4h.2zm0-5.4l.1.1 2.2-2.2-.1-.1-.1-.1-2.2 2.2.1.1zm2.2-2.2h.2V14.5h-.2-.2v10.1h.2 0z"/><path d="M31.1 33.5h.2v-.1h0c0-.1-.2.1-.2.1zm-2.5-2.6h-.2v.1h0c.1 0 .2-.1.2-.1zm0-3.4l-.1-.1h-.1v.1h.2zm1.8-1.6l.1.1h.1v-.1h-.2zm0-9.1l-.1-.1h-.1v.1h.2zm1.2-2a1 1 0 0 0 1 1c.6 0 1-.4 1-1s-.4-1-1-1a1 1 0 0 0-1 1zM31.1 41h.2v-7.6h-.2-.1V41h.1zm0-7.6l.1-.1-2.5-2.5-.1.1-.1.1 2.5 2.5c0 .1.1-.1.1-.1zm-2.5-2.5h.2v-3.4h-.2-.2v3.4h.2zm0-3.4l.1.1 1.8-1.6-.1-.1-.1-.1-1.8 1.6.1.1zm1.8-1.6h.2v-9h-.2-.2v9h.2zm0-9.1l.1.1 2.2-2-.1-.1-.1-.1-2.2 2c0 0 .1.1.1.1zm2.5 14.8l-.1-.1h0v.1h.1zm1.5-1.4l.1.1h0v-.1h-.1zm0-11l-.1-.2h-.1v.1h.2zm2-1.7l.1.1h.1v-.1h-.2zm-1-3.4a1 1 0 0 0 1 1c.6 0 1-.4 1-1s-.4-1-1-1a1 1 0 0 0-1 1zM32.9 41h.2v-9.4h-.2-.2V41h.2zm0-9.4l.1.1 1.5-1.5-.1-.1-.1-.1-1.5 1.5.1.1zm1.5-1.4h.2v-11h-.2-.2v11h.2 0zm0-11l.1.1 2-1.6-.1-.1-.1-.1-2 1.6.1.1zm2-1.7h.2v-3.4h-.2-.2v3.4h.2zm-1.5 15.8l-.1-.1h0v.1h.1zm2.7-2.7l.1.1h0v-.1h-.1zm0-9.8l-.1-.1h0v.1h.1zm1.9-1.8l.1.1h0V19h-.1zm-1-3.8a1 1 0 0 0 1 1c.6 0 1-.4 1-1s-.4-1-1-1a1 1 0 0 0-1 1zm-3.6 25.7h.2v-7.6h-.2-.2v7.6h.2zm0-7.6l.1.1 2.7-2.7-.1-.1-.1-.1-2.7 2.7c0-.1.1.1.1.1zm2.7-2.7h.2v-9.8h-.2-.2v9.8h.2 0zm0-9.8l.1.1 1.8-1.8-.1-.1-.1-.1-1.8 1.8.1.1zm1.9-1.8h.2v-3.8h-.2-.2V19h.2 0zM42 33l-.1-.2h-.1v.2h.2zm1.6-1.2l.1.1h.1v-.1h-.2 0zm-1-5.8a1 1 0 0 0 1 1c.6 0 1-.4 1-1s-.4-1-1-1a1 1 0 0 0-1 1zm-.6 7l.1.2 1.6-1.2-.1-.1-.1-.1-1.6 1.2c0-.1.1 0 .1 0zm1.6-1.2h.2V26h-.2-.2v5.8h.2zM42 39.5h.2V35H42h-.2v4.5h.2zm0-4.5h.2v-2H42h-.2v2h.2zm-4.3-1.2l-.1-.1h0v.1h.1zm3.4-3.4l.1.1h0v-.1h-.1zm0-7.6l-.1-.1h-.1v.1h.2zm1.6-1.3l.1.1h.1v-.1h-.2zm-.9-4.7a1 1 0 0 0 1 1c.6 0 1-.4 1-1s-.4-1-1-1a1 1 0 0 0-1 1zm-4.1 24.1h.2v-7h-.2-.2v7h.2zm0-7.1l.1.1 3.4-3.4-.1-.1-.1-.1-3.4 3.4c-.1 0 .1.1.1.1zm3.4-3.4h.2v-7.6h-.2-.2v7.6h.2zm0-7.6l.1.1 1.6-1.3-.1-.1-.1-.1-1.6 1.3.1.1zm1.6-1.3h.2v-4.7h-.2-.2v4.7h.2zM47 36l-.1.2h0 0V36zm-1.5-1h-.2v.1h.1l.1-.1zm-.9-6.2a1 1 0 0 0 1 1c.6 0 1-.4 1-1s-.4-1-1-1-1 .4-1 1zM50 36v-.2h-3v.2.2h3V36zm-3 0l.1-.2-1.5-1-.1.2-.1.2 1.5 1 .1-.2zm-1.5-1h.2l.1-6.2h-.2-.2l-.1 6.2h.2z"/><path d="M43.4 38v-.2h-.1 0l.1.2zm-2.9 2.8v.2h.1 0l-.1-.2h0zm-16.3 0v-.2h-.1v.1l.1.1zm-6.5 6.9l-.1-.1h0v.1h.1zm0 9.6l.1.1h0v-.1c.1 0-.1 0-.1 0zm-3.9 3.9v.2h.1.1l-.2-.2h0zm-9.5 0a1 1 0 0 0 1 1c.6 0 1-.4 1-1s-.4-1-1-1a1 1 0 0 0-1 1zM50.1 38v-.2h-6.7v.2.2h6.7V38zm-6.7 0l-.1-.1-2.9 2.9.1.1.1.1 2.9-2.9-.1-.1zm-2.9 2.8v-.2H24.3v.2.2h16.3l-.1-.2h0zm-16.3 0l-.1-.1-6.5 6.9.1.1.1.1 6.5-6.9-.1-.1zm-6.5 6.9h-.2v9.6h.2.2v-9.6h-.2zm0 9.6l-.1-.1-4 4 .1.1.1.1 4-4c.1 0-.1-.1-.1-.1zm-3.9 3.9V61H5.3v.2.2h8.5v-.2h0z"/><path d="M18.5 43.4l-.1.1h0 .1v-.1h0zm-1.1-1.1h-.2v.1h0l.2-.1zm0-6.9l-.1-.1h-.1v.1h.2zm2.9-2.7l.1.1h.1v-.1h-.2zm0-6.7h.2 0 0c-.1-.1-.2.1-.2 0zm-1.8-1.9h-.2v.1h0c0 0 .2-.1.2-.1zm-1-3.5a1 1 0 0 0 1 1c.6 0 1-.4 1-1s-.4-1-1-1a1 1 0 0 0-1 1zm4.2 22.8v-.2h-3.3v.2.2h3.3v-.2zm-3.2 0l.1-.1-1.1-1.1-.1.1-.1.1 1.1 1.1.1-.1zm-1.1-1.1h.2v-6.9h-.2-.2v6.9h.2zm0-6.9l.1.1 2.9-2.7-.1-.1-.1-.1-2.9 2.7.1.1zm2.9-2.7h.2V26h-.2-.2v6.7h.2zm0-6.6l.1-.1-1.8-2-.1.1-.1.1 1.8 2 .1-.1zm-1.8-2h.2v-3.4h-.2-.2v3.4h.2zm-4.4 24l-.1.1h.1.1l-.1-.1h0zM13 47h-.2v.1h.1l.1-.1zm0-10.5h.2v-.1h-.1l-.1.1zm-1.6-1.6h-.2v.1h.1l.1-.1zm-1-6.3a1 1 0 0 0 1 1c.6 0 1-.4 1-1s-.4-1-1-1-1 .4-1 1zm7.3 19.5v-.2h-3.6v.2.2h3.6v-.2zm-3.6 0l.1-.1-1.1-1.1-.1.1-.1.1 1.1 1.1.1-.1h0zM13 47h.2V36.5H13h-.2V47h.2zm0-10.5l.1-.1-1.6-1.6-.1.1-.1.1 1.6 1.6.1-.1zm-1.6-1.6h.2v-6.3h-.2-.2v6.3h.2zM47 41v-.2h-.1 0l.1.2zm-2 6a1 1 0 0 0 1 1c.6 0 1-.4 1-1s-.4-1-1-1a1 1 0 0 0-1 1zm1-5l-.1-.1h0v.1h.1zm4-1v-.2h-3v.2.2h3V41zm-3 0l-.1-.1-1 1 .1.1.1.1 1-1-.1-.1zm-1 1h-.2v5h.2.2v-5H46zm22.8-30.6l.1.1.1-.1v-.1l-.2.1zm.2-3.1l-.1-.1v.1.1l.1-.1h0zM71.1 6v-.2H71v.1l.1.1zm3.8 0a1 1 0 0 0 1 1c.6 0 1-.4 1-1s-.4-1-1-1-1 .4-1 1zM63.5 16.8l.1.1 5.3-5.4-.1-.1-.1-.1-5.2 5.4v.1h0zm5.3-5.4h.2l.2-3.1H69h-.2l-.2 3.1h.2zm.2-3.1l.1.1 2.2-2.3-.2-.1-.1-.1-2.2 2.3.2.1zM71.1 6v.2h4.7V6v-.2h-4.7V6zm-8.5 2h.2v-.1-.1l-.2.2h0zm-1.4-1.5H61v.1.1c0 0 .2-.2.2-.2zm-1-2.5a1 1 0 0 0 1 1c.6 0 1-.4 1-1s-.4-1-1-1a1 1 0 0 0-1 1zm2.4 7.4h.2V8h-.2-.2v3.4h.2 0zm0-3.4l.1-.1-1.5-1.4-.1.1-.1.1 1.5 1.4.1-.1h0zm-1.4-1.5h.2V4h-.2-.2v2.5h.2 0zm-29 103.7a1 1 0 0 0 1 1c.6 0 1-.4 1-1s-.4-1-1-1a1 1 0 0 0-1 1zm3.6-1.4l-.1-.2L33 110l.1.2.1.2 2.7-1.4-.1-.2zm6-5.1l.1-.1v-.1h-.1v.2h0zm.1 1.1a1 1 0 0 0 1 1c.6 0 1-.4 1-1s-.4-1-1-1a1 1 0 0 0-1 1zm-3.2-1.1v.2h3.1v-.2-.2h-3.1v.2zm3.1 0l-.1.1 1.1 1.1.1-.1.1-.1-1.1-1.1-.1.1zm2.2-5.6l.1-.1v-.1H44v.2h0zm1.1 1.1h.2v-.1-.1l-.2.2zm-1 3.3a1 1 0 0 0 1 1c.6 0 1-.4 1-1s-.4-1-1-1-1 .4-1 1zm-3-4.4v.2H44v-.2-.2h-2.9v.2zm2.9 0l-.1.1 1.1 1.1.1-.1.1-.1-1.1-1.1-.1.1zm1.1 1.1h-.2v3.2h.2.2v-3.2h-.2 0zm-6.5 0v.2h.1v-.1l-.1-.1zm-3.9 0a1 1 0 0 0 1 1c.6 0 1-.4 1-1s-.4-1-1-1a1 1 0 0 0-1 1zm6.4-2.5l-.1-.2-2.5 2.5.1.1.1.1 2.5-2.5h-.1zm-2.5 2.5V99h-2.9v.2.2h2.9v-.2zm-.8 8.3l.1-.1v-.1h-.1v.2h0zm.2 1.1a1 1 0 0 0 1 1c.6 0 1-.4 1-1s-.4-1-1-1a1 1 0 0 0-1 1zm-2.2-1.1v.2h2v-.2-.2h-2v.2zm2 0l-.1.1 1.1 1.1.1-.1.1-.1-1.1-1.1-.1.1zm-3.8-2.3v-.2h0v.1.1h0zm-2.6 1.6a1 1 0 1 0 2 0c0-.6-.4-1-1-1a1 1 0 0 0-1 1zm5.9-1.6v-.2H34v.2.2h3.3v-.2zm-3.3 0l-.1-.1-1.6 1.6.1.1.1.1 1.6-1.6-.1-.1zM53 52v.2h.1 0L53 52zm-7 0a1 1 0 0 0 1 1c.6 0 1-.4 1-1s-.4-1-1-1a1 1 0 0 0-1 1zm8-1l.1.1h0V51H54zm-1 1v-.2h-6v.2.2h6V52zm1-3h-.2v2h.2.2v-2H54zm0 2l-.1-.1-1 1 .1.1.1.1 1-1-.1-.1zm11.3.9h-.2v.1h.1l.1-.1zm4.4 4.3l-.1.1h.1.1c-.1.1-.1-.1-.1-.1zm1.5 0a1 1 0 0 0 1 1c.6 0 1-.4 1-1s-.4-1-1-1a1 1 0 0 0-1 1zm-5.9-7h-.2v2.7h.2.2v-2.7h-.2zm0 2.7l-.1.1 4.3 4.3.1-.1.1-.1-4.3-4.3c.1-.1-.1.1-.1.1zm4.4 4.3v.2h2.5v-.2-.2h-2.5v.2zm-6-2.7h-.2v.1h0l.2-.1zm5.6 5.6l-.1.1h.1.1c-.1.1-.1-.1-.1-.1zm3 0a1 1 0 0 0 1 1c.6 0 1-.4 1-1s-.4-1-1-1-1 .4-1 1zm-8.6-9.8h-.2v4.1h.2.2v-4.1h-.2zm0 4.2l-.1.1 5.6 5.6.1-.1.1-.1-5.6-5.6c0 0-.1.1-.1.1zm5.6 5.6v.2h4v-.2-.2h-4v.2zm-6.3-4l.1-.1h0-.1v.1zm6.3 6.3l-.1.1h.1.1l-.1-.1h0zm4.7 0a1 1 0 0 0 1 1c.6 0 1-.4 1-1s-.4-1-1-1a1 1 0 0 0-1 1zm-13-6.3v.2h2v-.2-.2h-2v.2zm2 0l-.1.1 6.3 6.3.1-.1.1-.1-6.3-6.3-.1.1zm6.3 6.3v.2h5.6v-.2-.2h-5.6v.2zM80.4 38l.1-.1h-.1-.1c.1-.1.1.1.1.1zm2.3 2.3l-.1.1h.1.1l-.1-.1h0zm16.8 0l.1-.1h-.1-.1c.1-.1.1.1.1.1zm3.3 3.3l-.1.1h.1.1c-.1 0-.1-.1-.1-.1zm11 0l.1-.1h-.1-.1c.1-.1.1.1.1.1zm2.3 3.2a1 1 0 0 0 1 1c.6 0 1-.4 1-1s-.4-1-1-1a1 1 0 0 0-1 1zM72.8 38v.2h7.6V38v-.2h-7.6v.2zm7.6 0l-.1.1 2.3 2.3.1-.1.1-.1-2.3-2.3-.1.1zm2.3 2.3v.2h16.8v-.2-.2H82.7v.2zm16.8 0l-.1.1 3.3 3.2.1-.1.1-.1-3.3-3.2-.1.1zm3.3 3.3v.2h11v-.2-.2h-11v.2zm11 0l-.1.1 3.3 3.2.1-.1.1-.1-3.3-3.2-.1.1z"/><path d="M84.3 36.5l-.1-.1h-.1v.1h.2zm.9-.9v-.2h-.1-.1l.2.2h0zm3.1 0l.1-.1h-.1-.1l.1.1h0zm1.6 1.6l-.1.1h.1.1c0 .1 0-.1-.1-.1zm6.4 0l.1-.1h-.1-.1c.1 0 .1.1.1.1zm1.6 1.7l-.1.1h.1.1c-.1.1-.1-.1-.1-.1zm9.1 0l.1-.1h-.1 0c0-.1 0 .1 0 .1zm2.9 2.9l-.1.1h.1.1l-.1-.1h0zm7.1 0a1 1 0 0 0 1 1c.6 0 1-.4 1-1s-.4-1-1-1-1 .4-1 1zm-32.6-1.5h.2v-3.8h-.2-.2v3.8h.2zm0-3.8l.1.1.9-.9-.1-.1-.1-.1-.9.9.1.1zm.9-.9v.2h3.1v-.2-.2h-3.1v.2zm3 0l-.1.1 1.6 1.6.1-.1.1-.1-1.6-1.6-.1.1zm1.7 1.7v.2h6.3v-.2-.2H90v.2zm6.3 0l-.1.1 1.6 1.6.1-.1.1-.1-1.6-1.6-.1.1zm1.6 1.6v.2h9.1v-.2-.2h-9.1v.2zm9.1 0l-.1.1 2.9 2.9.1-.1.1-.1-2.9-2.9-.1.1zm2.9 2.9v.2h8.1v-.2-.2h-8.1v.2h0zM52.2 26h17.6c1.8 0 3.2 1.4 3.2 3.2v17.6c0 1.8-1.4 3.2-3.2 3.2H52.2c-1.8 0-3.2-1.4-3.2-3.2V29.2c0-1.8 1.4-3.2 3.2-3.2z"/></g><path d="M52.6 27.6h16.8a2 2 0 0 1 2 2v16.8a2 2 0 0 1-2 2H52.6a2 2 0 0 1-2-2V29.6a2 2 0 0 1 2-2z" fill="#fff"/><path d="M54.2 29.2h13.6a2 2 0 0 1 2 2v13.6a2 2 0 0 1-2 2H54.2a2 2 0 0 1-2-2V31.2a2 2 0 0 1 2-2z" fill="#0668e1"/><path d="M56.4 34.1h1.3H59l1.2.1-.1 1.2H57c-.2 0-.3 0-.5.2-.1.1-.1.2-.1.4v4c0 .2 0 .3.1.4s.3.2.5.2h3.2l.1 1.2-1.3.1h-1.3-1.3c-.5 0-1-.1-1.3-.4s-.5-.7-.5-1.1v-4.7c0-.5.2-.8.5-1.1.3-.4.8-.5 1.3-.5zm-1.6 3.1h4.9v1.2h-4.9v-1.2zm9.9-3.2h1a2.2 2.2 0 0 1 .8.1l.7.2-.1 1.3h-.7-.7-.9c-.4 0-.7.1-1 .2-.2.2-.4.4-.5.8s-.1.9-.1 1.5 0 1.2.1 1.5c.1.4.3.6.5.8s.6.2 1 .2h1.4l1.1-.1.2 1.2a5 5 0 0 1-1.2.2c-.5.1-1 .1-1.5.1-.8 0-1.5-.1-2-.4s-.9-.7-1.1-1.3c-.3-.8-.4-1.6-.3-2.3 0-1 .1-1.8.3-2.3s.6-1 1.1-1.2c.4-.4 1.1-.5 1.9-.5h0z" fill="#fff"/></svg>