<svg width="1500" height="1500" viewBox="0 0 1500 1500" fill="none" xmlns="http://www.w3.org/2000/svg">
<path d="M0 300C0 134.315 134.315 0 300 0H1200C1365.69 0 1500 134.315 1500 300V1200C1500 1365.69 1365.69 1500 1200 1500H300C134.315 1500 0 1365.69 0 1200V300Z" fill="#0668E1"/>
<path d="M1029.28 430.664C1058.88 430.664 1083.96 431.559 1104.5 433.348C1125.64 434.54 1144.98 436.627 1162.5 439.609C1180.02 442.591 1198.15 446.467 1216.87 451.238L1206 552.316C1186.06 551.123 1167.63 550.229 1150.72 549.632C1134.4 549.036 1116.58 548.44 1097.25 547.843C1078.52 547.247 1055.86 546.949 1029.28 546.949C998.465 546.949 974.298 553.21 956.777 565.733C939.86 577.66 927.776 598.233 920.526 627.454C913.276 656.674 909.651 697.523 909.651 750C909.651 801.881 913.276 842.73 920.526 872.546C927.776 901.767 939.86 922.34 956.777 934.267C974.298 946.193 998.465 952.157 1029.28 952.157C1070.97 952.157 1106.01 951.56 1134.4 950.368C1162.8 949.175 1190.9 947.088 1218.69 944.106L1230.47 1044.29C1201.47 1053.23 1171.86 1059.5 1141.65 1063.07C1111.45 1067.25 1073.99 1069.34 1029.28 1069.34C964.631 1069.34 912.974 1059.2 874.306 1038.92C835.639 1018.05 807.545 984.359 790.024 937.845C773.107 891.331 764.648 828.716 764.648 750C764.648 671.284 773.107 608.669 790.024 562.155C807.545 515.641 835.639 482.247 874.306 461.971C912.974 441.1 964.631 430.664 1029.28 430.664Z" fill="white"/>
<path d="M405.543 430.664C439.239 430.664 473.549 430.97 508.47 431.583C543.392 431.583 577.701 432.196 611.398 433.421C645.095 434.646 676.647 436.79 706.055 439.854L699.622 541.857H456.088C440.771 541.857 429.13 545.839 421.166 553.804C413.814 561.155 410.138 572.795 410.138 588.724V912.195C410.138 927.511 413.814 939.151 421.166 947.115C429.13 955.08 440.771 959.062 456.088 959.062H699.622L706.055 1061.07C676.647 1063.52 645.095 1065.35 611.398 1066.58C577.701 1067.8 543.392 1068.42 508.47 1068.42C473.549 1069.03 439.239 1069.34 405.543 1069.34C365.107 1069.34 332.329 1057.7 307.21 1034.42C282.704 1011.14 270.144 980.504 269.531 942.521V558.398C270.144 519.802 282.704 488.864 307.21 465.584C332.329 442.304 365.107 430.664 405.543 430.664ZM286.073 687.971H665.619V787.218H286.073V687.971Z" fill="white"/>
</svg>
