<svg xmlns="http://www.w3.org/2000/svg" width="42" height="42" fill="none" xmlns:v="https://vecta.io/nano"><path d="M0 8.4A8.4 8.4 0 0 1 8.4 0h25.2A8.4 8.4 0 0 1 42 8.4v25.2a8.4 8.4 0 0 1-8.4 8.4H8.4A8.4 8.4 0 0 1 0 33.6V8.4z" fill="#0668e1"/><path d="M28.82 12.06l2.11.08a12.5 12.5 0 0 1 1.62.18l1.52.33-.3 2.83-1.55-.08-1.5-.05-1.9-.03c-.86 0-1.54.18-2.03.53-.47.33-.81.91-1.02 1.73a15 15 0 0 0-.3 3.43 15.2 15.2 0 0 0 .3 3.43c.2.82.54 1.39 1.02 1.73a3.6 3.6 0 0 0 2.03.5l2.94-.05 2.36-.18.33 2.81a14 14 0 0 1-2.49.53 23 23 0 0 1-3.15.18c-1.81 0-3.26-.28-4.34-.85a5.1 5.1 0 0 1-2.36-2.83 15.8 15.8 0 0 1-.71-5.26 15.8 15.8 0 0 1 .71-5.26 5 5 0 0 1 2.36-2.81 9.2 9.2 0 0 1 4.34-.88zm-17.46 0l2.88.03 2.88.05 2.65.18-.18 2.86h-6.82c-.43 0-.75.11-.98.33-.21.21-.31.53-.31.98v9.06c0 .43.1.75.31.98.22.22.55.33.98.33h6.82l.18 2.86-2.65.15-2.88.05-2.88.03c-1.13 0-2.05-.33-2.75-.98-.69-.65-1.04-1.51-1.05-2.57V15.64a3.5 3.5 0 0 1 1.05-2.6c.7-.65 1.62-.98 2.75-.98zm-3.35 7.2h10.63v2.78H8.01v-2.78z" fill="#fff"/></svg>