<svg width="506" height="400" viewBox="0 0 506 400" fill="none" xmlns="http://www.w3.org/2000/svg">
<path d="M397.074 397.937C399.452 394.328 401.184 391.683 402.94 389.037C406.16 384.167 409.251 379.207 412.65 374.466C417.416 367.807 423.112 361.747 425.361 353.568C426.389 349.822 425.734 346.537 422.392 344.296C418.912 341.966 415.288 342.087 411.808 344.417C410.756 345.121 409.801 345.987 408.442 347.071C408.28 344.984 408.167 343.446 408.046 341.853C392.785 341.853 377.743 341.853 362.256 341.853C362.402 361.181 365.921 379.66 372.475 397.84C361.253 397.84 350.491 397.84 340.417 397.84C339.373 395.372 338.475 393.244 337.464 390.866C340.911 389.304 341.898 385.704 342.302 381.659C344.22 362.492 346.202 343.341 348.169 324.183C350.208 304.352 352.158 284.514 354.334 264.7C355.208 256.731 352.87 253.729 344.73 253.681C334.211 253.624 323.692 253.551 313.173 253.778C310.009 253.842 308.375 252.766 306.894 250.048C297.937 233.624 288.656 217.37 279.787 200.905C276.769 195.307 272.505 191.504 266.615 189.789C257.592 187.175 248.506 184.716 239.322 182.774C231.74 181.164 223.989 180.387 215.46 179.117C215.46 169.878 215.428 160.881 215.509 151.876C215.517 151.035 215.978 150.007 216.577 149.4C223.908 141.933 227.961 132.879 229.264 124.157C232.889 121.463 236.312 120.047 237.865 117.499C240.244 113.591 242.146 109.02 242.793 104.513C243.991 96.1637 240.236 91.9566 231.959 90.84C238.116 74.0034 239.29 56.7137 236.482 39.1327C234.961 29.6019 232.396 20.2734 225.251 13.2831C212.863 1.13091 197.376 -1.99208 181.087 1.13091C161.668 4.85261 146.27 15.597 135.136 32.1181C132.425 36.1311 130.006 40.3382 127.271 44.3431C126.001 46.2039 124.471 47.9515 122.78 49.4402C98.5058 70.8076 74.0047 91.9323 49.9649 113.567C42.6017 120.201 36.3712 128.114 29.7929 135.589C26.7666 139.036 26.621 142.766 29.6553 146.577C38.5559 157.734 47.2462 169.06 56.2197 180.161C62.6362 188.09 69.3764 195.752 75.9305 203.486C72.5968 209.635 69.425 215.485 66.2126 221.407C82.784 231.059 99.0398 240.218 113.289 253.049C112.407 253.381 112.075 253.583 111.719 253.632C104.833 254.587 103.304 256.44 103.668 263.462C103.733 264.676 103.838 265.881 103.968 267.087C105.473 281.415 107.002 295.744 108.491 310.081C110.303 327.492 111.824 344.943 113.977 362.314C115.457 374.207 113.847 385.866 113.159 397.621C98.9994 397.621 85.2438 397.621 71.731 397.621C76.6102 383.301 73.0661 368.811 74.4741 354.563C72.3217 354.296 70.6872 354.094 69.0608 353.891C69.0527 353.463 69.0447 353.026 69.0447 352.597C71.2051 352.597 73.4222 352.912 75.5017 352.516C77.7835 352.079 79.9439 350.979 82.161 350.17C82.0396 349.684 81.9182 349.199 81.7968 348.713C78.3175 348.932 74.8463 349.158 71.2294 349.393C71.4074 347.888 71.5449 346.699 71.6825 345.518C70.7843 344.773 69.2712 344.15 69.1094 343.268C68.7857 341.545 69.2146 339.684 69.3602 337.475C70.841 337.904 71.8039 338.179 72.9124 338.495C72.9124 339.717 72.9124 340.898 72.9124 342.071C76.2946 342.16 79.7011 342.475 83.051 342.208C84.2971 342.111 85.4299 340.655 86.6194 339.814C85.3409 339.239 83.9815 338.058 82.8002 338.22C79.8873 338.608 77.0633 339.603 73.9481 340.42C74.3122 338.187 74.6035 336.375 74.8948 334.563C74.3608 335.121 73.8267 335.679 73.2765 336.262C67.6691 332.702 70.3474 327.532 70.6711 322.742C76.1004 325.461 75.3722 330.097 74.7653 334.692C75.4855 333.527 75.8011 332.573 77.8806 333.195C83.2048 334.789 86.8055 333.479 89.0954 329.005C84.3861 329.797 80.3566 330.469 76.3755 331.14C75.5179 328.899 78.2771 326.561 75.5259 324.239C73.7377 322.726 72.9933 319.975 71.7796 317.783C75.267 270.161 69.8943 246.876 62.7819 236.399C63.146 237.847 63.2431 238.616 63.5263 239.32C69.1013 253.308 71.2294 267.961 70.8005 282.855C70.3555 298.333 69.0042 313.786 67.9928 329.239C67.9361 330.048 67.2645 330.793 66.9975 331.61C66.6658 332.653 66.156 333.762 66.2531 334.789C66.4878 337.322 67.038 339.822 67.4911 342.548C65.3873 342.548 64.1736 342.548 63.057 342.548C64.7481 312.127 65.3307 282.168 55.2163 253.236C54.7956 253.3 54.3748 253.357 53.954 253.422C54.8684 256.609 55.7908 259.797 56.3329 261.698C53.2986 263.794 50.8793 265.469 48.5894 267.046C49.1072 269.19 49.4875 270.768 49.6413 271.399C52.0202 269.595 54.5447 267.686 57.3282 265.582C57.7004 266.982 58.2021 268.219 58.3396 269.49C59.6504 282.063 60.6214 294.684 62.2721 307.208C63.1541 313.907 61.1069 319.069 55.9769 324.191C56.3248 316.537 56.9155 309.085 48.3952 305.631C47.5051 310.242 47.9502 310.987 51.7451 312.678C52.9669 313.22 54.8117 314.182 54.9088 315.105C55.281 318.705 55.0626 322.37 55.0626 326.537C53.6789 325.477 53.0154 324.676 52.1901 324.409C51.0006 324.029 49.6898 324.045 48.4356 323.891C48.5732 325.129 48.2495 326.796 48.9292 327.508C50.4423 329.094 52.4571 330.202 55.1516 332.136C54.9169 334.87 54.569 339.061 54.2211 343.179C52.2225 341.456 50.4909 339.967 48.0473 337.872C45.0453 291.464 21.6933 265.266 1.56975 252.2C25.3992 271.1 40.3118 295.032 43.5727 324.66C41.5902 325.671 39.7373 326.189 38.5074 327.362C37.3179 328.495 36.7839 330.307 35.9586 331.82C35.5864 331.715 35.2222 331.602 34.85 331.496C35.4407 332.338 36.0233 333.179 36.614 334.021L36.5331 334.102C36.614 334.255 36.6868 334.417 36.7677 334.571C36.7192 334.393 36.6625 334.215 36.614 334.045C39.0333 332.362 41.4608 330.679 44.1876 328.786C45.0858 333.94 47.4161 339.069 41.6954 342.985C41.218 342.378 40.5869 341.577 39.9477 340.768C40.5626 342.718 41.1776 344.668 41.7925 346.61C43.071 345.793 44.3494 344.967 46.1538 343.81C46.5422 347.581 46.8659 350.768 47.1896 353.948C46.8012 354.102 46.4128 354.247 46.0244 354.401C45.4418 353.487 44.8026 352.605 44.2928 351.65C43.4027 349.984 42.6017 348.276 41.744 346.569C42.1 347.92 42.4803 349.28 42.9172 350.882C40.7083 349.717 38.9201 348.446 36.9376 347.864C35.9828 347.581 34.6478 348.6 33.4826 349.029C34.2917 349.878 34.9714 351.197 35.9424 351.464C37.7225 351.95 39.6807 351.715 41.5417 351.982C42.3185 352.095 43.0224 352.734 43.7588 353.131C43.6536 353.43 43.5403 353.721 43.4351 354.021C40.9591 354.166 38.4831 354.304 35.7806 354.458C35.7806 362.047 35.7644 369.312 35.7886 376.569C35.8129 383.746 34.931 391.052 39.3732 397.945C26.9447 397.945 15.3576 397.921 3.76254 397.985C2.50836 397.994 1.25418 398.511 0 398.794C0.0970978 399.199 0.186104 399.595 0.283202 400C148.479 400 296.674 400 444.87 400C444.886 399.32 444.91 398.649 444.927 397.969C429.456 397.929 413.993 397.961 397.074 397.937ZM66.0994 347.241C64.9989 349.83 66.6334 353.681 61.5762 354.336C61.8513 351.675 62.0698 349.482 62.353 346.747C63.8337 346.941 64.8371 347.079 66.0994 347.241ZM61.8918 322.483C61.2364 328.066 63.7933 334.085 56.5514 336.359C54.7875 329.094 55.5481 326.844 61.8918 322.483ZM55.5157 340.162C57.2149 339.692 58.8575 339.247 60.7185 338.738C60.7994 344.773 60.7994 344.773 54.658 349.911C54.9493 346.569 55.2325 343.43 55.5157 340.162ZM53.3795 351.367C52.9507 352.419 51.9878 353.252 51.2677 354.191C50.588 353.268 49.4956 352.427 49.3014 351.416C48.8159 348.827 48.735 346.165 48.4842 343.527C50.1915 346.27 55.1111 347.087 53.3795 351.367ZM37.7792 356.197C49.1396 356.197 60.6538 356.197 72.5968 356.197C72.5968 358.584 72.5968 360.696 72.5968 362.281C68.2355 363.657 64.1736 364.862 60.1602 366.23C56.9398 367.322 53.8003 367.734 50.9602 365.461C47.0844 362.362 42.8121 361.561 37.7711 363.058C37.7792 360.696 37.7792 358.616 37.7792 356.197ZM40.1823 365.024C42.7635 365.097 45.8302 365.178 47.8045 366.529C52.6999 369.895 57.4415 370.113 62.6848 367.864C64.7724 366.966 66.9732 366.23 69.1903 365.777C71.8605 365.226 73.4545 366.133 72.7506 368.446C67.9604 370.307 63.9389 371.642 60.1278 373.422C57.3929 374.701 54.8927 374.887 52.5542 373.034C48.2495 369.62 43.6131 367.597 38.0219 369.118C36.8325 366.383 37.941 364.959 40.1823 365.024ZM72.6777 373.446C71.9576 374.045 71.3345 374.83 70.5092 375.21C68.2274 376.27 65.6705 376.861 63.5667 378.188C57.5062 382.006 55.7423 382.087 49.9083 377.54C46.348 374.765 42.7231 372.354 37.7468 372.832C40.5222 370.566 43.4998 370.582 46.5099 372.071C47.7074 372.662 48.7917 373.495 49.8678 374.304C54.0107 377.411 58.0807 377.565 62.5957 374.798C64.7885 373.447 67.5316 372.904 70.1046 372.306C70.8248 372.136 71.8039 373.034 72.6777 373.446ZM65.4197 397.816C58.5662 397.654 51.7046 397.678 44.8592 397.921C42.1243 398.018 40.7406 396.909 39.535 394.676C36.5412 389.11 37.5445 383.131 37.7063 377.29C37.7225 376.699 40.6435 375.437 41.833 375.785C44.0662 376.448 46.1377 377.896 48.0634 379.312C55.4752 384.765 57.757 384.822 65.3792 379.951C67.3212 378.714 69.6353 378.058 72.5483 376.804C72.8881 383.544 73.3736 389.126 70.7034 394.442C69.5625 396.683 68.1789 397.88 65.4197 397.816ZM230.373 98.5424C231.247 96.2931 231.789 93.3643 232.525 93.3158C234.402 93.1944 237 93.8012 238.141 95.12C239.751 96.9809 240.981 99.6912 241.183 102.143C241.668 107.992 239.54 113.259 235.616 117.604C234.313 119.044 232.323 119.869 230.648 120.978C230.308 120.638 229.976 120.29 229.636 119.95C229.976 115.144 230.195 110.33 230.688 105.541C231.23 100.338 233.617 98.2754 238.61 98.2754C236.894 95.6459 236.49 95.6378 230.373 98.5424ZM148.924 91.3417C151.497 81.9484 153.819 72.6442 153.447 62.4985C156.198 63.7687 158.569 65.1684 161.134 66.0017C167.275 68.0001 173.368 67.0778 179.348 65.0471C191.445 60.937 202.247 54.4321 212.523 46.9725C213.777 46.0583 215.072 45.1926 216.399 44.2784C217.167 50.8318 217.224 57.2234 218.802 63.2186C220.914 71.2283 223.471 79.3028 227.209 86.641C230.276 92.6766 229.337 98.2511 228.682 104.198C228.431 106.487 228.342 108.809 228.423 111.107C229.208 133.049 218.996 151.803 198.169 158.332C175.755 165.355 151.497 149.748 147.556 125.978C146.812 121.496 145.396 116.924 148.268 112.458C148.908 111.463 148.018 109.578 148.058 108.105C148.212 102.491 147.484 96.6168 148.924 91.3417ZM165.43 173.478C183.733 172.418 200.491 168.251 213.138 153.761C213.623 162.588 214.157 170.994 214.441 179.408C214.473 180.379 213.3 181.819 212.321 182.345C198.395 189.692 183.992 191.043 169.064 185.614C165.932 184.473 163.917 183.025 165.091 179.182C165.584 177.564 165.325 175.719 165.43 173.478ZM146.86 94.9016C138.947 93.696 134.359 96.7624 133.17 103.696C132.053 110.201 133.469 116.407 137.264 121.738C138.599 123.615 141.391 124.416 143.414 125.856C144.538 126.649 146.059 127.588 146.359 128.729C148.673 137.75 153.277 145.282 160.147 151.56C161.32 152.636 162.469 154.384 162.566 155.897C163.076 163.551 163.197 171.229 163.537 178.899C163.658 181.682 162.534 183.065 159.718 183.47C155.462 184.077 151.246 185.023 146.998 185.727C140.703 186.771 134.772 186.099 129.14 182.645C121 177.653 112.82 172.669 104.34 168.316C97.5672 164.837 92.6071 159.74 88.0273 153.907C83.2129 147.766 78.0748 141.884 72.7991 135.541C76.5212 131.099 80.1866 126.682 83.9006 122.313C98.3925 105.274 112.941 88.2915 127.336 71.1717C129.067 69.1166 130.394 68.9144 133.032 69.2542C137.903 69.8853 139.489 72.3448 140.484 76.7947C141.528 81.463 143.834 85.84 145.542 90.3627C146.019 91.6572 146.318 93.0326 146.86 94.9016ZM139.627 101.075C143.923 100.872 145.485 103.834 145.566 107.175C145.703 112.758 145.113 118.364 144.83 124.101C141.334 124.416 138.866 122.297 137.984 119.602C136.382 114.732 135.249 109.602 134.796 104.505C134.489 101.002 136.876 98.0731 140.266 96.7624C141.69 96.2122 143.81 96.2365 145.08 96.9485C145.962 97.4501 145.93 99.5699 146.27 100.856C143.551 100.209 141.326 99.6831 139.109 99.1572C138.963 99.5618 138.826 99.9663 138.68 100.371C138.987 100.614 139.319 101.091 139.627 101.075ZM70.2907 194.036C57.9917 179.052 45.6036 164.133 33.4988 148.996C27.4382 141.415 27.1874 140.428 33.8629 133.235C44.5679 121.698 55.5481 110.322 67.2484 99.8126C86.3766 82.6199 106.185 66.1878 125.653 49.3755C126.939 48.267 127.862 46.6975 128.816 45.2573C133.777 37.7654 138.704 30.2411 143.632 22.7249C143.988 22.9029 144.344 23.0808 144.692 23.2669C135.298 37.1181 135.856 52.4256 138.195 68.8416C134.942 68.0082 132.085 67.272 129.027 66.4872C109.607 89.3514 90.0987 112.329 70.4526 135.46C78.3741 144.983 86.1339 154.465 94.104 163.761C95.876 165.832 96.0945 167.281 94.7351 169.667C88.8122 180.056 83.1077 190.574 76.9905 201.666C74.5954 198.947 72.3622 196.561 70.2907 194.036ZM119.438 397.775C118.419 397.775 116.995 397.775 115.053 397.775C115.223 394.037 115.393 390.372 115.595 386.068C117.909 388.277 119.697 389.984 121.194 391.416C120.628 393.471 120.07 395.493 119.438 397.775ZM302.751 253.64C287.126 253.519 271.51 253.244 255.885 253.268C211.422 253.341 166.96 253.495 122.505 253.745C118.362 253.77 115.466 252.289 112.083 249.862C99.0965 240.541 85.6403 231.892 72.346 223.009C71.2456 222.273 70.0723 221.634 68.5025 220.695C78.5117 202.531 88.3105 184.764 98.2711 166.698C105.934 171.188 113.418 175.582 120.903 179.967C121.016 180.031 121.138 180.096 121.251 180.177C131.988 188.365 143.923 189.23 156.489 185.816C160.341 184.773 163.667 185.056 167.583 186.625C183.976 193.211 199.957 191.528 215.242 182.709C216.439 182.022 218.017 181.269 219.255 181.488C233.002 183.963 246.782 186.334 260.416 189.344C268.961 191.229 275.548 195.849 279.836 204.214C287.879 219.886 296.771 235.121 305.308 250.549C305.745 251.334 306.061 252.184 306.603 253.381C305.073 253.478 303.916 253.648 302.751 253.64ZM410.408 357.192C408.903 351.715 410.829 347.605 415.457 346.035C419.196 344.765 422.845 347.249 422.489 351.149C422.287 353.349 421.639 355.76 420.434 357.565C415.457 365.024 410.182 372.29 405.019 379.62C404.712 379.466 404.413 379.312 404.105 379.159C405.173 372.395 406.168 365.623 407.423 358.891C407.552 358.228 409.227 357.84 410.408 357.192ZM367.564 343.228C373.349 343.05 379.143 343.147 384.928 343.147C390.989 343.139 397.049 343.034 403.102 343.228C404.324 343.268 405.505 344.45 406.702 345.105C405.57 345.687 404.445 346.764 403.312 346.78C391.329 346.909 379.345 346.925 367.37 346.788C366.172 346.772 364.983 345.55 363.785 344.887C365.047 344.312 366.294 343.268 367.564 343.228ZM391.62 398.018C386.789 397.727 381.926 398.074 377.096 397.848C375.947 397.791 374.223 396.804 373.819 395.817C368.163 381.877 365.614 367.241 364.174 351.626C378.423 351.626 392.081 351.626 406.476 351.626C405.877 356.497 405.667 361.44 404.607 366.189C402.535 375.469 399.922 384.628 397.672 393.875C396.847 397.249 394.97 398.22 391.62 398.018Z" fill="#1B1C17"/>
<path d="M479.163 24.8527C435.072 24.8446 390.973 25.0793 346.883 24.7233C331.355 24.5938 319.137 35.8075 319.445 52.3124C319.987 80.8967 319.598 109.489 319.574 138.081C319.574 139.683 319.493 141.326 319.17 142.887C317.098 152.895 315.043 162.912 312.793 172.879C310.366 183.607 307.736 194.279 304.961 205.946C306.247 204.538 306.854 203.866 307.469 203.203C317.843 191.884 328.192 180.549 338.605 169.271C341.3 166.358 344.617 165.104 348.744 165.331C354.117 165.622 359.522 165.29 364.919 165.298C403.345 165.315 441.772 165.387 480.206 165.363C495.515 165.347 505.994 154.691 505.994 139.335C506.002 110.072 506.002 80.8077 505.994 51.5357C505.994 35.1926 495.596 24.8608 479.163 24.8527ZM504.343 140.096C504.303 153.882 493.913 163.842 479.591 163.874C451.012 163.939 422.433 163.882 393.854 163.874C378.893 163.874 363.924 164.085 348.962 163.737C343.752 163.615 339.754 165.274 336.404 168.842C327.827 177.976 319.348 187.192 310.868 196.415C310.277 197.062 309.978 197.976 309.541 198.769C309.266 198.519 308.99 198.276 308.723 198.025C311.96 183.769 314.978 169.449 318.506 155.266C320.909 145.606 321.33 135.881 321.29 126.018C321.184 101.075 321.16 76.1313 321.29 51.1878C321.37 36.1554 331.218 26.5518 346.228 26.5437C390.715 26.5194 435.201 26.5113 479.688 26.5437C494.35 26.5518 504.295 36.3738 504.343 51.1069C504.448 80.7672 504.44 110.428 504.343 140.096Z" fill="#1B1C17"/>
<path d="M53.0146 293.641C52.9984 293.576 52.9903 293.512 52.9741 293.455L52.9336 293.471C52.9579 293.528 52.9822 293.584 53.0146 293.641Z" fill="#1B1C17"/>
<path d="M48.8965 294.304C48.5971 294.643 48.2896 294.983 47.9902 295.323C49.2282 296.933 50.1668 299.36 51.7851 299.959C54.3825 300.922 54.3906 302.483 54.3744 304.522C54.3663 305.865 54.4877 307.2 54.5605 308.6C61.0013 304.02 61.0013 304.02 58.6386 300.711C57.6596 301.763 56.7129 302.775 55.4263 304.142C55.0622 301.488 54.8761 299.263 54.4149 297.095C54.164 295.897 53.5167 294.781 53.0231 293.632C53.2335 294.684 53.452 295.76 53.7433 297.2C51.7932 296.043 50.3449 295.177 48.8965 294.304Z" fill="#1B1C17"/>
<path d="M31.1348 238.77C30.9487 239.385 30.7545 240 30.5684 240.623C34.4523 242.742 38.3281 244.87 42.827 247.33C42.6651 240.938 38.1986 240.768 35.2452 239.061C34.1772 238.446 32.5184 238.843 31.1348 238.77Z" fill="#1B1C17"/>
<path d="M77.1606 301.067C75.3964 306.358 76.5132 311.658 79.7826 315.889C83.0763 312.119 80.0497 308.454 79.4346 304.773C79.2323 303.608 78.1317 302.596 77.1606 301.067Z" fill="#1B1C17"/>
<path d="M20.0273 325.809C24.7932 330.056 29.373 329.409 34.2926 328.843C32.3345 323.859 27.6172 326.27 24.5909 324.579C23.7899 324.126 22.1554 325.186 20.0273 325.809Z" fill="#1B1C17"/>
<path d="M25.9252 316.586C23.4816 312.338 19.808 311.432 14.9531 313.883C17.2026 318.001 21.6043 319.086 25.9252 316.586Z" fill="#1B1C17"/>
<path d="M34.2017 312.572C33.5463 312.2 32.0251 312.556 31.3616 313.147C30.4149 313.996 29.9537 315.372 29.185 316.448C28.6024 317.281 27.8661 318.001 27.1055 318.891C27.8418 319.959 28.6833 321.156 29.7595 322.71C31.661 320.032 33.4492 317.766 34.8895 315.307C35.2536 314.684 34.7924 312.912 34.2017 312.572Z" fill="#1B1C17"/>
<path d="M80.6719 320.024C83.2369 320.841 85.7614 321.901 88.3911 322.306C89.1679 322.427 90.2279 320.687 91.1584 319.798C90.2603 319.094 89.3459 317.783 88.464 317.807C85.899 317.888 83.3502 318.495 80.8013 318.899C80.7609 319.272 80.7204 319.644 80.6719 320.024Z" fill="#1B1C17"/>
<path d="M37.5932 337.46C35.8211 337.314 34.219 336.99 32.6654 337.136C31.7835 337.217 30.9743 338.074 30.1328 338.576C30.7801 339.337 31.3951 340.696 32.0829 340.736C34.6236 340.882 37.1886 340.607 39.7455 340.485C38.7502 338.503 37.7469 336.529 36.7516 334.547C37.0268 335.493 37.3019 336.44 37.5932 337.46Z" fill="#1B1C17"/>
<path d="M39.7539 340.493C39.762 340.517 39.7782 340.534 39.7863 340.558C39.8349 340.623 39.8835 340.688 39.9401 340.753C39.9158 340.664 39.8835 340.582 39.8592 340.493C39.8187 340.485 39.7863 340.493 39.7539 340.493Z" fill="#1B1C17"/>
<path d="M52.9514 239.408C50.3945 243.421 48.0965 247.03 45.8066 250.638C46.0656 250.865 46.3326 251.099 46.5915 251.326C52.4174 247.896 55.0633 243.591 52.9514 239.408Z" fill="#1B1C17"/>
<path d="M52.2715 287.742C52.2796 287.726 52.2877 287.718 52.3039 287.702V287.694C52.3363 287.208 52.3282 286.755 52.2877 286.318C52.2877 286.788 52.2877 287.257 52.2877 287.726L52.2715 287.742Z" fill="#1B1C17"/>
<path d="M52.9754 293.446C52.9754 293.422 52.9673 293.398 52.9673 293.381C52.9592 293.406 52.9592 293.43 52.9511 293.454C52.9349 293.47 52.9754 293.446 52.9754 293.446Z" fill="#1B1C17"/>
<path d="M57.1194 287.2C59.5549 285.639 60.089 283.034 58.0176 279.927C55.9461 282.742 54.1175 285.226 52.2969 287.71C52.5234 289.603 52.7419 291.496 52.9685 293.382C53.4701 290.72 54.6677 288.762 57.1194 287.2Z" fill="#1B1C17"/>
<path d="M47.5362 258.001C43.9355 256.342 40.618 254.813 37.3086 253.284C39.3476 258.68 43.9517 260.509 47.5362 258.001Z" fill="#1B1C17"/>
<path d="M93.9344 308.398C89.5893 308.115 86.207 307.888 82.3555 307.637C86.2556 312.079 89.9129 312.564 93.9344 308.398Z" fill="#1B1C17"/>
<path d="M51.1292 279.004C49.2924 277.499 47.4475 275.994 45.6108 274.49C45.1819 274.902 44.7531 275.323 44.3242 275.735C45.4894 277.135 46.4037 278.931 47.8683 279.846C50.4818 281.472 52.0516 283.486 52.2781 286.31C52.2862 283.624 52.2862 280.954 52.2862 278.276C51.9059 278.527 51.5176 278.761 51.1292 279.004Z" fill="#1B1C17"/>
<path d="M21.0386 310.963C22.2849 308.018 25.0283 305.259 22.382 301.578C19.3634 304.571 18.7807 309.337 21.0386 310.963Z" fill="#1B1C17"/>
<path d="M13.0586 302.046C12.5893 301.626 11.416 301.99 10.5664 301.998C10.7363 302.823 10.6311 304.045 11.1409 304.409C13.1233 305.833 15.2999 306.99 17.4037 308.252C17.6545 307.945 17.9054 307.637 18.1562 307.322C16.4732 305.542 14.8792 303.673 13.0586 302.046Z" fill="#1B1C17"/>
<path d="M37.0767 227.087C36.4859 227.289 35.9033 227.483 35.3125 227.686C36.5992 231.076 37.8779 234.466 39.1646 237.856C39.5531 237.726 39.9415 237.597 40.3219 237.467C39.2455 234.004 38.1611 230.55 37.0767 227.087Z" fill="#1B1C17"/>
<path d="M91.5097 297.694C89.608 299.328 87.7143 300.962 85.8125 302.605C88.8553 302.362 92.2947 302.694 92.4485 298.689C92.1329 298.357 91.8173 298.026 91.5097 297.694Z" fill="#1B1C17"/>
<path d="M184.875 120.962C188.516 122.588 196.64 121.131 199.205 118.429C200.92 116.617 200.411 114.942 198.631 113.664C191.356 108.445 190.426 100.913 190.847 92.8385C190.911 91.5278 190.855 90.2009 190.855 88.8822C190.377 88.8741 189.908 88.8741 189.431 88.866C189.285 92.0699 188.945 95.2738 189.042 98.4696C189.277 105.84 192.335 111.86 198.679 116.164C198.606 116.617 198.542 117.07 198.469 117.523C193.994 118.648 189.528 119.78 184.875 120.962Z" fill="#1B1C17"/>
<path d="M162.177 78.8256C166.627 80.8887 171.134 82.8385 175.666 84.7156C176.499 85.0635 177.543 84.9017 178.498 84.9745C178.376 83.9146 178.627 82.2075 178.077 81.8838C173.27 79.1168 168.318 76.5926 163.261 73.9146C161.74 75.3142 160.615 75.9048 160.348 76.7625C160.203 77.2398 161.368 78.4534 162.177 78.8256Z" fill="#1B1C17"/>
<path d="M200.629 85.9209C204.925 83.8174 209.141 81.5358 213.373 79.3028C214.198 78.8659 214.967 78.3157 215.768 77.8222C215.744 77.4339 215.719 77.0455 215.695 76.6491C214.756 76.3254 213.769 75.6216 212.895 75.7429C207.134 76.552 202.142 79.0924 198.015 83.162C197.416 83.7527 197.627 85.1766 197.465 86.2122C198.533 86.1313 199.747 86.3498 200.629 85.9209Z" fill="#1B1C17"/>
<path d="M176.297 133.688C175.99 133.915 175.957 135.185 176.233 135.387C177.657 136.447 179.145 137.822 180.772 138.106C182.164 138.348 183.782 137.256 185.295 136.746C185.238 136.342 185.182 135.937 185.125 135.533C182.981 134.602 180.885 133.542 178.668 132.814C178.029 132.612 176.961 133.186 176.297 133.688Z" fill="#1B1C17"/>
<path d="M356.543 73.4775C375.016 73.4856 393.489 73.4775 411.962 73.4775C430.572 73.4775 449.175 73.4937 467.785 73.4694C473.595 73.4614 477.203 70.9533 478.514 66.1636C480.513 58.8335 475.755 53.2024 467.477 53.2024C430.532 53.1862 393.586 53.1862 356.64 53.1943C349.293 53.1943 344.762 57.1587 344.843 63.4775C344.924 69.5698 349.471 73.4694 356.543 73.4775ZM351.381 55.7671C353.031 55.0632 355.022 54.9095 356.867 54.9014C375.186 54.8448 393.505 54.869 411.832 54.869C430.289 54.869 448.746 55.0875 467.194 54.7558C473.862 54.6344 477.333 59.3998 477.365 63.3238C477.406 68.3319 473.231 71.7947 467.162 71.7947C430.119 71.8028 393.068 71.8109 356.025 71.7866C351.179 71.7866 347.537 69.1086 346.655 65.1037C345.846 61.4629 347.756 57.3205 351.381 55.7671Z" fill="#1B1C17"/>
<path d="M477.615 99.5701C480.431 92.3451 475.446 85.638 467.015 85.5975C449.351 85.5085 431.687 85.5733 414.024 85.5733C394.742 85.5733 375.46 85.5894 356.178 85.5652C351.76 85.5571 347.868 86.5441 345.562 90.7756C341.605 98.0329 346.379 105.857 354.899 105.889C373.639 105.954 392.387 105.913 411.127 105.905C429.867 105.905 448.615 105.921 467.355 105.897C472.606 105.889 475.988 103.745 477.615 99.5701ZM411.038 104.238C392.848 104.238 374.667 104.246 356.477 104.23C349.883 104.222 345.885 101.075 345.804 95.8808C345.724 90.7594 349.915 87.2642 356.315 87.2561C393.091 87.2399 429.867 87.2318 466.643 87.2561C472.647 87.2561 476.757 90.8726 476.692 95.9212C476.628 100.865 472.703 104.214 466.805 104.222C448.218 104.255 429.624 104.238 411.038 104.238Z" fill="#1B1C17"/>
<path d="M483.62 120.225C474.323 120.072 465.017 120.055 455.72 120.233C450.202 120.339 446.245 124.877 446.399 130.371C446.553 135.703 450.534 139.74 455.963 139.869C460.543 139.983 465.131 139.894 469.71 139.894C472 139.902 474.29 139.902 476.588 139.902C478.878 139.902 481.176 139.958 483.466 139.886C489.187 139.708 493.062 135.751 493.095 130.12C493.127 124.449 489.373 120.322 483.62 120.225ZM482.989 138.259C478.554 138.365 474.112 138.284 469.678 138.284C465.244 138.276 460.802 138.365 456.368 138.243C451.739 138.114 448.066 134.465 447.985 130.136C447.904 125.873 451.537 121.916 456.181 121.827C465.187 121.649 474.201 121.649 483.199 121.819C488.224 121.916 491.606 125.662 491.444 130.363C491.307 134.886 487.9 138.146 482.989 138.259Z" fill="#1B1C17"/>
<path d="M360.993 66.9158C385.38 66.9077 409.768 66.9077 434.148 66.9158C437.077 66.9158 439.747 66.4789 439.674 62.7087C439.609 59.165 437.061 58.8413 434.285 58.8494C422.027 58.8818 409.768 58.8656 397.501 58.8656C385.372 58.8656 373.251 58.8818 361.122 58.8494C358.25 58.8413 355.409 58.9627 355.377 62.7572C355.353 66.4466 358.063 66.9158 360.993 66.9158Z" fill="#0668E1"/>
<path d="M360.176 202.735C361.647 202.735 362.839 201.544 362.839 200.073C362.839 198.603 361.647 197.412 360.176 197.412C358.706 197.412 357.514 198.603 357.514 200.073C357.514 201.544 358.706 202.735 360.176 202.735Z" fill="#1B1C17"/>
<path d="M369.887 202.735C371.358 202.735 372.55 201.544 372.55 200.073C372.55 198.603 371.358 197.412 369.887 197.412C368.417 197.412 367.225 198.603 367.225 200.073C367.225 201.544 368.417 202.735 369.887 202.735Z" fill="#1B1C17"/>
<path d="M379.596 202.735C381.067 202.735 382.259 201.544 382.259 200.073C382.259 198.603 381.067 197.412 379.596 197.412C378.126 197.412 376.934 198.603 376.934 200.073C376.934 201.544 378.126 202.735 379.596 202.735Z" fill="#1B1C17"/>
<path d="M389.305 202.735C390.776 202.735 391.968 201.544 391.968 200.073C391.968 198.603 390.776 197.412 389.305 197.412C387.835 197.412 386.643 198.603 386.643 200.073C386.643 201.544 387.835 202.735 389.305 202.735Z" fill="#1B1C17"/>
<path d="M399.016 202.735C400.486 202.735 401.679 201.544 401.679 200.073C401.679 198.603 400.486 197.412 399.016 197.412C397.546 197.412 396.354 198.603 396.354 200.073C396.354 201.544 397.546 202.735 399.016 202.735Z" fill="#1B1C17"/>
<path d="M408.725 202.735C410.195 202.735 411.387 201.544 411.387 200.073C411.387 198.603 410.195 197.412 408.725 197.412C407.255 197.412 406.062 198.603 406.062 200.073C406.062 201.544 407.255 202.735 408.725 202.735Z" fill="#1B1C17"/>
<path d="M418.436 202.735C419.906 202.735 421.098 201.544 421.098 200.073C421.098 198.603 419.906 197.412 418.436 197.412C416.965 197.412 415.773 198.603 415.773 200.073C415.773 201.544 416.965 202.735 418.436 202.735Z" fill="#1B1C17"/>
<path d="M428.145 202.735C429.615 202.735 430.807 201.544 430.807 200.073C430.807 198.603 429.615 197.412 428.145 197.412C426.674 197.412 425.482 198.603 425.482 200.073C425.482 201.544 426.674 202.735 428.145 202.735Z" fill="#1B1C17"/>
<path d="M437.856 202.735C439.326 202.735 440.518 201.544 440.518 200.073C440.518 198.603 439.326 197.412 437.856 197.412C436.385 197.412 435.193 198.603 435.193 200.073C435.193 201.544 436.385 202.735 437.856 202.735Z" fill="#1B1C17"/>
</svg>
