<svg width="173" height="50" viewBox="0 0 173 50" fill="none" xmlns="http://www.w3.org/2000/svg">
<path d="M166.593 50H6.40741C2.88494 50 0 47.1859 0 43.75V6.25001C0 2.81407 2.88494 7.36664e-06 6.40741 7.36664e-06H166.593C170.115 7.36664e-06 173 2.81407 173 6.25001V43.75C173 47.1859 170.115 50 166.593 50Z" fill="white" fill-opacity="0.1"/>
<path d="M166.593 1.00157C169.559 1.00157 171.973 3.35626 171.973 6.25001V43.75C171.973 46.6438 169.559 48.9984 166.593 48.9984H6.40741C3.44078 48.9984 1.02679 46.6438 1.02679 43.75V6.25001C1.02679 3.35626 3.44078 1.00157 6.40741 1.00157H166.593ZM166.593 7.36664e-06H6.40741C2.88494 7.36664e-06 0 2.81407 0 6.25001V43.75C0 47.1859 2.88494 50 6.40741 50H166.593C170.115 50 173 47.1859 173 43.75V6.25001C173 2.81407 170.115 7.36664e-06 166.593 7.36664e-06Z" fill="white"/>
<path d="M60.7644 12.8016C60.7644 13.8453 60.444 14.6812 59.8129 15.3047C59.0872 16.0437 58.1421 16.4156 56.984 16.4156C55.8771 16.4156 54.932 16.0375 54.1567 15.2922C53.3798 14.5359 52.9922 13.6078 52.9922 12.4969C52.9922 11.3859 53.3798 10.4578 54.1567 9.70781C54.932 8.95625 55.8771 8.57812 56.984 8.57812C57.535 8.57812 58.0604 8.68906 58.5618 8.89531C59.0616 9.10312 59.4685 9.38437 59.7632 9.73125L59.0936 10.3906C58.5794 9.79844 57.8794 9.50625 56.984 9.50625C56.1767 9.50625 55.4767 9.78125 54.8824 10.3359C54.2945 10.8922 53.9997 11.6125 53.9997 12.4969C53.9997 13.3812 54.2945 14.1078 54.8824 14.6641C55.4767 15.2125 56.1767 15.4937 56.984 15.4937C57.841 15.4937 58.5618 15.2125 59.1305 14.6578C59.5053 14.2906 59.7184 13.7844 59.7744 13.1375H56.984V12.2344H60.7067C60.7516 12.4297 60.7644 12.6187 60.7644 12.8016Z" fill="white" stroke="white" stroke-width="0.16" stroke-miterlimit="10"/>
<path d="M66.6665 9.67031H63.1696V12.0453H66.3221V12.9484H63.1696V15.3234H66.6665V16.2437H62.1797V8.75H66.6665V9.67031Z" fill="white" stroke="white" stroke-width="0.16" stroke-miterlimit="10"/>
<path d="M70.8379 16.2437H69.848V9.67031H67.7031V8.75H72.9844V9.67031H70.8379V16.2437Z" fill="white" stroke="white" stroke-width="0.16" stroke-miterlimit="10"/>
<path d="M76.8047 16.2437V8.75H77.7921V16.2437H76.8047Z" fill="white" stroke="white" stroke-width="0.16" stroke-miterlimit="10"/>
<path d="M82.1739 16.2437H81.1919V9.67031H79.0391V8.75H84.3268V9.67031H82.1739V16.2437Z" fill="white" stroke="white" stroke-width="0.16" stroke-miterlimit="10"/>
<path d="M94.3257 15.2797C93.568 16.0375 92.6294 16.4156 91.5097 16.4156C90.3836 16.4156 89.4449 16.0375 88.6872 15.2797C87.9311 14.5234 87.5547 13.5953 87.5547 12.4969C87.5547 11.3984 87.9311 10.4703 88.6872 9.71406C89.4449 8.95625 90.3836 8.57812 91.5097 8.57812C92.6229 8.57812 93.5616 8.95625 94.3193 9.72031C95.0818 10.4828 95.4582 11.4047 95.4582 12.4969C95.4582 13.5953 95.0818 14.5234 94.3257 15.2797ZM89.4192 14.6516C89.9895 15.2125 90.6831 15.4937 91.5097 15.4937C92.3298 15.4937 93.0298 15.2125 93.5937 14.6516C94.1623 14.0906 94.4507 13.3703 94.4507 12.4969C94.4507 11.6234 94.1623 10.9031 93.5937 10.3422C93.0298 9.78125 92.3298 9.5 91.5097 9.5C90.6831 9.5 89.9895 9.78125 89.4192 10.3422C88.8506 10.9031 88.5623 11.6234 88.5623 12.4969C88.5623 13.3703 88.8506 14.0906 89.4192 14.6516Z" fill="white" stroke="white" stroke-width="0.16" stroke-miterlimit="10"/>
<path d="M96.8516 16.2437V8.75H98.053L101.788 14.5781H101.832L101.788 13.1375V8.75H102.777V16.2437H101.745L97.8335 10.1281H97.7902L97.8335 11.575V16.2437H96.8516Z" fill="white" stroke="white" stroke-width="0.16" stroke-miterlimit="10"/>
<path d="M87.3155 27.1875C84.3056 27.1875 81.8468 29.4219 81.8468 32.5047C81.8468 35.5625 84.3056 37.8203 87.3155 37.8203C90.3318 37.8203 92.7906 35.5625 92.7906 32.5047C92.7906 29.4219 90.3318 27.1875 87.3155 27.1875ZM87.3155 35.7266C85.664 35.7266 84.2431 34.3969 84.2431 32.5047C84.2431 30.5875 85.664 29.2813 87.3155 29.2813C88.967 29.2813 90.3942 30.5875 90.3942 32.5047C90.3942 34.3969 88.967 35.7266 87.3155 35.7266ZM75.3833 27.1875C72.367 27.1875 69.9146 29.4219 69.9146 32.5047C69.9146 35.5625 72.367 37.8203 75.3833 37.8203C78.398 37.8203 80.852 35.5625 80.852 32.5047C80.852 29.4219 78.398 27.1875 75.3833 27.1875ZM75.3833 35.7266C73.7302 35.7266 72.3045 34.3969 72.3045 32.5047C72.3045 30.5875 73.7302 29.2813 75.3833 29.2813C77.0348 29.2813 78.4556 30.5875 78.4556 32.5047C78.4556 34.3969 77.0348 35.7266 75.3833 35.7266ZM61.1845 28.8172V31.0766H66.7157C66.5539 32.3391 66.1214 33.2672 65.4582 33.9141C64.6509 34.6953 63.3934 35.5625 61.1845 35.5625C57.7805 35.5625 55.1151 32.8828 55.1151 29.5625C55.1151 26.2422 57.7805 23.5625 61.1845 23.5625C63.025 23.5625 64.3642 24.2641 65.3525 25.1734L66.9848 23.5813C65.6024 22.2938 63.7635 21.3047 61.1845 21.3047C56.5167 21.3047 52.5938 25.0094 52.5938 29.5625C52.5938 34.1156 56.5167 37.8203 61.1845 37.8203C63.7074 37.8203 65.6024 37.0141 67.0921 35.5016C68.6187 34.0125 69.0944 31.9188 69.0944 30.2281C69.0944 29.7031 69.0496 29.2203 68.9695 28.8172H61.1845ZM119.245 30.5688C118.795 29.3797 117.406 27.1875 114.577 27.1875C111.774 27.1875 109.44 29.3422 109.44 32.5047C109.44 35.4828 111.75 37.8203 114.846 37.8203C117.35 37.8203 118.795 36.3313 119.389 35.4641L117.531 34.2563C116.911 35.1406 116.067 35.7266 114.846 35.7266C113.634 35.7266 112.764 35.1844 112.207 34.1156L119.497 31.1734L119.245 30.5688ZM111.813 32.3391C111.75 30.2891 113.445 29.2391 114.659 29.2391C115.611 29.2391 116.418 29.7031 116.687 30.3672L111.813 32.3391ZM105.887 37.4969H108.284V21.8719H105.887V37.4969ZM101.963 28.3719H101.883C101.344 27.75 100.318 27.1875 99.017 27.1875C96.2875 27.1875 93.7918 29.525 93.7918 32.5219C93.7918 35.5016 96.2875 37.8203 99.017 37.8203C100.318 37.8203 101.344 37.2531 101.883 36.6125H101.963V37.375C101.963 39.4078 100.85 40.5 99.0538 40.5C97.5898 40.5 96.6815 39.4688 96.3067 38.6016L94.2227 39.45C94.8234 40.8594 96.414 42.5938 99.0538 42.5938C101.863 42.5938 104.234 40.9813 104.234 37.0578V27.5109H101.963V28.3719ZM99.222 35.7266C97.5705 35.7266 96.1881 34.3781 96.1881 32.5219C96.1881 30.6484 97.5705 29.2813 99.222 29.2813C100.85 29.2813 102.133 30.6484 102.133 32.5219C102.133 34.3781 100.85 35.7266 99.222 35.7266ZM130.465 21.8719H124.733V37.4969H127.123V31.5766H130.465C133.119 31.5766 135.722 29.7031 135.722 26.7234C135.722 23.7453 133.112 21.8719 130.465 21.8719ZM130.527 29.4031H127.123V24.0453H130.527C132.311 24.0453 133.33 25.4906 133.33 26.7234C133.33 27.9328 132.311 29.4031 130.527 29.4031ZM145.301 27.1578C143.574 27.1578 141.778 27.9016 141.04 29.55L143.161 30.4172C143.617 29.55 144.457 29.2688 145.344 29.2688C146.584 29.2688 147.841 29.9953 147.861 31.2781V31.4422C147.428 31.1984 146.502 30.8375 145.363 30.8375C143.079 30.8375 140.752 32.0641 140.752 34.3531C140.752 36.4469 142.623 37.7953 144.726 37.7953C146.334 37.7953 147.222 37.0875 147.779 36.2641H147.861V37.4719H150.169V31.4781C150.169 28.7078 148.048 27.1578 145.301 27.1578ZM145.013 35.7203C144.231 35.7203 143.142 35.3422 143.142 34.3969C143.142 33.1875 144.5 32.7234 145.676 32.7234C146.728 32.7234 147.222 32.95 147.861 33.2484C147.673 34.6953 146.397 35.7203 145.013 35.7203ZM158.579 27.5L155.831 34.2734H155.75L152.91 27.5H150.332L154.6 36.9656L152.165 42.2328H154.662L161.238 27.5H158.579ZM137.035 37.4969H139.432V21.8719H137.035V37.4969Z" fill="white"/>
<path d="M13.3755 9.42812C12.9991 9.8125 12.7812 10.4109 12.7812 11.1859V38.8297C12.7812 39.6047 12.9991 40.2031 13.3755 40.5875L13.4684 40.6719L29.3492 25.1875V24.8219L13.4684 9.3375L13.3755 9.42812Z" fill="url(#paint0_linear_14381_60345)"/>
<path d="M34.6315 30.3438L29.3438 25.1797V24.8141L34.6379 19.65L34.7564 19.7172L41.0261 23.1969C42.8153 24.1844 42.8153 25.8094 41.0261 26.8031L34.7564 30.2766L34.6315 30.3438Z" fill="url(#paint1_linear_14381_60345)"/>
<path d="M34.7613 30.2796L29.3487 24.9999L13.375 40.5827C13.9693 41.1921 14.9384 41.2655 16.0405 40.6562L34.7613 30.2796Z" fill="url(#paint2_linear_14381_60345)"/>
<path d="M34.7613 19.7203L16.0405 9.34375C14.9384 8.74063 13.9693 8.81406 13.375 9.42344L29.3487 25L34.7613 19.7203Z" fill="url(#paint3_linear_14381_60345)"/>
<defs>
<linearGradient id="paint0_linear_14381_60345" x1="27.9392" y1="39.1176" x2="6.96767" y2="17.6179" gradientUnits="userSpaceOnUse">
<stop stop-color="#00A0FF"/>
<stop offset="0.0066" stop-color="#00A1FF"/>
<stop offset="0.2601" stop-color="#00BEFF"/>
<stop offset="0.5122" stop-color="#00D2FF"/>
<stop offset="0.7604" stop-color="#00DFFF"/>
<stop offset="1" stop-color="#00E3FF"/>
</linearGradient>
<linearGradient id="paint1_linear_14381_60345" x1="43.356" y1="24.9951" x2="12.3481" y2="24.9951" gradientUnits="userSpaceOnUse">
<stop stop-color="#FFE000"/>
<stop offset="0.4087" stop-color="#FFBD00"/>
<stop offset="0.7754" stop-color="#FFA500"/>
<stop offset="1" stop-color="#FF9C00"/>
</linearGradient>
<linearGradient id="paint2_linear_14381_60345" x1="31.8181" y1="22.1298" x2="3.379" y2="-7.02554" gradientUnits="userSpaceOnUse">
<stop stop-color="#FF3A44"/>
<stop offset="1" stop-color="#C31162"/>
</linearGradient>
<linearGradient id="paint3_linear_14381_60345" x1="9.3541" y1="49.7798" x2="22.0534" y2="36.7607" gradientUnits="userSpaceOnUse">
<stop stop-color="#32A071"/>
<stop offset="0.0685" stop-color="#2DA771"/>
<stop offset="0.4762" stop-color="#15CF74"/>
<stop offset="0.8009" stop-color="#06E775"/>
<stop offset="1" stop-color="#00F076"/>
</linearGradient>
</defs>
</svg>
