<svg width="239" height="400" viewBox="0 0 239 400" fill="none" xmlns="http://www.w3.org/2000/svg">
<path d="M116.801 0.0111335C53.2712 -0.868867 1.49121 50.5311 1.49121 114.071C1.49121 144.081 13.0412 171.371 31.9212 191.741C40.1712 200.631 43.5312 213.021 40.5912 224.811L0.331209 386.411C-0.838791 391.101 1.19121 395.691 4.84121 398.151L209.361 50.4111C189.181 20.5211 155.281 0.551133 116.801 0.0111335Z" fill="#1B1C17"/>
<path d="M192.562 223.771C189.212 211.961 191.902 199.141 200.052 189.971C217.602 170.241 228.422 144.341 228.872 115.921C229.252 91.7414 221.992 69.1314 209.362 50.4014L4.8418 398.151C6.5618 399.311 8.6318 400.001 10.9118 400.001H228.092C235.332 400.001 240.562 393.051 238.582 386.071L192.562 223.771Z" fill="#0668E1"/>
</svg>
