<svg width="382" height="500" viewBox="0 0 382 500" fill="none" xmlns="http://www.w3.org/2000/svg">
<g clip-path="url(#clip0_10802_142465)">
<path d="M346.521 141.566V166.241C346.521 214.28 338.337 256.286 322.186 291.074C309.275 318.884 291.278 342.176 268.69 360.313C230.691 390.814 193.39 396.134 191.003 396.447C188.585 396.128 151.3 390.798 113.31 360.313C90.7221 342.176 72.7279 318.884 59.8173 291.074C43.6665 256.283 35.4763 214.28 35.4763 166.241V108.135L191 39.3768L289.524 82.936L317.801 56.0533L191 0L0 84.4334V162.508C0 217.56 9.54022 266.024 28.3507 306.542C43.7752 339.777 65.3602 367.679 92.5129 389.471C139.016 426.802 186.044 433.12 188.03 433.378L191.003 433.747L193.976 433.378C195.959 433.12 242.984 426.802 289.487 389.471C316.64 367.676 338.231 339.777 353.659 306.542C372.463 266.024 382.003 217.56 382.003 162.508V86.461L346.521 141.563V141.566Z" fill="#334860"/>
<path d="M370.272 59.1879L213.383 302.837C203.778 317.74 182.224 318.475 171.653 304.229L71.6793 169.704C67.2723 163.764 73.8953 155.929 80.4965 159.29L187.506 213.877L359.553 50.3304C365.549 44.6196 374.763 52.2153 370.272 59.1879Z" fill="#0668E1"/>
<path d="M382 86.4644V162.511C382 217.563 372.46 266.027 353.656 306.545C338.228 339.78 316.634 367.683 289.484 389.475C242.981 426.805 195.953 433.124 193.973 433.381L191 433.75V396.447C193.384 396.134 230.685 390.817 268.687 360.313C291.275 342.177 309.275 318.884 322.183 291.074C338.333 256.283 346.517 214.28 346.517 166.241V141.566L382 86.4644Z" fill="#1E2F3F"/>
<path d="M317.801 56.0533L289.524 82.936L191 39.3768V0L317.801 56.0533Z" fill="#1E2F3F"/>
<path d="M190.999 500C237.576 500 275.334 493.509 275.334 485.503C275.334 477.496 237.576 471.006 190.999 471.006C144.422 471.006 106.664 477.496 106.664 485.503C106.664 493.509 144.422 500 190.999 500Z" fill="#D8DFE5"/>
</g>
<defs>
<clipPath id="clip0_10802_142465">
<rect width="382" height="500" fill="white"/>
</clipPath>
</defs>
</svg>
