<svg xmlns="http://www.w3.org/2000/svg" viewBox="0 0 600 600" xmlns:v="https://vecta.io/nano"><style><![CDATA[.O{fill:#1b1c17}.P{fill-opacity:.4}.Q{fill:#b2d0f6}.R{fill:#e6f0fc}.S{fill-opacity:.6}.T{fill:#fff}.U{fill:#0668e1}.V{stroke-miterlimit:10}.W{stroke-width:.3}]]></style><defs><path id="A" d="M0 0h600v600H0z"/><path id="B" d="     M297,520.7L34.4,370c-5.4-3.1-4.7-8.4,1.5-12l166.9-95.7c6.2-3.6,15.6-3.9,20.9-0.9l262.6,150.7c5.4,3.1,4.7,8.4-1.5,12     l-166.9,95.7C311.7,523.4,302.4,523.8,297,520.7L297,520.7z"/><path id="C" d="M227.5 300.5l-9.6-5.5c-1.2-.7-1.1-1.9.3-2.8l2.8-1.6c1.4-.8 3.6-.9 4.8-.2l9.6 5.5c1.2.7 1.1 1.9-.3 2.8l-2.8 1.6c-1.4.8-3.6.9-4.8.2z"/><path id="D" d="M243 309.4l-9.6-5.5c-1.2-.7-1.1-1.9.3-2.8l2.8-1.6c1.4-.8 3.6-.9 4.8-.2l9.6 5.5c1.2.7 1.1 1.9-.3 2.8l-2.8 1.6c-1.5.8-3.6.9-4.8.2z"/><path id="E" d="M212.8 308l-8.9-5.1c-.8-.5-.7-1.3.2-1.8l8.4-4.8c1-.5 2.4-.6 3.2-.1l8.9 5.1c.8.5.7 1.3-.2 1.8l-8.4 4.8c-.9.5-2.3.6-3.2.1z"/><path id="F" d="M228.2 316.8l-8.9-5.1c-.8-.5-.7-1.3.2-1.8l8.4-4.8c1-.5 2.4-.6 3.2-.1l8.9 5.1c.8.5.7 1.3-.2 1.8l-8.4 4.8c-.9.5-2.4.6-3.2.1z"/><path id="G" d="M221.1 328.8l-8.9-5.1c-.8-.5-.7-1.3.2-1.8l8.4-4.8c1-.5 2.4-.6 3.2-.1l8.9 5.1c.8.5.7 1.3-.2 1.8l-8.4 4.8c-1 .5-2.4.6-3.2.1z"/><path id="H" d="M356.8 423l-8.9-5.1c-.8-.5-.7-1.3.2-1.8l8.4-4.8c1-.5 2.4-.6 3.2-.1l8.9 5.1c.8.5.7 1.3-.2 1.8l-8.4 4.8a4 4 0 0 1-3.2.1z"/><path id="I" d="M266.8 371.4l-8.9-5.1c-.8-.5-.7-1.3.2-1.8l8.4-4.8c1-.5 2.4-.6 3.2-.1l8.9 5.1c.8.5.7 1.3-.2 1.8l-8.4 4.8c-.9.5-2.3.5-3.2.1z"/><path id="J" d="M208.3 141.4h0v.5h0c-.3-.2-.5-.2-.7-.2s-.3 0-.4.2c-.1.1-.2.3-.2.4 0 .2-.1.4-.1.6v.7c0 .2 0 .4.1.6 0 .2.1.3.2.5s.2.3.2.4l.3.3c.1.1.2.1.3.1s.2 0 .2-.1c.1-.1.1-.1.1-.3v-.4-.4c0-.1-.1-.3-.1-.4-.1-.1-.1-.3-.2-.4l-.3-.3c-.1-.1-.3-.1-.4-.1s-.2.1-.3.1c-.1.1-.1.2-.1.3l-.3-.2c0-.2.1-.4.1-.5l.3-.3c.1 0 .2-.1.4 0 .1 0 .3.1.4.2.2.1.4.3.5.4.1.2.3.4.4.6s.2.4.2.6.1.4.1.6 0 .4-.1.6-.1.3-.2.4-.2.1-.4.1-.3-.1-.5-.2-.4-.3-.6-.5-.3-.4-.4-.6-.2-.5-.2-.7c-.1-.2-.1-.5-.1-.7v-.3c0-.3 0-.6.1-.9s.2-.5.3-.7.3-.3.6-.3a2.7 2.7 0 0 1 .8.3z"/><path id="K" d="M205.8 140l-1.7 4.1-.4-.3 1.7-4.1.4.3z"/><path id="L" d="M196.8 136.8v.5l-2.2-1.3v-.5l2.2 1.3zm-2.1-3.2v4.7l-.5-.3v-4.7l.5.3zm2.6 1.5v4.7l-.5-.3v-4.7l.5.3z"/><path id="M" d="M189.1 132.3v2.7l-.5-.3v-3.5l.5.3v.8zm-.1.8l-.2-.1c0-.2 0-.4.1-.6s.1-.3.3-.4c.1-.1.2-.1.4-.1s.3.1.5.2c.1.1.3.2.4.3s.2.2.3.4c.1.1.1.3.2.5 0 .2.1.4.1.6v2.3l-.5-.3v-2.3c0-.2 0-.3-.1-.5 0-.1-.1-.3-.2-.4l-.3-.3c-.1-.1-.2-.1-.3-.1s-.2 0-.3.1-.1.2-.2.3c-.2.1-.2.3-.2.4z"/><path id="N" d="M184.2 130.7l.5.3c0 .3-.1.5-.2.7s-.3.3-.5.3-.5-.1-.8-.3c-.2-.1-.5-.3-.6-.5-.2-.2-.4-.5-.5-.7l-.3-.9c-.1-.3-.1-.6-.1-1v-.5c0-.3 0-.6.1-.8s.2-.4.3-.5.3-.2.5-.1c.2 0 .4.1.7.2.3.2.6.4.8.6.2.3.4.5.5.8s.2.6.2.9l-.5-.3c0-.2-.1-.4-.1-.6-.1-.2-.2-.4-.3-.5-.1-.2-.3-.3-.5-.4s-.3-.2-.5-.2c-.1 0-.2 0-.3.1s-.2.2-.2.4-.1.4-.1.6v.5a1.7 1.7 0 0 0 .1.7c0 .2.1.4.2.6s.2.4.3.5c.1.2.3.3.5.4s.4.2.5.2.2-.1.3-.2c-.1.1-.1-.1 0-.3z"/><path id="O" d="M264.1 176v.7c0 .4 0 .7-.1.9s-.1.4-.3.5c-.1.1-.2.1-.4.1s-.3-.1-.5-.2-.3-.2-.4-.3-.2-.3-.4-.4c-.1-.2-.2-.3-.3-.5s-.1-.4-.2-.7c0-.3-.1-.5-.1-.8v-.7c0-.4 0-.7.1-.9s.1-.4.3-.5c.1-.1.2-.1.4-.1s.3.1.5.2.3.2.4.3l.4.4c.1.2.2.3.3.5s.1.4.2.7c.1.2.1.5.1.8zm-.5.5v-.9-.6c0-.2 0-.3-.1-.5 0-.1-.1-.3-.2-.4s-.1-.2-.2-.3-.2-.1-.3-.2-.2-.1-.3-.1-.2 0-.2.1c-.1.1-.1.2-.1.4v.6.9.6c0 .2.1.3.1.5 0 .1.1.3.2.4s.1.2.2.3.2.1.3.2.2.1.3.1.2 0 .2-.1c.1-.1.1-.2.1-.4-.1-.1 0-.3 0-.6z"/><path id="P" d="M260 171.7v4.7l-.5-.3v-4l-1-.2v-.5l1.5.3h0z"/><path id="Q" d="M175.9 132.3l56.9 32.7v13.1l-56.9-32.7z"/><path id="R" d="M208.3 154.5h0v.5h0c-.3-.2-.5-.2-.7-.2s-.3 0-.4.2c-.1.1-.2.3-.2.4 0 .2-.1.4-.1.6v.7c0 .2 0 .4.1.6 0 .2.1.4.2.5.1.2.2.3.2.4l.3.3c.1.1.2.1.3.1s.2 0 .2-.1c.1-.1.1-.1.1-.3v-.4-.4c0-.1-.1-.3-.1-.4-.1-.1-.1-.3-.2-.4l-.3-.3c-.1-.1-.3-.1-.4-.1s-.2.1-.3.1c-.1.1-.1.2-.1.3l-.3-.2c0-.2.1-.4.1-.5l.3-.3c.1 0 .2-.1.4 0 .1 0 .3.1.4.2.2.1.4.3.5.4.1.2.3.4.4.6s.2.4.2.6.1.4.1.6 0 .4-.1.6-.1.3-.2.4-.2.1-.4.1-.3-.1-.5-.2-.4-.3-.6-.5-.3-.4-.4-.6-.2-.5-.2-.7c-.1-.2-.1-.5-.1-.7v-.3c0-.3 0-.6.1-.9s.2-.5.3-.7.3-.3.6-.3a2.7 2.7 0 0 1 .8.3z"/><path id="S" d="M199 153.5l.8-2.6.6.3-1.2 3.3c0 .1-.1.1-.1.2s-.1.1-.2.2c-.1 0-.2.1-.3.1s-.2 0-.4-.1c0 0-.1-.1-.2-.1s-.1-.1-.1-.1v-.5h.1.1c.1.1.2.1.3.1s.1 0 .2-.1c.1 0 .1-.1.1-.3l.3-.4zm-.6-3.4l.8 3.1.1.7h-.4l-1.1-4.2.6.4z"/><path id="T" d="M196.8 150v.5l-2.2-1.3v-.5l2.2 1.3zm-2.1-3.3v4.7l-.5-.3v-4.7l.5.3zm2.6 1.5v4.7l-.5-.3v-4.7l.5.3z"/><path id="U" d="M189.1 145.5v2.7l-.5-.3v-3.5l.5.3v.8zm-.1.8l-.2-.1c0-.2 0-.4.1-.6s.1-.3.3-.4c.1-.1.2-.1.4-.1s.3.1.5.2c.1.1.3.2.4.3s.2.2.3.4c.1.1.1.3.2.5 0 .2.1.4.1.6v2.3l-.5-.3v-2.3c0-.2 0-.3-.1-.5 0-.1-.1-.3-.2-.4l-.3-.3c-.1-.1-.2-.1-.3-.1s-.2 0-.3.1-.1.2-.2.3c-.2.1-.2.2-.2.4z"/><path id="V" d="M185.2 144.3h0c0-.3 0-.5.1-.7s.2-.3.3-.4.3-.1.4-.1c.2 0 .4.1.6.2s.4.3.6.5.3.4.4.6.2.5.3.7.1.5.1.8v.1c0 .2 0 .5-.1.6-.1.2-.2.3-.3.4s-.3.1-.4.1c-.2 0-.4-.1-.6-.2s-.4-.3-.6-.5-.3-.4-.4-.6l-.3-.7c-.1-.2-.1-.6-.1-.8zm.5.2h0c0 .2 0 .4.1.6 0 .2.1.3.2.5s.2.3.3.4.2.2.4.3c.1.1.3.1.4.1s.2 0 .3-.1.1-.2.2-.3c0-.1.1-.3.1-.5v-.1c0-.2 0-.3-.1-.5 0-.2-.1-.3-.2-.5s-.2-.3-.3-.4-.2-.2-.4-.3c-.1-.1-.3-.1-.4-.1s-.2.1-.3.1c-.1.1-.1.2-.2.3-.1.2-.1.3-.1.5z"/><path id="W" d="M184.2 143.9l.5.3c0 .3-.1.5-.2.7s-.3.3-.5.3-.5-.1-.8-.3c-.2-.1-.5-.3-.6-.5-.2-.2-.4-.5-.5-.7l-.3-.9c-.1-.3-.1-.6-.1-1v-.5c0-.3 0-.6.1-.8s.2-.4.3-.5.3-.2.5-.1c.2 0 .4.1.7.2.3.2.6.4.8.6.2.3.4.5.5.8s.2.6.2.9l-.5-.3c0-.2-.1-.4-.1-.6-.1-.2-.2-.4-.3-.5-.1-.2-.3-.3-.5-.4s-.3-.2-.5-.2c-.1 0-.2 0-.3.1s-.2.2-.2.4-.1.4-.1.6v.5a1.7 1.7 0 0 0 .1.7c0 .2.1.4.2.6s.2.4.3.5c.1.2.3.3.5.4s.4.2.5.2.2-.1.3-.2c-.1 0-.1-.1 0-.3z"/><path id="X" d="M264.2 191.4v.5l-2.6-1.5v-.4l1.3-.9c.2-.1.3-.2.4-.3s.2-.2.2-.3.1-.2.1-.3c0-.2 0-.3-.1-.5s-.1-.3-.2-.4-.2-.2-.4-.3-.3-.1-.4-.1-.2.1-.3.2-.1.3-.1.4l-.5-.3c0-.3 0-.5.1-.6.1-.2.2-.2.4-.3.2 0 .4.1.7.2s.5.3.7.5.3.4.4.7a1.7 1.7 0 0 1 .1.7c0 .1 0 .3-.1.4 0 .1-.1.2-.2.3s-.1.2-.2.3-.2.2-.3.2l-1.1.7 2.1 1.1z"/><path id="Y" d="M259.1 186.3l.4.2c.2.1.3.2.4.2s.2 0 .3-.1.1-.2.1-.4 0-.3-.1-.5-.1-.3-.2-.4-.2-.2-.4-.3c-.1-.1-.3-.1-.4-.1s-.2 0-.3.1-.1.2-.1.4l-.5-.3c0-.2.1-.4.2-.6.1-.1.2-.2.4-.2s.4.1.7.2c.2.1.5.3.6.5.2.2.3.4.4.7s.2.5.2.8c0 .1 0 .2-.1.3 0 .1-.1.2-.2.2-.1.1-.2.1-.4.1s-.3-.1-.6-.2l-.4-.3v-.3zm0 .5v-.4l.4.3c.3.1.5.3.6.5.2.2.3.3.4.5s.2.3.2.5.1.3.1.5 0 .4-.1.5l-.3.3c-.1.1-.2.1-.4 0-.2 0-.3-.1-.5-.2s-.3-.2-.5-.4c-.2-.1-.3-.3-.4-.5l-.3-.6c-.1-.2-.1-.4-.1-.6l.5.3a.9.9 0 0 0 .1.5c.1.2.2.3.3.4s.3.2.4.3c.2.1.3.1.4.1s.2 0 .3-.1.1-.2.1-.4 0-.4-.1-.5c-.1-.2-.2-.3-.3-.5-.1-.1-.3-.3-.5-.4l-.3-.1z"/><path id="Z" d="M289.7 197.6l57 32.7v13.2l-57-32.7z"/><path id="a" d="M346.7 230.3l56.9 32.7v13.2l-56.9-32.7z"/><path id="b" d="M378.1 256.8v.5l-2.6-1.5v-.4l1.3-.9c.2-.1.3-.2.4-.3s.2-.2.2-.3.1-.2.1-.3c0-.2 0-.3-.1-.5s-.1-.3-.2-.4-.2-.2-.4-.3-.3-.1-.5-.1c-.1 0-.2.1-.3.2s-.1.3-.1.4l-.5-.3c0-.3 0-.5.2-.6.1-.2.2-.2.4-.3.2 0 .4.1.7.2s.5.3.7.5.3.4.4.7a1.7 1.7 0 0 1 .1.7c0 .1 0 .3-.1.4 0 .1-.1.2-.2.3s-.1.2-.2.3-.2.2-.3.2l-1.1.7 2.1 1.1z"/><path id="c" d="M403.6 263l56.9 32.7v13.1l-56.9-32.6z"/><path id="d" d="M202.7 168.5v-4.2l.5.3v4.9l-.5-.3v-.7zm-2-2.2h0c0-.3 0-.6.1-.7.1-.2.1-.3.2-.4s.2-.1.4-.1c.1 0 .3.1.5.2s.4.2.5.4.3.3.4.5.2.4.2.7c.1.2.1.5.1.8v.3c0 .2-.1.4-.1.6-.1.2-.1.3-.2.4s-.2.1-.4.1c-.1 0-.3-.1-.5-.2s-.3-.2-.5-.4c-.1-.2-.3-.4-.4-.6s-.2-.4-.2-.7c-.1-.4-.1-.7-.1-.9zm.5.2h0v.6c0 .2.1.3.1.5.1.2.1.3.2.4s.2.2.4.3.3.1.4.1.2-.1.3-.2.1-.2.2-.4v-.8c0-.1-.1-.3-.1-.4s-.1-.3-.2-.4-.1-.2-.2-.3l-.3-.3c-.1-.1-.3-.1-.4-.1s-.2.1-.2.1c-.1.1-.1.2-.1.3-.1.3-.1.4-.1.6z"/><path id="e" d="M289.7 210.8l57 32.7v13.1l-57-32.7z"/><path id="f" d="M321 234.9v.7c0 .4 0 .7-.1.9s-.1.4-.3.5c-.1.1-.2.1-.4.1s-.3-.1-.5-.2-.3-.2-.4-.3-.2-.3-.4-.4c-.1-.2-.2-.3-.3-.5s-.1-.4-.2-.7c0-.3-.1-.5-.1-.8v-.7c0-.4 0-.7.1-.9s.1-.4.3-.5c.1-.1.2-.1.4-.1s.3.1.5.2.3.2.4.3l.4.4c.1.2.2.3.3.5s.1.4.2.7c.1.2.1.5.1.8zm-.5.5v-.9-.6c0-.2-.1-.3-.1-.5 0-.1-.1-.3-.2-.4s-.1-.2-.2-.3-.2-.1-.3-.2-.2-.1-.3-.1-.2 0-.2.1c-.1.1-.1.2-.1.4s-.1.4-.1.6v.9.6c0 .2.1.3.1.5 0 .1.1.3.2.4s.1.2.2.3.2.1.3.2.2.1.3.1.2 0 .2-.1c.1-.1.1-.2.1-.4.1-.1.1-.3.1-.6z"/><path id="g" d="M202.7 181.6v-4.2l.5.3v4.9l-.5-.3v-.7zm-2-2.2h0c0-.3 0-.6.1-.7.1-.2.1-.3.2-.4s.2-.1.4-.1c.1 0 .3.1.5.2s.4.2.5.4.3.3.4.5.2.4.2.7c.1.2.1.5.1.8v.3c0 .2-.1.4-.1.6-.1.2-.1.3-.2.4s-.2.1-.4.1c-.1 0-.3-.1-.5-.2s-.3-.2-.5-.4c-.1-.2-.3-.4-.4-.6s-.2-.4-.2-.7c-.1-.4-.1-.6-.1-.9zm.5.2h0v.6c0 .2.1.3.1.5.1.2.1.3.2.4s.2.2.4.3.3.1.4.1.2-.1.3-.2.1-.2.2-.4v-.8c0-.1-.1-.3-.1-.4s-.1-.3-.2-.4-.1-.2-.2-.3l-.3-.3c-.1-.1-.3-.1-.4-.1s-.2.1-.2.1c-.1.1-.1.2-.1.3-.1.3-.1.5-.1.6z"/><path id="h" d="M199 179.8l.8-2.6.6.3-1.2 3.3c0 .1-.1.1-.1.2s-.1.1-.2.2-.2.1-.3.1-.2 0-.4-.1c0 0-.1-.1-.2-.1s-.1-.1-.1-.1v-.5h.1.1c.1.1.2.1.3.1s.1 0 .2-.1c.1 0 .1-.1.1-.3l.3-.4zm-.6-3.5l.8 3.1.1.7h-.4l-1.1-4.2.6.4z"/><path id="i" d="M321.2 250.4v.5l-2.6-1.5v-.4l1.3-.9c.2-.1.3-.2.4-.3s.2-.2.2-.3.1-.2.1-.3c0-.2 0-.3-.1-.5s-.1-.3-.2-.4-.2-.2-.4-.3-.3-.1-.5-.1c-.1 0-.2.1-.3.2s-.1.3-.1.4l-.5-.3c0-.3.1-.5.1-.6.1-.2.2-.2.4-.3.2 0 .4.1.7.2s.5.3.7.5.3.4.4.7a1.7 1.7 0 0 1 .1.7c0 .1 0 .3-.1.4 0 .1-.1.2-.2.3s-.1.2-.2.3-.2.2-.3.2l-1.1.7 2.2 1.1z"/><path id="j" d="M321 261.2v.7c0 .4 0 .7-.1.9s-.1.4-.3.5c-.1.1-.2.1-.4.1s-.3-.1-.5-.2-.3-.2-.4-.3-.2-.3-.4-.4c-.1-.2-.2-.3-.3-.5s-.1-.4-.2-.7c0-.3-.1-.5-.1-.8v-.7c0-.4 0-.7.1-.9s.1-.4.3-.5c.1-.1.2-.1.4-.1s.3.1.5.2.3.2.4.3l.4.4c.1.2.2.3.3.5s.1.4.2.7c.1.2.1.5.1.8zm-.5.5v-.9-.6c0-.2-.1-.3-.1-.5 0-.1-.1-.3-.2-.4s-.1-.2-.2-.3-.2-.1-.3-.2-.2-.1-.3-.1-.2 0-.2.1c-.1.1-.1.2-.1.4s-.1.4-.1.6v.9.6c0 .2.1.3.1.5 0 .1.1.3.2.4s.1.2.2.3.2.1.3.2.2.1.3.1.2 0 .2-.1c.1-.1.1-.2.1-.4.1-.1.1-.4.1-.6z"/><path id="k" d="M435 366v.7c0 .4 0 .7-.1.9s-.1.4-.3.5c-.1.1-.2.1-.4.1s-.3-.1-.5-.2-.3-.2-.4-.3-.2-.3-.4-.4c-.1-.2-.2-.3-.3-.5s-.1-.4-.2-.7c0-.3-.1-.5-.1-.8v-.7c0-.4 0-.7.1-.9s.1-.4.3-.5c.1-.1.2-.1.4-.1s.3.1.5.2.3.2.4.3l.4.4c.1.2.2.3.3.5s.1.4.2.7c0 .2.1.5.1.8zm-.6.5v-.9-.6c0-.2-.1-.3-.1-.5 0-.1-.1-.3-.2-.4s-.1-.2-.2-.3-.2-.1-.3-.2-.2-.1-.3-.1-.2 0-.2.1c-.1.1-.1.2-.1.4v.6.9.6c0 .2.1.3.1.5 0 .1.1.3.2.4s.1.2.2.3.2.1.3.2.2.1.3.1.2 0 .2-.1c.1-.1.1-.2.1-.4v-.6z"/></defs><clipPath id="l"><use href="#A"/></clipPath><g clip-path="url(#l)"><path d="M319.8 12a39.3 39.3 0 0 0-39.5 0L60.4 138.9C48.2 146 40.7 159 40.6 173.1v253.8c0 14.1 7.5 27.2 19.8 34.2L280.2 588a39.3 39.3 0 0 0 39.5 0l219.8-126.9c12.2-7.1 19.8-20.1 19.8-34.2V173.1c0-14.1-7.5-27.2-19.8-34.2L319.8 12z" fill="#bfd8f7" fill-opacity=".2" stroke="#0668e1"/><linearGradient id="m" gradientUnits="userSpaceOnUse" x1="30" y1="398.3" x2="491.07" y2="398.3"><stop offset="0" stop-color="#a6ceff"/><stop offset="1" stop-color="#9cc5f8"/></linearGradient><path d="M489.2 414.8c-3.1-1.3-265.5-146.1-265.5-146.1-5.4-3.1-14.7-2.7-20.9.9L31.6 362.1s-2.4 4.4-1.4 8.9c.7 3.3 1.7 4.6 3.2 5.7.2.1.5.3.7.5.1 0 .1.1.2.1L297 527.9c5.4 3.1 14.7 2.7 20.9-.9l166.9-95.7c.4-.2.8-.5 1.2-.7.1-.1.2-.1.3-.2.2-.2.5-.3.7-.5 2.6-2.1 3.6-4.6 4.1-7.8.4-3.5-1.9-7.3-1.9-7.3h0z" fill="url(#m)"/><linearGradient id="n" gradientUnits="userSpaceOnUse" x1="107.27" y1="96.44" x2="336.37" y2="537.42"><stop offset="0" stop-color="#fff"/><stop offset="1" stop-color="#d4e7fe"/></linearGradient><path d="M297 520.7L34.4 370c-5.4-3.1-4.7-8.4 1.5-12l166.9-95.7c6.2-3.6 15.6-3.9 20.9-.9l262.6 150.7c5.4 3.1 4.7 8.4-1.5 12l-166.9 95.7c-6.2 3.6-15.5 4-20.9.9h0z" fill="url(#n)"/><linearGradient id="o" gradientUnits="userSpaceOnUse" x1="76.57" y1="284.31" x2="444.11" y2="497.84"><stop offset="0" stop-color="#bdd2f4"/><stop offset="1" stop-color="#e5faff"/></linearGradient><use href="#B" fill="none" stroke="url(#o)" class="V W"/><use href="#B" fill="none" stroke="url(#o)" class="V W"/><linearGradient id="p" gradientUnits="userSpaceOnUse" x1="-312.36" y1="24.14" x2="-52.72" y2="174.98"><stop offset="0" stop-color="#bdd2f4"/><stop offset="1" stop-color="#e7f2ff"/></linearGradient><path d="M353.7 460.3L140.1 337.7c-1.7-1-1.5-2.7.5-3.8l79.4-45.6c2-1.1 4.9-1.2 6.6-.3l213.7 122.6c1.7 1 1.5 2.7-.5 3.8L360.3 460a7.7 7.7 0 0 1-6.6.3z" fill="url(#p)" stroke="#aad4f7" stroke-width=".5" class="V"/><linearGradient id="q" gradientUnits="userSpaceOnUse" x1="-29.41" y1="286.22" x2="51.73" y2="333.36"><stop offset="0" stop-color="#bdd2f4"/><stop offset="1" stop-color="#d3e7ff"/></linearGradient><path d="M216.7 462.9l-81.4-46.7 59-33.8 81.4 46.7-59 33.8z" fill="url(#q)"/><linearGradient id="r" gradientUnits="userSpaceOnUse" x1="363.55" y1="315.74" x2="352.74" y2="335.59"><stop offset="0" stop-color="#0f042e"/><stop offset="1" stop-color="#1c1265"/></linearGradient><path d="M456.1 402.7l-217.8-125 8.7-5 217.8 124.9-8.7 5.1z" fill="url(#r)"/><g fill="#244063"><use href="#C"/><use href="#D"/><path d="M258.4 318.2l-9.6-5.5c-1.2-.7-1.1-1.9.3-2.8l2.8-1.6c1.4-.8 3.6-.9 4.8-.2l9.6 5.5c1.2.7 1.1 1.9-.3 2.8l-2.8 1.6c-1.5.8-3.6.9-4.8.2zm15.4 8.8l-9.6-5.5c-1.2-.7-1.1-1.9.3-2.8l2.8-1.6c1.4-.8 3.6-.9 4.8-.2l9.6 5.5c1.2.7 1.1 1.9-.3 2.8l-2.8 1.6c-1.5.9-3.6.9-4.8.2zm15.4 8.9l-9.6-5.5c-1.2-.7-1.1-1.9.3-2.8l2.8-1.6c1.4-.8 3.6-.9 4.8-.2l9.6 5.5c1.2.7 1.1 1.9-.3 2.8l-2.8 1.6c-1.4.8-3.6.9-4.8.2zm15.4 8.8l-9.6-5.5c-1.2-.7-1.1-1.9.3-2.8l2.8-1.6c1.4-.8 3.6-.9 4.8-.2l9.6 5.5c1.2.7 1.1 1.9-.3 2.8l-2.8 1.6c-1.4.8-3.6.9-4.8.2zm15.4 8.9l-9.6-5.5c-1.2-.7-1.1-1.9.3-2.8l2.8-1.6c1.4-.8 3.6-.9 4.8-.2l9.6 5.5c1.2.7 1.1 1.9-.3 2.8l-2.8 1.6c-1.4.8-3.6.9-4.8.2zm15.4 8.8l-9.6-5.5c-1.2-.7-1.1-1.9.3-2.8l2.8-1.6c1.4-.8 3.6-.9 4.8-.2l9.6 5.5c1.2.7 1.1 1.9-.3 2.8l-2.8 1.6c-1.4.8-3.5.9-4.8.2zm15.5 8.9l-9.6-5.5c-1.2-.7-1.1-1.9.3-2.8l2.8-1.6c1.4-.8 3.6-.9 4.8-.2l9.6 5.5c1.2.7 1.1 1.9-.3 2.8l-2.8 1.6c-1.5.8-3.6.9-4.8.2zm15.4 8.8l-9.6-5.5c-1.2-.7-1.1-1.9.3-2.8l2.8-1.6c1.4-.8 3.6-.9 4.8-.2l9.6 5.5c1.2.7 1.1 1.9-.3 2.8l-2.8 1.6c-1.4.8-3.6.9-4.8.2zm15.4 8.9l-9.6-5.5c-1.2-.7-1.1-1.9.3-2.8l2.8-1.6c1.4-.8 3.6-.9 4.8-.2l9.6 5.5c1.2.7 1.1 1.9-.3 2.8l-2.8 1.6c-1.4.8-3.6.9-4.8.2zm15.4 8.8l-9.6-5.5c-1.2-.7-1.1-1.9.3-2.8l2.8-1.6c1.4-.8 3.6-.9 4.8-.2l9.6 5.5c1.2.7 1.1 1.9-.3 2.8l-2.8 1.6c-1.4.8-3.6.9-4.8.2zm15.4 8.8l-9.6-5.5c-1.2-.7-1.1-1.9.3-2.8l2.8-1.6c1.4-.8 3.6-.9 4.8-.2l9.6 5.5c1.2.7 1.1 1.9-.3 2.8l-2.8 1.6c-1.4.9-3.5 1-4.8.2zm15.5 8.9l-9.6-5.5c-1.2-.7-1.1-1.9.3-2.8l2.8-1.6c1.4-.8 3.6-.9 4.8-.2l9.6 5.5c1.2.7 1.1 1.9-.3 2.8l-2.8 1.6c-1.5.8-3.6.9-4.8.2z"/><use href="#E"/><path d="M206.3 320.3l-15.9-9.1c-1-.6-.9-1.7.3-2.4l7.4-4.2a4.6 4.6 0 0 1 4.1-.2l15.9 9.1c1 .6.9 1.7-.3 2.4l-7.4 4.2a4.6 4.6 0 0 1-4.1.2z"/><use href="#F"/><use href="#G"/><path d="M236.1 337.4l-8.9-5.1c-.8-.5-.7-1.3.2-1.8l8.4-4.8c1-.5 2.4-.6 3.2-.1l8.9 5.1c.8.5.7 1.3-.2 1.8l-8.4 4.8c-1 .5-2.4.6-3.2.1zm15 8.6l-8.9-5.1c-.8-.5-.7-1.3.2-1.8l8.4-4.8c1-.5 2.4-.6 3.2-.1l8.9 5.1c.8.5.7 1.3-.2 1.8l-8.4 4.8c-1 .5-2.4.6-3.2.1zm14.9 8.6l-8.9-5.1c-.8-.5-.7-1.3.2-1.8l8.4-4.8c1-.5 2.4-.6 3.2-.1l8.9 5.1c.8.5.7 1.3-.2 1.8l-8.4 4.8c-.9.5-2.3.6-3.2.1zm15 8.6l-8.9-5.1c-.8-.5-.7-1.3.2-1.8l8.4-4.8c1-.5 2.4-.6 3.2-.1l8.9 5.1c.8.5.7 1.3-.2 1.8l-8.4 4.8c-.9.5-2.3.6-3.2.1zm15 8.6l-8.9-5.1c-.8-.5-.7-1.3.2-1.8l8.4-4.8c1-.5 2.4-.6 3.2-.1l8.9 5.1c.8.5.7 1.3-.2 1.8l-8.4 4.8c-.9.5-2.3.6-3.2.1zm15 8.6l-8.9-5.1c-.8-.5-.7-1.3.2-1.8l8.4-4.8c1-.5 2.4-.6 3.2-.1l8.9 5.1c.8.5.7 1.3-.2 1.8l-8.4 4.8c-.9.5-2.4.6-3.2.1zm15 8.6l-8.9-5.1c-.8-.5-.7-1.3.2-1.8l8.4-4.8c1-.5 2.4-.6 3.2-.1l8.9 5.1c.8.5.7 1.3-.2 1.8l-8.4 4.8c-.9.5-2.4.6-3.2.1zm15 8.6l-8.9-5.1c-.8-.5-.7-1.3.2-1.8l8.4-4.8c1-.5 2.4-.6 3.2-.1l8.9 5.1c.8.5.7 1.3-.2 1.8l-8.4 4.8c-1 .5-2.4.6-3.2.1zm15 8.6l-8.9-5.1c-.8-.5-.7-1.3.2-1.8l8.4-4.8c1-.5 2.4-.6 3.2-.1l8.9 5.1c.8.5.7 1.3-.2 1.8l-8.4 4.8c-1 .5-2.4.6-3.2.1zm15 8.6l-8.9-5.1c-.8-.5-.7-1.3.2-1.8l8.4-4.8c1-.5 2.4-.6 3.2-.1l8.9 5.1c.8.5.7 1.3-.2 1.8l-8.4 4.8c-1 .5-2.4.6-3.2.1z"/><use href="#H"/><path d="M372.4 431.9l-8.9-5.1c-.8-.5-.7-1.3.2-1.8l8.4-4.8c1-.5 2.4-.6 3.2-.1l8.9 5.1c.8.5.7 1.3-.2 1.8l-8.4 4.8c-1 .5-2.4.6-3.2.1zm-30.6-17.5l-8.9-5.1c-.8-.5-.7-1.3.2-1.8l8.4-4.8c1-.5 2.4-.6 3.2-.1l8.9 5.1c.8.5.7 1.3-.2 1.8l-8.4 4.8a4 4 0 0 1-3.2.1zm-15-8.6l-8.9-5.1c-.8-.5-.7-1.3.2-1.8l8.4-4.8c1-.5 2.4-.6 3.2-.1l8.9 5.1c.8.5.7 1.3-.2 1.8l-8.4 4.8a4 4 0 0 1-3.2.1zm-15-8.6l-8.9-5.1c-.8-.5-.7-1.3.2-1.8l8.4-4.8c1-.5 2.4-.6 3.2-.1l8.9 5.1c.8.5.7 1.3-.2 1.8L315 397c-.9.6-2.4.6-3.2.2zm-15-8.6l-8.9-5.1c-.8-.5-.7-1.3.2-1.8l8.4-4.8c1-.5 2.4-.6 3.2-.1l8.9 5.1c.8.5.7 1.3-.2 1.8l-8.4 4.8a4 4 0 0 1-3.2.1zm-15-8.6l-8.9-5.1c-.8-.5-.7-1.3.2-1.8l8.4-4.8c1-.5 2.4-.6 3.2-.1l8.9 5.1c.8.5.7 1.3-.2 1.8l-8.4 4.8a4 4 0 0 1-3.2.1z"/><use href="#I"/><path d="M251.8 362.8l-8.9-5.1c-.8-.5-.7-1.3.2-1.8l8.4-4.8c1-.5 2.4-.6 3.2-.1l8.9 5.1c.8.5.7 1.3-.2 1.8l-8.4 4.8c-.9.5-2.3.5-3.2.1zm-14.9-8.6l-8.9-5.1c-.8-.5-.7-1.3.2-1.8l8.4-4.8c1-.5 2.4-.6 3.2-.1l8.9 5.1c.8.5.7 1.3-.2 1.8l-8.4 4.8a4 4 0 0 1-3.2.1zm-15-8.6l-8.9-5.1c-.8-.5-.7-1.3.2-1.8l8.4-4.8c1-.5 2.4-.6 3.2-.1l8.9 5.1c.8.5.7 1.3-.2 1.8l-8.4 4.8a4 4 0 0 1-3.2.1zm-14.2 8.1l-8.9-5.1c-.8-.5-.7-1.3.2-1.8l8.4-4.8c1-.5 2.4-.6 3.2-.1l8.9 5.1c.8.5.7 1.3-.2 1.8l-8.4 4.8c-1 .5-2.4.6-3.2.1zm-52.1-12.4l-8.9-5.1c-.8-.5-.7-1.3.2-1.8l8.4-4.8c1-.5 2.4-.6 3.2-.1l8.9 5.1c.8.5.7 1.3-.2 1.8l-8.4 4.8c-.9.6-2.3.6-3.2.1zm15.2 8.7l-8.9-5.1c-.8-.5-.7-1.3.2-1.8l8.4-4.8c1-.5 2.4-.6 3.2-.1l8.9 5.1c.8.5.7 1.3-.2 1.8l-8.4 4.8c-1 .5-2.4.6-3.2.1zm15.1 8.7l-8.9-5.1c-.8-.5-.7-1.3.2-1.8l8.4-4.8c1-.5 2.4-.6 3.2-.1l8.9 5.1c.8.5.7 1.3-.2 1.8l-8.4 4.8c-.9.5-2.4.6-3.2.1zM294.4 421l-8.9-5.1c-.8-.5-.7-1.3.2-1.8l8.4-4.8c1-.5 2.4-.6 3.2-.1l8.9 5.1c.8.5.7 1.3-.2 1.8l-8.4 4.8a4 4 0 0 1-3.2.1zm16.5 9.4l-8.9-5.1c-.8-.5-.7-1.3.2-1.8l8.4-4.8c1-.5 2.4-.6 3.2-.1l8.9 5.1c.8.5.7 1.3-.2 1.8l-8.4 4.8c-1 .5-2.4.6-3.2.1zm37 13.4l-10-5.7c-.5-.3-.5-.8.1-1.2l2.8-1.6c.6-.4 1.6-.4 2.1-.1l10 5.7c.5.3.5.8-.1 1.2l-2.8 1.6c-.6.4-1.5.4-2.1.1zm-7.3 4.2l-10-5.7c-.5-.3-.5-.8.1-1.2l2.8-1.6c.6-.4 1.6-.4 2.1-.1l10 5.7c.5.3.5.8-.2 1.2l-2.8 1.6c-.5.4-1.5.4-2 .1zm-14.5-8.3l-10-5.7c-.5-.3-.5-.8.1-1.2l2.8-1.6c.6-.4 1.6-.4 2.1-.1l10 5.7c.5.3.5.8-.1 1.2l-2.8 1.6c-.7.3-1.6.4-2.1.1zm29.6 17l-10-5.7c-.5-.3-.5-.8.1-1.2l2.8-1.6c.6-.4 1.6-.4 2.1-.1l10 5.7c.5.3.5.8-.1 1.2l-2.8 1.6c-.6.4-1.6.4-2.1.1zm-151.8-87.6l-11.6-6.7c-.9-.5-.8-1.5.3-2.1l8-4.6c1.1-.6 2.7-.7 3.6-.1l11.6 6.7c.9.5.8 1.5-.3 2.1l-8 4.6c-1.1.5-2.7.6-3.6.1zm70.4 40.4l-62-35.6c-2-1.1-1.7-3.1.6-4.4l3.6-2c2.3-1.3 5.7-1.5 7.7-.3l62 35.6c2 1.1 1.7 3.1-.6 4.4l-3.6 2c-2.3 1.2-5.7 1.4-7.7.3zm-51.8-47.3l-8.9-5.1c-.8-.5-.7-1.3.2-1.8l8.4-4.8c1-.5 2.4-.6 3.2-.1l8.9 5.1c.8.5.7 1.3-.2 1.8l-8.4 4.8c-1 .5-2.4.6-3.2.1zm14.8 8.5l-8.9-5.1c-.8-.5-.7-1.3.2-1.8l8.4-4.8c1-.5 2.4-.6 3.2-.1l8.9 5.1c.8.5.7 1.3-.2 1.8l-8.4 4.8c-1 .5-2.4.6-3.2.1zm14.8 8.5l-8.9-5.1c-.8-.5-.7-1.3.2-1.8l8.4-4.8c1-.5 2.4-.6 3.2-.1l8.9 5.1c.8.5.7 1.3-.2 1.8l-8.4 4.8c-1 .5-2.4.6-3.2.1zm14.8 8.5l-8.9-5.1c-.8-.5-.7-1.3.2-1.8l8.4-4.8c1-.5 2.4-.6 3.2-.1l8.9 5.1c.8.5.7 1.3-.2 1.8l-8.4 4.8c-1 .5-2.4.6-3.2.1zm14.8 8.5l-8.9-5.1c-.8-.5-.7-1.3.2-1.8l8.4-4.8c1-.5 2.4-.6 3.2-.1l8.9 5.1c.8.5.7 1.3-.2 1.8l-8.4 4.8a4 4 0 0 1-3.2.1zm14.8 8.5l-8.9-5.1c-.8-.5-.7-1.3.2-1.8l8.4-4.8c1-.5 2.4-.6 3.2-.1l8.9 5.1c.8.5.7 1.3-.2 1.8l-8.4 4.8a4 4 0 0 1-3.2.1zm14.8 8.5l-8.9-5.1c-.8-.5-.7-1.3.2-1.8l8.4-4.8c1-.5 2.4-.6 3.2-.1l8.9 5.1c.8.5.7 1.3-.2 1.8l-8.4 4.8a4 4 0 0 1-3.2.1z"/><path d="M326.1 421.7l-8.9-5.1c-.8-.5-.7-1.3.2-1.8l8.4-4.8c1-.5 2.4-.6 3.2-.1l8.9 5.1c.8.5.7 1.3-.2 1.8l-8.4 4.8a4 4 0 0 1-3.2.1zm14.8 8.5L332 425c-.8-.5-.7-1.3.2-1.8l8.4-4.8c1-.5 2.4-.6 3.2-.1l8.9 5.1c.8.5.7 1.3-.2 1.8l-8.4 4.8c-1 .6-2.4.6-3.2.2zm30.8 17.7L347.6 434c-1.3-.7-1.1-2 .4-2.8l6.5-3.7c1.5-.8 3.7-.9 5-.2l24.1 13.9c1.3.7 1.1 2-.4 2.8l-6.5 3.7c-1.5.8-3.7.9-5 .2zM206.9 337l-8.9-5.1c-.8-.5-.7-1.3.2-1.8l8.4-4.8c1-.5 2.4-.6 3.2-.1l8.9 5.1c.8.5.7 1.3-.2 1.8l-8.4 4.8a4 4 0 0 1-3.2.1zm-14.8-8.5l-15.5-8.9c-1-.6-.9-1.6.3-2.3l7.4-4.3a4.6 4.6 0 0 1 4.1-.2l15.5 8.9c1 .6.9 1.6-.3 2.3l-7.4 4.3c-1.3.7-3.1.8-4.1.2z"/><path d="M191.8 344.6l-29-16.6c-1.3-.7-1.1-2.1.4-2.9l6.3-3.6c1.5-.9 3.8-1 5.1-.2l29 16.6c1.3.7 1.1 2.1-.4 2.9l-6.3 3.6c-1.5.9-3.8 1-5.1.2zm220.1 82.9L390.1 440c-1.3.7-3.5.7-4.8 0l-7.1-4.1c-1.3-.8-1.3-2 0-2.7l9.9-5.7c1.3-.8 1.3-2 0-2.8l-10.6-6.1c-1.1-.6-1.1-1.7 0-2.3l7.9-4.5c1.1-.6 2.9-.6 3.9 0l22.5 12.9c1.4.8 1.5 2 .1 2.8h0zM243.6 325.6l-8.9-5.1c-.8-.5-.7-1.3.2-1.8l8.4-4.8c1-.5 2.4-.6 3.2-.1l8.9 5.1c.8.5.7 1.3-.2 1.8l-8.4 4.8c-1 .6-2.4.6-3.2.1zm15.3 8.9l-8.9-5.1c-.8-.5-.7-1.3.2-1.8l8.4-4.8c1-.5 2.4-.6 3.2-.1l8.9 5.1c.8.5.7 1.3-.2 1.8l-8.4 4.8a4 4 0 0 1-3.2.1zm15.4 8.8l-8.9-5.1c-.8-.5-.7-1.3.2-1.8l8.4-4.8c1-.5 2.4-.6 3.2-.1l8.9 5.1c.8.5.7 1.3-.2 1.8l-8.4 4.8c-1 .5-2.4.6-3.2.1zm15.3 8.8l-8.9-5.1c-.8-.5-.7-1.3.2-1.8l8.4-4.8c1-.5 2.4-.6 3.2-.1l8.9 5.1c.8.5.7 1.3-.2 1.8l-8.4 4.8c-.9.5-2.3.6-3.2.1zm15.4 8.8l-8.9-5.1c-.8-.5-.7-1.3.2-1.8l8.4-4.8c1-.5 2.4-.6 3.2-.1l8.9 5.1c.8.5.7 1.3-.2 1.8l-8.4 4.8c-.9.5-2.4.6-3.2.1zm15.4 8.8l-8.9-5.1c-.8-.5-.7-1.3.2-1.8l8.4-4.8c1-.5 2.4-.6 3.2-.1l8.9 5.1c.8.5.7 1.3-.2 1.8l-8.4 4.8c-1 .5-2.4.6-3.2.1zm15.3 8.8l-8.9-5.1c-.8-.5-.7-1.3.2-1.8l8.4-4.8c1-.5 2.4-.6 3.2-.1l8.9 5.1c.8.5.7 1.3-.2 1.8l-8.4 4.8c-.9.5-2.3.6-3.2.1zm15.4 8.8l-8.9-5.1c-.8-.5-.7-1.3.2-1.8l8.4-4.8c1-.5 2.4-.6 3.2-.1l8.9 5.1c.8.5.7 1.3-.2 1.8l-8.4 4.8c-.9.6-2.4.6-3.2.1zm15.4 8.9l-8.9-5.1c-.8-.5-.7-1.3.2-1.8l8.4-4.8c1-.5 2.4-.6 3.2-.1l8.9 5.1c.8.5.7 1.3-.2 1.8l-8.4 4.8a4 4 0 0 1-3.2.1zm15.3 8.8l-8.9-5.1c-.8-.5-.7-1.3.2-1.8l8.4-4.8c1-.5 2.4-.6 3.2-.1l8.9 5.1c.8.5.7 1.3-.2 1.8l-8.4 4.8c-.9.5-2.3.5-3.2.1zm32.2 18.4l-24.8-14.2c-1.3-.7-1.1-2 .4-2.9l6.4-3.7c1.5-.9 3.7-.9 5-.2l24.8 14.2c1.3.7 1.1 2-.4 2.9l-6.4 3.7c-1.5.9-3.8 1-5 .2z"/></g><path d="M216.7 463.1L135 416.2l59.3-34 81.7 46.9-59.3 34zm-81.1-46.9l81.1 46.5 58.6-33.6-81.1-46.5-58.6 33.6z" fill="none" stroke="#bed3f4" class="V W"/><linearGradient id="s" gradientUnits="userSpaceOnUse" x1="658.83" y1="396.22" x2="950.94" y2="565.92"><stop offset="0" stop-color="#e5faff"/><stop offset="1" stop-color="#bdd2f4"/></linearGradient><path d="M499.2 415L227.9 259.3c-3.6-2.1-7-6.4-8.5-11.1l-.4-1.2-2-208.6c0-2.8.9-4.8 2.6-5.8s4-.8 6.4.6l275.1 157.9a18.8 18.8 0 0 1 6.4 6.7c1.7 2.9 2.6 6.1 2.6 8.8l-2 206.2-.4.8c-1.6 2.9-4.9 3.5-8.5 1.4h0zM227.9 249.1L499 404.7l2-203.4L226 43.5l1.9 205.6h0z" fill="url(#s)"/><linearGradient id="t" gradientUnits="userSpaceOnUse" x1="222.52" y1="54.01" x2="485.66" y2="379.83"><stop offset="0" stop-color="#3b92ff"/><stop offset="1" stop-color="#4f9eff"/></linearGradient><path d="M503.1 208.3L501 410.9c-.8 1.5-2.5 1.8-4.4.7L225.4 255.9a6.1 6.1 0 0 1-1.6-1.2c-1.2-1.2-2.2-2.8-2.8-4.5l-2.1-205c-1.1-4.3.7-7.4 3.4-5.8l277.5 159.2s.1.1.2.1a9.7 9.7 0 0 1 3.1 9.6h0z" fill="url(#t)"/><linearGradient id="u" gradientUnits="userSpaceOnUse" x1="655.01" y1="397.15" x2="947.12" y2="566.85"><stop offset="0" stop-color="#1c1265"/><stop offset="1" stop-color="#0f042e"/></linearGradient><path d="M496.7 416.7L225.4 261c-3.6-2.1-7-6.4-8.5-11.1l-.4-1.2-2-208.6c0-2.8.9-4.8 2.6-5.8s4-.8 6.4.6l275.1 157.9a18.8 18.8 0 0 1 6.4 6.7c1.7 2.9 2.6 6.1 2.6 8.8l-2 206.2-.4.8c-1.6 3-4.9 3.5-8.5 1.4h0zM225.5 250.8l271.1 155.6 2-203.4L223.5 45.2l2 205.6z" fill="url(#u)"/><linearGradient id="v" gradientUnits="userSpaceOnUse" x1="394.8" y1="288.27" x2="317.33" y2="143.3"><stop offset="0" stop-color="#f5f5f5"/><stop offset=".05" stop-color="#c7c7c7"/><stop offset=".09" stop-color="#9c9c9c"/><stop offset=".14" stop-color="#777"/><stop offset=".2" stop-color="#565656"/><stop offset=".25" stop-color="#3b3b3b"/><stop offset=".32" stop-color="#252525"/><stop offset=".4" stop-color="#141414"/><stop offset=".49" stop-color="#080808"/><stop offset=".63" stop-color="#010101"/><stop offset="1"/></linearGradient><path d="M225.5 250.8l-2-205.7L498.6 203c-91.5 61.8-239.6 67.1-273.1 47.8z" opacity=".1" fill="url(#v)"/><g class="T"><path d="M469.6 216.9v186.3c0 7.9-5.6 11.2-12.6 7.2L180.7 251.7c-7-4-12.6-13.7-12.6-21.6V43.7c0-7.9 5.6-11.2 12.6-7.2L457 195.2c7 4 12.6 13.7 12.6 21.7h0z"/><path d="M170.3 35.9c2.2-1.2 5.2-1.1 8.7.9l276.3 158.6c3.4 2 6.6 5.4 8.8 9.2 2.3 3.9 3.7 8.3 3.7 12.2v186.3c0 3.9-1.4 6.6-3.6 7.9-2.1 1.2-5.1 1.1-8.4-.7l-.3-.2-276.3-158.6h0c-3.4-2-6.6-5.4-8.8-9.2-2.3-3.9-3.7-8.3-3.7-12.2V43.7c0-3.9 1.4-6.6 3.6-7.8z" stroke="#0668e1" stroke-width=".47" class="P"/></g><path d="M175.9,105.2c0-2.2,1.5-3.1,3.4-2l53.5,30.7v17.9l-56.9-32.7V105.2z" class="U"/><path d="M192.1 120.8v-3.9l.8.5v3.9c0 .4-.1.6-.2.8s-.3.3-.6.3c-.2 0-.5-.1-.8-.3a2.7 2.7 0 0 1-.8-.7c-.2-.3-.4-.5-.6-.9a3.6 3.6 0 0 1-.2-1.1l.8.5c0 .2 0 .4.1.6s.1.3.3.4c.1.1.2.2.4.3.1.1.3.1.4.1s.2-.1.3-.2c.1.1.1 0 .1-.3zm1.6.6h0c0-.4 0-.6.1-.9.1-.2.2-.4.3-.5s.3-.2.5-.1c.2 0 .4.1.7.2.3.2.5.3.7.6.2.2.4.5.5.8s.3.6.3.9c.1.3.1.6.1.9v.1c0 .3 0 .6-.1.8s-.2.4-.3.5-.3.2-.5.1c-.2 0-.4-.1-.7-.2-.3-.2-.5-.3-.7-.6-.2-.2-.4-.5-.5-.7-.1-.3-.3-.6-.3-.9-.1-.4-.1-.7-.1-1zm.8.4h0c0 .3 0 .5.1.6 0 .2.1.4.2.5.1.2.2.3.3.5.1.1.2.2.4.3.1.1.3.1.4.1s.2-.1.3-.1c.1-.1.1-.2.2-.3 0-.1.1-.3.1-.5v-.1c0-.2 0-.4-.1-.6 0-.2-.1-.4-.2-.5-.1-.2-.2-.3-.3-.5-.1-.1-.2-.2-.4-.3s-.3-.1-.4-.1-.2.1-.3.1c-.1.1-.1.2-.2.4-.1.1-.1.3-.1.5zm3.2-2l.8.5v5l-.1.8-.7-.4v-5.9zm3.2 5.6h0c0 .4 0 .7-.1.9s-.1.4-.3.5c-.1.1-.3.2-.4.2-.2 0-.4-.1-.6-.2s-.4-.3-.6-.5-.3-.4-.4-.7c-.1-.2-.2-.5-.3-.8s-.1-.6-.1-.9v-.3c0-.3.1-.5.1-.7.1-.2.2-.4.3-.5s.3-.2.4-.2c.2 0 .4.1.6.2s.4.3.6.5.3.4.4.7l.3.8c0 .4.1.7.1 1zm-.9-.4h0v-.6c0-.2-.1-.4-.1-.5-.1-.2-.1-.3-.2-.4s-.2-.2-.4-.3c-.1-.1-.3-.1-.4-.1s-.2 0-.3.1l-.2.2c0 .1-.1.2-.1.4v.7c0 .2.1.4.1.6.1.2.2.4.3.5.1.2.3.3.5.4.1.1.3.1.4.1s.2-.1.2-.1c.1-.1.1-.2.1-.4.1-.2.1-.4.1-.6zm6.2 3.8l.8.5c0 .4-.1.6-.3.8s-.4.3-.6.3c-.3 0-.6-.1-1-.3l-.8-.6-.6-.9c-.2-.3-.3-.7-.4-1.1s-.1-.8-.1-1.2v-.5c0-.4 0-.7.1-1s.2-.5.4-.6.4-.2.6-.2.5.1.8.3c.4.2.7.5 1 .8s.5.7.6 1l.3 1.2-.8-.5c0-.3-.1-.5-.1-.7l-.3-.6c-.1-.2-.3-.3-.6-.5-.2-.1-.4-.2-.5-.2s-.3.1-.4.2-.2.3-.2.5-.1.5-.1.8v.5a2.2 2.2 0 0 0 .1.8c0 .3.1.5.2.7l.3.6c.1.2.3.3.5.4s.4.2.6.2c.1 0 .3-.1.3-.2.1-.1.2-.3.2-.5zm1.3.6h0c0-.4 0-.6.1-.9.1-.2.2-.4.3-.5s.3-.2.5-.1c.2 0 .4.1.7.2.3.2.5.3.7.6.2.2.4.5.5.8s.3.6.3.9c.1.3.1.6.1.9v.1c0 .3 0 .6-.1.8s-.2.4-.3.5-.3.2-.5.1c-.2 0-.4-.1-.7-.2-.3-.2-.5-.3-.7-.6-.2-.2-.4-.5-.5-.7-.1-.3-.3-.6-.3-.9 0-.4-.1-.7-.1-1zm.8.3h0c0 .3 0 .5.1.6 0 .2.1.4.2.5.1.2.2.3.3.5.1.1.2.2.4.3.1.1.3.1.4.1s.2-.1.3-.1c.1-.1.1-.2.2-.3 0-.1.1-.3.1-.5v-.1c0-.2 0-.4-.1-.6 0-.2-.1-.4-.2-.5-.1-.2-.2-.3-.3-.5-.1-.1-.2-.2-.4-.3s-.3-.1-.4-.1-.2.1-.3.1c-.1.1-.1.2-.2.4 0 .2-.1.3-.1.5zm5.5 4.4v-5l.8.5v5.9l-.7-.4-.1-1zm-2.4-2.5h0c0-.4 0-.7.1-.9s.2-.4.3-.5.3-.2.4-.2c.2 0 .4.1.6.2s.4.3.6.5.3.4.4.7a6.9 6.9 0 0 1 .3.8c.1.3.1.6.1.9v.3c0 .3-.1.5-.1.7-.1.2-.2.4-.3.5s-.3.2-.4.2c-.2 0-.4-.1-.6-.2s-.4-.3-.6-.5-.3-.4-.4-.7l-.3-.8c0-.4-.1-.7-.1-1zm.8.4h0v.6c0 .2.1.4.1.5.1.2.1.3.2.4s.2.2.4.3a.9.9 0 0 0 .5.1c.1 0 .2-.1.3-.2s.1-.3.1-.5v-.7c0-.2 0-.3-.1-.5 0-.2-.1-.3-.2-.4s-.2-.3-.3-.4-.2-.2-.4-.3c-.1-.1-.3-.1-.4-.1s-.2.1-.3.2-.1.2-.1.4c.2.2.2.4.2.6zm4.8 4.9c-.3-.2-.5-.3-.7-.6-.2-.2-.4-.5-.5-.7-.1-.3-.3-.5-.3-.8-.1-.3-.1-.6-.1-.9v-.2c0-.3 0-.6.1-.8s.2-.4.3-.5.3-.2.5-.1.4.1.7.2.5.3.7.5.4.4.5.7l.3.8c.1.3.1.6.1.9v.4l-2.8-1.6v-.7l2 1.1v-.1c0-.2 0-.3-.1-.5s-.1-.3-.2-.5-.2-.3-.4-.4c-.1-.1-.3-.1-.4-.1s-.2.1-.3.1c-.1.1-.1.2-.2.4 0 .2-.1.3-.1.6v.2c0 .2 0 .4.1.5 0 .2.1.4.2.5.1.2.2.3.3.4s.3.2.4.3c.2.1.4.2.5.2.2 0 .3-.1.4-.2l.4.7c-.1.1-.2.2-.3.2s-.3.1-.5 0c-.1.2-.4.1-.6 0z" class="T"/><path d="M232.8 134l56.9 32.6v17.9l-56.9-32.7z" class="U"/><path d="M251 154.3l-1.3-.7v-.8l1.3.7c.2.1.4.2.5.2s.2-.1.3-.2.1-.3.1-.4c0-.2 0-.4-.1-.6s-.2-.4-.3-.5c-.1-.2-.3-.3-.5-.4l-1-.6v4.8l-.8-.5v-5.6l1.8 1.1c.4.2.7.5 1 .8s.5.6.6 1c.1.3.2.7.2 1 0 .4-.1.6-.2.8s-.3.3-.6.2c-.3 0-.6-.1-1-.3zm2.3 1.3h0c0-.4 0-.6.1-.9.1-.2.2-.4.3-.5s.3-.2.5-.1c.2 0 .4.1.7.2.3.2.5.3.7.6.2.2.4.5.5.8s.3.6.3.9c.1.3.1.6.1.9v.1c0 .3 0 .6-.1.8s-.2.4-.3.5-.3.2-.5.1c-.2 0-.4-.1-.7-.2-.3-.2-.5-.3-.7-.6-.2-.2-.4-.5-.5-.7-.1-.3-.3-.6-.3-.9-.1-.4-.1-.7-.1-1zm.8.4h0c0 .3 0 .5.1.6 0 .2.1.4.2.5.1.2.2.3.3.5.1.1.2.2.4.3.1.1.3.1.4.1s.2-.1.3-.1c.1-.1.1-.2.2-.3 0-.1.1-.3.1-.5v-.1c0-.2 0-.4-.1-.6 0-.2-.1-.4-.2-.5-.1-.2-.2-.3-.3-.5-.1-.1-.2-.2-.4-.3s-.3-.1-.4-.1-.2.1-.3.1c-.1.1-.1.2-.2.4-.1.1-.1.3-.1.5zm5.2 4c0-.1 0-.2-.1-.3 0-.1-.1-.2-.2-.3l-.5-.5c-.2-.2-.4-.3-.5-.5-.2-.2-.3-.3-.4-.5s-.2-.3-.3-.5-.1-.3-.1-.5 0-.3.1-.4.2-.2.3-.2.3-.1.4 0c.2 0 .4.1.6.2.3.2.6.4.8.6s.4.5.5.8.2.5.2.8l-.8-.5c0-.1 0-.2-.1-.4 0-.1-.1-.2-.2-.4-.1-.1-.2-.2-.4-.3-.1-.1-.3-.1-.3-.1-.1 0-.2 0-.2.1s-.1.1-.1.2v.2c0 .1.1.1.1.2.1.1.1.2.2.3s.2.2.4.3c.3.2.5.4.7.7.2.2.4.4.5.7.1.2.2.5.2.7s0 .3-.1.4-.2.2-.3.2h-.5c-.2 0-.4-.1-.6-.3-.3-.2-.6-.4-.8-.7s-.4-.5-.5-.8-.2-.5-.2-.8l.8.4c0 .2.1.3.1.5.1.1.2.3.3.4s.2.2.4.3c.1.1.3.1.4.1s.2 0 .2-.1c0 .2 0 .1 0 0zm2.4-1.7v4.2l-.8-.5v-4.2l.8.5zm-.9-1.6c0-.1 0-.2.1-.3.1 0 .2 0 .3.1s.3.2.3.3c.1.1.1.3.1.4s0 .2-.1.3c-.1 0-.2 0-.3-.1s-.3-.2-.3-.3-.1-.2-.1-.4zm3.4 3.1v.7l-2-1.2v-.7l2 1.2zm-1.4-1.9l.8.5v4 .3c0 .1.1.2.1.2l.2.2c.1 0 .1.1.2.1h.1v.7c-.1 0-.1 0-.2-.1-.1 0-.2-.1-.3-.1-.2-.1-.3-.2-.5-.4-.1-.2-.3-.3-.3-.6-.1-.2-.1-.5-.1-.8v-4zm2.9 2.7v4.2l-.8-.5v-4.2l.8.5zm-.9-1.6c0-.1 0-.2.1-.3.1 0 .2 0 .3.1s.3.2.3.3c.1.1.1.3.1.4s0 .2-.1.3-.2 0-.3-.1-.3-.2-.3-.3-.1-.2-.1-.4zm1.6 4.2h0c0-.4 0-.6.1-.9.1-.2.2-.4.3-.5s.3-.2.5-.1c.2 0 .4.1.7.2.3.2.5.3.7.6.2.2.4.5.5.8s.3.6.3.9c.1.3.1.6.1.9v.1c0 .3 0 .6-.1.8s-.2.4-.3.5-.3.2-.5.1c-.2 0-.4-.1-.7-.2-.3-.2-.5-.3-.7-.6-.2-.2-.4-.5-.5-.7-.1-.3-.3-.6-.3-.9 0-.4-.1-.7-.1-1zm.8.3h0c0 .3 0 .5.1.6 0 .2.1.4.2.5.1.2.2.3.3.5.1.1.2.2.4.3.1.1.3.1.4.1s.2-.1.3-.1c.1-.1.1-.2.2-.3 0-.1.1-.3.1-.5v-.1c0-.2 0-.4-.1-.6 0-.2-.1-.4-.2-.5-.1-.2-.2-.3-.3-.5-.1-.1-.2-.2-.4-.3s-.3-.1-.4-.1-.2.1-.3.1c-.1.1-.1.2-.2.4s-.1.4-.1.5zm4 1.2v3.3l-.8-.5v-4.2l.8.4v1zm-.1 1l-.3-.2c0-.3 0-.5.1-.8.1-.2.2-.4.3-.5s.3-.2.5-.1c.2 0 .4.1.6.2s.3.2.5.4c.1.1.3.3.4.5s.2.4.2.6c.1.2.1.5.1.8v2.7l-.8-.5v-2.7c0-.2 0-.4-.1-.5 0-.1-.1-.3-.2-.4l-.3-.3c-.1-.1-.3-.1-.4-.1s-.2 0-.3.1-.1.2-.2.3-.1.3-.1.5z" class="T"/><path d="M289.7 166.6l57 32.7v17.9l-57-32.7z" class="U"/><path d="M310.9 187.8v.3c0 .4 0 .8-.1 1.1s-.2.5-.4.6-.4.2-.6.2-.5-.1-.8-.3a2.7 2.7 0 0 1-.8-.7c-.2-.3-.5-.6-.6-.9-.2-.3-.3-.7-.4-1.1s-.1-.8-.1-1.2v-.3c0-.4 0-.8.1-1.1s.2-.5.4-.6.4-.2.6-.2.5.1.8.3a2.7 2.7 0 0 1 .8.7c.2.3.5.6.6.9.2.3.3.7.4 1.1 0 .3.1.7.1 1.2zm-.9-.2v-.3c0-.3 0-.6-.1-.9s-.1-.5-.2-.7-.2-.4-.4-.6c-.1-.2-.3-.3-.5-.4s-.3-.2-.5-.2c-.1 0-.3.1-.4.2s-.2.3-.2.5c-.1.2-.1.5-.1.8v.3c0 .3 0 .6.1.9s.1.5.2.7.2.4.4.6c.1.2.3.3.5.4s.4.2.5.2.3-.1.4-.2.2-.3.2-.5c.1-.2.1-.5.1-.8zm2.7 4.2l-.8-.5v-4.6c0-.3 0-.5.1-.7s.2-.2.4-.2.4.1.7.2c.1 0 .2.1.2.2.1.1.2.1.2.2v.7l-.1-.1c-.1 0-.1-.1-.2-.1-.1-.1-.2-.1-.3-.1s-.2 0-.2.1-.1.2-.1.3v4.6zm.7-3.8v.7l-2.1-1.2v-.7l2.1 1.2zm1.7 5.2l-.8-.5v-4.6c0-.3 0-.5.1-.7s.2-.2.4-.2.4.1.7.2c.1 0 .2.1.2.2.1.1.2.1.2.2v.7l-.1-.1c-.1 0-.1-.1-.2-.1-.1-.1-.2-.1-.3-.1s-.2 0-.2.1-.1.2-.1.3v4.6zm.8-3.8v.7l-2.1-1.2v-.7l2.1 1.2zm2.1 5.5c-.3-.2-.5-.3-.7-.6-.2-.2-.4-.5-.5-.7-.1-.3-.3-.5-.3-.8-.1-.3-.1-.6-.1-.9v-.2c0-.3 0-.6.1-.8s.2-.4.3-.5.3-.2.5-.1c.2 0 .4.1.6.2.3.1.5.3.7.5s.4.4.5.7l.3.8c.1.3.1.6.1.9v.4l-2.8-1.6v-.7l2 1.1v-.1c0-.2 0-.3-.1-.5s-.1-.3-.2-.5-.2-.3-.4-.4c-.1-.1-.3-.1-.4-.1s-.2 0-.3.1-.1.2-.2.4c0 .2-.1.3-.1.6v.2c0 .2 0 .4.1.5 0 .2.1.4.2.5.1.2.2.3.3.4s.3.2.4.3c.2.1.4.2.5.2s.3-.1.4-.2l.4.7c-.1.1-.2.2-.3.2s-.3.1-.5 0c-.1.2-.3.1-.5 0zm2.8-1.8v3.4l-.8-.5v-4.2l.8.4v.9zm1.1-.2v.9s-.1-.1-.2-.1-.1-.1-.2-.1c-.1-.1-.3-.1-.4-.1h-.3c-.1 0-.1.1-.2.2 0 .1-.1.2-.1.4l-.2-.1c0-.3 0-.5.1-.7 0-.2.1-.4.2-.5s.2-.2.3-.2.3 0 .5.1c0 0 .1.1.2.1.3 0 .3.1.3.1zm2.1 5.4c-.3-.2-.5-.3-.7-.6-.2-.2-.4-.5-.5-.7-.1-.3-.3-.5-.3-.8-.1-.3-.1-.6-.1-.9v-.2c0-.3 0-.6.1-.8s.2-.4.3-.5.3-.2.5-.1c.2 0 .4.1.7.2s.5.3.7.5.4.4.5.7l.3.8c.1.3.1.6.1.9v.4l-2.8-1.6v-.6l2 1.1v-.1c0-.2 0-.3-.1-.5s-.1-.3-.2-.5-.2-.3-.4-.4c-.1-.1-.3-.1-.4-.1s-.2.1-.3.1c-.1.1-.1.2-.2.4 0 .2-.1.3-.1.6v.2c0 .2 0 .4.1.5 0 .2.1.4.2.5.1.2.2.3.3.4s.3.2.4.3c.2.1.4.2.5.2.2 0 .3-.1.4-.2l.4.7c-.1.1-.2.2-.3.2s-.3.1-.5 0c-.2.1-.4 0-.6-.1zm4.2 1.5v-5l.8.5v5.9l-.7-.4-.1-1zm-2.3-2.5h0c0-.4 0-.7.1-.9s.2-.4.3-.5.3-.2.4-.2c.2 0 .4.1.6.2s.4.3.6.5.3.4.4.7c.1.2.2.5.3.8s.1.6.1.9v.3c0 .3-.1.5-.1.7s-.2.4-.3.5-.3.2-.4.2c-.2 0-.4-.1-.6-.2s-.4-.3-.6-.5-.3-.4-.4-.7l-.3-.8c-.1-.4-.1-.7-.1-1zm.8.4h0v.6c0 .2.1.4.1.5.1.2.1.3.2.4s.2.2.4.3a.9.9 0 0 0 .5.1c.1 0 .2-.1.3-.2s.1-.3.1-.4v-.7c0-.2 0-.3-.1-.5 0-.2-.1-.3-.2-.4s-.2-.3-.3-.4-.2-.2-.4-.3c-.1-.1-.3-.1-.4-.1s-.2.1-.3.2-.1.2-.1.4c.2.1.2.3.2.5z" class="T"/><path d="M346.7 199.3l56.9 32.7v17.9l-56.9-32.7z" class="U"/><path d="M367.2 221.4v-3.9l.8.5v3.9c0 .4-.1.6-.2.8s-.3.3-.6.3c-.2 0-.5-.1-.8-.3a2.7 2.7 0 0 1-.8-.7c-.2-.3-.4-.5-.6-.9a3.6 3.6 0 0 1-.2-1.1l.8.5c0 .2 0 .4.1.6s.1.3.3.4c.1.1.2.2.4.3.1.1.3.1.4.1s.2-.1.3-.2c.1.1.1-.1.1-.3zm1.6.5h0c0-.4 0-.6.1-.9.1-.2.2-.4.3-.5s.3-.2.5-.1c.2 0 .4.1.7.2.3.2.5.3.7.6.2.2.4.5.5.8s.3.6.3.9c.1.3.1.6.1.9v.1c0 .3 0 .6-.1.8s-.2.4-.3.5-.3.2-.5.1c-.2 0-.4-.1-.7-.2-.3-.2-.5-.3-.7-.6-.2-.2-.4-.5-.5-.7-.1-.3-.3-.6-.3-.9-.1-.4-.1-.7-.1-1zm.8.4h0v.6c0 .2.1.4.2.5.1.2.2.3.3.5.1.1.2.2.4.3.1.1.3.1.4.1s.2-.1.3-.1c.1-.1.1-.2.2-.3 0-.1.1-.3.1-.5v-.1c0-.2 0-.4-.1-.6 0-.2-.1-.4-.2-.5-.1-.2-.2-.3-.3-.5-.1-.1-.2-.2-.4-.3s-.3-.1-.4-.1-.2.1-.3.1c-.1.1-.1.2-.2.4v.5zm4.1.3v4.2l-.8-.5v-4.2l.8.5zm-.9-1.6c0-.1 0-.2.1-.3.1 0 .2 0 .3.1s.3.2.3.3c.1.1.1.3.1.4s0 .2-.1.3-.2 0-.3-.1-.3-.2-.3-.3c-.1-.1-.1-.2-.1-.4zm2.5 3.5v3.3l-.8-.5v-4.2l.8.4v1zm-.1.9l-.3-.2c0-.3 0-.5.1-.8.1-.2.2-.4.3-.5s.3-.2.5-.1c.2 0 .4.1.6.2s.3.2.5.4c.1.1.3.3.4.5s.2.4.2.6c.1.2.1.5.1.8v2.7l-.8-.5v-2.7c0-.2 0-.4-.1-.5 0-.1-.1-.3-.2-.4s-.2-.2-.4-.3c-.1-.1-.3-.1-.4-.1s-.2 0-.3.1-.1.2-.2.3v.5zm4.7 5.1c-.3-.2-.5-.3-.7-.6-.2-.2-.4-.5-.5-.7-.1-.3-.3-.5-.3-.8-.1-.3-.1-.6-.1-.9v-.2c0-.3 0-.6.1-.8s.2-.4.3-.5.3-.2.5-.1c.2 0 .4.1.7.2s.5.3.7.5.4.4.5.7l.3.8c.1.3.1.6.1.9v.4l-2.8-1.6v-.7l2 1.1v-.1c0-.2 0-.3-.1-.5s-.1-.3-.2-.5-.2-.3-.4-.4c-.1-.1-.3-.1-.4-.1s-.2.1-.3.1c-.1.1-.1.2-.2.4 0 .2-.1.3-.1.6v.2c0 .2 0 .4.1.5 0 .2.1.4.2.5.1.2.2.3.3.4s.3.2.4.3c.2.1.4.2.5.2.2 0 .3-.1.4-.2l.4.7c-.1.1-.2.2-.3.2s-.3.1-.5 0c-.1.2-.3.1-.6 0zm4.3 1.5v-5l.8.5v5.9l-.7-.4-.1-1zm-2.3-2.6h0c0-.4 0-.7.1-.9s.2-.4.3-.5.3-.2.4-.2c.2 0 .4.1.6.2s.4.3.6.5.3.4.4.7c.1.2.2.5.3.8s.1.6.1.9v.3c0 .3-.1.5-.1.7-.1.2-.2.4-.3.5s-.3.2-.4.2c-.2 0-.4-.1-.6-.2s-.4-.3-.6-.5-.3-.4-.4-.7l-.3-.8c-.1-.4-.1-.7-.1-1zm.8.4h0v.6c0 .2.1.4.1.5.1.2.1.3.3.4.1.1.2.2.4.3s.3.1.5.1c.1 0 .2-.1.3-.2s.1-.3.1-.5v-.7c0-.2 0-.3-.1-.5 0-.2-.1-.3-.2-.4s-.2-.3-.3-.4-.2-.2-.4-.3c-.1-.1-.3-.1-.4-.1s-.2.1-.3.2-.1.2-.1.4c.1.3.1.4.1.6z" class="T"/><path d="M403.6,232l53.5,30.7c1.9,1.1,3.4,3.7,3.4,5.9v13.9l-56.9-32.7V232z" class="U"/><path d="M420.5 253.7l-1-.6v-.8l1 .6c.3.2.6.2.8.2s.4-.2.5-.4a2 2 0 0 0 .2-.9v-.3c0-.3 0-.6-.1-.9s-.1-.5-.3-.7c-.1-.2-.3-.4-.4-.6-.2-.2-.4-.3-.6-.5l-1.1-.6v-.8l1.1.6a5.5 5.5 0 0 1 .9.7c.3.3.5.6.7.9s.3.7.5 1.1a5 5 0 0 1 .2 1.2v.3c0 .4-.1.7-.2 1s-.3.5-.5.6-.4.2-.7.1c-.4.1-.7 0-1-.2zm-.6-6v5.6l-.8-.5v-5.6l.8.5zm5.2 8.7c-.3-.2-.5-.3-.7-.6-.2-.2-.4-.5-.5-.7-.1-.3-.3-.5-.3-.8-.1-.3-.1-.6-.1-.9v-.2c0-.3 0-.6.1-.8s.2-.4.3-.5.3-.2.5-.1c.2 0 .4.1.6.2.3.1.5.3.7.5s.4.4.5.7l.3.8c.1.3.1.6.1.9v.4l-2.8-1.6v-.7l2 1.1v-.1c0-.2 0-.3-.1-.5s-.1-.3-.2-.5-.2-.3-.4-.4c-.1-.1-.3-.1-.4-.1s-.2.1-.3.1c-.1.1-.1.2-.2.4 0 .2-.1.3-.1.6v.2c0 .2 0 .4.1.5 0 .2.1.4.2.5.1.2.2.3.3.4s.3.2.4.3c.2.1.4.2.5.2.2 0 .3-.1.4-.2l.4.7c-.1.1-.2.2-.3.2s-.3.1-.5 0c-.1.2-.3.1-.5 0zm3.5 1.3c.1.1.2.1.4.1.1 0 .2 0 .3-.1s.1-.2.1-.3l.8.4c0 .3-.1.5-.2.6s-.3.2-.5.2-.5-.1-.7-.2c-.3-.2-.5-.4-.7-.6s-.4-.5-.5-.7l-.3-.8c-.1-.3-.1-.6-.1-.9v-.1c0-.3 0-.5.1-.8.1-.2.2-.4.3-.5s.3-.2.5-.2.4.1.7.2c.3.2.5.4.8.6.2.3.4.5.5.8s.2.6.2.9l-.8-.4c0-.2 0-.3-.1-.5s-.1-.3-.2-.4-.2-.2-.4-.3-.3-.1-.4-.1-.2.1-.3.2-.1.2-.1.4v.5.1.5c0 .2.1.3.1.5.1.2.1.3.3.4-.1.3 0 .4.2.5zm3-3.6v5.9l-.8-.5v-5.9l.8.5zm1.7 2.8v4.2l-.8-.5v-4.2l.8.5zm-.9-1.6c0-.1 0-.2.1-.3.1 0 .2 0 .3.1s.3.2.3.3c.1.1.1.3.1.4s0 .2-.1.3c-.1 0-.2 0-.3-.1s-.3-.2-.3-.3-.1-.3-.1-.4zm2.6 3.4v3.3l-.8-.5v-4.2l.8.4v1zm-.2 1l-.3-.2c0-.3 0-.5.1-.8.1-.2.2-.4.3-.5s.3-.2.5-.1c.2 0 .4.1.6.2s.3.2.5.4c.1.1.3.3.4.5s.2.4.2.6c.1.2.1.5.1.8v2.7l-.8-.5v-2.7c0-.2 0-.4-.1-.5 0-.1-.1-.3-.2-.4s-.2-.2-.4-.3c-.1-.1-.3-.1-.4-.1s-.2 0-.3.1-.1.2-.2.3c.1.2 0 .3 0 .5zm4.8 5c-.3-.2-.5-.3-.7-.6-.2-.2-.4-.5-.5-.7-.1-.3-.3-.5-.3-.8-.1-.3-.1-.6-.1-.9v-.2c0-.3 0-.6.1-.8s.2-.4.3-.5.3-.1.5-.1.4.1.7.2.5.3.7.5.4.4.5.7l.3.8c.1.3.1.6.1.9v.4l-2.8-1.6v-.7l2 1.1v-.1c0-.2 0-.3-.1-.5s-.1-.3-.2-.5-.2-.3-.4-.4c-.1-.1-.3-.1-.4-.1s-.2 0-.3.1-.1.2-.2.4c0 .2-.1.3-.1.6v.2c0 .2 0 .4.1.5 0 .2.1.4.2.5.1.2.2.3.3.4s.3.2.4.3c.2.1.4.2.5.2.2 0 .3-.1.4-.2l.4.7c-.1.1-.2.2-.3.2s-.3.1-.5 0c-.2.2-.4.1-.6 0zm4.3 1.5v-5l.8.5v5.9l-.7-.4-.1-1zm-2.4-2.5h0c0-.4 0-.7.1-.9s.2-.4.3-.5.3-.2.4-.2c.2 0 .4.1.6.2s.4.3.6.5.3.4.4.7c.1.2.2.5.3.8s.1.6.1.9v.3c0 .3-.1.5-.1.7-.1.2-.2.4-.3.5s-.3.2-.4.2c-.2 0-.4-.1-.6-.2s-.4-.3-.6-.5-.3-.4-.4-.7l-.3-.8c-.1-.4-.1-.7-.1-1zm.8.4h0v.6c0 .2.1.4.1.5.1.2.1.3.2.4s.2.2.4.3a.9.9 0 0 0 .5.1c.1 0 .2-.1.3-.2s.1-.3.1-.4v-.7c0-.2 0-.3-.1-.5 0-.2-.1-.3-.2-.4s-.2-.3-.3-.4-.2-.2-.4-.3c-.1-.1-.3-.1-.4-.1s-.2.1-.3.1c-.1.1-.1.2-.1.4.2.2.2.4.2.6z" class="T"/><path d="M175.9 119.1l56.9 32.7V165l-56.9-32.7z" class="R S"/><g class="O"><use href="#J"/><use href="#K"/><path d="M202.7 142.2V138l.5.3v4.9l-.5-.3v-.7zm-2-2.2h0c0-.3 0-.6.1-.7.1-.2.1-.3.2-.4s.2-.1.4-.1c.1 0 .3 0 .5.2.2.1.4.2.5.4s.3.3.4.5.2.4.2.7c.1.2.1.5.1.8v.3c0 .2-.1.4-.1.6-.1.2-.1.3-.2.4s-.2.1-.4.1c-.1 0-.3-.1-.5-.2s-.3-.2-.5-.4c-.1-.2-.3-.4-.4-.6s-.2-.4-.2-.7c-.1-.4-.1-.6-.1-.9zm.5.2h0v.6c0 .2.1.3.1.5.1.2.1.3.2.4s.2.2.4.3.3.1.4.1.2-.1.3-.2.1-.2.2-.4v-.8c0-.1-.1-.3-.1-.4s-.1-.3-.2-.4-.1-.2-.2-.3l-.3-.3c-.1-.1-.3-.1-.4-.1s-.2.1-.2.1c-.1.1-.1.2-.1.3-.1.3-.1.5-.1.6zm-2.2.2l.8-2.6.6.3-1.2 3.3c0 .1-.1.1-.1.2s-.1.1-.2.2c-.1 0-.2.1-.3.1s-.2 0-.4-.1c0 0-.1-.1-.2-.1s-.1-.1-.1-.1v-.5h.1.1c.1.1.2.1.3.1s.1 0 .2-.1c.1 0 .1-.1.1-.3l.3-.4zm-.6-3.5l.8 3.1.1.7h-.4l-1.1-4.2.6.4z"/><use href="#L"/><path d="M193.5 132.9l-1.7 4.1-.4-.3 1.7-4.1.4.3z"/><use href="#M"/><path d="M185.2 131.1h0c0-.3 0-.5.1-.7s.2-.3.3-.4.3-.1.4-.1c.2 0 .4.1.6.2s.4.3.6.5.3.4.4.6.2.5.3.7.1.5.1.8v.1c0 .2 0 .5-.1.6-.1.2-.2.3-.3.4s-.3.1-.4.1c-.2 0-.4-.1-.6-.2s-.4-.3-.6-.5-.3-.4-.4-.6l-.3-.7c-.1-.3-.1-.5-.1-.8zm.5.2h0c0 .2 0 .4.1.6 0 .2.1.3.2.5s.2.3.3.4.2.2.4.3c.1.1.3.1.4.1s.2 0 .3-.1.1-.2.2-.3c0-.1.1-.3.1-.5v-.1c0-.2 0-.3-.1-.5 0-.2-.1-.3-.2-.5s-.2-.3-.3-.4-.2-.2-.4-.3c-.1-.1-.3-.1-.4-.1s-.2 0-.3.1-.1.2-.2.3c-.1.2-.1.4-.1.5z"/><use href="#N"/></g><path d="M232.8 151.8l56.9 32.7v13.2L232.8 165z" class="R S"/><g class="O"><use href="#O"/><use href="#P"/></g><path d="M289.7 184.5l57 32.7v13.1l-57-32.6z" class="R S"/><g class="O"><path d="M321 208.7v.7c0 .4 0 .7-.1.9s-.1.4-.3.5c-.1.1-.2.1-.4.1s-.3-.1-.5-.2-.3-.2-.4-.3-.2-.3-.4-.4c-.1-.2-.2-.3-.3-.5s-.1-.4-.2-.7c0-.3-.1-.5-.1-.8v-.7c0-.4 0-.7.1-.9s.1-.4.3-.5c.1-.1.2-.1.4-.1s.3.1.5.2.3.2.4.3l.4.4c.1.2.2.3.3.5s.1.4.2.7a2.2 2.2 0 0 1 .1.8zm-.5.5v-.9-.6c0-.2-.1-.3-.1-.5 0-.1-.1-.3-.2-.4s-.1-.2-.2-.3-.2-.1-.3-.2-.2-.1-.3-.1-.2 0-.2.1c-.1.1-.1.2-.1.4s-.1.4-.1.6v.9.6c0 .2.1.3.1.5 0 .1.1.3.2.4s.1.2.2.3.2.1.3.2.2.1.3.1.2 0 .2-.1c.1-.1.1-.2.1-.4.1-.1.1-.4.1-.6zm-3.6-4.8v4.7l-.5-.3v-4l-1-.2v-.5l1.5.3h0z"/></g><path d="M346.7 217.2l56.9 32.7V263l-56.9-32.7z" class="R S"/><g class="O"><path d="M377.9 241.4v.7c0 .4 0 .7-.1.9s-.1.4-.3.5c-.1.1-.2.1-.4.1s-.3-.1-.5-.2-.3-.2-.4-.3-.2-.3-.4-.4c-.1-.2-.2-.3-.3-.5s-.1-.4-.2-.7-.1-.5-.1-.8v-.7c0-.4 0-.7.1-.9s.1-.4.3-.5c.1-.1.2-.1.4-.1s.3.1.5.2.3.2.4.3l.4.4c.1.2.2.3.3.5s.1.4.2.7c.1.2.1.4.1.8zm-.5.5v-.9-.6c0-.2-.1-.3-.1-.5 0-.1-.1-.3-.2-.4s-.1-.2-.2-.3-.2-.1-.3-.2-.2-.1-.3-.1-.2 0-.2.1c-.1.1-.1.2-.1.4s-.1.4-.1.6v.9.6c0 .2.1.3.1.5 0 .1.1.3.2.4s.1.2.2.3.2.1.3.2.2.1.3.1.2 0 .2-.1c.1-.1.1-.2.1-.4.1-.2.1-.4.1-.6zm-3.5-4.9v4.7l-.5-.3v-4l-1-.2v-.5l1.5.3h0z"/></g><path d="M403.6 249.9l56.9 32.7v13.1L403.6 263z" class="R S"/><g class="O"><path d="M434.9 274.1v.7c0 .4 0 .7-.1.9s-.1.4-.3.5c-.1.1-.2.1-.4.1s-.3-.1-.5-.2-.3-.2-.4-.3-.2-.3-.4-.4c-.1-.2-.2-.3-.3-.5s-.1-.4-.2-.7-.1-.5-.1-.8v-.7c0-.4 0-.7.1-.9s.1-.4.3-.5c.1-.1.2-.1.4-.1s.3.1.5.2.3.2.4.3l.4.4c.1.2.2.3.3.5s.1.4.2.7c.1.2.1.5.1.8zm-.5.5v-.9-.6c0-.2-.1-.3-.1-.5 0-.1-.1-.3-.2-.4s-.1-.2-.2-.3-.2-.1-.3-.2-.2-.1-.3-.1-.2 0-.2.1c-.1.1-.1.2-.1.4s-.1.4-.1.6v.9.6c0 .2.1.3.1.5 0 .1.1.3.2.4s.1.2.2.3.2.1.3.2.2.1.3.1.2 0 .2-.1c.1-.1.1-.2.1-.4.1-.1.1-.4.1-.6zm-3.3-4.7h0v.5h0c-.3-.2-.5-.2-.7-.2s-.3 0-.4.2c-.1.1-.2.3-.2.4 0 .2-.1.4-.1.6v.7c0 .2 0 .4.1.6 0 .2.1.3.2.5s.2.3.3.4l.3.3c.1.1.2.1.3.1s.2 0 .2-.1c.1-.1.1-.1.1-.3 0-.1.1-.2.1-.4v-.4c0-.1-.1-.3-.1-.4-.1-.1-.1-.3-.2-.4l-.3-.3c-.1-.1-.3-.1-.4-.1s-.2.1-.3.1c-.1.1-.1.2-.1.3l-.3-.2c0-.2.1-.4.1-.5l.3-.3c.1 0 .2-.1.4 0 .1 0 .3.1.4.2.2.1.4.3.5.4.1.2.3.4.4.6s.2.4.2.6.1.4.1.6 0 .4-.1.6-.1.3-.2.4-.2.1-.4.1-.3-.1-.5-.2-.4-.3-.6-.5-.3-.4-.4-.6-.2-.5-.2-.7c-.1-.2-.1-.5-.1-.7v-.3c0-.3 0-.6.1-.9s.2-.5.3-.7.3-.3.6-.3c-.1 0 .2.1.6.3z"/></g><use href="#Q" class="P Q"/><g class="O"><use href="#R"/><path d="M205.8 153.1l-1.7 4.1-.4-.3 1.7-4.1.4.3zm-3.1 2.2v-4.2l.5.3v4.9l-.5-.3v-.7zm-2-2.2h0c0-.3 0-.6.1-.7.1-.2.1-.3.2-.4s.2-.1.4-.1c.1 0 .3 0 .5.2.2.1.4.2.5.4s.3.3.4.5.2.4.2.7c.1.2.1.5.1.8v.3c0 .2-.1.4-.1.6-.1.2-.1.3-.2.4s-.2.1-.4.1c-.1 0-.3-.1-.5-.2s-.3-.2-.5-.4c-.1-.2-.3-.4-.4-.6s-.2-.4-.2-.7c-.1-.4-.1-.6-.1-.9zm.5.3h0v.6c0 .2.1.3.1.5.1.2.1.3.2.4s.2.2.4.3.3.1.4.1.2-.1.3-.2.1-.2.2-.4v-.7c0-.1-.1-.3-.1-.4s-.1-.3-.2-.4-.1-.2-.2-.3l-.3-.3c-.1-.1-.3-.1-.4-.1s-.2.1-.2.1c-.1.1-.1.2-.1.3-.1.1-.1.3-.1.5z"/><use href="#S"/><use href="#T"/><path d="M193.5 146.1l-1.7 4.1-.4-.3 1.7-4.1.4.3z"/><use href="#U"/><use href="#V"/><use href="#W"/></g><path d="M232.8 165l56.9 32.6v13.2l-56.9-32.7z" class="P Q"/><g class="O"><use href="#X"/><use href="#Y"/></g><use href="#Z" class="P Q"/><g class="O"><path d="M321.2 224.1v.5l-2.6-1.5v-.4l1.3-.9c.2-.1.3-.2.4-.3s.2-.2.2-.3.1-.2.1-.3c0-.2 0-.3-.1-.5s-.1-.3-.2-.4-.2-.2-.4-.3-.3-.1-.5-.1c-.1 0-.2.1-.3.2s-.1.3-.1.4l-.5-.3c0-.3.1-.5.1-.6.1-.2.2-.2.4-.3.2 0 .4.1.7.2s.5.3.7.5.3.4.4.7c.1.2.1.5.1.7 0 .1 0 .3-.1.4 0 .1-.1.2-.2.3s-.1.2-.2.3-.2.2-.3.2l-1.1.7 2.2 1.1zm-5.1-5.1l.4.2c.2.1.3.2.4.2s.2 0 .3-.1.1-.2.1-.4 0-.3-.1-.5-.1-.3-.2-.4-.2-.2-.4-.3c-.1-.1-.3-.1-.4-.1s-.2 0-.3.1-.1.2-.1.4l-.5-.3c0-.2.1-.4.2-.6.1-.1.2-.2.4-.2s.4.1.7.2c.2.1.5.3.6.5.2.2.3.4.4.7s.2.5.2.8c0 .1 0 .2-.1.3 0 .1-.1.2-.2.2-.1.1-.2.1-.4.1s-.3-.1-.6-.2l-.4-.3v-.3zm0 .5v-.4l.4.3c.3.1.5.3.6.5.2.2.3.3.4.5s.2.3.2.5.1.3.1.5 0 .4-.1.5l-.3.3c-.1.1-.2.1-.4 0-.2 0-.3-.1-.5-.2s-.3-.2-.5-.4c-.2-.1-.3-.3-.4-.5l-.3-.6c-.1-.2-.1-.4-.1-.6l.5.3a.9.9 0 0 0 .1.5c.1.2.2.3.3.4s.3.2.4.3c.2.1.3.1.4.1s.2 0 .3-.1.1-.2.1-.4 0-.4-.1-.5c-.1-.2-.2-.3-.3-.5-.1-.1-.3-.3-.5-.4l-.3-.1z"/></g><use href="#a" class="P Q"/><g class="O"><use href="#b"/><path d="M373 251.7l.4.2c.2.1.3.2.4.2s.2 0 .3-.1.1-.2.1-.4 0-.3-.1-.5-.1-.3-.2-.4-.2-.2-.4-.3c-.1-.1-.3-.1-.4-.1s-.2 0-.3.1-.1.2-.1.4l-.5-.3c0-.2.1-.4.2-.6.1-.1.2-.2.4-.2s.4.1.7.2c.2.1.5.3.6.5.2.2.3.4.4.7s.2.5.2.8c0 .1 0 .2-.1.3 0 .1-.1.2-.2.2-.1.1-.2.1-.4.1s-.3-.1-.6-.2l-.4-.3v-.3zm0 .5v-.4l.4.3c.3.1.5.3.6.5.2.2.3.3.4.5s.2.3.2.5.1.3.1.5 0 .4-.1.5l-.3.3c-.1.1-.2.1-.4 0-.2 0-.3-.1-.5-.2s-.3-.2-.5-.4c-.2-.1-.3-.3-.4-.5l-.3-.6c-.1-.2-.1-.4-.1-.6l.5.3c0 .2 0 .3.1.5s.2.3.3.4.3.2.4.3c.2.1.3.1.4.1s.2 0 .3-.1.1-.2.1-.4 0-.4-.1-.5c-.1-.2-.2-.3-.3-.5-.1-.1-.3-.3-.5-.4l-.3-.1z"/></g><use href="#c" class="P Q"/><g class="O"><path d="M435 287.2v.7c0 .4 0 .7-.1.9s-.1.4-.3.5c-.1.1-.2.1-.4.1s-.3-.1-.5-.2-.3-.2-.4-.3-.2-.3-.4-.4c-.1-.2-.2-.3-.3-.5s-.1-.4-.2-.7-.1-.5-.1-.8v-.7c0-.4 0-.7.1-.9s.1-.4.3-.5c.1-.1.2-.1.4-.1s.3.1.5.2.3.2.4.3l.4.4c.1.2.2.3.3.5s.1.4.2.7.1.5.1.8zm-.6.5v-.9-.6c0-.2-.1-.3-.1-.5 0-.1-.1-.3-.2-.4s-.1-.2-.2-.3-.2-.1-.3-.2-.2-.1-.3-.1-.2 0-.2.1c-.1.1-.1.2-.1.4v.6.9.6c0 .2.1.3.1.5 0 .1.1.3.2.4s.1.2.2.3.2.1.3.2.2.1.3.1.2 0 .2-.1c.1-.1.1-.2.1-.4v-.6zm-2.5 0v.5l-2.6-1.5v-.4l1.3-.9c.2-.1.3-.2.4-.3s.2-.2.2-.3.1-.2.1-.3c0-.2 0-.3-.1-.5s-.1-.3-.2-.4-.2-.2-.4-.3-.3-.1-.4-.1-.2.1-.3.2-.1.3-.1.4l-.5-.3c0-.3 0-.5.1-.6.1-.2.2-.2.4-.3.2 0 .4.1.7.2s.5.3.7.5.3.4.4.7a1.7 1.7 0 0 1 .1.7c0 .1 0 .3-.1.4 0 .1-.1.2-.2.3s-.1.2-.2.3-.2.2-.3.2l-1.1.7 2.1 1.1z"/></g><path d="M175.9 145.4l56.9 32.7v13.1l-56.9-32.7z" class="R S"/><g class="O"><path d="M208.3 167.7h0v.5h0c-.3-.2-.5-.2-.7-.2s-.3 0-.4.2c-.1.1-.2.3-.2.4 0 .2-.1.4-.1.6v.7c0 .2 0 .4.1.6 0 .2.1.4.2.5.1.2.2.3.2.4l.3.3c.1.1.2.1.3.1s.2 0 .2-.1c.1-.1.1-.1.1-.3v-.4-.4c0-.1-.1-.3-.1-.4-.1-.1-.1-.3-.2-.4l-.3-.3c-.1-.1-.3-.1-.4-.1s-.2.1-.3.1c-.1.1-.1.2-.1.3l-.3-.2c0-.2.1-.4.1-.5l.3-.3c.1 0 .2-.1.4 0 .1 0 .3.1.4.2.2.1.4.3.5.4.1.2.3.4.4.6s.2.4.2.6.1.4.1.6 0 .4-.1.6-.1.3-.2.4-.2.1-.4.1-.3-.1-.5-.2-.4-.3-.6-.5-.3-.4-.4-.6-.2-.5-.2-.7c-.1-.2-.1-.5-.1-.7v-.3c0-.3 0-.6.1-.9s.2-.5.3-.7.3-.3.6-.3c.1-.1.4 0 .8.3zm-2.5-1.5l-1.7 4.1-.4-.3 1.7-4.1.4.3z"/><use href="#d"/><path d="M199 166.6l.8-2.6.6.3-1.2 3.3c0 .1-.1.1-.1.2s-.1.1-.2.2c-.1 0-.2.1-.3.1s-.2 0-.4-.1c0 0-.1-.1-.2-.1s-.1-.1-.1-.1v-.5h.1.1c.1.1.2.1.3.1s.1 0 .2-.1c.1 0 .1-.1.1-.3l.3-.4zm-.6-3.4l.8 3.1.1.7h-.4l-1.1-4.2.6.4zm-1.6-.1v.5l-2.2-1.3v-.5l2.2 1.3zm-2.1-3.2v4.7l-.5-.3v-4.7l.5.3zm2.6 1.4v4.7l-.5-.3V161l.5.3zm-3.8-2.1l-1.7 4.1-.4-.3 1.7-4.1.4.3zm-4.4-.6v2.7l-.5-.3v-3.5l.5.3v.8zm-.1.8l-.2-.1c0-.2 0-.4.1-.6s.1-.3.3-.4c.1-.1.2-.1.4-.1s.3.1.5.2c.1.1.3.2.4.3s.2.2.3.4c.1.1.1.3.2.5 0 .2.1.4.1.6v2.3l-.5-.3v-2.3c0-.2 0-.3-.1-.5 0-.1-.1-.3-.2-.4l-.3-.3c-.1-.1-.2-.1-.3-.1s-.2 0-.3.1-.1.2-.2.3c-.2.1-.2.2-.2.4zm-3.8-2h0c0-.3 0-.5.1-.7s.2-.3.3-.4.3-.1.4-.1c.2 0 .4.1.6.2s.4.3.6.5.3.4.4.6.2.5.3.7.1.5.1.8v.1c0 .2 0 .5-.1.6-.1.2-.2.3-.3.4s-.3.1-.4.1c-.2 0-.4-.1-.6-.2s-.4-.3-.6-.5-.3-.4-.4-.6l-.3-.7c-.1-.2-.1-.6-.1-.8zm.5.2h0c0 .2 0 .4.1.6 0 .2.1.3.2.5s.2.3.3.4.2.2.4.3c.1.1.3.1.4.1s.2 0 .3-.1.1-.2.2-.3c0-.1.1-.3.1-.5v-.1c0-.2 0-.3-.1-.5 0-.2-.1-.3-.2-.5s-.2-.3-.3-.4-.2-.2-.4-.3c-.1-.1-.3-.1-.4-.1s-.2.1-.3.1c-.1.1-.1.2-.2.3-.1.2-.1.3-.1.5zm-1.5-.6l.5.3c0 .3-.1.5-.2.7s-.3.3-.5.3-.5-.1-.8-.3c-.2-.1-.5-.3-.6-.5-.2-.2-.4-.5-.5-.7l-.3-.9c-.1-.3-.1-.6-.1-1v-.5c0-.3 0-.6.1-.8s.2-.4.3-.5.3-.2.5-.1c.2 0 .4.1.7.2.3.2.6.4.8.6.2.3.4.5.5.8s.2.6.2.9l-.5-.3c0-.2-.1-.4-.1-.6-.1-.2-.2-.4-.3-.5-.1-.2-.3-.3-.5-.4s-.3-.2-.5-.2c-.1 0-.2 0-.3.1s-.2.2-.2.4-.1.4-.1.6v.5a1.7 1.7 0 0 0 .1.7c0 .2.1.4.2.6s.2.4.3.5c.1.2.3.3.5.4s.4.2.5.2.2-.1.3-.2c-.1.1-.1-.1 0-.3z"/></g><path d="M232.8 178.1l56.9 32.7v13.1l-56.9-32.7z" class="R S"/><g class="O"><path d="M264.1 202.2v.7c0 .4 0 .7-.1.9s-.1.4-.3.5c-.1.1-.2.1-.4.1s-.3-.1-.5-.2-.3-.2-.4-.3-.2-.3-.4-.4c-.1-.2-.2-.3-.3-.5s-.1-.4-.2-.7c0-.3-.1-.5-.1-.8v-.7c0-.4 0-.7.1-.9s.1-.4.3-.5c.1-.1.2-.1.4-.1s.3.1.5.2.3.2.4.3l.4.4c.1.2.2.3.3.5s.1.4.2.7c.1.2.1.5.1.8zm-.5.5v-.9-.6c0-.2 0-.3-.1-.5 0-.1-.1-.3-.2-.4s-.1-.2-.2-.3-.2-.1-.3-.2-.2-.1-.3-.1-.2 0-.2.1c-.1.1-.1.2-.1.4v.6.9.6c0 .2.1.3.1.5 0 .1.1.3.2.4s.1.2.2.3.2.1.3.2.2.1.3.1.2 0 .2-.1c.1-.1.1-.2.1-.4-.1-.1 0-.3 0-.6zm-3.6-4.8v4.7l-.5-.3v-4l-1-.2v-.5l1.5.3h0z"/></g><use href="#e" class="R S"/><g class="O"><use href="#f"/><path d="M316.9 230.6v4.7l-.5-.3v-4l-1-.2v-.5l1.5.3h0z"/></g><path d="M346.7 243.5l56.9 32.7v13.1l-56.9-32.7z" class="R S"/><g class="O"><path d="M377.9 267.6v.7c0 .4 0 .7-.1.9s-.1.4-.3.5c-.1.1-.2.1-.4.1s-.3-.1-.5-.2-.3-.2-.4-.3-.2-.3-.4-.4c-.1-.2-.2-.3-.3-.5s-.1-.4-.2-.7-.1-.5-.1-.8v-.7c0-.4 0-.7.1-.9s.1-.4.3-.5c.1-.1.2-.1.4-.1s.3.1.5.2.3.2.4.3l.4.4c.1.2.2.3.3.5s.1.4.2.7c.1.2.1.5.1.8zm-.5.5v-.9-.6c0-.2-.1-.3-.1-.5 0-.1-.1-.3-.2-.4s-.1-.2-.2-.3-.2-.1-.3-.2-.2-.1-.3-.1-.2 0-.2.1c-.1.1-.1.2-.1.4s-.1.4-.1.6v.9.6c0 .2.1.3.1.5 0 .1.1.3.2.4s.1.2.2.3.2.1.3.2.2.1.3.1.2 0 .2-.1c.1-.1.1-.2.1-.4.1-.1.1-.3.1-.6zm-3.5-4.8v4.7l-.5-.3v-4l-1-.2v-.5l1.5.3h0z"/></g><path d="M403.6 276.2l56.9 32.6V322l-56.9-32.7z" class="R S"/><g class="O"><path d="M434.9 300.3v.7c0 .4 0 .7-.1.9s-.1.4-.3.5c-.1.1-.2.1-.4.1s-.3-.1-.5-.2-.3-.2-.4-.3-.2-.3-.4-.4c-.1-.2-.2-.3-.3-.5s-.1-.4-.2-.7c0-.3-.1-.5-.1-.8v-.7c0-.4 0-.7.1-.9s.1-.4.3-.5c.1-.1.2-.1.4-.1s.3.1.5.2.3.2.4.3l.4.4c.1.2.2.3.3.5s.1.4.2.7c.1.2.1.5.1.8zm-.5.5v-.9-.6c0-.2-.1-.3-.1-.5 0-.1-.1-.3-.2-.4s-.1-.2-.2-.3-.2-.1-.3-.2-.2-.1-.3-.1-.2 0-.2.1c-.1.1-.1.2-.1.4s-.1.4-.1.6v.9.6c0 .2.1.3.1.5 0 .1.1.3.2.4s.1.2.2.3.2.1.3.2.2.1.3.1.2 0 .2-.1c.1-.1.1-.2.1-.4.1-.1.1-.3.1-.6zm-3.3-4.6h0v.5h0c-.3-.2-.5-.2-.7-.2s-.3 0-.4.2c-.1.1-.2.3-.2.4 0 .2-.1.4-.1.6v.7c0 .2 0 .4.1.6 0 .2.1.3.2.5s.2.3.3.4l.3.3c.1.1.2.1.3.1s.2 0 .2-.1c.1-.1.1-.1.1-.3 0-.1.1-.2.1-.4v-.4c0-.1-.1-.3-.1-.4-.1-.1-.1-.3-.2-.4l-.3-.3c-.1-.1-.3-.1-.4-.1s-.2.1-.3.1c-.1.1-.1.2-.1.3l-.3-.2c0-.2.1-.4.1-.5l.3-.3c.1 0 .2-.1.4 0 .1 0 .3.1.4.2.2.1.4.3.5.4.1.2.3.4.4.6s.2.4.2.6.1.4.1.6 0 .4-.1.6-.1.3-.2.4-.2.1-.4.1-.3-.1-.5-.2-.4-.3-.6-.5-.3-.4-.4-.7c-.1-.2-.2-.5-.2-.7-.1-.2-.1-.5-.1-.7v-.3c0-.3 0-.6.1-.9s.2-.5.3-.7.3-.3.6-.3c-.1.1.2.2.6.4z"/></g><path d="M175.9 158.5l56.9 32.7v13.1l-56.9-32.6z" class="P Q"/><g class="O"><path d="M208.3 180.8h0v.5h0c-.3-.2-.5-.2-.7-.2s-.3 0-.4.2c-.1.1-.2.3-.2.4 0 .2-.1.4-.1.6v.7c0 .2 0 .4.1.6 0 .2.1.4.2.5.1.2.2.3.2.4l.3.3c.1.1.2.1.3.1s.2 0 .2-.1c.1-.1.1-.1.1-.3v-.4-.4c0-.1-.1-.3-.1-.4-.1-.1-.1-.3-.2-.4l-.3-.3c-.1-.1-.3-.1-.4-.1s-.2.1-.3.1c-.1.1-.1.2-.1.3l-.3-.2c0-.2.1-.4.1-.5l.3-.3c.1 0 .2-.1.4 0 .1 0 .3.1.4.2.2.1.4.3.5.4.1.2.3.4.4.6s.2.4.2.6.1.4.1.6 0 .4-.1.6-.1.3-.2.4-.2.1-.4.1-.3-.1-.5-.2-.4-.3-.6-.5-.3-.4-.4-.6-.2-.5-.2-.7c-.1-.2-.1-.5-.1-.7v-.3c0-.3 0-.6.1-.9s.2-.5.3-.7.3-.3.6-.3a2.7 2.7 0 0 1 .8.3zm-2.5-1.4l-1.7 4.1-.4-.3 1.7-4.1.4.3z"/><use href="#g"/><use href="#h"/><path d="M196.8 176.2v.5l-2.2-1.3v-.4l2.2 1.2zm-2.1-3.2v4.7l-.5-.3v-4.7l.5.3zm2.6 1.5v4.7l-.5-.3v-4.7l.5.3zm-3.8-2.2l-1.7 4.1-.4-.3 1.7-4.1.4.3zm-4.4-.6v2.7l-.5-.3v-3.5l.5.3v.8zm-.1.8l-.2-.1c0-.2 0-.4.1-.6s.1-.3.3-.4c.1-.1.2-.1.4-.1s.3.1.5.2c.1.1.3.2.4.3s.2.2.3.4c.1.1.1.3.2.5 0 .2.1.4.1.6v2.3l-.5-.3V173c0-.2 0-.3-.1-.5 0-.1-.1-.3-.2-.4l-.3-.3c-.1-.1-.2-.1-.3-.1s-.2 0-.3.1-.1.2-.2.3c-.2.1-.2.3-.2.4zm-3.8-2h0c0-.3 0-.5.1-.7s.2-.3.3-.4.3-.1.4-.1c.2 0 .4.1.6.2s.4.3.6.5.3.4.4.6.2.5.3.7.1.5.1.8v.1c0 .2 0 .5-.1.6-.1.2-.2.3-.3.4s-.3.1-.4.1c-.2 0-.4-.1-.6-.2s-.4-.3-.6-.5-.3-.4-.4-.6l-.3-.7c-.1-.2-.1-.5-.1-.8zm.5.2h0c0 .2 0 .4.1.6 0 .2.1.3.2.5s.2.3.3.4.2.2.4.3c.1.1.3.1.4.1s.2 0 .3-.1.1-.2.2-.3c0-.1.1-.3.1-.5v-.1c0-.2 0-.3-.1-.5 0-.2-.1-.3-.2-.5s-.2-.3-.3-.4-.2-.2-.4-.3c-.1-.1-.3-.1-.4-.1s-.2.1-.3.1c-.1.1-.1.2-.2.3-.1.2-.1.4-.1.5zm-1.5-.6l.5.3c0 .3-.1.5-.2.7s-.3.3-.5.3-.5-.1-.8-.3c-.2-.1-.5-.3-.6-.5-.2-.2-.4-.5-.5-.7l-.3-.9c-.1-.3-.1-.6-.1-1v-.5c0-.3 0-.6.1-.8s.2-.4.3-.5.3-.2.5-.1c.2 0 .4.1.7.2.3.2.6.4.8.6.2.3.4.5.5.8s.2.6.2.9l-.5-.3c0-.2-.1-.4-.1-.6-.1-.2-.2-.4-.3-.5-.1-.2-.3-.3-.5-.4s-.3-.2-.5-.2c-.1 0-.2 0-.3.1s-.2.2-.2.4-.1.4-.1.6v.5a1.7 1.7 0 0 0 .1.7c0 .2.1.4.2.6s.2.4.3.5c.1.2.3.3.5.4s.4.2.5.2.2-.1.3-.2c-.1.1-.1-.1 0-.3z"/></g><path d="M232.8 191.2l56.9 32.7V237l-56.9-32.7z" class="P Q"/><g class="O"><path d="M264.2 217.7v.5l-2.6-1.5v-.4l1.3-.9c.2-.1.3-.2.4-.3s.2-.2.2-.3.1-.2.1-.3c0-.2 0-.3-.1-.5s-.1-.3-.2-.4-.2-.2-.4-.3-.3-.1-.4-.1-.2.1-.3.2-.1.3-.1.4l-.5-.3c0-.3 0-.5.1-.6.1-.2.2-.2.4-.3.2 0 .4.1.7.2s.5.3.7.5.3.4.4.7c.1.2.1.5.1.7 0 .1 0 .3-.1.4 0 .1-.1.2-.2.3s-.1.2-.2.3-.2.2-.3.2l-1.1.7 2.1 1.1zm-5.1-5.1l.4.2c.2.1.3.2.4.2s.2 0 .3-.1.1-.2.1-.4 0-.3-.1-.5-.1-.3-.2-.4-.2-.2-.4-.3c-.1-.1-.3-.1-.4-.1s-.2 0-.3.1-.1.2-.1.4l-.5-.3c0-.2.1-.4.2-.6.1-.1.2-.2.4-.2s.4.1.7.2c.2.1.5.3.6.5.2.2.3.4.4.7s.2.5.2.8c0 .1 0 .2-.1.3 0 .1-.1.2-.2.2-.1.1-.2.1-.4.1s-.3-.1-.6-.2l-.4-.3v-.3zm0 .5v-.4l.4.3c.3.1.5.3.6.5.2.2.3.3.4.5s.2.3.2.5.1.3.1.5 0 .4-.1.5l-.3.3c-.1.1-.2.1-.4 0-.2 0-.3-.1-.5-.2s-.3-.2-.5-.4c-.2-.1-.3-.3-.4-.5l-.3-.6c-.1-.2-.1-.4-.1-.6l.5.3a.9.9 0 0 0 .1.5c.1.2.2.3.3.4s.3.2.4.3c.2.1.3.1.4.1s.2 0 .3-.1.1-.2.1-.4 0-.4-.1-.5c-.1-.2-.2-.3-.3-.5-.1-.1-.3-.3-.5-.4l-.3-.1z"/></g><path d="M289.7 223.9l57 32.7v13.1l-57-32.7z" class="P Q"/><g class="O"><use href="#i"/><path d="M316.1 245.3l.4.2c.2.1.3.2.4.2s.2 0 .3-.1.1-.2.1-.4 0-.3-.1-.5-.1-.3-.2-.4-.2-.2-.4-.3c-.1-.1-.3-.1-.4-.1s-.2 0-.3.1-.1.2-.1.4l-.5-.3c0-.2.1-.4.2-.6.1-.1.2-.2.4-.2s.4.1.7.2c.2.1.5.3.6.5.2.2.3.4.4.7s.2.5.2.8c0 .1 0 .2-.1.3 0 .1-.1.2-.2.2-.1.1-.2.1-.4.1s-.3-.1-.6-.2l-.4-.3v-.3zm0 .5v-.4l.4.3c.3.1.5.3.6.5.2.2.3.3.4.5s.2.3.2.5.1.3.1.5 0 .4-.1.5l-.3.3c-.1.1-.2.1-.4 0-.2 0-.3-.1-.5-.2s-.3-.2-.5-.4c-.2-.1-.3-.3-.4-.5l-.3-.6c-.1-.2-.1-.4-.1-.6l.5.3a.9.9 0 0 0 .1.5c.1.2.2.3.3.4s.3.2.4.3c.2.1.3.1.4.1s.2 0 .3-.1.1-.2.1-.4 0-.4-.1-.5c-.1-.2-.2-.3-.3-.5-.1-.1-.3-.3-.5-.4l-.3-.1z"/></g><path d="M346.7 256.6l56.9 32.7v13.1l-56.9-32.7z" class="P Q"/><g class="O"><path d="M378.1 283.1v.5l-2.6-1.5v-.4l1.3-.9c.2-.1.3-.2.4-.3s.2-.2.2-.3.1-.2.1-.3c0-.2 0-.3-.1-.5s-.1-.3-.2-.4-.2-.2-.4-.3-.3-.1-.5-.1c-.1 0-.2.1-.3.2s-.1.3-.1.4l-.5-.3c0-.3 0-.5.2-.6.1-.2.2-.2.4-.3.2 0 .4.1.7.2s.5.3.7.5.3.4.4.7a1.7 1.7 0 0 1 .1.7c0 .1 0 .3-.1.4 0 .1-.1.2-.2.3s-.1.2-.2.3-.2.2-.3.2l-1.1.7 2.1 1.1zM373 278l.4.2c.2.1.3.2.4.2s.2 0 .3-.1.1-.2.1-.4 0-.3-.1-.5-.1-.3-.2-.4-.2-.2-.4-.3c-.1-.1-.3-.1-.4-.1s-.2 0-.3.1-.1.2-.1.4l-.5-.3c0-.2.1-.4.2-.6.1-.1.2-.2.4-.2s.4.1.7.2c.2.1.5.3.6.5.2.2.3.4.4.7s.2.5.2.8c0 .1 0 .2-.1.3 0 .1-.1.2-.2.2-.1.1-.2.1-.4.1s-.3-.1-.6-.2l-.4-.3v-.3zm0 .5v-.4l.4.3c.3.1.5.3.6.5.2.2.3.3.4.5s.2.3.2.5.1.3.1.5 0 .4-.1.5l-.3.3c-.1.1-.2.1-.4 0s-.3-.1-.5-.2-.3-.2-.5-.4c-.2-.1-.3-.3-.4-.5l-.3-.6c-.1-.2-.1-.4-.1-.6l.5.3a.9.9 0 0 0 .1.5c.1.2.2.3.3.4s.3.2.4.3c.2.1.3.1.4.1s.2 0 .3-.1.1-.2.1-.4 0-.4-.1-.5c-.1-.2-.2-.3-.3-.5-.1-.1-.3-.3-.5-.4l-.3-.1z"/></g><path d="M403.6 289.3l56.9 32.7v13.1l-56.9-32.7z" class="P Q"/><g class="O"><path d="M435 313.5v.7c0 .4 0 .7-.1.9s-.1.4-.3.5c-.1.1-.2.1-.4.1s-.3-.1-.5-.2-.3-.2-.4-.3-.2-.3-.4-.4c-.1-.2-.2-.3-.3-.5s-.1-.4-.2-.7-.1-.5-.1-.8v-.8c0-.4 0-.7.1-.9s.1-.4.3-.5c.1-.1.2-.1.4-.1s.3.1.5.2.3.2.4.3l.4.4c.1.2.2.3.3.5s.1.4.2.7c0 .3.1.6.1.9zm-.6.5v-.9-.6c0-.2-.1-.3-.1-.5 0-.1-.1-.3-.2-.4s-.1-.2-.2-.3-.2-.1-.3-.2-.2-.1-.3-.1-.2 0-.2.1c-.1.1-.1.2-.1.4v.6.9.6c0 .2.1.3.1.5 0 .1.1.3.2.4s.1.2.2.3.2.1.3.2.2.1.3.1.2 0 .2-.1c.1-.1.1-.2.1-.4v-.6zm-2.5-.1v.5l-2.6-1.5v-.4l1.3-.9c.2-.1.3-.2.4-.3s.2-.2.2-.3.1-.2.1-.3c0-.2 0-.3-.1-.5s-.1-.3-.2-.4-.2-.2-.4-.3-.3-.1-.4-.1-.2.1-.3.2-.1.3-.1.4l-.5-.3c0-.3 0-.5.1-.6.1-.2.2-.2.4-.3.2 0 .4.1.7.2s.5.3.7.5.3.4.4.7a1.7 1.7 0 0 1 .1.7c0 .1 0 .3-.1.4 0 .1-.1.2-.2.3s-.1.2-.2.3-.2.2-.3.2l-1.1.7 2.1 1.1z"/></g><path d="M175.9 171.7l56.9 32.6v13.2l-56.9-32.7z" class="R S"/><g class="O"><path d="M208.3 193.9h0v.5h0c-.3-.2-.5-.2-.7-.2s-.3 0-.4.2c-.1.1-.2.3-.2.4 0 .2-.1.4-.1.6v.7c0 .2 0 .4.1.6 0 .2.1.3.2.5s.2.3.2.4l.3.3c.1.1.2.1.3.1s.2 0 .2-.1c.1-.1.1-.1.1-.3v-.4-.4c0-.1-.1-.3-.1-.4-.1-.1-.1-.3-.2-.4l-.3-.3c-.1-.1-.3-.1-.4-.1s-.2.1-.3.1c-.1.1-.1.2-.1.3l-.3-.2c0-.2.1-.4.1-.5l.3-.3c.1 0 .2-.1.4 0 .1 0 .3.1.4.2.2.1.4.3.5.4.1.2.3.4.4.6s.2.4.2.6.1.4.1.6 0 .4-.1.6-.1.3-.2.4-.2.1-.4.1-.3-.1-.5-.2-.4-.3-.6-.5-.3-.4-.4-.6-.2-.5-.2-.7c-.1-.2-.1-.5-.1-.7v-.3c0-.3 0-.6.1-.9s.2-.5.3-.7.3-.3.6-.3a2.7 2.7 0 0 1 .8.3zm-2.5-1.4l-1.7 4.1-.4-.3 1.7-4.1.4.3zm-3.1 2.2v-4.2l.5.3v4.9l-.5-.3v-.7zm-2-2.2h0c0-.3 0-.6.1-.7.1-.2.1-.3.2-.4s.2-.1.4-.1c.1 0 .3.1.5.2s.4.2.5.4.3.3.4.5.2.4.2.7c.1.2.1.5.1.8v.3c0 .2-.1.4-.1.6-.1.2-.1.3-.2.4s-.2.1-.4.1c-.1 0-.3-.1-.5-.2s-.3-.2-.5-.4c-.1-.2-.3-.4-.4-.6s-.2-.4-.2-.7c-.1-.4-.1-.6-.1-.9zm.5.3h0v.6c0 .2.1.3.1.5.1.2.1.3.2.4s.2.2.4.3.3.1.4.1.2-.1.3-.2.1-.2.2-.4v-.8c0-.1-.1-.3-.1-.4s-.1-.3-.2-.4-.1-.2-.2-.3l-.3-.3c-.1-.1-.3-.1-.4-.1s-.2.1-.2.1c-.1.1-.1.2-.1.3-.1.2-.1.4-.1.6zm-2.2.1l.8-2.6.6.3-1.2 3.3c0 .1-.1.1-.1.2s-.1.1-.2.2-.2.1-.3.1-.2 0-.4-.1c0 0-.1-.1-.2-.1s-.1-.1-.1-.1v-.5h.1.1c.1.1.2.1.3.1s.1 0 .2-.1c.1 0 .1-.1.1-.3l.3-.4zm-.6-3.5l.8 3.1.1.7h-.4l-1.1-4.2.6.4zm-1.6-.1v.5l-2.2-1.3v-.5l2.2 1.3zm-2.1-3.2v4.7l-.5-.3v-4.7l.5.3zm2.6 1.5v4.7l-.5-.3v-4.7l.5.3zm-3.8-2.2l-1.7 4.1-.4-.3 1.7-4.1.4.3zm-4.4-.6v2.7l-.5-.3v-3.5l.5.3v.8zm-.1.8l-.2-.1c0-.2 0-.4.1-.6s.1-.3.3-.4c.1-.1.2-.1.4-.1s.3.1.5.2c.1.1.3.2.4.3s.2.2.3.4c.1.1.1.3.2.5 0 .2.1.4.1.6v2.3l-.5-.3v-2.3c0-.2 0-.3-.1-.5 0-.1-.1-.3-.2-.4l-.3-.3c-.1-.1-.2-.1-.3-.1s-.2 0-.3.1-.1.2-.2.3c-.2.1-.2.3-.2.4zm-3.8-2h0c0-.3 0-.5.1-.7s.2-.3.3-.4.3-.1.4-.1c.2 0 .4.1.6.2s.4.3.6.5.3.4.4.6.2.5.3.7.1.5.1.8v.1c0 .2 0 .5-.1.6-.1.2-.2.3-.3.4s-.3.1-.4.1c-.2 0-.4-.1-.6-.2s-.4-.3-.6-.5-.3-.4-.4-.6l-.3-.7c-.1-.2-.1-.5-.1-.8zm.5.3h0c0 .2 0 .4.1.6 0 .2.1.3.2.5s.2.3.3.4.2.2.4.3c.1.1.3.1.4.1s.2 0 .3-.1.1-.2.2-.3c0-.1.1-.3.1-.5v-.1c0-.2 0-.3-.1-.5 0-.2-.1-.3-.2-.5s-.2-.3-.3-.4-.2-.2-.4-.3c-.1-.1-.3-.1-.4-.1s-.2.1-.3.1c-.1.1-.1.2-.2.3s-.1.3-.1.5zm-1.5-.6l.5.3c0 .3-.1.5-.2.7s-.3.3-.5.3-.5-.1-.8-.3c-.2-.1-.5-.3-.6-.5-.2-.2-.4-.5-.5-.7l-.3-.9c-.1-.3-.1-.6-.1-1v-.5c0-.3 0-.6.1-.8s.2-.4.3-.5.3-.2.5-.1c.2 0 .4.1.7.2.3.2.6.4.8.6.2.3.4.5.5.8s.2.6.2.9l-.5-.3c0-.2-.1-.4-.1-.6-.1-.2-.2-.4-.3-.5-.1-.2-.3-.3-.5-.4s-.3-.2-.5-.2c-.1 0-.2 0-.3.1s-.2.2-.2.4-.1.4-.1.6v.5a1.7 1.7 0 0 0 .1.7c0 .2.1.4.2.6s.2.4.3.5c.1.2.3.3.5.4s.4.2.5.2.2-.1.3-.2c-.1 0-.1-.1 0-.3z"/></g><path d="M232.8 204.3l56.9 32.7v13.2l-56.9-32.7z" class="R S"/><g class="O"><path d="M264.1 228.5v.7c0 .4 0 .7-.1.9s-.1.4-.3.5c-.1.1-.2.1-.4.1s-.3-.1-.5-.2-.3-.2-.4-.3-.2-.3-.4-.4c-.1-.2-.2-.3-.3-.5s-.1-.4-.2-.7c0-.3-.1-.5-.1-.8v-.8c0-.4 0-.7.1-.9s.1-.4.3-.5c.1-.1.2-.1.4-.1s.3.1.5.2.3.2.4.3l.4.4c.1.2.2.3.3.5s.1.4.2.7.1.6.1.9zm-.5.5v-.9-.6c0-.2 0-.3-.1-.5 0-.1-.1-.3-.2-.4s-.1-.2-.2-.3-.2-.1-.3-.2-.2-.1-.3-.1-.2 0-.2.1c-.1.1-.1.2-.1.4v.6.9.6c0 .2.1.3.1.5 0 .1.1.3.2.4s.1.2.2.3.2.2.3.2c.1.1.2.1.3.1s.2 0 .2-.1c.1-.1.1-.2.1-.4-.1-.1 0-.3 0-.6zm-3.6-4.8v4.7l-.5-.3v-4l-1-.2v-.5l1.5.3h0z"/></g><path d="M289.7 237l57 32.7v13.2l-57-32.7z" class="R S"/><g class="O"><use href="#j"/><path d="M316.9 256.9v4.7l-.5-.3v-4l-1-.2v-.5l1.5.3h0z"/></g><path d="M346.7 269.7l56.9 32.7v13.1l-56.9-32.6z" class="R S"/><g class="O"><path d="M377.9 293.9v.7c0 .4 0 .7-.1.9s-.1.4-.3.5c-.1.1-.2.1-.4.1s-.3-.1-.5-.2-.3-.2-.4-.3-.2-.3-.4-.4c-.1-.2-.2-.3-.3-.5s-.1-.4-.2-.7c0-.3-.1-.5-.1-.8v-.7c0-.4 0-.7.1-.9s.1-.4.3-.5c.1-.1.2-.1.4-.1s.3.1.5.2.3.2.4.3l.4.4c.1.2.2.3.3.5s.1.4.2.7c.1.2.1.5.1.8zm-.5.5v-.9-.6c0-.2-.1-.3-.1-.5 0-.1-.1-.3-.2-.4s-.1-.2-.2-.3-.2-.1-.3-.2-.2-.1-.3-.1-.2 0-.2.1c-.1.1-.1.2-.1.4s-.1.4-.1.6v.9.6c0 .2.1.3.1.5 0 .1.1.3.2.4s.1.2.2.3.2.1.3.2.2.1.3.1.2 0 .2-.1c.1-.1.1-.2.1-.4.1-.1.1-.4.1-.6zm-3.5-4.8v4.7l-.5-.3v-4l-1-.2v-.5l1.5.3h0z"/></g><path d="M403.6 302.4l56.9 32.7v13.1l-56.9-32.7z" class="R S"/><g class="O"><path d="M434.9 326.6v.7c0 .4 0 .7-.1.9s-.1.4-.3.5c-.1.1-.2.1-.4.1s-.3-.1-.5-.2-.3-.2-.4-.3-.2-.3-.4-.4c-.1-.2-.2-.3-.3-.5s-.1-.4-.2-.7c0-.3-.1-.5-.1-.8v-.7c0-.4 0-.7.1-.9s.1-.4.3-.5c.1-.1.2-.1.4-.1s.3.1.5.2.3.2.4.3l.4.4c.1.2.2.3.3.5s.1.4.2.7c.1.2.1.5.1.8zm-.5.5v-.9-.6c0-.2-.1-.3-.1-.5 0-.1-.1-.3-.2-.4s-.1-.2-.2-.3-.2-.1-.3-.2-.2-.1-.3-.1-.2 0-.2.1c-.1.1-.1.2-.1.4s-.1.4-.1.6v.9.6c0 .2.1.3.1.5 0 .1.1.3.2.4s.1.2.2.3.2.1.3.2.2.1.3.1.2 0 .2-.1c.1-.1.1-.2.1-.4.1-.1.1-.3.1-.6zm-3.3-4.6h0v.5h0c-.3-.2-.5-.2-.7-.2s-.3 0-.4.2c-.1.1-.2.3-.2.4 0 .2-.1.4-.1.6v.7c0 .2 0 .4.1.6 0 .2.1.3.2.5s.2.3.3.4l.3.3c.1.1.2.1.3.1s.2 0 .2-.1c.1-.1.1-.1.1-.3 0-.1.1-.2.1-.4v-.4c0-.1-.1-.3-.1-.4-.1-.1-.1-.3-.2-.4l-.3-.3c-.1-.1-.3-.1-.4-.1s-.2.1-.3.1c-.1.1-.1.2-.1.3l-.3-.2c0-.2.1-.4.1-.5l.3-.3c.1 0 .2-.1.4 0 .1 0 .3.1.4.2.2.1.4.3.5.4.1.2.3.4.4.6s.2.4.2.6.1.4.1.6 0 .4-.1.6-.1.3-.2.4-.2.1-.4.1-.3-.1-.5-.2-.4-.3-.6-.5-.3-.4-.4-.6-.2-.5-.2-.7c-.1-.2-.1-.5-.1-.7v-.4c0-.3 0-.6.1-.9s.2-.5.3-.7.3-.3.6-.3c-.1 0 .2.1.6.4z"/></g><path d="M175.9 184.8l56.9 32.7v13.1l-56.9-32.7z" class="P Q"/><g class="O"><path d="M208.3 207h0v.5h0c-.3-.2-.5-.2-.7-.2s-.3 0-.4.2c-.1.1-.2.3-.2.4 0 .2-.1.4-.1.6v.7c0 .2 0 .4.1.6 0 .2.1.3.2.5s.2.3.2.4l.3.3c.1.1.2.1.3.1s.2 0 .2-.1c.1-.1.1-.1.1-.3v-.4-.4c0-.1-.1-.3-.1-.4-.1-.1-.1-.3-.2-.4l-.3-.3c-.1-.1-.3-.1-.4-.1s-.2.1-.3.1c-.1.1-.1.2-.1.3l-.3-.2c0-.2.1-.4.1-.5l.3-.3c.1 0 .2-.1.4 0 .1 0 .3.1.4.2.2.1.4.3.5.4.1.2.3.4.4.6s.2.4.2.6.1.4.1.6 0 .4-.1.6-.1.3-.2.4-.2.1-.4.1-.3-.1-.5-.2-.4-.3-.6-.5-.3-.4-.4-.6-.2-.5-.2-.7c-.1-.2-.1-.5-.1-.7v-.3c0-.3 0-.6.1-.9s.2-.5.3-.7.3-.3.6-.3a2.7 2.7 0 0 1 .8.3zm-2.5-1.4l-1.7 4.1-.4-.3 1.7-4.1.4.3zm-3.1 2.2v-4.2l.5.3v4.9l-.5-.3v-.7zm-2-2.1h0c0-.3 0-.6.1-.7.1-.2.1-.3.2-.4s.2-.1.4-.1c.1 0 .3.1.5.2s.4.2.5.4.3.3.4.5.2.4.2.7c.1.2.1.5.1.8v.3c0 .2-.1.4-.1.6-.1.2-.1.3-.2.4s-.2.1-.4.1c-.1 0-.3-.1-.5-.2s-.3-.2-.5-.4c-.1-.2-.3-.4-.4-.6s-.2-.4-.2-.7c-.1-.4-.1-.7-.1-.9zm.5.2h0v.6c0 .2.1.3.1.5.1.2.1.3.2.4s.2.2.4.3.3.1.4.1.2-.1.3-.2.1-.2.2-.4v-.8c0-.1-.1-.3-.1-.4s-.1-.3-.2-.4-.1-.2-.2-.3l-.3-.3c-.1-.1-.3-.1-.4-.1s-.2.1-.2.1c-.1.1-.1.2-.1.3-.1.3-.1.4-.1.6zm-2.2.1l.8-2.6.6.3-1.2 3.3c0 .1-.1.1-.1.2s-.1.1-.2.2-.2.1-.3.1-.2 0-.4-.1c0 0-.1-.1-.2-.1s-.1-.1-.1-.1v-.5h.1.1c.1.1.2.1.3.1s.1 0 .2-.1c.1 0 .1-.1.1-.3l.3-.4zm-.6-3.4l.8 3.1.1.7h-.4l-1.1-4.2.6.4zm-1.6-.1v.5l-2.2-1.3v-.5l2.2 1.3zm-2.1-3.2v4.7l-.5-.3V199l.5.3zm2.6 1.4v4.7l-.5-.3v-4.7l.5.3zm-3.8-2.1l-1.7 4.1-.4-.3 1.7-4.1.4.3zm-4.4-.6v2.7l-.5-.3v-3.5l.5.3v.8zm-.1.8l-.2-.1c0-.2 0-.4.1-.6s.1-.3.3-.4c.1-.1.2-.1.4-.1s.3.1.5.2c.1.1.3.2.4.3s.2.2.3.4c.1.1.1.3.2.5 0 .2.1.4.1.6v2.3l-.5-.3v-2.3c0-.2 0-.3-.1-.5 0-.1-.1-.3-.2-.4l-.3-.3c-.1-.1-.2-.1-.3-.1s-.2 0-.3.1-.1.2-.2.3c-.2.1-.2.2-.2.4zm-3.8-2h0c0-.3 0-.5.1-.7s.2-.3.3-.4.3-.1.4-.1c.2 0 .4.1.6.2s.4.3.6.5.3.4.4.6.2.5.3.7a1.7 1.7 0 0 1 .1.7v.1c0 .2 0 .5-.1.6-.1.2-.2.3-.3.4s-.3.1-.4.1c-.2 0-.4-.1-.6-.2s-.4-.3-.6-.5-.3-.4-.4-.6l-.3-.7c-.1-.2-.1-.5-.1-.7zm.5.2h0c0 .2 0 .4.1.6 0 .2.1.3.2.5s.2.3.3.4.2.2.4.3c.1.1.3.1.4.1s.2 0 .3-.1.1-.2.2-.3c0-.1.1-.3.1-.5h0c0-.2 0-.3-.1-.5 0-.2-.1-.3-.2-.5s-.2-.3-.3-.4-.2-.2-.4-.3c-.1-.1-.3-.1-.4-.1s-.2.1-.3.1c-.1.1-.1.2-.2.3s-.1.2-.1.4zm-1.5-.6l.5.3c0 .3-.1.5-.2.7s-.3.3-.5.3-.5-.1-.8-.3c-.2-.1-.5-.3-.6-.5-.2-.2-.4-.5-.5-.7l-.3-.9c-.1-.3-.1-.6-.1-1v-.5c0-.3 0-.6.1-.8s.2-.4.3-.5.3-.2.5-.1c.2 0 .4.1.7.2.3.2.6.4.8.6.2.3.4.5.5.8s.2.6.2.9l-.5-.3c0-.2-.1-.4-.1-.6-.1-.2-.2-.4-.3-.5-.1-.2-.3-.3-.5-.4s-.3-.2-.5-.2c-.1 0-.2 0-.3.1s-.2.2-.2.4-.1.4-.1.6v.5a1.7 1.7 0 0 0 .1.7c0 .2.1.4.2.6s.2.4.3.5c.1.2.3.3.5.4s.4.2.5.2.2-.1.3-.2c-.1 0-.1-.1 0-.3z"/></g><path d="M232.8 217.5l56.9 32.7v13.1l-56.9-32.7z" class="P Q"/><g class="O"><path d="M264.2 243.9v.5l-2.6-1.5v-.4l1.3-.9c.2-.1.3-.2.4-.3s.2-.2.2-.3.1-.2.1-.3c0-.2 0-.3-.1-.5s-.1-.3-.2-.4-.2-.2-.4-.3-.3-.1-.4-.1-.2.1-.3.2-.1.3-.1.4l-.5-.3c0-.3 0-.5.1-.6.1-.2.2-.2.4-.3.2 0 .4.1.7.2s.5.3.7.5.3.4.4.7a1.7 1.7 0 0 1 .1.7c0 .1 0 .3-.1.4 0 .1-.1.2-.2.3s-.1.2-.2.3-.2.2-.3.2l-1.1.7 2.1 1.1zm-5.1-5l.4.2c.2.1.3.2.4.2s.2 0 .3-.1.1-.2.1-.4 0-.3-.1-.5-.1-.3-.2-.4-.2-.2-.4-.3c-.1-.1-.3-.1-.4-.1s-.2 0-.3.1-.1.2-.1.4l-.5-.3c0-.2.1-.4.2-.6.1-.1.2-.2.4-.2s.4.1.7.2c.2.1.5.3.6.5.2.2.3.4.4.7s.2.5.2.8c0 .1 0 .2-.1.3 0 .1-.1.2-.2.2-.1.1-.2.1-.4.1s-.3-.1-.6-.2l-.4-.3v-.3zm0 .5v-.4l.4.3c.3.1.5.3.6.5.2.2.3.3.4.5s.2.3.2.5.1.3.1.5 0 .4-.1.5l-.3.3c-.1.1-.2.1-.4 0-.2 0-.3-.1-.5-.2s-.3-.2-.5-.4c-.2-.1-.3-.3-.4-.5l-.3-.6c-.1-.2-.1-.4-.1-.6l.5.3a.9.9 0 0 0 .1.5c.1.2.2.3.3.4s.3.2.4.3c.2.1.3.1.4.1s.2 0 .3-.1.1-.2.1-.4 0-.4-.1-.5c-.1-.2-.2-.3-.3-.5-.1-.1-.3-.3-.5-.4l-.3-.1z"/></g><path d="M289.7 250.2l57 32.7V296l-57-32.7z" class="P Q"/><g class="O"><path d="M321.2 276.6v.5l-2.6-1.5v-.4l1.3-.9c.2-.1.3-.2.4-.3s.2-.2.2-.3.1-.2.1-.3c0-.2 0-.3-.1-.5s-.1-.3-.2-.4-.2-.2-.4-.3-.3-.1-.5-.1c-.1 0-.2.1-.3.2s-.1.3-.1.4l-.5-.3c0-.3.1-.5.1-.6.1-.2.2-.2.4-.3.2 0 .4.1.7.2s.5.3.7.5.3.4.4.7a1.7 1.7 0 0 1 .1.7c0 .1 0 .3-.1.4 0 .1-.1.2-.2.3s-.1.2-.2.3-.2.2-.3.2l-1.1.7 2.2 1.1zm-5.1-5l.4.2c.2.1.3.2.4.2s.2 0 .3-.1.1-.2.1-.4 0-.3-.1-.5-.1-.3-.2-.4-.2-.2-.4-.3c-.1-.1-.3-.1-.4-.1s-.2 0-.3.1-.1.2-.1.4l-.5-.3c0-.2.1-.4.2-.6.1-.1.2-.2.4-.2s.4.1.7.2c.2.1.5.3.6.5.2.2.3.4.4.7s.2.5.2.8c0 .1 0 .2-.1.3 0 .1-.1.2-.2.2-.1.1-.2.1-.4.1s-.3-.1-.6-.2l-.4-.3v-.3zm0 .4v-.4l.4.3c.3.1.5.3.6.5.2.2.3.3.4.5s.2.3.2.5.1.3.1.5 0 .4-.1.5l-.3.3c-.1.1-.2.1-.4 0-.2 0-.3-.1-.5-.2s-.3-.2-.5-.4c-.2-.1-.3-.3-.4-.5l-.3-.6c-.1-.2-.1-.4-.1-.6l.5.3a.9.9 0 0 0 .1.5c.1.2.2.3.3.4s.3.2.4.3c.2.1.3.1.4.1s.2 0 .3-.1.1-.2.1-.4 0-.4-.1-.5c-.1-.2-.2-.3-.3-.5-.1-.1-.3-.3-.5-.4l-.3-.1z"/></g><path d="M346.7 282.9l56.9 32.6v13.2L346.7 296z" class="P Q"/><g class="O"><path d="M378.1 309.3v.5l-2.6-1.5v-.4l1.3-.9c.2-.1.3-.2.4-.3s.2-.2.2-.3.1-.2.1-.3c0-.2 0-.3-.1-.5s-.1-.3-.2-.4-.2-.2-.4-.3-.3-.1-.5-.1c-.1 0-.2.1-.3.2s-.1.3-.1.4l-.5-.3c0-.3 0-.5.2-.6.1-.2.2-.2.4-.3.2 0 .4.1.7.2s.5.3.7.5.3.4.4.7a1.7 1.7 0 0 1 .1.7c0 .1 0 .3-.1.4 0 .1-.1.2-.2.3s-.1.2-.2.3-.2.2-.3.2l-1.1.7 2.1 1.1zm-5.1-5.1l.4.2c.2.1.3.2.4.2s.2 0 .3-.1.1-.2.1-.4 0-.3-.1-.5-.1-.3-.2-.4-.2-.2-.4-.3c-.1-.1-.3-.1-.4-.1s-.2 0-.3.1-.1.2-.1.4l-.5-.3c0-.2.1-.4.2-.6.1-.1.2-.2.4-.2s.4.1.7.2c.2.1.5.3.6.5.2.2.3.4.4.7s.2.5.2.8c0 .1 0 .2-.1.3 0 .1-.1.2-.2.2-.1.1-.2.1-.4.1s-.3-.1-.6-.2l-.4-.3v-.3zm0 .5v-.4l.4.3c.3.1.5.3.6.5.2.2.3.3.4.5s.2.3.2.5.1.3.1.5 0 .4-.1.5l-.3.3c-.1.1-.2.1-.4 0-.2 0-.3-.1-.5-.2s-.3-.2-.5-.4c-.2-.1-.3-.3-.4-.5l-.3-.6c-.1-.2-.1-.4-.1-.6l.5.3a.9.9 0 0 0 .1.5c.1.2.2.3.3.4s.3.2.4.3c.2.1.3.1.4.1s.2 0 .3-.1.1-.2.1-.4 0-.4-.1-.5c-.1-.2-.2-.3-.3-.5-.1-.1-.3-.3-.5-.4l-.3-.1z"/></g><path d="M403.6 315.5l56.9 32.7v13.2l-56.9-32.7z" class="P Q"/><g class="O"><path d="M435 339.7v.7c0 .4 0 .7-.1.9s-.1.4-.3.5c-.1.1-.2.1-.4.1s-.3-.1-.5-.2-.3-.2-.4-.3-.2-.3-.4-.4c-.1-.2-.2-.3-.3-.5s-.1-.4-.2-.7c0-.3-.1-.5-.1-.8v-.7c0-.4 0-.7.1-.9s.1-.4.3-.5c.1-.1.2-.1.4-.1s.3.1.5.2.3.2.4.3l.4.4c.1.2.2.3.3.5s.1.4.2.7c0 .3.1.5.1.8zm-.6.6v-.9-.6c0-.2-.1-.3-.1-.5 0-.1-.1-.3-.2-.4s-.1-.2-.2-.3-.2-.1-.3-.2-.2-.1-.3-.1-.2 0-.2.1c-.1.1-.1.2-.1.4v.6.9.6c0 .2.1.3.1.5 0 .1.1.3.2.4s.1.2.2.3.2.1.3.2.2.1.3.1.2 0 .2-.1c.1-.1.1-.2.1-.4v-.6zm-2.5-.1v.5l-2.6-1.5v-.4l1.3-.9c.2-.1.3-.2.4-.3s.2-.2.2-.3.1-.2.1-.3c0-.2 0-.3-.1-.5s-.1-.3-.2-.4-.2-.2-.4-.3-.3-.1-.4-.1-.2.1-.3.2-.1.3-.1.4l-.5-.3c0-.3 0-.5.1-.6.1-.2.2-.2.4-.3.2 0 .4.1.7.2s.5.3.7.5.3.4.4.7a1.7 1.7 0 0 1 .1.7c0 .1 0 .3-.1.4 0 .1-.1.2-.2.3s-.1.2-.2.3-.2.2-.3.2l-1.1.7 2.1 1.1z"/></g><path d="M175.9 197.9l56.9 32.7v13.1L175.9 211z" class="R S"/><g class="O"><path d="M208.3 220.2h0v.5h0c-.3-.2-.5-.2-.7-.2s-.3 0-.4.2c-.1.1-.2.3-.2.4 0 .2-.1.4-.1.6v.7c0 .2 0 .4.1.6 0 .2.1.3.2.5s.2.3.2.4l.3.3c.1.1.2.1.3.1s.2 0 .2-.1c.1-.1.1-.1.1-.3v-.4-.4c0-.1-.1-.3-.1-.4-.1-.1-.1-.3-.2-.4l-.3-.3c-.1-.1-.3-.1-.4-.1s-.2.1-.3.1c-.1.1-.1.2-.1.3l-.3-.2c0-.2.1-.4.1-.5l.3-.3c.1 0 .2-.1.4 0 .1 0 .3.1.4.2.2.1.4.3.5.4.1.2.3.4.4.6s.2.4.2.6.1.4.1.6 0 .4-.1.6-.1.3-.2.4-.2.1-.4.1-.3-.1-.5-.2-.4-.3-.6-.5-.3-.4-.4-.6-.2-.5-.2-.7c-.1-.2-.1-.5-.1-.7v-.3c0-.3 0-.6.1-.9s.2-.5.3-.7.3-.3.6-.3c.1-.1.4.1.8.3zm-2.5-1.4l-1.7 4.1-.4-.3 1.7-4.1.4.3zm-3.1 2.2v-4.2l.5.3v4.9l-.5-.3v-.7zm-2-2.2h0c0-.3 0-.6.1-.7.1-.2.1-.3.2-.4s.2-.1.4-.1c.1 0 .3.1.5.2s.4.2.5.4.3.3.4.5.2.4.2.7c.1.2.1.5.1.8v.3c0 .2-.1.4-.1.6-.1.2-.1.3-.2.4s-.2.1-.4.1c-.1 0-.3-.1-.5-.2s-.3-.2-.5-.4c-.1-.2-.3-.4-.4-.6s-.2-.4-.2-.7c-.1-.4-.1-.7-.1-.9zm.5.2h0v.6c0 .2.1.3.1.5.1.2.1.3.2.4s.2.2.4.3.3.1.4.1.2-.1.3-.2.1-.2.2-.4v-.8c0-.1-.1-.3-.1-.4s-.1-.3-.2-.4-.1-.2-.2-.3l-.3-.3c-.1-.1-.3-.1-.4-.1s-.2.1-.2.1c-.1.1-.1.2-.1.3-.1.3-.1.4-.1.6zm-2.2.2l.8-2.6.6.3-1.2 3.3c0 .1-.1.1-.1.2s-.1.1-.2.2-.2.1-.3.1-.2 0-.4-.1c0 0-.1-.1-.2-.1s-.1-.1-.1-.1v-.5h.1.1c.1.1.2.1.3.1s.1 0 .2-.1c.1 0 .1-.1.1-.3l.3-.4zm-.6-3.5l.8 3.1.1.7h-.4l-1.1-4.2.6.4zm-1.6-.1v.5l-2.2-1.3v-.5l2.2 1.3zm-2.1-3.2v4.7l-.5-.3v-4.7l.5.3zm2.6 1.5v4.7l-.5-.3v-4.7l.5.3zm-3.8-2.2l-1.7 4.1-.4-.3 1.7-4.1.4.3zm-4.4-.6v2.7l-.5-.3V210l.5.3v.8zm-.1.8l-.2-.1c0-.2 0-.4.1-.6s.1-.3.3-.4c.1-.1.2-.1.4-.1s.3.1.5.2c.1.1.3.2.4.3s.2.2.3.4c.1.1.1.3.2.5 0 .2.1.4.1.6v2.3l-.5-.3v-2.3c0-.2 0-.3-.1-.5 0-.1-.1-.3-.2-.4l-.3-.3c-.1-.1-.2-.1-.3-.1s-.2 0-.3.1-.1.2-.2.3c-.2.1-.2.2-.2.4zm-3.8-2h0c0-.3 0-.5.1-.7s.2-.3.3-.4.3-.1.4-.1c.2 0 .4.1.6.2s.4.3.6.5.3.4.4.6.2.5.3.7a1.7 1.7 0 0 1 .1.7v.1c0 .2 0 .5-.1.6-.1.2-.2.3-.3.4s-.3.1-.4.1c-.2 0-.4-.1-.6-.2s-.4-.3-.6-.5-.3-.4-.4-.6l-.3-.7c-.1-.2-.1-.4-.1-.7zm.5.2h0c0 .2 0 .4.1.6 0 .2.1.3.2.5s.2.3.3.4.2.2.4.3c.1.1.3.1.4.1s.2 0 .3-.1.1-.2.2-.3c0-.1.1-.3.1-.5v-.1c0-.2 0-.3-.1-.5 0-.2-.1-.3-.2-.5s-.2-.3-.3-.4-.2-.2-.4-.3c-.1-.1-.3-.1-.4-.1s-.2.1-.3.1c-.1.1-.1.2-.2.3-.1.2-.1.4-.1.5zm-1.5-.6l.5.3c0 .3-.1.5-.2.7s-.3.3-.5.3-.5-.1-.8-.3c-.2-.1-.5-.3-.6-.5-.2-.2-.4-.5-.5-.7l-.3-.9c-.1-.3-.1-.6-.1-1v-.5c0-.3 0-.6.1-.8s.2-.4.3-.5.3-.2.5-.1c.2 0 .4.1.7.2.3.2.6.4.8.6.2.3.4.5.5.8s.2.6.2.9l-.5-.3c0-.2-.1-.4-.1-.6-.1-.2-.2-.4-.3-.5-.1-.2-.3-.3-.5-.4s-.3-.2-.5-.2c-.1 0-.2 0-.3.1s-.2.2-.2.4-.1.4-.1.6v.5a1.7 1.7 0 0 0 .1.7c0 .2.1.4.2.6s.2.4.3.5c.1.2.3.3.5.4s.4.2.5.2.2-.1.3-.2c-.1.1-.1-.1 0-.3z"/></g><path d="M232.8 230.6l56.9 32.7v13.1l-56.9-32.7z" class="R S"/><g class="O"><path d="M264.1 254.7v.7c0 .4 0 .7-.1.9s-.1.4-.3.5c-.1.1-.2.1-.4.1s-.3-.1-.5-.2-.3-.2-.4-.3-.2-.3-.4-.4c-.1-.2-.2-.3-.3-.5s-.1-.4-.2-.7c0-.3-.1-.5-.1-.8v-.7c0-.4 0-.7.1-.9s.1-.4.3-.5c.1-.1.2-.1.4-.1s.3.1.5.2.3.2.4.3l.4.4c.1.2.2.3.3.5s.1.4.2.7a2.2 2.2 0 0 1 .1.8zm-.5.6v-.9-.6c0-.2 0-.3-.1-.5 0-.1-.1-.3-.2-.4s-.1-.2-.2-.3-.2-.1-.3-.2-.2-.1-.3-.1-.2 0-.2.1c-.1.1-.1.2-.1.4v.6.9.6c0 .2.1.3.1.5 0 .1.1.3.2.4s.1.2.2.3.2.1.3.2.2.1.3.1.2 0 .2-.1c.1-.1.1-.2.1-.4-.1-.2 0-.4 0-.6zm-3.6-4.9v4.7l-.5-.3v-4l-1-.2v-.5l1.5.3h0z"/></g><path d="M289.7 263.3l57 32.7v13.1l-57-32.7z" class="R S"/><g class="O"><path d="M321 287.4v.7c0 .4 0 .7-.1.9s-.1.4-.3.5c-.1.1-.2.1-.4.1s-.3-.1-.5-.2-.3-.2-.4-.3-.2-.3-.4-.4c-.1-.2-.2-.3-.3-.5s-.1-.4-.2-.7-.1-.5-.1-.8v-.7c0-.4 0-.7.1-.9s.1-.4.3-.5c.1-.1.2-.1.4-.1s.3.1.5.2.3.2.4.3l.4.4c.1.2.2.3.3.5s.1.4.2.7a2.2 2.2 0 0 1 .1.8zm-.5.5v-.9-.6c0-.2-.1-.3-.1-.5 0-.1-.1-.3-.2-.4s-.1-.2-.2-.3-.2-.1-.3-.2-.2-.1-.3-.1-.2 0-.2.1c-.1.1-.1.2-.1.4s-.1.4-.1.6v.9.6c0 .2.1.3.1.5 0 .1.1.3.2.4s.1.2.2.3.2.1.3.2.2.1.3.1.2 0 .2-.1c.1-.1.1-.2.1-.4.1-.1.1-.3.1-.6zm-3.6-4.8v4.7l-.5-.3v-4l-1-.2v-.5l1.5.3h0z"/></g><path d="M346.7 296l56.9 32.7v13.1l-56.9-32.7z" class="R S"/><g class="O"><path d="M377.9 320.1v.7c0 .4 0 .7-.1.9s-.1.4-.3.5c-.1.1-.2.1-.4.1s-.3-.1-.5-.2-.3-.2-.4-.3-.2-.3-.4-.4c-.1-.2-.2-.3-.3-.5s-.1-.4-.2-.7c0-.3-.1-.5-.1-.8v-.7c0-.4 0-.7.1-.9s.1-.4.3-.5c.1-.1.2-.1.4-.1s.3.1.5.2.3.2.4.3l.4.4c.1.2.2.3.3.5s.1.4.2.7c.1.2.1.5.1.8zm-.5.5v-.9-.6c0-.2-.1-.3-.1-.5 0-.1-.1-.3-.2-.4s-.1-.2-.2-.3-.2-.1-.3-.2-.2-.1-.3-.1-.2 0-.2.1c-.1.1-.1.2-.1.4s-.1.4-.1.6v.9.6c0 .2.1.3.1.5 0 .1.1.3.2.4s.1.2.2.3.2.1.3.2.2.1.3.1.2 0 .2-.1c.1-.1.1-.2.1-.4.1-.1.1-.3.1-.6zm-3.5-4.8v4.7l-.5-.3v-4l-1-.2v-.5l1.5.3h0z"/></g><path d="M403.6 328.7l56.9 32.7v13.1l-56.9-32.7z" class="R S"/><g class="O"><path d="M434.9 352.8v.7c0 .4 0 .7-.1.9s-.1.4-.3.5c-.1.1-.2.1-.4.1s-.3-.1-.5-.2-.3-.2-.4-.3-.2-.3-.4-.4c-.1-.2-.2-.3-.3-.5s-.1-.4-.2-.7c0-.3-.1-.5-.1-.8v-.7c0-.4 0-.7.1-.9s.1-.4.3-.5c.1-.1.2-.1.4-.1s.3.1.5.2.3.2.4.3l.4.4c.1.2.2.3.3.5s.1.4.2.7a2.2 2.2 0 0 1 .1.8zm-.5.6v-.9-.6c0-.2-.1-.3-.1-.5 0-.1-.1-.3-.2-.4s-.1-.2-.2-.3-.2-.1-.3-.2-.2-.1-.3-.1-.2 0-.2.1c-.1.1-.1.2-.1.4s-.1.4-.1.6v.9.6c0 .2.1.3.1.5 0 .1.1.3.2.4s.1.2.2.3.2.1.3.2.2.1.3.1.2 0 .2-.1c.1-.1.1-.2.1-.4.1-.2.1-.4.1-.6zm-3.3-4.7h0v.5h0c-.3-.2-.5-.2-.7-.2s-.3 0-.4.2c-.1.1-.2.3-.2.4 0 .2-.1.4-.1.6v.7c0 .2 0 .4.1.6 0 .2.1.4.2.5.1.2.2.3.3.4l.3.3c.1.1.2.1.3.1s.2 0 .2-.1c.1-.1.1-.1.1-.3 0-.1.1-.2.1-.4v-.4c0-.1-.1-.3-.1-.4-.1-.1-.1-.3-.2-.4l-.3-.3c-.1-.1-.3-.1-.4-.1s-.2.1-.3.1c-.1.1-.1.2-.1.3l-.3-.2c0-.2.1-.4.1-.5l.3-.3c.1 0 .2-.1.4 0 .1 0 .3.1.4.2.2.1.4.3.5.4.1.2.3.4.4.6s.2.4.2.6.1.4.1.6 0 .4-.1.6-.1.3-.2.4-.2.1-.4.1-.3-.1-.5-.2-.4-.3-.6-.5-.3-.4-.4-.6-.2-.5-.2-.7c-.1-.2-.1-.5-.1-.7v-.3c0-.3 0-.6.1-.9s.2-.5.3-.7.3-.3.6-.3c-.1 0 .2.1.6.3z"/></g><path d="M175.9 211l56.9 32.7v13.2l-56.9-32.7z" class="P Q"/><g class="O"><path d="M208.3 233.3h0v.5h0c-.3-.2-.5-.2-.7-.2s-.3 0-.4.2c-.1.1-.2.3-.2.4 0 .2-.1.4-.1.6v.7c0 .2 0 .4.1.6 0 .2.1.3.2.5s.2.3.2.4l.3.3c.1.1.2.1.3.1s.2 0 .2-.1c.1-.1.1-.1.1-.3v-.4-.4c0-.1-.1-.3-.1-.4-.1-.1-.1-.3-.2-.4l-.3-.3c-.1-.1-.3-.1-.4-.1s-.2.1-.3.1c-.1.1-.1.2-.1.3l-.3-.2c0-.2.1-.4.1-.5l.3-.3c.1 0 .2-.1.4 0 .1 0 .3.1.4.2.2.1.4.3.5.4.1.2.3.4.4.6s.2.4.2.6.1.4.1.6 0 .4-.1.6-.1.3-.2.4-.2.1-.4.1-.3-.1-.5-.2-.4-.3-.6-.5-.3-.4-.4-.6-.2-.5-.2-.7c-.1-.2-.1-.5-.1-.7v-.3c0-.3 0-.6.1-.9s.2-.5.3-.7.3-.3.6-.3a2.7 2.7 0 0 1 .8.3zm-2.5-1.4l-1.7 4.1-.4-.3 1.7-4.1.4.3zm-3.1 2.2v-4.2l.5.3v4.9l-.5-.3v-.7zm-2-2.2h0c0-.3 0-.6.1-.7.1-.2.1-.3.2-.4s.2-.1.4-.1c.1 0 .3.1.5.2s.4.2.5.4.3.3.4.5.2.4.2.7c.1.2.1.5.1.8v.3c0 .2-.1.4-.1.6-.1.2-.1.3-.2.4s-.2.1-.4.1c-.1 0-.3-.1-.5-.2s-.3-.2-.5-.4c-.1-.2-.3-.4-.4-.6s-.2-.4-.2-.7c-.1-.4-.1-.6-.1-.9zm.5.2h0v.6c0 .2.1.3.1.5.1.2.1.3.2.4s.2.2.4.3.3.1.4.1.2-.1.3-.2.1-.2.2-.4v-.8c0-.1-.1-.3-.1-.4s-.1-.3-.2-.4-.1-.2-.2-.3l-.3-.3c-.1-.1-.3-.1-.4-.1s-.2.1-.2.1c-.1.1-.1.2-.1.3-.1.3-.1.5-.1.6zm-2.2.2l.8-2.6.6.3-1.2 3.3c0 .1-.1.1-.1.2s-.1.1-.2.2-.2.1-.3.1-.2 0-.4-.1c0 0-.1-.1-.2-.1s-.1-.1-.1-.1v-.5h.1.1c.1.1.2.1.3.1s.1 0 .2-.1c.1 0 .1-.1.1-.3l.3-.4zm-.6-3.5l.8 3.1.1.7h-.4l-1.1-4.2.6.4zm-1.6-.1v.5l-2.2-1.3v-.5l2.2 1.3zm-2.1-3.2v4.7l-.5-.3v-4.7l.5.3zm2.6 1.5v4.7l-.5-.3v-4.7l.5.3zm-3.8-2.2l-1.7 4.1-.4-.3 1.7-4.1.4.3zm-4.4-.6v2.7l-.5-.3v-3.5l.5.3v.8zm-.1.8l-.2-.1c0-.2 0-.4.1-.6s.1-.3.3-.4c.1-.1.2-.1.4-.1s.3.1.5.2c.1.1.3.2.4.3s.2.2.3.4c.1.1.1.3.2.5 0 .2.1.4.1.6v2.3l-.5-.3v-2.3c0-.2 0-.3-.1-.5 0-.1-.1-.3-.2-.4l-.3-.3c-.1-.1-.2-.1-.3-.1s-.2 0-.3.1-.1.2-.2.3c-.2.1-.2.3-.2.4zm-3.8-2h0c0-.3 0-.5.1-.7s.2-.3.3-.4.3-.1.4-.1c.2 0 .4.1.6.2s.4.3.6.5.3.4.4.6.2.5.3.7.1.5.1.7v.1c0 .2 0 .5-.1.6-.1.2-.2.3-.3.4s-.3.1-.4.1c-.2 0-.4-.1-.6-.2s-.4-.3-.6-.5-.3-.4-.4-.6l-.3-.7c-.1-.2-.1-.4-.1-.7zm.5.2h0c0 .2 0 .4.1.6 0 .2.1.3.2.5s.2.3.3.4.2.2.4.3c.1.1.3.1.4.1s.2 0 .3-.1.1-.2.2-.3c0-.1.1-.3.1-.5v-.1c0-.2 0-.3-.1-.5 0-.2-.1-.3-.2-.5s-.2-.3-.3-.4-.2-.2-.4-.3c-.1-.1-.3-.1-.4-.1s-.2.1-.3.1c-.1.1-.1.2-.2.3-.1.2-.1.4-.1.5zm-1.5-.6l.5.3c0 .3-.1.5-.2.7s-.3.3-.5.3-.5-.1-.8-.3c-.2-.1-.5-.3-.6-.5-.2-.2-.4-.5-.5-.7l-.3-.9c-.1-.3-.1-.6-.1-1v-.5c0-.3 0-.6.1-.8s.2-.4.3-.5.3-.2.5-.1c.2 0 .4.1.7.2.3.2.6.4.8.6.2.3.4.5.5.8s.2.6.2.9l-.5-.3c0-.2-.1-.4-.1-.6-.1-.2-.2-.4-.3-.5-.1-.2-.3-.3-.5-.4s-.3-.2-.5-.2c-.1 0-.2 0-.3.1s-.2.2-.2.4-.1.4-.1.6v.5a1.7 1.7 0 0 0 .1.7c0 .2.1.4.2.6s.2.4.3.5c.1.2.3.3.5.4s.4.2.5.2.2-.1.3-.2c-.1.1-.1-.1 0-.3z"/></g><path d="M232.8 243.7l56.9 32.7v13.1l-56.9-32.6z" class="P Q"/><g class="O"><path d="M264.2 270.2v.5l-2.6-1.5v-.4l1.3-.9c.2-.1.3-.2.4-.3s.2-.2.2-.3.1-.2.1-.3c0-.2 0-.3-.1-.5s-.1-.3-.2-.4-.2-.2-.4-.3-.3-.1-.4-.1-.2.1-.3.2-.1.3-.1.4l-.5-.3c0-.3 0-.5.1-.6.1-.2.2-.2.4-.3.2 0 .4.1.7.2s.5.3.7.5.3.4.4.7a1.7 1.7 0 0 1 .1.7c0 .1 0 .3-.1.4 0 .1-.1.2-.2.3s-.1.2-.2.3-.2.2-.3.2l-1.1.7 2.1 1.1zm-5.1-5.1l.4.2c.2.1.3.2.4.2s.2 0 .3-.1.1-.2.1-.4 0-.3-.1-.5-.1-.3-.2-.4-.2-.2-.4-.3c-.1-.1-.3-.1-.4-.1s-.2 0-.3.1-.1.2-.1.4l-.5-.3c0-.2.1-.4.2-.6.1-.1.2-.2.4-.2s.4.1.7.2c.2.1.5.3.6.5.2.2.3.4.4.7s.2.5.2.8c0 .1 0 .2-.1.3 0 .1-.1.2-.2.2-.1.1-.2.1-.4.1s-.3-.1-.6-.2l-.4-.3v-.3zm0 .5v-.4l.4.3c.3.1.5.3.6.5.2.2.3.3.4.5s.2.3.2.5.1.3.1.5 0 .4-.1.5l-.3.3c-.1.1-.2.1-.4 0-.2 0-.3-.1-.5-.2s-.3-.2-.5-.4c-.2-.1-.3-.3-.4-.5l-.3-.6c-.1-.2-.1-.4-.1-.6l.5.3a.9.9 0 0 0 .1.5c.1.2.2.3.3.4s.3.2.4.3c.2.1.3.1.4.1s.2 0 .3-.1.1-.2.1-.4 0-.4-.1-.5c-.1-.2-.2-.3-.3-.5-.1-.1-.3-.3-.5-.4l-.3-.1z"/></g><path d="M289.7 276.4l57 32.7v13.1l-57-32.7z" class="P Q"/><g class="O"><path d="M321.2 302.9v.5l-2.6-1.5v-.4l1.3-.9c.2-.1.3-.2.4-.3s.2-.2.2-.3.1-.2.1-.3c0-.2 0-.3-.1-.5s-.1-.3-.2-.4-.2-.2-.4-.3-.3-.1-.5-.1c-.1 0-.2.1-.3.2s-.1.3-.1.4l-.5-.3c0-.3.1-.5.1-.6.1-.2.2-.2.4-.3.2 0 .4.1.7.2s.5.3.7.5.3.4.4.7a1.7 1.7 0 0 1 .1.7c0 .1 0 .3-.1.4 0 .1-.1.2-.2.3s-.1.2-.2.3-.2.2-.3.2l-1.1.7 2.2 1.1zm-5.1-5.1l.4.2c.2.1.3.2.4.2s.2 0 .3-.1.1-.2.1-.4 0-.3-.1-.5-.1-.3-.2-.4-.2-.2-.4-.3c-.1-.1-.3-.1-.4-.1s-.2 0-.3.1-.1.2-.1.4l-.5-.3c0-.2.1-.4.2-.6.1-.1.2-.2.4-.2s.4.1.7.2c.2.1.5.3.6.5.2.2.3.4.4.7s.2.5.2.8c0 .1 0 .2-.1.3 0 .1-.1.2-.2.2-.1.1-.2.1-.4.1s-.3-.1-.6-.2l-.4-.3v-.3zm0 .5v-.4l.4.3c.3.1.5.3.6.5.2.2.3.3.4.5s.2.3.2.5.1.3.1.5 0 .4-.1.5l-.3.3c-.1.1-.2.1-.4 0-.2 0-.3-.1-.5-.2s-.3-.2-.5-.4c-.2-.1-.3-.3-.4-.5l-.3-.6c-.1-.2-.1-.4-.1-.6l.5.3a.9.9 0 0 0 .1.5c.1.2.2.3.3.4s.3.2.4.3c.2.1.3.1.4.1s.2 0 .3-.1.1-.2.1-.4 0-.4-.1-.5c-.1-.2-.2-.3-.3-.5-.1-.1-.3-.3-.5-.4l-.3-.1z"/></g><path d="M346.7 309.1l56.9 32.7v13.1l-56.9-32.7z" class="P Q"/><g class="O"><path d="M378.1 335.6v.5l-2.6-1.5v-.4l1.3-.9c.2-.1.3-.2.4-.3s.2-.2.2-.3.1-.2.1-.3c0-.2 0-.3-.1-.5s-.1-.3-.2-.4-.2-.2-.4-.3-.3-.1-.5-.1c-.1 0-.2.1-.3.2s-.1.3-.1.4l-.5-.3c0-.3 0-.5.2-.6.1-.2.2-.2.4-.3.2 0 .4.1.7.2s.5.3.7.5.3.4.4.7a1.7 1.7 0 0 1 .1.7c0 .1 0 .3-.1.4 0 .1-.1.2-.2.3s-.1.2-.2.3-.2.2-.3.2l-1.1.7 2.1 1.1zm-5.1-5.1l.4.2c.2.1.3.2.4.2s.2 0 .3-.1.1-.2.1-.4 0-.3-.1-.5-.1-.3-.2-.4-.2-.2-.4-.3c-.1-.1-.3-.1-.4-.1s-.2 0-.3.1-.1.2-.1.4l-.5-.3c0-.2.1-.4.2-.6.1-.1.2-.2.4-.2s.4.1.7.2c.2.1.5.3.6.5.2.2.3.4.4.7s.2.5.2.8c0 .1 0 .2-.1.3 0 .1-.1.2-.2.2-.1.1-.2.1-.4.1s-.3-.1-.6-.2l-.4-.3v-.3zm0 .5v-.4l.4.3c.3.1.5.3.6.5.2.2.3.3.4.5s.2.3.2.5.1.3.1.5 0 .4-.1.5l-.3.3c-.1.1-.2.1-.4 0-.2 0-.3-.1-.5-.2s-.3-.2-.5-.4c-.2-.1-.3-.3-.4-.5l-.3-.6c-.1-.2-.1-.4-.1-.6l.5.3a.9.9 0 0 0 .1.5c.1.2.2.3.3.4s.3.2.4.3c.2.1.3.1.4.1s.2 0 .3-.1.1-.2.1-.4 0-.4-.1-.5c-.1-.2-.2-.3-.3-.5-.1-.1-.3-.3-.5-.4l-.3-.1z"/></g><path d="M403.6 341.8l56.9 32.7v13.1l-56.9-32.7z" class="P Q"/><g class="O"><use href="#k"/><path d="M431.9 366.4v.5l-2.6-1.5v-.4l1.3-.9c.2-.1.3-.2.4-.3s.2-.2.2-.3.1-.2.1-.3c0-.2 0-.3-.1-.5s-.1-.3-.2-.4-.2-.2-.4-.3-.3-.1-.4-.1-.2.1-.3.2-.1.3-.1.4l-.5-.3c0-.3 0-.5.1-.6.1-.2.2-.2.4-.3.2 0 .4.1.7.2s.5.3.7.5.3.4.4.7a1.7 1.7 0 0 1 .1.7c0 .1 0 .3-.1.4 0 .1-.1.2-.2.3s-.1.2-.2.3-.2.2-.3.2l-1.1.7 2.1 1.1z"/></g><path d="M175.9 224.2l56.9 32.7V270l-53.5-30.7c-1.9-1.1-3.4-3.7-3.4-5.9v-9.2z" class="P Q"/><g class="O"><path d="M208.3 246.4h0v.5h0c-.3-.2-.5-.2-.7-.2s-.3 0-.4.2c-.1.1-.2.3-.2.4 0 .2-.1.4-.1.6v.7c0 .2 0 .4.1.6 0 .2.1.4.2.5.1.2.2.3.2.4l.3.3c.1.1.2.1.3.1s.2 0 .2-.1c.1-.1.1-.1.1-.3v-.4-.4c0-.1-.1-.3-.1-.4-.1-.1-.1-.3-.2-.4l-.3-.3c-.1-.1-.3-.1-.4-.1s-.2.1-.3.1c-.1.1-.1.2-.1.3l-.3-.2c0-.2.1-.4.1-.5l.3-.3c.1 0 .2-.1.4 0 .1 0 .3.1.4.2.2.1.4.3.5.4.1.2.3.4.4.6s.2.4.2.6.1.4.1.6 0 .4-.1.6-.1.3-.2.4-.2.1-.4.1-.3-.1-.5-.2-.4-.3-.6-.5-.3-.4-.4-.6-.2-.5-.2-.7c-.1-.2-.1-.5-.1-.7v-.3c0-.3 0-.6.1-.9s.2-.5.3-.7.3-.3.6-.3a2.7 2.7 0 0 1 .8.3zm-2.5-1.4l-1.7 4.1-.4-.3 1.7-4.1.4.3zm-3.1 2.2V243l.5.3v4.9l-.5-.3v-.7zm-2-2.2h0c0-.3 0-.6.1-.7.1-.2.1-.3.2-.4s.2-.1.4-.1c.1 0 .3 0 .5.2.2.1.4.2.5.4s.3.3.4.5.2.4.2.7c.1.2.1.5.1.8v.3c0 .2-.1.4-.1.6-.1.2-.1.3-.2.4s-.2.1-.4.1c-.1 0-.3-.1-.5-.2s-.3-.2-.5-.4c-.1-.2-.3-.4-.4-.6s-.2-.4-.2-.7c-.1-.4-.1-.6-.1-.9zm.5.3h0v.6c0 .2.1.3.1.5.1.2.1.3.2.4s.2.2.4.3.3.1.4.1.2-.1.3-.2.1-.2.2-.4v-.8c0-.1-.1-.3-.1-.4s-.1-.3-.2-.4-.1-.2-.2-.3l-.3-.3c-.1-.1-.3-.1-.4-.1s-.2.1-.2.1c-.1.1-.1.2-.1.3-.1.2-.1.4-.1.6zm-2.2.1l.8-2.6.6.3-1.2 3.3c0 .1-.1.1-.1.2s-.1.1-.2.2-.2.1-.3.1-.2 0-.4-.1c0 0-.1-.1-.2-.1s-.1-.1-.1-.1v-.5h.1.1c.1.1.2.1.3.1s.1 0 .2-.1c.1 0 .1-.1.1-.3l.3-.4zm-.6-3.5l.8 3.1.1.7h-.4l-1.1-4.2.6.4zm-1.6 0v.5l-2.2-1.3v-.5l2.2 1.3zm-2.1-3.3v4.7l-.5-.3v-4.7l.5.3zm2.6 1.5v4.7l-.5-.3v-4.7l.5.3zm-3.8-2.1l-1.7 4.1-.4-.3 1.7-4.1.4.3zm-4.4-.6v2.7l-.5-.3v-3.5l.5.3v.8zm-.1.7l-.2-.1c0-.2 0-.4.1-.6s.1-.3.3-.4c.1-.1.2-.1.4-.1s.3.1.5.2c.1.1.3.2.4.3s.2.2.3.4c.1.1.1.3.2.5 0 .2.1.4.1.6v2.3l-.5-.3v-2.3c0-.2 0-.3-.1-.5 0-.1-.1-.3-.2-.4l-.3-.3c-.1-.1-.2-.1-.3-.1s-.2 0-.3.1-.1.2-.2.3c-.2.2-.2.3-.2.4zm-3.8-1.9h0c0-.3 0-.5.1-.7s.2-.3.3-.4.3-.1.4-.1c.2 0 .4.1.6.2s.4.3.6.5.3.4.4.6.2.5.3.7a1.7 1.7 0 0 1 .1.7v.1c0 .2 0 .5-.1.6-.1.2-.2.3-.3.4s-.3.1-.4.1c-.2 0-.4-.1-.6-.2s-.4-.3-.6-.5-.3-.4-.4-.6l-.3-.7c-.1-.2-.1-.5-.1-.7zm.5.2h0c0 .2 0 .4.1.6 0 .2.1.3.2.5s.2.3.3.4.2.2.4.3c.1.1.3.1.4.1s.2 0 .3-.1.1-.2.2-.3c0-.1.1-.3.1-.5v-.1c0-.2 0-.3-.1-.5 0-.2-.1-.3-.2-.5s-.2-.3-.3-.4-.2-.2-.4-.3c-.1-.1-.3-.1-.4-.1s-.2.1-.3.1c-.1.1-.1.2-.2.3-.1.2-.1.3-.1.5zm-1.5-.6l.5.3c0 .3-.1.5-.2.7s-.3.3-.5.3-.5-.1-.8-.3c-.2-.1-.5-.3-.6-.5-.2-.2-.4-.5-.5-.7l-.3-.9c-.1-.3-.1-.6-.1-1v-.5c0-.3 0-.6.1-.8s.2-.4.3-.5.3-.2.5-.1c.2 0 .4.1.7.2.3.2.6.4.8.6.2.3.4.5.5.8s.2.6.2.9l-.5-.3c0-.2-.1-.4-.1-.6-.1-.2-.2-.4-.3-.5-.1-.2-.3-.3-.5-.4s-.3-.2-.5-.2c-.1 0-.2 0-.3.1s-.2.2-.2.4-.1.4-.1.6v.5a1.7 1.7 0 0 0 .1.7c0 .2.1.4.2.6s.2.4.3.5c.1.2.3.3.5.4s.4.2.5.2.2-.1.3-.2c-.1 0-.1-.1 0-.3z"/></g><path d="M232.8 256.9l56.9 32.6v13.2L232.8 270z" class="P Q"/><g class="O"><path d="M264.2 283.3v.5l-2.6-1.5v-.4l1.3-.9c.2-.1.3-.2.4-.3s.2-.2.2-.3.1-.2.1-.3c0-.2 0-.3-.1-.5s-.1-.3-.2-.4-.2-.2-.4-.3-.3-.1-.4-.1-.2.1-.3.2-.1.3-.1.4l-.5-.3c0-.3 0-.5.1-.6.1-.2.2-.2.4-.3.2 0 .4.1.7.2s.5.3.7.5.3.4.4.7a1.7 1.7 0 0 1 .1.7c0 .1 0 .3-.1.4 0 .1-.1.2-.2.3s-.1.2-.2.3-.2.2-.3.2l-1.1.7 2.1 1.1zm-5.1-5.1l.4.2c.2.1.3.2.4.2s.2 0 .3-.1.1-.2.1-.4 0-.3-.1-.5-.1-.3-.2-.4-.2-.2-.4-.3c-.1-.1-.3-.1-.4-.1s-.2 0-.3.1-.1.2-.1.4l-.5-.3c0-.2.1-.4.2-.6.1-.1.2-.2.4-.2s.4.1.7.2c.2.1.5.3.6.5.2.2.3.4.4.7s.2.5.2.8c0 .1 0 .2-.1.3 0 .1-.1.2-.2.2-.1.1-.2.1-.4.1s-.3-.1-.6-.2l-.4-.3v-.3zm0 .5v-.4l.4.3c.3.1.5.3.6.5.2.2.3.3.4.5s.2.3.2.5.1.3.1.5 0 .4-.1.5l-.3.3c-.1.1-.2.1-.4 0-.2 0-.3-.1-.5-.2s-.3-.2-.5-.4c-.2-.1-.3-.3-.4-.5l-.3-.6c-.1-.2-.1-.4-.1-.6l.5.3a.9.9 0 0 0 .1.5c.1.2.2.3.3.4s.3.2.4.3c.2.1.3.1.4.1s.2 0 .3-.1.1-.2.1-.4 0-.4-.1-.5c-.1-.2-.2-.3-.3-.5-.1-.1-.3-.3-.5-.4l-.3-.1z"/></g><path d="M289.7 289.5l57 32.7v13.2l-57-32.7z" class="P Q"/><g class="O"><path d="M321.2 316v.5l-2.6-1.5v-.4l1.3-.9c.2-.1.3-.2.4-.3s.2-.2.2-.3.1-.2.1-.3c0-.2 0-.3-.1-.5s-.1-.3-.2-.4-.2-.2-.4-.3-.3-.1-.5-.1c-.1 0-.2.1-.3.2s-.1.3-.1.4l-.5-.3c0-.3.1-.5.1-.6.1-.2.2-.2.4-.3.2 0 .4.1.7.2s.5.3.7.5.3.4.4.7a1.7 1.7 0 0 1 .1.7c0 .1 0 .3-.1.4 0 .1-.1.2-.2.3s-.1.2-.2.3-.2.2-.3.2l-1.1.7 2.2 1.1zm-5.1-5.1l.4.2c.2.1.3.2.4.2s.2 0 .3-.1.1-.2.1-.4 0-.3-.1-.5-.1-.3-.2-.4-.2-.2-.4-.3c-.1-.1-.3-.1-.4-.1s-.2 0-.3.1-.1.2-.1.4l-.5-.3c0-.2.1-.4.2-.6.1-.1.2-.2.4-.2s.4.1.7.2c.2.1.5.3.6.5.2.2.3.4.4.7s.2.5.2.8c0 .1 0 .2-.1.3 0 .1-.1.2-.2.2-.1.1-.2.1-.4.1s-.3-.1-.6-.2l-.4-.3v-.3zm0 .5v-.4l.4.3c.3.1.5.3.6.5.2.2.3.3.4.5s.2.3.2.5.1.3.1.5 0 .4-.1.5l-.3.3c-.1.1-.2.1-.4 0-.2 0-.3-.1-.5-.2s-.3-.2-.5-.4c-.2-.1-.3-.3-.4-.5l-.3-.6c-.1-.2-.1-.4-.1-.6l.5.3a.9.9 0 0 0 .1.5c.1.2.2.3.3.4s.3.2.4.3c.2.1.3.1.4.1s.2 0 .3-.1.1-.2.1-.4 0-.4-.1-.5c-.1-.2-.2-.3-.3-.5-.1-.1-.3-.3-.5-.4l-.3-.1z"/></g><path d="M346.7 322.2l56.9 32.7V368l-56.9-32.6z" class="P Q"/><g class="O"><path d="M378.1 348.7v.5l-2.6-1.5v-.4l1.3-.9c.2-.1.3-.2.4-.3s.2-.2.2-.3.1-.2.1-.3c0-.2 0-.3-.1-.5s-.1-.3-.2-.4-.2-.2-.4-.3-.3-.1-.5-.1c-.1 0-.2.1-.3.2s-.1.3-.1.4l-.5-.3c0-.3 0-.5.2-.6.1-.2.2-.2.4-.3.2 0 .4.1.7.2s.5.3.7.5.3.4.4.7a1.7 1.7 0 0 1 .1.7c0 .1 0 .3-.1.4 0 .1-.1.2-.2.3s-.1.2-.2.3-.2.2-.3.2l-1.1.7 2.1 1.1zm-5.1-5.1l.4.2c.2.1.3.2.4.2s.2 0 .3-.1.1-.2.1-.4 0-.3-.1-.5-.1-.3-.2-.4-.2-.2-.4-.3c-.1-.1-.3-.1-.4-.1s-.2 0-.3.1-.1.2-.1.4l-.5-.3c0-.2.1-.4.2-.6s.2-.2.4-.2.4.1.7.2c.2.1.5.3.6.5.2.2.3.4.4.7s.2.5.2.8c0 .1 0 .2-.1.3 0 .1-.1.2-.2.2-.1.1-.2.1-.4.1s-.3-.1-.6-.2l-.4-.2v-.4zm0 .5v-.4l.4.3c.3.1.5.3.6.5.2.2.3.3.4.5s.2.3.2.5.1.3.1.5 0 .4-.1.5l-.3.3c-.1.1-.2.1-.4 0-.2 0-.3-.1-.5-.2s-.3-.2-.5-.4c-.2-.1-.3-.3-.4-.5l-.3-.6c-.1-.2-.1-.4-.1-.6l.5.3a.9.9 0 0 0 .1.5c.1.2.2.3.3.4s.3.2.4.3c.2.1.3.1.4.1s.2 0 .3-.1.1-.2.1-.4 0-.4-.1-.5c-.1-.2-.2-.3-.3-.5-.1-.1-.3-.3-.5-.4l-.3-.1z"/></g><path d="M403.6,354.9l56.9,32.7v9.2c0,2.2-1.5,3.1-3.4,2L403.6,368V354.9z" class="P Q"/><g class="O"><path d="M435 379.1v.7c0 .4 0 .7-.1.9s-.1.4-.3.5c-.1.1-.2.1-.4.1s-.3-.1-.5-.2-.3-.2-.4-.3-.2-.3-.4-.4c-.1-.2-.2-.3-.3-.5s-.1-.4-.2-.7c0-.3-.1-.5-.1-.8v-.7c0-.4 0-.7.1-.9s.1-.4.3-.5c.1-.1.2-.1.4-.1s.3.1.5.2.3.2.4.3l.4.4c.1.2.2.3.3.5s.1.4.2.7c0 .2.1.5.1.8zm-.6.5v-.9-.6c0-.2-.1-.3-.1-.5 0-.1-.1-.3-.2-.4s-.1-.2-.2-.3-.2-.1-.3-.2-.2-.1-.3-.1-.2 0-.2.1c-.1.1-.1.2-.1.4v.6.9.6c0 .2.1.3.1.5 0 .1.1.3.2.4s.1.2.2.3.2.1.3.2.2.1.3.1.2 0 .2-.1c.1-.1.1-.2.1-.4v-.6zm-2.5 0v.5l-2.6-1.5v-.4l1.3-.9c.2-.1.3-.2.4-.3s.2-.2.2-.3.1-.2.1-.3c0-.2 0-.3-.1-.5s-.1-.3-.2-.4-.2-.2-.4-.3-.3-.1-.4-.1-.2.1-.3.2-.1.3-.1.4l-.5-.3c0-.3 0-.5.1-.6.1-.2.2-.2.4-.3.2 0 .4.1.7.2s.5.3.7.5.3.4.4.7a1.7 1.7 0 0 1 .1.7c0 .1 0 .3-.1.4 0 .1-.1.2-.2.3s-.1.2-.2.3-.2.2-.3.2l-1.1.7 2.1 1.1z"/></g><path d="M180.1 78.2l33.5 19.2c1.3.7 2.3 2.5 2.3 4v7.8c0 1.5-1 2.1-2.3 1.3l-33.5-19.2c-1.3-.7-2.3-2.5-2.3-4v-7.8c0-1.4 1-2 2.3-1.3z" class="U"/><g class="T"><path d="M185.6 86.4h0c.1.1.1.2.1.2l.8 3.4-.4-.2-.7-2.8v-.1-.1l-.1-.1v.1.1l-.7 2.1-.4-.2.8-2.4.1-.1h.1l.4.1zm.5 2v.4l-1.3-.8v-.4l1.3.8zm1.6 0c.1 0 .1.1.2.1s.1.1.2.2l.2.2v.2c-.1-.1-.2-.1-.3-.2s-.2-.1-.2-.1c-.1-.1-.3-.1-.3-.1-.1 0-.1 0-.2.1 0 .1-.1.2-.1.4s0 .4.1.5c0 .1.1.2.2.3l.3.3s.1 0 .1.1c.1 0 .1.1.2.1s.1.1.2.1v.3c-.1 0-.2 0-.3-.1-.1 0-.2-.1-.3-.2-.2-.1-.4-.3-.5-.4s-.2-.3-.3-.5-.1-.4-.1-.7 0-.5.1-.6.2-.2.3-.2.3.1.5.2zm1.6.3v2.2c0 .1 0 .2.1.2 0 .1.1.1.2.2l.3.2v.3s-.1 0-.1-.1c-.1 0-.1 0-.2-.1-.1 0-.1 0-.1-.1-.2-.1-.3-.2-.4-.4-.1-.1-.1-.3-.1-.5v-2.2l.3.3zm.6 1v.3l-1.3-.7V89l.4.2.9.5zm.8.4v2.1l-.4-.2v-2.1l.4.2zm-.1-.9c.1 0 .1.1.1.2v.3c0 .1 0 .1-.1.1l-.2-.1c-.1 0-.1-.1-.1-.2v-.3c0-.1 0-.1.1-.1l.2.1zm2.3 2.2l-.7 1.7h-.1-.1l-.3-.2s-.1 0-.1-.1v-.1l-.7-2.4.4.2.4 1.7c0 .1 0 .1.1.2 0 .1 0 .1.1.2h0c0-.1 0-.1.1-.2 0-.1 0-.1.1-.2l.4-1.2.4.4zm1.2.6c.3.2.5.3.6.5s.2.4.2.6 0 .3-.1.4-.2 0-.4 0l-1.1-.6v-.3l1 .6h.2V93c0-.1 0-.2-.1-.3l-.3-.3c-.1-.1-.2-.1-.3-.1s-.1 0-.2.1v.4c0 .2 0 .4.1.5 0 .1.1.2.2.3l.3.3c.1.1.2.1.3.2s.2.1.3.2v.3c-.1 0-.1 0-.2-.1-.1 0-.2-.1-.3-.1s-.2-.1-.3-.1c-.2-.1-.4-.3-.5-.4s-.2-.3-.3-.5-.1-.4-.1-.7 0-.5.1-.6.2-.2.3-.2c.2-.1.3 0 .6.1zm3.2 1.9c.2.1.4.3.5.6s.1.6.1.9 0 .5-.1.6-.1.2-.2.2-.2 0-.4-.1c-.1-.1-.2-.2-.4-.3-.1-.1-.2-.2-.3-.4v-.2l.3.3c.1.1.2.1.3.2s.2.1.2.1c.1 0 .1-.1.1-.1v-.4-.5c0-.1-.1-.2-.1-.3l-.2-.2c-.1-.1-.2-.1-.3-.1s-.2 0-.3.1V94c.1 0 .1-.1.2-.1h.3c.1-.1.2-.1.3 0zm-.8-.4v.5.1 1.4h0v.3.3.6l-.4-.2v-3h.4zm2.3 1.3v2.1l-.4-.2v-2.1l.4.2zm-.1-1c.1 0 .1.1.1.2v.3c0 .1 0 .1-.1.1l-.2-.1c-.1 0-.1-.1-.1-.2v-.3c0-.1 0-.1.1-.1l.2.1zm1.8 1.9c.2.1.4.3.5.6s.1.6.1.9 0 .5-.1.6-.1.2-.2.2-.2 0-.4-.1c-.1-.1-.2-.2-.4-.3-.1-.1-.2-.2-.3-.4V97l.3.3c.1.1.2.1.3.2s.2.1.2.1c.1 0 .1-.1.1-.1v-.4-.5c0-.1-.1-.2-.1-.3l-.2-.2c-.1-.1-.2-.1-.3-.1s-.2 0-.3.1v-.3c.1 0 .1-.1.2-.1h.3c.1-.1.2 0 .3 0zm-.8-.4v.5.1 1.4h0v.3.3.6l-.4-.2v-3h.4zm2.7 1.5c.3.2.5.3.6.5s.2.4.2.6 0 .3-.1.4-.2 0-.4 0l-1.1-.6v-.3l1 .6h.2v-.2c0-.1 0-.2-.1-.3l-.3-.3c-.1-.1-.2-.1-.3-.1s-.1 0-.2.1v.4c0 .2 0 .4.1.5 0 .1.1.2.2.3l.3.3c.1.1.2.1.3.2s.2.1.3.2v.3c-.1 0-.1 0-.2-.1-.1 0-.2-.1-.3-.1s-.2-.1-.3-.1c-.2-.1-.4-.3-.5-.4-.1-.2-.2-.3-.3-.5s-.1-.4-.1-.7 0-.5.1-.6.2-.2.3-.2c.2-.1.4 0 .6.1zm1.6.1v2.5c0 .1 0 .2.1.2 0 .1.1.1.2.2l.2.1v.3h-.1s-.1 0-.1-.1c0 0-.1 0-.1-.1-.1-.1-.3-.2-.3-.3-.1-.1-.1-.3-.1-.5v-2.6l.2.3zm1.2 1.6v2.1l-.4-.2v-2.1l.4.2zm-.1-1c.1 0 .1.1.1.2v.3c0 .1 0 .1-.1.1l-.2-.1c-.1 0-.1-.1-.1-.2v-.3c0-.1 0-.1.1-.1l.2.1zm1.8 1.9c.3.2.5.5.5.9v1.6l-.4-.2v-1.5c0-.1 0-.2-.1-.3 0-.1-.1-.1-.2-.2s-.2-.1-.3-.1h-.4v-.3c.1-.1.3-.1.4-.1.3.1.4.1.5.2zm-.8-.4v.4.1 1.7l-.4-.2v-2.1l.4.1zm2.7 1.5c.3.2.5.3.6.5s.2.4.2.6 0 .3-.1.4-.2 0-.4-.1l-1.1-.6v-.3l1 .6h.2v-.2c0-.1 0-.2-.1-.3l-.3-.3c-.1-.1-.2-.1-.3-.1s-.1 0-.2.1v.4c0 .2 0 .4.1.5 0 .1.1.2.2.3l.3.3c.1.1.2.1.3.2s.2.1.3.2v.3c-.1 0-.1 0-.2-.1-.1 0-.2-.1-.3-.1s-.2-.1-.3-.1c-.2-.1-.4-.3-.5-.4-.1-.2-.2-.3-.3-.5s-.1-.4-.1-.7 0-.5.1-.6.2-.2.3-.2c.2 0 .4.1.6.2z"/><path d="M222 102.8l33.5 19.2c1 .6 1.9 2.1 1.9 3.2v7.8c0 1.2-.8 1.7-1.9 1.1L222 115c-1-.6-1.9-2.1-1.9-3.2V104c0-1.3.8-1.8 1.9-1.2z" stroke="#d2e6ff" stroke-width=".94"/></g><path d="M225.3 109.1v3l-.4-.2v-3l.4.2zm1.8 1.9c.3.2.5.5.5.9v1.6l-.4-.2v-1.5c0-.1 0-.2-.1-.3 0-.1-.1-.1-.2-.2s-.2-.1-.3-.1h-.4v-.3c.1-.1.3-.1.4-.1.2.1.4.1.5.2zm-.9-.4v.4.1 1.7l-.4-.2v-2.1l.4.1zm2.9 1.5c.1.1.3.2.4.3s.2.2.2.3c.1.1.1.3.1.5v1.5l-.3-.2-.1-.5v-.1-1c0-.1 0-.2-.1-.3s-.1-.2-.3-.2c-.1-.1-.2-.1-.4-.2-.1-.1-.3-.1-.4-.2v-.3c.1 0 .2.1.3.1s.2.1.3.2c.1 0 .2.1.3.1zm.4 1.2v.3l-.9-.5c-.1 0-.1-.1-.2 0v.2.1c0 .1 0 .2.1.3 0 .1.1.1.2.2.1 0 .1.1.2.1h.3c.1 0 .2 0 .2-.1v.3l-.1.1c-.1 0-.1 0-.2.1h-.2c-.1 0-.2-.1-.3-.1-.1-.1-.2-.1-.3-.2s-.1-.2-.2-.3c0-.1-.1-.2-.1-.4v-.4c0-.2 0-.3.1-.3s.2 0 .4.1l1 .5zm1.6 0c.1 0 .1.1.2.1s.1.1.2.2l.2.2v.2c-.1-.1-.2-.1-.3-.2s-.2-.1-.2-.1c-.1-.1-.3-.1-.3-.1-.1 0-.1 0-.2.1 0 .1-.1.2-.1.4s0 .4.1.5c0 .1.1.2.2.3l.3.3s.1 0 .1.1c.1 0 .1.1.2.1s.1.1.2.1v.3c-.1 0-.2 0-.3-.1-.1 0-.2-.1-.3-.2-.2-.1-.4-.3-.5-.4s-.2-.3-.3-.5-.1-.4-.1-.7 0-.5.1-.6.2-.2.3-.2.3.1.5.2zm1.6.3v2.2c0 .1 0 .2.1.2 0 .1.1.1.2.2l.3.2v.3h-.1c-.1 0-.1 0-.2-.1-.1 0-.1 0-.1-.1-.2-.1-.3-.2-.4-.4-.1-.1-.1-.3-.1-.5v-2.2l.3.2zm.5 1v.3l-1.3-.7v-.3l.4.2.9.5zm.8.4v2.1l-.4-.2v-2.1l.4.2zm-.1-1c.1 0 .1.1.1.2v.3c0 .1 0 .1-.1.1l-.2-.1c-.1 0-.1-.1-.1-.2v-.3c0-.1 0-.1.1-.1l.2.1zm2.4 2.3l-.7 1.7h-.1-.1l-.3-.2s-.1 0-.1-.1v-.1l-.7-2.4.4.2.4 1.7c0 .1 0 .1.1.2 0 .1 0 .1.1.2h0c0-.1 0-.1.1-.2 0-.1 0-.1.1-.2l.4-1.2.4.4zm1.1.6c.3.2.5.3.6.5s.2.4.2.6 0 .3-.1.4-.2 0-.4 0l-1.1-.6v-.3l1 .6h.2v-.2c0-.1 0-.2-.1-.3l-.3-.3c-.1-.1-.2-.1-.3-.1s-.1 0-.2.1v.4c0 .2 0 .4.1.5 0 .1.1.2.2.3l.3.3c.1.1.2.1.3.2s.2.1.3.2v.3c-.1 0-.1 0-.2-.1-.1 0-.2-.1-.3-.1s-.2-.1-.3-.1c-.2-.1-.4-.3-.5-.4-.1-.2-.2-.3-.3-.5s-.1-.4-.1-.7 0-.5.1-.6.2-.2.3-.2c.2-.1.4 0 .6.1zm3.2 1.9c.2.1.4.3.5.6.1.2.1.6.1.9s0 .5-.1.6-.1.2-.2.2-.2 0-.4-.1c-.1-.1-.2-.2-.4-.3-.1-.1-.2-.2-.3-.4v-.2l.3.3c.1.1.2.1.3.2s.2.1.2.1c.1 0 .1-.1.1-.2v-.4-.5c0-.1-.1-.2-.1-.3-.1-.1-.1-.2-.2-.2-.1-.1-.2-.1-.3-.1s-.2 0-.3.1v-.3c.1 0 .1-.1.2-.1h.3c.1 0 .2 0 .3.1zm-.8-.4v.5.1 1.4h0v.3.3.6l-.4-.2v-3h.4zm2.3 1.3v2.1l-.4-.2v-2.1l.4.2zm-.1-1c.1 0 .1.1.1.2v.3c0 .1 0 .1-.1.1l-.2-.1c-.1 0-.1-.1-.1-.2v-.3c0-.1 0-.1.1-.1l.2.1zm1.8 1.9c.2.1.4.3.5.6.1.2.1.6.1.9s0 .5-.1.6-.1.2-.2.2-.2 0-.4-.1c-.1-.1-.2-.2-.4-.3-.1-.1-.2-.2-.3-.4v-.2l.3.3c.1.1.2.1.3.2s.2.1.2.1c.1 0 .1-.1.1-.2v-.4-.5c0-.1-.1-.2-.1-.3-.1-.1-.1-.2-.2-.2-.1-.1-.2-.1-.3-.1s-.2 0-.3.1v-.3c.1 0 .1-.1.2-.1h.3c.1 0 .2 0 .3.1zm-.8-.4v.5.1 1.4h0v.3.3.6l-.4-.2v-3h.4zm2.7 1.5c.3.2.5.3.6.5s.2.4.2.6 0 .3-.1.4-.2 0-.4 0l-1.1-.6v-.3l1 .6h.2v-.2c0-.1 0-.2-.1-.3l-.3-.3c-.1-.1-.2-.1-.3-.1s-.1 0-.2.1v.4c0 .2 0 .4.1.5 0 .1.1.2.2.3l.3.3c.1.1.2.1.3.2s.2.1.3.2v.3c-.1 0-.1 0-.2-.1-.1 0-.2-.1-.3-.1s-.2-.1-.3-.1c-.2-.1-.4-.3-.5-.4-.1-.2-.2-.3-.3-.5s-.1-.4-.1-.7 0-.5.1-.6.2-.2.3-.2c.3-.1.4 0 .6.1zm1.7.1v2.5c0 .1 0 .2.1.2 0 .1.1.1.2.2l.2.1v.3h-.1s-.1 0-.1-.1c0 0-.1 0-.1-.1-.1-.1-.3-.2-.3-.3-.1-.1-.1-.3-.1-.5v-2.6l.2.3zm1.1 1.6v2.1l-.4-.2v-2.1l.4.2zm-.1-1c.1 0 .1.1.1.2v.2c0 .1 0 .1-.1.1l-.2-.1c-.1 0-.1-.1-.1-.2v-.3c0-.1 0-.1.1-.1l.2.2zm1.9 1.9c.3.2.5.5.5.9v1.6l-.4-.2v-1.5c0-.1 0-.2-.1-.3 0-.1-.1-.1-.2-.2s-.2-.1-.3-.1h-.4v-.3c.1-.1.3-.1.4-.1.2.1.4.1.5.2zm-.9-.4v.4.1 1.7l-.4-.2v-2.1l.4.1zm2.7 1.5c.3.2.5.3.6.5s.2.4.2.6 0 .3-.1.4-.2 0-.4 0l-1.1-.6v-.3l1 .6h.2v-.2c0-.1 0-.2-.1-.3l-.3-.3c-.1-.1-.2-.1-.3-.1s-.1 0-.2.1v.4c0 .2 0 .4.1.5 0 .1.1.2.2.3l.3.3c.1.1.2.1.3.2s.2.1.3.2v.3c-.1 0-.1 0-.2-.1-.1 0-.2-.1-.3-.1s-.2-.1-.3-.1c-.2-.1-.4-.3-.5-.4-.1-.2-.2-.3-.3-.5s-.1-.4-.1-.7 0-.5.1-.6.2-.2.3-.2c.3-.1.4 0 .6.1z" class="O"/><path d="M467.9 216.9v12.3L166.4 56V43.7c0-7.9 5.6-11.2 12.6-7.2l276.3 158.6c7 4.1 12.6 13.8 12.6 21.8h0z" class="U"/><path d="M440.7 201.3c0 2.2-1.6 3.1-3.6 2a7.8 7.8 0 0 1-3.6-6.1c0-2.2 1.6-3.1 3.6-2a7.8 7.8 0 0 1 3.6 6.1z" fill="#4bbc79"/><path d="M455.1 209.6c0 2.2-1.6 3.1-3.6 2a7.8 7.8 0 0 1-3.6-6.1c0-2.2 1.6-3.1 3.6-2 2.1 1.1 3.6 3.8 3.6 6.1z" fill="#f22071"/><path d="M422.7 195.5l-96.5-56.1c-1.4-.8-2.6-3.1-2.6-5s1.2-2.8 2.6-2l96.5 56.1c1.4.8 2.6 3.1 2.6 5 0 2-1.2 2.8-2.6 2z" fill="#dcdcdc"/><path d="M178.4 45.8v9.1l-1.7-1v-9.1l1.7 1zm3 5.2v1.5l-3-1.7v-1.5l3 1.7zm1.6-2.6v9.1l-1.7-1v-9.1l1.7 1zm3.2 4.4v6.5l-1.7-1v-6.5l1.7 1zm-.5-3.1c.3.2.5.5.5.9v.7c0 .4-.2.5-.5.3l-.7-.4c-.3-.2-.5-.5-.5-.9v-.7c0-.4.2-.5.5-.3l.7.4zm3.3 4.7l.2 1.4.2.3v5l-1.7-1v-6.5l1.3.8zm2.7 1.4l-.2 1.7-.5-.3c-.3-.2-.5-.3-.8-.3a3.6 3.6 0 0 0-1.1-.2l-.1-1.2c.4-.2.8-.3 1.2-.2.4 0 .8.1 1.2.4l.3.1zm2.5 1.6V64l-1.7-1v-6.5l1.7.9zm-.4-3.1c.3.2.5.5.5.9v.7c0 .4-.2.5-.5.3l-.7-.4c-.3-.2-.5-.5-.5-.9v-.7c0-.4.2-.5.5-.3l.7.4zm5.8 6.1c1.1.6 1.6 1.5 1.6 2.7V68l-1.7-1v-4.3c0-.3 0-.5-.1-.7s-.2-.3-.5-.4c-.2-.1-.5-.2-.8-.3-.3 0-.6-.1-1-.1l-.1-1.1c.4-.2.8-.2 1.2-.2.6.1 1 .2 1.4.5zm-2.6-1.3l.2 1.4.1.2v5l-1.7-1v-6.5l1.4.9zm8 4.4c.7.4 1.2.7 1.6 1.1s.7.7.8 1.1c.2.4.3.8.3 1.3s-.1.8-.3 1-.4.3-.8.2a6.4 6.4 0 0 1-1.6-.7c-.7-.4-1.2-.7-1.6-1.1s-.7-.7-.8-1.1c-.2-.4-.3-.8-.3-1.3s.1-.8.3-1 .5-.3.8-.2c.5.1 1 .3 1.6.7zm0 1.2a2.3 2.3 0 0 0-.9-.3c-.2 0-.2.2-.2.5s.1.6.2.8c.2.2.4.5.9.7s.7.3.9.3.2-.2.2-.5-.1-.6-.2-.8c-.2-.3-.5-.5-.9-.7zm3.3.9l-.1.8-1.5-.6-.4-1.3 2 1.1zm-5 .6l.8.6c-.1 0-.2.1-.2.2v.4c.1.2.2.3.4.5l2.1 1.5c.6.4 1 .8 1.3 1.3.2.4.4 1 .4 1.6s-.1.9-.3 1.1-.5.2-.9.1a8 8 0 0 1-1.7-.8c-.6-.3-1.1-.7-1.5-1s-.7-.6-.9-.8c-.2-.3-.4-.6-.5-.9s-.1-.6-.1-1c0-.3 0-.5.1-.6.1-.2.2-.3.4-.3s.5 0 .8.1l.8.1.7.7-.5.1c-.2 0-.3.1-.5.1-.1 0-.2.1-.3.2 0 .1-.1.2-.1.4s0 .4.1.5c.1.2.2.3.4.5s.5.3.8.5c.4.2.7.4.9.4.2.1.3.1.4 0s.1-.2.1-.4 0-.3-.1-.4-.1-.2-.3-.3c-.1-.1-.3-.3-.6-.4l-1.8-1.2c-.3-.2-.5-.4-.7-.7s-.3-.5-.3-.8c-.1-.2-.1-.5-.1-.7s.1-.4.2-.5c.4 0 .6-.1.7-.1zm11.5.3c.7.4 1.3.8 1.7 1.3a4.2 4.2 0 0 1 .9 1.4c.2.5.3 1.2.3 2s-.1 1.3-.3 1.7c-.2.3-.4.5-.8.4a6.4 6.4 0 0 1-1.6-.7c-.4-.2-.7-.4-1-.6s-.6-.5-.9-.7-.5-.4-.7-.6l-.4-.4v-1c.4.3.9.5 1.4.8l1.4.8c.3.2.5.3.7.3s.3-.1.4-.2c.1-.2.1-.4.1-.8s0-.7-.1-1-.2-.5-.4-.6c-.2-.2-.4-.4-.7-.5l-1.8-1c-.5-.3-.8-.5-1-.5l-.2-1.5c.3.1.6.3.9.4s.6.3.9.5c.3 0 .7.3 1.2.5zm-1.3-.6V75l-1.7-1v-9.1l1.7 1zm6.9 6.6V79l-1.7-1v-6.5l1.7 1zm-.4-3.1c.3.2.5.5.5.9v.7c0 .4-.2.5-.5.3l-.7-.4c-.3-.2-.5-.5-.5-.9v-.7c0-.4.2-.5.5-.3l.7.4zm5.6 5.9c.7.4 1.2 1 1.5 1.8a7.8 7.8 0 0 1 .5 2.8c0 .9-.1 1.5-.2 1.9-.2.4-.4.6-.7.6s-.7-.1-1.2-.4a4.7 4.7 0 0 1-1.2-.9 4 4 0 0 1-1-1.2l.1-.8c.3.2.5.4.7.6s.5.4.7.5.4.2.6.2c.1 0 .3-.1.3-.4.1-.3.1-.6.1-1.2 0-.5 0-1-.1-1.3l-.3-.8c-.1-.2-.3-.3-.5-.5-.3-.1-.5-.2-.7-.2s-.4 0-.7.1l-.2-1c.2-.1.3-.2.6-.3h.8c.3.2.6.3.9.5zm-2.4-1.2l.2 1.3.2.3v4.2l-.1.1v.8.8 1.6l-1.7-1v-9l1.4.9zm8.2 4.5c1 .5 1.6 1.1 2 1.7a3.6 3.6 0 0 1 .6 2c0 .6-.1 1-.4 1.1s-.7 0-1.4-.3l-3.2-1.8v-1.1l2.7 1.5c.3.1.4.2.5.1s.1-.2.1-.5-.1-.6-.2-.8-.4-.4-.8-.6c-.3-.2-.6-.3-.7-.3-.2 0-.3.1-.4.3s-.1.6-.1 1.1a4.9 4.9 0 0 0 .1 1.3c.1.3.2.6.4.8a5.7 5.7 0 0 0 .8.7c.3.1.6.3 1 .5l1.2.6.2 1.3c-.2 0-.5-.1-.8-.1s-.6-.2-.9-.4c-.3-.1-.6-.3-.9-.4-.7-.4-1.3-.9-1.7-1.3-.4-.5-.8-1.1-.9-1.7-.2-.6-.3-1.3-.3-2.1 0-.9.1-1.5.3-1.9s.5-.6.9-.5c.6.2 1.2.4 1.9.8zm5.5.6v7.1c0 .2.1.4.2.6s.3.3.5.4l.5.3.2 1.4c-.1 0-.2 0-.4-.1s-.3-.1-.5-.2-.3-.2-.4-.2c-.5-.3-.9-.7-1.2-1.1-.3-.5-.4-1-.4-1.5v-7.6l1.5.9zm3.7 4.9v6.5l-1.7-1v-6.5l1.7 1zm-.4-3.1c.3.2.5.5.5.9v.7c0 .4-.2.5-.5.3l-.7-.4c-.3-.2-.5-.5-.5-.9v-.7c0-.4.2-.5.5-.3l.7.4zm5.8 6c1.1.6 1.6 1.5 1.6 2.7v4.9l-1.7-1v-4.3c0-.3 0-.5-.1-.7s-.2-.3-.5-.4a6.9 6.9 0 0 0-.8-.3c-.3 0-.6-.1-1-.1l-.1-1.1c.4-.2.8-.2 1.2-.2.6.1 1 .3 1.4.5zm-2.6-1.3l.2 1.4.1.3v5l-1.7-1v-6.5l1.4.8zm8.2 4.5c1 .5 1.6 1.1 2 1.7a3.6 3.6 0 0 1 .6 2c0 .6-.1 1-.4 1.1s-.7 0-1.4-.3l-3.2-1.8v-1.1l2.7 1.5c.3.1.4.2.5.1s.1-.2.1-.5-.1-.6-.2-.8-.4-.4-.8-.6c-.3-.2-.6-.3-.7-.3-.2 0-.3.1-.4.3s-.1.6-.1 1.1 0 1 .1 1.3.2.6.4.8a5.7 5.7 0 0 0 .8.7c.3.1.6.3 1 .5l1.2.6.2 1.3c-.2 0-.5-.1-.8-.1-.3-.1-.6-.2-.9-.4-.3-.1-.6-.3-.9-.4-.7-.4-1.3-.9-1.7-1.3-.4-.5-.8-1.1-.9-1.7-.2-.6-.3-1.3-.3-2.1 0-.9.1-1.5.3-1.9s.5-.6.9-.5a7.7 7.7 0 0 1 1.9.8z" class="T"/></g></svg>