<svg xmlns="http://www.w3.org/2000/svg" viewBox="0 0 600 600" xmlns:v="https://vecta.io/nano"><style><![CDATA[.P{fill:#1b1c17}.Q{stroke:#0668e1}.R{fill:none}.S{fill:#0668e1}.T{stroke-width:.3}.U{stroke:#dcecff}.V{stroke-miterlimit:10}]]></style><defs><path id="A" d="M0 0h600v600H0z"/><path id="B" d="     M303,520.7L565.6,370c5.4-3.1,4.7-8.4-1.5-12l-166.9-95.7c-6.2-3.6-15.6-3.9-20.9-0.9L113.7,412.1c-5.4,3.1-4.7,8.4,1.5,12     l166.9,95.7C288.3,523.4,297.6,523.8,303,520.7L303,520.7z"/><path id="C" d="M372.5 300.5l9.6-5.5c1.2-.7 1.1-1.9-.3-2.8l-2.8-1.6c-1.4-.8-3.6-.9-4.8-.2l-9.6 5.5c-1.2.7-1.1 1.9.3 2.8l2.8 1.6c1.4.8 3.6.9 4.8.2z"/><path id="D" d="M357 309.4l9.6-5.5c1.2-.7 1.1-1.9-.3-2.8l-2.8-1.6c-1.4-.8-3.6-.9-4.8-.2l-9.6 5.5c-1.2.7-1.1 1.9.3 2.8l2.8 1.6c1.5.8 3.6.9 4.8.2z"/><path id="E" d="M387.2 308l8.9-5.1c.8-.5.7-1.3-.2-1.8l-8.4-4.8c-1-.5-2.4-.6-3.2-.1l-8.9 5.1c-.8.5-.7 1.3.2 1.8l8.4 4.8c.9.5 2.3.6 3.2.1z"/><path id="F" d="M378.9 328.8l8.9-5.1c.8-.5.7-1.3-.2-1.8l-8.4-4.8c-1-.5-2.4-.6-3.2-.1l-8.9 5.1c-.8.5-.7 1.3.2 1.8l8.4 4.8c1 .5 2.4.6 3.2.1z"/><path id="G" d="M289 380.4l8.9-5.1c.8-.5.7-1.3-.2-1.8l-8.4-4.8c-1-.5-2.4-.6-3.2-.1l-8.9 5.1c-.8.5-.7 1.3.2 1.8l8.4 4.8c.9.5 2.4.6 3.2.1z"/><path id="H" d="M243.2 423l8.9-5.1c.8-.5.7-1.3-.2-1.8l-8.4-4.8c-1-.5-2.4-.6-3.2-.1l-8.9 5.1c-.8.5-.7 1.3.2 1.8l8.4 4.8a4 4 0 0 0 3.2.1z"/><path id="I" d="M333.2 371.4l8.9-5.1c.8-.5.7-1.3-.2-1.8l-8.4-4.8c-1-.5-2.4-.6-3.2-.1l-8.9 5.1c-.8.5-.7 1.3.2 1.8l8.4 4.8c.9.5 2.3.5 3.2.1z"/><path id="J" d="M421.5 345.5l10-5.7c.5-.3.5-.8-.1-1.2l-2.8-1.6c-.6-.4-1.6-.4-2.1-.1l-10 5.7c-.5.3-.5.8.1 1.2l2.8 1.6c.6.4 1.6.4 2.1.1z"/><path id="K" d="M168 240.9v4.6l-1.2.7v-4.6l1.2-.7zm-.3-1.8c.2-.1.4-.1.4.2v.5c0 .3-.1.5-.4.6l-.5.3c-.2.1-.4.1-.4-.2v-.5c0-.3.1-.5.4-.6l.5-.3z"/><path id="L" d="M193.3 226.3c.7-.4 1.2-.5 1.5-.4s.4.4.4.9c0 .4-.1.8-.3 1.1a3 3 0 0 1-1 .9l-2.2 1.3v-.8l1.9-1.1c.2-.1.3-.2.3-.3.1-.1.1-.3.1-.4 0-.2-.1-.3-.2-.4-.1 0-.3 0-.5.2-.2.1-.4.3-.5.4s-.2.3-.3.5c0 .2-.1.5-.1.9s0 .7.1.8c.1.2.2.3.3.3s.3-.1.6-.2c.2-.1.4-.2.7-.4s.6-.4.8-.6l.1.8-.5.5c-.2.2-.4.3-.6.5-.2.1-.4.3-.6.4-.5.3-.9.4-1.2.5-.3 0-.5-.1-.7-.4-.1-.3-.2-.7-.2-1.2 0-.6.1-1.1.2-1.6.1-.4.4-.8.7-1.2a4 4 0 0 1 1.2-1z"/><path id="M" d="M223.6 207.2c.3-.2.4-.1.5.3l.2 5.8-1.1.7-.2-5.3-.1.1-.9 4.6c0 .3-.2.6-.5.7l-.8.4c-.3.2-.4.1-.5-.2l-.9-3.5-.1.1-.2 5.5-1.1.7.2-6.1c0-.4.2-.6.5-.8l1.2-.7c.3-.2.4-.1.5.2l.7 2.8c0 .1.1.3.1.4s0 .3.1.4l.1-.1c0-.2.1-.3.1-.5s.1-.3.1-.5l.7-3.7c.1-.3.2-.6.5-.7l.9-.6z"/><path id="N" d="M230.3 205.1c.8-.4 1.1-.2 1.1.6v3.5l-1.2.7v-3c0-.2 0-.3-.1-.4-.1 0-.2 0-.3.1-.2.1-.4.2-.5.4l-.7.7-.1-.7.9-1.2c.3-.3.6-.6.9-.7zm-1.8 1.1l.1.8.1.1v3.6l-1.2.7v-4.6l1-.6z"/><path id="O" d="M242.5 198.1c.7-.4 1.2-.5 1.5-.4s.4.4.4.9c0 .4-.1.8-.3 1.1a3 3 0 0 1-1 .9l-2.2 1.3v-.8l1.9-1.1c.2-.1.3-.2.3-.3.1-.1.1-.3.1-.4 0-.2-.1-.3-.2-.4-.1 0-.3 0-.5.2-.2.1-.4.3-.5.4s-.2.3-.3.5c0 .2-.1.5-.1.9s0 .7.1.8c.1.2.2.3.3.3s.3-.1.6-.2c.2-.1.4-.2.7-.4s.6-.4.8-.6l.1.8c-.2.2-.3.4-.5.5-.2.2-.4.3-.6.5-.2.1-.4.3-.6.4-.5.3-.9.4-1.2.5-.3 0-.5-.1-.7-.4-.1-.3-.2-.7-.2-1.2 0-.6.1-1.1.2-1.6.1-.4.4-.8.7-1.2s.7-.8 1.2-1z"/><path id="P" d="M248.9 192.6c.3-.2.6-.3.9-.5a3 3 0 0 1 1-.4l-.1 1c-.2.1-.5.3-.8.5s-.6.4-.9.5c-.2.1-.3.2-.4.2-.1.1-.2.1-.3.2s-.1.2-.1.3v.4c0 .2 0 .4.1.4h.5l1.1-.2c.5-.1.8 0 .9.2.2.2.3.5.3 1 0 .4 0 .7-.1 1a3 3 0 0 1-.4.8c-.2.2-.4.5-.6.7l-1 .7-.8.4c-.3.2-.7.3-1.2.5l.1-1.1c.3-.2.6-.3.8-.5l.6-.3c.2-.1.3-.2.4-.3.2-.1.4-.2.5-.3l.3-.3c0-.1.1-.3.1-.4 0-.2 0-.3-.1-.3 0-.1-.1-.1-.2-.1h-.3l-1.1.2c-.4.1-.7 0-.9-.2s-.3-.5-.3-1c0-.4 0-.7.1-1a3 3 0 0 1 .4-.8l.6-.6c.2-.3.5-.5.9-.7z"/><path id="Q" d="M235.5 213.3l.6-.3c.2-.1.5-.2.7-.3s.4-.2.6-.2l-.1.9c-.3.1-.5.3-.8.4s-.5.3-.8.4c-.2.1-.4.2-.5.3s-.2.1-.2.2-.1.2-.1.3 0 .2.1.2.2 0 .4-.1l1.1-.3c.3-.1.6-.1.8 0s.2.3.2.7-.1.7-.2 1-.3.5-.6.8c-.3.2-.6.5-1.1.7l-.8.4c-.3.2-.7.3-1.1.5l.1-.9c.1-.1.2-.1.4-.2s.3-.2.5-.3.4-.2.5-.3l.6-.4.3-.3c.1-.1.1-.2.1-.3s0-.2-.1-.2-.2 0-.4.1l-1 .3c-.3.1-.5.1-.6 0-.1 0-.2-.1-.3-.3-.1-.1-.1-.3-.1-.6s.1-.6.2-.9.3-.5.5-.7c.4-.1.7-.4 1.1-.6z"/><path id="R" d="M417.2 51.5c0 2.2 1.6 3.1 3.6 2a7.8 7.8 0 0 0 3.6-6.1c0-2.2-1.6-3.1-3.6-2a7.8 7.8 0 0 0-3.6 6.1z"/><path id="S" d="M249.9 337.8c.1-.1.2-.1.3-.1s.1 0 .2.1c0 .1.1.2.1.3v1.3l-.3.1v-.4h0v-.8c0-.1 0-.2-.1-.2 0 0-.1 0-.3.1-.1 0-.2.1-.3.2s-.2.2-.4.2v-.2c.1-.1.2-.1.2-.2.1-.1.2-.1.3-.2s.2-.2.3-.2zm.4.5v.3l-.8.4c-.1 0-.1.1-.2.2v.2.1c0 .1 0 .1.1.2h.2c.1 0 .1-.1.2-.2s.2-.2.2-.3c.1-.1.1-.2.2-.3v.2s-.1.1-.1.2-.1.2-.2.2c-.1.1-.1.2-.2.2-.1.1-.2.1-.2.2-.1.1-.2.1-.3.1s-.1 0-.2-.1c0-.1-.1-.1-.1-.2v-.2c0-.1 0-.3.1-.4l.3-.3 1-.5z"/><path id="T" d="M274.8 322c.1 0 .1 0 .1.1l.1 2.4-.3.2-.1-2.3h-.1l-.5 2.2c0 .1-.1.2-.1.2l-.3.2h-.1l-.5-1.6h-.1l-.1 2.4-.3.2.1-2.5c0-.1 0-.2.1-.2l.4-.2h.1l.4 1.3v.2.2h.1v-.2-.2l.4-1.8c0-.1.1-.2.1-.2l.6-.4z"/><path id="U" d="M277.6 321.2v.3h0v1.4l-.3.2v-1.9h.3zm.8-.5v.4l-.1.1c-.1.1-.2.1-.3.2s-.2.2-.3.4v-.2c.1-.2.2-.3.4-.5 0-.2.1-.3.3-.4h0z"/><path id="V" d="M288.8 315c.2-.1.3-.1.4 0s.1.3.1.7c0 .2 0 .4-.1.6 0 .2-.1.3-.2.4l-.3.3c-.1.1-.2.1-.3.1h-.3v-.2c.1 0 .2 0 .3-.1.1 0 .2-.1.2-.1.1-.1.2-.1.2-.2.1-.1.1-.2.1-.3v-.4-.4c0-.1-.1-.1-.1-.1h-.2c-.1 0-.2.1-.2.2-.1.1-.2.2-.3.4v-.2c.1-.1.1-.2.2-.3s.2-.2.2-.3c.1 0 .2-.1.3-.1zm-.7.4v.4h0v1.2.1.2.2.5l-.3.2v-2.6l.3-.2z"/><path id="W" d="M309.4 281.3c0-.7.5-1.6 1.1-1.9l6.1-3.5c.6-.4 1.1-.1 1.1.6v17.8l-8.3 4.8v-17.8z"/><path id="X" d="M312 301.3v2.1c0 .2 0 .4-.1.5s-.2.3-.3.3c0 0-.1 0-.1.1 0 0-.1 0-.1.1h-.1v-.3l.2-.1c.2-.1.3-.2.3-.4v-2.1l.2-.2z"/><path id="Y" d="M238.6 245c.3-.2.5-.2.6-.2.2 0 .3.2.3.4.1.2.1.6.1 1s0 .8-.1 1.1l-.3.8c-.2.2-.4.4-.6.5-.3.2-.5.2-.6.2-.2 0-.3-.2-.3-.4-.1-.2-.1-.6-.1-1s0-.8.1-1.1l.3-.8c.1-.2.3-.4.6-.5zm0 .4l-.3.3c-.1.1-.1.2-.2.3 0 .1-.1.3-.1.5v.7.6c0 .2.1.3.1.4.1.1.1.1.2.1s.2 0 .3-.1.2-.2.3-.2c.1-.1.1-.2.2-.4.1-.1.1-.3.1-.5v-.7-.6c0-.2-.1-.3-.1-.4-.1-.1-.1-.1-.2-.1s-.2.1-.3.1z"/><path id="Z" d="M238.8 316.1c.3-.2.5-.2.6-.2.2 0 .3.2.3.4.1.2.1.6.1 1s0 .8-.1 1.1l-.3.8c-.2.2-.4.4-.6.5-.3.2-.5.2-.6.2-.2 0-.3-.2-.3-.4-.1-.2-.1-.6-.1-1s0-.8.1-1.1l.3-.8c.2-.2.4-.3.6-.5zm0 .4l-.3.3c-.1.1-.1.2-.2.3 0 .1-.1.3-.1.5v.7.6c0 .2.1.3.1.4.1.1.1.1.2.1s.2 0 .3-.1.2-.2.3-.2c.1-.1.1-.2.2-.4.1-.1.1-.3.1-.5v-.7-.6c0-.2-.1-.3-.1-.4s-.1-.1-.2-.1c0 0-.1.1-.3.1z"/><path id="a" d="M203.6 338.9c.2-.1.4-.2.5-.1.1 0 .2.1.2.3s0 .3-.1.4l-.3.3-.9.5v-.2l.8-.5c.1 0 .1-.1.1-.2v-.2c0-.1 0-.2-.1-.2s-.1 0-.3.1c-.1.1-.2.1-.2.2-.1.1-.1.2-.1.3v.4.4c0 .1.1.1.1.1.1 0 .2 0 .3-.1.1 0 .2-.1.3-.2s.2-.1.3-.2v.2l-.2.2-.2.2c-.1.1-.1.1-.2.1-.2.1-.3.2-.4.2s-.2-.1-.2-.2c-.1-.1-.1-.3-.1-.5s0-.4.1-.6c0-.2.1-.3.2-.4s.2-.2.4-.3z"/><path id="b" d="M176.8 354.4v.3h0v1.4l-.3.2v-1.8l.3-.1zm.7-.5v.3l-.1.1c-.1 0-.2.1-.3.2s-.2.2-.3.4v-.2c.1-.2.2-.3.3-.4.1-.2.2-.3.4-.4h0z"/><path id="c" d="M208.9 267.7v2.3c0 .1 0 .1.1.2h.2l.3-.2.1.4c-.1 0-.1.1-.2.2l-.2.2c-.1 0-.1.1-.2.1-.2.1-.3.1-.4.1-.1-.1-.2-.2-.2-.4v-2.4l.5-.5zm.6.3v.5l-1.6.9v-.4l.4-.3 1.2-.7z"/><path id="d" d="M197.3 275l.1.4h.1v1.8l-.6.4v-2.4l.4-.2zm1-.6l-.1.7-.2.1c-.1.1-.2.1-.3.2l-.4.4v-.4c.1-.2.3-.4.4-.6s.3-.3.4-.4h.2z"/><path id="e" d="M184.4 282.4v2.4l-.6.4v-2.4l.6-.4zm-.2-.9c.1-.1.2 0 .2.1v.3c0 .1-.1.2-.2.3l-.3.2c-.1.1-.2 0-.2-.1v-.3c0-.1.1-.2.2-.3l.3-.2z"/></defs><clipPath id="f"><use href="#A"/></clipPath><g clip-path="url(#f)"><path d="M280.2 12a39.3 39.3 0 0 1 39.5 0l219.8 126.9c12.2 7.1 19.8 20.1 19.8 34.2v253.8a39.6 39.6 0 0 1-19.2 33.9l-.6.3L319.8 588a39.3 39.3 0 0 1-39.5 0L60.4 461.1C48.2 454 40.7 441 40.6 426.9V173.1c0-14.1 7.5-27.2 19.8-34.2L280.2 12z" fill="#bfd8f7" fill-opacity=".2" class="Q"/><linearGradient id="g" gradientUnits="userSpaceOnUse" x1="570" y1="398.3" x2="108.93" y2="398.3"><stop offset="0" stop-color="#a6ceff"/><stop offset="1" stop-color="#9cc5f8"/></linearGradient><path d="M110.8 414.8c3.1-1.3 265.5-146.1 265.5-146.1 5.4-3.1 14.7-2.7 20.9.9l171.2 92.5s2.4 4.4 1.4 8.9c-.7 3.3-1.7 4.6-3.2 5.7-.2.1-.5.3-.7.5-.1 0-.1.1-.2.1L303 527.9c-5.4 3.1-14.7 2.7-20.9-.9l-166.9-95.7c-.4-.2-.8-.5-1.2-.7-.1-.1-.2-.1-.3-.2-.2-.2-.5-.3-.7-.5-2.6-2.1-3.6-4.6-4.1-7.8-.4-3.5 1.9-7.3 1.9-7.3h0z" fill="url(#g)"/><linearGradient id="h" gradientUnits="userSpaceOnUse" x1="492.73" y1="96.44" x2="263.63" y2="537.42"><stop offset="0" stop-color="#fff"/><stop offset="1" stop-color="#d4e7fe"/></linearGradient><path d="M303 520.7L565.6 370c5.4-3.1 4.7-8.4-1.5-12l-166.9-95.7c-6.2-3.6-15.6-3.9-20.9-.9L113.7 412.1c-5.4 3.1-4.7 8.4 1.5 12l166.9 95.7c6.2 3.6 15.5 4 20.9.9h0z" fill="url(#h)"/><linearGradient id="i" gradientUnits="userSpaceOnUse" x1="523.43" y1="284.31" x2="155.89" y2="497.84"><stop offset="0" stop-color="#bdd2f4"/><stop offset="1" stop-color="#e5faff"/></linearGradient><use href="#B" stroke="url(#i)" class="R T V"/><use href="#B" stroke="url(#i)" class="R T V"/><linearGradient id="j" gradientUnits="userSpaceOnUse" x1="912.42" y1="24.3" x2="652.77" y2="175.14"><stop offset="0" stop-color="#bdd2f4"/><stop offset="1" stop-color="#e7f2ff"/></linearGradient><path d="M376.7 288c-1.1 0-2.2.2-2.9.6L160.1 411.2h0c-.7.4-1 .9-.9 1.4s.5 1.1 1.4 1.6l79.4 45.6c.9.5 2.1.8 3.2.9 1.1 0 2.2-.2 2.9-.6l213.7-122.6h0c.7-.4 1-.9.9-1.4s-.5-1.1-1.4-1.6l-79.4-45.6h0c-.9-.5-2.1-.8-3.2-.9z" fill="url(#j)" stroke="#a9d0ff" stroke-width=".94"/><linearGradient id="k" gradientUnits="userSpaceOnUse" x1="629.41" y1="286.22" x2="548.27" y2="333.36"><stop offset="0" stop-color="#bdd2f4"/><stop offset="1" stop-color="#d3e7ff"/></linearGradient><path d="M383.3 462.9l81.4-46.7-59-33.8-81.4 46.7 59 33.8z" fill="url(#k)"/><linearGradient id="l" gradientUnits="userSpaceOnUse" x1="236.45" y1="315.74" x2="247.26" y2="335.59"><stop offset="0" stop-color="#0f042e"/><stop offset="1" stop-color="#1c1265"/></linearGradient><path d="M143.9 402.7l217.8-125-8.7-5-217.8 125 8.7 5z" fill="url(#l)"/><g fill="#244063"><use href="#C"/><use href="#D"/><path d="M341.6 318.2l9.6-5.5c1.2-.7 1.1-1.9-.3-2.8l-2.8-1.6c-1.4-.8-3.6-.9-4.8-.2l-9.6 5.5c-1.2.7-1.1 1.9.3 2.8l2.8 1.6c1.5.8 3.6.9 4.8.2zm-15.4 8.8l9.6-5.5c1.2-.7 1.1-1.9-.3-2.8l-2.8-1.6c-1.4-.8-3.6-.9-4.8-.2l-9.6 5.5c-1.2.7-1.1 1.9.3 2.8l2.8 1.6c1.5.9 3.6.9 4.8.2zm-15.4 8.9l9.6-5.5c1.2-.7 1.1-1.9-.3-2.8l-2.8-1.6c-1.4-.8-3.6-.9-4.8-.2l-9.6 5.5c-1.2.7-1.1 1.9.3 2.8l2.8 1.6c1.4.8 3.6.9 4.8.2zm-15.4 8.8l9.6-5.5c1.2-.7 1.1-1.9-.3-2.8l-2.8-1.6c-1.4-.8-3.6-.9-4.8-.2l-9.6 5.5c-1.2.7-1.1 1.9.3 2.8l2.8 1.6c1.4.8 3.6.9 4.8.2zm-15.4 8.9l9.6-5.5c1.2-.7 1.1-1.9-.3-2.8l-2.8-1.6c-1.4-.8-3.6-.9-4.8-.2L272 349c-1.2.7-1.1 1.9.3 2.8l2.8 1.6c1.5.8 3.7.9 4.9.2zm-15.4 8.8l9.6-5.5c1.2-.7 1.1-1.9-.3-2.8l-2.8-1.6c-1.4-.8-3.6-.9-4.8-.2l-9.6 5.5c-1.2.7-1.1 1.9.3 2.8l2.8 1.6c1.4.8 3.5.9 4.8.2zm-15.5 8.9l9.6-5.5c1.2-.7 1.1-1.9-.3-2.8l-2.8-1.6c-1.4-.8-3.6-.9-4.8-.2l-9.6 5.5c-1.2.7-1.1 1.9.3 2.8l2.8 1.6c1.5.8 3.6.9 4.8.2zm-15.4 8.8l9.6-5.5c1.2-.7 1.1-1.9-.3-2.8l-2.8-1.6c-1.4-.8-3.6-.9-4.8-.2l-9.6 5.5c-1.2.7-1.1 1.9.3 2.8l2.8 1.6c1.4.8 3.6.9 4.8.2zm-15.4 8.9l9.6-5.5c1.2-.7 1.1-1.9-.3-2.8l-2.8-1.6c-1.4-.8-3.6-.9-4.8-.2l-9.6 5.5c-1.2.7-1.1 1.9.3 2.8l2.8 1.6c1.4.8 3.6.9 4.8.2zm-15.4 8.8l9.6-5.5c1.2-.7 1.1-1.9-.3-2.8l-2.8-1.6c-1.4-.8-3.6-.9-4.8-.2l-9.6 5.5c-1.2.7-1.1 1.9.3 2.8l2.8 1.6c1.4.8 3.6.9 4.8.2zm-15.4 8.8l9.6-5.5c1.2-.7 1.1-1.9-.3-2.8l-2.8-1.6c-1.4-.8-3.6-.9-4.8-.2l-9.6 5.5c-1.2.7-1.1 1.9.3 2.8l2.8 1.6c1.4.9 3.5 1 4.8.2zm-15.5 8.9l9.6-5.5c1.2-.7 1.1-1.9-.3-2.8l-2.8-1.6c-1.4-.8-3.6-.9-4.8-.2l-9.6 5.5c-1.2.7-1.1 1.9.3 2.8l2.8 1.6c1.5.8 3.6.9 4.8.2z"/><use href="#E"/><path d="M393.7 320.3l15.9-9.1c1-.6.9-1.7-.3-2.4l-7.4-4.2a4.6 4.6 0 0 0-4.1-.2l-15.9 9.1c-1 .6-.9 1.7.3 2.4l7.4 4.2a4.6 4.6 0 0 0 4.1.2zm-21.9-3.5l8.9-5.1c.8-.5.7-1.3-.2-1.8l-8.4-4.8c-1-.5-2.4-.6-3.2-.1l-8.9 5c-.8.5-.7 1.3.2 1.8l8.4 4.8c1 .6 2.4.7 3.2.2z"/><use href="#F"/><path d="M363.9 337.4l8.9-5.1c.8-.5.7-1.3-.2-1.8l-8.4-4.8c-1-.5-2.4-.6-3.2-.1l-8.9 5.1c-.8.5-.7 1.3.2 1.8l8.4 4.8c1 .5 2.4.6 3.2.1zm-15 8.6l8.9-5.1c.8-.5.7-1.3-.2-1.8l-8.4-4.8c-1-.5-2.4-.6-3.2-.1l-8.9 5.1c-.8.5-.7 1.3.2 1.8l8.4 4.8c1 .5 2.4.6 3.2.1zm-14.9 8.6l8.9-5.1c.8-.5.7-1.3-.2-1.8l-8.4-4.8c-1-.5-2.4-.6-3.2-.1l-8.9 5.1c-.8.5-.7 1.3.2 1.8l8.4 4.8c.9.5 2.3.6 3.2.1zm-15 8.6l8.9-5.1c.8-.5.7-1.3-.2-1.8l-8.4-4.8c-1-.5-2.4-.6-3.2-.1l-8.9 5.1c-.8.5-.7 1.3.2 1.8l8.4 4.8c.9.5 2.3.6 3.2.1zm-15 8.6l8.9-5.1c.8-.5.7-1.3-.2-1.8l-8.4-4.8c-1-.5-2.4-.6-3.2-.1l-8.9 5.1c-.8.5-.7 1.3.2 1.8l8.4 4.8c.9.5 2.3.6 3.2.1z"/><use href="#G"/><path d="M274 389l8.9-5.1c.8-.5.7-1.3-.2-1.8l-8.4-4.8c-1-.5-2.4-.6-3.2-.1l-8.9 5.1c-.8.5-.7 1.3.2 1.8l8.4 4.8c.9.5 2.4.6 3.2.1zm-15 8.6l8.9-5.1c.8-.5.7-1.3-.2-1.8l-8.4-4.8c-1-.5-2.4-.6-3.2-.1l-8.9 5.1c-.8.5-.7 1.3.2 1.8l8.4 4.8c1 .5 2.4.6 3.2.1zm-15 8.6l8.9-5.1c.8-.5.7-1.3-.2-1.8l-8.4-4.8c-1-.5-2.4-.6-3.2-.1l-8.9 5.1c-.8.5-.7 1.3.2 1.8l8.4 4.8c1 .5 2.4.6 3.2.1zm-15 8.6l8.9-5.1c.8-.5.7-1.3-.2-1.8l-8.4-4.8c-1-.5-2.4-.6-3.2-.1l-8.9 5.1c-.8.5-.7 1.3.2 1.8l8.4 4.8c1 .5 2.4.6 3.2.1z"/><use href="#H"/><path d="M227.6 431.9l8.9-5.1c.8-.5.7-1.3-.2-1.8l-8.4-4.8c-1-.5-2.4-.6-3.2-.1l-8.9 5.1c-.8.5-.7 1.3.2 1.8l8.4 4.8c1 .5 2.4.6 3.2.1zm30.6-17.5l8.9-5.1c.8-.5.7-1.3-.2-1.8l-8.4-4.8c-1-.5-2.4-.6-3.2-.1l-8.9 5.1c-.8.5-.7 1.3.2 1.8l8.4 4.8a4 4 0 0 0 3.2.1zm15-8.6l8.9-5.1c.8-.5.7-1.3-.2-1.8l-8.4-4.8c-1-.5-2.4-.6-3.2-.1l-8.9 5.1c-.8.5-.7 1.3.2 1.8l8.4 4.8a4 4 0 0 0 3.2.1zm15-8.6l8.9-5.1c.8-.5.7-1.3-.2-1.8l-8.4-4.8c-1-.5-2.4-.6-3.2-.1l-8.9 5.1c-.8.5-.7 1.3.2 1.8l8.4 4.8a4 4 0 0 0 3.2.1zm15-8.6l8.9-5.1c.8-.5.7-1.3-.2-1.8l-8.4-4.8c-1-.5-2.4-.6-3.2-.1l-8.9 5.1c-.8.5-.7 1.3.2 1.8l8.4 4.8a4 4 0 0 0 3.2.1zm15-8.6l8.9-5.1c.8-.5.7-1.3-.2-1.8l-8.4-4.8c-1-.5-2.4-.6-3.2-.1l-8.9 5.1c-.8.5-.7 1.3.2 1.8l8.4 4.8a4 4 0 0 0 3.2.1z"/><use href="#I"/><path d="M348.2 362.8l8.9-5.1c.8-.5.7-1.3-.2-1.8l-8.4-4.8c-1-.5-2.4-.6-3.2-.1l-8.9 5.1c-.8.5-.7 1.3.2 1.8l8.4 4.8c.9.5 2.3.5 3.2.1zm14.9-8.6l8.9-5.1c.8-.5.7-1.3-.2-1.8l-8.4-4.8c-1-.5-2.4-.6-3.2-.1l-8.9 5.1c-.8.5-.7 1.3.2 1.8l8.4 4.8a4 4 0 0 0 3.2.1zm15-8.6l8.9-5.1c.8-.5.7-1.3-.2-1.8l-8.4-4.8c-1-.5-2.4-.6-3.2-.1l-8.9 5.1c-.8.5-.7 1.3.2 1.8l8.4 4.8a4 4 0 0 0 3.2.1zm14.2 8.1l8.9-5.1c.8-.5.7-1.3-.2-1.8l-8.4-4.8c-1-.5-2.4-.6-3.2-.1l-8.9 5.1c-.8.5-.7 1.3.2 1.8l8.4 4.8c1 .5 2.4.6 3.2.1zm-119.2 85.9l8.9-5.1c.8-.5.7-1.3-.2-1.8l-8.4-4.8c-1-.5-2.4-.6-3.2-.1l-8.9 5.1c-.8.5-.7 1.3.2 1.8l8.4 4.8c.9.5 2.4.6 3.2.1zm-15.2 8.7l8.9-5.1c.8-.5.7-1.3-.2-1.8l-8.4-4.8c-1-.5-2.4-.6-3.2-.1l-8.9 5.1c-.8.5-.7 1.3.2 1.8l8.4 4.8c1 .5 2.4.6 3.2.1zm-15.1 8.7l8.9-5.1c.8-.5.7-1.3-.2-1.8l-8.4-4.8c-1-.5-2.4-.6-3.2-.1l-8.9 5.1c-.8.5-.7 1.3.2 1.8l8.4 4.8c1 .5 2.4.6 3.2.1zm62.8-36l8.9-5.1c.8-.5.7-1.3-.2-1.8l-8.4-4.8c-1-.5-2.4-.6-3.2-.1l-8.9 5.1c-.8.5-.7 1.3.2 1.8l8.4 4.8a4 4 0 0 0 3.2.1zm-16.5 9.4l8.9-5.1c.8-.5.7-1.3-.2-1.8l-8.4-4.8c-1-.5-2.4-.6-3.2-.1l-8.9 5.1c-.8.5-.7 1.3.2 1.8l8.4 4.8c1 .5 2.4.6 3.2.1z"/><use href="#J"/><path d="M428.8 349.7l10-5.7c.5-.3.5-.8-.1-1.2l-2.8-1.6c-.6-.4-1.6-.4-2.1-.1l-10 5.7c-.5.3-.5.8.1 1.2l2.8 1.6c.6.4 1.6.4 2.1.1zm14.6-8.3l10-5.7c.5-.3.5-.8-.1-1.2l-2.8-1.6c-.6-.4-1.6-.4-2.1-.1l-10 5.7c-.5.3-.5.8.1 1.2l2.8 1.6c.6.4 1.5.4 2.1.1zm-29.7 17l10-5.7c.5-.3.5-.8-.1-1.2l-2.8-1.6c-.6-.4-1.6-.4-2.1-.1l-10 5.7c-.5.3-.5.8.1 1.2l2.8 1.6c.7.4 1.6.4 2.1.1zm-17.6 10.7l11.6-6.7c.9-.5.8-1.5-.3-2.1l-8-4.6c-1.1-.6-2.7-.7-3.6-.1l-11.6 6.7c-.9.5-.8 1.5.3 2.1l8 4.6c1.1.5 2.7.6 3.6.1zm-70.4 40.4l62-35.6c2-1.1 1.7-3.1-.6-4.4l-3.6-2c-2.3-1.3-5.7-1.5-7.7-.3l-62 35.6c-2 1.1-1.7 3.1.6 4.4l3.6 2c2.3 1.2 5.7 1.4 7.7.3zm51.8-47.3l8.9-5.1c.8-.5.7-1.3-.2-1.8l-8.4-4.8c-1-.5-2.4-.6-3.2-.1l-8.9 5.1c-.8.5-.7 1.3.2 1.8l8.4 4.8c1 .5 2.4.6 3.2.1zm-14.8 8.5l8.9-5.1c.8-.5.7-1.3-.2-1.8L363 359c-1-.5-2.4-.6-3.2-.1l-8.9 5.1c-.8.5-.7 1.3.2 1.8l8.4 4.8c1 .5 2.4.6 3.2.1zm-14.8 8.5l8.9-5.1c.8-.5.7-1.3-.2-1.8l-8.4-4.8c-1-.5-2.4-.6-3.2-.1l-8.9 5.1c-.8.5-.7 1.3.2 1.8l8.4 4.8c1 .5 2.4.6 3.2.1zm-14.8 8.5l8.9-5.1c.8-.5.7-1.3-.2-1.8l-8.4-4.8c-1-.5-2.4-.6-3.2-.1l-8.9 5.1c-.8.5-.7 1.3.2 1.8l8.4 4.8c1 .5 2.4.6 3.2.1zm-14.8 8.5l8.9-5.1c.8-.5.7-1.3-.2-1.8l-8.4-4.8c-1-.5-2.4-.6-3.2-.1l-8.9 5.1c-.8.5-.7 1.3.2 1.8l8.4 4.8a4 4 0 0 0 3.2.1zm-14.8 8.5l8.9-5.1c.8-.5.7-1.3-.2-1.8l-8.4-4.8c-1-.5-2.4-.6-3.2-.1l-8.9 5.1c-.8.5-.7 1.3.2 1.8l8.4 4.8a4 4 0 0 0 3.2.1zm-14.8 8.5l8.9-5.1c.8-.5.7-1.3-.2-1.8l-8.4-4.8c-1-.5-2.4-.6-3.2-.1l-8.9 5.1c-.8.5-.7 1.3.2 1.8l8.4 4.8a4 4 0 0 0 3.2.1zm-14.8 8.5l8.9-5.1c.8-.5.7-1.3-.2-1.8l-8.4-4.8c-1-.5-2.4-.6-3.2-.1l-8.9 5.1c-.8.5-.7 1.3.2 1.8l8.4 4.8a4 4 0 0 0 3.2.1zm-14.8 8.5l8.9-5.1c.8-.5.7-1.3-.2-1.8l-8.4-4.8c-1-.5-2.4-.6-3.2-.1l-8.9 5.1c-.8.5-.7 1.3.2 1.8l8.4 4.8a4 4 0 0 0 3.2.1zm-30.8 17.7l24.1-13.9c1.3-.7 1.1-2-.4-2.8l-6.5-3.7c-1.5-.8-3.7-.9-5-.2l-24.1 13.9c-1.3.7-1.1 2 .4 2.8l6.5 3.7c1.5.8 3.7.9 5 .2zM393.1 337l8.9-5.1c.8-.5.7-1.3-.2-1.8l-8.4-4.8c-1-.5-2.4-.6-3.2-.1l-8.9 5.1c-.8.5-.7 1.3.2 1.8l8.4 4.8a4 4 0 0 0 3.2.1zm14.8-8.5l15.5-8.9c1-.6.9-1.6-.3-2.3l-7.4-4.3a4.6 4.6 0 0 0-4.1-.2l-15.5 8.9c-1 .6-.9 1.6.3 2.3l7.4 4.3c1.3.7 3.1.8 4.1.2z"/><path d="M408.2 344.6l29-16.6c1.3-.7 1.1-2.1-.4-2.9l-6.3-3.6c-1.5-.9-3.8-1-5.1-.2l-29 16.6c-1.3.7-1.1 2.1.4 2.9l6.3 3.6c1.5.9 3.8 1 5.1.2zm-220.1 82.9l21.8 12.5c1.3.7 3.5.7 4.8 0l7.1-4.1c1.3-.8 1.3-2 0-2.7l-9.9-5.7c-1.3-.8-1.3-2 0-2.8l10.6-6.1c1.1-.6 1.1-1.7 0-2.3l-7.9-4.5c-1.1-.6-2.9-.6-3.9 0l-22.5 12.9c-1.4.8-1.5 2-.1 2.8h0zm168.3-101.9l8.9-5.1c.8-.5.7-1.3-.2-1.8l-8.4-4.8c-1-.5-2.4-.6-3.2-.1l-8.9 5.1c-.8.5-.7 1.3.2 1.8l8.4 4.8c1 .6 2.4.6 3.2.1zm-15.3 8.9l8.9-5.1c.8-.5.7-1.3-.2-1.8l-8.4-4.8c-1-.5-2.4-.6-3.2-.1l-8.9 5.1c-.8.5-.7 1.3.2 1.8l8.4 4.8a4 4 0 0 0 3.2.1zm-15.4 8.8l8.9-5.1c.8-.5.7-1.3-.2-1.8l-8.4-4.8c-1-.5-2.4-.6-3.2-.1l-8.9 5.1c-.8.5-.7 1.3.2 1.8l8.4 4.8c1 .5 2.4.6 3.2.1zm-15.3 8.8l8.9-5.1c.8-.5.7-1.3-.2-1.8l-8.4-4.8c-1-.5-2.4-.6-3.2-.1l-8.9 5.1c-.8.5-.7 1.3.2 1.8l8.4 4.8c.9.5 2.3.6 3.2.1zm-15.4 8.8l8.9-5.1c.8-.5.7-1.3-.2-1.8l-8.4-4.8c-1-.5-2.4-.6-3.2-.1l-8.9 5.1c-.8.5-.7 1.3.2 1.8l8.4 4.8c.9.5 2.4.6 3.2.1zm-15.4 8.8l8.9-5.1c.8-.5.7-1.3-.2-1.8l-8.4-4.8c-1-.5-2.4-.6-3.2-.1l-8.9 5.1c-.8.5-.7 1.3.2 1.8l8.4 4.8c1 .5 2.4.6 3.2.1zm-15.3 8.8l8.9-5.1c.8-.5.7-1.3-.2-1.8l-8.4-4.8c-1-.5-2.4-.6-3.2-.1l-8.9 5.1c-.8.5-.7 1.3.2 1.8l8.4 4.8c.9.5 2.3.6 3.2.1zm-15.4 8.8l8.9-5.1c.8-.5.7-1.3-.2-1.8l-8.4-4.8c-1-.5-2.4-.6-3.2-.1l-8.9 5.1c-.8.5-.7 1.3.2 1.8l8.4 4.8c.9.6 2.4.6 3.2.1zm-15.4 8.9l8.9-5.1c.8-.5.7-1.3-.2-1.8l-8.4-4.8c-1-.5-2.4-.6-3.2-.1l-8.9 5.1c-.8.5-.7 1.3.2 1.8l8.4 4.8a4 4 0 0 0 3.2.1zm-15.3 8.8l8.9-5.1c.8-.5.7-1.3-.2-1.8l-8.4-4.8c-1-.5-2.4-.6-3.2-.1l-8.9 5.1c-.8.5-.7 1.3.2 1.8l8.4 4.8c.9.5 2.3.5 3.2.1zM186 423.4l24.8-14.2c1.3-.7 1.1-2-.4-2.9l-6.4-3.7c-1.5-.9-3.7-.9-5-.2l-24.8 14.2c-1.3.7-1.1 2 .4 2.9l6.4 3.7c1.5.9 3.8 1 5 .2z"/></g><path d="M383.3 463.1l81.7-46.9-59.3-34-81.7 46.9 59.3 34zm81.1-46.9l-81.1 46.5-58.6-33.6 81.1-46.5 58.6 33.6z" stroke="#bed3f4" class="R T V"/><linearGradient id="m" gradientUnits="userSpaceOnUse" x1="-58.83" y1="396.22" x2="-350.94" y2="565.92"><stop offset="0" stop-color="#e5faff"/><stop offset="1" stop-color="#bdd2f4"/></linearGradient><path d="M100.8 415l271.3-155.7c3.6-2.1 7-6.4 8.5-11.1l.4-1.2 2-208.6c0-2.8-.9-4.8-2.6-5.8s-4-.8-6.4.6L98.9 191.1a18.8 18.8 0 0 0-6.4 6.7c-1.7 2.9-2.6 6.1-2.6 8.8l2 206.2.4.8c1.6 2.9 4.9 3.5 8.5 1.4h0zm271.3-165.9L100.9 404.7l-2-203.4L374 43.5l-1.9 205.6h0z" fill="url(#m)"/><linearGradient id="n" gradientUnits="userSpaceOnUse" x1="377.48" y1="54.01" x2="114.34" y2="379.83"><stop offset="0" stop-color="#3b92ff"/><stop offset="1" stop-color="#4f9eff"/></linearGradient><path d="M96.9 208.3L99 410.9c.8 1.5 2.5 1.8 4.4.7l271.3-155.7a6.1 6.1 0 0 0 1.6-1.2c1.2-1.2 2.2-2.8 2.8-4.5l2.1-205c1.1-4.3-.7-7.4-3.4-5.8L100.2 198.6s-.1.1-.2.1a9.7 9.7 0 0 0-3.1 9.6h0z" fill="url(#n)"/><linearGradient id="o" gradientUnits="userSpaceOnUse" x1="-55.01" y1="397.15" x2="-347.12" y2="566.85"><stop offset="0" stop-color="#1c1265"/><stop offset="1" stop-color="#0f042e"/></linearGradient><path d="M103.3 416.7L374.6 261c3.6-2.1 7-6.4 8.5-11.1l.4-1.2 2-208.6c0-2.8-.9-4.8-2.6-5.8s-4-.8-6.4.6L101.4 192.8a18.8 18.8 0 0 0-6.4 6.7c-1.7 2.9-2.6 6.1-2.6 8.8l2 206.2.4.8c1.6 3 4.9 3.5 8.5 1.4h0zm271.2-165.9L103.4 406.4l-2-203.4L376.5 45.2l-2 205.6z" fill="url(#o)"/><linearGradient id="p" gradientUnits="userSpaceOnUse" x1="205.2" y1="288.27" x2="282.68" y2="143.3"><stop offset="0" stop-color="#f5f5f5"/><stop offset=".05" stop-color="#c7c7c7"/><stop offset=".09" stop-color="#9c9c9c"/><stop offset=".14" stop-color="#777"/><stop offset=".2" stop-color="#565656"/><stop offset=".25" stop-color="#3b3b3b"/><stop offset=".32" stop-color="#252525"/><stop offset=".4" stop-color="#141414"/><stop offset=".49" stop-color="#080808"/><stop offset=".63" stop-color="#010101"/><stop offset="1"/></linearGradient><path d="M374.5 250.8l2-205.7L101.4 203c91.5 61.8 239.6 67.1 273.1 47.8z" opacity=".1" fill="url(#p)"/><g fill="#fff"><path d="M130.4 216.9v186.3c0 7.9 5.6 11.2 12.6 7.2l276.3-158.6c7-4 12.6-13.7 12.6-21.6V43.7c0-7.9-5.6-11.2-12.6-7.2L143 195.2c-7 4-12.6 13.7-12.6 21.7h0z"/><path d="M429.8 35.9c-2.2-1.2-5.2-1.1-8.7.9L144.8 195.4c-3.4 2-6.6 5.4-8.8 9.2-2.3 3.9-3.7 8.3-3.7 12.2v186.3c0 3.9 1.4 6.6 3.6 7.9 2.1 1.2 5.1 1.1 8.4-.7l.3-.2 276.3-158.6h0c3.4-2 6.6-5.4 8.8-9.2 2.3-3.9 3.7-8.3 3.7-12.2V43.7c-.1-3.9-1.5-6.6-3.6-7.8z" fill-opacity=".4" stroke-width=".47" class="Q"/></g><linearGradient id="q" gradientUnits="userSpaceOnUse" x1="141.76" y1="181.83" x2="421.29" y2="181.83"><stop offset="0" stop-color="#3790ff"/><stop offset="1" stop-color="#b2d2f8"/></linearGradient><path d="M141.8 244.8c0-4.1 2.9-9 6.4-11.1L414.6 80.2c3.7-2.1 6.7-.4 6.7 3.8v35.3a14.2 14.2 0 0 1-6.5 11.1L195.7 256.7S170 271.3 154 279.4c-12.3 6.2-12.3 4.7-12.3 4.7v-39.3z" fill="url(#q)"/><g fill="#fff"><path d="M160.6 243.3c.3-.2.6-.3.9-.5s.6-.3.9-.5.6-.3.8-.4l-.1 1.1-2.2 1.2-.3.3c-.1.1-.1.2-.1.4v3.3c0 .2 0 .3.1.3s.2 0 .3-.1l2.2-1.2.1 1c-.3.2-.5.4-.8.5-.3.2-.6.4-.9.5-.3.2-.6.4-.9.5-.4.2-.6.3-.9.1-.2-.1-.3-.4-.3-.7v-3.9c0-.4.1-.8.3-1.1.3-.3.6-.6.9-.8zm-1 3.2l3.4-1.9v1l-3.4 1.9v-1zm5.7-5.9v5.1c0 .2 0 .3.1.3s.2 0 .4-.1l.3-.2.1.9-.3.3c-.1.1-.2.2-.4.3s-.2.2-.3.2c-.4.2-.7.3-.9.2s-.3-.3-.3-.7v-5.4l1.3-.9z"/><use href="#K"/><path d="M174.1 237.3c.4-.2.6-.3.8-.1.2.1.3.4.3.8v3.5l-1.2.7v-3c0-.2 0-.3-.1-.4-.1 0-.2 0-.3.1s-.2.1-.3.2l-.3.3c-.1.1-.3.3-.4.5l-.1-.7c.3-.4.5-.8.8-1.1.3-.4.5-.6.8-.8zm-4.1 2.5l.1.8.1.1v3.6l-1.2.7v-4.6l1-.6zm1.6-1.1c.4-.2.6-.3.8-.1.2.1.3.4.3.8v3.5l-1.2.7v-3c0-.2 0-.3-.1-.4-.1 0-.2 0-.3.1s-.2.1-.3.2l-.3.3c-.1.1-.3.3-.4.5l-.1-.7c.3-.4.5-.8.8-1.1.3-.4.5-.6.8-.8zm5.8-3.2v4.6l-1.2.7v-4.6l1.2-.7zm-.3-1.8c.2-.1.4-.1.4.2v.5c0 .3-.1.5-.4.6l-.5.3c-.2.1-.4.1-.4-.2v-.5c0-.3.1-.5.4-.6l.5-.3zm4.2-.5c.8-.4 1.1-.2 1.1.6v3.5l-1.2.7v-3c0-.2 0-.3-.1-.4-.1 0-.2 0-.3.1-.2.1-.4.2-.5.4l-.7.7-.1-.7.9-1.2c.3-.3.6-.5.9-.7zm-1.9 1.2l.1.8.1.1v3.6l-1.2.7V235l1-.6zm6.1-3.6c.3-.2.6-.3.9-.3.2 0 .4 0 .5.2a2 2 0 0 1 .2.9v3.1l-1 .5-.2-.9-.1-.1v-1.9c0-.2-.1-.4-.1-.4-.1-.1-.3 0-.5.1s-.5.3-.8.5-.6.4-1 .6l-.1-.9c.2-.2.4-.3.7-.5l.8-.5c.3-.2.5-.3.7-.4zm1.1 1.3v.8l-1.8 1c-.1.1-.3.2-.3.3-.1.1-.1.2-.1.4v.2c0 .2 0 .3.1.3s.2 0 .4-.1c.1-.1.3-.2.5-.4s.3-.4.5-.6.3-.4.4-.7v.6c0 .1-.1.3-.2.5s-.2.4-.4.6c-.1.2-.3.4-.5.6s-.4.4-.7.5c-.2.1-.5.2-.7.2s-.4 0-.5-.2c-.1-.1-.2-.3-.2-.6v-.5c0-.4.1-.7.3-1s.5-.6.9-.8l2.3-1.1zm3-4.8v4.4c0 .2 0 .3.1.3s.2 0 .3-.1l.5-.3.1.9c-.1.1-.2.2-.4.3-.1.1-.3.2-.4.3s-.3.2-.4.2c-.4.2-.6.3-.9.2-.2-.1-.3-.4-.3-.8V228l1.4-.7zm1.1.6v.9l-3 1.7v-.9l.8-.5 2.2-1.2z"/><use href="#L"/><path d="M199 221.3v4.8c0 .2 0 .3.1.3s.2 0 .3-.1l2-1.1.1 1-1.2.8c-.4.3-.8.5-1.2.7s-.7.3-.9.2-.3-.4-.3-.8V222l1.1-.7z"/><path d="M204.2 220c.3-.2.6-.3.9-.3.2 0 .4 0 .5.2a2 2 0 0 1 .2.9v3.1l-1 .5-.2-.9-.1-.1v-1.9c0-.2-.1-.4-.1-.4-.1 0-.3 0-.5.1s-.5.3-.8.5-.6.4-1 .6l-.1-.9c.2-.2.4-.3.7-.5l.8-.5c.3-.1.5-.3.7-.4zm1.1 1.3v.8l-1.8 1c-.1.1-.3.2-.3.3-.1.1-.1.2-.1.4v.2c0 .2 0 .3.1.3s.2 0 .4-.1c.1-.1.3-.2.5-.4s.3-.4.5-.6.3-.4.4-.7v.6c0 .1-.1.3-.2.5s-.2.4-.4.6c-.1.2-.3.4-.5.6s-.4.4-.7.5c-.2.1-.5.2-.7.2s-.4 0-.5-.2c-.1-.1-.2-.3-.2-.6v-.5c0-.4.1-.7.3-1s.5-.6.9-.8l2.3-1.1zm3-3.6l.6-.3c.2-.1.5-.2.7-.3s.4-.2.6-.2l-.1.9c-.3.1-.5.3-.8.4s-.5.3-.8.4c-.2.1-.4.2-.5.3s-.2.1-.2.2-.1.2-.1.3 0 .2.1.2.2 0 .4-.1l1.1-.3c.3-.1.6-.1.8 0s.2.3.2.7-.1.7-.2 1-.3.5-.6.8c-.3.2-.6.5-1.1.7l-.8.4c-.3.2-.7.3-1.1.5l.1-.9c.1-.1.2-.1.4-.2s.3-.2.5-.3.4-.2.5-.3l.6-.4.3-.3c.1-.1.1-.2.1-.3s0-.2-.1-.2-.2 0-.4.1l-1 .3c-.3.1-.5.1-.6 0-.1 0-.2-.1-.3-.3-.1-.1-.1-.4-.1-.6 0-.3.1-.6.2-.9s.3-.5.5-.7c.3-.1.6-.4 1.1-.6zm4.3-3.7v4.4c0 .2 0 .3.1.3s.2 0 .3-.1l.5-.3.1.9c-.1.1-.2.2-.4.3-.1.1-.3.2-.4.3s-.3.2-.4.2c-.4.2-.7.3-.9.2s-.3-.4-.3-.8v-4.7l1.4-.7zm1.2.7v.9l-3 1.7v-.9l.8-.5 2.2-1.2zm3 0v.9l-2.4 1.4v-.9l2.4-1.4z"/><use href="#M"/><path d="M226.5 207.4v4.6l-1.2.7v-4.6l1.2-.7zm-.4-1.9c.2-.1.4-.1.4.2v.5c0 .3-.1.5-.4.6l-.5.3c-.2.1-.4.1-.4-.2v-.5c0-.3.1-.5.4-.6l.5-.3z"/><use href="#N"/><path d="M233.6 203.3v3c0 .2 0 .3.1.4.1 0 .2 0 .4-.1s.3-.2.5-.4.4-.4.6-.7l.1.7a5.3 5.3 0 0 1-.9 1.1 5.5 5.5 0 0 1-.9.7c-.8.4-1.1.2-1.1-.6V204l1.2-.7zm2.6-1.5v4.6l-.9.5-.1-.8-.2-.1v-3.6l1.2-.6zm2.6-2.8v4.4c0 .2 0 .3.1.3s.2 0 .3-.1l.5-.3.1.9c-.1.1-.2.2-.4.3-.1.1-.3.2-.4.3s-.3.2-.4.2c-.4.2-.7.3-.9.2s-.3-.4-.3-.8v-4.7l1.4-.7zm1.1.6v.9l-3 1.7v-.9l.8-.5 2.2-1.2z"/><use href="#O"/><use href="#P"/><path d="M252.9 192.2v3c0 .2 0 .3.1.4.1 0 .2 0 .4-.1s.3-.2.5-.4.4-.4.6-.7l.1.7c-.3.5-.6.8-.9 1.1a5.5 5.5 0 0 1-.9.7c-.8.4-1.1.2-1.1-.6v-3.5l1.2-.6zm2.6-1.5v4.6l-.9.5-.1-.8-.1-.1v-3.6l1.1-.6zm2-1.1l.1.8.1.1v3.6l-1.2.7v-4.6l1-.6zm1.9-1.3l-.1 1.3-.3.2c-.2.1-.4.3-.6.4-.2.2-.5.4-.8.7l-.1-.7.9-1.1c.3-.3.6-.6.8-.7l.2-.1zm3.3-1.8c.5-.3.9-.3 1.1 0s.3.8.3 1.6c0 .6-.1 1.1-.2 1.5s-.3.7-.5 1a2.7 2.7 0 0 1-.8.7c-.3.2-.6.3-.8.3-.3.1-.5 0-.7-.1l.1-.7c.2 0 .3-.1.5-.1s.3-.1.5-.2.3-.2.4-.3.2-.3.2-.5.1-.5.1-.9 0-.7-.1-.8c0-.2-.1-.3-.2-.3s-.2 0-.4.1-.3.2-.5.4c-.1.2-.3.4-.5.6l-.2-.5c.1-.2.2-.5.4-.7l.6-.6c.2-.2.4-.4.7-.5zm-1.7 1l.1.8.1.1v3 .1.6.6 1.1l-1.2.7v-6.4l1-.6zm4.8-2.7l.1.8.1.1v3.6l-1.2.7v-4.6l1-.6zm2-1.3l-.1 1.3-.3.2c-.2.1-.4.3-.6.4-.2.2-.5.4-.8.7l-.1-.7.9-1.1c.3-.3.6-.6.8-.7l.2-.1zm1.8-.9v4.6l-1.2.7v-4.6l1.2-.7zm-.3-1.9c.2-.1.4-.1.4.2v.5c0 .3-.1.5-.4.6l-.5.3c-.2.1-.4.1-.4-.2v-.5c0-.3.1-.5.4-.6l.5-.3zm2.9.3l.6-.3c.2-.1.5-.2.7-.3s.4-.2.6-.2l-.1.8c-.3.1-.5.3-.8.4s-.5.3-.8.4c-.2.1-.4.2-.5.3s-.2.1-.2.2-.1.2-.1.3 0 .2.1.2.2 0 .4-.1l1.1-.3c.3-.1.6-.1.8 0s.2.3.2.7-.1.7-.2 1-.3.5-.6.8c-.3.2-.6.5-1.1.7l-.8.4c-.3.2-.7.3-1.1.5l.1-.9c.1-.1.2-.1.4-.2s.3-.2.5-.3.4-.2.5-.3l.6-.4.3-.3c.1-.1.1-.2.1-.3s0-.2-.1-.2-.2 0-.4.1l-1 .3c-.3.1-.5.1-.6 0-.1 0-.2-.1-.3-.3-.1-.1-.1-.3-.1-.6s.1-.6.2-.9.3-.5.5-.7c.3 0 .6-.3 1.1-.5zm4.7-2.7c.7-.4 1.2-.5 1.5-.4s.4.4.4.9c0 .4-.1.8-.3 1.1a3 3 0 0 1-1 .9l-2.2 1.3v-.8l1.9-1.1c.2-.1.3-.2.3-.3.1-.1.1-.3.1-.4 0-.2-.1-.3-.2-.4-.1 0-.3 0-.5.2-.2.1-.4.3-.5.4s-.2.3-.3.5c0 .2-.1.5-.1.9s0 .7.1.8c.1.2.2.3.3.3s.3-.1.6-.2c.2-.1.4-.2.7-.4s.6-.4.8-.6l.1.8-.5.5c-.2.2-.4.3-.6.5-.2.1-.4.3-.6.4-.5.3-.9.4-1.2.5-.3 0-.5-.1-.7-.4-.1-.3-.2-.7-.2-1.2 0-.6.1-1.1.2-1.6.1-.4.4-.8.7-1.2a4 4 0 0 1 1.2-1zm4.2-2.4l.6-.3c.2-.1.5-.2.7-.3s.4-.2.6-.2l-.1.9c-.3.1-.5.3-.8.4s-.5.3-.8.4c-.2.1-.4.2-.5.3s-.2.1-.2.2-.1.2-.1.3 0 .2.1.2.2 0 .4-.1l1.1-.3c.3-.1.6-.1.8 0s.2.3.2.7-.1.7-.2 1-.3.5-.6.8c-.3.2-.6.5-1.1.7l-.8.4c-.3.2-.7.3-1.1.5l.1-.9c.1-.1.2-.1.4-.2s.3-.2.5-.3.4-.2.5-.3l.6-.4.3-.3c.1-.1.1-.2.1-.3s0-.2-.1-.2-.2 0-.4.1l-1 .3c-.3.1-.5.1-.6 0-.1 0-.2-.1-.3-.3-.1-.1-.1-.3-.1-.6s.1-.6.2-.9.3-.5.5-.7c.3-.1.7-.4 1.1-.6zm-118.9 77.8v5.9c0 .3-.1.6-.4.8l-.7.4c-.1.1-.2.1-.3.1s-.1-.1-.2-.2l-1.6-2.5c-.1-.1-.1-.2-.2-.4-.1-.1-.1-.3-.2-.4l-.1.1v.5.5 3.8l-1.2.7v-5.9c0-.3.1-.6.4-.8l.7-.4c.1-.1.2-.1.3-.1s.1.1.2.2l1.5 2.4c.1.1.1.2.2.4.1.1.1.3.2.4l.1-.1v-.5-.5-3.7l1.3-.7zm3 0c.5-.3.9-.4 1.2-.5.3 0 .5.1.7.4a3.9 3.9 0 0 1 .2 1.3c0 .6-.1 1.1-.2 1.5a1.9 1.9 0 0 1-.7 1.1c-.3.3-.7.6-1.2.9s-.9.4-1.2.5c-.3 0-.5-.1-.7-.4a3.9 3.9 0 0 1-.2-1.3c0-.6.1-1.1.2-1.5s.4-.8.7-1.1.7-.6 1.2-.9zm0 1c-.2.1-.4.3-.5.4s-.2.3-.3.6c0 .2-.1.5-.1.9s0 .7.1.8c0 .2.1.3.3.3.1 0 .3 0 .5-.2.2-.1.4-.3.5-.4.1-.2.2-.3.2-.6 0-.2.1-.5.1-.9s0-.7-.1-.8c0-.2-.1-.3-.2-.3-.2 0-.3.1-.5.2zm5.3-2.1v.9l-2.4 1.4v-.9l2.4-1.4zm2.8-5.4c.3-.2.6-.3.9-.5a3 3 0 0 1 1-.4l-.1 1c-.2.1-.5.3-.8.5s-.6.4-.9.5c-.2.1-.3.2-.4.2-.1.1-.2.1-.3.2s-.1.2-.1.3v.4c0 .2 0 .4.1.4h.5l1.1-.2c.5-.1.8 0 .9.2.2.2.3.5.3 1 0 .4 0 .7-.1 1a3 3 0 0 1-.4.8c-.2.2-.4.5-.6.7l-1 .7-.8.4c-.3.2-.7.3-1.2.5l.1-1.1c.3-.2.6-.3.8-.5l.6-.3c.2-.1.3-.2.4-.3.2-.1.4-.2.5-.3l.3-.3c0-.1.1-.3.1-.4 0-.2 0-.3-.1-.3 0-.1-.1-.1-.2-.1h-.3l-1.1.2c-.4.1-.7 0-.9-.2s-.3-.5-.3-1c0-.4 0-.7.1-1a3 3 0 0 1 .4-.8l.6-.6c.2-.3.5-.5.9-.7zm5.7-1.4c.8-.4 1.1-.2 1.1.6v3.5l-1.2.7v-3c0-.2 0-.3-.1-.4-.1 0-.2 0-.3.1-.2.1-.4.2-.5.4l-.7.7-.1-.7c.3-.5.6-.9.9-1.2s.6-.6.9-.7zm-1.6-.9v1.6.7c0 .2 0 .4-.1.6l.1.1v3.6l-1.2.7v-6.6l1.2-.7zm5.6-1.4c.5-.3.9-.4 1.2-.5.3 0 .5.1.7.4a3.9 3.9 0 0 1 .2 1.3c0 .6-.1 1.1-.2 1.5a1.9 1.9 0 0 1-.7 1.1c-.3.3-.7.6-1.2.9s-.9.4-1.2.5c-.3 0-.5-.1-.7-.4a3.9 3.9 0 0 1-.2-1.3c0-.6.1-1.1.2-1.5s.4-.8.7-1.1.7-.7 1.2-.9zm0 1c-.2.1-.4.3-.5.4s-.2.3-.3.6c0 .2-.1.5-.1.9s0 .7.1.8.1.3.3.3c.1 0 .3-.1.5-.2s.4-.3.5-.4.2-.3.2-.6c0-.2.1-.5.1-.9s0-.7-.1-.8c0-.2-.1-.3-.2-.3-.2 0-.3 0-.5.2zm9.1-6.2l-1 4.8c0 .1-.1.2-.1.4-.1.1-.2.2-.3.2l-.9.5c-.1.1-.2.1-.3.1s-.1-.1-.1-.2l-.4-2.4v-.4-.4l-.1.1v.4.4l-.4 2.9c0 .1-.1.3-.1.4l-.3.3-.9.5c-.1.1-.2.1-.3.1s-.1-.1-.1-.2l-1-3.7 1.2-.7.6 2.7c0 .1 0 .2.1.4v.4l.1-.1v-.4c0-.1 0-.3.1-.4l.4-2.8c0-.1.1-.2.1-.4l.3-.3.8-.4c.1-.1.2-.1.3 0 .1 0 .1.1.1.2l.4 2.3c0 .1 0 .2.1.3 0 .1 0 .2.1.4l.1-.1v-.4c0-.1 0-.3.1-.4l.6-3.3.8-.8zm4.5-4.5c.5-.3.9-.5 1.2-.5s.5 0 .6.3c.1.2.2.6.2 1.2a5.9 5.9 0 0 1-.2 1.4c-.1.4-.3.7-.6 1s-.7.6-1.1.8c-.2.1-.5.3-.7.4s-.5.2-.7.3-.4.1-.5.2c-.1 0-.2.1-.3.1v-.7l1-.6 1-.6c.2-.1.4-.3.5-.4s.2-.3.3-.5c0-.2.1-.4.1-.7s0-.5-.1-.6c0-.1-.1-.2-.3-.2-.1 0-.3.1-.5.2l-1.3.7c-.4.2-.6.4-.7.4l-.1-1c.2-.2.4-.3.6-.4s.4-.3.7-.4c.3 0 .6-.2.9-.4zm-.9.6v6.5l-1.2.7v-6.5l1.2-.7zm4.6-.8l.1.8.1.1v3.6l-1.2.7v-4.6l1-.6zm2-1.2l-.1 1.3-.3.2c-.2.1-.4.3-.6.4-.2.2-.5.4-.8.7l-.1-.7.9-1.1c.3-.3.6-.6.8-.7l.2-.1zm2.4-1.4c.7-.4 1.2-.5 1.5-.4s.4.4.4.9c0 .4-.1.8-.3 1.1a3 3 0 0 1-1 .9l-2.2 1.3v-.8l1.9-1.1c.2-.1.3-.2.3-.3.1-.1.1-.3.1-.4 0-.2-.1-.3-.2-.4-.1 0-.3 0-.5.2-.2.1-.4.3-.5.4s-.2.3-.3.5c0 .2-.1.5-.1.9s0 .7.1.8c.1.2.2.3.3.3s.3-.1.6-.2c.2-.1.4-.2.7-.4s.6-.4.8-.6l.1.8c-.2.2-.3.4-.5.5-.2.2-.4.3-.6.5-.2.1-.4.3-.6.4-.5.3-.9.4-1.2.5-.3 0-.5-.1-.7-.4-.1-.3-.2-.7-.2-1.2 0-.6.1-1.1.2-1.6.1-.4.4-.8.7-1.2s.7-.8 1.2-1zm4.1-2.4c.3-.2.6-.3.8-.3.3-.1.5 0 .7.1l-.1.7c-.2 0-.3.1-.5.1-.1 0-.3.1-.5.2s-.3.2-.4.3-.2.3-.2.5-.1.5-.1.9 0 .6.1.8c0 .2.1.2.2.3.1 0 .2 0 .4-.1.1-.1.3-.2.4-.3l.3-.3c.1-.1.2-.3.4-.5l.1.6a8.8 8.8 0 0 1-.6 1c-.3.3-.6.6-1 .8-.5.3-.9.3-1.1 0s-.3-.8-.3-1.6c0-.6.1-1.1.2-1.5s.3-.8.5-1c.1-.2.4-.5.7-.7zm2.5-3.2v6.6l-1 .5-.1-.8h-.1v-3-.2-.5-.6-1.3l1.2-.7zm2.2.6v4.6l-1.2.7v-4.6l1.2-.7zm-.3-1.8c.2-.1.4-.1.4.2v.5c0 .3-.1.5-.4.6l-.5.3c-.2.1-.4.1-.4-.2v-.5c0-.3.1-.5.4-.6l.5-.3zm3.2.1c.1-.1.3-.2.5-.2.2-.1.3-.2.5-.2.2-.1.3-.1.5-.1l-.1.9-.6.3c-.2.1-.4.2-.5.3-.2.1-.4.3-.6.4-.1.2-.2.3-.3.6-.1.2-.1.5-.1.8s0 .6.1.8.2.2.3.2.3-.1.6-.2c.1-.1.2-.1.3-.2s.3-.2.4-.3c.2-.1.3-.2.5-.3l.1.8-.7.7-.8.5c-.5.3-.9.4-1.2.4s-.5-.1-.6-.4a3.9 3.9 0 0 1-.2-1.3c0-.6.1-1.1.2-1.5s.4-.8.7-1.1c.1-.4.5-.7 1-.9zm3.9-3.4v4.4c0 .2 0 .3.1.3s.2 0 .3-.1l.5-.3.1.9c-.1.1-.2.2-.4.3-.1.1-.3.2-.4.3s-.3.2-.4.2c-.4.2-.6.3-.9.2-.2-.1-.3-.4-.3-.8v-4.7l1.4-.7zm1.1.6v.9l-3 1.7v-.9l.8-.5 2.2-1.2zm1.9-1.1v4.6l-1.2.7v-4.6l1.2-.7zm-.4-1.8c.2-.1.4-.1.4.2v.5c0 .3-.1.5-.4.6l-.5.3c-.2.1-.4.1-.4-.2v-.5c0-.3.1-.5.4-.6l.5-.3zm3.3 0c.5-.3.9-.4 1.2-.5.3 0 .5.1.7.4a3.9 3.9 0 0 1 .2 1.3c0 .6-.1 1.1-.2 1.5a1.9 1.9 0 0 1-.7 1.1c-.3.3-.7.6-1.2.9s-.9.4-1.2.5c-.3 0-.5-.1-.7-.4a3.9 3.9 0 0 1-.2-1.3c0-.6.1-1.1.2-1.5s.4-.8.7-1.1.7-.6 1.2-.9zm0 1c-.2.1-.4.3-.5.4s-.2.3-.3.6c0 .2-.1.5-.1.9s0 .7.1.8c0 .2.1.3.3.3.1 0 .3-.1.5-.2s.4-.3.5-.4.2-.3.2-.6c0-.2.1-.5.1-.9s0-.7-.1-.8c0-.2-.1-.3-.2-.3-.1.1-.3.1-.5.2zm5.7-4.2c.8-.4 1.1-.2 1.1.6v3.5l-1.2.7v-3c0-.2 0-.3-.1-.4-.1 0-.2 0-.3.1-.2.1-.4.2-.5.4l-.7.7-.1-.7.9-1.2c.3-.3.6-.6.9-.7zm-1.8 1.1l.1.8.1.1v3.6l-1.2.7v-4.6l1-.6z"/><use href="#Q"/><path d="M245.9 205.6c.3-.2.4-.1.5.3l.2 5.8-1.1.7-.2-5.3-.1.1-.9 4.6c0 .3-.2.6-.5.7l-.8.4c-.3.2-.4.1-.5-.2l-.9-3.5-.1.1-.2 5.5-1.1.7.2-6.1c0-.4.2-.6.5-.8l1.2-.7c.3-.2.4-.1.5.2l.7 2.8c0 .1.1.3.1.4s0 .3.1.4l.1-.1c0-.2.1-.3.1-.5s.1-.3.1-.5l.7-3.7c.1-.3.2-.6.5-.7l.9-.6zm3.8-.4c.3-.2.6-.3.9-.3.2 0 .4 0 .5.2a2 2 0 0 1 .2.9v3.1l-1 .5-.2-.9-.1-.1v-1.9c0-.2-.1-.4-.1-.4-.1-.1-.3 0-.5.1s-.5.3-.8.5-.6.4-1 .6l-.1-.9c.2-.2.4-.3.7-.5l.8-.5c.2-.2.5-.3.7-.4zm1 1.2v.8l-1.8 1c-.1.1-.3.2-.3.3-.1.1-.1.2-.1.4v.2c0 .2 0 .3.1.3s.2 0 .4-.1c.1-.1.3-.2.5-.4s.3-.4.5-.6.3-.4.4-.7v.6c0 .1-.1.3-.2.5s-.2.4-.4.6c-.1.2-.3.4-.5.6s-.4.4-.7.5c-.2.1-.5.2-.7.2s-.4 0-.5-.2-.2-.3-.2-.6v-.5c0-.4.1-.7.3-1s.5-.6.9-.8l2.3-1.1zm2.9-3.5c.3-.2.6-.3.8-.3.3-.1.5 0 .7.1l-.1.7c-.2 0-.3.1-.5.1-.1 0-.3.1-.5.2s-.3.2-.4.3-.2.3-.2.5-.1.5-.1.9 0 .6.1.8c0 .2.1.2.2.3.1 0 .2 0 .4-.1.1-.1.3-.2.4-.3l.3-.3c.1-.1.2-.3.4-.5l.1.6c-.2.4-.4.7-.6 1-.3.3-.6.6-1 .8-.5.3-.9.3-1.1 0s-.3-.8-.3-1.6c0-.6.1-1.1.2-1.5s.3-.8.5-1c0-.3.3-.5.7-.7zm2.5-3.2v6.6l-1 .5-.1-.8h-.1v-3-.2-.5-.6-1.3l1.2-.7zm2.9.1c.7-.4 1.2-.5 1.5-.4s.4.4.4.9c0 .4-.1.8-.3 1.1a3 3 0 0 1-1 .9l-2.2 1.3v-.8l1.9-1.1c.2-.1.3-.2.3-.3.1-.1.1-.3.1-.4 0-.2-.1-.3-.2-.4-.1 0-.3 0-.5.2-.2.1-.4.3-.5.4s-.2.3-.3.5c0 .2-.1.5-.1.9s0 .7.1.8c.1.2.2.3.3.3s.3-.1.6-.2c.2-.1.4-.2.7-.4s.6-.4.8-.6l.1.8-.5.5c-.2.2-.4.3-.6.5-.2.1-.4.3-.6.4-.5.3-.9.4-1.2.5-.3 0-.5-.1-.7-.4-.1-.3-.2-.7-.2-1.2 0-.6.1-1.1.2-1.6.1-.4.4-.8.7-1.2a4 4 0 0 1 1.2-1zm5.7-5c.3-.2.6-.3.9-.5s.6-.3.9-.5.6-.3.8-.4l-.1 1.1-2.2 1.2-.3.3c-.1.1-.1.2-.1.4v3.3c0 .2 0 .3.1.3s.2 0 .3-.1l2.2-1.2.1 1c-.3.2-.5.4-.8.5-.3.2-.6.4-.9.5-.3.2-.6.4-.9.5-.4.2-.6.3-.9.1-.2-.1-.3-.4-.3-.7v-3.9c0-.4.1-.8.3-1.1s.5-.6.9-.8zm-1.1 3.2l3.4-1.9v1l-3.4 1.9v-1zm6.7-4.7c.3-.2.6-.3.9-.3.2 0 .4 0 .5.2a2 2 0 0 1 .2.9v3.1l-1 .5-.2-.9-.1-.1v-1.9c0-.2-.1-.4-.1-.4-.1-.1-.3 0-.5.1s-.5.3-.8.5-.6.4-1 .6l-.1-.9c.2-.2.4-.3.7-.5l.8-.5c.2-.1.5-.3.7-.4zm1 1.3v.8l-1.8 1c-.1.1-.3.2-.3.3-.1.1-.1.2-.1.4v.2c0 .2 0 .3.1.3s.2 0 .4-.1c.1-.1.3-.2.5-.4s.3-.4.5-.6.3-.4.4-.7v.6c0 .1-.1.3-.2.5s-.2.4-.4.6c-.1.2-.3.4-.5.6s-.4.4-.7.5c-.2.1-.5.2-.7.2s-.4 0-.5-.2c-.1-.1-.2-.3-.2-.6v-.5c0-.4.1-.7.3-1s.5-.6.9-.8l2.3-1.1zm3-3.6l.6-.3c.2-.1.5-.2.7-.3s.4-.2.6-.2l-.1.9c-.3.1-.5.3-.8.4s-.5.3-.8.4c-.2.1-.4.2-.5.3s-.2.1-.2.2-.1.2-.1.3 0 .2.1.2.2 0 .4-.1l1.1-.3c.3-.1.6-.1.8 0s.2.3.2.7-.1.7-.2 1-.3.5-.6.8c-.3.2-.6.5-1.1.7l-.8.4c-.3.2-.7.3-1.1.5l.1-.9c.1-.1.2-.1.4-.2s.3-.2.5-.3.4-.2.5-.3l.6-.4.3-.3c.1-.1.1-.2.1-.3s0-.2-.1-.2-.2 0-.4.1l-1 .3c-.3.1-.5.1-.6 0-.1 0-.2-.1-.3-.3-.1-.1-.1-.3-.1-.6s.1-.6.2-.9.3-.5.5-.7c.4-.1.7-.4 1.1-.6zm6.8-3.8l-1.4 5.5-.3.9c-.1.3-.3.6-.4.9l-.6.8a3.5 3.5 0 0 1-.9.6l-.1-.7.8-.8c.2-.3.3-.6.4-.9l.3-.8c0-.2.1-.4.1-.6s.1-.4.1-.6l.8-3.4 1.2-.9zm-3.2 1.8l.8 2.6c0 .1 0 .2.1.3 0 .1 0 .2.1.3l.2-.1-.4 1.1-.3.2c-.1.1-.2.1-.2 0-.1 0-.1-.1-.1-.2l-1.3-3.5 1.1-.7zm5.1-4.8v2.5l-.1 2-.9.5-.1-1.9v-2.5l1.1-.6zm-.4 5.4c.2-.1.3-.1.3-.1.1 0 .1.1.1.3v.4c0 .2 0 .3-.1.4l-.3.3-.3.2c-.2.1-.3.1-.3.1-.1 0-.1-.2-.1-.3v-.4c0-.2 0-.3.1-.4l.3-.3.3-.2z"/></g><path d="M132.1 216.9v12.3L433.6 56V43.7c0-7.9-5.6-11.2-12.6-7.2L144.7 195.2c-7 4-12.6 13.7-12.6 21.7h0z" class="S"/><use href="#R" fill="#f22071"/><path d="M402.7 59.8c0 2.2 1.6 3.1 3.6 2a7.8 7.8 0 0 0 3.6-6.1c0-2.2-1.6-3.1-3.6-2a7.8 7.8 0 0 0-3.6 6.1z" fill="#4bbc79"/><path d="M296.8 125.3l96.5-56.1c1.4-.8 2.6-3.1 2.6-5s-1.2-2.8-2.6-2l-96.5 56.1c-1.4.8-2.6 3.1-2.6 5s1.2 2.8 2.6 2z" fill="#dcdcdc"/><path d="M146.5 203.9a8 8 0 0 1 1.7-.8c.4-.1.7.1.9.4s.3.9.3 1.6a6 6 0 0 1-.3 2c-.2.5-.4 1-.8 1.4a7.4 7.4 0 0 1-1.6 1.2c-.3.2-.7.4-1 .6s-.6.3-.9.4-.5.2-.7.3-.3.1-.4.1v-1c.4-.3.9-.5 1.4-.8l1.4-.9c.3-.2.5-.4.7-.6s.3-.4.4-.7.1-.6.1-.9c0-.4 0-.7-.1-.8-.1-.2-.2-.2-.4-.2s-.4.1-.7.3l-1.8 1.1-1 .6-.2-1.3.9-.6.9-.6c.3-.3.7-.5 1.2-.8zm-1.3.9v9.1l-1.7 1v-9.1l1.7-1zm6.5-1.3l.2 1.2.2.1v5l-1.7 1v-6.5l1.3-.8zm2.7-1.8l-.2 1.9-.5.3-.8.6-1.1 1.1-.1-1 1.2-1.6c.4-.5.8-.8 1.2-1l.3-.3zm3.4-2c.9-.6 1.6-.8 2-.6.4.1.6.5.6 1.3 0 .6-.1 1.1-.4 1.6s-.7.9-1.4 1.3l-3.1 1.9v-1.1l2.7-1.6a1.2 1.2 0 0 0 .5-.5c.1-.2.1-.4.1-.6 0-.3-.1-.5-.2-.5s-.4 0-.7.3c-.3.2-.6.4-.7.6-.2.2-.3.5-.4.8s-.1.7-.1 1.2 0 .9.1 1.2c.1.2.2.4.4.4s.5-.1.8-.3l1-.6c.4-.3.8-.5 1.2-.8l.2 1.1c-.2.3-.5.5-.7.7-.3.2-.6.5-.9.7l-.8.6c-.7.4-1.3.6-1.7.7-.4 0-.7-.2-.9-.6s-.3-1-.3-1.8c0-.9.1-1.6.3-2.2s.5-1.2.9-1.6c.2-.8.8-1.2 1.5-1.6zm5.6-3.4l1.1-.5c.4-.1.7-.1 1 .1l-.1 1c-.2.1-.5.1-.7.2s-.4.2-.7.3c-.2.1-.4.3-.6.5-.1.2-.2.4-.3.8-.1.3-.1.8-.1 1.3s0 .9.1 1.1.2.3.3.4c.1 0 .3 0 .5-.2.2-.1.4-.2.5-.4.1-.1.3-.3.4-.5s.3-.4.5-.7l.1.9c-.2.5-.5 1-.9 1.5a4.9 4.9 0 0 1-1.3 1.2c-.7.4-1.2.4-1.5 0s-.5-1.2-.5-2.3c0-.9.1-1.6.2-2.2.2-.6.4-1.1.7-1.5.5-.4.8-.7 1.3-1zm3.5-4.6v9.2l-1.3.8-.2-1.1h-.2v-4.3l.1-.2c0-.2 0-.5-.1-.8v-.9-1.8l1.7-.9zm3.1.9v6.5l-1.7 1v-6.5l1.7-1zm-.5-2.6c.3-.2.5-.1.5.3v.7c0 .4-.2.7-.5.9l-.7.4c-.3.2-.5.1-.5-.3v-.7c0-.4.2-.7.5-.9l.7-.4zm4.5 0c.2-.1.4-.2.7-.4.2-.1.5-.2.7-.3s.5-.2.7-.2l-.2 1.3c-.3.2-.6.3-.9.5s-.5.3-.7.4l-.8.6c-.2.2-.3.5-.4.8s-.1.7-.1 1.2 0 .8.1 1.1c.1.2.2.3.4.3s.5-.1.8-.3c.1-.1.3-.2.5-.3s.4-.3.6-.4.4-.3.6-.5l.2 1.1c-.3.3-.6.7-1 1l-1.1.8c-.7.4-1.2.6-1.7.7-.4 0-.7-.2-.9-.6s-.3-1-.3-1.8a7.3 7.3 0 0 1 .3-2.2c.2-.6.5-1.2.9-1.6.3-.4.9-.8 1.6-1.2zm5.3-4.8v6.2c0 .2 0 .4.1.4s.3 0 .5-.1l.7-.4.2 1.2c-.1.1-.3.3-.5.4-.2.2-.4.3-.6.4s-.4.2-.5.3c-.5.3-.9.4-1.2.2-.3-.1-.4-.5-.4-1.1V186l1.7-.8zm1.6.8v1.3l-4.2 2.5v-1.2l1.1-.7 3.1-1.9zm3.5-2.2c.7-.4 1.3-.6 1.7-.7.4 0 .7.1.9.5s.3 1 .3 1.8a7.8 7.8 0 0 1-.3 2.2c-.2.6-.5 1.1-.9 1.6s-1 .9-1.7 1.3-1.3.6-1.7.7c-.4 0-.7-.1-.9-.5s-.3-1-.3-1.8a7.3 7.3 0 0 1 .3-2.2c.2-.6.5-1.2.9-1.6.5-.5 1-.9 1.7-1.3zm0 1.4c-.3.2-.5.4-.7.6s-.3.5-.4.8-.1.8-.1 1.3 0 .9.1 1.2c.1.2.2.4.4.4s.4-.1.7-.2c.3-.2.5-.4.7-.6s.3-.5.3-.8c.1-.3.1-.8.1-1.3s0-.9-.1-1.2-.2-.4-.3-.4-.4 0-.7.2zm5.4-4.5l.2 1.2.2.1v5l-1.7 1v-6.5l1.3-.8zm2.7-1.8l-.2 1.9-.5.3-.8.6-1.1 1.1-.1-1 1.2-1.6a5.3 5.3 0 0 1 1.2-1l.3-.3z" fill="#fff"/><path d="M241.8,237.5V338l161.4-92.7" stroke="#1b1c17" stroke-width=".32" stroke-linecap="square" class="R"/><linearGradient id="r" gradientUnits="userSpaceOnUse" x1="249.2" y1="330.58" x2="250.57" y2="332.98"><stop offset="0" stop-color="#3886e7"/><stop offset="1" stop-color="#03397c"/></linearGradient><path d="M246 333.7c0-.7.5-1.6 1.1-1.9l6.1-3.5c.6-.4 1.1-.1 1.1.6v1.9l-8.3 4.8v-1.9z" fill="url(#r)"/><g class="P"><path d="M248.6 337.8v2.1c0 .2 0 .4-.1.5s-.2.3-.3.3c0 0-.1 0-.1.1 0 0-.1 0-.1.1h-.1v-.3l.2-.1c.2-.1.3-.2.3-.4V338l.2-.2z"/><use href="#S"/><path d="M251.9 336.6c.3-.2.4-.1.4.3v1.4l-.3.2v-1.3c0-.1 0-.2-.1-.2h-.2c-.1.1-.2.1-.3.2s-.2.2-.3.4v-.2c.1-.2.2-.3.4-.5s.3-.3.4-.3zm-.7.4v.3h0v1.5l-.3.2v-1.9l.3-.1z"/></g><linearGradient id="s" gradientUnits="userSpaceOnUse" x1="259.14" y1="312.33" x2="266.01" y2="324.29"><stop offset="0" stop-color="#3886e7"/><stop offset="1" stop-color="#03397c"/></linearGradient><path d="M258.6 313.9c0-.7.5-1.6 1.1-1.9l6.1-3.5c.6-.4 1.1-.1 1.1.6v14.6l-8.3 4.8v-14.6z" fill="url(#s)"/><g class="P"><path d="M260.7 330.5c.1-.1.2-.1.3-.2s.2-.1.3-.2.2-.1.3-.2v.3l-.9.5c-.1 0-.1.1-.2.2v.2 2.1l-.3.2v-2.2c0-.2 0-.3.1-.4.2-.1.3-.2.4-.3zm-.4 1.4l1.2-.7v.3l-1.2.7v-.3z"/><path d="M262.7 330.1c.2-.1.4-.2.5-.2s.2.2.2.4 0 .3-.1.4l-.3.3-.9.5v-.3l.9-.5c.1 0 .1-.1.1-.2v-.2c0-.1 0-.2-.1-.2s-.2 0-.3.1-.2.1-.3.2-.1.2-.1.3v.4.4c0 .1.1.1.2.1s.2 0 .3-.1c.1 0 .2-.1.3-.2s.2-.1.3-.2v.2l-.2.2c-.1.1-.2.1-.2.2-.1.1-.2.1-.2.1-.2.1-.3.2-.5.2s-.2-.1-.3-.2-.1-.3-.1-.5 0-.5.1-.6c.1-.2.1-.3.2-.4.2.1.3-.1.5-.2zm2-1.1c.2-.1.3-.1.4 0s.1.3.1.7v.4c0 .1-.1.3-.1.4-.1.1-.1.2-.2.3s-.2.2-.4.3c-.1 0-.1.1-.2.1s-.1.1-.2.1-.1.1-.2.1h-.2l.3-.4h.2c.1 0 .1 0 .2-.1.1 0 .1-.1.2-.1.1-.1.2-.1.2-.2.1-.1.1-.2.1-.3v-.4-.4c0-.1-.1-.1-.1-.1-.1 0-.1 0-.2.1-.1 0-.2.1-.2.2-.1.1-.2.2-.3.4v-.2c.1-.1.1-.2.2-.3s.1-.2.2-.2c0-.3.1-.4.2-.4zm-.6-.4v.7.2.2h0v1.4l-.3.2v-2.6l.3-.1z"/></g><linearGradient id="t" gradientUnits="userSpaceOnUse" x1="257.41" y1="246.62" x2="293.12" y2="308.81"><stop offset="0" stop-color="#3886e7"/><stop offset="1" stop-color="#03397c"/></linearGradient><path d="M271.3 239.9c0-.7.5-1.6 1.1-1.9l6.1-3.5c.6-.3 1.1-.1 1.1.6v81.4l-8.3 4.8v-81.4z" fill="url(#t)"/><g class="P"><use href="#T"/><path d="M276.3 321.9c.1-.1.2-.1.3-.1s.2 0 .2.1.1.2.1.3v1.3l-.3.1v-.4h0v-.8c0-.1 0-.2-.1-.2 0 0-.1 0-.3.1-.1 0-.2.1-.3.2s-.2.2-.4.2v-.2c.1-.1.2-.1.2-.2.1-.1.2-.1.3-.2s.2-.2.3-.2zm.4.5v.3l-.8.4c-.1 0-.1.1-.2.2v.2.1c0 .1 0 .1.1.2h.2c.1 0 .1-.1.2-.2s.2-.2.2-.3c.1-.1.1-.2.2-.3v.2s-.1.1-.1.2-.1.2-.2.2c-.1.1-.1.2-.2.2-.1.1-.2.1-.2.2-.1.1-.2.1-.3.1s-.1 0-.2-.1c0-.1-.1-.1-.1-.2v-.2c0-.1 0-.3.1-.4l.3-.3 1-.5z"/><use href="#U"/></g><linearGradient id="u" gradientUnits="userSpaceOnUse" x1="275.59" y1="261.3" x2="300.32" y2="304.36"><stop offset="0" stop-color="#3886e7"/><stop offset="1" stop-color="#03397c"/></linearGradient><path d="M284 257.7c0-.7.5-1.6 1.1-1.9l6.1-3.5c.6-.3 1.1-.1 1.1.6v56l-8.3 4.8v-56z" fill="url(#u)"/><g class="P"><path d="M286.7 315.5c0-.1.1-.1 0 0h.1l.7 2.1-.3.2-.6-1.8v-.1-.1l-.1.1v.1.1l-.6 2.4-.3.2.7-2.9v-.1s0-.1.1-.1l.3-.1zm.4 1.2v.3l-1.2.7v-.3l1.2-.7z"/><use href="#V"/><path d="M290 314.3v.3h0v1.4l-.3.2v-1.9h.3zm.8-.5v.4l-.1.1c-.1.1-.2.1-.3.2s-.2.2-.3.4v-.2c.1-.2.2-.3.4-.5 0-.2.1-.3.3-.4h0z"/></g><linearGradient id="v" gradientUnits="userSpaceOnUse" x1="293.78" y1="276.18" x2="307.51" y2="300.11"><stop offset="0" stop-color="#3886e7"/><stop offset="1" stop-color="#03397c"/></linearGradient><path d="M296.7 275.8c0-.7.5-1.6 1.1-1.9l6.1-3.5c.6-.3 1.1-.1 1.1.6v30.5l-8.3 4.8v-30.5z" fill="url(#v)"/><g class="P"><path d="M300 307.3c.1 0 .1 0 .1.1l.1 2.4-.3.2-.1-2.3h-.1l-.5 2.2c0 .1-.1.2-.1.2l-.3.2h-.1l-.5-1.6h-.1l-.1 2.4-.3.2.1-2.5c0-.1 0-.2.1-.2l.4-.2h.1l.4 1.3v.2.2h.1v-.2-.2l.4-1.8c0-.1.1-.2.1-.2l.6-.4zm1.5-.1c.1-.1.2-.1.3-.1s.1 0 .2.1c0 .1.1.2.1.3v1.3l-.3.1v-.4h0v-.8c0-.1 0-.2-.1-.2 0 0-.1 0-.3.1-.1 0-.2.1-.3.2s-.2.2-.4.2v-.2c.1-.1.2-.1.2-.2.1-.1.2-.1.3-.2s.2-.2.3-.2zm.4.5v.3l-.8.4c-.1 0-.1.1-.2.2v.2.1c0 .1 0 .1.1.2h.2c.1 0 .1-.1.2-.2s.2-.2.2-.3c.1-.1.1-.2.2-.3v.2s-.1.1-.1.2-.1.2-.2.2c-.1.1-.1.2-.2.2-.1.1-.2.1-.2.2-.1.1-.2.1-.3.1s-.1 0-.2-.1c0-.1-.1-.1-.1-.2v-.2c0-.1 0-.3.1-.4l.3-.3 1-.5z"/><path d="M304 305.8l-.6 2.3c0 .1-.1.2-.1.3s-.1.2-.1.3c-.1.1-.1.2-.2.3s-.2.2-.3.2v-.2c.1-.1.2-.2.3-.4.1-.1.1-.2.2-.4l.1-.3c0-.1 0-.1.1-.2 0-.1 0-.1.1-.2l.4-1.6.1-.1zm-1.3.7l.4 1.1v.1.1h.1l-.1.3-.1.1h-.1l-.6-1.4.4-.3z"/></g><linearGradient id="w" gradientUnits="userSpaceOnUse" x1="309.21" y1="280.14" x2="317.45" y2="294.49"><stop offset="0" stop-color="#3886e7"/><stop offset="1" stop-color="#03397c"/></linearGradient><use href="#W" fill="url(#w)"/><g class="P"><use href="#X"/><path d="M312.8 301.6v1.3c0 .1 0 .2.1.2h.2c.1-.1.2-.1.3-.2s.2-.2.3-.4v.2c-.1.2-.2.3-.4.5-.1.1-.2.2-.4.3-.3.2-.4.1-.4-.3v-1.4l.3-.2zm1.1-.6v1.9l-.3.1v-.3h0v-1.5l.3-.2zm1.5-.9c.3-.2.4-.1.4.3v1.4l-.3.2v-1.3-.2h-.2c-.1.1-.2.1-.3.2s-.2.2-.3.4v-.2c.1-.2.2-.3.4-.5.1-.2.2-.3.3-.3zm-.7.4v.3h0v1.5l-.3.2v-1.9l.3-.1z"/></g><linearGradient id="x" gradientUnits="userSpaceOnUse" x1="323.28" y1="278.56" x2="328.77" y2="288.13"><stop offset="0" stop-color="#3886e7"/><stop offset="1" stop-color="#03397c"/></linearGradient><path d="M322.1 280.5c0-.7.5-1.6 1.1-1.9l6.1-3.5c.6-.4 1.1-.1 1.1.6v11.5l-8.3 4.8v-11.5z" fill="url(#x)"/><g class="P"><path d="M325.1 294.2v2.1c0 .2 0 .4-.1.5s-.2.3-.3.3c0 0-.1 0-.1.1 0 0-.1 0-.1.1h-.1v-.3l.2-.1c.2-.1.3-.2.3-.4v-2.1l.2-.2zm.8.3v1.3c0 .1 0 .2.1.2h.2c.1 0 .2-.1.3-.2s.2-.2.3-.4v.2c-.1.2-.2.3-.4.5-.1.1-.2.2-.4.3-.3.2-.4.1-.4-.3v-1.4l.3-.2zm1.1-.6v1.9l-.3.1v-.3h0v-1.5l.3-.2zm.8-1.3v2.1c0 .1 0 .1.1.1h.2l.2-.1v.2l-.1.1-.1.1s-.1 0-.1.1c-.1.1-.2.1-.3 0-.1 0-.1-.1-.1-.3v-2.2l.2-.1z"/></g><linearGradient id="y" gradientUnits="userSpaceOnUse" x1="334.59" y1="266.04" x2="342.83" y2="280.39"><stop offset="0" stop-color="#3886e7"/><stop offset="1" stop-color="#03397c"/></linearGradient><path d="M334.8 267.2c0-.7.5-1.6 1.1-1.9l6.1-3.5c.6-.4 1.1-.1 1.1.6v17.8l-8.3 4.8v-17.8z" fill="url(#y)"/><g class="P"><path d="M337.2 286.2h0 .1l.7 2.1-.3.2-.6-1.8v-.1-.1l-.1.1v.1.1l-.6 2.4-.3.2.7-2.9v-.1s0-.1.1-.1l.3-.1zm.4 1.3v.3l-1.2.7v-.3l1.2-.7z"/><path d="M338.7 286.1v1.3c0 .1 0 .2.1.2h.2c.1 0 .2-.1.3-.2s.2-.2.3-.4v.2c-.1.2-.2.3-.4.5-.1.1-.2.2-.4.3-.3.2-.4.1-.4-.3v-1.4l.3-.2zm1.1-.6v1.9l-.3.1v-.3h0v-1.4l.3-.3zm1.1-.7c.2-.1.3-.2.4-.2s.2 0 .2.1.1.2.1.3 0 .3-.1.4c0 .1-.1.2-.2.3s-.2.2-.4.3-.3.2-.4.2-.2 0-.2-.1-.1-.2-.1-.3 0-.3.1-.4c0-.1.1-.2.2-.3s.2-.2.4-.3zm0 .3c-.2.1-.3.2-.3.3-.1.1-.1.2-.1.3s0 .2.1.2.2 0 .3-.1c.2-.1.3-.2.3-.3.1-.1.1-.2.1-.3s0-.2-.1-.2c0-.1-.1 0-.3.1zm.9-.8v.2l-.4.3-.1-.2.5-.3zm-1.4 1.8l.2-.1c0 .1-.1.1-.1.2v.1h.1l.6-.2c.2-.1.3-.1.3 0 .1 0 .1.2.1.3 0 .2 0 .3-.1.4 0 .1-.1.2-.2.3s-.3.2-.5.3-.3.1-.4.2c-.1 0-.2.1-.2 0-.1 0-.1 0-.1-.1v-.2-.2c0-.1.1-.1.1-.2s.1-.1.2-.2l.2-.2h.1l-.2.2c0 .1-.1.1-.1.2s-.1.1-.1.1v.2.2h.1c.1 0 .2-.1.3-.1.1-.1.2-.1.3-.2s.1-.1.1-.2v-.2-.1h-.1s-.1 0-.2.1l-.6.2h-.2l-.1-.1v-.2c0-.1 0-.1.1-.2.4-.2.4-.2.4-.3z"/></g><linearGradient id="z" gradientUnits="userSpaceOnUse" x1="346.59" y1="255.83" x2="356.21" y2="272.58"><stop offset="0" stop-color="#3886e7"/><stop offset="1" stop-color="#03397c"/></linearGradient><path d="M347.5 256.6c0-.7.5-1.6 1.1-1.9l6.1-3.5c.6-.4 1.1-.1 1.1.6v21l-8.3 4.8v-21z" fill="url(#z)"/><g class="P"><path d="M349.7 279.3c.1-.1.2-.1.3-.2s.2-.1.4-.1v.3c-.1 0-.2.1-.3.2s-.2.1-.3.2c-.1 0-.1.1-.2.1s-.1.1-.1.1-.1.1-.1.2v.2c0 .1 0 .2.1.2h.2l.5-.1c.2-.1.3 0 .4 0 .1.1.1.2.1.4v.4c0 .1-.1.2-.1.3-.1.1-.1.2-.2.2-.1.1-.2.2-.4.2-.1 0-.2.1-.3.2s-.3.1-.4.2v-.3c.1-.1.2-.1.3-.2.1 0 .2-.1.2-.1.1 0 .1-.1.2-.1.1-.1.2-.1.3-.2s.1-.1.1-.2v-.3-.2s0-.1-.1-.1h-.2l-.5.1c-.2 0-.3 0-.4-.1s-.1-.2-.1-.4v-.4c0-.1.1-.2.1-.3.1-.1.1-.2.2-.2.1.1.2.1.3 0z"/><path d="M351.6 279c.2-.1.4-.2.5-.2s.2.2.2.4 0 .3-.1.4l-.3.3-.9.5v-.3l.9-.5c.1 0 .1-.1.1-.2v-.2c0-.1 0-.2-.1-.2s-.2 0-.3.1-.2.1-.3.2-.1.2-.1.3v.4.4c0 .1.1.1.2.1s.2 0 .3-.1c.1 0 .2-.1.3-.2s.2-.1.3-.2v.2l-.2.2c-.1.1-.2.1-.2.2-.1.1-.2.1-.2.1-.2.1-.3.2-.5.2-.1 0-.2-.1-.3-.2s-.1-.3-.1-.5 0-.5.1-.6.1-.3.2-.4c.2 0 .3-.1.5-.2zm2.1-1.2c.2-.1.3-.1.4 0s.1.3.1.7c0 .2 0 .4-.1.6 0 .2-.1.3-.2.4l-.3.3c-.1.1-.2.1-.3.1h-.3v-.2c.1 0 .2 0 .3-.1.1 0 .2-.1.2-.1.1-.1.2-.1.2-.2.1-.1.1-.2.1-.3v-.4-.4c0-.1-.1-.1-.1-.1h-.2c-.1 0-.2.1-.2.2-.1.1-.2.2-.3.4v-.2c.1-.1.1-.2.2-.3s.2-.2.2-.3c.1 0 .2-.1.3-.1zm-.7.4v.4h0v1.2.1.2.2.5l-.3.2v-2.6l.3-.2z"/></g><linearGradient id="AA" gradientUnits="userSpaceOnUse" x1="362.03" y1="259.94" x2="366.15" y2="267.12"><stop offset="0" stop-color="#3886e7"/><stop offset="1" stop-color="#03397c"/></linearGradient><path d="M360.2 262.3c0-.7.5-1.6 1.1-1.9l6.1-3.5c.6-.4 1.1-.1 1.1.6v8.3l-8.3 4.8v-8.3z" fill="url(#AA)"/><g class="P"><path d="M362.8 272.3c.2-.1.3-.2.4-.2s.2 0 .3.1.1.2.2.3v.6.7c0 .2-.1.4-.2.5s-.2.3-.3.4-.3.2-.4.3c-.2.1-.3.2-.4.2s-.2 0-.3-.1-.1-.2-.2-.3v-.6-.7c0-.2.1-.4.2-.5s.2-.3.3-.4.2-.2.4-.3zm0 .3c-.1.1-.3.2-.3.3-.1.1-.1.3-.2.4 0 .2-.1.4-.1.6 0 .3 0 .5.1.6 0 .1.1.2.2.2s.2 0 .3-.1.3-.2.3-.3c.1-.1.1-.3.2-.4 0-.2.1-.4.1-.6 0-.3 0-.5-.1-.6 0-.1-.1-.2-.2-.2s-.2 0-.3.1zm2.1-.8c.1 0 .1-.1.2-.1s.1-.1.2-.1h.2v.3c-.1 0-.2.1-.2.1-.1 0-.1.1-.2.1-.1.1-.2.1-.3.2s-.1.2-.2.3v.4.4c0 .1.1.1.2.1s.2 0 .3-.1c0 0 .1 0 .1-.1.1 0 .1-.1.2-.1s.1-.1.2-.1v.2c-.1.1-.2.2-.3.2-.1.1-.2.1-.3.2-.2.1-.3.2-.5.2-.1 0-.2-.1-.2-.2-.1-.1-.1-.3-.1-.5s0-.4.1-.6.1-.3.2-.4c0-.1.2-.2.4-.4zm1.3-1.2v1.9.2h.2l.2-.1v.2l-.1.1-.1.1-.1.1c-.1.1-.2.1-.3.1s-.1-.1-.1-.3V271l.3-.4zm.5.2v.3l-1.1.6v-.3l.3-.2.8-.4z"/></g><linearGradient id="AB" gradientUnits="userSpaceOnUse" x1="363.3" y1="205.63" x2="390.77" y2="253.47"><stop offset="0" stop-color="#3886e7"/><stop offset="1" stop-color="#03397c"/></linearGradient><path d="M372.9 201.4c0-.7.5-1.6 1.1-1.9l6.1-3.5c.6-.4 1.1-.1 1.1.6v61.2l-8.2 4.8-.1-61.2z" fill="url(#AB)"/><g class="P"><path d="M375.9 263.4v2.5c0 .1 0 .2-.1.2l-.3.2h-.1l-.1-.1-.7-1.3s0-.1-.1-.1c0-.1 0-.1-.1-.1h0v.2.2 1.9l-.3.2v-2.5c0-.1 0-.2.1-.2l.3-.2h.1l.1.1.7 1.3s0 .1.1.1c0 .1.1.1.1.2h.1v-.2-.2-1.8l.2-.4zm1.3 0c.2-.1.3-.2.5-.2.1 0 .2.1.2.2.1.1.1.3.1.5s0 .4-.1.6c0 .2-.1.3-.2.5-.1.1-.3.2-.5.4-.2.1-.3.2-.5.2-.1 0-.2-.1-.2-.2-.1-.1-.1-.3-.1-.5s0-.4.1-.6.1-.3.2-.5.3-.3.5-.4zm0 .3c-.1.1-.2.1-.3.2s-.1.2-.1.3v.4.4c0 .1.1.1.1.1.1 0 .2 0 .3-.1s.2-.1.3-.2.1-.2.1-.3v-.4-.4c0-.1-.1-.1-.1-.1-.1 0-.2.1-.3.1z"/><path d="M379.8 261.9l-.6 2.1v.1l-.1.1-.3.2h-.1l-.6-1.4.3-.2.4 1.1v.1.1h0v-.2-.2l.4-1.5.6-.3z"/></g><linearGradient id="AC" gradientUnits="userSpaceOnUse" x1="381.23" y1="219.91" x2="397.71" y2="248.61"><stop offset="0" stop-color="#3886e7"/><stop offset="1" stop-color="#03397c"/></linearGradient><path d="M385.5 218.7c0-.7.5-1.6 1.1-1.9l6.1-3.5c.6-.4 1.1-.1 1.1.6v36.9l-8.3 4.8v-36.9z" fill="url(#AC)"/><g class="P"><path d="M387.9 257.4c.2-.1.3-.2.4-.2s.2 0 .3.1.1.2.2.3c0 .2.1.4.1.6s0 .5-.1.7c0 .2-.1.4-.2.5s-.2.3-.3.4-.3.2-.4.3c-.2.1-.3.2-.4.2-.1.1-.3.1-.4.2l.1-.4c.1 0 .2-.1.3-.2s.2-.1.4-.2c.1-.1.3-.2.3-.3.1-.1.1-.2.2-.4 0-.2.1-.4.1-.6 0-.3 0-.5-.1-.6 0-.1-.1-.2-.2-.2s-.2 0-.3.1-.3.2-.4.2c-.1.1-.2.1-.3.2l-.1-.2c.1-.1.2-.2.4-.2.1-.2.2-.3.4-.3zm-.5.3v2.6l-.3.2v-2.6l.3-.2z"/><path d="M389.9 256.9c.2-.1.4-.2.5-.2s.2.2.2.4 0 .3-.1.4l-.3.3-.9.5v-.3l.9-.5c.1 0 .1-.1.1-.2v-.2c0-.1 0-.2-.1-.2s-.2 0-.3.1-.2.1-.3.2-.1.2-.1.3v.4.4c0 .1.1.1.2.1s.2 0 .3-.1c.1 0 .2-.1.3-.2s.2-.1.3-.2v.2l-.2.2c-.1.1-.2.1-.2.2-.1.1-.2.1-.2.1-.2.1-.3.2-.5.2-.1 0-.2-.1-.3-.2s-.1-.3-.1-.5 0-.5.1-.6c.1-.2.1-.3.2-.4.2.1.3-.1.5-.2z"/><path d="M391.7 255.9c.1 0 .1-.1.2-.1s.1-.1.2-.1h.2v.3c-.1 0-.2.1-.2.1-.1 0-.1.1-.2.1-.1.1-.2.1-.3.2s-.1.2-.2.3v.4.4c0 .1.1.1.2.1s.2 0 .3-.1c0 0 .1 0 .1-.1.1 0 .1-.1.2-.1s.1-.1.2-.1v.2c-.1.1-.2.2-.3.2-.1.1-.2.1-.3.2-.2.1-.3.2-.5.2-.1 0-.2-.1-.2-.2-.1-.1-.1-.3-.1-.5s0-.4.1-.6.1-.3.2-.4c.1-.2.2-.3.4-.4zM236.9 246c.1 0 .1-.1.1 0 0 0 .1 0 .1.1v.2l-.9 3.7-.4.3.8-3.3v-.2c0-.1 0-.1.1-.2l-1.5.9v-.4l1.7-1.1z"/><use href="#Y"/><path d="M236.5 260.5c.1 0 .2-.1.3-.1.1-.1.2-.1.4-.1v.4c-.1 0-.1.1-.2.1s-.1.1-.2.1-.1.1-.2.1c-.1.1-.3.2-.4.3s-.2.2-.2.3c-.1.1-.1.3-.1.5v.8.6c0 .2 0 .3.1.4 0 .1.1.1.2.1s.2 0 .3-.1c.2-.1.3-.2.4-.3s.1-.2.2-.4v-.5-.4c0-.1-.1-.1-.2-.1s-.2 0-.3.1-.2.1-.3.2-.2.2-.2.3c-.1.1-.2.3-.3.4v-.2c.1-.2.2-.4.3-.5s.2-.3.3-.4.2-.2.4-.3.4-.2.5-.2.2.1.3.2.1.3.1.6v.5c0 .2-.1.3-.1.5-.1.1-.2.3-.3.4s-.3.3-.5.4-.4.2-.5.2-.2 0-.3-.1-.1-.2-.2-.4v-.8c0-.4 0-.8.1-1 0-.3.1-.5.2-.7s.2-.4.4-.5c-.4-.2-.2-.3 0-.4zm2.4-1.4c.3-.2.5-.2.6-.2.2 0 .3.2.3.4.1.2.1.6.1 1s0 .8-.1 1.1l-.3.8c-.2.2-.4.4-.6.5-.3.2-.5.2-.6.2-.2 0-.3-.2-.3-.4-.1-.2-.1-.6-.1-1s0-.8.1-1.1l.3-.8c.1-.2.3-.4.6-.5zm0 .4l-.3.3c-.1.1-.1.2-.2.3 0 .1-.1.3-.1.5v.7.6c0 .2.1.3.1.4.1.1.1.1.2.1s.2 0 .3-.1.2-.2.3-.2c.1-.1.1-.2.2-.4.1-.1.1-.3.1-.5v-.7-.6c0-.2-.1-.3-.1-.4-.1-.1-.1-.1-.2-.1s-.2.1-.3.1zm-1.8 14.9v.4l-1.3.7v.9l.3-.2c.2-.1.4-.2.5-.2h.3c.1 0 .1.1.2.2 0 .1.1.3.1.4v.4c0 .1-.1.3-.1.4-.1.1-.2.3-.3.4s-.3.3-.5.4c-.1.1-.3.1-.4.2-.2.1-.3.1-.5.2v-.4c.1-.1.3-.1.4-.2s.3-.1.4-.2c.2-.1.3-.2.4-.3s.2-.2.2-.3.1-.3.1-.4v-.3c0-.1-.1-.1-.2-.1s-.2 0-.3.1-.3.1-.5.2l-.2.1h-.1v-.1l.1-1.6 1.4-.7zm1.6-1c.3-.2.5-.2.6-.2.2 0 .3.2.3.4.1.2.1.6.1 1s0 .8-.1 1.1l-.3.8c-.2.2-.4.4-.6.5-.3.2-.5.2-.6.2-.2 0-.3-.2-.3-.4-.1-.2-.1-.6-.1-1s0-.8.1-1.1l.3-.8c.1-.1.4-.3.6-.5zm0 .5l-.3.3c-.1.1-.1.2-.2.3 0 .1-.1.3-.1.5v.7.6c0 .2.1.3.1.4.1.1.1.1.2.1s.2 0 .3-.1.2-.2.3-.2c.1-.1.1-.2.2-.4s.1-.3.1-.5v-.7-.6c0-.2-.1-.3-.1-.4-.1-.1-.1-.1-.2-.1s-.2 0-.3.1zm-2.2 15.1l-.8 2.5v.2h.1l1.8-1v.3l-.4.3-1.7 1c-.1 0-.2.1-.2 0-.1 0-.1-.1-.1-.1v-.3l.9-2.6.4-.3zm.7.3v2.8l-.4.2V290l.1-.6.3-.1zm1.9-1.8c.3-.2.5-.2.6-.2.2 0 .3.2.3.4.1.2.1.6.1 1s0 .8-.1 1.1l-.3.8c-.2.2-.4.4-.6.5-.3.2-.5.2-.6.2-.2 0-.3-.2-.3-.4-.1-.2-.1-.6-.1-1s0-.8.1-1.1l.3-.8c.1-.2.3-.4.6-.5zm0 .4l-.3.3c-.1.1-.1.2-.2.3 0 .1-.1.3-.1.5v.7.6c0 .2.1.3.1.4.1.1.1.1.2.1s.2 0 .3-.1.2-.2.3-.2c.1-.1.1-.2.2-.4.1-.1.1-.3.1-.5v-.7-.6c0-.2-.1-.3-.1-.4-.1-.1-.1-.1-.2-.1s-.2 0-.3.1zm-3 15.5c.2-.1.4-.2.5-.2s.2 0 .3.1.1.2.1.4v.4c0 .1-.1.3-.1.4l-.3.3h0c.2-.1.3-.1.4 0s.1.3.1.5 0 .5-.1.6c-.1.2-.2.4-.3.5-.1.2-.3.3-.6.4-.2.1-.3.2-.5.3s-.3.1-.5.2v-.4c.1 0 .2-.1.3-.1s.2-.1.3-.1.2-.1.3-.2c.2-.1.3-.2.4-.3s.2-.2.2-.3.1-.3.1-.4v-.3c0-.1-.1-.1-.2-.1s-.2 0-.4.1l-.6.3v-.4l.6-.3c.1-.1.2-.1.3-.2s.1-.2.2-.2c0-.1.1-.2.1-.2v-.2c0-.1 0-.2-.1-.3 0-.1-.1-.1-.2 0-.1 0-.2.1-.4.2-.1.1-.3.2-.4.3s-.3.2-.4.2v-.4c.2-.1.3-.2.4-.3.3-.1.4-.2.5-.3zm2.7-1.5c.3-.2.5-.2.6-.2.2 0 .3.2.3.4.1.2.1.6.1 1s0 .8-.1 1.1l-.3.8c-.2.2-.4.4-.6.5-.3.2-.5.2-.6.2-.2 0-.3-.2-.3-.4-.1-.2-.1-.6-.1-1s0-.8.1-1.1l.3-.8c.1-.2.3-.4.6-.5zm0 .4l-.3.3c-.1.1-.1.2-.2.3 0 .1-.1.3-.1.5v.7.6c0 .2.1.3.1.4.1.1.1.1.2.1s.2 0 .3-.1.2-.2.3-.2c.1-.1.1-.2.2-.4.1-.1.1-.3.1-.5v-.7-.6c0-.2-.1-.3-.1-.4s-.1-.1-.2-.1-.2 0-.3.1zm-2.6 15.3c.2-.1.4-.2.5-.2h.3c.1.1.1.2.1.4v.4c0 .1-.1.3-.2.5l-.3.6-.9 1.6c.1-.1.2-.1.2-.2.1-.1.2-.1.2-.1l1-.6v.5l-2 1.2v-.3-.1s0-.1.1-.1l.9-1.6c.2-.3.3-.6.4-.9.1-.2.1-.4.1-.6 0-.1 0-.2-.1-.2h-.2c-.1 0-.2.1-.3.1-.1.1-.2.1-.3.2s-.2.1-.3.2-.2.1-.3.2v-.4c.1-.1.3-.2.4-.3s.2-.2.3-.2c.2 0 .3 0 .4-.1z"/><use href="#Z"/><path d="M237.1 331.4v3.5l-.4.3v-2.7-.2-.2l-.7.7-.1-.3.8-.8.4-.3zm1.8-1.1c.3-.2.5-.2.6-.2.2 0 .3.2.3.4.1.2.1.6.1 1s0 .8-.1 1.1l-.3.8c-.2.2-.4.4-.6.5-.3.2-.5.2-.6.2-.2 0-.3-.2-.3-.4-.1-.2-.1-.6-.1-1s0-.8.1-1.1l.3-.8c.2-.2.4-.3.6-.5zm0 .4l-.3.3c-.1.1-.1.2-.2.3 0 .1-.1.3-.1.5v.7.6c0 .2.1.3.1.4.1.1.1.1.2.1s.2 0 .3-.1.2-.2.3-.2c.1-.1.1-.2.2-.4.1-.1.1-.3.1-.5v-.7-.6c0-.2-.1-.3-.1-.4s-.1-.1-.2-.1c0 0-.1.1-.3.1z"/></g><path d="M151.7 289.4l67.8-38.9c2.8-1.6 5.1-.3 5.1 2.9V349c0 3.2-2.3 7.2-5.1 8.8l-67.8 38.9c-2.8 1.6-5.1.3-5.1-2.9v-95.6c0-3.3 2.3-7.2 5.1-8.8z" stroke="#9bc8ff" class="R T"/><g class="S"><path d="M199.2 334.3c.3-.2.6-.3.7-.2.1 0 .2.2.2.5 0 .2 0 .4-.1.6s-.2.3-.4.4l-1.2.7v-.4l1-.6c.1-.1.2-.1.2-.2v-.2c0-.1 0-.2-.1-.2s-.2 0-.3.1-.2.2-.3.2c-.1.1-.1.2-.2.3v.5c0 .2 0 .4.1.5 0 .1.1.1.2.1s.2 0 .3-.1.2-.1.4-.2c.1-.1.3-.2.4-.3l.1.3c-.1.1-.2.2-.3.2-.1.1-.2.2-.3.2-.1.1-.2.1-.3.2-.2.1-.5.2-.6.2-.2 0-.3-.1-.3-.2-.1-.1-.1-.4-.1-.6 0-.3 0-.6.1-.8l.3-.6c.1-.2.3-.3.5-.4zm-2 1.1c.2-.1.3-.1.4-.1.1.1.1.2.1.4v1.8l-.5.3v-1.6c0-.1 0-.2-.1-.2h-.2c-.1 0-.1.1-.2.1s-.1.1-.2.2-.1.2-.2.3v-.3c.1-.2.3-.4.4-.6.2-.1.3-.2.5-.3zm-2.2 1.3v.4h.1v1.8l-.5.3v-2.3l.4-.2zm.9-.5c.2-.1.3-.1.4-.1.1.1.1.2.1.4v1.8l-.5.3V337c0-.1 0-.2-.1-.2h-.2c-.1 0-.1.1-.2.1l-.2.2c-.1.1-.1.2-.2.3v-.3c.1-.2.3-.4.4-.6.2-.1.3-.2.5-.3zm-1.9 1.1v2.3l-.5.3v-2.3l.5-.3zm-.1-1c.1-.1.1 0 .1.1v.3c0 .1-.1.2-.1.3l-.2.1c-.1.1-.1 0-.1-.1v-.3c0-.1 0-.2.1-.3l.2-.1zm-1.6 1v3.3l-.5.3v-3.3l.5-.3zm.8-.5v.5l-2.3 1.3v-.5l2.3-1.3zm-6.1 3.5c.2-.1.3-.1.4-.1s.2.1.2.2.1.3.1.5 0 .4-.1.6c0 .2-.1.3-.2.4s-.2.2-.4.3-.3.1-.4.1-.2-.1-.2-.2-.1-.3-.1-.5 0-.4.1-.6c0-.2.1-.3.2-.4s.3-.2.4-.3zm0 .3c-.1 0-.1.1-.2.2 0 .1-.1.1-.1.3v.4.4c0 .1.1.1.1.1s.1 0 .2-.1c.1 0 .1-.1.2-.2 0-.1.1-.1.1-.3v-.4-.4c0-.1 0-.1-.1-.1 0 .1-.1.1-.2.1zm2.1-1.4l-1.8 4.3-.3.2 1.8-4.3.3-.2zm0 1.4c.2-.1.3-.1.4-.1s.2.1.2.2.1.3.1.5 0 .4-.1.6c0 .2-.1.3-.2.4s-.2.2-.4.3-.3.1-.4.1-.2-.1-.2-.2-.1-.3-.1-.5 0-.4.1-.6c0-.2.1-.3.2-.4s.2-.2.4-.3zm0 .3c-.1 0-.1.1-.2.2 0 .1-.1.1-.1.3v.4.4c0 .1.1.1.1.1s.1 0 .2-.1c.1 0 .1-.1.2-.2 0-.1.1-.2.1-.3v-.4-.4c0-.1-.1-.1-.1-.1-.1 0-.1 0-.2.1zm-4.2.6c.3-.2.5-.2.6-.2.2 0 .3.1.3.4.1.2.1.5.1.9s0 .8-.1 1.1-.2.5-.3.7c-.2.2-.4.4-.6.5-.3.2-.5.2-.6.2-.2 0-.3-.1-.3-.4-.1-.2-.1-.5-.1-.9s0-.8.1-1.1.2-.5.3-.7.3-.3.6-.5zm0 .5c-.1.1-.2.1-.3.2s-.1.2-.2.3c0 .1-.1.3-.1.4v.6.6c0 .1 0 .3.1.3 0 .1.1.1.2.1s.2 0 .3-.1.2-.1.3-.2.1-.2.2-.3c0-.1.1-.3.1-.4v-.6-.6c0-.1 0-.3-.1-.3 0-.1-.1-.1-.2-.1s-.2 0-.3.1zm-2.5 1c.2-.1.4-.2.5-.2h.3c.1.1.1.2.1.4v.4c0 .1-.1.3-.2.4l-.3.6-.8 1.4c.1-.1.1-.1.2-.1s.2-.1.2-.1l.9-.5v.5l-2 1.1v-.3-.1s0-.1.1-.1l.8-1.4c.2-.3.3-.6.4-.8s.1-.4.1-.5 0-.1-.1-.2h-.2c-.1 0-.1.1-.2.1-.1.1-.2.1-.3.2s-.2.1-.3.2-.2.1-.3.2v-.4c.1-.1.3-.2.4-.3s.2-.1.3-.2c.2-.2.3-.3.4-.3zm-3.2 2.7c.3-.2.6-.3.7-.2.1 0 .2.2.2.5 0 .2 0 .4-.1.6s-.2.3-.4.4l-1.2.7v-.4l1-.6c.1-.1.2-.1.2-.2v-.2c0-.1 0-.2-.1-.2s-.2 0-.3.1-.2.2-.3.2c-.1.1-.1.2-.2.3v.5c0 .2 0 .4.1.5 0 .1.1.1.2.1s.2-.1.3-.1c.1-.1.2-.1.4-.2.1-.1.3-.2.4-.3v.3c-.1.1-.2.2-.3.2-.1.1-.2.2-.3.2-.1.1-.2.1-.3.2-.3.1-.5.2-.6.2-.2 0-.3-.1-.3-.2-.1-.1-.1-.4-.1-.6 0-.3 0-.6.1-.8l.3-.6c.2-.1.3-.2.6-.4zm-1.2.8l-.7 2.6s0 .1-.1.1l-.1.1-.4.3h-.1s-.1 0-.1-.1l-.7-1.8.5-.3.4 1.3c0 .1 0 .1.1.2v.2h.1c0-.1 0-.2.1-.2 0-.1 0-.2.1-.2l.4-1.8.5-.4zm-3.3 1.8c.2-.1.3-.1.4-.2.1 0 .2 0 .3.1s.1.2.1.4v1.6l-.4.2-.1-.5h0v-1c0-.1 0-.2-.1-.2s-.1 0-.3.1c-.1.1-.2.1-.4.2s-.3.2-.5.3v-.4c.1-.1.2-.2.3-.2.1-.1.2-.2.4-.3.1 0 .2 0 .3-.1zm.5.7v.4l-.9.5-.2.2c0 .1-.1.1-.1.2v.1c0 .1 0 .2.1.2h.2c.1 0 .2-.1.2-.2l.3-.3c.1-.1.2-.2.2-.4v.3c0 .1-.1.1-.1.2-.1.1-.1.2-.2.3l-.3.3c-.1.1-.2.2-.3.2-.1.1-.2.1-.3.1s-.2 0-.2-.1c-.1-.1-.1-.2-.1-.3v-.2c0-.2.1-.4.2-.5.1-.2.3-.3.4-.4l1.1-.6z"/><path d="M172.2 348.8c.1-.1.3-.2.4-.2.2-.1.3-.1.5-.2v.4c-.1.1-.3.1-.4.2-.2.1-.3.2-.4.2-.1.1-.2.1-.2.1-.1 0-.1.1-.1.1s-.1.1-.1.2v.2c0 .1 0 .2.1.3h.3l.6-.1c.2-.1.4 0 .5.1s.1.3.1.5 0 .4-.1.5c0 .1-.1.3-.2.4l-.3.3c-.1.1-.3.2-.5.3-.1.1-.2.1-.4.2s-.4.2-.6.2v-.5c.2-.1.3-.2.4-.2.1-.1.2-.1.3-.2.1 0 .2-.1.2-.1.1-.1.2-.1.3-.2s.1-.1.1-.2v-.3-.2l-.1-.1h-.2l-.6.1c-.2 0-.4 0-.5-.1s-.1-.3-.1-.5 0-.4.1-.5c0-.1.1-.3.2-.4l.3-.3c.1.2.2.1.4 0z"/></g><g class="P"><use href="#a"/><path d="M202.1 339.8c.3-.2.4-.1.4.2v1.3l-.3.2v-1.2-.2h-.2c-.1.1-.2.1-.3.2s-.2.2-.3.4v-.2c.1-.2.2-.3.3-.4.2-.2.3-.3.4-.3zm-.7.4v.3h0v1.4l-.3.2v-1.8l.3-.1zm-.8.4v1.7l-.3.2v-1.8l.3-.1zm0-.7h0l.1.3c0 .1 0 .1-.1.2l-.1.1c-.1 0-.1 0-.1-.1v-.2c0-.1 0-.1.1-.2l.1-.1zm-.9.5v2c0 .1 0 .1.1.1h.2l.1-.1v.2l-.1.1-.1.1s-.1 0-.1.1c-.1.1-.2.1-.3 0-.1 0-.1-.1-.1-.3v-2.1l.3-.1zm-1.2 1.4s.1-.1.2-.1.1-.1.2-.1h.2v.2c-.1 0-.1.1-.2.1s-.1.1-.2.1c-.1.1-.2.1-.3.2s-.1.2-.1.3v.4.4c0 .1.1.1.1.1.1 0 .2 0 .3-.1 0 0 .1 0 .1-.1 0 0 .1-.1.2-.1s.1-.1.2-.1v.2c-.1.1-.2.2-.3.2-.1.1-.2.1-.3.2-.2.1-.3.2-.4.2s-.2-.1-.2-.2-.1-.3-.1-.5 0-.4.1-.6.1-.3.2-.4c0-.1.1-.2.3-.3zm-1.7 1c.2-.1.4-.2.5-.1.1 0 .2.1.2.3s0 .3-.1.4l-.3.3-.9.5v-.2l.8-.5c.1 0 .1-.1.1-.2v-.2c0-.1 0-.2-.1-.2s-.1 0-.3.1c-.1.1-.2.1-.3.2s-.1.2-.1.3v.4.4c0 .1.1.1.1.1.1 0 .2 0 .3-.1.1 0 .2-.1.3-.2s.2-.1.3-.2v.2c0 .1-.1.1-.2.2l-.2.2c-.1.1-.1.1-.2.1-.2.1-.3.2-.4.2s-.2-.1-.2-.2c-.1-.1-.1-.3-.1-.5s0-.4.1-.6.1-.3.2-.4c.2-.1.3-.2.5-.3zm-1.9 1.1c.1-.1.2-.1.3-.1h.3v.2c-.1 0-.2 0-.2.1-.1 0-.1.1-.2.1s-.2.1-.2.2-.1.1-.1.3v.4.4c0 .1.1.1.1.1.1 0 .1 0 .2-.1.1 0 .1-.1.2-.1 0 0 .1-.1.1-.2.1-.1.1-.2.2-.2v.2c-.1.1-.2.3-.3.4l-.3.3c-.2.1-.3.1-.4 0s-.1-.3-.1-.6c0-.2 0-.4.1-.6 0-.2.1-.3.2-.4-.2-.2-.1-.3.1-.4zm.8-1.2v2.5l-.2.1v-.3h0v-1.2-.1-.2-.2-.5l.2-.1zm-2.3 2.1l-.4 1.9v.1l-.1.1-.3.2h-.1v-.1l-.2-1v-.1-.1h0v.2.1l-.2 1.3v.1s0 .1-.1.1l-.3.1h-.1l-.4-1.4.3-.2.3 1.1v.1.1h0v-.1-.2l.2-1.3v-.1s0-.1.1-.1l.2-.1h.1v.1l.2 1v.1.1h0v-.1-.1l.3-1.4.5-.4zm-3.3 1.9c.2-.1.4-.2.5-.1.1 0 .2.1.2.3s0 .3-.1.4l-.3.3-.9.5v-.2l.8-.5c.1 0 .1-.1.1-.2v-.2c0-.1 0-.2-.1-.2s-.1 0-.3.1c-.1.1-.2.1-.2.2-.1.1-.1.2-.1.3v.4.4c0 .1.1.1.1.1.1 0 .2 0 .3-.1.1 0 .2-.1.3-.2s.2-.1.3-.2v.2l-.2.2-.2.2c-.1.1-.1.1-.2.1-.2.1-.3.2-.4.2s-.2-.1-.2-.2c-.1-.1-.1-.3-.1-.5s0-.4.1-.6c0-.2.1-.3.2-.4s.2-.2.4-.3zm-1.2.7v1.8l-.3.2v-1.8l.3-.2zm0-.7c0-.1.1-.1 0 0l.1.3c0 .1 0 .1-.1.2l-.1.1c-.1 0-.1 0-.1-.1v-.2c0-.1 0-.1.1-.2l.1-.1zm-.6 1l-.5 2v.1l-.1.1-.3.2h-.1l-.5-1.3.3-.2.4 1v.1.1h0v-.2-.2l.4-1.4.4-.3zm-2.4 1.4v.3h0v1.4l-.3.2v-1.8l.3-.1zm.8-.5v.3l-.1.1c-.1 0-.2.1-.3.2s-.2.2-.3.4v-.2c.1-.2.2-.3.3-.4.1-.2.2-.3.4-.4h0zm-2.1 1.2c.2-.1.4-.2.5-.1.1 0 .2.1.2.3s0 .3-.1.4l-.3.3-.9.5v-.2l.8-.5c.1 0 .1-.1.1-.2v-.2c0-.1 0-.2-.1-.2s-.1 0-.3.1c-.1.1-.2.1-.3.2s-.1.2-.1.3v.4.4c0 .1.1.1.1.1.1 0 .2 0 .3-.1.1 0 .2-.1.3-.2s.2-.1.3-.2v.2l-.2.2-.2.2c-.1.1-.1.1-.2.1-.2.1-.3.2-.4.2s-.2-.1-.2-.2c-.1-.1-.1-.3-.1-.5s0-.4.1-.6.1-.3.2-.4c.2-.1.4-.2.5-.3z"/><path d="M183.2 350.2v1.8.2h.2l.2-.1v.2l-.1.1-.1.1-.1.1c-.1.1-.2.1-.3 0-.1 0-.1-.1-.1-.3v-1.8l.3-.3zm.5.2v.3l-1.1.6v-.3l.3-.2.8-.4z"/><path d="M181.9 351.4c.3-.2.4-.1.4.2v1.3l-.3.2v-1.2-.2h-.2c-.1.1-.2.1-.3.2s-.2.2-.3.4v-.2c.1-.2.2-.3.4-.4.1-.2.2-.3.3-.3zm-.7.4v.3h0v1.4l-.3.2V352l.3-.2zm-.8-.3v2.5l-.3.2v-2.5l.3-.2zm-1.2 1.5l-.6 2.2c0 .1-.1.2-.1.3s-.1.2-.1.3c-.1.1-.1.2-.2.3s-.2.2-.3.2v-.2l.3-.3c.1-.1.1-.2.2-.4l.1-.3c0-.1 0-.1.1-.2v-.2l.4-1.5.2-.2zm-1.3.7l.4 1.1v.1.1h.1l-.1.3-.1.1h-.1l-.5-1.3.3-.4z"/><use href="#b"/><path d="M175.5 355.1c.2-.1.4-.2.5-.1.1 0 .2.1.2.3s0 .3-.1.4l-.3.3-.9.5v-.2l.8-.5c.1 0 .1-.1.1-.2v-.2c0-.1 0-.2-.1-.2s-.1 0-.3.1c-.1.1-.2.1-.2.2-.1.1-.1.2-.1.3v.4.4c0 .1.1.1.1.1.1 0 .2 0 .3-.1.1 0 .2-.1.3-.2s.2-.1.3-.2v.2l-.2.2-.2.2c-.1.1-.1.1-.2.1-.2.1-.3.2-.4.2s-.2-.1-.2-.2c-.1-.1-.1-.3-.1-.5s0-.4.1-.6c0-.2.1-.3.2-.4s.2-.2.4-.3zm-.9.5l-.5 2v.1l-.1.1-.3.2h-.1l-.5-1.4.3-.2.4 1v.1.1h0v-.2-.2l.4-1.4.4-.2zm-2.8.9c.1-.1.2-.1.3-.2s.2-.1.3-.2.2-.1.3-.2v.3l-.9.5c-.1 0-.1.1-.1.1v.2 1.4.2h.1l.9-.5v.3c-.1.1-.2.1-.3.2s-.2.1-.3.2-.2.1-.3.2-.2.1-.3.1-.1-.1-.1-.3v-1.6c0-.1 0-.3.1-.4.1-.2.2-.3.3-.3zm-.3 1.2l1.2-.7v.3l-1.2.7v-.3zm-1.7.6c.3-.2.4-.1.4.2v1.3l-.2.2v-1.2-.2h-.2c-.1.1-.2.1-.3.2s-.2.2-.3.4v-.2c.1-.2.2-.3.4-.4 0-.1.1-.2.2-.3zm-.7.4v.3h0v1.4l-.3.2v-1.8l.3-.1z"/><path d="M167.6 358.9c.2-.1.3-.1.4-.2.1 0 .2 0 .3.1s.1.2.1.3v.6.6c0 .2-.1.3-.1.5-.1.1-.2.3-.3.4s-.2.2-.4.3-.3.1-.4.2c-.1 0-.2 0-.3-.1s-.1-.2-.1-.3v-.6-.6c0-.2.1-.3.1-.5.1-.1.2-.3.3-.4.1-.2.2-.3.4-.3zm0 .3l-.3.3c-.1.1-.1.2-.2.4v.6.6c0 .1.1.2.2.2s.2 0 .3-.1l.3-.3c.1-.1.1-.2.2-.4 0-.2.1-.4.1-.6s0-.4-.1-.6c0-.1-.1-.2-.2-.2s-.2 0-.3.1zm39.1-82.1c.3-.2.4-.1.4.2v1.3l-.3.2v-1.2-.2h-.2c-.1.1-.2.1-.3.2s-.2.2-.3.4v-.2c.1-.2.2-.3.4-.4 0-.2.1-.2.3-.3zm-.7.4v.3h0v1.4l-.3.2v-1.8l.3-.1zm-1.4.8c.2-.1.3-.2.4-.2s.2.1.2.2.1.3.1.5 0 .4-.1.6c0 .2-.1.3-.2.4s-.2.2-.4.3-.3.2-.4.2-.2-.1-.2-.2-.1-.3-.1-.5 0-.4.1-.6c0-.2.1-.3.2-.4s.2-.2.4-.3zm0 .3c-.1.1-.2.1-.2.2-.1.1-.1.2-.1.3v.4.4c0 .1.1.1.1.1.1 0 .1 0 .2-.1s.2-.1.2-.2c.1-.1.1-.2.1-.3v-.4-.4c0-.1-.1-.1-.1-.1s-.1 0-.2.1zm-1.2.4v1.7l-.3.2v-1.8l.3-.1zm0-.7c0-.1 0 0 0 0l.1.3c0 .1 0 .1-.1.2l-.1.1c-.1 0-.1 0-.1-.1v-.2c0-.1 0-.1.1-.2l.1-.1zm-1.1.8v1.8.2h.2l.2-.1v.2l-.1.1-.1.1-.1.1c-.1.1-.2.1-.3 0-.1 0-.1-.1-.1-.3v-1.8l.3-.3zm.5.2v.3l-1.1.6v-.2l.3-.2.8-.5z"/><path d="M201 280.3c.2-.1.3-.1.4 0s.1.3.1.6c0 .2 0 .4-.1.6 0 .2-.1.3-.2.4l-.3.3c-.1.1-.2.1-.3.1h-.3v-.2c.1 0 .2 0 .2-.1.1 0 .2-.1.2-.1.1 0 .2-.1.2-.2.1-.1.1-.1.1-.3v-.4-.4c0-.1-.1-.1-.1-.1h-.2c-.1 0-.2.1-.2.2l-.3.3v-.2c.1-.1.1-.2.2-.3s.1-.2.2-.2c.2.1.3.1.4 0zm-.7.5v.3h0v1.1.1.2.2.5l-.3.2v-2.5l.3-.1zm-.7.4v1.8l-.3.2v-1.7l.3-.3zm-.1-.7c.1-.1.1 0 0 0l.1.3c0 .1 0 .1-.1.2l-.1.1c-.1 0-.1 0-.1-.1v-.2c0-.1 0-.1.1-.2l.1-.1zm-1.2 1.5v.3h0v1.4l-.3.2v-1.8l.3-.1zm.7-.5v.3l-.1.1c-.1 0-.2.1-.3.2s-.2.2-.3.4v-.2c.1-.2.2-.3.3-.4.1-.2.2-.3.4-.4h0z"/><path d="M197.1 282.6s.1-.1.2-.1.1-.1.2-.1h.2v.2c-.1 0-.1.1-.2.1s-.1.1-.2.1c-.1.1-.2.1-.3.2s-.1.2-.1.3v.4.4c0 .1.1.1.1.1.1 0 .2 0 .3-.1 0 0 .1 0 .1-.1.1 0 .1-.1.2-.1s.1-.1.2-.1v.2c-.1.1-.2.2-.3.2-.1.1-.2.1-.3.2-.2.1-.3.2-.4.2s-.2-.1-.2-.2-.1-.3-.1-.5 0-.4.1-.6.1-.3.2-.4c0-.1.2-.2.3-.3zm-1.7 1c.1 0 .1-.1.2-.1s.2-.1.2-.1c.1 0 .1-.1.2-.1v.3c-.1.1-.2.1-.3.2-.1 0-.2.1-.3.2s-.2.1-.2.1c-.1 0-.1.1-.1.1v.2c0 .1 0 .1.1.1h.2l.4-.1h.3c.1 0 .1.1.1.3 0 .1 0 .3-.1.4 0 .1-.1.2-.2.3s-.2.2-.4.3c-.1 0-.1.1-.3.1-.1.1-.2.1-.4.2v-.3s.1-.1.2-.1.1-.1.2-.1.1-.1.2-.1c.1-.1.2-.1.3-.2.1 0 .1-.1.1-.1v-.2c0-.1 0-.1-.1-.1h-.2l-.4.1h-.2c-.1 0-.1 0-.1-.1v-.2c0-.1 0-.2.1-.3 0-.1.1-.2.2-.3 0-.3.2-.4.3-.4zm-1.5.8c.2-.1.3-.1.4 0s.1.3.1.6v.4c0 .1-.1.2-.1.4-.1.1-.1.2-.2.3l-.3.3c-.1 0-.1.1-.2.1s-.1.1-.2.1-.1.1-.2.1h-.2l.2-.4h.2c.1 0 .1 0 .2-.1.1 0 .1-.1.2-.1.1-.1.2-.1.2-.2.1-.1.1-.2.1-.3v-.4-.3c0-.1-.1-.1-.1-.1-.1 0-.1 0-.2.1-.1 0-.2.1-.2.2-.1.1-.2.2-.2.3v-.2c.1-.1.1-.2.2-.3s.1-.2.2-.2c0-.2.1-.3.1-.3zm-.5-.4v.6.2.2h0v1.3l-.3.2v-2.4l.3-.1zm-1.8 1.8v1.2c0 .1 0 .2.1.2h.2c.1 0 .2-.1.2-.2.1-.1.2-.2.3-.4v.2c-.1.2-.2.3-.3.4l-.3.3c-.3.2-.4.1-.4-.2V286l.2-.2zm1-.6v1.8l-.2.1v-.3h0v-1.4l.2-.2zm-2.4.6c.1-.1.2-.1.3-.2s.2-.1.3-.1v.3c-.1 0-.2.1-.3.2s-.2.1-.3.2c-.1 0-.1.1-.2.1s-.1.1-.1.1l-.1.1v.2c0 .1 0 .2.1.2h.2l.4-.1h.3c.1.1.1.2.1.4v.4c0 .1-.1.2-.1.3-.1.1-.1.2-.2.2-.1.1-.2.1-.3.2-.1 0-.2.1-.3.2s-.3.1-.4.2v-.3c.1-.1.2-.1.3-.2.1 0 .1-.1.2-.1s.1-.1.2-.1c.1-.1.2-.1.2-.2.1-.1.1-.1.1-.2v-.3-.2s0-.1-.1-.1h-.1l-.4.1c-.2 0-.3 0-.3-.1-.1-.1-.1-.2-.1-.4v-.4c0-.1.1-.2.1-.3.1-.1.1-.2.2-.2 0 .3.1.2.3.1zm-2.5 1.5c.1-.1.3-.1.4-.2h.2c.1 0 .1.1.1.3v.3c0 .1-.1.2-.1.3-.1.1-.1.3-.2.4l-.6 1.1c.1 0 .1-.1.2-.1s.1-.1.2-.1l.7-.4v.4l-1.5.9v-.2-.1-.1l.6-1.1.3-.6c.1-.2.1-.3.1-.4v-.1h-.1s-.1 0-.2.1c-.1 0-.1.1-.2.1s-.1.1-.2.1-.2.1-.2.2v-.3c.1-.1.2-.2.3-.2.1-.1.2-.1.2-.2-.2 0-.1-.1 0-.1zm-2.3 2.1l.1.3h0v1.4l-.4.2v-1.8l.3-.1zm.7-.5v.4l-.1.1c-.1 0-.2.1-.2.2l-.3.3v-.2c.1-.2.2-.3.3-.4 0-.2.1-.3.3-.4h0zm-2.1 1.2c.2-.1.4-.2.5-.2s.2.1.2.3 0 .3-.1.4l-.3.3-.9.5v-.3l.8-.4c.1 0 .1-.1.1-.1v-.2c0-.1 0-.2-.1-.2 0 0-.1 0-.2.1s-.2.1-.2.2c-.1.1-.1.1-.1.2v.4.4c0 .1.1.1.1.1.1 0 .1 0 .2-.1.1 0 .2-.1.3-.2s.2-.1.3-.2v.3l-.2.2-.2.2c-.1.1-.2.1-.2.1-.2.1-.3.2-.5.2-.1 0-.2-.1-.2-.2-.1-.1-.1-.3-.1-.5s0-.4.1-.6.1-.3.2-.4c.2-.1.4-.2.5-.3zm-1.1.7v1.8l-.4.2V291l.4-.2zm-.1-.7c.1 0 .1 0 .1.1v.2c0 .1 0 .2-.1.2l-.2.1c-.1 0-.1 0-.1-.1v-.2c0-.1 0-.2.1-.2l.2-.1z"/><path d="M181.6 290.8v2.5l-.4.2V291l.4-.2zm.6-.4v.4l-1.7 1v-.4l1.7-1zm-3.3 2.6c.2-.1.3-.2.4-.2s.2.1.2.2.1.3.1.5 0 .4-.1.6c0 .2-.1.3-.2.4s-.2.2-.4.3-.3.2-.4.2-.2-.1-.2-.2-.1-.3-.1-.5 0-.4.1-.6c0-.2.1-.3.2-.4 0 0 .2-.2.4-.3zm0 .3c-.1.1-.2.1-.2.2-.1.1-.1.2-.1.3v.4.4c0 .1.1.1.1.1.1 0 .1 0 .2-.1s.2-.1.2-.2c.1-.1.1-.2.1-.3v-.4-.4c0-.1-.1-.1-.1-.1s-.1.1-.2.1z"/><path d="M177.4 293.4v1.8.1h.2l.2-.1v.2l-.1.1-.1.1-.1.1c-.1.1-.2.1-.3 0-.1 0-.1-.1-.1-.3v-1.8l.3-.2zm.5.2v.3l-1.1.6v-.2l.3-.2.8-.5zm-2.6 1.5c.2-.1.4-.2.5-.1.1 0 .2.1.2.3s0 .3-.1.4l-.3.3-.9.5v-.2l.8-.5c.1 0 .1-.1.1-.2v-.2c0-.1 0-.2-.1-.2s-.1 0-.3.1c-.1.1-.2.1-.2.2-.1.1-.1.2-.1.3v.4.4c0 .1.1.1.1.1.1 0 .2 0 .3-.1.1 0 .2-.1.3-.2s.2-.1.3-.2v.2l-.2.2-.2.2c-.1.1-.1.1-.2.1-.2.1-.3.2-.4.2s-.2-.1-.2-.2-.1-.3-.1-.5 0-.4.1-.6.1-.3.2-.4.2-.2.4-.3zm-1.9 1.1c.1-.1.2-.1.3-.1h.3v.2c-.1 0-.2 0-.2.1-.1 0-.1.1-.2.1s-.2.1-.2.2c-.1.1-.1.1-.1.3v.4.4c0 .1.1.1.1.1.1 0 .1 0 .2-.1.1 0 .1-.1.2-.1l.2-.2c.1-.1.1-.2.2-.2v.2c-.1.1-.2.3-.3.4l-.3.3c-.2.1-.3.1-.4 0s-.1-.3-.1-.6c0-.2 0-.4.1-.6 0-.2.1-.3.2-.4-.3-.2-.2-.3 0-.4zm.8-1.2v2.5l-.2.1v-.3h0v-1.2-.1-.2-.2-.5l.2-.1zm-2.3 2.1c.1-.1.2-.1.3-.1s.1 0 .2.1c0 .1.1.2.1.3v1.2l-.2.1v-.4h0v-.8c0-.1 0-.2-.1-.2 0 0-.1 0-.2.1-.1 0-.2.1-.3.2s-.2.2-.4.2v-.2l.2-.2c.1-.1.2-.1.3-.2-.1 0 0-.1.1-.1zm.4.5v.2l-.7.4c-.1 0-.1.1-.2.2v.2.1c0 .1 0 .1.1.2h.2c.1 0 .1-.1.2-.1l.2-.2c.1-.1.1-.2.2-.3v.2s-.1.1-.1.2-.1.1-.2.2l-.2.2-.2.2c-.1.1-.2.1-.2.1-.1 0-.1 0-.2-.1 0-.1-.1-.1-.1-.2v-.2c0-.1 0-.3.1-.4l.3-.3.8-.6zm-2.2.5v.3h0v1.4l-.3.2v-1.7l.3-.2zm.7-.4v.3l-.1.1c-.1 0-.2.1-.3.2s-.2.2-.3.4v-.2c.1-.2.2-.3.3-.4l.4-.4h0z"/><path d="M168.7 298.9c.2-.1.3-.2.4-.2s.2 0 .2.1.1.2.1.3 0 .2-.1.4c0 .1-.1.2-.2.3s-.2.2-.4.3-.3.2-.4.2-.2 0-.2-.1-.1-.1-.1-.3c0-.1 0-.3.1-.4 0-.1.1-.2.2-.3s.3-.2.4-.3zm0 .2c-.1.1-.2.2-.3.2-.1.1-.1.2-.1.3s0 .2.1.2.2 0 .3-.1.2-.2.3-.2c.1-.1.1-.2.1-.3s0-.2-.1-.2c0 0-.1 0-.3.1zm.9-.7v.2l-.4.3-.1-.2.5-.3zm-1.3 1.7l.2-.1c-.1.1-.1.2-.2.1l.1.2h.1l.6-.2c.1-.1.2-.1.3 0 .1 0 .1.1.1.3 0 .1 0 .3-.1.4 0 .1-.1.2-.2.3s-.3.2-.4.3-.3.1-.4.2c-.1 0-.2.1-.2 0-.1 0-.1 0-.1-.1v-.2-.2c0-.1.1-.1.1-.2s.1-.1.2-.2l.2-.2h.1l-.2.2c0 .1-.1.1-.1.2 0 0 0 .1-.1.1v.1.2h.1c.1 0 .2-.1.3-.1.1-.1.2-.1.3-.2s.1-.1.1-.2v-.2-.1h-.1-.2l-.5.2h-.2s-.1 0-.1-.1v-.2-.2c.2 0 .2 0 .3-.1z"/><path d="M167.2 299.8c.2-.1.3-.1.4 0s.1.3.1.6c0 .2 0 .4-.1.6 0 .2-.1.3-.2.4l-.3.3c-.1.1-.2.1-.3.1h-.3v-.2c.1 0 .2 0 .2-.1.1 0 .2-.1.2-.1.1 0 .2-.1.2-.2.1-.1.1-.1.1-.3v-.4-.4c0-.1-.1-.1-.1-.1h-.2c-.1 0-.2.1-.2.2l-.3.3v-.2c.1-.1.1-.2.2-.3s.1-.2.2-.2c.2.1.3 0 .4 0zm-.7.4v.3h0v1.1.1.2.2.5l-.3.2v-2.5l.3-.1zm-.7-.3v1.5c0 .2 0 .5-.1.6-.1.2-.1.3-.2.5-.1.1-.3.2-.5.4-.2.1-.4.2-.5.2s-.2-.1-.3-.2-.1-.3-.1-.5v-1.5l.3-.2v1.5.4c0 .1.1.1.2.1s.2 0 .3-.1.2-.1.3-.2.1-.2.2-.3c0-.1.1-.3.1-.4v-1.5l.3-.3z"/></g><path d="M172 367.2l27.1-15.6c1.2-.7 2.1-.1 2.1 1.2v6a4.6 4.6 0 0 1-2.1 3.6L172 378c-1.2.7-2.1.1-2.1-1.2v-6c0-1.3 1-2.9 2.1-3.6z" class="S"/><path d="M175.8 368.9c.1-.1.2-.1.3-.2s.2-.1.3-.1v.3c-.1 0-.2.1-.3.2s-.2.1-.3.2c-.1 0-.1.1-.2.1s-.1.1-.1.1l-.1.1v.2c0 .1 0 .2.1.2h.2l.4-.1h.3c.1.1.1.2.1.4v.4c0 .1-.1.2-.1.3-.1.1-.1.2-.2.2-.1.1-.2.1-.3.2-.1 0-.2.1-.3.2s-.3.1-.4.2v-.3c.1-.1.2-.1.3-.2.1 0 .1-.1.2-.1s.1-.1.2-.1c.1-.1.2-.1.2-.2.1-.1.1-.1.1-.2v-.3-.2s0-.1-.1-.1h-.1l-.4.1c-.2 0-.3 0-.3-.1-.1-.1-.1-.2-.1-.4v-.4c0-.1.1-.2.1-.3.1-.1.1-.2.2-.2 0 .2.2.2.3.1zm1.4 0v1.2c0 .1 0 .2.1.2h.2c.1 0 .2-.1.2-.2.1-.1.2-.2.3-.4v.2c-.1.2-.2.3-.3.4l-.3.3c-.3.2-.4.1-.4-.2V369l.2-.1zm1-.6v1.8l-.2.1v-.3h0v-1.4l.2-.2zm1.3-.8c.2-.1.3-.1.4 0s.1.3.1.6v.4c0 .1-.1.2-.1.4-.1.1-.1.2-.2.3l-.3.3c-.1 0-.1.1-.2.1s-.1.1-.2.1-.1.1-.2.1h-.2l.2-.4h.2c.1 0 .1 0 .2-.1.1 0 .1-.1.1-.1.1-.1.2-.1.2-.2.1-.1.1-.2.1-.3v-.4-.3c0-.1-.1-.1-.1-.1-.1 0-.1 0-.2.1-.1 0-.2.1-.2.2-.1.1-.2.2-.2.3v-.2c.1-.1.1-.2.2-.3s.1-.2.2-.2c.1-.2.2-.3.2-.3zm-.5-.4v.6.2.2h0v1.4l-.3.2v-2.4l.3-.2zm2-.5c.1 0 .1-.1.2-.1s.2-.1.2-.1c.1 0 .1-.1.2-.1v.3c-.1.1-.2.1-.3.2s-.2.1-.3.2c-.1 0-.2.1-.2.1-.1 0-.1.1-.1.1v.2c0 .1 0 .1.1.1h.2l.4-.1h.3c.1 0 .1.1.1.3 0 .1 0 .3-.1.4 0 .1-.1.2-.2.3s-.2.2-.4.3c-.1 0-.1.1-.3.1-.1.1-.2.1-.4.2v-.3s.1-.1.2-.1.1-.1.2-.1.1-.1.2-.1c.1-.1.2-.1.3-.2.1 0 .1-.1.1-.1v-.2c0-.1 0-.1-.1-.1h-.2l-.4.1h-.2c-.1 0-.1 0-.1-.1v-.2c0-.1 0-.2.1-.3 0-.1.1-.2.2-.3.1-.2.2-.3.3-.4zm1.8-1s.1-.1.2-.1.1-.1.2-.1h.2v.2c-.1 0-.1.1-.2.1s-.1.1-.2.1c-.1.1-.2.1-.3.2s-.1.2-.1.3v.4.4c0 .1.1.1.1.1.1 0 .2 0 .3-.1 0 0 .1 0 .1-.1.1 0 .1-.1.2-.1s.1-.1.2-.1v.2c-.1.1-.2.2-.3.2-.1.1-.2.1-.3.2-.2.1-.3.2-.4.2s-.2-.1-.2-.2-.1-.3-.1-.5 0-.4.1-.6.1-.3.2-.4c-.1-.1.1-.2.3-.3zm1.1-.6v.3h0v1.4l-.3.2v-1.8l.3-.1zm.7-.4v.3l-.1.1c-.1 0-.2.1-.3.2s-.2.2-.3.4v-.2c.1-.2.2-.3.3-.4.1-.2.2-.3.4-.4h0zm.6-.3v1.8l-.3.2v-1.8l.3-.2zm-.1-.8h0l.1.3c0 .1 0 .1-.1.2h-.1c-.1 0-.1 0-.1-.1v-.2c0-.1 0-.1.1-.2h.1zm1.4 0c.2-.1.3-.1.4 0s.1.3.1.6v.4c0 .1-.1.2-.1.4-.1.1-.1.2-.2.3l-.3.3c-.1 0-.1.1-.2.1s-.1.1-.2.1-.1.1-.2.1h-.2l.2-.4h.2c.1 0 .1 0 .2-.1.1 0 .1-.1.2-.1.1-.1.2-.1.2-.2.1-.1.1-.2.1-.3v-.4-.3c0-.1-.1-.1-.1-.1-.1 0-.1 0-.2.1-.1 0-.2.1-.2.2-.1.1-.2.2-.2.3v-.2c.1-.1.1-.2.2-.3s.1-.2.2-.2c0-.3.1-.3.1-.3zm-.5-.5v.6.2.2h0v1.4l-.3.2v-2.4l.3-.2zm2.1-.5c.2-.1.4-.2.5-.1.1 0 .2.1.2.3s0 .3-.1.4l-.3.3-.9.5v-.2l.8-.5c.1 0 .1-.1.1-.2v-.2c0-.1 0-.2-.1-.2s-.1 0-.3.1c-.1.1-.2.1-.3.2s-.1.2-.1.3v.4.4c0 .1.1.1.1.1.1 0 .2 0 .3-.1.1 0 .2-.1.3-.2s.2-.1.3-.2v.2l-.2.2-.2.2c-.1.1-.1.1-.2.1-.2.1-.3.2-.4.2s-.2-.1-.2-.2c-.1-.1-.1-.3-.1-.5s0-.4.1-.6.1-.3.2-.4c.2-.1.4-.2.5-.3zm3.5-2.6v2.3c0 .1 0 .2-.1.2l-.3.2h-.1l-.1-.1-.7-1.3s0-.1-.1-.1c0 0 0-.1-.1-.1h0v.2.2 1.8l-.3.2V361c0-.1 0-.2.1-.2l.3-.1h.1l.1.1.7 1.2s0 .1.1.1c0 .1.1.1.1.1h.1v-.2-.2-1.8l.2-.1zm1.2 0c.2-.1.3-.2.4-.2s.2.1.2.2.1.3.1.5 0 .4-.1.6c0 .2-.1.3-.2.4s-.2.2-.4.3-.3.2-.4.2-.2-.1-.2-.2-.1-.3-.1-.5 0-.4.1-.6c0-.2.1-.3.2-.4 0-.1.2-.2.4-.3zm0 .3c-.1.1-.2.1-.2.2-.1.1-.1.2-.1.3v.4.4c0 .1.1.1.1.1.1 0 .1 0 .2-.1s.2-.1.2-.2c.1-.1.1-.2.1-.3v-.4-.4c0-.1-.1-.1-.1-.1-.1 0-.1 0-.2.1zm3.4-2.2l-.4 1.9v.1s0 .1-.1.1l-.3.2h-.1v-.1l-.2-1v-.1-.1h0v.2.2l-.2 1.3v.1s0 .1-.1.1l-.3.1h-.1l-.4-1.4.3-.2.3 1.1v.1.1h0v-.1-.2l.2-1.3v-.1s0-.1.1-.1l.2-.1h.1v.1l.2 1v.1.1h0v-.1-.2l.3-1.4.5-.4z" fill="#fff"/><g class="S"><path d="M213 265v1.3l-.1 1-.5.3-.1-.9v-1.3l.7-.4zm-.2 2.8c.1 0 .1-.1.2 0 0 0 .1.1.1.2v.2c0 .1 0 .2-.1.2 0 .1-.1.1-.2.1l-.1.1c-.1 0-.1.1-.2 0v-.2-.2-.2c0-.1.1-.1.2-.2h.1zm-1.1-2v1.3l-.1 1-.5.3-.1-.9v-1.3l.7-.4zm-.2 2.7c.1 0 .1-.1.2 0 0 0 .1.1.1.2v.2c0 .1 0 .2-.1.2 0 .1-.1.1-.2.1l-.1.1c-.1 0-.1.1-.2 0v-.2-.1-.2c0-.1.1-.1.2-.2l.1-.1zm-1-2v1.3l-.1 1-.5.3-.1-.9v-1.3l.7-.4zm-.2 2.7c.1 0 .1-.1.2 0 0 0 .1.1.1.2v.2c0 .1 0 .2-.1.2 0 .1-.1.1-.2.1l-.1.1c-.1 0-.1.1-.2 0v-.2-.2-.2c0-.1.1-.1.2-.2h.1z"/><use href="#c"/><path d="M207 269.4c.4-.2.6-.1.6.3v1.8l-.6.4v-1.5c0-.1 0-.2-.1-.2h-.2c-.1.1-.2.1-.3.2s-.2.2-.3.4v-.4c.1-.2.3-.4.5-.6.1-.2.3-.3.4-.4zm-.9.6l.1.4h.1v1.8l-.6.4v-2.4l.4-.2zm-1.9 1c.3-.2.6-.3.7-.2.2 0 .2.2.2.5 0 .2 0 .4-.1.6s-.3.3-.5.5l-1.2.7v-.4l1-.6.2-.2v-.2c0-.1 0-.2-.1-.2s-.1 0-.3.1c-.1.1-.2.1-.3.2s-.1.2-.1.3v.5.4c0 .1.1.1.2.1s.2 0 .3-.1.2-.1.4-.2c.1-.1.3-.2.4-.3l.1.4-.3.3c-.1.1-.2.2-.3.2-.1.1-.2.1-.3.2-.3.1-.5.2-.6.2-.2 0-.3-.1-.3-.2-.1-.1-.1-.4-.1-.6 0-.3 0-.6.1-.8l.3-.6c.1-.3.4-.5.6-.6zm-1.2.8l-.7 2.6c0 .1 0 .1-.1.2l-.1.1-.5.3h-.1s-.1 0-.1-.1l-.7-1.8.6-.4.4 1.3v.2.2h.1v-.2-.2l.4-1.7.8-.5zm-3.5 1.9c.3-.2.6-.3.7-.2.2 0 .2.2.2.5 0 .2 0 .4-.1.6s-.3.3-.5.5l-1.2.7v-.4l1-.6.2-.2v-.2c0-.1 0-.2-.1-.2s-.1 0-.3.1c-.1.1-.2.1-.3.2s-.1.2-.1.3v.5.4c0 .1.1.1.2.1s.2 0 .3-.1.2-.1.4-.2c.1-.1.3-.2.4-.3l.1.4-.3.3c-.1.1-.2.2-.3.2-.1.1-.2.1-.3.2-.3.1-.5.2-.6.2-.2 0-.3-.1-.3-.2-.1-.1-.1-.4-.1-.6 0-.3 0-.6.1-.8l.3-.6a1.7 1.7 0 0 1 .6-.6z"/><use href="#d"/><path d="M195.4 275.1c.3-.2.5-.2.6-.3.2 0 .3 0 .3.1.1.1.1.3.1.6s0 .5-.1.7-.2.4-.3.5-.3.3-.6.4c-.1.1-.3.1-.4.2s-.2.1-.3.1-.2.1-.3.1h-.2v-.4c.2-.1.3-.2.5-.3s.4-.2.5-.3.2-.1.3-.2.1-.1.1-.2v-.3-.3c0-.1-.1-.1-.1-.1-.1 0-.2 0-.3.1-.3.1-.5.3-.7.4s-.3.2-.4.2l-.1-.5c.1-.1.2-.2.3-.2.1-.1.2-.1.3-.2.5.1.6 0 .8-.1zm-.5.4v3.3l-.6.4v-3.3l.6-.4zm-2.3 3.8c.1 0 .1-.1.2 0 0 0 0 .1.1.2v.3.4c0 .1 0 .2-.1.3 0 .1-.1.2-.1.3l-.2.1v-.3-.3c-.1.1-.2 0-.2-.1v-.3c0-.1 0-.2.1-.2 0-.1.1-.1.2-.2v-.2zm-1.7-.7c.3-.2.6-.3.7-.2.2 0 .2.2.2.5 0 .2 0 .4-.1.6s-.3.3-.5.5l-1.2.7v-.4l1-.6c.1-.1.2-.1.2-.2v-.2c0-.1 0-.2-.1-.2s-.1 0-.3.1c-.1.1-.2.1-.3.2s-.1.2-.1.3v.5.4c0 .1.1.1.2.1s.2 0 .3-.1.2-.1.4-.2c.1-.1.3-.2.4-.3l.1.4-.3.3c-.1.1-.2.2-.3.2-.1.1-.2.1-.3.2-.3.2-.5.2-.6.2-.2 0-.3-.1-.3-.2-.1-.1-.1-.4-.1-.6 0-.3 0-.6.1-.8l.3-.6c.2-.3.4-.4.6-.6z"/><path d="M188.8 280.4l.7-.4-1.1 2-.7.4 1.1-2zm.8.9v.5l-1.9 1.1v-.5l1.9-1.1zm-.1-1.8v.5l-1.8 1v-.5l1.8-1zm-2.2 1.3v2.4l-.6.3v-2.4l.6-.3zm-.2-1c.1-.1.2 0 .2.1v.3c0 .1-.1.2-.2.3l-.3.2c-.1.1-.2 0-.2-.1v-.3c0-.1.1-.2.2-.3l.3-.2zm-1.4 1.2v2.3c0 .1 0 .1.1.2h.2l.3-.2.1.4c-.1 0-.1.1-.2.2l-.2.2c-.1 0-.1.1-.2.1-.2.1-.3.1-.4.1-.1-.1-.2-.2-.2-.4v-2.4l.5-.5zm.6.3v.5l-1.6.9v-.4l.4-.3 1.2-.7z"/><use href="#e"/><path d="M182.5 283.5l.1.4h.1v1.8l-.6.4v-2.4l.4-.2zm1-.6l-.1.7-.2.1c-.1.1-.2.1-.3.2l-.4.4v-.4c.1-.2.3-.4.4-.6s.3-.3.4-.4h.2zm-3 1.7c.3-.1.5-.2.6-.2.2 0 .3.1.3.2.1.1.1.4.1.7s0 .6-.1.8l-.3.6c-.1.2-.4.3-.6.5-.3.1-.5.2-.6.2-.2 0-.3-.1-.3-.2-.1-.1-.1-.4-.1-.7s0-.6.1-.8l.3-.6c.1-.2.3-.3.6-.5zm0 .5c-.1.1-.2.1-.2.2-.1.1-.1.2-.1.3v.5.4c0 .1.1.1.1.1.1 0 .1 0 .2-.1s.2-.1.3-.2.1-.2.1-.3v-.5-.4c0-.1-.1-.1-.1-.1-.1 0-.2.1-.3.1zm-1.5.4v2.4l-.6.4v-2.4l.6-.4zm-.2-.9c.1-.1.2 0 .2.1v.3c0 .1-.1.2-.2.3l-.3.2c-.1.1-.2 0-.2-.1v-.3c0-.1.1-.2.2-.3l.3-.2zm-1.7 2l.1.4h.1v1.8l-.6.4v-2.4l.4-.2zm1-.6l-.1.7-.2.1c-.1.1-.2.1-.3.2l-.4.4v-.4c.1-.2.3-.4.4-.6s.3-.3.4-.4h.2zm-2.9.8c.3-.2.5-.2.6-.3.2 0 .3 0 .3.1.1.1.1.3.1.6s0 .5-.1.7-.2.4-.3.5-.3.3-.6.4c-.1.1-.3.1-.4.2s-.2.1-.3.1-.2.1-.3.1h-.2v-.4c.2-.1.3-.2.5-.3s.4-.2.5-.3.2-.1.3-.2.1-.1.1-.2v-.3-.3c0-.1-.1-.1-.1-.1s-.2 0-.3.1c-.3.1-.5.3-.7.4s-.3.2-.4.2l-.1-.5c.1-.1.2-.2.3-.2.1-.1.2-.1.3-.2.4 0 .6 0 .8-.1zm-.5.3v3.3l-.6.4v-3.3l.6-.4zm-2.3 3.8c.1 0 .1-.1.2 0 0 0 0 .1.1.2v.3.4c0 .1 0 .2-.1.3 0 .1-.1.2-.1.3l-.2.1v-.3-.3c-.1.1-.2 0-.2-.1v-.3-.2c0-.1.1-.1.2-.2l.1-.2z"/><path d="M171.2 289.4v2.3c0 .1 0 .1.1.2h.2l.3-.2.1.4c-.1 0-.1.1-.2.2l-.2.2c-.1 0-.1.1-.2.1-.2.1-.3.1-.4.1-.1-.1-.2-.2-.2-.4v-2.4l.5-.5zm.6.3v.5l-1.6.9v-.4l.4-.3 1.2-.7zm-2.6 1.4c.1 0 .2-.1.2-.1.1 0 .2-.1.3-.1s.2-.1.3-.1l-.1.5c-.1.1-.2.1-.3.2s-.2.1-.3.2-.2.1-.3.2-.1.2-.2.3v.4.4c0 .1.1.1.2.1s.2 0 .3-.1c0 0 .1-.1.2-.1s.1-.1.2-.1c.1-.1.2-.1.2-.2l.1.4c-.1.1-.2.2-.4.3s-.3.2-.4.3c-.3.1-.5.2-.6.2-.2 0-.3-.1-.3-.2s-.1-.4-.1-.7 0-.6.1-.8l.3-.6c.2-.1.4-.3.6-.4zm-1.5.9v2.4l-.6.4v-2.4l.6-.4zm-.1-.9c.1-.1.2 0 .2.1v.3c0 .1-.1.2-.2.3l-.3.2c-.1.1-.2 0-.2-.1v-.3c0-.1.1-.2.2-.3l.3-.2zm-2.3 2.2c.1-.1.3-.1.4-.2h.4v.3c-.1 0-.2 0-.3.1-.1 0-.2.1-.3.1s-.2.1-.2.2c-.1.1-.1.2-.1.3v.5.4c0 .1.1.1.1.1.1 0 .1 0 .2-.1.1 0 .1-.1.2-.1s.1-.1.2-.2l.2-.2v.3c-.1.2-.2.4-.3.5-.1.2-.3.3-.5.4-.3.2-.5.2-.6 0s-.2-.4-.2-.8c0-.3 0-.6.1-.8s.1-.4.3-.5c.1-.1.3-.2.4-.3zm1.3-1.6v3.3l-.5.3-.1-.4h-.1v-1.5-.1-.3-.3-.7l.7-.3zm-3.4 2.8c.3-.2.6-.3.7-.2.2 0 .2.2.2.5 0 .2 0 .4-.1.6s-.3.3-.5.5l-1.2.7v-.6l1-.6c.1-.1.2-.1.2-.2v-.2c0-.1 0-.2-.1-.2s-.1 0-.3.1c-.1.1-.2.1-.3.2s-.1.2-.1.3v.5.4c0 .1.1.1.2.1s.2 0 .3-.1.2-.1.4-.2c.1-.1.3-.2.4-.3l.1.4-.3.3c-.1.1-.2.2-.3.2-.1.1-.2.1-.3.2-.3.2-.5.2-.6.2-.2 0-.3-.1-.3-.2-.1-.1-.1-.4-.1-.6 0-.3 0-.6.1-.8l.3-.6c.2-.1.4-.2.6-.4z"/><path d="M161 295.9l.1.4h.1v1.8l-.6.4v-2.4l.4-.2zm1-.7l-.1.7-.2.1c-.1.1-.2.1-.3.2l-.4.4v-.4c.1-.2.3-.4.4-.6s.3-.3.4-.4h.2zm-2.9.8c.3-.2.5-.2.6-.3s.3 0 .3.1c.1.1.1.3.1.6s0 .5-.1.7-.2.4-.3.5-.3.3-.6.4c-.1.1-.3.1-.4.2s-.2.1-.3.1-.2.1-.3.1h-.2v-.4c.2-.1.3-.2.5-.3s.4-.2.5-.3.2-.1.3-.2.1-.1.1-.2v-.3-.3c0-.1-.1-.1-.1-.1-.1 0-.2 0-.3.1-.3.1-.5.3-.7.4s-.3.2-.4.2l-.1-.5c.1-.1.2-.2.3-.2.1-.1.2-.1.3-.2.5.1.6 0 .8-.1zm-.5.3v3.3l-.6.4v-3.3l.6-.4zm27.5 23c-.1.2-.2.3-.3.4-.3.3-.6.3-.9.2l-.1-.1-1.7-2.9-.7-1.1-.4-.7c0-.1 0-.2.1-.3 0 0 .1-.1.1 0l.6.5.9.7 2.5 1.9c.3.2.3.8-.1 1.4zm-.7-.8c-.2.2-.4.5-.3.7s.3.2.5.1c.2-.2.4-.5.3-.7 0-.3-.2-.3-.5-.1z"/></g><path d="M180.2 329.5c-.3.7-1 1.2-1.4 1.1-1.4-.6-2.5-1.7-3.1-3.4-.7-2-.8-4.5-.1-7.3.6-2.8 1.9-5.6 3.7-8.2 1.8-2.5 3.9-4.6 6.1-5.9s4.4-1.8 6.2-1.4 3.2 1.7 3.9 3.7.8 4.5.1 7.3c-.5 2.3-1.5 4.7-2.9 7-.4.7-1.1 1-1.4.6h0c-.3-.3-.3-1.1.2-1.8 1-1.7 1.8-3.5 2.2-5.3.5-2.2.5-4.3-.1-5.9s-1.7-2.6-3.1-2.9-3.2.1-4.9 1.1-3.5 2.7-4.9 4.7-2.4 4.3-3 6.5c-.5 2.2-.5 4.3.1 5.9.5 1.3 1.2 2.2 2.3 2.7.3.1.4.8.1 1.5h0z" fill="#dcecff"/><path d="M180.2 329.5c-.3.7-1 1.2-1.4 1.1a5.3 5.3 0 0 1-2.5-2.2c-.8-1.3-1.2-3-1.2-4.9 0-2 .4-4.1 1.3-6.3.6-1.7 1.5-3.4 2.5-5 .4-.7 1.1-.9 1.4-.5h0c.3.4.2 1.2-.2 1.9-.8 1.2-1.4 2.5-1.9 3.7-.6 1.7-1 3.5-1 5a7.5 7.5 0 0 0 .9 3.9c.5.8 1.1 1.3 1.8 1.7.5.2.6.9.3 1.6h0z" class="S"/><ellipse transform="matrix(.5058 -.8626 .8626 .5058 -180.9637 309.351)" cx="179.5" cy="312.6" rx=".6" ry=".3" fill="#fff"/><g stroke-width=".78" stroke-linecap="round" class="R"><path d="M178.4 324.5l.5-.5" class="Q"/><path d="M192.8 316.3l-.5.1" class="U"/><path d="M178.3 319.7l.5-.2" class="Q"/><path d="M192.9 311.3l-.5.4" class="U"/><path d="M180.6 313.8l.4.2" class="Q"/><g class="U"><path d="M190.5 308.2l-.4.6m-4.5.7v-.6"/></g><path d="M180.7 326.9l.4-.6" class="Q"/><path d="M190.4 321.3l-.4-.2" class="U"/></g><path d="M252.3 234.4v5.2l-.8.5v-5.2l.8-.5zm3-.4c.6-.3.9-.2.9.5v2.8l-.8.5v-2.5c0-.2 0-.3-.1-.4-.1 0-.2 0-.3.1-.2.1-.3.2-.5.4s-.4.4-.6.7v-.5c.2-.4.5-.7.7-.9.2-.3.5-.5.7-.7zm-1.4.9l.1.7.1.1v2.9l-.8.5v-3.7l.6-.5zm4.2-3.5v3.6c0 .1 0 .2.1.3.1 0 .2 0 .3-.1l.4-.3.1.6c-.1.1-.2.1-.3.2s-.2.2-.3.2c-.1.1-.2.1-.3.2-.3.2-.5.2-.7.1s-.2-.3-.2-.6v-3.8l.9-.4zm1 .5v.6l-2.3 1.3v-.6l.6-.4 1.7-.9zm2-1.2c.5-.3.9-.4 1.1-.3s.3.3.3.7c0 .3-.1.6-.2.9s-.4.5-.7.7l-1.8 1.1v-.6l1.6-.9.3-.3c0-.1.1-.2.1-.4s-.1-.3-.2-.3-.3 0-.5.2c-.2.1-.4.2-.5.4-.1.1-.2.3-.2.5s-.1.5-.1.8 0 .6.1.7c.1.2.1.2.3.2.1 0 .3-.1.5-.2s.3-.2.6-.3c.2-.1.4-.3.6-.4l.1.5c-.1.1-.3.2-.4.4-.2.1-.3.2-.5.3s-.3.2-.5.3a2.3 2.3 0 0 1-.9.3c-.2 0-.4-.1-.5-.3s-.2-.6-.2-1c0-.5.1-.9.2-1.2s.3-.6.5-.9c.2-.5.5-.7.9-.9zm2.8-1.5l.1.7.1.1v2.9l-.8.5v-3.7l.6-.5zm1.6-1l-.1.9-.2.1c-.2.1-.3.2-.5.4l-.7.7-.1-.5c.2-.4.5-.7.7-.9.2-.3.5-.5.7-.6l.2-.1zm3.6-2l-1.1 4.1c0 .1-.1.1-.1.2s-.1.1-.2.2l-.7.4h-.2c-.1 0-.1 0-.1-.1l-1.1-2.8.8-.5.7 2c0 .1.1.2.1.3s.1.2.1.3h.1c0-.1.1-.3.1-.4s.1-.3.1-.4l.7-2.8.8-.5zm1.3-.8v3.7l-.8.4v-3.7l.8-.4zm-.2-1.4c.2-.1.2 0 .2.1v.4c0 .2-.1.3-.2.4l-.4.2c-.2.1-.2 0-.2-.1v-.4c0-.2.1-.3.2-.4l.4-.2zm2.5 0c.5-.3.9-.4 1.1-.3s.3.3.3.7c0 .3-.1.6-.2.9-.1.2-.4.5-.7.7l-1.8 1.1v-.6l1.6-.9.3-.3c0-.1.1-.2.1-.4s-.1-.3-.2-.3-.3 0-.5.2c-.2.1-.4.2-.5.4s-.2.3-.2.5-.1.5-.1.8 0 .6.1.7c.1.2.2.2.3.2s.3-.1.5-.2.3-.2.6-.3c.2-.1.4-.3.6-.4l.1.5c-.1.1-.3.2-.4.4-.2.1-.3.2-.5.3s-.3.2-.5.3a2.3 2.3 0 0 1-.9.3c-.2 0-.4-.1-.5-.3s-.2-.6-.2-1c0-.5.1-.9.2-1.2s.3-.7.5-.9c.3-.4.6-.7.9-.9zm7.1-4l-.8 4c0 .1-.1.2-.1.2l-.2.2-.6.4c-.1 0-.1.1-.2 0-.1 0-.1-.1-.1-.1l-.4-2v-.3-.3h-.1v.3.3l-.4 2.5c0 .1 0 .2-.1.3l-.2.2-.6.4c-.1 0-.1.1-.2 0l-.1-.1-.9-3 .8-.5.5 2.2v.3.3h.1c0-.1 0-.2.1-.3 0-.1 0-.2.1-.3l.4-2.5c0-.1 0-.2.1-.2l.2-.2.6-.3h.2c.1 0 .1.1.1.1l.4 2v.3c0 .1 0 .2.1.3h.1v-.3c0-.1 0-.2.1-.3l.5-2.8.6-.8zm5.6-4.7v4.8c0 .2-.1.4-.3.5l-.6.3c-.1.1-.2.1-.2.1l-.1-.1-1.4-2.3c0-.1-.1-.2-.1-.3-.1-.1-.1-.2-.1-.3h-.1v.4.4 3.4l-.8.4v-4.8c0-.2.1-.4.3-.5l.5-.3c.1-.1.2-.1.2 0l.1.1 1.3 2.3c.1.1.1.2.2.3s.1.2.2.3l.1-.1v-.4-.4-3.3l.8-.5zm2.4.1a2.3 2.3 0 0 1 .9-.3c.2 0 .4.1.5.3s.2.6.2 1c0 .5-.1.9-.2 1.2s-.3.6-.5.9-.5.5-.9.7a2.3 2.3 0 0 1-.9.3c-.2 0-.4-.1-.5-.3s-.2-.6-.2-1c0-.5.1-.9.2-1.2s.3-.6.5-.9.5-.5.9-.7zm0 .7c-.2.1-.3.2-.5.4-.1.1-.2.3-.2.5s-.1.5-.1.8 0 .6.1.7.1.2.2.2.3 0 .5-.2c.2-.1.4-.2.5-.4s.2-.3.2-.5.1-.5.1-.8 0-.6-.1-.7c0-.2-.1-.2-.2-.2s-.3 0-.5.2zm4.3-1.6v.6l-2 1.1v-.6l2-1.1zm2-2.7c.1-.1.3-.2.5-.3s.3-.2.5-.2c.2-.1.3-.1.4-.2l-.1.6-.6.3-.6.3c-.2.1-.3.2-.4.3s-.2.1-.2.2-.1.2-.1.3 0 .2.1.2.2 0 .3-.1l.9-.3c.3-.1.5-.1.6 0s.2.3.2.6-.1.6-.2.8-.3.4-.5.6-.5.4-.8.5c-.1.1-.3.2-.6.3-.2.1-.5.3-.8.4l.1-.6c.1-.1.2-.1.3-.2s.3-.1.4-.2.3-.2.4-.2c.2-.1.4-.2.5-.3l.3-.3c0-.1.1-.2.1-.3s0-.2-.1-.2-.2 0-.4.1l-.9.2c-.2.1-.3.1-.5 0-.1 0-.2-.1-.2-.2s-.1-.3-.1-.5c0-.3 0-.5.1-.7s.2-.4.4-.6c.4 0 .7-.2 1-.3zm4.4-2.6c.6-.3.9-.2.9.5v2.8l-.8.5v-2.5c0-.2 0-.3-.1-.4-.1 0-.2 0-.3.1-.2.1-.3.2-.5.4s-.4.4-.6.7l-.1-.5c.2-.4.5-.7.7-1 .3-.2.5-.4.8-.6zm-1.4-.7v1.4.5c0 .2 0 .3-.1.4l.1.1v2.9l-.8.5V209l.8-.5zm4.6-1.1a2.3 2.3 0 0 1 .9-.3c.2 0 .4.1.5.3s.2.6.2 1a4.3 4.3 0 0 1-.2 1.2c-.1.3-.3.6-.5.9s-.5.5-.9.7a2.3 2.3 0 0 1-.9.3c-.2 0-.4-.1-.5-.3s-.2-.6-.2-1a4.3 4.3 0 0 1 .2-1.2c.1-.3.3-.6.5-.9.2-.2.5-.5.9-.7zm0 .7c-.2.1-.3.2-.5.4-.1.1-.2.3-.2.5s-.1.5-.1.8 0 .6.1.7.1.2.2.2.3 0 .5-.2c.2-.1.4-.2.5-.4.1-.1.2-.3.2-.5s.1-.5.1-.8 0-.6-.1-.7c0-.2-.1-.2-.2-.2-.2 0-.3.1-.5.2zm7.2-4.7l-.8 3.9c0 .1-.1.2-.1.2l-.2.2-.6.4c-.1 0-.1.1-.2 0-.1 0-.1-.1-.1-.1l-.4-2v-.3-.3h-.1v.3.3l-.4 2.5c0 .1 0 .2-.1.3l-.2.2-.6.4c-.1 0-.1.1-.2 0-.1 0-.1-.1-.1-.1l-.9-3 .8-.5.5 2.2v.3.3h.1c0-.1 0-.2.1-.3 0-.1 0-.2.1-.3l.4-2.5c0-.1 0-.2.1-.2l.2-.2.6-.3h.2c.1 0 .1.1.1.1l.4 2v.3c0 .1 0 .2.1.3h.1v-.3c0-.1 0-.2.1-.3l.5-2.8.6-.7zm3.6-3.7c.4-.2.7-.4.9-.4s.4 0 .5.2.1.5.1.9 0 .8-.1 1.1-.2.6-.5.8a3.5 3.5 0 0 1-.9.6l-.6.3c-.2.1-.3.2-.5.2-.2.1-.3.1-.4.2-.1 0-.2.1-.2.1v-.5c.2-.1.5-.3.8-.4l.8-.5c.2-.1.3-.2.5-.3.1-.1.2-.2.2-.4s.1-.4.1-.6 0-.4-.1-.5c0-.1-.1-.2-.2-.1-.1 0-.3.1-.5.2-.4.2-.7.4-1 .6s-.5.3-.6.3l-.1-.6c.2-.1.3-.2.5-.3s.3-.2.5-.3c.3-.3.5-.4.8-.6zm-.9.6v5.2l-.8.5v-5.2l.8-.5zm3.7-.7l.1.7.1.1v2.9l-.8.5V200l.6-.4zm1.6-.9l-.1.9-.2.1c-.2.1-.3.2-.5.4l-.7.7-.1-.5c.2-.4.5-.7.7-.9.2-.3.5-.5.7-.6l.2-.1zm1.9-1.1c.5-.3.9-.4 1.1-.3s.3.3.3.7c0 .3-.1.6-.2.9s-.4.5-.7.7l-1.8 1.1v-.7l1.6-.9.3-.3c0-.1.1-.2.1-.4s-.1-.3-.2-.3-.3 0-.5.2c-.2.1-.4.2-.5.4-.1.1-.2.3-.2.5s-.1.5-.1.8 0 .6.1.7c.1.2.1.2.3.2.1 0 .3-.1.5-.2s.3-.2.6-.3c.2-.1.4-.3.6-.4l.1.5c-.1.1-.3.2-.4.4-.2.1-.3.2-.5.3s-.3.2-.5.3a2.3 2.3 0 0 1-.9.3c-.2 0-.4-.1-.5-.3s-.2-.6-.2-1c0-.5.1-.9.2-1.2s.3-.6.5-.9c.2-.4.5-.6.9-.8zm3.3-1.9l.6-.3c.2-.1.4-.1.6 0l-.1.5c-.2 0-.3.1-.5.1s-.3.1-.5.2-.3.2-.4.3-.2.3-.2.5-.1.5-.1.8 0 .6.1.7c0 .1.1.2.2.2s.2 0 .4-.1c.1-.1.2-.1.3-.2l.3-.3c.1-.1.2-.3.3-.4l.1.5c-.1.3-.3.6-.5.8-.2.3-.5.5-.7.6-.4.2-.7.2-.9 0s-.3-.7-.3-1.3c0-.5 0-.9.1-1.2s.2-.6.4-.8c.3-.3.5-.4.8-.6zm1.8-2.6v5.3l-.6.4-.1-.6h-.1v-2.5-.1-.4-.5-1.1l.8-.5zm1.7.6v3.7l-.8.5v-3.7l.8-.5zm-.2-1.4c.2-.1.2 0 .2.1v.4c0 .2-.1.3-.2.4l-.4.2c-.2.1-.2 0-.2-.1v-.4c0-.2.1-.3.2-.4l.4-.2zm2.6 0c.1-.1.2-.1.4-.2.1-.1.3-.1.4-.2.1 0 .3-.1.4-.1l-.1.6c-.2.1-.3.2-.5.3s-.3.2-.4.2c-.2.1-.4.3-.5.4s-.2.3-.3.5-.1.5-.1.8 0 .5.1.7c.1.1.1.2.3.2.1 0 .3-.1.5-.2.1 0 .1-.1.3-.2.1-.1.2-.1.3-.2s.2-.2.4-.2l.1.5c-.2.2-.4.3-.6.5s-.4.3-.6.4a2.3 2.3 0 0 1-.9.3c-.2 0-.4-.1-.5-.3s-.2-.6-.2-1.1.1-.9.2-1.2.3-.6.5-.9c.1-.1.4-.4.8-.6zm2.8-2.6v3.6c0 .2 0 .2.1.3.1 0 .2 0 .3-.1l.4-.3.1.6c-.1.1-.2.1-.3.2s-.2.2-.3.2c-.1.1-.2.1-.3.2-.3.2-.5.2-.7.1s-.2-.3-.2-.6v-3.8l.9-.4zm1 .5v.6l-2.3 1.3v-.6l.6-.4 1.7-.9zm1.4-.8v3.7l-.8.4v-3.7l.8-.4zm-.2-1.5c.2-.1.2 0 .2.1v.4c0 .2-.1.3-.2.4l-.4.2c-.2.1-.2 0-.2-.1v-.4c0-.2.1-.3.2-.4l.4-.2zm2.6 0a2.3 2.3 0 0 1 .9-.3c.2 0 .4.1.5.3s.2.6.2 1a4.3 4.3 0 0 1-.2 1.2c-.1.3-.3.6-.5.9s-.5.5-.9.7a2.3 2.3 0 0 1-.9.3c-.2 0-.4-.1-.5-.3s-.2-.6-.2-1a4.3 4.3 0 0 1 .2-1.2c.1-.3.3-.6.5-.9.2-.2.5-.4.9-.7zm0 .7c-.2.1-.3.2-.5.4-.1.1-.2.3-.2.5s-.1.5-.1.8 0 .6.1.7c0 .2.1.2.2.2s.3 0 .5-.2c.2-.1.4-.2.5-.4.1-.1.2-.3.2-.5s.1-.5.1-.8 0-.6-.1-.7c0-.2-.1-.2-.2-.2-.2.1-.3.1-.5.2zm4.4-3.2c.6-.3.9-.2.9.5v2.8l-.8.5v-2.5c0-.2 0-.3-.1-.4-.1 0-.2 0-.3.1-.2.1-.3.2-.5.4s-.4.4-.6.7v-.5c.2-.4.5-.7.7-.9.2-.4.5-.6.7-.7zm-1.5.9l.1.7.1.1v2.9l-.8.5v-3.7l.6-.5zm6.6-3.8c.4-.2.7-.3.9-.1s.3.6.3 1.3c0 .3 0 .6-.1.8 0 .3-.1.5-.2.8-.1.2-.3.5-.5.7s-.4.4-.8.6c-.1.1-.2.1-.4.2-.1.1-.3.1-.4.2s-.3.1-.4.2c-.1 0-.2.1-.4.1l.6-.9c.1 0 .2 0 .3-.1.1 0 .2-.1.3-.1.1-.1.2-.1.3-.2.2-.1.3-.2.4-.4.1-.1.2-.3.2-.5s.1-.5.1-.8 0-.5-.1-.7c0-.2-.1-.2-.2-.3-.1 0-.2 0-.4.1s-.3.2-.4.4-.3.4-.5.6l-.1-.5c.1-.2.2-.4.4-.6.1-.2.3-.4.4-.5.4-.1.5-.2.7-.3zm-1.1-.9v1.3.5c0 .2 0 .3-.1.5l.1.1v2.8l-.8.4v-5.1l.8-.5zm6-1.9l-1.2 4.5c-.1.2-.1.4-.2.6l-.3.7c-.1.2-.3.4-.5.6s-.4.3-.6.4l-.1-.5c.3-.2.5-.5.6-.7s.3-.5.3-.8l.2-.6c0-.1.1-.3.1-.4 0-.2.1-.3.1-.4l.7-2.9.9-.5zm-2.6 1.5l.7 2.1c0 .1 0 .2.1.2v.2l.2-.1-.2.8-.2.1h-.2s-.1 0-.1-.1l-1.1-2.8.8-.4zm9-6.6c.2-.1.3-.1.3.2l.2 4.7-.8.4-.2-4.4-.1.1-.8 4c0 .2-.1.4-.3.5l-.6.3c-.2.1-.3.1-.3-.1l-.8-3-.1.1-.1 4.5-.8.4.2-4.9c0-.2.1-.4.3-.5l.8-.5c.2-.1.3-.1.3.1l.7 2.4c0 .1.1.2.1.3s0 .2.1.3l.1-.1c0-.1.1-.3.1-.4s0-.3.1-.4l.7-3.2c0-.2.1-.4.3-.5l.6-.3zm2.8-.2a2.3 2.3 0 0 1 .9-.3c.2 0 .4.1.5.3s.2.6.2 1a4.3 4.3 0 0 1-.2 1.2c-.1.3-.3.6-.5.9s-.5.5-.9.7a2.3 2.3 0 0 1-.9.3c-.2 0-.4-.1-.5-.3s-.2-.6-.2-1a4.3 4.3 0 0 1 .2-1.2c.1-.3.3-.6.5-.9.2-.2.5-.5.9-.7zm0 .7c-.2.1-.3.2-.5.4-.1.1-.2.3-.2.5s-.1.5-.1.8 0 .6.1.7.1.2.2.2.3 0 .5-.2c.2-.1.4-.2.5-.4.1-.1.2-.3.2-.5s.1-.5.1-.8 0-.6-.1-.7c0-.2-.1-.2-.2-.2-.2 0-.3.1-.5.2zm4.4-3.3c.6-.3.9-.2.9.5v2.8l-.8.5v-2.5c0-.2 0-.3-.1-.4-.1 0-.2 0-.3.1-.2.1-.3.2-.5.4s-.4.4-.6.7v-.5c.2-.4.5-.7.7-.9.2-.3.5-.5.7-.7zm-1.5 1l.1.7.1.1v2.9l-.8.5v-3.7l.6-.5zm4.3-3.5v3.6c0 .1 0 .2.1.3.1 0 .2 0 .3-.1l.4-.3.1.6c-.1.1-.2.1-.3.2s-.2.2-.3.2c-.1.1-.2.1-.3.2-.3.2-.5.2-.7.1s-.2-.3-.2-.6v-3.8l.9-.4zm1 .5v.6l-2.3 1.3v-.6l.6-.4 1.7-.9zm2.7-1.7c.6-.3.9-.2.9.5v2.8l-.8.5v-2.5c0-.2 0-.3-.1-.4-.1 0-.2 0-.3.1-.2.1-.3.2-.5.4s-.4.4-.6.7l-.1-.5c.2-.4.5-.7.7-1 .3-.2.5-.4.8-.6zm-1.3-.7v1.4.5c0 .2 0 .3-.1.4l.1.1v2.9l-.8.5v-5.3l.8-.5z" class="P"/></g></svg>