<svg xmlns="http://www.w3.org/2000/svg" width="600" height="600" fill="none" xmlns:v="https://vecta.io/nano"><style><![CDATA[.B{fill:#fff}.C{stroke:#0668e1}.D{stroke-width:.3}.E{stroke-width:.47}.F{fill:#edf5ff}.G{stroke-miterlimit:10}]]></style><g clip-path="url(#K)"><path d="M280.25 11.98a39.5 39.5 0 0 1 39.5 0l219.81 126.91a39.5 39.5 0 0 1 19.75 34.21v253.81a39.5 39.5 0 0 1-19.18 33.87l-.57.33-219.81 126.91a39.5 39.5 0 0 1-39.5 0L60.44 461.11a39.5 39.5 0 0 1-19.75-34.21V173.09a39.5 39.5 0 0 1 19.75-34.21L280.25 11.98z" fill="#bfd8f7" fill-opacity=".2" class="C"/><path d="M110.83 414.79c3.11-1.28 265.49-146.12 265.49-146.12 5.35-3.07 14.71-2.7 20.9.86L568.38 362s2.36 4.39 1.38 8.93c-.71 3.31-1.67 4.61-3.24 5.71 0 0-.02 0-.04.02-.22.15-.47.32-.73.47-.07.04-.13.09-.19.13L302.98 527.92c-5.35 3.07-14.71 2.7-20.91-.86l-166.86-95.73a18.8 18.8 0 0 1-1.18-.74l-.26-.2c-.22-.17-.47-.34-.67-.5-2.62-2.14-3.59-4.61-4.08-7.77-.56-3.53 1.81-7.29 1.81-7.29v-.04z" fill="url(#A)"/><path d="M303 520.68l262.59-150.65c5.35-3.07 4.68-8.44-1.5-12L397.23 262.3c-6.19-3.55-15.55-3.94-20.9-.86L113.74 412.12c-5.35 3.07-4.68 8.44 1.5 12l166.86 95.73c6.19 3.55 15.55 3.94 20.91.86v-.02z" fill="url(#B)"/><g class="D G"><use href="#L" stroke="url(#C)"/><use href="#L" stroke="url(#C)"/></g><path d="M376.69 288.03c-1.14-.05-2.2.15-2.94.58L160.09 411.2h0c-.74.42-.96.93-.9 1.37.06.48.46 1.08 1.37 1.6l79.42 45.57c.91.51 2.06.81 3.2.86s2.2-.15 2.94-.58l213.65-122.59h0c.74-.42.96-.93.9-1.37-.06-.48-.46-1.09-1.37-1.6l-79.43-45.57h0c-.91-.52-2.06-.81-3.19-.86z" fill="url(#D)" stroke="#a9d0ff" stroke-width=".94"/><path d="M383.31 462.94l81.41-46.7-58.95-33.83-81.41 46.7 58.95 33.83z" fill="url(#E)"/><path d="M143.91 402.71l217.75-124.95-8.68-4.98L135.2 397.7l8.7 5z" fill="url(#F)"/><g fill="#244063"><use href="#M"/><path d="M357.05 309.36l9.64-5.52c1.24-.71 1.07-1.94-.34-2.75l-2.81-1.62c-1.42-.82-3.57-.91-4.79-.2l-9.64 5.52c-1.24.71-1.07 1.94.34 2.75l2.81 1.62c1.42.82 3.57.91 4.79.21z"/><use href="#N"/><path d="M326.23 327.04l9.64-5.52c1.24-.71 1.07-1.93-.34-2.75l-2.81-1.62c-1.42-.82-3.57-.91-4.79-.2l-9.64 5.52c-1.24.71-1.07 1.93.34 2.75l2.81 1.62c1.42.82 3.57.91 4.79.2zm-15.42 8.86l9.64-5.52c1.24-.71 1.07-1.94-.34-2.75l-2.81-1.62c-1.42-.82-3.57-.91-4.79-.2l-9.64 5.52c-1.24.71-1.07 1.93.34 2.75l2.81 1.62c1.42.82 3.57.91 4.79.21zm-15.43 8.84l9.64-5.52c1.24-.71 1.07-1.94-.34-2.75l-2.81-1.62c-1.42-.82-3.57-.91-4.79-.2l-9.64 5.52c-1.23.71-1.07 1.94.34 2.75l2.81 1.62c1.42.82 3.57.91 4.79.21z"/><use href="#O"/><path d="M264.56 362.41l9.64-5.52c1.24-.71 1.07-1.93-.34-2.75l-2.81-1.62c-1.42-.82-3.57-.91-4.79-.2l-9.64 5.52c-1.24.71-1.07 1.93.34 2.75l2.81 1.62c1.42.82 3.57.91 4.79.2zm-15.42 8.87l9.64-5.52c1.24-.71 1.07-1.94-.34-2.75l-2.81-1.62c-1.42-.82-3.57-.91-4.79-.2l-9.64 5.52c-1.23.71-1.07 1.93.34 2.75l2.81 1.62c1.42.82 3.57.91 4.79.21zm-15.42 8.85l9.64-5.52c1.24-.71 1.07-1.93-.34-2.75l-2.81-1.62c-1.42-.82-3.57-.91-4.79-.2l-9.64 5.52c-1.23.71-1.07 1.93.34 2.75l2.81 1.62c1.42.82 3.57.91 4.79.2zm-15.42 8.82l9.64-5.52c1.24-.71 1.07-1.93-.34-2.75l-2.81-1.62c-1.42-.82-3.57-.91-4.79-.21l-9.64 5.52c-1.23.71-1.07 1.93.34 2.75l2.81 1.62c1.42.82 3.57.91 4.79.2zm-15.4 8.86l9.64-5.52c1.24-.71 1.07-1.93-.34-2.75l-2.81-1.62c-1.42-.82-3.58-.91-4.79-.2l-9.64 5.52c-1.24.71-1.07 1.94.34 2.75l2.81 1.62c1.42.82 3.57.91 4.79.21zm-15.43 8.84l9.64-5.52c1.24-.71 1.07-1.94-.34-2.75l-2.81-1.62c-1.42-.82-3.57-.91-4.79-.21l-9.64 5.52c-1.23.71-1.07 1.94.34 2.75l2.81 1.62c1.42.82 3.57.91 4.79.2zm-15.42 8.85l9.64-5.52c1.24-.71 1.07-1.93-.34-2.75l-2.81-1.62c-1.42-.82-3.57-.91-4.79-.2l-9.64 5.52c-1.24.71-1.07 1.93.34 2.75l2.81 1.62c1.42.82 3.58.91 4.79.2zm215.11-107.48l8.93-5.12c.82-.46.71-1.28-.23-1.84l-8.38-4.82c-.95-.54-2.38-.59-3.2-.13l-8.93 5.11c-.82.46-.71 1.28.22 1.84l8.38 4.82c.95.54 2.38.59 3.2.13zm6.59 12.28l15.91-9.13c1.05-.61.92-1.67-.3-2.36l-7.41-4.24c-1.22-.71-3.07-.78-4.12-.17l-15.91 9.13c-1.05.61-.92 1.67.3 2.36l7.41 4.24c1.22.71 3.07.78 4.12.17z"/><use href="#P"/><path d="M378.93 328.81l8.93-5.12c.82-.46.71-1.28-.23-1.84l-8.38-4.82a3.6 3.6 0 0 0-3.2-.13l-8.93 5.11c-.82.46-.71 1.28.23 1.84l8.38 4.82a3.6 3.6 0 0 0 3.2.13zm-14.99 8.59l8.93-5.12c.82-.46.71-1.28-.23-1.84l-8.38-4.82a3.6 3.6 0 0 0-3.2-.13l-8.93 5.12c-.82.46-.71 1.28.23 1.84l8.38 4.82a3.6 3.6 0 0 0 3.2.13zm-14.99 8.62l8.93-5.12c.82-.46.71-1.28-.22-1.84l-8.39-4.82c-.95-.54-2.38-.59-3.2-.13l-8.93 5.11c-.82.46-.71 1.28.22 1.84l8.38 4.82c.95.54 2.38.59 3.2.13zm-14.99 8.59l8.93-5.11c.82-.47.71-1.28-.23-1.84l-8.38-4.82a3.6 3.6 0 0 0-3.2-.13l-8.93 5.12c-.82.47-.71 1.28.22 1.84l8.38 4.82a3.6 3.6 0 0 0 3.2.13zm-15 8.61l8.93-5.11c.82-.47.71-1.28-.23-1.84l-8.38-4.82a3.6 3.6 0 0 0-3.2-.13l-8.93 5.11c-.82.47-.71 1.28.23 1.84l8.38 4.82a3.6 3.6 0 0 0 3.2.13zm-14.98 8.6l8.93-5.12c.82-.46.71-1.28-.23-1.84l-8.38-4.82a3.6 3.6 0 0 0-3.2-.13l-8.93 5.12c-.82.46-.71 1.28.23 1.84l8.38 4.82a3.6 3.6 0 0 0 3.2.13z"/><use href="#Q"/><path d="M273.99 389.01l8.93-5.12c.82-.47.71-1.28-.22-1.84l-8.38-4.82a3.6 3.6 0 0 0-3.2-.13l-8.93 5.12c-.82.46-.71 1.28.22 1.84l8.38 4.82a3.6 3.6 0 0 0 3.2.13zM259 397.6l8.93-5.12c.82-.46.71-1.28-.23-1.84l-8.38-4.82c-.95-.54-2.38-.59-3.2-.13l-8.93 5.11c-.82.46-.71 1.28.22 1.84l8.39 4.82c.95.54 2.38.59 3.2.13zm-14.99 8.62l8.93-5.12c.82-.47.71-1.28-.22-1.84l-8.38-4.82c-.96-.54-2.38-.59-3.2-.13l-8.93 5.12c-.82.46-.71 1.28.22 1.84l8.38 4.82c.95.54 2.38.59 3.2.13zm-14.99 8.59l8.93-5.12c.82-.46.71-1.28-.22-1.84l-8.38-4.82a3.6 3.6 0 0 0-3.2-.13l-8.93 5.11c-.82.46-.71 1.28.22 1.84l8.38 4.82a3.6 3.6 0 0 0 3.2.13z"/><use href="#R"/><path d="M227.61 431.93l8.93-5.12c.82-.46.71-1.28-.22-1.84l-8.38-4.82a3.6 3.6 0 0 0-3.2-.13l-8.93 5.11c-.82.46-.71 1.28.22 1.84l8.39 4.82a3.6 3.6 0 0 0 3.2.13zm30.6-17.56l8.93-5.12c.82-.47.71-1.28-.23-1.84l-8.38-4.82a3.6 3.6 0 0 0-3.2-.13l-8.93 5.11c-.82.47-.71 1.28.22 1.84l8.38 4.82c.95.54 2.38.59 3.2.13z"/><use href="#S"/><path d="M288.2 397.16l8.93-5.12c.82-.47.71-1.28-.22-1.84l-8.38-4.82a3.6 3.6 0 0 0-3.2-.13l-8.93 5.12c-.82.47-.71 1.28.22 1.84l8.39 4.82a3.6 3.6 0 0 0 3.2.13zm14.99-8.59l8.93-5.11c.82-.47.71-1.28-.23-1.84l-8.38-4.82a3.6 3.6 0 0 0-3.2-.13l-8.93 5.12c-.82.47-.71 1.28.23 1.84l8.38 4.82a3.6 3.6 0 0 0 3.2.13zm14.99-8.61l8.93-5.12c.82-.46.71-1.28-.23-1.84l-8.38-4.82c-.95-.54-2.38-.59-3.2-.13l-8.93 5.12c-.82.46-.71 1.28.23 1.84l8.38 4.82a3.6 3.6 0 0 0 3.2.13zm14.99-8.6l8.93-5.11c.82-.47.71-1.28-.22-1.84l-8.38-4.82a3.6 3.6 0 0 0-3.2-.13l-8.93 5.12c-.82.47-.71 1.28.22 1.84l8.38 4.82a3.6 3.6 0 0 0 3.2.13zm14.99-8.6l8.93-5.11c.82-.46.71-1.28-.22-1.84l-8.38-4.82c-.95-.54-2.38-.59-3.2-.13l-8.93 5.12c-.82.47-.71 1.28.22 1.84l8.38 4.82c.95.54 2.38.59 3.2.13z"/><use href="#T"/><path d="M378.14 345.58l8.93-5.11c.82-.47.71-1.28-.22-1.84l-8.38-4.82c-.95-.54-2.38-.59-3.2-.13l-8.93 5.12c-.82.47-.71 1.28.22 1.84l8.38 4.82a3.6 3.6 0 0 0 3.2.13zm14.2 8.13l8.93-5.11c.82-.47.71-1.28-.23-1.84l-8.38-4.82c-.95-.54-2.38-.59-3.2-.13l-8.93 5.12c-.82.47-.71 1.28.23 1.84l8.38 4.82c.96.54 2.38.59 3.2.13zm-119.26 85.92l8.93-5.11c.82-.46.71-1.28-.23-1.84l-8.38-4.82c-.95-.54-2.38-.59-3.2-.13l-8.93 5.12c-.82.47-.71 1.28.22 1.84l8.38 4.82c.95.54 2.38.59 3.2.13zm-15.14 8.69l8.93-5.12c.82-.46.71-1.28-.22-1.84l-8.38-4.82a3.6 3.6 0 0 0-3.2-.13l-8.93 5.12c-.82.46-.71 1.28.22 1.84l8.38 4.82a3.6 3.6 0 0 0 3.2.13zm-15.14 8.69l8.93-5.12c.82-.47.71-1.28-.23-1.84l-8.38-4.82a3.6 3.6 0 0 0-3.2-.13l-8.93 5.12c-.82.46-.71 1.28.22 1.84l8.38 4.82a3.6 3.6 0 0 0 3.2.13z"/><use href="#U"/><path d="M289.15 430.4l8.93-5.12c.82-.46.71-1.28-.22-1.84l-8.38-4.82c-.95-.54-2.38-.6-3.2-.13l-8.93 5.12c-.82.46-.71 1.28.23 1.84l8.38 4.82c.95.54 2.38.6 3.2.13z"/><use href="#V"/><use href="#W"/><path d="M443.37 341.4l9.97-5.73c.53-.3.47-.84-.15-1.19l-2.75-1.58c-.62-.35-1.55-.39-2.08-.09l-9.97 5.73c-.52.3-.47.84.15 1.19l2.75 1.58c.62.35 1.55.39 2.08.09zm-29.65 17.01l9.97-5.73c.52-.3.47-.84-.15-1.19l-2.75-1.58c-.62-.35-1.55-.39-2.08-.09l-9.98 5.73c-.52.3-.47.84.15 1.19l2.75 1.58c.62.35 1.55.39 2.08.09zm-17.63 10.65l11.62-6.68c.92-.52.81-1.45-.26-2.06l-7.97-4.57c-1.07-.61-2.68-.67-3.59-.15l-11.62 6.68c-.92.52-.8 1.45.26 2.06l7.97 4.58c1.07.61 2.68.67 3.59.15zm-70.41 40.4l62.02-35.6c1.98-1.13 1.72-3.12-.56-4.43l-3.56-2.05c-2.28-1.3-5.75-1.45-7.71-.32l-62.02 35.6c-1.98 1.13-1.72 3.13.56 4.43l3.56 2.05c2.28 1.3 5.75 1.45 7.71.32zm51.87-47.24l8.93-5.12c.82-.46.71-1.28-.22-1.84l-8.38-4.82c-.95-.54-2.38-.59-3.2-.13l-8.93 5.12c-.82.46-.71 1.28.22 1.84l8.38 4.82c.95.54 2.38.59 3.2.13zm-14.81 8.48l8.93-5.12c.82-.46.71-1.28-.22-1.84l-8.38-4.82a3.6 3.6 0 0 0-3.2-.13l-8.93 5.12c-.82.46-.71 1.28.22 1.84l8.38 4.82a3.6 3.6 0 0 0 3.2.13zm-14.81 8.5l8.93-5.12c.82-.46.71-1.28-.22-1.84l-8.38-4.82a3.6 3.6 0 0 0-3.2-.13l-8.93 5.12c-.82.46-.71 1.28.22 1.84l8.38 4.82a3.6 3.6 0 0 0 3.2.13zm-14.8 8.49l8.93-5.11c.82-.47.71-1.28-.23-1.84l-8.38-4.82a3.6 3.6 0 0 0-3.2-.13l-8.93 5.12c-.82.47-.71 1.28.23 1.84l8.38 4.82a3.6 3.6 0 0 0 3.2.13z"/><use href="#X"/><path d="M303.53 404.68l8.93-5.11c.82-.47.71-1.28-.22-1.84l-8.38-4.82a3.6 3.6 0 0 0-3.2-.13l-8.93 5.11c-.82.47-.71 1.28.22 1.84l8.38 4.82a3.6 3.6 0 0 0 3.2.13zm-14.81 8.5l8.93-5.11c.82-.46.71-1.28-.22-1.84l-8.38-4.82c-.95-.54-2.38-.59-3.2-.13l-8.93 5.12c-.82.46-.71 1.28.22 1.84l8.38 4.82c.95.54 2.38.59 3.2.13zm-14.8 8.49l8.93-5.11c.82-.46.71-1.28-.22-1.84l-8.38-4.82a3.6 3.6 0 0 0-3.2-.13l-8.93 5.12c-.82.46-.71 1.28.22 1.84l8.38 4.82a3.6 3.6 0 0 0 3.2.13zm-14.81 8.48l8.93-5.12c.82-.46.71-1.28-.22-1.84l-8.38-4.82a3.6 3.6 0 0 0-3.2-.13l-8.93 5.12c-.82.46-.71 1.28.22 1.84l8.39 4.82a3.6 3.6 0 0 0 3.2.13zm-30.84 17.7l24.14-13.86c1.27-.73 1.12-2.01-.36-2.84l-6.49-3.72a5.6 5.6 0 0 0-4.98-.2l-24.14 13.86c-1.27.73-1.12 2.01.36 2.85l6.49 3.72c1.48.84 3.71.93 4.98.21zm164.86-110.89l8.93-5.12c.82-.46.71-1.28-.23-1.84l-8.38-4.82c-.96-.54-2.38-.59-3.2-.13l-8.93 5.12c-.82.46-.71 1.28.23 1.84l8.38 4.82a3.6 3.6 0 0 0 3.2.13zm14.81-8.5l15.5-8.89c1.05-.59.92-1.64-.3-2.34l-7.45-4.28a4.6 4.6 0 0 0-4.08-.17l-15.5 8.89c-1.05.59-.92 1.64.3 2.34l7.45 4.28a4.6 4.6 0 0 0 4.08.17zm.28 16.13l28.95-16.61c1.31-.74 1.14-2.07-.37-2.92l-6.34-3.65c-1.52-.87-3.8-.97-5.11-.2l-28.95 16.61c-1.31.74-1.14 2.06.37 2.92l6.34 3.65c1.52.88 3.8.97 5.11.2zm-220.11 82.87l21.8 12.5a5.4 5.4 0 0 0 4.77 0l7.11-4.07c1.31-.76 1.33-1.99 0-2.73l-9.94-5.71c-1.33-.76-1.33-2.01 0-2.77l10.57-6.06c1.1-.63 1.09-1.66 0-2.27l-7.9-4.52a4.4 4.4 0 0 0-3.95 0l-22.51 12.91c-1.31.76-1.33 1.99 0 2.75l.04-.02zm168.34-101.81l8.93-5.12c.82-.47.71-1.28-.22-1.84l-8.38-4.82a3.6 3.6 0 0 0-3.2-.13l-8.93 5.11c-.82.47-.71 1.28.22 1.84l8.38 4.82a3.6 3.6 0 0 0 3.2.13zm-15.36 8.81l8.93-5.11c.82-.47.71-1.28-.22-1.84l-8.38-4.82a3.6 3.6 0 0 0-3.2-.13l-8.93 5.12c-.82.46-.71 1.28.22 1.84l8.39 4.82a3.6 3.6 0 0 0 3.2.13zm-15.37 8.83l8.93-5.12c.82-.46.71-1.28-.22-1.84l-8.38-4.82c-.95-.54-2.38-.59-3.2-.13l-8.93 5.12c-.82.46-.71 1.28.22 1.84l8.38 4.82a3.6 3.6 0 0 0 3.2.13zm-15.36 8.81l8.93-5.11c.82-.47.71-1.28-.22-1.84l-8.38-4.82a3.6 3.6 0 0 0-3.2-.13l-8.93 5.11c-.82.47-.71 1.28.22 1.84l8.38 4.82a3.6 3.6 0 0 0 3.2.13zm-15.37 8.81l8.93-5.12c.82-.47.71-1.28-.22-1.84l-8.38-4.82a3.6 3.6 0 0 0-3.2-.13l-8.93 5.12c-.82.47-.71 1.28.22 1.84l8.38 4.82a3.6 3.6 0 0 0 3.2.13zm-15.36 8.82l8.93-5.12c.82-.46.71-1.28-.22-1.84l-8.38-4.82c-.95-.54-2.38-.59-3.2-.13l-8.93 5.11c-.82.46-.71 1.28.22 1.84l8.38 4.82c.95.54 2.38.59 3.2.13zm-15.37 8.8l8.93-5.12c.82-.46.71-1.28-.23-1.84l-8.38-4.82a3.6 3.6 0 0 0-3.2-.13l-8.93 5.12c-.82.46-.71 1.28.22 1.84l8.38 4.82a3.6 3.6 0 0 0 3.2.13z"/><use href="#Y"/><path d="M233.53 396.16l8.93-5.12c.82-.46.71-1.28-.22-1.84l-8.39-4.82a3.6 3.6 0 0 0-3.2-.13l-8.93 5.12c-.82.46-.71 1.28.22 1.84l8.38 4.82c.95.54 2.38.59 3.2.13zm-15.37 8.81l8.93-5.12c.82-.47.71-1.28-.22-1.84l-8.38-4.82c-.95-.54-2.38-.59-3.2-.13l-8.93 5.12c-.82.46-.71 1.28.22 1.84l8.38 4.82c.95.54 2.38.59 3.2.13zm-32.11 18.44l24.82-14.25c1.29-.74 1.12-2.03-.36-2.88l-6.42-3.68c-1.5-.86-3.74-.95-5.03-.2l-24.82 14.25c-1.29.74-1.12 2.03.35 2.88l6.42 3.68c1.5.86 3.74.95 5.03.2z"/></g><path d="M383.31 463.12l81.73-46.89-59.27-34-81.73 46.89 59.27 34zm81.07-46.89l-81.09 46.52-58.63-33.65 81.09-46.52 58.63 33.65z" stroke="#bed3f4" class="D G"/><path d="M100.84 414.98l271.31-155.68c3.63-2.08 6.96-6.44 8.46-11.07l.39-1.21 2-208.57c.04-2.75-.86-4.84-2.56-5.84s-3.97-.78-6.38.61L98.95 191.09c-2.41 1.39-4.7 3.77-6.38 6.73-1.7 2.94-2.6 6.08-2.56 8.82l2 206.25.39.76c1.5 2.9 4.83 3.44 8.46 1.36l-.02-.02zm271.24-165.85L100.93 404.72l-1.97-203.38L374.04 43.46l-1.98 205.67h.02z" fill="url(#G)"/><path d="M96.85 208.28l2.08 202.6c.79 1.51 2.49 1.79 4.38.71l271.31-155.68c.56-.32 1.1-.72 1.61-1.25 1.22-1.17 2.23-2.79 2.79-4.48l2.06-204.96c1.12-4.26-.67-7.38-3.35-5.84L100.22 198.61s-.11.06-.17.11c-2.58 1.64-4.27 6.64-3.2 9.58v-.02z" fill="url(#H)"/><path d="M103.31 416.7l271.31-155.68c3.63-2.08 6.96-6.44 8.46-11.07l.39-1.21 2-208.57c.04-2.75-.86-4.84-2.56-5.84s-3.97-.78-6.38.61L101.42 192.8c-2.41 1.39-4.7 3.78-6.38 6.73-1.7 2.94-2.6 6.08-2.56 8.82l2 206.25.39.76c1.5 2.9 4.83 3.44 8.46 1.36l-.02-.02zm271.22-165.85L103.38 406.43l-1.97-203.38L376.51 45.18l-1.98 205.67z" fill="url(#I)"/><path style="mix-blend-mode:screen" opacity=".54" d="M374.53 250.85l1.98-205.67-275.1 157.87c91.52 61.77 239.63 67.01 273.11 47.8z" fill="url(#J)"/><g class="B"><path d="M130.38 216.86v186.31c0 7.95 5.64 11.15 12.62 7.16l276.26-158.64c6.96-4 12.62-13.68 12.62-21.63V43.74c0-7.95-5.64-11.15-12.62-7.16L143 195.22c-6.96 4-12.62 13.68-12.62 21.63v.02z"/><g class="C E"><path d="M429.75 35.89c-2.18-1.24-5.25-1.07-8.69.9L144.8 195.43c-3.44 1.97-6.56 5.36-8.83 9.25s-3.67 8.25-3.67 12.18v186.32c0 3.92 1.39 6.61 3.57 7.85 2.12 1.2 5.05 1.08 8.37-.72l.32-.18 276.26-158.64h0c3.44-1.97 6.56-5.36 8.83-9.25s3.66-8.25 3.66-12.18V43.74c0-3.92-1.39-6.61-3.57-7.85z" fill-opacity=".4"/></g></g><rect x=".2" y=".12" width="96.46" height="132.27" rx="3.4" transform="matrix(.8672 -.498 0 1 205.793 230.145)" class="C E F"/><g class="B"><ellipse cx="3.45" cy="3.46" rx="3.45" ry="3.46" transform="matrix(.8672 -.5007 0 1 259.387 319.355)"/><rect width="13.81" height="2.07" rx="1.04" transform="matrix(.8672 -.5007 0 1 266.574 316.246)"/><rect width="20.72" height="1.38" rx=".69" transform="matrix(.8672 -.5007 0 1 266.574 319.703)"/></g><use href="#Z" fill="#d8e9ff"/><g fill="#b7d7ff"><ellipse cx="3.45" cy="3.46" rx="3.45" ry="3.46" transform="matrix(.8672 -.5007 0 1 211.055 233.07)"/><rect width="13.81" height="2.07" rx="1.04" transform="matrix(.8672 -.5007 0 1 218.234 229.957)"/><rect width="20.71" height="1.38" rx=".69" transform="matrix(.8672 -.5007 0 1 218.234 233.422)"/></g><rect x=".13" y=".08" width="23.93" height="4.52" rx="1.06" transform="matrix(.8672 -.498 0 1 263.572 224.077)" stroke="#88bdff" class="D"/><g class="B"><rect width="84.82" height="12.07" rx="2.43" transform="matrix(.8672 -.498 0 1 211.02 266.852)"/><rect width="84.82" height="2.41" rx="1.21" transform="matrix(.8672 -.498 0 1 211.02 284.949)"/><rect width="78.76" height="2.41" rx="1.21" transform="matrix(.8672 -.498 0 1 211.02 289.777)"/><rect width="84.82" height="2.41" rx="1.21" transform="matrix(.8672 -.498 0 1 211.02 294.605)"/><rect width="60.58" height="2.41" rx="1.21" transform="matrix(.8672 -.498 0 1 211.02 299.43)"/><rect width="36.35" height="2.41" rx="1.21" transform="matrix(.8672 -.498 0 1 211.02 304.258)"/><rect width="84.82" height="2.41" rx="1.21" transform="matrix(.8672 -.498 0 1 211.02 315.121)"/><rect width="78.76" height="2.41" rx="1.21" transform="matrix(.8672 -.498 0 1 211.02 319.945)"/><rect width="84.82" height="2.41" rx="1.21" transform="matrix(.8672 -.498 0 1 211.02 324.777)"/><rect width="60.58" height="2.41" rx="1.21" transform="matrix(.8672 -.498 0 1 211.02 329.602)"/><rect width="36.35" height="2.41" rx="1.21" transform="matrix(.8672 -.498 0 1 211.02 334.426)"/></g><rect x=".2" y=".12" width="96.46" height="132.27" rx="3.4" transform="matrix(.8672 -.498 0 1 313.086 166.492)" class="C E F"/><g class="B"><ellipse cx="3.45" cy="3.46" rx="3.45" ry="3.46" transform="matrix(.8672 -.5007 0 1 366.684 255.699)"/><rect width="13.81" height="2.07" rx="1.04" transform="matrix(.8672 -.5007 0 1 373.867 252.594)"/><rect width="20.72" height="1.38" rx=".69" transform="matrix(.8672 -.5007 0 1 373.867 256.047)"/></g><path d="M313.53 170.24c0-2.02 1.42-4.47 3.17-5.46l76.98-43.76c1.74-.99 3.14-.17 3.14 1.84v20.51l-83.29 47.77v-20.9z" fill="#d8e9ff"/><g fill="#b7d7ff"><ellipse cx="3.45" cy="3.46" rx="3.45" ry="3.46" transform="matrix(.8672 -.5007 0 1 318.348 169.414)"/><rect width="13.81" height="2.07" rx="1.04" transform="matrix(.8672 -.5007 0 1 325.531 166.305)"/><rect width="20.71" height="1.38" rx=".69" transform="matrix(.8672 -.5007 0 1 325.531 169.766)"/></g><rect x=".13" y=".08" width="23.93" height="4.52" rx="1.06" transform="matrix(.8672 -.498 0 1 370.865 160.421)" stroke="#88bdff" class="D"/><g class="B"><rect width="84.82" height="12.07" rx="2.43" transform="matrix(.8672 -.498 0 1 318.312 203.199)"/><rect width="84.82" height="2.41" rx="1.21" transform="matrix(.8672 -.498 0 1 318.312 221.297)"/><rect width="78.76" height="2.41" rx="1.21" transform="matrix(.8672 -.498 0 1 318.312 226.125)"/><rect width="84.82" height="2.41" rx="1.21" transform="matrix(.8672 -.498 0 1 318.312 230.949)"/><rect width="60.58" height="2.41" rx="1.21" transform="matrix(.8672 -.498 0 1 318.312 235.777)"/><rect width="36.35" height="2.41" rx="1.21" transform="matrix(.8672 -.498 0 1 318.312 240.605)"/><rect width="84.82" height="2.41" rx="1.21" transform="matrix(.8672 -.498 0 1 318.312 251.469)"/><rect width="78.76" height="2.41" rx="1.21" transform="matrix(.8672 -.498 0 1 318.312 256.293)"/><rect width="84.82" height="2.41" rx="1.21" transform="matrix(.8672 -.498 0 1 318.312 261.121)"/><rect width="60.58" height="2.41" rx="1.21" transform="matrix(.8672 -.498 0 1 318.312 265.949)"/><rect width="36.35" height="2.41" rx="1.21" transform="matrix(.8672 -.498 0 1 318.312 270.773)"/></g><path d="M185.94 214.64l.68-.36.52-.23.49-.16-.1 1.12-.5.26-.48.26-.61.34a2 2 0 0 0-.65.57 2.1 2.1 0 0 0-.33.84 7.5 7.5 0 0 0-.1 1.35 5.8 5.8 0 0 0 .1 1.23c.07.27.17.42.33.46s.38-.03.65-.19l.95-.56.76-.5.11.99c-.26.24-.53.46-.8.66a10.9 10.9 0 0 1-1.01.65c-.58.33-1.05.5-1.4.48-.35-.02-.6-.23-.76-.63-.15-.4-.23-1.02-.23-1.84a8.4 8.4 0 0 1 .23-2.11c.16-.58.41-1.08.76-1.49.35-.42.81-.8 1.4-1.13zm4.44-.71c.51-.29.91-.44 1.22-.45.3-.02.52.11.65.4s.2.72.2 1.32a5.2 5.2 0 0 1-.2 1.54c-.13.43-.35.81-.65 1.15s-.71.64-1.22.93a3 3 0 0 1-1.21.46c-.31.02-.53-.11-.66-.39s-.2-.71-.2-1.3c0-.6.07-1.12.2-1.56a3 3 0 0 1 .66-1.15 4.9 4.9 0 0 1 1.21-.94zm0 1.01a1.7 1.7 0 0 0-.49.4c-.12.15-.2.34-.25.58s-.07.55-.07.94c0 .38.02.65.07.83s.13.27.25.29c.12.01.28-.05.49-.17s.38-.26.5-.4c.12-.15.2-.34.25-.57s.07-.54.07-.92a3.6 3.6 0 0 0-.07-.85c-.04-.18-.13-.28-.25-.29s-.29.04-.5.16zm5.7-4.28c.76-.44 1.14-.23 1.14.63v3.48l-1.21.69v-3.05c0-.21-.03-.33-.1-.37-.06-.04-.18-.02-.33.07-.17.1-.35.24-.54.43l-.69.74-.06-.74a8.4 8.4 0 0 1 .88-1.16 4 4 0 0 1 .9-.74zm-1.84 1.18l.14.84.1.07v3.6l-1.2.69v-4.65l.96-.55zm6.74-3.99c.76-.44 1.14-.23 1.14.63v3.48l-1.21.69v-3.05c0-.21-.03-.33-.1-.37-.07-.04-.18-.02-.33.07-.17.1-.35.24-.54.43l-.69.74-.06-.74c.29-.45.58-.83.88-1.16s.6-.57.9-.74zm-1.84 1.18l.14.84.1.07v3.6l-1.2.69v-4.65l.96-.55zm5.84-3.48c.68-.39 1.17-.53 1.46-.43.3.09.45.4.45.93a2.1 2.1 0 0 1-.28 1.11c-.19.32-.52.62-.99.89l-2.25 1.29v-.78l1.93-1.11c.18-.1.29-.21.34-.33.05-.13.08-.27.08-.43 0-.22-.05-.34-.16-.36-.1-.03-.28.03-.54.18-.22.12-.4.26-.52.4-.12.14-.21.32-.26.55a4.3 4.3 0 0 0-.07.89c0 .39.03.67.09.85.06.17.16.26.3.26.15 0 .35-.08.6-.22l.69-.41.83-.56.12.79c-.16.18-.34.35-.54.52l-.62.46-.61.39c-.51.29-.92.44-1.23.45a.7.7 0 0 1-.68-.41c-.14-.28-.2-.7-.2-1.26a5.3 5.3 0 0 1 .2-1.57c.14-.44.36-.82.67-1.16s.7-.64 1.2-.92zm4.57-2.63l.48-.25a3.7 3.7 0 0 1 .52-.21c.18-.07.34-.1.49-.11l-.13.95-.63.34-.53.3c-.25.14-.44.29-.58.45s-.25.35-.31.57a3.4 3.4 0 0 0-.09.85c0 .34.03.6.09.76.07.16.17.23.31.23s.33-.08.58-.22l.33-.2.44-.27.47-.32.11.82a5.5 5.5 0 0 1-.74.67 7.9 7.9 0 0 1-.82.55c-.5.28-.89.43-1.19.45-.3.01-.51-.13-.65-.41s-.2-.72-.2-1.32a5.4 5.4 0 0 1 .2-1.54c.14-.44.35-.82.65-1.15a4.9 4.9 0 0 1 1.19-.92zm3.85-3.38v4.45c0 .17.03.27.1.31.07.03.19 0 .34-.09l.52-.3.13.87a4 4 0 0 1-.36.3l-.42.31-.36.23c-.37.21-.65.26-.86.16-.2-.11-.3-.37-.3-.78v-4.76l1.21-.69zm1.13.64v.91l-3.04 1.74v-.87l.78-.5 2.25-1.29zm3.66-3.97l.91-.52.91-.51.84-.42-.06 1.08-2.16 1.24c-.14.08-.24.18-.31.3-.06.11-.1.25-.1.41v3.31c0 .16.03.26.1.3.07.04.17.02.31-.06l2.16-1.24.06 1.01-.84.54-.91.54-.91.53c-.36.21-.65.25-.87.14-.22-.11-.33-.36-.33-.75v-3.93c.01-.4.12-.78.33-1.14.22-.37.51-.65.87-.86zm-1.06 3.25l3.37-1.94v1.02l-3.37 1.94v-1.02zm6.77-6.61l.68-.36.52-.23.49-.16-.1 1.12-.5.26-.48.26-.61.34c-.28.16-.5.35-.65.57a2.1 2.1 0 0 0-.33.84 7.5 7.5 0 0 0-.1 1.35 5.8 5.8 0 0 0 .1 1.23c.06.27.17.42.33.46.16.03.38-.03.65-.19l.95-.56.76-.5.11.99c-.26.24-.53.46-.8.66-.27.2-.61.42-1.01.65-.58.33-1.05.49-1.4.48-.35-.02-.6-.23-.76-.63s-.23-1.02-.23-1.84.08-1.53.23-2.11.41-1.08.76-1.49a5.1 5.1 0 0 1 1.4-1.13zm6.69-3.73v6.49l-1.24.71v-6.49l1.24-.71zm1.7-.97v1.13l-4.64 2.66v-1.13l4.64-2.66zm1.72.73c.68-.39 1.17-.54 1.46-.43.3.09.45.4.45.93.01.42-.09.79-.28 1.11s-.52.62-.99.89l-2.25 1.29v-.78l1.93-1.11c.18-.1.29-.21.34-.33.05-.12.08-.27.08-.43 0-.22-.05-.34-.16-.36-.1-.03-.28.03-.54.18-.22.12-.4.26-.52.4-.12.14-.21.32-.26.54a4.3 4.3 0 0 0-.07.89c0 .39.03.67.09.85.06.17.16.26.3.26s.35-.08.6-.22l.69-.41.83-.56.11.79c-.16.18-.34.35-.54.52l-.62.46-.61.39c-.51.29-.92.44-1.23.45-.31 0-.54-.13-.68-.41-.14-.28-.2-.7-.2-1.26a5.3 5.3 0 0 1 .2-1.57 3.1 3.1 0 0 1 .67-1.16c.3-.33.7-.64 1.2-.92zm7.81-4.48c.36-.21.64-.26.83-.15s.29.38.29.8v3.48l-1.19.68v-3.05c0-.19-.04-.31-.11-.35-.06-.05-.18-.03-.34.07-.09.05-.19.12-.28.21-.09.08-.19.18-.3.31l-.42.52-.07-.72a7.4 7.4 0 0 1 .77-1.1c.25-.3.53-.53.82-.69zm-4.15 2.5l.12.85.12.05v3.6l-1.2.69v-4.65l.96-.55zm1.63-1.06c.36-.21.63-.25.82-.14.19.1.29.37.29.8v3.48l-1.16.66v-3.05c0-.2-.04-.32-.11-.36s-.18-.02-.34.07a1.6 1.6 0 0 0-.28.21c-.09.08-.19.18-.31.32l-.42.53-.07-.72c.27-.45.53-.82.78-1.1a3.1 3.1 0 0 1 .82-.69zm7.25-4.15c.51-.29.87-.28 1.09.02s.33.85.33 1.65a6 6 0 0 1-.17 1.56c-.11.41-.28.75-.51 1.02-.22.27-.5.51-.84.7-.29.17-.56.28-.82.33s-.49.03-.69-.07l.08-.67.49-.11c.15-.04.32-.12.51-.23.17-.1.31-.21.42-.34s.18-.31.23-.54a4.8 4.8 0 0 0 .07-.94 3.5 3.5 0 0 0-.07-.84c-.04-.18-.12-.28-.21-.3-.09-.02-.22.01-.37.1-.18.1-.34.23-.49.39s-.31.37-.5.63l-.16-.55a4.1 4.1 0 0 1 .42-.69 4.9 4.9 0 0 1 .57-.64c.21-.19.42-.35.64-.48zm-1.67 1.07l.12.78.11.08v3.02l-.04.14.03.56a7.4 7.4 0 0 1 .01.6v1.13l-1.2.69v-6.44l.97-.56zm5.12-4.88v5.1c0 .16.04.25.12.29.08.03.2 0 .36-.09l.33-.19.14.86a2.1 2.1 0 0 1-.28.25l-.37.28-.32.2c-.36.21-.65.27-.86.18-.21-.1-.31-.35-.31-.74v-5.45l1.19-.68zm3.6-.25a2.4 2.4 0 0 1 .86-.33c.23-.03.41.04.53.22.13.17.19.47.19.9v3.08l-.95.55-.17-.91-.08-.09v-1.93c0-.22-.05-.35-.15-.4-.09-.05-.25 0-.5.13l-.78.48-.96.6-.11-.86.67-.5.77-.52.69-.43zm1.08 1.29l-.01.79-1.79 1.03c-.15.09-.25.2-.32.31-.06.12-.09.24-.09.38v.23c0 .16.04.26.11.3.08.04.2.01.37-.09.14-.08.29-.2.46-.37.17-.16.33-.36.5-.58s.31-.45.44-.7v.6a8.4 8.4 0 0 1-.22.48c-.1.19-.22.4-.37.63a5.1 5.1 0 0 1-.51.63 3.1 3.1 0 0 1-.67.52c-.24.14-.46.22-.66.24-.2.01-.35-.05-.47-.18s-.17-.34-.17-.63v-.48c0-.37.11-.72.33-1.05s.52-.61.9-.83l2.18-1.25zm3.02-4.81v4.45c0 .17.03.27.1.31.07.03.19 0 .34-.09l.52-.3.13.87c-.1.09-.22.19-.36.3l-.43.31-.36.22c-.37.21-.65.26-.86.16-.2-.11-.3-.37-.3-.78v-4.76l1.21-.69zm1.13.64v.91l-3.04 1.74v-.87l.78-.5 2.25-1.29zm2.56-1.59c.68-.39 1.17-.54 1.46-.44.3.09.45.4.45.93.01.42-.09.79-.28 1.11s-.52.62-.99.89l-2.25 1.29v-.78l1.93-1.11c.18-.1.29-.21.34-.33.06-.12.08-.27.08-.43 0-.22-.05-.34-.16-.36-.1-.03-.28.03-.54.18-.22.12-.4.26-.52.4-.12.14-.21.32-.26.55a4.3 4.3 0 0 0-.07.89c0 .39.03.67.09.85.06.17.16.26.3.26s.35-.08.6-.22l.68-.41.83-.56.11.79c-.16.18-.34.35-.54.52l-.62.46-.61.39c-.51.29-.92.44-1.23.45a.7.7 0 0 1-.68-.41c-.14-.28-.2-.7-.2-1.26a5.3 5.3 0 0 1 .2-1.57 3.1 3.1 0 0 1 .67-1.16c.31-.33.71-.64 1.2-.92zm4.23-2.43l.64-.34.67-.33.58-.24-.08.91-.79.44-.77.43-.49.3c-.11.07-.2.15-.25.22-.04.07-.06.16-.06.28 0 .14.04.22.12.22.08 0 .22-.03.41-.08l1.05-.31c.34-.09.59-.09.75.02.16.1.25.35.25.74 0 .39-.06.72-.19 1s-.32.54-.6.78c-.27.23-.62.47-1.05.72l-.75.4c-.33.17-.69.33-1.09.48l.07-.91.38-.2.5-.29.54-.31.64-.39c.15-.1.25-.2.3-.29s.08-.19.08-.3c0-.14-.05-.21-.14-.2-.09 0-.24.03-.44.08l-1.02.29c-.26.07-.46.08-.6.04s-.24-.14-.3-.28c-.05-.15-.08-.35-.08-.6 0-.32.06-.61.17-.87s.3-.5.55-.73a5.5 5.5 0 0 1 1-.71z" fill="#1b1c17"/><path d="M130.47 228.64l46.12-26.09v187.97l-37.22 21.02s-4.24 1.64-6.88-.94c-2.03-1.98-2.02-7.52-2.02-7.52V228.64z" fill="#e1efff" fill-opacity=".6"/><use href="#a" class="F"/><path d="M136.87 243.06l.41-.2.32-.13.3-.09-.06.67-.31.14-.3.15-.37.19c-.17.09-.3.2-.4.33a1.2 1.2 0 0 0-.2.5c-.04.21-.06.47-.06.81s.02.57.06.74.11.26.2.28.23-.01.4-.1l.58-.32.46-.28.06.6c-.16.14-.32.27-.49.38s-.37.24-.62.37c-.36.19-.64.28-.85.26s-.37-.15-.46-.39-.14-.62-.14-1.11a4.9 4.9 0 0 1 .14-1.26 2.2 2.2 0 0 1 .46-.88c.21-.25.5-.46.85-.65zm3.68-1.96c.27-.14.49-.23.65-.26s.29-.01.36.09.12.25.12.49c0 .18-.02.34-.05.5s-.08.29-.16.42-.19.24-.33.35v.02c.24-.08.4-.07.49.05s.14.31.14.6c0 .27-.03.51-.11.72s-.2.4-.38.57-.41.33-.7.49l-.6.28-.59.24.03-.65.36-.16.3-.15.3-.15c.16-.09.29-.17.38-.25s.16-.18.2-.28.06-.24.06-.39c0-.12-.01-.22-.04-.28s-.08-.1-.16-.1-.19.04-.34.12l-.65.35v-.56l.65-.34c.11-.06.2-.12.26-.18s.12-.13.14-.19c.03-.07.05-.13.06-.2a1.6 1.6 0 0 0 .02-.22c0-.13-.02-.21-.05-.26s-.09-.06-.17-.04-.18.06-.32.14l-.5.27-.43.24-.03-.59.55-.37.54-.31zm3.18-1.67l.35-.17c.15-.07.31-.12.47-.16l-.04.57-.24.12-.23.12-.31.16c-.15.08-.27.16-.36.25-.09.08-.17.19-.22.32s-.09.29-.1.5l-.02.79.01.63c.01.16.03.28.06.36.04.07.09.11.17.1s.17-.04.3-.11c.15-.08.26-.16.33-.25s.12-.2.13-.31.03-.26.03-.43-.01-.29-.04-.37-.07-.12-.14-.12-.17.03-.3.1c-.09.05-.18.11-.26.18s-.16.16-.25.27l-.32.44-.02-.32a4.5 4.5 0 0 1 .31-.6c.1-.16.21-.29.33-.39s.26-.2.43-.29c.26-.14.45-.2.59-.19s.24.09.3.24c.06.14.09.37.09.66a3.8 3.8 0 0 1-.05.64c-.03.19-.09.37-.18.53s-.21.32-.37.46a3.2 3.2 0 0 1-.62.41c-.25.13-.46.21-.62.24s-.3 0-.39-.1-.16-.26-.2-.49-.06-.54-.06-.93c0-.45.03-.83.09-1.14s.15-.56.27-.77.27-.38.45-.53a4.1 4.1 0 0 1 .64-.41zm2.81-1.5c.33-.17.59-.25.78-.22s.34.17.42.42a3.6 3.6 0 0 1 .13 1.12c0 .49-.04.91-.13 1.25s-.22.63-.42.87c-.19.23-.45.43-.78.61s-.59.25-.78.22-.33-.17-.42-.42-.12-.63-.12-1.12.04-.91.13-1.25.23-.63.42-.86.45-.44.78-.61zm0 .67c-.11.06-.2.13-.27.21s-.13.18-.18.31-.07.28-.09.46l-.03.68.03.65c.02.17.05.29.09.36s.1.11.18.12.16-.03.27-.08.21-.13.28-.21.14-.18.18-.3.07-.27.09-.46a6.6 6.6 0 0 0 .03-.68 5.6 5.6 0 0 0-.03-.65c-.02-.17-.05-.29-.09-.37s-.1-.12-.18-.12-.17.03-.28.09zm4.54-2.99c.06-.03.12-.04.17-.03.05.01.08.05.1.11l1 3.14-.78.41-.7-2.5-.04-.16-.03-.17-.13.07-.03.21c-.01.07-.02.14-.04.21l-.7 3.24-.78.41 1-4.2c.02-.08.05-.15.09-.21.05-.07.11-.12.17-.15l.72-.38zm.53 1.94v.64l-1.79.94v-.64l1.79-.95zm2.76-2.64c.47-.25.7-.11.7.4v2.09l-.74.39v-1.83c0-.12-.02-.2-.06-.22s-.11-.02-.2.03a1.5 1.5 0 0 0-.33.25 7.6 7.6 0 0 0-.42.43l-.03-.45a4.7 4.7 0 0 1 .54-.67c.19-.19.37-.33.55-.43zm-1.12.67l.09.51.06.04v2.16l-.73.39v-2.79l.59-.31zm3.71-2.03c.21-.11.38-.17.52-.18s.25.03.32.14.12.29.12.54v1.85l-.59.31-.1-.55-.05-.06v-1.16c0-.13-.03-.21-.09-.24-.05-.03-.16-.01-.3.07l-.48.27-.58.34-.06-.52.41-.28.47-.29.42-.24zm.66.8v.47l-1.1.58a.5.5 0 0 0-.2.18c-.04.07-.05.14-.05.23v.14c0 .09.02.16.07.18s.12.01.22-.05c.09-.05.18-.12.28-.21a2.9 2.9 0 0 0 .31-.34c.1-.13.19-.26.27-.41v.36l-.13.28a3.6 3.6 0 0 1-.22.37c-.09.13-.19.25-.31.37s-.26.22-.41.3c-.15.08-.28.12-.4.13-.12 0-.22-.03-.29-.12s-.1-.21-.1-.38v-.29c0-.22.07-.43.2-.63a1.5 1.5 0 0 1 .55-.48l1.33-.7zm1.62-3.09v3.06c0 .09.02.15.07.17s.12 0 .22-.05l.2-.1.08.52c-.04.04-.1.09-.17.15l-.22.16-.19.11c-.22.12-.4.15-.53.09-.13-.06-.19-.22-.19-.45v-3.27l.73-.38zm3.25-.56l-.88 3.29a3.7 3.7 0 0 1-.17.51 3 3 0 0 1-.27.53 2.2 2.2 0 0 1-.39.46c-.15.13-.33.24-.53.33l-.05-.45c.2-.17.36-.33.47-.49s.2-.34.26-.54l.16-.47c.03-.1.06-.21.09-.34l.07-.35.47-2.05.78-.41zm-1.96 1.03l.47 1.56.04.19.03.2.13-.07-.23.68-.18.1c-.06.03-.11.04-.15.02s-.07-.05-.09-.1l-.81-2.16.78-.41zm3.23-1.78l.39-.19.41-.18a3.9 3.9 0 0 1 .35-.13l-.05.55-.48.25-.47.24-.3.17c-.07.04-.12.08-.15.13-.03.04-.04.1-.04.17 0 .09.02.13.07.13a1.3 1.3 0 0 0 .25-.04l.64-.17c.21-.05.36-.04.46.03s.15.22.15.45a1.4 1.4 0 0 1-.12.6c-.08.16-.2.32-.36.45s-.38.27-.64.41l-.46.23c-.2.1-.42.19-.66.27l.04-.54.23-.11.3-.16.33-.18.39-.22c.09-.06.15-.11.19-.17s.05-.11.05-.18c0-.09-.03-.13-.09-.12s-.15.01-.27.04l-.62.16c-.16.03-.28.04-.37.01s-.15-.09-.19-.17-.05-.21-.05-.36c0-.19.03-.36.1-.52s.18-.29.34-.42.36-.27.61-.4zm2.47-1.23v2.79l-.73.38v-2.79l.73-.38zm-.21-1.12c.15-.08.22-.03.22.13v.31c0 .17-.07.29-.22.36l-.32.17c-.15.08-.22.03-.22-.13v-.3c0-.17.07-.29.22-.37l.32-.17zm1.77.22l.39-.19.41-.18a3.8 3.8 0 0 1 .35-.13l-.05.55-.49.24-.47.24-.3.17c-.07.04-.12.08-.15.13-.03.04-.04.1-.04.17 0 .09.03.13.08.13s.13-.01.25-.04l.64-.16c.21-.05.36-.04.46.03s.15.22.15.45-.04.43-.11.6-.2.32-.36.45-.38.27-.64.41l-.46.23c-.2.1-.42.19-.66.27l.04-.54.23-.11.3-.16.33-.18.39-.22c.09-.06.15-.11.19-.17s.05-.11.05-.18c0-.09-.03-.13-.08-.12-.06 0-.15.01-.27.04l-.62.16c-.16.03-.28.04-.37.01a.3.3 0 0 1-.19-.17c-.03-.09-.05-.21-.05-.36 0-.19.03-.36.11-.52s.18-.3.33-.43.36-.27.61-.4z" fill="#1b1c17"/><path d="M172.82 236.07l-39.53 21.53v12.17l39.53-21.53v-12.17z" fill="#0668e1"/><path d="M136.84 260.55l.41-.22.31-.14.29-.1-.06.67-.3.15-.29.15-.37.21a1.2 1.2 0 0 0-.39.34c-.09.13-.16.29-.2.5a4.5 4.5 0 0 0-.06.81c0 .33.02.57.06.74s.11.25.2.28.23-.02.39-.11l.57-.34.46-.3.06.6c-.16.15-.32.28-.48.39a6.6 6.6 0 0 1-.61.39c-.35.2-.63.3-.84.29s-.36-.14-.45-.38-.14-.61-.14-1.11.05-.92.14-1.26.25-.65.45-.89.49-.48.84-.68zm2.55-1.48c.27-.15.48-.25.64-.28s.28-.02.35.07.11.25.11.48c0 .18-.01.34-.04.5s-.08.29-.16.42-.18.25-.32.36v.02c.23-.09.39-.08.48.03s.13.31.14.59c0 .27-.03.51-.11.73s-.2.41-.37.59-.4.35-.69.51l-.59.31-.58.26.03-.65.35-.18.29-.16.29-.16c.16-.09.28-.18.37-.26s.16-.18.2-.29.06-.24.06-.39c0-.12-.01-.21-.04-.28s-.08-.1-.15-.1-.19.04-.33.13l-.64.37v-.57l.64-.36c.11-.06.19-.12.25-.19.06-.07.11-.13.14-.19s.05-.13.06-.2c.01-.07.01-.15.01-.22 0-.13-.02-.21-.05-.25s-.09-.06-.17-.04-.18.07-.32.15l-.49.29-.42.26-.03-.59.54-.39.53-.33zm3.12-1.78l.34-.19c.15-.08.3-.13.46-.17l-.04.57-.23.13-.23.13-.3.17c-.14.08-.26.17-.36.26-.09.09-.16.19-.22.33s-.08.3-.1.5l-.02.79.02.63c.01.16.03.28.06.35s.09.1.16.1.17-.05.3-.12c.15-.08.25-.17.32-.26s.12-.2.13-.32a2.7 2.7 0 0 0 .03-.44c0-.17-.01-.29-.04-.37s-.07-.12-.14-.12-.17.04-.3.11c-.09.05-.18.11-.25.19s-.16.16-.25.28l-.32.45-.02-.32a4.8 4.8 0 0 1 .31-.61c.1-.16.2-.3.32-.4a2.3 2.3 0 0 1 .42-.3c.25-.14.45-.21.58-.21s.24.08.29.23.09.36.09.66c0 .23-.02.44-.05.64s-.09.37-.18.54c-.08.17-.2.32-.36.47-.15.14-.36.29-.61.43-.25.14-.45.23-.61.26s-.29 0-.38-.08-.16-.26-.2-.49-.06-.54-.06-.93a6.2 6.2 0 0 1 .09-1.14c.06-.31.15-.57.27-.78s.26-.39.44-.54.39-.3.63-.43zm2.76-1.6c.32-.19.58-.27.77-.24s.33.16.41.41c.08.24.13.62.13 1.11a5.4 5.4 0 0 1-.13 1.26 2.2 2.2 0 0 1-.41.88c-.19.24-.44.45-.77.63s-.58.27-.77.25-.33-.16-.41-.41-.12-.62-.12-1.12a5.5 5.5 0 0 1 .12-1.26c.09-.35.22-.64.41-.88s.44-.45.77-.64zm-.01.68c-.11.06-.2.13-.27.22a.9.9 0 0 0-.17.31c-.04.12-.07.28-.09.47l-.03.68.03.65c.02.17.05.29.09.36s.1.11.17.11.16-.03.27-.09c.11-.06.21-.14.28-.22s.13-.19.18-.31.07-.28.09-.46.03-.42.03-.68a5.6 5.6 0 0 0-.03-.65c-.02-.17-.05-.29-.09-.36s-.1-.12-.18-.11-.17.03-.28.1zm4.35-3.09v3.9l-.74.43v-3.9l.74-.43zm1.02-.58v.68l-2.78 1.6v-.68l2.78-1.6zm1.03.44c.41-.23.7-.32.88-.26.18.06.27.24.27.56 0 .25-.05.47-.17.67s-.31.37-.59.53l-1.35.78v-.47l1.16-.66c.11-.06.18-.13.2-.2.03-.08.05-.16.05-.26 0-.13-.03-.2-.1-.22s-.17.02-.32.11c-.13.07-.24.15-.31.24s-.13.19-.16.33a2.6 2.6 0 0 0-.04.53c0 .23.02.4.05.51s.1.16.18.16.21-.05.36-.13l.41-.25.5-.34.07.47a3 3 0 0 1-.32.31l-.37.28-.37.23c-.31.18-.55.27-.74.27s-.32-.08-.41-.25a1.8 1.8 0 0 1-.12-.75 3.2 3.2 0 0 1 .12-.94c.09-.26.22-.5.4-.69s.42-.38.72-.55zm4.68-2.69c.22-.13.38-.16.5-.09s.17.23.17.48v2.09l-.72.41v-1.83c0-.11-.02-.19-.06-.21s-.11-.02-.21.04c-.06.03-.11.07-.17.12-.05.04-.11.11-.18.19l-.25.31-.04-.44c.16-.27.31-.49.46-.66.15-.18.32-.32.49-.42zm-2.49 1.5l.07.51.07.03v2.16l-.72.41v-2.79l.57-.33zm.98-.64c.22-.12.38-.15.49-.08.11.06.17.22.17.48v2.09l-.7.4v-1.83c0-.12-.02-.19-.07-.22s-.11-.01-.2.04c-.06.03-.11.07-.17.12-.05.05-.11.11-.19.19l-.25.31-.04-.43c.16-.27.31-.49.47-.66s.31-.32.49-.42zm4.35-2.49c.3-.17.52-.17.65.01s.19.51.19.99c0 .37-.03.68-.1.93a1.6 1.6 0 0 1-.3.61c-.13.16-.3.3-.5.42-.17.1-.34.17-.5.2s-.3.02-.42-.04l.05-.4.29-.07c.09-.03.19-.07.31-.14.1-.06.19-.13.25-.21s.11-.18.14-.32a2.9 2.9 0 0 0 .04-.56c0-.23-.02-.4-.04-.51s-.07-.17-.13-.18-.13.01-.23.06c-.11.06-.21.14-.29.24a4.2 4.2 0 0 0-.3.38l-.09-.33c.06-.14.15-.28.25-.41a3 3 0 0 1 .34-.38 2.1 2.1 0 0 1 .38-.29zm-1 .64l.07.47.07.05v1.81l-.02.08.02.34v.36.68l-.72.41v-3.86l.58-.34zm3.07-2.93v3.06c0 .09.02.15.07.17s.12 0 .22-.06l.2-.11.08.52c-.04.05-.09.09-.17.15s-.15.11-.22.17l-.19.12c-.22.13-.39.16-.52.11-.12-.06-.19-.21-.19-.45v-3.27l.72-.41zm2.16-.15c.2-.12.37-.18.51-.2s.25.02.32.13c.07.1.11.28.11.54v1.85l-.57.33-.1-.54-.05-.06v-1.16c0-.13-.03-.21-.09-.24s-.15 0-.3.08l-.47.29-.57.36-.06-.52.4-.3.46-.31.41-.26zm.65.78v.47l-1.08.62c-.09.05-.15.12-.19.19s-.05.15-.05.23v.14c0 .09.02.15.07.18s.12 0 .22-.05c.09-.05.18-.12.28-.22s.2-.22.3-.35a3.3 3.3 0 0 0 .27-.42v.36l-.13.29c-.06.12-.13.24-.22.38s-.19.26-.31.38-.25.22-.4.31c-.14.08-.28.13-.4.14-.12.01-.21-.03-.28-.1s-.1-.2-.1-.38v-.29c0-.22.07-.43.2-.63s.31-.36.54-.5l1.31-.75zm1.81-2.89v2.67c0 .1.02.16.06.19s.11 0 .21-.06l.31-.18.08.52c-.06.06-.13.12-.22.18l-.25.19-.22.13c-.22.13-.39.16-.51.1-.12-.07-.18-.22-.18-.47v-2.86l.72-.42zm.68.39v.55l-1.82 1.05v-.52l.47-.3 1.35-.78zm1.53-.95c.41-.23.7-.32.88-.26.18.05.27.24.27.56 0 .25-.05.47-.17.67s-.31.37-.59.53l-1.35.78v-.47l1.16-.66c.11-.06.18-.13.21-.2.03-.08.05-.16.05-.26 0-.13-.03-.2-.1-.22-.06-.02-.17.02-.32.11a1.1 1.1 0 0 0-.31.24c-.08.08-.13.19-.16.33s-.04.31-.04.53c0 .23.02.4.05.51s.1.16.18.16.21-.05.36-.13l.41-.25.5-.34.07.47c-.09.11-.2.21-.32.31l-.37.28-.37.23c-.31.18-.55.27-.74.27s-.32-.08-.41-.25-.12-.42-.12-.75c0-.36.04-.68.12-.94s.22-.49.4-.69a3 3 0 0 1 .72-.56zm2.54-1.46l.38-.2.4-.2.35-.14-.05.55-.47.26-.46.26-.29.18c-.07.04-.12.09-.15.14-.03.04-.04.1-.04.17 0 .09.03.13.07.13s.13-.02.25-.05l.63-.19c.2-.06.35-.05.45.01s.15.21.15.45-.04.43-.11.6-.19.32-.36.47-.37.28-.63.43l-.45.24a6.4 6.4 0 0 1-.65.29l.04-.54.22-.12.3-.17.32-.19.39-.23c.09-.06.15-.12.18-.17s.05-.11.05-.18c0-.09-.03-.13-.08-.12s-.14.02-.26.05l-.61.18c-.16.04-.28.05-.36.02s-.14-.08-.18-.17c-.03-.09-.05-.21-.05-.36 0-.19.03-.37.1-.52s.18-.3.33-.44.35-.28.6-.42z" class="B"/><g fill="#b5d6ff"><path d="M154.94 391.77l16.94-8.74v2.5l-16.94 8.74v-2.5zm-6.59-3.64l23.53-11.65v3.33l-23.53 11.65v-3.33z"/><use href="#b"/><path d="M135.18 291.3l36.71-19.66v5.62l-36.71 19.66v-5.62zm0 9.36l36.7-19.66v5.62l-36.71 19.66v-5.62zm0 9.36l36.71-19.66v5.62l-36.71 19.66v-5.62zm0 9.36l36.71-19.66v5.62L135.18 325v-5.62z"/></g><path d="M132.07 216.86v12.3L433.56 56.04v-12.3c0-7.95-5.64-11.15-12.62-7.16L144.68 195.22c-6.96 4-12.62 13.68-12.62 21.63v.02z" fill="#0668e1"/><use href="#c" fill="#f22071"/><path d="M402.74 59.81c0 2.25 1.59 3.14 3.55 2.01a7.8 7.8 0 0 0 3.55-6.1c0-2.25-1.59-3.14-3.55-2.01a7.8 7.8 0 0 0-3.55 6.1z" fill="#4bbc79"/><path d="M296.83 125.3l96.47-56.07c1.43-.83 2.59-3.06 2.59-4.99s-1.16-2.8-2.59-1.98l-96.47 56.07c-1.43.83-2.59 3.06-2.59 4.99s1.16 2.8 2.59 1.98z" fill="#dcdcdc"/><path d="M146.54 203.83l.94-.52.72-.34.68-.23-.14 1.57-.69.37-.67.37-.85.49c-.38.23-.69.5-.91.82-.21.3-.36.69-.45 1.18s-.14 1.11-.14 1.89c0 .76.05 1.34.14 1.72.09.38.24.59.45.64.22.05.52-.05.91-.28l1.31-.81 1.05-.72.15 1.39c-.36.35-.73.66-1.11.94-.38.29-.84.6-1.4.93-.81.48-1.45.72-1.93.71-.48-.02-.83-.31-1.05-.86a7.8 7.8 0 0 1-.32-2.58 11.9 11.9 0 0 1 .32-2.96 5.5 5.5 0 0 1 1.05-2.1c.48-.6 1.13-1.14 1.93-1.62zm8.34-5.01c.62-.37 1.11-.6 1.48-.69.38-.1.65-.05.81.16.17.2.26.58.26 1.12a6.4 6.4 0 0 1-.1 1.17 3.2 3.2 0 0 1-.36.99c-.17.31-.42.59-.75.85v.05c.53-.22.91-.21 1.11.05s.31.72.32 1.38c.01.63-.08 1.19-.25 1.7-.17.5-.46.96-.86 1.38-.39.42-.92.83-1.58 1.22l-1.37.74-1.34.64.07-1.52.81-.42.68-.38.68-.39c.36-.22.65-.42.86-.62.21-.21.36-.43.45-.68a2.8 2.8 0 0 0 .14-.92c0-.28-.03-.5-.09-.66s-.18-.23-.35-.22-.43.11-.77.31l-1.47.89v-1.32l1.47-.88c.25-.15.44-.3.59-.44.15-.16.26-.31.33-.46.08-.16.12-.32.14-.48a3.8 3.8 0 0 0 .03-.51c0-.3-.04-.5-.11-.59-.08-.1-.2-.13-.39-.07a3.6 3.6 0 0 0-.73.36l-1.14.7-.96.61-.07-1.37 1.24-.93 1.22-.8zm7.2-4.27l.79-.45a4.7 4.7 0 0 1 1.06-.42l-.09 1.33-.54.31-.53.31-.69.41c-.33.2-.61.41-.83.63-.21.21-.38.46-.5.77-.11.31-.19.7-.24 1.18l-.06 1.85.03 1.47a2.6 2.6 0 0 0 .15.82c.08.16.21.24.37.22.17-.02.4-.12.69-.29a2.5 2.5 0 0 0 .75-.63 1.6 1.6 0 0 0 .31-.75c.04-.28.07-.62.07-1.02s-.03-.68-.09-.85c-.06-.18-.17-.27-.33-.27-.16 0-.39.09-.69.27a3.4 3.4 0 0 0-.59.44 5.3 5.3 0 0 0-.57.65l-.74 1.06-.04-.74c.25-.59.49-1.07.71-1.44a4.2 4.2 0 0 1 .75-.95c.27-.26.6-.5.97-.73.58-.35 1.03-.52 1.35-.51.32 0 .55.17.68.52.14.33.2.84.2 1.54 0 .54-.04 1.03-.11 1.49-.07.44-.2.86-.41 1.26a4.3 4.3 0 0 1-.84 1.12 7.7 7.7 0 0 1-1.4 1.04c-.56.34-1.04.55-1.41.63s-.67.02-.88-.19c-.21-.22-.36-.59-.45-1.13-.09-.54-.14-1.26-.14-2.16a14.8 14.8 0 0 1 .2-2.67 6.2 6.2 0 0 1 .61-1.83 4.7 4.7 0 0 1 1.02-1.28c.42-.36.9-.71 1.45-1.04zm6.38-3.84c.75-.45 1.34-.65 1.78-.6.45.04.76.35.95.94a8.5 8.5 0 0 1 .29 2.59 12.7 12.7 0 0 1-.29 2.94 5.3 5.3 0 0 1-.95 2.07c-.44.56-1.03 1.06-1.78 1.51s-1.34.65-1.78.61c-.44-.05-.75-.36-.95-.93-.19-.58-.28-1.45-.28-2.6 0-1.16.09-2.14.28-2.94.2-.81.51-1.5.95-2.07s1.03-1.08 1.78-1.52zm-.01 1.58c-.25.15-.46.32-.62.52a2.2 2.2 0 0 0-.4.74c-.1.29-.17.65-.22 1.09l-.06 1.59.06 1.52a2.3 2.3 0 0 0 .22.83c.1.17.23.25.4.25s.37-.08.62-.23c.26-.15.47-.33.64-.53s.31-.44.41-.73.17-.65.2-1.08c.04-.44.07-.97.07-1.59l-.07-1.51c-.04-.39-.11-.67-.2-.84-.1-.18-.23-.26-.41-.26s-.39.09-.64.24z" class="B"/></g><defs><linearGradient id="A" x1="570.01" y1="398.29" x2="108.94" y2="398.29" href="#d"><stop stop-color="#a6ceff"/><stop offset="1" stop-color="#9cc5f8"/></linearGradient><linearGradient id="B" x1="466" y1="82.55" x2="236.91" y2="523.53" href="#d"><stop stop-color="#fff"/><stop offset="1" stop-color="#d4e7fe"/></linearGradient><linearGradient id="C" x1="524.03" y1="285.27" x2="156.43" y2="498.84" href="#d"><stop stop-color="#bdd2f4"/><stop offset="1" stop-color="#e5faff"/></linearGradient><linearGradient id="D" x1="914.31" y1="27.53" x2="654.66" y2="178.37" href="#d"><stop stop-color="#bdd2f4"/><stop offset="1" stop-color="#e7f2ff"/></linearGradient><linearGradient id="E" x1="630.15" y1="287.47" x2="549" y2="334.61" href="#d"><stop stop-color="#bdd2f4"/><stop offset="1" stop-color="#d3e7ff"/></linearGradient><linearGradient id="F" x1="508.1" y1="167.79" x2="518.91" y2="187.63" href="#d"><stop stop-color="#0f042e"/><stop offset="1" stop-color="#1c1265"/></linearGradient><linearGradient id="G" x1="-59.76" y1="394.63" x2="-351.86" y2="564.33" href="#d"><stop stop-color="#e5faff"/><stop offset="1" stop-color="#bdd2f4"/></linearGradient><linearGradient id="H" x1="378.51" y1="54.85" x2="115.38" y2="380.67" href="#d"><stop stop-color="#3b92ff"/><stop offset="1" stop-color="#4f9eff"/></linearGradient><linearGradient id="I" x1="-55.94" y1="395.55" x2="-348.05" y2="565.25" href="#d"><stop stop-color="#1c1265"/><stop offset="1" stop-color="#0f042e"/></linearGradient><linearGradient id="J" x1="204.88" y1="288.1" x2="282.35" y2="143.13" href="#d"><stop stop-color="#f5f5f5"/><stop offset=".05" stop-color="#c7c7c7"/><stop offset=".09" stop-color="#9c9c9c"/><stop offset=".14" stop-color="#777"/><stop offset=".2" stop-color="#565656"/><stop offset=".25" stop-color="#3b3b3b"/><stop offset=".32" stop-color="#252525"/><stop offset=".4" stop-color="#141414"/><stop offset=".49" stop-color="#080808"/><stop offset=".63" stop-color="#010101"/><stop offset="1"/></linearGradient><clipPath id="K"><path d="M0 0h600v600H0z" class="B"/></clipPath><path id="L" d="M303.002 520.683L565.594 370.03C570.947 366.961 570.273 361.586 564.097 358.033L397.232 262.303C391.038 258.75 381.68 258.36 376.328 261.447L113.735 412.12C108.382 415.189 109.056 420.564 115.232 424.116L282.097 519.846C288.291 523.399 297.649 523.789 303.002 520.702V520.683Z"/><path id="M" d="M372.47 300.5l9.64-5.52c1.24-.71 1.07-1.93-.34-2.75l-2.81-1.62c-1.42-.82-3.57-.91-4.79-.2l-9.64 5.52c-1.24.71-1.07 1.93.34 2.75l2.81 1.62c1.42.82 3.57.91 4.79.2z"/><path id="N" d="M341.65 318.2l9.64-5.52c1.24-.71 1.07-1.94-.34-2.75l-2.81-1.62c-1.42-.82-3.57-.91-4.79-.2l-9.64 5.52c-1.24.71-1.07 1.93.34 2.75l2.81 1.62c1.42.82 3.57.91 4.79.21z"/><path id="O" d="M279.99 353.58l9.64-5.52c1.24-.71 1.07-1.93-.34-2.75l-2.81-1.62c-1.42-.82-3.57-.91-4.79-.2l-9.64 5.52c-1.23.71-1.07 1.93.34 2.75l2.81 1.62c1.42.82 3.57.91 4.79.2z"/><path id="P" d="M371.8 316.83l8.93-5.12c.82-.46.71-1.28-.23-1.84l-8.38-4.82c-.96-.54-2.38-.59-3.2-.13l-8.93 5.12c-.82.46-.71 1.28.23 1.84l8.38 4.82c.95.54 2.38.6 3.2.13z"/><path id="Q" d="M288.98 380.4l8.93-5.12c.82-.46.71-1.28-.22-1.84l-8.38-4.82c-.95-.54-2.38-.6-3.2-.13l-8.93 5.12c-.82.46-.71 1.28.22 1.84l8.38 4.82c.95.54 2.38.6 3.2.13z"/><path id="R" d="M243.23 422.98l8.93-5.12c.82-.46.71-1.28-.22-1.84l-8.38-4.82c-.95-.54-2.38-.59-3.2-.13l-8.93 5.11c-.82.46-.71 1.28.22 1.84l8.38 4.82c.95.54 2.38.59 3.2.13z"/><path id="S" d="M273.2 405.77l8.93-5.12c.82-.47.71-1.28-.22-1.84l-8.38-4.82c-.95-.54-2.38-.6-3.2-.13l-8.93 5.11c-.82.47-.71 1.28.22 1.84l8.38 4.82c.95.54 2.38.6 3.2.13z"/><path id="T" d="M363.15 354.17l8.93-5.11c.82-.46.71-1.28-.22-1.84l-8.38-4.82c-.95-.54-2.38-.6-3.2-.13l-8.93 5.12c-.82.46-.71 1.28.22 1.84l8.38 4.82c.95.54 2.38.6 3.2.13z"/><path id="U" d="M305.62 420.97l8.93-5.11c.82-.47.71-1.28-.22-1.84l-8.38-4.82c-.95-.54-2.38-.6-3.2-.13l-8.93 5.11c-.82.47-.71 1.28.22 1.84l8.38 4.82c.95.54 2.38.6 3.2.13z"/><path id="V" d="M421.49 345.54l9.97-5.73c.53-.3.47-.84-.15-1.19l-2.75-1.58c-.62-.35-1.55-.39-2.08-.09l-9.97 5.73c-.52.3-.47.84.15 1.19l2.75 1.58c.62.35 1.55.39 2.08.09z"/><path id="W" d="M428.81 349.74l9.97-5.73c.52-.3.47-.84-.15-1.19l-2.75-1.58c-.62-.35-1.55-.39-2.08-.09l-9.98 5.73c-.52.3-.47.84.15 1.19l2.75 1.58c.62.35 1.55.39 2.08.09z"/><path id="X" d="M318.33 396.18l8.93-5.11c.82-.46.71-1.28-.22-1.84l-8.38-4.82c-.95-.54-2.38-.59-3.2-.13l-8.93 5.12c-.82.46-.71 1.28.22 1.84l8.38 4.82c.95.54 2.38.59 3.2.13z"/><path id="Y" d="M248.9 387.34l8.93-5.12c.82-.47.71-1.28-.22-1.84l-8.38-4.82c-.95-.54-2.38-.59-3.2-.13l-8.93 5.12c-.82.46-.71 1.28.22 1.84l8.38 4.82c.95.54 2.38.59 3.2.13z"/><path id="Z" d="M206.23 233.89c0-2.02 1.42-4.47 3.17-5.46l76.98-43.76c1.74-.99 3.14-.17 3.14 1.84v20.51l-83.29 47.77v-20.9z"/><path id="a" d="M172.82 218.28l-39.53 21.53v12.17l39.53-21.53v-12.17z"/><path id="b" d="M135.18 281.94l36.71-19.66v5.62l-36.71 19.66v-5.62z"/><path id="c" d="M417.18 51.52c0 2.25 1.59 3.14 3.55 2.01a7.8 7.8 0 0 0 3.55-6.1c0-2.25-1.59-3.14-3.55-2.01a7.8 7.8 0 0 0-3.55 6.1z"/><linearGradient id="d" gradientUnits="userSpaceOnUse"/></defs></svg>