<svg xmlns="http://www.w3.org/2000/svg" viewBox="0 0 600 600" xmlns:v="https://vecta.io/nano"><style><![CDATA[.Y{fill:#0668e1}.Z{fill:#044aa0}.a{fill:#8cbaf1}.b{fill:#1b1c17}.c{fill:none}.d{fill:#d9d9d9}.e{fill:#505050}.f{stroke-width:.3}.g{stroke-miterlimit:10}]]></style><defs><path id="A" d="M0 0h600v600H0z"/><path id="B" d="     M303,520.7L565.6,370c5.4-3.1,4.7-8.4-1.5-12l-166.9-95.7c-6.2-3.6-15.6-3.9-20.9-0.9L113.7,412.1c-5.4,3.1-4.7,8.4,1.5,12     l166.9,95.7C288.3,523.4,297.6,523.8,303,520.7L303,520.7z"/><path id="C" d="M372.5 300.5l9.6-5.5c1.2-.7 1.1-1.9-.3-2.8l-2.8-1.6c-1.4-.8-3.6-.9-4.8-.2l-9.6 5.5c-1.2.7-1.1 1.9.3 2.8l2.8 1.6c1.4.8 3.6.9 4.8.2z"/><path id="D" d="M357.1 309.4l9.6-5.5c1.2-.7 1.1-1.9-.3-2.8l-2.8-1.6c-1.4-.8-3.6-.9-4.8-.2l-9.6 5.5c-1.2.7-1.1 1.9.3 2.8l2.8 1.6c1.4.8 3.5.9 4.8.2z"/><path id="E" d="M341.6 318.2l9.6-5.5c1.2-.7 1.1-1.9-.3-2.8l-2.8-1.6c-1.4-.8-3.6-.9-4.8-.2l-9.6 5.5c-1.2.7-1.1 1.9.3 2.8l2.8 1.6c1.5.8 3.6.9 4.8.2z"/><path id="F" d="M387.2 308l8.9-5.1c.8-.5.7-1.3-.2-1.8l-8.4-4.8c-1-.5-2.4-.6-3.2-.1l-8.9 5.1c-.8.5-.7 1.3.2 1.8l8.4 4.8c.9.5 2.3.6 3.2.1z"/><path id="G" d="M378.9 328.8l8.9-5.1c.8-.5.7-1.3-.2-1.8l-8.4-4.8c-1-.5-2.4-.6-3.2-.1l-8.9 5.1c-.8.5-.7 1.3.2 1.8l8.4 4.8c1 .5 2.4.6 3.2.1z"/><path id="H" d="M304 371.8l8.9-5.1c.8-.5.7-1.3-.2-1.8l-8.4-4.8c-1-.5-2.4-.6-3.2-.1l-8.9 5.1c-.8.5-.7 1.3.2 1.8l8.4 4.8c.9.5 2.4.6 3.2.1z"/><path id="I" d="M243.2 423l8.9-5.1c.8-.5.7-1.3-.2-1.8l-8.4-4.8c-1-.5-2.4-.6-3.2-.1l-8.9 5.1c-.8.5-.7 1.3.2 1.8l8.4 4.8a4 4 0 0 0 3.2.1z"/><path id="J" d="M333.2 371.4l8.9-5.1c.8-.5.7-1.3-.2-1.8l-8.4-4.8c-1-.5-2.4-.6-3.2-.1l-8.9 5.1c-.8.5-.7 1.3.2 1.8l8.4 4.8c.9.5 2.3.5 3.2.1z"/><path id="K" d="M298.9 205.9l110.4-63.4"/><path id="L" d="M305.3 209.7l1.1-1.8 1.1.6-2.2 1.2z"/><path id="M" d="M204.2 358.5v1.4.1h.1l.2-.1v.2l-.1.1s-.1 0-.1.1c0 0-.1 0-.1.1-.1.1-.2.1-.2 0-.1 0-.1-.1-.1-.2v-1.4l.3-.3zm.4.2v.2l-.8.5v-.2l.2-.1.6-.4z"/><path id="N" d="M197.8 362.6c.2-.1.3-.1.4-.1s.1.1.1.3c0 .1 0 .2-.1.3 0 .1-.1.2-.2.2l-.7.4v-.2l.6-.4c.1 0 .1-.1.1-.1v-.1c0-.1 0-.1-.1-.1 0 0-.1 0-.2.1-.1 0-.1.1-.2.2 0 .1-.1.1-.1.2v.3.3c0 .1.1.1.1.1.1 0 .1 0 .2-.1.1 0 .1-.1.2-.1.1-.1.1-.1.2-.1v.2l-.1.1c-.1 0-.1.1-.2.1s-.1.1-.2.1c-.1.1-.3.1-.3.1-.1 0-.1 0-.2-.1 0-.1-.1-.2-.1-.4s0-.3.1-.5c0-.1.1-.2.2-.3.3-.3.4-.4.5-.4z"/><path id="O" d="M197.1 363l-.4 1.6v.1l-.2.1h-.1l-.4-1.1.3-.1.3.8v.1.1h0v-.1-.1l.3-1.1.2-.3z"/><path id="P" d="M231.4 343.3s.1 0 .1-.1c0 0 .1 0 .1-.1h.1v.2c-.1 0-.1.1-.2.1s-.1.1-.2.1c-.1.1-.2.1-.2.2-.1.1-.1.1-.1.2v.3.3c0 .1.1.1.1.1.1 0 .1 0 .2-.1 0 0 .1 0 .1-.1l.1-.1.1-.1v.2l-.2.2c-.1.1-.1.1-.2.1-.1.1-.3.1-.3.1-.1 0-.1 0-.2-.1 0-.1-.1-.2-.1-.4s0-.3.1-.5c0-.1.1-.2.2-.3.3 0 .4-.1.5-.2z"/><path id="Q" d="M215.4 204.3v2.8l-.7.4v-2.8l.7-.4zm-.2-1.1c.1-.1.2 0 .2.1v.3c0 .2-.1.3-.2.4l-.3.2c-.1.1-.2 0-.2-.1v-.3c0-.2.1-.3.2-.4l.3-.2z"/><path id="R" d="M135.2 281.9l36.7-19.7v5.6l-36.7 19.7v-5.6z"/><path id="S" d="M417.2 51.5c0 2.2 1.6 3.1 3.6 2a7.8 7.8 0 0 0 3.6-6.1c0-2.2-1.6-3.1-3.6-2a7.8 7.8 0 0 0-3.6 6.1z"/></defs><clipPath id="T"><use href="#A"/></clipPath><g clip-path="url(#T)"><path d="M280.2 12a39.3 39.3 0 0 1 39.5 0l219.8 126.9c12.2 7.1 19.8 20.1 19.8 34.2v253.8a39.6 39.6 0 0 1-19.2 33.9l-.6.3L319.8 588a39.3 39.3 0 0 1-39.5 0L60.4 461.1C48.2 454 40.7 441 40.6 426.9V173.1c0-14.1 7.5-27.2 19.8-34.2L280.2 12z" fill="#bfd8f7" fill-opacity=".2" stroke="#0668e1"/><linearGradient id="U" gradientUnits="userSpaceOnUse" x1="570" y1="398.3" x2="108.93" y2="398.3"><stop offset="0" stop-color="#a6ceff"/><stop offset="1" stop-color="#9cc5f8"/></linearGradient><path d="M110.8 414.8c3.1-1.3 265.5-146.1 265.5-146.1 5.4-3.1 14.7-2.7 20.9.9l171.2 92.5s2.4 4.4 1.4 8.9c-.7 3.3-1.7 4.6-3.2 5.7-.2.1-.5.3-.7.5-.1 0-.1.1-.2.1L303 527.9c-5.4 3.1-14.7 2.7-20.9-.9l-166.9-95.7c-.4-.2-.8-.5-1.2-.7-.1-.1-.2-.1-.3-.2-.2-.2-.5-.3-.7-.5-2.6-2.1-3.6-4.6-4.1-7.8-.4-3.5 1.9-7.3 1.9-7.3h0z" fill="url(#U)"/><linearGradient id="V" gradientUnits="userSpaceOnUse" x1="492.73" y1="96.44" x2="263.64" y2="537.42"><stop offset="0" stop-color="#fff"/><stop offset="1" stop-color="#d4e7fe"/></linearGradient><path d="M303 520.7L565.6 370c5.4-3.1 4.7-8.4-1.5-12l-166.9-95.7c-6.2-3.6-15.6-3.9-20.9-.9L113.7 412.1c-5.4 3.1-4.7 8.4 1.5 12l166.9 95.7c6.2 3.6 15.5 4 20.9.9h0z" fill="url(#V)"/><linearGradient id="W" gradientUnits="userSpaceOnUse" x1="523.44" y1="284.31" x2="155.89" y2="497.84"><stop offset="0" stop-color="#bdd2f4"/><stop offset="1" stop-color="#e5faff"/></linearGradient><use href="#B" stroke="url(#W)" class="c f g"/><use href="#B" stroke="url(#W)" class="c f g"/><linearGradient id="X" gradientUnits="userSpaceOnUse" x1="912.43" y1="24.3" x2="652.78" y2="175.14"><stop offset="0" stop-color="#bdd2f4"/><stop offset="1" stop-color="#e7f2ff"/></linearGradient><path d="M376.7 288c-1.1 0-2.2.2-2.9.6L160.1 411.2h0c-.7.4-1 .9-.9 1.4s.5 1.1 1.4 1.6l79.4 45.6c.9.5 2.1.8 3.2.9 1.1 0 2.2-.2 2.9-.6l213.7-122.6h0c.7-.4 1-.9.9-1.4s-.5-1.1-1.4-1.6l-79.4-45.6h0c-.9-.5-2.1-.8-3.2-.9z" fill="url(#X)" stroke="#a9d0ff" stroke-width=".94"/><linearGradient id="Y" gradientUnits="userSpaceOnUse" x1="629.42" y1="286.22" x2="548.28" y2="333.36"><stop offset="0" stop-color="#bdd2f4"/><stop offset="1" stop-color="#d3e7ff"/></linearGradient><path d="M383.3 462.9l81.4-46.7-59-33.8-81.4 46.7 59 33.8z" fill="url(#Y)"/><linearGradient id="Z" gradientUnits="userSpaceOnUse" x1="236.46" y1="315.75" x2="247.27" y2="335.6"><stop offset="0" stop-color="#0f042e"/><stop offset="1" stop-color="#1c1265"/></linearGradient><path d="M143.9 402.7l217.8-125-8.7-5-217.8 125 8.7 5z" fill="url(#Z)"/><g fill="#244063"><use href="#C"/><use href="#D"/><use href="#E"/><path d="M326.2 327l9.6-5.5c1.2-.7 1.1-1.9-.3-2.8l-2.8-1.6c-1.4-.8-3.6-.9-4.8-.2l-9.6 5.5c-1.2.7-1.1 1.9.3 2.8l2.8 1.6c1.5.9 3.6.9 4.8.2zm-15.4 8.9l9.6-5.5c1.2-.7 1.1-1.9-.3-2.8l-2.8-1.6c-1.4-.8-3.6-.9-4.8-.2l-9.6 5.5c-1.2.7-1.1 1.9.3 2.8l2.8 1.6c1.4.8 3.6.9 4.8.2zm-15.4 8.8l9.6-5.5c1.2-.7 1.1-1.9-.3-2.8l-2.8-1.6c-1.4-.8-3.6-.9-4.8-.2l-9.6 5.5c-1.2.7-1.1 1.9.3 2.8l2.8 1.6c1.4.8 3.6.9 4.8.2zm-15.4 8.9l9.6-5.5c1.2-.7 1.1-1.9-.3-2.8l-2.8-1.6c-1.4-.8-3.6-.9-4.8-.2L272 349c-1.2.7-1.1 1.9.3 2.8l2.8 1.6c1.5.8 3.7.9 4.9.2zm-15.4 8.8l9.6-5.5c1.2-.7 1.1-1.9-.3-2.8l-2.8-1.6c-1.4-.8-3.6-.9-4.8-.2l-9.6 5.5c-1.2.7-1.1 1.9.3 2.8l2.8 1.6c1.4.8 3.5.9 4.8.2zm-15.5 8.9l9.6-5.5c1.2-.7 1.1-1.9-.3-2.8l-2.8-1.6c-1.4-.8-3.6-.9-4.8-.2l-9.6 5.5c-1.2.7-1.1 1.9.3 2.8l2.8 1.6c1.5.8 3.6.9 4.8.2zm-15.4 8.8l9.6-5.5c1.2-.7 1.1-1.9-.3-2.8l-2.8-1.6c-1.4-.8-3.6-.9-4.8-.2l-9.6 5.5c-1.2.7-1.1 1.9.3 2.8l2.8 1.6c1.5.8 3.6.9 4.8.2zm-15.4 8.9l9.6-5.5c1.2-.7 1.1-1.9-.3-2.8l-2.8-1.6c-1.4-.8-3.6-.9-4.8-.2l-9.6 5.5c-1.2.7-1.1 1.9.3 2.8l2.8 1.6c1.4.8 3.6.9 4.8.2zm-15.4 8.8l9.6-5.5c1.2-.7 1.1-1.9-.3-2.8l-2.8-1.6c-1.4-.8-3.6-.9-4.8-.2l-9.6 5.5c-1.2.7-1.1 1.9.3 2.8l2.8 1.6c1.4.8 3.6.9 4.8.2zm-15.4 8.8l9.6-5.5c1.2-.7 1.1-1.9-.3-2.8l-2.8-1.6c-1.4-.8-3.6-.9-4.8-.2l-9.6 5.5c-1.2.7-1.1 1.9.3 2.8l2.8 1.6c1.4.9 3.6 1 4.8.2zm-15.4 8.9l9.6-5.5c1.2-.7 1.1-1.9-.3-2.8l-2.8-1.6c-1.4-.8-3.6-.9-4.8-.2l-9.6 5.5c-1.2.7-1.1 1.9.3 2.8l2.8 1.6c1.4.8 3.5.9 4.8.2z"/><use href="#F"/><path d="M393.7 320.3l15.9-9.1c1-.6.9-1.7-.3-2.4l-7.4-4.2a4.6 4.6 0 0 0-4.1-.2l-15.9 9.1c-1 .6-.9 1.7.3 2.4l7.4 4.2a4.6 4.6 0 0 0 4.1.2zm-21.9-3.5l8.9-5.1c.8-.5.7-1.3-.2-1.8l-8.4-4.8c-1-.5-2.4-.6-3.2-.1l-8.9 5c-.8.5-.7 1.3.2 1.8l8.4 4.8c1 .6 2.4.7 3.2.2z"/><use href="#G"/><path d="M363.9 337.4l8.9-5.1c.8-.5.7-1.3-.2-1.8l-8.4-4.8c-1-.5-2.4-.6-3.2-.1l-8.9 5.1c-.8.5-.7 1.3.2 1.8l8.4 4.8c1 .5 2.4.6 3.2.1zm-15 8.6l8.9-5.1c.8-.5.7-1.3-.2-1.8l-8.4-4.8c-1-.5-2.4-.6-3.2-.1l-8.9 5.1c-.8.5-.7 1.3.2 1.8l8.4 4.8c1 .5 2.4.6 3.2.1zm-14.9 8.6l8.9-5.1c.8-.5.7-1.3-.2-1.8l-8.4-4.8c-1-.5-2.4-.6-3.2-.1l-8.9 5.1c-.8.5-.7 1.3.2 1.8l8.4 4.8c.9.5 2.3.6 3.2.1zm-15 8.6l8.9-5.1c.8-.5.7-1.3-.2-1.8l-8.4-4.8c-1-.5-2.4-.6-3.2-.1l-8.9 5.1c-.8.5-.7 1.3.2 1.8l8.4 4.8c.9.5 2.3.6 3.2.1z"/><use href="#H"/><path d="M289 380.4l8.9-5.1c.8-.5.7-1.3-.2-1.8l-8.4-4.8c-1-.5-2.4-.6-3.2-.1l-8.9 5.1c-.8.5-.7 1.3.2 1.8l8.4 4.8c.9.5 2.4.6 3.2.1zm-15 8.6l8.9-5.1c.8-.5.7-1.3-.2-1.8l-8.4-4.8c-1-.5-2.4-.6-3.2-.1l-8.9 5.1c-.8.5-.7 1.3.2 1.8l8.4 4.8c.9.5 2.4.6 3.2.1zm-15 8.6l8.9-5.1c.8-.5.7-1.3-.2-1.8l-8.4-4.8c-1-.5-2.4-.6-3.2-.1l-8.9 5.1c-.8.5-.7 1.3.2 1.8l8.4 4.8c1 .5 2.4.6 3.2.1zm-15 8.6l8.9-5.1c.8-.5.7-1.3-.2-1.8l-8.4-4.8c-1-.5-2.4-.6-3.2-.1l-8.9 5.1c-.8.5-.7 1.3.2 1.8l8.4 4.8c1 .5 2.4.6 3.2.1zm-15 8.6l8.9-5.1c.8-.5.7-1.3-.2-1.8l-8.4-4.8c-1-.5-2.4-.6-3.2-.1l-8.9 5.1c-.8.5-.7 1.3.2 1.8l8.4 4.8c1 .5 2.4.6 3.2.1z"/><use href="#I"/><path d="M227.6 431.9l8.9-5.1c.8-.5.7-1.3-.2-1.8l-8.4-4.8c-1-.5-2.4-.6-3.2-.1l-8.9 5.1c-.8.5-.7 1.3.2 1.8l8.4 4.8c1 .5 2.4.6 3.2.1zm30.6-17.5l8.9-5.1c.8-.5.7-1.3-.2-1.8l-8.4-4.8c-1-.5-2.4-.6-3.2-.1l-8.9 5.1c-.8.5-.7 1.3.2 1.8l8.4 4.8a4 4 0 0 0 3.2.1zm15-8.6l8.9-5.1c.8-.5.7-1.3-.2-1.8l-8.4-4.8c-1-.5-2.4-.6-3.2-.1l-8.9 5.1c-.8.5-.7 1.3.2 1.8l8.4 4.8a4 4 0 0 0 3.2.1zm15-8.6l8.9-5.1c.8-.5.7-1.3-.2-1.8l-8.4-4.8c-1-.5-2.4-.6-3.2-.1l-8.9 5.1c-.8.5-.7 1.3.2 1.8l8.4 4.8a4 4 0 0 0 3.2.1zm15-8.6l8.9-5.1c.8-.5.7-1.3-.2-1.8l-8.4-4.8c-1-.5-2.4-.6-3.2-.1l-8.9 5.1c-.8.5-.7 1.3.2 1.8l8.4 4.8a4 4 0 0 0 3.2.1zm15-8.6l8.9-5.1c.8-.5.7-1.3-.2-1.8l-8.4-4.8c-1-.5-2.4-.6-3.2-.1l-8.9 5.1c-.8.5-.7 1.3.2 1.8l8.4 4.8a4 4 0 0 0 3.2.1z"/><use href="#J"/><path d="M348.2 362.8l8.9-5.1c.8-.5.7-1.3-.2-1.8l-8.4-4.8c-1-.5-2.4-.6-3.2-.1l-8.9 5.1c-.8.5-.7 1.3.2 1.8l8.4 4.8c.9.5 2.3.5 3.2.1zm15-8.6l8.9-5.1c.8-.5.7-1.3-.2-1.8l-8.4-4.8c-1-.5-2.4-.6-3.2-.1l-8.9 5.1c-.8.5-.7 1.3.2 1.8l8.4 4.8c.9.5 2.3.5 3.2.1zm14.9-8.6l8.9-5.1c.8-.5.7-1.3-.2-1.8l-8.4-4.8c-1-.5-2.4-.6-3.2-.1l-8.9 5.1c-.8.5-.7 1.3.2 1.8l8.4 4.8a4 4 0 0 0 3.2.1zm14.2 8.1l8.9-5.1c.8-.5.7-1.3-.2-1.8l-8.4-4.8c-1-.5-2.4-.6-3.2-.1l-8.9 5.1c-.8.5-.7 1.3.2 1.8l8.4 4.8c1 .5 2.4.6 3.2.1zm-119.2 85.9l8.9-5.1c.8-.5.7-1.3-.2-1.8l-8.4-4.8c-1-.5-2.4-.6-3.2-.1l-8.9 5.1c-.8.5-.7 1.3.2 1.8l8.4 4.8c.9.5 2.4.6 3.2.1zm-15.2 8.7l8.9-5.1c.8-.5.7-1.3-.2-1.8l-8.4-4.8c-1-.5-2.4-.6-3.2-.1l-8.9 5.1c-.8.5-.7 1.3.2 1.8l8.4 4.8c1 .5 2.4.6 3.2.1zm-15.1 8.7l8.9-5.1c.8-.5.7-1.3-.2-1.8l-8.4-4.8c-1-.5-2.4-.6-3.2-.1l-8.9 5.1c-.8.5-.7 1.3.2 1.8l8.4 4.8c1 .5 2.4.6 3.2.1zm62.8-36l8.9-5.1c.8-.5.7-1.3-.2-1.8l-8.4-4.8c-1-.5-2.4-.6-3.2-.1l-8.9 5.1c-.8.5-.7 1.3.2 1.8l8.4 4.8a4 4 0 0 0 3.2.1zm-16.5 9.4l8.9-5.1c.8-.5.7-1.3-.2-1.8l-8.4-4.8c-1-.5-2.4-.6-3.2-.1l-8.9 5.1c-.8.5-.7 1.3.2 1.8l8.4 4.8c1 .5 2.4.6 3.2.1zm132.4-84.9l10-5.7c.5-.3.5-.8-.1-1.2l-2.8-1.6c-.6-.4-1.6-.4-2.1-.1l-10 5.7c-.5.3-.5.8.1 1.2l2.8 1.6c.6.4 1.6.4 2.1.1zm7.3 4.2l10-5.7c.5-.3.5-.8-.1-1.2l-2.8-1.6c-.6-.4-1.6-.4-2.1-.1l-10 5.7c-.5.3-.5.8.2 1.2l2.8 1.6c.5.4 1.5.4 2 .1zm14.6-8.3l10-5.7c.5-.3.5-.8-.1-1.2l-2.8-1.6c-.6-.4-1.6-.4-2.1-.1l-10 5.7c-.5.3-.5.8.1 1.2l2.8 1.6c.6.4 1.5.4 2.1.1zm-29.7 17l10-5.7c.5-.3.5-.8-.1-1.2l-2.8-1.6c-.6-.4-1.6-.4-2.1-.1l-10 5.7c-.5.3-.5.8.1 1.2l2.8 1.6c.7.4 1.6.4 2.1.1zm-17.6 10.7l11.6-6.7c.9-.5.8-1.5-.3-2.1l-8-4.6c-1.1-.6-2.7-.7-3.6-.1l-11.6 6.7c-.9.5-.8 1.5.3 2.1l8 4.6c1.1.5 2.7.6 3.6.1zm-70.4 40.4l62-35.6c2-1.1 1.7-3.1-.6-4.4l-3.6-2c-2.3-1.3-5.7-1.5-7.7-.3l-62 35.6c-2 1.1-1.7 3.1.6 4.4l3.6 2c2.3 1.2 5.7 1.4 7.7.3zm51.8-47.3l8.9-5.1c.8-.5.7-1.3-.2-1.8l-8.4-4.8c-1-.5-2.4-.6-3.2-.1l-8.9 5.1c-.8.5-.7 1.3.2 1.8l8.4 4.8c1 .5 2.4.6 3.2.1zm-14.8 8.5l8.9-5.1c.8-.5.7-1.3-.2-1.8L363 359c-1-.5-2.4-.6-3.2-.1l-8.9 5.1c-.8.5-.7 1.3.2 1.8l8.4 4.8c1 .5 2.4.6 3.2.1zm-14.8 8.5l8.9-5.1c.8-.5.7-1.3-.2-1.8l-8.4-4.8c-1-.5-2.4-.6-3.2-.1l-8.9 5.1c-.8.5-.7 1.3.2 1.8l8.4 4.8c1 .5 2.4.6 3.2.1zm-14.8 8.5l8.9-5.1c.8-.5.7-1.3-.2-1.8l-8.4-4.8c-1-.5-2.4-.6-3.2-.1l-8.9 5.1c-.8.5-.7 1.3.2 1.8l8.4 4.8c1 .5 2.4.6 3.2.1zm-14.8 8.5l8.9-5.1c.8-.5.7-1.3-.2-1.8l-8.4-4.8c-1-.5-2.4-.6-3.2-.1l-8.9 5.1c-.8.5-.7 1.3.2 1.8l8.4 4.8a4 4 0 0 0 3.2.1zm-14.8 8.5l8.9-5.1c.8-.5.7-1.3-.2-1.8l-8.4-4.8c-1-.5-2.4-.6-3.2-.1l-8.9 5.1c-.8.5-.7 1.3.2 1.8l8.4 4.8a4 4 0 0 0 3.2.1zm-14.8 8.5l8.9-5.1c.8-.5.7-1.3-.2-1.8l-8.4-4.8c-1-.5-2.4-.6-3.2-.1l-8.9 5.1c-.8.5-.7 1.3.2 1.8l8.4 4.8a4 4 0 0 0 3.2.1zm-14.8 8.5l8.9-5.1c.8-.5.7-1.3-.2-1.8l-8.4-4.8c-1-.5-2.4-.6-3.2-.1l-8.9 5.1c-.8.5-.7 1.3.2 1.8l8.4 4.8a4 4 0 0 0 3.2.1zm-14.8 8.5l8.9-5.1c.8-.5.7-1.3-.2-1.8l-8.4-4.8c-1-.5-2.4-.6-3.2-.1l-8.9 5.1c-.8.5-.7 1.3.2 1.8l8.4 4.8a4 4 0 0 0 3.2.1zm-30.8 17.7l24.1-13.9c1.3-.7 1.1-2-.4-2.8l-6.5-3.7c-1.5-.8-3.7-.9-5-.2l-24.1 13.9c-1.3.7-1.1 2 .4 2.8l6.5 3.7c1.5.8 3.7.9 5 .2zM393.1 337l8.9-5.1c.8-.5.7-1.3-.2-1.8l-8.4-4.8c-1-.5-2.4-.6-3.2-.1l-8.9 5.1c-.8.5-.7 1.3.2 1.8l8.4 4.8a4 4 0 0 0 3.2.1zm14.8-8.5l15.5-8.9c1-.6.9-1.6-.3-2.3l-7.4-4.3a4.6 4.6 0 0 0-4.1-.2l-15.5 8.9c-1 .6-.9 1.6.3 2.3l7.4 4.3c1.3.7 3.1.8 4.1.2z"/><path d="M408.2 344.6l29-16.6c1.3-.7 1.1-2.1-.4-2.9l-6.3-3.6c-1.5-.9-3.8-1-5.1-.2l-29 16.6c-1.3.7-1.1 2.1.4 2.9l6.3 3.6c1.5.9 3.8 1 5.1.2zm-220.1 82.9l21.8 12.5c1.3.7 3.5.7 4.8 0l7.1-4.1c1.3-.8 1.3-2 0-2.7l-9.9-5.7c-1.3-.8-1.3-2 0-2.8l10.6-6.1c1.1-.6 1.1-1.7 0-2.3l-7.9-4.5c-1.1-.6-2.9-.6-3.9 0l-22.5 12.9c-1.4.8-1.5 2-.1 2.8h0zm168.4-101.9l8.9-5.1c.8-.5.7-1.3-.2-1.8l-8.4-4.8c-1-.5-2.4-.6-3.2-.1l-8.9 5.1c-.8.5-.7 1.3.2 1.8l8.4 4.8c.9.6 2.3.6 3.2.1zm-15.4 8.9l8.9-5.1c.8-.5.7-1.3-.2-1.8l-8.4-4.8c-1-.5-2.4-.6-3.2-.1l-8.9 5.1c-.8.5-.7 1.3.2 1.8l8.4 4.8a4 4 0 0 0 3.2.1zm-15.4 8.8l8.9-5.1c.8-.5.7-1.3-.2-1.8l-8.4-4.8c-1-.5-2.4-.6-3.2-.1l-8.9 5.1c-.8.5-.7 1.3.2 1.8l8.4 4.8c1 .5 2.4.6 3.2.1zm-15.3 8.8l8.9-5.1c.8-.5.7-1.3-.2-1.8l-8.4-4.8c-1-.5-2.4-.6-3.2-.1l-8.9 5.1c-.8.5-.7 1.3.2 1.8l8.4 4.8c.9.5 2.3.6 3.2.1zm-15.4 8.8l8.9-5.1c.8-.5.7-1.3-.2-1.8l-8.4-4.8c-1-.5-2.4-.6-3.2-.1l-8.9 5.1c-.8.5-.7 1.3.2 1.8l8.4 4.8c.9.5 2.4.6 3.2.1zm-15.4 8.8l8.9-5.1c.8-.5.7-1.3-.2-1.8l-8.4-4.8c-1-.5-2.4-.6-3.2-.1l-8.9 5.1c-.8.5-.7 1.3.2 1.8l8.4 4.8c1 .5 2.4.6 3.2.1zm-15.3 8.8l8.9-5.1c.8-.5.7-1.3-.2-1.8l-8.4-4.8c-1-.5-2.4-.6-3.2-.1l-8.9 5.1c-.8.5-.7 1.3.2 1.8l8.4 4.8c.9.5 2.3.6 3.2.1zm-15.4 8.8l8.9-5.1c.8-.5.7-1.3-.2-1.8l-8.4-4.8c-1-.5-2.4-.6-3.2-.1l-8.9 5.1c-.8.5-.7 1.3.2 1.8l8.4 4.8c1 .6 2.4.6 3.2.1zm-15.4 8.9l8.9-5.1c.8-.5.7-1.3-.2-1.8l-8.4-4.8c-1-.5-2.4-.6-3.2-.1l-8.9 5.1c-.8.5-.7 1.3.2 1.8l8.4 4.8a4 4 0 0 0 3.2.1zm-15.3 8.8l8.9-5.1c.8-.5.7-1.3-.2-1.8l-8.4-4.8c-1-.5-2.4-.6-3.2-.1l-8.9 5.1c-.8.5-.7 1.3.2 1.8l8.4 4.8c.9.5 2.3.5 3.2.1zM186 423.4l24.8-14.2c1.3-.7 1.1-2-.4-2.9l-6.4-3.7c-1.5-.9-3.7-.9-5-.2l-24.8 14.2c-1.3.7-1.1 2 .4 2.9l6.4 3.7c1.5.9 3.8 1 5 .2z"/></g><path d="M383.3 463.1l81.7-46.9-59.3-34-81.7 46.9 59.3 34zm81.1-46.9l-81.1 46.5-58.6-33.6 81.1-46.5 58.6 33.6z" stroke="#bed3f4" class="c f g"/><linearGradient id="a" gradientUnits="userSpaceOnUse" x1="-58.83" y1="396.22" x2="-350.94" y2="565.92"><stop offset="0" stop-color="#e5faff"/><stop offset="1" stop-color="#bdd2f4"/></linearGradient><path d="M100.8 415l271.3-155.7c3.6-2.1 7-6.4 8.5-11.1l.4-1.2 2-208.6c0-2.8-.9-4.8-2.6-5.8s-4-.8-6.4.6L98.9 191.1a18.8 18.8 0 0 0-6.4 6.7c-1.7 2.9-2.6 6.1-2.6 8.8l2 206.2.4.8c1.6 2.9 4.9 3.5 8.5 1.4h0zm271.3-165.9L100.9 404.7l-2-203.4L374 43.5l-1.9 205.6h0z" fill="url(#a)"/><linearGradient id="b" gradientUnits="userSpaceOnUse" x1="377.47" y1="54.01" x2="114.34" y2="379.83"><stop offset="0" stop-color="#3b92ff"/><stop offset="1" stop-color="#4f9eff"/></linearGradient><path d="M96.9 208.3L99 410.9c.8 1.5 2.5 1.8 4.4.7l271.3-155.7a6.1 6.1 0 0 0 1.6-1.2c1.2-1.2 2.2-2.8 2.8-4.5l2.1-205c1.1-4.3-.7-7.4-3.4-5.8L100.2 198.6s-.1.1-.2.1a9.7 9.7 0 0 0-3.1 9.6h0z" fill="url(#b)"/><linearGradient id="c" gradientUnits="userSpaceOnUse" x1="-55.01" y1="397.15" x2="-347.12" y2="566.85"><stop offset="0" stop-color="#1c1265"/><stop offset="1" stop-color="#0f042e"/></linearGradient><path d="M103.3 416.7L374.6 261c3.6-2.1 7-6.4 8.5-11.1l.4-1.2 2-208.6c0-2.8-.9-4.8-2.6-5.8s-4-.8-6.4.6L101.4 192.8a18.8 18.8 0 0 0-6.4 6.7c-1.7 2.9-2.6 6.1-2.6 8.8l2 206.2.4.8c1.6 3 4.9 3.5 8.5 1.4h0zm271.2-165.9L103.4 406.4l-2-203.4L376.5 45.2l-2 205.6z" fill="url(#c)"/><linearGradient id="d" gradientUnits="userSpaceOnUse" x1="205.2" y1="288.27" x2="282.68" y2="143.3"><stop offset="0" stop-color="#f5f5f5"/><stop offset=".05" stop-color="#c7c7c7"/><stop offset=".09" stop-color="#9c9c9c"/><stop offset=".14" stop-color="#777"/><stop offset=".2" stop-color="#565656"/><stop offset=".25" stop-color="#3b3b3b"/><stop offset=".32" stop-color="#252525"/><stop offset=".4" stop-color="#141414"/><stop offset=".49" stop-color="#080808"/><stop offset=".63" stop-color="#010101"/><stop offset="1"/></linearGradient><path d="M374.5 250.8l2-205.7L101.4 203c91.5 61.8 239.6 67.1 273.1 47.8z" opacity=".1" fill="url(#d)"/><g fill="#fff"><path d="M130.4 216.9v186.3c0 7.9 5.6 11.2 12.6 7.2l276.3-158.6c7-4 12.6-13.7 12.6-21.6V43.7c0-7.9-5.6-11.2-12.6-7.2L143 195.2c-7 4-12.6 13.7-12.6 21.7h0z"/><path d="M429.8 35.9c-2.2-1.2-5.2-1.1-8.7.9L144.8 195.4c-3.4 2-6.6 5.4-8.8 9.2-2.3 3.9-3.7 8.3-3.7 12.2v186.3c0 3.9 1.4 6.6 3.6 7.9 2.1 1.2 5.1 1.1 8.4-.7l.3-.2 276.3-158.6h0c3.4-2 6.6-5.4 8.8-9.2 2.3-3.9 3.7-8.3 3.7-12.2V43.7c-.1-3.9-1.5-6.6-3.6-7.8z" fill-opacity=".4" stroke="#0668e1" stroke-width=".47"/></g><g fill="#d7e9fe"><path d="M300.6 242.1l111.8-64.2c.9-.5 1.6-.1 1.6.9v9.5c0 1-.7 2.3-1.6 2.8l-111.8 64.2c-.9.5-1.6.1-1.6-.9v-9.5a3.2 3.2 0 0 1 1.6-2.8z"/><path d="M300.6 259.7l63.9-36.7c.9-.5 1.6-.1 1.6.9v9.5c0 1-.7 2.3-1.6 2.8l-63.9 36.7c-.9.5-1.6.1-1.6-.9v-9.5c-.1-1 .7-2.3 1.6-2.8z"/><path d="M300.6 278.4l29.3-16.8c.9-.5 1.6-.1 1.6.9v9.5c0 1-.7 2.3-1.6 2.8l-29.3 16.8c-.9.5-1.6.1-1.6-.9v-9.5c-.1-1 .7-2.3 1.6-2.8z"/></g><path d="M314.9 214.7l3.4-2c.2-.1.4 0 .4.2v3.9c0 .3-.2.6-.4.7l-3.4 2c-.2.1-.4 0-.4-.2v-3.9c0-.3.2-.6.4-.7z" class="Y"/><path d="M321.8 212.2v2l-.2.1v-2l.2-.1zm.8.3v.2l-.9.5v-.2l.9-.5zm.2-.9v2l-.2.1v-2l.2-.1zm.7.2v1.4l-.2.1v-1.4l.2-.1zm-.1-.6h0l.1.2c0 .1 0 .1-.1.1l-.1.1h-.1v-.2c0-.1 0-.1.1-.1l.1-.1zm.6.3v.3h0v1.1l-.2.1v-1.4l.2-.1zm.6-.4v.3h-.1c-.1 0-.1.1-.2.2l-.3.3v-.1c.1-.1.2-.3.3-.4.1-.2.2-.3.3-.3h0zm.8-.5c.2-.1.3-.1.4-.1s.1.1.1.3c0 .1 0 .2-.1.3 0 .1-.1.2-.2.2l-.7.4v-.2l.7-.4c.1 0 .1-.1.1-.1v-.2c0-.1 0-.1-.1-.2 0 0-.1 0-.2.1s-.2.1-.2.2c-.1.1-.1.1-.1.2v.3.3c0 .1.1.1.1.1.1 0 .1 0 .2-.1.1 0 .1-.1.2-.1.1-.1.2-.1.2-.1v.2l-.1.1c-.1 0-.1.1-.2.1s-.1.1-.2.1c-.1.1-.3.1-.3.1-.1 0-.2 0-.2-.1s-.1-.2-.1-.4 0-.3.1-.5c0-.1.1-.2.2-.3.1 0 .2-.1.4-.2zm1.2-.7c.1 0 .1-.1.2-.1s.1-.1.2-.1.1-.1.2-.1v.2c-.1 0-.2.1-.2.1-.1 0-.2.1-.2.1-.1 0-.1.1-.2.1l-.1.1v.1.1h.1l.4-.1h.2s.1.1.1.2 0 .2-.1.3c0 .1-.1.2-.2.2-.1.1-.2.1-.3.2 0 0-.1.1-.2.1s-.2.1-.3.1v-.2s.1 0 .1-.1l.1-.1c.1 0 .1-.1.2-.1.1-.1.2-.1.2-.1.1 0 .1-.1.1-.1v-.1c0-.1 0-.1-.1-.1h-.1l-.4.1h-.2s-.1 0-.1-.1v-.2c0-.1 0-.2.1-.3 0-.1.1-.1.2-.2.1.2.2.2.3.1zm2.1-2v.1c-.2.2-.3.4-.4.7s-.1.6-.1.9c0 .2 0 .4.1.6 0 .2.1.3.2.3.1.1.2.1.3.1v.1c-.2 0-.4 0-.5-.2s-.2-.4-.2-.8.1-.7.2-1c0-.3.2-.6.4-.8zm.7-.1v1.6c0 .1 0 .3-.1.4s-.1.2-.3.3h-.1-.1-.1v-.2l.1-.1c.1-.1.2-.2.2-.3v-1.6l.4-.1zm1 0c.1-.1.3-.1.3-.1.1 0 .1 0 .2.1 0 .1.1.2.1.4s0 .3-.1.5c0 .1-.1.2-.2.3l-.3.3c-.1.1-.3.1-.3.1-.1 0-.1 0-.2-.1 0-.1-.1-.2-.1-.4a.9.9 0 0 1 .1-.5c0-.1.1-.3.2-.3 0-.1.1-.2.3-.3zm0 .2c-.1.1-.2.1-.2.2-.1.1-.1.1-.1.2v.3.3c0 .1.1.1.1.1.1 0 .1 0 .2-.1s.2-.1.2-.2c.1-.1.1-.1.1-.2v-.3-.3c0-.1-.1-.1-.1-.1-.1 0-.2 0-.2.1zm1.1-.8v1.4l-.2.1v-1.4l.2-.1zm0-.6l.1.2c0 .1 0 .1-.1.1l-.1.1h-.1v-.2c0-.1 0-.1.1-.1l.1-.1zm1.2-.1c.2-.1.3-.1.3.2v1.1l-.2.1v-1-.2h-.1c-.1 0-.2.1-.2.2l-.3.3v-.2c.1-.1.2-.3.3-.4 0 0 .1-.1.2-.1zm-.6.3v.3h0v1.1l-.2.1v-1.4l.2-.1zm1.8-1.1c.2-.1.3-.1.4-.1s.1.1.1.3c0 .1 0 .2-.1.3 0 .1-.1.2-.2.2l-.7.4v-.2l.7-.4c.1 0 .1-.1.1-.1v-.2c0-.1 0-.1-.1-.2 0 0-.1 0-.2.1s-.2.1-.2.2c-.1.1-.1.1-.1.2v.3.3c0 .1.1.1.1.1.1 0 .1 0 .2-.1.1 0 .1-.1.2-.1.1-.1.2-.1.2-.1v.2l-.1.1c-.1 0-.1.1-.2.1s-.1.1-.2.1c-.1.1-.3.1-.3.1-.1 0-.2 0-.2-.1s-.1-.2-.1-.4 0-.3.1-.5c0-.1.1-.2.2-.3.2 0 .3-.1.4-.2zm1.3-.7c.1 0 .2-.1.2-.1h.2v.2c-.1 0-.2 0-.2.1-.1 0-.1.1-.2.1s-.1.1-.2.1c0 .1-.1.1-.1.2v.3.3c0 .1.1.1.1.1h.2l.1-.1.1-.1c0-.1.1-.1.2-.2v.2c-.1.1-.1.2-.2.3s-.2.2-.3.2c-.2.1-.3.1-.3 0-.1-.1-.1-.3-.1-.5s0-.3.1-.5c0-.1.1-.2.2-.3 0-.2.1-.2.2-.3zm.6-1v2.1l-.2.1v-.2h0v-1-.1-.2-.2-.4l.2-.1zm.3-.4c.2 0 .4 0 .5.2s.2.4.2.8-.1.7-.2 1-.3.6-.5.8v-.1c.1-.1.2-.3.3-.4.1-.2.1-.3.2-.5 0-.2.1-.4.1-.6 0-.3 0-.6-.1-.8s-.2-.3-.4-.3l-.1-.1z" class="b"/><path d="M357.2 190.4l3.4-2c.2-.1.4 0 .4.2v3.9c0 .3-.2.6-.4.7l-3.4 2c-.2.1-.4 0-.4-.2v-3.9c-.1-.2.1-.6.4-.7z" fill="#e17f06"/><path d="M364 187.9v2l-.2.1v-2l.2-.1zm.9.3v.2l-.9.6v-.2l.9-.6zm.2-.9v2l-.2.1v-2l.2-.1zm.6.2v1.4l-.2.1v-1.4l.2-.1zm-.1-.6h0l.1.2c0 .1 0 .1-.1.1l-.1.1h-.1v-.2c0-.1 0-.1.1-.1l.1-.1zm.7.3v.3h0v1.1l-.2.1v-1.4l.2-.1zm.6-.4v.2h-.1c-.1 0-.1.1-.2.2l-.3.3v-.1c.1-.1.2-.3.3-.4.1 0 .1-.1.3-.2h0zm.5-.2v1.4l-.2.1v-1.4l.2-.1zm-.1-.6h0l.1.2c0 .1 0 .1-.1.1l-.1.1h-.1v-.2c0-.1 0-.1.1-.1l.1-.1zm1.2-.1c.2-.1.3-.1.3.2v1.1l-.2.1v-1-.2h-.1c-.1 0-.2.1-.2.2l-.3.3v-.2c.1-.1.2-.3.3-.4 0 0 .1-.1.2-.1zm-.5.3v.3h0v1.1l-.2.1v-1.4l.2-.1zm1.8-1c.1-.1.2-.1.3-.1s.1 0 .2.1c0 0 .1.1.1.2s0 .2-.1.3c0 .1-.1.2-.2.2-.1.1-.2.2-.3.2-.1.1-.2.1-.3.1s-.1 0-.2-.1v-.2-.3c0-.1.1-.2.2-.2 0-.1.1-.2.3-.2zm0 .2c-.1.1-.2.1-.3.2 0 .1-.1.1-.1.2s0 .1.1.2c0 0 .1 0 .3-.1.1-.1.2-.1.3-.2s.1-.2.1-.2c0-.1 0-.2-.1-.2s-.2 0-.3.1zm.6-.6v.1l-.3.2-.1-.1.4-.2zm-1 1.4l.1-.1c0 .1 0 .1-.1.1.1.1.1.2.1.2h.1l.5-.2c.1 0 .2-.1.2 0 0 0 .1.1.1.2s0 .2-.1.3c0 .1-.1.2-.2.2-.1.1-.2.2-.4.2-.1.1-.2.1-.3.1h-.2s-.1 0-.1-.1v-.2-.2c0-.1 0-.1.1-.2 0-.1.1-.1.1-.2l.2-.2h.1l-.1.2-.1.1s0 .1-.1.1v.1.1h.1c.1 0 .1-.1.2-.1.1-.1.2-.1.2-.2.1 0 .1-.1.1-.1v-.2-.1h-.1-.1l-.4.2h-.1s-.1 0-.1-.1v-.1-.1c.2.4.3.3.3.3zm3.1-3.2l-.5 2.3v.1l-.1.1-.2.1h-.1l-.5-1.7.2-.1.4 1.4v.1.1h.1v-.1-.1l.4-1.9.3-.3zm.7.2c.2-.1.3-.1.4-.1s.1.1.1.3c0 .1 0 .2-.1.3 0 .1-.1.2-.2.2l-.7.4v-.2l.7-.4c.1 0 .1-.1.1-.1v-.2c0-.1 0-.1-.1-.2 0 0-.1 0-.2.1s-.2.1-.2.2c-.1.1-.1.1-.1.2v.3.3c0 .1.1.1.1.1.1 0 .1 0 .2-.1.1 0 .1-.1.2-.1.1-.1.2-.1.2-.1v.2l-.1.1c-.1 0-.1.1-.2.1s-.1.1-.2.1c-.1.1-.3.1-.3.1-.1 0-.2 0-.2-.1s-.1-.2-.1-.4 0-.3.1-.5c0-.1.1-.2.2-.3.1 0 .2-.1.4-.2zm1.1-1.2v1.7.1h.1l.1-.1v.2l-.1.1s-.1 0-.1.1h-.1c-.1.1-.2.1-.2 0-.1 0-.1-.1-.1-.2v-1.7l.4-.2zm1 0c.1-.1.3-.1.3-.1.1 0 .1 0 .2.1 0 .1.1.2.1.4s0 .3-.1.5c0 .1-.1.2-.2.3l-.3.3c-.1.1-.3.1-.3.1-.1 0-.1 0-.2-.1 0-.1-.1-.2-.1-.4s0-.3.1-.5c0-.1.1-.3.2-.3.1-.2.2-.2.3-.3zm0 .2c-.1.1-.2.1-.2.2-.1.1-.1.1-.1.2v.3.3c0 .1.1.1.1.1.1 0 .1 0 .2-.1s.2-.1.2-.2c.1-.1.1-.1.1-.2v-.3-.3c0-.1-.1-.1-.1-.1s-.1 0-.2.1zm1.5-1.1s.1 0 .1-.1c0 0 .1 0 .1-.1h.1v.2c-.1 0-.1.1-.2.1s-.1.1-.2.1c-.1.1-.2.1-.2.2s-.1.1-.1.2v.3.3c0 .1.1.1.1.1s.1 0 .2-.1c0 0 .1 0 .1-.1l.1-.1.1-.1v.2l-.2.2c-.1.1-.1.1-.2.1-.1.1-.3.1-.3.1-.1 0-.2 0-.2-.1s-.1-.2-.1-.4 0-.3.1-.5c0-.1.1-.2.2-.3.2 0 .3-.1.5-.2zm.9-.5v1.4l-.2.1v-1.4l.2-.1zm0-.6l.1.2c0 .1 0 .1-.1.1l-.1.1h-.1v-.2c0-.1 0-.1.1-.1l.1-.1zm.7-.2v1.5.1h.1l.2-.1v.2s-.1 0-.1.1l-.1.1s-.1 0-.1.1c-.1.1-.2.1-.2 0-.1 0-.1-.1-.1-.2v-1.5l.3-.3zm.4.2v.2l-.8.5v-.2l.2-.2.6-.3zm1.4-.8l-.5 1.8c0 .1 0 .2-.1.2 0 .1-.1.2-.1.2 0 .1-.1.1-.2.2l-.2.2v-.2c.1-.1.2-.2.2-.3.1-.1.1-.2.1-.3l.1-.2v-.2-.1l.3-1.3h.4zm-1 .6l.3.9v.1.1h.1l-.1.2h-.1l-.5-1.1.3-.2zm2.4-2.3v.1c-.2.2-.3.4-.4.7s-.1.6-.1.9c0 .2 0 .4.1.6 0 .1.1.3.2.3.1.1.2.1.3.1v.1c-.2 0-.4 0-.5-.2s-.2-.4-.2-.8.1-.7.2-1c0-.3.2-.6.4-.8zm.9-.2c.1-.1.3-.1.3-.1.1 0 .1 0 .2.1 0 .1.1.2.1.4s0 .3-.1.4c0 .1-.1.2-.2.3s-.2.2-.3.2-.1.1-.2.1-.1.1-.2.1-.1 0-.1.1h-.1v-.2c.1-.1.2-.1.3-.2s.2-.1.3-.2.2-.1.2-.2c.1-.1.1-.1.1-.2v-.3-.2l-.1-.1c-.1 0-.1 0-.2.1s-.3.2-.4.2c-.1.1-.2.1-.2.1v-.2c.1 0 .1-.1.2-.1s.1-.1.2-.1c0 .1.1 0 .2 0zm-.4.2v2l-.2.1v-2l.2-.1zm1.8-.4c.2-.1.3-.1.4-.1s.1.1.1.3c0 .1 0 .2-.1.3 0 .1-.1.2-.2.2l-.7.4v-.2l.7-.4c.1 0 .1-.1.1-.1v-.2c0-.1 0-.1-.1-.2 0 0-.1 0-.2.1s-.2.1-.2.2c-.1.1-.1.1-.1.2v.3.3c0 .1.1.1.1.1.1 0 .1 0 .2-.1.1 0 .1-.1.2-.1.1-.1.2-.1.2-.2v.2l-.1.1c-.1 0-.1.1-.2.1s-.1.1-.2.1c-.1.1-.3.1-.3.1-.1 0-.2 0-.2-.1s-.1-.2-.1-.4 0-.3.1-.5c0-.1.1-.2.2-.3.1 0 .2-.1.4-.1zm1-.6v.3h0v1.1l-.2.1v-1.4l.2-.1zm.6-.4v.3h-.1c-.1 0-.1.1-.2.2l-.3.3v-.1c.1-.1.2-.3.3-.4l.3-.3h0zm1.4-1.4s.1 0 .2-.1c.1 0 .1-.1.2-.1v.2s-.1 0-.1.1c0 0-.1 0-.1.1 0 0-.1 0-.1.1-.1 0-.2.1-.2.2-.1.1-.1.1-.1.2s-.1.2-.1.3v.5.4.2l.1.1c.1 0 .1 0 .2-.1s.2-.1.2-.2.1-.1.1-.2v-.3-.3c0-.1 0-.1-.1-.1 0 0-.1 0-.2.1-.1 0-.1.1-.2.1 0 0-.1.1-.1.2s-.1.2-.2.3v-.1c.1-.1.1-.2.2-.3s.1-.2.2-.2l.2-.2c.1-.1.2-.1.3-.1s.1 0 .1.1v.4.3c0 .1 0 .2-.1.3 0 .1-.1.2-.2.2-.1.1-.2.1-.3.2s-.2.1-.3.1-.1 0-.2-.1c0-.1-.1-.1-.1-.3v-.5-.6c0-.2.1-.3.1-.4.1-.1.1-.2.2-.3.2 0 .3-.1.4-.2zm1.4-.8c.2-.1.3-.1.4-.1s.2.1.2.2.1.3.1.6c0 .2 0 .5-.1.6 0 .2-.1.3-.2.5-.1.1-.2.2-.4.3-.1.1-.3.1-.4.1s-.2-.1-.2-.2-.1-.3-.1-.6 0-.5.1-.6c0-.2.1-.3.2-.5.1-.1.2-.2.4-.3zm0 .2c-.1 0-.1.1-.2.2s-.1.1-.1.2-.1.2-.1.3v.4.4c0 .1 0 .2.1.2l.1.1s.1 0 .2-.1c.1 0 .1-.1.2-.1.1-.1.1-.1.1-.2s.1-.2.1-.3v-.4-.4c0-.1 0-.2-.1-.2l-.1-.1h-.2zm2.2-1.4c.1-.1.2-.1.3-.1s.2 0 .2.1c.1.1.1.1.1.3v.5.5c0 .1-.1.3-.1.4-.1.1-.1.2-.2.3s-.2.2-.3.2c-.1.1-.2.1-.3.2s-.2.1-.3.1l.1-.3c.1 0 .2-.1.2-.1.1 0 .2-.1.3-.2s.2-.1.3-.2.1-.2.1-.3v-.5-.5c0-.1-.1-.2-.1-.2-.1 0-.2 0-.3.1s-.2.1-.3.2c-.1 0-.2.1-.2.1l-.1-.2c.1-.1.2-.1.3-.2s.2-.2.3-.2zm-.4.2v2l-.2.1v-2l.2-.1zm2-.6c.1-.1.2-.1.2-.1.1 0 .1 0 .1.1v.2 1l-.2.1v-.3h0v-.7c0-.1 0-.1-.1-.2 0 0-.1 0-.2.1-.1 0-.1.1-.2.2s-.2.1-.3.2v-.2c.1 0 .1-.1.2-.1.1-.1.1-.1.2-.1.2-.1.3-.1.3-.2zm.3.4v.2l-.6.3c-.1 0-.1.1-.1.1v.2.1.1h.1s.1-.1.2-.1l.2-.2c.1-.1.1-.2.2-.3v.2s0 .1-.1.1c0 .1-.1.1-.1.2s-.1.1-.2.2-.1.1-.2.1-.1.1-.2.1-.1 0-.1-.1v-.2-.2c0-.1 0-.2.1-.3s.1-.2.3-.2l.5-.3zm1.6-1.4l-.5 1.8c0 .1 0 .2-.1.2 0 .1-.1.2-.1.2 0 .1-.1.1-.2.2l-.2.2v-.2c.1-.1.2-.2.2-.3.1-.1.1-.2.1-.3l.1-.2v-.2-.1l.3-1.3h.4zm-1 .5l.3.9v.1.1h.1l-.1.2h-.1l-.5-1.1.3-.2zm1.7-1c.1 0 .1-.1.2-.1s.1-.1.2-.1.1-.1.2-.1v.2c-.1 0-.2.1-.2.1-.1 0-.2.1-.2.1-.1 0-.1.1-.2.1l-.1.1v.1.1h.1l.4-.1h.2s.1.1.1.2 0 .2-.1.3c0 .1-.1.2-.2.2-.1.1-.2.1-.3.2 0 0-.1.1-.2.1s-.2.1-.3.1v-.2s.1 0 .1-.1l.1-.1c.1 0 .1-.1.2-.1.1-.1.2-.1.2-.1.1 0 .1-.1.1-.1v-.1c0-.1 0-.1-.1-.1h-.1l-.4.1h-.2s-.1 0-.1-.1v-.2c0-.1 0-.2.1-.3 0-.1.1-.1.2-.2.1.3.2.2.3.1zm.7-1.2c.2 0 .4 0 .5.2s.2.4.2.8-.1.7-.2 1-.3.6-.5.8v-.1c.1-.1.2-.3.3-.4.1-.2.1-.3.2-.5 0-.2.1-.4.1-.6 0-.3 0-.6-.1-.8s-.2-.3-.4-.3l-.1-.1z" class="b"/><g stroke="#eaeaea" stroke-width=".25" stroke-dasharray="1.48,1.48" class="c"><use href="#K"/><path d="M298.9 198.8l110.4-63.4m-110.4 56.9l110.4-63.4m-110.4 56.9l110.4-63.3m-110.4 56.9L409.3 116m-110.4 56.9l110.4-63.4m-110.4 57l110.4-63.3"/></g><linearGradient id="e" gradientUnits="userSpaceOnUse" x1="364.83" y1="172.91" x2="349.74" y2="146.64"><stop offset="0" stop-color="#fff"/><stop offset="1" stop-color="#b9d9ff"/></linearGradient><path d="M306.4 184.6l-7.5 10.6v15.5l117-67.2v-34.3l-2 3-4.1 1.6-5.2 3.1-4.2 1.2-3.8 6.3-1.7 2.9-6 6.3-3.7-.6-4.5 2-1.5 1.4-3.9 5-4.9 5.8-3.7 3.6-2.7.7-4.1-1.9-5 4.8-2.9 3.7-4.1 2.6-3.9-3.8-3.6-1.9c-1.4-.8-1.8-2.2-1.8-2.2l-11.2 11.4-1.2-.9-1.5.7-4.8 6-2.9 6.7-3.7 5.7-6.9 2.2z" fill="url(#e)"/><path d="M298.9 195.2l-.1-.1-.1.1v.1l.2-.1zm7.5-10.6v-.3h-.1l-.1.1.2.2zm7-2.1v.3h.1l.1-.1-.2-.2zm6.5-12.4l-.1-.2v.1.1h.1zm4.8-5.9v-.3h-.1l-.1.1.2.2zm2.7.1l-.2.3.1.1.1-.1v-.3zm11.2-11.4l.2-.2-.1-.1-.2.2.1.1zm1.8 2.2l.2-.2h0l-.2.2zm3.6 2l.2-.2h0 0l-.2.2zm3.9 3.8l-.2.2.1.1.1-.1v-.2zm4.1-2.6v.2h.1v-.1l-.1-.1zm2.9-3.7l-.1-.2h0 0l.1.2zm5-4.8l.1-.3h-.1l-.1.1.1.2zm4.1 1.8l-.1.3h0 0l.1-.3zm2.7-.7l-.1.3h.1l.1-.1-.1-.2zm3.7-3.6l.1.2h0 0l-.1-.2zm4.9-5.8l.1.2h0l-.1-.2zm3.9-5l-.1-.2h0 0l.1.2zm1.5-1.4v-.3h0 0v.3zm4.5-2l.1-.3h0 0l-.1.3zm3.7.6l-.1.3h.1l.1-.1-.1-.2zm6-6.3l.1.2h0 0l-.1-.2zm1.7-2.9l-.2-.1h0l.2.1zm3.8-6.3l.1-.3h-.1l-.1.1.1.2zm4.2-1.2l-.1.3h0 0l.1-.3zm5.2-3.1v-.3h0 0v.3zm4.1-1.6v.3h.1l.1-.1-.2-.2zm2.1-2.9l.2-.2-.3-.2-.2.2.1.1.2.1zm-89.8 54.1l.2-.3h-.1-.1v.3zm-9.2 13.4l.1.1h0 0l-.1-.1zm-18.3 34c0 .1.1.2.2.1s.2-.2.2-.4l-.2.1-.2.2zm.2-15.7l.1.1 7.5-10.6-.1-.1-.1-.1-7.5 10.6.1.1zm7.5-10.6v.3l7-2.1v-.3-.3l-7 2.1v.3zm13.5-14.5l.1.1 4.8-6-.1-.1-.1-.1-4.8 6 .1.1zm7.5-5.8l.1.2 11.2-11.4-.1-.2-.1-.2-11.2 11.4.1.2zm11.2-11.4l-.2.2h0s.1.1.1.2c.1.2.3.4.4.6l1.2 1.4.2-.2.2-.2c-.4-.4-.8-.9-1.2-1.4-.2-.2-.3-.4-.4-.6-.1-.1-.1-.1-.1-.2h0 0c0 0 0 0-.2.2zm1.8 2.2l-.2.2c.6.5 1.5 1 2.3 1.4a6.9 6.9 0 0 0 1 .4c.1 0 .2.1.3.1h.1 0 0 0l.1-.3.1-.3h0 0-.1c-.1 0-.2-.1-.3-.1-.2-.1-.6-.2-.9-.4-.7-.4-1.6-.8-2.2-1.4l-.2.4zm3.6 2l-.2.2 3.9 3.8.2-.2.2-.2-3.9-3.8-.2.2zm3.9 3.8v.2l4.1-2.6v-.2-.2l-4.1 2.6v.2zm4.1-2.6l.1.1 2.9-3.7-.1-.1-.1-.1-2.9 3.7.1.1zm2.9-3.7l.1.2 5-4.8-.1-.2-.1-.2-5 4.8.1.2zm5-4.8l-.1.3 4.1 1.9.1-.3.1-.3-4.1-1.9-.1.3zm4.1 1.8l-.1.3 2.7-.7.1-.3.1-.3-2.7.7-.1.3zm2.7-.7l.1.2 3.7-3.6-.1-.2-.1-.2-3.7 3.6.1.2zm3.7-3.6l.1.2 4.9-5.8-.1-.2-.1-.2-4.9 5.8.1.2zm4.9-5.8l.1.1 3.9-5-.1-.1-.1-.1-3.9 5 .1.1zm3.9-5l.1.2 1.5-1.4-.1-.2-.1-.2-1.5 1.4.1.2zm1.5-1.4v.3l4.5-2v-.3-.3l-4.5 2v.3zm4.5-2l-.1.3 3.7.6.1-.3.1-.3-3.7-.6-.1.3zm3.7.6l.1.2 6-6.3-.1-.2-.1-.2-6 6.3.1.2zm6-6.3l.1.1h0 0s0-.1.1-.1c.1-.1.2-.3.3-.6l1.3-2.2-.2-.1-.2-.1-1.2 2.2c-.1.2-.3.4-.3.6 0 .1-.1.1-.1.1h0 0c.1 0 .1 0 .2.1zm1.7-2.9l.2.1 2.4-4.1 1-1.6c.1-.2.2-.4.3-.5 0-.1.1-.1.1-.1h0l-.1-.1-.1-.1h0 0s0 .1-.1.1c-.1.1-.2.3-.3.5-.2.4-.6 1-1 1.6l-2.4 4.1v.1zm3.8-6.3l-.1.3 4.2-1.2.1-.3.1-.3-4.2 1.2-.1.3zm4.2-1.2v.2l5.2-3.1v-.2-.2l-5.2 3.1v.2zm5.2-3.1v.3l4.1-1.6v-.3-.3l-4.1 1.6v.3zm4.1-1.6l.1.1 2-3-.1-.1-.1-.1-2 3 .1.1zm-89.2 51.9v.3l1.5-.7v-.3-.3l-1.5.7v.3zm1.5-.7l-.2.3 1.2.9.2-.3.2-.3-1.2-.9-.2.3zm-12.8 19l.1.1 3.7-5.7-.1-.1-.1-.1-3.7 5.7.1.1zm3.6-5.6h.2l2.9-6.7h-.2-.2l-2.9 6.7h.2zm-18.1 18.3l-.2.1v15.5l.2-.1.2-.1v-15.5l-.2.1z" class="Y"/><g class="Z"><ellipse transform="matrix(.5041 -.8637 .8637 .5041 -7.5072 356.1841)" cx="306.4" cy="184.6" rx=".9" ry=".5"/><ellipse transform="matrix(.5041 -.8637 .8637 .5041 4.3235 361.3815)" cx="316.8" cy="176.9" rx=".9" ry=".5"/><ellipse transform="matrix(.5041 -.8637 .8637 .5041 20.6019 362.8007)" cx="326.2" cy="163.5" rx=".9" ry=".5"/><path d="M339.2 152.6c0 .4-.3.9-.6 1.1-.4.2-.6 0-.6-.4s.3-.9.6-1.1.6 0 .6.4z"/><ellipse transform="matrix(.5041 -.8637 .8637 .5041 38.5611 382.585)" cx="352.4" cy="157.7" rx=".9" ry=".5"/><ellipse transform="matrix(.5041 -.8637 .8637 .5041 52.0839 391.6973)" cx="367.1" cy="150.5" rx=".9" ry=".5"/><ellipse transform="matrix(.5041 -.8637 .8637 .5041 72.5825 396.0759)" cx="381.2" cy="134.8" rx=".9" ry=".5"/><ellipse transform="matrix(.5041 -.8637 .8637 .5041 86.9325 404.2768)" cx="395.5" cy="126.4" rx=".9" ry=".5"/><ellipse transform="matrix(.5041 -.8637 .8637 .5041 105.385 410.7961)" cx="410.4" cy="113.6" rx=".9" ry=".5"/></g><linearGradient id="f" gradientUnits="userSpaceOnUse" x1="359.9" y1="175.75" x2="354.68" y2="166.66"><stop offset="0" stop-color="#fffefd"/><stop offset="1" stop-color="#ffd6a4"/></linearGradient><path d="M306.9 195.7l-7.9 5.6v9.4l117-67.2v-11.4l-5.7 5.7-2.1 1-4.1 1.5-3.4.6-5.7 5.5-5 3.5-5.9 2.2-3.3 1.6-2.7 2.4-4.1 1.8-6 4.6-1.2.3-8 3.5-6.7 4.7-2.6 2.5-2.9.9-8 1.8-1.8.8-7.4 6.9-3.2.1-1 .4-8.1 5.9-2.3 1.9-7.9 3.5z" fill="url(#f)"/><path d="M298.9 201.3l7.9-5.6 7.9-3.5 2.3-1.9 8.1-5.9 1-.4 3.2-.1 7.4-6.9 1.8-.8 8-1.8 2.9-.9 2.6-2.5 6.7-4.7 8-3.5 1.2-.3 6-4.6 4.1-1.8 2.7-2.4 3.3-1.6 5.9-2.2 5-3.5 5.7-5.5 3.4-.6 4.1-1.5 2.1-1 5.7-5.7" stroke="#e17f06" stroke-width=".49" stroke-linecap="round" class="c"/><g fill="#e17f06"><ellipse transform="matrix(.5041 -.8637 .8637 .5041 -17.2234 361.7632)" cx="306.4" cy="195.9" rx=".9" ry=".5"/><ellipse transform="matrix(.5041 -.8637 .8637 .5041 -7.2953 368.0531)" cx="316.8" cy="190.4" rx=".9" ry=".5"/><ellipse transform="matrix(.5041 -.8637 .8637 .5041 2.8563 372.9904)" cx="326.2" cy="184" rx=".9" ry=".5"/><ellipse transform="matrix(.5041 -.8637 .8637 .5041 15.7421 379.7812)" cx="338.6" cy="176.2" rx=".9" ry=".5"/><ellipse transform="matrix(.5041 -.8637 .8637 .5041 27.3647 389.0141)" cx="352.4" cy="170.7" rx=".9" ry=".5"/><ellipse transform="matrix(.5041 -.8637 .8637 .5041 41.5249 397.7604)" cx="367.1" cy="162.7" rx=".9" ry=".5"/><ellipse transform="matrix(.5041 -.8637 .8637 .5041 56.5306 405.2931)" cx="381.2" cy="153.4" rx=".9" ry=".5"/><ellipse transform="matrix(.5041 -.8637 .8637 .5041 70.1041 413.9398)" cx="395.5" cy="145.9" rx=".9" ry=".5"/><ellipse transform="matrix(.5041 -.8637 .8637 .5041 84.722 422.661)" cx="410.4" cy="137.6" rx=".9" ry=".5"/></g><path d="M298.9,161v52.1l117-67.2" stroke="#c1c1c1" stroke-width=".49" class="c"/><path d="M330.3 132.7v4.1l-.8.4v-4.1l.8-.4zm1.4.8v.7l-1.4.8v-.7l1.4-.8zm.7-2v4.1l-.8.4v-4l.8-.5zm1.4.3v2.9l-.7.4v-2.9l.7-.4zm-.2-1.1c.2-.1.2 0 .2.1v.3c0 .2-.1.3-.2.4l-.3.2c-.2.1-.2 0-.2-.1v-.3c0-.2.1-.3.2-.4l.3-.2zm1.5.4l.1.5h.1v2.3l-.8.4v-2.9l.6-.3zm1.2-.8l-.1.8-.2.1c-.1.1-.2.2-.4.3l-.5.5-.1-.5.5-.7c.2-.2.4-.3.5-.4l.3-.1zm1.1-.5v2.9l-.7.4v-2.9l.7-.4zm-.2-1.2c.1-.1.2 0 .2.1v.3c0 .2-.1.3-.2.4l-.3.2c-.1.1-.2 0-.2-.1v-.3c0-.2.1-.3.2-.4l.3-.2zm2.6-.3c.5-.3.7-.1.7.4v2.2l-.8.4v-1.9c0-.1 0-.2-.1-.2h-.2l-.3.3c-.1.1-.3.3-.4.5v-.5c.2-.3.4-.5.6-.7a1.2 1.2 0 0 1 .5-.5zm-1.1.8l.1.5h.1v2.3l-.8.4v-2.9l.6-.3zm3.6-2.2c.3-.2.5-.3.7-.3s.3 0 .4.1.1.2.1.5c0 .2 0 .4-.1.6s-.2.3-.4.5-.4.3-.7.5-.5.3-.7.3-.3 0-.4-.1-.1-.2-.1-.5c0-.2 0-.4.1-.6s.2-.4.4-.5c.1-.2.4-.3.7-.5zm0 .5c-.2.1-.3.2-.4.3s-.1.2-.1.4c0 .1 0 .2.1.2s.2 0 .4-.1.3-.2.4-.3.1-.2.1-.4 0-.2-.1-.2-.3 0-.4.1zm1.4-1.3v.4l-.7.5-.2-.4.9-.5zm-2.2 2.9l.4-.1c0 .1-.1.1-.1.2v.2h.2l.9-.4c.3-.1.5-.1.6-.1.1.1.2.2.2.5s0 .5-.1.7-.2.4-.4.5c-.2.2-.5.3-.8.5s-.5.3-.7.3c-.2.1-.3.1-.4.1s-.2-.1-.2-.1c0-.1-.1-.2-.1-.4 0-.1 0-.2.1-.3 0-.1.1-.2.2-.4.1-.1.2-.3.4-.4l.4-.4h.3l-.2.3c-.1.1-.2.2-.2.3-.1.1-.1.1-.1.2v.2c0 .1 0 .1.1.2h.2c.1 0 .2-.1.4-.2s.3-.2.4-.2c.1-.1.2-.1.2-.2s.1-.1.1-.2v-.1h-.1c-.1 0-.1 0-.3.1l-.8.4c-.1.1-.2.1-.3.1s-.1-.1-.2-.2v-.3c0-.1 0-.2.1-.3-.3-.3-.3-.4-.2-.5zm6.5-6.5l-1 4.4c0 .1-.1.2-.1.2 0 .1-.1.1-.2.2l-.7.4h-.2l-.1-.1-1-3.3.8-.5.6 2.6v.2.2l.1-.1v-.3c0-.1 0-.2.1-.3l.6-3.3 1.1-.3zm1.4.3a2.3 2.3 0 0 1 .9-.3c.2.1.3.3.3.6s-.1.5-.2.7a1.7 1.7 0 0 1-.6.6l-1.4.8v-.5l1.2-.7c.1-.1.2-.1.2-.2s.1-.2.1-.3 0-.2-.1-.2-.2 0-.3.1l-.3.3c-.1.1-.1.2-.2.3v.6c0 .2 0 .4.1.5 0 .1.1.2.2.2s.2 0 .4-.1c.1-.1.3-.2.4-.3.2-.1.3-.2.5-.4l.1.5-.3.3c-.1.1-.3.2-.4.3s-.3.2-.4.2c-.3.2-.6.3-.8.3s-.3-.1-.4-.3-.1-.4-.1-.8 0-.7.1-1 .2-.5.4-.7c0-.1.3-.3.6-.5zm2.4-2.5v3.2c0 .1 0 .2.1.2s.1 0 .2-.1l.2-.1.1.5-.2.2c-.1.1-.2.1-.2.2-.1.1-.1.1-.2.1-.2.1-.4.2-.5.1s-.2-.2-.2-.5v-3.4l.7-.4zm2.2-.1c.3-.2.6-.3.8-.3s.3.1.4.2c.1.2.1.5.1.8 0 .4 0 .7-.1 1s-.2.5-.4.7-.4.4-.8.6c-.3.2-.6.3-.8.3s-.3-.1-.4-.2c-.1-.2-.1-.4-.1-.8s0-.7.1-1 .2-.5.4-.7.4-.4.8-.6zm0 .6l-.3.3c-.1.1-.1.2-.2.4v.6.5c0 .1.1.2.2.2s.2 0 .3-.1.2-.2.3-.2c.1-.1.1-.2.2-.4v-.6-.5c0-.1-.1-.2-.2-.2-.1-.1-.2 0-.3 0zm2.9-2.3c.1-.1.2-.1.3-.2s.2-.1.3-.1.2-.1.3-.1l-.1.6c-.1.1-.3.1-.4.2s-.2.1-.3.2c-.2.1-.3.2-.4.3s-.2.2-.2.4c0 .1-.1.3-.1.5s0 .4.1.5c0 .1.1.1.2.1s.2 0 .4-.1c.1 0 .1-.1.2-.1.1-.1.2-.1.3-.2s.2-.1.3-.2l.1.5c-.1.2-.3.3-.5.4s-.3.2-.5.3c-.3.2-.6.3-.7.3-.2 0-.3-.1-.4-.3s-.1-.5-.1-.8 0-.7.1-1 .2-.5.4-.7.4-.3.7-.5zm2.2-1.2v2.9l-.7.4v-2.9l.7-.4zm-.2-1.2c.1-.1.2 0 .2.1v.3c0 .2-.1.3-.2.4l-.3.2c-.1.1-.2 0-.2-.1v-.3c0-.2.1-.3.2-.4l.3-.2zm1.9-.6v2.8c0 .1 0 .2.1.2 0 0 .1 0 .2-.1l.3-.2.1.5-.2.2c-.1.1-.2.1-.3.2s-.2.1-.2.1c-.2.1-.4.2-.5.1s-.2-.2-.2-.5v-3l.7-.3zm.7.4v.6l-1.9 1.1v-.5l.5-.3 1.4-.9zm2.9-1.6l-.9 3.5c0 .2-.1.3-.2.5l-.3.6c-.1.2-.2.3-.4.5-.2.1-.3.3-.5.4l-.1-.5.5-.5.3-.6.2-.5c0-.1.1-.2.1-.4 0-.1.1-.3.1-.4l.5-2.2.7-.4zm-2 1.1l.5 1.6v.2.2l.1-.1-.2.7-.2.1h-.2s-.1 0-.1-.1l-.8-2.2.9-.4zm4.9-3.9v4.1l-.8.4v-4.1l.8-.4zm1.1-.7v.7l-2.9 1.7v-.7l2.9-1.7zm.6.9l.1.5h.1v2.3l-.8.4V112l.6-.3zm1.2-.8l-.1.8-.2.1c-.1.1-.2.2-.4.3l-.5.5-.1-.5.5-.7c.2-.2.4-.3.5-.4l.3-.1zm1.5-.9a2.3 2.3 0 0 1 .9-.3c.2.1.3.3.3.6s-.1.5-.2.7a1.7 1.7 0 0 1-.6.6l-1.4.8v-.5l1.2-.7c.1-.1.2-.1.2-.2s.1-.2.1-.3 0-.2-.1-.2-.2 0-.3.1l-.3.3c-.1.1-.1.2-.2.3v.6c0 .2 0 .4.1.5 0 .1.1.2.2.2s.2 0 .4-.1c.1-.1.3-.2.4-.3.2-.1.3-.2.5-.4l.1.5-.3.3c-.1.1-.3.2-.4.3s-.3.2-.4.2c-.3.2-.6.3-.8.3s-.3-.1-.4-.3-.1-.4-.1-.8 0-.7.1-1 .2-.5.4-.7c0-.1.3-.3.6-.5zm3.5-2c.5-.3.7-.1.7.4v2.2l-.8.4v-1.9c0-.1 0-.2-.1-.2h-.2l-.3.3c-.1.1-.3.3-.4.5v-.5c.2-.3.4-.5.6-.7a1.2 1.2 0 0 1 .5-.5zm-1.2.8l.1.5h.1v2.3l-.8.4v-2.9l.6-.3zm3.3-2c.2-.1.4-.2.5-.2h.4l-.1.4c-.1 0-.2.1-.3.1s-.2.1-.3.1c-.1.1-.2.1-.3.2s-.1.2-.1.3v.6.5c0 .1.1.2.1.2.1 0 .1 0 .2-.1s.2-.1.2-.2l.2-.2c.1-.1.1-.2.2-.3l.1.4c-.1.2-.2.4-.4.6s-.4.4-.6.5c-.3.2-.6.2-.7 0s-.2-.5-.2-1c0-.4 0-.7.1-1s.2-.5.3-.6c.3-.1.5-.2.7-.3zm1.6-2.1v4.1l-.6.3-.1-.5h-.1v-1.9-.1-.3-.4-.8l.8-.4zm1.6.3c.1-.1.3-.1.4-.2s.3-.1.4-.2.3-.1.4-.2l-.1.6c-.2.1-.3.2-.5.3s-.3.2-.5.3c-.1.1-.2.1-.3.2-.1 0-.1.1-.2.1v.2c0 .1 0 .1.1.1s.1 0 .3-.1l.7-.2c.2-.1.4-.1.5 0s.2.2.2.5c0 .2 0 .5-.1.6-.1.2-.2.3-.4.5-.2.1-.4.3-.7.4-.1.1-.3.1-.5.3-.2.1-.4.2-.7.3v-.6c.1 0 .1-.1.2-.1.1-.1.2-.1.3-.2s.2-.1.3-.2c.2-.1.3-.2.4-.2.1-.1.2-.1.2-.2s.1-.1.1-.2 0-.1-.1-.1-.1 0-.3.1l-.6.2c-.2 0-.3.1-.4 0-.1 0-.2-.1-.2-.2s-.1-.2-.1-.4 0-.4.1-.5c.1-.2.2-.3.3-.5.3-.1.5-.3.8-.4z" class="b"/><defs><path id="g" d="M304.7 207.6l3.4-1.9v3.9l-3.4 2z"/></defs><clipPath id="h"><use href="#g"/></clipPath><g clip-path="url(#h)" class="Y"><use href="#L"/></g><defs><path id="i" d="M315.2 201.6l3.4-1.9v3.9l-3.4 2z"/></defs><clipPath id="j"><use href="#i"/></clipPath><g clip-path="url(#j)" class="Y"><path d="M315.8 203.7l1.1-1.8 1.1.6-2.2 1.2z"/></g><defs><path id="k" d="M324.5 196.2l3.5-1.9v3.9l-3.5 2z"/></defs><clipPath id="l"><use href="#k"/></clipPath><g clip-path="url(#l)" class="Y"><path d="M325.2 198.3l1.1-1.8 1.1.6-2.2 1.2z"/></g><defs><path id="m" d="M336.9 189.1l3.4-1.9v3.9l-3.4 2z"/></defs><clipPath id="n"><use href="#m"/></clipPath><g clip-path="url(#n)" class="Y"><path d="M337.6 191.2l1.1-1.8 1.1.6-2.2 1.2z"/></g><defs><path id="o" d="M350.8 181.2l3.4-2v3.9l-3.4 2z"/></defs><clipPath id="p"><use href="#o"/></clipPath><g clip-path="url(#p)" class="Y"><path d="M351.4 183.3l1.1-1.8 1.1.6-2.2 1.2z"/></g><defs><path id="q" d="M365.5 172.7l3.4-2v4l-3.4 1.9z"/></defs><clipPath id="r"><use href="#q"/></clipPath><g clip-path="url(#r)" class="Y"><path d="M366.1 174.8l1.1-1.8 1.1.6-2.2 1.2z"/></g><defs><path id="s" d="M379.6 164.6l3.4-1.9v3.9l-3.4 2z"/></defs><clipPath id="t"><use href="#s"/></clipPath><g clip-path="url(#t)" class="Y"><path d="M380.2 166.7l1.1-1.8 1.1.6-2.2 1.2z"/></g><defs><path id="u" d="M393.9 156.4l3.4-2v4l-3.4 1.9z"/></defs><clipPath id="v"><use href="#u"/></clipPath><g clip-path="url(#v)" class="Y"><path d="M394.5 158.5l1.1-1.8 1.1.6-2.2 1.2z"/></g><defs><path id="w" d="M408.8 147.8l3.4-1.9v3.9l-3.4 2z"/></defs><clipPath id="x"><use href="#w"/></clipPath><g clip-path="url(#x)" class="Y"><path d="M409.5 149.9l1.1-1.8 1.1.6-2.2 1.2z"/></g><path d="M185.5 367.8l3.3-1.9c.2-.1.4 0 .4.2v3.8c0 .3-.2.6-.4.7l-3.3 1.9c-.2.1-.4 0-.4-.2v-3.8c0-.3.1-.6.4-.7z" class="Z"/><g class="b"><path d="M208.7 356.3c.1 0 .1-.1.2-.1s.1-.1.2-.1.1-.1.2-.1v.2c-.1 0-.2.1-.2.1-.1 0-.1.1-.2.1s-.1.1-.2.1l-.1.1v.1.1h.1l.3-.1h.2s.1.1.1.2 0 .2-.1.3c0 .1-.1.1-.2.2s-.2.1-.3.2c0 0-.1.1-.2.1s-.2.1-.3.1v-.2s.1 0 .1-.1c0 0 .1 0 .1-.1.1 0 .1-.1.2-.1s.2-.1.2-.1c.1 0 .1-.1.1-.1v-.1c0-.1 0-.1-.1-.1h-.1l-.3.1h-.2s-.1 0-.1-.1v-.2-.3c0-.1.1-.1.2-.2.2.2.3.2.4.1z"/><path d="M207.6 357c.2-.1.3-.1.3.2v1l-.2.1v-1-.2h-.1c-.1 0-.1.1-.2.2l-.3.3v-.2c.1-.1.2-.3.3-.4 0 .1.1 0 .2 0zm-.5.3v.3h0v1.1l-.2.1v-1.4l.2-.1zm-1.1.6c.1-.1.3-.1.3-.1.1 0 .1 0 .2.1 0 .1.1.2.1.4s0 .3-.1.5c0 .1-.1.2-.2.3l-.3.3c-.1.1-.2.1-.3.1s-.1 0-.2-.1c0-.1-.1-.2-.1-.4s0-.3.1-.5c0-.1.1-.2.2-.3 0-.2.2-.2.3-.3zm0 .2c-.1 0-.1.1-.2.2 0 .1-.1.1-.1.2v.3.3c0 .1.1.1.1.1s.1 0 .2-.1c.1 0 .1-.1.2-.2 0-.1.1-.1.1-.2v-.3-.3c0-.1-.1-.1-.1-.1-.1 0-.1.1-.2.1zm-.9.3v1.4l-.2.1v-1.4l.2-.1zm-.1-.5c.1-.1.1 0 0 0l.1.2c0 .1 0 .1-.1.1l-.1.1h-.1v-.2c0-.1 0-.1.1-.1l.1-.1z"/><use href="#M"/><path d="M203.5 359.3v1.4l-.2.1v-1.4l.2-.1zm0-.5c0-.1.1 0 0 0l.1.2c0 .1 0 .1-.1.1l-.1.1h-.1v-.2c0-.1 0-.1.1-.1l.1-.1zm-1 1.1c.1 0 .1-.1.2-.1s.1-.1.2-.1.1-.1.2-.1v.2c-.1 0-.2.1-.2.1-.1 0-.1.1-.2.1s-.1.1-.2.1-.1.1-.1.1v.1.1h.1l.3-.1h.2s.1.1.1.2 0 .2-.1.3c0 .1-.1.1-.2.2s-.2.1-.3.2c0 0-.1.1-.2.1s-.2.1-.3.1v-.2s.1 0 .1-.1c0 0 .1 0 .1-.1.1 0 .1-.1.2-.1.1-.1.2-.1.2-.1.1 0 .1-.1.1-.1v-.1c0-.1 0-.1-.1-.1h-.1l-.3.1h-.2s-.1 0-.1-.1v-.2-.3c0-.1.1-.1.2-.2.2.2.2.2.4.1z"/><path d="M201.2 360.7c.1-.1.3-.1.3-.1.1 0 .1 0 .2.1 0 .1.1.2.1.4s0 .3-.1.5c0 .1-.1.2-.2.3l-.3.3c-.1.1-.2.1-.3.1s-.1 0-.2-.1c0-.1-.1-.2-.1-.4s0-.3.1-.5c0-.1.1-.2.2-.3 0-.2.1-.3.3-.3zm0 .2c-.1 0-.1.1-.2.2 0 .1-.1.1-.1.2v.3.3c0 .1.1.1.1.1s.1 0 .2-.1c.1 0 .1-.1.2-.2 0-.1.1-.1.1-.2v-.3-.3c0-.1-.1-.1-.1-.1-.1 0-.2 0-.2.1zm-1.4 0c.1-.1.2-.1.3-.1s.1 0 .2.1c0 .1.1.2.1.3 0 .2 0 .3-.1.4 0 .1-.1.2-.2.3s-.2.2-.3.2-.1.1-.2.1-.1.1-.2.1-.1 0-.1.1h-.1v-.2c.1 0 .2-.1.3-.2s.2-.1.3-.2c.1 0 .1-.1.2-.1 0 0 .1-.1.1-.2v-.2-.2l-.1-.1s-.1 0-.2.1-.3.1-.4.2-.2.1-.2.1v-.2c.1 0 .1-.1.2-.1s.1-.1.2-.1.1-.1.2-.1zm-.3.2v1.9l-.2.1v-1.9l.2-.1z"/><use href="#N"/><use href="#O"/><path d="M195.7 363.9v1.4l-.2.1V364l.2-.1zm-.1-.6h0l.1.2c0 .1 0 .1-.1.1l-.1.1h-.1v-.2c0-.1 0-.1.1-.1l.1-.1zm-.8.6v1.4.1h.1l.2-.1v.2l-.1.1s-.1 0-.1.1c0 0-.1 0-.1.1-.1.1-.2.1-.2 0-.1 0-.1-.1-.1-.2v-1.4l.3-.3zm.4.2v.2l-.8.5v-.2l.2-.1.6-.4zm-1.4.8s.1 0 .1-.1c0 0 .1 0 .1-.1h.1v.2c-.1 0-.1.1-.2.1s-.1.1-.2.1c-.1.1-.2.1-.2.2-.1.1-.1.1-.1.2v.3.3c0 .1.1.1.1.1.1 0 .1 0 .2-.1 0 0 .1 0 .1-.1l.1-.1.1-.1v.2l-.2.2c-.1.1-.1.1-.2.1-.1.1-.3.1-.3.1-.1 0-.1 0-.2-.1 0-.1-.1-.2-.1-.4s0-.3.1-.5c0-.1.1-.2.2-.3.2 0 .4-.1.5-.2z"/><path d="M192.5 365.1l.6 1.6-.3.1-.4-1.3v-.1-.1h-.1v.1.1l-.4 1.8-.3.1.5-2.2v-.1l.1-.1.3.1zm.3 1v.2l-.9.5v-.2l.9-.5z"/></g><path d="M215.8 350.4l3.3-1.9c.2-.1.4 0 .4.2v3.8c0 .3-.2.6-.4.7l-3.3 1.9c-.2.1-.4 0-.4-.2v-3.8c0-.3.2-.6.4-.7z" class="Y"/><g class="b"><path d="M240.2 338.3c.1 0 .1-.1.2-.1s.1-.1.2-.1.1-.1.2-.1v.2c-.1 0-.2.1-.2.1-.1 0-.1.1-.2.1s-.1.1-.2.1l-.1.1v.1.1h.1l.3-.1h.2s.1.1.1.2 0 .2-.1.3c0 .1-.1.1-.2.2s-.2.1-.3.2c0 0-.1.1-.2.1s-.2.1-.3.1v-.2s.1 0 .1-.1c0 0 .1 0 .1-.1.1 0 .1-.1.2-.1.1-.1.2-.1.2-.1.1 0 .1-.1.1-.1v-.1c0-.1 0-.1-.1-.1h-.1l-.3.1h-.2s-.1 0-.1-.1v-.2-.3c0-.1.1-.1.2-.2.2.2.2.1.4.1z"/><path d="M238.9 339c.2-.1.3-.1.4-.1s.1.1.1.3c0 .1 0 .2-.1.3 0 .1-.1.2-.2.2l-.7.4v-.2l.6-.4c.1 0 .1-.1.1-.1v-.1c0-.1 0-.1-.1-.1 0 0-.1 0-.2.1-.1 0-.1.1-.2.2 0 .1-.1.1-.1.2v.3.3c0 .1.1.1.1.1.1 0 .1 0 .2-.1.1 0 .1-.1.2-.1.1-.1.1-.1.2-.1v.2l-.1.1c-.1 0-.1.1-.2.1s-.1.1-.2.1c-.1.1-.3.1-.3.1-.1 0-.1 0-.2-.1 0-.1-.1-.2-.1-.4s0-.3.1-.5c0-.1.1-.2.2-.3.3-.3.4-.4.5-.4z"/><path d="M237.9 339v1.6.1h.1l.1-.1v.2l-.1.1s-.1 0-.1.1h-.1c-.1.1-.2.1-.2 0-.1 0-.1-.1-.1-.2v-1.6l.4-.2zm-1.4 1.4v1 .2h.1c.1 0 .1-.1.2-.2s.1-.2.2-.3v.2c-.1.1-.2.3-.3.3-.1.1-.2.2-.3.2-.2.1-.3.1-.3-.2v-1l.4-.2zm.8-.5v1.4l-.2.1v-.2h0v-1.1l.2-.2zm-2 1.2c.1 0 .2-.1.2-.1h.2v.2h-.2c-.1 0-.1 0-.2.1-.1 0-.1.1-.2.1 0 0-.1.1-.1.2v.3.3c0 .1 0 .1.1.1h.1l.1-.1.1-.1c0-.1.1-.1.1-.2v.2c-.1.1-.1.2-.2.3s-.2.2-.3.2c-.1.1-.3.1-.3 0-.1-.1-.1-.2-.1-.5v-.5c0-.1.1-.2.2-.3.3-.1.4-.2.5-.2zm.6-1v2l-.2.1v-.2h0v-.9-.1-.1-.2-.4l.2-.2z"/><path d="M234.1 341.8c.2-.1.3-.1.4-.1s.1.1.1.3c0 .1 0 .2-.1.3 0 .1-.1.2-.2.2l-.7.4v-.2l.6-.4c.1 0 .1-.1.1-.1v-.1c0-.1 0-.1-.1-.1 0 0-.1 0-.2.1-.1 0-.1.1-.2.2 0 .1-.1.1-.1.2v.3.3c0 .1.1.1.1.1.1 0 .1 0 .2-.1.1 0 .1-.1.2-.1.1-.1.1-.1.2-.1v.2l-.1.1c-.1 0-.1.1-.2.1s-.1.1-.2.1c-.1.1-.3.1-.3.1-.1 0-.1 0-.2-.1 0-.1-.1-.2-.1-.4s0-.3.1-.5c0-.1.1-.2.2-.3.2-.3.3-.3.5-.4z"/><path d="M232.9 342.5c.2-.1.3-.1.3.2v1l-.2.1v-1-.2h-.1c-.1 0-.1.1-.2.2l-.3.3v-.2c.1-.1.2-.3.3-.4 0 .1.1 0 .2 0zm-.5-.3v.5.2.2h0v1.1l-.2.1v-2l.2-.1z"/><use href="#P"/><path d="M230 343.5c.1 0 .2-.1.3-.1s.2-.1.3-.1v.2c-.1 0-.1.1-.2.1s-.2.1-.3.1-.1.1-.1.1l-.1.1s0 .1-.1.1v.2.2h.2l.3-.1h.3c0 .1.1.2.1.3v.3c0 .1-.1.2-.1.2 0 .1-.1.1-.2.2s-.2.1-.3.2c-.1 0-.1.1-.2.1s-.2.1-.3.1v-.2c.1-.1.2-.1.2-.1.1 0 .1-.1.2-.1 0 0 .1 0 .1-.1.1 0 .1-.1.2-.1l.1-.1v-.2-.2h-.1-.1l-.3.1h-.3c-.1-.1-.1-.2-.1-.3v-.3c0-.1.1-.2.1-.2 0-.1.1-.1.2-.2l.2-.2zm-1.8 1.7c.2-.1.3-.1.4-.1s.1.1.1.3c0 .1 0 .2-.1.3 0 .1-.1.2-.2.2l-.7.4v-.2l.6-.4c.1 0 .1-.1.1-.1v-.1c0-.1 0-.1-.1-.1 0 0-.1 0-.2.1-.1 0-.1.1-.2.2 0 .1-.1.1-.1.2v.3.3c0 .1.1.1.1.1.1 0 .1 0 .2-.1.1 0 .1-.1.2-.1.1-.1.2-.1.2-.1v.2l-.1.1c-.1 0-.1.1-.2.1s-.1.1-.2.1c-.1.1-.3.1-.3.1-.1 0-.1 0-.2-.1 0-.1-.1-.2-.1-.4s0-.3.1-.5.1-.2.2-.3c.2-.3.3-.4.5-.4zm-.7.4l-.4 1.6v.1l-.2.1h-.1l-.4-1.1.3-.1.3.8v.1.1h0v-.1-.1l.3-1.1.2-.3zm-1.5.8v1.4l-.2.1v-1.4l.2-.1zm-.1-.5h0l.1.2c0 .1 0 .1-.1.1l-.1.1h-.1v-.2c0-.1 0-.1.1-.1l.1-.1zm-.8.6v1.4.1h.1l.2-.1v.2l-.1.1s-.1 0-.1.1c0 0-.1 0-.1.1-.1.1-.2.1-.2 0-.1 0-.1-.1-.1-.2v-1.4l.3-.3zm.4.2v.2l-.8.5v-.2l.2-.1.6-.4zm-1.4.8s.1 0 .1-.1c0 0 .1 0 .1-.1h.1v.2c-.1 0-.1.1-.2.1s-.1.1-.2.1c-.1.1-.2.1-.2.2-.1.1-.1.1-.1.2v.3.3c0 .1.1.1.1.1.1 0 .1 0 .2-.1 0 0 .1 0 .1-.1l.1-.1.1-.1v.2l-.2.2c-.1.1-.1.1-.2.1-.1.1-.3.1-.3.1-.1 0-.1 0-.2-.1 0-.1-.1-.2-.1-.4s0-.3.1-.5c0-.1.1-.2.2-.3.3 0 .4-.1.5-.2z"/><path d="M222.8 347.7h0l.6 1.6-.3.1-.4-1.3v-.1-.1h-.1v.1.1l-.4 1.8-.3.1.5-2.2v-.1l.1-.1.3.1zm.3 1v.2l-.9.5v-.2l.9-.5z"/></g><path d="M247.2 332.3l3.3-1.9c.2-.1.4 0 .4.2v3.8c0 .3-.2.6-.4.7l-3.3 1.9c-.2.1-.4 0-.4-.2V333c0-.3.2-.6.4-.7z" class="a"/><g class="b"><path d="M267.1 322.8c.1 0 .1-.1.2-.1s.1-.1.2-.1.1-.1.2-.1v.2c-.1 0-.2.1-.2.1-.1 0-.1.1-.2.1s-.1.1-.2.1l-.1.1v.1.1h.1l.3-.1h.2s.1.1.1.2 0 .2-.1.3c0 .1-.1.1-.2.2s-.2.1-.3.2c0 0-.1.1-.2.1s-.2.1-.3.1v-.2s.1 0 .1-.1c0 0 .1 0 .1-.1.1 0 .1-.1.2-.1.1-.1.2-.1.2-.1.1 0 .1-.1.1-.1v-.1c0-.1 0-.1-.1-.1h-.1l-.3.1h-.2s-.1 0-.1-.1v-.2-.3c0-.1.1-.1.2-.2.2.3.3.2.4.1z"/><path d="M265.9 323.6v.2h0v1.1l-.2.1v-1.4h.2zm.5-.4v.3h-.1c-.1 0-.1.1-.2.2l-.3.3v-.2l.3-.3.3-.3h0z"/><path d="M264.9 324.1c.2-.1.3-.1.4-.1s.1.1.1.3c0 .1 0 .2-.1.3 0 .1-.1.2-.2.2l-.7.4v-.2l.6-.4c.1 0 .1-.1.1-.1v-.1c0-.1 0-.1-.1-.1 0 0-.1 0-.2.1-.1 0-.1.1-.2.2 0 .1-.1.1-.1.2v.3.3c0 .1.1.1.1.1.1 0 .1 0 .2-.1.1 0 .1-.1.2-.1.1-.1.1-.1.2-.1v.2l-.1.1c-.1 0-.1.1-.2.1s-.1.1-.2.1c-.1.1-.3.1-.3.1-.1 0-.1 0-.2-.1 0-.1-.1-.2-.1-.4s0-.3.1-.5.1-.2.2-.3c.2-.2.3-.3.5-.4z"/><path d="M263.1 324.6s0-.1 0 0c.1-.1.2-.1.2-.1h.1v.2l-.2.1c-.1 0-.1.1-.2.1v.2 1.5l-.2.1v-1.6-.2c0-.1.1-.1.1-.2 0 0 .1-.1.2-.1zm.8-.5s.1 0 .1-.1c0 0 .1 0 .1-.1 0 0 .1 0 .1-.1v.2l-.2.1c-.1 0-.1.1-.2.1v.2 1.6l-.2.1v-1.6-.2c0-.1.1-.1.1-.2 0 .1.1 0 .2 0zm.2.5v.2l-1.6.9v-.2l.2-.1 1.4-.8zm-2.5.8c.1-.1.2-.1.3-.1h.2c.1 0 .1.1.1.2v.5.5c0 .1-.1.3-.1.4-.1.1-.1.2-.2.3s-.2.2-.3.2c-.1.1-.2.1-.3.1h-.2c-.1 0-.1-.1-.1-.2v-.5-.5c0-.1.1-.3.1-.4.1-.1.1-.2.2-.3.1 0 .2-.1.3-.2zm0 .3c-.1.1-.2.1-.3.2s-.1.2-.1.3v.5.4c0 .1.1.1.1.2.1 0 .1 0 .3-.1.1-.1.2-.1.2-.2.1-.1.1-.2.1-.3v-.5-.4c0-.1-.1-.1-.1-.2 0 0-.1 0-.2.1zm-2 1.4c.2-.1.3-.1.4-.1s.1.1.1.3c0 .1 0 .2-.1.3 0 .1-.1.2-.2.2l-.7.4v-.2l.6-.4c.1 0 .1-.1.1-.1v-.1c0-.1 0-.1-.1-.1 0 0-.1 0-.2.1-.1 0-.1.1-.2.2 0 .1-.1.1-.1.2v.3.3c0 .1.1.1.1.1.1 0 .1 0 .2-.1.1 0 .1-.1.2-.1.1-.1.1-.1.2-.1v.2l-.1.1c-.1 0-.1.1-.2.1s-.1.1-.2.1c-.1.1-.3.1-.3.1-.1 0-.1 0-.2-.1 0-.1-.1-.2-.1-.4s0-.3.1-.5c0-.1.1-.2.2-.3.3-.2.4-.3.5-.4zm-.7.5l-.4 1.6v.1l-.2.1h-.1l-.4-1.1.3-.1.3.8v.1.1h0v-.1-.1l.3-1.1.2-.3zm-1.5.8v1.4l-.2.1v-1.4l.2-.1zm0-.5c0-.1 0-.1 0 0l.1.2c0 .1 0 .1-.1.1l-.1.1h-.1v-.3c0-.1 0-.1.1-.1h.1zm-.8.6v1.4.1h.1l.2-.1v.2l-.1.1s-.1 0-.1.1c0 0-.1 0-.1.1-.1.1-.2.1-.2 0-.1 0-.1-.1-.1-.2v-1.4l.3-.3zm.3.2v.2l-.8.5v-.2l.2-.1.6-.4z"/><path d="M255.6 329.5s.1 0 .1-.1c0 0 .1 0 .1-.1h.1v.2c-.1 0-.1.1-.2.1s-.1.1-.2.1c-.1.1-.2.1-.2.2-.1.1-.1.1-.1.2v.3.3c0 .1.1.1.1.1.1 0 .1 0 .2-.1 0 0 .1 0 .1-.1l.1-.1.1-.1v.2l-.2.2c-.1.1-.1.1-.2.1-.1.1-.3.1-.3.1-.1 0-.1 0-.2-.1 0-.1-.1-.2-.1-.4s0-.3.1-.5c0-.1.1-.2.2-.3.2-.1.3-.2.5-.2z"/><path d="M254.2 329.7h0l.6 1.6-.3.1-.4-1.3v-.1-.1h-.1v.1.1l-.4 1.8-.3.1.5-2.2v-.1l.1-.1.3.1zm.3.9v.2l-.9.5v-.2l.9-.5z"/></g><defs><path id="y" d="M189.5 359.1v-1.9c0-.3.2-.6.4-.7l93.4-53.6c.2-.1.4 0 .4.2v1.9c0 .3-.2.6-.4.7l-93.4 53.6c-.2.2-.4.1-.4-.2z"/></defs><clipPath id="z"><use href="#y"/></clipPath><g clip-path="url(#z)"><path d="M189.5 359.1v-1.9c0-.3.2-.6.4-.7l93.4-53.6c.2-.1.4 0 .4.2v1.9c0 .3-.2.6-.4.7l-93.4 53.6c-.2.2-.4.1-.4-.2z" fill="#f4f4f4"/><path d="M194 357v-2.8l40.8-23.4v2.8z" class="d"/><defs><path id="AA" d="M283.9 305.4l-2.5 1.4V304l2.5-1.4z"/></defs><clipPath id="AB"><use href="#AA"/></clipPath><g clip-path="url(#AB)"><path d="M283.9 305.4l-2.5 1.4V304l2.5-1.4z" class="d"/><defs><path id="AC" d="M281.6 304.1v2.4l2.1-1.2V303z"/></defs><clipPath id="AD"><use href="#AC"/></clipPath><g clip-path="url(#AD)" class="e"><path d="M282.3 304.2h0l.6.3v.1.1l-.6 1h0-.1v-1.3c0-.2.1-.2.1-.2s0-.1 0 0z"/></g></g><defs><path id="AE" d="M189.5 359.6l2.5-1.4v-2.8l-2.5 1.4z"/></defs><clipPath id="AF"><use href="#AE"/></clipPath><g clip-path="url(#AF)"><path d="M189.5 359.6l2.5-1.4v-2.8l-2.5 1.4z" class="d"/><defs><path id="AG" d="M191.8 355.7v2.4l-2.1 1.1v-2.3z"/></defs><clipPath id="AH"><use href="#AG"/></clipPath><g clip-path="url(#AH)" class="e"><path d="M191 356.6h0l-.6 1v.1.1l.6.3h0l.1-.1-.1-1.4c.1 0 .1-.1 0 0h0z"/></g></g></g><defs><path id="AI" d="M286.2 169.5l1.6-.9c.2-.1.4 0 .4.2v123.8c0 .3-.2.6-.4.7l-1.6.9c-.2.1-.4 0-.4-.2V170.2c0-.2.1-.6.4-.7z"/></defs><clipPath id="AJ"><use href="#AI"/></clipPath><g clip-path="url(#AJ)"><path d="M286.2 169.5l1.6-.9c.2-.1.4 0 .4.2v123.8c0 .3-.2.6-.4.7l-1.6.9c-.2.1-.4 0-.4-.2V170.2c0-.2.1-.6.4-.7z" fill="#f4f4f4"/><path d="M285.8 174.9l2.4-1.4v47l-2.4 1.4z" class="d"/><defs><path id="AK" d="M285.8 295.2v-2.8l2.4-1.4v2.8z"/></defs><clipPath id="AL"><use href="#AK"/></clipPath><g clip-path="url(#AL)"><path d="M285.8 295.2v-2.8l2.4-1.4v2.8z" class="d"/><defs><path id="AM" d="M288 291.3l-2 1.2v2.3l2-1.1z"/></defs><clipPath id="AN"><use href="#AM"/></clipPath><g clip-path="url(#AN)" class="e"><path d="M287.6 292.4h0l-.5 1s0 .1-.1.1h-.1l-.5-.4h0s0-.1.1-.1l1.1-.6c0-.1 0-.1 0 0z"/></g></g><defs><path id="AO" d="M285.8 169.8v2.8l2.4-1.4v-2.8z"/></defs><clipPath id="AP"><use href="#AO"/></clipPath><g clip-path="url(#AP)"><path d="M285.8 169.8v2.8l2.4-1.4v-2.8z" class="d"/><defs><path id="AQ" d="M288 171l-2 1.2v-2.3l2-1.2z"/></defs><clipPath id="AR"><use href="#AQ"/></clipPath><g clip-path="url(#AR)" class="e"><path d="M287.6 170.4h0l-.5-.4h-.1s-.1 0-.1.1l-.5 1h0s0 .1.1 0l1.1-.7c0 .2 0 .1 0 0z"/></g></g></g><path d="M189.8 233.1l25.3-14.5c.2-.1.4 0 .4.2v1.9c0 .3-.2.6-.4.7L189.8 236v-2.9z" class="Z"/><path d="M189.8 236l20.6-11.8c.2-.1.4 0 .4.2v1.9c0 .3-.2.6-.4.7l-20.6 11.8V236z" class="Y"/><path d="M189.8 238.8l32.2-18.5c.2-.1.4 0 .4.2v1.9c0 .3-.2.6-.4.7l-32.2 18.5v-2.8z" class="a"/><path d="M189.9 245.4l9.8-5.6c.2-.1.4 0 .4.2v1.9c0 .3-.2.6-.4.7l-9.8 5.6v-2.8z" class="Z"/><path d="M189.9 248.2L206 239c.2-.1.4 0 .4.2v1.9c0 .3-.2.6-.4.7l-16.1 9.2v-2.8z" class="Y"/><path d="M189.9 251l55-31.6c.2-.1.4 0 .4.2v1.9c0 .3-.2.6-.4.7l-55 31.6V251z" class="a"/><path d="M189.8 258.4l10.4-6c.2-.1.4 0 .4.2v1.9c0 .3-.2.6-.4.7l-10.4 6v-2.8z" class="Z"/><path d="M189.8 261.2l15.1-8.7c.2-.1.4 0 .4.2v1.9c0 .3-.2.6-.4.7l-15.1 8.7v-2.8z" class="Y"/><path d="M189.8 264l5.3-3c.2-.1.4 0 .4.2v1.9c0 .3-.2.6-.4.7l-5.3 3V264z" class="a"/><path d="M189.8 269.9l64.2-36.8c.2-.1.4 0 .4.2v1.9c0 .3-.2.6-.4.7l-64.2 36.8v-2.8z" class="Z"/><path d="M189.8 272.7l81.1-46.6c.2-.1.4 0 .4.2v1.9c0 .3-.2.6-.4.7l-81.1 46.6v-2.8z" class="Y"/><path d="M189.8 275.5l12.2-7c.2-.1.4 0 .4.2v1.9c0 .3-.2.6-.4.7l-12.2 7v-2.8z" class="a"/><path d="M189.8 282.5l12-6.9c.2-.1.4 0 .4.2v1.9c0 .3-.2.6-.4.7l-12 6.9v-2.8z" class="Z"/><path d="M189.8 285.3l28.5-16.4c.2-.1.4 0 .4.2v1.9c0 .3-.2.6-.4.7l-28.5 16.4v-2.8z" class="Y"/><path d="M189.8 288.2l49.3-28.3c.2-.1.4 0 .4.2v1.9c0 .3-.2.6-.4.7L189.8 291v-2.8z" class="a"/><path d="M189.8 295.1l5.1-2.9c.2-.1.4 0 .4.2v1.9c0 .3-.2.6-.4.7l-5.1 2.9v-2.8z" class="Z"/><path d="M189.8 298l11-6.3c.2-.1.4 0 .4.2v1.9c0 .3-.2.6-.4.7l-11 6.3V298z" class="Y"/><path d="M189.8 300.8l19.8-11.3c.2-.1.4 0 .4.2v1.9c0 .3-.2.6-.4.7l-19.8 11.3v-2.8z" class="a"/><path d="M189.8 308.8l8.6-4.9c.2-.1.4 0 .4.2v1.9c0 .3-.2.6-.4.7l-8.6 4.9v-2.8z" class="Z"/><path d="M189.8 311.6l13.9-8c.2-.1.4 0 .4.2v1.9c0 .3-.2.6-.4.7l-13.9 8v-2.8z" class="Y"/><path d="M189.8 314.4l24.2-13.9c.2-.1.4 0 .4.2v1.9c0 .3-.2.6-.4.7l-24.2 13.9v-2.8z" class="a"/><path d="M189.8 322.4l30.8-17.7c.2-.1.4 0 .4.2v1.9c0 .3-.2.6-.4.7l-30.8 17.7v-2.8z" class="Z"/><path d="M189.8 325.3l10.8-6.2c.2-.1.4 0 .4.2v1.9c0 .3-.2.6-.4.7l-10.8 6.2v-2.8z" class="Y"/><path d="M189.8 328.1l3.1-1.8c.2-.1.4 0 .4.2v1.9c0 .3-.2.6-.4.7l-3.1 1.8v-2.8z" class="a"/><path d="M189.8 337.2l37.3-21.4c.2-.1.4 0 .4.2v1.9c0 .3-.2.6-.4.7L189.8 340v-2.8z" class="Z"/><path d="M189.8 340l85.2-48.9c.2-.1.4 0 .4.2v1.9c0 .3-.2.6-.4.7l-85.2 48.9V340z" class="Y"/><path d="M189.8 342.8l59.1-33.9c.2-.1.4 0 .4.2v1.9c0 .3-.2.6-.4.7l-59.1 33.9v-2.8z" class="a"/><path d="M189.5,225v124.8l94.2-54.1" stroke="#c1c1c1" stroke-width=".23" class="c"/><g class="b"><path d="M282.3 164.8l-1.1 3.3-.7.4-1.1-2 .8-.4.6 1.1c0 .1.1.1.1.2s0 .1.1.2h0c0-.1 0-.2.1-.3 0-.1 0-.2.1-.3l.6-1.7.5-.5zm-1.1 2.7v1.7l-.7.4V168l.7-.5zm-3.3-.3c.2-.1.3-.2.5-.3s.4-.2.6-.2v.6c-.1.1-.3.2-.5.3l-.6.3c-.1.1-.2.1-.2.1-.1 0-.1.1-.2.1s-.1.1-.1.2v.2c0 .1 0 .2.1.2h.3l.6-.1c.3-.1.5 0 .6.1s.2.3.2.6c0 .2 0 .4-.1.6 0 .2-.1.3-.2.5-.1.1-.2.3-.4.4s-.4.3-.6.4c-.1.1-.3.1-.5.2s-.4.2-.7.3v-.6c.2-.1.4-.2.5-.3s.3-.1.4-.2.2-.1.3-.2.2-.1.3-.2l.2-.2v-.3-.2l-.1-.1h-.2l-.7.1c-.3 0-.4 0-.6-.1-.1-.1-.2-.3-.2-.6 0-.2 0-.4.1-.6 0-.2.1-.3.2-.5.1-.1.2-.3.4-.4.2.2.4 0 .6-.1zm-2.7 1.6h.2s.1 0 .1.1l1 3.1-.8.4-.7-2.4v-.2-.2l-.1.1v.2.2l-.7 3.2-.8.4 1-4.2c0-.1 0-.2.1-.2 0-.1.1-.1.2-.2l.5-.3zm.5 1.9v.6l-1.7 1v-.6l1.7-1zm-4.2.3c.2-.1.4-.2.5-.3.2-.1.4-.2.5-.3.2-.1.3-.2.5-.2v.6l-1.3.7c-.1 0-.1.1-.2.2 0 .1-.1.1-.1.2v2c0 .1 0 .2.1.2h.2l1.3-.7v.6c-.2.1-.3.2-.5.3s-.4.2-.5.3c-.2.1-.4.2-.5.3-.2.1-.4.2-.5.1s-.2-.2-.2-.4v-2.3c0-.2.1-.5.2-.7.1-.3.3-.5.5-.6zm-.6 1.9l2-1.2v.6l-2 1.2v-.6zm-2.8 1.1a2.3 2.3 0 0 1 .9-.3c.2.1.3.2.3.6 0 .2-.1.5-.2.7s-.3.4-.6.5l-1.3.8v-.5l1.2-.7c.1-.1.2-.1.2-.2v-.3c0-.1 0-.2-.1-.2s-.2 0-.3.1-.2.2-.3.2c-.1.1-.1.2-.2.3v.5c0 .2 0 .4.1.5 0 .1.1.2.2.2s.2 0 .4-.1c.1-.1.2-.1.4-.2s.3-.2.5-.3l.1.5-.3.3c-.1.1-.2.2-.4.3-.1.1-.2.2-.4.2-.3.2-.6.3-.7.3-.2 0-.3-.1-.4-.2-.1-.2-.1-.4-.1-.7 0-.4 0-.7.1-.9.1-.3.2-.5.4-.7s.2-.6.5-.7zm-3.2 1.8c.2-.1.3-.2.5-.2h.4v.4c-.1 0-.2 0-.3.1-.1 0-.2.1-.3.1-.1.1-.2.1-.2.2-.1.1-.1.2-.1.3v.6.5c0 .1.1.1.1.2.1 0 .1 0 .2-.1.1 0 .2-.1.2-.2l.2-.2c.1-.1.1-.2.2-.3v.4c-.1.2-.2.4-.4.6s-.3.4-.6.5c-.3.2-.5.2-.7 0-.1-.2-.2-.5-.2-1 0-.4 0-.7.1-.9s.2-.5.3-.6c.2-.1.3-.3.6-.4zm1.4-1.9v3.9l-.6.3-.1-.5h-.1v-1.8-.1-.3-.4-.8l.8-.3zm-3.8 3.3c.2-.1.4-.2.5-.2s.2 0 .3.1.1.3.1.5v1.8l-.6.3-.1-.5v-.1-1.1c0-.1 0-.2-.1-.2s-.2 0-.3.1-.3.2-.5.3-.4.2-.6.4l-.1-.5c.1-.1.3-.2.4-.3.2-.1.3-.2.5-.3.3-.2.4-.3.5-.3zm.7.7v.5l-1.1.6c-.1.1-.2.1-.2.2s-.1.1-.1.2v.1c0 .1 0 .2.1.2 0 0 .1 0 .2-.1.1 0 .2-.1.3-.2l.3-.3c.1-.1.2-.3.3-.4v.4c0 .1-.1.2-.1.3-.1.1-.1.2-.2.4-.1.1-.2.3-.3.4s-.3.2-.4.3-.3.1-.4.1-.2 0-.3-.1-.1-.2-.1-.4v-.3c0-.2.1-.4.2-.6a1.2 1.2 0 0 1 .5-.5l1.3-.8zm-3.2.7c.2-.1.4-.2.5-.1s.2.2.2.5v2.1l-.7.4v-1.8c0-.1 0-.2-.1-.2h-.2c-.1 0-.1.1-.2.1s-.1.1-.2.2-.2.2-.2.3v-.4c.2-.3.3-.5.5-.7.1-.1.2-.3.4-.4zm-2.5 1.5l.1.5h.1v2.1l-.7.4v-2.8l.5-.2zm1-.6c.2-.1.4-.2.5-.1s.2.2.2.5v2.1l-.7.4v-1.8c0-.1 0-.2-.1-.2h-.2c-.1 0-.1.1-.2.1s-.1.1-.2.2l-.3.3v-.4c.2-.3.3-.5.5-.7s.3-.3.5-.4zm-4.2 2.4a2.3 2.3 0 0 1 .9-.3c.2.1.3.2.3.6 0 .2-.1.5-.2.7s-.3.4-.6.5l-1.3.8v-.5l1.2-.7c.1-.1.2-.1.2-.2v-.3c0-.1 0-.2-.1-.2s-.2 0-.3.1-.2.2-.3.2c-.1.1-.1.2-.2.3v.5c0 .2 0 .4.1.5 0 .1.1.2.2.2s.2 0 .4-.1c.1-.1.2-.1.4-.2s.3-.2.5-.3l.1.5-.3.3c-.1.1-.2.2-.4.3-.1.1-.2.2-.4.2-.3.2-.6.3-.7.3-.2 0-.3-.1-.4-.2-.1-.2-.1-.4-.1-.7 0-.4 0-.7.1-.9.1-.3.2-.5.4-.7-.1-.3.2-.5.5-.7zm-2.5 1.4c.3-.2.5-.2.6 0s.2.5.2 1c0 .4 0 .7-.1.9l-.3.6c-.1.2-.3.3-.5.4s-.3.2-.5.2h-.4v-.4c.1 0 .2 0 .3-.1.1 0 .2-.1.3-.1.1-.1.2-.1.2-.2.1-.1.1-.2.1-.3v-.6-.5c0-.1-.1-.2-.1-.2-.1 0-.1 0-.2.1s-.2.1-.3.2-.2.2-.3.4l-.1-.3c.1-.1.1-.3.2-.4s.2-.3.3-.4c.3-.1.5-.2.6-.3zm-1 .7l.1.5h.1v1.8.1.3.4.7l-.7.4v-3.8l.5-.4zm-2.1 1.1c.2-.1.4-.2.5-.2s.2 0 .3.1.1.3.1.5v1.8l-.6.3-.1-.5v-.1-1c0-.1 0-.2-.1-.2s-.2 0-.3.1-.3.2-.5.3-.4.2-.6.4l-.1-.5c.1-.1.3-.2.4-.3.2-.1.3-.2.5-.3.2-.2.4-.3.5-.4zm.6.8v.5l-1.1.6c-.1.1-.2.1-.2.2s-.1.1-.1.2v.1c0 .1 0 .2.1.2 0 0 .1 0 .2-.1.1 0 .2-.1.3-.2l.3-.3c.1-.1.2-.3.3-.4v.4c0 .1-.1.2-.1.3-.1.1-.1.2-.2.4-.1.1-.2.3-.3.4s-.3.2-.4.3-.3.1-.4.1-.2 0-.3-.1-.1-.2-.1-.4v-.3c0-.2.1-.4.2-.6a1.2 1.2 0 0 1 .5-.5l1.3-.8z"/><path d="M246.1 186.6c.1-.1.2-.1.3-.1.1-.1.2-.1.3-.1s.2-.1.3-.1l-.1.6c-.1.1-.3.1-.4.2s-.2.1-.3.2-.3.2-.3.3c-.1.1-.1.2-.2.3 0 .1-.1.3-.1.5s0 .4.1.5c0 .1.1.1.2.1s.2 0 .3-.1c.1 0 .1-.1.2-.1.1-.1.2-.1.3-.2s.2-.1.3-.2l.1.5-.4.4c-.2.1-.3.2-.5.3-.3.2-.5.3-.7.3s-.3-.1-.4-.2c-.1-.2-.1-.4-.1-.8s0-.7.1-.9c.1-.3.2-.5.4-.7s.3-.5.6-.7zm-2.8 1.6c.1-.1.2-.1.4-.2.1-.1.3-.1.4-.2s.2-.1.3-.1v.5c-.2.1-.3.2-.5.3s-.3.2-.5.3c-.1.1-.2.1-.3.2-.1 0-.1.1-.1.1v.2c0 .1 0 .1.1.1 0 0 .1 0 .2-.1l.6-.2c.2-.1.4-.1.4 0 .1.1.1.2.1.4s0 .4-.1.6-.2.3-.4.5c-.2.1-.4.3-.6.4-.1.1-.2.1-.4.2l-.6.3v-.5c.1 0 .1-.1.2-.1.1-.1.2-.1.3-.2s.2-.1.3-.2c.2-.1.3-.2.4-.2l.2-.2v-.2c0-.1 0-.1-.1-.1s-.1 0-.3.1l-.6.2h-.4c-.1 0-.1-.1-.2-.2v-.4c0-.2 0-.4.1-.5.1-.2.2-.3.3-.4a3 3 0 0 0 .8-.4zm-3.1 1.8c.2-.1.3-.2.5-.2h.4v.4c-.1 0-.2 0-.3.1-.1 0-.2.1-.3.1-.1.1-.2.1-.2.2-.1.1-.1.2-.1.3v.6.5c0 .1.1.1.1.2.1 0 .1 0 .2-.1.1 0 .2-.1.2-.2l.2-.2c.1-.1.1-.2.2-.3v.4c-.1.2-.2.4-.4.6s-.3.4-.6.5c-.3.2-.5.2-.7 0-.1-.2-.2-.5-.2-1 0-.4 0-.7.1-.9s.2-.5.3-.6c.3-.2.4-.3.6-.4zm1.5-2v3.9l-.6.3-.1-.5h-.1V190v-.1-.3-.4-.8l.8-.4zm-3.5 3.1c.5-.3.7-.1.7.4v2.1l-.7.4v-1.8c0-.1 0-.2-.1-.2h-.2c-.1.1-.2.1-.3.3-.1.1-.2.3-.4.4v-.4c.2-.3.3-.5.5-.7a1.2 1.2 0 0 1 .5-.5zm-1.1.7l.1.5h.1v2.1l-.7.4V192l.5-.2zM235 193c.2-.1.4-.2.5-.2s.2 0 .3.1.1.3.1.5v1.8l-.6.3-.1-.5v-.1-1.2c0-.1 0-.2-.1-.2s-.2 0-.3.1-.3.2-.5.3-.4.2-.6.4l-.1-.5c.1-.1.3-.2.4-.3.2-.1.3-.2.5-.3s.4-.2.5-.2zm.6.7v.5l-1.1.6c-.1.1-.2.1-.2.2s-.1.1-.1.2v.1c0 .1 0 .2.1.2 0 0 .1 0 .2-.1.1 0 .2-.1.3-.2l.3-.3c.1-.1.2-.3.3-.4v.4c0 .1-.1.2-.1.3-.1.1-.1.2-.2.4-.1.1-.2.3-.3.4s-.3.2-.4.3-.3.1-.4.1-.2 0-.3-.1-.1-.2-.1-.4v-.3c0-.2.1-.4.2-.6a1.2 1.2 0 0 1 .5-.5l1.3-.8z"/><path d="M231.9 193.7v2.9c0 .1 0 .2.1.2h.2l1.2-.7v.6c-.2.2-.5.3-.7.5s-.5.3-.7.4-.4.2-.6.1c-.1-.1-.2-.2-.2-.5v-3.1l.7-.4zm-2.9 2v2.7c0 .1 0 .2.1.2 0 0 .1 0 .2-.1l.3-.2.1.5-.2.2c-.1.1-.2.1-.3.2s-.2.1-.2.1c-.2.1-.4.2-.5.1s-.2-.2-.2-.5v-2.8l.7-.4zm.6.4v.5l-1.8 1v-.5l.5-.3 1.3-.7z"/><path d="M226.8 197.7c.5-.3.7-.1.7.4v2.1l-.7.4v-1.8c0-.1 0-.2-.1-.2h-.2c-.1.1-.2.1-.3.3-.1.1-.2.3-.4.4v-.4c.2-.3.3-.5.5-.7.1-.3.3-.4.5-.5zm-1.1.7l.1.5h.1v2.1l-.7.4v-2.8l.5-.2zm-2.2 1.2a2.3 2.3 0 0 1 .9-.3c.2.1.3.2.3.6 0 .2-.1.5-.2.7s-.3.4-.6.5l-1.3.8v-.5l1.2-.7c.1-.1.2-.1.2-.2v-.3c0-.1 0-.2-.1-.2s-.2 0-.3.1-.2.2-.3.2c-.1.1-.1.2-.2.3v.5c0 .2 0 .4.1.5 0 .1.1.2.2.2s.2 0 .4-.1c.1-.1.2-.1.4-.2s.3-.2.5-.3l.1.5-.3.3c-.1.1-.2.2-.4.3-.1.1-.2.2-.4.2-.3.2-.6.3-.7.3-.2 0-.3-.1-.4-.2-.1-.2-.1-.4-.1-.7 0-.4 0-.7.1-.9.1-.3.2-.5.4-.7-.1-.4.2-.5.5-.7zm-2.4 1.4c.2-.1.4-.2.5-.1s.2.2.2.5v2.1l-.7.4V202c0-.1 0-.2-.1-.2h-.2c-.1 0-.1.1-.2.1s-.1.1-.2.2-.2.2-.2.3v-.4c.2-.3.3-.5.5-.7.1-.1.2-.2.4-.3zm-2.5 1.5l.1.5h.1v2.1l-.7.4v-2.8l.5-.2zm1-.7c.2-.1.4-.2.5-.1s.2.2.2.5v2.1l-.7.4v-1.8c0-.1 0-.2-.1-.2h-.2c-.1 0-.1.1-.2.1s-.1.1-.2.2l-.3.3v-.4c.2-.3.3-.5.5-.7.1-.1.3-.3.5-.4zm-2.6.8v2.7c0 .1 0 .2.1.2 0 0 .1 0 .2-.1l.3-.2.1.5-.2.2c-.1.1-.2.1-.3.2s-.2.1-.2.1c-.2.1-.4.2-.5.1s-.2-.2-.2-.5V203l.7-.4zm.6.4v.5l-1.8 1v-.5l.5-.3 1.3-.7z"/><use href="#Q"/><path d="M212.5 206v1.8c0 .1 0 .2.1.2 0 0 .1 0 .2-.1s.2-.1.3-.2l.4-.4.1.4c-.2.3-.3.5-.5.7s-.3.3-.5.4c-.5.3-.7.1-.7-.4v-2.1l.6-.3zm1.6-1v2.8l-.6.3-.1-.5h-.1v-2.1l.8-.5zm-3.8 2.2l.1.5h.1v2.1l-.7.4v-2.8l.5-.2zm1.2-.7l-.1.8-.2.1c-.1.1-.2.2-.4.3-.1.1-.3.3-.5.4v-.4c.2-.3.3-.5.5-.7s.3-.3.5-.4l.2-.1zm-3.2 1.8c.1-.1.2-.1.3-.1.1-.1.2-.1.3-.1s.2-.1.3-.1l-.1.6c-.1.1-.3.1-.4.2s-.2.1-.3.2-.3.2-.3.3c-.1.1-.1.2-.2.3 0 .1-.1.3-.1.5s0 .4.1.5c0 .1.1.1.2.1s.2 0 .3-.1c.1 0 .1-.1.2-.1.1-.1.2-.1.3-.2s.2-.1.3-.2l.1.5-.4.4c-.2.1-.3.2-.5.3-.3.2-.5.3-.7.3s-.3-.1-.4-.2-.1-.4-.1-.8 0-.7.1-.9c.1-.3.2-.5.4-.7s.3-.6.6-.7z"/><path d="M205.6 209.8a2.3 2.3 0 0 1 .9-.3c.2.1.3.2.3.6 0 .2-.1.5-.2.7s-.3.4-.6.5l-1.3.8v-.5l1.2-.7c.1-.1.2-.1.2-.2v-.3c0-.1 0-.2-.1-.2s-.2 0-.3.1-.2.2-.3.2c-.1.1-.1.2-.2.3v.5c0 .2 0 .4.1.5 0 .1.1.2.2.2s.2 0 .4-.1c.1-.1.2-.1.4-.2s.3-.2.5-.3l.1.5-.3.3c-.1.1-.2.2-.4.3-.1.1-.2.2-.4.2-.3.2-.6.3-.7.3-.2 0-.3-.1-.4-.2-.1-.2-.1-.4-.1-.7 0-.4 0-.7.1-.9.1-.3.2-.5.4-.7 0-.3.2-.5.5-.7zm-2.9.6c.3-.2.5-.3.7-.3s.3 0 .4.1.1.3.1.6c0 .2 0 .4-.1.5 0 .2-.1.3-.2.4s-.2.3-.4.4h0 .2c.1 0 .1 0 .2.1.1 0 .1.1.1.2l.3 1-.8.4-.3-1c0-.1-.1-.2-.1-.2-.1 0-.1 0-.2.1l-.6.3c-.2.1-.3.2-.4.2-.1.1-.2.1-.3.1v-.6l1.2-.7c.1-.1.2-.2.3-.2.1-.1.1-.2.2-.3v-.4-.3c0-.1-.1-.1-.2-.1s-.2.1-.3.1c-.3.2-.6.3-.8.5-.2.1-.4.2-.4.3l-.1-.6c.1-.1.3-.2.4-.3s.3-.2.4-.2c.3.2.5.1.7-.1zm-.6.4v3.9l-.7.4v-3.9l.7-.4zm-2.6 1.5v3c0 .1 0 .2.1.2 0 0 .1 0 .2-.1l.2-.1.1.5-.2.2-.2.2c-.1.1-.1.1-.2.1-.2.1-.4.2-.5.1s-.2-.2-.2-.4v-3.2l.7-.5zm-2.2 2.3c.2-.1.4-.2.5-.2s.2 0 .3.1.1.3.1.5v1.8l-.6.3-.1-.5v-.1-1.1c0-.1 0-.2-.1-.2s-.2 0-.3.1-.3.2-.5.3-.4.2-.6.4l-.1-.5c.1-.1.3-.2.4-.3.2-.1.3-.2.5-.3s.3-.2.5-.3zm.6.8v.5l-1.1.6c-.1.1-.2.1-.2.2s-.1.1-.1.2v.1c0 .1 0 .2.1.2 0 0 .1 0 .2-.1.1 0 .2-.1.3-.2l.3-.3c.1-.1.2-.3.3-.4v.4c0 .1-.1.2-.1.3-.1.1-.1.2-.2.4-.1.1-.2.3-.3.4s-.3.2-.4.3-.3.1-.4.1-.2 0-.3-.1-.1-.2-.1-.4v-.3c0-.2.1-.4.2-.6a1.2 1.2 0 0 1 .5-.5l1.3-.8zm-4.1 1.3v1.8c0 .1 0 .2.1.2 0 0 .1 0 .2-.1s.2-.1.3-.2l.4-.4.1.4c-.2.3-.3.5-.5.7s-.3.3-.5.4c-.5.3-.7.1-.7-.4V217l.6-.3zm1.6-.9v2.8l-.6.3-.1-.5h-.1v-2.1l.8-.5zm-4 2.2c.1-.1.2-.1.4-.2.1-.1.3-.1.4-.2s.2-.1.3-.1v.5c-.2.1-.3.2-.5.3s-.3.2-.5.3c-.1.1-.2.1-.3.2-.1 0-.1.1-.1.1v.2c0 .1 0 .1.1.1h.2l.6-.2c.2-.1.4-.1.4 0 .1.1.1.2.1.4s0 .4-.1.6-.2.3-.4.5c-.2.1-.4.3-.6.4-.1.1-.3.1-.4.2l-.6.3v-.5c.1 0 .1-.1.2-.1.1-.1.2-.1.3-.2s.2-.1.3-.2c.2-.1.3-.2.4-.2l.2-.2v-.2c0-.1 0-.1-.1-.1s-.1 0-.3.1l-.6.2h-.4c-.1 0-.1-.1-.2-.2v-.4c0-.2 0-.4.1-.5.1-.2.2-.3.3-.4.4-.2.6-.4.8-.5zm-1.5.9v2.8l-.7.4v-2.8l.7-.4zm-.2-1.1c.1-.1.2 0 .2.1v.3c0 .2-.1.3-.2.4l-.3.2c-.1.1-.2 0-.2-.1v-.3c0-.2.1-.3.2-.4l.3-.2z"/><path d="M188.8 218.5l-.9 4.2c0 .1 0 .2-.1.2 0 .1-.1.1-.2.2l-.7.4h-.2l-.1-.1-.9-3.1.8-.4.6 2.4v.2.2l.1-.1v-.2-.2l.6-3.1 1-.6z"/></g><path d="M130.5 228.6l46.1-26.1v188l-37.2 21s-4.2 1.6-6.9-.9c-2-2-2-7.5-2-7.5V228.6z" fill="#e1efff" fill-opacity=".6"/><path d="M172.8,218.3l-39.5,21.5V252l39.5-21.5V218.3z" fill="#edf5ff"/><path d="M136.9 243.1c.3-.1.5-.2.7-.3.2 0 .3 0 .5.1.1.1.2.2.3.5.1.2.1.5.1.9s0 .7-.1 1-.1.5-.3.8c-.1.2-.3.4-.5.6s-.4.3-.7.5c-.3.1-.5.3-.7.4l-.6.3.3-.8c.1-.1.3-.1.4-.2l.6-.3c.2-.1.3-.2.4-.3s.2-.3.2-.5.1-.5.1-.8c0-.4 0-.6-.1-.8 0-.2-.1-.3-.2-.3s-.2 0-.4.1-.4.2-.5.3c-.2.1-.3.2-.5.2l-.3-.4c.2-.1.4-.2.6-.4.2-.4.4-.5.7-.6zm-.6.3v3.9l-.8.4v-3.9l.8-.4zm3.8-.9c.4-.2.7-.3.9-.2s.3.2.3.6c0 .3-.1.5-.2.7s-.3.4-.6.5l-1.4.7v-.5l1.2-.6c.1-.1.2-.1.2-.2s.1-.2.1-.3 0-.2-.1-.2-.2 0-.3.1-.2.1-.3.2-.1.2-.2.3v.5c0 .2 0 .4.1.5 0 .1.1.2.2.2s.2 0 .4-.1c.1-.1.3-.1.4-.2.2-.1.3-.2.5-.3l.1.5-.3.3c-.1.1-.2.2-.4.3-.1.1-.3.2-.4.2-.3.2-.6.2-.8.2s-.3-.1-.4-.3-.1-.4-.1-.8 0-.7.1-.9c.1-.3.2-.5.4-.7 0-.2.2-.4.6-.5zm3.2-1.7c.3-.2.5-.2.7 0 .1.2.2.5.2 1 0 .4 0 .7-.1.9l-.3.6c-.1.2-.3.3-.5.4s-.3.2-.5.2-.3 0-.4-.1l.1-.4c.1 0 .2 0 .3-.1.1 0 .2-.1.3-.1.1-.1.2-.1.3-.2s.1-.2.1-.3v-.6-.5c0-.1-.1-.2-.1-.2-.1 0-.1 0-.2.1s-.2.1-.3.2-.2.2-.3.4l-.1-.3c.1-.1.2-.3.3-.4s.2-.3.4-.4c-.1-.1 0-.2.1-.2zm-1 .6l.1.5h.1v1.8.1.3.4.7l-.7.4v-3.9l.5-.3zm3.7-2.1c.2-.1.4-.2.5-.2s.3 0 .3.1c.1.1.1.3.1.5v1.8l-.6.3-.1-.5-.1-.1V240c0-.1 0-.2-.1-.2s-.2 0-.3.1-.3.2-.5.3l-.6.3-.1-.5c.1-.1.3-.2.4-.3.2-.1.3-.2.5-.3.3.1.5 0 .6-.1zm.7.8v.5l-1.1.6c-.1.1-.2.1-.2.2s-.1.1-.1.2v.1c0 .1 0 .2.1.2h.2c.1 0 .2-.1.3-.2l.3-.3c.1-.1.2-.3.3-.4v.4c0 .1-.1.2-.1.3-.1.1-.1.2-.2.4-.1.1-.2.2-.3.4-.1.1-.3.2-.4.3s-.3.1-.4.1-.2 0-.3-.1-.1-.2-.1-.4v-.3c0-.2.1-.4.2-.6a1.2 1.2 0 0 1 .5-.5l1.3-.9zm1.4-1.8l.1.5h.1v2.2l-.7.4v-2.8l.5-.3zm1.2-.7l-.1.8-.2.1c-.1.1-.2.1-.4.2-.1.1-.3.2-.5.4l-.1-.4c.2-.3.3-.5.5-.7s.3-.3.5-.4h.3zm1.3-1.4v2.7c0 .1 0 .2.1.2h.2l.3-.2.1.5-.2.2c-.1.1-.2.1-.3.2s-.2.1-.2.1c-.2.1-.4.1-.5.1-.1-.1-.2-.2-.2-.5v-2.9l.7-.4zm.7.4v.5l-1.9 1v-.5l.5-.3 1.4-.7zm3.5-1.9c.2-.1.4-.1.5-.1.1.1.2.2.2.5v2.1l-.7.4v-1.8c0-.1 0-.2-.1-.2h-.2c-.1 0-.1.1-.2.1s-.1.1-.2.2l-.3.3v-.4c.2-.3.3-.5.5-.6.2-.3.4-.5.5-.5zm-2.5 1.4l.1.5h.1v2.2l-.7.4v-2.8l.5-.3zm1-.6c.2-.1.4-.1.5-.1.1.1.2.2.2.5v2.1l-.7.4v-1.8c0-.1 0-.2-.1-.2h-.2c-.1 0-.1.1-.2.1s-.1.1-.2.2l-.3.3v-.4c.2-.3.3-.5.5-.6.2-.3.3-.4.5-.5zm4-2.1c.4-.2.7-.3.9-.2s.3.3.3.6c0 .2-.1.5-.2.7s-.3.4-.6.5l-1.4.7v-.5l1.2-.6c.1-.1.2-.1.2-.2v-.3c0-.1 0-.2-.1-.2s-.2 0-.3.1-.2.1-.3.2-.1.2-.2.3v.5c0 .2 0 .4.1.5 0 .1.1.2.2.2s.2 0 .4-.1c.1-.1.3-.1.4-.2.2-.1.3-.2.5-.3l.1.5-.3.3c-.1.1-.2.2-.4.3-.1.1-.3.2-.4.2-.3.2-.6.2-.8.2s-.3-.1-.4-.3-.1-.4-.1-.8 0-.7.1-.9c.1-.3.2-.5.4-.7.1-.2.4-.4.7-.5zm3.4-1.8c.5-.2.7-.1.7.4v2.1l-.7.4v-1.8c0-.1 0-.2-.1-.2h-.2c-.1.1-.2.1-.3.2s-.3.2-.4.4v-.4l.5-.7c.1-.2.3-.3.5-.4zm-1.2.6l.1.5h.1v2.2l-.7.4v-2.8l.5-.3zm3.4-2.5v2.7c0 .1 0 .2.1.2h.2l.3-.2.1.5-.2.2c-.1.1-.2.1-.3.2s-.2.1-.2.1c-.2.1-.4.1-.5.1-.1-.1-.2-.2-.2-.5v-2.9l.7-.4zm.7.4v.5l-1.9 1v-.5l.5-.3 1.4-.7z" class="b"/><path d="M172.8,236.1l-39.5,21.5v12.2l39.5-21.5V236.1z" class="Y"/><path d="M137.2 260v2.9c0 .1 0 .2.1.2h.2l1.2-.7v.6c-.2.2-.5.3-.7.5-.3.2-.5.3-.7.4s-.4.2-.6.1c-.1-.1-.2-.2-.2-.5v-3.1l.7-.4zm3-.7c.3-.2.5-.3.7-.3s.3.1.4.2c.1.2.1.4.1.8s0 .7-.1.9c-.1.3-.2.5-.4.7s-.4.4-.7.6-.5.3-.7.3-.3-.1-.4-.2c-.1-.2-.1-.4-.1-.8s0-.7.1-.9c.1-.3.2-.5.4-.7.1-.2.4-.4.7-.6zm0 .6c-.1.1-.2.2-.3.2-.1.1-.1.2-.2.3v.6.5c0 .1.1.2.2.2s.2 0 .3-.1.2-.2.3-.2c.1-.1.1-.2.1-.3v-.6-.5c0-.1-.1-.2-.1-.2-.1 0-.2.1-.3.1zm2.8-2.2c.1-.1.2-.1.3-.1.1-.1.2-.1.3-.1s.2-.1.3-.1l-.1.6c-.1.1-.3.1-.4.2s-.2.1-.3.2-.3.2-.3.3-.1.2-.2.3c0 .1-.1.3-.1.5s0 .4.1.5c0 .1.1.1.2.1s.2 0 .3-.1c.1 0 .1-.1.2-.1.1-.1.2-.1.3-.2s.2-.1.3-.2l.1.5-.4.4c-.2.1-.3.2-.5.3-.3.2-.5.3-.7.3s-.3-.1-.4-.2c-.1-.2-.1-.4-.1-.8s0-.7.1-.9c.1-.3.2-.5.4-.7.1-.4.4-.5.6-.7zm2.7-1.5c.2-.1.4-.2.5-.2s.2 0 .3.1.1.3.1.5v1.8l-.6.3-.1-.5v-.1-1.2c0-.1 0-.2-.1-.2s-.2 0-.3.1-.3.2-.5.3-.4.2-.6.4l-.1-.5c.1-.1.3-.2.4-.3.2-.1.3-.2.5-.3s.4-.2.5-.2zm.6.7v.5l-1.1.6c-.1.1-.2.1-.2.2s-.1.1-.1.2v.1c0 .1 0 .2.1.2 0 0 .1 0 .2-.1.1 0 .2-.1.3-.2l.3-.3c.1-.1.2-.3.3-.4v.4c0 .1-.1.2-.1.3-.1.1-.1.2-.2.4-.1.1-.2.3-.3.4s-.3.2-.4.3-.3.1-.4.1-.2 0-.3-.1-.1-.2-.1-.4v-.3c0-.2.1-.4.2-.6a1.2 1.2 0 0 1 .5-.5l1.3-.8zm1.8-2.8v2.7c0 .1 0 .2.1.2 0 0 .1 0 .2-.1l.3-.2.1.5-.2.2c-.1.1-.2.1-.3.2s-.2.1-.2.1c-.2.1-.4.2-.5.1s-.2-.2-.2-.5v-2.9l.7-.3zm.7.3v.5l-1.8 1v-.5l.5-.3 1.3-.7zm1.2-.6v2.8l-.7.4v-2.8l.7-.4zm-.2-1.1c.1-.1.2 0 .2.1v.3c0 .2-.1.3-.2.4l-.3.2c-.1.1-.2 0-.2-.1v-.3c0-.2.1-.3.2-.4l.3-.2zm1.9 0c.3-.2.5-.3.7-.3s.3.1.4.2c.1.2.1.4.1.8s0 .7-.1.9c-.1.3-.2.5-.4.7s-.4.4-.7.6-.5.3-.7.3-.3-.1-.4-.2c-.1-.2-.1-.4-.1-.8s0-.7.1-.9c.1-.3.2-.5.4-.7s.4-.4.7-.6zm0 .6c-.1.1-.2.2-.3.2-.1.1-.1.2-.2.3v.6.5c0 .1.1.2.2.2s.2 0 .3-.1.2-.2.3-.2c.1-.1.1-.2.1-.3v-.6-.5c0-.1-.1-.2-.1-.2-.1 0-.2 0-.3.1zm3.4-2.6c.5-.3.7-.1.7.4v2.1l-.7.4v-1.8c0-.1 0-.2-.1-.2h-.2c-.1.1-.2.1-.3.3-.1.1-.2.3-.4.4v-.4c.2-.3.3-.5.5-.7l.5-.5zm-1.1.8l.1.5h.1v2.2l-.7.4v-2.8l.5-.3z" fill="#fff"/><g fill="#b5d6ff"><path d="M154.9 391.8l16.9-8.7v2.5l-16.9 8.7v-2.5zm-6.5-3.7l23.5-11.6v3.3l-23.5 11.6v-3.3z"/><use href="#R"/><path d="M135.2 291.3l36.7-19.7v5.6l-36.7 19.7v-5.6zm0 9.4l36.7-19.7v5.6l-36.7 19.7v-5.6zm0 9.3l36.7-19.7v5.6l-36.7 19.7V310zm0 9.4l36.7-19.7v5.6L135.2 325v-5.6z"/></g><path d="M132.1 216.9v12.3L433.6 56V43.7c0-7.9-5.6-11.2-12.6-7.2L144.7 195.2c-7 4-12.6 13.7-12.6 21.7h0z" class="Y"/><use href="#S" fill="#f22071"/><path d="M402.7 59.8c0 2.2 1.6 3.1 3.6 2a7.8 7.8 0 0 0 3.6-6.1c0-2.2-1.6-3.1-3.6-2a7.8 7.8 0 0 0-3.6 6.1z" fill="#4bbc79"/><path d="M296.8 125.3l96.5-56.1c1.4-.8 2.6-3.1 2.6-5s-1.2-2.8-2.6-2l-96.5 56.1c-1.4.8-2.6 3.1-2.6 5s1.2 2.8 2.6 2z" fill="#dcdcdc"/><path d="M145.1 204.8c.4-.2.8-.5 1.3-.7.4-.3.9-.5 1.3-.7l1.2-.6-.1 1.5-3 1.8c-.2.1-.3.3-.4.4-.1.2-.1.4-.1.6v4.6c0 .2 0 .4.1.4.1.1.2 0 .4-.1l3-1.8.1 1.4-1.2.8c-.4.3-.8.5-1.3.8-.4.3-.9.5-1.3.8-.5.3-.9.4-1.2.2a1.1 1.1 0 0 1-.5-1v-5.5c0-.6.2-1.1.5-1.6.3-.6.7-1 1.2-1.3zm-1.5 4.6l4.7-2.8v1.4l-4.7 2.8v-1.4zm9.4-9.4l.9-.5c.3-.1.5-.3.7-.3.2-.1.4-.2.7-.2l-.1 1.6c-.2.1-.5.3-.7.4s-.4.2-.7.4c-.2.1-.5.3-.8.5-.4.2-.7.5-.9.8s-.4.7-.5 1.2-.1 1.1-.1 1.9 0 1.3.1 1.7.2.6.5.6c.2 0 .5 0 .9-.3l1.3-.8c.4-.2.7-.5 1.1-.7l.1 1.4c-.4.3-.7.7-1.1.9-.4.3-.8.6-1.4.9-.8.5-1.5.7-1.9.7-.5 0-.8-.3-1.1-.9-.2-.6-.3-1.4-.3-2.6a13.2 13.2 0 0 1 .3-3 5.3 5.3 0 0 1 1.1-2.1 6 6 0 0 1 1.9-1.6zm7.8-4.5v9.1l-1.7 1v-9.1l1.7-1zm5.4-.8c1.1-.6 1.6-.3 1.6.9v4.9l-1.7 1v-4.3c0-.3 0-.5-.1-.5-.1-.1-.2 0-.5.1-.2.1-.5.4-.7.6-.3.3-.6.6-.9 1.1l-.1-1 1.2-1.6c.3-.6.7-1 1.2-1.2zm-2.6 1.7l.2 1.2.1.1v5l-1.7 1v-6.5l1.4-.8zm7.6-4.7c.3-.2.6-.3.9-.5s.6-.3.9-.5c.3-.1.6-.3.8-.3l-.1 1.3-1.1.6-1.1.6c-.3.2-.5.3-.7.4s-.3.2-.3.3c-.1.1-.1.2-.1.4s.1.3.2.3.3 0 .6-.1l1.5-.5c.5-.1.8-.1 1 0s.3.5.3 1a3.2 3.2 0 0 1-.3 1.4c-.2.4-.4.8-.8 1.1s-.9.7-1.5 1a6.4 6.4 0 0 0-1 .6c-.5.2-1 .5-1.5.7l.1-1.3c.1-.1.3-.2.5-.3s.4-.3.7-.4c.2-.1.5-.3.7-.4a3.5 3.5 0 0 0 .9-.6c.2-.1.3-.3.4-.4s.1-.3.1-.4c0-.2-.1-.3-.2-.3s-.3 0-.6.1l-1.4.4c-.4.1-.6.1-.8.1-.2-.1-.3-.2-.4-.4s-.1-.5-.1-.8a4.3 4.3 0 0 1 .2-1.2c.2-.4.4-.7.8-1 .3-.2.8-.6 1.4-.9zm5.6-3.2v6.5l-1.7 1v-6.5l1.7-1zm-.5-2.6c.3-.2.5-.1.5.3v.7c0 .4-.2.7-.5.9l-.7.4c-.3.2-.5.1-.5-.3v-.7c0-.4.2-.7.5-.9l.7-.4zm4.4.1c.6-.4 1.2-.6 1.5-.7.4-.1.7 0 .8.2.2.2.3.5.3 1s-.1.9-.2 1.3c-.2.4-.4.8-.8 1.2s-.9.7-1.5 1.1-1.2.6-1.6.7-.7 0-.8-.2c-.2-.2-.2-.5-.2-1s.1-.9.2-1.3c.2-.4.5-.8.8-1.2.3-.3.8-.7 1.5-1.1zm0 1.2c-.4.2-.7.5-.9.7s-.2.5-.2.8.1.5.2.5c.2 0 .4-.1.9-.3a1.9 1.9 0 0 0 .8-.7c.2-.2.2-.5.2-.8s-.1-.5-.2-.5c-.1-.1-.4 0-.8.3zm3.2-3l-.1.9-1.5 1.1-.4-.8 2-1.2zm-4.9 6.5l.8-.3c-.1.1-.2.3-.2.5v.4c.1.1.2.1.4 0l2.1-1c.6-.3 1-.3 1.2-.2.2.2.4.5.4 1.1s-.1 1.1-.3 1.5a4.7 4.7 0 0 1-.9 1.2 8.3 8.3 0 0 1-1.7 1.2c-.6.4-1.1.6-1.5.8s-.7.2-.9.2-.4-.1-.5-.3-.1-.5-.1-.8 0-.5.1-.8a3 3 0 0 1 .4-.8c.2-.3.5-.6.8-.9l.8-.8.6-.1-.5.6c-.2.3-.3.5-.5.7-.1.2-.2.3-.2.5 0 .1-.1.3-.1.5s0 .3.1.4.2.1.4 0 .5-.2.8-.4c.4-.2.7-.4.8-.6.2-.2.3-.3.4-.5s.1-.3.1-.5 0-.3-.1-.3-.1-.1-.3 0c-.1 0-.3.1-.6.2l-1.8.8c-.3.1-.5.2-.7.1s-.3-.2-.3-.3-.1-.4-.1-.6.1-.5.2-.7c.6-.4.7-.6.9-.8zm9.7-9.5c1.1-.6 1.6-.3 1.6.9v4.9l-1.7 1v-4.3c0-.3 0-.5-.1-.5-.1-.1-.2 0-.5.1-.2.1-.5.3-.7.6-.3.3-.6.6-.9 1.1l-.1-.9c.4-.7.8-1.2 1.3-1.7.2-.6.6-.9 1.1-1.2zm-2.3-1.2v2.2c0 .3 0 .7-.1 1 0 .3-.1.6-.1.8l.2.1v5l-1.7 1V181l1.7-1zm7.3-3.4v6.2c0 .2 0 .4.1.4s.3 0 .5-.1l.7-.4.2 1.2c-.1.1-.3.3-.5.4-.2.2-.4.3-.6.4s-.4.2-.5.3c-.5.3-.9.4-1.2.2-.3-.1-.4-.5-.4-1.1v-6.7l1.7-.8zm1.6.8v1.3l-4.2 2.5V180l1.1-.7 3.1-1.9zm3-1.9c.3-.2.6-.3.9-.5s.6-.3.9-.5c.3-.1.6-.3.8-.3l-.1 1.3-1.1.6-1.1.6c-.3.2-.5.3-.7.4s-.3.2-.3.3c-.1.1-.1.2-.1.4s.1.3.2.3.3 0 .6-.1l1.5-.5c.5-.1.8-.1 1 0s.3.5.3 1a3.2 3.2 0 0 1-.3 1.4c-.2.4-.4.8-.8 1.1s-.9.7-1.5 1c-.2.1-.6.3-1 .6-.5.2-1 .5-1.5.7l.1-1.3c.1-.1.3-.2.5-.3s.4-.3.7-.4c.2-.1.5-.3.7-.4a3.5 3.5 0 0 0 .9-.6c.2-.1.3-.3.4-.4s.1-.3.1-.4c0-.2-.1-.3-.2-.3s-.3 0-.6.1l-1.4.4c-.4.1-.6.1-.8.1-.2-.1-.3-.2-.4-.4s-.1-.5-.1-.8a4.3 4.3 0 0 1 .2-1.2c.2-.4.4-.7.8-1s.8-.6 1.4-.9z" fill="#fff"/></g></svg>