<svg xmlns="http://www.w3.org/2000/svg" width="600" height="600" fill="none" xmlns:v="https://vecta.io/nano"><style><![CDATA[.B{fill:#fff}.C{fill:#cae2ff}.D{fill:#0668e1}.E{fill:#1b1c17}.F{fill:#8fbffa}.G{stroke-linecap:round}.H{stroke:#0668e1}.I{stroke-width:1.38}.J{stroke:#2859c5}.K{stroke-width:1.03}.L{stroke-linejoin:round}]]></style><path d="M79.36 93.34a43 43 0 0 1 64.51-37.05l357.32 207.38a43 43 0 0 1-.17 74.39L142.76 543.81a43 43 0 0 1-64.34-37.34l.94-413.13z" fill="#bfd8f7" fill-opacity=".2" stroke-width=".83" class="H"/><path d="M157.01 549.77l170.18 22.45c16.92 2.24 34.44-12.32 39.1-32.52l105.4-456.42c4-17.29-2.74-33.13-15.41-38.71l17.17 7.56c12.67 5.58 19.4 21.41 15.41 38.71l-105.4 456.42c-4.66 20.2-22.17 34.76-39.1 32.52l-170.17-22.45c-2.42-.32-4.69-.97-6.81-1.89l-17.17-7.56a25 25 0 0 0 6.79 1.89h.02z" fill="url(#A)"/><path d="M467.76 139.28c2.86 1.26 4.21 6.33 3.06 11.34L458 206.17c-1.15 5.03-4.4 8.08-7.26 6.82-2.84-1.26-4.21-6.33-3.04-11.35l12.82-55.55c1.15-5.01 4.4-8.06 7.24-6.81zm-20.48 88.69c2.86 1.26 4.21 6.33 3.06 11.36l-5.65 24.47c-1.15 5.01-4.4 8.08-7.26 6.82-2.84-1.26-4.21-6.34-3.04-11.36l5.65-24.47c1.16-5.03 4.4-8.08 7.24-6.82z" class="B"/><path d="M455.01 194.45c.38.16.55.82.4 1.49l-2.03 8.84c-.14.65-.58 1.05-.95.9s-.55-.82-.39-1.49l2.03-8.84c.14-.65.58-1.05.94-.9zm11.05-47.83c.38.16.55.82.4 1.47l-.75 3.24 1.83.81c.38.16.55.82.4 1.49-.14.65-.58 1.05-.95.9l-1.83-.81-.75 3.24c-.14.65-.58 1.05-.95.89s-.55-.82-.39-1.49l.75-3.24-1.83-.81c-.37-.16-.55-.82-.4-1.49.15-.65.58-1.06.95-.9l1.83.81.75-3.24c.14-.65.56-1.04.94-.88z" fill="#d1d5d9"/><path d="M279.29 20.23c-16.92-2.24-34.42 12.32-39.08 32.51l-105.4 456.42c-4.66 20.2 5.26 38.37 22.2 40.61l170.18 22.45c16.92 2.24 34.44-12.32 39.1-32.52l105.4-456.42c4.66-20.18-5.28-38.36-22.22-40.6L279.29 20.23z" fill="url(#B)"/><path d="M276.02 32.25l171.16 22.58c11.05 1.46 17.56 13.35 14.5 26.54L356.01 538.94c-3.04 13.19-14.48 22.71-25.53 21.25l-171.16-22.58c-11.06-1.46-17.56-13.35-14.51-26.53L250.48 53.51c3.04-13.21 14.48-22.73 25.55-21.27" fill="#e8f1fa"/><g clip-path="url(#F)"><rect width="213.41" height="519.23" rx="21.21" transform="matrix(.9925 .1219 -.2249 .9744 256.111 30.1797)" class="B"/><g class="D"><path d="M311.72 114.95l.93-4.04 2.77 2.42-3.7 1.62zm61.79 7.58l.93-4.04 2.77 2.42-3.7 1.62z"/></g><g clip-path="url(#G)"><path d="M429.31 121.95l-32.36-3.97-1.64 6.54c-.59 1.8-2.69 3.03-6.32 4.37l37.63 4.62-1.66-6.05 4.36-5.5z" fill="url(#C)"/><path d="M398.77 122.37l1.52.19c.32.04.58.12.79.24s.35.28.43.48.09.43.03.7c-.05.21-.13.39-.24.54s-.25.26-.41.35-.34.15-.55.19l-.28.09-1.34-.17.14-.61 1 .12c.16.02.31.01.43-.03s.22-.11.3-.2.13-.2.16-.33c.03-.14.03-.26 0-.36s-.09-.2-.19-.26-.23-.11-.39-.13l-.73-.09-.81 3.49-.79-.1.95-4.11zm1.41 4.4l-.54-1.96.84.1.56 1.92-.01.04-.85-.1zm1.53-1.35l.01-.06c.05-.22.13-.43.24-.61s.24-.33.4-.46.33-.21.53-.27a1.6 1.6 0 0 1 .64-.04c.23.03.43.09.59.19s.29.23.38.38.15.33.17.53.01.41-.05.63l-.01.06c-.05.22-.13.42-.24.61s-.24.33-.4.46a1.5 1.5 0 0 1-.53.27c-.2.06-.41.07-.64.04s-.43-.09-.59-.19-.29-.23-.38-.38-.15-.33-.17-.53a1.9 1.9 0 0 1 .05-.63zm.77.03l-.01.06c-.03.13-.05.26-.05.38s.02.23.05.32.09.17.17.23.18.1.31.11.23 0 .33-.03.19-.1.26-.18.14-.18.2-.29.1-.24.13-.37l.01-.06c.03-.13.05-.26.04-.37s-.02-.23-.05-.32-.09-.18-.17-.24-.18-.1-.3-.12-.23 0-.33.04-.19.1-.26.19-.14.18-.19.29a1.7 1.7 0 0 0-.13.36zm3.75 1.51c.11.01.21 0 .3-.03s.17-.08.24-.15.12-.15.14-.25l.72.09c-.05.21-.15.38-.31.53s-.34.26-.55.33-.43.09-.67.06-.44-.09-.6-.19-.28-.23-.37-.39a1.3 1.3 0 0 1-.15-.52c-.01-.19 0-.4.05-.61l.02-.09a2.2 2.2 0 0 1 .23-.59c.1-.18.23-.33.38-.46s.32-.22.52-.27.41-.07.65-.04c.25.03.46.11.63.22s.29.27.36.46.08.4.03.64l-.72-.09c.02-.11.02-.21-.01-.3s-.08-.17-.15-.23-.17-.1-.29-.12c-.13-.02-.24 0-.34.04s-.18.11-.25.19-.12.18-.17.29-.08.22-.11.35l-.02.09a2.4 2.4 0 0 0-.06.36c-.01.12 0 .22.03.32s.08.17.15.24.18.1.31.12zm3.43-3.49l-1 4.33-.76-.09 1-4.34.76.09zm1.65 1.52l-1.7 1.33-.9.64-.11-.61.73-.63 1.06-.84.92.11zm-1.48 2.96l-.63-1.54.62-.42.9 2.07-.88-.11zm3.08-.48c.01-.06.01-.12-.01-.18s-.08-.11-.16-.16-.21-.11-.39-.17a2.8 2.8 0 0 1-.42-.18c-.12-.07-.23-.14-.31-.23s-.14-.18-.17-.29-.03-.22 0-.35.08-.24.17-.34.19-.19.31-.27.27-.12.43-.16.34-.04.53-.01c.26.03.48.1.65.21s.29.24.36.4.08.33.04.52l-.76-.09c.02-.08.02-.16-.01-.23s-.06-.13-.13-.18-.16-.08-.28-.1c-.1-.01-.2-.01-.28.02s-.14.06-.19.11-.08.11-.1.17c-.01.05-.01.09 0 .14s.04.08.08.12.09.08.17.11.17.07.28.11a2.7 2.7 0 0 1 .56.26c.16.09.27.21.34.34s.08.3.04.49c-.03.14-.09.25-.18.36s-.19.19-.32.26a1.5 1.5 0 0 1-.45.14c-.17.03-.35.03-.55 0-.29-.03-.52-.11-.69-.24a1 1 0 0 1-.36-.44c-.06-.17-.08-.34-.04-.5l.73.09c-.02.12-.01.22.03.3s.11.14.19.18.18.07.28.08c.12.01.22.01.3-.01s.15-.06.21-.11.09-.11.1-.18zm3.3-1.87l-.12.54-1.78-.22.12-.54 1.78.22zm-1.13-.91l.76.09-.67 2.92c-.02.09-.02.16-.01.21s.04.09.09.11.1.04.17.05c.05.01.1.01.14.01h.11l-.13.56c-.07.01-.14.02-.23.02s-.17 0-.27-.01c-.17-.02-.31-.07-.43-.14s-.19-.18-.24-.32-.04-.31.01-.53l.69-2.98zm2.79 3.59l.32-1.41a.6.6 0 0 0 .01-.28c-.02-.08-.06-.14-.13-.19s-.16-.08-.27-.1c-.1-.01-.19-.01-.28.02s-.15.07-.2.12-.09.12-.11.2l-.76-.09c.03-.13.09-.24.17-.35s.2-.2.33-.27.29-.13.46-.16.36-.03.56-.01c.24.03.44.09.6.2s.29.23.36.4.08.37.02.61l-.31 1.33c-.04.15-.06.28-.06.4s.01.21.03.29l-.01.05-.77-.09c-.02-.08-.02-.18-.02-.3s.03-.24.05-.36zm.39-1.2l-.1.44-.48-.06c-.12-.01-.23-.02-.32 0s-.18.04-.25.08-.12.08-.16.14-.07.12-.09.2-.02.14 0 .21.06.12.12.16.14.07.23.08c.13.02.26 0 .37-.04s.21-.1.28-.17.12-.14.14-.21l.14.35c-.04.07-.1.15-.18.23s-.16.15-.26.22a1.2 1.2 0 0 1-.35.15c-.13.03-.27.04-.43.02-.2-.03-.37-.09-.51-.19s-.24-.22-.3-.37-.07-.31-.03-.48c.04-.16.1-.3.19-.42s.2-.21.34-.28.31-.12.49-.14a2.6 2.6 0 0 1 .63.01l.51.06zm2.23-.31l-.56 2.43-.76-.09.7-3.05.72.09-.1.63zm1.09-.53l-.17.69c-.04-.01-.09-.02-.14-.03l-.14-.02c-.12-.01-.22-.01-.32.01s-.18.05-.25.11-.13.12-.18.2a1 1 0 0 0-.12.27l-.16-.04c.04-.19.11-.37.18-.53s.17-.3.28-.41a1 1 0 0 1 .35-.25c.13-.05.28-.07.43-.05.04 0 .09.01.13.03s.09.03.11.04z" class="B"/></g><g fill="#044aa0"><path d="M395.6 116.49l-1.45 6.3-.05.17c-.14.5-.32 1.19-1.15 1.98-1.09 1.02-2.93 1.9-5.48 2.62-2.09-1.29-3.43-2.56-4-3.78-.44-.94-.3-1.63-.2-2.14l.03-.18 1.45-6.3 5.42.66 5.42.67zm1.28-.89l-6.47-.79-6.47-.8-1.69 7.35c-.18 1.05-1.08 3.72 4.97 7.31 7.33-1.95 7.68-4.69 7.98-5.72l1.7-7.35zm-8.1 6.43l-.91-.11-.55 2.39-1.68-.21 1.56-6.76 2.74.34c.82.1 1.43.36 1.81.77s.5.94.35 1.59c-.11.47-.3.85-.56 1.13s-.63.5-1.09.64l.82 2.91-.02.07-1.8-.22-.68-2.54zm-.62-1.37l1.06.13c.32.04.58-.01.78-.16s.33-.36.4-.65.04-.53-.09-.72-.34-.3-.66-.34l-1.06-.13-.43 1.86zm4.67-8.47l-1.35-2.01-2.17 1.58-1.62-.87-.54 2.33 3.52.43 3.54.43.54-2.33-1.92.44z"/></g><g clip-path="url(#H)"><path d="M367.53 114.37l-32.36-3.97-1.49 6.37c-1.1 2.22-4.54 4.36-7.06 4.46l38.25 4.7-1.54-6.22 4.21-5.33z" fill="url(#D)"/><path d="M337.32 114.83l.68.08.43 3.23 1.85-2.95.69.08-2.5 3.92-.55-.07-.6-4.3zm-.34-.04l.67.08-.54 2.85-.29 1.27-.79-.1.95-4.11zm3.67.45l.67.08-.95 4.11-.79-.1.29-1.27.77-2.83zm2.33 3.84l.33-1.41a.6.6 0 0 0 .01-.28c-.02-.08-.06-.14-.13-.2s-.16-.08-.27-.1c-.1-.01-.19-.01-.28.02s-.15.06-.21.12-.09.12-.11.2l-.76-.09c.03-.13.09-.24.18-.35s.2-.2.33-.27.29-.13.46-.16.36-.03.56-.01a1.5 1.5 0 0 1 .6.2c.17.1.29.23.36.4s.08.37.02.61l-.31 1.33a2.4 2.4 0 0 0-.06.4c0 .11.01.21.03.29l-.01.05-.77-.09c-.02-.08-.02-.18-.02-.3s.03-.24.05-.36zm.39-1.2l-.1.44-.48-.06c-.12-.02-.23-.02-.32 0s-.18.04-.24.07a.5.5 0 0 0-.17.14c-.04.06-.07.12-.09.2s-.02.14 0 .21.06.12.12.16.14.07.23.08a.8.8 0 0 0 .37-.04c.11-.04.2-.1.28-.17s.12-.14.14-.21l.14.35c-.04.07-.1.15-.18.23s-.16.15-.26.22-.22.11-.35.15-.27.04-.43.02a1.1 1.1 0 0 1-.51-.19c-.14-.1-.24-.22-.3-.37s-.07-.31-.03-.48c.04-.16.1-.3.19-.42s.2-.21.34-.28.31-.12.49-.14.4-.02.63.01l.51.06zm2.81 1.4c.01-.06.01-.12-.01-.18s-.08-.11-.16-.16-.21-.11-.39-.17a2.8 2.8 0 0 1-.42-.18c-.12-.07-.23-.14-.31-.23s-.14-.18-.17-.28-.03-.22 0-.35.09-.24.17-.34.19-.19.31-.27.27-.12.43-.16.34-.04.53-.01c.26.03.48.1.65.21s.29.24.36.4.08.33.04.52l-.76-.09c.02-.08.02-.16-.01-.23s-.07-.13-.13-.18-.16-.08-.28-.1c-.1-.01-.2-.01-.28.02s-.14.06-.19.11-.08.11-.1.17c-.01.05-.01.09 0 .14s.04.08.08.12.09.08.17.11a2.7 2.7 0 0 0 .28.11 2.7 2.7 0 0 1 .56.26c.16.09.27.21.34.34s.08.3.04.49c-.03.13-.09.26-.18.36s-.19.19-.32.26a1.5 1.5 0 0 1-.45.15c-.17.03-.35.03-.55 0-.29-.03-.52-.11-.69-.24a1 1 0 0 1-.36-.44c-.06-.17-.08-.34-.04-.5l.73.09c-.02.12-.01.22.03.3s.11.14.19.18.18.07.28.08c.12.01.22.01.3-.01s.15-.06.21-.11.09-.11.1-.18zm3.3-1.87l-.12.54-1.78-.22.12-.53 1.78.22zm-1.13-.91l.76.09-.67 2.92c-.02.09-.03.16-.01.21s.04.09.09.11.1.04.17.05a1 1 0 0 0 .14.01h.11l-.13.56c-.07.01-.14.02-.23.02s-.17 0-.27-.01c-.17-.02-.31-.07-.43-.14s-.19-.18-.24-.32-.04-.31.01-.53l.69-2.98zm2.32 4.25c-.24-.03-.44-.09-.61-.19a1.2 1.2 0 0 1-.41-.37c-.1-.15-.16-.32-.19-.51a1.6 1.6 0 0 1 .03-.59l.03-.11c.05-.23.14-.44.25-.63s.25-.34.41-.46.33-.21.53-.27.4-.07.61-.04c.22.03.41.09.56.18s.27.21.35.36.13.31.15.5 0 .4-.05.62l-.07.31-2.44-.3.12-.51 1.69.21.01-.06c.02-.12.02-.23.01-.33s-.07-.19-.14-.26-.18-.12-.32-.13c-.11-.01-.22 0-.31.04s-.18.1-.25.18-.14.18-.19.3-.1.25-.13.4l-.03.11c-.03.13-.04.25-.03.36s.04.22.09.3.12.16.21.22.2.09.32.11c.16.02.31.01.45-.04s.28-.12.4-.23l.29.44c-.09.09-.19.17-.33.24s-.28.13-.44.16-.35.04-.56.01zm3.1-2.17l-.56 2.43-.76-.09.7-3.05.72.09-.1.63zm1.09-.53l-.17.69a1.2 1.2 0 0 0-.14-.03l-.14-.02c-.12-.01-.22-.01-.32.01s-.18.05-.25.11-.13.12-.18.2-.09.17-.12.28l-.16-.04c.04-.19.11-.37.18-.53s.17-.3.28-.41.22-.2.35-.25.27-.07.43-.06c.04.01.09.01.13.03s.09.03.11.04z" class="B"/></g><g class="D"><path d="M333.82 108.9l-1.45 6.3-.05.18c-.14.5-.32 1.19-1.15 1.97-1.09 1.02-2.93 1.9-5.48 2.62-2.09-1.29-3.43-2.56-4-3.78-.44-.94-.3-1.63-.2-2.14l.03-.18 1.45-6.3 5.42.67 5.42.66zm1.29-.89l-6.47-.79-6.47-.8-1.7 7.35c-.18 1.05-1.08 3.72 4.97 7.31 7.33-1.95 7.68-4.69 7.98-5.72l1.7-7.35zm-10.05 1.7l1.2.15.41 4.3 2.32-3.97 1.2.15-3.45 5.69-.97-.12-.7-6.2zm-.73-.09l1.24.15-.82 4.59-.32 1.39-1.47-.18 1.37-5.95zm5.34.66l1.25.15-1.37 5.94-1.48-.18.32-1.39 1.28-4.53z"/></g><g clip-path="url(#I)"><path d="M305.75 106.78l-32.36-3.97s-.75 5.85-2.32 7.44a13 13 0 0 1-6.23 3.39l38.25 4.7-1.69-6.06 4.36-5.5z" fill="url(#E)"/><path d="M277.17 111.03l-.14.61-2.22-.27.14-.61 2.22.27zm-1.18-3.74l-.95 4.11-.79-.1.95-4.11.79.1zm1.3 1.9l-.14.6-1.93-.24.14-.6 1.93.24zm.67-1.66l-.14.61-2.22-.27.14-.61 2.21.27zm.85 1.19l.33 1.04.79-.9.82.1-1.26 1.38.59 1.67-.82-.1-.36-1.09-.83.95-.82-.1 1.31-1.44-.56-1.61.82.1zm3.01.97l-.84 3.64-.76-.09.97-4.22.7.09-.08.59zm1.79 1.15l-.01.06c-.05.22-.13.42-.22.61s-.21.34-.34.47-.29.22-.46.28-.35.08-.54.05c-.19-.02-.35-.08-.48-.17s-.22-.21-.29-.36-.11-.31-.13-.49-.01-.38.01-.6l.04-.19c.08-.22.17-.42.27-.59s.22-.33.35-.45.27-.21.43-.27.33-.07.52-.05c.2.02.36.08.5.17s.24.21.31.36.11.32.12.52-.02.41-.07.64zm-.77-.03l.01-.06c.03-.14.05-.26.05-.38s-.01-.23-.04-.32a.5.5 0 0 0-.15-.23c-.07-.06-.16-.1-.28-.11s-.22-.01-.31.02-.17.07-.24.13-.13.14-.18.23-.09.19-.13.31l-.11.47c-.01.14-.01.27.01.39s.08.21.16.29.2.13.36.14c.12.01.22 0 .32-.04a.7.7 0 0 0 .25-.18c.07-.08.13-.18.18-.3s.09-.24.12-.37zm2.35 1.89c-.24-.03-.44-.09-.61-.19s-.31-.22-.41-.37-.16-.32-.19-.51a1.6 1.6 0 0 1 .03-.59l.03-.11c.05-.23.14-.44.25-.63s.25-.34.41-.46a1.5 1.5 0 0 1 .53-.27c.19-.05.4-.07.61-.04.22.03.41.09.56.18s.27.21.35.36.13.31.15.5a2 2 0 0 1-.05.62l-.07.31-2.44-.3.12-.51 1.69.21.01-.06c.02-.12.02-.23.01-.33s-.07-.19-.14-.26-.18-.12-.32-.13c-.11-.01-.22 0-.31.04s-.18.1-.25.18-.14.18-.19.3-.1.25-.13.4l-.03.11c-.03.13-.04.25-.03.36s.04.22.09.3.12.16.21.22.2.09.32.11c.16.02.31.01.45-.04s.28-.12.4-.23l.29.44a1.5 1.5 0 0 1-.33.24c-.13.07-.28.13-.45.16s-.35.04-.56.01zm3.1-2.17l-.56 2.43-.76-.09.7-3.05.72.09-.1.63zm1.09-.53l-.17.69c-.04-.01-.09-.02-.14-.03l-.15-.02c-.12-.01-.22-.01-.32.01s-.18.05-.25.11-.13.12-.18.2a1 1 0 0 0-.12.28l-.16-.04c.04-.19.11-.37.19-.53s.17-.3.27-.41.22-.2.35-.25.28-.07.43-.05c.04 0 .09.01.13.03s.09.03.11.04zm2.03.27l-.12.54-1.78-.22.12-.54 1.78.22zm-1.13-.91l.76.09-.68 2.92c-.02.09-.02.16-.01.21s.04.09.09.11.1.04.17.05c.05.01.1.01.14.01h.11l-.13.56a1.5 1.5 0 0 1-.23.02c-.08 0-.17 0-.27-.01-.17-.02-.31-.07-.43-.14s-.19-.18-.23-.32-.04-.31.01-.53l.69-2.98z" class="B"/></g><g fill="#589aeb"><path d="M272.04 101.32l-1.45 6.3-.05.18a3.7 3.7 0 0 1-1.15 1.97c-1.09 1.02-2.93 1.9-5.47 2.62-2.09-1.29-3.43-2.56-4-3.78-.44-.94-.3-1.63-.2-2.14l.03-.18 1.45-6.3 5.42.67 5.42.67zm1.29-.89l-6.47-.79-6.47-.79-1.7 7.35c-.18 1.05-1.08 3.72 4.97 7.31 7.33-1.95 7.68-4.69 7.98-5.72l1.7-7.35zm-6.39 8.07l-.28 1.21-3.92-.48.28-1.21 3.92.48zm-2.03-6.17l-1.61 6.97-1.65-.2 1.61-6.97 1.65.2zm2.2 3.16l-.27 1.17-3.41-.42.27-1.17 3.41.42zm1.16-2.74l-.28 1.21-3.92-.48.28-1.21 3.92.48z"/></g><path d="M442.77 97.06l-.27 1.16-7.06-.87.27-1.16 7.06.87zm2.7-3.83l-.27 1.16-10.59-1.3.27-1.16 10.59 1.3zm-.83-4.26l-.27 1.16-7.06-.87.27-1.16 7.06.87z" class="E"/><g clip-path="url(#J)"><path d="M426.07 88.19c-.26 1.11-1.39 1.91-2.53 1.77s-1.85-1.16-1.59-2.27 1.39-1.91 2.53-1.77 1.85 1.16 1.59 2.27zm-1.88 2.91a3.7 3.7 0 0 1-.91.01c-.86-.11-1.6-.54-2.07-1.21s-.62-1.52-.43-2.36c.2-.85.71-1.58 1.39-2.08-.08-.14-.19-.26-.32-.35s-.29-.15-.46-.17c-.65-.08-1.3.38-1.44 1.01l-.04.17c-1.87.29-3.42 1.72-3.84 3.51l-.8 3.47-1.44 1.01-.13.58 10.59 1.3.13-.58-.91-1.3.69-3.01zm-5.61 5.97c.65.08 1.3-.37 1.44-1.01l-2.35-.29c-.07.31-.01.62.16.86s.44.4.75.44z" fill="#000"/></g><g class="D"><path d="M404.58 86.28l-1 4.32-.03.12c-.09.34-.22.82-.79 1.35-.74.7-2 1.3-3.73 1.8-1.42-.88-2.33-1.75-2.72-2.59-.3-.64-.2-1.12-.14-1.47l.02-.12 1-4.32 3.69.45 3.69.45zm.88-.61l-4.41-.54-4.4-.54-1.16 5.04c-.12.72-.74 2.55 3.37 5.01 4.99-1.34 5.23-3.22 5.44-3.93l1.16-5.04zm-5.53 4.32l-.62-.08-.38 1.64-1.14-.14 1.07-4.65 1.86.23c.56.07.97.25 1.23.53s.34.65.24 1.09a1.6 1.6 0 0 1-.39.78c-.19.2-.43.34-.75.44l.56 2-.01.05-1.22-.15-.46-1.75zm-.42-.94l.72.09c.22.03.39-.01.53-.11s.23-.25.27-.45.03-.36-.06-.49-.23-.2-.45-.23l-.72-.09-.3 1.28zm3.23-5.62l-.95-1.51-1.58 1.2-1.16-.65-.41 1.76 2.53.31 2.54.31.41-1.76-1.39.34z"/></g><g clip-path="url(#K)" class="E"><path d="M382.96 88.89l1.95 2.78-1.02.72-1.95-2.78c-1.11.62-2.37.88-3.57.73a4.7 4.7 0 0 1-4.1-5.85c.66-2.87 3.57-4.91 6.5-4.55a4.7 4.7 0 0 1 4.1 5.85c-.27 1.18-.94 2.27-1.91 3.1zm-1.08-.57a4.6 4.6 0 0 0 1.81-2.67c.52-2.23-.91-4.27-3.19-4.55a4.7 4.7 0 0 0-5.05 3.54c-.51 2.23.91 4.27 3.19 4.55a4.6 4.6 0 0 0 3.13-.79l.11-.08z"/></g><g class="D"><path d="M331.82 85.22a6.4 6.4 0 0 1-1.7-.42c-.47-.2-.83-.51-1.09-.92a3.4 3.4 0 0 1-.4-1.67 11.5 11.5 0 0 1 .36-2.72 11.9 11.9 0 0 1 .85-2.54 4.4 4.4 0 0 1 1.16-1.48c.44-.33.94-.54 1.48-.63a6.3 6.3 0 0 1 1.79-.01 10 10 0 0 1 1.28.23l1.13.31.9.32-.3 1.32a6.1 6.1 0 0 0-.71-.19l-1.05-.21-1.22-.19c-.47-.06-.88-.06-1.24 0-.35.05-.65.2-.91.43a2.9 2.9 0 0 0-.7 1.05c-.2.47-.39 1.09-.57 1.85a11.7 11.7 0 0 0-.31 1.87 2.8 2.8 0 0 0 .15 1.17c.13.28.35.49.65.64a4.2 4.2 0 0 0 1.22.31l1.88.19 1.2.03-.3 1.32a10.3 10.3 0 0 1-1.02.07 12.1 12.1 0 0 1-1.19-.02l-1.34-.11zm-10.19-1.27a5.4 5.4 0 0 1-.81-.17 2.3 2.3 0 0 1-.79-.37c-.24-.18-.41-.43-.52-.73s-.1-.71.01-1.21l1.36-5.9c.1-.43.25-.79.46-1.05a2.1 2.1 0 0 1 .72-.62c.28-.14.57-.22.87-.25a3.7 3.7 0 0 1 .89 0l1.92.26 1.54.25 1.31.23-.33 1.43-4.25-.52c-.35-.04-.64 0-.88.13-.23.13-.38.37-.46.7l-.42 1.81 4.66.67-.31 1.34-4.7-.48-.41 1.76c-.06.28-.06.5 0 .66.08.16.19.28.34.36a1.5 1.5 0 0 0 .51.15l4.27.52-.33 1.43-1.49-.08-1.63-.16-1.56-.15z"/></g><g class="E"><path d="M312.12 82.71c-.59-.07-1.05-.21-1.39-.41-.34-.21-.55-.52-.63-.92-.07-.4-.04-.91.12-1.52l.87-3.48-1.28-.16.25-1.11 1.41-.11.75-2.04 1.48.18-.48 2.08 2.07.25-.32 1.38-2.07-.25-.8 3.48c-.06.24-.08.44-.06.6.02.15.06.28.13.39.08.1.18.17.28.22s.21.09.33.11l1 .22-.29 1.26-1.36-.17zm-7.34-.81a5.1 5.1 0 0 1-1.32-.33c-.38-.17-.69-.41-.93-.73s-.39-.74-.45-1.25c-.05-.51.01-1.13.18-1.87.17-.76.4-1.38.66-1.85.28-.48.6-.84.96-1.09a2.7 2.7 0 0 1 1.2-.46 5.3 5.3 0 0 1 1.49 0l1.37.24c.46.09.91.23 1.35.39l-.23.98-2.23-.27c-.49-.06-.9-.04-1.24.06a1.6 1.6 0 0 0-.86.68 4.7 4.7 0 0 0-.6 1.56 4.1 4.1 0 0 0-.13 1.59c.07.37.24.64.52.8a3.2 3.2 0 0 0 1.16.33l2.33.29-.22.97-.9.08a16.5 16.5 0 0 1-1.06-.02l-1.08-.09zm-8.01-1a5.3 5.3 0 0 1-2.04-.59 1.8 1.8 0 0 1-.86-1.29 5.9 5.9 0 0 1 .18-2.34 6.9 6.9 0 0 1 .87-2.27 2.4 2.4 0 0 1 1.38-1.03c.57-.16 1.3-.18 2.18-.07a6.4 6.4 0 0 1 1.82.45c.45.2.73.49.86.89.14.39.13.91-.02 1.58-.11.47-.3.84-.57 1.1-.27.25-.61.41-1.02.49a4.6 4.6 0 0 1-1.38.02l-2.39-.29c-.09.46-.11.84-.06 1.13.06.28.23.5.51.66.29.16.73.27 1.33.35l2.47.3-.23 1.01-1.37.03a13.3 13.3 0 0 1-1.65-.12zm-.77-4.41l2.23.27c.36.04.63.02.82-.08.2-.11.34-.33.42-.66a1.6 1.6 0 0 0 .02-.78c-.06-.2-.2-.35-.41-.45-.21-.11-.51-.19-.89-.24-.43-.05-.78-.03-1.05.06s-.5.29-.68.59a5 5 0 0 0-.46 1.3z"/><use href="#V"/><path d="M275.37 78.21l1.71-7.42 1.54.19.17.82c.39-.19.84-.35 1.36-.47a4.4 4.4 0 0 1 1.57-.09c.64.08 1.12.26 1.43.55.31.28.5.62.56 1.04.07.42.05.86-.06 1.33l-1.14 4.94-1.89-.23 1.09-4.74c.06-.27.06-.5-.01-.7s-.19-.36-.37-.49c-.17-.13-.4-.21-.68-.24a3.9 3.9 0 0 0-.76-.02 3.3 3.3 0 0 0-.69.13 6.8 6.8 0 0 0-.7.26l-1.24 5.39-1.89-.23zm-5.39-.6a6.5 6.5 0 0 1-1.62-.38 2.2 2.2 0 0 1-1-.75c-.23-.32-.36-.74-.39-1.24a6.8 6.8 0 0 1 .21-1.87 7.5 7.5 0 0 1 .65-1.86c.26-.48.56-.84.92-1.08.37-.25.8-.4 1.29-.44a7.4 7.4 0 0 1 1.69.04 6.5 6.5 0 0 1 1.64.39c.44.17.78.41 1.01.72s.36.73.39 1.24a6.9 6.9 0 0 1-.22 1.9 7.5 7.5 0 0 1-.65 1.84 2.9 2.9 0 0 1-.91 1.08c-.36.24-.79.39-1.28.45a7.9 7.9 0 0 1-1.73-.04zm.32-1.37c.31.04.59.05.82.03.24-.03.44-.11.62-.25.19-.15.36-.38.5-.69a7.2 7.2 0 0 0 .41-1.3 6.3 6.3 0 0 0 .19-1.3c0-.33-.05-.59-.17-.76-.1-.18-.26-.31-.48-.39-.21-.08-.47-.14-.79-.18-.31-.04-.57-.04-.81-.01a1.1 1.1 0 0 0-.62.25 1.9 1.9 0 0 0-.5.68c-.15.31-.28.74-.4 1.27a6.7 6.7 0 0 0-.2 1.33c.01.33.06.59.17.77.11.17.26.3.48.39.21.07.47.13.78.17zm-8.65.36a6.4 6.4 0 0 1-1.7-.42c-.47-.2-.83-.51-1.09-.92a3.4 3.4 0 0 1-.4-1.67 11.5 11.5 0 0 1 .36-2.72 11.9 11.9 0 0 1 .85-2.54 4.4 4.4 0 0 1 1.16-1.48c.44-.33.94-.54 1.48-.63a6.3 6.3 0 0 1 1.79-.01 9.7 9.7 0 0 1 1.28.23l1.14.31.9.32-.3 1.32c-.16-.06-.4-.12-.71-.19l-1.05-.21-1.23-.19c-.47-.06-.88-.06-1.24 0-.35.05-.65.2-.91.43a2.9 2.9 0 0 0-.7 1.05c-.2.47-.39 1.09-.57 1.85a11.7 11.7 0 0 0-.31 1.87c-.02.49.03.88.15 1.17.13.28.35.49.65.64a4.2 4.2 0 0 0 1.21.31l1.88.19 1.2.03-.3 1.32a9.8 9.8 0 0 1-1.02.07c-.37.01-.77.01-1.19-.02l-1.34-.11zM423.3 64.79c.22.2.17.56-.08.78l-6.66 5.73c-.56.49-1.4.38-1.72-.21l-3.73-7c-.14-.26-.02-.61.28-.75a11.8 11.8 0 0 1 6.38-1.1 9.8 9.8 0 0 1 5.53 2.57zm12.52.05c.43-.3.98.02.87.51l-1.98 8.59c-.14.61-.76 1.04-1.38.96l-8.75-1.07c-.5-.06-.61-.69-.18-.99l11.42-8zm13.83 1.86l.84.1c.46.06.76.47.65.93L449.23 76c-.11.46-.57.78-1.03.72l-5.05-.62c-.46-.06-.76-.47-.65-.93l1.91-8.27c.11-.46.57-.78 1.03-.72l.84.1.25-1.1 3.37.41-.25 1.1z"/></g><path opacity=".6" d="M274.57 44.95l-1.91 8.26-1.39-.17 1.53-6.64-2.21.43.26-1.12 3.55-.77.17.02zm6.88 8.22l-.25 1.09-5.62-.69.21-.93 3.4-2.59.91-.77c.23-.22.4-.42.51-.61s.2-.37.24-.56c.06-.26.06-.49.01-.7s-.16-.39-.32-.52-.38-.23-.64-.26c-.31-.04-.59 0-.83.1s-.44.27-.6.49-.28.47-.34.77l-1.39-.17c.11-.48.32-.9.64-1.27s.71-.65 1.19-.83 1.01-.24 1.61-.17c.56.07 1.02.22 1.36.45s.59.53.71.9a2.2 2.2 0 0 1 .03 1.24c-.06.26-.16.51-.3.75s-.32.48-.54.71-.45.46-.72.68l-.87.67-2.27 1.74 3.87.47zm1.09.55c.05-.21.16-.38.34-.5s.39-.18.64-.15.43.13.54.29.14.35.1.56-.16.38-.34.5-.39.17-.64.14c-.25-.03-.43-.13-.54-.29s-.14-.35-.1-.56zm1.12-4.81c.05-.21.16-.38.34-.5s.39-.18.64-.15.43.13.54.29.15.35.1.56-.16.38-.34.5-.39.17-.64.14-.43-.13-.54-.29-.14-.35-.1-.56zm4.46 1.33l.83.1c.32.04.6.02.84-.07s.44-.21.58-.39.25-.39.31-.64c.06-.26.06-.49.01-.68s-.16-.36-.33-.49-.39-.21-.68-.24c-.25-.03-.48-.01-.7.06s-.4.19-.56.35-.26.36-.32.6l-1.39-.17c.1-.44.31-.81.62-1.12a2.8 2.8 0 0 1 1.14-.68 3.3 3.3 0 0 1 1.44-.13c.54.07.99.21 1.35.44a1.8 1.8 0 0 1 .77.9c.15.37.16.82.04 1.33a1.9 1.9 0 0 1-.33.69c-.17.23-.38.43-.65.6a3 3 0 0 1-.93.38 3.4 3.4 0 0 1-1.18.04l-1.04-.13.18-.76zm-.25 1.06l.17-.75 1.04.13c.49.06.9.17 1.22.32s.57.35.74.57.28.47.32.73.04.54-.03.82c-.09.38-.24.72-.45 1s-.46.51-.77.68-.64.3-1.01.36-.75.07-1.15.02c-.36-.04-.69-.14-1-.27s-.57-.32-.79-.54a1.9 1.9 0 0 1-.45-.81c-.08-.31-.08-.66.01-1.04l1.39.17c-.06.24-.05.47.02.67.08.2.21.36.39.5s.42.21.7.25c.29.04.56.02.79-.06s.43-.21.59-.39a1.6 1.6 0 0 0 .34-.7c.07-.32.07-.59-.01-.8s-.23-.38-.44-.51a2 2 0 0 0-.8-.25l-.83-.1zm10.8.16l-.31 1.35a6.6 6.6 0 0 1-.58 1.63c-.23.44-.5.78-.81 1.03s-.64.42-1.01.51a3.2 3.2 0 0 1-1.17.06c-.33-.04-.63-.12-.89-.24a2 2 0 0 1-.67-.48c-.19-.2-.33-.46-.42-.76s-.14-.65-.13-1.06.07-.86.19-1.38l.31-1.35a6.4 6.4 0 0 1 .57-1.61c.23-.43.5-.77.81-1.02s.64-.42 1.01-.51a3.3 3.3 0 0 1 1.17-.05 3.1 3.1 0 0 1 .89.24c.26.11.49.27.67.47.19.2.33.45.42.75s.14.64.14 1.05a6.5 6.5 0 0 1-.19 1.37zm-1.74 1.37l.4-1.74c.08-.33.12-.62.14-.87s.01-.48-.03-.66-.09-.34-.18-.46-.19-.22-.32-.29-.28-.12-.46-.14c-.22-.03-.42-.01-.6.05s-.36.17-.51.33a2.4 2.4 0 0 0-.43.67 5.8 5.8 0 0 0-.33 1.03l-.4 1.74a6 6 0 0 0-.14.88c-.02.26-.01.48.02.67s.09.34.17.47c.09.13.19.23.32.3s.29.12.46.14c.22.03.42.01.61-.05s.36-.18.52-.34.3-.4.43-.69.24-.64.33-1.05z" fill="#000"/></g><rect width="220.65" height="413.53" rx="17.23" transform="matrix(.9903 .1392 -.2248 .9744 208.91 120.156)" fill="#e5e5e5"/><rect width="220.65" height="413.53" rx="17.23" transform="matrix(.9903 .1392 -.2248 .9744 203.529 116.922)" class="B"/><rect width="66.11" height="24.14" rx="2.76" transform="matrix(.9903 .1392 -.2248 .9744 199.645 477.137)" class="D"/><path d="M218.15 490.7a.9.9 0 0 0-.28-.8c-.22-.21-.53-.35-.93-.4-.28-.04-.54-.03-.77.03a1.3 1.3 0 0 0-.57.29c-.15.14-.25.3-.29.5-.04.16-.03.31.02.44s.13.24.24.34.23.18.37.25l.4.19.64.27c.21.08.42.19.63.31a2.5 2.5 0 0 1 .57.45c.16.18.28.38.35.62s.08.51 0 .82a2 2 0 0 1-.54.99c-.27.27-.62.47-1.04.59a3.5 3.5 0 0 1-1.45.07c-.52-.07-.95-.22-1.3-.43s-.59-.49-.73-.82-.18-.7-.11-1.12l1.05.15c-.04.25 0 .47.1.65s.26.33.47.44.45.18.72.22c.3.04.57.03.82-.03s.47-.16.64-.31.28-.33.34-.56c.05-.2.03-.38-.06-.52s-.22-.27-.4-.39-.38-.22-.62-.32l-.77-.34a2.9 2.9 0 0 1-1.17-.84c-.26-.34-.33-.74-.22-1.22.09-.39.28-.72.56-.99s.63-.45 1.04-.56.85-.14 1.31-.07.87.21 1.19.42.56.48.7.79.18.65.1 1.02l-1.01-.14zm4.91 3.7l.69-3 1.02.14-1.18 5.13-1-.14.21-.89h-.05c-.18.26-.43.46-.74.6s-.65.19-1.04.13c-.34-.05-.62-.16-.84-.34s-.37-.43-.45-.74-.07-.67.03-1.1l.75-3.26 1.01.14-.73 3.14c-.08.35-.05.64.1.88s.38.38.7.42c.19.03.39.01.6-.06s.4-.19.57-.36.29-.4.35-.69zm1.97 2.47l1.58-6.84 1.02.14-.59 2.54.06.01a3.3 3.3 0 0 1 .34-.33c.14-.12.33-.23.55-.3s.49-.1.82-.05c.42.06.77.22 1.06.47s.47.59.57 1.01.08.91-.04 1.46-.33 1.02-.61 1.39a2.5 2.5 0 0 1-.99.8c-.38.17-.78.22-1.2.16-.32-.04-.56-.13-.74-.27s-.3-.28-.38-.43a2.5 2.5 0 0 1-.18-.41l-.08-.01-.19.8-.99-.14zm1.59-2.43a2.6 2.6 0 0 0-.06.97 1.3 1.3 0 0 0 .31.7c.17.18.4.29.69.33a1.3 1.3 0 0 0 .82-.13c.24-.13.44-.33.61-.59s.29-.56.37-.9c.08-.34.1-.65.05-.93s-.14-.52-.31-.7-.41-.3-.71-.34c-.3-.04-.56 0-.8.12s-.44.31-.6.56-.29.56-.37.91zm4.32 3.26l1.18-5.13.97.14-.19.84.06.01c.17-.27.4-.46.69-.59s.6-.16.94-.12.62.17.82.36.33.44.37.74l.05.01c.19-.26.44-.45.75-.57s.65-.16 1.03-.11c.47.07.83.27 1.06.6s.28.8.15 1.38l-.8 3.44-1.01-.14.77-3.35c.08-.35.04-.61-.12-.8s-.37-.29-.63-.33c-.33-.05-.61.02-.84.19s-.38.41-.45.73l-.75 3.27-1.01-.14.79-3.41c.06-.28.03-.51-.11-.71s-.35-.31-.63-.35c-.19-.03-.38 0-.57.08s-.34.19-.48.36-.23.36-.29.59l-.73 3.16-1.02-.14zm8.45 1.19l1.19-5.13 1.02.14-1.18 5.13-1.02-.14zm1.88-5.85c-.18-.02-.31-.1-.42-.24s-.13-.28-.09-.45.13-.3.28-.4a.7.7 0 0 1 .5-.11c.18.03.31.11.41.24s.13.28.09.45-.13.29-.29.4a.7.7 0 0 1-.49.11zm4.12 1.4l-.19.8-2.85-.4.19-.8 2.85.4zm-1.8-1.52l1.02.14-1.12 4.86c-.05.19-.05.34-.01.45s.1.18.18.23.19.08.3.09c.08.01.15.02.22.01l.15-.01-.01.85c-.06.01-.15.02-.27.03s-.25 0-.42-.02c-.27-.03-.51-.12-.71-.25s-.36-.31-.46-.53-.11-.49-.04-.8l1.17-5.06z" class="B"/><g clip-path="url(#L)" class="F H I"><use href="#W"/></g><g class="C"><rect width="43.05" height="4.31" rx="2.15" transform="matrix(.9903 .1392 -.2248 .9744 148.43 432.02)"/><rect width="25.83" height="2.15" rx="1.08" transform="matrix(.9903 .1392 -.2248 .9744 147.293 440.523)"/></g><g clip-path="url(#M)" class="F H I"><path d="M235.23 403.11l8.28 1.16-1.88 8.15a4.2 4.2 0 0 0 3.5 5.09l8.28 1.16-4.21 18.23a3.5 3.5 0 0 1-3.88 2.66l-17.93-2.52c-.84-.12-1.57-.56-2.02-1.22s-.61-1.5-.42-2.33l6.4-27.72a3.5 3.5 0 0 1 3.88-2.67zm17.46 11.47l-6.68-.94c-.16-.02-.3-.11-.38-.23s-.12-.28-.08-.44l1.52-6.57 5.62 8.18z"/></g><g class="C"><rect width="43.05" height="4.31" rx="2.15" transform="matrix(.9903 .1392 -.2248 .9744 214.516 441.312)"/><rect width="25.83" height="2.15" rx="1.08" transform="matrix(.9903 .1392 -.2248 .9744 213.379 449.816)"/></g><g clip-path="url(#N)" class="F H I"><path d="M301.32 412.4l8.28 1.16-1.88 8.15a4.2 4.2 0 0 0 3.5 5.09l8.28 1.16-4.21 18.23a3.5 3.5 0 0 1-3.88 2.66l-17.93-2.52c-.84-.12-1.57-.56-2.02-1.22s-.61-1.5-.42-2.33l6.4-27.72a3.5 3.5 0 0 1 3.88-2.67zm17.46 11.47l-6.68-.94c-.16-.02-.3-.11-.38-.23s-.12-.28-.08-.44l1.52-6.57 5.62 8.18z"/></g><g class="C"><rect width="43.05" height="4.31" rx="2.15" transform="matrix(.9903 .1392 -.2248 .9744 280.6 450.605)"/><rect width="25.83" height="2.15" rx="1.08" transform="matrix(.9903 .1392 -.2248 .9744 279.463 459.109)"/></g><g class="E"><path d="M250.62 382.71c.03-.13.02-.25-.02-.36s-.14-.23-.3-.33a3.8 3.8 0 0 0-.74-.34c-.29-.11-.55-.23-.79-.36s-.42-.27-.57-.43-.25-.34-.31-.53-.06-.41 0-.65a1.6 1.6 0 0 1 .31-.63c.15-.19.34-.35.57-.48a2.4 2.4 0 0 1 .78-.27 3.4 3.4 0 0 1 .96-.01c.48.07.88.21 1.19.42s.53.46.65.76.14.61.07.95l-1.29-.18c.03-.15.03-.3-.02-.44s-.13-.27-.27-.37-.31-.17-.55-.21c-.22-.03-.41-.02-.57.03s-.28.12-.38.22-.15.21-.18.34c-.02.09-.02.18-.01.26.02.08.07.16.14.23s.18.14.32.22a4.8 4.8 0 0 0 .55.24 5 5 0 0 1 1.06.51c.29.19.49.4.61.65s.14.54.06.88c-.06.25-.17.48-.32.67s-.35.35-.59.47-.52.2-.82.25a3.5 3.5 0 0 1-.99-.01 2.8 2.8 0 0 1-1.27-.46c-.32-.24-.54-.51-.66-.82a1.6 1.6 0 0 1-.07-.94l1.24.17a.9.9 0 0 0 .07.59c.09.15.22.27.38.36a1.7 1.7 0 0 0 .54.17 1.7 1.7 0 0 0 .6-.01c.17-.04.31-.11.42-.2s.18-.21.21-.35zm-3.27-4.74l-.21.93-3.25-.46.21-.92 3.25.46zm-1.99-1.72l1.28.18-1.27 5.5c-.04.18-.05.31-.02.42s.09.17.18.21.19.07.31.09l.26.02h.2l-.22.97a3.5 3.5 0 0 1-.39.03 2.8 2.8 0 0 1-.49-.03 1.9 1.9 0 0 1-.75-.26c-.21-.13-.34-.33-.42-.58s-.07-.57.02-.96l1.29-5.58zm-5.74 1.88l-1.03 4.47-1.29-.18 1.31-5.68 1.21.17-.2 1.22zm-.56 1.38l-.41-.06a3.9 3.9 0 0 1 .43-1.08c.19-.32.41-.59.67-.8s.54-.37.85-.46.64-.12.99-.07c.28.04.52.11.73.22s.38.25.5.44.2.43.22.71a3.4 3.4 0 0 1-.1 1l-.85 3.67-1.29-.18.85-3.68c.06-.27.07-.49.03-.66s-.13-.3-.27-.39-.31-.15-.54-.18a1.4 1.4 0 0 0-.62.05c-.19.06-.37.17-.53.31-.15.14-.29.31-.4.51s-.19.41-.25.65zm-5.09 2.55c-.43-.06-.8-.18-1.11-.37a2.2 2.2 0 0 1-.74-.71c-.18-.29-.3-.6-.35-.95a3 3 0 0 1 .06-1.11l.05-.21a3.8 3.8 0 0 1 .48-1.18c.21-.34.47-.62.76-.85a2.7 2.7 0 0 1 .97-.48c.35-.09.71-.11 1.09-.06a2.5 2.5 0 0 1 1.03.36c.27.18.49.41.64.69s.23.59.26.94a3.8 3.8 0 0 1-.1 1.14l-.12.54-4.46-.63.21-.91 3.19.45.02-.1c.05-.23.05-.45.01-.66s-.12-.39-.27-.54-.36-.24-.64-.28c-.21-.03-.41-.01-.6.06a1.3 1.3 0 0 0-.5.33 2.3 2.3 0 0 0-.4.57 3.4 3.4 0 0 0-.27.78l-.05.21a2.2 2.2 0 0 0-.06.71c.02.22.08.42.18.59s.23.32.41.44.38.19.63.22a1.9 1.9 0 0 0 .87-.07c.27-.09.52-.23.75-.43l.53.74a3.6 3.6 0 0 1-.6.45c-.23.14-.51.23-.82.29a3.2 3.2 0 0 1-1.03.01zm-9.7-6.15l-1.04 4.53-1.29-.18 1.31-5.68 1.21.17-.19 1.17zm-.55 1.45l-.44-.07a4.1 4.1 0 0 1 .4-1.07c.18-.32.39-.59.64-.8s.53-.38.85-.47.67-.12 1.05-.06c.26.04.49.11.69.22.2.1.37.25.49.43s.2.41.23.67 0 .57-.08.93l-.87 3.79-1.29-.18.85-3.68a1.4 1.4 0 0 0 .02-.67c-.05-.17-.14-.3-.28-.39s-.31-.15-.53-.18c-.24-.03-.46-.02-.65.05s-.35.17-.5.32-.26.31-.36.51-.17.42-.23.65zm3.66.17l-.63.05a3.5 3.5 0 0 1 .37-.95c.17-.29.38-.54.62-.75s.52-.36.84-.45.65-.12 1.01-.06a2.3 2.3 0 0 1 .76.23 1.3 1.3 0 0 1 .51.45 1.5 1.5 0 0 1 .22.71c.02.28-.01.61-.09.98l-.85 3.68-1.29-.18.85-3.68c.07-.29.08-.51.03-.69s-.14-.29-.28-.37-.31-.14-.53-.17c-.2-.03-.38-.02-.55.04a1.2 1.2 0 0 0-.45.25 1.6 1.6 0 0 0-.33.4c-.09.15-.15.33-.2.52zm-7.74 1.02l1-4.34 1.29.18-1.31 5.68-1.22-.17.24-1.35zm.45-1.16l.43.05c-.09.38-.21.73-.37 1.04a2.6 2.6 0 0 1-.59.78c-.24.21-.5.36-.81.46s-.65.11-1.04.05c-.28-.04-.53-.12-.75-.23s-.39-.27-.52-.46-.21-.43-.24-.71a3 3 0 0 1 .09-.99l.85-3.67 1.28.18-.85 3.68c-.05.21-.06.38-.05.53s.06.26.13.36.15.17.26.22.22.09.35.1c.37.05.67.02.91-.09s.44-.29.59-.51.26-.49.33-.79zm-7.38.64c.21.03.41.02.59-.04s.35-.16.49-.29.24-.29.29-.49l1.21.17c-.09.37-.28.69-.56.96s-.62.47-1.01.6-.8.16-1.23.1c-.44-.06-.81-.19-1.1-.38s-.52-.44-.67-.73a2.6 2.6 0 0 1-.28-.98 3.6 3.6 0 0 1 .09-1.12l.04-.18a4 4 0 0 1 .41-1.08 3.1 3.1 0 0 1 .7-.84 2.6 2.6 0 0 1 .96-.5 2.8 2.8 0 0 1 1.2-.06c.46.06.85.21 1.15.44a1.8 1.8 0 0 1 .65.87c.13.35.15.73.06 1.16l-1.21-.17c.04-.21.03-.41-.03-.59s-.15-.34-.3-.47a1.1 1.1 0 0 0-.57-.24c-.26-.04-.49-.01-.68.07s-.36.2-.5.36a2.1 2.1 0 0 0-.34.56 4.4 4.4 0 0 0-.22.67l-.04.18a4 4 0 0 0-.1.69c-.01.23.01.43.07.62a1 1 0 0 0 .31.47c.15.13.35.21.62.24zm-8.36-3.11l.03-.12a3.8 3.8 0 0 1 .44-1.12 3.1 3.1 0 0 1 .73-.85c.29-.23.62-.39.98-.49s.76-.12 1.18-.06.78.19 1.08.38a2.1 2.1 0 0 1 .71.73c.17.29.28.62.32.99s.01.76-.08 1.16l-.03.12a3.8 3.8 0 0 1-.44 1.11 3.2 3.2 0 0 1-.74.85 2.8 2.8 0 0 1-.98.49c-.36.1-.75.12-1.18.06a2.7 2.7 0 0 1-1.09-.37 2.2 2.2 0 0 1-.7-.73c-.17-.3-.28-.63-.32-.99a3.6 3.6 0 0 1 .08-1.16zm1.31.06l-.03.12a3.2 3.2 0 0 0-.09.74c0 .24.04.45.11.63a1.1 1.1 0 0 0 .34.47c.16.12.35.2.6.24a1.3 1.3 0 0 0 .65-.06c.2-.07.38-.19.53-.34s.28-.34.39-.56.19-.46.25-.71l.03-.12c.06-.25.09-.49.08-.73s-.04-.45-.12-.64-.19-.35-.34-.47-.35-.21-.59-.24-.46-.01-.66.06a1.4 1.4 0 0 0-.53.35c-.16.16-.28.35-.39.57a3.3 3.3 0 0 0-.25.7zm-6.46 2.08l-1.66-.23.25-1.04 1.65.23c.48.07.91.02 1.28-.14a2.2 2.2 0 0 0 .94-.78c.25-.36.45-.81.57-1.34l.1-.41c.09-.41.13-.79.11-1.12s-.09-.62-.23-.86-.32-.44-.56-.59-.53-.25-.87-.3l-1.74-.25.24-1.05 1.74.25c.52.07.97.22 1.36.46s.7.52.94.88.39.78.46 1.25a4.2 4.2 0 0 1-.09 1.53l-.09.4a4.6 4.6 0 0 1-.59 1.46c-.27.42-.6.77-.98 1.04s-.82.46-1.29.57a4.1 4.1 0 0 1-1.5.05zm.85-7.77l-1.76 7.65-1.34-.19 1.76-7.65 1.34.19zm-5.64 1.23l-.21.92-3.25-.46.21-.92 3.25.46zm-1.99-1.72l1.29.18-1.27 5.5c-.04.18-.05.31-.02.42.03.1.09.17.18.21s.19.07.31.09l.26.02h.2l-.22.97a3.5 3.5 0 0 1-.39.03 2.9 2.9 0 0 1-.49-.03c-.3-.04-.54-.13-.75-.26s-.34-.33-.41-.58-.07-.57.02-.96l1.29-5.58zm-5.11 5.66c.21.03.41.02.59-.04s.35-.16.49-.29.24-.29.29-.48l1.21.17c-.09.37-.28.69-.56.96s-.62.47-1.01.6-.8.16-1.23.1c-.44-.06-.81-.19-1.1-.38a1.9 1.9 0 0 1-.67-.74c-.15-.3-.25-.62-.28-.98a3.6 3.6 0 0 1 .09-1.12l.04-.18a4 4 0 0 1 .41-1.08 3.1 3.1 0 0 1 .7-.84 2.6 2.6 0 0 1 .96-.5 2.8 2.8 0 0 1 1.2-.06c.46.06.85.21 1.15.45s.52.52.65.87.15.73.06 1.16l-1.21-.17c.04-.21.03-.41-.03-.59s-.15-.34-.3-.46-.33-.2-.57-.24c-.26-.04-.49-.01-.68.07s-.36.2-.5.36a2.1 2.1 0 0 0-.34.56 4.1 4.1 0 0 0-.22.67l-.04.18a4.1 4.1 0 0 0-.1.69c-.01.23.01.43.07.62a1 1 0 0 0 .31.47c.15.13.35.21.62.24zm-5.9.21c-.43-.06-.8-.18-1.11-.37a2.2 2.2 0 0 1-.74-.71c-.18-.29-.3-.6-.35-.95a3 3 0 0 1 .06-1.11l.05-.21a3.8 3.8 0 0 1 .48-1.18c.21-.34.47-.62.76-.85a2.6 2.6 0 0 1 .97-.48c.35-.09.71-.11 1.09-.06a2.6 2.6 0 0 1 1.04.36c.28.18.49.41.63.69s.24.59.26.94-.01.74-.1 1.15l-.12.54-4.46-.63.21-.91 3.19.45.02-.1c.04-.23.05-.45.01-.66s-.12-.39-.27-.54-.36-.24-.64-.28c-.21-.03-.41-.01-.6.06s-.35.17-.5.32a2.3 2.3 0 0 0-.4.57 3.6 3.6 0 0 0-.27.78l-.05.21c-.06.25-.08.48-.06.71s.08.42.18.6.23.32.41.44.38.19.63.22a1.9 1.9 0 0 0 .87-.07c.27-.09.52-.23.75-.43l.53.74a3.6 3.6 0 0 1-.6.45c-.23.14-.51.23-.82.29s-.65.07-1.03.01z"/><use href="#X"/><path d="M172.77 373.45c-.43-.06-.8-.18-1.11-.37a2.3 2.3 0 0 1-.74-.71c-.18-.28-.3-.6-.35-.95s-.03-.72.06-1.11l.05-.21c.1-.44.26-.84.48-1.18s.47-.62.76-.85a2.7 2.7 0 0 1 .97-.48c.35-.09.71-.11 1.09-.06a2.5 2.5 0 0 1 1.03.36c.27.18.49.41.64.69a2.2 2.2 0 0 1 .26.94 3.9 3.9 0 0 1-.1 1.15l-.12.54-4.46-.63.21-.91 3.19.45.02-.1c.05-.23.05-.45.01-.66s-.12-.39-.27-.54-.36-.24-.64-.28c-.21-.03-.41-.01-.6.06-.18.06-.35.17-.5.33a2.5 2.5 0 0 0-.4.57 3.4 3.4 0 0 0-.27.78l-.05.21a2.3 2.3 0 0 0-.06.71c.02.22.08.42.18.59a1.3 1.3 0 0 0 .41.44c.17.11.38.19.63.22a1.9 1.9 0 0 0 .87-.07c.27-.09.52-.23.75-.43l.53.74a3.6 3.6 0 0 1-.6.45c-.23.14-.51.23-.82.29s-.65.07-1.03.01zm-4.47-2.76c.04-.16.04-.3.02-.43s-.08-.25-.17-.37-.25-.24-.45-.37c-.19-.13-.45-.27-.76-.42-.34-.16-.66-.34-.94-.52a3.2 3.2 0 0 1-.7-.6c-.19-.22-.32-.45-.39-.71s-.07-.55 0-.86.2-.59.39-.82a2.3 2.3 0 0 1 .72-.58c.29-.15.62-.26.98-.31a3.9 3.9 0 0 1 1.16 0 3.1 3.1 0 0 1 1.41.52c.36.26.63.6.77.98a2.1 2.1 0 0 1 .07 1.22l-1.33-.19c.06-.25.05-.48-.01-.69s-.19-.39-.38-.53-.45-.24-.79-.28a2 2 0 0 0-.82.03c-.23.06-.42.17-.56.32a1.1 1.1 0 0 0-.28.52c-.03.14-.03.28.01.41s.12.25.23.37.27.24.46.35l.68.36a7.4 7.4 0 0 1 1.03.58c.29.2.51.4.68.63s.28.46.33.72.04.54-.03.85c-.07.32-.21.6-.4.84a2.2 2.2 0 0 1-.72.58c-.28.14-.61.24-.97.29s-.75.04-1.16-.02a4.1 4.1 0 0 1-1.07-.3 3 3 0 0 1-.88-.58 2.1 2.1 0 0 1-.53-.86c-.1-.33-.11-.7-.01-1.1l1.34.19c-.06.25-.06.47-.02.65a1 1 0 0 0 .27.48 1.5 1.5 0 0 0 .49.32 2.7 2.7 0 0 0 .65.17c.31.04.59.04.81-.02s.42-.16.56-.3.24-.32.29-.52z"/></g><g clip-path="url(#O)"><path d="M187.58 293.1a4.8 4.8 0 0 0-4.92 3.38l-2.52 9.58-1.92 9.66c-.34 2.17.95 4.04 3.1 4.51l3.44.68 1.32-6.2 2.52-9.58a4.8 4.8 0 0 1 4.92-3.38l9.85 1.08 6.26 1 .61-3.46c.34-2.17-.95-4.05-3.1-4.51l-9.71-1.67-9.84-1.08z" class="B"/><use href="#Y" class="F"/><path d="M204.42 311.64c-.15.67-.03 1.35.34 1.89s.96.9 1.64.99 1.39-.08 1.98-.48 1.01-1.01 1.16-1.68.03-1.35-.34-1.89-.96-.9-1.64-.99-1.39.08-1.98.48-1.01 1.01-1.16 1.68zm8.18 13.63l-.86 2.97a4.8 4.8 0 0 1-4.92 3.38l-9.84-1.08-9.71-1.67c-2.15-.46-3.44-2.33-3.1-4.51l.65-3.72c3.67-2.37 6.18-3.67 7.77-4.39 1.42-.63 2.89-.29 3.82.79s2.33 2.82 4.3 5.55l4.64-2.45c1.41-.63 2.89-.29 3.82.79l3.41 4.33z" class="B"/><g class="J K L"><path d="M210.29 299.45a3.8 3.8 0 0 0-3.11-3.6l-9.75-1.68-9.85-1.08a4.8 4.8 0 0 0-4.92 3.38l-2.52 9.58-1.92 9.7a3.8 3.8 0 0 0 2.24 4.19" class="G"/><use href="#Y"/><path d="M212.59 325.27l-3.41-4.33c-.93-1.08-2.41-1.43-3.82-.79a47.4 47.4 0 0 0-4.64 2.45l-4.3-5.55c-.93-1.08-2.41-1.42-3.82-.79-1.59.71-4.1 2.02-7.77 4.39m19.6-9c-.15.67-.03 1.35.34 1.89s.96.9 1.64.99 1.39-.08 1.98-.48 1.01-1.01 1.16-1.68.03-1.35-.34-1.89-.96-.9-1.64-.99-1.39.08-1.98.48-1.01 1.01-1.16 1.68z" class="G"/></g></g><g class="C"><rect width="43.05" height="4.31" rx="2.15" transform="matrix(.9903 .1392 -.2248 .9744 171.434 332.332)"/><rect width="25.83" height="2.15" rx="1.08" transform="matrix(.9903 .1392 -.2248 .9744 170.295 340.84)"/></g><g clip-path="url(#P)"><path d="M253.67 302.39a4.8 4.8 0 0 0-4.92 3.38l-2.52 9.58-1.92 9.66c-.34 2.17.95 4.04 3.1 4.51l3.44.68 1.31-6.2 2.52-9.58a4.8 4.8 0 0 1 4.92-3.38l9.84 1.08 6.26 1 .6-3.46c.34-2.17-.95-4.05-3.1-4.51l-9.71-1.67-9.84-1.08z" class="B"/><use href="#Z" class="F"/><use href="#a" class="B"/><g class="J K L"><use href="#b" class="G"/><use href="#Z"/><path d="M278.68 334.56l-3.41-4.33c-.93-1.08-2.4-1.43-3.82-.79a47.7 47.7 0 0 0-4.64 2.45l-4.3-5.55c-.93-1.08-2.41-1.42-3.82-.79-1.59.71-4.1 2.02-7.77 4.39m19.6-9c-.15.67-.03 1.35.34 1.89s.96.9 1.64.99 1.39-.08 1.98-.48 1.01-1.01 1.16-1.68.03-1.35-.34-1.89-.96-.9-1.64-.99-1.39.08-1.98.48-1.01 1.01-1.16 1.68z" class="G"/></g></g><g class="C"><rect width="43.05" height="4.31" rx="2.15" transform="matrix(.9903 .1392 -.2248 .9744 237.518 341.625)"/><rect width="25.83" height="2.15" rx="1.08" transform="matrix(.9903 .1392 -.2248 .9744 236.379 350.133)"/></g><g clip-path="url(#Q)"><path d="M319.75 311.68a4.8 4.8 0 0 0-4.92 3.38l-2.52 9.58-1.92 9.66c-.34 2.17.95 4.05 3.1 4.51l3.44.68 1.31-6.2 2.52-9.58a4.8 4.8 0 0 1 4.92-3.38l9.84 1.08 6.26 1 .6-3.46c.34-2.17-.95-4.05-3.1-4.51l-9.71-1.67-9.84-1.08z" class="B"/><use href="#c" class="F"/><path d="M336.58 330.23c-.15.67-.03 1.35.34 1.89s.96.9 1.64.99 1.39-.08 1.98-.48 1.01-1.01 1.16-1.68.03-1.35-.34-1.89-.96-.9-1.64-.99-1.39.08-1.98.48-1.01 1.01-1.16 1.68zm8.18 13.63l-.86 2.97a4.8 4.8 0 0 1-4.92 3.38l-9.84-1.08-9.71-1.67c-2.15-.46-3.44-2.33-3.1-4.51l.65-3.72c3.67-2.37 6.18-3.67 7.77-4.39 1.42-.63 2.89-.29 3.82.79s2.33 2.82 4.3 5.55l4.64-2.45c1.42-.63 2.89-.29 3.82.79l3.41 4.33z" class="B"/><g class="J K L"><path d="M342.46 318.04a3.8 3.8 0 0 0-3.11-3.6l-9.75-1.68-9.85-1.08a4.8 4.8 0 0 0-4.92 3.38l-2.52 9.58-1.93 9.7a3.8 3.8 0 0 0 2.24 4.19" class="G"/><use href="#c"/><path d="M344.76 343.85l-3.41-4.33c-.93-1.08-2.41-1.43-3.82-.79a47.7 47.7 0 0 0-4.64 2.45l-4.3-5.55c-.93-1.08-2.41-1.42-3.82-.79-1.59.71-4.1 2.02-7.77 4.39m19.6-9c-.15.67-.03 1.35.34 1.89s.96.9 1.64.99 1.39-.08 1.98-.48 1.01-1.01 1.16-1.68.03-1.35-.34-1.89-.96-.9-1.64-.99-1.39.08-1.98.48-1.01 1.01-1.16 1.68z" class="G"/></g></g><g class="C"><rect width="43.05" height="4.31" rx="2.15" transform="matrix(.9903 .1392 -.2248 .9744 303.6 350.918)"/><rect width="25.83" height="2.15" rx="1.08" transform="matrix(.9903 .1392 -.2248 .9744 302.463 359.426)"/></g><g class="E"><path d="M251.42 279.9c.03-.13.02-.24-.02-.35s-.14-.23-.3-.34-.4-.22-.74-.34c-.29-.11-.55-.23-.79-.36a2.4 2.4 0 0 1-.57-.43 1.3 1.3 0 0 1-.31-.53c-.06-.2-.06-.41 0-.65a1.6 1.6 0 0 1 .31-.63c.15-.19.34-.35.57-.48a2.4 2.4 0 0 1 .78-.28 3.4 3.4 0 0 1 .96-.01c.48.07.88.21 1.19.42s.53.46.65.76.15.61.07.95l-1.29-.18c.03-.15.03-.3-.02-.44s-.13-.27-.27-.37a1.2 1.2 0 0 0-.55-.21c-.22-.03-.41-.02-.57.03s-.28.12-.38.22-.15.21-.18.34c-.02.09-.02.18-.01.26s.07.16.15.23.18.15.32.22a5 5 0 0 0 .55.23c.42.15.77.32 1.05.51a1.7 1.7 0 0 1 .61.65c.12.25.14.54.06.88-.06.25-.17.47-.33.67-.15.19-.35.35-.59.48s-.51.2-.82.25a3.5 3.5 0 0 1-.99-.01c-.52-.07-.94-.23-1.27-.46s-.54-.51-.66-.83a1.6 1.6 0 0 1-.07-.94l1.24.18c-.04.24-.02.43.07.59s.22.28.38.36a1.7 1.7 0 0 0 .54.17 1.7 1.7 0 0 0 .6-.01c.17-.04.31-.11.42-.2s.18-.21.21-.35zm-9.39-2.6l.03-.12a3.8 3.8 0 0 1 .44-1.11c.2-.34.45-.62.74-.85a2.7 2.7 0 0 1 .98-.49 2.9 2.9 0 0 1 1.18-.06c.42.06.78.19 1.08.38a2.1 2.1 0 0 1 .71.73c.17.29.28.62.32.99s.01.75-.08 1.16l-.03.12c-.09.41-.24.78-.44 1.11s-.45.61-.74.84-.62.39-.98.49-.76.12-1.18.06a2.7 2.7 0 0 1-1.09-.37c-.3-.19-.53-.44-.7-.73a2.5 2.5 0 0 1-.32-.99 3.5 3.5 0 0 1 .08-1.16zm1.31.06l-.03.12a3.2 3.2 0 0 0-.09.74c0 .24.04.45.11.63a1.1 1.1 0 0 0 .34.47c.16.12.36.2.6.24.24.03.46.01.65-.06a1.5 1.5 0 0 0 .53-.34c.15-.15.28-.34.39-.56a3.2 3.2 0 0 0 .25-.71l.03-.12c.06-.25.08-.49.08-.73s-.04-.45-.12-.64-.19-.35-.34-.47-.35-.21-.59-.24-.46-.01-.66.06a1.4 1.4 0 0 0-.53.35c-.16.16-.28.35-.39.57a3.3 3.3 0 0 0-.24.7zm-1.39-3.07l-.21.93-3.25-.46.21-.92 3.25.46zm-1.99-1.72l1.29.18-1.27 5.5c-.04.18-.05.31-.02.41s.09.17.18.22.19.08.31.09l.26.02h.2l-.22.97a2.3 2.3 0 0 1-.39.03 2.8 2.8 0 0 1-.49-.03 1.9 1.9 0 0 1-.75-.26c-.21-.13-.34-.33-.41-.59s-.07-.57.02-.96l1.29-5.58zm-7.77 3.35l.03-.12a3.8 3.8 0 0 1 .44-1.11 3.1 3.1 0 0 1 .73-.85 2.7 2.7 0 0 1 .98-.49 2.9 2.9 0 0 1 1.18-.06c.42.06.78.19 1.08.38a2.1 2.1 0 0 1 .71.73c.17.29.28.62.32.99s.01.75-.08 1.17l-.03.12a3.8 3.8 0 0 1-.44 1.11 3.1 3.1 0 0 1-.74.84 2.8 2.8 0 0 1-.98.49c-.36.1-.76.12-1.18.06a2.7 2.7 0 0 1-1.09-.37c-.3-.19-.53-.44-.7-.73a2.5 2.5 0 0 1-.32-.99 3.5 3.5 0 0 1 .08-1.17zm1.31.06l-.03.12a3.2 3.2 0 0 0-.09.74c0 .24.04.45.11.63a1.1 1.1 0 0 0 .34.47c.16.12.36.2.6.24.24.03.46.01.65-.06a1.5 1.5 0 0 0 .53-.34c.15-.15.28-.34.39-.56a3.2 3.2 0 0 0 .25-.71l.03-.12a2.9 2.9 0 0 0 .08-.73 1.7 1.7 0 0 0-.12-.64c-.07-.19-.19-.35-.34-.47s-.35-.21-.59-.24-.46-.01-.66.06a1.4 1.4 0 0 0-.53.35 2.1 2.1 0 0 0-.39.57 3.3 3.3 0 0 0-.24.7zm-4.64-5.99l-1.86 8.07-1.28-.18 1.86-8.07 1.28.18zm-1.38 4.98l-.41-.06c.09-.39.23-.75.42-1.06s.41-.59.66-.8.54-.38.85-.47.63-.12.97-.08a2.3 2.3 0 0 1 .74.22c.21.11.38.26.51.46s.2.43.23.72c.03.28 0 .62-.09 1.01l-.84 3.65-1.29-.18.84-3.66c.06-.27.07-.5.03-.67s-.13-.3-.27-.4-.31-.16-.53-.19c-.23-.03-.45-.01-.65.05s-.37.17-.52.31-.28.31-.39.51a2.7 2.7 0 0 0-.24.65zm-4.99-.49l-2.02-.29.24-1.04 2.02.28c.35.05.65.03.89-.05s.44-.21.58-.4.25-.41.31-.66a1.5 1.5 0 0 0 0-.7c-.05-.23-.17-.42-.36-.58s-.46-.26-.81-.31l-1.61-.23-1.52 6.6-1.34-.19 1.77-7.65 2.95.41c.6.09 1.09.26 1.46.53s.63.6.77 1 .15.83.04 1.3a2.6 2.6 0 0 1-.62 1.22c-.3.32-.69.55-1.15.68a4 4 0 0 1-1.6.07zm-6.14-3.78l-.21.92-3.25-.46.21-.93 3.25.46zm-1.99-1.72l1.28.18-1.27 5.5c-.04.18-.05.31-.02.42s.09.17.18.21.19.08.31.09l.26.02h.2l-.22.97a2.3 2.3 0 0 1-.39.03c-.14 0-.31 0-.49-.03a1.9 1.9 0 0 1-.75-.26c-.21-.13-.34-.33-.42-.58s-.07-.57.02-.96l1.29-5.58zm-5.11 5.65c.21.03.41.02.59-.04s.35-.16.49-.29.24-.29.29-.49l1.21.17c-.09.37-.28.69-.56.96s-.62.47-1.01.6-.8.16-1.23.1c-.44-.06-.81-.19-1.1-.38a1.9 1.9 0 0 1-.67-.74 2.5 2.5 0 0 1-.28-.98c-.03-.36 0-.73.09-1.13l.04-.18a4 4 0 0 1 .41-1.08 3.1 3.1 0 0 1 .7-.84 2.6 2.6 0 0 1 .96-.5 2.8 2.8 0 0 1 1.2-.06c.46.06.85.21 1.15.44s.52.52.65.87.15.73.06 1.16l-1.21-.17c.04-.21.03-.41-.03-.59-.05-.19-.15-.34-.3-.47a1.1 1.1 0 0 0-.57-.24c-.26-.04-.49-.01-.68.07s-.36.2-.5.36a2.1 2.1 0 0 0-.34.56 4.1 4.1 0 0 0-.22.67l-.04.18a4.4 4.4 0 0 0-.1.69c-.01.22.01.43.07.62a1 1 0 0 0 .31.47c.15.13.35.21.62.24zm-5.9.21c-.43-.06-.8-.18-1.11-.37a2.2 2.2 0 0 1-.74-.71c-.18-.29-.3-.6-.35-.95s-.03-.72.06-1.11l.05-.21a3.8 3.8 0 0 1 .48-1.18c.21-.34.47-.62.76-.85a2.7 2.7 0 0 1 .97-.48c.35-.09.71-.11 1.09-.06a2.5 2.5 0 0 1 1.03.36c.27.18.49.41.64.69s.23.59.26.94a3.9 3.9 0 0 1-.1 1.15l-.12.54-4.46-.63.21-.91 3.19.45.02-.1c.05-.23.05-.45.01-.66s-.12-.39-.27-.54-.36-.24-.64-.28c-.21-.03-.41-.01-.6.06a1.3 1.3 0 0 0-.5.32 2.3 2.3 0 0 0-.4.57 3.4 3.4 0 0 0-.27.78l-.05.21a2.2 2.2 0 0 0-.06.71c.02.22.08.42.18.59s.23.32.41.44.38.19.63.22a1.9 1.9 0 0 0 .87-.07c.27-.09.52-.23.75-.43l.53.74a3.6 3.6 0 0 1-.6.45c-.23.14-.51.23-.82.29s-.65.07-1.03.01z"/><use href="#X" x="21.94" y="-99.82"/><path d="M194.71 273.63c-.43-.06-.8-.18-1.11-.37a2.2 2.2 0 0 1-.74-.71c-.18-.29-.3-.6-.35-.95a3 3 0 0 1 .06-1.11l.05-.21a3.8 3.8 0 0 1 .48-1.18c.22-.34.47-.62.76-.85s.62-.38.97-.48.71-.11 1.09-.06a2.6 2.6 0 0 1 1.04.36c.28.18.49.41.63.69s.24.59.26.94-.01.74-.1 1.15l-.12.54-4.46-.63.21-.91 3.19.45.02-.1c.05-.23.05-.45.01-.66s-.12-.39-.27-.54-.36-.24-.64-.28c-.21-.03-.41-.01-.6.06s-.35.17-.5.32a2.3 2.3 0 0 0-.4.57 3.6 3.6 0 0 0-.27.78l-.05.21c-.06.25-.08.48-.06.71s.08.42.18.6a1.3 1.3 0 0 0 .41.44c.17.11.38.19.63.22.31.04.6.02.87-.07s.52-.23.75-.43l.53.74c-.16.16-.37.31-.6.45s-.51.23-.82.29-.65.07-1.03.01zm-4.47-2.77a1.1 1.1 0 0 0 .02-.43c-.02-.13-.07-.25-.17-.37s-.25-.24-.44-.37a6.4 6.4 0 0 0-.76-.42c-.34-.16-.66-.34-.94-.52a3.2 3.2 0 0 1-.7-.6c-.19-.22-.32-.46-.39-.71s-.07-.55 0-.86.2-.59.39-.82.44-.43.72-.58.62-.26.98-.31a4.1 4.1 0 0 1 1.16 0 3.1 3.1 0 0 1 1.42.52 2.1 2.1 0 0 1 .77.98c.15.39.17.79.07 1.22l-1.33-.19a1.3 1.3 0 0 0-.01-.69 1 1 0 0 0-.38-.53c-.19-.14-.45-.24-.79-.28a2 2 0 0 0-.82.03c-.23.06-.42.17-.56.32a1.1 1.1 0 0 0-.28.52c-.03.14-.03.28.01.41s.12.25.23.37.27.24.46.35l.68.36a6.8 6.8 0 0 1 1.03.58 2.9 2.9 0 0 1 .68.63c.17.22.28.46.33.72s.04.54-.03.85a2.1 2.1 0 0 1-.4.84c-.19.24-.43.43-.72.58-.28.14-.61.24-.97.29a4.3 4.3 0 0 1-1.16-.02c-.37-.05-.73-.15-1.07-.3a3 3 0 0 1-.88-.58c-.25-.24-.43-.53-.53-.86s-.11-.7-.02-1.1l1.34.19c-.06.25-.06.47-.02.65a1 1 0 0 0 .27.48c.13.13.29.24.49.32a2.7 2.7 0 0 0 .65.17c.31.04.58.04.81-.02s.42-.16.56-.3.24-.32.29-.52zm72.7-87.03l.03-.12c.09-.41.24-.78.44-1.11a3.1 3.1 0 0 1 .73-.85 2.7 2.7 0 0 1 .98-.49 2.9 2.9 0 0 1 1.18-.06 2.6 2.6 0 0 1 1.08.38c.3.19.54.43.71.73a2.5 2.5 0 0 1 .32.99 3.5 3.5 0 0 1-.08 1.16l-.03.12c-.1.41-.24.78-.45 1.11a3.1 3.1 0 0 1-.74.84 2.8 2.8 0 0 1-.98.49c-.36.1-.76.12-1.18.06s-.79-.19-1.09-.38-.53-.44-.7-.73a2.5 2.5 0 0 1-.32-.99 3.5 3.5 0 0 1 .08-1.17zm1.31.06l-.03.12a3.2 3.2 0 0 0-.09.74c0 .24.04.45.11.63a1.1 1.1 0 0 0 .34.47c.16.12.36.2.6.24.24.03.46.01.65-.06a1.5 1.5 0 0 0 .53-.34c.15-.15.28-.34.39-.56s.19-.46.25-.71l.03-.12c.06-.25.09-.5.08-.73a1.7 1.7 0 0 0-.12-.64c-.07-.19-.19-.35-.34-.47s-.35-.21-.59-.24-.46-.01-.67.06a1.4 1.4 0 0 0-.53.35 2.1 2.1 0 0 0-.39.57 3.3 3.3 0 0 0-.25.7zm-5.04 2.38c-.43-.06-.8-.18-1.11-.37a2.2 2.2 0 0 1-.74-.71c-.18-.29-.3-.6-.35-.95a3 3 0 0 1 .06-1.11l.05-.21a3.8 3.8 0 0 1 .48-1.18c.21-.34.47-.62.76-.85a2.7 2.7 0 0 1 .97-.48c.35-.09.71-.11 1.09-.06a2.6 2.6 0 0 1 1.04.36c.28.18.49.41.64.69s.23.59.26.94a3.6 3.6 0 0 1-.11 1.15l-.12.54-4.46-.63.21-.91 3.19.45.02-.1c.05-.23.05-.45.01-.66s-.12-.39-.27-.54-.36-.24-.64-.28c-.21-.03-.41-.01-.6.06s-.35.17-.5.33a2.5 2.5 0 0 0-.4.57 3.4 3.4 0 0 0-.27.78l-.05.21a2.3 2.3 0 0 0-.06.71 1.5 1.5 0 0 0 .18.6 1.3 1.3 0 0 0 .4.44c.17.12.38.19.63.22.31.04.6.02.87-.07s.52-.23.75-.43l.53.74a3 3 0 0 1-.6.45c-.24.13-.51.23-.82.29a3.2 3.2 0 0 1-1.03.01zm-4.88-2l1.59-6.89 1.29.18-1.86 8.07-1.17-.16.15-1.19zm-3.39-2.13l.03-.11c.1-.43.24-.81.43-1.15s.41-.63.66-.86.54-.4.85-.49.65-.13 1-.08a1.9 1.9 0 0 1 .87.33 1.7 1.7 0 0 1 .54.67 2.7 2.7 0 0 1 .24.94c.03.35.02.74-.03 1.17l-.08.35a6.2 6.2 0 0 1-.49 1.08 3.4 3.4 0 0 1-.64.81c-.24.22-.51.38-.81.47s-.62.12-.97.07-.65-.16-.89-.35-.44-.42-.57-.7-.21-.61-.24-.98c-.02-.37.02-.76.11-1.17zm1.31.07l-.03.11a4 4 0 0 0-.1.73 1.9 1.9 0 0 0 .09.63c.06.18.17.33.31.45s.33.19.56.23c.29.04.55.01.76-.09s.41-.25.56-.45.29-.43.39-.69l.22-.95a2.2 2.2 0 0 0 0-.6c-.02-.19-.07-.36-.15-.5a1 1 0 0 0-.34-.37c-.15-.09-.32-.17-.54-.2a1.3 1.3 0 0 0-.63.06c-.18.07-.35.19-.5.35a2.2 2.2 0 0 0-.37.57 3.8 3.8 0 0 0-.24.72zm-1.81-3.14l-1.31 5.68-1.29-.18 1.31-5.68 1.29.18zm-1.03-1.69c.04-.19.15-.34.3-.45s.36-.15.59-.12.39.12.49.27.13.31.09.5a.7.7 0 0 1-.31.44c-.16.11-.35.15-.58.11s-.4-.12-.5-.26-.13-.31-.08-.5z"/><use href="#d"/><path d="M238.3 177.36l-.21.92-3.25-.46.21-.93 3.25.46zm-1.99-1.72l1.29.18-1.27 5.5c-.04.17-.05.31-.02.41s.09.17.18.21.19.08.31.09l.26.02h.2l-.22.97a2.3 2.3 0 0 1-.39.03c-.14 0-.31 0-.49-.03a1.9 1.9 0 0 1-.75-.26c-.21-.13-.34-.33-.42-.58s-.07-.57.02-.96l1.29-5.58zm-5.11 5.66c.21.03.41.02.59-.04s.35-.16.49-.29.24-.29.29-.49l1.21.17c-.09.37-.28.69-.56.96s-.62.47-1.01.6-.8.16-1.23.1c-.44-.06-.81-.19-1.1-.38a1.9 1.9 0 0 1-.67-.74 2.5 2.5 0 0 1-.28-.98c-.03-.36 0-.73.09-1.13l.04-.18a4 4 0 0 1 .41-1.08 3.1 3.1 0 0 1 .7-.84 2.6 2.6 0 0 1 .96-.5c.36-.1.76-.13 1.2-.07.46.07.85.21 1.15.45s.52.52.65.87.15.73.06 1.16l-1.21-.17c.04-.21.03-.41-.03-.59s-.15-.34-.3-.47a1.1 1.1 0 0 0-.57-.24c-.26-.04-.49-.01-.68.07s-.36.2-.5.36a2.1 2.1 0 0 0-.34.56 4.1 4.1 0 0 0-.22.67l-.04.18c-.05.23-.09.47-.1.69s.01.43.07.62a1 1 0 0 0 .31.47c.15.13.35.21.62.24zm-5.91.21c-.43-.06-.8-.18-1.11-.37a2.2 2.2 0 0 1-.74-.71c-.18-.29-.3-.6-.35-.95s-.03-.72.06-1.11l.05-.21a3.8 3.8 0 0 1 .48-1.18c.22-.34.47-.62.76-.85a2.7 2.7 0 0 1 .97-.48c.35-.09.71-.11 1.09-.06a2.6 2.6 0 0 1 1.04.36c.28.18.49.41.63.69a2.2 2.2 0 0 1 .26.94c.02.35-.01.74-.11 1.15l-.12.54-4.46-.63.21-.91 3.19.45.02-.1c.05-.23.05-.45.01-.66s-.12-.39-.27-.54-.36-.24-.64-.28c-.21-.03-.41-.01-.6.06s-.35.17-.5.33a2.5 2.5 0 0 0-.4.57 3.4 3.4 0 0 0-.27.78l-.05.21a2.3 2.3 0 0 0-.06.71c.02.22.08.42.18.59a1.4 1.4 0 0 0 .4.44c.17.12.38.19.63.22a1.9 1.9 0 0 0 .87-.07c.27-.09.52-.23.75-.43l.53.74a3.6 3.6 0 0 1-.6.45c-.23.14-.51.23-.82.29s-.65.07-1.03.01z"/><use href="#X" x="43.89" y="-193.16"/><path d="M216.65 180.29c-.43-.06-.8-.18-1.11-.37a2.2 2.2 0 0 1-.74-.71c-.18-.29-.3-.6-.35-.95a3 3 0 0 1 .06-1.11l.05-.21a3.8 3.8 0 0 1 .48-1.18c.21-.34.47-.62.76-.85s.62-.38.97-.48.71-.11 1.09-.06a2.6 2.6 0 0 1 1.04.36c.28.18.49.41.63.69a2.2 2.2 0 0 1 .26.94 3.9 3.9 0 0 1-.1 1.15l-.12.54-4.46-.63.21-.91 3.19.45.02-.1c.04-.23.05-.45.01-.66s-.12-.39-.27-.54-.36-.24-.64-.28c-.21-.03-.41-.01-.6.06s-.35.17-.5.33a2.3 2.3 0 0 0-.4.57 3.6 3.6 0 0 0-.27.78l-.05.21a2.3 2.3 0 0 0-.06.71c.02.22.08.42.18.59s.23.32.41.44.38.19.63.22a1.9 1.9 0 0 0 .87-.07c.27-.09.52-.23.75-.43l.53.74a3.6 3.6 0 0 1-.6.45c-.23.14-.51.23-.82.29s-.65.07-1.03.01zm-4.46-2.77c.04-.16.04-.3.02-.43s-.07-.25-.17-.37-.25-.24-.44-.37a6.4 6.4 0 0 0-.76-.42c-.34-.16-.66-.34-.94-.52a3.2 3.2 0 0 1-.7-.6c-.19-.22-.32-.45-.39-.71s-.07-.55 0-.86.2-.59.39-.82a2.3 2.3 0 0 1 .72-.58c.29-.15.62-.26.98-.31a4.1 4.1 0 0 1 1.16 0c.58.08 1.05.26 1.42.53a2.1 2.1 0 0 1 .77.98c.15.39.17.79.07 1.22l-1.33-.19c.06-.25.06-.48-.01-.69a1 1 0 0 0-.38-.53 1.7 1.7 0 0 0-.79-.28 2 2 0 0 0-.82.03 1.2 1.2 0 0 0-.56.32c-.14.15-.23.32-.28.52-.03.14-.03.28.01.41s.12.25.24.37.27.24.46.35a6.1 6.1 0 0 0 .68.36 6.8 6.8 0 0 1 1.03.58c.28.19.51.4.68.63s.28.46.33.72.04.54-.03.85c-.07.32-.21.6-.4.84s-.43.43-.72.58-.61.24-.97.29a4.3 4.3 0 0 1-1.16-.02c-.37-.05-.73-.15-1.07-.3a3 3 0 0 1-.88-.58 2 2 0 0 1-.53-.85c-.1-.33-.11-.7-.02-1.1l1.34.19c-.06.25-.06.47-.02.65a1 1 0 0 0 .27.48c.13.13.29.24.49.32a2.7 2.7 0 0 0 .65.17c.31.04.58.04.81-.02s.42-.16.56-.3.24-.32.29-.52z"/></g><g clip-path="url(#R)"><use href="#e" class="C"/><path d="M227.37 223.59l-23.9-3.36a3.1 3.1 0 0 1-2.64-3.84l3.88-16.8c.43-1.85 2.31-3.14 4.19-2.88l23.9 3.36a3.1 3.1 0 0 1 2.64 3.84l-3.88 16.8c-.43 1.85-2.31 3.14-4.19 2.88z" class="D"/><g class="B"><path d="M226.4 208.71c1.41.2 2.82-.77 3.14-2.16s-.56-2.68-1.98-2.88-2.82.77-3.14 2.16.57 2.68 1.98 2.88z"/><use href="#f"/><use href="#g"/></g></g><g class="C"><rect width="43.05" height="4.31" rx="2.15" transform="matrix(.9903 .1392 -.2248 .9744 194.543 232.168)"/><rect width="25.83" height="2.15" rx="1.08" transform="matrix(.9903 .1392 -.2248 .9744 193.408 240.672)"/></g><g clip-path="url(#S)"><path d="M297.42 238.65l-23.9-3.36a3.1 3.1 0 0 1-2.64-3.84l3.88-16.8c.43-1.85 2.31-3.14 4.19-2.88l23.9 3.36a3.1 3.1 0 0 1 2.64 3.84l-3.88 16.8c-.43 1.85-2.31 3.14-4.19 2.88z" class="C"/><path d="M293.46 232.88l-23.9-3.36a3.1 3.1 0 0 1-2.64-3.84l3.88-16.8c.43-1.85 2.31-3.14 4.19-2.88l23.9 3.36a3.1 3.1 0 0 1 2.64 3.84l-3.88 16.8c-.43 1.85-2.31 3.14-4.19 2.88z" class="D"/><g class="B"><use href="#h"/><path d="M281.6 215.52l-10.22 9.93 15.37 2.16-5.14-12.08z"/><path d="M289.91 221.54l-6.58 5.58 10.24 1.44-3.67-7.02z"/></g></g><g class="C"><rect width="43.05" height="4.31" rx="2.15" transform="matrix(.9903 .1392 -.2248 .9744 260.631 241.461)"/><rect width="25.83" height="2.15" rx="1.08" transform="matrix(.9903 .1392 -.2248 .9744 259.496 249.965)"/></g><g clip-path="url(#T)"><path d="M363.5 247.94l-23.9-3.36a3.1 3.1 0 0 1-2.64-3.84l3.88-16.8c.43-1.85 2.31-3.14 4.19-2.88l23.9 3.36a3.1 3.1 0 0 1 2.64 3.84l-3.88 16.8c-.43 1.85-2.31 3.15-4.19 2.88z" class="C"/><path d="M359.54 242.18l-23.9-3.36a3.1 3.1 0 0 1-2.64-3.84l3.88-16.8c.43-1.85 2.31-3.14 4.19-2.88l23.9 3.36a3.1 3.1 0 0 1 2.64 3.84l-3.88 16.8c-.43 1.85-2.31 3.14-4.19 2.88z" class="D"/><g class="B"><path d="M358.57 227.3c1.41.2 2.82-.77 3.14-2.16s-.56-2.68-1.98-2.88-2.82.77-3.14 2.16.56 2.68 1.98 2.88zm-10.89-2.49l-10.22 9.92 15.37 2.16-5.14-12.08z"/><path d="M355.99 230.84l-6.58 5.58 10.24 1.44-3.67-7.02z"/></g></g><g class="C"><rect width="43.05" height="4.31" rx="2.15" transform="matrix(.9903 .1392 -.2248 .9744 326.713 250.754)"/><rect width="25.83" height="2.15" rx="1.08" transform="matrix(.9903 .1392 -.2248 .9744 325.576 259.262)"/></g><g clip-path="url(#U)" class="E"><path d="M398.79 162.53c-3.12-.44-6.16 1.65-6.87 4.72s1.21 5.86 4.33 6.29 6.16-1.65 6.87-4.72-1.21-5.86-4.32-6.29zm-2.36 10.23c-2.64-.37-4.31-2.8-3.71-5.39a5.4 5.4 0 0 1 5.89-4.05c2.64.37 4.31 2.8 3.71 5.39a5.4 5.4 0 0 1-5.89 4.05zm2.61-1.67l-1.67-2.43-2.65 1.82-.5-.72 2.65-1.82-1.67-2.43.79-.54 1.67 2.43 2.65-1.82.49.72-2.65 1.82 1.67 2.43-.79.54z"/></g><g class="E"><path d="M334.63 155.15l-.21.92-3.25-.46.21-.93 3.25.46zm-1.99-1.72l1.29.18-1.27 5.5c-.04.17-.05.31-.02.41s.09.17.18.21.19.08.31.09c.09.01.18.02.26.02h.2l-.22.97a3.5 3.5 0 0 1-.39.03c-.15 0-.31 0-.49-.03-.3-.04-.55-.13-.75-.26s-.34-.33-.42-.58-.07-.57.02-.96l1.29-5.58z"/><use href="#X" x="151.79" y="-213.74"/><path d="M325.59 158.37l1-4.34 1.29.18-1.31 5.68-1.22-.17.23-1.35zm.45-1.16l.43.05c-.09.38-.21.73-.37 1.04s-.36.57-.59.78a2.1 2.1 0 0 1-.81.46c-.31.09-.65.11-1.04.05-.28-.04-.53-.12-.75-.23s-.39-.27-.52-.46-.21-.43-.24-.71a3 3 0 0 1 .09-.99l.85-3.67 1.28.18-.85 3.68c-.05.21-.06.38-.04.53a.8.8 0 0 0 .13.36c.07.1.15.17.26.22s.22.09.35.1c.37.05.67.02.91-.09s.44-.28.59-.51.26-.49.33-.79zm-6.6.5l.63-2.71a1.1 1.1 0 0 0 .01-.54.7.7 0 0 0-.26-.39c-.13-.1-.31-.17-.54-.2-.21-.03-.4-.02-.57.03a1 1 0 0 0-.42.23c-.11.11-.19.24-.22.39l-1.28-.18c.05-.22.16-.43.32-.63s.36-.36.61-.49a2.7 2.7 0 0 1 .84-.28 3.3 3.3 0 0 1 1.01 0c.43.06.8.19 1.1.38s.52.44.64.76a1.9 1.9 0 0 1 .04 1.12l-.58 2.53a4.2 4.2 0 0 0-.11.71c-.01.21.01.39.04.55l-.02.08-1.32-.19c-.03-.14-.04-.32-.02-.54s.05-.43.09-.63zm.72-2.29l-.17.78-.92-.13a2.7 2.7 0 0 0-.65-.02c-.19.02-.36.06-.5.13s-.25.16-.34.27-.15.24-.18.39-.03.29.01.43.12.24.24.33.28.15.48.18c.26.04.5.02.72-.06s.41-.19.56-.33.25-.28.29-.42l.29.62a2.2 2.2 0 0 1-.33.43 2.6 2.6 0 0 1-.51.42c-.2.12-.42.22-.68.28s-.52.07-.82.03a2.1 2.1 0 0 1-.96-.36c-.26-.19-.44-.43-.55-.7s-.12-.58-.05-.9a1.9 1.9 0 0 1 .36-.77c.17-.21.39-.39.65-.52s.57-.21.91-.24a5 5 0 0 1 1.15.03l1.01.14z"/><use href="#d" x="68.18" y="-26.16"/><path d="M298.96 151.34l-1.04 4.53-1.29-.18 1.31-5.68 1.21.17-.19 1.17zm-.55 1.45l-.44-.07a4.1 4.1 0 0 1 .4-1.07c.18-.32.39-.59.64-.81s.53-.38.85-.47.67-.12 1.05-.06c.26.04.49.11.69.22s.37.25.49.43.2.41.23.67 0 .58-.08.93l-.87 3.79-1.29-.18.85-3.68a1.4 1.4 0 0 0 .02-.67c-.05-.17-.14-.3-.28-.39s-.31-.15-.53-.18c-.24-.03-.46-.02-.65.05s-.35.17-.5.31-.26.31-.36.51-.17.42-.23.65zm3.66.17l-.63.05a3.5 3.5 0 0 1 .37-.95 2.8 2.8 0 0 1 .62-.75 2.3 2.3 0 0 1 .84-.45c.31-.09.65-.12 1.01-.06a2.3 2.3 0 0 1 .76.23 1.3 1.3 0 0 1 .51.45 1.5 1.5 0 0 1 .22.71c.02.28-.01.61-.09.98l-.85 3.68-1.29-.18.85-3.68a1.4 1.4 0 0 0 .03-.69c-.05-.17-.14-.29-.28-.37s-.31-.14-.53-.17c-.2-.03-.38-.02-.55.04a1.2 1.2 0 0 0-.45.25 1.9 1.9 0 0 0-.34.4c-.1.15-.15.33-.2.53zm-11.24-.97l.03-.12c.09-.41.24-.78.44-1.11a3.1 3.1 0 0 1 .74-.85 2.7 2.7 0 0 1 .98-.49 2.9 2.9 0 0 1 1.18-.06c.42.06.78.19 1.08.38a2.1 2.1 0 0 1 .71.73c.17.29.28.62.32.99s.01.76-.08 1.17l-.03.12c-.09.41-.24.78-.44 1.11a3 3 0 0 1-.74.84 2.8 2.8 0 0 1-.98.49c-.36.1-.75.12-1.18.06s-.78-.19-1.09-.38-.53-.44-.7-.73a2.5 2.5 0 0 1-.32-.99 3.5 3.5 0 0 1 .08-1.17zm1.31.06l-.03.12c-.06.26-.09.5-.09.74s.04.45.11.63a1.1 1.1 0 0 0 .34.47c.16.12.36.2.6.24.24.03.46.01.65-.06a1.5 1.5 0 0 0 .53-.34c.15-.15.28-.34.39-.56a3.2 3.2 0 0 0 .25-.71l.03-.12c.06-.25.08-.49.08-.73s-.04-.45-.12-.64-.19-.35-.34-.47c-.15-.13-.35-.21-.59-.24s-.46-.01-.67.06-.37.19-.53.35-.28.35-.39.57-.19.45-.25.7zm-3.21-2.21l-1.06 4.6-1.28-.18 1.31-5.68 1.23.17-.19 1.09zm2.02-.87l-.28 1.18a2.5 2.5 0 0 0-.25-.07l-.26-.05a1.7 1.7 0 0 0-.6.01c-.18.04-.34.1-.48.2s-.25.22-.35.37a2 2 0 0 0-.23.53l-.3-.02a4.7 4.7 0 0 1 .34-.98 2.8 2.8 0 0 1 .51-.76 1.9 1.9 0 0 1 .67-.47c.25-.1.52-.13.81-.09a1.6 1.6 0 0 1 .25.06c.09.03.15.05.2.08z"/><use href="#i"/><path d="M275.81 151.16c.03-.13.02-.24-.02-.35s-.14-.23-.3-.34-.4-.22-.74-.34c-.29-.11-.55-.23-.79-.35a2.4 2.4 0 0 1-.57-.43 1.3 1.3 0 0 1-.31-.53c-.06-.2-.06-.41 0-.65.05-.23.16-.44.31-.64s.34-.35.57-.48a2.4 2.4 0 0 1 .78-.27 3.4 3.4 0 0 1 .96-.01c.48.07.88.21 1.19.42s.53.46.65.76.14.61.07.95l-1.29-.18c.04-.15.03-.3-.02-.44s-.13-.27-.27-.37a1.2 1.2 0 0 0-.55-.21c-.22-.03-.41-.02-.57.03s-.28.12-.38.22-.15.21-.18.34c-.02.09-.02.18-.01.26s.07.16.14.23.18.15.32.22.33.15.55.23a5 5 0 0 1 1.06.51c.29.19.49.4.61.65s.14.54.06.88c-.06.25-.17.47-.33.67a1.7 1.7 0 0 1-.59.47 2.6 2.6 0 0 1-.82.25 3.5 3.5 0 0 1-.99-.01c-.52-.07-.94-.23-1.26-.46a1.8 1.8 0 0 1-.66-.83 1.6 1.6 0 0 1-.07-.94l1.24.17c-.04.24-.02.43.07.59s.22.28.38.36a1.9 1.9 0 0 0 .54.17 1.7 1.7 0 0 0 .6-.01c.17-.04.31-.11.42-.2s.18-.21.21-.35zm-6.93.72c-.43-.06-.8-.18-1.11-.37a2.3 2.3 0 0 1-.74-.71c-.18-.28-.3-.6-.35-.95s-.03-.72.06-1.11l.05-.21a3.8 3.8 0 0 1 .48-1.18c.22-.34.47-.62.76-.85a2.7 2.7 0 0 1 .97-.48c.35-.09.71-.11 1.09-.06a2.6 2.6 0 0 1 1.04.36c.28.18.49.41.63.69a2.2 2.2 0 0 1 .26.94c.02.35-.01.74-.11 1.15l-.12.54-4.46-.63.21-.91 3.19.45.02-.1c.05-.23.05-.45.01-.66s-.12-.39-.27-.54-.36-.24-.64-.28c-.21-.03-.41-.01-.6.06s-.35.17-.5.33a2.5 2.5 0 0 0-.4.57 3.6 3.6 0 0 0-.27.78l-.05.21a2.3 2.3 0 0 0-.06.71c.02.22.08.42.18.59a1.3 1.3 0 0 0 .4.44c.17.11.38.19.63.22a1.9 1.9 0 0 0 .87-.07c.27-.09.52-.23.75-.43l.53.74a3.6 3.6 0 0 1-.6.45c-.23.14-.51.23-.82.29s-.65.07-1.03.01z"/><use href="#X" x="87.47" y="-222.79"/><path d="M263.48 145.15l-1.31 5.68-1.29-.18 1.31-5.68 1.29.18zm-1.03-1.69c.04-.19.14-.34.3-.45s.36-.15.59-.12.39.12.49.27a.6.6 0 0 1 .09.5c-.04.19-.15.34-.31.44s-.36.15-.58.11-.4-.12-.5-.26-.13-.31-.08-.5z"/><use href="#i" x="-25.78" y="-3.63"/><path d="M248.72 149.05c-.43-.06-.8-.18-1.11-.37a2.3 2.3 0 0 1-.74-.71c-.18-.28-.3-.6-.35-.95a3 3 0 0 1 .06-1.11l.05-.21a3.8 3.8 0 0 1 .48-1.18c.21-.34.47-.62.76-.85a2.7 2.7 0 0 1 .97-.48c.35-.09.71-.11 1.09-.06a2.6 2.6 0 0 1 1.04.36c.28.18.49.41.63.69s.23.59.26.94a3.9 3.9 0 0 1-.11 1.15l-.12.54-4.46-.63.21-.91 3.19.45.02-.1c.05-.23.05-.45.01-.66s-.12-.39-.27-.54-.36-.24-.64-.28c-.21-.03-.41-.01-.6.06s-.35.17-.5.32a2.3 2.3 0 0 0-.4.57 3.6 3.6 0 0 0-.27.78l-.05.21c-.06.25-.08.49-.06.71s.08.42.18.59a1.3 1.3 0 0 0 .4.44c.17.11.38.19.63.22a1.9 1.9 0 0 0 .87-.07c.27-.09.52-.23.75-.43l.53.74a3.6 3.6 0 0 1-.6.45c-.23.14-.51.23-.82.29s-.65.07-1.03.01zm-4.55-2.34c.03-.13.02-.25-.02-.36s-.14-.23-.3-.34-.4-.22-.74-.34a6.4 6.4 0 0 1-.79-.35c-.23-.13-.42-.28-.57-.43a1.3 1.3 0 0 1-.31-.53c-.06-.19-.06-.41 0-.65a1.6 1.6 0 0 1 .31-.63c.15-.19.34-.35.57-.48a2.4 2.4 0 0 1 .78-.27 3.4 3.4 0 0 1 .96-.01c.48.07.88.21 1.19.42s.53.46.65.76.15.61.07.95l-1.29-.18c.03-.15.03-.3-.02-.44s-.13-.27-.27-.37-.31-.17-.55-.21c-.22-.03-.41-.02-.57.03s-.28.12-.38.22-.15.21-.18.34c-.02.09-.02.18-.01.27.02.08.07.16.14.23s.18.15.32.22a4.8 4.8 0 0 0 .55.24 5 5 0 0 1 1.06.51c.29.19.49.4.61.65s.14.54.06.88c-.06.25-.17.48-.32.67s-.35.35-.6.47a2.9 2.9 0 0 1-.82.25 3.5 3.5 0 0 1-.99-.01 2.8 2.8 0 0 1-1.27-.46c-.32-.24-.54-.51-.66-.82a1.6 1.6 0 0 1-.07-.94l1.24.17a.9.9 0 0 0 .07.59c.09.15.22.27.38.36a1.7 1.7 0 0 0 .54.17 1.7 1.7 0 0 0 .6-.01c.17-.04.31-.11.42-.2s.18-.21.21-.35zm-9.4-2.6l.03-.12c.09-.41.24-.78.44-1.11a3.2 3.2 0 0 1 .74-.85c.29-.23.62-.39.98-.49s.76-.12 1.18-.06.78.19 1.08.38.54.43.71.73a2.5 2.5 0 0 1 .32.99 3.5 3.5 0 0 1-.08 1.16l-.03.12c-.09.41-.24.78-.44 1.11a3.1 3.1 0 0 1-.74.84 2.8 2.8 0 0 1-.98.49c-.36.1-.76.12-1.17.06a3 3 0 0 1-1.09-.37c-.3-.18-.53-.44-.7-.73a2.5 2.5 0 0 1-.32-.99c-.04-.37-.01-.76.08-1.17zm1.31.06l-.03.12a3.2 3.2 0 0 0-.09.74c0 .24.04.45.11.63a1.1 1.1 0 0 0 .34.47c.16.12.36.2.6.24.24.03.46.01.65-.06a1.5 1.5 0 0 0 .53-.34 2.1 2.1 0 0 0 .39-.56 3.2 3.2 0 0 0 .25-.71l.03-.12c.06-.25.09-.49.08-.73s-.04-.45-.12-.64-.19-.35-.34-.47-.35-.21-.59-.24-.46-.01-.66.06a1.4 1.4 0 0 0-.53.35c-.16.16-.28.35-.39.57a3.3 3.3 0 0 0-.25.7zm-7.51-.93l.03-.12a3.8 3.8 0 0 1 .44-1.11 3.1 3.1 0 0 1 .73-.85 2.7 2.7 0 0 1 .98-.49 2.9 2.9 0 0 1 1.18-.06c.42.06.78.19 1.08.38s.54.43.71.73a2.5 2.5 0 0 1 .32.99c.04.37.01.76-.08 1.16l-.03.12c-.09.41-.24.78-.44 1.11a3.1 3.1 0 0 1-.74.84 2.8 2.8 0 0 1-.98.49c-.36.1-.76.12-1.18.06s-.79-.19-1.09-.37-.53-.44-.7-.73a2.5 2.5 0 0 1-.32-.99 3.5 3.5 0 0 1 .08-1.16zm1.31.06l-.03.12a3.2 3.2 0 0 0-.09.74c0 .23.04.45.11.63a1.1 1.1 0 0 0 .34.47c.16.12.36.2.6.24.24.03.46.01.65-.06a1.5 1.5 0 0 0 .53-.34c.15-.15.28-.34.39-.56a3.2 3.2 0 0 0 .25-.71l.03-.12c.06-.25.08-.5.08-.73 0-.24-.04-.45-.12-.64s-.19-.35-.34-.47-.35-.21-.59-.24-.46-.01-.67.06-.37.19-.53.35a2.1 2.1 0 0 0-.39.57c-.11.22-.19.45-.25.7zm-4.64-5.99l-1.86 8.07-1.28-.18 1.86-8.07 1.28.18zm-1.38 4.98l-.41-.06c.09-.39.23-.75.42-1.06a3.2 3.2 0 0 1 .66-.8 2.3 2.3 0 0 1 .85-.47 2.2 2.2 0 0 1 .97-.07c.28.04.53.12.74.22s.38.26.51.46.2.43.23.72a3.2 3.2 0 0 1-.09 1.01l-.84 3.65-1.29-.18.84-3.66c.06-.27.07-.5.03-.67s-.13-.3-.27-.4-.31-.16-.53-.19a1.4 1.4 0 0 0-.65.05c-.19.07-.37.17-.52.31s-.28.31-.39.51-.18.41-.24.65zm-3.6.08l1.33.19c-.16.49-.4.92-.74 1.28a2.9 2.9 0 0 1-1.23.78c-.49.16-1.05.2-1.67.11-.48-.07-.89-.21-1.24-.43a2.4 2.4 0 0 1-.82-.86c-.2-.35-.32-.76-.37-1.23s0-.97.13-1.52l.15-.64c.13-.55.31-1.04.56-1.46s.55-.77.9-1.05.74-.48 1.17-.59a3.7 3.7 0 0 1 1.38-.07 3.1 3.1 0 0 1 1.49.56 2.2 2.2 0 0 1 .78 1.07c.15.43.19.9.12 1.42l-1.33-.19c.04-.33.03-.63-.04-.88s-.2-.45-.4-.61-.49-.26-.86-.32c-.31-.04-.59-.03-.84.06s-.48.22-.69.41-.38.45-.53.75-.27.66-.36 1.07l-.15.65a5.1 5.1 0 0 0-.14 1.06c0 .32.04.6.13.85s.24.44.44.6.45.25.76.3c.38.05.7.04.96-.05s.49-.23.66-.44a2.8 2.8 0 0 0 .44-.81z"/></g><defs><linearGradient id="A" x1="320.1" y1="580" x2="100.34" y2="11.22" href="#j"><stop stop-color="#9ac8ff"/><stop offset="1" stop-color="#0072ff"/></linearGradient><linearGradient id="B" x1="303.25" y1="572.44" x2="303.25" y2="20" href="#j"><stop stop-color="#b7d7ff"/><stop offset="1" stop-color="#8cb6e9"/></linearGradient><linearGradient id="C" x1="390.32" y1="123.1" x2="427.09" y2="131.59" href="#j"><stop stop-color="#055fcd"/><stop offset="1" stop-color="#044aa0"/></linearGradient><linearGradient id="D" x1="327.95" y1="115.45" x2="365.29" y2="124.07" href="#j"><stop stop-color="#3886e7"/><stop offset="1" stop-color="#055fcd"/></linearGradient><linearGradient id="E" x1="266.17" y1="107.86" x2="303.51" y2="116.48" href="#j"><stop stop-color="#589aeb"/><stop offset="1" stop-color="#3886e7"/></linearGradient><clipPath id="F"><rect width="213.41" height="519.23" rx="21.21" transform="matrix(.9925 .1219 -.2249 .9744 256.111 30.1797)" class="B"/></clipPath><clipPath id="G"><path transform="matrix(.9925 .1219 -.2249 .9744 385.182 116.531)" d="M0 0h44.46v11.86H0z" class="B"/></clipPath><clipPath id="H"><path transform="matrix(.9925 .1219 -.2249 .9744 323.393 108.953)" d="M0 0h44.46v11.86H0z" class="B"/></clipPath><clipPath id="I"><path transform="matrix(.9925 .1219 -.2249 .9744 261.613 101.359)" d="M0 0h44.46v11.86H0z" class="B"/></clipPath><clipPath id="J"><path transform="matrix(.9925 .1219 -.2249 .9744 414.584 82.9062)" d="M0 0h14.23v14.23H0z" class="B"/></clipPath><clipPath id="K"><path transform="matrix(.9925 .1219 -.2249 .9744 374.568 77.9961)" d="M0 0h14.23v14.23H0z" class="B"/></clipPath><clipPath id="L"><path transform="matrix(.9903 .1392 -.225 .9744 158.361 389)" d="M0 0h41.38v41.38H0z" class="B"/></clipPath><clipPath id="M"><path transform="matrix(.9903 .1392 -.225 .9744 224.445 398.293)" d="M0 0h41.38v41.38H0z" class="B"/></clipPath><clipPath id="N"><path transform="matrix(.9903 .1392 -.225 .9744 290.529 407.586)" d="M0 0h41.38v41.38H0z" class="B"/></clipPath><clipPath id="O"><path transform="matrix(.9903 .1392 -.225 .9744 181.363 289.316)" d="M0 0h41.38v41.38H0z" class="B"/></clipPath><clipPath id="P"><path transform="matrix(.9903 .1392 -.225 .9744 247.447 298.605)" d="M0 0h41.38v41.38H0z" class="B"/></clipPath><clipPath id="Q"><path transform="matrix(.9903 .1392 -.225 .9744 313.529 307.898)" d="M0 0h41.38v41.38H0z" class="B"/></clipPath><clipPath id="R"><path transform="matrix(.9903 .1392 -.225 .9744 204.473 189.152)" d="M0 0h41.38v41.38H0z" class="B"/></clipPath><clipPath id="S"><path transform="matrix(.9903 .1392 -.225 .9744 270.561 198.445)" d="M0 0h41.38v41.38H0z" class="B"/></clipPath><clipPath id="T"><path transform="matrix(.9903 .1392 -.225 .9744 336.643 207.738)" d="M0 0h41.38v41.38H0z" class="B"/></clipPath><clipPath id="U"><path transform="matrix(.9903 .1392 -.225 .9744 392.574 160.844)" d="M0 0h12.92v12.92H0z" class="B"/></clipPath><path id="V" d="M284.41 79.31l1.71-7.42 1.54.19.17.82c.39-.19.84-.35 1.36-.47.53-.12 1.05-.16 1.57-.09.64.08 1.12.26 1.43.55.31.28.5.62.56 1.04.07.42.05.86-.06 1.33l-1.14 4.94-1.89-.23 1.09-4.74c.06-.27.06-.5-.01-.7s-.19-.36-.37-.49c-.17-.13-.4-.21-.68-.24-.26-.03-.52-.04-.76-.02a3.3 3.3 0 0 0-.69.13 6.8 6.8 0 0 0-.7.26l-1.24 5.39-1.89-.23z"/><path id="W" d="M169.15 393.81l8.28 1.16-1.88 8.15a4.2 4.2 0 0 0 3.5 5.09l8.28 1.16-4.21 18.23a3.5 3.5 0 0 1-3.88 2.66l-17.93-2.52c-.84-.12-1.57-.56-2.02-1.22s-.61-1.5-.42-2.33l6.4-27.72a3.5 3.5 0 0 1 3.88-2.67zm17.46 11.47l-6.68-.94c-.16-.02-.3-.11-.38-.23s-.12-.28-.08-.44l1.52-6.57 5.62 8.18z"/><path id="X" d="M179.34 365.94l-1.86 8.07-1.29-.18 1.86-8.07 1.29.18z"/><path id="Y" d="M188.61 305.12a4.8 4.8 0 0 1 4.92-3.38l9.84 1.08 9.71 1.67c2.15.46 3.44 2.34 3.1 4.51l-1.92 9.66-2.52 9.58a4.8 4.8 0 0 1-4.92 3.38l-9.84-1.08-9.71-1.67c-2.15-.46-3.44-2.33-3.1-4.51l1.92-9.66 2.52-9.58z"/><path id="Z" d="M254.69 314.42a4.8 4.8 0 0 1 4.92-3.38l9.85 1.08 9.71 1.67c2.15.46 3.44 2.34 3.1 4.51l-1.92 9.66-2.52 9.58a4.8 4.8 0 0 1-4.92 3.38l-9.84-1.08-9.71-1.67c-2.15-.46-3.44-2.33-3.1-4.51l1.92-9.66 2.52-9.58z"/><path id="a" d="M270.5 320.93c-.15.67-.03 1.35.34 1.89s.96.9 1.64.99 1.39-.08 1.98-.48 1.01-1.01 1.16-1.68.03-1.35-.34-1.89-.96-.9-1.64-.99-1.39.08-1.98.48-1.01 1.01-1.16 1.68zm8.18 13.63l-.86 2.97a4.8 4.8 0 0 1-4.92 3.38l-9.84-1.08-9.71-1.67c-2.15-.46-3.44-2.33-3.1-4.51l.65-3.72c3.67-2.37 6.18-3.67 7.77-4.39 1.42-.63 2.89-.29 3.82.79s2.33 2.82 4.3 5.55l4.64-2.45c1.42-.63 2.89-.29 3.82.79l3.41 4.33z"/><path id="b" d="M276.37 308.75a3.8 3.8 0 0 0-3.11-3.6l-9.75-1.68-9.85-1.08a4.8 4.8 0 0 0-4.92 3.38l-2.52 9.58-1.93 9.7a3.8 3.8 0 0 0 2.24 4.19"/><path id="c" d="M320.77 323.71a4.8 4.8 0 0 1 4.92-3.38l9.85 1.08 9.71 1.67c2.15.46 3.44 2.33 3.1 4.51l-1.92 9.66-2.52 9.58a4.8 4.8 0 0 1-4.92 3.38l-9.84-1.08-9.71-1.67c-2.15-.46-3.44-2.33-3.1-4.51l1.92-9.66 2.52-9.58z"/><path id="d" d="M243.81 182.56l3.49-5.96 1.48.21-4.55 7.25-1-.14.58-1.36zm-.45-6.51l.59 6.53-.05 1.44-1-.14-1.01-8.04 1.47.21z"/><path id="e" d="M231.33 229.35l-23.9-3.36a3.1 3.1 0 0 1-2.64-3.84l3.88-16.8c.43-1.85 2.31-3.14 4.19-2.88l23.9 3.36a3.1 3.1 0 0 1 2.64 3.84l-3.88 16.8c-.43 1.85-2.31 3.14-4.19 2.88z"/><path id="f" d="M215.51 206.23l-10.22 9.92 15.37 2.16-5.14-12.08z"/><path id="g" d="M223.82 212.25l-6.58 5.58 10.24 1.44-3.67-7.02z"/><path id="h" d="M292.49 218.01c1.41.2 2.82-.77 3.14-2.16s-.56-2.68-1.98-2.88-2.82.77-3.14 2.16.56 2.68 1.98 2.88z"/><path id="i" d="M283.79 145.98l-1.76 7.65-1.34-.19 1.76-7.65 1.34.19zm2.4 3.79l-.24 1.04-3.51-.49.24-1.05 3.51.49zm1.21-3.28l-.24 1.05-3.95-.56.24-1.05 3.95.56z"/><linearGradient id="j" gradientUnits="userSpaceOnUse"/></defs></svg>