<svg xmlns="http://www.w3.org/2000/svg" viewBox="0 0 600 600" xmlns:v="https://vecta.io/nano"><style><![CDATA[.b{fill:#044aa0}.c{fill:#8cbaf1}.d{fill:#fff}.e{fill:#0668e1}.f{fill-opacity:.1}.g{stroke-miterlimit:10}.h{fill:#b2d0f6}.i{fill:#3886e7}.j{stroke-width:.3}.k{stroke:#8fc1ff}.l{stroke-width:.5}.m{fill:#d9d9d9}.n{fill:#1b1c17}]]></style><defs><path id="A" d="M0 0h600v600H0z"/><path id="B" d="     M297,520.7L34.4,370c-5.4-3.1-4.7-8.4,1.5-12l166.9-95.7c6.2-3.6,15.6-3.9,20.9-0.9l262.6,150.7c5.4,3.1,4.7,8.4-1.5,12     l-166.9,95.7C311.7,523.4,302.4,523.8,297,520.7L297,520.7z"/><path id="C" d="M227.5 300.5l-9.6-5.5c-1.2-.7-1.1-1.9.3-2.8l2.8-1.6c1.4-.8 3.6-.9 4.8-.2l9.6 5.5c1.2.7 1.1 1.9-.3 2.8l-2.8 1.6c-1.4.8-3.6.9-4.8.2z"/><path id="D" d="M242.9 309.4l-9.6-5.5c-1.2-.7-1.1-1.9.3-2.8l2.8-1.6c1.4-.8 3.6-.9 4.8-.2l9.6 5.5c1.2.7 1.1 1.9-.3 2.8l-2.8 1.6c-1.4.8-3.5.9-4.8.2z"/><path id="E" d="M258.4 318.2l-9.6-5.5c-1.2-.7-1.1-1.9.3-2.8l2.8-1.6c1.4-.8 3.6-.9 4.8-.2l9.6 5.5c1.2.7 1.1 1.9-.3 2.8l-2.8 1.6c-1.5.8-3.6.9-4.8.2z"/><path id="F" d="M212.8 308l-8.9-5.1c-.8-.5-.7-1.3.2-1.8l8.4-4.8c1-.5 2.4-.6 3.2-.1l8.9 5.1c.8.5.7 1.3-.2 1.8l-8.4 4.8c-.9.5-2.3.6-3.2.1z"/><path id="G" d="M228.2 316.8l-8.9-5.1c-.8-.5-.7-1.3.2-1.8l8.4-4.8c1-.5 2.4-.6 3.2-.1l8.9 5.1c.8.5.7 1.3-.2 1.8l-8.4 4.8c-1 .5-2.4.6-3.2.1z"/><path id="H" d="M296 371.8l-8.9-5.1c-.8-.5-.7-1.3.2-1.8l8.4-4.8c1-.5 2.4-.6 3.2-.1l8.9 5.1c.8.5.7 1.3-.2 1.8l-8.4 4.8c-.9.5-2.4.6-3.2.1z"/><path id="I" d="M356.8 423l-8.9-5.1c-.8-.5-.7-1.3.2-1.8l8.4-4.8c1-.5 2.4-.6 3.2-.1l8.9 5.1c.8.5.7 1.3-.2 1.8l-8.4 4.8a4 4 0 0 1-3.2.1z"/><path id="J" d="M266.8 371.4l-8.9-5.1c-.8-.5-.7-1.3.2-1.8l8.4-4.8c1-.5 2.4-.6 3.2-.1l8.9 5.1c.8.5.7 1.3-.2 1.8l-8.4 4.8c-.9.5-2.3.5-3.2.1z"/><path id="K" d="M349.4 286.2c0-.1-.1-.1-.1-.2l-.1-.1-.1-.1h-.1c-1.4.5-2.4 1.5-3 3v.1.2c0 .1 0 .1.1.2 0 .1.1.1.1.1l2.1 2c.1.1.2.1.2.1.1 0 .1 0 .2-.1a3.3 3.3 0 0 1 2-2c.1 0 .1-.1.1-.2s0-.2-.1-.3l-1.3-2.7z"/><path id="L" d="M346.2 296.3h-.1s-.1 0-.1.1v.1.2c.6 2.2 1.6 4.5 3 6.5l.1.1.1.1h.1.1l1.3-1.3s.1-.1.1-.2-.1-.2-.1-.3a15.2 15.2 0 0 1-2-4.3c0-.1-.1-.2-.2-.3s-.2-.1-.2-.2l-2.1-.5z"/><path id="M" d="M360.3 309.6c0 .1.1.1.1.2l.1.1.1.1h.1c1.4-.5 2.4-1.5 3-3v-.1-.2c0-.1 0-.1-.1-.2 0-.1-.1-.1-.1-.1l-2.1-2c-.1-.1-.2-.1-.2-.1-.1 0-.1 0-.2.1a3.3 3.3 0 0 1-2 2c-.1 0-.1.1-.1.2s0 .2.1.3l1.3 2.7z"/><path id="N" d="M363.6 299.6h.1s.1 0 .1-.1v-.1-.2c-.6-2.2-1.6-4.5-3-6.5l-.1-.1-.1-.1h-.1-.1l-1.3 1.3s-.1.1-.1.2.1.2.1.3a15.2 15.2 0 0 1 2 4.3c0 .1.1.2.2.3s.2.1.2.2l2.1.5z"/><path id="O" d="M360.2 292.4s0-.1.1-.1v-.1-.2c0-.1-.1-.1-.1-.2a17.7 17.7 0 0 0-4.9-4.6h-.1-.1s-.1 0-.1.1v.1 2.6c0 .1 0 .2.1.3s.1.2.2.2c1.2.7 2.3 1.8 3.2 3.1l.2.2h.2l1.3-1.4z"/><path id="P" d="M354.8 281.8v-.2c0-.1-.1-.2-.1-.2 0-.1-.1-.2-.2-.2-.1-.1-.1-.1-.2-.1-2.6-1.4-5.2-1.9-7.4-1.5-.1 0-.1 0-.1.1 0 0-.1.1-.1.2v.2c0 .1 0 .2.1.2l2 4.3c.1.2.2.3.3.4s.2.1.3.1a8.2 8.2 0 0 1 4.9 1c.1.1.2.1.3 0s.1-.2.1-.3v-4z"/><path id="Q" d="M346.6 280.3c0-.1-.1-.2-.1-.2l-.2-.2c-.1-.1-.1-.1-.2-.1h-.2c-2.1.7-3.6 2.3-4.5 4.6v.2.2c0 .1.1.2.1.2 0 .1.1.1.2.2l3.2 3c.1.1.2.2.4.2.1 0 .2-.1.2-.2a5.4 5.4 0 0 1 3-3.1c.1 0 .2-.1.2-.3 0-.1 0-.3-.1-.4l-2-4.1z"/><path id="R" d="M341.6 285.5c-.1-.1-.1-.1-.2-.1h-.2c-.1 0-.1 0-.1.1l-.1.1c-.7 2.5-.7 5.6 0 8.9 0 .1 0 .2.1.2 0 .1.1.2.1.2l.2.2c.1 0 .1.1.2.1l3.2.6c.1 0 .2 0 .3-.1s.1-.2 0-.4c-.4-2.2-.4-4.3 0-5.9v-.4c0-.1-.2-.3-.3-.4l-3.2-3.1z"/><path id="S" d="M341.7 295.4h-.2l-.1.1v.2.2c.9 3.4 2.5 6.8 4.5 9.8l.2.2c.1.1.1.1.2.1h.2c.1 0 .1 0 .1-.1l2-2c.1-.1.1-.2.1-.3s-.1-.3-.2-.5c-1.4-2.1-2.4-4.3-3-6.5 0-.2-.1-.3-.2-.4s-.2-.2-.4-.2l-3.2-.6z"/><path id="T" d="M346.8 306.3s-.1.1-.1.2v.2c0 .1 0 .2.1.2 0 .1.1.2.1.2 2.2 2.9 4.7 5.3 7.4 7 .1 0 .1.1.2.1h.2l.1-.1v-.2-3.9c0-.1 0-.3-.1-.5s-.2-.3-.3-.4a19.6 19.6 0 0 1-4.9-4.7l-.3-.3h-.3l-2.1 2.2z"/><path id="U" d="M355 314v.2c0 .1.1.2.1.2 0 .1.1.1.2.2s.1.1.2.1c2.6 1.4 5.2 1.9 7.4 1.5.1 0 .1 0 .1-.1 0 0 .1-.1.1-.2v-.2c0-.1 0-.2-.1-.2l-2-4.3c-.1-.2-.2-.3-.3-.4s-.2-.1-.3-.1a8.2 8.2 0 0 1-4.9-1c-.1-.1-.2-.1-.3 0s-.1.2-.1.3v4z"/><path id="V" d="M363.1 315.6c0 .1.1.2.1.2l.2.2c.1 0 .1.1.2.1h.2c2.1-.7 3.6-2.3 4.5-4.6v-.2-.2c0-.1-.1-.2-.1-.2 0-.1-.1-.1-.2-.2l-3.2-3c-.1-.1-.2-.2-.4-.2-.1 0-.2.1-.2.2a5.4 5.4 0 0 1-3 3.1c-.1 0-.2.1-.2.3 0 .1 0 .3.1.4l2 4.1z"/><path id="W" d="M368.1 310.4c.1.1.1.1.2.1h.2c.1 0 .1 0 .1-.1l.1-.1c.7-2.5.7-5.6 0-8.9 0-.1 0-.2-.1-.2 0-.1-.1-.2-.1-.2l-.2-.2c-.1 0-.1-.1-.2-.1l-3.2-.6c-.1 0-.2 0-.3.1s-.1.2 0 .4c.4 2.2.4 4.3 0 5.9v.4c.1.2.2.3.3.4l3.2 3.1z"/><path id="X" d="M363 289.5s.1-.1.1-.2v-.2c0-.1 0-.2-.1-.2 0-.1-.1-.2-.1-.2-2.2-2.9-4.7-5.3-7.4-7-.1 0-.1-.1-.2-.1h-.2l-.1.1v.2 3.9c0 .1 0 .3.1.5s.2.3.3.4a19.6 19.6 0 0 1 4.9 4.7l.3.3h.3l2.1-2.2z"/><path id="Y" d="M337.4 322.6l2.7 1.5c.2.1.4.5.4.8v3.1c0 .3-.2.4-.4.3l-2.7-1.5c-.2-.1-.4-.5-.4-.8v-3.1c-.1-.3.1-.4.4-.3z"/><path id="Z" d="M181.1 77.6l267.3 153.5a4.7 4.7 0 0 1 2.2 3.7v65.5c0 1.4-1 1.9-2.2 1.2L181.1 148.1a4.7 4.7 0 0 1-2.2-3.7V78.9c0-1.4 1-2 2.2-1.3z"/><path id="a" d="M189.4 95.9l258.5 148.5"/><path id="b" d="M255.7 244.7l54.5 31.5c1 .6 1.8 2 1.8 3.1h0c0 1.1-.8 1.6-1.8 1l-54.5-31.5c-1-.6-1.8-2-1.8-3.1h0c0-1.1.8-1.6 1.8-1z"/></defs><clipPath id="c"><use href="#A"/></clipPath><g clip-path="url(#c)"><path d="M319.8 12a39.3 39.3 0 0 0-39.5 0L60.4 138.9C48.2 146 40.7 159 40.6 173.1v253.8a39.6 39.6 0 0 0 19.2 33.9l.6.3L280.2 588a39.3 39.3 0 0 0 39.5 0l219.8-126.9c12.2-7.1 19.8-20.1 19.8-34.2V173.1c0-14.1-7.5-27.2-19.8-34.2L319.8 12z" fill="#bfd8f7" fill-opacity=".2" stroke="#0668e1"/><linearGradient id="d" gradientUnits="userSpaceOnUse" x1="30" y1="398.3" x2="491.07" y2="398.3"><stop offset="0" stop-color="#a6ceff"/><stop offset="1" stop-color="#9cc5f8"/></linearGradient><path d="M489.2 414.8c-3.1-1.3-265.5-146.1-265.5-146.1-5.4-3.1-14.7-2.7-20.9.9L31.6 362.1s-2.4 4.4-1.4 8.9c.7 3.3 1.7 4.6 3.2 5.7.2.1.5.3.7.5.1 0 .1.1.2.1L297 527.9c5.4 3.1 14.7 2.7 20.9-.9l166.9-95.7c.4-.2.8-.5 1.2-.7.1-.1.2-.1.3-.2.2-.2.5-.3.7-.5 2.6-2.1 3.6-4.6 4.1-7.8.4-3.5-1.9-7.3-1.9-7.3h0z" fill="url(#d)"/><linearGradient id="e" gradientUnits="userSpaceOnUse" x1="107.27" y1="96.44" x2="336.36" y2="537.42"><stop offset="0" stop-color="#fff"/><stop offset="1" stop-color="#d4e7fe"/></linearGradient><path d="M297 520.7L34.4 370c-5.4-3.1-4.7-8.4 1.5-12l166.9-95.7c6.2-3.6 15.6-3.9 20.9-.9l262.6 150.7c5.4 3.1 4.7 8.4-1.5 12l-166.9 95.7c-6.2 3.6-15.5 4-20.9.9h0z" fill="url(#e)"/><linearGradient id="f" gradientUnits="userSpaceOnUse" x1="76.56" y1="284.31" x2="444.11" y2="497.84"><stop offset="0" stop-color="#bdd2f4"/><stop offset="1" stop-color="#e5faff"/></linearGradient><use href="#B" fill="none" stroke="url(#f)" class="g j"/><use href="#B" fill="none" stroke="url(#f)" class="g j"/><linearGradient id="g" gradientUnits="userSpaceOnUse" x1="-312.36" y1="24.14" x2="-52.73" y2="174.98"><stop offset="0" stop-color="#bdd2f4"/><stop offset="1" stop-color="#e7f2ff"/></linearGradient><path d="M353.7 460.3L140.1 337.7c-1.7-1-1.5-2.7.5-3.8l79.4-45.6c2-1.1 4.9-1.2 6.6-.3l213.7 122.6c1.7 1 1.5 2.7-.5 3.8L360.3 460c-2 1.1-4.9 1.2-6.6.3z" fill="url(#g)" stroke="#b8dfff" stroke-width=".75" class="g"/><linearGradient id="h" gradientUnits="userSpaceOnUse" x1="-29.42" y1="286.22" x2="51.72" y2="333.36"><stop offset="0" stop-color="#bdd2f4"/><stop offset="1" stop-color="#d3e7ff"/></linearGradient><path d="M216.7 462.9l-81.4-46.7 59-33.8 81.4 46.7-59 33.8z" fill="url(#h)"/><linearGradient id="i" gradientUnits="userSpaceOnUse" x1="363.55" y1="315.74" x2="352.74" y2="335.59"><stop offset="0" stop-color="#0f042e"/><stop offset="1" stop-color="#1c1265"/></linearGradient><path d="M456.1 402.7l-217.8-125 8.7-5 217.8 124.9-8.7 5.1z" fill="url(#i)"/><g fill="#244063"><use href="#C"/><use href="#D"/><use href="#E"/><path d="M273.8 327l-9.6-5.5c-1.2-.7-1.1-1.9.3-2.8l2.8-1.6c1.4-.8 3.6-.9 4.8-.2l9.6 5.5c1.2.7 1.1 1.9-.3 2.8l-2.8 1.6c-1.5.9-3.6.9-4.8.2zm15.4 8.9l-9.6-5.5c-1.2-.7-1.1-1.9.3-2.8l2.8-1.6c1.4-.8 3.6-.9 4.8-.2l9.6 5.5c1.2.7 1.1 1.9-.3 2.8l-2.8 1.6c-1.4.8-3.6.9-4.8.2zm15.4 8.8l-9.6-5.5c-1.2-.7-1.1-1.9.3-2.8l2.8-1.6c1.4-.8 3.6-.9 4.8-.2l9.6 5.5c1.2.7 1.1 1.9-.3 2.8l-2.8 1.6c-1.4.8-3.6.9-4.8.2zm15.4 8.9l-9.6-5.5c-1.2-.7-1.1-1.9.3-2.8l2.8-1.6c1.4-.8 3.6-.9 4.8-.2l9.6 5.5c1.2.7 1.1 1.9-.3 2.8l-2.8 1.6c-1.4.8-3.6.9-4.8.2zm15.4 8.8l-9.6-5.5c-1.2-.7-1.1-1.9.3-2.8l2.8-1.6c1.4-.8 3.6-.9 4.8-.2l9.6 5.5c1.2.7 1.1 1.9-.3 2.8l-2.8 1.6c-1.4.8-3.5.9-4.8.2zm15.5 8.9l-9.6-5.5c-1.2-.7-1.1-1.9.3-2.8l2.8-1.6c1.4-.8 3.6-.9 4.8-.2l9.6 5.5c1.2.7 1.1 1.9-.3 2.8l-2.8 1.6c-1.5.8-3.6.9-4.8.2zm15.4 8.8l-9.6-5.5c-1.2-.7-1.1-1.9.3-2.8l2.8-1.6c1.4-.8 3.6-.9 4.8-.2l9.6 5.5c1.2.7 1.1 1.9-.3 2.8l-2.8 1.6c-1.5.8-3.6.9-4.8.2zm15.4 8.9l-9.6-5.5c-1.2-.7-1.1-1.9.3-2.8l2.8-1.6c1.4-.8 3.6-.9 4.8-.2l9.6 5.5c1.2.7 1.1 1.9-.3 2.8l-2.8 1.6c-1.4.8-3.6.9-4.8.2zm15.4 8.8l-9.6-5.5c-1.2-.7-1.1-1.9.3-2.8l2.8-1.6c1.4-.8 3.6-.9 4.8-.2l9.6 5.5c1.2.7 1.1 1.9-.3 2.8l-2.8 1.6c-1.4.8-3.6.9-4.8.2zm15.4 8.8l-9.6-5.5c-1.2-.7-1.1-1.9.3-2.8l2.8-1.6c1.4-.8 3.6-.9 4.8-.2l9.6 5.5c1.2.7 1.1 1.9-.3 2.8l-2.8 1.6c-1.4.9-3.6 1-4.8.2zm15.4 8.9l-9.6-5.5c-1.2-.7-1.1-1.9.3-2.8l2.8-1.6c1.4-.8 3.6-.9 4.8-.2l9.6 5.5c1.2.7 1.1 1.9-.3 2.8l-2.8 1.6c-1.4.8-3.5.9-4.8.2z"/><use href="#F"/><path d="M206.3 320.3l-15.9-9.1c-1-.6-.9-1.7.3-2.4l7.4-4.2a4.6 4.6 0 0 1 4.1-.2l15.9 9.1c1 .6.9 1.7-.3 2.4l-7.4 4.2a4.6 4.6 0 0 1-4.1.2z"/><use href="#G"/><path d="M221.1 328.8l-8.9-5.1c-.8-.5-.7-1.3.2-1.8l8.4-4.8c1-.5 2.4-.6 3.2-.1l8.9 5.1c.8.5.7 1.3-.2 1.8l-8.4 4.8c-1 .5-2.4.6-3.2.1zm15 8.6l-8.9-5.1c-.8-.5-.7-1.3.2-1.8l8.4-4.8c1-.5 2.4-.6 3.2-.1l8.9 5.1c.8.5.7 1.3-.2 1.8l-8.4 4.8c-1 .5-2.4.6-3.2.1zm15 8.6l-8.9-5.1c-.8-.5-.7-1.3.2-1.8l8.4-4.8c1-.5 2.4-.6 3.2-.1l8.9 5.1c.8.5.7 1.3-.2 1.8l-8.4 4.8c-1 .5-2.4.6-3.2.1zm14.9 8.6l-8.9-5.1c-.8-.5-.7-1.3.2-1.8l8.4-4.8c1-.5 2.4-.6 3.2-.1l8.9 5.1c.8.5.7 1.3-.2 1.8l-8.4 4.8c-.9.5-2.3.6-3.2.1zm15 8.6l-8.9-5.1c-.8-.5-.7-1.3.2-1.8l8.4-4.8c1-.5 2.4-.6 3.2-.1l8.9 5.1c.8.5.7 1.3-.2 1.8l-8.4 4.8c-.9.5-2.3.6-3.2.1z"/><use href="#H"/><path d="M311 380.4l-8.9-5.1c-.8-.5-.7-1.3.2-1.8l8.4-4.8c1-.5 2.4-.6 3.2-.1l8.9 5.1c.8.5.7 1.3-.2 1.8l-8.4 4.8c-.9.5-2.4.6-3.2.1zm15 8.6l-8.9-5.1c-.8-.5-.7-1.3.2-1.8l8.4-4.8c1-.5 2.4-.6 3.2-.1l8.9 5.1c.8.5.7 1.3-.2 1.8l-8.4 4.8c-.9.5-2.4.6-3.2.1zm15 8.6l-8.9-5.1c-.8-.5-.7-1.3.2-1.8l8.4-4.8c1-.5 2.4-.6 3.2-.1l8.9 5.1c.8.5.7 1.3-.2 1.8l-8.4 4.8c-1 .5-2.4.6-3.2.1zm15 8.6l-8.9-5.1c-.8-.5-.7-1.3.2-1.8l8.4-4.8c1-.5 2.4-.6 3.2-.1l8.9 5.1c.8.5.7 1.3-.2 1.8l-8.4 4.8c-1 .5-2.4.6-3.2.1zm15 8.6l-8.9-5.1c-.8-.5-.7-1.3.2-1.8l8.4-4.8c1-.5 2.4-.6 3.2-.1l8.9 5.1c.8.5.7 1.3-.2 1.8l-8.4 4.8c-1 .5-2.4.6-3.2.1z"/><use href="#I"/><path d="M372.4 431.9l-8.9-5.1c-.8-.5-.7-1.3.2-1.8l8.4-4.8c1-.5 2.4-.6 3.2-.1l8.9 5.1c.8.5.7 1.3-.2 1.8l-8.4 4.8c-1 .5-2.4.6-3.2.1zm-30.6-17.5l-8.9-5.1c-.8-.5-.7-1.3.2-1.8l8.4-4.8c1-.5 2.4-.6 3.2-.1l8.9 5.1c.8.5.7 1.3-.2 1.8l-8.4 4.8a4 4 0 0 1-3.2.1zm-15-8.6l-8.9-5.1c-.8-.5-.7-1.3.2-1.8l8.4-4.8c1-.5 2.4-.6 3.2-.1l8.9 5.1c.8.5.7 1.3-.2 1.8l-8.4 4.8a4 4 0 0 1-3.2.1zm-15-8.6l-8.9-5.1c-.8-.5-.7-1.3.2-1.8l8.4-4.8c1-.5 2.4-.6 3.2-.1l8.9 5.1c.8.5.7 1.3-.2 1.8L315 397c-1 .6-2.4.6-3.2.2zm-15-8.6l-8.9-5.1c-.8-.5-.7-1.3.2-1.8l8.4-4.8c1-.5 2.4-.6 3.2-.1l8.9 5.1c.8.5.7 1.3-.2 1.8l-8.4 4.8a4 4 0 0 1-3.2.1zm-15-8.6l-8.9-5.1c-.8-.5-.7-1.3.2-1.8l8.4-4.8c1-.5 2.4-.6 3.2-.1l8.9 5.1c.8.5.7 1.3-.2 1.8l-8.4 4.8a4 4 0 0 1-3.2.1z"/><use href="#J"/><path d="M251.8 362.8l-8.9-5.1c-.8-.5-.7-1.3.2-1.8l8.4-4.8c1-.5 2.4-.6 3.2-.1l8.9 5.1c.8.5.7 1.3-.2 1.8l-8.4 4.8c-.9.5-2.3.5-3.2.1zm-15-8.6l-8.9-5.1c-.8-.5-.7-1.3.2-1.8l8.4-4.8c1-.5 2.4-.6 3.2-.1l8.9 5.1c.8.5.7 1.3-.2 1.8L240 354c-.9.6-2.3.6-3.2.2zm-14.9-8.6l-8.9-5.1c-.8-.5-.7-1.3.2-1.8l8.4-4.8c1-.5 2.4-.6 3.2-.1l8.9 5.1c.8.5.7 1.3-.2 1.8l-8.4 4.8a4 4 0 0 1-3.2.1zm-14.2 8.1l-8.9-5.1c-.8-.5-.7-1.3.2-1.8l8.4-4.8c1-.5 2.4-.6 3.2-.1l8.9 5.1c.8.5.7 1.3-.2 1.8l-8.4 4.8c-1 .5-2.4.6-3.2.1zm-52.1-12.4l-8.9-5.1c-.8-.5-.7-1.3.2-1.8l8.4-4.8c1-.5 2.4-.6 3.2-.1l8.9 5.1c.8.5.7 1.3-.2 1.8l-8.4 4.8c-.9.6-2.4.6-3.2.1zm15.2 8.7l-8.9-5.1c-.8-.5-.7-1.3.2-1.8l8.4-4.8c1-.5 2.4-.6 3.2-.1l8.9 5.1c.8.5.7 1.3-.2 1.8l-8.4 4.8c-1 .5-2.4.6-3.2.1zm15.1 8.7l-8.9-5.1c-.8-.5-.7-1.3.2-1.8l8.4-4.8c1-.5 2.4-.6 3.2-.1l8.9 5.1c.8.5.7 1.3-.2 1.8l-8.4 4.8c-1 .5-2.4.6-3.2.1zM294.4 421l-8.9-5.1c-.8-.5-.7-1.3.2-1.8l8.4-4.8c1-.5 2.4-.6 3.2-.1l8.9 5.1c.8.5.7 1.3-.2 1.8l-8.4 4.8a4 4 0 0 1-3.2.1zm16.5 9.4l-8.9-5.1c-.8-.5-.7-1.3.2-1.8l8.4-4.8c1-.5 2.4-.6 3.2-.1l8.9 5.1c.8.5.7 1.3-.2 1.8l-8.4 4.8c-1 .5-2.4.6-3.2.1zm37 13.4l-10-5.7c-.5-.3-.5-.8.1-1.2l2.8-1.6c.6-.4 1.6-.4 2.1-.1l10 5.7c.5.3.5.8-.1 1.2l-2.8 1.6c-.6.4-1.5.4-2.1.1zm-7.3 4.2l-10-5.7c-.5-.3-.5-.8.1-1.2l2.8-1.6c.6-.4 1.6-.4 2.1-.1l10 5.7c.5.3.5.8-.2 1.2l-2.8 1.6c-.5.4-1.5.4-2 .1zm-14.6-8.3l-10-5.7c-.5-.3-.5-.8.1-1.2l2.8-1.6c.6-.4 1.6-.4 2.1-.1l10 5.7c.5.3.5.8-.1 1.2l-2.8 1.6c-.6.3-1.5.4-2.1.1zm29.7 17l-10-5.7c-.5-.3-.5-.8.1-1.2l2.8-1.6c.6-.4 1.6-.4 2.1-.1l10 5.7c.5.3.5.8-.1 1.2l-2.8 1.6c-.7.4-1.6.4-2.1.1zm-151.8-87.6l-11.6-6.7c-.9-.5-.8-1.5.3-2.1l8-4.6c1.1-.6 2.7-.7 3.6-.1l11.6 6.7c.9.5.8 1.5-.3 2.1l-8 4.6c-1.1.5-2.7.6-3.6.1zm70.4 40.4l-62-35.6c-2-1.1-1.7-3.1.6-4.4l3.6-2c2.3-1.3 5.7-1.5 7.7-.3l62 35.6c2 1.1 1.7 3.1-.6 4.4l-3.6 2c-2.3 1.2-5.7 1.4-7.7.3zm-51.8-47.3l-8.9-5.1c-.8-.5-.7-1.3.2-1.8l8.4-4.8c1-.5 2.4-.6 3.2-.1l8.9 5.1c.8.5.7 1.3-.2 1.8l-8.4 4.8c-1 .5-2.4.6-3.2.1zm14.8 8.5l-8.9-5.1c-.8-.5-.7-1.3.2-1.8l8.4-4.8c1-.5 2.4-.6 3.2-.1l8.9 5.1c.8.5.7 1.3-.2 1.8l-8.4 4.8c-1 .5-2.4.6-3.2.1zm14.8 8.5l-8.9-5.1c-.8-.5-.7-1.3.2-1.8l8.4-4.8c1-.5 2.4-.6 3.2-.1l8.9 5.1c.8.5.7 1.3-.2 1.8l-8.4 4.8c-1 .5-2.4.6-3.2.1zm14.8 8.5l-8.9-5.1c-.8-.5-.7-1.3.2-1.8l8.4-4.8c1-.5 2.4-.6 3.2-.1l8.9 5.1c.8.5.7 1.3-.2 1.8l-8.4 4.8c-1 .5-2.4.6-3.2.1zm14.8 8.5l-8.9-5.1c-.8-.5-.7-1.3.2-1.8l8.4-4.8c1-.5 2.4-.6 3.2-.1l8.9 5.1c.8.5.7 1.3-.2 1.8l-8.4 4.8a4 4 0 0 1-3.2.1zm14.8 8.5l-8.9-5.1c-.8-.5-.7-1.3.2-1.8l8.4-4.8c1-.5 2.4-.6 3.2-.1l8.9 5.1c.8.5.7 1.3-.2 1.8l-8.4 4.8a4 4 0 0 1-3.2.1zm14.8 8.5l-8.9-5.1c-.8-.5-.7-1.3.2-1.8l8.4-4.8c1-.5 2.4-.6 3.2-.1l8.9 5.1c.8.5.7 1.3-.2 1.8l-8.4 4.8a4 4 0 0 1-3.2.1z"/><path d="M326.1 421.7l-8.9-5.1c-.8-.5-.7-1.3.2-1.8l8.4-4.8c1-.5 2.4-.6 3.2-.1l8.9 5.1c.8.5.7 1.3-.2 1.8l-8.4 4.8a4 4 0 0 1-3.2.1zm14.8 8.5L332 425c-.8-.5-.7-1.3.2-1.8l8.4-4.8c1-.5 2.4-.6 3.2-.1l8.9 5.1c.8.5.7 1.3-.2 1.8l-8.4 4.8c-1 .6-2.4.6-3.2.2zm30.8 17.7L347.6 434c-1.3-.7-1.1-2 .4-2.8l6.5-3.7c1.5-.8 3.7-.9 5-.2l24.1 13.9c1.3.7 1.1 2-.4 2.8l-6.5 3.7c-1.5.8-3.7.9-5 .2zM206.9 337l-8.9-5.1c-.8-.5-.7-1.3.2-1.8l8.4-4.8c1-.5 2.4-.6 3.2-.1l8.9 5.1c.8.5.7 1.3-.2 1.8l-8.4 4.8a4 4 0 0 1-3.2.1zm-14.8-8.5l-15.5-8.9c-1-.6-.9-1.6.3-2.3l7.4-4.3a4.6 4.6 0 0 1 4.1-.2l15.5 8.9c1 .6.9 1.6-.3 2.3l-7.4 4.3c-1.3.7-3.1.8-4.1.2z"/><path d="M191.8 344.6l-29-16.6c-1.3-.7-1.1-2.1.4-2.9l6.3-3.6c1.5-.9 3.8-1 5.1-.2l29 16.6c1.3.7 1.1 2.1-.4 2.9l-6.3 3.6c-1.5.9-3.8 1-5.1.2zm220.1 82.9L390.1 440c-1.3.7-3.5.7-4.8 0l-7.1-4.1c-1.3-.8-1.3-2 0-2.7l9.9-5.7c1.3-.8 1.3-2 0-2.8l-10.6-6.1c-1.1-.6-1.1-1.7 0-2.3l7.9-4.5c1.1-.6 2.9-.6 3.9 0l22.5 12.9c1.4.8 1.5 2 .1 2.8h0zM243.5 325.6l-8.9-5.1c-.8-.5-.7-1.3.2-1.8l8.4-4.8c1-.5 2.4-.6 3.2-.1l8.9 5.1c.8.5.7 1.3-.2 1.8l-8.4 4.8c-.9.6-2.3.6-3.2.1zm15.4 8.9l-8.9-5.1c-.8-.5-.7-1.3.2-1.8l8.4-4.8c1-.5 2.4-.6 3.2-.1l8.9 5.1c.8.5.7 1.3-.2 1.8l-8.4 4.8a4 4 0 0 1-3.2.1zm15.4 8.8l-8.9-5.1c-.8-.5-.7-1.3.2-1.8l8.4-4.8c1-.5 2.4-.6 3.2-.1l8.9 5.1c.8.5.7 1.3-.2 1.8l-8.4 4.8c-1 .5-2.4.6-3.2.1zm15.3 8.8l-8.9-5.1c-.8-.5-.7-1.3.2-1.8l8.4-4.8c1-.5 2.4-.6 3.2-.1l8.9 5.1c.8.5.7 1.3-.2 1.8l-8.4 4.8c-.9.5-2.3.6-3.2.1zm15.4 8.8l-8.9-5.1c-.8-.5-.7-1.3.2-1.8l8.4-4.8c1-.5 2.4-.6 3.2-.1l8.9 5.1c.8.5.7 1.3-.2 1.8l-8.4 4.8c-.9.5-2.4.6-3.2.1zm15.4 8.8l-8.9-5.1c-.8-.5-.7-1.3.2-1.8l8.4-4.8c1-.5 2.4-.6 3.2-.1l8.9 5.1c.8.5.7 1.3-.2 1.8l-8.4 4.8c-1 .5-2.4.6-3.2.1zm15.3 8.8l-8.9-5.1c-.8-.5-.7-1.3.2-1.8l8.4-4.8c1-.5 2.4-.6 3.2-.1l8.9 5.1c.8.5.7 1.3-.2 1.8l-8.4 4.8c-.9.5-2.3.6-3.2.1zm15.4 8.8l-8.9-5.1c-.8-.5-.7-1.3.2-1.8l8.4-4.8c1-.5 2.4-.6 3.2-.1l8.9 5.1c.8.5.7 1.3-.2 1.8l-8.4 4.8c-1 .6-2.4.6-3.2.1zm15.4 8.9l-8.9-5.1c-.8-.5-.7-1.3.2-1.8l8.4-4.8c1-.5 2.4-.6 3.2-.1l8.9 5.1c.8.5.7 1.3-.2 1.8l-8.4 4.8a4 4 0 0 1-3.2.1zm15.3 8.8l-8.9-5.1c-.8-.5-.7-1.3.2-1.8l8.4-4.8c1-.5 2.4-.6 3.2-.1l8.9 5.1c.8.5.7 1.3-.2 1.8l-8.4 4.8c-.9.5-2.3.5-3.2.1zm32.2 18.4l-24.8-14.2c-1.3-.7-1.1-2 .4-2.9l6.4-3.7c1.5-.9 3.7-.9 5-.2l24.8 14.2c1.3.7 1.1 2-.4 2.9l-6.4 3.7c-1.5.9-3.8 1-5 .2z"/></g><path d="M216.7 463.1L135 416.2l59.3-34 81.7 46.9-59.3 34zm-81.1-46.9l81.1 46.5 58.6-33.6-81.1-46.5-58.6 33.6z" fill="none" stroke="#bed3f4" class="g j"/><linearGradient id="j" gradientUnits="userSpaceOnUse" x1="658.83" y1="396.22" x2="950.94" y2="565.92"><stop offset="0" stop-color="#e5faff"/><stop offset="1" stop-color="#bdd2f4"/></linearGradient><path d="M499.2 415L227.8 259.3c-3.6-2.1-7-6.4-8.5-11.1l-.3-1.2-2-208.6c0-2.8.9-4.8 2.6-5.8s4-.8 6.4.6l275.1 157.9a18.8 18.8 0 0 1 6.4 6.7c1.7 2.9 2.6 6.1 2.6 8.8l-2 206.2-.4.8c-1.6 2.9-4.9 3.5-8.5 1.4h0zM227.9 249.1L499 404.7l2-203.4L226 43.5l1.9 205.6h0z" fill="url(#j)"/><linearGradient id="k" gradientUnits="userSpaceOnUse" x1="222.53" y1="54.01" x2="485.66" y2="379.83"><stop offset="0" stop-color="#3b92ff"/><stop offset="1" stop-color="#4f9eff"/></linearGradient><path d="M503.1 208.3L501 410.9c-.8 1.5-2.5 1.8-4.4.7L225.4 255.9a6.1 6.1 0 0 1-1.6-1.2c-1.2-1.2-2.2-2.8-2.8-4.5l-2.1-205c-1.1-4.3.7-7.4 3.4-5.8l277.5 159.2s.1.1.2.1a9.7 9.7 0 0 1 3.1 9.6h0z" fill="url(#k)"/><linearGradient id="l" gradientUnits="userSpaceOnUse" x1="655.01" y1="397.15" x2="947.12" y2="566.85"><stop offset="0" stop-color="#1c1265"/><stop offset="1" stop-color="#0f042e"/></linearGradient><path d="M496.7 416.7L225.4 261c-3.6-2.1-7-6.4-8.5-11.1l-.4-1.2-2-208.6c0-2.8.9-4.8 2.6-5.8s4-.8 6.4.6l275.1 157.9a18.8 18.8 0 0 1 6.4 6.7c1.7 2.9 2.6 6.1 2.6 8.8l-2 206.2-.4.8c-1.6 3-4.9 3.5-8.5 1.4h0zM225.5 250.8l271.1 155.6 2-203.4L223.5 45.2l2 205.6z" fill="url(#l)"/><linearGradient id="m" gradientUnits="userSpaceOnUse" x1="394.8" y1="288.27" x2="317.32" y2="143.3"><stop offset="0" stop-color="#f5f5f5"/><stop offset=".05" stop-color="#c7c7c7"/><stop offset=".09" stop-color="#9c9c9c"/><stop offset=".14" stop-color="#777"/><stop offset=".2" stop-color="#565656"/><stop offset=".25" stop-color="#3b3b3b"/><stop offset=".32" stop-color="#252525"/><stop offset=".4" stop-color="#141414"/><stop offset=".49" stop-color="#080808"/><stop offset=".63" stop-color="#010101"/><stop offset="1"/></linearGradient><path d="M225.5 250.8l-2-205.7L498.6 203c-91.5 61.8-239.6 67.1-273.1 47.8z" opacity=".1" fill="url(#m)"/><g class="d"><path d="M469.6 216.9v186.3c0 7.9-5.6 11.2-12.6 7.2L180.7 251.7c-7-4-12.6-13.7-12.6-21.6V43.7c0-7.9 5.6-11.2 12.6-7.2L457 195.2c7 4 12.6 13.7 12.6 21.7h0z"/><path d="M171.1 36.1c2.1-1.2 5.1-1.1 8.5.9l276.3 158.6c3.4 1.9 6.5 5.3 8.7 9.2 2.3 3.9 3.6 8.2 3.6 12.1v186.3c0 3.9-1.4 6.5-3.5 7.6-2 1.1-4.9 1.1-8.1-.7l-.3-.2L180 251.3c-3.4-1.9-6.5-5.3-8.7-9.2-2.3-3.9-3.6-8.2-3.6-12.1V43.7c0-3.8 1.3-6.4 3.4-7.6z" stroke="#0668e1" stroke-width=".94"/><path d="M331 254.4l47.8 27.5c1.7 1 3 3.3 3 5.3v67.4c0 1.9-1.4 2.7-3 1.8L331 328.8c-1.7-1-3-3.3-3-5.3v-67.4c-.1-1.9 1.3-2.7 3-1.7z" class="k l"/></g><g class="e f"><path d="M354.8 287.3v-.2c0-.1 0-.1-.1-.2 0-.1-.1-.1-.1-.1l-.1-.1a8.2 8.2 0 0 0-4.9-1s-.1 0-.1.1v.1.1c0 .1 0 .1.1.2l1.3 2.8c0 .1.1.2.2.3s.2.1.2.1c1-.2 2.1.1 3.2.6h.2s.1-.1.1-.2v-2.5z"/><use href="#K"/><path d="M346.1 289.7l-.1-.1h-.1-.1s0 .1-.1.1c-.5 1.7-.5 3.7 0 5.9 0 .1 0 .1.1.2 0 .1.1.1.1.1l.1.1s.1 0 .1.1l2.1.4c.1 0 .1 0 .2-.1s0-.1 0-.3c-.3-1.5-.3-2.8 0-3.9v-.3c0-.1-.1-.2-.2-.3l-2.1-1.9z"/></g><g class="b"><use href="#L"/><path d="M349.5 303.5s0 .1-.1.1v.1.2c0 .1.1.1.1.2a17.7 17.7 0 0 0 4.9 4.6h.1.1s.1 0 .1-.1v-.1-2.6c0-.1 0-.2-.1-.3s-.1-.2-.2-.2c-1.2-.7-2.3-1.8-3.2-3.1l-.2-.2h-.2l-1.3 1.4zm5.5 5.1v.2c0 .1 0 .1.1.2l.1.1.1.1a8.2 8.2 0 0 0 4.9 1s.1 0 .1-.1v-.1-.1c0-.1 0-.1-.1-.2l-1.3-2.8c0-.1-.1-.2-.2-.3s-.2-.1-.2-.1c-1 .2-2.1-.1-3.2-.6h-.2c-.1 0-.1.1-.1.2v2.5z"/><use href="#M"/><path d="M363.6 306.1l.1.1h.1.1s0-.1.1-.1c.5-1.7.5-3.7 0-5.9 0-.1 0-.1-.1-.2 0-.1-.1-.1-.1-.2l-.1-.1s-.1 0-.1-.1l-2.1-.4c-.1 0-.1 0-.2.1v.3c.3 1.5.3 2.8 0 3.9v.3c0 .1.1.2.2.3l2.1 2z"/><use href="#N"/><use href="#O"/></g><g class="e"><use href="#P" class="f"/><use href="#Q" class="f"/><use href="#R"/><use href="#S"/><use href="#T"/><use href="#U"/><use href="#V"/><use href="#W"/><path d="M368.1 300.4h.2l.1-.1v-.2-.2c-.9-3.4-2.5-6.8-4.5-9.8l-.2-.2c-.1-.1-.1-.1-.2-.1h-.2c-.1 0-.1 0-.1.1l-2 2c-.1.1-.1.2-.1.3s.1.3.2.5c1.4 2 2.4 4.3 3 6.5 0 .2.1.3.2.4s.2.2.4.2l3.2.6z"/><use href="#X"/></g><g class="b"><path d="M337.4 316l2.7 1.5c.2.1.4.5.4.8v3.1c0 .3-.2.4-.4.3l-2.7-1.5c-.2-.1-.4-.5-.4-.8v-3.1c-.1-.3.1-.5.4-.3zm6.2 3.5l19.5 11.2c.7.4 1.3 1.4 1.3 2.3v1c0 .8-.6 1.2-1.3.8l-19.5-11.2c-.7-.4-1.3-1.4-1.3-2.3v-1c0-.8.6-1.2 1.3-.8z"/></g><g class="e"><use href="#Y"/><path d="M343.1 325.9l28.3 16.3c.7.4 1.3 1.4 1.3 2.3v1c0 .8-.6 1.2-1.3.8L343.1 330c-.7-.4-1.3-1.4-1.3-2.3v-1c0-.8.6-1.2 1.3-.8z"/></g><path d="M391.9 288.7l47.8 27.5c1.7 1 3 3.3 3 5.3v67.4c0 1.9-1.4 2.7-3 1.8l-47.8-27.5c-1.7-1-3-3.3-3-5.3v-67.4c-.1-1.9 1.3-2.7 3-1.8z" class="d k l"/><g class="e f"><path d="M415.7 321.6v-.2c0-.1 0-.1-.1-.2l-.1-.1-.1-.1a8.2 8.2 0 0 0-4.9-1s-.1 0-.1.1v.1.1c0 .1 0 .1.1.2l1.3 2.8c0 .1.1.2.2.3s.2.1.2.1c1-.2 2.1.1 3.2.6h.2s.1-.1.1-.2v-2.5zm-5.4-1c0-.1-.1-.1-.1-.2l-.1-.1-.1-.1h-.1c-1.4.5-2.4 1.5-3 3v.1.2c0 .1 0 .1.1.2 0 .1.1.1.1.1l2.1 2c.1.1.2.1.2.1.1 0 .1 0 .2-.1a3.3 3.3 0 0 1 2-2c.1 0 .1-.1.1-.2s0-.2-.1-.3l-1.3-2.7z"/><path d="M407 324l-.1-.1h-.1-.1s0 .1-.1.1c-.5 1.7-.5 3.7 0 5.9 0 .1 0 .1.1.2 0 .1.1.1.1.1l.1.1s.1 0 .1.1l2.1.4c.1 0 .1 0 .2-.1s0-.1 0-.3c-.3-1.5-.3-2.8 0-3.9v-.3c0-.1-.1-.2-.2-.3L407 324z"/></g><g class="b"><path d="M407 330.6h-.1s-.1 0-.1.1v.1.2c.6 2.2 1.6 4.5 3 6.5l.1.1.1.1h.1.1l1.3-1.3s.1-.1.1-.2-.1-.2-.1-.3a15.2 15.2 0 0 1-2-4.3c0-.1-.1-.2-.2-.3s-.2-.1-.2-.2l-2.1-.5zm3.4 7.2s0 .1-.1.1v.1.2c0 .1.1.1.1.2a17.7 17.7 0 0 0 4.9 4.6h.1.1s.1 0 .1-.1v-.1-2.6c0-.1 0-.2-.1-.3s-.1-.2-.2-.2c-1.2-.7-2.3-1.8-3.2-3.1-.1-.1-.1-.2-.2-.2h-.2l-1.3 1.4z"/><path d="M415.8 342.9v.2c0 .1 0 .1.1.2 0 .1.1.1.1.1l.1.1a8.2 8.2 0 0 0 4.9 1s.1 0 .1-.1v-.1-.1c0-.1 0-.1-.1-.2l-1.3-2.8c0-.1-.1-.2-.2-.3s-.2-.1-.2-.1c-1 .2-2.1-.1-3.2-.6h-.2c-.1 0-.1.1-.1.2v2.5zm5.4 1c0 .1.1.1.1.2l.1.1.1.1h.1c1.4-.5 2.4-1.5 3-3v-.1-.2c0-.1 0-.1-.1-.2 0-.1-.1-.1-.1-.1l-2.1-2c-.1-.1-.2-.1-.2-.1-.1 0-.1 0-.2.1a3.3 3.3 0 0 1-2 2c-.1 0-.1.1-.1.2s0 .2.1.3l1.3 2.7z"/><path d="M424.5 340.5l.1.1h.1.1s0-.1.1-.1c.5-1.7.5-3.7 0-5.9 0-.1 0-.1-.1-.2 0-.1-.1-.1-.1-.2l-.1-.1s-.1 0-.1-.1l-2.1-.4c-.1 0-.1 0-.2.1s0 .2 0 .3c.3 1.5.3 2.8 0 3.9v.3c0 .1.1.2.2.3l2.1 2z"/><path d="M424.5 333.9h.1s.1 0 .1-.1v-.1-.2c-.6-2.2-1.6-4.5-3-6.5l-.1-.1-.1-.1h-.1-.1l-1.3 1.3s-.1.1-.1.2.1.2.1.3a15.2 15.2 0 0 1 2 4.3c0 .1.1.2.2.3s.2.1.2.2l2.1.5z"/><path d="M421.1 326.7s0-.1.1-.1v-.1-.2c0-.1-.1-.1-.1-.2a17.7 17.7 0 0 0-4.9-4.6h-.1-.1s-.1 0-.1.1v.1 2.6c0 .1 0 .2.1.3s.1.2.2.2c1.2.7 2.3 1.8 3.2 3.1l.2.2h.2l1.3-1.4z"/></g><g class="e"><path d="M415.7 316.1v-.2c0-.1-.1-.2-.1-.2 0-.1-.1-.2-.2-.2-.1-.1-.1-.1-.2-.1-2.6-1.4-5.2-1.9-7.4-1.5-.1 0-.1 0-.1.1 0 0-.1.1-.1.2v.2c0 .1 0 .2.1.2l2 4.3c.1.2.2.3.3.4s.2.1.3.1a8.2 8.2 0 0 1 4.9 1c.1.1.2.1.3 0s.1-.2.1-.3v-4zm-8.2-1.5c0-.1-.1-.2-.1-.2l-.2-.2c-.1-.1-.1-.1-.2-.1h-.2c-2.1.7-3.6 2.3-4.5 4.6v.2.2c0 .1.1.2.1.2 0 .1.1.1.2.2l3.2 3c.1.1.2.2.4.2.1 0 .2-.1.2-.2a5.4 5.4 0 0 1 3-3.1c.1 0 .2-.1.2-.3 0-.1 0-.3-.1-.4l-2-4.1z" class="f"/><path d="M402.5 319.8c-.1-.1-.1-.1-.2-.1h-.2c-.1 0-.1 0-.1.1l-.1.1c-.7 2.5-.7 5.6 0 8.9 0 .1 0 .2.1.2 0 .1.1.2.1.2l.2.2c.1 0 .1.1.2.1l3.2.6c.1 0 .2 0 .3-.1s.1-.2 0-.4c-.4-2.2-.4-4.3 0-5.9v-.4c0-.1-.2-.3-.3-.4l-3.2-3.1z"/><path d="M402.6 329.7h-.2l-.1.1v.2.2c.9 3.4 2.5 6.8 4.5 9.8l.2.2c.1.1.1.1.2.1h.2c.1 0 .1 0 .1-.1l2-2c.1-.1.1-.2.1-.3s-.1-.3-.2-.5c-1.4-2.1-2.4-4.3-3-6.5 0-.2-.1-.3-.2-.4s-.2-.2-.4-.2l-3.2-.6zm5.1 11s-.1.1-.1.2v.2c0 .1 0 .2.1.2 0 .1.1.2.1.2 2.2 2.9 4.7 5.3 7.4 7 .1 0 .1.1.2.1h.2l.1-.1v-.2-3.9c0-.1 0-.3-.1-.5s-.2-.3-.3-.4a19.6 19.6 0 0 1-4.9-4.7l-.3-.3h-.3l-2.1 2.2z"/><path d="M415.9 348.3v.2c0 .1.1.2.1.2 0 .1.1.1.2.2s.1.1.2.1c2.6 1.4 5.2 1.9 7.4 1.5.1 0 .1 0 .1-.1 0 0 .1-.1.1-.2v-.2c0-.1 0-.2-.1-.2l-2-4.3c-.1-.2-.2-.3-.3-.4s-.2-.1-.3-.1a8.2 8.2 0 0 1-4.9-1c-.1-.1-.2-.1-.3 0s-.1.2-.1.3v4z"/><path d="M424 349.9c0 .1.1.2.1.2l.2.2c.1 0 .1.1.2.1h.2c2.1-.7 3.6-2.3 4.5-4.6v-.2-.2c0-.1-.1-.2-.1-.2 0-.1-.1-.1-.2-.2l-3.2-3c-.1-.1-.2-.2-.4-.2-.1 0-.2.1-.2.2a5.4 5.4 0 0 1-3 3.1c-.1 0-.2.1-.2.3 0 .1 0 .3.1.4l2 4.1z"/><path d="M429 344.7c.1.1.1.1.2.1h.2c.1 0 .1 0 .1-.1l.1-.1c.7-2.5.7-5.6 0-8.9 0-.1 0-.2-.1-.2 0-.1-.1-.2-.1-.2l-.2-.2c-.1 0-.1-.1-.2-.1l-3.2-.6c-.1 0-.2 0-.3.1s-.1.2 0 .4c.4 2.2.4 4.3 0 5.9v.4c.1.2.2.3.3.4l3.2 3.1z"/><path d="M429 334.7h.2l.1-.1v-.2-.2c-.9-3.4-2.5-6.8-4.5-9.8l-.2-.2c-.1-.1-.1-.1-.2-.1h-.2c-.1 0-.1 0-.1.1l-2 2c-.1.1-.1.2-.1.3s.1.3.2.5c1.4 2.1 2.4 4.3 3 6.5 0 .2.1.3.2.4s.2.2.4.2l3.2.6zm-5.2-10.9s.1-.1.1-.2v-.2c0-.1 0-.2-.1-.2 0-.1-.1-.2-.1-.2-2.2-2.9-4.7-5.3-7.4-7-.1 0-.1-.1-.2-.1h-.2l-.1.1v.2 3.9c0 .1 0 .3.1.5s.2.3.3.4a19.6 19.6 0 0 1 4.9 4.7l.3.3h.3l2.1-2.2z"/></g><g class="b"><path d="M398.3 350.3l2.7 1.5c.2.1.4.5.4.8v3.1c0 .3-.2.4-.4.3l-2.7-1.5c-.2-.1-.4-.5-.4-.8v-3.1c-.1-.3.1-.4.4-.3zm6.2 3.6l19.5 11.2c.7.4 1.3 1.4 1.3 2.3v1c0 .8-.6 1.2-1.3.8L404.5 358c-.7-.4-1.3-1.4-1.3-2.3v-1c-.1-.9.5-1.2 1.3-.8z"/></g><g class="e"><path d="M398.3 357l2.7 1.5c.2.1.4.5.4.8v3.1c0 .3-.2.4-.4.3l-2.7-1.5c-.2-.1-.4-.5-.4-.8v-3.1c-.1-.4.1-.5.4-.3zm5.7 3.3l28.3 16.3c.7.4 1.3 1.4 1.3 2.3v1c0 .8-.6 1.2-1.3.8L404 364.4c-.7-.4-1.3-1.4-1.3-2.3v-1c0-.9.6-1.3 1.3-.8z"/></g><use href="#Z" class="d"/><use href="#Z" fill="none" class="k l"/><defs><path id="n" d="M211.9 159.2l235.7 135.3c.2.1.4.4.4.7v2.3c0 .3-.2.4-.4.2L211.9 162.4c-.2-.1-.4-.4-.4-.7v-2.3c0-.2.1-.3.4-.2z"/></defs><clipPath id="o"><use href="#n"/></clipPath><g clip-path="url(#o)"><path d="M211.9 159.2l235.7 135.3c.2.1.4.4.4.7v2.3c0 .3-.2.4-.4.2L211.9 162.4c-.2-.1-.4-.4-.4-.7v-2.3c0-.2.1-.3.4-.2z" fill="#eee"/><path d="M216.2 161.7l90.8 52.1v3.2l-90.8-52.1z" class="m"/><defs><path id="p" d="M211.5 159l2.7 1.6v3.2l-2.7-1.6z"/></defs><clipPath id="q"><use href="#p"/></clipPath><g clip-path="url(#q)"><path d="M211.5 159l2.7 1.6v3.2l-2.7-1.6z" class="m"/><defs><path id="r" d="M214 163.4v-2.7l-2.3-1.4v2.8z"/></defs><clipPath id="s"><use href="#r"/></clipPath><g clip-path="url(#s)"><path d="M213.2 162.4h0l-.7-1.2v-.1-.1l.7-.3h0l.1.1v1.5c0 .1 0 .2-.1.1z" fill="#505050"/></g></g><defs><path id="t" d="M445.2 293.2l2.7 1.6v3.1l-2.7-1.5z"/></defs><clipPath id="u"><use href="#t"/></clipPath><g clip-path="url(#u)"><path d="M445.2 293.2l2.7 1.6v3.1l-2.7-1.5z" class="m"/><defs><path id="v" d="M445.4 296.3v-2.8l2.3 1.4v2.7z"/></defs><clipPath id="w"><use href="#v"/></clipPath><g clip-path="url(#w)"><path d="M446.2 296.2h0l.7-.3v-.1-.1l-.7-1.1h0-.1v1.5c0 0 0 .1.1.1z" fill="#505050"/></g></g></g><path d="M181.8 141.5l2.4 1.4c.2.1.4.4.4.7v2.7c0 .3-.2.4-.4.2l-2.4-1.4c-.2-.1-.4-.4-.4-.7v-2.7c0-.2.2-.3.4-.2z" class="b"/><path d="M186.6 145.6c.1.1.2.1.3.2s.2.2.2.3c.1.1.1.2.1.4v.5.4c0 .1-.1.2-.1.2s-.1.1-.2 0c-.1 0-.2-.1-.3-.1-.1-.1-.2-.1-.3-.2s-.2-.2-.2-.3c-.1-.1-.1-.2-.1-.4v-.5-.4c0-.1.1-.2.1-.2.1 0 .1-.1.2 0 .1 0 .2.1.3.1zm0 .3c-.1-.1-.2-.1-.2-.1-.1 0-.1.1-.1.2v.4.5c0 .1.1.2.1.3s.1.2.2.2c.1.1.2.1.2.1.1 0 .1-.1.1-.2v-.4-.5c0-.1-.1-.2-.1-.3s-.1-.2-.2-.2zm1.6 1.2c.1.1.2.2.3.4s.1.3.1.6v.4c0 .1-.1.1-.1.1-.1 0-.1 0-.2-.1-.1 0-.2-.1-.2-.2l-.2-.2v-.1l.2.2c.1 0 .1.1.2.1s.1.1.2.1c0 0 .1 0 .1-.1v-.3-.3c0-.1 0-.1-.1-.2 0-.1-.1-.1-.1-.1-.1 0-.1-.1-.2-.1h-.2v-.2s.1 0 .1-.1h.2c-.2.1-.1.1-.1.1zm-.5-.2v.3h0v.9h0v.2.2.4l-.2-.1v-1.9h.2zm1.7.9c.2.1.3.2.4.3s.1.2.1.4c0 .1 0 .2-.1.2h-.2l-.7-.4v-.2l.6.3h.1v-.1c0-.1 0-.2-.1-.2 0-.1-.1-.1-.2-.2-.1 0-.1-.1-.2-.1 0 0-.1 0-.1.1v.3.3c0 .1.1.2.1.2l.2.2c.1 0 .1.1.2.1s.1.1.2.1v.2h-.1c-.1 0-.1 0-.2-.1-.1 0-.1-.1-.2-.1l-.3-.3c-.1-.1-.1-.2-.2-.3 0-.1-.1-.3-.1-.4 0-.2 0-.3.1-.4 0-.1.1-.1.2-.1.3.1.4.2.5.2zm1.5.9c.2.1.3.3.3.5v1l-.2-.1v-.9-.2l-.1-.1c-.1 0-.1-.1-.2-.1h-.2v-.2h.3c0 0 .1 0 .1.1zm-.5-.3v.3h0v1l-.2-.1v-1.3l.2.1z" class="n"/><path d="M196.2 149.8l2.4 1.4c.2.1.4.4.4.7v2.7c0 .3-.2.4-.4.2l-2.4-1.4c-.2-.1-.4-.4-.4-.7V150c0-.3.2-.4.4-.2z" fill="#589aeb"/><path d="M200.9 153.9c.1 0 .1.1.2.1s.1.1.1.1l.1.1v.2l-.1-.1-.1-.1s-.1-.1-.2-.1c-.1-.1-.2-.1-.2-.1-.1 0-.1.1-.1.2v.4.5c0 .1.1.2.1.3l.2.2c.1.1.2.1.3.1s.1.1.2.1v.2c-.1 0-.1 0-.2-.1-.1 0-.2-.1-.3-.1-.2-.1-.3-.2-.4-.3s-.2-.3-.2-.4c0-.2-.1-.4-.1-.6s0-.4.1-.5c0-.1.1-.2.2-.2.2-.1.3 0 .4.1zm1 .5v1.5.2l.1.1.1.1v.2h-.1-.1-.1c-.1-.1-.2-.1-.2-.2-.1-.1-.1-.2-.1-.3v-1.6h.4zm1 1.2l.3.3c.1.1.1.2.2.3 0 .1.1.3.1.4 0 .2 0 .3-.1.4 0 .1-.1.1-.2.1s-.2 0-.3-.1l-.3-.3c-.1-.1-.1-.2-.2-.3 0-.1-.1-.3-.1-.4 0-.2 0-.3.1-.4 0-.1.1-.1.2-.1.1-.1.2 0 .3.1zm0 .2c-.1 0-.1-.1-.2-.1 0 0-.1 0-.1.1v.3.3c0 .1.1.2.1.2 0 .1.1.1.2.1s.1.1.2.1c0 0 .1 0 .1-.1v-.3-.3c0-.1-.1-.2-.1-.2-.1 0-.1-.1-.2-.1zm1.3.5c.1 0 .1.1.2.1s.1.1.2.1.1.1.2.1v.2c-.1 0-.1-.1-.2-.1s-.1-.1-.2-.1-.1-.1-.2-.1h-.1v.1.1l.1.1.3.3.2.2c0 .1.1.2.1.3s0 .2-.1.2h-.2c-.1 0-.2-.1-.3-.1 0 0-.1-.1-.2-.1-.1-.1-.2-.1-.3-.2v-.2s.1 0 .1.1l.1.1.1.1c.1 0 .2.1.2.1h.1v-.1c0-.1 0-.1-.1-.1l-.1-.1-.3-.3-.2-.2c0-.1-.1-.1-.1-.2v-.2-.2h.1c.4 0 .4 0 .6.1zm1.3.7c.2.1.3.2.4.3s.1.2.1.4c0 .1 0 .2-.1.2h-.2l-.7-.4v-.2l.6.4h.1v-.1c0-.1 0-.2-.1-.2 0-.1-.1-.1-.2-.2-.1 0-.1-.1-.2-.1 0 0-.1 0-.1.1v.3.3c0 .1.1.2.1.2l.2.2c.1 0 .1.1.2.1s.1.1.2.1v.2h-.1c-.1 0-.1 0-.2-.1-.1 0-.1-.1-.2-.1l-.3-.3c-.1-.1-.1-.2-.2-.3 0-.1-.1-.3-.1-.4 0-.2 0-.3.1-.4 0-.1.1-.1.2-.1.2 0 .3.1.5.1zm1.1.7c.1 0 .2.1.2.2l.2.2v.1l-.2-.2c-.1 0-.1-.1-.2-.1s-.1-.1-.2 0c0 0-.1 0-.1.1v.3.3c0 .1 0 .1.1.2l.1.1s.1 0 .1.1h.1.1v.2c-.1 0-.1.1-.2.1s-.2 0-.3-.1-.2-.2-.3-.4-.1-.3-.1-.6v-.4c0-.1.1-.1.1-.1.5-.1.5-.1.6 0zm.7-.2v1.9l-.2-.1v-.2h0v-.9h0v-.2-.2-.4l.2.1z" class="n"/><g fill="none" stroke="#c1c1c1"><path d="M447.9,282L189.4,133.5V95.1" stroke-width=".23"/><g stroke-width=".11" stroke-dasharray="0.91,0.91"><use href="#a"/><path d="M189.4 99.6L447.9 248M189.4 103.2l258.5 148.5M189.4 106.9l258.5 148.4M189.4 110.5L447.9 259M189.4 114.1l258.5 148.5M189.4 117.8l258.5 148.5M189.4 121.4l258.5 148.5M189.4 125.1l258.5 148.4M189.4 128.7l258.5 148.5M189.4 132.3l258.5 148.5"/></g></g><path d="M425 268.9v-6.2l9.9 5.7v6.1z" class="b"/><path d="M425 262.7v-4.5l9.9 5.6v4.6z" class="c"/><path d="M410.4 260.5v-18.2l9.9 5.6v18.3z" class="b"/><path d="M410.4 242.3v-4.6l9.9 5.7v4.5z" class="c"/><path d="M395.8 252.1v-11.4l9.9 5.7v11.4z" class="b"/><path d="M395.8 240.7v-6.8l9.9 5.7v6.8z" class="c"/><path d="M381.2 243.7v-4.5l9.9 5.6v4.6z" class="b"/><path d="M381.2 239.2v-4.6l9.9 5.7v4.5z" class="c"/><path d="M366.6 235.3v-13.6l9.9 5.6V241z" class="b"/><path d="M366.6 221.7v-6.9l9.9 5.7v6.8z" class="c"/><path d="M352 226.9v-13.6l9.9 5.6v13.7z" class="b"/><path d="M352 213.3v-3.9l9.9 5.7v3.8z" class="c"/><path d="M337.4 218.6v-18.3l9.9 5.7v18.2z" class="b"/><path d="M337.4 200.3v-4.5l9.9 5.7v4.5z" class="c"/><path d="M322.8 210.2v-4.1l9.9 5.6v4.1z" class="b"/><path d="M322.8 206.1v-4.6l9.9 5.7v4.5z" class="c"/><path d="M308.2 201.8V195l9.8 5.6v6.8z" class="b"/><path d="M308.2 195v-18.3l9.8 5.7v18.2z" class="c"/><path d="M293.6 193.4v-9.1l9.8 5.7v9.1z" class="b"/><path d="M293.6 184.3v-3.9l9.8 5.7v3.9z" class="c"/><path d="M279 185v-9.1l9.8 5.7v9.1z" class="b"/><path d="M279 175.9v-6.8l9.8 5.6v6.9z" class="c"/><path d="M264.4 176.6v-6.1l9.8 5.6v6.2z" class="b"/><path d="M264.4 170.5v-4.6l9.8 5.7v4.5z" class="c"/><path d="M249.8 168.2v-13.8l9.8 5.6v13.9z" class="b"/><path d="M249.8 154.4v-9.2l9.8 5.7v9.1z" class="c"/><path d="M235.2 159.8v-18.2l9.8 5.7v18.2z" class="b"/><path d="M235.2 141.6v-4.5l9.8 5.7v4.5z" class="c"/><path d="M220.6 151.5v-4.6l9.8 5.7v4.5z" class="b"/><path d="M220.6 146.9v-4.5l9.8 5.6v4.6z" class="c"/><path d="M205.9 143.1v-11.4l9.9 5.7v11.3z" class="b"/><path d="M205.9 131.7v-6.8l9.9 5.6v6.9z" class="c"/><path d="M191.3 134.7v-22.8l9.9 5.7v22.8z" class="b"/><path d="M191.3 111.9v-6.8l9.9 5.7v6.8z" class="c"/><path d="M181.6 118v-.3c0-.1.1-.1.1-.2h.3c.1 0 .2.1.4.2s.3.2.4.3l.3.3c.1.1.1.2.1.3v.4.4.3l-.2-.2v-.2-.3c0-.1 0-.2-.1-.3 0-.1-.1-.2-.2-.3s-.2-.2-.4-.3-.3-.2-.4-.2h-.2s-.1.1-.1.2v.3.3h-.2v-.3c.2-.2.2-.3.2-.4zm.1.4l1.6.9v.3l-1.6-.9v-.3zm.4-1.9v-.2c0-.1.1-.1.1-.1.1 0 .1 0 .2.1l.8.5v.2l-.3-.1h0l-.5-.3h-.1v.2.3.3l-.2-.1v-.2-.2-.4zm.5-.1l.2.1v.6.2l.1.1h.1.1v-.1-.2c0-.1 0-.2-.1-.2 0-.1-.1-.2-.1-.2l.1.1s0 .1.1.1c0 .1.1.1.1.2s.1.1.1.2v.2.2l-.1.1h-.2l-.1-.1c-.1-.1-.2-.1-.2-.2-.1-.1-.1-.2-.1-.3v-.8zm-.5-2l1.2 1.2.2.2c.1.1.1.1.1.2s.1.2.1.2v.3l-.1-.1c0-.1-.1-.2-.1-.3s-.1-.2-.2-.2l-.1-.2-.1-.1-.1-.1-.8-.8v-.3zm0 1.1l.8.1h.1.1v-.1l.2.2v.1l-1.1-.2v-.1zm0-1.8v-.2-.2-.2l.2.1v.3.2.2.1l.1.1h.1v-.1l.1-.3c0-.1.1-.2.1-.2h.2c.1.1.2.1.2.2s.1.1.1.2v.3.2.3l-.2-.1v-.1-.2-.2-.2-.1l-.1-.1h-.1v.1l-.1.3c0 .1 0 .1-.1.1h-.1s-.1 0-.2-.1-.2-.1-.2-.2-.1-.1-.1-.2c.1.2.1.1.1 0zm-.5-2.5v-.3c0-.1.1-.1.1-.2h.3c.1 0 .2.1.4.2s.3.2.4.3l.3.3c.1.1.1.2.1.3v.4.3c0 .1-.1.1-.1.2h-.3c-.1 0-.2-.1-.4-.2s-.3-.2-.4-.3l-.3-.3c-.1-.1-.1-.2-.1-.3v-.4zm.2.1c0 .1 0 .2.1.3 0 .1.1.2.2.3s.2.2.4.3.3.2.4.2h.2s.1-.1.1-.2 0-.2-.1-.3c0-.1-.1-.2-.2-.3s-.2-.2-.4-.3-.3-.2-.4-.2h-.2s-.1.1-.1.2zm.3-1.8c0-.2.1-.3.2-.3s.3 0 .5.2c.1.1.3.2.4.3s.1.2.2.3c0 .1.1.2.1.3v.2c0 .1-.1.1-.1.2l-.1-.1c0-.1 0-.1.1-.2v-.2-.2c0-.1-.1-.1-.1-.2-.1-.1-.1-.1-.3-.2-.1-.1-.2-.1-.3-.1h-.1v.1.2c0 .1.1.2.1.3l-.1-.1c0-.1-.1-.1-.1-.2s-.1-.2-.1-.2c-.3.1-.3 0-.3-.1zm0 .6l.2.1h0l.7.4h0s.1 0 .1.1c0 0 .1 0 .1.1l.3.2v.3l-1.6-.9v-.3zm0-2c0-.2 0-.3.1-.4s.2 0 .3 0c.1.1.2.1.2.2.1.1.1.2.1.3v.8l-.2-.1v-.7c0-.1 0-.1-.1-.1l-.1-.1h-.2v.2.2c0 .1.1.1.1.2l.2.2c.1.1.2.1.3.1s.1 0 .1-.1v-.2-.2-.2l.1.1v.2.2.2c0 .2 0 .3-.1.3s-.1.1-.2.1-.2-.1-.4-.1c-.2-.1-.3-.2-.4-.3s-.2-.2-.2-.3c.4-.2.4-.3.4-.5zm0-1.7c0-.2.1-.3.3-.2l.9.5v.3l-.8-.5c-.1 0-.1-.1-.1 0v.1.3c0 .1.1.2.1.4l-.2-.1c-.1-.1-.1-.3-.2-.4s0-.3 0-.4zm0 .6l.2.1h0l.9.5v.3l-1.2-.7v-.2z" class="e"/><defs><path id="x" d="M437.7 228.3l3.9 2.3v4.6l-3.9-2.3z"/></defs><clipPath id="y"><use href="#x"/></clipPath><g clip-path="url(#y)"><path d="M440.8 230.5l-2.3-1.3c-.3-.2-.5 0-.5.3v2.7a1.2 1.2 0 0 0 .5.9l2.3 1.3c.3.2.5 0 .5-.3v-2.7c0-.4-.2-.7-.5-.9zm-1.8 1.8c0 .1-.1.2-.2.1s-.2-.2-.2-.3v-.8c0-.1.1-.2.2-.1s.2.2.2.3v.8zm.8.5c0 .1-.1.2-.2.1s-.2-.2-.2-.3v-1.9c0-.1.1-.2.2-.1s.2.2.2.3v1.9zm.8.5c0 .1-.1.2-.2.1s-.2-.2-.2-.3V232c0-.1.1-.2.2-.1s.2.2.2.3v1.1z" fill="#606060"/></g><g fill="#606060"><path d="M447.4 236.2c0 .3-.1.6-.2.8-.2.2-.4.3-.7.2-.3 0-.6-.2-.8-.4-.3-.2-.5-.5-.7-.9s-.3-.7-.4-1.1 0-.7.1-.9.3-.4.5-.4.5 0 .8.2v-.2l.4.6-.4.1v-.2c-.2-.1-.5-.2-.6-.1-.2 0-.3.2-.4.4s-.1.5-.1.7c0 .3.2.6.3.9.2.3.4.5.6.7s.5.3.7.3.4 0 .5-.2c.1-.1.2-.4.2-.6l.2.1z"/><path d="M446.5 234.3c0-.1.1-.1.2 0s.1.2.2.3.1.2 0 .2h0c-.1 0-.1 0-.2-.1 0-.1-.1-.1-.1-.2-.1 0-.1-.1-.1-.2h0zm.6 1c.1 0 .2.1.2.2s.1.2.1.3 0 .2-.1.1h0c-.1 0-.2-.1-.2-.2v-.2c-.1-.1-.1-.2 0-.2h0z"/><ellipse transform="matrix(.8654 -.501 .501 .8654 -57.9017 255.0883)" cx="445.9" cy="235.3" rx=".5" ry=".8"/></g><path d="M446.2 235.5v.1h-.1c-.1 0-.1 0-.2-.1-.1 0-.1-.1-.1-.2s-.1-.1-.1-.2v-.2l.1-.1h.2 0l.1.1h-.1 0-.1s-.1 0-.1.1v.1c0 .1 0 .1.1.2l.1.1.1.1c0 .1 0 .1.1 0 0 .1 0 0 0 0h0z" class="d"/><g class="e"><path d="M183.8 84.8c.4.2.6.4.8.6s.3.4.4.7.1.6.1 1 0 .7-.1.8c-.1.2-.2.2-.4.2s-.4-.1-.8-.3c-.2-.1-.3-.2-.5-.3s-.3-.2-.5-.3c-.1-.1-.3-.2-.4-.3s-.2-.1-.2-.2v-.4c.2.1.5.3.7.4s.5.3.7.4.3.1.4.2c.1 0 .2 0 .2-.1s.1-.3.1-.5 0-.4-.1-.5c0-.1-.1-.3-.2-.4s-.2-.2-.4-.3c-.3-.2-.6-.4-.9-.5-.2-.1-.4-.2-.5-.3l-.1-.7c.2.1.3.1.4.2s.3.2.5.2l.8.4zm-.7-.3v4.7l-.7-.4V84l.7.5zm4 3.6c.4.2.6.4.8.6s.4.5.5.8.1.7.1 1.1 0 .7-.1.9-.2.3-.5.3c-.2 0-.5-.1-.8-.3l-.8-.6c-.2-.2-.4-.5-.5-.8s-.1-.7-.1-1.1 0-.7.1-.9.2-.3.5-.3c.2 0 .5.1.8.3zm0 .6c-.2-.1-.3-.1-.4-.1s-.2.1-.2.2-.1.4-.1.6c0 .3 0 .5.1.7s.1.3.2.5c.1.1.2.2.4.3s.3.1.4.1.2-.1.2-.2.1-.4.1-.6c0-.3 0-.5-.1-.7 0-.2-.1-.3-.2-.5-.1-.1-.2-.2-.4-.3zm3.1 1.2c.1.1.3.2.4.3.2.1.3.2.5.3.1.1.3.2.4.3v.5l-.6-.3c-.2-.1-.4-.2-.5-.3-.2-.1-.3-.2-.4-.2s-.2-.1-.2 0c0 0-.1.1-.1.2s0 .2.1.3l.3.3.8.7c.2.2.4.4.5.6s.2.4.2.7 0 .5-.1.6-.2.1-.4.1c-.2-.1-.4-.2-.7-.3-.1-.1-.3-.2-.5-.3s-.5-.3-.7-.5v-.5c.1 0 .2.1.3.2s.2.1.3.2.3.1.4.2c.2.1.4.2.5.3.1 0 .2.1.2 0 0 0 .1-.1.1-.2s0-.2-.1-.3l-.3-.3-.8-.7-.4-.4c-.1-.1-.2-.3-.2-.4 0-.2-.1-.3-.1-.5s0-.4.1-.5.2-.1.4-.1c.1-.3.3-.2.6 0zm2.8 1.6v3.3l-.7-.4v-3.3l.7.4zm-.2-1.5c.1.1.2.2.2.4v.4c0 .2-.1.2-.2.1l-.3-.2c-.1-.1-.2-.2-.2-.4v-.4c0-.2.1-.2.2-.1l.3.2zm1.9 1.6v3.3c0 .1 0 .2.1.3s.1.2.3.2l.4.2.1.6c-.1 0-.1 0-.2-.1-.1 0-.2-.1-.3-.1s-.2-.1-.2-.1a1.7 1.7 0 0 1-.6-.6c-.1-.2-.2-.5-.2-.8v-3.4l.6.5zm.9 1.4v.6l-2.1-1.2v-.5l.6.3 1.5.8zm1.2.7V97l-.7-.4v-3.3l.7.4zm-.1-1.5c.1.1.2.2.2.4v.4c0 .2-.1.2-.2.1l-.3-.2c-.1-.1-.2-.2-.2-.4v-.4c0-.2.1-.2.2-.1l.3.2zm2.3 2.7c.4.2.6.4.8.6s.4.5.5.8.1.7.1 1.1 0 .7-.1.9-.2.3-.5.3c-.2 0-.5-.1-.8-.3l-.8-.6c-.2-.2-.4-.5-.5-.8s-.1-.7-.1-1.1 0-.7.1-.9.2-.3.5-.3a2.7 2.7 0 0 1 .8.3zm0 .6c-.2-.1-.3-.1-.4-.1s-.2.1-.2.2-.1.4-.1.6c0 .3 0 .5.1.7 0 .2.1.3.2.5.1.1.2.2.4.3s.3.1.4.1.2-.1.2-.2.1-.4.1-.6c0-.3 0-.5-.1-.7 0-.2-.1-.3-.2-.5-.1-.1-.3-.2-.4-.3zm4 1.7a1.6 1.6 0 0 1 .8 1.4v2.5l-.7-.4v-2.2c0-.2 0-.3-.1-.4s-.1-.2-.3-.3c-.1-.1-.3-.1-.4-.1h-.6v-.5c.2-.1.4-.1.6-.1.2-.1.4-.1.7.1zm-1.4-.7l.1.7.1.1v2.6l-.7-.4v-3.3l.5.3zm7.3 2.8l-1.2 3.8c0 .1-.1.1-.1.1h-.2l-.7-.4c-.1 0-.1-.1-.2-.2 0-.1-.1-.1-.1-.2l-1.2-5.1.8.4.8 4c0 .1 0 .2.1.3v.3l.2.1c0-.1 0-.2.1-.2 0-.1 0-.2.1-.2l.8-3 .8.3zm1.7 2.3c.2.1.4.3.6.4.2.2.3.3.4.6.1.2.1.5.1.8v2.2l-.6-.3-.1-.8-.1-.1V103c0-.2 0-.3-.1-.4l-.4-.4c-.1-.1-.3-.2-.6-.3-.2-.1-.4-.2-.7-.3l-.1-.6c.1 0 .3.1.5.2s.3.2.5.2c.3 0 .5.1.6.2zm.8 1.8v.5l-1.3-.8c-.1-.1-.2-.1-.3 0-.1 0-.1.1-.1.2v.2c0 .1 0 .3.1.4l.3.3c.1.1.2.1.4.1h.4c.1 0 .2-.1.3-.1v.4s-.1.1-.2.1-.2.1-.3.1h-.4c-.1 0-.3-.1-.5-.2s-.3-.2-.5-.4c-.1-.1-.2-.3-.3-.5s-.1-.4-.1-.6v-.4c0-.3.1-.4.2-.5.2-.1.4 0 .6.1l1.7 1.1zm2.4 0c.1.1.2.1.3.2s.2.2.4.3l.3.3-.1.5c-.1-.1-.3-.2-.4-.3s-.3-.2-.4-.2c-.2-.1-.4-.2-.5-.2s-.2.1-.2.2c-.1.1-.1.3-.1.6s0 .5.1.7.1.3.2.5c.1.1.3.3.5.4.1 0 .1.1.2.1.1.1.2.1.3.2s.2.1.3.2l.1.6c-.2 0-.3-.1-.5-.1l-.6-.3-.8-.6c-.2-.2-.4-.5-.5-.8s-.1-.7-.1-1.1 0-.7.1-.9.2-.3.5-.3c.2-.3.5-.2.9 0zm3 1.7c.2.1.4.3.6.4.2.2.3.3.4.6.1.2.1.5.1.8v2.2l-.6-.3-.1-.8-.1-.1v-1.4c0-.2 0-.3-.1-.4l-.4-.4c-.1-.1-.3-.2-.6-.3-.2-.1-.4-.2-.7-.3l-.1-.6c.1 0 .3.1.5.2s.3.2.5.2c.4.1.5.2.6.2zm.8 1.8v.5l-1.3-.8c-.1-.1-.2-.1-.3 0-.1 0-.1.1-.1.2v.2c0 .1 0 .3.1.4l.3.3c.1.1.2.1.4.1h.4c.1 0 .2-.1.3-.1v.4s-.1.1-.2.1-.2.1-.3.1h-.4c-.1 0-.3-.1-.5-.2s-.3-.2-.5-.4c-.1-.2-.2-.3-.3-.5s-.1-.4-.1-.6v-.4c0-.3.1-.4.2-.5.2-.1.4 0 .6.1l1.7 1.1zm3 .4a1.6 1.6 0 0 1 .8 1.4v2.5l-.7-.4v-2.2c0-.2 0-.3-.1-.4s-.1-.2-.3-.3c-.1-.1-.3-.1-.4-.1h-.6v-.5c.2-.1.4-.1.6-.1.3-.1.5 0 .7.1zm-1.3-.7l.1.7.1.1v2.6l-.7-.4v-3.3l.5.3zm4.1 2.3c.1.1.2.1.3.2s.2.2.4.3l.3.3-.1.5c-.1-.1-.3-.2-.4-.3s-.3-.2-.4-.2c-.2-.1-.4-.2-.5-.2s-.2.1-.2.2c-.1.1-.1.3-.1.6s0 .5.1.7.1.3.2.5c.1.1.3.3.5.4.1 0 .1.1.2.1.1.1.2.1.3.2s.2.1.3.2l.1.6c-.2 0-.3-.1-.5-.1l-.6-.3-.8-.6c-.2-.2-.4-.5-.5-.8s-.1-.7-.1-1.1 0-.7.1-.9.2-.3.5-.3c.3-.3.6-.2.9 0zm4.4 2.6l-1.1 2.8c-.1.1-.1.2-.2.4l-.3.3c-.1.1-.3.1-.4.1-.2 0-.3-.1-.6-.2l-.1-.5c.2.1.4.1.5 0l.3-.3.2-.3c0-.1.1-.2.1-.3s.1-.2.1-.3l.6-1.9.9.2zm-2.3-1.3l.6 2.7c0 .1 0 .2.1.3v.3l.1.1-.2.4-.2-.1c-.1 0-.1-.1-.1-.1 0-.1-.1-.1-.1-.2l-1-3.7.8.3zm5.5 1.8c.3.2.6.4.8.6s.4.4.5.7l.3.9c.1.3.1.7.1 1.2s0 .8-.1 1.1-.2.5-.3.6-.3.1-.5.1-.5-.2-.8-.3c-.3-.2-.6-.3-.8-.5s-.5-.3-.7-.4l.3-.5c.2.1.3.2.5.3s.4.3.7.4c.2.1.4.2.5.2s.2-.1.3-.4c.1-.2.1-.6.1-1s0-.8-.1-1.1-.1-.5-.3-.7c-.1-.2-.3-.3-.5-.5-.2-.1-.5-.3-.7-.4l-.6-.3-.3-.8c.2.1.5.2.7.4.4 0 .6.2.9.4zm-.8-.4v4.7l-.7-.4v-4.7l.7.4zm3.9 3.5v2.2c0 .2 0 .3.1.4l.3.3c.1.1.3.1.4.1h.5l.1.5c-.2.1-.4.1-.6.1s-.4-.1-.6-.2a1.6 1.6 0 0 1-.8-1.4v-2.5l.6.5zm1.9 1.1v3.3l-.6-.3-.1-.7-.1-.1v-2.6l.8.4zm1.4.8l.1.7.1.1v2.6l-.7-.4v-3.3l.5.3zm1.4.7l-.1.7-.2-.1c-.2-.1-.3-.1-.5-.2-.2 0-.4-.1-.6-.1v-.5c.2-.1.4-.1.6-.1s.4.1.6.2l.2.1zm1.9 1.1c.2.1.4.3.6.4.2.2.3.3.4.6.1.2.1.5.1.8v2.2l-.6-.3-.1-.8-.1-.1v-1.4c0-.2 0-.3-.1-.4l-.4-.4c-.1-.1-.3-.2-.6-.3-.2-.1-.4-.2-.7-.3l-.1-.6c.1 0 .3.1.5.2s.3.2.5.2c.3.1.5.2.6.2zm.8 1.8v.5l-1.3-.8c-.1-.1-.2-.1-.3 0-.1 0-.1.1-.1.2v.2c0 .1 0 .3.1.4l.3.3c.1.1.2.1.4.1h.4c.1 0 .2-.1.3-.1v.4s-.1.1-.2.1-.2.1-.3.1h-.4c-.1 0-.3-.1-.5-.2s-.3-.2-.5-.4c-.1-.1-.2-.3-.3-.5s-.1-.4-.1-.6v-.4c0-.3.1-.4.2-.5.2-.1.4 0 .6.1l1.7 1.1zm2-1v3.3c0 .1 0 .2.1.3s.1.2.3.2l.4.2.1.6c-.1 0-.1 0-.2-.1-.1 0-.2-.1-.3-.1s-.2-.1-.2-.1a1.7 1.7 0 0 1-.6-.6c-.1-.2-.2-.5-.2-.8v-3.4l.6.5zm.8 1.4v.6l-2.1-1.2v-.5l.6.3 1.5.8zm1.3.7v3.3l-.7-.4v-3.3l.7.4zm-.2-1.5c.1.1.2.2.2.4v.4c0 .2-.1.2-.2.1l-.3-.2c-.1-.1-.2-.2-.2-.4v-.4c0-.2.1-.2.2-.1l.3.2zm2.3 2.7c.4.2.6.4.8.7.2.2.4.5.5.8s.1.7.1 1.1 0 .7-.1.9-.2.3-.5.3c-.2 0-.5-.1-.8-.3l-.8-.6c-.2-.2-.4-.5-.5-.8s-.1-.7-.1-1.1 0-.7.1-.9.2-.3.5-.3c.2-.1.5 0 .8.2zm0 .6c-.2-.1-.3-.1-.4-.1s-.2.1-.2.2-.1.4-.1.6a1.7 1.7 0 0 0 .1.7c0 .2.1.3.2.5.1.1.2.2.4.3s.3.1.4.1.2-.1.2-.2.1-.4.1-.6c0-.3 0-.5-.1-.7 0-.2-.1-.3-.2-.5-.1-.1-.2-.2-.4-.3zm4 1.7a1.6 1.6 0 0 1 .8 1.4v2.5l-.7-.4v-2.2c0-.2 0-.3-.1-.4s-.1-.2-.3-.3c-.1-.1-.3-.1-.4-.1h-.6v-.5c.2-.1.4-.1.6-.1.3-.1.5-.1.7.1zm-1.3-.7l.1.7.1.1v2.6l-.7-.4v-3.3l.5.3zm3.9 2.2c.1.1.3.2.4.3.2.1.3.2.5.3.1.1.3.2.4.3v.5l-.6-.3c-.2-.1-.4-.2-.5-.3-.2-.1-.3-.2-.4-.2s-.2-.1-.2 0c0 0-.1.1-.1.2s0 .2.1.3l.3.3.8.7c.2.2.4.4.5.6s.2.4.2.7 0 .5-.1.6-.2.1-.4.1c-.2-.1-.4-.2-.7-.3-.1-.1-.3-.2-.5-.3s-.5-.3-.7-.5v-.5c.1 0 .2.1.3.2s.2.1.3.2.3.1.4.2c.2.1.4.2.5.3.1 0 .2.1.2 0 0 0 .1-.1.1-.2s0-.2-.1-.3l-.3-.3-.8-.7-.4-.4c-.1-.1-.2-.3-.2-.4 0-.2-.1-.3-.1-.5s0-.4.1-.5.2-.1.4-.1c.1-.3.3-.2.6 0zm5 2.8c.4.2.6.5.8.9s.3.9.3 1.5c0 .3 0 .5-.1.7 0 .2-.1.3-.2.4s-.2.1-.4.1-.4-.1-.7-.3c-.1-.1-.2-.1-.3-.2s-.3-.2-.4-.3-.3-.2-.4-.3l-.3-.3.6-.2c.1.1.2.2.3.2.1.1.2.1.3.2s.2.1.3.2c.2.1.3.1.4.1s.2-.1.2-.2.1-.4.1-.6c0-.3 0-.5-.1-.7 0-.2-.1-.3-.2-.4s-.2-.2-.4-.3c-.1-.1-.3-.1-.4-.1s-.3 0-.4.1v-.5c.1-.1.2-.1.3-.2h.4c0 .1.2.1.3.2zm-1-1.9v1.2.4c0 .1 0 .2-.1.4l.1.1v2.6l-.7-.4v-4.6l.7.3zm5.5 4.6l-1.1 2.8c-.1.1-.1.2-.2.4l-.3.3c-.1.1-.3.1-.4.1-.2 0-.3-.1-.6-.2l-.1-.5c.2.1.4.1.5 0l.3-.3.2-.3c0-.1.1-.2.1-.3s.1-.2.1-.3l.6-1.9.9.2zm-2.4-1.4l.6 2.6c0 .1 0 .2.1.3v.3l.1.1-.2.4-.2-.1c-.1 0-.1-.1-.1-.1s-.1-.1-.1-.2l-1-3.7.8.4zm5.5 1.8c.4.2.6.4.8.6s.3.4.4.7.1.6.1 1 0 .7-.1.8c-.1.2-.2.2-.4.2s-.4-.1-.8-.3c-.2-.1-.3-.2-.5-.3s-.3-.2-.5-.3c-.1-.1-.3-.2-.4-.3s-.2-.1-.2-.2v-.4c.2.1.5.3.7.4s.5.3.7.4.3.1.4.2c.1 0 .2 0 .2-.1s.1-.3.1-.5 0-.4-.1-.5c0-.1-.1-.3-.2-.4s-.2-.2-.4-.3c-.3-.2-.6-.4-.9-.5-.2-.1-.4-.2-.5-.3l-.1-.7c.2.1.3.1.4.2s.3.2.5.2c.4.1.6.2.8.4zm-.7-.4v4.7l-.7-.4v-4.7l.7.4zm3.3 3.2l.1.7.1.1v2.6l-.7-.4v-3.3l.5.3zm1.4.8l-.1.7-.2-.1c-.2-.1-.3-.1-.5-.2-.2 0-.4-.1-.6-.1v-.5c.2-.1.4-.1.6-.1s.4.1.6.2l.2.1zm1.2.7v3.3l-.7-.4v-3.3l.7.4zm-.2-1.5c.1.1.2.2.2.4v.4c0 .2-.1.2-.2.1l-.3-.2c-.1-.1-.2-.2-.2-.4v-.4c0-.2.1-.2.2-.1l.3.2zm4.6 4c.3.1.4.3.6.6.1.2.2.5.2.8v2.5l-.7-.4v-2.2c0-.2 0-.3-.1-.4l-.3-.3c-.1 0-.2-.1-.2-.1h-.3c-.1 0-.2 0-.3.1v-.5c.2-.1.4-.1.6-.1.1-.2.3-.1.5 0zm-3-1.7l.1.7.1.1v2.6l-.7-.4v-3.3l.5.3zm1.2.6a1.7 1.7 0 0 1 .6.6c.1.2.2.5.2.8v2.5l-.7-.4v-2.2c0-.2 0-.3-.1-.4l-.3-.3c-.1 0-.2-.1-.2-.1h-.3c-.1 0-.2 0-.4.1v-.5c.2-.1.4-.1.6-.1.2-.1.4-.1.6 0zm4.8 2.8c.2.1.4.3.6.4.2.2.3.3.4.6.1.2.1.5.1.8v2.2l-.6-.3-.1-.8-.1-.1v-1.4c0-.2 0-.3-.1-.4l-.4-.4c-.1-.1-.3-.2-.6-.3-.2-.1-.4-.2-.7-.3l-.1-.6c.1 0 .3.1.5.2s.3.2.5.2c.3.1.5.1.6.2zm.8 1.8v.5l-1.3-.8c-.1-.1-.2-.1-.3 0-.1 0-.1.1-.1.2v.2c0 .1 0 .3.1.4l.3.3c.1.1.2.1.4.1h.4c.1 0 .2-.1.3-.1v.4s-.1.1-.2.1-.2.1-.3.1h-.4c-.1 0-.3-.1-.5-.2s-.3-.2-.5-.4c-.1-.2-.2-.3-.3-.5s-.1-.4-.1-.6v-.4c0-.3.1-.4.2-.5.2-.1.4 0 .6.1l1.7 1.1zm1.6-.3l.1.7.1.1v2.6l-.7-.4v-3.3l.5.3zm1.4.7l-.1.7-.2-.1c-.2-.1-.3-.1-.5-.2-.2 0-.4-.1-.6-.1v-.5c.2-.1.4-.1.6-.1s.4.1.6.2l.2.1zm3.2 1.9l-1.1 2.8c-.1.1-.1.2-.2.4l-.3.3c-.1.1-.3.1-.4.1-.2 0-.3-.1-.6-.2l-.1-.5c.2.1.4.1.5 0l.3-.3.2-.3c0-.1.1-.2.1-.3s.1-.2.1-.3l.6-1.9.9.2zm-2.3-1.3l.6 2.7c0 .1 0 .2.1.3v.3l.1.1-.2.4-.2-.1c-.1 0-.1-.1-.1-.1 0-.1-.1-.1-.1-.2l-1-3.7.8.3zm5.2 1.6c.2.1.4.3.6.4s.4.3.6.5v.5c-.2-.1-.4-.2-.6-.4-.2-.1-.4-.3-.6-.4-.1-.1-.2-.1-.3-.2-.1 0-.2-.1-.2-.1-.1 0-.1 0-.1.1v.3c0 .2 0 .4.1.5s.2.3.4.4l.8.7a5.5 5.5 0 0 1 .7.9c.1.3.2.6.2 1 0 .3 0 .5-.1.6s-.1.2-.3.3c-.1 0-.3 0-.4-.1-.2-.1-.4-.2-.7-.3-.1-.1-.3-.2-.6-.3-.2-.2-.5-.3-.8-.6v-.6c.2.1.4.3.6.4s.3.2.4.2c.1.1.2.1.3.2.2.1.3.2.4.2h.2c0-.1.1-.2.1-.3v-.4c0-.1-.1-.2-.1-.3l-.3-.3-.8-.8c-.3-.3-.5-.6-.6-.9s-.2-.6-.2-1c0-.3 0-.5.1-.6s.1-.2.3-.2c.1 0 .3 0 .4.1.1.2.3.3.5.5zm4.7 4.1l-.8.7-.1.1h-.1 0s.1.1.1.2.1.2.1.2l.9 2.1-.8-.5-1-2.5 1-.9.7.6zm-1.9-2.5v2 .4c0 .1 0 .3-.1.4v.4.4 1.1l-.7-.4v-4.7l.8.4zm.5 2.9v.5l-.7-.4v-.5l.7.4zm2.7.3v3.3l-.7-.4v-3.3l.7.4zm-.2-1.5c.1.1.2.2.2.4v.4c0 .2-.1.2-.2.1l-.3-.2c-.1-.1-.2-.2-.2-.4v-.4c0-.2.1-.2.2-.1l.3.2zm1.7 1v3.7c0 .1 0 .2.1.3s.2.2.3.2l.3.1.1.6h-.2c-.1 0-.2-.1-.2-.1-.1 0-.1-.1-.2-.1-.2-.1-.4-.3-.6-.5-.1-.2-.2-.5-.2-.8v-3.9l.6.5zm1.9 1.1v3.7c0 .1 0 .2.1.3s.2.2.3.2l.3.1.1.6h-.2c-.1 0-.2-.1-.2-.1-.1 0-.1-.1-.2-.1-.2-.1-.4-.3-.6-.5-.1-.2-.2-.5-.2-.8v-3.9l.6.5zm169.1 66v12.3L166.4 56V43.7c0-7.9 5.6-11.2 12.6-7.2l276.3 158.6c7 4.1 12.6 13.8 12.6 21.8h0z"/></g><path d="M440.7 201.3c0 2.2-1.6 3.1-3.6 2a7.8 7.8 0 0 1-3.6-6.1c0-2.2 1.6-3.1 3.6-2a7.8 7.8 0 0 1 3.6 6.1z" fill="#4bbc79"/><path d="M455.1 209.6c0 2.2-1.6 3.1-3.6 2a7.8 7.8 0 0 1-3.6-6.1c0-2.2 1.6-3.1 3.6-2 2.1 1.1 3.6 3.8 3.6 6.1z" fill="#f22071"/><path d="M422.7 195.5l-96.5-56.1c-1.4-.8-2.6-3.1-2.6-5s1.2-2.8 2.6-2l96.5 56.1c1.4.8 2.6 3.1 2.6 5 0 2-1.2 2.8-2.6 2z" fill="#dcdcdc"/><path d="M179.8 46.4a3.5 3.5 0 0 1 .9.6c.3.2.5.3.7.5s.4.4.7.6l-.1 1.4c-.3-.2-.5-.3-.7-.4s-.4-.3-.7-.4c-.2-.1-.5-.3-.9-.5s-.7-.3-.9-.2-.4.3-.5.6c-.1.4-.1 1-.1 1.7 0 .8 0 1.4.1 1.9s.2.9.5 1.2c.2.3.5.6.9.8.5.3 1 .5 1.3.7a3.7 3.7 0 0 0 1.1.5l.1 1.6c-.4-.1-.7-.2-1.1-.4l-1.4-.7c-.8-.5-1.5-1-2-1.6s-.8-1.3-1.1-2.1c-.2-.8-.3-1.8-.3-3s.1-2 .3-2.6.6-.8 1.1-.9c.6 0 1.2.2 2.1.7zm8.7 5c.4.2.8.5 1.3.8s.9.7 1.3 1l-.1 1.3c-.3-.2-.7-.4-1.2-.7-.4-.3-.9-.5-1.3-.8-.2-.1-.4-.2-.5-.3s-.3-.1-.4-.1-.2.1-.2.2-.1.2-.1.4c0 .3.1.6.2.8a2.3 2.3 0 0 0 .7.8l1.5 1.4A5.1 5.1 0 0 1 191 58c.2.6.4 1.2.4 1.9 0 .5-.1.9-.2 1.2s-.3.5-.5.5c-.2.1-.5 0-.9-.1a4.5 4.5 0 0 1-1.4-.7c-.3-.1-.6-.4-1.1-.7s-1-.7-1.6-1.2l.1-1.4 1.2.7.8.5c.2.1.4.3.6.4.3.2.6.3.7.3.2.1.3 0 .4-.1s.1-.3.1-.5 0-.4-.1-.6c0-.1-.1-.3-.2-.4s-.3-.3-.4-.5l-1.6-1.6c-.6-.6-1-1.2-1.3-1.7-.2-.6-.4-1.2-.4-1.9 0-.5.1-.9.2-1.2s.3-.4.5-.5.5 0 .9.1c.3.4.8.6 1.3.9zm5.6 6v4.3c0 .3 0 .5.1.7s.3.3.5.5c.2.1.5.2.7.3h.9l.1 1.1c-.4.2-.8.2-1.2.2s-.8-.2-1.2-.4c-1.1-.6-1.6-1.5-1.6-2.7v-4.9l1.7.9zm3.8 2.1V66l-1.3-.8-.2-1.4-.2-.3v-5l1.7 1zm3.1 1.8v6.5l-1.7-1v-6.5l1.7 1zm-.5-3.1c.3.2.5.5.5.9v.7c0 .4-.2.5-.5.3l-.7-.4c-.3-.2-.5-.5-.5-.9V58c0-.4.2-.5.5-.3l.7.5zm4.1 3.4v6.2c0 .2 0 .4.1.6s.3.3.5.4l.7.4.2 1.4c-.1 0-.3-.1-.5-.2s-.4-.2-.6-.2c-.2-.1-.4-.2-.5-.3-.5-.3-.9-.7-1.2-1.2s-.4-1-.4-1.6v-6.7l1.7 1.2zm1.6 2.7v1.3l-4.3-2.4V62l1.1.6 3.2 1.7zm3.6 1.9c1 .5 1.6 1.1 2 1.7a3.6 3.6 0 0 1 .6 2c0 .6-.1 1-.4 1.1s-.7 0-1.4-.3l-3.2-1.8v-1.1l2.7 1.5c.3.1.4.2.5.1s.1-.2.1-.5-.1-.6-.2-.8-.4-.4-.8-.6c-.3-.2-.6-.3-.7-.3-.2 0-.3.1-.4.3s-.1.6-.1 1.1a4.9 4.9 0 0 0 .1 1.3c.1.3.2.6.4.8a5.7 5.7 0 0 0 .8.7c.3.1.6.3 1 .5l1.2.6.2 1.3c-.2 0-.5-.1-.8-.1-.3-.1-.6-.2-.9-.4-.3-.1-.6-.3-.9-.4-.7-.4-1.3-.9-1.7-1.3-.4-.5-.8-1.1-.9-1.7-.2-.6-.3-1.3-.3-2.1 0-.9.1-1.5.3-1.9s.5-.6.9-.5c.6.2 1.2.4 1.9.8z" class="d"/><g class="n"><path d="M182.7 159.1v3.9l-.5-.3v-3.9l.5.3zm1 .6v.5l-2.6-1.5v-.5l2.6 1.5zm1.2 1.7c.2.1.3.2.5.3.1.1.2.3.3.4.1.2.1.4.1.6v1.9l-.4-.2-.1-.6v-.1-1.2c0-.2 0-.3-.1-.4s-.2-.2-.4-.3c-.1-.1-.3-.2-.5-.2-.2-.1-.4-.2-.5-.3v-.4c.1 0 .2.1.4.1.1.1.3.1.4.2 0 .1.2.2.3.2zm.6 1.5v.4l-1.1-.6c-.1-.1-.2-.1-.2 0 0 0-.1.1-.1.2v.2c0 .1 0 .2.1.3s.1.2.3.2c.1.1.2.1.3.1h.3c.1 0 .2-.1.3-.1v.4l-.1.1c-.1 0-.1.1-.2.1h-.3c-.1 0-.2-.1-.4-.1-.1-.1-.3-.2-.4-.3s-.2-.3-.3-.4c-.1-.2-.1-.3-.1-.5v-.3c0-.2.1-.3.2-.4s.3 0 .5.1l1.2.6zm1.3-.3l.1.6v.1 2.1l-.5-.3v-2.7l.4.2zm1.1.6v.5l-.2-.1c-.1-.1-.3-.1-.4-.1h-.5v-.4c.2-.1.3-.1.5-.1s.3.1.5.2h.1zm1.4.8c.3.1.5.3.6.4.2.1.3.3.3.5.1.2.1.3.1.6 0 .2 0 .3-.1.4s-.2.1-.3.1c-.2 0-.4-.1-.6-.3-.3-.1-.5-.3-.6-.4s-.3-.3-.3-.5c-.1-.2-.1-.3-.1-.5s0-.4.1-.4c.1-.1.2-.1.3-.1.2 0 .4.1.6.2zm0 .4c-.2-.1-.4-.2-.5-.2s-.1.1-.1.3 0 .3.1.4.2.3.5.4c.2.1.4.2.5.2s.1-.1.1-.3 0-.3-.1-.4-.2-.3-.5-.4zm1.3.4v.3l-.6-.3-.2-.4.8.4zm-1.9.4l.3.2c-.1 0-.1.1-.1.1v.2c0 .1.1.2.2.2l.9.7c.2.2.4.3.5.5s.1.4.1.6 0 .4-.1.5-.2.1-.4.1-.4-.1-.7-.3c-.2-.1-.4-.3-.6-.4-.1-.1-.3-.2-.4-.3s-.2-.2-.2-.4-.1-.3-.1-.4v-.3c0-.1.1-.1.2-.1h.3.3l.2.2-.2.1c-.1 0-.1 0-.2.1l-.1.1v.2c0 .1 0 .2.1.3 0 .1.1.2.2.3s.2.2.4.3.3.2.4.2h.2s.1-.1.1-.2v-.2c0-.1-.1-.1-.1-.2-.1-.1-.1-.1-.3-.2l-.8-.6-.3-.3c-.1-.1-.1-.2-.1-.3v-.3c0-.1 0-.1.1-.2 0-.2.1-.2.2-.2zm3.4.4c.4.2.6.4.8.7.2.2.2.5.2.8 0 .2 0 .4-.1.5s-.2.1-.5-.1l-1.4-.8v-.4l1.2.7c.1.1.2.1.2 0v-.2c0-.2 0-.3-.1-.4l-.4-.4c-.2-.1-.3-.1-.4-.1s-.2.1-.2.2-.1.3-.1.6 0 .5.1.7c0 .2.1.3.2.4s.2.2.4.3c.1.1.3.1.4.2.2.1.3.1.4.2v.4c-.1 0-.2 0-.3-.1-.1 0-.2-.1-.3-.1-.1-.1-.2-.1-.3-.2-.3-.2-.5-.3-.7-.5s-.3-.4-.4-.7-.1-.6-.1-.9c0-.4 0-.6.1-.8s.2-.2.4-.2c.4 0 .6 0 .9.2zm2.3.6v2.8c0 .1 0 .2.1.3 0 .1.1.2.2.2l.3.2.1.4c-.1 0-.1 0-.2-.1-.1 0-.1-.1-.2-.1s-.1-.1-.2-.1a1.2 1.2 0 0 1-.5-.5c-.1-.2-.2-.4-.2-.6v-2.8l.6.3zm.7 1.2v.4l-1.6-.9v-.4l.5.2 1.1.7zm2.8.4c.1.1.3.2.4.2.1.1.2.1.3.2s.2.1.3.2v.4c-.1-.1-.2-.1-.3-.2s-.2-.1-.3-.2-.2-.1-.3-.2c-.2-.1-.4-.2-.5-.1-.1 0-.2.1-.3.3 0 .2-.1.5-.1.9s0 .7.1.9.1.4.3.6c.1.2.3.3.5.4s.4.2.5.3.3.1.4.2v.4c-.1 0-.3-.1-.4-.2s-.3-.2-.6-.3l-.8-.6c-.2-.2-.3-.5-.4-.9s-.1-.8-.1-1.3 0-.9.1-1.1.2-.4.4-.4c.2.3.5.3.8.5zm2.5 2.6c.3.2.5.3.7.5s.3.4.4.7.1.6.1.9c0 .4 0 .6-.1.8s-.2.2-.4.2-.4-.1-.7-.2c-.3-.2-.5-.3-.7-.5s-.3-.4-.4-.7-.1-.6-.1-.9 0-.6.1-.8.2-.3.4-.3c.3.1.5.2.7.3zm0 .5c-.2-.1-.3-.1-.4-.1s-.2.1-.2.2-.1.3-.1.6 0 .5.1.6c0 .2.1.3.2.4s.2.2.4.3.3.1.4.1.2-.1.2-.2.1-.3.1-.6 0-.5-.1-.6c0-.2-.1-.3-.2-.4s-.2-.2-.4-.3zm3.3 1.4c.4.2.6.6.6 1.1v2l-.5-.3v-1.9c0-.2 0-.3-.1-.4 0-.1-.1-.2-.2-.2-.1-.1-.3-.1-.4-.1h-.5v-.4c.2-.1.4-.1.5-.1l.6.3zm-1.1-.6v.6.1 2.1l-.5-.3v-2.7l.5.2zm3.1 1v2.8c0 .1 0 .2.1.3 0 .1.1.2.2.2l.3.2.1.4c-.1 0-.1 0-.2-.1-.1 0-.1-.1-.2-.1s-.1-.1-.2-.1a1.2 1.2 0 0 1-.5-.5c-.1-.2-.2-.4-.2-.6v-2.8l.6.3zm.7 1.2v.4l-1.6-.9v-.4l.5.2 1.1.7zm.9.5l.1.6v.1 2.1l-.5-.3v-2.7l.4.2zm1.1.6v.5l-.2-.1c-.1-.1-.3-.1-.4-.1h-.5v-.4c.2-.1.3-.1.5-.1s.3.1.5.2h.1zm1 .6v2.7l-.5-.3v-2.7l.5.3zm-.2-1.2c.1.1.1.1.1.2v.3c0 .1 0 .1-.1.1l-.2-.1c-.1-.1-.1-.1-.1-.2v-.3c0-.1 0-.1.1-.1l.2.1zm2.2 2.4c.3.2.5.4.6.7s.2.7.2 1.2c0 .2 0 .4-.1.6 0 .2-.1.3-.2.4s-.2.1-.3.1-.3-.1-.5-.2c-.1 0-.2-.1-.3-.2s-.2-.1-.3-.2-.2-.1-.3-.2-.2-.2-.3-.2l.4-.1c.1.1.2.1.2.2.1.1.2.1.2.2.1.1.2.1.2.1.1.1.3.1.3.1.1 0 .2-.1.2-.2s.1-.3.1-.6v-.6c0-.2-.1-.3-.2-.4l-.3-.3c-.1-.1-.2-.1-.4-.1-.1 0-.2 0-.4.1v-.4c.1-.1.2-.1.3-.1h.3c.4 0 .5 0 .6.1zm-.8-1.7v1 .3.3.1 2.1l-.5-.3v-3.8l.5.3zm2.7 2.8v1.9c0 .2 0 .3.1.4s.1.2.3.3c.1.1.3.1.4.1h.5l.1.4c-.2.1-.4.1-.5.1-.2 0-.3-.1-.5-.2-.4-.2-.6-.6-.6-1.1v-2.1l.2.2zm1.6 1v2.7l-.4-.2v-.5-.1-2.1l.4.2zm1.4 0v2.8c0 .1 0 .2.1.3 0 .1.1.2.2.2l.3.2.1.4c-.1 0-.1 0-.2-.1-.1 0-.1-.1-.2-.1s-.1-.1-.2-.1a1.2 1.2 0 0 1-.5-.5c-.1-.2-.2-.4-.2-.6v-2.8l.6.3zm.8 1.2v.4l-1.6-.9v-.4l.5.2 1.1.7zm.9.5v2.7l-.5-.3v-2.7l.5.3zm-.1-1.2c.1.1.1.1.1.2v.3c0 .1 0 .1-.1.1l-.2-.1c-.1-.1-.1-.1-.1-.2v-.3c0-.1 0-.1.1-.1l.2.1zm2.3 2.5c.4.2.6.6.6 1.1v2l-.5-.3v-1.9c0-.2 0-.3-.1-.4 0-.1-.1-.2-.2-.2-.1-.1-.3-.1-.4-.1h-.5v-.4c.2-.1.4-.1.5-.1a1.7 1.7 0 0 1 .6.3zm-1-.6v.6.1 2.1l-.5-.3v-2.7l.5.2zm3.4 1.9c.3.1.5.3.6.4.2.1.3.3.3.5.1.2.1.3.1.6 0 .2 0 .3-.1.4s-.2.1-.3.1c-.2 0-.4-.1-.6-.3-.3-.1-.5-.3-.6-.4s-.3-.3-.3-.5c-.1-.2-.1-.3-.1-.5s0-.4.1-.4c.1-.1.2-.1.3-.1s.3 0 .6.2zm0 .4c-.2-.1-.4-.2-.5-.2s-.1.1-.1.3 0 .3.1.4.2.3.5.4c.2.1.4.2.5.2s.1-.1.1-.3 0-.3-.1-.4c-.2-.2-.3-.3-.5-.4zm1.3.4v.3l-.6-.3-.2-.4.8.4zm-2 .4l.3.2c-.1 0-.1.1-.1.1v.2c0 .1.1.2.2.2l.9.7c.2.2.4.3.5.5s.1.4.1.6 0 .4-.1.5-.2.1-.4.1-.4-.1-.7-.3c-.2-.1-.4-.2-.6-.4-.1-.1-.3-.2-.4-.3s-.2-.2-.2-.4c0-.1-.1-.3-.1-.4v-.3c0-.1.1-.1.2-.1h.3.3l.2.2-.2.1c-.1 0-.1 0-.2.1l-.1.1v.2c0 .1 0 .2.1.3 0 .1.1.2.2.3s.2.2.4.3.3.2.4.2h.2s.1-.1.1-.2v-.2c0-.1-.1-.1-.1-.2-.1-.1-.1-.1-.3-.2l-.8-.6-.3-.3c-.1-.1-.1-.2-.1-.3v-.3c0-.1 0-.1.1-.2.1-.2.1-.2.2-.2zm4.7 0c.3.2.5.3.6.5.2.2.3.3.4.5s.1.4.1.7c0 .2 0 .4-.1.5 0 .1-.1.2-.2.2s-.2 0-.4-.1h0c.1 0 .1.1.2.2s.1.2.2.3c0 .1.1.2.1.3l.3 1.4-.5-.3-.3-1.4c0-.2-.1-.3-.2-.4s-.2-.2-.3-.2c-.2-.1-.4-.2-.5-.3s-.3-.2-.4-.2c-.1-.1-.2-.1-.2-.1v-.4l1.1.6c.2.1.3.1.4.2.1 0 .2 0 .2-.1s.1-.2.1-.4 0-.3-.1-.5c0-.1-.1-.2-.2-.3s-.2-.2-.4-.3c-.3-.2-.5-.3-.7-.4s-.3-.2-.4-.2l-.1-.5c.1.1.2.1.3.2s.2.1.4.2c.3.1.4.2.6.3zm-.7-.3v3.9l-.5-.3v-3.9l.5.3zm3.5 3c.4.2.6.4.8.7.2.2.2.5.2.8 0 .2 0 .4-.1.5s-.2.1-.5-.1l-1.4-.8v-.4l1.2.7c.1.1.2.1.2 0v-.2c0-.2 0-.3-.1-.4s-.2-.2-.4-.3-.3-.1-.4-.1-.2.1-.2.2-.1.3-.1.6 0 .5.1.7c0 .2.1.3.2.4s.2.2.4.3c.1.1.3.1.4.2.2.1.3.1.4.2v.4c-.1 0-.2 0-.3-.1-.1 0-.2-.1-.3-.1s-.2-.1-.3-.2c-.3-.2-.5-.3-.7-.5s-.3-.4-.4-.7-.1-.6-.1-.9c0-.4 0-.6.1-.8s.2-.2.4-.2c.4-.1.6 0 .9.1zm2.6 1.6c.1 0 .2.1.2.2.1.1.2.1.3.2s.2.2.3.2l-.1.3c-.1-.1-.2-.2-.3-.2-.1-.1-.2-.1-.3-.2-.2-.1-.3-.2-.4-.2s-.2.1-.2.2-.1.3-.1.6 0 .5.1.6c0 .2.1.3.2.4s.3.2.4.3c0 0 .1.1.2.1s.2.1.3.1.2.1.3.1v.4c-.1 0-.3-.1-.4-.1-.1-.1-.3-.1-.4-.2-.3-.2-.5-.3-.7-.5s-.3-.4-.4-.7-.1-.6-.1-.9c0-.4 0-.6.1-.8s.2-.2.4-.2a1.1 1.1 0 0 1 .6.3zm1.8 1l.1.6v.1 2.1l-.5-.3v-2.7l.4.2zm1.1.6v.5l-.1-.1c-.1-.1-.3-.1-.4-.1h-.5v-.3c.2-.1.3-.1.5-.1s.3.1.5.2v-.1zm.9.6v1.9c0 .2 0 .3.1.4s.1.2.3.3c.1.1.2.1.4.1h.5l.1.4c-.2.1-.4.1-.5.1-.2 0-.3-.1-.5-.2-.4-.2-.6-.6-.6-1.1v-2.1l.2.2zm1.6 1v2.7l-.4-.2v-.5-.1-2.1l.4.2zm1.2.6v2.7l-.5-.3v-2.7l.5.3zm-.1-1.2c.1.1.1.1.1.2v.3c0 .1 0 .1-.1.1l-.2-.1c-.1-.1-.1-.1-.1-.2v-.3c0-.1 0-.1.1-.1l.2.1zm1.5 1.3v2.8c0 .1 0 .2.1.3 0 .1.1.2.2.2l.3.2.1.4c-.1 0-.1 0-.2-.1-.1 0-.1-.1-.2-.1s-.1-.1-.2-.1a1.2 1.2 0 0 1-.5-.5c-.1-.2-.2-.4-.2-.6v-2.8l.6.3zm.8 1.2v.4l-1.6-.9v-.4l.5.2 1.1.7zm1.5.8c.4.2.6.4.8.7.2.2.2.5.2.8 0 .2 0 .4-.1.5s-.2.1-.5-.1l-1.4-.8v-.4l1.2.7c.1.1.2.1.2 0v-.2c0-.2 0-.3-.1-.4l-.4-.4c-.2-.1-.3-.1-.4-.1s-.2.1-.2.2-.1.3-.1.6 0 .5.1.7c0 .2.1.3.2.4s.2.2.4.3c.1.1.3.1.4.2.2.1.3.1.4.2v.4c-.1 0-.2 0-.3-.1-.1 0-.2-.1-.3-.1-.1-.1-.2-.1-.3-.2-.3-.2-.5-.3-.7-.5s-.3-.4-.4-.7-.1-.6-.1-.9c0-.4 0-.6.1-.8s.2-.2.4-.2c.4-.1.6 0 .9.2zm1.9 1.2l.1.6v.1 2.1l-.5-.3v-2.7l.4.2zm1.2.6v.5l-.2-.1c-.1-.1-.3-.1-.4-.1h-.5v-.3c.2-.1.3-.1.5-.1s.3.1.5.2l.1-.1z"/><path d="M332.7 243.1v3.9l-.5-.3v-3.9l.5.3zm1 .6v.5l-2.6-1.5v-.5l2.6 1.5zm1.2 1.7c.2.1.3.2.5.3.1.1.2.3.3.4.1.2.1.4.1.6v1.9l-.4-.2-.1-.6v-.1-1.2c0-.2 0-.3-.1-.4s-.2-.2-.4-.3c-.1-.1-.3-.2-.5-.2-.2-.1-.4-.2-.5-.3v-.4c.1 0 .2.1.4.1.1.1.3.1.4.2s.2.2.3.2zm.6 1.5v.4l-1.1-.6c-.1-.1-.2-.1-.2 0 0 0-.1.1-.1.2v.2c0 .1 0 .2.1.3s.1.2.3.2c.1.1.2.1.3.1h.3c.1 0 .2-.1.3-.1v.4l-.1.1c-.1 0-.1.1-.2.1h-.3c-.1 0-.2-.1-.4-.1-.1-.1-.3-.2-.4-.3s-.2-.3-.3-.4c-.1-.2-.1-.3-.1-.5v-.3c0-.2.1-.3.2-.4s.3 0 .5.1l1.2.6zm1.3-.3l.1.6v.1 2.1l-.5-.3v-2.7l.4.2zm1.1.6v.5l-.2-.1c-.1-.1-.3-.1-.4-.1h-.5v-.4c.2-.1.3-.1.5-.1s.3.1.5.2h.1zm1.4.8c.3.1.5.3.6.4.2.1.3.3.3.5.1.2.1.3.1.6 0 .2 0 .3-.1.4s-.2.1-.3.1c-.2 0-.4-.1-.6-.3-.3-.1-.5-.3-.6-.4s-.3-.3-.3-.5c-.1-.2-.1-.3-.1-.5s0-.4.1-.4c.1-.1.2-.1.3-.1.2 0 .4.1.6.2zm0 .4c-.2-.1-.4-.2-.5-.2s-.1.1-.1.3 0 .3.1.4.2.3.5.4c.2.1.4.2.5.2s.1-.1.1-.3 0-.3-.1-.4-.2-.3-.5-.4zm1.3.4v.3l-.6-.3-.2-.4.8.4zm-1.9.4l.3.2c-.1 0-.1.1-.1.1v.2c0 .1.1.2.2.2l.9.7c.2.2.4.3.5.5s.1.4.1.6 0 .4-.1.5-.2.1-.4.1-.4-.1-.7-.3c-.2-.1-.4-.3-.6-.4-.1-.1-.3-.2-.4-.3s-.1-.2-.2-.4-.1-.3-.1-.4v-.3c0-.1.1-.1.2-.1h.3.3l.2.2-.2.1c-.1 0-.1 0-.2.1l-.1.1v.2c0 .1 0 .2.1.3 0 .1.1.2.2.3s.2.2.4.3.3.2.4.2h.2s.1-.1.1-.2v-.2c0-.1-.1-.1-.1-.2-.1-.1-.1-.1-.3-.2l-.8-.6-.3-.3c-.1-.1-.1-.2-.1-.3v-.3c0-.1 0-.1.1-.2 0-.2.1-.2.2-.2zm3.4.4c.4.2.6.4.8.7.2.2.2.5.2.8 0 .2 0 .4-.1.5s-.2.1-.5-.1l-1.4-.8v-.4l1.2.7c.1.1.2.1.2 0v-.2c0-.2 0-.3-.1-.4l-.4-.4c-.2-.1-.3-.1-.4-.1s-.2.1-.2.2-.1.3-.1.6 0 .5.1.7c0 .2.1.3.2.4s.2.2.4.3c.1.1.3.1.4.2.2.1.3.1.4.2v.4c-.1 0-.2 0-.3-.1-.1 0-.2-.1-.3-.1-.1-.1-.2-.1-.3-.2-.3-.2-.5-.3-.7-.5s-.3-.4-.4-.7-.1-.6-.1-.9c0-.4 0-.6.1-.8s.2-.2.4-.2c.4 0 .6 0 .9.2zm2.3.6v2.8c0 .1 0 .2.1.3 0 .1.1.2.2.2l.3.2.1.4c-.1 0-.1 0-.2-.1-.1 0-.1-.1-.2-.1s-.1-.1-.2-.1a1.2 1.2 0 0 1-.5-.5c-.1-.2-.2-.4-.2-.6v-2.8l.6.3zm.7 1.2v.4l-1.6-.9v-.4l.5.2 1.1.7zm2.8.5l.1.1.1.1 1.1 4.3-.5-.3-.8-3.6v-.2-.2l-.1-.1v.1.1l-.8 2.6-.5-.3 1.1-3.1s0-.1.1-.1h.1l.1.6zm.6 2.6v.5l-1.7-1v-.5l1.7 1zm1.9-1.2c.1 0 .1.1.2.1s.1.1.2.1c.1.1.1.1.2.1v.4l-.4-.2c-.1-.1-.3-.1-.3-.1-.1 0-.1.1-.1.3v3.1l-.5-.3v-3.1c0-.2 0-.3.1-.4s.1-.1.2-.1c.1-.1.3 0 .4.1zm1.7.8c.1 0 .1.1.2.1.1.1.2.1.3.2s.2.1.2.2v.4l-.5-.3c-.1-.1-.3-.1-.3-.1-.1 0-.1.1-.1.3v3.1l-.5-.3v-3.2c0-.2 0-.3.1-.4 0-.1.1-.1.2-.1a1 1 0 0 0 .4.1zm.5 1.6v.4l-3.3-1.9v-.4l.4.2 2.9 1.7zm1.4.8c.4.2.6.4.8.7.2.2.2.5.2.8 0 .2 0 .4-.1.5s-.2.1-.5-.1l-1.4-.8v-.4l1.2.7c.1.1.2.1.2 0v-.2c0-.2 0-.3-.1-.4l-.4-.4c-.2-.1-.3-.1-.4-.1s-.2.1-.2.2-.1.3-.1.6 0 .5.1.7c0 .2.1.3.2.4s.2.2.4.3c.1.1.3.1.4.2.2.1.3.1.4.2v.4c-.1 0-.2 0-.3-.1-.1 0-.2-.1-.3-.1-.1-.1-.2-.1-.3-.2-.3-.2-.5-.3-.7-.5s-.3-.4-.4-.7-.1-.6-.1-.9c0-.4 0-.6.1-.8s.2-.2.4-.2c.4-.1.6 0 .9.2zm2.6 1.5c.1 0 .2.1.2.2.1.1.2.1.3.2s.2.2.3.2l-.1.3c-.1-.1-.2-.2-.3-.2-.1-.1-.2-.1-.3-.2-.2-.1-.3-.2-.4-.2s-.2.1-.2.2-.1.3-.1.6 0 .5.1.6c0 .2.1.3.2.4s.2.2.4.3c0 0 .1.1.2.1s.2.1.3.1.2.1.3.1v.4c-.1 0-.3-.1-.4-.1-.1-.1-.3-.1-.4-.2-.3-.2-.5-.3-.7-.5s-.3-.4-.4-.7-.1-.6-.1-.9c0-.4 0-.6.1-.8s.2-.2.4-.2c.1.1.4.1.6.3zm2.1.4v2.8c0 .1 0 .2.1.3 0 .1.1.2.2.2l.3.2.1.4c-.1 0-.1 0-.2-.1-.1 0-.1-.1-.2-.1s-.1-.1-.2-.1a1.2 1.2 0 0 1-.5-.5c-.1-.2-.2-.4-.2-.6v-2.8l.6.3zm.7 1.3v.4l-1.6-.9v-.4l.5.2 1.1.7zm1 .5v2.7l-.5-.3V260l.5.2zm-.2-1.2c.1.1.1.1.1.2v.3c0 .1 0 .1-.1.1l-.2-.1c-.1-.1-.1-.1-.1-.2v-.3c0-.1 0-.1.1-.1l.2.1zm2.4 2.4c.4.2.6.6.6 1.1v2l-.5-.3v-1.9c0-.2 0-.3-.1-.4 0-.1-.1-.2-.2-.2-.1-.1-.3-.1-.4-.1h-.5v-.4c.2-.1.4-.1.5-.1.2.2.4.2.6.3zm-1.1-.5v.6.1 2.1l-.5-.3v-2.7l.5.2zm3.4 1.9c.3.1.5.3.6.4.2.1.3.3.3.5.1.2.1.3.1.6 0 .2 0 .3-.1.4s-.2.1-.3.1c-.2 0-.4-.1-.6-.3-.3-.1-.5-.3-.6-.4s-.3-.3-.3-.5c-.1-.2-.1-.3-.1-.5s0-.4.1-.4c.1-.1.2-.1.3-.1.1-.1.3 0 .6.2zm0 .4c-.2-.1-.4-.2-.5-.2s-.1.1-.1.3 0 .3.1.4.2.3.5.4c.2.1.4.2.5.2s.1-.1.1-.3 0-.3-.1-.4c-.1-.2-.3-.3-.5-.4zm1.3.4v.3l-.6-.3-.2-.4.8.4zm-2 .3l.3.2c-.1 0-.1.1-.1.1v.2c0 .1.1.2.2.2l.9.7c.2.2.4.3.5.5s.1.4.1.6 0 .4-.1.5-.2.1-.4.1-.4-.1-.7-.3c-.2-.1-.4-.3-.6-.4-.1-.1-.3-.2-.4-.3s-.2-.2-.2-.4c0-.1-.1-.3-.1-.4v-.3c0-.1.1-.1.2-.1h.3.3l.2.2-.2.1c-.1 0-.1 0-.2.1l-.1.1v.2c0 .1 0 .2.1.3 0 .1.1.2.2.3s.2.2.4.3.3.2.4.2h.2s.1-.1.1-.2v-.2c0-.1-.1-.1-.1-.2-.1-.1-.1-.1-.3-.2l-.8-.6-.3-.3c-.1-.1-.1-.2-.1-.3v-.3c0-.1 0-.1.1-.2l.2-.2zm4.7.1c.3.2.5.3.7.5s.3.3.4.5.1.4.1.7 0 .5-.1.6-.2.1-.4 0h0c.2.2.4.4.5.6s.2.5.2.8 0 .4-.1.6c-.1.1-.2.1-.3.1-.2 0-.4-.1-.6-.3-.2-.1-.4-.2-.5-.3s-.3-.2-.4-.2c-.1-.1-.2-.2-.4-.2l.1-.4c.1 0 .2.1.4.2s.4.3.7.4c.2.1.3.2.4.2s.2 0 .2-.1.1-.2.1-.4 0-.4-.1-.5c0-.1-.1-.2-.2-.3s-.2-.2-.4-.3l-1.1-.6v-.4l1.1.6c.2.1.3.1.4.2.1 0 .2 0 .2-.1s.1-.2.1-.4 0-.3-.1-.4c0-.1-.1-.2-.2-.3s-.2-.2-.4-.3-.3-.2-.4-.3-.2-.1-.3-.2-.2-.1-.3-.1l-.1-.5c.1.1.2.1.3.2s.2.1.3.2c-.1 0 0 .1.2.2zm-.6-.4v3.9l-.5-.3v-3.9l.5.3zm3.5 3.1c.3.2.5.3.7.5s.3.4.4.7.1.6.1.9 0 .6-.1.8-.2.2-.4.2-.4-.1-.7-.2c-.3-.2-.5-.3-.7-.5s-.3-.4-.4-.7-.1-.6-.1-.9 0-.6.1-.8.2-.3.4-.3c.2.1.4.2.7.3zm0 .5c-.2-.1-.3-.1-.4-.1s-.2.1-.2.2-.1.3-.1.6 0 .5.1.6c0 .2.1.3.2.4s.2.2.4.3.3.1.4.1.2-.1.2-.2.1-.3.1-.6 0-.5-.1-.6c0-.2-.1-.3-.2-.4s-.3-.2-.4-.3zm2.4.2v2.8c0 .1 0 .2.1.3 0 .1.1.2.2.2l.3.2.1.4c-.1 0-.1 0-.2-.1-.1 0-.1-.1-.2-.1s-.1-.1-.2-.1a1.2 1.2 0 0 1-.5-.5c-.1-.2-.2-.4-.2-.6v-2.8l.6.3zm.7 1.2v.4l-1.6-.9v-.4l.5.2 1.1.7zm1.1-.1v2.8c0 .1 0 .2.1.3 0 .1.1.2.2.2l.3.2.1.4c-.1 0-.1 0-.2-.1-.1 0-.1-.1-.2-.1s-.1-.1-.2-.1a1.2 1.2 0 0 1-.5-.5c-.1-.2-.2-.4-.2-.6v-2.8l.6.3zm.8 1.2v.4l-1.6-.9v-.4l.5.2 1.1.7zm.9-.6v3.1c0 .1 0 .2.1.3s.1.2.2.2l.2.1.1.4h-.1c-.1 0-.1 0-.2-.1-.1 0-.1-.1-.1-.1-.2-.1-.3-.2-.4-.4s-.2-.4-.2-.6v-3.3l.4.4zm2 2.2c.4.2.6.4.8.7.2.2.2.5.2.8 0 .2 0 .4-.1.5s-.2.1-.5-.1l-1.4-.8v-.4l1.2.7c.1.1.2.1.2 0v-.2c0-.2 0-.3-.1-.4s-.2-.2-.4-.3-.3-.1-.4-.1-.2.1-.2.2-.1.3-.1.6 0 .5.1.7c0 .2.1.3.2.4s.2.2.4.3c.1.1.3.1.4.2.2.1.3.1.4.2v.4c-.1 0-.2 0-.3-.1-.1 0-.2-.1-.3-.1-.1-.1-.2-.1-.3-.2-.3-.2-.5-.3-.7-.5s-.3-.4-.4-.7-.1-.6-.1-.9c0-.4 0-.6.1-.8s.2-.2.4-.2c.5-.1.7 0 .9.1zm3.1 1.8c.4.2.6.6.6 1.1v2l-.4-.2v-1.9c0-.2 0-.3-.1-.4 0-.1-.1-.2-.2-.2-.1-.1-.3-.1-.4-.1h-.5v-.4c.2-.1.4-.1.5-.1.2.1.4.1.5.2zm-1.1-.5v.6.1 2.1l-.5-.3v-2.7l.5.2zm3.5 1.9c.4.2.6.4.8.7.2.2.2.5.2.8 0 .2 0 .4-.1.5s-.2.1-.5-.1l-1.4-.8v-.4l1.2.7c.1.1.2.1.2 0v-.2c0-.2 0-.3-.1-.4s-.2-.2-.4-.3-.3-.1-.4-.1-.2.1-.2.2-.1.3-.1.6 0 .5.1.7c0 .2.1.3.2.4s.2.2.4.3c.1.1.3.1.4.2.2.1.3.1.4.2v.4c-.1 0-.2 0-.3-.1-.1 0-.2-.1-.3-.1s-.2-.1-.3-.2c-.3-.2-.5-.3-.7-.5s-.3-.4-.4-.7-.1-.6-.1-.9c0-.4 0-.6.1-.8s.2-.2.4-.2c.4-.1.6-.1.9.1zm2.6 1.5c.1 0 .2.1.2.2.1.1.2.1.3.2s.2.2.3.2l-.1.3c-.1-.1-.2-.2-.3-.2-.1-.1-.2-.1-.3-.2-.2-.1-.3-.2-.4-.2s-.2.1-.2.2-.1.3-.1.6 0 .5.1.6c0 .2.1.3.2.4s.3.2.4.3c0 0 .1.1.2.1s.2.1.3.1.2.1.3.1v.4c-.1 0-.3-.1-.4-.1-.1-.1-.3-.1-.4-.2-.3-.2-.5-.3-.7-.5s-.3-.4-.4-.7-.1-.6-.1-.9c0-.4 0-.6.1-.8s.2-.2.4-.2c.1.1.4.2.6.3zm3.4 2l-.7.6s-.1 0-.1.1h-.1 0s.1.1.1.2.1.1.1.2l.8 1.8-.5-.3-.9-2.1.8-.7.5.2zm-1.5-2v1.7.3.3.3.3.9l-.5-.3v-3.9l.5.4zm.4 2.4v.4l-.6-.3v-.4l.6.3zm2.4.3c.1.1.2.1.3.2s.2.2.4.2c.1.1.2.2.3.2v.4c-.2-.1-.3-.2-.5-.3-.1-.1-.3-.2-.4-.3s-.3-.1-.3-.2h-.2s-.1.1-.1.2 0 .2.1.3.1.2.3.3l.7.6c.2.2.3.3.4.5s.1.4.1.6 0 .4-.1.4c-.1.1-.2.1-.3 0-.2 0-.3-.1-.6-.3-.1-.1-.2-.1-.4-.2s-.4-.2-.6-.4v-.4c.1 0 .2.1.2.2.1.1.2.1.3.2s.2.1.3.2c.2.1.3.2.4.2h.2s.1-.1.1-.2 0-.2-.1-.3l-.3-.3-.7-.6-.3-.3c-.1-.1-.1-.2-.2-.3v-.4c0-.2 0-.3.1-.4s.2-.1.3-.1l.6.3z"/></g><g class="h"><path d="M255.7 216.9l32.2 18.6c1 .6 1.8 2 1.8 3.1h0c0 1.1-.8 1.6-1.8 1L255.7 221c-1-.6-1.8-2-1.8-3.1h0c0-1.1.8-1.6 1.8-1z"/><ellipse transform="matrix(.866 -.5 .5 .866 -74.4479 154.3441)" cx="250.8" cy="216.1" rx="1.5" ry="2.5"/></g><g class="i"><path d="M255.7 226.2l18.8 10.8c1 .6 1.8 2 1.8 3.1h0c0 1.1-.8 1.6-1.8 1l-18.8-10.8c-1-.6-1.8-2-1.8-3.1h0c0-1.2.8-1.6 1.8-1z"/><ellipse transform="matrix(.866 -.5 .5 .866 -79.0884 155.5875)" cx="250.8" cy="225.4" rx="1.5" ry="2.5"/></g><g class="h"><path d="M255.7 235.4l32.2 18.6c1 .6 1.8 2 1.8 3.1h0c0 1.1-.8 1.6-1.8 1l-32.2-18.6c-1-.6-1.8-2-1.8-3.1h0c0-1.1.8-1.5 1.8-1z"/><ellipse transform="matrix(.866 -.5 .5 .866 -83.7289 156.8309)" cx="250.8" cy="234.7" rx="1.5" ry="2.5"/><use href="#b"/><ellipse transform="matrix(.866 -.5 .5 .866 -88.3679 158.0739)" cx="250.8" cy="243.9" rx="1.5" ry="2.5"/></g><g class="i"><path d="M255.7 254l32.2 18.6c1 .6 1.8 2 1.8 3.1h0c0 1.1-.8 1.6-1.8 1l-32.2-18.6c-1-.6-1.8-2-1.8-3.1h0c0-1.1.8-1.6 1.8-1z"/><ellipse transform="matrix(.866 -.5 .5 .866 -93.0104 159.3179)" cx="250.8" cy="253.2" rx="1.5" ry="2.5"/></g><g class="h"><path d="M255.7 263.3l18.8 10.8c1 .6 1.8 2 1.8 3.1h0c0 1.1-.8 1.6-1.8 1l-18.8-10.8c-1-.6-1.8-2-1.8-3.1h0c0-1.1.8-1.6 1.8-1z"/><ellipse transform="matrix(.866 -.5 .5 .866 -97.6509 160.5613)" cx="250.8" cy="262.5" rx="1.5" ry="2.5"/></g><g class="i"><path d="M255.7 272.6l54.5 31.5c1 .6 1.8 2 1.8 3.1h0c0 1.1-.8 1.6-1.8 1l-54.5-31.5c-1-.6-1.8-2-1.8-3.1h0c0-1.1.8-1.6 1.8-1z"/><ellipse transform="matrix(.866 -.5 .5 .866 -102.2919 161.8048)" cx="250.8" cy="271.8" rx="1.5" ry="2.5"/></g><path d="M230.6 260.6a15.6 15.6 0 0 1-10.5 2.8c-4-.2-8.4-1.7-12.8-4.2s-8.8-6.1-12.8-10.5-7.6-9.5-10.5-15l23.3-10.6 23.3 37.5z" fill="#589aeb"/><path d="M202.1 238.4c.1.1.3.2.4.3s.2.2.2.3c.1.1.1.2.1.4v.3c0 .1-.1.1-.1.2l-.2.2-.6.4c.1 0 .1.1.2.1s.1.1.2.1l.7.4v.3l-1.4-.8v-.2-.1-.1l.6-.4.3-.3c.1-.1.1-.2.1-.3v-.2c0-.1-.1-.1-.1-.1-.1 0-.1-.1-.2-.1s-.1-.1-.2-.1-.1-.1-.2-.1-.1-.1-.2-.1v-.3c.1 0 .2.1.3.1s.1.1.2.1c-.3-.1-.2 0-.1 0zm1.9 1.2s.1.1.2.1c.1.1.2.1.3.2v.2l-.1-.1-.1-.1s-.1-.1-.2-.1c-.1-.1-.2-.1-.3-.1s-.1 0-.2.1c0 0-.1.1-.1.3v.5.5c0 .1 0 .2.1.3 0 .1.1.2.1.2l.2.2c.1.1.2.1.3.1s.1-.1.1-.1v-.3-.3c0-.1-.1-.2-.1-.2l-.2-.2c-.1 0-.1-.1-.2-.1h-.2c-.1 0-.1 0-.2.1v-.2c.1-.1.1-.1.2-.1h.2c.1 0 .2.1.3.1.2.1.3.2.4.3s.1.2.2.4c0 .1.1.3.1.5v.3c0 .1-.1.2-.1.2s-.1.1-.2.1-.2-.1-.4-.2-.3-.2-.4-.3-.2-.2-.2-.3c-.1-.1-.1-.3-.1-.4v-.6c0-.3 0-.5.1-.7 0-.2.1-.3.2-.3.1-.1.2-.1.3 0-.2-.2-.1-.1 0 0zm1.2 2.7s.1.1 0 0c.1.1.1.1.1.2v.2.1h-.1l-.1-.1-.1-.1v-.1-.2-.1c0 0 .1 0 .2.1h0zm1.3-1.3c.1.1.3.2.3.2l.2.2c.1.1.1.2.1.3v.3.3c0 .1-.1.1-.1.1h-.2 0c.1.1.2.1.2.2.1.1.1.2.1.3v.4c0 .2 0 .3-.1.3 0 .1-.1.1-.2.1s-.3-.1-.5-.2-.4-.2-.5-.3-.2-.2-.2-.3-.1-.3-.1-.4v-.3c0-.1.1-.1.1-.2s.1 0 .2 0h0l-.2-.2c0-.1-.1-.2-.1-.3v-.3-.3c0-.1.1-.1.1-.1h.2c.4 0 .5.1.7.2zm0 1.3c-.1-.1-.2-.1-.2-.1h-.1s-.1 0-.1.1v.2.3c0 .1.1.1.1.2s.2.1.3.2.2.1.3.1.1 0 .1-.1v-.2-.2c0-.1 0-.1-.1-.2 0-.1-.1-.1-.1-.1l-.2-.2zm0-1.1c-.1-.1-.2-.1-.3-.1s-.1 0-.1.1v.2.3c0 .1.1.1.1.2.1.1.1.1.3.2.1.1.2.1.3.1s.1 0 .1-.1v-.2-.3c0-.1-.1-.1-.1-.2-.1 0-.2-.1-.3-.2zm1.6.7c.1.1.2.2.3.2.1.1.1.2.2.3 0 .1.1.3.1.5s0 .3-.1.4c0 .1-.1.1-.2.1s-.2 0-.3-.1-.2-.2-.3-.2c-.1-.1-.1-.2-.2-.3v-.5-.4c0-.1.1-.1.2-.1 0 0 .1 0 .3.1zm0 .2c-.1 0-.1-.1-.2 0 0 0-.1 0-.1.1v.3.3c0 .1 0 .2.1.2 0 .1.1.1.2.1s.1.1.2 0c0 0 .1 0 .1-.1v-.3-.3c0-.1 0-.2-.1-.2s-.2-.1-.2-.1zm1.5.7l-1.4 1.7-.2-.1 1.4-1.7.2.1zm0 1c.1.1.2.2.3.2.1.1.1.2.2.3v.4.4c0 .1-.1.1-.2.1s-.2 0-.3-.1-.2-.2-.3-.2c-.1-.1-.1-.2-.2-.3v-.5-.4c0-.1.1-.1.2-.1 0 .1.1.2.3.2zm0 .2c-.1 0-.1-.1-.2 0 0 0-.1 0-.1.1v.3.3c0 .1 0 .2.1.2 0 .1.1.1.2.1s.1.1.2.1l.1-.1v-.3-.3c0-.1 0-.2-.1-.2-.1-.1-.2-.1-.2-.2z" class="d"/><path d="M183.9 233.7a67.4 67.4 0 0 1-7.4-21.4c-1.1-7-.6-13.3 1.3-18.4l29.4 29.2-23.3 10.6z" class="i"/><path d="M185.1 212.3v2.5l-.3-.2v-1.9-.1-.1l-.5-.1v-.3l.6.1.2.1zm1.6.9l.1.1s0 .1.1.1v.1l-.7 1.9-.3-.2.6-1.6v-.1-.1l-1.1-.6v-.3l1.3.7zm.6 2.4c.1.1.1.1.1.2v.2.1h-.1l-.1-.1-.1-.1v-.1-.2-.1c0 0 0 0 .2.1h0zm1.1-1.4v2.5l-.3-.2v-1.9-.1-.1l-.5-.1v-.3l.6.1.2.1zm1 .5c.1.1.2.2.3.2.1.1.1.2.2.3v.5.4c0 .1-.1.1-.2.1s-.2 0-.3-.1-.2-.2-.3-.2c-.1-.1-.1-.2-.2-.3v-.5-.4c0-.1.1-.1.2-.1 0 0 .1 0 .3.1zm0 .2c-.1 0-.1-.1-.2 0 0 0-.1 0-.1.1v.3.3c0 .1 0 .2.1.2 0 .1.1.1.2.1s.1.1.2 0c0 0 .1 0 .1-.1v-.3-.3c0-.1 0-.2-.1-.2s-.2 0-.2-.1zm1.5.8l-1.4 1.7-.2-.1 1.4-1.7.2.1zm0 1c.1.1.2.2.3.2.1.1.1.2.2.3v.4.4c0 .1-.1.1-.2.1s-.2 0-.3-.1-.2-.2-.3-.2-.1-.2-.2-.3v-.5-.4c0-.1.1-.1.2-.1 0 .1.1.1.3.2zm0 .2c-.1 0-.1-.1-.2 0 0 0-.1 0-.1.1v.3.3c0 .1 0 .2.1.2 0 .1.1.1.2.1s.1.1.2.1c0 0 .1 0 .1-.1v-.3-.3c0-.1 0-.2-.1-.2l-.2-.2z" class="d"/><path d="M177.8,194c2.7-7.2,8.3-11.2,15.6-11.2l13.9,40.4L177.8,194z" fill="#055fcd"/><path d="M186.9 194.3v2.5l-.3-.2v-1.9-.1-.1l-.5-.1v-.3l.6.1.2.1zm1.2.7c.1.1.3.2.4.3s.2.2.2.3c.1.1.1.2.1.4v.3c0 .1-.1.1-.1.2l-.2.2-.6.4c.1 0 .1.1.2.1s.1.1.2.1l.7.4v.3l-1.4-.8v-.2-.1-.1l.6-.4.3-.3c.1-.1.1-.2.1-.3s0-.1-.1-.2c0-.1-.1-.1-.1-.1-.1 0-.1-.1-.2-.1s-.1-.1-.2-.1-.1-.1-.2-.1-.1-.1-.2-.1v-.3c.1 0 .2.1.3.1s.1.1.2.1h0zm1.3 2.8c.1.1.1.1 0 0 .1.1.1.1.1.2v.2.1h-.1l-.1-.1-.1-.1v-.1-.2-.1c.1.1.1.1.2.1h0zm1.2-1.4c.1.1.3.2.4.3s.2.2.2.3c.1.1.1.2.1.4v.3c0 .1-.1.1-.1.2l-.2.2-.6.4c.1 0 .1.1.2.1s.1.1.2.1l.7.4v.3l-1.4-.8v-.2-.1-.1l.6-.4.3-.3c.1-.1.1-.2.1-.3s0-.1-.1-.2c0-.1-.1-.1-.1-.1-.1 0-.1-.1-.2-.1s-.1-.1-.2-.1-.1-.1-.2-.1-.1-.1-.2-.1v-.3c.1 0 .2.1.3.1s.1.1.2.1c-.1 0 0 0 0 0zm1.6.9c.1.1.2.2.3.2.1.1.1.2.2.3 0 .1.1.3.1.5s0 .3-.1.4c0 .1-.1.1-.2.1s-.2 0-.3-.1-.2-.2-.3-.2c-.1-.1-.1-.2-.2-.3v-.5-.4c0-.1.1-.1.2-.1s.2.1.3.1zm0 .2c-.1 0-.1-.1-.2 0 0 0-.1 0-.1.1v.3.3c0 .1 0 .2.1.2 0 .1.1.1.2.1s.1.1.2 0c0 0 .1 0 .1-.1v-.3-.3c0-.1 0-.2-.1-.2s-.2 0-.2-.1zm1.5.8l-1.4 1.7-.2-.1 1.4-1.7.2.1zm0 1c.1.1.2.2.3.2.1.1.1.2.2.3v.4.4c0 .1-.1.1-.2.1s-.2 0-.3-.1-.2-.2-.3-.2c-.1-.1-.1-.2-.2-.3v-.5-.4c0-.1.1-.1.2-.1.1.1.2.1.3.2zm0 .2c-.1 0-.1-.1-.2 0 0 0-.1 0-.1.1v.3.3c0 .1 0 .2.1.2 0 .1.1.1.2.1s.1.1.2.1l.1-.1v-.3-.3c0-.1 0-.2-.1-.2l-.2-.2z" class="d"/><path d="M207.3,187c6,3.5,11.9,8.9,17,15.6c5.1,6.7,9.1,14.4,11.5,22.2s3.3,15.3,2.4,21.6s-3.6,11.3-7.6,14.1      l-23.3-37.5V187z" class="h"/><path d="M218.5 218.3c.2.1.3.2.4.3s.2.2.2.3.1.2.1.4v.3c0 .1-.1.1-.1.2h-.2 0c.1.1.2.2.3.4.1.1.1.3.1.5s0 .3-.1.4c0 .1-.1.1-.2.1s-.2-.1-.4-.2c-.1-.1-.2-.1-.4-.2-.1-.1-.2-.2-.4-.2v-.3c.1 0 .2.1.2.1.1 0 .1.1.2.1s.1.1.2.1c.1.1.2.1.3.1s.1 0 .1-.1v-.2-.2c0-.1-.1-.1-.1-.2l-.2-.2-.4-.2v-.3l.4.2c.1 0 .1.1.2.1h.1v-.1-.1-.2c0-.1-.1-.1-.1-.2-.1 0-.1-.1-.2-.2s-.2-.1-.3-.2-.2-.1-.3-.1v-.3c.1 0 .2.1.3.1.1-.1.2-.1.3 0zm2 1.2s.1.1.2.1c.1.1.2.1.3.2v.3l-.1-.1-.1-.1s-.1-.1-.2-.1c-.1-.1-.2-.1-.2-.1-.1 0-.1 0-.2.1 0 0-.1.1-.1.3v.5.4c0 .1 0 .2.1.3 0 .1.1.1.1.2l.2.2c.1.1.2.1.2.1.1 0 .1 0 .1-.1v-.3-.3c0-.1-.1-.2-.1-.2l-.2-.2c-.1 0-.1-.1-.2-.1h-.2c-.1 0-.1 0-.2.1v-.2l.2-.2h.2c.1 0 .2.1.3.1.2.1.3.2.4.3s.2.2.2.4c0 .1.1.3.1.5v.4c0 .1-.1.2-.1.2-.1 0-.1.1-.2 0-.1 0-.2-.1-.4-.2s-.3-.2-.4-.3-.2-.2-.2-.3c-.1-.1-.1-.3-.1-.4v-.6c0-.3 0-.5.1-.7 0-.2.1-.3.2-.3.1-.1.2-.1.3 0-.3-.1-.2 0 0 .1zm1.2 2.7c.1 0 .1.1.1.1v.1.2.1h-.1l-.1-.1c-.1 0-.1-.1-.1-.1v-.1-.2-.1h.1l.1.1zm1.4-1.3s.1.1.2.1c.1.1.2.1.3.2v.3c-.1 0-.1-.1-.1-.1l-.1-.1s-.1-.1-.2-.1c-.1-.1-.2-.1-.2-.1-.1 0-.1 0-.2.1 0 0-.1.1-.1.3v.5.4c0 .1 0 .2.1.3 0 .1.1.1.1.2l.2.2c.1.1.2.1.2.1.1 0 .1 0 .1-.1v-.3-.3c0-.1-.1-.1-.1-.2l-.2-.2c-.1 0-.1-.1-.2-.1h-.2c-.1 0-.1 0-.2.1v-.2l.2-.2h.2c.1 0 .2.1.3.1.2.1.3.2.4.3s.2.2.2.4c0 .1.1.3.1.5v.4c0 .1-.1.2-.1.2-.1 0-.1.1-.2 0-.1 0-.2-.1-.4-.2s-.3-.2-.4-.3-.2-.2-.2-.3c-.1-.1-.1-.3-.1-.4v-.6c0-.3 0-.5.1-.7 0-.2.1-.3.2-.3s.2-.1.3 0c-.3 0-.2.1 0 .1zm1.4.8l.3.3c.1.1.1.2.2.3 0 .1.1.3.1.5s0 .3-.1.4c0 .1-.1.1-.2.1s-.2 0-.3-.1-.2-.2-.3-.2c-.1-.1-.1-.2-.2-.3v-.5-.4c0-.1.1-.1.2-.1 0-.1.1 0 .3 0zm0 .3h-.1s-.1 0-.1.1v.3.3c0 .1 0 .1.1.2l.1.1c.1 0 .1.1.1 0 0 0 .1 0 .1-.1v-.3-.3c0-.1 0-.1-.1-.2l-.1-.1zm1.5.7l-1.3 1.7-.2-.1 1.3-1.7.2.1zm0 1c.1.1.2.2.3.2.1.1.1.2.2.3 0 .1.1.3.1.5s0 .3-.1.4c0 .1-.1.1-.2.1s-.2 0-.3-.1-.2-.2-.3-.2c-.1-.1-.1-.2-.2-.3v-.5-.4c0-.1.1-.1.2-.1s.2.1.3.1zm0 .3h-.1s-.1 0-.1.1v.3.3c0 .1 0 .1.1.2l.1.1c.1 0 .1.1.1 0 0 0 .1 0 .1-.1v-.3-.3c0-.1 0-.1-.1-.2l-.1-.1z" class="d"/><path d="M193.4 182.8c4.3 0 9 1.5 13.8 4.2v36.1l-13.8-40.3z" fill="#03397c"/><path d="M199 189.5l.1.1s0 .1.1.1v.1l-.7 1.9-.3-.2.6-1.6v-.1-.1l-1.1-.6v-.3l1.3.7zm.5 2.4h0c.1.1.1.1.1.2v.2.1h-.1l-.1-.1-.1-.1v-.1-.2-.1c.1 0 .1 0 .2.1h0zm1.2-1.4c.2.1.3.2.4.3s.2.2.2.3.1.2.1.4v.3c0 .1-.1.1-.1.2h-.2 0c.1.1.2.2.3.4.1.1.1.3.1.5s0 .3-.1.4c0 .1-.1.1-.2.1s-.2-.1-.4-.2c-.1-.1-.2-.1-.3-.2s-.2-.2-.3-.2v-.3c.1 0 .1.1.2.1s.1.1.2.1.1.1.2.1c.1.1.2.1.3.1s.1 0 .1-.1v-.3-.2c0-.1-.1-.2-.1-.2-.1-.1-.1-.1-.3-.2l-.4-.2v-.3l.4.2c.1 0 .1.1.2.1h.1v-.1-.2-.3c0-.1-.1-.1-.1-.2l-.2-.2c-.1-.1-.2-.1-.3-.2s-.2-.1-.3-.1v-.3c.1 0 .2.1.3.1 0 .1.1.2.2.3zm1.6.9c.1.1.2.2.3.2.1.1.1.2.2.3 0 .1.1.3.1.5s0 .3-.1.4c0 .1-.1.1-.2.1s-.2 0-.3-.1-.2-.2-.3-.2c-.1-.1-.1-.2-.2-.3v-.5-.4c0-.1.1-.1.2-.1 0 0 .1 0 .3.1zm0 .2c-.1 0-.1-.1-.2 0 0 0-.1 0-.1.1v.3.3c0 .1 0 .2.1.2 0 .1.1.1.2.1s.1.1.2 0c0 0 .1 0 .1-.1v-.3-.3c0-.1 0-.2-.1-.2s-.2-.1-.2-.1zm1.5.7l-1.4 1.7-.2-.1 1.4-1.7.2.1zm0 1c.1.1.2.2.3.2.1.1.1.2.2.3v.4.4c0 .1-.1.1-.2.1s-.2 0-.3-.1-.2-.2-.3-.2c-.1-.1-.1-.2-.2-.3v-.5-.4c0-.1.1-.1.2-.1s.1.2.3.2zm0 .2c-.1 0-.1-.1-.2 0 0 0-.1 0-.1.1v.3.3c0 .1 0 .2.1.2 0 .1.1.1.2.1s.1.1.2.1l.1-.1v-.3-.3c0-.1 0-.2-.1-.2-.1-.1-.2-.1-.2-.2z" class="d"/></g></svg>