<svg xmlns="http://www.w3.org/2000/svg" width="600" height="600" fill="none" xmlns:v="https://vecta.io/nano"><style><![CDATA[.B{fill:#b2d0f6}.C{fill:#3886e7}.D{stroke-miterlimit:10}]]></style><g clip-path="url(#K)"><path d="M280.25 11.98a39.5 39.5 0 0 1 39.5 0l219.81 126.91a39.5 39.5 0 0 1 19.75 34.21v253.81a39.5 39.5 0 0 1-19.18 33.87l-.57.33-219.81 126.91a39.5 39.5 0 0 1-39.5 0L60.44 461.11a39.5 39.5 0 0 1-19.75-34.21V173.09a39.5 39.5 0 0 1 19.75-34.21L280.25 11.98z" fill="#bfd8f7" fill-opacity=".2" stroke="#0668e1"/><path d="M110.83 414.79c3.11-1.28 265.49-146.12 265.49-146.12 5.35-3.07 14.71-2.7 20.9.86L568.38 362s2.36 4.39 1.38 8.93c-.71 3.31-1.67 4.61-3.24 5.71 0 0-.02 0-.04.02-.22.15-.47.32-.73.47-.07.04-.13.09-.19.13L302.98 527.92c-5.35 3.07-14.71 2.7-20.91-.86l-166.86-95.73a18.8 18.8 0 0 1-1.18-.74l-.26-.2c-.22-.17-.47-.34-.67-.5-2.62-2.14-3.59-4.61-4.08-7.77-.56-3.53 1.81-7.29 1.81-7.29v-.04z" fill="url(#A)"/><path d="M303 520.68l262.59-150.65c5.35-3.07 4.68-8.44-1.5-12L397.23 262.3c-6.19-3.55-15.55-3.94-20.9-.86L113.74 412.12c-5.35 3.07-4.68 8.44 1.5 12l166.86 95.73c6.19 3.55 15.55 3.94 20.91.86v-.02z" fill="url(#B)"/><g stroke-width=".3" class="D"><use href="#L" stroke="url(#C)"/><use href="#L" stroke="url(#C)"/></g><path d="M376.69 288.03c-1.14-.05-2.2.15-2.94.58L160.09 411.2h0c-.74.42-.96.93-.9 1.37.06.48.46 1.08 1.37 1.6l79.42 45.57c.91.51 2.06.81 3.2.86s2.2-.15 2.94-.58l213.65-122.59h0c.74-.42.96-.93.9-1.37-.06-.48-.46-1.09-1.37-1.6l-79.43-45.57h0c-.91-.52-2.06-.81-3.19-.86z" fill="url(#D)" stroke="#a9d0ff" stroke-width=".94"/><path d="M383.31 462.94l81.41-46.7-58.95-33.83-81.41 46.7 58.95 33.83z" fill="url(#E)"/><path d="M143.91 402.71l217.75-124.95-8.68-4.98L135.2 397.7l8.7 5z" fill="url(#F)"/><g fill="#244063"><use href="#M"/><path d="M357.05 309.36l9.64-5.52c1.24-.71 1.07-1.94-.34-2.75l-2.81-1.62c-1.42-.82-3.57-.91-4.79-.2l-9.64 5.52c-1.24.71-1.07 1.94.34 2.75l2.81 1.62c1.42.82 3.57.91 4.79.21z"/><use href="#N"/><path d="M326.23 327.04l9.64-5.52c1.24-.71 1.07-1.93-.34-2.75l-2.81-1.62c-1.42-.82-3.57-.91-4.79-.2l-9.64 5.52c-1.24.71-1.07 1.93.34 2.75l2.81 1.62c1.42.82 3.57.91 4.79.2zm-15.42 8.86l9.64-5.52c1.24-.71 1.07-1.94-.34-2.75l-2.81-1.62c-1.42-.82-3.57-.91-4.79-.2l-9.64 5.52c-1.24.71-1.07 1.93.34 2.75l2.81 1.62c1.42.82 3.57.91 4.79.21zm-15.43 8.84l9.64-5.52c1.24-.71 1.07-1.94-.34-2.75l-2.81-1.62c-1.42-.82-3.57-.91-4.79-.2l-9.64 5.52c-1.23.71-1.07 1.94.34 2.75l2.81 1.62c1.42.82 3.57.91 4.79.21z"/><use href="#O"/><path d="M264.56 362.41l9.64-5.52c1.24-.71 1.07-1.93-.34-2.75l-2.81-1.62c-1.42-.82-3.57-.91-4.79-.2l-9.64 5.52c-1.24.71-1.07 1.93.34 2.75l2.81 1.62c1.42.82 3.57.91 4.79.2zm-15.42 8.87l9.64-5.52c1.24-.71 1.07-1.94-.34-2.75l-2.81-1.62c-1.42-.82-3.57-.91-4.79-.2l-9.64 5.52c-1.23.71-1.07 1.93.34 2.75l2.81 1.62c1.42.82 3.57.91 4.79.21zm-15.42 8.85l9.64-5.52c1.24-.71 1.07-1.93-.34-2.75l-2.81-1.62c-1.42-.82-3.57-.91-4.79-.2l-9.64 5.52c-1.23.71-1.07 1.93.34 2.75l2.81 1.62c1.42.82 3.57.91 4.79.2zm-15.42 8.82l9.64-5.52c1.24-.71 1.07-1.93-.34-2.75l-2.81-1.62c-1.42-.82-3.57-.91-4.79-.21l-9.64 5.52c-1.23.71-1.07 1.93.34 2.75l2.81 1.62c1.42.82 3.57.91 4.79.2zm-15.4 8.86l9.64-5.52c1.24-.71 1.07-1.93-.34-2.75l-2.81-1.62c-1.42-.82-3.58-.91-4.79-.2l-9.64 5.52c-1.24.71-1.07 1.94.34 2.75l2.81 1.62c1.42.82 3.57.91 4.79.21zm-15.43 8.84l9.64-5.52c1.24-.71 1.07-1.94-.34-2.75l-2.81-1.62c-1.42-.82-3.57-.91-4.79-.21l-9.64 5.52c-1.23.71-1.07 1.94.34 2.75l2.81 1.62c1.42.82 3.57.91 4.79.2zm-15.42 8.85l9.64-5.52c1.24-.71 1.07-1.93-.34-2.75l-2.81-1.62c-1.42-.82-3.57-.91-4.79-.2l-9.64 5.52c-1.24.71-1.07 1.93.34 2.75l2.81 1.62c1.42.82 3.58.91 4.79.2zm215.11-107.48l8.93-5.12c.82-.46.71-1.28-.23-1.84l-8.38-4.82c-.95-.54-2.38-.59-3.2-.13l-8.93 5.11c-.82.46-.71 1.28.22 1.84l8.38 4.82c.95.54 2.38.59 3.2.13zm6.59 12.28l15.91-9.13c1.05-.61.92-1.67-.3-2.36l-7.41-4.24c-1.22-.71-3.07-.78-4.12-.17l-15.91 9.13c-1.05.61-.92 1.67.3 2.36l7.41 4.24c1.22.71 3.07.78 4.12.17z"/><use href="#P"/><path d="M378.93 328.81l8.93-5.12c.82-.46.71-1.28-.23-1.84l-8.38-4.82a3.6 3.6 0 0 0-3.2-.13l-8.93 5.11c-.82.46-.71 1.28.23 1.84l8.38 4.82a3.6 3.6 0 0 0 3.2.13zm-14.99 8.59l8.93-5.12c.82-.46.71-1.28-.23-1.84l-8.38-4.82a3.6 3.6 0 0 0-3.2-.13l-8.93 5.12c-.82.46-.71 1.28.23 1.84l8.38 4.82a3.6 3.6 0 0 0 3.2.13zm-14.99 8.62l8.93-5.12c.82-.46.71-1.28-.22-1.84l-8.39-4.82c-.95-.54-2.38-.59-3.2-.13l-8.93 5.11c-.82.46-.71 1.28.22 1.84l8.38 4.82c.95.54 2.38.59 3.2.13zm-14.99 8.59l8.93-5.11c.82-.47.71-1.28-.23-1.84l-8.38-4.82a3.6 3.6 0 0 0-3.2-.13l-8.93 5.12c-.82.47-.71 1.28.22 1.84l8.38 4.82a3.6 3.6 0 0 0 3.2.13zm-15 8.61l8.93-5.11c.82-.47.71-1.28-.23-1.84l-8.38-4.82a3.6 3.6 0 0 0-3.2-.13l-8.93 5.11c-.82.47-.71 1.28.23 1.84l8.38 4.82a3.6 3.6 0 0 0 3.2.13zm-14.98 8.6l8.93-5.12c.82-.46.71-1.28-.23-1.84l-8.38-4.82a3.6 3.6 0 0 0-3.2-.13l-8.93 5.12c-.82.46-.71 1.28.23 1.84l8.38 4.82a3.6 3.6 0 0 0 3.2.13z"/><use href="#Q"/><path d="M273.99 389.01l8.93-5.12c.82-.47.71-1.28-.22-1.84l-8.38-4.82a3.6 3.6 0 0 0-3.2-.13l-8.93 5.12c-.82.46-.71 1.28.22 1.84l8.38 4.82a3.6 3.6 0 0 0 3.2.13zM259 397.6l8.93-5.12c.82-.46.71-1.28-.23-1.84l-8.38-4.82c-.95-.54-2.38-.59-3.2-.13l-8.93 5.11c-.82.46-.71 1.28.22 1.84l8.39 4.82c.95.54 2.38.59 3.2.13zm-14.99 8.62l8.93-5.12c.82-.47.71-1.28-.22-1.84l-8.38-4.82c-.96-.54-2.38-.59-3.2-.13l-8.93 5.12c-.82.46-.71 1.28.22 1.84l8.38 4.82c.95.54 2.38.59 3.2.13zm-14.99 8.59l8.93-5.12c.82-.46.71-1.28-.22-1.84l-8.38-4.82a3.6 3.6 0 0 0-3.2-.13l-8.93 5.11c-.82.46-.71 1.28.22 1.84l8.38 4.82a3.6 3.6 0 0 0 3.2.13z"/><use href="#R"/><path d="M227.61 431.93l8.93-5.12c.82-.46.71-1.28-.22-1.84l-8.38-4.82a3.6 3.6 0 0 0-3.2-.13l-8.93 5.11c-.82.46-.71 1.28.22 1.84l8.39 4.82a3.6 3.6 0 0 0 3.2.13zm30.6-17.56l8.93-5.12c.82-.47.71-1.28-.23-1.84l-8.38-4.82a3.6 3.6 0 0 0-3.2-.13l-8.93 5.11c-.82.47-.71 1.28.22 1.84l8.38 4.82c.95.54 2.38.59 3.2.13z"/><use href="#S"/><path d="M288.2 397.16l8.93-5.12c.82-.47.71-1.28-.22-1.84l-8.38-4.82a3.6 3.6 0 0 0-3.2-.13l-8.93 5.12c-.82.47-.71 1.28.22 1.84l8.39 4.82a3.6 3.6 0 0 0 3.2.13zm14.99-8.59l8.93-5.11c.82-.47.71-1.28-.23-1.84l-8.38-4.82a3.6 3.6 0 0 0-3.2-.13l-8.93 5.12c-.82.47-.71 1.28.23 1.84l8.38 4.82a3.6 3.6 0 0 0 3.2.13zm14.99-8.61l8.93-5.12c.82-.46.71-1.28-.23-1.84l-8.38-4.82c-.95-.54-2.38-.59-3.2-.13l-8.93 5.12c-.82.46-.71 1.28.23 1.84l8.38 4.82a3.6 3.6 0 0 0 3.2.13zm14.99-8.6l8.93-5.11c.82-.47.71-1.28-.22-1.84l-8.38-4.82a3.6 3.6 0 0 0-3.2-.13l-8.93 5.12c-.82.47-.71 1.28.22 1.84l8.38 4.82a3.6 3.6 0 0 0 3.2.13zm14.99-8.6l8.93-5.11c.82-.46.71-1.28-.22-1.84l-8.38-4.82c-.95-.54-2.38-.59-3.2-.13l-8.93 5.12c-.82.47-.71 1.28.22 1.84l8.38 4.82c.95.54 2.38.59 3.2.13z"/><use href="#T"/><path d="M378.14 345.58l8.93-5.11c.82-.47.71-1.28-.22-1.84l-8.38-4.82c-.95-.54-2.38-.59-3.2-.13l-8.93 5.12c-.82.47-.71 1.28.22 1.84l8.38 4.82a3.6 3.6 0 0 0 3.2.13zm14.2 8.13l8.93-5.11c.82-.47.71-1.28-.23-1.84l-8.38-4.82c-.95-.54-2.38-.59-3.2-.13l-8.93 5.12c-.82.47-.71 1.28.23 1.84l8.38 4.82c.96.54 2.38.59 3.2.13zm-119.26 85.92l8.93-5.11c.82-.46.71-1.28-.23-1.84l-8.38-4.82c-.95-.54-2.38-.59-3.2-.13l-8.93 5.12c-.82.47-.71 1.28.22 1.84l8.38 4.82c.95.54 2.38.59 3.2.13zm-15.14 8.69l8.93-5.12c.82-.46.71-1.28-.22-1.84l-8.38-4.82a3.6 3.6 0 0 0-3.2-.13l-8.93 5.12c-.82.46-.71 1.28.22 1.84l8.38 4.82a3.6 3.6 0 0 0 3.2.13zm-15.14 8.69l8.93-5.12c.82-.47.71-1.28-.23-1.84l-8.38-4.82a3.6 3.6 0 0 0-3.2-.13l-8.93 5.12c-.82.46-.71 1.28.22 1.84l8.38 4.82a3.6 3.6 0 0 0 3.2.13z"/><use href="#U"/><path d="M289.15 430.4l8.93-5.12c.82-.46.71-1.28-.22-1.84l-8.38-4.82c-.95-.54-2.38-.6-3.2-.13l-8.93 5.12c-.82.46-.71 1.28.23 1.84l8.38 4.82c.95.54 2.38.6 3.2.13z"/><use href="#V"/><use href="#W"/><path d="M443.37 341.4l9.97-5.73c.53-.3.47-.84-.15-1.19l-2.75-1.58c-.62-.35-1.55-.39-2.08-.09l-9.97 5.73c-.52.3-.47.84.15 1.19l2.75 1.58c.62.35 1.55.39 2.08.09zm-29.65 17.01l9.97-5.73c.52-.3.47-.84-.15-1.19l-2.75-1.58c-.62-.35-1.55-.39-2.08-.09l-9.98 5.73c-.52.3-.47.84.15 1.19l2.75 1.58c.62.35 1.55.39 2.08.09zm-17.63 10.65l11.62-6.68c.92-.52.81-1.45-.26-2.06l-7.97-4.57c-1.07-.61-2.68-.67-3.59-.15l-11.62 6.68c-.92.52-.8 1.45.26 2.06l7.97 4.58c1.07.61 2.68.67 3.59.15zm-70.41 40.4l62.02-35.6c1.98-1.13 1.72-3.12-.56-4.43l-3.56-2.05c-2.28-1.3-5.75-1.45-7.71-.32l-62.02 35.6c-1.98 1.13-1.72 3.13.56 4.43l3.56 2.05c2.28 1.3 5.75 1.45 7.71.32zm51.87-47.24l8.93-5.12c.82-.46.71-1.28-.22-1.84l-8.38-4.82c-.95-.54-2.38-.59-3.2-.13l-8.93 5.12c-.82.46-.71 1.28.22 1.84l8.38 4.82c.95.54 2.38.59 3.2.13zm-14.81 8.48l8.93-5.12c.82-.46.71-1.28-.22-1.84l-8.38-4.82a3.6 3.6 0 0 0-3.2-.13l-8.93 5.12c-.82.46-.71 1.28.22 1.84l8.38 4.82a3.6 3.6 0 0 0 3.2.13zm-14.81 8.5l8.93-5.12c.82-.46.71-1.28-.22-1.84l-8.38-4.82a3.6 3.6 0 0 0-3.2-.13l-8.93 5.12c-.82.46-.71 1.28.22 1.84l8.38 4.82a3.6 3.6 0 0 0 3.2.13zm-14.8 8.49l8.93-5.11c.82-.47.71-1.28-.23-1.84l-8.38-4.82a3.6 3.6 0 0 0-3.2-.13l-8.93 5.12c-.82.47-.71 1.28.23 1.84l8.38 4.82a3.6 3.6 0 0 0 3.2.13z"/><use href="#X"/><path d="M303.53 404.68l8.93-5.11c.82-.47.71-1.28-.22-1.84l-8.38-4.82a3.6 3.6 0 0 0-3.2-.13l-8.93 5.11c-.82.47-.71 1.28.22 1.84l8.38 4.82a3.6 3.6 0 0 0 3.2.13zm-14.81 8.5l8.93-5.11c.82-.46.71-1.28-.22-1.84l-8.38-4.82c-.95-.54-2.38-.59-3.2-.13l-8.93 5.12c-.82.46-.71 1.28.22 1.84l8.38 4.82c.95.54 2.38.59 3.2.13zm-14.8 8.49l8.93-5.11c.82-.46.71-1.28-.22-1.84l-8.38-4.82a3.6 3.6 0 0 0-3.2-.13l-8.93 5.12c-.82.46-.71 1.28.22 1.84l8.38 4.82a3.6 3.6 0 0 0 3.2.13zm-14.81 8.48l8.93-5.12c.82-.46.71-1.28-.22-1.84l-8.38-4.82a3.6 3.6 0 0 0-3.2-.13l-8.93 5.12c-.82.46-.71 1.28.22 1.84l8.39 4.82a3.6 3.6 0 0 0 3.2.13zm-30.84 17.7l24.14-13.86c1.27-.73 1.12-2.01-.36-2.84l-6.49-3.72a5.6 5.6 0 0 0-4.98-.2l-24.14 13.86c-1.27.73-1.12 2.01.36 2.85l6.49 3.72c1.48.84 3.71.93 4.98.21zm164.86-110.89l8.93-5.12c.82-.46.71-1.28-.23-1.84l-8.38-4.82c-.96-.54-2.38-.59-3.2-.13l-8.93 5.12c-.82.46-.71 1.28.23 1.84l8.38 4.82a3.6 3.6 0 0 0 3.2.13zm14.81-8.5l15.5-8.89c1.05-.59.92-1.64-.3-2.34l-7.45-4.28a4.6 4.6 0 0 0-4.08-.17l-15.5 8.89c-1.05.59-.92 1.64.3 2.34l7.45 4.28a4.6 4.6 0 0 0 4.08.17zm.28 16.13l28.95-16.61c1.31-.74 1.14-2.07-.37-2.92l-6.34-3.65c-1.52-.87-3.8-.97-5.11-.2l-28.95 16.61c-1.31.74-1.14 2.06.37 2.92l6.34 3.65c1.52.88 3.8.97 5.11.2zm-220.11 82.87l21.8 12.5a5.4 5.4 0 0 0 4.77 0l7.11-4.07c1.31-.76 1.33-1.99 0-2.73l-9.94-5.71c-1.33-.76-1.33-2.01 0-2.77l10.57-6.06c1.1-.63 1.09-1.66 0-2.27l-7.9-4.52a4.4 4.4 0 0 0-3.95 0l-22.51 12.91c-1.31.76-1.33 1.99 0 2.75l.04-.02zm168.34-101.81l8.93-5.12c.82-.47.71-1.28-.22-1.84l-8.38-4.82a3.6 3.6 0 0 0-3.2-.13l-8.93 5.11c-.82.47-.71 1.28.22 1.84l8.38 4.82a3.6 3.6 0 0 0 3.2.13zm-15.36 8.81l8.93-5.11c.82-.47.71-1.28-.22-1.84l-8.38-4.82a3.6 3.6 0 0 0-3.2-.13l-8.93 5.12c-.82.46-.71 1.28.22 1.84l8.39 4.82a3.6 3.6 0 0 0 3.2.13zm-15.37 8.83l8.93-5.12c.82-.46.71-1.28-.22-1.84l-8.38-4.82c-.95-.54-2.38-.59-3.2-.13l-8.93 5.12c-.82.46-.71 1.28.22 1.84l8.38 4.82a3.6 3.6 0 0 0 3.2.13zm-15.36 8.81l8.93-5.11c.82-.47.71-1.28-.22-1.84l-8.38-4.82a3.6 3.6 0 0 0-3.2-.13l-8.93 5.11c-.82.47-.71 1.28.22 1.84l8.38 4.82a3.6 3.6 0 0 0 3.2.13zm-15.37 8.81l8.93-5.12c.82-.47.71-1.28-.22-1.84l-8.38-4.82a3.6 3.6 0 0 0-3.2-.13l-8.93 5.12c-.82.47-.71 1.28.22 1.84l8.38 4.82a3.6 3.6 0 0 0 3.2.13zm-15.36 8.82l8.93-5.12c.82-.46.71-1.28-.22-1.84l-8.38-4.82c-.95-.54-2.38-.59-3.2-.13l-8.93 5.11c-.82.46-.71 1.28.22 1.84l8.38 4.82c.95.54 2.38.59 3.2.13zm-15.37 8.8l8.93-5.12c.82-.46.71-1.28-.23-1.84l-8.38-4.82a3.6 3.6 0 0 0-3.2-.13l-8.93 5.12c-.82.46-.71 1.28.22 1.84l8.38 4.82a3.6 3.6 0 0 0 3.2.13z"/><use href="#Y"/><path d="M233.53 396.16l8.93-5.12c.82-.46.71-1.28-.22-1.84l-8.39-4.82a3.6 3.6 0 0 0-3.2-.13l-8.93 5.12c-.82.46-.71 1.28.22 1.84l8.38 4.82c.95.54 2.38.59 3.2.13zm-15.37 8.81l8.93-5.12c.82-.47.71-1.28-.22-1.84l-8.38-4.82c-.95-.54-2.38-.59-3.2-.13l-8.93 5.12c-.82.46-.71 1.28.22 1.84l8.38 4.82c.95.54 2.38.59 3.2.13zm-32.11 18.44l24.82-14.25c1.29-.74 1.12-2.03-.36-2.88l-6.42-3.68c-1.5-.86-3.74-.95-5.03-.2l-24.82 14.25c-1.29.74-1.12 2.03.35 2.88l6.42 3.68c1.5.86 3.74.95 5.03.2z"/></g><path d="M383.31 463.12l81.73-46.89-59.27-34-81.73 46.89 59.27 34zm81.07-46.89l-81.09 46.52-58.63-33.65 81.09-46.52 58.63 33.65z" stroke="#bed3f4" stroke-width=".3" class="D"/><path d="M100.84 414.98l271.31-155.68c3.63-2.08 6.96-6.44 8.46-11.07l.39-1.21 2-208.57c.04-2.75-.86-4.84-2.56-5.84s-3.97-.78-6.38.61L98.95 191.09c-2.41 1.39-4.7 3.77-6.38 6.73-1.7 2.94-2.6 6.08-2.56 8.82l2 206.25.39.76c1.5 2.9 4.83 3.44 8.46 1.36l-.02-.02zm271.24-165.85L100.93 404.72l-1.97-203.38L374.04 43.46l-1.98 205.67h.02z" fill="url(#G)"/><path d="M96.85 208.28l2.08 202.6c.79 1.51 2.49 1.79 4.38.71l271.31-155.68c.56-.32 1.1-.72 1.61-1.25 1.22-1.17 2.23-2.79 2.79-4.48l2.06-204.96c1.12-4.26-.67-7.38-3.35-5.84L100.22 198.61s-.11.06-.17.11c-2.58 1.64-4.27 6.64-3.2 9.58v-.02z" fill="url(#H)"/><path d="M103.31 416.7l271.31-155.68c3.63-2.08 6.96-6.44 8.46-11.07l.39-1.21 2-208.57c.04-2.75-.86-4.84-2.56-5.84s-3.97-.78-6.38.61L101.42 192.8c-2.41 1.39-4.7 3.78-6.38 6.73-1.7 2.94-2.6 6.08-2.56 8.82l2 206.25.39.76c1.5 2.9 4.83 3.44 8.46 1.36l-.02-.02zm271.22-165.85L103.38 406.43l-1.97-203.38L376.51 45.18l-1.98 205.67z" fill="url(#I)"/><path style="mix-blend-mode:screen" opacity=".54" d="M374.53 250.85l1.98-205.67-275.1 157.87c91.52 61.77 239.63 67.01 273.11 47.8z" fill="url(#J)"/><g fill="#fff"><path d="M130.38 216.86v186.31c0 7.95 5.64 11.15 12.62 7.16l276.26-158.64c6.96-4 12.62-13.68 12.62-21.63V43.74c0-7.95-5.64-11.15-12.62-7.16L143 195.22c-6.96 4-12.62 13.68-12.62 21.63v.02z"/><path d="M429.75 35.89c-2.18-1.24-5.25-1.07-8.69.9L144.8 195.43c-3.44 1.97-6.56 5.36-8.83 9.25s-3.67 8.25-3.67 12.18v186.32c0 3.92 1.39 6.61 3.57 7.85 2.12 1.2 5.05 1.08 8.37-.72l.32-.18 276.26-158.64h0c3.44-1.97 6.56-5.36 8.83-9.25s3.66-8.25 3.66-12.18V43.74c0-3.92-1.39-6.61-3.57-7.85z" fill-opacity=".4" stroke="#0668e1" stroke-width=".47"/></g><rect width="56.39" height="18.72" rx="3.76" transform="matrix(.8672 -.498 0 1 262.234 311.891)" fill="#0668e1"/><path d="M282.36 308.45l.5-.26c.18-.09.35-.16.52-.21l-.03.42-.48.26-.5.28-.29.18c-.08.06-.15.11-.2.18s-.09.14-.12.23-.03.2-.03.33c0 .2.03.32.1.37.06.04.17.04.32 0l.68-.18c.26-.07.44-.05.54.07s.15.33.15.63c0 .23-.02.42-.07.59s-.11.31-.21.44a1.8 1.8 0 0 1-.36.36 4.7 4.7 0 0 1-.52.35l-.44.24c-.18.09-.39.18-.63.27l.03-.43.47-.25.32-.18.26-.15c.16-.09.29-.18.39-.26.1-.09.16-.18.2-.29s.06-.25.06-.41c0-.14-.01-.24-.04-.3s-.07-.1-.13-.1c-.06-.01-.13 0-.23.03l-.7.18c-.25.06-.42.03-.52-.08s-.15-.33-.15-.62c0-.23.02-.42.06-.58s.11-.31.21-.43.21-.24.35-.34.31-.22.5-.33zm2.91-.53a1.3 1.3 0 0 1 .46-.18c.13-.02.22.02.28.11s.1.26.1.49v1.92l-.37.21-.07-.56-.03-.05v-1.25c0-.16-.03-.26-.1-.29s-.19 0-.37.11l-.47.29-.55.36-.04-.37.37-.27.42-.28.39-.24zm.63.76v.39l-1.13.65c-.11.07-.19.15-.23.24-.04.08-.06.18-.06.29v.17c0 .13.03.22.08.25.06.03.15 0 .27-.07.09-.05.19-.13.3-.23.12-.11.23-.23.34-.38s.22-.31.31-.49v.36c-.03.07-.08.16-.15.28a3.8 3.8 0 0 1-.24.35c-.09.12-.19.24-.31.35a1.8 1.8 0 0 1-.37.28c-.14.08-.27.13-.38.13-.11 0-.19-.04-.25-.11s-.09-.2-.09-.37v-.3c0-.22.06-.42.18-.6s.29-.35.5-.47l1.23-.71zm3.1-2.84l-.86 3.11c-.02.05-.04.1-.07.14s-.06.07-.1.09l-.42.24c-.04.02-.07.03-.1.02s-.05-.03-.06-.06l-.86-2.13.5-.29.56 1.57c.03.06.05.13.07.2l.06.21.06-.04.07-.28.07-.28.56-2.21.5-.29zm1.43-.89c.37-.21.64-.29.8-.23.17.06.25.23.25.53 0 .25-.04.47-.14.66s-.25.35-.46.47l-1.38.79v-.39l1.26-.72c.11-.06.18-.14.21-.24s.05-.2.05-.3c0-.17-.05-.26-.13-.29s-.22.02-.43.14c-.17.1-.3.2-.39.31s-.16.25-.2.41a2.9 2.9 0 0 0-.05.62c0 .28.02.49.07.61s.13.18.23.17.25-.06.43-.16l.42-.26.43-.29.05.33c-.08.08-.17.17-.28.26l-.34.25-.32.2c-.28.16-.51.24-.68.24s-.29-.08-.37-.25-.12-.43-.12-.77a3.2 3.2 0 0 1 .12-.93 1.7 1.7 0 0 1 .37-.66c.17-.19.38-.35.64-.5z" fill="#fff"/><path d="M158.61 240.67a3.4 3.4 0 0 1 1.04-.43c.29-.05.52 0 .69.16.17.15.3.42.38.81a7.5 7.5 0 0 1 .12 1.51c0 .63-.04 1.18-.12 1.66-.08.47-.2.88-.38 1.24-.17.35-.41.67-.69.94-.28.28-.63.53-1.04.77l-1.09.6-.95.49.34-.95.76-.4.94-.53c.35-.2.62-.44.82-.71s.34-.62.43-1.03a8.1 8.1 0 0 0 .13-1.6c0-.65-.04-1.13-.13-1.44-.08-.32-.22-.51-.43-.55-.2-.05-.48.03-.82.23l-.91.53-.78.47-.35-.52.95-.6 1.09-.66zm-1.22.79v6.49l-.82.47v-6.49l.82-.47zm5.36-1.18v4.59l-.78.44v-4.59l.78-.45zm-.2-1.85c.16-.09.24-.04.24.14v.54c0 .18-.08.32-.24.41l-.37.21c-.16.09-.24.04-.24-.14v-.54c0-.18.08-.32.24-.41l.37-.21zm2.82.23l.56-.31.6-.29.55-.24-.06.67-.77.41-.75.41-.56.34c-.14.1-.23.2-.29.31s-.09.26-.09.44c0 .22.05.34.14.35.1.01.24-.01.43-.07l1.13-.35c.32-.09.56-.09.71.01s.23.34.23.74c0 .38-.06.7-.19.96-.12.26-.31.49-.56.7-.26.22-.58.44-.97.66l-.66.36a8.1 8.1 0 0 1-.96.43l.06-.66.41-.22.47-.26.51-.29.69-.43c.17-.13.29-.25.35-.37.07-.13.11-.28.11-.45 0-.21-.06-.31-.17-.32-.11-.01-.26.01-.45.07l-1.12.34c-.23.07-.41.09-.55.06-.13-.04-.23-.12-.29-.25-.05-.14-.08-.33-.08-.58 0-.35.05-.65.16-.89.11-.25.28-.47.51-.67.23-.2.54-.41.91-.62zm5.16-2.96c.49-.28.84-.27 1.05.02s.32.84.32 1.63c0 .6-.05 1.1-.16 1.52-.11.41-.27.75-.5 1.03-.22.27-.5.5-.84.7-.27.15-.53.26-.78.33-.25.06-.49.06-.73.02l.05-.54.64-.17c.19-.06.39-.15.6-.27.22-.13.4-.27.53-.44s.23-.39.29-.66.09-.63.09-1.06a3.7 3.7 0 0 0-.09-.95c-.06-.21-.15-.33-.27-.36-.12-.04-.28 0-.48.12-.21.12-.41.29-.61.52a8.5 8.5 0 0 0-.69.91l-.08-.52a5.3 5.3 0 0 1 .47-.73 5 5 0 0 1 .59-.64c.21-.19.41-.35.6-.46zm-1.7 1.09l.08.88.06.09v2.96l-.03.13.03.5v.54 1.29l-.78.45v-6.47l.64-.37zm4.91-4.81v5.28c0 .19.05.31.14.36.1.04.23.02.4-.08l.38-.22.09.62c-.06.06-.13.13-.23.21l-.29.21-.25.16c-.3.18-.55.22-.73.12-.18-.1-.27-.34-.27-.72v-5.5l.78-.44zm3.61-.19c.3-.18.56-.28.77-.3.21-.03.37.03.47.19.11.16.16.43.16.81v3.2l-.62.36-.12-.93-.05-.08v-2.09c0-.27-.05-.43-.16-.49s-.32 0-.62.18l-.78.49-.92.61-.07-.61.61-.46.69-.47.65-.4zm1.04 1.27l-.01.64-1.88 1.09c-.19.11-.31.24-.39.39-.07.14-.11.3-.11.48v.28c0 .23.05.37.14.42.1.04.25.01.46-.11.15-.09.32-.22.51-.38a5.7 5.7 0 0 0 .57-.63c.19-.25.36-.52.51-.81v.59c-.06.12-.14.27-.25.46a5.8 5.8 0 0 1-.4.58 5.1 5.1 0 0 1-.51.58c-.19.18-.39.34-.61.46-.24.14-.45.21-.64.22-.18 0-.32-.06-.42-.19-.1-.13-.16-.34-.16-.62v-.5c0-.36.1-.69.29-1.01.2-.32.48-.58.83-.78l2.06-1.18zm5.16-4.72l-1.57 5.71c-.06.24-.15.5-.25.76a4.9 4.9 0 0 1-.37.76c-.15.25-.32.49-.52.7s-.43.39-.69.54l-.07-.53a4.2 4.2 0 0 0 1.18-1.86l.2-.68.13-.51.12-.49.99-3.91.85-.49zm-3.26 1.87l1 2.76c.03.08.05.16.07.25.03.08.05.16.06.25l.2-.11-.25.81-.23.13c-.07.04-.12.05-.17.04-.05-.02-.08-.06-.11-.12l-1.42-3.54.84-.48zm7.85-4.62c.5-.28.86-.31 1.09-.07.23.23.35.77.35 1.63a6.2 6.2 0 0 1-.09 1.09 3.4 3.4 0 0 1-.29.93c-.14.28-.32.55-.56.79-.23.24-.52.46-.87.66l-.45.24-.5.22-.49.19c-.16.05-.3.08-.43.09l.63-.95c.14-.03.28-.07.42-.12l.42-.17.39-.22c.25-.15.44-.32.58-.5.15-.19.25-.42.32-.7a4.6 4.6 0 0 0 .11-1.07c0-.41-.03-.71-.08-.91-.05-.21-.14-.33-.28-.35-.13-.03-.32.02-.56.16-.21.12-.41.3-.6.54l-.64.87-.06-.53c.16-.28.32-.54.49-.77a4.3 4.3 0 0 1 .53-.61 3 3 0 0 1 .56-.43zm-1.44-1.06v1.68l-.02.56c-.01.18-.04.36-.07.55l.08.09.01 3.53-.79.41v-6.36l.79-.46zm7.5-2.31l-1.57 5.71c-.06.24-.15.5-.25.76s-.22.51-.37.76a3.9 3.9 0 0 1-.52.71c-.2.21-.42.39-.69.54l-.07-.53c.33-.31.58-.61.75-.9a4.2 4.2 0 0 0 .42-.96l.2-.68.13-.51.12-.49.99-3.91.85-.49zm-3.26 1.88l1 2.76.07.25c.03.08.05.16.06.25l.2-.11-.25.81-.23.13c-.06.04-.12.05-.17.04-.05-.02-.09-.06-.11-.12l-1.42-3.54.84-.48z" fill="#1b1c17"/><path stroke="#b2d0f6" stroke-width=".94" d="M157.53 260.47l247.53-138.07"/><g class="B"><rect width="38.77" height="3.86" rx="1.93" transform="matrix(.8672 -.498 0 1 160.508 273.996)"/><ellipse cx="1.92" cy="1.93" rx="1.92" ry="1.93" transform="matrix(.8672 -.5007 0 1 155.883 276.656)"/></g><g class="C"><rect width="24.23" height="3.86" rx="1.93" transform="matrix(.8672 -.498 0 1 160.508 282.688)"/><ellipse cx="1.93" cy="1.93" rx="1.93" ry="1.93" transform="matrix(.8672 -.5007 0 1 155.883 285.344)"/></g><g class="B"><rect width="38.77" height="3.86" rx="1.93" transform="matrix(.8672 -.498 0 1 160.508 291.379)"/><ellipse cx="1.93" cy="1.93" rx="1.93" ry="1.93" transform="matrix(.8672 -.5007 0 1 155.883 294.035)"/><rect width="63.01" height="3.86" rx="1.93" transform="matrix(.8672 -.498 0 1 160.508 300.062)"/><ellipse cx="1.92" cy="1.93" rx="1.92" ry="1.93" transform="matrix(.8672 -.5007 0 1 155.883 302.723)"/></g><g class="C"><rect width="38.77" height="3.86" rx="1.93" transform="matrix(.8672 -.498 0 1 160.508 308.754)"/><ellipse cx="1.92" cy="1.93" rx="1.92" ry="1.93" transform="matrix(.8672 -.5007 0 1 155.883 311.414)"/></g><g class="B"><rect width="24.23" height="3.86" rx="1.93" transform="matrix(.8672 -.498 0 1 160.508 317.441)"/><ellipse cx="1.92" cy="1.93" rx="1.92" ry="1.93" transform="matrix(.8672 -.5007 0 1 155.883 320.102)"/><rect width="24.23" height="3.86" rx="1.93" transform="matrix(.8672 -.498 0 1 160.508 335.227)"/><ellipse cx="1.92" cy="1.93" rx="1.92" ry="1.93" transform="matrix(.8672 -.5007 0 1 155.883 337.887)"/></g><g class="C"><rect width="63.01" height="3.86" rx="1.93" transform="matrix(.8672 -.498 0 1 160.508 326.129)"/><ellipse cx="1.93" cy="1.93" rx="1.93" ry="1.93" transform="matrix(.8672 -.5007 0 1 155.883 328.785)"/><rect width="63.01" height="3.86" rx="1.93" transform="matrix(.8672 -.498 0 1 160.508 343.918)"/><ellipse cx="1.93" cy="1.93" rx="1.93" ry="1.93" transform="matrix(.8672 -.5007 0 1 155.883 346.574)"/></g><g class="B"><rect width="38.77" height="3.86" rx="1.93" transform="matrix(.8672 -.498 0 1 253.684 217.828)"/><ellipse cx="1.92" cy="1.93" rx="1.92" ry="1.93" transform="matrix(.8672 -.5007 0 1 249.059 220.488)"/></g><g class="C"><rect width="24.23" height="3.86" rx="1.93" transform="matrix(.8672 -.498 0 1 253.684 226.52)"/><ellipse cx="1.92" cy="1.93" rx="1.92" ry="1.93" transform="matrix(.8672 -.5007 0 1 249.059 229.18)"/></g><g class="B"><rect width="38.77" height="3.86" rx="1.93" transform="matrix(.8672 -.498 0 1 253.684 235.211)"/><ellipse cx="1.93" cy="1.93" rx="1.93" ry="1.93" transform="matrix(.8672 -.5007 0 1 249.059 237.867)"/><rect width="63.01" height="3.86" rx="1.93" transform="matrix(.8672 -.498 0 1 253.684 243.895)"/><ellipse cx="1.93" cy="1.93" rx="1.93" ry="1.93" transform="matrix(.8672 -.5007 0 1 249.059 246.551)"/></g><g class="C"><rect width="38.77" height="3.86" rx="1.93" transform="matrix(.8672 -.498 0 1 253.684 252.586)"/><ellipse cx="1.92" cy="1.93" rx="1.92" ry="1.93" transform="matrix(.8672 -.5007 0 1 249.059 255.246)"/></g><g class="B"><rect width="24.23" height="3.86" rx="1.93" transform="matrix(.8672 -.498 0 1 253.684 261.273)"/><ellipse cx="1.92" cy="1.93" rx="1.92" ry="1.93" transform="matrix(.8672 -.5007 0 1 249.059 263.934)"/><rect width="24.23" height="3.86" rx="1.93" transform="matrix(.8672 -.498 0 1 253.684 279.055)"/><ellipse cx="1.92" cy="1.93" rx="1.92" ry="1.93" transform="matrix(.8672 -.5007 0 1 249.059 281.715)"/></g><g class="C"><rect width="63.01" height="3.86" rx="1.93" transform="matrix(.8672 -.498 0 1 253.684 269.969)"/><ellipse cx="1.93" cy="1.93" rx="1.93" ry="1.93" transform="matrix(.8672 -.5007 0 1 249.059 272.625)"/><rect width="63.01" height="3.86" rx="1.93" transform="matrix(.8672 -.498 0 1 253.684 287.746)"/><ellipse cx="1.92" cy="1.93" rx="1.92" ry="1.93" transform="matrix(.8672 -.5007 0 1 249.059 290.406)"/></g><g class="B"><rect width="38.77" height="3.86" rx="1.93" transform="matrix(.8672 -.498 0 1 344.035 164.469)"/><ellipse cx="1.92" cy="1.93" rx="1.92" ry="1.93" transform="matrix(.8672 -.5007 0 1 339.41 167.137)"/></g><g class="C"><rect width="24.23" height="3.86" rx="1.93" transform="matrix(.8672 -.498 0 1 344.035 173.164)"/><ellipse cx="1.93" cy="1.93" rx="1.93" ry="1.93" transform="matrix(.8672 -.5007 0 1 339.41 175.824)"/></g><g class="B"><rect width="38.77" height="3.86" rx="1.93" transform="matrix(.8672 -.498 0 1 344.035 181.852)"/><ellipse cx="1.93" cy="1.93" rx="1.93" ry="1.93" transform="matrix(.8672 -.5007 0 1 339.41 184.512)"/><rect width="63.01" height="3.86" rx="1.93" transform="matrix(.8672 -.498 0 1 344.035 190.535)"/><ellipse cx="1.92" cy="1.93" rx="1.92" ry="1.93" transform="matrix(.8672 -.5007 0 1 339.41 193.195)"/></g><g class="C"><rect width="38.77" height="3.86" rx="1.93" transform="matrix(.8672 -.498 0 1 344.035 199.223)"/><ellipse cx="1.92" cy="1.93" rx="1.92" ry="1.93" transform="matrix(.8672 -.5007 0 1 339.41 201.883)"/></g><g class="B"><rect width="24.23" height="3.86" rx="1.93" transform="matrix(.8672 -.498 0 1 344.035 207.914)"/><ellipse cx="1.92" cy="1.93" rx="1.92" ry="1.93" transform="matrix(.8672 -.5007 0 1 339.41 210.574)"/><rect width="24.23" height="3.86" rx="1.93" transform="matrix(.8672 -.498 0 1 344.035 225.699)"/><ellipse cx="1.92" cy="1.93" rx="1.92" ry="1.93" transform="matrix(.8672 -.5007 0 1 339.41 228.367)"/></g><g class="C"><rect width="63.01" height="3.86" rx="1.93" transform="matrix(.8672 -.498 0 1 344.035 216.605)"/><ellipse cx="1.93" cy="1.93" rx="1.93" ry="1.93" transform="matrix(.8672 -.5007 0 1 339.41 219.262)"/><rect width="63.01" height="3.86" rx="1.93" transform="matrix(.8672 -.498 0 1 344.035 234.391)"/><ellipse cx="1.93" cy="1.93" rx="1.93" ry="1.93" transform="matrix(.8672 -.5007 0 1 339.41 237.047)"/></g><path d="M132.07 216.86v12.3L433.56 56.04v-12.3c0-7.95-5.64-11.15-12.62-7.16L144.68 195.22c-6.96 4-12.62 13.68-12.62 21.63v.02z" fill="#0668e1"/><use href="#Z" fill="#f22071"/><path d="M402.74 59.81c0 2.25 1.59 3.14 3.55 2.01a7.8 7.8 0 0 0 3.55-6.1c0-2.25-1.59-3.14-3.55-2.01a7.8 7.8 0 0 0-3.55 6.1z" fill="#4bbc79"/><path d="M296.83 125.3l96.47-56.07c1.43-.83 2.59-3.06 2.59-4.99s-1.16-2.8-2.59-1.98l-96.47 56.07c-1.43.83-2.59 3.06-2.59 4.99s1.16 2.8 2.59 1.98z" fill="#dcdcdc"/><path d="M146.54 203.83l.94-.52.72-.34.68-.23-.14 1.57-.69.37-.67.37-.85.49c-.38.23-.69.5-.91.82-.21.3-.36.69-.45 1.18s-.14 1.11-.14 1.89c0 .76.05 1.34.14 1.72.09.38.24.59.45.64.22.05.52-.05.91-.28l1.31-.81 1.05-.72.15 1.39c-.36.35-.73.66-1.11.94-.38.29-.84.6-1.4.93-.81.48-1.45.72-1.93.71-.48-.02-.83-.31-1.05-.86a7.8 7.8 0 0 1-.32-2.58 11.9 11.9 0 0 1 .32-2.96 5.5 5.5 0 0 1 1.05-2.1c.48-.6 1.13-1.14 1.93-1.62zm8.07-2.25l.88-.49.93-.47.8-.35-.11 1.28-1.1.63-1.06.62-.68.43c-.16.1-.27.21-.34.32-.06.1-.09.23-.09.4 0 .2.06.31.17.31.11-.01.3-.05.57-.13l1.46-.46c.47-.14.81-.13 1.04.01.23.14.34.48.34 1.04 0 .54-.09 1.01-.26 1.41s-.45.76-.82 1.1c-.38.33-.86.67-1.46 1.03l-1.04.58c-.46.25-.96.48-1.5.7l.1-1.27.52-.28.69-.41.75-.45.89-.56c.2-.15.34-.28.42-.41s.11-.26.11-.42c0-.2-.06-.3-.19-.28-.13.01-.33.05-.61.13l-1.41.44c-.36.1-.64.12-.84.06s-.34-.19-.42-.38c-.08-.21-.11-.49-.11-.84 0-.45.08-.86.24-1.22a3.1 3.1 0 0 1 .76-1.03c.35-.33.81-.67 1.39-1.02zm5.52-3.13v4.28c0 .27.05.44.15.49.11.05.27.01.5-.13.23-.14.46-.33.69-.56l.87-1.01.12.99c-.41.65-.81 1.19-1.2 1.63a5.2 5.2 0 0 1-1.21 1.03c-1.06.63-1.58.34-1.58-.86v-4.87l1.66-.99zm3.7-2.21v6.51l-1.31.78-.19-1.16-.17-.08v-5.05l1.67-1zm3.07-1.84v6.51l-1.65.99v-6.51l1.65-.99zm-.46-2.59c.33-.2.5-.11.5.28v.71c0 .39-.17.68-.5.88l-.72.43c-.33.2-.5.1-.5-.28v-.71c0-.39.17-.68.5-.88l.72-.43zm4.06-1.36v6.23c0 .24.05.38.14.43.1.04.26-.01.47-.14l.72-.43.18 1.21a5.6 5.6 0 0 1-.5.43l-.59.44-.5.32c-.51.3-.9.38-1.19.25-.28-.15-.42-.51-.42-1.08v-6.67l1.67-1zm1.56.87v1.28l-4.21 2.52v-1.21l1.09-.71 3.12-1.87zm3.54-2.29c.94-.56 1.62-.78 2.03-.64.41.12.62.55.62 1.29.01.58-.12 1.1-.38 1.56s-.72.88-1.37 1.27l-3.12 1.87v-1.09l2.67-1.6c.25-.15.41-.3.47-.47.08-.18.11-.38.11-.61 0-.31-.08-.47-.23-.5-.14-.04-.39.05-.75.26a2.6 2.6 0 0 0-.72.58c-.17.2-.29.46-.36.77a6.1 6.1 0 0 0-.1 1.25 4.1 4.1 0 0 0 .13 1.19c.08.24.22.36.42.36.2-.01.48-.12.84-.33l.95-.59 1.15-.81.16 1.1c-.22.25-.47.5-.75.74a10.6 10.6 0 0 1-.86.66l-.85.56c-.71.42-1.28.65-1.71.66-.43.01-.74-.18-.94-.56a4.2 4.2 0 0 1-.28-1.75c0-.85.09-1.59.28-2.2.2-.62.5-1.16.93-1.63a7.1 7.1 0 0 1 1.66-1.32z" fill="#fff"/></g><defs><linearGradient id="A" x1="570.01" y1="398.29" x2="108.94" y2="398.29" href="#a"><stop stop-color="#a6ceff"/><stop offset="1" stop-color="#9cc5f8"/></linearGradient><linearGradient id="B" x1="466" y1="82.55" x2="236.91" y2="523.53" href="#a"><stop stop-color="#fff"/><stop offset="1" stop-color="#d4e7fe"/></linearGradient><linearGradient id="C" x1="524.03" y1="285.27" x2="156.43" y2="498.84" href="#a"><stop stop-color="#bdd2f4"/><stop offset="1" stop-color="#e5faff"/></linearGradient><linearGradient id="D" x1="914.31" y1="27.53" x2="654.66" y2="178.37" href="#a"><stop stop-color="#bdd2f4"/><stop offset="1" stop-color="#e7f2ff"/></linearGradient><linearGradient id="E" x1="630.15" y1="287.47" x2="549" y2="334.61" href="#a"><stop stop-color="#bdd2f4"/><stop offset="1" stop-color="#d3e7ff"/></linearGradient><linearGradient id="F" x1="508.1" y1="167.79" x2="518.91" y2="187.63" href="#a"><stop stop-color="#0f042e"/><stop offset="1" stop-color="#1c1265"/></linearGradient><linearGradient id="G" x1="-59.76" y1="394.63" x2="-351.86" y2="564.33" href="#a"><stop stop-color="#e5faff"/><stop offset="1" stop-color="#bdd2f4"/></linearGradient><linearGradient id="H" x1="378.51" y1="54.85" x2="115.38" y2="380.67" href="#a"><stop stop-color="#3b92ff"/><stop offset="1" stop-color="#4f9eff"/></linearGradient><linearGradient id="I" x1="-55.94" y1="395.55" x2="-348.05" y2="565.25" href="#a"><stop stop-color="#1c1265"/><stop offset="1" stop-color="#0f042e"/></linearGradient><linearGradient id="J" x1="204.88" y1="288.1" x2="282.35" y2="143.13" href="#a"><stop stop-color="#f5f5f5"/><stop offset=".05" stop-color="#c7c7c7"/><stop offset=".09" stop-color="#9c9c9c"/><stop offset=".14" stop-color="#777"/><stop offset=".2" stop-color="#565656"/><stop offset=".25" stop-color="#3b3b3b"/><stop offset=".32" stop-color="#252525"/><stop offset=".4" stop-color="#141414"/><stop offset=".49" stop-color="#080808"/><stop offset=".63" stop-color="#010101"/><stop offset="1"/></linearGradient><clipPath id="K"><path fill="#fff" d="M0 0h600v600H0z"/></clipPath><path id="L" d="M303.002 520.683L565.594 370.03C570.947 366.961 570.273 361.586 564.097 358.033L397.232 262.303C391.038 258.75 381.68 258.36 376.328 261.447L113.735 412.12C108.382 415.189 109.056 420.564 115.232 424.116L282.097 519.846C288.291 523.399 297.649 523.789 303.002 520.702V520.683Z"/><path id="M" d="M372.47 300.5l9.64-5.52c1.24-.71 1.07-1.93-.34-2.75l-2.81-1.62c-1.42-.82-3.57-.91-4.79-.2l-9.64 5.52c-1.24.71-1.07 1.93.34 2.75l2.81 1.62c1.42.82 3.57.91 4.79.2z"/><path id="N" d="M341.65 318.2l9.64-5.52c1.24-.71 1.07-1.94-.34-2.75l-2.81-1.62c-1.42-.82-3.57-.91-4.79-.2l-9.64 5.52c-1.24.71-1.07 1.93.34 2.75l2.81 1.62c1.42.82 3.57.91 4.79.21z"/><path id="O" d="M279.99 353.58l9.64-5.52c1.24-.71 1.07-1.93-.34-2.75l-2.81-1.62c-1.42-.82-3.57-.91-4.79-.2l-9.64 5.52c-1.23.71-1.07 1.93.34 2.75l2.81 1.62c1.42.82 3.57.91 4.79.2z"/><path id="P" d="M371.8 316.83l8.93-5.12c.82-.46.71-1.28-.23-1.84l-8.38-4.82c-.96-.54-2.38-.59-3.2-.13l-8.93 5.12c-.82.46-.71 1.28.23 1.84l8.38 4.82c.95.54 2.38.6 3.2.13z"/><path id="Q" d="M288.98 380.4l8.93-5.12c.82-.46.71-1.28-.22-1.84l-8.38-4.82c-.95-.54-2.38-.6-3.2-.13l-8.93 5.12c-.82.46-.71 1.28.22 1.84l8.38 4.82c.95.54 2.38.6 3.2.13z"/><path id="R" d="M243.23 422.98l8.93-5.12c.82-.46.71-1.28-.22-1.84l-8.38-4.82c-.95-.54-2.38-.59-3.2-.13l-8.93 5.11c-.82.46-.71 1.28.22 1.84l8.38 4.82c.95.54 2.38.59 3.2.13z"/><path id="S" d="M273.2 405.77l8.93-5.12c.82-.47.71-1.28-.22-1.84l-8.38-4.82c-.95-.54-2.38-.6-3.2-.13l-8.93 5.11c-.82.47-.71 1.28.22 1.84l8.38 4.82c.95.54 2.38.6 3.2.13z"/><path id="T" d="M363.15 354.17l8.93-5.11c.82-.46.71-1.28-.22-1.84l-8.38-4.82c-.95-.54-2.38-.6-3.2-.13l-8.93 5.12c-.82.46-.71 1.28.22 1.84l8.38 4.82c.95.54 2.38.6 3.2.13z"/><path id="U" d="M305.62 420.97l8.93-5.11c.82-.47.71-1.28-.22-1.84l-8.38-4.82c-.95-.54-2.38-.6-3.2-.13l-8.93 5.11c-.82.47-.71 1.28.22 1.84l8.38 4.82c.95.54 2.38.6 3.2.13z"/><path id="V" d="M421.49 345.54l9.97-5.73c.53-.3.47-.84-.15-1.19l-2.75-1.58c-.62-.35-1.55-.39-2.08-.09l-9.97 5.73c-.52.3-.47.84.15 1.19l2.75 1.58c.62.35 1.55.39 2.08.09z"/><path id="W" d="M428.81 349.74l9.97-5.73c.52-.3.47-.84-.15-1.19l-2.75-1.58c-.62-.35-1.55-.39-2.08-.09l-9.98 5.73c-.52.3-.47.84.15 1.19l2.75 1.58c.62.35 1.55.39 2.08.09z"/><path id="X" d="M318.33 396.18l8.93-5.11c.82-.46.71-1.28-.22-1.84l-8.38-4.82c-.95-.54-2.38-.59-3.2-.13l-8.93 5.12c-.82.46-.71 1.28.22 1.84l8.38 4.82c.95.54 2.38.59 3.2.13z"/><path id="Y" d="M248.9 387.34l8.93-5.12c.82-.47.71-1.28-.22-1.84l-8.38-4.82c-.95-.54-2.38-.59-3.2-.13l-8.93 5.12c-.82.46-.71 1.28.22 1.84l8.38 4.82c.95.54 2.38.59 3.2.13z"/><path id="Z" d="M417.18 51.52c0 2.25 1.59 3.14 3.55 2.01a7.8 7.8 0 0 0 3.55-6.1c0-2.25-1.59-3.14-3.55-2.01a7.8 7.8 0 0 0-3.55 6.1z"/><linearGradient id="a" gradientUnits="userSpaceOnUse"/></defs></svg>