<svg xmlns="http://www.w3.org/2000/svg" width="600" height="600" fill="none" xmlns:v="https://vecta.io/nano"><style><![CDATA[.B{color-interpolation-filters:sRGB}.C{flood-opacity:0}.D{fill:#c1c1c1}.E{stroke:#c1c1c1}.F{stroke-width:.24}.G{stroke-dasharray:1.46 2.43}.H{fill:#1b1c17}.I{stroke:#0668e1}.J{fill:#0668e1}.K{fill:#e6f0fc}.L{fill:#606476}.M{stroke-miterlimit:10}]]></style><g clip-path="url(#T)"><path d="M280.25 11.98a39.5 39.5 0 0 1 39.5 0l219.81 126.91a39.5 39.5 0 0 1 19.75 34.21v253.81a39.5 39.5 0 0 1-19.18 33.87l-.57.33-219.81 126.91a39.5 39.5 0 0 1-39.5 0L60.44 461.11a39.5 39.5 0 0 1-19.75-34.21V173.09a39.5 39.5 0 0 1 19.75-34.21L280.25 11.98z" fill="#bfd8f7" fill-opacity=".2" class="I"/><path d="M110.83 414.79c3.11-1.28 265.49-146.12 265.49-146.12 5.35-3.07 14.71-2.7 20.9.86L568.38 362s2.36 4.39 1.38 8.93c-.71 3.31-1.67 4.61-3.24 5.71 0 0-.02 0-.04.02-.22.15-.47.32-.73.47-.07.04-.13.09-.19.13L302.98 527.92c-5.35 3.07-14.71 2.7-20.91-.86l-166.86-95.73a18.8 18.8 0 0 1-1.18-.74l-.26-.2c-.22-.17-.47-.34-.67-.5-2.62-2.14-3.59-4.61-4.08-7.77-.56-3.53 1.81-7.29 1.81-7.29v-.04z" fill="url(#I)"/><path d="M303 520.68l262.59-150.65c5.35-3.07 4.68-8.44-1.5-12L397.23 262.3c-6.19-3.55-15.55-3.94-20.9-.86L113.74 412.12c-5.35 3.07-4.68 8.44 1.5 12l166.86 95.73c6.19 3.55 15.55 3.94 20.91.86v-.02z" fill="url(#J)"/><g stroke-width=".3" class="M"><use href="#U" stroke="url(#K)"/><use href="#U" stroke="url(#K)"/></g><path d="M376.69 288.03c-1.14-.05-2.2.15-2.94.58L160.09 411.2h0c-.74.42-.96.93-.9 1.37.06.48.46 1.08 1.37 1.6l79.42 45.57c.91.51 2.06.81 3.2.86s2.2-.15 2.94-.58l213.65-122.59h0c.74-.42.96-.93.9-1.37-.06-.48-.46-1.09-1.37-1.6l-79.43-45.57h0c-.91-.52-2.06-.81-3.19-.86z" fill="url(#L)" stroke="#a9d0ff" stroke-width=".94"/><path d="M383.31 462.94l81.41-46.7-58.95-33.83-81.41 46.7 58.95 33.83z" fill="url(#M)"/><path d="M143.91 402.71l217.75-124.95-8.68-4.98L135.2 397.7l8.7 5z" fill="url(#N)"/><g fill="#244063"><use href="#V"/><path d="M357.05 309.36l9.64-5.52c1.24-.71 1.07-1.94-.34-2.75l-2.81-1.62c-1.42-.82-3.57-.91-4.79-.2l-9.64 5.52c-1.24.71-1.07 1.94.34 2.75l2.81 1.62c1.42.82 3.57.91 4.79.21z"/><use href="#W"/><path d="M326.23 327.04l9.64-5.52c1.24-.71 1.07-1.93-.34-2.75l-2.81-1.62c-1.42-.82-3.57-.91-4.79-.2l-9.64 5.52c-1.24.71-1.07 1.93.34 2.75l2.81 1.62c1.42.82 3.57.91 4.79.2zm-15.42 8.86l9.64-5.52c1.24-.71 1.07-1.94-.34-2.75l-2.81-1.62c-1.42-.82-3.57-.91-4.79-.2l-9.64 5.52c-1.24.71-1.07 1.93.34 2.75l2.81 1.62c1.42.82 3.57.91 4.79.21zm-15.43 8.84l9.64-5.52c1.24-.71 1.07-1.94-.34-2.75l-2.81-1.62c-1.42-.82-3.57-.91-4.79-.2l-9.64 5.52c-1.23.71-1.07 1.94.34 2.75l2.81 1.62c1.42.82 3.57.91 4.79.21z"/><use href="#X"/><path d="M264.56 362.41l9.64-5.52c1.24-.71 1.07-1.93-.34-2.75l-2.81-1.62c-1.42-.82-3.57-.91-4.79-.2l-9.64 5.52c-1.24.71-1.07 1.93.34 2.75l2.81 1.62c1.42.82 3.57.91 4.79.2zm-15.42 8.87l9.64-5.52c1.24-.71 1.07-1.94-.34-2.75l-2.81-1.62c-1.42-.82-3.57-.91-4.79-.2l-9.64 5.52c-1.23.71-1.07 1.93.34 2.75l2.81 1.62c1.42.82 3.57.91 4.79.21zm-15.42 8.85l9.64-5.52c1.24-.71 1.07-1.93-.34-2.75l-2.81-1.62c-1.42-.82-3.57-.91-4.79-.2l-9.64 5.52c-1.23.71-1.07 1.93.34 2.75l2.81 1.62c1.42.82 3.57.91 4.79.2zm-15.42 8.82l9.64-5.52c1.24-.71 1.07-1.93-.34-2.75l-2.81-1.62c-1.42-.82-3.57-.91-4.79-.21l-9.64 5.52c-1.23.71-1.07 1.93.34 2.75l2.81 1.62c1.42.82 3.57.91 4.79.2zm-15.4 8.86l9.64-5.52c1.24-.71 1.07-1.93-.34-2.75l-2.81-1.62c-1.42-.82-3.58-.91-4.79-.2l-9.64 5.52c-1.24.71-1.07 1.94.34 2.75l2.81 1.62c1.42.82 3.57.91 4.79.21zm-15.43 8.84l9.64-5.52c1.24-.71 1.07-1.94-.34-2.75l-2.81-1.62c-1.42-.82-3.57-.91-4.79-.21l-9.64 5.52c-1.23.71-1.07 1.94.34 2.75l2.81 1.62c1.42.82 3.57.91 4.79.2zm-15.42 8.85l9.64-5.52c1.24-.71 1.07-1.93-.34-2.75l-2.81-1.62c-1.42-.82-3.57-.91-4.79-.2l-9.64 5.52c-1.24.71-1.07 1.93.34 2.75l2.81 1.62c1.42.82 3.58.91 4.79.2zm215.11-107.48l8.93-5.12c.82-.46.71-1.28-.23-1.84l-8.38-4.82c-.95-.54-2.38-.59-3.2-.13l-8.93 5.11c-.82.46-.71 1.28.22 1.84l8.38 4.82c.95.54 2.38.59 3.2.13zm6.59 12.28l15.91-9.13c1.05-.61.92-1.67-.3-2.36l-7.41-4.24c-1.22-.71-3.07-.78-4.12-.17l-15.91 9.13c-1.05.61-.92 1.67.3 2.36l7.41 4.24c1.22.71 3.07.78 4.12.17z"/><use href="#Y"/><path d="M378.93 328.81l8.93-5.12c.82-.46.71-1.28-.23-1.84l-8.38-4.82a3.6 3.6 0 0 0-3.2-.13l-8.93 5.11c-.82.46-.71 1.28.23 1.84l8.38 4.82a3.6 3.6 0 0 0 3.2.13zm-14.99 8.59l8.93-5.12c.82-.46.71-1.28-.23-1.84l-8.38-4.82a3.6 3.6 0 0 0-3.2-.13l-8.93 5.12c-.82.46-.71 1.28.23 1.84l8.38 4.82a3.6 3.6 0 0 0 3.2.13zm-14.99 8.62l8.93-5.12c.82-.46.71-1.28-.22-1.84l-8.39-4.82c-.95-.54-2.38-.59-3.2-.13l-8.93 5.11c-.82.46-.71 1.28.22 1.84l8.38 4.82c.95.54 2.38.59 3.2.13zm-14.99 8.59l8.93-5.11c.82-.47.71-1.28-.23-1.84l-8.38-4.82a3.6 3.6 0 0 0-3.2-.13l-8.93 5.12c-.82.47-.71 1.28.22 1.84l8.38 4.82a3.6 3.6 0 0 0 3.2.13zm-15 8.61l8.93-5.11c.82-.47.71-1.28-.23-1.84l-8.38-4.82a3.6 3.6 0 0 0-3.2-.13l-8.93 5.11c-.82.47-.71 1.28.23 1.84l8.38 4.82a3.6 3.6 0 0 0 3.2.13zm-14.98 8.6l8.93-5.12c.82-.46.71-1.28-.23-1.84l-8.38-4.82a3.6 3.6 0 0 0-3.2-.13l-8.93 5.12c-.82.46-.71 1.28.23 1.84l8.38 4.82a3.6 3.6 0 0 0 3.2.13z"/><use href="#Z"/><path d="M273.99 389.01l8.93-5.12c.82-.47.71-1.28-.22-1.84l-8.38-4.82a3.6 3.6 0 0 0-3.2-.13l-8.93 5.12c-.82.46-.71 1.28.22 1.84l8.38 4.82a3.6 3.6 0 0 0 3.2.13zM259 397.6l8.93-5.12c.82-.46.71-1.28-.23-1.84l-8.38-4.82c-.95-.54-2.38-.59-3.2-.13l-8.93 5.11c-.82.46-.71 1.28.22 1.84l8.39 4.82c.95.54 2.38.59 3.2.13zm-14.99 8.62l8.93-5.12c.82-.47.71-1.28-.22-1.84l-8.38-4.82c-.96-.54-2.38-.59-3.2-.13l-8.93 5.12c-.82.46-.71 1.28.22 1.84l8.38 4.82c.95.54 2.38.59 3.2.13zm-14.99 8.59l8.93-5.12c.82-.46.71-1.28-.22-1.84l-8.38-4.82a3.6 3.6 0 0 0-3.2-.13l-8.93 5.11c-.82.46-.71 1.28.22 1.84l8.38 4.82a3.6 3.6 0 0 0 3.2.13z"/><use href="#a"/><path d="M227.61 431.93l8.93-5.12c.82-.46.71-1.28-.22-1.84l-8.38-4.82a3.6 3.6 0 0 0-3.2-.13l-8.93 5.11c-.82.46-.71 1.28.22 1.84l8.39 4.82a3.6 3.6 0 0 0 3.2.13zm30.6-17.56l8.93-5.12c.82-.47.71-1.28-.23-1.84l-8.38-4.82a3.6 3.6 0 0 0-3.2-.13l-8.93 5.11c-.82.47-.71 1.28.22 1.84l8.38 4.82c.95.54 2.38.59 3.2.13z"/><use href="#b"/><path d="M288.2 397.16l8.93-5.12c.82-.47.71-1.28-.22-1.84l-8.38-4.82a3.6 3.6 0 0 0-3.2-.13l-8.93 5.12c-.82.47-.71 1.28.22 1.84l8.39 4.82a3.6 3.6 0 0 0 3.2.13zm14.99-8.59l8.93-5.11c.82-.47.71-1.28-.23-1.84l-8.38-4.82a3.6 3.6 0 0 0-3.2-.13l-8.93 5.12c-.82.47-.71 1.28.23 1.84l8.38 4.82a3.6 3.6 0 0 0 3.2.13zm14.99-8.61l8.93-5.12c.82-.46.71-1.28-.23-1.84l-8.38-4.82c-.95-.54-2.38-.59-3.2-.13l-8.93 5.12c-.82.46-.71 1.28.23 1.84l8.38 4.82a3.6 3.6 0 0 0 3.2.13zm14.99-8.6l8.93-5.11c.82-.47.71-1.28-.22-1.84l-8.38-4.82a3.6 3.6 0 0 0-3.2-.13l-8.93 5.12c-.82.47-.71 1.28.22 1.84l8.38 4.82a3.6 3.6 0 0 0 3.2.13z"/><use href="#c"/><use href="#d"/><path d="M378.14 345.58l8.93-5.11c.82-.47.71-1.28-.22-1.84l-8.38-4.82c-.95-.54-2.38-.59-3.2-.13l-8.93 5.12c-.82.47-.71 1.28.22 1.84l8.38 4.82a3.6 3.6 0 0 0 3.2.13zm14.2 8.13l8.93-5.11c.82-.47.71-1.28-.23-1.84l-8.38-4.82c-.95-.54-2.38-.59-3.2-.13l-8.93 5.12c-.82.47-.71 1.28.23 1.84l8.38 4.82c.96.54 2.38.59 3.2.13zM273.08 438.7l8.93-5.12c.82-.46.71-1.28-.23-1.84l-8.38-4.82a3.6 3.6 0 0 0-3.2-.13l-8.93 5.12c-.82.46-.71 1.28.22 1.84l8.38 4.82a3.6 3.6 0 0 0 3.2.13zm-15.14 8.68l8.93-5.11c.82-.46.71-1.28-.22-1.84l-8.38-4.82c-.95-.54-2.38-.59-3.2-.13l-8.93 5.12c-.82.47-.71 1.28.22 1.84l8.38 4.82c.95.54 2.38.59 3.2.13zm-15.14 8.69l8.93-5.12c.82-.46.71-1.28-.23-1.84l-8.38-4.82a3.6 3.6 0 0 0-3.2-.13l-8.93 5.12c-.82.46-.71 1.28.22 1.84l8.38 4.82c.96.54 2.38.59 3.2.13z"/><use href="#e"/><path d="M289.15 430.4l8.93-5.12c.82-.46.71-1.28-.22-1.84l-8.38-4.82a3.6 3.6 0 0 0-3.2-.13l-8.93 5.12c-.82.46-.71 1.28.23 1.84l8.38 4.82a3.6 3.6 0 0 0 3.2.13zm132.34-84.86l9.98-5.73c.52-.3.47-.84-.15-1.19l-2.75-1.58c-.62-.35-1.55-.39-2.08-.09l-9.98 5.73c-.52.3-.47.84.15 1.19l2.75 1.58c.62.35 1.55.39 2.08.09z"/><use href="#f"/><path d="M443.37 341.4l9.97-5.73c.53-.3.47-.84-.15-1.19l-2.75-1.58c-.62-.35-1.55-.39-2.08-.09l-9.97 5.73c-.52.3-.47.84.15 1.19l2.75 1.58c.62.35 1.55.39 2.08.09zm-29.65 17.01l9.97-5.73c.52-.3.47-.84-.15-1.19l-2.75-1.58c-.62-.35-1.55-.39-2.08-.09l-9.98 5.73c-.52.3-.47.84.15 1.19l2.75 1.58c.62.35 1.55.39 2.08.09zm-17.63 10.65l11.62-6.68c.92-.52.81-1.45-.26-2.06l-7.97-4.57c-1.07-.61-2.68-.67-3.59-.15l-11.62 6.68c-.92.52-.8 1.45.26 2.06l7.97 4.58c1.07.61 2.68.67 3.59.15zm-70.41 40.4l62.02-35.6c1.98-1.13 1.72-3.12-.56-4.43l-3.56-2.05c-2.28-1.3-5.75-1.45-7.71-.32l-62.02 35.6c-1.98 1.13-1.72 3.13.56 4.43l3.56 2.05c2.28 1.3 5.75 1.45 7.71.32zm51.87-47.24l8.93-5.12c.82-.46.71-1.28-.22-1.84l-8.38-4.82c-.95-.54-2.38-.59-3.2-.13l-8.93 5.12c-.82.46-.71 1.28.22 1.84l8.38 4.82c.95.54 2.38.59 3.2.13zm-14.81 8.48l8.93-5.12c.82-.46.71-1.28-.22-1.84l-8.38-4.82a3.6 3.6 0 0 0-3.2-.13l-8.93 5.12c-.82.46-.71 1.28.22 1.84l8.38 4.82a3.6 3.6 0 0 0 3.2.13zm-14.81 8.5l8.93-5.12c.82-.46.71-1.28-.22-1.84l-8.38-4.82a3.6 3.6 0 0 0-3.2-.13l-8.93 5.12c-.82.46-.71 1.28.22 1.84l8.38 4.82a3.6 3.6 0 0 0 3.2.13zm-14.8 8.49l8.93-5.11c.82-.47.71-1.28-.23-1.84l-8.38-4.82a3.6 3.6 0 0 0-3.2-.13l-8.93 5.12c-.82.47-.71 1.28.23 1.84l8.38 4.82a3.6 3.6 0 0 0 3.2.13z"/><use href="#g"/><path d="M303.53 404.68l8.93-5.11c.82-.47.71-1.28-.22-1.84l-8.38-4.82a3.6 3.6 0 0 0-3.2-.13l-8.93 5.11c-.82.47-.71 1.28.22 1.84l8.38 4.82a3.6 3.6 0 0 0 3.2.13zm-14.81 8.5l8.93-5.11c.82-.46.71-1.28-.22-1.84l-8.38-4.82c-.95-.54-2.38-.59-3.2-.13l-8.93 5.12c-.82.46-.71 1.28.22 1.84l8.38 4.82c.95.54 2.38.59 3.2.13zm-14.8 8.49l8.93-5.11c.82-.46.71-1.28-.22-1.84l-8.38-4.82a3.6 3.6 0 0 0-3.2-.13l-8.93 5.12c-.82.46-.71 1.28.22 1.84l8.38 4.82a3.6 3.6 0 0 0 3.2.13zm-14.81 8.48l8.93-5.12c.82-.46.71-1.28-.22-1.84l-8.38-4.82a3.6 3.6 0 0 0-3.2-.13l-8.93 5.12c-.82.46-.71 1.28.22 1.84l8.39 4.82a3.6 3.6 0 0 0 3.2.13zm-30.84 17.7l24.14-13.86c1.27-.73 1.12-2.01-.36-2.84l-6.49-3.72a5.6 5.6 0 0 0-4.98-.2l-24.14 13.86c-1.27.73-1.12 2.01.36 2.85l6.49 3.72c1.48.84 3.71.93 4.98.21zm164.86-110.89l8.93-5.12c.82-.46.71-1.28-.23-1.84l-8.38-4.82c-.96-.54-2.38-.59-3.2-.13l-8.93 5.12c-.82.46-.71 1.28.23 1.84l8.38 4.82a3.6 3.6 0 0 0 3.2.13zm14.81-8.5l15.5-8.89c1.05-.59.92-1.64-.3-2.34l-7.45-4.28a4.6 4.6 0 0 0-4.08-.17l-15.5 8.89c-1.05.59-.92 1.64.3 2.34l7.45 4.28a4.6 4.6 0 0 0 4.08.17zm.28 16.13l28.95-16.61c1.31-.74 1.14-2.07-.37-2.92l-6.34-3.65c-1.52-.87-3.8-.97-5.11-.2l-28.95 16.61c-1.31.74-1.14 2.06.37 2.92l6.34 3.65c1.52.88 3.8.97 5.11.2zm-220.11 82.87l21.8 12.5a5.4 5.4 0 0 0 4.77 0l7.11-4.07c1.31-.76 1.33-1.99 0-2.73l-9.94-5.71c-1.33-.76-1.33-2.01 0-2.77l10.57-6.06c1.1-.63 1.09-1.66 0-2.27l-7.9-4.52a4.4 4.4 0 0 0-3.95 0l-22.51 12.91c-1.31.76-1.33 1.99 0 2.75l.04-.02zm168.34-101.81l8.93-5.12c.82-.47.71-1.28-.22-1.84l-8.38-4.82a3.6 3.6 0 0 0-3.2-.13l-8.93 5.11c-.82.47-.71 1.28.22 1.84l8.38 4.82a3.6 3.6 0 0 0 3.2.13zm-15.36 8.81l8.93-5.11c.82-.47.71-1.28-.22-1.84l-8.38-4.82a3.6 3.6 0 0 0-3.2-.13l-8.93 5.12c-.82.46-.71 1.28.22 1.84l8.39 4.82a3.6 3.6 0 0 0 3.2.13zm-15.37 8.83l8.93-5.12c.82-.46.71-1.28-.22-1.84l-8.38-4.82c-.95-.54-2.38-.59-3.2-.13l-8.93 5.12c-.82.46-.71 1.28.22 1.84l8.38 4.82a3.6 3.6 0 0 0 3.2.13zm-15.36 8.81l8.93-5.11c.82-.47.71-1.28-.22-1.84l-8.38-4.82a3.6 3.6 0 0 0-3.2-.13l-8.93 5.11c-.82.47-.71 1.28.22 1.84l8.38 4.82a3.6 3.6 0 0 0 3.2.13zm-15.37 8.81l8.93-5.12c.82-.47.71-1.28-.22-1.84l-8.38-4.82a3.6 3.6 0 0 0-3.2-.13l-8.93 5.12c-.82.47-.71 1.28.22 1.84l8.38 4.82a3.6 3.6 0 0 0 3.2.13zm-15.36 8.82l8.93-5.12c.82-.46.71-1.28-.22-1.84l-8.38-4.82c-.95-.54-2.38-.59-3.2-.13l-8.93 5.11c-.82.46-.71 1.28.22 1.84l8.38 4.82c.95.54 2.38.59 3.2.13zm-15.37 8.8l8.93-5.12c.82-.46.71-1.28-.23-1.84l-8.38-4.82a3.6 3.6 0 0 0-3.2-.13l-8.93 5.12c-.82.46-.71 1.28.22 1.84l8.38 4.82a3.6 3.6 0 0 0 3.2.13z"/><use href="#h"/><path d="M233.53 396.16l8.93-5.12c.82-.46.71-1.28-.22-1.84l-8.39-4.82a3.6 3.6 0 0 0-3.2-.13l-8.93 5.12c-.82.46-.71 1.28.22 1.84l8.38 4.82c.95.54 2.38.59 3.2.13zm-15.37 8.81l8.93-5.12c.82-.47.71-1.28-.22-1.84l-8.38-4.82c-.95-.54-2.38-.59-3.2-.13l-8.93 5.12c-.82.46-.71 1.28.22 1.84l8.38 4.82c.95.54 2.38.59 3.2.13zm-32.11 18.44l24.82-14.25c1.29-.74 1.12-2.03-.36-2.88l-6.42-3.68c-1.5-.86-3.74-.95-5.03-.2l-24.82 14.25c-1.29.74-1.12 2.03.35 2.88l6.42 3.68c1.5.86 3.74.95 5.03.2z"/></g><path d="M383.31 463.12l81.73-46.89-59.27-34-81.73 46.89 59.27 34zm81.07-46.89l-81.09 46.52-58.63-33.65 81.09-46.52 58.63 33.65z" stroke="#bed3f4" stroke-width=".3" class="M"/><path d="M100.84 414.98l271.31-155.68c3.63-2.08 6.96-6.44 8.46-11.07l.39-1.21 2-208.57c.04-2.75-.86-4.84-2.56-5.84s-3.97-.78-6.38.61L98.95 191.09c-2.41 1.39-4.7 3.77-6.38 6.73-1.7 2.94-2.6 6.08-2.56 8.82l2 206.25.39.76c1.5 2.9 4.83 3.44 8.46 1.36l-.02-.02zm271.24-165.85L100.93 404.72l-1.97-203.38L374.04 43.46l-1.98 205.67h.02z" fill="url(#O)"/><path d="M96.85 208.28l2.08 202.6c.79 1.51 2.49 1.79 4.38.71l271.31-155.68c.56-.32 1.1-.72 1.61-1.25 1.22-1.17 2.23-2.79 2.79-4.48l2.06-204.96c1.12-4.26-.67-7.38-3.35-5.84L100.22 198.61s-.11.06-.17.11c-2.58 1.64-4.27 6.64-3.2 9.58v-.02z" fill="url(#P)"/><path d="M103.31 416.7l271.31-155.68c3.63-2.08 6.96-6.44 8.46-11.07l.39-1.21 2-208.57c.04-2.75-.86-4.84-2.56-5.84s-3.97-.78-6.38.61L101.42 192.8c-2.41 1.39-4.7 3.78-6.38 6.73-1.7 2.94-2.6 6.08-2.56 8.82l2 206.25.39.76c1.5 2.9 4.83 3.44 8.46 1.36l-.02-.02zm271.22-165.85L103.38 406.43l-1.97-203.38L376.51 45.18l-1.98 205.67z" fill="url(#Q)"/><path style="mix-blend-mode:screen" opacity=".54" d="M374.53 250.85l1.98-205.67-275.1 157.87c91.52 61.77 239.63 67.01 273.11 47.8z" fill="url(#R)"/><g fill="#fff"><path d="M130.38 216.86v186.31c0 7.95 5.64 11.15 12.62 7.16l276.26-158.64c6.96-4 12.62-13.68 12.62-21.63V43.74c0-7.95-5.64-11.15-12.62-7.16L143 195.22c-6.96 4-12.62 13.68-12.62 21.63v.02z"/><path d="M429.75 35.89c-2.18-1.24-5.25-1.07-8.69.9L144.8 195.43c-3.44 1.97-6.56 5.36-8.83 9.25s-3.67 8.25-3.67 12.18v186.32c0 3.92 1.39 6.61 3.57 7.85 2.12 1.2 5.05 1.08 8.37-.72l.32-.18 276.26-158.64h0c3.44-1.97 6.56-5.36 8.83-9.25s3.66-8.25 3.66-12.18V43.74c0-3.92-1.39-6.61-3.57-7.85z" fill-opacity=".4" stroke-width=".47" class="I"/></g><g class="H"><path d="M205.73 350.25v3.2c0 .29-.07.54-.2.77s-.31.4-.55.54l-.19.1a1.2 1.2 0 0 1-.21.09c-.06.02-.12.04-.17.04l.07-.53.25-.14c.25-.14.37-.34.37-.58v-3.12l.63-.36zm1.97-.04c.2-.11.37-.18.5-.2s.24.02.31.13.11.28.11.53v1.94l-.48.28-.09-.57-.05-.06v-1.25c0-.15-.03-.24-.09-.27s-.18 0-.35.1l-.49.3-.58.38-.06-.45.4-.3.45-.31.41-.25zm.66.79v.44l-1.14.65c-.1.06-.17.13-.22.22s-.06.18-.06.28v.16c0 .12.03.19.08.22s.14.01.25-.06c.09-.05.19-.13.3-.23a3.1 3.1 0 0 0 .33-.37c.11-.15.21-.3.3-.46v.37l-.15.29c-.06.11-.14.24-.24.37l-.32.38c-.12.13-.25.22-.39.3s-.28.13-.4.14-.21-.03-.28-.11-.1-.21-.1-.38v-.3c0-.23.06-.44.19-.63.13-.2.31-.37.53-.5l1.31-.75zm2.56-2.64c.46-.26.69-.13.69.39v2.14l-.61.35v-1.93c0-.15-.02-.25-.07-.28s-.13-.01-.24.05c-.12.07-.25.18-.38.32l-.47.55-.03-.41a5.5 5.5 0 0 1 .56-.72c.19-.2.37-.36.56-.46zm-1.13.72l.06.53.05.05v2.22l-.61.35v-2.86l.5-.29zm33.89-20.64l.52-.29.53-.29.48-.24-.03.55-1.28.74c-.1.06-.18.13-.23.21s-.08.18-.08.3v3.1l-.63.36v-3.25a1.2 1.2 0 0 1 .2-.68c.14-.21.3-.38.52-.51zm-.63 2.09l1.94-1.11v.54l-1.94 1.11v-.54zm3.68-2.73c.4-.23.69-.31.86-.25s.26.25.27.56c0 .26-.05.49-.16.69-.11.19-.29.36-.54.51l-1.41.81v-.44l1.25-.72c.11-.07.19-.14.22-.23s.05-.18.05-.29c0-.16-.04-.24-.12-.26s-.2.02-.38.13c-.16.09-.28.19-.37.29s-.15.23-.19.38-.05.35-.05.6c0 .26.02.46.06.57s.12.18.22.17.23-.06.4-.16l.43-.26.47-.32.06.41a3.3 3.3 0 0 1-.31.29l-.37.27-.35.23c-.3.17-.55.26-.73.27s-.31-.09-.4-.26-.12-.44-.12-.79a3.3 3.3 0 0 1 .12-.96c.08-.27.22-.5.39-.7a2.9 2.9 0 0 1 .7-.54zm3.14-1.81c.32-.18.55-.2.69-.05s.22.49.22 1.02c0 .23-.02.45-.06.66a2.2 2.2 0 0 1-.18.59 2.1 2.1 0 0 1-.35.51c-.15.16-.34.3-.58.44l-.29.15-.33.15-.32.12c-.1.03-.19.05-.27.06l.49-.71.23-.06.25-.11.23-.13c.14-.08.24-.17.32-.27s.14-.24.18-.4a2.9 2.9 0 0 0 .06-.62c0-.23-.02-.41-.05-.52s-.08-.19-.15-.2-.18.02-.32.1a1.5 1.5 0 0 0-.34.29l-.35.47-.04-.36c.09-.17.19-.32.29-.46s.21-.27.33-.38a1.8 1.8 0 0 1 .35-.27zm-.86-.65v.99l-.02.37c-.01.12-.02.24-.05.36l.06.05v2.2l-.61.32v-3.93l.61-.35zm36.55-20.94c.16-.09.24-.04.24.14l.14 3.66-.6.34-.12-3.37-.1.06-.65 3.07c-.03.18-.12.31-.26.39l-.44.25c-.14.08-.23.06-.27-.09l-.65-2.32-.1.06-.11 3.5-.6.35.14-3.82c.01-.19.09-.33.24-.42l.63-.36c.13-.08.22-.05.25.09l.54 1.89.06.25.06.25.07-.04.06-.31.06-.32.54-2.5c.03-.18.12-.31.26-.39l.63-.36zm2.3-.23c.2-.11.37-.18.5-.2s.24.02.31.13.11.28.11.53v1.94l-.48.28-.09-.57-.05-.06v-1.25c0-.15-.03-.24-.09-.27s-.18 0-.35.09l-.48.3-.58.38-.06-.45.4-.3.45-.31.41-.25zm.66.79v.44l-1.14.65c-.1.06-.17.13-.22.22s-.07.18-.07.28v.16c0 .12.03.19.08.22s.14.01.25-.06c.09-.05.19-.13.3-.23a3.2 3.2 0 0 0 .33-.37c.11-.14.21-.3.3-.46v.37l-.15.29a2.3 2.3 0 0 1-.24.37l-.32.38c-.12.13-.25.22-.39.3s-.28.13-.4.14-.21-.03-.28-.11-.1-.21-.1-.38v-.3c0-.23.06-.44.19-.63.13-.2.31-.37.54-.5l1.31-.75zm1.4-1.91l.08.51.06.05v2.22l-.61.35v-2.86l.47-.27zm1.21-.77l-.06.69-.18.1c-.13.07-.26.18-.4.31l-.5.52-.04-.39a5.1 5.1 0 0 1 .53-.7 2.3 2.3 0 0 1 .53-.45l.12-.07zm32.35-19.65c.05-.03.1-.04.14-.03s.07.04.09.09l1.06 3.22-.65.37-.8-2.64-.04-.16-.04-.16-.14.08-.04.2-.05.21-.79 3.55-.65.37 1.06-4.43c.01-.07.04-.13.08-.19a.4.4 0 0 1 .15-.14l.62-.35zm.59 1.96v.57l-1.79 1.03v-.57l1.79-1.03zm2.6-2.71c.31-.18.53-.17.66.01s.2.52.2 1.01c0 .38-.04.69-.11.95-.07.25-.17.46-.31.64s-.31.31-.53.44c-.17.1-.33.16-.5.2-.16.03-.3.03-.44-.02l.04-.37.35-.09c.1-.03.22-.08.34-.15s.22-.15.29-.24a.9.9 0 0 0 .16-.37c.03-.15.05-.36.05-.62s-.01-.44-.04-.56-.08-.19-.15-.2c-.07-.02-.16 0-.27.07-.12.07-.24.17-.34.29a5.8 5.8 0 0 0-.37.48l-.07-.33c.08-.15.17-.3.28-.44s.23-.28.36-.4.26-.22.38-.29zm-1.05.67l.06.52.06.05v1.85l-.02.08.02.33v.35.75l-.61.35v-4l.5-.28zm2.97-1.7l.08.51.05.05v2.22l-.61.35v-2.86l.48-.27zm1.21-.77l-.06.69-.18.1c-.13.08-.26.18-.4.31l-.5.52-.04-.39a4.6 4.6 0 0 1 .54-.7c.19-.19.36-.35.52-.45l.12-.07zm34.56-20.93c.16-.09.24-.04.24.14l.14 3.66-.6.34-.12-3.37-.1.06-.65 3.07c-.03.18-.12.31-.26.39l-.44.25c-.14.08-.23.06-.27-.09l-.65-2.32-.1.06-.11 3.5-.6.35.14-3.82c.01-.19.09-.33.24-.42l.63-.36c.13-.08.22-.05.25.09l.54 1.89.06.25.06.25.08-.04.06-.31.06-.32.53-2.5c.03-.18.12-.31.26-.39l.63-.36zm2.3-.23c.2-.11.37-.18.5-.2s.24.02.31.13.11.28.11.53v1.94l-.49.28-.09-.57-.05-.06v-1.25c0-.15-.03-.24-.09-.27s-.18 0-.35.09l-.49.3-.58.38-.06-.45.4-.3.45-.31.41-.25zm.66.79v.44l-1.14.65c-.1.06-.17.13-.22.22s-.07.18-.07.28v.16c0 .12.03.19.08.22s.14.01.25-.06c.09-.05.19-.13.3-.23a3.1 3.1 0 0 0 .33-.37c.11-.14.21-.3.3-.46v.37c-.03.08-.08.18-.15.29l-.24.37-.32.38a1.9 1.9 0 0 1-.39.3c-.15.08-.28.13-.4.14s-.21-.03-.28-.11-.1-.21-.1-.38v-.3c0-.23.06-.44.19-.63.13-.2.31-.37.54-.5l1.31-.75zm3.28-2.99l-.93 3.48-.17.5a3 3 0 0 1-.25.51 2.6 2.6 0 0 1-.36.46c-.14.14-.3.26-.48.34l-.05-.39a2.6 2.6 0 0 0 .47-.54 2.3 2.3 0 0 0 .27-.58l.14-.45.09-.34.07-.33.54-2.28.66-.38zm-2 1.15l.55 1.65.04.18.04.18.13-.07-.19.6-.16.09c-.05.03-.09.03-.13.03s-.06-.04-.07-.09l-.85-2.19.65-.37zm34.17-20.77v3.2c0 .29-.07.54-.2.76a1.5 1.5 0 0 1-.55.54l-.19.1c-.07.04-.14.07-.21.09s-.12.04-.17.04l.07-.53.25-.14c.25-.14.37-.34.37-.58v-3.12l.63-.36zm1.32.4v1.93c0 .15.02.23.07.27s.14.01.26-.05.24-.16.35-.29l.43-.51.06.38c-.19.28-.37.52-.54.71a2.3 2.3 0 0 1-.55.45c-.46.27-.69.14-.69-.39v-2.15l.61-.35zm1.66-.95v2.86l-.49.28-.06-.52-.06-.05v-2.22l.61-.35zm2.32-1.4c.46-.26.69-.13.69.39v2.14l-.61.35v-1.93c0-.16-.02-.25-.07-.28s-.13-.02-.24.05c-.12.07-.25.18-.38.32l-.47.55-.03-.41a5.6 5.6 0 0 1 .56-.72 2.5 2.5 0 0 1 .56-.46zm-1.13.72l.06.52.05.05v2.22l-.61.35v-2.86l.5-.29z"/></g><path d="M190.28 233.68c.07-.04.13-.06.17-.05s.07.03.09.08.01.12-.01.2l-1.09 4.26-.5.29.96-3.76.06-.2.06-.19-1.71.98-.02-.48 1.99-1.15zm1.95-1.2c.31-.18.55-.24.73-.2s.31.19.38.45a4.2 4.2 0 0 1 .12 1.13c0 .49-.04.91-.12 1.27s-.2.65-.38.9-.42.45-.73.63-.55.24-.73.21c-.18-.04-.31-.19-.38-.46a4.2 4.2 0 0 1-.12-1.13 5.9 5.9 0 0 1 .12-1.27c.08-.35.21-.65.38-.89.18-.25.42-.46.73-.63zm0 .5c-.14.08-.25.17-.35.29s-.16.24-.22.4-.09.34-.12.56-.04.47-.04.77.01.53.04.72c.03.19.07.33.12.42s.13.14.22.15c.09 0 .21-.04.35-.12s.26-.18.35-.28.17-.25.23-.41.1-.34.12-.56.04-.47.04-.77-.01-.54-.04-.72-.06-.33-.12-.42-.13-.14-.23-.14a.7.7 0 0 0-.35.12z" class="D"/><use href="#i" transform="matrix(.8672 -.498 0 1 195.879 232.121)" class="E F G"/><path d="M189.79 251.85l.31-.17c.14-.07.28-.12.42-.16l-.04.43-.21.1-.21.11-.27.15a2.2 2.2 0 0 0-.42.31c-.11.11-.21.24-.27.4s-.12.36-.15.6c-.03.24-.04.55-.04.92l.02.71c.01.18.04.32.09.4s.12.12.21.12.22-.06.38-.15c.19-.11.33-.22.42-.34s.15-.26.18-.41.04-.32.04-.52c0-.21-.02-.37-.05-.47s-.1-.16-.19-.17c-.09-.01-.21.03-.38.13a1.7 1.7 0 0 0-.3.22c-.09.08-.19.19-.28.32a6.7 6.7 0 0 0-.33.51l-.02-.26a4.9 4.9 0 0 1 .32-.61c.1-.16.21-.3.33-.41s.26-.22.43-.31c.25-.14.44-.21.58-.2s.24.09.3.25.09.4.09.72c0 .21-.01.41-.04.59s-.08.36-.16.53-.2.33-.34.48c-.14.14-.34.29-.58.43s-.45.23-.61.25-.28-.01-.36-.12-.14-.27-.18-.5a7 7 0 0 1-.05-.93c0-.47.03-.87.09-1.19s.14-.59.25-.8a1.9 1.9 0 0 1 .43-.55c.17-.15.37-.3.61-.43zm2.75-1.58c.31-.18.55-.24.73-.2.18.04.31.19.38.45s.12.64.12 1.13a6 6 0 0 1-.12 1.27c-.08.35-.21.65-.38.9a2.3 2.3 0 0 1-.73.63c-.3.17-.54.24-.73.21-.18-.04-.31-.19-.38-.45s-.12-.64-.12-1.13a6 6 0 0 1 .12-1.27c.08-.35.21-.65.38-.89.18-.25.42-.46.73-.63zm0 .5a1.3 1.3 0 0 0-.35.29c-.09.11-.17.24-.22.39s-.09.34-.12.56a7.3 7.3 0 0 0-.04.77 6.3 6.3 0 0 0 .04.72c.03.19.07.33.12.42s.13.14.22.15c.09 0 .21-.04.35-.12s.26-.18.35-.28.17-.25.23-.4.1-.34.12-.56.03-.47.03-.77-.01-.54-.03-.72-.06-.33-.12-.42-.13-.14-.23-.14-.21.03-.35.12z" class="D"/><use href="#i" transform="matrix(.8672 -.498 0 1 195.848 249.953)" class="E F G"/><path d="M190.24 269.37l-.02.49-1.46.84-.05 1.07.4-.19a2.7 2.7 0 0 1 .58-.22c.16-.04.29-.03.38.01s.17.13.21.25.07.29.07.5a2.8 2.8 0 0 1-.05.5c-.03.17-.09.34-.17.5s-.2.33-.35.49c-.15.16-.34.3-.59.44a5.7 5.7 0 0 1-.49.25l-.57.22.06-.5.47-.2.41-.21a1.9 1.9 0 0 0 .48-.36c.11-.12.18-.25.22-.4s.06-.29.07-.46c0-.18-.02-.3-.06-.38a.2.2 0 0 0-.19-.12c-.09 0-.2.03-.35.09l-.53.25-.27.13c-.05.02-.1.02-.14 0s-.05-.07-.05-.14l.08-1.78 1.89-1.08zm1.9-1.17c.31-.18.55-.24.73-.2s.31.19.38.45.12.64.12 1.13a6 6 0 0 1-.12 1.27 2.4 2.4 0 0 1-.38.9 2.3 2.3 0 0 1-.73.63c-.3.17-.55.24-.73.21s-.31-.19-.38-.45-.12-.64-.12-1.13a6 6 0 0 1 .12-1.27c.08-.35.21-.65.38-.89a2.3 2.3 0 0 1 .73-.63zm0 .5c-.14.08-.25.18-.35.29-.09.11-.16.24-.22.39s-.09.34-.12.56-.04.47-.04.76.01.53.04.73.07.33.12.42.13.14.22.15c.09 0 .21-.04.35-.12s.26-.18.35-.28.17-.25.23-.4.1-.34.12-.56a7.4 7.4 0 0 0 .04-.76c0-.3-.01-.54-.04-.73s-.06-.33-.12-.42-.13-.14-.23-.14-.21.03-.35.11z" class="D"/><use href="#i" transform="matrix(.8672 -.498 0 1 195.879 267.785)" class="E F G"/><path d="M189.57 287.7l-.95 2.91c-.03.09-.03.15 0 .18s.07.02.13-.01l2.05-1.18v.4l-.46.32-1.9 1.09c-.09.05-.18.07-.24.05s-.11-.08-.13-.17-.01-.19.03-.31l.98-2.99.49-.29zm.78.32v3.25l-.47.27v-2.58l.09-.71.39-.22zm2.19-2.1c.31-.18.55-.24.73-.2s.31.19.38.45.12.64.12 1.13a6 6 0 0 1-.12 1.27c-.08.35-.21.65-.38.9a2.3 2.3 0 0 1-.73.63c-.3.17-.55.24-.73.21s-.31-.19-.38-.45-.12-.64-.12-1.13a6 6 0 0 1 .12-1.27c.08-.35.21-.65.38-.89s.42-.46.73-.63zm-.01.5c-.14.08-.25.18-.35.29-.09.11-.16.24-.22.39s-.09.34-.12.56a7.3 7.3 0 0 0-.03.76c0 .29.01.53.03.73s.07.33.12.42.13.14.22.15c.09 0 .21-.04.35-.12s.26-.18.35-.28.17-.25.23-.4.1-.34.12-.56.03-.47.03-.77-.01-.54-.03-.72-.06-.33-.12-.42-.13-.14-.23-.14-.21.03-.35.12z" class="D"/><use href="#i" transform="matrix(.8672 -.498 0 1 196.504 285.242)" class="E F G"/><path d="M189.41 305.43a2.3 2.3 0 0 1 .63-.27c.16-.04.27-.01.35.09s.11.26.11.49c0 .18-.02.34-.05.5a1.5 1.5 0 0 1-.16.44c-.07.13-.17.26-.31.37v.02c.23-.09.39-.07.47.05s.13.32.14.6a2.2 2.2 0 0 1-.11.74c-.07.22-.19.41-.35.59a2.7 2.7 0 0 1-.67.51l-.57.29-.56.25.03-.48.33-.16.31-.16.32-.18c.18-.1.33-.21.43-.32s.19-.23.24-.37.07-.31.07-.49c0-.14-.02-.26-.05-.34s-.1-.13-.2-.13c-.09-.01-.23.04-.41.14l-.65.38v-.44l.65-.37c.13-.08.24-.15.31-.24a1 1 0 0 0 .18-.26.9.9 0 0 0 .08-.26c.01-.09.02-.18.02-.27 0-.16-.03-.27-.07-.33s-.11-.07-.21-.04-.23.09-.4.19l-.49.3-.41.26-.03-.42.51-.37.5-.31zm3.03-1.74c.31-.18.55-.24.73-.2s.31.19.38.45a4.2 4.2 0 0 1 .12 1.13c0 .49-.04.92-.12 1.27s-.21.65-.38.9c-.18.24-.42.45-.73.63s-.54.24-.73.21c-.18-.04-.31-.19-.38-.46a4.2 4.2 0 0 1-.12-1.13 5.9 5.9 0 0 1 .12-1.27c.08-.35.2-.65.38-.89.18-.25.42-.46.73-.63zm0 .5c-.14.08-.25.18-.35.29-.09.11-.17.24-.22.39s-.09.34-.12.56-.04.47-.04.77.01.53.04.73c.03.19.07.33.12.42s.13.14.22.15c.09 0 .21-.04.35-.12s.26-.18.35-.29.17-.25.23-.4.1-.34.12-.56a7.1 7.1 0 0 0 .04-.77c0-.29-.01-.54-.04-.72s-.06-.33-.12-.42-.13-.14-.23-.14-.21.03-.35.12z" class="D"/><use href="#i" transform="matrix(.8672 -.498 0 1 195.879 303.449)" class="E F G"/><path d="M189.47 323.36c.23-.13.42-.22.58-.26.16-.05.29-.04.38.04s.13.23.13.48c0 .16-.02.33-.06.5s-.1.35-.19.56l-.36.73-.98 1.81.28-.18.28-.17 1.16-.67v.55l-2.33 1.34v-.35c0-.05.01-.09.02-.14s.03-.1.06-.15l.98-1.83a8.2 8.2 0 0 0 .48-1c.11-.27.16-.5.15-.68 0-.12-.03-.19-.08-.22-.05-.03-.12-.03-.21 0s-.2.09-.33.16l-.31.19-.31.21-.38.27-.03-.43.42-.33.34-.24.32-.19zm3.02-1.74c.31-.18.55-.24.73-.2s.31.19.38.45.12.64.12 1.13a6 6 0 0 1-.12 1.27 2.4 2.4 0 0 1-.38.9c-.18.24-.42.45-.73.63s-.55.24-.73.21c-.18-.04-.31-.19-.38-.46s-.12-.64-.12-1.13a6 6 0 0 1 .12-1.27 2.3 2.3 0 0 1 1.11-1.52zm0 .5a1.3 1.3 0 0 0-.35.29c-.09.11-.16.24-.22.4s-.09.34-.12.56-.03.47-.03.76.01.53.03.72.07.33.12.42.13.14.22.15c.09 0 .21-.04.35-.12s.26-.18.35-.28.17-.25.23-.4a2.4 2.4 0 0 0 .12-.56c.02-.22.03-.48.03-.77a6.2 6.2 0 0 0-.03-.73c-.02-.19-.06-.33-.12-.42s-.13-.14-.23-.14-.21.03-.35.12z" class="D"/><use href="#i" transform="matrix(.8672 -.498 0 1 195.848 321.281)" class="E F G"/><path d="M190.43 340.59v4.02l-.5.29v-3.12-.18l.02-.2-.85.78-.06-.37.89-.92.5-.29zm2.08-1.27c.31-.18.55-.24.73-.2s.31.19.38.45.12.64.12 1.13a6 6 0 0 1-.12 1.27c-.08.35-.21.65-.38.9s-.42.45-.73.63-.54.24-.73.21c-.18-.04-.31-.19-.38-.45s-.12-.64-.12-1.13a6 6 0 0 1 .12-1.27c.08-.35.21-.65.38-.89.18-.25.42-.46.73-.63zm0 .5c-.14.08-.25.18-.35.29s-.17.24-.22.4-.09.34-.12.56-.03.47-.03.77.01.53.03.72c.03.19.07.33.12.42s.13.14.22.15.21-.04.35-.12.26-.18.35-.28.17-.25.23-.4.1-.34.12-.56c.02-.22.03-.48.03-.77s-.01-.54-.03-.73-.06-.33-.12-.42-.13-.14-.23-.14-.21.03-.35.12z" class="D"/><g class="E"><use href="#i" transform="matrix(.8672 -.498 0 1 195.82 339.008)" class="F G"/><g stroke-width=".73"><path d="M195.88 221.2v131.01l223.44-128.3" stroke-opacity=".8"/></g></g><path d="M195.88 351.98s14.85-30.01 35.03-46.68c14.94-12.34 30.61-44.4 47.76-49.02 25.46-6.86 34.85 3.91 55.12-12 19.57-15.36 30.3-37.05 45.87-49.99 8.52-7.08 39.66-34.42 39.66-34.42" stroke="#8cbaf1" stroke-width=".73" stroke-linecap="round"/><circle cx="1.21" cy="1.21" r="1.21" transform="matrix(.8672 -.498 0 1 207.238 330.414)" class="J"/><g fill="#8cbaf1"><circle cx="1.21" cy="1.21" r="1.21" transform="matrix(.8672 -.498 0 1 245.961 286.402)"/><circle cx="1.21" cy="1.21" r="1.21" transform="matrix(.8672 -.498 0 1 404.168 171.473)"/><circle cx="1.21" cy="1.21" r="1.21" transform="matrix(.8672 -.498 0 1 364.613 208.258)"/><circle cx="1.21" cy="1.21" r="1.21" transform="matrix(.8672 -.498 0 1 285.543 253.91)"/><circle cx="1.21" cy="1.21" r="1.21" transform="matrix(.8672 -.498 0 1 324.852 248.805)"/></g><path transform="matrix(0 1 -.8672 .498 208.078 213.961)" stroke-width=".49" stroke-dasharray="0.97 0.97" d="M0-.24h131.01" class="I"/><g filter="url(#A)" class="K"><path d="M250.16 255.3a1.5 1.5 0 0 1 2.53 1.46v18.44c0 1.61-1.13 3.56-2.53 4.36l-31.31 17.98-4.03 7.9v-5.58l-5.89 3.38a1.5 1.5 0 0 1-2.53-1.46v-18.44c0-1.61 1.13-3.56 2.53-4.36l41.24-23.68z"/></g><g class="H"><path d="M211.72 283.15v2.65c0 .24-.05.46-.15.64s-.24.32-.43.43c-.04.02-.09.04-.14.07s-.11.05-.16.07-.09.03-.12.03l.05-.36.21-.12c.21-.12.32-.3.32-.53v-2.64l.42-.24zm1.64-.02c.16-.09.29-.14.39-.15s.19.02.24.1.08.22.08.42v1.65l-.32.18-.06-.48-.03-.04v-1.08c0-.14-.03-.22-.08-.25s-.16 0-.32.09l-.4.25-.48.31-.04-.31.31-.23.36-.24.33-.21zm.54.66v.33l-.97.56c-.09.06-.16.13-.2.2-.04.07-.06.16-.06.25v.14c0 .12.02.19.07.22s.13 0 .24-.06c.08-.05.16-.11.26-.2s.2-.2.29-.32.19-.27.26-.42v.31c-.03.06-.07.14-.13.24s-.12.19-.21.3-.17.2-.26.3-.2.17-.32.24c-.12.07-.23.11-.33.12-.09 0-.17-.03-.22-.1s-.08-.18-.08-.32v-.26c0-.18.05-.36.15-.52a1.2 1.2 0 0 1 .43-.4l1.06-.61zm2.08-2.16c.37-.22.56-.11.56.33v1.78l-.41.24v-1.64c0-.15-.02-.24-.06-.27s-.11-.02-.21.04c-.12.07-.24.17-.36.31l-.43.52-.02-.3a4.7 4.7 0 0 1 .47-.61c.16-.17.31-.3.47-.38zm-.95.6l.04.44.03.05v1.84l-.4.23v-2.37l.34-.19zm3.89-3.27c.19-.11.35-.18.48-.22s.24-.03.31.03.11.2.11.4c0 .14-.02.27-.05.41s-.09.29-.16.47l-.3.61-.82 1.51.23-.15.23-.14.97-.56v.46l-1.94 1.11v-.29c0-.04 0-.08.01-.12a.6.6 0 0 1 .05-.13l.82-1.53c.18-.33.32-.6.4-.83s.13-.41.13-.56c0-.1-.03-.16-.07-.18s-.1-.02-.17 0a1.8 1.8 0 0 0-.28.13l-.26.16-.26.17-.32.23-.03-.35.35-.28.29-.2.27-.16zm2.51-1.45c.25-.15.46-.2.61-.17s.25.16.32.37a3.5 3.5 0 0 1 .1.94c0 .41-.03.76-.1 1.06s-.17.54-.32.75-.35.38-.61.52-.46.2-.61.17-.25-.16-.32-.38-.1-.53-.1-.94a5 5 0 0 1 .1-1.06c.06-.29.17-.54.32-.74s.35-.38.61-.53zm0 .41c-.11.07-.21.15-.29.24s-.14.2-.19.33-.08.29-.1.47-.03.39-.03.64.01.44.03.6c.02.15.06.27.1.35s.11.12.19.12.18-.03.29-.1.22-.15.29-.24.14-.21.19-.34.08-.29.1-.47.03-.39.03-.64-.01-.45-.03-.6-.05-.27-.1-.35-.11-.11-.19-.11-.18.03-.29.1zm2.43-1.8c.19-.11.35-.18.48-.22.14-.04.24-.03.32.03s.11.19.11.4c0 .14-.02.27-.05.42a2.6 2.6 0 0 1-.16.46l-.3.61-.82 1.51.23-.15.24-.14.97-.56v.46l-1.94 1.11v-.29c0-.04 0-.08.01-.12s.03-.08.05-.13l.82-1.53c.18-.33.32-.6.4-.83s.13-.41.13-.56c0-.1-.03-.16-.07-.18s-.1-.02-.17 0-.17.07-.28.14l-.26.15-.26.17-.32.23-.03-.36.35-.28.29-.2.27-.16zm2.64-1.46l-.79 2.42c-.03.08-.03.13 0 .15s.06.01.11-.01l1.71-.98v.33l-.38.27-1.58.91c-.08.05-.15.06-.2.04s-.09-.07-.11-.14-.01-.16.03-.26l.81-2.49.41-.24zm.65.27v2.71l-.4.23v-2.16l.07-.59.32-.19z"/><path d="M211.23 290.07v2.68l-.34.19v-2.68l.34-.19zm1.56-.16c.3-.17.45-.08.45.26v1.42l-.33.19v-1.31c0-.12-.02-.19-.05-.22s-.09-.02-.17.03c-.1.06-.19.14-.29.25l-.35.42-.01-.24c.13-.19.25-.35.38-.48s.25-.24.37-.31zm-.76.48l.03.35.02.04v1.47l-.32.19v-1.89l.27-.15zm2.15-1.79v1.91c0 .09.02.14.05.16s.09 0 .17-.04l.24-.14.04.25c-.04.04-.08.07-.13.11l-.14.1-.11.07c-.14.08-.25.1-.32.05s-.11-.15-.11-.32v-1.97l.33-.19zm.51.26v.28l-1.13.65v-.26l.32-.2.81-.47zm1.03-.63c.25-.15.44-.2.55-.16s.17.16.17.36c0 .17-.03.32-.1.45s-.17.24-.32.32l-.95.54v-.27l.87-.5c.07-.04.12-.1.14-.16s.03-.14.03-.21c0-.12-.03-.18-.09-.2s-.15.02-.29.1c-.11.07-.2.14-.27.21s-.11.17-.14.28-.04.25-.04.43c0 .19.02.33.05.42s.09.12.16.12.17-.04.29-.11l.29-.18.29-.2.03.22c-.05.06-.12.12-.19.18l-.24.17-.22.14c-.19.11-.35.17-.47.17s-.2-.06-.26-.17-.08-.29-.08-.53c0-.25.03-.46.08-.64s.14-.33.25-.45.26-.24.44-.35zm1.38-.75l.04.34.03.04v1.48l-.32.19v-1.89l.25-.14zm.8-.51l-.03.37-.1.06c-.09.05-.19.13-.28.22l-.35.38-.02-.22c.12-.18.24-.34.36-.47s.24-.24.36-.3l.07-.04zm1.81-.99l-.59 2.14c-.01.03-.03.07-.05.1s-.04.05-.07.06l-.29.17c-.03.01-.05.02-.07.02s-.03-.02-.04-.05l-.59-1.46.35-.2.39 1.08c.02.04.03.09.05.14l.04.14.04-.02.05-.2.05-.19.38-1.52.35-.2zm.64-.37v1.89l-.32.18v-1.89l.32-.18zm-.08-.76c.06-.04.1-.02.1.06v.22c0 .07-.03.13-.1.17l-.15.09c-.06.04-.1.02-.1-.06v-.22c0-.07.03-.13.1-.17l.15-.09zm1.29.02c.25-.15.44-.2.55-.16s.17.16.17.36c0 .17-.03.32-.1.45s-.17.24-.32.32l-.95.55v-.27l.86-.5c.07-.04.12-.1.15-.16s.03-.14.03-.2c0-.12-.03-.18-.09-.2s-.15.01-.29.09c-.12.06-.2.14-.27.21s-.11.17-.14.28-.04.25-.04.42a1.3 1.3 0 0 0 .05.42c.03.08.09.12.16.12s.17-.04.29-.11l.29-.18.29-.2.03.22c-.05.06-.12.12-.19.18l-.24.17-.22.14c-.19.11-.35.17-.46.17s-.2-.06-.26-.17-.08-.29-.08-.53c0-.25.03-.46.08-.64s.14-.33.25-.45.26-.24.44-.35zm3.59-2.01l-.47 2.06c-.01.03-.02.07-.04.1s-.05.06-.08.07l-.28.16c-.03.02-.06.02-.08.01s-.04-.03-.04-.06l-.25-1.1-.03-.13-.03-.14-.04.02a1.6 1.6 0 0 1-.03.17l-.03.16-.25 1.39c-.01.04-.02.07-.04.11s-.05.06-.08.08l-.28.16c-.03.02-.06.02-.08.02s-.04-.03-.04-.05l-.47-1.52.34-.19.32 1.18.03.13.02.13.04-.02.03-.16.03-.16.26-1.39c0-.04.02-.07.04-.1s.05-.06.08-.08l.27-.16c.03-.02.06-.02.08-.01s.04.03.04.06l.25 1.1.03.13.03.13.04-.02.03-.16.03-.16.32-1.55.33-.19zm1.89-1.9c.17-.1.31-.16.43-.18s.21 0 .29.06.12.17.16.33.05.36.05.62a4.2 4.2 0 0 1-.05.69c-.03.19-.08.37-.16.51s-.17.27-.29.39a2.2 2.2 0 0 1-.43.32l-.45.25-.39.2.14-.39.31-.16.39-.22c.14-.08.26-.18.34-.29s.14-.25.18-.42.05-.39.05-.66a2.4 2.4 0 0 0-.05-.59c-.03-.13-.09-.21-.18-.23s-.2.01-.34.1l-.37.22-.32.19-.14-.22.39-.25.45-.27zm-.5.32v2.68l-.34.19v-2.68l.34-.19zm2.57-.74c.25-.14.44-.2.55-.16s.17.16.17.36c0 .17-.03.32-.1.45s-.17.24-.32.32l-.95.55v-.27l.86-.5c.08-.04.12-.1.15-.16s.03-.14.03-.21c0-.12-.03-.18-.09-.2s-.15.01-.29.09c-.11.07-.2.14-.27.21s-.11.17-.14.28-.04.25-.04.43c0 .19.02.33.05.42s.09.12.16.12.17-.04.29-.11l.29-.18.29-.2.03.23c-.05.06-.12.12-.2.18l-.24.17-.22.14c-.19.11-.35.17-.46.17s-.2-.06-.26-.17-.08-.29-.08-.53c0-.25.03-.46.08-.64s.14-.33.25-.45.26-.24.44-.35zm1.84-1.06l.17-.09c.06-.03.13-.06.19-.08s.13-.04.18-.05l-.04.26-.24.12-.21.11c-.12.07-.22.15-.3.23s-.12.18-.16.29a1.7 1.7 0 0 0-.05.44c0 .18.02.3.05.39s.08.12.16.12.17-.04.3-.11l.13-.08.18-.11.18-.13.03.23a2.2 2.2 0 0 1-.28.24c-.1.08-.2.14-.3.2-.19.11-.35.17-.47.17s-.2-.06-.25-.17-.08-.3-.08-.54.03-.45.08-.63.14-.33.25-.46.27-.25.46-.36zm1.27-1.51v2.18c0 .08.02.13.06.15s.1.01.17-.03l.16-.09.04.25c-.02.03-.05.05-.09.08l-.12.09-.1.07c-.12.07-.23.09-.3.05s-.11-.14-.11-.3v-2.27l.32-.18zm1.03.23v1.89l-.32.18v-1.89l.32-.18zm-.08-.76c.06-.04.1-.02.1.06v.22c0 .07-.03.13-.1.17l-.15.09c-.07.04-.1.02-.1-.06v-.22c0-.07.03-.13.1-.17l.15-.09zm1.63-.17c.3-.17.45-.08.45.26v1.42l-.33.19v-1.31c0-.12-.02-.19-.05-.22s-.09-.02-.17.03c-.1.06-.19.14-.29.25l-.35.42-.01-.24a3.9 3.9 0 0 1 .38-.49c.13-.13.25-.24.37-.31zm-.76.48l.03.35.02.04v1.47l-.32.19v-1.89l.27-.15zm2.39-1.42c.25-.15.44-.2.55-.16s.17.16.17.36c0 .17-.03.32-.1.45s-.17.24-.32.32l-.95.54v-.27l.87-.5c.07-.04.12-.1.14-.17s.03-.14.03-.21c0-.12-.03-.18-.09-.2s-.15.01-.29.09c-.11.06-.2.14-.27.21s-.11.17-.14.28-.04.25-.04.43c0 .19.02.33.05.42.03.08.09.12.16.12s.17-.04.29-.11l.29-.18.29-.2.03.22c-.05.06-.12.12-.19.18l-.24.17-.22.14c-.19.11-.35.17-.47.17s-.2-.06-.25-.17-.08-.29-.08-.53c0-.25.03-.46.08-.64s.14-.33.25-.45.26-.24.44-.35zm2.88-.83v.27l-1.02.59v-.27l1.02-.59zm2.11-2.77l-.63 1.94c-.02.06-.02.1 0 .12s.05.01.08-.01l1.37-.79v.26l-.31.22-1.27.73c-.06.04-.12.05-.16.03s-.07-.05-.08-.11 0-.13.02-.2l.65-1.99.33-.19zm.52.21v2.17l-.32.18v-1.72l.06-.48.26-.15zm1.13-1.21c.13-.08.24-.11.32-.1s.14.06.17.15.05.24.05.43-.02.36-.05.49-.09.25-.17.36-.19.19-.32.26-.24.11-.32.11-.14-.06-.17-.16-.05-.24-.05-.43.02-.36.05-.49.09-.25.17-.35.19-.19.32-.27zm0 .23c-.08.04-.14.1-.18.16s-.07.13-.09.23-.03.21-.03.35.01.25.03.32.05.11.09.12.1-.01.18-.05.14-.09.18-.15.08-.14.09-.23.03-.21.03-.35-.01-.25-.03-.32-.05-.11-.09-.12-.1 0-.18.05zm1.66-1.13l-1.48 3.53-.23.13 1.48-3.53.22-.13zm-.04 1.15c.14-.08.24-.11.32-.1s.14.06.17.16.05.24.05.42-.02.36-.05.5-.09.25-.17.35-.19.18-.32.26-.24.11-.32.11-.14-.06-.17-.15-.05-.25-.05-.44.02-.35.05-.48.09-.25.17-.36.19-.19.32-.27zm0 .23c-.08.04-.14.1-.18.16s-.07.13-.09.23-.02.2-.02.35a1.7 1.7 0 0 0 .02.33c.02.07.05.11.09.13s.11-.01.18-.05.14-.1.18-.15.07-.14.09-.23.03-.22.03-.36-.01-.25-.03-.32c-.02-.07-.05-.11-.09-.12s-.1.01-.18.05z"/><path d="M211.47 295.57v2.01l-.25.14v-2.01l.25-.15zm.56-.32v.25l-1.36.78v-.25l1.36-.78zm.5.26c.14-.08.26-.12.35-.13s.15.04.19.13.06.22.06.4-.02.34-.06.47-.1.24-.19.34-.2.19-.35.27-.26.12-.35.13-.15-.04-.19-.13-.06-.22-.06-.41.02-.34.06-.47a.9.9 0 0 1 .19-.35c.09-.1.2-.19.35-.27zm0 .23c-.08.05-.15.1-.2.16s-.08.13-.1.22-.03.19-.03.33.01.23.03.3.05.1.1.1.12-.02.2-.07.15-.1.2-.16.09-.13.11-.22.03-.2.03-.33-.01-.23-.03-.29-.05-.1-.11-.1-.11.02-.2.07zm1.25-1.33v1.43c0 .07.01.11.04.12s.07 0 .13-.03l.18-.1.03.19c-.03.03-.06.05-.1.08l-.11.07-.09.05c-.1.06-.19.07-.24.04s-.08-.11-.08-.24v-1.48l.25-.14zm.38.2v.21l-.85.49v-.19l.24-.15.61-.35zm.84-.52c.09-.05.17-.08.24-.09s.11.01.15.06.05.13.05.25v.99l-.19.11-.04-.29-.01-.03v-.65c0-.08-.02-.13-.05-.15s-.1 0-.19.06l-.24.15-.28.19-.02-.19.19-.14.21-.15.2-.12zm.32.39v.2l-.58.34c-.06.04-.1.08-.12.12s-.03.09-.03.15v.09c0 .07.01.11.04.13s.08 0 .14-.04c.05-.03.1-.07.16-.12a1.8 1.8 0 0 0 .18-.19c.06-.08.11-.16.16-.25v.18c-.02.04-.04.08-.08.14a1.7 1.7 0 0 1-.12.18c-.05.06-.1.12-.16.18s-.12.1-.19.14c-.07.04-.14.07-.2.07s-.1-.02-.13-.06-.05-.11-.05-.19v-.15c0-.11.03-.21.09-.31s.15-.18.26-.24l.64-.37zm.72-1.58v1.63c0 .06.01.1.04.11s.07 0 .12-.02l.12-.07.03.19c-.02.02-.04.04-.07.06s-.06.04-.09.06l-.08.05c-.09.05-.17.07-.23.04s-.08-.1-.08-.22v-1.7l.24-.14zm1.67-.96c.13-.07.24-.12.32-.13s.16 0 .21.05.09.13.12.25.04.27.04.47a3.1 3.1 0 0 1-.04.51c-.02.15-.06.27-.12.38s-.13.21-.21.29-.2.17-.32.24l-.34.19-.29.15.11-.29.24-.12.29-.16c.11-.06.19-.13.25-.22s.11-.19.13-.32a2.5 2.5 0 0 0 .04-.5 1.8 1.8 0 0 0-.04-.45c-.03-.1-.07-.16-.13-.17s-.15.01-.25.07l-.28.16-.24.14-.11-.16.29-.19.34-.2zm-.38.24v2.01l-.25.15v-2.01l.25-.14zm1.93-.56c.19-.11.33-.15.41-.12s.13.12.13.27c0 .13-.02.24-.07.34s-.13.18-.24.24l-.71.41v-.2l.65-.37c.06-.03.09-.07.11-.12s.02-.1.02-.15c0-.09-.02-.13-.07-.15s-.12.01-.22.07c-.09.05-.15.1-.2.16s-.08.13-.1.21-.03.19-.03.32c0 .15.01.25.03.31s.06.09.12.09.13-.03.22-.08l.21-.13.22-.15.03.17c-.04.04-.09.09-.15.13l-.18.13-.17.1c-.14.08-.26.13-.35.13s-.15-.04-.19-.13-.06-.22-.06-.4c0-.19.02-.34.06-.48s.1-.25.19-.34.2-.18.33-.26zm1.38-.79l.13-.07c.05-.02.09-.04.14-.06s.1-.03.14-.04l-.03.2-.18.09-.16.09c-.09.05-.17.11-.22.18s-.09.13-.12.22-.04.2-.04.33a.9.9 0 0 0 .04.29c.02.06.06.09.12.09s.13-.03.22-.09l.1-.06.13-.08.14-.1.02.17c-.06.06-.13.12-.21.18s-.15.11-.23.15c-.14.08-.26.13-.35.13s-.15-.04-.19-.13-.06-.22-.06-.41.02-.34.06-.47a.9.9 0 0 1 .19-.34c.09-.1.2-.19.35-.27zm.95-1.13v1.63c0 .06.01.1.04.11s.07.01.12-.02l.12-.07.03.19c-.02.02-.04.04-.07.06l-.09.06-.08.05c-.09.05-.17.07-.23.04s-.08-.11-.08-.22v-1.7l.24-.14zm.77.17v1.42l-.24.14v-1.42l.24-.14zm-.06-.57c.05-.03.07-.01.07.04v.17c0 .06-.02.1-.07.13l-.11.07c-.05.03-.07.01-.07-.04v-.17c0-.06.02-.1.07-.13l.11-.06zm1.22-.13c.22-.13.33-.06.33.2v1.06l-.25.14v-.98c0-.09-.01-.14-.04-.16s-.07-.01-.13.02c-.07.04-.14.1-.22.19l-.26.31-.01-.18a2.8 2.8 0 0 1 .28-.36c.09-.1.19-.18.28-.23zm-.57.36l.02.26.02.03v1.11l-.24.14v-1.42l.2-.12zm1.8-1.07c.19-.11.33-.15.41-.12s.13.12.13.27c0 .13-.02.24-.07.34s-.13.18-.24.24l-.71.41v-.2l.65-.37c.06-.03.09-.07.11-.12s.03-.1.03-.15c0-.09-.02-.14-.07-.15s-.12.01-.22.07c-.09.05-.15.1-.2.16s-.08.13-.1.21-.03.19-.03.32c0 .15.01.25.04.31s.06.09.12.09.13-.03.22-.08l.22-.13.22-.15.03.17c-.04.04-.09.09-.15.13l-.18.13-.17.1c-.15.08-.26.13-.35.12s-.15-.04-.19-.13-.06-.22-.06-.4c0-.19.02-.35.06-.48s.1-.24.19-.34.2-.18.33-.26zm2.16-.62v.2l-.77.44v-.2l.77-.44zm1.48-2.02v2.01l-.25.14v-1.56-.09l.01-.1-.42.39-.03-.19.44-.46.25-.15zm1.02-.59v2.01l-.25.15v-1.56-.09c0-.03 0-.06.01-.1l-.42.39-.03-.19.44-.46.25-.14z"/></g><g filter="url(#B)" class="K"><circle cx=".73" cy=".73" r=".73" transform="matrix(.8672 -.498 0 1 213.551 306.898)"/></g><g filter="url(#C)" class="K"><circle cx=".49" cy=".49" r=".49" transform="matrix(.8672 -.498 0 1 212.5 309.926)"/></g><g filter="url(#D)"><g filter="url(#E)"><circle cx="7.28" cy="7.28" r="7.28" transform="matrix(.8672 -.498 0 1 201.77 317.055)" fill="url(#S)"/></g><g filter="url(#F)" class="L"><rect width="5.34" height=".97" rx=".49" transform="matrix(.8672 -.498 0 1 205.766 324.465)"/></g><g filter="url(#G)" class="L"><circle cx=".73" cy=".73" r=".73" transform="matrix(.8672 -.498 0 1 205.559 320.949)"/></g><g filter="url(#H)" class="L"><circle cx=".73" cy=".73" r=".73" transform="matrix(.8672 -.498 0 1 209.344 318.773)"/></g></g><path d="M193.42 204.42a3.5 3.5 0 0 1 1.04-.45c.29-.06.52-.01.69.14s.3.42.37.81c.08.38.12.9.12 1.54 0 .63-.04 1.19-.12 1.68-.07.48-.2.9-.37 1.26s-.4.68-.69.97a5.4 5.4 0 0 1-1.04.79 3.6 3.6 0 0 1-1.05.46c-.28.06-.52.01-.69-.14s-.3-.42-.38-.81c-.08-.39-.12-.9-.12-1.54 0-.64.04-1.2.12-1.68a4.7 4.7 0 0 1 .38-1.26c.18-.36.41-.69.69-.97.29-.29.64-.55 1.05-.8zm0 .82a2.8 2.8 0 0 0-.83.73c-.2.28-.35.63-.44 1.05-.08.41-.12.94-.12 1.6s.04 1.13.12 1.45c.09.32.23.5.44.53s.48-.05.83-.26.62-.45.82-.73.35-.63.44-1.05.13-.95.13-1.6a5.9 5.9 0 0 0-.13-1.45c-.09-.32-.23-.49-.44-.53s-.47.05-.82.26zm4.81-3.71l.31-.17.38-.21.33-.15-.06.68-.69.41c-.25.15-.42.3-.53.47s-.15.38-.15.68v5.17l-.78.46v-5.28a2.6 2.6 0 0 1 .12-.8 2.2 2.2 0 0 1 .39-.7c.18-.21.4-.4.66-.56zm2.71-1.74l.34-.19.43-.23.37-.19-.06.68-.81.48c-.25.15-.42.31-.53.48s-.15.39-.15.66v5.29l-.78.47v-5.39a2.7 2.7 0 0 1 .11-.8c.08-.25.21-.48.38-.69.17-.22.4-.41.69-.58zm.83 1.67v.68l-5.42 3.24v-.63l.74-.49 4.68-2.8zm2.39-1.54c.61-.36 1.05-.5 1.32-.4.27.09.41.38.41.87 0 .41-.07.78-.23 1.1s-.41.58-.77.8l-2.28 1.36V203l2.08-1.24c.18-.11.29-.24.35-.41s.08-.33.08-.5c-.01-.28-.08-.44-.22-.47-.13-.04-.37.04-.7.24-.27.16-.49.34-.65.53s-.27.42-.33.69-.09.61-.09 1.03c0 .47.04.81.11 1.01.08.2.21.29.38.28s.41-.1.7-.28l.69-.44.7-.51.08.55a5 5 0 0 1-.47.44l-.56.42-.53.35c-.46.28-.84.42-1.12.42s-.48-.13-.61-.41-.19-.71-.19-1.29c0-.6.06-1.12.19-1.55s.33-.8.61-1.11a4.3 4.3 0 0 1 1.06-.86zm3.32-1.87l.1.83.07.09v3.58l-.78.46v-4.59l.61-.36zm1.93-1.27l-.08.9-.25.15c-.22.13-.45.32-.68.56l-.83.93-.06-.52a8.9 8.9 0 0 1 .86-1.16c.3-.33.58-.58.86-.75l.18-.11zm4.46-4.53c.41-.25.75-.39 1.03-.45.29-.06.52-.01.69.15.17.15.3.42.37.8a7.5 7.5 0 0 1 .12 1.51 10.1 10.1 0 0 1-.12 1.66c-.08.47-.2.89-.37 1.25a3.5 3.5 0 0 1-.69.96c-.28.28-.62.54-1.03.79l-1.08.62-.94.5.34-.96.75-.41.93-.55c.34-.21.62-.45.82-.72s.34-.62.42-1.03c.09-.42.13-.96.13-1.6a5.8 5.8 0 0 0-.13-1.44c-.08-.32-.22-.5-.42-.54-.2-.04-.47.04-.82.24l-.9.54-.78.48-.35-.52.94-.62 1.08-.67zm-1.21.81v6.49l-.81.48v-6.49l.81-.48zm6.17-1.9c.61-.36 1.05-.5 1.32-.4.27.09.41.38.41.87 0 .41-.07.78-.23 1.1-.16.32-.41.59-.77.8l-2.28 1.36v-.65l2.08-1.24c.18-.11.29-.24.35-.41s.08-.33.08-.5c0-.28-.08-.44-.22-.47-.13-.04-.37.04-.7.24a2.5 2.5 0 0 0-.65.53c-.16.19-.27.42-.33.69s-.09.61-.09 1.03c0 .47.04.81.11 1.01.08.2.21.29.38.28s.41-.1.7-.28l.69-.44.7-.5.08.54a5 5 0 0 1-.47.44l-.56.42-.53.35c-.46.28-.83.42-1.11.42s-.49-.13-.61-.41c-.13-.28-.19-.71-.19-1.29a5.4 5.4 0 0 1 .19-1.55 2.9 2.9 0 0 1 .6-1.1c.28-.31.63-.6 1.06-.86zm4.43-2.64l.4-.22.46-.21c.16-.06.31-.11.44-.12l-.1.64-.58.31-.5.28c-.3.18-.54.37-.72.58-.17.2-.3.44-.37.72a4.2 4.2 0 0 0-.11 1.06c0 .43.04.74.11.94s.2.29.37.29c.18-.01.42-.11.72-.29l.31-.2.42-.28.44-.32.07.56a5.8 5.8 0 0 1-.66.58 7.1 7.1 0 0 1-.72.49c-.46.28-.84.42-1.12.43-.27.01-.47-.13-.6-.41s-.19-.71-.19-1.31a5.5 5.5 0 0 1 .19-1.52c.13-.43.33-.8.61-1.12a4.5 4.5 0 0 1 1.12-.9zm3.05-3.7v5.28c0 .19.05.31.14.36s.23.01.39-.09l.37-.22.09.62c-.05.06-.13.13-.23.21l-.29.21-.25.17c-.3.18-.54.22-.73.13-.18-.09-.27-.33-.27-.72v-5.5l.77-.46zm2.47.52v4.59l-.77.46v-4.59l.77-.46zm-.2-1.85c.16-.09.23-.05.23.13v.54c0 .18-.08.32-.23.41l-.36.22c-.16.09-.24.05-.24-.13v-.54c0-.18.08-.32.24-.41l.36-.22zm3.91-.48c.72-.43 1.07-.22 1.07.62v3.44l-.78.47v-3.18c0-.29-.04-.46-.12-.52-.08-.06-.22-.04-.41.08-.23.14-.46.34-.7.61l-.83 1.02-.03-.59c.3-.46.6-.86.91-1.19s.6-.59.9-.76zm-1.82 1.2l.07.84.06.1v3.58l-.78.46v-4.59l.65-.39zm5.74-3.55c.61-.36 1.05-.5 1.32-.4.28.09.41.38.41.87 0 .41-.07.78-.23 1.1s-.41.59-.77.8l-2.28 1.36v-.65l2.08-1.24c.18-.11.29-.24.35-.41s.08-.33.08-.5c0-.28-.08-.44-.22-.47-.13-.04-.37.04-.7.24-.27.16-.49.34-.65.53s-.27.42-.33.69-.09.61-.09 1.03c0 .47.04.81.11 1.01.08.2.21.29.38.28s.41-.1.7-.28l.69-.44.7-.5.08.54a4.9 4.9 0 0 1-.47.44l-.56.42-.53.35c-.46.28-.84.42-1.12.42s-.49-.13-.61-.41-.19-.71-.19-1.29a5.4 5.4 0 0 1 .19-1.55c.13-.43.33-.8.61-1.1.27-.31.63-.6 1.06-.86zm6.7-4c.49-.29.85-.32 1.08-.09.23.22.35.77.35 1.63a6.3 6.3 0 0 1-.09 1.09 3.5 3.5 0 0 1-.28.93c-.13.29-.32.55-.55.8s-.51.47-.86.68l-.44.25-.49.23-.49.2c-.16.05-.3.08-.43.1l.62-.97.41-.12.41-.18.39-.22c.24-.16.43-.33.57-.51s.25-.42.31-.71c.07-.29.1-.65.1-1.07 0-.41-.03-.71-.08-.91-.05-.21-.14-.32-.28-.34-.13-.03-.31.03-.56.17-.21.12-.4.31-.59.55l-.63.89-.06-.53a7.1 7.1 0 0 1 .48-.78c.17-.24.34-.45.52-.62a3.1 3.1 0 0 1 .56-.44zm-1.42-1.03v1.67l-.02.56a4.2 4.2 0 0 1-.07.55l.08.08.01 3.53-.78.42v-6.36l.78-.47zm7.43-2.44l-1.55 5.74a7 7 0 0 1-.25.76c-.1.26-.22.51-.36.76-.15.26-.32.49-.52.71-.19.22-.42.4-.68.56l-.07-.53c.32-.31.57-.62.74-.91a4.3 4.3 0 0 0 .42-.97l.2-.69.13-.51.12-.5.98-3.92.84-.5zm-3.23 1.93l.99 2.75c.03.08.05.16.07.25.03.08.05.16.06.25l.19-.12-.25.82-.23.13c-.06.04-.12.05-.17.05-.05-.02-.08-.05-.11-.12l-1.41-3.52.83-.5zm11.01-8.48c.21-.12.32-.06.32.19l.23 5.97-.79.47-.2-5.61-.16.1-1.18 5.36c-.04.23-.16.4-.34.51l-.66.4c-.19.11-.31.08-.36-.1l-1.18-3.95-.16.1-.19 5.84-.79.47.22-6.24c.01-.26.12-.46.32-.58l.87-.52c.17-.1.29-.07.34.11l.98 3.26c.04.12.08.24.11.37l.1.39.14-.08.1-.51.1-.52.98-4.41c.04-.23.16-.4.34-.51l.87-.52zm3.42-.26a2.5 2.5 0 0 1 1.11-.43c.28-.01.48.13.6.41.12.28.19.71.19 1.29a5.6 5.6 0 0 1-.19 1.53c-.12.42-.32.8-.6 1.12s-.64.62-1.11.9c-.46.27-.83.42-1.11.43s-.47-.13-.6-.41c-.12-.28-.19-.72-.19-1.31 0-.58.06-1.09.19-1.51.12-.43.32-.81.6-1.13a4.5 4.5 0 0 1 1.11-.9zm0 .73c-.27.16-.48.34-.64.53s-.27.43-.33.72c-.06.28-.1.63-.1 1.06s.03.75.1.96.17.31.33.32c.16 0 .37-.08.64-.24s.48-.33.64-.52a1.7 1.7 0 0 0 .34-.72c.06-.28.1-.64.1-1.07s-.03-.75-.1-.95c-.06-.21-.18-.31-.34-.31-.16-.01-.37.07-.64.23zm5.38-3.95c.72-.43 1.07-.22 1.07.62v3.44l-.78.47v-3.18c0-.29-.04-.46-.12-.52-.08-.06-.22-.04-.41.08a2.9 2.9 0 0 0-.69.61l-.83 1.02-.03-.59a9.4 9.4 0 0 1 .9-1.19c.3-.33.6-.59.9-.76zm-1.82 1.2l.07.84.06.1v3.58l-.78.46v-4.59l.65-.39zm5.17-4.44v4.63c0 .21.04.34.11.39.08.04.22 0 .4-.11l.58-.35.09.62-.31.26-.35.25-.27.18c-.33.2-.59.25-.77.14s-.27-.36-.27-.76v-4.78l.78-.47zm1.23.61v.68l-2.72 1.63v-.63l.78-.51 1.95-1.16zm3.26-2.06c.72-.43 1.07-.22 1.07.62v3.44l-.79.47v-3.18c0-.29-.04-.46-.12-.52-.07-.07-.21-.04-.4.07-.23.14-.46.34-.69.6l-.83 1.03-.04-.58c.3-.46.6-.85.9-1.19.31-.34.61-.6.91-.78zm-1.69-.87l.01 1.77-.02.62a4 4 0 0 1-.06.54l.08.08v3.58l-.77.46v-6.59l.77-.46z" class="H"/><path d="M132.35 228.64l46.12-26.09v187.97l-37.22 21.02s-4.24 1.64-6.88-.94c-2.03-1.98-2.02-7.52-2.02-7.52V228.64z" fill="#e1efff" fill-opacity=".6"/><use href="#j" fill="#edf5ff"/><path d="M139.44 240.89v5.2l-1.01.53v-5.2l1.01-.53zm3.15-.29c.62-.33.93-.15.93.54v2.78l-.99.52v-2.44c0-.17-.03-.26-.08-.3s-.14-.02-.27.05c-.14.08-.29.19-.44.33-.15.14-.34.33-.56.57l-.05-.59c.24-.35.47-.65.72-.9a3.1 3.1 0 0 1 .73-.57zm-1.5.89l.11.68.08.06v2.88l-.98.52v-3.72l.79-.41zm4.49-3.41v3.56c0 .14.03.22.08.25.06.03.15 0 .28-.06l.43-.22.11.7c-.08.07-.18.15-.29.23l-.35.24-.29.17c-.3.16-.53.19-.7.11-.16-.09-.25-.3-.25-.63v-3.81l.99-.52zm.92.55v.73l-2.48 1.31v-.69l.64-.38 1.84-.97zm2.09-1.2c.55-.29.95-.39 1.19-.31.24.08.37.33.37.75a1.6 1.6 0 0 1-.23.88c-.16.25-.42.48-.8.68l-1.84.97v-.62l1.57-.83c.15-.08.24-.16.28-.25.04-.1.07-.21.07-.34 0-.18-.04-.27-.13-.29-.08-.03-.23.02-.44.13-.18.09-.32.19-.43.31s-.17.25-.21.43-.06.41-.06.71c0 .31.03.54.07.68.05.14.13.21.25.22s.28-.05.49-.16l.56-.31.68-.43.09.64c-.13.14-.28.27-.44.4s-.33.24-.51.35l-.5.29a2.3 2.3 0 0 1-1.01.33c-.25-.01-.44-.12-.55-.35s-.17-.56-.17-1.01a4.1 4.1 0 0 1 .17-1.25c.12-.35.3-.65.55-.91s.57-.49.98-.71zm2.97-1.47l.12.67.09.05v2.88l-.98.52v-3.72l.77-.4zm1.6-.95l-.09 1.07-.27.14a2.9 2.9 0 0 0-.49.33l-.64.57-.07-.59a6.2 6.2 0 0 1 .7-.9c.23-.25.46-.43.69-.54l.17-.09zm3.78-1.9l-1.08 4.03c-.03.09-.07.18-.13.26-.05.07-.12.13-.19.17l-.85.45c-.08.04-.14.05-.2.04-.06-.02-.1-.06-.12-.13l-1.09-2.88 1.04-.55.61 2.01.07.3.07.3.09-.05.07-.37.08-.38.6-2.64 1.04-.55zm1.46-.77v3.72l-.97.51v-3.72l.97-.51zm-.27-1.5c.19-.1.29-.04.29.18v.41c0 .22-.1.38-.29.49l-.43.22c-.2.1-.29.04-.29-.18v-.41c0-.22.1-.38.29-.49l.43-.22zm2.66.13c.55-.29.95-.4 1.19-.31.24.08.37.33.37.76a1.6 1.6 0 0 1-.23.88c-.16.25-.42.48-.81.68l-1.84.97v-.62l1.57-.83c.15-.08.24-.16.28-.25.04-.1.07-.21.07-.34 0-.18-.04-.27-.13-.29-.08-.03-.23.02-.44.13-.18.09-.32.19-.43.31s-.17.25-.21.43-.06.41-.06.71c0 .31.03.54.07.68.05.14.13.21.25.22s.28-.05.49-.16l.56-.31.68-.43.09.64c-.13.14-.28.27-.44.4l-.51.35-.5.29c-.42.22-.75.33-1 .33s-.44-.12-.55-.35-.17-.56-.17-1.01a4.1 4.1 0 0 1 .17-1.25c.12-.35.3-.65.55-.91s.57-.49.98-.7zm7.34-3.78l-.81 3.86a.7.7 0 0 1-.12.28c-.06.08-.13.15-.22.19l-.75.4c-.09.05-.17.06-.23.03-.07-.03-.1-.09-.11-.19l-.37-1.91-.03-.29c-.01-.1-.02-.19-.04-.29l-.08.04-.04.33-.04.33-.36 2.29c-.01.11-.05.21-.12.31-.07.09-.14.17-.23.21l-.74.39c-.08.04-.15.06-.21.04s-.1-.07-.12-.16l-.81-3 .99-.52.45 2.17.05.28.03.28.09-.05.04-.32.05-.33.37-2.27c.01-.1.04-.2.11-.29.07-.1.14-.18.23-.22l.64-.34c.09-.05.16-.06.23-.02.07.03.11.08.12.18l.35 1.88.05.28.05.28.08-.04.04-.32.05-.33.45-2.65.99-.52z" class="H"/><path d="M174.71 236.07l-39.53 21.53v12.17l39.53-21.53v-12.17z" class="J"/><path d="M140.25 258.35c.36-.2.66-.33.91-.39s.45-.02.59.1c.15.11.26.33.33.64.07.31.1.72.1 1.24s-.03.97-.1 1.36a3.6 3.6 0 0 1-.33 1.02c-.15.29-.35.55-.59.78a5 5 0 0 1-.91.65 3.5 3.5 0 0 1-.91.39c-.25.06-.45.03-.6-.09s-.26-.33-.33-.64c-.06-.31-.1-.73-.1-1.25 0-.52.03-.98.1-1.36.07-.39.18-.73.33-1.02s.35-.55.6-.78c.25-.23.55-.45.91-.66zm0 .9a1.7 1.7 0 0 0-.54.47c-.13.18-.22.41-.27.71a6.7 6.7 0 0 0-.08 1.14 5.1 5.1 0 0 0 .08 1.04c.06.23.15.36.27.39s.31-.02.54-.15c.23-.13.41-.29.54-.47s.22-.42.27-.71.08-.67.08-1.13-.03-.82-.08-1.05-.14-.36-.27-.39-.31.02-.54.15zm3.99-3.23l.27-.15.35-.18a2.6 2.6 0 0 1 .31-.13l-.08.76-.52.3c-.17.09-.28.2-.35.31s-.1.26-.1.45v4.04l-.94.54v-4.19a2.3 2.3 0 0 1 .11-.67 1.8 1.8 0 0 1 .34-.59c.15-.18.35-.35.61-.49zm2.31-1.42l.31-.17.39-.19.35-.15-.09.76-.63.36c-.16.09-.28.2-.35.32a.9.9 0 0 0-.09.44v4.13l-.95.54v-4.28a2.1 2.1 0 0 1 .1-.66 1.8 1.8 0 0 1 .33-.6c.15-.18.36-.35.62-.5zm.8 1.25v.73l-4.73 2.71v-.69l.58-.37 4.15-2.38zm1.98-1.23c.54-.31.93-.43 1.17-.35.24.07.36.32.36.74 0 .33-.07.63-.22.89s-.41.49-.79.71l-1.8 1.03v-.62l1.54-.88c.14-.08.23-.17.27-.26.04-.1.07-.22.07-.35 0-.17-.04-.27-.13-.29-.08-.02-.23.02-.43.14-.18.1-.32.2-.42.32-.1.11-.17.26-.21.44s-.06.41-.06.71c0 .31.02.54.07.68s.13.21.24.21.28-.06.48-.18l.55-.33.67-.45.09.63a3.7 3.7 0 0 1-.43.41l-.5.37-.49.31c-.41.24-.74.36-.99.36s-.43-.11-.54-.33-.16-.56-.16-1.01c0-.49.05-.9.16-1.25s.29-.66.54-.92.56-.51.96-.74zm2.92-1.58l.12.67.09.05v2.88l-.96.55v-3.72l.75-.43zm1.57-1l-.09 1.08-.27.15c-.15.09-.31.2-.48.35l-.63.59-.07-.59a6.5 6.5 0 0 1 .69-.92 2.9 2.9 0 0 1 .67-.57l.17-.1z" fill="#fff"/><g fill="#b5d6ff"><path d="M156.82 391.77l16.94-8.74v2.5l-16.94 8.74v-2.5zm-6.59-3.64l23.53-11.65v3.33l-23.53 11.65v-3.33z"/><use href="#k"/><path d="M137.06 291.3l36.71-19.66v5.62l-36.71 19.66v-5.62zm0 9.36l36.7-19.66v5.62l-36.71 19.66v-5.62zm0 9.36l36.71-19.66v5.62l-36.71 19.66v-5.62zm0 9.36l36.71-19.66v5.62L137.06 325v-5.62z"/></g><path d="M132.07 216.86v12.3L433.56 56.04v-12.3c0-7.95-5.64-11.15-12.62-7.16L144.68 195.22c-6.96 4-12.62 13.68-12.62 21.63v.02z" class="J"/><use href="#l" fill="#f22071"/><path d="M402.74 59.81c0 2.25 1.59 3.14 3.55 2.01a7.8 7.8 0 0 0 3.55-6.1c0-2.25-1.59-3.14-3.55-2.01a7.8 7.8 0 0 0-3.55 6.1z" fill="#4bbc79"/><path d="M296.83 125.3l96.47-56.07c1.43-.83 2.59-3.06 2.59-4.99s-1.16-2.8-2.59-1.98l-96.47 56.07c-1.43.83-2.59 3.06-2.59 4.99s1.16 2.8 2.59 1.98z" fill="#dcdcdc"/><path d="M145.23 204.77v9.09l-1.73 1.03v-9.09l1.73-1.03zm2.91 1.75v1.5l-3 1.79v-1.5l3-1.79zm1.59-4.44v9.09l-1.72 1.03v-9.09l1.72-1.03zm3.18.68v6.51l-1.65.99v-6.51l1.65-.99zm-.46-2.59c.33-.2.5-.1.5.28v.71c0 .39-.17.68-.5.88l-.72.43c-.33.2-.5.1-.5-.28v-.71c0-.39.16-.68.5-.88l.72-.43zm3.19.96l.2 1.17.16.08v5.05l-1.66.99v-6.51l1.3-.78zm2.73-1.8l-.16 1.89-.46.28a5.3 5.3 0 0 0-.83.63l-1.09 1.06-.11-1.03c.39-.64.79-1.18 1.19-1.63s.79-.79 1.16-1.01l.29-.18zm2.5-1.32v6.51l-1.65.99v-6.51l1.65-.99zm-.46-2.6c.33-.2.5-.1.5.28v.71c0 .39-.17.68-.5.88l-.72.43c-.33.2-.5.1-.5-.28v-.71c0-.39.17-.68.5-.88l.72-.43zm5.77-.75c1.06-.63 1.58-.34 1.58.86v4.88l-1.67 1v-4.27c0-.29-.05-.46-.14-.51-.09-.06-.25-.03-.46.11-.24.14-.49.35-.75.62-.26.26-.57.61-.95 1.06l-.08-1.03a11.9 11.9 0 0 1 1.22-1.64c.42-.46.84-.82 1.24-1.06zm-2.54 1.69l.19 1.18.14.09v5.05l-1.66.99v-6.51l1.34-.8zm7.94-4.91a5.8 5.8 0 0 1 1.54-.71c.38-.09.66-.03.83.16.17.2.26.54.26 1.04a3.5 3.5 0 0 1-.25 1.33c-.17.4-.44.78-.84 1.16-.38.37-.9.75-1.55 1.14a6.1 6.1 0 0 1-1.56.72c-.38.09-.66.03-.83-.17s-.25-.54-.25-1.04.08-.94.25-1.34c.17-.41.45-.8.84-1.17a8.8 8.8 0 0 1 1.56-1.14zm-.01 1.19a2.8 2.8 0 0 0-.86.71c-.16.22-.24.49-.24.83 0 .33.08.51.24.54s.44-.07.86-.32a2.7 2.7 0 0 0 .85-.71c.16-.23.24-.5.24-.83 0-.33-.08-.51-.24-.54-.15-.04-.43.06-.85.31zm3.28-2.98l-.09.87-1.49 1.12-.41-.8 1.99-1.19zm-4.95 6.52l.82-.33c-.1.14-.18.3-.23.48-.04.17-.03.31.03.4s.19.1.4 0l2.06-.95c.59-.28 1-.34 1.25-.16.24.16.36.54.36 1.14a3.4 3.4 0 0 1-.29 1.47c-.2.42-.51.82-.94 1.19s-1 .77-1.72 1.2c-.59.35-1.07.61-1.46.77-.38.16-.67.24-.89.22s-.37-.12-.46-.32c-.09-.18-.14-.45-.14-.81 0-.27.04-.53.13-.77.08-.25.23-.52.43-.8s.48-.59.84-.94l.82-.84.6-.09-.45.63-.46.69c-.11.17-.2.33-.25.47-.05.13-.07.29-.07.46 0 .2.04.33.11.39.08.07.21.06.41-.02a5.7 5.7 0 0 0 .83-.43l.85-.57c.2-.16.34-.31.42-.46.08-.16.12-.33.12-.52 0-.17-.03-.27-.08-.32s-.15-.05-.28-.02a3.4 3.4 0 0 0-.55.23l-1.75.82c-.29.14-.52.18-.69.13-.17-.06-.28-.18-.34-.35s-.08-.38-.06-.61c.03-.24.1-.48.22-.72s.26-.46.43-.64zm9.94-12.12l1.27-.74 1.27-.73 1.17-.6-.08 1.51-3 1.79c-.19.11-.33.25-.43.43-.09.16-.14.35-.14.58v4.64c0 .22.05.36.14.42.1.06.24.03.43-.09l3-1.79.08 1.41-1.17.78-1.27.78-1.27.77c-.5.3-.9.37-1.21.22-.3-.15-.46-.5-.46-1.04v-5.51c.01-.56.16-1.09.46-1.61.31-.52.71-.93 1.21-1.22zm-1.47 4.57l4.67-2.79v1.42l-4.67 2.79v-1.42zm11.79-8.11l-1.62 4.14 1.74 2.29-1.7 1.01-1.65-2.35 1.53-4.09 1.7-1.01zm-4.24 2.53l1.53 2.26-1.64 4.31-1.71 1.02 1.74-4.37-1.61-2.22 1.68-1.01zm2.16 1.25v1.21l-1.75 1.05v-1.21l1.75-1.05zm6.68-6.69c.7-.42 1.2-.42 1.5 0s.45 1.18.45 2.3a8.5 8.5 0 0 1-.24 2.18 3.8 3.8 0 0 1-.7 1.45c-.31.39-.7.72-1.17 1a4 4 0 0 1-1.14.49c-.36.09-.68.06-.96-.08l.11-.94.68-.17c.21-.06.45-.18.71-.33a2.1 2.1 0 0 0 .58-.49c.14-.18.25-.43.32-.76.07-.33.1-.77.1-1.31a4.9 4.9 0 0 0-.1-1.18c-.06-.25-.16-.39-.29-.42-.13-.03-.3.02-.52.15a2.9 2.9 0 0 0-.68.56c-.2.23-.43.52-.69.89l-.22-.77a5.9 5.9 0 0 1 .58-.98 7.1 7.1 0 0 1 .79-.91 4.9 4.9 0 0 1 .88-.69zm-2.32 1.54l.16 1.09.16.1v4.23l-.06.19.05.79.01.84v1.58l-1.66.99v-9.01l1.35-.8zm7.1-6.96v7.14c0 .22.06.35.17.4.11.04.28-.01.5-.14l.45-.27.19 1.2a2.9 2.9 0 0 1-.38.36l-.51.4-.44.29c-.51.3-.91.39-1.2.27-.29-.14-.43-.48-.43-1.03v-7.63l1.65-.99zm4.7-.26c.7-.42 1.26-.64 1.69-.66.42-.03.72.15.91.54a4.5 4.5 0 0 1 .28 1.85 7.4 7.4 0 0 1-.28 2.16 4.2 4.2 0 0 1-.91 1.62 7.2 7.2 0 0 1-1.69 1.34c-.69.41-1.25.64-1.67.67s-.73-.15-.92-.53a4.4 4.4 0 0 1-.28-1.82 7.5 7.5 0 0 1 .28-2.19 4.3 4.3 0 0 1 .92-1.63c.42-.48.98-.93 1.67-1.34zm0 1.41a2.4 2.4 0 0 0-.68.58c-.17.21-.28.48-.35.81s-.1.77-.1 1.31c0 .53.03.91.1 1.16s.19.38.35.4c.17.01.39-.08.68-.25.29-.18.52-.37.69-.57.17-.21.28-.48.34-.81a6.6 6.6 0 0 0 .1-1.29 5 5 0 0 0-.1-1.19c-.06-.25-.17-.39-.34-.4s-.4.06-.69.24zm5.32-4.42l.2 1.17.16.08v5.05l-1.66.99v-6.51l1.3-.78zm2.73-1.8l-.16 1.89-.46.28c-.26.16-.54.37-.83.63l-1.09 1.06-.11-1.03c.39-.64.79-1.18 1.19-1.63s.79-.79 1.17-1.01l.29-.18zm3.35-2c.94-.56 1.62-.78 2.03-.64.41.12.62.55.62 1.29a3 3 0 0 1-.38 1.56c-.26.46-.72.88-1.37 1.27l-3.12 1.86v-1.09l2.67-1.6c.25-.15.41-.3.47-.47.08-.18.11-.38.11-.61 0-.31-.08-.47-.23-.5-.14-.04-.39.05-.75.26a2.6 2.6 0 0 0-.72.58c-.17.2-.29.46-.36.77a6.1 6.1 0 0 0-.1 1.25 4.1 4.1 0 0 0 .13 1.19c.08.24.22.36.42.36.2-.01.48-.12.84-.33l.95-.59 1.15-.81.16 1.1c-.22.25-.47.5-.75.74a10.6 10.6 0 0 1-.86.66l-.85.56c-.71.42-1.28.64-1.71.66-.43.01-.74-.18-.94-.56a4.2 4.2 0 0 1-.28-1.75c0-.85.09-1.59.28-2.2.2-.62.5-1.16.93-1.63a7.1 7.1 0 0 1 1.66-1.32zm5.05-2.85l.2 1.17.16.08v5.05l-1.66.99v-6.51l1.3-.78zm2.73-1.8l-.16 1.89-.46.28c-.26.16-.54.37-.83.63l-1.09 1.06-.11-1.03a11.6 11.6 0 0 1 1.19-1.63c.4-.45.79-.79 1.16-1.01l.29-.18z" fill="#fff"/></g><defs><filter id="A" x="205.43" y="254.95" width="48.23" height="52.43" filterUnits="userSpaceOnUse" class="B"><feFlood result="A" class="C"/><feColorMatrix in="SourceAlpha" values="0 0 0 0 0 0 0 0 0 0 0 0 0 0 0 0 0 0 127 0" result="B"/><feOffset dy="0.970455"/><feGaussianBlur stdDeviation=".49"/><feComposite in2="B" operator="out"/><feColorMatrix values="0 0 0 0 0 0 0 0 0 0 0 0 0 0 0 0 0 0 0.25 0"/><feBlend in2="A"/><feBlend in="SourceGraphic"/></filter><filter id="B" x="213.07" y="306.45" width="2.23" height="2.6" filterUnits="userSpaceOnUse" class="B"><feFlood result="A" class="C"/><feColorMatrix in="SourceAlpha" values="0 0 0 0 0 0 0 0 0 0 0 0 0 0 0 0 0 0 127 0" result="B"/><feOffset dy="0.485227"/><feGaussianBlur stdDeviation=".24"/><feComposite in2="B" operator="out"/><feColorMatrix values="0 0 0 0 0 0 0 0 0 0 0 0 0 0 0 0 0 0 0.25 0"/><feBlend in2="A"/><feBlend in="SourceGraphic"/></filter><filter id="C" x="212.02" y="309.63" width="1.81" height="2.05" filterUnits="userSpaceOnUse" class="B"><feFlood result="A" class="C"/><feColorMatrix in="SourceAlpha" values="0 0 0 0 0 0 0 0 0 0 0 0 0 0 0 0 0 0 127 0" result="B"/><feOffset dy="0.485227"/><feGaussianBlur stdDeviation=".24"/><feComposite in2="B" operator="out"/><feColorMatrix values="0 0 0 0 0 0 0 0 0 0 0 0 0 0 0 0 0 0 0.25 0"/><feBlend in2="A"/><feBlend in="SourceGraphic"/></filter><filter id="D" x="199.83" y="311.6" width="16.51" height="20.15" filterUnits="userSpaceOnUse" class="B"><feFlood result="A" class="C"/><feColorMatrix in="SourceAlpha" values="0 0 0 0 0 0 0 0 0 0 0 0 0 0 0 0 0 0 127 0" result="B"/><feOffset dy="0.970455"/><feGaussianBlur stdDeviation=".97"/><feComposite in2="B" operator="out"/><feColorMatrix values="0 0 0 0 0 0 0 0 0 0 0 0 0 0 0 0 0 0 0.25 0"/><feBlend in2="A"/><feBlend in="SourceGraphic"/></filter><filter id="E" x="201.77" y="312.57" width="12.63" height="17.72" filterUnits="userSpaceOnUse" class="B"><feFlood class="C"/><feBlend in="SourceGraphic" result="B"/><feColorMatrix in="SourceAlpha" values="0 0 0 0 0 0 0 0 0 0 0 0 0 0 0 0 0 0 127 0" result="C"/><feOffset dy="1.45568"/><feGaussianBlur stdDeviation=".97"/><feComposite in2="C" operator="arithmetic" k2="-1" k3="1"/><feColorMatrix values="0 0 0 0 0 0 0 0 0 0 0 0 0 0 0 0 0 0 0.25 0"/><feBlend in2="B"/></filter><filter id="F" x="205.77" y="321.99" width="4.63" height="3.74" filterUnits="userSpaceOnUse" class="B"><feFlood class="C"/><feBlend in="SourceGraphic" result="B"/><feColorMatrix in="SourceAlpha" values="0 0 0 0 0 0 0 0 0 0 0 0 0 0 0 0 0 0 127 0" result="C"/><feOffset dy="0.485227"/><feGaussianBlur stdDeviation=".24"/><feComposite in2="C" operator="arithmetic" k2="-1" k3="1"/><feColorMatrix values="0 0 0 0 1 0 0 0 0 1 0 0 0 0 1 0 0 0 0.2 0"/><feBlend in2="B"/></filter><filter id="G" x="204.59" y="319.53" width="3.2" height="3.57" filterUnits="userSpaceOnUse" class="B"><feFlood result="A" class="C"/><feColorMatrix in="SourceAlpha" values="0 0 0 0 0 0 0 0 0 0 0 0 0 0 0 0 0 0 127 0" result="B"/><feOffset/><feGaussianBlur stdDeviation=".49"/><feComposite in2="B" operator="out"/><feColorMatrix values="0 0 0 0 0 0 0 0 0 0 0 0 0 0 0 0 0 0 0.6 0"/><feBlend in2="A"/><feBlend in="SourceGraphic"/></filter><filter id="H" x="208.37" y="317.35" width="3.2" height="3.57" filterUnits="userSpaceOnUse" class="B"><feFlood result="A" class="C"/><feColorMatrix in="SourceAlpha" values="0 0 0 0 0 0 0 0 0 0 0 0 0 0 0 0 0 0 127 0" result="B"/><feOffset/><feGaussianBlur stdDeviation=".49"/><feComposite in2="B" operator="out"/><feColorMatrix values="0 0 0 0 0 0 0 0 0 0 0 0 0 0 0 0 0 0 0.6 0"/><feBlend in2="A"/><feBlend in="SourceGraphic"/></filter><linearGradient id="I" x1="570.01" y1="398.29" x2="108.94" y2="398.29" href="#m"><stop stop-color="#a6ceff"/><stop offset="1" stop-color="#9cc5f8"/></linearGradient><linearGradient id="J" x1="466" y1="82.55" x2="236.91" y2="523.53" href="#m"><stop stop-color="#fff"/><stop offset="1" stop-color="#d4e7fe"/></linearGradient><linearGradient id="K" x1="524.03" y1="285.27" x2="156.43" y2="498.84" href="#m"><stop stop-color="#bdd2f4"/><stop offset="1" stop-color="#e5faff"/></linearGradient><linearGradient id="L" x1="914.31" y1="27.53" x2="654.66" y2="178.37" href="#m"><stop stop-color="#bdd2f4"/><stop offset="1" stop-color="#e7f2ff"/></linearGradient><linearGradient id="M" x1="630.15" y1="287.47" x2="549" y2="334.61" href="#m"><stop stop-color="#bdd2f4"/><stop offset="1" stop-color="#d3e7ff"/></linearGradient><linearGradient id="N" x1="508.1" y1="167.79" x2="518.91" y2="187.63" href="#m"><stop stop-color="#0f042e"/><stop offset="1" stop-color="#1c1265"/></linearGradient><linearGradient id="O" x1="-59.76" y1="394.63" x2="-351.86" y2="564.33" href="#m"><stop stop-color="#e5faff"/><stop offset="1" stop-color="#bdd2f4"/></linearGradient><linearGradient id="P" x1="378.51" y1="54.85" x2="115.38" y2="380.67" href="#m"><stop stop-color="#3b92ff"/><stop offset="1" stop-color="#4f9eff"/></linearGradient><linearGradient id="Q" x1="-55.94" y1="395.55" x2="-348.05" y2="565.25" href="#m"><stop stop-color="#1c1265"/><stop offset="1" stop-color="#0f042e"/></linearGradient><linearGradient id="R" x1="204.88" y1="288.1" x2="282.35" y2="143.13" href="#m"><stop stop-color="#f5f5f5"/><stop offset=".05" stop-color="#c7c7c7"/><stop offset=".09" stop-color="#9c9c9c"/><stop offset=".14" stop-color="#777"/><stop offset=".2" stop-color="#565656"/><stop offset=".25" stop-color="#3b3b3b"/><stop offset=".32" stop-color="#252525"/><stop offset=".4" stop-color="#141414"/><stop offset=".49" stop-color="#080808"/><stop offset=".63" stop-color="#010101"/><stop offset="1"/></linearGradient><radialGradient id="S" cx="0" cy="0" r="1" gradientTransform="translate(7.27841 7.27841) rotate(90) scale(7.27841)" href="#m"><stop stop-color="#8cbaf1"/><stop offset="1" stop-color="#0668e1"/></radialGradient><clipPath id="T"><path fill="#fff" d="M0 0h600v600H0z"/></clipPath><path id="U" d="M303.002 520.683L565.594 370.03C570.947 366.961 570.273 361.586 564.097 358.033L397.232 262.303C391.038 258.75 381.68 258.36 376.328 261.447L113.735 412.12C108.382 415.189 109.056 420.564 115.232 424.116L282.097 519.846C288.291 523.399 297.649 523.789 303.002 520.702V520.683Z"/><path id="V" d="M372.47 300.5l9.64-5.52c1.24-.71 1.07-1.93-.34-2.75l-2.81-1.62c-1.42-.82-3.57-.91-4.79-.2l-9.64 5.52c-1.24.71-1.07 1.93.34 2.75l2.81 1.62c1.42.82 3.57.91 4.79.2z"/><path id="W" d="M341.65 318.2l9.64-5.52c1.24-.71 1.07-1.94-.34-2.75l-2.81-1.62c-1.42-.82-3.57-.91-4.79-.2l-9.64 5.52c-1.24.71-1.07 1.93.34 2.75l2.81 1.62c1.42.82 3.57.91 4.79.21z"/><path id="X" d="M279.99 353.58l9.64-5.52c1.24-.71 1.07-1.93-.34-2.75l-2.81-1.62c-1.42-.82-3.57-.91-4.79-.2l-9.64 5.52c-1.23.71-1.07 1.93.34 2.75l2.81 1.62c1.42.82 3.57.91 4.79.2z"/><path id="Y" d="M371.8 316.83l8.93-5.12c.82-.46.71-1.28-.23-1.84l-8.38-4.82c-.96-.54-2.38-.59-3.2-.13l-8.93 5.12c-.82.46-.71 1.28.23 1.84l8.38 4.82c.95.54 2.38.6 3.2.13z"/><path id="Z" d="M288.98 380.4l8.93-5.12c.82-.46.71-1.28-.22-1.84l-8.38-4.82c-.95-.54-2.38-.6-3.2-.13l-8.93 5.12c-.82.46-.71 1.28.22 1.84l8.38 4.82c.95.54 2.38.6 3.2.13z"/><path id="a" d="M243.23 422.98l8.93-5.12c.82-.46.71-1.28-.22-1.84l-8.38-4.82c-.95-.54-2.38-.59-3.2-.13l-8.93 5.11c-.82.46-.71 1.28.22 1.84l8.38 4.82c.95.54 2.38.59 3.2.13z"/><path id="b" d="M273.2 405.77l8.93-5.12c.82-.47.71-1.28-.22-1.84l-8.38-4.82c-.95-.54-2.38-.6-3.2-.13l-8.93 5.11c-.82.47-.71 1.28.22 1.84l8.38 4.82c.95.54 2.38.6 3.2.13z"/><path id="c" d="M348.16 362.76l8.93-5.11c.82-.46.71-1.28-.22-1.84l-8.38-4.82c-.95-.54-2.38-.59-3.2-.13l-8.93 5.12c-.82.47-.71 1.28.22 1.84l8.38 4.82c.95.54 2.38.59 3.2.13z"/><path id="d" d="M363.15 354.17l8.93-5.11c.82-.46.71-1.28-.22-1.84l-8.38-4.82c-.95-.54-2.38-.6-3.2-.13l-8.93 5.12c-.82.46-.71 1.28.22 1.84l8.38 4.82c.95.54 2.38.6 3.2.13z"/><path id="e" d="M305.62 420.97l8.93-5.11c.82-.47.71-1.28-.22-1.84l-8.38-4.82c-.95-.54-2.38-.6-3.2-.13l-8.93 5.11c-.82.47-.71 1.28.22 1.84l8.38 4.82c.95.54 2.38.6 3.2.13z"/><path id="f" d="M428.81 349.74l9.97-5.73c.52-.3.47-.84-.15-1.19l-2.75-1.58c-.62-.35-1.55-.39-2.08-.09l-9.98 5.73c-.52.3-.47.84.15 1.19l2.75 1.58c.62.35 1.55.39 2.08.09z"/><path id="g" d="M318.33 396.18l8.93-5.11c.82-.46.71-1.28-.22-1.84l-8.38-4.82c-.95-.54-2.38-.59-3.2-.13l-8.93 5.12c-.82.46-.71 1.28.22 1.84l8.38 4.82c.95.54 2.38.59 3.2.13z"/><path id="h" d="M248.9 387.34l8.93-5.12c.82-.47.71-1.28-.22-1.84l-8.38-4.82c-.95-.54-2.38-.59-3.2-.13l-8.93 5.12c-.82.46-.71 1.28.22 1.84l8.38 4.82c.95.54 2.38.59 3.2.13z"/><path id="i" d="M0-.12h257.66"/><path id="j" d="M174.71 218.28l-39.53 21.53v12.17l39.53-21.53v-12.17z"/><path id="k" d="M137.06 281.94l36.71-19.66v5.62l-36.71 19.66v-5.62z"/><path id="l" d="M417.18 51.52c0 2.25 1.59 3.14 3.55 2.01a7.8 7.8 0 0 0 3.55-6.1c0-2.25-1.59-3.14-3.55-2.01a7.8 7.8 0 0 0-3.55 6.1z"/><linearGradient id="m" gradientUnits="userSpaceOnUse"/></defs></svg>