<svg xmlns="http://www.w3.org/2000/svg" viewBox="0 0 600 600" xmlns:v="https://vecta.io/nano"><style><![CDATA[.c{fill:#fff}.d{fill:none}.e{fill:#b2d0f6}.f{fill:#1b1c17}.g{fill:#3886e7}.h{fill:#0668e1}.i{stroke-miterlimit:10}.j{fill:#055fcd}.k{stroke-width:.5}.l{stroke-width:.3}.m{stroke:#cae2ff}.n{fill:#e6f0fc}]]></style><defs><path id="A" d="M0 0h600v600H0z"/><path id="B" d="     M297,520.7L34.4,370c-5.4-3.1-4.7-8.4,1.5-12l166.9-95.7c6.2-3.6,15.6-3.9,20.9-0.9l262.6,150.7c5.4,3.1,4.7,8.4-1.5,12     l-166.9,95.7C311.7,523.4,302.3,523.8,297,520.7L297,520.7z"/><path id="C" d="M227.5 300.5l-9.6-5.5c-1.2-.7-1.1-1.9.3-2.8l2.8-1.6c1.4-.8 3.6-.9 4.8-.2l9.6 5.5c1.2.7 1.1 1.9-.3 2.8l-2.8 1.6c-1.4.8-3.6.9-4.8.2z"/><path id="D" d="M242.9 309.4l-9.6-5.5c-1.2-.7-1.1-1.9.3-2.8l2.8-1.6c1.4-.8 3.6-.9 4.8-.2l9.6 5.5c1.2.7 1.1 1.9-.3 2.8l-2.8 1.6c-1.4.8-3.5.9-4.8.2z"/><path id="E" d="M350.9 371.3l-9.6-5.5c-1.2-.7-1.1-1.9.3-2.8l2.8-1.6c1.4-.8 3.6-.9 4.8-.2l9.6 5.5c1.2.7 1.1 1.9-.3 2.8l-2.8 1.6c-1.5.8-3.6.9-4.8.2z"/><path id="F" d="M212.8 308l-8.9-5.1c-.8-.5-.7-1.3.2-1.8l8.4-4.8c1-.5 2.4-.6 3.2-.1l8.9 5.1c.8.5.7 1.3-.2 1.8l-8.4 4.8c-.9.5-2.3.6-3.2.1z"/><path id="G" d="M228.2 316.8l-8.9-5.1c-.8-.5-.7-1.3.2-1.8l8.4-4.8c1-.5 2.4-.6 3.2-.1l8.9 5.1c.8.5.7 1.3-.2 1.8l-8.4 4.8c-1 .5-2.4.6-3.2.1z"/><path id="H" d="M296 371.8l-8.9-5.1c-.8-.5-.7-1.3.2-1.8l8.4-4.8c1-.5 2.4-.6 3.2-.1l8.9 5.1c.8.5.7 1.3-.2 1.8l-8.4 4.8c-.9.5-2.4.6-3.2.1z"/><path id="I" d="M356.8 423l-8.9-5.1c-.8-.5-.7-1.3.2-1.8l8.4-4.8c1-.5 2.4-.6 3.2-.1l8.9 5.1c.8.5.7 1.3-.2 1.8l-8.4 4.8a4 4 0 0 1-3.2.1z"/><path id="J" d="M251.8 362.8l-8.9-5.1c-.8-.5-.7-1.3.2-1.8l8.4-4.8c1-.5 2.4-.6 3.2-.1l8.9 5.1c.8.5.7 1.3-.2 1.8l-8.4 4.8c-.9.5-2.3.5-3.2.1z"/><path id="K" d="M347.9 443.8l-10-5.7c-.5-.3-.5-.8.1-1.2l2.8-1.6c.6-.4 1.6-.4 2.1-.1l10 5.7c.5.3.5.8-.1 1.2l-2.8 1.6c-.6.4-1.6.4-2.1.1z"/><path id="L" d="M314.1 246.7l30.3 17.4a3.7 3.7 0 0 1 1.7 2.9h0c0 1.1-.8 1.5-1.7 1l-30.3-17.4a3.7 3.7 0 0 1-1.7-2.9h0c0-1.1.8-1.5 1.7-1z"/><path id="M" d="M221.3 124.9l59.3 34.1c1.6.9 2.9 3.1 2.9 5v24c0 1.8-1.3 2.6-2.9 1.7l-59.3-34.1c-1.6-.9-2.9-3.1-2.9-5v-24c0-1.9 1.3-2.6 2.9-1.7z"/><path id="N" d="M361.2 204.3l52.8 30.3c1.6.9 2.9 3.1 2.9 5v24c0 1.8-1.3 2.6-2.9 1.7L361.2 235c-1.6-.9-2.9-3.1-2.9-5v-24c.1-1.8 1.4-2.6 2.9-1.7z"/><path id="O" d="M203.2 135.9l-33.9-19.7v5.6l33.9 19.7v-5.6z"/></defs><clipPath id="P"><use href="#A"/></clipPath><g clip-path="url(#P)"><path d="M319.8 12a39.3 39.3 0 0 0-39.5 0L60.4 138.9C48.2 146 40.7 159 40.6 173.1v253.8a39.6 39.6 0 0 0 19.2 33.9l.6.3L280.2 588a39.3 39.3 0 0 0 39.5 0l219.8-126.9c12.2-7.1 19.8-20.1 19.8-34.2V173.1c0-14.1-7.5-27.2-19.8-34.2L319.8 12z" fill="#bfd8f7" fill-opacity=".2" stroke="#0668e1"/><linearGradient id="Q" gradientUnits="userSpaceOnUse" x1="30" y1="398.3" x2="491.07" y2="398.3"><stop offset="0" stop-color="#a6ceff"/><stop offset="1" stop-color="#9cc5f8"/></linearGradient><path d="M489.2 414.8c-3.1-1.3-265.5-146.1-265.5-146.1-5.4-3.1-14.7-2.7-20.9.9L31.6 362.1s-2.4 4.4-1.4 8.9c.7 3.3 1.7 4.6 3.2 5.7.2.1.5.3.7.5.1 0 .1.1.2.1L297 527.9c5.4 3.1 14.7 2.7 20.9-.9l166.9-95.7c.4-.2.8-.5 1.2-.7.1-.1.2-.1.3-.2.2-.2.5-.3.7-.5 2.6-2.1 3.6-4.6 4.1-7.8.4-3.5-1.9-7.3-1.9-7.3h0z" fill="url(#Q)"/><linearGradient id="R" gradientUnits="userSpaceOnUse" x1="107.26" y1="96.44" x2="336.36" y2="537.42"><stop offset="0" stop-color="#fff"/><stop offset="1" stop-color="#d4e7fe"/></linearGradient><path d="M297 520.7L34.4 370c-5.4-3.1-4.7-8.4 1.5-12l166.9-95.7c6.2-3.6 15.6-3.9 20.9-.9l262.6 150.7c5.4 3.1 4.7 8.4-1.5 12l-166.9 95.7c-6.2 3.6-15.6 4-20.9.9h0z" fill="url(#R)"/><linearGradient id="S" gradientUnits="userSpaceOnUse" x1="76.56" y1="284.31" x2="444.1" y2="497.84"><stop offset="0" stop-color="#bdd2f4"/><stop offset="1" stop-color="#e5faff"/></linearGradient><use href="#B" stroke="url(#S)" class="d i l"/><use href="#B" stroke="url(#S)" class="d i l"/><linearGradient id="T" gradientUnits="userSpaceOnUse" x1="-312.37" y1="24.14" x2="-52.73" y2="174.98"><stop offset="0" stop-color="#bdd2f4"/><stop offset="1" stop-color="#e7f2ff"/></linearGradient><path d="M353.7 460.3L140 337.7c-1.7-1-1.5-2.7.5-3.8l79.4-45.6c2-1.1 4.9-1.2 6.6-.3l213.7 122.6c1.7 1 1.5 2.7-.5 3.8L360.3 460c-2 1.1-4.9 1.2-6.6.3z" fill="url(#T)" stroke="#afd8f9" stroke-width=".75" class="i"/><linearGradient id="U" gradientUnits="userSpaceOnUse" x1="-29.42" y1="286.22" x2="51.72" y2="333.36"><stop offset="0" stop-color="#bdd2f4"/><stop offset="1" stop-color="#d3e7ff"/></linearGradient><path d="M216.7 462.9l-81.4-46.7 59-33.8 81.4 46.7-59 33.8z" fill="url(#U)"/><linearGradient id="V" gradientUnits="userSpaceOnUse" x1="363.54" y1="315.74" x2="352.73" y2="335.59"><stop offset="0" stop-color="#0f042e"/><stop offset="1" stop-color="#1c1265"/></linearGradient><path d="M456.1 402.7l-217.8-125 8.7-5 217.8 124.9-8.7 5.1z" fill="url(#V)"/><g fill="#244063"><use href="#C"/><use href="#D"/><path d="M258.3 318.2l-9.6-5.5c-1.2-.7-1.1-1.9.3-2.8l2.8-1.6c1.4-.8 3.6-.9 4.8-.2l9.6 5.5c1.2.7 1.1 1.9-.3 2.8l-2.8 1.6c-1.4.8-3.5.9-4.8.2zm15.5 8.8l-9.6-5.5c-1.2-.7-1.1-1.9.3-2.8l2.8-1.6c1.4-.8 3.6-.9 4.8-.2l9.6 5.5c1.2.7 1.1 1.9-.3 2.8l-2.8 1.6c-1.5.9-3.6.9-4.8.2zm15.4 8.9l-9.6-5.5c-1.2-.7-1.1-1.9.3-2.8l2.8-1.6c1.4-.8 3.6-.9 4.8-.2l9.6 5.5c1.2.7 1.1 1.9-.3 2.8l-2.8 1.6c-1.4.8-3.6.9-4.8.2zm15.4 8.8l-9.6-5.5c-1.2-.7-1.1-1.9.3-2.8l2.8-1.6c1.4-.8 3.6-.9 4.8-.2l9.6 5.5c1.2.7 1.1 1.9-.3 2.8l-2.8 1.6c-1.4.8-3.6.9-4.8.2zm15.4 8.9l-9.6-5.5c-1.2-.7-1.1-1.9.3-2.8l2.8-1.6c1.4-.8 3.6-.9 4.8-.2l9.6 5.5c1.2.7 1.1 1.9-.3 2.8l-2.8 1.6c-1.4.8-3.6.9-4.8.2zm15.4 8.8l-9.6-5.5c-1.2-.7-1.1-1.9.3-2.8l2.8-1.6c1.4-.8 3.6-.9 4.8-.2l9.6 5.5c1.2.7 1.1 1.9-.3 2.8l-2.8 1.6c-1.4.8-3.5.9-4.8.2z"/><use href="#E"/><path d="M366.3 380.1l-9.6-5.5c-1.2-.7-1.1-1.9.3-2.8l2.8-1.6c1.4-.8 3.6-.9 4.8-.2l9.6 5.5c1.2.7 1.1 1.9-.3 2.8l-2.8 1.6c-1.5.8-3.6.9-4.8.2zm15.4 8.9l-9.6-5.5c-1.2-.7-1.1-1.9.3-2.8l2.8-1.6c1.4-.8 3.6-.9 4.8-.2l9.6 5.5c1.2.7 1.1 1.9-.3 2.8l-2.8 1.6c-1.4.8-3.6.9-4.8.2zm15.4 8.8l-9.6-5.5c-1.2-.7-1.1-1.9.3-2.8l2.8-1.6c1.4-.8 3.6-.9 4.8-.2l9.6 5.5c1.2.7 1.1 1.9-.3 2.8l-2.8 1.6c-1.4.8-3.6.9-4.8.2zm15.4 8.8l-9.6-5.5c-1.2-.7-1.1-1.9.3-2.8l2.8-1.6c1.4-.8 3.6-.9 4.8-.2l9.6 5.5c1.2.7 1.1 1.9-.3 2.8l-2.8 1.6c-1.4.9-3.6 1-4.8.2zm15.4 8.9l-9.6-5.5c-1.2-.7-1.1-1.9.3-2.8l2.8-1.6c1.4-.8 3.6-.9 4.8-.2l9.6 5.5c1.2.7 1.1 1.9-.3 2.8l-2.8 1.6c-1.4.8-3.5.9-4.8.2z"/><use href="#F"/><path d="M206.2 320.3l-15.9-9.1c-1-.6-.9-1.7.3-2.4l7.4-4.2a4.6 4.6 0 0 1 4.1-.2l15.9 9.1c1 .6.9 1.7-.3 2.4l-7.4 4.2a4.6 4.6 0 0 1-4.1.2z"/><use href="#G"/><path d="M221.1 328.8l-8.9-5.1c-.8-.5-.7-1.3.2-1.8l8.4-4.8c1-.5 2.4-.6 3.2-.1l8.9 5.1c.8.5.7 1.3-.2 1.8l-8.4 4.8c-1 .5-2.4.6-3.2.1zm15 8.6l-8.9-5.1c-.8-.5-.7-1.3.2-1.8l8.4-4.8c1-.5 2.4-.6 3.2-.1l8.9 5.1c.8.5.7 1.3-.2 1.8l-8.4 4.8c-1 .5-2.4.6-3.2.1zm15 8.6l-8.9-5.1c-.8-.5-.7-1.3.2-1.8l8.4-4.8c1-.5 2.4-.6 3.2-.1l8.9 5.1c.8.5.7 1.3-.2 1.8l-8.4 4.8c-1 .5-2.4.6-3.2.1zm14.9 8.6l-8.9-5.1c-.8-.5-.7-1.3.2-1.8l8.4-4.8c1-.5 2.4-.6 3.2-.1l8.9 5.1c.8.5.7 1.3-.2 1.8l-8.4 4.8c-.9.5-2.3.6-3.2.1zm15 8.6l-8.9-5.1c-.8-.5-.7-1.3.2-1.8l8.4-4.8c1-.5 2.4-.6 3.2-.1l8.9 5.1c.8.5.7 1.3-.2 1.8l-8.4 4.8c-.9.5-2.3.6-3.2.1z"/><use href="#H"/><path d="M311 380.4l-8.9-5.1c-.8-.5-.7-1.3.2-1.8l8.4-4.8c1-.5 2.4-.6 3.2-.1l8.9 5.1c.8.5.7 1.3-.2 1.8l-8.4 4.8c-.9.5-2.4.6-3.2.1zm15 8.6l-8.9-5.1c-.8-.5-.7-1.3.2-1.8l8.4-4.8c1-.5 2.4-.6 3.2-.1l8.9 5.1c.8.5.7 1.3-.2 1.8l-8.4 4.8c-1 .5-2.4.6-3.2.1zm15 8.6l-8.9-5.1c-.8-.5-.7-1.3.2-1.8l8.4-4.8c1-.5 2.4-.6 3.2-.1l8.9 5.1c.8.5.7 1.3-.2 1.8l-8.4 4.8c-1 .5-2.4.6-3.2.1zm15 8.6l-8.9-5.1c-.8-.5-.7-1.3.2-1.8l8.4-4.8c1-.5 2.4-.6 3.2-.1l8.9 5.1c.8.5.7 1.3-.2 1.8l-8.4 4.8c-1 .5-2.4.6-3.2.1zm15 8.6l-8.9-5.1c-.8-.5-.7-1.3.2-1.8l8.4-4.8c1-.5 2.4-.6 3.2-.1l8.9 5.1c.8.5.7 1.3-.2 1.8l-8.4 4.8c-1 .5-2.4.6-3.2.1z"/><use href="#I"/><path d="M372.4 431.9l-8.9-5.1c-.8-.5-.7-1.3.2-1.8l8.4-4.8c1-.5 2.4-.6 3.2-.1l8.9 5.1c.8.5.7 1.3-.2 1.8l-8.4 4.8c-1 .5-2.4.6-3.2.1zm-30.6-17.5l-8.9-5.1c-.8-.5-.7-1.3.2-1.8l8.4-4.8c1-.5 2.4-.6 3.2-.1l8.9 5.1c.8.5.7 1.3-.2 1.8l-8.4 4.8a4 4 0 0 1-3.2.1zm-15-8.6l-8.9-5.1c-.8-.5-.7-1.3.2-1.8l8.4-4.8c1-.5 2.4-.6 3.2-.1l8.9 5.1c.8.5.7 1.3-.2 1.8l-8.4 4.8a4 4 0 0 1-3.2.1zm-15-8.6l-8.9-5.1c-.8-.5-.7-1.3.2-1.8l8.4-4.8c1-.5 2.4-.6 3.2-.1l8.9 5.1c.8.5.7 1.3-.2 1.8L315 397c-1 .6-2.4.6-3.2.2zm-15-8.6l-8.9-5.1c-.8-.5-.7-1.3.2-1.8l8.4-4.8c1-.5 2.4-.6 3.2-.1l8.9 5.1c.8.5.7 1.3-.2 1.8l-8.4 4.8a4 4 0 0 1-3.2.1zm-15-8.6l-8.9-5.1c-.8-.5-.7-1.3.2-1.8l8.4-4.8c1-.5 2.4-.6 3.2-.1l8.9 5.1c.8.5.7 1.3-.2 1.8l-8.4 4.8a4 4 0 0 1-3.2.1zm-15-8.6l-8.9-5.1c-.8-.5-.7-1.3.2-1.8l8.4-4.8c1-.5 2.4-.6 3.2-.1l8.9 5.1c.8.5.7 1.3-.2 1.8l-8.4 4.8a4 4 0 0 1-3.2.1z"/><use href="#J"/><path d="M236.8 354.2l-8.9-5.1c-.8-.5-.7-1.3.2-1.8l8.4-4.8c1-.5 2.4-.6 3.2-.1l8.9 5.1c.8.5.7 1.3-.2 1.8L240 354c-.9.6-2.3.6-3.2.2zm-14.9-8.6l-8.9-5.1c-.8-.5-.7-1.3.2-1.8l8.4-4.8c1-.5 2.4-.6 3.2-.1l8.9 5.1c.8.5.7 1.3-.2 1.8l-8.4 4.8a4 4 0 0 1-3.2.1zm-14.2 8.1l-8.9-5.1c-.8-.5-.7-1.3.2-1.8l8.4-4.8c1-.5 2.4-.6 3.2-.1l8.9 5.1c.8.5.7 1.3-.2 1.8l-8.4 4.8c-1 .5-2.4.6-3.2.1zm-52.1-12.4l-8.9-5.1c-.8-.5-.7-1.3.2-1.8l8.4-4.8c1-.5 2.4-.6 3.2-.1l8.9 5.1c.8.5.7 1.3-.2 1.8l-8.4 4.8c-.9.6-2.4.6-3.2.1zm15.2 8.7l-8.9-5.1c-.8-.5-.7-1.3.2-1.8l8.4-4.8c1-.5 2.4-.6 3.2-.1l8.9 5.1c.8.5.7 1.3-.2 1.8l-8.4 4.8c-1 .5-2.4.6-3.2.1zm15.1 8.7l-8.9-5.1c-.8-.5-.7-1.3.2-1.8l8.4-4.8c1-.5 2.4-.6 3.2-.1l8.9 5.1c.8.5.7 1.3-.2 1.8l-8.4 4.8c-1 .5-2.4.6-3.2.1zM294.4 421l-8.9-5.1c-.8-.5-.7-1.3.2-1.8l8.4-4.8c1-.5 2.4-.6 3.2-.1l8.9 5.1c.8.5.7 1.3-.2 1.8l-8.4 4.8a4 4 0 0 1-3.2.1zm16.4 9.4l-8.9-5.1c-.8-.5-.7-1.3.2-1.8l8.4-4.8c1-.5 2.4-.6 3.2-.1l8.9 5.1c.8.5.7 1.3-.2 1.8l-8.4 4.8c-.9.5-2.3.6-3.2.1z"/><use href="#K"/><path d="M340.6 448l-10-5.7c-.5-.3-.5-.8.1-1.2l2.8-1.6c.6-.4 1.6-.4 2.1-.1l10 5.7c.5.3.5.8-.1 1.2l-2.8 1.6c-.6.4-1.6.4-2.1.1zm-14.6-8.3l-10-5.7c-.5-.3-.5-.8.1-1.2l2.8-1.6c.6-.4 1.6-.4 2.1-.1l10 5.7c.5.3.5.8-.1 1.2l-2.8 1.6c-.6.3-1.5.4-2.1.1zm29.7 17l-10-5.7c-.5-.3-.5-.8.1-1.2l2.8-1.6c.6-.4 1.6-.4 2.1-.1l10 5.7c.5.3.5.8-.1 1.2l-2.8 1.6c-.7.4-1.6.4-2.1.1zm-151.8-87.6l-11.6-6.7c-.9-.5-.8-1.5.3-2.1l8-4.6c1.1-.6 2.7-.7 3.6-.1l11.6 6.7c.9.5.8 1.5-.3 2.1l-8 4.6c-1.1.5-2.7.6-3.6.1zm70.4 40.4l-62-35.6c-2-1.1-1.7-3.1.6-4.4l3.6-2c2.3-1.3 5.7-1.5 7.7-.3l62 35.6c2 1.1 1.7 3.1-.6 4.4l-3.6 2c-2.3 1.2-5.7 1.4-7.7.3zm-51.9-47.3l-8.9-5.1c-.8-.5-.7-1.3.2-1.8l8.4-4.8c1-.5 2.4-.6 3.2-.1l8.9 5.1c.8.5.7 1.3-.2 1.8l-8.4 4.8c-.9.5-2.3.6-3.2.1zm14.9 8.5l-8.9-5.1c-.8-.5-.7-1.3.2-1.8l8.4-4.8c1-.5 2.4-.6 3.2-.1l8.9 5.1c.8.5.7 1.3-.2 1.8l-8.4 4.8c-1 .5-2.4.6-3.2.1zm14.8 8.5l-8.9-5.1c-.8-.5-.7-1.3.2-1.8l8.4-4.8c1-.5 2.4-.6 3.2-.1l8.9 5.1c.8.5.7 1.3-.2 1.8l-8.4 4.8c-1 .5-2.4.6-3.2.1zm14.8 8.5l-8.9-5.1c-.8-.5-.7-1.3.2-1.8l8.4-4.8c1-.5 2.4-.6 3.2-.1l8.9 5.1c.8.5.7 1.3-.2 1.8l-8.4 4.8c-1 .5-2.4.6-3.2.1zm14.8 8.5l-8.9-5.1c-.8-.5-.7-1.3.2-1.8l8.4-4.8c1-.5 2.4-.6 3.2-.1l8.9 5.1c.8.5.7 1.3-.2 1.8l-8.4 4.8a4 4 0 0 1-3.2.1zm14.8 8.5l-8.9-5.1c-.8-.5-.7-1.3.2-1.8l8.4-4.8c1-.5 2.4-.6 3.2-.1l8.9 5.1c.8.5.7 1.3-.2 1.8l-8.4 4.8a4 4 0 0 1-3.2.1zm14.8 8.5l-8.9-5.1c-.8-.5-.7-1.3.2-1.8l8.4-4.8c1-.5 2.4-.6 3.2-.1l8.9 5.1c.8.5.7 1.3-.2 1.8l-8.4 4.8a4 4 0 0 1-3.2.1zm14.8 8.5l-8.9-5.1c-.8-.5-.7-1.3.2-1.8l8.4-4.8c1-.5 2.4-.6 3.2-.1l8.9 5.1c.8.5.7 1.3-.2 1.8l-8.4 4.8a4 4 0 0 1-3.2.1zm14.8 8.5L332 425c-.8-.5-.7-1.3.2-1.8l8.4-4.8c1-.5 2.4-.6 3.2-.1l8.9 5.1c.8.5.7 1.3-.2 1.8l-8.4 4.8c-1 .6-2.4.6-3.2.2zm30.8 17.7L347.6 434c-1.3-.7-1.1-2 .4-2.8l6.5-3.7c1.5-.8 3.7-.9 5-.2l24.1 13.9c1.3.7 1.1 2-.4 2.8l-6.5 3.7c-1.5.8-3.7.9-5 .2zM206.9 337l-8.9-5.1c-.8-.5-.7-1.3.2-1.8l8.4-4.8c1-.5 2.4-.6 3.2-.1l8.9 5.1c.8.5.7 1.3-.2 1.8l-8.4 4.8a4 4 0 0 1-3.2.1zm-14.8-8.5l-15.5-8.9c-1-.6-.9-1.6.3-2.3l7.4-4.3a4.6 4.6 0 0 1 4.1-.2l15.5 8.9c1 .6.9 1.6-.3 2.3l-7.4 4.3c-1.3.7-3.1.8-4.1.2z"/><path d="M191.8 344.6l-29-16.6c-1.3-.7-1.1-2.1.4-2.9l6.3-3.6c1.5-.9 3.8-1 5.1-.2l29 16.6c1.3.7 1.1 2.1-.4 2.9l-6.3 3.6c-1.5.9-3.8 1-5.1.2zm220.1 82.9L390.1 440c-1.3.7-3.5.7-4.8 0l-7.1-4.1c-1.3-.8-1.3-2 0-2.7l9.9-5.7c1.3-.8 1.3-2 0-2.8l-10.6-6.1c-1.1-.6-1.1-1.7 0-2.3l7.9-4.5c1.1-.6 2.9-.6 3.9 0l22.5 12.9c1.4.8 1.5 2 .1 2.8h0zM243.5 325.6l-8.9-5.1c-.8-.5-.7-1.3.2-1.8l8.4-4.8c1-.5 2.4-.6 3.2-.1l8.9 5.1c.8.5.7 1.3-.2 1.8l-8.4 4.8c-.9.6-2.3.6-3.2.1zm15.4 8.9l-8.9-5.1c-.8-.5-.7-1.3.2-1.8l8.4-4.8c1-.5 2.4-.6 3.2-.1l8.9 5.1c.8.5.7 1.3-.2 1.8l-8.4 4.8a4 4 0 0 1-3.2.1zm15.4 8.8l-8.9-5.1c-.8-.5-.7-1.3.2-1.8l8.4-4.8c1-.5 2.4-.6 3.2-.1l8.9 5.1c.8.5.7 1.3-.2 1.8l-8.4 4.8c-1 .5-2.4.6-3.2.1zm15.3 8.8l-8.9-5.1c-.8-.5-.7-1.3.2-1.8l8.4-4.8c1-.5 2.4-.6 3.2-.1l8.9 5.1c.8.5.7 1.3-.2 1.8l-8.4 4.8c-.9.5-2.3.6-3.2.1zm15.4 8.8l-8.9-5.1c-.8-.5-.7-1.3.2-1.8l8.4-4.8c1-.5 2.4-.6 3.2-.1l8.9 5.1c.8.5.7 1.3-.2 1.8l-8.4 4.8c-.9.5-2.4.6-3.2.1zm15.4 8.8l-8.9-5.1c-.8-.5-.7-1.3.2-1.8l8.4-4.8c1-.5 2.4-.6 3.2-.1l8.9 5.1c.8.5.7 1.3-.2 1.8l-8.4 4.8c-1 .5-2.4.6-3.2.1zm15.3 8.8l-8.9-5.1c-.8-.5-.7-1.3.2-1.8l8.4-4.8c1-.5 2.4-.6 3.2-.1l8.9 5.1c.8.5.7 1.3-.2 1.8l-8.4 4.8c-.9.5-2.3.6-3.2.1zm15.4 8.8l-8.9-5.1c-.8-.5-.7-1.3.2-1.8l8.4-4.8c1-.5 2.4-.6 3.2-.1l8.9 5.1c.8.5.7 1.3-.2 1.8l-8.4 4.8c-1 .6-2.4.6-3.2.1zm15.4 8.9l-8.9-5.1c-.8-.5-.7-1.3.2-1.8l8.4-4.8c1-.5 2.4-.6 3.2-.1l8.9 5.1c.8.5.7 1.3-.2 1.8l-8.4 4.8a4 4 0 0 1-3.2.1zm15.3 8.8l-8.9-5.1c-.8-.5-.7-1.3.2-1.8l8.4-4.8c1-.5 2.4-.6 3.2-.1l8.9 5.1c.8.5.7 1.3-.2 1.8l-8.4 4.8c-.9.5-2.3.5-3.2.1zm32.1 18.4l-24.8-14.2c-1.3-.7-1.1-2 .4-2.9l6.4-3.7c1.5-.9 3.7-.9 5-.2l24.8 14.2c1.3.7 1.1 2-.4 2.9l-6.4 3.7c-1.4.9-3.7 1-5 .2z"/></g><path d="M216.7 463.1L135 416.2l59.3-34 81.7 46.9-59.3 34zm-81.1-46.9l81.1 46.5 58.6-33.6-81.1-46.5-58.6 33.6z" stroke="#bed3f4" class="d i l"/><linearGradient id="W" gradientUnits="userSpaceOnUse" x1="658.83" y1="396.22" x2="950.94" y2="565.92"><stop offset="0" stop-color="#e5faff"/><stop offset="1" stop-color="#bdd2f4"/></linearGradient><path d="M499.2 415L227.8 259.3c-3.6-2.1-7-6.4-8.5-11.1l-.3-1.2-2-208.6c0-2.8.9-4.8 2.6-5.8s4-.8 6.4.6l275 157.9a18.8 18.8 0 0 1 6.4 6.7c1.7 2.9 2.6 6.1 2.6 8.8l-2 206.2-.4.8c-1.5 2.9-4.8 3.5-8.4 1.4h0zM227.9 249.1L499 404.7l2-203.4L226 43.5l1.9 205.6h0z" fill="url(#W)"/><linearGradient id="X" gradientUnits="userSpaceOnUse" x1="222.52" y1="54.01" x2="485.66" y2="379.83"><stop offset="0" stop-color="#3b92ff"/><stop offset="1" stop-color="#4f9eff"/></linearGradient><path d="M503.1 208.3L501 410.9c-.8 1.5-2.5 1.8-4.4.7L225.4 255.9a6.1 6.1 0 0 1-1.6-1.2c-1.2-1.2-2.2-2.8-2.8-4.5l-2.1-205c-1.1-4.3.7-7.4 3.4-5.8l277.5 159.2s.1.1.2.1a9.7 9.7 0 0 1 3.1 9.6h0z" fill="url(#X)"/><linearGradient id="Y" gradientUnits="userSpaceOnUse" x1="655.01" y1="397.15" x2="947.12" y2="566.85"><stop offset="0" stop-color="#1c1265"/><stop offset="1" stop-color="#0f042e"/></linearGradient><path d="M496.7 416.7L225.4 261c-3.6-2.1-7-6.4-8.5-11.1l-.4-1.2-2-208.6c0-2.8.9-4.8 2.6-5.8s4-.8 6.4.6l275.1 157.9a18.8 18.8 0 0 1 6.4 6.7c1.7 2.9 2.6 6.1 2.6 8.8l-2 206.2-.4.8c-1.6 3-4.9 3.5-8.5 1.4h0zM225.5 250.8l271.1 155.6 2-203.4L223.5 45.2l2 205.6z" fill="url(#Y)"/><linearGradient id="Z" gradientUnits="userSpaceOnUse" x1="394.8" y1="288.27" x2="317.32" y2="143.3"><stop offset="0" stop-color="#f5f5f5"/><stop offset=".05" stop-color="#c7c7c7"/><stop offset=".09" stop-color="#9c9c9c"/><stop offset=".14" stop-color="#777"/><stop offset=".2" stop-color="#565656"/><stop offset=".25" stop-color="#3b3b3b"/><stop offset=".32" stop-color="#252525"/><stop offset=".4" stop-color="#141414"/><stop offset=".49" stop-color="#080808"/><stop offset=".63" stop-color="#010101"/><stop offset="1"/></linearGradient><path d="M225.5 250.8l-2-205.7L498.6 203c-91.5 61.8-239.6 67.1-273.1 47.8z" opacity=".1" fill="url(#Z)"/><g class="c"><path d="M469.6 216.9v186.3c0 7.9-5.6 11.2-12.6 7.2L180.7 251.7c-7-4-12.6-13.7-12.6-21.6V43.7c0-7.9 5.6-11.2 12.6-7.2L457 195.2c7 4 12.6 13.7 12.6 21.7h0z"/><path d="M170.2 35.9c2.2-1.2 5.2-1.1 8.7.9l276.3 158.6c3.4 2 6.6 5.4 8.8 9.2 2.3 3.9 3.7 8.3 3.7 12.2v186.3c0 3.9-1.4 6.6-3.6 7.9-2.1 1.2-5.1 1.1-8.4-.7l-.3-.2-276.2-158.6h0c-3.4-2-6.6-5.4-8.8-9.2-2.3-3.9-3.7-8.3-3.7-12.2V43.7c0-3.9 1.4-6.6 3.5-7.8z" fill-opacity=".4" stroke="#0668e1" stroke-width=".47"/></g><defs><path id="a" d="M220.7 164.9l228.6 131.3c1.9 1.1 3.4 3.7 3.4 5.8v94.3c0 2.1-1.5 3-3.4 1.9L220.7 267c-1.9-1.1-3.4-3.7-3.4-5.8v-94.3c0-2.2 1.5-3 3.4-2z"/></defs><clipPath id="b"><use href="#a"/></clipPath><g clip-path="url(#b)"><path d="M220.7 164.9l228.6 131.3c1.9 1.1 3.4 3.7 3.4 5.8v94.3c0 2.1-1.5 3-3.4 1.9L220.7 267c-1.9-1.1-3.4-3.7-3.4-5.8v-94.3c0-2.2 1.5-3 3.4-2z" class="c"/><g class="d"><path d="M223.6 182l223.1 128.1" stroke="#d4d4d4" stroke-width=".24"/><ellipse transform="matrix(.8654 -.501 .501 .8654 -82.9195 233.0338)" cx="392.4" cy="270.9" rx="1.5" ry="2.7" stroke="#1b1c17" stroke-width=".49"/></g><g class="f"><ellipse transform="matrix(.8654 -.501 .501 .8654 -82.9192 233.0341)" cx="392.4" cy="270.9" rx="1.2" ry="2.1"/><path d="M398.1 273c.2.1.3.2.5.3.1.1.2.2.2.4.1.2.1.3.1.6 0 .2 0 .4-.1.5 0 .1-.1.1-.2.1s-.2-.1-.4-.2c-.1-.1-.2-.1-.3-.2s-.2-.1-.2-.2-.1-.1-.2-.1-.1-.1-.1-.1v-.2c.1.1.2.1.4.2.1.1.3.1.4.2s.2.1.3.1.1 0 .1-.1v-.3-.3c0-.1-.1-.2-.1-.2-.1-.1-.1-.1-.3-.2s-.4-.2-.5-.3-.2-.1-.3-.1v-.3c.1 0 .2.1.2.1.1 0 .2.1.2.1.1 0 .2.1.3.2zm-.5-.3v2.7l-.3-.2v-2.7l.3.2zm1.9 1.9v.4.1 1.5l-.3-.2v-1.9l.3.1zm.8.4v.3l-.1-.1c-.1-.1-.2-.1-.3-.1h-.3v-.2c.1 0 .2-.1.4-.1 0 .1.1.1.3.2h0zm.7.4v1.9l-.3-.2v-1.9l.3.2zm-.1-.8c.1 0 .1.1.1.2v.2c0 .1 0 .1-.1.1l-.2-.1c-.1 0-.1-.1-.1-.2v-.2c0-.1 0-.1.1-.1l.2.1zm2.6 2.2c.1.1.3.2.3.3.1.1.1.3.1.5v1.4l-.3-.2v-1.3c0-.1 0-.2-.1-.3 0-.1-.1-.1-.2-.2-.1 0-.1 0-.2-.1h-.2-.2v-.3c.1-.1.2-.1.3-.1.3.2.4.3.5.3zm-1.8-.9v.4.1 1.5l-.3-.2v-1.9l.3.1zm.7.3l.3.3c.1.1.1.3.1.5v1.4l-.3-.2v-1.3c0-.1 0-.2-.1-.3 0-.1-.1-.1-.2-.2-.1 0-.1-.1-.2-.1h-.2-.2v-.3c.1-.1.2-.1.3-.1.3.2.4.2.5.3zm2.8 1.6c.1.1.2.2.3.2.1.1.2.2.2.3s.1.3.1.4v1.3l-.3-.1v-.4-.1-.9c0-.1 0-.2-.1-.3 0-.1-.1-.1-.3-.2-.1 0-.2-.1-.3-.2s-.3-.1-.4-.2v-.3c.1 0 .2.1.3.1s.2.1.3.1c0 .2.1.3.2.3zm.4 1v.3l-.8-.4h-.2v.1.1c0 .1 0 .2.1.2 0 .1.1.1.2.2.1 0 .1.1.2.1h.2c.1 0 .1 0 .2-.1v.2s-.1 0-.1.1h-.2-.2c-.1 0-.2 0-.3-.1s-.2-.1-.3-.2-.1-.2-.2-.3c0-.1-.1-.2-.1-.3v-.2c0-.1 0-.2.1-.3.1 0 .2 0 .3.1l1.1.5zm.9-.2v.4.1 1.5l-.3-.2v-1.9l.3.1zm.8.4v.3l-.1-.1c-.1-.1-.2-.1-.3-.1h-.3v-.2c.1 0 .2-.1.4-.1 0 .1.2.1.3.2h0zm1.9 1.1l-.6 1.6c0 .1-.1.1-.1.2s-.1.1-.2.1h-.2c-.1 0-.2 0-.3-.1v-.3h.3c.1 0 .1-.1.2-.2l.1-.2s0-.1.1-.1c0-.1 0-.1.1-.1l.4-1.1.2.2zm-1.4-.7l.4 1.6v.1.1h.1l-.1.2-.1-.1s-.1 0-.1-.1v-.1l-.6-2.1.4.4zm3 .9c.1.1.2.1.3.2s.2.2.4.3v.3c-.1-.1-.2-.1-.3-.2s-.2-.1-.3-.2c-.1 0-.1-.1-.2-.1h-.1s-.1 0-.1.1v.2c0 .1 0 .2.1.3 0 .1.1.2.2.2l.5.4c.2.2.3.3.4.5s.1.3.1.6v.3c0 .1-.1.1-.1.1h-.2c-.1 0-.2-.1-.4-.2-.1 0-.2-.1-.3-.2s-.3-.2-.4-.3v-.3c.1.1.2.1.3.2s.2.1.2.1c.1 0 .1.1.2.1.1.1.2.1.3.1h.1v-.2-.2c0-.1 0-.1-.1-.2 0-.1-.1-.1-.2-.2l-.5-.4c-.2-.2-.3-.3-.4-.5s-.1-.3-.1-.5v-.4c0-.1.1-.1.1-.1h.2c.1 0 .2.1.3.2zm2.6 2.3l-.5.4h-.1-.1 0s0 .1.1.1c0 0 0 .1.1.1l.6 1.2-.4-.2-.6-1.4.6-.5.3.3zm-1-1.5v1.2.2.2.2.2.6l-.3-.2V281l.3.1zm.2 1.7v.3l-.4-.2v-.3l.4.2zm1.5.2v1.9l-.3-.2v-1.9l.3.2zm-.1-.9c.1 0 .1.1.1.2v.2c0 .1 0 .1-.1.1l-.2-.1c-.1 0-.1-.1-.1-.2v-.2c0-.1 0-.1.1-.1l.2.1zm1 .5v2.2c0 .1 0 .2.1.2 0 .1.1.1.2.2l.2.1v.3h-.1s-.1 0-.1-.1c0 0-.1 0-.1-.1l-.3-.3c-.1-.1-.1-.3-.1-.4v-2.3l.2.2zm1 .6v2.2c0 .1 0 .2.1.2 0 .1.1.1.2.2l.2.1v.3h-.1s-.1 0-.1-.1c0 0-.1 0-.1-.1l-.3-.3c-.1-.1-.1-.3-.1-.4V283l.2.2zm1.2 1.5c.1 0 .1.1.2.1.1.1.2.1.2.2.1.1.2.1.2.2v.2c-.1-.1-.2-.1-.3-.2s-.2-.1-.3-.2-.2-.1-.2-.1h-.1v.1c0 .1 0 .2.1.2 0 .1.1.1.2.2l.5.4.3.3c.1.1.1.2.1.4s0 .3-.1.3c0 0-.1.1-.2 0-.1 0-.2-.1-.4-.2-.1 0-.2-.1-.3-.2s-.3-.2-.4-.3v-.2c.1 0 .1.1.2.1s.1.1.2.1.1.1.2.1c.1.1.2.1.3.1h.1v-.1c0-.1 0-.2-.1-.2 0-.1-.1-.1-.2-.2l-.5-.4-.2-.2c-.1-.1-.1-.2-.1-.2v-.3c0-.1 0-.2.1-.3 0-.1.1-.1.2 0 .1.2.2.2.3.3z"/></g><ellipse transform="matrix(.8654 -.501 .501 .8654 -88.5588 254.3329)" cx="429.2" cy="292" rx="1.5" ry="2.7" stroke="#606060" stroke-width=".49" class="d"/><path d="M434.9 294.1c.2.1.3.2.4.3s.2.2.2.4c.1.1.1.3.1.5v.3c0 .1-.1.1-.1.1h-.2 0l.1.1c0 .1.1.1.1.2s.1.2.1.2l.2 1-.4-.2-.2-1c0-.1-.1-.2-.1-.3s-.1-.1-.2-.2-.3-.2-.4-.2c-.1-.1-.2-.1-.3-.2-.1 0-.1-.1-.2-.1v-.3l.8.4c.1.1.2.1.3.1s.1 0 .1-.1v-.3-.3c0-.1-.1-.2-.1-.2-.1-.1-.1-.1-.3-.2s-.4-.2-.5-.3-.2-.1-.3-.2v-.3c.1 0 .2.1.2.1.1 0 .2.1.2.1.3.5.4.5.5.6zm-.5-.2v2.7l-.3-.2v-2.7l.3.2zm2.5 2.1c.3.1.4.3.5.5s.2.4.2.6 0 .3-.1.3c-.1.1-.2 0-.3 0l-.9-.5v-.3l.9.5h.1v-.2c0-.1 0-.2-.1-.3s-.2-.2-.3-.2c-.1-.1-.2-.1-.3-.1s-.1 0-.1.1v.4.5c0 .1.1.2.2.3s.2.2.3.2.2.1.3.2.2.1.3.1v.3h-.2c-.1 0-.2-.1-.2-.1-.1 0-.2-.1-.2-.1-.2-.1-.3-.2-.5-.4-.1-.1-.2-.3-.3-.5s-.1-.4-.1-.6 0-.4.1-.5.1-.2.3-.2c0-.2.2-.1.4 0zm1.9 1.1c.1.1.2.2.3.2.1.1.2.2.2.3s.1.3.1.4v1.3l-.3-.1-.1-.4v-.1-.9c0-.1 0-.2-.1-.3 0-.1-.1-.1-.3-.2-.1 0-.2-.1-.3-.2s-.3-.1-.4-.2v-.3c.1 0 .2.1.3.1s.2.1.3.1c.1.2.2.2.3.3zm.4 1v.3l-.8-.4h-.2v.1.1c0 .1 0 .2.1.2 0 .1.1.1.2.2.1 0 .1.1.2.1h.2c.1 0 .1 0 .2-.1v.2s-.1 0-.1.1h-.2-.2c-.1 0-.2 0-.3-.1s-.2-.1-.3-.2-.1-.2-.2-.3c0-.1-.1-.2-.1-.3v-.2c0-.1 0-.2.1-.3.1 0 .2 0 .3.1l1.1.5zm1.2-.1c.1 0 .1.1.2.1.1.1.2.1.2.2.1.1.2.1.2.2v.2c-.1-.1-.2-.1-.3-.2s-.2-.1-.3-.2-.2-.1-.2-.1h-.1v.1c0 .1 0 .2.1.2 0 .1.1.1.2.2l.5.4.3.3c.1.1.1.2.1.4s0 .3-.1.3-.1.1-.2 0c-.1 0-.2-.1-.4-.2-.1 0-.2-.1-.3-.2s-.2-.2-.4-.3v-.2c.1 0 .1.1.2.1s.1.1.2.1.1.1.2.1c.1.1.2.1.3.1h.1v-.1c0-.1 0-.2-.1-.2 0-.1-.1-.1-.2-.2l-.5-.4-.2-.2c-.1-.1-.1-.2-.1-.2v-.3c0-.1 0-.2.1-.3 0-.1.1-.1.2 0 0 .2.2.2.3.3zm1.9 1.1c.2.1.3.2.5.4.1.1.2.3.2.5.1.2.1.4.1.6s0 .4-.1.5c0 .1-.1.2-.2.2s-.3-.1-.5-.2-.3-.2-.5-.4c-.1-.1-.2-.3-.2-.5-.1-.2-.1-.4-.1-.6s0-.4.1-.5.1-.2.2-.2.3.1.5.2zm0 .3c-.1-.1-.2-.1-.3-.1s-.1 0-.1.1v.4.4c0 .1.1.2.1.3.1.1.2.1.3.2s.2.1.3.1.1 0 .1-.1v-.4-.4c0-.1-.1-.2-.1-.3-.1-.1-.2-.1-.3-.2zm2.2 1c.3.2.4.4.4.8v1.4l-.3-.2v-1.3-.3c0-.1-.1-.1-.2-.2s-.2-.1-.3-.1h-.3v-.3c.1 0 .3-.1.4-.1.1.2.2.2.3.3zm-.7-.4v.4.1 1.5l-.3-.2v-1.9l.3.1zm2.2 1.3c.1 0 .1.1.2.1.1.1.2.1.2.2.1.1.2.1.2.2v.2c-.1-.1-.2-.1-.3-.2s-.2-.1-.3-.2-.2-.1-.2-.1h-.1v.1c0 .1 0 .2.1.2 0 .1.1.1.2.2l.5.4.3.3c.1.1.1.2.1.4s0 .3-.1.3c0 0-.1.1-.2 0-.1 0-.2-.1-.4-.2-.1 0-.2-.1-.3-.2s-.2-.2-.4-.3v-.2c.1 0 .1.1.2.1s.1.1.2.1.1.1.2.1c.1.1.2.1.3.1h.1v-.1c0-.1 0-.2-.1-.2 0-.1-.1-.1-.2-.2l-.5-.4-.2-.2c-.1-.1-.1-.2-.1-.2v-.3c0-.1 0-.2.1-.3 0-.1.1-.1.2 0l.3.3z" fill="#606060"/><path d="M225 173.9c.2.1.4.3.6.4s.3.3.3.5c.1.2.1.4.1.7 0 .2 0 .3-.1.4 0 .1-.1.2-.2.2s-.2 0-.3-.1h0s.1.1.1.2c.1.1.1.1.1.2s.1.2.1.3l.3 1.2-.6-.3-.2-1.2c0-.1-.1-.2-.1-.3l-.2-.2c-.2-.1-.3-.2-.5-.3-.1-.1-.2-.1-.3-.2s-.2-.1-.2-.1v-.5l1 .6c.1.1.2.1.3.1s.1 0 .2-.1v-.3-.4c0-.1-.1-.2-.2-.2-.1-.1-.2-.1-.3-.2a3.1 3.1 0 0 1-.6-.4c-.2-.1-.3-.2-.4-.2l-.1-.5c.1.1.2.1.3.2s.2.1.3.2c.3.1.4.2.6.3zm-.6-.3v3.3l-.5-.3v-3.3l.5.3zm3.1 2.7c.3.2.6.4.7.6s.2.5.2.7 0 .4-.1.4c-.1.1-.2 0-.4-.1l-1.2-.7v-.4l1 .6c.1.1.2.1.2 0v-.2c0-.1 0-.2-.1-.3l-.3-.3c-.1-.1-.2-.1-.3-.1s-.1 0-.2.1v.5c0 .2 0 .4.1.5 0 .1.1.3.2.4l.3.3c.1.1.2.1.4.2.1.1.3.1.4.2l.1.4c-.1 0-.2 0-.3-.1-.1 0-.2-.1-.3-.1s-.2-.1-.3-.1c-.3-.1-.5-.3-.6-.5-.2-.2-.3-.4-.3-.6-.1-.2-.1-.5-.1-.8s0-.5.1-.7c.1-.1.2-.2.3-.2a5.2 5.2 0 0 1 .5.3zm1.9 1.1v2.3c0 .1 0 .3-.1.4 0 .1-.1.2-.2.2-.1.1-.2.1-.3.1l-.3-.4c.1-.1.2-.1.2-.2s.1-.2.1-.4v-2.3l.6.3zm-.1-1.1c.1.1.1.1.1.3v.3c0 .1 0 .1-.1.1l-.2-.1c-.1-.1-.2-.1-.2-.3v-.3c0-.1.1-.1.2-.1l.2.1zm1.6 1.9c.3.2.6.4.7.6s.2.5.2.7 0 .4-.1.4c-.1.1-.2 0-.5-.1l-1.2-.7v-.4l1 .6c.1.1.2.1.2 0v-.2c0-.1 0-.2-.1-.3l-.3-.3c-.1-.1-.2-.1-.3-.1s-.1 0-.2.1v.5c0 .2 0 .4.1.5 0 .1.1.3.2.4l.3.3c.1.1.2.1.4.2.1.1.3.1.4.2l.1.4c-.1 0-.2 0-.3-.1-.1 0-.2-.1-.3-.1s-.2-.1-.3-.2c-.3-.1-.5-.3-.6-.5-.2-.2-.3-.4-.3-.6-.1-.2-.1-.5-.1-.8s0-.5.1-.7c.1-.1.2-.2.3-.2.2.2.4.3.6.4zm2.3 1.4c.1 0 .1.1.2.1.1.1.2.1.3.2s.2.1.2.2l-.1.3c-.1-.1-.2-.1-.3-.2s-.2-.1-.3-.2-.3-.1-.3-.1c-.1 0-.1 0-.2.1 0 .1-.1.2-.1.4s0 .4.1.5c0 .1.1.2.2.3l.3.3s.1.1.2.1.1.1.2.1.2.1.2.1l.1.4c-.1 0-.2 0-.4-.1-.1-.1-.3-.1-.4-.2-.2-.1-.4-.3-.6-.5-.1-.2-.3-.4-.3-.6-.1-.2-.1-.5-.1-.8s0-.5.1-.7c.1-.1.2-.2.3-.2.3.2.5.3.7.5zm1.9.4v2.3c0 .1 0 .2.1.2 0 .1.1.1.2.2l.3.2.1.4s-.1 0-.2-.1c-.1 0-.1-.1-.2-.1s-.1-.1-.2-.1c-.2-.1-.3-.2-.4-.4s-.1-.4-.1-.6v-2.5l.4.5zm.6 1v.4l-1.5-.9v-.4l.4.2 1.1.7zm.9.6v2.4l-.5-.3v-2.4l.5.3zm-.1-1.2c.1.1.2.1.2.3v.3c0 .1-.1.1-.2.1l-.2-.1c-.1-.1-.2-.1-.2-.3v-.3c0-.1.1-.1.2-.1l.2.1zm1.6 2c.3.1.5.3.6.5.2.2.3.4.3.6.1.2.1.5.1.8s0 .5-.1.7c-.1.1-.2.2-.3.2s-.3-.1-.6-.2c-.2-.1-.4-.3-.6-.5-.1-.2-.3-.4-.3-.6-.1-.2-.1-.5-.1-.8s0-.5.1-.7c.1-.1.2-.2.3-.2.2 0 .4 0 .6.2zm0 .4c-.1-.1-.2-.1-.3-.1s-.1.1-.2.2v.5.5c0 .1.1.2.2.3s.2.2.3.2c.1.1.2.1.3.1s.1-.1.2-.2v-.5-.5c0-.1-.1-.2-.2-.3 0 0-.1-.1-.3-.2zm2.9 1.2a1.1 1.1 0 0 1 .6 1v1.8l-.5-.3v-1.6c0-.1 0-.2-.1-.3 0-.1-.1-.1-.2-.2s-.2-.1-.3-.1h-.4v-.4c.2-.1.3-.1.5-.1.1.1.2.1.4.2zm-1-.5l.1.5v.1 1.8l-.5-.3v-2.4l.4.3zm4.2 1.4c.1.1.2.1.3.2s.2.1.3.2.2.1.2.2v.4c-.1-.1-.2-.1-.2-.2-.1-.1-.2-.1-.2-.2-.1-.1-.2-.1-.3-.2-.2-.1-.3-.1-.4-.1s-.2.1-.2.3-.1.4-.1.7 0 .6.1.8c0 .2.1.4.2.5s.2.2.4.3.3.2.5.3c.1.1.3.1.4.2v.5c-.1 0-.3-.1-.4-.1s-.3-.1-.5-.3c-.3-.2-.5-.4-.7-.6s-.3-.5-.4-.8-.1-.7-.1-1.1 0-.7.1-1c.1-.2.2-.3.4-.3.1 0 .3.1.6.3zm2.1 1.2c.2.1.4.3.5.4s.2.3.3.4.1.3.1.5v.4c0 .1-.1.2-.1.2h-.3 0c.2.1.3.3.4.5s.1.4.1.6 0 .4-.1.5-.2.2-.3.1c-.1 0-.3-.1-.6-.2-.2-.1-.3-.2-.5-.3s-.3-.2-.5-.3v-.4c.1.1.2.1.3.2s.2.1.3.2.2.1.3.2.3.1.3.1c.1 0 .1 0 .2-.1 0-.1.1-.2.1-.3v-.3c0-.1-.1-.2-.1-.3-.1-.1-.2-.2-.3-.2l-.5-.3v-.4l.5.3c.1.1.2.1.2.1h.1l.1-.1v-.2c0-.1 0-.2-.1-.3 0-.1-.1-.1-.2-.2s-.2-.1-.3-.2-.3-.2-.4-.2c-.1-.1-.2-.1-.3-.2v-.5c.2.1.3.1.4.2.1 0 .3 0 .4.1zm2.7 1.5c.1 0 .2.1.3.2s.2.2.4.3v.4c-.1 0-.1-.1-.2-.1s-.1-.1-.2-.1-.1-.1-.2-.1c-.1-.1-.2-.1-.3-.1s-.2 0-.2.1c-.1.1-.1.2-.1.4v.7.6c0 .2 0 .3.1.4 0 .1.1.2.2.3s.2.2.3.2c.1.1.3.1.3.1.1 0 .1-.1.1-.2v-.4-.4c0-.1-.1-.2-.1-.3-.1-.1-.2-.2-.3-.2s-.2-.1-.2-.1h-.2c-.1 0-.2 0-.3.1v-.3c.1-.1.2-.2.3-.2h.3c.1 0 .2.1.4.2s.4.2.5.4c.1.1.2.3.3.5 0 .2.1.4.1.7v.5c0 .1-.1.2-.1.3-.1.1-.2.1-.3.1s-.3-.1-.5-.2-.4-.2-.5-.4c-.1-.1-.2-.3-.3-.4-.1-.2-.1-.4-.2-.6v-.8c0-.4 0-.7.1-.9 0-.2.1-.4.2-.4.1-.1.2-.1.4 0-.5-.4-.3-.4-.1-.3zm2.3 1.4c.3.2.5.3.6.5.2.2.3.5.3.7.1.3.1.7.1 1.1s0 .7-.1.9-.2.3-.3.4c-.2 0-.4 0-.6-.2-.3-.2-.5-.3-.6-.5-.2-.2-.3-.5-.3-.8-.1-.3-.1-.6-.1-1.1 0-.4 0-.7.1-1 .1-.2.2-.3.3-.4.1.2.4.2.6.4zm0 .5c-.1-.1-.2-.1-.3-.1s-.1 0-.2.1c0 .1-.1.2-.1.3v.6.6c0 .2 0 .3.1.4 0 .1.1.2.2.3s.2.2.3.2c.1.1.2.1.3.1s.1 0 .2-.1c0-.1.1-.2.1-.3v-.6-.6c0-.2 0-.3-.1-.4 0-.1-.1-.2-.2-.3s-.2-.2-.3-.2z"/><g class="e"><use href="#L"/><ellipse transform="matrix(.8654 -.501 .501 .8654 -81.6152 188.146)" cx="309.5" cy="246" rx="1.4" ry="2.4"/></g><g class="g"><path d="M314.1 255.5l17.7 10.2a3.7 3.7 0 0 1 1.7 2.9h0c0 1.1-.8 1.5-1.7 1l-17.7-10.2a3.7 3.7 0 0 1-1.7-2.9h0c0-1.1.8-1.6 1.7-1z"/><ellipse transform="matrix(.8654 -.501 .501 .8654 -85.9916 189.3214)" cx="309.5" cy="254.7" rx="1.4" ry="2.4"/></g><g class="e"><path d="M314.1 264.2l30.3 17.4a3.7 3.7 0 0 1 1.7 2.9h0c0 1.1-.8 1.5-1.7 1l-30.3-17.4a3.7 3.7 0 0 1-1.7-2.9h0c0-1.1.8-1.5 1.7-1z"/><ellipse transform="matrix(.8654 -.501 .501 .8654 -90.3695 190.4972)" cx="309.5" cy="263.5" rx="1.4" ry="2.4"/><path d="M314.1 272.9l51.3 29.5a3.7 3.7 0 0 1 1.7 2.9h0c0 1.1-.8 1.5-1.7 1l-51.3-29.5a3.7 3.7 0 0 1-1.7-2.9h0c0-1.1.8-1.5 1.7-1z"/><ellipse transform="matrix(.8654 -.501 .501 .8654 -94.7438 191.672)" cx="309.5" cy="272.2" rx="1.4" ry="2.4"/></g><g class="g"><path d="M314.1 281.7l30.3 17.4a3.7 3.7 0 0 1 1.7 2.9h0c0 1.1-.8 1.5-1.7 1l-30.3-17.4a3.7 3.7 0 0 1-1.7-2.9h0c0-1.1.8-1.6 1.7-1z"/><ellipse transform="matrix(.8654 -.501 .501 .8654 -99.1217 192.8478)" cx="309.5" cy="281" rx="1.4" ry="2.4"/></g><g class="e"><path d="M314.1 290.4l17.7 10.2a3.7 3.7 0 0 1 1.7 2.9h0c0 1.1-.8 1.5-1.7 1l-17.7-10.2a3.7 3.7 0 0 1-1.7-2.9h0c0-1.1.8-1.5 1.7-1z"/><ellipse transform="matrix(.8654 -.501 .501 .8654 -103.4976 194.0231)" cx="309.5" cy="289.7" rx="1.4" ry="2.4"/></g><g class="g"><path d="M314.1 299.1l51.3 29.5a3.7 3.7 0 0 1 1.7 2.9h0c0 1.1-.8 1.5-1.7 1L314.1 303a3.7 3.7 0 0 1-1.7-2.9h0c0-1.1.8-1.5 1.7-1z"/><ellipse transform="matrix(.8654 -.501 .501 .8654 -107.8759 195.199)" cx="309.5" cy="298.4" rx="1.4" ry="2.4"/></g><g class="j"><path d="M394.9 293.1l30.3 17.4a3.7 3.7 0 0 1 1.7 2.9h0c0 1.1-.8 1.5-1.7 1L394.9 297a3.7 3.7 0 0 1-1.7-2.9h0c0-1.1.8-1.5 1.7-1z"/><ellipse transform="matrix(.8654 -.501 .501 .8654 -93.9881 234.876)" cx="390.3" cy="292.4" rx="1.4" ry="2.4"/></g><g class="e"><path d="M394.9 301.9l13.5 7.7a3.7 3.7 0 0 1 1.7 2.9h0c0 1.1-.8 1.5-1.7 1l-13.5-7.7a3.7 3.7 0 0 1-1.7-2.9h0c0-1.1.8-1.6 1.7-1z"/><ellipse transform="matrix(.8654 -.501 .501 .8654 -98.3659 236.0518)" cx="390.3" cy="301.1" rx="1.4" ry="2.4"/></g><g class="j"><path d="M394.9 310.6l9.3 5.3a3.7 3.7 0 0 1 1.7 2.9h0c0 1.1-.8 1.5-1.7 1l-9.3-5.3a3.7 3.7 0 0 1-1.7-2.9h0c0-1.1.8-1.5 1.7-1z"/><ellipse transform="matrix(.8654 -.501 .501 .8654 -102.7478 237.2287)" cx="390.3" cy="309.9" rx="1.4" ry="2.4"/></g><g class="g"><path d="M394.9 319.3l30.3 17.4a3.7 3.7 0 0 1 1.7 2.9h0c0 1.1-.8 1.5-1.7 1l-30.3-17.4a3.7 3.7 0 0 1-1.7-2.9h0c0-1.1.8-1.5 1.7-1z"/><ellipse transform="matrix(.8654 -.501 .501 .8654 -107.1162 238.4019)" cx="390.3" cy="318.6" rx="1.4" ry="2.4"/></g><g class="e"><path d="M394.9 328.1l30.3 17.4a3.7 3.7 0 0 1 1.7 2.9h0c0 1.1-.8 1.5-1.7 1L394.9 332a3.7 3.7 0 0 1-1.7-2.9h0c0-1.1.8-1.6 1.7-1z"/><ellipse transform="matrix(.8654 -.501 .501 .8654 -111.494 239.5777)" cx="390.3" cy="327.4" rx="1.4" ry="2.4"/></g><g class="j"><path d="M394.9 336.8l47.1 27.1a3.7 3.7 0 0 1 1.7 2.9h0c0 1.1-.8 1.5-1.7 1l-47.1-27.1a3.7 3.7 0 0 1-1.7-2.9h0c0-1.1.8-1.5 1.7-1z"/><ellipse transform="matrix(.8654 -.501 .501 .8654 -115.8704 240.7531)" cx="390.3" cy="336.1" rx="1.4" ry="2.4"/></g><g class="e"><path d="M394.9 345.5l38.7 22.2a3.7 3.7 0 0 1 1.7 2.9h0c0 1.1-.8 1.5-1.7 1l-38.7-22.2a3.7 3.7 0 0 1-1.7-2.9h0c0-1.1.8-1.5 1.7-1z"/><ellipse transform="matrix(.8654 -.501 .501 .8654 -120.2483 241.9289)" cx="390.3" cy="344.8" rx="1.4" ry="2.4"/></g><path d="M277.1 277.7c-2.8 2-6.1 2.9-9.9 2.7s-7.9-1.6-12-3.9c-4.1-2.4-8.3-5.7-12-9.9-3.8-4.1-7.2-8.9-9.9-14.1l22-10 21.8 35.2z" fill="#589aeb"/><path d="M250.3 257.1c.1.1.2.2.3.2.1.1.2.2.2.3.1.1.1.2.1.4v.3c0 .1-.1.1-.1.2l-.2.2-.6.3c.1 0 .1.1.2.1s.1.1.2.1l.7.4v.3l-1.4-.8v-.2-.1l.6-.4.3-.3c.1-.1.1-.2.1-.3v-.2l-.1-.1c-.1 0-.1-.1-.2-.1s-.1-.1-.2-.1-.1-.1-.2-.1-.1-.1-.2-.1v-.3c.1 0 .2.1.2.1.1 0 .1.1.2.1 0 0 0 0 .1.1zm1.8 1s.1.1.2.1.2.1.2.2v.2l-.1-.1s-.1 0-.1-.1c0 0-.1-.1-.2-.1-.1-.1-.2-.1-.2-.1h-.2s-.1.1-.1.3v.5.4c0 .1 0 .2.1.3 0 .1.1.1.1.2l.2.2c.1.1.2.1.2.1.1 0 .1-.1.1-.1v-.3-.3c0-.1-.1-.2-.1-.2l-.2-.2c-.1 0-.1-.1-.2-.1h-.2c-.1 0-.1 0-.2.1v-.2c.1-.1.1-.1.2-.1h.2c.1 0 .2.1.2.1.1.1.3.2.3.3.1.1.1.2.2.3 0 .1.1.3.1.5v.3c0 .1 0 .2-.1.2s-.1.1-.2 0c-.1 0-.2-.1-.3-.1-.1-.1-.3-.2-.4-.3s-.2-.2-.2-.3-.1-.3-.1-.4v-.6c0-.3 0-.5.1-.6 0-.1.1-.2.1-.3.1-.1.2-.1.3 0s.2.1.3.2zm1.1 2.6c.1 0 .1.1 0 0 .1.1.1.1.1.2v.2.1h-.1-.1s-.1 0-.1-.1v-.1-.2-.1c.1-.1.1-.1.2 0h0zm1.2-1.3c.1.1.2.1.3.2l.2.2c0 .1.1.2.1.3v.3.2c0 .1-.1.1-.1.1h-.2 0c.1.1.2.1.2.2s.1.2.1.3v.3c0 .1 0 .3-.1.3 0 .1-.1.1-.2.1s-.2-.1-.4-.2-.3-.2-.4-.3-.2-.2-.2-.3-.1-.2-.1-.4v-.3c0-.1.1-.1.1-.2h.2 0c-.1 0-.1-.1-.2-.2 0-.1-.1-.2-.1-.2v-.3-.3c0-.1.1-.1.1-.1h.2c.3.2.4.3.5.3zm0 1.3c-.1-.1-.2-.1-.2-.1h-.1s-.1 0-.1.1v.2.3c0 .1.1.1.1.2s.2.1.3.2.2.1.3.1.1 0 .1-.1v-.2-.2c0-.1 0-.1-.1-.2l-.1-.1c0-.1-.1-.1-.2-.2zm0-1c-.1-.1-.2-.1-.2-.1-.1 0-.1 0-.1.1v.2.3c0 .1.1.1.1.2l.2.2c.1.1.2.1.2.1.1 0 .1 0 .1-.1v-.2-.3c0-.1-.1-.1-.1-.2s-.1-.1-.2-.2zm1.5.6c.1.1.2.1.3.2s.1.2.2.3v.4.4c0 .1-.1.1-.2.1s-.2 0-.3-.1-.2-.1-.3-.2-.1-.2-.2-.3v-.4-.4c0-.1.1-.1.2-.1s.2 0 .3.1zm0 .2c-.1 0-.1-.1-.2 0 0 0-.1 0-.1.1v.3.3c0 .1 0 .2.1.2 0 .1.1.1.2.1s.1.1.2 0c0 0 .1 0 .1-.1v-.3-.3c0-.1 0-.1-.1-.2-.1 0-.1-.1-.2-.1zm1.5.7l-1.3 1.6-.2-.1 1.3-1.6.2.1zm-.1.9c.1.1.2.1.3.2s.1.2.2.3v.4.4c0 .1-.1.1-.2.1s-.2 0-.3-.1-.2-.1-.3-.2-.1-.2-.2-.3v-.4-.4c0-.1.1-.1.2-.1s.2.1.3.1zm0 .2c-.1 0-.1-.1-.2 0 0 0-.1 0-.1.1v.3.3c0 .1 0 .1.1.2 0 .1.1.1.2.1s.1.1.2 0c0 0 .1 0 .1-.1v-.3-.3c0-.1 0-.1-.1-.2 0 0-.1 0-.2-.1z" class="c"/><path d="M233.2 252.5c-3.5-6.6-5.9-13.6-6.9-20.1-1-6.6-.6-12.6 1.2-17.3l27.7 27.4-22 10z" class="g"/><path d="M234.2 232.5v2.3l-.3-.2v-1.8-.1-.1l-.5-.1v-.3l.5.1.3.2zm1.6.9l.1.1s0 .1.1.1v.1l-.6 1.8-.3-.2.6-1.6v-.1-.1l-1-.6v-.3l1.1.8zm.5 2.2c.1 0 .1.1 0 0 .1.1.1.1.1.2v.2.1h-.1-.1s-.1 0-.1-.1v-.1-.2-.1c.1-.1.1-.1.2 0h0zm1.1-1.3v2.3l-.3-.2v-1.8-.1-.1l-.5-.1v-.3l.5.1.3.2zm.9.5c.1.1.2.1.3.2s.1.2.1.3v.4.4c0 .1-.1.1-.1.1-.1 0-.2 0-.3-.1s-.2-.1-.3-.2-.1-.2-.2-.3v-.4-.4c0-.1.1-.1.2-.1s.2 0 .3.1zm0 .2c-.1 0-.1-.1-.2 0 0 0-.1 0-.1.1v.3.3c0 .1 0 .1.1.2 0 .1.1.1.2.1s.1.1.2 0c0 0 .1 0 .1-.1v-.3-.3c0-.1 0-.1-.1-.2-.1 0-.1-.1-.2-.1zm1.5.7l-1.3 1.6-.2-.1 1.3-1.6.2.1zm-.1.9c.1.1.2.1.3.2s.1.2.2.3v.4.4c0 .1-.1.1-.2.1s-.2 0-.3-.1-.2-.1-.3-.2-.1-.2-.2-.3v-.4-.4c0-.1.1-.1.2-.1s.2.1.3.1zm0 .2c-.1 0-.1-.1-.2 0 0 0-.1 0-.1.1v.3.3c0 .1 0 .1.1.2 0 .1.1.1.2.1s.1.1.2 0c0 0 .1 0 .1-.1v-.3-.3c0-.1 0-.1-.1-.2-.1 0-.1 0-.2-.1z" class="c"/><path d="M227.4 215.1c2.6-6.8 7.8-10.6 14.7-10.6l13.1 38-27.8-27.4z" class="j"/><path d="M236 215.6v2.3l-.3-.2V216v-.1-.1l-.5-.1v-.3l.5.1.3.1zm1.1.6c.1.1.2.2.3.2.1.1.2.2.2.3.1.1.1.2.1.4v.3c0 .1-.1.1-.1.2l-.2.2-.6.4c.1 0 .1.1.2.1s.1.1.2.1l.7.4v.3l-1.4-.8v-.3-.1l.6-.4.3-.3c.1-.1.1-.2.1-.3v-.2c0-.1-.1-.1-.1-.1-.1 0-.1-.1-.2-.1s-.1-.1-.2-.1-.1-.1-.2-.1-.1-.1-.2-.1v-.3c.1 0 .2.1.2.1.1 0 .1.1.2.1 0 .1.1.1.1.1zm1.3 2.7s0 .1 0 0c.1.1.1.1.1.2v.2.1h-.1-.1s-.1 0-.1-.1v-.1-.2-.1c0-.1.1-.1.2 0h0zm1.1-1.3c.1.1.2.2.3.2.1.1.2.2.2.3.1.1.1.2.1.4v.3c0 .1-.1.1-.1.2l-.2.2-.6.4c.1 0 .1.1.2.1s.1.1.2.1l.7.4v.3l-1.4-.8v-.2-.1l.6-.4.3-.3c.1-.1.1-.2.1-.3v-.2c0-.1-.1-.1-.1-.1-.1 0-.1-.1-.2-.1s-.1-.1-.2-.1-.1-.1-.2-.1-.1-.1-.2-.1v-.3c.1 0 .2.1.2.1.1 0 .1.1.2.1 0-.1 0-.1.1 0zm1.5.8c.1.1.2.1.3.2s.1.2.2.3v.4.4c0 .1-.1.1-.2.1s-.2 0-.3-.1-.2-.1-.3-.2-.1-.2-.2-.3v-.4-.4c0-.1.1-.1.2-.1 0 0 .1.1.3.1zm0 .2c-.1 0-.1-.1-.2 0 0 0-.1 0-.1.1v.3.3c0 .1 0 .2.1.2 0 .1.1.1.2.1s.1.1.2 0c0 0 .1 0 .1-.1v-.3-.3c0-.1 0-.1-.1-.2-.1 0-.2 0-.2-.1zm1.4.7l-1.3 1.6-.2-.1 1.3-1.6.2.1zm0 1c.1.1.2.1.3.2s.1.2.2.3v.4.4c0 .1-.1.1-.2.1s-.2 0-.3-.1-.2-.1-.3-.2-.1-.2-.2-.3v-.4-.4c0-.1.1-.1.2-.1s.2 0 .3.1zm0 .2c-.1 0-.1-.1-.2 0 0 0-.1 0-.1.1v.3.3c0 .1 0 .1.1.2 0 .1.1.1.2.1s.1.1.2 0c0 0 .1 0 .1-.1v-.3-.3c0-.1 0-.1-.1-.2-.1 0-.2-.1-.2-.1z" class="c"/><path d="M255.2 208.5c5.7 3.3 11.2 8.4 16 14.7s8.5 13.6 10.9 20.9c2.3 7.3 3.1 14.4 2.2 20.4s-3.3 10.6-7.1 13.3l-22-35.2v-34.1z" class="e"/><path d="M265.8 238.1c.2.1.3.2.4.3s.2.2.2.3.1.2.1.4v.3c0 .1 0 .1-.1.1h-.2 0l.3.3c.1.1.1.3.1.4 0 .2 0 .3-.1.4 0 .1-.1.1-.2.1s-.2-.1-.4-.2c-.1-.1-.2-.1-.3-.2s-.2-.2-.3-.2v-.3c.1 0 .1.1.2.1s.1.1.2.1.1.1.2.1c.1.1.2.1.2.1h.1v-.2-.2c0-.1-.1-.1-.1-.2s-.1-.1-.2-.2l-.4-.2v-.3l.4.2c.1 0 .1.1.2.1h.1v-.1-.1-.2c0-.1-.1-.1-.1-.1-.1 0-.1-.1-.2-.1-.1-.1-.2-.1-.3-.2s-.2-.1-.2-.1v-.3c.1 0 .2.1.3.1-.1-.1 0-.1.1 0zm1.8 1.1s.1.1.2.1c.1.1.2.1.3.2v.3l-.1-.1s-.1 0-.1-.1-.1-.1-.2-.1c-.1-.1-.2-.1-.2-.1h-.1s-.1.1-.1.2v.5.4.3c0 .1.1.1.1.2l.2.2c.1.1.2.1.2.1s.1 0 .1-.1v-.3-.3c0-.1 0-.1-.1-.2 0-.1-.1-.1-.2-.2-.1 0-.1-.1-.2-.1h-.2c-.1 0-.1 0-.2.1v-.2c.1-.1.1-.1.2-.1h.2c.1 0 .2.1.2.1.1.1.3.2.3.3.1.1.1.2.2.3v.5.3c0 .1-.1.2-.1.2s-.1.1-.2 0c-.1 0-.2-.1-.4-.1-.1-.1-.3-.2-.4-.3s-.2-.2-.2-.3c-.1-.1-.1-.3-.1-.4v-.6c0-.3 0-.5.1-.6 0-.1.1-.2.2-.3.1 0 .2-.1.3 0 .1 0 .2.1.3.2zm1.2 2.5l.1.1v.1.2.1h-.1l-.1-.1-.1-.1v-.1-.2-.1c0 0 0 .1.2.1h0zm1.3-1.1s.1.1.2.1c.1.1.2.1.3.2v.3l-.1-.1s-.1 0-.1-.1c0 0-.1-.1-.2-.1-.1-.1-.2-.1-.2-.1-.1 0-.1 0-.1.1 0 0-.1.1-.1.2v.5.4.3c0 .1.1.1.1.2l.2.2c.1.1.2.1.2.1s.1 0 .1-.1v-.3-.3c0-.1-.1-.1-.1-.2s-.1-.1-.2-.2c-.1 0-.1-.1-.2-.1h-.2c-.1 0-.1 0-.2.1v-.2c.1-.1.1-.1.2-.1h.2c.1 0 .2.1.3.1.1.1.3.2.3.3.1.1.1.2.2.3v.5.3c0 .1-.1.2-.1.2s-.1.1-.2 0c-.1 0-.2-.1-.4-.1-.1-.1-.3-.2-.4-.3s-.2-.2-.2-.3c-.1-.1-.1-.3-.1-.4v-.6c0-.3 0-.5.1-.6 0-.1.1-.2.2-.3.1 0 .2-.1.3 0-.1-.1 0 0 .2.1zm1.3.7c.1.1.2.1.3.2s.1.2.2.3v.4.4c0 .1-.1.1-.2.1s-.2 0-.3-.1-.2-.1-.3-.2-.1-.2-.2-.3v-.4-.4c0-.1.1-.1.2-.1s.2.1.3.1zm0 .3h-.1s-.1 0-.1.1v.3.3c0 .1 0 .1.1.2l.1.1h.1s.1 0 .1-.1v-.3-.3c0-.1 0-.1-.1-.2 0-.1-.1-.1-.1-.1zm1.4.6l-1.3 1.6-.2-.1 1.3-1.6.2.1zm0 1c.1.1.2.1.3.2s.1.2.2.3v.4.4c0 .1-.1.1-.2.1s-.2 0-.3-.1-.2-.1-.3-.2-.1-.2-.2-.3v-.4-.4c0-.1.1-.1.2-.1s.2 0 .3.1zm0 .2h-.1s-.1 0-.1.1v.3.3c0 .1 0 .1.1.2l.1.1h.1s.1 0 .1-.1v-.3-.3c0-.1 0-.1-.1-.2 0 0 0-.1-.1-.1z" class="c"/><path d="M242.1 204.5c4.1 0 8.5 1.4 13 4v34l-13-38z" fill="#03397c"/><path d="M247.4 211.1l.1.1s0 .1.1.1v.1l-.6 1.8-.3-.2.6-1.6v-.1-.1l-1-.6v-.3l1.1.8zm.5 2.2h0c.1.1.1.1.1.2v.2.1h-.1-.1s-.1 0-.1-.1v-.1-.2-.1c0-.1.1-.1.2 0h0zm1.1-1.4c.2.1.3.2.4.3s.2.2.2.3.1.2.1.4v.3c0 .1 0 .1-.1.2h-.2 0l.3.3c.1.1.1.3.1.4 0 .2 0 .3-.1.4 0 .1-.1.1-.2.1s-.2-.1-.4-.1c-.1-.1-.2-.1-.3-.2s-.2-.2-.3-.2v-.3c.1 0 .1.1.2.1s.1.1.2.1.1.1.2.1c.1.1.2.1.3.1s.1 0 .1-.1v-.2-.2c0-.1-.1-.1-.1-.2l-.2-.2-.4-.2v-.3l.4.2c.1 0 .1.1.2.1h.1v-.1-.1-.2c0-.1-.1-.1-.1-.2-.1 0-.1-.1-.2-.2s-.2-.1-.3-.2c-.1 0-.2-.1-.2-.1v-.3c.1 0 .2.1.3.1-.2 0-.1.1 0 .1zm1.5.9c.1.1.2.1.3.2s.1.2.1.3v.4.4c0 .1-.1.1-.1.1-.1 0-.2 0-.3-.1s-.2-.1-.3-.2-.1-.2-.2-.3v-.4-.4c0-.1.1-.1.2-.1 0 0 .1 0 .3.1zm0 .2c-.1 0-.1-.1-.2 0 0 0-.1 0-.1.1v.3.3c0 .1 0 .1.1.2 0 .1.1.1.2.1s.1.1.2 0c0 0 .1 0 .1-.1v-.3-.3c0-.1 0-.1-.1-.2-.1 0-.2-.1-.2-.1zm1.4.7l-1.3 1.6-.2-.1 1.3-1.6.2.1zm0 .9c.1.1.2.1.3.2s.1.2.2.3v.4.4c0 .1-.1.1-.2.1s-.2 0-.3-.1-.2-.1-.3-.2-.1-.2-.2-.3v-.4-.4c0-.1.1-.1.2-.1s.2.1.3.1zm0 .2c-.1 0-.1-.1-.2 0 0 0-.1 0-.1.1v.3.3c0 .1 0 .1.1.2 0 .1.1.1.2.1s.1.1.2 0c0 0 .1 0 .1-.1v-.3-.3c0-.1 0-.1-.1-.2-.1 0-.2 0-.2-.1z" class="c"/></g><path d="M220.7 165.2l228.6 131.3c1.7 1 3.2 3.4 3.2 5.4v94.3c0 2-1.4 2.8-3.2 1.8L220.7 266.8c-1.7-1-3.2-3.4-3.2-5.4V167c0-2 1.4-2.8 3.2-1.8z" stroke="#c7e0ff" class="d k"/><use href="#M" class="c"/><use href="#M" class="d k m"/><path d="M245.2 154c0 6.1-4.3 8.6-9.6 5.6-5.3-3.1-9.6-10.5-9.6-16.7 0-6.1 4.3-8.6 9.6-5.6 5.3 3.1 9.6 10.5 9.6 16.7zm-15.4-8.9a12.7 12.7 0 0 0 5.8 10c3.2 1.8 5.8.3 5.8-3.4a12.7 12.7 0 0 0-5.8-10c-3.2-1.8-5.8-.3-5.8 3.4z" class="n"/><path d="M235.6 138.2c0-.5.3-.7.8-.4 1.3.8 2.5 1.9 3.6 3.2a22.8 22.8 0 0 1 3.4 5.3c.9 1.9 1.5 3.9 1.7 5.8s.1 3.6-.4 5-1.3 2.5-2.4 3.1-2.4.8-3.8.5-3-1-4.5-2.2a19.3 19.3 0 0 1-3.5-3.5c-.4-.5-.4-1.1-.2-1.3l1.4-1.4c.2-.3.7-.1 1.1.4.6.7 1.2 1.3 1.8 1.8a6.7 6.7 0 0 0 2.7 1.3c.9.2 1.7.1 2.3-.3s1.1-1 1.4-1.8a5.9 5.9 0 0 0 .2-3 12.4 12.4 0 0 0-1-3.5 9.9 9.9 0 0 0-2.1-3.2 7.5 7.5 0 0 0-1.9-1.7c-.4-.3-.8-.9-.8-1.4v-2.7z" fill="#519de9"/><path d="M254.7 152.9c.2.1.4.3.5.4s.2.3.3.4c.1.2.1.4.1.6s0 .3-.1.4c0 .1-.1.1-.2.2h-.3 0l.1.1c0 .1.1.1.1.2s.1.2.1.3l.2 1.1-.5-.3-.2-1.1c0-.1-.1-.2-.1-.3s-.1-.1-.2-.2c-.2-.1-.3-.2-.4-.2-.1-.1-.2-.1-.3-.2-.1 0-.1-.1-.2-.1v-.4l.9.5c.1.1.2.1.3.1s.1 0 .1-.1v-.3-.3c0-.1-.1-.2-.1-.2-.1-.1-.2-.1-.3-.2l-.6-.3c-.2-.1-.3-.2-.3-.2l-.1-.4c.1 0 .2.1.3.1s.2.1.3.2c.3.1.4.2.6.2zm-.5-.2v3.1l-.5-.3v-3.1l.5.3zm2.7 2.4c.3.2.5.4.7.6.1.2.2.4.2.7 0 .2 0 .3-.1.4s-.2 0-.4-.1l-1.1-.6v-.3l1 .5c.1.1.1.1.2 0v-.2c0-.1 0-.2-.1-.3s-.2-.2-.3-.2c-.1-.1-.2-.1-.3-.1s-.1 0-.1.1v.4.5c0 .1.1.2.2.3s.2.2.3.2c.1.1.2.1.3.2s.2.1.4.2v.4c-.1 0-.1 0-.2-.1-.1 0-.2-.1-.3-.1s-.2-.1-.3-.1c-.2-.1-.4-.3-.6-.4-.1-.2-.2-.3-.3-.5s-.1-.4-.1-.7 0-.5.1-.6.2-.2.3-.2c.1-.2.3-.1.5 0zm1.8 1.1v2.1c0 .1 0 .2-.1.3 0 .1-.1.2-.2.2-.1.1-.1.1-.2.1l-.3-.4.2-.2c0-.1.1-.2.1-.3v-2.1l.5.3zm-.1-1c.1.1.1.1.1.2v.2c0 .1 0 .1-.1.1l-.2-.1c-.1-.1-.1-.1-.1-.2v-.2c0-.1 0-.1.1-.1l.2.1zm1.5 1.7c.3.2.5.4.7.6.1.2.2.4.2.7 0 .2 0 .3-.1.4s-.2 0-.4-.1l-1.1-.6v-.3l1 .5c.1.1.1.1.2 0v-.2c0-.1 0-.2-.1-.3s-.2-.2-.3-.2c-.1-.1-.2-.1-.3-.1s-.1 0-.1.1v.4c0 .2 0 .4.1.5 0 .1.1.2.2.3s.2.2.3.2c.1.1.2.1.3.2s.2.1.4.2v.4c-.1 0-.1 0-.2-.1-.1 0-.2-.1-.3-.1s-.2-.1-.3-.1c-.2-.1-.4-.3-.6-.4-.1-.2-.2-.3-.3-.5s-.1-.4-.1-.7 0-.5.1-.6.2-.2.3-.2c0-.2.2-.1.4 0zm2.1 1.3c.1 0 .1.1.2.1.1.1.2.1.2.2.1.1.2.1.2.2l-.1.3c-.1-.1-.2-.1-.3-.2s-.2-.1-.2-.1c-.1-.1-.2-.1-.3-.1s-.1 0-.2.1v.4.5c0 .1.1.2.2.3s.2.2.3.2c0 0 .1 0 .2.1.1 0 .1.1.2.1s.1.1.2.1v.4c-.1 0-.2 0-.3-.1s-.2-.1-.4-.2-.4-.3-.5-.4c-.1-.2-.2-.3-.3-.5s-.1-.4-.1-.7 0-.5.1-.6.2-.2.3-.2c.2-.1.4-.1.6.1zm1.7.4v2.1c0 .1 0 .2.1.2 0 .1.1.1.2.2l.3.1v.4s-.1 0-.2-.1c-.1 0-.1-.1-.2-.1s-.1-.1-.2-.1c-.2-.1-.3-.2-.4-.4s-.1-.3-.1-.5v-2.3l.5.5zm.6.9v.4l-1.4-.8v-.4l.4.2 1 .6z" class="f"/><path d="M254.8 161.4c.1.1.2.1.4.2s.3.2.5.4v.6c-.1-.1-.2-.1-.3-.2s-.2-.1-.3-.2-.2-.1-.3-.2c-.2-.1-.3-.1-.4-.2-.1 0-.2 0-.2.1-.1.1-.1.2-.1.4v.8.7a.9.9 0 0 0 .1.5c0 .1.1.2.2.3s.2.2.3.2c.2.1.3.1.4.1s.1-.1.1-.2v-.4-.5c0-.1-.1-.2-.2-.3l-.3-.3c-.1-.1-.2-.1-.3-.1h-.3c-.1 0-.2 0-.4.1v-.4l.3-.3c.1-.1.2-.1.4 0 .1 0 .3.1.5.2.3.2.5.3.6.5.2.2.3.4.3.6.1.2.1.5.1.8s0 .5-.1.6c0 .2-.1.3-.2.4s-.2.1-.4.1-.4-.1-.7-.3-.5-.3-.7-.5-.3-.4-.4-.6-.2-.5-.2-.8-.1-.7-.1-1.1c0-.5 0-.9.1-1.1.1-.3.2-.4.3-.5s.3-.1.5 0c.3.4.5.5.8.6zm3.1 1.8c.4.2.6.4.8.7s.4.6.5 1 .1.8.1 1.4c0 .5 0 1-.1 1.2-.1.3-.2.4-.5.4-.2 0-.5-.1-.8-.3-.4-.2-.6-.4-.8-.7s-.4-.6-.5-1-.1-.8-.1-1.4c0-.5 0-1 .1-1.2.1-.3.2-.4.5-.5.1.1.4.2.8.4zm-.1.7c-.1-.1-.2-.1-.3-.1s-.1 0-.2.1c0 .1-.1.2-.1.4v.7.8c0 .2.1.4.1.5s.1.2.2.3.2.2.3.2c.1.1.2.1.3.1s.1 0 .2-.1c0-.1.1-.2.1-.4v-.7-.8c0-.2-.1-.4-.1-.5s-.1-.3-.2-.3c0 0-.1-.1-.3-.2zm2.9.9c.2.1.4.3.6.4.1.2.2.3.3.6.1.2.1.5.1.8s0 .6-.1.7c-.1.2-.2.2-.3.2s-.3-.1-.6-.2c-.2-.1-.4-.3-.5-.4-.1-.2-.2-.3-.3-.6-.1-.2-.1-.5-.1-.8s0-.6.1-.7c.1-.2.2-.2.3-.2s.2.1.5.2zm0 .5c-.1-.1-.2-.1-.2-.1s-.1.1-.1.2v.5.5c0 .1.1.2.1.3s.1.1.2.2.2.1.2.1c.1 0 .1-.1.1-.2v-.5-.5c0-.1-.1-.2-.1-.3-.1-.1-.1-.2-.2-.2zm2.7 1.1l-2.2 3-.5-.3 2.2-3 .5.3zm-.1 1.8c.2.1.4.3.5.4.1.2.2.3.3.6.1.2.1.5.1.8s0 .5-.1.7-.2.2-.3.2-.3-.1-.5-.2-.4-.3-.5-.4l-.3-.6c-.1-.2-.1-.5-.1-.8s0-.6.1-.7c.1-.2.2-.2.3-.2s.3.1.5.2zm0 .5c-.1-.1-.2-.1-.2-.1s-.1.1-.1.2v.5.5c0 .1.1.2.1.3s.1.1.2.2.2.1.2.1.1-.1.1-.2v-.5-.5c0-.1-.1-.2-.1-.3s-.1-.1-.2-.2z" class="h"/><path d="M291.3 165.2l59.3 34.1c1.6.9 2.9 3.1 2.9 5v24c0 1.8-1.3 2.6-2.9 1.7l-59.3-34.1c-1.6-.9-2.9-3.1-2.9-5v-24c0-1.9 1.3-2.6 2.9-1.7z" class="c"/><path d="M291.3 165.2l59.3 34.1c1.6.9 2.9 3.1 2.9 5v24c0 1.8-1.3 2.6-2.9 1.7l-59.3-34.1c-1.6-.9-2.9-3.1-2.9-5v-24c0-1.9 1.3-2.6 2.9-1.7z" class="d k m"/><path d="M315.2 194.2c0 6.1-4.3 8.6-9.6 5.6-5.3-3.1-9.6-10.5-9.6-16.7 0-6.1 4.3-8.6 9.6-5.6a21.5 21.5 0 0 1 9.6 16.7zm-15.4-8.8a12.7 12.7 0 0 0 5.8 10c3.2 1.8 5.8.3 5.8-3.4a12.7 12.7 0 0 0-5.8-10c-3.2-1.8-5.8-.3-5.8 3.4z" class="n"/><path d="M305.6 178.5c0-.5.3-.7.8-.4 1.3.8 2.5 1.9 3.6 3.2a22.8 22.8 0 0 1 3.4 5.3c.9 1.9 1.5 3.9 1.7 5.8a14.4 14.4 0 0 1-.1 4.2c-.1.4-.5.4-.9 0l-2.2-2.1c-.4-.4-.6-1-.5-1.5a8.1 8.1 0 0 0 0-2.2 12.4 12.4 0 0 0-1-3.5 9.9 9.9 0 0 0-2.1-3.2 7.5 7.5 0 0 0-1.9-1.7c-.4-.3-.8-.9-.8-1.4v-2.5z" fill="#06c"/><path d="M324.2 193c.2.1.4.2.5.4.1.1.3.3.3.5.1.2.2.4.2.6s.1.5.1.8 0 .5-.1.7c0 .2-.1.3-.2.4s-.2.1-.3.1-.3-.1-.5-.2-.4-.2-.5-.4c-.1-.1-.3-.3-.3-.5-.1-.2-.2-.4-.2-.6s-.1-.5-.1-.8 0-.5.1-.7c0-.2.1-.3.2-.4s.2-.1.3-.1c.2 0 .3 0 .5.2zm0 .4c-.2-.1-.3-.1-.4-.1s-.1.1-.2.2c0 .1-.1.4-.1.7s0 .5.1.7c0 .2.1.3.2.5.1.1.2.2.4.3s.3.1.4.1.1-.1.2-.2c0-.1.1-.4.1-.7s0-.5-.1-.7c0-.2-.1-.3-.2-.5-.1-.1-.2-.2-.4-.3zm2.9 2.1c.4.2.5.5.5.9v1.6l-.5-.3v-1.5c0-.1 0-.2-.1-.3 0-.1-.1-.1-.2-.2s-.2-.1-.3-.1h-.4v-.3c.1-.1.3-.1.4-.1.3.1.4.2.6.3zm-.9-.5v.5.1 1.7l-.5-.3v-2.2l.5.2zm4 2.3c.4.2.5.5.5.9v1.6l-.5-.3V198c0-.1 0-.2-.1-.3 0-.1-.1-.1-.2-.2s-.2-.1-.3-.1h-.4v-.3c.1-.1.3-.1.4-.1.3.1.4.2.6.3zm-.8-1.4v.8.3.2.1 1.7l-.5-.3v-3.1l.5.3zm2.7 2.4c.2.1.4.3.6.4.1.2.2.3.3.5s.1.4.1.7 0 .5-.1.6-.2.2-.3.2-.3-.1-.6-.2c-.2-.1-.4-.3-.5-.4-.1-.2-.2-.3-.3-.5s-.1-.4-.1-.7 0-.5.1-.6.2-.2.3-.2.3.1.5.2zm0 .5c-.1-.1-.2-.1-.3-.1s-.1.1-.1.1v.4.5c0 .1.1.2.1.3.1.1.2.2.3.2.1.1.2.1.3.1s.1-.1.1-.1v-.4-.5c0-.1-.1-.2-.1-.3-.1-.1-.2-.2-.3-.2zm1.8-.3v2.5c0 .1 0 .2.1.2 0 .1.1.1.2.2l.2.1.1.4h-.1s-.1 0-.2-.1c-.1 0-.1 0-.1-.1-.2-.1-.3-.2-.4-.4s-.1-.3-.1-.5v-2.6l.3.3zm1.4 1.7c.1.1.3.2.4.3s.2.2.3.4v.3c-.1-.1-.2-.2-.3-.2-.1-.1-.2-.1-.3-.2s-.2-.1-.2-.1c-.1 0-.1.1-.1.1v.4.5c0 .1.1.2.1.3l.2.2c.1 0 .1.1.2.1h.2.2v.3c-.1.1-.2.1-.3.1s-.3 0-.4-.1c-.2-.1-.4-.3-.5-.6s-.2-.6-.2-1c0-.3 0-.5.1-.6s.1-.2.2-.2c.1-.1.3-.1.4 0zm1.1-.2v3.1l-.4-.2v-.4l-.1-.1v-1.5h0v-.3-.3-.6l.5.3z" class="f"/><path d="M325.3 202c.3.2.5.3.7.5s.3.3.4.5.1.4.1.7v.5c0 .1-.1.2-.2.3h-.4 0c.3.2.4.4.5.6s.1.5.2.8c0 .3 0 .5-.1.7-.1.1-.2.2-.4.2s-.4-.1-.8-.3c-.2-.1-.4-.3-.7-.4-.2-.1-.4-.3-.6-.4v-.7c.1.1.3.2.4.3s.2.1.3.2.2.1.3.2c.2.1.3.2.4.2s.2 0 .2-.1.1-.2.1-.4v-.4c0-.1-.1-.2-.2-.3s-.2-.2-.4-.3l-.7-.4v-.6l.7.4c.1.1.2.1.3.1h.2s.1-.1.1-.2v-.2c0-.1 0-.3-.1-.3 0-.1-.1-.2-.2-.2-.1-.1-.2-.2-.4-.2-.2-.1-.4-.2-.5-.3-.2-.1-.3-.2-.5-.2v-.7l.6.3c.3-.2.5-.1.7.1zm3.3 1.8c.4.2.6.4.8.7s.4.6.5 1 .1.8.1 1.4c0 .5 0 1-.1 1.2-.1.3-.2.4-.5.4-.2 0-.5-.1-.8-.3-.4-.2-.6-.4-.8-.7s-.4-.6-.5-1-.1-.8-.1-1.4c0-.5 0-1 .1-1.2.1-.3.2-.4.5-.4.1.1.4.1.8.3zm0 .8c-.1-.1-.2-.1-.3-.1s-.1 0-.2.1c0 .1-.1.2-.1.4v.7.8c0 .2.1.4.1.5s.1.2.2.3.2.2.3.2c.1.1.2.1.3.1s.1 0 .2-.1c0-.1.1-.2.1-.4v-.7-.8c0-.2 0-.4-.1-.5 0-.1-.1-.3-.2-.3-.1-.1-.2-.1-.3-.2zm2.8.9c.2.1.4.3.6.4.1.2.2.3.3.6.1.2.1.5.1.8s0 .5-.1.7-.2.2-.3.2-.3-.1-.6-.2c-.2-.1-.4-.3-.5-.4-.1-.2-.2-.3-.3-.6-.1-.2-.1-.5-.1-.8s0-.6.1-.7c.1-.2.2-.2.3-.2s.3 0 .5.2zm0 .5c-.1 0-.2-.1-.2-.1s-.1.1-.1.2v.5.5c0 .1.1.2.1.3s.1.1.2.2.2.1.2.1c.1 0 .1-.1.1-.2v-.5-.5c0-.1-.1-.2-.1-.3-.1-.1-.1-.2-.2-.2zm2.7 1.1l-2.2 3-.5-.3 2.2-3 .5.3zm0 1.8c.2.1.4.3.5.4.1.2.2.3.3.6.1.2.1.5.1.8s0 .6-.1.7c-.1.2-.2.2-.3.2s-.3-.1-.5-.2-.4-.3-.5-.4l-.3-.6c-.1-.2-.1-.5-.1-.8s0-.6.1-.7c.1-.2.2-.2.3-.2s.2.1.5.2zm0 .5c-.1-.1-.2-.1-.2-.1s-.1.1-.1.2v.5.5c0 .1.1.2.1.3l.2.2c.1.1.2.1.2.1.1 0 .1-.1.1-.2v-.5-.5c0-.1-.1-.2-.1-.3-.1-.1-.2-.1-.2-.2z" class="h"/><use href="#N" class="c"/><use href="#N" class="d k m"/><path d="M385.2 233.4c0 6.1-4.3 8.6-9.6 5.6-5.3-3.1-9.6-10.5-9.6-16.7 0-6.1 4.3-8.6 9.6-5.6a21.5 21.5 0 0 1 9.6 16.7zm-15.5-8.9a12.7 12.7 0 0 0 5.8 10c3.2 1.8 5.8.3 5.8-3.4a12.7 12.7 0 0 0-5.8-10c-3.2-1.7-5.8-.2-5.8 3.4z" class="n"/><path d="M375.5 217.6c0-.5.3-.7.8-.4 1.5 1 3 2.4 4.3 4 .4.5.4 1.1.2 1.3l-1.4 1.4c-.3.3-.7.1-1.1-.4a11.9 11.9 0 0 0-2-1.9c-.4-.3-.8-.9-.8-1.4v-2.6z" fill="#004b95"/><path d="M394 232c.1.1.3.2.4.3s.3.2.4.3v.4c-.1-.1-.2-.1-.4-.2-.1-.1-.3-.2-.4-.2s-.2-.1-.2-.1h-.1s-.1 0-.1.1v.2c0 .1 0 .2.1.3 0 .1.1.2.2.3l.5.5c.2.2.4.4.4.6.1.2.1.4.1.6s0 .3-.1.4c0 .1-.1.1-.2.2h-.3c-.1 0-.3-.1-.4-.2s-.2-.1-.4-.2-.3-.2-.5-.4v-.4c.2.1.3.2.4.2.1.1.2.1.3.2.1 0 .1.1.2.1.1.1.2.1.3.1h.1v-.2-.2c0-.1 0-.1-.1-.2 0-.1-.1-.1-.2-.2l-.5-.5c-.2-.2-.3-.4-.4-.6s-.1-.4-.1-.6 0-.3.1-.4c0-.1.1-.1.2-.2h.3c.1-.2.2-.1.4 0zm2.2 2.2c.1 0 .1.1.2.1.1.1.2.1.2.2.1.1.2.1.2.2l-.1.3c-.1-.1-.2-.1-.3-.2s-.2-.1-.2-.1c-.1-.1-.2-.1-.3-.1s-.1 0-.2.1v.4.5c0 .1.1.2.2.3s.2.2.3.2l.1.1c.1 0 .1.1.2.1s.1.1.2.1v.4c-.1 0-.2 0-.3-.1s-.2-.1-.4-.2-.4-.3-.5-.4c-.1-.2-.2-.3-.3-.5s-.1-.4-.1-.7 0-.5.1-.6.2-.2.3-.2c.3-.1.5-.1.7.1zm2.3 1.3c.4.2.5.5.5.9v1.6l-.5-.3v-1.5c0-.1 0-.2-.1-.3 0-.1-.1-.1-.2-.2s-.2-.1-.3-.1h-.4v-.3c.1-.1.3-.1.4-.1.4.2.5.2.6.3zm-.7-1.3v.8.3.2.1 1.7l-.5-.3v-3.1l.5.3zm2.6 2.4c.3.2.5.4.7.6.1.2.2.4.2.7 0 .2 0 .3-.1.4s-.2 0-.4-.1l-1.1-.6v-.3l1 .5c.1.1.1.1.2 0v-.2c0-.1 0-.2-.1-.3s-.2-.2-.3-.2c-.1-.1-.2-.1-.3-.1s-.1 0-.1.1v.4.5c0 .1.1.2.2.3s.2.2.3.2c.1.1.2.1.3.2s.2.1.4.2v.4c-.1 0-.1 0-.2-.1-.1 0-.2-.1-.3-.1s-.2-.1-.3-.1c-.2-.1-.4-.3-.6-.4-.1-.2-.2-.3-.3-.5s-.1-.4-.1-.7 0-.5.1-.6.2-.2.3-.2c.1-.2.3-.1.5 0zm2 1.1c.1.1.3.2.4.3s.2.2.3.4v.3c-.1-.1-.2-.2-.3-.2-.1-.1-.2-.1-.3-.2s-.2-.1-.2-.1c-.1 0-.1.1-.1.1v.4.5c0 .1.1.2.1.3l.2.2c.1 0 .1.1.2.1h.2.2v.3c-.1.1-.2.1-.3.1s-.3 0-.4-.1c-.2-.1-.4-.3-.5-.6s-.2-.6-.2-1c0-.3 0-.5.1-.6s.1-.2.2-.2c.1-.1.2-.1.4 0zm1.1-.3v3.1l-.4-.2v-.4-.1-1.5h0v-.3-.3-.6l.4.3zm.9 1.5v1.5c0 .1 0 .2.1.3 0 .1.1.1.2.2s.2.1.3.1h.3v.3c-.1.1-.3.1-.4.1s-.3-.1-.4-.1c-.4-.2-.5-.5-.5-.9v-1.6l.4.1zm1.3.8v2.2l-.4-.2-.1-.5v-.1-1.7l.5.3zm1-.4v2.5c0 .1 0 .2.1.2 0 .1.1.1.2.2l.2.1.1.4h-.1s-.1 0-.2-.1c-.1 0-.1 0-.1-.1-.2-.1-.3-.2-.4-.4s-.1-.3-.1-.5V239l.3.3zm1.6 1.8c.3.2.5.4.7.6.1.2.2.4.2.7 0 .2 0 .3-.1.4s-.2 0-.4-.1l-1.1-.6v-.3l1 .5c.1.1.1.1.2 0v-.2c0-.1 0-.2-.1-.3s-.2-.2-.3-.2c-.1-.1-.2-.1-.3-.1s-.1 0-.1.1v.4c0 .2 0 .4.1.5 0 .1.1.2.2.3s.2.2.3.2c.1.1.2.1.3.2s.2.1.4.2v.4c-.1 0-.1 0-.2-.1s-.2-.1-.3-.1-.2-.1-.3-.1c-.2-.1-.4-.3-.6-.4-.1-.2-.2-.3-.3-.5s-.1-.4-.1-.7 0-.5.1-.6.2-.2.3-.2c0-.2.2-.1.4 0z" class="f"/><path d="M397.3 242.4v4.3l-.8-.5v-3.1-.2-.2l-.9-.2-.1-.7 1 .1.8.5zm2.2 1.2c.4.2.6.4.8.7s.4.6.5 1 .1.8.1 1.4c0 .5 0 1-.1 1.2-.1.3-.2.4-.5.4-.2 0-.5-.1-.8-.3-.4-.2-.6-.4-.8-.7s-.4-.6-.5-1-.1-.8-.1-1.4c0-.5 0-1 .1-1.2.1-.3.2-.4.5-.4.2 0 .5.1.8.3zm0 .7c-.1-.1-.2-.1-.3-.1s-.1 0-.2.1c0 .1-.1.2-.1.4v.7.8c0 .2.1.4.1.5s.1.2.2.3.2.2.3.2c.1.1.2.1.3.1s.1 0 .2-.1c0-.1.1-.2.1-.4v-.7-.8c0-.2 0-.4-.1-.5 0-.1-.1-.3-.2-.3s-.2-.1-.3-.2zm2.8.9c.2.1.4.3.6.4.1.2.2.3.3.6.1.2.1.5.1.8s0 .6-.1.7c-.1.2-.2.2-.3.2s-.3-.1-.6-.2c-.2-.1-.4-.3-.5-.4-.1-.2-.2-.3-.3-.6-.1-.2-.1-.5-.1-.8s0-.6.1-.7c.1-.2.2-.2.3-.2s.3.1.5.2zm0 .5c-.1 0-.2-.1-.2-.1s-.1.1-.1.2v.5.5c0 .1.1.2.1.3s.1.1.2.2.2.1.2.1c.1 0 .1-.1.1-.2v-.5-.5c0-.1-.1-.2-.1-.3s-.1-.1-.2-.2zm2.7 1.1l-2.2 3-.5-.3 2.2-3 .5.3zm0 1.8c.2.1.4.3.5.4.1.2.2.3.3.6.1.2.1.5.1.8s0 .6-.1.7c-.1.2-.2.2-.3.2s-.3-.1-.5-.2-.4-.3-.5-.4c-.1-.2-.2-.3-.3-.6-.1-.2-.1-.5-.1-.8s0-.6.1-.7c.1-.2.2-.2.3-.2.1.1.3.1.5.2zm0 .5c-.1 0-.2-.1-.2-.1s-.1.1-.1.2v.5.5c0 .1.1.2.1.3s.1.1.2.2.2.1.2.1c.1 0 .1-.1.1-.2v-.5-.5c0-.1-.1-.2-.1-.3 0 0-.1-.1-.2-.2z" class="h"/><path d="M222.2 104.6c.1 0 .1.1.2.2s.1.2.1.2l1.8 7.3-.8-.5-1.4-6c0-.1 0-.2-.1-.3 0-.1 0-.2-.1-.3l-.2-.1c0 .1 0 .1-.1.2 0 .1 0 .2-.1.2l-1.4 4.4-.8-.5 1.8-5.2c0-.1.1-.1.1-.1h.2l.8.5zm1 4.3v.8l-2.9-1.6v-.8l2.9 1.6zm4.1.4c.5.3.8.7 1.1 1.2.2.5.3 1.2.3 2a3.9 3.9 0 0 1-.2 1.3c-.1.3-.3.4-.5.5-.2 0-.5-.1-.8-.3s-.5-.3-.8-.6c-.2-.2-.5-.5-.7-.8v-.5c.2.2.5.4.6.6.2.2.4.3.6.4s.4.2.5.2.2-.1.3-.3.1-.5.1-1c0-.4 0-.8-.1-1-.1-.3-.1-.5-.3-.7-.1-.2-.3-.3-.5-.4s-.4-.2-.6-.2-.4 0-.7.1l-.1-.6c.1-.1.3-.2.5-.2h.6c.3.1.5.2.7.3zm-1.7-.9l.1 1 .1.2v3 .1.5.5 1.3l-.8-.5V108l.6.4zm6.4 3.6c.5.3.8.7 1.1 1.2.2.5.3 1.2.3 2a3.9 3.9 0 0 1-.2 1.3c-.1.3-.3.4-.5.5-.2 0-.5-.1-.8-.3s-.5-.3-.8-.6c-.3-.2-.5-.5-.7-.8v-.5c.2.2.5.4.6.6.2.2.4.3.6.4s.4.2.5.2.2-.1.3-.3.1-.5.1-1c0-.4 0-.8-.1-1-.1-.3-.1-.5-.3-.7-.1-.2-.3-.3-.5-.4s-.4-.2-.6-.2-.4 0-.7.1l-.1-.6c.1-.1.3-.2.5-.2h.6c.3.1.5.2.7.3zm-1.7-.9l.1 1 .1.2v3 .1.5.5 1.3l-.8-.5v-6.5l.6.4zm4.9.9v5.3c0 .2 0 .4.1.5.1.2.2.3.4.4l.4.2.1.7c-.1 0-.1 0-.2-.1-.1 0-.2-.1-.3-.1s-.2-.1-.3-.1c-.3-.2-.5-.4-.7-.7s-.3-.6-.3-1v-5.5l.8.4zm2.5 3.4v4.6l-.8-.4V115l.8.4zm-.2-2.1c.2.1.2.2.2.4v.5c0 .2-.1.2-.2.1l-.4-.2c-.2-.1-.2-.2-.2-.4v-.5c0-.2.1-.2.2-.1l.4.2zm3.2 3.7c.1.1.3.2.4.3.2.1.3.2.5.3s.3.3.4.4l-.1.5c-.2-.1-.4-.3-.6-.4s-.4-.2-.5-.3c-.3-.2-.5-.3-.7-.3s-.3.1-.4.3-.1.5-.1.9 0 .8.1 1.1.2.5.4.7.4.4.7.6c.1 0 .2.1.3.2s.3.1.4.2c.2.1.3.1.4.2l.1.6c-.2 0-.4-.1-.7-.2-.2-.1-.5-.2-.7-.4a5.3 5.3 0 0 1-1.1-.9c-.3-.3-.5-.7-.6-1.1s-.2-.9-.2-1.5a3.9 3.9 0 0 1 .2-1.3c.1-.3.3-.4.6-.4.4.1.7.2 1.2.5zm4.2 2.4c.3.2.6.4.8.6s.4.5.5.7c.1.3.2.6.2 1v3.2l-.6-.4-.1-1.1v-.1-2.1c0-.3-.1-.5-.2-.7s-.3-.4-.6-.5c-.2-.1-.5-.3-.8-.4-.3-.2-.6-.3-.9-.5l-.1-.7c.2.1.4.2.6.2.2.1.5.2.7.3.1.3.3.4.5.5zm1.1 2.5v.6l-1.9-1.1c-.2-.1-.3-.1-.4-.1-.1.1-.1.2-.1.4v.3c0 .2 0 .4.1.6s.3.3.5.4.3.2.5.2h.6c.2 0 .4-.1.5-.2v.6l-.2.2c-.1.1-.2.1-.4.1h-.5c-.2 0-.4-.1-.6-.2s-.5-.3-.6-.5c-.2-.2-.3-.4-.4-.7s-.2-.5-.2-.8v-.5c0-.4.1-.6.3-.7s.5 0 .8.2l2 1.2zm4 .4c.7.4 1.1 1 1.1 1.9v3.4l-.8-.5V124c0-.3 0-.5-.1-.7s-.2-.3-.4-.4-.5-.2-.7-.2h-.8v-.6c.3-.1.6-.1.9-.1a6.9 6.9 0 0 0 .8.3zm-1.8-.9l.1.9.1.2v3.6l-.8-.4V121l.6.4zm5.2 1.6v4.6c0 .2 0 .4.1.5s.2.3.4.4l.6.3.1.7c-.1 0-.2-.1-.3-.1s-.2-.1-.4-.2c-.1-.1-.2-.1-.3-.1-.3-.2-.6-.4-.8-.8-.2-.3-.3-.7-.3-1.1v-4.8l.9.6zm1.2 2.1v.7l-2.8-1.6v-.6l.8.4 2 1.1zm4.7.7c.4.3.8.5 1.1.8s.5.6.6.9a4.3 4.3 0 0 1 .2 1.2c0 .3 0 .6-.1.8s-.2.3-.3.4c-.1 0-.3 0-.6-.1h0l.3.3c.1.1.2.3.3.5s.1.4.2.6l.5 2.3-.9-.5-.5-2.3c-.1-.3-.2-.5-.3-.7s-.3-.3-.4-.4c-.3-.2-.6-.4-.9-.5a3.1 3.1 0 0 1-.6-.4c-.2-.1-.3-.2-.4-.2v-.7l1.9 1.1c.3.1.5.2.6.3.2 0 .3 0 .3-.2.1-.1.1-.3.1-.7 0-.3 0-.6-.1-.8s-.2-.4-.3-.5c-.2-.2-.4-.3-.6-.5l-1.2-.7c-.3-.2-.6-.3-.7-.4l-.1-.8.6.3.6.3c.1.3.4.4.7.6zm-1.2-.6v6.5l-.8-.5v-6.5l.8.5zm5.9 5.2c.6.4 1.1.7 1.3 1.1a2.3 2.3 0 0 1 .4 1.4c0 .4-.1.7-.2.8-.2.1-.4.1-.8-.1l-2.3-1.3v-.7l2.1 1.2c.2.1.3.1.4 0s.1-.2.1-.4c0-.3-.1-.5-.2-.7s-.4-.4-.7-.6-.5-.2-.7-.2-.3.1-.3.3c-.1.2-.1.5-.1.9 0 .5 0 .9.1 1.1.1.3.2.5.4.7s.4.4.7.5c.2.1.4.2.7.4.3.1.5.2.7.3l.1.6c-.1 0-.3 0-.5-.1s-.4-.1-.6-.2-.4-.2-.5-.3c-.5-.3-.8-.6-1.1-.9s-.5-.7-.6-1.1-.2-.9-.2-1.5a3.9 3.9 0 0 1 .2-1.3c.1-.3.3-.4.6-.4.2.1.5.2 1 .5zm4.1 2.3l.6.3c.2.1.4.3.6.4s.4.3.5.4l-.1.6-.8-.5c-.2-.2-.5-.3-.8-.4l-.6-.3c-.1-.1-.2-.1-.3 0-.1 0-.1.2-.1.3 0 .2 0 .4.1.5s.2.3.4.4l1.1 1c.3.3.6.6.7.8.2.3.2.6.2 1s-.1.6-.2.7-.3.1-.6.1c-.3-.1-.6-.2-1-.5-.1-.1-.4-.2-.7-.4l-1-.7.1-.6c.1.1.3.2.4.3s.3.2.5.3.3.2.5.3c.3.2.5.3.7.4s.3.1.4 0c.1 0 .1-.2.1-.3 0-.2-.1-.4-.2-.5l-.4-.4-1.1-.9c-.2-.2-.4-.4-.5-.6l-.3-.6c-.1-.2-.1-.4-.1-.7 0-.4.1-.6.2-.7s.3-.2.5-.1c.5 0 .8.2 1.2.4zm3.5 2.2v3.2c0 .3 0 .5.1.7s.2.3.5.4c.2.1.4.2.6.2s.5 0 .8-.1l.1.6c-.3.1-.6.1-.9.1s-.6-.1-.9-.3c-.7-.4-1.1-1-1.1-1.9v-3.5l.8.6zm2.8 1.5v4.6l-.6-.4-.1-.9-.1-.2V136l.8.4zm6.1 3.4c.3.2.6.5.8.8s.3.7.3 1.1v3.4l-.8-.4v-3.2c0-.3 0-.5-.1-.7s-.2-.3-.4-.4c-.1-.1-.3-.1-.4-.1h-.4c-.1 0-.3.1-.5.1v-.6c.3-.1.6-.2.8-.2.1 0 .4.1.7.2zm-4.3-2.3l.1.9.1.2v3.6l-.8-.4v-4.6l.6.3zm1.7.8c.3.2.6.5.8.8s.3.7.3 1.1v3.4l-.8-.4V140c0-.3 0-.5-.1-.7s-.2-.3-.4-.4c-.1-.1-.3-.1-.4-.1h-.4c-.1 0-.3.1-.5.1v-.6c.3-.1.6-.2.8-.2s.4.1.7.2zm6.5 3.8c.6.4 1.1.7 1.3 1.1a2.3 2.3 0 0 1 .4 1.4c0 .4-.1.7-.2.8-.2.1-.4.1-.8-.1l-2.3-1.3v-.6l2.1 1.2c.2.1.3.1.4 0s.1-.2.1-.4c0-.3-.1-.5-.2-.7s-.4-.4-.7-.6-.5-.2-.7-.2-.3.1-.3.3c-.1.2-.1.5-.1.9 0 .5 0 .9.1 1.1.1.3.2.5.4.7s.4.4.7.5c.2.1.4.2.7.4.3.1.5.2.7.3l.1.6c-.1 0-.3 0-.5-.1s-.4-.1-.6-.2-.4-.2-.5-.3a5.3 5.3 0 0 1-1.1-.9c-.3-.3-.5-.7-.6-1.1s-.2-.9-.2-1.5a3.9 3.9 0 0 1 .2-1.3c.1-.3.3-.4.6-.4.2 0 .6.1 1 .4zm6.7 2.1c.1 0 .1.1.2.2s.1.2.1.2l1.8 7.3-.8-.5-1.4-6c0-.1 0-.2-.1-.3 0-.1 0-.2-.1-.3l-.2-.1c0 .1 0 .1-.1.2 0 .1 0 .2-.1.2l-1.4 4.4-.8-.5 1.8-5.2c0-.1.1-.1.1-.1h.2l.8.5zm1 4.3v.8l-2.9-1.6v-.8l2.9 1.6zm4.3.5c.7.4 1.1 1 1.1 1.9v3.4l-.8-.5v-3.2c0-.3 0-.5-.1-.7s-.2-.3-.4-.4-.5-.2-.7-.2h-.8v-.6c.3-.1.6-.1.9-.1.2.1.5.2.8.4zm-1.9-1l.1.9.1.2v3.6l-.8-.4v-4.6l.6.3zm6.1 3.4c.3.2.6.4.8.6s.4.5.5.7c.1.3.2.6.2 1v3.2l-.6-.4-.1-1.1v-.1-2.1c0-.3-.1-.5-.2-.7s-.3-.4-.6-.5c-.2-.1-.5-.3-.8-.4-.3-.2-.6-.3-.9-.5l-.1-.7c.2.1.4.2.6.2.2.1.5.2.7.3.1.3.3.4.5.5zm1 2.5v.6l-1.9-1.1c-.2-.1-.3-.1-.4-.1-.1.1-.1.2-.1.4v.3c0 .2 0 .4.1.6s.2.3.5.4c.2.1.3.2.5.2h.6c.2 0 .4-.1.5-.2v.6l-.2.2c-.1.1-.2.1-.4.1h-.5c-.2 0-.4-.1-.6-.2s-.5-.3-.6-.5c-.2-.2-.3-.4-.4-.7s-.2-.5-.2-.8v-.5c0-.4.1-.6.3-.7s.5 0 .8.2l2 1.2zm2.4-2.5v5.3c0 .2 0 .4.1.5.1.2.2.3.4.4l.4.2.1.7c-.1 0-.1 0-.2-.1-.1 0-.2-.1-.3-.1s-.2-.1-.3-.1c-.3-.2-.5-.4-.7-.7s-.3-.6-.3-1V151l.8.4zm5.1 5l-1.6 3.9c-.1.2-.1.3-.3.5-.1.1-.2.3-.4.3-.1.1-.3.1-.5.1s-.4-.1-.7-.2l-.1-.6c.3.1.6.1.8 0s.3-.2.4-.5l.2-.4c0-.1.1-.2.1-.4 0-.1.1-.3.1-.4l1-2.8 1 .5zm-3.3-1.9l1 3.9c0 .1.1.2.1.3s0 .2.1.3l.2.1-.3.5-.2-.1c-.1 0-.1-.1-.2-.2 0-.1-.1-.2-.1-.2L305 154l.8.5zm5.4 3l.6.3c.2.1.4.3.6.4s.4.3.5.4l-.1.6-.8-.5c-.2-.2-.5-.3-.8-.4l-.6-.3c-.1-.1-.2-.1-.3 0s-.1.2-.1.3c0 .2 0 .4.1.5s.2.3.4.4l1.1 1c.3.3.6.6.7.8.2.3.2.6.2 1s-.1.6-.2.7-.3.1-.6.1c-.3-.1-.6-.2-1-.5-.1-.1-.4-.2-.7-.4l-1-.7.1-.6c.1.1.3.2.4.3s.3.2.5.3.3.2.5.3c.3.2.5.3.7.4s.3.1.4 0c.1 0 .1-.2.1-.3 0-.2-.1-.4-.2-.5l-.4-.4-1.1-.9c-.2-.2-.4-.4-.5-.6l-.3-.6c-.1-.2-.1-.4-.1-.7 0-.4.1-.6.2-.7s.3-.2.5-.1c.5 0 .8.1 1.2.4zm3.6 2.2v4.6l-.8-.4v-4.6l.8.4zm-.2-2.1c.2.1.2.2.2.4v.5c0 .2-.1.2-.2.1l-.4-.2c-.2-.1-.2-.2-.2-.4v-.5c0-.2.1-.2.2-.1l.4.2zm2.8 3.5l.6.3c.2.1.4.3.6.4s.4.3.5.4l-.1.6-.8-.5c-.2-.2-.5-.3-.8-.4l-.6-.3c-.1-.1-.2-.1-.3 0-.1 0-.1.2-.1.3 0 .2 0 .4.1.5s.2.3.4.4l1.1 1c.3.3.6.6.7.8.2.3.2.6.2 1s-.1.6-.2.7-.3.1-.6.1c-.3-.1-.6-.2-1-.5-.1-.1-.4-.2-.7-.4l-1-.7.1-.6c.1.1.3.2.4.3s.3.2.5.3.3.2.5.3c.3.2.5.3.7.4s.3.1.4 0c.1 0 .1-.2.1-.3 0-.2-.1-.4-.2-.5l-.4-.4-1.1-.9c-.2-.2-.4-.4-.5-.6l-.3-.6c-.1-.2-.1-.4-.1-.7 0-.4.1-.6.2-.7s.3-.2.5-.1c.6 0 .9.1 1.2.4z" class="f"/><path d="M166.5 55.4L206 78.3v187.2l-26.4-15s-3.8-1.4-8.5-9.4c-2.2-3.8-3.3-10.8-3.3-10.8l-1.3-174.9z" fill="#e1efff" fill-opacity=".6"/><g fill="#b5d6ff"><use href="#O"/><path d="M203.2 145.3l-33.9-19.7v5.6l33.9 19.7v-5.6zm0 9.3L169.3 135v5.6l33.9 19.7v-5.7zm0 9.4l-33.9-19.7v5.6l33.9 19.7V164zm0 9.3l-33.9-19.7v5.6l33.9 19.7v-5.6zm0 78.1l-16.9-8.7v2.5l16.9 8.7v-2.5zm0-6.5l-23.5-11.6v3.3l23.5 11.6v-3.3z"/></g><path d="M166.5,75.1L206,96.6v12.2l-39.5-21.5V75.1z" class="h"/><path d="M170.9 81.8c.2.1.3.2.4.3s.2.1.3.2.2.2.3.2l-.1.6c-.1-.1-.2-.1-.3-.2s-.2-.1-.3-.2-.2-.1-.4-.2-.3-.1-.4-.1-.2.1-.2.3-.1.4-.1.7 0 .6.1.8c0 .2.1.4.2.5s.2.2.4.3l.6.3c.2.1.3.2.5.2l.1.7c-.2 0-.3-.1-.5-.2l-.6-.3a2.7 2.7 0 0 1-.8-.7c-.2-.3-.4-.6-.5-.9s-.1-.8-.1-1.3 0-.9.1-1.1.2-.4.5-.4c.2.2.5.3.8.5zm2.6 1.4c.3.2.5.3.6.5.2.1.3.3.4.5s.1.4.1.6v.4c0 .1-.1.2-.2.2h-.3 0c.2.2.4.4.5.6s.1.5.1.8 0 .5-.1.6-.2.2-.4.2-.4-.1-.7-.3c-.2-.1-.4-.2-.6-.4-.2-.1-.4-.3-.6-.4v-.6c.1.1.3.2.4.2.1.1.2.1.3.2s.2.1.3.2c.2.1.3.1.4.2.1 0 .2 0 .2-.1s.1-.2.1-.3V86c0-.1-.1-.2-.2-.3l-.3-.3-.6-.4v-.6l.6.4c.1.1.2.1.3.1h.1l.1-.1v-.2-.3c0-.1-.1-.2-.2-.2-.1-.1-.2-.1-.3-.2-.2-.1-.3-.2-.5-.3s-.3-.2-.4-.2v-.6c.2.1.4.1.5.2 0 .1.2.1.4.2zm3.1 1.8c.1 0 .2.1.3.2s.3.2.5.4v.5c-.1-.1-.2-.1-.2-.1-.1 0-.1-.1-.2-.1s-.2-.1-.3-.2-.3-.1-.4-.1-.2 0-.2.1-.1.2-.1.4v.8.6c0 .2 0 .3.1.4 0 .1.1.2.2.3s.2.1.3.2.3.1.3.1c.1 0 .1-.1.1-.2v-.4-.4c0-.1-.1-.2-.1-.3-.1-.1-.2-.2-.3-.2-.1-.1-.2-.1-.3-.1h-.2c-.1 0-.2 0-.3.1v-.3l.3-.3c.1 0 .2-.1.3 0 .1 0 .3.1.4.2.3.1.4.3.6.5l.3.6c.1.2.1.5.1.8v.6c0 .2-.1.3-.2.3-.1.1-.2.1-.4.1s-.4-.1-.6-.3c-.2-.1-.4-.3-.6-.4-.2-.2-.3-.3-.4-.5s-.2-.4-.2-.7-.1-.6-.1-1c0-.5 0-.8.1-1s.1-.4.3-.5c.1-.1.3-.1.4 0 .1-.3.3-.2.5-.1zm2.8 1.6c.3.2.6.4.8.6s.3.5.4.9a4.9 4.9 0 0 1 .1 1.3c0 .5 0 .9-.1 1.1-.1.3-.2.4-.4.4s-.4-.1-.8-.2l-.8-.6c-.2-.2-.3-.5-.4-.9-.1-.3-.1-.8-.1-1.3s0-.9.1-1.1.2-.4.4-.4.5 0 .8.2zm0 .7c-.1-.1-.2-.1-.3-.1s-.1 0-.2.1c0 .1-.1.2-.1.4v.7.7c0 .2.1.3.1.5 0 .1.1.2.2.3s.2.2.3.2c.1.1.2.1.3.1s.1 0 .2-.1c0-.1.1-.2.1-.4v-.6-.7c0-.2 0-.3-.1-.5 0-.1-.1-.2-.2-.3-.1-.2-.2-.2-.3-.3zm4.4 2c.1 0 .1.1.2.2 0 .1.1.1.1.2l1 4.2-.8-.4-.7-3.3V90v-.2l-.1-.1v.2.2l-.7 2.5-.8-.4 1-3.1c0-.1 0-.1.1-.1h.2l.5.3zm.5 2.5v.6l-1.8-1v-.6l1.8 1zm2.7.3a1.3 1.3 0 0 1 .7 1.2v2.1l-.7-.4v-1.8c0-.1 0-.2-.1-.3 0-.1-.1-.1-.2-.2s-.2-.1-.3-.1h-.4v-.5c.2-.1.3-.1.5-.1s.4 0 .5.1zm-1.1-.5l.1.6.1.1v2.2l-.7-.4v-2.8l.5.3zm3.7 2c.2.1.4.2.5.4.1.1.2.3.3.5s.1.4.1.7V97l-.6-.3-.1-.7v-.1-1.2c0-.1 0-.3-.1-.3l-.3-.3c-.1-.1-.3-.2-.5-.3l-.6-.3-.1-.6c.1 0 .3.1.4.2.2.1.3.1.5.2.2.2.4.2.5.3zm.6 1.5v.5l-1.1-.6c-.1 0-.2-.1-.2 0 0 0-.1.1-.1.2v.1c0 .1 0 .2.1.3 0 .1.1.1.2.2.1 0 .2.1.3.1h.3c.1 0 .2-.1.3-.1v.2l-.1.1c-.1 0-.1.1-.2.1h-.3c-.1 0-.3-.1-.4-.2s-.3-.2-.4-.3-.2-.3-.3-.4-.1-.3-.1-.5v-.3c0-.2.1-.4.2-.4s.3 0 .5.1l1.3.9zm1.6-1.3v3.1c0 .1 0 .2.1.3 0 .1.1.1.2.2l.2.1.1.6h-.2c-.1 0-.1-.1-.2-.1s-.1-.1-.2-.1a1.2 1.2 0 0 1-.5-.5c-.1-.2-.2-.4-.2-.7v-3.3l.7.4zm3.2 3l-.9 2.3c0 .1-.1.2-.2.3s-.2.2-.3.2c-.1.1-.2.1-.4 0-.1 0-.3-.1-.5-.3l-.1-.5c.2.1.4.1.5 0 .1 0 .2-.1.3-.3l.2-.3c0-.1.1-.1.1-.3 0-.1.1-.2.1-.3l.5-1.5.7.7zm-1.9-1.1l.5 2.1v.2.2l.1.1-.2.4-.2-.1c-.1 0-.1-.1-.1-.1 0-.1-.1-.1-.1-.2l-.8-3 .8.4zm3.2 1.7c.1.1.2.1.4.2.1.1.3.2.4.3l.3.3v.5c-.2-.1-.3-.2-.5-.3s-.3-.2-.5-.3c-.1-.1-.2-.1-.3-.2h-.1v.1c0 .1 0 .2.1.2 0 .1.1.1.2.2l.6.5.5.5c.1.2.1.4.1.6s0 .4-.1.5-.2.1-.4.1-.4-.1-.6-.3c-.1-.1-.3-.2-.5-.3s-.4-.3-.7-.5V99c.1 0 .1.1.2.1.1.1.2.1.3.2s.2.1.3.2c.2.1.3.2.4.2s.1.1.2 0v-.1c0-.1 0-.2-.1-.2l-.3-.3-.6-.5c-.2-.1-.3-.3-.4-.4s-.1-.2-.2-.4v-.4c0-.2 0-.3.1-.4s.2-.1.3-.1c.4.3.6.4.9.5zm2.4 1.5v2.8l-.7-.4v-2.8l.7.4zm-.2-1.4c.1.1.2.2.2.4v.3c0 .2-.1.2-.2.1l-.3-.2c-.1-.1-.2-.2-.2-.4v-.3c0-.2.1-.2.2-.1l.3.2zm1.7 2.2c.1.1.2.1.4.2.1.1.3.2.4.3l.3.3v.5c-.2-.1-.3-.2-.5-.3s-.3-.2-.5-.3c-.1-.1-.2-.1-.3-.2h-.1v.1c0 .1 0 .2.1.2 0 .1.1.1.2.2l.6.5.5.5c.1.2.1.4.1.6s0 .4-.1.5-.2.1-.4.1-.4-.1-.6-.3c-.1-.1-.3-.2-.5-.3s-.4-.3-.7-.5v-.5c.1 0 .1.1.2.1.1.1.2.1.3.2s.2.1.3.2c.2.1.3.2.4.2s.1.1.2 0v-.1c0-.1 0-.2-.1-.2l-.3-.3-.6-.5c-.2-.1-.3-.3-.4-.4s-.1-.2-.2-.4v-.4c0-.2 0-.3.1-.4s.2-.1.3-.1l.9.5z" class="c"/><path d="M169.1 97.7c.2.1.3.2.4.3s.2.1.3.2.2.2.3.2l-.1.6c-.1-.1-.2-.1-.3-.2s-.2-.1-.3-.2-.2-.1-.4-.2-.3-.1-.4-.1-.2.1-.2.3-.1.4-.1.7 0 .6.1.8c0 .2.1.4.2.5s.2.2.4.3l.6.3c.2.1.3.2.5.2l.1.7c-.2 0-.3-.1-.5-.2l-.6-.3c-.3-.2-.6-.4-.8-.7s-.4-.6-.5-.9-.1-.8-.1-1.3 0-.9.1-1.1.2-.4.5-.4c.1.2.4.3.8.5zm2.5 1.5c.3.2.5.3.6.5.2.1.3.3.4.5s.1.4.1.6v.4c0 .1-.1.2-.2.2h-.3 0c.2.2.4.4.5.6s.1.5.1.8 0 .5-.1.6-.2.2-.4.2-.4-.1-.7-.3c-.2-.1-.4-.2-.6-.4-.2-.1-.4-.3-.6-.4v-.6c.1.1.3.2.4.2.1.1.2.1.3.2s.2.1.3.2c.2.1.3.1.4.2.1 0 .2 0 .2-.1s.1-.2.1-.3v-.3c0-.1-.1-.2-.2-.3l-.3-.3-.6-.4v-.6l.6.4c.1.1.2.1.3.1h.1l.1-.1v-.2-.3c0-.1-.1-.2-.2-.2-.1-.1-.2-.1-.3-.2-.2-.1-.3-.2-.5-.3s-.3-.2-.4-.2v-.6c.2.1.4.1.5.2.1 0 .2.1.4.2zm3.1 1.8c.1 0 .2.1.3.2s.3.2.5.4v.5c-.1-.1-.2-.1-.2-.1-.1 0-.1-.1-.2-.1s-.2-.1-.3-.2-.3-.1-.4-.1-.2 0-.2.1-.1.2-.1.4v.8.6c0 .2 0 .3.1.4 0 .1.1.2.2.3s.2.1.3.2.3.1.3.1c.1 0 .1-.1.1-.2v-.4-.4c0-.1-.1-.2-.1-.3-.1-.1-.2-.2-.3-.2-.1-.1-.2-.1-.3-.1h-.2c-.1 0-.2 0-.3.1v-.3l.3-.3c.1 0 .2-.1.3 0 .1 0 .3.1.4.2.3.1.4.3.6.5l.3.6c.1.2.1.5.1.8v.6c0 .2-.1.3-.2.3-.1.1-.2.1-.4.1s-.4-.1-.6-.3c-.2-.1-.4-.3-.6-.4-.2-.2-.3-.3-.4-.5s-.2-.4-.2-.7-.1-.6-.1-1c0-.5 0-.8.1-1s.1-.4.3-.5c.1-.1.3-.1.4 0 .1-.4.3-.3.5-.1zm2.8 1.5c.3.2.6.4.8.6s.3.5.4.9a4.9 4.9 0 0 1 .1 1.3c0 .5 0 .9-.1 1.1-.1.3-.2.4-.4.4s-.4-.1-.8-.2l-.8-.6c-.2-.2-.3-.5-.4-.9-.1-.3-.1-.8-.1-1.3s0-.9.1-1.1.2-.4.4-.4a3.1 3.1 0 0 1 .8.2zm0 .7c-.1-.1-.2-.1-.3-.1s-.1 0-.2.1c0 .1-.1.2-.1.4v.7.7c0 .2.1.3.1.5 0 .1.1.2.2.3s.2.2.3.2c.1.1.2.1.3.1s.1 0 .2-.1c0-.1.1-.2.1-.4v-.6-.7c0-.2 0-.3-.1-.5 0-.1-.1-.2-.2-.3l-.3-.3zm3.8 1.9v2.7c0 .1 0 .2.1.3 0 .1.1.1.2.2l.3.2.1.6c-.1 0-.1 0-.2-.1-.1 0-.2-.1-.3-.1s-.2-.1-.2-.1a1.2 1.2 0 0 1-.5-.5c-.1-.2-.2-.4-.2-.7v-2.9l.7.4zm.6 1.2v.5l-1.8-1v-.5l.5.2 1.3.8zm1.6.8c.4.2.7.5.9.7.2.3.3.6.3.9s-.1.4-.2.5-.3 0-.6-.1l-1.4-.8v-.5l1.2.7c.1.1.2.1.2 0v-.2c0-.1 0-.2-.1-.3l-.3-.3c-.1-.1-.2-.1-.3-.1s-.1 0-.2.1v.5c0 .2 0 .4.1.6 0 .1.1.3.2.4s.2.2.4.3c.1.1.2.1.4.2s.3.2.5.2l.1.6c-.1 0-.2 0-.3-.1-.1 0-.2-.1-.4-.2-.1-.1-.2-.1-.4-.2-.3-.2-.6-.4-.7-.6-.2-.2-.3-.4-.4-.7s-.1-.6-.1-.9c0-.4 0-.6.1-.8s.2-.2.4-.2c0 0 .3.1.6.3zm4.7 2.7a1.2 1.2 0 0 1 .5.5c.1.2.2.4.2.7v2.1l-.7-.4v-1.8c0-.1 0-.2-.1-.3 0-.1-.1-.1-.2-.2-.1 0-.1-.1-.2-.1h-.2-.2v-.5c.2-.1.3-.1.5-.1 0-.1.2 0 .4.1zm-2.5-1.4l.1.6.1.1v2.2l-.7-.4v-2.8l.5.3zm.9.5a1.2 1.2 0 0 1 .5.5c.1.2.2.4.2.7v2.1l-.7-.4V110c0-.1 0-.2-.1-.3 0-.1-.1-.1-.2-.2-.1 0-.1-.1-.2-.1h-.2-.3v-.5c.2-.1.3-.1.5-.1s.4 0 .5.1zm4.4 2.5c.3.2.5.4.7.8.1.3.2.7.2 1.2 0 .4 0 .6-.1.8s-.2.3-.3.3-.3 0-.5-.2c-.2-.1-.3-.2-.5-.4-.2-.1-.3-.3-.4-.5v-.3l.3.3c.1.1.2.2.3.2.1.1.2.1.2.1.1 0 .1-.1.1-.2v-.5-.6c0-.1-.1-.2-.1-.3l-.2-.2c-.1-.1-.2-.1-.3-.1h-.3l-.1-.4c.1-.1.1-.1.2-.1h.3c.2 0 .4 0 .5.1zm-1-.5l.1.5.1.1v1.8.1.4.4.7l-.7-.4v-3.9l.5.3zm3.1.6v3.1c0 .1 0 .2.1.3 0 .1.1.1.2.2l.2.1.1.6h-.2c-.1 0-.1-.1-.2-.1s-.1-.1-.2-.1a1.2 1.2 0 0 1-.5-.5c-.1-.2-.2-.4-.2-.7v-3.3l.7.4zm2.1 2.3c.2.1.4.2.5.4.1.1.2.3.3.5s.1.4.1.7v1.8l-.6-.3-.1-.7v-.1-1.1c0-.1 0-.2-.1-.3l-.3-.3c-.1-.1-.3-.2-.5-.3l-.6-.3-.1-.6c.1 0 .3.1.4.2.2.1.3.1.5.2.3.1.4.2.5.2zm.7 1.5v.5l-1.1-.6c-.1 0-.2-.1-.2 0 0 0-.1.1-.1.2v.1c0 .1 0 .2.1.3 0 .1.1.1.2.2.1 0 .2.1.3.1h.3c.1 0 .2-.1.3-.1v.4l-.1.1c-.1 0-.1.1-.2.1h-.3c-.1 0-.3-.1-.4-.2s-.3-.2-.4-.3-.2-.3-.3-.4c-.1-.2-.1-.3-.1-.5v-.3c0-.2.1-.4.2-.4s.3 0 .5.1l1.3.7zm1.8-.8v2.7c0 .1 0 .2.1.3 0 .1.1.1.2.2l.3.2.1.6c-.1 0-.1 0-.2-.1-.1 0-.2-.1-.3-.1s-.2-.1-.2-.1a1.2 1.2 0 0 1-.5-.5c-.1-.2-.2-.4-.2-.7v-2.9l.7.4zm.7 1.2v.5l-1.8-1v-.5l.5.2 1.3.8zm1.5.8c.4.2.7.5.9.7.2.3.3.5.3.9 0 .3-.1.4-.2.5s-.3 0-.6-.1l-1.4-.8v-.5l1.2.7c.1.1.2.1.2 0v-.2c0-.1 0-.2-.1-.3l-.3-.3c-.1-.1-.2-.1-.3-.1s-.1 0-.2.1v.5c0 .2 0 .4.1.6 0 .1.1.3.2.4s.2.2.4.3c.1.1.2.1.4.2s.3.2.5.2l.1.6c-.1 0-.2 0-.3-.1-.1 0-.2-.1-.4-.2-.1-.1-.2-.1-.4-.2-.3-.2-.6-.4-.7-.6-.2-.2-.3-.4-.4-.7s-.1-.6-.1-.9c0-.4 0-.6.1-.8s.2-.2.4-.2.3.1.6.3zm2.5 1.5c.1.1.2.1.4.2.1.1.3.2.4.3l.3.3v.5c-.2-.1-.3-.2-.5-.3s-.3-.2-.5-.3c-.1-.1-.2-.1-.3-.2h-.1v.1c0 .1 0 .2.1.2 0 .1.1.1.2.2l.6.5c.2.2.4.4.4.5.1.2.1.4.1.6s0 .4-.1.5-.2.1-.4.1-.4-.1-.6-.3c-.1-.1-.3-.2-.5-.3s-.4-.3-.7-.5v-.5c.1 0 .1.1.2.1.1.1.2.1.3.2s.2.1.3.2c.2.1.3.2.4.2s.1.1.2 0v-.1c0-.1 0-.2-.1-.2l-.3-.3-.6-.5c-.2-.1-.3-.3-.4-.4s-.1-.2-.2-.4v-.4c0-.2 0-.3.1-.4s.2-.1.3-.1c.6.2.8.3 1 .5z" class="f"/><path d="M467.9 216.9v12.3L166.4 56V43.7c0-7.9 5.6-11.2 12.6-7.2l276.3 158.6c7 4.1 12.6 13.8 12.6 21.8h0z" class="h"/><path d="M440.7 201.3c0 2.2-1.6 3.1-3.6 2a7.8 7.8 0 0 1-3.6-6.1c0-2.2 1.6-3.1 3.6-2a7.8 7.8 0 0 1 3.6 6.1z" fill="#4bbc79"/><path d="M455.1 209.6c0 2.2-1.6 3.1-3.6 2a7.8 7.8 0 0 1-3.6-6.1c0-2.2 1.6-3.1 3.6-2a7.6 7.6 0 0 1 3.6 6.1z" fill="#f22071"/><path d="M422.7 195.5l-96.5-56.1c-1.4-.8-2.6-3.1-2.6-5s1.2-2.8 2.6-2l96.5 56.1c1.4.8 2.6 3.1 2.6 5 0 2-1.2 2.8-2.6 2z" fill="#dcdcdc"/><path d="M179.8 46.4a3.5 3.5 0 0 1 .9.6c.3.2.5.3.7.5s.4.4.7.6l-.1 1.4c-.3-.2-.5-.3-.7-.4s-.4-.3-.7-.4c-.2-.1-.5-.3-.9-.5s-.7-.3-.9-.2-.4.3-.5.6c-.1.4-.1 1-.1 1.7 0 .8 0 1.4.1 1.9s.2.9.5 1.2c.2.3.5.6.9.8.5.3 1 .5 1.3.7a3.7 3.7 0 0 0 1.1.5l.1 1.6c-.4-.1-.7-.2-1.1-.4l-1.4-.7c-.8-.5-1.5-1-2-1.6s-.8-1.3-1.1-2.1c-.2-.8-.3-1.8-.3-3s.1-2 .3-2.6.6-.8 1.1-.9c.6 0 1.2.2 2.1.7zm8.4 4.8c.6.4 1.1.7 1.5 1.1a2.1 2.1 0 0 1 .8 1.1 3.2 3.2 0 0 1 .3 1.4c0 .4 0 .8-.1 1-.1.3-.2.5-.4.6s-.4.1-.8 0v.1a3.6 3.6 0 0 1 1.1 1.4c.2.5.3 1.1.3 1.8 0 .6-.1 1.1-.3 1.4s-.5.4-.9.4-.9-.3-1.6-.6l-1.4-.9c-.5-.3-.9-.6-1.3-.9l.1-1.4.8.5c.2.1.5.3.7.4s.4.3.7.4l.9.4c.2 0 .4 0 .5-.1s.1-.4.1-.8c0-.3 0-.5-.1-.8-.1-.2-.2-.4-.4-.6s-.4-.4-.8-.6l-1.5-.8v-1.3l1.6.6c.3.1.4.2.6.2s.3 0 .3-.1c.1-.1.1-.2.1-.3v-.5c0-.3 0-.5-.1-.7s-.2-.4-.4-.5c-.2-.2-.4-.3-.7-.5l-1.2-.6c-.4-.2-.7-.4-1-.5l-.1-1.4c.4.2.8.3 1.3.5.6.2 1 .4 1.4.6zm7.3 4.2c.2.1.5.3.8.5l1.1.8-.1 1.2c-.2-.1-.4-.2-.5-.3-.2-.1-.3-.2-.5-.3s-.4-.2-.7-.4-.6-.3-.8-.3-.4 0-.5.2a2 2 0 0 0-.2.9c0 .4-.1 1-.1 1.8V61c0 .4.1.7.1 1 .1.3.2.5.4.7s.4.3.7.5.6.3.8.2c.2 0 .3-.2.3-.4s.1-.5.1-.9 0-.7-.1-1-.2-.5-.3-.7c-.2-.2-.4-.4-.7-.5-.2-.1-.4-.2-.6-.2h-.6c-.2 0-.4.1-.7.2v-.8c.3-.3.5-.5.7-.6s.5-.1.8-.1a6.9 6.9 0 0 1 1 .4c.6.3 1 .7 1.4 1.1.3.4.6.8.7 1.3s.2 1.1.2 1.8c0 .5 0 1-.1 1.4s-.2.6-.4.8-.5.2-.8.1c-.4-.1-.8-.3-1.4-.6s-1-.7-1.4-1a4.7 4.7 0 0 1-.9-1.2c-.2-.5-.4-1-.5-1.7-.1-.6-.1-1.4-.1-2.3 0-1.1.1-1.9.2-2.4.1-.6.3-.9.6-1.1s.6-.2 1-.1l1.1.5zm6.4 3.7c.8.4 1.4.9 1.8 1.5s.8 1.2 1 2.1a12.3 12.3 0 0 1 .3 2.9c0 1.2-.1 2-.3 2.6s-.5.9-1 1c-.4 0-1-.1-1.8-.6-.8-.4-1.4-.9-1.8-1.5s-.8-1.2-1-2.1a12.3 12.3 0 0 1-.3-2.9c0-1.2.1-2 .3-2.6s.5-.9 1-1a4.6 4.6 0 0 1 1.8.6zm0 1.5c-.3-.1-.5-.2-.6-.2-.2 0-.3.1-.4.3s-.2.5-.2.8c0 .4-.1.9-.1 1.5a7.6 7.6 0 0 0 .1 1.6 3.6 3.6 0 0 0 .2 1.1c.1.3.2.5.4.7s.4.4.6.5c.3.1.5.2.7.2s.3-.1.4-.3.2-.5.2-.8c0-.4.1-.9.1-1.5s0-1.2-.1-1.6a3.6 3.6 0 0 0-.2-1.1c-.1-.3-.2-.5-.4-.7-.2-.1-.5-.3-.7-.5z" class="c"/></g></svg>