<svg xmlns="http://www.w3.org/2000/svg" width="600" height="600" fill="none" xmlns:v="https://vecta.io/nano"><style><![CDATA[.B{fill:#044aa0}.C{fill:#fff}.D{fill:#8cbaf1}.E{stroke:#c1c1c1}.F{stroke-width:.11}.G{stroke-dasharray:0.91 0.91}.H{fill:#0668e1}.I{fill-opacity:.1}.J{color-interpolation-filters:sRGB}.K{flood-opacity:0}.L{fill:#606060}.M{fill:#b2d0f6}.N{fill:#3886e7}.O{fill:#d9d9d9}.P{stroke-miterlimit:10}]]></style><g clip-path="url(#Q)"><path d="M280.25 11.98a39.5 39.5 0 0 1 39.5 0l219.81 126.91a39.5 39.5 0 0 1 19.75 34.21v253.81a39.5 39.5 0 0 1-19.75 34.21L319.75 588.02a39.5 39.5 0 0 1-39.5 0L60.44 461.11a39.5 39.5 0 0 1-19.75-34.21V173.09a39.5 39.5 0 0 1 19.75-34.21L280.25 11.98z" fill="#bfd8f7" fill-opacity=".2" stroke="#0668e1"/><path d="M110.83 414.79c3.11-1.28 265.49-146.12 265.49-146.12 5.35-3.07 14.71-2.7 20.9.86L568.38 362s2.36 4.39 1.38 8.93c-.71 3.31-1.67 4.61-3.24 5.71 0 0-.02 0-.04.02-.22.15-.47.32-.73.47-.07.04-.13.09-.19.13L302.98 527.92c-5.35 3.07-14.71 2.7-20.91-.86l-166.86-95.73c-.41-.24-.8-.48-1.18-.74l-.26-.21c-.23-.17-.47-.33-.67-.5-2.62-2.14-3.59-4.61-4.08-7.77-.56-3.53 1.82-7.29 1.82-7.29v-.04z" fill="url(#G)"/><path d="M303 520.68l262.59-150.65c5.35-3.07 4.68-8.44-1.5-12L397.23 262.3c-6.19-3.55-15.55-3.94-20.91-.86L113.73 412.12c-5.35 3.07-4.68 8.44 1.5 12l166.87 95.73c6.19 3.55 15.55 3.94 20.9.86v-.02z" fill="url(#H)"/><g stroke-width=".3" class="P"><use href="#X" stroke="url(#I)"/><use href="#X" stroke="url(#I)"/></g><path d="M376.68 288.03c-1.14-.05-2.2.15-2.94.58L160.09 411.2h0c-.74.42-.96.93-.9 1.37.06.48.46 1.08 1.37 1.6h0l79.42 45.57c.91.51 2.06.81 3.2.86 1.14.05 2.2-.15 2.94-.58l213.65-122.59h0c.74-.42.96-.93.9-1.37-.06-.48-.46-1.09-1.37-1.6l-79.43-45.57h0c-.91-.52-2.06-.81-3.19-.86z" fill="url(#J)" stroke="#a9d0ff" stroke-width=".94"/><path d="M383.31 462.93l81.41-46.7-58.95-33.83-81.41 46.7 58.95 33.83z" fill="url(#K)"/><path d="M143.9 402.71l217.75-124.95-8.68-4.98L135.2 397.7l8.7 5z" fill="url(#L)"/><g fill="#244063"><use href="#Y"/><path d="M357.05 309.36l9.64-5.52c1.24-.71 1.07-1.94-.34-2.75l-2.81-1.62c-1.42-.82-3.57-.91-4.79-.2l-9.64 5.52c-1.24.71-1.07 1.93.34 2.75l2.81 1.62c1.42.82 3.58.91 4.79.21z"/><use href="#Z"/><path d="M326.23 327.05l9.64-5.52c1.24-.71 1.07-1.93-.34-2.75l-2.81-1.62c-1.42-.82-3.57-.91-4.79-.2l-9.64 5.52c-1.24.71-1.07 1.93.34 2.75l2.81 1.62c1.42.82 3.57.91 4.79.2zm-15.42 8.85l9.64-5.52c1.24-.71 1.07-1.94-.34-2.75l-2.81-1.62c-1.42-.82-3.57-.91-4.79-.2l-9.64 5.52c-1.24.71-1.07 1.93.34 2.75l2.81 1.62c1.42.82 3.57.91 4.79.21zm-15.43 8.84l9.64-5.52c1.24-.71 1.07-1.94-.34-2.75l-2.81-1.62c-1.42-.82-3.57-.91-4.79-.2l-9.64 5.52c-1.23.71-1.07 1.93.34 2.75l2.81 1.62c1.42.82 3.57.91 4.79.2zm-15.4 8.85l9.64-5.52c1.23-.71 1.07-1.93-.34-2.75l-2.81-1.62c-1.42-.82-3.58-.91-4.79-.2l-9.64 5.52c-1.24.71-1.07 1.93.34 2.75l2.81 1.62c1.42.82 3.57.91 4.79.2zm-15.42 8.82l9.64-5.52c1.24-.71 1.07-1.93-.34-2.75l-2.81-1.62c-1.42-.82-3.57-.91-4.79-.2l-9.64 5.52c-1.24.71-1.07 1.93.34 2.75l2.81 1.62c1.42.82 3.57.91 4.79.2zm-15.43 8.86l9.64-5.52c1.24-.71 1.07-1.94-.34-2.75l-2.81-1.62c-1.42-.82-3.57-.91-4.79-.21l-9.64 5.52c-1.24.71-1.07 1.94.34 2.75l2.81 1.62c1.42.82 3.57.91 4.79.2z"/><use href="#a"/><path d="M218.29 388.96l9.64-5.52c1.24-.71 1.07-1.93-.34-2.75l-2.81-1.62c-1.42-.82-3.57-.91-4.79-.2l-9.64 5.52c-1.24.71-1.07 1.93.34 2.75l2.81 1.62c1.42.82 3.58.91 4.79.2zm-15.4 8.85l9.64-5.52c1.24-.71 1.07-1.93-.34-2.75l-2.81-1.62c-1.42-.82-3.57-.91-4.79-.2l-9.64 5.52c-1.24.71-1.07 1.94.34 2.75l2.81 1.62c1.42.82 3.57.91 4.79.21zm-15.42 8.84l9.64-5.52c1.24-.71 1.07-1.94-.34-2.75l-2.81-1.62c-1.42-.82-3.57-.91-4.79-.2l-9.64 5.52c-1.24.71-1.07 1.94.34 2.75l2.81 1.62c1.42.82 3.57.91 4.79.2zm-15.42 8.85l9.64-5.52c1.24-.71 1.07-1.93-.34-2.75l-2.81-1.62c-1.42-.82-3.57-.91-4.79-.2l-9.64 5.52c-1.23.71-1.07 1.93.34 2.75l2.81 1.62c1.42.82 3.57.91 4.79.2zm215.11-107.48l8.93-5.12c.82-.46.71-1.28-.22-1.84l-8.38-4.82c-.95-.54-2.38-.59-3.2-.13l-8.93 5.11c-.82.46-.71 1.28.22 1.84l8.38 4.82c.95.54 2.38.59 3.2.13zm6.58 12.28l15.91-9.13c1.05-.61.92-1.67-.3-2.36l-7.41-4.24c-1.22-.71-3.07-.78-4.12-.17l-15.91 9.13c-1.05.61-.92 1.67.3 2.36l7.41 4.24c1.22.71 3.07.78 4.12.17z"/><use href="#b"/><use href="#c"/><path d="M363.94 337.4l8.93-5.12c.82-.46.71-1.28-.23-1.84l-8.38-4.82a3.6 3.6 0 0 0-3.2-.13l-8.93 5.12c-.82.46-.71 1.28.23 1.84l8.38 4.82a3.6 3.6 0 0 0 3.2.13zm-14.99 8.62l8.93-5.12c.82-.47.71-1.28-.22-1.84l-8.39-4.82a3.6 3.6 0 0 0-3.2-.13l-8.93 5.11c-.82.47-.71 1.28.22 1.84l8.38 4.82a3.6 3.6 0 0 0 3.2.13zm-15 8.59l8.93-5.12c.82-.46.71-1.28-.22-1.84l-8.38-4.82c-.95-.54-2.38-.59-3.2-.13l-8.93 5.12c-.82.46-.71 1.28.22 1.84l8.38 4.82c.95.54 2.38.59 3.2.13zm-14.99 8.61l8.93-5.11c.82-.47.71-1.28-.23-1.84l-8.38-4.82a3.6 3.6 0 0 0-3.2-.13l-8.93 5.11c-.82.47-.71 1.28.23 1.84l8.38 4.82a3.6 3.6 0 0 0 3.2.13z"/><use href="#d"/><path d="M288.98 380.4l8.93-5.12c.82-.46.71-1.28-.22-1.84l-8.38-4.82c-.95-.54-2.38-.6-3.2-.13l-8.93 5.12c-.82.46-.71 1.28.23 1.84l8.38 4.82c.96.54 2.38.6 3.2.13z"/><use href="#e"/><path d="M259 397.6l8.93-5.12c.82-.46.71-1.28-.23-1.84l-8.38-4.82c-.95-.54-2.38-.59-3.2-.13l-8.93 5.11c-.82.46-.71 1.28.22 1.84l8.39 4.82c.95.54 2.38.59 3.2.13zm-14.99 8.62l8.93-5.11c.82-.47.71-1.28-.22-1.84l-8.38-4.82a3.6 3.6 0 0 0-3.2-.13l-8.93 5.11c-.82.47-.71 1.28.22 1.84l8.38 4.82a3.6 3.6 0 0 0 3.2.13zm-14.99 8.59l8.93-5.12c.82-.46.71-1.28-.23-1.84l-8.38-4.82a3.6 3.6 0 0 0-3.2-.13l-8.93 5.11c-.82.46-.71 1.28.23 1.84l8.38 4.82a3.6 3.6 0 0 0 3.2.13zm14.2 8.17l8.93-5.12c.82-.46.71-1.28-.22-1.84l-8.38-4.82c-.95-.54-2.38-.59-3.2-.13l-8.93 5.11c-.82.46-.71 1.28.22 1.84l8.38 4.82c.96.54 2.38.59 3.2.13zm-15.61 8.95l8.93-5.11c.82-.47.71-1.28-.22-1.84l-8.39-4.82a3.6 3.6 0 0 0-3.2-.13l-8.93 5.11c-.82.47-.71 1.28.22 1.84l8.38 4.82a3.6 3.6 0 0 0 3.2.13zm30.6-17.56l8.93-5.12c.82-.46.71-1.28-.22-1.84l-8.38-4.82c-.95-.54-2.38-.59-3.2-.13l-8.93 5.12c-.82.47-.71 1.28.22 1.84l8.38 4.82a3.6 3.6 0 0 0 3.2.13zm14.99-8.59l8.93-5.12c.82-.46.71-1.28-.22-1.84l-8.38-4.82a3.6 3.6 0 0 0-3.2-.13l-8.93 5.12c-.82.46-.71 1.28.22 1.84l8.39 4.82c.95.54 2.38.59 3.2.13zm15-8.62l8.93-5.12c.82-.46.71-1.28-.22-1.84l-8.39-4.82a3.6 3.6 0 0 0-3.2-.13l-8.93 5.12c-.82.46-.71 1.28.22 1.84l8.38 4.82c.95.54 2.38.59 3.2.13zm14.99-8.59l8.93-5.12c.82-.46.71-1.28-.23-1.84l-8.38-4.82a3.6 3.6 0 0 0-3.2-.13l-8.93 5.12c-.82.46-.71 1.28.23 1.84l8.38 4.82c.95.54 2.38.59 3.2.13z"/><use href="#f"/><path d="M333.17 371.36l8.93-5.11c.82-.47.71-1.28-.22-1.84l-8.38-4.82a3.6 3.6 0 0 0-3.2-.13l-8.93 5.12c-.82.47-.71 1.28.22 1.84l8.38 4.82a3.6 3.6 0 0 0 3.2.13zm14.99-8.6l8.93-5.12c.82-.47.71-1.28-.22-1.84l-8.38-4.82a3.6 3.6 0 0 0-3.2-.13l-8.93 5.12c-.82.46-.71 1.28.22 1.84l8.38 4.82a3.6 3.6 0 0 0 3.2.13zm14.99-8.6l8.93-5.12c.82-.46.71-1.28-.22-1.84l-8.38-4.82c-.95-.54-2.38-.59-3.2-.13l-8.93 5.12c-.82.46-.71 1.28.23 1.84l8.38 4.82a3.6 3.6 0 0 0 3.2.13zm14.99-8.59l8.93-5.12c.82-.46.71-1.28-.23-1.84l-8.38-4.82a3.6 3.6 0 0 0-3.2-.13l-8.93 5.12c-.82.46-.71 1.28.23 1.84l8.38 4.82c.96.54 2.38.59 3.2.13zm14.2 8.14l8.93-5.11c.82-.47.71-1.28-.23-1.84l-8.38-4.82c-.96-.54-2.38-.59-3.2-.13l-8.93 5.12c-.82.47-.71 1.28.23 1.84l8.38 4.82c.95.54 2.38.59 3.2.13z"/><use href="#g"/><use href="#h"/><path d="M243.09 456.73l8.93-5.12c.82-.46.71-1.28-.22-1.84l-8.38-4.82c-.96-.54-2.38-.59-3.2-.13l-8.93 5.11c-.82.46-.71 1.28.22 1.84l8.38 4.82c.96.54 2.38.59 3.2.13z"/><use href="#i"/><path d="M289.15 430.4l8.93-5.12c.82-.46.71-1.28-.22-1.84l-8.38-4.82c-.95-.54-2.38-.6-3.2-.13l-8.93 5.12c-.82.46-.71 1.28.23 1.84l8.38 4.82c.95.54 2.38.6 3.2.13z"/><use href="#j"/><path d="M427.4 350.03l9.98-5.73c.52-.3.47-.84-.15-1.19l-2.75-1.58c-.62-.35-1.55-.39-2.08-.09l-9.98 5.73c-.52.3-.47.84.15 1.19l2.75 1.58c.62.35 1.55.39 2.08.09zm14.55-8.34l9.98-5.73c.52-.3.47-.84-.15-1.19l-2.75-1.58c-.62-.35-1.55-.39-2.08-.09l-9.97 5.73c-.52.3-.47.84.15 1.19l2.75 1.58c.62.35 1.55.39 2.08.09zm-29.64 17.01l9.97-5.73c.52-.3.47-.84-.15-1.19l-2.75-1.58c-.62-.35-1.55-.39-2.08-.09l-9.98 5.73c-.52.3-.47.84.15 1.19l2.75 1.58c.62.35 1.55.39 2.08.09zm-16.22 10.36l11.62-6.68c.92-.52.81-1.45-.26-2.06l-7.97-4.57c-1.07-.61-2.68-.67-3.59-.15l-11.62 6.68c-.92.52-.8 1.45.26 2.06l7.97 4.58c1.07.61 2.68.67 3.59.15zm-70.41 40.4l62.02-35.6c1.98-1.13 1.72-3.12-.56-4.43l-3.56-2.05c-2.28-1.3-5.75-1.45-7.71-.32l-62.02 35.6c-1.98 1.13-1.72 3.13.56 4.43l3.56 2.05c2.28 1.3 5.75 1.45 7.71.32zm51.86-47.24l8.93-5.12c.82-.46.71-1.28-.23-1.84l-8.38-4.82c-.95-.54-2.38-.59-3.2-.13l-8.93 5.12c-.82.46-.71 1.28.22 1.84l8.38 4.82c.95.54 2.38.59 3.2.13zm-14.8 8.48l8.93-5.12c.82-.46.71-1.28-.22-1.84l-8.38-4.82a3.6 3.6 0 0 0-3.2-.13l-8.93 5.12c-.82.46-.71 1.28.22 1.84l8.38 4.82a3.6 3.6 0 0 0 3.2.13zm-14.81 8.5l8.93-5.12c.82-.46.71-1.28-.22-1.84l-8.38-4.82a3.6 3.6 0 0 0-3.2-.13l-8.93 5.12c-.82.46-.71 1.28.22 1.84l8.38 4.82a3.6 3.6 0 0 0 3.2.13zm-14.8 8.49l8.93-5.11c.82-.47.71-1.28-.23-1.84l-8.38-4.82a3.6 3.6 0 0 0-3.2-.13l-8.93 5.12c-.82.47-.71 1.28.23 1.84l8.38 4.82a3.6 3.6 0 0 0 3.2.13zm-14.8 8.49l8.93-5.12c.82-.46.71-1.28-.22-1.84l-8.38-4.82a3.6 3.6 0 0 0-3.2-.13l-8.93 5.11c-.82.46-.71 1.28.22 1.84l8.38 4.82a3.6 3.6 0 0 0 3.2.13zm-14.8 8.5l8.93-5.11c.82-.47.71-1.28-.22-1.84l-8.38-4.82a3.6 3.6 0 0 0-3.2-.13l-8.93 5.11c-.82.47-.71 1.28.22 1.84l8.38 4.82a3.6 3.6 0 0 0 3.2.13zm-14.81 8.5l8.93-5.11c.82-.47.71-1.28-.23-1.84l-8.38-4.82a3.6 3.6 0 0 0-3.2-.13l-8.93 5.11c-.82.47-.71 1.28.23 1.84l8.38 4.82a3.6 3.6 0 0 0 3.2.13zm-14.8 8.49l8.93-5.11c.82-.46.71-1.28-.23-1.84l-8.38-4.82a3.6 3.6 0 0 0-3.2-.13l-8.93 5.12c-.82.46-.71 1.28.22 1.84l8.38 4.82a3.6 3.6 0 0 0 3.2.13zm-14.81 8.49l8.93-5.12c.82-.46.71-1.28-.22-1.84l-8.38-4.82a3.6 3.6 0 0 0-3.2-.13l-8.93 5.12c-.82.46-.71 1.28.22 1.84l8.38 4.82c.95.54 2.38.59 3.2.13zm-30.85 17.69l24.14-13.86c1.27-.72 1.12-2.01-.36-2.84l-6.49-3.72a5.6 5.6 0 0 0-4.98-.2l-24.14 13.86c-1.27.72-1.12 2.01.36 2.84l6.49 3.72a5.6 5.6 0 0 0 4.98.2zm164.87-110.89l8.93-5.12c.82-.46.71-1.28-.23-1.84l-8.38-4.82c-.96-.54-2.38-.59-3.2-.13l-8.93 5.12c-.82.46-.71 1.28.23 1.84l8.38 4.82a3.6 3.6 0 0 0 3.2.13zm14.81-8.49l15.5-8.89c1.05-.59.92-1.64-.3-2.34l-7.45-4.28a4.6 4.6 0 0 0-4.08-.17l-15.5 8.89c-1.05.6-.92 1.64.3 2.34l7.45 4.28a4.6 4.6 0 0 0 4.08.17zm.28 16.13l28.95-16.61c1.31-.74 1.14-2.06-.37-2.92l-6.34-3.65c-1.52-.87-3.8-.97-5.11-.2l-28.95 16.61c-1.31.74-1.14 2.06.37 2.92l6.35 3.64c1.52.88 3.8.97 5.11.21zm-220.11 82.87l21.8 12.5a5.4 5.4 0 0 0 4.77 0l7.11-4.07c1.31-.76 1.33-1.99 0-2.73l-9.94-5.71c-1.33-.76-1.33-2.01 0-2.77l10.57-6.06c1.1-.63 1.09-1.66 0-2.27l-7.9-4.52a4.4 4.4 0 0 0-3.95 0l-22.51 12.91c-1.31.76-1.33 1.99 0 2.75l.04-.02zm168.34-101.82l8.93-5.12c.82-.47.71-1.28-.22-1.84l-8.38-4.82a3.6 3.6 0 0 0-3.2-.13l-8.93 5.11c-.82.47-.71 1.28.22 1.84l8.39 4.82a3.6 3.6 0 0 0 3.2.13zm-15.36 8.81l8.93-5.11c.82-.47.71-1.28-.22-1.84l-8.38-4.82c-.95-.54-2.38-.59-3.2-.13l-8.93 5.12c-.82.47-.71 1.28.22 1.84l8.39 4.82c.95.54 2.38.59 3.2.13zm-15.37 8.83l8.93-5.12c.82-.46.71-1.28-.23-1.84l-8.38-4.82c-.95-.54-2.38-.59-3.2-.13l-8.93 5.12c-.82.46-.71 1.28.23 1.84l8.38 4.82a3.6 3.6 0 0 0 3.2.13zm-15.36 8.81l8.93-5.11c.82-.47.71-1.28-.22-1.84l-8.38-4.82a3.6 3.6 0 0 0-3.2-.13l-8.93 5.11c-.82.47-.71 1.28.23 1.84l8.38 4.82a3.6 3.6 0 0 0 3.2.13zm-15.37 8.81l8.93-5.12c.82-.47.71-1.28-.22-1.84l-8.38-4.82a3.6 3.6 0 0 0-3.2-.13l-8.93 5.12c-.82.47-.71 1.28.22 1.84l8.38 4.82a3.6 3.6 0 0 0 3.2.13z"/><path d="M279.63 369.73l8.93-5.12c.82-.47.71-1.28-.23-1.84l-8.38-4.82c-.95-.54-2.38-.59-3.2-.13l-8.93 5.11c-.82.47-.71 1.28.22 1.84l8.38 4.82c.95.54 2.38.59 3.2.13zm-15.37 8.8l8.93-5.12c.82-.46.71-1.28-.23-1.84l-8.38-4.82a3.6 3.6 0 0 0-3.2-.13l-8.93 5.12c-.82.46-.71 1.28.22 1.84l8.38 4.82a3.6 3.6 0 0 0 3.2.13zm-15.37 8.81l8.93-5.12c.82-.47.71-1.28-.23-1.84l-8.38-4.82c-.95-.54-2.38-.59-3.2-.13l-8.93 5.12c-.82.46-.71 1.28.22 1.84l8.38 4.82c.96.54 2.38.59 3.2.13zm-15.36 8.83l8.93-5.11c.82-.46.71-1.28-.22-1.84l-8.38-4.82a3.6 3.6 0 0 0-3.2-.13l-8.93 5.12c-.82.46-.71 1.28.23 1.84l8.38 4.82a3.6 3.6 0 0 0 3.2.13zm-15.37 8.8l8.93-5.11c.82-.47.71-1.28-.22-1.84l-8.38-4.82a3.6 3.6 0 0 0-3.2-.13l-8.93 5.11c-.82.47-.71 1.28.22 1.84l8.38 4.82a3.6 3.6 0 0 0 3.2.13zm-32.11 18.44l24.82-14.25c1.29-.74 1.12-2.03-.36-2.88l-6.42-3.68c-1.5-.86-3.74-.95-5.03-.2l-24.82 14.25c-1.29.74-1.12 2.03.35 2.88l6.42 3.68c1.5.86 3.74.95 5.03.2z"/></g><path d="M383.31 463.11l81.73-46.89-59.27-34-81.73 46.89 59.27 34zm81.07-46.89l-81.09 46.52-58.63-33.65 81.09-46.52 58.63 33.65z" stroke="#bed3f4" stroke-width=".3" class="P"/><path d="M100.84 414.98l271.31-155.68c3.63-2.08 6.96-6.44 8.46-11.07l.39-1.21 2-208.57c.04-2.75-.86-4.84-2.56-5.84s-3.97-.78-6.38.61L98.95 191.09c-2.41 1.39-4.7 3.78-6.38 6.73-1.7 2.94-2.6 6.08-2.56 8.82l2 206.25.39.76c1.5 2.9 4.83 3.44 8.46 1.36l-.02-.02zm271.24-165.85L100.93 404.72l-1.96-203.38L374.04 43.46l-1.98 205.67h.02z" fill="url(#M)"/><path d="M96.85 208.28l2.08 202.6c.79 1.51 2.49 1.79 4.38.71l271.31-155.68a7.1 7.1 0 0 0 1.61-1.25c1.22-1.17 2.23-2.79 2.79-4.48l2.06-204.96c1.12-4.26-.67-7.38-3.35-5.84L100.22 198.61s-.11.06-.17.11c-2.58 1.64-4.27 6.64-3.2 9.58v-.02z" fill="url(#N)"/><path d="M103.31 416.7l271.32-155.68c3.63-2.08 6.96-6.44 8.46-11.07l.39-1.21 2-208.57c.04-2.75-.86-4.84-2.56-5.84s-3.97-.78-6.38.61L101.42 192.8c-2.41 1.39-4.7 3.78-6.38 6.73-1.7 2.94-2.6 6.08-2.56 8.82l2 206.25.39.76c1.5 2.9 4.83 3.44 8.46 1.36l-.02-.02zm271.22-165.85L103.38 406.43l-1.96-203.38L376.51 45.18l-1.98 205.67z" fill="url(#O)"/><path style="mix-blend-mode:screen" opacity=".54" d="M374.53 250.84l1.98-205.67-275.09 157.87c91.52 61.77 239.63 67.01 273.11 47.8z" fill="url(#P)"/><g class="C"><path d="M130.39 216.87v186.31c0 7.95 5.64 11.15 12.62 7.16l276.26-158.64c6.96-4 12.62-13.68 12.62-21.63V43.74c0-7.95-5.64-11.15-12.62-7.16L143 195.23c-6.96 4-12.62 13.68-12.62 21.63v.01z"/><path d="M429.75 35.89c-2.18-1.24-5.25-1.07-8.69.9L144.8 195.43c-3.44 1.97-6.57 5.36-8.83 9.25s-3.66 8.25-3.66 12.18v186.32c0 3.92 1.39 6.61 3.57 7.85s5.25 1.07 8.69-.9l276.26-158.64h0c3.44-1.97 6.56-5.36 8.83-9.25s3.66-8.25 3.66-12.18V43.74c0-3.92-1.39-6.61-3.57-7.85z" fill-opacity=".4" stroke="#0668e1" stroke-width=".47"/><rect x=".08" y=".04" width="71.14" height="85.05" rx="4.2" transform="matrix(.8672 -.498 0 1 290.481 231.367)" stroke="#8fc1ff" stroke-width=".18"/></g><g class="H I"><path d="M321.32 235.9c0-.06-.01-.11-.03-.15s-.05-.07-.08-.09-.08-.03-.12-.02-.09.02-.14.05a20.9 20.9 0 0 0-5.53 5.25c-.04.05-.07.11-.1.18s-.05.13-.05.19-.01.12 0 .17.03.09.06.12l1.49 1.51c.05.05.13.07.23.04s.19-.11.26-.21c1.1-1.46 2.37-2.66 3.69-3.5.09-.06.18-.16.24-.27s.1-.24.1-.34v-2.92zm-6.13 5.88c-.03-.03-.06-.05-.11-.05s-.09 0-.14.02-.1.05-.14.09-.09.09-.13.15a25.5 25.5 0 0 0-3.42 7.39c-.02.06-.02.12-.02.18s.01.1.04.14.05.07.09.08.08.02.13.01l2.4-.48c.09-.02.18-.08.27-.17s.15-.21.18-.33c.47-1.69 1.26-3.38 2.28-4.93.07-.11.12-.23.13-.34s-.01-.21-.06-.26l-1.49-1.51z"/><path d="M311.43 250.01c-.05.01-.09.03-.14.06s-.1.08-.14.13-.08.11-.11.17-.05.13-.07.19a14.3 14.3 0 0 0 0 6.71c.01.05.04.09.07.11s.07.04.11.04.09-.01.14-.03.1-.06.14-.1l2.41-2.28c.09-.08.16-.2.21-.31s.06-.23.03-.32a10 10 0 0 1 0-4.47c.02-.12.01-.22-.03-.29s-.12-.1-.21-.08l-2.41.48z"/></g><g class="B"><path d="M311.48 257.43c-.05.04-.09.1-.13.15s-.07.12-.09.18-.03.13-.04.18 0 .11.02.15c.69 1.74 1.87 2.94 3.42 3.47.04.01.08.01.13 0s.1-.04.14-.07.1-.08.14-.13.08-.11.11-.17l1.49-3.21c.05-.12.08-.24.06-.34s-.06-.17-.13-.19c-1.02-.37-1.8-1.17-2.28-2.31-.03-.08-.1-.12-.18-.12s-.18.05-.27.13l-2.4 2.28zm3.84 3.8a.7.7 0 0 0-.06.19c-.01.06-.01.12 0 .17s.03.09.05.12.06.05.1.06c1.65.32 3.56-.06 5.53-1.1.05-.03.1-.06.14-.11s.09-.1.12-.16l.08-.18c.02-.06.03-.12.03-.18v-2.92c0-.11-.04-.19-.1-.23s-.15-.04-.24.01c-1.31.67-2.58.92-3.69.74-.08-.01-.17.02-.26.09s-.17.18-.23.29l-1.49 3.22zm6.16-1.28c0 .06.01.11.03.15s.05.07.08.09.08.02.12.02.09-.02.14-.06a20.9 20.9 0 0 0 5.53-5.25c.04-.05.07-.11.1-.18s.05-.13.05-.19.01-.12 0-.16-.03-.09-.06-.12l-1.49-1.51c-.05-.06-.13-.07-.23-.03s-.18.11-.26.21a14.6 14.6 0 0 1-3.69 3.5c-.09.06-.18.16-.24.27s-.1.24-.1.34v2.92zm6.13-5.89c.03.03.06.05.11.05s.09 0 .14-.02.1-.05.14-.09.09-.09.13-.15a25.5 25.5 0 0 0 3.42-7.39c.02-.06.02-.12.02-.18s-.01-.1-.04-.14-.05-.07-.09-.08-.08-.02-.13-.01l-2.4.48c-.09.02-.18.08-.27.17s-.15.21-.18.33c-.48 1.69-1.26 3.38-2.28 4.92a.8.8 0 0 0-.13.34c-.01.11.01.21.07.26l1.49 1.51z"/><path d="M331.37 245.84c.05-.01.1-.03.14-.06s.1-.08.14-.13.08-.11.11-.17.05-.12.07-.19c.53-2.5.53-4.82 0-6.71-.01-.05-.04-.08-.07-.11s-.07-.04-.11-.04-.09.01-.14.03-.1.06-.14.1l-2.41 2.28c-.09.08-.16.2-.2.31s-.06.23-.03.32a10 10 0 0 1 0 4.47c-.02.12-.01.22.03.29s.12.1.2.08l2.41-.48z"/><path d="M331.32 238.4c.05-.04.09-.1.13-.16s.07-.12.09-.18.03-.12.04-.18 0-.11-.02-.15c-.69-1.74-1.87-2.94-3.42-3.47-.04-.01-.08-.01-.13 0s-.1.04-.14.07-.09.08-.14.13-.08.11-.11.17l-1.49 3.22c-.06.12-.08.24-.07.34s.06.17.13.19c1.02.37 1.8 1.17 2.28 2.31.03.08.1.12.18.12s.18-.05.27-.13l2.4-2.28z"/><path d="M327.48 234.61c.03-.06.05-.12.06-.19s.01-.12 0-.17-.03-.09-.05-.12-.06-.05-.1-.06c-1.65-.32-3.56.06-5.53 1.1-.05.03-.1.06-.14.11s-.09.1-.12.16-.06.12-.08.18a.6.6 0 0 0-.03.18v2.92c0 .11.04.19.1.23s.15.04.24-.01c1.31-.67 2.58-.92 3.69-.73.08.01.17-.02.26-.09s.17-.18.23-.29l1.49-3.22z"/></g><g class="H"><path d="M321.27 229.72c0-.09-.01-.16-.04-.22s-.07-.11-.12-.14-.12-.04-.19-.03-.14.04-.22.08c-2.99 1.86-5.88 4.61-8.37 7.95-.06.08-.11.17-.15.27s-.07.19-.08.28-.01.18 0 .25.05.13.09.18l2.25 2.28c.08.08.2.1.34.05a.9.9 0 0 0 .4-.32c1.67-2.2 3.59-4.03 5.58-5.29.14-.09.27-.23.37-.41s.15-.36.15-.52v-4.42zm-9.28 8.89c-.04-.04-.1-.07-.16-.08s-.13 0-.21.03-.15.08-.22.14-.14.14-.19.23a38.5 38.5 0 0 0-5.17 11.19c-.03.09-.04.19-.03.27s.02.16.05.21.08.1.13.13.12.03.19.02l3.64-.73c.13-.03.28-.12.4-.26s.23-.32.28-.5a27 27 0 0 1 3.45-7.45 1.2 1.2 0 0 0 .2-.52c.02-.17-.02-.31-.1-.39l-2.25-2.28z" class="I"/><path d="M306.31 251.06c-.07.01-.14.05-.22.1s-.14.11-.21.19-.12.17-.17.26a1.2 1.2 0 0 0-.1.28c-.8 3.78-.8 7.3 0 10.16.02.07.05.13.1.17s.1.06.17.06.14-.01.21-.05.15-.09.22-.15l3.64-3.45c.13-.13.24-.3.31-.48s.08-.36.05-.49c-.51-1.93-.51-4.26 0-6.77.04-.18.02-.33-.05-.44s-.18-.15-.31-.12l-3.64.73z"/><path d="M306.38 262.31c-.07.07-.13.15-.19.23s-.1.18-.13.28-.05.19-.05.27.01.17.03.23c1.04 2.63 2.83 4.45 5.17 5.25.06.02.12.02.19 0s.15-.06.22-.11.14-.12.21-.2.12-.17.16-.26l2.25-4.87c.08-.18.12-.36.1-.51s-.09-.25-.2-.29c-1.54-.56-2.73-1.77-3.45-3.5-.05-.12-.15-.19-.28-.18s-.27.07-.4.2l-3.64 3.45z"/><path d="M312.19 268.05c-.04.09-.07.19-.09.28s-.02.18 0 .25.04.14.08.19.09.08.15.09c2.49.48 5.38-.1 8.37-1.67.07-.04.15-.09.22-.16s.13-.15.19-.24.1-.19.12-.28.04-.19.04-.27v-4.42c0-.16-.05-.29-.15-.35s-.23-.06-.37.02c-1.98 1.01-3.91 1.39-5.58 1.11-.12-.02-.26.03-.4.14s-.26.27-.34.44l-2.25 4.87zm9.33-1.95c0 .08.01.16.04.22s.07.11.13.14a.3.3 0 0 0 .19.03c.07-.01.14-.04.22-.08 2.99-1.86 5.88-4.61 8.37-7.94a1.3 1.3 0 0 0 .16-.27c.04-.09.07-.19.08-.28s.01-.18 0-.25-.05-.13-.09-.18l-2.25-2.28c-.08-.08-.2-.1-.34-.05a.9.9 0 0 0-.4.32c-1.67 2.2-3.59 4.03-5.58 5.29-.14.09-.27.23-.37.41a1.1 1.1 0 0 0-.15.52v4.42zm9.28-8.9c.04.04.1.07.16.08s.13 0 .21-.04.15-.08.22-.14.14-.14.2-.23a38.5 38.5 0 0 0 5.17-11.19c.02-.09.04-.19.03-.27s-.02-.16-.05-.21a.3.3 0 0 0-.13-.12c-.05-.02-.12-.03-.19-.02l-3.64.72c-.13.03-.28.12-.4.26s-.22.32-.27.5a27 27 0 0 1-3.45 7.45 1.2 1.2 0 0 0-.2.52c-.02.17.02.31.1.4l2.25 2.28z"/><path d="M336.48 244.75c.07-.01.14-.05.22-.1s.14-.12.21-.19.12-.17.17-.26.08-.19.1-.28c.8-3.78.8-7.3 0-10.16-.02-.07-.05-.13-.1-.17s-.1-.06-.17-.06-.14.01-.21.05-.15.09-.22.15l-3.64 3.46c-.13.13-.24.3-.31.48s-.08.36-.05.49c.51 1.93.51 4.26 0 6.77-.04.18-.02.33.05.44s.18.15.31.12l3.64-.72z"/><path d="M336.41 233.51c.07-.07.13-.15.19-.23a.9.9 0 0 0 .13-.28c.03-.1.05-.19.05-.28a.8.8 0 0 0-.03-.23c-1.04-2.63-2.83-4.45-5.17-5.25-.06-.02-.12-.02-.2 0s-.14.06-.22.11-.14.12-.21.2-.12.17-.16.26l-2.25 4.87c-.08.18-.12.36-.1.51s.09.25.2.29c1.54.56 2.73 1.77 3.45 3.5.05.12.15.19.27.18s.27-.07.4-.2l3.64-3.46zm-5.81-5.74c.04-.09.07-.19.09-.28s.02-.18 0-.26-.04-.14-.08-.19-.09-.08-.16-.09c-2.49-.48-5.38.1-8.37 1.67-.07.04-.15.09-.22.16s-.13.15-.19.24-.1.18-.12.28-.04.19-.04.27v4.42c0 .16.05.28.15.35s.23.06.37-.01c1.99-1.01 3.91-1.39 5.58-1.11.12.02.26-.03.4-.14s.26-.27.34-.44l2.25-4.87z"/></g><g class="B"><rect width="4.65" height="4.65" rx=".58" transform="matrix(.8672 -.498 0 1 300.977 291.648)"/><rect width="29.07" height="4.65" rx="1.74" transform="matrix(.8672 -.498 0 1 307.025 288.176)"/></g><g class="H"><rect width="4.65" height="4.65" rx=".58" transform="matrix(.8672 -.498 0 1 300.977 299.207)"/><rect width="40.69" height="4.65" rx="1.74" transform="matrix(.8672 -.498 0 1 306.521 296.023)"/></g><rect x=".08" y=".04" width="71.14" height="85.05" rx="4.2" transform="matrix(.8672 -.498 0 1 357.305 193.925)" stroke="#8fc1ff" stroke-width=".18" class="C"/><g class="H I"><path d="M388.14 198.46c0-.06-.01-.11-.03-.15s-.05-.07-.08-.09-.08-.02-.12-.02-.09.03-.14.06a20.9 20.9 0 0 0-5.53 5.25c-.04.05-.08.11-.1.18l-.05.19c-.01.06-.01.12 0 .16s.03.09.06.12l1.49 1.51c.05.06.13.07.23.04s.18-.11.26-.21c1.1-1.46 2.37-2.66 3.69-3.5.09-.06.18-.16.24-.27s.1-.24.1-.34v-2.92zm-6.13 5.87c-.03-.03-.06-.05-.11-.05s-.09 0-.14.02-.1.05-.14.09-.09.09-.13.15a25.5 25.5 0 0 0-3.42 7.39c-.02.06-.02.12-.02.18s.02.1.04.14.05.07.09.08.08.02.13.01l2.41-.48c.09-.02.18-.08.27-.17s.15-.21.18-.33a17.8 17.8 0 0 1 2.28-4.93.8.8 0 0 0 .13-.34c.01-.11-.01-.21-.07-.26l-1.49-1.51z"/><path d="M378.25 212.56c-.05.01-.1.03-.14.06s-.1.08-.14.13-.08.11-.11.17-.05.13-.06.19c-.53 2.5-.53 4.82 0 6.71.01.05.04.08.06.11s.07.04.11.04.09-.01.14-.03.1-.06.14-.1l2.41-2.28c.09-.08.16-.19.2-.31s.06-.23.03-.32c-.33-1.27-.33-2.81 0-4.47.02-.12.01-.22-.03-.29s-.12-.1-.2-.08l-2.41.48z"/></g><g class="B"><path d="M378.3 219.99c-.05.04-.09.1-.13.16s-.07.12-.09.18-.03.12-.04.18.01.11.02.15c.69 1.74 1.87 2.94 3.42 3.47.04.01.08.01.13 0s.1-.04.14-.07.1-.08.14-.13.08-.11.11-.17l1.49-3.22c.05-.12.08-.24.07-.34s-.06-.17-.13-.19c-1.02-.37-1.8-1.17-2.28-2.31-.03-.08-.1-.12-.18-.12s-.18.05-.27.13l-2.41 2.28z"/><path d="M382.14 223.79a.7.7 0 0 0-.06.19c-.01.06-.01.12 0 .17s.03.09.05.13.06.05.1.06c1.64.32 3.56-.06 5.53-1.1.05-.03.1-.06.14-.11s.09-.1.12-.16.06-.12.08-.19.03-.12.03-.18v-2.92c0-.11-.03-.19-.1-.23s-.15-.04-.24.01a6 6 0 0 1-3.69.73c-.08-.01-.17.02-.26.09s-.17.18-.23.29l-1.49 3.22zm6.16-1.3c0 .06.01.11.03.15s.05.07.08.09.08.03.12.02.09-.03.14-.06a20.9 20.9 0 0 0 5.53-5.25c.04-.05.08-.11.1-.18s.05-.13.05-.19.01-.12 0-.16-.03-.09-.06-.12l-1.49-1.51c-.05-.06-.13-.07-.22-.03s-.19.11-.26.21a14.6 14.6 0 0 1-3.69 3.5c-.09.06-.18.16-.24.27s-.1.24-.1.34v2.92zm6.13-5.87c.03.03.06.05.11.05s.09 0 .14-.02.1-.05.14-.09a1 1 0 0 0 .13-.15 25.5 25.5 0 0 0 3.42-7.39c.02-.06.03-.12.02-.18s-.01-.1-.04-.14-.05-.07-.09-.08-.08-.02-.12-.01l-2.41.48c-.09.02-.18.08-.27.17s-.15.21-.18.33c-.47 1.69-1.26 3.38-2.28 4.93-.07.11-.12.23-.13.34s.01.21.07.26l1.49 1.51z"/><path d="M398.18 208.39c.05-.01.09-.03.14-.06s.1-.08.14-.13.08-.11.11-.17.05-.12.07-.19c.53-2.5.53-4.82 0-6.71-.01-.05-.03-.08-.07-.11s-.07-.04-.11-.04-.09.01-.14.03-.1.06-.14.1l-2.41 2.28c-.09.08-.16.2-.21.31s-.06.24-.03.32a10 10 0 0 1 0 4.47c-.02.12-.01.22.03.29s.12.1.21.08l2.41-.48z"/><path d="M398.14 200.96a.8.8 0 0 0 .13-.16c.04-.06.07-.12.09-.18a.7.7 0 0 0 .04-.18c0-.06-.01-.11-.02-.15-.69-1.74-1.87-2.94-3.42-3.47-.04-.01-.08-.01-.13 0s-.1.04-.14.07-.1.08-.14.13a.8.8 0 0 0-.11.17l-1.49 3.22c-.05.12-.08.24-.07.34s.06.17.13.19c1.02.37 1.8 1.17 2.28 2.31.03.08.1.12.18.12s.18-.05.27-.13l2.41-2.28z"/><path d="M394.3 197.17c.03-.06.05-.12.06-.19s.01-.12 0-.17-.03-.09-.05-.12-.06-.05-.1-.06c-1.64-.32-3.56.07-5.53 1.1-.05.03-.1.06-.14.11s-.09.1-.12.16-.06.12-.08.18-.03.12-.03.18v2.92c0 .11.03.19.1.23s.15.04.24-.01a6 6 0 0 1 3.69-.73c.08.01.17-.02.26-.09s.17-.18.22-.29l1.49-3.22z"/></g><g class="H"><path d="M388.1 192.28c0-.09-.01-.16-.04-.22s-.07-.11-.12-.14a.3.3 0 0 0-.19-.03c-.07.01-.14.04-.22.08-2.99 1.86-5.88 4.61-8.37 7.94-.06.08-.11.17-.15.27a1.1 1.1 0 0 0-.08.28c-.01.09-.01.18 0 .25s.05.13.09.18l2.25 2.28c.08.08.2.1.34.05a.9.9 0 0 0 .4-.32c1.67-2.2 3.59-4.03 5.58-5.29.14-.09.27-.23.37-.41s.15-.36.15-.52v-4.42zm-9.28 8.89c-.04-.04-.1-.07-.16-.08s-.13 0-.21.03-.15.08-.22.14-.14.14-.19.23c-2.34 3.49-4.13 7.36-5.17 11.19a.9.9 0 0 0-.03.27c0 .08.02.16.05.21a.3.3 0 0 0 .13.12c.05.02.12.03.19.02l3.64-.72c.13-.03.28-.12.4-.26s.23-.32.28-.5a27 27 0 0 1 3.45-7.45 1.2 1.2 0 0 0 .2-.52c.02-.17-.02-.31-.1-.39l-2.25-2.28z" class="I"/><path d="M373.13 213.62a.6.6 0 0 0-.22.1c-.07.05-.14.12-.21.19s-.12.17-.17.26-.08.19-.1.28c-.8 3.78-.8 7.3 0 10.16.02.07.05.13.1.17s.1.06.17.06.14-.01.21-.05.15-.09.22-.15l3.64-3.45c.13-.13.24-.3.31-.48s.08-.36.05-.49c-.51-1.93-.51-4.26 0-6.77.04-.18.02-.33-.05-.44s-.18-.15-.31-.12l-3.64.72z"/><path d="M373.21 224.86c-.07.07-.13.15-.19.23s-.1.18-.13.28-.05.19-.05.28.01.16.03.23c1.04 2.63 2.83 4.45 5.17 5.25.06.02.12.02.19 0s.14-.06.22-.11.14-.12.21-.2.12-.17.16-.26l2.25-4.87c.08-.18.12-.36.1-.51s-.09-.25-.2-.29c-1.54-.56-2.73-1.77-3.45-3.5-.05-.12-.15-.19-.28-.18s-.27.08-.4.2l-3.64 3.46z"/><path d="M379.02 230.61c-.04.09-.07.19-.09.28s-.02.18 0 .26.04.14.08.19.09.08.15.09c2.49.48 5.38-.1 8.37-1.67.07-.04.15-.09.22-.16s.13-.15.19-.24.1-.18.12-.28.04-.19.04-.27v-4.42c0-.16-.05-.28-.15-.35s-.23-.06-.37.01c-1.98 1.01-3.91 1.39-5.58 1.11-.12-.02-.26.03-.4.14s-.26.27-.34.44l-2.25 4.87z"/><path d="M388.34 228.66c0 .09.02.16.04.22s.07.11.12.14.12.04.19.03.14-.04.22-.08c2.99-1.86 5.88-4.61 8.37-7.95.06-.08.11-.17.15-.27s.07-.19.08-.28.01-.18 0-.25-.05-.13-.09-.18l-2.25-2.28c-.08-.08-.2-.1-.34-.05a.9.9 0 0 0-.4.32c-1.67 2.2-3.59 4.03-5.58 5.29-.14.09-.27.23-.37.41a1.1 1.1 0 0 0-.15.52v4.42zm9.28-8.9c.04.04.1.07.16.08s.13 0 .21-.03.15-.08.22-.14.14-.14.19-.23c2.34-3.49 4.13-7.36 5.17-11.19a.9.9 0 0 0 .03-.27c0-.08-.02-.16-.05-.21a.3.3 0 0 0-.13-.12.3.3 0 0 0-.19-.01l-3.64.72c-.13.03-.28.12-.4.26s-.22.32-.27.5a27 27 0 0 1-3.45 7.45 1.2 1.2 0 0 0-.2.52c-.02.17.02.31.1.39l2.25 2.28z"/><path d="M403.3 207.31c.07-.01.14-.05.22-.1s.14-.12.21-.19.12-.16.17-.26a1.2 1.2 0 0 0 .1-.28c.8-3.78.8-7.3 0-10.16-.02-.07-.05-.13-.1-.17s-.1-.06-.17-.06-.14.01-.21.05-.15.09-.22.15l-3.64 3.45a1.3 1.3 0 0 0-.31.48c-.07.18-.08.35-.05.49.51 1.93.51 4.26 0 6.77-.04.18-.02.33.05.44s.18.15.31.12l3.64-.73z"/><path d="M403.23 196.07c.07-.07.13-.15.19-.23a.9.9 0 0 0 .13-.28c.03-.1.05-.19.05-.28a.8.8 0 0 0-.03-.23c-1.04-2.63-2.83-4.45-5.17-5.25-.06-.02-.12-.02-.19 0s-.15.06-.22.11-.14.12-.21.2a1.3 1.3 0 0 0-.16.26l-2.25 4.87c-.08.18-.12.36-.1.51s.09.25.2.29c1.54.56 2.73 1.77 3.45 3.5.05.12.15.19.27.18s.27-.08.4-.2l3.64-3.46zm-5.81-5.74c.04-.09.07-.19.09-.28s.02-.18 0-.25-.04-.14-.08-.19-.09-.08-.15-.09c-2.49-.48-5.38.1-8.37 1.67-.07.04-.15.09-.22.16s-.13.15-.19.24-.09.18-.12.28-.04.19-.04.27v4.42c0 .16.05.29.15.35s.23.06.37-.01c1.98-1.01 3.91-1.39 5.58-1.11.12.02.26-.03.4-.14s.26-.27.34-.44l2.25-4.87z"/></g><g class="B"><rect width="4.65" height="4.65" rx=".58" transform="matrix(.8672 -.498 0 1 367.801 254.203)"/><rect width="29.07" height="4.65" rx="1.74" transform="matrix(.8672 -.498 0 1 373.85 250.73)"/></g><g class="H"><rect width="4.65" height="4.65" rx=".58" transform="matrix(.8672 -.498 0 1 367.801 261.762)"/><rect width="40.69" height="4.65" rx="1.74" transform="matrix(.8672 -.498 0 1 373.346 258.578)"/></g><g class="M"><rect width="38.71" height="3.87" rx="1.93" transform="matrix(.8672 -.4996 0 1 220.764 287.152)"/><ellipse cx="1.93" cy="1.93" rx="1.93" ry="1.93" transform="matrix(.8672 -.5007 0 1 216.148 289.812)"/></g><g class="N"><rect width="24.23" height="3.86" rx="1.93" transform="matrix(.8672 -.498 0 1 220.74 295.789)"/><ellipse cx="1.93" cy="1.93" rx="1.93" ry="1.93" transform="matrix(.8672 -.5007 0 1 216.117 298.449)"/></g><g class="M"><rect width="38.77" height="3.86" rx="1.93" transform="matrix(.8672 -.498 0 1 220.74 304.488)"/><ellipse cx="1.92" cy="1.93" rx="1.92" ry="1.93" transform="matrix(.8672 -.5007 0 1 216.117 307.148)"/><rect width="62.96" height="3.86" rx="1.93" transform="matrix(.8672 -.4987 0 1 220.783 313.16)"/><ellipse cx="1.93" cy="1.93" rx="1.93" ry="1.93" transform="matrix(.8672 -.5007 0 1 216.164 315.82)"/></g><g class="N"><rect width="38.74" height="3.86" rx="1.93" transform="matrix(.8672 -.4987 0 1 220.752 321.855)"/><ellipse cx="1.93" cy="1.93" rx="1.93" ry="1.93" transform="matrix(.8672 -.5007 0 1 216.133 324.516)"/></g><g class="M"><rect width="24.21" height="3.86" rx="1.93" transform="matrix(.8672 -.4987 0 1 220.746 330.543)"/><ellipse cx="1.93" cy="1.93" rx="1.93" ry="1.93" transform="matrix(.8672 -.5007 0 1 216.127 333.207)"/></g><g class="N"><rect width="62.9" height="3.87" rx="1.93" transform="matrix(.8672 -.4996 0 1 220.781 339.191)"/><ellipse cx="1.93" cy="1.93" rx="1.93" ry="1.93" transform="matrix(.8672 -.5007 0 1 216.166 341.852)"/></g><g filter="url(#A)"><g filter="url(#B)"><path d="M197.84 350.94a69.5 69.5 0 0 1-9.92 14.03c-3.78 4.12-7.88 7.47-12.02 9.86s-8.24 3.73-12.02 3.95-7.16-.67-9.92-2.63l21.94-35.11 21.95 9.9z" fill="#589aeb"/></g><path d="M171.01 361.13c.13-.08.25-.13.34-.15s.17-.02.22.02.08.14.08.28c0 .1-.01.19-.03.29s-.06.2-.11.33l-.21.43-.57 1.06.16-.1.16-.1.68-.39v.32l-1.36.78v-.2c0-.03 0-.05.01-.08s.02-.06.03-.09l.57-1.07c.13-.23.22-.42.28-.58s.09-.29.09-.39c0-.07-.02-.11-.05-.13s-.07-.02-.12 0-.12.05-.19.1l-.18.11-.18.12-.22.16-.02-.25.24-.19.2-.14.19-.11zm1.85-1.06l.18-.1a1.1 1.1 0 0 1 .24-.09l-.02.25-.12.06-.12.07-.16.09c-.1.06-.18.12-.25.18s-.12.14-.16.23-.07.21-.09.35a4.9 4.9 0 0 0-.02.54l.01.42c.01.11.03.18.05.23s.07.07.12.07.13-.03.22-.09c.11-.06.19-.13.25-.2s.09-.15.1-.24a1.7 1.7 0 0 0 .02-.3c0-.12-.01-.21-.03-.28s-.06-.1-.11-.1-.12.02-.22.08c-.06.04-.12.08-.18.13s-.11.11-.16.19-.12.17-.19.3l-.01-.15a2.9 2.9 0 0 1 .19-.36c.06-.09.12-.17.19-.24a1.4 1.4 0 0 1 .25-.18c.14-.08.25-.12.34-.12s.14.05.17.15.05.23.05.42c0 .12-.01.24-.02.35s-.05.21-.09.31-.11.19-.2.28-.2.17-.34.25-.26.13-.35.15-.16-.01-.21-.07-.08-.16-.1-.29-.03-.32-.03-.54c0-.28.02-.51.05-.69s.08-.34.15-.46a1.1 1.1 0 0 1 .25-.32 2.1 2.1 0 0 1 .35-.25zm1.09 1.34c.04-.02.07-.03.08-.02s.02.03.02.08v.18c0 .05-.01.08-.02.11s-.04.05-.08.07l-.09.05c-.04.02-.07.03-.08.02s-.02-.04-.02-.08v-.18c0-.05.01-.08.02-.11s.04-.05.08-.07l.09-.05zm1.2-2.65c.13-.08.24-.13.32-.15s.15-.03.2 0 .08.07.1.14.03.15.03.26c0 .1-.01.19-.03.28s-.05.17-.09.24-.1.13-.17.18v.01c.09-.04.16-.05.2-.02s.08.08.1.16.03.18.03.3c0 .14-.02.27-.06.39s-.11.22-.21.32-.25.2-.43.31a1.5 1.5 0 0 1-.43.19c-.1.02-.17-.01-.22-.08s-.06-.18-.06-.32c0-.12.01-.23.03-.33s.06-.2.11-.28.12-.15.2-.21v-.01c-.07.03-.12.03-.17.01s-.07-.07-.09-.13-.03-.15-.03-.25c0-.11.01-.2.03-.29s.05-.17.1-.25.12-.15.2-.23.2-.15.33-.23zm0 1.29c-.09.05-.16.1-.22.15s-.1.09-.13.14-.05.11-.07.17-.02.14-.02.23a.5.5 0 0 0 .04.22c.02.05.07.06.13.05s.15-.05.27-.12.2-.13.26-.19.1-.13.12-.2.04-.16.04-.26a.8.8 0 0 0-.02-.21c-.01-.05-.03-.08-.06-.09s-.07-.01-.13.01a1.2 1.2 0 0 0-.21.1zm0-1.03c-.11.06-.19.12-.25.18s-.09.12-.11.19-.03.15-.03.25.01.18.03.22.06.06.12.04.14-.05.25-.11.19-.12.25-.17a.4.4 0 0 0 .11-.18c.02-.07.03-.15.03-.25s-.01-.17-.03-.22-.06-.06-.12-.05-.13.04-.24.1zm1.5-1.13c.12-.07.21-.1.28-.09s.12.05.15.13.05.21.05.38-.02.31-.05.43a.8.8 0 0 1-.15.31c-.07.09-.17.16-.28.23s-.21.1-.28.1-.12-.05-.15-.14-.04-.21-.04-.38.01-.31.04-.43.08-.22.15-.31a1 1 0 0 1 .28-.23zm0 .2c-.07.04-.12.08-.16.14s-.06.12-.08.2-.02.19-.02.31a1.3 1.3 0 0 0 .02.28c.02.06.05.1.08.11s.09-.01.16-.05.12-.08.16-.13.07-.12.08-.2.02-.18.02-.31-.01-.22-.02-.28-.04-.1-.08-.11-.09 0-.16.04zm1.45-.99l-1.3 3.09-.2.11 1.3-3.09.19-.11zm-.03 1c.12-.07.21-.1.28-.09s.12.05.15.14.04.21.04.37-.02.31-.04.43-.08.22-.15.31a1 1 0 0 1-.28.23c-.12.07-.21.1-.28.09s-.12-.05-.15-.13-.04-.21-.04-.38.01-.31.04-.42.08-.22.15-.31a1 1 0 0 1 .28-.23zm0 .2c-.07.04-.12.08-.16.14s-.06.12-.08.2a1.9 1.9 0 0 0-.02.3 1.6 1.6 0 0 0 .02.29c.02.06.04.1.08.11.04.01.09-.01.16-.05s.12-.08.16-.14.06-.12.08-.2.03-.19.03-.31-.01-.22-.03-.28-.04-.1-.08-.11-.09 0-.16.04z" class="C"/><g filter="url(#C)" class="N"><path d="M153.95 376.15c-3.53-2.51-5.93-6.69-6.94-12.08s-.6-11.81 1.2-18.57l27.68-4.46-21.94 35.11z"/></g><path d="M154.99 355.05v2.34l-.29.17v-1.82-.11c0-.04.01-.08.01-.12l-.5.46-.04-.22.52-.54.29-.17zm1.59-.91c.04-.02.07-.03.1-.03s.04.02.05.05.01.07-.01.12l-.63 2.49-.29.17.56-2.2.03-.11.04-.11-1 .57-.01-.28 1.16-.67zm.49 1.64c.04-.02.07-.03.08-.02s.02.03.02.08v.18c0 .05-.01.08-.02.11s-.04.05-.08.08l-.09.05c-.04.02-.07.03-.08.02s-.02-.04-.02-.08V356c0-.05.01-.08.02-.11s.04-.05.08-.07l.09-.05zm1.05-2.52v2.34l-.29.17v-1.82-.11c0-.04.01-.08.01-.12l-.5.46-.04-.22.52-.54.29-.17zm.93-.58c.12-.07.21-.1.28-.09s.12.05.15.13a1.1 1.1 0 0 1 .05.38 1.7 1.7 0 0 1-.05.43c-.03.12-.08.22-.15.31s-.16.16-.28.23-.21.1-.28.09-.12-.05-.15-.14-.04-.21-.04-.38.01-.31.04-.43.08-.22.15-.31a1 1 0 0 1 .28-.23zm0 .2c-.07.04-.12.08-.16.14s-.06.12-.08.2-.02.19-.02.31a1.3 1.3 0 0 0 .02.28c.02.06.05.1.08.11s.09-.01.16-.05.12-.08.16-.13.07-.12.08-.2.02-.18.02-.31a1.3 1.3 0 0 0-.02-.28c-.02-.06-.04-.1-.08-.11s-.09 0-.16.04zm1.45-.99l-1.3 3.09-.2.11 1.3-3.09.19-.11zm-.03 1c.12-.07.21-.1.28-.09s.12.05.15.14.04.21.04.37-.01.31-.04.43-.08.22-.15.31a1 1 0 0 1-.28.23c-.12.07-.21.1-.28.09s-.12-.05-.15-.13-.04-.21-.04-.38.01-.31.04-.42.08-.22.15-.31a1 1 0 0 1 .28-.23zm0 .2c-.07.04-.12.08-.16.14s-.06.12-.08.2a1.9 1.9 0 0 0-.02.3 1.6 1.6 0 0 0 .02.29c.02.06.04.1.08.11s.09-.01.16-.05.12-.08.16-.13.06-.12.08-.2.03-.19.03-.31-.01-.22-.03-.28-.04-.1-.08-.11-.09 0-.16.04z" class="C"/><g filter="url(#D)"><path d="M148.2 345.53a69.6 69.6 0 0 1 14.64-27.27l13.05 22.79-27.69 4.48z" fill="#055fcd"/></g><path d="M156.76 336.25v2.34l-.3.17v-1.82-.11c0-.04.01-.08.01-.12l-.5.46-.04-.22.52-.54.3-.17zm1.12-.69c.13-.08.25-.13.34-.15s.17-.02.22.02.08.14.08.28c0 .1-.01.19-.03.29s-.06.2-.11.33l-.21.43-.57 1.06.16-.1.17-.1.68-.39v.32l-1.36.78v-.2c0-.03 0-.06.01-.08s.02-.06.03-.09l.57-1.07c.13-.23.22-.42.28-.58s.09-.29.09-.39c0-.07-.02-.11-.05-.13s-.07-.02-.12 0-.12.05-.19.09l-.18.11-.18.12-.22.16-.02-.25.24-.19.2-.14.19-.11zm1.25 1.25c.04-.02.07-.03.08-.02s.02.03.02.08v.18c0 .05-.01.08-.02.11s-.04.05-.08.07l-.09.05c-.04.02-.07.03-.08.02s-.02-.04-.02-.08v-.18c0-.05.01-.08.02-.11s.04-.05.08-.07l.09-.05zm1.11-2.6c.13-.08.25-.13.34-.15s.17-.02.22.02.08.14.08.28c0 .1-.01.19-.03.29s-.06.2-.11.33l-.21.43-.57 1.06.16-.1.16-.1.68-.39v.32l-1.36.78v-.2c0-.03 0-.06.01-.08s.02-.06.04-.09l.57-1.07a4.8 4.8 0 0 0 .28-.58c.06-.16.09-.29.09-.39 0-.07-.02-.11-.05-.12s-.07-.02-.12 0-.12.05-.19.09l-.18.11-.18.12-.22.16-.02-.25.25-.19.2-.14.19-.11zm1.47-.85c.12-.07.21-.1.28-.09s.12.05.15.13.05.21.05.38-.02.31-.05.43-.08.22-.15.31-.16.16-.28.23-.21.1-.28.09-.12-.05-.15-.14-.05-.21-.05-.38.02-.31.05-.43.08-.22.15-.31.16-.17.28-.23zm0 .2c-.07.04-.12.08-.16.14s-.06.12-.08.2-.02.18-.02.31.01.22.02.28.05.1.08.11.09-.01.16-.05.12-.08.16-.13a.5.5 0 0 0 .08-.2c.02-.08.02-.19.02-.31s-.01-.22-.02-.28-.04-.1-.08-.11-.09 0-.16.04zm1.45-.99l-1.3 3.09-.2.11 1.3-3.09.19-.11zm-.03 1c.12-.07.21-.1.28-.09s.12.05.15.14.04.21.04.37-.01.31-.04.43-.08.22-.15.31-.16.16-.28.23-.21.1-.28.1-.12-.05-.15-.14-.04-.21-.04-.38.01-.31.04-.42.08-.22.15-.31.16-.17.28-.23zm0 .2c-.07.04-.12.08-.16.14s-.06.12-.08.2-.02.18-.02.3.01.22.02.29.04.1.08.11.09-.01.16-.05.12-.08.16-.14.06-.12.08-.2.03-.19.03-.31-.01-.22-.03-.28-.04-.1-.08-.11-.09 0-.16.04z" class="C"/><path d="M175.89 307.26c5.68-3.26 11.23-4.56 16-3.75s8.53 3.7 10.85 8.32 3.09 10.77 2.22 17.71-3.35 14.38-7.13 21.41l-21.95-9.9v-33.79z" class="M"/><path d="M186.48 324.54c.16-.09.28-.15.38-.17s.16-.01.21.05.07.15.07.29c0 .1-.01.2-.03.3s-.05.18-.09.26-.11.15-.19.21v.01c.14-.05.23-.05.28.02s.08.19.08.36c0 .16-.02.3-.06.43s-.11.24-.22.35c-.1.1-.23.2-.4.3l-.34.18-.34.15.02-.33.2-.1.18-.09.18-.1c.1-.06.18-.12.24-.17s.1-.12.13-.2.04-.16.04-.26c0-.08-.01-.14-.03-.18s-.05-.07-.1-.07-.12.02-.22.08l-.38.22v-.29l.38-.22c.07-.04.13-.08.17-.13s.07-.09.09-.13.04-.09.04-.14.01-.1.01-.15c0-.08-.01-.14-.03-.17s-.06-.04-.11-.02-.12.05-.22.1l-.29.17-.24.15-.02-.3.31-.22.3-.19zm1.87-1.07l.19-.1c.08-.04.17-.07.26-.1l-.02.3-.13.07-.13.07-.17.1c-.09.05-.17.11-.23.17s-.11.13-.14.21-.06.2-.07.33-.02.3-.02.5l.01.4c.01.1.02.18.05.22s.06.07.11.06.12-.03.2-.08c.1-.06.18-.12.22-.18s.08-.14.09-.22.02-.17.02-.28c0-.11-.01-.2-.03-.25s-.05-.08-.1-.08-.12.02-.2.07c-.06.03-.11.07-.16.12s-.1.1-.16.17l-.19.29-.01-.17c.07-.15.13-.27.19-.36s.12-.17.19-.24.15-.13.25-.18c.15-.08.26-.13.34-.12s.14.05.18.14.05.23.05.41a2.3 2.3 0 0 1-.03.36 1.1 1.1 0 0 1-.1.32c-.05.1-.12.19-.21.28a1.7 1.7 0 0 1-.35.25c-.15.08-.27.14-.36.15s-.17 0-.22-.06-.09-.16-.11-.29-.03-.32-.03-.55a3.9 3.9 0 0 1 .05-.69 1.6 1.6 0 0 1 .15-.47c.07-.13.15-.23.26-.32s.23-.18.37-.26zm1.12 1.28c.05-.03.08-.04.1-.02s.03.04.03.09v.17c0 .06-.01.1-.03.14s-.05.06-.1.09l-.1.06c-.05.03-.08.04-.1.03s-.03-.05-.03-.1v-.17c0-.05.01-.1.03-.13s.05-.06.1-.09l.1-.06zm1.3-2.67l.19-.1c.08-.04.17-.08.26-.1l-.02.3-.13.07-.13.07-.17.1c-.09.05-.17.11-.23.17s-.11.13-.14.22-.06.2-.07.33a5 5 0 0 0-.02.5v.4c.01.1.02.18.05.22s.06.07.11.06.12-.03.2-.08c.1-.06.18-.12.22-.18a.5.5 0 0 0 .09-.21c.01-.08.02-.17.02-.28 0-.11-.01-.2-.03-.25s-.05-.08-.1-.08-.12.02-.2.07c-.06.03-.11.07-.16.12s-.1.1-.16.18l-.19.28-.01-.17a3.2 3.2 0 0 1 .19-.36c.06-.09.12-.17.19-.24s.15-.12.25-.18c.15-.08.26-.12.34-.12s.14.05.18.14.05.23.05.41c0 .13-.01.25-.03.37s-.05.22-.1.32-.12.19-.21.28-.2.17-.35.26-.27.13-.36.15-.17 0-.22-.06-.09-.16-.11-.29-.03-.32-.03-.55c0-.27.02-.5.05-.69s.09-.34.15-.47.16-.23.26-.32.22-.18.37-.26zm1.33-.77c.12-.07.22-.1.29-.1s.12.05.15.13.05.21.05.38-.02.31-.05.44-.08.22-.15.31-.17.17-.29.24-.22.1-.29.1-.12-.05-.16-.13-.04-.21-.04-.38.01-.32.04-.43.08-.22.16-.31.17-.17.29-.23zm0 .24c-.06.03-.1.07-.14.12s-.05.1-.07.18-.02.17-.02.29.01.21.02.27.04.09.07.1.08-.01.14-.04.1-.07.13-.12.06-.11.07-.18.02-.17.02-.29-.01-.21-.02-.27-.03-.09-.07-.1-.08 0-.13.04zm1.46-1.03l-1.26 3.07-.23.13 1.26-3.07.23-.13zm-.02 1c.12-.07.22-.1.29-.1s.13.05.16.13a1.1 1.1 0 0 1 .05.38c0 .17-.01.32-.05.44s-.08.22-.16.31-.17.16-.29.23-.22.1-.29.1-.12-.05-.16-.13-.05-.22-.05-.39.02-.31.05-.43.08-.22.16-.31.17-.17.29-.23zm0 .24c-.06.03-.1.07-.13.12s-.05.1-.07.18-.02.17-.02.29.01.21.02.27.04.09.07.1.08-.01.13-.04.1-.07.14-.12.06-.11.07-.18a1.8 1.8 0 0 0 .02-.29c0-.12-.01-.21-.02-.27s-.04-.09-.07-.1-.08 0-.14.04z" class="C"/><g filter="url(#E)"><path d="M162.84 318.26c4.05-4.63 8.51-8.38 13.02-10.98l.03 33.77-13.05-22.79z" fill="#03397c"/></g><path d="M168.14 318.67c.04-.02.07-.03.1-.03s.04.02.05.05.01.07-.01.12l-.63 2.49-.29.17.56-2.2.03-.11.04-.11-1 .57-.01-.28 1.16-.67zm.49 1.64c.04-.02.07-.03.08-.02s.02.03.02.08v.18c0 .05-.01.08-.02.11s-.04.05-.08.07l-.09.05c-.04.02-.07.03-.08.02s-.02-.04-.02-.08v-.18c0-.05.01-.08.02-.11s.04-.05.08-.07l.09-.05zm1.07-2.58c.15-.09.27-.14.37-.16s.16 0 .2.05.07.15.07.29c0 .1-.01.2-.03.29s-.05.18-.09.26-.1.15-.18.21v.01c.14-.05.23-.04.28.03s.08.19.08.35a1.3 1.3 0 0 1-.06.43c-.04.13-.11.24-.21.35s-.22.2-.39.3l-.33.17-.32.15.02-.28.19-.09.18-.1.19-.1c.11-.06.19-.12.25-.19a.6.6 0 0 0 .14-.22c.03-.08.04-.18.04-.29 0-.08-.01-.15-.03-.2s-.06-.08-.12-.08-.14.02-.24.08l-.38.22v-.25l.38-.22c.08-.04.14-.09.18-.14s.08-.1.1-.15.04-.1.04-.16.01-.11.01-.16c0-.09-.02-.16-.04-.19s-.06-.04-.12-.03a1.2 1.2 0 0 0-.24.11l-.28.17-.24.15-.02-.24.3-.22.29-.18zm1.48-.85c.12-.07.21-.1.28-.09s.12.05.15.13.05.21.05.38a1.7 1.7 0 0 1-.05.43c-.03.12-.08.22-.15.31s-.16.16-.28.23-.21.1-.28.1-.12-.05-.15-.14-.04-.21-.04-.38.01-.31.04-.43.08-.22.15-.31.17-.17.28-.23zm0 .2c-.07.04-.12.08-.16.14s-.06.12-.08.2-.02.18-.02.31.01.22.02.28.04.1.08.11.09-.01.16-.05.12-.08.16-.13a.5.5 0 0 0 .08-.2c.02-.08.02-.19.02-.31s-.01-.22-.02-.28-.04-.1-.08-.11-.09 0-.16.04zm1.45-.99l-1.3 3.09-.2.11 1.3-3.09.2-.11zm-.03 1c.12-.07.21-.1.28-.09s.12.05.15.14.04.21.04.37-.01.31-.04.43-.08.22-.15.31-.16.16-.28.23-.21.1-.28.1-.12-.05-.15-.14-.04-.21-.04-.38.02-.31.04-.42.08-.22.15-.31.16-.17.28-.23zm0 .2c-.07.04-.12.08-.16.14s-.06.12-.08.2-.02.18-.02.3.01.22.02.29.04.1.08.11.09-.01.16-.05.12-.08.16-.14.06-.12.08-.2.03-.19.03-.31-.01-.22-.03-.28-.04-.1-.08-.11-.09 0-.16.04z" class="C"/></g><g filter="url(#F)"><rect width="313.66" height="68.81" rx="2.73" transform="matrix(.8672 -.498 0 1 145.529 235.934)" shape-rendering="crispEdges" class="C"/><g clip-path="url(#R)"><rect width="272.66" height="3.19" rx=".46" transform="matrix(.8672 -.498 0 1 178.293 281.301)" fill="#eee"/><path transform="matrix(.8672 -.498 0 1 183.035 278.578)" d="M0 0h104.69v3.19H0z" class="O"/><g clip-path="url(#S)"><path transform="matrix(.8672 -.498 0 1 178.295 281.297)" d="M0 0h3.19v3.19H0z" class="O"/><g clip-path="url(#T)"><path d="M180.02 282.74h-.01l-.72-.31c-.03-.01-.04-.04-.04-.08s.02-.09.04-.12l.72-1.14.01-.02c.01-.02.03-.03.04-.04.04-.02.07 0 .07.05v1.53c0 .05-.03.11-.07.13-.02.01-.03.01-.04.01z" fill="#505050"/></g></g><g clip-path="url(#U)"><path transform="matrix(.8672 -.498 0 1 411.979 147.113)" d="M0 0h3.19v3.19H0z" class="O"/><g clip-path="url(#V)"><path d="M413.03 148.95l.01-.01.72-1.14c.02-.04.04-.08.04-.12s-.02-.07-.04-.08l-.72-.31h-.01c-.01 0-.02 0-.04.01-.04.02-.07.08-.07.13v1.53c0 .05.03.07.07.05.01-.01.03-.02.04-.04z" fill="#505050"/></g></g></g><rect width="3.64" height="3.64" rx=".46" transform="matrix(.8672 -.498 0 1 148.262 298.082)" class="B"/><path d="M153.4 296.53a1 1 0 0 1 .31-.13c.08-.02.15 0 .2.04s.09.13.11.24.04.26.04.45-.01.35-.04.49-.06.26-.11.36-.12.2-.2.28-.19.16-.31.22-.22.11-.31.13-.15 0-.2-.04-.09-.12-.11-.24-.03-.26-.03-.45a3 3 0 0 1 .03-.49c.02-.14.06-.26.11-.37s.12-.2.2-.28a1.6 1.6 0 0 1 .31-.23zm0 .24a.8.8 0 0 0-.24.21c-.06.08-.1.18-.13.3s-.03.27-.03.46.01.33.03.42.07.15.13.16.14-.01.24-.07.18-.13.24-.21.1-.18.13-.3.04-.28.04-.46-.01-.33-.04-.42-.07-.14-.13-.16-.14.01-.24.07zm1.65-.63c.14-.08.24-.08.31 0s.09.24.09.47c0 .17-.02.32-.05.44s-.08.22-.14.3-.14.14-.24.2c-.08.04-.15.08-.23.09s-.14.02-.21.01l.01-.16.19-.05c.06-.02.11-.04.17-.08s.12-.08.15-.13.07-.11.09-.19a1.5 1.5 0 0 0 .03-.31c0-.12-.01-.22-.03-.28s-.04-.1-.08-.1-.08 0-.14.03-.12.08-.18.15a2.5 2.5 0 0 0-.2.26l-.02-.15c.04-.07.09-.15.14-.21s.11-.13.17-.19.12-.1.17-.13zm-.49.31l.02.26.02.03v.86l-.01.04.01.14v.16.37l-.23.13v-1.88l.19-.11zm1.68-1c.18-.1.31-.14.39-.11s.12.11.12.25c0 .12-.02.23-.07.32s-.12.17-.22.23l-.67.38v-.19l.61-.35c.05-.03.09-.07.1-.12s.02-.1.02-.14c0-.08-.02-.13-.06-.14s-.11.01-.21.07c-.08.05-.14.1-.19.15s-.08.12-.1.2-.03.18-.03.3c0 .14.01.24.03.3s.06.08.11.08.12-.03.21-.08l.2-.12.21-.14.02.16c-.04.04-.08.08-.14.13l-.16.12-.16.1c-.13.08-.24.12-.33.12s-.14-.04-.18-.12-.06-.21-.06-.37c0-.18.02-.32.06-.45s.1-.23.18-.32.18-.17.31-.24zm1.52-.87c.21-.12.31-.06.31.18v1l-.23.13v-.92c0-.08-.01-.13-.04-.15s-.06-.01-.12.02c-.07.04-.14.1-.2.17l-.24.29-.01-.17c.09-.13.18-.25.27-.34s.18-.17.26-.22zm-.53.34l.02.25.02.03v1.04l-.23.13v-1.33l.19-.11z" fill="#1b1c17"/><rect width="3.64" height="3.64" rx=".46" transform="matrix(.8672 -.498 0 1 162.621 289.836)" fill="#589aeb"/><path d="M167.75 288.29l.18-.1c.05-.03.1-.05.14-.06s.09-.03.13-.04l-.02.22-.13.06-.13.07-.16.09c-.1.06-.18.13-.24.21s-.1.18-.12.3a2.4 2.4 0 0 0-.04.46c0 .19.01.32.04.42s.07.14.13.15.14-.01.24-.07l.26-.15.21-.14.02.19c-.07.06-.14.12-.22.17s-.16.11-.27.17c-.16.09-.28.13-.38.13s-.16-.07-.21-.19a1.7 1.7 0 0 1-.06-.54c0-.24.02-.44.06-.61s.11-.31.21-.43.22-.22.38-.31zm.97-.55v1.53c0 .06.01.09.04.11s.07.01.12-.02l.11-.06.03.18c-.02.02-.04.04-.07.06l-.09.06-.07.05c-.09.05-.16.06-.21.04s-.08-.1-.08-.21v-1.59l.22-.13zm.99-.02c.14-.08.24-.12.32-.12s.14.04.18.12.05.21.05.38-.02.32-.05.44-.09.23-.18.32-.19.18-.32.25-.24.12-.33.12-.14-.04-.17-.12-.05-.21-.05-.38.02-.32.05-.44.09-.23.17-.32a1.3 1.3 0 0 1 .33-.25zm0 .21c-.08.05-.14.1-.19.15s-.08.12-.1.21-.03.18-.03.31a1 1 0 0 0 .03.28c.02.06.05.09.1.09s.11-.02.19-.07.14-.09.19-.15.08-.12.1-.21.03-.19.03-.31-.01-.22-.03-.27-.05-.09-.1-.09-.11.02-.19.06zm1.25-.93l.16-.09.17-.08.16-.07-.02.2-.22.12-.22.12-.16.1c-.04.03-.07.06-.09.09s-.03.07-.03.13c0 .06.01.1.04.1s.07 0 .13-.02l.33-.1c.09-.03.16-.03.21 0s.07.1.07.21c0 .11-.02.2-.06.28s-.09.14-.16.2-.17.13-.28.19l-.19.1a2.3 2.3 0 0 1-.28.12l.02-.19.12-.06.13-.07.15-.08.2-.12c.05-.04.08-.07.1-.11s.03-.08.03-.13c0-.06-.02-.09-.05-.09s-.08 0-.13.02l-.32.1c-.07.02-.12.03-.16.02s-.06-.04-.08-.07-.02-.1-.02-.17c0-.1.01-.19.05-.26s.08-.14.15-.19.16-.12.27-.18zm1.3-.75c.18-.1.31-.14.39-.11s.12.11.12.26c0 .12-.02.23-.07.32s-.12.17-.22.23l-.67.38v-.19l.61-.35c.05-.03.09-.07.1-.12s.02-.1.02-.15c0-.08-.02-.13-.06-.14s-.11.01-.21.07c-.08.05-.14.1-.19.15s-.08.12-.1.2-.03.18-.03.3c0 .14.01.24.03.3s.06.09.11.08.12-.03.21-.08l.2-.12.21-.14.02.16c-.04.04-.08.08-.14.13l-.16.12-.16.1c-.13.08-.24.12-.33.12s-.14-.04-.18-.12-.06-.21-.06-.37c0-.18.02-.32.06-.45s.1-.23.18-.32.18-.17.31-.24zm1.18-.68c.08-.04.15-.08.23-.1s.14-.02.21-.01l-.01.16-.19.05c-.05.02-.11.04-.17.08s-.12.08-.15.13-.07.11-.09.19-.03.18-.03.31.01.22.03.28.04.09.08.1.09-.01.14-.04c.04-.02.08-.05.12-.09s.07-.08.11-.13l.14-.19.02.16c-.06.1-.13.2-.21.3s-.17.17-.26.22c-.14.08-.25.08-.31 0s-.09-.24-.09-.47c0-.17.02-.32.05-.44s.08-.22.15-.3.15-.15.24-.21zm.63-.91v1.91l-.18.1-.03-.22-.02-.01v-.91l.01-.05c-.01-.05-.01-.09-.01-.14v-.16-.4l.23-.13z" fill="#1b1c17"/><path d="M414.74 132.78L156.18 281.25v-38.46" stroke-width=".23" class="E"/><use href="#k" transform="matrix(.8672 -.498 0 1 156.184 243.688)" class="E F G"/><use href="#k" transform="matrix(.8672 -.498 0 1 156.184 247.328)" class="E F G"/><use href="#k" transform="matrix(.8672 -.498 0 1 156.184 250.969)" class="E F G"/><use href="#k" transform="matrix(.8672 -.498 0 1 156.184 254.613)" class="E F G"/><use href="#k" transform="matrix(.8672 -.498 0 1 156.184 258.254)" class="E F G"/><use href="#k" transform="matrix(.8672 -.498 0 1 156.184 261.895)" class="E F G"/><use href="#k" transform="matrix(.8672 -.498 0 1 156.184 265.535)" class="E F G"/><use href="#k" transform="matrix(.8672 -.498 0 1 156.184 269.18)" class="E F G"/><use href="#k" transform="matrix(.8672 -.498 0 1 156.184 272.82)" class="E F G"/><use href="#k" transform="matrix(.8672 -.498 0 1 156.184 276.461)" class="E F G"/><use href="#k" transform="matrix(.8672 -.498 0 1 156.184 280.102)" class="E F G"/><path transform="matrix(0 -1 .8672 -.498 391.846 145.926)" d="M0 0h6.15v11.38H0z" class="B"/><use href="#l" transform="matrix(0 -1 .8672 -.498 391.846 139.781)" class="D"/><use href="#m" transform="matrix(0 -1 .8672 -.498 377.238 154.316)" class="B"/><use href="#l" transform="matrix(0 -1 .8672 -.498 377.238 136.109)" class="D"/><path transform="matrix(0 -1 .8672 -.498 362.633 162.699)" d="M0 0h11.38v11.38H0z" class="B"/><use href="#n" transform="matrix(0 -1 .8672 -.498 362.633 151.32)" class="D"/><use href="#l" transform="matrix(0 -1 .8672 -.498 348.031 171.09)" class="B"/><use href="#l" transform="matrix(0 -1 .8672 -.498 348.031 166.539)" class="D"/><path transform="matrix(0 -1 .8672 -.498 333.418 179.477)" d="M0 0h13.66v11.38H0z" class="B"/><use href="#n" transform="matrix(0 -1 .8672 -.498 333.418 165.82)" class="D"/><path transform="matrix(0 -1 .8672 -.498 318.816 187.863)" d="M0 0h13.66v11.38H0z" class="B"/><path transform="matrix(0 -1 .8672 -.498 318.816 174.207)" d="M0 0h3.87v11.38H0z" class="D"/><use href="#m" transform="matrix(0 -1 .8672 -.498 304.211 196.246)" class="B"/><use href="#l" transform="matrix(0 -1 .8672 -.498 304.211 178.039)" class="D"/><path transform="matrix(0 -1 .8672 -.498 289.611 204.633)" d="M0 0h4.1v11.38H0z" class="B"/><use href="#l" transform="matrix(0 -1 .8672 -.498 289.611 200.535)" class="D"/><use href="#n" transform="matrix(0 -1 .8672 -.498 274.998 213.027)" class="B"/><use href="#m" transform="matrix(0 -1 .8672 -.498 274.998 206.199)" class="D"/><use href="#o" transform="matrix(0 -1 .8672 -.498 260.396 221.406)" class="B"/><path transform="matrix(0 -1 .8672 -.498 260.396 212.301)" d="M0 0h3.87v11.38H0z" class="D"/><use href="#o" transform="matrix(0 -1 .8672 -.498 245.791 229.793)" class="B"/><use href="#n" transform="matrix(0 -1 .8672 -.498 245.791 220.688)" class="D"/><path transform="matrix(0 -1 .8672 -.498 231.189 238.172)" d="M0 0h6.15v11.38H0z" class="B"/><use href="#l" transform="matrix(0 -1 .8672 -.498 231.189 232.027)" class="D"/><path transform="matrix(0 -1 .8672 -.498 216.576 246.578)" d="M0 0h13.88v11.38H0z" class="B"/><use href="#o" transform="matrix(0 -1 .8672 -.498 216.576 232.695)" class="D"/><use href="#m" transform="matrix(0 -1 .8672 -.498 201.977 254.953)" class="B"/><use href="#l" transform="matrix(0 -1 .8672 -.498 201.977 236.746)" class="D"/><use href="#l" transform="matrix(0 -1 .8672 -.498 187.369 263.344)" class="B"/><use href="#l" transform="matrix(0 -1 .8672 -.498 187.369 258.793)" class="D"/><path transform="matrix(0 -1 .8672 -.498 172.77 271.723)" d="M0 0h11.38v11.38H0z" class="B"/><use href="#n" transform="matrix(0 -1 .8672 -.498 172.77 260.344)" class="D"/><path transform="matrix(0 -1 .8672 -.498 158.16 280.121)" d="M0 0h22.76v11.38H0z" class="B"/><use href="#n" transform="matrix(0 -1 .8672 -.498 158.16 257.363)" class="D"/><path d="M148.45 274.54c0-.14.01-.26.04-.37s.08-.22.14-.31.15-.19.26-.27a2.9 2.9 0 0 1 .4-.27c.16-.09.29-.15.4-.19s.19-.04.26-.02.11.07.14.15.04.19.04.32l-.01.37-.02.32-.19-.01.01-.26v-.32c0-.12-.02-.2-.06-.24s-.1-.05-.2-.03a1.7 1.7 0 0 0-.38.18c-.16.09-.29.18-.38.26s-.16.17-.2.26-.06.19-.06.31v.3.26l-.18.22-.01-.31-.01-.36zm.02.4l1.63-.94v.27l-1.63.94v-.27zm.45-2.42c0-.1.01-.19.04-.28s.06-.16.12-.23a.8.8 0 0 1 .23-.19l.8-.46v.21l-.25.19-.03.03-.53.3c-.07.04-.12.08-.15.14s-.04.13-.04.23l.01.26.02.3-.16.12-.03-.19-.02-.22-.01-.21zm.47-.62l.16-.09v.63c0 .06.02.1.04.11s.06 0 .11-.03l.07-.04c.06-.03.1-.07.13-.12s.04-.11.04-.17c0-.05-.01-.1-.02-.16s-.04-.1-.08-.15-.08-.08-.13-.1l.15-.09c.02.01.05.02.08.04s.06.05.09.08.05.08.07.13.03.11.03.19c0 .08-.01.16-.04.23s-.06.14-.11.2-.11.11-.18.15l-.13.07c-.09.05-.16.06-.21.02s-.07-.12-.07-.24v-.69zm-.44-1.47l1.21-.17c.05-.01.1-.01.15 0s.1.02.14.04.08.06.1.12.04.12.04.21l-.14.11c-.03-.09-.07-.15-.12-.18s-.11-.05-.18-.04l-.14.01-.11.02-.11.02-.84.15v-.28zm0 1.09l.84-.82.07-.07.07-.06v-.07l.17-.01v.08c0 .02 0 .04-.01.06s-.03.04-.05.06l-1.1 1.11v-.28zm-.03-1.78v-.19l.01-.21.02-.19.16-.07-.01.26v.25c0 .08 0 .14 0 .19s.02.07.03.08.05 0 .1-.03c.06-.03.09-.07.11-.11s.03-.1.04-.17l.08-.42c.02-.12.06-.22.1-.3s.12-.14.22-.2.17-.07.22-.06.08.06.09.13a1.4 1.4 0 0 1 .03.31v.22c0 .1-.01.21-.03.34l-.16.07v-.14-.16-.17-.22c-.01-.05-.02-.08-.04-.09s-.05 0-.1.02c-.05.03-.09.07-.1.12s-.03.11-.05.18l-.08.42c-.02.09-.04.16-.06.22s-.06.11-.1.15-.1.08-.16.12c-.09.05-.16.07-.2.06s-.08-.05-.09-.11-.03-.17-.02-.29zm-.48-1.98c0-.14.02-.26.04-.38s.07-.22.14-.31.15-.19.26-.28.24-.18.41-.27.29-.16.41-.19.2-.04.26-.02.11.07.14.16.04.19.04.33a1.6 1.6 0 0 1-.04.38c-.03.11-.07.22-.14.31s-.15.19-.26.28-.25.18-.41.27-.3.16-.41.19-.2.04-.26.02-.11-.07-.14-.15-.04-.19-.04-.33zm.21-.12c0 .12.02.2.06.25s.11.06.2.03a1.8 1.8 0 0 0 .38-.18c.16-.09.29-.18.38-.26s.16-.17.2-.26a.8.8 0 0 0 .06-.31c0-.12-.02-.2-.06-.24s-.11-.06-.2-.03a1.8 1.8 0 0 0-.38.18c-.16.09-.29.18-.38.26s-.16.17-.2.26-.06.19-.06.31zm.27-2.06c0-.16.05-.31.16-.44a1.6 1.6 0 0 1 .46-.37c.15-.09.27-.14.36-.15s.15.01.19.06.05.13.05.25c0 .09-.01.18-.03.28s-.06.2-.1.3l-.13.06.05-.24c.01-.07.02-.14.02-.21s-.01-.13-.03-.16-.06-.04-.12-.03-.14.05-.25.12-.19.12-.25.17-.1.11-.13.17-.04.12-.04.18.01.13.04.18.07.1.13.16l-.14.11c-.04-.02-.08-.05-.12-.09s-.06-.09-.08-.15-.03-.12-.03-.19zm.03.55l.23-.16.03-.04.74-.43h.03l.13-.09.14-.08.32-.19v.26l-1.63.93v-.22zm-.03-1.93c0-.21.03-.37.1-.5s.16-.23.28-.3c.1-.06.19-.08.24-.06s.09.09.09.21v.77l-.16.09v-.7c0-.06-.02-.09-.05-.09s-.07.01-.11.04c-.07.04-.12.1-.15.16s-.04.15-.04.26c0 .09.01.16.03.2s.06.05.12.04.14-.05.25-.11c.12-.07.21-.13.27-.19s.1-.13.13-.2.03-.16.03-.26v-.23l-.02-.23.15-.11c.02.04.03.08.04.14s.02.12.02.18v.18c0 .16-.02.29-.06.41s-.1.22-.19.32-.21.19-.35.27c-.15.09-.27.13-.36.14s-.15-.03-.19-.1-.06-.18-.06-.32zm0-1.75c0-.24.11-.42.32-.55l.87-.5v.26l-.8.46c-.07.04-.12.08-.15.13s-.04.1-.04.16c0 .08.02.15.05.21a1.6 1.6 0 0 0 .13.2l-.15.1c-.07-.06-.13-.13-.16-.21s-.06-.17-.06-.27zm.03.6l.22-.15.03-.04.9-.52v.26l-1.16.66v-.22z" class="H"/><g clip-path="url(#W)" class="L"><path d="M407.6 89.46l-2.3 1.32c-.28.16-.49.53-.49.85v2.66c0 .32.21.45.49.29l2.3-1.32c.28-.16.49-.53.49-.85v-2.66c0-.32-.21-.45-.49-.29zm-1.81 3.88c0 .11-.07.23-.17.28s-.16.02-.16-.1v-.76c0-.11.06-.23.16-.28s.17-.02.17.1v.76zm.82-.47c0 .11-.07.23-.16.28s-.17.02-.17-.1v-1.9c0-.11.07-.23.17-.28s.16-.02.16.1v1.9zm.82-.47c0 .11-.06.23-.16.28s-.16.02-.16-.1v-1.14c0-.11.07-.23.16-.28s.16-.02.16.1v1.14z"/></g><path d="M414.21 87.55c0 .33-.08.71-.25 1.07s-.39.71-.65.99a2.2 2.2 0 0 1-.84.58c-.28.1-.54.09-.75-.03s-.34-.34-.4-.63a2.2 2.2 0 0 1 .08-1.02c.11-.37.3-.74.54-1.06s.52-.58.81-.75v-.17l.44.08-.44.59v-.17c-.23.13-.45.34-.65.6s-.34.55-.43.85-.11.58-.07.81.16.41.32.5.37.1.6.03.46-.24.67-.46.39-.5.52-.79a2.2 2.2 0 0 0 .2-.86l.29-.17z" class="L"/><path d="M413.32 86.71c.03-.1.12-.19.19-.18s.14.03.21.05.06.13 0 .23h0c-.06.1-.15.15-.21.12-.04-.01-.08-.02-.12-.03-.07-.01-.1-.09-.07-.19h0z" class="L"/><path d="M413.92 87.01c.07-.08.16-.11.19-.04s.06.15.08.24c.02.08-.04.2-.12.25h0c-.08.06-.15.03-.17-.05-.01-.05-.03-.09-.04-.14-.03-.07 0-.19.07-.27h0z" class="L"/><circle cx=".67" cy=".67" r=".67" transform="matrix(.8672 -.498 0 1 412.17 88.043)" class="L"/><path d="M413.04 88.23c0 .06-.02.13-.05.21s-.08.14-.13.19-.11.09-.17.11-.11.02-.15 0-.07-.06-.08-.12-.01-.12.02-.19.06-.14.11-.2.1-.11.16-.15v-.03l.09.01-.09.11v-.03c-.05.03-.09.07-.13.12s-.07.11-.09.16-.02.11-.01.16.03.08.06.09.07.02.12 0 .09-.05.13-.09.08-.1.11-.15.04-.11.04-.16l.06-.03z" class="C"/><path d="M149.99 237.83a1.7 1.7 0 0 1 .56-.23c.14-.02.23.03.29.14s.09.29.09.56-.03.48-.09.66-.15.33-.28.47-.3.26-.52.38l-.34.18-.3.14-.24.09-.14.03.01-.31.46-.27.48-.28c.12-.07.21-.14.27-.21s.12-.15.14-.25.04-.22.04-.37-.01-.26-.04-.32c-.03-.07-.07-.1-.14-.09s-.16.04-.27.11l-.6.35-.34.21-.06-.39.3-.2.3-.18.4-.23zm-.5.33v3.14l-.49.28v-3.14l.49-.28zm2.73-.71c.24-.14.42-.21.56-.21s.24.06.3.2.09.35.09.63-.03.53-.09.74-.16.39-.3.55c-.14.16-.33.3-.56.44s-.42.2-.56.21-.24-.06-.3-.2-.09-.35-.09-.63a2.6 2.6 0 0 1 .09-.74c.06-.21.16-.39.3-.55s.33-.3.56-.44zm0 .42c-.12.07-.21.14-.28.23s-.11.18-.14.31-.04.29-.04.49.01.34.04.43.08.14.14.15.16-.03.28-.09.21-.14.28-.22a.7.7 0 0 0 .14-.31c.03-.13.04-.29.04-.49s-.01-.34-.04-.44-.07-.14-.14-.15-.16.03-.28.09zm2.11-1.63l.29-.16.31-.15.27-.11-.03.38-.38.21-.37.2-.26.16a.4.4 0 0 0-.13.13c-.02.04-.04.1-.04.18 0 .09.02.13.06.14s.11-.01.21-.04l.53-.16c.16-.05.28-.04.35.01s.11.17.11.36c0 .19-.03.34-.09.47s-.15.25-.28.36-.29.22-.48.33l-.34.18c-.15.08-.31.16-.49.22l.03-.38.19-.1.23-.13.26-.15.32-.2c.08-.06.13-.11.16-.16s.04-.11.04-.18c0-.09-.02-.13-.07-.12a.7.7 0 0 0-.21.04l-.52.15c-.12.03-.21.04-.28.02s-.11-.06-.14-.13-.04-.16-.04-.28c0-.16.03-.31.08-.43s.14-.23.26-.34.27-.21.47-.32zm1.85-1.01v2.23l-.47.27v-2.23l.47-.27zm-.13-.9c.09-.05.14-.03.14.08v.25c0 .11-.05.19-.14.25l-.21.12c-.09.06-.14.03-.14-.08v-.25c0-.11.05-.19.14-.25l.21-.12zm1.32-.43v2.2c0 .09.02.15.05.17s.1 0 .19-.05l.27-.15.05.36c-.04.04-.1.09-.16.13l-.19.13-.15.1c-.17.1-.3.12-.4.07-.09-.05-.14-.18-.14-.38v-2.31l.48-.27zm.58.31v.38l-1.4.8v-.36l.38-.24 1.02-.59zm.84-.48v2.24l-.47.27V234l.47-.27zm-.13-.89c.09-.06.14-.03.14.08v.25c0 .11-.05.19-.14.25l-.21.12c-.09.05-.14.03-.14-.08v-.25c0-.11.05-.19.14-.25l.21-.12zm1.56.02c.24-.14.42-.21.56-.21s.24.06.3.2.09.35.09.63-.03.53-.09.74-.16.39-.3.55-.33.3-.56.44c-.23.13-.42.2-.56.21-.14 0-.24-.06-.3-.2s-.09-.35-.09-.63a2.6 2.6 0 0 1 .09-.74c.06-.21.16-.39.3-.55s.33-.3.56-.44zm0 .42c-.12.07-.21.14-.28.23-.07.08-.11.18-.14.31s-.04.29-.04.48.01.34.04.44.08.14.14.15.16-.03.28-.09.21-.14.28-.22a.7.7 0 0 0 .14-.31c.03-.12.04-.29.04-.48s-.01-.34-.04-.44-.07-.14-.14-.15-.16.03-.28.09zm2.69-1.96c.36-.21.54-.11.54.3v1.67l-.48.27v-1.51c0-.12-.02-.19-.06-.22s-.1-.01-.19.04c-.1.06-.2.14-.3.25l-.37.43-.02-.32c.14-.22.29-.41.43-.56s.29-.28.43-.36zm-.88.56l.05.41.04.04v1.74l-.48.27v-2.24l.39-.22zm4.88-3.71l-.78 3.43c-.01.05-.03.1-.07.15s-.07.09-.11.11l-.47.27c-.04.03-.08.03-.11.02s-.05-.04-.06-.08l-.78-2.53.51-.29.56 2.04.04.15c.01.05.02.1.03.16l.1-.06.04-.19.04-.2.56-2.68.51-.29zm1.18.17c.16-.09.29-.14.4-.15s.19.02.24.1.08.22.08.42v1.52l-.38.22-.07-.44-.03-.04v-.97c0-.12-.02-.19-.07-.21s-.14 0-.27.08l-.38.23-.45.3-.04-.35.31-.23.35-.24.32-.2zm.51.62v.34l-.89.51c-.08.05-.14.1-.17.17s-.05.14-.05.22v.12c0 .09.02.15.06.17s.11.01.2-.04c.07-.04.15-.1.24-.18s.17-.18.26-.29a2.7 2.7 0 0 0 .23-.36v.29a3.5 3.5 0 0 1-.12.23c-.05.09-.11.19-.19.29s-.15.2-.25.29-.19.17-.31.24-.22.1-.31.11-.16-.02-.22-.08-.08-.16-.08-.3v-.24c0-.18.05-.34.15-.5a1.2 1.2 0 0 1 .42-.39l1.02-.59zm1.59-1.83l.22-.12a2.2 2.2 0 0 1 .24-.1c.08-.03.16-.04.22-.05l-.06.38-.29.15-.25.14c-.13.08-.24.16-.32.25-.08.08-.13.19-.17.31s-.05.28-.05.47.02.33.05.41.09.13.17.12.19-.04.32-.12l.15-.09.21-.13.22-.15.05.33c-.1.11-.22.21-.34.3a3.7 3.7 0 0 1-.37.25 1.3 1.3 0 0 1-.56.21c-.14 0-.24-.06-.3-.19a1.7 1.7 0 0 1-.09-.64c0-.29.03-.53.09-.74s.16-.39.3-.54.32-.3.56-.43zm2.08-1.19c.16-.09.29-.14.39-.15s.19.02.24.1.08.22.08.42v1.52l-.38.22-.07-.44-.04-.04v-.97c0-.12-.02-.19-.07-.21s-.14 0-.27.08l-.38.23-.45.3-.04-.35.31-.23.35-.24.32-.2zm.51.62v.34l-.89.51c-.08.05-.13.1-.17.17s-.05.14-.05.22v.12c0 .09.02.15.06.17s.11.01.2-.04c.07-.04.15-.1.24-.18s.17-.18.26-.29.16-.23.23-.36v.29l-.11.23a3 3 0 0 1-.19.29 2.1 2.1 0 0 1-.25.29c-.09.09-.19.17-.31.24s-.22.1-.31.11-.16-.02-.22-.08-.08-.16-.08-.3v-.24c0-.18.05-.34.15-.5a1.2 1.2 0 0 1 .42-.39l1.02-.59zm2-2.06c.36-.21.54-.1.54.3v1.68l-.48.27v-1.51c0-.12-.02-.19-.06-.22s-.1-.01-.19.04c-.1.06-.2.14-.3.25l-.37.43-.02-.32c.15-.22.29-.41.44-.56s.29-.28.43-.36zm-.88.56l.05.41.04.04v1.73l-.48.27v-2.23l.39-.22zm2.82-1.67l.22-.11c.08-.04.16-.07.24-.1s.16-.04.22-.05l-.06.38-.29.15-.25.14c-.13.08-.24.16-.32.25s-.13.19-.17.31-.05.28-.05.47.02.32.05.41.09.12.17.12.19-.04.32-.12l.15-.09.21-.13.22-.15.05.33c-.1.11-.22.21-.34.3s-.25.18-.37.25c-.23.13-.42.2-.56.21s-.24-.06-.3-.19-.09-.35-.09-.64.03-.54.09-.74.16-.39.3-.54.33-.3.56-.43zm2.96-1.64l-.73 2.72c-.03.13-.08.26-.13.39a2.3 2.3 0 0 1-.19.4c-.08.13-.17.25-.28.36s-.23.2-.37.27l-.04-.3c.16-.14.28-.28.37-.42a1.8 1.8 0 0 0 .21-.46l.11-.35.07-.27.06-.26.42-1.78.51-.29zm-1.56.9l.43 1.29.03.14.03.14.1-.06-.15.47-.13.07c-.04.02-.07.03-.1.02s-.05-.03-.06-.07l-.67-1.71.51-.29zm3.72-3.08a1.8 1.8 0 0 1 .52-.22c.15-.03.26-.01.35.06s.15.2.19.38a3.6 3.6 0 0 1 .06.74 4.8 4.8 0 0 1-.06.81c-.04.23-.1.43-.19.61a1.7 1.7 0 0 1-.35.46c-.14.13-.31.26-.52.38l-.55.3-.48.25.21-.55.36-.19.46-.26c.15-.09.27-.19.36-.31.09-.12.15-.28.19-.46a4 4 0 0 0 .05-.73c0-.3-.02-.52-.05-.66s-.1-.23-.19-.25-.21.01-.36.1l-.44.26-.37.22-.22-.29.47-.3.55-.33zm-.53.35v3.14l-.49.28v-3.14l.49-.28zm2.6-.59v1.51c0 .11.02.18.06.21s.11.01.2-.04.18-.13.28-.23a6.4 6.4 0 0 0 .34-.4l.05.3c-.15.22-.29.41-.43.55a1.8 1.8 0 0 1-.43.35c-.36.21-.54.1-.54-.3v-1.68l.48-.27zm1.3-.75v2.24l-.38.22-.05-.4-.05-.04v-1.74l.48-.27zm.91-.52l.06.4.04.04v1.74l-.48.27v-2.24l.37-.21zm.95-.6l-.05.54-.14.08c-.1.06-.21.14-.31.24s-.24.23-.4.4l-.03-.31c.14-.21.28-.4.42-.55s.28-.27.41-.35l.09-.06zm1.29-.74c.16-.09.29-.14.39-.15s.19.02.24.1.08.22.08.42v1.52l-.38.22-.07-.44-.03-.04v-.97c0-.12-.02-.19-.07-.21s-.14 0-.27.07l-.38.23-.45.3-.04-.35.31-.23.35-.24.32-.2zm.51.62v.34l-.89.51c-.08.05-.13.11-.17.17s-.05.14-.05.22v.12c0 .09.02.15.06.17s.11.01.2-.04c.07-.04.15-.1.24-.18s.17-.18.26-.29.16-.23.23-.36v.29c-.03.06-.06.14-.12.23a3.1 3.1 0 0 1-.19.29c-.07.1-.15.2-.25.29s-.19.17-.31.24-.22.1-.31.11-.16-.02-.22-.08-.08-.16-.08-.3v-.24c0-.18.05-.34.15-.5a1.2 1.2 0 0 1 .42-.39l1.02-.59zm1.36-2.28v2.2c0 .09.02.15.05.17s.1 0 .19-.05l.27-.15.05.36-.16.13-.19.13-.15.1c-.17.1-.3.12-.39.07s-.14-.18-.14-.38v-2.31l.48-.28zm.58.31v.38l-1.4.8v-.36l.38-.24 1.02-.58zm.84-.48v2.23l-.47.27v-2.23l.47-.27zm-.13-.9c.09-.05.14-.03.14.08v.25c0 .11-.05.19-.14.25l-.21.12c-.09.05-.14.03-.14-.08v-.25c0-.11.05-.19.14-.25l.21-.12zm1.56.02c.24-.14.43-.21.56-.21s.24.06.3.2.09.35.09.63-.03.53-.09.74-.16.39-.3.55-.33.3-.56.44-.42.2-.56.21-.24-.06-.3-.2-.09-.35-.09-.63.03-.53.09-.74.17-.39.3-.55.33-.3.56-.44zm0 .42c-.12.07-.21.14-.28.23s-.11.18-.14.31-.04.29-.04.49.01.34.04.44.08.14.14.15.16-.03.28-.09.21-.14.28-.22a.7.7 0 0 0 .14-.31c.03-.13.04-.29.04-.49s-.02-.34-.04-.44-.07-.14-.14-.15-.16.03-.28.09zm2.69-1.96c.36-.21.54-.11.54.3v1.68l-.48.27v-1.51c0-.12-.02-.19-.06-.22s-.1-.01-.19.04a1.3 1.3 0 0 0-.3.25l-.37.43-.02-.32a4.3 4.3 0 0 1 .43-.56 1.9 1.9 0 0 1 .43-.36zm-.88.56l.05.41.04.04v1.73l-.48.27v-2.23l.39-.22zm2.65-1.57l.29-.16.31-.15.27-.11-.03.38-.38.21-.37.2-.26.16c-.06.04-.1.08-.13.13s-.04.1-.04.18c0 .09.02.13.06.14s.11-.01.21-.04l.53-.16c.16-.05.28-.04.35.01s.11.17.11.36c0 .19-.03.34-.09.47s-.15.25-.28.36-.29.22-.49.33l-.34.18c-.15.08-.31.16-.49.22l.03-.38.19-.1.23-.13.26-.15.32-.2c.08-.06.13-.11.16-.16s.04-.11.04-.18c0-.09-.03-.13-.08-.12-.05 0-.12.01-.21.04l-.52.15c-.12.03-.21.04-.28.02s-.11-.06-.14-.13-.04-.16-.04-.28c0-.16.03-.31.08-.43s.14-.24.26-.34a2.7 2.7 0 0 1 .47-.32zm3.37-1.93c.25-.14.43-.16.54-.04s.17.38.17.79c0 .18-.01.35-.04.51s-.07.31-.14.46-.16.27-.28.4-.27.24-.45.34l-.22.12-.26.12-.25.09c-.08.03-.15.04-.21.04l.38-.56c.06-.01.12-.03.18-.05l.19-.08.18-.1c.1-.06.19-.14.25-.22s.11-.19.14-.31.04-.29.04-.48c0-.18-.01-.32-.04-.41s-.06-.14-.12-.15-.14.02-.25.08c-.09.06-.18.13-.26.23l-.28.37-.03-.28c.07-.13.15-.25.22-.36s.17-.21.26-.3.18-.16.28-.21zm-.67-.51v.77l-.01.29a1.7 1.7 0 0 1-.04.28l.05.04v1.72l-.48.25v-3.07l.48-.27zm3.66-1.15l-.73 2.72-.13.39c-.05.13-.12.27-.19.4s-.17.25-.28.36-.23.2-.37.27l-.04-.31c.16-.14.28-.28.37-.42s.16-.29.21-.46l.11-.35.07-.27.06-.26.42-1.78.51-.3zm-1.56.9l.43 1.29.03.14.03.14.1-.06-.15.47-.13.07c-.04.02-.07.03-.1.02s-.05-.03-.06-.07l-.67-1.72.51-.29zm3.69-3.07c.24-.14.43-.22.56-.23s.23.03.29.14c.06.11.09.29.09.56s-.03.49-.09.66-.15.33-.28.47-.3.26-.52.38l-.34.18-.3.14-.24.09c-.06.02-.11.03-.14.03l.01-.31.46-.26.48-.27c.12-.07.21-.14.27-.21s.12-.15.14-.24c.03-.1.04-.22.04-.37s-.01-.25-.04-.32-.07-.1-.14-.09c-.07 0-.16.04-.27.11l-.6.35-.34.21-.05-.39.3-.2.3-.18.4-.23zm-.5.33v3.14l-.49.28v-3.14l.49-.28zm2.24-.38l.06.4.04.04v1.73l-.48.28v-2.23l.37-.21zm.95-.6l-.05.54-.14.08c-.1.06-.21.14-.31.24l-.39.41-.03-.3a4 4 0 0 1 .42-.55c.14-.16.28-.27.41-.35l.09-.05zm.81-.41v2.23l-.47.27v-2.23l.47-.27zm-.13-.89c.09-.06.14-.03.14.08v.25c0 .11-.05.19-.14.25l-.21.12c-.09.05-.14.03-.14-.08v-.25c0-.11.05-.19.14-.25l.21-.12zm3.1-.86c.17-.1.3-.12.39-.06.09.05.14.18.14.38v1.68l-.47.27v-1.51c0-.11-.02-.18-.06-.21s-.1-.02-.19.03c-.06.03-.11.07-.16.12s-.11.11-.17.19l-.23.3-.03-.32a4.1 4.1 0 0 1 .39-.54 1.6 1.6 0 0 1 .4-.33zm-2.03 1.22l.05.41.05.04v1.74l-.48.27v-2.24l.38-.22zm.8-.51c.17-.1.3-.12.39-.07s.14.18.14.38v1.67l-.46.27v-1.51c0-.12-.02-.19-.06-.21s-.1-.01-.19.04c-.05.03-.1.07-.16.12a1.7 1.7 0 0 0-.17.19l-.24.31-.03-.32c.13-.22.26-.4.39-.54s.26-.25.4-.33zm3.26-1.87c.16-.09.29-.14.4-.15s.19.02.24.1.08.22.08.42v1.52l-.38.22-.07-.44-.04-.04v-.97c0-.12-.02-.19-.07-.21s-.14 0-.27.07l-.38.23-.45.3-.04-.35.31-.23.35-.24.32-.2zm.51.62v.34l-.89.51c-.08.05-.14.1-.17.17s-.05.14-.05.22v.12c0 .09.02.15.06.17s.11.01.2-.05c.07-.04.15-.1.24-.18s.17-.18.26-.29.16-.23.23-.36v.29l-.11.23a3 3 0 0 1-.19.29c-.07.1-.15.2-.25.29s-.19.17-.31.24-.22.1-.31.11-.16-.02-.22-.09-.08-.16-.08-.3v-.24a.9.9 0 0 1 .15-.5c.1-.16.24-.29.42-.39l1.02-.59zm1.09-1.49l.06.4.04.04V203l-.48.27v-2.23l.37-.21zm.95-.6l-.05.54-.14.08c-.1.06-.21.14-.31.24l-.4.4-.03-.31c.14-.21.28-.4.42-.55s.28-.27.41-.35l.09-.06zm2.18-1.19l-.73 2.72c-.03.13-.08.26-.13.39a2.3 2.3 0 0 1-.19.4 2 2 0 0 1-.28.36c-.11.11-.23.2-.37.27l-.04-.3c.16-.14.28-.28.37-.42s.16-.29.21-.46l.11-.35.07-.27.06-.26.42-1.78.51-.29zm-1.56.9l.43 1.29.04.14.03.14.1-.06-.15.47-.13.07c-.04.02-.07.03-.1.02s-.05-.03-.06-.07l-.67-1.72.51-.29zm3.53-2.99l.42-.21a2.7 2.7 0 0 1 .44-.17l-.03.41-.39.22-.43.24-.22.13c-.06.04-.11.08-.14.13s-.06.1-.08.16-.02.13-.02.22c0 .14.02.22.07.25s.13.03.24 0l.54-.13c.22-.05.36-.02.45.08s.12.26.12.5c0 .18-.02.34-.06.47s-.09.26-.17.37a1.5 1.5 0 0 1-.3.31c-.12.1-.27.2-.45.3l-.37.19c-.16.08-.33.15-.53.22l.03-.43.39-.21.27-.15.21-.12c.12-.07.22-.13.28-.19s.12-.12.14-.19.04-.17.04-.28c0-.09-.01-.16-.03-.2s-.05-.07-.1-.07-.1 0-.17.02l-.56.12c-.2.04-.35.02-.43-.07s-.12-.26-.12-.5c0-.18.02-.34.06-.47s.09-.25.17-.36.17-.2.29-.29.26-.19.43-.29zm3.15-.84l-.55 1.11c-.02.05-.05.1-.08.15l-.08.13v.01c.02 0 .05.02.08.04s.06.05.08.08l.62.68-.54.31-.71-.86.64-1.34.54-.31zm-1.27-.22v1.36a2.9 2.9 0 0 1-.02.3l-.04.3.03.25c.01.09.02.17.02.25v.72l-.48.27v-3.19l.48-.27zm.3 1.59v.36l-.45.26v-.35l.45-.26zm1.84-1.86v2.24l-.47.27v-2.23l.47-.27zm-.13-.89c.09-.06.14-.03.14.08v.25c0 .11-.05.19-.14.25l-.21.12c-.09.05-.14.03-.14-.08v-.25c0-.11.05-.19.14-.25l.21-.12zm1.16-.65v2.51c0 .09.02.14.06.16s.1 0 .18-.04l.17-.1.06.36c-.03.03-.07.07-.12.11s-.1.08-.16.11l-.14.09c-.16.09-.29.12-.38.07s-.14-.16-.14-.35v-2.65l.47-.27zm1.25-.71v2.51c0 .09.02.14.06.16s.1 0 .18-.04l.17-.1.06.36c-.03.03-.07.07-.12.11s-.1.08-.16.11l-.14.09c-.16.09-.29.12-.38.07s-.14-.16-.14-.35v-2.65l.47-.27z" class="H"/></g><path d="M132.07 216.87v12.3L433.56 56.05v-12.3c0-7.95-5.64-11.15-12.62-7.16L144.68 195.23c-6.96 4-12.62 13.68-12.62 21.63v.01z" class="H"/><use href="#p" fill="#f22071"/><path d="M402.74 59.81c0 2.25 1.59 3.14 3.55 2.01a7.8 7.8 0 0 0 3.55-6.1c0-2.25-1.59-3.14-3.55-2.01a7.8 7.8 0 0 0-3.55 6.1z" fill="#4bbc79"/><path d="M296.83 125.3l96.47-56.07c1.43-.83 2.59-3.06 2.59-4.99s-1.16-2.8-2.59-1.98l-96.47 56.07c-1.43.83-2.59 3.06-2.59 4.99s1.16 2.8 2.59 1.98z" fill="#dcdcdc"/><path d="M146.54 203.83l.94-.52.72-.34.68-.23-.14 1.57-.69.37-.67.37-.85.49c-.38.23-.69.5-.91.82-.21.3-.36.69-.45 1.18s-.14 1.11-.14 1.89c0 .76.05 1.34.14 1.72.09.38.24.59.45.64.22.05.52-.05.91-.28l1.31-.81 1.05-.72.15 1.39c-.36.35-.73.66-1.11.94-.38.29-.84.6-1.4.93-.81.48-1.45.72-1.93.71-.48-.02-.83-.31-1.05-.86a7.8 7.8 0 0 1-.32-2.58 11.9 11.9 0 0 1 .32-2.96 5.5 5.5 0 0 1 1.05-2.1c.48-.6 1.13-1.14 1.93-1.62zm8.63-5.17c.38-.23.8-.45 1.25-.67.45-.23.89-.4 1.32-.51l-.11 1.41-1.16.66-1.31.77-.54.35a1.9 1.9 0 0 0-.35.31c-.09.11-.16.23-.19.38-.04.14-.06.31-.06.51 0 .31.06.5.18.56.13.06.34.06.65 0l1.5-.33c.63-.13 1.06-.05 1.3.22s.36.76.36 1.44a5.5 5.5 0 0 1-.16 1.39c-.11.41-.27.77-.5 1.1s-.52.64-.89.94a10.6 10.6 0 0 1-1.36.94l-1.1.59a11.1 11.1 0 0 1-1.62.68l.1-1.48 1.16-.66.84-.47.61-.36a5.2 5.2 0 0 0 .71-.49c.17-.15.29-.31.36-.48s.1-.38.1-.63c0-.22-.03-.37-.08-.47-.05-.1-.12-.15-.24-.16s-.26.01-.44.05l-1.58.31c-.6.12-1.03.04-1.28-.22-.24-.27-.36-.75-.36-1.43a5.4 5.4 0 0 1 .16-1.37c.11-.4.28-.76.51-1.07.23-.32.52-.62.88-.91a12.7 12.7 0 0 1 1.32-.9zm5.59-.58v4.28c0 .27.05.44.15.49.11.05.27.01.5-.13.23-.14.46-.33.69-.56l.87-1.01.13.99a12 12 0 0 1-1.2 1.63 5.2 5.2 0 0 1-1.21 1.03c-1.06.63-1.58.34-1.58-.86v-4.87l1.66-.99zm3.7-2.21v6.51l-1.31.78-.19-1.16-.17-.08v-5.05l1.67-1zm3.07-1.84v6.51l-1.65.99v-6.51l1.65-.99zm-.46-2.59c.33-.2.5-.1.5.28v.71c0 .39-.17.68-.5.88l-.72.43c-.33.2-.5.1-.5-.28v-.71c0-.39.17-.68.5-.88l.72-.43zm4.06-1.36v6.23c0 .24.05.38.14.43.1.04.26-.01.47-.14l.72-.43.18 1.21a5.6 5.6 0 0 1-.5.43l-.59.44-.5.32c-.5.3-.9.38-1.19.25-.28-.15-.42-.51-.42-1.08v-6.67l1.67-1zm1.56.87v1.28l-4.21 2.51v-1.21l1.09-.71 3.12-1.87zm3.54-2.29c.94-.56 1.62-.78 2.03-.64.41.12.62.55.62 1.29.01.58-.12 1.1-.38 1.56s-.72.88-1.37 1.27l-3.12 1.87v-1.09l2.67-1.59c.25-.15.41-.3.47-.47.08-.18.11-.38.11-.61 0-.31-.07-.47-.23-.5-.14-.04-.39.05-.75.26-.31.18-.55.37-.72.58a1.7 1.7 0 0 0-.36.77 6.1 6.1 0 0 0-.1 1.25 4.1 4.1 0 0 0 .12 1.19c.08.24.22.36.42.36.2-.01.48-.12.84-.33l.95-.59 1.15-.81.16 1.1c-.22.25-.47.5-.75.74s-.56.46-.86.66l-.85.56a4 4 0 0 1-1.71.67c-.43.01-.74-.18-.94-.56-.19-.39-.28-.97-.28-1.75a7.5 7.5 0 0 1 .28-2.2c.2-.62.5-1.16.93-1.64a7.1 7.1 0 0 1 1.66-1.32z" class="C"/></g><defs><filter id="A" x="145.5" y="303.27" width="60.78" height="77.5" filterUnits="userSpaceOnUse" class="J"><feFlood result="A" class="K"/><feColorMatrix in="SourceAlpha" values="0 0 0 0 0 0 0 0 0 0 0 0 0 0 0 0 0 0 127 0" result="B"/><feOffset dy="0.970624"/><feGaussianBlur stdDeviation=".49"/><feComposite in2="B" operator="out"/><feColorMatrix values="0 0 0 0 0 0 0 0 0 0 0 0 0 0 0 0 0 0 0.1 0"/><feBlend in2="A"/><feBlend in="SourceGraphic"/></filter><filter id="B" x="153.46" y="341.05" width="44.86" height="38.75" filterUnits="userSpaceOnUse" class="J"><feFlood result="A" class="K"/><feColorMatrix in="SourceAlpha" values="0 0 0 0 0 0 0 0 0 0 0 0 0 0 0 0 0 0 127 0" result="B"/><feOffset dy="0.485312"/><feGaussianBlur stdDeviation=".24"/><feComposite in2="B" operator="out"/><feColorMatrix values="0 0 0 0 0 0 0 0 0 0 0 0 0 0 0 0 0 0 0.25 0"/><feBlend in2="A"/><feBlend in="SourceGraphic"/></filter><filter id="C" x="145.99" y="341.05" width="30.39" height="36.08" filterUnits="userSpaceOnUse" class="J"><feFlood result="A" class="K"/><feColorMatrix in="SourceAlpha" values="0 0 0 0 0 0 0 0 0 0 0 0 0 0 0 0 0 0 127 0" result="B"/><feOffset dy="0.485312"/><feGaussianBlur stdDeviation=".24"/><feComposite in2="B" operator="out"/><feColorMatrix values="0 0 0 0 0 0 0 0 0 0 0 0 0 0 0 0 0 0 0.25 0"/><feBlend in2="A"/><feBlend in="SourceGraphic"/></filter><filter id="D" x="147.72" y="318.26" width="28.66" height="28.24" filterUnits="userSpaceOnUse" class="J"><feFlood result="A" class="K"/><feColorMatrix in="SourceAlpha" values="0 0 0 0 0 0 0 0 0 0 0 0 0 0 0 0 0 0 127 0" result="B"/><feOffset dy="0.485312"/><feGaussianBlur stdDeviation=".24"/><feComposite in2="B" operator="out"/><feColorMatrix values="0 0 0 0 0 0 0 0 0 0 0 0 0 0 0 0 0 0 0.25 0"/><feBlend in2="A"/><feBlend in="SourceGraphic"/></filter><filter id="E" x="162.36" y="307.27" width="14.02" height="34.74" filterUnits="userSpaceOnUse" class="J"><feFlood result="A" class="K"/><feColorMatrix in="SourceAlpha" values="0 0 0 0 0 0 0 0 0 0 0 0 0 0 0 0 0 0 127 0" result="B"/><feOffset dy="0.485312"/><feGaussianBlur stdDeviation=".24"/><feComposite in2="B" operator="out"/><feColorMatrix values="0 0 0 0 0 0 0 0 0 0 0 0 0 0 0 0 0 0 0.25 0"/><feBlend in2="A"/><feBlend in="SourceGraphic"/></filter><filter id="F" x="144.62" y="79.29" width="273.82" height="226.83" filterUnits="userSpaceOnUse" class="J"><feFlood result="A" class="K"/><feColorMatrix in="SourceAlpha" values="0 0 0 0 0 0 0 0 0 0 0 0 0 0 0 0 0 0 127 0" result="B"/><feOffset dy="0.455187"/><feGaussianBlur stdDeviation=".46"/><feComposite in2="B" operator="out"/><feColorMatrix values="0 0 0 0 0.0235294 0 0 0 0 0.407843 0 0 0 0 0.882353 0 0 0 0.2 0"/><feBlend in2="A"/><feBlend in="SourceGraphic"/></filter><linearGradient id="G" x1="570.01" y1="398.29" x2="108.94" y2="398.29" href="#q"><stop stop-color="#a6ceff"/><stop offset="1" stop-color="#9cc5f8"/></linearGradient><linearGradient id="H" x1="466" y1="82.55" x2="236.9" y2="523.53" href="#q"><stop stop-color="#fff"/><stop offset="1" stop-color="#d4e7fe"/></linearGradient><linearGradient id="I" x1="524.03" y1="285.27" x2="156.43" y2="498.84" href="#q"><stop stop-color="#bdd2f4"/><stop offset="1" stop-color="#e5faff"/></linearGradient><linearGradient id="J" x1="914.3" y1="27.53" x2="654.66" y2="178.38" href="#q"><stop stop-color="#bdd2f4"/><stop offset="1" stop-color="#e7f2ff"/></linearGradient><linearGradient id="K" x1="630.14" y1="287.46" x2="549" y2="334.6" href="#q"><stop stop-color="#bdd2f4"/><stop offset="1" stop-color="#d3e7ff"/></linearGradient><linearGradient id="L" x1="508.1" y1="167.79" x2="518.91" y2="187.63" href="#q"><stop stop-color="#0f042e"/><stop offset="1" stop-color="#1c1265"/></linearGradient><linearGradient id="M" x1="-59.76" y1="394.63" x2="-351.86" y2="564.33" href="#q"><stop stop-color="#e5faff"/><stop offset="1" stop-color="#bdd2f4"/></linearGradient><linearGradient id="N" x1="378.52" y1="54.85" x2="115.38" y2="380.67" href="#q"><stop stop-color="#3b92ff"/><stop offset="1" stop-color="#4f9eff"/></linearGradient><linearGradient id="O" x1="-55.94" y1="395.55" x2="-348.04" y2="565.25" href="#q"><stop stop-color="#1c1265"/><stop offset="1" stop-color="#0f042e"/></linearGradient><linearGradient id="P" x1="204.87" y1="288.09" x2="282.35" y2="143.12" href="#q"><stop stop-color="#f5f5f5"/><stop offset=".05" stop-color="#c7c7c7"/><stop offset=".09" stop-color="#9c9c9c"/><stop offset=".14" stop-color="#777"/><stop offset=".2" stop-color="#565656"/><stop offset=".25" stop-color="#3b3b3b"/><stop offset=".32" stop-color="#252525"/><stop offset=".4" stop-color="#141414"/><stop offset=".49" stop-color="#080808"/><stop offset=".63" stop-color="#010101"/><stop offset="1"/></linearGradient><clipPath id="Q"><path d="M0 0h600v600H0z" class="C"/></clipPath><clipPath id="R"><rect width="272.66" height="3.19" rx=".46" transform="matrix(.8672 -.498 0 1 178.293 281.301)" class="C"/></clipPath><clipPath id="S"><path transform="matrix(.8672 -.498 0 1 178.295 281.297)" d="M0 0h3.19v3.19H0z" class="C"/></clipPath><clipPath id="T"><path transform="matrix(0 -1 -.8672 .498 180.865 282.777)" d="M0 0h2.73v2.73H0z" class="C"/></clipPath><clipPath id="U"><path transform="matrix(.8672 -.498 0 1 411.979 147.113)" d="M0 0h3.19v3.19H0z" class="C"/></clipPath><clipPath id="V"><path transform="matrix(0 -1 .8672 -.498 412.174 149.973)" d="M0 0h2.73v2.73H0z" class="C"/></clipPath><clipPath id="W"><path transform="matrix(.8672 -.498 0 1 404.475 90.8789)" d="M0 0h4.55v4.55H0z" class="C"/></clipPath><path id="X" d="M302.999 520.683L565.592 370.03C570.945 366.961 570.271 361.585 564.095 358.033L397.23 262.303C391.036 258.75 381.678 258.36 376.325 261.447L113.733 412.12C108.38 415.188 109.054 420.564 115.23 424.116L282.095 519.846C288.289 523.398 297.647 523.789 302.999 520.702V520.683Z"/><path id="Y" d="M372.47 300.5l9.64-5.52c1.24-.71 1.07-1.93-.34-2.75l-2.81-1.62c-1.42-.82-3.57-.91-4.79-.2l-9.64 5.52c-1.24.71-1.07 1.93.34 2.75l2.81 1.62c1.42.82 3.57.91 4.79.2z"/><path id="Z" d="M341.65 318.19l9.64-5.52c1.24-.71 1.07-1.94-.34-2.75l-2.81-1.62c-1.42-.82-3.57-.91-4.79-.21l-9.64 5.52c-1.24.71-1.07 1.94.34 2.75l2.81 1.62c1.42.82 3.57.91 4.79.2z"/><path id="a" d="M233.72 380.13l9.64-5.52c1.24-.71 1.07-1.93-.34-2.75l-2.81-1.62c-1.42-.82-3.57-.91-4.79-.2l-9.64 5.52c-1.23.71-1.07 1.93.34 2.75l2.81 1.62c1.42.82 3.57.91 4.79.2z"/><path id="b" d="M371.8 316.83l8.93-5.12c.82-.46.71-1.28-.23-1.84l-8.38-4.82c-.96-.54-2.38-.59-3.2-.13l-8.93 5.12c-.82.46-.71 1.28.23 1.84l8.38 4.82c.95.54 2.38.6 3.2.13z"/><path id="c" d="M378.93 328.82l8.93-5.11c.82-.47.71-1.28-.23-1.84l-8.38-4.82c-.96-.54-2.38-.6-3.2-.13l-8.93 5.12c-.82.47-.71 1.28.23 1.84l8.38 4.82c.95.54 2.38.6 3.2.13z"/><path id="d" d="M303.97 371.82l8.93-5.12c.82-.46.71-1.28-.22-1.84l-8.38-4.82c-.95-.54-2.38-.6-3.2-.13l-8.93 5.12c-.82.46-.71 1.28.22 1.84l8.38 4.82c.95.54 2.38.6 3.2.13z"/><path id="e" d="M273.99 389.01l8.93-5.12c.82-.47.71-1.28-.22-1.84l-8.38-4.82c-.95-.54-2.38-.6-3.2-.13l-8.93 5.12c-.82.46-.71 1.28.22 1.84l8.38 4.82c.95.54 2.38.6 3.2.13z"/><path id="f" d="M318.18 379.96l8.93-5.12c.82-.46.71-1.28-.23-1.84l-8.38-4.82c-.95-.54-2.38-.59-3.2-.13l-8.93 5.12c-.82.46-.71 1.28.23 1.84l8.38 4.82c.96.54 2.38.6 3.2.13z"/><path id="g" d="M273.38 439.34l8.93-5.12c.82-.46.71-1.28-.23-1.84l-8.38-4.82c-.95-.54-2.38-.59-3.2-.13l-8.93 5.12c-.82.46-.71 1.28.22 1.84l8.38 4.82c.95.54 2.38.59 3.2.13z"/><path id="h" d="M258.23 448.03l8.93-5.12c.82-.46.71-1.28-.22-1.84l-8.38-4.82c-.95-.54-2.38-.6-3.2-.13l-8.93 5.12c-.82.46-.71 1.28.22 1.84l8.38 4.82c.95.54 2.38.59 3.2.13z"/><path id="i" d="M305.62 420.97l8.93-5.11c.82-.47.71-1.28-.22-1.84l-8.38-4.82c-.95-.54-2.38-.6-3.2-.13l-8.93 5.11c-.82.47-.71 1.28.22 1.84l8.38 4.82c.95.54 2.38.6 3.2.13z"/><path id="j" d="M420.07 345.84l9.98-5.73c.52-.3.47-.84-.15-1.19l-2.75-1.58c-.62-.35-1.55-.39-2.08-.09l-9.98 5.73c-.52.3-.47.84.15 1.19l2.75 1.58c.62.35 1.55.39 2.08.09z"/><path id="k" d="M0-.06h298.15"/><path id="l" d="M0 0h4.55v11.38H0z"/><path id="m" d="M0 0h18.21v11.38H0z"/><path id="n" d="M0 0h6.83v11.38H0z"/><path id="o" d="M0 0h9.1v11.38H0z"/><path id="p" d="M417.18 51.53c0 2.25 1.59 3.14 3.55 2.01a7.8 7.8 0 0 0 3.55-6.1c0-2.25-1.59-3.14-3.55-2.01a7.8 7.8 0 0 0-3.55 6.1z"/><linearGradient id="q" gradientUnits="userSpaceOnUse"/></defs></svg>