<svg xmlns="http://www.w3.org/2000/svg" width="300" height="300" fill="none" xmlns:v="https://vecta.io/nano"><style><![CDATA[.B{fill:#ffa98f}.C{fill:#fff}.D{fill:#061728}.E{fill:#1b1c17}.F{fill:#071a22}.G{fill:#0745b4}.H{fill:#05387d}.I{fill:#0668e1}.J{fill:#2a2a2c}.K{fill:#3886e8}.L{fill:#ffd578}.M{fill:#3a3f47}.N{fill:#183862}.O{fill:#eff0f5}.P{fill:#bfc4d5}.Q{fill:#6aa8e5}.R{color-interpolation-filters:sRGB}]]></style><path d="M272.56 158.18l-4.49 1.91-70.47-40.72c-5.6-3.24-15.47-2.83-21.94.91L30.75 204.01c-.28.16-.54.34-.81.51l-4.55-1.33v8.1h.01c.04 2.03 1.28 3.96 3.77 5.39l71.18 41.13c5.6 3.24 15.47 2.83 21.94-.91l144.91-83.73c3.48-2.01 5.28-4.59 5.33-7.05h.02v-7.94z" fill="url(#J)"/><path d="M100.36 249.96l-71.18-41.13c-5.6-3.24-4.89-8.94 1.58-12.68l144.91-83.73c6.47-3.74 16.34-4.15 21.94-.91l71.18 41.13c5.6 3.24 4.89 8.94-1.57 12.67l-144.91 83.73c-6.47 3.74-16.34 4.15-21.94.91z" class="O"/><path d="M109.88 249.83c4.1 0 8.2-1.02 11.26-2.78l144.91-83.72c2.63-1.52 4.2-3.45 4.2-5.18 0-1.64-1.43-2.81-2.62-3.5l-71.18-41.13c-2.09-1.21-5.06-1.87-8.37-1.87-4.1 0-8.2 1.02-11.26 2.78L31.9 198.16c-2.63 1.52-4.2 3.45-4.2 5.18 0 1.64 1.43 2.81 2.62 3.5l71.18 41.13c2.09 1.21 5.06 1.87 8.37 1.87h0z" fill="url(#K)"/><path d="M176.59 123.67c3.06-1.77 7.17-2.78 11.27-2.78 3.31 0 6.28.67 8.37 1.87l69.86 40.37-.22.13-144.97 83.78c-3.06 1.77-7.17 2.78-11.27 2.78h0c-3.31 0-6.28-.67-8.37-1.87L31.4 207.58l.22-.13 144.97-83.78z" fill="#76a080"/><path d="M267.22 164.64l-144.93 83.62c-6.47 3.73-16.34 4.14-21.94.91l-71.19-41.07c-2.37-1.37-3.59-3.17-3.75-5.09-.16 2.2 1.05 4.33 3.75 5.88l71.19 41.07c5.6 3.23 15.47 2.82 21.94-.91l144.93-83.61c3.73-2.15 5.53-4.96 5.32-7.57-.18 2.38-1.97 4.84-5.32 6.78z" class="P"/><use href="#T" fill="#c4c8d8"/><use href="#T" x="0.76" y="0.49" fill="#a0a6c0"/><path d="M190.37 216.27l-10.1 6.07c-.82.49-1.5-.04-1.5-1.18a3.8 3.8 0 0 1 1.5-2.98l10.1-6.07c.82-.5 1.5.04 1.5 1.18a3.8 3.8 0 0 1-1.5 2.98z" fill="#c4c8d8"/><path d="M191.13 216.77l-10.1 6.07c-.82.5-1.5-.04-1.5-1.18a3.8 3.8 0 0 1 1.5-2.98l10.1-6.07c.82-.49 1.5.04 1.5 1.18a3.8 3.8 0 0 1-1.5 2.98zM70.21 236.63c0 1-.6 1.45-1.32 1.02l-8.91-5.28c-.72-.43-1.32-1.61-1.32-2.6s.6-1.47 1.32-1.03l.88.52 8.03 4.77c.56.33 1.04 1.11 1.23 1.9a2.8 2.8 0 0 1 .09.71z" fill="#a0a6c0"/><path d="M69.74 235.97l-8.01-4.64c-.56-.32-1.04-1.07-1.23-1.83l8.01 4.63c.56.32 1.04 1.08 1.23 1.84z" fill="#191f28"/><path d="M272.78 156.57l-4.48 1.91-70.43-40.76c-5.6-3.24-15.46-2.83-21.92.91L31.12 202.45c-.28.16-.54.34-.81.51l-4.54-1.33v2.41h.01c.04 2.03 1.28 3.96 3.77 5.4l71.14 41.17c5.59 3.24 15.46 2.83 21.92-.91l144.82-83.82c3.48-2.01 5.27-4.6 5.33-7.06h.02v-2.25z" fill="url(#L)"/><path d="M100.69 248.75l-71.14-41.26c-5.6-3.25-4.89-8.97 1.57-12.72l144.82-84c6.46-3.75 16.33-4.16 21.92-.91L269 151.13c5.6 3.25 4.89 8.97-1.57 12.72l-144.82 84c-6.46 3.75-16.33 4.16-21.92.91z" class="O"/><path d="M267.44 163.01l-144.84 84.02c-6.46 3.75-16.33 4.16-21.93.91l-71.15-41.27c-2.37-1.37-3.59-3.19-3.75-5.11-.16 2.21 1.05 4.35 3.75 5.91l71.15 41.27c5.6 3.25 15.46 2.84 21.93-.91l144.84-84.02c3.73-2.16 5.53-4.99 5.32-7.61-.18 2.39-1.97 4.87-5.32 6.81z" class="P"/><path d="M268.17 159.67c-.74 1.15-1.94 2.23-3.57 3.19l-35.32 20.39-44.94 25.95-63.79 36.83c-5.42 3.14-13.67 3.48-18.36.76l-65.12-37.6-4.91-2.83c-4.69-2.71-4.09-7.48 1.33-10.62l21.65-12.5 40.84-23.58 55.97-32.32 25.59-14.77c5.42-3.13 13.69-3.47 18.38-.77l26.9 15.54 43.11 24.89c3.27 1.9 3.98 4.79 2.25 7.43z" class="J"/><path d="M267.42 158.98c-.13.22-.29.4-.45.62-.63.8-1.55 1.54-2.73 2.23l-36.97 21.42-5.11 2.95-39.84 23.07-6.84 3.97-33.21 19.23-22.05 12.78c-2.67 1.56-6.25 2.47-9.82 2.47-2.89 0-5.54-.62-7.4-1.7l-14.59-8.44-48.83-28.29-6.57-3.79c-1.7-1-2.6-2.27-2.6-3.64 0-1.79 1.45-3.62 3.92-5.09l23.33-13.5 40.82-23.65 4.32-2.5 51.67-29.92 7.39-4.28 16.49-9.55c2.67-1.58 6.27-2.45 9.84-2.45a17 17 0 0 1 5.45.82c.72.22 1.37.51 1.97.85l25.19 14.61 10.82 6.27 33.95 19.66c1.41.82 2.28 1.83 2.53 2.92.23.96 0 1.98-.65 2.95z" class="M"/><path d="M260.08 160.19c-.12.2-.27.37-.43.58-.59.75-1.46 1.44-2.56 2.09l-34.77 20.1-4.81 2.77-37.48 21.65-6.44 3.72-31.24 18.04-23.3 13.47a18.9 18.9 0 0 1-9.24 2.31c-2.72 0-5.22-.58-6.97-1.6l-13.73-7.93-45.94-26.55-6.18-3.56c-1.6-.94-2.45-2.13-2.45-3.42 0-1.68 1.36-3.4 3.69-4.78l24.51-14.15 38.39-22.19 4.06-2.35 48.6-28.08 6.95-4.01 15.51-8.96c2.52-1.48 5.9-2.3 9.26-2.3 1.89 0 3.64.26 5.13.77.68.2 1.29.48 1.85.8l11.01 6.86-.25 7.02 24.08 13.93 10.43-.64 20.54 10.87c1.32.76 2.14 1.72 2.38 2.74.22.9 0 1.85-.61 2.77z" fill="#fff55b"/><g clip-path="url(#N)"><rect width="97.81" height="184.71" rx="9.25" transform="matrix(.8748 .4845 -.8662 .4997 186.223 109.52)" class="C"/><g filter="url(#H)" class="C"><rect width="86.96" height="26.63" rx="4.35" transform="matrix(.8748 .4845 -.8662 .4997 46.6797 195.383)"/></g><path d="M40.84 211.65c3.28 1.82 8.55 1.79 11.76-.06s3.15-4.83-.13-6.64-8.55-1.79-11.76.06-3.15 4.83.13 6.64z" fill="#ced8f2"/><mask id="A" maskUnits="userSpaceOnUse" x="34" y="201" width="25" height="15"><path d="M58.27 208.31l-11.88-6.58-11.63 6.71 11.88 6.58 11.63-6.71z" class="C"/></mask><g mask="url(#A)"><path d="M51.57 207.04s-.3.49-1.19.71l-.32-.25.96-.51.56.04z" class="F"/><path d="M36.88 210.99l4.66 2.58 1-.58c.91-.47 1.86-.83 2.5-1.05h.01l.43-.14 3.67-1.2c.07-.65-1.33-1.94-1.33-1.94l-1.13-.73-3.9-1.04-2.36 1.88c-.22.19-.94.97-3.55 2.23z" class="C"/><path d="M51.43 205.88s1 .7-.94 1.72c-.53.28-.86.48-1.32.56-.93.15-1.76-.18-1.89-.27s-.61-.54-.36-.86c.33-.43.52-.68 1.46-1.19 0 0 1.76-.87 3.05.04z" class="B"/><path d="M48.67 208.05s-.8.42-.9.55-1.65-.13-1.69-.83c0 0 1.04-.45 1.3-.65s1.29.93 1.29.93z" class="B"/><path d="M45.95 207.72s-.23.5.32.86c.35.23 1.17.14 1.56.09 0 0-.5-.69-1.89-.95z" class="B"/><path d="M46.48 208.46l-.05.42s-.58-.12-.68-.37l.73-.05z" class="H"/><path d="M40.58 213.04l1.52.84a6.2 6.2 0 0 1 1.04-.94c.62-.33 6.41-2.22 6.41-2.22s-.25-.66-1.71-2.05c0 0-2.94 1.3-5.12 2.61-.72.43-1.46 1.08-2.13 1.76zm-3.92-2.17l1.72.95 2.71-1.44 4.76-2.69c-2.77-.88-3.8-.99-3.8-.99l-3.91 3.48a18.5 18.5 0 0 1-1.48.69z" class="G"/><path d="M39.74 212.57l6.54-3.82-.25-.19s-1.8.57-4.59 2.14l-2.48 1.43.78.43h0z" class="H"/><path d="M44.53 213.58c-.14.08-1.05.28-2.09.49l1.73.96 1.63-.29c.26-.12 3.94-3.56 3.74-4.02l-3.6 1.03a9.4 9.4 0 0 1-1.42 1.83zm-10.03-3.91l1.56.86.64-.31a53.7 53.7 0 0 1 3.56-1.47l1.79-2.06c-.81-.1-6.6 2.4-6.82 2.56l-.73.42z" class="G"/><path d="M39.05 211.4l2.32-1.74.66-.04-.37-.24 3.77-1.62.03.03-3.72 1.6.4.26-.75.04-2.31 1.73-.05-.02zm2.3 1.05l-.04-.03 2.72-1.28-.15-.29.56.04 3.27-2.1.04.02-3.29 2.11-.5-.04.14.27-.01.01-2.74 1.29z" fill="#0a1726"/><path d="M46.28 207.69s-.07.4.2.77l-1.22.09.31-.96.71.1z" class="Q"/><path d="M47.9 208.51s-.56.05-1.42-.04l-.07.61 1.69-.18-.2-.39z" class="Q"/><path d="M49.14 205.76l.15.04c.14.04.28.09.37.16.07.06.1.14.2.19.12.06.32.04.47 0 .13-.03.28-.08.38-.03.14.06-.02.2.06.29.03.03.08.05.13.07.1.05.19.11.22.19.03.06 0 .13-.06.18-.08.08-.08.14-.04.23.07.16.35.21.63.19h.05c.29-.03.53-.19.52-.35l-.02-.16c-.01-.15.2-.29.24-.45.08-.29-.47-.44-.72-.64l-.35-.29c-.19-.15-.43-.28-.74-.36-.51-.13-.9-.04-1.39.12s-1.34.05-1.63 1.13l.24.11c0 0 .83-.72 1.29-.61z" class="F"/><path d="M48.01 206.04s-.34-.23-.73.07.18.48.18.48l.55-.54zm2.86 1.37s.41.19-.11.41-.85-.09-.85-.09l.95-.32z" class="B"/><path d="M51.13 207.13s-.43.34-.79.44l.11.09.56-.24c.1-.05.34-.24.34-.24l-.22-.05z" class="F"/><path d="M49.08 206.01c.25.08.48.2.64.33l.06-.02c-.17-.14-.4-.26-.66-.34l-.04.03zm1.13.69c.24.1.43.23.56.38l.06-.02c-.14-.15-.34-.28-.58-.39l-.04.03z" class="E"/><path d="M48.03 207.19l.8.44s-.35.19-.74-.04c-.11-.07-.25-.25-.06-.4z" fill="#e5f4f6"/><path d="M48.69 207.22c-.04-.02-.07-.04-.08-.07-.01-.04.06-.08.11-.1l.12-.06.57-.25.03.03c-.11.04-.38.16-.57.25l-.12.06c-.04.02-.09.05-.09.07 0 .02.02.03.05.05.09.05.2.09.31.12l-.02.03a2 2 0 0 1-.32-.12z" class="E"/><use href="#U" class="E"/><path d="M49.99 207.23c-.06.04-.16.05-.22.03s-.05-.08.02-.12.16-.05.22-.03.05.08-.02.12z" class="E"/><use href="#V" class="N"/><path d="M49.39 207.48c-.21-.12-.18-.33.07-.47s.62-.17.83-.05.18.33-.07.47-.62.17-.83.05zm.86-.5c-.19-.1-.52-.08-.75.05s-.26.32-.07.43.52.08.75-.05.26-.32.07-.43z" class="N"/><path d="M49.13 206.76l.04-.03.4.22-.04.02-.4-.22zm-.97-.67l-.05.01.25.26.05-.02-.25-.26zm2.54 1.38l-.44-.07-.02.03.44.07.02-.03z" class="N"/><path d="M47.41 207.97c-.31-.17-.37-.37-.37-.37l.06-.01c0 0 .12.42.97.55l-.02.03c-.29-.04-.5-.12-.65-.2z" class="E"/></g><path d="M57.76 216.18l.78.43c.18.1.3.2.37.3s.08.2.04.29-.13.19-.29.28c-.11.06-.23.11-.36.13s-.27.03-.41.02-.29-.04-.43-.08l-.12-.03-.74-.41.25-.15.56.31c.11.06.23.1.34.12s.22.02.33 0 .2-.05.28-.1c.09-.05.15-.11.18-.17s.03-.12-.01-.18-.12-.13-.24-.2l-.47-.26-2.09 1.21-.31-.17 2.34-1.35zm-.96 2.12l.49-.93.33.18-.46.93-.02.01-.33-.19zm1.32.77c-.12-.07-.21-.14-.27-.22s-.08-.16-.08-.24.04-.16.1-.24a1 1 0 0 1 .28-.23l.07-.04c.14-.08.29-.14.44-.18s.31-.06.46-.07.29.01.42.03.25.07.35.12c.13.07.21.14.26.22s.06.15.05.23-.06.15-.14.23-.17.15-.3.22l-.13.08-1.31-.73.24-.14 1.01.56.02-.01c.07-.05.13-.1.18-.16s.06-.12.05-.18-.07-.12-.17-.18c-.07-.04-.15-.06-.23-.08s-.18-.02-.27-.01-.2.03-.3.06-.21.08-.31.14l-.07.04c-.08.05-.15.1-.2.15s-.08.11-.09.17 0 .11.04.16.09.1.17.15c.11.06.22.1.33.11s.24.02.37.01l.04.18c-.09.01-.2.02-.31.01s-.22-.02-.34-.05a1.4 1.4 0 0 1-.35-.14zm1.98.82c.07.04.15.07.24.09s.18.02.27.01a.7.7 0 0 0 .24-.06l.29.16a1.1 1.1 0 0 1-.39.11c-.15.01-.31.01-.47-.02s-.3-.07-.42-.14c-.13-.07-.22-.15-.28-.23s-.07-.16-.05-.24.06-.16.13-.24.17-.15.29-.22l.07-.04c.12-.07.24-.12.38-.16s.28-.07.42-.08a1.7 1.7 0 0 1 .43.03c.14.03.28.08.42.15.14.08.23.16.28.25s.05.18.02.26-.11.17-.22.24l-.29-.16c.07-.04.11-.09.13-.15s.02-.11 0-.16-.08-.1-.16-.15c-.09-.05-.19-.08-.29-.1s-.19-.01-.29 0a1.4 1.4 0 0 0-.28.07c-.09.03-.17.07-.25.12l-.07.04c-.08.04-.14.09-.2.14s-.1.1-.12.16-.02.11 0 .17.09.11.18.16zm2.59.02l-1.47.85-.3-.17 1.74-1 .29.16-.27.16zm.83.14l-.28.16c-.02-.02-.04-.03-.06-.04l-.07-.04a.8.8 0 0 0-.22-.08.9.9 0 0 0-.23-.02c-.08 0-.15.01-.23.03s-.14.05-.21.08l-.13-.02c.11-.06.21-.11.33-.15a1.7 1.7 0 0 1 .34-.09c.12-.02.23-.02.34 0s.21.05.31.1c.02.01.04.03.07.05s.04.03.04.04zm.01 1.53l1.34-.77.3.17-1.74 1-.29-.16.39-.24zm.42-.18l.13.07c-.12.07-.24.12-.36.16a1.5 1.5 0 0 1-.37.08c-.13.01-.25 0-.38-.02s-.25-.07-.38-.14c-.09-.05-.15-.1-.2-.15s-.07-.11-.07-.17.03-.12.08-.18.14-.13.26-.19l1.12-.65.3.17-1.13.65c-.08.05-.13.09-.17.13s-.05.08-.05.11.02.06.04.09.06.05.1.08c.13.07.25.11.38.13s.24 0 .36-.03.23-.07.33-.13zm2 .01l-1.74 1-.3-.17 1.74-1 .3.17zm.14-.45c.05-.03.1-.04.17-.05s.12.01.18.05.08.07.08.1-.03.07-.08.1-.1.04-.17.04-.12-.01-.18-.04-.09-.07-.08-.1.03-.07.08-.09zm1.08 1.12l-.23.13-.95-.53.23-.13.95.53zm-.21-.59l.3.17-1.73 1c-.06.03-.09.06-.11.09s-.01.05.01.07.05.04.08.06a.8.8 0 0 0 .08.04l.08.03-.24.14a1.3 1.3 0 0 1-.12-.04c-.05-.02-.1-.04-.15-.07-.07-.04-.13-.09-.16-.14s-.03-.11 0-.16.11-.12.22-.19l1.73-1zm.51 1.15l-1.4.81-.3-.17 1.74-1 .29.16-.33.21zm-.52.23l-.14-.08a2 2 0 0 1 .38-.16c.13-.04.27-.07.4-.08s.27 0 .4.02.25.07.37.13a.7.7 0 0 1 .19.15c.05.05.07.1.07.16s-.02.12-.07.18-.13.12-.24.19l-1.16.67-.3-.17 1.15-.66c.09-.05.15-.1.17-.15s.02-.09-.01-.14-.08-.09-.16-.13c-.09-.05-.18-.08-.27-.1s-.18-.02-.27 0-.18.03-.27.06-.17.07-.24.12zm1.3.54l-.26-.08c.1-.06.2-.1.32-.13s.24-.05.37-.06.26 0 .38.03.25.07.36.13c.09.05.17.11.21.16s.07.11.07.17-.03.12-.08.18-.13.12-.24.19l-1.14.66-.3-.17 1.15-.66c.1-.06.16-.11.18-.16s.02-.09-.02-.14-.09-.09-.16-.13c-.07-.04-.14-.06-.21-.08s-.15-.02-.22-.02-.14.02-.21.03-.13.05-.19.08zm1.14 1.91c-.12-.07-.21-.14-.27-.22s-.08-.16-.08-.24.04-.16.1-.24.16-.16.28-.23l.07-.04c.14-.08.29-.14.44-.18s.31-.06.46-.07.29.01.42.03.25.07.35.12c.13.07.21.14.26.22s.06.15.05.23-.06.15-.14.23-.17.15-.3.22l-.13.08-1.31-.73.24-.14 1.01.56.02-.01c.07-.05.13-.1.18-.16s.06-.12.05-.18-.07-.12-.17-.18c-.07-.04-.15-.06-.23-.08s-.18-.02-.27-.01-.2.03-.3.06-.21.08-.31.14l-.07.04c-.08.05-.15.1-.2.15s-.08.11-.09.17 0 .11.04.16.09.1.17.15c.11.06.22.1.33.11s.24.02.37.01l.04.18c-.09.01-.2.02-.31.01s-.22-.02-.34-.05-.23-.07-.35-.14zm2.74-.07l-1.37.79-.3-.17 1.74-1 .28.16-.36.22zm-.5.21l-.12-.07c.12-.07.25-.12.38-.16s.27-.06.41-.07.27 0 .4.02.25.07.35.13c.09.05.15.1.2.15s.07.11.07.16-.03.12-.08.18a1 1 0 0 1-.25.19l-1.14.66-.3-.17 1.14-.66c.09-.05.15-.1.18-.15s.03-.09 0-.13-.08-.09-.15-.13a.8.8 0 0 0-.25-.09c-.09-.02-.19-.02-.29-.01s-.19.03-.29.05-.18.06-.26.11zm3.15.84l-.23.13-.95-.53.23-.13.95.53zm-.21-.59l.3.17-1.73 1c-.06.03-.09.06-.11.09s-.01.05.01.07.05.04.08.06c.02.01.05.03.08.04l.08.03-.24.14-.12-.04c-.05-.02-.1-.04-.15-.07-.07-.04-.13-.09-.16-.14s-.03-.11 0-.16.11-.12.22-.19l1.73-1zm1.34 1.61l-1.4.81-.3-.17 1.74-1 .29.16-.33.21zm-.52.23l-.13-.08c.12-.07.25-.12.38-.16a1.8 1.8 0 0 1 .4-.08c.13-.01.27 0 .4.02s.25.07.37.13c.08.05.15.09.19.15s.07.11.07.16-.02.12-.07.18-.13.12-.24.19l-1.16.67-.3-.17 1.15-.66c.09-.05.15-.1.17-.15s.02-.09-.01-.14-.08-.09-.16-.13c-.09-.05-.18-.08-.27-.1s-.18-.02-.27 0-.18.03-.27.07-.17.07-.24.11zm1.3.54l-.26-.08c.1-.05.2-.1.32-.13s.24-.05.37-.06.26 0 .38.03.25.07.36.13c.09.05.17.11.21.16s.07.11.07.17-.03.12-.08.18-.13.12-.24.19l-1.14.66-.3-.17 1.15-.66c.1-.06.16-.11.18-.16s.02-.09-.02-.14-.09-.09-.16-.13c-.07-.04-.14-.06-.21-.08s-.15-.02-.22-.02-.14.01-.21.03-.13.05-.19.08zm1.78 1.89l.9-.52c.07-.04.11-.08.14-.13s.02-.09 0-.14-.08-.09-.16-.14c-.08-.04-.16-.07-.24-.09s-.16-.02-.23-.02-.13.02-.18.05l-.3-.17c.06-.04.14-.06.23-.08s.2-.02.31-.02.23.02.34.05a1.5 1.5 0 0 1 .33.13c.13.07.22.15.27.23s.07.16.04.24-.11.16-.24.23l-.81.47c-.06.03-.11.07-.17.11s-.1.09-.12.12l-.03.01-.31-.17c.02-.03.05-.06.1-.1s.1-.07.15-.1zm.81-.41l-.21.12-.3-.17c-.09-.05-.17-.09-.25-.12s-.16-.05-.23-.06-.14-.01-.21 0a.5.5 0 0 0-.18.06c-.05.03-.09.07-.11.11s-.02.08 0 .13.07.09.15.13a.9.9 0 0 0 .3.1 1.2 1.2 0 0 0 .31.01c.1-.01.17-.03.23-.06l-.01.15c-.05.02-.12.04-.21.05s-.19.02-.29.02-.21-.02-.32-.04-.21-.06-.31-.11c-.12-.07-.2-.14-.24-.21s-.05-.15-.02-.22.09-.14.19-.19.19-.09.3-.11.22-.03.34-.02.24.04.36.08.24.09.36.16l.35.19zm1.11 1.43l2.13-1.23.3.17-2.47 1.43-.28-.15.31-.21zm-.67-.95l.03-.02c.13-.08.27-.14.41-.18s.28-.07.42-.08.27 0 .4.02.25.06.35.12c.11.06.19.13.23.19s.06.14.05.21-.05.15-.12.23-.16.16-.28.24l-.15.09c-.14.07-.28.12-.41.16s-.27.06-.4.07-.25 0-.38-.02-.24-.07-.35-.13c-.1-.06-.18-.12-.22-.19s-.05-.15-.03-.23.06-.16.14-.24.18-.16.3-.23zm.34.15l-.03.02c-.09.05-.16.1-.22.16s-.1.11-.12.16-.02.11.01.16.08.1.16.14c.1.05.2.09.31.1s.21.01.32-.01.21-.04.31-.08l.39-.22c.05-.04.08-.08.11-.13s.05-.09.05-.14-.01-.09-.04-.14-.08-.09-.16-.13c-.08-.05-.17-.08-.26-.09s-.19-.01-.28 0a1.3 1.3 0 0 0-.29.07c-.09.03-.18.08-.27.13zm1.46 1.85c-.12-.07-.21-.14-.27-.22s-.08-.16-.08-.24.04-.16.1-.24a1 1 0 0 1 .28-.23l.07-.04c.14-.08.29-.14.44-.18s.31-.06.46-.07a1.8 1.8 0 0 1 .42.04c.13.03.25.07.35.12.13.07.21.14.26.22s.06.15.05.23-.06.15-.14.23a1.4 1.4 0 0 1-.3.22l-.13.08-1.31-.73.24-.14 1.01.56.02-.01c.07-.05.13-.1.18-.16s.06-.12.05-.18-.07-.12-.17-.18c-.07-.04-.15-.06-.23-.08s-.18-.02-.27-.01-.2.03-.3.06-.21.08-.31.14l-.07.04c-.08.05-.15.1-.2.15s-.08.11-.09.17 0 .11.04.17.09.1.17.15c.11.06.22.1.33.11s.24.02.37.01l.04.18a2 2 0 0 1-.31.01c-.11 0-.22-.02-.34-.05s-.23-.08-.35-.14zm3.69 1.72l-.25.15-1.25-.69.25-.15 1.25.69zm.9-1.86l-2.34 1.35-.31-.17 2.34-1.35.31.17zm.02 1.15l-.25.15-1.09-.6.25-.15 1.09.6zm1.16-.5l-.25.15-1.24-.69.25-.15 1.24.68zm-.65 1.95l.9-.52c.07-.04.11-.08.14-.13s.02-.09 0-.14-.08-.09-.16-.14c-.08-.04-.16-.07-.24-.09s-.16-.02-.23-.02-.13.02-.18.05l-.3-.17c.06-.04.14-.06.23-.08s.2-.02.31-.02.23.02.34.05.23.08.33.13c.13.07.22.15.27.22s.07.16.04.24-.11.16-.24.23l-.81.47c-.06.03-.11.07-.17.12s-.1.09-.12.12l-.03.01-.31-.17c.02-.03.05-.06.1-.1s.1-.07.15-.1zm.81-.41l-.21.12-.3-.17c-.09-.05-.17-.09-.25-.12s-.16-.05-.23-.06-.14-.01-.21 0-.12.03-.18.06-.09.07-.11.11-.02.08 0 .12.07.08.15.13a.9.9 0 0 0 .3.1 1.2 1.2 0 0 0 .31.01c.1-.01.18-.03.23-.06l-.01.15c-.05.02-.12.04-.21.05s-.19.02-.29.02-.21-.02-.32-.04-.21-.06-.31-.11c-.12-.07-.2-.14-.24-.21s-.05-.15-.02-.22.09-.14.19-.19.19-.09.3-.11.22-.03.34-.01.24.04.36.08.24.09.36.16l.35.19zm1.15 1.31c.04-.03.07-.05.09-.09s.01-.07-.01-.12-.09-.11-.18-.19c-.08-.07-.14-.13-.19-.19s-.08-.12-.1-.17a.2.2 0 0 1 .01-.15c.02-.05.07-.09.14-.13s.15-.07.24-.09.19-.02.29-.02.21.02.32.05.21.07.31.13c.14.08.24.16.29.24s.06.16.03.24-.09.14-.19.2l-.3-.17c.05-.03.08-.06.1-.1s.01-.09-.01-.14-.08-.09-.15-.14-.16-.08-.24-.09-.14-.02-.21-.01-.11.03-.16.05c-.03.02-.06.04-.07.06s-.02.05-.01.07.03.06.07.1.08.09.15.14a1.3 1.3 0 0 1 .24.26c.05.08.06.15.04.21s-.08.12-.17.17c-.08.04-.16.08-.26.09s-.2.03-.3.02-.21-.03-.32-.06-.21-.08-.31-.13c-.15-.09-.26-.17-.31-.26s-.06-.18-.03-.26.1-.15.19-.2l.3.17c-.08.05-.12.1-.12.15s.02.1.06.15.1.09.16.12c.08.05.16.08.24.1s.15.03.22.02.12-.02.17-.05zm.91.82l2.05-.63.32.18-2.72.77c-.06.02-.13.03-.2.04s-.16.02-.24.03-.17 0-.26-.02-.17-.04-.25-.09c-.02-.01-.05-.03-.08-.06l-.06-.05.24-.14.04.02.04.02c.07.04.14.06.2.08s.13.02.21.02.16-.02.26-.05l.46-.13zm1.2-1.1l-.9 1.03-.24.22-.33-.06 1.13-1.38.33.18zm2.4.65l-1.7.96-.27-.15 1.66-.98.32.18zm-2.52 1.08c.05-.03.1-.04.17-.05s.12.01.18.05.08.06.08.1-.03.07-.08.1-.1.04-.17.04-.12-.01-.18-.04-.09-.07-.08-.1.03-.07.08-.09zm.84.46c.05-.03.11-.05.17-.05s.13.01.19.05.09.07.09.11-.03.07-.08.1-.11.04-.17.05-.13-.01-.19-.05-.09-.07-.09-.11.03-.07.08-.1z" class="E"/><path d="M64.73 212.2l1.08.6c.23.13.39.26.49.39s.12.26.07.38-.17.25-.36.36c-.15.09-.31.15-.48.18a2 2 0 0 1-.53.04c-.18-.01-.36-.04-.54-.1l-.24-.04-.97-.54.41-.24.73.4c.13.07.25.11.38.14s.25.02.37 0 .23-.06.33-.11c.1-.06.17-.12.21-.19s.04-.14-.01-.21-.13-.14-.26-.22l-.55-.31-2.6 1.5-.52-.29 3.01-1.74zm-1.28 2.7l.64-1.18.55.3-.6 1.17-.03.02-.56-.31zm1.86 1.08c-.17-.09-.29-.19-.37-.3s-.12-.21-.11-.32.05-.21.13-.32a1.2 1.2 0 0 1 .35-.29l.08-.05c.18-.1.36-.18.55-.23s.39-.08.58-.09.38.01.56.05.34.1.49.18a1 1 0 0 1 .34.28c.07.1.09.2.07.3s-.07.2-.17.3-.22.2-.38.29l-.21.12-1.75-.97.36-.21 1.25.69.04-.02c.09-.05.15-.11.2-.18s.06-.13.04-.19-.08-.13-.19-.19c-.08-.05-.18-.08-.28-.09s-.2-.02-.31 0-.22.04-.34.08a2.1 2.1 0 0 0-.35.16l-.08.05c-.1.06-.18.12-.23.18s-.09.13-.1.19.01.13.05.19.11.12.21.17c.12.07.25.11.4.14s.29.03.45.02l.01.29c-.12.01-.25.02-.39.01s-.29-.03-.44-.07a1.9 1.9 0 0 1-.45-.18zm2.62 1a.9.9 0 0 0 .27.09c.1.02.2.02.3.01s.19-.04.27-.08l.47.26a1.4 1.4 0 0 1-.52.16 2.2 2.2 0 0 1-.62-.02c-.21-.04-.39-.1-.56-.19-.17-.09-.29-.19-.36-.3s-.09-.21-.08-.32.07-.21.17-.31.22-.2.37-.29l.07-.04a2.4 2.4 0 0 1 .5-.22c.18-.05.36-.09.55-.1s.38 0 .56.04.37.1.54.2c.18.1.3.21.37.33s.07.23.03.35-.15.22-.32.32l-.47-.26c.08-.05.13-.11.16-.16s.03-.12.01-.18-.08-.11-.18-.16c-.1-.06-.21-.09-.31-.1s-.21-.01-.32.01-.21.05-.32.09a2.4 2.4 0 0 0-.29.14l-.07.04c-.09.05-.17.11-.25.17s-.12.12-.15.18-.03.12 0 .18.09.12.19.18zm3.27.17l-1.81 1.05-.5-.28 2.24-1.29.48.27-.4.26zm1.13.13l-.47.27-.09-.06-.1-.06c-.09-.05-.17-.08-.27-.1s-.18-.03-.27-.03-.17.01-.26.04a1.3 1.3 0 0 0-.25.1l-.12-.06c.14-.08.28-.15.43-.2a2.2 2.2 0 0 1 .44-.11c.15-.02.29-.02.43 0s.26.06.38.12c.03.02.06.04.09.06s.05.04.06.06zm-.05 1.92l1.71-.99.51.28-2.24 1.29-.48-.26.5-.32zm.54-.23l.17.09a2.7 2.7 0 0 1-.47.21c-.16.05-.32.09-.48.1s-.32.01-.48-.02-.32-.09-.47-.17c-.11-.06-.2-.13-.26-.19s-.09-.14-.09-.22.04-.15.11-.23.18-.16.33-.25l1.45-.83.5.28-1.45.84c-.08.05-.14.09-.18.13s-.05.08-.05.12.02.07.05.11.07.06.12.09c.14.08.28.13.42.14a1.1 1.1 0 0 0 .41-.03c.13-.03.26-.09.38-.16zm2.74.11l-2.24 1.29-.51-.28 2.24-1.29.51.28zm.05-.64c.08-.04.16-.07.26-.07s.2.02.29.07.13.1.13.16-.04.11-.11.15-.16.06-.26.06-.2-.02-.29-.07-.14-.1-.14-.16.04-.11.11-.15zm1.54 1.52l-.36.21-1.27-.71.36-.21 1.27.71zm-.36-.82l.5.28-2.17 1.25c-.07.04-.11.08-.13.11s-.01.06.01.09.06.05.11.08l.11.05.09.04-.38.22-.18-.06c-.06-.02-.13-.06-.2-.09-.12-.06-.2-.13-.25-.2s-.05-.15-.01-.23.14-.16.29-.25l2.2-1.27zm-.54 2.9c-.17-.09-.29-.19-.37-.3s-.12-.21-.11-.32.05-.22.13-.32.2-.2.35-.29l.08-.05c.18-.1.36-.18.55-.23s.39-.08.58-.09.38.01.56.05.34.1.49.18c.16.09.28.18.34.28s.09.2.07.3-.07.2-.17.3-.22.2-.38.29l-.21.12-1.75-.97.36-.21 1.25.69.04-.02c.09-.05.15-.11.2-.18s.06-.13.04-.19-.08-.13-.2-.19c-.08-.05-.18-.08-.28-.09s-.2-.02-.31 0-.22.04-.34.08-.23.1-.35.16l-.08.05c-.1.06-.18.12-.23.18s-.09.13-.1.19.01.13.05.19.11.12.21.17c.12.07.25.11.4.14s.29.03.45.02l.01.29c-.12.01-.25.02-.39.01a2.1 2.1 0 0 1-.44-.07 1.9 1.9 0 0 1-.45-.18zm3.66-.07l-1.81 1.04-.5-.28 2.24-1.29.48.27-.4.26zm1.13.13l-.47.27-.09-.06-.1-.06c-.09-.05-.17-.08-.27-.11s-.18-.03-.27-.03-.17.01-.26.04-.17.06-.25.1l-.12-.06c.14-.08.28-.15.43-.2s.3-.09.44-.11a1.6 1.6 0 0 1 .43 0c.14.02.26.06.38.12.03.02.06.04.09.06s.05.04.06.06z" class="I"/><g filter="url(#I)" class="C"><rect width="86.96" height="26.63" rx="4.35" transform="matrix(.8748 .4845 -.8662 .4997 81.5215 175.289)"/></g><path d="M75.78 191.77c3.28 1.82 8.57 1.77 11.82-.1s3.22-4.87-.06-6.68-8.58-1.77-11.82.1-3.22 4.87.06 6.68z" fill="#ced8f2"/><path d="M81.64 195.01c1.04-1.25 2.18-3.15 1.99-3.52l-3.43.88c.1-.19-.36.66-.8 1.4l2.24 1.24z" class="B"/><path d="M72.84 190.13l5.49 3.04.91-.32h.01l.46-.14 3.92-1.22c.03-.71-1.66-2.27-1.66-2.27l-.39-.27c-.59-.41-1.12-.7-2.13-1-.99-.3-2.29-.67-3.09-.69-2.02-.04-2.43 1.99-2.43 1.99-.13.11-.41.41-1.09.89z" fill="#0568e0"/><path d="M72.11 189.73l1.76-.47 2.41-2.04c-.68-.1-4.15.65-6.33 1.32l2.17 1.2z" class="B"/><g class="K"><path d="M72.21 189.79l.41-.13c-.12.05-.23.11-.33.18l6.61 3.66.73-.25h0l-.36.45 2.18 1.21.08.02c.23.06.5.01.6-.12.87-1.19 1.73-2.95 1.77-3.19.09-.65-1.27-1.82-1.33-1.88l-.58-.52-2.31.41c.14-.54.16-1.21.35-1.5l-.93-.32c-.11-.03-2.2-.78-3.35-.72-.6.03-2.56.36-4.59.93l-1.3.44 2.36 1.31z"/><path d="M72.62 189.65z"/></g><g class="C"><path d="M74.85 191.25c1.93-.96 4.39-1.84 4.42-1.86l-.03-.03c-.04.01-2.5.89-4.43 1.86l.04.02z"/><path d="M75.66 191.7c1.15-.81 3.8-2.21 3.84-2.22l-.04-.03-3.84 2.22.04.02h0z"/></g><path d="M79.28 189.53c.91.5 2.1.64 2.67.32s.3-1-.61-1.5-2.1-.64-2.67-.31-.3 1 .61 1.5z" class="K"/><g fill="#226cbc"><path d="M82.2 189.65c-.2.21-.57.37-.99.38-.05.01-.1 0-.15 0h-.15l-.3-.04c-.1-.02-.2-.03-.29-.07l-.14-.04-.07-.02-.06-.03-.26-.1-.24-.11-.12-.05-.11-.06-.11-.06-.1-.07c-.13-.09-.25-.19-.35-.29s-.18-.21-.22-.33c.07.24.27.45.53.64l.1.07.11.06.11.06.12.06.24.11.26.1.07.02.07.02.14.04c.09.03.19.05.29.06l.31.04c.05.01.11 0 .16.01s.11 0 .16 0c.22-.01.42-.06.59-.14.16-.07.3-.17.39-.27zm-2.97-1.78c-.12 0-.24.02-.35.04s-.22.06-.31.11l-.11.09c-.02.03-.05.06-.06.1-.01.03-.01.07-.01.1l.03.1c0-.07-.01-.13.02-.2s.08-.12.16-.17.18-.08.29-.11.22-.05.34-.06z"/></g><g class="B"><path d="M83.04 188.42l.18-1.57-2 .48-.19.22-1.15.53c-.35.72 1 1.36 1.69 1.19l1.46-.85z"/><path d="M85.89 187.4c-.18.5-1.27 1.29-2.67 1.51-.6.1-1.72-.55-1.77-.92-.04-.33 1.04-1.53 1.9-1.57s2.94.33 2.53.98z"/></g><path d="M83.7 186.79c-.04-.06-.07-.12-.09-.19-.08-.24-.11-.49-.01-.72l.03-.07-.14-.02c-.41-.06-.86-.01-1.19.12-.27.11-.69.32-.68.59 0 .13-.01.27-.11.38l-.34.49.6.01c.22 0 .37-.06.58-.08.52-.07 1.06-.25 1.42-.4-.02-.04-.06-.08-.08-.13z" class="D"/><path d="M82.74 187.33c.02-.1.02-.21-.11-.28-.06-.03-.15-.04-.24-.04-.42.02-.76.27-.66.51.05.1.17.2.37.16l.59-.31c.03-.01.04-.03.04-.06z" class="B"/><g class="D"><path d="M82.43 188.79c-.01 0-.93-.42-.93-.9h.05c.01.46.9.87.91.87l-.03.02zm1.04-.68l.03-.02.14.06c.05.03.12.04.19.03s.12-.03.15-.06l.32-.39.05.01-.32.39c-.04.04-.1.07-.18.08s-.17-.01-.23-.04l-.14-.06z"/><use href="#W"/><path d="M84.82 187.98c-.02.03-.07.06-.1.08-.05.03-.14.02-.18-.02-.08-.07.14-.19.26-.12.03.02.03.04.02.06z"/></g><path d="M83.59 188.43l-.67-.47s-.35.28-.08.46c.31.21.75.01.75.01z" class="C"/><g class="D"><path d="M85.68 187.26l-.09.58s.49-.49.41-.63-.32.06-.32.06zm-3.76.41c-.22-.09-.22-.27-.22-.28h.05s0 .22.29.28l-.01.03-.11-.03z"/><path d="M84.26 185.76c-.34-.11-.49-.15-.7-.17-.17-.02-.64-.01-.83.09-.34.19.08.76.73 1.11.12.07.41.17.85.3.97.29 2.22.5 2.91-.11 0 0-.29.05-.45-.01 0 0 .75-.23.35-.78.02.03-.58.06-.61.06a5.6 5.6 0 0 1-1.25-.16c-.32-.09-.28-.11-.98-.34z"/><path d="M83.77 187.12c.06-.01.12-.01.19-.01s.13.02.18.04c.11.04.19.12.17.19l-.13-.07-.12-.06-.29-.1zm1.14.52c.04-.02.1-.02.15-.02s.11.02.15.04.08.05.1.08c.01.02.01.03.02.04s0 .03-.01.04l-.06-.03c-.02-.01-.03-.02-.05-.03-.03-.02-.06-.03-.09-.05-.05-.03-.12-.05-.22-.08z"/></g><path d="M92.91 196.26l-2.34 1.35-.31-.17 2.34-1.35.31.17zm-.06 1.16l-.25.15-1.06-.59.25-.15 1.06.59zm1.21-.52l-.25.15-1.22-.68.25-.15 1.22.68zm-1.35 1.94c-.12-.07-.21-.14-.27-.22s-.08-.16-.08-.24.04-.16.1-.24.16-.16.28-.23l.07-.04c.14-.08.29-.14.44-.18s.31-.06.46-.07a1.8 1.8 0 0 1 .42.03c.13.03.25.07.35.13.13.07.21.14.26.22s.06.15.05.23-.06.15-.14.23-.17.15-.3.22l-.13.08-1.31-.73.24-.14 1.01.56.02-.01c.07-.05.13-.1.18-.16s.06-.11.05-.18-.07-.12-.17-.18c-.07-.04-.15-.06-.23-.08s-.18-.02-.27-.01-.2.03-.3.06-.21.08-.31.14l-.07.04c-.08.05-.15.1-.2.15s-.08.11-.09.17 0 .11.04.17.09.1.17.15c.11.06.22.1.33.11s.24.02.37.01l.04.18c-.09.01-.2.02-.31.01s-.22-.02-.34-.05a1.4 1.4 0 0 1-.35-.14zm1.76.98c-.12-.07-.21-.14-.27-.22s-.08-.16-.08-.24.04-.16.1-.24a1 1 0 0 1 .28-.23l.07-.04c.14-.08.29-.14.44-.18s.31-.06.46-.07a1.8 1.8 0 0 1 .42.04c.13.03.25.07.35.12.13.07.21.14.26.22s.06.15.05.23-.06.15-.14.23a1.4 1.4 0 0 1-.3.22l-.13.08-1.31-.73.24-.14 1.01.56.02-.01c.07-.05.13-.1.18-.16s.06-.12.05-.18-.07-.12-.17-.18c-.07-.04-.15-.06-.23-.08s-.18-.02-.27-.01-.2.03-.3.06-.21.08-.31.14l-.07.04c-.08.05-.15.1-.2.15s-.08.11-.09.17 0 .11.04.16.09.1.17.15c.11.06.22.1.33.11s.24.02.37.01l.04.18c-.09.01-.2.02-.31.01s-.22-.02-.34-.05-.23-.08-.35-.14zm2.51.97l2.13-1.23.3.17-2.47 1.43-.28-.15.31-.21zm-.67-.95l.03-.02c.13-.08.27-.14.41-.18a1.9 1.9 0 0 1 .42-.08 1.6 1.6 0 0 1 .4.02c.13.02.25.06.35.12.11.06.19.13.23.19s.06.14.05.21-.05.15-.12.23-.16.16-.28.24l-.15.08c-.14.07-.28.12-.41.16s-.27.06-.4.07-.26 0-.38-.02-.24-.07-.35-.13c-.1-.06-.18-.12-.22-.19s-.05-.15-.03-.23.06-.16.14-.24.18-.16.3-.23zm.34.15l-.03.02c-.09.05-.16.1-.22.16s-.1.11-.12.16-.02.11.01.16.08.1.16.14c.1.06.2.09.31.1a1.2 1.2 0 0 0 .32-.01c.11-.02.21-.04.31-.08l.39-.22c.05-.04.08-.08.11-.13s.05-.09.05-.14a.2.2 0 0 0-.04-.14c-.03-.05-.08-.09-.16-.13-.08-.05-.17-.08-.26-.09s-.19-.01-.28 0-.19.04-.29.07-.18.08-.27.13zm3.24 0l.3.17-2.13 1.23-.36.18-.28-.15 2.47-1.43zm-.1 1.74l-.03.02c-.13.07-.26.13-.4.18s-.28.08-.41.09-.27.01-.4-.01-.25-.06-.36-.12-.19-.13-.24-.19-.06-.14-.05-.21.06-.15.12-.23a1.6 1.6 0 0 1 .27-.24l.15-.09c.14-.07.28-.12.42-.16s.27-.06.4-.07.26 0 .38.02a1.2 1.2 0 0 1 .35.13c.11.06.19.13.23.2s.06.15.03.22-.07.16-.15.24a1.5 1.5 0 0 1-.32.23zm-.34-.15l.03-.02a1.4 1.4 0 0 0 .22-.16c.06-.05.1-.11.12-.16s.02-.11 0-.16-.08-.1-.16-.15c-.08-.04-.15-.07-.24-.09s-.16-.02-.25-.02-.16.01-.24.03-.15.04-.22.07l-.39.22c-.06.05-.1.11-.13.17s-.03.12-.01.19.08.12.18.18c.08.04.17.07.26.09s.18.01.28 0 .19-.04.28-.07.18-.08.27-.13zm1.17 1.27l.9-.52c.07-.04.11-.08.14-.13s.02-.09 0-.14-.08-.09-.16-.14c-.08-.04-.16-.07-.24-.09s-.16-.02-.23-.02-.13.02-.18.05l-.3-.17c.06-.04.14-.06.23-.08s.19-.02.3-.02.23.02.34.05.23.08.33.13c.13.07.22.15.27.22s.07.16.04.24-.11.16-.24.23l-.81.47a1.5 1.5 0 0 0-.17.11c-.05.04-.09.08-.12.12l-.03.01-.31-.17a.5.5 0 0 1 .1-.1c.05-.04.1-.07.15-.1zm.81-.41l-.21.12-.3-.17a1.9 1.9 0 0 0-.25-.12c-.08-.03-.16-.05-.23-.06a.7.7 0 0 0-.2 0c-.06.01-.12.03-.18.06s-.09.07-.11.11-.02.08 0 .12.07.09.15.13a.9.9 0 0 0 .3.1 1.3 1.3 0 0 0 .31.01c.1-.01.18-.03.23-.06l-.02.15c-.05.02-.12.04-.21.05a1.8 1.8 0 0 1-.29.02c-.1 0-.21-.01-.32-.04s-.21-.06-.3-.11c-.12-.07-.2-.14-.24-.21s-.05-.15-.02-.22.09-.14.19-.19.19-.09.3-.11.22-.03.34-.01.24.03.36.08.24.09.36.16l.35.19zm.58 1.28c.07.04.15.07.24.08s.18.02.27.01.17-.03.24-.06l.29.16c-.11.06-.24.09-.39.11s-.31.01-.47-.02-.3-.07-.42-.14c-.13-.07-.22-.15-.28-.23s-.07-.16-.05-.24.06-.16.13-.24.17-.15.29-.22l.07-.04c.12-.07.24-.12.38-.16s.28-.07.42-.08.29 0 .43.03a1.4 1.4 0 0 1 .42.15c.14.08.23.16.28.25s.05.18.02.26-.11.17-.22.24l-.29-.16c.07-.05.11-.09.13-.15s.02-.1 0-.16-.08-.1-.16-.15c-.09-.05-.19-.08-.29-.1s-.2-.01-.29 0a1.4 1.4 0 0 0-.28.07c-.09.03-.17.07-.25.12l-.07.04c-.08.04-.14.09-.2.14s-.1.1-.12.16a.2.2 0 0 0 0 .17c.03.06.09.11.18.16zm3.6-.56l-2.47 1.43-.3-.17 2.47-1.43.3.17zm.34 1.02l-1.58.04-.87.02.29-.2.67-.04 1.12-.03.37.2zm-2.02.85l.2-.83.42-.07-.27 1.09-.35-.2zm3.1.14l-1.4.8-.3-.17 1.74-1 .29.16-.33.21zm-.52.23l-.13-.08c.12-.07.25-.12.38-.16s.27-.07.4-.08.27 0 .4.02.25.07.37.14c.08.05.15.09.19.15s.07.11.07.16-.02.12-.07.18-.13.12-.24.19l-1.16.67-.3-.17 1.15-.66c.09-.05.15-.1.17-.15s.02-.09-.01-.14-.08-.09-.16-.13c-.09-.05-.18-.08-.27-.1s-.18-.02-.27 0-.18.03-.27.06-.17.07-.25.12zm1.3.54l-.26-.08c.1-.06.2-.1.32-.13s.24-.05.37-.06.25 0 .38.03.25.07.36.13c.09.05.17.1.21.16s.07.11.07.17-.03.12-.08.18-.13.12-.24.19l-1.14.66-.3-.17 1.15-.66c.1-.06.16-.11.18-.16s.02-.09-.02-.14-.09-.09-.17-.13c-.07-.04-.13-.06-.21-.08s-.15-.02-.22-.02-.14.01-.21.03a.8.8 0 0 0-.19.08zm1.78 1.89l.9-.52c.07-.04.11-.08.14-.13s.02-.09 0-.14-.08-.09-.16-.14-.16-.07-.24-.09-.16-.02-.23-.01-.14.02-.18.05l-.3-.17c.06-.04.14-.06.23-.08s.2-.02.31-.02.22.02.34.05.23.08.33.13c.13.07.22.15.27.22s.07.16.04.24-.11.16-.24.23l-.81.47a1.3 1.3 0 0 0-.17.12c-.05.04-.1.08-.12.12l-.03.01-.31-.17a.5.5 0 0 1 .1-.1c.05-.04.1-.07.15-.1zm.81-.41l-.21.12-.3-.17c-.09-.05-.17-.08-.25-.11s-.16-.05-.23-.06-.14-.01-.21 0a.5.5 0 0 0-.17.06c-.06.03-.09.07-.11.11s-.02.08.01.12.07.09.15.13c.09.05.19.09.3.1a1.3 1.3 0 0 0 .31.01c.1-.01.17-.03.23-.06l-.01.15c-.05.02-.12.04-.21.05s-.19.02-.29.02-.21-.01-.32-.04-.21-.06-.3-.12c-.12-.07-.2-.14-.24-.21s-.05-.15-.02-.22.09-.14.19-.19.19-.09.3-.11.22-.03.34-.01.24.03.36.07.24.09.36.16l.35.19zm1.11 1.43l2.13-1.23.3.17-2.47 1.43-.28-.15.31-.21zm-.67-.95l.03-.02c.13-.08.27-.14.41-.18a1.9 1.9 0 0 1 .42-.08 1.6 1.6 0 0 1 .4.02c.13.02.25.06.35.12.11.06.19.13.23.19s.06.14.05.21-.05.15-.12.23-.16.16-.28.24l-.15.09a2.6 2.6 0 0 1-.41.16c-.13.04-.27.06-.4.07s-.25 0-.38-.02-.24-.07-.35-.13c-.1-.06-.18-.12-.22-.19s-.05-.15-.03-.23.06-.16.14-.24.18-.16.3-.23zm.34.15l-.03.02c-.09.05-.16.1-.22.16s-.1.11-.12.16-.02.11.01.16.08.1.16.14c.1.06.2.09.31.1a1.2 1.2 0 0 0 .32-.01c.11-.02.21-.04.31-.08l.39-.22c.05-.04.08-.08.11-.13s.05-.09.05-.14-.01-.09-.04-.14-.08-.09-.16-.13c-.08-.05-.17-.07-.26-.09s-.19-.01-.28 0-.19.04-.29.07-.18.08-.27.13zm1.46 1.85c-.12-.07-.21-.14-.27-.22s-.08-.16-.08-.24.04-.16.1-.24a1 1 0 0 1 .28-.23l.07-.04c.14-.08.29-.14.44-.18s.31-.06.46-.07.29.01.42.04.25.07.35.12c.13.07.21.14.26.22s.06.15.05.23-.06.15-.14.23-.17.15-.3.22l-.13.08-1.31-.73.24-.14 1.01.56.02-.01a.7.7 0 0 0 .18-.16c.05-.06.06-.12.05-.18s-.07-.12-.17-.18c-.07-.04-.14-.06-.23-.08s-.18-.02-.27-.01-.2.03-.3.06-.21.08-.31.14l-.07.04c-.08.05-.15.1-.2.15s-.08.11-.09.17 0 .11.04.17.09.1.17.15c.11.06.22.1.34.11a1.7 1.7 0 0 0 .36.01l.04.18c-.09.01-.2.02-.31.01s-.22-.02-.34-.05-.23-.07-.35-.14zm3.69 1.72l-.25.14-1.25-.69.25-.15 1.25.69zm.9-1.87l-2.34 1.35-.31-.17 2.34-1.35.31.17zm.02 1.15l-.25.15-1.09-.6.25-.15 1.09.6zm1.16-.5l-.25.15-1.24-.68.25-.15 1.24.69zm-.65 1.95l.9-.52c.07-.04.11-.08.14-.13s.02-.09 0-.14-.08-.09-.16-.14c-.08-.04-.16-.07-.24-.09s-.16-.02-.23-.02-.13.02-.18.05l-.3-.17c.06-.04.14-.06.23-.08s.2-.02.31-.02.23.02.34.05.23.08.33.13a.8.8 0 0 1 .27.22c.05.08.07.16.04.24s-.11.16-.24.23l-.81.47a1.3 1.3 0 0 0-.17.11c-.06.04-.1.09-.12.12l-.03.01-.31-.17c.02-.03.05-.06.1-.1s.1-.07.15-.1zm.81-.41l-.21.12-.3-.17c-.08-.05-.17-.09-.25-.11s-.16-.05-.23-.06-.14-.01-.21 0a.5.5 0 0 0-.17.06c-.05.03-.09.07-.11.11s-.02.08 0 .12.07.09.15.13c.09.05.19.09.3.1s.21.02.31.01.18-.03.23-.06l-.01.15c-.05.02-.12.04-.21.05s-.19.02-.29.02-.21-.01-.32-.04-.21-.06-.31-.11c-.12-.07-.2-.14-.24-.21s-.05-.15-.02-.22.09-.14.19-.19.19-.09.3-.11.22-.03.34-.02.24.03.36.08a2.1 2.1 0 0 1 .36.16l.35.19zm1.15 1.31c.04-.02.07-.05.09-.09s.01-.07-.01-.12-.09-.11-.18-.19c-.08-.07-.14-.13-.19-.19s-.08-.12-.1-.17-.01-.1.02-.15.07-.09.14-.13.15-.07.24-.09.19-.03.3-.02.21.02.32.05.21.07.31.13c.14.08.24.16.29.24s.06.16.03.24a.4.4 0 0 1-.19.2l-.3-.17c.05-.03.08-.06.1-.1s.02-.09-.01-.14-.08-.09-.15-.14c-.08-.05-.16-.08-.24-.09s-.14-.02-.21-.01-.11.03-.16.05c-.03.02-.06.04-.07.06s-.02.04-.01.07.03.06.07.1a1.6 1.6 0 0 0 .15.14c.11.1.19.19.24.26s.06.15.04.21-.08.12-.17.18c-.08.04-.16.07-.26.09s-.2.03-.3.02-.21-.03-.32-.06-.21-.08-.32-.13c-.16-.09-.26-.18-.31-.27s-.06-.18-.03-.26.1-.15.19-.21l.3.17c-.08.05-.12.1-.12.15s.02.1.06.15.1.09.16.12c.08.05.16.08.24.1s.15.03.22.02.12-.02.17-.05zm.91.82l2.05-.63.32.18-2.71.77c-.06.02-.13.03-.2.04s-.16.02-.24.03-.17 0-.26-.02-.17-.05-.25-.09c-.02-.01-.05-.03-.08-.06l-.06-.05.24-.14a.3.3 0 0 0 .04.02c.02.01.03.02.04.03.07.04.14.06.2.08s.13.02.21.02.16-.02.25-.05l.46-.12zm1.2-1.1l-.89 1.03-.23.22-.33-.06 1.13-1.38.33.18zm2.4.65l-1.7.96-.27-.15 1.66-.98.32.17zm-2.52 1.09c.05-.03.1-.04.17-.05s.13.01.18.04.09.07.08.1-.03.07-.08.1-.1.04-.17.04-.12-.01-.18-.04-.09-.07-.08-.1.03-.07.08-.09zm.84.45c.05-.03.11-.04.17-.05s.13.01.19.05.09.07.08.11-.03.07-.08.1-.11.04-.17.04-.13-.01-.19-.05-.09-.07-.09-.11.03-.07.08-.1z" class="E"/><path d="M99.34 194.27l.52.29c-.21.1-.45.18-.69.21s-.5.03-.76-.01-.51-.13-.76-.27c-.19-.1-.32-.22-.41-.34s-.12-.25-.1-.38.08-.26.2-.4a2.1 2.1 0 0 1 .5-.39l.25-.14c.22-.12.44-.22.67-.29s.47-.11.7-.12.46 0 .68.05.42.12.62.23c.24.13.4.27.48.42s.09.28.02.43-.18.28-.36.4l-.52-.29c.12-.08.2-.16.24-.24s.05-.16.01-.24-.14-.16-.28-.24c-.12-.07-.25-.11-.38-.14s-.27-.03-.42-.01-.3.05-.45.11-.31.13-.47.22l-.25.15a2.3 2.3 0 0 0-.37.26c-.09.09-.16.17-.19.25s-.03.16.01.24.12.15.24.22c.15.08.29.14.43.16s.28.02.42 0 .28-.07.43-.14zm1.69 1.54l1.07-.62c.08-.05.13-.09.16-.14s.03-.1 0-.15-.08-.1-.17-.15c-.08-.05-.17-.08-.25-.09s-.17-.02-.25-.01-.15.03-.21.06l-.5-.28c.09-.05.2-.09.32-.11s.26-.03.41-.02a2.1 2.1 0 0 1 .45.08c.15.04.3.1.44.18.17.09.29.19.37.3s.09.21.05.32-.14.21-.31.31l-.99.57c-.1.06-.19.12-.25.17s-.11.11-.14.16l-.03.02-.52-.29c.03-.04.08-.09.15-.15s.15-.11.23-.15zm.99-.49l-.3.18-.36-.2c-.09-.05-.18-.09-.27-.12s-.17-.05-.25-.06a.8.8 0 0 0-.23.01c-.07.01-.14.04-.2.07s-.1.07-.12.12-.02.09.01.13.08.09.15.13c.1.06.21.09.33.11s.23.02.34.01.19-.03.25-.06l-.06.22a1.6 1.6 0 0 1-.27.06 2.2 2.2 0 0 1-.34.02c-.12 0-.25-.02-.37-.05s-.25-.07-.37-.14c-.15-.08-.25-.17-.31-.27s-.07-.19-.03-.29.12-.18.24-.25c.12-.07.25-.12.38-.14s.28-.03.43-.02.31.05.47.1a2.8 2.8 0 0 1 .49.21l.39.22zm1.86.58l-1.76 1.02-.5-.28 2.24-1.29.47.26-.45.29zm-.65.27l-.16-.09c.16-.09.33-.16.5-.21s.35-.08.53-.1.34 0 .5.03.31.08.45.16a.9.9 0 0 1 .25.19c.06.07.09.14.08.21s-.04.15-.11.23-.18.16-.34.25l-1.45.83-.5-.28 1.45-.84c.11-.06.18-.12.21-.17s.03-.1 0-.15-.09-.1-.18-.15-.18-.08-.29-.1-.21-.02-.32-.01-.22.03-.32.06-.21.08-.3.13zm2.61 2.28l2.71-1.57.51.28-3.18 1.83-.46-.25.42-.29zm-.84-1.18l.04-.03a2.7 2.7 0 0 1 .52-.23c.18-.06.36-.1.54-.11s.35-.01.51.02.32.08.45.16.23.16.28.25.06.18.04.28-.08.19-.18.3-.21.2-.35.31l-.14.08a4.1 4.1 0 0 1-.53.2c-.17.05-.35.09-.52.1s-.33.01-.49-.02a1.4 1.4 0 0 1-.44-.16c-.14-.08-.23-.16-.28-.25s-.07-.19-.04-.29a.7.7 0 0 1 .18-.31c.1-.1.23-.2.39-.29zm.55.25l-.04.03c-.1.06-.19.12-.26.18s-.12.12-.14.18-.03.12 0 .18.09.11.18.16c.11.06.23.1.36.11s.25.01.37-.02a1.8 1.8 0 0 0 .37-.12l.38-.22c.07-.05.13-.11.17-.16s.07-.11.08-.16 0-.11-.04-.16-.09-.1-.18-.15-.19-.08-.29-.1-.21-.01-.32 0-.22.04-.33.09-.21.09-.32.15zm3.64.77l-2.24 1.29-.5-.28 2.24-1.29.51.28zm.05-.64c.08-.04.16-.07.26-.07s.2.02.29.07.13.1.13.16-.04.11-.11.15-.16.06-.26.06-.2-.03-.29-.07-.14-.1-.14-.16.04-.11.11-.15zm.11 2.73l2.72-1.57.5.28-3.18 1.83-.46-.25.42-.29zm-.84-1.18l.04-.03c.17-.1.34-.18.52-.23s.36-.1.54-.11a1.9 1.9 0 0 1 .51.02c.17.03.32.08.45.16s.23.16.28.25.06.18.04.28-.08.19-.17.3-.21.2-.36.31l-.14.08c-.18.08-.35.15-.53.2s-.35.09-.52.1a1.8 1.8 0 0 1-.49-.02c-.16-.03-.3-.08-.44-.15s-.23-.16-.29-.25-.06-.19-.04-.29a.7.7 0 0 1 .19-.31c.1-.1.23-.2.39-.29zm.55.25l-.04.03c-.1.06-.19.12-.26.18s-.12.12-.14.19-.03.12 0 .18.09.11.18.16c.12.06.23.1.36.11s.25.01.37-.02.25-.06.37-.12l.38-.22c.07-.05.13-.1.18-.16s.07-.11.08-.16 0-.11-.04-.16-.09-.1-.18-.15c-.09-.05-.19-.08-.29-.1s-.21-.01-.32 0-.22.05-.33.09-.21.09-.32.15zm2.59 2.21l1.07-.62c.08-.05.13-.09.16-.14s.03-.1 0-.15-.09-.1-.17-.15c-.08-.05-.17-.08-.25-.09s-.17-.02-.25-.01-.15.03-.21.06l-.5-.28c.09-.05.2-.09.32-.11a1.7 1.7 0 0 1 .41-.02c.15.01.3.03.45.07a2 2 0 0 1 .44.18c.17.09.29.19.37.3s.09.21.06.32-.14.21-.31.31l-1 .57c-.1.06-.19.12-.25.17s-.11.11-.14.16l-.03.02-.52-.28c.03-.04.08-.09.15-.15s.15-.11.23-.15zm.98-.49l-.3.18-.36-.2c-.09-.05-.19-.09-.27-.12s-.17-.05-.25-.06-.16 0-.23.01-.14.04-.19.07-.1.07-.12.12-.02.09.01.13.08.09.16.13c.1.06.21.09.33.11s.23.02.34.01.19-.03.25-.06l-.06.22c-.07.02-.16.04-.27.06a2.2 2.2 0 0 1-.34.02c-.12 0-.25-.02-.37-.05s-.25-.07-.37-.14c-.15-.08-.25-.17-.31-.27s-.07-.19-.03-.29.12-.18.24-.25c.12-.07.25-.12.38-.15s.28-.03.43-.02.31.05.47.1.32.12.49.21l.39.22zm2.87.6l-.36.21-1.27-.71.36-.21 1.28.71zm-.36-.82l.5.28-2.17 1.25c-.07.04-.11.08-.13.11s-.01.06.01.09.06.05.11.08l.11.05.09.04-.38.22-.18-.06c-.06-.02-.13-.06-.2-.09-.11-.06-.2-.13-.25-.2s-.05-.15-.01-.23.14-.17.29-.25l2.2-1.27zm-.54 2.9c-.17-.09-.29-.19-.37-.3s-.12-.21-.11-.32.05-.22.13-.32.2-.2.35-.29l.08-.05c.18-.1.36-.18.55-.23s.39-.08.58-.09a2.2 2.2 0 0 1 .56.05c.18.04.34.1.49.18.16.09.28.18.34.28s.09.2.07.3-.07.2-.16.3-.22.2-.38.29l-.21.12-1.75-.97.36-.21 1.25.69.04-.02c.09-.05.15-.11.2-.18s.06-.13.04-.19-.08-.13-.2-.19c-.08-.05-.18-.08-.28-.09s-.2-.02-.31 0-.22.04-.34.08a2.1 2.1 0 0 0-.35.16l-.08.05c-.1.06-.17.12-.23.18s-.09.13-.1.19.01.13.05.19.11.12.2.17c.12.07.25.11.4.14s.29.03.45.02l.01.29c-.12.01-.25.02-.39.01s-.29-.03-.44-.07a1.9 1.9 0 0 1-.45-.18z" class="I"/><g clip-path="url(#O)"><g fill="#221f1f"><path d="M179.66 132.66l-1.31-.69c-.45-.25-.7-.49-.78-.73s.03-.51.34-.8a8.9 8.9 0 0 1 1.54-1.06 11.5 11.5 0 0 1 1.84-.89c.51-.18.99-.25 1.41-.21s.86.18 1.3.43l.82.47.64.38.62.39 1.18-.54-.53-.44-.62-.43-.89-.52a6.8 6.8 0 0 0-2.28-.83c-.73-.11-1.49-.06-2.3.16a12.2 12.2 0 0 0-2.7 1.2c-1 .58-1.69 1.09-2.06 1.55-.38.45-.46.89-.24 1.3.21.41.72.84 1.51 1.27l1.44.72a11.6 11.6 0 0 0 1.29.46l.92-.67-1.11-.52h-.02zm10.44.92c-.22-.34-.67-.69-1.36-1.07a6.4 6.4 0 0 0-1.91-.74 4.2 4.2 0 0 0-1.81.05c-.61.15-1.27.42-1.99.84s-1.19.79-1.43 1.13c-.25.35-.26.69-.05 1.02.22.34.66.69 1.34 1.06a6.7 6.7 0 0 0 1.93.75 4.2 4.2 0 0 0 1.81-.05c.61-.15 1.26-.43 1.97-.84a5 5 0 0 0 1.45-1.13c.26-.34.27-.69.05-1.02zm-4.2 1.96c-.35.11-.68.15-.99.09-.3-.05-.63-.17-.97-.36s-.54-.36-.63-.53-.04-.35.14-.56c.19-.2.53-.45 1.02-.73a6.8 6.8 0 0 1 1.27-.59c.35-.11.69-.14.99-.09a3 3 0 0 1 .96.34c.33.18.56.38.64.55s.04.35-.15.56c-.19.2-.54.44-1.03.73a7.7 7.7 0 0 1-1.26.6zm10.31 1.1c-.41-.23-.93-.41-1.53-.54a12.4 12.4 0 0 0-1.94-.24l.76-.57-1.13-.63-5.57 3.21 1.38.77 3.9-2.25 1.38.25c.42.09.78.21 1.06.37.25.14.38.27.37.4s-.16.27-.46.45l-3.76 2.17 1.38.77 4.18-2.41c1.02-.59 1.01-1.18-.03-1.75l.01.01zm6.46 3.58c-.41-.23-.92-.41-1.53-.54a13 13 0 0 0-1.94-.24l.76-.57-1.13-.63-5.57 3.21 1.38.77 3.9-2.25 1.38.25c.42.09.78.21 1.06.37.25.14.38.27.37.4s-.16.27-.46.45l-3.76 2.17 1.38.77 4.18-2.41c1.02-.59 1.01-1.17-.03-1.75l.01.01zm4.44 5.87a3 3 0 0 0 1.5-.47c.61-.35.87-.73.79-1.14s-.58-.86-1.48-1.36a6.6 6.6 0 0 0-1.86-.72 4.2 4.2 0 0 0-1.8.03 7.6 7.6 0 0 0-2.03.85 4 4 0 0 0-1.38 1.12c-.25.35-.26.7-.05 1.05s.67.7 1.35 1.08l.86.42.95.4a9.1 9.1 0 0 0 .91.27l.74-.58-1.16-.54-1.01-.52a2.4 2.4 0 0 1-.77-.59c-.13-.18-.09-.38.08-.6.1-.12.27-.26.49-.41l2.25 1.25c.57.32 1.11.47 1.61.46h.02zm-3.03-2.2a6.2 6.2 0 0 1 .95-.43c.34-.11.65-.13.94-.08s.63.18.98.38c.41.23.65.42.7.59s-.08.34-.38.52a2 2 0 0 1-.6.23c-.2.04-.44-.01-.71-.16l-1.9-1.05h.01zm6.47 5.98l-.64-.32-.46-.25c-.39-.22-.64-.42-.75-.6-.13-.19-.11-.38.06-.59a3.4 3.4 0 0 1 .94-.71 5.1 5.1 0 0 1 1.24-.55 2.3 2.3 0 0 1 1.04-.04 4 4 0 0 1 1.06.42l.73.41.8.48 1.02-.41c-.11-.15-.25-.31-.45-.47l-.61-.44-.61-.36c-.67-.37-1.3-.62-1.9-.73a4.2 4.2 0 0 0-1.8.04 7.1 7.1 0 0 0-1.99.84c-.72.42-1.2.8-1.45 1.13-.25.35-.27.69-.05 1.02.21.33.65.68 1.33 1.06.35.2.74.39 1.16.56a7.8 7.8 0 0 0 1.25.4l.75-.59-.69-.32-.01.01zm9.57-1.63l-1.38-.76-1.59.92-1.05-.52-.9.52 1 .55-3.21 1.85c-.49.28-.74.58-.73.88s.26.58.76.86l.46.24.59.26.57.2.82-.64-.78-.43c-.25-.14-.39-.27-.38-.38s.11-.25.34-.38l2.94-1.69 1.67.92.95-.55-1.67-.93 1.59-.92.01-.01z"/></g><g class="I"><path d="M226.41 152.41c.21 0 .42.05.63.17l3.09 1.71 1.12-.57-1.08-.67-1.21-.7-1.21-.67c-.49-.27-1.02-.41-1.56-.42-.57-.01-1.08.12-1.55.38l-4.9 2.83c-.45.26-.66.56-.63.88s.29.61.77.88l1.21.67 1.26.67 1.2.6.99-.65-3.09-1.71c-.22-.12-.31-.24-.31-.35s.11-.25.34-.38l1.79-1.03 3.28 1.82 1.04-.6-3.28-1.82 1.43-.82c.23-.13.44-.2.66-.2l.01-.01zm3.82 8.25l-1.31-.69c-.44-.25-.7-.49-.78-.73s.03-.51.34-.8a8.9 8.9 0 0 1 1.54-1.06 11.5 11.5 0 0 1 1.84-.89c.51-.18.99-.25 1.41-.21s.86.18 1.3.43l.82.47.64.38.62.39 1.18-.54-.53-.44-.62-.43-.89-.52a6.9 6.9 0 0 0-2.28-.83c-.73-.11-1.49-.06-2.3.16a12.2 12.2 0 0 0-2.7 1.2c-1 .58-1.69 1.09-2.06 1.55-.38.45-.46.89-.24 1.3.21.41.72.84 1.51 1.27l1.44.72a11.6 11.6 0 0 0 1.29.46l.92-.67-1.11-.52h-.02zm11.95-1.85s-.02-.08-.07-.1c.14.05.27.07.38.07s.22-.03.33-.1c.17-.1.24-.19.2-.27s-.16-.18-.38-.3l-.34-.19-.29-.15-1.45.84.26.15.59-.34.37.2s.1.06.1.09c.01.03.01.07-.02.12l-.29.34.26.15.28-.36c.04-.05.08-.1.07-.14zm-.23-.31l-.35-.2.5-.29.35.2c.13.07.21.13.22.17s-.02.1-.14.16c-.09.05-.18.08-.26.07s-.19-.04-.32-.11z"/><path d="M243.58 158.75c.08-.17.08-.34 0-.52s-.23-.32-.47-.45-.5-.22-.81-.26a3.1 3.1 0 0 0-.91.01c-.31.05-.57.13-.81.27s-.38.29-.46.46-.08.34 0 .51.24.33.47.45.5.21.81.26a3.1 3.1 0 0 0 .91-.01c.31-.05.58-.14.81-.27s.38-.29.46-.46zm-1.35.59c-.27.04-.52.04-.79.01-.25-.04-.49-.1-.68-.21s-.33-.24-.4-.39c-.07-.14-.07-.3.01-.44.06-.15.19-.28.4-.4s.43-.2.69-.23c.25-.04.52-.04.77-.01.26.03.49.1.7.22s.33.23.39.38.07.3 0 .44c-.06.15-.19.28-.4.4s-.42.19-.69.23z"/></g></g><g clip-path="url(#P)" class="E"><path d="M267.07 164.12c.02.07-.07.13-.19.14l-3.28.23c-.28.02-.51-.11-.48-.27l.34-1.86c.01-.07.13-.12.25-.11.43.04 1.38.18 2.2.63s1.08.99 1.16 1.23z"/></g><g class="E"><path d="M270.92 165.78c.2 0 .3.13.16.21l-2.45 1.41c-.17.1-.46.1-.63.01l-2.47-1.37c-.14-.08-.04-.22.16-.22l5.23-.04zm3.87 2.2l.24.13c.13.07.13.19 0 .27l-2.35 1.36c-.13.08-.34.08-.47 0l-1.43-.79c-.13-.07-.13-.19 0-.27l2.35-1.36c.13-.07.34-.08.47 0l.24.13.31-.18.95.53-.31.18z"/><path opacity=".6" d="M187.81 115.39l-2.35 1.36-.39-.22 1.89-1.09-.77-.21.32-.18 1.26.32.05.03zm.37 2.51l-.31.18-1.59-.88.27-.15 1.6-.05.44-.03c.12-.01.21-.03.29-.05s.14-.05.19-.08c.07-.04.13-.09.15-.14s.03-.1.01-.14-.07-.09-.14-.14c-.09-.05-.18-.08-.28-.09s-.19-.01-.29.02-.19.06-.27.1l-.39-.22c.14-.08.29-.13.47-.16s.36-.03.54 0 .36.09.53.18c.16.09.27.18.32.27s.07.18.03.27-.12.17-.25.25a1.2 1.2 0 0 1-.25.11c-.1.03-.2.05-.32.07l-.37.04-.41.02-1.07.04 1.09.61zm.22.25c.06-.03.13-.05.21-.05s.16.02.23.06.11.08.1.13-.03.09-.09.12-.13.05-.21.05-.16-.02-.23-.06-.11-.08-.11-.13.03-.09.09-.12zm1.37-.79c.06-.03.13-.05.21-.05s.16.02.23.06.11.08.11.13-.03.09-.09.12-.13.05-.21.05-.16-.02-.23-.06-.11-.08-.11-.13.03-.09.09-.12zm1.09.85l.23.13c.09.05.18.08.27.1s.18.02.26 0a.7.7 0 0 0 .23-.08.4.4 0 0 0 .15-.13c.03-.05.03-.09 0-.14s-.08-.09-.16-.14c-.07-.04-.15-.07-.23-.08s-.16-.02-.25-.01-.16.04-.23.08l-.39-.22c.12-.07.27-.12.43-.14s.33-.01.5.02a1.5 1.5 0 0 1 .47.17c.15.08.26.17.32.27s.08.18.05.28-.13.18-.27.26a.9.9 0 0 1-.25.09c-.1.02-.21.03-.33.03s-.24-.02-.37-.05-.25-.08-.37-.15l-.29-.16.22-.12zm-.3.17l.21-.12.29.16a1.2 1.2 0 0 1 .31.22c.07.07.1.14.11.21s-.01.13-.06.19-.1.11-.18.16c-.11.06-.23.11-.35.14s-.25.04-.38.03-.26-.03-.39-.06-.25-.09-.36-.15c-.1-.06-.19-.12-.25-.19s-.11-.14-.13-.21-.01-.15.03-.22.12-.14.23-.2l.39.22c-.07.04-.12.08-.14.13s-.01.1.02.15.09.1.16.14.17.08.26.09.18.02.26 0 .17-.05.25-.09c.09-.05.15-.1.17-.16s.01-.1-.03-.16a.6.6 0 0 0-.19-.15l-.23-.13zm3.3 1.46l-.38.22a2.8 2.8 0 0 1-.53.24c-.17.05-.32.09-.47.09s-.29 0-.42-.03-.26-.08-.37-.14c-.09-.05-.17-.11-.22-.16s-.09-.12-.1-.18 0-.13.03-.2a.8.8 0 0 1 .18-.22c.09-.08.21-.16.35-.24l.38-.22a2.7 2.7 0 0 1 .52-.24c.16-.05.32-.08.47-.09s.29 0 .42.03.26.08.37.14c.09.05.17.11.22.16s.09.12.11.18 0 .13-.03.2-.09.14-.18.22-.2.16-.35.24zm-.83.04l.5-.29.23-.15c.06-.05.1-.09.13-.13s.05-.08.04-.11-.01-.07-.04-.1-.06-.06-.11-.09c-.06-.03-.13-.06-.2-.07a.7.7 0 0 0-.23 0c-.08.01-.17.04-.27.07s-.2.09-.32.16l-.5.29c-.09.05-.17.11-.23.15s-.11.09-.14.13-.04.08-.05.11.01.07.04.1.06.06.11.09c.06.03.13.06.2.07s.15.01.23 0 .18-.04.28-.08.21-.09.33-.16z"/></g><g opacity=".07" class="E"><path d="M132.63 190.27c21.19 11.74 41.15 19.65 44.57 17.68s-10.98-13.09-32.18-24.83-41.15-19.65-44.57-17.68 10.98 13.09 32.18 24.83z"/></g><use href="#X" class="B"/><path d="M152.37 187.96l.48-.23 5.55 3.17c.27.15.68.22 1.07.18l.06.02-.77.36c-.03.01-.06.02-.1.02h-.04c-.24 0-.47-.05-.64-.15l-5.63-3.22c-.08-.05-.07-.12.02-.17z" fill="#8da1b5"/><use href="#Y" class="D"/><path d="M147.56 180.85l-2.78 1.13 2.6 1.23 2.41-1.3-2.23-1.07z" class="B"/><path d="M142.82 182.67l.48-.23 5.55 3.17c.27.15.68.22 1.07.18l.06.02-.77.36c-.03.01-.06.02-.1.02h-.03c-.25 0-.48-.05-.64-.15l-5.63-3.22c-.08-.05-.08-.12.02-.17z" fill="#8da1b5"/><path d="M148.51 182.81l1.69 2.66c.07.11-.01.24-.19.33-.25.12-.68.08-.88-.03l-5.82-3.33 2.52-.99s.25.95 2.69 1.36z" class="D"/><path d="M186.34 175.46l-27.42 12.82-1.99-1.1c-.94-.68-1.32-1.25-1.32-1.25s3.57-2.3 9.49-5.43l7.32-4s-3.92.72-10.23 2.49c-3.8 1.07-12.88 3.96-12.88 3.96s-1.4-.69-2.01-1.11c-.79-.55-1.25-1.26-1.25-1.26s8.3-3.36 20.22-7.55l12.12-4.15 7.96 6.57z" class="G"/><g class="K"><path d="M173.48 170.21c2.71 4.69 12.04 6.68 12.04 6.68l10.24-5.98s-7.68-6.35-8.7-5.99c-4.25 1.49-13.58 5.29-13.58 5.29z"/><path d="M186.38 163.57s-1.4 1.2-.2 3.36c.49.88 2.91 1.77 2.91 1.77l.15.06 3.37 2.79s2.36-.47 2.8-.43c3.48.29 5.4-1.13 5.4-1.13s-.89-1.57-3.36-3.41c-.22-.16-.42.41-1.04.66l-.17.06c-.31.1-.65.16-1.02.12l-.19-.03c-.24-.05-.48-.15-.73-.31a2.4 2.4 0 0 1-.29-.22l-.09-.09c-.95-.94.25-1.84.25-1.84s-3.67-1.68-7.79-1.37z"/></g><path d="M187.82 166.6l1.97-2.79c.01-.01 0-.02 0-.02s-.02-.01-.03-.01a55 55 0 0 0-4.84-.28c-2.53-.04-6.16.08-9.06.89a54.3 54.3 0 0 0-5.26 1.75l-1.65.7a6.5 6.5 0 0 0-1.19.33 10.5 10.5 0 0 0-.8.39c-.46.24-.93.48-1.35.57-.61.13-.61.26-.58.31s.1.08.19.11c-.23.07-.21.16-.19.18.05.08.27.15.59.15-.08.05-.22.16-.17.24.04.05.13.08.29.09.44.02 1.62-.27 2.14-.41-.12.06-.31.14-.6.22-.32.09-.7.22-.72.34 0 .01 0 .02.01.04.01.02.05.05.11.07a8.1 8.1 0 0 0 2.14-.42l2.35-.91c2.2-.63 7.18-2.02 8.34-1.95l7.78.43.37.03v-.01l.13.01c.02 0 .05-.01.06-.02z" class="B"/><path d="M182.47 163.11c-.41-.01-.75.19-.72.42.07.62 2.1 2.13 2.32 3.44.38 2.21 7.76-1.08 7.76-1.08l2.35-.96c-2.85-1.57-9.46-1.8-11.71-1.83z" class="K"/><g class="C"><path d="M182.64 171.93l.08.03c1.93-2.05 10.26-5.03 10.34-5.06l-.05-.04c-.08.03-8.43 3.01-10.37 5.08z"/><path d="M186.39 171.24l.09.02c.64-.91 6.87-4.2 6.94-4.23l-.06-.04c-.26.13-6.31 3.33-6.96 4.25z"/></g><path d="M193.08 167.12c1.46.81 3.38 1.04 4.29.51s.47-1.61-.99-2.42-3.38-1.04-4.29-.51-.47 1.61.99 2.41z" class="K"/><g fill="#226cbc"><path d="M197.75 167.32c-.33.33-.92.58-1.58.62-.08.01-.16 0-.25 0s-.16 0-.25-.01l-.48-.06-.46-.11-.22-.06-.11-.03-.1-.04-.42-.15-.39-.18-.19-.09-.18-.1-.18-.1-.16-.11c-.21-.15-.4-.3-.55-.47s-.28-.34-.35-.53c.11.38.44.72.85 1.02l.16.11.18.1.18.1.2.09.39.18.42.16.11.04.11.03.23.06c.15.05.31.07.47.11s.33.04.5.06c.08.01.17 0 .25.01s.17.01.26-.01c.34-.02.67-.1.94-.22s.49-.27.64-.44zm-4.75-2.87a2.7 2.7 0 0 0-.57.06c-.18.04-.36.1-.5.18-.07.04-.12.09-.18.14-.04.05-.08.11-.09.16-.02.06-.02.11-.02.17.01.05.03.11.05.16-.01-.11-.02-.22.04-.32.04-.1.13-.2.26-.27s.29-.13.46-.18a3.9 3.9 0 0 1 .54-.1z"/></g><g class="B"><path d="M199.1 165.34l.29-2.52-3.2.77-.3.36-1.84.84c-.57 1.16 1.61 2.18 2.72 1.9l2.34-1.36z"/><path d="M203.66 163.71c-.29.8-2.04 2.06-4.27 2.43-.96.15-2.76-.88-2.84-1.48-.07-.53 1.66-2.46 3.04-2.53s4.71.54 4.06 1.58z"/></g><path d="M200.15 162.72c-.06-.1-.11-.2-.15-.3-.14-.38-.18-.78-.02-1.15l.06-.11-.22-.04c-.67-.1-1.38-.02-1.91.2-.44.18-1.1.51-1.1.96 0 .21-.01.43-.17.62l-.54.79.97.02c.35 0 .6-.09.93-.13a9.8 9.8 0 0 0 2.28-.64c-.04-.07-.09-.14-.14-.21z" class="D"/><path d="M198.6 163.59c.02-.16.03-.34-.17-.44a.8.8 0 0 0-.38-.06c-.68.04-1.22.43-1.05.83.07.17.28.31.6.26l.94-.49c.05-.02.06-.06.06-.09z" class="B"/><g class="D"><path d="M198.13 165.94c-.02-.01-1.49-.67-1.5-1.44h.08c.01.74 1.45 1.39 1.46 1.4l-.05.04zm1.67-1.1l.05-.03.22.1a.6.6 0 0 0 .31.05c.11-.01.19-.05.24-.1l.51-.62.08.02-.52.62c-.06.07-.16.11-.3.13s-.27-.01-.38-.06l-.22-.1zm.36-.85c.05 0 .09-.01.12-.03.04-.03.11-.07.15-.11l-.24-.13c-.12.03-.23.1-.23.17l.2.11zm1.79.64c-.03.05-.11.09-.16.13-.07.05-.22.03-.29-.03-.12-.11.23-.31.42-.19.05.03.05.06.03.09zm1.38-1.14l-.14.92s.78-.78.65-1.02-.51.09-.51.09zm-6.04.66c-.35-.15-.35-.43-.35-.44h.08s.01.35.47.45l-.02.04c-.07-.01-.12-.03-.17-.05z"/><path d="M201.05 161.08a4.8 4.8 0 0 0-1.12-.27c-.28-.03-1.03-.02-1.34.15-.54.31.14 1.22 1.18 1.79a8.7 8.7 0 0 0 1.37.48c1.56.46 3.57.81 4.67-.18 0 0-.46.07-.72-.02 0 0 1.2-.37.55-1.26.03.05-.93.1-.98.09-.81-.03-1.48-.11-2.02-.25-.52-.14-.44-.18-1.58-.54z"/><path d="M200.06 163.37a1 1 0 0 1 .3-.01c.1.01.2.03.29.07.18.07.3.19.28.31l-.2-.12-.2-.09-.47-.16zm2.24.61c.07-.03.15-.04.24-.03s.18.03.25.06.13.08.16.12c.02.02.02.05.03.07 0 .02 0 .05-.01.07-.04-.02-.06-.03-.09-.05l-.08-.04c-.05-.03-.09-.05-.14-.07a2.2 2.2 0 0 0-.36-.12z"/></g><path d="M172.35 176.54c-.04-.03-.03-.06.01-.07 1.37-.62 3.53-.54 3.62-.54.05 0 .08.03.08.05s-.04.05-.09.04c-.02 0-2.18-.08-3.5.52-.03.02-.08.01-.11 0z" fill="#073a77"/><path d="M199.25 165.28c-.16-.09-.34-.24-.35-.47h.11c.02.39.56.53.58.53l-.04.06a1.3 1.3 0 0 1-.29-.12z" class="D"/><use href="#Z" class="B"/><use href="#a" fill="#c4c4c4"/><path d="M127.5 175.09l-4.75-.9c-.2-.04-.43.01-.58.12-.2.14-.13.39.07.5l6.01 3.22 1.7-1.45s-1.69-.12-2.46-1.49z" class="D"/><path d="M140.66 180.88l-1.95 1.59-2.23-1.45 2.24-1.39 1.94 1.24z" class="B"/><path d="M137.53 183.6l.39-.28-5.73-3.07c-.28-.15-.41-.38-.34-.6l-.04-.03-.63.44c-.02.02-.04.04-.03.06v.02c.01.14.1.27.27.36l5.81 3.11c.09.05.22.04.29-.01z" fill="#c4c4c4"/><path d="M137.16 180.38l-4.75-.9c-.2-.04-.43.01-.58.12-.2.14-.13.39.07.5l6.01 3.22 1.7-1.45a3.3 3.3 0 0 1-2.46-1.49z" class="D"/><path d="M163.87 165.66s-3.64 3.01-23.15 15.96l-2.43-.96c-.92-.42-1.81-1-1.81-1l17.05-13.16c-8.08 4.12-22.48 9.99-22.48 9.99s-.43-.26-2.26-1.09c-.36-.16-1.32-.73-1.32-.73l26.16-14.21 10.23 5.21z" class="H"/><g class="G"><path d="M169.54 152.36c-1.58-.99-11.5-3.94-12.21-3.82-2.18.36-1.74 1.91-.14 3.02a29.6 29.6 0 0 0 5.9 2.93s7.57-1.43 6.45-2.13z"/><path d="M173.54 153.98c-1.59-1.01-7.24-2.67-9.08-1.19l-6.04 4.84-8.71 4.22s3.47 3 12.31 6.14l5.61-5.54s5.36-2.19 6.14-2.8c3.26-2.52 3.72-3.18-.23-5.68z"/></g><path d="M169.44 152.43l-7.67 6.95 12.65-4.82s-.77-1.05-4.98-2.13z" class="C"/><g class="B"><path d="M172.03 154.57l-.48-.04c-.72-.05-1.22-.42-1.11-.82l.23-.85c.11-.4.79-.68 1.51-.63l.48.04c.72.05 1.22.42 1.11.82l-.23.85c-.11.4-.79.68-1.51.63zm-4.33 9.03c-.52-.19-1.46-.49-1.84-.77-.33-.2-1.6-.94-1.83-.75-.25.19.45.72.97 1.06-.54.02-1.33.14-1.68.27-.37.14-.49.34-.28.49-.34.17-.38.31-.32.4.13.22.57.2 1.04.04-.2.14-.38.22-.46.34-.05.08-.03.22.06.3s.39.05.58 0a5.7 5.7 0 0 0 .66-.26c.1-.05.04-.01.17-.04l.69.31c.29.13.86.08 1.26.01 1.34-.23 1.48-1.19.99-1.37z"/></g><g fill="#1c1c1c"><path d="M163 163.91c-.01 0-.02 0-.02-.01-.02-.01-.01-.03.01-.04.82-.36 1.92-.33 1.97-.33.03 0 .06.02.05.03s-.03.03-.06.03c-.01 0-1.1-.03-1.89.31-.02.01-.04.01-.06 0zm.84.39c-.01 0-.01 0-.02-.01-.02-.01-.01-.03.01-.04a3.3 3.3 0 0 1 1.14-.23c.03 0 .06.01.06.03s-.03.03-.06.03c-.01 0-.58.01-1.07.22-.02.01-.04.01-.06 0z"/></g><path d="M177.29 156.68c2.35 2.26 2.66 7.48-.56 8.24-3.58.85-9.2.42-9.2.42s-1.16-1.57-.72-2.21l6.82-.29c.73-.63-1.82-3.87-1.82-3.87l3.02-4.01c0 0 1.53.82 2.46 1.72z" class="G"/><path d="M170.33 153.99l1.13.35s-.34.48-.78.4-1.09-.28-.84-.66.48-.09.48-.09z" class="H"/><path d="M174.29 152.43c-.37-.01-.65-.14-.64-.29s.39-.26.69-.26c.37.01.65.14.63.29s-.33.27-.69.26z" class="C"/><mask id="B" maskUnits="userSpaceOnUse" x="161" y="152" width="12" height="8"><path d="M168.79 152.98l-7.06 6.44 10.88-4.15-3.82-2.29z" class="C"/></mask><g mask="url(#B)" class="H"><path d="M170.27 154.2s-10.33 3.85-13.78 6.74l-.59 1.94 3.36-.49s2.21-2.54 11.77-7.81l-.77-.37z"/></g><path d="M170.81 152.64a3.8 3.8 0 0 0 2.55.44s-1.79.5-2.8.18c0 0 .12-.49.25-.62z" class="F"/><path d="M170.15 151.64c.5-.76 1.75-1.32 2.69-1.74a4.1 4.1 0 0 1 2.01-.41c1.25.08 2.87.62 2.81 1.45-.05.7-.84 1.28-1.83 1.66-.77.29-1.4.6-2.31.65-1.04.06-2.08-.25-2.71-.62-.44-.25-.85-.71-.66-.99z" class="B"/><g class="E"><path d="M175.02 150.85c-.23-.22-.55-.4-.92-.54l.06-.05c.38.14.71.33.95.56l-.09.03zm-1.92-1.23l.07-.05c.31.13.42.33.53.51l-.1.02c-.1-.17-.21-.36-.49-.48zm-1.13 1.53c-.06-.03-.11-.06-.12-.1-.01-.07.09-.12.16-.16l.18-.09.86-.38.04.04a14.9 14.9 0 0 0-.86.38l-.19.09c-.06.03-.14.07-.13.12.01.02.04.05.08.07.14.07.3.13.47.18l-.03.04a2.5 2.5 0 0 1-.49-.18zm.37-.91c-.11.06-.15.14-.09.17s.2.03.31-.03.15-.14.09-.18-.2-.02-.31.03z"/><path d="M173.64 150.82c-.11.06-.15.14-.09.18s.2.02.31-.03.15-.14.09-.18-.2-.02-.31.03z"/></g><path d="M172.6 148.87l.03-.05c.23-.27.81-.45 1.31-.37l.5.09c.48.07 1-.07 1.5-.05.93.05 1.17.66 1.68 1l.76.48c.38.26.69.56.8.89.18.56-.27 1.16-.98 1.58s-2.39.84-4.33.79c.82-.3 1.92-.82 2.12-1.21.02-.04.24.06.24.01 0-.05-.02-.11-.05-.16-.08-.16-.16-.32-.35-.44-.16-.1-.4-.16-.5-.28-.13-.15 0-.34.19-.47.16-.11.38-.24.28-.37-.14-.17-.65-.06-.89-.19-.08-.04-.12-.1-.17-.16-.11-.12-.27-.24-.49-.31-.18-.05-.39-.06-.58-.02-.28.05-.47.02-.74-.06-.47-.15-.51-.44-.33-.71z" class="F"/><path d="M175.46 151.95c.37-.12.84-.07 1.05.06.3.2.17.48-.07.66-.22.17-.49.28-.86.34-.34.05-.88.04-1.11-.12-.16-.11-.07-.29.06-.39" class="B"/><g class="E"><path d="M175.46 151.95l-.03-.04h.01c.09-.02.28-.06.5-.05.28.01.51.08.68.22l-.07.03c-.38-.3-.91-.19-1.09-.15h-.01z"/><path d="M175.38 152.45v-.05l.82-.01v.05l-.82.01z"/></g><g class="N"><path d="M171.76 149.98c.33-.22.84-.27 1.12-.13s.24.43-.09.65-.84.28-1.12.13-.24-.43.09-.65zm.05.03c-.31.2-.36.46-.1.59s.71.07 1.02-.13.35-.46.1-.59-.71-.07-1.02.13zm1.35.67c.37-.24.93-.3 1.24-.15s.27.48-.1.71-.93.31-1.24.15-.27-.48.11-.71zm.05.02c-.35.22-.4.52-.11.66s.8.08 1.15-.15.4-.52.11-.66-.8-.08-1.15.15z"/><path d="M173.21 150.68l-.43-.22-.04.03.43.22.04-.03zm2.31 1.21c-.01 0-.02 0-.04.01l-1.23-.63.04-.03 1.27.65h-.04z"/></g><g class="E"><path d="M174.7 153c.05.03.1.04.1.04l.03-.03s-.15-.05-.2-.12l-.06.01c.03.04.08.07.13.09zm-3.11-1.39c-.17-.09-.21-.19-.21-.2l.1-.01c0 .01.13.29.88.33l-.01.06c-.39-.02-.62-.09-.77-.18z"/></g><g class="Q"><path d="M170.83 154.16l-.27-1.51-1.37-.3-.23 1.81 1.87.01zm.01-.02l3.03-.12.97.76-3.94.49-.05-1.14z"/></g><path d="M172.25 148.59l1.65.88c-.24.13-.55-.07-.55-.07l-1.1-.81z" fill="#f9947d"/><g class="B"><path d="M173.42 149.43c-.19-.17-.43-.35-.67-.53-.42-.32-.94-.5-1.29-.67-.48-.23-2.79-.33-2.79-.33l-2.56-.06.02 1.24 2.92-.17c.07.05.16.1.26.14 1.12.45 2.9-.1 3.22.19s1.03.79 1.4.72c.05-.01-.29-.33-.5-.52z"/><path d="M171.89 148.77l.65.36c.18.13.43.36.6.53s.26.34.22.35c-.26.1-.69-.23-1.06-.46l-.71-.48.29-.3z"/><path d="M171.4 148.94c0 0 .54.32.67.45.33.33.31.48.23.48-.33 0-.74-.36-.85-.45-.27-.21-.77-.32-.77-.32l.71-.16z"/></g><path d="M168.44 147.67s-11.67.12-12.43 1.41c-.78 1.34 6.11 1.09 4.68 1.36-.55.1 7.73-1.23 7.86-1.25 0 0 .4-.26.33-.68-.09-.58-.45-.83-.45-.83z" class="G"/><path d="M161.32 150.45c-.01-.01-.02-.02-.02-.03 0-.03.04-.05.09-.05.89.02 1.69-.33 1.7-.33.04-.02.09-.01.12.01s.02.05-.02.07-.86.38-1.81.35c-.02 0-.05-.01-.06-.02z" class="H"/><path d="M127.04 176.44l2.79 1.1-2.6 1.26-2.42-1.27 2.23-1.09z" class="B"/><path d="M131.79 178.21l-.48-.22-5.52 3.23c-.27.16-.67.23-1.07.19l-.06.02.77.36c.03.01.07.02.1.02h.04c.24 0 .48-.06.64-.15l5.61-3.28c.08-.05.07-.12-.02-.16z" fill="#d1d1d1"/><path d="M126.11 178.42l-1.67 2.68c-.07.11.01.24.2.33.25.12.68.08.88-.04l5.8-3.39-2.53-.96s-.24.95-2.68 1.39z" class="D"/><path d="M134.43 153.26c1.47-.68 1.83-1.81.81-2.52s-3.05-.73-4.53-.05-1.83 1.81-.81 2.52 3.05.73 4.53.05z" fill="#b4c2f7"/><path d="M128.95 166.79s-11.8 3.41-13.39 5.88 9.5 6.21 9.5 6.21 1.47-.99 3.03-2.35l-4.44-3.17s11.92-1.86 12.53-4.26c.45-1.78-4.99-3.44-7.23-2.31z" fill="#728cdd"/><path d="M128.35 154.49c-.66.66-2.75.21-2.75.21-2.01 2.73-5.09 5.26-3.33 6.37 2.03 1.29 10.21-.52 10.21-.52l-1.26-2.69-4.9 1.32s-.15-1.31.51-2.51c.41-.75 1.52-2.19 1.52-2.19z" class="C"/><path d="M125.62 154.74l-1.64 2.01c-1.59 1.87-2.97 3.48-1.68 4.3l.08.05c2.03 1.12 9.38-.42 10.03-.56l-1.23-2.63-4.84 1.31c-.02 0-.03 0-.05 0s-.03-.01-.03-.02-.14-1.33.52-2.52a22.3 22.3 0 0 1 1.37-1.99 3 3 0 0 1-1.43.2 8 8 0 0 1-1.1-.13z" class="B"/><path d="M143.97 153.32s1.96.19 2.43 1.49-3.53 4.11-7.21 2.77-.62-6.03 4.78-4.26z" class="F"/><path d="M137.24 160.17l-1.49-.35c-.25-.08-2.46-1.51-2.31-1.99.23-.76 2.13-.35 2.81-.19.12.03.26 0 .32-.06l.71-1.03c.26-.27 1.83-.68 2.33-.53l.52.16c.5.15.11 1-.15 1.26l-.71.86c-.07.07-.04.16.08.22.36.18.94.58.78.7a8 8 0 0 1-2.88.94z" class="B"/><mask id="C" maskUnits="userSpaceOnUse" x="133" y="155" width="8" height="6"><path d="M137.24 160.17l-1.49-.35c-.25-.08-2.46-1.51-2.31-1.99.23-.76 2.13-.35 2.81-.19.12.03.26 0 .32-.06l.71-1.03a4.2 4.2 0 0 1 2.33-.53l.52.16c.5.15.11 1-.15 1.26l-.71.86c-.07.07-.04.16.08.22.36.18.94.58.78.7a8 8 0 0 1-2.88.94z" class="C"/></mask><g mask="url(#C)" class="L"><path d="M136.02 156.01c-.02-.01-.04 0-.05.01s0 .02.01.02.04 0 .04 0 0-.02-.01-.03z"/></g><mask id="D" maskUnits="userSpaceOnUse" x="133" y="155" width="8" height="6"><path d="M137.24 160.17l-1.49-.35c-.25-.08-2.46-1.51-2.31-1.99.23-.76 2.13-.35 2.81-.19.12.03.26 0 .32-.06l.71-1.03a4.2 4.2 0 0 1 2.33-.53l.52.16c.5.15.11 1-.15 1.26l-.71.86c-.07.07-.04.16.08.22.36.18.94.58.78.7a8 8 0 0 1-2.88.94z" class="C"/></mask><g mask="url(#D)" class="L"><use href="#b"/><path d="M137.04 156.03c.02 0 .03-.01.03-.02s-.02-.02-.03-.02-.03.01-.03.02.02.02.03.02zm-.35 0c.02 0 .03-.01.03-.02s-.02-.02-.03-.02-.03.01-.03.02.02.02.03.02z"/></g><mask id="E" maskUnits="userSpaceOnUse" x="133" y="155" width="8" height="6"><path d="M137.24 160.17l-1.49-.35c-.25-.08-2.46-1.51-2.31-1.99.23-.76 2.13-.35 2.81-.19.12.03.26 0 .32-.06l.71-1.03a4.2 4.2 0 0 1 2.33-.53l.52.16c.5.15.11 1-.15 1.26l-.71.86c-.07.07-.04.16.08.22.36.18.94.58.78.7a8 8 0 0 1-2.88.94z" class="C"/></mask><g mask="url(#E)" class="L"><path d="M137.48 156c.01-.01.01-.02-.01-.03s-.03-.01-.05 0-.01.02 0 .03.04.01.05 0zm-.18-.02c.01-.01.01-.02 0-.03s-.04-.01-.05 0-.01.02 0 .03.04.01.05 0zm.04.12c.01-.01.01-.02-.01-.03s-.03-.01-.05 0-.01.02.01.03.03.01.05 0zm.32-.1c.01-.01.01-.02-.01-.03s-.03-.01-.05 0-.01.02 0 .03.03.01.05 0z"/><path d="M137.84 156.08c.01-.01.01-.02-.01-.03s-.03 0-.05 0-.01.02 0 .03.04.01.05 0z"/></g><g class="G"><path d="M137.13 170.05c-12.79-1.11-11.24-5.32-11.24-5.32s.01-.03.02-.03c3.69-2.62 4.41-5.47 4.41-5.47s11.36 4.05 11.18 4.7c-.9 3.19-4.37 6.13-4.37 6.13z"/><path d="M140.33 165.73c-.71.91-8.11-3.13-10.01-5.02-1.56-1.55-.63-2.91-.63-2.91s2.06-.79 6.08-.29c.39.05-.58.33-.8.73-.02.03-.04.07-.05.11-.07.19-.05.4.17.58.04.03.08.06.13.09a2.8 2.8 0 0 0 .81.32 6.6 6.6 0 0 0 .49.11c.06.01.13.02.19.03 2.02.29 3.3-.56 3.3-.56s.46.16 1.14.48c.01 0 .02.01.02.01 1.82.86 2.38 2.3 1.39 3.53l-2.24 2.79z"/></g><path d="M141.7 157.03c-2.09 1.19-4.19.36-4.85-.43s1.46-2.3 3.03-2.69c1.9-.47 3.68-.37 4.34.43s-1.05 1.86-2.52 2.69z" class="B"/><g class="F"><path d="M143.61 153.49s-2.16.88-1.87 3.57c0 0 1.63-.23 2.87-1.05s-1-2.52-1-2.52z"/><path d="M143.43 154.41s-2.66-.22-3.36-.71c0 0 1.71-.39 2.76-.19s1.1.33 1.1.33l-.5.57z"/></g><path d="M141.7 156.97c-.39-.05-.41-.37-.36-.53s.57-.39.89-.35c.39.05.55.27.44.53-.07.16-.58.4-.98.35z" class="B"/><path d="M129.84 153.46l-.24-.15c-1.12-.8-.69-2.06.94-2.79a6.4 6.4 0 0 1 2.95-.51c.84.05 1.57.27 2.05.62 1.12.8.69 2.05-.94 2.79a6.4 6.4 0 0 1-2.94.51c-.71-.04-1.34-.21-1.81-.47zm1-2.74c-1.43.65-1.82 1.73-.86 2.42a3.4 3.4 0 0 0 1.74.53c.89.06 1.83-.11 2.59-.46 1.43-.65 1.82-1.73.86-2.42a3.4 3.4 0 0 0-1.74-.53c-.88-.05-1.83.11-2.59.46z" class="D"/><path d="M115.62 172.18l-1.95 1.59-2.23-1.45 2.24-1.39 1.93 1.24z" class="B"/><path d="M112.49 174.9l.39-.27-5.73-3.07c-.28-.15-.41-.38-.34-.6l-.04-.03-.63.44c-.02.02-.04.04-.03.06v.02c.01.14.1.27.27.36l5.81 3.11c.09.05.22.04.29-.01z" fill="#d1d1d1"/><g class="D"><path d="M112.12 171.69l-4.75-.9a.8.8 0 0 0-.58.12c-.2.14-.13.39.07.5l6.01 3.22 1.7-1.45s-1.68-.12-2.46-1.49zm17.85-18.48l-.08-.06c-.19-.14-.55-.16-.79-.05l-5.14 2.31c-.24.11-.28.31-.09.45l.09.06c.19.14.54.16.79.05l5.14-2.31c.24-.11.28-.31.09-.45z"/></g><path d="M137.18 170.01s-9.53-6.67-14.03-7.28-11.66 8.29-11.66 8.29.56.24 4.21 2.02l7.15-4.72s5.26 3.81 8.74 3.93c3.17.1 5.58-2.23 5.58-2.23z" fill="#8fa2ef"/><path d="M133.4 165.94c-.47-.23-1.32-.59-1.64-.89-.27-.22-1.35-1.05-1.62-.88-.29.18.27.76.7 1.13-.54-.01-1.35.06-1.74.16-.4.11-.57.31-.4.47-.38.15-.45.29-.42.38.08.23.52.24 1.02.11-.23.13-.43.2-.54.31-.08.08-.09.22-.02.3s.38.08.57.03a5.1 5.1 0 0 0 .72-.22c.11-.04.04-.01.18-.03.13.09.53.32.6.36.26.15.83.12 1.25.09.2-.01 1.77-1.11 1.33-1.33z" class="B"/><g class="F"><path d="M128.68 165.96c-.03-.03-.02-.05 0-.06.91-.31 1.98-.21 2.03-.2.03 0 .05.02.04.04s-.04.03-.07.03c-.01 0-1.08-.1-1.95.2-.02.01-.04.01-.06 0zm.72.45c-.03-.03-.02-.05 0-.06.57-.2 1.17-.16 1.19-.16.03 0 .05.02.05.04s-.03.03-.06.03c-.01 0-.58-.03-1.12.15-.02.01-.04 0-.06 0z"/></g><path d="M132.69 165.68s3.65.48 6.3.1c.58-.08.12-3.86.12-3.86l1.98-.18 2.16.03s2.11 4.71-1.14 5.82c-3.46 1.18-9.96-.33-9.96-.33l.54-1.59z" class="B"/><g class="F"><path d="M138.95 165.81c-.01 0-.02-.01-.02-.02-.01-.02.01-.04.05-.04a5 5 0 0 1 1.72.02c.03.01.05.03.03.05s-.05.03-.08.02c-.01 0-.71-.16-1.65-.02h-.05zm-8.13 1.4c-.22-.09-.42-.21-.58-.37-.02-.02-.01-.04.02-.05s.07 0 .08.01c.26.26.6.41 1.01.46.73.08 1.44-.21 1.44-.22.03-.01.06-.01.08.01s.01.04-.01.05-.76.31-1.54.23a2.1 2.1 0 0 1-.51-.12z"/></g><path d="M137.48 160.54s2.63-1.75 4.17-.9c3.01 1.67 2.39 3.38 2.39 3.38s-3.4.71-5.24.01l-1.32-2.5z" class="G"/><g class="B"><path d="M127.48 155.37s1.1-.16 1.36-.72.78-.86.38-1.01-.78 1.01-2.18.9l.44.83zm-2.04-.52a3.1 3.1 0 0 0 1.16.19c.39-.03.46-.26-.15-.42l-.82-.2c-.42-.04-.61.27-.19.43z"/><path d="M125.7 154.54c.25.18.82.45 1.33.51s.79-.2.13-.53l-.9-.44c-.51-.15-.98.17-.57.46z"/><path d="M126.19 154.18c.25.18.81.45 1.33.51s.79-.2.14-.53l-.9-.44c-.51-.15-.98.17-.57.46z"/><path d="M126.66 153.78c.21.15.69.38 1.12.43s.67-.17.11-.45l-.76-.37c-.43-.13-.83.14-.48.39z"/></g><g class="F"><path d="M125.62 160.38c-.02-.01-.02-.03 0-.04.73-.4.65-1.15.65-1.16 0-.02.02-.03.05-.03s.06.01.06.03c0 .03.08.79-.69 1.21-.02.01-.05.01-.07 0zm-2.83 7.98c-.03-.02-.03-.04-.01-.06.86-.77.06-1.8.05-1.81-.02-.02 0-.05.04-.06s.09 0 .11.02c.01.01.21.27.31.64.13.49 0 .92-.38 1.26-.03.02-.08.03-.12.01zm-.66 4.52c-.02-.01-.03-.03-.02-.05.01-.03.06-.04.1-.03s.98.16 1.5.53c.03.02.02.05-.01.07s-.09.01-.12-.01a4.1 4.1 0 0 0-1.42-.5c-.01 0-.03-.01-.03-.01zm19.34-15.96c-.07-.04-.13-.09-.16-.16l.07-.01c.05.09.13.15.25.19.2.06.45.01.45.01l.02.04a1.2 1.2 0 0 1-.51-.01c-.04-.01-.09-.03-.12-.05zm-4.37-.09a2.9 2.9 0 0 0 1.88.63s-1.23.24-2.1-.31l.22-.32zm8.33-.68c.87.48 2.27.47 3.13-.02a.9.9 0 0 0-.02-1.77c-.87-.48-2.27-.47-3.13.02a.9.9 0 0 0 .02 1.77z"/></g><g class="D"><path d="M138.98 155.72l.05-.03-.2-.09c-.08-.04-.13-.09-.13-.15s.04-.11.12-.14l.89-.38-.05-.03-.89.38c-.1.04-.15.1-.15.17s.06.13.16.18l.2.09zm-.08-1.13c-.07.03-.13.08-.17.1-.07.05-.01.12.1.14.2.04.45-.17.22-.25-.06-.02-.11-.01-.16 0z"/></g><path d="M138.03 155.75l1.41.41s-.62.36-1.16.2c-.62-.19-.25-.61-.25-.61z" class="C"/><g class="D"><path d="M141.16 155.35c.02-.05 0-.1-.04-.15s-.09-.1-.17-.13c-.14-.08-.36-.11-.54-.08l.22.08.18.08c.11.06.21.13.34.21zm-1.19-1.04c.03-.04.03-.08.01-.13s-.08-.09-.14-.12-.15-.05-.23-.06h-.12c-.04 0-.08.01-.11.02.03.02.07.03.1.04l.09.03.15.06a1.4 1.4 0 0 1 .26.16zm.23.98s.15.26.55.21z"/></g><g fill="#f4f4f4"><path d="M138.05 154.98c-.05-.03-.09-.06-.13-.09-.31-.26-.19-.61.28-.79.22-.09.49-.12.75-.09s.49.11.64.24.2.28.15.43-.2.28-.43.36c-.4.15-.93.12-1.27-.06zm1.31-.76c-.12-.07-.27-.11-.44-.13-.23-.02-.46 0-.65.08-.4.15-.5.46-.24.68.13.11.32.18.55.2s.46 0 .65-.08.32-.18.37-.31 0-.26-.13-.36c-.03-.03-.07-.05-.11-.08zm.5 1.58a.9.9 0 0 1-.13-.09c-.15-.12-.2-.28-.15-.43s.2-.28.43-.36.49-.12.76-.09.49.11.64.24.2.28.15.43-.2.28-.43.36a1.7 1.7 0 0 1-.75.09c-.2-.02-.37-.07-.51-.15zm1.31-.76c-.12-.07-.27-.11-.44-.13-.23-.02-.46 0-.65.08s-.32.18-.37.31 0 .26.13.37.32.18.55.2a1.4 1.4 0 0 0 .65-.08c.19-.07.32-.18.37-.31s0-.26-.13-.37c-.03-.03-.07-.05-.11-.08z"/><path d="M139.83 155.07l-.35-.16-.09.06.35.16.09-.06zm1.32.75c-.03-.01-.03-.04-.01-.05s.07-.02.1-.01l.7.32c.03.01.04.04.01.06s-.07.02-.1.01l-.7-.32z"/></g><path d="M150.6 189.8l-2.17-1.48-2.02 1.56 2.43 1.26 1.75-1.34z" class="B"/><path d="M147.1 187.27l.43.25-5.27 3.37c-.25.16-.35.4-.25.62l-.04.03-.69-.41c-.03-.02-.04-.04-.04-.06v-.02c-.01-.14.07-.27.22-.37l5.34-3.42c.08-.05.21-.05.29 0z" fill="#aaa"/><path d="M147.19 190.48l-4.6 1.15c-.19.05-.43.01-.59-.08-.22-.13-.19-.38 0-.5l5.53-3.54 1.9 1.35c0 0-1.66.21-2.23 1.62z" class="D"/><path d="M164.84 199.51l-2.71 1.18 2.68 1.18 2.33-1.34-2.3-1.03z" class="B"/><path d="M160.2 201.43l.47-.24 5.73 3.07a1.9 1.9 0 0 0 1.09.16l.06.02-.75.38c-.03.01-.06.02-.1.02h-.04c-.25 0-.48-.05-.65-.13l-5.81-3.11c-.09-.05-.08-.12.01-.17z" fill="#aaa"/><g class="D"><path d="M165.89 201.46l1.84 2.63c.08.11.01.24-.18.33-.24.12-.68.1-.88-.01l-6.01-3.22 2.46-1.04s.3.94 2.76 1.31zm28.84-16.26c.65.36 1.84.27 2.66-.21s.96-1.15.31-1.51-1.84-.27-2.66.21-.96 1.15-.31 1.51z"/></g><path d="M193.33 183.99s-2.32 4.63-6.21 4.51c-2.97-.1-5.4-4.72-5.4-4.72l2.9-1.36 3.46 3.28 3.84-2.48 1.41.77z" class="B"/><path d="M187.22 186.7s.34-.67.85-1l-.85 1z" class="C"/><g class="D"><path d="M187.2 186.76c-.03-.01-.04-.02-.04-.04.01-.03.35-.68.87-1.01.02-.01.06-.02.08 0s.03.03 0 .05c-.5.32-.84.98-.84.98-.01.02-.04.03-.07.02zm7.42-1.63l-1.76-1.51 2.06-1.19 2.65 1-2.95 1.7z"/></g><path d="M169.04 189.28s11.45 3.24 12.62 5.77-13.81 6.66-13.81 6.66-2-.25-4.77-2.5l9.09-3.71s-9.79-2.56-9.18-5.01c.45-1.78 4.02-2.44 6.06-1.21z" fill="#06376d"/><mask id="F" maskUnits="userSpaceOnUse" x="162" y="188" width="20" height="14"><path d="M169.04 189.28s11.45 3.24 12.62 5.77-13.81 6.66-13.81 6.66-2-.25-4.77-2.5l9.09-3.71s-9.79-2.56-9.18-5.01c.45-1.78 4.02-2.44 6.06-1.21z" class="C"/></mask><g mask="url(#F)" class="D"><path d="M172.1 195.54c-.04-.03-.03-.06.01-.07 1.14-.52 2.48-.51 2.54-.51.05 0 .08.02.08.05s-.04.05-.09.05c-.01 0-1.34 0-2.43.49-.03.02-.08.01-.11 0z"/></g><path d="M169.03 189.8s-6.84 7.85-11.17 8.79-11.6-7-11.6-7 1.81-1.61 4.76-2.26l5.67 3.92s3.88-7.1 8.12-7.49c3.14-.29 6.19 2.75 4.23 4.04z" class="H"/><mask id="G" maskUnits="userSpaceOnUse" x="146" y="185" width="24" height="14"><path d="M169.02 189.8s-6.84 7.85-11.17 8.79-11.6-7-11.6-7 1.81-1.61 4.76-2.26l5.67 3.92s3.88-7.1 8.11-7.49c3.14-.29 6.19 2.75 4.23 4.04z" class="C"/></mask><g mask="url(#G)" class="D"><path d="M157.1 195.08c-.03-.01-.03-.04-.02-.05.01-.01.77-.91-.47-1.75-.03-.02-.03-.05.01-.07s.09-.01.12.01c1.3.89.5 1.84.49 1.85-.02.02-.07.03-.11.02-.01 0-.02 0-.02-.01z"/></g><path d="M187.56 185.25s-1.32-6.23-10.99-6.36c-3.91-.05-16.34 9.06-16.34 9.06 6.71 4.9 15 3.38 15 3.38s3.94-2.99 8.47-5.34c.97.06 2.38-.03 3.87-.74z" fill="#8ba5ed"/><g class="B"><path d="M186.31 180.25l.29-2.52-3.06.89-.3.36-1.36.77c-.25.14-.41.33-.42.53-.07.74.87 1.28 1.76 1.37.37.04.76-.04 1.02-.19l2.08-1.2z"/><path d="M190.87 178.61c-.29.81-2.29 2.45-4.29 2.4-1.24-.03-2.73-.86-2.81-1.46-.07-.52 1.66-2.46 3.05-2.53s4.71.54 4.06 1.58z"/></g><g class="D"><path d="M187.01 179.75l.05-.04.22.1c.09.04.2.06.31.05s.19-.05.24-.1l.51-.62.08.02-.51.62c-.06.07-.16.11-.3.13s-.27-.01-.38-.06l-.22-.1zm2.16-.21c-.03.05-.11.09-.16.13-.07.06-.22.03-.29-.03-.12-.11.23-.31.42-.19.05.03.05.06.03.09zm-1.47-.69c-.03.05-.11.09-.16.13-.07.05-.22.03-.29-.03-.12-.11.23-.31.42-.19.05.03.05.06.03.1zm-.03-.77a1 1 0 0 1 .3-.01c.1.01.2.03.29.07.18.07.3.19.28.31l-.2-.12-.19-.09c-.13-.06-.28-.1-.47-.16zm1.84.8c.07-.03.15-.04.24-.03s.18.03.25.06.13.08.16.12c.02.02.02.05.03.07 0 .02 0 .05-.01.07-.04-.02-.06-.03-.09-.05l-.08-.05c-.05-.03-.09-.05-.14-.07-.09-.04-.2-.08-.36-.12z"/><path d="M188.72 177.1s-.08.77-.91.72-.73-.56-.73-.56.11 1.13-1.03 1.07-.59-1.1-.59-1.1l1.3-.63 1.96.49z"/><path d="M188.17 177.37s.34 1.53 3.13 1.56c0 0 2.44 0 1.05-1.43 0 0-.38-.43-1.05-.63 0 0 1.08.22.93-.26s-1.34-.8-2.83-.8c0 0 1-.28.25-.63s-1.98-.35-3.01.33c0 0 .11-.25-.19-.37s-.45.18-.28.36c0 0-.46-.47-.77-.32s.39.44.39.44-2.87.4-2.47 2.25c0 0-1.57.17.23.67 0 0-.6.46.46.37 0 0-.01-.18.92-.63.43-.21 3.26-.9 3.26-.9z"/></g><path d="M185.82 178.5c.03-.16.03-.34-.17-.44-.1-.05-.25-.07-.38-.06-.68.04-1.22.43-1.05.83.07.17.28.31.6.26l.94-.49c.05-.02.06-.06.06-.09z" class="B"/><g class="D"><path d="M184.5 179.05c-.34-.14-.35-.43-.35-.44h.08s.01.36.47.45l-.02.04c-.07-.01-.12-.03-.18-.05zm.9 1.73s-1.34-.44-1.4-1.15c0 0-.73 1.08.59 1.62l.81-.47zm1.08-.54c-.21-.12-.54-.34-.63-.66l.11-.01c.12.43.75.7.76.7l-.07.05c-.01 0-.08-.03-.17-.09z"/><path d="M185.76 179.65l-.08-.04c.17-.1.39-.07.49-.05l-.05.05c-.01 0-.2-.06-.36.03z"/><path d="M191.76 183.7l-4.83-4.1c-.41-.23-.4-.61.02-.85s1.1-.26 1.51-.03l6.66 3.18c.41.23.33 1.08-.09 1.32s-2.87.7-3.28.48z"/><path d="M191.83 183.75c.71.39 2.02.29 2.91-.22s1.05-1.26.34-1.65-2.02-.29-2.91.22-1.05 1.26-.34 1.65z"/></g><g fill="#589bed"><path d="M192.02 183.64c.62.34 1.75.26 2.53-.19s.91-1.09.29-1.44-1.75-.25-2.53.2-.91 1.09-.29 1.43z"/><path d="M194.9 185.1c.56.31 1.6.23 2.31-.18s.83-1 .27-1.31-1.6-.23-2.31.18-.83 1-.27 1.31z"/></g><g class="B"><path d="M189.39 183.32s-8.57 3.97-12.57 3.01c-3.06-.74-2.9-5.31-2.9-5.31l4.21-.7 1.26 3.51s5.89-.64 7.7-1.1c.42-.11.54-.31.54-.31l1.76.89z"/><path d="M188.23 181.2c.35-.27.8-.52.98-.39.12.09-.29.47-.36.68a7.6 7.6 0 0 1 1.08-.56c.41-.17 1.05-.27 1.33-.16.37.14-.45.36-.45.36.94-.24 1.97.15.71.23.88-.02 1.09.29.65.32l-.36.03c.01 0 .46.04.38.18-.08.15-.34.1-.88.32-1.11.44-.06.61-1.95 1.13l-1.42-.53-.31-.3-.04-.11c.05-.15.11-.31.14-.45.05-.31.21-.52.51-.74z"/><path d="M190.82 181.99c.36-.18.62-.31 1.21-.31.61 0 .46-.35-.42-.33l-.79.64zm-2.29-.26s.42-.32 1.4-.79c.45-.21 1.18-.22 1.33-.16.21.08.03.22-.49.37s-.9.37-.9.37l-1.35.21z"/></g><path d="M188.47 181.75c-.03-.02-.03-.04-.01-.06s.44-.33 1.42-.79a2.6 2.6 0 0 1 1.43-.16c.11.04.12.09.12.13-.01.1-.22.21-.61.32-.5.14-.87.35-.88.36-.03.02-.08.02-.11 0s-.03-.04 0-.06c.02-.01.39-.22.92-.37.38-.11.52-.2.53-.25 0-.01 0-.03-.05-.05-.11-.05-.81-.05-1.24.16-.97.45-1.39.78-1.39.78-.03.02-.07.02-.11.01z" fill="#111"/><path d="M190.44 181.71s.32-.29 1.08-.34c1.26-.08.18-.48-.71-.23l-.37.57z" class="B"/><path d="M190.38 181.74c-.03-.01-.03-.04-.01-.05.01-.01.35-.31 1.13-.36.37-.02.49-.07.5-.1.01-.02-.03-.03-.04-.04-.17-.08-.67-.13-1.13-.01-.04.01-.08 0-.1-.02s0-.05.04-.06c.52-.15 1.09-.08 1.3.02.11.05.11.11.09.14-.05.08-.26.14-.63.16-.7.05-1.02.32-1.02.32-.02.02-.07.03-.11.01z" fill="#111"/><g class="B"><path d="M189.37 183.34c1.89-.52.89-.66 1.95-1.14.49-.22.8-.17.88-.32.08-.14-.45-.18-.45-.18l-2.37 1.63zm-1.77-.88s.07-.2.12-.51.21-.52.51-.74c.35-.27.8-.52.98-.39.13.1-.35.47-.36.66l-1.25.98z"/></g><path d="M188.49 181.74c-.02-.01-.02-.03 0-.04l.37-.27c.02-.01.05-.01.07 0s.03.03.01.04l-.37.27c-.02.01-.05.01-.07 0z" fill="#111"/><path d="M178.16 184.57c-.02-.01-.03-.03-.02-.04.2-.44 1.15-.7 1.19-.71s.09 0 .1.02 0 .05-.04.06c-.01 0-.92.26-1.1.66-.01.02-.05.04-.09.03-.01 0-.03-.01-.03-.01z" class="D"/><path d="M173.55 183.24s-.27-3.88 2.79-3.86 2.94 3.03 2.94 3.03-1.78.53-5.73.83z" fill="#8ba5ed"/><path d="M190.62 179.66l-.21-.01 2.3 1.28c-.04-.97-1.53-1.21-2.09-1.26z" class="D"/><path d="M136.12 159.6l-.13-.03-1.22 1.76.13.03 1.22-1.76z" fill="#f9f9f9"/><path d="M163.72 185.47c3.7-2.65 7.11-4.5 9.31-5.57 1.26-.62 2.96-1.29 4.88-1.03l-.03.06c-1.87-.26-3.54.41-4.78 1.01-2.2 1.08-5.6 2.92-9.3 5.56l-.08-.04z" fill="#0c0c0c"/><g fill="#080435"><path d="M165.28 168.54c-.01 0-.01-.01-.02-.02-.01-.02.01-.04.04-.04.81-.13 1.39-.37 1.4-.37.03-.01.07-.01.08.01s.01.04-.01.05-.6.25-1.44.39c-.02 0-.04 0-.06-.01z"/><path d="M165.55 168.89c-.01-.01-.02-.01-.02-.02 0-.02.02-.04.06-.05.69-.05 1.58-.44 1.58-.44.03-.01.08-.01.1.01s.02.04-.01.06c-.04.02-.93.4-1.65.46-.02 0-.04 0-.06-.01z"/></g><path d="M195.77 171.52s3.16 3.12 5.36 2.56c3.83-.98 5.33-5.13 5.33-5.13l-1.45-1.21-4.53 2.85c-.08-.05-1.29-1.05-1.29-1.05l-3.42 1.97h0z" class="B"/><path d="M199.88 171.57c-.02 0-.04 0-.06 0-.04-.01-.06-.04-.05-.06 0-.01 0-.03 0-.05 0-.15 0-.51.64-.9.03-.02.08-.02.11 0s.03.05 0 .07c-.6.36-.6.69-.6.84 0 .04 0 .06-.01.08-.01.01-.02.02-.04.03z" fill="#31313c"/><path d="M209.88 172.77l-.03-.03-2.75-2.33-5.97-5.05c-.3-.26-.23-.59.15-.74.18-.07.41-.1.64-.07s.45.1.62.21l6.85 4.6 3.11 2.09-2.58 1.31-.04.02z" fill="#b3c3f6"/><path d="M209.7 172.84l-.08-.01-3.64-3.06c.13-.41.47-.76 1.04-.99.47-.19 1.02-.27 1.6-.25l4.33 3-3.24 1.31z" fill="#8aa5ee"/><path d="M212.25 172.97c.91-.37 1.17-1.05.58-1.52s-1.81-.55-2.72-.19-1.17 1.05-.58 1.52 1.81.55 2.72.19z" class="D"/><path d="M212.04 172.79c.73-.29.93-.84.46-1.21s-1.45-.44-2.17-.15-.93.84-.46 1.21 1.45.44 2.18.15z" fill="#589cf0"/><g class="B"><path d="M207.86 167.56c-.17.12-.56.29-.9.32s-.52-.16-.08-.38l.61-.28c.35-.09.65.15.37.34z"/><path d="M207.49 167.34c-.13.18-.48.49-.9.61s-.78-.07-.37-.44c.18-.17.41-.41.56-.49.37-.19.93.02.71.32z"/><path d="M206.9 167.08c-.13.19-.48.49-.9.61s-.78-.06-.37-.44c.18-.17.41-.41.56-.49.37-.2.93.01.71.32z"/><path d="M206.3 166.82a1.6 1.6 0 0 1-.76.52c-.35.1-.66-.06-.32-.37.15-.14.35-.35.47-.41.31-.16.78.01.6.27z"/></g><g class="K"><path d="M194.44 170.79l1.45 1.19c.24.19.72.23 1.03.07l3.45-1.72c.25-.13.31-.34.13-.5l-2.04-1.87-4.02 2.84zm-10.16-4.04l-2.96-.16c-.37-.02-.64-.21-.59-.42l.71-2.76c.05-.2.37-.35.72-.33l4.12.21-2 3.47z"/></g><g fill="#0a1726"><path d="M161.49 159.62l-.01-.03 7.06-1.11.25-.74.88.49 4.15-2.71.04.02-4.19 2.73-.85-.47-.24.7-7.09 1.12zm-.14-.07l2.04-3.69.99.1-.6-.78.01-.01 4.73-2.78.04.02-4.71 2.78.63.81-1.04-.11-2.03 3.66-.05-.01z"/></g><path d="M173.22 183.42l-.01-.03c-.48-.99.44-2.72.45-2.74l.1.02c-.01.02-.91 1.7-.46 2.68l1.42-.1.01.06-1.51.11z" class="D"/></g><path d="M232.3 141.33l-17.55-10.14c-.32-.19-.28-.51.09-.72s.93-.24 1.25-.05l17.55 10.14c.32.19.28.51-.09.72a1.4 1.4 0 0 1-1.25.05z" class="J"/><path d="M214.61 131.06c.05-.07.12-.14.23-.2.37-.21.93-.24 1.25-.05l17.55 10.15c.06.04.1.08.13.13.13-.19.1-.39-.13-.52l-17.55-10.14a1.4 1.4 0 0 0-1.25.05c-.3.17-.37.41-.23.6zm-4.43-3.52c-1.05.61-2.76.6-3.82-.01s-1.06-1.6-.01-2.21a4.2 4.2 0 0 1 3.82.01c1.06.62 1.06 1.6.01 2.21z" class="M"/><path d="M209.48 127.12c-.66.38-1.75.38-2.41 0s-.67-1.01-.01-1.39 1.75-.38 2.41 0 .67 1.01.01 1.39z" fill="#516f83"/><path d="M213.82 129.95a3 3 0 0 1-2.7 0 .8.8 0 0 1-.01-1.56c.74-.43 1.95-.43 2.7 0a.8.8 0 0 1 .01 1.56z" class="J"/><path d="M275 89.46l-4.54 1.94-71.25-41.24c-5.66-3.28-15.64-2.86-22.18.92l-146.52 84.8c-.29.17-.55.34-.81.51l-4.6-1.35v2.44h.01c.04 2.05 1.29 4.01 3.81 5.46l71.97 41.65c5.66 3.28 15.64 2.86 22.18-.92l146.52-84.8c3.52-2.04 5.34-4.65 5.39-7.14h.02v-2.28z" fill="url(#M)"/><path d="M100.89 182.73l-71.97-41.74c-5.66-3.28-4.95-9.07 1.59-12.87l146.52-84.98c6.54-3.79 16.52-4.21 22.18-.92l71.97 41.74c5.66 3.28 4.94 9.07-1.59 12.86L123.07 181.8c-6.54 3.79-16.52 4.21-22.18.92z" class="O"/><path d="M269.6 95.99L123.06 181c-6.54 3.79-16.52 4.21-22.18.92L28.9 140.17c-2.39-1.39-3.63-3.23-3.79-5.17-.17 2.24 1.07 4.4 3.79 5.98l71.98 41.76c5.66 3.28 15.64 2.87 22.18-.92L269.6 96.8c3.77-2.19 5.6-5.04 5.38-7.7-.18 2.42-1.99 4.92-5.38 6.89z" class="P"/><path d="M270.34 92.6c-.75 1.16-1.96 2.26-3.61 3.22l-35.74 20.63-45.47 26.25-64.54 37.27c-5.48 3.17-13.83 3.52-18.58.77l-65.88-38.04-4.96-2.86c-4.74-2.75-4.14-7.57 1.34-10.74l21.9-12.65L96.13 92.6l56.62-32.7 25.89-14.94c5.48-3.17 13.85-3.51 18.59-.77l27.22 15.72 43.61 25.18c3.31 1.92 4.02 4.85 2.28 7.52z" class="J"/><path d="M269.58 91.91c-.13.22-.29.4-.46.62-.64.81-1.57 1.56-2.76 2.26l-37.4 21.67-5.17 2.99-40.31 23.34-6.93 4.01-33.6 19.45-22.31 12.92c-2.71 1.58-6.32 2.49-9.94 2.49-2.92 0-5.61-.62-7.49-1.72l-14.76-8.54-49.41-28.62-6.65-3.83c-1.72-1.01-2.63-2.29-2.63-3.69 0-1.81 1.46-3.67 3.97-5.15l23.61-13.66 41.29-23.92L103 90l52.27-30.27 7.47-4.33 16.68-9.66c2.7-1.6 6.34-2.48 9.96-2.48a17.2 17.2 0 0 1 5.52.83 9.3 9.3 0 0 1 1.99.86l25.49 14.78 10.94 6.34 34.35 19.89c1.43.83 2.3 1.85 2.56 2.95.24.97 0 2-.66 2.99z" class="M"/><path d="M262.15 93.12c-.12.21-.27.38-.43.58-.6.76-1.48 1.46-2.59 2.12l-35.18 20.34-4.86 2.8-37.92 21.9-6.51 3.77-31.61 18.25-23.58 13.63c-2.54 1.48-5.95 2.34-9.35 2.34-2.75 0-5.28-.59-7.05-1.62l-13.89-8.02-46.48-26.86-6.26-3.6c-1.62-.95-2.48-2.15-2.48-3.46 0-1.7 1.38-3.44 3.73-4.83l24.8-14.32 38.84-22.45 4.11-2.37 49.17-28.41 7.03-4.06 15.69-9.07c2.54-1.5 5.96-2.32 9.37-2.32a16.2 16.2 0 0 1 5.19.77c.69.21 1.31.48 1.87.81L204.92 56l-.25 7.11 24.36 14.09 10.55-.65 20.78 11c1.34.77 2.17 1.74 2.41 2.77a3.5 3.5 0 0 1-.62 2.8z" fill="#fff55b"/><g clip-path="url(#Q)"><rect width="98.96" height="186.5" rx="9.36" transform="matrix(.8748 .4845 -.8662 .4997 186.545 41.4023)" class="C"/><g clip-path="url(#R)" class="E"><path d="M254.23 84.08c.02.07-.07.13-.19.14l-3.32.24c-.28.02-.52-.11-.49-.27l.35-1.88c.01-.07.13-.12.25-.11a6 6 0 0 1 2.23.64c.83.46 1.09 1 1.17 1.25z"/></g><g class="E"><path d="M258.12 85.76c.2 0 .3.13.16.22l-2.47 1.43c-.18.1-.46.1-.64.01l-2.5-1.38c-.14-.08-.04-.22.16-.22l5.29-.05zm3.92 2.23l.24.13c.13.07.13.2 0 .27l-2.38 1.37c-.13.08-.35.08-.48 0l-1.44-.8c-.13-.07-.13-.19 0-.27l2.38-1.37c.13-.08.35-.08.48 0l.24.13.32-.18.96.53-.32.18z"/><path opacity=".6" d="M188.2 47.32l-2.38 1.37-.4-.22 1.91-1.1-.78-.21.32-.19 1.27.32.05.03zm.37 2.54l-.31.18-1.6-.89.27-.15 1.62-.05.45-.03c.12-.01.21-.03.29-.05s.14-.05.2-.08c.07-.04.13-.09.15-.14s.03-.1.01-.15-.07-.09-.15-.14c-.09-.05-.18-.08-.28-.09s-.2-.01-.29.02-.19.06-.27.11l-.4-.22c.14-.08.3-.13.47-.17s.36-.03.55 0 .37.09.54.18c.16.09.27.18.33.27s.07.18.03.27-.12.17-.26.25c-.07.04-.16.08-.26.11a2.3 2.3 0 0 1-.32.07l-.37.04-.42.02-1.08.04 1.1.61zm.22.25c.06-.04.13-.05.22-.05s.16.02.23.06.11.08.11.13-.03.09-.09.12-.13.05-.22.05-.16-.02-.23-.06-.11-.08-.11-.13.03-.09.09-.12zm1.39-.8c.06-.04.13-.05.22-.05s.16.02.23.06.11.08.11.13-.03.09-.09.12-.13.05-.22.05-.16-.02-.23-.06-.11-.08-.11-.13.03-.09.09-.12zm1.1.86l.24.13c.09.05.18.08.28.1s.18.02.27 0 .16-.04.23-.09.13-.09.15-.13.03-.09 0-.14-.08-.09-.16-.14c-.07-.04-.15-.07-.23-.08s-.17-.02-.25-.01-.16.04-.23.08l-.4-.22c.13-.07.27-.12.44-.14s.33-.01.5.02.33.09.48.17c.16.09.26.17.33.27s.08.19.05.28-.13.18-.27.27c-.07.04-.15.07-.25.09s-.21.03-.33.03-.24-.02-.37-.05-.25-.08-.38-.15l-.3-.16.22-.13zm-.31.18l.22-.12.3.16c.14.08.24.15.31.23s.1.15.11.21-.01.13-.06.19-.11.11-.19.16c-.11.06-.23.11-.36.14s-.25.04-.39.03-.26-.03-.39-.06-.25-.09-.36-.15c-.1-.06-.19-.12-.25-.19s-.11-.14-.13-.21a.3.3 0 0 1 .03-.22c.04-.07.12-.14.23-.2l.4.22c-.07.04-.12.09-.14.14s-.01.1.02.15.09.1.17.14.17.08.26.09.18.02.27 0 .18-.05.26-.09c.09-.05.15-.11.17-.16s.01-.11-.03-.16-.1-.11-.19-.16l-.24-.13zm3.34 1.48l-.39.22a2.8 2.8 0 0 1-.53.24c-.17.06-.32.09-.47.1a1.5 1.5 0 0 1-.43-.03c-.13-.03-.26-.08-.38-.14-.09-.05-.17-.11-.23-.17s-.09-.12-.1-.19 0-.13.03-.21.1-.15.19-.23a2.2 2.2 0 0 1 .36-.25l.39-.22c.19-.11.36-.19.53-.24s.32-.08.47-.09.29 0 .42.03.26.08.38.15c.09.05.17.11.23.17s.1.12.11.18 0 .13-.03.2-.09.15-.18.22-.21.16-.35.25zm-.84.04l.5-.29c.09-.05.17-.11.23-.15s.11-.09.13-.13.05-.08.04-.12-.01-.07-.04-.1a.4.4 0 0 0-.11-.09c-.06-.03-.13-.06-.2-.07s-.15-.01-.23 0-.18.04-.28.07-.21.09-.33.16l-.5.29a2 2 0 0 0-.24.15c-.06.05-.11.09-.14.14s-.05.08-.05.12.01.07.04.1.06.06.11.09c.06.03.13.06.2.07s.15.01.24 0a1.3 1.3 0 0 0 .28-.08c.1-.04.21-.09.33-.16z"/></g><g clip-path="url(#S)"><g class="I"><path d="M166.98 115.44l-2.5.5-.28-.16.83-1.43.34.19-.55.9a1 1 0 0 1-.09.11l-.09.11.02.01.2-.05.2-.05 1.59-.33.33.18zm-2.26.38l-1.08.63-.31-.17 1.08-.62.31.17zm-.69-2.06l.34.21c.11.07.22.15.32.24l-.26.12-.33-.19-.35-.2-.24-.12c-.07-.03-.13-.05-.2-.06s-.13 0-.2.02-.15.06-.24.11c-.14.08-.21.15-.22.21 0 .06.04.13.12.2l.37.35c.14.13.19.25.14.36-.04.11-.16.21-.36.33-.15.08-.28.14-.41.18s-.24.05-.35.04-.23-.04-.35-.09l-.4-.19-.31-.18a3.6 3.6 0 0 1-.39-.28l.26-.12.32.2.22.13.19.11c.13.07.23.12.33.15s.18.04.27.02.19-.06.31-.12c.1-.06.16-.11.19-.15s.04-.08.02-.13-.05-.09-.11-.14l-.38-.36c-.13-.12-.18-.24-.14-.35s.16-.21.35-.33c.15-.08.28-.14.4-.18s.24-.05.35-.04.23.04.34.09l.38.19z"/><path d="M162.05 112.71c.03.02.04.04.05.06s0 .04-.02.06l-1.65 1.85-.32-.18 1.43-1.55.07-.08.07-.07-.1-.06-.13.04-.13.04-2.71.84-.33-.18 3.23-.97c.03-.01.07-.02.11-.01s.07.01.1.03l.33.18zm-1 1.09l-.28.16-1.25-.69.28-.16 1.25.69zm-1.51-2.48l.36.2.35.2.33.2-.27.14-.99-.55c-.07-.04-.15-.06-.22-.06s-.15.03-.23.08l-1.5.87c-.09.05-.13.09-.14.14s.03.08.1.13l.99.55-.23.15-.36-.18-.36-.2-.36-.2c-.15-.08-.22-.17-.23-.26s.06-.18.19-.26l1.66-.95c.14-.08.29-.12.45-.11s.32.04.46.12zm-1.48.39l1.31.73-.26.15-1.31-.73.26-.15z"/></g><g class="E"><path d="M194.41 126.87c.26.14.4.28.42.4s-.06.24-.26.35c-.16.09-.31.15-.47.16s-.3-.02-.45-.1l-1.02-.56.24-.14.94.52c.08.04.16.06.23.04s.15-.05.22-.09c.11-.07.16-.13.15-.2s-.1-.14-.26-.22c-.13-.07-.25-.11-.36-.13s-.23-.01-.35.03c-.12.04-.27.11-.43.2-.19.11-.32.2-.38.28s-.07.15-.03.22.13.14.27.21l.31.16.33.15-.18.14c-.08-.02-.16-.05-.26-.08l-.28-.12-.24-.12c-.2-.11-.33-.22-.39-.32s-.05-.21.03-.32c.09-.11.24-.23.47-.36.23-.13.45-.23.63-.27.19-.05.38-.05.55-.02s.36.1.54.2z"/><path d="M193.25 125.69l-1.82 1.05c-.09.05-.13.09-.13.13s.04.09.13.13l.26.15-.2.16-.16-.06-.16-.07-.12-.06c-.15-.08-.21-.17-.21-.26s.09-.18.24-.27l1.86-1.07.3.17zm.03.61l-.25.14-1.17-.65.23-.13.36.18.83.46z"/><path d="M191.19 125.09c.13.07.22.14.27.21s.07.14.03.21-.13.15-.27.23l-1.26.72-.24-.13.34-.25.02-.03.83-.48c.11-.06.16-.12.16-.18s-.07-.12-.2-.2l-.36-.18-.44-.2.2-.15.31.12.33.15.29.15zm-.27.67l-.24.13-.84-.46c-.09-.04-.17-.06-.25-.06s-.15.03-.23.07l-.11.07c-.09.05-.14.1-.14.15s.05.1.14.15c.07.04.15.07.26.1s.24.06.38.07a3.2 3.2 0 0 0 .44.01l-.23.13c-.06.01-.14.01-.24.01a3 3 0 0 1-.31-.02 1.9 1.9 0 0 1-.33-.06c-.11-.03-.21-.07-.3-.12-.1-.06-.18-.12-.22-.18s-.04-.13-.02-.2.1-.13.21-.19l.19-.11c.14-.08.29-.12.45-.12s.32.05.47.13l.89.49zm-2.01-1.94a1.3 1.3 0 0 1 .29.22c.08.08.14.17.18.26l-.21.1-.22-.21c-.07-.06-.15-.12-.25-.17s-.2-.09-.3-.1c-.09-.01-.2 0-.33.04s-.27.11-.45.21-.3.19-.37.26-.09.14-.07.19.08.11.17.16a1 1 0 0 0 .21.09c.08.02.17.03.27.05l.38.03-.19.14a3.3 3.3 0 0 1-.55-.05c-.18-.03-.35-.09-.49-.16-.22-.12-.3-.25-.23-.4s.25-.3.56-.48c.23-.13.44-.23.62-.28a1.3 1.3 0 0 1 .51-.05c.16.02.31.07.46.15zm1.64.08l-2.56 1.48-.24-.13.28-.2-.01-.03 1.22-.71.08-.02a2.3 2.3 0 0 1 .18-.12l.2-.12.55-.32.3.17zm-2.84-.69l-1.78 1.03-.3-.17 1.78-1.03.3.17zm.68-.48c.06.04.06.07 0 .11l-.21.12c-.06.04-.13.04-.19 0l-.14-.08c-.06-.03-.06-.07 0-.11l.21-.12c.06-.04.13-.04.19 0l.14.08zm-2.42-.53c.12.06.21.14.29.22s.14.17.18.26l-.21.1-.22-.21c-.07-.06-.15-.12-.25-.17s-.2-.09-.3-.1-.2 0-.33.04-.27.11-.45.21-.3.19-.37.26-.09.14-.07.19.08.11.17.16c.07.04.14.07.21.09s.17.03.27.05l.38.03-.19.14c-.19 0-.37-.02-.56-.05s-.35-.09-.49-.16c-.22-.12-.3-.25-.23-.4s.25-.3.56-.48c.23-.13.44-.23.62-.28s.35-.07.51-.05.31.07.46.15zm1.64.08l-2.56 1.48-.24-.13.28-.2-.01-.03 1.22-.71.08-.02a2.3 2.3 0 0 1 .18-.12l.2-.12.55-.32.3.17z"/><use href="#c"/><path d="M182.18 120.09c.13.07.22.14.27.21.06.07.07.14.03.21s-.13.15-.27.23l-1.26.72-.24-.13.34-.25.02-.03.83-.48c.11-.06.16-.12.16-.18s-.07-.12-.21-.2l-.36-.18-.44-.2.2-.15.31.12.32.15.29.15zm-.27.67l-.24.13-.84-.46c-.09-.04-.17-.06-.24-.06s-.15.03-.23.07l-.11.07c-.09.05-.14.1-.14.15s.05.1.14.15a1.3 1.3 0 0 0 .26.1 2.4 2.4 0 0 0 .38.07c.14.02.29.02.44.01l-.23.13c-.06 0-.14.01-.24.01a3 3 0 0 1-.31-.02c-.11-.01-.22-.03-.33-.06a1.4 1.4 0 0 1-.3-.12c-.1-.06-.17-.12-.22-.18s-.05-.13-.02-.2c.03-.07.1-.13.21-.19l.19-.11c.14-.08.29-.12.45-.12a1 1 0 0 1 .47.13l.89.49z"/></g><path d="M180.97 118.59l.26.15c.07.05.13.09.18.13l.16.13-.28.12-.18-.12-.18-.11-.24-.14c-.16-.09-.32-.14-.47-.16s-.33.01-.52.07-.41.17-.66.32-.44.27-.55.38-.15.21-.12.3.12.18.28.26l.39.21.34.15-.21.16a3.3 3.3 0 0 1-.38-.14c-.12-.05-.26-.12-.43-.21-.24-.13-.38-.26-.44-.39-.05-.13-.02-.26.11-.41s.35-.31.68-.49a4.1 4.1 0 0 1 .86-.39c.25-.08.49-.1.72-.07s.46.11.7.24z" class="I"/><g class="E"><path d="M178 118.67l-.24.14-1.09-.6.24-.14 1.09.6zm-1.37-1.59l-.3.22-.03.05-1.39.8-.3-.17 1.78-1.03.24.13zm.9.45l-.33.15-.1-.06c-.1-.06-.23-.1-.37-.13l-.55-.1.17-.13a4.3 4.3 0 0 1 .64.07c.19.04.35.09.47.16l.08.04zm-2.29-1.27c.26.14.4.28.42.4s-.06.24-.26.35a1.1 1.1 0 0 1-.47.16c-.16.01-.31-.02-.45-.1l-1.02-.56.24-.14.94.52c.08.04.16.06.23.04s.15-.05.22-.09c.11-.07.16-.13.15-.2s-.1-.14-.25-.22c-.13-.07-.25-.11-.36-.13s-.22-.01-.35.03c-.12.04-.27.11-.43.2-.19.11-.32.2-.38.28s-.07.15-.03.22.13.14.27.21l.31.16.33.15-.18.14c-.08-.02-.16-.05-.26-.08l-.28-.12-.24-.12c-.2-.11-.33-.22-.39-.32s-.05-.21.03-.32c.09-.11.24-.23.47-.36.23-.14.45-.23.63-.27s.38-.05.55-.02.36.1.54.2z"/><path d="M174.15 115.7l-2.58.7a3.6 3.6 0 0 1-.34.07c-.12.02-.24.03-.36.03a2.3 2.3 0 0 1-.37-.03 1.3 1.3 0 0 1-.35-.12l.18-.13c.19.05.36.08.51.07a2.1 2.1 0 0 0 .47-.06l.3-.08.22-.06.21-.06 1.78-.52.33.18zm-1.43-.79l-.87 1.02-.08.08a.7.7 0 0 1-.08.08l.08.05-.34.08-.09-.05c-.02-.01-.04-.03-.05-.05s0-.04.02-.05l1.07-1.33.32.18zm-1.34-.79a1 1 0 0 1 .39.32c.06.1.05.21-.04.32s-.24.23-.47.36a2.7 2.7 0 0 1-.63.27c-.19.05-.37.06-.56.03s-.37-.1-.57-.21-.33-.22-.39-.32-.05-.21.04-.32.24-.23.47-.36.44-.22.62-.27.38-.06.56-.03.37.1.57.21zm-.26.15c-.13-.07-.25-.11-.36-.13s-.23-.01-.36.03-.28.11-.45.21a1.6 1.6 0 0 0-.36.26c-.07.07-.09.14-.06.2s.12.13.24.2.25.11.36.13a.8.8 0 0 0 .37-.03c.13-.04.28-.11.45-.21s.29-.19.36-.26.08-.14.05-.21-.11-.13-.24-.2z"/><path d="M170.63 112.87l-2.08 1.19c-.08.04-.12.09-.12.14s.04.09.12.13l.17.09-.2.16-.12-.04-.14-.06-.11-.05c-.13-.07-.19-.15-.19-.24s.08-.17.22-.26l2.14-1.24.3.17zm-2.12-.34c.21.12.28.25.22.39s-.25.3-.56.48c-.23.13-.44.22-.62.28s-.35.07-.51.05-.31-.07-.46-.15a1.3 1.3 0 0 1-.29-.21.8.8 0 0 1-.17-.26l.2-.1.22.21a1.3 1.3 0 0 0 .24.17c.1.06.2.09.3.1s.21 0 .33-.04a2.8 2.8 0 0 0 .45-.21c.17-.1.29-.18.36-.25s.1-.13.08-.19-.06-.11-.16-.16-.21-.09-.35-.12a5.3 5.3 0 0 0-.54-.06l.18-.14c.13-.01.27 0 .4.02l.37.07c.12.03.22.07.31.12zm-.79-.39l-.34.23-.03.04-1.14.66-.06.02-.19.12-.2.12-.52.3-.3-.17 2.52-1.45.25.14zm-1.22-.72c.15.08.22.17.22.26s-.08.19-.24.28l-1.34.77-.3-.17 1.25-.72c.11-.06.17-.12.17-.17s-.03-.11-.13-.16c-.06-.03-.13-.06-.21-.08s-.17-.03-.28-.05l-.41-.04.2-.14c.24 0 .45.02.62.06a1.7 1.7 0 0 1 .45.15zm-1.91-1.01l-.32.21-.02.05-1.39.8-.3-.17 1.78-1.03.25.14zm.77.38c.15.08.22.17.22.26s-.08.18-.25.28l-1.34.77-.29-.16 1.25-.72c.12-.07.17-.12.17-.18s-.04-.11-.13-.16c-.06-.03-.13-.06-.21-.08s-.17-.04-.28-.05l-.42-.04.2-.14c.24 0 .45.02.63.06s.33.08.45.15z"/></g><path d="M163.57 109l.36.2.35.2.33.2-.27.14-.99-.55c-.07-.04-.15-.06-.22-.06s-.15.03-.23.08l-1.5.87c-.09.05-.13.09-.14.14s.03.08.11.12l.99.55-.23.15-.36-.18-.36-.2-.36-.2c-.15-.08-.22-.17-.23-.26s.06-.18.19-.26l1.66-.95a.9.9 0 0 1 .45-.11c.16 0 .32.04.46.13zm-1.48.39l1.31.73-.26.15-1.31-.73.26-.15z" class="I"/><g class="E"><path d="M179.22 113.36l-1.82 1.05c-.08.05-.13.09-.13.14s.04.08.13.13l.26.15-.2.16-.16-.06-.16-.07-.12-.06c-.14-.08-.21-.17-.21-.26s.09-.18.24-.27l1.86-1.07.3.17zm.03.61l-.24.14-1.17-.65.23-.13.36.18.83.46z"/><path d="M177.29 112.84l.17.1c.06.04.12.08.17.12s.1.09.14.13l-.24.09-.24-.15-.21-.13c-.14-.08-.27-.13-.39-.15s-.25-.02-.38.02-.29.1-.46.2-.29.19-.36.27-.07.15-.03.22.13.14.27.22l.14.07.19.09.21.09-.18.14c-.12-.03-.24-.07-.36-.12l-.33-.16c-.2-.11-.33-.22-.39-.32s-.05-.21.03-.32.24-.23.47-.36.44-.22.63-.27.38-.06.56-.02.37.1.57.21z"/><path d="M175.34 111.76c.26.14.4.28.42.4s-.06.24-.26.35a1.1 1.1 0 0 1-.47.16c-.16.01-.31-.02-.45-.1l-1.01-.56.24-.14.94.52c.08.04.16.06.23.04s.15-.05.22-.09c.11-.07.16-.13.14-.2s-.1-.14-.25-.22c-.13-.07-.25-.11-.36-.13s-.23-.01-.35.03-.27.11-.43.2c-.19.11-.32.2-.38.28s-.07.15-.03.22.13.14.27.21l.32.16.33.15-.18.14c-.08-.02-.16-.05-.26-.08l-.28-.12-.24-.12c-.2-.11-.33-.22-.39-.32s-.05-.21.03-.32.24-.23.47-.36c.23-.14.45-.23.63-.27.19-.05.38-.05.55-.02s.36.1.54.2zm-1.73-.96c.31.17.31.36-.02.54l-1.34.77-.3-.17 1.25-.72c.12-.07.18-.13.19-.17s-.03-.1-.12-.15c-.11-.06-.24-.1-.4-.13l-.6-.09.21-.14c.24.01.46.04.65.08s.36.09.49.17zm-.84-.42l-.31.21-.03.04-1.39.8-.3-.17 1.78-1.03.26.14zm-1.23-.73c.31.17.31.36-.02.54l-1.34.77-.3-.17 1.25-.72c.12-.07.18-.13.19-.17s-.03-.1-.12-.15c-.11-.06-.24-.1-.4-.13l-.6-.08.21-.14a4.5 4.5 0 0 1 .65.08c.19.04.36.09.49.17zm-.84-.42l-.32.21-.03.04-1.39.8-.3-.17 1.78-1.03.26.14zm-1.52-.89c.2.11.33.22.39.32s.05.21-.04.32-.24.23-.47.36a2.7 2.7 0 0 1-.63.27c-.19.05-.37.06-.56.03a1.8 1.8 0 0 1-.57-.21c-.2-.11-.33-.22-.39-.32s-.05-.21.03-.31c.09-.11.24-.23.47-.36a2.6 2.6 0 0 1 .62-.27c.19-.05.38-.06.56-.03s.37.1.57.21zm-.26.15c-.13-.07-.25-.11-.36-.13s-.23-.01-.36.03-.28.11-.45.21-.29.19-.36.26-.09.14-.06.2c.04.06.12.13.24.2s.25.11.36.13a.8.8 0 0 0 .37-.03c.13-.04.28-.11.45-.21s.29-.19.36-.26.08-.14.05-.21-.11-.13-.24-.2z"/><path d="M168.06 106.88l.26.15c.07.04.13.09.18.13a1.8 1.8 0 0 1 .16.13l-.28.12-.18-.12-.18-.11-.24-.14c-.16-.09-.32-.14-.47-.16s-.33.01-.52.07a4 4 0 0 0-.66.32 3.3 3.3 0 0 0-.55.38c-.11.1-.15.21-.12.29s.12.18.28.27l.39.21.34.15-.21.16-.38-.14a5.4 5.4 0 0 1-.43-.21c-.24-.13-.38-.26-.44-.39s-.02-.26.11-.41.35-.31.68-.49a4.1 4.1 0 0 1 .86-.39 1.8 1.8 0 0 1 .72-.07c.23.03.46.11.7.24zm-19.31 3.96c-.13-.07-.16-.2-.07-.25l14.88-8.58c.09-.05.31-.03.44.04s.16.19.07.25l-14.91 8.6c-.06.04-.28.02-.41-.05zm-27.47-25.91l.49.3c.13.07.24.16.33.24s.2.16.28.26l-.7.33c-.13-.07-.22-.15-.35-.22-.11-.06-.22-.15-.33-.21l-.47-.26c-.24-.14-.49-.22-.74-.22a1.9 1.9 0 0 0-.81.14 6.4 6.4 0 0 0-1.11.54 4.8 4.8 0 0 0-.93.64c-.17.17-.27.33-.23.46s.17.28.41.42l.73.38a5.2 5.2 0 0 0 .63.29l-.55.39a4.3 4.3 0 0 1-.74-.25l-.8-.39c-.44-.25-.73-.48-.81-.71-.1-.24-.04-.48.18-.76.31-.31.72-.62 1.31-.96a7.9 7.9 0 0 1 1.6-.72 3.3 3.3 0 0 1 1.31-.13 3.6 3.6 0 0 1 1.3.45zm1.92 2.59c.38.21.64.41.75.6s.09.4-.05.58a3.1 3.1 0 0 1-.86.67 4.4 4.4 0 0 1-1.17.5c-.35.1-.72.11-1.03.04a3.4 3.4 0 0 1-1.08-.41c-.38-.21-.62-.4-.72-.59s-.09-.4.05-.58c.15-.21.44-.43.86-.67a4.4 4.4 0 0 1 1.17-.5c.37-.09.71-.11 1.03-.04a3 3 0 0 1 1.05.4zm-.61.35c-.18-.1-.36-.17-.54-.19s-.37.01-.55.07a4.2 4.2 0 0 0-.75.36 3.2 3.2 0 0 0-.62.43c-.12.12-.15.24-.11.31.04.1.15.19.35.3a1.4 1.4 0 0 0 .54.19 1.2 1.2 0 0 0 .55-.07c.21-.07.44-.18.75-.36a3.2 3.2 0 0 0 .62-.43c.12-.12.17-.23.11-.31s-.17-.2-.35-.3zm3.18 1.16l-.57.41-.03.09-2.58 1.49-.78-.43 3.31-1.91.64.36zm1.49.75c.58.32.56.66-.05 1.01l-2.48 1.43-.78-.43 2.22-1.28c.19-.11.28-.19.29-.27s-.06-.14-.19-.21a2.4 2.4 0 0 0-.61-.2c-.23-.05-.55-.09-.93-.14l.47-.3a7.2 7.2 0 0 1 1.16.11c.39.05.66.15.9.28zm2 1.17l-.57.41-.03.09-2.58 1.49-.78-.43 3.31-1.91.64.36zm1.49.75c.58.32.56.66-.05 1.01l-2.48 1.43-.78-.43 2.22-1.28c.19-.11.28-.19.29-.27s-.06-.14-.19-.21a2.4 2.4 0 0 0-.61-.2 12.2 12.2 0 0 0-.93-.14l.47-.3a7.2 7.2 0 0 1 1.16.11c.41.07.68.16.9.28zm2.89 1.6c.51.28.77.53.81.77s-.14.46-.49.66a2 2 0 0 1-.88.28c-.3.02-.59-.06-.93-.25l-1.78-.98.5-.29 1.58.87c.13.07.29.11.39.08.11-.02.25-.07.37-.14.19-.11.26-.2.22-.3s-.13-.2-.35-.33c-.2-.11-.38-.18-.56-.2-.16-.03-.34 0-.53.05a3.9 3.9 0 0 0-.73.34 2.2 2.2 0 0 0-.62.46c-.12.12-.13.25-.06.34.06.11.19.21.42.34l.56.28.65.31-.45.34c-.16-.03-.34-.08-.52-.15l-.54-.22c-.18-.07-.33-.16-.47-.23-.38-.21-.62-.42-.72-.61s-.09-.4.06-.61.44-.43.84-.66a4.6 4.6 0 0 1 1.2-.51 2.4 2.4 0 0 1 1.03-.04c.34.08.67.21 1.03.41zm3.38 1.87a2.3 2.3 0 0 1 .33.21c.13.07.24.16.33.24.11.09.17.18.24.27l-.61.25-.44-.27-.4-.22a1.8 1.8 0 0 0-.6-.23c-.21-.03-.39-.03-.6.04a4.1 4.1 0 0 0-.75.33c-.28.16-.47.3-.57.43-.12.12-.1.24-.06.34.06.11.19.21.42.34l.24.14c.11.06.22.12.36.17.11.06.27.12.38.18l-.45.34c-.23-.05-.47-.13-.72-.21l-.65-.3c-.38-.21-.62-.4-.72-.59s-.07-.39.06-.58a3.2 3.2 0 0 1 .86-.67 4.4 4.4 0 0 1 1.17-.5 2.4 2.4 0 0 1 1.03-.04c.46.01.82.16 1.17.35zm3.57 2.06l-.57.33-2.24-1.24.54-.31.62.32 1.64.91zm.01-1.06l-3.26 1.88c-.14.08-.21.15-.22.23.02.06.06.14.19.21l.42.23-.48.38a4.2 4.2 0 0 1-.34-.11l-.34-.13-.24-.14c-.27-.15-.42-.31-.39-.48.01-.18.16-.34.44-.5l3.45-1.99.76.42z"/></g><g class="I"><path d="M144.8 98.04l.71.39.69.41a6.6 6.6 0 0 1 .6.38l-.8.41-1.69-.94c-.11-.06-.2-.08-.34-.08-.09 0-.23.03-.35.1l-2.36 1.36c-.12.07-.17.12-.17.2 0 .05.04.13.15.19l1.69.94-.71.46-.69-.33-.74-.38-.71-.39c-.29-.16-.42-.34-.41-.52-.01-.19.13-.38.42-.54l2.86-1.65c.28-.16.61-.25.95-.25.32-.01.64.09.9.23z"/><path d="M144.71 100.12l-2.62-1.45-.73.42 2.62 1.45.73-.42zm4.5.27l.51.31a2.1 2.1 0 0 1 .35.25c.11.09.2.16.28.26l-.82.4-.35-.22-.38-.21-.49-.27c-.22-.12-.43-.18-.65-.2s-.44.03-.74.13a7.3 7.3 0 0 0-.99.49 5.7 5.7 0 0 0-.86.57c-.17.15-.24.29-.21.42s.15.24.37.37l.76.39c.2.11.42.21.65.3l-.67.48c-.27-.07-.52-.15-.76-.26l-.82-.4c-.44-.25-.75-.5-.85-.74s-.06-.49.16-.77a4.6 4.6 0 0 1 1.24-.92 7.7 7.7 0 0 1 1.6-.72 2.9 2.9 0 0 1 1.36-.1c.46.04.88.19 1.33.44zm4.16 1.7a1.5 1.5 0 0 1-1.33.04c-.36-.2-.34-.53.04-.75s.95-.22 1.31-.02.36.52-.02.74zm-1.13-.63c-.31.18-.34.42-.06.58.27.15.73.14 1.01-.03.31-.18.34-.42.06-.58-.27-.17-.73-.13-1.01.03zm.05.43l-.16-.09.66-.38c.09.02.16.06.27.12s.15.11.18.15 0 .08-.08.12-.19.06-.3.02c.04.05.02.09-.06.16s-.12.09-.12.12l-.16-.09c0-.03.07-.07.12-.12s.05-.08-.04-.13l-.07-.04-.26.15zm.38-.22l.07.04c.09.05.18.07.25.03s.05-.08-.04-.13l-.09-.05-.19.11z"/></g></g></g><path d="M234.04 74.05l-17.76-10.26c-.32-.19-.28-.52.09-.73s.94-.24 1.27-.05l17.76 10.26c.32.19.28.52-.09.73s-.94.24-1.27.05z" class="J"/><path d="M216.15 63.66c.05-.07.12-.14.23-.2a1.4 1.4 0 0 1 1.27-.05l17.76 10.26c.06.04.1.08.14.13.13-.19.1-.4-.14-.53L217.64 63c-.32-.19-.89-.16-1.27.05-.3.17-.37.42-.23.61zm-4.48-3.57c-1.06.61-2.79.61-3.86-.01s-1.08-1.62-.01-2.23a4.3 4.3 0 0 1 3.87.01c1.08.62 1.07 1.62.01 2.23z" class="M"/><path d="M210.96 59.68a2.7 2.7 0 0 1-2.44 0c-.68-.39-.68-1.02-.01-1.41a2.7 2.7 0 0 1 2.44 0c.68.39.68 1.02.01 1.41z" fill="#516f83"/><path d="M215.35 62.54c-.75.43-1.97.43-2.73-.01s-.76-1.14-.01-1.58 1.97-.43 2.73.01.76 1.14.01 1.58z" class="J"/><defs><filter id="H" x="23.11" y="195.01" width="100.14" height="58.36" filterUnits="userSpaceOnUse" class="R"><feFlood flood-opacity="0" result="A"/><feColorMatrix in="SourceAlpha" values="0 0 0 0 0 0 0 0 0 0 0 0 0 0 0 0 0 0 127 0" result="B"/><feOffset dy="1.08699"/><feGaussianBlur stdDeviation="1.36"/><feComposite in2="B" operator="out"/><feColorMatrix values="0 0 0 0 0.772549 0 0 0 0 0.858824 0 0 0 0 0.988235 0 0 0 0.66 0"/><feBlend in2="A"/><feBlend in="SourceGraphic"/></filter><filter id="I" x="57.95" y="174.91" width="100.14" height="58.36" filterUnits="userSpaceOnUse" class="R"><feFlood flood-opacity="0" result="A"/><feColorMatrix in="SourceAlpha" values="0 0 0 0 0 0 0 0 0 0 0 0 0 0 0 0 0 0 127 0" result="B"/><feOffset dy="1.08699"/><feGaussianBlur stdDeviation="1.36"/><feComposite in2="B" operator="out"/><feColorMatrix values="0 0 0 0 0.772549 0 0 0 0 0.858824 0 0 0 0 0.988235 0 0 0 0.66 0"/><feBlend in2="A"/><feBlend in="SourceGraphic"/></filter><linearGradient id="J" x1="25.4" y1="188.6" x2="272.56" y2="188.6" href="#d"><stop stop-color="#c4c8d8"/><stop offset=".28" stop-color="#c4c8d8"/><stop offset=".3" stop-color="#c0c5d6"/><stop offset=".32" stop-color="#b6bace"/><stop offset=".34" stop-color="#a3a9c2"/><stop offset=".34" stop-color="#a0a6c0"/><stop offset=".99" stop-color="#a0a6c0"/><stop offset=".99" stop-color="#b4b9cd"/><stop offset="1" stop-color="#c0c4d5"/><stop offset="1" stop-color="#c4c8d8"/></linearGradient><linearGradient id="K" x1="270.25" y1="180.74" x2="27.7" y2="180.74" href="#d"><stop stop-color="#c4c8d8"/><stop offset=".28" stop-color="#c4c8d8"/><stop offset=".3" stop-color="#c0c5d6"/><stop offset=".32" stop-color="#b6bace"/><stop offset=".34" stop-color="#a3a9c2"/><stop offset=".34" stop-color="#a0a6c0"/><stop offset=".99" stop-color="#a0a6c0"/><stop offset=".99" stop-color="#b4b9cd"/><stop offset="1" stop-color="#c0c4d5"/><stop offset="1" stop-color="#c4c8d8"/></linearGradient><linearGradient id="L" x1="25.77" y1="184.16" x2="272.78" y2="184.16" href="#d"><stop stop-color="#c4c8d8"/><stop offset=".28" stop-color="#c4c8d8"/><stop offset=".3" stop-color="#c0c5d6"/><stop offset=".32" stop-color="#b6bace"/><stop offset=".34" stop-color="#a3a9c2"/><stop offset=".34" stop-color="#a0a6c0"/><stop offset=".99" stop-color="#a0a6c0"/><stop offset=".99" stop-color="#b4b9cd"/><stop offset="1" stop-color="#c0c4d5"/><stop offset="1" stop-color="#c4c8d8"/></linearGradient><linearGradient id="M" x1="25.1" y1="117.38" x2="275" y2="117.38" href="#d"><stop stop-color="#c4c8d8"/><stop offset=".28" stop-color="#c4c8d8"/><stop offset=".3" stop-color="#c0c5d6"/><stop offset=".32" stop-color="#b6bace"/><stop offset=".34" stop-color="#a3a9c2"/><stop offset=".34" stop-color="#a0a6c0"/><stop offset=".99" stop-color="#a0a6c0"/><stop offset=".99" stop-color="#b4b9cd"/><stop offset="1" stop-color="#c0c4d5"/><stop offset="1" stop-color="#c4c8d8"/></linearGradient><clipPath id="N"><rect width="97.81" height="184.71" rx="9.25" transform="matrix(.8748 .4845 -.8662 .4997 186.223 109.52)" class="C"/></clipPath><clipPath id="O"><path transform="matrix(.8748 .4845 -.8662 .4997 183.992 125.051)" d="M0 0h69.02v11.69H0z" class="C"/></clipPath><clipPath id="P"><path transform="matrix(.8748 .4845 -.8662 .4997 264.166 161.383)" d="M0 0h5.07v4.35H0z" class="C"/></clipPath><clipPath id="Q"><rect width="98.96" height="186.5" rx="9.36" transform="matrix(.8748 .4845 -.8662 .4997 186.545 41.4023)" class="C"/></clipPath><clipPath id="R"><path transform="matrix(.8748 .4845 -.8662 .4997 251.287 81.3164)" d="M0 0h5.13v4.4H0z" class="C"/></clipPath><clipPath id="S"><path transform="matrix(.8748 .4845 -.8662 .4997 125.248 80.5938)" d="M0 0h87.98v17.6H0z" class="C"/></clipPath><path id="T" d="M256.44 177.92l-10.1 6.07c-.82.5-1.5-.03-1.5-1.18a3.8 3.8 0 0 1 1.5-2.98l10.1-6.07c.82-.5 1.5.03 1.5 1.18a3.8 3.8 0 0 1-1.5 2.98z"/><path id="U" d="M48.86 206.6c-.06.04-.16.05-.22.03s-.05-.08.02-.12.16-.05.22-.03.05.08-.02.12z"/><path id="V" d="M48.24 206.86c-.21-.12-.18-.33.07-.47s.62-.17.83-.05.18.33-.07.47-.62.17-.83.05zm.86-.5c-.19-.1-.52-.08-.75.05s-.26.32-.07.43.52.08.75-.05.26-.32.07-.43z"/><path id="W" d="M83.88 187.48c-.02.03-.07.06-.1.08-.05.03-.14.02-.18-.02-.08-.07.14-.19.26-.12.03.02.03.04.02.06z"/><path id="X" d="M157.1 186.14l-2.78 1.13 2.6 1.23 2.41-1.3-2.23-1.07z"/><path id="Y" d="M158.05 188.1l1.69 2.66c.07.11-.01.24-.19.33-.25.12-.68.08-.88-.03l-5.82-3.33 2.52-.99s.25.95 2.69 1.36z"/><path id="Z" d="M131 175.58l-1.95 1.59-2.23-1.45 2.24-1.39 1.94 1.24z"/><path id="a" d="M127.86 178.3l.39-.28-5.73-3.07c-.28-.15-.41-.38-.34-.6l-.04-.03-.63.44c-.02.02-.04.04-.03.06v.02c.01.14.1.27.27.36l5.81 3.11c.09.05.22.04.29-.01z"/><path id="b" d="M137.45 156.03c.02 0 .03-.01.03-.02s-.02-.02-.03-.02-.03.01-.03.02.02.02.03.02z"/><path id="c" d="M184.37 121.32c.31.17.31.36-.02.54l-1.34.77-.3-.17 1.25-.72c.12-.07.18-.13.19-.17s-.03-.1-.12-.15c-.11-.06-.24-.1-.4-.13l-.6-.08.21-.14a4.5 4.5 0 0 1 .65.08c.19.04.36.09.49.17zm-.84-.42l-.32.21-.03.04-1.39.8-.3-.17 1.78-1.03.26.14z"/><linearGradient id="d" gradientUnits="userSpaceOnUse"/></defs></svg>