<svg xmlns="http://www.w3.org/2000/svg" viewBox="0 0 600 600" xmlns:v="https://vecta.io/nano"><style><![CDATA[.Q{fill:#0668e1}.R{fill:#1b1c17}.S{fill:#fff}.T{fill:#e5e5e5}.U{stroke:#b6dbff}.V{stroke-width:.5}]]></style><path d="M79.4 93.3c.1-33.1 35.9-53.6 64.5-37.1l357.3 207.4c28.6 16.6 28.5 57.9-.2 74.4L142.8 543.8c-28.7 16.5-64.4-4.3-64.3-37.3l.9-413.2z" fill="#bfd8f7" fill-opacity=".2" stroke="#0668e1" stroke-width=".83"/><linearGradient id="A" gradientUnits="userSpaceOnUse" x1="410.24" y1="544.87" x2="190.03" y2="-23.51"><stop offset="0" stop-color="#9ac8ff"/><stop offset="1" stop-color="#0072ff"/></linearGradient><path d="M156.9 549.8l169.7 22.5c16.9 2.2 34.3-12.3 39-32.5L470.7 83.3c4-17.3-2.7-33.1-15.4-38.7l17.1 7.6c12.6 5.6 19.4 21.4 15.4 38.7L382.7 547.3c-4.6 20.2-22.1 34.8-39 32.5L174 557.3c-2.4-.3-4.7-1-6.8-1.9l-17.1-7.6c2.1 1 4.4 1.6 6.8 2h0z" fill="url(#A)"/><path d="M466.8 139.3c2.8 1.3 4.2 6.3 3.1 11.3l-12.8 55.6c-1.2 5-4.4 8.1-7.2 6.8s-4.2-6.3-3-11.4l12.8-55.6c1-4.9 4.3-8 7.1-6.7zM446.4 228c2.8 1.3 4.2 6.3 3.1 11.4l-5.6 24.5c-1.2 5-4.4 8.1-7.2 6.8s-4.2-6.3-3-11.4l5.6-24.5c1-5 4.3-8.1 7.1-6.8z" class="S"/><path d="M454.1 194.5c.4.2.5.8.4 1.5l-2 8.8c-.1.6-.6 1.1-1 .9s-.5-.8-.4-1.5l2-8.8c.2-.7.6-1.1 1-.9zm11-47.9c.4.2.5.8.4 1.5l-.7 3.2 1.8.8c.4.2.5.8.4 1.5-.1.6-.6 1.1-.9.9l-1.8-.8-.7 3.2c-.1.7-.6 1.1-.9.9-.4-.2-.5-.8-.4-1.5l.7-3.2-1.8-.8c-.4-.2-.5-.8-.4-1.5s.6-1.1.9-.9l1.8.8.7-3.2c.1-.7.5-1 .9-.9z" fill="#d1d5d9"/><linearGradient id="B" gradientUnits="userSpaceOnUse" x1="302.75" y1="572.45" x2="302.75" y2="20"><stop offset="0" stop-color="#b7d7ff"/><stop offset="1" stop-color="#8cb6e9"/></linearGradient><path d="M278.9 20.2c-16.9-2.2-34.3 12.3-39 32.5L134.8 509.2c-4.6 20.2 5.3 38.4 22.1 40.6l169.7 22.5c16.9 2.2 34.3-12.3 39-32.5L470.7 83.3c4.6-20.2-5.3-38.4-22.2-40.6L278.9 20.2z" fill="url(#B)"/><path d="M275.6 32.2l170.7 22.6c11 1.5 17.5 13.3 14.5 26.5L355.4 538.9c-3 13.2-14.4 22.7-25.5 21.3l-170.7-22.6c-11-1.5-17.5-13.3-14.5-26.5L250.1 53.5c3.1-13.2 14.5-22.7 25.5-21.3" fill="#e8f1fa"/><defs><path id="C" d="M276.8 32.8l169.1 20.8a18.7 18.7 0 0 1 16.3 23.3l-107 464.6c-2.6 11.4-14.2 19.5-25.8 18.1l-169.1-20.8a18.7 18.7 0 0 1-16.3-23.3L251 50.9c2.6-11.5 14.2-19.6 25.8-18.1z"/><path id="D" d="M284.1 79.3l1.7-7.4 1.5.2.2.8c.4-.2.8-.3 1.4-.5.5-.1 1.1-.2 1.6-.1.6.1 1.1.3 1.4.5.3.3.5.6.6 1s.1.9-.1 1.3l-1.1 4.9-1.9-.2 1.1-4.7c.1-.3.1-.5 0-.7s-.2-.4-.4-.5-.4-.2-.7-.2h-.8c-.2 0-.5.1-.7.1-.2.1-.5.2-.7.3l-1.2 5.4-1.9-.2z"/><path id="E" d="M213.8 281c20 2.8 32.5 21.1 28 40.8-.1.5-.2 1-.4 1.4l-13.8-1.9c.1-.5.3-.9.4-1.4 2.8-12.2-4.9-23.6-17.3-25.3l3.1-13.6z"/><path id="F" d="M352.6 278.5l4.3.6a2.6 2.6 0 0 1 2.2 3.3l-1 4.3a3.2 3.2 0 0 1-3.6 2.4l-4.3-.6a2.6 2.6 0 0 1-2.2-3.3l1-4.3a3.4 3.4 0 0 1 3.6-2.4z"/></defs><clipPath id="G"><use href="#C"/></clipPath><g clip-path="url(#G)"><g class="S"><path d="M276.8 32.8l169.1 20.8a18.7 18.7 0 0 1 16.3 23.3l-107 464.6c-2.6 11.4-14.2 19.5-25.8 18.1l-169.1-20.8a18.7 18.7 0 0 1-16.3-23.3L251 50.9c2.6-11.5 14.2-19.6 25.8-18.1z"/><path d="M263.8 91.3l169.5 20.9c5.2.6 8.5 5.3 7.3 10.4l-28.3 123.1a10.8 10.8 0 0 1-11.5 8.1l-169.5-20.9c-5.2-.6-8.5-5.3-7.3-10.4l28.3-123.1c1.1-5.1 6.3-8.7 11.5-8.1z" stroke-miterlimit="10" class="U V"/></g><path d="M295.3 213.1l-1.3 5.8-1.1-.1 1.3-5.8 1.1.1zm1.8.3l-.2.9-4.7-.6.2-.9 4.7.6zm1.3 5.1l.5-2v-.4c0-.1-.1-.2-.2-.3s-.2-.1-.4-.1h-.4c-.1 0-.2.1-.3.2s-.1.2-.2.3l-1.1-.1c0-.2.1-.3.2-.5.1-.1.3-.3.5-.4s.4-.2.6-.2h.8c.3 0 .6.1.8.3.2.1.4.3.5.6.1.2.1.5 0 .9l-.4 1.9c0 .2-.1.4-.1.6v.4.1l-1.1-.1v-.4c.3-.5.3-.6.3-.8zm.6-1.7l-.1.6-.7-.1h-.5c-.1 0-.2.1-.3.1-.1.1-.2.1-.2.2-.1.1-.1.2-.1.3v.3c0 .1.1.2.2.2.1.1.2.1.3.1.2 0 .4 0 .5-.1.2-.1.3-.1.4-.2s.2-.2.2-.3l.2.5c-.1.1-.1.2-.2.3s-.2.2-.4.3c-.1.1-.3.2-.5.2s-.4.1-.6 0c-.3 0-.5-.1-.7-.3s-.3-.3-.4-.5-.1-.4 0-.7c.1-.2.1-.4.3-.6.1-.2.3-.3.5-.4s.4-.2.7-.2h.9l.5.3zm3.1-.4l-.8 3.4-1.1-.1 1-4.3 1 .1-.1.9zm-.4 1.1h-.3l.3-.8c.1-.2.3-.4.5-.6s.4-.3.6-.4.5-.1.8-.1c.2 0 .4.1.5.2s.3.2.4.3.2.3.2.5 0 .4-.1.7l-.7 2.9-1.1-.1.6-2.7c0-.2.1-.4 0-.5 0-.1-.1-.2-.2-.3s-.2-.1-.4-.1h-.5c-.1 0-.3.1-.4.2s-.2.2-.3.4c.2 0 .1.2.1.4zm2.7.1h-.5c.1-.3.2-.5.3-.7s.3-.4.5-.6.4-.3.6-.4.5-.1.8-.1c.2 0 .4.1.6.2s.3.2.4.3.1.3.2.5c0 .2 0 .5-.1.8l-.6 2.7-1.1-.1.6-2.7c0-.2.1-.4 0-.5 0-.1-.1-.2-.2-.3s-.2-.1-.4-.1h-.4c-.1 0-.2.1-.3.2s-.2.2-.2.3c-.1.2-.2.4-.2.5zm5.1-1.2l-1 4.3-1.1-.1 1-4.3 1.1.1zm-.9-1.3c0-.2.1-.3.2-.4s.3-.1.5-.1.3.1.4.2.1.3.1.4c0 .2-.1.3-.3.4-.1.1-.3.1-.5.1s-.3-.1-.4-.2v-.4zm3.5-.2l-1.4 6.1-1.1-.1 1.4-6.1 1.1.1zm7.8 1.3l-1.3 5.8-1.1-.1-1.6-4.3-.9 4-1.1-.1 1.3-5.8 1.1.1 1.6 4.3.9-4 1.1.1zm2.3 5.2l.5-2v-.4c0-.1-.1-.2-.2-.3s-.2-.1-.4-.1h-.4c-.1 0-.2.1-.3.2s-.1.2-.2.3l-1.1-.1c0-.2.1-.3.2-.5.1-.1.3-.3.5-.4s.4-.2.6-.2h.8c.3 0 .6.1.8.3.2.1.4.3.5.6.1.2.1.5 0 .9l-.4 1.9c0 .2-.1.4-.1.6v.4.1l-1.1-.1v-.4c.2-.4.2-.6.3-.8zm.5-1.7l-.1.6-.7-.1h-.4c-.1 0-.2.1-.3.1-.1.1-.2.1-.2.2-.1.1-.1.2-.1.3v.3c0 .1.1.2.2.2.1.1.2.1.3.1.2 0 .4 0 .5-.1.2-.1.3-.1.4-.2s.2-.2.2-.3l.2.5c-.1.1-.1.2-.2.3s-.2.2-.4.3c-.1.1-.3.2-.5.2s-.4.1-.6 0c-.3 0-.5-.1-.7-.3-.2-.1-.3-.3-.4-.5s-.1-.4 0-.7c.1-.2.1-.4.3-.6.1-.2.3-.3.5-.4s.4-.2.7-.2h.9l.4.3zm4.1 2.3l1.2-5.2 1.1.1-1.4 6.1-1-.1.1-.9zm-2.5-1.5h0a12.6 12.6 0 0 1 .3-1c.1-.3.3-.5.5-.6.2-.2.4-.3.6-.4s.5-.1.8-.1.5.1.6.2c.2.1.3.3.4.5s.2.4.2.7v.9l-.1.2c-.1.3-.2.6-.4.8-.1.2-.3.4-.5.6s-.4.3-.6.4-.5.1-.7.1c-.3 0-.5-.1-.7-.2s-.3-.3-.4-.5-.2-.5-.2-.7c.1-.3.1-.6.2-.9zm1.1 0h0c-.1.3-.1.4-.1.6s0 .3.1.4c0 .1.1.2.2.3s.2.1.4.2c.2 0 .4 0 .5-.1.2-.1.3-.2.4-.3.1-.2.2-.3.3-.5l.1-.6v-.4c0-.1 0-.3-.1-.4s-.1-.2-.2-.3-.2-.1-.4-.1-.3 0-.4.1-.2.1-.3.3c-.1.1-.2.3-.3.4s-.2.2-.2.4zm6.1 2l.8-3.3 1.1.1-1 4.3-1-.1.1-1zm.3-.9h.3l-.3.8c-.1.2-.3.4-.4.6-.2.2-.4.3-.6.4s-.5.1-.8.1c-.2 0-.4-.1-.6-.2s-.3-.2-.4-.3-.2-.3-.2-.5 0-.5.1-.7l.6-2.8 1.1.1-.6 2.8v.4c0 .1 0 .2.1.2 0 .1.1.1.2.2.1 0 .2.1.3.1.3 0 .5 0 .6-.1.2-.1.3-.2.4-.4.1-.3.2-.5.2-.7z" class="Q"/><path d="M290 226.4l2.1-4.8.5.1-2.1 4.8-.5-.1zm1.4.2l2.1-4.8.5.1-2.1 4.8-.5-.1zm2.6-2.8l-3.6-.4.1-.5 3.6.4-.1.5zm-.6 1.6l-3.6-.4.1-.5 3.6.4-.1.5zm3.7-3.2l-1.1 5-.6-.1 1-4.2-1.4.3.1-.6 2-.5v.1zm2 2.9l-.5-.2.8-2.4 2.6.3-.1.6-2-.2-.5 1.3c.1 0 .2-.1.4-.1h.5c.2 0 .4.1.6.2s.3.2.4.4.2.3.2.6c0 .2 0 .4-.1.7-.1.2-.1.5-.2.6-.1.2-.2.4-.4.5l-.6.3c-.2.1-.5.1-.7 0-.2 0-.4-.1-.6-.2s-.3-.2-.4-.3-.2-.3-.2-.5-.1-.4 0-.6l.6.1c0 .2 0 .4.1.5s.1.2.3.3c.1.1.3.1.5.2h.4c.1 0 .2-.1.3-.2l.3-.3c.1-.1.1-.3.2-.5v-.4c0-.1-.1-.3-.1-.4-.1-.1-.1-.2-.3-.3-.1-.1-.2-.1-.4-.1h-.5c-.3 0-.4 0-.6.1zm6.5.3l-.2.8-.3 1c-.1.3-.3.5-.5.6-.2.2-.4.3-.6.3-.2.1-.4.1-.7 0-.2 0-.4-.1-.5-.1-.2-.1-.3-.2-.4-.3s-.2-.3-.2-.5c-.1-.2-.1-.4-.1-.6s0-.5.1-.9l.2-.8a12.6 12.6 0 0 1 .3-1c.1-.3.3-.5.5-.6l.6-.3c.2 0 .4-.1.7 0 .2 0 .4.1.5.1.2.1.3.2.4.3s.2.3.2.4c.1.2.1.4.1.6 0 .4 0 .7-.1 1zm-.9.8l.2-1c.1-.2.1-.4.1-.6v-.4c0-.1-.1-.2-.1-.3l-.2-.2c-.1 0-.2-.1-.3-.1h-.4c-.1 0-.2.1-.4.2-.1.1-.2.3-.3.4-.1.2-.2.4-.2.7l-.2 1c0 .2-.1.4-.1.6v.5c0 .1.1.2.1.3.1.1.1.2.2.2s.2.1.3.1h.4c.1 0 .2-.1.4-.2.1-.1.2-.3.3-.5s.2-.5.2-.7zm4.9-.3l-.2.8-.3 1c-.1.3-.3.5-.5.6-.2.2-.4.3-.6.3-.2.1-.4.1-.7 0-.2 0-.4-.1-.5-.1-.2-.1-.3-.2-.4-.3s-.2-.3-.2-.5c-.1-.2-.1-.4-.1-.6s0-.5.1-.9l.2-.8a12.6 12.6 0 0 1 .3-1c.1-.3.3-.5.5-.6.2-.2.4-.2.6-.3.2 0 .4-.1.7 0 .2 0 .4.1.5.1.2.1.3.2.4.3s.2.3.2.4c.1.2.1.4.1.6 0 .4-.1.7-.1 1zm-.9.8l.2-1c.1-.2.1-.4.1-.6v-.4c0-.1-.1-.2-.1-.3l-.2-.2c-.1 0-.2-.1-.3-.1h-.4c-.1 0-.2.1-.4.2-.1.1-.2.3-.3.4-.1.2-.2.4-.2.7l-.2 1c-.1.2-.1.4-.1.6v.5c0 .1.1.2.1.3.1.1.1.2.2.2s.2.1.3.1h.4c.1 0 .2-.1.4-.2.1-.1.2-.3.3-.5s.1-.5.2-.7zm4.8-.3l-.2.8-.3 1c-.1.3-.3.5-.5.6-.2.2-.4.3-.6.3-.2.1-.4.1-.7 0-.2 0-.4-.1-.5-.1-.2-.1-.3-.2-.4-.3s-.2-.3-.2-.5c-.1-.2-.1-.4-.1-.6s0-.5.1-.9l.2-.8a12.6 12.6 0 0 1 .3-1c.1-.3.3-.5.5-.6l.6-.3c.2 0 .4-.1.7 0 .2 0 .4.1.5.1.2.1.3.2.4.3s.2.3.2.4c.1.2.1.4.1.6 0 .4 0 .6-.1 1zm-.8.7l.2-1c.1-.2.1-.4.1-.6v-.4c0-.1-.1-.2-.1-.3l-.2-.2c-.1 0-.2-.1-.3-.1h-.4c-.1 0-.2.1-.4.2-.1.1-.2.3-.3.4-.1.2-.2.4-.2.7l-.2 1c-.1.2-.1.4-.1.6v.5c0 .1.1.2.1.3.1.1.1.2.2.2s.2.1.3.1h.4c.1 0 .2-.1.4-.2.1-.1.2-.3.3-.5 0-.1.1-.4.2-.7z" class="R"/><path d="M361.3 221.3L360 227l-1.1-.1 1.3-5.8 1.1.2zm1.6 2.6l-.8 3.4-1.1-.1 1-4.3 1 .1-.1.9zm-.4 1.1h-.3l.3-.8c.1-.2.3-.4.5-.6s.4-.3.6-.4.5-.1.7-.1.4.1.5.2c.2.1.3.2.4.3s.1.3.2.5c0 .2 0 .5-.1.8l-.6 2.7-1.1-.1.6-2.7c0-.2.1-.4 0-.5 0-.1-.1-.2-.2-.3s-.2-.1-.4-.1h-.5c-.1 0-.3.1-.4.2s-.2.2-.3.4.2.3.1.5zm6 2.1l1.2-5.2 1.1.1-1.4 6.1-1-.1.1-.9zm-2.5-1.5h0c.1-.4.2-.7.3-1s.3-.5.5-.7.4-.3.6-.4.5-.1.8-.1.5.1.6.2c.2.1.3.3.4.5s.2.4.2.7v.9l-.1.2c-.1.3-.2.6-.4.8-.1.2-.3.4-.5.6s-.4.3-.6.4-.5.1-.7.1c-.3 0-.5-.1-.7-.2s-.3-.3-.4-.5-.2-.5-.2-.7c.1-.2.1-.5.2-.8zm1.1.1h0c-.1.3-.1.4-.1.6s0 .3.1.4c0 .1.1.2.2.3s.2.1.4.2c.2 0 .4 0 .5-.1.2-.1.3-.2.4-.3.1-.2.2-.3.3-.5l.1-.6v-.4c0-.1 0-.3-.1-.4s-.1-.2-.2-.3-.2-.1-.4-.1-.3 0-.4.1-.2.1-.3.3c-.1.1-.2.3-.3.4-.1 0-.2.2-.2.4zm5.4-1.5l-1 4.3-1.1-.1 1-4.3 1.1.1zm-.9-1.3c0-.2.1-.3.2-.4s.3-.1.5-.1.3.1.4.2.1.3.1.4c0 .2-.1.3-.3.4-.1.1-.3.1-.5.1s-.3-.1-.4-.2c0-.1-.1-.2 0-.4zm3.5 5l.5-2v-.4c0-.1-.1-.2-.2-.3s-.2-.1-.4-.1h-.4c-.1 0-.2.1-.3.2s-.1.2-.2.3l-1.1-.1c0-.2.1-.3.2-.5.1-.1.3-.3.5-.4s.4-.2.6-.2h.8c.3 0 .6.1.8.3.2.1.4.3.5.6.1.2.1.5 0 .9l-.4 1.9c0 .2-.1.4-.1.6v.4.1l-1.1-.1v-.4c.2-.4.3-.6.3-.8zm.5-1.6l-.1.6-.7-.1h-.5c-.1 0-.2.1-.3.1-.1.1-.2.1-.2.2-.1.1-.1.2-.1.3v.3c0 .1.1.2.2.2.1.1.2.1.3.1.2 0 .4 0 .5-.1.2-.1.3-.1.4-.2s.2-.2.2-.3l.2.5c-.1.1-.1.2-.2.3s-.2.2-.4.3c-.1.1-.3.2-.5.2s-.4.1-.6 0c-.3 0-.5-.1-.7-.3-.2-.1-.3-.3-.4-.5s-.1-.4 0-.7c.1-.2.1-.4.3-.6.1-.2.3-.3.5-.4s.4-.2.7-.2h.9l.5.3z" class="Q"/><path d="M357.4 234.7l2.1-4.8.5.1-2.1 4.8-.5-.1zm1.4.2l2.1-4.8.5.1-2.1 4.8-.5-.1zm2.6-2.8l-3.6-.4.1-.5 3.6.4-.1.5zm-.6 1.6l-3.6-.4.1-.5 3.6.4-.1.5zm4.2.2l-.1.5-3.6-.4.1-.4 3-3.1.5.1-.8.9-2 2.1 2.9.3zm.1-3.3l-1.1 4.9-.6-.1 1.1-4.9.6.1zm.9 4.6h0c.4.1.7 0 1 0 .3-.1.5-.2.6-.3.2-.2.3-.3.4-.5s.2-.4.2-.7l.2-.8c.1-.2.1-.4.1-.6s0-.3-.1-.5c-.1-.1-.1-.2-.2-.3s-.2-.1-.3-.1h-.4c-.1 0-.2.1-.3.2l-.3.3c-.1.1-.1.3-.2.5v.4c0 .1 0 .3.1.4s.1.2.2.3.2.1.4.1h.4c.1 0 .3-.1.4-.2l.3-.3c.1-.1.2-.2.2-.4h.3c0 .2-.1.4-.2.5-.1.2-.3.3-.4.5l-.6.3c-.2.1-.4.1-.6.1s-.5-.1-.6-.2c-.2-.1-.3-.3-.4-.4-.1-.2-.1-.4-.1-.6s0-.4.1-.6.1-.4.3-.6c.1-.2.3-.4.4-.5l.6-.3c.2-.1.5-.1.7 0 .3 0 .5.1.7.3.2.1.3.3.4.5s.1.4.1.7c0 .2 0 .5-.1.7l-.1.2c-.1.3-.1.5-.2.8s-.2.5-.4.7a1.7 1.7 0 0 1-.6.6c-.2.2-.5.3-.8.4s-.7.1-1.1 0h-.1v-.6zm6.6 0c-.1.3-.2.5-.4.7s-.4.3-.7.4-.5.1-.8.1-.6-.1-.8-.3a1.2 1.2 0 0 1-.5-.5c-.1-.2-.1-.5 0-.8 0-.2.1-.4.2-.5.1-.2.3-.3.4-.4.2-.1.4-.2.6-.2s.4-.1.7 0c.3 0 .6.1.8.3a1.2 1.2 0 0 1 .5.5c.1.2.1.5 0 .7zm-.6-.1v-.5c0-.2-.1-.3-.3-.4-.1-.1-.3-.2-.5-.2s-.4 0-.5.1c-.2.1-.3.2-.4.3s-.2.3-.2.5v.5c0 .1.1.3.3.3.1.1.3.1.5.2h.5c.2-.1.3-.1.4-.3.1-.1.2-.3.2-.5zm1.1-2.2l-.3.6c-.2.2-.4.3-.6.4s-.5.1-.8.1-.5-.1-.7-.3c-.2-.1-.3-.3-.4-.5s-.1-.4 0-.7.2-.5.4-.7.4-.3.6-.4.5-.1.8-.1.5.1.7.3c.2.1.3.3.4.5-.1.3-.1.5-.1.8zm-.7-.1v-.4c0-.1-.1-.2-.2-.3s-.2-.1-.4-.2h-.5c-.1.1-.3.1-.4.3-.1.1-.2.3-.2.4v.5c0 .1.1.2.2.3s.2.1.4.2c.2 0 .3 0 .5-.1.1-.1.3-.1.4-.3.1-.1.2-.2.2-.4zm2.1 1.6l-.5-.2.8-2.4 2.6.3-.1.6-2-.3-.5 1.3c.1 0 .2-.1.4-.1h.5c.2 0 .4.1.6.2s.3.2.4.4.2.3.2.6 0 .4-.1.7c-.1.2-.1.5-.2.6-.1.2-.2.4-.4.5l-.6.3c-.2.1-.5.1-.7 0-.2 0-.4-.1-.6-.2s-.3-.2-.4-.3-.2-.3-.2-.5-.1-.4 0-.6l.6.1c0 .2 0 .4.1.5s.1.2.3.3c.1.1.3.1.5.2h.4c.1 0 .2-.1.3-.2l.3-.3c.1-.1.1-.3.2-.5v-.4c0-.1-.1-.3-.1-.4-.1-.1-.1-.2-.3-.3-.1-.1-.2-.1-.4-.1h-.5c-.3.1-.5.1-.6.2zm6.4 1.5l-.1.5-3.6-.4.1-.4 3-3.1.5.1-.8.9-2 2.1 2.9.3zm0-3.4l-1.1 4.9-.6-.1 1.1-4.9.6.1zm1.8 2.5l.5.1h.6c.2-.1.3-.1.4-.3.1-.1.2-.3.2-.4v-.5c0-.1-.1-.2-.2-.3s-.3-.1-.5-.2h-.5c-.2.1-.3.1-.4.3-.1.1-.2.3-.2.4l-.6-.1c.1-.2.2-.5.4-.7s.4-.3.7-.4.5-.1.9-.1c.3 0 .6.1.8.3.2.1.3.3.4.5s.1.5 0 .8c0 .1-.1.3-.2.4s-.2.3-.4.4-.3.2-.5.2c-.2.1-.5.1-.7 0l-.5-.1-.2-.3zm-.2.5l.1-.4.5.1c.3 0 .6.1.8.2s.3.2.4.4c.1.1.1.3.2.4v.5c-.1.2-.1.4-.3.6-.1.2-.3.3-.4.4-.2.1-.4.2-.6.2h-.7c-.2 0-.4-.1-.6-.2s-.3-.2-.4-.3-.2-.3-.2-.5v-.6l.6.1v.5c0 .1.1.3.3.3.1.1.3.1.5.2h.5c.2-.1.3-.1.4-.3.1-.1.2-.3.2-.5v-.5c-.1-.1-.2-.3-.3-.3-.1-.1-.3-.1-.5-.2l-.5-.1zm5.8-2.1l-1.1 5-.6-.1 1-4.2-1.4.3.1-.6 2-.5v.1zm4.5 2.7l-.2.8-.3 1c-.1.3-.3.5-.5.6-.2.2-.4.3-.6.3-.2.1-.4.1-.7 0-.2 0-.4-.1-.5-.1-.2-.1-.3-.2-.4-.3s-.2-.3-.2-.5c-.1-.2-.1-.4-.1-.6s0-.5.1-.9l.2-.8a12.6 12.6 0 0 1 .3-1c.1-.3.3-.5.5-.6l.6-.3c.2 0 .4-.1.7 0 .2 0 .4.1.5.1.2.1.3.2.4.3s.2.3.2.4c.1.2.1.4.1.6.1.4 0 .7-.1 1zm-.8.8l.2-1c.1-.2.1-.4.1-.6v-.4c0-.1-.1-.2-.1-.3l-.2-.2c-.1 0-.2-.1-.3-.1h-.4c-.1 0-.2.1-.4.2-.1.1-.2.3-.3.4-.1.2-.2.4-.2.7l-.2 1c-.1.2-.1.4-.1.6v.5c0 .1.1.2.1.3.1.1.1.2.2.2s.2.1.3.1h.4c.1 0 .2-.1.4-.2.1-.1.2-.3.3-.5s.1-.4.2-.7zm4.8-.3l-.2.8-.3 1c-.1.3-.3.5-.5.6-.2.2-.4.3-.6.3-.2.1-.4.1-.7 0-.2 0-.4-.1-.5-.1-.2-.1-.3-.2-.4-.3s-.2-.3-.2-.5c-.1-.2-.1-.4-.1-.6s0-.5.1-.9l.2-.8a12.6 12.6 0 0 1 .3-1c.1-.3.3-.5.5-.6l.6-.3c.2 0 .4-.1.7 0 .2 0 .4.1.5.1.2.1.3.2.4.3s.2.3.2.4c.1.2.1.4.1.6 0 .4 0 .7-.1 1zm-.8.8l.2-1c.1-.2.1-.4.1-.6v-.4c0-.1-.1-.2-.1-.3l-.2-.2c-.1 0-.2-.1-.3-.1h-.4c-.1 0-.2.1-.4.2-.1.1-.2.3-.3.4-.1.2-.2.4-.2.7l-.2 1c0 .2-.1.4-.1.6v.5c0 .1.1.2.1.3.1.1.1.2.2.2s.2.1.3.1h.4c.1 0 .2-.1.4-.2.1-.1.2-.3.3-.5 0-.2.1-.4.2-.7zm4.8-.3l-.2.8-.3 1c-.1.3-.3.5-.5.6-.2.2-.4.3-.6.3-.2.1-.4.1-.7 0-.2 0-.4-.1-.5-.1-.2-.1-.3-.2-.4-.3s-.2-.3-.2-.5c-.1-.2-.1-.4-.1-.6s0-.5.1-.9l.2-.8a12.6 12.6 0 0 1 .3-1c.1-.3.3-.5.5-.6l.6-.3c.2 0 .4-.1.7 0 .2 0 .4.1.5.1.2.1.3.2.4.3s.2.3.2.4c.1.2.1.4.1.6 0 .4 0 .7-.1 1zm-.8.8l.2-1c.1-.2.1-.4.1-.6v-.4c0-.1-.1-.2-.1-.3l-.2-.2c-.1 0-.2-.1-.3-.1h-.4c-.1 0-.2.1-.4.2-.1.1-.2.3-.3.4-.1.2-.2.4-.2.7l-.2 1c-.1.2-.1.4-.1.6v.5c0 .1.1.2.1.3.1.1.1.2.2.2s.2.1.3.1h.4c.1 0 .2-.1.4-.2.1-.1.2-.3.3-.5 0-.2.1-.4.2-.7z" class="R"/><path d="M240.5 210.3l1.1.1c-.1.4-.3.7-.6 1s-.6.5-.9.6c-.4.1-.8.2-1.3.1-.4 0-.7-.1-1-.3a1.7 1.7 0 0 1-.6-.6c-.2-.3-.2-.6-.3-.9 0-.4 0-.7.1-1.2l.1-.4c.1-.4.2-.8.4-1.1s.4-.6.7-.8.6-.4.9-.5.7-.1 1-.1c.5.1.9.2 1.2.4s.5.5.6.8.1.7.1 1.1l-1.1-.1v-.6c0-.2-.1-.3-.3-.4-.1-.1-.4-.2-.6-.2h-.6c-.2.1-.3.2-.5.3-.1.1-.3.3-.4.6-.1.2-.2.5-.3.8l-.1.4c-.1.3-.1.6-.1.8s0 .4.1.6.2.3.3.4.3.2.5.2h.7c.2-.1.3-.2.5-.3.2-.2.3-.4.4-.7zm3.9-3.8l-1.4 6.1-1.1-.1 1.4-6.1 1.1.1zm-1.1 3.8h-.3l.3-.8c.1-.2.3-.4.5-.6s.4-.3.6-.4.5-.1.7-.1.4.1.6.2.3.2.4.3.2.3.2.5 0 .5-.1.8l-.6 2.7-1.1-.1.6-2.7c0-.2.1-.4 0-.5 0-.1-.1-.2-.2-.3s-.2-.1-.4-.1h-.5c-.1 0-.3.1-.4.2s-.2.2-.3.4c.1.2.1.3 0 .5zm5.2 3.1c-.3 0-.6-.1-.9-.3-.2-.1-.4-.3-.6-.5l-.3-.7v-.8-.2c.1-.3.2-.6.4-.9s.3-.5.6-.6.5-.3.7-.4c.3-.1.6-.1.9-.1s.6.1.8.3a1.2 1.2 0 0 1 .5.5c.1.2.2.4.2.7s0 .6-.1.9l-.1.4-3.4-.4.2-.7 2.4.3v-.1-.5c0-.1-.1-.3-.2-.4s-.3-.2-.4-.2c-.2 0-.3 0-.4.1s-.2.1-.4.2c-.1.1-.2.2-.3.4s-.1.3-.2.6v.2c0 .2-.1.3 0 .5 0 .2.1.3.1.4l.3.3c.1.1.3.1.5.1s.4 0 .6-.1l.6-.3.4.6c-.1.1-.3.2-.5.3s-.4.2-.6.2c-.3.2-.6.2-.8.2zm4.3-3l-.8 3.4-1.1-.1 1-4.3 1 .1-.1.9zm-.4 1h-.3l.3-.8c.1-.2.3-.4.5-.6s.4-.3.6-.4.5-.1.7-.1.4.1.5.2c.2.1.3.2.4.3s.2.3.2.5 0 .5-.1.8l-.6 2.7-1.1-.1.6-2.7c0-.2.1-.4 0-.5 0-.1-.1-.2-.2-.3s-.2-.1-.4-.1h-.5c-.1 0-.3.1-.4.2s-.2.2-.3.4.1.3.1.5zm5-.5l-.8 3.4-1.1-.1 1-4.3 1 .1-.1.9zm-.4 1.1h-.3l.3-.8c.1-.2.3-.4.5-.6s.4-.3.6-.4.5-.1.7-.1.4.1.5.2c.2.1.3.2.4.3s.1.3.2.5c0 .2 0 .5-.1.8l-.6 2.7-1.1-.1.6-2.7v-.5c0-.1-.1-.2-.2-.3s-.2-.1-.4-.1h-.5c-.1 0-.3.1-.4.2s-.2.2-.3.4c.2.1.1.3.1.5zm5.8 2.1l.5-2v-.4c0-.1-.1-.2-.2-.3s-.2-.1-.4-.1h-.4c-.1 0-.2.1-.3.2s-.1.2-.2.3l-1.1-.1c0-.2.1-.3.2-.5s.3-.3.5-.4.4-.2.6-.2h.8c.3 0 .6.1.8.3.2.1.4.3.5.6.1.2.1.5 0 .9l-.4 1.9c0 .2-.1.4-.1.6v.4.1l-1.1-.1v-.4l.3-.8zm.5-1.7l-.1.6-.7-.1h-.4c-.1 0-.2.1-.3.1-.1.1-.2.1-.2.2-.1.1-.1.2-.1.3v.3c0 .1.1.2.2.2.1.1.2.1.3.1.2 0 .4 0 .5-.1.2-.1.3-.1.4-.2s.2-.2.2-.3l.2.5c-.1.1-.1.2-.2.3s-.2.2-.4.3c-.1.1-.3.2-.5.2s-.4.1-.6 0c-.3 0-.5-.1-.7-.3-.2-.1-.3-.3-.4-.5s-.1-.4 0-.7c.1-.2.1-.4.3-.6.1-.2.3-.3.5-.4s.4-.2.7-.2h.9l.4.3zm3.4-1.3l-1 4.3-1.1-.1 1-4.3 1.1.1zm-.9-1.2c0-.2.1-.3.2-.4s.3-.1.5-.1.3.1.4.2.1.3.1.4c0 .2-.1.3-.3.4-.1.1-.3.1-.5.1s-.3-.1-.4-.2v-.4z" class="Q"/><path d="M235.2 219.7l2.1-4.8.5.1-2.1 4.8-.5-.1zm1.4.1l2.1-4.8.5.1-2.1 4.8-.5-.1zm2.6-2.8l-3.6-.4.1-.5 3.6.4-.1.5zm-.6 1.6l-3.6-.4.1-.5 3.6.4-.1.5zm3.7-3.2l-1.1 5-.6-.1 1-4.2-1.4.3.1-.6 2-.5v.1zm4.5 2.8l-.2.8-.3 1c-.1.3-.3.5-.5.6-.2.2-.4.3-.6.3-.2.1-.4.1-.7 0-.2 0-.4-.1-.5-.1-.2-.1-.3-.2-.4-.3s-.2-.3-.2-.5c-.1-.2-.1-.4-.1-.6s0-.5.1-.9l.2-.8a12.6 12.6 0 0 1 .3-1c.1-.3.3-.5.5-.6l.6-.3c.2 0 .4-.1.7 0 .2 0 .4.1.5.1.2.1.3.2.4.3s.2.3.2.4c.1.2.1.4.1.6 0 .3 0 .6-.1 1zm-.8.7l.2-1c.1-.2.1-.4.1-.6v-.4c0-.1-.1-.2-.1-.3l-.2-.2c-.1 0-.2-.1-.3-.1h-.4c-.1 0-.2.1-.4.2-.1.1-.2.3-.3.4-.1.2-.2.4-.2.7l-.2 1c-.1.2-.1.4-.1.6v.5c0 .1.1.2.1.3s.1.2.2.2.2.1.3.1h.4c.1 0 .2-.1.4-.2.1-.1.2-.3.3-.5 0-.2.1-.4.2-.7zm4.8-.3l-.2.8-.3 1c-.1.3-.3.5-.5.6-.2.2-.4.3-.6.3-.2.1-.4.1-.7 0-.2 0-.4-.1-.5-.1-.2-.1-.3-.2-.4-.3s-.2-.3-.2-.5c-.1-.2-.1-.4-.1-.6s0-.5.1-.9l.2-.8a12.6 12.6 0 0 1 .3-1c.1-.3.3-.5.5-.6l.6-.3c.2 0 .4-.1.7 0 .2 0 .4.1.5.1.2.1.3.2.4.3s.2.3.2.4c.1.2.1.4.1.6 0 .4-.1.7-.1 1zm-.9.8l.2-1c.1-.2.1-.4.1-.6v-.4c0-.1-.1-.2-.1-.3l-.2-.2c-.1 0-.2-.1-.3-.1h-.4c-.1 0-.2.1-.4.2-.1.1-.2.3-.3.4-.1.2-.2.4-.2.7l-.2 1c-.1.2-.1.4-.1.6v.5c0 .1.1.2.1.3.1.1.1.2.2.2s.2.1.3.1h.4c.1 0 .2-.1.4-.2.1-.1.2-.3.3-.5s.2-.4.2-.7z" class="R"/><path d="M327.9 151.6l-9.1 12.8-50.2-6.2 3.1-13.6 56.2 7z" class="S U V"/><path d="M283 155.5l-.2.8-3.1-.4.2-.8 3.1.4zm-1.7-5.3L280 156l-1-.1 1.3-5.8 1 .1zm1.9 2.7l-.2.8-2.7-.3.2-.8 2.7.3zm.9-2.3l-.2.8-3.1-.4.2-.8 3.1.4zm3.4 4.4l1 .1c-.1.4-.3.7-.6 1a1.8 1.8 0 0 1-.9.6c-.4.1-.8.2-1.3.1-.4 0-.7-.1-.9-.3a1.7 1.7 0 0 1-.6-.6c-.2-.3-.2-.6-.3-.9 0-.3 0-.7.1-1.1l.1-.5c.1-.4.2-.8.4-1.1a2.7 2.7 0 0 1 .7-.8c.3-.2.6-.4.9-.5s.7-.1 1-.1c.5.1.8.2 1.1.4s.5.5.6.8.1.7.1 1.1l-1-.1v-.7c0-.2-.1-.3-.3-.5-.2-.1-.4-.2-.7-.2-.2 0-.4 0-.6.1s-.4.2-.5.3c-.2.1-.3.3-.4.6-.1.2-.2.5-.3.8l-.1.5c-.1.3-.1.6-.1.8s0 .5.1.6c.1.2.2.3.3.4s.3.2.6.2h.7c.2-.1.4-.2.5-.3.2-.3.4-.5.4-.7zm7 1.2v-.3c0-.1-.1-.2-.1-.3l-.3-.3c-.1-.1-.3-.2-.6-.3s-.5-.2-.7-.4c-.2-.1-.4-.3-.5-.4-.1-.2-.2-.3-.3-.5s-.1-.4 0-.6l.3-.6c.1-.2.3-.3.5-.4s.5-.2.7-.2c.3 0 .6-.1.9 0 .4.1.8.2 1.1.4s.5.4.6.7.1.6.1.9l-1-.1v-.5c0-.2-.1-.3-.3-.4-.1-.1-.3-.2-.6-.2h-.6c-.2.1-.3.1-.4.2s-.2.2-.2.4v.3c0 .1.1.2.2.3l.3.3c.1.1.3.2.5.3.3.1.6.3.8.4a1.2 1.2 0 0 1 .5.5c.1.2.2.3.2.5v.6c-.1.2-.2.5-.3.6-.1.2-.3.3-.5.4s-.5.2-.7.2h-.9c-.3 0-.5-.1-.8-.2s-.5-.2-.7-.4-.3-.4-.4-.6-.1-.5 0-.8l1 .1v.5c0 .1.1.3.2.4s.2.2.4.2c.1.1.3.1.5.1h.6c.2 0 .3-.1.4-.2 0-.3.1-.4.1-.6zm3.4 1.3h.4c.1 0 .3-.1.4-.2s.2-.2.2-.4l.9.1c-.1.3-.2.5-.4.7s-.5.4-.8.5-.6.1-.9.1-.6-.1-.8-.3a1.2 1.2 0 0 1-.5-.5c-.1-.2-.2-.5-.2-.7 0-.3 0-.6.1-.8v-.1l.3-.8c.1-.3.3-.5.5-.6.2-.2.4-.3.7-.4s.6-.1.9-.1.6.1.9.3c.2.2.4.4.5.6.1.3.1.5 0 .9l-.9-.1v-.4c0-.1-.1-.3-.2-.3-.1-.1-.3-.1-.4-.2-.2 0-.4 0-.5.1s-.3.2-.4.3-.2.3-.3.4c-.1.2-.1.3-.2.5v.1c0 .2-.1.3-.1.5a.9.9 0 0 0 .1.5c0 .1.1.3.2.3.2-.1.3-.1.5 0zm2.7-1.2h0c.1-.4.2-.7.4-.9.2-.3.3-.5.6-.6.2-.2.5-.3.7-.4.3-.1.6-.1.9-.1s.6.1.8.3a1.2 1.2 0 0 1 .5.5c.1.2.2.5.2.7 0 .3 0 .6-.1.9v.1l-.3.8c-.1.2-.3.5-.6.6-.2.2-.5.3-.7.4-.3.1-.6.1-.9.1s-.6-.1-.8-.3a1.2 1.2 0 0 1-.5-.5c-.1-.2-.2-.5-.2-.7-.1-.3-.1-.5 0-.9zm1 .1h0c-.1.3-.1.5-.1.6a.9.9 0 0 0 .1.5c.1.2.1.3.3.3.1.1.3.1.5.2.2 0 .3 0 .5-.1s.3-.1.4-.3c.1-.1.2-.3.3-.4.1-.2.1-.3.2-.5v-.1c0-.2.1-.4.1-.5 0-.2 0-.3-.1-.5-.1-.1-.1-.3-.3-.3-.1-.1-.3-.1-.4-.2-.2 0-.3 0-.5.1-.1.1-.3.1-.4.3-.1.1-.2.3-.3.4-.2.1-.3.3-.3.5zm5.1-.7l-.8 3.5-1-.1 1-4.3.9.1-.1.8zm1.5-.7l-.2.9h-.2-.2-.5c-.1 0-.3.1-.4.2l-.3.3c-.1.1-.1.2-.2.4h-.2c.1-.3.1-.5.3-.7.1-.2.2-.4.4-.6.1-.2.3-.3.5-.4s.4-.1.6-.1h.2.2zm1.5 4.7c-.3 0-.6-.1-.8-.3-.2-.1-.4-.3-.6-.5l-.3-.7v-.8-.2c.1-.3.2-.6.4-.9a1.7 1.7 0 0 1 .6-.6c.2-.2.5-.3.7-.4.3-.1.5-.1.8-.1s.6.1.8.3a1.2 1.2 0 0 1 .5.5c.1.2.2.4.2.7s0 .6-.1.9l-.1.4-3.4-.4.2-.7 2.4.3v-.1-.5c0-.2-.1-.3-.2-.4s-.3-.2-.5-.2-.3 0-.5.1c-.1.1-.3.1-.4.2s-.2.3-.3.4c-.1.2-.2.4-.2.6v.2c0 .2-.1.4 0 .5 0 .2.1.3.1.4s.2.2.3.3.3.1.5.2c.2 0 .5 0 .7-.1l.6-.3.4.5c-.1.1-.3.2-.5.3s-.4.2-.6.2c-.2.2-.4.2-.7.2z" class="Q"/><ellipse transform="matrix(.8191 -.5737 .5737 .8191 -39.012 177.0887)" cx="261.3" cy="150.4" rx="12.3" ry="11.1" class="S U V"/><defs><path id="H" d="M256.7 143.9l11.8 1.4-2.7 11.6-11.8-1.5z"/></defs><clipPath id="I"><use href="#H"/></clipPath><g clip-path="url(#I)" class="Q"><path d="M266.4 154.4c0-.1 0-.1 0 0v-.2h0 0 0 0 0 0 0v-.1h0 0v-.1-.1-.3-.1-.1-.2-.1-.1-.1-.1-.1-.1s0-.1-.1 0l-2.1.3s-.1 0-.1.1v.1.1.1.2.1.1.2h0 0 0 0v.1h0 0 0 0 0 0v.1.1.1.1.1.1l2.4.3h.1v-.1-.1c-.2-.2-.2-.2-.2-.3zm-.1-2.6c.1 0 .1-.1 0 0v-.1-.1-.1-.1-.1-.1-.1-.1-.1-.1-.1c0-.1-.1-.2-.1-.3v-.1h0 0s0-.1-.1-.1c0 0 0-.1-.1-.1v-.1-.1-.1-.1l-.1-.1-.1-.1-.1-.1s0-.1-.1-.1c0 0 0-.1-.1-.1 0 0 0-.1-.1-.1l-.1-.1-.1-.1c-.1-.1 0 0 0-.1l-.1-.1h-.1l-1.4 1.1v.1.1.1.1.1.1.1.1.1.1h0 0c0 .1 0 .1.1.2v.1.1.1.1.1.1.1s0 .1.1 0l2.5.1zm-4.9-3c0 .1.1.1 0 0h.1.1.1l1-1.3h-.1-.1-.1-.1-.1-.1-.1-.1-.1-.1s-.1 0-.1.1l-.2 1.2c-.1 0-.1 0 0 0zm1.7 1l.1.1h.1l1.2-1.2v-.1l-.1-.1s-.1 0-.1-.1c0 0-.1 0-.1-.1s-.1 0-.1-.1c0 0-.1 0-.1-.1 0 0-.1 0-.1-.1 0 0-.1 0-.1-.1l-.8 1.6c0 .2 0 .2.1.3-.1-.1 0-.1 0 0zm-2.9-1.1h0 .1.1.1.1.1.1.1s.1 0 .1-.1l.2-1.2s0-.1-.1-.1h-.1-.1-.1-.1-.1-.1-.1-.1-.1-.1-.1-.1-.1-.1-.1-.1-.1-.1-.1-.1-.1-.1-.1-.1-.1-.1-.1-.1-.1-.1-.1-.1v.1l.3.8h.1.1.1.1.1.1.1.1.1.1.1.1.1.1.1.1.1.1.1.1.1.1l-.2.5zm-3.6.5l-.1.1-.1.1-.1.1-.1.1h0 0v.1l-.2.2-.1.1v.1.1s0 .1-.1.1c0 0 0 .1-.1.1 0 0 0 .1-.1.1 0 0 0 .1-.1.1v.1.1.1.1l.4.2h.1v-.1-.1l.1-.1.1-.1.1-.1s0-.1.1-.1l.1-.1.2-.2h0 0l.1-.1.1-.1s.1 0 .1-.1c0 0 .1 0 .1-.1 0 0 .1 0 .1-.1 0 0 .1 0 .1-.1 0 0 .1 0 .1-.1h.1.1.1.1v-.1l-.4-.7h-.1l-.1.1c-.1.1-.1 0-.1.1 0 0-.1 0-.1.1 0 0-.1 0-.1.1l-.1.1-.1.1-.1.1c.1-.4.1-.4 0-.3zm-1.5 2s0 .1 0 0v.1.1.1c0 .1-.1.1-.1.2v.1.1c0 .1 0 .2-.1.3h0 0v.1.1h0 0v.1h0 0 0 0v.1.1.1.1.1.1.1.1h.2s.1 0 .1-.1v-.1-.1-.1-.1-.1-.1-.1h0 0 0 0 0 0v-.1h0 0v-.1-.1h0 0c0-.1.1-.2.1-.2v-.1-.1c0-.1.1-.1.1-.2v-.1-.1-.1-.1h-.3 0z"/><path d="M259.3 153.9c.1.1.3.1.4.1.4 0 .7-.1 1-.4 0-.1.1-.1.1-.2l1.9-4 .7-1.5.4-.9c.1-.1 0-.2-.1-.2s-.1 0-.2.1l-.7.9-1 1.3-2.8 3.6c-.2.3-.1.9.3 1.2zm.8-1.3c.3 0 .4.3.4.5-.1.3-.3.4-.6.4s-.4-.3-.4-.5c.1-.2.3-.4.6-.4z"/></g><path d="M262.4 181.3h.2a4.8 4.8 0 0 0 2.1-.1c.6-.1 1.1-.4 1.5-.7s.8-.7 1-1.2a4.3 4.3 0 0 0 .6-1.7l.5-2.4c.1-.5.2-1 .1-1.3 0-.4-.1-.7-.2-1s-.3-.5-.5-.7-.5-.3-.8-.3-.6 0-.9.1-.5.3-.8.5c-.2.2-.4.5-.6.8s-.3.7-.4 1-.1.7-.1 1 .1.6.2.9.3.5.5.7.5.3.9.3c.3 0 .6 0 .9-.1s.6-.2.8-.4l.6-.6c.2-.2.3-.5.4-.8l.8.5a3.8 3.8 0 0 1-.6 1.3c-.3.4-.6.8-1 1.1s-.9.5-1.4.7c-.5.1-1 .2-1.5.1-.6-.1-1.2-.3-1.6-.5-.4-.3-.8-.7-1-1.1s-.4-.9-.4-1.5 0-1.1.1-1.7a5.1 5.1 0 0 1 .7-1.7c.3-.5.7-1 1.2-1.4s1-.7 1.6-.8a4 4 0 0 1 1.9-.1c.7.1 1.3.3 1.8.6s.9.8 1.1 1.3c.3.5.4 1.1.5 1.8s0 1.4-.2 2.2l-.2.8c-.2.8-.4 1.6-.8 2.3a7.6 7.6 0 0 1-1.2 1.9 5.8 5.8 0 0 1-1.7 1.4c-.6.4-1.3.6-2.1.8-.8.1-1.6.2-2.6 0h-.2l.8-2zm10.8 1.3h.2a4.8 4.8 0 0 0 2.1-.1c.6-.1 1.1-.4 1.5-.7s.8-.7 1-1.2a4.3 4.3 0 0 0 .6-1.7l.5-2.4c.1-.5.2-1 .1-1.3 0-.4-.1-.7-.2-1s-.3-.5-.5-.7-.5-.3-.8-.3-.6 0-.9.1-.5.3-.8.5c-.2.2-.4.5-.6.8s-.3.7-.4 1-.1.7-.1 1 .1.6.2.9.3.5.5.7.5.3.9.3c.3 0 .6 0 .9-.1s.6-.2.8-.4l.6-.6c.2-.2.3-.5.4-.8l.8.5a3.8 3.8 0 0 1-.6 1.3c-.3.4-.6.8-1 1.1s-.9.5-1.4.7c-.5.1-1 .2-1.5.1-.6-.1-1.2-.3-1.6-.5-.4-.3-.8-.7-1-1.1s-.4-.9-.4-1.5 0-1.1.1-1.7a5.1 5.1 0 0 1 .7-1.7c.3-.5.7-1 1.2-1.4s1-.7 1.6-.8a4 4 0 0 1 1.9-.1c.7.1 1.3.3 1.8.6s.9.8 1.1 1.3c.3.5.4 1.1.5 1.8s0 1.4-.2 2.2l-.2.8c-.2.8-.4 1.6-.8 2.3a7.6 7.6 0 0 1-1.2 1.9 5.8 5.8 0 0 1-1.7 1.4c-.6.4-1.3.6-2.1.8-.8.1-1.6.2-2.6 0h-.2l.8-2zm10.7 1.4h.2a4.8 4.8 0 0 0 2.1-.1c.6-.1 1.1-.4 1.5-.7s.8-.7 1-1.2a4.3 4.3 0 0 0 .6-1.7l.5-2.4c.1-.5.2-1 .1-1.3 0-.4-.1-.7-.2-1s-.3-.5-.5-.7-.5-.3-.8-.3-.6 0-.9.1-.5.3-.8.5c-.2.2-.4.5-.6.8s-.3.7-.4 1-.1.7-.1 1 .1.6.2.9.3.5.5.7.5.3.9.3c.3 0 .6 0 .9-.1s.6-.2.8-.4l.6-.6c.2-.2.3-.5.4-.8l.8.5a3.8 3.8 0 0 1-.6 1.3c-.3.4-.6.8-1 1.1a6.1 6.1 0 0 1-1.4.7c-.5.2-1 .2-1.5.1-.6-.1-1.2-.3-1.6-.6s-.8-.7-1-1.1-.4-.9-.4-1.5 0-1.1.1-1.7a5.1 5.1 0 0 1 .7-1.7c.3-.5.7-1 1.2-1.4s1-.7 1.6-.8a4 4 0 0 1 1.9-.1c.7.1 1.3.3 1.8.6s.9.8 1.1 1.3c.3.5.4 1.1.5 1.8s0 1.4-.2 2.2l-.2.8c-.2.8-.4 1.6-.8 2.3a7.6 7.6 0 0 1-1.2 1.9 5.8 5.8 0 0 1-1.7 1.4c-.6.4-1.3.6-2.1.8-.8.1-1.6.2-2.6 0h-.2l.8-1.9zm10.8 1.3h.2a4.8 4.8 0 0 0 2.1-.1c.6-.1 1.1-.4 1.5-.7s.8-.7 1-1.2a4.3 4.3 0 0 0 .6-1.7l.5-2.4c.1-.5.2-1 .1-1.3 0-.4-.1-.7-.2-1s-.3-.5-.5-.7-.5-.3-.8-.3-.6 0-.9.1-.5.3-.8.5c-.2.2-.4.5-.6.8s-.3.7-.4 1-.1.7-.1 1 .1.6.2.9.3.5.5.7.5.3.9.3c.3 0 .6 0 .9-.1s.6-.2.8-.4l.6-.6c.2-.2.3-.5.4-.8l.8.5a3.8 3.8 0 0 1-.6 1.3c-.3.4-.6.8-1 1.1s-.9.5-1.4.7c-.5.1-1 .2-1.5.1-.6-.1-1.2-.3-1.6-.5-.4-.3-.8-.7-1-1.1s-.4-.9-.4-1.5 0-1.1.1-1.7a5.1 5.1 0 0 1 .7-1.7c.3-.5.7-1 1.2-1.4s1-.7 1.6-.8a4 4 0 0 1 1.9-.1c.7.1 1.3.3 1.8.6s.9.8 1.1 1.3c.3.5.4 1.1.5 1.8s0 1.4-.2 2.2l-.2.8c-.2.8-.4 1.6-.8 2.3a7.6 7.6 0 0 1-1.2 1.9 5.8 5.8 0 0 1-1.7 1.4c-.6.4-1.3.6-2.1.8-.8.1-1.6.2-2.6 0h-.2l.8-2z" class="Q"/><g class="S U V"><path d="M340.5 167.1l9.1-12.8 50.2 6.2-3.1 13.6-56.2-7z"/><ellipse transform="matrix(.8191 -.5737 .5737 .8191 -22.9186 264.0551)" cx="407.2" cy="168.4" rx="12.3" ry="11.1"/></g><defs><path id="J" d="M402.6 161.9l11.8 1.4-2.7 11.6-11.7-1.5z"/></defs><clipPath id="K"><use href="#J"/></clipPath><g clip-path="url(#K)" class="Q"><path d="M410.8 166.2l-.8 3.6v.1c-.1.3-.2.7-.7 1.1-.6.6-1.6 1.1-3.1 1.5-1.2-.7-1.9-1.5-2.2-2.2-.2-.5-.2-.9-.1-1.2v-.1l.8-3.6 3 .4 3.1.4zm.7-.5l-3.6-.4-3.6-.4-1 4.2c-.1.6-.6 2.1 2.8 4.2 4.1-1.1 4.3-2.7 4.5-3.3l.9-4.3z"/><path d="M406.8 169.4l-.6-.1-.3 1.4-1.1-.1.9-4 1.8.2c.5.1.9.2 1.2.5.3.2.3.6.2.9s-.2.5-.3.7c-.2.2-.4.3-.7.4l.6 1.7h0l-1.2-.1-.5-1.5zm-.4-.8l.7.1c.2 0 .4 0 .5-.1s.2-.2.2-.4 0-.3-.1-.4-.2-.2-.4-.2l-.7-.1-.2 1.1zm3-4.4l-1-1.1-1.5.8-1.2-.5-.3 1.3 2.5.3 2.5.3.3-1.3-1.3.2z"/></g><g class="Q"><path d="M362 160.2l2.1.3 1.1.3c.3.2.5.4.6.7s.1.6 0 1c-.1.3-.2.5-.3.7-.2.2-.4.4-.6.5a6.9 6.9 0 0 1-.8.3l-.3.1-1.9-.2.2-.8 1.4.2c.2 0 .5 0 .6-.1.2-.1.3-.2.4-.3s.2-.3.2-.5v-.5c0-.2-.1-.3-.3-.4-.1-.1-.3-.2-.6-.2l-1.1-.1-1.1 5-1-.1 1.4-5.9zm2.1 6.1l-.8-2.8 1.1.1.8 2.7v.1l-1.1-.1zm7.3-.6v-.3c0-.1-.1-.2-.1-.3l-.3-.3c-.1-.1-.3-.2-.6-.3s-.5-.2-.7-.4c-.2-.1-.4-.3-.5-.4-.1-.2-.2-.3-.3-.5s-.1-.4 0-.6l.3-.6c.1-.2.3-.3.5-.4s.5-.2.7-.2c.3 0 .6-.1.9 0 .4.1.8.2 1.1.4s.5.4.6.7.1.6.1.9l-1-.1v-.5c0-.2-.1-.3-.3-.4-.1-.1-.3-.2-.6-.2h-.6c-.2.1-.3.1-.4.2s-.2.2-.2.4v.3c0 .1.1.2.2.3l.3.3c.1.1.3.2.5.3.3.1.6.3.8.4a1.2 1.2 0 0 1 .5.5c.1.2.2.3.2.5v.6c-.1.2-.2.5-.3.6-.1.2-.3.3-.5.4s-.5.2-.7.2h-.9c-.3 0-.6-.1-.8-.2-.3-.1-.5-.2-.7-.4s-.3-.4-.4-.6-.1-.5 0-.8l1 .1v.5c0 .1.1.3.2.4s.2.2.4.2c.1.1.3.1.5.1h.6c.2 0 .3-.1.4-.2 0-.3.1-.4.1-.6zm3.4 1.2h.4c.1 0 .3-.1.4-.2s.2-.2.2-.4l.9.1c-.1.3-.2.5-.4.7s-.5.4-.8.5-.6.1-.9.1-.6-.1-.8-.3a1.2 1.2 0 0 1-.5-.5c-.1-.2-.2-.5-.2-.7 0-.3 0-.5.1-.8v-.1l.3-.8c.1-.3.3-.5.5-.6.2-.2.5-.3.7-.4.3-.1.6-.1.9-.1s.6.1.9.3c.2.2.4.4.5.6.1.3.1.5 0 .9l-.9-.1v-.4c0-.1-.1-.3-.2-.3-.1-.1-.3-.1-.4-.2-.2 0-.4 0-.5.1s-.3.2-.4.3-.2.3-.3.4c-.1.2-.1.3-.2.5v.1c0 .2-.1.3-.1.5v.5c0 .1.1.3.2.3h.6zm2.7-1.1h0c.1-.4.2-.7.4-.9.2-.3.3-.5.6-.6.2-.2.5-.3.7-.4.3-.1.6-.1.9-.1s.6.1.8.3a1.2 1.2 0 0 1 .5.5c.1.2.2.5.2.7 0 .3 0 .6-.1.9v.1l-.3.8c-.2.3-.3.5-.6.6-.2.2-.5.3-.7.4-.3.1-.6.1-.9.1s-.6-.1-.8-.3a1.2 1.2 0 0 1-.5-.5c-.1-.2-.2-.5-.2-.7-.1-.3-.1-.6 0-.9zm.9.1h0c-.1.3-.1.5-.1.6a.9.9 0 0 0 .1.5c.1.2.1.3.3.3.1.1.3.1.5.2.2 0 .3 0 .5-.1s.3-.1.4-.3c.1-.1.2-.3.3-.4.1-.2.1-.3.2-.5v-.1c0-.2.1-.4.1-.5 0-.2 0-.3-.1-.5-.1-.1-.1-.3-.3-.3-.1-.1-.3-.1-.4-.2-.2 0-.3 0-.5.1-.1.1-.3.1-.4.3-.1.1-.2.3-.3.4s-.2.3-.3.5zm5.2-.7l-.8 3.5-1-.1 1-4.3.9.1-.1.8zm1.5-.7l-.2.9h-.2-.2-.5c-.1 0-.3.1-.4.2l-.3.3c-.1.1-.1.2-.2.4h-.2c.1-.3.1-.5.3-.7.1-.2.2-.4.4-.6s.3-.3.5-.4.4-.1.6-.1h.2.2zm1.5 4.7c-.3 0-.6-.1-.8-.3-.2-.1-.4-.3-.6-.5l-.3-.7v-.8-.2c.1-.3.2-.6.4-.9a1.7 1.7 0 0 1 .6-.6c.2-.2.5-.3.7-.4.3-.1.5-.1.8-.1s.6.1.8.3a1.2 1.2 0 0 1 .5.5c.1.2.2.4.2.7s0 .6-.1.9l-.1.4-3.4-.4.2-.7 2.4.3v-.1-.5c0-.2-.1-.3-.2-.4s-.3-.2-.5-.2h-.5c-.1.1-.3.1-.4.2s-.2.3-.3.4c-.1.2-.2.4-.2.6v.2c0 .2-.1.4 0 .5 0 .2.1.3.1.4l.3.3c.1.1.3.1.5.2.2 0 .5 0 .7-.1l.6-.3.4.5c-.1.1-.3.2-.5.3s-.4.2-.6.2c-.2.3-.4.3-.7.3zm-31.8 23.5h.2a4.8 4.8 0 0 0 2.1-.1c.6-.1 1.1-.4 1.5-.7s.8-.7 1-1.2a4.3 4.3 0 0 0 .6-1.7l.5-2.4c.1-.5.2-1 .1-1.3 0-.4-.1-.7-.2-1s-.3-.5-.5-.7-.5-.3-.8-.3-.6 0-.9.1-.5.3-.8.5c-.2.2-.4.5-.6.8s-.3.7-.4 1-.1.7-.1 1 .1.6.2.9.3.5.5.7.5.3.9.3c.3 0 .6 0 .9-.1s.6-.2.8-.4l.6-.6c.2-.2.3-.5.4-.8l.8.5a3.8 3.8 0 0 1-.6 1.3c-.3.4-.6.8-1 1.1s-.9.5-1.3.7c-.5.1-1 .2-1.5.1-.6-.1-1.2-.3-1.6-.5-.4-.3-.8-.7-1-1.1s-.4-.9-.4-1.5 0-1.1.1-1.7a5.1 5.1 0 0 1 .7-1.7c.3-.5.7-1 1.2-1.4s1-.7 1.6-.8a4 4 0 0 1 1.9-.1c.7.1 1.3.3 1.8.6s.9.8 1.1 1.3c.3.5.4 1.1.5 1.8s0 1.4-.2 2.2l-.2.8c-.2.8-.4 1.6-.8 2.3a7.6 7.6 0 0 1-1.2 1.9 5.8 5.8 0 0 1-1.7 1.4c-.6.4-1.3.6-2.1.8-.8.1-1.6.2-2.6 0h-.2l.7-2zm10.8 1.3h.2a4.8 4.8 0 0 0 2.1-.1c.6-.1 1.1-.4 1.5-.7s.8-.7 1-1.2a4.3 4.3 0 0 0 .6-1.7l.5-2.4c.1-.5.2-1 .1-1.3 0-.4-.1-.7-.2-1s-.3-.5-.5-.7-.5-.3-.8-.3-.6 0-.9.1-.5.3-.8.5c-.2.2-.4.5-.6.8s-.3.7-.4 1-.1.7-.1 1 .1.6.2.9.3.5.5.7.5.3.9.3c.3 0 .6 0 .9-.1s.6-.2.8-.4l.6-.6c.2-.2.3-.5.4-.8l.8.5a3.8 3.8 0 0 1-.6 1.3c-.3.4-.6.8-1 1.1a6.1 6.1 0 0 1-1.4.7c-.5.1-1 .2-1.5.1-.6-.1-1.2-.3-1.6-.5-.4-.3-.8-.7-1-1.1s-.4-.9-.4-1.5 0-1.1.1-1.7a5.1 5.1 0 0 1 .7-1.7c.3-.5.7-1 1.2-1.4s1-.7 1.6-.8a4 4 0 0 1 1.9-.1c.7.1 1.3.3 1.8.6s.9.8 1.1 1.3c.3.5.4 1.1.5 1.8s0 1.4-.2 2.2l-.2.8c-.2.8-.4 1.6-.8 2.3a7.6 7.6 0 0 1-1.2 1.9 5.8 5.8 0 0 1-1.7 1.4c-.6.4-1.3.6-2.1.8-.8.1-1.6.2-2.6 0h-.2l.8-2zm10.7 1.3h.2a4.8 4.8 0 0 0 2.1-.1c.6-.1 1.1-.4 1.5-.7s.8-.7 1-1.2a4.3 4.3 0 0 0 .6-1.7l.5-2.4c.1-.5.2-1 .1-1.3 0-.4-.1-.7-.2-1s-.3-.5-.5-.7-.5-.3-.8-.3-.6 0-.9.1-.5.3-.8.5c-.2.2-.4.5-.6.8s-.3.7-.4 1-.1.7-.1 1 .1.6.2.9.3.5.5.7.5.3.9.3c.3 0 .6 0 .9-.1s.6-.2.8-.4l.6-.6c.2-.2.3-.5.4-.8l.8.5a3.8 3.8 0 0 1-.6 1.3c-.3.4-.6.8-1.1 1.1-.4.3-.9.5-1.3.7-.5.2-1 .2-1.5.1-.6-.1-1.2-.3-1.6-.6s-.8-.7-1-1.1-.4-.9-.4-1.5 0-1.1.1-1.7a5.1 5.1 0 0 1 .7-1.7c.3-.5.7-1 1.2-1.4s1-.7 1.6-.8a4 4 0 0 1 1.9-.1c.7.1 1.3.3 1.8.6s.9.8 1.1 1.3c.3.5.4 1.1.5 1.8s0 1.4-.2 2.2l-.2.8c-.2.8-.4 1.6-.8 2.3a7.6 7.6 0 0 1-1.2 1.9 5.8 5.8 0 0 1-1.7 1.4c-.6.4-1.3.6-2.1.8-.8.1-1.6.2-2.6 0h-.2l.8-1.9zm10.8 1.4h.2a4.8 4.8 0 0 0 2.1-.1c.6-.1 1.1-.4 1.5-.7s.8-.7 1-1.2a4.3 4.3 0 0 0 .6-1.7l.5-2.4c.1-.5.2-1 .1-1.3 0-.4-.1-.7-.2-1s-.3-.5-.5-.7-.5-.3-.8-.3-.6 0-.9.1-.5.3-.8.5c-.2.2-.4.5-.6.8s-.3.7-.4 1-.1.7-.1 1 .1.6.2.9.3.5.5.7.5.3.9.3c.3 0 .6 0 .9-.1s.6-.2.8-.4l.6-.6c.2-.2.3-.5.4-.8l.8.5a3.8 3.8 0 0 1-.6 1.3c-.3.4-.6.8-1 1.1s-.9.5-1.3.7c-.5.1-1 .2-1.5.1-.6-.1-1.2-.3-1.6-.5-.4-.3-.8-.7-1-1.1s-.4-.9-.4-1.5 0-1.1.1-1.7a5.1 5.1 0 0 1 .7-1.7c.3-.5.7-1 1.2-1.4s1-.7 1.6-.8a4 4 0 0 1 1.9-.1c.7.1 1.3.3 1.8.6s.9.8 1.1 1.3c.3.5.4 1.1.5 1.8s0 1.4-.2 2.2l-.2.8c-.2.8-.4 1.6-.8 2.3a7.6 7.6 0 0 1-1.2 1.9 5.8 5.8 0 0 1-1.7 1.4c-.6.4-1.3.6-2.1.8-.8.1-1.6.2-2.6 0h-.2l.7-2zm-75.7-73.1l.9-4 2.8 2.4-3.7 1.6zm61.8 7.6l.9-4 2.8 2.4-3.7 1.6z"/></g><defs><path id="L" d="M384.9 125.2l44.1 5.4-2.7 11.6-44.1-5.4z"/></defs><clipPath id="M"><use href="#L"/></clipPath><g clip-path="url(#M)"><linearGradient id="N" gradientUnits="userSpaceOnUse" x1="390.43" y1="129.86" x2="427.21" y2="138.33"><stop offset="0" stop-color="#055fcd"/><stop offset="1" stop-color="#044aa0"/></linearGradient><path d="M429 130.6l-32.4-4-1.6 6.5c-.6 1.8-2.7 3-6.3 4.4l37.6 4.6-1.7-6.1 4.4-5.4z" fill="url(#N)"/><path d="M398.4 131.1l1.5.2c.3 0 .6.1.8.2s.4.3.4.5c.1.2.1.4 0 .7 0 .2-.1.4-.2.5l-.4.4c-.2.1-.3.2-.5.2l-.3.1-1.3-.2.1-.6 1 .1h.4c.1 0 .2-.1.3-.2s.1-.2.2-.3v-.4c0-.1-.1-.2-.2-.3s-.2-.1-.4-.1l-.7-.1-.8 3.5-.8-.1.9-4.1zm1.5 4.3l-.5-2 .8.1.6 1.9h0-.9zm1.5-1.3h0c.1-.3.1-.5.3-.7.1-.2.2-.3.4-.5.2-.1.3-.2.5-.3s.4-.1.6 0c.2 0 .4.1.6.2s.3.2.4.4.1.3.2.5v.6.1c-.1.2-.1.4-.2.6s-.2.3-.4.5c-.2.1-.3.2-.5.3s-.4.1-.6 0c-.2 0-.4-.1-.6-.2s-.3-.2-.4-.4-.1-.3-.2-.5c-.2-.2-.2-.4-.1-.6zm.8 0h0c0 .2-.1.3-.1.4s0 .2.1.3.1.2.2.2c.1.1.2.1.3.1h.3c.1 0 .2-.1.3-.2s.1-.2.2-.3.1-.2.1-.4v-.1-.4c0-.1 0-.2-.1-.3 0-.1-.1-.2-.2-.2-.1-.1-.2-.1-.3-.1h-.3c-.1 0-.2.1-.3.2s-.1.2-.2.3v.5zm3.7 1.5h.3c.1 0 .2-.1.2-.1.1-.1.1-.2.1-.3l.7.1c-.1.2-.2.4-.3.5-.2.1-.3.3-.5.3-.2.1-.4.1-.7.1-.2 0-.4-.1-.6-.2s-.3-.2-.4-.4-.1-.3-.2-.5c0-.2 0-.4.1-.6v-.1c0-.2.1-.4.2-.6s.2-.3.4-.5c.2-.1.3-.2.5-.3s.4-.1.7 0c.3 0 .5.1.6.2.2.1.3.3.4.5s.1.4 0 .6l-.7-.1v-.3c0-.1-.1-.2-.1-.2-.1-.1-.2-.1-.3-.1h-.3c-.1 0-.2.1-.2.2-.1.1-.1.2-.2.3 0 .1-.1.2-.1.3v.1c0 .1 0 .2-.1.4v.3c0 .1.1.2.1.2.2.2.3.2.4.2zm3.4-3.4l-1 4.3-.8-.1 1-4.3.8.1zm1.7 1.5l-1.7 1.3-.9.6-.1-.6.7-.6 1.1-.8.9.1zm-1.5 2.9l-.6-1.5.6-.4.9 2.1-.9-.2zm3.1-.4v-.2c0-.1-.1-.1-.2-.2s-.2-.1-.4-.2-.3-.1-.4-.2-.2-.1-.3-.2-.1-.2-.2-.3v-.4c0-.1.1-.2.2-.3l.3-.3c.1-.1.3-.1.4-.2h.5c.3 0 .5.1.7.2s.3.2.4.4.1.3 0 .5l-.8-.1v-.2c0-.1-.1-.1-.1-.2-.1-.1-.2-.1-.3-.1h-.3c-.1 0-.1.1-.2.1 0 .1-.1.1-.1.2v.1s0 .1.1.1c0 0 .1.1.2.1s.2.1.3.1l.6.3c.2.1.3.2.3.3s.1.3 0 .5c0 .1-.1.3-.2.4l-.3.3c-.1.1-.3.1-.4.1h-.5c-.3 0-.5-.1-.7-.2s-.3-.3-.4-.4c-.1-.2-.1-.3 0-.5l.7.1v.3c0 .1.1.1.2.2.1 0 .2.1.3.1h.3c.1 0 .2-.1.2-.1s.1-.1.1-.1zm3.3-1.9l-.1.5-1.8-.2.1-.5 1.8.2zm-1.1-.9l.8.1-.7 2.9v.2c0 .1 0 .1.1.1h.2.1.1l-.1.6h-.2-.3c-.2 0-.3-.1-.4-.1-.1-.1-.2-.2-.2-.3v-.5l.6-3zm2.8 3.6l.3-1.4v-.3c0-.1-.1-.1-.1-.2-.1-.1-.2-.1-.3-.1h-.3c-.1 0-.2.1-.2.1-.1.1-.1.1-.1.2l-.8-.1c0-.1.1-.2.2-.3l.3-.3c.1-.1.3-.1.5-.2h.6c.2 0 .4.1.6.2s.3.2.4.4.1.4 0 .6l-.3 1.3c0 .2-.1.3-.1.4v.3h0l-.8-.1v-.3c0 0 0-.1.1-.2zm.3-1.2l-.1.4-.5-.1h-.3c-.1 0-.2 0-.2.1-.1 0-.1.1-.2.1 0 .1-.1.1-.1.2v.2c0 .1.1.1.1.2.1 0 .1.1.2.1h.4c.1 0 .2-.1.3-.2s.1-.1.1-.2l.1.3c0 .1-.1.2-.2.2-.1.1-.2.2-.3.2-.1.1-.2.1-.3.1h-.4c-.2 0-.4-.1-.5-.2s-.2-.2-.3-.4c-.1-.1-.1-.3 0-.5 0-.2.1-.3.2-.4l.3-.3c.1-.1.3-.1.5-.1h.6l.6.3zm2.3-.3l-.6 2.4-.8-.1.7-3.1.7.1v.7zm1.1-.6l-.2.7h-.1-.1-.3c-.1 0-.2.1-.3.1l-.2.2c0 .1-.1.2-.1.3h-.2c0-.2.1-.4.2-.5.1-.2.2-.3.3-.4s.2-.2.4-.3c.1-.1.3-.1.4-.1h.1c0 0 0 0 .1 0z" class="S"/></g><g fill="#044aa0"><path d="M394.9 125.1l-1.4 6.3v.2c-.1.5-.3 1.2-1.2 2-1.1 1-2.9 1.9-5.5 2.6-2.1-1.3-3.4-2.6-4-3.8-.4-.9-.3-1.6-.2-2.1v-.2l1.4-6.3 5.4.7 5.5.6zm1.2-.9l-6.5-.8-6.5-.8-1.7 7.3c-.2 1-1.1 3.7 5 7.3 7.3-1.9 7.7-4.7 8-5.7l1.7-7.3zm-8 6.4l-.9-.1-.6 2.4-1.7-.2 1.6-6.8 2.7.3c.8.1 1.4.4 1.8.8s.5.9.3 1.6c-.1.5-.3.8-.6 1.1s-.6.5-1.1.6l.8 2.9v.1l-1.8-.2-.5-2.5zm-.7-1.3l1.1.1c.3 0 .6 0 .8-.2.2-.1.3-.4.4-.7s0-.5-.1-.7-.3-.3-.7-.3l-1.1-.1-.4 1.9zm4.7-8.5l-1.3-2-2.2 1.6-1.6-.9-.5 2.3 3.5.4 3.5.4.5-2.3-1.9.5z"/></g><defs><path id="O" d="M323.1 117.6l44.1 5.4-2.7 11.6-44.1-5.4z"/></defs><clipPath id="P"><use href="#O"/></clipPath><g clip-path="url(#P)"><linearGradient id="Q" gradientUnits="userSpaceOnUse" x1="328.07" y1="122.16" x2="365.42" y2="130.76"><stop offset="0" stop-color="#3886e7"/><stop offset="1" stop-color="#055fcd"/></linearGradient><path d="M367.2 123l-32.4-4-1.5 6.4c-1.1 2.2-4.5 4.4-7.1 4.5l38.2 4.7-1.5-6.2 4.3-5.4z" fill="url(#Q)"/><path d="M337 123.5l.7.1.4 3.2 1.9-3 .7.1-2.5 3.9-.5-.1-.7-4.2zm-.3-.1l.7.1-.5 2.9-.3 1.3-.8-.1.9-4.2zm3.6.5l.7.1-.9 4.1-.8-.1.3-1.3.7-2.8zm2.4 3.8l.3-1.4v-.3c0-.1-.1-.1-.1-.2-.1-.1-.2-.1-.3-.1h-.3c-.1 0-.2.1-.2.1-.1.1-.1.1-.1.2l-.8-.1c0-.1.1-.2.2-.3l.3-.3c.1-.1.3-.1.5-.2h.6c.2 0 .4.1.6.2s.3.2.4.4.1.4 0 .6l-.3 1.3c0 .2-.1.3-.1.4v.3h0l-.8-.1v-.3c0 .1 0 0 .1-.2zm.4-1.2l-.1.5-.5-.1h-.3c-.1 0-.2 0-.2.1-.1 0-.1.1-.2.1 0 .1-.1.1-.1.2v.2c0 .1.1.1.1.2.1 0 .1.1.2.1h.4c.1 0 .2-.1.3-.2s.1-.1.1-.2l.1.3c0 .1-.1.2-.2.2-.1.1-.2.2-.3.2-.1.1-.2.1-.3.1h-.4c-.2 0-.4-.1-.5-.2s-.2-.2-.3-.4c-.1-.1-.1-.3 0-.5 0-.2.1-.3.2-.4l.3-.3c.1-.1.3-.1.5-.1h.6l.6.2zm2.8 1.4v-.2c0-.1-.1-.1-.2-.2s-.2-.1-.4-.2-.3-.1-.4-.2-.2-.1-.3-.2-.1-.2-.2-.3v-.4c0-.1.1-.2.2-.3l.3-.3c.1-.1.3-.1.4-.2h.5c.3 0 .5.1.7.2s.3.2.4.4.1.3 0 .5l-.8-.1v-.2c0-.1-.1-.1-.1-.2-.1-.1-.2-.1-.3-.1h-.3c-.1 0-.1.1-.2.1 0 .1-.1.1-.1.2v.1s0 .1.1.1c0 0 .1.1.2.1s.2.1.3.1l.6.3c.2.1.3.2.3.3.1.1.1.3 0 .5 0 .1-.1.3-.2.4l-.3.3c-.1.1-.3.1-.4.1h-.5c-.3 0-.5-.1-.7-.2s-.3-.3-.4-.4c-.1-.2-.1-.3 0-.5l.7.1v.3c0 .1.1.1.2.2.1 0 .2.1.3.1h.3c.1 0 .2-.1.2-.1 0 .1.1 0 .1-.1zm3.3-1.8l-.1.5-1.8-.2.1-.5 1.8.2zm-1.2-.9l.8.1-.7 2.9v.2s0 .1.1.1h.2.1.1l-.1.6h-.2-.3c-.2 0-.3-.1-.4-.1-.1-.1-.2-.2-.2-.3v-.5l.6-3zm2.4 4.2c-.2 0-.4-.1-.6-.2s-.3-.2-.4-.4-.2-.3-.2-.5v-.6-.1c.1-.2.1-.4.3-.6.1-.2.2-.3.4-.5.2-.1.3-.2.5-.3s.4-.1.6 0c.2 0 .4.1.6.2s.3.2.4.4c.1.1.1.3.1.5s0 .4-.1.6l-.1.3-2.4-.3.1-.5 1.7.2v-.1-.3c0-.1-.1-.2-.1-.3-.1-.1-.2-.1-.3-.1h-.3c-.1 0-.2.1-.3.2s-.1.2-.2.3-.1.2-.1.4v.1.4c0 .1 0 .2.1.3s.1.2.2.2c.1.1.2.1.3.1h.5c.1 0 .3-.1.4-.2l.3.4c-.1.1-.2.2-.3.2-.1.1-.3.1-.4.2h-.7zm3.1-2.2l-.6 2.4-.8-.1.7-3.1.7.1v.7zm1-.5l-.2.7h-.1-.1-.3c-.1 0-.2.1-.3.1l-.2.2c0 .1-.1.2-.1.3h-.2c0-.2.1-.4.2-.5.1-.2.2-.3.3-.4s.2-.2.4-.3c.1-.1.3-.1.4-.1h.1.1z" class="S"/></g><g class="Q"><path d="M333.2 117.5l-1.4 6.3v.2c-.1.5-.3 1.2-1.2 2-1.1 1-2.9 1.9-5.5 2.6-2.1-1.3-3.4-2.6-4-3.8-.4-.9-.3-1.6-.2-2.1v-.2l1.5-6.3 5.4.7 5.4.6zm1.3-.9l-6.5-.8-6.5-.8-1.7 7.3c-.2 1-1.1 3.7 5 7.3 7.3-1.9 7.7-4.7 8-5.7l1.7-7.3zm-10 1.7l1.2.1.4 4.3 2.3-4 1.2.1-3.4 5.7-1-.1-.7-6.1zm-.7-.1l1.2.2-.8 4.6-.3 1.4-1.5-.2 1.4-6zm5.3.7l1.2.2-1.3 5.9-1.5-.2.3-1.4 1.3-4.5z"/></g><defs><path id="R" d="M261.3 110l44.1 5.4-2.6 11.6-44.2-5.5z"/></defs><clipPath id="S"><use href="#R"/></clipPath><g clip-path="url(#S)"><linearGradient id="T" gradientUnits="userSpaceOnUse" x1="266.29" y1="114.55" x2="303.65" y2="123.15"><stop offset="0" stop-color="#589aeb"/><stop offset="1" stop-color="#3886e7"/></linearGradient><path d="M305.4 115.4l-32.4-4s-.7 5.8-2.3 7.4a13.6 13.6 0 0 1-6.2 3.4l38.2 4.7-1.7-6.1 4.4-5.4z" fill="url(#T)"/><path d="M276.8 119.7l-.1.6-2.2-.3.1-.6 2.2.3zm-1.1-3.8l-.9 4.1-.8-.1.9-4.1.8.1zm1.3 1.9l-.1.6-1.9-.2.1-.6 1.9.2zm.6-1.6l-.1.6-2.2-.3.1-.6 2.2.3zm.9 1.2l.3 1 .8-.9.8.1-1.3 1.4.6 1.7-.8-.1-.4-1.1-.8.9-.8-.1 1.3-1.4-.6-1.6.9.1zm3 .9l-.8 3.6-.8-.1 1-4.2.7.1-.1.6zm1.8 1.2h0c-.1.3-.1.5-.2.7s-.2.3-.3.5c-.1.1-.3.2-.5.3s-.3.1-.5.1-.4-.1-.5-.2-.2-.2-.3-.4c-.1-.1-.1-.3-.1-.5v-.6-.2l.3-.6c.1-.2.2-.3.3-.4s.3-.2.4-.3c.2-.1.3-.1.5 0 .2 0 .4.1.5.2s.2.2.3.4a.9.9 0 0 1 .1.5c.1 0 0 .3 0 .5zm-.8 0h0c0-.2.1-.3.1-.4v-.3c0-.1-.1-.2-.2-.2-.1-.1-.2-.1-.3-.1h-.3c-.1 0-.2.1-.2.1l-.2.2c0 .1-.1.2-.1.3l-.1.5v.4c0 .1.1.2.2.3s.2.1.4.1h.3c.1 0 .2-.1.2-.2.1-.1.1-.2.2-.3-.1-.2 0-.3 0-.4zm2.4 1.8c-.2 0-.4-.1-.6-.2s-.3-.2-.4-.4-.2-.3-.2-.5v-.6-.1c.1-.2.1-.4.3-.6.1-.2.2-.3.4-.5.2-.1.3-.2.5-.3s.4-.1.6 0c.2 0 .4.1.6.2s.3.2.4.4c.1.1.1.3.1.5s0 .4-.1.6l-.1.3-2.4-.3.1-.5 1.7.2v-.1-.3c0-.1-.1-.2-.1-.3-.1-.1-.2-.1-.3-.1h-.3c-.1 0-.2.1-.3.2s-.1.2-.2.3-.1.2-.1.4v.1.4c0 .1 0 .2.1.3s.1.2.2.2c.1.1.2.1.3.1h.5c.1 0 .3-.1.4-.2l.3.4c-.1.1-.2.2-.3.2-.1.1-.3.1-.4.2-.3.1-.5.1-.7 0zm3.1-2.1l-.6 2.4-.8-.1.7-3.1.7.1v.7zm1.1-.6l-.2.7h-.1-.1-.3c-.1 0-.2.1-.3.1l-.2.2c0 .1-.1.2-.1.3h-.2c0-.2.1-.4.2-.5.1-.2.2-.3.3-.4s.2-.2.4-.3c.1-.1.3-.1.4-.1h.1.1zm2 .3l-.1.5-1.8-.2.1-.5 1.8.2zm-1.1-.9l.8.1-.8 2.9v.2c0 .1 0 .1.1.1h.2.1.1l-.1.6h-.2-.3c-.2 0-.3-.1-.4-.1-.1-.1-.2-.2-.2-.3v-.5l.7-3z" class="S"/></g><g fill="#589aeb"><path d="M271.6 109.9l-1.5 6.3v.2c-.1.5-.3 1.2-1.2 2-1.1 1-2.9 1.9-5.5 2.6-2.1-1.3-3.4-2.6-4-3.8-.4-.9-.3-1.6-.2-2.1v-.2l1.4-6.3 5.4.7 5.6.6zm1.3-.9l-6.5-.8-6.5-.8-1.7 7.3c-.2 1-1.1 3.7 5 7.3 7.3-1.9 7.7-4.7 8-5.7l1.7-7.3zm-6.4 8.1l-.3 1.2-3.9-.5.3-1.2 3.9.5zm-2-6.2l-1.6 7-1.6-.2 1.6-7 1.6.2zm2.2 3.2l-.3 1.2-3.4-.4.3-1.2 3.4.4zm1.2-2.7l-.3 1.2-3.9-.5.3-1.2 3.9.5z"/></g><defs><path id="U" d="M433.7 85.4l14.1 1.7-3.2 13.9-14.1-1.8z"/></defs><clipPath id="V"><use href="#U"/></clipPath><g clip-path="url(#V)" class="R"><path d="M441.9 97.1l-.3 1.2-7-.9.3-1.2 7 .9zm2.7-3.9l-.3 1.2-10.6-1.3.3-1.2 10.6 1.3zm-.8-4.2l-.3 1.2-7-.9.3-1.2 7 .9z"/></g><defs><path id="W" d="M414.2 83l14.2 1.7-3.2 13.9-14.2-1.8z"/></defs><clipPath id="X"><use href="#W"/></clipPath><g clip-path="url(#X)"><path d="M425.7 88.2c-.3 1.1-1.4 1.9-2.5 1.8s-1.9-1.2-1.6-2.3 1.4-1.9 2.5-1.8c1.2.2 1.9 1.2 1.6 2.3zm-1.9 3h-.9c-.9-.1-1.6-.5-2.1-1.2s-.6-1.5-.4-2.4c.2-.8.7-1.6 1.4-2.1-.1-.1-.2-.3-.3-.4s-.3-.1-.5-.2c-.6-.1-1.3.4-1.4 1v.2a4.6 4.6 0 0 0-3.8 3.5l-.8 3.5-1.4 1-.1.6 10.6 1.3.1-.6-.9-1.3.5-2.9zm-5.6 5.9c.7.1 1.3-.4 1.4-1l-2.4-.3c-.1.3 0 .6.2.9.2.2.5.4.8.4z"/></g><g class="Q"><path d="M403.8 86.3l-1 4.3v.1c-.1.3-.2.8-.8 1.4-.7.7-2 1.3-3.7 1.8-1.4-.9-2.3-1.8-2.7-2.6a2 2 0 0 1-.1-1.5v-.1l1-4.3 3.7.5 3.6.4zm.9-.6l-4.4-.5-4.4-.5-1.2 5c-.1.7-.7 2.6 3.4 5 5-1.3 5.2-3.2 5.4-3.9l1.2-5.1zm-5.5 4.3l-.6-.1-.4 1.6-1.1-.1 1.1-4.6 1.8.2c.6.1 1 .2 1.2.5.3.3.3.6.2 1.1-.1.3-.2.6-.4.8s-.4.3-.7.4l.6 2h0l-1.2-.2-.5-1.6zm-.4-1l.7.1c.2 0 .4 0 .5-.1s.2-.2.3-.4c0-.2 0-.4-.1-.5s-.2-.2-.4-.2l-.7-.1-.3 1.2zm3.2-5.6l-.9-1.5-1.6 1.2-1.2-.7-.4 1.8 2.5.3 2.5.3.4-1.8-1.3.4z"/></g><defs><path id="Y" d="M374.2 78l14.1 1.8-3.1 13.8-14.2-1.7z"/></defs><clipPath id="Z"><use href="#Y"/></clipPath><g clip-path="url(#Z)" class="R"><path d="M382.6 88.9l2 2.8-1 .7-1.9-2.8c-1.1.6-2.4.9-3.6.7-2.9-.4-4.8-3-4.1-5.9a6 6 0 0 1 6.5-4.5c2.9.4 4.8 3 4.1 5.9a5.8 5.8 0 0 1-2 3.1zm-1.1-.5c.9-.7 1.6-1.6 1.8-2.7.5-2.2-.9-4.3-3.2-4.6a4.6 4.6 0 0 0-5 3.5c-.5 2.2.9 4.3 3.2 4.6a4.3 4.3 0 0 0 3.1-.8h.1z"/></g><g class="Q"><path d="M331.5 85.3a7.1 7.1 0 0 1-1.7-.4c-.5-.2-.8-.5-1.1-.9s-.4-1-.4-1.7a10.3 10.3 0 0 1 .4-2.7c.2-1 .5-1.9.9-2.5.3-.7.7-1.1 1.2-1.5.4-.3.9-.5 1.5-.6a5.4 5.4 0 0 1 1.8 0c.4.1.9.1 1.3.2l1.1.3c.4.1.7.2.9.3l-.3 1.3c-.2-.1-.4-.1-.7-.2s-.7-.1-1-.2c-.4-.1-.8-.1-1.2-.2a2.4 2.4 0 0 0-1.2 0c-.3.1-.7.2-.9.4-.3.2-.5.6-.7 1.1a14.5 14.5 0 0 0-.6 1.9c-.2.8-.3 1.4-.3 1.9s0 .9.2 1.2c.1.3.4.5.7.6a10.4 10.4 0 0 0 1.2.3l1.9.2h1.2l-.3 1.3c-.3 0-.6.1-1 .1h-1.2l-1.7-.2zM321.3 84c-.2 0-.5-.1-.8-.2s-.6-.2-.8-.4-.4-.4-.5-.7a2.4 2.4 0 0 1 0-1.2l1.4-5.9a3.7 3.7 0 0 1 .5-1.1c.2-.3.5-.5.7-.6.3-.1.6-.2.9-.2h.9l1.9.3 1.5.2c.5.1.9.2 1.3.2l-.3 1.4-4.3-.5c-.3 0-.6 0-.9.1-.2.1-.4.4-.5.7l-.4 1.8 4.7.7-.3 1.3-4.7-.5-.4 1.8c-.1.3-.1.5 0 .7s.2.3.3.4a.9.9 0 0 0 .5.1l4.3.5-.3 1.4c-.5 0-1 0-1.5-.1-.5 0-1.1-.1-1.6-.2-.6.1-1.1 0-1.6 0z"/></g><g class="R"><path d="M311.8 82.7c-.6-.1-1.1-.2-1.4-.4s-.5-.5-.6-.9 0-.9.1-1.5l.9-3.5-1.3-.2.3-1.1 1.4-.1.8-2 1.5.2-.5 2.1 2.1.3-.3 1.4-2.1-.3-.8 3.5c-.1.2-.1.4-.1.6s.1.3.1.4c.1.1.2.2.3.2.1.1.2.1.3.1l1 .2-.3 1.3-1.4-.3zm-7.4-.8l-1.3-.3c-.4-.2-.7-.4-.9-.7s-.4-.7-.4-1.3c-.1-.5 0-1.1.2-1.9a6.9 6.9 0 0 1 .7-1.9c.3-.5.6-.8 1-1.1a6.1 6.1 0 0 1 1.2-.5 3.8 3.8 0 0 1 1.5 0c.5.1.9.1 1.4.2s.9.2 1.4.4l-.2 1-2.2-.3c-.5-.1-.9 0-1.2.1s-.6.3-.9.7a9.1 9.1 0 0 0-.6 1.6c-.2.7-.2 1.2-.1 1.6s.2.6.5.8.7.3 1.2.3l2.3.3-.2 1c-.3 0-.6.1-.9.1h-1.1c-.6 0-1 0-1.4-.1zm-8-1a4.3 4.3 0 0 1-2-.6c-.5-.3-.8-.7-.9-1.3a6.5 6.5 0 0 1 .2-2.3c.2-1 .5-1.8.9-2.3s.8-.9 1.4-1c.6-.2 1.3-.2 2.2-.1.8.1 1.4.2 1.8.5.4.2.7.5.9.9.1.4.1.9 0 1.6-.1.5-.3.8-.6 1.1s-.6.4-1 .5a3.3 3.3 0 0 1-1.4 0l-2.4-.3c-.1.5-.1.8-.1 1.1.1.3.2.5.5.7s.7.3 1.3.3l2.5.3-.2 1h-1.4c-.5 0-1 0-1.7-.1zm-.7-4.4l2.2.3c.4 0 .6 0 .8-.1s.3-.3.4-.7c.1-.3.1-.6 0-.8s-.2-.3-.4-.4a2 2 0 0 0-.9-.2c-.4-.1-.8 0-1 .1-.3.1-.5.3-.7.6-.2.2-.3.6-.4 1.2z"/><use href="#D"/><path d="M275 78.2l1.7-7.4 1.5.2.2.8c.4-.2.8-.3 1.4-.5.5-.1 1.1-.2 1.6-.1.6.1 1.1.3 1.4.5.3.3.5.6.6 1s.1.9-.1 1.3l-1.1 4.9-1.9-.2 1.1-4.7c.1-.3.1-.5 0-.7s-.2-.4-.4-.5-.4-.2-.7-.2h-.8c-.2 0-.5.1-.7.1-.2.1-.5.2-.7.3l-1.2 5.4-1.9-.2zm-5.4-.6c-.6-.1-1.2-.2-1.6-.4s-.8-.4-1-.8-.4-.7-.4-1.2 0-1.1.2-1.9a14.5 14.5 0 0 1 .6-1.9c.3-.5.6-.8.9-1.1.4-.2.8-.4 1.3-.4.5-.1 1.1 0 1.7 0 .6.1 1.2.2 1.6.4s.8.4 1 .7.4.7.4 1.2 0 1.1-.2 1.9l-.6 1.8c-.2.5-.5.8-.9 1.1-.4.2-.8.4-1.3.5-.4.2-1 .2-1.7.1zm.4-1.4h.8c.2 0 .4-.1.6-.3.2-.1.4-.4.5-.7s.3-.8.4-1.3l.2-1.3c0-.3-.1-.6-.2-.8s-.3-.3-.5-.4-.5-.1-.8-.2h-.8c-.2 0-.4.1-.6.3-.2.1-.3.4-.5.7-.1.3-.3.7-.4 1.3a8.3 8.3 0 0 0-.2 1.3c0 .3.1.6.2.8s.3.3.5.4c.2.2.5.2.8.2zm-8.7.4a7.1 7.1 0 0 1-1.7-.4c-.5-.2-.8-.5-1.1-.9s-.4-1-.4-1.7a10.3 10.3 0 0 1 .4-2.7c.2-1 .5-1.9.9-2.5.3-.7.7-1.1 1.2-1.5.4-.3.9-.5 1.5-.6a5.4 5.4 0 0 1 1.8 0c.4.1.9.1 1.3.2l1.1.3c.4.1.7.2.9.3l-.3 1.3c-.2-.1-.4-.1-.7-.2s-.7-.1-1-.2c-.4-.1-.8-.1-1.2-.2a2.4 2.4 0 0 0-1.2 0c-.3.1-.7.2-.9.4-.3.2-.5.6-.7 1.1a14.5 14.5 0 0 0-.6 1.9c-.2.8-.3 1.4-.3 1.9s0 .9.2 1.2c.1.3.4.5.7.6a10.4 10.4 0 0 0 1.2.3l1.9.2h1.2l-.3 1.3c-.3 0-.6.1-1 .1H263l-1.7-.2zm163.3-11.4c.2.2.2.6-.1.8l-6.7 5.7c-.6.5-1.4.4-1.7-.2l-3.7-7c-.1-.3 0-.6.3-.8 1-.5 3.5-1.5 6.4-1.1a10.7 10.7 0 0 1 5.5 2.6zm12.5.1c.4-.3 1 0 .9.5l-2 8.6c-.1.6-.8 1-1.4 1l-8.8-1.1c-.5-.1-.6-.7-.2-1l11.5-8zm13.8 1.8l.8.1c.5.1.8.5.7.9l-1.9 8.3c-.1.5-.6.8-1 .7l-5.1-.6c-.5-.1-.8-.5-.7-.9l1.9-8.3c.1-.5.6-.8 1-.7l.8.1.3-1.1 3.4.4-.2 1.1z"/></g><path d="M274.2 45l-1.9 8.3-1.4-.2 1.5-6.6-2.2.4.3-1.1 3.5-.8h.2zm6.9 8.2l-.2 1.1-5.6-.7.2-.9 3.4-2.6c.4-.3.7-.6.9-.8s.4-.4.5-.6.2-.4.2-.6c.1-.3.1-.5 0-.7 0-.2-.2-.4-.3-.5l-.6-.3c-.3 0-.6 0-.8.1s-.4.3-.6.5-.3.5-.3.8l-1.4-.2a3.1 3.1 0 0 1 .6-1.3c.3-.4.7-.6 1.2-.8s1-.2 1.6-.2c.6.1 1 .2 1.4.5.3.2.6.5.7.9s.1.8 0 1.2c-.1.3-.2.5-.3.7s-.3.5-.5.7l-.7.7a5.5 5.5 0 0 0-.9.7l-2.3 1.7 3.8.6zm1.1.5c0-.2.2-.4.3-.5.2-.1.4-.2.6-.1.3 0 .4.1.5.3s.1.3.1.6c0 .2-.2.4-.3.5-.2.1-.4.2-.6.1-.2 0-.4-.1-.5-.3s-.2-.4-.1-.6zm1.1-4.8c0-.2.2-.4.3-.5.2-.1.4-.2.6-.1.3 0 .4.1.5.3s.1.3.1.6c0 .2-.2.4-.3.5-.2.1-.4.2-.6.1-.2 0-.4-.1-.5-.3s-.2-.4-.1-.6zm4.5 1.3l.8.1c.3 0 .6 0 .8-.1s.4-.2.6-.4l.3-.6c.1-.3.1-.5 0-.7 0-.2-.2-.4-.3-.5-.2-.1-.4-.2-.7-.2-.2 0-.5 0-.7.1l-.6.3c-.2.2-.3.4-.3.6l-1.4-.2c.1-.4.3-.8.6-1.1s.7-.5 1.1-.7c.5-.1.9-.2 1.4-.1s1 .2 1.4.4.6.5.8.9c.1.4.2.8 0 1.3l-.3.7-.6.6c-.3.2-.6.3-.9.4-.4.1-.7.1-1.2 0l-1-.1.2-.7zm-.3 1.1l.2-.7 1 .1 1.2.3c.3.2.6.3.7.6.2.2.3.5.3.7v.8c-.1.4-.2.7-.5 1a2.7 2.7 0 0 1-.8.7 3 3 0 0 1-1 .4c-.4.1-.8.1-1.2 0-.4 0-.7-.1-1-.3-.3-.1-.6-.3-.8-.5s-.4-.5-.5-.8a1.7 1.7 0 0 1 0-1l1.4.2c-.1.2 0 .5 0 .7.1.2.2.4.4.5s.4.2.7.2.6 0 .8-.1.4-.2.6-.4.3-.4.3-.7c.1-.3.1-.6 0-.8s-.2-.4-.4-.5-.5-.2-.8-.2l-.6-.2zm10.8.2l-.3 1.3c-.1.6-.3 1.2-.6 1.6-.2.4-.5.8-.8 1-.3.3-.6.4-1 .5s-.8.1-1.2.1c-.3 0-.6-.1-.9-.2s-.5-.3-.7-.5-.3-.5-.4-.8-.1-.7-.1-1.1.1-.9.2-1.4l.3-1.3c.1-.6.3-1.2.6-1.6.2-.4.5-.8.8-1 .3-.3.6-.4 1-.5s.8-.1 1.2-.1c.3 0 .6.1.9.2s.5.3.7.5.3.5.4.7c.1.3.1.6.1 1 0 .6-.1 1.1-.2 1.6zm-1.7 1.3l.4-1.7c.1-.3.1-.6.1-.9v-.7c0-.2-.1-.3-.2-.5l-.3-.3c-.1-.1-.3-.1-.5-.1s-.4 0-.6.1-.4.2-.5.3c-.2.2-.3.4-.4.7l-.3 1-.4 1.7c-.1.3-.1.6-.1.9v.7c0 .2.1.3.2.5l.3.3c.1.1.3.1.5.1s.4 0 .6-.1.4-.2.5-.3c.2-.2.3-.4.4-.7.1-.2.2-.6.3-1z" opacity=".6" enable-background="new"/></g><path d="M180.7 243.2L389 272.6c6.4.9 10.4 6.8 9 13.1l-25.6 111.4c-1.5 6.3-7.8 10.7-14.2 9.8l-208.3-29.4c-6.4-.9-10.4-6.8-9-13.1L166.4 253c1.5-6.3 7.9-10.7 14.3-9.8z" class="T"/><path d="M177.9 239.1l208.3 29.4c6.4.9 10.4 6.8 9 13.1L369.6 393c-1.5 6.3-7.8 10.7-14.2 9.8L147 373.4c-6.4-.9-10.4-6.8-9-13.1l25.6-111.4c1.5-6.3 7.9-10.7 14.3-9.8z" class="S"/><g class="R"><path d="M292.4 373.5l-.1.4c-.1.5-.3.9-.5 1.2s-.4.6-.7.9c-.3.2-.6.4-.9.5s-.7.1-1.1.1l-1-.3c-.3-.2-.5-.4-.7-.7s-.3-.6-.3-1 0-.8.1-1.3l.1-.4c.1-.5.3-.9.5-1.2s.4-.6.7-.9c.3-.2.6-.4.9-.5s.7-.1 1.1-.1l1 .3c.3.2.5.4.7.7s.3.6.3 1 0 .9-.1 1.3zm-.9.3l.1-.4c.1-.4.1-.7.1-1s-.1-.5-.2-.8-.2-.4-.4-.5-.4-.2-.7-.2h-.7c-.2.1-.4.2-.6.4s-.4.4-.5.7-.3.6-.3.9l-.1.4c-.1.4-.1.7-.1 1s.1.5.2.8c.1.2.2.4.4.5s.4.2.7.2h.7c.2-.1.4-.2.6-.4s.4-.4.5-.7c.1-.2.2-.5.3-.9zm2.4 3.3l-.8-.1 1.2-5c.1-.3.2-.6.4-.8s.4-.4.6-.4c.3-.1.5-.1.8-.1.1 0 .2 0 .3.1.1 0 .2.1.3.1l-.2.6c-.1 0-.1 0-.2-.1h-.2-.5c-.1 0-.2.1-.3.2s-.2.3-.2.5l-1.2 5zm2-4.4l-.1.6-2.5-.4.1-.6 2.5.4zm1 4.8l-.8-.1 1.2-5c.1-.3.2-.6.4-.8s.4-.4.6-.4c.3-.1.5-.1.8-.1.1 0 .2 0 .3.1.1 0 .2.1.3.1l-.2.6c-.1 0-.1 0-.2-.1h-.2-.5c-.1 0-.2.1-.3.2s-.2.3-.2.5l-1.2 5zm2-4.4l-.1.6-2.5-.4.1-.6 2.5.4zm1.7 5c-.3 0-.6-.1-.8-.3a1.7 1.7 0 0 1-.6-.6c-.1-.2-.2-.5-.3-.8 0-.3 0-.6.1-.9v-.2a3 3 0 0 1 .4-1c.2-.3.4-.5.6-.7s.5-.3.8-.4a1.1 1.1 0 0 1 .8 0c.3 0 .6.1.8.3.2.1.4.3.5.6.1.2.2.5.2.8s0 .6-.1.9l-.1.3-3.4-.5.1-.6 2.6.4v-.1-.6c0-.2-.1-.4-.2-.5s-.3-.2-.6-.3h-.5c-.2.1-.3.1-.5.3s-.3.3-.4.5l-.3.7v.2c0 .2-.1.4-.1.6s.1.4.2.5c.1.2.2.3.4.4s.3.2.5.2c.3 0 .5 0 .7-.1s.4-.2.6-.4l.4.4c-.1.1-.3.3-.5.4s-.4.2-.6.2c-.2.3-.4.4-.7.3zm4.4-3.4l-.9 3.8-.8-.1 1-4.5.8.1-.1.7zm1.6-.5l-.2.7c-.1 0-.1 0-.2-.1h-.2-.5c-.2 0-.3.1-.4.2l-.3.3c-.1.1-.2.3-.2.4l-.2.1c.1-.3.1-.5.3-.8.1-.2.2-.4.4-.6s.3-.3.5-.4.4-.1.7-.1h.2c0 .2 0 .2.1.3zm8.1-.5l-1.4 6.1-.8-.1-2-5.1-1.1 4.7-.8-.1 1.4-6.1.8.1 2 5.2 1.1-4.7h.8zm.2 4.1h0a3 3 0 0 1 .4-1c.2-.3.4-.5.6-.7s.5-.3.8-.4.6-.1.9-.1.6.1.8.3.4.3.6.6a6.9 6.9 0 0 1 .3.8c0 .3 0 .6-.1.9v.1c-.1.3-.2.6-.4.9s-.4.5-.6.7-.5.3-.8.4-.6.1-.9 0c-.3 0-.6-.1-.8-.3s-.4-.3-.6-.6c-.1-.2-.2-.5-.2-.8-.1-.2-.1-.5 0-.8zm.8 0h0c-.1.3-.1.5-.1.7s0 .4.1.6.2.3.3.4.3.2.5.2h.6c.2-.1.3-.2.5-.3.1-.1.3-.3.4-.5s.2-.4.2-.6v-.1c.1-.2.1-.4.1-.6s0-.4-.1-.6-.2-.3-.3-.4-.3-.2-.5-.2-.4 0-.6.1-.3.2-.5.3c-.1.1-.3.3-.4.5a4.7 4.7 0 0 1-.2.5zm6.2.2l-.1.6-2.1-.3.1-.6 2.1.3zm3.1 2.2v-.3c0-.1-.1-.2-.2-.3s-.3-.2-.6-.3c-.2-.1-.5-.2-.7-.3s-.3-.2-.5-.3c-.1-.1-.2-.3-.2-.4v-.5c0-.2.1-.3.2-.5l.4-.4c.2-.1.4-.2.6-.2h.7c.4.1.7.2.9.3.2.2.4.4.5.6s.1.5 0 .7l-.8-.1v-.4c0-.1-.1-.2-.3-.3-.1-.1-.3-.2-.5-.2h-.6c-.1 0-.3.1-.4.2s-.1.2-.2.3v.2c0 .1.1.1.1.2.1.1.2.1.3.2s.3.1.5.2c.4.1.6.3.9.4.2.2.4.3.4.5.1.2.1.4 0 .6 0 .2-.1.4-.3.5-.1.2-.3.3-.5.4s-.4.2-.6.2h-.8a3 3 0 0 1-1-.4c-.2-.2-.4-.4-.5-.6s-.1-.5-.1-.7l.8.1c0 .2 0 .4.1.5s.2.2.4.3a.9.9 0 0 0 .5.1h.6c.2 0 .3-.1.4-.2.4.2.4 0 .5-.1zm3.8-4.8l-1.5 6.4-.8-.1 1.5-6.4.8.1zm-1.1 3.9l-.3-.1.3-.8c.2-.3.3-.5.5-.6.2-.2.4-.3.7-.4s.5-.1.8-.1c.2 0 .4.1.6.2s.3.2.4.4c.1.1.2.3.2.6 0 .2 0 .5-.1.8l-.7 3-.8-.1.7-3c.1-.2.1-.4 0-.6 0-.2-.1-.3-.2-.4s-.3-.1-.5-.2h-.6c-.2.1-.3.2-.5.3-.1.1-.3.3-.4.5 0 .1-.1.3-.1.5zm3.9.8h0a3 3 0 0 1 .4-1c.2-.3.4-.5.6-.7s.5-.3.8-.4.6-.1.9-.1.6.1.8.3.4.3.6.6c.1.2.2.5.3.8 0 .3 0 .6-.1.9v.1c-.1.3-.2.6-.4.9s-.4.5-.6.7-.5.3-.8.4-.6.1-.9 0c-.3 0-.6-.1-.8-.3s-.4-.3-.6-.6c-.1-.2-.2-.5-.2-.8-.1-.2-.1-.5 0-.8zm.8 0h0c-.1.3-.1.5-.1.7s0 .4.1.6.2.3.3.4.3.2.5.2.4 0 .6-.1.3-.2.5-.3c.1-.1.3-.3.4-.5s.2-.4.2-.6v-.1c.1-.2.1-.4.1-.6s0-.4-.1-.6-.2-.3-.3-.4-.3-.2-.5-.2-.4 0-.6.1-.3.2-.5.3c-.1.1-.3.3-.4.5s-.1.4-.2.6zm5.2 2.3l2-3.6.5.1-.3.7-2.1 3.6-.5-.1.4-.7zm.1-3.8l.1 3.9-.1.8-.5-.1-.3-4.7.8.1zm2.7 4.2l1.8-3.6.8.1-2.4 4.3-.5-.1.3-.7zm-.1-3.9l.3 3.8-.1.9-.5-.1-.4-4 .1-.7.6.1z"/><path d="M163.2 352.4l-1.4 6.1-.8-.1 1.4-6.1.8.1zm1.5 2.8l-.8 3.6-.8-.1 1-4.5.7.1-.1.9zm-.4 1.1l-.3-.1.3-.8c.2-.3.3-.5.5-.6.2-.2.4-.3.7-.4s.5-.1.8-.1c.2 0 .4.1.6.2s.3.2.4.4c.1.1.2.3.2.6 0 .2 0 .5-.1.8l-.7 3-.7-.3.7-3c.1-.2.1-.4 0-.6 0-.2-.1-.3-.2-.4s-.3-.1-.5-.2h-.6c-.2.1-.3.2-.5.3-.1.1-.3.3-.4.5-.1.3-.2.5-.2.7zm6.6-1.2l-.1.6-2.5-.4.1-.6 2.5.4zm-1.4-1.4l.8.1-1 4.5v.4c0 .1.1.1.2.2s.1.1.2.1h.2.2l-.1.6h-.3-.4c-.2 0-.4-.1-.5-.2s-.2-.2-.3-.4 0-.4 0-.7l1-4.6zm3.2 6.4c-.3 0-.6-.1-.8-.3a1.7 1.7 0 0 1-.6-.6c-.1-.2-.2-.5-.3-.8 0-.3 0-.6.1-.9v-.2a3 3 0 0 1 .4-1c.2-.3.4-.5.6-.7s.5-.3.8-.4a1.1 1.1 0 0 1 .8 0c.3 0 .6.1.8.3.2.1.4.3.5.6.1.2.2.5.2.8s0 .6-.1.9l-.1.3-3.4-.5.1-.6 2.6.4v-.1-.6c0-.2-.1-.4-.2-.5s-.3-.2-.6-.3h-.5c-.2.1-.3.1-.5.3-.1.1-.3.3-.4.5l-.3.7v.2c0 .2-.1.4 0 .6 0 .2.1.4.2.5.1.2.2.3.4.4s.3.2.6.2.5 0 .7-.1.4-.2.6-.4l.4.4c-.1.1-.3.3-.5.4s-.4.2-.6.2c-.3.3-.6.3-.9.3zm4.4-3.4l-.9 3.8-.8-.1 1-4.5.8.1-.1.7zm1.6-.6l-.2.7c-.1 0-.1 0-.2-.1h-.2-.5c-.2 0-.3.1-.4.2l-.3.3c-.1.1-.2.3-.2.4l-.2.1c.1-.3.1-.5.3-.8.1-.2.2-.4.4-.6s.3-.3.5-.4.4-.1.7-.1h.2c0 .3.1.3.1.3zm1.3 4.2l2.1-3.7.8.1-2.7 4.3-.5-.1.3-.6zm-.2-4l.4 4-.1.7-.5-.1-.6-4.8.8.2zm4.8.7l-1 4.5-.8-.1 1-4.5.8.1zm-.6-1.3c0-.1.1-.2.2-.3s.2-.1.4-.1c.1 0 .3.1.3.2.1.1.1.2.1.3s-.1.2-.2.3-.2.1-.4.1-.3-.1-.3-.2c-.1-.1-.1-.2-.1-.3zm2.7 6.4c-.3 0-.6-.1-.8-.3a1.7 1.7 0 0 1-.6-.6c-.1-.2-.2-.5-.3-.8 0-.3 0-.6.1-.9v-.2a3 3 0 0 1 .4-1c.2-.3.4-.5.6-.7s.5-.3.8-.4a1.1 1.1 0 0 1 .8 0c.3 0 .6.1.8.3.2.1.4.3.5.6.1.2.2.5.2.8s0 .6-.1.9l-.1.3-3.4-.5.1-.6 2.6.4v-.1-.6c0-.2-.1-.4-.2-.5s-.3-.2-.6-.3h-.5c-.2.1-.3.1-.5.3-.1.1-.3.3-.4.5l-.3.7v.2c-.1.2-.1.4-.1.6s.1.4.2.5c.1.2.2.3.4.4s.3.2.6.2.5 0 .7-.1.4-.2.6-.4l.4.4c-.1.1-.3.3-.5.4s-.4.2-.6.2c-.2.3-.5.3-.8.3zm4.1-.4l2-3.6.5.1-.3.8-2.1 3.6-.5-.1.4-.8zm0-3.8l.1 3.9-.1.8-.5-.1-.3-4.7.8.1zm2.8 4.2l1.8-3.6.8.1-2.4 4.3-.5-.1.3-.7zm-.2-3.9l.3 3.8-.1.9-.5-.1-.4-4 .1-.7.6.1zm11 0l-1.4 6.1-.8-.1-2-5.1-1.1 4.7-.8-.1 1.4-6.1.8.1 2 5.2 1.1-4.7h.8zm.2 4h0a3 3 0 0 1 .4-1c.2-.3.4-.5.6-.7s.5-.3.8-.4.6-.1.9-.1.6.1.8.3.4.3.6.6c.1.2.2.5.3.8 0 .3 0 .6-.1.9v.1c-.1.3-.2.6-.4.9s-.4.5-.6.7-.5.3-.8.4-.6.1-.9 0c-.3 0-.6-.1-.8-.3s-.4-.3-.6-.6c-.1-.2-.2-.5-.2-.8-.1-.2 0-.5 0-.8zm.8 0h0c-.1.3-.1.5-.1.7s0 .4.1.6.2.3.3.4.3.2.5.2h.6c.2-.1.3-.2.5-.3.1-.1.3-.3.4-.5s.2-.4.2-.6v-.1c.1-.2.1-.4.1-.6s0-.4-.1-.6-.2-.3-.3-.4-.3-.2-.5-.2-.4 0-.6.1-.3.2-.5.3c-.1.1-.3.3-.4.5 0 .1-.1.3-.2.5zm6.2.3l-.1.6-2.1-.3.1-.6 2.1.3zm3.1 2.2v-.3c0-.1-.1-.2-.2-.3s-.3-.2-.6-.3c-.2-.1-.5-.2-.6-.3-.2-.1-.3-.2-.5-.3-.1-.1-.2-.3-.2-.4v-.5c0-.2.1-.3.2-.5l.4-.4c.2-.1.4-.2.6-.2h.7c.4.1.7.2.9.3.2.2.4.4.5.6s.1.5 0 .7l-.8-.1v-.4c0-.1-.1-.2-.3-.3-.1-.1-.3-.2-.5-.2h-.6c-.1 0-.3.1-.4.2s-.1.2-.2.3v.2c0 .1.1.1.1.2.1.1.2.1.3.2s.3.1.5.2c.4.1.6.3.9.4.2.2.4.3.4.5s.1.4 0 .6c0 .2-.1.4-.3.5-.1.2-.3.3-.5.4s-.4.2-.6.2h-.8a3 3 0 0 1-1-.4c-.3-.2-.4-.4-.5-.6s-.1-.5-.1-.7l.8.1c0 .2 0 .4.1.5s.2.2.4.3a.9.9 0 0 0 .5.1h.6c.2 0 .3-.1.4-.2.3.1.3 0 .4-.1zm3.8-4.9l-1.5 6.4-.8-.1 1.5-6.4.8.1zm-1.1 4l-.3-.1.3-.8c.2-.3.3-.5.5-.6.2-.2.4-.3.7-.4s.5-.1.8-.1c.2 0 .4.1.6.2s.3.2.4.4c.1.1.2.3.2.6 0 .2 0 .5-.1.8l-.7 3-.8-.1.7-3c.1-.2.1-.4 0-.6 0-.2-.1-.3-.2-.4s-.3-.1-.5-.2h-.6c-.2.1-.3.1-.5.3-.1.1-.3.3-.4.5 0 .1-.1.3-.1.5zm3.9.8h0a3 3 0 0 1 .4-1c.2-.3.4-.5.6-.7s.5-.3.8-.4.6-.1.9-.1.6.1.8.3.4.3.6.6c.1.2.2.5.3.8 0 .3 0 .6-.1.9v.1c-.1.3-.2.6-.4.9s-.4.5-.6.7-.5.3-.8.4-.6.1-.9 0c-.3 0-.6-.1-.8-.3s-.4-.3-.6-.6c-.1-.2-.2-.5-.2-.8s-.1-.5 0-.8zm.8 0h0c-.1.3-.1.5-.1.7s0 .4.1.6.2.3.3.4.3.2.5.2.4 0 .6-.1.3-.2.5-.3c.1-.1.3-.3.4-.5s.2-.4.2-.6v-.1c.1-.2.1-.4.1-.6s0-.4-.1-.6-.2-.3-.3-.4-.3-.2-.5-.2-.4 0-.6.1-.3.2-.5.3c-.1.1-.3.3-.4.5-.1.1-.1.4-.2.6zm5.2 2.3l2-3.6.5.1-.3.7-2.1 3.6-.5-.1.4-.7zm.1-3.9l.1 3.9-.1.8-.5-.1-.3-4.7.8.1zm2.8 4.3l1.8-3.6.8.1-2.4 4.3-.5-.1.3-.7zm-.2-3.9l.3 3.8-.1.9-.5-.1-.4-4 .1-.7.6.1z"/></g><path d="M191.1 314.6l-.3 1.2a5.8 5.8 0 0 1-.5 1.4c-.2.4-.4.7-.7.9s-.6.4-.9.4a1.7 1.7 0 0 1-1 0c-.3 0-.5-.1-.8-.2-.2-.1-.4-.3-.6-.4-.2-.2-.3-.4-.4-.7s-.1-.6-.1-.9.1-.7.2-1.2l.3-1.2a5.8 5.8 0 0 1 .5-1.4c.2-.4.4-.7.7-.9s.6-.4.9-.4a1.7 1.7 0 0 1 1 0c.3 0 .6.1.8.2s.4.2.6.4.3.4.4.7.1.6.1.9-.1.7-.2 1.2zm-1.6 1.2l.4-1.6c.1-.3.1-.5.1-.7v-.5c0-.2-.1-.3-.1-.4-.1-.1-.2-.2-.3-.2-.1-.1-.2-.1-.4-.1h-.5c-.2 0-.3.1-.4.3-.1.1-.2.3-.3.5s-.2.5-.3.9l-.4 1.6c-.1.3-.1.5-.1.7v.5c0 .2.1.3.1.4.1.1.2.2.3.2.1.1.2.1.4.1h.5c.2 0 .3-.1.4-.3.1-.1.2-.3.3-.6.1-.2.2-.5.3-.8zm6.9 1.8c-.1.4-.3.8-.6 1.1s-.6.5-1 .6-.8.1-1.3.1c-.5-.1-.9-.2-1.2-.4s-.6-.5-.7-.8-.2-.7-.1-1.2c.1-.3.2-.6.4-.8s.4-.4.6-.5c.3-.1.5-.2.9-.3.3-.1.6-.1 1 0 .5.1.9.2 1.2.4s.6.5.7.8c.2.3.2.6.1 1zm-1.3-.3c.1-.2.1-.4 0-.6s-.1-.3-.3-.4c-.1-.1-.3-.2-.5-.2s-.4 0-.6.1-.3.2-.5.3c-.1.2-.2.3-.3.6-.1.2-.1.4 0 .6s.2.3.3.4.3.2.6.2c.2 0 .4 0 .6-.1s.3-.2.5-.3c.1-.1.2-.3.2-.6zm1.9-3c-.1.4-.3.7-.5.9-.3.2-.6.4-.9.5-.4.1-.8.1-1.2.1-.4-.1-.8-.2-1.1-.4a2.7 2.7 0 0 1-.7-.8c-.1-.3-.2-.6-.1-1s.3-.8.5-1c.3-.3.6-.5 1-.6s.8-.1 1.2-.1c.4.1.8.2 1.1.4s.5.5.6.8c.2.4.2.8.1 1.2zm-1.3-.1v-.5c0-.2-.1-.3-.2-.4s-.3-.2-.5-.2-.4 0-.5.1c-.2.1-.3.2-.4.3s-.2.3-.2.5-.1.4 0 .6.1.3.2.4.3.2.5.2.4 0 .5-.1c.2-.1.3-.2.4-.3.1-.3.1-.4.2-.6zm7 2l-.3 1.2a5.8 5.8 0 0 1-.5 1.4c-.2.4-.4.7-.7.9s-.6.4-.9.4a1.7 1.7 0 0 1-1 0c-.3 0-.5-.1-.8-.2-.2-.1-.4-.3-.6-.4-.2-.2-.3-.4-.4-.7s-.1-.6-.1-.9.1-.7.2-1.2l.3-1.2a5.8 5.8 0 0 1 .5-1.4c.2-.4.4-.7.7-.9s.6-.4.9-.4a1.7 1.7 0 0 1 1 0c.3 0 .6.1.8.2s.4.2.6.4.3.4.4.7.1.6.1.9c0 .4-.1.8-.2 1.2zm-1.6 1.2l.4-1.6c.1-.3.1-.5.1-.7v-.5c0-.2-.1-.3-.1-.4-.1-.1-.2-.2-.3-.2-.1-.1-.2-.1-.4-.1h-.5c-.1 0-.3.1-.4.3-.1.1-.2.3-.3.5s-.2.5-.3.9l-.4 1.6c-.1.3-.1.5-.1.7v.5c0 .2.1.3.1.4.1.1.2.2.3.2.1.1.2.1.4.1h.5c.2 0 .3-.1.4-.3.1-.1.2-.3.3-.6.1-.2.2-.5.3-.8z" fill="#c1c1c1"/><path d="M206.5 313.3l-1.6 7.2" fill="none" stroke="#d9d9d9" stroke-width=".37"/><path d="M213.3 317.7l-.3 1.2a5.8 5.8 0 0 1-.5 1.4c-.2.4-.4.7-.7.9s-.6.4-.9.4a1.7 1.7 0 0 1-1 0c-.3 0-.5-.1-.8-.2-.2-.1-.4-.3-.6-.4-.2-.2-.3-.4-.4-.7s-.1-.6-.1-.9.1-.7.2-1.2l.3-1.2a5.8 5.8 0 0 1 .5-1.4c.2-.4.4-.7.7-.9s.6-.4.9-.4a1.7 1.7 0 0 1 1 0c.3 0 .6.1.8.2s.4.2.6.4.3.4.4.7.1.6.1.9c-.1.4-.1.8-.2 1.2zm-1.6 1.2l.4-1.6c.1-.3.1-.5.1-.7v-.5c0-.2-.1-.3-.1-.4-.1-.1-.2-.2-.3-.2-.1-.1-.2-.1-.4-.1h-.5c-.2 0-.3.1-.4.3-.1.1-.2.3-.3.5s-.2.5-.3.8l-.4 1.6c-.1.3-.1.5-.1.7v.5c0 .2.1.3.1.4.1.1.2.2.3.2.1.1.2.1.4.1h.5c.2 0 .3-.1.4-.3.1-.1.2-.3.3-.6.1-.1.2-.4.3-.7zm6.8 2.8l-.2 1-4.9-.7.2-.9 2.9-2.2c.3-.2.6-.5.7-.6.2-.2.3-.4.4-.5.1-.2.2-.3.2-.5.1-.2.1-.4 0-.6 0-.2-.1-.3-.3-.4-.1-.1-.3-.2-.5-.2s-.5 0-.7.1-.4.2-.5.4l-.3.6-1.3-.2c.1-.4.3-.8.6-1.1s.6-.6 1-.7c.4-.2.9-.2 1.4-.1s.9.2 1.2.4.5.5.6.8.1.7 0 1.1c-.1.2-.1.4-.3.7s-.3.4-.5.6l-.6.6c-.2.2-.5.4-.8.6l-1.8 1.3 3.5.5zm6.4-2.4l-.3 1.2a5.8 5.8 0 0 1-.5 1.4c-.2.4-.4.7-.7.9s-.6.4-.9.4a1.7 1.7 0 0 1-1 0c-.3 0-.5-.1-.8-.2-.2-.1-.4-.3-.6-.4-.2-.2-.3-.4-.4-.7s-.1-.6-.1-.9.1-.7.2-1.2l.3-1.2a5.8 5.8 0 0 1 .5-1.4c.2-.4.4-.7.7-.9s.6-.4.9-.4a1.7 1.7 0 0 1 1 0c.3 0 .6.1.8.2s.4.2.6.4.3.4.4.7.1.6.1.9c-.1.4-.1.8-.2 1.2zm-1.6 1.2l.4-1.6c.1-.3.1-.5.1-.7v-.5c0-.2-.1-.3-.1-.4-.1-.1-.2-.2-.3-.2-.1-.1-.2-.1-.4-.1h-.5c-.2 0-.3.1-.4.3-.1.1-.2.3-.3.5s-.2.5-.3.9l-.4 1.6c-.1.3-.1.5-.1.7v.5c0 .2.1.3.1.4.1.1.2.2.3.2.1.1.2.1.4.1h.5c.2 0 .3-.1.4-.3.1-.1.2-.3.3-.6a3.4 3.4 0 0 0 .3-.8z" class="Q"/><path d="M212.8 285.3a29 29 0 0 1 24.6 35.9 35.7 35.7 0 0 1-39.1 26.9 29 29 0 0 1-24.6-35.9 35.9 35.9 0 0 1 39.1-26.9zm-1.2 5c-14.8-2.1-29.5 8.1-32.9 22.7s5.9 28.1 20.7 30.2 29.5-8.1 32.9-22.7-5.9-28.1-20.7-30.2z" class="T"/><use href="#E" class="Q"/><path d="M310.2 331.4l-.3 1.2a5.8 5.8 0 0 1-.5 1.4c-.2.4-.4.7-.7.9s-.6.4-.9.4a1.7 1.7 0 0 1-1 0c-.3 0-.5-.1-.8-.2-.2-.1-.4-.3-.6-.4-.2-.2-.3-.4-.4-.7s-.1-.6-.1-.9.1-.7.2-1.2l.3-1.2a5.8 5.8 0 0 1 .5-1.4c.2-.4.4-.7.7-.9s.6-.4.9-.4a1.7 1.7 0 0 1 1 0c.3 0 .6.1.8.2s.4.2.6.4.3.4.4.7.1.6.1.9-.1.7-.2 1.2zm-1.6 1.2l.4-1.6c.1-.3.1-.5.1-.7v-.5c0-.2-.1-.3-.1-.4-.1-.1-.2-.2-.3-.2-.1-.1-.2-.1-.4-.1h-.5c-.2 0-.3.1-.4.3-.1.1-.2.3-.3.5s-.2.5-.3.9l-.4 1.6c-.1.3-.1.5-.1.7v.5c0 .2.1.3.1.4.1.1.2.2.3.2.1.1.2.1.4.1h.5c.2 0 .3-.1.4-.3.1-.1.2-.3.3-.6.1-.2.2-.5.3-.8zm6.9 1.8c-.1.4-.3.8-.6 1.1s-.6.5-1 .6-.8.1-1.3.1c-.5-.1-.9-.2-1.2-.4s-.6-.5-.7-.8-.2-.7-.1-1.2c.1-.3.2-.6.4-.8s.4-.4.6-.5c.3-.1.5-.2.9-.3.3-.1.6-.1 1 0 .5.1.9.2 1.2.4s.6.5.7.8c.2.3.2.6.1 1zm-1.3-.2c.1-.2.1-.4 0-.6 0-.2-.1-.3-.3-.4-.1-.1-.3-.2-.5-.2s-.4 0-.6.1-.3.2-.5.3c-.1.2-.2.3-.3.6-.1.2-.1.4 0 .6s.2.3.3.4.3.2.6.2c.2 0 .4 0 .6-.1s.3-.2.5-.3c.1-.2.2-.4.2-.6zm1.9-3.1c-.1.4-.3.7-.5.9-.3.2-.6.4-.9.5-.4.1-.8.1-1.2.1-.4-.1-.8-.2-1.1-.4s-.5-.5-.7-.8c-.1-.3-.1-.6-.1-1 .1-.4.3-.8.5-1 .3-.3.6-.5 1-.6s.8-.1 1.2-.1c.4.1.8.2 1.1.4s.5.5.6.8c.2.4.2.8.1 1.2zm-1.3-.1v-.5c0-.2-.1-.3-.2-.4s-.3-.2-.5-.2-.4 0-.5.1c-.2.1-.3.2-.4.3s-.2.3-.2.5-.1.4 0 .6c0 .2.1.3.2.4s.3.2.5.2.4 0 .5-.1c.2-.1.3-.2.4-.3.1-.2.2-.4.2-.6zm7 2l-.3 1.2a5.8 5.8 0 0 1-.5 1.4c-.2.4-.4.7-.7.9s-.6.4-.9.4a1.7 1.7 0 0 1-1 0c-.3 0-.5-.1-.8-.2-.2-.1-.4-.3-.6-.4-.2-.2-.3-.4-.4-.7s-.1-.6-.1-.9.1-.7.2-1.2l.3-1.2a5.8 5.8 0 0 1 .5-1.4c.2-.4.4-.7.7-.9s.6-.4.9-.4a1.7 1.7 0 0 1 1 0c.3 0 .6.1.8.2s.4.2.6.4.3.4.4.7.1.6.1.9c0 .4 0 .8-.2 1.2zm-1.6 1.2l.4-1.6c.1-.3.1-.5.1-.7v-.5c0-.2-.1-.3-.1-.4-.1-.1-.2-.2-.3-.2-.1-.1-.2-.1-.4-.1h-.5c-.2 0-.3.1-.4.3-.1.1-.2.3-.3.5s-.2.5-.3.8l-.4 1.6c-.1.3-.1.5-.1.7v.5c0 .2.1.3.1.4.1.1.2.2.3.2.1.1.2.1.4.1h.5c.2 0 .3-.1.4-.3.1-.1.2-.3.3-.6.2-.1.2-.4.3-.7z" fill="#d9d9d9"/><path d="M326.4 330.2l-1.6 7.2" fill="none" stroke="#d9d9d9" stroke-width=".37"/><path d="M333.9 334.7l-.3 1.2a5.8 5.8 0 0 1-.5 1.4c-.2.4-.4.7-.7.9s-.6.4-.9.4a1.7 1.7 0 0 1-1 0c-.3 0-.5-.1-.8-.2-.2-.1-.4-.3-.6-.4-.2-.2-.3-.4-.4-.7s-.1-.6-.1-.9.1-.7.2-1.2l.3-1.2a5.8 5.8 0 0 1 .5-1.4c.2-.4.4-.7.7-.9s.6-.4.9-.4a1.7 1.7 0 0 1 1 0c.3 0 .6.1.8.2s.4.3.6.4c.2.2.3.4.4.7s.1.6.1.9c-.1.4-.1.8-.2 1.2zm-1.7 1.2l.4-1.6c.1-.3.1-.5.1-.7v-.5c0-.2-.1-.3-.1-.4-.1-.1-.2-.2-.3-.2-.1-.1-.2-.1-.4-.1h-.5c-.2 0-.3.1-.4.3-.1.1-.2.3-.3.5s-.2.5-.3.9l-.4 1.6c-.1.3-.1.5-.1.7v.5c0 .2.1.3.1.4.1.1.2.2.3.2.1.1.2.1.4.1h.5c.2 0 .3-.1.4-.3.1-.1.2-.3.3-.6.2-.2.3-.5.3-.8zm6.9 2.8l-.2 1-4.9-.7.2-.9 2.9-2.2c.3-.2.6-.5.7-.6.2-.2.3-.3.4-.5s.2-.3.2-.5c.1-.2.1-.4 0-.6 0-.2-.1-.3-.3-.4-.1-.1-.3-.2-.5-.2s-.5 0-.7.1-.4.2-.5.4l-.3.6-1.3-.2c.1-.4.3-.8.6-1.1s.6-.6 1-.7c.4-.2.9-.2 1.4-.1s.9.2 1.2.4.5.5.6.8.1.7 0 1.1c-.1.2-.1.4-.3.7-.1.2-.3.4-.5.6l-.6.6c-.2.2-.5.4-.8.6l-1.8 1.3 3.5.5zm6.4-2.4l-.3 1.2a5.8 5.8 0 0 1-.5 1.4c-.2.4-.4.7-.7.9s-.6.4-.9.4a1.7 1.7 0 0 1-1 0c-.3 0-.5-.1-.8-.2-.2-.1-.4-.3-.6-.4-.2-.2-.3-.4-.4-.7s-.1-.6-.1-.9.1-.7.2-1.2l.3-1.2a5.8 5.8 0 0 1 .5-1.4c.2-.4.4-.7.7-.9s.6-.4.9-.4a1.7 1.7 0 0 1 1 0c.3 0 .6.1.8.2s.4.2.6.4.3.4.4.7.1.6.1.9c-.1.4-.1.8-.2 1.2zm-1.6 1.2l.4-1.6c.1-.3.1-.5.1-.7v-.5c0-.2-.1-.3-.1-.4-.1-.1-.2-.2-.3-.2-.1-.1-.2-.1-.4-.1h-.5c-.2 0-.3.1-.4.3-.1.1-.2.3-.3.5s-.2.5-.3.9l-.4 1.6c-.1.3-.1.5-.1.7v.5c0 .2.1.3.1.4.1.1.2.2.3.2.1.1.2.1.4.1h.5c.2 0 .3-.1.4-.3.1-.1.2-.3.3-.6.1-.1.2-.4.3-.8z" class="Q"/><path d="M332.2 302.2a29 29 0 0 1 24.6 35.9 35.7 35.7 0 0 1-39.1 26.9 29 29 0 0 1-24.6-35.9 35.7 35.7 0 0 1 39.1-26.9zm-1.2 5c-14.8-2.1-29.5 8.1-32.9 22.7s5.9 28.1 20.7 30.2 29.5-8.1 32.9-22.7a24.3 24.3 0 0 0-20.7-30.2z" class="T"/><use href="#E" x="119.4" y="16.9" class="Q"/><path d="M369.7 283.2l-1.2 5.1-.7-.1-1.7-4.3-.9 3.9-.7-.1 1.2-5.1.7.1 1.7 4.3.9-3.9.7.1zm1.5 5.5c-.3 0-.5-.1-.7-.2a1.2 1.2 0 0 1-.5-.5c-.1-.2-.2-.4-.2-.6v-.8-.1l.3-.8c.1-.2.3-.4.5-.6s.4-.2.6-.3.4-.1.7 0c.3 0 .5.1.7.2s.3.3.4.5.1.4.1.6 0 .5-.1.7l-.1.3-2.9-.4.1-.5 2.2.3h0v-.5c0-.2-.1-.3-.2-.4s-.3-.2-.5-.2h-.4c-.1 0-.3.1-.4.2s-.2.2-.3.4-.2.4-.2.6v.1c0 .2-.1.4 0 .5 0 .2.1.3.1.4l.3.3c.1.1.3.1.5.2.2 0 .4 0 .6-.1s.4-.2.5-.3l.3.4c-.1.1-.2.2-.4.3s-.3.2-.5.2c0 .1-.3.1-.5.1zm3.4-.3l1.7-3 .4.1-.2.6-1.7 3-.4-.1.2-.6zm0-3.2l.1 3.3-.1.6-.4-.1-.2-3.9.6.1zm2.4 3.6l1.5-3 .7.1-2 3.6-.4-.1.2-.6zm-.2-3.3l.3 3.2-.1.7-.4-.1-.3-3.3.1-.6.4.1z" class="R"/><use href="#F" class="Q"/><path d="M330.8 280.1l-.1.3a3 3 0 0 1-.4 1c-.2.3-.4.5-.6.7s-.5.3-.8.4-.6.1-.9 0c-.3 0-.6-.1-.8-.3-.2-.1-.4-.3-.5-.6-.1-.2-.2-.5-.3-.8 0-.3 0-.7.1-1l.1-.3a3 3 0 0 1 .4-1c.2-.3.4-.5.6-.7s.5-.3.8-.4.6-.1.9 0c.3 0 .6.1.8.3.2.1.4.3.5.6.1.2.2.5.2.8a1.7 1.7 0 0 1 0 1zm-.8.3l.1-.3c.1-.3.1-.6.1-.8s-.1-.4-.1-.6c-.1-.2-.2-.3-.4-.4s-.3-.2-.6-.2h-.6c-.2.1-.4.2-.5.3-.2.1-.3.3-.4.5s-.2.5-.3.8l-.1.3c-.1.3-.1.6-.1.8s.1.5.1.6c.1.2.2.3.4.4s.3.2.5.2h.6c.2-.1.4-.2.5-.3.2-.1.3-.3.4-.6.3-.2.4-.4.4-.7zm3-2.7l-1.2 5.4-.7-.1 1.2-5.4.7.1zm2.4 5.1l1.1-4.6.7.1-1.2 5.4-.6-.1v-.8zm-2.3-1.4h0a3.4 3.4 0 0 1 .3-.8c.1-.2.3-.4.4-.6.2-.1.4-.3.6-.3.2-.1.4-.1.7-.1.2 0 .4.1.6.2s.3.2.4.4.1.4.2.6v.8l-.1.3c-.1.3-.2.5-.3.7s-.3.4-.4.5c-.2.1-.3.2-.5.3s-.4.1-.7 0c-.2 0-.4-.1-.6-.2s-.3-.3-.4-.5-.1-.4-.2-.7c-.1-.1-.1-.4 0-.6zm.7 0h0c-.1.3-.1.4-.1.6a.9.9 0 0 0 .1.5c.1.1.1.3.2.3.1.1.3.1.4.2.2 0 .4 0 .6-.1s.3-.2.4-.3.2-.3.3-.5l.2-.8v-.4c0-.1-.1-.2-.1-.4-.1-.1-.1-.2-.3-.3-.1-.1-.2-.1-.4-.1h-.5c-.1.1-.3.1-.4.3-.1.1-.2.3-.3.4 0 .2-.1.4-.1.6z" class="R"/><use href="#F" x="-38.4" y="-5.4" class="T"/><path d="M178.1 255.6l1 .1.7 5 2.9-4.4 1 .1-3.8 5.8-.8-.1-1-6.5zm-.4 0l.9.1-.8 4.1-.5 2-1.1-.1 1.5-6.1zm5.4.8l.9.1-1.4 6.1-1.1-.2.5-2 1.1-4zm2.2 6l2.2-3.9 1.1.2-3 5c-.1.1-.2.2-.2.3-.1.1-.2.2-.4.3-.1.1-.3.2-.5.2-.2.1-.4.1-.6 0-.1 0-.2 0-.3-.1-.1 0-.2-.1-.2-.1l.2-.8h.1.1.4c.1 0 .2-.1.3-.2l.3-.3.5-.6zm.2-4.1l.3 3.5-.1 1.1-.7.1-.6-4.9 1.1.2zm7.7 3.4l-1.6-.2.2-.8 1.6.2h.7c.2-.1.3-.2.5-.3.1-.1.2-.3.2-.5v-.6c0-.2-.1-.3-.3-.5-.1-.1-.4-.2-.6-.2l-1.3-.2-1.2 5.3-1.1-.1 1.4-6.1 2.4.3c.5.1.9.2 1.2.4s.5.5.6.8a1.7 1.7 0 0 1 0 1c-.1.4-.3.7-.5 1s-.5.4-.9.5-.8.1-1.3 0zm4.5-.8l-.8 3.7-1-.1 1-4.5 1 .1-.2.8zm1.6-.7l-.2.9c-.1 0-.1 0-.2-.1h-.2-.5c-.1 0-.3.1-.4.2l-.3.3c-.1.1-.1.3-.2.4h-.2l.3-.8c.1-.2.2-.4.4-.6s.3-.3.5-.4.4-.1.6-.1h.2c.1.2.2.2.2.2zm1.5 5c-.3 0-.6-.1-.9-.3a1.7 1.7 0 0 1-.6-.6c-.1-.2-.2-.5-.3-.8v-.9-.2c.1-.4.2-.7.4-.9.2-.3.4-.5.6-.7s.5-.3.8-.4.6-.1.9 0c.3 0 .6.1.8.3a1.2 1.2 0 0 1 .5.5c.1.2.2.5.2.8s0 .6-.1.9l-.1.4-3.6-.5.2-.7 2.5.4v-.1-.5c0-.2-.1-.3-.2-.4s-.3-.2-.5-.2h-.5c-.1.1-.3.1-.4.3-.1.1-.2.3-.3.5s-.2.4-.2.6v.2c0 .2-.1.4 0 .6 0 .2.1.3.1.5.1.1.2.3.3.4s.3.2.5.2.5 0 .7-.1l.6-.3.4.6c-.1.1-.3.2-.5.4-.2.1-.4.2-.7.2 0-.1-.3-.1-.6-.2zm5.7-.2l1.3-5.5 1 .1-1.5 6.4-.9-.1.1-.9zm-2.7-1.7h0a3 3 0 0 1 .4-1c.1-.3.3-.5.5-.7s.4-.3.7-.4c.2-.1.5-.1.8-.1s.5.1.7.3c.2.1.3.3.4.5s.2.5.2.8v.9l-.1.3c-.1.3-.2.6-.4.9-.1.3-.3.5-.5.6-.2.2-.4.3-.6.4s-.5.1-.8.1-.5-.1-.7-.3c-.2-.1-.3-.3-.5-.6-.1-.2-.2-.5-.2-.8s0-.6.1-.9zm1.1 0h0c-.1.3-.1.5-.1.7s0 .4.1.5.1.3.2.4.3.2.5.2.4 0 .6-.1.3-.2.4-.4.2-.3.3-.6l.2-.8v-.5c0-.1-.1-.3-.1-.4l-.3-.3c-.1-.1-.3-.1-.4-.2h-.5c-.1.1-.3.2-.4.3s-.2.3-.3.5c-.1.3-.2.5-.2.7zm5.6-1.5l-1 4.5-1-.1 1-4.5 1 .1zm-.8-1.3c0-.2.1-.3.2-.4s.3-.1.5-.1.3.1.4.2.1.2.1.4-.1.3-.2.4-.3.1-.5.1-.3-.1-.4-.2-.1-.3-.1-.4zm3 5.6h.5c.2 0 .3-.1.4-.2s.2-.2.2-.4l1 .1a3 3 0 0 1-.4.8c-.2.2-.5.4-.8.5s-.6.1-1 .1-.6-.2-.9-.3c-.2-.2-.4-.4-.5-.6s-.2-.5-.2-.8 0-.6.1-.9v-.1l.3-.9c.2-.3.3-.5.6-.7.2-.2.5-.3.8-.4s.6-.1 1-.1c.4.1.7.2.9.4s.4.4.5.7.1.6 0 .9l-1-.1v-.5c0-.1-.1-.3-.2-.4s-.3-.2-.5-.2-.4 0-.5.1c-.2.1-.3.2-.4.3s-.2.3-.3.4c-.1.2-.1.3-.2.5v.1c0 .2-.1.4-.1.6a.9.9 0 0 0 .1.5c0 .1.1.3.2.4 0 .1.2.1.4.2zm5.6-3.2l-.2.7-2.6-.4.2-.7 2.6.4zm-1.6-1.3l1 .1-1 4.4v.3c0 .1.1.1.1.2.1 0 .2.1.3.1h.2.2l-.2.8h-.3-.4c-.2 0-.4-.1-.6-.2s-.3-.3-.3-.5c-.1-.2-.1-.5 0-.8l1-4.4zm3.5 1.6l-1 4.5-1-.1 1-4.5 1 .1zm-.8-1.4c0-.2.1-.3.2-.4s.3-.1.5-.1.3.1.4.2.1.2.1.4c0 .1-.1.3-.2.4s-.3.1-.5.1-.3-.1-.4-.2-.1-.2-.1-.4zm1.2 3.8h0a3 3 0 0 1 .4-1c.2-.3.4-.5.6-.7s.5-.3.8-.4.6-.1.9 0c.3 0 .6.1.9.3.2.2.4.3.6.6a6.9 6.9 0 0 1 .3.8c0 .3 0 .6-.1.9v.1c-.1.3-.2.6-.4.9s-.4.5-.6.7-.5.3-.8.4-.6.1-.9 0c-.3 0-.6-.1-.9-.3-.2-.2-.4-.3-.6-.6-.1-.2-.2-.5-.3-.8s0-.5.1-.9zm1.1.1h0c-.1.3-.1.5-.1.7s0 .4.1.5.2.3.3.4.3.2.5.2h.5c.2-.1.3-.1.4-.3.1-.1.2-.3.3-.4.1-.2.2-.4.2-.6v-.1c0-.2.1-.4.1-.6s0-.4-.1-.5c-.1-.2-.1-.3-.3-.4-.1-.1-.3-.2-.5-.2h-.5c-.2.1-.3.2-.4.3s-.2.3-.3.5c-.1.1-.2.3-.2.5zm5.4-.5l-.8 3.6-1-.1 1-4.5 1 .1-.2.9zm-.5 1.1l-.3-.1.3-.9c.2-.3.3-.5.5-.6.2-.2.4-.3.7-.4.2-.1.5-.1.8-.1.2 0 .4.1.6.2s.3.2.4.4.2.3.2.6c0 .2 0 .5-.1.8l-.7 2.9-1-.1.7-2.9c0-.2.1-.4 0-.5 0-.1-.1-.2-.2-.3s-.2-.1-.4-.1h-.5c-.2.1-.3.1-.4.2s-.2.2-.3.4c-.2.1-.2.3-.3.5z" class="R"/><path d="M153.4 395.2l205.5 29a10.5 10.5 0 0 1 8.9 12.9l-22.2 96.5c-1.4 6.2-7.7 10.6-14 9.7l-205.5-29a10.5 10.5 0 0 1-8.9-12.9l22.2-96.5c1.4-6.2 7.7-10.6 14-9.7z" class="T"/><path d="M150.7 391.2l205.5 29a10.5 10.5 0 0 1 8.9 12.9l-22.2 96.5c-1.4 6.2-7.7 10.6-14 9.7l-205.5-29a10.5 10.5 0 0 1-8.9-12.9l22.2-96.5c1.3-6.3 7.6-10.6 14-9.7z" class="S"/><path d="M288.9 510.7l-1.4 6-.8-.1-2-5.1-1.1 4.6-.8-.1 1.4-6 .8.1 2 5.1 1.1-4.6.8.1zm.3 4h0a3 3 0 0 1 .4-1c.2-.3.4-.5.6-.7s.5-.3.8-.4.6-.1.9-.1.6.1.8.3c.2.1.4.3.5.6.1.2.2.5.2.8s0 .6-.1.9v.1l-.3.9c-.2.3-.4.5-.6.7s-.5.3-.8.4-.6.1-.9 0c-.3 0-.6-.1-.8-.3s-.4-.3-.5-.6c-.1-.2-.2-.5-.2-.8-.1-.1-.1-.5 0-.8zm.8 0h0c-.1.3-.1.5-.1.7s0 .4.1.6.2.3.3.4.3.2.5.2h.6c.2-.1.3-.2.5-.3.1-.1.3-.3.4-.5s.2-.4.2-.6v-.1c0-.2.1-.4.1-.6s0-.4-.1-.6-.2-.3-.3-.4-.3-.2-.5-.2-.4 0-.6.1-.3.2-.5.3c-.1.1-.3.3-.4.5-.1.1-.2.3-.2.5zm7.4-2.8l2 .3c.5.1.8.2 1.1.4s.5.4.6.7.1.6 0 1c-.1.3-.2.5-.3.7-.2.2-.4.4-.6.5s-.5.2-.8.2l-.2.1-1.9-.3.1-.6 1.4.2h.8c.2-.1.4-.2.5-.3.1-.2.2-.3.3-.5s.1-.4 0-.6-.2-.3-.3-.5c-.2-.1-.4-.2-.7-.3l-1.2-.2-1.2 5.4-.8-.1 1.2-6.1zm2.2 6.6l-.9-2.9.8.1.9 2.9h0l-.8-.1zm3.5.5c-.3 0-.6-.1-.8-.3-.2-.1-.4-.3-.6-.5l-.3-.7c0-.3 0-.6.1-.9v-.2c.1-.4.2-.7.4-.9.2-.3.4-.5.6-.7s.5-.3.7-.4a1.1 1.1 0 0 1 .8 0c.3 0 .6.1.8.3a1.2 1.2 0 0 1 .5.5c.1.2.2.5.2.7 0 .3 0 .6-.1.9l-.1.3-3.4-.5.1-.6 2.6.4v-.1-.6c0-.2-.1-.4-.2-.5s-.3-.2-.6-.3h-.5c-.2.1-.3.1-.5.3s-.3.3-.4.5l-.3.7v.2c0 .2-.1.4 0 .6 0 .2.1.4.2.5.1.2.2.3.3.4s.3.2.5.2c.3 0 .5 0 .7-.1s.4-.2.6-.4l.4.4c-.1.1-.3.3-.5.4s-.4.2-.6.2c-.1.3-.3.3-.6.2zm5.6-.5v-.3c0-.1-.1-.2-.2-.3s-.3-.2-.6-.3c-.2-.1-.5-.2-.6-.3-.2-.1-.3-.2-.5-.3-.1-.1-.2-.3-.2-.4v-.5c0-.2.1-.3.2-.5l.4-.4c.2-.1.4-.2.6-.2h.7c.4.1.7.2.9.3.2.2.4.4.5.6s.1.5 0 .7l-.8-.1v-.4c0-.1-.1-.2-.3-.3-.1-.1-.3-.2-.5-.2h-.5c-.1 0-.3.1-.3.2-.1.1-.1.2-.2.3v.2c0 .1.1.1.1.2.1.1.2.1.3.2s.3.1.5.2c.4.1.6.3.9.4.2.1.4.3.4.5.1.2.1.4 0 .6 0 .2-.1.4-.2.5-.1.2-.3.3-.5.4s-.4.2-.6.2h-.7a3 3 0 0 1-1-.4c-.3-.2-.4-.4-.5-.6s-.1-.5-.1-.7l.8.1c0 .2 0 .4.1.5s.2.2.4.3a.9.9 0 0 0 .5.1h.6c.2 0 .3-.1.4-.2-.1.1-.1 0 0-.1zm3.1-2.1l-1.2 5.3-.8-.1 1.4-6.2.7.1-.1.9zm2.7 1.8h0l-.3 1c-.1.3-.3.5-.5.7s-.4.3-.7.4c-.2.1-.5.1-.8.1s-.5-.1-.7-.2a1.2 1.2 0 0 1-.5-.5c-.1-.2-.2-.4-.2-.7v-.9l.1-.5c.1-.3.2-.6.4-.9.2-.2.3-.5.5-.6.2-.2.4-.3.7-.3.2-.1.5-.1.8 0 .3 0 .5.1.7.3.2.1.3.3.5.5s.2.5.2.8c0 .2-.1.5-.2.8zm-.8 0h0c.1-.3.1-.5.1-.7s0-.4-.1-.6-.2-.3-.3-.4-.3-.2-.5-.2h-.5c-.2 0-.3.1-.4.2l-.3.3c-.1.1-.2.3-.2.4l-.2 1.1c0 .2 0 .4.1.6s.2.3.3.5c.1.1.3.2.6.2.2 0 .4 0 .6-.1s.3-.2.5-.3c.1-.1.2-.3.3-.5-.1-.1 0-.3 0-.5zm1.6.2h0a3 3 0 0 1 .4-1c.2-.3.4-.5.6-.7s.5-.3.8-.4.6-.1.9-.1.6.1.8.3c.2.1.4.3.5.6.1.2.2.5.2.8s0 .6-.1.9v.1l-.3.9c-.2.3-.4.5-.6.7s-.5.3-.8.4-.6.1-.9 0c-.3 0-.6-.1-.8-.3s-.4-.3-.5-.6c-.1-.2-.2-.5-.2-.8-.1-.2-.1-.5 0-.8zm.8 0h0c-.1.3-.1.5-.1.7s0 .4.1.6.2.3.3.4.3.2.5.2h.6c.2-.1.3-.2.5-.3.1-.1.3-.3.4-.5s.2-.4.2-.6v-.1c.1-.2.1-.4.1-.6s0-.4-.1-.6-.2-.3-.3-.4-.3-.2-.5-.2-.4 0-.6.1-.3.2-.5.3c-.1.1-.3.3-.4.5-.1.1-.1.3-.2.5zm5.4-.5l-.8 3.5-.8-.1 1-4.5.7.1-.1 1zm-.4 1.1l-.3-.1.3-.8c.1-.2.3-.5.5-.6.2-.2.4-.3.7-.4s.5-.1.8-.1c.2 0 .4.1.6.2s.3.2.4.3.2.3.2.5 0 .5-.1.8l-.7 2.9-.8-.1.7-2.9c.1-.2.1-.4 0-.6 0-.2-.1-.3-.2-.4s-.3-.1-.5-.2h-.6c-.2.1-.3.1-.5.3l-.4.4c0 .4-.1.6-.1.8zm6.5 2.2v-.3c0-.1-.1-.2-.2-.3s-.3-.2-.6-.3c-.2-.1-.5-.2-.6-.3-.2-.1-.3-.2-.5-.3-.1-.1-.2-.3-.2-.4v-.5c0-.2.1-.3.2-.5l.4-.4c.2-.1.4-.2.6-.2h.7c.4.1.7.2.9.3.2.2.4.4.5.6s.1.5 0 .7l-.8-.1v-.4c0-.1-.1-.2-.3-.3-.1-.1-.3-.2-.5-.2h-.5c-.1 0-.3.1-.3.2-.1.1-.1.2-.2.3v.2c0 .1.1.1.1.2.1.1.2.1.3.2s.3.1.5.2c.4.1.6.3.9.4.2.2.4.3.4.5.1.2.1.4 0 .6 0 .2-.1.4-.2.5-.1.2-.3.3-.5.4s-.4.2-.6.2h-.7a3 3 0 0 1-1-.4c-.2-.2-.4-.4-.5-.6s-.1-.5-.1-.7l.8.1c0 .2 0 .4.1.5s.2.2.4.3a.9.9 0 0 0 .5.1h.6c.2 0 .3-.1.4-.2-.1.1-.1 0 0-.1zm3.4 1.8c-.3 0-.6-.1-.8-.3-.2-.1-.4-.3-.6-.5l-.3-.7c0-.3 0-.6.1-.9v-.2c.1-.4.2-.7.4-.9.2-.3.4-.5.6-.7s.5-.3.7-.4a1.1 1.1 0 0 1 .8 0c.3 0 .6.1.8.3a1.2 1.2 0 0 1 .5.5c.1.2.2.5.2.7 0 .3 0 .6-.1.9l-.1.3-3.4-.5.1-.6 2.6.4v-.1-.6c0-.2-.1-.4-.2-.5s-.3-.2-.6-.3h-.5c-.2 0-.3.1-.5.3-.1.1-.3.3-.4.5l-.3.7v.2c0 .2-.1.4 0 .6 0 .2.1.4.2.5.1.2.2.3.3.4s.3.2.5.2c.3 0 .5 0 .7-.1s.4-.2.6-.4l.4.4c-.1.1-.3.3-.5.4s-.4.2-.6.2c-.1.2-.3.2-.6.2z" class="R"/><path d="M322.7 455.1a21.4 21.4 0 0 1 18.2 26.6c-3 12.8-15.9 21.8-28.9 19.9a21.4 21.4 0 0 1-18.2-26.6c3-12.8 15.9-21.7 28.9-19.9zm-.9 3.7c-10.9-1.5-21.8 6-24.3 16.8a18 18 0 0 0 15.3 22.3c10.9 1.5 21.8-6 24.3-16.8a18 18 0 0 0-15.3-22.3z" class="T"/><path d="M323.4 451.9a24.4 24.4 0 0 1 20.7 30.2c-3.4 14.6-18.1 24.7-32.8 22.6a24.4 24.4 0 0 1-20.7-30.2v-.1.1l10.2 1.4c-2.1 9 3.7 17.4 12.8 18.7a18.7 18.7 0 0 0 20.4-14c2.1-9-3.7-17.4-12.8-18.7l2.2-10zm-6.9 24.8l-1.1-.4 1.4-4 4.5.6-.3 1.2-3.3-.5-.6 1.8c.1-.1.3-.1.6-.1h.8l1 .3c.3.2.5.4.7.6.2.3.3.6.3.9s0 .7-.1 1.1a3 3 0 0 1-.4 1 2.7 2.7 0 0 1-.7.8c-.3.2-.6.4-1 .5s-.8.1-1.2 0c-.3 0-.7-.1-1-.3-.3-.1-.5-.3-.8-.6-.2-.2-.4-.5-.4-.8-.1-.3-.1-.6 0-1l1.5.2a1.7 1.7 0 0 0 .1.7c.1.2.2.3.3.5.2.1.4.2.6.2h.6c.2-.1.3-.2.5-.3.1-.1.2-.3.3-.5s.2-.4.2-.6c.1-.2.1-.4.1-.6s-.1-.4-.1-.5c-.1-.2-.2-.3-.4-.4s-.3-.2-.6-.2h-.7c-.5.2-.7.3-.8.4z" class="Q"/><path d="M206 499l.9 3.2 2.3-2.8.9.1-3 3.5-.5 2.2-.8-.1.5-2.2-1.2-4.1.9.2zm5 7c-.3 0-.6-.1-.8-.3-.2-.1-.4-.3-.6-.5l-.3-.7c0-.3 0-.6.1-.9v-.2c.1-.4.2-.7.4-.9.2-.3.4-.5.6-.7s.5-.3.7-.4a1.1 1.1 0 0 1 .8 0c.3 0 .6.1.8.3a1.2 1.2 0 0 1 .5.5c.1.2.2.5.2.7 0 .3 0 .6-.1.9l-.1.3-3.4-.5.1-.6 2.6.4v-.1-.6c0-.2-.1-.4-.2-.5s-.3-.2-.6-.3h-.5c-.2.1-.3.1-.5.3-.1.1-.3.3-.4.5l-.3.7v.2c0 .2-.1.4-.1.6s.1.4.2.5c.1.2.2.3.3.4s.3.2.5.2c.3 0 .5 0 .7-.1s.4-.2.6-.4l.4.4c-.1.1-.3.3-.5.4s-.4.2-.6.2c0 .3-.2.3-.5.2zm5.6-3.9l-.1.6-2.5-.3.1-.6 2.5.3zm-1.4-1.3l.8.1-1 4.4v.4c0 .1.1.1.2.2.1 0 .1.1.2.1h.2.2l-.1.6h-.3-.4c-.2 0-.4-.1-.5-.2s-.2-.2-.3-.4 0-.4 0-.7l1-4.5zm6.3 2l-.1.6-2.5-.3.1-.6 2.5.3zm-1.3-1.3l.8.1-1 4.4v.4c0 .1.1.1.1.2.1 0 .1.1.2.1h.2.2l-.1.6h-.3-.4c-.2 0-.4-.1-.5-.2s-.2-.2-.3-.4 0-.4 0-.7l1.1-4.5zm1.4 3.7h0a3 3 0 0 1 .4-1c.2-.3.4-.5.6-.7s.5-.3.8-.4.6-.1.9-.1.6.1.8.3c.2.1.4.3.5.6.1.2.2.5.2.8s0 .6-.1.9v.1l-.3.9c-.2.3-.4.5-.6.7s-.5.3-.8.4-.6.1-.9 0c-.3 0-.6-.1-.8-.3s-.4-.3-.5-.6c-.1-.2-.2-.5-.2-.8-.1-.2 0-.5 0-.8zm.8 0h0c-.1.3-.1.5-.1.7s0 .4.1.6.2.3.3.4.3.2.5.2h.6c.2-.1.3-.2.5-.3.1-.1.3-.3.4-.5s.2-.4.2-.6v-.1c.1-.2.1-.4.1-.6s0-.4-.1-.6-.2-.3-.3-.4-.3-.2-.5-.2-.4 0-.6.1-.3.2-.5.3c-.1.1-.3.3-.4.5 0 .1-.1.3-.2.5zm9.6-1.9l-3.3 5.2-.8-.1 3.7-5.7.5.1-.1.5zm.4 5.7l-.8-5.8.1-.5.5.1 1 6.3-.8-.1zm.5-2.3l-.1.7-3.4-.5.2-.7 3.3.5zm3 2.2h.5c.2-.1.3-.1.5-.3.1-.1.2-.3.3-.4l.7.1c-.1.3-.2.5-.4.7s-.5.4-.8.5-.6.1-.9.1-.6-.1-.9-.3c-.2-.2-.4-.3-.5-.6-.1-.2-.2-.5-.2-.8s0-.6.1-.9v-.2l.3-.8c.1-.3.3-.5.5-.7s.5-.3.7-.4c.3-.1.6-.1.9-.1.4 0 .6.2.9.3.2.2.4.4.5.7s.1.6.1.9l-.7-.1v-.5c-.1-.2-.2-.3-.3-.4s-.3-.2-.5-.2-.4 0-.6.1-.3.2-.5.3c-.1.1-.2.3-.3.5s-.1.4-.2.6v.2c0 .2-.1.4-.1.6s0 .4.1.5c.1.2.2.3.3.4s.3.2.5.2zm4.5.6h.5c.2-.1.3-.1.5-.3.1-.1.2-.3.3-.4l.7.1c-.1.3-.2.5-.4.7s-.5.4-.8.5-.6.1-.9.1-.6-.1-.9-.3c-.2-.2-.4-.3-.5-.6-.1-.2-.2-.5-.2-.8s0-.6.1-.9v-.2l.3-.8c.1-.3.3-.5.5-.7s.5-.3.7-.4c.3-.1.6-.1.9-.1.4 0 .6.2.9.3.2.2.4.4.5.7s.1.6.1.9l-.7-.1v-.5c-.1-.2-.2-.3-.3-.4s-.3-.2-.5-.2-.4 0-.6.1-.3.2-.5.3c-.1.1-.2.3-.3.5s-.1.4-.2.6v.2c0 .2-.1.4-.1.6s0 .4.1.5c.1.2.2.3.3.4s.3.2.5.2zm4.4 1.3c-.3 0-.6-.1-.8-.3-.2-.1-.4-.3-.6-.5l-.3-.7c0-.3 0-.6.1-.9v-.2c.1-.4.2-.7.4-.9.2-.3.4-.5.6-.7s.5-.3.7-.4a1.1 1.1 0 0 1 .8 0c.3 0 .6.1.8.3a1.2 1.2 0 0 1 .5.5c.1.2.2.5.2.7 0 .3 0 .6-.1.9l-.1.3-3.4-.5.1-.6 2.6.4v-.1-.6c0-.2-.1-.4-.2-.5s-.3-.2-.6-.3h-.5c-.2.1-.3.1-.5.3-.1.1-.3.3-.4.5l-.3.7v.2c0 .2-.1.4 0 .6 0 .2.1.4.2.5.1.2.2.3.3.4s.3.2.5.2c.3 0 .5 0 .7-.1s.4-.2.6-.4l.4.4c-.1.1-.3.3-.5.4s-.4.2-.6.2c0 .3-.3.3-.6.2zm4.3-3.2l-1.2 5.3-.8-.1 1.4-6.2.7.1-.1.9zm2.8 1.8h0l-.3 1c-.1.3-.3.5-.5.7s-.4.3-.7.4c-.2.1-.5.1-.8.1s-.5-.1-.7-.2a1.2 1.2 0 0 1-.5-.5c-.1-.2-.2-.4-.2-.7v-.9l.1-.5c.1-.3.2-.6.4-.9.2-.2.3-.5.5-.6.2-.2.4-.3.7-.3.2-.1.5-.1.8 0 .3 0 .5.1.7.3.2.1.3.3.5.5.1.2.2.5.2.8-.1.1-.1.4-.2.8zm-.8 0h0c.1-.3.1-.5.1-.7s0-.4-.1-.6-.2-.3-.3-.4-.3-.2-.5-.2h-.5c-.2 0-.3.1-.4.2l-.3.3c-.1.1-.2.3-.2.4l-.2 1.1c0 .2 0 .4.1.6s.2.3.3.5c.1.1.3.2.6.2.2 0 .4 0 .6-.1s.3-.2.5-.3c.1-.1.2-.3.3-.5-.1-.1-.1-.3 0-.5zm4.2-1.8l-.1.6-2.5-.3.1-.6 2.5.3zm-1.4-1.3l.8.1-1 4.4v.4c0 .1.1.1.2.2.1 0 .1.1.2.1h.2.2l-.1.6h-.3-.4c-.2 0-.4-.1-.5-.2s-.2-.2-.3-.4 0-.4 0-.7l1-4.5z" class="R"/><path d="M244.2 444a21.4 21.4 0 0 1 18.2 26.6c-3 12.8-15.9 21.8-28.9 19.9a21.4 21.4 0 0 1-18.2-26.6c3-12.8 15.9-21.7 28.9-19.9zm-.9 3.8c-10.9-1.5-21.8 6-24.3 16.8a18 18 0 0 0 15.3 22.3c10.9 1.5 21.8-6 24.3-16.8s-4.3-20.8-15.3-22.3z" class="T"/><path d="M245.6 441c14.4 2.4 23.3 15.7 20 30.1-3.4 14.6-18.1 24.7-32.8 22.6a24.4 24.4 0 0 1-20.8-29.5l.1-.7 10.2 1.4c-2.1 9 3.7 17.4 12.8 18.7a18.7 18.7 0 0 0 20.4-14c2.1-9-3.7-17.4-12.8-18.7l2.3-10 .6.1zm-7.4 27.3l-.3 1.1-5.5-.8.2-1 3.3-2.4c.3-.3.6-.5.8-.7s.4-.4.5-.6.2-.3.2-.5c.1-.2.1-.5 0-.7 0-.2-.1-.4-.3-.5-.1-.1-.3-.2-.6-.2s-.5 0-.7.1-.4.2-.6.4c-.1.2-.3.4-.3.7l-1.5-.2c.1-.5.3-.9.6-1.2.3-.4.7-.6 1.2-.8s1-.2 1.6-.1 1 .2 1.4.5c.3.2.6.5.7.9s.1.8 0 1.2c-.1.3-.2.5-.3.7s-.3.5-.5.7l-.7.7c-.3.2-.6.4-.9.7l-2 1.5 3.7.5zm7.2-2.6l-.3 1.3a4.4 4.4 0 0 1-.6 1.6c-.2.4-.5.8-.8 1s-.6.4-1 .5-.7.1-1.2 0c-.3 0-.6-.1-.9-.2s-.5-.3-.7-.5-.3-.5-.4-.8-.1-.6-.1-1 .1-.8.2-1.3l.3-1.3c.1-.6.3-1.1.6-1.5.2-.4.5-.7.8-1 .3-.2.6-.4 1-.5s.7-.1 1.2 0c.3 0 .6.1.9.2s.5.3.7.5.3.4.4.7.1.6.1 1-.1.8-.2 1.3zm-1.8 1.3l.4-1.8c.1-.3.1-.6.1-.8v-.6c0-.2-.1-.3-.2-.4l-.3-.3c-.1-.1-.3-.1-.4-.1h-.5c-.2.1-.3.2-.5.3-.1.1-.3.3-.4.6l-.3 1-.4 1.8c-.1.3-.1.6-.1.8v.6c0 .2.1.3.2.4l.3.3c.1.1.3.1.4.1h.5c.2-.1.3-.2.5-.3.1-.2.3-.4.4-.6l.3-1z" class="Q"/><path d="M137.2 489.9l-3.3 5.2-.8-.1 3.7-5.7.5.1-.1.5zm.4 5.7l-.8-5.8.1-.5.5.1 1 6.3-.8-.1zm.5-2.2l-.1.7-3.4-.5.1-.7 3.4.5zm3 2.1h.5c.2-.1.3-.1.5-.3.1-.1.2-.3.3-.4l.7.1c-.1.3-.2.5-.4.7s-.5.4-.8.5-.6.1-.9.1-.6-.1-.9-.3c-.2-.2-.4-.3-.5-.6-.1-.2-.2-.5-.2-.8s0-.6.1-.9v-.2l.3-.8c.1-.3.3-.5.5-.7s.5-.3.7-.4c.3-.1.6-.1.9-.1.4 0 .6.2.9.3.2.2.4.4.5.7s.1.6.1.9l-.7-.1v-.5c-.1-.2-.2-.3-.3-.4s-.3-.2-.5-.2-.4 0-.6.1-.3.2-.5.3c-.1.1-.2.3-.3.5s-.1.4-.2.6v.2c0 .2-.1.4-.1.6s0 .4.1.5c.1.2.2.3.3.4s.3.2.5.2zm4.5.7h.5c.2-.1.3-.1.5-.3.1-.1.2-.3.3-.4l.7.1c-.1.3-.2.5-.4.7s-.5.4-.8.5-.6.1-.9.1-.6-.1-.9-.3c-.2-.2-.4-.3-.5-.6-.1-.2-.2-.5-.2-.8s0-.6.1-.9v-.2l.3-.8c.1-.3.3-.5.5-.7s.5-.3.7-.4c.3-.1.6-.1.9-.1.4 0 .6.2.9.3.2.2.4.4.5.7s.1.6.1.9l-.7-.1v-.5c-.1-.2-.2-.3-.3-.4s-.3-.2-.5-.2-.4 0-.6.1-.3.2-.5.3c-.1.1-.2.3-.3.5s-.1.4-.2.6v.2c0 .2-.1.4-.1.6s0 .4.1.5c.1.2.2.3.3.4s.3.1.5.2zm4.4 1.3c-.3 0-.6-.1-.8-.3-.2-.1-.4-.3-.6-.5l-.3-.7c0-.3 0-.6.1-.9v-.2c.1-.4.2-.7.4-.9.2-.3.4-.5.6-.7s.5-.3.7-.4a1.1 1.1 0 0 1 .8 0c.3 0 .6.1.8.3a1.2 1.2 0 0 1 .5.5c.1.2.2.5.2.7 0 .3 0 .6-.1.9l-.1.3-3.4-.5.1-.6 2.6.4v-.1-.6c0-.2-.1-.4-.2-.5s-.3-.2-.6-.3h-.5c-.2 0-.3.1-.5.3-.1.1-.3.3-.4.5l-.3.7v.2c0 .2-.1.4-.1.6s.1.4.2.5c.1.2.2.3.3.4s.3.2.5.2c.3 0 .5 0 .7-.1s.4-.2.6-.4l.4.4c-.1.1-.3.3-.5.4s-.4.2-.6.2c.1.2-.2.2-.5.2zm4.3-3.3l-1.2 5.3-.8-.1 1.4-6.2.7.1-.1.9zm2.8 1.8h0l-.3 1c-.1.3-.3.5-.5.7s-.4.3-.7.4c-.2.1-.5.1-.8.1s-.5-.1-.7-.2a1.2 1.2 0 0 1-.5-.5c-.1-.2-.2-.4-.2-.7v-.9l.1-.5c.1-.3.2-.6.4-.9.2-.2.3-.5.5-.6.2-.2.4-.3.7-.3.2-.1.5-.1.8 0 .3 0 .5.1.7.3.2.1.3.3.5.5.1.2.2.5.2.8-.1.2-.1.5-.2.8zm-.8 0h0c.1-.3.1-.5.1-.7s0-.4-.1-.6-.2-.3-.3-.4-.3-.2-.5-.2h-.5c-.2 0-.3.1-.4.2l-.3.3c-.1.1-.2.3-.2.4l-.2 1.1c0 .2 0 .4.1.6s.2.3.3.5c.1.1.3.2.6.2.2 0 .4 0 .6-.1s.3-.2.5-.3c.1-.1.2-.3.3-.5-.1-.1-.1-.3 0-.5zm4.2-1.8l-.1.6-2.5-.3.1-.6 2.5.3zm-1.4-1.3l.8.1-1 4.4v.4c0 .1.1.1.1.2.1 0 .1.1.2.1h.2.2l-.1.6h-.3-.4c-.2 0-.4-.1-.5-.2s-.2-.2-.3-.4 0-.4 0-.7l1.1-4.5zm3.1 6.3c-.3 0-.6-.1-.8-.3-.2-.1-.4-.3-.6-.5l-.3-.7c0-.3 0-.6.1-.9v-.2c.1-.4.2-.7.4-.9.2-.3.4-.5.6-.7s.5-.3.7-.4a1.1 1.1 0 0 1 .8 0c.3 0 .6.1.8.3a1.2 1.2 0 0 1 .5.5c.1.2.2.5.2.7 0 .3 0 .6-.1.9l-.1.3-3.4-.5.1-.6 2.6.4v-.1-.6c0-.2-.1-.4-.2-.5s-.3-.2-.6-.3h-.5c-.2.1-.3.1-.5.3-.1.1-.3.3-.4.5l-.3.7v.2c0 .2-.1.4 0 .6 0 .2.1.4.2.5.1.2.2.3.3.4.2.1.3.2.5.2.3 0 .5 0 .7-.1s.4-.2.6-.4l.4.4c-.1.1-.3.3-.5.4s-.4.2-.6.2c0 .2-.3.2-.6.2zm5.8-.2l1.3-5.5.8.1-1.5 6.3-.7-.1.1-.8zm-2.8-1.7h0a3 3 0 0 1 .4-1c.2-.3.3-.5.5-.7s.4-.3.7-.4c.2-.1.5-.1.8-.1s.5.1.7.3c.2.1.3.3.4.5s.2.4.2.7v.9l-.1.4c-.1.3-.2.6-.4.9-.1.2-.3.5-.5.6-.2.2-.4.3-.6.3-.2.1-.5.1-.8 0-.3 0-.5-.1-.7-.3-.2-.1-.3-.3-.5-.6-.1-.2-.2-.5-.2-.8 0-.1.1-.4.1-.7zm.8 0h0c-.1.3-.1.5-.1.7s0 .4.1.5c.1.2.2.3.3.4s.3.2.5.2c.3 0 .5 0 .7-.1s.4-.2.5-.4.3-.3.4-.5l.2-1v-.5c0-.2-.1-.3-.2-.4l-.3-.3c-.1-.1-.3-.1-.5-.2-.2 0-.4 0-.6.1s-.3.2-.5.3c-.1.1-.2.3-.3.5 0 .2-.1.5-.2.7z" class="R"/><path d="M165.7 433a21.4 21.4 0 0 1 18.2 26.6c-3 12.8-15.9 21.8-28.9 19.9a21.4 21.4 0 0 1-18.2-26.6c3-12.8 15.9-21.8 28.9-19.9zm-.9 3.7c-10.9-1.5-21.8 6-24.3 16.8a18 18 0 0 0 15.3 22.3c10.9 1.5 21.8-6 24.3-16.8s-4.3-20.8-15.3-22.3z" class="T"/><path d="M166.4 429.8a24.4 24.4 0 0 1 20.7 30.2c-3.3 14.6-18.1 24.7-32.8 22.6a24.4 24.4 0 0 1-20.7-30.2h0l10.2 1.4c-2.1 9 3.7 17.4 12.8 18.7a18.7 18.7 0 0 0 20.4-14c2.1-9-3.7-17.4-12.8-18.7h0l2.2-10h0zm-10.1 19.9l-1.8 8-1.5-.2 1.5-6.3-2.1.4.3-1.2 3.5-.7h.1zm3.2 4.9l-1.1-.4 1.4-4 4.5.6-.3 1.2-3.3-.5-.6 1.8c.1-.1.3-.1.6-.1h.8l1 .3c.3.2.5.4.7.6.2.3.3.6.3.9s0 .7-.1 1.1a3 3 0 0 1-.4 1c-.2.3-.4.6-.7.8s-.6.4-1 .5-.8.1-1.2 0c-.3 0-.7-.1-1-.3-.3-.1-.5-.3-.8-.6-.2-.2-.4-.5-.4-.8-.1-.3-.1-.6 0-1l1.5.2a1.7 1.7 0 0 0 .1.7c.1.2.2.3.3.5.2.1.4.2.6.2h.6c.2-.1.3-.2.5-.3.1-.1.2-.3.3-.5s.2-.4.2-.6c.1-.2.1-.4.1-.6s-.1-.4-.1-.5c-.1-.2-.2-.3-.4-.4s-.3-.2-.6-.2h-.7c-.5.2-.7.3-.8.4zm10.7.5l-.3 1.3a4.4 4.4 0 0 1-.6 1.6c-.2.4-.5.8-.8 1s-.6.4-1 .5-.7.1-1.2 0c-.3 0-.6-.1-.9-.2s-.5-.3-.7-.5-.3-.5-.4-.8-.1-.6-.1-1 .1-.8.2-1.3l.3-1.3c.1-.6.3-1.1.6-1.5.2-.4.5-.7.8-1 .3-.2.6-.4 1-.5s.7-.1 1.2 0c.3 0 .6.1.9.2s.5.3.7.5.3.4.4.7.1.6.1 1c-.1.3-.1.8-.2 1.3zm-1.9 1.3l.4-1.8c.1-.3.1-.6.1-.8v-.6c0-.2-.1-.3-.2-.4l-.3-.3c-.1-.1-.3-.1-.4-.1h-.5c-.2.1-.3.2-.5.3a3.1 3.1 0 0 0-.4.6l-.3 1-.4 1.8c-.1.3-.1.6-.1.8v.6c0 .2.1.3.2.4l.3.3c.1.1.3.1.4.1h.5c.2-.1.3-.2.5-.3.1-.2.3-.4.4-.6l.3-1z" class="Q"/><path d="M151.8 410.7l-.1.3c-.1.5-.3.9-.5 1.2a2.7 2.7 0 0 1-.7.8c-.3.2-.6.4-.9.5s-.7.1-1.1.1l-1-.3c-.3-.2-.5-.4-.7-.7s-.3-.6-.3-1 0-.8.1-1.2l.1-.3c.1-.5.3-.9.5-1.2a2.7 2.7 0 0 1 .7-.8c.3-.2.6-.4.9-.5s.7-.1 1.1-.1l1 .3c.3.2.5.4.7.7s.3.6.3 1c0 .3 0 .7-.1 1.2zm-1.1.2l.1-.3c.1-.3.1-.6.1-.9s-.1-.5-.1-.7c-.1-.2-.2-.3-.4-.5-.2-.1-.4-.2-.6-.2h-.7l-.6.3c-.2.2-.3.4-.4.6s-.2.5-.3.9l-.1.3c-.1.3-.1.6-.1.9s.1.5.1.7c.1.2.2.4.4.5s.4.2.6.2h.7l.6-.3c.2-.2.3-.4.4-.6l.3-.9zm2.7 3.3l-1-.1 1.1-4.9c.1-.3.2-.6.4-.8s.4-.4.7-.4c.3-.1.6-.1.9-.1.1 0 .2 0 .3.1.1 0 .2.1.3.1l-.2.8c-.1 0-.1 0-.2-.1h-.2-.4c-.1 0-.2.1-.3.2s-.1.2-.2.4l-1.2 4.8zm2-4.3l-.2.7-2.6-.4.2-.7 2.6.4zm1 4.7l-1-.1 1.1-4.9c.1-.3.2-.6.4-.8s.4-.4.7-.4c.3-.1.6-.1.9-.1.1 0 .2 0 .3.1.1 0 .2.1.3.1l-.2.8c-.1 0-.1 0-.2-.1h-.2-.4c-.1 0-.2.1-.3.2s-.1.2-.2.4l-1.2 4.8zm2-4.3l-.2.7-2.6-.4.2-.7 2.6.4zm1.6 4.9c-.3 0-.6-.1-.9-.3a1.7 1.7 0 0 1-.6-.6 6.9 6.9 0 0 1-.3-.8v-.9-.2c.1-.3.2-.7.4-.9.2-.3.4-.5.6-.7s.5-.3.8-.4.6-.1.9 0c.3 0 .6.1.8.3a1.2 1.2 0 0 1 .5.5c.1.2.2.5.2.7 0 .3 0 .6-.1.9l-.1.4-3.5-.5.2-.7 2.5.4v-.1-.5c0-.2-.1-.3-.2-.4s-.3-.2-.5-.2h-.5c-.1.1-.3.1-.4.3s-.2.3-.3.5-.2.4-.2.6v.2c0 .2-.1.4 0 .6 0 .2.1.3.1.5.1.1.2.3.3.3.1.1.3.1.5.2.2 0 .5 0 .7-.1l.6-.3.4.6c-.1.1-.3.2-.5.4-.2.1-.4.2-.6.2-.2.1-.5.1-.8 0zm4.5-3.2l-.8 3.6-1-.1 1-4.5 1 .1-.2.9zm1.6-.7l-.2.9c-.1 0-.1 0-.2-.1h-.2-.5c-.1 0-.3.1-.4.2l-.3.3c-.1.1-.1.3-.2.4h-.2l.3-.8c.1-.2.2-.4.4-.6s.3-.3.5-.4.4-.1.6-.1h.2c.1.2.1.2.2.2zm5.4 3.8v-.3c0-.1-.1-.2-.1-.3l-.3-.3-.6-.3c-.3-.1-.5-.3-.7-.4s-.4-.3-.6-.5c-.1-.2-.3-.4-.3-.6-.1-.2-.1-.4 0-.7.1-.2.2-.5.3-.6.2-.2.3-.3.6-.5.2-.1.5-.2.8-.2h.9c.5.1.8.2 1.1.4s.5.5.6.8.1.6.1 1l-1-.1v-.5c0-.2-.1-.3-.3-.4s-.4-.2-.6-.2h-.6c-.2.1-.3.1-.4.2s-.2.3-.2.4v.3c0 .1.1.2.2.3s.2.2.4.3.3.2.5.3c.3.1.6.3.8.5s.4.3.5.5l.3.6v.7c-.1.3-.2.5-.3.7s-.3.3-.6.5c-.2.1-.5.2-.8.2h-.9c-.3 0-.6-.1-.8-.2-.3-.1-.5-.3-.7-.5s-.3-.4-.4-.7-.1-.5 0-.9l1.1.1v.5c0 .1.1.3.2.4s.2.2.4.2c.2.1.3.1.5.1h.6c.2 0 .3-.1.4-.2-.3-.3-.2-.4-.1-.6zm4.6-2.3l-.2.7-2.6-.4.2-.7 2.6.4zm-1.6-1.4l1 .1-1 4.3v.3c0 .1.1.1.1.2.1 0 .1.1.2.1h.2.2l-.2.8h-.3-.4c-.2 0-.4-.1-.6-.2s-.3-.3-.3-.5c-.1-.2-.1-.5 0-.8l1.1-4.3zm4.1 5.4l.5-2.1v-.4c0-.1-.1-.2-.2-.3s-.2-.1-.4-.2h-.4c-.1 0-.2.1-.3.2s-.1.2-.2.3l-1-.1c0-.2.1-.3.2-.5s.3-.3.5-.4.4-.2.7-.2h.8c.3 0 .6.1.9.3.2.1.4.4.5.6s.1.5 0 .9l-.5 2c0 .2-.1.4-.1.6v.4.1l-1-.1v-.4-.7zm.6-1.8l-.1.6-.7-.1h-.5c-.2 0-.3 0-.4.1s-.2.1-.3.2-.1.2-.1.3v.3c0 .1.1.2.2.3s.2.1.4.1h.6c.2-.1.3-.1.4-.3.1-.1.2-.2.2-.3l.2.5c-.1.1-.1.2-.3.3-.1.1-.2.2-.4.3s-.3.2-.5.2-.4.1-.6 0c-.3 0-.5-.1-.8-.3-.2-.2-.4-.3-.4-.6-.1-.2-.1-.5 0-.7s.1-.4.3-.6c.1-.2.3-.3.5-.4s.4-.2.7-.2h.9l.7.3zm4.4-1.2l-.2.7-2.6-.4.2-.7 2.6.4zm-1.6-1.3l1 .1-1 4.3v.3c0 .1.1.1.1.2s.2.1.2.1h.2.2l-.2.8h-.3-.4c-.2 0-.4-.1-.6-.2s-.3-.3-.3-.5c-.1-.2-.1-.4 0-.8l1.1-4.3zm4.3 5.3l.8-3.4 1 .1-1 4.5-1-.1.2-1.1zm.4-1h.3l-.3.8c-.1.2-.3.4-.5.6s-.4.3-.6.4-.5.1-.8 0c-.2 0-.4-.1-.6-.2s-.3-.2-.4-.4-.2-.3-.2-.6c0-.2 0-.5.1-.8l.7-2.9 1 .1-.7 2.9v.4c0 .1 0 .2.1.3l.2.2c.1 0 .2.1.3.1.3 0 .5 0 .7-.1s.3-.2.5-.4c0 .1.1-.1.2-.4zm4.2 1.4v-.3c0-.1-.1-.2-.2-.3s-.3-.2-.6-.3l-.6-.3c-.2-.1-.3-.2-.4-.3s-.2-.3-.2-.4v-.5c0-.2.1-.3.2-.5s.3-.3.4-.4c.2-.1.4-.2.6-.2h.8c.4.1.7.2.9.3.2.2.4.4.5.6a1.7 1.7 0 0 1 .1.7l-1-.1v-.3c0-.1-.1-.2-.2-.3s-.2-.1-.4-.2h-.5c-.1 0-.2.1-.3.2s-.1.2-.1.3v.2c0 .1.1.1.1.2.1.1.1.1.3.2.1.1.3.1.4.2.3.1.6.3.8.4a1.2 1.2 0 0 1 .5.5c.1.2.1.4 0 .7 0 .2-.1.4-.3.5-.1.2-.3.3-.5.4s-.4.2-.6.2h-.8a3 3 0 0 1-1-.4c-.3-.2-.4-.4-.5-.6s-.1-.5-.1-.7l1 .1a.9.9 0 0 0 .1.5l.3.3c.1.1.3.1.4.1h.5c.1 0 .2-.1.3-.2s.1-.1.1-.3z" class="R"/><path d="M210.7 411.9l-2.1 9-1.5-.2 1.7-7.3-2.4.4.3-1.2 3.9-.8.1.1zm9.2 1.3l-.2.8-5.5 7.7-1.6-.2 5.5-7.3-4.7-.7.3-1.2 6.2.9zm1.8 5.2l-1.1-.5 1.5-4.5 4.9.7-.3 1.3-3.7-.5-.8 2.2c.2-.1.4-.1.6-.2h.9c.4.1.8.2 1.1.4s.6.4.7.7c.2.3.3.6.3 1s0 .8-.1 1.3c-.1.4-.2.8-.5 1.1-.2.3-.5.6-.8.9a3.7 3.7 0 0 1-1.1.5 3.3 3.3 0 0 1-1.4 0l-1.1-.3-.8-.6c-.2-.3-.4-.6-.5-.9s-.1-.7 0-1.1l1.5.2c0 .3 0 .6.1.8s.2.4.4.5.4.2.7.3h.7c.2-.1.4-.2.5-.3.2-.2.3-.3.4-.6.1-.2.2-.5.3-.7.1-.3.1-.5.1-.7s-.1-.4-.2-.6-.2-.3-.4-.4-.4-.2-.7-.2c-.4-.1-.6 0-.9 0 .1 0-.1.1-.3.2z" class="Q"/></svg>