<svg xmlns="http://www.w3.org/2000/svg" viewBox="0 0 600 600" xmlns:v="https://vecta.io/nano"><style><![CDATA[.U{fill:#fff}.V{fill:#cae2ff}.W{fill:#1b1c17}.X{stroke:#0668e1}.Y{stroke-width:.3}.Z{stroke-miterlimit:10}.a{stroke-linecap:round}]]></style><defs><path id="A" d="M0 0h600v600H0z"/><path id="B" d="     M303,520.7L565.6,370c5.4-3.1,4.7-8.4-1.5-12l-166.9-95.7c-6.2-3.6-15.6-3.9-20.9-0.9L113.7,412.1c-5.4,3.1-4.7,8.4,1.5,12     l166.9,95.7C288.3,523.4,297.6,523.8,303,520.7L303,520.7z"/><path id="C" d="M372.5 300.5l9.6-5.5c1.2-.7 1.1-1.9-.3-2.8l-2.8-1.6c-1.4-.8-3.6-.9-4.8-.2l-9.6 5.5c-1.2.7-1.1 1.9.3 2.8l2.8 1.6c1.4.8 3.6.9 4.8.2z"/><path id="D" d="M357 309.4l9.6-5.5c1.2-.7 1.1-1.9-.3-2.8l-2.8-1.6c-1.4-.8-3.6-.9-4.8-.2l-9.6 5.5c-1.2.7-1.1 1.9.3 2.8l2.8 1.6c1.5.8 3.6.9 4.8.2z"/><path id="E" d="M387.2 308l8.9-5.1c.8-.5.7-1.3-.2-1.8l-8.4-4.8c-1-.5-2.4-.6-3.2-.1l-8.9 5.1c-.8.5-.7 1.3.2 1.8l8.4 4.8c.9.5 2.3.6 3.2.1z"/><path id="F" d="M378.9 328.8l8.9-5.1c.8-.5.7-1.3-.2-1.8l-8.4-4.8c-1-.5-2.4-.6-3.2-.1l-8.9 5.1c-.8.5-.7 1.3.2 1.8l8.4 4.8c1 .5 2.4.6 3.2.1z"/><path id="G" d="M289 380.4l8.9-5.1c.8-.5.7-1.3-.2-1.8l-8.4-4.8c-1-.5-2.4-.6-3.2-.1l-8.9 5.1c-.8.5-.7 1.3.2 1.8l8.4 4.8c.9.5 2.4.6 3.2.1z"/><path id="H" d="M243.2 423l8.9-5.1c.8-.5.7-1.3-.2-1.8l-8.4-4.8c-1-.5-2.4-.6-3.2-.1l-8.9 5.1c-.8.5-.7 1.3.2 1.8l8.4 4.8a4 4 0 0 0 3.2.1z"/><path id="I" d="M333.2 371.4l8.9-5.1c.8-.5.7-1.3-.2-1.8l-8.4-4.8c-1-.5-2.4-.6-3.2-.1l-8.9 5.1c-.8.5-.7 1.3.2 1.8l8.4 4.8c.9.5 2.3.5 3.2.1z"/><path id="J" d="M421.5 345.5l10-5.7c.5-.3.5-.8-.1-1.2l-2.8-1.6c-.6-.4-1.6-.4-2.1-.1l-10 5.7c-.5.3-.5.8.1 1.2l2.8 1.6c.6.4 1.6.4 2.1.1z"/><path id="K" d="M198.8 315.4a7.2 7.2 0 0 1 3.1-5.3l7.5-4.6 7.5-4c1.7-.8 2.9-.1 3.1 1.8l.2 8.5-.2 8.7a7.2 7.2 0 0 1-3.1 5.3l-7.5 4.6-7.5 4c-1.7.8-2.9.1-3.1-1.8l-.2-8.5.2-8.7z"/><path id="L" d="M417.2 51.5c0 2.2 1.6 3.1 3.6 2a7.8 7.8 0 0 0 3.6-6.1c0-2.2-1.6-3.1-3.6-2a7.8 7.8 0 0 0-3.6 6.1z"/></defs><clipPath id="M"><use href="#A"/></clipPath><g clip-path="url(#M)"><path d="M280.2 12a39.3 39.3 0 0 1 39.5 0l219.8 126.9c12.2 7.1 19.8 20.1 19.8 34.2v253.8a39.6 39.6 0 0 1-19.2 33.9l-.6.3L319.8 588a39.3 39.3 0 0 1-39.5 0L60.4 461.1C48.2 454 40.7 441 40.6 426.9V173.1c0-14.1 7.5-27.2 19.8-34.2L280.2 12z" fill="#bfd8f7" fill-opacity=".2" class="X"/><linearGradient id="N" gradientUnits="userSpaceOnUse" x1="570" y1="398.3" x2="108.93" y2="398.3"><stop offset="0" stop-color="#a6ceff"/><stop offset="1" stop-color="#9cc5f8"/></linearGradient><path d="M110.8 414.8c3.1-1.3 265.5-146.1 265.5-146.1 5.4-3.1 14.7-2.7 20.9.9l171.2 92.5s2.4 4.4 1.4 8.9c-.7 3.3-1.7 4.6-3.2 5.7-.2.1-.5.3-.7.5-.1 0-.1.1-.2.1L303 527.9c-5.4 3.1-14.7 2.7-20.9-.9l-166.9-95.7c-.4-.2-.8-.5-1.2-.7-.1-.1-.2-.1-.3-.2-.2-.2-.5-.3-.7-.5-2.6-2.1-3.6-4.6-4.1-7.8-.4-3.5 1.9-7.3 1.9-7.3h0z" fill="url(#N)"/><linearGradient id="O" gradientUnits="userSpaceOnUse" x1="492.73" y1="96.44" x2="263.63" y2="537.42"><stop offset="0" stop-color="#fff"/><stop offset="1" stop-color="#d4e7fe"/></linearGradient><path d="M303 520.7L565.6 370c5.4-3.1 4.7-8.4-1.5-12l-166.9-95.7c-6.2-3.6-15.6-3.9-20.9-.9L113.7 412.1c-5.4 3.1-4.7 8.4 1.5 12l166.9 95.7c6.2 3.6 15.5 4 20.9.9h0z" fill="url(#O)"/><linearGradient id="P" gradientUnits="userSpaceOnUse" x1="523.43" y1="284.31" x2="155.89" y2="497.84"><stop offset="0" stop-color="#bdd2f4"/><stop offset="1" stop-color="#e5faff"/></linearGradient><use href="#B" fill="none" stroke="url(#P)" class="Y Z"/><use href="#B" fill="none" stroke="url(#P)" class="Y Z"/><linearGradient id="Q" gradientUnits="userSpaceOnUse" x1="912.42" y1="24.3" x2="652.77" y2="175.14"><stop offset="0" stop-color="#bdd2f4"/><stop offset="1" stop-color="#e7f2ff"/></linearGradient><path d="M376.7 288c-1.1 0-2.2.2-2.9.6L160.1 411.2h0c-.7.4-1 .9-.9 1.4s.5 1.1 1.4 1.6l79.4 45.6c.9.5 2.1.8 3.2.9 1.1 0 2.2-.2 2.9-.6l213.7-122.6h0c.7-.4 1-.9.9-1.4s-.5-1.1-1.4-1.6l-79.4-45.6h0c-.9-.5-2.1-.8-3.2-.9z" fill="url(#Q)" stroke="#a9d0ff" stroke-width=".94"/><linearGradient id="R" gradientUnits="userSpaceOnUse" x1="629.41" y1="286.22" x2="548.27" y2="333.36"><stop offset="0" stop-color="#bdd2f4"/><stop offset="1" stop-color="#d3e7ff"/></linearGradient><path d="M383.3 462.9l81.4-46.7-59-33.8-81.4 46.7 59 33.8z" fill="url(#R)"/><linearGradient id="S" gradientUnits="userSpaceOnUse" x1="236.45" y1="315.74" x2="247.26" y2="335.59"><stop offset="0" stop-color="#0f042e"/><stop offset="1" stop-color="#1c1265"/></linearGradient><path d="M143.9 402.7l217.8-125-8.7-5-217.8 125 8.7 5z" fill="url(#S)"/><g fill="#244063"><use href="#C"/><use href="#D"/><path d="M341.6 318.2l9.6-5.5c1.2-.7 1.1-1.9-.3-2.8l-2.8-1.6c-1.4-.8-3.6-.9-4.8-.2l-9.6 5.5c-1.2.7-1.1 1.9.3 2.8l2.8 1.6c1.5.8 3.6.9 4.8.2zm-15.4 8.8l9.6-5.5c1.2-.7 1.1-1.9-.3-2.8l-2.8-1.6c-1.4-.8-3.6-.9-4.8-.2l-9.6 5.5c-1.2.7-1.1 1.9.3 2.8l2.8 1.6c1.5.9 3.6.9 4.8.2zm-15.4 8.9l9.6-5.5c1.2-.7 1.1-1.9-.3-2.8l-2.8-1.6c-1.4-.8-3.6-.9-4.8-.2l-9.6 5.5c-1.2.7-1.1 1.9.3 2.8l2.8 1.6c1.4.8 3.6.9 4.8.2zm-15.4 8.8l9.6-5.5c1.2-.7 1.1-1.9-.3-2.8l-2.8-1.6c-1.4-.8-3.6-.9-4.8-.2l-9.6 5.5c-1.2.7-1.1 1.9.3 2.8l2.8 1.6c1.4.8 3.6.9 4.8.2zm-15.4 8.9l9.6-5.5c1.2-.7 1.1-1.9-.3-2.8l-2.8-1.6c-1.4-.8-3.6-.9-4.8-.2L272 349c-1.2.7-1.1 1.9.3 2.8l2.8 1.6c1.5.8 3.7.9 4.9.2zm-15.4 8.8l9.6-5.5c1.2-.7 1.1-1.9-.3-2.8l-2.8-1.6c-1.4-.8-3.6-.9-4.8-.2l-9.6 5.5c-1.2.7-1.1 1.9.3 2.8l2.8 1.6c1.4.8 3.5.9 4.8.2zm-15.5 8.9l9.6-5.5c1.2-.7 1.1-1.9-.3-2.8l-2.8-1.6c-1.4-.8-3.6-.9-4.8-.2l-9.6 5.5c-1.2.7-1.1 1.9.3 2.8l2.8 1.6c1.5.8 3.6.9 4.8.2zm-15.4 8.8l9.6-5.5c1.2-.7 1.1-1.9-.3-2.8l-2.8-1.6c-1.4-.8-3.6-.9-4.8-.2l-9.6 5.5c-1.2.7-1.1 1.9.3 2.8l2.8 1.6c1.4.8 3.6.9 4.8.2zm-15.4 8.9l9.6-5.5c1.2-.7 1.1-1.9-.3-2.8l-2.8-1.6c-1.4-.8-3.6-.9-4.8-.2l-9.6 5.5c-1.2.7-1.1 1.9.3 2.8l2.8 1.6c1.4.8 3.6.9 4.8.2zm-15.4 8.8l9.6-5.5c1.2-.7 1.1-1.9-.3-2.8l-2.8-1.6c-1.4-.8-3.6-.9-4.8-.2l-9.6 5.5c-1.2.7-1.1 1.9.3 2.8l2.8 1.6c1.4.8 3.6.9 4.8.2zm-15.4 8.8l9.6-5.5c1.2-.7 1.1-1.9-.3-2.8l-2.8-1.6c-1.4-.8-3.6-.9-4.8-.2l-9.6 5.5c-1.2.7-1.1 1.9.3 2.8l2.8 1.6c1.4.9 3.5 1 4.8.2zm-15.5 8.9l9.6-5.5c1.2-.7 1.1-1.9-.3-2.8l-2.8-1.6c-1.4-.8-3.6-.9-4.8-.2l-9.6 5.5c-1.2.7-1.1 1.9.3 2.8l2.8 1.6c1.5.8 3.6.9 4.8.2z"/><use href="#E"/><path d="M393.7 320.3l15.9-9.1c1-.6.9-1.7-.3-2.4l-7.4-4.2a4.6 4.6 0 0 0-4.1-.2l-15.9 9.1c-1 .6-.9 1.7.3 2.4l7.4 4.2a4.6 4.6 0 0 0 4.1.2zm-21.9-3.5l8.9-5.1c.8-.5.7-1.3-.2-1.8l-8.4-4.8c-1-.5-2.4-.6-3.2-.1l-8.9 5c-.8.5-.7 1.3.2 1.8l8.4 4.8c1 .6 2.4.7 3.2.2z"/><use href="#F"/><path d="M363.9 337.4l8.9-5.1c.8-.5.7-1.3-.2-1.8l-8.4-4.8c-1-.5-2.4-.6-3.2-.1l-8.9 5.1c-.8.5-.7 1.3.2 1.8l8.4 4.8c1 .5 2.4.6 3.2.1zm-15 8.6l8.9-5.1c.8-.5.7-1.3-.2-1.8l-8.4-4.8c-1-.5-2.4-.6-3.2-.1l-8.9 5.1c-.8.5-.7 1.3.2 1.8l8.4 4.8c1 .5 2.4.6 3.2.1zm-14.9 8.6l8.9-5.1c.8-.5.7-1.3-.2-1.8l-8.4-4.8c-1-.5-2.4-.6-3.2-.1l-8.9 5.1c-.8.5-.7 1.3.2 1.8l8.4 4.8c.9.5 2.3.6 3.2.1zm-15 8.6l8.9-5.1c.8-.5.7-1.3-.2-1.8l-8.4-4.8c-1-.5-2.4-.6-3.2-.1l-8.9 5.1c-.8.5-.7 1.3.2 1.8l8.4 4.8c.9.5 2.3.6 3.2.1zm-15 8.6l8.9-5.1c.8-.5.7-1.3-.2-1.8l-8.4-4.8c-1-.5-2.4-.6-3.2-.1l-8.9 5.1c-.8.5-.7 1.3.2 1.8l8.4 4.8c.9.5 2.3.6 3.2.1z"/><use href="#G"/><path d="M274 389l8.9-5.1c.8-.5.7-1.3-.2-1.8l-8.4-4.8c-1-.5-2.4-.6-3.2-.1l-8.9 5.1c-.8.5-.7 1.3.2 1.8l8.4 4.8c.9.5 2.4.6 3.2.1zm-15 8.6l8.9-5.1c.8-.5.7-1.3-.2-1.8l-8.4-4.8c-1-.5-2.4-.6-3.2-.1l-8.9 5.1c-.8.5-.7 1.3.2 1.8l8.4 4.8c1 .5 2.4.6 3.2.1zm-15 8.6l8.9-5.1c.8-.5.7-1.3-.2-1.8l-8.4-4.8c-1-.5-2.4-.6-3.2-.1l-8.9 5.1c-.8.5-.7 1.3.2 1.8l8.4 4.8c1 .5 2.4.6 3.2.1zm-15 8.6l8.9-5.1c.8-.5.7-1.3-.2-1.8l-8.4-4.8c-1-.5-2.4-.6-3.2-.1l-8.9 5.1c-.8.5-.7 1.3.2 1.8l8.4 4.8c1 .5 2.4.6 3.2.1z"/><use href="#H"/><path d="M227.6 431.9l8.9-5.1c.8-.5.7-1.3-.2-1.8l-8.4-4.8c-1-.5-2.4-.6-3.2-.1l-8.9 5.1c-.8.5-.7 1.3.2 1.8l8.4 4.8c1 .5 2.4.6 3.2.1zm30.6-17.5l8.9-5.1c.8-.5.7-1.3-.2-1.8l-8.4-4.8c-1-.5-2.4-.6-3.2-.1l-8.9 5.1c-.8.5-.7 1.3.2 1.8l8.4 4.8a4 4 0 0 0 3.2.1zm15-8.6l8.9-5.1c.8-.5.7-1.3-.2-1.8l-8.4-4.8c-1-.5-2.4-.6-3.2-.1l-8.9 5.1c-.8.5-.7 1.3.2 1.8l8.4 4.8a4 4 0 0 0 3.2.1zm15-8.6l8.9-5.1c.8-.5.7-1.3-.2-1.8l-8.4-4.8c-1-.5-2.4-.6-3.2-.1l-8.9 5.1c-.8.5-.7 1.3.2 1.8l8.4 4.8a4 4 0 0 0 3.2.1zm15-8.6l8.9-5.1c.8-.5.7-1.3-.2-1.8l-8.4-4.8c-1-.5-2.4-.6-3.2-.1l-8.9 5.1c-.8.5-.7 1.3.2 1.8l8.4 4.8a4 4 0 0 0 3.2.1zm15-8.6l8.9-5.1c.8-.5.7-1.3-.2-1.8l-8.4-4.8c-1-.5-2.4-.6-3.2-.1l-8.9 5.1c-.8.5-.7 1.3.2 1.8l8.4 4.8a4 4 0 0 0 3.2.1z"/><use href="#I"/><path d="M348.2 362.8l8.9-5.1c.8-.5.7-1.3-.2-1.8l-8.4-4.8c-1-.5-2.4-.6-3.2-.1l-8.9 5.1c-.8.5-.7 1.3.2 1.8l8.4 4.8c.9.5 2.3.5 3.2.1zm14.9-8.6l8.9-5.1c.8-.5.7-1.3-.2-1.8l-8.4-4.8c-1-.5-2.4-.6-3.2-.1l-8.9 5.1c-.8.5-.7 1.3.2 1.8l8.4 4.8a4 4 0 0 0 3.2.1zm15-8.6l8.9-5.1c.8-.5.7-1.3-.2-1.8l-8.4-4.8c-1-.5-2.4-.6-3.2-.1l-8.9 5.1c-.8.5-.7 1.3.2 1.8l8.4 4.8a4 4 0 0 0 3.2.1zm14.2 8.1l8.9-5.1c.8-.5.7-1.3-.2-1.8l-8.4-4.8c-1-.5-2.4-.6-3.2-.1l-8.9 5.1c-.8.5-.7 1.3.2 1.8l8.4 4.8c1 .5 2.4.6 3.2.1zm-119.2 85.9l8.9-5.1c.8-.5.7-1.3-.2-1.8l-8.4-4.8c-1-.5-2.4-.6-3.2-.1l-8.9 5.1c-.8.5-.7 1.3.2 1.8l8.4 4.8c.9.5 2.4.6 3.2.1zm-15.2 8.7l8.9-5.1c.8-.5.7-1.3-.2-1.8l-8.4-4.8c-1-.5-2.4-.6-3.2-.1l-8.9 5.1c-.8.5-.7 1.3.2 1.8l8.4 4.8c1 .5 2.4.6 3.2.1zm-15.1 8.7l8.9-5.1c.8-.5.7-1.3-.2-1.8l-8.4-4.8c-1-.5-2.4-.6-3.2-.1l-8.9 5.1c-.8.5-.7 1.3.2 1.8l8.4 4.8c1 .5 2.4.6 3.2.1zm62.8-36l8.9-5.1c.8-.5.7-1.3-.2-1.8l-8.4-4.8c-1-.5-2.4-.6-3.2-.1l-8.9 5.1c-.8.5-.7 1.3.2 1.8l8.4 4.8a4 4 0 0 0 3.2.1zm-16.5 9.4l8.9-5.1c.8-.5.7-1.3-.2-1.8l-8.4-4.8c-1-.5-2.4-.6-3.2-.1l-8.9 5.1c-.8.5-.7 1.3.2 1.8l8.4 4.8c1 .5 2.4.6 3.2.1z"/><use href="#J"/><path d="M428.8 349.7l10-5.7c.5-.3.5-.8-.1-1.2l-2.8-1.6c-.6-.4-1.6-.4-2.1-.1l-10 5.7c-.5.3-.5.8.1 1.2l2.8 1.6c.6.4 1.6.4 2.1.1zm14.6-8.3l10-5.7c.5-.3.5-.8-.1-1.2l-2.8-1.6c-.6-.4-1.6-.4-2.1-.1l-10 5.7c-.5.3-.5.8.1 1.2l2.8 1.6c.6.4 1.5.4 2.1.1zm-29.7 17l10-5.7c.5-.3.5-.8-.1-1.2l-2.8-1.6c-.6-.4-1.6-.4-2.1-.1l-10 5.7c-.5.3-.5.8.1 1.2l2.8 1.6c.7.4 1.6.4 2.1.1zm-17.6 10.7l11.6-6.7c.9-.5.8-1.5-.3-2.1l-8-4.6c-1.1-.6-2.7-.7-3.6-.1l-11.6 6.7c-.9.5-.8 1.5.3 2.1l8 4.6c1.1.5 2.7.6 3.6.1zm-70.4 40.4l62-35.6c2-1.1 1.7-3.1-.6-4.4l-3.6-2c-2.3-1.3-5.7-1.5-7.7-.3l-62 35.6c-2 1.1-1.7 3.1.6 4.4l3.6 2c2.3 1.2 5.7 1.4 7.7.3zm51.8-47.3l8.9-5.1c.8-.5.7-1.3-.2-1.8l-8.4-4.8c-1-.5-2.4-.6-3.2-.1l-8.9 5.1c-.8.5-.7 1.3.2 1.8l8.4 4.8c1 .5 2.4.6 3.2.1zm-14.8 8.5l8.9-5.1c.8-.5.7-1.3-.2-1.8L363 359c-1-.5-2.4-.6-3.2-.1l-8.9 5.1c-.8.5-.7 1.3.2 1.8l8.4 4.8c1 .5 2.4.6 3.2.1zm-14.8 8.5l8.9-5.1c.8-.5.7-1.3-.2-1.8l-8.4-4.8c-1-.5-2.4-.6-3.2-.1l-8.9 5.1c-.8.5-.7 1.3.2 1.8l8.4 4.8c1 .5 2.4.6 3.2.1zm-14.8 8.5l8.9-5.1c.8-.5.7-1.3-.2-1.8l-8.4-4.8c-1-.5-2.4-.6-3.2-.1l-8.9 5.1c-.8.5-.7 1.3.2 1.8l8.4 4.8c1 .5 2.4.6 3.2.1zm-14.8 8.5l8.9-5.1c.8-.5.7-1.3-.2-1.8l-8.4-4.8c-1-.5-2.4-.6-3.2-.1l-8.9 5.1c-.8.5-.7 1.3.2 1.8l8.4 4.8a4 4 0 0 0 3.2.1zm-14.8 8.5l8.9-5.1c.8-.5.7-1.3-.2-1.8l-8.4-4.8c-1-.5-2.4-.6-3.2-.1l-8.9 5.1c-.8.5-.7 1.3.2 1.8l8.4 4.8a4 4 0 0 0 3.2.1zm-14.8 8.5l8.9-5.1c.8-.5.7-1.3-.2-1.8l-8.4-4.8c-1-.5-2.4-.6-3.2-.1l-8.9 5.1c-.8.5-.7 1.3.2 1.8l8.4 4.8a4 4 0 0 0 3.2.1zm-14.8 8.5l8.9-5.1c.8-.5.7-1.3-.2-1.8l-8.4-4.8c-1-.5-2.4-.6-3.2-.1l-8.9 5.1c-.8.5-.7 1.3.2 1.8l8.4 4.8a4 4 0 0 0 3.2.1zm-14.8 8.5l8.9-5.1c.8-.5.7-1.3-.2-1.8l-8.4-4.8c-1-.5-2.4-.6-3.2-.1l-8.9 5.1c-.8.5-.7 1.3.2 1.8l8.4 4.8a4 4 0 0 0 3.2.1zm-30.8 17.7l24.1-13.9c1.3-.7 1.1-2-.4-2.8l-6.5-3.7c-1.5-.8-3.7-.9-5-.2l-24.1 13.9c-1.3.7-1.1 2 .4 2.8l6.5 3.7c1.5.8 3.7.9 5 .2zM393.1 337l8.9-5.1c.8-.5.7-1.3-.2-1.8l-8.4-4.8c-1-.5-2.4-.6-3.2-.1l-8.9 5.1c-.8.5-.7 1.3.2 1.8l8.4 4.8a4 4 0 0 0 3.2.1zm14.8-8.5l15.5-8.9c1-.6.9-1.6-.3-2.3l-7.4-4.3a4.6 4.6 0 0 0-4.1-.2l-15.5 8.9c-1 .6-.9 1.6.3 2.3l7.4 4.3c1.3.7 3.1.8 4.1.2z"/><path d="M408.2 344.6l29-16.6c1.3-.7 1.1-2.1-.4-2.9l-6.3-3.6c-1.5-.9-3.8-1-5.1-.2l-29 16.6c-1.3.7-1.1 2.1.4 2.9l6.3 3.6c1.5.9 3.8 1 5.1.2zm-220.1 82.9l21.8 12.5c1.3.7 3.5.7 4.8 0l7.1-4.1c1.3-.8 1.3-2 0-2.7l-9.9-5.7c-1.3-.8-1.3-2 0-2.8l10.6-6.1c1.1-.6 1.1-1.7 0-2.3l-7.9-4.5c-1.1-.6-2.9-.6-3.9 0l-22.5 12.9c-1.4.8-1.5 2-.1 2.8h0zm168.3-101.9l8.9-5.1c.8-.5.7-1.3-.2-1.8l-8.4-4.8c-1-.5-2.4-.6-3.2-.1l-8.9 5.1c-.8.5-.7 1.3.2 1.8l8.4 4.8c1 .6 2.4.6 3.2.1zm-15.3 8.9l8.9-5.1c.8-.5.7-1.3-.2-1.8l-8.4-4.8c-1-.5-2.4-.6-3.2-.1l-8.9 5.1c-.8.5-.7 1.3.2 1.8l8.4 4.8a4 4 0 0 0 3.2.1zm-15.4 8.8l8.9-5.1c.8-.5.7-1.3-.2-1.8l-8.4-4.8c-1-.5-2.4-.6-3.2-.1l-8.9 5.1c-.8.5-.7 1.3.2 1.8l8.4 4.8c1 .5 2.4.6 3.2.1zm-15.3 8.8l8.9-5.1c.8-.5.7-1.3-.2-1.8l-8.4-4.8c-1-.5-2.4-.6-3.2-.1l-8.9 5.1c-.8.5-.7 1.3.2 1.8l8.4 4.8c.9.5 2.3.6 3.2.1zm-15.4 8.8l8.9-5.1c.8-.5.7-1.3-.2-1.8l-8.4-4.8c-1-.5-2.4-.6-3.2-.1l-8.9 5.1c-.8.5-.7 1.3.2 1.8l8.4 4.8c.9.5 2.4.6 3.2.1zm-15.4 8.8l8.9-5.1c.8-.5.7-1.3-.2-1.8l-8.4-4.8c-1-.5-2.4-.6-3.2-.1l-8.9 5.1c-.8.5-.7 1.3.2 1.8l8.4 4.8c1 .5 2.4.6 3.2.1zm-15.3 8.8l8.9-5.1c.8-.5.7-1.3-.2-1.8l-8.4-4.8c-1-.5-2.4-.6-3.2-.1l-8.9 5.1c-.8.5-.7 1.3.2 1.8l8.4 4.8c.9.5 2.3.6 3.2.1zm-15.4 8.8l8.9-5.1c.8-.5.7-1.3-.2-1.8l-8.4-4.8c-1-.5-2.4-.6-3.2-.1l-8.9 5.1c-.8.5-.7 1.3.2 1.8l8.4 4.8c.9.6 2.4.6 3.2.1zm-15.4 8.9l8.9-5.1c.8-.5.7-1.3-.2-1.8l-8.4-4.8c-1-.5-2.4-.6-3.2-.1l-8.9 5.1c-.8.5-.7 1.3.2 1.8l8.4 4.8a4 4 0 0 0 3.2.1zm-15.3 8.8l8.9-5.1c.8-.5.7-1.3-.2-1.8l-8.4-4.8c-1-.5-2.4-.6-3.2-.1l-8.9 5.1c-.8.5-.7 1.3.2 1.8l8.4 4.8c.9.5 2.3.5 3.2.1zM186 423.4l24.8-14.2c1.3-.7 1.1-2-.4-2.9l-6.4-3.7c-1.5-.9-3.7-.9-5-.2l-24.8 14.2c-1.3.7-1.1 2 .4 2.9l6.4 3.7c1.5.9 3.8 1 5 .2z"/></g><path d="M383.3 463.1l81.7-46.9-59.3-34-81.7 46.9 59.3 34zm81.1-46.9l-81.1 46.5-58.6-33.6 81.1-46.5 58.6 33.6z" fill="none" stroke="#bed3f4" class="Y Z"/><linearGradient id="T" gradientUnits="userSpaceOnUse" x1="-58.83" y1="396.22" x2="-350.94" y2="565.92"><stop offset="0" stop-color="#e5faff"/><stop offset="1" stop-color="#bdd2f4"/></linearGradient><path d="M100.8 415l271.3-155.7c3.6-2.1 7-6.4 8.5-11.1l.4-1.2 2-208.6c0-2.8-.9-4.8-2.6-5.8s-4-.8-6.4.6L98.9 191.1a18.8 18.8 0 0 0-6.4 6.7c-1.7 2.9-2.6 6.1-2.6 8.8l2 206.2.4.8c1.6 2.9 4.9 3.5 8.5 1.4h0zm271.3-165.9L100.9 404.7l-2-203.4L374 43.5l-1.9 205.6h0z" fill="url(#T)"/><linearGradient id="U" gradientUnits="userSpaceOnUse" x1="377.48" y1="54.01" x2="114.34" y2="379.83"><stop offset="0" stop-color="#3b92ff"/><stop offset="1" stop-color="#4f9eff"/></linearGradient><path d="M96.9 208.3L99 410.9c.8 1.5 2.5 1.8 4.4.7l271.3-155.7a6.1 6.1 0 0 0 1.6-1.2c1.2-1.2 2.2-2.8 2.8-4.5l2.1-205c1.1-4.3-.7-7.4-3.4-5.8L100.2 198.6s-.1.1-.2.1a9.7 9.7 0 0 0-3.1 9.6h0z" fill="url(#U)"/><linearGradient id="V" gradientUnits="userSpaceOnUse" x1="-55.01" y1="397.15" x2="-347.12" y2="566.85"><stop offset="0" stop-color="#1c1265"/><stop offset="1" stop-color="#0f042e"/></linearGradient><path d="M103.3 416.7L374.6 261c3.6-2.1 7-6.4 8.5-11.1l.4-1.2 2-208.6c0-2.8-.9-4.8-2.6-5.8s-4-.8-6.4.6L101.4 192.8a18.8 18.8 0 0 0-6.4 6.7c-1.7 2.9-2.6 6.1-2.6 8.8l2 206.2.4.8c1.6 3 4.9 3.5 8.5 1.4h0zm271.2-165.9L103.4 406.4l-2-203.4L376.5 45.2l-2 205.6z" fill="url(#V)"/><linearGradient id="W" gradientUnits="userSpaceOnUse" x1="205.2" y1="288.27" x2="282.68" y2="143.3"><stop offset="0" stop-color="#f5f5f5"/><stop offset=".05" stop-color="#c7c7c7"/><stop offset=".09" stop-color="#9c9c9c"/><stop offset=".14" stop-color="#777"/><stop offset=".2" stop-color="#565656"/><stop offset=".25" stop-color="#3b3b3b"/><stop offset=".32" stop-color="#252525"/><stop offset=".4" stop-color="#141414"/><stop offset=".49" stop-color="#080808"/><stop offset=".63" stop-color="#010101"/><stop offset="1"/></linearGradient><path d="M374.5 250.8l2-205.7L101.4 203c91.5 61.8 239.6 67.1 273.1 47.8z" opacity=".1" fill="url(#W)"/><g class="U"><path d="M130.4 216.9v186.3c0 7.9 5.6 11.2 12.6 7.2l276.3-158.6c7-4 12.6-13.7 12.6-21.6V43.7c0-7.9-5.6-11.2-12.6-7.2L143 195.2c-7 4-12.6 13.7-12.6 21.7h0z"/><path d="M429.8 35.9c-2.2-1.2-5.2-1.1-8.7.9L144.8 195.4c-3.4 2-6.6 5.4-8.8 9.2-2.3 3.9-3.7 8.3-3.7 12.2v186.3c0 3.9 1.4 6.6 3.6 7.9 2.1 1.2 5.1 1.1 8.4-.7l.3-.2 276.3-158.6h0c3.4-2 6.6-5.4 8.8-9.2 2.3-3.9 3.7-8.3 3.7-12.2V43.7c-.1-3.9-1.5-6.6-3.6-7.8z" fill-opacity=".4" stroke-width=".47" class="X"/></g><path d="M321.6 224.4c.2-.1.3-.2.5-.3s.4-.2.5-.3c.2-.1.3-.2.5-.2v.6l-1.2.7c-.1.1-.2.1-.2.2s-.1.2-.1.3v2.9l-.7.4v-3.1c0-.2.1-.5.2-.7s.3-.3.5-.5zm-.6 2.1l2-1.1v.6l-2 1.1v-.6zm3.7-2.7a2.3 2.3 0 0 1 .9-.3c.2.1.3.2.3.6 0 .2-.1.5-.2.7s-.3.4-.6.5l-1.4.8v-.5l1.2-.7c.1-.1.2-.1.2-.2v-.3c0-.1 0-.2-.1-.2s-.2 0-.3.1-.2.2-.3.2c-.1.1-.1.2-.2.3v.5c0 .2 0 .4.1.5 0 .1.1.2.2.2s.2 0 .4-.1c.1-.1.2-.1.4-.2s.3-.2.5-.3l.1.5-.3.3c-.1.1-.2.2-.4.3-.1.1-.2.2-.4.2-.3.2-.6.3-.7.3-.2 0-.3-.1-.4-.2-.1-.2-.1-.4-.1-.8s0-.7.1-.9c.1-.3.2-.5.4-.7s.3-.5.6-.6zm2.9-1.7c.2-.1.4-.2.5-.2s.2 0 .3.1.1.3.1.5v1.8l-.6.3-.1-.5v-.1-1c0-.1 0-.2-.1-.2s-.2 0-.3.1-.3.2-.5.3-.4.2-.6.4l-.1-.5c.1-.1.3-.2.4-.3.2-.1.3-.2.5-.3.2-.3.4-.3.5-.4zm.6.8v.5l-1.1.6c-.1.1-.2.1-.2.2s-.1.1-.1.2v.1c0 .1 0 .2.1.2 0 0 .1 0 .2-.1.1 0 .2-.1.3-.2l.3-.3c.1-.1.2-.3.3-.4v.4c0 .1-.1.2-.1.3-.1.1-.1.2-.2.4-.1.1-.2.3-.3.4s-.3.2-.4.3-.3.1-.4.1-.2 0-.3-.1-.1-.2-.1-.4v-.3c0-.2.1-.4.2-.6a1.2 1.2 0 0 1 .5-.5l1.3-.8zm1.8-2.9v2.7c0 .1 0 .2.1.2 0 0 .1 0 .2-.1l.3-.2.1.5-.2.2c-.1.1-.2.1-.3.2s-.2.1-.2.1c-.2.1-.4.2-.5.1s-.2-.2-.2-.5v-2.9l.7-.3zm.7.4v.5l-1.8 1v-.5l.5-.3 1.3-.7zm1.1-.7v1.8c0 .1 0 .2.1.2 0 0 .1 0 .2-.1s.2-.1.3-.2l.4-.4.1.4c-.2.3-.4.5-.5.7-.2.2-.3.3-.5.4-.5.3-.7.1-.7-.4V220l.6-.3zm1.6-.9v2.8l-.6.3-.1-.5h-.1v-2.2l.8-.4zm1.2-.7l.1.5h.1v2.2l-.7.4v-2.8l.5-.3zm1.1-.7l-.1.8-.2.1c-.1.1-.2.2-.4.3-.1.1-.3.3-.5.4v-.4c.2-.3.3-.5.5-.7s.3-.3.5-.4l.2-.1zm1.5-.8a2.3 2.3 0 0 1 .9-.3c.2.1.3.2.3.6 0 .2-.1.5-.2.7s-.3.4-.6.5l-1.4.8v-.5l1.2-.7c.1-.1.2-.1.2-.2v-.3c0-.1 0-.2-.1-.2s-.2 0-.3.1-.2.2-.3.2c-.1.1-.1.2-.2.3v.5c0 .2 0 .4.1.5 0 .1.1.2.2.2s.2 0 .4-.1c.1-.1.2-.1.4-.2s.3-.2.5-.3l.1.5-.3.3c-.1.1-.2.2-.4.3-.1.1-.2.2-.4.2-.3.2-.6.3-.7.3-.2 0-.3-.1-.4-.2-.1-.2-.1-.4-.1-.8s0-.7.1-.9c.1-.3.2-.5.4-.7a.9.9 0 0 1 .6-.6zm3.4-3.1c.2-.1.4-.2.5-.3.2-.1.4-.2.5-.3.2-.1.3-.2.5-.2v.6l-1.3.7c-.1 0-.1.1-.2.2 0 .1-.1.1-.1.2v2c0 .1 0 .2.1.2h.2l1.3-.7v.6c-.2.1-.3.2-.5.3s-.4.2-.5.3c-.2.1-.4.2-.5.3-.2.1-.4.2-.5.1s-.2-.2-.2-.4v-2.4c0-.2.1-.5.2-.7s.3-.3.5-.5zm-.6 2l2-1.2v.6l-2 1.2v-.6zm5.8-3.9c.2-.1.4-.2.5-.1s.2.2.2.5v2.1l-.7.4v-1.8c0-.1 0-.2-.1-.2h-.2c-.1 0-.1.1-.2.1s-.1.1-.2.2-.2.2-.2.3v-.4c.2-.3.3-.5.5-.7 0-.1.2-.3.4-.4zm-2.5 1.5l.1.5h.1v2.2l-.7.4v-2.8l.5-.3zm1-.6c.2-.1.4-.2.5-.1s.2.2.2.5v2.1l-.7.4v-1.8c0-.1 0-.2-.1-.2h-.2c-.1 0-.1.1-.2.1s-.1.1-.2.2l-.3.3v-.4c.2-.3.3-.5.5-.7.1-.2.3-.3.5-.4zm4.3-2.5c.3-.2.5-.2.7 0 .1.2.2.5.2 1 0 .4 0 .7-.1.9s-.2.5-.3.6c-.1.2-.3.3-.5.4s-.3.2-.5.2h-.4v-.4c.1 0 .2 0 .3-.1.1 0 .2-.1.3-.1.1-.1.2-.1.2-.2.1-.1.1-.2.1-.3v-.6-.5c0-.1-.1-.2-.1-.2-.1 0-.1 0-.2.1s-.2.1-.3.2-.2.2-.3.4l-.1-.3c.1-.1.1-.3.2-.4s.2-.3.3-.4c.3-.1.4-.2.5-.3zm-1 .7l.1.5h.1v1.8.1.3.4.7l-.7.4V211l.5-.3zm3.1-3v3.1c0 .1 0 .2.1.2 0 0 .1 0 .2-.1l.2-.1.1.5-.2.2-.2.2c-.1.1-.1.1-.2.1-.2.1-.4.2-.5.1s-.2-.2-.2-.4v-3.3l.7-.5zm2-.1c.3-.2.5-.3.7-.3s.3.1.4.2c.1.2.1.4.1.8s0 .7-.1.9c-.1.3-.2.5-.4.7s-.4.4-.7.6-.5.3-.7.3-.3-.1-.4-.2c-.1-.2-.1-.4-.1-.8s0-.7.1-.9c.1-.3.2-.5.4-.7s.4-.4.7-.6zm0 .7c-.1.1-.2.2-.3.2-.1.1-.1.2-.2.3v.6.5c0 .1.1.2.2.2s.2 0 .3-.1.2-.2.3-.2c.1-.1.1-.2.1-.3v-.6-.5c0-.1-.1-.2-.1-.2-.1-.1-.2 0-.3.1zm4.1-2.9l-.9 3.3c0 .2-.1.3-.2.5s-.2.4-.3.5c-.1.2-.2.3-.4.5-.1.1-.3.3-.5.3l-.1-.4c.2-.2.4-.3.5-.5s.2-.3.3-.6l.2-.5c0-.1.1-.2.1-.3s.1-.3.1-.4l.5-2.1.7-.3zm-1.9 1.1l.5 1.5v.2.2l.1-.1-.2.7-.2.1h-.1s-.1 0-.1-.1l-.8-2.1.8-.4zm3.4-2.1a2.3 2.3 0 0 1 .9-.3c.2.1.3.2.3.6 0 .2-.1.5-.2.7s-.3.4-.6.5l-1.4.8v-.5l1.2-.7c.1-.1.2-.1.2-.2v-.3c0-.1 0-.2-.1-.2s-.2 0-.3.1-.2.2-.3.2c-.1.1-.1.2-.2.3v.5c0 .2 0 .4.1.5 0 .1.1.2.2.2s.2 0 .4-.1c.1-.1.2-.1.4-.2s.3-.2.5-.3l.1.5-.3.3c-.1.1-.2.2-.4.3-.1.1-.2.2-.4.2-.3.2-.6.3-.7.3-.2 0-.3-.1-.4-.2-.1-.2-.1-.4-.1-.8s0-.7.1-.9c.1-.3.2-.5.4-.7a1.7 1.7 0 0 1 .6-.6zm2.2-1.1l.1.5h.1v2.2l-.7.4v-2.8l.5-.3zm1.2-.8l-.1.8-.2.1c-.1.1-.2.2-.4.3-.1.1-.3.3-.5.4v-.4c.2-.3.3-.5.5-.7s.3-.3.5-.4l.2-.1z" class="W"/><path d="M325.5 230.7l88-50.5c2.6-1.5 4.7-.3 4.7 2.7v35.5c0 3-2.1 6.6-4.7 8.1l-88 50.5c-2.6 1.5-4.7.3-4.7-2.7v-35.5c0-3 2.1-6.6 4.7-8.1z" stroke="#bad9ff" stroke-width=".47" class="U"/><g class="V"><path d="M363 218.3l29.4-16.9c.9-.5 1.6-.1 1.6.9h0c0 1-.7 2.3-1.6 2.8L363 222c-.9.5-1.6.1-1.6-.9h0c-.1-1 .7-2.3 1.6-2.8zm0 7.5l22.8-13.1c.4-.3.8 0 .8.5h0c0 .5-.4 1.1-.8 1.4l-22.8 13c-.4.3-.8 0-.8-.5h0c0-.4.3-1.1.8-1.3zm0 3.7l14.7-8.4c.4-.3.8 0 .8.5h0c0 .5-.4 1.1-.8 1.4l-14.7 8.4c-.4.3-.8 0-.8-.5h0c0-.5.3-1.1.8-1.4zm1.6 10.3l4.9-2.8c1.3-.8 2.4-.1 2.4 1.4h0a5.4 5.4 0 0 1-2.4 4.2l-4.9 2.8c-1.3.8-2.4.1-2.4-1.4h0a5.3 5.3 0 0 1 2.4-4.2zm16.3-9.3l4.9-2.8c1.3-.8 2.4-.1 2.4 1.4h0a5.4 5.4 0 0 1-2.4 4.2l-4.9 2.8c-1.3.8-2.4.1-2.4-1.4h0c0-1.6 1-3.5 2.4-4.2zm16.3-9.4l4.9-2.8c1.3-.8 2.4-.1 2.4 1.4h0a5.4 5.4 0 0 1-2.4 4.2l-4.9 2.8c-1.3.8-2.4.1-2.4-1.4h0a5.4 5.4 0 0 1 2.4-4.2z"/></g><defs><path id="X" d="M328.8 237.9l24.4-14.1V252l-24.4 14.1z"/></defs><clipPath id="Y"><use href="#X"/></clipPath><g clip-path="url(#Y)"><path d="M343.9 246.7c.8 1.7 2.8.9 4.4.3 2.4-.9 4.8.4 4.8 3.4v1.2c0 .2-.1.5-.3.6l-23.7 13.7c-.2.1-.3 0-.3-.2v-1.1c0-3.6 2.5-7.1 5-9 1.8-1.4 3.4-2.5 4-5.5.2.1.3.1.5.2 1.7.8 3.6-.3 5.2-3 .2-.2.3-.4.4-.6z" fill="#194794"/><g fill="#d2a75f"><path d="M343.9 246.7c.4.9 1.2 1.1 2 1-2.9 4.1-6.8 6.2-9.7 5.8a7.6 7.6 0 0 0 1.6-3.4c.2.1.3.1.5.2 1.7.8 3.6-.3 5.2-3 .2-.2.3-.4.4-.6z"/><path d="M341.1 252.3c-1.7 1-3.4 1.4-4.9 1.2a7.6 7.6 0 0 0 1.6-3.4c.2.1.3.1.5.2.9.4 1.8.3 2.8-.3v2.3z"/></g><g fill-rule="evenodd"><path d="M335.2 245.9c.2-.9.7-.9 1.5-1h0 0c.5-6.7 4.1-5.1 6.7-9.9 1.4 0 2.3 1 2.1 4.7h0c0 .2 0 .4-.1.6.7-1 1.6-1.5 1.3 0l-.4 1.6c-.1.4-.2.5-.5.7-.2.1-.3.1-.5.1.1 1.9-.7 3-1.7 4.8-1.6 2.7-3.5 3.8-5.2 3-1-.4-1.9-.5-1.9-2.6-.3.2-.5.4-.7.4-.4 0-.6-.7-.6-1.2v-1.2z" fill="#e9be79"/><path d="M335.2 245.9c.2-.9.7-.9 1.5-1h0 0c.4-4.9 2.4-5.3 4.5-7.1v12.4c-.9.6-1.9.7-2.8.3-1-.4-1.9-.6-1.9-2.6-.3.2-.5.4-.7.4-.7-.2-.7-1.6-.6-2.4z" fill="#f2cd8c"/><path d="M333.9 240c3.2-6.5 7-11.2 9.8-8.7 3.4-1.8 4.6 4 1.7 8.2.2-3.6-.7-4.7-2.1-4.7-2.7 4.9-6.2 3.3-6.7 9.9h-1.3c0-1.7.3-5-1.4-4.7z" fill="#333231"/></g></g><linearGradient id="Z" gradientUnits="userSpaceOnUse" x1="108.35" y1="260.97" x2="-173.36" y2="420.48"><stop offset="0" stop-color="#fff"/><stop offset=".27" stop-color="#f6d3ff"/><stop offset=".87" stop-color="#e065ff"/><stop offset="1" stop-color="#dc4dff"/></linearGradient><path d="M159.4 236.9L412.2 91.7V84L159.4 229.2v7.7z" fill="url(#Z)"/><defs><path id="a" d="M190.7 307.2l31.3-18.1v36.1l-31.3 18.1z"/></defs><clipPath id="b"><use href="#a"/></clipPath><g clip-path="url(#b)"><path d="M196 306.7c-1.7 1.1-2.9 3.3-3.1 5.3l-.2 8.7.2 8.5c.1 1.9 1.4 2.6 3.1 1.8l2.7-1.4-.1-5.5.2-8.7a7.2 7.2 0 0 1 3.1-5.3l7.5-4.6 4.8-2.7-.1-3c-.1-1.9-1.4-2.6-3.1-1.8s-4.1 2.1-7.5 4l-7.5 4.7z" class="U"/><use href="#K" fill="#8fbffa"/><path d="M211.6 311.7c0 .6.2 1.1.6 1.3s.9.2 1.4-.1a4.1 4.1 0 0 0 1.4-1.5c.4-.6.6-1.3.6-1.9s-.2-1.1-.6-1.3-.9-.2-1.4.1a4.1 4.1 0 0 0-1.4 1.5c-.4.6-.6 1.3-.6 1.9zm8.3 6l-.1 2.8a7.2 7.2 0 0 1-3.1 5.3l-7.5 4.6-7.5 4c-1.7.8-2.9.1-3.1-1.8l-.2-3.2 5-7.6c.9-1.3 2.1-1.8 3-1.5a30.5 30.5 0 0 1 4.1 1.9l3-4.4c.9-1.3 2.1-1.8 3-1.5a12.2 12.2 0 0 1 3.4 1.4z" class="U"/><g fill="none" stroke="#2859c5" stroke-width=".9" stroke-linejoin="round"><path d="M213.8 299.1c-.4-1.3-1.5-1.8-2.9-1.1-1.7.8-4.1 2.1-7.5 4.1l-7.5 4.6c-1.7 1.1-2.9 3.3-3.1 5.3l-.2 8.7.2 8.5c.1 1.6 1.1 2.3 2.4 2" class="a"/><use href="#K"/><path d="M219.9 317.7l-3.3-1.5c-.9-.3-2 .2-3 1.5l-3 4.4-4.1-1.9c-.9-.3-2 .2-3 1.5a83 83 0 0 0-5 7.6m13.1-17.6c0 .6.2 1.1.6 1.3s.9.2 1.4-.1a4.1 4.1 0 0 0 1.4-1.5c.4-.6.6-1.3.6-1.9s-.2-1.1-.6-1.3-.9-.2-1.4.1a4.1 4.1 0 0 0-1.4 1.5c-.4.6-.6 1.3-.6 1.9z" class="a"/></g></g><g class="V"><path d="M192.3 344.7l29.4-16.9c.9-.5 1.6-.1 1.6.9h0c0 1-.7 2.3-1.6 2.8l-29.4 16.9c-.9.5-1.6.1-1.6-.9h0c0-1.1.7-2.3 1.6-2.8zm-.2 7.6L210 342c.4-.3.8 0 .8.5h0c0 .5-.4 1.1-.8 1.4l-17.9 10.3c-.4.3-.8 0-.8-.5h0c0-.6.4-1.2.8-1.4z"/></g><path d="M192.3 298c.3-.2.6-.3.7-.3.2 0 .3 0 .4.2.1.1.1.4.1.7s0 .6-.1.8-.2.4-.4.6-.4.3-.7.5c-.2.1-.3.2-.4.2-.1.1-.3.1-.4.2-.1 0-.2.1-.3.1h-.2v-.4l.6-.3c.2-.1.4-.2.6-.4.1-.1.2-.2.3-.2.1-.1.1-.2.2-.3v-.4-.4c0-.1-.1-.1-.2-.1s-.2.1-.3.1c-.3.2-.6.3-.8.5-.2.1-.4.2-.4.3l-.1-.6c.1-.1.3-.2.4-.3s.3-.2.4-.2c.3-.1.4-.2.6-.3zm-.5.4v3.9l-.7.4v-3.9l.7-.4zm3-.6v2.8l-.7.4v-2.8l.7-.4zm-.2-1.1c.1-.1.2 0 .2.1v.3c0 .2-.1.3-.2.4l-.3.2c-.1.1-.2 0-.2-.1v-.3c0-.2.1-.3.2-.4l.3-.2zm3.2-.6l-.7 1.8.8 1-.7.4-.7-1 .7-1.7.6-.5zm-1.9 1l.7 1-.7 1.8-.7.4.8-1.9-.7-1 .6-.3zm1 .6v.5l-.8.4v-.5l.8-.4zm5-5.1l-.9 4.2c0 .1 0 .2-.1.2 0 .1-.1.1-.2.2l-.7.4h-.2l-.1-.1-.9-3.1.8-.4.6 2.5v.2.2l.1-.1v-.2-.2l.6-3.2 1-.6zm1.5.2c.2-.1.4-.2.5-.2s.2 0 .3.1.1.3.1.5v1.8l-.6.3-.1-.5v-.1-1.2c0-.1 0-.2-.1-.2s-.2 0-.3.1-.3.2-.5.3-.4.2-.6.4l-.1-.5c.1-.1.3-.2.4-.3.2-.1.3-.2.5-.3s.4-.2.5-.2zm.6.7v.5l-1.1.6c-.1.1-.2.1-.2.2s-.1.1-.1.2v.1c0 .1 0 .2.1.2 0 0 .1 0 .2-.1.1 0 .2-.1.3-.2l.3-.3c.1-.1.2-.3.3-.4v.4c0 .1-.1.2-.1.3-.1.1-.1.2-.2.4-.1.1-.2.3-.3.4s-.3.2-.4.3-.3.1-.4.1-.2 0-.3-.1-.1-.2-.1-.4v-.3c0-.2.1-.4.2-.6a1.2 1.2 0 0 1 .5-.5l1.3-.8zm1.6-1.9v1.8c0 .1 0 .2.1.2 0 0 .1 0 .2-.1s.2-.1.3-.2l.4-.4.1.4c-.2.3-.3.5-.5.7s-.3.3-.5.4c-.5.3-.7.1-.7-.4v-2l.6-.4zm1.6-1v2.8l-.6.3-.1-.5h-.1V291l.8-.4zm1.3-1.9v3.1c0 .1 0 .2.1.2 0 0 .1 0 .2-.1l.2-.1.1.5-.2.2-.2.2c-.1.1-.1.1-.2.1-.2.1-.4.2-.5.1s-.2-.2-.2-.4v-3.3l.7-.5zm1.8-.6v2.7c0 .1 0 .2.1.2 0 0 .1 0 .2-.1l.3-.2.1.5-.2.2c-.1.1-.2.1-.3.2s-.2.1-.2.1c-.2.1-.4.2-.5.1s-.2-.2-.2-.5v-2.9l.7-.3zm.7.4v.5l-1.8 1v-.5l.5-.3 1.3-.7z" class="W"/><defs><path id="c" d="M237.5 281l31.2-18.1V299l-31.2 18z"/></defs><clipPath id="d"><use href="#c"/></clipPath><g clip-path="url(#d)"><path d="M264.2 297.1L246 307.6c-1.4.8-2.6.1-2.6-1.5v-15c0-1.7 1.2-3.7 2.6-4.5l18.2-10.5c1.4-.8 2.6-.2 2.6 1.5v15c0 1.7-1.2 3.7-2.6 4.5z" class="V"/><path d="M260.3 294.9L242 305.4c-1.4.8-2.6.1-2.6-1.5v-15c0-1.7 1.2-3.7 2.6-4.5l18.2-10.5c1.4-.8 2.6-.1 2.6 1.5v15c.1 1.6-1.1 3.6-2.5 4.5z" fill="#0668e1"/><g class="U"><path d="M257 284c1.1-.6 2-2.1 2-3.4 0-1.2-.9-1.8-2-1.1-1.1.6-2 2.1-2 3.4 0 1.2.9 1.7 2 1.1zm-8.5 4l-5.9 13.2 11.7-6.8-5.8-6.4z"/><path d="M255.7 288.1l-3.9 7.9 7.8-4.5-3.9-3.4z"/></g></g><g class="V"><path d="M239 318.4l29.4-16.9c.9-.5 1.6-.1 1.6.9h0c0 1-.7 2.3-1.6 2.8l-29.4 17c-.9.5-1.6.1-1.6-.9h0c0-1.1.8-2.3 1.6-2.9zm-.1 7.6l17.9-10.3c.4-.3.8 0 .8.5h0c0 .5-.4 1.1-.8 1.4l-17.9 10.3c-.4.3-.8 0-.8-.5h0c-.1-.5.3-1.1.8-1.4z"/></g><path d="M240.5 271l-.9 4.2c0 .1 0 .2-.1.2 0 .1-.1.1-.2.2l-.7.4h-.2l-.1-.1-.9-3.1.8-.4.6 2.5v.2.2l.1-.1v-.2-.2l.6-3.2 1-.6zm1.1.5v2.8l-.7.4v-2.8l.7-.4zm-.2-1.1c.1-.1.2 0 .2.1v.3c0 .2-.1.3-.2.4l-.3.2c-.1.1-.2 0-.2-.1v-.3c0-.2.1-.3.2-.4l.3-.2zm1.6.2c.2-.1.3-.2.5-.2h.4v.4c-.1 0-.2 0-.3.1-.1 0-.2.1-.3.1-.1.1-.2.1-.2.2s-.1.2-.1.3v.6.5c0 .1.1.1.1.2.1 0 .1 0 .2-.1.1 0 .2-.1.2-.2l.2-.2c.1-.1.1-.2.2-.3v.4c-.1.2-.2.4-.4.6s-.3.4-.6.5c-.3.2-.5.2-.7 0-.1-.2-.2-.5-.2-1 0-.4 0-.7.1-.9s.2-.5.3-.6c.3-.1.4-.3.6-.4zm1.5-1.9v4l-.6.3-.1-.5h-.1v-1.8-.1-.3-.4-.8l.8-.4zm4.4-2.5l-.9 4.2c0 .1 0 .2-.1.2 0 .1-.1.1-.2.2l-.7.4h-.2l-.1-.1-.9-3.1.8-.4.6 2.5v.2.2l.1-.1v-.2-.2l.6-3.2 1-.6zm1.4.2c.2-.1.4-.2.5-.2s.2 0 .3.1.1.3.1.5v1.8l-.6.3-.1-.5v-.1-1.2c0-.1 0-.2-.1-.2s-.2 0-.3.1-.3.2-.5.3-.4.2-.6.4l-.1-.5c.1-.1.3-.2.4-.3.2-.1.3-.2.5-.3.3 0 .4-.1.5-.2zm.7.8v.5l-1.1.6c-.1.1-.2.1-.2.2s-.1.1-.1.2v.1c0 .1 0 .2.1.2 0 0 .1 0 .2-.1.1 0 .2-.1.3-.2l.3-.3c.1-.1.2-.3.3-.4v.4c0 .1-.1.2-.1.3-.1.1-.1.2-.2.4-.1.1-.2.3-.3.4s-.3.2-.4.3-.3.1-.4.1-.2 0-.3-.1-.1-.2-.1-.4v-.3c0-.2.1-.4.2-.6a1.2 1.2 0 0 1 .5-.5l1.3-.8zm1.6-2v1.8c0 .1 0 .2.1.2 0 0 .1 0 .2-.1s.2-.1.3-.2l.4-.4.1.4c-.2.3-.3.5-.5.7s-.3.3-.5.4c-.5.3-.7.1-.7-.4v-2.1l.6-.3zm1.6-.9v2.8l-.6.3-.1-.5h-.1v-2.2l.8-.4zm1.3-1.9v3.1c0 .1 0 .2.1.2 0 0 .1 0 .2-.1l.2-.1.1.5-.2.2-.2.2c-.1 0-.1.1-.2.1-.2.1-.4.2-.5.1s-.2-.2-.2-.4v-3.3l.7-.5zm1.8-.6v2.7c0 .1 0 .2.1.2 0 0 .1 0 .2-.1l.3-.2.1.5-.2.2c-.1.1-.2.1-.3.2s-.2.1-.2.1c-.2.1-.4.2-.5.1s-.2-.2-.2-.5v-2.9l.7-.3zm.6.3v.5l-1.8 1v-.5l.5-.3 1.3-.7z" class="W"/><defs><path id="e" d="M147.5 332.5l31.2-18.1v36.1l-31.2 18z"/></defs><clipPath id="f"><use href="#e"/></clipPath><g clip-path="url(#f)" class="X"><path d="M156.2 330.2l6.3-3.6v7.3c0 1.1.4 1.9 1 2.2.6.4 1.5.3 2.4-.2l6.3-3.6v16.3a5.9 5.9 0 0 1-2.4 4.2l-13.7 7.9c-.6.4-1.2.4-1.7.2-.5-.3-.7-.8-.7-1.6v-24.8a5.9 5.9 0 0 1 .7-2.4 8.3 8.3 0 0 1 1.8-1.9zm14.9-.7l-5.1 2.9c-.1.1-.2.1-.3 0-.1 0-.1-.2-.1-.3v-5.9l5.5 3.3z" fill="#8fbffa" stroke-width="1.21"/></g><g class="V"><path d="M149 369.9l29.4-16.9c.9-.5 1.6-.1 1.6.9h0c0 1-.7 2.3-1.6 2.8l-29.4 17c-.9.5-1.6.1-1.6-.9h0a3.6 3.6 0 0 1 1.6-2.9zm-.2 7.6l17.9-10.3c.4-.3.8 0 .8.5h0c0 .5-.4 1.1-.8 1.4l-17.9 10.3c-.4.3-.8 0-.8-.5h0c0-.5.4-1.1.8-1.4z"/></g><path d="M149.1 323.3c.3-.2.5-.2.7-.3.2 0 .3 0 .4.1s.2.2.2.5c.1.2.1.5.1.9s0 .7-.1 1-.1.5-.2.8c-.1.2-.3.4-.4.6-.2.2-.4.3-.7.5-.3.1-.5.3-.7.4l-.6.3.3-.8c.1-.1.3-.1.4-.2l.6-.3c.2-.1.3-.2.4-.3s.2-.3.2-.5.1-.5.1-.8c0-.4 0-.6-.1-.8 0-.2-.1-.3-.2-.3s-.2 0-.4.1-.4.2-.5.3c-.2.1-.3.2-.5.3l-.3-.4c.2-.1.4-.3.6-.4.2-.4.4-.6.7-.7zm-.6.4v3.9l-.7.4v-3.9l.7-.4zm3.7-1.1c.3-.2.5-.3.7-.3s.3.1.4.2c.1.2.1.4.1.8s0 .7-.1.9c-.1.3-.2.5-.4.7s-.4.4-.7.6-.5.3-.7.3-.3-.1-.4-.2c-.1-.2-.1-.4-.1-.8s0-.7.1-.9c.1-.3.2-.5.4-.7.2-.3.4-.5.7-.6zm0 .6c-.1.1-.2.2-.3.2-.1.1-.1.2-.2.3v.6.5c0 .1.1.2.2.2s.2 0 .3-.1.2-.2.3-.2c.1-.1.1-.2.1-.3v-.6-.5c0-.1-.1-.2-.1-.2-.1 0-.2 0-.3.1zm2.9-2.3c.1-.1.2-.1.3-.1.1-.1.2-.1.3-.1s.2-.1.3-.1l-.1.6c-.1.1-.3.1-.4.2s-.2.1-.3.2-.3.2-.3.3c-.1.1-.1.2-.2.3 0 .1-.1.3-.1.5s0 .4.1.5c0 .1.1.1.2.1s.2 0 .3-.1c.1 0 .1-.1.2-.1s.2-.1.3-.2.2-.1.3-.2l.1.5-.4.4c-.2.1-.3.2-.5.3-.3.2-.5.3-.7.3s-.3-.1-.4-.2c-.1-.2-.1-.4-.1-.8s0-.7.1-.9c.1-.3.2-.5.4-.7 0-.3.3-.5.6-.7zm5.1-3.9l-.9 4.2c0 .1 0 .2-.1.2 0 .1-.1.1-.2.2l-.7.4h-.2l-.1-.1-.9-3.1.8-.4.6 2.5v.2.2l.1-.1v-.2-.2l.6-3.2 1-.6zm1.4.1c.2-.1.4-.2.5-.2s.2 0 .3.1.1.3.1.5v1.8l-.6.3-.1-.5v-.1-1c0-.1 0-.2-.1-.2s-.2 0-.3.1-.3.2-.5.3-.4.2-.6.4l-.1-.5c.1-.1.3-.2.4-.3.2-.1.3-.2.5-.3.3-.2.4-.3.5-.4zm.7.8v.5l-1.1.6c-.1.1-.2.1-.2.2s-.1.1-.1.2v.1c0 .1 0 .2.1.2 0 0 .1 0 .2-.1.1 0 .2-.1.3-.2l.3-.3c.1-.1.2-.3.3-.4v.4c0 .1-.1.2-.1.3-.1.1-.1.2-.2.4-.1.1-.2.3-.3.4s-.3.2-.4.3-.3.1-.4.1-.2 0-.3-.1-.1-.2-.1-.4v-.3c0-.2.1-.4.2-.6a1.2 1.2 0 0 1 .5-.5l1.3-.8zm1.6-2v1.8c0 .1 0 .2.1.2 0 0 .1 0 .2-.1s.2-.1.3-.2l.4-.4.1.4c-.2.3-.3.5-.5.7s-.3.3-.5.4c-.5.3-.7.1-.7-.4v-2.1l.6-.3zm1.6-.9v2.8l-.6.3-.1-.5h-.1v-2.2l.8-.4zm1.3-1.9v3.1c0 .1 0 .2.1.2 0 0 .1 0 .2-.1l.2-.1.1.5-.2.2-.2.2c-.1.1-.1.1-.2.1-.2.1-.4.2-.5.1s-.2-.2-.2-.4v-3.3l.7-.5zm1.8-.6v2.7c0 .1 0 .2.1.2 0 0 .1 0 .2-.1l.3-.2.1.5-.2.2c-.1.1-.2.1-.3.2s-.2.1-.2.1c-.2.1-.4.2-.5.1s-.2-.2-.2-.5v-2.9l.7-.3zm.6.4v.5l-1.8 1v-.5l.5-.3 1.3-.7z" class="W"/><linearGradient id="g" gradientUnits="userSpaceOnUse" x1="141.76" y1="190.46" x2="421.29" y2="190.46"><stop offset="0" stop-color="#6badff"/><stop offset="1" stop-color="#a1cbff"/></linearGradient><path d="M141.8 247a14.1 14.1 0 0 1 6.4-11.1L414.5 80.3c3.7-2.2 6.8-.5 6.8 3.8v51.3a14.1 14.1 0 0 1-6.4 11.1l-219.2 128S170 289.2 154 297.1c-12.3 6.1-12.3 4.1-12.3 4.1V247z" fill="url(#g)"/><g class="U"><path d="M158.3 252.3c.4-.3.8-.4 1-.4.3 0 .4 0 .5.3.1.2.2.5.2 1s-.1.9-.2 1.2-.3.6-.5.9c-.2.2-.6.5-.9.7l-.6.3-.6.3c-.2.1-.3.1-.4.2-.1 0-.2.1-.3.1v-.6c.3-.2.6-.3.8-.5.3-.2.6-.3.9-.5.2-.1.4-.3.5-.4s.2-.3.3-.4c.1-.2.1-.4.1-.7s0-.5-.1-.6c0-.1-.1-.2-.3-.2-.1 0-.3.1-.5.2-.4.2-.8.5-1.1.6-.3.2-.5.3-.6.4l-.1-.7c.2-.1.4-.3.5-.4l.6-.3c.2-.2.5-.3.8-.5zm-1 .6v5.8l-.9.5v-5.8l.9-.5zm4.2-.7l.1.7.1.1v3.2l-.9.5v-4.1l.7-.4zm1.7-1.1l-.1 1-.3.1c-.2.1-.4.3-.6.4l-.7.7-.1-.6.8-1c.3-.3.5-.5.8-.6h.2zm2.1-1.2c.4-.2.8-.4 1-.4.3 0 .4.1.6.4.1.3.2.6.2 1.2s-.1 1-.2 1.4-.3.7-.6 1-.6.6-1 .8-.8.4-1 .4c-.3 0-.4-.1-.6-.4-.1-.3-.2-.6-.2-1.2a5.9 5.9 0 0 1 .2-1.4c.1-.4.3-.7.6-1s.6-.6 1-.8zm0 .8c-.2.1-.4.3-.5.4s-.2.3-.3.6c-.1.2-.1.5-.1.9s0 .6.1.8.1.3.3.3c.1 0 .3-.1.5-.2s.4-.3.5-.4.2-.3.3-.6c.1-.2.1-.5.1-.9s0-.6-.1-.8c0-.2-.1-.3-.3-.3-.1 0-.3 0-.5.2zm6-4.1l-1.2 4.6c0 .1-.1.2-.1.2 0 .1-.1.1-.2.2l-.8.4c-.1 0-.1.1-.2 0-.1 0-.1-.1-.1-.1l-1.2-3.2.9-.5.7 2.3c0 .1.1.2.1.3s.1.2.1.3l.1-.1c0-.1.1-.3.1-.4s.1-.3.1-.4l.7-3.1 1-.5zm1.5-.9v4.1l-.9.5v-4.1l.9-.5zm-.3-1.6c.2-.1.3-.1.3.2v.5c0 .2-.1.3-.3.4l-.4.2c-.2.1-.3.1-.3-.2v-.5c0-.2.1-.4.3-.5l.4-.1zm2.5.3c.2-.1.5-.2.7-.3s.4-.1.6 0l-.1.5c-.2 0-.4.1-.5.1-.2 0-.3.1-.5.2s-.3.2-.4.4c-.1.1-.2.3-.2.5s-.1.5-.1.9 0 .6.1.8c0 .2.1.3.2.3s.2 0 .4-.1c.1-.1.2-.2.3-.2.1-.1.2-.2.3-.4.1-.1.2-.3.4-.5l.1.5-.6.9a2.7 2.7 0 0 1-.8.7c-.5.3-.8.3-1 0s-.3-.7-.3-1.5c0-.5 0-1 .1-1.4s.3-.7.4-.9c.3-.2.6-.4.9-.5zm2-2.9v5.8l-.7.4-.1-.7h-.1v-2.7-.1-.5-.5-1.2l.9-.5zm2.6.2c.6-.3 1-.4 1.2-.4.3.1.4.4.4.8s-.1.7-.2 1c-.2.3-.4.5-.8.7l-2 1.2v-.6l1.8-1c.2-.1.3-.2.3-.3s.1-.3.1-.4c0-.2-.1-.4-.2-.4s-.3 0-.6.2c-.2.1-.4.3-.5.4s-.2.3-.3.5c0 .2-.1.5-.1.9s0 .7.1.8c.1.2.2.3.3.2.1 0 .3-.1.6-.2.2-.1.4-.2.6-.4s.5-.3.7-.5l.1.6-.4.4c-.2.1-.3.3-.5.4s-.3.2-.5.3c-.4.2-.8.4-1.1.4s-.5-.1-.6-.4-.2-.6-.2-1.1a5.9 5.9 0 0 1 .2-1.4c.1-.4.3-.7.6-1 .3-.2.6-.5 1-.7zm5.8-3.3c.3-.2.5-.3.7-.3s.3 0 .4.2c.1.1.2.4.2.8v2.8l-.7.4-.1-.8-.1-.1v-1.8c0-.2 0-.3-.1-.4s-.3 0-.5.1-.4.2-.7.4l-.8.5-.1-.6c.2-.1.4-.3.6-.4s.4-.3.6-.4c.2-.2.4-.3.6-.4zm.9 1.1v.6l-1.6.9-.3.3c-.1.1-.1.3-.1.4v.2c0 .2 0 .3.1.3s.2 0 .4-.1c.1-.1.3-.2.4-.3l.5-.5c.2-.2.3-.4.4-.7v.5c0 .1-.1.3-.2.4-.1.2-.2.3-.3.5a1.2 1.2 0 0 1-.5.5c-.2.2-.4.3-.6.4s-.4.2-.6.2-.3 0-.4-.2c-.1-.1-.1-.3-.1-.6v-.4c0-.3.1-.6.3-.9s.4-.5.8-.7l1.8-.8zm7.4-5.9c.3-.2.6-.2.7-.1.2.1.3.3.3.7v3.1l-.9.5V235c0-.2 0-.3-.1-.4s-.2 0-.4.1c-.1.1-.2.1-.3.2l-.3.3c-.1.1-.3.3-.4.6l-.1-.6c.2-.4.5-.7.7-1 .3-.2.5-.4.8-.6zm-3.7 2.2l.1.8.1.1v3.2l-.9.5v-4.1l.7-.5zm1.4-.9c.3-.2.5-.2.7-.1s.2.3.3.7v3.1l-.8.5v-2.8c0-.2 0-.3-.1-.4-.1 0-.2 0-.3.1s-.2.1-.3.2-.2.2-.3.4c-.1.1-.3.3-.4.6l-.1-.6c.2-.4.5-.7.7-1 .1-.3.4-.5.6-.7zm5.8-3.3c.6-.3 1-.5 1.2-.4.3.1.4.4.4.8s-.1.7-.2 1c-.2.3-.4.5-.8.7l-2 1.2v-.6l1.8-1c.2-.1.3-.2.3-.3s.1-.3.1-.4c0-.2-.1-.4-.2-.4s-.3 0-.6.2c-.2.1-.4.3-.5.4s-.2.3-.3.5c0 .2-.1.5-.1.9s0 .7.1.8.2.3.3.2c.1 0 .3-.1.6-.2.2-.1.4-.2.6-.4s.5-.3.7-.5l.1.6-.4.4c-.1.1-.3.3-.5.4s-.3.2-.5.3c-.4.2-.8.4-1.1.4s-.5-.1-.6-.4-.2-.6-.2-1.1a5.9 5.9 0 0 1 .2-1.4c.1-.4.3-.7.6-1 .3-.2.6-.5 1-.7zm6.9-4c.3-.2.6-.2.7-.1.2.1.3.3.3.7v3.1l-.9.5V229c0-.2 0-.3-.1-.4s-.2 0-.4.1c-.1.1-.2.1-.3.2l-.3.3c-.1.1-.3.3-.4.6l-.1-.6c.2-.4.5-.7.7-1 .3-.2.5-.4.8-.6zm-3.8 2.3l.1.8.1.1v3.2l-.9.5v-4.1l.7-.5zm1.5-.9c.3-.2.5-.2.7-.1s.2.3.3.7v3.1l-.8.5v-2.8c0-.2 0-.3-.1-.4-.1 0-.2 0-.3.1s-.2.1-.3.2-.2.2-.3.4c-.1.1-.3.3-.4.6l-.1-.6c.2-.4.5-.7.7-1 .1-.4.3-.6.6-.7zm5.8-3.4c.4-.2.8-.4 1-.4.3 0 .4.1.6.4.1.3.2.6.2 1.2a5.9 5.9 0 0 1-.2 1.4c-.1.4-.3.7-.6 1s-.6.6-1 .8-.8.4-1 .4c-.3 0-.4-.1-.6-.4-.1-.3-.2-.6-.2-1.2s.1-1 .2-1.4.3-.7.6-1c.2-.3.6-.5 1-.8zm0 .8c-.2.1-.4.3-.5.4s-.2.3-.3.6c-.1.2-.1.5-.1.9s0 .6.1.8.1.3.3.3c.1 0 .3-.1.5-.2s.4-.3.5-.4.2-.3.3-.6c.1-.2.1-.5.1-.9s0-.6-.1-.8c0-.2-.1-.3-.3-.3-.1 0-.3.1-.5.2zm3.3-2.6l.1.7.1.1v3.2l-.9.5v-4.1l.7-.4zm1.7-1.1l-.1 1-.3.1c-.2.1-.4.3-.6.4l-.7.7-.1-.6.8-1c.3-.3.5-.5.8-.6h.2zm2.4-1.3c.3-.2.5-.3.7-.3s.3 0 .4.2c.1.1.2.4.2.8v2.8l-.7.4-.1-.8-.1-.1v-1.8c0-.2 0-.3-.1-.4s-.3 0-.5.1-.4.2-.7.4l-.8.5-.1-.6c.2-.1.4-.3.6-.4.2-.2.4-.3.6-.4.2-.2.4-.3.6-.4zm.9 1.1v.6l-1.6.9-.3.3c-.1.1-.1.3-.1.4v.2c0 .2 0 .3.1.3s.2 0 .4-.1c.1-.1.3-.2.4-.3l.5-.5c.2-.2.3-.4.4-.7v.5c0 .1-.1.3-.2.4-.1.2-.2.3-.3.5a1.2 1.2 0 0 1-.5.5c-.2.2-.4.3-.6.4s-.4.2-.6.2-.3 0-.4-.2c-.1-.1-.1-.3-.1-.6v-.4c0-.3.1-.6.3-.9s.4-.5.8-.7l1.8-.8zm3.5-3.6c.5-.3.8-.3 1-.1s.3.7.3 1.5c0 .3 0 .6-.1.9 0 .3-.1.6-.3.8-.1.3-.3.5-.5.7s-.5.4-.8.6c-.1.1-.3.1-.4.2-.2.1-.3.1-.5.2s-.3.1-.5.2c-.1 0-.3.1-.4.1l.7-1c.1 0 .2-.1.3-.1s.2-.1.4-.2c.1-.1.2-.1.3-.2.2-.1.3-.2.5-.4.1-.1.2-.3.3-.6.1-.2.1-.5.1-.9 0-.3 0-.6-.1-.7 0-.2-.1-.3-.2-.3s-.3 0-.5.1-.3.2-.5.4c-.1.2-.3.4-.5.7l-.1-.5c.1-.2.3-.5.4-.7.2-.2.3-.4.5-.5.2 0 .4-.1.6-.2zm-1.3-1v1.4.5c0 .2 0 .3-.1.5l.1.1v3.2l-.9.5v-5.6l.9-.6zm4.3-2.4v4.6c0 .2 0 .3.1.3s.2 0 .3-.1l.3-.2.1.7-.2.2c-.1.1-.2.1-.3.2s-.2.1-.3.2c-.3.2-.5.2-.7.1s-.3-.3-.3-.6V216l1-.5zm3-.1c.6-.3 1-.4 1.2-.4.3.1.4.4.4.8s-.1.7-.2 1c-.2.3-.4.5-.8.7l-2 1.2v-.6l1.8-1c.2-.1.3-.2.3-.3s.1-.3.1-.4c0-.2-.1-.4-.2-.4s-.3 0-.6.2c-.2.1-.4.3-.5.4s-.2.3-.3.5c0 .2-.1.5-.1.9s0 .7.1.8c.1.2.2.3.3.2.1 0 .3-.1.6-.2.2-.1.4-.2.6-.4s.5-.3.7-.5l.1.6-.4.4c-.2.1-.3.3-.5.4s-.3.2-.5.3c-.4.2-.8.4-1.1.4s-.5-.1-.6-.4-.2-.6-.2-1.1a5.9 5.9 0 0 1 .2-1.4c.1-.4.3-.7.6-1 .2-.2.5-.4 1-.7zm5.9-5.1l.6-.3c.2-.1.3-.1.4-.2s.3-.1.4-.1l-.1.8c-.1.1-.3.1-.4.2s-.3.1-.4.2-.3.2-.5.3c-.3.2-.5.4-.7.6s-.3.5-.3.8c-.1.3-.1.8-.1 1.3s0 .9.1 1.2.2.4.3.4c.2 0 .4 0 .7-.2s.6-.3.8-.5c.2-.1.4-.3.7-.4l.1.7c-.2.2-.4.4-.7.6-.2.2-.5.3-.9.5-.5.3-.9.4-1.2.4s-.5-.2-.7-.6c-.1-.4-.2-.9-.2-1.6s.1-1.4.2-1.9.4-.9.7-1.3c.3-.2.7-.6 1.2-.9zm4-.6c.3-.2.5-.3.7-.3s.3 0 .4.2c.1.1.2.4.2.8v2.8l-.7.4-.1-.8-.1-.1v-1.8c0-.2 0-.3-.1-.4s-.3 0-.5.1-.4.2-.7.4l-.8.5-.1-.6c.2-.1.4-.3.6-.4s.4-.3.6-.4l.6-.4zm1 1.1v.6l-1.6.9-.3.3c-.1.1-.1.3-.1.4v.2c0 .2 0 .3.1.3s.2 0 .4-.1c.1-.1.3-.2.4-.3l.5-.5c.2-.2.3-.4.4-.7v.5c0 .1-.1.3-.2.4-.1.2-.2.3-.3.5a1.2 1.2 0 0 1-.5.5c-.2.2-.4.3-.6.4s-.4.2-.6.2-.3 0-.4-.2c-.1-.1-.1-.3-.1-.6v-.4c0-.3.1-.6.3-.9s.4-.5.8-.7l1.8-.8zm3.7-3.8c.7-.4 1-.2 1 .6v3.1l-.9.5v-2.8c0-.2 0-.4-.1-.4s-.2 0-.3.1c-.2.1-.4.3-.6.5s-.4.5-.7.8v-.6l.8-1c.2-.4.5-.6.8-.8zm-1.7 1.1l.1.8.1.1v3.2l-.9.5v-4.1l.7-.5zm4.8-2.9c.2-.1.5-.2.7-.3s.4-.1.6 0l-.1.5c-.2 0-.4.1-.5.1s-.3.1-.5.2-.3.2-.4.4c-.1.1-.2.3-.2.5s-.1.5-.1.9 0 .6.1.8c0 .2.1.3.2.3s.2 0 .4-.1c.1-.1.2-.2.3-.2.1-.1.2-.2.3-.4.1-.1.2-.3.4-.5l.1.5-.6.9c-.2.3-.5.5-.8.7-.5.3-.8.3-1 0s-.3-.7-.3-1.5c0-.5 0-1 .1-1.4s.3-.7.4-.9c.4-.1.6-.3.9-.5zm2.1-2.8v5.9l-.7.4-.1-.7h-.1v-2.7-.1-.5-.5-1.2l.9-.6zm1.9.6v4.1l-.9.5v-4.1l.9-.5zm-.3-1.6c.2-.1.3 0 .3.2v.5c0 .2-.1.4-.3.5l-.4.2c-.2.1-.3.1-.3-.2v-.5c0-.2.1-.3.3-.4l.4-.3zm2.5.3c.2-.1.5-.2.7-.3s.4-.1.6 0l-.1.5c-.2 0-.4.1-.5.1s-.3.1-.5.2-.3.2-.4.3-.2.3-.2.5-.1.5-.1.9 0 .6.1.8c0 .2.1.3.2.3s.2 0 .4-.1c.1-.1.2-.2.3-.2.1-.1.2-.2.3-.4.1-.1.2-.3.4-.5l.1.5-.6.9c-.2.3-.5.5-.8.7-.5.3-.8.3-1 0s-.3-.7-.3-1.5c0-.5 0-1 .1-1.4s.3-.7.4-.9c.3 0 .6-.3.9-.4zm2-2.9v5.8l-.7.4-.1-.7h-.1v-2.7-.1-.5-.5-1.2l.9-.5zm2.8.1c.3-.2.5-.3.7-.3s.3 0 .4.2c.1.1.2.4.2.8v2.8l-.7.4-.1-.8-.1-.1v-1.8c0-.2 0-.3-.1-.4s-.3 0-.5.1-.4.2-.7.4l-.8.5-.1-.6c.2-.1.4-.3.6-.4s.4-.3.6-.4c.3-.2.4-.3.6-.4zm1 1.1v.6l-1.6.9-.3.3c-.1.1-.1.3-.1.4v.2c0 .2 0 .3.1.3s.2 0 .4-.1c.1-.1.3-.2.4-.3l.5-.5c.2-.2.3-.4.4-.7v.5c0 .1-.1.3-.2.4-.1.2-.2.3-.3.5a1.2 1.2 0 0 1-.5.5c-.2.2-.4.3-.6.4s-.4.2-.6.2-.3 0-.4-.2c-.1-.1-.1-.3-.1-.6v-.4c0-.3.1-.6.3-.9s.4-.5.8-.7l1.8-.8zm2.5-4.2v4c0 .2 0 .3.1.3s.2 0 .3-.1l.5-.3.1.7c-.1.1-.2.2-.3.2-.1.1-.2.2-.3.2-.1.1-.2.1-.3.2-.3.2-.6.2-.7.1-.2-.1-.3-.3-.3-.7v-4.2l.9-.4zm1 .6v.7l-2.6 1.5v-.7l.7-.4 1.9-1.1zm2.3-1.4c.6-.3 1-.4 1.2-.4.3.1.4.4.4.8s-.1.7-.2 1c-.2.3-.4.5-.8.7l-2 1.2v-.6l1.8-1c.2-.1.3-.2.3-.3s.1-.3.1-.4c0-.2-.1-.4-.2-.4s-.3 0-.6.2c-.2.1-.4.3-.5.4s-.2.3-.3.5c0 .2-.1.5-.1.9s0 .7.1.8c.1.2.2.3.3.2.1 0 .3-.1.6-.2.2-.1.4-.2.6-.4s.5-.3.7-.5l.1.6-.4.4c-.2.1-.3.3-.5.4s-.3.2-.5.3c-.4.2-.8.4-1.1.4s-.5-.1-.6-.4-.2-.6-.2-1.1a5.9 5.9 0 0 1 .2-1.4c.1-.4.3-.7.6-1 .2-.2.6-.4 1-.7zm5-4.5c.3-.1.5-.3.8-.4a3 3 0 0 1 .8-.4c.3-.1.5-.3.7-.4v.8l-2 1.1-.3.3c-.1.1-.1.3-.1.4v3.1c0 .2 0 .3.1.3s.2 0 .3-.1l2-1.1v.8c-.2.2-.5.3-.7.5l-.8.5a3 3 0 0 1-.8.4c-.3.2-.6.2-.7.1-.2-.1-.3-.3-.3-.6v-3.6c0-.3.1-.7.3-1 .2-.2.4-.5.7-.7zm-.9 2.9l2.9-1.6v.8l-2.9 1.6v-.8zm7.3-4.8l-1.1 2.6 1.1 1.4-.9.5-1.1-1.5 1-2.6 1-.4zm-2.7 1.5l1 1.4-1.1 2.7-.9.5 1.1-2.8-1.1-1.4 1-.4zm1.4.9v.7l-1 .6v-.7l1-.6zm4.2-4.2c.4-.3.8-.3.9 0 .2.3.3.7.3 1.5a5.9 5.9 0 0 1-.2 1.4c-.1.4-.2.7-.4.9s-.5.4-.8.6c-.2.1-.5.2-.7.3h-.6l.1-.5c.2 0 .4-.1.5-.1s.3-.1.5-.2.3-.2.4-.3.2-.3.2-.5.1-.5.1-.9 0-.6-.1-.8c0-.2-.1-.3-.2-.3s-.2 0-.4.1-.3.2-.5.4-.3.4-.5.7l-.1-.5c.1-.2.2-.4.4-.6s.3-.4.5-.6c.2-.4.4-.5.6-.6zm-1.5 1l.1.7.1.1v2.6.1.5.5 1.1l-.9.5v-5.7l.7-.4zm5.2-3.1c.6-.3 1-.4 1.2-.4.3.1.4.4.4.8s-.1.7-.2 1c-.2.3-.4.5-.8.7l-2 1.2v-.6l1.8-1c.2-.1.3-.2.3-.3s.1-.3.1-.4c0-.2-.1-.4-.2-.4s-.3 0-.6.2c-.2.1-.4.3-.5.4s-.2.3-.3.5c0 .2-.1.5-.1.9s0 .7.1.8c.1.2.2.3.3.2.1 0 .3-.1.6-.2.2-.1.4-.2.6-.4s.5-.3.7-.5l.1.6-.4.4c-.1.1-.3.3-.5.4s-.3.2-.5.3c-.4.2-.8.4-1.1.4s-.5-.1-.6-.4-.2-.6-.2-1.1a5.9 5.9 0 0 1 .2-1.4c.1-.4.3-.7.6-1 .2-.2.5-.5 1-.7zm3.1-1.7l.1.7.1.1v3.2l-.9.5v-4.1l.7-.4zm1.7-1.1l-.1 1-.3.1c-.2.1-.4.3-.6.4l-.7.7-.1-.6.8-1c.3-.3.5-.5.8-.6h.2zm1.5-.7v4.1l-.9.5v-4.1l.9-.5zm-.3-1.7c.2-.1.3-.1.3.2v.5c0 .2-.1.4-.3.4l-.4.2c-.2.1-.3.1-.3-.2v-.5c0-.2.1-.4.3-.5l.4-.1zm2.9.1c.6-.3 1-.5 1.2-.4.3.1.4.4.4.8s-.1.7-.2 1c-.2.3-.4.5-.8.7l-2 1.2v-.6l1.8-1c.2-.1.3-.2.3-.3s.1-.3.1-.4c0-.2-.1-.4-.2-.4s-.3 0-.6.2c-.2.1-.4.3-.5.4s-.2.3-.3.5c0 .2-.1.5-.1.9s0 .7.1.8c.1.2.2.3.3.2.1 0 .3-.1.6-.2.2-.1.4-.2.6-.4s.5-.3.7-.5l.1.6-.4.4c-.2.1-.3.3-.5.4s-.3.2-.5.3c-.4.2-.8.4-1.1.4s-.5-.1-.6-.4-.2-.6-.2-1.1a5.9 5.9 0 0 1 .2-1.4c.1-.4.3-.7.6-1a4.3 4.3 0 0 1 1-.7zm4.7-2.8c.7-.4 1-.2 1 .6v3.1l-.9.5v-2.8c0-.2 0-.4-.1-.4s-.2 0-.3.1c-.2.1-.4.3-.6.5s-.4.5-.7.8v-.6l.8-1c.3-.4.6-.6.8-.8zm-1.6 1.1l.1.8.1.1v3.2l-.9.5v-4.1l.7-.5zm5.2-3.1c.1-.1.3-.1.4-.2s.3-.1.4-.2.3-.1.4-.1l-.1.7c-.2.1-.4.2-.5.3-.2.1-.3.2-.5.3s-.4.3-.6.5c-.1.2-.2.3-.3.6-.1.2-.1.5-.1.9 0 .3 0 .6.1.8s.2.2.3.2.3-.1.6-.2c.1 0 .2-.1.3-.2s.2-.2.4-.2c.1-.1.3-.2.4-.3l.1.6-.6.6c-.2.2-.5.3-.7.5-.4.2-.8.4-1 .4-.3 0-.4-.1-.6-.4-.1-.3-.2-.6-.2-1.2a5.9 5.9 0 0 1 .2-1.4c.1-.4.3-.7.6-1 .2-.5.6-.8 1-1zm3.5-2c.6-.3 1-.5 1.2-.4.3.1.4.3.4.8 0 .4-.1.7-.2 1-.2.3-.4.5-.8.7l-2 1.2v-.6l1.8-1c.2-.1.3-.2.3-.3s.1-.3.1-.4c0-.2-.1-.4-.2-.4s-.3 0-.6.2c-.2.1-.4.3-.5.4s-.2.3-.3.5c0 .2-.1.5-.1.9s0 .7.1.8c.1.2.2.3.3.2.1 0 .3-.1.6-.2.2-.1.4-.2.6-.4s.5-.3.7-.5l.1.6-.4.4c-.1.1-.3.3-.5.4s-.3.2-.5.3c-.4.2-.8.4-1.1.4s-.5-.1-.6-.4-.2-.6-.2-1.1a5.9 5.9 0 0 1 .2-1.4c.1-.4.3-.7.6-1a3.6 3.6 0 0 1 1-.7zm9.3-5.3l-.9 4.4c0 .1-.1.2-.1.3l-.2.2-.7.4c-.1 0-.1.1-.2 0-.1 0-.1-.1-.1-.2l-.5-2.2c0-.1 0-.2-.1-.3v-.3l-.1.1c0 .1 0 .2-.1.4v.4l-.5 2.8c0 .1-.1.2-.1.3-.1.1-.1.2-.2.2l-.7.4c-.1 0-.1.1-.2 0-.1 0-.1-.1-.1-.1l-.9-3.3.9-.5.6 2.5v.3c0 .1 0 .2.1.3l.1-.1c0-.1 0-.2.1-.4 0-.1 0-.2.1-.4l.5-2.8c0-.1 0-.2.1-.3s.1-.2.2-.2l.6-.4c.1 0 .1-.1.2 0 .1 0 .1.1.1.2l.5 2.2c0 .1 0 .2.1.3 0 .1 0 .2.1.3l.1-.1c0-.1 0-.2.1-.3 0-.1 0-.2.1-.4l.6-3.2.5-.5zm1.6-.9v4.1l-.9.5v-4.1l.9-.5zm-.3-1.6c.2-.1.3-.1.3.2v.5c0 .2-.1.4-.3.4l-.4.2c-.2.1-.3.1-.3-.2v-.5c0-.2.1-.4.3-.5l.4-.1zm2.5-.8v4c0 .2 0 .3.1.3s.2 0 .3-.1l.5-.3.1.7c-.1.1-.2.2-.3.2-.1.1-.2.2-.3.2-.1.1-.2.1-.3.2-.3.2-.6.2-.7.1-.2-.1-.3-.3-.3-.7v-4.2l.9-.4zm1 .6v.7l-2.6 1.5v-.7l.7-.4 1.9-1.1zm3-1.8c.7-.4 1-.2 1 .6v3.1l-.9.5v-2.8c0-.2 0-.4-.1-.4s-.2 0-.3.1c-.2.1-.4.3-.6.4-.2.2-.4.5-.7.8l-.1-.5c.3-.4.5-.8.8-1.1.4-.4.6-.6.9-.7zm-1.4-.9v1.5.6c0 .2 0 .4-.1.5l.1.1v3.2l-.9.5v-5.8l.9-.6zm8.7-4.9l-1.4 6.3c0 .1-.1.2-.1.3-.1.1-.1.2-.2.2l-.9.5c-.1 0-.2.1-.2 0-.1 0-.1-.1-.1-.1l-1.4-4.7.9-.5 1 3.8c0 .1 0 .2.1.3 0 .1 0 .2.1.3l.2-.1c0-.1 0-.2.1-.4 0-.1 0-.2.1-.4l1-4.9.8-.6zm1.5.8v4.1l-.9.5v-4.1l.9-.5zm-.2-1.6c.2-.1.3 0 .3.2v.5c0 .2-.1.4-.3.5l-.4.2c-.2.1-.3 0-.3-.2v-.6c0-.2.1-.4.3-.5l.4-.1zm2.4.2c.2-.1.5-.2.7-.3s.4-.1.6 0l-.1.5c-.2 0-.4.1-.5.1s-.3.1-.5.2-.3.2-.4.4c-.1.1-.2.3-.2.5s-.1.5-.1.9 0 .6.1.8c0 .2.1.3.2.3s.2 0 .4-.1c.1-.1.2-.2.3-.2.1-.1.2-.2.3-.4.1-.1.2-.3.4-.5l.1.5-.6.9a2.7 2.7 0 0 1-.8.7c-.5.3-.8.3-1 0s-.3-.7-.3-1.5c0-.5 0-1 .1-1.4s.3-.7.5-.9c.3-.1.5-.3.8-.5zm2.1-2.8v5.8l-.7.4-.1-.7h-.1v-2.7-.1-.5-.5-1.2l.9-.5zm6.4-3.6l-1.4 6.3c0 .1-.1.2-.1.3-.1.1-.1.2-.2.2l-.9.5c-.1 0-.2.1-.2 0-.1 0-.1-.1-.1-.1l-1.4-4.7.9-.5 1 3.8c0 .1 0 .2.1.3 0 .1 0 .2.1.3l.2-.1c0-.1 0-.2.1-.4 0-.1 0-.2.1-.4l1-4.9.8-.6zm2.1.3c.3-.2.5-.3.7-.3s.3 0 .4.2c.1.1.2.4.2.8v2.8l-.7.4-.1-.8-.1-.1v-1.8c0-.2 0-.3-.1-.4s-.3 0-.5.1-.4.2-.7.4l-.8.5-.1-.6c.2-.1.4-.3.6-.4s.4-.3.6-.4c.3-.1.5-.3.6-.4zm1 1.2v.6l-1.6.9-.3.3c-.1.1-.1.3-.1.4v.2c0 .2 0 .3.1.3s.2 0 .4-.1c.1-.1.3-.2.4-.3l.5-.5c.2-.2.3-.4.4-.7v.5c0 .1-.1.3-.2.4-.1.2-.2.3-.3.5a1.2 1.2 0 0 1-.5.5c-.2.2-.4.3-.6.4s-.4.2-.6.2-.3 0-.4-.2c-.1-.1-.1-.3-.1-.6v-.4c0-.3.1-.6.3-.9s.4-.5.8-.7l1.8-.8zm2.2-2.9v2.8c0 .2 0 .3.1.4.1 0 .2 0 .4-.1s.3-.2.5-.4.4-.4.6-.7l.1.6c-.3.4-.5.7-.8 1s-.5.5-.8.6c-.7.4-1 .2-1-.6v-3.1l.9-.5zm2.3-1.3v4.1l-.7.4-.1-.7-.1-.1V148l.9-.5zm1.9-2.8v4.6c0 .2 0 .3.1.3s.2 0 .3-.1l.3-.2.1.7-.2.2c-.1.1-.2.1-.3.2s-.2.1-.3.2c-.3.2-.5.2-.7.1s-.3-.3-.3-.6v-4.9l1-.5zm2.5-.9v4c0 .2 0 .3.1.3s.2 0 .3-.1l.5-.3.1.7c-.1.1-.2.2-.3.2-.1.1-.2.2-.3.2-.1.1-.2.1-.3.2-.3.2-.6.2-.7.1-.2-.1-.3-.3-.3-.7v-4.2l.9-.4zm1.1.6v.7l-2.6 1.5v-.7l.7-.4 1.9-1.1zm4-2.5c.3-.2.5-.3.7-.3s.3 0 .4.2c.1.1.2.4.2.8v2.8l-.7.4-.1-.8-.1-.1v-1.8c0-.2 0-.3-.1-.4s-.3 0-.5.1-.4.2-.7.4l-.8.5-.1-.6c.2-.1.4-.3.6-.4s.4-.3.6-.4.4-.3.6-.4zm.9 1.2v.6l-1.6.9-.3.3c-.1.1-.1.3-.1.4v.2c0 .2 0 .3.1.3s.2 0 .4-.1c.1-.1.3-.2.4-.3l.5-.5c.2-.2.3-.4.4-.7v.5c0 .1-.1.3-.2.4-.1.2-.2.3-.3.5a1.2 1.2 0 0 1-.5.5c-.2.2-.4.3-.6.4s-.4.2-.6.2-.3 0-.4-.2c-.1-.1-.1-.3-.1-.6v-.4c0-.3.1-.6.3-.9s.4-.5.8-.7l1.8-.8zm3.7-3.8c.7-.4 1-.2 1 .6v3.1l-.9.5v-2.8c0-.2 0-.4-.1-.4s-.2 0-.3.1a1.2 1.2 0 0 0-.5.5c-.2.2-.4.5-.7.8v-.6l.8-1a1.9 1.9 0 0 1 .7-.8zm-1.6 1l.1.8.1.1v3.2l-.9.5v-4.1l.7-.5zm4.8-2.8c.2-.1.5-.2.7-.3s.4-.1.6 0l-.1.5c-.2 0-.4.1-.5.1s-.3.1-.5.2-.3.2-.4.4c-.1.1-.2.3-.2.5s-.1.5-.1.9 0 .6.1.8c0 .2.1.3.2.3s.2 0 .4-.1c.1-.1.2-.2.3-.2.1-.1.2-.2.3-.4.1-.1.2-.3.4-.5l.1.5-.6.9c-.2.3-.5.5-.8.7-.5.3-.8.3-1 0s-.3-.7-.3-1.5c0-.5 0-1 .1-1.4s.3-.7.5-.9c.2-.1.5-.3.8-.5zm2-2.8v5.9l-.7.4-.1-.7h-.1v-2.7-.1-.5-.5-1.2l.9-.6zm4.5-2.6c.4-.3.8-.4 1-.4.3 0 .4 0 .5.3.1.2.2.5.2 1s-.1.9-.2 1.2-.3.6-.5.9a4.3 4.3 0 0 1-1 .7l-.6.3-.6.3c-.2.1-.3.1-.4.2-.1 0-.2.1-.3.1v-.6c.3-.2.6-.3.8-.5.3-.2.6-.3.9-.5.2-.1.4-.3.5-.4s.2-.3.3-.4c.1-.2.1-.4.1-.7s0-.5-.1-.6c0-.1-.1-.2-.3-.2-.1 0-.3.1-.5.2-.4.2-.8.5-1.1.6-.3.2-.5.3-.6.4l-.1-.7c.2-.1.4-.3.5-.4l.6-.3.9-.5zm-.9.6v5.8l-.9.5v-5.8l.9-.5zm4.3-.8v4.1l-.9.5v-4.1l.9-.5zm-.2-1.7c.2-.1.3-.1.3.2v.5c0 .2-.1.4-.3.5l-.4.2c-.2.1-.3 0-.3-.2v-.5c0-.2.1-.4.3-.5l.4-.2zm4.5-.8l-1.1 2.6 1.1 1.4-.9.5-1.1-1.5 1-2.6 1-.4zm-2.7 1.5l1 1.4-1.1 2.7-.9.5 1.1-2.8-1.1-1.4 1-.4zm1.4.9v.7l-1 .6v-.7l1-.6zm7.4-7.5l-1.4 6.3c0 .1-.1.2-.1.3-.1.1-.1.2-.2.2l-.9.5c-.1 0-.2.1-.2 0-.1 0-.1-.1-.1-.1l-1.4-4.7.9-.5 1 3.8c0 .1 0 .2.1.3 0 .1 0 .2.1.3l.2-.1c0-.1 0-.2.1-.4 0-.1 0-.2.1-.4l1-4.9.8-.6zm2.1.3c.3-.2.5-.3.7-.3s.3 0 .4.2c.1.1.2.4.2.8v2.8l-.7.4-.1-.8-.1-.1v-1.8c0-.2 0-.3-.1-.4s-.3 0-.5.1-.4.2-.7.4l-.8.5-.1-.6c.2-.1.4-.3.6-.4.2-.2.4-.3.6-.4l.6-.4zm1 1.1v.6l-1.6.9-.3.3c-.1.1-.1.3-.1.4v.2c0 .2 0 .3.1.3s.2 0 .4-.1c.1-.1.3-.2.4-.3l.5-.5c.2-.2.3-.4.4-.7v.5c0 .1-.1.3-.2.4-.1.2-.2.3-.3.5a1.2 1.2 0 0 1-.5.5c-.2.2-.4.3-.6.4s-.4.2-.6.2-.3 0-.4-.2c-.1-.1-.1-.3-.1-.6v-.4c0-.3.1-.6.3-.9s.4-.5.8-.7l1.8-.8zm2.2-2.8v2.8c0 .2 0 .3.1.4.1 0 .2 0 .4-.1s.3-.2.5-.4.4-.4.6-.7l.1.6c-.3.4-.5.7-.8 1s-.5.5-.8.6c-.7.4-1 .2-1-.6v-3.1l.9-.5zm2.4-1.4v4.1l-.7.4-.1-.7-.1-.1V122l.9-.5zm1.8-2.8v4.6c0 .2 0 .3.1.3s.2 0 .3-.1l.3-.2.1.7-.2.2c-.1.1-.2.1-.3.2s-.2.1-.3.2c-.3.2-.5.2-.7.1s-.3-.3-.3-.6v-4.9l1-.5zm2.5-.9v4c0 .2 0 .3.1.3s.2 0 .3-.1l.5-.3.1.7c-.1.1-.2.2-.3.2-.1.1-.2.2-.3.2-.1.1-.2.1-.3.2-.3.2-.6.2-.7.1-.2-.1-.3-.3-.3-.7v-4.2l.9-.4zm1.1.6v.7l-2.6 1.5v-.7l.7-.4 1.9-1.1z"/><path d="M157.7 268.1c.2-.1.3-.2.4-.2.1-.1.2-.1.3-.1s.2-.1.3-.1l-.1.5c-.1 0-.2.1-.3.1s-.2.1-.3.2-.2.1-.4.2a1.2 1.2 0 0 0-.5.5l-.3.7c-.1.3-.1.6-.1 1s0 .7.1 1c.1.2.2.3.3.4.1 0 .3 0 .5-.2.2-.1.4-.3.6-.4s.3-.2.5-.3l.1.4c-.2.1-.3.3-.5.4s-.4.3-.6.4a2.3 2.3 0 0 1-.9.3c-.2 0-.4-.2-.5-.4-.1-.3-.1-.7-.1-1.2 0-.6 0-1 .1-1.4s.3-.7.5-1 .5-.6.9-.8zm2.1.2l.1.6v.1 2.4l-.5.3v-3.1l.4-.3zm1.3-.9l-.1.6-.2.1c-.1.1-.3.2-.5.4s-.3.4-.6.6v-.3l.6-.8c.2-.2.4-.4.6-.5l.2-.1zm1.8-1c.2-.1.4-.2.5-.2s.2 0 .3.1.1.3.1.5v2.1l-.4.2-.1-.6v-.1-1.4c0-.2 0-.3-.1-.3s-.2 0-.4.1c-.1.1-.3.2-.5.3s-.4.3-.6.4v-.4c.1-.1.3-.2.4-.3.2-.1.3-.2.5-.3 0 .1.2 0 .3-.1zm.7.9v.4l-1.2.7-.3.3c0 .1-.1.2-.1.3v.2c0 .2 0 .2.1.3.1 0 .2 0 .3-.1s.2-.1.3-.3l.4-.4c.1-.2.2-.3.3-.5v.4c0 .1-.1.2-.2.3s-.2.2-.3.4c-.1.1-.2.3-.3.4s-.3.2-.4.3c-.2.1-.3.1-.4.1s-.2 0-.3-.1-.1-.2-.1-.4v-.3c0-.2.1-.5.2-.7s.3-.4.6-.5l1.4-.8zm2-3.8c.1 0 .1-.1.2-.1.1-.1.2-.1.3-.1.1-.1.2-.1.3-.1v.5l-.5.3c-.2.1-.3.2-.4.3s-.1.3-.1.4v3.5l-.5.3v-3.6c0-.2 0-.4.1-.5.1-.2.1-.3.2-.5s.2-.3.4-.4zm.6 1.1v.5l-1.8 1.1v-.4l.5-.3 1.3-.9zm1.2-1.6v3.1c0 .1 0 .2.1.3.1 0 .1 0 .3-.1l.4-.2.1.4-.2.2c-.1.1-.2.1-.2.2-.1.1-.1.1-.2.1-.2.1-.4.2-.5.1s-.2-.2-.2-.5v-3.2l.4-.4zm.9.4v.5l-1.8 1.1v-.4l.5-.3 1.3-.9zm4.2-3.7l-1.3 3.6-.5.3-1.3-2.1.6-.3.8 1.3c0 .1.1.1.1.2s.1.1.1.2h0c0-.1.1-.2.1-.3s.1-.2.1-.3l.8-2.2.5-.4zm-1.2 3.2v1.9l-.5.3v-1.9l.5-.3zm2.5-2.7c.3-.2.6-.3.7-.3.2 0 .3.1.4.3s.1.5.1.9 0 .7-.1 1-.2.5-.4.7-.4.4-.7.6-.6.3-.7.3c-.2 0-.3-.1-.4-.3s-.1-.5-.1-.9 0-.7.1-1 .2-.5.4-.7c.1-.3.4-.4.7-.6zm0 .5c-.2.1-.3.2-.4.3s-.2.3-.2.5-.1.4-.1.7 0 .5.1.6c0 .1.1.2.2.2s.2 0 .4-.2c.2-.1.3-.2.4-.3s.2-.3.2-.5.1-.4.1-.7 0-.5-.1-.6c0-.1-.1-.2-.2-.2s-.3.1-.4.2zm2.4-1.9v2.1c0 .2 0 .3.1.3s.2 0 .3-.1.3-.2.4-.4.3-.4.5-.6l.1.4-.6.8c-.2.2-.4.4-.6.5-.5.3-.7.1-.7-.4v-2.3l.5-.3zm1.8-1v3.1l-.4.2v-.6l-.1-.1V258l.5-.2zm1.3-.7l.1.6v.1 2.4l-.5.3v-3.1l.4-.3zm1.3-.8l-.1.6-.2.1c-.1.1-.3.2-.5.4s-.3.4-.6.6v-.3l.6-.8c.2-.2.4-.4.6-.5l.2-.1zm2.3-2.6l.6-.3.6-.3c.2-.1.4-.2.5-.3v.5l-1.5.9c-.1.1-.2.1-.2.2-.1.1-.1.2-.1.3v2.5c0 .1 0 .2.1.3h.2l1.5-.9v.5c-.2.1-.3.2-.5.3l-.6.3-.6.3c-.2.1-.4.2-.5.1s-.2-.2-.2-.4v-2.8c0-.2.1-.5.2-.7s.3-.3.5-.5zm-.6 2.2l2-1.2v.5l-2 1.2v-.5zm6.2-4.2c.2-.1.4-.2.5-.1s.2.2.2.5v2.3l-.5.3v-2.1c0-.2 0-.3-.1-.3-.1-.1-.2 0-.3 0-.1.1-.2.1-.2.2l-.3.3c-.1.1-.2.3-.4.5v-.4l.5-.8c.2-.1.4-.3.6-.4zm-2.9 1.7v.6l.1.1v2.4l-.5.3v-3.1l.4-.3zm1.1-.7c.2-.1.4-.2.5-.1s.2.2.2.5v2.3l-.5.3v-2.1c0-.2 0-.3-.1-.3s-.2 0-.3.1-.2.1-.2.2l-.3.3c-.1.1-.2.3-.4.5v-.4l.5-.8c.3-.2.5-.4.6-.5zm4.8-2.7c.3-.2.6-.2.7 0s.2.6.2 1.1c0 .4 0 .7-.1 1s-.2.5-.3.7-.3.3-.6.5c-.2.1-.4.2-.5.2h-.5v-.4c.2 0 .3-.1.4-.1s.3-.1.4-.2.3-.2.4-.3.2-.3.2-.4c0-.2.1-.4.1-.7s0-.5-.1-.6c0-.1-.1-.2-.2-.2s-.2 0-.3.1-.3.2-.4.3-.3.3-.5.6l-.1-.3c.1-.2.2-.3.3-.5s.3-.3.4-.4c.3-.3.4-.4.5-.4zm-1.1.7l.1.6v.1 2 .1.3.4.9l-.5.3v-4.3l.4-.4zm3.3-3.2v3.5c0 .1 0 .2.1.2s.2 0 .3-.1l.2-.1.1.4s-.1.1-.2.1-.1.1-.2.1-.1.1-.2.1c-.2.1-.4.1-.5.1-.1-.1-.2-.2-.2-.5v-3.7l.6-.1zm2.2-.1c.3-.2.6-.3.7-.3.2 0 .3.1.4.3s.1.5.1.9 0 .7-.1 1-.2.5-.4.7-.4.4-.7.6-.6.3-.7.3c-.2 0-.3-.1-.4-.3s-.1-.5-.1-.9 0-.7.1-1 .2-.5.4-.7.4-.4.7-.6zm0 .5c-.2.1-.3.2-.4.3s-.2.3-.2.5-.1.4-.1.7 0 .5.1.6c0 .1.1.2.2.2s.2 0 .4-.2c.2-.1.3-.2.4-.3s.2-.3.2-.5.1-.4.1-.7 0-.5-.1-.6c0-.1-.1-.2-.2-.2 0 .1-.2.1-.4.2zm4.4-2.9l-1 3.8c0 .2-.1.3-.2.5s-.1.3-.2.5-.2.3-.3.5c-.1.1-.3.3-.5.4v-.4c.2-.2.4-.4.5-.6l.3-.6.1-.5c0-.1.1-.2.1-.3s.1-.2.1-.3l.7-2.6.4-.4zm-2.2 1.3l.7 1.8v.2.2l.1-.1-.2.5-.2.1h-.1s-.1 0-.1-.1l-.9-2.4.7-.2zm3.8-2.3a2.3 2.3 0 0 1 .9-.3c.2.1.3.3.3.6s0 .5-.2.7a1.2 1.2 0 0 1-.5.5l-1.5.9v-.4l1.4-.8c.1-.1.2-.2.2-.3s.1-.2.1-.3c0-.2-.1-.3-.1-.3-.1 0-.2 0-.5.2-.2.1-.3.2-.4.3s-.2.3-.2.5-.1.4-.1.7 0 .5.1.7c.1.1.1.2.3.2.1 0 .3-.1.5-.2.1-.1.3-.2.5-.3s.3-.2.5-.3l.1.4-.3.3c-.1.1-.2.2-.4.3-.1.1-.2.2-.4.2-.3.2-.6.3-.8.3s-.3-.1-.4-.3-.1-.5-.1-.9 0-.7.1-1 .2-.5.4-.7c-.1-.3.2-.5.5-.7zm2.2-1.2l.1.6v.1 2.4l-.5.3v-3.1l.4-.3zm1.3-.8l-.1.6-.2.1c-.1.1-.3.2-.5.4s-.3.4-.6.6v-.3l.6-.8c.2-.2.4-.4.6-.5l.2-.1zm2.9-2.9c.3-.2.6-.3.7-.3.2 0 .3 0 .4.1s.1.3.1.6-.1.6-.2.8-.3.4-.5.6h0c.3-.1.5-.1.6 0s.2.4.2.7 0 .6-.1.8-.2.4-.4.6-.4.3-.7.5l-.6.3c-.2.1-.3.2-.4.2-.1.1-.3.1-.4.2l.1-.5c.1 0 .2-.1.5-.3l.8-.5c.2-.1.3-.2.4-.3s.2-.2.2-.3.1-.3.1-.5 0-.4-.1-.5c0-.1-.1-.1-.2-.1s-.3.1-.5.2l-1.2.7v-.5l1.2-.7c.2-.1.3-.2.4-.3s.2-.2.2-.3.1-.3.1-.5 0-.3-.1-.4c0-.1-.1-.1-.2-.1s-.3.1-.5.2-.3.2-.5.3c-.1.1-.3.2-.4.2-.1.1-.2.1-.3.2l-.1-.4c.1-.1.3-.2.4-.2.1-.1.2-.2.4-.2l.6-.3zm-.7.5v4.3l-.5.3v-4.3l.5-.3zm3.2-.6l.1.6v.1 2.4l-.5.3v-3.1l.4-.3zm1.3-.8l-.1.6-.2.1c-.1.1-.3.2-.5.4s-.3.4-.6.6v-.3l.6-.8c.2-.2.4-.4.6-.5l.2-.1zm1.8-1c.2-.1.4-.2.5-.2s.2 0 .3.1.1.3.1.5v2.1l-.4.2-.1-.6v-.1-1.4c0-.2 0-.3-.1-.3s-.2 0-.4.1c-.1.1-.3.2-.5.3s-.4.3-.6.4v-.4c.1-.1.3-.2.4-.3.2-.1.3-.2.5-.3 0 0 .1-.1.3-.1zm.7.8v.4l-1.2.7-.3.3c0 .1-.1.2-.1.3v.2c0 .2 0 .2.1.3.1 0 .2 0 .3-.1s.2-.1.3-.3l.4-.4c.1-.2.2-.3.3-.5v.4c0 .1-.1.2-.2.3s-.2.2-.3.4c-.1.1-.2.3-.3.4s-.3.2-.4.3c-.2.1-.3.1-.4.1s-.2 0-.3-.1-.1-.2-.1-.4v-.3c0-.2.1-.5.2-.7s.3-.4.6-.5l1.4-.8zm2.6-2.8c.5-.3.7-.1.7.4v2.3l-.5.3v-2.1c0-.2 0-.3-.1-.3h-.3c-.2.1-.3.2-.5.4s-.3.4-.6.7v-.4l.6-.8c.2-.2.5-.4.7-.5zm-1.2.8v.6.1 2.4l-.5.3v-3.1l.5-.3zm3.7-2.2c.2-.1.4-.2.5-.2.2 0 .3-.1.5 0v.4c-.2 0-.3.1-.4.1s-.3.1-.4.2-.3.2-.4.3-.2.3-.2.4c0 .2-.1.4-.1.7s0 .5.1.6c0 .1.1.2.2.2s.2 0 .3-.1.2-.1.3-.2l.3-.3c.1-.1.2-.3.3-.4v.4c-.1.2-.3.5-.5.7s-.4.4-.6.5c-.3.2-.6.2-.7 0s-.2-.6-.2-1.1c0-.4 0-.7.1-1s.2-.5.3-.7.3-.3.6-.5zm1.4-2.1v4.4l-.4.2-.1-.5h-.1v-2.1-.1-.3-.4-.9l.6-.3zm1.1 3c.1 0 .1-.1.1 0v.1.4.4c0 .1 0 .3-.1.4 0 .1-.1.2-.1.4l-.2.1v-.4-.4c-.1.1-.1 0-.1-.1v-.4-.2c0-.1.1-.1.1-.1l.3-.2zm2.8-5.1v4.3l-.5.3v-4.3l.5-.3zm1.9.1c.3-.2.5-.3.7-.3s.3 0 .4.1.1.3.1.5 0 .4-.1.6-.2.4-.4.5c-.2.2-.4.3-.7.5s-.5.3-.7.3-.3 0-.4-.1-.1-.3-.1-.5 0-.4.1-.6.2-.4.4-.5c.2-.2.4-.4.7-.5zm0 .4c-.3.1-.4.3-.5.4s-.1.3-.1.5 0 .3.1.3.3 0 .5-.2c.3-.1.4-.3.5-.4s.1-.3.1-.5 0-.3-.1-.3-.3.1-.5.2zm1.5-1.2v.3l-.7.5-.2-.3.9-.5zm-2.3 3l.3-.1c-.1.1-.1.2-.1.3v.2c0 .1.1.1.2 0l1-.4c.3-.1.4-.1.5 0s.2.2.2.5c0 .2 0 .5-.1.6-.1.2-.2.4-.4.5-.2.2-.4.3-.8.5-.2.1-.5.2-.6.3-.2.1-.3.1-.4.1s-.2-.1-.2-.2-.1-.2-.1-.4v-.4c0-.1.1-.2.2-.3s.2-.2.3-.4l.3-.4h.2l-.3.4c-.1.1-.1.2-.2.3 0 .1-.1.2-.1.2v.3c0 .1 0 .2.1.3h.2c.1 0 .3-.1.5-.2s.4-.2.5-.3.2-.2.2-.3.1-.2.1-.3v-.2s-.1-.1-.1 0c-.1 0-.2 0-.3.1l-.9.4c-.1.1-.2.1-.3 0-.1 0-.1-.1-.1-.2v-.3c0-.1 0-.2.1-.3 0-.2.1-.3.1-.3zm4.4-4.3c.5-.3.7-.1.7.4v2.3l-.5.3v-2.1c0-.2 0-.3-.1-.3h-.3c-.2.1-.3.2-.5.4s-.3.4-.6.7v-.4l.6-.8c.3-.2.5-.4.7-.5zm-1.2.8v.6.1 2.4l-.5.3v-3.1l.5-.3zm3.3-1.9v3.1l-.5.3v-3.1l.5-.3zm-.1-1.3c.1-.1.2 0 .2.1v.4c0 .1-.1.2-.2.3l-.2.1c-.1.1-.2 0-.2-.1v-.4c0-.1.1-.2.2-.3l.2-.1zm1.7-.5v3.1c0 .1 0 .2.1.3.1 0 .1 0 .3-.1l.4-.2.1.4-.2.2c-.1.1-.2.1-.2.2-.1.1-.1.1-.2.1-.2.1-.4.2-.5.1s-.2-.2-.2-.5V225l.4-.3zm.8.4v.5l-1.8 1.1v-.4l.5-.3 1.3-.9zm1.6-1a2.3 2.3 0 0 1 .9-.3c.2.1.3.3.3.6s0 .5-.2.7a1.2 1.2 0 0 1-.5.5l-1.5.9v-.4l1.4-.8c.1-.1.2-.2.2-.3s.1-.2.1-.3c0-.2-.1-.3-.1-.3-.1 0-.2 0-.5.2-.2.1-.3.2-.4.3s-.2.3-.2.5-.1.4-.1.7 0 .5.1.7c.1.1.1.2.3.2.1 0 .3-.1.5-.2.1-.1.3-.2.5-.3s.3-.2.5-.3l.1.4-.3.3c-.1.1-.3.2-.4.3s-.2.2-.4.2c-.3.2-.6.3-.8.3s-.3-.1-.4-.3-.1-.5-.1-.9 0-.7.1-1 .2-.5.4-.7c0-.4.3-.6.5-.7zm4.4-3.8c.3-.2.6-.3.7-.3.2 0 .3 0 .4.2s.1.4.1.8 0 .7-.1.9-.2.4-.4.6-.4.3-.7.5c-.2.1-.3.2-.5.2-.1.1-.3.1-.4.2s-.2.1-.3.1h-.2v-.4l.6-.3c.2-.1.4-.2.6-.4.2-.1.3-.2.4-.3s.2-.2.2-.4c0-.1.1-.3.1-.6 0-.2 0-.4-.1-.5 0-.1-.1-.1-.2-.1s-.2.1-.4.2c-.3.2-.6.3-.8.5-.2.1-.4.2-.4.3l-.1-.4c.1-.1.3-.2.4-.3s.3-.2.4-.2c.4-.1.5-.2.7-.3zm-.7.5v4.3l-.5.3v-4.3l.5-.3zm3-.5l.1.6v.1 2.4l-.5.3v-3.1l.4-.3zm1.3-.8l-.1.6-.2.1c-.1.1-.3.2-.5.4s-.3.4-.6.6v-.3l.6-.8c.2-.2.4-.4.6-.5l.2-.1zm1.6-.9a2.3 2.3 0 0 1 .9-.3c.2.1.3.3.3.6s0 .5-.2.7a1.2 1.2 0 0 1-.5.5l-1.5.9v-.4l1.4-.8c.1-.1.2-.2.2-.3s.1-.2.1-.3c0-.2-.1-.3-.1-.3-.1 0-.2 0-.5.2-.2.1-.3.2-.4.3s-.2.3-.2.5-.1.4-.1.7 0 .5.1.7c.1.1.1.2.3.2.1 0 .3-.1.5-.2.1-.1.3-.2.5-.3s.3-.2.5-.3l.1.4-.3.3c-.1.1-.2.2-.4.3-.1.1-.2.2-.4.2-.3.2-.6.3-.8.3s-.3-.1-.4-.3-.1-.5-.1-.9 0-.7.1-1 .2-.5.4-.7c-.1-.3.2-.5.5-.7zm3.4-.7v.4l-1.7.9v-.4l1.7-.9zm1.4-3.3v4.3l-.5.3V215l.5-.4zm1.7.8v.5l-1.8 1v-.5l1.8-1zm.5-2v4.3l-.5.3v-4.3l.5-.3zm1.4.4v3.1l-.5.3v-3.1l.5-.3zm-.1-1.2c.1-.1.2 0 .2.1v.4c0 .1-.1.2-.2.3l-.2.1c-.1.1-.2 0-.2-.1v-.4c0-.1.1-.2.2-.3l.2-.1zm1.3.5l.1.6v.1 2.4l-.5.3v-3.1l.4-.3zm1.3-.8l-.1.6-.2.1c-.1.1-.3.2-.5.4s-.3.4-.6.6v-.3l.6-.8c.2-.2.4-.4.6-.5l.2-.1zm1.6-.9a2.3 2.3 0 0 1 .9-.3c.2.1.3.3.3.6s0 .5-.2.7a1.2 1.2 0 0 1-.5.5l-1.5.9v-.4l1.4-.8c.1-.1.2-.2.2-.3s.1-.2.1-.3c0-.2-.1-.3-.1-.3-.1 0-.2 0-.5.2-.2.1-.3.2-.4.3s-.2.3-.2.5-.1.4-.1.7 0 .5.1.7c.1.1.1.2.3.2.1 0 .3-.1.5-.2.1-.1.3-.2.5-.3s.3-.2.5-.3l.1.4-.3.3c-.1.1-.2.2-.4.3-.1.1-.2.2-.4.2-.3.2-.6.3-.8.3s-.3-.1-.4-.3-.1-.5-.1-.9 0-.7.1-1 .2-.5.4-.7c0-.3.2-.5.5-.7zm3.8-3.4l.6-.3.6-.3c.2-.1.4-.2.5-.3v.5l-1.5.9c-.1.1-.2.1-.2.2-.1.1-.1.2-.1.3v2.5c0 .1 0 .2.1.3h.2l1.5-.9v.5c-.2.1-.3.2-.5.3l-.6.3-.6.3c-.2.1-.4.2-.5.1s-.2-.2-.2-.4v-2.8c0-.2.1-.5.2-.7s.3-.3.5-.5zm-.7 2.2l2-1.2v.5l-2 1.2v-.5zm5.3-3.6l-.8 2 .9 1.1-.6.3-.9-1.1.8-1.9.6-.4zm-2 1.2l.8 1-.8 2.1-.6.3.9-2.1-.8-1 .5-.3zm1 .7v.4l-.6.4v-.4l.6-.4zm2.7-2.9c.1 0 .2-.1.3-.1.1-.1.2-.1.3-.1s.2-.1.3-.1l-.1.4c-.1.1-.3.1-.4.2s-.2.1-.3.2c-.2.1-.4.2-.5.4-.1.1-.2.3-.2.5-.1.2-.1.4-.1.7s0 .5.1.6.1.2.2.2.3-.1.5-.2c.1 0 .1-.1.2-.1s.2-.1.3-.2.2-.1.3-.2v.4l-.4.4c-.2.1-.3.2-.5.3-.3.2-.6.3-.8.3s-.3-.1-.4-.3-.1-.5-.1-.9 0-.7.1-1 .2-.5.4-.7c.2-.3.5-.5.8-.7zm2.1-1.1v3.1l-.5.3v-3.1l.5-.3zm-.2-1.2c.1-.1.2 0 .2.1v.4c0 .1-.1.2-.2.3l-.2.1c-.1.1-.2 0-.2-.1v-.4c0-.1.1-.2.2-.3l.2-.1zm1.7-.6v3.1c0 .1 0 .2.1.3.1 0 .1 0 .3-.1l.4-.2.1.4-.2.2c-.1.1-.2.1-.2.2-.1.1-.1.1-.2.1-.2.1-.4.2-.5.1s-.2-.2-.2-.5V203l.4-.3zm.8.4v.5l-1.8 1.1v-.4l.5-.3 1.3-.9zm1.7-1a2.3 2.3 0 0 1 .9-.3c.2.1.3.3.3.6s0 .5-.2.7a1.2 1.2 0 0 1-.5.5l-1.5.9v-.4l1.4-.8c.1-.1.2-.2.2-.3s.1-.2.1-.3c0-.2-.1-.3-.1-.3-.1 0-.2 0-.5.2-.2.1-.3.2-.4.3s-.2.3-.2.5-.1.4-.1.7 0 .5.1.7c.1.1.1.2.3.2.1 0 .3-.1.5-.2.1-.1.3-.2.5-.3s.3-.2.5-.3l.1.4-.3.3c-.1.1-.2.2-.4.3-.1.1-.2.2-.4.2-.3.2-.6.3-.8.3s-.3-.1-.4-.3-.1-.5-.1-.9 0-.7.1-1 .2-.5.4-.7c0-.3.2-.5.5-.7zm5.1-2.9c.2-.1.4-.2.5-.1s.2.2.2.5v2.3l-.5.3v-2.1c0-.2 0-.3-.1-.3-.1-.1-.2 0-.3 0-.1.1-.2.1-.2.2l-.3.3c-.1.1-.2.3-.4.5v-.4l.5-.8c.2-.2.4-.3.6-.4zm-2.8 1.7v.6l.1.1v2.4l-.5.3v-3.1l.4-.3zm1.1-.7c.2-.1.4-.2.5-.1s.2.2.2.5v2.3l-.5.3v-2.1c0-.2 0-.3-.1-.3h-.3c-.1.1-.2.1-.2.2l-.3.3c-.1.1-.2.3-.4.5v-.4l.5-.8c.2-.2.4-.3.6-.4zm4.3-2.5a2.3 2.3 0 0 1 .9-.3c.2.1.3.3.3.6s0 .5-.2.7a1.2 1.2 0 0 1-.5.5l-1.5.9v-.4l1.4-.8c.1-.1.2-.2.2-.3s.1-.2.1-.3c0-.2-.1-.3-.1-.3-.1 0-.2 0-.5.2-.2.1-.3.2-.4.3s-.2.3-.2.5-.1.4-.1.7 0 .5.1.7c.1.1.1.2.3.2.1 0 .3-.1.5-.2.1-.1.3-.2.5-.3s.3-.2.5-.3l.1.4-.3.3c-.1.1-.2.2-.4.3-.1.1-.2.2-.4.2-.3.2-.6.3-.8.3s-.3-.1-.4-.3-.1-.5-.1-.9 0-.7.1-1 .2-.5.4-.7c0-.4.2-.6.5-.7zm3.5-2c.5-.3.7-.1.7.4v2.3l-.5.3v-2.1c0-.2 0-.3-.1-.3h-.3c-.2.1-.3.2-.5.4s-.3.4-.6.7v-.4l.6-.8c.3-.3.5-.4.7-.5zm-1.2.7v.6.1 2.4l-.5.3v-3.1l.5-.3zm3.5-2.8v3.1c0 .1 0 .2.1.3.1 0 .1 0 .3-.1l.4-.2.1.4-.2.2c-.1.1-.2.1-.2.2-.1.1-.1.1-.2.1-.2.1-.4.2-.5.1s-.2-.2-.2-.5V194l.4-.4zm.8.4v.5l-1.8 1.1v-.4l.5-.3 1.3-.9zm.8 1.8c.1 0 .1-.1.1 0v.1.4.4c0 .1 0 .3-.1.4 0 .1-.1.2-.1.4l-.2.1v-.4-.4c-.1.1-.1 0-.1-.1v-.4-.2c0-.1.1-.1.1-.1l.3-.2zm3.5-4.4c.2-.1.4-.2.5-.2s.2 0 .3.1.1.3.1.5v2.1l-.4.2-.1-.6v-.1-1.4c0-.2 0-.3-.1-.3s-.2 0-.4.1c-.1.1-.3.2-.5.3s-.4.3-.6.4v-.4c.1-.1.3-.2.4-.3.2-.1.3-.2.5-.3 0 .1.1 0 .3-.1zm.7.9v.4l-1.2.7-.3.3c0 .1-.1.2-.1.3v.2c0 .1 0 .2.1.3.1 0 .2 0 .3-.1s.2-.1.3-.3l.4-.4c.1-.2.2-.3.3-.5v.4c0 .1-.1.2-.2.3s-.2.2-.3.4c-.1.1-.2.3-.3.4s-.3.2-.4.3c-.2.1-.3.1-.4.2-.1 0-.2 0-.3-.1s-.1-.2-.1-.4v-.3c0-.2.1-.5.2-.7s.3-.4.6-.5l1.4-.9zm2.6-2.8c.5-.3.7-.1.7.4v2.3l-.5.3v-2.1c0-.2 0-.3-.1-.3h-.3c-.2.1-.3.2-.5.4s-.3.4-.6.7v-.4l.6-.8c.3-.2.5-.4.7-.5zm-1.2.8v.6.1 2.4l-.5.3v-3.1l.5-.3zm3.7-2.2c.2-.1.4-.2.5-.2.2 0 .3-.1.5 0v.4c-.2 0-.3.1-.4.1s-.3.1-.4.2-.3.2-.4.3-.2.3-.2.4c0 .2-.1.4-.1.7s0 .5.1.6c0 .1.1.2.2.2s.2 0 .3-.1.2-.1.3-.2l.3-.3c.1-.1.2-.3.3-.4v.4c-.1.2-.3.5-.5.7s-.4.4-.6.5c-.3.2-.6.2-.7 0s-.2-.6-.2-1.1c0-.4 0-.7.1-1s.2-.5.3-.7.3-.4.6-.5zm1.4-2.1v4.4l-.4.2-.1-.5h-.1V188v-.1-.3-.4-.9l.6-.3zm2.6-1.4v4.3l-.5.3v-4.3l.5-.3zm4.1-1.2c.2-.1.4-.2.5-.1s.2.2.2.5v2.3l-.5.3v-2.1c0-.2 0-.3-.1-.3-.1-.1-.2 0-.3 0-.1.1-.2.1-.2.2l-.3.3c-.1.1-.2.3-.4.5v-.4l.5-.8c.2-.1.4-.3.6-.4zm-2.8 1.7v.6l.1.1v2.4l-.5.3v-3.1l.4-.3zm1.1-.7c.2-.1.4-.2.5-.1s.2.2.2.5v2.3l-.5.3v-2.1c0-.2 0-.3-.1-.3s-.2 0-.3.1-.2.1-.2.2l-.3.3c-.1.1-.2.3-.4.5v-.4l.5-.8c.2-.2.4-.4.6-.5zm4.8-2.7c.3-.2.6-.2.7 0s.2.6.2 1.1c0 .4 0 .7-.1 1s-.2.5-.3.7-.3.3-.6.5c-.2.1-.4.2-.5.2h-.5v-.4c.2 0 .3-.1.4-.1s.3-.1.4-.2.3-.2.4-.3.2-.3.2-.4c0-.2.1-.4.1-.7s0-.5-.1-.6c0-.1-.1-.2-.2-.2s-.2 0-.3.1-.3.2-.4.3a3.8 3.8 0 0 0-.5.6l-.1-.3c.1-.2.2-.3.3-.5s.3-.3.4-.4c.2-.3.4-.4.5-.4zm-1.1.7l.1.6v.1 2 .1.3.4.9l-.5.3v-4.3l.4-.4zm3.1-1.8l.1.6v.1 2.4l-.5.3v-3.1l.4-.3zm1.3-.8l-.1.6-.2.1c-.1.1-.3.2-.5.4s-.3.4-.6.6v-.3l.6-.8c.2-.2.4-.4.6-.5l.2-.1zm1.6-1c.3-.2.6-.3.7-.3.2 0 .3.1.4.3s.1.5.1.9 0 .7-.1 1-.2.5-.4.7-.4.4-.7.6-.6.3-.7.3c-.2 0-.3-.1-.4-.3s-.1-.5-.1-.9 0-.7.1-1 .2-.5.4-.7c.1-.2.4-.4.7-.6zm0 .5c-.2.1-.3.2-.4.3s-.2.3-.2.5-.1.4-.1.7 0 .5.1.6c0 .1.1.2.2.2s.2 0 .4-.2.3-.2.4-.3.2-.3.2-.5.1-.4.1-.7 0-.5-.1-.6c0-.1-.1-.2-.2-.2-.1.1-.2.1-.4.2zm4.3-2.9l-1 3.5c0 .1 0 .1-.1.2l-.1.1-.5.3h-.1s-.1 0-.1-.1l-1-2.4.6-.3.6 1.7c0 .1.1.1.1.2s0 .2.1.2h.1c0-.1.1-.2.1-.3s0-.2.1-.3l.6-2.5.6-.3zm1.6-1a2.3 2.3 0 0 1 .9-.3c.2.1.3.3.3.6s0 .5-.2.7a1.2 1.2 0 0 1-.5.5l-1.5.9v-.4l1.4-.8c.1-.1.2-.2.2-.3s.1-.2.1-.3c0-.2-.1-.3-.1-.3-.1 0-.2 0-.5.2-.2.1-.3.2-.4.3s-.2.3-.2.5-.1.4-.1.7 0 .5.1.7c.1.1.1.2.3.2.1 0 .3-.1.5-.2.1-.1.3-.2.5-.3s.3-.2.5-.3l.1.4-.3.3c-.1.1-.2.2-.4.3-.1.1-.3.2-.4.2-.3.2-.6.3-.8.3s-.3-.1-.4-.3-.1-.5-.1-.9 0-.7.1-1 .2-.5.4-.7c0-.3.2-.5.5-.7zm4.5-3.8c.3-.2.5-.3.7-.3s.4 0 .5.1.2.3.2.5c.1.3.1.6.1 1s0 .8-.1 1.1c0 .3-.1.6-.2.8s-.3.5-.5.6c-.2.2-.4.4-.7.5-.3.2-.5.3-.7.3s-.3 0-.5-.1c-.1-.1-.2-.3-.3-.5-.1-.3-.1-.6-.1-1s0-.8.1-1.1.1-.6.3-.8c.1-.2.3-.5.5-.6.2-.2.4-.3.7-.5zm0 .6c-.2.1-.4.3-.6.5l-.3.7c-.1.3-.1.6-.1 1.1 0 .4 0 .8.1 1s.2.3.3.4c.1 0 .3 0 .6-.2.2-.1.4-.3.6-.5.1-.2.2-.4.3-.7s.1-.6.1-1.1c0-.4 0-.8-.1-1s-.2-.3-.3-.4c-.2 0-.4 0-.6.2zm3.2-2.5c.1 0 .1-.1.2-.1s.2-.1.3-.1.2-.1.2-.1v.5l-.5.3c-.2.1-.3.2-.4.3s-.1.3-.1.5v3.4l-.5.3v-3.5c0-.2 0-.4.1-.5.1-.2.1-.3.3-.5.1-.2.2-.3.4-.5zm1.8-1.1c.1 0 .1-.1.2-.1s.2-.1.3-.1c.1-.1.2-.1.2-.1v.5l-.5.2c-.2.1-.3.2-.4.3s-.1.3-.1.4v3.5l-.5.3V170c0-.2 0-.4.1-.5.1-.2.1-.3.3-.5.1-.1.2-.3.4-.4zm.6 1.1v.5l-3.6 2.1v-.4l.5-.3 3.1-1.9zm1.6-1a2.3 2.3 0 0 1 .9-.3c.2.1.3.3.3.6s0 .5-.2.7a1.2 1.2 0 0 1-.5.5l-1.5.9v-.4l1.4-.8c.1-.1.2-.2.2-.3s.1-.2.1-.3c0-.2-.1-.3-.1-.3-.1 0-.2 0-.5.2-.2.1-.3.2-.4.3s-.2.3-.2.5-.1.4-.1.7 0 .5.1.7c.1.1.1.2.3.2.1 0 .3-.1.5-.2.1-.1.3-.2.5-.3s.3-.2.5-.3l.1.4-.3.3c-.1.1-.2.2-.4.3-.1.1-.2.2-.4.2-.3.2-.6.3-.8.3s-.3-.1-.4-.3-.1-.5-.1-.9 0-.7.1-1 .2-.5.4-.7c0-.3.2-.5.5-.7zm2.2-1.2l.1.6v.1 2.4l-.5.3v-3.1l.4-.3zm1.3-.8l-.1.6-.2.1c-.1.1-.3.2-.5.4s-.3.4-.6.6v-.3l.6-.8c.2-.2.4-.4.6-.5l.2-.1zm3.1-2.9h.1s.1 0 .1.1l1.2 3.5-.6.3-.9-2.9v-.2-.1l-.2.1v.2.2l-.9 4-.6.3 1.2-4.8c0-.1 0-.1.1-.2 0-.1.1-.1.1-.1l.4-.4zm.6 2.1v.5l-1.9 1.1v-.5l1.9-1.1zm2.3-2.6c.1 0 .2-.1.3-.1.1-.1.2-.1.3-.1s.2-.1.3-.1l-.1.4c-.1.1-.3.1-.4.2s-.2.1-.3.2c-.2.1-.4.2-.5.4-.1.1-.2.3-.2.5-.1.2-.1.4-.1.7s0 .5.1.6c0 .1.1.2.2.2s.3-.1.5-.2c.1 0 .1-.1.2-.1.1-.1.2-.1.3-.2s.2-.1.3-.2v.4l-.4.4c-.2.1-.3.2-.5.3-.3.2-.6.3-.8.3s-.3-.1-.4-.3-.1-.5-.1-.9 0-.7.1-1 .2-.5.4-.7c.3-.4.5-.6.8-.7zm2.7-1.6c.1 0 .2-.1.3-.1.1-.1.2-.1.3-.1s.2-.1.3-.1l-.1.4c-.1.1-.3.1-.4.2s-.2.1-.3.2c-.2.1-.4.2-.5.4-.1.1-.2.3-.2.5-.1.2-.1.4-.1.7s0 .5.1.6c0 .1.1.2.2.2s.3-.1.5-.2c.1 0 .1-.1.2-.1.1-.1.2-.1.3-.2s.2-.1.3-.2v.4l-.4.4c-.2.1-.3.2-.5.3-.3.2-.6.3-.8.3s-.3-.1-.4-.3-.1-.5-.1-.9 0-.7.1-1 .2-.5.4-.7c.2-.3.5-.5.8-.7zm2.6-1.5a2.3 2.3 0 0 1 .9-.3c.2.1.3.3.3.6s0 .5-.2.7a1.2 1.2 0 0 1-.5.5l-1.5.9v-.4l1.4-.8c.1-.1.2-.2.2-.3s.1-.2.1-.3c0-.2-.1-.3-.1-.3-.1 0-.2 0-.5.2-.2.1-.3.2-.4.3s-.2.3-.2.5-.1.4-.1.7 0 .5.1.7c.1.1.1.2.3.2.1 0 .3-.1.5-.2.1-.1.3-.2.5-.3s.3-.2.5-.3l.1.4-.3.3c-.1.1-.2.2-.4.3-.1.1-.2.2-.4.2-.3.2-.6.3-.8.3s-.3-.1-.4-.3-.1-.5-.1-.9 0-.7.1-1 .2-.5.4-.7c0-.3.2-.5.5-.7zm3.4-1.9c.3-.2.6-.2.7 0s.2.6.2 1.1c0 .4 0 .7-.1 1s-.2.5-.3.7-.3.3-.6.5c-.2.1-.4.2-.5.2h-.5v-.4c.2 0 .3-.1.4-.1s.3-.1.4-.2.3-.2.4-.3.2-.3.2-.4c0-.2.1-.4.1-.7s0-.5-.1-.6c0-.1-.1-.2-.2-.2s-.2 0-.3.1-.3.2-.4.3a3.8 3.8 0 0 0-.5.6l-.1-.3c.1-.2.2-.3.3-.5s.3-.3.4-.4c.2-.2.3-.3.5-.4zm-1.2.7l.1.6v.1 2 .1.3.4.9l-.5.3v-4.3l.4-.4zm3.5-2.9v3.1c0 .1 0 .2.1.3.1 0 .1 0 .3-.1l.4-.2.1.4-.2.2c-.1.1-.2.1-.2.2-.1.1-.1.1-.2.1-.2.1-.4.2-.5.1s-.2-.2-.2-.5v-3.2l.4-.4zm.8.5v.5l-1.8 1.1v-.4l.5-.3 1.3-.9zm1.9-1.2c.2-.1.4-.2.5-.2s.2 0 .3.1.1.3.1.5v2.1l-.4.2-.1-.6v-.1-1.4c0-.2 0-.3-.1-.3s-.2 0-.4.1c-.1.1-.3.2-.5.3s-.4.3-.6.4v-.4c.1-.1.3-.2.4-.3.2-.1.3-.2.5-.3 0 .1.1 0 .3-.1zm.7.9v.4l-1.2.7-.3.3c0 .1-.1.2-.1.3v.2c0 .2 0 .2.1.3.1 0 .2 0 .3-.1s.2-.1.3-.3l.4-.4c.1-.2.2-.3.3-.5v.4c0 .1-.1.2-.2.3s-.2.2-.3.4c-.1.1-.2.3-.3.4s-.3.2-.4.3c-.2.1-.3.1-.4.1s-.2 0-.3-.1-.1-.2-.1-.4v-.3c0-.2.1-.5.2-.7s.3-.4.6-.5l1.4-.8zm2.6-2.8c.5-.3.7-.1.7.4v2.3l-.5.3v-2.1c0-.2 0-.3-.1-.3h-.3c-.2.1-.3.2-.5.4s-.3.4-.6.7v-.4l.6-.8c.3-.2.5-.4.7-.5zm-1.2.8v.6.1 2.4l-.5.3v-3.1l.5-.3zm3.9-2.3c.1 0 .2-.1.3-.1.1-.1.2-.1.3-.1s.2-.1.3-.1l-.1.3c-.1.1-.3.1-.4.2s-.2.1-.3.2c-.2.1-.4.2-.5.4-.1.1-.2.3-.2.5-.1.2-.1.4-.1.7s0 .5.1.6.1.2.2.2.3-.1.5-.2c.1 0 .1-.1.2-.1s.2-.1.3-.2.2-.1.3-.2v.4l-.4.4c-.2.1-.3.2-.5.3-.3.2-.6.3-.8.3s-.3-.1-.4-.3-.1-.5-.1-.9 0-.7.1-1 .2-.5.4-.7c.3-.3.5-.5.8-.6zm2.6-1.5a2.3 2.3 0 0 1 .9-.3c.2.1.3.3.3.6s0 .5-.2.7a1.2 1.2 0 0 1-.5.5l-1.5.9v-.4l1.4-.8c.1-.1.2-.2.2-.3s.1-.2.1-.3c0-.2-.1-.3-.1-.3-.1 0-.2 0-.5.2-.2.1-.3.2-.4.3s-.2.3-.2.5-.1.4-.1.7 0 .5.1.7c.1.1.1.2.3.2.1 0 .3-.1.5-.2.1-.1.3-.2.5-.3s.3-.2.5-.3l.1.4-.3.3c-.1.1-.2.2-.4.3-.1.1-.2.2-.4.2-.3.2-.6.3-.8.3s-.3-.1-.4-.3-.1-.5-.1-.9 0-.7.1-1 .2-.5.4-.7c0-.4.2-.6.5-.7zM157.7 276.2c.3-.2.5-.3.7-.3s.3 0 .4.2c.1.1.1.4.1.7 0 .2 0 .4-.1.6 0 .2-.1.3-.2.5-.1.1-.2.3-.4.4h0 .2c.1 0 .1 0 .2.1s.1.1.1.3l.4 1.2-.6.3-.3-1.2c0-.1-.1-.2-.2-.2s-.2 0-.3.1l-.6.3c-.2.1-.3.2-.4.2-.1.1-.2.1-.3.1v-.5l1.2-.7c.2-.1.3-.2.4-.3s.2-.2.2-.4c0-.1.1-.3.1-.5s0-.3-.1-.4c0-.1-.1-.1-.2-.1s-.2.1-.4.2c-.3.2-.6.3-.8.5-.2.1-.4.2-.4.3l-.1-.4c.1-.1.3-.2.4-.3s.3-.2.4-.2c.2-.3.4-.4.6-.5zm-.8.5v4.3l-.5.3V277l.5-.3zm4.1-1.2c.2-.1.4-.2.5-.2s.2 0 .3.1.1.3.1.5v2.1l-.4.2-.1-.6v-.1-1.4c0-.2 0-.3-.1-.3s-.2 0-.4.1c-.1.1-.3.2-.5.3s-.4.3-.6.4v-.4c.1-.1.3-.2.4-.3.2-.1.3-.2.5-.3 0 .1.1 0 .3-.1zm.6.9v.4l-1.2.7-.3.3c0 .1-.1.2-.1.3v.2c0 .1 0 .2.1.3.1 0 .2 0 .3-.1s.2-.1.3-.3l.4-.4c.1-.2.2-.3.3-.5v.4c0 .1-.1.2-.2.3s-.2.2-.3.4c-.1.1-.2.3-.3.4s-.3.2-.4.3c-.2.1-.3.1-.4.1s-.2 0-.3-.1-.1-.2-.1-.4v-.3c0-.2.1-.5.2-.7s.3-.4.6-.5l1.4-.8zm1.8-3.1v3.1c0 .1 0 .2.1.3.1 0 .1 0 .3-.1l.4-.2.1.4-.2.2c-.1.1-.2.1-.2.2-.1.1-.1.1-.2.1-.2.1-.4.2-.5.1s-.2-.2-.2-.5v-3.2l.4-.4zm.8.4v.5l-1.8 1.1v-.4l.5-.3 1.3-.9zm1.1-.6v3.1l-.5.3v-3.1l.5-.3zm-.1-1.2c.1-.1.2 0 .2.1v.4c0 .1-.1.2-.2.3l-.2.1c-.1.1-.2 0-.2-.1v-.4c0-.1.1-.2.2-.3l.2-.1zm2.1 0c.3-.2.6-.3.7-.3.2 0 .3.1.4.3s.1.5.1.9 0 .7-.1 1-.2.5-.4.7-.4.4-.7.6-.6.3-.7.3c-.2 0-.3-.1-.4-.3s-.1-.5-.1-.9 0-.7.1-1 .2-.5.4-.7c.1-.2.4-.4.7-.6zm0 .5c-.2.1-.3.2-.4.3s-.2.3-.2.5-.1.4-.1.7 0 .5.1.6c0 .1.1.2.2.2s.2 0 .4-.2.3-.2.4-.3.2-.3.2-.5.1-.4.1-.7 0-.5-.1-.6c0-.1-.1-.2-.2-.2s-.2.1-.4.2z"/></g><path d="M132.1 216.9v12.3L433.6 56V43.7c0-7.9-5.6-11.2-12.6-7.2L144.7 195.2c-7 4-12.6 13.7-12.6 21.7h0z" fill="#0668e1"/><use href="#L" fill="#f22071"/><path d="M402.7 59.8c0 2.2 1.6 3.1 3.6 2a7.8 7.8 0 0 0 3.6-6.1c0-2.2-1.6-3.1-3.6-2a7.8 7.8 0 0 0-3.6 6.1z" fill="#4bbc79"/><path d="M296.8 125.3l96.5-56.1c1.4-.8 2.6-3.1 2.6-5s-1.2-2.8-2.6-2l-96.5 56.1c-1.4.8-2.6 3.1-2.6 5s1.2 2.8 2.6 2z" fill="#dcdcdc"/><path d="M149.9 202l-2.1 9.8c0 .2-.1.4-.2.5-.1.2-.2.3-.4.4l-1.6.9c-.2.1-.3.1-.4.1s-.2-.1-.2-.3l-2.1-7.3 1.8-1.1 1.4 5.7c0 .1.1.3.1.5 0 .1.1.3.1.4l.3-.2c0-.2 0-.4.1-.6 0-.2.1-.4.1-.6l1.4-7.4 1.7-.8zm3.3.4c.5-.3.9-.4 1.2-.5s.6 0 .7.3c.2.2.3.7.3 1.3v4.3l-1.3.8-.2-1.3-.1-.1v-2.7c0-.3-.1-.5-.2-.6s-.4 0-.7.2-.7.4-1.1.7l-1.3.9-.1-1.2c.3-.2.6-.5.9-.7.4-.3.7-.5 1.1-.7.3-.3.6-.5.8-.7zm1.5 1.8v1.1l-2.5 1.5c-.2.1-.4.3-.4.4-.1.2-.1.3-.1.5v.3c0 .2.1.4.2.4.1.1.3 0 .5-.1s.4-.3.6-.5.5-.5.7-.8.4-.6.6-1v.8l-.3.7c-.1.3-.3.6-.5.9a5.5 5.5 0 0 1-.7.9c-.3.3-.6.5-.9.7s-.6.3-.9.4c-.3 0-.5-.1-.6-.2-.2-.2-.2-.5-.2-.9v-.7c0-.5.2-1 .5-1.5s.7-.9 1.2-1.2l2.8-1.7zm3.7-4.7v4.3c0 .3 0 .4.1.5s.3 0 .5-.1.5-.3.7-.6l.9-1 .1 1-1.2 1.6c-.4.4-.8.8-1.2 1-1.1.6-1.6.3-1.6-.9v-4.9l1.7-.9zm3.7-2.2v6.5l-1.3.8-.2-1.2-.2-.1v-5l1.7-1zm3-4.6v7.1c0 .2.1.4.2.4s.3 0 .5-.1l.5-.3.2 1.2-.4.4c-.2.1-.3.3-.5.4s-.3.2-.4.3c-.5.3-.9.4-1.2.3s-.4-.5-.4-1v-7.6l1.5-1.1zm4.1-1.5v6.2c0 .2 0 .4.1.4s.3 0 .5-.1l.7-.4.2 1.2c-.1.1-.3.3-.5.4-.2.2-.4.3-.6.4s-.4.2-.5.3c-.5.3-.9.4-1.2.2-.3-.1-.4-.5-.4-1.1V192l1.7-.8zm1.6.9v1.3l-4.2 2.5v-1.2l1.1-.7 3.1-1.9z" class="U"/></g></svg>