<svg xmlns="http://www.w3.org/2000/svg" width="600" height="600" fill="none" xmlns:v="https://vecta.io/nano"><style><![CDATA[.B{fill-opacity:.4}.C{stroke-width:.47}.D{fill:#1b1c17}.E{fill:#e6f0fc}.F{fill-opacity:.6}.G{stroke:#61a7ff}.H{stroke-linejoin:round}.I{fill:#61a7ff}.J{fill:#b2d0f6}.K{fill:#fff}.L{fill:#70b0ff}.M{stroke-linecap:round}.N{fill-rule:evenodd}.O{fill:#0668e1}.P{stroke-miterlimit:10}]]></style><g clip-path="url(#K)"><path d="M280.25 11.98a39.5 39.5 0 0 1 39.5 0l219.81 126.91a39.5 39.5 0 0 1 19.75 34.21v253.81a39.5 39.5 0 0 1-19.75 34.21L319.75 588.02a39.5 39.5 0 0 1-39.5 0L60.44 461.11a39.5 39.5 0 0 1-19.75-34.21V173.09a39.5 39.5 0 0 1 19.75-34.21L280.25 11.98z" fill="#bfd8f7" fill-opacity=".2" stroke="#0668e1"/><path d="M110.83 414.79c3.11-1.28 265.49-146.12 265.49-146.12 5.35-3.07 14.71-2.7 20.9.86L568.38 362s2.36 4.39 1.38 8.93c-.71 3.31-1.67 4.61-3.24 5.71 0 0-.02 0-.04.02-.22.15-.47.32-.73.47-.07.04-.13.09-.19.13L302.98 527.92c-5.35 3.07-14.71 2.7-20.91-.86l-166.86-95.73a18.8 18.8 0 0 1-1.18-.74l-.26-.2c-.22-.17-.47-.34-.67-.5-2.62-2.14-3.59-4.61-4.08-7.77-.56-3.53 1.81-7.29 1.81-7.29v-.04z" fill="url(#A)"/><path d="M303 520.68l262.59-150.65c5.35-3.07 4.68-8.44-1.5-12L397.23 262.3c-6.19-3.55-15.55-3.94-20.9-.86L113.73 412.12c-5.35 3.07-4.68 8.44 1.5 12l166.87 95.73c6.19 3.55 15.55 3.94 20.9.86v-.02z" fill="url(#B)"/><g stroke-width=".3" class="P"><use href="#V" stroke="url(#C)"/><use href="#V" stroke="url(#C)"/></g><path d="M376.68 288.03c-1.14-.05-2.2.15-2.94.58L160.09 411.2h0c-.74.42-.96.93-.9 1.37.06.48.46 1.08 1.37 1.6l79.43 45.57c.91.51 2.06.81 3.2.86s2.2-.15 2.94-.58l213.65-122.59h0c.74-.42.96-.93.9-1.37-.06-.48-.46-1.09-1.37-1.6l-79.43-45.57h0c-.91-.52-2.06-.81-3.19-.86z" fill="url(#D)" stroke="#a9d0ff" stroke-width=".94"/><path d="M383.31 462.94l81.41-46.7-58.95-33.83-81.41 46.7 58.95 33.83z" fill="url(#E)"/><path d="M143.9 402.71l217.75-124.95-8.68-4.98L135.2 397.7l8.7 5z" fill="url(#F)"/><g fill="#244063"><use href="#W"/><use href="#X"/><path d="M341.65 318.2l9.64-5.52c1.23-.71 1.07-1.94-.34-2.75l-2.81-1.62c-1.42-.82-3.58-.91-4.79-.2l-9.64 5.52c-1.24.71-1.07 1.93.34 2.75l2.81 1.62c1.42.82 3.57.91 4.79.21zm-15.43 8.84l9.64-5.52c1.24-.71 1.07-1.93-.34-2.75l-2.81-1.62c-1.42-.82-3.57-.91-4.79-.2l-9.64 5.52c-1.24.71-1.07 1.93.34 2.75l2.81 1.62c1.42.82 3.57.91 4.79.2zm-15.41 8.86l9.64-5.52c1.24-.71 1.07-1.94-.34-2.75l-2.81-1.62c-1.42-.82-3.57-.91-4.79-.2l-9.64 5.52c-1.24.71-1.07 1.93.34 2.75l2.81 1.62c1.42.82 3.57.91 4.79.21zm-15.43 8.84l9.64-5.52c1.24-.71 1.07-1.94-.34-2.75l-2.81-1.62c-1.42-.82-3.57-.91-4.79-.2l-9.64 5.52c-1.24.71-1.07 1.94.34 2.75l2.81 1.62c1.42.82 3.57.91 4.79.21zm-15.4 8.84l9.64-5.52c1.23-.71 1.07-1.93-.34-2.75l-2.81-1.62c-1.42-.82-3.58-.91-4.79-.2l-9.64 5.52c-1.24.71-1.07 1.93.34 2.75l2.81 1.62c1.42.82 3.57.91 4.79.2zm-15.42 8.83l9.64-5.52c1.24-.71 1.07-1.93-.34-2.75l-2.81-1.62c-1.42-.82-3.57-.91-4.79-.2l-9.64 5.52c-1.24.71-1.07 1.93.34 2.75l2.81 1.62c1.42.82 3.57.91 4.79.2zm-15.42 8.87l9.64-5.52c1.24-.71 1.07-1.94-.34-2.75l-2.81-1.62c-1.42-.82-3.57-.91-4.79-.2l-9.64 5.52c-1.23.71-1.07 1.93.34 2.75l2.81 1.62c1.42.82 3.58.91 4.79.21zm-15.42 8.85l9.64-5.52c1.24-.71 1.07-1.93-.34-2.75l-2.81-1.62c-1.42-.82-3.57-.91-4.79-.2l-9.64 5.52c-1.24.71-1.07 1.93.34 2.75l2.81 1.62c1.42.82 3.58.91 4.79.2zm-15.43 8.82l9.64-5.52c1.23-.71 1.07-1.93-.34-2.75l-2.81-1.62c-1.42-.82-3.57-.91-4.79-.21l-9.64 5.52c-1.23.71-1.07 1.93.34 2.75l2.81 1.62c1.42.82 3.57.91 4.79.2zm-15.4 8.86l9.64-5.52c1.24-.71 1.07-1.93-.34-2.75l-2.81-1.62c-1.42-.82-3.57-.91-4.79-.2l-9.64 5.52c-1.24.71-1.07 1.94.34 2.75l2.81 1.62c1.42.82 3.57.91 4.79.21zm-15.42 8.84l9.64-5.52c1.24-.71 1.07-1.94-.34-2.75l-2.81-1.62c-1.42-.82-3.57-.91-4.79-.21l-9.64 5.52c-1.24.71-1.07 1.94.34 2.75l2.81 1.62c1.42.82 3.57.91 4.79.2zm-15.42 8.85l9.64-5.52c1.24-.71 1.07-1.93-.34-2.75l-2.81-1.62c-1.42-.82-3.57-.91-4.79-.2l-9.64 5.52c-1.23.71-1.07 1.93.34 2.75l2.81 1.62c1.42.82 3.57.91 4.79.2z"/><use href="#Y"/><path d="M393.74 320.3l15.91-9.13c1.05-.61.92-1.67-.3-2.36l-7.41-4.24c-1.22-.71-3.07-.78-4.12-.17l-15.91 9.13c-1.05.61-.92 1.67.3 2.36l7.41 4.24c1.22.71 3.07.78 4.12.17z"/><use href="#Z"/><path d="M378.92 328.81l8.93-5.12c.82-.46.71-1.28-.22-1.84l-8.38-4.82a3.6 3.6 0 0 0-3.2-.13l-8.93 5.11c-.82.46-.71 1.28.22 1.84l8.38 4.82a3.6 3.6 0 0 0 3.2.13zm-14.98 8.59l8.93-5.12c.82-.46.71-1.28-.23-1.84l-8.38-4.82a3.6 3.6 0 0 0-3.2-.13l-8.93 5.12c-.82.46-.71 1.28.23 1.84l8.38 4.82a3.6 3.6 0 0 0 3.2.13zm-15 8.62l8.93-5.12c.82-.46.71-1.28-.22-1.84l-8.38-4.82c-.95-.54-2.38-.59-3.2-.13l-8.93 5.11c-.82.46-.71 1.28.22 1.84l8.38 4.82c.95.54 2.38.59 3.2.13z"/><use href="#a"/><use href="#b"/><use href="#c"/><path d="M288.98 380.4l8.93-5.12c.82-.46.71-1.28-.22-1.84l-8.38-4.82a3.6 3.6 0 0 0-3.2-.13l-8.93 5.12c-.82.46-.71 1.28.23 1.84l8.38 4.82a3.6 3.6 0 0 0 3.2.13zm-14.99 8.61l8.93-5.12c.82-.47.71-1.28-.22-1.84l-8.38-4.82a3.6 3.6 0 0 0-3.2-.13l-8.93 5.12c-.82.46-.71 1.28.22 1.84l8.39 4.82a3.6 3.6 0 0 0 3.2.13z"/><use href="#d"/><use href="#e"/><path d="M229.01 414.81l8.93-5.12c.82-.46.71-1.28-.22-1.84l-8.38-4.82a3.6 3.6 0 0 0-3.2-.13l-8.93 5.11c-.82.46-.71 1.28.22 1.84l8.38 4.82a3.6 3.6 0 0 0 3.2.13zm14.21 8.17l8.93-5.12c.82-.46.71-1.28-.22-1.84l-8.38-4.82c-.95-.54-2.38-.59-3.2-.13l-8.93 5.11c-.82.46-.71 1.28.22 1.84l8.38 4.82c.95.54 2.38.59 3.2.13zm-15.61 8.95l8.93-5.12c.82-.46.71-1.28-.22-1.84l-8.39-4.82a3.6 3.6 0 0 0-3.2-.13l-8.93 5.11c-.82.46-.71 1.28.22 1.84l8.38 4.82a3.6 3.6 0 0 0 3.2.13zm30.6-17.56l8.93-5.12c.82-.47.71-1.28-.23-1.84l-8.38-4.82a3.6 3.6 0 0 0-3.2-.13l-8.93 5.11c-.82.47-.71 1.28.22 1.84l8.38 4.82c.95.54 2.38.59 3.2.13zm14.99-8.6l8.93-5.12c.82-.47.71-1.28-.22-1.84l-8.38-4.82a3.6 3.6 0 0 0-3.2-.13l-8.93 5.11c-.82.47-.71 1.28.22 1.84l8.39 4.82a3.6 3.6 0 0 0 3.2.13zm14.99-8.61l8.93-5.12c.82-.47.71-1.28-.22-1.84l-8.38-4.82a3.6 3.6 0 0 0-3.2-.13l-8.93 5.12c-.82.47-.71 1.28.22 1.84l8.38 4.82a3.6 3.6 0 0 0 3.2.13zm15-8.59l8.93-5.11c.82-.47.71-1.28-.23-1.84l-8.38-4.82a3.6 3.6 0 0 0-3.2-.13l-8.93 5.12c-.82.47-.71 1.28.23 1.84l8.38 4.82a3.6 3.6 0 0 0 3.2.13z"/><use href="#f"/><path d="M333.17 371.36l8.93-5.11c.82-.47.71-1.28-.23-1.84l-8.38-4.82c-.95-.54-2.38-.6-3.2-.13l-8.93 5.12c-.82.47-.71 1.28.22 1.84l8.38 4.82c.95.54 2.38.6 3.2.13z"/><use href="#g"/><path d="M363.15 354.17l8.93-5.11c.82-.46.71-1.28-.22-1.84l-8.38-4.82a3.6 3.6 0 0 0-3.2-.13l-8.93 5.12c-.82.46-.71 1.28.23 1.84l8.38 4.82a3.6 3.6 0 0 0 3.2.13zm14.99-8.59l8.93-5.11c.82-.47.71-1.28-.23-1.84l-8.38-4.82c-.95-.54-2.38-.59-3.2-.13l-8.93 5.12c-.82.47-.71 1.28.23 1.84l8.38 4.82a3.6 3.6 0 0 0 3.2.13zm14.2 8.13l8.93-5.11c.82-.47.71-1.28-.23-1.84l-8.38-4.82c-.96-.54-2.38-.59-3.2-.13l-8.93 5.12c-.82.47-.71 1.28.23 1.84l8.38 4.82c.95.54 2.38.59 3.2.13zm-119.26 85.92l8.93-5.11c.82-.46.71-1.28-.22-1.84l-8.38-4.82c-.95-.54-2.38-.59-3.2-.13l-8.93 5.12c-.82.47-.71 1.28.22 1.84l8.38 4.82c.95.54 2.38.59 3.2.13zm-15.14 8.69l8.93-5.12c.82-.46.71-1.28-.22-1.84l-8.38-4.82a3.6 3.6 0 0 0-3.2-.13l-8.93 5.12c-.82.46-.71 1.28.22 1.84l8.38 4.82a3.6 3.6 0 0 0 3.2.13zm-15.14 8.69l8.93-5.12c.82-.47.71-1.28-.22-1.84l-8.38-4.82a3.6 3.6 0 0 0-3.2-.13l-8.93 5.12c-.82.46-.71 1.28.22 1.84l8.38 4.82a3.6 3.6 0 0 0 3.2.13zm62.82-36.04l8.93-5.11c.82-.47.71-1.28-.22-1.84l-8.38-4.82a3.6 3.6 0 0 0-3.2-.13l-8.93 5.11c-.82.47-.71 1.28.22 1.84l8.39 4.82a3.6 3.6 0 0 0 3.2.13zm-16.47 9.43l8.93-5.12c.82-.46.71-1.28-.22-1.84l-8.38-4.82a3.6 3.6 0 0 0-3.2-.13l-8.93 5.12c-.82.46-.71 1.28.23 1.84l8.38 4.82a3.6 3.6 0 0 0 3.2.13z"/><use href="#h"/><path d="M428.81 349.74l9.97-5.73c.52-.3.47-.84-.15-1.19l-2.75-1.58c-.62-.35-1.55-.39-2.08-.09l-9.98 5.73c-.52.3-.47.84.15 1.19l2.75 1.58c.62.35 1.55.39 2.08.09zm14.55-8.34l9.98-5.73c.52-.3.47-.84-.15-1.19l-2.75-1.58c-.62-.35-1.55-.39-2.08-.09l-9.98 5.73c-.52.3-.47.84.15 1.19l2.75 1.58c.62.35 1.55.39 2.08.09zm-29.64 17.01l9.98-5.73c.52-.3.47-.84-.15-1.19l-2.75-1.58c-.62-.35-1.55-.39-2.08-.09l-9.98 5.73c-.52.3-.47.84.15 1.19l2.75 1.58c.62.35 1.55.39 2.08.09zm-17.63 10.65l11.62-6.68c.92-.52.8-1.45-.26-2.06l-7.97-4.57c-1.07-.61-2.68-.67-3.59-.15l-11.62 6.68c-.92.52-.8 1.45.26 2.06l7.97 4.58c1.07.61 2.68.67 3.59.15zm-70.41 40.4l62.02-35.6c1.98-1.13 1.72-3.12-.56-4.43l-3.56-2.05c-2.28-1.3-5.75-1.45-7.71-.32l-62.02 35.6c-1.98 1.13-1.72 3.13.56 4.43l3.56 2.05c2.28 1.3 5.75 1.45 7.71.32zm51.86-47.24l8.93-5.12c.82-.46.71-1.28-.23-1.84l-8.38-4.82c-.95-.54-2.38-.59-3.2-.13l-8.93 5.12c-.82.46-.71 1.28.22 1.84l8.38 4.82c.95.54 2.38.59 3.2.13zm-14.8 8.48l8.93-5.12c.82-.46.71-1.28-.22-1.84l-8.38-4.82a3.6 3.6 0 0 0-3.2-.13l-8.93 5.12c-.82.46-.71 1.28.22 1.84l8.38 4.82a3.6 3.6 0 0 0 3.2.13zm-14.81 8.5l8.93-5.12c.82-.46.71-1.28-.22-1.84l-8.38-4.82a3.6 3.6 0 0 0-3.2-.13l-8.93 5.12c-.82.46-.71 1.28.22 1.84l8.38 4.82a3.6 3.6 0 0 0 3.2.13zm-14.8 8.49l8.93-5.11c.82-.47.71-1.28-.22-1.84l-8.38-4.82a3.6 3.6 0 0 0-3.2-.13l-8.93 5.12c-.82.47-.71 1.28.22 1.84l8.38 4.82a3.6 3.6 0 0 0 3.2.13zm-14.8 8.49l8.93-5.11c.82-.46.71-1.28-.22-1.84l-8.38-4.82c-.95-.54-2.38-.59-3.2-.13l-8.93 5.12c-.82.46-.71 1.28.22 1.84l8.38 4.82c.95.54 2.38.59 3.2.13zm-14.81 8.5l8.93-5.11c.82-.47.71-1.28-.22-1.84l-8.38-4.82a3.6 3.6 0 0 0-3.2-.13l-8.93 5.11c-.82.47-.71 1.28.22 1.84l8.38 4.82a3.6 3.6 0 0 0 3.2.13zm-14.8 8.5l8.93-5.11c.82-.46.71-1.28-.23-1.84l-8.38-4.82c-.95-.54-2.38-.59-3.2-.13l-8.93 5.12c-.82.46-.71 1.28.23 1.84l8.38 4.82c.96.54 2.38.59 3.2.13zm-14.8 8.49l8.93-5.11c.82-.46.71-1.28-.23-1.84l-8.38-4.82a3.6 3.6 0 0 0-3.2-.13l-8.93 5.12c-.82.46-.71 1.28.22 1.84l8.38 4.82a3.6 3.6 0 0 0 3.2.13zm-14.81 8.48l8.93-5.12c.82-.46.71-1.28-.22-1.84l-8.38-4.82a3.6 3.6 0 0 0-3.2-.13l-8.93 5.12c-.82.46-.71 1.28.22 1.84l8.38 4.82a3.6 3.6 0 0 0 3.2.13zm-30.85 17.7l24.14-13.86c1.27-.73 1.12-2.01-.36-2.84l-6.49-3.72a5.6 5.6 0 0 0-4.98-.2l-24.14 13.86c-1.27.73-1.12 2.01.36 2.85l6.49 3.72c1.48.84 3.71.93 4.98.21zm164.87-110.89l8.93-5.12c.82-.46.71-1.28-.22-1.84l-8.38-4.82c-.95-.54-2.38-.59-3.2-.13l-8.93 5.12c-.82.46-.71 1.28.22 1.84l8.38 4.82a3.6 3.6 0 0 0 3.2.13zm14.81-8.5l15.5-8.89c1.05-.59.92-1.64-.3-2.34l-7.45-4.28a4.6 4.6 0 0 0-4.08-.17l-15.5 8.89c-1.05.59-.92 1.64.3 2.34l7.45 4.28a4.6 4.6 0 0 0 4.08.17zm.28 16.13l28.95-16.61c1.31-.74 1.14-2.07-.37-2.92l-6.34-3.65c-1.52-.87-3.8-.97-5.11-.2l-28.95 16.61c-1.31.74-1.14 2.06.37 2.92l6.35 3.65c1.52.88 3.8.97 5.11.2zm-220.11 82.87l21.8 12.5a5.4 5.4 0 0 0 4.77 0l7.11-4.07c1.31-.76 1.33-1.99 0-2.73l-9.94-5.71c-1.33-.76-1.33-2.01 0-2.77l10.57-6.06c1.1-.63 1.09-1.66 0-2.27l-7.9-4.52a4.4 4.4 0 0 0-3.95 0l-22.51 12.91c-1.31.76-1.33 1.99 0 2.75l.04-.02zm168.34-101.81l8.93-5.12c.82-.47.71-1.28-.22-1.84l-8.38-4.82a3.6 3.6 0 0 0-3.2-.13l-8.93 5.11c-.82.47-.71 1.28.22 1.84l8.38 4.82a3.6 3.6 0 0 0 3.2.13zm-15.37 8.81l8.93-5.11c.82-.47.71-1.28-.23-1.84l-8.38-4.82a3.6 3.6 0 0 0-3.2-.13l-8.93 5.12c-.82.46-.71 1.28.22 1.84l8.38 4.82a3.6 3.6 0 0 0 3.2.13zm-15.36 8.83l8.93-5.12c.82-.46.71-1.28-.23-1.84l-8.38-4.82c-.95-.54-2.38-.59-3.2-.13l-8.93 5.12c-.82.46-.71 1.28.23 1.84l8.38 4.82a3.6 3.6 0 0 0 3.2.13zm-15.37 8.81l8.93-5.11c.82-.47.71-1.28-.23-1.84l-8.38-4.82a3.6 3.6 0 0 0-3.2-.13l-8.93 5.11c-.82.47-.71 1.28.23 1.84l8.38 4.82a3.6 3.6 0 0 0 3.2.13z"/><path d="M294.99 360.91l8.93-5.12c.82-.47.71-1.28-.22-1.84l-8.39-4.82a3.6 3.6 0 0 0-3.2-.13l-8.93 5.12c-.82.47-.71 1.28.22 1.84l8.38 4.82a3.6 3.6 0 0 0 3.2.13zm-15.36 8.82l8.93-5.12c.82-.46.71-1.28-.23-1.84l-8.38-4.82c-.95-.54-2.38-.59-3.2-.13l-8.93 5.11c-.82.46-.71 1.28.22 1.84l8.38 4.82c.95.54 2.38.59 3.2.13zm-15.37 8.8l8.93-5.12c.82-.46.71-1.28-.22-1.84l-8.38-4.82a3.6 3.6 0 0 0-3.2-.13l-8.93 5.12c-.82.46-.71 1.28.22 1.84l8.38 4.82a3.6 3.6 0 0 0 3.2.13zm-15.37 8.81l8.93-5.12c.82-.47.71-1.28-.22-1.84l-8.38-4.82c-.96-.54-2.38-.59-3.2-.13l-8.93 5.12c-.82.46-.71 1.28.22 1.84l8.38 4.82c.95.54 2.38.59 3.2.13zm-15.36 8.82l8.93-5.12c.82-.46.71-1.28-.22-1.84l-8.38-4.82a3.6 3.6 0 0 0-3.2-.13l-8.93 5.12c-.82.46-.71 1.28.23 1.84l8.38 4.82c.95.54 2.38.59 3.2.13zm-15.37 8.81l8.93-5.12c.82-.47.71-1.28-.22-1.84l-8.38-4.82c-.95-.54-2.38-.59-3.2-.13l-8.93 5.12c-.82.46-.71 1.28.22 1.84l8.39 4.82c.95.54 2.38.59 3.2.13zm-32.11 18.44l24.82-14.25c1.29-.74 1.12-2.03-.35-2.88l-6.42-3.68c-1.5-.86-3.74-.95-5.03-.2l-24.82 14.25c-1.29.74-1.12 2.03.36 2.88l6.42 3.68c1.5.86 3.74.95 5.03.2z"/></g><path d="M383.31 463.12l81.73-46.89-59.27-34-81.73 46.89 59.27 34zm81.07-46.89l-81.09 46.52-58.63-33.65 81.09-46.52 58.63 33.65z" stroke="#bed3f4" stroke-width=".3" class="P"/><path d="M100.84 414.98l271.31-155.68c3.63-2.08 6.96-6.44 8.46-11.07l.39-1.21 2-208.57c.04-2.75-.86-4.84-2.56-5.84s-3.97-.78-6.38.61L98.95 191.09c-2.41 1.39-4.7 3.77-6.38 6.73-1.7 2.94-2.6 6.08-2.56 8.82l2 206.25.39.76c1.5 2.9 4.83 3.44 8.46 1.36l-.02-.02zm271.24-165.85L100.93 404.72l-1.97-203.38L374.04 43.46l-1.98 205.67h.02z" fill="url(#G)"/><path d="M96.85 208.28l2.08 202.6c.79 1.51 2.49 1.79 4.38.71l271.31-155.68a7.1 7.1 0 0 0 1.61-1.25c1.22-1.17 2.23-2.79 2.79-4.48l2.06-204.96c1.12-4.26-.67-7.38-3.35-5.84L100.22 198.61s-.11.06-.17.11c-2.58 1.64-4.27 6.64-3.2 9.58v-.02z" fill="url(#H)"/><path d="M103.31 416.7l271.31-155.68c3.63-2.08 6.96-6.44 8.46-11.07l.39-1.21 2-208.57c.04-2.75-.86-4.84-2.56-5.84s-3.97-.78-6.38.61L101.42 192.8c-2.41 1.39-4.7 3.78-6.38 6.73-1.7 2.94-2.6 6.08-2.56 8.82l2 206.25.39.76c1.5 2.9 4.83 3.44 8.46 1.36l-.02-.02zm271.22-165.85L103.38 406.43l-1.97-203.38L376.51 45.18l-1.98 205.67z" fill="url(#I)"/><path style="mix-blend-mode:screen" opacity=".54" d="M374.53 250.85l1.98-205.67-275.1 157.87c91.52 61.77 239.63 67.01 273.11 47.8z" fill="url(#J)"/><g class="K"><path d="M130.38 216.87v186.31c0 7.95 5.64 11.16 12.62 7.16l276.26-158.64c6.96-4 12.62-13.68 12.62-21.63V43.74c0-7.95-5.64-11.15-12.62-7.16L143 195.23c-6.96 4-12.62 13.68-12.62 21.63v.02z"/><path d="M429.75 35.89c-2.18-1.24-5.25-1.07-8.69.9L144.8 195.43c-3.44 1.97-6.56 5.36-8.83 9.25s-3.67 8.26-3.67 12.18v186.32c0 3.92 1.39 6.61 3.57 7.85 2.12 1.2 5.05 1.08 8.37-.72l.32-.18 276.26-158.64h0c3.44-1.97 6.56-5.36 8.83-9.25s3.67-8.25 3.67-12.18V43.74c0-3.92-1.39-6.61-3.57-7.85z" stroke="#0668e1" class="B C"/></g><path d="M142.71 257.31c0-2.18 1.53-4.82 3.42-5.9l78.2-44.91v17.88l-81.62 46.87v-13.94z" class="O"/><path d="M171.26 247.23v-3.92l.83-.48v3.92c0 .37-.07.73-.21 1.07a3.3 3.3 0 0 1-.56.92c-.24.28-.51.5-.81.67-.31.18-.58.28-.82.29s-.43-.06-.56-.23-.2-.45-.2-.83l.84-.48c0 .22.03.38.09.48s.15.15.26.14.25-.05.4-.14c.14-.08.27-.19.38-.33s.2-.31.27-.49.1-.39.1-.6zm1.56-1.25v-.09c0-.3.04-.6.11-.9s.18-.59.33-.86.32-.53.53-.75.44-.42.71-.57.5-.23.71-.25.39.03.53.14.25.27.33.48a2.3 2.3 0 0 1 .11.77v.09c0 .3-.04.6-.11.9s-.19.59-.33.86a3.6 3.6 0 0 1-.53.75c-.21.22-.44.41-.7.56s-.5.24-.71.25-.38-.04-.53-.14a1 1 0 0 1-.33-.48 2.3 2.3 0 0 1-.11-.77zm.8-.55v.09c0 .19.02.35.05.5s.09.26.16.35.16.13.27.14.24-.03.4-.12.28-.19.39-.33.2-.29.27-.45a2.5 2.5 0 0 0 .16-.53c.03-.19.05-.37.05-.56v-.09a2.1 2.1 0 0 0-.05-.49c-.03-.15-.09-.26-.16-.35s-.16-.14-.27-.14-.24.03-.39.11-.28.2-.39.34-.2.29-.27.46-.12.35-.16.53-.05.37-.05.55zm3.23-5.64l.8-.46v5.02l-.08.93-.73.42v-5.91zm3.16 1.97v.08a4.5 4.5 0 0 1-.09.9 3.6 3.6 0 0 1-.27.82c-.12.26-.27.49-.44.69s-.37.37-.6.5-.42.19-.59.19-.31-.06-.42-.17-.2-.28-.27-.49-.12-.46-.15-.74v-.26c.03-.32.08-.62.15-.91s.16-.55.27-.8.25-.47.42-.66.36-.35.58-.48c.23-.13.44-.2.61-.2s.33.06.44.18.21.29.26.52.09.49.09.81zm-.8.54v-.08c0-.19-.01-.35-.04-.5s-.07-.27-.13-.36-.14-.14-.25-.15c-.1-.02-.23.02-.38.11-.14.08-.27.18-.37.3s-.19.24-.26.38-.12.28-.16.43a2.8 2.8 0 0 0-.08.46v.7a1.3 1.3 0 0 0 .13.46c.07.12.16.19.28.22s.27-.02.46-.12c.15-.09.28-.19.38-.32s.18-.27.24-.43.11-.33.13-.52a3.6 3.6 0 0 0 .04-.56zm6.13-3.31l.83-.48c-.03.38-.11.76-.27 1.13a3.8 3.8 0 0 1-.64 1.04c-.27.32-.61.59-1 .82-.3.17-.57.27-.81.28s-.45-.05-.62-.18-.3-.34-.39-.61-.13-.61-.13-1.01v-.47a5 5 0 0 1 .14-1.17c.09-.38.23-.73.4-1.06s.38-.63.62-.89a3.5 3.5 0 0 1 .82-.66c.39-.22.71-.33.98-.32s.47.12.62.32.24.48.27.84l-.83.48c-.02-.23-.07-.41-.15-.53s-.18-.2-.33-.2-.33.05-.57.19a1.9 1.9 0 0 0-.5.41c-.14.16-.26.35-.36.57s-.17.45-.22.71-.07.54-.07.83v.47c0 .28.02.53.06.73s.11.36.2.47.21.17.35.18.31-.04.5-.15c.24-.14.43-.29.58-.46s.26-.36.34-.57.13-.45.15-.71zm1.36-.99v-.09c0-.3.04-.6.11-.9s.18-.59.33-.86.32-.53.53-.75.45-.42.71-.57.5-.23.71-.25.38.03.53.14.25.27.33.48a2.3 2.3 0 0 1 .11.77v.09c0 .3-.04.6-.11.9s-.19.59-.33.86-.32.52-.53.75-.44.41-.7.56-.5.23-.71.25-.38-.04-.53-.14a1 1 0 0 1-.33-.48 2.3 2.3 0 0 1-.11-.77zm.8-.55v.09a2.3 2.3 0 0 0 .05.5c.03.15.09.26.16.35s.16.13.27.14.24-.03.4-.12.28-.2.39-.33.2-.29.27-.45.12-.34.16-.53.05-.37.05-.56v-.09c0-.18-.02-.35-.05-.49s-.09-.27-.16-.35-.16-.13-.27-.14-.24.03-.39.11-.28.2-.39.34-.2.29-.27.46a2.5 2.5 0 0 0-.16.53 3.1 3.1 0 0 0-.05.55zm5.43-1.86v-5.05l.81-.46V236l-.73.42-.08-.82zm-2.35.18v-.08c0-.32.03-.62.1-.92s.16-.58.28-.83a3 3 0 0 1 .45-.69 2.3 2.3 0 0 1 .59-.49c.22-.13.41-.19.57-.18s.3.06.42.18.21.28.28.49.12.46.15.75v.26c-.03.31-.08.61-.15.9s-.16.55-.28.8-.26.47-.42.66-.36.35-.58.48-.41.19-.59.18-.32-.07-.44-.19-.22-.29-.28-.51-.1-.48-.1-.79zm.8-.54v.08c0 .19.01.36.04.51s.08.26.14.35.15.14.25.15.23-.03.37-.11c.18-.11.33-.24.45-.4s.21-.34.28-.53.12-.4.14-.61v-.7c-.01-.14-.04-.27-.08-.38s-.09-.19-.16-.25-.15-.09-.26-.08-.22.04-.36.12c-.15.08-.27.19-.37.32s-.19.28-.25.44-.11.34-.14.52-.05.37-.05.56zm4.78-.55c-.27.15-.51.24-.72.27s-.4-.02-.55-.11-.26-.25-.34-.44-.12-.44-.12-.73v-.15c0-.33.04-.65.12-.96s.2-.6.34-.87.32-.52.52-.73.42-.39.65-.52c.26-.15.48-.23.68-.24s.35.04.48.15c.13.1.22.26.29.48s.1.47.1.77v.4l-2.79 1.6v-.66l2-1.15v-.07c0-.16-.03-.3-.09-.42s-.13-.19-.24-.22-.25.01-.43.11c-.13.08-.25.18-.36.31s-.19.27-.26.43-.12.34-.16.54a3.4 3.4 0 0 0-.05.61v.15c0 .18.02.34.06.47s.11.23.19.29.19.1.31.1.26-.05.41-.14c.19-.11.37-.25.52-.43a2.9 2.9 0 0 0 .39-.61l.42.23c-.08.18-.18.36-.3.55s-.28.37-.46.55-.39.33-.62.47z" class="K"/><path d="M224.32 206.5l65.29-37.49v17.88l-65.29 37.49z" class="O"/><path d="M247.07 204.62v.77l-2.44 1.4v-.76l2.44-1.4zm-2.2-3.57v5.6l-.84.48v-5.6l.84-.48zm2.62 2.06v-.09c0-.3.04-.6.11-.9a3.8 3.8 0 0 1 .33-.86c.14-.28.32-.53.53-.75s.44-.42.71-.57.5-.23.71-.24.39.03.53.14.26.27.33.48a2.3 2.3 0 0 1 .11.77v.09c0 .3-.04.6-.11.9s-.19.59-.33.86-.32.52-.53.75-.44.41-.7.56-.5.23-.71.25-.38-.04-.53-.14-.25-.27-.33-.48a2.3 2.3 0 0 1-.11-.77zm.8-.55v.09a2.3 2.3 0 0 0 .05.5c.03.15.09.26.16.35s.16.13.27.14.24-.03.4-.12.28-.2.39-.33.2-.29.27-.45.12-.34.16-.53.05-.37.05-.56v-.09c0-.19-.02-.35-.05-.49s-.09-.27-.16-.35-.16-.13-.27-.14-.24.03-.39.11a1.4 1.4 0 0 0-.39.34c-.11.14-.2.29-.27.46s-.12.35-.16.53a3.1 3.1 0 0 0-.05.55zm4.7-1.24a1.4 1.4 0 0 0 .35-.29c.11-.12.19-.26.26-.4s.1-.29.11-.44l.76-.44c0 .27-.07.56-.21.85a3.5 3.5 0 0 1-.53.83c-.22.25-.46.46-.73.61-.28.16-.52.24-.72.25s-.37-.05-.51-.16-.24-.28-.31-.49-.1-.46-.1-.75v-.13c0-.29.03-.58.1-.87a3.8 3.8 0 0 1 .31-.84c.14-.27.31-.52.51-.74a2.9 2.9 0 0 1 .72-.58c.29-.17.54-.25.76-.24s.39.09.51.25.19.4.2.7l-.76.43c-.01-.15-.04-.27-.1-.36s-.14-.15-.25-.16-.23.02-.38.1c-.16.09-.3.21-.4.35s-.19.29-.25.45-.1.33-.13.51a3.6 3.6 0 0 0-.04.52v.14c0 .17.01.33.04.48s.07.27.13.36.15.14.25.16.24-.03.41-.12zm4.13-2.54v-1.98c0-.15-.02-.26-.07-.34s-.12-.12-.21-.13-.21.03-.35.11c-.13.08-.25.17-.34.27s-.17.22-.22.34-.08.23-.08.34l-.8.46c0-.16.03-.34.1-.54s.17-.39.3-.58.29-.38.47-.55a3.2 3.2 0 0 1 .61-.46c.27-.16.51-.24.72-.26s.38.05.5.19.18.37.18.69v1.85c0 .19.01.35.03.49s.06.25.1.33v.06l-.82.47a1.2 1.2 0 0 1-.09-.33 3.2 3.2 0 0 1-.03-.44zm.12-1.76v.57l-.58.33a2.4 2.4 0 0 0-.39.28 1.7 1.7 0 0 0-.28.3c-.07.1-.13.21-.17.32s-.06.22-.06.33.02.2.07.26.11.1.19.1.19-.03.31-.1c.17-.09.31-.22.43-.36a2.1 2.1 0 0 0 .29-.46 1.1 1.1 0 0 0 .11-.39l.26.26c-.03.12-.07.26-.14.42a3.4 3.4 0 0 1-.25.49c-.1.17-.22.33-.37.48s-.31.28-.49.39c-.24.13-.45.2-.63.2s-.33-.07-.43-.19-.16-.31-.16-.54a2 2 0 0 1 .11-.65c.07-.21.18-.42.32-.62s.31-.38.52-.56.44-.34.7-.5l.63-.36zm3.19-3.46v.68l-2.04 1.17v-.68l2.04-1.17zm-1.45-.19l.8-.46v4.03c0 .13.02.22.05.27s.08.07.14.06.13-.04.2-.08c.06-.03.11-.07.16-.1l.12-.09v.71l-.23.2a2.5 2.5 0 0 1-.3.2c-.18.11-.35.16-.49.17s-.25-.06-.33-.18-.12-.33-.12-.62v-4.09zm2.93-.66v4.16l-.81.46v-4.16l.81-.46zm-.86-.6c0-.14.04-.28.12-.42s.2-.25.34-.34.25-.1.34-.05.12.14.12.28-.04.28-.12.42-.19.25-.34.33-.26.1-.34.06-.12-.14-.12-.28zm1.59 2.31v-.09a3.7 3.7 0 0 1 .11-.9c.08-.3.19-.59.33-.86s.32-.52.53-.75.44-.42.71-.57.5-.23.71-.24.38.03.53.14.25.27.33.48a2.3 2.3 0 0 1 .11.77v.09c0 .3-.04.6-.11.9s-.19.59-.33.86-.32.52-.53.75-.44.41-.7.56-.5.24-.71.25-.38-.04-.53-.14-.25-.27-.33-.48-.11-.47-.11-.77zm.8-.55v.09c0 .19.02.35.05.5s.09.26.16.35.16.13.27.14.24-.03.4-.12.28-.2.39-.33.2-.29.27-.45.12-.34.16-.53.05-.37.05-.56v-.09c0-.19-.02-.35-.05-.49s-.09-.26-.16-.35-.16-.14-.27-.14-.24.03-.39.11-.28.2-.39.34-.2.29-.27.46a2.5 2.5 0 0 0-.16.53 3.1 3.1 0 0 0-.05.55zm4.02-3.46v3.27l-.8.46v-4.16l.76-.44.05.86zm-.14 1.12l-.26.15c0-.3.04-.59.11-.87s.17-.56.29-.8.28-.47.45-.67.37-.36.59-.48c.17-.1.33-.16.47-.19s.26-.01.36.06.18.18.23.35.08.39.08.67v2.69l-.81.46v-2.69c0-.2-.03-.34-.08-.43s-.12-.13-.22-.12-.21.04-.35.12-.26.18-.37.31a2 2 0 0 0-.28.43 2.5 2.5 0 0 0-.17.5c-.04.17-.06.35-.06.52z" class="K"/><path d="M289.62 169.01l65.29-37.49v17.88l-65.29 37.49z" class="O"/><path d="M305.53 171.81l-1.04.59.01-.77 1.03-.59c.3-.17.55-.39.75-.66s.36-.57.46-.91.16-.71.16-1.1v-.3c0-.3-.03-.55-.09-.75s-.14-.35-.26-.44-.25-.13-.42-.12a1.4 1.4 0 0 0-.57.21l-1.09.62v-.77l1.09-.62a2.3 2.3 0 0 1 .88-.32c.27-.03.5.02.69.14s.35.31.45.58.16.6.16 1v.3a4.5 4.5 0 0 1-.16 1.18 4.7 4.7 0 0 1-.45 1.1c-.2.34-.43.66-.7.94a4.1 4.1 0 0 1-.9.7zm-.57-5.27v5.6l-.84.48v-5.6l.84-.48zm5.14 2.73a1.9 1.9 0 0 1-.72.27c-.21.02-.4-.02-.55-.11s-.26-.25-.34-.44-.12-.44-.12-.73v-.15c0-.33.04-.64.12-.96a4 4 0 0 1 .34-.87 3.5 3.5 0 0 1 .52-.73c.2-.21.42-.39.65-.52.26-.15.48-.23.68-.24s.35.04.48.15.23.26.29.48.1.47.1.77v.4l-2.79 1.6v-.67l1.99-1.15v-.07c0-.16-.03-.3-.09-.42s-.13-.19-.24-.22-.25.01-.43.11c-.13.08-.25.18-.36.31a1.7 1.7 0 0 0-.26.43c-.07.16-.12.34-.16.54s-.05.4-.05.61v.15c0 .18.02.34.06.47s.11.23.19.29.19.1.31.1.26-.05.41-.14c.19-.11.37-.26.52-.43a2.9 2.9 0 0 0 .39-.61l.42.23a4.1 4.1 0 0 1-.3.55c-.12.19-.28.37-.46.55a3 3 0 0 1-.62.47zm4.1-3.56c0-.09-.02-.16-.06-.22s-.12-.08-.23-.07-.28.04-.49.11c-.19.06-.37.1-.53.13s-.29.02-.41-.02-.2-.1-.26-.19-.09-.23-.09-.41c0-.17.03-.35.1-.54s.16-.37.28-.56.27-.36.44-.52.37-.31.58-.43c.3-.17.56-.26.78-.27s.38.05.5.19.17.32.17.57l-.8.46c0-.11-.03-.2-.07-.27s-.12-.11-.21-.11-.22.03-.36.11c-.14.08-.25.17-.34.28a1.1 1.1 0 0 0-.2.31c-.04.1-.06.2-.06.3 0 .07.01.13.03.17s.06.07.12.08.13.01.23-.01.22-.05.37-.1c.27-.09.51-.14.71-.15s.35.03.46.14.16.28.16.52c0 .18-.03.37-.1.57a2.4 2.4 0 0 1-.29.56c-.13.19-.28.36-.46.52a3.3 3.3 0 0 1-.6.44c-.33.19-.6.28-.83.28s-.4-.08-.52-.22c-.12-.15-.17-.33-.17-.56l.78-.45c.01.17.05.28.12.34s.17.08.28.06.23-.07.35-.14c.14-.08.26-.17.36-.27s.17-.21.22-.31.08-.21.08-.31zm2.35-4.38v4.16l-.81.46v-4.16l.81-.46zm-.86-.6c0-.14.04-.28.12-.42.08-.14.2-.26.34-.34s.25-.1.34-.05.12.14.12.28-.04.28-.12.42a.9.9 0 0 1-.34.33c-.14.08-.26.1-.34.06s-.12-.14-.12-.28zm4.05-1.23l.73-.42v4.05c0 .37-.07.73-.21 1.07a3.2 3.2 0 0 1-.58.93 3.4 3.4 0 0 1-.86.7 2.2 2.2 0 0 1-.46.19c-.17.05-.33.07-.49.06s-.29-.07-.39-.17l.38-.76c.13.1.27.15.43.14s.32-.06.49-.16c.18-.11.34-.23.47-.39s.23-.32.3-.52.11-.4.11-.61v-3.12l.07-.98zm-2.45 3.53v-.08c0-.32.03-.62.1-.92a3.9 3.9 0 0 1 .29-.84 3 3 0 0 1 .45-.7c.18-.2.38-.37.6-.5.23-.13.43-.2.6-.2s.31.06.42.18.2.28.26.5.11.46.14.75v.26a6.3 6.3 0 0 1-.15.9 4.3 4.3 0 0 1-.27.8c-.11.24-.25.46-.42.66s-.36.35-.58.48-.42.19-.6.19-.33-.06-.45-.18-.22-.29-.29-.5-.1-.48-.1-.78zm.8-.54v.08c0 .19.02.36.05.5s.08.26.15.35.16.13.26.14.23-.03.38-.11a1.5 1.5 0 0 0 .46-.41c.12-.16.22-.34.28-.53a3.2 3.2 0 0 0 .14-.61v-.7c-.01-.14-.04-.27-.08-.38s-.09-.19-.16-.25-.16-.09-.26-.08-.23.05-.37.13-.27.19-.38.32-.19.28-.26.45-.12.34-.15.53a3.2 3.2 0 0 0-.05.56zm4.01-3.46v3.27l-.8.46v-4.16l.76-.43.05.86zm-.14 1.12l-.26.15a3.8 3.8 0 0 1 .4-1.68c.13-.25.28-.47.45-.67s.37-.36.59-.48c.17-.1.33-.16.47-.19s.26-.01.36.06.18.18.23.35.08.39.08.67v2.69l-.81.46v-2.69c0-.2-.03-.34-.08-.43s-.12-.13-.22-.13-.21.04-.35.13-.26.18-.37.31a2 2 0 0 0-.28.43c-.07.16-.13.32-.17.5a2.3 2.3 0 0 0-.06.52zm5.18-1.58v-1.99c0-.15-.02-.26-.07-.34s-.12-.12-.21-.13-.21.03-.35.11c-.13.08-.25.17-.34.27s-.17.22-.22.34-.08.23-.08.34l-.8.46a1.6 1.6 0 0 1 .1-.54c.07-.19.17-.39.3-.58s.29-.38.47-.55.39-.33.61-.46c.27-.16.51-.24.72-.26s.38.05.5.19.18.37.18.69v1.85a3.2 3.2 0 0 0 .03.49c.03.13.06.24.1.33v.06l-.82.47a1.2 1.2 0 0 1-.09-.33c-.02-.14-.03-.29-.03-.44zm.12-1.76v.57l-.58.33c-.15.09-.28.18-.39.28a1.7 1.7 0 0 0-.28.3c-.07.1-.13.21-.17.32s-.06.22-.06.33.02.2.07.26.11.1.19.1.19-.03.31-.1c.16-.09.31-.22.43-.36a2.1 2.1 0 0 0 .29-.46 1.1 1.1 0 0 0 .11-.39l.26.26c-.03.12-.07.26-.14.42a3.4 3.4 0 0 1-.25.49c-.1.17-.23.33-.37.48s-.31.28-.49.39c-.24.14-.45.2-.63.2s-.33-.07-.43-.19-.16-.31-.16-.55a2 2 0 0 1 .11-.65 2.4 2.4 0 0 1 .32-.62 3.3 3.3 0 0 1 .52-.56 4.3 4.3 0 0 1 .7-.49l.63-.36zm3.19-3.46v.68l-2.03 1.17v-.68l2.03-1.17zm-1.45-.19l.8-.46v4.03c0 .13.02.22.05.27s.08.07.14.06.13-.04.2-.08l.16-.1.12-.09v.71l-.23.2a2.4 2.4 0 0 1-.3.2c-.18.11-.35.16-.49.17s-.25-.06-.33-.18-.12-.33-.12-.62v-4.09zm2.93-.66v4.16l-.81.46v-4.16l.81-.46zm-.86-.6c0-.14.04-.28.12-.42s.2-.25.34-.34.25-.1.34-.05.12.14.12.28-.04.28-.12.42a.9.9 0 0 1-.34.33c-.14.08-.26.1-.34.06s-.12-.14-.12-.28zm1.59 2.31v-.09a3.7 3.7 0 0 1 .11-.9 3.9 3.9 0 0 1 .33-.86c.14-.28.32-.53.53-.75s.44-.42.71-.57.5-.23.71-.24.39.03.53.14.25.27.33.48a2.3 2.3 0 0 1 .11.77v.09c0 .3-.04.6-.11.9s-.19.59-.33.86a3.6 3.6 0 0 1-.53.75c-.21.22-.44.41-.7.56s-.5.24-.71.25-.38-.04-.53-.14-.26-.27-.33-.48-.11-.47-.11-.77zm.8-.55v.09c0 .19.02.35.05.5a.8.8 0 0 0 .16.35c.07.08.16.13.27.14s.24-.03.4-.12.28-.2.39-.33.2-.29.27-.45.12-.34.16-.53.05-.37.05-.56v-.09c0-.19-.02-.35-.05-.49-.03-.15-.09-.27-.16-.35s-.16-.14-.27-.14-.24.03-.39.11-.28.2-.39.34-.2.29-.27.46-.12.35-.16.53a3 3 0 0 0-.05.55zm4.02-3.46v3.27l-.8.46v-4.16l.76-.44.05.86zm-.14 1.12l-.26.15c0-.3.04-.59.11-.87a3.9 3.9 0 0 1 .29-.8c.13-.25.28-.47.45-.67s.37-.36.59-.48c.17-.1.33-.16.47-.19s.26-.01.36.06.18.18.23.35.08.39.08.67v2.69l-.81.46v-2.69c0-.2-.03-.34-.08-.43s-.12-.13-.22-.13-.21.04-.35.12-.26.18-.37.31a2 2 0 0 0-.28.43 2.5 2.5 0 0 0-.17.5 2.3 2.3 0 0 0-.06.52z" class="K"/><path d="M354.91 131.52l61.88-35.53c1.89-1.08 3.42-.2 3.42 1.98v13.94l-65.3 37.5v-17.88z" class="O"/><path d="M375.82 125.85l.75-.43 1.41 3.51 1.4-5.12.75-.43-1.86 6.67-.59.34-1.85-4.54zm-.34.2l.71-.41.12 3.67v1.86l-.83.48v-5.6zm4.27-2.45l.71-.41v5.6l-.84.48v-1.86l.12-3.81zm3.66 2.66v-1.98c0-.15-.02-.26-.07-.34s-.12-.12-.21-.13-.21.03-.35.11c-.13.08-.24.17-.34.27s-.17.22-.22.34-.08.23-.08.34l-.8.46a1.6 1.6 0 0 1 .1-.54c.07-.19.17-.39.3-.58s.29-.38.47-.55a3.2 3.2 0 0 1 .61-.46c.27-.16.51-.24.72-.26s.38.05.5.19.18.37.18.69v1.85c0 .19.01.35.03.49s.06.25.1.33v.06l-.82.47a1.2 1.2 0 0 1-.09-.33 3.2 3.2 0 0 1-.03-.44zm.12-1.76v.57l-.58.33c-.15.08-.28.18-.39.28s-.21.2-.28.3-.13.21-.17.32-.06.22-.06.33.02.2.07.27.11.1.19.1.19-.03.31-.1c.16-.09.31-.21.43-.36s.22-.3.29-.46.11-.29.11-.39l.26.26c-.03.12-.07.26-.14.42a3.5 3.5 0 0 1-.25.49c-.1.17-.23.33-.37.48s-.31.28-.49.39c-.24.14-.45.2-.63.2s-.33-.07-.43-.19-.16-.31-.16-.55c0-.22.04-.44.11-.65s.18-.42.32-.61a3.3 3.3 0 0 1 .52-.56 4.4 4.4 0 0 1 .7-.49l.63-.36zm2.33-2.08v3.27l-.8.46v-4.16l.76-.43.05.86zm-.14 1.12l-.26.15c0-.3.04-.59.11-.87a3.9 3.9 0 0 1 .29-.8c.13-.25.28-.47.45-.67s.37-.36.59-.48c.17-.1.33-.16.47-.19s.26-.01.36.06.18.18.23.35.08.39.08.67v2.69l-.81.46v-2.69c0-.2-.03-.34-.08-.43s-.12-.13-.22-.13-.21.04-.35.12-.26.18-.37.31a2 2 0 0 0-.28.43 2.5 2.5 0 0 0-.17.5 2.3 2.3 0 0 0-.06.52zm5.18-1.58v-1.98c0-.15-.02-.26-.07-.34s-.12-.12-.21-.13-.21.03-.35.11c-.13.08-.24.17-.34.27s-.17.22-.22.34-.08.23-.08.34l-.8.46a1.6 1.6 0 0 1 .1-.54c.07-.19.17-.39.3-.58s.29-.38.47-.55.39-.33.61-.46c.27-.16.51-.24.72-.26s.38.05.5.19.18.37.18.69v1.85c0 .19.01.35.03.49s.06.25.1.33v.06l-.82.47a1.2 1.2 0 0 1-.09-.33 3.2 3.2 0 0 1-.03-.44zm.12-1.76l.01.57-.58.33a2.4 2.4 0 0 0-.39.28c-.11.1-.21.2-.28.3s-.13.21-.17.32-.06.22-.06.33.02.2.07.27.11.1.19.1.19-.03.31-.1c.16-.09.31-.21.43-.36s.22-.3.29-.46.11-.29.11-.39l.26.26c-.03.12-.07.26-.14.42a3.5 3.5 0 0 1-.25.49 2.9 2.9 0 0 1-.37.48c-.14.15-.31.28-.49.39-.24.14-.45.2-.63.2s-.33-.07-.43-.19-.16-.31-.16-.55c0-.22.03-.44.11-.64s.18-.42.32-.62.32-.38.52-.56.44-.34.7-.5l.63-.36zm3.84-3.84l.73-.42v4.05c0 .37-.07.73-.21 1.07a3.2 3.2 0 0 1-.58.93 3.4 3.4 0 0 1-.86.7c-.14.08-.29.14-.46.19s-.33.07-.49.06-.29-.07-.39-.17l.38-.76c.13.1.27.15.43.14s.32-.06.49-.16c.19-.11.34-.23.47-.39s.23-.32.3-.52.11-.4.11-.62v-3.12l.07-.98zm-2.45 3.53v-.08c0-.32.03-.62.1-.92s.16-.58.29-.84.28-.49.45-.7.38-.37.6-.5c.23-.13.43-.2.6-.2s.31.06.42.18.2.28.26.5.11.46.14.75v.26a6.3 6.3 0 0 1-.15.9c-.07.29-.16.55-.27.8s-.25.46-.42.66-.36.35-.58.48c-.22.13-.42.19-.6.19s-.33-.06-.45-.18-.22-.29-.29-.5a2.7 2.7 0 0 1-.1-.78zm.8-.54v.08c0 .19.01.36.05.5s.08.26.15.35.16.13.26.14.23-.03.38-.11c.19-.11.34-.24.46-.41s.22-.34.28-.53.11-.4.14-.61v-.7c-.01-.14-.04-.27-.08-.37s-.09-.19-.16-.25-.15-.09-.26-.08-.23.05-.37.13-.27.19-.38.32-.19.28-.26.45-.12.34-.15.53-.05.37-.05.56zm4.8-.56c-.27.15-.51.24-.72.27s-.4-.02-.55-.11-.26-.25-.34-.44-.12-.44-.12-.73v-.15a3.7 3.7 0 0 1 .12-.95 3.9 3.9 0 0 1 .34-.87 3.5 3.5 0 0 1 .52-.73 2.8 2.8 0 0 1 .65-.52c.26-.15.48-.23.68-.24s.35.04.48.15.22.26.29.48.1.47.1.77v.4l-2.79 1.6v-.67l2-1.15v-.07c0-.16-.03-.3-.09-.42s-.13-.19-.24-.22-.25.01-.43.11a1.3 1.3 0 0 0-.36.3 1.7 1.7 0 0 0-.26.43c-.07.16-.12.34-.16.54s-.05.4-.05.61v.15c0 .18.02.34.06.47s.11.23.19.29.19.1.31.1.26-.05.41-.14c.19-.11.37-.25.52-.43s.28-.38.39-.61l.42.23a4 4 0 0 1-.3.55c-.12.19-.28.37-.46.55s-.38.33-.62.47z" class="K"/><use href="#i" class="E F"/><g class="L"><circle cx="4.99" cy="4.99" transform="matrix(.8672 -.498 0 1 148.398 269.559)" r="4.99"/><rect width="29.91" height="2.99" rx="1.5" transform="matrix(.8672 -.498 0 1 158.775 265.102)"/><rect width="15.95" height="1.99" rx="1" transform="matrix(.8672 -.498 0 1 158.775 270.082)"/></g><use href="#j" class="E F"/><use href="#k" class="D"/><path d="M289.62 186.89l65.29-37.49v13.13l-65.29 37.49z" class="E F"/><use href="#l" class="D"/><path d="M354.91 149.4l65.29-37.49v13.13l-65.29 37.49z" class="E F"/><g clip-path="url(#L)"><use href="#m" class="C G H"/><use href="#n" class="I"/><use href="#o" class="C G H M"/></g><g class="I N"><use href="#p"/><use href="#q"/></g><path d="M142.71 284.38l81.62-46.87v13.13l-81.62 46.87z" class="B J"/><g class="L"><circle cx="4.99" cy="4.99" transform="matrix(.8672 -.498 0 1 148.398 282.684)" r="4.99"/><rect width="29.91" height="2.99" rx="1.5" transform="matrix(.8672 -.498 0 1 158.775 278.227)"/><rect width="15.95" height="1.99" rx="1" transform="matrix(.8672 -.498 0 1 158.775 283.207)"/></g><path d="M224.32 237.51l65.29-37.49v13.13l-65.29 37.49z" class="B J"/><path d="M249.5 227.35l.37-.19.28-.11.27-.08-.04.4-.27.12-.26.13-.34.17c-.22.12-.39.26-.52.42s-.22.38-.27.64a5.1 5.1 0 0 0-.08.98c0 .4.03.69.08.9s.15.31.27.34.3-.01.52-.13l.52-.29.42-.27.04.35a4.5 4.5 0 0 1-.44.33 6 6 0 0 1-.55.33c-.32.17-.58.25-.78.22s-.33-.17-.42-.41-.13-.62-.13-1.12.04-.91.13-1.25.23-.63.42-.86.46-.44.78-.61zm3-.45c.43-.23.65-.09.65.41v2.06l-.42.22v-1.93c0-.18-.03-.3-.08-.34s-.14-.03-.26.03c-.15.08-.29.2-.44.35l-.52.63-.02-.33c.19-.26.37-.49.55-.68s.36-.34.54-.43zm-1.03-.58v1.09l-.02.36a2.6 2.6 0 0 1-.03.31l.04.06v2.14l-.42.22v-3.95l.42-.22zm3.41-.68c.36-.19.62-.25.78-.19s.24.24.24.54a1.4 1.4 0 0 1-.13.65c-.09.18-.24.33-.44.44l-1.39.74v-.37l1.28-.69c.11-.06.18-.14.21-.24s.05-.21.05-.31c0-.18-.05-.28-.14-.31s-.24.01-.45.13c-.17.09-.31.2-.41.31-.1.11-.17.25-.21.42-.04.16-.06.38-.06.64 0 .29.02.5.07.63s.13.19.25.19.26-.05.44-.15l.42-.24.41-.27.04.3a2.6 2.6 0 0 1-.28.23l-.34.23-.31.18c-.27.15-.5.22-.66.21s-.29-.1-.37-.27c-.08-.17-.11-.44-.11-.79 0-.36.04-.67.11-.91s.2-.47.36-.64.37-.33.63-.47zm3.1-1.65c.43-.23.65-.09.65.41v2.06l-.42.22v-1.93c0-.18-.03-.3-.08-.34s-.14-.03-.26.03c-.15.08-.29.2-.44.36l-.52.62-.02-.33a5.5 5.5 0 0 1 .55-.68 2.2 2.2 0 0 1 .54-.43zm-1.1.65l.03.51.03.07v2.14l-.42.22v-2.75l.35-.19zm3.94-2.17c.43-.23.65-.09.65.41v2.06l-.42.22v-1.93c0-.19-.03-.3-.08-.34s-.14-.03-.26.03c-.15.08-.29.2-.44.36l-.52.62-.02-.33a5.5 5.5 0 0 1 .55-.68c.18-.19.36-.34.54-.43zm-1.1.65l.03.51.03.07v2.14l-.42.22v-2.75l.35-.19zm3.62-2c.18-.09.32-.14.44-.15s.22.03.28.12.09.25.09.48v1.94l-.33.18-.06-.56-.03-.05v-1.28c0-.17-.03-.27-.1-.31s-.19-.01-.38.09l-.47.27-.55.35-.04-.34.36-.26.41-.26.38-.22zm.62.79v.36l-1.14.62c-.11.06-.19.14-.24.23s-.07.19-.07.31v.17c0 .14.03.23.09.27s.15.01.28-.06c.09-.05.19-.12.31-.22.12-.1.24-.23.35-.37a3.2 3.2 0 0 0 .32-.49v.36a3.3 3.3 0 0 1-.16.27 4 4 0 0 1-.24.33c-.09.11-.19.22-.31.33-.11.1-.23.19-.36.26-.14.07-.26.11-.37.11s-.19-.04-.25-.12-.09-.21-.09-.38v-.3c0-.21.06-.41.17-.59a1.3 1.3 0 0 1 .49-.44l1.22-.65zm1.37-1.79v2.75l-.41.22v-2.75l.41-.22zm-.11-1.11c.08-.05.13-.02.13.08v.32c0 .1-.04.17-.13.22l-.2.1c-.08.05-.13.02-.13-.08v-.32c0-.1.04-.17.13-.22l.2-.1z" class="D"/><path d="M289.62 200.01l65.29-37.49v13.13l-65.29 37.49z" class="B J"/><path d="M319.66 187.33v3.9l-.43.23v-3.9l.43-.23zm1.61.74v.43l-1.65.88v-.43l1.65-.88zm.38-1.8v3.9l-.43.23v-3.9l.43-.23zm2.02-1.13c.26-.14.47-.22.63-.24s.28.03.35.15.11.33.11.62c0 .21-.02.4-.06.56s-.11.31-.2.44c-.09.12-.21.24-.36.34v.03c.06-.02.11-.01.16.01.06.01.11.05.15.1s.08.13.1.22l.33 1.06-.46.24-.3-1.06c-.04-.12-.1-.2-.17-.22s-.16-.01-.28.05l-.52.28-.37.19-.23.12.01-.42 1.09-.58c.17-.09.3-.18.39-.28s.17-.21.21-.33.06-.29.06-.49-.02-.33-.06-.41-.11-.12-.21-.11-.22.06-.39.15l-.69.38-.39.21-.07-.35.35-.22.35-.2.46-.25zm-.74.45v3.9l-.43.23v-3.9l.43-.23z" class="D"/><path d="M354.91 162.52l65.29-37.49v13.13l-65.29 37.49z" class="B J"/><g clip-path="url(#M)"><path d="M376.39 157.01l-.34 1.76 1.36-1.17 3.94-6.81c.13-.22.2-.46.2-.67s-.07-.37-.2-.44l-.06-.03c-.13-.07-.3-.06-.48.05s-.35.28-.48.5l-3.94 6.81z" class="C G H"/><path d="M376.39 157.02l-.34 1.76 1.36-1.17 3.4-5.87-1.02-.59-3.4 5.87z" class="I"/><path d="M379.79 151.15l1.02.59m-1.7 5.29l2.72-1.56" class="C G H M"/></g><g class="I N"><path d="M399.41 142.97l-1.07.61v2.22a1.5 1.5 0 0 1-.68 1.18l-2.85 1.64v.72c0 .43.31.61.68.39l2.15-1.24 1.56.34v-1.23l.21-.12a1.5 1.5 0 0 0 .68-1.18v-2.94c0-.44-.31-.61-.68-.4zm-2.19-.75l-3.92 2.25c-.38.22-.68.75-.68 1.18v2.94c0 .43.31.61.68.39l.21-.12v1.23l1.56-2.13 2.15-1.24c.38-.22.68-.75.68-1.18v-2.94c0-.44-.31-.61-.68-.4zm-2.31 3.17v.42l-.94.54v.53c0 .06.01.11.04.12s.07.01.13-.02l.9-.51.02.42-.35.22-.38.23-.38.22c-.15.09-.27.1-.36.06s-.14-.15-.14-.31v-1.63c0-.17.05-.32.14-.47s.21-.27.36-.35l.38-.22.38-.21.35-.17-.02.45-.9.51c-.06.03-.1.07-.13.12s-.04.11-.04.17v.42l.94-.54h0zm1.82.58a5.3 5.3 0 0 1-.42.27c-.24.14-.43.2-.58.2s-.25-.09-.31-.26-.1-.42-.1-.76.03-.63.1-.87a1.6 1.6 0 0 1 .31-.62c.15-.17.34-.33.58-.47l.28-.15.22-.09a2.1 2.1 0 0 1 .2-.07l-.04.46-.2.11-.2.11-.25.14c-.12.07-.2.14-.27.23s-.11.21-.14.35a3.1 3.1 0 0 0-.04.56c0 .23.01.4.04.51s.07.18.14.19.15-.01.27-.08l.39-.23.31-.21.05.41a3.6 3.6 0 0 1-.33.27z"/></g><path d="M142.71 297.5l81.62-46.87v13.13l-81.62 46.87z" class="E F"/><g class="L"><circle cx="4.99" cy="4.99" transform="matrix(.8672 -.498 0 1 148.398 295.812)" r="4.99"/><rect width="29.91" height="2.99" rx="1.5" transform="matrix(.8672 -.498 0 1 158.775 291.355)"/><rect width="15.95" height="1.99" rx="1" transform="matrix(.8672 -.498 0 1 158.775 296.336)"/></g><path d="M224.32 250.64l65.29-37.49v13.13l-65.29 37.49z" class="E F"/><path d="M249.5 240.48l.37-.19.28-.11.27-.08-.04.4-.27.12-.26.12-.34.17c-.22.12-.39.26-.52.42s-.22.38-.27.64a5.1 5.1 0 0 0-.08.98c0 .4.03.69.08.9s.15.31.27.34.3-.01.52-.13l.52-.29.42-.28.04.35a4.3 4.3 0 0 1-.44.33 6 6 0 0 1-.55.33c-.32.17-.58.25-.78.22s-.33-.17-.42-.41-.13-.62-.13-1.12.04-.92.13-1.25.23-.63.42-.86.46-.44.78-.61zm3-.45c.43-.23.65-.09.65.41v2.06l-.42.22v-1.93c0-.19-.03-.3-.08-.34s-.14-.03-.26.03c-.15.08-.29.2-.44.35l-.52.62-.02-.33a6.3 6.3 0 0 1 .55-.68 2.2 2.2 0 0 1 .54-.43zm-1.03-.58v1.09l-.02.36a2.6 2.6 0 0 1-.03.31l.04.06v2.14l-.42.22v-3.95l.42-.22zm3.41-.68c.36-.19.62-.25.78-.19s.24.24.24.54a1.4 1.4 0 0 1-.13.65c-.09.18-.24.33-.44.44l-1.39.74v-.37l1.28-.69c.11-.06.18-.14.21-.24s.05-.21.05-.31c0-.18-.05-.28-.14-.31s-.24.01-.45.13c-.17.09-.31.2-.41.31s-.17.25-.21.42c-.04.16-.06.38-.06.63 0 .29.02.5.07.63s.13.19.25.19.26-.05.44-.15l.42-.24.41-.27.04.3a2.6 2.6 0 0 1-.28.23l-.34.23-.31.18c-.27.15-.5.22-.66.21s-.29-.1-.37-.27a2.1 2.1 0 0 1-.11-.79c0-.36.04-.67.11-.91.08-.25.2-.47.36-.64.16-.18.37-.33.63-.47zm3.1-1.65c.43-.23.65-.09.65.41v2.06l-.42.22v-1.93c0-.18-.03-.3-.08-.34s-.14-.03-.26.03a1.7 1.7 0 0 0-.44.36l-.52.62-.02-.33a5.5 5.5 0 0 1 .55-.68 2.2 2.2 0 0 1 .54-.43zm-1.1.65l.03.51.03.07v2.14l-.42.22v-2.75l.35-.19zm3.94-2.17c.43-.23.65-.09.65.41v2.06l-.42.22v-1.93c0-.19-.03-.3-.08-.34s-.14-.03-.26.03c-.15.08-.29.2-.44.36l-.52.62-.02-.33a5.5 5.5 0 0 1 .55-.68c.18-.19.36-.34.54-.43zm-1.1.65l.03.51.03.07v2.14l-.42.22v-2.75l.35-.19zm3.62-2c.18-.09.32-.15.44-.15s.22.03.28.12.09.25.09.48v1.94l-.33.17-.06-.56-.03-.05v-1.28c0-.17-.03-.27-.1-.31-.06-.04-.19-.01-.38.09l-.47.27-.55.35-.04-.33.36-.26.41-.26.38-.22zm.62.79v.36l-1.14.62c-.11.06-.19.14-.24.24s-.07.19-.07.31v.18c0 .14.03.23.09.27s.15.01.28-.06a1.7 1.7 0 0 0 .31-.22c.12-.1.24-.23.35-.37s.23-.31.32-.49v.36a3.3 3.3 0 0 1-.16.27 4 4 0 0 1-.24.33c-.09.11-.19.22-.31.33-.11.1-.23.19-.36.25-.14.07-.26.11-.37.11s-.19-.04-.25-.12c-.06-.09-.09-.21-.09-.38v-.3c0-.21.06-.41.17-.59s.28-.33.49-.44l1.22-.65zm1.37-1.79V236l-.41.22v-2.75l.41-.22zm-.11-1.11c.08-.05.13-.02.13.08v.32c0 .1-.04.17-.13.22l-.2.11c-.08.04-.13.02-.13-.08v-.32c0-.1.04-.17.13-.22l.2-.1z" class="D"/><path d="M289.62 213.14l65.29-37.49v13.13l-65.29 37.49z" class="E F"/><path d="M319.66 200.46v3.9l-.43.23v-3.9l.43-.23zm1.61.74v.43l-1.65.88v-.43l1.65-.88zm.38-1.8v3.9l-.43.23v-3.9l.43-.23zm2.02-1.13c.26-.14.47-.22.63-.23s.28.03.35.15.11.33.11.62c0 .21-.02.4-.06.57s-.11.31-.2.43c-.09.12-.21.24-.36.34v.03c.06-.02.11-.01.16.01s.11.05.15.11.08.13.1.22l.33 1.06-.46.25-.3-1.06c-.04-.12-.1-.2-.17-.22s-.16-.01-.28.05l-.52.28-.37.18-.23.12.01-.42 1.09-.58c.17-.09.3-.19.39-.28s.17-.21.21-.33.06-.29.06-.49-.02-.33-.06-.41-.11-.12-.21-.11-.22.06-.39.15l-.69.38-.39.21-.07-.35.35-.22.35-.2.46-.25zm-.74.45v3.9l-.43.23v-3.9l.43-.23z" class="D"/><path d="M354.91 175.65l65.29-37.49v13.13l-65.29 37.49z" class="E F"/><g clip-path="url(#N)"><use href="#r" class="C G H"/><path d="M376.39 170.15l-.34 1.76 1.36-1.17 3.4-5.87-1.02-.59-3.4 5.87z" class="I"/><path d="M379.79 164.27l1.02.59m-1.7 5.29l2.72-1.56" class="C G H M"/></g><g class="I N"><use href="#s"/><path d="M397.22 155.35l-3.92 2.25c-.38.22-.68.75-.68 1.18v2.94c0 .44.31.61.68.4l.21-.12v1.23l1.56-2.12 2.15-1.24c.38-.22.68-.75.68-1.18v-2.94c0-.44-.31-.61-.68-.39zm-2.31 3.17v.42l-.94.54v.53c0 .06.01.11.04.12s.07.01.13-.02l.9-.51.02.42-.35.22-.38.23-.38.22c-.15.09-.27.11-.36.06s-.14-.15-.14-.31v-1.63c0-.16.05-.32.14-.47a1 1 0 0 1 .36-.36l.38-.22.38-.21.35-.17-.02.45-.9.51c-.06.03-.1.07-.13.12s-.04.11-.04.17v.42l.94-.54h0zm1.82.58c-.11.08-.25.17-.42.27-.24.14-.43.2-.58.2s-.25-.09-.31-.26-.1-.42-.1-.76.03-.63.1-.87a1.6 1.6 0 0 1 .31-.62c.15-.17.34-.33.58-.47l.28-.15c.08-.04.15-.07.22-.09a2.1 2.1 0 0 1 .2-.07l-.04.46-.2.1-.2.11-.25.14c-.12.07-.2.14-.27.23s-.11.21-.14.35a3.1 3.1 0 0 0-.04.56c0 .23.01.4.04.51s.07.18.14.19.15-.01.27-.08l.39-.23.31-.21.05.41a3.6 3.6 0 0 1-.33.27z"/></g><path d="M142.71 310.63l81.62-46.87v13.13l-81.62 46.87z" class="B J"/><g class="L"><circle cx="4.99" cy="4.99" transform="matrix(.8672 -.498 0 1 148.398 308.941)" r="4.99"/><rect width="29.91" height="2.99" rx="1.5" transform="matrix(.8672 -.498 0 1 158.775 304.484)"/><rect width="15.95" height="1.99" rx="1" transform="matrix(.8672 -.498 0 1 158.775 309.465)"/></g><path d="M224.32 263.77l65.29-37.49v13.13l-65.29 37.49z" class="B J"/><path d="M249.5 253.61l.37-.19.28-.11.27-.08-.04.4-.27.12-.26.12-.34.18c-.22.12-.39.26-.52.42s-.22.38-.27.64a5.1 5.1 0 0 0-.08.98c0 .39.03.69.08.89s.15.31.27.35.3-.01.52-.13l.52-.29.42-.28.04.35c-.14.12-.29.23-.44.33a6 6 0 0 1-.55.33c-.32.17-.58.25-.78.22s-.33-.17-.42-.41-.13-.62-.13-1.12.04-.91.13-1.25.23-.63.42-.86c.2-.24.46-.44.78-.61zm3-.45c.43-.23.65-.09.65.41v2.06l-.42.22v-1.93c0-.19-.03-.3-.08-.34-.05-.05-.14-.03-.26.03-.15.08-.29.2-.44.35l-.52.62-.02-.33a6.3 6.3 0 0 1 .55-.68 2.2 2.2 0 0 1 .54-.43zm-1.03-.58v1.09l-.02.36a2.6 2.6 0 0 1-.03.31l.04.06v2.14l-.42.22v-3.95l.42-.22zm3.41-.68c.36-.19.62-.25.78-.19s.24.24.24.54a1.4 1.4 0 0 1-.13.65c-.09.19-.24.33-.44.44l-1.39.74v-.37l1.28-.69c.11-.06.18-.14.21-.24s.05-.21.05-.31c0-.17-.05-.28-.14-.3s-.24.01-.45.13c-.17.09-.31.2-.41.31s-.17.25-.21.42c-.04.16-.06.38-.06.63 0 .29.02.5.07.63s.13.19.25.19.26-.05.44-.15l.42-.24.41-.27.04.3a2.6 2.6 0 0 1-.28.23l-.34.23-.31.18c-.27.15-.5.22-.66.21s-.29-.1-.37-.27a2.1 2.1 0 0 1-.11-.79c0-.36.04-.67.11-.91.08-.25.2-.47.36-.64s.37-.33.63-.47zm3.1-1.65c.43-.23.65-.09.65.41v2.06l-.42.22V251c0-.18-.03-.3-.08-.34-.05-.04-.14-.03-.26.03a1.7 1.7 0 0 0-.44.36l-.52.62-.02-.33a5.5 5.5 0 0 1 .55-.68 2.2 2.2 0 0 1 .54-.43zm-1.1.65l.03.51.03.07v2.14l-.42.22v-2.75l.35-.19zm3.94-2.17c.43-.23.65-.09.65.41v2.06l-.42.22v-1.92c0-.19-.03-.3-.08-.34s-.14-.03-.26.03c-.15.08-.29.2-.44.36l-.52.62-.02-.33c.19-.26.37-.49.55-.68s.36-.34.54-.43zm-1.1.65l.03.51.03.07v2.14l-.42.22v-2.75l.35-.19zm3.62-2c.18-.09.32-.15.44-.15.12-.01.22.03.28.12s.09.25.09.48v1.94l-.33.17-.06-.56-.03-.05v-1.28c0-.17-.03-.27-.1-.31s-.19-.01-.38.09l-.47.27-.55.35-.04-.33.36-.26.41-.26.38-.22zm.62.79v.36l-1.14.61c-.11.06-.19.14-.24.24s-.07.19-.07.31v.18c0 .14.03.23.09.27s.15.01.28-.06a1.7 1.7 0 0 0 .31-.22c.12-.1.24-.23.35-.37s.23-.31.32-.49v.36a3.3 3.3 0 0 1-.16.27 4.2 4.2 0 0 1-.24.33c-.09.11-.19.22-.31.33-.11.1-.23.19-.36.25-.14.08-.26.11-.37.11s-.19-.04-.25-.12-.09-.21-.09-.38v-.3c0-.21.06-.41.17-.59s.28-.33.49-.44l1.22-.65zm1.37-1.79v2.75l-.41.22v-2.75l.41-.22zm-.11-1.11c.08-.04.13-.02.13.08v.32c0 .1-.04.17-.13.21l-.2.1c-.08.05-.13.02-.13-.08v-.32c0-.1.04-.17.13-.22l.2-.1z" class="D"/><path d="M289.62 226.27l65.29-37.49v13.13l-65.29 37.49z" class="B J"/><path d="M319.66 213.58v3.9l-.43.23v-3.9l.43-.23zm1.61.74v.43l-1.65.88v-.43l1.65-.88zm.38-1.8v3.9l-.43.23v-3.9l.43-.23zm2.02-1.13c.26-.14.47-.22.63-.24s.28.03.35.15.11.33.11.62c0 .21-.02.4-.06.56s-.11.31-.2.44c-.09.12-.21.23-.36.34v.03c.06-.01.11-.01.16.01.06.02.11.05.15.11s.08.13.1.22l.33 1.06-.46.25-.3-1.06c-.04-.12-.1-.2-.17-.22s-.16-.01-.28.05l-.52.28-.37.18-.23.12.01-.42 1.09-.58c.17-.09.3-.19.39-.28a.8.8 0 0 0 .21-.33c.04-.13.06-.29.06-.49s-.02-.33-.06-.41-.11-.12-.21-.11-.22.06-.39.15l-.69.38-.39.22-.07-.35.35-.22.35-.2.46-.25zm-.74.45v3.9l-.43.23v-3.9l.43-.23z" class="D"/><path d="M354.91 188.78l65.29-37.49v13.13l-65.29 37.49z" class="B J"/><g clip-path="url(#O)"><path d="M376.39 183.27l-.34 1.76 1.36-1.17 3.94-6.81c.13-.22.2-.46.2-.67s-.07-.37-.2-.44l-.06-.03c-.13-.07-.3-.06-.48.05a1.4 1.4 0 0 0-.48.51l-3.94 6.81z" class="C G H"/><path d="M376.39 183.28l-.34 1.76 1.36-1.17 3.4-5.87-1.02-.59-3.4 5.87z" class="I"/><path d="M379.79 177.4l1.02.59m-1.7 5.29l2.72-1.56" class="C G H M"/></g><g class="I N"><path d="M399.41 169.23l-1.07.61v2.22a1.5 1.5 0 0 1-.68 1.18l-2.85 1.64v.72c0 .43.31.61.68.4l2.15-1.24 1.56.34v-1.23l.21-.12a1.5 1.5 0 0 0 .68-1.18v-2.94c0-.44-.31-.61-.68-.4zm-2.19-.75l-3.92 2.25a1.5 1.5 0 0 0-.68 1.18v2.94c0 .43.31.61.68.4l.21-.12v1.23l1.56-2.12 2.15-1.24a1.5 1.5 0 0 0 .68-1.18v-2.94c0-.44-.31-.61-.68-.4zm-2.31 3.17v.42l-.94.54v.53c0 .06.01.11.04.12s.07.01.13-.02l.9-.51.02.42-.35.22-.38.23-.38.22c-.15.09-.27.1-.36.06s-.14-.15-.14-.31v-1.63c0-.16.05-.32.14-.47a1 1 0 0 1 .36-.35l.38-.22.38-.21.35-.17-.02.45-.9.51c-.06.03-.1.07-.13.12s-.04.11-.04.17v.42l.94-.54h0zm1.82.58a5.3 5.3 0 0 1-.42.27c-.24.14-.43.2-.58.2s-.25-.09-.31-.26-.1-.42-.1-.76.03-.63.1-.87a1.6 1.6 0 0 1 .31-.62c.15-.17.34-.33.58-.47l.28-.15c.08-.04.15-.07.22-.09a2.1 2.1 0 0 1 .2-.07l-.04.46-.2.11-.2.11-.25.14c-.12.07-.2.14-.27.23s-.11.21-.14.35a3.1 3.1 0 0 0-.04.56c0 .23.01.39.04.51s.07.18.14.19.15-.01.27-.08l.39-.23.31-.21.05.41a3.6 3.6 0 0 1-.33.27z"/></g><path d="M142.71 323.76l81.62-46.87v13.13l-81.62 46.87z" class="E F"/><g class="L"><circle cx="4.99" cy="4.99" transform="matrix(.8672 -.498 0 1 148.398 322.07)" r="4.99"/><rect width="29.91" height="2.99" rx="1.5" transform="matrix(.8672 -.498 0 1 158.775 317.613)"/><rect width="15.95" height="1.99" rx="1" transform="matrix(.8672 -.498 0 1 158.775 322.594)"/></g><path d="M224.32 276.9l65.29-37.49v13.13l-65.29 37.49z" class="E F"/><path d="M249.5 266.74l.37-.18.28-.11.27-.08-.04.4-.27.12-.26.12-.34.17c-.22.12-.39.26-.52.42s-.22.38-.27.64a5.1 5.1 0 0 0-.08.98c0 .39.03.69.08.89s.15.31.27.34.3-.01.52-.13l.52-.29.42-.27.04.35c-.14.12-.29.23-.44.33a5.8 5.8 0 0 1-.55.33c-.32.17-.58.25-.78.22-.19-.03-.33-.17-.42-.41s-.13-.62-.13-1.12.04-.92.13-1.25.23-.63.42-.86c.2-.24.46-.44.78-.61zm3-.45c.43-.23.65-.09.65.41v2.06l-.42.22v-1.93c0-.19-.03-.3-.08-.34-.05-.05-.14-.04-.26.03-.15.08-.29.2-.44.35l-.52.62-.02-.33a6.3 6.3 0 0 1 .55-.68c.18-.19.36-.34.54-.43zm-1.03-.58v1.09l-.02.36a2.6 2.6 0 0 1-.03.31l.04.06v2.14l-.42.22v-3.95l.42-.22zm3.41-.68c.36-.19.62-.25.78-.19s.24.24.24.54a1.4 1.4 0 0 1-.13.65c-.09.19-.24.33-.44.44l-1.39.74v-.37l1.28-.69c.11-.06.18-.14.21-.24s.05-.21.05-.31c0-.18-.05-.28-.14-.31s-.24.01-.45.13c-.17.09-.31.2-.41.31-.1.11-.17.25-.21.42s-.06.38-.06.64c0 .29.02.5.07.63s.13.19.25.19.26-.05.44-.15l.42-.24.41-.27.04.3a2.6 2.6 0 0 1-.28.23l-.34.23-.31.18c-.27.15-.5.22-.66.21s-.29-.1-.37-.27a2.1 2.1 0 0 1-.11-.79c0-.36.04-.67.11-.91.08-.25.2-.47.36-.64.16-.18.37-.33.63-.47zm3.1-1.65c.43-.23.65-.09.65.41v2.06l-.42.22v-1.93c0-.18-.03-.3-.08-.34s-.14-.03-.26.03a1.7 1.7 0 0 0-.44.36l-.52.62-.02-.33a5.5 5.5 0 0 1 .55-.68c.18-.19.36-.34.54-.43zm-1.1.65l.03.51.03.07v2.14l-.42.22v-2.75l.35-.19zm3.94-2.17c.43-.23.65-.09.65.41v2.06l-.42.22v-1.93c0-.19-.03-.3-.08-.34s-.14-.03-.26.03c-.15.08-.29.2-.44.36l-.52.62-.02-.33c.19-.26.37-.49.55-.68a2.2 2.2 0 0 1 .54-.43zm-1.1.65l.03.51.03.07v2.14l-.42.22v-2.75l.35-.19zm3.62-2c.18-.09.32-.14.44-.15.12-.01.22.03.28.12s.09.25.09.48v1.94l-.33.18-.06-.56-.03-.05v-1.28c0-.17-.03-.27-.1-.31-.06-.04-.19-.01-.38.09l-.47.27-.55.35-.04-.33.36-.26.41-.26.38-.22zm.62.79v.36l-1.14.62c-.11.06-.19.14-.24.24s-.07.19-.07.31v.18c0 .14.03.23.09.27s.15.01.28-.06a1.7 1.7 0 0 0 .31-.22c.12-.1.24-.23.35-.37s.23-.31.32-.49v.36a3.3 3.3 0 0 1-.16.27 4.2 4.2 0 0 1-.24.33c-.09.11-.19.22-.31.33a1.8 1.8 0 0 1-.36.26c-.14.08-.26.11-.37.11s-.19-.04-.25-.12-.09-.21-.09-.38v-.3c0-.21.06-.41.17-.59.12-.18.28-.33.49-.44l1.22-.65zm1.37-1.79v2.75l-.41.22v-2.75l.41-.22zm-.11-1.11c.08-.05.13-.02.13.08v.32c0 .1-.04.17-.13.22l-.2.1c-.08.05-.13.02-.13-.08v-.32c0-.1.04-.17.13-.22l.2-.1z" class="D"/><path d="M289.62 239.4l65.29-37.49v13.13l-65.29 37.49z" class="E F"/><path d="M319.66 226.71v3.9l-.43.23v-3.9l.43-.23zm1.61.74v.43l-1.65.88v-.43l1.65-.88zm.38-1.8v3.9l-.43.23v-3.9l.43-.23zm2.02-1.13c.26-.14.47-.22.63-.24s.28.03.35.15.11.33.11.62c0 .21-.02.4-.06.56s-.11.31-.2.44c-.09.12-.21.24-.36.34v.03c.06-.02.11-.01.16.01s.11.05.15.11.08.12.1.22l.33 1.06-.46.25-.3-1.06c-.04-.12-.1-.2-.17-.22s-.16-.01-.28.05l-.52.28-.37.18-.23.12.01-.42 1.09-.58c.17-.09.3-.19.39-.28a.8.8 0 0 0 .21-.33c.04-.13.06-.29.06-.49s-.02-.33-.06-.41-.11-.12-.21-.11-.22.06-.39.15l-.69.38-.39.22-.07-.35.35-.22.35-.2.46-.25zm-.74.45v3.9l-.43.23v-3.9l.43-.23z" class="D"/><path d="M354.91 201.91l65.29-37.49v13.13l-65.29 37.49z" class="E F"/><g clip-path="url(#P)"><path d="M376.39 196.4l-.34 1.76 1.36-1.17 3.94-6.81c.13-.22.2-.46.2-.67s-.07-.37-.2-.44l-.06-.03c-.13-.07-.3-.06-.48.05a1.4 1.4 0 0 0-.48.51l-3.94 6.81z" class="C G H"/><path d="M376.39 196.41l-.34 1.76 1.36-1.17 3.4-5.87-1.02-.59-3.4 5.87z" class="I"/><path d="M379.79 190.53l1.02.59m-1.7 5.29l2.72-1.56" class="C G H M"/></g><g class="I N"><use href="#t"/><path d="M397.22 181.61l-3.92 2.25a1.5 1.5 0 0 0-.68 1.18v2.94c0 .44.31.61.68.4l.21-.12v1.23l1.56-2.12 2.15-1.24c.38-.22.68-.75.68-1.18V182c0-.44-.31-.61-.68-.4zm-2.31 3.17v.42l-.94.54v.53c0 .06.01.11.04.12s.07.01.13-.02l.9-.51.02.42-.35.22-.38.23-.38.22c-.15.09-.27.1-.36.06s-.14-.15-.14-.31v-1.63c0-.17.05-.32.14-.47a1 1 0 0 1 .36-.35l.38-.22.38-.21.35-.17-.02.45-.9.51c-.06.03-.1.07-.13.12s-.04.11-.04.18v.42l.94-.54h0zm1.82.58c-.11.08-.25.17-.42.27-.24.14-.43.2-.58.2s-.25-.09-.31-.26-.1-.42-.1-.76.03-.63.1-.87a1.6 1.6 0 0 1 .31-.62c.15-.17.34-.33.58-.47l.28-.15c.08-.04.15-.07.22-.09a2.1 2.1 0 0 1 .2-.07l-.04.46-.2.11-.2.11-.25.14c-.12.07-.2.14-.27.23s-.11.21-.14.35a3.1 3.1 0 0 0-.04.56c0 .23.01.4.04.51s.07.18.14.19.15-.01.27-.08l.39-.23.31-.21.05.41a3.6 3.6 0 0 1-.33.27z"/></g><path d="M142.71 336.89l81.62-46.87v13.13l-81.62 46.87z" class="B J"/><g class="L"><circle cx="4.99" cy="4.99" transform="matrix(.8672 -.498 0 1 148.398 335.199)" r="4.99"/><rect width="29.91" height="2.99" rx="1.5" transform="matrix(.8672 -.498 0 1 158.775 330.742)"/><rect width="15.95" height="1.99" rx="1" transform="matrix(.8672 -.498 0 1 158.775 335.723)"/></g><path d="M224.32 290.02l65.29-37.49v13.13l-65.29 37.49z" class="B J"/><path d="M249.5 279.87l.37-.18c.1-.05.2-.09.28-.11l.27-.08-.04.4-.27.12-.26.12-.34.18c-.22.12-.39.26-.52.42s-.22.38-.27.64a5.1 5.1 0 0 0-.08.98c0 .4.03.69.08.9s.15.31.27.34.3-.01.52-.13l.52-.29.42-.28.04.35c-.14.12-.29.23-.44.33a5.8 5.8 0 0 1-.55.33c-.32.17-.58.25-.78.22-.19-.03-.33-.17-.42-.41s-.13-.62-.13-1.12.04-.91.13-1.25.23-.63.42-.86c.2-.24.46-.44.78-.61zm3-.45c.43-.23.65-.09.65.41v2.06l-.42.22v-1.93c0-.19-.03-.3-.08-.34s-.14-.03-.26.03c-.15.08-.29.2-.44.35l-.52.62-.02-.33a6.3 6.3 0 0 1 .55-.68c.18-.19.36-.34.54-.43zm-1.03-.58v1.09l-.02.36c-.01.11-.02.22-.03.31l.04.06v2.14l-.42.22v-3.95l.42-.22zm3.41-.68c.36-.19.62-.25.78-.19s.24.24.24.54a1.4 1.4 0 0 1-.13.65c-.09.19-.24.33-.44.44l-1.39.74v-.37l1.28-.69c.11-.06.18-.14.21-.24s.05-.21.05-.31c0-.18-.05-.28-.14-.31s-.24.01-.45.13c-.17.09-.31.2-.41.31s-.17.25-.21.42-.06.38-.06.64c0 .29.02.5.07.63s.13.19.25.19.26-.05.44-.15l.42-.24.41-.27.04.3c-.08.07-.17.15-.28.23l-.34.23-.31.18c-.27.15-.5.22-.66.21s-.29-.1-.37-.27a2.1 2.1 0 0 1-.11-.79c0-.36.04-.67.11-.91.08-.25.2-.46.36-.64s.37-.33.63-.47zm3.1-1.65c.43-.23.65-.09.65.41v2.06l-.42.22v-1.93c0-.19-.03-.3-.08-.34s-.14-.03-.26.03c-.15.08-.29.2-.44.36l-.52.62-.02-.33a5.5 5.5 0 0 1 .55-.68c.18-.19.36-.34.54-.43zm-1.1.65l.03.51.03.07v2.14l-.42.22v-2.75l.35-.19zm3.94-2.17c.43-.23.65-.09.65.41v2.06l-.42.22v-1.93c0-.18-.03-.3-.08-.34s-.14-.03-.26.03c-.15.08-.29.2-.44.36l-.52.62-.02-.33c.19-.26.37-.49.55-.68a2.2 2.2 0 0 1 .54-.43zm-1.1.65l.03.51.03.07v2.14l-.42.22v-2.75l.35-.19zm3.62-2c.18-.09.32-.14.44-.15.12-.01.22.03.28.12s.09.25.09.48v1.94l-.33.18-.06-.56-.03-.05v-1.28c0-.17-.03-.27-.1-.31-.06-.04-.19-.01-.38.09l-.47.27-.55.35-.04-.33.36-.25.41-.26.38-.22zm.62.79v.36l-1.14.62c-.11.06-.19.14-.24.23s-.07.19-.07.31v.18c0 .14.03.23.09.27s.15.01.28-.06c.09-.05.19-.12.31-.22s.24-.23.35-.37.23-.31.32-.49v.36a3.3 3.3 0 0 1-.16.27 4.2 4.2 0 0 1-.24.33c-.09.11-.19.22-.31.33a1.8 1.8 0 0 1-.36.26c-.14.07-.26.11-.37.11s-.19-.04-.25-.12c-.06-.09-.09-.21-.09-.38v-.3c0-.21.06-.41.17-.59.12-.18.28-.33.49-.44l1.22-.65zm1.37-1.79v2.75l-.41.22v-2.75l.41-.22zm-.11-1.11c.08-.04.13-.02.13.08v.32c0 .1-.04.17-.13.22l-.2.1c-.08.05-.13.02-.13-.08v-.32c0-.1.04-.17.13-.21l.2-.11z" class="D"/><path d="M289.62 252.53l65.29-37.49v13.13l-65.29 37.49z" class="B J"/><path d="M319.66 239.84v3.9l-.43.23v-3.9l.43-.23zm1.61.74v.43l-1.65.88v-.43l1.65-.88zm.38-1.8v3.9l-.43.23v-3.9l.43-.23zm2.02-1.13c.26-.14.47-.22.63-.23.16-.02.28.03.35.15s.11.33.11.62c0 .21-.02.4-.06.56s-.11.31-.2.44c-.09.12-.21.23-.36.34v.03c.06-.01.11-.01.16.01s.11.05.15.11a.5.5 0 0 1 .1.22l.33 1.06-.46.25-.3-1.06c-.04-.12-.1-.2-.17-.22s-.16-.01-.28.05l-.52.28-.37.19-.23.12.01-.42 1.09-.58c.17-.09.3-.19.39-.28a.8.8 0 0 0 .21-.33c.04-.13.06-.29.06-.49s-.02-.33-.06-.41-.11-.12-.21-.11-.22.06-.39.15l-.69.38-.39.22-.07-.35.35-.22.35-.2.46-.25zm-.74.45v3.9l-.43.23v-3.9l.43-.23z" class="D"/><path d="M354.91 215.04l65.29-37.49v13.13l-65.29 37.49z" class="B J"/><g clip-path="url(#Q)"><path d="M376.39 209.53l-.34 1.76 1.36-1.17 3.94-6.81c.13-.22.2-.46.2-.67s-.07-.37-.2-.44l-.06-.03c-.13-.07-.3-.06-.48.05a1.4 1.4 0 0 0-.48.51l-3.94 6.81z" class="C G H"/><use href="#u" class="I"/><path d="M379.79 203.66l1.02.59m-1.7 5.29l2.72-1.56" class="C G H M"/></g><g class="I N"><path d="M399.41 195.48l-1.07.61v2.22a1.5 1.5 0 0 1-.68 1.18l-2.85 1.64v.72c0 .44.31.61.68.4l2.15-1.24 1.56.34v-1.23l.21-.12a1.5 1.5 0 0 0 .68-1.18v-2.94c0-.44-.31-.61-.68-.4zm-2.19-.75l-3.92 2.25a1.5 1.5 0 0 0-.68 1.18v2.94c0 .44.31.61.68.4l.21-.12v1.23l1.56-2.12 2.15-1.24c.38-.22.68-.75.68-1.18v-2.94a.4.4 0 0 0-.68-.39zm-2.31 3.17v.42l-.94.54v.53c0 .06.01.11.04.12s.07.01.13-.02l.9-.52.02.42-.35.22-.38.23-.38.22c-.15.09-.27.11-.36.06s-.14-.15-.14-.31v-1.63c0-.16.05-.32.14-.47a1 1 0 0 1 .36-.36l.38-.22.38-.21.35-.17-.02.45-.9.51c-.06.03-.1.07-.13.12s-.04.11-.04.17v.42l.94-.54h0zm1.82.58a5.3 5.3 0 0 1-.42.27c-.24.14-.43.2-.58.2s-.25-.09-.31-.26-.1-.42-.1-.76.03-.63.1-.87a1.8 1.8 0 0 1 .31-.62c.14-.18.34-.33.58-.47l.28-.15c.08-.04.15-.07.22-.09a2.1 2.1 0 0 1 .2-.07l-.04.46-.2.11-.2.11-.25.14c-.12.07-.2.14-.27.23s-.11.21-.14.35a3.1 3.1 0 0 0-.04.56c0 .23.01.4.04.51s.07.18.14.19.15-.01.27-.08l.39-.23.31-.21.05.41a3.9 3.9 0 0 1-.33.27z"/></g><path d="M142.71 350.02l81.62-46.87v13.13l-81.62 46.87z" class="E F"/><g class="L"><circle cx="4.99" cy="4.99" transform="matrix(.8672 -.498 0 1 148.398 348.328)" r="4.99"/><rect width="29.91" height="2.99" rx="1.5" transform="matrix(.8672 -.498 0 1 158.775 343.871)"/><rect width="15.95" height="1.99" rx="1" transform="matrix(.8672 -.498 0 1 158.775 348.852)"/></g><path d="M224.32 303.15l65.29-37.49v13.13l-65.29 37.49z" class="E F"/><path d="M249.5 293l.37-.18c.1-.05.2-.09.28-.11l.27-.08-.04.4-.27.12-.26.12-.34.18c-.22.12-.39.26-.52.42s-.22.38-.27.64a5.1 5.1 0 0 0-.08.98c0 .4.03.69.08.9s.15.31.27.35.3-.01.52-.13l.52-.29.42-.28.04.35c-.14.12-.29.23-.44.33a5.8 5.8 0 0 1-.55.33c-.32.17-.58.25-.78.22-.19-.03-.33-.17-.42-.41s-.13-.62-.13-1.12.04-.91.13-1.25.23-.63.42-.86.46-.44.78-.61zm3-.45c.43-.23.65-.09.65.41v2.06l-.42.23v-1.93c0-.19-.03-.3-.08-.34-.05-.05-.14-.04-.26.03-.15.08-.29.2-.44.35l-.52.62-.02-.33a6.2 6.2 0 0 1 .55-.68 2.2 2.2 0 0 1 .54-.43zm-1.03-.58v1.09l-.02.36c-.01.11-.02.22-.03.31l.04.06v2.14l-.42.22v-3.95l.42-.22zm3.41-.68c.36-.19.62-.25.78-.19s.24.24.24.54a1.4 1.4 0 0 1-.13.65c-.09.18-.24.33-.44.44l-1.39.74v-.37l1.28-.69c.11-.06.18-.14.21-.24s.05-.21.05-.31c0-.18-.05-.28-.14-.31s-.24.01-.45.13c-.17.09-.31.2-.41.31s-.17.25-.21.42c-.04.16-.06.38-.06.64 0 .29.02.5.07.63s.13.19.25.19.26-.05.44-.15l.42-.24.41-.27.04.3c-.08.07-.17.15-.28.23l-.34.23-.31.18c-.27.15-.5.22-.66.21s-.29-.1-.37-.27a2.1 2.1 0 0 1-.11-.79c0-.36.04-.67.11-.91.08-.25.2-.47.36-.64.16-.18.37-.33.63-.47zm3.1-1.65c.43-.23.65-.09.65.41v2.06l-.42.22v-1.93c0-.19-.03-.3-.08-.34s-.14-.03-.26.03c-.15.08-.29.2-.44.36l-.52.62-.02-.33a5.5 5.5 0 0 1 .55-.68c.18-.19.36-.34.54-.43zm-1.1.65l.03.51.03.07v2.14l-.42.22v-2.75l.35-.19zm3.94-2.17c.43-.23.65-.09.65.41v2.06l-.42.22v-1.93c0-.18-.03-.3-.08-.34s-.14-.03-.26.03c-.15.08-.29.2-.44.36l-.52.62-.02-.33c.19-.27.37-.49.55-.68a2.2 2.2 0 0 1 .54-.43zm-1.1.65l.03.51.03.07v2.14l-.42.22v-2.75l.35-.19zm3.62-2c.18-.09.32-.14.44-.15.12-.01.22.03.28.12s.09.25.09.48v1.94l-.33.18-.06-.56-.03-.05v-1.28c0-.17-.03-.27-.1-.31-.06-.04-.19-.01-.38.09l-.47.27-.55.35-.04-.33.36-.26.41-.26.38-.22zm.62.79v.36l-1.14.61c-.11.06-.19.14-.24.24s-.07.19-.07.31v.18c0 .14.03.23.09.27.06.03.15.01.28-.06.09-.05.19-.12.31-.22.12-.1.24-.23.35-.37s.23-.31.32-.49v.36l-.16.27a4.2 4.2 0 0 1-.24.33c-.09.11-.19.22-.31.33a1.8 1.8 0 0 1-.36.26c-.14.07-.26.11-.37.11s-.19-.04-.25-.12c-.06-.09-.09-.21-.09-.38v-.3c0-.21.06-.41.17-.59.12-.18.28-.33.49-.44l1.22-.65zm1.37-1.79v2.75l-.41.22v-2.75l.41-.22zm-.11-1.11c.08-.05.13-.02.13.08v.32c0 .1-.04.17-.13.21l-.2.1c-.08.05-.13.02-.13-.08v-.32c0-.1.04-.17.13-.21l.2-.11z" class="D"/><path d="M289.62 265.66l65.29-37.49v13.13l-65.29 37.49z" class="E F"/><path d="M319.66 252.97v3.9l-.43.23v-3.9l.43-.23zm1.61.74v.43l-1.65.88v-.43l1.65-.88zm.38-1.8v3.9l-.43.23v-3.9l.43-.23zm2.02-1.13c.26-.14.47-.22.63-.24s.28.03.35.15.11.33.11.62c0 .21-.02.4-.06.56a1.3 1.3 0 0 1-.2.43c-.09.12-.21.23-.36.34v.03c.06-.01.11-.01.16.01.06.02.11.05.15.1s.08.13.1.22l.33 1.06-.46.25-.3-1.06c-.04-.12-.1-.2-.17-.22s-.16-.01-.28.05l-.52.28-.37.19-.23.12.01-.42 1.09-.58c.17-.09.3-.19.39-.28a.8.8 0 0 0 .21-.33c.04-.13.06-.29.06-.49s-.02-.33-.06-.41-.11-.12-.21-.11-.22.06-.39.15l-.69.38-.39.22-.07-.35.35-.22.35-.2.46-.25zm-.74.44v3.9l-.43.23v-3.9l.43-.23z" class="D"/><path d="M354.91 228.16l65.29-37.49v13.13l-65.29 37.49z" class="E F"/><g clip-path="url(#R)"><path d="M376.39 222.66l-.34 1.76 1.36-1.17 3.94-6.81c.13-.22.2-.46.2-.67s-.07-.37-.2-.44l-.06-.03c-.13-.07-.3-.06-.48.05a1.4 1.4 0 0 0-.48.51l-3.94 6.81z" class="C G H"/><path d="M376.39 222.66l-.34 1.76 1.36-1.17 3.4-5.87-1.02-.59-3.4 5.88z" class="I"/><path d="M379.79 216.79l1.02.59m-1.7 5.29l2.72-1.56" class="C G H M"/></g><g class="I N"><path d="M399.41 208.61l-1.07.61v2.22a1.5 1.5 0 0 1-.68 1.18l-2.85 1.64v.72c0 .44.31.61.68.4l2.15-1.24 1.56.34v-1.23l.21-.12a1.5 1.5 0 0 0 .68-1.18V209c0-.44-.31-.61-.68-.39z"/><use href="#v"/></g><path d="M142.71 363.15l81.62-46.87v13.13l-81.62 46.87z" class="B J"/><g class="L"><circle cx="4.99" cy="4.99" transform="matrix(.8672 -.498 0 1 148.398 361.453)" r="4.99"/><rect width="29.91" height="2.99" rx="1.5" transform="matrix(.8672 -.498 0 1 158.775 356.996)"/><rect width="15.95" height="1.99" rx="1" transform="matrix(.8672 -.498 0 1 158.775 361.977)"/></g><path d="M224.32 316.28l65.29-37.49v13.13l-65.29 37.49z" class="B J"/><path d="M249.5 306.12l.37-.18c.1-.05.2-.09.28-.11l.27-.08-.04.4-.27.12-.26.12-.34.18c-.22.12-.39.26-.52.42s-.22.38-.27.64a5.1 5.1 0 0 0-.08.98c0 .4.03.69.08.9s.15.31.27.35.3-.01.52-.13l.52-.29.42-.28.04.35c-.14.12-.29.23-.44.33a5.8 5.8 0 0 1-.55.33c-.32.17-.58.25-.78.22-.19-.03-.33-.17-.42-.41s-.13-.62-.13-1.12.04-.91.13-1.25.23-.63.42-.86.46-.44.78-.61zm3-.45c.43-.23.65-.09.65.41v2.06l-.42.23v-1.93c0-.19-.03-.3-.08-.34-.05-.05-.14-.04-.26.03-.15.08-.29.2-.44.35l-.52.62-.02-.33a6.2 6.2 0 0 1 .55-.68 2.2 2.2 0 0 1 .54-.43zm-1.03-.58v1.09l-.02.36c-.01.11-.02.22-.03.31l.04.06v2.14l-.42.22v-3.95l.42-.22zm3.41-.68c.36-.19.62-.25.78-.19s.24.24.24.54a1.4 1.4 0 0 1-.13.65c-.09.18-.24.33-.44.44l-1.39.74v-.37l1.28-.69c.11-.06.18-.14.21-.24s.05-.21.05-.31c0-.18-.05-.28-.14-.31s-.24.01-.45.13c-.17.09-.31.2-.41.31s-.17.25-.21.42c-.04.16-.06.38-.06.64 0 .29.02.5.07.63s.13.19.25.19.26-.05.44-.15l.42-.24.41-.27.04.3c-.08.07-.17.15-.28.23l-.34.23-.31.18c-.27.15-.5.22-.66.21s-.29-.1-.37-.27a2.1 2.1 0 0 1-.11-.79c0-.36.04-.67.11-.91.08-.25.2-.47.36-.64.16-.18.37-.33.63-.47zm3.1-1.65c.43-.23.65-.09.65.41v2.06l-.42.22v-1.93c0-.19-.03-.3-.08-.34s-.14-.03-.26.03c-.15.08-.29.2-.44.36l-.52.62-.02-.33a5.5 5.5 0 0 1 .55-.68c.18-.19.36-.34.54-.43zm-1.1.65l.03.51.03.07v2.14l-.42.22v-2.75l.35-.19zm3.94-2.17c.43-.23.65-.09.65.41v2.06l-.42.22V302c0-.18-.03-.3-.08-.34s-.14-.03-.26.03c-.15.08-.29.2-.44.36l-.52.62-.02-.33c.19-.27.37-.49.55-.68a2.2 2.2 0 0 1 .54-.43zm-1.1.65l.03.51.03.07v2.14l-.42.22v-2.75l.35-.19zm3.62-2c.18-.09.32-.14.44-.15.12-.01.22.03.28.12s.09.25.09.48v1.94l-.33.18-.06-.56-.03-.05v-1.28c0-.17-.03-.27-.1-.31-.06-.04-.19-.01-.38.09l-.47.27-.55.35-.04-.33.36-.26.41-.26.38-.22zm.62.79v.36l-1.14.61c-.11.06-.19.14-.24.24s-.07.19-.07.31v.18c0 .14.03.23.09.27.06.03.15.01.28-.06.09-.05.19-.12.31-.22.12-.1.24-.23.35-.37s.23-.31.32-.49v.36l-.16.27a4.2 4.2 0 0 1-.24.33c-.09.11-.19.22-.31.33a1.8 1.8 0 0 1-.36.26c-.14.07-.26.11-.37.11s-.19-.04-.25-.12c-.06-.09-.09-.21-.09-.38v-.3c0-.21.06-.41.17-.59.12-.18.28-.33.49-.44l1.22-.65zm1.37-1.79v2.75l-.41.22v-2.75l.41-.22zm-.11-1.11c.08-.05.13-.02.13.08v.32c0 .1-.04.17-.13.21l-.2.1c-.08.05-.13.02-.13-.08v-.32c0-.1.04-.17.13-.21l.2-.11z" class="D"/><path d="M289.62 278.78l65.29-37.49v13.13l-65.29 37.49z" class="B J"/><path d="M319.66 266.1v3.9l-.43.23v-3.9l.43-.23zm1.61.74v.43l-1.65.88v-.43l1.65-.88zm.38-1.8v3.9l-.43.23v-3.9l.43-.23zm2.02-1.13c.26-.14.47-.22.63-.23.16-.02.28.03.35.15s.11.33.11.62c0 .21-.02.4-.06.56a1.3 1.3 0 0 1-.2.43c-.09.12-.21.24-.36.34v.03c.06-.01.11-.01.16.01s.11.05.15.11.08.13.1.22l.33 1.06-.46.25-.3-1.06c-.04-.12-.1-.2-.17-.22s-.16-.01-.28.05l-.52.28-.37.19-.23.12.01-.42 1.09-.58c.17-.09.3-.18.39-.28a.8.8 0 0 0 .21-.33c.04-.13.06-.29.06-.49s-.02-.33-.06-.41-.11-.12-.21-.11-.22.06-.39.15l-.69.38-.39.21-.07-.35.35-.22.35-.2.46-.25zm-.74.44v3.9l-.43.23v-3.9l.43-.23z" class="D"/><path d="M354.91 241.29l65.29-37.49v13.13l-65.29 37.49z" class="B J"/><g clip-path="url(#S)"><path d="M376.39 235.79l-.34 1.76 1.36-1.17 3.94-6.81c.13-.22.2-.46.2-.67s-.07-.37-.2-.44l-.06-.03c-.13-.07-.3-.06-.48.05a1.4 1.4 0 0 0-.48.51l-3.94 6.81z" class="C G H"/><path d="M376.39 235.79l-.34 1.76 1.36-1.17 3.4-5.87-1.02-.59-3.4 5.88z" class="I"/><path d="M379.79 229.91l1.02.59m-1.7 5.29l2.72-1.56" class="C G H M"/></g><g class="I N"><path d="M399.41 221.73l-1.07.61v2.22a1.5 1.5 0 0 1-.68 1.18l-2.85 1.64v.72c0 .44.31.61.68.4l2.15-1.24 1.56.34v-1.23l.21-.12a1.5 1.5 0 0 0 .68-1.18v-2.94a.4.4 0 0 0-.68-.39zm-2.19-.74l-3.92 2.25a1.5 1.5 0 0 0-.68 1.18v2.94c0 .44.31.61.68.4l.21-.12v1.23l1.56-2.13 2.15-1.24c.38-.22.68-.75.68-1.18v-2.94c0-.44-.31-.61-.68-.4zm-2.31 3.17v.42l-.94.54v.53c0 .06.01.11.04.12s.07.01.13-.02l.9-.51.02.42-.35.22-.38.23-.38.22c-.15.09-.27.1-.36.06s-.14-.15-.14-.31v-1.63c0-.16.05-.32.14-.47a1 1 0 0 1 .36-.35l.38-.22.38-.21.35-.17-.02.45-.9.51c-.06.03-.1.07-.13.12s-.04.11-.04.18v.42l.94-.54h0zm1.82.58a5 5 0 0 1-.42.27c-.24.14-.43.2-.58.2s-.25-.09-.31-.26-.1-.42-.1-.76.03-.63.1-.87.17-.45.31-.62.34-.33.58-.47l.28-.15.22-.09.2-.06-.04.46-.2.11-.2.11-.25.14c-.12.07-.2.14-.27.23s-.11.21-.14.35a3.1 3.1 0 0 0-.04.56c0 .23.01.39.04.51s.07.18.14.19.15-.01.27-.08l.39-.23.31-.21.05.41-.33.28z"/></g><path d="M142.71 376.27l81.62-46.87v13.13l-81.62 46.87z" class="E F"/><g class="L"><circle cx="4.99" cy="4.99" transform="matrix(.8672 -.498 0 1 148.398 374.582)" r="4.99"/><rect width="29.91" height="2.99" rx="1.5" transform="matrix(.8672 -.498 0 1 158.775 370.121)"/><rect width="15.95" height="1.99" rx="1" transform="matrix(.8672 -.498 0 1 158.775 375.105)"/></g><path d="M224.32 329.41l65.29-37.49v13.13l-65.29 37.49z" class="E F"/><path d="M249.5 319.25l.37-.19.28-.11c.09-.03.18-.06.27-.08l-.04.4-.27.12-.26.12-.34.17c-.22.12-.39.26-.52.42s-.22.38-.27.64a5.1 5.1 0 0 0-.08.98c0 .4.03.69.08.9s.15.31.27.34.3-.01.52-.13l.52-.29.42-.28.04.35c-.14.12-.29.23-.44.33a5.8 5.8 0 0 1-.55.33c-.32.17-.58.25-.78.22-.19-.03-.33-.17-.42-.41s-.13-.62-.13-1.12.04-.91.13-1.25.23-.63.42-.86.46-.44.78-.61zm3-.45c.43-.23.65-.09.65.41v2.06l-.42.23v-1.93c0-.18-.03-.3-.08-.34-.05-.05-.14-.04-.26.03a1.7 1.7 0 0 0-.44.35l-.52.62-.02-.33a6.2 6.2 0 0 1 .55-.68 2.2 2.2 0 0 1 .54-.43zm-1.03-.58v1.09l-.02.36c-.01.11-.02.21-.03.31l.04.06v2.14l-.42.22v-3.95l.42-.22zm3.41-.68c.36-.19.62-.25.78-.19s.24.24.24.54a1.4 1.4 0 0 1-.13.65c-.09.18-.24.33-.44.44l-1.39.74v-.37l1.28-.68c.11-.06.18-.14.21-.24s.05-.21.05-.31c0-.18-.05-.28-.14-.31s-.24.01-.45.13c-.17.09-.31.2-.41.31-.1.11-.17.25-.21.42s-.06.38-.06.64c0 .29.02.5.07.63s.13.19.25.19.26-.05.44-.15l.42-.24.41-.27.04.3a2.6 2.6 0 0 1-.28.23l-.34.23-.31.18c-.27.15-.5.22-.66.21s-.29-.1-.37-.27a2.1 2.1 0 0 1-.11-.79c0-.36.04-.67.11-.91.08-.25.2-.47.36-.64.16-.18.37-.33.63-.47zm3.1-1.65c.43-.23.65-.09.65.41v2.06l-.42.22v-1.93c0-.19-.03-.3-.08-.34s-.14-.03-.26.03c-.15.08-.29.2-.44.36l-.52.62-.02-.33c.19-.26.37-.49.55-.68s.36-.34.54-.43zm-1.1.65l.03.51.03.07v2.14l-.42.22v-2.75l.35-.19zm3.94-2.17c.43-.23.65-.09.65.41v2.06l-.42.22v-1.93c0-.18-.03-.3-.08-.34s-.14-.03-.26.03c-.15.08-.29.2-.44.36l-.52.62-.02-.33a5.5 5.5 0 0 1 .55-.68c.18-.19.36-.33.54-.43zm-1.1.65l.03.51.03.07v2.14l-.42.22v-2.75l.35-.19zm3.62-2c.18-.09.32-.14.44-.15.12-.01.22.03.28.12s.09.25.09.48v1.94l-.33.17-.06-.56-.03-.05v-1.28c0-.17-.03-.27-.1-.31-.06-.04-.19-.01-.38.09l-.47.27-.55.35-.04-.34.36-.25.41-.26.38-.22zm.62.79v.36l-1.14.61c-.11.07-.19.14-.24.24s-.07.19-.07.31v.18c0 .14.03.23.09.27s.15.01.28-.06c.09-.05.19-.12.31-.22s.24-.23.35-.37.23-.31.32-.49v.36a3.3 3.3 0 0 1-.16.27 4.2 4.2 0 0 1-.24.33c-.09.11-.19.22-.31.33a1.8 1.8 0 0 1-.36.26c-.14.08-.26.11-.37.11s-.19-.04-.25-.12c-.06-.09-.09-.21-.09-.38v-.3c0-.22.06-.41.17-.59.12-.18.28-.33.49-.44l1.22-.65zm1.37-1.79v2.75l-.41.22v-2.75l.41-.22zm-.11-1.11c.08-.05.13-.02.13.08v.32c0 .1-.04.17-.13.22l-.2.1c-.08.05-.13.02-.13-.08v-.32c0-.1.04-.17.13-.21l.2-.1z" class="D"/><path d="M289.62 291.91l65.29-37.49v13.13l-65.29 37.49z" class="E F"/><path d="M319.66 279.22v3.9l-.43.23v-3.9l.43-.23zm1.61.74v.43l-1.65.88v-.43l1.65-.88zm.38-1.8v3.9l-.43.23v-3.9l.43-.23zm2.02-1.13c.26-.14.47-.22.63-.24s.28.03.35.15.11.33.11.62c0 .21-.02.4-.06.56a1.3 1.3 0 0 1-.2.43c-.09.12-.21.23-.36.34v.03c.06-.01.11-.01.16.01s.11.05.15.11.08.13.1.22l.33 1.06-.46.25-.3-1.06c-.04-.12-.1-.2-.17-.22s-.16-.01-.28.05l-.52.28-.37.19-.23.12.01-.42 1.09-.58c.17-.09.3-.19.39-.28s.17-.2.21-.33.06-.29.06-.48-.02-.33-.06-.41-.11-.12-.21-.11-.22.06-.39.15l-.69.38-.39.22-.07-.35.35-.22.35-.2.46-.25zm-.74.44v3.9l-.43.23v-3.9l.43-.23z" class="D"/><path d="M354.91 254.42l65.29-37.49v13.13l-65.29 37.49z" class="E F"/><g clip-path="url(#T)"><use href="#w" class="C G H"/><path d="M376.39 248.91l-.34 1.76 1.36-1.17 3.4-5.87-1.02-.59-3.4 5.88z" class="I"/><path d="M379.79 243.04l1.02.59m-1.7 5.29l2.72-1.56" class="C G H M"/></g><g class="I N"><path d="M399.41 234.86l-1.07.61v2.22c0 .43-.31.96-.68 1.18l-2.85 1.64v.72c0 .44.31.61.68.4l2.15-1.24 1.56.34v-1.23l.21-.12a1.5 1.5 0 0 0 .68-1.18v-2.94c0-.44-.31-.61-.68-.4zm-2.19-.74l-3.92 2.25c-.38.22-.68.75-.68 1.18v2.94c0 .44.31.61.68.4l.21-.12V242l1.56-2.13 2.15-1.24a1.5 1.5 0 0 0 .68-1.18v-2.94c0-.43-.31-.61-.68-.39zm-2.31 3.17v.42l-.94.54v.53c0 .06.01.11.04.12s.07.01.13-.02l.9-.51.02.42-.35.22-.38.23-.38.22c-.15.09-.27.1-.36.06s-.14-.15-.14-.31v-1.63c0-.17.05-.32.14-.47s.21-.27.36-.35l.38-.22.38-.21.35-.17-.02.44-.9.52c-.06.03-.1.07-.13.12s-.04.11-.04.18v.42l.94-.54h0zm1.82.58a4.8 4.8 0 0 1-.42.26c-.24.14-.43.21-.58.2s-.25-.09-.31-.26-.1-.42-.1-.76.03-.63.1-.87a1.8 1.8 0 0 1 .31-.62c.14-.18.34-.33.58-.47l.28-.15.22-.09.2-.07-.04.46-.2.11-.2.11-.25.14c-.12.07-.2.14-.27.23s-.11.21-.14.35a3.1 3.1 0 0 0-.04.56c0 .22.01.4.04.51s.07.18.14.19.15-.01.27-.08l.39-.23.31-.21.05.41-.33.28z"/></g><path d="M142.71 389.4l81.62-46.87v13.13l-78.2 44.91c-1.89 1.08-3.42.2-3.42-1.98v-9.19z" class="B J"/><g class="L"><circle cx="4.99" cy="4.99" transform="matrix(.8672 -.498 0 1 148.398 387.711)" r="4.99"/><rect width="29.91" height="2.99" rx="1.5" transform="matrix(.8672 -.498 0 1 158.775 383.25)"/><rect width="15.95" height="1.99" rx="1" transform="matrix(.8672 -.498 0 1 158.775 388.234)"/></g><path d="M224.32 342.54l65.29-37.49v13.13l-65.29 37.49z" class="B J"/><path d="M249.5 332.38l.37-.19.28-.11c.09-.03.18-.06.27-.08l-.04.4-.27.12-.26.12-.34.18c-.22.12-.39.26-.52.42s-.22.38-.27.64a5.1 5.1 0 0 0-.08.98c0 .4.03.69.08.9s.15.32.27.35.3-.01.52-.13l.52-.29.42-.28.04.35a4.5 4.5 0 0 1-.44.33 5.8 5.8 0 0 1-.55.33c-.32.17-.58.25-.78.22-.19-.03-.33-.17-.42-.41s-.13-.62-.13-1.12.04-.92.13-1.25.23-.63.42-.86c.2-.24.46-.44.78-.61zm3-.45c.43-.23.65-.09.65.41v2.06l-.42.22v-1.93c0-.18-.03-.3-.08-.34-.05-.05-.14-.03-.26.03a1.7 1.7 0 0 0-.44.35l-.52.62-.02-.33a6.2 6.2 0 0 1 .55-.68 2.2 2.2 0 0 1 .54-.43zm-1.03-.58v1.09l-.02.36c-.01.11-.02.22-.03.31l.04.06v2.14l-.42.22v-3.95l.42-.22zm3.41-.68c.36-.19.62-.25.78-.19s.24.24.24.54a1.4 1.4 0 0 1-.13.65c-.09.18-.24.33-.44.44l-1.39.74v-.37l1.28-.68c.11-.06.18-.14.21-.24s.05-.21.05-.31c0-.18-.05-.28-.14-.31s-.24.01-.45.13c-.17.09-.31.2-.41.31-.1.11-.17.25-.21.42s-.06.38-.06.64c0 .29.02.5.07.63s.13.19.25.19.26-.05.44-.15l.42-.24.41-.27.04.3a2.6 2.6 0 0 1-.28.23l-.34.23-.31.18c-.27.15-.5.22-.66.21s-.29-.1-.37-.27-.11-.44-.11-.79c0-.36.04-.67.11-.91.08-.25.2-.46.36-.64.16-.18.37-.33.63-.47zm3.1-1.66c.43-.23.65-.09.65.41v2.06l-.42.22v-1.92c0-.19-.03-.3-.08-.34s-.14-.03-.26.03c-.15.08-.29.2-.44.36l-.52.62-.02-.33c.19-.26.37-.49.55-.68s.36-.34.54-.43zm-1.1.65l.03.51.03.07v2.14l-.42.22v-2.75l.35-.19zm3.94-2.17c.43-.23.65-.09.65.41v2.06l-.42.22v-1.93c0-.18-.03-.3-.08-.34s-.14-.03-.26.03a1.7 1.7 0 0 0-.44.36l-.52.62-.02-.33a5.5 5.5 0 0 1 .55-.68c.18-.19.36-.33.54-.43zm-1.1.65l.03.51.03.07v2.14l-.42.22v-2.75l.35-.19zm3.62-2c.18-.09.32-.14.44-.15.12-.01.22.03.28.12s.09.25.09.48v1.94l-.33.18-.06-.56-.03-.05v-1.28c0-.17-.03-.27-.1-.31-.06-.04-.19-.01-.38.09l-.47.27-.55.35-.04-.33.36-.25.41-.26.38-.22zm.62.79v.36l-1.14.61c-.11.06-.19.14-.24.24s-.07.19-.07.31v.18c0 .14.03.23.09.27s.15.01.28-.06a1.8 1.8 0 0 0 .31-.22c.12-.1.24-.23.35-.37s.23-.31.32-.49v.36a3.3 3.3 0 0 1-.16.27 4.2 4.2 0 0 1-.24.33c-.09.11-.19.22-.31.33a1.8 1.8 0 0 1-.36.26c-.14.07-.26.11-.37.11s-.19-.04-.25-.12c-.06-.09-.09-.21-.09-.38v-.3c0-.22.06-.41.17-.59a1.3 1.3 0 0 1 .49-.44l1.22-.65zm1.37-1.79v2.75l-.41.22v-2.75l.41-.22zm-.11-1.11c.08-.04.13-.02.13.08v.32c0 .1-.04.17-.13.21l-.2.11c-.08.05-.13.02-.13-.08v-.32c0-.1.04-.17.13-.21l.2-.1z" class="D"/><path d="M289.62 305.04l65.29-37.49v13.13l-65.29 37.49z" class="B J"/><path d="M319.66 292.35v3.9l-.43.23v-3.9l.43-.23zm1.61.74v.43l-1.65.88v-.43l1.65-.88zm.38-1.8v3.9l-.43.23v-3.9l.43-.23zm2.02-1.13a1.9 1.9 0 0 1 .63-.24c.16-.02.28.03.35.15s.11.33.11.62c0 .21-.02.4-.06.56s-.11.31-.2.43-.21.24-.36.34v.03c.06-.01.11-.01.16.01.06.01.11.05.15.1s.08.13.1.22l.33 1.06-.46.25-.3-1.06c-.04-.12-.1-.2-.17-.22s-.16-.01-.28.05l-.52.28-.37.19-.23.12.01-.42 1.09-.58c.17-.09.3-.19.39-.28s.17-.21.21-.33.06-.29.06-.49-.02-.33-.06-.41-.11-.12-.21-.11-.22.06-.39.15l-.69.38-.39.21-.07-.35.35-.22.35-.2.46-.25zm-.74.44v3.9l-.43.23v-3.9l.43-.23z" class="D"/><path d="M354.91 267.55l65.3-37.49v9.19c0 2.18-1.53 4.82-3.42 5.9l-61.88 35.53v-13.13z" class="B J"/><g clip-path="url(#U)"><path d="M376.39 262.05l-.34 1.76 1.36-1.17 3.94-6.81c.13-.22.2-.46.2-.67s-.07-.37-.2-.44l-.06-.03c-.13-.07-.3-.06-.48.05s-.35.28-.48.51l-3.94 6.81z" class="C G H"/><path d="M376.39 262.05l-.34 1.76 1.36-1.17 3.4-5.87-1.02-.59-3.4 5.88z" class="I"/><path d="M379.79 256.17l1.02.59m-1.7 5.29l2.72-1.56" class="C G H M"/></g><g class="I N"><path d="M399.41 247.99l-1.07.61v2.22c0 .44-.31.96-.68 1.18l-2.85 1.64v.72a.4.4 0 0 0 .68.39l2.15-1.24 1.56.34v-1.23l.21-.12a1.5 1.5 0 0 0 .68-1.18v-2.94c0-.44-.31-.61-.68-.4zm-2.19-.74l-3.92 2.25c-.38.22-.68.75-.68 1.18v2.94c0 .44.31.61.68.4l.21-.12v1.23l1.56-2.13 2.15-1.24a1.5 1.5 0 0 0 .68-1.18v-2.94c0-.43-.31-.61-.68-.39zm-2.31 3.17v.42l-.94.54v.53c0 .06.01.11.04.12s.07.01.13-.02l.9-.52.02.42-.35.22-.38.23-.38.22c-.15.09-.27.11-.36.06s-.14-.15-.14-.31v-1.63c0-.16.05-.32.14-.47s.21-.27.36-.36l.38-.22.38-.21.35-.17-.02.45-.9.51c-.06.03-.1.07-.13.12s-.04.11-.04.17v.42l.94-.54h0zm1.82.58a4.8 4.8 0 0 1-.42.27c-.24.14-.43.2-.58.2s-.25-.09-.31-.26-.1-.42-.1-.76.03-.63.1-.87a1.8 1.8 0 0 1 .31-.62c.14-.18.34-.33.58-.47l.28-.15.22-.09.2-.07-.04.46-.2.11-.2.11-.25.14c-.12.07-.2.14-.27.23s-.11.21-.14.35a3.1 3.1 0 0 0-.04.56c0 .23.01.4.04.51s.07.18.14.19.15-.01.27-.08l.39-.23.31-.21.05.41a3.9 3.9 0 0 1-.33.27z"/></g><path d="M132.07 216.86v12.3L433.56 56.04v-12.3c0-7.95-5.64-11.15-12.62-7.16L144.68 195.22c-6.96 4-12.62 13.68-12.62 21.63v.02z" class="O"/><use href="#x" fill="#f22071"/><path d="M402.74 59.81c0 2.25 1.59 3.14 3.55 2.01a7.8 7.8 0 0 0 3.55-6.1c0-2.25-1.59-3.14-3.55-2.01a7.8 7.8 0 0 0-3.55 6.1z" fill="#4bbc79"/><path d="M296.83 125.3l96.47-56.07c1.43-.83 2.59-3.06 2.59-4.99s-1.16-2.8-2.59-1.98l-96.47 56.07c-1.43.83-2.59 3.06-2.59 4.99s1.16 2.8 2.59 1.98z" fill="#dcdcdc"/><g class="K"><path d="M146.6 203.77c.62-.37 1.14-.6 1.57-.7.43-.11.77-.06 1.03.15.26.19.46.56.58 1.11.12.53.18 1.26.18 2.17a13.9 13.9 0 0 1-.18 2.39 6.4 6.4 0 0 1-.58 1.79 4.9 4.9 0 0 1-1.03 1.38 9 9 0 0 1-1.57 1.16c-.62.37-1.14.61-1.57.72s-.78.06-1.04-.14-.46-.57-.58-1.1a11.2 11.2 0 0 1-.17-2.18 14.6 14.6 0 0 1 .17-2.38c.12-.69.31-1.28.58-1.79.26-.52.61-.98 1.04-1.39a8.6 8.6 0 0 1 1.57-1.18zm0 1.58c-.4.24-.71.52-.94.84-.22.31-.38.73-.48 1.25a11.9 11.9 0 0 0-.14 1.99 9 9 0 0 0 .14 1.82c.1.4.26.63.48.68.23.05.54-.04.94-.28.39-.23.7-.51.93-.83s.38-.73.47-1.25.14-1.17.14-1.98a9 9 0 0 0-.14-1.83c-.09-.4-.25-.63-.47-.68s-.53.04-.93.28zm5.89-2.33l.2 1.17.16.08v5.05l-1.66.99v-6.51l1.3-.78zm2.73-1.8l-.16 1.89-.46.28c-.26.16-.54.37-.83.63l-1.09 1.06-.11-1.03c.39-.64.79-1.18 1.19-1.63a5.1 5.1 0 0 1 1.16-1.01l.29-.18zm3.25-1.94c.65-.39 1.16-.62 1.54-.71.38-.09.66-.03.83.16.17.19.26.54.26 1.04a3.5 3.5 0 0 1-1.09 2.49c-.38.37-.9.75-1.55 1.14a6.1 6.1 0 0 1-1.56.72c-.38.09-.66.03-.83-.17s-.25-.55-.25-1.04.08-.94.25-1.33c.17-.41.45-.8.84-1.17.39-.37.91-.76 1.56-1.14zm-.01 1.19c-.41.25-.7.49-.86.71-.16.22-.24.49-.24.83 0 .32.08.51.24.54s.45-.07.86-.32a2.7 2.7 0 0 0 .85-.7c.16-.23.24-.5.24-.83 0-.33-.08-.51-.24-.54-.15-.04-.43.06-.85.31zm3.28-2.97l-.09.87-1.49 1.12-.41-.8 1.99-1.19zm-4.95 6.52l.83-.34c-.11.14-.18.3-.23.48-.04.17-.03.31.03.4s.19.1.4 0l2.06-.95c.59-.28 1-.34 1.24-.16.24.16.36.54.36 1.14a3.4 3.4 0 0 1-.29 1.47c-.2.43-.51.82-.94 1.19s-1 .77-1.72 1.2a11.9 11.9 0 0 1-1.46.77 2 2 0 0 1-.89.22c-.22-.02-.37-.12-.46-.32-.09-.18-.14-.46-.14-.81 0-.27.04-.53.13-.77.08-.25.23-.52.43-.8a7.4 7.4 0 0 1 .84-.94l.82-.84.6-.09-.45.63-.46.69c-.11.17-.2.33-.25.47-.04.13-.07.29-.07.46 0 .2.04.33.11.39.08.07.21.06.41-.02a5.8 5.8 0 0 0 .83-.43l.85-.57c.2-.16.34-.31.42-.46.08-.16.12-.33.12-.52 0-.17-.03-.27-.08-.32s-.15-.05-.28-.01a3.4 3.4 0 0 0-.55.23l-1.75.82c-.29.14-.52.18-.69.14-.17-.06-.28-.18-.34-.35s-.08-.38-.06-.61c.03-.24.1-.48.22-.72s.26-.46.43-.64zm6.69-3.05c.22-.13.37-.17.45-.11.09.04.14.19.14.45v.63c0 .25-.04.46-.14.62-.08.15-.23.28-.45.42l-.43.26c-.22.13-.37.18-.46.13-.08-.06-.12-.21-.12-.47v-.63c0-.25.04-.46.12-.6.09-.16.25-.31.46-.44l.43-.26zm5.74-8.11c1.06-.63 1.58-.34 1.58.86v4.88l-1.67 1v-4.27c0-.29-.05-.46-.14-.51-.09-.06-.24-.02-.46.11a3.9 3.9 0 0 0-.75.6 16.5 16.5 0 0 0-.95 1.07l-.15-.91c.41-.67.84-1.24 1.27-1.72.43-.49.85-.85 1.27-1.1zm-2.22-1.22l.01 2.25a8.8 8.8 0 0 1-.06 1.01l-.11.85.16.08v5.05l-1.66.99v-9.22l1.66-.99zm6.76-1.32v4.28c0 .27.05.44.15.49.11.05.27.01.5-.13.23-.14.46-.32.69-.56l.87-1.01.12.99c-.41.65-.81 1.19-1.2 1.63-.38.43-.79.77-1.21 1.03-1.06.63-1.58.34-1.58-.86v-4.88l1.66-.99zm3.7-2.21v6.51l-1.31.78-.19-1.16-.17-.08v-5.05l1.67-1zm4.88-3.09c.74-.44 1.27-.49 1.58-.16.32.32.49 1.09.49 2.29a8.4 8.4 0 0 1-.12 1.46c-.08.47-.22.92-.42 1.36a4.8 4.8 0 0 1-.82 1.22c-.36.38-.81.74-1.38 1.07l-.68.37-.79.38-.76.31a3.1 3.1 0 0 1-.62.13l1.34-1.92c.14-.03.3-.08.47-.14l.53-.24.47-.28c.26-.17.47-.35.62-.56.15-.21.26-.48.33-.81a6.3 6.3 0 0 0 .11-1.31c0-.48-.03-.84-.09-1.06-.05-.24-.16-.37-.31-.39-.14-.03-.35.04-.62.2-.25.15-.48.34-.68.59l-.68.88-.12-.84c.2-.36.41-.71.63-1.04s.47-.62.72-.88c.26-.27.52-.48.79-.64zm-1.86-1.44l.01 2.1c0 .3-.01.6-.04.9a6.4 6.4 0 0 1-.14.88l.16.08.01 5-1.67.91v-8.87l1.67-1z"/><rect x=".41" y=".24" width="42.99" height="12.18" rx="2.17" transform="matrix(.8672 -.498 0 1 141.818 233.543)" stroke="#e5f1ff" stroke-width=".94"/></g><path d="M149.51 233.75c.19-.11.36-.18.49-.2s.24 0 .32.07.14.2.18.38a3.5 3.5 0 0 1 .06.71 4.7 4.7 0 0 1-.06.78c-.03.22-.09.41-.18.58s-.19.31-.32.44-.29.25-.49.36l-.51.28-.44.23.16-.44.35-.19.44-.25c.16-.09.29-.2.39-.33s.16-.29.2-.48c.04-.2.06-.45.06-.75a2.7 2.7 0 0 0-.06-.67c-.04-.15-.1-.24-.2-.26s-.22.01-.39.11l-.42.25-.37.22-.16-.25.44-.28.51-.31zm-.57.37v3.04l-.38.22v-3.04l.38-.22zm2.91-.84c.29-.16.5-.22.62-.18s.19.18.19.41c0 .19-.03.36-.11.51s-.19.27-.36.37l-1.08.62v-.3l.98-.56c.08-.05.14-.11.16-.19s.04-.15.04-.23c0-.13-.04-.21-.1-.22s-.18.02-.33.11c-.13.07-.23.15-.31.24s-.13.19-.16.32-.04.28-.04.48c0 .22.02.38.05.47s.1.14.18.14.19-.05.33-.12l.32-.2.33-.23.04.25c-.06.06-.14.13-.22.2l-.27.19-.25.16c-.22.13-.39.19-.53.19s-.23-.07-.29-.19-.09-.33-.09-.6c0-.28.03-.52.09-.72s.16-.37.29-.51.3-.28.5-.39zm2.38-1.36c.23-.13.39-.13.49.01s.15.39.15.76c0 .28-.03.52-.08.71s-.13.35-.23.48-.23.24-.39.33c-.12.07-.25.12-.37.15s-.23.03-.34.01l.02-.25.3-.08c.09-.03.18-.07.28-.13.1-.06.19-.13.25-.2s.11-.18.14-.31.04-.29.04-.5a1.7 1.7 0 0 0-.04-.44c-.03-.1-.07-.16-.13-.17s-.13 0-.22.05-.19.14-.29.24-.2.24-.32.42l-.04-.24c.06-.12.14-.23.22-.34a2.4 2.4 0 0 1 .28-.3c.1-.09.19-.16.28-.22zm-.79.51l.04.41.03.04v1.38l-.01.06.01.23v.25.6l-.37.21v-3.02l.3-.17zm2.82-1.67c.14-.08.26-.13.36-.14s.17.01.22.09.08.2.08.38v1.49l-.29.17-.06-.43-.02-.04v-.98c0-.13-.03-.2-.08-.23s-.15 0-.29.08l-.37.23-.43.28-.03-.28.29-.21.32-.22.3-.19zm.49.6v.3l-.88.51c-.09.05-.15.11-.18.18a.5.5 0 0 0-.05.23v.13c0 .11.02.17.06.2s.12 0 .21-.05c.07-.04.15-.1.24-.18a2.8 2.8 0 0 0 .27-.29c.09-.12.17-.24.24-.38v.28c-.03.06-.06.13-.11.22a2.9 2.9 0 0 1-.19.27c-.07.09-.15.18-.24.27s-.18.16-.29.22c-.11.06-.21.1-.3.1s-.15-.03-.2-.09-.07-.16-.07-.29v-.23c0-.17.05-.32.14-.47a1.1 1.1 0 0 1 .39-.36l.96-.55zm1.01-1.4l.05.39.03.04v1.67l-.37.21v-2.15l.29-.16zm.91-.58l-.04.42-.12.07c-.1.06-.21.14-.32.25l-.39.43-.03-.24a4.1 4.1 0 0 1 .41-.53c.14-.15.28-.27.4-.34l.08-.05zm.87-1.07v2.16c0 .1.02.16.05.19s.1 0 .19-.05l.28-.16.04.29c-.04.04-.09.08-.15.12l-.16.11-.13.08c-.16.09-.28.11-.36.06s-.13-.17-.13-.36v-2.23l.37-.21zm.58.3v.32l-1.29.74v-.29l.37-.23.92-.53zm2.66-1.58c.16-.09.29-.11.37-.06s.13.17.13.37v1.61l-.37.21v-1.49c0-.12-.02-.2-.06-.23-.04-.04-.11-.03-.21.03-.06.03-.12.08-.18.14s-.12.13-.19.22l-.25.34-.02-.28c.13-.21.26-.39.39-.53s.25-.25.39-.32zm-1.98 1.19l.03.4.04.04v1.67l-.37.21v-2.15l.3-.17zm.77-.5c.16-.09.28-.11.37-.06s.13.17.13.37v1.61l-.36.2v-1.49c0-.13-.02-.21-.07-.23s-.12-.02-.21.03c-.06.03-.12.08-.18.14s-.12.12-.19.22l-.25.34-.02-.27c.13-.21.26-.39.38-.53s.26-.25.39-.32zm3.06-1.75c.29-.16.49-.22.62-.18s.2.18.2.41c0 .19-.03.36-.11.51s-.19.27-.36.37l-1.08.62v-.3l.98-.56c.08-.05.14-.11.16-.19s.04-.15.04-.23c0-.13-.04-.21-.1-.22s-.17.02-.33.11c-.13.07-.23.15-.31.24s-.13.19-.16.32-.04.28-.04.48c0 .22.02.38.05.47s.1.14.18.14.19-.05.33-.12l.32-.2.33-.23.04.25c-.06.06-.13.13-.22.2l-.27.19-.25.16c-.22.13-.39.19-.53.19s-.23-.07-.29-.19-.09-.33-.09-.6c0-.28.03-.52.09-.72s.16-.37.29-.51.3-.28.5-.39zm2.44-1.4c.34-.19.51-.09.51.3v1.61l-.37.21v-1.49c0-.13-.02-.22-.06-.24s-.1-.02-.19.03c-.11.06-.22.16-.33.28l-.39.47-.01-.28a4.3 4.3 0 0 1 .43-.55c.14-.15.28-.27.42-.35zm-.86.55l.03.39.03.05v1.67l-.37.21v-2.15l.31-.17zm2.44-2.03v2.16c0 .1.02.16.05.18s.1 0 .19-.05l.28-.16.04.29-.15.12-.16.11-.13.08c-.16.09-.28.11-.36.06s-.13-.17-.13-.36v-2.23l.37-.21zm.58.3v.32l-1.29.74v-.29l.37-.23.92-.53z" class="D"/><rect width="43.93" height="13.13" rx="2.64" transform="matrix(.8672 -.498 0 1 184.117 209.27)" class="O"/><path d="M195.72 207.73c.21-.12.38-.19.5-.21s.22.01.28.11.09.25.09.48c0 .16-.02.31-.05.43s-.09.24-.16.34-.16.19-.28.28v.02c.04-.01.09-.01.13 0s.08.04.12.08.07.1.08.18l.25.81-.4.23-.23-.81c-.03-.09-.07-.15-.13-.17s-.12 0-.21.05l-.41.24-.29.16-.19.1.01-.36.87-.5c.13-.07.22-.15.29-.22s.12-.16.15-.25.05-.22.05-.36-.02-.24-.05-.3-.08-.09-.15-.07-.17.05-.29.12l-.55.32-.31.18-.05-.3.28-.18.28-.17.37-.22zm-.55.35v3.04l-.38.22v-3.04l.38-.22zm2.73-.73c.29-.16.49-.22.62-.18s.2.18.2.41c0 .19-.03.36-.11.51s-.19.27-.36.37l-1.08.62v-.3l.98-.56c.08-.05.14-.11.16-.19s.04-.15.04-.23c0-.13-.04-.2-.1-.22s-.17.02-.33.11c-.13.07-.23.16-.31.24s-.13.19-.16.32-.04.28-.04.48c0 .22.02.38.05.47.04.09.1.14.18.13s.19-.05.33-.12l.32-.2.33-.23.04.26a2.4 2.4 0 0 1-.22.2l-.27.19-.25.16c-.22.13-.39.19-.53.19s-.23-.06-.29-.19-.09-.33-.09-.6c0-.28.03-.52.09-.72s.16-.37.29-.51a2 2 0 0 1 .5-.39zm2.09-1.2l.19-.1c.07-.03.14-.07.22-.09s.15-.05.21-.05l-.05.3-.27.14-.24.13c-.14.08-.25.17-.34.26s-.14.2-.18.33-.05.3-.05.5.02.35.05.44.09.14.18.14.2-.05.34-.13l.15-.09.2-.13.21-.15.03.26c-.09.09-.2.18-.31.27l-.34.23c-.22.13-.39.19-.53.19s-.22-.06-.28-.19-.09-.34-.09-.61a2.5 2.5 0 0 1 .09-.71c.06-.2.16-.37.29-.52s.31-.29.53-.41zm1.36-.73l.05.39.03.04v1.67l-.37.21v-2.15l.29-.16zm.91-.58l-.04.42-.12.07c-.1.06-.21.15-.32.25l-.39.43-.03-.24c.13-.21.27-.38.41-.53s.28-.27.41-.34l.08-.05zm.71-.35v1.49c0 .13.02.21.06.24s.12.01.22-.05.2-.14.29-.25a7.3 7.3 0 0 0 .36-.44l.04.25a4.2 4.2 0 0 1-.42.54c-.14.14-.27.26-.41.34-.34.2-.51.1-.51-.3v-1.61l.37-.21zm1.27-.73v2.15l-.3.17-.03-.39-.04-.04v-1.67l.37-.21zm.95-.54v2.15l-.36.21v-2.15l.36-.21zm-.09-.86c.07-.04.11-.02.11.06v.25c0 .09-.04.15-.11.19l-.17.1c-.07.04-.11.02-.11-.06v-.25c0-.09.04-.15.11-.19l.17-.1zm1.2-.4v2.16c0 .1.02.16.05.19s.1 0 .19-.05l.27-.16.04.29c-.04.04-.09.08-.15.12l-.16.11-.13.08c-.16.09-.28.11-.36.06s-.12-.17-.12-.36v-2.23l.37-.21zm.58.3v.32l-1.28.74v-.3l.37-.23.92-.53zm1.16-.72c.29-.16.49-.22.62-.18.13.04.19.18.19.41 0 .19-.03.36-.11.51s-.19.27-.36.37l-1.07.62v-.3l.98-.56c.08-.05.14-.11.16-.19s.04-.15.04-.23c0-.13-.04-.21-.1-.22s-.17.02-.33.11c-.13.07-.23.15-.31.24s-.13.19-.16.32-.04.29-.04.48a1.5 1.5 0 0 0 .05.48c.04.09.1.14.18.13a.8.8 0 0 0 .33-.12l.32-.2.33-.23.04.25c-.06.06-.13.13-.22.2l-.27.19-.25.16c-.22.13-.39.19-.53.19s-.23-.06-.29-.19-.09-.33-.09-.6c0-.28.03-.52.09-.72s.16-.37.29-.51a2 2 0 0 1 .5-.39zm1.57-.85l.05.39.03.04v1.67l-.37.21v-2.15l.29-.16zm.91-.58l-.04.42-.12.07c-.1.06-.21.14-.32.25l-.39.43-.03-.25c.13-.21.27-.38.41-.53s.28-.27.41-.34l.08-.05z" class="K"/></g><defs><linearGradient id="A" x1="570.01" y1="398.29" x2="108.94" y2="398.29" href="#y"><stop stop-color="#a6ceff"/><stop offset="1" stop-color="#9cc5f8"/></linearGradient><linearGradient id="B" x1="466" y1="82.55" x2="236.9" y2="523.53" href="#y"><stop stop-color="#fff"/><stop offset="1" stop-color="#d4e7fe"/></linearGradient><linearGradient id="C" x1="524.03" y1="285.27" x2="156.43" y2="498.84" href="#y"><stop stop-color="#bdd2f4"/><stop offset="1" stop-color="#e5faff"/></linearGradient><linearGradient id="D" x1="914.3" y1="27.53" x2="654.65" y2="178.37" href="#y"><stop stop-color="#bdd2f4"/><stop offset="1" stop-color="#e7f2ff"/></linearGradient><linearGradient id="E" x1="630.14" y1="287.47" x2="549" y2="334.61" href="#y"><stop stop-color="#bdd2f4"/><stop offset="1" stop-color="#d3e7ff"/></linearGradient><linearGradient id="F" x1="508.1" y1="167.79" x2="518.91" y2="187.63" href="#y"><stop stop-color="#0f042e"/><stop offset="1" stop-color="#1c1265"/></linearGradient><linearGradient id="G" x1="-59.76" y1="394.63" x2="-351.86" y2="564.33" href="#y"><stop stop-color="#e5faff"/><stop offset="1" stop-color="#bdd2f4"/></linearGradient><linearGradient id="H" x1="378.52" y1="54.85" x2="115.38" y2="380.67" href="#y"><stop stop-color="#3b92ff"/><stop offset="1" stop-color="#4f9eff"/></linearGradient><linearGradient id="I" x1="-55.94" y1="395.55" x2="-348.04" y2="565.25" href="#y"><stop stop-color="#1c1265"/><stop offset="1" stop-color="#0f042e"/></linearGradient><linearGradient id="J" x1="204.88" y1="288.1" x2="282.35" y2="143.13" href="#y"><stop stop-color="#f5f5f5"/><stop offset=".05" stop-color="#c7c7c7"/><stop offset=".09" stop-color="#9c9c9c"/><stop offset=".14" stop-color="#777"/><stop offset=".2" stop-color="#565656"/><stop offset=".25" stop-color="#3b3b3b"/><stop offset=".32" stop-color="#252525"/><stop offset=".4" stop-color="#141414"/><stop offset=".49" stop-color="#080808"/><stop offset=".63" stop-color="#010101"/><stop offset="1"/></linearGradient><clipPath id="K"><path d="M0 0h600v600H0z" class="K"/></clipPath><clipPath id="L"><path transform="matrix(.8672 -.498 0 1 374.686 138.594)" d="M0 0h9.41v9.41H0z" class="K"/></clipPath><clipPath id="M"><path transform="matrix(.8672 -.498 0 1 374.686 151.719)" d="M0 0h9.41v9.41H0z" class="K"/></clipPath><clipPath id="N"><path transform="matrix(.8672 -.498 0 1 374.686 164.848)" d="M0 0h9.41v9.41H0z" class="K"/></clipPath><clipPath id="O"><path transform="matrix(.8672 -.498 0 1 374.686 177.977)" d="M0 0h9.41v9.41H0z" class="K"/></clipPath><clipPath id="P"><path transform="matrix(.8672 -.498 0 1 374.686 191.105)" d="M0 0h9.41v9.41H0z" class="K"/></clipPath><clipPath id="Q"><path transform="matrix(.8672 -.498 0 1 374.686 204.234)" d="M0 0h9.41v9.41H0z" class="K"/></clipPath><clipPath id="R"><path transform="matrix(.8672 -.498 0 1 374.686 217.363)" d="M0 0h9.41v9.41H0z" class="K"/></clipPath><clipPath id="S"><path transform="matrix(.8672 -.498 0 1 374.686 230.488)" d="M0 0h9.41v9.41H0z" class="K"/></clipPath><clipPath id="T"><path transform="matrix(.8672 -.498 0 1 374.686 243.617)" d="M0 0h9.41v9.41H0z" class="K"/></clipPath><clipPath id="U"><path transform="matrix(.8672 -.498 0 1 374.686 256.746)" d="M0 0h9.41v9.41H0z" class="K"/></clipPath><path id="V" d="M303 520.683L565.592 370.03C570.945 366.961 570.271 361.586 564.095 358.033L397.231 262.303C391.036 258.75 381.678 258.36 376.326 261.447L113.733 412.12C108.38 415.189 109.054 420.564 115.23 424.116L282.095 519.846C288.289 523.399 297.647 523.789 303 520.702V520.683Z"/><path id="W" d="M372.47 300.5l9.64-5.52c1.24-.71 1.07-1.93-.34-2.75l-2.81-1.62c-1.42-.82-3.57-.91-4.79-.2l-9.64 5.52c-1.24.71-1.07 1.93.34 2.75l2.81 1.62c1.42.82 3.57.91 4.79.2z"/><path id="X" d="M357.05 309.36l9.64-5.52c1.24-.71 1.07-1.94-.34-2.75l-2.81-1.62c-1.42-.82-3.57-.91-4.79-.2l-9.64 5.52c-1.24.71-1.07 1.94.34 2.75l2.81 1.62c1.42.82 3.57.91 4.79.21z"/><path id="Y" d="M387.16 308.02l8.93-5.12c.82-.46.71-1.28-.22-1.84l-8.38-4.82c-.95-.54-2.38-.59-3.2-.13l-8.93 5.11c-.82.46-.71 1.28.22 1.84l8.38 4.82c.95.54 2.38.59 3.2.13z"/><path id="Z" d="M371.8 316.83l8.93-5.12c.82-.46.71-1.28-.22-1.84l-8.38-4.82c-.95-.54-2.38-.59-3.2-.13l-8.93 5.12c-.82.46-.71 1.28.22 1.84l8.38 4.82c.95.54 2.38.6 3.2.13z"/><path id="a" d="M333.95 354.61l8.93-5.11c.82-.47.71-1.28-.22-1.84l-8.38-4.82c-.95-.54-2.38-.6-3.2-.13l-8.93 5.12c-.82.47-.71 1.28.22 1.84l8.38 4.82c.95.54 2.38.6 3.2.13z"/><path id="b" d="M318.96 363.22l8.93-5.11c.82-.47.71-1.28-.22-1.84l-8.38-4.82c-.95-.54-2.38-.6-3.2-.13l-8.93 5.11c-.82.47-.71 1.28.22 1.84l8.39 4.82c.95.54 2.38.6 3.2.13z"/><path id="c" d="M303.97 371.82l8.93-5.12c.82-.46.71-1.28-.22-1.84l-8.38-4.82c-.95-.54-2.38-.6-3.2-.13l-8.93 5.12c-.82.46-.71 1.28.22 1.84l8.38 4.82c.95.54 2.38.6 3.2.13z"/><path id="d" d="M259 397.6l8.93-5.12c.82-.46.71-1.28-.23-1.84l-8.38-4.82c-.95-.54-2.38-.59-3.2-.13l-8.93 5.11c-.82.46-.71 1.28.22 1.84l8.38 4.82c.95.54 2.38.59 3.2.13z"/><path id="e" d="M244.01 406.22l8.93-5.12c.82-.47.71-1.28-.22-1.84l-8.38-4.82c-.96-.54-2.38-.59-3.2-.13l-8.93 5.12c-.82.46-.71 1.28.22 1.84l8.38 4.82c.95.54 2.38.59 3.2.13z"/><path id="f" d="M318.18 379.96l8.93-5.12c.82-.46.71-1.28-.23-1.84l-8.38-4.82c-.95-.54-2.38-.59-3.2-.13l-8.93 5.12c-.82.46-.71 1.28.23 1.84l8.38 4.82c.96.54 2.38.6 3.2.13z"/><path id="g" d="M348.16 362.76l8.93-5.11c.82-.46.71-1.28-.22-1.84l-8.38-4.82c-.95-.54-2.38-.59-3.2-.13l-8.93 5.12c-.82.47-.71 1.28.22 1.84l8.38 4.82c.95.54 2.38.59 3.2.13z"/><path id="h" d="M421.49 345.54l9.98-5.73c.52-.3.47-.84-.15-1.19l-2.75-1.58c-.62-.35-1.55-.39-2.08-.09l-9.98 5.73c-.52.3-.47.84.15 1.19l2.75 1.58c.62.35 1.55.39 2.08.09z"/><path id="i" d="M142.71 271.25l81.62-46.87v13.13l-81.62 46.87z"/><path id="j" d="M224.32 224.38l65.29-37.49v13.13l-65.29 37.49z"/><path id="k" d="M249.5 214.23l.37-.19.28-.11.27-.08-.04.4-.27.12-.26.13-.34.17c-.22.12-.39.26-.52.42s-.22.38-.27.64a5.1 5.1 0 0 0-.08.98c0 .4.03.69.08.9s.15.31.27.34.3-.01.52-.13l.52-.29.42-.27.04.35a4.5 4.5 0 0 1-.44.33 6 6 0 0 1-.55.33c-.32.17-.58.25-.78.22s-.33-.17-.42-.41-.13-.62-.13-1.12.04-.91.13-1.25.23-.63.42-.86.46-.44.78-.61zm3-.45c.43-.23.65-.09.65.41v2.06l-.42.22v-1.93c0-.18-.03-.3-.08-.34s-.14-.03-.26.03c-.15.08-.29.2-.44.35l-.52.63-.02-.33c.19-.26.37-.49.55-.68s.36-.34.54-.43zm-1.03-.58v1.09l-.02.36a2.6 2.6 0 0 1-.03.31l.04.06v2.14l-.42.22v-3.95l.42-.22zm3.41-.68c.36-.19.62-.25.78-.19s.24.24.24.54a1.4 1.4 0 0 1-.13.65c-.09.18-.24.33-.44.44l-1.39.74v-.37l1.28-.69c.11-.06.18-.14.21-.24s.05-.21.05-.31c0-.18-.05-.28-.14-.31s-.24.01-.45.13c-.17.09-.31.2-.41.31-.1.11-.17.25-.21.42-.04.16-.06.38-.06.64 0 .29.02.5.07.63s.13.19.25.19.26-.05.44-.15l.42-.24.41-.27.04.3a2.6 2.6 0 0 1-.28.23l-.34.23-.31.18c-.27.15-.5.22-.66.21s-.29-.1-.37-.27c-.08-.17-.11-.44-.11-.79 0-.36.04-.67.11-.91s.2-.47.36-.64.37-.33.63-.47zm3.1-1.65c.43-.23.65-.09.65.41v2.06l-.42.22v-1.93c0-.18-.03-.3-.08-.34s-.14-.03-.26.03c-.15.08-.29.2-.44.36l-.52.62-.02-.33a5.5 5.5 0 0 1 .55-.68 2.2 2.2 0 0 1 .54-.43zm-1.1.65l.03.51.03.07v2.14l-.42.22v-2.75l.35-.19zm3.94-2.17c.43-.23.65-.09.65.41v2.06l-.42.22v-1.93c0-.19-.03-.3-.08-.34s-.14-.03-.26.03c-.15.08-.29.2-.44.36l-.52.62-.02-.33a5.5 5.5 0 0 1 .55-.68c.18-.19.36-.34.54-.43zm-1.1.65l.03.51.03.07v2.14l-.42.22v-2.75l.35-.19zm3.62-2c.18-.09.32-.14.44-.15s.22.03.28.12.09.25.09.48v1.94l-.33.18-.06-.56-.03-.05v-1.28c0-.17-.03-.27-.1-.31s-.19-.01-.38.09l-.47.27-.55.35-.04-.34.36-.26.41-.26.38-.22zm.62.79v.36l-1.14.62c-.11.06-.19.14-.24.23s-.07.19-.07.31v.17c0 .14.03.23.09.27s.15.01.28-.06c.09-.05.19-.12.31-.22.12-.1.24-.23.35-.37a3.2 3.2 0 0 0 .32-.49v.36a3.3 3.3 0 0 1-.16.27 4 4 0 0 1-.24.33c-.09.11-.19.22-.31.33-.11.1-.23.19-.36.26-.14.07-.26.11-.37.11s-.19-.04-.25-.12-.09-.21-.09-.38v-.3c0-.21.06-.41.17-.59a1.3 1.3 0 0 1 .49-.44l1.22-.65zm1.37-1.79v2.75l-.41.22v-2.75l.41-.22zm-.11-1.11c.08-.05.13-.02.13.08v.32c0 .1-.04.17-.13.22l-.2.1c-.08.05-.13.02-.13-.08v-.32c0-.1.04-.17.13-.22l.2-.1z"/><path id="l" d="M319.66 174.2v3.9l-.43.23v-3.9l.43-.23zm1.61.74v.43l-1.65.88v-.43l1.65-.88zm.38-1.8v3.9l-.43.23v-3.9l.43-.23zm2.02-1.13c.26-.14.47-.22.63-.24s.28.03.35.15.11.33.11.62c0 .21-.02.4-.06.56s-.11.31-.2.44c-.09.12-.21.24-.36.34v.03c.06-.02.11-.01.16.01.06.01.11.05.15.1s.08.13.1.22l.33 1.06-.46.24-.3-1.06c-.04-.12-.1-.2-.17-.22s-.16-.01-.28.05l-.52.28-.37.19-.23.12.01-.42 1.09-.58c.17-.09.3-.18.39-.28s.17-.21.21-.33.06-.29.06-.49-.02-.33-.06-.41-.11-.12-.21-.11-.22.06-.39.15l-.69.38-.39.21-.07-.35.35-.22.35-.2.46-.25zm-.74.45v3.9l-.43.23v-3.9l.43-.23z"/><path id="m" d="M376.39 143.89l-.34 1.76 1.36-1.17 3.94-6.81c.13-.22.2-.46.2-.67s-.07-.37-.2-.44l-.06-.03c-.13-.07-.3-.06-.48.05s-.35.28-.48.5l-3.94 6.81z"/><path id="n" d="M376.39 143.89l-.34 1.76 1.36-1.17 3.4-5.87-1.02-.59-3.4 5.87z"/><path id="o" d="M379.79 138.02l1.02.59m-1.7 5.29l2.72-1.56"/><path id="p" d="M399.41 129.84l-1.07.61v2.22a1.5 1.5 0 0 1-.68 1.18l-2.85 1.64v.72c0 .43.31.61.68.39l2.15-1.24 1.56.34v-1.23l.21-.12a1.5 1.5 0 0 0 .68-1.18v-2.94c0-.44-.31-.61-.68-.4z"/><path id="q" d="M397.22 129.09l-3.92 2.25c-.38.22-.68.75-.68 1.18v2.94c0 .43.31.61.68.39l.21-.12v1.23l1.56-2.13 2.15-1.24c.38-.22.68-.75.68-1.18v-2.94c0-.44-.31-.61-.68-.4zm-2.31 3.17v.42l-.94.54v.53c0 .06.01.11.04.12s.07.01.13-.02l.9-.51.02.42-.35.22-.38.23-.38.22c-.15.09-.27.1-.36.06s-.14-.15-.14-.31v-1.63c0-.17.05-.32.14-.47s.21-.27.36-.35l.38-.22.38-.21.35-.17-.02.45-.9.51c-.06.03-.1.07-.13.12s-.04.11-.04.17v.42l.94-.54h0zm1.82.58c-.11.08-.25.17-.42.27-.24.14-.43.2-.58.2s-.25-.09-.31-.26-.1-.42-.1-.76.03-.63.1-.87a1.6 1.6 0 0 1 .31-.62c.15-.17.34-.33.58-.47l.28-.15.22-.09a2.1 2.1 0 0 1 .2-.07l-.04.46-.2.11-.2.11-.25.14c-.12.07-.2.14-.27.23s-.11.21-.14.35a3.1 3.1 0 0 0-.04.56c0 .23.01.4.04.51s.07.18.14.19.15-.01.27-.08l.39-.23.31-.21.05.41a3.6 3.6 0 0 1-.33.27z"/><path id="r" d="M376.39 170.14l-.34 1.76 1.36-1.17 3.94-6.81c.13-.22.2-.46.2-.67s-.07-.37-.2-.44l-.06-.03c-.13-.07-.3-.06-.48.05a1.4 1.4 0 0 0-.48.51l-3.94 6.81z"/><path id="s" d="M399.41 156.1l-1.07.61v2.22a1.5 1.5 0 0 1-.68 1.18l-2.85 1.64v.72c0 .44.31.61.68.4l2.15-1.24 1.56.34v-1.23l.21-.12a1.5 1.5 0 0 0 .68-1.18v-2.94c0-.44-.31-.61-.68-.39z"/><path id="t" d="M399.41 182.36l-1.07.61v2.22a1.5 1.5 0 0 1-.68 1.18l-2.85 1.64v.72c0 .44.31.61.68.4l2.15-1.24 1.56.34v-1.23l.21-.12a1.5 1.5 0 0 0 .68-1.18v-2.94c0-.44-.31-.61-.68-.4z"/><path id="u" d="M376.39 209.54l-.34 1.76 1.36-1.17 3.4-5.87-1.02-.59-3.4 5.88z"/><path id="v" d="M397.22 207.86l-3.92 2.25a1.5 1.5 0 0 0-.68 1.18v2.94c0 .44.31.61.68.4l.21-.12v1.23l1.56-2.13 2.15-1.24c.38-.22.68-.75.68-1.18v-2.94c0-.44-.31-.61-.68-.4zm-2.31 3.17v.42l-.94.54v.53c0 .06.01.11.04.12s.07.01.13-.02l.9-.51.02.42-.35.22-.38.23-.38.22c-.15.09-.27.1-.36.06s-.14-.15-.14-.31v-1.63c0-.16.05-.32.14-.47a1 1 0 0 1 .36-.35l.38-.22.38-.21.35-.17-.02.45-.9.51c-.06.03-.1.07-.13.12s-.04.11-.04.18v.42l.94-.54h0zm1.82.58a5 5 0 0 1-.42.27c-.24.14-.43.2-.58.2s-.25-.09-.31-.26-.1-.42-.1-.76.03-.63.1-.87.17-.45.31-.62.34-.33.58-.47l.28-.15.22-.09.2-.06-.04.46-.2.11-.2.11-.25.14c-.12.07-.2.14-.27.23s-.11.21-.14.35a3.1 3.1 0 0 0-.04.56c0 .23.01.39.04.51s.07.18.14.19.15-.01.27-.08l.39-.23.31-.21.05.41c-.11.1-.22.19-.33.28z"/><path id="w" d="M376.39 248.91l-.34 1.76 1.36-1.17 3.94-6.81c.13-.22.2-.46.2-.67s-.07-.37-.2-.44l-.06-.03c-.13-.07-.3-.06-.48.05s-.35.28-.48.51l-3.94 6.81z"/><path id="x" d="M417.18 51.52c0 2.25 1.59 3.14 3.55 2.01a7.8 7.8 0 0 0 3.55-6.1c0-2.25-1.59-3.14-3.55-2.01a7.8 7.8 0 0 0-3.55 6.1z"/><linearGradient id="y" gradientUnits="userSpaceOnUse"/></defs></svg>