<svg width="60" height="60" viewBox="0 0 60 60" fill="none" xmlns="http://www.w3.org/2000/svg">
<mask id="mask0_16055_56806" style="mask-type:luminance" maskUnits="userSpaceOnUse" x="3" y="0" width="19" height="9">
<path d="M17.7278 0.672771L3.19238 8.38688C4.24398 7.82881 5.4888 7.59239 6.82098 7.77469L21.3564 0.0605629C20.0242 -0.121729 18.7794 0.114696 17.7278 0.672771Z" fill="white" style="fill:white;fill-opacity:1;"/>
</mask>
<g mask="url(#mask0_16055_56806)">
<path d="M6.82098 7.77549L21.3564 0.0607435C20.5344 -0.0518669 19.7455 -0.00520798 19.0154 0.178328L4.47993 7.89245C5.21075 7.70954 5.99897 7.66226 6.82098 7.77549Z" fill="#107BFF" style="fill:#107BFF;fill:color(display-p3 0.0644 0.4831 1.0000);fill-opacity:1;"/>
<path d="M4.48309 7.8899L19.0185 0.175781C18.6423 0.270349 18.2813 0.401002 17.9395 0.564629L3.40407 8.27875C3.74589 8.11512 4.10684 7.98447 4.48309 7.8899Z" fill="#107BFF" style="fill:#107BFF;fill:color(display-p3 0.0644 0.4831 1.0000);fill-opacity:1;"/>
<path d="M3.40497 8.28053L17.9404 0.566406C17.8703 0.600003 17.8001 0.63547 17.7319 0.671555L3.19643 8.38567C3.26531 8.34958 3.33482 8.31413 3.40497 8.28053Z" fill="#107BFF" style="fill:#107BFF;fill:color(display-p3 0.0644 0.4831 1.0000);fill-opacity:1;"/>
</g>
<mask id="mask1_16055_56806" style="mask-type:luminance" maskUnits="userSpaceOnUse" x="27" y="35" width="16" height="9">
<path d="M42.7216 35.8242C42.6126 35.8821 42.501 35.9381 42.3881 35.9922C37.5428 38.5636 32.698 41.1349 27.8527 43.7063C27.9656 43.6522 28.0772 43.5962 28.1862 43.5383C32.5469 41.2239 38.361 38.1386 42.7216 35.8242Z" fill="white" style="fill:white;fill-opacity:1;"/>
</mask>
<g mask="url(#mask1_16055_56806)">
<path d="M28.1862 43.5383L42.7216 35.8242C42.6132 35.8815 42.5029 35.9374 42.3907 35.991L27.8552 43.7051C27.9675 43.6516 28.0778 43.5962 28.1862 43.5383Z" fill="#258FB2" style="fill:#258FB2;fill:color(display-p3 0.1451 0.5608 0.6980);fill-opacity:1;"/>
<path d="M27.8503 43.7063L42.3857 35.9922C42.2607 36.0519 42.1338 36.1098 42.0044 36.1651C41.572 36.3499 41.132 36.4999 40.6849 36.6137L26.1495 44.3272C26.5965 44.214 27.0366 44.064 27.4689 43.8786C27.5984 43.8239 27.7253 43.766 27.8503 43.7063Z" fill="#2692B6" style="fill:#2692B6;fill:color(display-p3 0.1490 0.5725 0.7137);fill-opacity:1;"/>
</g>
<mask id="mask2_16055_56806" style="mask-type:luminance" maskUnits="userSpaceOnUse" x="42" y="45" width="18" height="15">
<path d="M42.2831 59.3195L56.8185 51.6054C58.7253 50.5931 59.9956 48.5226 59.9912 45.9805L45.4557 53.6946C45.4608 56.2367 44.1905 58.3073 42.2831 59.3195Z" fill="white" style="fill:white;fill-opacity:1;"/>
</mask>
<g mask="url(#mask2_16055_56806)">
<path d="M42.2831 59.3195L56.8185 51.6054C58.7253 50.5931 59.9963 48.5226 59.9912 45.9805L45.4557 53.6946C45.4608 56.2367 44.1905 58.3073 42.2831 59.3195Z" fill="#1A81FF" style="fill:#1A81FF;fill:color(display-p3 0.1029 0.5043 1.0000);fill-opacity:1;"/>
</g>
<path d="M6.80061 7.77163C3.05084 7.25773 -0.00764084 10.0649 1.14441e-05 14.0075L0.0637856 47.4764C0.0714378 51.419 3.14267 55.0667 6.8918 55.5813L38.6761 59.9395C42.4208 60.4527 45.4793 57.6456 45.4716 53.703L45.4079 20.234C45.4002 16.2914 42.329 12.6431 38.585 12.1298L6.80061 7.77163Z" fill="#0668E1" style="fill:#0668E1;fill:color(display-p3 0.0235 0.4078 0.8824);fill-opacity:1;"/>
<path d="M38.5827 12.1309L53.1181 4.41681L21.3338 0.0585938L6.79836 7.77334L38.5827 12.1309Z" fill="#107BFF" style="fill:#107BFF;fill:color(display-p3 0.0644 0.4831 1.0000);fill-opacity:1;"/>
<path d="M45.4636 53.7026L59.999 45.9878L59.9359 12.5195L45.3998 20.2337L45.4636 53.7026Z" fill="#1E83FF" style="fill:#1E83FF;fill:color(display-p3 0.1183 0.5128 1.0000);fill-opacity:1;"/>
<mask id="mask3_16055_56806" style="mask-type:luminance" maskUnits="userSpaceOnUse" x="38" y="4" width="22" height="17">
<path d="M45.4011 20.2402L59.9365 12.5261C59.9288 8.58286 56.8576 4.93515 53.1136 4.42188L38.5781 12.136C42.3228 12.6493 45.3934 16.297 45.4011 20.2402Z" fill="white" style="fill:white;fill-opacity:1;"/>
</mask>
<g mask="url(#mask3_16055_56806)">
<path d="M45.4011 20.2402L59.9365 12.5261C59.9346 11.5599 59.749 10.6117 59.4142 9.72266L44.8788 17.4368C45.2136 18.3258 45.3991 19.274 45.4011 20.2402Z" fill="#1A81FF" style="fill:#1A81FF;fill:color(display-p3 0.1029 0.5043 1.0000);fill-opacity:1;"/>
<path d="M44.8815 17.438L59.417 9.72393C59.2716 9.33757 59.0981 8.96241 58.8991 8.60156L44.3637 16.3157C44.5627 16.6765 44.7361 17.0517 44.8815 17.438Z" fill="#1A81FF" style="fill:#1A81FF;fill:color(display-p3 0.1029 0.5043 1.0000);fill-opacity:1;"/>
<path d="M44.3653 16.3118L58.9013 8.59769C58.733 8.29221 58.5461 7.9973 58.3433 7.71484L43.8079 15.429C44.0101 15.7108 44.1969 16.0063 44.3653 16.3118Z" fill="#1A81FF" style="fill:#1A81FF;fill:color(display-p3 0.1029 0.5043 1.0000);fill-opacity:1;"/>
<path d="M43.8054 15.428L58.3408 7.71385C58.1488 7.44695 57.9429 7.19186 57.7235 6.94922L43.188 14.6633C43.4074 14.9054 43.614 15.1611 43.8054 15.428Z" fill="#1A81FF" style="fill:#1A81FF;fill:color(display-p3 0.1029 0.5043 1.0000);fill-opacity:1;"/>
<path d="M43.1843 14.6691L57.7197 6.95498C57.499 6.71109 57.2656 6.48089 57.0201 6.26562L42.4847 13.9797C42.7296 14.1956 42.9636 14.4258 43.1843 14.6691Z" fill="#1A81FF" style="fill:#1A81FF;fill:color(display-p3 0.1029 0.5043 1.0000);fill-opacity:1;"/>
<path d="M42.4792 13.9781L57.0146 6.26396C56.7519 6.03314 56.4751 5.81911 56.1869 5.625L41.6514 13.3391C41.9403 13.5339 42.2164 13.7473 42.4792 13.9781Z" fill="#1A81FF" style="fill:#1A81FF;fill:color(display-p3 0.1029 0.5043 1.0000);fill-opacity:1;"/>
<path d="M41.6589 13.3369L56.1943 5.62277C55.8416 5.38511 55.4718 5.17607 55.0879 5L40.5524 12.7141C40.9363 12.8902 41.3062 13.0992 41.6589 13.3369Z" fill="#1A81FF" style="fill:#1A81FF;fill:color(display-p3 0.1029 0.5043 1.0000);fill-opacity:1;"/>
<path d="M40.5495 12.7158L55.0849 5.00172C54.4593 4.71491 53.7967 4.51644 53.1112 4.42188L38.5758 12.136C39.2613 12.2299 39.9239 12.429 40.5495 12.7158Z" fill="#1A81FF" style="fill:#1A81FF;fill:color(display-p3 0.1029 0.5043 1.0000);fill-opacity:1;"/>
</g>
<path d="M13.5621 26.7446C14.2723 26.8673 14.9954 26.9988 15.7316 27.139C16.4675 27.2662 17.1908 27.4042 17.9014 27.5531C18.6119 27.702 19.2777 27.8628 19.8986 28.0354L19.8019 30.1932L14.6697 29.3064C14.3469 29.2506 14.1031 29.2934 13.9383 29.4347C13.7861 29.5651 13.7131 29.8006 13.7192 30.1412L13.8424 37.0583C13.8482 37.3858 13.9301 37.6481 14.0881 37.8452C14.259 38.0445 14.5058 38.172 14.8286 38.2278L19.9608 39.1146L20.1352 41.3193C19.5164 41.2646 18.8522 41.189 18.1425 41.0925C17.4329 40.996 16.7101 40.8841 15.9741 40.757C15.2384 40.6429 14.5155 40.5245 13.8054 40.4018C12.9533 40.2546 12.2581 39.8863 11.7198 39.297C11.1945 38.71 10.9182 38.0092 10.8908 37.1948L10.7445 28.9807C10.7427 28.1576 10.9956 27.5418 11.5032 27.1332C12.0237 26.7269 12.71 26.5973 13.5621 26.7446ZM11.1425 31.8117L19.141 33.1938L19.1788 35.3161L11.1803 33.934L11.1425 31.8117ZM27.1016 28.9078C27.7342 29.0171 28.2704 29.1293 28.7101 29.2445C29.1624 29.3488 29.5764 29.466 29.952 29.5962C30.3276 29.7264 30.7164 29.8785 31.1185 30.0524L30.9257 32.2328C30.4992 32.133 30.105 32.0453 29.7433 31.9697C29.3944 31.8964 29.0133 31.8175 28.5999 31.733C28.1994 31.6507 27.7152 31.5605 27.1471 31.4624C26.4886 31.3486 25.9746 31.3969 25.6051 31.6073C25.2482 31.8069 24.998 32.2142 24.8545 32.8294C24.711 33.4445 24.6496 34.3285 24.6701 35.4813C24.6904 36.6211 24.7838 37.5319 24.9504 38.2137C25.1168 38.8823 25.3831 39.3789 25.7493 39.7034C26.1284 40.0301 26.6471 40.2504 27.3056 40.3641C28.1965 40.5181 28.9451 40.6344 29.5515 40.713C30.1578 40.7917 30.7574 40.8496 31.3501 40.8867L31.6411 43.1311C31.0249 43.2205 30.3947 43.2487 29.7505 43.2158C29.1066 43.1959 28.3069 43.1035 27.3515 42.9384C25.97 42.6997 24.8621 42.2862 24.0278 41.698C23.1934 41.0967 22.5798 40.2528 22.1872 39.1663C21.8075 38.082 21.6022 36.6752 21.5714 34.9459C21.5406 33.2167 21.6968 31.8723 22.0402 30.913C22.3964 29.9558 22.9837 29.3259 23.8021 29.0233C24.6202 28.7076 25.7201 28.6691 27.1016 28.9078Z" fill="white" style="fill:white;fill-opacity:1;"/>
</svg>
