<svg xmlns="http://www.w3.org/2000/svg" viewBox="0 0 600 600" xmlns:v="https://vecta.io/nano"><style><![CDATA[.T{fill:#1b1c17}.U{fill-opacity:.4}.V{fill:#e6f0fc}.W{fill-opacity:.6}.X{fill:#b2d0f6}.Y{fill:none}.Z{fill:#70b0ff}.a{fill:#fff}.b{fill:#0668e1}.c{stroke-miterlimit:10}.d{stroke-width:.5}.e{stroke-width:.3}]]></style><defs><path id="A" d="M0 0h600v600H0z"/><path id="B" d="     M303,520.7L565.6,370c5.4-3.1,4.7-8.4-1.5-12l-166.9-95.7c-6.2-3.6-15.6-3.9-20.9-0.9L113.7,412.1c-5.4,3.1-4.7,8.4,1.5,12     l166.9,95.7C288.3,523.4,297.6,523.8,303,520.7L303,520.7z"/><path id="C" d="M372.5 300.5l9.6-5.5c1.2-.7 1.1-1.9-.3-2.8l-2.8-1.6c-1.4-.8-3.6-.9-4.8-.2l-9.6 5.5c-1.2.7-1.1 1.9.3 2.8l2.8 1.6c1.4.8 3.6.9 4.8.2z"/><path id="D" d="M357 309.4l9.6-5.5c1.2-.7 1.1-1.9-.3-2.8l-2.8-1.6c-1.4-.8-3.6-.9-4.8-.2l-9.6 5.5c-1.2.7-1.1 1.9.3 2.8l2.8 1.6c1.5.8 3.6.9 4.8.2z"/><path id="E" d="M387.2 308l8.9-5.1c.8-.5.7-1.3-.2-1.8l-8.4-4.8c-1-.5-2.4-.6-3.2-.1l-8.9 5.1c-.8.5-.7 1.3.2 1.8l8.4 4.8c.9.5 2.3.6 3.2.1z"/><path id="F" d="M378.9 328.8l8.9-5.1c.8-.5.7-1.3-.2-1.8l-8.4-4.8c-1-.5-2.4-.6-3.2-.1l-8.9 5.1c-.8.5-.7 1.3.2 1.8l8.4 4.8c1 .5 2.4.6 3.2.1z"/><path id="G" d="M289 380.4l8.9-5.1c.8-.5.7-1.3-.2-1.8l-8.4-4.8c-1-.5-2.4-.6-3.2-.1l-8.9 5.1c-.8.5-.7 1.3.2 1.8l8.4 4.8c.9.5 2.4.6 3.2.1z"/><path id="H" d="M243.2 423l8.9-5.1c.8-.5.7-1.3-.2-1.8l-8.4-4.8c-1-.5-2.4-.6-3.2-.1l-8.9 5.1c-.8.5-.7 1.3.2 1.8l8.4 4.8a4 4 0 0 0 3.2.1z"/><path id="I" d="M333.2 371.4l8.9-5.1c.8-.5.7-1.3-.2-1.8l-8.4-4.8c-1-.5-2.4-.6-3.2-.1l-8.9 5.1c-.8.5-.7 1.3.2 1.8l8.4 4.8c.9.5 2.3.5 3.2.1z"/><path id="J" d="M421.5 345.5l10-5.7c.5-.3.5-.8-.1-1.2l-2.8-1.6c-.6-.4-1.6-.4-2.1-.1l-10 5.7c-.5.3-.5.8.1 1.2l2.8 1.6c.6.4 1.6.4 2.1.1z"/><path id="K" d="M332.3 173.7l3.4-2c.4-.2.6 0 .6.4v4c0 .4-.3.9-.6 1.1l-3.4 2c-.4.2-.6 0-.6-.4v-4c0-.4.3-.9.6-1.1z"/><path id="L" d="M332.4 183.6l3.4-2c.4-.2.6 0 .6.4v4c0 .4-.3.9-.6 1.1l-3.4 2c-.4.2-.6 0-.6-.4v-4c-.1-.4.2-.9.6-1.1z"/><path id="M" d="M342.3 198.2l47.4-27.3c1.1-.6 1.9-.1 1.9 1.1h0c0 1.2-.9 2.7-1.9 3.4l-47.4 27.3c-1.1.6-1.9.1-1.9-1.1h0a3.9 3.9 0 0 1 1.9-3.4z"/><path id="N" d="M172.6 257.7l-1.7 6-.4.3 1.7-6 .4-.3z"/><path id="O" d="M165.8 265.9l.8-3.6.6-.3-1.2 4.7c0 .1-.1.2-.1.3s-.1.3-.2.4-.2.3-.3.4-.2.2-.4.3c0 0-.1 0-.2.1h-.1v-.5h.1.1c.1-.1.2-.1.3-.2s.1-.2.2-.3.1-.3.1-.4l.3-.9zm-.6-2.7l.8 2.2.1.5-.4.4-1.1-2.9.6-.2z"/><path id="P" d="M163.6 264.9v.5l-2.2 1.3v-.5l2.2-1.3zm-2.1-.8v4.7l-.5.3v-4.7l.5-.3zm2.6-1.5v4.7l-.5.3v-4.7l.5-.3z"/><path id="Q" d="M155.9 269.3v2.7l-.5.3v-3.5l.5-.3v.8zm-.1.9l-.2.1c0-.2 0-.5.1-.7s.1-.5.2-.7.2-.4.4-.6.3-.3.5-.4c.1-.1.3-.1.4-.2h.3c.1.1.1.1.2.3 0 .1.1.3.1.5v2.3l-.5.3v-2.3c0-.2 0-.3-.1-.4 0-.1-.1-.1-.2-.1s-.2 0-.3.1-.2.2-.4.3c-.1.1-.2.3-.3.4-.1.2-.1.3-.2.5v.6z"/><path id="R" d="M151 273.3l.5-.3c0 .3-.1.6-.2.9s-.3.6-.5.8c-.2.3-.5.5-.8.7-.2.1-.5.2-.6.2-.2 0-.4 0-.5-.2-.1-.1-.2-.3-.3-.5s-.1-.5-.1-.8v-.5c0-.3 0-.6.1-1l.3-.9c.1-.3.3-.5.5-.7s.4-.4.7-.5c.3-.2.6-.3.8-.2.2 0 .4.1.5.3s.2.4.2.7l-.5.3c0-.2-.1-.4-.1-.5-.1-.1-.2-.2-.3-.2s-.3 0-.5.2c-.2.1-.3.2-.5.4-.1.2-.2.3-.3.5s-.2.4-.2.6-.1.5-.1.7v.5c0 .2 0 .4.1.6 0 .2.1.3.2.4s.2.2.3.2.3 0 .5-.1.4-.3.5-.4c.1-.2.2-.3.3-.5-.1-.2-.1-.4 0-.7z"/><path id="S" d="M191.7 243.1l42.4-24.3v13.1l-42.4 24.4z"/><path id="T" d="M215.7 235.5v.7c0 .4 0 .7-.1 1s-.1.6-.3.8c-.1.2-.2.4-.4.6s-.3.3-.5.4-.3.1-.4.2h-.4c-.1 0-.2-.1-.3-.2s-.1-.3-.2-.5c0-.2-.1-.5-.1-.8v-.7c0-.4 0-.7.1-1s.1-.6.3-.8c.1-.2.2-.4.4-.6s.3-.3.5-.4.3-.2.4-.2h.4c.1 0 .2.1.3.2s.1.3.2.5a2.2 2.2 0 0 1 .1.8zm-.5 1.1v-.9-.5c0-.1-.1-.3-.1-.4s-.1-.2-.2-.2h-.2c-.1 0-.2 0-.3.1l-.3.3c-.1.1-.2.2-.2.4-.1.1-.1.3-.1.5s-.1.4-.1.7v.9.5c0 .1.1.3.1.4s.1.2.2.2.1.1.2 0c.1 0 .2 0 .3-.1l.3-.3c.1-.1.2-.2.2-.4.1-.2.1-.3.1-.5.1-.2.1-.4.1-.7z"/><path id="U" d="M211.6 235.9v4.7l-.5.3v-4l-1 1v-.5l1.5-1.5h0z"/><path id="V" d="M234.1 218.8l42.5-24.4v13.1l-42.5 24.4z"/><path id="W" d="M258.1 211.2v.7c0 .4 0 .7-.1 1s-.1.6-.3.8c-.1.2-.2.4-.4.6s-.3.3-.5.4-.3.1-.4.2h-.4c-.1 0-.2-.1-.3-.2s-.1-.3-.2-.5c0-.2-.1-.5-.1-.8v-.7c0-.4 0-.7.1-1s.1-.6.3-.8c.1-.2.2-.4.4-.6s.3-.3.5-.4.3-.2.4-.2h.4c.1 0 .2.1.3.2s.1.3.2.5.1.5.1.8zm-.5 1.1v-.9-.5c0-.1-.1-.3-.1-.4s-.1-.2-.2-.2h-.2c-.1 0-.2 0-.3.1l-.3.3c-.1.1-.2.2-.2.4-.1.1-.1.3-.1.5v.7.9.5c0 .1.1.3.1.4s.1.2.2.2.1.1.2 0c.1 0 .2 0 .3-.1l.3-.3c.1-.1.2-.2.2-.4.1-.2.1-.3.1-.5v-.7z"/><path id="X" d="M300.6 186.8v.7c0 .4 0 .7-.1 1s-.1.6-.3.8c-.1.2-.2.4-.4.6s-.3.3-.5.4-.3.2-.4.2h-.4c-.1 0-.2-.1-.3-.2s-.1-.3-.2-.5c0-.2-.1-.5-.1-.8v-.7c0-.4 0-.7.1-1s.1-.6.3-.8c.1-.2.2-.4.4-.6s.3-.3.5-.4.3-.2.4-.2h.4c.1 0 .2.1.3.2s.1.3.2.5.1.5.1.8zm-.5 1.1v-.9-.5c0-.1-.1-.3-.1-.4s-.1-.2-.2-.2h-.2c-.1 0-.2 0-.3.1l-.3.3c-.1.1-.2.2-.2.4-.1.1-.1.3-.1.5v.7.9.5c0 .1.1.3.1.4s.1.2.2.2.1.1.2 0c.1 0 .2 0 .3-.1l.3-.3c.1-.1.2-.2.2-.4.1-.2.1-.3.1-.5v-.7z"/><path id="Y" d="M142.7 284.4l49-28.1v13.1l-49 28.1z"/><path id="Z" d="M175.1 269.4h0v.5h0c-.3.2-.5.3-.7.5s-.3.4-.4.7c-.1.2-.2.5-.2.7s-.1.5-.1.7v.7c0 .2 0 .4.1.5 0 .1.1.2.2.3s.2.1.2.1c.1 0 .2 0 .3-.1l.3-.3c.1-.1.2-.2.2-.4.1-.1.1-.3.1-.4s.1-.3.1-.5v-.4c0-.1-.1-.2-.1-.3-.1-.1-.1-.1-.2-.1s-.2 0-.3.1-.3.2-.4.4c-.1.1-.2.3-.3.5s-.1.3-.1.5l-.3.2c0-.3.1-.5.1-.7l.3-.6c.1-.2.2-.3.4-.4.1-.1.3-.2.4-.3.2-.1.4-.2.5-.2s.3.1.4.1c.1.1.2.2.2.4s.1.3.1.5 0 .4-.1.7c-.1.2-.1.4-.2.6s-.2.4-.4.6-.3.3-.5.4-.4.2-.6.2-.3-.1-.4-.2-.2-.3-.2-.4c-.1-.2-.1-.4-.1-.6v-.3c0-.3 0-.7.1-1l.3-1c.1-.3.3-.7.6-1 0-.2.3-.5.7-.7z"/><path id="a" d="M165.8 279.1l.8-3.6.6-.3-1.2 4.7c0 .1-.1.2-.1.3s-.1.3-.2.4-.2.3-.3.4-.2.2-.4.3c0 0-.1 0-.2.1h-.1v-.5h.1.1c.1-.1.2-.1.3-.2s.1-.2.2-.3.1-.3.1-.4l.3-.9zm-.6-2.8l.8 2.2.1.5-.4.4-1.1-2.9.6-.2z"/><path id="b" d="M151 286.5l.5-.3c0 .3-.1.6-.2.9s-.3.6-.5.8a2.7 2.7 0 0 1-.8.7c-.2.1-.5.2-.6.2-.2 0-.4 0-.5-.1s-.2-.3-.3-.5-.1-.5-.1-.8v-.5c0-.3 0-.6.1-1l.3-.9c.1-.3.3-.5.5-.7s.4-.4.7-.5c.3-.2.6-.3.8-.2.2 0 .4.1.5.3s.2.4.2.7l-.5.3c0-.2-.1-.4-.1-.5-.1-.1-.2-.2-.3-.2s-.3 0-.5.2c-.2.1-.3.2-.5.4-.1.2-.2.3-.3.5s-.2.4-.2.6-.1.5-.1.7v.5c0 .2 0 .4.1.6 0 .2.1.3.2.4s.2.2.3.2.3 0 .5-.1.4-.3.5-.4c.1-.2.2-.3.3-.5-.1-.4-.1-.6 0-.8z"/><path id="c" d="M215.9 250.8v.5l-2.6 1.5v-.4l1.3-2.5c.2-.3.3-.6.4-.7.1-.2.2-.4.2-.5s.1-.3.1-.4c0-.2 0-.3-.1-.4l-.2-.2c-.1 0-.2 0-.4.1s-.3.2-.4.4c-.1.1-.2.3-.3.5s-.1.4-.1.5l-.5.3c0-.3.1-.5.2-.8a3 3 0 0 1 .4-.8c.2-.2.4-.4.7-.6.3-.1.5-.2.7-.2s.3.1.4.2.1.3.1.6c0 .1 0 .3-.1.5 0 .2-.1.3-.2.5s-.1.4-.2.5l-.3.6-1.1 2 2-1.2z"/><path id="d" d="M258.3 226.4v.5l-2.6 1.5v-.4l1.3-2.5c.2-.3.3-.6.4-.7.1-.2.2-.4.2-.5s.1-.3.1-.4c0-.2 0-.3-.1-.4l-.2-.2c-.1 0-.2 0-.4.1s-.3.2-.5.4c-.1.1-.2.3-.3.5s-.1.4-.1.5l-.5.3c0-.3 0-.5.1-.8a3 3 0 0 1 .4-.8c.2-.2.4-.4.7-.6.3-.1.5-.2.7-.2s.3.1.4.2.1.3.1.6c0 .1 0 .3-.1.5 0 .2-.1.3-.2.5s-.2.4-.2.5l-.3.6-1.1 2 2.2-1.2z"/><path id="e" d="M175.1 282.5h0v.5h0c-.3.2-.5.3-.7.5s-.3.4-.4.7c-.1.2-.2.5-.2.7s-.1.5-.1.7v.7c0 .2 0 .4.1.5 0 .1.1.2.2.3s.2.1.2.1c.1 0 .2 0 .3-.1l.3-.3c.1-.1.2-.2.2-.4.1-.1.1-.3.1-.4s.1-.3.1-.5v-.4c0-.1-.1-.2-.1-.3-.1-.1-.1-.1-.2-.1s-.2 0-.3.1-.3.2-.4.4c-.1.1-.2.3-.3.5s-.1.3-.1.5l-.3.2c0-.3.1-.5.1-.7l.3-.6c.1-.2.2-.3.4-.4.1-.1.3-.2.4-.3.2-.1.4-.2.5-.2s.3.1.4.1c.1.1.2.2.2.4s.1.3.1.5 0 .4-.1.7c-.1.2-.1.4-.2.6s-.2.4-.4.6-.3.3-.5.4-.4.2-.6.2-.3-.1-.4-.2-.2-.3-.2-.4c-.1-.2-.1-.4-.1-.6v-.3c0-.3 0-.7.1-1l.3-1c.1-.3.3-.7.6-1 0-.2.3-.4.7-.7z"/><path id="f" d="M152 298.8h0c0-.3 0-.6.1-.8.1-.3.2-.5.3-.7s.3-.4.4-.6c.2-.2.4-.3.6-.5.2-.1.4-.2.6-.2s.3 0 .4.1.2.2.3.4.1.4.1.6v.1c0 .2 0 .5-.1.8l-.3.7c-.1.2-.3.4-.4.6-.2.2-.4.3-.6.5-.2.1-.4.2-.6.2s-.3 0-.4-.1-.2-.2-.3-.4c0-.3-.1-.5-.1-.7zm.5-.4h0c0 .2 0 .4.1.5 0 .1.1.2.2.3s.2.1.3.1.2 0 .4-.1c.1-.1.3-.2.4-.3s.2-.3.3-.4c.1-.2.1-.3.2-.5 0-.2.1-.3.1-.5v-.1c0-.2 0-.3-.1-.5 0-.1-.1-.2-.2-.3s-.2-.1-.3-.1-.2 0-.4.1c-.1.1-.3.2-.4.3s-.2.3-.3.4c-.1.2-.1.3-.2.5 0 .3-.1.4-.1.6z"/><path id="g" d="M191.7 269.4l42.4-24.4v13.1l-42.4 24.4z"/><path id="h" d="M215.7 261.8v.7c0 .4 0 .7-.1 1s-.1.6-.3.8c-.1.2-.2.4-.4.6s-.3.3-.5.4-.3.1-.4.2h-.4c-.1 0-.2-.1-.3-.2s-.1-.3-.2-.5c0-.2-.1-.5-.1-.8v-.7c0-.4 0-.7.1-1s.1-.6.3-.8c.1-.2.2-.4.4-.6s.3-.3.5-.4.3-.2.4-.2h.4c.1 0 .2.1.3.2s.1.3.2.5.1.5.1.8zm-.5 1.1v-.9-.5c0-.1-.1-.3-.1-.4s-.1-.2-.2-.2h-.2c-.1 0-.2 0-.3.1l-.3.3c-.1.1-.2.2-.2.4-.1.1-.1.3-.1.5s-.1.4-.1.7v.9.5c0 .1.1.3.1.4s.1.2.2.2.1.1.2 0c.1 0 .2 0 .3-.1l.3-.3c.1-.1.2-.2.2-.4.1-.2.1-.3.1-.5.1-.2.1-.5.1-.7z"/><path id="i" d="M234.1 245l42.5-24.4v13.2l-42.5 24.3z"/><path id="j" d="M155.9 308.6v2.7l-.5.3v-3.5l.5-.3v.8zm-.1 1l-.2.1c0-.2 0-.5.1-.7s.1-.5.2-.7.2-.4.4-.6.3-.3.5-.4c.1-.1.3-.1.4-.2h.3c.1.1.1.1.2.3 0 .1.1.3.1.5v2.3l-.5.3v-2.3c0-.2 0-.3-.1-.4 0-.1-.1-.1-.2-.1s-.2 0-.3.1-.2.2-.4.3c-.1.1-.2.3-.3.4-.1.2-.1.3-.2.5v.6z"/><path id="k" d="M234.1 258.1l42.5-24.3v13.1l-42.5 24.4z"/><path id="l" d="M300.7 226.1v.7c0 .4 0 .7-.1 1s-.1.6-.3.8c-.1.2-.2.4-.4.6s-.3.3-.5.4-.3.1-.4.2h-.4c-.1 0-.2-.1-.3-.2s-.1-.3-.2-.5c0-.2-.1-.5-.1-.8v-.7c0-.4 0-.7.1-1s.1-.6.3-.8c.1-.2.2-.4.4-.6s.3-.3.5-.4.3-.2.4-.2h.4c.1 0 .2.1.3.2s.1.3.2.5.1.5.1.8zm-.5 1.1v-.9-.5c0-.1-.1-.3-.1-.4s-.1-.2-.2-.2h-.2c-.1 0-.2 0-.3.1l-.3.3c-.1.1-.2.2-.2.4-.1.1-.1.3-.1.5s-.1.4-.1.7v.9.5c0 .1.1.3.1.4s.1.2.2.2.1.1.2 0c.1 0 .2 0 .3-.1l.3-.3c.1-.1.2-.2.2-.4.1-.2.1-.3.1-.5.1-.2.1-.4.1-.7z"/><path id="m" d="M297.6 230.1v.5l-2.6 1.5v-.4l1.3-2.5c.2-.3.3-.6.4-.7.1-.2.2-.4.2-.5s.1-.3.1-.4c0-.2 0-.3-.1-.4l-.2-.2c-.1 0-.2 0-.4.1s-.3.2-.5.4c-.1.1-.2.3-.3.5s-.1.4-.1.5l-.5.3c0-.3 0-.5.1-.8a3 3 0 0 1 .4-.8c.2-.2.4-.4.7-.6.3-.1.5-.2.7-.2s.3.1.4.2.1.3.1.6c0 .1 0 .3-.1.5 0 .2-.1.3-.2.5s-.1.4-.2.6l-.3.6-1.1 2 2.2-1.3z"/><path id="n" d="M210.8 304.1l.4-.2c.2-.1.3-.2.4-.4.1-.1.2-.3.3-.4.1-.2.1-.3.1-.5s0-.3-.1-.4-.1-.1-.2-.1-.2 0-.4.1c-.1.1-.3.2-.4.3s-.2.3-.3.4c-.1.2-.1.3-.1.5l-.5.3c0-.2.1-.5.2-.7.1-.3.2-.5.4-.7s.4-.4.7-.5c.2-.1.5-.2.6-.2.2 0 .3.1.4.2s.2.3.2.6c0 .1 0 .3-.1.4 0 .2-.1.3-.2.5s-.2.3-.4.5-.3.3-.6.4l-.4.3v-.4zm0 .5v-.4l.4-.3c.3-.1.5-.2.6-.3.2 0 .3 0 .4.1s.2.2.2.3.1.2.1.4 0 .4-.1.6l-.3.6c-.1.2-.2.4-.4.5s-.3.3-.5.4-.3.2-.5.2h-.4c-.1 0-.2-.1-.3-.2s-.1-.3-.1-.5l.5-.3c0 .2 0 .3.1.4s.2.1.3.1.3 0 .4-.1c.2-.1.3-.2.4-.3s.2-.3.3-.4c.1-.2.1-.3.1-.5s0-.3-.1-.4-.2-.1-.3-.1-.3.1-.5.2h-.3z"/><path id="o" d="M253.2 279.7l.4-.2c.2-.1.3-.2.4-.4.1-.1.2-.3.3-.4.1-.2.1-.3.1-.5s0-.3-.1-.4-.1-.1-.2-.1-.2 0-.4.1c-.1.1-.3.2-.4.3s-.2.3-.3.4c-.1.2-.1.3-.1.5l-.5.3c0-.2.1-.5.2-.7.1-.3.2-.5.4-.7s.4-.4.7-.5c.2-.1.5-.2.6-.2.2 0 .3.1.4.2s.2.3.2.6c0 .1 0 .3-.1.4 0 .2-.1.3-.2.5s-.2.3-.4.5-.3.3-.6.4l-.4.3v-.4zm0 .5v-.4l.4-.3c.3-.1.5-.2.6-.3.2 0 .3 0 .4.1s.2.2.2.3.1.2.1.4 0 .4-.1.6l-.3.6c-.1.2-.3.4-.4.5-.2.1-.3.3-.5.4s-.3.2-.5.2h-.4c-.1 0-.2-.1-.3-.2s-.1-.3-.1-.5l.5-.3c0 .2 0 .3.1.4s.2.1.3.1.3 0 .4-.1c.2-.1.3-.2.4-.3s.2-.3.3-.4c.1-.2.1-.3.1-.5s0-.3-.1-.4-.2-.1-.3-.1-.3.1-.5.2h-.3z"/><path id="p" d="M296.9 265.7h0v.5h0c-.3.2-.5.3-.7.5s-.3.4-.4.7c-.1.2-.2.5-.2.7s-.1.5-.1.7v.7c0 .2 0 .4.1.5 0 .1.1.2.2.3s.2.1.2.1c.1 0 .2 0 .3-.1l.3-.3c.1-.1.2-.2.2-.4.1-.1.1-.3.1-.4v-.5-.4c0-.1-.1-.2-.1-.3-.1-.1-.1-.1-.2-.1s-.2 0-.3.1-.3.2-.4.4c-.1.1-.2.3-.3.5s-.1.3-.1.5l-.3.2c0-.3.1-.5.1-.7l.3-.6c.1-.2.2-.3.4-.4.1-.1.3-.2.4-.3.2-.1.4-.2.5-.2s.3.1.4.1c.1.1.2.2.2.4s.1.3.1.5 0 .4-.1.7c-.1.2-.1.4-.2.6s-.2.4-.4.6-.3.3-.5.4-.4.2-.6.2-.3-.1-.4-.2-.2-.3-.2-.4c-.1-.2-.1-.4-.1-.6v-.3c0-.3 0-.7.1-1l.3-1c.1-.3.3-.7.6-1a1.9 1.9 0 0 1 .8-.7z"/><path id="q" d="M297.6 282.6v.5l-2.6 1.5v-.4l1.3-2.5c.2-.3.3-.6.4-.7.1-.2.2-.4.2-.5s.1-.3.1-.4c0-.2 0-.3-.1-.4l-.2-.2c-.1 0-.2 0-.4.1s-.3.2-.5.4c-.1.1-.2.3-.3.5s-.1.4-.1.5l-.5.3c0-.3 0-.5.1-.8a3 3 0 0 1 .4-.8c.2-.2.4-.4.7-.6.3-.1.5-.2.7-.2s.3.1.4.2.1.3.1.6c0 .1 0 .3-.1.5 0 .2-.1.3-.2.5s-.1.4-.2.5l-.3.6-1.1 2 2.2-1.2z"/><path id="r" d="M417.2 51.5c0 2.2 1.6 3.1 3.6 2a7.8 7.8 0 0 0 3.6-6.1c0-2.2-1.6-3.1-3.6-2a7.8 7.8 0 0 0-3.6 6.1z"/></defs><clipPath id="s"><use href="#A"/></clipPath><g clip-path="url(#s)"><path d="M280.2 12a39.3 39.3 0 0 1 39.5 0l219.8 126.9c12.2 7.1 19.8 20.1 19.8 34.2v253.8a39.6 39.6 0 0 1-19.2 33.9l-.6.3L319.8 588a39.3 39.3 0 0 1-39.5 0L60.4 461.1C48.2 454 40.7 441 40.6 426.9V173.1c0-14.1 7.5-27.2 19.8-34.2L280.2 12z" fill="#bfd8f7" fill-opacity=".2" stroke="#0668e1"/><linearGradient id="t" gradientUnits="userSpaceOnUse" x1="570" y1="398.3" x2="108.93" y2="398.3"><stop offset="0" stop-color="#a6ceff"/><stop offset="1" stop-color="#9cc5f8"/></linearGradient><path d="M110.8 414.8c3.1-1.3 265.5-146.1 265.5-146.1 5.4-3.1 14.7-2.7 20.9.9l171.2 92.5s2.4 4.4 1.4 8.9c-.7 3.3-1.7 4.6-3.2 5.7-.2.1-.5.3-.7.5-.1 0-.1.1-.2.1L303 527.9c-5.4 3.1-14.7 2.7-20.9-.9l-166.9-95.7c-.4-.2-.8-.5-1.2-.7-.1-.1-.2-.1-.3-.2-.2-.2-.5-.3-.7-.5-2.6-2.1-3.6-4.6-4.1-7.8-.4-3.5 1.9-7.3 1.9-7.3h0z" fill="url(#t)"/><linearGradient id="u" gradientUnits="userSpaceOnUse" x1="492.73" y1="96.44" x2="263.63" y2="537.42"><stop offset="0" stop-color="#fff"/><stop offset="1" stop-color="#d4e7fe"/></linearGradient><path d="M303 520.7L565.6 370c5.4-3.1 4.7-8.4-1.5-12l-166.9-95.7c-6.2-3.6-15.6-3.9-20.9-.9L113.7 412.1c-5.4 3.1-4.7 8.4 1.5 12l166.9 95.7c6.2 3.6 15.5 4 20.9.9h0z" fill="url(#u)"/><linearGradient id="v" gradientUnits="userSpaceOnUse" x1="523.43" y1="284.31" x2="155.89" y2="497.84"><stop offset="0" stop-color="#bdd2f4"/><stop offset="1" stop-color="#e5faff"/></linearGradient><use href="#B" stroke="url(#v)" class="Y c e"/><use href="#B" stroke="url(#v)" class="Y c e"/><linearGradient id="w" gradientUnits="userSpaceOnUse" x1="912.42" y1="24.3" x2="652.77" y2="175.14"><stop offset="0" stop-color="#bdd2f4"/><stop offset="1" stop-color="#e7f2ff"/></linearGradient><path d="M376.7 288c-1.1 0-2.2.2-2.9.6L160.1 411.2h0c-.7.4-1 .9-.9 1.4s.5 1.1 1.4 1.6l79.4 45.6c.9.5 2.1.8 3.2.9 1.1 0 2.2-.2 2.9-.6l213.7-122.6h0c.7-.4 1-.9.9-1.4s-.5-1.1-1.4-1.6l-79.4-45.6h0c-.9-.5-2.1-.8-3.2-.9z" fill="url(#w)" stroke="#a9d0ff" stroke-width=".94"/><linearGradient id="x" gradientUnits="userSpaceOnUse" x1="629.41" y1="286.22" x2="548.27" y2="333.36"><stop offset="0" stop-color="#bdd2f4"/><stop offset="1" stop-color="#d3e7ff"/></linearGradient><path d="M383.3 462.9l81.4-46.7-59-33.8-81.4 46.7 59 33.8z" fill="url(#x)"/><linearGradient id="y" gradientUnits="userSpaceOnUse" x1="236.45" y1="315.74" x2="247.26" y2="335.59"><stop offset="0" stop-color="#0f042e"/><stop offset="1" stop-color="#1c1265"/></linearGradient><path d="M143.9 402.7l217.8-125-8.7-5-217.8 125 8.7 5z" fill="url(#y)"/><g fill="#244063"><use href="#C"/><use href="#D"/><path d="M341.6 318.2l9.6-5.5c1.2-.7 1.1-1.9-.3-2.8l-2.8-1.6c-1.4-.8-3.6-.9-4.8-.2l-9.6 5.5c-1.2.7-1.1 1.9.3 2.8l2.8 1.6c1.5.8 3.6.9 4.8.2zm-15.4 8.8l9.6-5.5c1.2-.7 1.1-1.9-.3-2.8l-2.8-1.6c-1.4-.8-3.6-.9-4.8-.2l-9.6 5.5c-1.2.7-1.1 1.9.3 2.8l2.8 1.6c1.5.9 3.6.9 4.8.2zm-15.4 8.9l9.6-5.5c1.2-.7 1.1-1.9-.3-2.8l-2.8-1.6c-1.4-.8-3.6-.9-4.8-.2l-9.6 5.5c-1.2.7-1.1 1.9.3 2.8l2.8 1.6c1.4.8 3.6.9 4.8.2zm-15.4 8.8l9.6-5.5c1.2-.7 1.1-1.9-.3-2.8l-2.8-1.6c-1.4-.8-3.6-.9-4.8-.2l-9.6 5.5c-1.2.7-1.1 1.9.3 2.8l2.8 1.6c1.4.8 3.6.9 4.8.2zm-15.4 8.9l9.6-5.5c1.2-.7 1.1-1.9-.3-2.8l-2.8-1.6c-1.4-.8-3.6-.9-4.8-.2L272 349c-1.2.7-1.1 1.9.3 2.8l2.8 1.6c1.5.8 3.7.9 4.9.2zm-15.4 8.8l9.6-5.5c1.2-.7 1.1-1.9-.3-2.8l-2.8-1.6c-1.4-.8-3.6-.9-4.8-.2l-9.6 5.5c-1.2.7-1.1 1.9.3 2.8l2.8 1.6c1.4.8 3.5.9 4.8.2zm-15.5 8.9l9.6-5.5c1.2-.7 1.1-1.9-.3-2.8l-2.8-1.6c-1.4-.8-3.6-.9-4.8-.2l-9.6 5.5c-1.2.7-1.1 1.9.3 2.8l2.8 1.6c1.5.8 3.6.9 4.8.2zm-15.4 8.8l9.6-5.5c1.2-.7 1.1-1.9-.3-2.8l-2.8-1.6c-1.4-.8-3.6-.9-4.8-.2l-9.6 5.5c-1.2.7-1.1 1.9.3 2.8l2.8 1.6c1.4.8 3.6.9 4.8.2zm-15.4 8.9l9.6-5.5c1.2-.7 1.1-1.9-.3-2.8l-2.8-1.6c-1.4-.8-3.6-.9-4.8-.2l-9.6 5.5c-1.2.7-1.1 1.9.3 2.8l2.8 1.6c1.4.8 3.6.9 4.8.2zm-15.4 8.8l9.6-5.5c1.2-.7 1.1-1.9-.3-2.8l-2.8-1.6c-1.4-.8-3.6-.9-4.8-.2l-9.6 5.5c-1.2.7-1.1 1.9.3 2.8l2.8 1.6c1.4.8 3.6.9 4.8.2zm-15.4 8.8l9.6-5.5c1.2-.7 1.1-1.9-.3-2.8l-2.8-1.6c-1.4-.8-3.6-.9-4.8-.2l-9.6 5.5c-1.2.7-1.1 1.9.3 2.8l2.8 1.6c1.4.9 3.5 1 4.8.2zm-15.5 8.9l9.6-5.5c1.2-.7 1.1-1.9-.3-2.8l-2.8-1.6c-1.4-.8-3.6-.9-4.8-.2l-9.6 5.5c-1.2.7-1.1 1.9.3 2.8l2.8 1.6c1.5.8 3.6.9 4.8.2z"/><use href="#E"/><path d="M393.7 320.3l15.9-9.1c1-.6.9-1.7-.3-2.4l-7.4-4.2a4.6 4.6 0 0 0-4.1-.2l-15.9 9.1c-1 .6-.9 1.7.3 2.4l7.4 4.2a4.6 4.6 0 0 0 4.1.2zm-21.9-3.5l8.9-5.1c.8-.5.7-1.3-.2-1.8l-8.4-4.8c-1-.5-2.4-.6-3.2-.1l-8.9 5c-.8.5-.7 1.3.2 1.8l8.4 4.8c1 .6 2.4.7 3.2.2z"/><use href="#F"/><path d="M363.9 337.4l8.9-5.1c.8-.5.7-1.3-.2-1.8l-8.4-4.8c-1-.5-2.4-.6-3.2-.1l-8.9 5.1c-.8.5-.7 1.3.2 1.8l8.4 4.8c1 .5 2.4.6 3.2.1zm-15 8.6l8.9-5.1c.8-.5.7-1.3-.2-1.8l-8.4-4.8c-1-.5-2.4-.6-3.2-.1l-8.9 5.1c-.8.5-.7 1.3.2 1.8l8.4 4.8c1 .5 2.4.6 3.2.1zm-14.9 8.6l8.9-5.1c.8-.5.7-1.3-.2-1.8l-8.4-4.8c-1-.5-2.4-.6-3.2-.1l-8.9 5.1c-.8.5-.7 1.3.2 1.8l8.4 4.8c.9.5 2.3.6 3.2.1zm-15 8.6l8.9-5.1c.8-.5.7-1.3-.2-1.8l-8.4-4.8c-1-.5-2.4-.6-3.2-.1l-8.9 5.1c-.8.5-.7 1.3.2 1.8l8.4 4.8c.9.5 2.3.6 3.2.1zm-15 8.6l8.9-5.1c.8-.5.7-1.3-.2-1.8l-8.4-4.8c-1-.5-2.4-.6-3.2-.1l-8.9 5.1c-.8.5-.7 1.3.2 1.8l8.4 4.8c.9.5 2.3.6 3.2.1z"/><use href="#G"/><path d="M274 389l8.9-5.1c.8-.5.7-1.3-.2-1.8l-8.4-4.8c-1-.5-2.4-.6-3.2-.1l-8.9 5.1c-.8.5-.7 1.3.2 1.8l8.4 4.8c.9.5 2.4.6 3.2.1zm-15 8.6l8.9-5.1c.8-.5.7-1.3-.2-1.8l-8.4-4.8c-1-.5-2.4-.6-3.2-.1l-8.9 5.1c-.8.5-.7 1.3.2 1.8l8.4 4.8c1 .5 2.4.6 3.2.1zm-15 8.6l8.9-5.1c.8-.5.7-1.3-.2-1.8l-8.4-4.8c-1-.5-2.4-.6-3.2-.1l-8.9 5.1c-.8.5-.7 1.3.2 1.8l8.4 4.8c1 .5 2.4.6 3.2.1zm-15 8.6l8.9-5.1c.8-.5.7-1.3-.2-1.8l-8.4-4.8c-1-.5-2.4-.6-3.2-.1l-8.9 5.1c-.8.5-.7 1.3.2 1.8l8.4 4.8c1 .5 2.4.6 3.2.1z"/><use href="#H"/><path d="M227.6 431.9l8.9-5.1c.8-.5.7-1.3-.2-1.8l-8.4-4.8c-1-.5-2.4-.6-3.2-.1l-8.9 5.1c-.8.5-.7 1.3.2 1.8l8.4 4.8c1 .5 2.4.6 3.2.1zm30.6-17.5l8.9-5.1c.8-.5.7-1.3-.2-1.8l-8.4-4.8c-1-.5-2.4-.6-3.2-.1l-8.9 5.1c-.8.5-.7 1.3.2 1.8l8.4 4.8a4 4 0 0 0 3.2.1zm15-8.6l8.9-5.1c.8-.5.7-1.3-.2-1.8l-8.4-4.8c-1-.5-2.4-.6-3.2-.1l-8.9 5.1c-.8.5-.7 1.3.2 1.8l8.4 4.8a4 4 0 0 0 3.2.1zm15-8.6l8.9-5.1c.8-.5.7-1.3-.2-1.8l-8.4-4.8c-1-.5-2.4-.6-3.2-.1l-8.9 5.1c-.8.5-.7 1.3.2 1.8l8.4 4.8a4 4 0 0 0 3.2.1zm15-8.6l8.9-5.1c.8-.5.7-1.3-.2-1.8l-8.4-4.8c-1-.5-2.4-.6-3.2-.1l-8.9 5.1c-.8.5-.7 1.3.2 1.8l8.4 4.8a4 4 0 0 0 3.2.1zm15-8.6l8.9-5.1c.8-.5.7-1.3-.2-1.8l-8.4-4.8c-1-.5-2.4-.6-3.2-.1l-8.9 5.1c-.8.5-.7 1.3.2 1.8l8.4 4.8a4 4 0 0 0 3.2.1z"/><use href="#I"/><path d="M348.2 362.8l8.9-5.1c.8-.5.7-1.3-.2-1.8l-8.4-4.8c-1-.5-2.4-.6-3.2-.1l-8.9 5.1c-.8.5-.7 1.3.2 1.8l8.4 4.8c.9.5 2.3.5 3.2.1zm14.9-8.6l8.9-5.1c.8-.5.7-1.3-.2-1.8l-8.4-4.8c-1-.5-2.4-.6-3.2-.1l-8.9 5.1c-.8.5-.7 1.3.2 1.8l8.4 4.8a4 4 0 0 0 3.2.1zm15-8.6l8.9-5.1c.8-.5.7-1.3-.2-1.8l-8.4-4.8c-1-.5-2.4-.6-3.2-.1l-8.9 5.1c-.8.5-.7 1.3.2 1.8l8.4 4.8a4 4 0 0 0 3.2.1zm14.2 8.1l8.9-5.1c.8-.5.7-1.3-.2-1.8l-8.4-4.8c-1-.5-2.4-.6-3.2-.1l-8.9 5.1c-.8.5-.7 1.3.2 1.8l8.4 4.8c1 .5 2.4.6 3.2.1zm-119.2 85.9l8.9-5.1c.8-.5.7-1.3-.2-1.8l-8.4-4.8c-1-.5-2.4-.6-3.2-.1l-8.9 5.1c-.8.5-.7 1.3.2 1.8l8.4 4.8c.9.5 2.4.6 3.2.1zm-15.2 8.7l8.9-5.1c.8-.5.7-1.3-.2-1.8l-8.4-4.8c-1-.5-2.4-.6-3.2-.1l-8.9 5.1c-.8.5-.7 1.3.2 1.8l8.4 4.8c1 .5 2.4.6 3.2.1zm-15.1 8.7l8.9-5.1c.8-.5.7-1.3-.2-1.8l-8.4-4.8c-1-.5-2.4-.6-3.2-.1l-8.9 5.1c-.8.5-.7 1.3.2 1.8l8.4 4.8c1 .5 2.4.6 3.2.1zm62.8-36l8.9-5.1c.8-.5.7-1.3-.2-1.8l-8.4-4.8c-1-.5-2.4-.6-3.2-.1l-8.9 5.1c-.8.5-.7 1.3.2 1.8l8.4 4.8a4 4 0 0 0 3.2.1zm-16.5 9.4l8.9-5.1c.8-.5.7-1.3-.2-1.8l-8.4-4.8c-1-.5-2.4-.6-3.2-.1l-8.9 5.1c-.8.5-.7 1.3.2 1.8l8.4 4.8c1 .5 2.4.6 3.2.1z"/><use href="#J"/><path d="M428.8 349.7l10-5.7c.5-.3.5-.8-.1-1.2l-2.8-1.6c-.6-.4-1.6-.4-2.1-.1l-10 5.7c-.5.3-.5.8.1 1.2l2.8 1.6c.6.4 1.6.4 2.1.1zm14.6-8.3l10-5.7c.5-.3.5-.8-.1-1.2l-2.8-1.6c-.6-.4-1.6-.4-2.1-.1l-10 5.7c-.5.3-.5.8.1 1.2l2.8 1.6c.6.4 1.5.4 2.1.1zm-29.7 17l10-5.7c.5-.3.5-.8-.1-1.2l-2.8-1.6c-.6-.4-1.6-.4-2.1-.1l-10 5.7c-.5.3-.5.8.1 1.2l2.8 1.6c.7.4 1.6.4 2.1.1zm-17.6 10.7l11.6-6.7c.9-.5.8-1.5-.3-2.1l-8-4.6c-1.1-.6-2.7-.7-3.6-.1l-11.6 6.7c-.9.5-.8 1.5.3 2.1l8 4.6c1.1.5 2.7.6 3.6.1zm-70.4 40.4l62-35.6c2-1.1 1.7-3.1-.6-4.4l-3.6-2c-2.3-1.3-5.7-1.5-7.7-.3l-62 35.6c-2 1.1-1.7 3.1.6 4.4l3.6 2c2.3 1.2 5.7 1.4 7.7.3zm51.8-47.3l8.9-5.1c.8-.5.7-1.3-.2-1.8l-8.4-4.8c-1-.5-2.4-.6-3.2-.1l-8.9 5.1c-.8.5-.7 1.3.2 1.8l8.4 4.8c1 .5 2.4.6 3.2.1zm-14.8 8.5l8.9-5.1c.8-.5.7-1.3-.2-1.8L363 359c-1-.5-2.4-.6-3.2-.1l-8.9 5.1c-.8.5-.7 1.3.2 1.8l8.4 4.8c1 .5 2.4.6 3.2.1zm-14.8 8.5l8.9-5.1c.8-.5.7-1.3-.2-1.8l-8.4-4.8c-1-.5-2.4-.6-3.2-.1l-8.9 5.1c-.8.5-.7 1.3.2 1.8l8.4 4.8c1 .5 2.4.6 3.2.1zm-14.8 8.5l8.9-5.1c.8-.5.7-1.3-.2-1.8l-8.4-4.8c-1-.5-2.4-.6-3.2-.1l-8.9 5.1c-.8.5-.7 1.3.2 1.8l8.4 4.8c1 .5 2.4.6 3.2.1zm-14.8 8.5l8.9-5.1c.8-.5.7-1.3-.2-1.8l-8.4-4.8c-1-.5-2.4-.6-3.2-.1l-8.9 5.1c-.8.5-.7 1.3.2 1.8l8.4 4.8a4 4 0 0 0 3.2.1zm-14.8 8.5l8.9-5.1c.8-.5.7-1.3-.2-1.8l-8.4-4.8c-1-.5-2.4-.6-3.2-.1l-8.9 5.1c-.8.5-.7 1.3.2 1.8l8.4 4.8a4 4 0 0 0 3.2.1zm-14.8 8.5l8.9-5.1c.8-.5.7-1.3-.2-1.8l-8.4-4.8c-1-.5-2.4-.6-3.2-.1l-8.9 5.1c-.8.5-.7 1.3.2 1.8l8.4 4.8a4 4 0 0 0 3.2.1zm-14.8 8.5l8.9-5.1c.8-.5.7-1.3-.2-1.8l-8.4-4.8c-1-.5-2.4-.6-3.2-.1l-8.9 5.1c-.8.5-.7 1.3.2 1.8l8.4 4.8a4 4 0 0 0 3.2.1zm-14.8 8.5l8.9-5.1c.8-.5.7-1.3-.2-1.8l-8.4-4.8c-1-.5-2.4-.6-3.2-.1l-8.9 5.1c-.8.5-.7 1.3.2 1.8l8.4 4.8a4 4 0 0 0 3.2.1zm-30.8 17.7l24.1-13.9c1.3-.7 1.1-2-.4-2.8l-6.5-3.7c-1.5-.8-3.7-.9-5-.2l-24.1 13.9c-1.3.7-1.1 2 .4 2.8l6.5 3.7c1.5.8 3.7.9 5 .2zM393.1 337l8.9-5.1c.8-.5.7-1.3-.2-1.8l-8.4-4.8c-1-.5-2.4-.6-3.2-.1l-8.9 5.1c-.8.5-.7 1.3.2 1.8l8.4 4.8a4 4 0 0 0 3.2.1zm14.8-8.5l15.5-8.9c1-.6.9-1.6-.3-2.3l-7.4-4.3a4.6 4.6 0 0 0-4.1-.2l-15.5 8.9c-1 .6-.9 1.6.3 2.3l7.4 4.3c1.3.7 3.1.8 4.1.2z"/><path d="M408.2 344.6l29-16.6c1.3-.7 1.1-2.1-.4-2.9l-6.3-3.6c-1.5-.9-3.8-1-5.1-.2l-29 16.6c-1.3.7-1.1 2.1.4 2.9l6.3 3.6c1.5.9 3.8 1 5.1.2zm-220.1 82.9l21.8 12.5c1.3.7 3.5.7 4.8 0l7.1-4.1c1.3-.8 1.3-2 0-2.7l-9.9-5.7c-1.3-.8-1.3-2 0-2.8l10.6-6.1c1.1-.6 1.1-1.7 0-2.3l-7.9-4.5c-1.1-.6-2.9-.6-3.9 0l-22.5 12.9c-1.4.8-1.5 2-.1 2.8h0zm168.3-101.9l8.9-5.1c.8-.5.7-1.3-.2-1.8l-8.4-4.8c-1-.5-2.4-.6-3.2-.1l-8.9 5.1c-.8.5-.7 1.3.2 1.8l8.4 4.8c1 .6 2.4.6 3.2.1zm-15.3 8.9l8.9-5.1c.8-.5.7-1.3-.2-1.8l-8.4-4.8c-1-.5-2.4-.6-3.2-.1l-8.9 5.1c-.8.5-.7 1.3.2 1.8l8.4 4.8a4 4 0 0 0 3.2.1zm-15.4 8.8l8.9-5.1c.8-.5.7-1.3-.2-1.8l-8.4-4.8c-1-.5-2.4-.6-3.2-.1l-8.9 5.1c-.8.5-.7 1.3.2 1.8l8.4 4.8c1 .5 2.4.6 3.2.1zm-15.3 8.8l8.9-5.1c.8-.5.7-1.3-.2-1.8l-8.4-4.8c-1-.5-2.4-.6-3.2-.1l-8.9 5.1c-.8.5-.7 1.3.2 1.8l8.4 4.8c.9.5 2.3.6 3.2.1zm-15.4 8.8l8.9-5.1c.8-.5.7-1.3-.2-1.8l-8.4-4.8c-1-.5-2.4-.6-3.2-.1l-8.9 5.1c-.8.5-.7 1.3.2 1.8l8.4 4.8c.9.5 2.4.6 3.2.1zm-15.4 8.8l8.9-5.1c.8-.5.7-1.3-.2-1.8l-8.4-4.8c-1-.5-2.4-.6-3.2-.1l-8.9 5.1c-.8.5-.7 1.3.2 1.8l8.4 4.8c1 .5 2.4.6 3.2.1zm-15.3 8.8l8.9-5.1c.8-.5.7-1.3-.2-1.8l-8.4-4.8c-1-.5-2.4-.6-3.2-.1l-8.9 5.1c-.8.5-.7 1.3.2 1.8l8.4 4.8c.9.5 2.3.6 3.2.1zm-15.4 8.8l8.9-5.1c.8-.5.7-1.3-.2-1.8l-8.4-4.8c-1-.5-2.4-.6-3.2-.1l-8.9 5.1c-.8.5-.7 1.3.2 1.8l8.4 4.8c.9.6 2.4.6 3.2.1zm-15.4 8.9l8.9-5.1c.8-.5.7-1.3-.2-1.8l-8.4-4.8c-1-.5-2.4-.6-3.2-.1l-8.9 5.1c-.8.5-.7 1.3.2 1.8l8.4 4.8a4 4 0 0 0 3.2.1zm-15.3 8.8l8.9-5.1c.8-.5.7-1.3-.2-1.8l-8.4-4.8c-1-.5-2.4-.6-3.2-.1l-8.9 5.1c-.8.5-.7 1.3.2 1.8l8.4 4.8c.9.5 2.3.5 3.2.1zM186 423.4l24.8-14.2c1.3-.7 1.1-2-.4-2.9l-6.4-3.7c-1.5-.9-3.7-.9-5-.2l-24.8 14.2c-1.3.7-1.1 2 .4 2.9l6.4 3.7c1.5.9 3.8 1 5 .2z"/></g><path d="M383.3 463.1l81.7-46.9-59.3-34-81.7 46.9 59.3 34zm81.1-46.9l-81.1 46.5-58.6-33.6 81.1-46.5 58.6 33.6z" stroke="#bed3f4" class="Y c e"/><linearGradient id="z" gradientUnits="userSpaceOnUse" x1="-58.83" y1="396.22" x2="-350.94" y2="565.92"><stop offset="0" stop-color="#e5faff"/><stop offset="1" stop-color="#bdd2f4"/></linearGradient><path d="M100.8 415l271.3-155.7c3.6-2.1 7-6.4 8.5-11.1l.4-1.2 2-208.6c0-2.8-.9-4.8-2.6-5.8s-4-.8-6.4.6L98.9 191.1a18.8 18.8 0 0 0-6.4 6.7c-1.7 2.9-2.6 6.1-2.6 8.8l2 206.2.4.8c1.6 2.9 4.9 3.5 8.5 1.4h0zm271.3-165.9L100.9 404.7l-2-203.4L374 43.5l-1.9 205.6h0z" fill="url(#z)"/><linearGradient id="AA" gradientUnits="userSpaceOnUse" x1="377.48" y1="54.01" x2="114.34" y2="379.83"><stop offset="0" stop-color="#3b92ff"/><stop offset="1" stop-color="#4f9eff"/></linearGradient><path d="M96.9 208.3L99 410.9c.8 1.5 2.5 1.8 4.4.7l271.3-155.7a6.1 6.1 0 0 0 1.6-1.2c1.2-1.2 2.2-2.8 2.8-4.5l2.1-205c1.1-4.3-.7-7.4-3.4-5.8L100.2 198.6s-.1.1-.2.1a9.7 9.7 0 0 0-3.1 9.6h0z" fill="url(#AA)"/><linearGradient id="AB" gradientUnits="userSpaceOnUse" x1="-55.01" y1="397.15" x2="-347.12" y2="566.85"><stop offset="0" stop-color="#1c1265"/><stop offset="1" stop-color="#0f042e"/></linearGradient><path d="M103.3 416.7L374.6 261c3.6-2.1 7-6.4 8.5-11.1l.4-1.2 2-208.6c0-2.8-.9-4.8-2.6-5.8s-4-.8-6.4.6L101.4 192.8a18.8 18.8 0 0 0-6.4 6.7c-1.7 2.9-2.6 6.1-2.6 8.8l2 206.2.4.8c1.6 3 4.9 3.5 8.5 1.4h0zm271.2-165.9L103.4 406.4l-2-203.4L376.5 45.2l-2 205.6z" fill="url(#AB)"/><linearGradient id="AC" gradientUnits="userSpaceOnUse" x1="205.2" y1="288.27" x2="282.68" y2="143.3"><stop offset="0" stop-color="#f5f5f5"/><stop offset=".05" stop-color="#c7c7c7"/><stop offset=".09" stop-color="#9c9c9c"/><stop offset=".14" stop-color="#777"/><stop offset=".2" stop-color="#565656"/><stop offset=".25" stop-color="#3b3b3b"/><stop offset=".32" stop-color="#252525"/><stop offset=".4" stop-color="#141414"/><stop offset=".49" stop-color="#080808"/><stop offset=".63" stop-color="#010101"/><stop offset="1"/></linearGradient><linearGradient id="AD" gradientUnits="userSpaceOnUse" x1="100.47" y1="152.77" x2="377.02" y2="152.77"><stop offset="0" stop-color="#fff"/><stop offset="1"/></linearGradient><path d="     M374.5,250.8l2-205.7L101.4,203C192.9,264.8,341,270.1,374.5,250.8z" opacity=".1" fill="url(#AC)" stroke="url(#AD)" class="c"/><g class="a"><path d="M130.4 216.9v186.3c0 7.9 5.6 11.2 12.6 7.2l276.3-158.6c7-4 12.6-13.7 12.6-21.6V43.7c0-7.9-5.6-11.2-12.6-7.2L143 195.2c-7 4-12.6 13.7-12.6 21.7h0z"/><path d="M429.7 35.9c-2.2-1.2-5.2-1.1-8.7.9L144.8 195.4c-3.4 2-6.6 5.4-8.8 9.2-2.3 3.9-3.7 8.3-3.7 12.2v186.3c0 3.9 1.4 6.6 3.6 7.9 2.1 1.2 5.1 1.1 8.4-.7l.3-.2 276.3-158.6h0c3.4-2 6.6-5.4 8.8-9.2 2.3-3.9 3.7-8.3 3.7-12.2V43.7c-.1-3.9-1.5-6.6-3.7-7.8z" stroke="#0668e1" stroke-width=".47" class="U"/></g><path d="M331.4 140.7L416 92.1c2.9-1.6 5.2-.3 5.2 3v136.8a11.5 11.5 0 0 1-5.2 9l-84.6 48.6c-2.9 1.6-5.2.3-5.2-3V149.6c0-3.3 2.4-7.3 5.2-8.9z" fill="#e0ecfb"/><ellipse transform="matrix(.5001 -.866 .866 .5001 37.0167 366.3168)" cx="335.8" cy="151.1" rx="6.1" ry="3.5" class="b"/><g class="Z"><path d="M343.1 143.4l23.2-13.4c.7-.4 1.3-.1 1.3.7h0c0 .8-.6 1.8-1.3 2.2l-23.2 13.4c-.7.4-1.3.1-1.3-.7h0c0-.8.6-1.8 1.3-2.2zm-.4 5.2l12.1-7c.5-.3.9-.1.9.5h0c0 .5-.4 1.2-.9 1.5l-12.1 7c-.5.3-.9.1-.9-.5h0c0-.5.4-1.2.9-1.5z"/></g><g stroke="#70b0ff" class="d"><use href="#K" class="Y"/><path d="M342.2 168.4l30.1-17.4c1.1-.6 1.9-.1 1.9 1.1h0c0 1.2-.9 2.7-1.9 3.4l-30.1 17.4c-1.1.6-1.9.1-1.9-1.1h0c0-1.2.9-2.7 1.9-3.4z" class="Z"/><use href="#L" class="Y"/><path d="M342.3 178.4l64.6-37.3c1.1-.6 1.9-.1 1.9 1.1h0c0 1.2-.9 2.7-1.9 3.4l-64.6 37.3c-1.1.6-1.9.1-1.9-1.1h0c0-1.3.8-2.8 1.9-3.4z" class="Z"/><path d="M332.4 193.5l3.4-2c.4-.2.6 0 .6.4v4c0 .4-.3.9-.6 1.1l-3.4 2c-.4.2-.6 0-.6-.4v-4c-.1-.4.2-.9.6-1.1z" class="Y"/><path d="M342.3 188.3l38.7-22.4c1.1-.6 1.9-.1 1.9 1.1h0c0 1.2-.9 2.7-1.9 3.4l-38.7 22.4c-1.1.6-1.9.1-1.9-1.1h0a3.9 3.9 0 0 1 1.9-3.4z" class="Z"/><path d="M332.4 203.4l3.4-2c.4-.2.6 0 .6.4v4c0 .4-.3.9-.6 1.1l-3.4 2c-.4.2-.6 0-.6-.4v-4c-.1-.4.2-.9.6-1.1z" class="Y"/><use href="#M" class="Z"/><path d="M332.4 213.4l3.4-2c.4-.2.6 0 .6.4v4c0 .4-.3.9-.6 1.1l-3.4 2c-.4.2-.6 0-.6-.4v-4c-.1-.4.2-.9.6-1.1z" class="Y"/><path d="M342.3 208.1l64.6-37.3c1.1-.6 1.9-.1 1.9 1.1h0c0 1.2-.9 2.7-1.9 3.4l-64.6 37.3c-1.1.6-1.9.1-1.9-1.1h0c0-1.2.8-2.7 1.9-3.4z" class="Z"/><path d="M332.4 223.3l3.4-2c.4-.2.6 0 .6.4v4c0 .4-.3.9-.6 1.1l-3.4 2c-.4.2-.6 0-.6-.4v-4c-.1-.4.2-.9.6-1.1z" class="Y"/><path d="M342.3 218l60.3-34.8c1.1-.6 1.9-.1 1.9 1.1h0c0 1.2-.9 2.7-1.9 3.4l-60.3 34.8c-1.1.6-1.9.1-1.9-1.1h0c-.1-1.2.8-2.7 1.9-3.4z" class="Z"/><path d="M332.4 233.2l3.4-2c.4-.2.6 0 .6.4v4c0 .4-.3.9-.6 1.1l-3.4 2c-.4.2-.6 0-.6-.4v-4c-.1-.4.2-.9.6-1.1z" class="Y"/><path d="M342.3 228l47.4-27.3c1.1-.6 1.9-.1 1.9 1.1h0c0 1.2-.9 2.7-1.9 3.4l-47.4 27.3c-1.1.6-1.9.1-1.9-1.1h0a3.9 3.9 0 0 1 1.9-3.4z" class="Z"/><path d="M332.3 243.1l3.4-2c.4-.2.6 0 .6.4v4c0 .4-.3.9-.6 1.1l-3.4 2c-.4.2-.6 0-.6-.4v-4c0-.4.3-.9.6-1.1z" class="Y"/><path d="M342.2 237.8l12.9-7.5c1.1-.6 1.9-.1 1.9 1.1h0c0 1.2-.9 2.7-1.9 3.4l-12.9 7.5c-1.1.6-1.9.1-1.9-1.1h0c0-1.2.8-2.7 1.9-3.4z" class="Z"/><g class="Y"><path d="M335.7 253l76-43.6c1.3-.8 2.4-.1 2.4 1.4V231c0 1.5-1.1 3.4-2.4 4.1l-76 43.6c-1.3.8-2.4.1-2.4-1.4V257a5.5 5.5 0 0 1 2.4-4z"/></g></g><g stroke="#000" class="Y d"><path d="M412.6,106l3.4-6"/><path d="M416,104l-3.4-2"/></g><path d="M326.2 169.7l95-54.6" stroke="#fff" class="Y d"/><path d="M142.7,257.3c0-2.2,1.5-4.8,3.4-5.9l45.6-26.2v17.9l-49,28.1V257.3z" class="b"/><path d="M154.9 256.6v-3.9l.8-.5v3.9c0 .4-.1.7-.2 1.1-.1.3-.3.6-.6.9-.2.3-.5.5-.8.7s-.6.3-.8.3-.4-.1-.6-.2c-.1-.2-.2-.4-.2-.8l.8-.5c0 .2 0 .4.1.5s.1.1.3.1c.1 0 .2-.1.4-.1.1-.1.3-.2.4-.3s.2-.3.3-.5c.1-.3.1-.5.1-.7zm1.6-1.2h0c0-.4 0-.7.1-1l.3-.9c.1-.3.3-.5.5-.7s.4-.4.7-.6.5-.2.7-.2.4 0 .5.1.3.3.3.5c.1.2.1.5.1.8v.1c0 .3 0 .6-.1.9l-.3.9c-.1.3-.3.5-.5.7s-.4.4-.7.6-.5.2-.7.3c-.2 0-.4 0-.5-.1s-.3-.3-.3-.5c-.1-.4-.1-.6-.1-.9zm.8-.6h0v.6c0 .1.1.3.2.3.1.1.2.1.3.1s.2 0 .4-.1c.1-.1.3-.2.4-.3s.2-.3.3-.5.1-.3.2-.5c0-.2.1-.4.1-.6v-.1c0-.2 0-.3-.1-.5 0-.1-.1-.3-.2-.3-.1-.1-.2-.1-.3-.1s-.2 0-.4.1-.3.2-.4.3-.2.3-.3.5-.1.3-.2.5v.6zm3.2-5.6l.8-.5v5l-.1.9-.7.4v-5.8zm3.2 1.9h0c0 .4 0 .7-.1 1s-.1.6-.3.8c-.1.3-.3.5-.4.7-.2.2-.4.4-.6.5s-.4.2-.6.2-.3-.1-.4-.2-.2-.3-.3-.5-.1-.5-.1-.7v-.3c0-.3.1-.6.1-.9l.3-.8c.1-.2.3-.5.4-.7.2-.2.4-.4.6-.5s.4-.2.6-.2.3.1.4.2.2.3.3.5c.1.4.1.6.1.9zm-.8.6h0v-.6c0-.2-.1-.3-.1-.4l-.2-.2c-.1 0-.2 0-.4.1-.1.1-.3.2-.4.3s-.2.2-.3.4c-.1.1-.1.3-.2.4 0 .1-.1.3-.1.5v.7c0 .2.1.3.1.5.1.1.2.2.3.2s.3 0 .5-.1c.1-.1.3-.2.4-.3s.2-.3.2-.4c.1-.2.1-.3.1-.5.1-.2.1-.4.1-.6zm6.1-3.3l.8-.5c0 .4-.1.8-.3 1.1-.2.4-.4.7-.6 1-.3.3-.6.6-1 .8-.3.2-.6.3-.8.3s-.4 0-.6-.2c-.2-.1-.3-.3-.4-.6s-.1-.6-.1-1v-.5c0-.4 0-.8.1-1.2s.2-.7.4-1.1l.6-.9c.2-.3.5-.5.8-.7.4-.2.7-.3 1-.3s.5.1.6.3a6.9 6.9 0 0 1 .3.8l-.8.5c0-.2-.1-.4-.1-.5-.1-.1-.2-.2-.3-.2s-.3.1-.6.2c-.2.1-.4.2-.5.4s-.3.4-.4.6-.2.5-.2.7c0 .3-.1.5-.1.8v.5c0 .3 0 .5.1.7 0 .2.1.4.2.5s.2.2.3.2.3 0 .5-.2c.2-.1.4-.3.6-.5.1-.2.3-.4.3-.6.1.1.2-.2.2-.4zm1.4-1h0c0-.4 0-.7.1-1l.3-.9c.1-.3.3-.5.5-.7s.4-.4.7-.6.5-.2.7-.2.4 0 .5.1.3.3.3.5c.1.2.1.5.1.8v.1c0 .3 0 .6-.1.9l-.3.9c-.1.3-.3.5-.5.7s-.4.4-.7.6-.5.2-.7.2-.4 0-.5-.1-.3-.3-.3-.5c-.1-.3-.1-.5-.1-.8zm.8-.6h0c0 .3 0 .4.1.6 0 .1.1.3.2.3.1.1.2.1.3.1s.2 0 .4-.1c.1-.1.3-.2.4-.3s.2-.3.3-.5.1-.3.2-.5c0-.2.1-.4.1-.6v-.1c0-.2 0-.3-.1-.5 0-.1-.1-.3-.2-.4s-.2-.1-.3-.1-.2 0-.4.1-.3.2-.4.3-.2.3-.3.5-.1.3-.2.5c-.1.4-.1.5-.1.7zm5.4-1.8v-5l.8-.5v5.9l-.7.4-.1-.8zm-2.3.1h0c0-.4 0-.7.1-1l.3-.8c.1-.3.3-.5.4-.7.2-.2.4-.4.6-.5s.4-.2.6-.2.3.1.4.2.2.3.3.5a1.7 1.7 0 0 1 .1.7v.3c0 .3-.1.6-.1.9l-.3.8c-.1.2-.3.5-.4.7-.2.2-.4.4-.6.5s-.4.2-.6.2-.3-.1-.4-.2-.2-.3-.3-.5c-.1-.3-.1-.5-.1-.9zm.8-.5h0v.6c0 .1.1.3.1.4.1.1.1.1.2.1s.2 0 .4-.1.3-.2.4-.4.2-.3.3-.5.1-.4.1-.6v-.7c0-.1 0-.3-.1-.4 0-.1-.1-.2-.2-.2-.1-.1-.2-.1-.3-.1s-.2 0-.4.1c-.1.1-.3.2-.4.3s-.2.3-.3.4c-.1.2-.1.3-.1.5.3.2.3.4.3.6zm4.8-.5c-.3.2-.5.2-.7.3-.2 0-.4 0-.5-.1s-.3-.2-.3-.4c-.1-.2-.1-.4-.1-.7v-.2c0-.3 0-.6.1-1l.3-.9c.1-.3.3-.5.5-.7s.4-.4.7-.5.5-.2.7-.2.4 0 .5.1.2.3.3.5.1.5.1.8v.4l-2.8 1.6v-.7l2-1.1v-.1c0-.2 0-.3-.1-.4s-.1-.2-.2-.2-.2 0-.4.1c-.1.1-.3.2-.4.3s-.2.3-.3.4c-.1.2-.1.3-.2.5 0 .2-.1.4-.1.6v.2c0 .2 0 .3.1.5 0 .1.1.2.2.3s.2.1.3.1.3-.1.4-.1c.2-.1.4-.3.5-.4.2-.2.3-.4.4-.6l.4.2-.3.6c-.1.2-.3.4-.5.6-.2-.1-.4 0-.6.2z" class="a"/><path d="M191.7 225.2l42.4-24.3v17.9l-42.4 24.3z" class="b"/><path d="M202.7 228.8l-1.3.7v-.8l1.3-.7c.2-.1.4-.3.5-.4s.2-.3.3-.5.1-.4.1-.6 0-.3-.1-.4-.2-.2-.3-.2-.3 0-.5.2l-1 .6v4.8l-.8.5v-5.6l1.8-1.1c.4-.2.7-.3 1-.3s.5.1.6.3.2.5.2.8c0 .4-.1.7-.2 1a1.8 1.8 0 0 1-.6.9 7 7 0 0 1-1 .8zm2.2-1.2h0c0-.4 0-.7.1-1l.3-.9c.1-.3.3-.5.5-.7s.4-.4.7-.6.5-.2.7-.2.4 0 .5.1.3.3.3.5c.1.2.1.5.1.8v.1c0 .3 0 .6-.1.9l-.3.9c-.1.3-.3.5-.5.7s-.4.4-.7.6-.5.2-.7.2-.4 0-.5-.1-.3-.3-.3-.5c-.1-.3-.1-.5-.1-.8zm.8-.6h0c0 .3 0 .4.1.6 0 .1.1.3.2.3.1.1.2.1.3.1s.2 0 .4-.1c.1-.1.3-.2.4-.3s.2-.3.3-.5.1-.3.2-.5c0-.2.1-.4.1-.6h0c0-.2 0-.3-.1-.5 0-.1-.1-.3-.2-.4s-.2-.1-.3-.1-.2 0-.4.1-.3.2-.4.3-.2.3-.3.5-.1.3-.2.5-.1.4-.1.6zm5.3-2c0-.1 0-.2-.1-.2 0-.1-.1-.1-.2-.1s-.3 0-.5.1-.4.1-.5.1h-.4c-.1 0-.2-.1-.3-.2s-.1-.2-.1-.4a.9.9 0 0 1 .1-.5l.3-.6c.1-.2.3-.4.4-.5.2-.2.4-.3.6-.4.3-.2.6-.3.8-.3s.4.1.5.2.2.3.2.6l-.8.5c0-.1 0-.2-.1-.3 0-.1-.1-.1-.2-.1s-.2 0-.4.1c-.1.1-.3.2-.3.3-.1.1-.2.2-.2.3s-.1.2-.1.3v.2l.1.1h.2c.1 0 .2-.1.4-.1.3-.1.5-.1.7-.2.2 0 .4 0 .5.1s.2.3.2.5 0 .4-.1.6l-.3.6a1.2 1.2 0 0 1-.5.5c-.2.2-.4.3-.6.4-.3.2-.6.3-.8.3s-.4-.1-.5-.2-.2-.3-.2-.6l.8-.4c0 .2.1.3.1.3.1.1.2.1.3.1s.2-.1.3-.1c.1-.1.3-.2.4-.3s.2-.2.2-.3c0-.2.1-.3.1-.4zm2.3-4.4v4.2l-.8.5v-4.2l.8-.5zm-.9-.6c0-.1 0-.3.1-.4s.2-.3.3-.3c.1-.1.3-.1.3-.1.1 0 .1.1.1.3 0 .1 0 .3-.1.4l-.3.3c-.1.1-.3.1-.3.1 0-.1-.1-.2-.1-.3zm3.4-.8v.7l-2 1.2v-.7l2-1.2zm-1.4-.2l.8-.5v4 .3l.1.1s.1 0 .2-.1c.1 0 .1-.1.2-.1s.1-.1.1-.1v.7l-.2.2c-.1.1-.2.1-.3.2-.2.1-.3.2-.5.2-.1 0-.3-.1-.3-.2-.1-.1-.1-.3-.1-.6V219zm2.9-.7v4.2l-.8.5v-4.2l.8-.5zm-.8-.6c0-.1 0-.3.1-.4s.2-.3.3-.3c.1-.1.3-.1.3-.1.1 0 .1.1.1.3 0 .1 0 .3-.1.4l-.3.3c-.1.1-.3.1-.3.1-.1-.1-.1-.2-.1-.3zm1.5 2.3h0c0-.4 0-.7.1-1l.3-.9c.1-.3.3-.5.5-.7s.4-.4.7-.6.5-.2.7-.2.4 0 .5.1.3.3.3.5c.1.2.1.5.1.8v.1c0 .3 0 .6-.1.9l-.3.9c-.1.3-.3.5-.5.7s-.4.4-.7.6-.5.2-.7.3c-.2 0-.4 0-.5-.1s-.3-.3-.3-.5c0-.3-.1-.6-.1-.9zm.9-.5h0v.6c0 .1.1.3.2.3.1.1.2.1.3.1s.2 0 .4-.1c.1-.1.3-.2.4-.3s.2-.3.3-.5.1-.3.2-.5c0-.2.1-.4.1-.6v-.1c0-.2 0-.3-.1-.5 0-.1-.1-.3-.2-.4s-.2-.1-.3-.1-.2 0-.4.1-.3.2-.4.3-.2.3-.3.5-.1.3-.2.5v.7zm4-3.5v3.3l-.8.5v-4.2l.8-.4v.8zm-.2 1.1l-.3.1c0-.3 0-.6.1-.9l.3-.8c.1-.2.3-.5.5-.7s.4-.4.6-.5.3-.2.5-.2c.1 0 .3 0 .4.1s.2.2.2.3c.1.2.1.4.1.7v2.7l-.8.5v-2.7c0-.2 0-.3-.1-.4 0-.1-.1-.1-.2-.1s-.2 0-.4.1c-.1.1-.3.2-.4.3s-.2.3-.3.4c-.1.2-.1.3-.2.5v.6z" class="a"/><path d="M234.1 200.9l42.5-24.4v17.9l-42.5 24.4z" class="b"/><path d="M245.1 204.4l-1.3.7v-.8l1.3-.7c.2-.1.4-.3.5-.4.1-.2.2-.3.3-.5s.1-.4.1-.6 0-.3-.1-.4-.2-.2-.3-.2-.3 0-.5.2l-1 .6v4.8l-.8.5V202l1.8-1.1c.4-.2.7-.3 1-.3s.5.1.6.3.2.5.2.8c0 .4-.1.7-.2 1a1.8 1.8 0 0 1-.6.9c-.3.4-.6.6-1 .8zm2.2-1.2h0c0-.4 0-.7.1-1l.3-.9c.1-.3.3-.5.5-.7s.4-.4.7-.6.5-.2.7-.2.4 0 .5.1.3.3.3.5c.1.2.1.5.1.8v.1c0 .3 0 .6-.1.9l-.3.9c-.1.3-.3.5-.5.7s-.4.4-.7.6-.5.2-.7.3c-.2 0-.4 0-.5-.1s-.3-.3-.3-.5c0-.4-.1-.6-.1-.9zm.8-.6h0c0 .3 0 .4.1.6 0 .1.1.3.2.3.1.1.2.1.3.1s.2 0 .4-.1c.1-.1.3-.2.4-.3s.2-.3.3-.5.1-.3.2-.5c0-.2.1-.4.1-.6v-.1c0-.2 0-.3-.1-.5 0-.1-.1-.3-.2-.4s-.2-.1-.3-.1-.2 0-.4.1-.3.2-.4.3-.2.3-.3.5-.1.3-.2.5c0 .4-.1.6-.1.7zm5.3-2c0-.1 0-.2-.1-.2 0-.1-.1-.1-.2-.1s-.3 0-.5.1-.4.1-.5.1h-.4c-.1 0-.2-.1-.3-.2s-.1-.2-.1-.4 0-.3.1-.5l.3-.6c.1-.2.3-.4.4-.5.2-.2.4-.3.6-.4.3-.2.6-.3.8-.3s.4.1.5.2.2.3.2.6l-.8.5c0-.1 0-.2-.1-.3 0-.1-.1-.1-.2-.1s-.2 0-.4.1c-.1.1-.3.2-.3.3-.1.1-.2.2-.2.3s-.1.2-.1.3v.2l.1.1h.2c.1 0 .2-.1.4-.1.3-.1.5-.1.7-.2.2 0 .4 0 .5.1s.2.3.2.5 0 .4-.1.6l-.3.6a1.2 1.2 0 0 1-.5.5c-.2.2-.4.3-.6.4-.3.2-.6.3-.8.3s-.4-.1-.5-.2-.2-.3-.2-.6l.8-.4c0 .2.1.3.1.3.1.1.2.1.3.1s.2-.1.3-.1c.1-.1.3-.2.4-.3s.2-.2.2-.3c.1-.2.1-.3.1-.4zm2.3-4.4v4.2l-.8.5v-4.2l.8-.5zm-.8-.6c0-.1 0-.3.1-.4s.2-.3.3-.3c.1-.1.3-.1.3-.1.1 0 .1.1.1.3 0 .1 0 .3-.1.4l-.3.3c-.1.1-.3.1-.3.1-.1 0-.1-.1-.1-.3zm3.4-.8v.7l-2 1.2v-.7l2-1.2zm-1.5-.2l.8-.5v4 .3l.1.1c.1 0 .1 0 .2-.1.1 0 .1-.1.2-.1s.1-.1.1-.1v.7l-.2.2c-.1.1-.2.1-.3.2-.2.1-.3.2-.5.2-.1 0-.3-.1-.3-.2-.1-.1-.1-.3-.1-.6v-4.1zm3-.7v4.2l-.8.5v-4.2l.8-.5zm-.9-.6c0-.1 0-.3.1-.4s.2-.3.3-.3c.1-.1.3-.1.3-.1.1 0 .1.1.1.3 0 .1 0 .3-.1.4l-.3.3c-.1.1-.3.1-.3.1-.1 0-.1-.1-.1-.3zm1.6 2.3h0c0-.4 0-.7.1-1l.3-.9c.1-.3.3-.5.5-.7s.4-.4.7-.6.5-.2.7-.2.4 0 .5.1.3.3.3.5c.1.2.1.5.1.8v.1c0 .3 0 .6-.1.9l-.3.9c-.1.3-.3.5-.5.7s-.4.4-.7.6-.5.2-.7.3c-.2 0-.4 0-.5-.1s-.3-.3-.3-.5c-.1-.3-.1-.6-.1-.9zm.8-.5h0c0 .3 0 .4.1.6 0 .1.1.3.2.3.1.1.2.1.3.1s.2 0 .4-.1c.1-.1.3-.2.4-.3s.2-.3.3-.5.1-.3.2-.5c0-.2.1-.4.1-.6v-.1c0-.2 0-.3-.1-.5 0-.1-.1-.3-.2-.4s-.2-.1-.3-.1-.2 0-.4.1-.3.2-.4.3-.2.3-.3.5-.1.3-.2.5c-.1.3-.1.5-.1.7zm4-3.5v3.3l-.8.5v-4.2l.8-.4v.8zm-.1 1.2l-.3.1c0-.3 0-.6.1-.9l.3-.8c.1-.2.3-.5.5-.7s.4-.4.6-.5.3-.2.5-.2c.1 0 .3 0 .4.1s.2.2.2.3c.1.2.1.4.1.7v2.7l-.8.5v-2.7c0-.2 0-.3-.1-.4 0-.1-.1-.1-.2-.1s-.2 0-.4.1c-.1.1-.3.2-.4.3s-.2.3-.3.4c-.1.2-.1.3-.2.5v.6z" class="a"/><path d="M276.6 176.5l39-22.4c1.9-1.1 3.4-.2 3.4 2V170l-42.4 24.4v-17.9z" class="b"/><path d="M286.2 182.9l-1 .6v-.8l1-.6c.3-.2.6-.4.8-.7s.4-.6.5-.9a3.6 3.6 0 0 0 .2-1.1v-.3c0-.3 0-.6-.1-.8s-.1-.3-.3-.4c-.1-.1-.3-.1-.4-.1-.2 0-.4.1-.6.2l-1.1.6v-.8l1.1-.6c.3-.2.6-.3.9-.3s.5 0 .7.1.3.3.5.6c.1.3.2.6.2 1v.3c0 .4-.1.8-.2 1.2a3.7 3.7 0 0 1-.5 1.1c-.2.3-.4.7-.7.9-.3.4-.6.6-1 .8zm-.5-5.3v5.6l-.8.5v-5.6l.8-.5zm5.1 2.7c-.3.2-.5.2-.7.3-.2 0-.4 0-.5-.1s-.3-.2-.3-.4c-.1-.2-.1-.4-.1-.7v-.2c0-.3 0-.6.1-1l.3-.9c.1-.3.3-.5.5-.7s.4-.4.6-.5c.3-.1.5-.2.7-.2s.4 0 .5.1.2.3.3.5.1.5.1.8v.4l-2.8 1.6v-.7l2-1.1v-.1c0-.2 0-.3-.1-.4s-.1-.2-.2-.2-.2 0-.4.1c-.1.1-.3.2-.4.3s-.2.3-.3.4c-.1.2-.1.3-.2.5 0 .2-.1.4-.1.6v.2a.9.9 0 0 0 .1.5c0 .1.1.2.2.3s.2.1.3.1.3-.1.4-.1c.2-.1.4-.3.5-.4.2-.2.3-.4.4-.6l.4.2-.3.6c-.1.2-.3.4-.5.6-.1 0-.3.1-.5.2zm3.6-2.7c.1-.1.2-.2.4-.3.1-.1.2-.3.3-.4s.1-.3.1-.4l.8-.4c0 .3-.1.6-.2.9s-.3.6-.5.8c-.2.3-.5.5-.7.6-.3.2-.5.2-.7.3-.2 0-.4 0-.5-.2-.1-.1-.2-.3-.3-.5s-.1-.5-.1-.8v-.2c0-.3 0-.6.1-.9l.3-.8c.1-.3.3-.5.5-.7s.4-.4.7-.6.5-.2.8-.2c.2 0 .4.1.5.3s.2.4.2.7l-.8.4c0-.1 0-.3-.1-.4l-.2-.2c-.1 0-.2 0-.4.1s-.3.2-.4.3-.2.3-.2.5c-.1.2-.1.3-.1.5v.5.1.5c0 .1.1.3.1.4.1.1.1.1.3.2-.2 0-.1 0 .1-.1zm2.9-7v5.9l-.8.5v-5.9l.8-.5zm1.7.8v4.2l-.8.5v-4.2l.8-.5zm-.8-.6c0-.1 0-.3.1-.4s.2-.3.3-.3c.1-.1.3-.1.3-.1.1 0 .1.1.1.3 0 .1 0 .3-.1.4l-.3.3c-.1.1-.3.1-.3.1-.1-.1-.1-.2-.1-.3zm2.5.5v3.3l-.8.5v-4.2l.8-.4v.8zm-.1 1.1l-.3.1c0-.3 0-.6.1-.9l.3-.8c.1-.2.3-.5.5-.7s.4-.4.6-.5.3-.2.5-.2c.1 0 .3 0 .4.1s.2.2.2.3c.1.2.1.4.1.7v2.7l-.8.5V171c0-.2 0-.3-.1-.4 0-.1-.1-.1-.2-.1s-.2 0-.4.1c-.1.1-.3.2-.4.3s-.2.3-.3.4c-.1.2-.1.3-.2.5v.6zm4.7-.4c-.3.2-.5.2-.7.3-.2 0-.4 0-.5-.1s-.3-.2-.3-.4c-.1-.2-.1-.4-.1-.7v-.2c0-.3 0-.6.1-1l.3-.9c.1-.3.3-.5.5-.7s.4-.4.6-.5c.3-.1.5-.2.7-.2s.4 0 .5.1.2.3.3.5.1.5.1.8v.4L304 171v-.7l2-1.1v-.2c0-.2 0-.3-.1-.4s-.1-.2-.2-.2-.2 0-.4.1c-.1.1-.3.2-.4.3s-.2.3-.3.4-.1.3-.2.5c0 .2-.1.4-.1.6v.2a.9.9 0 0 0 .1.5c0 .1.1.2.2.3s.2.1.3.1.3-.1.4-.1c.2-.1.4-.3.5-.4.2-.2.3-.4.4-.6l.4.2-.3.6c-.1.2-.3.4-.5.6 0 0-.2.2-.5.3zm4.3-3.4v-5l.8-.5v5.9l-.7.4-.1-.8zm-2.4.2h0c0-.4 0-.7.1-1l.3-.8c.1-.3.3-.5.4-.7.2-.2.4-.4.6-.5s.4-.2.6-.2.3.1.4.2.2.3.3.5a1.7 1.7 0 0 1 .1.7v.3c0 .3-.1.6-.1.9l-.3.8c-.1.2-.3.5-.4.7-.2.2-.4.4-.6.5s-.4.2-.6.2-.3-.1-.4-.2-.2-.3-.3-.5c0-.3-.1-.6-.1-.9zm.8-.6h0v.6c0 .1.1.3.1.4.1.1.1.1.2.1s.2 0 .4-.1.3-.2.5-.4c.1-.2.2-.3.3-.5s.1-.4.1-.6v-.7c0-.1 0-.3-.1-.4 0-.1-.1-.2-.2-.2-.1-.1-.2-.1-.3-.1s-.2 0-.4.1c-.1.1-.3.2-.4.3s-.2.3-.3.4c-.1.2-.1.3-.1.5.3.3.2.5.2.6z" class="a"/><path d="M142.7 271.2l49-28.1v13.2l-49 28.1z" class="V W"/><g class="T"><path d="M175.1 256.3h0v.5h0c-.3.2-.5.3-.7.5s-.3.4-.4.7c-.1.2-.2.5-.2.7s-.1.5-.1.7v.7c0 .2 0 .4.1.5 0 .1.1.2.2.3s.2.1.2.1c.1 0 .2 0 .3-.1l.3-.3c.1-.1.2-.2.2-.4.1-.1.1-.3.1-.4 0-.2.1-.3.1-.5v-.4c0-.1-.1-.2-.1-.3-.1-.1-.1-.1-.2-.1s-.2 0-.3.1-.3.2-.4.4c-.1.1-.2.3-.3.5s-.1.3-.1.5l-.3.2c0-.3.1-.5.1-.7l.3-.6c.1-.2.2-.3.4-.4.1-.1.3-.2.4-.3.2-.1.4-.2.5-.2s.3.1.4.1c.1.1.2.2.2.4s.1.3.1.5 0 .4-.1.7c-.1.2-.1.4-.2.6s-.2.4-.4.6-.3.3-.5.4-.4.2-.6.2-.3-.1-.4-.2-.2-.3-.2-.4c-.1-.2-.1-.4-.1-.6v-.3c0-.3 0-.7.1-1 .1-.4.2-.7.3-1s.3-.7.6-1c0-.2.3-.5.7-.7z"/><use href="#N"/><path d="M169.5 263.5v-4.2l.5-.3v4.9l-.5.3v-.7zm-2 .1h0c0-.3 0-.6.1-.8.1-.3.1-.5.2-.7s.2-.4.4-.6c.1-.2.3-.3.5-.4s.4-.2.5-.2.3 0 .4.1.2.2.2.4c.1.2.1.4.1.6v.3c0 .3-.1.5-.1.8-.1.2-.1.5-.2.7s-.2.4-.4.5c-.1.2-.3.3-.5.4s-.3.1-.5.1c-.1 0-.3-.1-.4-.2s-.2-.2-.2-.4c-.1-.1-.1-.3-.1-.6zm.5-.3h0v.5c0 .1.1.2.1.3.1.1.1.1.2.1s.2 0 .4-.1.3-.2.4-.4c.1-.1.2-.3.3-.5s.1-.4.2-.5v-.7c0-.1-.1-.2-.1-.3s-.1-.2-.2-.2c-.1-.1-.1-.1-.2-.1s-.2 0-.3.1-.3.2-.4.3-.2.3-.2.4c-.1.2-.1.3-.1.5-.1.2-.1.4-.1.6z"/><use href="#O"/><use href="#P"/><path d="M160.3 264.8l-1.7 6-.4.3 1.7-6 .4-.3z"/><use href="#Q"/><path d="M152 272.5h0c0-.3 0-.6.1-.8.1-.3.2-.5.3-.7s.3-.4.4-.6c.2-.2.4-.3.6-.5.2-.1.4-.2.6-.2s.3 0 .4.1.2.2.3.4.1.4.1.6v.1c0 .2 0 .5-.1.8l-.3.7c-.1.2-.3.4-.4.6-.2.2-.4.3-.6.5-.2.1-.4.2-.6.2s-.3 0-.4-.1-.2-.2-.3-.4c0-.2-.1-.4-.1-.7zm.5-.3h0c0 .2 0 .4.1.5 0 .1.1.2.2.3s.2.1.3.1.2 0 .4-.1c.1-.1.3-.2.4-.3s.2-.3.3-.4c.1-.2.1-.3.2-.5 0-.2.1-.3.1-.5v-.1c0-.2 0-.3-.1-.5 0-.1-.1-.2-.2-.3s-.2-.1-.3-.1-.2 0-.4.1c-.1.1-.3.2-.4.3s-.2.3-.3.4c-.1.2-.1.3-.2.5 0 .2-.1.4-.1.6z"/><use href="#R"/></g><use href="#S" class="V W"/><g class="T"><use href="#T"/><use href="#U"/></g><use href="#V" class="V W"/><g class="T"><use href="#W"/><path d="M254.1 211.5v4.7l-.5.3v-4l-1 1v-.5l1.5-1.5h0z"/></g><path d="M276.6 194.4L319 170v13.1l-42.4 24.4z" class="V W"/><g class="T"><use href="#X"/><path d="M296.9 187h0v.5h0c-.3.2-.5.3-.7.5s-.3.4-.4.7c-.1.2-.2.5-.2.7s-.1.5-.1.7v.7c0 .2 0 .4.1.5 0 .1.1.2.2.3s.2.1.2.1c.1 0 .2 0 .3-.1l.3-.3c.1-.1.2-.2.2-.4.1-.1.1-.3.1-.4v-.5-.4c0-.1-.1-.2-.1-.3-.1-.1-.1-.1-.2-.1s-.2 0-.3.1-.3.2-.4.4-.2.3-.3.5-.1.3-.1.5l-.3.2c0-.3.1-.5.1-.7l.3-.6c.1-.2.2-.3.4-.4.1-.1.3-.2.4-.3.2-.1.4-.2.5-.2s.3.1.4.1c.1.1.2.2.2.4s.1.3.1.5 0 .4-.1.7c-.1.2-.1.4-.2.6s-.2.4-.4.6-.3.3-.5.4-.4.2-.6.2-.3-.1-.4-.2-.2-.3-.2-.4c-.1-.2-.1-.4-.1-.6v-.3c0-.3 0-.7.1-1 .1-.4.2-.7.3-1s.3-.7.6-1c.1-.3.4-.5.8-.7z"/></g><use href="#Y" class="U X"/><g class="T"><use href="#Z"/><path d="M172.6 270.8l-1.7 6-.4.3 1.7-6 .4-.3zm-3.1 5.8v-4.2l.5-.3v4.9l-.5.3v-.7zm-2 .2h0c0-.3 0-.6.1-.8.1-.3.1-.5.2-.7s.2-.4.4-.6c.1-.2.3-.3.5-.4s.4-.2.5-.2.3 0 .4.1.2.2.2.4c.1.2.1.4.1.6v.3c0 .3-.1.5-.1.8-.1.2-.1.5-.2.7s-.2.4-.4.5c-.1.2-.3.3-.5.4a.9.9 0 0 1-.5.1c-.1 0-.3-.1-.4-.2s-.2-.2-.2-.4c-.1-.2-.1-.4-.1-.6zm.5-.4h0v.5c0 .1.1.2.1.3.1.1.1.1.2.1s.2 0 .4-.1.3-.2.4-.4c.1-.1.2-.3.3-.5s.1-.4.2-.5v-.8c0-.1-.1-.2-.1-.3s-.1-.2-.2-.2c-.1-.1-.1-.1-.2-.1s-.2 0-.3.1-.3.2-.4.3-.2.3-.2.4c-.1.2-.1.3-.1.5-.1.4-.1.5-.1.7z"/><use href="#a"/><path d="M163.6 278v.5l-2.2 1.3v-.5l2.2-1.3zm-2.1-.8v4.7l-.5.3v-4.7l.5-.3zm2.6-1.4v4.7l-.5.3v-4.7l.5-.3zm-3.8 2.1l-1.7 6-.4.3 1.7-6 .4-.3zm-4.4 4.5v2.7l-.5.3v-3.5l.5-.3v.8zm-.1.9l-.2.1c0-.2 0-.5.1-.7s.1-.5.2-.7.2-.4.4-.6.3-.3.5-.4c.1-.1.3-.1.4-.2h.3c.1.1.1.1.2.3 0 .1.1.3.1.5v2.3l-.5.3v-2.3c0-.2 0-.3-.1-.4 0-.1-.1-.1-.2-.1s-.2 0-.3.1-.2.2-.4.3c-.1.1-.2.3-.3.4-.1.2-.1.3-.2.5v.6zm-3.8 2.4h0c0-.3 0-.6.1-.8.1-.3.2-.5.3-.7s.3-.4.4-.6c.2-.2.4-.3.6-.5.2-.1.4-.2.6-.2s.3 0 .4.1.2.2.3.4.1.4.1.6v.1c0 .2 0 .5-.1.8l-.3.7c-.1.2-.3.4-.4.6-.2.2-.4.3-.6.5-.2.1-.4.2-.6.2s-.3 0-.4-.1-.2-.2-.3-.4c0-.3-.1-.5-.1-.7zm.5-.4h0c0 .2 0 .4.1.5 0 .1.1.2.2.3s.2.1.3.1.2 0 .4-.1c.1-.1.3-.2.4-.3s.2-.3.3-.4c.1-.2.1-.3.2-.5 0-.2.1-.3.1-.5v-.1c0-.2 0-.3-.1-.5 0-.1-.1-.2-.2-.3s-.2-.1-.3-.1-.2 0-.4.1c-.1.1-.3.2-.4.3s-.2.3-.3.4c-.1.2-.1.3-.2.5 0 .2-.1.4-.1.6z"/><use href="#b"/></g><path d="M191.7 256.3l42.4-24.4V245l-42.4 24.4z" class="U X"/><g class="T"><use href="#c"/><path d="M210.8 251.6l.4-.2c.2-.1.3-.2.4-.4.1-.1.2-.3.3-.4.1-.2.1-.3.1-.5s0-.3-.1-.4-.1-.1-.2-.1-.2 0-.4.1c-.1.1-.3.2-.4.3s-.2.3-.3.4c-.1.2-.1.3-.1.5l-.5.3c0-.2.1-.5.2-.7.1-.3.2-.5.4-.7s.4-.4.7-.5c.2-.1.5-.2.6-.2.2 0 .3.1.4.2s.2.3.2.6c0 .1 0 .3-.1.4 0 .2-.1.3-.2.5s-.2.3-.4.5-.3.3-.6.4l-.4.3v-.4zm0 .5v-.4l.4-.3c.3-.1.5-.2.6-.3.2 0 .3 0 .4.1s.2.2.2.3.1.2.1.4 0 .4-.1.6l-.3.6c-.1.2-.2.4-.4.5s-.3.3-.5.4-.3.2-.5.2h-.4c-.1 0-.2-.1-.3-.2s-.1-.3-.1-.5l.5-.3c0 .2 0 .3.1.4s.2.1.3.1.3 0 .4-.1c.2-.1.3-.2.4-.3s.2-.3.3-.4a.9.9 0 0 0 .1-.5c0-.2 0-.3-.1-.4s-.2-.1-.3-.1-.3.1-.5.2h-.3z"/></g><path d="M234.1 231.9l42.5-24.4v13.1L234.1 245z" class="U X"/><g class="T"><use href="#d"/><path d="M253.2 227.2l.4-.2c.2-.1.3-.2.4-.4.1-.1.2-.3.3-.4a.9.9 0 0 0 .1-.5c0-.2 0-.3-.1-.4s-.1-.1-.2-.1-.2 0-.4.1c-.1.1-.3.2-.4.3s-.2.3-.3.4c-.1.2-.1.3-.1.5l-.5.3c0-.2.1-.5.2-.7.1-.3.2-.5.4-.7s.4-.4.7-.5c.2-.1.5-.2.6-.2.2 0 .3.1.4.2s.2.3.2.6c0 .1 0 .3-.1.4 0 .2-.1.3-.2.5s-.2.3-.4.5-.3.3-.6.4l-.4.3v-.4zm0 .5v-.4l.4-.3c.3-.1.5-.2.6-.3.2 0 .3 0 .4.1s.2.2.2.3.1.2.1.4 0 .4-.1.6l-.3.6c-.1.2-.3.4-.4.5-.2.1-.3.3-.5.4s-.3.2-.5.2h-.4c-.1 0-.2-.1-.3-.2s-.1-.3-.1-.5l.5-.3c0 .2 0 .3.1.4s.2.1.3.1.3 0 .4-.1c.2-.1.3-.2.4-.3s.2-.3.3-.4c.1-.2.1-.3.1-.5s0-.3-.1-.4-.2-.1-.3-.1-.3.1-.5.2h-.3z"/></g><path d="M276.6 207.5l42.4-24.4v13.2l-42.4 24.3z" class="U X"/><g class="T"><path d="M300.7 199.9v.7c0 .4 0 .7-.1 1s-.1.6-.3.8c-.1.2-.2.4-.4.6s-.3.3-.5.4-.3.1-.4.2h-.4c-.1 0-.2-.1-.3-.2s-.1-.3-.2-.5c0-.2-.1-.5-.1-.8v-.7c0-.4 0-.7.1-1s.1-.6.3-.8c.1-.2.2-.4.4-.6s.3-.3.5-.4.3-.2.4-.2h.4c.1 0 .2.1.3.2s.1.3.2.5.1.4.1.8zm-.5 1.1v-.9-.5c0-.1-.1-.3-.1-.4s-.1-.2-.2-.2h-.2c-.1 0-.2 0-.3.1l-.3.3c-.1.1-.2.2-.2.4-.1.1-.1.3-.1.5s-.1.4-.1.7v.9.5c0 .1.1.3.1.4s.1.2.2.2.1.1.2 0c.1 0 .2 0 .3-.1l.3-.3c.1-.1.2-.2.2-.4.1-.2.1-.3.1-.5.1-.2.1-.5.1-.7zm-2.6 2.8v.5l-2.6 1.5v-.4l1.3-2.5c.2-.3.3-.6.4-.7.1-.2.2-.4.2-.5s.1-.3.1-.4c0-.2 0-.3-.1-.4s-.1-.2-.2-.2-.2 0-.4.1-.3.2-.5.4c-.1.1-.2.3-.3.5s-.1.4-.1.5l-.5.3c0-.3 0-.5.1-.8a3 3 0 0 1 .4-.8c.2-.2.4-.4.7-.6.3-.1.5-.2.7-.2s.3.1.4.2.1.3.1.6c0 .1 0 .3-.1.5 0 .2-.1.3-.2.5s-.1.4-.2.5l-.3.6-1.1 2 2.2-1.2z"/></g><path d="M142.7 297.5l49-28.1v13.1l-49 28.1z" class="V W"/><g class="T"><use href="#e"/><path d="M172.6 284l-1.7 6-.4.3 1.7-6 .4-.3zm-3.1 5.8v-4.2l.5-.3v4.9l-.5.3v-.7zm-2 .1h0c0-.3 0-.6.1-.8.1-.3.1-.5.2-.7s.2-.4.4-.6c.1-.2.3-.3.5-.4s.4-.2.5-.2.3 0 .4.1.2.2.2.4c.1.2.1.4.1.6v.3c0 .3-.1.5-.1.8-.1.2-.1.5-.2.7s-.2.4-.4.5c-.1.2-.3.3-.5.4a.9.9 0 0 1-.5.1c-.1 0-.3-.1-.4-.2s-.2-.2-.2-.4c-.1-.1-.1-.3-.1-.6zm.5-.4h0v.5c0 .1.1.2.1.3.1.1.1.1.2.1s.2 0 .4-.1.3-.2.4-.4c.1-.1.2-.3.3-.5s.1-.4.2-.5v-.8c0-.1-.1-.2-.1-.3s-.1-.2-.2-.2c-.1-.1-.1-.1-.2-.1s-.2 0-.3.1-.3.2-.4.3-.2.3-.2.4c-.1.2-.1.3-.1.5-.1.4-.1.6-.1.7zm-2.2 2.7l.8-3.6.6-.3-1.2 4.7c0 .1-.1.2-.1.3s-.1.3-.2.4-.2.3-.3.4-.2.2-.4.3c0 0-.1 0-.2.1h-.1v-.5h.1.1c.1-.1.2-.1.3-.2s.1-.2.2-.3.1-.3.1-.4l.3-.9zm-.6-2.8l.8 2.2.1.5-.4.4-1.1-2.9.6-.2zm-1.6 1.8v.5l-2.2 1.3v-.5l2.2-1.3zm-2.1-.8v4.7l-.5.3v-4.7l.5-.3zm2.6-1.5v4.7l-.5.3v-4.7l.5-.3zm-3.8 2.1l-1.7 6-.4.3 1.7-6 .4-.3zm-4.4 4.5v2.7l-.5.3V295l.5-.3v.8zm-.1.9l-.2.1c0-.2 0-.5.1-.7s.1-.5.2-.7.2-.4.4-.6.3-.3.5-.4c.1-.1.3-.1.4-.2h.3c.1.1.1.1.2.3 0 .1.1.3.1.5v2.3l-.5.3V295c0-.2 0-.3-.1-.4 0-.1-.1-.1-.2-.1s-.2 0-.3.1-.2.2-.4.3c-.1.1-.2.3-.3.4-.1.2-.1.3-.2.5v.6z"/><use href="#f"/><path d="M151 299.6l.5-.3c0 .3-.1.6-.2.9s-.3.6-.5.8c-.2.3-.5.5-.8.7-.2.1-.5.2-.6.2-.2 0-.4 0-.5-.1s-.2-.3-.3-.5-.1-.5-.1-.8v-.5c0-.3 0-.6.1-1l.3-.9c.1-.3.3-.5.5-.7s.4-.4.7-.5c.3-.2.6-.3.8-.2.2 0 .4.1.5.3s.2.4.2.7l-.5.3c0-.2-.1-.4-.1-.5-.1-.1-.2-.2-.3-.2s-.3 0-.5.2c-.2.1-.3.2-.5.4-.1.2-.2.3-.3.5s-.2.4-.2.6-.1.5-.1.7v.5c0 .2 0 .4.1.6 0 .2.1.3.2.4s.2.2.3.2.3 0 .5-.1.4-.3.5-.4c.1-.2.2-.3.3-.5-.1-.4-.1-.6 0-.8z"/></g><use href="#g" class="V W"/><g class="T"><use href="#h"/><path d="M211.6 262.1v4.7l-.5.3v-4l-1 1v-.5l1.5-1.5h0z"/></g><use href="#i" class="V W"/><g class="T"><path d="M258.1 237.4v.7c0 .4 0 .7-.1 1s-.1.6-.3.8c-.1.2-.2.4-.4.6s-.3.3-.5.4-.3.1-.4.2h-.4c-.1 0-.2-.1-.3-.2s-.1-.3-.2-.5c0-.2-.1-.5-.1-.8v-.7c0-.4 0-.7.1-1s.1-.6.3-.8c.1-.2.2-.4.4-.6s.3-.3.5-.4.3-.2.4-.2h.4c.1 0 .2.1.3.2s.1.3.2.5a2.2 2.2 0 0 1 .1.8zm-.5 1.1v-.9-.5c0-.1-.1-.3-.1-.4s-.1-.2-.2-.2h-.2c-.1 0-.2 0-.3.1l-.3.3c-.1.1-.2.2-.2.4-.1.1-.1.3-.1.5v.7.9.5c0 .1.1.3.1.4s.1.2.2.2.1.1.2 0c.1 0 .2 0 .3-.1l.3-.3c.1-.1.2-.2.2-.4a.9.9 0 0 0 .1-.5v-.7zm-3.5-.7v4.7l-.5.3v-4l-1 1v-.5l1.5-1.5h0z"/></g><path d="M276.6 220.6l42.4-24.3v13.1l-42.4 24.4z" class="V W"/><g class="T"><path d="M300.6 213v.7c0 .4 0 .7-.1 1s-.1.6-.3.8c-.1.2-.2.4-.4.6s-.3.3-.5.4-.3.2-.4.2h-.4c-.1 0-.2-.1-.3-.2s-.1-.3-.2-.5c0-.2-.1-.5-.1-.8v-.7c0-.4 0-.7.1-1s.1-.6.3-.8c.1-.2.2-.4.4-.6s.3-.3.5-.4.3-.2.4-.2h.4c.1 0 .2.1.3.2s.1.3.2.5.1.5.1.8zm-.5 1.1v-.9-.5c0-.1-.1-.3-.1-.4s-.1-.2-.2-.2h-.2c-.1 0-.2 0-.3.1l-.3.3c-.1.1-.2.2-.2.4-.1.1-.1.3-.1.5v.7.9.5c0 .1.1.3.1.4s.1.2.2.2.1.1.2 0c.1 0 .2 0 .3-.1l.3-.3c.1-.1.2-.2.2-.4.1-.2.1-.3.1-.5v-.7zm-3.2-.9h0v.5h0c-.3.2-.5.3-.7.5s-.3.4-.4.7c-.1.2-.2.5-.2.7s-.1.5-.1.7v.7c0 .2 0 .4.1.5 0 .1.1.2.2.3s.2.1.2.1c.1 0 .2 0 .3-.1l.3-.3c.1-.1.2-.2.2-.4.1-.1.1-.3.1-.4v-.5-.4c0-.1-.1-.2-.1-.3-.1-.1-.1-.1-.2-.1s-.2 0-.3.1-.3.2-.4.4c-.1.1-.2.3-.3.5s-.1.3-.1.5l-.3.2c0-.3.1-.5.1-.7l.3-.6c.1-.2.2-.3.4-.4.1-.1.3-.2.4-.3.2-.1.4-.2.5-.2s.3.1.4.1c.1.1.2.2.2.4s.1.3.1.5 0 .4-.1.7c-.1.2-.1.4-.2.6s-.2.4-.4.6-.3.3-.5.4-.4.2-.6.2-.3-.1-.4-.2-.2-.3-.2-.4c-.1-.2-.1-.4-.1-.6v-.2c0-.3 0-.7.1-1 .1-.4.2-.7.3-1s.3-.7.6-1c.1-.3.4-.6.8-.8z"/></g><path d="M142.7 310.6l49-28.1v13.1l-49 28.2z" class="U X"/><g class="T"><path d="M175.1 295.7h0v.5h0c-.3.2-.5.3-.7.5s-.3.4-.4.7c-.1.2-.2.5-.2.7s-.1.5-.1.7v.7c0 .2 0 .4.1.5 0 .1.1.2.2.3s.2.1.2.1c.1 0 .2 0 .3-.1l.3-.3c.1-.1.2-.2.2-.4.1-.1.1-.3.1-.4s.1-.3.1-.5v-.4c0-.1-.1-.2-.1-.3-.1-.1-.1-.1-.2-.1s-.2 0-.3.1-.3.2-.4.4c-.1.1-.2.3-.3.5s-.1.3-.1.5l-.3.2c0-.3.1-.5.1-.7l.3-.6c.1-.2.2-.3.4-.4.1-.1.3-.2.4-.3.2-.1.4-.2.5-.2s.3.1.4.1c.1.1.2.2.2.4s.1.3.1.5 0 .4-.1.7c-.1.2-.1.4-.2.6s-.2.4-.4.6-.3.3-.5.4-.4.2-.6.2-.3-.1-.4-.2-.2-.3-.2-.4c-.1-.2-.1-.4-.1-.6v-.3c0-.3 0-.7.1-1l.3-1c.1-.3.3-.7.6-1 0-.2.3-.5.7-.7zm-2.5 1.4l-1.7 6-.4.3 1.7-6 .4-.3zm-3.1 5.8v-4.2l.5-.3v4.9l-.5.3v-.7zm-2 .1h0c0-.3 0-.6.1-.8.1-.3.1-.5.2-.7s.2-.4.4-.6c.1-.2.3-.3.5-.4s.4-.2.5-.2.3 0 .4.1.2.2.2.4c.1.2.1.4.1.6v.3c0 .3-.1.5-.1.8-.1.2-.1.5-.2.7s-.2.4-.4.5c-.1.2-.3.3-.5.4a.9.9 0 0 1-.5.1c-.1 0-.3-.1-.4-.2s-.2-.2-.2-.4c-.1-.1-.1-.3-.1-.6zm.5-.3h0v.5c0 .1.1.2.1.3.1.1.1.1.2.1s.2 0 .4-.1.3-.2.4-.4c.1-.1.2-.3.3-.5s.1-.4.2-.5v-.8c0-.1-.1-.2-.1-.3s-.1-.2-.2-.2c-.1-.1-.1-.1-.2-.1s-.2 0-.3.1-.3.2-.4.3-.2.3-.2.4c-.1.2-.1.3-.1.5-.1.3-.1.5-.1.7zm-2.2 2.6l.8-3.6.6-.3-1.2 4.7c0 .1-.1.2-.1.3s-.1.3-.2.4-.2.3-.3.4-.2.2-.4.3c0 0-.1 0-.2.1h-.1v-.5h.1.1c.1-.1.2-.1.3-.2s.1-.2.2-.3.1-.3.1-.4l.3-.9zm-.6-2.7l.8 2.2.1.5-.4.4-1.1-2.9.6-.2zm-1.6 1.7v.5l-2.2 1.3v-.5l2.2-1.3zm-2.1-.8v4.7l-.5.3v-4.7l.5-.3zm2.6-1.5v4.7l-.5.3v-4.7l.5-.3zm-3.8 2.2l-1.7 6-.4.3 1.7-6 .4-.3z"/><use href="#j"/><path d="M152 311.9h0c0-.3 0-.6.1-.8.1-.3.2-.5.3-.7s.3-.4.4-.6c.2-.2.4-.3.6-.5.2-.1.4-.2.6-.2s.3 0 .4.1.2.2.3.4.1.4.1.6v.1c0 .2 0 .5-.1.7l-.3.7c-.1.2-.3.4-.4.6-.2.2-.4.3-.6.5-.2.1-.4.2-.6.2s-.3 0-.4-.1-.2-.2-.3-.4c0-.1-.1-.3-.1-.6zm.5-.4h0c0 .2 0 .4.1.5 0 .1.1.2.2.3s.2.1.3.1.2 0 .4-.1c.1-.1.3-.2.4-.3s.2-.3.3-.4c.1-.2.1-.3.2-.5 0-.2.1-.3.1-.5v-.1c0-.2 0-.3-.1-.5 0-.1-.1-.2-.2-.3s-.2-.1-.3-.1-.2 0-.4.1c-.1.1-.3.2-.4.3s-.2.3-.3.4c-.1.2-.1.3-.2.5 0 .3-.1.5-.1.6zm-1.5 1.2l.5-.3c0 .3-.1.6-.2.9s-.3.6-.5.8c-.2.3-.5.5-.8.7-.2.1-.5.2-.6.2-.2 0-.4 0-.5-.1s-.2-.3-.3-.5-.1-.5-.1-.8v-.5c0-.3 0-.6.1-1l.3-.9c.1-.3.3-.5.5-.7s.4-.4.7-.5c.3-.2.6-.3.8-.2.2 0 .4.1.5.3s.2.4.2.7l-.6.2c0-.2-.1-.4-.1-.5-.1-.1-.2-.2-.3-.2s-.3 0-.5.2c-.2.1-.3.2-.5.4-.1.2-.2.3-.3.5s-.2.4-.2.6-.1.5-.1.7v.5c0 .2 0 .4.1.6 0 .2.1.3.2.4s.2.2.3.2.3 0 .5-.1.4-.3.5-.4c.1-.2.2-.3.3-.5 0-.2 0-.4.1-.7z"/></g><path d="M191.7 282.5l42.4-24.4v13.2l-42.4 24.3z" class="U X"/><g class="T"><path d="M215.9 277v.5l-2.6 1.5v-.4l1.3-2.5c.2-.3.3-.6.4-.7.1-.2.2-.4.2-.5s.1-.3.1-.4c0-.2 0-.3-.1-.4s-.1-.2-.2-.2-.2 0-.4.1-.3.2-.4.4c-.1.1-.2.3-.3.5s-.1.4-.1.5l-.5.3c0-.3.1-.5.2-.8a3 3 0 0 1 .4-.8c.2-.2.4-.4.7-.6.3-.1.5-.2.7-.2s.3.1.4.2.1.3.1.6c0 .1 0 .3-.1.5 0 .2-.1.3-.2.5s-.1.4-.2.5l-.3.6-1.1 2 2-1.2zm-5.1.8l.4-.2c.2-.1.3-.2.4-.4.1-.1.2-.3.3-.4.1-.2.1-.3.1-.5s0-.3-.1-.4-.1-.1-.2-.1-.2 0-.4.1c-.1.1-.3.2-.4.3s-.2.3-.3.4c-.1.2-.1.3-.1.5l-.5.3c0-.2.1-.5.2-.7.1-.3.2-.5.4-.7s.4-.4.7-.5c.2-.1.5-.2.6-.2.2 0 .3.1.4.2s.2.3.2.6c0 .1 0 .3-.1.4 0 .2-.1.3-.2.5s-.2.3-.4.5-.3.3-.6.4l-.4.3v-.4zm0 .5v-.3l.4-.3c.3-.1.5-.2.6-.3.2 0 .3 0 .4.1s.2.2.2.3.1.2.1.4 0 .4-.1.6l-.3.6c-.1.2-.2.3-.4.5-.2.1-.3.3-.5.4s-.3.2-.5.2h-.4c-.1 0-.2-.1-.3-.2s-.1-.3-.1-.5l.5-.3c0 .2 0 .3.1.4s.2.1.3.1.3 0 .4-.1c.2-.1.3-.2.4-.3s.2-.3.3-.4c.1-.2.1-.3.1-.5s0-.3-.1-.4-.2-.1-.3-.1-.3.1-.5.2l-.3-.1z"/></g><use href="#k" class="U X"/><g class="T"><path d="M258.3 252.7v.5l-2.6 1.5v-.4l1.3-2.5c.2-.3.3-.6.4-.7.1-.2.2-.4.2-.5s.1-.3.1-.4c0-.2 0-.3-.1-.4l-.2-.2c-.1 0-.2 0-.4.1s-.3.2-.5.4c-.1.1-.2.3-.3.5s-.1.4-.1.5l-.5.3c0-.3 0-.5.1-.8a3 3 0 0 1 .4-.8c.2-.2.4-.4.7-.6.3-.1.5-.2.7-.2s.3.1.4.2.1.3.1.6c0 .1 0 .3-.1.5 0 .2-.1.3-.2.5s-.2.4-.2.5l-.3.6-1.1 2 2.2-1.2zm-5.1.8l.4-.2c.2-.1.3-.2.4-.4.1-.1.2-.3.3-.4.1-.2.1-.3.1-.5s0-.3-.1-.4-.1-.1-.2-.1-.2 0-.4.1c-.1.1-.3.2-.4.3s-.2.3-.3.4c-.1.2-.1.3-.1.5l-.5.3c0-.2.1-.5.2-.7.1-.3.2-.5.4-.7s.4-.4.7-.5c.2-.1.5-.2.6-.2.2 0 .3.1.4.2s.2.3.2.6c0 .1 0 .3-.1.4 0 .2-.1.3-.2.5s-.2.3-.4.5-.3.3-.6.4l-.4.3v-.4zm0 .4v-.4l.4-.3c.3-.1.5-.2.6-.3.2 0 .3 0 .4.1s.2.2.2.3.1.2.1.4 0 .4-.1.6l-.3.6c-.1.2-.3.4-.4.5-.2.1-.3.3-.5.4s-.3.2-.5.2h-.4c-.1 0-.2-.1-.3-.2s-.1-.3-.1-.5l.5-.3c0 .2 0 .3.1.4s.2.1.3.1.3 0 .4-.1c.2-.1.3-.2.4-.3s.2-.3.3-.4c.1-.2.1-.3.1-.5s0-.3-.1-.4-.2-.1-.3-.1-.3.1-.5.2h-.3z"/></g><path d="M276.6 233.8l42.4-24.4v13.1l-42.4 24.4z" class="U X"/><g class="T"><use href="#l"/><use href="#m"/></g><path d="M142.7 323.8l49-28.2v13.2l-49 28.1z" class="V W"/><g class="T"><path d="M175.1 308.8h0v.5h0c-.3.2-.5.3-.7.5s-.3.4-.4.7c-.1.2-.2.5-.2.7s-.1.5-.1.7v.7c0 .2 0 .4.1.5 0 .1.1.2.2.3s.2.1.2.1c.1 0 .2 0 .3-.1l.3-.3c.1-.1.2-.2.2-.4.1-.1.1-.3.1-.4s.1-.3.1-.5v-.4c0-.1-.1-.2-.1-.3-.1-.1-.1-.1-.2-.1s-.2 0-.3.1-.3.2-.4.4c-.1.1-.2.3-.3.5s-.1.3-.1.5l-.3.2c0-.3.1-.5.1-.7l.3-.6c.1-.2.2-.3.4-.4.1-.1.3-.2.4-.3.2-.1.4-.2.5-.2s.3.1.4.1c.1.1.2.2.2.4s.1.3.1.5 0 .4-.1.7c-.1.2-.1.4-.2.6s-.2.4-.4.6-.3.3-.5.4-.4.2-.6.2-.3-.1-.4-.2-.2-.3-.2-.4c-.1-.2-.1-.4-.1-.6v-.3c0-.3 0-.7.1-1l.3-1c.1-.3.3-.7.6-1 0-.2.3-.5.7-.7zm-2.5 1.4l-1.7 6-.4.3 1.7-6 .4-.3zm-3.1 5.8v-4.2l.5-.3v4.9l-.5.3v-.7zm-2 .2h0c0-.3 0-.6.1-.8.1-.3.1-.5.2-.7s.2-.4.4-.6c.1-.2.3-.3.5-.4s.4-.2.5-.2.3 0 .4.1.2.2.2.4c.1.2.1.4.1.6v.3c0 .3-.1.5-.1.8-.1.2-.1.5-.2.7s-.2.4-.4.5c-.1.2-.3.3-.5.4a.9.9 0 0 1-.5.1c-.1 0-.3-.1-.4-.2s-.2-.2-.2-.4c-.1-.2-.1-.4-.1-.6zm.5-.4h0v.5c0 .1.1.2.1.3.1.1.1.1.2.1s.2 0 .4-.1.3-.2.4-.4c.1-.1.2-.3.3-.5s.1-.4.2-.5v-.8c0-.1-.1-.2-.1-.3s-.1-.2-.2-.2-.1-.1-.2-.1-.2 0-.3.1-.3.2-.4.3-.2.3-.2.4c-.1.2-.1.3-.1.5-.1.3-.1.5-.1.7zm-2.2 2.6l.8-3.6.6-.3-1.2 4.7c0 .1-.1.2-.1.3s-.1.3-.2.4-.2.3-.3.4-.2.2-.4.3c0 0-.1 0-.2.1h-.1v-.5h.1.1c.1-.1.2-.1.3-.2s.1-.2.2-.3.1-.3.1-.4l.3-.9zm-.6-2.7l.8 2.2.1.5-.4.4-1.1-2.9.6-.2zm-1.6 1.7v.5l-2.2 1.3v-.5l2.2-1.3zm-2.1-.8v4.7l-.5.3v-4.7l.5-.3zm2.6-1.5v4.7l-.5.3v-4.7l.5-.3zm-3.8 2.2l-1.7 6-.4.3 1.7-6 .4-.3zm-4.4 4.5v2.7l-.5.3v-3.5l.5-.3v.8zm-.1.9l-.2.1c0-.2 0-.5.1-.7s.1-.5.2-.7.2-.4.4-.6.3-.3.5-.4c.1-.1.3-.1.4-.2h.3c.1.1.1.1.2.3 0 .1.1.3.1.5v2.3l-.5.3v-2.3c0-.2 0-.3-.1-.4 0-.1-.1-.1-.2-.1s-.2 0-.3.1-.2.2-.4.3c-.1.1-.2.3-.3.4-.1.2-.1.3-.2.5v.6zM152 325h0c0-.3 0-.6.1-.8.1-.3.2-.5.3-.7s.3-.4.4-.6c.2-.2.4-.3.6-.5.2-.1.4-.2.6-.2s.3 0 .4.1.2.2.3.4.1.4.1.6v.1c0 .2 0 .5-.1.7l-.3.7c-.1.2-.3.4-.4.6-.2.2-.4.3-.6.5-.2.1-.4.2-.6.2s-.3 0-.4-.1-.2-.2-.3-.4c0-.1-.1-.3-.1-.6zm.5-.3h0c0 .2 0 .4.1.5 0 .1.1.2.2.3s.2.1.3.1.2 0 .4-.1c.1-.1.3-.2.4-.3s.2-.3.3-.4c.1-.2.1-.3.2-.5 0-.2.1-.3.1-.5v-.1c0-.2 0-.3-.1-.5 0-.1-.1-.2-.2-.3s-.2-.1-.3-.1-.2 0-.4.1c-.1.1-.3.2-.4.3s-.2.3-.3.4c-.1.2-.1.3-.2.5 0 .2-.1.4-.1.6zm-1.5 1.1l.5-.3c0 .3-.1.6-.2.9s-.3.6-.5.8c-.2.3-.5.5-.8.7-.2.1-.5.2-.6.2-.2 0-.4 0-.5-.1s-.2-.3-.3-.5-.1-.5-.1-.8v-.5c0-.3 0-.6.1-1l.3-.9c.1-.3.3-.5.5-.7s.4-.4.7-.5c.3-.2.6-.3.8-.2.2 0 .4.1.5.3s.2.4.2.7l-.5.3c0-.2-.1-.4-.1-.5-.1-.1-.2-.2-.3-.2s-.3 0-.5.2c-.2.1-.3.2-.5.4-.1.2-.2.3-.3.5s-.2.4-.2.6-.1.5-.1.7v.5c0 .2 0 .4.1.6 0 .2.1.3.2.4s.2.2.3.2.3 0 .5-.1.4-.3.5-.4c.1-.2.2-.3.3-.5a1.1 1.1 0 0 1 0-.8z"/></g><path d="M191.7 295.6l42.4-24.3v13.1l-42.4 24.4z" class="V W"/><g class="T"><path d="M215.7 288v.7c0 .4 0 .7-.1 1s-.1.6-.3.8c-.1.2-.2.4-.4.6s-.3.3-.5.4-.3.1-.4.2h-.4c-.1 0-.2-.1-.3-.2s-.1-.3-.2-.5c0-.2-.1-.5-.1-.8v-.7c0-.4 0-.7.1-1s.1-.6.3-.8c.1-.2.2-.4.4-.6s.3-.3.5-.4.3-.2.4-.2h.4c.1 0 .2.1.3.2s.1.3.2.5a2.2 2.2 0 0 1 .1.8zm-.5 1.1v-.9-.5c0-.1-.1-.3-.1-.4s-.1-.2-.2-.2h-.2c-.1 0-.2 0-.3.1l-.3.3c-.1.1-.2.2-.2.4-.1.1-.1.3-.1.5s-.1.4-.1.7v.9.5c0 .1.1.3.1.4s.1.2.2.2.1.1.2 0c.1 0 .2 0 .3-.1l.3-.3c.1-.1.2-.2.2-.4.1-.2.1-.3.1-.5.1-.2.1-.4.1-.7zm-3.6-.7v4.7l-.5.3v-4l-1 1v-.5l1.5-1.5h0z"/></g><path d="M234.1 271.3l42.5-24.4V260l-42.5 24.4z" class="V W"/><g class="T"><path d="M258.1 263.7v.7c0 .4 0 .7-.1 1s-.1.6-.3.8c-.1.2-.2.4-.4.6s-.3.3-.5.4-.3.1-.4.2h-.4c-.1 0-.2-.1-.3-.2s-.1-.3-.2-.5c0-.2-.1-.5-.1-.8v-.7c0-.4 0-.7.1-1s.1-.6.3-.8c.1-.2.2-.4.4-.6s.3-.3.5-.4.3-.2.4-.2h.4c.1 0 .2.1.3.2s.1.3.2.5.1.5.1.8zm-.5 1.1v-.9-.5c0-.1-.1-.3-.1-.4s-.1-.2-.2-.2h-.2c-.1 0-.2 0-.3.1l-.3.3c-.1.1-.2.2-.2.4-.1.1-.1.3-.1.5v.7.9.5c0 .1.1.3.1.4s.1.2.2.2.1.1.2 0c.1 0 .2 0 .3-.1l.3-.3c.1-.1.2-.2.2-.4.1-.2.1-.3.1-.5v-.7zm-3.5-.8v4.7l-.5.3v-4l-1 1v-.5l1.5-1.5h0z"/></g><path d="M276.6 246.9l42.4-24.4v13.2L276.6 260z" class="V W"/><g class="T"><path d="M300.6 239.3v.7c0 .4 0 .7-.1 1s-.1.6-.3.8c-.1.2-.2.4-.4.6s-.3.3-.5.4-.3.1-.4.2h-.4c-.1 0-.2-.1-.3-.2s-.1-.3-.2-.5c0-.2-.1-.5-.1-.8v-.7c0-.4 0-.7.1-1s.1-.6.3-.8c.1-.2.2-.4.4-.6s.3-.3.5-.4.3-.2.4-.2h.4c.1 0 .2.1.3.2s.1.3.2.5.1.5.1.8zm-.5 1.1v-.9-.5c0-.1-.1-.3-.1-.4s-.1-.2-.2-.2h-.2c-.1 0-.2 0-.3.1l-.3.3c-.1.1-.2.2-.2.4-.1.1-.1.3-.1.5v.7.9.5c0 .1.1.3.1.4s.1.2.2.2.1.1.2 0c.1 0 .2 0 .3-.1l.3-.3c.1-.1.2-.2.2-.4a.9.9 0 0 0 .1-.5v-.7zm-3.2-.9h0v.5h0c-.3.2-.5.3-.7.5s-.3.4-.4.7c-.1.2-.2.5-.2.7s-.1.5-.1.7v.7c0 .2 0 .4.1.5 0 .1.1.2.2.3s.2.1.2.1c.1 0 .2 0 .3-.1l.3-.3c.1-.1.2-.2.2-.4.1-.1.1-.3.1-.4v-.5-.4c0-.1-.1-.2-.1-.3-.1-.1-.1-.1-.2-.1s-.2 0-.3.1-.3.2-.4.4c-.1.1-.2.3-.3.5s-.1.3-.1.5l-.3.2c0-.3.1-.5.1-.7l.3-.6c.1-.2.2-.3.4-.4.1-.1.3-.2.4-.3.2-.1.4-.2.5-.2s.3.1.4.1c.1.1.2.2.2.4s.1.3.1.5 0 .4-.1.7c-.1.2-.1.4-.2.6s-.2.4-.4.6-.3.3-.5.4-.4.2-.6.2-.3-.1-.4-.2-.2-.3-.2-.4c-.1-.2-.1-.4-.1-.6v-.3c0-.3 0-.7.1-1l.3-1c.1-.3.3-.7.6-1 .1-.3.4-.5.8-.7z"/></g><path d="M142.7 336.9l49-28.1v13.1l-49 28.1z" class="U X"/><g class="T"><path d="M175.1 321.9h0v.5h0c-.3.2-.5.3-.7.5s-.3.4-.4.7c-.1.2-.2.5-.2.7s-.1.5-.1.7v.7c0 .2 0 .4.1.5 0 .1.1.2.2.3s.2.1.2.1c.1 0 .2 0 .3-.1l.3-.3c.1-.1.2-.2.2-.4.1-.1.1-.3.1-.4s.1-.3.1-.5v-.4c0-.1-.1-.2-.1-.3-.1-.1-.1-.1-.2-.1s-.2 0-.3.1-.3.2-.4.4c-.1.1-.2.3-.3.5s-.1.3-.1.5l-.3.2c0-.3.1-.5.1-.7l.3-.6c.1-.2.2-.3.4-.4.1-.1.3-.2.4-.3.2-.1.4-.2.5-.2s.3.1.4.1c.1.1.2.2.2.4s.1.3.1.5 0 .4-.1.7c-.1.2-.1.4-.2.6s-.2.4-.4.6-.3.3-.5.4-.4.2-.6.2-.3-.1-.4-.2-.2-.3-.2-.4c-.1-.2-.1-.4-.1-.6v-.3c0-.3 0-.7.1-1l.3-1c.1-.3.3-.7.6-1 0-.2.3-.4.7-.7zm-2.5 1.5l-1.7 6-.4.3 1.7-6 .4-.3zm-3.1 5.7v-4.2l.5-.3v4.9l-.5.3v-.7zm-2 .2h0c0-.3 0-.6.1-.8.1-.3.1-.5.2-.7s.2-.4.4-.6c.1-.2.3-.3.5-.4s.4-.2.5-.2.3 0 .4.1.2.2.2.4c.1.2.1.4.1.6v.3c0 .3-.1.5-.1.8-.1.2-.1.5-.2.7s-.2.4-.4.5c-.1.2-.3.3-.5.4a.9.9 0 0 1-.5.1c-.1 0-.3-.1-.4-.2s-.2-.2-.2-.4c-.1-.1-.1-.4-.1-.6zm.5-.4h0v.5c0 .1.1.2.1.3.1.1.1.1.2.1s.2 0 .4-.1.3-.2.4-.4c.1-.1.2-.3.3-.5s.1-.4.2-.5v-.8c0-.1-.1-.2-.1-.3s-.1-.2-.2-.2-.1-.1-.2-.1-.2 0-.3.1-.3.2-.4.3-.2.3-.2.4c-.1.2-.1.3-.1.5-.1.4-.1.5-.1.7zm-2.2 2.7l.8-3.6.6-.3-1.2 4.7c0 .1-.1.2-.1.3s-.1.3-.2.4-.2.3-.3.4-.2.2-.4.3c0 0-.1 0-.2.1h-.1v-.5h.1.1c.1-.1.2-.1.3-.2s.1-.2.2-.3.1-.3.1-.4l.3-.9zm-.6-2.8l.8 2.2.1.5-.4.4-1.1-2.9.6-.2zm-1.6 1.7v.5l-2.2 1.3v-.5l2.2-1.3zm-2.1-.8v4.7l-.5.3V330l.5-.3zm2.6-1.4v4.7l-.5.3v-4.7l.5-.3zm-3.8 2.1l-1.7 6-.4.3 1.7-6 .4-.3zm-4.4 4.5v2.7l-.5.3v-3.5l.5-.3v.8zm-.1.9l-.2.1c0-.2 0-.5.1-.7s.1-.5.2-.7.2-.4.4-.6.3-.3.5-.4c.1-.1.3-.1.4-.2h.3c.1.1.1.1.2.3 0 .1.1.3.1.5v2.3l-.5.3v-2.3c0-.2 0-.3-.1-.4 0-.1-.1-.1-.2-.1s-.2 0-.3.1-.2.2-.4.3c-.1.1-.2.3-.3.4-.1.2-.1.3-.2.5v.6zm-3.8 2.4h0c0-.3 0-.6.1-.8.1-.3.2-.5.3-.7s.3-.4.4-.6c.2-.2.4-.3.6-.5.2-.1.4-.2.6-.2s.3 0 .4.1.2.2.3.4.1.4.1.6v.1c0 .2 0 .5-.1.7l-.3.7c-.1.2-.3.4-.4.6-.2.2-.4.3-.6.5-.2.1-.4.2-.6.2s-.3 0-.4-.1-.2-.2-.3-.4c0-.2-.1-.4-.1-.6zm.5-.4h0c0 .2 0 .4.1.5 0 .1.1.2.2.3s.2.1.3.1.2 0 .4-.1c.1-.1.3-.2.4-.3s.2-.3.3-.4c.1-.2.1-.3.2-.5 0-.2.1-.3.1-.5v-.1c0-.2 0-.3-.1-.5 0-.1-.1-.2-.2-.3s-.2-.1-.3-.1-.2 0-.4.1c-.1.1-.3.2-.4.3s-.2.3-.3.4c-.1.2-.1.3-.2.5 0 .3-.1.4-.1.6zM151 339l.5-.3c0 .3-.1.6-.2.9s-.3.6-.5.8a2.7 2.7 0 0 1-.8.7c-.2.1-.5.2-.6.2-.2 0-.4 0-.5-.1s-.2-.3-.3-.5-.1-.5-.1-.8v-.5c0-.3 0-.6.1-1l.3-.9c.1-.3.3-.5.5-.7s.4-.4.7-.5c.3-.2.6-.3.8-.2.2 0 .4.1.5.3s.2.4.2.7l-.5.3c0-.2-.1-.4-.1-.5-.1-.1-.2-.2-.3-.2s-.3 0-.5.2c-.2.1-.3.2-.5.4-.1.2-.2.3-.3.5s-.2.4-.2.6-.1.5-.1.7v.5c0 .2 0 .4.1.6 0 .2.1.3.2.4s.2.2.3.2.3 0 .5-.1.4-.3.5-.4c.1-.2.2-.3.3-.5-.1-.4-.1-.6 0-.8z"/></g><path d="M191.7 308.8l42.4-24.4v13.1l-42.4 24.4z" class="U X"/><g class="T"><path d="M215.9 303.3v.5l-2.6 1.5v-.4l1.3-2.5c.2-.3.3-.6.4-.7.1-.2.2-.4.2-.5s.1-.3.1-.4c0-.2 0-.3-.1-.4l-.2-.2c-.1 0-.2 0-.4.1s-.3.2-.4.4c-.1.1-.2.3-.3.5s-.1.4-.1.5l-.5.3c0-.3.1-.5.2-.8a3 3 0 0 1 .4-.8c.2-.2.4-.4.7-.6.3-.1.5-.2.7-.2s.3.1.4.2.1.3.1.6c0 .1 0 .3-.1.5 0 .2-.1.3-.2.5s-.1.4-.2.5l-.3.6-1.1 2 2-1.2z"/><use href="#n"/></g><path d="M234.1 284.4l42.5-24.4v13.2l-42.5 24.3z" class="U X"/><g class="T"><path d="M258.3 278.9v.5l-2.6 1.5v-.4l1.3-2.5c.2-.3.3-.6.4-.7.1-.2.2-.4.2-.5s.1-.3.1-.4c0-.2 0-.3-.1-.4l-.2-.2c-.1 0-.2 0-.4.1s-.3.2-.5.4c-.1.1-.2.3-.3.5s-.1.4-.1.5l-.5.3c0-.3 0-.5.1-.8a3 3 0 0 1 .4-.8c.2-.2.4-.4.7-.6.3-.1.5-.2.7-.2s.3.1.4.2.1.3.1.6c0 .1 0 .3-.1.5 0 .2-.1.3-.2.5s-.2.4-.2.5l-.3.6-1.1 2 2.2-1.2z"/><use href="#o"/></g><path d="M276.6 260l42.4-24.3v13.1l-42.4 24.4z" class="U X"/><g class="T"><path d="M300.7 252.4v.7c0 .4 0 .7-.1 1s-.1.6-.3.8c-.1.2-.2.4-.4.6s-.3.3-.5.4-.3.1-.4.2h-.4c-.1 0-.2-.1-.3-.2s-.1-.3-.2-.5c0-.2-.1-.5-.1-.8v-.7c0-.4 0-.7.1-1s.1-.6.3-.8c.1-.2.2-.4.4-.6s.3-.3.5-.4.3-.2.4-.2h.4c.1 0 .2.1.3.2s.1.3.2.5.1.5.1.8zm-.5 1.1v-.9-.5c0-.1-.1-.3-.1-.4s-.1-.2-.2-.2h-.2c-.1 0-.2 0-.3.1l-.3.3c-.1.1-.2.2-.2.4-.1.1-.1.3-.1.5s-.1.4-.1.7v.9.5c0 .1.1.3.1.4s.1.2.2.2.1.1.2 0c.1 0 .2 0 .3-.1l.3-.3c.1-.1.2-.2.2-.4a.9.9 0 0 0 .1-.5c.1-.2.1-.5.1-.7zm-2.6 2.9v.5l-2.6 1.5v-.4l1.3-2.5c.2-.3.3-.6.4-.7.1-.2.2-.4.2-.5s.1-.3.1-.4c0-.2 0-.3-.1-.4l-.2-.2c-.1 0-.2 0-.4.1s-.3.2-.5.4c-.1.1-.2.3-.3.5s-.1.4-.1.5l-.5.3c0-.3 0-.5.1-.8a3 3 0 0 1 .4-.8c.2-.2.4-.4.7-.6.3-.1.5-.2.7-.2s.3.1.4.2.1.3.1.6c0 .1 0 .3-.1.5 0 .2-.1.3-.2.5s-.1.4-.2.6l-.3.6-1.1 2 2.2-1.3z"/></g><path d="M142.7 350l49-28.1V335l-49 28.1z" class="V W"/><g class="T"><path d="M175.1 335.1h0v.5h0c-.3.2-.5.3-.7.5s-.3.4-.4.7c-.1.2-.2.5-.2.7s-.1.5-.1.7v.7c0 .2 0 .4.1.5 0 .1.1.2.2.3s.2.1.2.1c.1 0 .2 0 .3-.1l.3-.3c.1-.1.2-.2.2-.4.1-.1.1-.3.1-.4s.1-.3.1-.5v-.4c0-.1-.1-.2-.1-.3-.1-.1-.1-.1-.2-.1s-.2 0-.3.1-.3.2-.4.4c-.1.1-.2.3-.3.5s-.1.3-.1.5l-.3.2c0-.3.1-.5.1-.7l.3-.6c.1-.2.2-.3.4-.4.1-.1.3-.2.4-.3.2-.1.4-.2.5-.2s.3.1.4.1c.1.1.2.2.2.4s.1.3.1.5 0 .4-.1.7c-.1.2-.1.4-.2.6s-.2.4-.4.6-.3.3-.5.4-.4.2-.6.2-.3-.1-.4-.2-.2-.3-.2-.4c-.1-.2-.1-.4-.1-.6v-.3c0-.3 0-.7.1-1l.3-1c.1-.3.3-.7.6-1 0-.3.3-.5.7-.7zm-2.5 1.4l-1.7 6-.4.3 1.7-6 .4-.3zm-3.1 5.8V338l.5-.3v4.9l-.5.3v-.6zm-2 .1h0c0-.3 0-.6.1-.8.1-.3.1-.5.2-.7s.2-.4.4-.6c.1-.2.3-.3.5-.4s.4-.2.5-.2.3 0 .4.1.2.2.2.4c.1.2.1.4.1.6v.3c0 .3-.1.5-.1.8-.1.2-.1.5-.2.7s-.2.4-.4.5c-.1.2-.3.3-.5.4a.9.9 0 0 1-.5.1c-.1 0-.3-.1-.4-.2s-.2-.2-.2-.4c-.1-.1-.1-.3-.1-.6zm.5-.4h0v.5c0 .1.1.2.1.3.1.1.1.1.2.1s.2 0 .4-.1.3-.2.4-.4c.1-.1.2-.3.3-.5s.1-.4.2-.5v-.8c0-.1-.1-.2-.1-.3s-.1-.2-.2-.2-.1-.1-.2-.1-.2 0-.3.1-.3.2-.4.3-.2.3-.2.4c-.1.2-.1.3-.1.5-.1.4-.1.6-.1.7zm-2.2 2.7l.8-3.6.6-.3-1.2 4.7c0 .1-.1.2-.1.3s-.1.3-.2.4-.2.3-.3.4-.2.2-.4.3c0 0-.1 0-.2.1h-.1v-.5h.1.1c.1-.1.2-.1.3-.2s.1-.2.2-.3.1-.3.1-.4l.3-.9zm-.6-2.7l.8 2.2.1.5-.4.4-1.1-2.9.6-.2zm-1.6 1.7v.5l-2.2 1.3v-.5l2.2-1.3zm-2.1-.8v4.7l-.5.3v-4.7l.5-.3zm2.6-1.5v4.7l-.5.3v-4.7l.5-.3zm-3.8 2.1l-1.7 6-.4.3 1.7-6 .4-.3zm-4.4 4.5v2.7l-.5.3v-3.5l.5-.3v.8zm-.1 1l-.2.1c0-.2 0-.5.1-.7s.1-.5.2-.7.2-.4.4-.6.3-.3.5-.4c.1-.1.3-.1.4-.2h.3c.1.1.1.1.2.3 0 .1.1.3.1.5v2.3l-.5.3v-2.3c0-.2 0-.3-.1-.4 0-.1-.1-.1-.2-.1s-.2 0-.3.1-.2.2-.4.3c-.1.1-.2.3-.3.4-.1.2-.1.3-.2.5v.6zm-3.8 2.3h0c0-.3 0-.6.1-.8.1-.3.2-.5.3-.7s.3-.4.4-.6c.2-.2.4-.3.6-.5.2-.1.4-.2.6-.2s.3 0 .4.1.2.2.3.4.1.4.1.6v.1c0 .2 0 .5-.1.8l-.3.7c-.1.2-.3.4-.4.6-.2.2-.4.3-.6.5-.2.1-.4.2-.6.2s-.3 0-.4-.1-.2-.2-.3-.4c0-.2-.1-.5-.1-.7zm.5-.4h0c0 .2 0 .4.1.5 0 .1.1.2.2.3s.2.1.3.1.2 0 .4-.1c.1-.1.3-.2.4-.3s.2-.3.3-.4c.1-.2.1-.3.2-.5 0-.2.1-.3.1-.5v-.1c0-.2 0-.3-.1-.5 0-.1-.1-.2-.2-.3s-.2-.1-.3-.1-.2 0-.4.1c-.1.1-.3.2-.4.3s-.2.3-.3.4c-.1.2-.1.3-.2.5 0 .3-.1.5-.1.6zm-1.5 1.2l.5-.3c0 .3-.1.6-.2.9s-.3.6-.5.8c-.2.3-.5.5-.8.7-.2.1-.5.2-.6.2-.2 0-.4 0-.5-.2-.1-.1-.2-.3-.3-.5s-.1-.5-.1-.8v-.5c0-.3 0-.6.1-1l.3-.9c.1-.3.3-.5.5-.7s.4-.4.7-.5c.3-.2.6-.3.8-.2.2 0 .4.1.5.3s.2.4.2.7l-.5.3c0-.2-.1-.4-.1-.5-.1-.1-.2-.2-.3-.2s-.3 0-.5.2c-.2.1-.3.2-.5.4-.1.2-.2.3-.3.5s-.2.4-.2.6-.1.5-.1.7v.5c0 .2 0 .4.1.6 0 .2.1.3.2.4s.2.2.3.2.3 0 .5-.1.4-.3.5-.4c.1-.2.2-.3.3-.5-.1-.2-.1-.5 0-.7z"/></g><path d="M191.7 321.9l42.4-24.4v13.2L191.7 335z" class="V W"/><g class="T"><path d="M215.7 314.3v.7c0 .4 0 .7-.1 1s-.1.6-.3.8c-.1.2-.2.4-.4.6s-.3.3-.5.4-.3.1-.4.2h-.4c-.1 0-.2-.1-.3-.2s-.1-.3-.2-.5c0-.2-.1-.5-.1-.8v-.7c0-.4 0-.7.1-1s.1-.6.3-.8c.1-.2.2-.4.4-.6s.3-.3.5-.4.3-.2.4-.2h.4c.1 0 .2.1.3.2s.1.3.2.5.1.5.1.8zm-.5 1.1v-.9-.5c0-.1-.1-.3-.1-.4s-.1-.2-.2-.2h-.2c-.1 0-.2 0-.3.1l-.3.3c-.1.1-.2.2-.2.4-.1.1-.1.3-.1.5s-.1.4-.1.7v.9.5c0 .1.1.3.1.4s.1.2.2.2.1.1.2 0c.1 0 .2 0 .3-.1l.3-.3c.1-.1.2-.2.2-.4.1-.2.1-.3.1-.5.1-.2.1-.4.1-.7zm-3.6-.8v4.7l-.5.3v-4l-1 1v-.5l1.5-1.5h0z"/></g><path d="M234.1 297.5l42.5-24.3v13.1l-42.5 24.4z" class="V W"/><g class="T"><path d="M258.1 289.9v.7c0 .4 0 .7-.1 1s-.1.6-.3.8c-.1.2-.2.4-.4.6s-.3.3-.5.4-.3.1-.4.2h-.4c-.1 0-.2-.1-.3-.2s-.1-.3-.2-.5c0-.2-.1-.5-.1-.8v-.7c0-.4 0-.7.1-1s.1-.6.3-.8c.1-.2.2-.4.4-.6s.3-.3.5-.4.3-.2.4-.2h.4c.1 0 .2.1.3.2s.1.3.2.5.1.5.1.8zm-.5 1.1v-.9-.5c0-.1-.1-.3-.1-.4s-.1-.2-.2-.2h-.2c-.1 0-.2 0-.3.1l-.3.3c-.1.1-.2.2-.2.4-.1.1-.1.3-.1.5v.7.9.5c0 .1.1.3.1.4s.1.2.2.2.1.1.2 0c.1 0 .2 0 .3-.1l.3-.3c.1-.1.2-.2.2-.4.1-.2.1-.3.1-.5v-.7zm-3.5-.7v4.7l-.5.3v-4l-1 1v-.5l1.5-1.5h0z"/></g><path d="M276.6 273.2l42.4-24.4v13.1l-42.4 24.4z" class="V W"/><g class="T"><path d="M300.6 265.5v.7c0 .4 0 .7-.1 1s-.1.6-.3.8c-.1.2-.2.4-.4.6s-.3.3-.5.4-.3.1-.4.2h-.4c-.1 0-.2-.1-.3-.2s-.1-.3-.2-.5-.1-.5-.1-.8v-.7c0-.4 0-.7.1-1s.1-.6.3-.8c.1-.2.2-.4.4-.6s.3-.3.5-.4.3-.2.4-.2h.4c.1 0 .2.1.3.2s.1.3.2.5a2.2 2.2 0 0 1 .1.8zm-.5 1.1v-.9-.5c0-.1-.1-.3-.1-.4s-.1-.2-.2-.2h-.2c-.1 0-.2 0-.3.1l-.3.3c-.1.1-.2.2-.2.4-.1.1-.1.3-.1.5v.7.9.5c0 .1.1.3.1.4s.1.2.2.2.1.1.2 0c.1 0 .2 0 .3-.1l.3-.3c.1-.1.2-.2.2-.4.1-.2.1-.3.1-.5v-.7z"/><use href="#p"/></g><path d="M142.7 363.1l49-28.1v13.2l-49 28.1z" class="U X"/><g class="T"><path d="M175.1 348.2h0v.5h0c-.3.2-.5.3-.7.5s-.3.4-.4.7c-.1.2-.2.5-.2.7s-.1.5-.1.7v.7c0 .2 0 .4.1.5 0 .1.1.2.2.3s.2.1.2.1c.1 0 .2 0 .3-.1l.3-.3c.1-.1.2-.2.2-.4.1-.1.1-.3.1-.4s.1-.3.1-.5v-.4c0-.1-.1-.2-.1-.3-.1-.1-.1-.1-.2-.1s-.2 0-.3.1-.3.2-.4.4c-.1.1-.2.3-.3.5s-.1.3-.1.5l-.3.2c0-.3.1-.5.1-.7l.3-.6c.1-.2.2-.3.4-.4.1-.1.3-.2.4-.3.2-.1.4-.2.5-.2s.3.1.4.1c.1.1.2.2.2.4s.1.3.1.5 0 .4-.1.7c-.1.2-.1.4-.2.6s-.2.4-.4.6-.3.3-.5.4-.4.2-.6.2-.3-.1-.4-.2-.2-.3-.2-.4c-.1-.2-.1-.4-.1-.6v-.2c0-.3 0-.7.1-1l.3-1c.1-.3.3-.7.6-1 0-.3.3-.6.7-.8zm-2.5 1.4l-1.7 6-.4.3 1.7-6 .4-.3zm-3.1 5.8v-4.2l.5-.3v4.9l-.5.3v-.7zm-2 .1h0c0-.3 0-.6.1-.8.1-.3.1-.5.2-.7s.2-.4.4-.6c.1-.2.3-.3.5-.4s.4-.2.5-.2.3 0 .4.1.2.2.2.4c.1.2.1.4.1.6v.3c0 .3-.1.5-.1.8-.1.2-.1.5-.2.7s-.2.4-.4.5c-.1.2-.3.3-.5.4a.9.9 0 0 1-.5.1c-.1 0-.3-.1-.4-.2s-.2-.2-.2-.4c-.1-.1-.1-.3-.1-.6zm.5-.3h0v.5c0 .1.1.2.1.3.1.1.1.1.2.1s.2 0 .4-.1.3-.2.4-.4c.1-.1.2-.3.3-.5s.1-.4.2-.5v-.8c0-.1-.1-.2-.1-.3s-.1-.2-.2-.2-.1-.1-.2-.1-.2 0-.3.1-.3.2-.4.3-.2.3-.2.4c-.1.2-.1.3-.1.5-.1.3-.1.5-.1.7zm-2.2 2.6l.8-3.6.6-.3-1.2 4.7c0 .1-.1.2-.1.3s-.1.3-.2.4-.2.3-.3.4-.2.2-.4.3c0 0-.1 0-.2.1h-.1v-.5h.1.1c.1-.1.2-.1.3-.2s.1-.2.2-.3.1-.3.1-.4l.3-.9zm-.6-2.7l.8 2.2.1.5-.4.4-1.1-2.9.6-.2zm-1.6 1.7v.5l-2.2 1.3v-.5l2.2-1.3zm-2.1-.8v4.7l-.5.3v-4.7l.5-.3zm2.6-1.5v4.7l-.5.3v-4.7l.5-.3zm-3.8 2.2l-1.7 6-.4.3 1.7-6 .4-.3zm-4.4 4.4v2.7l-.5.3v-3.5l.5-.3v.8zm-.1 1l-.2.1c0-.2 0-.5.1-.7s.1-.5.2-.7.2-.4.4-.6.3-.3.5-.4c.1-.1.3-.1.4-.2h.3c.1.1.1.1.2.3 0 .1.1.3.1.5v2.3l-.5.3v-2.3c0-.2 0-.3-.1-.4 0-.1-.1-.1-.2-.1s-.2 0-.3.1-.2.2-.4.3c-.1.1-.2.3-.3.4-.1.2-.1.3-.2.5v.6zm-3.8 2.3h0c0-.3 0-.6.1-.8.1-.3.2-.5.3-.7s.3-.4.4-.6c.2-.2.4-.3.6-.5.2-.1.4-.2.6-.2s.3 0 .4.1.2.2.3.4.1.4.1.6v.1c0 .2 0 .5-.1.8l-.3.7c-.1.2-.3.4-.4.6-.2.2-.4.3-.6.5-.2.1-.4.2-.6.2s-.3 0-.4-.1-.2-.2-.3-.4c0-.2-.1-.4-.1-.7zm.5-.4h0c0 .2 0 .4.1.5 0 .1.1.2.2.3s.2.1.3.1.2 0 .4-.1c.1-.1.3-.2.4-.3s.2-.3.3-.4c.1-.2.1-.3.2-.5 0-.2.1-.3.1-.5v-.1c0-.2 0-.3-.1-.5 0-.1-.1-.2-.2-.3s-.2-.1-.3-.1-.2 0-.4.1c-.1.1-.3.2-.4.3s-.2.3-.3.4c-.1.2-.1.3-.2.5 0 .3-.1.5-.1.6zm-1.5 1.2l.5-.3c0 .3-.1.6-.2.9s-.3.6-.5.8c-.2.3-.5.5-.8.7-.2.1-.5.2-.6.2-.2 0-.4 0-.5-.2-.1-.1-.2-.3-.3-.5s-.1-.5-.1-.8v-.5c0-.3 0-.6.1-1l.3-.9c.1-.3.3-.5.5-.7s.4-.4.7-.5c.3-.2.6-.3.8-.2.2 0 .4.1.5.3s.2.4.2.7l-.5.3c0-.2-.1-.4-.1-.5-.1-.1-.2-.2-.3-.2s-.3 0-.5.2c-.2.1-.3.2-.5.4-.1.2-.2.3-.3.5s-.2.4-.2.6-.1.5-.1.7v.5c0 .2 0 .4.1.6 0 .2.1.3.2.4s.2.2.3.2.3 0 .5-.1.4-.3.5-.4c.1-.2.2-.3.3-.5-.1-.2-.1-.4 0-.7z"/></g><path d="M191.7 335l42.4-24.3v13.1l-42.4 24.4z" class="U X"/><g class="T"><path d="M215.9 329.5v.5l-2.6 1.5v-.4l1.3-2.5c.2-.3.3-.6.4-.7.1-.2.2-.4.2-.5s.1-.3.1-.4c0-.2 0-.3-.1-.4l-.2-.2c-.1 0-.2 0-.4.1s-.3.2-.4.4c-.1.1-.2.3-.3.5s-.1.4-.1.5l-.5.3c0-.3.1-.5.2-.8a3 3 0 0 1 .4-.8c.2-.2.4-.4.7-.6.3-.1.5-.2.7-.2s.3.1.4.2.1.3.1.6c0 .1 0 .3-.1.5 0 .2-.1.3-.2.5s-.1.4-.2.5l-.3.6-1.1 2 2-1.2zm-5.1.8l.4-.2c.2-.1.3-.2.4-.4.1-.1.2-.3.3-.4.1-.2.1-.3.1-.5s0-.3-.1-.4-.1-.1-.2-.1-.2 0-.4.1c-.1.1-.3.2-.4.3s-.2.3-.3.4c-.1.2-.1.3-.1.5l-.5.4c0-.2.1-.5.2-.7.1-.3.2-.5.4-.7s.4-.4.7-.5c.2-.1.5-.2.6-.2.2 0 .3.1.4.2s.2.3.2.6c0 .1 0 .3-.1.4 0 .2-.1.3-.2.5s-.2.3-.4.5-.3.3-.6.4l-.4.3v-.5zm0 .5v-.4l.4-.3c.3-.1.5-.2.6-.3.2 0 .3 0 .4.1s.2.2.2.3.1.2.1.4 0 .4-.1.6l-.3.6c-.1.2-.2.4-.4.5s-.3.3-.5.4-.3.2-.5.2h-.4c-.1 0-.2-.1-.3-.2s-.1-.3-.1-.5l.5-.3c0 .2 0 .3.1.4s.2.1.3.1.3 0 .4-.1c.2-.1.3-.2.4-.3s.2-.3.3-.4c.1-.2.1-.3.1-.5s0-.3-.1-.4-.2-.1-.3-.1-.3.1-.5.2h-.3z"/></g><path d="M234.1 310.7l42.5-24.4v13.1l-42.5 24.4z" class="U X"/><g class="T"><path d="M258.3 305.2v.5l-2.6 1.5v-.4l1.3-2.5c.2-.3.3-.6.4-.8s.2-.4.2-.5.1-.3.1-.4c0-.2 0-.3-.1-.4l-.2-.2c-.1 0-.2 0-.4.1s-.3.2-.5.4c-.1.1-.2.3-.3.5s-.1.4-.1.5l-.5.3c0-.3 0-.5.1-.8a3 3 0 0 1 .4-.8c.2-.2.4-.4.7-.6.3-.1.5-.2.7-.2s.3.1.4.2.1.3.1.6c0 .1 0 .3-.1.5 0 .2-.1.3-.2.5s-.2.4-.2.5l-.3.6-1.1 2 2.2-1.1zm-5.1.8l.4-.2c.2-.1.3-.2.4-.4.1-.1.2-.3.3-.4.1-.2.1-.3.1-.5s0-.3-.1-.4-.1-.1-.2-.1-.2 0-.4.1c-.1.1-.3.2-.4.3s-.2.3-.3.4c-.1.2-.1.3-.1.5l-.5.3c0-.2.1-.5.2-.7.1-.3.2-.5.4-.7s.4-.4.7-.5c.2-.1.5-.2.6-.2.2 0 .3.1.4.2s.2.3.2.6c0 .1 0 .3-.1.4 0 .2-.1.3-.2.5s-.2.3-.4.5-.3.3-.6.4l-.4.3v-.4zm0 .5v-.4l.4-.3c.3-.1.5-.2.6-.3.2 0 .3 0 .4.1s.2.2.2.3.1.2.1.4 0 .4-.1.6l-.3.6c-.1.2-.3.4-.4.5-.2.1-.3.3-.5.4s-.3.2-.5.2h-.4c-.1 0-.2-.1-.3-.2s-.1-.3-.1-.5l.5-.3c0 .2 0 .3.1.4s.2.1.3.1.3 0 .4-.1c.2-.1.3-.2.4-.3s.2-.3.3-.4c.1-.2.1-.3.1-.5s0-.3-.1-.4-.2-.1-.3-.1-.3.1-.5.2h-.3z"/></g><path d="M276.6 286.3l42.4-24.4V275l-42.4 24.4z" class="U X"/><g class="T"><path d="M300.7 278.6v.7c0 .4 0 .7-.1 1s-.1.6-.3.8c-.1.2-.2.4-.4.6s-.3.3-.5.4-.3.1-.4.2h-.4c-.1 0-.2-.1-.3-.2s-.1-.3-.2-.5c0-.2-.1-.5-.1-.8v-.7c0-.4 0-.7.1-1s.1-.6.3-.8c.1-.2.2-.4.4-.6s.3-.3.5-.4.3-.2.4-.2h.4c.1 0 .2.1.3.2s.1.3.2.5a2.2 2.2 0 0 1 .1.8zm-.5 1.1v-.9-.5c0-.1-.1-.3-.1-.4s-.1-.2-.2-.2h-.2c-.1 0-.2 0-.3.1l-.3.3c-.1.1-.2.2-.2.4-.1.1-.1.3-.1.5s-.1.4-.1.7v.9.5c0 .1.1.3.1.4s.1.2.2.2.1.1.2 0c.1 0 .2 0 .3-.1l.3-.3c.1-.1.2-.2.2-.4.1-.2.1-.3.1-.5.1-.2.1-.4.1-.7z"/><use href="#q"/></g><path d="M142.7 376.3l49-28.1v13.1l-49 28.1z" class="V W"/><g class="T"><path d="M175.1 361.3h0v.5h0c-.3.2-.5.3-.7.5s-.3.4-.4.7c-.1.2-.2.5-.2.7s-.1.5-.1.7v.7c0 .2 0 .4.1.5 0 .1.1.2.2.3s.2.1.2.1c.1 0 .2 0 .3-.1l.3-.3c.1-.1.2-.2.2-.4.1-.1.1-.3.1-.4s.1-.3.1-.5v-.4c0-.1-.1-.2-.1-.3-.1-.1-.1-.1-.2-.1s-.2 0-.3.1-.3.2-.4.4c-.1.1-.2.3-.3.5s-.1.3-.1.5l-.3.2c0-.3.1-.5.1-.7l.3-.6c.1-.2.2-.3.4-.4.1-.1.3-.2.4-.3.2-.1.4-.2.5-.2s.3.1.4.1c.1.1.2.2.2.4s.1.3.1.5 0 .4-.1.7c-.1.2-.1.4-.2.6s-.2.4-.4.6-.3.3-.5.4-.4.2-.6.2-.3-.1-.4-.2-.2-.3-.2-.4c-.1-.2-.1-.4-.1-.6v-.3c0-.3 0-.7.1-1l.3-1c.1-.3.3-.7.6-1 0-.2.3-.5.7-.7zm-2.5 1.5l-1.7 6-.4.3 1.7-6 .4-.3zm-3.1 5.7v-4.2l.5-.3v4.9l-.5.3v-.7zm-2 .2h0c0-.3 0-.6.1-.8.1-.3.1-.5.2-.7s.2-.4.4-.6c.1-.2.3-.3.5-.4s.4-.2.5-.2.3 0 .4.1.2.2.2.4c.1.2.1.4.1.6v.3c0 .3-.1.5-.1.8-.1.2-.1.5-.2.7s-.2.4-.4.5c-.1.2-.3.3-.5.4a.9.9 0 0 1-.5.1c-.1 0-.3-.1-.4-.2s-.2-.2-.2-.4c-.1-.2-.1-.4-.1-.6zm.5-.4h0v.5c0 .1.1.2.1.3.1.1.1.1.2.1s.2 0 .4-.1.3-.2.4-.4c.1-.1.2-.3.3-.5s.1-.4.2-.5v-.7c0-.1-.1-.2-.1-.3s-.1-.2-.2-.2-.1-.1-.2-.1-.2 0-.3.1-.3.2-.4.3-.2.3-.2.4c-.1.2-.1.3-.1.5-.1.3-.1.4-.1.6zm-2.2 2.7l.8-3.6.6-.3-1.2 4.7c0 .1-.1.2-.1.3s-.1.3-.2.4-.2.3-.3.4-.2.2-.4.3c0 0-.1 0-.2.1h-.1v-.5h.1.1c.1-.1.2-.1.3-.2s.1-.2.2-.3.1-.3.1-.4l.3-.9zm-.6-2.8l.8 2.2.1.5-.4.4-1.1-2.9.6-.2zm-1.6 1.7v.5l-2.2 1.3v-.5l2.2-1.3zm-2.1-.8v4.7l-.5.3v-4.7l.5-.3zm2.6-1.5v4.7l-.5.3V368l.5-.4zm-3.8 2.2l-1.7 6-.4.3 1.7-6 .4-.3zm-4.4 4.5v2.7l-.5.3v-3.5l.5-.3v.8zm-.1.9l-.2.1c0-.2 0-.5.1-.7s.1-.5.2-.7.2-.4.4-.6.3-.3.5-.4c.1-.1.3-.1.4-.2h.3c.1.1.1.1.2.3 0 .1.1.3.1.5v2.3l-.5.3V374c0-.2 0-.3-.1-.4 0-.1-.1-.1-.2-.1s-.2 0-.3.1-.2.2-.4.3c-.1.1-.2.3-.3.4-.1.2-.1.3-.2.5v.4zm-3.8 2.3h0c0-.3 0-.6.1-.8.1-.3.2-.5.3-.7s.3-.4.4-.6c.2-.2.4-.3.6-.5.2-.1.4-.2.6-.2s.3 0 .4.1.2.2.3.4.1.4.1.6v.1c0 .2 0 .5-.1.8l-.3.7c-.1.2-.3.4-.4.6-.2.2-.4.3-.6.5-.2.1-.4.2-.6.2s-.3 0-.4-.1-.2-.2-.3-.4c0-.2-.1-.4-.1-.7zm.5-.3h0c0 .2 0 .4.1.5 0 .1.1.2.2.3s.2.1.3.1.2 0 .4-.1c.1-.1.3-.2.4-.3s.2-.3.3-.4c.1-.2.1-.3.2-.5 0-.2.1-.4.1-.5v-.1c0-.2 0-.3-.1-.5 0-.1-.1-.2-.2-.3s-.2-.1-.3-.1-.2 0-.4.1c-.1.1-.3.2-.4.3s-.2.3-.3.4c-.1.2-.1.3-.2.5 0 .2-.1.4-.1.6zm-1.5 1.2l.5-.3c0 .3-.1.6-.2.9s-.3.6-.5.8c-.2.3-.5.5-.8.7-.2.1-.5.2-.6.2-.2 0-.4 0-.5-.2-.1-.1-.2-.3-.3-.5s-.1-.5-.1-.8v-.5c0-.3 0-.6.1-1l.3-.9c.1-.3.3-.5.5-.7s.4-.4.7-.5c.3-.2.6-.3.8-.2.2 0 .4.1.5.3s.2.4.2.7l-.5.3c0-.2-.1-.4-.1-.5-.1-.1-.2-.2-.3-.2s-.3 0-.5.2c-.2.1-.3.2-.5.4-.1.2-.2.3-.3.5s-.2.4-.2.6-.1.5-.1.7v.5c0 .2 0 .4.1.6 0 .2.1.3.2.4s.2.2.3.2.3 0 .5-.1.4-.3.5-.4c.1-.2.2-.3.3-.5-.1-.3-.1-.5 0-.7z"/></g><path d="M191.7 348.2l42.4-24.4v13.1l-42.4 24.4z" class="V W"/><g class="T"><path d="M215.7 340.6v.7c0 .4 0 .7-.1 1s-.1.6-.3.8c-.1.2-.2.4-.4.6s-.3.3-.5.4-.3.1-.4.2h-.4c-.1 0-.2-.1-.3-.2s-.1-.3-.2-.5-.1-.5-.1-.8v-.8c0-.4 0-.7.1-1s.1-.5.3-.8c.1-.2.2-.4.4-.6s.3-.3.5-.4.3-.2.4-.2h.4c.1 0 .2.1.3.2s.1.3.2.5c.1.3.1.5.1.9zm-.5 1.1v-.9-.5c0-.1-.1-.3-.1-.4s-.1-.2-.2-.2h-.2c-.1 0-.2 0-.3.1l-.3.3c-.1.1-.2.2-.2.4-.1.1-.1.3-.1.5s-.1.4-.1.7v.9.5c0 .1.1.3.1.4s.1.2.2.2.1.1.2 0c.1 0 .2 0 .3-.1l.3-.3c.1-.1.2-.2.2-.4.1-.2.1-.3.1-.5.1-.2.1-.5.1-.7zm-3.6-.8v4.7l-.5.3v-4l-1 1v-.5l1.5-1.5h0z"/></g><path d="M234.1 323.8l42.5-24.4v13.1l-42.5 24.4z" class="V W"/><g class="T"><path d="M258.1 316.2v.7c0 .4 0 .7-.1 1s-.1.6-.3.8c-.1.2-.2.4-.4.6s-.3.3-.5.4-.3.1-.4.2h-.4c-.1 0-.2-.1-.3-.2s-.1-.3-.2-.5-.1-.5-.1-.8v-.7c0-.4 0-.7.1-1s.1-.5.3-.8c.1-.2.2-.4.4-.6s.3-.3.5-.4.3-.2.4-.2h.4c.1 0 .2.1.3.2s.1.3.2.5.1.5.1.8zm-.5 1.1v-.9-.5c0-.1-.1-.3-.1-.4s-.1-.2-.2-.2h-.2c-.1 0-.2 0-.3.1l-.3.3c-.1.1-.2.2-.2.4-.1.1-.1.3-.1.5v.7.9.5c0 .1.1.3.1.4s.1.2.2.2.1.1.2 0c.1 0 .2 0 .3-.1l.3-.3c.1-.1.2-.2.2-.4.1-.2.1-.3.1-.5v-.7zm-3.5-.8v4.7l-.5.3v-4l-1 1v-.5l1.5-1.5h0z"/></g><path d="M276.6 299.4L319 275v13.2l-42.4 24.3z" class="V W"/><g class="T"><path d="M300.6 291.8v.7c0 .4 0 .7-.1 1s-.1.6-.3.8c-.1.2-.2.4-.4.6s-.3.3-.5.4-.3.1-.4.2h-.4c-.1 0-.2-.1-.3-.2s-.1-.3-.2-.5c0-.2-.1-.5-.1-.8v-.7c0-.4 0-.7.1-1s.1-.6.3-.8c.1-.2.2-.4.4-.6s.3-.3.5-.4.3-.2.4-.2h.4c.1 0 .2.1.3.2s.1.3.2.5.1.5.1.8zm-.5 1.1v-.9-.5c0-.1-.1-.3-.1-.4s-.1-.2-.2-.2h-.2c-.1 0-.2 0-.3.1l-.3.3c-.1.1-.2.2-.2.4-.1.1-.1.3-.1.5v.7.9.5c0 .1.1.3.1.4s.1.2.2.2.1.1.2 0c.1 0 .2 0 .3-.1l.3-.3c.1-.1.2-.2.2-.4.1-.2.1-.3.1-.5v-.7zm-3.2-.9h0v.5h0c-.3.2-.5.3-.7.5s-.3.4-.4.7c-.1.2-.2.5-.2.7s-.1.5-.1.7v.7c0 .2 0 .4.1.5 0 .1.1.2.2.3s.2.1.2.1c.1 0 .2 0 .3-.1l.3-.3c.1-.1.2-.2.2-.4.1-.1.1-.3.1-.4v-.5-.4c0-.1-.1-.2-.1-.3-.1-.1-.1-.1-.2-.1s-.2 0-.3.1-.3.2-.4.4c-.1.1-.2.3-.3.5s-.1.3-.1.5l-.3.2c0-.3.1-.5.1-.7l.3-.6c.1-.2.2-.3.4-.4.1-.1.3-.2.4-.3.2-.1.4-.2.5-.2s.3.1.4.1c.1.1.2.2.2.4s.1.3.1.5 0 .4-.1.7c-.1.2-.1.4-.2.6s-.2.4-.4.6-.3.3-.5.4-.4.2-.6.2-.3-.1-.4-.2-.2-.3-.2-.4c-.1-.2-.1-.4-.1-.6v-.3c0-.3 0-.7.1-1l.3-1c.1-.3.3-.7.6-1a1.9 1.9 0 0 1 .8-.7z"/></g><path d="M142.7 389.4l49-28.1v13.1l-45.6 26.2c-1.9 1.1-3.4.2-3.4-2v-9.2z" class="U X"/><g class="T"><path d="M175.1 374.4h0v.5h0c-.3.2-.5.3-.7.5s-.3.4-.4.7c-.1.2-.2.5-.2.7s-.1.5-.1.7v.7c0 .2 0 .4.1.5 0 .1.1.2.2.3s.2.1.2.1c.1 0 .2 0 .3-.1l.3-.3c.1-.1.2-.2.2-.4.1-.1.1-.3.1-.4s.1-.3.1-.5v-.4c0-.1-.1-.2-.1-.3-.1-.1-.1-.1-.2-.1s-.2 0-.3.1-.3.2-.4.4c-.1.1-.2.3-.3.5s-.1.3-.1.5l-.3.2c0-.3.1-.5.1-.7l.3-.6c.1-.2.2-.3.4-.4.1-.1.3-.2.4-.3.2-.1.4-.2.5-.2s.3.1.4.1c.1.1.2.2.2.4s.1.3.1.5 0 .4-.1.7c-.1.2-.1.4-.2.6s-.2.4-.4.6-.3.3-.5.4-.4.2-.6.2-.3-.1-.4-.2-.2-.3-.2-.4c-.1-.2-.1-.4-.1-.6v-.3c0-.3 0-.7.1-1l.3-1c.1-.3.3-.7.6-1 0-.2.3-.4.7-.7zm-2.5 1.5l-1.7 6-.4.3 1.7-6 .4-.3zm-3.1 5.8v-4.2l.5-.3v4.9l-.5.3v-.7zm-2 .1h0c0-.3 0-.6.1-.8.1-.3.1-.5.2-.7s.2-.4.4-.6c.1-.2.3-.3.5-.4s.4-.2.5-.2.3 0 .4.1.2.2.2.4c.1.2.1.4.1.6v.3c0 .3-.1.5-.1.8-.1.2-.1.5-.2.7s-.2.4-.4.5c-.1.2-.3.3-.5.4a.9.9 0 0 1-.5.1c-.1 0-.3-.1-.4-.2s-.2-.2-.2-.4c-.1-.1-.1-.4-.1-.6zm.5-.4h0v.5c0 .1.1.2.1.3.1.1.1.1.2.1s.2 0 .4-.1.3-.2.4-.4c.1-.1.2-.3.3-.5s.1-.4.2-.5v-.8c0-.1-.1-.2-.1-.3s-.1-.2-.2-.2-.1-.1-.2-.1-.2 0-.3.1-.3.2-.4.3-.2.3-.2.4c-.1.2-.1.3-.1.5-.1.4-.1.6-.1.7zm-2.2 2.7l.8-3.6.6-.3-1.2 4.7c0 .1-.1.2-.1.3s-.1.3-.2.4-.2.3-.3.4-.2.2-.4.3c0 0-.1 0-.2.1h-.1v-.5h.1.1c.1-.1.2-.1.3-.2s.1-.2.2-.3.1-.3.1-.4l.3-.9zm-.6-2.8l.8 2.2.1.5-.4.4-1.1-2.9.6-.2zm-1.6 1.8v.5l-2.2 1.3v-.5l2.2-1.3zm-2.1-.8v4.7l-.5.3v-4.7l.5-.3zm2.6-1.5v4.7l-.5.3v-4.7l.5-.3zm-3.8 2.1l-1.7 6-.4.3 1.7-6 .4-.3zm-4.4 4.5v2.7l-.5.3V387l.5-.3v.7zm-.1.9l-.2.1c0-.2 0-.5.1-.7s.1-.5.2-.7.2-.4.4-.6.3-.3.5-.4c.1-.1.3-.1.4-.2h.3c.1.1.1.1.2.3 0 .1.1.3.1.5v2.3l-.5.3v-2.3c0-.2 0-.3-.1-.4 0-.1-.1-.1-.2-.1s-.2 0-.3.1-.2.2-.4.3c-.1.1-.2.3-.3.4-.1.2-.1.3-.2.5v.6zm-3.8 2.4h0c0-.3 0-.6.1-.8.1-.3.2-.5.3-.7s.3-.4.4-.6c.2-.2.4-.3.6-.5.2-.1.4-.2.6-.2s.3 0 .4.1.2.2.3.4.1.4.1.6v.1c0 .2 0 .5-.1.8l-.3.7c-.1.2-.3.4-.4.6-.2.2-.4.3-.6.5-.2.1-.4.2-.6.2s-.3 0-.4-.1-.2-.2-.3-.4c0-.3-.1-.5-.1-.7zm.5-.4h0c0 .2 0 .4.1.5 0 .1.1.2.2.3s.2.1.3.1.2 0 .4-.1c.1-.1.3-.2.4-.3s.2-.3.3-.4c.1-.2.1-.3.2-.5 0-.2.1-.3.1-.5v-.1c0-.2 0-.3-.1-.5 0-.1-.1-.2-.2-.3s-.2-.1-.3-.1-.2 0-.4.1c-.1.1-.3.2-.4.3s-.2.3-.3.4c-.1.2-.1.3-.2.5 0 .3-.1.4-.1.6zm-1.5 1.2l.5-.3c0 .3-.1.6-.2.9s-.3.6-.5.8a2.7 2.7 0 0 1-.8.7c-.2.1-.5.2-.6.2-.2 0-.4 0-.5-.1s-.2-.3-.3-.5-.1-.5-.1-.8v-.5c0-.3 0-.6.1-1l.3-.9c.1-.3.3-.5.5-.7s.4-.4.7-.5c.3-.2.6-.3.8-.2.2 0 .4.1.5.3s.2.4.2.7l-.5.3c0-.2-.1-.4-.1-.5-.1-.1-.2-.2-.3-.2s-.3 0-.5.2c-.2.1-.3.2-.5.4-.1.2-.2.3-.3.5s-.2.4-.2.6-.1.5-.1.7v.5c0 .2 0 .4.1.6 0 .2.1.3.2.4s.2.2.3.2.3 0 .5-.1.4-.3.5-.4c.1-.2.2-.3.3-.5-.1-.4-.1-.6 0-.8z"/></g><path d="M191.7 361.3l42.4-24.4V350l-42.4 24.4z" class="U X"/><g class="T"><path d="M215.9 355.8v.5l-2.6 1.5v-.4l1.3-2.5c.2-.3.3-.6.4-.7.1-.2.2-.4.2-.5s.1-.3.1-.4c0-.2 0-.3-.1-.4l-.2-.2c-.1 0-.2 0-.4.1s-.3.2-.4.4c-.1.1-.2.3-.3.5s-.1.4-.1.5l-.5.3c0-.3.1-.5.2-.8a3 3 0 0 1 .4-.8c.2-.2.4-.4.7-.6.3-.1.5-.2.7-.2s.3.1.4.2.1.3.1.6c0 .1 0 .3-.1.5 0 .2-.1.3-.2.5s-.1.4-.2.5l-.3.6-1.1 2 2-1.2zm-5.1.8l.4-.2c.2-.1.3-.2.4-.4.1-.1.2-.3.3-.4.1-.2.1-.3.1-.5s0-.3-.1-.4-.1-.1-.2-.1-.2 0-.4.1c-.1.1-.3.2-.4.3s-.2.3-.3.4c-.1.2-.1.3-.1.5l-.5.3c0-.2.1-.5.2-.7.1-.3.2-.5.4-.7s.4-.4.7-.5c.2-.1.5-.2.6-.2.2 0 .3.1.4.2s.2.3.2.6c0 .1 0 .3-.1.4 0 .2-.1.3-.2.5s-.2.3-.4.5-.3.3-.6.4l-.4.3v-.4zm0 .5v-.4l.4-.3c.3-.1.5-.2.6-.3.2 0 .3 0 .4.1s.2.2.2.3.1.2.1.4 0 .4-.1.6l-.3.6c-.1.2-.2.4-.4.5s-.3.3-.5.4-.3.2-.5.2h-.4c-.1 0-.2-.1-.3-.2s-.1-.3-.1-.5l.5-.3c0 .2 0 .3.1.4s.2.1.3.1.3 0 .4-.1c.2-.1.3-.2.4-.3s.2-.3.3-.4c.1-.2.1-.3.1-.5s0-.3-.1-.4-.2-.1-.3-.1-.3.1-.5.2h-.3z"/></g><path d="M234.1 336.9l42.5-24.4v13.2L234.1 350z" class="U X"/><g class="T"><path d="M258.3 331.4v.5l-2.6 1.5v-.4l1.3-2.5c.2-.3.3-.6.4-.7.1-.2.2-.4.2-.5s.1-.3.1-.4c0-.2 0-.3-.1-.4l-.2-.2c-.1 0-.2 0-.4.1s-.3.2-.5.4c-.1.1-.2.3-.3.5s-.1.4-.1.5l-.5.3c0-.3 0-.5.1-.8a3 3 0 0 1 .4-.8c.2-.2.4-.4.7-.6.3-.1.5-.2.7-.2s.3.1.4.2.1.3.1.6c0 .1 0 .3-.1.5 0 .2-.1.3-.2.5s-.2.4-.2.6l-.3.6-1.1 2 2.2-1.3zm-5.1.8l.4-.2c.2-.1.3-.2.4-.4.1-.1.2-.3.3-.4.1-.2.1-.3.1-.5s0-.3-.1-.4-.1-.1-.2-.1-.2 0-.4.1c-.1.1-.3.2-.4.3s-.2.3-.3.4c-.1.2-.1.3-.1.5l-.5.3c0-.2.1-.5.2-.7.1-.3.2-.5.4-.7s.4-.4.7-.5c.2-.1.5-.2.6-.2.2 0 .3.1.4.2s.2.3.2.6c0 .1 0 .3-.1.4 0 .2-.1.3-.2.5s-.2.3-.4.5-.3.3-.6.4l-.4.3v-.4zm0 .5v-.4l.4-.3c.3-.1.5-.2.6-.3.2 0 .3 0 .4.1s.2.2.2.3.1.2.1.4 0 .4-.1.6l-.3.6c-.1.2-.3.4-.4.5-.2.1-.3.3-.5.4s-.3.2-.5.2h-.4c-.1 0-.2-.1-.3-.2s-.1-.3-.1-.5l.5-.3c0 .2 0 .3.1.4s.2.1.3.1.3 0 .4-.1c.2-.1.3-.2.4-.3s.2-.3.3-.4c.1-.2.1-.3.1-.5s0-.3-.1-.4-.2-.1-.3-.1-.3.1-.5.2h-.3z"/></g><path d="M276.6,312.5l42.4-24.4v9.2c0,2.2-1.5,4.8-3.4,5.9l-39,22.4V312.5z" class="U X"/><g class="T"><path d="M300.7 304.9v.7c0 .4 0 .7-.1 1s-.1.6-.3.8c-.1.2-.2.4-.4.6s-.3.3-.5.4-.3.1-.4.2h-.4c-.1 0-.2-.1-.3-.2s-.1-.3-.2-.5c0-.2-.1-.5-.1-.8v-.7c0-.4 0-.7.1-1s.1-.6.3-.8c.1-.2.2-.4.4-.6s.3-.3.5-.4.3-.2.4-.2h.4c.1 0 .2.1.3.2s.1.3.2.5.1.5.1.8zm-.5 1.1v-.9-.5c0-.1-.1-.3-.1-.4s-.1-.2-.2-.2h-.2c-.1 0-.2 0-.3.1l-.3.3c-.1.1-.2.2-.2.4-.1.1-.1.3-.1.5s-.1.4-.1.7v.9.5c0 .1.1.3.1.4s.1.2.2.2.1.1.2 0c.1 0 .2 0 .3-.1l.3-.3c.1-.1.2-.2.2-.4.1-.2.1-.3.1-.5.1-.2.1-.5.1-.7zm-2.6 2.9v.5l-2.6 1.5v-.4l1.3-2.5c.2-.3.3-.6.4-.7.1-.2.2-.4.2-.5s.1-.3.1-.4c0-.2 0-.3-.1-.4l-.2-.2c-.1 0-.2 0-.4.1s-.3.2-.5.4c-.1.1-.2.3-.3.5s-.1.4-.1.5l-.5.3c0-.3 0-.5.1-.8a3 3 0 0 1 .4-.8c.2-.2.4-.4.7-.6.3-.1.5-.2.7-.2s.3.1.4.2.1.3.1.6c0 .1 0 .3-.1.5 0 .2-.1.3-.2.5s-.1.4-.2.5l-.3.6-1.1 2 2.2-1.2z"/></g><path d="M132.1 216.9v12.3L433.6 56V43.7c0-7.9-5.6-11.2-12.6-7.2L144.7 195.2c-7 4-12.6 13.7-12.6 21.7h0z" class="b"/><use href="#r" fill="#f22071"/><path d="M402.7 59.8c0 2.2 1.6 3.1 3.6 2a7.8 7.8 0 0 0 3.6-6.1c0-2.2-1.6-3.1-3.6-2a7.8 7.8 0 0 0-3.6 6.1z" fill="#4bbc79"/><path d="M296.8 125.3l96.5-56.1c1.4-.8 2.6-3.1 2.6-5s-1.2-2.8-2.6-2l-96.5 56.1c-1.4.8-2.6 3.1-2.6 5s1.2 2.8 2.6 2z" fill="#dcdcdc"/><g class="a"><path d="M145.2 204.8v9.1l-1.7 1v-9.1l1.7-1zm2.9 1.7v1.5l-3 1.8v-1.5l3-1.8zm1.6-4.4v9.1l-1.7 1v-9.1l1.7-1zm3.2.7v6.5l-1.7 1v-6.5l1.7-1zm-.5-2.6c.3-.2.5-.1.5.3v.7c0 .4-.2.7-.5.9l-.7.4c-.3.2-.5.1-.5-.3v-.7c0-.4.2-.7.5-.9l.7-.4zm3.2.9l.2 1.2.2.1v5l-1.7 1v-6.5l1.3-.8zm2.8-1.8l-.2 1.9-.5.3-.8.6-1.1 1.1-.1-1 1.2-1.6c.4-.4.8-.8 1.2-1l.3-.3zm2.5-1.3v6.5l-1.7 1V199l1.7-1zm-.5-2.6c.3-.2.5-.1.5.3v.7c0 .4-.2.7-.5.9l-.7.4c-.3.2-.5.1-.5-.3v-.7c0-.4.2-.7.5-.9l.7-.4zm5.8-.7c1.1-.6 1.6-.3 1.6.9v4.9l-1.7 1v-4.3c0-.3 0-.5-.1-.5-.1-.1-.2 0-.5.1-.2.1-.5.4-.7.6-.3.3-.6.6-.9 1.1l-.1-1 1.2-1.6a3.4 3.4 0 0 1 1.2-1.2zm-2.6 1.7l.2 1.2.1.1v5l-1.7 1v-6.5l1.4-.8zm8-5c.6-.4 1.2-.6 1.5-.7.4-.1.7 0 .8.2.2.2.3.5.3 1s-.1.9-.2 1.3c-.2.4-.4.8-.8 1.2s-.9.8-1.5 1.1c-.6.4-1.2.6-1.6.7s-.7 0-.8-.2c-.2-.2-.2-.5-.2-1s.1-.9.2-1.3c.2-.4.5-.8.8-1.2.3-.3.8-.7 1.5-1.1zm0 1.2c-.4.2-.7.5-.9.7s-.2.5-.2.8.1.5.2.5c.2 0 .4-.1.9-.3a1.9 1.9 0 0 0 .8-.7c.2-.2.2-.5.2-.8s-.1-.5-.2-.5c-.2 0-.4.1-.8.3zm3.2-2.9l-.1.9-1.5 1.1-.4-.8 2-1.2zm-4.9 6.5l.8-.3c-.1.1-.2.3-.2.5v.4c.1.1.2.1.4 0l2.1-1c.6-.3 1-.3 1.2-.2.2.2.4.5.4 1.1s-.1 1.1-.3 1.5a4.7 4.7 0 0 1-.9 1.2 8.3 8.3 0 0 1-1.7 1.2c-.6.4-1.1.6-1.5.8s-.7.2-.9.2-.4-.1-.5-.3-.1-.5-.1-.8 0-.5.1-.8a3 3 0 0 1 .4-.8c.2-.3.5-.6.8-.9l.8-.8.6-.1-.5.6c-.2.3-.3.5-.5.7-.1.2-.2.3-.2.5 0 .1-.1.3-.1.5s0 .3.1.4.2.1.4 0 .5-.2.8-.4c.4-.2.7-.4.8-.6.2-.2.3-.3.4-.5s.1-.3.1-.5 0-.3-.1-.3-.1-.1-.3 0-.3.1-.6.2l-1.8.8c-.3.1-.5.2-.7.1s-.3-.2-.3-.3c-.1-.2-.1-.4-.1-.6s.1-.5.2-.7c.6-.4.7-.6.9-.8zm11.3-13.1a8 8 0 0 1 1.7-.8c.4-.1.7.1.9.4s.3.9.3 1.6a6 6 0 0 1-.3 2c-.2.5-.4 1-.8 1.4a7.4 7.4 0 0 1-1.6 1.2c-.3.2-.7.4-1 .6s-.6.3-.9.4-.5.2-.7.3-.3.1-.4.1v-1c.4-.3.9-.5 1.4-.8l1.4-.9c.3-.2.5-.4.7-.6s.3-.4.4-.7.1-.6.1-.9c0-.4 0-.7-.1-.8-.1-.2-.2-.2-.4-.2s-.4.1-.7.3l-1.8 1.1-1 .6-.2-1.3.9-.6.9-.6 1.2-.8zm-1.3.9v9.1l-1.7 1V185l1.7-1zm6.9-1.5v6.5l-1.7 1v-6.5l1.7-1zm-.5-2.6c.3-.2.5-.1.5.3v.7c0 .4-.2.7-.5.9l-.7.4c-.3.2-.5.1-.5-.3v-.7c0-.4.2-.7.5-.9l.7-.4zm5.6-.6c.7-.4 1.2-.4 1.5 0s.5 1.2.5 2.3c0 .9-.1 1.6-.2 2.2-.2.6-.4 1.1-.7 1.4a4 4 0 0 1-1.2 1l-1.1.5c-.4.1-.7.1-1-.1l.1-.9c.2-.1.5-.1.7-.2s.4-.2.7-.3c.2-.1.4-.3.6-.5a3.4 3.4 0 0 0 .3-.8c.1-.3.1-.8.1-1.3s0-.9-.1-1.2-.2-.4-.3-.4-.3 0-.5.2c-.2.1-.5.3-.7.6-.2.2-.4.5-.7.9l-.2-.8c.2-.3.3-.7.6-1 .2-.3.5-.6.8-.9.2-.3.5-.5.8-.7zm-2.3 1.5l.2 1.1.2.1v4.2l-.1.2v.8.8 1.6l-1.7 1v-9l1.4-.8zm8-4.9c.9-.6 1.6-.8 2-.6.4.1.6.5.6 1.3 0 .6-.1 1.1-.4 1.6s-.7.9-1.4 1.3l-3.1 1.9v-1.1l2.7-1.6a1.2 1.2 0 0 0 .5-.5c.1-.2.1-.4.1-.6 0-.3-.1-.5-.2-.5s-.4.1-.7.3-.6.4-.7.6c-.2.2-.3.5-.4.8s-.1.7-.1 1.2 0 .9.1 1.2c.1.2.2.4.4.4s.5-.1.8-.3l.9-.6c.4-.3.8-.5 1.2-.8l.2 1.1c-.2.3-.5.5-.7.7-.3.2-.6.5-.9.7l-.8.6c-.7.4-1.3.6-1.7.7-.4 0-.7-.2-.9-.6s-.3-1-.3-1.8c0-.9.1-1.6.3-2.2s.5-1.2.9-1.6c.4-.8 1-1.2 1.6-1.6zm5.5-5.8v7.1c0 .2.1.4.2.4s.3 0 .5-.1l.5-.3.2 1.2-.4.4c-.2.1-.3.3-.5.4s-.3.2-.4.3c-.5.3-.9.4-1.2.3s-.4-.5-.4-1v-7.6l1.5-1.1zm3.7.5v6.5l-1.7 1v-6.5l1.7-1zm-.5-2.6c.3-.2.5-.1.5.3v.7c0 .4-.2.7-.5.9l-.7.4c-.3.2-.5.1-.5-.3v-.7c0-.4.2-.7.5-.9l.7-.4zm5.8-.8c1.1-.6 1.6-.3 1.6.9v4.9l-1.7 1v-4.3c0-.3 0-.5-.1-.5-.1-.1-.2 0-.5.1-.2.1-.5.3-.7.6-.3.3-.6.6-.9 1.1l-.1-1 1.2-1.6c.4-.6.8-.9 1.2-1.2zm-2.5 1.7l.2 1.2.1.1v5l-1.7 1v-6.5l1.4-.8zm8.1-5c.9-.6 1.6-.8 2-.6.4.1.6.6.6 1.3 0 .6-.1 1.1-.4 1.6s-.7.9-1.4 1.3l-3.1 1.9v-1.1l2.7-1.6a1.2 1.2 0 0 0 .5-.5c.1-.2.1-.4.1-.6 0-.3-.1-.5-.2-.5s-.4.1-.7.3-.5.4-.7.6-.3.5-.4.8-.1.7-.1 1.2 0 .9.1 1.2c.1.2.2.4.4.4s.5-.1.8-.3l.9-.6c.4-.3.8-.5 1.2-.8l.2 1.1c-.2.3-.5.5-.7.7-.3.2-.6.5-.9.7l-.8.6c-.7.4-1.3.6-1.7.7-.4 0-.7-.2-.9-.6s-.3-1-.3-1.8c0-.9.1-1.6.3-2.2s.5-1.2.9-1.6.9-1.2 1.6-1.6z"/><path d="M144.1 232.5l33.5-19.2c1-.6 1.9-.1 1.9 1.1v7.8a3.8 3.8 0 0 1-1.9 3.2l-33.5 19.2c-1 .6-1.9.1-1.9-1.1v-7.8c0-1.2.8-2.6 1.9-3.2z" stroke="#e0ecfb" stroke-width=".94"/></g><path d="M149.6 233.7h0 .1l.8 2.4-.4.2-.7-2.1v-.1-.1l-.1.1v.1.2l-.7 2.8-.4.2.8-3.4s0-.1.1-.1l.1-.1.4-.1zm.5 1.5v.4l-1.3.8v-.4l1.3-.8zm1.6-1.9c.1 0 .1-.1.2-.1s.1-.1.2-.1.1 0 .2-.1v.3c-.1 0-.2.1-.3.1s-.2.1-.2.1c-.1.1-.3.2-.3.3-.1.1-.1.2-.2.3 0 .1-.1.3-.1.5s0 .3.1.4c0 .1.1.1.2.1s.2 0 .3-.1l.1-.1c.1 0 .1-.1.2-.1s.1-.1.2-.1v.3l-.3.3c-.1.1-.2.2-.3.2-.2.1-.4.2-.5.2s-.2-.1-.3-.2-.1-.3-.1-.6 0-.5.1-.7.2-.4.3-.5.3-.2.5-.4zm1.6-1.4v2.2c0 .1 0 .2.1.2h.2l.3-.2v.3l-.1.1c-.1 0-.1.1-.2.1s-.1.1-.1.1c-.2.1-.3.1-.4.1-.1-.1-.1-.2-.1-.4v-2.2l.3-.3zm.6.3v.3l-1.3.7v-.3l.4-.2.9-.5zm.8-.5v2.1l-.4.2v-2.1l.4-.2zm-.1-.8c.1 0 .1 0 .1.1v.2c0 .1 0 .1-.1.2l-.2.1c-.1 0-.1 0-.1-.1v-.3c0-.1 0-.1.1-.2h.2zm2.3-.5l-.7 2.4s0 .1-.1.1c0 0 0 .1-.1.1l-.3.2h-.1v-.1l-.7-1.7.4-.2.4 1.2c0 .1 0 .1.1.2 0 .1 0 .1.1.2h0c0-.1 0-.1.1-.2 0-.1 0-.1.1-.2l.4-1.7.4-.3zm1.1-.7c.3-.2.5-.2.6-.2s.2.2.2.4 0 .4-.1.5-.2.3-.4.4l-1.1.6v-.3l1-.6c.1 0 .1-.1.2-.2v-.2c0-.1 0-.2-.1-.2s-.2 0-.3.1-.2.2-.3.2c-.1.1-.1.2-.2.3v.5c0 .2 0 .4.1.5 0 .1.1.1.2.1s.2 0 .3-.1.2-.1.3-.2.2-.2.3-.2v.3l-.2.2c-.1.1-.2.1-.3.2s-.2.1-.3.2c-.2.1-.4.2-.5.2s-.2-.1-.3-.2-.1-.3-.1-.6 0-.5.1-.7.2-.4.3-.5c.3-.2.4-.4.6-.5zm3.3-1.8c.2-.1.4-.1.5 0s.1.4.1.8c0 .3 0 .5-.1.7s-.1.4-.2.5-.2.2-.4.3c-.1.1-.2.1-.4.2h-.3v-.3c.1 0 .2-.1.3-.1s.2-.1.3-.1c.1-.1.2-.1.2-.2.1-.1.1-.2.1-.3v-.5-.4c0-.1-.1-.2-.1-.2-.1 0-.1 0-.2.1s-.2.1-.3.2-.2.2-.3.4v-.2c.1-.1.1-.2.2-.3l.3-.3c.1-.2.2-.3.3-.3zm-.8.5v.4h0v1.4.1.2.3.6l-.4.2v-3l.4-.2zm2.3-1.3v2.1l-.4.2v-2.1l.4-.2zm-.1-.9c.1 0 .1 0 .1.1v.3c0 .1 0 .1-.1.2l-.2.1c-.1 0-.1 0-.1-.1v-.2c0-.1 0-.1.1-.2l.2-.2zm1.8-.2c.2-.1.4-.1.5 0s.1.4.1.8c0 .3 0 .5-.1.7s-.1.4-.2.5-.2.2-.4.3c-.1.1-.2.1-.4.2h-.3v-.3c.1 0 .2-.1.3-.1s.2-.1.3-.1c.1-.1.2-.1.2-.2.1-.1.1-.2.1-.3v-.5-.4c0-.1-.1-.2-.1-.2-.1 0-.1 0-.2.1s-.2.1-.3.2-.2.2-.3.4v-.2c.1-.1.1-.2.2-.3l.3-.3.3-.3zm-.8.5v.4h0v1.4.1.2.3.6l-.4.2v-3l.4-.2zm2.7-1.6c.3-.2.5-.2.6-.2s.2.2.2.4 0 .4-.1.5-.2.3-.4.4l-1.1.6v-.3l1-.6c.1 0 .1-.1.2-.2v-.2c0-.1 0-.2-.1-.2s-.2 0-.3.1-.2.2-.3.2c-.1.1-.1.2-.2.3v.5c0 .2 0 .4.1.5 0 .1.1.1.2.1s.2 0 .3-.1.2-.1.3-.2.2-.2.3-.2v.3l-.2.2c-.1.1-.2.1-.3.2s-.2.1-.3.2c-.2.1-.4.2-.5.2s-.2-.1-.3-.2-.1-.3-.1-.6 0-.5.1-.7.2-.4.3-.5c.2-.2.4-.3.6-.5zm1.6-1.8v2.5c0 .1 0 .1.1.2h.2l.2-.1v.3l-.1.1-.1.1-.1.1c-.1.1-.3.1-.3.1-.1 0-.1-.2-.1-.3v-2.6l.2-.4zm1.2.3v2.1l-.4.2v-2.1l.4-.2zm-.1-.9c.1 0 .1 0 .1.1v.3c0 .1 0 .1-.1.2l-.2.1c-.1 0-.1 0-.1-.1v-.3c0-.1 0-.1.1-.2l.2-.1zm1.8-.2c.3-.2.5-.1.5.3v1.6l-.4.2v-1.5c0-.1 0-.2-.1-.2h-.2l-.3.3c-.1.1-.2.3-.4.5v-.3c.1-.2.3-.4.4-.5.3-.2.4-.3.5-.4zm-.8.6v.4h0v1.7l-.4.2V223l.4-.1zm2.7-1.7c.3-.2.5-.2.6-.2s.2.2.2.4 0 .4-.1.5-.2.3-.4.4l-1.1.6v-.3l1-.6c.1 0 .1-.1.2-.2v-.2c0-.1 0-.2-.1-.2s-.2 0-.3.1-.2.2-.3.2c-.1.1-.1.2-.2.3v.5c0 .2 0 .4.1.5 0 .1.1.1.2.1s.2 0 .3-.1.2-.1.3-.2.2-.2.3-.2v.3l-.2.2c-.1.1-.2.1-.3.2s-.2.1-.3.2c-.2.1-.4.2-.5.2s-.2-.1-.3-.2-.1-.3-.1-.6 0-.5.1-.7.2-.4.3-.5c.2-.2.4-.3.6-.5z" class="T"/><path d="M186 208l33.5-19.2c1.3-.7 2.3-.1 2.3 1.3v7.8a5.1 5.1 0 0 1-2.3 4L186 221.1c-1.3.7-2.3.1-2.3-1.3V212a4.8 4.8 0 0 1 2.3-4z" class="b"/><path d="M189.3 210.9v3l-.4.2v-3l.4-.2zm1.8-.2c.3-.2.5-.1.5.3v1.6l-.4.2v-1.5c0-.1 0-.2-.1-.2h-.2l-.3.3c-.1.1-.2.3-.4.5v-.3c.1-.2.3-.4.4-.5.2-.2.4-.3.5-.4zm-.9.6v.4h0v1.7l-.4.2v-2.1l.4-.2zm2.9-1.7c.1-.1.3-.1.4-.1s.2 0 .2.1c.1.1.1.2.1.4v1.5l-.3.2-.1-.4h0v-1c0-.1 0-.2-.1-.2s-.1 0-.3.1c-.1.1-.2.1-.4.2-.1.1-.3.2-.4.3v-.3c.1-.1.2-.1.3-.2s.2-.1.3-.2c.1-.3.2-.3.3-.4zm.4.6v.3l-.9.5-.2.2c0 .1-.1.1-.1.2v.1c0 .1 0 .2.1.2 0 0 .1 0 .2-.1.1 0 .1-.1.2-.2l.3-.3c.1-.1.2-.2.2-.4v.3c0 .1-.1.1-.1.2-.1.1-.1.2-.2.3s-.2.2-.2.3c-.1.1-.2.2-.3.2-.1.1-.2.1-.3.1s-.1 0-.2-.1c0-.1-.1-.2-.1-.3v-.2c0-.2 0-.3.1-.5.1-.1.2-.3.4-.4l1.1-.4zm1.6-1.7c.1 0 .1-.1.2-.1s.1-.1.2-.1.1 0 .2-.1v.3c-.1 0-.2.1-.3.1s-.2.1-.2.1c-.1.1-.3.2-.3.3-.1.1-.1.2-.2.3 0 .1-.1.3-.1.5s0 .3.1.4c0 .1.1.1.2.1s.2 0 .3-.1l.1-.1c.1 0 .1-.1.2-.1s.1-.1.2-.1v.3l-.3.3c-.1.1-.2.2-.3.2-.2.1-.4.2-.5.2s-.2-.1-.3-.2-.1-.3-.1-.6 0-.5.1-.7.2-.4.3-.5c.1-.2.3-.3.5-.4zm1.6-1.5v2.2c0 .1 0 .2.1.2h.2l.3-.2v.3l-.1.1c-.1 0-.1.1-.2.1s-.1.1-.1.1c-.2.1-.3.1-.4.1-.1-.1-.1-.2-.1-.4v-2.2l.3-.3zm.5.3v.3l-1.3.7v-.3l.4-.2.9-.5zm.8-.5v2.1l-.4.2V207l.4-.2zm-.1-.8c.1 0 .1 0 .1.1v.3c0 .1 0 .1-.1.2l-.2.1c-.1 0-.1 0-.1-.1v-.3c0-.1 0-.1.1-.2l.2-.1zm2.4-.5l-.7 2.4s0 .1-.1.1c0 0 0 .1-.1.1l-.3.2h-.1v-.1l-.7-1.7.4-.2.4 1.2c0 .1 0 .1.1.2 0 .1 0 .1.1.2h.1c0-.1 0-.1.1-.2 0-.1 0-.1.1-.2l.4-1.7.3-.3zm1.1-.7c.3-.2.5-.2.6-.2s.2.2.2.4 0 .4-.1.5-.2.3-.4.4l-1.1.6v-.3l1-.6c.1 0 .1-.1.2-.2v-.2c0-.1 0-.2-.1-.2s-.2 0-.3.1-.2.2-.3.2c-.1.1-.1.2-.2.3v.5c0 .2 0 .4.1.5 0 .1.1.1.2.1s.2 0 .3-.1.2-.1.3-.2.2-.2.3-.2v.3l-.2.2c-.1.1-.2.1-.3.2s-.2.1-.3.2c-.2.1-.4.2-.5.2s-.2-.1-.3-.2-.1-.3-.1-.6 0-.5.1-.7.2-.4.3-.5c.2-.2.4-.4.6-.5zm3.2-1.8c.2-.1.4-.1.5 0s.1.4.1.8c0 .3 0 .5-.1.7s-.1.4-.2.5-.2.2-.4.3c-.1.1-.2.1-.4.2h-.3v-.3c.1 0 .2-.1.3-.1s.2-.1.3-.1c.1-.1.2-.1.2-.2.1-.1.1-.2.1-.3v-.5-.4c0-.1-.1-.2-.1-.2-.1 0-.1 0-.2.1s-.2.1-.3.2-.2.2-.3.4v-.2c.1-.1.1-.2.2-.3l.3-.3c.1-.2.2-.3.3-.3zm-.8.5v.4h0v1.4.1.2.3.6l-.4.2v-3l.4-.2zm2.3-1.3v2.1l-.4.2v-2.1l.4-.2zm-.1-.9c.1 0 .1 0 .1.1v.3c0 .1 0 .1-.1.2l-.2.1c-.1 0-.1 0-.1-.1v-.3c0-.1 0-.1.1-.2l.2-.1zm1.8-.2c.2-.1.4-.1.5 0s.1.4.1.8c0 .3 0 .5-.1.7s-.1.4-.2.5-.2.2-.4.3c-.1.1-.2.1-.4.2h-.3v-.2c.1 0 .2-.1.3-.1s.2-.1.3-.1c.1-.1.2-.1.2-.2.1-.1.1-.2.1-.3v-.5-.4c0-.1-.1-.2-.1-.2-.1 0-.1 0-.2.1s-.2.1-.3.2-.2.2-.3.4v-.2c.1-.1.1-.2.2-.3l.3-.3c.1-.2.2-.3.3-.4zm-.8.6v.4h0v1.4.1.2.2.6l-.4.2v-3l.4-.1zm2.7-1.7c.3-.2.5-.2.6-.2s.2.2.2.4 0 .4-.1.5-.2.3-.4.4l-1.1.6v-.3l1-.6c.1 0 .1-.1.2-.2v-.2c0-.1 0-.2-.1-.2s-.2 0-.3.1-.2.2-.3.2c-.1.1-.1.2-.2.3v.5c0 .2 0 .4.1.5 0 .1.1.1.2.1s.2 0 .3-.1.2-.1.3-.2.2-.2.3-.2v.3l-.2.2c-.1.1-.2.1-.3.2s-.2.1-.3.2c-.2.1-.4.2-.5.2s-.2-.1-.3-.2-.1-.3-.1-.6 0-.5.1-.7.2-.4.3-.5c.3-.2.4-.3.6-.5zm1.7-1.8v2.5c0 .1 0 .1.1.2h.2l.2-.1v.3l-.1.1-.1.1-.1.1c-.1.1-.3.1-.3.1-.1 0-.1-.2-.1-.3v-2.6l.2-.4zm1.1.3v2.1l-.4.2v-2.1l.4-.2zm-.1-.9c.1 0 .1 0 .1.1v.3c0 .1 0 .1-.1.2l-.2.1c-.1 0-.1 0-.1-.1v-.3c0-.1 0-.1.1-.2l.2-.1zm1.9-.2c.3-.2.5-.1.5.3v1.6l-.4.2V198c0-.1 0-.2-.1-.2h-.2l-.3.3c-.1.1-.2.3-.4.5v-.3c.1-.2.3-.4.4-.5.2-.2.4-.3.5-.4zm-.9.6v.4h0v1.7l-.4.2v-2.1l.4-.2zm2.7-1.6c.3-.2.5-.2.6-.2s.2.2.2.4 0 .4-.1.5-.2.3-.4.4l-1.1.6v-.3l1-.6c.1 0 .1-.1.2-.2v-.2c0-.1 0-.2-.1-.2s-.2 0-.3.1-.2.2-.3.2c-.1.1-.1.2-.2.3v.5c0 .2 0 .4.1.5 0 .1.1.1.2.1s.2 0 .3-.1.2-.1.3-.2.2-.2.3-.2v.3l-.2.2c-.1.1-.2.1-.3.2s-.2.1-.3.2c-.2.1-.4.2-.5.2s-.2-.1-.3-.2-.1-.3-.1-.6 0-.5.1-.7.2-.4.3-.5c.3-.3.4-.4.6-.5z" class="a"/></g></svg>