<svg xmlns="http://www.w3.org/2000/svg" width="600" height="600" fill="none" xmlns:v="https://vecta.io/nano"><style><![CDATA[.B{fill:#fff}.C{fill:#0668e1}.D{fill:#e5e5e5}.E{fill:#1b1c17}.F{stroke-width:2.15}]]></style><path d="M79.4 93.3c.1-33.1 35.9-53.6 64.5-37.1l357.3 207.4c28.6 16.6 28.5 57.9-.2 74.4L142.8 543.8c-28.7 16.5-64.4-4.3-64.3-37.3l.9-413.2z" fill="#bfd8f7" fill-opacity=".2" stroke="#0668e1" stroke-width=".83"/><path d="M145.3 549.8l170 22.5c16.9 2.2 34.4-12.3 39.1-32.5L459.7 83.3c4-17.3-2.7-33.1-15.4-38.7l17.2 7.6c12.7 5.6 19.4 21.4 15.4 38.7L371.6 547.3c-4.7 20.2-22.2 34.8-39.1 32.5l-170-22.5c-2.4-.3-4.7-1-6.8-1.9l-17.2-7.6c2.15 1.02 4.44 1.7 6.8 2z" fill="url(#H)"/><path d="M455.8 139.3c2.9 1.3 4.2 6.3 3.1 11.3L446 206.2c-1.2 5-4.4 8.1-7.2 6.8s-4.2-6.3-3-11.4l12.8-55.6c1.1-4.9 4.3-8 7.2-6.7zM435.3 228c2.9 1.3 4.2 6.3 3.1 11.4l-5.6 24.5c-1.2 5-4.4 8.1-7.2 6.8s-4.2-6.3-3-11.4l5.6-24.5c1-5 4.3-8.1 7.1-6.8z" class="B"/><path d="M443 194.5c.4.2.5.8.4 1.5l-2 8.8c-.1.6-.6 1.1-1 .9s-.5-.8-.4-1.5l2-8.8c.2-.7.7-1.1 1-.9zm11.1-47.9c.4.2.5.8.4 1.5l-.7 3.2 1.8.8c.4.2.5.8.4 1.5-.1.6-.6 1.1-1 .9l-1.8-.8-.7 3.2c-.1.7-.6 1.1-1 .9s-.5-.8-.4-1.5l.8-3.2-1.8-.8c-.4-.2-.5-.8-.4-1.5s.6-1.1 1-.9l1.8.8.7-3.2c.1-.7.5-1 .9-.9z" fill="#d1d5d9"/><path d="M267.5 20.2c-16.9-2.2-34.4 12.3-39 32.5L123.1 509.2c-4.7 20.2 5.3 38.4 22.2 40.6l170 22.5c16.9 2.2 34.4-12.3 39.1-32.5L459.7 83.3c4.7-20.2-5.3-38.4-22.2-40.6l-170-22.5z" fill="url(#I)"/><path d="M264.2 32.2l171 22.6c11 1.5 17.5 13.3 14.5 26.5L344.1 538.9c-3 13.2-14.5 22.7-25.5 21.3l-171-22.6c-11.1-1.5-17.5-13.3-14.5-26.5L238.7 53.5c3.1-13.2 14.5-22.7 25.5-21.3z" fill="#e8f1fa"/><mask id="A" maskUnits="userSpaceOnUse" x="131" y="32" width="321" height="528"><path d="M265.4 32.8l169.5 20.8a18.7 18.7 0 0 1 13.52 7.89 18.7 18.7 0 0 1 2.78 15.41L344 541.4c-2.6 11.4-14.2 19.5-25.8 18.1l-169.5-20.8a18.7 18.7 0 0 1-13.52-7.89 18.7 18.7 0 0 1-2.78-15.41L239.6 50.8c2.6-11.4 14.2-19.5 25.8-18z" class="B"/></mask><g mask="url(#A)"><path d="M265.4 32.8l169.5 20.8a18.7 18.7 0 0 1 13.52 7.89 18.7 18.7 0 0 1 2.78 15.41L344 541.4c-2.6 11.4-14.2 19.5-25.8 18.1l-169.5-20.8a18.7 18.7 0 0 1-13.52-7.89 18.7 18.7 0 0 1-2.78-15.41L239.6 50.8c2.6-11.4 14.2-19.5 25.8-18z" fill-opacity=".2" class="B"/><mask id="B" maskUnits="userSpaceOnUse" x="419" y="85" width="18" height="16"><path d="M422.6 85.4l14.1 1.7-3.2 13.9-14.1-1.8 3.2-13.8z" class="B"/></mask><g mask="url(#B)" class="E"><path d="M430.8 97.1l-.3 1.2-7.1-.9.3-1.2 7.1.9zm2.7-3.9l-.3 1.2-10.6-1.3.3-1.2 10.6 1.3zm-.8-4.2l-.3 1.2-7.1-.9.3-1.2 7.1.9z"/></g><mask id="C" maskUnits="userSpaceOnUse" x="399" y="82" width="18" height="17"><path d="M402.8 82.9l14.1 1.8-3.2 13.8-14.1-1.7 3.2-13.9z" class="B"/></mask><g mask="url(#C)"><path d="M414.3 88.2c-.3 1.1-1.4 1.9-2.5 1.8s-1.9-1.2-1.6-2.3 1.4-1.9 2.5-1.8c1.1.2 1.9 1.2 1.6 2.3zm-1.9 2.9h-.9c-.9-.1-1.6-.5-2.1-1.2s-.6-1.5-.4-2.4c.2-.8.7-1.6 1.4-2.1-.1-.1-.2-.3-.3-.4s-.3-.1-.5-.2c-.6-.1-1.3.4-1.4 1v.2a4.6 4.6 0 0 0-3.8 3.5l-.8 3.5-1.4 1-.1.6 10.6 1.3.1-.6-.9-1.3.5-2.9zm-5.6 6c.7.1 1.3-.4 1.4-1l-2.4-.3c-.1.3 0 .6.2.9.2.2.5.4.8.4z" fill="#000"/></g><path d="M392.7 86.3l-1 4.3v.1c-.1.3-.2.8-.8 1.4-.7.7-2 1.3-3.7 1.8-1.4-.9-2.3-1.8-2.7-2.6a2 2 0 0 1-.1-1.5v-.1l1-4.3 3.7.5 3.6.4zm.8-.6l-4.4-.5-4.4-.5-1.2 5c-.1.7-.7 2.6 3.4 5 5-1.3 5.2-3.2 5.4-3.9l1.2-5.1zM388 90l-.6-.1-.4 1.6-1.1-.1 1.1-4.6 1.9.2c.6.1 1 .2 1.2.5.3.3.3.6.2 1.1-.1.3-.2.6-.4.8s-.4.3-.7.4l.6 2-1.2-.2-.6-1.6zm-.4-1l.7.1c.2 0 .4 0 .5-.1s.2-.2.3-.4c0-.2 0-.4-.1-.5s-.2-.2-.4-.2l-.7-.1-.3 1.2zm3.2-5.6l-1-1.5-1.6 1.2-1.2-.7-.4 1.8 2.5.3 2.5.3.4-1.8-1.2.4z" class="C"/><mask id="D" maskUnits="userSpaceOnUse" x="359" y="78" width="18" height="16"><path d="M362.8 78l14.1 1.7-3.2 13.9-14.1-1.7 3.2-13.9z" class="B"/></mask><g mask="url(#D)" class="E"><path d="M371.2 88.9l1.9 2.8-1 .7-1.9-2.8c-1.1.6-2.4.9-3.6.7-2.9-.4-4.8-3-4.1-5.9a6 6 0 0 1 6.5-4.5c2.9.4 4.8 3 4.1 5.9-.3 1.2-.9 2.3-1.9 3.1zm-1.1-.6c.9-.7 1.6-1.6 1.8-2.7.5-2.2-.9-4.3-3.2-4.6a4.8 4.8 0 0 0-5.1 3.5c-.5 2.2.9 4.3 3.2 4.6a4.3 4.3 0 0 0 3.1-.8h.2z"/></g><path d="M320.1 85.2a7.1 7.1 0 0 1-1.7-.4c-.5-.2-.8-.5-1.1-.9-.2-.4-.4-1-.4-1.7a10.3 10.3 0 0 1 .4-2.7c.2-1 .5-1.9.9-2.5.3-.7.7-1.1 1.2-1.5.4-.3.9-.5 1.5-.6a5.4 5.4 0 0 1 1.8 0c.4.1.9.1 1.3.2l1.1.3c.4.1.6.2.9.3l-.3 1.3c-.2-.1-.4-.1-.7-.2s-.7-.1-1-.2c-.4-.1-.8-.1-1.2-.2a2.4 2.4 0 0 0-1.2 0c-.3.1-.7.2-.9.4-.3.2-.5.6-.7 1.1a14.5 14.5 0 0 0-.6 1.9c-.2.8-.3 1.4-.3 1.9s0 .9.2 1.2c.1.3.4.5.7.6a10.4 10.4 0 0 0 1.2.3l1.9.2h1.2l-.3 1.3c-.3 0-.6.1-1 .1h-1.2l-1.7-.2zM309.9 84c-.2 0-.5-.1-.8-.2a3 3 0 0 1-.8-.4c-.2-.2-.4-.4-.5-.7a2.4 2.4 0 0 1 0-1.2l1.4-5.9a3.7 3.7 0 0 1 .5-1.1c.2-.3.5-.5.7-.6.3-.1.6-.2.9-.2h.9l1.9.3c.5.1 1.1.2 1.5.2.5.1.9.2 1.3.2l-.3 1.4-4.3-.5c-.3 0-.6 0-.9.1-.2.1-.4.4-.5.7l-.4 1.8 4.7.7-.3 1.3-4.7-.5-.4 1.8c-.1.3-.1.5 0 .7s.2.3.3.4a.9.9 0 0 0 .5.1l4.3.5-.3 1.4c-.5 0-1 0-1.5-.1-.5 0-1.1-.1-1.6-.2-.6.1-1.1 0-1.6 0z" class="C"/><path d="M300.4 82.7c-.6-.1-1.1-.2-1.4-.4s-.5-.5-.6-.9 0-.9.1-1.5l.9-3.5-1.3-.2.3-1.1 1.4-.1.8-2 1.5.2-.5 2.1 2.1.3-.3 1.4-2.1-.3-.8 3.5c-.1.2-.1.4-.1.6s.1.3.1.4c.1.1.2.2.3.2.1.1.2.1.3.1l1 .2-.3 1.3-1.4-.3zm-7.4-.8l-1.3-.3c-.4-.2-.7-.4-.9-.7s-.4-.7-.4-1.3c-.1-.5 0-1.1.2-1.9.14-.66.38-1.3.7-1.9.3-.5.6-.8 1-1.1.4-.2.8-.4 1.2-.5a3.8 3.8 0 0 1 1.5 0c.5.1.9.1 1.4.2s.9.2 1.4.4l-.2 1-2.2-.3c-.5-.1-.9 0-1.2.1s-.6.3-.9.7c-.25.51-.45 1.05-.6 1.6-.2.7-.2 1.2-.1 1.6s.2.6.5.8.7.3 1.2.3l2.3.3-.2 1c-.3 0-.6.1-.9.1h-1.1c-.7 0-1-.1-1.4-.1zm-8-1a4.3 4.3 0 0 1-2-.6c-.5-.3-.8-.7-.9-1.3a6.5 6.5 0 0 1 .2-2.3c.2-1 .5-1.8.9-2.3s.8-.9 1.4-1c.6-.2 1.3-.2 2.2-.1.8.1 1.4.2 1.8.5.4.2.7.5.9.9.1.4.1.9 0 1.6-.1.5-.3.8-.6 1.1s-.6.4-1 .5a3.3 3.3 0 0 1-1.4 0l-2.4-.3c-.1.5-.1.8-.1 1.1.1.3.2.5.5.7s.7.3 1.3.3l2.5.3-.2 1h-1.4c-.5 0-1.1 0-1.7-.1zm-.8-4.4l2.2.3c.4 0 .6 0 .8-.1s.3-.3.4-.7c.1-.3.1-.6 0-.8s-.2-.3-.4-.4a2 2 0 0 0-.9-.2c-.4-.1-.8 0-1 .1-.3.1-.5.3-.7.6-.1.2-.2.6-.4 1.2zm-11.6 2.8l1.7-7.4 1.5.2.2.8c.4-.2.8-.3 1.4-.5.5-.1 1.1-.2 1.6-.1.6.1 1.1.3 1.4.5.3.3.5.6.6 1s.1.9-.1 1.3l-1.1 4.9-1.9-.2 1.1-4.7c.1-.3.1-.5 0-.7s-.2-.4-.4-.5-.4-.2-.7-.2h-.8c-.2 0-.5.1-.7.1-.2.1-.5.2-.7.3l-1.2 5.4-1.9-.2zm-9-1.1l1.7-7.4 1.5.2.2.8c.4-.2.8-.3 1.4-.5.5-.1 1.1-.2 1.6-.1.6.1 1.1.3 1.4.5.3.3.5.6.6 1s.1.9-.1 1.3l-1.1 4.9-1.9-.2L270 74c.1-.3.1-.5 0-.7s-.2-.4-.4-.5-.4-.2-.7-.2h-.8c-.2 0-.5.1-.7.1-.2.1-.5.2-.7.3l-1.2 5.4-1.9-.2zm-5.4-.6c-.6-.1-1.2-.2-1.6-.4s-.8-.4-1-.7-.4-.7-.4-1.2 0-1.1.2-1.9c.16-.65.36-1.28.6-1.9a5.3 5.3 0 0 1 .9-1.1c.4-.2.8-.4 1.3-.4.5-.1 1.1 0 1.7 0a5.3 5.3 0 0 1 1.6.4c.4.2.8.4 1 .7s.4.7.4 1.2 0 1.1-.2 1.9l-.6 1.8c-.2.5-.5.8-.9 1.1-.4.2-.8.4-1.3.5-.4.1-1 .1-1.7 0zm.3-1.4h.8c.2 0 .4-.1.6-.3.2-.1.4-.4.5-.7s.3-.8.4-1.3l.2-1.3c0-.3-.1-.6-.2-.8s-.3-.3-.5-.4-.5-.1-.8-.2h-.8c-.2 0-.4.1-.6.3-.2.1-.3.4-.5.7-.1.3-.3.7-.4 1.3a8.3 8.3 0 0 0-.2 1.3c0 .3.1.6.2.8s.3.3.5.4c.3.1.5.2.8.2zm-8.6.4a7.1 7.1 0 0 1-1.7-.4c-.5-.2-.8-.5-1.1-.9-.2-.4-.4-1-.4-1.7a10.3 10.3 0 0 1 .4-2.7c.2-1 .5-1.9.9-2.5.3-.7.7-1.1 1.2-1.5.4-.3.9-.5 1.5-.6a5.4 5.4 0 0 1 1.8 0c.4.1.9.1 1.3.2l1.1.3c.4.1.7.2.9.3l-.3 1.3c-.2-.1-.4-.1-.7-.2s-.7-.1-1-.2c-.4-.1-.8-.1-1.2-.2a2.4 2.4 0 0 0-1.2 0c-.3.1-.7.2-.9.4-.3.2-.5.6-.7 1.1-.24.62-.44 1.25-.6 1.9-.2.8-.3 1.4-.3 1.9s0 .9.2 1.2c.1.3.4.5.7.6.39.12.79.22 1.2.3l1.9.2h1.2l-.3 1.3c-.3 0-.6.1-1 .1h-1.2l-1.7-.2zm161.6-11.8c.2.2.2.6-.1.8l-6.7 5.7c-.6.5-1.4.4-1.7-.2l-3.7-7c-.1-.3 0-.6.3-.8 1-.5 3.5-1.5 6.4-1.1a9.9 9.9 0 0 1 5.5 2.6zm12.5.1c.4-.3 1 0 .9.5l-2 8.6c-.1.6-.8 1-1.4 1l-8.8-1.1c-.5-.1-.6-.7-.2-1l11.5-8zm13.9 1.8l.8.1c.5.1.8.5.7.9l-1.9 8.3c-.1.5-.6.8-1 .7l-5.1-.6c-.5-.1-.8-.5-.7-.9l1.9-8.3c.1-.5.6-.8 1-.7l.8.1.3-1.1 3.4.4-.2 1.1z" class="E"/><path opacity=".6" d="M262.8 44.9l-1.9 8.3-1.4-.2 1.5-6.6-2.2.4.3-1.1 3.5-.8h.2zm6.9 8.3l-.2 1.1-5.6-.7.2-.9 3.4-2.6c.4-.3.7-.6.9-.8s.4-.4.5-.6.2-.4.2-.6c.1-.3.1-.5 0-.7s-.2-.4-.3-.5l-.6-.3c-.3 0-.6 0-.8.1s-.4.3-.6.5-.3.5-.3.8l-1.4-.2a3.1 3.1 0 0 1 .6-1.3c.3-.4.7-.6 1.2-.8s1-.2 1.6-.2c.6.1 1 .2 1.4.5.3.2.6.5.7.9s.1.8 0 1.2c-.1.3-.2.5-.3.7s-.3.5-.5.7l-.7.7a5.5 5.5 0 0 0-.9.7l-2.3 1.7 3.8.6zm1.1.5c0-.2.2-.4.3-.5.2-.1.4-.2.6-.1.3 0 .4.1.5.3s.1.3.1.6c0 .2-.2.4-.3.5-.2.1-.4.2-.6.1-.2 0-.4-.1-.5-.3-.2-.2-.2-.4-.1-.6zm1.1-4.8c0-.2.2-.4.3-.5.2-.1.4-.2.6-.1.3 0 .4.1.5.3s.1.3.1.6c0 .2-.2.4-.3.5-.2.1-.4.2-.6.1-.2 0-.4-.1-.5-.3s-.2-.4-.1-.6zm4.4 1.3l.8.1c.3 0 .6 0 .8-.1s.4-.2.6-.4c.1-.2.3-.4.3-.6.1-.3.1-.5 0-.7 0-.2-.2-.4-.3-.5-.2-.1-.4-.2-.7-.2-.2 0-.5 0-.7.1l-.6.3c-.2.2-.3.4-.3.6l-1.4-.2c.1-.4.3-.8.6-1.1s.7-.5 1.1-.7c.5-.1.9-.2 1.4-.1s1 .2 1.4.4.6.5.8.9c.1.4.2.8 0 1.3l-.3.7-.6.6c-.3.2-.6.3-.9.4-.4.1-.7.1-1.2 0l-1-.1.2-.7zm-.2 1.1l.2-.7 1 .1 1.2.3c.3.2.6.3.7.6.2.2.3.5.3.7v.8c-.1.4-.2.7-.5 1-.2.3-.5.5-.8.7a3 3 0 0 1-1 .4c-.4.1-.8.1-1.2 0-.4 0-.7-.1-1-.3-.3-.1-.6-.3-.8-.5s-.4-.5-.5-.8a1.7 1.7 0 0 1 0-1l1.4.2c-.1.2 0 .5 0 .7.1.2.2.4.4.5s.4.2.7.2.6 0 .8-.1.4-.2.6-.4.3-.4.3-.7c.1-.3.1-.6 0-.8s-.2-.4-.4-.5-.5-.2-.8-.2l-.6-.2zm10.8.2l-.3 1.3c-.1.6-.3 1.2-.6 1.6-.2.4-.5.8-.8 1-.3.3-.6.4-1 .5s-.8.1-1.2.1c-.3 0-.6-.1-.9-.2s-.5-.3-.7-.5-.3-.5-.4-.8-.1-.7-.1-1.1.1-.9.2-1.4l.3-1.3c.1-.6.3-1.2.6-1.6.2-.4.5-.8.8-1 .3-.3.6-.4 1-.5s.8-.1 1.2-.1c.3 0 .6.1.9.2s.5.3.7.5.3.5.4.7c.1.3.1.6.1 1 0 .6-.1 1-.2 1.6zm-1.8 1.3l.4-1.7c.1-.3.1-.6.1-.9v-.7c0-.2-.1-.3-.2-.5l-.3-.3c-.1-.1-.3-.1-.5-.1s-.4 0-.6.1-.4.2-.5.3c-.2.2-.3.4-.4.7l-.3 1-.4 1.7c-.1.3-.1.6-.1.9v.7c0 .2.1.3.2.5l.3.3c.1.1.3.1.5.1s.4 0 .6-.1.4-.2.5-.3c.2-.2.3-.4.4-.7.1-.2.3-.6.3-1z" fill="#000"/><path d="M296.2 126.3l1-4.3 3 2.6-4 1.7zm66.3 8.1l1-4.3 3 2.6-4 1.7z" class="C"/><mask id="E" maskUnits="userSpaceOnUse" x="372" y="128" width="51" height="19"><path d="M375.1 128l47.4 5.8-2.9 12.4-47.4-5.8 2.9-12.4z" class="B"/></mask><g mask="url(#E)"><path d="M422.5 133.8l-34.7-4.3-1.8 7c-.6 1.9-2.9 3.3-6.8 4.7l40.4 5-1.8-6.5 4.7-5.9z" fill="url(#J)"/><path d="M389.8 133.8l1.6.2c.3 0 .6.1.8.3a1.2 1.2 0 0 1 .5.5c.1.2.1.5 0 .8-.1.2-.1.4-.3.6-.1.2-.3.3-.4.4-.2.1-.4.2-.6.2l-.3.1-1.4-.2.1-.7 1.1.1h.5c.1 0 .2-.1.3-.2s.1-.2.2-.4v-.4c0-.1-.1-.2-.2-.3s-.2-.1-.4-.1l-.8-.1-.9 3.8-.8-.1 1-4.5zm1.5 4.7l-.6-2.1.9.1.6 2.1-.9-.1zm1.6-1.4c.1-.3.2-.5.3-.7s.3-.4.4-.5.4-.2.6-.3.4-.1.7 0c.3 0 .5.1.6.2.2.1.3.2.4.4s.2.4.2.6v.7.1c-.1.2-.1.5-.3.7-.1.2-.3.4-.4.5l-.6.3c-.2.1-.4.1-.7 0-.2 0-.5-.1-.6-.2-.2-.1-.3-.2-.4-.4s-.2-.4-.2-.6v-.8zm.9 0c0 .2-.1.3-.1.5 0 .1 0 .2.1.3 0 .1.1.2.2.3s.2.1.3.1h.4c.1 0 .2-.1.3-.2s.2-.2.2-.3c.1-.1.1-.3.1-.4v-.1-.4c0-.1 0-.2-.1-.3 0-.1-.1-.2-.2-.3s-.2-.1-.3-.1h-.4c-.1 0-.2.1-.3.2s-.2.2-.2.3v.4zm4 1.7h.3c.1 0 .2-.1.3-.2s.1-.2.2-.3l.8.1-.3.6c-.2.2-.4.3-.6.4s-.5.1-.7.1c-.3 0-.5-.1-.6-.2-.2-.1-.3-.2-.4-.4s-.1-.4-.2-.6c0-.2 0-.4.1-.7v-.1c.1-.2.1-.4.2-.6s.2-.4.4-.5.3-.2.6-.3.4-.1.7 0c.3 0 .5.1.7.2s.3.3.4.5.1.4 0 .7l-.8-.1v-.3c0-.1-.1-.2-.2-.2-.1-.1-.2-.1-.3-.1h-.4c-.1 0-.2.1-.3.2s-.1.2-.2.3c0 .1-.1.2-.1.4v.1c0 .1-.1.3-.1.4v.3c0 .1.1.2.2.3 0-.1.1-.1.3 0zm3.7-3.8l-1.1 4.7-.8-.1 1.1-4.7.8.1zm1.7 1.6l-1.8 1.4-1 .7-.1-.7.8-.7 1.1-.9 1 .2zm-1.6 3.2l-.7-1.7.7-.5 1 2.2h-1zm3.4-.5v-.2c0-.1-.1-.1-.2-.2s-.2-.1-.4-.2-.3-.1-.4-.2-.2-.2-.3-.2c-.1-.1-.1-.2-.2-.3v-.4c0-.1.1-.3.2-.4l.3-.3c.1-.1.3-.1.5-.2h.6c.3 0 .5.1.7.2s.3.3.4.4c.1.2.1.4 0 .6l-.8-.1v-.2c0-.1-.1-.1-.1-.2-.1-.1-.2-.1-.3-.1h-.3c-.1 0-.2.1-.2.1-.1.1-.1.1-.1.2v.1s0 .1.1.1c0 0 .1.1.2.1s.2.1.3.1l.6.3c.2.1.3.2.4.4.1.1.1.3 0 .5 0 .1-.1.3-.2.4l-.3.3c-.1.1-.3.1-.5.2h-.6c-.3 0-.6-.1-.7-.3-.2-.1-.3-.3-.4-.5s-.1-.4 0-.5l.8.1v.3c0 .1.1.1.2.2.1 0 .2.1.3.1h.3c.1 0 .2-.1.2-.1-.2 0-.2 0-.1-.1zm3.5-2l-.1.6-1.9-.2.1-.6 1.9.2zm-1.2-1l.8.1-.7 3.1v.2c0 .1 0 .1.1.1 0 0 .1 0 .2.1h.1.1l-.1.6h-.2-.3c-.2 0-.3-.1-.5-.2l-.3-.3v-.6l.8-3.1zm3 3.9l.3-1.5v-.3c0-.1-.1-.2-.1-.2-.1-.1-.2-.1-.3-.1h-.3c-.1 0-.2.1-.2.1-.1.1-.1.1-.1.2l-.8-.1c0-.1.1-.3.2-.4s.2-.2.4-.3c.1-.1.3-.1.5-.2h.6c.3 0 .5.1.6.2.2.1.3.3.4.4.1.2.1.4 0 .7l-.3 1.4c0 .2-.1.3-.1.4v.3.1l-.8-.1v-.3c-.1-.1 0-.2 0-.3zm.4-1.3l-.1.5-.5-.1h-.3c-.1 0-.2 0-.3.1-.1 0-.1.1-.2.2 0 .1-.1.1-.1.2v.2c0 .1.1.1.1.2.1 0 .1.1.2.1h.4c.1 0 .2-.1.3-.2s.1-.1.1-.2l.2.4c0 .1-.1.2-.2.2-.1.1-.2.2-.3.2-.1.1-.2.1-.4.2h-.5c-.2 0-.4-.1-.6-.2s-.3-.2-.3-.4c-.1-.2-.1-.3 0-.5 0-.2.1-.3.2-.4s.2-.2.4-.3.3-.1.5-.2h.7.7zm2.4-.4l-.6 2.6-.8-.1.8-3.3.8.1-.2.7zm1.2-.5l-.2.7h-.2-.2-.3c-.1 0-.2.1-.3.1l-.2.2c-.1.1-.1.2-.1.3h-.2c0-.2.1-.4.2-.6s.2-.3.3-.4.2-.2.4-.3c.1-.1.3-.1.5-.1h.1c.1 0 .1.1.2.1z" class="B"/></g><path d="M386.1 127.9l-1.6 6.8c0 .1 0 .1-.1.2-.1.5-.3 1.3-1.2 2.1-1.2 1.1-3.1 2-5.9 2.8-2.2-1.4-3.7-2.7-4.3-4.1-.5-1-.3-1.8-.2-2.3v-.2l1.6-6.8 5.8.7 5.9.8h0zm1.4-.9l-6.9-.9-6.9-.9-1.8 7.9c-.2 1.1-1.2 4 5.3 7.9 7.9-2.1 8.2-5 8.6-6.1l1.7-7.9h0zm-8.7 6.9l-1-.1-.6 2.6-1.8-.2 1.7-7.3 2.9.4c.9.1 1.5.4 1.9.8s.5 1 .4 1.7c-.1.5-.3.9-.6 1.2s-.7.5-1.2.7l.9 3.1v.1l-1.9-.2-.7-2.8zm-.7-1.5l1.1.1c.3 0 .6 0 .8-.2s.4-.4.4-.7c.1-.3 0-.6-.1-.8s-.4-.3-.7-.4l-1.1-.1-.4 2.1zm5-9.1l-1.4-2.2-2.3 1.7-1.7-.9-.6 2.5 3.8.5 3.8.5.6-2.5-2.2.4z" fill="#044aa0"/><mask id="F" maskUnits="userSpaceOnUse" x="305" y="119" width="52" height="20"><path d="M308.7 119.8l47.4 5.8-2.8 12.5-47.4-5.9 2.8-12.4z" class="B"/></mask><g mask="url(#F)"><path d="M356.1 125.6l-34.7-4.3-1.6 6.8c-1.2 2.4-4.9 4.7-7.6 4.8l41.1 5-1.7-6.7 4.5-5.6z" fill="url(#K)"/><path d="M323.8 125.7l.7.1.5 3.5 2-3.2.7.1-2.7 4.2-.6-.1-.6-4.6zm-.4 0l.7.1-.6 3.1-.3 1.4-.8-.1 1-4.5zm4 .4l.7.1-1 4.4-.8-.1.3-1.4.8-3zm2.5 4.2l.3-1.5v-.3c0-.1-.1-.2-.1-.2-.1-.1-.2-.1-.3-.1h-.3c-.1 0-.2.1-.2.1-.1.1-.1.1-.1.2l-.8-.1c0-.1.1-.3.2-.4s.2-.2.4-.3c.1-.1.3-.1.5-.2h.6c.3 0 .5.1.6.2.2.1.3.3.4.4.1.2.1.4 0 .7l-.3 1.4c0 .2-.1.3-.1.4v.3.1l-.8-.1v-.3c-.1-.1-.1-.2 0-.3zm.4-1.3l-.1.5-.5-.1h-.3c-.1 0-.2 0-.3.1-.1 0-.1.1-.2.2 0 .1-.1.1-.1.2v.2c0 .1.1.1.1.2.1 0 .1.1.2.1h.4c.1 0 .2-.1.3-.2s.1-.2.2-.2l.2.4c0 .1-.1.2-.2.2-.1.1-.2.2-.3.2-.1.1-.2.1-.4.2h-.5c-.2 0-.4-.1-.6-.2s-.3-.2-.3-.4c-.1-.2-.1-.3 0-.5 0-.2.1-.3.2-.4s.2-.2.4-.3.3-.1.5-.1h.7l.6-.1zm3 1.5v-.2c0-.1-.1-.1-.2-.2s-.2-.1-.4-.2-.3-.1-.4-.2-.2-.2-.3-.2c-.1-.1-.1-.2-.2-.3v-.4c0-.1.1-.3.2-.4l.3-.3c.1-.1.3-.1.5-.2h.6c.3 0 .5.1.7.2s.3.3.4.4c.1.2.1.4 0 .6l-.8-.1v-.2c0-.1-.1-.1-.1-.2-.1-.1-.2-.1-.3-.1h-.3c-.1 0-.2.1-.2.1-.1.1-.1.1-.1.2v.1s0 .1.1.1c0 0 .1.1.2.1s.2.1.3.1l.6.3c.2.1.3.2.4.4.1.1.1.3 0 .5 0 .1-.1.3-.2.4l-.3.3c-.1.1-.3.1-.5.2h-.6c-.3 0-.6-.1-.7-.3-.2-.1-.3-.3-.4-.5s-.1-.4 0-.5l.8.1v.3c0 .1.1.1.2.2.1 0 .2.1.3.1h.3c.1 0 .2-.1.2-.1-.1 0-.1 0-.1-.1zm3.6-2l-.1.6-1.9-.2.1-.6 1.9.2zm-1.3-1l.8.1-.7 3.1v.2c0 .1 0 .1.1.1 0 0 .1 0 .2.1h.1.1l-.1.6h-.2-.3c-.2 0-.3-.1-.5-.1l-.3-.3v-.6l.8-3.2zm2.5 4.6c-.3 0-.5-.1-.7-.2s-.3-.2-.4-.4-.2-.3-.2-.5v-.6-.1c.1-.3.1-.5.3-.7.1-.2.3-.4.4-.5l.6-.3c.2-.1.4-.1.7 0 .2 0 .4.1.6.2s.3.2.4.4.1.3.2.5c0 .2 0 .4-.1.7l-.1.3-2.6-.3.1-.6 1.8.2v-.1-.4c0-.1-.1-.2-.2-.3s-.2-.1-.3-.1h-.3c-.1 0-.2.1-.3.2s-.1.2-.2.3-.1.3-.1.4v.1.4c0 .1 0 .2.1.3s.1.2.2.2c.1.1.2.1.3.1h.5c.2-.1.3-.1.4-.2l.3.5c-.1.1-.2.2-.4.3-.1.1-.3.1-.5.2h-.5zm3.4-2.4l-.6 2.6-.8-.1.8-3.3.8.1-.2.7zm1.1-.5l-.2.7h-.1-.2-.3c-.1 0-.2.1-.3.1l-.2.2c-.1.1-.1.2-.1.3h-.2c0-.2.1-.4.2-.6s.2-.3.3-.4.2-.2.4-.3c.1-.1.3-.1.5-.1h.1c.1 0 .1 0 .1.1z" class="B"/></g><path d="M319.8 119.8l-1.6 6.8c0 .1 0 .1-.1.2-.1.5-.3 1.3-1.2 2.1-1.2 1.1-3.1 2-5.9 2.8-2.2-1.4-3.7-2.7-4.3-4.1-.5-1-.3-1.8-.2-2.3v-.2l1.6-6.8 5.8.7 5.9.8zm1.4-1l-6.9-.9-6.9-.9-1.8 7.9c-.2 1.1-1.2 4 5.3 7.9 7.9-2.1 8.2-5 8.6-6.1l1.7-7.9zm-10.8 1.8l1.3.2.4 4.6 2.5-4.3 1.3.2-3.7 6.1-1-.1-.8-6.7zm-.7-.1l1.3.2-.9 4.9-.3 1.5-1.6-.2 1.5-6.4zm5.7.7l1.3.2-1.5 6.4-1.6-.2.3-1.5 1.5-4.9z" class="C"/><mask id="G" maskUnits="userSpaceOnUse" x="239" y="111" width="51" height="19"><path d="M242.4 111.7l47.4 5.8-2.9 12.4-47.4-5.8 2.9-12.4z" class="B"/></mask><g mask="url(#G)"><path d="M289.8 117.5l-34.7-4.3s-.8 6.3-2.5 8a13.8 13.8 0 0 1-6.7 3.6l41.1 5-1.8-6.5 4.6-5.8z" fill="url(#L)"/><path d="M259.2 121.6l-.2.7-2.4-.3.2-.7 2.4.3zm-1.3-4l-1 4.4-.8-.1 1-4.4.8.1zm1.4 2.1l-.1.6-2.1-.3.1-.6 2.1.3zm.8-1.8l-.2.7-2.4-.3.2-.7 2.4.3zm.9 1.2l.4 1.1.8-1 .9.1-1.4 1.5.6 1.8-.9-.1-.4-1.2-.9 1-.9-.1 1.4-1.5-.6-1.7 1 .1zm3.2 1.1l-.9 3.9-.8-.1 1-4.5.8.1-.1.6zm1.9 1.2c-.1.3-.1.5-.3.7-.1.2-.2.4-.4.5-.1.1-.3.2-.5.3s-.4.1-.6.1-.4-.1-.5-.2-.2-.2-.3-.4-.1-.3-.1-.5v-.6-.2l.3-.6c.1-.2.2-.3.4-.5.1-.1.3-.2.5-.3s.4-.1.6-.1.4.1.5.2.3.2.3.4.1.3.1.6c.1.1.1.4 0 .6zm-.8 0c0-.2.1-.3.1-.5v-.3c0-.1-.1-.2-.2-.2-.1-.1-.2-.1-.3-.1h-.3c-.1 0-.2.1-.3.1s-.1.2-.2.2c-.1.1-.1.2-.1.3l-.1.5v.4c0 .1.1.2.2.3s.2.1.4.2h.3c.1 0 .2-.1.3-.2s.1-.2.2-.3c-.1-.1-.1-.3 0-.4zm2.5 2c-.3 0-.5-.1-.7-.2s-.3-.2-.4-.4-.2-.3-.2-.5v-.6-.1c.1-.3.1-.5.3-.7.1-.2.3-.4.4-.5l.6-.3c.2-.1.4-.1.7 0 .2 0 .4.1.6.2s.3.2.4.4.1.3.2.5c0 .2 0 .4-.1.7l-.1.3-2.6-.3.1-.6 1.8.2v-.1-.4c0-.1-.1-.2-.2-.3s-.2-.1-.3-.1h-.3c-.1 0-.2.1-.3.2s-.1.2-.2.3-.1.3-.1.4v.1.4c0 .1 0 .2.1.3s.1.2.2.2c.1.1.2.1.3.1h.5c.2 0 .3-.1.4-.2l.3.5c-.1.1-.2.2-.4.3-.1.1-.3.1-.5.2h-.5zm3.3-2.3l-.6 2.6-.8-.1.8-3.3.8.1-.2.7zm1.2-.6l-.2.7h-.1-.2-.3c-.1 0-.2.1-.3.1l-.2.2c-.1.1-.1.2-.1.3h-.2c0-.2.1-.4.2-.6s.2-.3.3-.4.2-.2.4-.3c.1-.1.3-.1.5-.1h.1c0 .1.1.1.1.1zm2.2.3l-.1.6-1.9-.2.1-.6 1.9.2zm-1.2-1l.8.1-.7 3.1v.2c0 .1 0 .1.1.1 0 0 .1 0 .2.1h.1.1l-.1.6h-.2-.3c-.2 0-.3-.1-.5-.2l-.3-.3v-.6l.8-3.1z" class="B"/></g><path d="M253.6 111.6l-1.6 6.8c0 .1 0 .1-.1.2-.1.5-.3 1.3-1.2 2.1-1.2 1.1-3.1 2-5.9 2.8-2.2-1.4-3.7-2.7-4.3-4.1-.5-1-.3-1.8-.2-2.3v-.2l1.6-6.8 5.8.7 5.9.8zm1.4-.9l-6.9-.9-6.9-.9-1.8 7.9c-.2 1.1-1.2 4 5.3 7.9 7.9-2.1 8.2-5 8.6-6.1l1.7-7.9zm-6.9 8.6l-.3 1.3-4.2-.5.3-1.3 4.2.5zm-2.2-6.6l-1.7 7.5-1.8-.2 1.7-7.5 1.8.2zm2.4 3.4l-.3 1.3-3.7-.4.3-1.3 3.7.4zm1.2-3l-.3 1.3-4.2-.5.3-1.3 4.2.5z" fill="#589aeb"/><path d="M209.9 296.1l170.3 24c5.2.7 8.5 5.5 7.3 10.6l-19 82.3c-1.2 5.1-6.4 8.7-11.6 8l-170.3-24c-5.2-.7-8.5-5.5-7.3-10.6l19-82.3c1.2-5.2 6.4-8.8 11.6-8z" class="D"/><path d="M207.6 292.7l170.3 24c5.2.7 8.5 5.5 7.3 10.6l-19 82.2c-1.2 5.1-6.4 8.7-11.6 8l-170.3-24c-5.2-.7-8.5-5.5-7.3-10.6l19-82.2c1.2-5.1 6.4-8.7 11.6-8z" class="B"/><path d="M253.1 352.9c-3.3 14.3-17.8 24.3-32.3 22.2-14.6-2-23.7-15.3-20.4-29.6s17.8-24.3 32.3-22.2c14.6 2 23.7 15.3 20.4 29.6zm-44.8-6.3c-2.3 10 4.1 19.3 14.3 20.7s20.3-5.5 22.6-15.6c2.3-10-4.1-19.3-14.3-20.7-10.1-1.4-20.2 5.6-22.6 15.6z" class="D"/><path d="M233.3 321.1c.2-.8 1-1.4 1.8-1.2 3.4.7 6.6 1.9 9.5 3.6a28.1 28.1 0 0 1 8.3 7.8c2.2 3.1 3.6 6.7 4.3 10.5.6 3.3.6 6.8 0 10.2-.1.8-1 1.4-1.8 1.3l-10.5-1.5c-.8-.1-1.3-.9-1.2-1.7.2-1.7.2-3.3-.1-4.9a14.9 14.9 0 0 0-2.4-5.8 14.6 14.6 0 0 0-4.6-4.3c-1.4-.8-2.9-1.5-4.6-1.9-.8-.2-1.3-.9-1.1-1.8l2.4-10.3zm-8.6 27.8l-.2 1c-.1.4-.2.8-.4 1.1s-.4.5-.6.7-.5.3-.7.4c-.26.1-.54.1-.8 0-.2 0-.4-.1-.6-.2s-.3-.2-.5-.4c-.1-.2-.2-.3-.3-.5s-.1-.5-.1-.7c0-.3 0-.6.1-1l.2-1c.1-.4.2-.8.4-1.1s.4-.5.6-.7.5-.3.7-.3a1.1 1.1 0 0 1 .8 0c.2 0 .4.1.6.2s.3.2.5.4c.1.1.2.3.3.5a1.7 1.7 0 0 1 .1.7c0 .2 0 .5-.1.9zm-1.3 1l.3-1.3c.1-.2.1-.4.1-.6v-.4c0-.1-.1-.2-.1-.3-.1-.1-.1-.2-.2-.2s-.2-.1-.3-.1h-.4c-.1 0-.2.1-.3.2s-.2.3-.3.4c-.1.2-.2.4-.2.7l-.3 1.3c-.1.2-.1.4-.1.6v.4c0 .1.1.2.1.3.1.1.1.2.2.2s.2.1.3.1h.4c.1 0 .2-.1.3-.2s.2-.3.3-.4c0-.2.1-.5.2-.7zm5.5 2.2l-.2.8-4-.6.2-.7 2.4-1.8c.22-.14.42-.31.6-.5.2-.1.3-.3.3-.4.1-.1.1-.3.2-.4v-.5c0-.1-.1-.3-.2-.4s-.2-.1-.4-.2c-.2 0-.4 0-.5.1-.2.1-.3.2-.4.3s-.2.3-.2.5l-1.1-.2c.1-.3.2-.6.5-.9.2-.3.5-.5.9-.6.3-.1.7-.2 1.1-.1l1 .3c.3.2.4.4.5.6.1.3.1.6 0 .9 0 .2-.1.4-.2.5-.1.2-.2.3-.4.5l-.5.5c-.2.2-.4.3-.6.5l-1.4 1.1 2.4.7zm5.2-1.9l-.2 1c-.1.4-.2.8-.4 1.1s-.4.5-.6.7-.5.3-.7.4c-.26.1-.54.1-.8 0-.2 0-.4-.1-.6-.2s-.3-.2-.5-.4c-.1-.1-.2-.3-.3-.5s-.1-.5-.1-.7c0-.3 0-.6.1-1l.2-1c.1-.4.2-.8.4-1.1s.4-.5.6-.7.5-.3.7-.3a1.1 1.1 0 0 1 .8 0c.2 0 .4.1.6.2s.3.2.5.4c.1.1.2.3.3.5a1.7 1.7 0 0 1 .1.7c.1.2 0 .6-.1.9zm-1.3 1l.3-1.3c.1-.2.1-.4.1-.6v-.4c0-.1-.1-.2-.1-.3-.1-.1-.1-.2-.2-.2s-.2-.1-.3-.1h-.4c-.1 0-.2.1-.3.2s-.2.3-.3.4c-.1.2-.2.4-.2.7l-.3 1.3c-.1.2-.1.4-.1.6v.4c0 .1.1.2.1.3.1.1.1.2.2.2s.2.1.3.1h.4c.1 0 .2-.1.3-.2s.2-.3.3-.4c.1-.2.2-.4.2-.7z" class="C"/><path d="M357 367.6c-3.3 14.3-17.8 24.3-32.3 22.2-14.6-2-23.7-15.3-20.4-29.6s17.8-24.3 32.3-22.2c14.6 2 23.7 15.2 20.4 29.6zm-44.8-6.3c-2.3 10 4.1 19.3 14.3 20.7s20.3-5.5 22.6-15.6c2.3-10-4.1-19.3-14.3-20.7-10.1-1.4-20.3 5.5-22.6 15.6z" class="D"/><path d="M337.2 335.7c.2-.8 1-1.4 1.8-1.2 3.4.7 6.6 1.9 9.5 3.6a28.1 28.1 0 0 1 8.3 7.8c2.2 3.1 3.6 6.7 4.3 10.5a28.9 28.9 0 0 1-.3 11.7c-.94 3.94-2.6 7.67-4.9 11-2.3 3.4-5.3 6.3-8.7 8.7s-7.3 4.1-11.2 5a31.1 31.1 0 0 1-10.5.8c-.8-.1-1.4-.8-1.2-1.7l2.4-10.4c.2-.8 1-1.4 1.9-1.3 1.72.08 3.43-.09 5.1-.5 2.2-.5 4.3-1.5 6.2-2.8s3.5-2.9 4.8-4.8 2.2-3.9 2.7-6.1c.5-2.1.6-4.3.2-6.4a14.9 14.9 0 0 0-2.4-5.8 14.6 14.6 0 0 0-4.6-4.3c-1.4-.8-2.9-1.5-4.6-1.9-.8-.2-1.3-.9-1.1-1.8l2.3-10.1zm-8.6 27.8l-.2 1c-.1.4-.2.8-.4 1.1s-.4.5-.6.7-.5.3-.7.4c-.26.1-.54.1-.8 0-.2 0-.4-.1-.6-.2s-.3-.2-.5-.4c-.1-.2-.2-.3-.3-.5s-.1-.5-.1-.7c0-.3 0-.6.1-1l.2-1c.1-.4.2-.8.4-1.1s.4-.5.6-.7.5-.3.7-.3a1.1 1.1 0 0 1 .8 0c.2 0 .4.1.6.2s.3.2.5.3c.1.1.2.3.3.5.08.22.12.46.1.7a3.4 3.4 0 0 1-.1 1zm-1.4 1l.3-1.3c.1-.2.1-.4.1-.6v-.4c0-.1-.1-.2-.1-.3-.1-.1-.1-.2-.2-.2s-.2-.1-.3-.1h-.4c-.1 0-.2.1-.3.2s-.2.3-.3.4c-.1.2-.2.4-.2.7l-.3 1.3c-.1.2-.1.4-.1.6v.4c0 .1.1.2.1.3.1.1.1.2.2.2s.2.1.3.1h.4c.1 0 .2-.1.3-.2s.2-.3.3-.4c.1-.2.2-.4.2-.7zm3.4-.7l.6.1h.5c.2-.1.3-.1.4-.3.1-.1.2-.3.2-.4v-.4c0-.1-.1-.2-.2-.3s-.3-.1-.5-.2h-.5c-.1 0-.3.1-.4.2s-.2.2-.2.4l-1.1-.2c.1-.3.2-.6.4-.8s.5-.4.8-.5.7-.1 1-.1l1 .3a1.7 1.7 0 0 1 .6.6c.1.3.1.6 0 .9 0 .2-.1.3-.2.5s-.3.3-.5.4-.4.2-.7.2c-.2 0-.5.1-.8 0l-.8-.1.4-.3zm-.2.8l.1-.6.8.1c.3 0 .6.1.8.2s.4.2.5.4.2.3.2.5v.6c-.1.3-.2.5-.3.7-.2.2-.3.4-.6.5-.2.1-.5.2-.7.2h-.8c-.2 0-.5-.1-.7-.2s-.4-.2-.6-.4-.3-.4-.3-.6c-.1-.2-.1-.5 0-.8l1.1.2v.4c.1.1.1.2.3.3.1.1.3.1.5.2h.5c.2-.1.3-.1.4-.3.1-.1.2-.3.2-.5.1-.2 0-.4 0-.5-.1-.1-.1-.3-.3-.3-.1-.1-.3-.1-.5-.2l-.6.1zm7.6.2l-.2 1c-.1.4-.2.8-.4 1.1s-.4.5-.6.7-.5.3-.7.4a1.1 1.1 0 0 1-.8 0c-.2 0-.4-.1-.6-.2s-.3-.2-.5-.4c-.1-.1-.2-.3-.3-.5s-.1-.5-.1-.7c0-.3 0-.6.1-1l.2-1c.1-.4.2-.8.4-1.1s.4-.5.6-.7.5-.3.7-.3c.26-.1.54-.1.8 0 .2 0 .4.1.6.2s.3.2.5.4c.1.1.2.3.3.5.08.22.12.46.1.7 0 .3 0 .6-.1.9zm-1.3 1l.3-1.3c.1-.2.1-.4.1-.6v-.4c0-.1-.1-.2-.1-.3l-.2-.2c-.1 0-.2-.1-.3-.1h-.4c-.1 0-.2.1-.3.2s-.2.3-.3.4c-.1.2-.2.4-.2.7l-.3 1.3c-.1.2-.1.4-.1.6v.4c0 .1.1.2.1.3.1.1.1.2.2.2s.2.1.3.1h.4c.1 0 .2-.1.3-.2s.2-.3.3-.4c.1-.2.1-.4.2-.7z" class="C"/><path d="M181.8 412.3l167.5 23.6c5.1.7 8.4 5.4 7.2 10.5l-18.1 78.4c-1.2 5.1-6.3 8.6-11.4 7.8L159.5 509c-5.1-.7-8.4-5.4-7.2-10.5l18.1-78.4c1.1-5 6.3-8.5 11.4-7.8z" class="D"/><path d="M179.6 409l167.5 23.6c5.1.7 8.4 5.4 7.2 10.5l-18.1 78.4c-1.2 5.1-6.3 8.6-11.4 7.8l-167.5-23.6c-5.1-.7-8.4-5.4-7.2-10.5l18.1-78.4c1.1-5 6.2-8.5 11.4-7.8z" class="B"/><path d="M180.6 424.4l-.1.3a3 3 0 0 1-.4 1c-.2.3-.4.5-.6.7s-.5.3-.8.4-.6.1-.9 0c-.3 0-.6-.1-.8-.3-.2-.1-.4-.3-.5-.6a6.9 6.9 0 0 1-.3-.8c0-.3 0-.6.1-1l.1-.3a3 3 0 0 1 .4-1c.2-.3.4-.5.6-.7s.5-.3.8-.4.6-.1.9 0c.3 0 .6.1.8.3.2.1.4.3.5.6.1.2.2.5.2.8.1.3.1.6 0 1zm-.9.1l.1-.3c.1-.3.1-.5.1-.7s0-.4-.1-.6-.2-.3-.3-.4-.3-.2-.5-.2h-.5c-.2.1-.3.1-.5.3-.1.1-.3.3-.4.5s-.2.4-.2.7l-.1.3c-.1.3-.1.5-.1.7s0 .4.1.6.2.3.3.4.3.2.5.2h.5c.2-.1.3-.1.4-.3.1-.1.3-.3.4-.5.2-.2.2-.4.3-.7zm2.2 2.7l-.8-.1.9-4c.1-.3.2-.5.3-.7s.3-.3.5-.4.5-.1.7 0c.1 0 .2 0 .2.1.1 0 .2 0 .2.1l-.2.6h-.1-.2-.3c-.1 0-.2.1-.2.2-.1.1-.1.2-.1.3l-.9 3.9zm1.6-3.5l-.1.6-2.1-.3.1-.6 2.1.3zm.9 3.9l-.8-.1.9-4c.1-.3.2-.5.3-.7s.3-.3.5-.4.5-.1.7 0c.1 0 .2 0 .2.1.1 0 .2 0 .2.1l-.2.6h-.1-.2-.3c-.1 0-.2.1-.2.2-.1.1-.1.2-.1.3l-.9 3.9zm1.6-3.6l-.1.6-2.1-.3.1-.6 2.1.3zm1.3 4c-.3 0-.5-.1-.7-.2a1.2 1.2 0 0 1-.5-.5c-.1-.2-.2-.4-.2-.6v-.7-.1l.3-.8a1.2 1.2 0 0 1 .5-.5l.6-.3c.2-.1.5-.1.7 0 .3 0 .5.1.7.2s.3.3.4.4c.1.2.2.4.2.6s0 .5-.1.7l-.1.3-2.8-.4.1-.6 2 .3v-.1-.4c0-.1-.1-.2-.2-.3s-.2-.2-.4-.2h-.4c-.1 0-.2.1-.3.2s-.2.2-.3.4c-.1.1-.1.3-.2.5v.1.5c0 .1.1.3.1.4.1.1.1.2.3.3.1.1.2.1.4.1h.6c.2-.1.3-.1.5-.3l.3.5c-.1.1-.2.2-.4.3-.1.1-.3.1-.5.2s-.4.1-.6 0zm3.6-2.5l-.7 2.9-.8-.1.8-3.6.8.1-.1.7zm1.3-.6l-.2.8h-.2-.2-.4c-.1 0-.2.1-.3.1-.1.1-.2.1-.2.2-.1.1-.1.2-.1.3h-.2c.1-.2.1-.4.2-.6s.2-.4.3-.5.3-.2.4-.3c.2-.1.3-.1.5-.1h.2c.1.1.2.1.2.1zm4.4 3.1v-.3c0-.1 0-.2-.1-.2-.1-.1-.2-.2-.3-.2-.1-.1-.3-.2-.5-.3l-.6-.3c-.2-.1-.3-.2-.4-.4-.1-.1-.2-.3-.3-.5v-.6c0-.2.1-.4.3-.5.1-.2.3-.3.5-.4s.4-.2.6-.2h.7c.4.1.7.2.9.3.2.2.4.4.5.6s.1.5 0 .8l-.8-.1v-.4c0-.1-.1-.2-.2-.3s-.3-.2-.5-.2h-.5c-.1 0-.3.1-.4.2s-.1.2-.2.3v.3c0 .1.1.2.1.2.1.1.2.1.3.2s.3.1.4.2c.3.1.5.2.7.4.2.1.3.3.4.4s.2.3.2.5v.5c0 .2-.1.4-.3.5-.1.2-.3.3-.5.4s-.4.2-.6.2h-.7c-.2 0-.5-.1-.7-.2s-.4-.2-.6-.4-.3-.3-.3-.5c-.1-.2-.1-.4 0-.7l.9.1v.4c0 .1.1.2.2.3s.2.2.3.2c.1.1.3.1.4.1h.5c.2 0 .3-.1.4-.2.1 0 .2-.1.2-.2zm3.8-1.9l-.1.6-2.1-.3.1-.6 2.1.3zm-1.3-1.1l.8.1-.8 3.5v.3c0 .1.1.1.1.1.1 0 .1 0 .2.1h.2.1l-.1.6h-.3-.3c-.2 0-.3-.1-.5-.2-.1-.1-.2-.2-.3-.4v-.6l.9-3.5zm3.3 4.4l.4-1.7v-.3c0-.1-.1-.2-.2-.2-.1-.1-.2-.1-.3-.1h-.4c-.1 0-.2.1-.3.1-.1.1-.1.2-.1.2l-.8-.1c0-.1.1-.3.2-.4s.2-.2.4-.3.3-.1.5-.2.4 0 .6 0c.3 0 .5.1.7.2s.3.3.4.5.1.4 0 .7l-.4 1.6c0 .2-.1.3-.1.5v.4.1l-.8-.1v-.3c.1-.4.2-.5.2-.6zm.5-1.5l-.1.5-.6-.1h-.4c-.1 0-.2 0-.3.1s-.2.1-.2.2c-.1.1-.1.2-.1.2v.3c0 .1.1.2.2.2.1.1.2.1.3.1h.5c.1-.1.3-.1.4-.2s.2-.2.2-.3l.2.4c0 .1-.1.2-.2.3l-.3.3c-.1.1-.3.1-.4.2h-.5c-.2 0-.4-.1-.6-.2s-.3-.3-.4-.4c-.1-.2-.1-.4 0-.6 0-.2.1-.4.2-.5s.2-.2.4-.3.4-.1.6-.2h.7.4zm3.5-1l-.1.6-2.1-.3.1-.6 2.1.3zm-1.2-1.1l.8.1-.8 3.5v.3c0 .1.1.1.1.1.1 0 .1 0 .2.1h.2.1l-.1.6h-.3-.3c-.2 0-.3-.1-.5-.2-.1-.1-.2-.2-.3-.4v-.6l.9-3.5zm3.5 4.3l.6-2.8.8.1-.8 3.6-.8-.1.2-.8zm.2-.7h.3c-.1.2-.1.5-.2.7s-.2.4-.4.5c-.1.1-.3.2-.5.3s-.4.1-.7 0c-.2 0-.3-.1-.5-.1l-.3-.3c-.1-.1-.1-.3-.2-.5 0-.2 0-.4.1-.6l.5-2.3.8.1-.5 2.4v.3c0 .1 0 .2.1.2 0 .1.1.1.2.1s.1.1.2.1c.2 0 .4 0 .6-.1s.3-.2.4-.3c0-.2.1-.3.1-.5zm3.5 1.1v-.2c0-.1-.1-.1-.2-.2s-.3-.1-.5-.2-.4-.1-.5-.2-.3-.2-.4-.3-.2-.2-.2-.3v-.4c0-.1.1-.3.2-.4s.2-.2.4-.3c.1-.1.3-.1.5-.2h.6c.3 0 .6.1.8.3.2.1.3.3.4.5s.1.4 0 .6l-.8-.1v-.3c0-.1-.1-.2-.2-.2-.1-.1-.2-.1-.4-.1h-.4c-.1 0-.2.1-.2.1-.1.1-.1.1-.1.2v.2s0 .1.1.1c0 0 .1.1.2.1s.2.1.4.1c.3.1.5.2.7.3s.3.3.4.4c.1.2.1.3 0 .6 0 .2-.1.3-.2.4s-.2.2-.4.3-.3.1-.5.2h-.6c-.3 0-.6-.1-.8-.3s-.3-.3-.4-.5-.1-.4 0-.6l.8.1v.4c.1.1.1.2.2.2.1.1.2.1.3.1h.4c.1 0 .2-.1.3-.1.1-.1.1-.2.1-.3z" class="E"/><path d="M229.3 426.2l-1.7 7.3-1.2-.2 1.4-5.9-2 .4.2-1 3.1-.6h.2zm7.5 1.1l-.2.7-4.5 6.2-1.3-.2 4.4-5.9-3.9-.5.2-1 5.3.7zm1.4 4.2l-.9-.4 1.3-3.6 4 .6-.2 1-3-.4-.6 1.8c.1-.1.3-.1.5-.1h.7c.4.1.7.2.9.3a.9.9 0 0 1 .6.6c.12.26.22.53.3.8 0 .3 0 .7-.1 1s-.2.6-.4.9-.4.5-.6.7c-.3.2-.5.3-.9.4-.3.1-.7.1-1.1 0-.3 0-.6-.1-.9-.3-.3-.1-.5-.3-.7-.5s-.3-.5-.4-.7c-.1-.3-.1-.6 0-.9l1.2.2c0 .2 0 .5.1.6.1.2.2.3.3.4.2.1.3.2.6.2h.6c.2-.1.3-.1.4-.3.1-.1.2-.3.3-.5s.2-.4.2-.6.1-.4 0-.6c0-.2-.1-.4-.1-.5-.1-.1-.2-.3-.3-.4s-.3-.2-.6-.2h-.7c-.2.3-.3.4-.5.5z" class="C"/><path d="M208.4 467.4c-2.3 10.1-12.5 17.1-22.8 15.6a16.8 16.8 0 0 1-11.9-7.2 16.8 16.8 0 0 1-2.4-13.7c2.4-10.1 12.5-17.1 22.8-15.6 10.2 1.5 16.6 10.9 14.3 20.9zm-31.6-4.4a11.8 11.8 0 0 0 1.71 9.56 11.8 11.8 0 0 0 8.29 5.04 14.5 14.5 0 0 0 15.9-11 11.8 11.8 0 0 0-1.71-9.56 11.8 11.8 0 0 0-8.29-5.04c-7.1-1-14.2 3.9-15.9 11z" class="D"/><path d="M194.4 445c.1-.6.7-1 1.3-.9a19.5 19.5 0 0 1 6.7 2.6c2.3 1.4 4.3 3.3 5.8 5.5s2.6 4.7 3 7.4c.4 2.3.4 4.8 0 7.2-.1.6-.7 1-1.3.9l-7.4-1c-.6-.1-.9-.6-.9-1.2a10.3 10.3 0 0 0-.1-3.5c-.3-1.5-.8-2.9-1.7-4.1-.8-1.2-1.9-2.2-3.2-3-1-.6-2.1-1-3.2-1.3-.6-.1-.9-.7-.8-1.2l1.8-7.4h0zm-8.7 16.3l-1.5 6.3-1.2-.2 1.1-5-1.7.3.2-.9 2.8-.6.3.1zm2.6 3.8l-.9-.4 1.1-3.1 3.5.5-.2.9-2.6-.4-.5 1.4c.1 0 .2-.1.4-.1h.6c.3 0 .6.1.8.3a1.2 1.2 0 0 1 .5.5c.1.2.2.4.2.7s0 .6-.1.9l-.3.8c-.1.2-.3.4-.5.6s-.5.3-.8.4-.6.1-1 0c-.3 0-.5-.1-.8-.2-.2-.1-.4-.3-.6-.4-.2-.2-.3-.4-.3-.6-.1-.2-.1-.5 0-.8l1.1.2v.5c.1.1.1.3.3.4.1.1.3.2.5.2h.5c.1 0 .3-.1.4-.2s.2-.2.3-.4c.1-.1.1-.3.2-.5 0-.2.1-.3 0-.5 0-.2 0-.3-.1-.4l-.3-.3c-.1-.1-.3-.1-.5-.2h-.6c-.1.1-.2.2-.3.2zm8.4.4l-.2 1.1c-.1.5-.3.9-.4 1.2l-.6.8c-.2.2-.5.3-.8.4s-.6.1-.9 0c-.3 0-.5-.1-.7-.2s-.4-.2-.5-.4-.3-.4-.3-.6c-.1-.2-.1-.5-.1-.8s.1-.7.1-1l.2-1.1c.1-.5.3-.9.4-1.2l.6-.8c.2-.2.5-.3.8-.4s.6-.1.9 0c.3 0 .5.1.7.2s.4.2.5.4.3.4.3.6c.1.2.1.5.1.8s0 .6-.1 1zm-1.5 1.1l.3-1.4c.1-.2.1-.5.1-.6v-.5c0-.1-.1-.2-.1-.3-.1-.1-.1-.2-.2-.2s-.2-.1-.3-.1h-.4c-.1 0-.3.1-.4.2s-.2.3-.3.5-.2.5-.2.8l-.3 1.4c-.1.2-.1.5-.1.6v.5c0 .1.1.3.1.3.1.1.1.2.2.2.1.1.2.1.3.1h.4c.1 0 .3-.1.4-.2s.2-.3.3-.5c.1-.3.2-.5.2-.8z" class="C"/><path d="M271 476.2c-2.3 10.1-12.5 17.1-22.8 15.6a16.8 16.8 0 0 1-11.9-7.2 16.8 16.8 0 0 1-2.4-13.7c2.3-10.1 12.5-17.1 22.8-15.6s16.7 10.9 14.3 20.9zm-31.5-4.4a11.8 11.8 0 0 0 1.7 9.56 11.8 11.8 0 0 0 8.3 5.04 14.5 14.5 0 0 0 15.9-11 11.8 11.8 0 0 0-1.71-9.56 11.8 11.8 0 0 0-8.29-5.04c-7.1-.9-14.3 4-15.9 11z" class="D"/><path d="M256.7 453.8c.1-.6.7-1 1.3-.9a19.5 19.5 0 0 1 6.7 2.6c2.3 1.4 4.3 3.3 5.8 5.5s2.6 4.7 3 7.4c.4 2.3.4 4.8 0 7.2-.1.6-.7 1-1.3.9l-7.4-1c-.6-.1-.9-.6-.9-1.2a10.3 10.3 0 0 0-.1-3.5c-.3-1.5-.8-2.9-1.7-4.1-.8-1.2-1.9-2.2-3.2-3-1-.6-2.1-1-3.2-1.3-.6-.1-.9-.7-.8-1.2l1.8-7.4zm-5.5 22.3l-.2.9-4.3-.6.2-.8 2.6-1.9c.3-.2.5-.4.7-.6l.4-.4c.1-.1.1-.3.2-.4v-.5c0-.2-.1-.3-.2-.4s-.3-.2-.5-.2-.4 0-.6.1-.3.2-.4.4-.2.3-.2.6l-1.2-.2c.1-.4.3-.7.5-1a1.8 1.8 0 0 1 .9-.6c.4-.1.8-.2 1.2-.1s.8.2 1.1.4.5.4.6.7.1.6 0 1c0 .2-.1.4-.2.6s-.3.4-.4.5c-.2.2-.4.3-.6.5s-.4.3-.7.5l-1.6 1.2 2.7.3zm5.7-2.1l-.2 1.1c-.1.5-.3.9-.4 1.2l-.6.8c-.2.2-.5.3-.8.4s-.6.1-.9 0c-.3 0-.5-.1-.7-.2s-.4-.2-.5-.4l-.3-.6c-.1-.2-.1-.5-.1-.8s.1-.7.1-1l.2-1.1c.1-.5.3-.9.4-1.2l.6-.8c.2-.2.5-.3.8-.4s.6-.1.9 0c.3 0 .5.1.7.2s.4.2.5.4.3.4.3.6c.1.2.1.5.1.8.1.2 0 .6-.1 1zm-1.4 1l.3-1.4c.1-.2.1-.5.1-.6v-.5c0-.1-.1-.2-.1-.3-.1-.1-.1-.2-.2-.2-.1-.1-.2-.1-.3-.1h-.4c-.1 0-.3.1-.4.2s-.2.3-.3.5-.2.5-.2.8l-.3 1.4c-.1.2-.1.5-.1.6v.5c0 .1.1.3.1.3.1.1.1.2.2.2.1.1.2.1.3.1h.4c.1 0 .3-.1.4-.2s.2-.3.3-.5a3.1 3.1 0 0 1 .2-.8z" class="C"/><path d="M330.8 484.6c-2.3 10.1-12.5 17.1-22.8 15.6a16.8 16.8 0 0 1-11.9-7.2 16.8 16.8 0 0 1-2.4-13.7c2.4-10.1 12.5-17.1 22.8-15.6 10.2 1.5 16.6 10.9 14.3 20.9zm-31.6-4.4a11.8 11.8 0 0 0 1.71 9.56 11.8 11.8 0 0 0 8.29 5.04 14.5 14.5 0 0 0 15.9-11 11.8 11.8 0 0 0-1.7-9.56 11.8 11.8 0 0 0-8.3-5.04c-7.1-1-14.2 4-15.9 11z" class="D"/><path d="M316.8 462.2c.1-.6.7-1 1.3-.9 2.38.44 4.65 1.33 6.7 2.6 2.3 1.4 4.3 3.3 5.8 5.5s2.6 4.7 3 7.4c.4 2.3.4 4.8 0 7.2-.1.6-.7 1-1.3.9l-7.4-1c-.6-.1-.9-.6-.9-1.2a10.3 10.3 0 0 0-.1-3.5c-.3-1.5-.8-2.9-1.7-4.1-.8-1.2-1.9-2.2-3.2-3-1-.6-2.1-1-3.2-1.3-.6-.1-.9-.7-.8-1.2l1.8-7.4zm-5.5 22.3l-.2.9-4.3-.6.2-.8 2.6-1.9c.3-.2.5-.4.7-.6l.4-.4c.1-.1.1-.3.2-.4v-.5c0-.2-.1-.3-.2-.4s-.3-.2-.5-.2-.4 0-.6.1-.3.2-.4.4-.2.3-.2.6l-1.2-.2c.1-.4.3-.7.5-1a1.8 1.8 0 0 1 .9-.6c.4-.1.8-.2 1.2-.1s.8.2 1.1.4.5.4.6.7.1.6 0 1c0 .2-.1.4-.2.6s-.3.4-.4.5c-.2.2-.4.3-.6.5s-.4.3-.7.5l-1.6 1.2 2.7.3zm5.7-2.1l-.2 1.1c-.1.5-.3.9-.4 1.2l-.6.8c-.2.2-.5.3-.8.4s-.6.1-.9 0c-.3 0-.5-.1-.7-.2s-.4-.2-.5-.4-.3-.4-.3-.6c-.1-.2-.1-.5-.1-.8s.1-.7.1-1l.2-1.1c.1-.5.3-.9.4-1.2l.6-.8c.2-.2.5-.3.8-.4s.6-.1.9 0c.3 0 .5.1.7.2s.4.2.5.4.3.4.3.6c.1.2.1.5.1.8s0 .6-.1 1zm-1.4 1.1l.3-1.4c.1-.2.1-.5.1-.6v-.5c0-.1-.1-.2-.1-.3-.1-.1-.1-.2-.2-.2s-.2-.1-.3-.1h-.4c-.1 0-.3.1-.4.2s-.2.3-.3.5-.2.5-.2.8l-.3 1.4c-.1.2-.1.5-.1.6v.5c0 .1.1.3.1.3.1.1.1.2.2.2.1.1.2.1.3.1h.4c.1 0 .3-.1.4-.2s.2-.3.3-.5c0-.3.1-.5.2-.8z" class="C"/></g><use href="#M" class="B"/><use href="#M" stroke="#c6dfff" class="F"/><use href="#N" class="C"/><path d="M192.7 161.8c.5.1 1 .2 1.4.2l1 .3c.34.11.68.24 1 .4l-.6 1.8c-.4-.1-.7-.1-1-.2s-.6-.1-1-.2c-.3-.1-.8-.1-1.3-.2a2.1 2.1 0 0 0-1.4.2c-.4.2-.7.5-.9 1-.35.69-.59 1.43-.7 2.2-.2.9-.3 1.7-.3 2.3s.1 1 .4 1.2c.3.3.7.4 1.3.5l1.9.2c.5 0 1.1.1 1.6.1l-.2 1.9c-.6.1-1.1.1-1.7.1s-1.3-.1-2.1-.2c-1.2-.2-2.1-.5-2.7-1a3.1 3.1 0 0 1-1.1-2.1c-.1-.9 0-2.1.3-3.5s.7-2.5 1.3-3.4a3.9 3.9 0 0 1 2-1.6c.6-.1 1.6-.1 2.8 0zm-11.5-1.6l1.9.3 1.9.3c.6.1 1.2.2 1.7.4l-.5 1.8-4.5-.6c-.3 0-.5 0-.7.1s-.3.3-.4.6l-1.4 5.9c-.1.3 0 .5.1.7s.3.3.6.3l4.5.6-.3 1.9c-.6 0-1.1-.1-1.8-.1-.6-.1-1.3-.1-1.9-.2l-1.9-.3c-.7-.1-1.3-.4-1.7-.9s-.5-1.1-.3-1.8l1.6-7a2.6 2.6 0 0 1 1.1-1.6c.6-.4 1.2-.5 2-.4zm-3.3 4.4l7 1-.4 1.8-7-1 .4-1.8z" class="B"/><path d="M220 164l-.1.4c-.13.6-.37 1.18-.7 1.7a4 4 0 0 1-1 1.2c-.4.29-.84.53-1.3.7-.5.1-1 .2-1.5.1s-1-.2-1.4-.5-.7-.6-1-1a5.8 5.8 0 0 1-.5-1.4c-.1-.5 0-1.1.1-1.8l.1-.4c.13-.6.37-1.18.7-1.7a4 4 0 0 1 1-1.2 5.4 5.4 0 0 1 1.3-.7c.5-.1 1-.2 1.5-.1s1 .2 1.4.5.7.6 1 1c.2.4.4.9.4 1.4.1.6.1 1.2 0 1.8zm-1.8.2l.1-.4c.1-.5.2-.9.2-1.2a2 2 0 0 0-.2-.9c-.1-.3-.3-.5-.5-.6-.2-.2-.5-.3-.8-.3s-.6 0-.9.1-.5.2-.7.5c-.2.2-.4.5-.6.8s-.3.7-.4 1.2l-.1.4c-.1.5-.2.9-.1 1.2 0 .4.1.7.2 1s.3.5.5.6c.2.2.5.3.8.3s.6 0 .9-.1.5-.2.7-.5c.2-.2.4-.5.6-.8l.3-1.3zm4 4.8l-1.6-.2 1.6-6.9c.1-.5.3-.9.6-1.2s.6-.5 1-.6.8-.1 1.3-.1c.2 0 .3.1.4.1s.3.1.4.1l-.3 1.2c-.1 0-.2-.1-.2-.1-.1 0-.2 0-.3-.1h-.6c-.2.1-.3.1-.4.3-.1.1-.2.3-.2.5l-1.7 7zm2.8-6.2l-.3 1.1-3.8-.5.3-1.1 3.8.5zm1.6 6.8l-1.6-.2 1.6-6.9c.1-.5.3-.9.6-1.2s.6-.5 1-.6.8-.1 1.3-.1c.2 0 .3.1.4.1s.3.1.4.1l-.3 1.2c-.1 0-.2-.1-.2-.1-.1 0-.2 0-.3-.1h-.6c-.2.1-.3.1-.4.3-.1.1-.2.3-.2.5l-1.7 7zm2.7-6.2l-.3 1.1-3.8-.5.3-1.1 3.8.5zm2.2 7c-.5-.1-.9-.2-1.3-.4s-.6-.5-.8-.8-.3-.7-.4-1.1 0-.8.1-1.2l.1-.2c.1-.5.3-.9.5-1.3s.5-.7.8-.9c.3-.3.7-.4 1.1-.5s.8-.1 1.3-.1c.5.1.8.2 1.1.4s.6.4.7.8c.2.3.3.7.3 1.1s0 .8-.1 1.3l-.1.6-5-.7.2-1.1 3.5.5v-.1c0-.2.1-.5 0-.7 0-.2-.1-.4-.3-.5s-.4-.2-.7-.3c-.2 0-.4 0-.6.1s-.4.2-.5.4c-.2.2-.3.4-.4.6s-.2.5-.3.8l-.1.2c-.1.3-.1.5-.1.8 0 .2.1.4.2.6s.3.3.4.5c.2.1.4.2.7.2s.6 0 .9-.1.6-.2.8-.5l.6.9c-.2.2-.4.3-.7.5-.3.1-.6.3-.9.3-.2-.1-.6-.1-1-.1zm6.4-4.4l-1.2 5-1.6-.2 1.5-6.3 1.5.2-.2 1.3zm2.3-1.1l-.4 1.4c-.1 0-.2-.1-.3-.1s-.2 0-.3-.1h-.7c-.2 0-.4.1-.5.2s-.3.2-.4.4-.2.4-.2.6l-.3-.1c.1-.4.2-.8.4-1.1l.6-.8c.2-.2.5-.4.7-.5.3-.1.6-.1.9-.1.1 0 .2 0 .3.1 0 .1.1.1.2.1zm11.4-.6l-2 8.5-1.6-.2-2.3-6.4-1.4 5.9-1.6-.2 2-8.5 1.6.2 2.3 6.4 1.4-5.9 1.6.2zm0 5.6v-.1c.1-.5.3-.9.5-1.2.2-.4.5-.7.8-.9.3-.3.7-.4 1.1-.5s.9-.1 1.3-.1c.5.1.9.2 1.2.4s.6.5.8.8.3.7.4 1.1c0 .4 0 .8-.1 1.3v.1c-.1.5-.3.9-.5 1.2-.2.4-.5.7-.8.9-.3.3-.7.4-1.1.5s-.9.1-1.3.1c-.5-.1-.9-.2-1.2-.4s-.6-.5-.8-.8-.3-.7-.4-1.1c0-.4 0-.8.1-1.3zm1.6.1v.1c-.1.3-.1.5-.1.8a1.7 1.7 0 0 0 .1.7c.1.2.2.4.3.5.2.1.4.2.6.2.3 0 .5 0 .7-.1s.4-.2.5-.4c.2-.2.3-.4.4-.6a6.9 6.9 0 0 0 .3-.8v-.1c.1-.3.1-.5.1-.8 0-.2 0-.5-.1-.7s-.2-.4-.3-.5l-.6-.3c-.3 0-.5 0-.7.1s-.4.2-.5.4c-.2.2-.3.4-.4.6-.1.4-.2.6-.3.9zm11.8 3.2v-.4c0-.1-.2-.2-.3-.3l-.8-.4c-.3-.1-.6-.2-.9-.4-.3-.1-.5-.3-.6-.5-.2-.2-.3-.4-.4-.6s-.1-.5 0-.7c.1-.3.2-.5.3-.7.2-.2.4-.4.6-.5l.9-.3c.3-.1.7-.1 1.1 0 .5.1 1 .2 1.3.5.4.2.6.5.7.9.1.3.2.7.1 1.1l-1.6-.2v-.5c0-.1-.1-.3-.3-.4-.1-.1-.3-.2-.6-.2h-.6c-.2 0-.3.1-.4.2s-.2.2-.2.4v.3c0 .1.1.2.2.2.1.1.2.2.3.2.2.1.3.2.6.2l1.2.5c.3.2.6.4.7.7s.2.6.1 1c-.1.3-.2.5-.4.7s-.4.4-.7.5l-.9.3h-1.1c-.6-.1-1.1-.3-1.4-.5-.4-.3-.6-.6-.7-.9-.1-.4-.2-.7-.1-1l1.5.2c0 .2 0 .5.1.6.1.2.2.3.4.4s.4.1.6.2h.6c.2 0 .3-.1.4-.2.2-.1.3-.3.3-.4zm5.9-6.6l-2.1 9-1.6-.2 2.1-9 1.6.2zm-1.5 5.5l-.5-.1c.1-.4.3-.8.5-1.2s.4-.7.7-.9.6-.4.9-.5.7-.1 1.1-.1c.3 0 .6.1.8.3.2.1.4.3.6.5.12.26.22.53.3.8 0 .3 0 .7-.1 1.1l-.9 4-1.6-.2.9-4c.1-.3.1-.5 0-.7 0-.2-.1-.3-.3-.4-.1-.1-.3-.2-.6-.2s-.5 0-.7.1-.4.2-.5.3c-.2.2-.3.3-.4.5s-.2.5-.2.7zm5.1 1v-.1c.1-.5.3-.9.5-1.2.2-.4.5-.7.8-.9.3-.3.7-.4 1.1-.5s.9-.1 1.3-.1c.5.1.9.2 1.2.4s.6.5.8.8.3.7.4 1.1c0 .4 0 .8-.1 1.3v.1c-.1.5-.3.9-.5 1.2-.2.4-.5.7-.8.9-.3.3-.7.4-1.1.5s-.9.1-1.3.1c-.5-.1-.9-.2-1.2-.4s-.6-.5-.8-.8-.3-.7-.4-1.1c0-.4 0-.8.1-1.3zm1.6.1v.1c-.1.3-.1.5-.1.8a1.7 1.7 0 0 0 .1.7c.1.2.2.4.3.5.2.1.4.2.6.2.3 0 .5 0 .7-.1s.4-.2.5-.4c.2-.2.3-.4.4-.6s.2-.5.3-.8v-.1c.1-.3.1-.5.1-.8 0-.2 0-.5-.1-.7s-.2-.4-.4-.5l-.6-.3c-.3 0-.5 0-.7.1s-.4.2-.5.4c-.2.2-.3.4-.4.6 0 .31-.06.62-.2.9zm7 2.8l2.5-4.6 1 .1-.7 1.6-2.5 4.5-.9-.1.6-1.5zm.3-4.9l-.1 5-.3 1.5-1-.1-.2-6.5 1.6.1zm3.4 5.3l2.1-4.6 1.5.2-3.1 6.1-1-.1.5-1.6zm0-4.9l.3 4.9-.2 1.6-.9-.1-.4-4.9.1-1.7 1.1.2z" class="E"/><path d="M384.3 185.1l-.2.9c-.1.5-.3.9-.4 1.2l-.6.8c-.2.2-.5.3-.7.4a1.1 1.1 0 0 1-.8 0c-.2 0-.4-.1-.6-.2s-.3-.2-.5-.4c-.1-.2-.2-.3-.3-.6-.1-.2-.1-.5-.1-.8s.1-.7.2-1.1l.2-.9c.1-.5.3-.9.4-1.2l.6-.8c.2-.2.5-.3.7-.4a1.1 1.1 0 0 1 .8 0c.2 0 .5.1.6.2.2.1.4.2.5.3s.2.3.3.5.1.5.1.8l-.2 1.3zm-1 1l.3-1.2c.1-.3.1-.5.1-.7v-.6c0-.2-.1-.3-.2-.4s-.2-.2-.3-.2c-.1-.1-.2-.1-.4-.1h-.5c-.2 0-.3.1-.4.3-.1.1-.2.3-.4.5-.1.2-.2.5-.3.9l-.3 1.2c-.1.3-.1.5-.1.7v.6c0 .2.1.3.2.4l.3.3c.1.1.2.1.4.1h.5c.2-.1.3-.1.4-.3.1-.1.3-.3.4-.6l.3-.9zm2.1 2.1a2.4 2.4 0 0 0 1.2 0c.3-.1.6-.2.8-.4s.4-.4.5-.7l.3-.8.2-.9c.1-.3.1-.5.1-.7s-.1-.4-.1-.6c-.1-.2-.2-.3-.3-.4s-.3-.2-.4-.2h-.5c-.2 0-.3.1-.4.2s-.2.3-.3.4c-.1.2-.2.3-.2.6 0 .2-.1.4-.1.5-.02.17.02.35.1.5.1.1.2.3.3.4s.3.2.5.2h.5c.2 0 .3-.1.5-.2.1-.1.3-.2.4-.4.1-.1.2-.3.2-.5l.4.1-.3.7c-.1.2-.3.4-.5.6s-.4.3-.7.4c-.2.1-.5.1-.8.1s-.6-.1-.8-.3c-.2-.1-.3-.3-.4-.5s-.2-.4-.2-.7 0-.5.1-.7l.3-.8c.1-.2.3-.4.5-.6s.4-.3.7-.4.6-.1.9 0c.4 0 .6.2.9.3.2.2.4.4.5.6.1.3.2.5.2.8s0 .6-.1.9l-.1.3-.3.9c-.1.3-.3.6-.4.9-.2.3-.4.5-.7.7a3 3 0 0 1-1 .4c-.4.1-.8.1-1.3 0h-.1l-.1-.7zm4.1.9c0-.1.1-.2.2-.3s.2-.1.4-.1.3.1.3.2c.1.1.1.2.1.3s-.1.2-.2.3-.2.1-.4.1-.3-.1-.3-.2c-.1-.1-.1-.2-.1-.3zm.9-3.7c0-.1.1-.2.2-.3s.2-.1.4-.1.3.1.3.2c.1.1.1.2.1.3s-.1.2-.2.3-.2.1-.4.1-.3-.1-.3-.2c-.2-.1-.2-.2-.1-.3zm3 1.1l.6.1h.7c.2-.1.4-.2.5-.3s.2-.3.3-.5.1-.4 0-.6c0-.2-.1-.3-.3-.4-.1-.1-.3-.2-.6-.2h-.6c-.2.1-.3.2-.5.3-.1.1-.2.3-.3.5l-.8-.1c.1-.3.2-.6.4-.8s.5-.4.8-.5.7-.1 1.1-.1c.4.1.7.2.9.3.2.2.4.4.5.7s.1.6 0 1c0 .2-.1.3-.2.5s-.3.3-.4.4c-.2.1-.4.2-.7.3s-.6.1-.9 0l-.7-.1.2-.5zm-.2.6l.1-.5.7.1c.4.1.7.1.9.3a1.2 1.2 0 0 1 .5.5c.1.2.2.4.2.5v.6c-.1.3-.2.5-.3.7a1.2 1.2 0 0 1-.5.5c-.2.1-.4.2-.7.3h-.8c-.3 0-.5-.1-.7-.2s-.4-.2-.5-.4l-.3-.6c-.1-.2 0-.5 0-.7l.8.1v.6c.1.2.2.3.3.4.2.1.4.2.6.2h.6c.2-.1.4-.2.5-.3l.3-.6c.1-.3.1-.5 0-.6-.1-.2-.2-.3-.4-.4s-.4-.2-.7-.2l-.6-.3zm7.8.4l-.2.9c-.1.5-.3.9-.4 1.2l-.6.8c-.2.2-.5.3-.7.4a1.1 1.1 0 0 1-.8 0c-.2 0-.4-.1-.6-.2s-.3-.2-.5-.4c-.1-.2-.2-.3-.3-.6s-.1-.5-.1-.8.1-.7.2-1.1l.2-.9c.1-.5.3-.9.4-1.2l.6-.8c.2-.2.5-.3.7-.4a1.1 1.1 0 0 1 .8 0c.2 0 .5.1.6.2.2.1.4.2.5.3s.2.3.3.5.1.5.1.8c0 .5-.1.9-.2 1.3zm-1 .9l.3-1.2c.1-.3.1-.5.1-.7v-.6c0-.2-.1-.3-.2-.4s-.2-.2-.3-.2c-.1-.1-.2-.1-.4-.1h-.5c-.2 0-.3.1-.4.3-.1.1-.2.3-.4.5-.1.2-.2.5-.3.9l-.3 1.2c-.1.3-.1.5-.1.7v.6c0 .2.1.3.2.4l.3.3c.1.1.2.1.4.1h.5c.2-.1.3-.1.4-.3.1-.1.3-.3.4-.6s.2-.5.3-.9zm6.4 1l-1.6-.2.2-.7 1.6.2h.8c.2-.1.4-.2.5-.4l.3-.6v-.6c0-.2-.2-.4-.3-.5-.2-.1-.4-.2-.7-.3l-1.5-.2-1.2 5.4-.8-.1 1.4-6.1 2.3.3c.5.1.8.2 1.1.4s.5.5.6.8.1.6 0 1-.2.7-.5 1c-.2.3-.5.4-.9.5-.4.2-.9.2-1.3.1zm4.3-3.2l.8.1.9 5.2 3.2-4.7.8.1-3.9 5.7-.6-.1-1.2-6.3zm-.3 0l.7.1-.7 3.7-.5 2.4-.8-.1 1.3-6.1zm5.5.7l.7.1-1.4 6.1-.8-.1.5-2.4 1-3.7z" fill="#9f9f9f"/><g fill="#3b3b3b"><path d="M212.23 182.01l-.15.65-3.33-.47.15-.65 3.33.47zm-2.61-3.06l-1.4 6.06-.82-.11 1.4-6.06.82.12zm3.92.55l-1.4 6.06-.81-.11 1.4-6.06.81.11zm2.81 5.86l.53-2.32c.04-.18.04-.34 0-.48s-.12-.26-.25-.35-.3-.15-.51-.18a1.2 1.2 0 0 0-.54.03c-.16.05-.3.12-.41.21s-.17.21-.2.33l-.78-.11a1.2 1.2 0 0 1 .24-.46c.12-.15.28-.27.46-.38s.41-.18.65-.23.5-.05.78-.01c.33.05.61.14.84.29s.39.34.48.59.11.53.03.87l-.48 2.1a3.3 3.3 0 0 0-.07.48c-.01.17 0 .32.02.45l-.01.07-.82-.11a1.4 1.4 0 0 1-.01-.37c.01-.15.03-.29.06-.42zm.59-1.94l-.12.54-.79-.11c-.22-.03-.43-.04-.61-.03a1.7 1.7 0 0 0-.48.09c-.14.05-.24.13-.33.22s-.14.21-.18.35-.03.28.01.4.11.23.23.32.27.14.46.17c.24.03.46.01.67-.06s.38-.18.52-.31.23-.26.27-.4l.25.42c-.05.11-.13.24-.25.36s-.27.25-.45.36-.37.19-.59.25a1.8 1.8 0 0 1-.7.03 1.7 1.7 0 0 1-.78-.29c-.21-.15-.35-.34-.43-.55s-.09-.46-.03-.71c.06-.24.15-.45.29-.62s.31-.31.52-.4.45-.16.72-.19.56-.02.87.02l.91.13zm2.91-.7l-.87 3.8-.78-.11 1.04-4.5.76.11-.14.71zm1.6-.53l-.17.71a1.1 1.1 0 0 0-.18-.05l-.19-.04c-.18-.03-.35-.02-.5.02s-.29.1-.41.18-.22.2-.31.33a1.5 1.5 0 0 0-.21.44l-.25.09a3.8 3.8 0 0 1 .26-.75c.11-.23.25-.43.4-.6s.34-.29.54-.37.43-.1.68-.07c.06.01.12.02.19.05s.12.04.14.06zm1.33.95l-.87 3.8-.78-.11 1.04-4.5.76.11-.14.71zm1.6-.53l-.17.72c-.06-.02-.12-.04-.18-.05l-.19-.03c-.18-.03-.35-.02-.5.02s-.29.1-.41.18a1.1 1.1 0 0 0-.31.33 1.9 1.9 0 0 0-.21.44l-.25.09a3.7 3.7 0 0 1 .26-.75c.11-.23.25-.43.4-.6s.34-.29.54-.37.43-.1.68-.07c.06.01.12.02.19.05s.12.04.14.06z"/><path d="M225.53 186.96l2.2-3.86.84.12-3.03 4.94c-.07.1-.15.22-.25.33s-.21.23-.35.33a1.4 1.4 0 0 1-.45.23c-.17.05-.35.07-.56.04-.06-.01-.14-.03-.23-.06l-.19-.07.14-.62c.02.01.06.01.1.02l.1.02c.18.02.33.02.47-.01s.26-.09.37-.19.22-.23.32-.41l.53-.83zm0-4.17l.38 3.66.02.84-.63.2-.62-4.83.85.12zm7.12-.95l-1.47 6.4-.78-.11 1.47-6.39.78.11zm-1.1 3.94l-.32-.06c.07-.31.19-.59.34-.83s.33-.46.54-.63a2.1 2.1 0 0 1 .69-.37c.25-.08.52-.09.79-.05a1.8 1.8 0 0 1 .59.18 1 1 0 0 1 .4.35c.1.15.16.33.18.55s0 .47-.07.77l-.68 2.95-.79-.11.68-2.96c.05-.24.06-.43.02-.58s-.12-.27-.24-.36-.28-.14-.48-.17-.38-.01-.56.05-.34.15-.49.28-.27.28-.38.45a1.6 1.6 0 0 0-.22.56zm6.49 2.63l.53-2.32c.04-.18.04-.34 0-.48s-.12-.26-.25-.35-.3-.15-.51-.18a1.2 1.2 0 0 0-.54.03c-.16.05-.3.12-.41.21s-.17.21-.2.33l-.78-.11a1.2 1.2 0 0 1 .24-.46c.12-.15.28-.27.46-.38s.41-.18.65-.23.5-.05.78-.01c.33.05.61.14.84.29s.39.34.49.59.1.53.03.87l-.48 2.1c-.03.15-.06.31-.07.48a1.8 1.8 0 0 0 .02.45l-.02.07-.82-.11c-.02-.09-.02-.22-.01-.37a2.8 2.8 0 0 1 .06-.42zm.59-1.94l-.12.54-.79-.11a3.1 3.1 0 0 0-.61-.03 1.7 1.7 0 0 0-.48.09.8.8 0 0 0-.33.22c-.08.09-.15.21-.18.35s-.03.28.01.4.11.23.23.32.27.14.46.17c.24.03.46.01.67-.06a1.5 1.5 0 0 0 .52-.31c.14-.13.24-.26.28-.39l.25.42c-.05.11-.13.24-.25.36s-.27.25-.44.36a2.1 2.1 0 0 1-.59.25c-.22.06-.45.07-.7.03a1.7 1.7 0 0 1-.78-.29c-.21-.15-.35-.34-.43-.56s-.09-.46-.03-.71c.05-.24.15-.45.29-.62s.31-.31.52-.4a2.2 2.2 0 0 1 .72-.19 3.6 3.6 0 0 1 .87.02l.91.13zm4.19 2.17c.03-.11.02-.22-.01-.32s-.11-.2-.24-.3-.34-.2-.63-.3l-.65-.28a1.9 1.9 0 0 1-.46-.34c-.12-.12-.2-.26-.24-.41s-.04-.32 0-.5.12-.34.24-.49.26-.27.44-.37.38-.17.6-.21a2.3 2.3 0 0 1 .72-.01 2 2 0 0 1 .9.32 1.3 1.3 0 0 1 .48.6 1.2 1.2 0 0 1 .04.73l-.78-.11c.03-.12.02-.25-.03-.38s-.13-.24-.26-.34-.29-.16-.49-.19c-.22-.03-.4-.02-.55.03s-.26.11-.35.21-.14.19-.16.3c-.02.08-.02.16-.01.23s.06.14.12.2.16.13.29.19l.5.22a4.3 4.3 0 0 1 .86.43 1.2 1.2 0 0 1 .44.5c.08.18.09.4.04.64-.05.2-.13.37-.25.52a1.3 1.3 0 0 1-.46.37 2 2 0 0 1-.62.2 2.6 2.6 0 0 1-.74-.01c-.4-.06-.73-.17-.98-.36a1.4 1.4 0 0 1-.51-.64c-.09-.25-.11-.49-.05-.74l.79.11c-.04.21-.01.39.07.53s.2.25.35.32.31.12.47.14c.22.03.4.03.56-.01s.29-.1.39-.18.16-.19.19-.32zm6.77 1.29l1.27-5.52.79.11-1.47 6.4-.72-.1.13-.88zm-2.77-1.76l.02-.09c.08-.34.19-.65.34-.92s.33-.5.54-.68a1.9 1.9 0 0 1 .68-.39 1.7 1.7 0 0 1 .78-.06 1.8 1.8 0 0 1 .72.25c.19.12.34.3.45.51s.18.45.2.72a4.8 4.8 0 0 1-.02.92l-.09.38a4.4 4.4 0 0 1-.39.87c-.15.25-.32.46-.52.62s-.41.28-.65.35-.5.08-.79.04a1.6 1.6 0 0 1-.7-.27 1.4 1.4 0 0 1-.46-.56c-.11-.23-.18-.49-.2-.78s.01-.6.08-.93zm.81.02l-.02.09c-.05.23-.08.44-.08.64s.04.39.1.55.16.3.3.41.31.17.52.2c.26.04.48.01.68-.07s.36-.21.51-.37.27-.34.37-.54l.23-1c0-.16-.01-.31-.05-.46s-.08-.29-.16-.42-.17-.23-.31-.32-.29-.14-.49-.17c-.21-.03-.41-.01-.59.06s-.32.17-.46.31-.25.3-.34.49a3 3 0 0 0-.21.62zm5.64 3.25c-.32-.05-.6-.14-.83-.28s-.42-.33-.56-.55-.23-.47-.26-.75a2.5 2.5 0 0 1 .05-.9l.04-.17c.09-.37.22-.69.39-.96a2.5 2.5 0 0 1 .62-.67c.23-.17.48-.29.75-.36s.52-.09.78-.05c.33.05.6.14.81.28s.37.33.48.55a1.8 1.8 0 0 1 .18.75c.01.28-.02.57-.09.89l-.08.35-3.42-.48.15-.63 2.63.37.01-.06c.03-.2.04-.4.01-.6s-.1-.37-.23-.51-.32-.24-.59-.27c-.18-.03-.35-.01-.52.04a1.2 1.2 0 0 0-.46.27c-.14.13-.26.29-.37.49a2.7 2.7 0 0 0-.25.71l-.04.17c-.05.21-.07.42-.05.62.02.19.07.37.15.53s.2.29.35.39.33.17.55.2c.28.04.52.02.74-.07a2 2 0 0 0 .61-.37l.39.44c-.13.13-.29.26-.47.37s-.4.19-.64.24a2.3 2.3 0 0 1-.81.02zm4.68 0c.19.03.37.01.54-.04s.33-.14.46-.25.22-.26.28-.43l.74.1c-.07.26-.22.5-.45.71s-.48.36-.78.46a2 2 0 0 1-.94.08 2 2 0 0 1-.86-.31 1.6 1.6 0 0 1-.52-.58c-.12-.23-.19-.49-.21-.77a3 3 0 0 1 .08-.88l.04-.18a3.4 3.4 0 0 1 .32-.84c.14-.26.33-.48.54-.67s.47-.32.75-.4.6-.1.94-.05c.36.05.65.17.89.35s.4.4.5.67.12.56.06.87l-.75-.1c.03-.19.01-.36-.04-.53a.8.8 0 0 0-.29-.41c-.14-.11-.31-.19-.51-.21-.24-.03-.45-.01-.64.06s-.34.18-.47.32a1.8 1.8 0 0 0-.32.49 3 3 0 0 0-.19.57l-.04.17a3 3 0 0 0-.07.59 1.6 1.6 0 0 0 .08.55c.06.17.16.31.3.43s.33.19.58.22zm4.9-5.35l-1.47 6.4-.79-.11 1.47-6.39.79.11zm1.67 2.19l-1.04 4.5-.79-.11 1.04-4.51.79.11zm-.57-1.31c.03-.12.09-.23.19-.3s.23-.1.38-.08.25.08.31.18.08.21.05.33-.09.22-.19.29a.5.5 0 0 1-.37.08c-.15-.02-.26-.08-.32-.17s-.07-.2-.04-.32zm2.39 2.56l-.82 3.54-.78-.11 1.04-4.5.74.1-.18.97zm-.44 1.09l-.32-.06a2.9 2.9 0 0 1 .34-.83c.15-.25.33-.46.54-.63a2.1 2.1 0 0 1 .69-.37c.25-.08.52-.09.8-.05a1.8 1.8 0 0 1 .59.18 1 1 0 0 1 .4.35c.1.15.16.33.18.55s0 .47-.07.77l-.68 2.95-.79-.11.68-2.96c.05-.24.06-.43.02-.58s-.12-.27-.24-.36-.28-.14-.48-.17-.38-.01-.56.05-.34.15-.49.28-.27.28-.38.45-.18.36-.23.56zm5.51 3.37c-.32-.04-.6-.14-.83-.28s-.42-.33-.56-.55-.23-.47-.26-.75a2.5 2.5 0 0 1 .05-.89l.04-.18c.08-.37.21-.69.39-.96a2.5 2.5 0 0 1 .62-.67c.24-.17.48-.29.75-.36s.52-.09.78-.05c.33.05.6.14.81.28s.37.33.48.55a1.8 1.8 0 0 1 .18.75c.01.28-.02.57-.09.89l-.08.35-3.42-.48.15-.63 2.63.37.01-.06c.03-.2.04-.4.01-.6s-.1-.37-.23-.51-.32-.23-.59-.27c-.18-.03-.35-.01-.52.04a1.2 1.2 0 0 0-.46.27c-.14.13-.26.29-.37.49a2.7 2.7 0 0 0-.25.71l-.04.18c-.05.21-.07.42-.05.62.02.19.07.37.15.53s.2.29.35.39.33.17.55.2c.28.04.52.02.74-.07s.42-.21.61-.37l.39.44a2.5 2.5 0 0 1-.47.37 2 2 0 0 1-.64.25c-.24.05-.51.06-.81.01zm5.8-.17l1.27-5.52.79.11-1.47 6.4-.72-.1.13-.88zm-2.77-1.76l.02-.09a3.5 3.5 0 0 1 .34-.92c.15-.27.33-.5.54-.68a1.9 1.9 0 0 1 .68-.38 1.7 1.7 0 0 1 .78-.06c.29.04.53.13.72.26a1.3 1.3 0 0 1 .45.51c.1.21.18.45.2.72a4.8 4.8 0 0 1-.02.92l-.09.38a4.3 4.3 0 0 1-.39.87c-.15.25-.32.46-.51.62a1.7 1.7 0 0 1-.65.35c-.24.07-.5.08-.8.04a1.5 1.5 0 0 1-1.16-.83c-.11-.23-.18-.49-.2-.78s.01-.6.08-.93zm.81.02l-.02.09c-.05.23-.08.44-.08.64s.04.39.1.55.16.3.3.41.31.17.52.2c.26.04.48.01.68-.07a1.4 1.4 0 0 0 .5-.37c.14-.16.27-.34.37-.54l.23-1c0-.16-.01-.31-.05-.46s-.08-.29-.16-.42-.17-.23-.31-.32-.29-.14-.49-.17c-.21-.03-.41-.01-.58.06s-.33.17-.46.31-.25.3-.34.49a3 3 0 0 0-.21.62zm7.3 2.91l2.21-3.86.84.12-3.03 4.94a2.4 2.4 0 0 1-.25.33c-.1.11-.21.23-.35.33s-.28.18-.45.23-.35.07-.56.04c-.06-.01-.14-.03-.23-.06l-.19-.07.14-.63.1.02.1.02c.18.03.33.02.47-.01s.26-.09.37-.18.22-.23.32-.41l.53-.83zm0-4.17l.38 3.66.02.84-.63.2-.62-4.83.85.12zm2.95 2.79l.02-.1a3 3 0 0 1 .35-.88c.16-.27.36-.49.58-.67a2.1 2.1 0 0 1 .77-.39c.28-.08.58-.1.9-.05s.6.14.83.3.42.34.55.58.22.49.25.79a2.9 2.9 0 0 1-.06.92l-.02.1c-.07.32-.19.62-.35.88s-.36.49-.59.67a2.2 2.2 0 0 1-1.67.44c-.32-.04-.6-.14-.83-.29a1.7 1.7 0 0 1-.55-.58 2.1 2.1 0 0 1-.25-.79c-.04-.29-.01-.6.06-.92zm.81.01l-.02.1a2.5 2.5 0 0 0-.07.65c.01.21.05.39.12.56s.18.31.33.42.32.18.54.21.41.01.59-.05.35-.17.49-.31a1.9 1.9 0 0 0 .36-.49c.1-.19.18-.4.23-.63l.02-.09a2.3 2.3 0 0 0 .06-.64c-.01-.21-.05-.39-.12-.56s-.18-.31-.32-.42a1.1 1.1 0 0 0-.54-.21c-.21-.03-.41-.01-.6.05a1.4 1.4 0 0 0-.49.31 1.9 1.9 0 0 0-.36.5 2.4 2.4 0 0 0-.22.62zm6.87 2.27l.8-3.46.79.11-1.04 4.5-.75-.11.2-1.05zm.37-.93l.33.04c-.07.3-.17.57-.29.82s-.27.45-.46.62a1.6 1.6 0 0 1-.65.36c-.25.07-.54.08-.87.04-.22-.03-.42-.09-.59-.18a1.1 1.1 0 0 1-.41-.36 1.2 1.2 0 0 1-.19-.56 2.5 2.5 0 0 1 .07-.78l.67-2.91.78.11-.67 2.91c-.05.2-.06.37-.05.51s.06.25.12.34.14.15.23.2.19.07.3.09c.33.05.61.02.83-.08s.4-.25.54-.45a2.1 2.1 0 0 0 .3-.7zm3.03-1.44l-.87 3.8-.78-.11 1.04-4.51.76.11-.14.71zm1.6-.53l-.17.72a1.1 1.1 0 0 0-.18-.05l-.19-.04c-.18-.03-.35-.02-.5.02s-.29.1-.41.18a1.1 1.1 0 0 0-.31.33c-.09.14-.15.27-.21.43l-.25.09a3.8 3.8 0 0 1 .26-.75c.11-.23.25-.43.4-.6s.34-.29.54-.37.43-.1.68-.07c.06.01.12.02.19.05s.12.04.14.06zm2.88.44l.79.11-1.16 5.04a1.8 1.8 0 0 1-.3.68 1.1 1.1 0 0 1-.5.38 1.4 1.4 0 0 1-.7.06 1.4 1.4 0 0 1-.24-.06l-.23-.08.15-.62c.05.02.11.04.18.05l.18.04c.12.02.22.01.31-.02s.16-.09.22-.17.11-.21.15-.36l1.16-5.04zm.19-1.21c.03-.12.09-.22.19-.3s.22-.1.37-.08.26.08.32.18.07.21.05.33a.5.5 0 0 1-.19.29c-.1.07-.22.1-.38.08s-.25-.08-.31-.17-.07-.21-.05-.32zm1.13 3.77l.02-.1c.08-.32.19-.62.35-.88a2.7 2.7 0 0 1 .58-.67c.22-.18.48-.31.77-.39s.58-.1.9-.05a2.1 2.1 0 0 1 .83.3c.23.15.42.34.55.58s.22.49.25.79a2.9 2.9 0 0 1-.06.92l-.02.1c-.07.32-.19.62-.35.88s-.35.49-.59.67a2.2 2.2 0 0 1-1.67.44 2 2 0 0 1-.83-.29 1.7 1.7 0 0 1-.55-.58 2.1 2.1 0 0 1-.25-.79c-.04-.29-.01-.6.06-.92zm.81.01l-.02.1a2.5 2.5 0 0 0-.07.65 1.7 1.7 0 0 0 .12.56c.07.17.18.31.33.42s.32.18.54.21.41.01.59-.05.35-.17.49-.31a2 2 0 0 0 .36-.49c.1-.19.18-.4.23-.62l.02-.09a2.3 2.3 0 0 0 .06-.64c-.01-.21-.05-.4-.12-.56a1.1 1.1 0 0 0-.86-.63c-.22-.03-.41-.01-.6.05s-.35.17-.49.31a2 2 0 0 0-.36.49c-.1.19-.17.4-.23.62zm5.3-3.48l.79.11-1.27 5.52-.27.86-.72-.1 1.47-6.4zm2.93 4.65l-.02.09a3.6 3.6 0 0 1-.33.89c-.14.27-.31.49-.51.68s-.42.32-.67.4-.51.1-.8.06a1.9 1.9 0 0 1-.73-.25c-.2-.12-.35-.3-.45-.51s-.18-.45-.2-.73a4.8 4.8 0 0 1 .02-.92l.09-.38a4.4 4.4 0 0 1 .39-.87c.15-.25.32-.46.51-.62s.41-.28.65-.35.5-.08.79-.04a1.6 1.6 0 0 1 .73.28c.2.14.35.32.45.54s.16.48.18.78a3.2 3.2 0 0 1-.1.95zm-.81-.02l.02-.09c.05-.22.08-.44.08-.64s-.02-.39-.08-.55a.9.9 0 0 0-.29-.41c-.13-.11-.31-.18-.53-.21a1.2 1.2 0 0 0-.54.03c-.16.05-.3.12-.43.22s-.24.21-.34.35-.18.27-.24.42l-.23 1a2 2 0 0 0 .09.59c.06.19.17.36.31.5s.35.23.61.26c.21.03.4.01.57-.05s.32-.17.45-.3.24-.3.33-.49a3 3 0 0 0 .21-.62zm3.72.52l.02-.09c.07-.33.19-.62.35-.88a2.5 2.5 0 0 1 .58-.67 2.1 2.1 0 0 1 .77-.39c.28-.08.58-.1.9-.05a2.1 2.1 0 0 1 .83.3c.23.15.42.34.55.58s.22.49.25.79a2.9 2.9 0 0 1-.06.92l-.02.1c-.07.32-.19.62-.35.88s-.36.49-.59.67-.48.31-.77.39-.58.09-.9.05-.6-.14-.83-.29a1.7 1.7 0 0 1-.55-.58c-.14-.24-.22-.5-.25-.79a2.9 2.9 0 0 1 .06-.92zm.81.01l-.02.1a2.5 2.5 0 0 0-.07.65c.01.21.05.39.12.56s.18.31.33.42.32.18.54.21.41.01.59-.05.35-.17.49-.31a1.9 1.9 0 0 0 .36-.49c.1-.19.18-.4.23-.62l.02-.1a2.4 2.4 0 0 0 .06-.64 1.7 1.7 0 0 0-.12-.56c-.07-.17-.18-.31-.32-.42a1.1 1.1 0 0 0-.54-.21c-.22-.03-.41-.01-.6.05s-.35.17-.49.31-.26.3-.36.5-.17.39-.22.62zm5 3.08l-.78-.11 1.15-4.98a1.9 1.9 0 0 1 .37-.79c.17-.21.38-.35.64-.43a1.8 1.8 0 0 1 .84-.06c.09.01.18.03.27.06s.18.05.26.09l-.19.62-.2-.06-.22-.04c-.17-.02-.32-.01-.45.04s-.25.13-.34.25-.16.27-.2.45l-1.15 4.98zm2.01-4.37l-.14.59-2.48-.35.14-.59 2.48.35zm1 4.8l-.78-.11 1.15-4.98a1.9 1.9 0 0 1 .37-.79c.17-.21.39-.35.64-.43s.53-.11.85-.06c.09.01.18.03.27.06s.18.05.26.09l-.19.62a1.3 1.3 0 0 0-.2-.06l-.22-.04c-.17-.02-.32-.01-.45.04s-.25.13-.34.25a1.1 1.1 0 0 0-.2.45l-1.15 4.98zm2.01-4.37l-.14.59-2.48-.35.14-.59 2.48.35zm1.62 4.96c-.32-.05-.6-.14-.83-.28s-.42-.33-.56-.55-.23-.47-.26-.75a2.8 2.8 0 0 1 .05-.9l.04-.17c.08-.37.21-.69.39-.96a2.5 2.5 0 0 1 .62-.67c.24-.17.48-.29.75-.36s.52-.09.78-.05c.33.05.6.14.81.29s.37.33.48.55a1.8 1.8 0 0 1 .18.75c.01.28-.02.57-.09.89l-.08.34-3.42-.48.14-.63 2.64.37.01-.06c.04-.2.04-.4.01-.6s-.1-.37-.23-.51-.32-.24-.59-.27c-.18-.03-.35-.01-.52.04a1.2 1.2 0 0 0-.46.27c-.14.13-.26.29-.37.49a2.7 2.7 0 0 0-.25.71l-.04.18c-.05.21-.07.42-.05.62s.07.37.15.53.2.29.35.39.33.17.55.2c.28.04.52.02.74-.07s.42-.21.61-.37l.39.44c-.13.13-.29.26-.47.37a2.3 2.3 0 0 1-.64.25c-.24.06-.51.06-.81.02zm4.37-3.39l-.88 3.8-.78-.11 1.04-4.5.76.11-.14.71zm1.6-.53l-.17.72c-.06-.02-.12-.04-.18-.05l-.19-.04c-.18-.03-.35-.02-.5.02s-.29.1-.4.18-.22.19-.31.33-.16.27-.21.44l-.25.09a3.7 3.7 0 0 1 .26-.75c.11-.23.25-.43.4-.6s.34-.29.54-.37.43-.1.68-.07c.06.01.12.02.19.05s.12.04.14.06zm3 5.1l-.78-.11 1.15-4.98a1.9 1.9 0 0 1 .37-.8c.17-.21.38-.35.64-.43a1.8 1.8 0 0 1 .84-.06c.09.01.18.03.27.06s.18.05.26.09l-.19.62-.2-.06-.22-.04c-.17-.02-.32-.01-.46.04s-.24.13-.34.25-.16.27-.2.45l-1.15 4.98zm2.01-4.37l-.14.59-2.48-.35.14-.59 2.48.35zm.13 2.4l.02-.1a3 3 0 0 1 .35-.88c.16-.27.36-.49.58-.67s.49-.31.77-.39.58-.1.9-.05.6.14.83.3.42.34.55.58.22.49.25.79a2.9 2.9 0 0 1-.06.92l-.02.1a3 3 0 0 1-.35.88c-.16.26-.36.49-.59.67s-.48.31-.77.39-.58.1-.9.05a2.1 2.1 0 0 1-.83-.29 1.7 1.7 0 0 1-.55-.58 2.1 2.1 0 0 1-.25-.79c-.04-.29-.01-.6.06-.92zm.8.01l-.02.1a2.5 2.5 0 0 0-.07.65 1.7 1.7 0 0 0 .12.56c.07.17.18.31.33.42s.32.18.54.21.41.01.59-.05.35-.17.49-.31a2 2 0 0 0 .36-.49c.1-.19.18-.4.23-.62l.02-.1a2.3 2.3 0 0 0 .06-.64 1.5 1.5 0 0 0-.12-.56c-.07-.17-.18-.31-.32-.42a1.1 1.1 0 0 0-.54-.21c-.22-.03-.41-.01-.6.05s-.34.17-.49.31-.26.3-.36.5-.17.39-.23.62zm5.5-.77l-.87 3.8-.78-.11 1.04-4.5.76.11-.14.71zm1.6-.53l-.17.72c-.06-.02-.12-.04-.18-.05l-.19-.03a1.3 1.3 0 0 0-.5.02c-.15.04-.29.1-.41.18s-.22.2-.31.33-.16.27-.21.43l-.25.09a3.5 3.5 0 0 1 .26-.75 2.3 2.3 0 0 1 .4-.6c.16-.17.34-.29.54-.37s.43-.1.68-.07c.06.01.12.02.19.05s.12.04.14.06zm4.78.69l-.14.59-2.47-.35.14-.59 2.48.35zm-1.38-1.32l.78.11-1.03 4.48c-.03.15-.04.27-.01.35s.08.15.15.18a.8.8 0 0 0 .24.07c.06.01.13.01.21.01l.17-.01-.14.63c-.07.01-.15.02-.26.02s-.23 0-.37-.02c-.19-.03-.36-.09-.5-.19a.8.8 0 0 1-.3-.43c-.06-.19-.04-.44.03-.74l1.03-4.48zm3.52-.33l-1.48 6.4-.78-.11 1.47-6.39.78.11zm-1.1 3.95l-.32-.06a2.8 2.8 0 0 1 .34-.83c.15-.25.33-.46.54-.63a2.1 2.1 0 0 1 .69-.37c.25-.08.52-.09.8-.06a1.7 1.7 0 0 1 .59.18 1 1 0 0 1 .4.35c.1.15.16.33.18.55s0 .47-.07.77l-.68 2.95-.79-.11.68-2.96c.05-.24.06-.43.02-.58s-.12-.27-.24-.36-.28-.14-.48-.17-.38-.01-.56.05-.34.15-.49.28a1.9 1.9 0 0 0-.38.45c-.1.17-.18.36-.22.56zm5.49 3.36c-.32-.05-.59-.14-.83-.28s-.42-.33-.56-.55-.23-.47-.26-.75a2.5 2.5 0 0 1 .05-.9l.04-.17c.08-.37.22-.69.39-.96s.38-.5.62-.67.48-.29.75-.36.52-.09.78-.05c.33.05.6.14.81.28s.37.33.48.55a1.8 1.8 0 0 1 .18.75c.01.28-.02.57-.09.89l-.08.35-3.42-.48.14-.63 2.63.37.01-.06c.04-.2.04-.4.01-.6s-.1-.37-.23-.51-.32-.24-.59-.27c-.18-.03-.35-.01-.52.04a1.2 1.2 0 0 0-.46.27c-.14.13-.26.29-.37.49a2.7 2.7 0 0 0-.25.71l-.04.18c-.05.21-.07.42-.05.62s.07.37.15.53.2.29.35.39.33.17.55.2c.28.04.52.02.74-.07s.42-.21.61-.37l.39.44c-.13.13-.29.26-.47.37a2 2 0 0 1-.64.25 2.4 2.4 0 0 1-.81.02zm9.91-4.95l.81.11-.94 4.1a2.2 2.2 0 0 1-1.55 1.66c-.37.1-.76.13-1.16.07-.42-.06-.78-.19-1.08-.39s-.52-.47-.64-.79-.14-.72-.03-1.18l.94-4.1.81.11-.94 4.1c-.07.32-.07.59 0 .81s.2.4.39.53.43.22.71.25a2 2 0 0 0 .78-.04c.23-.07.44-.2.6-.39a1.7 1.7 0 0 0 .36-.76l.94-4.1zm2.97.42l-1.4 6.06-.82-.12 1.4-6.06.82.12zm4.09.57l-4.09 6.22-.67-.09 4.09-6.22.67.09zm4.5.64l.81.11-.95 4.1a2.2 2.2 0 0 1-1.55 1.66c-.37.1-.76.13-1.16.07-.42-.06-.78-.19-1.08-.38s-.51-.47-.64-.79-.13-.72-.03-1.18l.94-4.1.81.11-.94 4.1c-.07.32-.07.59 0 .81s.2.4.39.53.43.22.71.25.54.03.78-.04.44-.2.6-.39.29-.44.36-.76l.94-4.1zm2.62.37l.95 2.53 2.02-2.11.95.13-2.64 2.73 1.29 3.34-.96-.13-.97-2.58-2.06 2.16-.96-.14 2.7-2.78-1.25-3.27.95.13zm-171.96-8.56l-.15.65-3.26-.46.15-.65 3.26.46zm-1.85-5.84l-1.4 6.06-.82-.11 1.4-6.06.82.12zm2.07 2.98l-.15.65-2.83-.4.15-.65 2.83.4zm.99-2.55l-.15.66-3.22-.45.15-.66 3.22.45z"/><use href="#O"/><path d="M215.89 192.39l-1.24 5.37-.79-.11 1.44-6.24.72.1-.13.88zm2.77 1.78l-.02.09c-.07.33-.19.63-.33.9s-.31.49-.51.67a1.8 1.8 0 0 1-.66.4c-.25.08-.51.1-.8.06a1.8 1.8 0 0 1-.74-.25c-.2-.13-.36-.29-.47-.49s-.19-.44-.22-.7-.03-.56.01-.88l.11-.47a3.9 3.9 0 0 1 .4-.87 2.7 2.7 0 0 1 .52-.62c.19-.16.42-.28.66-.35s.51-.08.8-.04.53.13.73.27.35.32.46.55a1.9 1.9 0 0 1 .17.78c.01.3-.02.61-.1.95zm-.81-.02l.02-.09c.05-.22.08-.44.07-.64s-.04-.39-.1-.56-.16-.3-.3-.41-.31-.18-.52-.21a1.2 1.2 0 0 0-.54.03c-.16.05-.3.12-.43.22s-.24.21-.34.35a2.5 2.5 0 0 0-.24.42l-.25 1.08a2.2 2.2 0 0 0 .11.58 1.1 1.1 0 0 0 .31.47c.15.13.35.21.6.24.21.03.4.01.58-.05s.33-.17.46-.31.25-.3.35-.49.17-.4.22-.63zm3.16 2.81c-.32-.05-.59-.14-.83-.28s-.42-.33-.56-.55-.23-.47-.26-.75a2.5 2.5 0 0 1 .05-.9l.04-.18c.08-.37.22-.68.39-.95s.38-.5.62-.67.48-.29.75-.36.52-.09.78-.05c.33.05.6.14.81.28s.38.33.48.55.17.47.18.75-.02.57-.09.89l-.08.35-3.42-.48.14-.63 2.63.37.01-.06a1.9 1.9 0 0 0 .01-.6c-.03-.2-.1-.37-.23-.51s-.32-.24-.59-.27a1.3 1.3 0 0 0-.52.04 1.2 1.2 0 0 0-.46.27c-.14.13-.26.29-.37.49a2.7 2.7 0 0 0-.25.71l-.04.17c-.05.21-.07.42-.05.62s.07.37.15.53.2.29.35.39.33.17.55.2c.28.04.52.02.74-.07s.42-.21.61-.37l.39.44a2.5 2.5 0 0 1-.47.37 2.2 2.2 0 0 1-.64.25c-.25.06-.51.06-.81.02zm4.38-3.4l-.88 3.8-.78-.11 1.04-4.5.76.11-.14.71zm1.6-.53l-.17.72c-.06-.02-.12-.04-.18-.05l-.19-.03a1.3 1.3 0 0 0-.5.02c-.15.04-.29.1-.41.18s-.22.2-.31.33a1.5 1.5 0 0 0-.21.44l-.25.09a3.7 3.7 0 0 1 .26-.75 2.3 2.3 0 0 1 .4-.6c.16-.17.34-.29.54-.37s.43-.1.68-.07c.06.01.12.02.19.05s.12.04.14.06zm2.84.43l-.14.59-2.47-.35.14-.59 2.47.35zm-1.38-1.33l.78.11-1.03 4.48c-.03.15-.04.27-.01.36s.08.14.15.18a.8.8 0 0 0 .24.07c.06.01.13.01.21.01l.17-.01-.14.63c-.07.01-.15.02-.26.02s-.23 0-.37-.02c-.19-.03-.36-.09-.5-.19a.8.8 0 0 1-.3-.43c-.06-.19-.04-.44.03-.73l1.03-4.48zm5.03 2.74l-1.24 5.37-.79-.11 1.44-6.24.72.1-.13.88zm2.77 1.78l-.02.09a4 4 0 0 1-.33.9c-.14.27-.31.49-.51.67a1.8 1.8 0 0 1-.66.4c-.25.08-.51.1-.8.06a1.8 1.8 0 0 1-.74-.25c-.2-.13-.36-.29-.47-.49s-.19-.44-.22-.7-.03-.56.01-.88l.11-.47a3.9 3.9 0 0 1 .4-.87 2.7 2.7 0 0 1 .52-.62c.19-.16.42-.28.66-.35s.51-.08.8-.04.53.13.73.27.35.32.46.55a1.9 1.9 0 0 1 .17.78c.01.3-.02.61-.1.95zm-.81-.02l.02-.09c.05-.22.08-.44.07-.64a1.5 1.5 0 0 0-.1-.56c-.06-.17-.16-.3-.3-.41s-.31-.18-.52-.21a1.2 1.2 0 0 0-.54.03c-.16.05-.3.12-.43.22s-.24.21-.34.35-.18.27-.24.42l-.25 1.08a2.2 2.2 0 0 0 .11.58c.06.18.17.34.31.47s.35.21.6.24c.21.03.4.01.58-.05s.33-.17.46-.31.25-.3.35-.49.17-.4.22-.63zm1.59.22l.02-.1c.07-.32.19-.62.35-.88a2.5 2.5 0 0 1 .58-.67 2.1 2.1 0 0 1 .77-.39c.28-.08.58-.1.9-.05s.6.14.83.3.42.34.55.57.22.49.25.79a2.9 2.9 0 0 1-.06.92l-.02.09a3 3 0 0 1-.35.88c-.16.26-.36.49-.59.67a2.2 2.2 0 0 1-1.67.44 2 2 0 0 1-.83-.29c-.23-.15-.41-.34-.55-.57s-.22-.5-.25-.79a2.9 2.9 0 0 1 .06-.92zm.8.01l-.02.1a2.5 2.5 0 0 0-.07.65c.01.21.05.39.12.56s.18.31.33.42.32.18.54.21.41.01.59-.05.35-.17.49-.31a1.9 1.9 0 0 0 .36-.49c.1-.19.18-.4.23-.62l.02-.1a2.3 2.3 0 0 0 .06-.64c-.01-.21-.05-.39-.12-.56s-.18-.31-.32-.42a1.1 1.1 0 0 0-.54-.21c-.22-.03-.41-.01-.6.05s-.34.17-.49.31-.26.3-.36.5-.17.39-.23.62zm6.78 2.1c.03-.11.02-.22 0-.32s-.11-.21-.24-.3-.34-.2-.63-.3l-.65-.28c-.19-.1-.34-.21-.46-.34a1 1 0 0 1-.24-.41c-.04-.15-.04-.32 0-.5a1.3 1.3 0 0 1 .23-.49c.11-.15.27-.27.44-.37s.38-.17.6-.21a2.3 2.3 0 0 1 .72-.01 2 2 0 0 1 .89.32 1.3 1.3 0 0 1 .48.6 1.2 1.2 0 0 1 .04.73l-.78-.11c.03-.12.02-.25-.03-.38s-.13-.24-.26-.34-.29-.16-.49-.19c-.22-.03-.4-.02-.55.03s-.26.11-.35.2-.14.19-.16.3c-.02.08-.02.16-.01.23s.06.14.12.2a1.3 1.3 0 0 0 .29.2 5 5 0 0 0 .5.22 4 4 0 0 1 .86.43 1.2 1.2 0 0 1 .44.5c.08.18.09.4.04.64-.05.2-.13.37-.25.52a1.4 1.4 0 0 1-.46.38c-.18.09-.39.16-.62.2s-.48.03-.75-.01c-.4-.06-.73-.18-.97-.36s-.41-.39-.51-.64-.11-.49-.05-.74l.79.11c-.04.21-.01.39.07.53s.2.25.35.32a1.6 1.6 0 0 0 .47.14c.21.03.4.03.56-.01s.29-.09.39-.18.16-.19.19-.32zm3.42-2.94l-1.04 4.51-.79-.11 1.04-4.5.79.11zm-.57-1.31c.03-.12.09-.22.19-.3s.22-.1.38-.08.25.08.31.18.08.21.05.33-.09.22-.19.29a.5.5 0 0 1-.37.08c-.15-.02-.26-.08-.32-.17s-.07-.21-.04-.32zm3.75 1.76l-.14.59-2.47-.35.14-.59 2.48.35zm-1.39-1.33l.78.11-1.03 4.48c-.03.15-.04.27-.01.36s.08.14.15.18.15.06.24.07c.06.01.13.01.21.01l.17-.01-.14.63c-.07.01-.15.02-.26.02s-.23 0-.37-.02c-.19-.03-.36-.09-.5-.19a.8.8 0 0 1-.3-.43c-.06-.19-.04-.44.03-.74l1.03-4.48zm3.15 1.58l-1.04 4.5-.79-.11 1.04-4.5.79.11zm-.57-1.31c.03-.12.09-.22.19-.3s.22-.1.38-.08.25.08.31.18.08.21.05.33-.09.22-.19.29a.5.5 0 0 1-.37.08c-.15-.02-.26-.08-.32-.17s-.07-.21-.04-.32zm1.09 3.76l.02-.1c.07-.32.19-.62.35-.88a2.5 2.5 0 0 1 .58-.67 2.1 2.1 0 0 1 .77-.39c.28-.08.58-.1.9-.05s.6.14.83.3.42.34.55.58.22.49.25.79a2.9 2.9 0 0 1-.06.92l-.02.1c-.07.33-.19.62-.35.88s-.36.49-.59.67-.48.31-.77.39-.58.09-.9.05-.6-.14-.83-.29a1.7 1.7 0 0 1-.55-.58c-.14-.24-.22-.5-.25-.79a2.9 2.9 0 0 1 .06-.92zm.81.01l-.02.1a2.5 2.5 0 0 0-.07.65 1.7 1.7 0 0 0 .12.56c.07.17.18.31.33.42s.32.18.54.21.41.01.59-.05.35-.17.49-.3a1.9 1.9 0 0 0 .36-.49c.1-.19.18-.4.23-.62l.02-.09a2.3 2.3 0 0 0 .06-.64c-.01-.21-.05-.4-.12-.56a1.1 1.1 0 0 0-.86-.63c-.22-.03-.41-.01-.6.05s-.34.17-.49.31-.26.3-.36.5a2.7 2.7 0 0 0-.22.62zm5.43-.52l-.82 3.54-.78-.11 1.04-4.5.74.1-.18.97zm-.44 1.09l-.32-.06a2.9 2.9 0 0 1 .34-.83c.15-.25.33-.46.54-.63a2.1 2.1 0 0 1 .69-.37 1.9 1.9 0 0 1 .79-.06 1.7 1.7 0 0 1 .59.18 1 1 0 0 1 .4.35c.1.15.16.33.18.55s0 .47-.07.77l-.68 2.95-.79-.11.68-2.96c.05-.23.06-.43.02-.58s-.12-.27-.24-.36-.28-.14-.48-.17-.38-.01-.56.05-.34.15-.49.28a1.9 1.9 0 0 0-.38.45c-.1.17-.18.36-.23.56z"/></g><use href="#P" class="B"/><use href="#P" stroke="#c6dfff" class="F"/><use href="#N" x="16.1" y="85.9" class="C"/><path d="M208.8 247.7c.5.1 1 .2 1.4.2l1 .3c.34.11.68.24 1 .4l-.6 1.8c-.4-.1-.7-.1-1-.2s-.6-.1-1-.2c-.3-.1-.8-.1-1.3-.2a2.1 2.1 0 0 0-1.4.2c-.4.2-.7.5-.9 1-.35.69-.59 1.43-.7 2.2-.2.9-.3 1.7-.3 2.3s.1 1 .4 1.2c.3.3.7.4 1.3.5l1.9.2c.53.08 1.06.12 1.6.1l-.2 1.9c-.6.1-1.1.1-1.7.1s-1.3-.1-2.1-.2c-1.2-.2-2.1-.5-2.7-1a3.1 3.1 0 0 1-1.1-2.1c-.1-.9 0-2.1.3-3.5s.7-2.5 1.3-3.4a3.9 3.9 0 0 1 2-1.6c.6-.1 1.6-.2 2.8 0zm-11.5-1.6l1.9.3 1.9.3c.6.1 1.2.2 1.7.4l-.5 1.8-4.5-.6c-.3 0-.5 0-.7.1s-.3.3-.3.6l-1.4 5.9c-.1.3 0 .5.1.7s.3.3.6.3l4.5.6-.3 1.9c-.6 0-1.1-.1-1.8-.1-.6-.1-1.3-.1-1.9-.2l-1.9-.3c-.7-.1-1.3-.4-1.7-.9s-.5-1.1-.3-1.8l1.6-7a2.6 2.6 0 0 1 1.1-1.6c.5-.4 1.1-.5 1.9-.4zm-3.3 4.4l7 1-.4 1.8-7-1 .4-1.8z" class="B"/><g class="E"><path d="M236.51 250.36l-.1.44c-.15.64-.37 1.21-.66 1.69a4.3 4.3 0 0 1-1.04 1.19c-.4.31-.85.53-1.33.66s-1 .15-1.54.08c-.53-.07-1-.24-1.4-.49a2.9 2.9 0 0 1-.96-.98c-.24-.4-.39-.87-.45-1.41a5.2 5.2 0 0 1 .13-1.77l.1-.44a5.7 5.7 0 0 1 .67-1.69 4.2 4.2 0 0 1 1.05-1.19c.41-.31.85-.54 1.33-.67a3.9 3.9 0 0 1 1.53-.08 3.5 3.5 0 0 1 1.41.49c.4.25.72.58.95.99a3.4 3.4 0 0 1 .45 1.4c.06.53.02 1.12-.13 1.77zm-1.75.21l.1-.45a4.8 4.8 0 0 0 .15-1.24c-.01-.37-.06-.68-.18-.95s-.28-.48-.5-.63-.49-.26-.8-.3-.61-.02-.88.07a1.9 1.9 0 0 0-.74.46 3.1 3.1 0 0 0-.6.84 5.5 5.5 0 0 0-.41 1.2l-.1.45a5.2 5.2 0 0 0-.15 1.24c.01.37.07.68.18.95.12.27.29.48.5.64s.48.26.8.3.61.02.88-.07a1.9 1.9 0 0 0 .74-.46 3 3 0 0 0 .59-.84 5.1 5.1 0 0 0 .41-1.2zm4.03 4.71l-1.58-.22 1.59-6.89c.11-.47.29-.86.55-1.16s.58-.51.97-.63.81-.15 1.27-.08c.15.02.3.05.43.09a3.6 3.6 0 0 1 .4.14l-.3 1.17c-.07-.03-.15-.05-.24-.08l-.29-.05c-.21-.03-.4-.02-.57.03s-.31.15-.42.28a1.1 1.1 0 0 0-.23.5l-1.59 6.89zm2.75-6.12l-.25 1.11-3.84-.54.26-1.11 3.84.54zm1.56 6.73l-1.58-.22 1.59-6.89c.11-.47.29-.86.55-1.16s.58-.51.97-.63a2.9 2.9 0 0 1 1.27-.08c.15.02.3.05.43.09a3.6 3.6 0 0 1 .4.14l-.3 1.17c-.07-.03-.15-.06-.24-.08l-.29-.05a1.3 1.3 0 0 0-.57.03c-.17.05-.31.15-.42.28a1.2 1.2 0 0 0-.23.5l-1.59 6.89zm2.75-6.12l-.26 1.11-3.84-.54.26-1.11 3.84.54z"/><path d="M248.08 256.71a3.3 3.3 0 0 1-1.25-.42c-.35-.21-.63-.47-.84-.79a2.7 2.7 0 0 1-.4-1.06c-.06-.39-.03-.8.06-1.23l.05-.23a4.2 4.2 0 0 1 .52-1.29c.23-.38.52-.7.84-.95a2.9 2.9 0 0 1 1.09-.53 3.2 3.2 0 0 1 1.26-.06 2.8 2.8 0 0 1 1.15.4c.31.2.55.45.72.75s.27.66.3 1.05-.01.82-.11 1.28l-.15.65-5.02-.71.24-1.06 3.48.49.03-.12c.05-.25.05-.48.01-.69s-.14-.4-.29-.55-.37-.25-.66-.29c-.23-.03-.45-.01-.65.07a1.4 1.4 0 0 0-.52.36c-.15.16-.28.37-.4.61a4.1 4.1 0 0 0-.27.82l-.05.23c-.06.26-.08.51-.06.75s.09.45.19.63.25.34.43.46.41.2.67.23c.33.05.64.03.93-.06a2.4 2.4 0 0 0 .83-.47l.6.92a3 3 0 0 1-.67.48c-.27.15-.57.25-.92.32a3.6 3.6 0 0 1-1.15.01zm6.39-4.4l-1.16 5.02-1.56-.22 1.45-6.31 1.48.21-.21 1.3zm2.25-1.06l-.35 1.43-.29-.08-.3-.05a1.9 1.9 0 0 0-.66.01c-.2.04-.37.11-.52.21s-.27.24-.37.41-.18.35-.24.57l-.33-.09a4.8 4.8 0 0 1 .38-1.09 3.7 3.7 0 0 1 .57-.85c.22-.24.46-.41.73-.51s.57-.14.88-.1c.09.01.18.03.27.06a1.1 1.1 0 0 1 .23.09zm8.55 6.46l-.29 1.26-4.59-.65.29-1.26 4.58.65zm-2.42-7.8l-1.96 8.49-1.63-.23 1.96-8.49 1.63.23zm2.68 3.99l-.28 1.23-3.99-.56.28-1.23 3.99.56zm1.39-3.42l-.29 1.26-4.57-.64.29-1.26 4.57.64zm1.31 7.74l2.68-4.93 1.63.23-3.65 6-.99-.14.33-1.16zm.09-5.29l.32 5.37-.21 1.16-1-.14-.75-6.62 1.64.23zm7.34 6.16l.67-2.91c.05-.21.06-.4.02-.57s-.12-.3-.26-.41a1.1 1.1 0 0 0-.56-.21c-.21-.03-.4-.02-.57.03s-.31.13-.42.25c-.11.11-.19.25-.22.41l-1.57-.22a1.7 1.7 0 0 1 .36-.71 2.3 2.3 0 0 1 .68-.55c.28-.15.6-.26.95-.32a3.8 3.8 0 0 1 1.15 0 3.1 3.1 0 0 1 1.24.43c.35.21.59.5.73.85s.16.78.05 1.26l-.63 2.75a4.9 4.9 0 0 0-.13.82c-.01.23.01.43.06.6l-.02.1-1.59-.22c-.04-.17-.05-.38-.03-.63s.05-.5.11-.74zm.79-2.47l-.2.92-.99-.14a2.5 2.5 0 0 0-.66-.01 1.4 1.4 0 0 0-.5.14c-.14.07-.25.17-.34.29s-.15.25-.19.41-.03.3.01.44.13.25.25.34c.13.09.28.15.47.17a1.6 1.6 0 0 0 1.33-.4c.15-.14.25-.29.29-.43l.3.73c-.09.15-.21.31-.37.47s-.33.31-.54.44a2.6 2.6 0 0 1-.72.3c-.27.07-.56.08-.89.03-.42-.06-.77-.19-1.06-.4s-.5-.47-.62-.78-.14-.65-.06-1.01c.08-.33.21-.62.39-.86s.42-.43.71-.57.63-.23 1.02-.27.83-.03 1.31.04l1.05.15zm5.61-4.49l-2.06 8.95-1.57-.22 2.06-8.95 1.57.22zm3.59 8.2l1.11-4.81 1.58.22-1.45 6.31-1.48-.21.25-1.51zm.5-1.28l.49.06a4.9 4.9 0 0 1-.41 1.15 3 3 0 0 1-.66.87c-.26.23-.56.4-.89.51s-.71.12-1.13.06c-.32-.04-.59-.13-.83-.25s-.43-.3-.58-.51-.23-.48-.26-.79 0-.68.09-1.1l.94-4.07 1.56.22-.94 4.09c-.05.21-.06.39-.05.53s.06.27.13.37.16.18.27.23c.12.05.24.09.38.11a1.8 1.8 0 0 0 .95-.09c.26-.11.46-.3.61-.54s.27-.52.34-.84zm5.95 2.35l.67-2.91c.05-.21.05-.4.01-.57s-.13-.3-.26-.41-.32-.18-.56-.21c-.21-.03-.4-.02-.57.03s-.31.13-.42.25-.19.25-.22.41l-1.57-.22a1.7 1.7 0 0 1 .36-.71 2.3 2.3 0 0 1 .68-.55 3 3 0 0 1 .95-.32 3.8 3.8 0 0 1 1.15 0 3.1 3.1 0 0 1 1.24.43c.35.21.59.5.73.85s.16.77.05 1.26l-.63 2.75a4.9 4.9 0 0 0-.13.82c-.01.23.01.43.06.6l-.02.1-1.59-.22c-.04-.17-.05-.38-.03-.63a6 6 0 0 1 .11-.74zm.8-2.47l-.2.92-.99-.14a2.5 2.5 0 0 0-.66-.01 1.4 1.4 0 0 0-.5.14c-.14.07-.25.17-.34.29s-.15.25-.19.41-.03.3.01.44.13.25.25.34.28.15.47.18a1.6 1.6 0 0 0 1.33-.4c.15-.14.25-.29.29-.43l.3.73c-.09.15-.21.31-.37.47a2.7 2.7 0 0 1-.54.44 2.6 2.6 0 0 1-.72.3c-.27.07-.56.08-.89.03-.41-.06-.77-.19-1.06-.4s-.5-.47-.62-.78-.15-.65-.06-1.01a2.2 2.2 0 0 1 .39-.86 2 2 0 0 1 .71-.57 2.9 2.9 0 0 1 1.02-.27 5.4 5.4 0 0 1 1.31.04l1.06.15zm6.36-1.65l-.25 1.11-3.67-.52.26-1.11 3.67.52zm-2.33-1.93l1.57.22-1.39 6.04c-.04.19-.05.33-.02.44s.09.19.18.24.21.08.36.1c.1.02.2.02.29.02h.23l-.26 1.16a3.3 3.3 0 0 1-.47.04c-.17 0-.35-.01-.56-.04-.35-.05-.65-.15-.88-.31s-.4-.38-.48-.66-.08-.65.03-1.09l1.42-6.16zm4.77 8.91a3.3 3.3 0 0 1-1.25-.42c-.35-.21-.63-.47-.84-.79s-.34-.67-.4-1.06-.03-.8.06-1.23l.05-.23c.11-.49.28-.92.52-1.29s.51-.7.84-.95a3 3 0 0 1 1.09-.53 3.2 3.2 0 0 1 1.26-.06 2.8 2.8 0 0 1 1.15.4c.31.2.56.45.73.75s.27.66.3 1.05 0 .82-.11 1.28l-.15.65-5.02-.71.24-1.06 3.48.49.03-.12c.05-.25.05-.48.01-.69s-.14-.4-.29-.55-.37-.25-.66-.29c-.23-.03-.45-.01-.65.07a1.4 1.4 0 0 0-.52.36c-.15.16-.28.37-.4.61a4.1 4.1 0 0 0-.27.82l-.05.23c-.06.26-.08.51-.06.75s.09.45.19.63.25.34.43.46c.19.12.41.19.67.23.33.05.64.03.93-.06a2.4 2.4 0 0 0 .83-.47l.6.92c-.18.18-.4.34-.67.48s-.57.25-.92.32a3.6 3.6 0 0 1-1.15.01zm7.83-.41l1.75-7.61 1.58.22-2.06 8.95-1.42-.2.15-1.36zm-3.72-2.32l.03-.12a5.2 5.2 0 0 1 .47-1.29c.21-.38.45-.7.73-.95a2.6 2.6 0 0 1 .94-.55c.35-.11.72-.14 1.11-.08.38.05.7.18.95.37s.45.44.58.75a3.2 3.2 0 0 1 .26 1.06c.03.4.03.83-.02 1.3l-.08.33a7.2 7.2 0 0 1-.55 1.19 3.9 3.9 0 0 1-.72.91c-.27.25-.56.43-.88.54a2.2 2.2 0 0 1-1.06.08c-.38-.06-.72-.18-1-.39a2 2 0 0 1-.63-.78c-.15-.32-.23-.68-.26-1.08s.02-.83.13-1.29zm1.6.1l-.03.12a4.1 4.1 0 0 0-.11.77c-.01.24.02.46.09.66s.17.35.31.48a1.1 1.1 0 0 0 .58.24c.31.04.58.01.8-.09s.43-.27.6-.49a2.8 2.8 0 0 0 .4-.77l.21-.92c.04-.24.05-.46.02-.66s-.07-.39-.15-.55-.2-.29-.35-.4-.34-.17-.58-.21c-.24-.03-.46-.01-.65.07s-.36.2-.51.37-.28.37-.38.6a4.1 4.1 0 0 0-.25.77z"/></g><path d="M399.7 268.2l-1.4 6.1-.8-.1 1.2-5.1-1.7.3.2-.7 2.4-.5h.1zm4.9.7l-1.4 6.1-.8-.1 1.2-5.1-1.7.3.2-.7 2.4-.5h.1zm1 6.1c0-.1.1-.2.2-.3s.2-.1.4-.1.3.1.3.2c.1.1.1.2.1.3s-.1.2-.2.3-.2.1-.4.1-.3-.1-.3-.2c-.1-.1-.1-.2-.1-.3zm.9-3.7c0-.1.1-.2.2-.3s.2-.1.4-.1.3.1.3.2c.1.1.1.2.1.3s-.1.2-.2.3-.2.1-.4.1-.3-.1-.3-.2c-.1-.1-.1-.2-.1-.3zm5.8 1.4l-.2.9c-.1.5-.3.9-.4 1.2l-.6.8c-.2.2-.5.3-.7.4-.26.1-.54.1-.8 0-.2 0-.4-.1-.6-.2s-.3-.2-.5-.4c-.1-.2-.2-.3-.3-.6s-.1-.5-.1-.8.1-.7.2-1.1l.2-.9c.1-.5.3-.9.4-1.2l.6-.8c.2-.2.5-.3.7-.4a1.1 1.1 0 0 1 .8 0c.2 0 .5.1.6.2.2.1.4.2.5.3s.2.3.3.5.1.5.1.8c-.1.5-.1.9-.2 1.3zm-1.1.9l.3-1.2c.1-.3.1-.5.1-.7v-.6c0-.2-.1-.3-.2-.4s-.2-.2-.3-.2c-.1-.1-.2-.1-.4-.1h-.5c-.2 0-.3.1-.4.3-.1.1-.2.3-.4.5-.1.2-.2.5-.3.9l-.3 1.2c-.1.3-.1.5-.1.7v.6c0 .2.1.3.2.4l.3.3c.1.1.2.1.4.1h.5c.2-.1.3-.1.4-.3.1-.1.3-.3.4-.6.2-.3.3-.5.3-.9zm5.9-.2l-.2.9c-.1.5-.3.9-.4 1.2l-.6.8c-.2.2-.5.3-.7.4-.26.1-.54.1-.8 0-.2 0-.4-.1-.6-.2s-.3-.2-.5-.4c-.1-.2-.2-.3-.3-.6s-.1-.5-.1-.8.1-.7.2-1.1l.2-.9c.1-.5.3-.9.4-1.2l.6-.8c.2-.2.5-.3.7-.4a1.1 1.1 0 0 1 .8 0c.2 0 .5.1.6.2.2.1.4.2.5.3s.2.3.3.5.1.5.1.8c0 .5-.1.9-.2 1.3zm-1 .9l.3-1.2c.1-.3.1-.5.1-.7v-.6c0-.2-.1-.3-.2-.4s-.2-.2-.3-.2c-.1-.1-.2-.1-.4-.1h-.5c-.2 0-.3.1-.4.3-.1.1-.2.3-.4.5-.1.2-.2.5-.3.9l-.3 1.2c-.1.3-.1.5-.1.7v.6c0 .2.1.3.2.4l.3.3c.1.1.2.1.4.1h.5c.2-.1.3-.1.4-.3.1-.1.3-.3.4-.6l.3-.9zm6.4 1l-1.6-.2.2-.7 1.6.2h.8c.2-.1.4-.2.5-.4l.3-.6v-.6c0-.2-.2-.4-.3-.5-.2-.1-.4-.2-.7-.3l-1.5-.2-1.2 5.4-.8-.1 1.4-6.1 2.3.3c.5.1.8.2 1.1.4s.5.5.6.8.1.6 0 1-.2.7-.5 1c-.2.3-.5.4-.9.5s-.8.2-1.3.1zm4.3-3.2l.8.1.9 5.2 3.2-4.7.8.1-3.9 5.7-.6-.1-1.2-6.3zm-.2 0l.7.1-.7 3.7-.5 2.4-.8-.1 1.3-6.1zm5.4.7l.7.1-1.4 6.1-.8-.1.5-2.4 1-3.7z" fill="#9f9f9f"/><g fill="#3b3b3b"><path d="M229.23 266.01l-.15.65-3.33-.47.15-.65 3.33.47zm-2.61-3.06l-1.4 6.06-.82-.12 1.4-6.06.82.12zm3.92.55l-1.4 6.06-.81-.11 1.4-6.06.81.11zm2.81 5.86l.53-2.32a.9.9 0 0 0 0-.48c-.04-.14-.12-.26-.25-.35s-.3-.15-.51-.18a1.2 1.2 0 0 0-.54.03c-.16.05-.3.12-.41.21s-.17.21-.2.33l-.78-.11a1.2 1.2 0 0 1 .24-.46c.12-.15.28-.27.46-.38s.41-.18.65-.23.5-.05.78-.01c.33.05.61.14.84.29s.39.34.49.59.1.53.03.87l-.48 2.1c-.03.15-.06.31-.07.48s0 .33.02.46l-.02.07-.82-.12a1.4 1.4 0 0 1-.01-.37c.01-.15.03-.29.06-.42zm.59-1.94l-.12.54-.79-.11c-.22-.03-.42-.04-.61-.03s-.34.04-.48.09-.24.13-.33.22-.15.21-.18.35-.03.27.01.4a.6.6 0 0 0 .23.32c.12.09.27.14.46.17.24.03.46.01.67-.06s.38-.18.52-.31.23-.26.27-.4l.25.42c-.05.11-.13.23-.25.36a2.1 2.1 0 0 1-.45.36c-.18.11-.37.19-.59.25a1.8 1.8 0 0 1-.7.03 1.7 1.7 0 0 1-.78-.29c-.21-.15-.35-.34-.43-.56s-.09-.46-.03-.71c.06-.24.15-.45.29-.62s.31-.31.52-.4.45-.16.72-.19.56-.02.87.02l.91.13zm2.91-.7l-.88 3.8-.78-.11 1.04-4.5.76.11-.14.71zm1.6-.53l-.17.72c-.06-.02-.12-.04-.18-.05l-.19-.04c-.18-.03-.35-.02-.5.02s-.29.1-.41.18a1.1 1.1 0 0 0-.31.33c-.09.14-.16.27-.21.44l-.25.09a3.7 3.7 0 0 1 .26-.75c.11-.23.25-.43.4-.6s.34-.29.54-.37.43-.1.68-.07c.06.01.12.02.19.05s.12.04.14.06zm1.34.95l-.88 3.8-.78-.11 1.04-4.5.76.11-.14.71zm1.6-.53l-.17.72c-.06-.02-.12-.04-.18-.05l-.19-.03c-.18-.03-.35-.02-.5.02s-.29.1-.41.18a1.1 1.1 0 0 0-.31.33c-.09.14-.15.27-.21.44l-.25.09a3.5 3.5 0 0 1 .26-.75c.11-.23.25-.43.4-.6s.34-.29.54-.37.43-.1.68-.07c.06.01.12.02.19.05s.12.04.14.06zm1.14 4.35l2.2-3.86.84.12-3.03 4.94c-.07.1-.15.22-.25.33s-.21.23-.35.33a1.4 1.4 0 0 1-.45.23c-.17.05-.35.07-.56.04-.06-.01-.14-.03-.23-.06l-.19-.07.14-.62c.02.01.06.01.1.02l.1.02c.18.02.33.02.47-.01s.26-.09.37-.19.22-.23.32-.41l.53-.83zm0-4.17l.38 3.67.02.84-.63.2-.62-4.83.85.12zm6.75.95l-1.04 4.5-.79-.11 1.04-4.5.79.11zm-.57-1.31c.03-.12.09-.22.19-.3s.23-.1.38-.08.25.08.31.18.08.21.05.33-.09.22-.19.29a.5.5 0 0 1-.37.08c-.15-.02-.26-.08-.32-.17s-.07-.21-.04-.33zm3.73 5.18c.03-.11.02-.22 0-.32s-.11-.2-.24-.3-.34-.2-.63-.3l-.65-.28a1.9 1.9 0 0 1-.46-.34c-.12-.12-.2-.26-.24-.41s-.05-.32 0-.5a1.3 1.3 0 0 1 .23-.49c.11-.15.27-.27.44-.37s.38-.17.6-.21a2.3 2.3 0 0 1 .72-.01 2 2 0 0 1 .9.32 1.3 1.3 0 0 1 .48.6 1.2 1.2 0 0 1 .04.73l-.78-.11c.03-.12.02-.25-.03-.38-.04-.13-.13-.24-.26-.34s-.29-.16-.49-.19c-.22-.03-.4-.02-.55.03s-.26.11-.35.2-.14.19-.16.3c-.02.08-.02.16-.01.23s.06.13.12.2.16.13.29.19a5 5 0 0 0 .5.22 4 4 0 0 1 .86.43 1.2 1.2 0 0 1 .44.5c.08.18.09.4.04.64a1.2 1.2 0 0 1-.25.52 1.3 1.3 0 0 1-.46.37 2 2 0 0 1-.62.2 2.7 2.7 0 0 1-.75-.01c-.4-.06-.73-.18-.97-.36s-.42-.39-.51-.64-.11-.49-.05-.74l.79.11c-.04.21-.01.39.07.53s.2.24.35.32.31.12.47.14c.22.03.4.03.56-.01s.29-.09.39-.18.16-.19.19-.32zm5.57 2.1c-.32-.05-.6-.14-.83-.28s-.42-.33-.56-.55-.23-.47-.26-.75-.02-.58.05-.89l.04-.18c.08-.37.21-.69.39-.95a2.5 2.5 0 0 1 .62-.67 2.2 2.2 0 0 1 .75-.36c.26-.07.52-.09.78-.05.33.05.6.14.81.28s.37.33.48.55a1.8 1.8 0 0 1 .18.75c.01.28-.02.57-.09.89l-.08.35-3.42-.48.14-.63 2.64.37.01-.06a1.9 1.9 0 0 0 .01-.6c-.03-.2-.1-.37-.23-.51s-.33-.24-.59-.27a1.3 1.3 0 0 0-.52.04c-.17.05-.32.14-.46.27s-.26.29-.37.49a2.7 2.7 0 0 0-.25.71l-.04.18c-.05.21-.07.42-.05.62s.07.37.15.53.2.29.35.39.33.17.55.2c.28.04.52.02.74-.07a2 2 0 0 0 .61-.37l.39.44c-.13.13-.29.26-.47.37a2.3 2.3 0 0 1-.64.25c-.24.06-.51.06-.81.02zm4.2-.21l2.13-3.63.8.11-2.68 4.27-.53-.07.28-.68zm-.17-3.96l.41 4.01-.07.69-.53-.07-.62-4.74.8.11zm5.63 4.65l.53-2.32c.04-.18.04-.34 0-.48s-.12-.26-.25-.35a1.1 1.1 0 0 0-.51-.18 1.2 1.2 0 0 0-.54.03c-.16.05-.3.12-.41.21s-.17.21-.2.33l-.78-.11a1.2 1.2 0 0 1 .24-.46c.12-.15.28-.27.46-.38s.41-.18.65-.23.5-.05.78-.01c.33.05.61.14.84.29s.39.34.49.59.1.53.03.87l-.48 2.1c-.03.15-.06.31-.07.48s0 .32.02.45l-.01.07-.82-.11c-.02-.1-.02-.22-.01-.37a2.8 2.8 0 0 1 .06-.42zm.59-1.94l-.12.54-.79-.11a3.1 3.1 0 0 0-.61-.03 1.5 1.5 0 0 0-.48.09c-.13.05-.25.13-.33.22s-.14.21-.18.35-.03.28.01.4.11.23.23.32.27.14.46.17c.24.03.46.01.67-.06s.38-.18.52-.31.24-.26.27-.39l.25.42c-.05.11-.13.24-.25.36s-.27.25-.44.36a2.1 2.1 0 0 1-.59.25c-.22.06-.45.07-.7.03-.31-.04-.57-.14-.77-.29s-.35-.34-.43-.56-.09-.45-.03-.7a1.5 1.5 0 0 1 .29-.62c.14-.17.31-.31.52-.4a2.2 2.2 0 0 1 .72-.19 3.6 3.6 0 0 1 .87.02l.91.13zm3.57-3.29l-1.48 6.4-.79-.11 1.48-6.39.79.11zm2.82 5.93l.8-3.46.79.11-1.04 4.5-.75-.11.2-1.05zm.37-.93l.33.04a3.6 3.6 0 0 1-.29.82c-.12.24-.27.45-.46.62a1.6 1.6 0 0 1-.65.36c-.25.07-.54.08-.87.04a1.8 1.8 0 0 1-.59-.18 1.1 1.1 0 0 1-.41-.36c-.1-.15-.16-.34-.19-.56s0-.49.07-.79l.67-2.91.78.11-.67 2.91c-.05.2-.06.37-.05.51s.06.25.12.34.14.15.24.2.19.07.3.09c.33.05.61.02.83-.08s.4-.25.54-.45a2 2 0 0 0 .3-.7zm4.25 1.86l.53-2.32c.04-.18.04-.34 0-.48s-.12-.26-.25-.35-.3-.15-.51-.18a1.2 1.2 0 0 0-.54.03c-.16.05-.3.12-.41.21s-.17.21-.2.33l-.78-.11a1.2 1.2 0 0 1 .24-.46c.12-.15.28-.27.46-.38s.41-.18.65-.23a2.4 2.4 0 0 1 .78-.01c.33.05.61.14.84.29s.39.34.49.59.1.53.03.87l-.48 2.1a3.2 3.2 0 0 0-.07.48c-.01.17 0 .32.02.45l-.02.07-.82-.11a1.4 1.4 0 0 1-.01-.37c.01-.15.03-.29.06-.42zm.59-1.94l-.12.54-.79-.11c-.22-.03-.43-.04-.61-.03a1.5 1.5 0 0 0-.47.09.8.8 0 0 0-.33.22c-.08.09-.14.21-.18.35s-.03.27.01.4a.6.6 0 0 0 .23.32c.12.09.27.14.46.17.24.03.46.01.67-.06s.38-.18.52-.31.23-.26.27-.4l.25.42c-.05.11-.13.24-.25.37a2.3 2.3 0 0 1-.44.36 2.1 2.1 0 0 1-.59.25c-.22.06-.45.07-.7.03a1.7 1.7 0 0 1-.78-.29c-.21-.15-.35-.34-.43-.56s-.09-.46-.03-.7a1.5 1.5 0 0 1 .29-.62c.14-.17.31-.31.52-.4a2.2 2.2 0 0 1 .72-.19 3.6 3.6 0 0 1 .87.02l.91.13zm4.2-1.24l-.14.59-2.47-.35.14-.59 2.47.35zm-1.38-1.32l.78.11-1.03 4.48c-.04.15-.04.27-.01.36s.08.14.15.18.15.06.24.07c.06.01.13.01.21.01l.17-.01-.14.63c-.07.01-.15.02-.26.02s-.22 0-.37-.02c-.19-.03-.36-.09-.5-.19a.8.8 0 0 1-.3-.43c-.06-.19-.04-.44.02-.74l1.03-4.48z"/><use href="#Q"/><path d="M287.64 274.14l-.82 3.54-.78-.11 1.04-4.5.74.1-.18.97zm-.44 1.09l-.32-.06a2.9 2.9 0 0 1 .34-.83c.15-.25.33-.46.54-.63a2.1 2.1 0 0 1 .69-.37 1.9 1.9 0 0 1 .79-.06 1.7 1.7 0 0 1 .59.18 1 1 0 0 1 .4.35c.1.15.16.33.18.55s0 .47-.07.77l-.68 2.95-.79-.11.68-2.96c.05-.24.06-.43.02-.58s-.12-.27-.24-.36-.28-.14-.48-.17-.38-.01-.56.04-.34.15-.49.28-.27.28-.38.45-.18.36-.23.56zm7.64-1.07l.71.1-1.02 4.41a2.2 2.2 0 0 1-.48.98c-.23.26-.5.44-.83.54s-.68.13-1.06.08c-.16-.02-.34-.07-.54-.15a2.1 2.1 0 0 1-.57-.33 1.4 1.4 0 0 1-.41-.53l.52-.4c.14.25.3.44.49.56a1.5 1.5 0 0 0 .6.22c.25.03.47.02.67-.05s.37-.18.51-.35.24-.37.3-.64l.8-3.46.3-.98zm-3.68 1.86l.02-.09a3.6 3.6 0 0 1 .34-.92c.15-.27.32-.5.53-.68s.43-.31.68-.39.51-.1.79-.06c.29.04.53.13.72.26s.34.3.45.51.18.45.2.73a4.8 4.8 0 0 1-.02.92l-.09.38c-.11.33-.24.61-.39.87a2.4 2.4 0 0 1-.51.62c-.19.16-.41.28-.65.35s-.5.08-.8.04c-.27-.04-.51-.13-.7-.28a1.5 1.5 0 0 1-.46-.56c-.11-.23-.18-.49-.2-.78s.01-.6.09-.93zm.8.02l-.02.09c-.05.22-.08.44-.08.64s.04.39.1.55.16.3.3.41.31.17.52.2c.26.04.49.01.68-.07s.36-.21.5-.37.27-.35.37-.55l.23-1c0-.16-.01-.31-.04-.46s-.08-.29-.16-.42-.18-.23-.31-.32-.3-.15-.49-.17c-.21-.03-.41-.01-.59.05s-.32.17-.46.31-.24.3-.34.5-.16.4-.21.62zm7.28 2.91l2.2-3.86.84.12-3.03 4.94a2.4 2.4 0 0 1-.25.33c-.1.11-.21.23-.35.33a1.6 1.6 0 0 1-.45.23c-.16.05-.36.07-.56.04-.06-.01-.14-.03-.23-.06l-.19-.07.14-.62.1.02.1.02c.18.03.33.02.47-.01s.26-.09.37-.19.22-.23.32-.41l.53-.83zm0-4.17l.38 3.66.02.84-.63.2-.62-4.83.86.12zm2.94 2.79l.02-.1c.07-.32.19-.62.35-.88a2.5 2.5 0 0 1 .58-.67c.23-.18.48-.31.77-.39s.58-.1.9-.05a2 2 0 0 1 .83.3c.23.15.42.34.55.58s.22.49.25.79a2.9 2.9 0 0 1-.06.92l-.02.1c-.07.32-.19.62-.35.88s-.36.49-.59.67a2.2 2.2 0 0 1-1.67.44 2.1 2.1 0 0 1-.83-.29 1.8 1.8 0 0 1-.55-.58c-.14-.23-.22-.5-.25-.79a2.9 2.9 0 0 1 .06-.92zm.8.01l-.02.1c-.05.22-.07.44-.07.65s.05.39.12.56.18.31.33.42.32.18.54.21.41.01.59-.05.35-.17.49-.31a2 2 0 0 0 .36-.49 2.5 2.5 0 0 0 .23-.62l.02-.09a2.3 2.3 0 0 0 .06-.64 1.5 1.5 0 0 0-.12-.56c-.07-.17-.18-.31-.32-.42a1.1 1.1 0 0 0-.54-.21c-.22-.03-.41-.01-.6.05s-.34.17-.49.31-.26.3-.36.5-.17.39-.23.62zm6.89 2.27l.8-3.46.79.11-1.04 4.5-.75-.11.2-1.05zm.37-.93l.33.04c-.07.3-.17.57-.29.82s-.27.45-.46.62a1.6 1.6 0 0 1-.65.36c-.25.07-.54.08-.87.04a1.8 1.8 0 0 1-.59-.18c-.17-.09-.3-.21-.41-.36a1.2 1.2 0 0 1-.19-.56 2.5 2.5 0 0 1 .07-.79l.67-2.91.78.11-.67 2.91c-.05.2-.06.37-.05.51s.06.25.12.34.14.15.23.2.2.07.3.09c.33.05.61.02.83-.08s.4-.25.54-.45a2.1 2.1 0 0 0 .3-.7zm3.02-1.44l-.87 3.8-.78-.11 1.04-4.5.76.11-.14.71zm1.6-.53l-.17.72a1.1 1.1 0 0 0-.18-.05l-.19-.04c-.18-.02-.35-.02-.5.02s-.29.1-.41.18a1.1 1.1 0 0 0-.31.33c-.09.14-.16.27-.21.43l-.25.09a3.5 3.5 0 0 1 .26-.75c.11-.23.25-.43.4-.6s.34-.29.54-.37.43-.1.68-.07c.06.01.12.02.19.05s.12.04.14.06zm2.89.43l.79.11-1.16 5.04a1.7 1.7 0 0 1-.3.68c-.14.18-.3.3-.5.38s-.43.1-.7.06a1.4 1.4 0 0 1-.24-.06l-.23-.08.15-.62a1.4 1.4 0 0 0 .18.05c.07.02.12.03.18.04.12.02.22.01.31-.02s.16-.09.22-.18.11-.2.15-.36l1.16-5.04zm.2-1.21c.03-.12.09-.22.19-.3s.22-.1.37-.08.26.08.32.18.07.21.05.33a.5.5 0 0 1-.56.37c-.15-.02-.25-.08-.31-.17s-.08-.21-.05-.33zm1.12 3.77l.02-.1c.07-.32.19-.62.35-.88a2.5 2.5 0 0 1 .58-.67 2.1 2.1 0 0 1 .77-.39c.28-.08.59-.1.9-.05s.6.15.83.3.42.34.55.58.22.49.25.79a2.9 2.9 0 0 1-.06.92l-.02.1c-.07.32-.19.62-.35.88s-.36.49-.59.67a2.2 2.2 0 0 1-1.67.44 2 2 0 0 1-.83-.29 1.7 1.7 0 0 1-.55-.58 2.1 2.1 0 0 1-.25-.79c-.04-.29-.01-.6.06-.92zm.81.01l-.02.1a2.5 2.5 0 0 0-.07.65 1.7 1.7 0 0 0 .12.56c.07.17.18.31.33.42s.32.18.54.21.41.01.59-.05.35-.17.49-.31a1.9 1.9 0 0 0 .36-.49c.1-.19.18-.4.23-.62l.02-.1a2.3 2.3 0 0 0 .06-.64c-.01-.21-.05-.4-.12-.56a1.1 1.1 0 0 0-.86-.63c-.21-.03-.41-.01-.6.05a1.4 1.4 0 0 0-.49.31 2 2 0 0 0-.36.49c-.1.19-.17.4-.23.62zm5.3-3.48l.79.11-1.27 5.52-.27.86-.72-.1 1.47-6.4zm2.93 4.65l-.02.09c-.07.33-.19.63-.33.89a2.7 2.7 0 0 1-.51.68c-.2.19-.42.32-.67.4s-.51.1-.8.06a1.8 1.8 0 0 1-.73-.25c-.19-.13-.34-.3-.45-.51s-.18-.45-.2-.73a4.8 4.8 0 0 1 .02-.92l.09-.38a4.4 4.4 0 0 1 .39-.87c.15-.25.32-.46.51-.62s.41-.29.65-.35.5-.08.79-.04a1.6 1.6 0 0 1 .73.28c.2.14.35.32.45.54s.16.48.18.78a3.2 3.2 0 0 1-.1.95zm-.81-.02l.02-.09c.05-.22.08-.44.08-.64s-.02-.39-.08-.55-.15-.3-.29-.41-.31-.18-.53-.21a1.2 1.2 0 0 0-.54.03c-.16.05-.3.12-.43.22s-.24.21-.34.35a2.5 2.5 0 0 0-.24.42l-.23 1a2 2 0 0 0 .09.59c.06.19.17.36.31.5s.35.23.61.26c.21.03.4.01.57-.05s.32-.16.45-.3.24-.3.33-.49a3 3 0 0 0 .21-.62zm3.72.53l.02-.1c.07-.32.19-.62.35-.88a2.7 2.7 0 0 1 .58-.67c.22-.18.48-.31.77-.39s.58-.1.9-.05.6.14.83.3.42.34.55.58.22.49.25.79a2.9 2.9 0 0 1-.06.92l-.02.1c-.07.32-.19.62-.35.88s-.36.49-.59.67-.48.31-.77.39a2.2 2.2 0 0 1-.9.05 2.1 2.1 0 0 1-.83-.29 1.7 1.7 0 0 1-.55-.58 2.1 2.1 0 0 1-.25-.79c-.04-.29-.01-.6.06-.92zm.81.01l-.02.1a2.5 2.5 0 0 0-.07.65 1.7 1.7 0 0 0 .12.56c.07.17.18.31.33.42s.32.18.54.21.41.01.59-.05.35-.17.49-.31a1.9 1.9 0 0 0 .36-.49 2.5 2.5 0 0 0 .23-.62l.02-.1a2.3 2.3 0 0 0 .06-.64c-.01-.21-.05-.39-.12-.56s-.18-.31-.32-.42a1.1 1.1 0 0 0-.54-.21c-.21-.03-.41-.01-.6.05s-.34.17-.49.31a1.9 1.9 0 0 0-.36.49c-.1.19-.17.4-.22.62zm5 3.08l-.78-.11 1.15-4.98a1.9 1.9 0 0 1 .37-.8c.17-.21.39-.35.64-.43s.53-.11.84-.06c.09.01.18.03.27.06s.18.05.26.09l-.19.62-.2-.06-.22-.04c-.17-.02-.32-.01-.46.04s-.25.13-.34.25a1.1 1.1 0 0 0-.2.45l-1.15 4.98zm2.01-4.37l-.14.59-2.48-.35.14-.59 2.48.35zm1 4.79l-.78-.11 1.15-4.98c.07-.32.2-.59.37-.8s.39-.35.64-.43.53-.11.84-.06c.09.01.18.03.27.06s.18.05.26.09l-.19.62-.2-.06-.22-.04c-.17-.02-.32-.01-.45.04s-.25.13-.34.25a1.1 1.1 0 0 0-.2.45l-1.15 4.98zm2.01-4.37l-.14.59-2.48-.35.14-.59 2.48.35zm1.62 4.97c-.32-.05-.6-.14-.83-.28s-.42-.33-.56-.55-.23-.47-.26-.75a2.8 2.8 0 0 1 .05-.9l.04-.17c.09-.37.22-.69.39-.96a2.5 2.5 0 0 1 .62-.67c.24-.17.49-.3.75-.36s.52-.09.78-.05c.33.05.6.14.81.29s.37.33.48.55a1.8 1.8 0 0 1 .18.75c.01.28-.02.57-.09.89l-.08.34-3.42-.48.14-.63 2.64.37.01-.06c.04-.2.04-.4.01-.6s-.1-.37-.23-.51-.32-.24-.59-.27c-.18-.03-.35-.01-.52.04a1.2 1.2 0 0 0-.46.27 1.7 1.7 0 0 0-.37.49 3.1 3.1 0 0 0-.25.71l-.04.18c-.05.21-.07.42-.05.62s.07.37.15.53.2.29.35.39.33.17.55.2c.28.04.52.02.74-.07s.42-.21.61-.37l.39.44c-.13.13-.29.26-.47.37a2.3 2.3 0 0 1-.64.25c-.24.06-.51.06-.81.02zm4.37-3.39l-.87 3.8-.78-.11 1.04-4.5.76.11-.14.71zm1.6-.53l-.17.71a1.1 1.1 0 0 0-.18-.05l-.19-.04c-.18-.02-.35-.02-.5.02s-.29.1-.4.18-.22.2-.31.33a1.8 1.8 0 0 0-.21.44l-.25.09a3.5 3.5 0 0 1 .26-.75c.11-.23.25-.43.4-.6s.34-.29.54-.37.43-.1.68-.07c.06.01.12.02.19.05s.12.04.14.06zm2.99 5.09l-.78-.11 1.15-4.98a1.9 1.9 0 0 1 .37-.8c.17-.21.38-.35.64-.43a1.8 1.8 0 0 1 .84-.06c.09.01.18.03.27.06s.18.05.26.09l-.19.62-.2-.06-.22-.04c-.17-.02-.32-.01-.46.04s-.25.13-.34.25-.16.27-.2.45l-1.15 4.98zm2.01-4.37l-.14.59-2.48-.35.14-.59 2.48.35zm.14 2.4l.02-.1a3 3 0 0 1 .35-.88c.16-.27.36-.49.58-.67a2.1 2.1 0 0 1 .77-.39c.28-.08.58-.1.9-.05s.6.14.83.3.42.34.55.58.22.49.25.79a2.9 2.9 0 0 1-.06.92l-.02.1a3 3 0 0 1-.35.88c-.16.26-.35.49-.59.67s-.48.31-.77.39a2.2 2.2 0 0 1-.9.05 2 2 0 0 1-.83-.29c-.23-.15-.41-.34-.55-.57s-.21-.5-.25-.79-.01-.6.06-.92zm.81.01l-.02.1a2.5 2.5 0 0 0-.07.65 1.7 1.7 0 0 0 .12.56c.07.17.18.31.33.42s.32.18.54.21.41.01.59-.05.35-.17.49-.31a2 2 0 0 0 .36-.49 2.5 2.5 0 0 0 .23-.62l.02-.1a2.4 2.4 0 0 0 .06-.64 1.7 1.7 0 0 0-.12-.56c-.07-.17-.18-.31-.32-.42a1.1 1.1 0 0 0-.54-.21c-.22-.03-.41-.01-.6.05s-.34.17-.49.31-.26.3-.36.5-.17.39-.23.62zm5.49-.77l-.87 3.8-.78-.11 1.04-4.5.76.11-.14.71zm1.6-.53l-.17.72a1.1 1.1 0 0 0-.18-.05l-.19-.04c-.18-.03-.35-.02-.5.02s-.29.1-.4.18-.22.19-.31.33-.15.27-.21.44l-.25.09a3.8 3.8 0 0 1 .26-.76c.11-.23.25-.43.4-.6s.34-.29.54-.37.43-.1.68-.07c.06.01.12.02.19.05s.12.04.14.06zm4.78.7l-.14.59-2.47-.35.14-.59 2.48.35zm-1.38-1.32l.78.11-1.03 4.48c-.04.15-.04.27-.01.36s.08.14.15.18.15.06.24.07c.06.01.13.01.21.01l.17-.01-.14.63c-.07.01-.15.02-.26.02s-.22 0-.37-.02c-.19-.03-.36-.09-.5-.19a.8.8 0 0 1-.3-.43c-.06-.19-.04-.44.03-.74l1.03-4.48zm3.52-.33l-1.47 6.4-.78-.11 1.47-6.39.78.11zm-1.1 3.95l-.32-.06a2.9 2.9 0 0 1 .34-.83c.15-.25.33-.46.54-.63a2.1 2.1 0 0 1 .69-.37c.25-.08.52-.09.8-.06a1.7 1.7 0 0 1 .59.18 1 1 0 0 1 .4.35c.1.15.16.33.18.55s0 .47-.07.77l-.68 2.95-.79-.11.68-2.96c.05-.24.06-.43.03-.58s-.12-.27-.24-.36-.28-.14-.48-.17-.38-.01-.56.05-.34.15-.49.28a1.9 1.9 0 0 0-.38.45c-.1.17-.18.36-.23.56zm5.49 3.36c-.32-.05-.6-.14-.83-.28s-.42-.33-.56-.55-.23-.47-.26-.75a2.8 2.8 0 0 1 .05-.9l.04-.17c.08-.37.22-.69.39-.96a2.5 2.5 0 0 1 .62-.67c.24-.17.48-.29.75-.36s.52-.09.78-.05c.33.05.6.14.81.29s.37.33.48.55a1.8 1.8 0 0 1 .18.75c.01.28-.02.57-.09.89l-.08.35-3.42-.48.15-.63 2.64.37.01-.06c.03-.2.04-.4.01-.6s-.1-.37-.23-.51-.32-.24-.59-.27a1.3 1.3 0 0 0-.52.04c-.17.05-.32.14-.46.27s-.26.29-.37.49a3.1 3.1 0 0 0-.26.71l-.04.17c-.05.21-.07.42-.05.62s.07.37.15.53.2.29.35.39.33.17.55.2c.28.04.52.02.74-.07a2 2 0 0 0 .61-.37l.39.44c-.13.13-.29.26-.47.37a2 2 0 0 1-.64.25c-.24.05-.51.06-.81.01zm6.49-2.93l-1.24 5.37-.79-.11 1.44-6.24.72.1-.13.88zm2.77 1.78l-.02.09c-.08.33-.18.63-.33.89s-.31.49-.51.68a1.8 1.8 0 0 1-.66.4c-.25.08-.51.1-.8.06a1.8 1.8 0 0 1-.74-.25c-.2-.13-.36-.29-.47-.49s-.19-.44-.22-.7-.03-.56.01-.88l.11-.47a3.9 3.9 0 0 1 .4-.87 2.7 2.7 0 0 1 .52-.62c.19-.16.42-.28.66-.35s.51-.08.8-.04a1.6 1.6 0 0 1 .73.28c.2.14.35.32.46.54s.16.48.17.78-.02.61-.1.95zm-.81-.02l.02-.09c.05-.22.08-.44.07-.64a1.5 1.5 0 0 0-.1-.56c-.06-.17-.16-.3-.3-.41s-.31-.18-.52-.21a1.2 1.2 0 0 0-.54.03c-.16.05-.3.12-.43.22s-.24.21-.34.35-.18.27-.24.42l-.25 1.08a2.2 2.2 0 0 0 .11.58c.06.18.17.34.31.47s.35.21.6.24c.21.03.4.01.58-.05s.33-.17.46-.31.25-.3.35-.49.17-.4.22-.63zm1.58.22l.02-.1c.07-.32.19-.62.35-.88a2.7 2.7 0 0 1 .58-.67 2.1 2.1 0 0 1 .77-.39c.28-.08.58-.1.9-.05s.6.14.83.3.42.34.55.58.22.49.25.79a2.9 2.9 0 0 1-.06.92l-.02.1a3 3 0 0 1-.35.88c-.16.26-.36.49-.59.67s-.48.31-.77.39a2.2 2.2 0 0 1-.9.05 2 2 0 0 1-.83-.29 1.7 1.7 0 0 1-.55-.58 2.1 2.1 0 0 1-.25-.79c-.04-.29-.01-.6.07-.92zm.8.01l-.02.1a2.5 2.5 0 0 0-.07.65 1.7 1.7 0 0 0 .12.56c.07.17.18.31.33.42s.32.18.54.21.41.01.59-.05.35-.17.49-.31a1.9 1.9 0 0 0 .36-.49c.1-.19.18-.4.23-.62l.02-.1a2.3 2.3 0 0 0 .06-.64c-.01-.21-.05-.39-.12-.56s-.18-.31-.32-.42a1.1 1.1 0 0 0-.54-.21c-.22-.03-.41-.01-.6.05s-.34.17-.49.31-.26.3-.36.5-.17.39-.23.62zm6.78 2.09c.02-.11.02-.22 0-.32s-.11-.21-.24-.31-.34-.2-.63-.3a5.2 5.2 0 0 1-.65-.29c-.19-.1-.34-.21-.46-.33a1 1 0 0 1-.24-.41c-.04-.15-.05-.32 0-.5.04-.18.12-.34.24-.49a1.6 1.6 0 0 1 .44-.37c.18-.1.38-.17.6-.21s.46-.04.72 0a2 2 0 0 1 .89.32 1.3 1.3 0 0 1 .48.6c.09.23.1.48.04.73l-.78-.11c.03-.12.02-.25-.03-.38s-.13-.24-.26-.34-.29-.16-.49-.19c-.22-.03-.4-.02-.55.03s-.26.11-.35.2-.14.19-.16.3c-.02.08-.02.16-.01.23s.06.13.12.2.16.13.29.19a5 5 0 0 0 .5.22 4 4 0 0 1 .86.43c.21.15.36.32.44.5s.09.4.04.64c-.05.2-.13.37-.25.52a1.4 1.4 0 0 1-.46.37c-.18.09-.39.16-.62.2s-.48.03-.75-.01c-.4-.06-.73-.18-.98-.36s-.41-.39-.51-.64-.11-.49-.05-.74l.79.11c-.04.21-.01.39.07.53s.2.25.35.32a1.6 1.6 0 0 0 .47.14c.22.03.4.03.56-.01s.29-.1.39-.18.16-.19.19-.32zm3.43-2.93l-1.04 4.5-.79-.11 1.04-4.5.79.11zm-.57-1.31c.03-.12.09-.23.19-.3s.23-.1.38-.08.25.08.31.18.08.21.05.33-.09.22-.19.29a.5.5 0 0 1-.37.08c-.15-.02-.26-.08-.32-.17s-.07-.2-.04-.32zm3.74 1.76l-.14.59-2.47-.35.14-.59 2.48.35zm-1.38-1.33l.78.11-1.03 4.48c-.03.15-.04.27-.01.36s.08.14.15.18.15.06.24.07c.06.01.13.01.21.01l.17-.01-.14.63c-.07.01-.15.02-.26.02s-.23 0-.37-.02c-.19-.03-.36-.09-.5-.19a.8.8 0 0 1-.3-.43c-.06-.19-.04-.44.02-.74l1.03-4.48z"/><use href="#Q" x="113.94" y="16.04"/><path d="M400.29 291.38l.02-.1c.07-.32.19-.62.35-.88a2.7 2.7 0 0 1 .58-.67 2.1 2.1 0 0 1 .77-.39c.28-.08.58-.1.9-.05s.6.14.83.3.42.34.55.58.22.49.25.79a2.9 2.9 0 0 1-.06.92l-.02.1c-.07.32-.19.62-.35.88s-.35.49-.59.67a2.2 2.2 0 0 1-1.67.44 2 2 0 0 1-.83-.29 1.8 1.8 0 0 1-.55-.58c-.14-.23-.21-.5-.25-.79s-.01-.6.06-.92zm.81.01l-.02.1a2.5 2.5 0 0 0-.07.65c.01.21.05.39.12.56s.18.31.33.42.32.18.54.21.41.01.59-.05.35-.17.49-.31a2 2 0 0 0 .36-.49c.1-.19.18-.4.23-.62l.02-.1a2.4 2.4 0 0 0 .06-.64 1.7 1.7 0 0 0-.12-.56c-.07-.17-.18-.31-.32-.42a1.1 1.1 0 0 0-.54-.21c-.22-.03-.41-.01-.6.05s-.34.17-.49.31-.26.3-.36.5-.17.39-.23.62zm5.43-.52l-.82 3.54-.78-.11 1.04-4.5.74.1-.18.97zm-.44 1.09l-.32-.06a2.9 2.9 0 0 1 .34-.83c.15-.25.33-.46.54-.63a2.1 2.1 0 0 1 .69-.37c.25-.08.52-.09.8-.06a1.7 1.7 0 0 1 .59.18 1 1 0 0 1 .4.35c.1.15.16.33.18.55s0 .47-.07.77l-.68 2.95-.79-.11.68-2.96c.05-.24.06-.43.03-.58s-.12-.27-.24-.36-.28-.14-.48-.17-.38-.01-.56.05-.34.15-.49.28a1.9 1.9 0 0 0-.38.45c-.1.17-.18.36-.23.56zm6.08 1.09l.02-.1c.07-.33.19-.62.35-.88a2.7 2.7 0 0 1 .58-.67 2.1 2.1 0 0 1 .77-.39c.28-.08.58-.1.9-.05s.6.14.83.3.42.34.55.58.22.49.25.79a2.9 2.9 0 0 1-.06.92l-.02.1c-.07.33-.19.62-.35.88s-.36.49-.59.67a2.2 2.2 0 0 1-1.67.44 2 2 0 0 1-.83-.29 1.8 1.8 0 0 1-.55-.58c-.14-.23-.21-.5-.25-.79s-.01-.6.06-.92zm.81.01l-.02.1a2.5 2.5 0 0 0-.07.65 1.7 1.7 0 0 0 .12.56c.07.17.18.31.33.42s.32.18.54.21.41.01.59-.05.35-.17.49-.31a1.9 1.9 0 0 0 .36-.49c.1-.19.18-.4.23-.63l.02-.09a2.3 2.3 0 0 0 .06-.64c-.01-.21-.05-.39-.12-.56s-.18-.31-.32-.42a1.1 1.1 0 0 0-.54-.21c-.22-.03-.41-.01-.6.05s-.34.17-.49.31a1.9 1.9 0 0 0-.36.5c-.1.19-.17.39-.23.62zm5 3.08l-.78-.11 1.15-4.98c.07-.32.2-.59.37-.79s.38-.35.64-.44.53-.11.84-.06c.09.01.18.03.27.06s.18.05.26.09l-.19.62-.2-.06-.22-.04c-.17-.02-.32-.01-.45.04s-.25.13-.34.25-.16.27-.2.45l-1.15 4.98zm2.01-4.37l-.14.59-2.48-.35.14-.59 2.48.35zm-192.9-18.7l.81.11-.94 4.1a2.2 2.2 0 0 1-.57 1.09 2.3 2.3 0 0 1-.98.57c-.38.11-.76.13-1.16.07-.42-.06-.78-.19-1.08-.38a1.6 1.6 0 0 1-.64-.79c-.13-.33-.13-.72-.03-1.18l.94-4.1.81.11-.95 4.1c-.07.32-.07.58 0 .81s.2.4.39.53.43.22.71.25.54.03.78-.04.44-.2.6-.39.29-.44.36-.76l.95-4.1zm2.97.42l-1.4 6.06-.82-.12 1.4-6.06.82.12zm4.09.58l-4.08 6.22-.67-.09 4.09-6.22.67.09zm4.49.63l.81.12-.95 4.1c-.1.46-.29.82-.57 1.09a2.2 2.2 0 0 1-.98.57c-.37.1-.76.13-1.16.07-.42-.06-.78-.19-1.08-.38s-.51-.46-.64-.8-.13-.72-.03-1.18l.95-4.1.81.11-.95 4.1c-.07.32-.07.58 0 .81s.2.4.39.53.43.22.71.25a2 2 0 0 0 .78-.04c.23-.07.44-.2.61-.39s.28-.44.36-.76l.94-4.1zm2.63.37l.95 2.53 2.02-2.12.95.13-2.64 2.73 1.29 3.34-.96-.14-.97-2.58-2.06 2.15-.96-.13 2.7-2.78-1.25-3.27.95.13zm9.72 6.95l-.15.65-3.26-.46.15-.65 3.26.46zm-1.85-5.84l-1.4 6.06-.82-.12 1.4-6.06.82.12zm2.06 2.98l-.15.65-2.83-.4.15-.65 2.83.4zm.99-2.55l-.15.66-3.22-.45.15-.66 3.22.45z"/><use href="#O" x="41.76" y="87.49"/><path d="M257.65 279.88l-1.24 5.37-.79-.11 1.44-6.24.72.1-.13.88zm2.77 1.78l-.02.09a3.6 3.6 0 0 1-.33.9c-.14.27-.31.49-.51.68s-.42.32-.66.4-.51.1-.8.06a1.8 1.8 0 0 1-.74-.25c-.2-.13-.36-.29-.47-.49s-.19-.44-.22-.7-.03-.56.01-.88l.11-.47a3.9 3.9 0 0 1 .4-.87 2.7 2.7 0 0 1 .52-.62c.19-.16.42-.28.66-.35a1.9 1.9 0 0 1 .8-.04 1.6 1.6 0 0 1 .73.27c.2.14.35.32.46.55a1.9 1.9 0 0 1 .17.78c.01.3-.02.61-.1.95zm-.81-.02l.02-.09c.05-.23.08-.44.07-.64a1.5 1.5 0 0 0-.1-.56c-.06-.17-.16-.3-.3-.41s-.31-.18-.52-.21a1.3 1.3 0 0 0-.97.25 1.7 1.7 0 0 0-.34.35c-.09.13-.18.27-.24.42l-.25 1.08a2.2 2.2 0 0 0 .11.58c.06.18.17.34.31.47s.35.21.6.24c.21.03.4.01.58-.05s.33-.17.46-.31.25-.3.35-.49.17-.4.22-.63zm3.16 2.8c-.32-.05-.6-.14-.83-.28s-.42-.33-.56-.55-.23-.47-.26-.75a2.5 2.5 0 0 1 .05-.9l.04-.17c.08-.37.21-.68.39-.96s.38-.5.62-.67a2.2 2.2 0 0 1 .75-.36c.26-.07.52-.09.78-.05.33.05.6.14.81.29s.37.33.48.55a1.8 1.8 0 0 1 .18.75c.01.28-.02.57-.09.89l-.08.35-3.42-.48.14-.63 2.64.37.01-.06c.03-.2.04-.4.01-.6s-.1-.37-.23-.51-.32-.24-.59-.27a1.3 1.3 0 0 0-.52.04c-.17.05-.32.14-.46.27s-.26.29-.37.49a2.8 2.8 0 0 0-.25.71l-.04.18c-.05.21-.07.42-.05.62s.07.37.15.53.2.29.35.39.33.17.55.2c.28.04.52.02.74-.07a2 2 0 0 0 .61-.37l.39.44c-.13.13-.29.26-.47.37a2.2 2.2 0 0 1-.64.25 2 2 0 0 1-.81.01zm4.38-3.39l-.87 3.8-.78-.11 1.04-4.5.76.11-.14.71zm1.6-.53l-.17.72a1.1 1.1 0 0 0-.18-.05l-.19-.04c-.18-.03-.35-.02-.5.02s-.29.1-.4.18-.22.19-.31.33-.15.27-.21.44l-.25.09a3.8 3.8 0 0 1 .26-.75c.11-.23.25-.43.4-.6s.34-.29.54-.37.43-.1.68-.07c.06.01.12.02.19.05s.12.04.14.06zm2.84.42l-.14.59-2.48-.35.14-.59 2.47.35zm-1.38-1.32l.78.11-1.03 4.48a.6.6 0 0 0-.01.35c.03.08.08.15.15.18s.15.06.24.07c.06.01.13.01.21.01l.17-.01-.14.63c-.07.01-.15.02-.26.02s-.23 0-.37-.02c-.19-.03-.36-.09-.5-.19a.8.8 0 0 1-.3-.43c-.06-.19-.04-.44.03-.74l1.03-4.48zm5.03 2.73l-1.24 5.37-.79-.11 1.44-6.24.72.1-.13.88zm2.77 1.78l-.02.09a3.6 3.6 0 0 1-.33.9c-.14.27-.31.49-.51.68s-.42.32-.67.4-.51.1-.8.06a1.8 1.8 0 0 1-.74-.25c-.2-.13-.36-.29-.47-.49s-.19-.44-.22-.7-.03-.56.01-.88l.11-.47a3.9 3.9 0 0 1 .4-.87 2.7 2.7 0 0 1 .52-.62c.19-.16.42-.28.66-.35a1.9 1.9 0 0 1 .8-.04 1.6 1.6 0 0 1 .73.27c.2.14.35.32.45.55a2.3 2.3 0 0 1 .18.78 3.5 3.5 0 0 1-.1.95zm-.81-.02l.02-.09c.05-.23.08-.44.07-.64s-.04-.39-.1-.56-.16-.3-.3-.41-.31-.18-.52-.21a1.3 1.3 0 0 0-.97.25c-.13.1-.24.21-.34.35s-.18.27-.24.42l-.25 1.08a2.2 2.2 0 0 0 .11.58c.06.18.17.34.31.47s.35.21.6.24c.21.03.4.01.57-.05s.33-.17.46-.31.25-.3.35-.49a2.9 2.9 0 0 0 .22-.63zm1.58.22l.02-.1c.07-.32.19-.62.35-.88a2.5 2.5 0 0 1 .58-.67c.23-.18.48-.31.77-.39a2.1 2.1 0 0 1 .9-.05 2 2 0 0 1 .83.3c.23.15.42.34.55.58s.22.49.25.79a2.9 2.9 0 0 1-.06.92l-.02.1a3 3 0 0 1-.35.88c-.16.26-.36.49-.59.67a2.2 2.2 0 0 1-1.67.44 2.1 2.1 0 0 1-.83-.29 1.8 1.8 0 0 1-.55-.58c-.14-.23-.21-.5-.25-.79s-.01-.6.06-.92zm.81.01l-.02.1c-.05.22-.07.44-.07.65s.05.39.12.56.18.31.33.42.32.18.54.21.41.01.59-.05.35-.17.49-.31a2 2 0 0 0 .36-.49c.1-.19.18-.4.23-.63l.02-.1a2.3 2.3 0 0 0 .06-.64c-.01-.21-.05-.39-.12-.56s-.18-.31-.32-.42a1.1 1.1 0 0 0-.54-.21c-.22-.03-.41-.01-.6.05s-.35.17-.49.31-.26.3-.36.5-.17.39-.23.62zm6.78 2.1c.03-.11.02-.22 0-.32s-.11-.21-.24-.3a2.3 2.3 0 0 0-.63-.3l-.65-.28c-.19-.1-.34-.21-.46-.34s-.2-.26-.24-.41-.05-.32 0-.5a1.3 1.3 0 0 1 .23-.49c.11-.15.27-.27.44-.37s.38-.17.6-.21a2.3 2.3 0 0 1 .72-.01c.37.05.67.16.89.32a1.3 1.3 0 0 1 .48.6 1.2 1.2 0 0 1 .05.73l-.78-.11c.03-.12.02-.25-.03-.38s-.13-.24-.26-.34a1 1 0 0 0-.49-.19c-.22-.03-.4-.02-.55.03s-.26.11-.35.2-.14.19-.16.3c-.02.08-.02.16-.01.23s.06.14.12.2a1.3 1.3 0 0 0 .29.2 4.9 4.9 0 0 0 .5.22 4 4 0 0 1 .86.43 1.2 1.2 0 0 1 .44.5c.08.18.09.4.03.64a1.2 1.2 0 0 1-.25.52 1.4 1.4 0 0 1-.46.37 2 2 0 0 1-.62.2 2.6 2.6 0 0 1-.75-.01c-.4-.06-.73-.18-.98-.36s-.42-.39-.51-.64-.11-.49-.05-.74l.79.11c-.04.21-.01.39.07.53s.2.24.35.32a1.6 1.6 0 0 0 .47.14c.21.03.4.03.56-.01s.29-.1.39-.18.16-.19.19-.32zm3.42-2.93l-1.04 4.5-.79-.11 1.04-4.5.79.11zm-.57-1.31c.03-.12.09-.23.19-.3s.22-.1.38-.08.25.08.31.18.08.21.05.33-.09.22-.19.29a.5.5 0 0 1-.37.08c-.15-.02-.26-.08-.32-.17s-.07-.21-.04-.32zm3.74 1.75l-.14.59-2.48-.35.14-.59 2.48.35zm-1.38-1.32l.78.11-1.03 4.48c-.03.15-.04.27-.01.36s.08.14.15.18.15.06.24.07c.06.01.13.01.21.01l.17-.01-.14.63a2 2 0 0 1-.26.02c-.1 0-.22 0-.37-.02-.19-.03-.36-.09-.5-.19a.8.8 0 0 1-.3-.43c-.06-.19-.04-.44.02-.73l1.03-4.48zm3.15 1.57l-1.04 4.5-.79-.11 1.04-4.5.79.11zm-.57-1.31c.03-.12.09-.23.19-.3s.22-.1.38-.08.25.08.31.18.08.21.05.33-.09.22-.19.29a.5.5 0 0 1-.37.08c-.15-.02-.26-.08-.32-.17s-.07-.2-.04-.32zm1.09 3.76l.02-.1c.07-.32.19-.62.35-.88a2.5 2.5 0 0 1 .58-.67c.23-.18.48-.31.77-.39a2.1 2.1 0 0 1 .9-.05c.31.05.6.14.83.3s.42.34.55.58.22.49.25.79a2.9 2.9 0 0 1-.06.92l-.02.1c-.07.32-.19.62-.35.88a2.5 2.5 0 0 1-.59.67c-.23.18-.48.31-.77.39s-.58.1-.9.05a2.1 2.1 0 0 1-.83-.29 1.7 1.7 0 0 1-.55-.58 2.1 2.1 0 0 1-.25-.79c-.04-.29-.01-.6.06-.92zm.81.01l-.02.1c-.05.22-.07.44-.07.65s.05.39.12.56.18.31.33.42.32.18.54.21.41.01.59-.05.35-.17.49-.31a2 2 0 0 0 .36-.49 2.5 2.5 0 0 0 .23-.62l.02-.1a2.3 2.3 0 0 0 .06-.64 1.5 1.5 0 0 0-.12-.56c-.07-.17-.18-.31-.32-.42a1.1 1.1 0 0 0-.54-.21c-.22-.03-.41-.01-.6.05a1.4 1.4 0 0 0-.49.31 2 2 0 0 0-.36.49c-.1.19-.18.4-.23.62zm5.43-.51l-.82 3.54-.78-.11 1.04-4.5.74.1-.18.97zm-.44 1.09l-.32-.06c.07-.31.19-.59.34-.83s.33-.46.54-.63a2.1 2.1 0 0 1 .69-.37c.25-.08.52-.09.8-.06a1.8 1.8 0 0 1 .59.18 1 1 0 0 1 .4.35c.1.15.16.33.18.55s0 .47-.07.77l-.68 2.95-.79-.11.68-2.96c.06-.24.06-.43.02-.58s-.12-.27-.24-.36-.28-.14-.48-.17-.38-.01-.56.05-.34.15-.49.28-.27.28-.38.45a1.6 1.6 0 0 0-.22.56z"/></g><defs><linearGradient id="H" x1="398.82" y1="544.98" x2="178.9" y2="-23.66" href="#R"><stop stop-color="#9ac8ff"/><stop offset="1" stop-color="#0072ff"/></linearGradient><linearGradient id="I" x1="291.42" y1="572.44" x2="291.42" y2="20" href="#R"><stop stop-color="#b7d7ff"/><stop offset="1" stop-color="#8cb6e9"/></linearGradient><linearGradient id="J" x1="381.07" y1="132.96" x2="420.55" y2="142.07" href="#R"><stop stop-color="#055fcd"/><stop offset="1" stop-color="#044aa0"/></linearGradient><linearGradient id="K" x1="314.11" y1="124.69" x2="354.21" y2="133.94" href="#R"><stop stop-color="#3886e7"/><stop offset="1" stop-color="#055fcd"/></linearGradient><linearGradient id="L" x1="247.77" y1="116.55" x2="287.87" y2="125.8" href="#R"><stop stop-color="#589aeb"/><stop offset="1" stop-color="#3886e7"/></linearGradient><path id="M" d="M174.9 138.2L424 173.3a11.6 11.6 0 0 1 8.22 4.95 11.6 11.6 0 0 1 1.68 9.45l-9.6 41.4a14.3 14.3 0 0 1-15.7 10.8l-249.1-35.1a11.6 11.6 0 0 1-8.22-4.95 11.6 11.6 0 0 1-1.68-9.45l9.6-41.4a14.4 14.4 0 0 1 15.7-10.8h0z"/><path id="N" d="M174.2 156.8c.7-3 3.7-5.1 6.8-4.7l16.6 2.3a5 5 0 0 1 3.56 2.12 5 5 0 0 1 .74 4.08l-3.8 16.4c-.7 3-3.7 5.1-6.8 4.7l-16.6-2.3a5 5 0 0 1-3.56-2.12 5 5 0 0 1-.74-4.08l3.8-16.4z"/><path id="O" d="M211.54 190.88l.63 1.78 1.39-1.5.92.13-2.01 2.01 1.02 2.5-.91-.13-.67-1.84-1.45 1.54-.91-.13 2.07-2.06-.98-2.43.9.13z"/><path id="P" d="M191 224.1l249.1 35.1a11.6 11.6 0 0 1 8.22 4.95 11.6 11.6 0 0 1 1.68 9.45l-9.6 41.4a14.3 14.3 0 0 1-15.7 10.8l-249.1-35.1a11.6 11.6 0 0 1-8.22-4.95 11.6 11.6 0 0 1-1.68-9.45l9.6-41.4c1.6-6.9 8.7-11.8 15.7-10.8h0z"/><path id="Q" d="M285.83 272.89l-1.04 4.5-.79-.11 1.04-4.5.79.11zm-.57-1.31c.03-.12.09-.22.19-.3s.22-.1.38-.08.25.08.31.18.08.21.05.33c-.03.12-.09.22-.19.29s-.22.1-.37.08-.26-.08-.32-.17-.07-.2-.04-.32z"/><linearGradient id="R" gradientUnits="userSpaceOnUse"/></defs></svg>