<svg xmlns="http://www.w3.org/2000/svg" viewBox="0 0 600 600" xmlns:v="https://vecta.io/nano"><style><![CDATA[.P{fill:#0668e1}.Q{fill:#fff}.R{fill:#e5e5e5}.S{fill:#1b1c17}.T{stroke-width:2.15}]]></style><path d="M79.4 93.3c.1-33.1 35.9-53.6 64.5-37.1l357.3 207.4c28.6 16.6 28.5 57.9-.2 74.4L142.8 543.8c-28.7 16.5-64.4-4.3-64.3-37.3l.9-413.2z" fill="#bfd8f7" fill-opacity=".2" stroke="#0668e1" stroke-width=".83"/><linearGradient id="A" gradientUnits="userSpaceOnUse" x1="398.82" y1="544.98" x2="178.9" y2="-23.66"><stop offset="0" stop-color="#9ac8ff"/><stop offset="1" stop-color="#0072ff"/></linearGradient><path d="M145.3 549.8l170 22.5c16.9 2.2 34.4-12.3 39.1-32.5L459.7 83.3c4-17.3-2.7-33.1-15.4-38.7l17.2 7.6c12.7 5.6 19.4 21.4 15.4 38.7L371.6 547.3c-4.7 20.2-22.2 34.8-39.1 32.5l-170-22.5c-2.4-.3-4.7-1-6.8-1.9l-17.2-7.6a22.3 22.3 0 0 0 6.8 2h0z" fill="url(#A)"/><path d="M455.8 139.3c2.9 1.3 4.2 6.3 3.1 11.3L446 206.2c-1.2 5-4.4 8.1-7.2 6.8s-4.2-6.3-3-11.4l12.8-55.6c1.1-4.9 4.3-8 7.2-6.7zM435.3 228c2.9 1.3 4.2 6.3 3.1 11.4l-5.6 24.5c-1.2 5-4.4 8.1-7.2 6.8s-4.2-6.3-3-11.4l5.6-24.5c1-5 4.3-8.1 7.1-6.8z" class="Q"/><path d="M443 194.5c.4.2.5.8.4 1.5l-2 8.8c-.1.6-.6 1.1-1 .9s-.5-.8-.4-1.5l2-8.8c.2-.7.7-1.1 1-.9zm11.1-47.9c.4.2.5.8.4 1.5l-.7 3.2 1.8.8c.4.2.5.8.4 1.5-.1.6-.6 1.1-1 .9l-1.8-.8-.7 3.2c-.1.7-.6 1.1-1 .9s-.5-.8-.4-1.5l.8-3.2-1.8-.8c-.4-.2-.5-.8-.4-1.5s.6-1.1 1-.9l1.8.8.7-3.2c.1-.7.5-1 .9-.9z" fill="#d1d5d9"/><linearGradient id="B" gradientUnits="userSpaceOnUse" x1="291.42" y1="572.44" x2="291.42" y2="20"><stop offset="0" stop-color="#b7d7ff"/><stop offset="1" stop-color="#8cb6e9"/></linearGradient><path d="M267.5 20.2c-16.9-2.2-34.4 12.3-39 32.5L123.1 509.2c-4.7 20.2 5.3 38.4 22.2 40.6l170 22.5c16.9 2.2 34.4-12.3 39.1-32.5L459.7 83.3c4.7-20.2-5.3-38.4-22.2-40.6l-170-22.5z" fill="url(#B)"/><path d="M264.2 32.2l171 22.6c11 1.5 17.5 13.3 14.5 26.5L344.1 538.9c-3 13.2-14.5 22.7-25.5 21.3l-171-22.6c-11.1-1.5-17.5-13.3-14.5-26.5L238.7 53.5c3.1-13.2 14.5-22.7 25.5-21.3" fill="#e8f1fa"/><defs><path id="C" d="M265.4 32.8l169.5 20.8a18.7 18.7 0 0 1 16.3 23.3L344 541.4c-2.6 11.4-14.2 19.5-25.8 18.1l-169.5-20.8a18.7 18.7 0 0 1-16.3-23.3L239.6 50.8c2.6-11.4 14.2-19.5 25.8-18z"/><path id="D" d="M194.4 445c.1-.6.7-1 1.3-.9a19.5 19.5 0 0 1 6.7 2.6c2.3 1.4 4.3 3.3 5.8 5.5s2.6 4.7 3 7.4c.4 2.3.4 4.8 0 7.2-.1.6-.7 1-1.3.9l-7.4-1c-.6-.1-.9-.6-.9-1.2a10.3 10.3 0 0 0-.1-3.5c-.3-1.5-.8-2.9-1.7-4.1-.8-1.2-1.9-2.2-3.2-3-1-.6-2.1-1-3.2-1.3-.6-.1-.9-.7-.8-1.2l1.8-7.4z"/><path id="E" d="M174.9 138.2L424 173.3a11.6 11.6 0 0 1 9.9 14.4l-9.6 41.4a14.3 14.3 0 0 1-15.7 10.8l-249.1-35.1a11.6 11.6 0 0 1-9.9-14.4l9.6-41.4a14.4 14.4 0 0 1 15.7-10.8z"/><path id="F" d="M174.2 156.8c.7-3 3.7-5.1 6.8-4.7l16.6 2.3a5 5 0 0 1 4.3 6.2l-3.8 16.4c-.7 3-3.7 5.1-6.8 4.7l-16.6-2.3a5 5 0 0 1-4.3-6.2l3.8-16.4z"/><path id="G" d="M191 224.1l249.1 35.1a11.6 11.6 0 0 1 9.9 14.4l-9.6 41.4a14.3 14.3 0 0 1-15.7 10.8l-249.1-35.1a11.6 11.6 0 0 1-9.9-14.4l9.6-41.4c1.6-6.9 8.7-11.8 15.7-10.8z"/></defs><clipPath id="H"><use href="#C"/></clipPath><g clip-path="url(#H)"><path d="M265.4 32.8l169.5 20.8a18.7 18.7 0 0 1 16.3 23.3L344 541.4c-2.6 11.4-14.2 19.5-25.8 18.1l-169.5-20.8a18.7 18.7 0 0 1-16.3-23.3L239.6 50.8c2.6-11.4 14.2-19.5 25.8-18z" fill-opacity=".2" class="Q"/><defs><path id="I" d="M422.6 85.4l14.1 1.7-3.2 13.9-14.1-1.8z"/></defs><clipPath id="J"><use href="#I"/></clipPath><g clip-path="url(#J)" class="S"><path d="M430.8 97.1l-.3 1.2-7.1-.9.3-1.2 7.1.9zm2.7-3.9l-.3 1.2-10.6-1.3.3-1.2 10.6 1.3zm-.8-4.2l-.3 1.2-7.1-.9.3-1.2 7.1.9z"/></g><defs><path id="K" d="M402.8 82.9l14.1 1.8-3.2 13.8-14.1-1.7z"/></defs><clipPath id="L"><use href="#K"/></clipPath><g clip-path="url(#L)"><path d="M414.3 88.2c-.3 1.1-1.4 1.9-2.5 1.8s-1.9-1.2-1.6-2.3 1.4-1.9 2.5-1.8c1.1.2 1.9 1.2 1.6 2.3zm-1.9 2.9h-.9c-.9-.1-1.6-.5-2.1-1.2s-.6-1.5-.4-2.4c.2-.8.7-1.6 1.4-2.1-.1-.1-.2-.3-.3-.4s-.3-.1-.5-.2c-.6-.1-1.3.4-1.4 1v.2a4.6 4.6 0 0 0-3.8 3.5l-.8 3.5-1.4 1-.1.6 10.6 1.3.1-.6-.9-1.3.5-2.9zm-5.6 6c.7.1 1.3-.4 1.4-1l-2.4-.3c-.1.3 0 .6.2.9.2.2.5.4.8.4z"/></g><g class="P"><path d="M392.7 86.3l-1 4.3v.1c-.1.3-.2.8-.8 1.4-.7.7-2 1.3-3.7 1.8-1.4-.9-2.3-1.8-2.7-2.6a2 2 0 0 1-.1-1.5v-.1l1-4.3 3.7.5 3.6.4zm.8-.6l-4.4-.5-4.4-.5-1.2 5c-.1.7-.7 2.6 3.4 5 5-1.3 5.2-3.2 5.4-3.9l1.2-5.1zM388 90l-.6-.1-.4 1.6-1.1-.1 1.1-4.6 1.9.2c.6.1 1 .2 1.2.5.3.3.3.6.2 1.1-.1.3-.2.6-.4.8s-.4.3-.7.4l.6 2h0l-1.2-.2-.6-1.6zm-.4-1l.7.1c.2 0 .4 0 .5-.1s.2-.2.3-.4c0-.2 0-.4-.1-.5s-.2-.2-.4-.2l-.7-.1-.3 1.2zm3.2-5.6l-1-1.5-1.6 1.2-1.2-.7-.4 1.8 2.5.3 2.5.3.4-1.8-1.2.4z"/></g><defs><path id="M" d="M362.8 78l14.1 1.7-3.2 13.9-14.1-1.7z"/></defs><clipPath id="N"><use href="#M"/></clipPath><g clip-path="url(#N)" class="S"><path d="M371.2 88.9l1.9 2.8-1 .7-1.9-2.8c-1.1.6-2.4.9-3.6.7-2.9-.4-4.8-3-4.1-5.9a6 6 0 0 1 6.5-4.5c2.9.4 4.8 3 4.1 5.9-.3 1.2-.9 2.3-1.9 3.1zm-1.1-.6c.9-.7 1.6-1.6 1.8-2.7.5-2.2-.9-4.3-3.2-4.6a4.8 4.8 0 0 0-5.1 3.5c-.5 2.2.9 4.3 3.2 4.6a4.3 4.3 0 0 0 3.1-.8h.2z"/></g><g class="P"><path d="M320.1 85.2a7.1 7.1 0 0 1-1.7-.4c-.5-.2-.8-.5-1.1-.9-.2-.4-.4-1-.4-1.7a10.3 10.3 0 0 1 .4-2.7c.2-1 .5-1.9.9-2.5.3-.7.7-1.1 1.2-1.5.4-.3.9-.5 1.5-.6a5.4 5.4 0 0 1 1.8 0c.4.1.9.1 1.3.2l1.1.3c.4.1.6.2.9.3l-.3 1.3c-.2-.1-.4-.1-.7-.2s-.7-.1-1-.2c-.4-.1-.8-.1-1.2-.2a2.4 2.4 0 0 0-1.2 0c-.3.1-.7.2-.9.4-.3.2-.5.6-.7 1.1a14.5 14.5 0 0 0-.6 1.9c-.2.8-.3 1.4-.3 1.9s0 .9.2 1.2c.1.3.4.5.7.6a10.4 10.4 0 0 0 1.2.3l1.9.2h1.2l-.3 1.3c-.3 0-.6.1-1 .1h-1.2l-1.7-.2zM309.9 84c-.2 0-.5-.1-.8-.2a3 3 0 0 1-.8-.4c-.2-.2-.4-.4-.5-.7a2.4 2.4 0 0 1 0-1.2l1.4-5.9a3.7 3.7 0 0 1 .5-1.1c.2-.3.5-.5.7-.6.3-.1.6-.2.9-.2h.9l1.9.3c.5.1 1.1.2 1.5.2.5.1.9.2 1.3.2l-.3 1.4-4.3-.5c-.3 0-.6 0-.9.1-.2.1-.4.4-.5.7l-.4 1.8 4.7.7-.3 1.3-4.7-.5-.4 1.8c-.1.3-.1.5 0 .7s.2.3.3.4a.9.9 0 0 0 .5.1l4.3.5-.3 1.4c-.5 0-1 0-1.5-.1-.5 0-1.1-.1-1.6-.2-.6.1-1.1 0-1.6 0z"/></g><g class="S"><path d="M300.4 82.7c-.6-.1-1.1-.2-1.4-.4s-.5-.5-.6-.9 0-.9.1-1.5l.9-3.5-1.3-.2.3-1.1 1.4-.1.8-2 1.5.2-.5 2.1 2.1.3-.3 1.4-2.1-.3-.8 3.5c-.1.2-.1.4-.1.6s.1.3.1.4c.1.1.2.2.3.2.1.1.2.1.3.1l1 .2-.3 1.3-1.4-.3zm-7.4-.8l-1.3-.3c-.4-.2-.7-.4-.9-.7s-.4-.7-.4-1.3c-.1-.5 0-1.1.2-1.9a6.9 6.9 0 0 1 .7-1.9c.3-.5.6-.8 1-1.1.4-.2.8-.4 1.2-.5a3.8 3.8 0 0 1 1.5 0c.5.1.9.1 1.4.2s.9.2 1.4.4l-.2 1-2.2-.3c-.5-.1-.9 0-1.2.1s-.6.3-.9.7a9.1 9.1 0 0 0-.6 1.6c-.2.7-.2 1.2-.1 1.6s.2.6.5.8.7.3 1.2.3l2.3.3-.2 1c-.3 0-.6.1-.9.1h-1.1c-.7 0-1-.1-1.4-.1zm-8-1a4.3 4.3 0 0 1-2-.6c-.5-.3-.8-.7-.9-1.3a6.5 6.5 0 0 1 .2-2.3c.2-1 .5-1.8.9-2.3s.8-.9 1.4-1c.6-.2 1.3-.2 2.2-.1.8.1 1.4.2 1.8.5.4.2.7.5.9.9.1.4.1.9 0 1.6-.1.5-.3.8-.6 1.1s-.6.4-1 .5a3.3 3.3 0 0 1-1.4 0l-2.4-.3c-.1.5-.1.8-.1 1.1.1.3.2.5.5.7s.7.3 1.3.3l2.5.3-.2 1h-1.4c-.5 0-1.1 0-1.7-.1zm-.8-4.4l2.2.3c.4 0 .6 0 .8-.1s.3-.3.4-.7c.1-.3.1-.6 0-.8s-.2-.3-.4-.4a2 2 0 0 0-.9-.2c-.4-.1-.8 0-1 .1-.3.1-.5.3-.7.6-.1.2-.2.6-.4 1.2zm-11.6 2.8l1.7-7.4 1.5.2.2.8c.4-.2.8-.3 1.4-.5.5-.1 1.1-.2 1.6-.1.6.1 1.1.3 1.4.5.3.3.5.6.6 1s.1.9-.1 1.3l-1.1 4.9-1.9-.2 1.1-4.7c.1-.3.1-.5 0-.7s-.2-.4-.4-.5-.4-.2-.7-.2h-.8c-.2 0-.5.1-.7.1-.2.1-.5.2-.7.3l-1.2 5.4-1.9-.2zm-9-1.1l1.7-7.4 1.5.2.2.8c.4-.2.8-.3 1.4-.5.5-.1 1.1-.2 1.6-.1.6.1 1.1.3 1.4.5.3.3.5.6.6 1s.1.9-.1 1.3l-1.1 4.9-1.9-.2L270 74c.1-.3.1-.5 0-.7s-.2-.4-.4-.5-.4-.2-.7-.2h-.8c-.2 0-.5.1-.7.1-.2.1-.5.2-.7.3l-1.2 5.4-1.9-.2zm-5.4-.6c-.6-.1-1.2-.2-1.6-.4s-.8-.4-1-.7-.4-.7-.4-1.2 0-1.1.2-1.9a14.5 14.5 0 0 1 .6-1.9c.3-.5.6-.8.9-1.1.4-.2.8-.4 1.3-.4.5-.1 1.1 0 1.7 0a5.3 5.3 0 0 1 1.6.4c.4.2.8.4 1 .7s.4.7.4 1.2 0 1.1-.2 1.9l-.6 1.8c-.2.5-.5.8-.9 1.1-.4.2-.8.4-1.3.5-.4.1-1 .1-1.7 0zm.3-1.4h.8c.2 0 .4-.1.6-.3.2-.1.4-.4.5-.7s.3-.8.4-1.3l.2-1.3c0-.3-.1-.6-.2-.8s-.3-.3-.5-.4-.5-.1-.8-.2h-.8c-.2 0-.4.1-.6.3-.2.1-.3.4-.5.7-.1.3-.3.7-.4 1.3a8.3 8.3 0 0 0-.2 1.3c0 .3.1.6.2.8s.3.3.5.4c.3.1.5.2.8.2zm-8.6.4a7.1 7.1 0 0 1-1.7-.4c-.5-.2-.8-.5-1.1-.9-.2-.4-.4-1-.4-1.7a10.3 10.3 0 0 1 .4-2.7c.2-1 .5-1.9.9-2.5.3-.7.7-1.1 1.2-1.5.4-.3.9-.5 1.5-.6a5.4 5.4 0 0 1 1.8 0c.4.1.9.1 1.3.2l1.1.3c.4.1.7.2.9.3l-.3 1.3c-.2-.1-.4-.1-.7-.2s-.7-.1-1-.2c-.4-.1-.8-.1-1.2-.2a2.4 2.4 0 0 0-1.2 0c-.3.1-.7.2-.9.4-.3.2-.5.6-.7 1.1a14.5 14.5 0 0 0-.6 1.9c-.2.8-.3 1.4-.3 1.9s0 .9.2 1.2c.1.3.4.5.7.6a10.4 10.4 0 0 0 1.2.3l1.9.2h1.2l-.3 1.3c-.3 0-.6.1-1 .1h-1.2l-1.7-.2zm161.6-11.8c.2.2.2.6-.1.8l-6.7 5.7c-.6.5-1.4.4-1.7-.2l-3.7-7c-.1-.3 0-.6.3-.8 1-.5 3.5-1.5 6.4-1.1a9.9 9.9 0 0 1 5.5 2.6zm12.5.1c.4-.3 1 0 .9.5l-2 8.6c-.1.6-.8 1-1.4 1l-8.8-1.1c-.5-.1-.6-.7-.2-1l11.5-8zm13.9 1.8l.8.1c.5.1.8.5.7.9l-1.9 8.3c-.1.5-.6.8-1 .7l-5.1-.6c-.5-.1-.8-.5-.7-.9l1.9-8.3c.1-.5.6-.8 1-.7l.8.1.3-1.1 3.4.4-.2 1.1z"/></g><path d="M262.8 44.9l-1.9 8.3-1.4-.2 1.5-6.6-2.2.4.3-1.1 3.5-.8h.2zm6.9 8.3l-.2 1.1-5.6-.7.2-.9 3.4-2.6c.4-.3.7-.6.9-.8s.4-.4.5-.6.2-.4.2-.6c.1-.3.1-.5 0-.7s-.2-.4-.3-.5l-.6-.3c-.3 0-.6 0-.8.1s-.4.3-.6.5-.3.5-.3.8l-1.4-.2a3.1 3.1 0 0 1 .6-1.3c.3-.4.7-.6 1.2-.8s1-.2 1.6-.2c.6.1 1 .2 1.4.5.3.2.6.5.7.9s.1.8 0 1.2c-.1.3-.2.5-.3.7s-.3.5-.5.7l-.7.7a5.5 5.5 0 0 0-.9.7l-2.3 1.7 3.8.6zm1.1.5c0-.2.2-.4.3-.5.2-.1.4-.2.6-.1.3 0 .4.1.5.3s.1.3.1.6c0 .2-.2.4-.3.5-.2.1-.4.2-.6.1-.2 0-.4-.1-.5-.3-.2-.2-.2-.4-.1-.6zm1.1-4.8c0-.2.2-.4.3-.5.2-.1.4-.2.6-.1.3 0 .4.1.5.3s.1.3.1.6c0 .2-.2.4-.3.5-.2.1-.4.2-.6.1-.2 0-.4-.1-.5-.3s-.2-.4-.1-.6zm4.4 1.3l.8.1c.3 0 .6 0 .8-.1s.4-.2.6-.4c.1-.2.3-.4.3-.6.1-.3.1-.5 0-.7 0-.2-.2-.4-.3-.5-.2-.1-.4-.2-.7-.2-.2 0-.5 0-.7.1l-.6.3c-.2.2-.3.4-.3.6l-1.4-.2c.1-.4.3-.8.6-1.1s.7-.5 1.1-.7c.5-.1.9-.2 1.4-.1s1 .2 1.4.4.6.5.8.9c.1.4.2.8 0 1.3l-.3.7-.6.6c-.3.2-.6.3-.9.4-.4.1-.7.1-1.2 0l-1-.1.2-.7zm-.2 1.1l.2-.7 1 .1 1.2.3c.3.2.6.3.7.6.2.2.3.5.3.7v.8c-.1.4-.2.7-.5 1-.2.3-.5.5-.8.7a3 3 0 0 1-1 .4c-.4.1-.8.1-1.2 0-.4 0-.7-.1-1-.3-.3-.1-.6-.3-.8-.5s-.4-.5-.5-.8a1.7 1.7 0 0 1 0-1l1.4.2c-.1.2 0 .5 0 .7.1.2.2.4.4.5s.4.2.7.2.6 0 .8-.1.4-.2.6-.4.3-.4.3-.7c.1-.3.1-.6 0-.8s-.2-.4-.4-.5-.5-.2-.8-.2l-.6-.2zm10.8.2l-.3 1.3c-.1.6-.3 1.2-.6 1.6-.2.4-.5.8-.8 1-.3.3-.6.4-1 .5s-.8.1-1.2.1c-.3 0-.6-.1-.9-.2s-.5-.3-.7-.5-.3-.5-.4-.8-.1-.7-.1-1.1.1-.9.2-1.4l.3-1.3c.1-.6.3-1.2.6-1.6.2-.4.5-.8.8-1 .3-.3.6-.4 1-.5s.8-.1 1.2-.1c.3 0 .6.1.9.2s.5.3.7.5.3.5.4.7c.1.3.1.6.1 1 0 .6-.1 1-.2 1.6zm-1.8 1.3l.4-1.7c.1-.3.1-.6.1-.9v-.7c0-.2-.1-.3-.2-.5l-.3-.3c-.1-.1-.3-.1-.5-.1s-.4 0-.6.1-.4.2-.5.3c-.2.2-.3.4-.4.7l-.3 1-.4 1.7c-.1.3-.1.6-.1.9v.7c0 .2.1.3.2.5l.3.3c.1.1.3.1.5.1s.4 0 .6-.1.4-.2.5-.3c.2-.2.3-.4.4-.7.1-.2.3-.6.3-1z" opacity=".6" enable-background="new"/><g class="P"><path d="M296.2 126.3l1-4.3 3 2.6-4 1.7zm66.3 8.1l1-4.3 3 2.6-4 1.7z"/></g><defs><path id="O" d="M375.1 128l47.4 5.8-2.9 12.4-47.4-5.8z"/></defs><clipPath id="P"><use href="#O"/></clipPath><g clip-path="url(#P)"><linearGradient id="Q" gradientUnits="userSpaceOnUse" x1="381.07" y1="132.96" x2="420.55" y2="142.07"><stop offset="0" stop-color="#055fcd"/><stop offset="1" stop-color="#044aa0"/></linearGradient><path d="M422.5 133.8l-34.7-4.3-1.8 7c-.6 1.9-2.9 3.3-6.8 4.7l40.4 5-1.8-6.5 4.7-5.9z" fill="url(#Q)"/><path d="M389.8 133.8l1.6.2c.3 0 .6.1.8.3a1.2 1.2 0 0 1 .5.5c.1.2.1.5 0 .8-.1.2-.1.4-.3.6-.1.2-.3.3-.4.4-.2.1-.4.2-.6.2l-.3.1-1.4-.2.1-.7 1.1.1h.5c.1 0 .2-.1.3-.2s.1-.2.2-.4v-.4c0-.1-.1-.2-.2-.3s-.2-.1-.4-.1l-.8-.1-.9 3.8-.8-.1 1-4.5zm1.5 4.7l-.6-2.1.9.1.6 2.1h0l-.9-.1zm1.6-1.4h0c.1-.3.2-.5.3-.7s.3-.4.4-.5.4-.2.6-.3.4-.1.7 0c.3 0 .5.1.6.2.2.1.3.2.4.4s.2.4.2.6v.7.1c-.1.2-.1.5-.3.7-.1.2-.3.4-.4.5l-.6.3c-.2.1-.4.1-.7 0-.2 0-.5-.1-.6-.2-.2-.1-.3-.2-.4-.4s-.2-.4-.2-.6v-.8zm.9 0h0c0 .2-.1.3-.1.5 0 .1 0 .2.1.3 0 .1.1.2.2.3s.2.1.3.1h.4c.1 0 .2-.1.3-.2s.2-.2.2-.3c.1-.1.1-.3.1-.4v-.1-.4c0-.1 0-.2-.1-.3 0-.1-.1-.2-.2-.3s-.2-.1-.3-.1h-.4c-.1 0-.2.1-.3.2s-.2.2-.2.3v.4zm4 1.7h.3c.1 0 .2-.1.3-.2s.1-.2.2-.3l.8.1-.3.6c-.2.2-.4.3-.6.4s-.5.1-.7.1c-.3 0-.5-.1-.6-.2-.2-.1-.3-.2-.4-.4s-.1-.4-.2-.6c0-.2 0-.4.1-.7v-.1c.1-.2.1-.4.2-.6s.2-.4.4-.5.3-.2.6-.3.4-.1.7 0c.3 0 .5.1.7.2s.3.3.4.5.1.4 0 .7l-.8-.1v-.3c0-.1-.1-.2-.2-.2-.1-.1-.2-.1-.3-.1h-.4c-.1 0-.2.1-.3.2s-.1.2-.2.3c0 .1-.1.2-.1.4v.1c0 .1-.1.3-.1.4v.3c0 .1.1.2.2.3 0-.1.1-.1.3 0zm3.7-3.8l-1.1 4.7-.8-.1 1.1-4.7.8.1zm1.7 1.6l-1.8 1.4-1 .7-.1-.7.8-.7 1.1-.9 1 .2zm-1.6 3.2l-.7-1.7.7-.5 1 2.2h-1zm3.4-.5v-.2c0-.1-.1-.1-.2-.2s-.2-.1-.4-.2-.3-.1-.4-.2-.2-.2-.3-.2c-.1-.1-.1-.2-.2-.3v-.4c0-.1.1-.3.2-.4l.3-.3c.1-.1.3-.1.5-.2h.6c.3 0 .5.1.7.2s.3.3.4.4c.1.2.1.4 0 .6l-.8-.1v-.2c0-.1-.1-.1-.1-.2-.1-.1-.2-.1-.3-.1h-.3c-.1 0-.2.1-.2.1-.1.1-.1.1-.1.2v.1s0 .1.1.1c0 0 .1.1.2.1s.2.1.3.1l.6.3c.2.1.3.2.4.4.1.1.1.3 0 .5 0 .1-.1.3-.2.4l-.3.3c-.1.1-.3.1-.5.2h-.6c-.3 0-.6-.1-.7-.3-.2-.1-.3-.3-.4-.5s-.1-.4 0-.5l.8.1v.3c0 .1.1.1.2.2.1 0 .2.1.3.1h.3c.1 0 .2-.1.2-.1-.2 0-.2 0-.1-.1zm3.5-2l-.1.6-1.9-.2.1-.6 1.9.2zm-1.2-1l.8.1-.7 3.1v.2c0 .1 0 .1.1.1 0 0 .1 0 .2.1h.1.1l-.1.6h-.2-.3c-.2 0-.3-.1-.5-.2l-.3-.3v-.6l.8-3.1zm3 3.9l.3-1.5v-.3c0-.1-.1-.2-.1-.2-.1-.1-.2-.1-.3-.1h-.3c-.1 0-.2.1-.2.1-.1.1-.1.1-.1.2l-.8-.1c0-.1.1-.3.2-.4s.2-.2.4-.3c.1-.1.3-.1.5-.2h.6c.3 0 .5.1.6.2.2.1.3.3.4.4.1.2.1.4 0 .7l-.3 1.4c0 .2-.1.3-.1.4v.3.1l-.8-.1v-.3c-.1-.1 0-.2 0-.3zm.4-1.3l-.1.5-.5-.1h-.3c-.1 0-.2 0-.3.1-.1 0-.1.1-.2.2 0 .1-.1.1-.1.2v.2c0 .1.1.1.1.2.1 0 .1.1.2.1h.4c.1 0 .2-.1.3-.2s.1-.1.1-.2l.2.4c0 .1-.1.2-.2.2-.1.1-.2.2-.3.2-.1.1-.2.1-.4.2h-.5c-.2 0-.4-.1-.6-.2s-.3-.2-.3-.4c-.1-.2-.1-.3 0-.5 0-.2.1-.3.2-.4s.2-.2.4-.3.3-.1.5-.2h.7.7zm2.4-.4l-.6 2.6-.8-.1.8-3.3.8.1-.2.7zm1.2-.5l-.2.7h-.2-.2-.3c-.1 0-.2.1-.3.1l-.2.2c-.1.1-.1.2-.1.3h-.2c0-.2.1-.4.2-.6s.2-.3.3-.4.2-.2.4-.3c.1-.1.3-.1.5-.1h.1c.1 0 .1.1.2.1z" class="Q"/></g><g fill="#044aa0"><path d="M386.1 127.9l-1.6 6.8c0 .1 0 .1-.1.2-.1.5-.3 1.3-1.2 2.1-1.2 1.1-3.1 2-5.9 2.8-2.2-1.4-3.7-2.7-4.3-4.1-.5-1-.3-1.8-.2-2.3v-.2l1.6-6.8 5.8.7 5.9.8zm1.4-.9l-6.9-.9-6.9-.9-1.8 7.9c-.2 1.1-1.2 4 5.3 7.9 7.9-2.1 8.2-5 8.6-6.1l1.7-7.9zm-8.7 6.9l-1-.1-.6 2.6-1.8-.2 1.7-7.3 2.9.4c.9.1 1.5.4 1.9.8s.5 1 .4 1.7c-.1.5-.3.9-.6 1.2s-.7.5-1.2.7l.9 3.1v.1l-1.9-.2-.7-2.8zm-.7-1.5l1.1.1c.3 0 .6 0 .8-.2s.4-.4.4-.7c.1-.3 0-.6-.1-.8s-.4-.3-.7-.4l-1.1-.1-.4 2.1zm5-9.1l-1.4-2.2-2.3 1.7-1.7-.9-.6 2.5 3.8.5 3.8.5.6-2.5-2.2.4z"/></g><defs><path id="R" d="M308.7 119.8l47.4 5.9-2.8 12.4-47.4-5.9z"/></defs><clipPath id="S"><use href="#R"/></clipPath><g clip-path="url(#S)"><linearGradient id="T" gradientUnits="userSpaceOnUse" x1="314.11" y1="124.7" x2="354.21" y2="133.95"><stop offset="0" stop-color="#3886e7"/><stop offset="1" stop-color="#055fcd"/></linearGradient><path d="M356.1 125.6l-34.7-4.3-1.6 6.8c-1.2 2.4-4.9 4.7-7.6 4.8l41.1 5-1.7-6.7 4.5-5.6z" fill="url(#T)"/><path d="M323.8 125.7l.7.1.5 3.5 2-3.2.7.1-2.7 4.2-.6-.1-.6-4.6zm-.4 0l.7.1-.6 3.1-.3 1.4-.8-.1 1-4.5zm4 .4l.7.1-1 4.4-.8-.1.3-1.4.8-3zm2.5 4.2l.3-1.5v-.3c0-.1-.1-.2-.1-.2-.1-.1-.2-.1-.3-.1h-.3c-.1 0-.2.1-.2.1-.1.1-.1.1-.1.2l-.8-.1c0-.1.1-.3.2-.4s.2-.2.4-.3c.1-.1.3-.1.5-.2h.6c.3 0 .5.1.6.2.2.1.3.3.4.4.1.2.1.4 0 .7l-.3 1.4c0 .2-.1.3-.1.4v.3.1l-.8-.1v-.3c-.1-.1-.1-.2 0-.3zm.4-1.3l-.1.5-.5-.1h-.3c-.1 0-.2 0-.3.1-.1 0-.1.1-.2.2 0 .1-.1.1-.1.2v.2c0 .1.1.1.1.2.1 0 .1.1.2.1h.4c.1 0 .2-.1.3-.2s.1-.2.1-.2l.2.4c0 .1-.1.2-.2.2-.1.1-.2.2-.3.2-.1.1-.2.1-.4.2h-.5c-.2 0-.4-.1-.6-.2s-.3-.2-.3-.4c-.1-.2-.1-.3 0-.5 0-.2.1-.3.2-.4s.2-.2.4-.3.3-.1.5-.2h.7.7zm3 1.5v-.2c0-.1-.1-.1-.2-.2s-.2-.1-.4-.2-.3-.1-.4-.2-.2-.2-.3-.2c-.1-.1-.1-.2-.2-.3v-.4c0-.1.1-.3.2-.4l.3-.3c.1-.1.3-.1.5-.2h.6c.3 0 .5.1.7.2s.3.3.4.4c.1.2.1.4 0 .6l-.8-.1v-.2c0-.1-.1-.1-.1-.2-.1-.1-.2-.1-.3-.1h-.3c-.1 0-.2.1-.2.1-.1.1-.1.1-.1.2v.1s0 .1.1.1c0 0 .1.1.2.1s.2.1.3.1l.6.3c.2.1.3.2.4.4.1.1.1.3 0 .5 0 .1-.1.3-.2.4l-.3.3c-.1.1-.3.1-.5.2h-.6c-.3 0-.6-.1-.7-.3-.2-.1-.3-.3-.4-.5s-.1-.4 0-.5l.8.1v.3c0 .1.1.2.2.2s.2.1.3.1h.3c.1 0 .2-.1.2-.1-.1 0-.1 0-.1-.1zm3.6-2l-.1.6-1.9-.2.1-.6 1.9.2zm-1.3-1l.8.1-.7 3.1v.2c0 .1 0 .1.1.1 0 0 .1 0 .2.1h.1.1l-.1.6h-.2-.3c-.2 0-.3-.1-.5-.2l-.3-.3v-.6l.8-3.1zm2.5 4.6c-.3 0-.5-.1-.7-.2s-.3-.2-.4-.4-.2-.3-.2-.5v-.6-.1c.1-.3.1-.5.3-.7.1-.2.3-.4.4-.5l.6-.3c.2-.1.4-.1.7 0 .2 0 .4.1.6.2s.3.2.4.4.1.3.2.5c0 .2 0 .4-.1.7l-.1.3-2.6-.3.1-.6 1.8.2v-.1-.4c0-.1-.1-.2-.2-.3s-.2-.1-.3-.1h-.3c-.1 0-.2.1-.3.2s-.1.2-.2.3-.1.3-.1.4v.1.4c0 .1 0 .2.1.3s.1.2.2.2c.1.1.2.1.3.1h.5c.2 0 .3-.1.4-.2l.3.5c-.1.1-.2.2-.4.3-.1.1-.3.1-.5.2h-.5zm3.4-2.4l-.6 2.6-.8-.1.8-3.3.8.1-.2.7zm1.1-.5l-.2.7h-.2-.2-.3c-.1 0-.2.1-.3.1l-.2.2c-.1.1-.1.2-.1.3h-.2c0-.2.1-.4.2-.6s.2-.3.3-.4.2-.2.4-.3c.1-.1.3-.1.5-.1h.1c.2 0 .2 0 .2.1z" class="Q"/></g><g class="P"><path d="M319.8 119.8l-1.6 6.8c0 .1 0 .1-.1.2-.1.5-.3 1.3-1.2 2.1-1.2 1.1-3.1 2-5.9 2.8-2.2-1.4-3.7-2.7-4.3-4.1-.5-1-.3-1.8-.2-2.3v-.2l1.6-6.8 5.8.7 5.9.8zm1.4-1l-6.9-.9-6.9-.9-1.8 7.9c-.2 1.1-1.2 4 5.3 7.9 7.9-2.1 8.2-5 8.6-6.1l1.7-7.9zm-10.7 1.8l1.3.2.4 4.6 2.5-4.3 1.3.2-3.7 6.1-1-.1-.8-6.7zm-.8-.1l1.3.2-.9 4.9-.3 1.5-1.6-.2 1.5-6.4zm5.7.7l1.3.2-1.5 6.4-1.6-.2.3-1.5 1.5-4.9z"/></g><defs><path id="U" d="M242.4 111.7l47.4 5.8-2.9 12.4-47.4-5.8z"/></defs><clipPath id="V"><use href="#U"/></clipPath><g clip-path="url(#V)"><linearGradient id="W" gradientUnits="userSpaceOnUse" x1="247.77" y1="116.55" x2="287.87" y2="125.8"><stop offset="0" stop-color="#589aeb"/><stop offset="1" stop-color="#3886e7"/></linearGradient><path d="M289.8 117.5l-34.7-4.3s-.8 6.3-2.5 8a13.8 13.8 0 0 1-6.7 3.6l41.1 5-1.8-6.5 4.6-5.8z" fill="url(#W)"/><path d="M259.2 121.6l-.2.7-2.4-.3.2-.7 2.4.3zm-1.3-4l-1 4.4-.8-.1 1-4.4.8.1zm1.4 2.1l-.1.6-2.1-.3.1-.6 2.1.3zm.8-1.8l-.2.7-2.4-.3.2-.7 2.4.3zm.9 1.2l.4 1.1.8-1 .9.1-1.4 1.5.6 1.8-.9-.1-.4-1.2-.9 1-.9-.1 1.4-1.5-.6-1.7 1 .1zm3.2 1.1l-.9 3.9-.8-.1 1-4.5.8.1-.1.6zm1.9 1.2h0c-.1.3-.1.5-.3.7-.1.2-.2.4-.4.5-.1.1-.3.2-.5.3s-.4.1-.6.1-.4-.1-.5-.2-.2-.2-.3-.4-.1-.3-.1-.5v-.6-.2l.3-.6c.1-.2.2-.3.4-.5.1-.1.3-.2.5-.3s.4-.1.6-.1.4.1.5.2.3.2.3.4.1.3.1.6c.1.1.1.4 0 .6zm-.8 0h0c0-.2.1-.3.1-.5v-.3c0-.1-.1-.2-.2-.2-.1-.1-.2-.1-.3-.1h-.3c-.1 0-.2.1-.3.1-.1.1-.1.2-.2.2-.1.1-.1.2-.1.3l-.1.5v.4c0 .1.1.2.2.3s.2.1.4.2h.3c.1 0 .2-.1.3-.2s.1-.2.2-.3c-.1-.1-.1-.3 0-.4zm2.5 2c-.3 0-.5-.1-.7-.2s-.3-.2-.4-.4-.2-.3-.2-.5v-.6-.1c.1-.3.1-.5.3-.7.1-.2.3-.4.4-.5l.6-.3c.2-.1.4-.1.7 0 .2 0 .4.1.6.2s.3.2.4.4.1.3.2.5c0 .2 0 .4-.1.7l-.1.3-2.6-.3.1-.6 1.8.2v-.1-.4c0-.1-.1-.2-.2-.3s-.2-.1-.3-.1h-.3c-.1 0-.2.1-.3.2s-.1.2-.2.3-.1.3-.1.4v.1.4c0 .1 0 .2.1.3s.1.2.2.2c.1.1.2.1.3.1h.5c.2 0 .3-.1.4-.2l.3.5c-.1.1-.2.2-.4.3-.1.1-.3.1-.5.2h-.5zm3.3-2.3l-.6 2.6-.8-.1.8-3.3.8.1-.2.7zm1.2-.6l-.2.7h-.1-.2-.3c-.1 0-.2.1-.3.1l-.2.2c-.1.1-.1.2-.1.3h-.2c0-.2.1-.4.2-.6s.2-.3.3-.4.2-.2.4-.3c.1-.1.3-.1.5-.1h.1c0 .1.1.1.1.1zm2.2.3l-.1.6-1.9-.2.1-.6 1.9.2zm-1.2-1l.8.1-.7 3.1v.2c0 .1 0 .1.1.1 0 0 .1 0 .2.1h.1.1l-.1.6h-.2-.3c-.2 0-.3-.1-.5-.2l-.3-.3v-.6l.8-3.1z" class="Q"/></g><g fill="#589aeb"><path d="M253.6 111.6l-1.6 6.8c0 .1 0 .1-.1.2-.1.5-.3 1.3-1.2 2.1-1.2 1.1-3.1 2-5.9 2.8-2.2-1.4-3.7-2.7-4.3-4.1-.5-1-.3-1.8-.2-2.3v-.2l1.6-6.8 5.8.7 5.9.8zm1.3-.9l-6.9-.9-6.9-.9-1.8 7.9c-.2 1.1-1.2 4 5.3 7.9 7.9-2.1 8.2-5 8.6-6.1l1.7-7.9zm-6.8 8.6l-.3 1.3-4.2-.5.3-1.3 4.2.5zm-2.2-6.6l-1.7 7.5-1.8-.2 1.7-7.5 1.8.2zm2.4 3.4l-.3 1.3-3.7-.4.3-1.3 3.7.4zm1.2-3l-.3 1.3-4.2-.5.3-1.3 4.2.5z"/></g><path d="M209.9 296.1l170.3 24c5.2.7 8.5 5.5 7.3 10.6l-19 82.3c-1.2 5.1-6.4 8.7-11.6 8l-170.3-24c-5.2-.7-8.5-5.5-7.3-10.6l19-82.3c1.2-5.2 6.4-8.8 11.6-8z" class="R"/><path d="M207.6 292.7l170.3 24c5.2.7 8.5 5.5 7.3 10.6l-19 82.2c-1.2 5.1-6.4 8.7-11.6 8l-170.3-24c-5.2-.7-8.5-5.5-7.3-10.6l19-82.2c1.2-5.1 6.4-8.7 11.6-8z" class="Q"/><path d="M253.1 352.9c-3.3 14.3-17.8 24.3-32.3 22.2-14.6-2-23.7-15.3-20.4-29.6s17.8-24.3 32.3-22.2c14.6 2 23.7 15.3 20.4 29.6zm-44.8-6.3c-2.3 10 4.1 19.3 14.3 20.7s20.3-5.5 22.6-15.6c2.3-10-4.1-19.3-14.3-20.7-10.1-1.4-20.2 5.6-22.6 15.6z" class="R"/><g class="P"><path d="M233.3 321.1c.2-.8 1-1.4 1.8-1.2 3.4.7 6.6 1.9 9.5 3.6a28.1 28.1 0 0 1 8.3 7.8c2.2 3.1 3.6 6.7 4.3 10.5.6 3.3.6 6.8 0 10.2-.1.8-1 1.4-1.8 1.3l-10.5-1.5c-.8-.1-1.3-.9-1.2-1.7.2-1.7.2-3.3-.1-4.9a14.9 14.9 0 0 0-2.4-5.8 14.6 14.6 0 0 0-4.6-4.3c-1.4-.8-2.9-1.5-4.6-1.9-.8-.2-1.3-.9-1.1-1.8l2.4-10.3zm-8.6 27.8l-.2 1c-.1.4-.2.8-.4 1.1s-.4.5-.6.7-.5.3-.7.4a1.1 1.1 0 0 1-.8 0c-.2 0-.4-.1-.6-.2s-.3-.2-.5-.4c-.1-.2-.2-.3-.3-.5s-.1-.5-.1-.7c0-.3 0-.6.1-1l.2-1c.1-.4.2-.8.4-1.1s.4-.5.6-.7.5-.3.7-.3a1.1 1.1 0 0 1 .8 0c.2 0 .4.1.6.2s.3.2.5.4c.1.1.2.3.3.5s.1.5.1.7 0 .5-.1.9zm-1.3 1l.3-1.3c.1-.2.1-.4.1-.6v-.4c0-.1-.1-.2-.1-.3-.1-.1-.1-.2-.2-.2s-.2-.1-.3-.1h-.4c-.1 0-.2.1-.3.2s-.2.3-.3.4c-.1.2-.2.4-.2.7l-.3 1.3c-.1.2-.1.4-.1.6v.4c0 .1.1.2.1.3.1.1.1.2.2.2s.2.1.3.1h.4c.1 0 .2-.1.3-.2s.2-.3.3-.4c0-.2.1-.5.2-.7zm5.5 2.2l-.2.8-4-.6.2-.7 2.4-1.8a3.8 3.8 0 0 0 .6-.5c.2-.1.3-.3.3-.4.1-.1.1-.3.2-.4v-.5c0-.1-.1-.3-.2-.4s-.2-.1-.4-.2c-.2 0-.4 0-.5.1-.2.1-.3.2-.4.3s-.2.3-.2.5l-1.1-.2c.1-.3.2-.6.5-.9.2-.3.5-.5.9-.6.3-.1.7-.2 1.1-.1l1 .3c.3.2.4.4.5.6.1.3.1.6 0 .9 0 .2-.1.4-.2.5-.1.2-.2.3-.4.5l-.5.5c-.2.2-.4.3-.6.5l-1.4 1.1 2.4.7zm5.2-1.9l-.2 1c-.1.4-.2.8-.4 1.1s-.4.5-.6.7-.5.3-.7.4a1.1 1.1 0 0 1-.8 0c-.2 0-.4-.1-.6-.2s-.3-.2-.5-.4c-.1-.1-.2-.3-.3-.5s-.1-.5-.1-.7c0-.3 0-.6.1-1l.2-1c.1-.4.2-.8.4-1.1s.4-.5.6-.7.5-.3.7-.3a1.1 1.1 0 0 1 .8 0c.2 0 .4.1.6.2s.3.2.5.4c.1.1.2.3.3.5a1.7 1.7 0 0 1 .1.7c.1.2 0 .6-.1.9zm-1.3 1l.3-1.3c.1-.2.1-.4.1-.6v-.4c0-.1-.1-.2-.1-.3-.1-.1-.1-.2-.2-.2s-.2-.1-.3-.1h-.4c-.1 0-.2.1-.3.2s-.2.3-.3.4c-.1.2-.2.4-.2.7l-.3 1.3c-.1.2-.1.4-.1.6v.4c0 .1.1.2.1.3.1.1.1.2.2.2s.2.1.3.1h.4c.1 0 .2-.1.3-.2s.2-.3.3-.4c.1-.2.2-.4.2-.7z"/></g><path d="M357 367.6c-3.3 14.3-17.8 24.3-32.3 22.2-14.6-2-23.7-15.3-20.4-29.6s17.8-24.3 32.3-22.2c14.6 2 23.7 15.2 20.4 29.6zm-44.8-6.3c-2.3 10 4.1 19.3 14.3 20.7s20.3-5.5 22.6-15.6c2.3-10-4.1-19.3-14.3-20.7-10.1-1.4-20.3 5.5-22.6 15.6z" class="R"/><g class="P"><path d="M337.2 335.7c.2-.8 1-1.4 1.8-1.2 3.4.7 6.6 1.9 9.5 3.6a28.1 28.1 0 0 1 8.3 7.8c2.2 3.1 3.6 6.7 4.3 10.5a28.9 28.9 0 0 1-.3 11.7 32.9 32.9 0 0 1-4.9 11c-2.3 3.4-5.3 6.3-8.7 8.7s-7.3 4.1-11.2 5a31.1 31.1 0 0 1-10.5.8c-.8-.1-1.4-.8-1.2-1.7l2.4-10.4c.2-.8 1-1.4 1.9-1.3a17.7 17.7 0 0 0 5.1-.5c2.2-.5 4.3-1.5 6.2-2.8s3.5-2.9 4.8-4.8 2.2-3.9 2.7-6.1c.5-2.1.6-4.3.2-6.4a14.9 14.9 0 0 0-2.4-5.8 14.6 14.6 0 0 0-4.6-4.3c-1.4-.8-2.9-1.5-4.6-1.9-.8-.2-1.3-.9-1.1-1.8l2.3-10.1zm-8.6 27.8l-.2 1c-.1.4-.2.8-.4 1.1s-.4.5-.6.7-.5.3-.7.4a1.1 1.1 0 0 1-.8 0c-.2 0-.4-.1-.6-.2s-.3-.2-.5-.4c-.1-.2-.2-.3-.3-.5s-.1-.5-.1-.7c0-.3 0-.6.1-1l.2-1c.1-.4.2-.8.4-1.1s.4-.5.6-.7.5-.3.7-.3a1.1 1.1 0 0 1 .8 0c.2 0 .4.1.6.2s.3.2.5.3c.1.1.2.3.3.5a1.7 1.7 0 0 1 .1.7c0 .3 0 .7-.1 1zm-1.4 1l.3-1.3c.1-.2.1-.4.1-.6v-.4c0-.1-.1-.2-.1-.3-.1-.1-.1-.2-.2-.2s-.2-.1-.3-.1h-.4c-.1 0-.2.1-.3.2s-.2.3-.3.4c-.1.2-.2.4-.2.7l-.3 1.3c-.1.2-.1.4-.1.6v.4c0 .1.1.2.1.3.1.1.1.2.2.2s.2.1.3.1h.4c.1 0 .2-.1.3-.2s.2-.3.3-.4c.1-.2.2-.4.2-.7zm3.4-.7l.6.1h.5c.2-.1.3-.1.4-.3.1-.1.2-.3.2-.4v-.4c0-.1-.1-.2-.2-.3s-.3-.1-.5-.2h-.5c-.1 0-.3.1-.4.2s-.2.2-.2.4l-1.1-.2c.1-.3.2-.6.4-.8s.5-.4.8-.5.7-.1 1-.1l1 .3a1.7 1.7 0 0 1 .6.6c.1.3.1.6 0 .9 0 .2-.1.3-.2.5s-.3.3-.5.4-.4.2-.7.2c-.2 0-.5.1-.8 0l-.8-.1.4-.3zm-.2.8l.1-.6.8.1c.3 0 .6.1.8.2s.4.2.5.4.2.3.2.5v.6c-.1.3-.2.5-.3.7-.2.2-.3.4-.6.5-.2.1-.5.2-.7.2h-.8c-.2 0-.5-.1-.7-.2s-.4-.2-.6-.4-.3-.4-.3-.6c-.1-.2-.1-.5 0-.8l1.1.2v.4c.1.1.1.2.3.3.1.1.3.1.5.2h.5c.2-.1.3-.1.4-.3.1-.1.2-.3.2-.5.1-.2 0-.4 0-.5-.1-.1-.1-.3-.3-.3-.1-.1-.3-.1-.5-.2l-.6.1zm7.6.2l-.2 1c-.1.4-.2.8-.4 1.1s-.4.5-.6.7-.5.3-.7.4a1.1 1.1 0 0 1-.8 0c-.2 0-.4-.1-.6-.2s-.3-.2-.5-.4c-.1-.1-.2-.3-.3-.5s-.1-.5-.1-.7c0-.3 0-.6.1-1l.2-1c.1-.4.2-.8.4-1.1s.4-.5.6-.7.5-.3.7-.3a1.1 1.1 0 0 1 .8 0c.2 0 .4.1.6.2s.3.2.5.4c.1.1.2.3.3.5a1.7 1.7 0 0 1 .1.7c0 .3 0 .6-.1.9zm-1.3 1l.3-1.3c.1-.2.1-.4.1-.6v-.4c0-.1-.1-.2-.1-.3l-.2-.2c-.1 0-.2-.1-.3-.1h-.4c-.1 0-.2.1-.3.2s-.2.3-.3.4c-.1.2-.2.4-.2.7l-.3 1.3c-.1.2-.1.4-.1.6v.4c0 .1.1.2.1.3.1.1.1.2.2.2s.2.1.3.1h.4c.1 0 .2-.1.3-.2s.2-.3.3-.4c.1-.2.1-.4.2-.7z"/></g><path d="M181.8 412.3l167.5 23.6c5.1.7 8.4 5.4 7.2 10.5l-18.1 78.4c-1.2 5.1-6.3 8.6-11.4 7.8L159.5 509c-5.1-.7-8.4-5.4-7.2-10.5l18.1-78.4c1.1-5 6.3-8.5 11.4-7.8z" class="R"/><path d="M179.6 409l167.5 23.6c5.1.7 8.4 5.4 7.2 10.5l-18.1 78.4c-1.2 5.1-6.3 8.6-11.4 7.8l-167.5-23.6c-5.1-.7-8.4-5.4-7.2-10.5l18.1-78.4c1.1-5 6.2-8.5 11.4-7.8z" class="Q"/><path d="M180.6 424.4l-.1.3a3 3 0 0 1-.4 1c-.2.3-.4.5-.6.7s-.5.3-.8.4-.6.1-.9 0c-.3 0-.6-.1-.8-.3-.2-.1-.4-.3-.5-.6-.1-.2-.2-.5-.3-.8 0-.3 0-.6.1-1l.1-.3a3 3 0 0 1 .4-1c.2-.3.4-.5.6-.7s.5-.3.8-.4.6-.1.9 0c.3 0 .6.1.8.3.2.1.4.3.5.6.1.2.2.5.2.8.1.3.1.6 0 1zm-.9.1l.1-.3c.1-.3.1-.5.1-.7s0-.4-.1-.6-.2-.3-.3-.4-.3-.2-.5-.2h-.5c-.2.1-.3.1-.5.3-.1.1-.3.3-.4.5s-.2.4-.2.7l-.1.3c-.1.3-.1.5-.1.7s0 .4.1.6.2.3.3.4.3.2.5.2h.5c.2-.1.3-.1.4-.3.1-.1.3-.3.4-.5.2-.2.2-.4.3-.7zm2.2 2.7l-.8-.1.9-4c.1-.3.2-.5.3-.7s.3-.3.5-.4.5-.1.7 0c.1 0 .2 0 .2.1.1 0 .2 0 .2.1l-.2.6h-.1-.2-.3c-.1 0-.2.1-.2.2-.1.1-.1.2-.1.3l-.9 3.9zm1.6-3.5l-.1.6-2.1-.3.1-.6 2.1.3zm.9 3.9l-.8-.1.9-4c.1-.3.2-.5.3-.7s.3-.3.5-.4.5-.1.7 0c.1 0 .2 0 .2.1.1 0 .2 0 .2.1l-.2.6h-.1-.2-.3c-.1 0-.2.1-.2.2-.1.1-.1.2-.1.3l-.9 3.9zm1.6-3.6l-.1.6-2.1-.3.1-.6 2.1.3zm1.3 4c-.3 0-.5-.1-.7-.2a1.2 1.2 0 0 1-.5-.5c-.1-.2-.2-.4-.2-.6v-.7-.1l.3-.8a1.2 1.2 0 0 1 .5-.5l.6-.3c.2-.1.5-.1.7 0 .3 0 .5.1.7.2s.3.3.4.4c.1.2.2.4.2.6s0 .5-.1.7l-.1.3-2.8-.4.1-.6 2 .3v-.1-.4c0-.1-.1-.2-.2-.3s-.2-.2-.4-.2h-.4c-.1 0-.2.1-.3.2s-.2.2-.3.4c-.1.1-.1.3-.2.5v.1.5c0 .1.1.3.1.4.1.1.1.2.3.3.1.1.2.1.4.1h.6c.2-.1.3-.1.5-.3l.3.5c-.1.1-.2.2-.4.3-.1.1-.3.1-.5.2s-.4.1-.6 0zm3.6-2.5l-.7 2.9-.8-.1.8-3.6.8.1-.1.7zm1.3-.6l-.2.8h-.2-.2-.4c-.1 0-.2.1-.3.1-.1.1-.2.1-.2.2-.1.1-.1.2-.1.3h-.2c.1-.2.1-.4.2-.6s.2-.4.3-.5.3-.2.4-.3c.2-.1.3-.1.5-.1h.2c.1.1.2.1.2.1zm4.4 3.1v-.3c0-.1 0-.2-.1-.2-.1-.1-.2-.2-.3-.2-.1-.1-.3-.2-.5-.3l-.6-.3c-.2-.1-.3-.2-.4-.4-.1-.1-.2-.3-.3-.5v-.6c0-.2.1-.4.3-.5.1-.2.3-.3.5-.4s.4-.2.6-.2h.7c.4.1.7.2.9.3.2.2.4.4.5.6s.1.5 0 .8l-.8-.1v-.4c0-.1-.1-.2-.2-.3s-.3-.2-.5-.2h-.5c-.1 0-.3.1-.4.2s-.1.2-.2.3v.3c0 .1.1.2.1.2.1.1.2.1.3.2s.3.1.4.2c.3.1.5.2.7.4.2.1.3.3.4.4s.2.3.2.5v.5c0 .2-.1.4-.3.5-.1.2-.3.3-.5.4s-.4.2-.6.2h-.7c-.2 0-.5-.1-.7-.2s-.4-.2-.6-.4-.3-.3-.3-.5c-.1-.2-.1-.4 0-.7l.9.1v.4c0 .1.1.2.2.3s.2.2.3.2c.1.1.3.1.4.1h.5c.2 0 .3-.1.4-.2.1 0 .2-.1.2-.2zm3.8-1.9l-.1.6-2.1-.3.1-.6 2.1.3zm-1.3-1.1l.8.1-.8 3.5v.3c0 .1.1.1.1.1.1 0 .1 0 .2.1h.2.1l-.1.6h-.3-.3c-.2 0-.3-.1-.5-.2-.1-.1-.2-.2-.3-.4v-.6l.9-3.5zm3.3 4.4l.4-1.7v-.3c0-.1-.1-.2-.2-.2-.1-.1-.2-.1-.3-.1h-.4c-.1 0-.2.1-.3.1-.1.1-.1.2-.1.2l-.8-.1c0-.1.1-.3.2-.4s.2-.2.4-.3.3-.1.5-.2.4 0 .6 0c.3 0 .5.1.7.2s.3.3.4.5.1.4 0 .7l-.4 1.6c0 .2-.1.3-.1.5v.4.1l-.8-.1v-.3c.1-.4.2-.5.2-.6zm.5-1.5l-.1.5-.6-.1h-.4c-.1 0-.2 0-.3.1s-.2.1-.2.2c-.1.1-.1.2-.1.2v.3c0 .1.1.2.2.2.1.1.2.1.3.1h.5c.1-.1.3-.1.4-.2s.2-.2.2-.3l.2.4c0 .1-.1.2-.2.3l-.3.3c-.1.1-.3.1-.4.2h-.5c-.2 0-.4-.1-.6-.2s-.3-.3-.4-.4c-.1-.2-.1-.4 0-.6 0-.2.1-.4.2-.5s.2-.2.4-.3.4-.1.6-.2h.7.4zm3.5-1l-.1.6-2.1-.3.1-.6 2.1.3zm-1.2-1.1l.8.1-.8 3.5v.3c0 .1.1.1.1.1.1 0 .1 0 .2.1h.2.1l-.1.6h-.3-.3c-.2 0-.3-.1-.5-.2-.1-.1-.2-.2-.3-.4v-.6l.9-3.5zm3.5 4.3l.6-2.8.8.1-.8 3.6-.8-.1.2-.8zm.2-.7h.3c-.1.2-.1.5-.2.7s-.2.4-.4.5c-.1.1-.3.2-.5.3s-.4.1-.7 0c-.2 0-.3-.1-.5-.1l-.3-.3c-.1-.1-.1-.3-.2-.5 0-.2 0-.4.1-.6l.5-2.3.8.1-.5 2.4v.3c0 .1 0 .2.1.2 0 .1.1.1.2.1s.1.1.2.1c.2 0 .4 0 .6-.1s.3-.2.4-.3c0-.2.1-.3.1-.5zm3.5 1.1v-.2c0-.1-.1-.1-.2-.2s-.3-.1-.5-.2-.4-.1-.5-.2-.3-.2-.4-.3-.2-.2-.2-.3v-.4c0-.1.1-.3.2-.4s.2-.2.4-.3c.1-.1.3-.1.5-.2h.6c.3 0 .6.1.8.3.2.1.3.3.4.5s.1.4 0 .6l-.8-.1v-.3c0-.1-.1-.2-.2-.2-.1-.1-.2-.1-.4-.1h-.4c-.1 0-.2.1-.2.1-.1.1-.1.1-.1.2v.2s0 .1.1.1c0 0 .1.1.2.1s.2.1.4.1c.3.1.5.2.7.3s.3.3.4.4c.1.2.1.3 0 .6 0 .2-.1.3-.2.4s-.2.2-.4.3-.3.1-.5.2h-.6c-.3 0-.6-.1-.8-.3s-.3-.3-.4-.5-.1-.4 0-.6l.8.1v.4c.1.1.1.2.2.2.1.1.2.1.3.1h.4c.1 0 .2-.1.3-.1.1-.1.1-.2.1-.3z" class="S"/><path d="M229.3 426.2l-1.7 7.3-1.2-.2 1.4-5.9-2 .4.2-1 3.1-.6h.2zm7.5 1.1l-.2.7-4.5 6.2-1.3-.2 4.4-5.9-3.9-.5.2-1 5.3.7zm1.4 4.2l-.9-.4 1.3-3.6 4 .6-.2 1-3-.4-.6 1.8c.1-.1.3-.1.5-.1h.7c.4.1.7.2.9.3a.9.9 0 0 1 .6.6 6.9 6.9 0 0 1 .3.8c0 .3 0 .7-.1 1s-.2.6-.4.9-.4.5-.6.7c-.3.2-.5.3-.9.4-.3.1-.7.1-1.1 0-.3 0-.6-.1-.9-.3-.3-.1-.5-.3-.7-.5s-.3-.5-.4-.7c-.1-.3-.1-.6 0-.9l1.2.2c0 .2 0 .5.1.6.1.2.2.3.3.4.2.1.3.2.6.2h.6c.2-.1.3-.1.4-.3.1-.1.2-.3.3-.5s.2-.4.2-.6.1-.4 0-.6c0-.2-.1-.4-.1-.5-.1-.1-.2-.3-.3-.4s-.3-.2-.6-.2h-.7c-.2.3-.3.4-.5.5z" class="P"/><path d="M208.4 467.4c-2.3 10.1-12.5 17.1-22.8 15.6a16.8 16.8 0 0 1-14.3-20.9c2.4-10.1 12.5-17.1 22.8-15.6 10.2 1.5 16.6 10.9 14.3 20.9zm-31.6-4.4a11.8 11.8 0 0 0 10 14.6 14.5 14.5 0 0 0 15.9-11 11.8 11.8 0 0 0-10-14.6c-7.1-1-14.2 3.9-15.9 11z" class="R"/><g class="P"><use href="#D"/><path d="M186.6 461.4l-1.5 6.3-1.2-.2 1.1-5-1.7.3.2-.9 2.8-.6.3.1zm2.5 3.9l-.9-.4 1.1-3.1 3.5.5-.2.9-2.6-.4-.5 1.4c.1 0 .2-.1.4-.1h.6c.3 0 .6.1.8.3a1.2 1.2 0 0 1 .5.5c.1.2.2.4.2.7s0 .6-.1.9l-.3.8c-.1.2-.3.4-.5.6s-.5.3-.8.4-.6.1-1 0c-.3 0-.5-.1-.8-.2-.2-.1-.4-.3-.6-.4-.2-.2-.3-.4-.3-.6-.1-.2-.1-.5 0-.8l1.1.2v.5c.1.1.1.3.3.4.1.1.3.2.5.2h.5c.1 0 .3-.1.4-.2s.2-.2.3-.4c.1-.1.1-.3.2-.5 0-.2.1-.3 0-.5 0-.2 0-.3-.1-.4l-.3-.3c-.1-.1-.3-.1-.5-.2h-.6c0 0-.2.1-.3.2zm8.4.3l-.2 1.1c-.1.5-.3.9-.4 1.2l-.6.8c-.2.2-.5.3-.8.4s-.6.1-.9 0c-.3 0-.5-.1-.7-.2s-.4-.2-.5-.4l-.3-.6c-.1-.2-.1-.5-.1-.8s.1-.7.1-1l.2-1.1c.1-.5.3-.9.4-1.2l.6-.8c.2-.2.5-.3.8-.4s.6-.1.9 0c.3 0 .5.1.7.2s.4.2.5.4.3.4.3.6c.1.2.1.5.1.8.1.3 0 .6-.1 1zm-1.4 1.1l.3-1.4c.1-.2.1-.5.1-.6v-.5c0-.1-.1-.2-.1-.3-.1-.1-.1-.2-.2-.2-.1-.1-.2-.1-.3-.1h-.4c-.1 0-.3.1-.4.2s-.2.3-.3.5-.2.5-.2.8l-.3 1.4c-.1.2-.1.5-.1.6v.5c0 .1.1.3.1.3.1.1.1.2.2.2.1.1.2.1.3.1h.4c.1 0 .3-.1.4-.2s.2-.3.3-.5c0-.3.1-.5.2-.8z"/></g><path d="M271 476.2c-2.3 10.1-12.5 17.1-22.8 15.6a16.8 16.8 0 0 1-14.3-20.9c2.3-10.1 12.5-17.1 22.8-15.6s16.7 10.9 14.3 20.9zm-31.5-4.4a11.8 11.8 0 0 0 10 14.6 14.5 14.5 0 0 0 15.9-11 11.8 11.8 0 0 0-10-14.6c-7.1-.9-14.3 4-15.9 11z" class="R"/><g class="P"><path d="M256.7 453.8c.1-.6.7-1 1.3-.9a19.5 19.5 0 0 1 6.7 2.6c2.3 1.4 4.3 3.3 5.8 5.5s2.6 4.7 3 7.4c.4 2.3.4 4.8 0 7.2-.1.6-.7 1-1.3.9l-7.4-1c-.6-.1-.9-.6-.9-1.2a10.3 10.3 0 0 0-.1-3.5c-.3-1.5-.8-2.9-1.7-4.1-.8-1.2-1.9-2.2-3.2-3-1-.6-2.1-1-3.2-1.3-.6-.1-.9-.7-.8-1.2l1.8-7.4zm-5.5 22.3l-.2.9-4.3-.6.2-.8 2.6-1.9c.3-.2.5-.4.7-.6l.4-.4c.1-.1.1-.3.2-.4v-.5c0-.2-.1-.3-.2-.4s-.3-.2-.5-.2-.4 0-.6.1-.3.2-.4.4-.2.3-.2.6l-1.2-.2c.1-.4.3-.7.5-1a1.8 1.8 0 0 1 .9-.6c.4-.1.8-.2 1.2-.1s.8.2 1.1.4.5.4.6.7.1.6 0 1c0 .2-.1.4-.2.6s-.3.4-.4.5c-.2.2-.4.3-.6.5s-.4.3-.7.5l-1.6 1.2 2.7.3zm5.7-2.1l-.2 1.1c-.1.5-.3.9-.4 1.2l-.6.8c-.2.2-.5.3-.8.4s-.6.1-.9 0c-.3 0-.5-.1-.7-.2s-.4-.2-.5-.4l-.3-.6c-.1-.2-.1-.5-.1-.8s.1-.7.1-1l.2-1.1c.1-.5.3-.9.4-1.2l.6-.8c.2-.2.5-.3.8-.4s.6-.1.9 0c.3 0 .5.1.7.2s.4.2.5.4.3.4.3.6c.1.2.1.5.1.8.1.2 0 .6-.1 1zm-1.4 1l.3-1.4c.1-.2.1-.5.1-.6v-.5c0-.1-.1-.2-.1-.3-.1-.1-.1-.2-.2-.2-.1-.1-.2-.1-.3-.1h-.4c-.1 0-.3.1-.4.2s-.2.3-.3.5-.2.5-.2.8l-.3 1.4c-.1.2-.1.5-.1.6v.5c0 .1.1.3.1.3.1.1.1.2.2.2.1.1.2.1.3.1h.4c.1 0 .3-.1.4-.2s.2-.3.3-.5c0-.2.1-.5.2-.8z"/></g><path d="M330.8 484.6c-2.3 10.1-12.5 17.1-22.8 15.6a16.8 16.8 0 0 1-14.3-20.9c2.4-10.1 12.5-17.1 22.8-15.6 10.2 1.5 16.6 10.9 14.3 20.9zm-31.6-4.4a11.8 11.8 0 0 0 10 14.6 14.5 14.5 0 0 0 15.9-11 11.8 11.8 0 0 0-10-14.6c-7.1-1-14.2 4-15.9 11z" class="R"/><g class="P"><path d="M316.8 462.2c.1-.6.7-1 1.3-.9a19.5 19.5 0 0 1 6.7 2.6c2.3 1.4 4.3 3.3 5.8 5.5s2.6 4.7 3 7.4c.4 2.3.4 4.8 0 7.2-.1.6-.7 1-1.3.9l-7.4-1c-.6-.1-.9-.6-.9-1.2a10.3 10.3 0 0 0-.1-3.5c-.3-1.5-.8-2.9-1.7-4.1-.8-1.2-1.9-2.2-3.2-3-1-.6-2.1-1-3.2-1.3-.6-.1-.9-.7-.8-1.2l1.8-7.4zm-5 19.5l-.2 1.1c-.1.5-.3.9-.4 1.2l-.6.8c-.2.2-.5.3-.8.4s-.6.1-.9 0c-.3 0-.5-.1-.7-.2s-.4-.2-.5-.4l-.3-.6c-.1-.2-.1-.5-.1-.8s.1-.7.1-1l.2-1.1c.1-.5.3-.9.4-1.2l.6-.8c.2-.2.5-.3.8-.4s.6-.1.9 0c.3 0 .5.1.7.2s.4.2.5.4.3.4.3.6c.1.2.1.5.1.8.1.3 0 .6-.1 1zm-1.4 1.1l.3-1.4c.1-.2.1-.5.1-.6v-.5c0-.1-.1-.2-.1-.3-.1-.1-.1-.2-.2-.2-.1-.1-.2-.1-.3-.1h-.4c-.1 0-.3.1-.4.2s-.2.3-.3.5-.2.5-.2.8l-.3 1.4c-.1.2-.1.5-.1.6v.5c0 .1.1.3.1.3.1.1.1.2.2.2.1.1.2.1.3.1h.4c.1 0 .3-.1.4-.2s.2-.3.3-.5c.1-.3.1-.5.2-.8zm3.3 0l-.9-.4 1.1-3.1 3.5.5-.2.9-2.6-.4-.5 1.4c.1 0 .2-.1.4-.1h.6c.3 0 .6.1.8.3a1.2 1.2 0 0 1 .5.5c.1.2.2.4.2.7s0 .6-.1.9l-.3.8c-.1.2-.3.4-.5.6s-.5.3-.8.4-.6.1-1 0c-.3 0-.5-.1-.8-.2-.2-.1-.4-.3-.6-.4-.2-.2-.3-.4-.3-.6-.1-.2-.1-.5 0-.8l1.1.2v.5c.1.1.1.3.3.4.1.1.3.2.5.2h.5c.1 0 .3-.1.4-.2s.2-.2.3-.4c.1-.1.1-.3.2-.5 0-.2.1-.3 0-.5 0-.2 0-.3-.1-.4l-.3-.3c-.1-.1-.3-.1-.5-.2h-.6s-.2.1-.3.2z"/></g></g><use href="#E" class="Q"/><use href="#E" fill="none" stroke="#c6dfff" class="T"/><use href="#F" class="P"/><path d="M192.7 161.8c.5.1 1 .2 1.4.2l1 .3a6.9 6.9 0 0 1 1 .4l-.6 1.8c-.4-.1-.7-.1-1-.2s-.6-.1-1-.2c-.3-.1-.8-.1-1.3-.2a2.1 2.1 0 0 0-1.4.2c-.4.2-.7.5-.9 1a7.1 7.1 0 0 0-.7 2.2c-.2.9-.3 1.7-.3 2.3s.1 1 .4 1.2c.3.3.7.4 1.3.5l1.9.2c.5 0 1.1.1 1.6.1l-.2 1.9c-.6.1-1.1.1-1.7.1s-1.3-.1-2.1-.2c-1.2-.2-2.1-.5-2.7-1a3.1 3.1 0 0 1-1.1-2.1c-.1-.9 0-2.1.3-3.5s.7-2.5 1.3-3.4a3.9 3.9 0 0 1 2-1.6c.6-.1 1.6-.1 2.8 0zm-11.5-1.6l1.9.3 1.9.3c.6.1 1.2.2 1.7.4l-.5 1.8-4.5-.6c-.3 0-.5 0-.7.1s-.3.3-.4.6l-1.4 5.9c-.1.3 0 .5.1.7s.3.3.6.3l4.5.6-.3 1.9c-.6 0-1.1-.1-1.8-.1-.6-.1-1.3-.1-1.9-.2l-1.9-.3c-.7-.1-1.3-.4-1.7-.9s-.5-1.1-.3-1.8l1.6-7a2.6 2.6 0 0 1 1.1-1.6c.6-.4 1.2-.5 2-.4zm-3.3 4.4l7 1-.4 1.8-7-1 .4-1.8z" class="Q"/><path d="M215.6 159.3l-2 8.5-1.6-.2 2-8.5 1.6.2zm2.4 3.9l-1.1 5-1.6-.2 1.5-6.3 1.5.2-.3 1.3zm-.6 1.6l-.5-.1c.1-.5.3-.9.5-1.2.2-.4.5-.7.7-.9.3-.2.6-.4.9-.5s.7-.1 1.1-.1c.3 0 .6.1.8.2a1.2 1.2 0 0 1 .5.5c.1.2.2.5.2.8s0 .7-.1 1.1l-.9 4-1.6-.2.9-4.1c.1-.3.1-.5 0-.7 0-.2-.1-.3-.3-.4-.1-.1-.3-.2-.6-.2-.2 0-.5 0-.7.1s-.4.2-.5.3c-.2.2-.3.3-.4.5.1.4 0 .6 0 .9zm9.2-1.7l-.3 1.1-3.7-.5.3-1.1 3.7.5zm-2.3-2l1.6.2-1.4 6c0 .2-.1.3 0 .4 0 .1.1.2.2.2s.2.1.4.1h.3.2l-.3 1.2h-.5-.6c-.4 0-.6-.2-.9-.3-.2-.2-.4-.4-.5-.7s-.1-.7 0-1.1l1.5-6zm4.7 8.9c-.5-.1-.9-.2-1.3-.4s-.6-.5-.8-.8-.3-.7-.4-1.1 0-.8.1-1.2l.1-.2c.1-.5.3-.9.5-1.3s.5-.7.8-.9c.3-.3.7-.4 1.1-.5s.8-.1 1.3-.1c.5.1.8.2 1.2.4.3.2.6.4.7.8.2.3.3.7.3 1.1s0 .8-.1 1.3l-.2.6-5-.7.2-1.1 3.5.5v-.1c0-.2.1-.5 0-.7 0-.2-.1-.4-.3-.5s-.4-.2-.7-.3c-.2 0-.4 0-.6.1s-.4.2-.5.4c-.2.2-.3.4-.4.6s-.2.5-.3.8l-.1.2c-.1.3-.1.5-.1.8 0 .2.1.4.2.6s.3.3.4.5c.2.1.4.2.7.2s.6 0 .9-.1.6-.2.8-.5l.6.9c-.2.2-.4.3-.7.5-.3.1-.6.3-.9.3-.2 0-.6 0-1-.1zm6.4-4.4l-1.2 5-1.6-.2 1.5-6.3 1.5.2-.2 1.3zm2.3-1l-.4 1.4c-.1 0-.2-.1-.3-.1s-.2 0-.3-.1h-.7c-.2 0-.4.1-.5.2s-.3.2-.4.4-.2.4-.2.6l-.3-.1c.1-.4.2-.8.4-1.1l.6-.8c.2-.2.5-.4.7-.5.3-.1.6-.1.9-.1.1 0 .2 0 .3.1 0 0 .1 0 .2.1zm1.9 5.6l2.7-4.9 1.6.2-3.7 6-1-.1.4-1.2zm.1-5.3l.3 5.4-.2 1.2-1-.1-.7-6.6 1.6.1zm6.7.9l-1.5 6.3-1.6-.2 1.5-6.3 1.6.2zm-1.3-1.8c.1-.2.2-.4.4-.5s.4-.2.7-.1c.3 0 .5.1.6.3s.2.4.1.6-.2.4-.4.5-.4.2-.7.1c-.3 0-.5-.1-.6-.3s-.2-.4-.1-.6zm4.2 8.9c-.5-.1-.9-.2-1.3-.4s-.6-.5-.8-.8-.3-.7-.4-1.1 0-.8.1-1.2l.1-.2c.1-.5.3-.9.5-1.3s.5-.7.8-.9c.3-.3.7-.4 1.1-.5s.8-.1 1.3-.1c.5.1.8.2 1.2.4.3.2.6.4.7.8.2.3.3.7.3 1.1s0 .8-.1 1.3l-.1.6-5-.7.2-1.1 3.5.5v-.1c0-.2.1-.5 0-.7 0-.2-.1-.4-.3-.5s-.4-.2-.7-.3c-.2 0-.4 0-.6.1s-.4.2-.5.4c-.2.2-.3.4-.4.6s-.2.5-.3.8l-.1.2c-.1.3-.1.5-.1.8 0 .2.1.4.2.6s.3.3.4.5c.2.1.4.2.7.2s.6 0 .9-.1.6-.2.8-.5l.6.9c-.2.2-.4.3-.7.5-.3.1-.6.3-.9.3-.3-.1-.7-.1-1.1-.1zm5.8-.9l2.5-4.6 1 .1-.7 1.6-2.5 4.5-.9-.1.6-1.5zm.3-4.9l-.1 5-.3 1.5-1-.1-.2-6.5 1.6.1zm3.4 5.4l2.1-4.6 1.5.2-3.1 6.1-1-.1.5-1.6zm-.1-4.9l.3 4.9-.2 1.6-.8-.1-.4-4.9.1-1.7 1 .2zm15.2-.1l-2 8.5-1.6-.2-2.3-6.4-1.4 5.9-1.6-.3 2-8.5 1.6.2 2.3 6.4 1.4-5.9 1.6.3zm0 5.5v-.1c.1-.5.3-.9.5-1.2.2-.4.5-.7.8-.9.3-.3.7-.4 1.1-.5s.9-.1 1.3-.1c.5.1.9.2 1.2.4s.6.5.8.8.3.7.4 1.1c0 .4 0 .8-.1 1.3v.1c-.1.5-.3.9-.5 1.2-.2.4-.5.7-.8.9-.3.3-.7.4-1.1.5s-.9.1-1.3.1c-.5-.1-.9-.2-1.2-.4s-.6-.5-.8-.8-.3-.7-.4-1.1c0-.4 0-.8.1-1.3zm1.6.1v.1c-.1.3-.1.5-.1.8a1.7 1.7 0 0 0 .1.7c.1.2.2.4.3.5.2.1.4.2.6.2.3 0 .5 0 .7-.1s.4-.2.5-.4c.2-.2.3-.4.4-.6s.2-.5.3-.8v-.1c.1-.3.1-.5.1-.8 0-.2 0-.5-.1-.7s-.2-.4-.3-.5l-.6-.3c-.3 0-.5 0-.7.1s-.4.2-.5.4c-.2.2-.3.4-.4.6-.1.4-.2.7-.3.9zm11.8 3.2v-.4c0-.1-.2-.2-.3-.3l-.8-.4c-.3-.1-.6-.2-.9-.4-.3-.1-.5-.3-.6-.5-.2-.2-.3-.4-.4-.6s-.1-.5 0-.7c.1-.3.2-.5.3-.7.2-.2.4-.4.6-.5.3-.1.6-.3.9-.3.3-.1.7-.1 1.1 0 .5.1 1 .2 1.3.5.4.2.6.5.7.9.1.3.2.7.1 1.1l-1.6-.2v-.5c0-.1-.1-.3-.3-.4-.1-.1-.3-.2-.6-.2h-.6c-.2 0-.3.1-.4.2s-.2.2-.2.4v.3c0 .1.1.2.2.2.1.1.2.2.3.2.2.1.3.2.6.2l1.2.5c.3.2.6.4.7.7s.2.6.1 1c-.1.3-.2.5-.4.7s-.4.4-.7.5l-.9.3h-1.1c-.6-.1-1.1-.3-1.4-.5-.4-.3-.6-.6-.7-.9-.1-.4-.2-.7-.1-1l1.5.2c0 .2 0 .5.1.6.1.2.2.3.4.4s.4.1.6.2h.6c.2 0 .3-.1.4-.2.2-.1.3-.2.3-.4zm5.9-6.6l-2.1 9-1.6-.2 2.1-9 1.6.2zm-1.5 5.5l-.5-.1a6.1 6.1 0 0 1 .5-1.2c.2-.4.4-.6.7-.9.3-.2.6-.4.9-.5s.7-.1 1.1-.1c.3 0 .6.1.8.3.2.1.4.3.6.5.1.2.2.5.3.8 0 .3 0 .7-.1 1.1l-.9 4-1.6-.2.9-4c.1-.3.1-.5 0-.7 0-.2-.1-.3-.3-.4-.1-.1-.3-.2-.6-.2s-.5 0-.7.1-.4.2-.5.3c-.2.2-.3.3-.4.5-.1.3-.1.5-.2.7zm5.1 1.1v-.1c.1-.5.3-.9.5-1.2.2-.4.5-.7.8-.9.3-.3.7-.4 1.1-.5s.9-.1 1.3-.1c.5.1.9.2 1.2.4s.6.5.8.8.3.7.4 1.1c0 .4 0 .8-.1 1.3v.1c-.1.5-.3.9-.5 1.2-.2.4-.5.7-.8.9-.3.3-.7.4-1.1.5s-.9.1-1.3.1c-.5-.1-.9-.2-1.2-.4s-.6-.5-.8-.8-.3-.7-.4-1.1c0-.4 0-.9.1-1.3zm1.6.1v.1c-.1.3-.1.5-.1.8a1.7 1.7 0 0 0 .1.7c.1.2.2.4.3.5.2.1.4.2.6.2.3 0 .5 0 .7-.1s.4-.2.5-.4c.2-.2.3-.4.4-.6s.2-.5.3-.8v-.1c.1-.3.1-.5.1-.8 0-.2 0-.5-.1-.7s-.2-.4-.4-.5l-.6-.3c-.3 0-.5 0-.7.1s-.4.2-.5.4c-.2.2-.3.4-.4.6 0 .3-.1.6-.2.9zm7 2.7l2.5-4.6 1 .1-.7 1.6-2.5 4.5-.9-.1.6-1.5zm.3-4.9l-.1 5-.3 1.5-1-.1-.2-6.5 1.6.1zm3.4 5.4l2.1-4.6 1.5.2-3.1 6.1-1-.1.5-1.6zm0-4.9l.3 4.9-.2 1.6-.9-.1-.4-4.9.1-1.7 1.1.2z" class="S"/><path d="M384.3 185.1l-.2.9c-.1.5-.3.9-.4 1.2l-.6.8c-.2.2-.5.3-.7.4a1.1 1.1 0 0 1-.8 0c-.2 0-.4-.1-.6-.2s-.3-.2-.5-.4c-.1-.2-.2-.3-.3-.6-.1-.2-.1-.5-.1-.8s.1-.7.2-1.1l.2-.9c.1-.5.3-.9.4-1.2l.6-.8c.2-.2.5-.3.7-.4a1.1 1.1 0 0 1 .8 0c.2 0 .5.1.6.2.2.1.4.2.5.3s.2.3.3.5.1.5.1.8l-.2 1.3zm-1 1l.3-1.2c.1-.3.1-.5.1-.7v-.6c0-.2-.1-.3-.2-.4s-.2-.2-.3-.2c-.1-.1-.2-.1-.4-.1h-.5c-.2 0-.3.1-.4.3-.1.1-.2.3-.4.5-.1.2-.2.5-.3.9l-.3 1.2c-.1.3-.1.5-.1.7v.6c0 .2.1.3.2.4l.3.3c.1.1.2.1.4.1h.5c.2-.1.3-.1.4-.3.1-.1.3-.3.4-.6l.3-.9zm2.1 2.1h0a2.4 2.4 0 0 0 1.2 0c.3-.1.6-.2.8-.4s.4-.4.5-.7l.3-.8.2-.9c.1-.3.1-.5.1-.7s-.1-.4-.1-.6c-.1-.2-.2-.3-.3-.4s-.3-.2-.4-.2h-.5c-.2 0-.3.1-.4.2s-.2.3-.3.4c-.1.2-.2.3-.2.6 0 .2-.1.4-.1.5a.9.9 0 0 0 .1.5c.1.1.2.3.3.4s.3.2.5.2h.5c.2 0 .3-.1.5-.2.1-.1.3-.2.4-.4.1-.1.2-.3.2-.5l.4.1-.3.7c-.1.2-.3.4-.5.6s-.4.3-.7.4c-.2.1-.5.1-.8.1s-.6-.1-.8-.3c-.2-.1-.3-.3-.4-.5s-.2-.4-.2-.7 0-.5.1-.7l.3-.8c.1-.2.3-.4.5-.6s.4-.3.7-.4.6-.1.9 0c.4 0 .6.2.9.3.2.2.4.4.5.6.1.3.2.5.2.8s0 .6-.1.9l-.1.3-.3.9c-.1.3-.3.6-.4.9-.2.3-.4.5-.7.7a3 3 0 0 1-1 .4c-.4.1-.8.1-1.3 0h-.1l-.1-.7zm4.1.9c0-.1.1-.2.2-.3s.2-.1.4-.1.3.1.3.2c.1.1.1.2.1.3s-.1.2-.2.3-.2.1-.4.1-.3-.1-.3-.2c-.1-.1-.1-.2-.1-.3zm.9-3.7c0-.1.1-.2.2-.3s.2-.1.4-.1.3.1.3.2c.1.1.1.2.1.3s-.1.2-.2.3-.2.1-.4.1-.3-.1-.3-.2c-.2-.1-.2-.2-.1-.3zm3 1.1l.6.1h.7c.2-.1.4-.2.5-.3s.2-.3.3-.5.1-.4 0-.6c0-.2-.1-.3-.3-.4-.1-.1-.3-.2-.6-.2h-.6c-.2.1-.3.2-.5.3-.1.1-.2.3-.3.5l-.8-.1c.1-.3.2-.6.4-.8s.5-.4.8-.5.7-.1 1.1-.1c.4.1.7.2.9.3.2.2.4.4.5.7s.1.6 0 1c0 .2-.1.3-.2.5s-.3.3-.4.4c-.2.1-.4.2-.7.3s-.6.1-.9 0l-.7-.1.2-.5zm-.2.6l.1-.5.7.1c.4.1.7.1.9.3a1.2 1.2 0 0 1 .5.5c.1.2.2.4.2.5v.6c-.1.3-.2.5-.3.7a1.2 1.2 0 0 1-.5.5c-.2.1-.4.2-.7.3h-.8c-.3 0-.5-.1-.7-.2s-.4-.2-.5-.4l-.3-.6c-.1-.2 0-.5 0-.7l.8.1v.6c.1.2.2.3.3.4.2.1.4.2.6.2h.6c.2-.1.4-.2.5-.3l.3-.6c.1-.3.1-.5 0-.6-.1-.2-.2-.3-.4-.4s-.4-.2-.7-.2l-.6-.3zm7.8.4l-.2.9c-.1.5-.3.9-.4 1.2l-.6.8c-.2.2-.5.3-.7.4a1.1 1.1 0 0 1-.8 0c-.2 0-.4-.1-.6-.2s-.3-.2-.5-.4c-.1-.2-.2-.3-.3-.6s-.1-.5-.1-.8.1-.7.2-1.1l.2-.9c.1-.5.3-.9.4-1.2l.6-.8c.2-.2.5-.3.7-.4a1.1 1.1 0 0 1 .8 0c.2 0 .5.1.6.2.2.1.4.2.5.3s.2.3.3.5.1.5.1.8c0 .5-.1.9-.2 1.3zm-1 .9l.3-1.2c.1-.3.1-.5.1-.7v-.6c0-.2-.1-.3-.2-.4s-.2-.2-.3-.2c-.1-.1-.2-.1-.4-.1h-.5c-.2 0-.3.1-.4.3-.1.1-.2.3-.4.5-.1.2-.2.5-.3.9l-.3 1.2c-.1.3-.1.5-.1.7v.6c0 .2.1.3.2.4l.3.3c.1.1.2.1.4.1h.5c.2-.1.3-.1.4-.3.1-.1.3-.3.4-.6s.2-.5.3-.9zm6.4 1l-1.6-.2.2-.7 1.6.2h.8c.2-.1.4-.2.5-.4l.3-.6v-.6c0-.2-.2-.4-.3-.5-.2-.1-.4-.2-.7-.3l-1.5-.2-1.2 5.4-.8-.1 1.4-6.1 2.3.3c.5.1.8.2 1.1.4s.5.5.6.8.1.6 0 1-.2.7-.5 1c-.2.3-.5.4-.9.5-.4.2-.9.2-1.3.1zm4.3-3.2l.8.1.9 5.2 3.2-4.7.8.1-3.9 5.7-.6-.1-1.2-6.3zm-.3 0l.7.1-.7 3.7-.5 2.4-.8-.1 1.3-6.1zm5.5.7l.7.1-1.4 6.1-.8-.1.5-2.4 1-3.7z" fill="#9f9f9f"/><path d="M209.4 179l.8.1.9 5.2 3.2-4.7.8.1-3.9 5.7-.6-.1-1.2-6.3zm-.2 0l.7.1-.7 3.7-.5 2.4-.8-.1 1.3-6.1zm5.4.7l.7.1-1.4 6.1-.8-.1.5-2.4 1-3.7zm4.4 1.2l-3.3 5.2-.8-.1 3.7-5.7.5.1-.1.5zm.4 5.8l-.8-5.8.1-.5.5.1 1 6.4-.8-.2zm.4-2.3l-.2.7-3.5-.5.2-.7 3.5.5zm5.2 2.4l-.1.7-3.1-.4.1-.7 3.1.4zm-1.7-5.8l-1.4 6.1-.8-.1 1.4-6.1.8.1zm6.1 1.4l-3.3 5.2-.8-.1 3.7-5.7.5.1-.1.5zm.4 5.7l-.8-5.8.1-.5.5.1 1 6.4-.8-.2zm.4-2.2l-.2.7-3.5-.5.2-.7 3.5.5zm3.6-3.5l-1.4 6.1-.8-.1 1.4-6.1.8.1zm5 6.2l.5-2.3v-.5c0-.1-.1-.3-.3-.4-.1-.1-.3-.2-.5-.2h-.5c-.2 0-.3.1-.4.2s-.2.2-.2.3l-.8-.1c0-.2.1-.3.2-.5.1-.1.3-.3.5-.4s.4-.2.6-.2h.8c.3 0 .6.1.8.3.2.1.4.3.5.6.1.2.1.5 0 .9l-.5 2.1c0 .1-.1.3-.1.5v.5.1l-.8-.1v-.4c.1-.1.1-.3.2-.4zm.6-1.9l-.1.5-.8-.1h-.6a.9.9 0 0 0-.5.1c-.1.1-.2.1-.3.2s-.1.2-.2.3v.4c0 .1.1.2.2.3s.3.1.5.2c.2 0 .5 0 .7-.1s.4-.2.5-.3.2-.3.3-.4l.2.4c0 .1-.1.2-.2.4-.1.1-.3.2-.4.4-.2.1-.4.2-.6.2-.2.1-.4.1-.7 0-.3 0-.6-.1-.8-.3s-.3-.3-.4-.6c-.1-.2-.1-.5 0-.7l.3-.6c.1-.2.3-.3.5-.4s.4-.2.7-.2h.9l.8.3zm2.8-.6l-1.2 5.4-.8-.1 1.4-6.2.7.1-.1.8zm2.8 1.8h0l-.3 1c-.1.3-.3.5-.5.7s-.4.3-.7.4c-.2.1-.5.1-.8.1s-.5-.1-.7-.2a1.2 1.2 0 0 1-.5-.5c-.1-.2-.2-.4-.2-.7v-.9l.1-.5c.1-.3.2-.6.4-.9s.3-.5.5-.6c.2-.2.4-.3.7-.4.2-.1.5-.1.8 0 .3 0 .5.1.7.3.2.1.3.3.5.5.1.2.2.5.2.8-.1.2-.1.6-.2.9zm-.8 0h0c.1-.3.1-.5.1-.7s0-.4-.1-.6-.2-.3-.3-.4-.3-.2-.5-.2h-.5c-.2 0-.3.1-.4.2l-.3.3c-.1.1-.2.3-.2.4l-.2 1.1c0 .2 0 .4.1.6s.2.3.3.5c.1.1.3.2.6.2.2 0 .4 0 .6-.1s.3-.2.5-.3c.1-.1.3-.3.3-.5-.1-.1-.1-.3 0-.5zm2.9-1.1l-1.2 5.4-.8-.1 1.4-6.2.7.1-.1.8zm2.8 1.8h0l-.3 1c-.1.3-.3.5-.5.7s-.4.3-.7.4c-.2.1-.5.1-.8.1s-.5-.1-.7-.2a1.2 1.2 0 0 1-.5-.5c-.1-.2-.2-.4-.2-.7v-.9l.1-.5c.1-.3.2-.6.4-.9.2-.2.3-.5.5-.6.2-.2.4-.3.7-.4.2-.1.5-.1.8 0 .3 0 .5.1.7.3.2.1.3.3.5.5s.2.5.2.8a2 2 0 0 0-.2.9zm-.8 0h0c.1-.3.1-.5.1-.7s0-.4-.1-.6-.2-.3-.3-.4-.3-.2-.5-.2h-.5c-.2 0-.3.1-.4.2l-.3.3c-.1.1-.2.3-.2.4l-.2 1.1c0 .2 0 .4.1.6s.2.3.3.5c.1.1.3.2.6.2.2 0 .4 0 .6-.1s.3-.2.5-.3c.1-.1.3-.3.3-.5-.2-.1-.1-.3 0-.5zm3.1 2.8c-.3 0-.6-.1-.8-.3-.2-.1-.4-.3-.6-.5-.1-.2-.2-.5-.3-.8 0-.3 0-.6.1-.9v-.2a3 3 0 0 1 .4-1c.2-.3.4-.5.6-.7s.5-.3.7-.4a1.1 1.1 0 0 1 .8 0c.3 0 .6.1.8.3a1.2 1.2 0 0 1 .5.5c.1.2.2.5.2.7 0 .3 0 .6-.1.9l-.1.3-3.4-.5.1-.6 2.6.4v-.1-.6c0-.2-.1-.4-.2-.5s-.3-.2-.6-.3h-.5c-.2.1-.3.1-.5.3-.1.1-.3.3-.4.5l-.3.7v.2c0 .2-.1.4-.1.6s.1.4.2.5c.1.2.2.3.4.4s.3.2.5.2c.3 0 .5 0 .7-.1s.4-.2.6-.4l.4.4c-.1.1-.3.3-.5.4s-.4.2-.6.2c0 .4-.3.4-.6.4zm5.6-.1l.5-2.3v-.5c0-.1-.1-.3-.2-.4s-.3-.2-.5-.2h-.5c-.2 0-.3.1-.4.2s-.2.2-.2.3l-.8-.1c0-.2.1-.3.2-.5.1-.1.3-.3.5-.4s.4-.2.6-.2h.8c.3 0 .6.1.8.3.2.1.4.3.5.6.1.2.1.5 0 .9l-.5 2.1c0 .2-.1.3-.1.5v.5.1l-.8-.1v-.4c.1-.2.1-.3.1-.4zm.6-2l-.1.5-.8-.1h-.6c-.2 0-.3 0-.5.1-.1.1-.2.1-.3.2s-.1.2-.2.3v.4c0 .1.1.2.2.3s.3.1.5.2c.2 0 .5 0 .7-.1s.4-.2.5-.3.2-.3.3-.4l.2.4c0 .1-.1.2-.2.4-.1.1-.3.2-.4.4-.2.1-.4.2-.6.2-.2.1-.4.1-.7 0-.3 0-.6-.1-.8-.3s-.3-.3-.4-.6c-.1-.2-.1-.5 0-.7l.3-.6c.1-.2.3-.3.5-.4s.4-.2.7-.2h.9l.8.3zm2.9-.7l-.9 3.8-.8-.1 1-4.5.8.1-.1.7zm1.6-.5l-.2.7c-.1 0-.1 0-.2-.1h-.2-.5c-.2 0-.3.1-.4.2l-.3.3c-.1.1-.2.3-.2.4l-.2.1c.1-.3.1-.5.3-.8.1-.2.2-.4.4-.6s.3-.3.5-.4.4-.1.7-.1h.2c0 .3.1.3.1.3zm2.6 3.8v-.3c0-.1-.1-.2-.2-.3s-.3-.2-.6-.3c-.2-.1-.5-.2-.6-.3-.2-.1-.3-.2-.5-.3-.1-.1-.2-.3-.2-.4v-.5c0-.2.1-.3.2-.5l.4-.4c.2-.1.4-.2.6-.2h.7c.4.1.7.2.9.3.2.2.4.4.5.6s.1.5 0 .7l-.8-.1v-.4c0-.1-.1-.2-.3-.3-.1-.1-.3-.2-.5-.2h-.6c-.1 0-.3.1-.3.2-.1.1-.1.2-.2.3v.2c0 .1.1.1.1.2.1.1.2.1.3.2s.3.1.5.2c.4.1.6.3.9.4.2.2.4.3.4.5.1.2.1.4 0 .6 0 .2-.1.4-.3.5-.1.2-.3.3-.5.4s-.4.2-.6.2h-.7a3 3 0 0 1-1-.4c-.2-.2-.4-.4-.5-.6s-.1-.5-.1-.7l.8.1c0 .2 0 .4.1.5s.2.2.4.3a.9.9 0 0 0 .5.1h.6c.2 0 .3-.1.4-.2.1.2.2.1.2-.1zm6.7-2.5l-.2.6-2.5-.3.1-.6 2.6.3zm-1.4-1.3l.8.1-1 4.5v.4c0 .1.1.1.2.2.1 0 .1.1.2.1h.2.2l-.1.6h-.3-.4c-.2 0-.4-.1-.5-.2s-.2-.2-.3-.4 0-.4 0-.7l1-4.6zm1.4 3.7h0a3 3 0 0 1 .4-1c.2-.3.4-.5.6-.7s.5-.3.8-.4.6-.1.9-.1.6.1.8.3c.2.1.4.3.5.6a6.9 6.9 0 0 1 .3.8c0 .3 0 .6-.1.9v.1c-.1.3-.2.6-.4.9s-.4.5-.6.7-.5.3-.8.4-.6.1-.9 0c-.3 0-.6-.1-.8-.3s-.4-.3-.5-.6c-.1-.2-.2-.5-.2-.8v-.8zm.9.1h0c-.1.3-.1.5-.1.7s0 .4.1.6.2.3.3.4.3.2.5.2.4 0 .6-.1.3-.2.5-.3c.1-.1.3-.3.4-.5s.2-.4.2-.6v-.1c.1-.2.1-.4.1-.6s0-.4-.1-.6-.2-.3-.3-.4-.3-.2-.5-.2-.4 0-.6.1-.3.2-.5.3c-.1.1-.3.3-.4.5-.1.1-.2.3-.2.6zm7.4-3.2l.8.1-1.3 5.5-.3.9-.7-.1 1.5-6.4zm2.9 4.6h0l-.3 1c-.1.3-.3.5-.5.7s-.4.3-.7.4c-.2.1-.5.1-.8.1s-.5-.1-.7-.3c-.2-.1-.3-.3-.5-.5-.1-.2-.2-.4-.2-.7v-.9l.1-.4c.1-.3.2-.6.4-.9s.3-.5.5-.6c.2-.2.4-.3.6-.4s.5-.1.8 0c.3 0 .5.1.7.3.2.1.3.3.5.5.1.2.2.5.2.8.1.3 0 .6-.1.9zm-.8 0h0c.1-.3.1-.5.1-.7s0-.4-.1-.6-.2-.3-.3-.4-.3-.2-.5-.2h-.5c-.2 0-.3.1-.4.2l-.3.3c-.1.1-.2.3-.2.4l-.2 1c0 .2 0 .4.1.6s.2.4.3.5.4.2.6.3h.6c.2-.1.3-.2.5-.3.1-.1.2-.3.3-.5-.1-.2 0-.4 0-.6zm3.2 2.8c-.3 0-.6-.1-.8-.3-.2-.1-.4-.3-.6-.5-.1-.2-.2-.5-.3-.8 0-.3 0-.6.1-.9v-.2a3 3 0 0 1 .4-1c.2-.3.4-.5.6-.7s.5-.3.7-.4a1.1 1.1 0 0 1 .8 0c.3 0 .6.1.8.3a1.2 1.2 0 0 1 .5.5c.1.2.2.5.2.7 0 .3 0 .6-.1.9l-.1.3-3.4-.5.1-.6 2.6.4v-.1-.6c0-.2-.1-.4-.2-.5s-.3-.2-.6-.3h-.5c-.2.1-.3.1-.5.3-.1.1-.3.3-.4.5l-.3.7v.2c0 .2-.1.4-.1.6s.1.4.2.5c.1.2.2.3.4.4s.3.2.5.2c.3 0 .5 0 .7-.1s.4-.2.6-.4l.4.4c-.1.1-.3.3-.5.4s-.4.2-.6.2c0 .4-.3.4-.6.4zm7.9 0l.8-3.5.8.1-1 4.5-.7-.1.1-1zm.4-1h.3l-.3.8c-.1.2-.3.4-.5.6s-.4.3-.7.4-.5.1-.9 0c-.2 0-.4-.1-.6-.2s-.3-.2-.4-.4-.2-.3-.2-.6c0-.2 0-.5.1-.8l.7-2.9.8.1-.7 2.9c0 .2-.1.4 0 .5 0 .1.1.3.1.3.1.1.1.2.2.2s.2.1.3.1c.3 0 .6 0 .8-.1a1.2 1.2 0 0 0 .5-.5c.3.1.4-.1.5-.4zm2.9-1.2l-.8 3.5-.8-.1 1-4.5.7.1-.1 1zm-.4 1.1l-.3-.1.3-.8c.2-.3.3-.5.5-.6.2-.2.4-.3.7-.4s.5-.1.8-.1c.2 0 .4.1.6.2s.3.2.4.3.2.3.2.6c0 .2 0 .5-.1.8l-.7 3-.8-.1.7-3c.1-.2.1-.4 0-.6 0-.2-.1-.3-.2-.4s-.3-.1-.5-.2h-.6c-.2.1-.3.1-.5.3l-.4.4c0 .3-.1.5-.1.7zm5.5-1.3l-1 4.5-.8-.1 1-4.5.8.1zm-.6-1.4c0-.1.1-.2.2-.3s.2-.1.4-.1c.1 0 .3.1.3.2.1.1.1.2 0 .3 0 .1-.1.2-.2.3s-.2.1-.4.1-.3-.1-.3-.2v-.3zm2.4 2.6l-.8 3.5-.8-.1 1-4.5.7.1-.1 1zm-.4 1.1l-.3-.1.3-.8c.2-.3.3-.5.5-.6.2-.2.4-.3.7-.4s.5-.1.8-.1c.2 0 .4.1.6.2s.3.2.4.3.2.3.2.5 0 .5-.1.8l-.7 3-.8-.1.7-3c.1-.2.1-.4 0-.6 0-.2-.1-.3-.2-.4s-.3-.1-.5-.2h-.6c-.2.1-.3.2-.5.3l-.4.4c0 .4-.1.6-.1.8zm6.6-1.2l-.1.6-2.5-.3.1-.6 2.5.3zm-1.4-1.3l.8.1-1 4.5v.4c0 .1.1.1.2.2.1 0 .1.1.2.1h.2.2l-.1.6h-.3-.4c-.2 0-.4-.1-.5-.2s-.2-.2-.3-.4 0-.4 0-.7l1-4.6zm3.1 6.3c-.3 0-.6-.1-.8-.3-.2-.1-.4-.3-.6-.5-.1-.2-.2-.5-.3-.8 0-.3 0-.6.1-.9v-.2a3 3 0 0 1 .4-1c.2-.3.4-.5.6-.7s.5-.3.7-.4.5-.1.8-.1.6.1.8.3a1.2 1.2 0 0 1 .5.5c.1.2.2.5.2.7 0 .3 0 .6-.1.9l-.1.3-3.4-.5.1-.6 2.6.4v-.1-.6c0-.2-.1-.4-.2-.5s-.3-.2-.6-.3h-.5c-.2.1-.3.1-.5.3-.1.1-.3.3-.4.5l-.3.7v.2c0 .2-.1.4 0 .6 0 .2.1.4.2.5.1.2.2.3.4.4s.3.2.5.2c.3 0 .5 0 .7-.1s.4-.2.6-.4l.4.4c-.1.1-.3.3-.5.4s-.4.2-.6.2c-.1.5-.4.5-.7.5zm4.4-3.4l-.9 3.8-.8-.1 1-4.5.8.1-.1.7zm1.6-.6l-.2.7c-.1 0-.1 0-.2-.1h-.2-.5c-.2 0-.3.1-.4.2l-.3.3c-.1.1-.2.3-.2.4l-.2.1c.1-.3.1-.5.3-.8.1-.2.2-.4.4-.6s.3-.3.5-.4.4-.1.7-.1h.2c0 .3.1.3.1.3zm1.5 5c-.3 0-.6-.1-.8-.3-.2-.1-.4-.3-.6-.5-.1-.2-.2-.5-.3-.8 0-.3 0-.6.1-.9v-.2a3 3 0 0 1 .4-1c.2-.3.4-.5.6-.7s.5-.3.7-.4a1.1 1.1 0 0 1 .8 0c.3 0 .6.1.8.3a1.2 1.2 0 0 1 .5.5c.1.2.2.5.2.7 0 .3 0 .6-.1.9l-.1.3-3.4-.5.1-.6 2.6.4v-.1-.6c0-.2-.1-.4-.2-.5s-.3-.2-.6-.3h-.5c-.2.1-.3.1-.5.3-.1.1-.3.3-.4.5l-.3.7v.2c0 .2-.1.4-.1.6s.1.4.2.5c.1.2.2.3.4.4.1.1.3.2.5.2.3 0 .5 0 .7-.1s.4-.2.6-.4l.4.4c-.1.1-.3.3-.5.4s-.4.2-.6.2c-.1.5-.3.5-.6.4zm5.6-.5v-.3c0-.1-.1-.2-.2-.3s-.3-.2-.6-.3c-.2-.1-.5-.2-.6-.3-.2-.1-.3-.2-.5-.3-.1-.1-.2-.3-.2-.4v-.5c0-.2.1-.3.2-.5l.4-.4c.2-.1.4-.2.6-.2h.7c.4.1.7.2.9.3.2.2.4.4.5.6s.1.5 0 .7l-.8-.1v-.4c0-.1-.1-.2-.3-.3-.1-.1-.3-.2-.5-.2h-.6c-.1 0-.3.1-.3.2-.1.1-.1.2-.2.3v.2c0 .1.1.1.1.2.1.1.2.1.3.2s.3.1.5.2c.4.1.6.3.9.4.2.2.4.3.4.5.1.2.1.4 0 .6 0 .2-.1.4-.3.5-.1.2-.3.3-.5.4s-.4.2-.6.2h-.7a3 3 0 0 1-1-.4c-.2-.2-.4-.4-.5-.6s-.1-.5-.1-.7l.8.1c0 .2 0 .4.1.5s.2.2.4.3a.9.9 0 0 0 .5.1h.6c.2 0 .3-.1.4-.2.1.1.2 0 .2-.1zm4.5-2.8l-.1.6-2.5-.3.1-.6 2.5.3zm-1.4-1.3l.8.1-1 4.5v.4c0 .1.1.1.1.2.1 0 .2.1.2.1h.2.2l-.1.6h-.3-.4c-.2 0-.4-.1-.5-.2s-.2-.2-.3-.4 0-.4 0-.7l1.1-4.6zm3.2 6.3c-.3 0-.6-.1-.8-.3-.2-.1-.4-.3-.6-.5-.1-.2-.2-.5-.3-.8 0-.3 0-.6.1-.9v-.2a3 3 0 0 1 .4-1c.2-.3.4-.5.6-.7s.5-.3.7-.4a1.1 1.1 0 0 1 .8 0c.3 0 .6.1.8.3a1.2 1.2 0 0 1 .5.5c.1.2.2.5.2.7 0 .3 0 .6-.1.9l-.1.3-3.4-.5.1-.6 2.6.4v-.1-.6c0-.2-.1-.4-.2-.5s-.3-.2-.6-.3h-.5c-.2.1-.3.1-.5.3-.1.1-.3.3-.4.5l-.3.7v.2c0 .2-.1.4-.1.6s.1.4.2.5c.1.2.2.3.4.4s.3.2.5.2c.3 0 .5 0 .7-.1s.4-.2.6-.4l.4.4c-.1.1-.3.3-.5.4s-.4.2-.6.2c0 .4-.3.4-.6.4zm5.8-.2l1.3-5.5.8.1-1.5 6.4-.7-.1.1-.9zm-2.8-1.7h0a3 3 0 0 1 .4-1c.2-.3.3-.5.5-.7s.4-.3.7-.4c.2-.1.5-.1.8-.1s.5.1.7.3c.2.1.3.3.5.5.1.2.2.4.2.7v.9l-.1.4c-.1.3-.2.6-.4.9-.1.3-.3.5-.5.6-.2.2-.4.3-.6.4s-.5.1-.8 0c-.3 0-.5-.1-.7-.3-.2-.1-.3-.3-.5-.6-.1-.2-.2-.5-.2-.8-.1-.2-.1-.5 0-.8zm.8 0h0c-.1.3-.1.5-.1.7s0 .4.1.6.2.3.3.4.3.2.5.2c.3 0 .5 0 .7-.1s.4-.2.5-.4.3-.3.4-.5l.2-1v-.5c0-.2-.1-.3-.2-.4l-.3-.3c-.1-.1-.3-.1-.5-.2-.2 0-.4 0-.6.1s-.3.2-.5.3c-.1.1-.2.3-.3.5-.1.1-.1.4-.2.6zm7.8-1.2l-1 4.5-.8-.1 1-4.5.8.1zm-.5-1.3c0-.1.1-.2.2-.3s.2-.1.4-.1c.1 0 .3.1.3.2.1.1.1.2 0 .3 0 .1-.1.2-.2.3s-.2.1-.4.1-.3-.1-.3-.2c-.1-.1-.1-.2 0-.3zm2.3 2.5l-.8 3.5-.8-.1 1-4.5.7.1-.1 1zm-.4 1.1l-.3-.1.3-.8c.2-.3.3-.5.5-.6.2-.2.4-.3.7-.4s.5-.1.8-.1c.2 0 .4.1.6.2s.3.2.4.3.2.3.2.5 0 .5-.1.8l-.7 3-.8-.1.7-3c.1-.2.1-.4 0-.6 0-.2-.1-.3-.2-.4s-.3-.1-.5-.2h-.6c-.2.1-.3.2-.5.3l-.4.4c0 .4-.1.6-.1.8zm8.7-.9l-.1.6-2.5-.3.1-.6 2.5.3zm-1.3-1.3l.8.1-1 4.5v.4c0 .1.1.1.2.2.1 0 .1.1.2.1h.2.2l-.1.6h-.3-.4c-.2 0-.4-.1-.5-.2s-.2-.2-.3-.4 0-.4 0-.7l1-4.6zm3.5-.3l-1.5 6.4-.8-.1 1.5-6.4.8.1zm-1.1 3.9l-.3-.1.3-.8c.2-.3.3-.5.5-.6.2-.2.4-.3.7-.4s.5-.1.8-.1c.2 0 .4.1.6.2s.3.2.4.3.2.3.2.5 0 .5-.1.8l-.7 3-.8-.1.7-3c.1-.2.1-.4 0-.6 0-.2-.1-.3-.2-.4s-.3-.1-.5-.2h-.6c-.2.1-.3.2-.5.3l-.4.4c0 .4-.1.6-.1.8zm5.5 3.4c-.3 0-.6-.1-.8-.3-.2-.1-.4-.3-.6-.5-.1-.2-.2-.5-.3-.8 0-.3 0-.6.1-.9v-.2a3 3 0 0 1 .4-1c.2-.3.4-.5.6-.7s.5-.3.7-.4a1.1 1.1 0 0 1 .8 0c.3 0 .6.1.8.3a1.2 1.2 0 0 1 .5.5c.1.2.2.5.2.7 0 .3 0 .6-.1.9l-.1.3-3.4-.5.1-.6 2.6.4v-.1-.6c0-.2-.1-.4-.2-.5s-.3-.2-.6-.3h-.5c-.2.1-.3.1-.5.3-.1.1-.3.3-.4.5l-.3.7v.2c0 .2-.1.4 0 .6 0 .2.1.4.2.5.1.2.2.3.4.4.1.1.3.2.5.2.3 0 .5 0 .7-.1s.4-.2.6-.4l.4.4c-.1.1-.3.3-.5.4s-.4.2-.6.2c-.2.4-.4.4-.7.4zm9.9-5l.8.1-.9 4.1c-.1.5-.3.8-.6 1.1s-.6.5-1 .6-.8.1-1.2.1c-.4-.1-.8-.2-1.1-.4s-.5-.5-.6-.8a2.4 2.4 0 0 1 0-1.2l.9-4.1.8.1-.9 4.1c-.1.3-.1.6 0 .8s.2.4.4.5.4.2.7.3h.8c.2-.1.4-.2.6-.4s.3-.4.4-.8l.9-4.1zm2.6.4l.9 2.5 2-2.1 1 .1-2.6 2.7 1.3 3.3-1-.1-1-2.6-2.1 2.2-1-.1 2.7-2.8-1.3-3.3 1.1.2zm7.5 1l-4.1 6.2-.7-.1 4.1-6.2.7.1zm4.5.7l.8.1-.9 4.1c-.1.5-.3.8-.6 1.1s-.6.5-1 .6-.8.1-1.2.1c-.4-.1-.8-.2-1.1-.4s-.5-.5-.6-.8a2.4 2.4 0 0 1 0-1.2l.9-4.1.8.1-.9 4.1c-.1.3-.1.6 0 .8s.2.4.4.5.4.2.7.3h.8c.2-.1.4-.2.6-.4s.3-.4.4-.8l.9-4.1zm3 .4l-1.4 6.1-.8-.1 1.4-6.1.8.1zm-179.8-9l-1.3-.2.2-.7 1.3.2c.4.1.8 0 1.2-.1.3-.1.6-.4.8-.7a3.7 3.7 0 0 0 .5-1.1l.1-.4c.1-.3.1-.7.1-.9 0-.3-.1-.5-.2-.7a1.2 1.2 0 0 0-.5-.5c-.2-.1-.5-.2-.8-.3l-1.4-.2.2-.7 1.4.2c.4.1.8.2 1.1.4s.5.4.7.7a3 3 0 0 1 .4 1c0 .4 0 .8-.1 1.2l-.1.4a6.1 6.1 0 0 1-.5 1.2c-.2.3-.5.6-.8.8s-.6.4-1 .4c-.5.1-.9.1-1.3 0zm.6-6.2l-1.4 6.1-.8-.1 1.4-6.1.8.1zm5.2 7.1c-.3 0-.6-.1-.8-.3-.2-.1-.4-.3-.6-.5-.1-.2-.2-.5-.3-.8 0-.3 0-.6.1-.9v-.2a3 3 0 0 1 .4-1c.2-.3.4-.5.6-.7s.5-.3.7-.4a1.1 1.1 0 0 1 .8 0c.3 0 .6.1.8.3a1.2 1.2 0 0 1 .5.5c.1.2.2.5.2.7 0 .3 0 .6-.1.9l-.1.3-3.4-.5.1-.6 2.6.4v-.1-.6c0-.2-.1-.4-.2-.5s-.3-.2-.6-.3h-.5c-.2.1-.3.1-.5.3-.1.1-.3.3-.4.5l-.3.7v.2c0 .2-.1.4-.1.6s.1.4.2.5c.1.2.2.3.4.4s.3.2.5.2c.3 0 .5 0 .7-.1s.4-.2.6-.4l.4.4c-.1.1-.3.3-.5.4s-.4.2-.6.2c0 .5-.3.5-.6.4zm5.7-.5v-.3c0-.1-.1-.2-.2-.3s-.3-.2-.6-.3c-.2-.1-.5-.2-.6-.3-.2-.1-.3-.2-.5-.3-.1-.1-.2-.3-.2-.4v-.5c0-.2.1-.3.2-.5l.4-.4c.2-.1.4-.2.6-.2h.7c.4.1.7.2.9.3.2.2.4.4.5.6s.1.5 0 .7l-.8-.1v-.4c0-.1-.1-.2-.3-.3-.1-.1-.3-.2-.5-.2h-.6c-.1 0-.3.1-.3.2-.1.1-.1.2-.2.3v.2c0 .1.1.1.1.2.1.1.2.1.3.2s.3.1.5.2c.4.1.6.3.9.4.2.1.4.3.4.5.1.2.1.4 0 .6 0 .2-.1.4-.3.5-.1.2-.3.3-.5.4s-.4.2-.6.2h-.7a3 3 0 0 1-1-.4c-.2-.2-.4-.4-.5-.6s-.1-.5-.1-.7l.8.1c0 .2 0 .4.1.5s.2.2.4.3a.9.9 0 0 0 .5.1h.6c.2 0 .3-.1.4-.2.1.1.1 0 .2-.1zm3.4-2.9l-1 4.5-.8-.1 1-4.5.8.1zm-.6-1.4c0-.1.1-.2.2-.3s.2-.1.4-.1c.1 0 .3.1.3.2.1.1.1.2.1.3s-.1.2-.2.3-.2.1-.4.1-.3-.1-.3-.2c-.1 0-.1-.1-.1-.3zm4.8 2l.7.1-1 4.4c-.1.4-.3.7-.5 1s-.5.4-.8.5-.7.1-1.1.1c-.2 0-.3-.1-.5-.2l-.6-.3c-.2-.1-.3-.3-.4-.5l.5-.4c.1.3.3.4.5.6.2.1.4.2.6.2h.7c.2-.1.4-.2.5-.3l.3-.6.8-3.5.3-1.1zm-3.7 1.8h0a3 3 0 0 1 .4-1c.1-.3.3-.5.5-.7s.4-.3.7-.4c.2-.1.5-.1.8-.1s.5.1.7.3c.2.1.3.3.5.5.1.2.2.4.2.7v.9l-.1.4c-.1.3-.2.6-.4.9-.1.3-.3.5-.5.6-.2.2-.4.3-.6.4s-.5.1-.8 0c-.3 0-.5-.1-.7-.3-.2-.1-.3-.3-.5-.6-.1-.2-.2-.5-.2-.8-.1-.2-.1-.5 0-.8zm.8 0h0c-.1.3-.1.5-.1.7s0 .4.1.6.2.3.3.4.3.2.5.2c.3 0 .5 0 .7-.1s.4-.2.5-.4.3-.3.4-.5l.2-1v-.5c0-.2-.1-.3-.2-.4l-.3-.3c-.1-.1-.3-.1-.5-.2-.2 0-.4 0-.6.1s-.3.2-.5.3c-.1.1-.2.3-.3.5s-.1.4-.2.6zm5.4-.5l-.8 3.5-.8-.1 1-4.5.7.1-.1 1zm-.5 1.1l-.3-.1.3-.8c.2-.3.3-.5.5-.6.2-.2.4-.3.7-.4s.5-.1.8-.1c.2 0 .4.1.6.2s.3.2.4.3.2.3.2.5 0 .5-.1.8l-.7 3-.8-.1.7-3c.1-.2.1-.4 0-.6 0-.2-.1-.3-.2-.4s-.3-.1-.5-.2h-.6c-.2.1-.3.2-.5.3l-.4.4c0 .4 0 .6-.1.8zm5.5 3.3c-.3 0-.6-.1-.8-.3-.2-.1-.4-.3-.6-.5-.1-.2-.2-.5-.3-.8 0-.3 0-.6.1-.9v-.2a3 3 0 0 1 .4-1c.2-.3.4-.5.6-.7s.5-.3.7-.4.5-.1.8 0c.3 0 .6.1.8.3a1.2 1.2 0 0 1 .5.5c.1.2.2.5.2.7 0 .3 0 .6-.1.9l-.1.3-3.4-.5.1-.6 2.6.4v-.1-.6c0-.2-.1-.4-.2-.5s-.3-.2-.6-.3h-.5c-.2.1-.3.1-.5.3-.1.1-.3.3-.4.5l-.3.7v.2c0 .2-.1.4-.1.6s.1.4.2.5c.1.2.2.3.4.4s.3.2.5.2c.3 0 .5 0 .7-.1s.4-.2.6-.4l.4.4c-.1.1-.3.3-.5.4s-.4.2-.6.2c0 .5-.3.5-.6.4zm4.4-3.3l-.9 3.8-.8-.1 1-4.5.8.1-.1.7zm1.6-.6l-.2.7c-.1 0-.1 0-.2-.1h-.2-.5c-.2 0-.3.1-.4.2l-.3.3c-.1.1-.2.3-.2.4l-.2.1c.1-.3.1-.5.3-.8.1-.2.2-.4.4-.6s.3-.3.5-.4.4-.1.7-.1h.2c0 .3.1.3.1.3zm3.4 1.4l-1.2 5.4-.8-.1 1.4-6.2.7.1-.1.8zm2.8 1.8h0l-.3 1c-.1.3-.3.5-.5.7s-.4.3-.7.4c-.2.1-.5.1-.8.1s-.5-.1-.7-.2a1.2 1.2 0 0 1-.5-.5c-.1-.2-.2-.4-.2-.7v-.9l.1-.5c.1-.3.2-.6.4-.9s.3-.5.5-.6c.2-.2.4-.3.7-.3.2-.1.5-.1.8 0 .3 0 .5.1.7.3.2.1.3.3.5.5.1.2.2.5.2.8-.1.2-.1.5-.2.8zm-.8 0h0c.1-.3.1-.5.1-.7s0-.4-.1-.6-.2-.3-.3-.4-.3-.2-.5-.2h-.5c-.2 0-.3.1-.4.2l-.3.3c-.1.1-.2.3-.2.4l-.2 1.1c0 .2 0 .4.1.6s.2.3.3.5c.1.1.3.2.6.2.2 0 .4 0 .6-.1s.3-.2.5-.3c.1-.1.3-.3.3-.5-.1-.1 0-.3 0-.5zm1.6.2h0a3 3 0 0 1 .4-1c.2-.3.4-.5.6-.7s.5-.3.8-.4.6-.1.9-.1.6.1.8.3.4.3.5.6a6.9 6.9 0 0 1 .3.8c0 .3 0 .6-.1.9v.1c-.1.3-.2.6-.4.9s-.4.5-.6.7-.5.3-.8.4-.6.1-.9 0c-.3 0-.6-.1-.8-.3s-.4-.3-.5-.6c-.1-.2-.2-.5-.2-.8-.1-.2-.1-.5 0-.8zm.8 0h0c-.1.3-.1.5-.1.7s0 .4.1.6.2.3.3.4.3.2.5.2.4 0 .6-.1.3-.2.5-.3c.1-.1.3-.3.4-.5s.2-.4.2-.6v-.1c.1-.2.1-.4.1-.6s0-.4-.1-.6-.2-.3-.3-.4-.3-.2-.5-.2-.4 0-.6.1-.3.2-.5.3c-.1.1-.3.3-.4.5s-.2.4-.2.6zm6.8 2.1v-.3c0-.1-.1-.2-.2-.3s-.3-.2-.6-.3c-.2-.1-.5-.2-.6-.3-.2-.1-.3-.2-.5-.3-.1-.1-.2-.3-.2-.4v-.5c0-.2.1-.3.2-.5l.4-.4c.2-.1.4-.2.6-.2h.7c.4.1.7.2.9.3.2.2.4.4.5.6s.1.5 0 .7l-.8-.1v-.4c0-.1-.1-.2-.3-.3-.1-.1-.3-.2-.5-.2h-.6c-.1 0-.3.1-.3.2-.1.1-.1.2-.2.3v.2c0 .1.1.1.1.2.1.1.2.1.3.2s.3.1.5.2c.4.1.6.3.9.4.2.1.4.3.4.5.1.2.1.4 0 .6 0 .2-.1.4-.3.5-.1.2-.3.3-.5.4s-.4.2-.6.2h-.7a3 3 0 0 1-1-.4c-.2-.2-.4-.4-.5-.6s-.1-.5-.1-.7l.8.1c0 .2 0 .4.1.5s.2.2.4.3a.9.9 0 0 0 .5.1h.6c.2 0 .3-.1.4-.2.1.2.1 0 .2-.1zm3.4-2.9l-1 4.5-.8-.1 1-4.5.8.1zm-.6-1.3c0-.1.1-.2.2-.3s.2-.1.4-.1c.1 0 .3.1.3.2.1.1.1.2.1.3s-.1.2-.2.3-.2.1-.4.1-.3-.1-.3-.2c-.1-.1-.1-.2-.1-.3zm3.8 1.7l-.1.6-2.5-.3.1-.6 2.5.3zm-1.4-1.3l.8.1-1 4.5v.4c0 .1.1.1.2.2.1 0 .1.1.2.1h.2.2l-.1.6h-.3-.4c-.2 0-.4-.1-.5-.2s-.2-.2-.3-.4 0-.4 0-.7l1-4.6zm3.1 1.6l-1 4.5-.8-.1 1-4.5.8.1zm-.5-1.3c0-.1.1-.2.2-.3s.2-.1.4-.1c.1 0 .3.1.3.2.1.1.1.2 0 .3 0 .1-.1.2-.2.3s-.2.1-.4.1-.3-.1-.3-.2-.1-.2 0-.3zm1.1 3.7h0a3 3 0 0 1 .4-1c.2-.3.4-.5.6-.7s.5-.3.8-.4.6-.1.9-.1.6.1.8.3c.2.1.4.3.5.6.1.2.2.5.3.8 0 .3 0 .6-.1.9v.1c-.1.3-.2.6-.4.9s-.4.5-.6.7-.5.3-.8.4-.6.1-.9.1-.6-.1-.8-.3-.4-.3-.5-.6c-.1-.2-.2-.5-.2-.8-.1-.2-.1-.5 0-.9zm.8 0h0c-.1.3-.1.5-.1.7s0 .4.1.6.2.3.3.4.3.2.5.2.4 0 .6-.1.3-.2.5-.3c.1-.1.3-.3.4-.5s.2-.4.2-.6v-.1c.1-.2.1-.4.1-.6s0-.4-.1-.6-.2-.3-.3-.4-.3-.2-.5-.2-.4 0-.6.1-.3.2-.5.3c-.1.1-.3.3-.4.5s-.2.4-.2.6zm5.4-.5l-.8 3.5-.8-.1 1-4.5.7.1-.1 1zm-.4 1.1l-.3-.1.3-.8c.2-.3.3-.5.5-.6.2-.2.4-.3.7-.4s.5-.1.8-.1c.2 0 .4.1.6.2s.3.2.4.3.2.3.2.6c0 .2 0 .5-.1.8l-.7 3-.8-.1.7-3c.1-.2.1-.4 0-.6 0-.2-.1-.3-.2-.4s-.3-.1-.5-.2h-.6c-.2.1-.3.1-.5.3l-.4.4c0 .3-.1.5-.1.7z" fill="#3b3b3b"/><use href="#G" class="Q"/><use href="#G" fill="none" stroke="#c6dfff" class="T"/><use href="#F" x="16.1" y="85.9" class="P"/><path d="M208.8 247.7c.5.1 1 .2 1.4.2l1 .3a6.9 6.9 0 0 1 1 .4l-.6 1.8c-.4-.1-.7-.1-1-.2s-.6-.1-1-.2c-.3-.1-.8-.1-1.3-.2a2.1 2.1 0 0 0-1.4.2c-.4.2-.7.5-.9 1a7.1 7.1 0 0 0-.7 2.2c-.2.9-.3 1.7-.3 2.3s.1 1 .4 1.2c.3.3.7.4 1.3.5l1.9.2a8.6 8.6 0 0 0 1.6.1l-.2 1.9c-.6.1-1.1.1-1.7.1s-1.3-.1-2.1-.2c-1.2-.2-2.1-.5-2.7-1a3.1 3.1 0 0 1-1.1-2.1c-.1-.9 0-2.1.3-3.5s.7-2.5 1.3-3.4a3.9 3.9 0 0 1 2-1.6c.6-.1 1.6-.2 2.8 0zm-11.5-1.6l1.9.3 1.9.3c.6.1 1.2.2 1.7.4l-.5 1.8-4.5-.6c-.3 0-.5 0-.7.1s-.3.3-.3.6l-1.4 5.9c-.1.3 0 .5.1.7s.3.3.6.3l4.5.6-.3 1.9c-.6 0-1.1-.1-1.8-.1-.6-.1-1.3-.1-1.9-.2l-1.9-.3c-.7-.1-1.3-.4-1.7-.9s-.5-1.1-.3-1.8l1.6-7a2.6 2.6 0 0 1 1.1-1.6c.5-.4 1.1-.5 1.9-.4zm-3.3 4.4l7 1-.4 1.8-7-1 .4-1.8z" class="Q"/><path d="M231.8 245.2l-2 8.5-1.6-.2 2-8.5 1.6.2zm2.3 3.9l-1.1 5-1.6-.2 1.5-6.3 1.5.2-.3 1.3zm-.6 1.6l-.5-.1c.1-.5.3-.9.5-1.2.2-.4.5-.7.7-.9.3-.2.6-.4.9-.5s.7-.1 1.1-.1c.3 0 .6.1.8.2a1.2 1.2 0 0 1 .5.5c.1.2.2.5.2.8s0 .7-.1 1.1l-.9 4-1.6-.2.9-4.1c.1-.3.1-.5 0-.7 0-.2-.1-.3-.3-.4-.1-.1-.3-.2-.6-.2-.2 0-.5 0-.7.1s-.4.2-.5.3c-.2.2-.3.3-.4.5.2.4.1.6 0 .9zm9.2-1.8l-.3 1.1-3.7-.5.3-1.1 3.7.5zm-2.3-1.9l1.6.2-1.4 6c0 .2-.1.3 0 .4s.1.2.2.2.2.1.4.1h.3.2l-.3 1.2h-.5-.6c-.4-.1-.6-.2-.9-.3-.2-.2-.4-.4-.5-.7s-.1-.7 0-1.1l1.5-6zm4.8 8.9c-.5-.1-.9-.2-1.3-.4s-.6-.5-.8-.8-.3-.7-.4-1.1 0-.8.1-1.2l.1-.2c.1-.5.3-.9.5-1.3s.5-.7.8-.9a3.7 3.7 0 0 1 1.1-.5c.4-.1.8-.1 1.3-.1.5.1.8.2 1.2.4.3.2.6.4.7.8.2.3.3.7.3 1.1s0 .8-.1 1.3l-.1.6-5-.7.2-1.1 3.5.5v-.1c0-.2.1-.5 0-.7 0-.2-.1-.4-.3-.5s-.4-.2-.7-.3c-.2 0-.4 0-.6.1s-.4.2-.5.4c-.2.2-.3.4-.4.6s-.2.5-.3.8l-.1.2c-.1.3-.1.5-.1.7s.1.4.2.6.3.3.4.5c.2.1.4.2.7.2s.6 0 .9-.1.6-.2.8-.5l.6.9c-.2.2-.4.3-.7.5-.3.1-.6.3-.9.3-.3.1-.7.1-1.1 0zm6.4-4.4l-1.2 5-1.6-.2 1.5-6.3 1.5.2-.2 1.3zm2.2-1l-.4 1.4c-.1 0-.2-.1-.3-.1s-.2 0-.3-.1h-.7c-.2 0-.4.1-.5.2s-.3.2-.4.4-.2.4-.2.6l-.3-.1c.1-.4.2-.8.4-1.1l.6-.8c.2-.2.5-.4.7-.5.3-.1.6-.1.9-.1.1 0 .2 0 .3.1.1 0 .2 0 .2.1zm1.9 5.6l2.7-4.9 1.6.2-3.7 6-1-.1.4-1.2zm.1-5.3l.3 5.4-.2 1.2-1-.1-.7-6.6 1.6.1zm6.7.9L261 258l-1.6-.2 1.5-6.3 1.6.2zm-1.3-1.9c.1-.2.2-.4.4-.5s.4-.2.7-.1c.3 0 .5.1.6.3s.2.4.1.6-.2.4-.4.5-.4.2-.7.1c-.3 0-.5-.1-.6-.3-.1-.1-.2-.3-.1-.6zm4.2 9c-.5-.1-.9-.2-1.3-.4s-.6-.5-.8-.8-.3-.7-.4-1.1 0-.8.1-1.2l.1-.2c.1-.5.3-.9.5-1.3s.5-.7.8-.9c.3-.3.7-.4 1.1-.5s.8-.1 1.3-.1c.5.1.8.2 1.1.4s.6.4.7.8c.2.3.3.7.3 1.1s0 .8-.1 1.3l-.1.6-5-.7.2-1.1 3.5.5v-.1c0-.2.1-.5 0-.7 0-.2-.1-.4-.3-.5-.2-.2-.4-.2-.7-.3-.2 0-.4 0-.6.1s-.4.2-.5.4c-.2.2-.3.4-.4.6s-.2.5-.3.8l-.1.2c-.1.3-.1.5-.1.7s.1.4.2.6.3.3.4.5c.2.1.4.2.7.2s.6 0 .9-.1.6-.2.8-.5l.6.9c-.2.2-.4.3-.7.5-.3.1-.6.3-.9.3h-1zm5.8-.9l2.5-4.6 1 .1-.7 1.6-2.5 4.5-.9-.1.6-1.5zm.3-4.9l-.1 5-.3 1.5-1-.1-.2-6.5 1.6.1zm3.4 5.4l2.1-4.6 1.5.2-3.1 6.1-1-.1.5-1.6zm0-4.9l.3 4.9-.2 1.6-.9-.1-.4-4.9.1-1.7 1.1.2zm11.3.7l-4.1 6.9-1.7-.2 5.2-8 1.1.2-.5 1.1zm.4 7.4l-.8-7.5.1-1.3 1.1.2 1.3 8.9-1.7-.3zm.7-3.1l-.3 1.3-4.6-.7.3-1.3 4.6.7zm5.9 2.5l1.1-4.8 1.6.2-1.5 6.3-1.5-.2.3-1.5zm.5-1.3l.5.1c-.1.4-.2.8-.4 1.2s-.4.6-.7.9c-.3.2-.6.4-.9.5s-.7.1-1.1.1c-.3 0-.6-.1-.8-.2s-.4-.3-.6-.5c-.1-.2-.2-.5-.3-.8 0-.3 0-.7.1-1.1l.9-4.1 1.6.2-.9 4.1c0 .2-.1.4-.1.5s.1.3.1.4c.1.1.2.2.3.2.1.1.2.1.4.1.4.1.7 0 .9-.1.3-.1.5-.3.6-.5.2-.4.4-.6.4-1zm6.6-2.6l-.3 1.1-3.7-.5.3-1.1 3.7.5zm-2.3-2l1.6.2-1.4 6c0 .2-.1.3 0 .4 0 .1.1.2.2.2s.2.1.4.1h.3.2l-.3 1.2h-.5-.6c-.4 0-.6-.2-.9-.3-.2-.2-.4-.4-.5-.7s-.1-.7 0-1.1l1.5-6zm2.2 5.3v-.1c.1-.5.3-.9.5-1.2.2-.4.5-.7.8-.9.3-.3.7-.4 1.1-.5s.9-.1 1.3-.1c.5.1.9.2 1.2.4s.6.5.8.8.3.7.4 1.1c0 .4 0 .8-.1 1.3v.1c-.1.5-.3.9-.5 1.2-.2.4-.5.7-.8.9-.3.3-.7.4-1.1.5s-.9.1-1.3.1c-.5-.1-.9-.2-1.2-.4s-.6-.5-.8-.8-.3-.7-.4-1.1c0-.4 0-.9.1-1.3zm1.6.1v.1c-.1.3-.1.5-.1.8a1.7 1.7 0 0 0 .1.7c.1.2.2.4.3.5.2.1.4.2.6.2.3 0 .5 0 .7-.1s.4-.2.5-.4c.2-.2.3-.4.4-.6a6.9 6.9 0 0 0 .3-.8v-.1c.1-.3.1-.5.1-.8 0-.2 0-.5-.1-.7s-.2-.4-.4-.5l-.6-.3c-.3 0-.5 0-.7.1s-.4.2-.5.4c-.2.2-.3.4-.4.6-.1.3-.1.6-.2.9zm11.7 3.5l.7-2.9c0-.2.1-.4 0-.6 0-.2-.1-.3-.3-.4-.1-.1-.3-.2-.6-.2h-.6c-.2 0-.3.1-.4.2s-.2.2-.2.4l-1.6-.2c.1-.3.2-.5.4-.7s.4-.4.7-.6.6-.3.9-.3c.4-.1.7-.1 1.1 0 .5.1.9.2 1.2.4s.6.5.7.8c.1.4.2.8 0 1.3l-.6 2.8c-.1.3-.1.6-.1.8s0 .4.1.6v.1l-1.6-.2v-.6c.1-.2.1-.4.2-.7zm.8-2.4l-.2.9-1-.1h-.7c-.2 0-.4.1-.5.1-.1.1-.3.2-.3.3-.1.1-.1.3-.2.4v.4c0 .1.1.2.3.3.1.1.3.1.5.2.3 0 .5 0 .8-.1l.6-.3c.2-.1.2-.3.3-.4l.3.7c-.1.2-.2.3-.4.5s-.3.3-.5.4-.4.2-.7.3-.6.1-.9 0c-.4-.1-.8-.2-1.1-.4s-.5-.5-.6-.8-.1-.6-.1-1c.1-.3.2-.6.4-.9.2-.2.4-.4.7-.6l1-.3h1.3l1 .4zm4.8 3.5h.6c.2-.1.4-.2.5-.3s.2-.3.3-.5l1.5.2c-.1.4-.3.8-.6 1.1s-.7.5-1.1.7c-.4.1-.9.2-1.4.1s-.9-.2-1.2-.4-.6-.5-.8-.8-.3-.7-.3-1.1 0-.8.1-1.3v-.2a6.1 6.1 0 0 1 .5-1.2c.2-.4.5-.7.8-.9.3-.3.7-.4 1.1-.6.4-.1.9-.1 1.3-.1.5.1.9.2 1.3.5s.6.6.7 1 .2.8.1 1.3l-1.5-.2v-.6c-.1-.2-.2-.4-.3-.5s-.3-.2-.6-.3c-.3 0-.5 0-.7.1s-.4.2-.5.4-.3.4-.3.6c-.1.2-.2.5-.2.7v.2c-.1.3-.1.5-.1.7a1.7 1.7 0 0 0 .1.7c.1.2.2.4.3.5-.1 0 .1.1.4.2zm6.3.9h.6c.2-.1.4-.2.5-.3s.2-.3.3-.5l1.5.2c-.1.4-.3.8-.6 1.1s-.7.5-1.1.7c-.4.1-.9.2-1.4.1s-.9-.2-1.2-.4-.6-.5-.8-.8-.3-.7-.3-1.1 0-.8.1-1.3v-.2c.1-.4.3-.8.5-1.2s.5-.7.8-.9c.3-.3.7-.4 1.1-.6.4-.1.9-.1 1.3-.1.5.1.9.2 1.3.5.3.3.6.6.7 1s.2.8.1 1.3l-1.5-.2v-.6c-.1-.2-.2-.4-.3-.5s-.3-.2-.6-.3c-.3 0-.5 0-.7.1s-.4.2-.5.4-.3.4-.3.6c-.1.2-.2.5-.2.7v.2c-.1.3-.1.5-.1.7a1.7 1.7 0 0 0 .1.7c.1.2.2.4.3.5-.1 0 .1.1.4.2zm6.3 2.1c-.5-.1-.9-.2-1.3-.4s-.6-.5-.8-.8-.3-.7-.4-1.1 0-.8.1-1.2l.1-.2c.1-.5.3-.9.5-1.3s.5-.7.8-.9c.3-.3.7-.4 1.1-.5s.8-.1 1.3-.1c.5.1.8.2 1.2.4.3.2.6.4.7.8.2.3.3.7.3 1.1s0 .8-.1 1.3l-.1.6-5-.7.2-1.1 3.5.5v-.1c0-.2.1-.5 0-.7 0-.2-.1-.4-.3-.5s-.4-.2-.7-.3c-.2 0-.4 0-.6.1s-.4.2-.5.4c-.2.2-.3.4-.4.6s-.2.5-.3.8l-.1.2c-.1.3-.1.5-.1.8 0 .2.1.4.2.6s.3.3.4.5c.2.1.4.2.7.2s.6 0 .9-.1.6-.2.8-.5l.6.9c-.2.2-.4.3-.7.5-.3.1-.6.3-.9.3s-.7 0-1.1-.1zm6.4-4.5l-1.7 7.5-1.6-.2 2-8.7 1.5.2-.2 1.2zm3.7 2.5v.1c-.1.5-.3.9-.5 1.3a3.6 3.6 0 0 1-.7 1c-.3.3-.6.4-.9.6-.3.1-.7.1-1.1.1a3 3 0 0 1-1-.4c-.3-.2-.5-.4-.6-.7l-.3-1v-1.2l.1-.4c.2-.5.4-.9.6-1.2.2-.4.4-.7.7-.9.3-.3.6-.4.9-.5s.7-.1 1.1-.1a3 3 0 0 1 1 .4c.3.2.5.5.6.8a3.6 3.6 0 0 1 .2 1.1c0 .1 0 .5-.1 1zm-1.6-.1v-.1c.1-.3.1-.5.1-.8 0-.2 0-.5-.1-.7s-.2-.4-.3-.5-.3-.2-.6-.2h-.6c-.2.1-.4.1-.5.3-.1.1-.3.3-.4.5l-.3.6-.2 1v.8c0 .2.2.4.3.6.2.2.4.3.7.3.2 0 .5 0 .7-.1s.4-.2.5-.4c.2-.2.3-.4.4-.6s.2-.4.3-.7zm6.5-2.4l-.3 1.1-3.7-.5.3-1.1 3.7.5zm-2.4-2l1.6.2-1.4 6c0 .2-.1.3 0 .4 0 .1.1.2.2.2s.2.1.4.1h.3.2l-.3 1.2h-.5-.6c-.4 0-.6-.2-.9-.3-.2-.2-.4-.4-.5-.7s-.1-.7 0-1.1l1.5-6z" class="S"/><path d="M399.7 268.2l-1.4 6.1-.8-.1 1.2-5.1-1.7.3.2-.7 2.4-.5h.1zm4.9.7l-1.4 6.1-.8-.1 1.2-5.1-1.7.3.2-.7 2.4-.5h.1zm1 6.1c0-.1.1-.2.2-.3s.2-.1.4-.1.3.1.3.2c.1.1.1.2.1.3s-.1.2-.2.3-.2.1-.4.1-.3-.1-.3-.2c-.1-.1-.1-.2-.1-.3zm.9-3.7c0-.1.1-.2.2-.3s.2-.1.4-.1.3.1.3.2c.1.1.1.2.1.3s-.1.2-.2.3-.2.1-.4.1-.3-.1-.3-.2c-.1-.1-.1-.2-.1-.3zm5.8 1.4l-.2.9c-.1.5-.3.9-.4 1.2l-.6.8c-.2.2-.5.3-.7.4a1.1 1.1 0 0 1-.8 0c-.2 0-.4-.1-.6-.2s-.3-.2-.5-.4c-.1-.2-.2-.3-.3-.6s-.1-.5-.1-.8.1-.7.2-1.1l.2-.9c.1-.5.3-.9.4-1.2l.6-.8c.2-.2.5-.3.7-.4a1.1 1.1 0 0 1 .8 0c.2 0 .5.1.6.2.2.1.4.2.5.3s.2.3.3.5.1.5.1.8c-.1.5-.1.9-.2 1.3zm-1.1.9l.3-1.2c.1-.3.1-.5.1-.7v-.6c0-.2-.1-.3-.2-.4s-.2-.2-.3-.2c-.1-.1-.2-.1-.4-.1h-.5c-.2 0-.3.1-.4.3-.1.1-.2.3-.4.5-.1.2-.2.5-.3.9l-.3 1.2c-.1.3-.1.5-.1.7v.6c0 .2.1.3.2.4l.3.3c.1.1.2.1.4.1h.5c.2-.1.3-.1.4-.3.1-.1.3-.3.4-.6.2-.3.3-.5.3-.9zm5.9-.2l-.2.9c-.1.5-.3.9-.4 1.2l-.6.8c-.2.2-.5.3-.7.4a1.1 1.1 0 0 1-.8 0c-.2 0-.4-.1-.6-.2s-.3-.2-.5-.4c-.1-.2-.2-.3-.3-.6s-.1-.5-.1-.8.1-.7.2-1.1l.2-.9c.1-.5.3-.9.4-1.2l.6-.8c.2-.2.5-.3.7-.4a1.1 1.1 0 0 1 .8 0c.2 0 .5.1.6.2.2.1.4.2.5.3s.2.3.3.5.1.5.1.8c0 .5-.1.9-.2 1.3zm-1 .9l.3-1.2c.1-.3.1-.5.1-.7v-.6c0-.2-.1-.3-.2-.4s-.2-.2-.3-.2c-.1-.1-.2-.1-.4-.1h-.5c-.2 0-.3.1-.4.3-.1.1-.2.3-.4.5-.1.2-.2.5-.3.9l-.3 1.2c-.1.3-.1.5-.1.7v.6c0 .2.1.3.2.4l.3.3c.1.1.2.1.4.1h.5c.2-.1.3-.1.4-.3.1-.1.3-.3.4-.6l.3-.9zm6.4 1l-1.6-.2.2-.7 1.6.2h.8c.2-.1.4-.2.5-.4l.3-.6v-.6c0-.2-.2-.4-.3-.5-.2-.1-.4-.2-.7-.3l-1.5-.2-1.2 5.4-.8-.1 1.4-6.1 2.3.3c.5.1.8.2 1.1.4s.5.5.6.8.1.6 0 1-.2.7-.5 1c-.2.3-.5.4-.9.5s-.8.2-1.3.1zm4.3-3.2l.8.1.9 5.2 3.2-4.7.8.1-3.9 5.7-.6-.1-1.2-6.3zm-.2 0l.7.1-.7 3.7-.5 2.4-.8-.1 1.3-6.1zm5.4.7l.7.1-1.4 6.1-.8-.1.5-2.4 1-3.7z" fill="#9f9f9f"/><path d="M225.6 264.9l.8.1.9 5.2 3.2-4.7.8.1-3.9 5.7-.6-.1-1.2-6.3zm-.3 0l.7.1-.7 3.7-.5 2.4-.8-.1 1.3-6.1zm5.5.7l.7.1-1.4 6.1-.8-.1.5-2.4 1-3.7zm4.3 1.2l-3.3 5.2-.8-.1 3.7-5.7.5.1-.1.5zm.5 5.8l-.8-5.8.1-.5.5.1 1 6.4-.8-.2zm.4-2.3l-.2.7-3.5-.5.2-.7 3.5.5zm5.1 2.4l-.1.7-3.1-.4.1-.7 3.1.4zm-1.7-5.9l-1.4 6.1-.8-.1 1.4-6.1.8.1zm6.1 1.5l-3.3 5.2-.8-.1 3.7-5.7.5.1-.1.5zm.5 5.7l-.8-5.8.1-.5.5.1 1 6.4-.8-.2zm.4-2.2l-.2.7-3.5-.5.2-.7 3.5.5zm3.5-3.5l-1.4 6.1-.8-.1 1.4-6.1.8.1zm5 6.2l.5-2.3v-.5c0-.1-.1-.3-.3-.4-.1-.1-.3-.2-.5-.2h-.5c-.2 0-.3.1-.4.2s-.2.2-.2.3l-.8-.1c0-.2.1-.3.2-.5.1-.1.3-.3.5-.4s.4-.2.6-.2h.8c.3 0 .6.1.8.3.2.1.4.3.5.6.1.2.1.5 0 .9l-.5 2.1c0 .1-.1.3-.1.5v.5.1l-.8-.1v-.4c.1-.1.2-.3.2-.4zm.6-2l-.1.5-.8-.1h-.6c-.2 0-.3 0-.5.1-.1.1-.2.1-.3.2s-.1.2-.2.3v.4c0 .1.1.2.2.3s.3.1.5.2c.2 0 .5 0 .7-.1s.4-.2.5-.3.2-.3.3-.4l.2.4c0 .1-.1.2-.2.4-.1.1-.3.2-.4.4-.2.1-.4.2-.6.2-.2.1-.4.1-.7 0-.3 0-.6-.1-.8-.3s-.3-.3-.4-.6c-.1-.2-.1-.5 0-.7l.3-.6c.1-.2.3-.3.5-.4s.4-.2.7-.2h.9l.8.3zm2.9-.5l-1.2 5.4-.8-.1 1.4-6.2.7.1-.1.8zm2.7 1.8h0l-.3 1c-.1.3-.3.5-.5.7s-.4.3-.7.4c-.2.1-.5.1-.8.1s-.5-.1-.7-.2a1.2 1.2 0 0 1-.5-.5c-.1-.2-.2-.4-.2-.7v-.9l.1-.5c.1-.3.2-.6.4-.9.2-.2.3-.5.5-.6.2-.2.4-.3.7-.4.2-.1.5-.1.8 0 .3 0 .5.1.7.3a1.2 1.2 0 0 1 .5.5c.1.2.2.5.2.8-.1.2-.1.6-.2.9zm-.8 0h0c.1-.3.1-.5.1-.7s0-.4-.1-.6-.2-.3-.3-.4-.3-.2-.5-.2h-.5c-.2 0-.3.1-.4.2l-.3.3c-.1.1-.2.3-.2.4l-.2 1.1c0 .2 0 .4.1.6s.2.3.3.5c.1.1.3.2.6.2.2 0 .4 0 .6-.1s.3-.2.5-.3c.1-.1.3-.3.3-.5-.1-.1 0-.3 0-.5zm2.9-1.1l-1.2 5.4-.8-.1 1.4-6.2.7.1-.1.8zm2.8 1.8h0l-.3 1c-.1.3-.3.5-.5.7s-.4.3-.7.4a2.2 2.2 0 0 1-.8.1c-.3 0-.5-.1-.7-.2a1.2 1.2 0 0 1-.5-.5c-.1-.2-.2-.4-.2-.7v-.9l.1-.5c.1-.3.2-.6.4-.9.2-.2.3-.5.5-.6.2-.2.4-.3.7-.3.2-.1.5-.1.8 0 .3 0 .5.1.7.3.2.1.3.3.5.5.1.2.2.5.2.8-.1.1-.1.4-.2.8zm-.8 0h0c.1-.3.1-.5.1-.7s0-.4-.1-.6-.2-.3-.3-.4-.3-.2-.5-.2h-.5c-.2 0-.3.1-.4.2l-.3.3c-.1.1-.2.3-.2.4l-.2 1.1c0 .2 0 .4.1.6s.2.3.3.5c.1.1.3.2.6.2.2 0 .4 0 .6-.1s.3-.2.5-.3c.1-.1.3-.3.3-.5-.1-.1-.1-.3 0-.5zm3.1 2.8c-.3 0-.6-.1-.8-.3-.2-.1-.4-.3-.6-.5-.1-.2-.2-.5-.3-.8 0-.3 0-.6.1-.9v-.2a3 3 0 0 1 .4-1c.2-.3.4-.5.6-.7s.5-.3.7-.4a1.1 1.1 0 0 1 .8 0c.3 0 .6.1.8.3a1.2 1.2 0 0 1 .5.5c.1.2.2.5.2.7 0 .3 0 .6-.1.9l-.1.3-3.4-.5.1-.6 2.6.4v-.1-.6c0-.2-.1-.4-.2-.5s-.3-.2-.6-.3h-.5c-.2.1-.3.1-.5.3-.1.1-.3.3-.4.5l-.3.7v.2c0 .2-.1.4 0 .6 0 .2.1.4.2.5.1.2.2.3.4.4.1.1.3.2.5.2.3 0 .5 0 .7-.1s.4-.2.6-.4l.4.4c-.1.1-.3.3-.5.4s-.4.2-.6.2c-.1.4-.4.4-.7.4zm5.6-.1l.5-2.3v-.5c0-.1-.1-.3-.2-.4s-.3-.2-.5-.2h-.5c-.2 0-.3.1-.4.2s-.2.2-.2.3l-.8-.1c0-.2.1-.3.2-.5.1-.1.3-.3.5-.4s.4-.2.6-.2h.8c.3 0 .6.1.8.3.2.1.4.3.5.6.1.2.1.5 0 .9l-.5 2.1c0 .1-.1.3-.1.5v.5.1l-.8-.1v-.4c.1-.2.1-.3.1-.4zm.6-2l-.1.5-.8-.1h-.6c-.2 0-.3 0-.5.1-.1.1-.2.1-.3.2s-.1.2-.2.3v.4c0 .1.1.2.2.3s.3.1.5.2c.2 0 .5 0 .7-.1s.4-.2.5-.3.2-.3.3-.4l.2.4c0 .1-.1.2-.2.4s-.3.2-.4.4c-.2.1-.4.2-.6.2-.2.1-.4.1-.7 0-.3 0-.6-.1-.8-.3s-.3-.3-.4-.6c-.1-.2-.1-.5 0-.7l.3-.6c.1-.2.3-.3.5-.4s.4-.2.7-.2h.9l.8.3zm2.9-.7l-.9 3.8-.8-.1 1-4.5.8.1-.1.7zm1.6-.5l-.2.7c-.1 0-.1 0-.2-.1h-.2-.5c-.2 0-.3.1-.4.2l-.3.3c-.1.1-.2.3-.2.4l-.2.1c.1-.3.1-.5.3-.8.1-.2.2-.4.4-.6s.3-.3.5-.4.4-.1.7-.1h.2l.1.3zm2.6 3.8v-.3c0-.1-.1-.2-.2-.3s-.3-.2-.6-.3c-.2-.1-.5-.2-.6-.3-.2-.1-.3-.2-.5-.3-.1-.1-.2-.3-.2-.4v-.5c0-.2.1-.3.2-.5l.4-.4c.2-.1.4-.2.6-.2h.7c.4.1.7.2.9.3s.4.4.5.6.1.5 0 .7l-.8-.1v-.4c0-.1-.1-.2-.3-.3-.1-.1-.3-.2-.5-.2h-.6c-.1 0-.3.1-.3.2-.1.1-.1.2-.2.3v.2c0 .1.1.1.1.2.1.1.2.1.3.2s.3.1.5.2c.4.1.6.3.9.4.2.1.4.3.4.5.1.2.1.4 0 .6 0 .2-.1.4-.3.5-.1.2-.3.3-.5.4s-.4.2-.6.2h-.7a3 3 0 0 1-1-.4c-.2-.2-.4-.4-.5-.6s-.1-.5-.1-.7l.8.1c0 .2 0 .4.1.5s.2.2.4.3a.9.9 0 0 0 .5.1h.6c.2 0 .3-.1.4-.2.2.1.2 0 .2-.1zm6.7-2.5l-.1.6-2.5-.3.1-.6 2.5.3zm-1.4-1.3l.8.1-1 4.5v.4c0 .1.1.1.2.2.1 0 .1.1.2.1h.2.2l-.1.6h-.3-.4c-.2 0-.4-.1-.5-.2s-.2-.2-.3-.4 0-.4 0-.7l1-4.6zm1.5 3.7h0a3 3 0 0 1 .4-1c.2-.3.4-.5.6-.7s.5-.3.8-.4.6-.1.9-.1.6.1.8.3c.2.1.4.3.5.6.1.2.2.5.3.8 0 .3 0 .6-.1.9v.1c-.1.3-.2.6-.4.9s-.4.5-.6.7-.5.3-.8.4-.6.1-.9 0c-.3 0-.6-.1-.8-.3s-.4-.3-.5-.6c-.1-.2-.2-.5-.2-.8-.1-.1-.1-.5 0-.8zm.8 0h0c-.1.3-.1.5-.1.7s0 .4.1.6.2.3.3.4.3.2.5.2h.6c.2-.1.3-.2.5-.3.1-.1.3-.3.4-.5s.2-.4.2-.6v-.1c.1-.2.1-.4.1-.6s0-.4-.1-.6-.2-.3-.3-.4-.3-.2-.5-.2-.4 0-.6.1-.3.2-.5.3c-.1.1-.3.3-.4.5-.1.1-.2.3-.2.5zm7.4-3.1l.8.1-1.3 5.5-.3.9-.7-.1 1.5-6.4zm3 4.6h0l-.3 1c-.1.3-.3.5-.5.7s-.4.3-.7.4c-.2.1-.5.1-.8.1s-.5-.1-.7-.3c-.2-.1-.3-.3-.5-.5-.1-.2-.2-.4-.2-.7v-.9l.1-.4c.1-.3.2-.6.4-.9s.3-.5.5-.6c.2-.2.4-.3.6-.4s.5-.1.8 0c.3 0 .5.1.7.3.2.1.3.3.5.5.1.2.2.5.2.8 0 .2 0 .6-.1.9zm-.8 0h0c.1-.3.1-.5.1-.7s0-.4-.1-.6-.2-.3-.3-.4-.3-.2-.5-.2h-.5c-.2 0-.3.1-.4.2l-.3.3c-.1.1-.2.3-.2.4l-.2 1c0 .2 0 .4.1.6s.2.4.3.5.4.2.6.3h.6c.2-.1.3-.2.5-.3.1-.1.2-.3.3-.5-.2-.2-.1-.4 0-.6zm3.1 2.8c-.3 0-.6-.1-.8-.3-.2-.1-.4-.3-.6-.5-.1-.2-.2-.5-.3-.8 0-.3 0-.6.1-.9v-.2a3 3 0 0 1 .4-1c.2-.3.4-.5.6-.7s.5-.3.7-.4c.3-.1.5-.1.8-.1s.6.1.8.3a1.2 1.2 0 0 1 .5.5c.1.2.2.5.2.7 0 .3 0 .6-.1.9l-.1.3-3.4-.5.1-.6 2.6.4v-.1-.6c0-.2-.1-.4-.2-.5s-.3-.2-.6-.3h-.5c-.2.1-.3.1-.5.3-.1.1-.3.3-.4.5l-.3.7v.2c0 .2-.1.4-.1.6s.1.4.2.5c.1.2.2.3.4.4s.3.2.5.2c.3 0 .5 0 .7-.1s.4-.2.6-.4l.4.4c-.1.1-.3.3-.5.4s-.4.2-.6.2c0 .5-.3.5-.6.5zm7.9-.1l.8-3.5.8.1-1 4.5-.7-.1.1-1zm.4-.9h.3l-.3.8c-.1.2-.3.4-.5.6s-.4.3-.7.4-.5.1-.9 0c-.2 0-.4-.1-.6-.2s-.3-.2-.4-.4-.2-.3-.2-.6c0-.2 0-.5.1-.8l.7-2.9.8.1-.7 2.9c0 .2-.1.4 0 .5 0 .1.1.2.1.3.1.1.1.2.2.2s.2.1.3.1c.3 0 .6 0 .8-.1a1.2 1.2 0 0 0 .5-.5c.3.1.4-.1.5-.4zm3-1.2l-.8 3.5-.8-.1 1-4.5.7.1-.1 1zm-.5 1.1l-.3-.1.3-.8c.2-.3.3-.5.5-.6.2-.2.4-.3.7-.4s.5-.1.8-.1c.2 0 .4.1.6.2s.3.2.4.3.2.3.2.5 0 .5-.1.8l-.7 3-.8-.1.7-3c.1-.2.1-.4 0-.6 0-.2-.1-.3-.2-.4s-.3-.1-.5-.2h-.6c-.2.1-.3.1-.5.3-.1.1-.3.3-.4.5 0 .3 0 .5-.1.7zm5.5-1.4l-1 4.5-.8-.1 1-4.5.8.1zm-.5-1.3c0-.1.1-.2.2-.3s.2-.1.4-.1c.1 0 .3.1.3.2.1.1.1.2 0 .3 0 .1-.1.2-.2.3s-.2.1-.4.1-.3-.1-.3-.2c0 0-.1-.1 0-.3zm2.4 2.6l-.8 3.5-.8-.1 1-4.5.7.1-.1 1zm-.5 1.1l-.3-.1.3-.8c.2-.3.3-.5.5-.6.2-.2.4-.3.7-.4s.5-.1.8-.1c.2 0 .4.1.6.2s.3.2.4.3.2.3.2.5 0 .5-.1.8l-.7 3-.8-.1.7-3c.1-.2.1-.4 0-.6 0-.2-.1-.3-.2-.4s-.3-.1-.5-.2h-.6c-.2.1-.3.1-.5.3l-.4.4c0 .4 0 .6-.1.8zm6.6-1.2l-.1.6-2.5-.3.1-.6 2.5.3zm-1.4-1.4l.8.1-1 4.5v.4c0 .1.1.1.2.2.1 0 .1.1.2.1h.2.2l-.1.6h-.3-.4c-.2 0-.4-.1-.5-.2s-.2-.2-.3-.4 0-.4 0-.7l1-4.6zm3.2 6.4c-.3 0-.6-.1-.8-.3-.2-.1-.4-.3-.6-.5-.1-.2-.2-.5-.3-.8 0-.3 0-.6.1-.9v-.2a3 3 0 0 1 .4-1c.2-.3.4-.5.6-.7s.5-.3.7-.4a1.1 1.1 0 0 1 .8 0c.3 0 .6.1.8.3a1.2 1.2 0 0 1 .5.5c.1.2.2.5.2.7 0 .3 0 .6-.1.9l-.1.3-3.4-.5.1-.6 2.6.4v-.1-.6c0-.2-.1-.4-.2-.5s-.3-.2-.6-.3h-.5c-.2.1-.3.1-.5.3-.1.1-.3.3-.4.5l-.3.7v.2c0 .2-.1.4 0 .6 0 .2.1.4.2.5.1.2.2.3.4.4s.3.2.5.2c.3 0 .5 0 .7-.1s.4-.2.6-.4l.4.4c-.1.1-.3.3-.5.4s-.4.2-.6.2c-.2.4-.4.4-.7.4zm4.3-3.4l-.9 3.8-.8-.1 1-4.5.8.1-.1.7zm1.6-.6l-.2.7c-.1 0-.1 0-.2-.1h-.2-.5c-.2 0-.3.1-.4.2l-.3.3c-.1.1-.2.3-.2.4l-.2.1c.1-.3.1-.5.3-.8.1-.2.2-.4.4-.6s.3-.3.5-.4.4-.1.7-.1h.2l.1.3zm1.5 5c-.3 0-.6-.1-.8-.3-.2-.1-.4-.3-.6-.5-.1-.2-.2-.5-.3-.8 0-.3 0-.6.1-.9v-.2a3 3 0 0 1 .4-1c.2-.3.4-.5.6-.7s.5-.3.7-.4.5-.1.8 0c.3 0 .6.1.8.3a1.2 1.2 0 0 1 .5.5c.1.2.2.5.2.7 0 .3 0 .6-.1.9l-.1.3-3.4-.5.1-.6 2.6.4v-.1-.6c0-.2-.1-.4-.2-.5s-.3-.2-.6-.3h-.5c-.2.1-.3.1-.5.3-.1.1-.3.3-.4.5l-.3.7v.2c0 .2-.1.4-.1.6s.1.4.2.5c.1.2.2.3.4.4s.3.2.5.2c.3 0 .5 0 .7-.1s.4-.2.6-.4l.4.4c-.1.1-.3.3-.5.4s-.4.2-.6.2c0 .4-.3.4-.6.4zm5.7-.5v-.3c0-.1-.1-.2-.2-.3s-.3-.2-.6-.3c-.2-.1-.5-.2-.6-.3-.2-.1-.3-.2-.5-.3-.1-.1-.2-.3-.2-.4v-.5c0-.2.1-.3.2-.5l.4-.4c.2-.1.4-.2.6-.2h.7c.4.1.7.2.9.3.2.2.4.4.5.6s.1.5 0 .7l-.8-.1v-.4c0-.1-.1-.2-.3-.3-.1-.1-.3-.2-.5-.2h-.6c-.1 0-.3.1-.3.2-.1.1-.1.2-.2.3v.2c0 .1.1.1.1.2.1.1.2.1.3.2s.3.1.5.2c.4.1.6.3.9.4.2.1.4.3.4.5.1.2.1.4 0 .6 0 .2-.1.4-.3.5-.1.2-.3.3-.5.4s-.4.2-.6.2h-.7a3 3 0 0 1-1-.4c-.2-.2-.4-.4-.5-.6s-.1-.5-.1-.7l.8.1c0 .2 0 .4.1.5s.2.2.4.3a.9.9 0 0 0 .5.1h.6c.2 0 .3-.1.4-.2.1.1.1 0 .2-.1zm4.5-2.8l-.1.6-2.5-.3.1-.6 2.5.3zm-1.4-1.3l.8.1-1 4.5v.4c0 .1.1.1.2.2.1 0 .1.1.2.1h.2.2l-.1.6h-.3-.4c-.2 0-.4-.1-.5-.2s-.2-.2-.3-.4 0-.4 0-.7l1-4.6zm3.1 6.3c-.3 0-.6-.1-.8-.3-.2-.1-.4-.3-.6-.5-.1-.2-.2-.5-.3-.8 0-.3 0-.6.1-.9v-.2a3 3 0 0 1 .4-1c.2-.3.4-.5.6-.7s.5-.3.7-.4a1.1 1.1 0 0 1 .8 0c.3 0 .6.1.8.3a1.2 1.2 0 0 1 .5.5c.1.2.2.5.2.7 0 .3 0 .6-.1.9l-.1.3-3.4-.5.1-.6 2.6.4v-.1-.6c0-.2-.1-.4-.2-.5s-.3-.2-.6-.3h-.5c-.2.1-.3.1-.5.3-.1.1-.3.3-.4.5l-.3.7v.2c0 .2-.1.4-.1.6s.1.4.2.5c.1.2.2.3.4.4s.3.2.5.2c.3 0 .5 0 .7-.1s.4-.2.6-.4l.4.4c-.1.1-.3.3-.5.4s-.4.2-.6.2c0 .4-.3.4-.6.4zm5.8-.2l1.3-5.5.8.1-1.5 6.4-.7-.1.1-.9zm-2.8-1.8h0a3 3 0 0 1 .4-1c.2-.3.3-.5.5-.7s.4-.3.7-.4c.2-.1.5-.1.8-.1s.5.1.7.3c.2.1.3.3.5.5.1.2.2.4.2.7v.9l-.1.4c-.1.3-.2.6-.4.9-.1.3-.3.5-.5.6-.2.2-.4.3-.6.4s-.5.1-.8 0c-.3 0-.5-.1-.7-.3-.2-.1-.3-.3-.5-.6-.1-.2-.2-.5-.2-.8-.1-.1 0-.4 0-.8zm.8.1h0c-.1.3-.1.5-.1.7s0 .4.1.6.2.3.3.4.3.2.5.2c.3 0 .5 0 .7-.1s.4-.2.5-.4.3-.3.4-.5l.2-1v-.5c0-.2-.1-.3-.2-.4l-.3-.3c-.1-.1-.3-.1-.5-.2-.2 0-.4 0-.6.1s-.3.2-.5.3c-.1.1-.2.3-.3.5 0 .1-.1.3-.2.6zm7.9-1.2l-1 4.5-.8-.1 1-4.5.8.1zm-.6-1.3c0-.1.1-.2.2-.3s.2-.1.4-.1c.1 0 .3.1.3.2.1.1.1.2 0 .3 0 .1-.1.2-.2.3s-.2.1-.4.1-.3-.1-.3-.2v-.3zm2.4 2.5l-.8 3.5-.8-.1 1-4.5.7.1-.1 1zm-.5 1.1l-.3-.1.3-.8c.2-.3.3-.5.5-.6.2-.2.4-.3.7-.4s.5-.1.8-.1c.2 0 .4.1.6.2s.3.2.4.3.2.3.2.6c0 .2 0 .5-.1.8l-.7 3-.8-.1.7-3c.1-.2.1-.4 0-.6 0-.2-.1-.3-.2-.4s-.3-.1-.5-.2h-.6c-.2.1-.3.1-.5.3l-.4.4c0 .3 0 .5-.1.7zm8.8-.9l-.1.6-2.5-.3.1-.6 2.5.3zm-1.4-1.3l.8.1-1 4.5v.4c0 .1.1.1.2.2.1 0 .1.1.2.1h.2.2l-.1.6h-.3-.4c-.2 0-.4-.1-.5-.2s-.2-.2-.3-.4 0-.4 0-.7l1-4.6zm3.5-.3l-1.5 6.4-.8-.1 1.5-6.4.8.1zm-1.1 3.9l-.3-.1.3-.8c.2-.3.3-.5.5-.6.2-.2.4-.3.7-.4s.5-.1.8-.1c.2 0 .4.1.6.2s.3.2.4.3.2.3.2.5 0 .5-.1.8l-.7 3-.8-.1.7-3c.1-.2.1-.4 0-.6 0-.2-.1-.3-.2-.4s-.3-.1-.5-.2h-.6c-.2.1-.3.1-.5.3-.1.1-.3.3-.4.5 0 .3-.1.5-.1.7zm5.5 3.4c-.3 0-.6-.1-.8-.3-.2-.1-.4-.3-.6-.5-.1-.2-.2-.5-.3-.8 0-.3 0-.6.1-.9v-.2a3 3 0 0 1 .4-1c.2-.3.4-.5.6-.7s.5-.3.7-.4a1.1 1.1 0 0 1 .8 0c.3 0 .6.1.8.3a1.2 1.2 0 0 1 .5.5c.1.2.2.5.2.7 0 .3 0 .6-.1.9l-.1.3-3.4-.5.1-.6 2.6.4v-.1-.6c0-.2-.1-.4-.2-.5s-.3-.2-.6-.3h-.5c-.2.1-.3.1-.5.3-.1.1-.3.3-.4.5l-.3.7v.2c0 .2-.1.4 0 .6 0 .2.1.4.2.5.1.2.2.3.4.4.1.1.3.2.5.2.3 0 .5 0 .7-.1s.4-.2.6-.4l.4.4c-.1.1-.3.3-.5.4s-.4.2-.6.2c-.1.4-.4.4-.7.4zm9.9-5l.8.1-.9 4.1c-.1.5-.3.8-.6 1.1s-.6.5-1 .6-.8.1-1.2.1c-.4-.1-.8-.2-1.1-.4s-.5-.5-.6-.8a2.4 2.4 0 0 1 0-1.2l.9-4.1.8.1-.9 4.1c-.1.3-.1.6 0 .8s.2.4.4.5.4.2.7.3h.8c.2-.1.4-.2.6-.4s.3-.4.4-.8l.9-4.1zm2.6.4l.9 2.5 2-2.1 1 .1-2.6 2.7 1.3 3.3-1-.1-1-2.6-2.1 2.2-1-.1 2.7-2.8-1.3-3.3 1.1.2zm7.5 1l-4.1 6.2-.7-.1 4.1-6.2.7.1zm4.5.7l.8.1-.9 4.1c-.1.5-.3.8-.6 1.1s-.6.5-1 .6-.8.1-1.2.1c-.4-.1-.8-.2-1.1-.4s-.5-.5-.6-.8a2.4 2.4 0 0 1 0-1.2l.9-4.1.8.1-.9 4.1c-.1.3-.1.6 0 .8s.2.4.4.5.4.2.7.3h.8c.2-.1.4-.2.6-.4s.3-.4.4-.8l.9-4.1zm3 .4l-1.4 6.1-.8-.1 1.4-6.1.8.1zm-179.8-9l-1.3-.2.2-.7 1.3.2c.4.1.8 0 1.2-.1.3-.1.6-.4.8-.7a3.7 3.7 0 0 0 .5-1.1l.1-.4c.1-.3.1-.7.1-.9 0-.3-.1-.5-.2-.7a1.2 1.2 0 0 0-.5-.5c-.2-.1-.5-.2-.8-.3l-1.4-.2.2-.7 1.4.2c.4.1.8.2 1.1.4s.5.4.7.7a3 3 0 0 1 .4 1c0 .4 0 .8-.1 1.2l-.1.4c-.1.4-.3.8-.5 1.2-.2.3-.5.6-.8.8s-.6.4-1 .4c-.4.1-.8.1-1.3 0zm.6-6.2l-1.4 6.1-.8-.1 1.4-6.1.8.1zm5.2 7.1c-.3 0-.6-.1-.8-.3-.2-.1-.4-.3-.6-.5-.1-.2-.2-.5-.3-.8 0-.3 0-.6.1-.9v-.2a3 3 0 0 1 .4-1c.2-.3.4-.5.6-.7s.5-.3.7-.4a1.1 1.1 0 0 1 .8 0c.3 0 .6.1.8.3a1.2 1.2 0 0 1 .5.5c.1.2.2.5.2.7 0 .3 0 .6-.1.9l-.1.3-3.4-.5.1-.6 2.6.4v-.1-.6c0-.2-.1-.4-.2-.5s-.3-.2-.6-.3h-.5c-.2.1-.3.1-.5.3-.1.1-.3.3-.4.5l-.3.7v.2c-.1.2-.1.4-.1.6s.1.4.2.5c.1.2.2.3.4.4s.3.2.5.2c.3 0 .5 0 .7-.1s.4-.2.6-.4l.4.4c-.1.1-.3.3-.5.4s-.4.2-.6.2c0 .4-.3.4-.6.4zm5.7-.5v-.3c0-.1-.1-.2-.2-.3s-.3-.2-.6-.3c-.2-.1-.5-.2-.6-.3-.2-.1-.3-.2-.5-.3-.1-.1-.2-.3-.2-.4v-.5c0-.2.1-.3.2-.5l.4-.4c.2-.1.4-.2.6-.2h.7c.4.1.7.2.9.3.2.2.4.4.5.6s.1.5 0 .7l-.8-.1v-.4c0-.1-.1-.2-.3-.3-.1-.1-.3-.2-.5-.2h-.6c-.1 0-.3.1-.3.2-.1.1-.1.2-.2.3v.2c0 .1.1.1.1.2.1.1.2.1.3.2s.3.1.5.2c.4.1.6.3.9.4.2.2.4.3.4.5s.1.4 0 .6c0 .2-.1.4-.3.5-.1.2-.3.3-.5.4s-.4.2-.6.2h-.7a3 3 0 0 1-1-.4c-.2-.2-.4-.4-.5-.6s-.1-.5-.1-.7l.8.1c0 .2 0 .4.1.5s.2.2.4.3a.9.9 0 0 0 .5.1h.6c.2 0 .3-.1.4-.2.1.1.2 0 .2-.1zm3.4-3l-1 4.5-.8-.1 1-4.5.8.1zm-.6-1.3c0-.1.1-.2.2-.3s.2-.1.4-.1c.1 0 .3.1.3.2.1.1.1.2 0 .3 0 .1-.1.2-.2.3s-.2.1-.4.1-.3-.1-.3-.2v-.3zm4.8 1.9l.7.1-1 4.4c-.1.4-.3.7-.5 1s-.5.4-.8.5-.7.1-1.1.1c-.2 0-.3-.1-.5-.2l-.6-.3c-.2-.1-.3-.3-.4-.5l.5-.4c.1.3.3.4.5.6.2.1.4.2.6.2h.7c.2-.1.4-.2.5-.3l.3-.6.8-3.5.3-1.1zm-3.7 1.9h0a3 3 0 0 1 .4-1c.2-.3.3-.5.5-.7s.4-.3.7-.4c.2-.1.5-.1.8-.1s.5.1.7.3c.2.1.3.3.5.5.1.2.2.4.2.7v.9l-.1.4c-.1.3-.2.6-.4.9-.1.3-.3.5-.5.6-.2.2-.4.3-.6.4s-.5.1-.8 0c-.3 0-.5-.1-.7-.3-.2-.1-.3-.3-.5-.6-.1-.2-.2-.5-.2-.8-.1-.2 0-.5 0-.8zm.8 0h0c-.1.3-.1.5-.1.7s0 .4.1.6.2.3.3.4.3.2.5.2c.3 0 .5 0 .7-.1s.4-.2.5-.4.3-.3.4-.5l.2-1v-.5c0-.2-.1-.3-.2-.4l-.3-.3c-.1-.1-.3-.1-.5-.2-.2 0-.4 0-.6.1s-.3.2-.5.3c-.1.1-.2.3-.3.5 0 .2-.1.4-.2.6zm5.4-.5l-.8 3.5-.8-.1 1-4.5.7.1-.1 1zm-.5 1.1l-.3-.1.3-.8c.2-.3.3-.5.5-.6.2-.2.4-.3.7-.4s.5-.1.8-.1c.2 0 .4.1.6.2s.3.2.4.3.2.3.2.6c0 .2 0 .5-.1.8l-.7 3-.8-.1.7-3c.1-.2.1-.4 0-.6 0-.2-.1-.3-.2-.4s-.3-.1-.5-.2h-.6c-.2.1-.3.1-.5.3l-.4.4c.1.3 0 .5-.1.7zm5.6 3.3c-.3 0-.6-.1-.8-.3-.2-.1-.4-.3-.6-.5a6.9 6.9 0 0 1-.3-.8c0-.3 0-.6.1-.9v-.2a3 3 0 0 1 .4-1c.2-.3.4-.5.6-.7s.5-.3.7-.4a1.1 1.1 0 0 1 .8 0c.3 0 .6.1.8.3a1.2 1.2 0 0 1 .5.5c.1.2.2.5.2.7 0 .3 0 .6-.1.9l-.1.3-3.4-.5.1-.6 2.6.4v-.1-.6c0-.2-.1-.4-.2-.5s-.3-.2-.6-.3h-.5c-.2.1-.3.1-.5.3-.1.1-.3.3-.4.5l-.3.7v.2c0 .2-.1.4-.1.6s.1.4.2.5c.1.2.2.3.4.4s.3.2.5.2c.3 0 .5 0 .7-.1s.4-.2.6-.4l.4.4c-.1.1-.3.3-.5.4s-.4.2-.6.2c-.1.5-.3.5-.6.4zm4.3-3.4l-.9 3.8-.8-.1 1-4.5.8.1-.1.7zm1.6-.5l-.2.7c-.1 0-.1 0-.2-.1h-.2-.5c-.2 0-.3.1-.4.2l-.3.3c-.1.1-.2.3-.2.4l-.2.1c.1-.3.1-.5.3-.8.1-.2.2-.4.4-.6s.3-.3.5-.4.4-.1.7-.1h.2l.1.3zm3.5 1.4l-1.2 5.4-.8-.1 1.4-6.2.7.1-.1.8zm2.8 1.8h0l-.3 1c-.1.3-.3.5-.5.7s-.4.3-.7.4c-.2.1-.5.1-.8.1s-.5-.1-.7-.2a1.2 1.2 0 0 1-.5-.5c-.1-.2-.2-.4-.2-.7v-.9l.1-.5c.1-.3.2-.6.4-.9s.3-.5.5-.6c.2-.2.4-.3.7-.3.2-.1.5-.1.8 0 .3 0 .5.1.7.3.2.1.3.3.5.5.1.2.2.5.2.8-.1.1-.2.5-.2.8zm-.9 0h0c.1-.3.1-.5.1-.7s0-.4-.1-.6-.2-.3-.3-.4-.3-.2-.5-.2h-.5c-.2 0-.3.1-.4.2l-.3.3c-.1.1-.2.3-.2.4l-.2 1.1c0 .2 0 .4.1.6s.2.3.3.5c.1.1.3.2.6.2.2 0 .4 0 .6-.1s.3-.2.5-.3c.1-.1.3-.3.3-.5-.1-.1 0-.3 0-.5zm1.6.2h0a3 3 0 0 1 .4-1c.2-.3.4-.5.6-.7s.5-.3.8-.4.6-.1.9-.1.6.1.8.3.4.3.5.6c.1.2.2.5.3.8 0 .3 0 .6-.1.9v.1c-.1.3-.2.6-.4.9s-.4.5-.6.7-.5.3-.8.4-.6.1-.9 0c-.3 0-.6-.1-.8-.3s-.4-.3-.5-.6c-.1-.2-.2-.5-.2-.8-.1-.2-.1-.5 0-.8zm.8 0h0c-.1.3-.1.5-.1.7s0 .4.1.6.2.3.3.4.3.2.5.2h.6c.2-.1.3-.2.5-.3.1-.1.3-.3.4-.5s.2-.4.2-.6v-.1c.1-.2.1-.4.1-.6s0-.4-.1-.6-.2-.3-.3-.4-.3-.2-.5-.2-.4 0-.6.1-.3.2-.5.3c-.1.1-.3.3-.4.5 0 .1-.1.3-.2.5zm6.8 2.1v-.3c0-.1-.1-.2-.2-.3s-.3-.2-.6-.3c-.2-.1-.5-.2-.6-.3-.2-.1-.3-.2-.5-.3-.1-.1-.2-.3-.2-.4v-.5c0-.2.1-.3.2-.5l.4-.4c.2-.1.4-.2.6-.2h.7c.4.1.7.2.9.3.2.2.4.4.5.6s.1.5 0 .7l-.8-.1v-.4c0-.1-.1-.2-.3-.3-.1-.1-.3-.2-.5-.2h-.6c-.1 0-.3.1-.3.2-.1.1-.1.2-.2.3v.2c0 .1.1.1.1.2.1.1.2.1.3.2s.3.1.5.2c.4.1.6.3.9.4.2.2.4.3.4.5.1.2.1.4 0 .6 0 .2-.1.4-.3.5-.1.2-.3.3-.5.4s-.4.2-.6.2h-.7a3 3 0 0 1-1-.4c-.2-.2-.4-.4-.5-.6s-.1-.5-.1-.7l.8.1c0 .2 0 .4.1.5s.2.2.4.3a.9.9 0 0 0 .5.1h.6c.2 0 .3-.1.4-.2.1.1.2 0 .2-.1zm3.4-2.9l-1 4.5-.8-.1 1-4.5.8.1zm-.5-1.3c0-.1.1-.2.2-.3s.2-.1.4-.1c.1 0 .3.1.3.2.1.1.1.2.1.3s-.1.2-.2.3-.2.1-.4.1-.3-.1-.3-.2c-.2-.1-.2-.2-.1-.3zm3.7 1.7l-.1.6-2.5-.3.1-.6 2.5.3zm-1.4-1.3l.8.1-1 4.5v.4c0 .1.1.1.1.2.1 0 .1.1.2.1h.2.2l-.1.6h-.3-.4c-.2 0-.4-.1-.5-.2s-.2-.2-.3-.4 0-.4 0-.7l1.1-4.6zm3.2 1.6l-1 4.5-.8-.1 1-4.5.8.1zm-.6-1.3c0-.1.1-.2.2-.3s.2-.1.4-.1c.1 0 .3.1.3.2.1.1.1.2 0 .3 0 .1-.1.2-.2.3s-.2.1-.4.1-.3-.1-.3-.2v-.3zm1.1 3.7h0a3 3 0 0 1 .4-1c.2-.3.4-.5.6-.7s.5-.3.8-.4.6-.1.9-.1.6.1.8.3c.2.1.4.3.5.6.1.2.2.5.3.8 0 .3 0 .6-.1.9v.1c-.1.3-.2.6-.4.9s-.4.5-.6.7-.5.3-.8.4-.6.1-.9 0c-.3 0-.6-.1-.8-.3s-.4-.3-.5-.6c-.1-.2-.2-.5-.2-.8-.1-.2-.1-.5 0-.8zm.8 0h0c-.1.3-.1.5-.1.7s0 .4.1.6.2.3.3.4.3.2.5.2h.6c.2-.1.3-.2.5-.3.1-.1.3-.3.4-.5s.2-.4.2-.6v-.1c.1-.2.1-.4.1-.6s0-.4-.1-.6-.2-.3-.3-.4-.3-.2-.5-.2-.4 0-.6.1-.3.2-.5.3c-.1.1-.3.3-.4.5-.1.1-.2.3-.2.5zm5.4-.5l-.8 3.5-.8-.1 1-4.5.7.1-.1 1zm-.4 1.1l-.3-.1.3-.8c.2-.3.3-.5.5-.6.2-.2.4-.3.7-.4s.5-.1.8-.1c.2 0 .4.1.6.2s.3.2.4.3.2.3.2.5 0 .5-.1.8l-.7 3-.8-.1.7-3c.1-.2.1-.4 0-.6 0-.2-.1-.3-.2-.4s-.3-.1-.5-.2h-.6c-.2.1-.3.1-.5.3-.1.1-.3.3-.4.5 0 .3-.1.5-.1.7z" fill="#3b3b3b"/></svg>