<svg width="360" height="386" viewBox="0 0 360 386" fill="none" xmlns="http://www.w3.org/2000/svg">
<path d="M14.5657 386C1.48354 386 -2.78632 380.784 1.75608 370.351L135.303 65.205C140.935 52.4017 149.475 46 160.922 46H199.078C210.525 46 219.065 52.4017 224.697 65.205L358.244 370.351C362.786 380.784 358.516 386 345.434 386H302.1C290.108 386 281.75 380.547 277.026 369.64L249.226 305.861H110.774L82.9743 369.64C78.2502 380.547 69.8921 386 57.9002 386H14.5657ZM136.12 247.06H223.88L190.357 171.662C186.359 162.811 183.906 156.409 182.998 152.457C181.139 149 181.139 149 180 146C178.861 149 178.861 149 176.729 152.457C176.003 156.409 173.641 162.811 169.643 171.662L136.12 247.06Z" fill="#044AA0" style="fill:#044AA0;fill:color(display-p3 0.0157 0.2902 0.6275);fill-opacity:1;"/>
<path d="M50.4098 386C40.1621 386 36.8174 382.011 40.3756 374.033L144.987 140.686C149.399 130.895 156.089 126 165.055 126H194.945C203.911 126 210.601 130.895 215.013 140.686L319.624 374.033C323.183 382.011 319.838 386 309.59 386H275.645C266.251 386 259.704 381.83 256.004 373.49L234.227 324.717H125.773L103.997 373.49C100.296 381.83 93.7488 386 84.3552 386H50.4098ZM145.628 279.752H214.372L188.113 222.095C184.982 215.326 183.06 210.43 182.348 207.409C180.892 204.765 180.892 204.765 180 202.471C179.108 204.765 179.108 204.765 177.438 207.409C176.869 210.43 175.018 215.326 171.887 222.095L145.628 279.752Z" fill="#0668E1" style="fill:#0668E1;fill:color(display-p3 0.0235 0.4078 0.8824);fill-opacity:1;"/>
<path d="M80.7394 386C72.8901 386 70.3282 382.932 73.0537 376.795L153.182 197.297C156.561 189.766 161.685 186 168.553 186H191.447C198.315 186 203.439 189.766 206.818 197.297L286.946 376.795C289.672 382.932 287.11 386 279.261 386H253.26C246.065 386 241.05 382.792 238.215 376.377L221.536 338.859H138.464L121.785 376.377C118.95 382.792 113.935 386 106.74 386H80.7394ZM153.672 304.271H206.328L186.214 259.919C183.816 254.712 182.344 250.947 181.799 248.622C180.684 246.588 180.684 246.588 180 244.824C179.316 246.588 179.316 246.588 178.038 248.622C177.602 250.947 176.184 254.712 173.786 259.919L153.672 304.271Z" fill="#589AEB" style="fill:#589AEB;fill:color(display-p3 0.3451 0.6039 0.9216);fill-opacity:1;"/>
<g clip-path="url(#clip0_19554_69893)">
<path d="M161.678 219.033C151.915 209.27 151.915 193.441 161.678 183.678C171.441 173.915 187.27 173.915 197.033 183.678C206.796 193.441 206.796 209.27 197.033 219.033L179.355 236.711L161.678 219.033Z" fill="white" style="fill:white;fill-opacity:1;"/>
<circle cx="179" cy="201" r="21" fill="#CED8F2" style="fill:#CED8F2;fill:color(display-p3 0.8078 0.8471 0.9490);fill-opacity:1;"/>
<mask id="mask0_19554_69893" style="mask-type:alpha" maskUnits="userSpaceOnUse" x="158" y="180" width="42" height="42">
<path d="M179 222C190.598 222 200 212.598 200 201C200 189.402 190.598 180 179 180C167.402 180 158 189.402 158 201C158 212.598 167.402 222 179 222Z" fill="white" style="fill:white;fill-opacity:1;"/>
</mask>
<g mask="url(#mask0_19554_69893)">
<path d="M199.704 221.982C197.671 216.23 193.782 208.228 192.278 207.389L188.86 216.163C188.448 215.407 190.279 218.892 191.8 221.982H199.704Z" fill="#FFA98F" style="fill:#FFA98F;fill:color(display-p3 1.0000 0.6627 0.5608);fill-opacity:1;"/>
<path d="M168.59 221.984H188.002C188.212 220.993 188.447 220.103 188.649 219.372C188.649 219.364 188.649 219.364 188.649 219.355L188.657 219.339C188.8 218.843 188.935 218.415 189.044 218.071L192.295 207.365C190.127 205.081 182.215 203.125 182.215 203.125L180.661 202.965C178.317 202.722 176.461 202.722 173.68 203.511C170.95 204.283 167.447 205.383 165.944 206.744C162.189 210.161 167.792 217.273 167.792 217.273C167.901 217.844 168.355 219.297 168.59 221.984Z" fill="#0568E0" style="fill:#0568E0;fill:color(display-p3 0.0196 0.4078 0.8784);fill-opacity:1;"/>
<path d="M166.031 221.983C166.796 219.623 167.594 217.382 167.72 217.415L165.67 206.76C164.116 207.633 160.227 216.08 158.379 221.983H166.031Z" fill="#FFA98F" style="fill:#FFA98F;fill:color(display-p3 1.0000 0.6627 0.5608);fill-opacity:1;"/>
<path d="M166.35 221.981C166.467 221.528 166.585 221.116 166.669 220.848C166.677 220.848 166.677 220.848 166.686 220.856C166.61 221.234 166.602 221.612 166.627 221.99H189.97C190.172 221.108 190.416 220.327 190.508 219.941C190.525 219.941 190.525 219.941 190.516 219.941H190.525C190.642 220.268 190.945 221.141 191.281 221.998H198.992C199.068 221.973 199.135 221.948 199.202 221.922C199.824 221.712 200.143 221.074 199.908 220.503C197.766 215.222 193.801 208.143 193.12 207.329C191.239 205.112 185.14 203.811 184.838 203.727C183.956 203.5 183.074 203.29 182.175 203.105C181.537 204.491 180.126 206.598 179.311 208.446C177.874 206.506 175.825 204.34 175.262 203.105C174.372 203.29 173.481 203.492 172.599 203.727C172.297 203.802 166.198 205.104 164.317 207.329C163.334 208.479 160.839 212.938 158.949 218.303C158.823 218.698 158.563 219.899 158 221.981H166.35Z" fill="#3886E8" style="fill:#3886E8;fill:color(display-p3 0.2196 0.5255 0.9098);fill-opacity:1;"/>
<path d="M166.68 220.852C166.696 220.86 166.713 220.86 166.68 220.852V220.852Z" fill="#3886E8" style="fill:#3886E8;fill:color(display-p3 0.2196 0.5255 0.9098);fill-opacity:1;"/>
<path d="M175.722 221.981C176.184 215.566 177.864 208.488 177.889 208.387L177.746 208.354C177.721 208.454 176.032 215.549 175.57 221.981H175.722Z" fill="white" style="fill:white;fill-opacity:1;"/>
<path d="M178.554 221.981C178.108 217.413 178.512 208.362 178.52 208.253L178.369 208.244C178.352 208.689 177.957 217.455 178.402 221.973H178.554V221.981Z" fill="white" style="fill:white;fill-opacity:1;"/>
<path d="M178.328 208.799C181.534 208.799 184.132 207.152 184.132 205.121C184.132 203.09 181.534 201.443 178.328 201.443C175.122 201.443 172.523 203.09 172.523 205.121C172.523 207.152 175.122 208.799 178.328 208.799Z" fill="#3886E8" style="fill:#3886E8;fill:color(display-p3 0.2196 0.5255 0.9098);fill-opacity:1;"/>
<path d="M183.95 204.098C184.227 205.105 184.059 206.256 183.37 207.036C183.303 207.146 183.185 207.221 183.101 207.314C183 207.398 182.925 207.498 182.807 207.565C182.589 207.7 182.387 207.868 182.144 207.969C181.908 208.078 181.682 208.204 181.421 208.262L181.052 208.38L180.867 208.439L180.674 208.472L179.909 208.623C179.649 208.657 179.388 208.674 179.128 208.707L178.742 208.749C178.616 208.758 178.481 208.749 178.355 208.749L177.969 208.741C177.843 208.733 177.708 208.724 177.582 208.707C177.062 208.649 176.549 208.548 176.045 208.388C175.541 208.237 175.062 208.027 174.617 207.733C175.474 208.363 176.516 208.674 177.557 208.817C177.692 208.833 177.818 208.85 177.952 208.859L178.347 208.867C178.481 208.867 178.616 208.875 178.742 208.867L179.136 208.833C179.397 208.808 179.666 208.791 179.926 208.758L180.707 208.607L180.9 208.565L181.094 208.506L181.472 208.388C181.732 208.321 181.967 208.195 182.202 208.078C182.454 207.977 182.656 207.801 182.883 207.658C183 207.591 183.084 207.482 183.185 207.398C183.278 207.297 183.387 207.221 183.462 207.104C183.815 206.692 184.008 206.172 184.092 205.651C184.16 205.139 184.118 204.593 183.95 204.098Z" fill="#226CBC" style="fill:#226CBC;fill:color(display-p3 0.1333 0.4235 0.7373);fill-opacity:1;"/>
<path d="M173.039 203.637C172.821 203.847 172.653 204.099 172.519 204.376C172.384 204.653 172.309 204.955 172.309 205.266C172.309 205.425 172.342 205.576 172.376 205.727C172.435 205.87 172.485 206.021 172.586 206.139C172.67 206.273 172.787 206.374 172.888 206.483C173.006 206.584 173.132 206.66 173.258 206.743C173.039 206.534 172.821 206.332 172.678 206.08C172.527 205.837 172.443 205.551 172.451 205.266C172.443 204.98 172.519 204.695 172.619 204.418C172.72 204.149 172.863 203.889 173.039 203.637Z" fill="#226CBC" style="fill:#226CBC;fill:color(display-p3 0.1333 0.4235 0.7373);fill-opacity:1;"/>
<path d="M181.62 198.74L177.033 193.459L174.942 198.472L175.303 199.505L174.883 203.174C176.512 206.079 180.939 205.718 181.636 203.955L181.62 198.74Z" fill="#FFA98F" style="fill:#FFA98F;fill:color(display-p3 1.0000 0.6627 0.5608);fill-opacity:1;"/>
<path d="M183.555 190.535C184.789 192.441 185.285 196.824 183.479 199.973C182.706 201.316 178.674 201.249 177.414 200.149C176.314 199.192 174.491 193.499 175.919 191.853C177.33 190.199 182.244 187.764 183.555 190.535Z" fill="#FFA98F" style="fill:#FFA98F;fill:color(display-p3 1.0000 0.6627 0.5608);fill-opacity:1;"/>
<path d="M177.703 192.434C177.435 192.308 177.191 192.157 176.947 191.998C176.057 191.401 175.217 190.654 174.688 189.756C174.637 189.663 174.587 189.571 174.537 189.479C174.427 189.529 174.318 189.579 174.217 189.638C173.285 190.175 172.621 191.099 172.462 192.107C172.327 192.938 172.218 194.315 173.092 195.18C173.503 195.591 173.923 196.045 174.1 196.582L175.024 198.723C175.024 198.723 176.04 197.816 176.149 197.707C176.544 197.321 176.645 196.876 176.931 196.431C177.67 195.306 178.048 193.778 178.249 192.686C178.081 192.602 177.888 192.518 177.703 192.434Z" fill="#061728" style="fill:#061728;fill:color(display-p3 0.0235 0.0902 0.1569);fill-opacity:1;"/>
<path d="M177.66 195.812C177.383 195.476 177.03 195.107 176.602 195.124C176.383 195.132 176.19 195.258 176.056 195.417C175.367 196.232 175.526 197.601 176.484 198.188C176.887 198.432 177.4 198.507 177.66 198.046L177.761 196.056C177.786 195.98 177.719 195.888 177.66 195.812Z" fill="#FFA98F" style="fill:#FFA98F;fill:color(display-p3 1.0000 0.6627 0.5608);fill-opacity:1;"/>
<path d="M181.692 200.977C181.658 200.977 178.71 201.271 177.215 199.775L177.316 199.691C178.769 201.136 181.65 200.859 181.675 200.851L181.692 200.977Z" fill="#061728" style="fill:#061728;fill:color(display-p3 0.0235 0.0902 0.1569);fill-opacity:1;"/>
<path d="M181.43 196.988L181.422 196.862L181.867 196.829C182.043 196.812 182.203 196.728 182.304 196.585C182.405 196.451 182.43 196.275 182.371 196.123L181.741 194.335L181.867 194.293L182.497 196.081C182.564 196.275 182.531 196.484 182.413 196.652C182.287 196.82 182.094 196.93 181.875 196.946L181.43 196.988Z" fill="#061728" style="fill:#061728;fill:color(display-p3 0.0235 0.0902 0.1569);fill-opacity:1;"/>
<path d="M180.179 194.299C180.238 194.425 180.238 194.61 180.246 194.71C180.272 194.904 180.053 195.013 179.86 194.971C179.499 194.887 179.524 194.114 179.961 194.139C180.07 194.148 180.137 194.215 180.179 194.299Z" fill="#061728" style="fill:#061728;fill:color(display-p3 0.0235 0.0902 0.1569);fill-opacity:1;"/>
<path d="M183.449 194.232C183.508 194.358 183.508 194.543 183.516 194.644C183.541 194.837 183.323 194.946 183.13 194.904C182.768 194.82 182.794 194.048 183.23 194.073C183.348 194.081 183.407 194.14 183.449 194.232Z" fill="#061728" style="fill:#061728;fill:color(display-p3 0.0235 0.0902 0.1569);fill-opacity:1;"/>
<path d="M182.653 197.809L179.965 197.498C179.965 197.498 180.234 199.002 181.275 199.094C182.485 199.212 182.653 197.809 182.653 197.809Z" fill="white" style="fill:white;fill-opacity:1;"/>
<path d="M182.754 190.469L184.4 192.442C184.4 192.442 183.754 190.049 183.149 189.73C182.544 189.411 182.754 190.469 182.754 190.469Z" fill="#061728" style="fill:#061728;fill:color(display-p3 0.0235 0.0902 0.1569);fill-opacity:1;"/>
<path d="M177.272 198.353C176.6 198.445 176.037 197.891 176.012 197.857L176.113 197.773C176.121 197.782 176.81 198.462 177.507 198.151L177.566 198.261C177.465 198.311 177.364 198.345 177.272 198.353Z" fill="#061728" style="fill:#061728;fill:color(display-p3 0.0235 0.0902 0.1569);fill-opacity:1;"/>
<path d="M175.521 188.211C174.58 188.463 174.169 188.605 173.74 188.908C173.379 189.16 172.539 189.982 172.539 190.663C172.531 191.863 175.067 192.913 177.335 192.904C177.764 192.904 178.604 192.72 179.805 192.359C182.451 191.569 185.383 190.066 184.694 186.926C184.694 186.926 184.316 187.573 183.845 187.673C183.845 187.673 184.467 185.633 182.014 184.592C182.149 184.651 181.157 185.801 181.09 185.851C180.149 186.683 179.225 187.245 178.343 187.556C177.495 187.85 177.495 187.69 175.521 188.211Z" fill="#061728" style="fill:#061728;fill:color(display-p3 0.0235 0.0902 0.1569);fill-opacity:1;"/>
<path d="M178.859 193.361C178.918 193.218 179.036 193.101 179.17 193.008C179.305 192.916 179.464 192.857 179.632 192.832C179.968 192.773 180.338 192.882 180.539 193.126C180.371 193.126 180.229 193.118 180.086 193.126C179.951 193.126 179.817 193.143 179.691 193.16C179.431 193.21 179.179 193.286 178.859 193.361Z" fill="#061728" style="fill:#061728;fill:color(display-p3 0.0235 0.0902 0.1569);fill-opacity:1;"/>
<path d="M182.547 192.998C182.564 192.864 182.648 192.754 182.748 192.67C182.858 192.586 183 192.528 183.143 192.519C183.286 192.511 183.437 192.536 183.563 192.595C183.63 192.62 183.681 192.67 183.731 192.704C183.782 192.754 183.824 192.796 183.857 192.855C183.782 192.864 183.723 192.855 183.656 192.855C183.597 192.855 183.538 192.847 183.479 192.847C183.37 192.838 183.269 192.847 183.177 192.855C182.992 192.864 182.816 192.914 182.547 192.998Z" fill="#061728" style="fill:#061728;fill:color(display-p3 0.0235 0.0902 0.1569);fill-opacity:1;"/>
</g>
<mask id="mask1_19554_69893" style="mask-type:alpha" maskUnits="userSpaceOnUse" x="158" y="180" width="42" height="42">
<path d="M179 222C190.598 222 200 212.598 200 201C200 189.402 190.598 180 179 180C167.402 180 158 189.402 158 201C158 212.598 167.402 222 179 222Z" fill="white" style="fill:white;fill-opacity:1;"/>
</mask>
<g mask="url(#mask1_19554_69893)">
</g>
</g>
<path d="M161.973 183.973C171.573 174.372 187.138 174.372 196.738 183.973C206.339 193.573 206.339 209.138 196.738 218.738L179.355 236.121L161.973 218.738C152.372 209.138 152.372 193.573 161.973 183.973Z" stroke="#0668E1" style="stroke:#0668E1;stroke:color(display-p3 0.0235 0.4078 0.8824);stroke-opacity:1;" stroke-width="0.833333"/>
<rect x="215.4" y="182.4" width="79.2" height="39.2" rx="19.6" fill="white" style="fill:white;fill-opacity:1;"/>
<rect x="215.4" y="182.4" width="79.2" height="39.2" rx="19.6" stroke="#0668E1" style="stroke:#0668E1;stroke:color(display-p3 0.0235 0.4078 0.8824);stroke-opacity:1;" stroke-width="0.8"/>
<path d="M236.586 198.34C236.763 198.34 236.917 198.391 237.048 198.494C237.188 198.587 237.281 198.723 237.328 198.9L240.128 208H237.944L235.97 200.888C235.933 200.739 235.895 200.585 235.858 200.426C235.821 200.258 235.788 200.099 235.76 199.95H235.382C235.354 200.099 235.321 200.258 235.284 200.426C235.256 200.585 235.219 200.739 235.172 200.888L233.198 208H231.014L233.814 198.9C233.861 198.723 233.949 198.587 234.08 198.494C234.22 198.391 234.379 198.34 234.556 198.34H236.586ZM238.07 203.842V205.438H233.058V203.842H238.07ZM244.304 198.158C244.78 198.158 245.298 198.186 245.858 198.242C246.418 198.289 246.964 198.387 247.496 198.536L247.356 199.964C246.946 199.945 246.465 199.931 245.914 199.922C245.364 199.913 244.822 199.908 244.29 199.908C244.029 199.908 243.805 199.917 243.618 199.936C243.441 199.955 243.296 199.992 243.184 200.048C243.072 200.104 242.993 200.197 242.946 200.328C242.9 200.449 242.876 200.617 242.876 200.832C242.876 201.159 242.951 201.397 243.1 201.546C243.259 201.695 243.525 201.831 243.898 201.952L245.76 202.554C246.535 202.815 247.072 203.17 247.37 203.618C247.669 204.066 247.818 204.654 247.818 205.382C247.818 205.933 247.753 206.39 247.622 206.754C247.492 207.118 247.286 207.403 247.006 207.608C246.726 207.813 246.358 207.958 245.9 208.042C245.443 208.135 244.883 208.182 244.22 208.182C243.903 208.182 243.45 208.159 242.862 208.112C242.274 208.075 241.607 207.972 240.86 207.804L240.986 206.292C241.546 206.301 242.027 206.315 242.428 206.334C242.83 206.343 243.175 206.353 243.464 206.362C243.754 206.362 244.006 206.362 244.22 206.362C244.603 206.362 244.897 206.339 245.102 206.292C245.317 206.245 245.466 206.152 245.55 206.012C245.634 205.872 245.676 205.671 245.676 205.41C245.676 205.177 245.644 204.995 245.578 204.864C245.522 204.733 245.424 204.626 245.284 204.542C245.144 204.458 244.962 204.383 244.738 204.318L242.778 203.646C242.032 203.385 241.504 203.035 241.196 202.596C240.898 202.157 240.748 201.574 240.748 200.846C240.748 200.295 240.814 199.843 240.944 199.488C241.084 199.133 241.294 198.863 241.574 198.676C241.854 198.48 242.218 198.345 242.666 198.27C243.124 198.195 243.67 198.158 244.304 198.158ZM253.026 198.2C253.931 198.2 254.64 198.293 255.154 198.48C255.667 198.667 256.031 198.989 256.246 199.446C256.47 199.894 256.582 200.533 256.582 201.364C256.582 202.185 256.474 202.825 256.26 203.282C256.054 203.73 255.714 204.047 255.238 204.234C254.762 204.411 254.118 204.5 253.306 204.5C252.876 204.5 252.456 204.486 252.046 204.458C251.635 204.421 251.252 204.374 250.898 204.318C250.543 204.262 250.24 204.201 249.988 204.136C249.745 204.071 249.572 204.015 249.47 203.968L249.512 202.904C250.062 202.904 250.632 202.904 251.22 202.904C251.817 202.904 252.405 202.904 252.984 202.904C253.357 202.895 253.651 202.848 253.866 202.764C254.08 202.68 254.23 202.526 254.314 202.302C254.398 202.078 254.44 201.765 254.44 201.364C254.44 200.944 254.398 200.622 254.314 200.398C254.23 200.174 254.08 200.02 253.866 199.936C253.651 199.852 253.357 199.81 252.984 199.81C252.125 199.81 251.388 199.815 250.772 199.824C250.165 199.833 249.75 199.847 249.526 199.866L249.33 198.34C249.722 198.293 250.086 198.261 250.422 198.242C250.767 198.223 251.14 198.214 251.542 198.214C251.952 198.205 252.447 198.2 253.026 198.2ZM251.458 198.34V208H249.33V198.34H251.458ZM260.112 198.34V208H257.984V198.34H260.112ZM265.782 198.2C266.631 198.2 267.317 198.289 267.84 198.466C268.372 198.634 268.759 198.923 269.002 199.334C269.254 199.745 269.38 200.323 269.38 201.07C269.38 201.518 269.319 201.915 269.198 202.26C269.086 202.596 268.894 202.867 268.624 203.072C268.353 203.277 267.984 203.408 267.518 203.464V203.534C267.686 203.562 267.858 203.627 268.036 203.73C268.222 203.833 268.395 203.987 268.554 204.192C268.712 204.388 268.829 204.654 268.904 204.99L269.744 208H267.504L266.762 205.046C266.668 204.729 266.542 204.514 266.384 204.402C266.225 204.281 265.996 204.22 265.698 204.22C265.063 204.211 264.531 204.206 264.102 204.206C263.672 204.206 263.308 204.201 263.01 204.192C262.72 204.183 262.454 204.173 262.212 204.164L262.254 202.61H265.74C266.122 202.61 266.421 202.573 266.636 202.498C266.85 202.414 267.004 202.269 267.098 202.064C267.191 201.859 267.238 201.569 267.238 201.196C267.238 200.823 267.191 200.538 267.098 200.342C267.004 200.146 266.85 200.011 266.636 199.936C266.421 199.852 266.122 199.81 265.74 199.81C264.872 199.81 264.13 199.815 263.514 199.824C262.907 199.833 262.496 199.843 262.282 199.852L262.072 198.34C262.464 198.293 262.828 198.261 263.164 198.242C263.509 198.223 263.887 198.214 264.298 198.214C264.708 198.205 265.203 198.2 265.782 198.2ZM264.172 198.34V208H262.072V198.34H264.172ZM273.124 198.298C273.638 198.298 274.16 198.303 274.692 198.312C275.224 198.312 275.747 198.321 276.26 198.34C276.774 198.359 277.254 198.391 277.702 198.438L277.604 199.992H273.894C273.661 199.992 273.484 200.053 273.362 200.174C273.25 200.286 273.194 200.463 273.194 200.706V205.634C273.194 205.867 273.25 206.045 273.362 206.166C273.484 206.287 273.661 206.348 273.894 206.348H277.604L277.702 207.902C277.254 207.939 276.774 207.967 276.26 207.986C275.747 208.005 275.224 208.014 274.692 208.014C274.16 208.023 273.638 208.028 273.124 208.028C272.508 208.028 272.009 207.851 271.626 207.496C271.253 207.141 271.062 206.675 271.052 206.096V200.244C271.062 199.656 271.253 199.185 271.626 198.83C272.009 198.475 272.508 198.298 273.124 198.298ZM271.304 202.218H277.086V203.73H271.304V202.218Z" fill="#0668E1" style="fill:#0668E1;fill:color(display-p3 0.0235 0.4078 0.8824);fill-opacity:1;"/>
<g clip-path="url(#clip1_19554_69893)">
<path d="M162.678 53.0331C152.915 43.27 152.915 27.4409 162.678 17.6778C172.441 7.91469 188.27 7.91469 198.033 17.6778C207.796 27.4409 207.796 43.27 198.033 53.0331L180.355 70.7108L162.678 53.0331Z" fill="white" style="fill:white;fill-opacity:1;"/>
<circle cx="180" cy="35" r="21" fill="#CED8F2" style="fill:#CED8F2;fill:color(display-p3 0.8078 0.8471 0.9490);fill-opacity:1;"/>
<mask id="mask2_19554_69893" style="mask-type:alpha" maskUnits="userSpaceOnUse" x="159" y="14" width="42" height="42">
<path d="M180 56C191.598 56 201 46.598 201 35C201 23.402 191.598 14 180 14C168.402 14 159 23.402 159 35C159 46.598 168.402 56 180 56Z" fill="white" style="fill:white;fill-opacity:1;"/>
</mask>
<g mask="url(#mask2_19554_69893)">
</g>
<mask id="mask3_19554_69893" style="mask-type:alpha" maskUnits="userSpaceOnUse" x="159" y="14" width="42" height="42">
<circle cx="180" cy="35" r="21" fill="#CED8F2" style="fill:#CED8F2;fill:color(display-p3 0.8078 0.8471 0.9490);fill-opacity:1;"/>
<mask id="mask4_19554_69893" style="mask-type:alpha" maskUnits="userSpaceOnUse" x="159" y="14" width="42" height="42">
<path d="M180 56C191.598 56 201 46.598 201 35C201 23.402 191.598 14 180 14C168.402 14 159 23.402 159 35C159 46.598 168.402 56 180 56Z" fill="white" style="fill:white;fill-opacity:1;"/>
</mask>
<g mask="url(#mask4_19554_69893)">
</g>
</mask>
<g mask="url(#mask3_19554_69893)">
<path d="M184.452 26.0938C184.993 23.8685 184.208 22.8321 183.501 22.2803C183.165 21.4612 182.782 20.8709 182.391 20.6483C181.676 20.2423 180.82 20.1981 180.222 20.2334C180.376 20.0743 180.679 20.0163 180.679 20.0163C180.308 19.9611 179.479 20.3294 179.479 20.3294C174.315 18.3395 173.503 25.9435 173.612 27.7102C173.719 29.4765 173.705 31.5572 171.018 32.949C165.892 35.6048 172.722 45.6129 172.722 45.6129C172.591 44.1854 179.179 36.6516 182.615 34.3954C183.452 33.1637 183.749 30.9881 183.771 30.8168C183.627 32.5419 183.332 33.5095 183.068 34.0544C184.634 32.6129 184.866 29.1512 184.452 26.0938Z" fill="#1B1C17" style="fill:#1B1C17;fill:color(display-p3 0.1059 0.1098 0.0902);fill-opacity:1;"/>
<path d="M182.41 34.5079C182.427 34.5156 180.751 35.3861 179.49 35.0413C178.304 34.7178 177.528 33.1798 177.545 33.1764C178.047 33.0766 178.192 32.3863 178.181 29.4199L178.408 29.4647L182.227 30.2207C182.227 30.2207 182.14 31.4224 182.137 32.5544C182.135 33.505 182.192 34.4065 182.41 34.5079Z" fill="#FFB27D" style="fill:#FFB27D;fill:color(display-p3 1.0000 0.6980 0.4902);fill-opacity:1;"/>
<path d="M182.227 30.2209C182.227 30.2209 182.14 31.4226 182.137 32.5546C180 32.4944 178.871 30.5452 178.408 29.4648L182.227 30.2209Z" fill="#ED975D" style="fill:#ED975D;fill:color(display-p3 0.9294 0.5922 0.3647);fill-opacity:1;"/>
<path d="M197.764 98.1939C197.951 98.7808 197.53 99.3856 196.915 99.4145L195.423 99.4841L193.845 99.5324C193.45 99.5445 193.073 99.3723 192.823 99.0662C191.563 97.5207 187.685 92.3695 185.333 84.8852C185.267 84.6753 185.197 84.4629 185.123 84.2477C183.57 79.718 180.349 74.0323 178.652 68.8858C178.382 68.066 178.14 67.2945 177.922 66.5642C177.852 66.3302 177.784 66.1005 177.72 65.8743C176.469 61.5287 176.107 58.6755 175.773 55.627L188.028 55.7251C188.028 55.7251 190.608 75.778 197.764 98.1939Z" fill="#2A4E96" style="fill:#2A4E96;fill:color(display-p3 0.1647 0.3059 0.5882);fill-opacity:1;"/>
<path d="M186.31 48.6847C186.279 54.5164 187.165 57.0183 187.165 57.0183C187.165 57.0183 181.918 59.6843 175.682 57.7217C175.608 57.6987 170.518 56.537 170.518 56.537C170.622 56.3009 171.551 52.3708 171.652 52.1543C172.969 49.3268 173.969 48.087 174.125 47.2177C174.415 45.5949 174.421 43.9157 174.276 42.3319C173.896 38.1396 172.764 34.6593 172.764 34.6593C174.463 34.2727 176.055 33.5935 177.823 32.9302C178.23 33.4368 179.474 33.9667 180.552 33.9425C181.795 33.9152 182.197 33.3833 182.133 32.8027C183.457 33.5393 184.513 34.2352 184.513 34.2352C185.638 36.1894 187.92 38.0873 188.085 41.0852C188.126 41.8224 186.31 48.5214 186.31 48.6847Z" fill="white" style="fill:white;fill-opacity:1;"/>
<path d="M175.772 49.3338C175.236 50.0921 174.209 54.7003 171.654 55.2796C172.971 51.9952 173.971 50.5551 174.127 49.5453C174.416 47.6603 174.423 45.7097 174.278 43.8701C175.134 42.371 175.772 41.343 175.772 41.343C175.839 41.1005 177.131 37.1052 177.546 40.6765C177.959 44.2487 176.371 48.4856 175.772 49.3338Z" fill="#5F9AA8" style="fill:#5F9AA8;fill:color(display-p3 0.3725 0.6039 0.6588);fill-opacity:1;"/>
<path d="M182.941 31.292C182.941 31.292 177.886 31.3755 177.882 28.2264C177.879 25.0774 177.224 22.9674 180.452 22.781C183.679 22.5946 184.308 23.7955 184.565 24.8463C184.821 25.8972 184.256 31.1893 182.941 31.292Z" fill="#FFB27D" style="fill:#FFB27D;fill:color(display-p3 1.0000 0.6980 0.4902);fill-opacity:1;"/>
<path d="M182.754 22.7045C182.754 22.7045 181.37 26.3989 179.246 26.9452C177.121 27.4915 176.2 26.9223 176.2 26.9223C176.2 26.9223 177.829 25.628 178.167 23.3684C178.167 23.3684 181.71 20.9461 182.754 22.7045Z" fill="#1B1C17" style="fill:#1B1C17;fill:color(display-p3 0.1059 0.1098 0.0902);fill-opacity:1;"/>
<path d="M182.413 23.0048C182.413 23.0048 183.447 23.8296 183.699 24.6315C183.951 25.4334 184.064 27.0842 184.545 27.028C184.545 27.028 185.588 24.5169 184.416 23.0964C183.173 21.5901 182.413 23.0048 182.413 23.0048Z" fill="#1B1C17" style="fill:#1B1C17;fill:color(display-p3 0.1059 0.1098 0.0902);fill-opacity:1;"/>
<path d="M190.894 52.7324L193.281 60.0121L191.919 60.5582L187.971 54.1265L190.894 52.7324Z" fill="#FFB27D" style="fill:#FFB27D;fill:color(display-p3 1.0000 0.6980 0.4902);fill-opacity:1;"/>
<path d="M184.457 33.8047C184.457 33.8047 187.273 34.922 188.087 36.6637C188.902 38.4055 190.136 50.089 190.627 51.2888C191.119 52.4886 191.488 53.4386 191.488 53.4386C191.488 53.4386 190.069 54.6346 188.641 54.7227C187.214 54.8107 184.457 33.8047 184.457 33.8047Z" fill="#0374FF" style="fill:#0374FF;fill:color(display-p3 0.0106 0.4533 1.0000);fill-opacity:1;"/>
<path d="M182.133 32.8027C182.133 32.8027 185.058 40.0283 185.144 41.4907C185.23 42.953 185.488 65.4036 185.488 65.4036C185.488 65.4036 185.316 66.4359 187.295 66.0057C189.273 65.5755 189.789 65.1455 189.789 65.1455C189.789 65.1455 187.897 51.2967 188.413 46.4796C188.929 41.6626 184.456 33.8064 184.456 33.8064L182.133 32.8027Z" fill="#0374FF" style="fill:#0374FF;fill:color(display-p3 0.0106 0.4533 1.0000);fill-opacity:1;"/>
<path d="M177.577 64.9745C177.577 64.9745 176.831 67.6695 174.251 67.3254C171.67 66.9814 168.001 65.433 168.001 65.433C168.001 65.433 169.103 61.9485 170.474 57.3706C172.135 51.8285 174.19 44.6839 175.158 40.1775C175.43 38.9146 175.616 37.8601 175.684 37.1049L177.825 32.9512C177.825 32.9512 181.018 40.1156 181.19 41.9219C181.362 43.7282 177.577 64.9745 177.577 64.9745Z" fill="#0374FF" style="fill:#0374FF;fill:color(display-p3 0.0106 0.4533 1.0000);fill-opacity:1;"/>
<path d="M174.998 41.6509L177.824 32.9492C177.816 32.9527 174.255 34.0088 172.464 34.9139C172.464 34.9139 171.344 36.3573 170.652 39.6876C170.652 39.6876 169.92 47.6832 171.554 50.6078C171.554 50.6078 176.715 51.64 184.973 48.8014V46.909C184.973 46.909 175.941 47.3821 174.091 47.5971L174.998 41.6509Z" fill="#FFB27D" style="fill:#FFB27D;fill:color(display-p3 1.0000 0.6980 0.4902);fill-opacity:1;"/>
<path d="M177.463 45.7049C177.347 48.6296 176.659 54.3067 170.523 57.3457C170.507 57.3535 170.491 57.3621 170.475 57.369C172.135 51.8268 174.19 44.6822 175.158 40.1758C176.285 41.8599 177.525 44.0948 177.463 45.7049Z" fill="#0668E1" style="fill:#0668E1;fill:color(display-p3 0.0235 0.4078 0.8824);fill-opacity:1;"/>
<path d="M177.826 32.9492C177.826 32.9492 172.588 33.3183 171.327 36.1281C170.065 38.938 169.664 48.2854 171.269 51.0378C171.269 51.0378 173.48 51.6674 177.39 50.9363C177.438 50.9273 177.486 50.9181 177.534 50.9088C177.534 50.9088 178.782 47.8552 177.663 47.2531C177.663 47.2531 174.366 47.4251 174.71 46.3355C175.054 45.2461 177.826 32.9492 177.826 32.9492Z" fill="#0374FF" style="fill:#0374FF;fill:color(display-p3 0.0106 0.4533 1.0000);fill-opacity:1;"/>
<path d="M190.957 48.0799L190.803 48.5758L182.208 45.9021C182.208 45.9021 182.093 45.7715 182.15 45.5982C182.212 45.4066 182.362 45.4062 182.362 45.4062L190.957 48.0799Z" fill="#263238" style="fill:#263238;fill:color(display-p3 0.1490 0.1961 0.2196);fill-opacity:1;"/>
<path d="M191.578 48.5506L190.957 48.082L190.802 48.5778L191.578 48.5506Z" fill="#263238" style="fill:#263238;fill:color(display-p3 0.1490 0.1961 0.2196);fill-opacity:1;"/>
<path d="M184.971 46.9085C184.971 46.9085 186.921 45.7077 187.739 45.8924C188.557 46.0771 190.642 47.587 189.639 47.9139C188.636 48.2408 187.824 47.8978 187.439 48.1353C187.053 48.3727 186.768 48.8068 184.971 48.8008C183.174 48.7949 184.971 46.9085 184.971 46.9085Z" fill="#FFB27D" style="fill:#FFB27D;fill:color(display-p3 1.0000 0.6980 0.4902);fill-opacity:1;"/>
</g>
</g>
<path d="M162.973 17.9727C172.573 8.37227 188.138 8.37227 197.738 17.9727C207.339 27.573 207.339 43.1379 197.738 52.7383L180.355 70.1211L162.973 52.7383C153.372 43.1379 153.372 27.573 162.973 17.9727Z" stroke="#0668E1" style="stroke:#0668E1;stroke:color(display-p3 0.0235 0.4078 0.8824);stroke-opacity:1;" stroke-width="0.833333"/>
<rect x="216.4" y="16.4" width="88.2" height="39.2" rx="19.6" fill="white" style="fill:white;fill-opacity:1;"/>
<rect x="216.4" y="16.4" width="88.2" height="39.2" rx="19.6" stroke="#0668E1" style="stroke:#0668E1;stroke:color(display-p3 0.0235 0.4078 0.8824);stroke-opacity:1;" stroke-width="0.8"/>
<path d="M237.586 32.34C237.763 32.34 237.917 32.3913 238.048 32.494C238.188 32.5873 238.281 32.7227 238.328 32.9L241.128 42H238.944L236.97 34.888C236.933 34.7387 236.895 34.5847 236.858 34.426C236.821 34.258 236.788 34.0993 236.76 33.95H236.382C236.354 34.0993 236.321 34.258 236.284 34.426C236.256 34.5847 236.219 34.7387 236.172 34.888L234.198 42H232.014L234.814 32.9C234.861 32.7227 234.949 32.5873 235.08 32.494C235.22 32.3913 235.379 32.34 235.556 32.34H237.586ZM239.07 37.842V39.438H234.058V37.842H239.07ZM245.81 32.172C246.268 32.172 246.655 32.186 246.972 32.214C247.299 32.2327 247.598 32.2653 247.868 32.312C248.139 32.3587 248.419 32.4193 248.708 32.494L248.54 34.076C248.232 34.0573 247.948 34.0433 247.686 34.034C247.434 34.0247 247.159 34.0153 246.86 34.006C246.571 33.9967 246.221 33.992 245.81 33.992C245.334 33.992 244.961 34.09 244.69 34.286C244.429 34.4727 244.242 34.7947 244.13 35.252C244.018 35.7093 243.962 36.3487 243.962 37.17C243.962 37.982 244.018 38.6213 244.13 39.088C244.242 39.5453 244.429 39.8673 244.69 40.054C244.961 40.2407 245.334 40.334 245.81 40.334C246.454 40.334 246.996 40.3247 247.434 40.306C247.873 40.2873 248.307 40.2547 248.736 40.208L248.918 41.776C248.47 41.916 248.013 42.014 247.546 42.07C247.08 42.1353 246.501 42.168 245.81 42.168C244.812 42.168 244.014 42.0093 243.416 41.692C242.819 41.3653 242.385 40.838 242.114 40.11C241.853 39.382 241.722 38.402 241.722 37.17C241.722 35.938 241.853 34.958 242.114 34.23C242.385 33.502 242.819 32.9793 243.416 32.662C244.014 32.3353 244.812 32.172 245.81 32.172ZM252.417 32.34V42H250.275V32.34H252.417ZM256.015 36.05V37.646H252.305V36.05H256.015ZM257.989 32.34V42H255.861V32.34H257.989ZM262.083 32.34V42H259.955V32.34H262.083ZM266.031 32.298C266.544 32.298 267.067 32.3027 267.599 32.312C268.131 32.312 268.653 32.3213 269.167 32.34C269.68 32.3587 270.161 32.3913 270.609 32.438L270.511 33.992H266.801C266.567 33.992 266.39 34.0527 266.269 34.174C266.157 34.286 266.101 34.4633 266.101 34.706V39.634C266.101 39.8673 266.157 40.0447 266.269 40.166C266.39 40.2873 266.567 40.348 266.801 40.348H270.511L270.609 41.902C270.161 41.9393 269.68 41.9673 269.167 41.986C268.653 42.0047 268.131 42.014 267.599 42.014C267.067 42.0233 266.544 42.028 266.031 42.028C265.415 42.028 264.915 41.8507 264.533 41.496C264.159 41.1413 263.968 40.6747 263.959 40.096V34.244C263.968 33.656 264.159 33.1847 264.533 32.83C264.915 32.4753 265.415 32.298 266.031 32.298ZM264.211 36.218H269.993V37.73H264.211V36.218ZM280.004 32.34L277.372 41.412C277.326 41.58 277.232 41.72 277.092 41.832C276.962 41.944 276.803 42 276.616 42H274.656C274.47 42 274.306 41.944 274.166 41.832C274.036 41.72 273.947 41.58 273.9 41.412L271.268 32.34H273.466L275.23 39.312C275.268 39.4893 275.305 39.6713 275.342 39.858C275.389 40.0353 275.426 40.2127 275.454 40.39H275.818C275.846 40.2127 275.879 40.0307 275.916 39.844C275.963 39.6573 276.01 39.4753 276.056 39.298L277.806 32.34H280.004ZM283.079 32.298C283.593 32.298 284.115 32.3027 284.647 32.312C285.179 32.312 285.702 32.3213 286.215 32.34C286.729 32.3587 287.209 32.3913 287.657 32.438L287.559 33.992H283.849C283.616 33.992 283.439 34.0527 283.317 34.174C283.205 34.286 283.149 34.4633 283.149 34.706V39.634C283.149 39.8673 283.205 40.0447 283.317 40.166C283.439 40.2873 283.616 40.348 283.849 40.348H287.559L287.657 41.902C287.209 41.9393 286.729 41.9673 286.215 41.986C285.702 42.0047 285.179 42.014 284.647 42.014C284.115 42.0233 283.593 42.028 283.079 42.028C282.463 42.028 281.964 41.8507 281.581 41.496C281.208 41.1413 281.017 40.6747 281.007 40.096V34.244C281.017 33.656 281.208 33.1847 281.581 32.83C281.964 32.4753 282.463 32.298 283.079 32.298ZM281.259 36.218H287.041V37.73H281.259V36.218Z" fill="#0668E1" style="fill:#0668E1;fill:color(display-p3 0.0235 0.4078 0.8824);fill-opacity:1;"/>
<path d="M163.973 100.973C173.573 91.3723 189.138 91.3723 198.738 100.973C208.339 110.573 208.339 126.138 198.738 135.738L181.355 153.121L163.973 135.738C154.372 126.138 154.372 110.573 163.973 100.973Z" fill="white" style="fill:white;fill-opacity:1;"/>
<path d="M163.973 100.973C173.573 91.3723 189.138 91.3723 198.738 100.973C208.339 110.573 208.339 126.138 198.738 135.738L181.355 153.121L163.973 135.738C154.372 126.138 154.372 110.573 163.973 100.973Z" stroke="#0668E1" style="stroke:#0668E1;stroke:color(display-p3 0.0235 0.4078 0.8824);stroke-opacity:1;" stroke-width="0.833333"/>
<rect x="68.4" y="98.4" width="71.2" height="39.2" rx="19.6" fill="white" style="fill:white;fill-opacity:1;"/>
<rect x="68.4" y="98.4" width="71.2" height="39.2" rx="19.6" stroke="#0668E1" style="stroke:#0668E1;stroke:color(display-p3 0.0235 0.4078 0.8824);stroke-opacity:1;" stroke-width="0.8"/>
<path d="M85.586 114.34C85.7633 114.34 85.9173 114.391 86.048 114.494C86.188 114.587 86.2813 114.723 86.328 114.9L89.128 124H86.944L84.97 116.888C84.9327 116.739 84.8953 116.585 84.858 116.426C84.8207 116.258 84.788 116.099 84.76 115.95H84.382C84.354 116.099 84.3213 116.258 84.284 116.426C84.256 116.585 84.2187 116.739 84.172 116.888L82.198 124H80.014L82.814 114.9C82.8607 114.723 82.9493 114.587 83.08 114.494C83.22 114.391 83.3787 114.34 83.556 114.34H85.586ZM87.07 119.842V121.438H82.058V119.842H87.07ZM92.2265 114.34V121.564C92.2265 121.797 92.2918 121.975 92.4225 122.096C92.5532 122.217 92.7398 122.278 92.9825 122.278H96.3565L96.4545 123.888C95.7918 123.953 95.0965 123.991 94.3685 124C93.6498 124.019 92.9358 124.028 92.2265 124.028C91.5172 124.028 90.9852 123.841 90.6305 123.468C90.2758 123.095 90.0985 122.614 90.0985 122.026V114.34H92.2265ZM99.7603 114.34V124H97.6323V114.34H99.7603ZM105.696 114.144C106.116 114.144 106.499 114.158 106.844 114.186C107.19 114.205 107.516 114.242 107.824 114.298C108.142 114.345 108.45 114.41 108.748 114.494L108.58 116.048C108.254 116.029 107.936 116.015 107.628 116.006C107.32 115.997 107.012 115.992 106.704 115.992C106.396 115.983 106.074 115.978 105.738 115.978C105.337 115.978 105.001 116.02 104.73 116.104C104.469 116.188 104.259 116.347 104.1 116.58C103.942 116.813 103.825 117.14 103.75 117.56C103.685 117.98 103.652 118.526 103.652 119.198C103.652 120.001 103.704 120.631 103.806 121.088C103.909 121.545 104.082 121.872 104.324 122.068C104.567 122.255 104.894 122.348 105.304 122.348C105.584 122.348 105.841 122.32 106.074 122.264C106.308 122.208 106.522 122.133 106.718 122.04C106.924 121.937 107.106 121.839 107.264 121.746L107.502 122.754C107.362 122.95 107.152 123.16 106.872 123.384C106.602 123.608 106.27 123.799 105.878 123.958C105.486 124.107 105.038 124.182 104.534 124.182C103.806 124.182 103.209 124.009 102.742 123.664C102.276 123.319 101.935 122.777 101.72 122.04C101.506 121.303 101.398 120.341 101.398 119.156C101.398 117.896 101.534 116.902 101.804 116.174C102.084 115.446 102.537 114.928 103.162 114.62C103.797 114.303 104.642 114.144 105.696 114.144ZM109.084 118.428V124H107.516L107.222 122.53L107.026 122.138V118.428H109.084ZM118.96 114.34V123.23C118.96 123.743 118.704 124 118.19 124H117.014C116.781 124 116.604 123.949 116.482 123.846C116.37 123.734 116.258 123.571 116.146 123.356L113.472 118.274C113.36 118.059 113.248 117.826 113.136 117.574C113.034 117.313 112.945 117.061 112.87 116.818H112.716C112.744 117.061 112.768 117.313 112.786 117.574C112.805 117.835 112.814 118.087 112.814 118.33V124H110.798V115.11C110.798 114.597 111.055 114.34 111.568 114.34H112.73C112.954 114.34 113.122 114.396 113.234 114.508C113.356 114.611 113.472 114.765 113.584 114.97L116.174 119.898C116.296 120.113 116.417 120.351 116.538 120.612C116.66 120.873 116.772 121.144 116.874 121.424H117.042C117.024 121.144 117.005 120.873 116.986 120.612C116.968 120.341 116.958 120.075 116.958 119.814V114.34H118.96Z" fill="#0668E1" style="fill:#0668E1;fill:color(display-p3 0.0235 0.4078 0.8824);fill-opacity:1;"/>
<circle cx="181" cy="118" r="21" fill="#CED8F2" style="fill:#CED8F2;fill:color(display-p3 0.8078 0.8471 0.9490);fill-opacity:1;"/>
<mask id="mask5_19554_69893" style="mask-type:alpha" maskUnits="userSpaceOnUse" x="160" y="97" width="42" height="42">
<circle cx="181" cy="118" r="21" fill="#CED8F2" style="fill:#CED8F2;fill:color(display-p3 0.8078 0.8471 0.9490);fill-opacity:1;"/>
</mask>
<g mask="url(#mask5_19554_69893)">
<path d="M185.584 107.908C185.584 107.908 186.564 109.956 185.669 112.171L184.324 111.948L184.465 108.725L185.584 107.908Z" fill="#071A22" style="fill:#071A22;fill:color(display-p3 0.0275 0.1020 0.1333);fill-opacity:1;"/>
<path d="M192.173 123.067L189.374 133.111C189.278 133.436 189.162 133.837 189.041 134.303L189.035 134.32C189.032 134.323 189.032 134.328 189.032 134.331C188.566 136.122 187.987 138.852 187.815 141.883C187.699 143.951 188.08 152.26 188.08 152.26C188.08 152.26 183.843 153.842 177.504 153.441C177.504 153.441 170.684 153.283 171.241 149.102C172.713 138.035 171.272 133.475 171.08 132.362C171.08 132.362 170.156 126.988 169.492 122.485C171.41 121.77 179.608 119.016 179.608 119.016L183.854 119.332C183.857 119.335 190.309 120.925 192.173 123.067Z" fill="white" style="fill:white;fill-opacity:1;"/>
<path d="M181.741 104.528C181.741 104.528 185.662 104.966 185.376 111.486C185.3 113.258 185.34 114.478 184.76 115.487C183.582 117.541 181.102 117.967 180.577 117.908C180.068 117.852 177.837 117.278 177.283 115.849C176.554 113.961 176.113 112.843 176.235 109.656C176.238 109.656 176.664 103.903 181.741 104.528Z" fill="#FFA98F" style="fill:#FFA98F;fill:color(display-p3 1.0000 0.6627 0.5608);fill-opacity:1;"/>
<path d="M183.558 116.032C183.558 116.032 183.414 118.702 183.668 119.284C183.92 119.866 180.34 121.705 178.117 119.609C178.117 119.609 178.566 116.402 178.428 115.371C178.287 114.343 183.558 116.032 183.558 116.032Z" fill="#FFA98F" style="fill:#FFA98F;fill:color(display-p3 1.0000 0.6627 0.5608);fill-opacity:1;"/>
<path d="M177.691 119.665C177.691 119.665 178.802 121.6 180.909 121.781C182.245 121.897 183.403 120.202 183.946 119.371C183.946 119.371 180.951 118.088 177.691 119.665Z" fill="#FFA98F" style="fill:#FFA98F;fill:color(display-p3 1.0000 0.6627 0.5608);fill-opacity:1;"/>
<path d="M180.911 121.057L182.123 122.455C182.123 122.455 180.722 123.077 179.781 122.469L180.911 121.057Z" fill="#05387D" style="fill:#05387D;fill:color(display-p3 0.0196 0.2196 0.4902);fill-opacity:1;"/>
<path d="M183.95 119.371C183.95 119.371 182.736 128.454 182.902 136.289C183.069 144.123 188.987 158.354 188.987 158.354C188.987 158.354 191.575 155.853 192.699 154.435C192.699 154.435 188.674 142.815 188.747 140.719C188.821 138.622 193.292 122.795 193.292 122.795C193.292 122.795 190.804 121.174 183.95 119.371Z" fill="#0745B4" style="fill:#0745B4;fill:color(display-p3 0.0275 0.2706 0.7059);fill-opacity:1;"/>
<path d="M177.419 119.752C177.419 119.752 177.43 128.454 177.261 136.288C177.094 144.122 176.063 158.709 176.063 158.709C176.063 158.709 170.272 157.791 169.145 156.375C169.145 156.375 171.489 142.814 171.416 140.718C171.342 138.622 167.645 123.202 167.645 123.202C167.645 123.202 169.797 121.786 177.419 119.752Z" fill="#0745B4" style="fill:#0745B4;fill:color(display-p3 0.0275 0.2706 0.7059);fill-opacity:1;"/>
<path d="M180.46 122.15C180.46 122.15 179.033 127.021 178.909 136.695C178.785 146.368 179.084 149.143 179.084 149.143L180.197 151.346L181.68 149.047C181.68 149.047 181.206 126.787 181.48 122.32L180.46 122.15Z" fill="#05387D" style="fill:#05387D;fill:color(display-p3 0.0196 0.2196 0.4902);fill-opacity:1;"/>
<path d="M187.094 152.971C187.094 152.971 188.749 154.432 191.071 155.212C191.071 155.212 198.902 142.591 198.998 141.684C199.088 140.848 195.046 123.874 193.283 122.795L190.08 132.175C190.292 132.113 193.181 139.379 193.196 140.303C193.215 141.543 187.094 152.971 187.094 152.971Z" fill="#0745B4" style="fill:#0745B4;fill:color(display-p3 0.0275 0.2706 0.7059);fill-opacity:1;"/>
<path d="M167.232 159.72C167.232 159.72 165.503 160.042 163 159.901C163 159.901 163.503 143.749 163.404 142.845C163.314 142.009 165.881 124.28 167.644 123.201L170.788 132.677C170.576 132.615 169 142.416 168.986 143.339C168.969 144.583 167.232 159.72 167.232 159.72Z" fill="#0745B4" style="fill:#0745B4;fill:color(display-p3 0.0275 0.2706 0.7059);fill-opacity:1;"/>
<path d="M176.833 142.939L175.602 133.573L176.723 132.228L175.266 132.115L176.946 120.676" stroke="#0A1726" style="stroke:#0A1726;stroke:color(display-p3 0.0392 0.0902 0.1490);stroke-opacity:1;" stroke-width="0.168047" stroke-miterlimit="10"/>
<path d="M184.012 142.266L184.911 133.572L183.789 132.957L184.854 132.171L184.182 120" stroke="#0A1726" style="stroke:#0A1726;stroke:color(display-p3 0.0392 0.0902 0.1490);stroke-opacity:1;" stroke-width="0.168047" stroke-miterlimit="10"/>
<path d="M178.2 119.018C178.2 119.018 179.28 120.368 180.912 121.057L179.045 123.442L176.652 119.927L178.2 119.018Z" fill="#6AA8E5" style="fill:#6AA8E5;fill:color(display-p3 0.4157 0.6588 0.8980);fill-opacity:1;"/>
<path d="M183.563 118.758C183.563 118.758 182.715 119.868 180.91 121.055L182.679 123.086L185.119 119.628L183.563 118.758Z" fill="#6AA8E5" style="fill:#6AA8E5;fill:color(display-p3 0.4157 0.6588 0.8980);fill-opacity:1;"/>
<path d="M177.325 108.109C177.452 108.063 177.571 108.001 177.698 107.967C178.073 107.866 178.469 107.764 178.845 107.849C179.164 107.919 179.458 108.12 179.785 108.089C180.184 108.052 180.486 107.679 180.624 107.298C180.74 106.979 180.862 106.563 181.192 106.529C181.641 106.484 181.774 107.205 182.203 107.337C182.348 107.383 182.503 107.351 182.653 107.34C182.986 107.315 183.339 107.363 183.627 107.538C183.862 107.679 184.017 107.925 184.082 108.193C184.175 108.58 184.356 108.764 184.723 108.979C185.353 109.346 185.986 109.032 186.43 108.487C186.455 108.456 186.48 108.422 186.503 108.388C186.915 107.792 186.865 106.902 186.348 106.416C186.113 106.196 186.045 106.162 185.814 105.939C185.325 105.467 185.266 104.687 184.865 104.136C184.119 103.111 182.692 103.574 181.63 103.385C181.119 103.294 180.619 103.164 180.105 103.08C179.308 102.95 178.469 102.95 177.703 103.235C176.407 103.715 175.969 104.648 175.593 105.987C175.215 107.326 173.367 108.445 176.164 112.298L176.924 112.217C176.927 112.217 176.164 108.53 177.325 108.109Z" fill="#071A22" style="fill:#071A22;fill:color(display-p3 0.0275 0.1020 0.1333);fill-opacity:1;"/>
<path d="M176.191 110.952C176.191 110.952 174.886 110.825 175.112 112.409C175.335 113.994 176.892 113.573 176.892 113.573L176.191 110.952Z" fill="#FFA98F" style="fill:#FFA98F;fill:color(display-p3 1.0000 0.6627 0.5608);fill-opacity:1;"/>
<path d="M185.474 110.28C185.474 110.28 186.779 110.153 186.553 111.738C186.33 113.323 184.773 112.902 184.773 112.902L185.474 110.28Z" fill="#FFA98F" style="fill:#FFA98F;fill:color(display-p3 1.0000 0.6627 0.5608);fill-opacity:1;"/>
<path d="M185.066 108.935C185.066 108.935 185.36 110.743 185.023 111.67L185.487 111.754C185.487 111.754 185.73 110.494 185.752 110.059C185.769 109.726 185.611 108.729 185.611 108.729L185.066 108.935Z" fill="#071A22" style="fill:#071A22;fill:color(display-p3 0.0275 0.1020 0.1333);fill-opacity:1;"/>
<path d="M178.023 109.015C178.729 108.831 179.472 108.809 180.175 108.944L180.209 108.772C179.483 108.631 178.712 108.656 177.98 108.843L178.023 109.015Z" fill="#1B1C17" style="fill:#1B1C17;fill:color(display-p3 0.1059 0.1098 0.0902);fill-opacity:1;"/>
<path d="M182.124 109.2C182.847 109.107 183.587 109.172 184.268 109.395L184.322 109.229C183.619 109 182.85 108.929 182.102 109.028L182.124 109.2Z" fill="#1B1C17" style="fill:#1B1C17;fill:color(display-p3 0.1059 0.1098 0.0902);fill-opacity:1;"/>
<path d="M179.766 114.446L182.528 114.438C182.528 114.438 182.514 115.635 181.085 115.585C180.687 115.57 179.864 115.243 179.766 114.446Z" fill="#E5F4F6" style="fill:#E5F4F6;fill:color(display-p3 0.8980 0.9569 0.9647);fill-opacity:1;"/>
<path d="M181.032 113.398C181.026 113.398 181.02 113.398 181.015 113.398C180.902 113.401 180.783 113.395 180.69 113.319C180.537 113.198 180.546 112.972 180.565 112.813C180.577 112.723 180.591 112.587 180.611 112.432C180.676 111.856 180.777 110.985 180.856 110.672L180.983 110.706C180.904 111.011 180.806 111.875 180.741 112.449C180.724 112.607 180.707 112.743 180.695 112.833C180.678 112.96 180.67 113.138 180.772 113.22C180.828 113.265 180.907 113.274 181.009 113.268C181.32 113.257 181.628 113.203 181.924 113.104L181.967 113.229C181.664 113.33 181.351 113.387 181.032 113.398Z" fill="#1B1C17" style="fill:#1B1C17;fill:color(display-p3 0.1059 0.1098 0.0902);fill-opacity:1;"/>
<path d="M179.415 111.216C179.429 111.456 179.294 111.662 179.113 111.679C178.932 111.696 178.777 111.515 178.763 111.275C178.749 111.035 178.884 110.829 179.065 110.812C179.246 110.795 179.401 110.976 179.415 111.216Z" fill="#1B1C17" style="fill:#1B1C17;fill:color(display-p3 0.1059 0.1098 0.0902);fill-opacity:1;"/>
<path d="M183.357 111.216C183.371 111.456 183.235 111.662 183.054 111.679C182.874 111.696 182.718 111.515 182.704 111.275C182.69 111.035 182.826 110.829 183.006 110.812C183.187 110.795 183.345 110.976 183.357 111.216Z" fill="#1B1C17" style="fill:#1B1C17;fill:color(display-p3 0.1059 0.1098 0.0902);fill-opacity:1;"/>
<path d="M179.114 113.003C179.806 113.003 180.368 112.325 180.368 111.489C180.368 110.653 179.806 109.975 179.114 109.975C178.421 109.975 177.859 110.653 177.859 111.489C177.859 112.325 178.421 113.003 179.114 113.003Z" stroke="#183862" style="stroke:#183862;stroke:color(display-p3 0.0941 0.2196 0.3843);stroke-opacity:1;" stroke-width="0.168047" stroke-miterlimit="10"/>
<path d="M183.063 112.966C183.756 112.966 184.317 112.288 184.317 111.452C184.317 110.615 183.756 109.938 183.063 109.938C182.37 109.938 181.809 110.615 181.809 111.452C181.809 112.288 182.37 112.966 183.063 112.966Z" stroke="#183862" style="stroke:#183862;stroke:color(display-p3 0.0941 0.2196 0.3843);stroke-opacity:1;" stroke-width="0.168047" stroke-miterlimit="10"/>
<path d="M180.391 111.172C180.447 111.172 181.775 111.152 181.775 111.152" stroke="#183862" style="stroke:#183862;stroke:color(display-p3 0.0941 0.2196 0.3843);stroke-opacity:1;" stroke-width="0.168047" stroke-miterlimit="10"/>
<path d="M177.825 111.268L176.594 110.893" stroke="#183862" style="stroke:#183862;stroke:color(display-p3 0.0941 0.2196 0.3843);stroke-opacity:1;" stroke-width="0.168047" stroke-miterlimit="10"/>
<path d="M184.281 111.231L185.284 110.705" stroke="#183862" style="stroke:#183862;stroke:color(display-p3 0.0941 0.2196 0.3843);stroke-opacity:1;" stroke-width="0.168047" stroke-miterlimit="10"/>
<path d="M179.305 117.363C179.305 117.363 180.819 118.505 182.799 117.4" stroke="#1B1C17" style="stroke:#1B1C17;stroke:color(display-p3 0.1059 0.1098 0.0902);stroke-opacity:1;" stroke-width="0.168047" stroke-miterlimit="10"/>
</g>
<defs>
<clipPath id="clip0_19554_69893">
<path d="M161.678 219.033C151.915 209.27 151.915 193.441 161.678 183.678C171.441 173.915 187.27 173.915 197.033 183.678C206.796 193.441 206.796 209.27 197.033 219.033L179.355 236.711L161.678 219.033Z" fill="white" style="fill:white;fill-opacity:1;"/>
</clipPath>
<clipPath id="clip1_19554_69893">
<path d="M162.678 53.0331C152.915 43.27 152.915 27.4409 162.678 17.6778C172.441 7.91469 188.27 7.91469 198.033 17.6778C207.796 27.4409 207.796 43.27 198.033 53.0331L180.355 70.7108L162.678 53.0331Z" fill="white" style="fill:white;fill-opacity:1;"/>
</clipPath>
</defs>
</svg>
