<svg width="328" height="180" viewBox="0 0 328 180" fill="none" xmlns="http://www.w3.org/2000/svg">
<g clip-path="url(#clip0_19085_71551)">
<rect width="328" height="180" rx="16" fill="white" style="fill:white;fill-opacity:1;"/>
<g clip-path="url(#clip1_19085_71551)">
<rect x="175" width="176" height="180" fill="#C7D6FF" style="fill:#C7D6FF;fill:color(display-p3 0.7804 0.8392 1.0000);fill-opacity:1;"/>
<path d="M225.011 189.894H270.564L256.323 118.779H210.77L225.011 189.894Z" fill="#592C70" style="fill:#592C70;fill:color(display-p3 0.3490 0.1725 0.4392);fill-opacity:1;"/>
<path d="M222.518 189.894H255.706C259.533 189.894 262.402 186.387 261.65 182.628L249.84 123.657C249.272 120.82 246.785 118.779 243.897 118.779H210.708C206.882 118.779 204.013 122.287 204.765 126.045L216.575 185.016C217.143 187.853 219.63 189.894 222.518 189.894Z" fill="#42195B" style="fill:#42195B;fill:color(display-p3 0.2588 0.0980 0.3569);fill-opacity:1;"/>
<path d="M227.891 160.071V174.758C227.891 174.758 233.52 183.86 246.045 184.807C258.571 185.754 292.127 183.15 292.127 183.15V130.128L261.707 121.886L250.655 122.435L233.758 138.175L227.891 160.071Z" fill="#5188FF" style="fill:#5188FF;fill:color(display-p3 0.3183 0.5342 1.0000);fill-opacity:1;"/>
<path d="M244.195 159.124L254.574 176.166L277.594 187.686L257.833 191L238.367 183.74L230.105 169.854C230.105 169.854 230.411 155.415 244.195 159.124Z" fill="#FFA9A9" style="fill:#FFA9A9;fill:color(display-p3 1.0000 0.6627 0.6627);fill-opacity:1;"/>
<path d="M219.78 152.58L228.598 167.323L230.109 169.852C230.109 169.852 233.013 159.758 244.197 159.12L243.13 157.221L238.841 149.597L252.094 121.885L230.109 127.483C219.144 130.28 213.966 142.864 219.78 152.58Z" fill="#5188FF" style="fill:#5188FF;fill:color(display-p3 0.3183 0.5342 1.0000);fill-opacity:1;"/>
<path d="M228.598 167.322L230.109 169.852C230.109 169.852 233.013 159.758 244.197 159.12L243.13 157.221C243.13 157.221 231.15 157.939 228.598 167.322Z" fill="white" style="fill:white;fill-opacity:1;"/>
<path d="M244.198 158.514L235.297 142.105" stroke="#5A36A8" style="stroke:#5A36A8;stroke:color(display-p3 0.3529 0.2118 0.6588);stroke-opacity:1;" stroke-width="0.662987" stroke-miterlimit="10" stroke-linecap="round" stroke-linejoin="round"/>
<path d="M267.731 123.519C268.361 126.182 268.407 131.243 260.008 132.019C255.201 132.464 251.727 130.333 249.314 127.696C248.624 126.946 248.021 126.155 247.497 125.378C247.039 124.688 246.635 124.003 246.297 123.359" stroke="#5A36A8" style="stroke:#5A36A8;stroke:color(display-p3 0.3529 0.2118 0.6588);stroke-opacity:1;" stroke-width="0.662987" stroke-miterlimit="10" stroke-linecap="round" stroke-linejoin="round"/>
<path d="M241.879 95.3686C243.65 101.325 247.11 115.012 252.547 112.768C257.983 110.523 261.709 107.13 261.709 107.13L271.515 97.288C276.122 96.5177 278.741 89.5715 278.542 85.8653C278.343 82.1533 273.974 84.6437 273.974 84.6437C273.974 84.6437 275.393 80.2209 273.384 77.7369C271.442 75.3332 268.319 78.9126 263.121 79.4636C263.115 79.4636 263.115 79.4636 263.109 79.4636C262.936 79.4837 262.764 79.4966 262.591 79.5102C260.383 79.6564 257.977 79.6964 255.703 79.842C252.296 80.0677 249.166 80.5391 247.41 81.9605C244.479 84.3249 246.289 88.2691 246.289 88.2691C246.289 88.2691 240.102 89.4118 241.879 95.3686Z" fill="#211A35" style="fill:#211A35;fill:color(display-p3 0.1294 0.1020 0.2078);fill-opacity:1;"/>
<path d="M248.706 98.8817C248.706 98.8817 248.294 83.196 263.105 79.4639C262.933 79.4839 262.761 79.4968 262.588 79.5104C260.38 79.6566 259.515 79.612 257.24 79.7581C254.27 80.8536 246.047 84.9828 246.047 99.3001L248.706 98.8817Z" fill="#592C70" style="fill:#592C70;fill:color(display-p3 0.3490 0.1725 0.4392);fill-opacity:1;"/>
<path d="M267.195 100.754V107.84C267.195 109.261 268.21 110.45 269.562 110.708C269.741 110.741 269.927 110.761 270.112 110.761H272.903C274.514 110.761 275.82 109.453 275.82 107.84V100.754C275.82 99.1403 274.514 97.832 272.903 97.832H270.112C269.926 97.832 269.741 97.8521 269.562 97.8851C268.21 98.1444 267.195 99.333 267.195 100.754Z" fill="#592C70" style="fill:#592C70;fill:color(display-p3 0.3490 0.1725 0.4392);fill-opacity:1;"/>
<path d="M267.195 100.754V107.839C267.195 109.26 268.21 110.449 269.562 110.708C270.908 110.449 271.923 109.26 271.923 107.839V100.754C271.923 99.3327 270.908 98.1434 269.562 97.8848C268.21 98.1441 267.195 99.3327 267.195 100.754Z" fill="#5951CC" style="fill:#5951CC;fill:color(display-p3 0.3490 0.3176 0.8000);fill-opacity:1;"/>
<path d="M250.066 123.498C250.186 124.567 255.112 130.006 259.911 129.495C264.718 128.984 265.076 125.471 265.076 125.471L265.135 123.259L265.268 118.092L255.522 111.73L249.754 107.958C250.537 110.715 249.947 122.436 250.066 123.498Z" fill="#FFA9A9" style="fill:#FFA9A9;fill:color(display-p3 1.0000 0.6627 0.6627);fill-opacity:1;"/>
<path d="M252.544 112.768C252.889 116.261 256.873 122.743 265.134 123.261L265.267 118.094L255.521 111.732C253.664 111.586 252.451 111.838 252.544 112.768Z" fill="#F28181" style="fill:#F28181;fill:color(display-p3 0.9490 0.5059 0.5059);fill-opacity:1;"/>
<path d="M249.356 109.473C251.305 113.438 257.537 119.74 263.391 119.388C269.238 119.029 271.956 114.799 272.666 110.542C273.376 106.279 272.341 101.869 272.547 100.328C272.745 98.8338 273.421 95.7924 272.447 93.3421C272.421 93.2754 272.394 93.2095 272.368 93.1429C272.368 93.1429 267.024 96.1578 257.629 92.3125C255.203 96.7489 250.894 95.0953 250.894 95.0953L250.025 97.6788L248.646 101.783C248.646 101.783 247.407 105.508 249.356 109.473Z" fill="#FFA9A9" style="fill:#FFA9A9;fill:color(display-p3 1.0000 0.6627 0.6627);fill-opacity:1;"/>
<path d="M250.027 97.6788L251.307 96.5962C251.307 96.5962 257.234 97.1472 258.633 93.8335C260.986 96.842 268.79 97.7978 272.449 93.3421C272.423 93.2754 272.396 93.2095 272.37 93.1429C272.37 93.1429 267.026 96.1578 257.631 92.3125C255.205 96.7489 250.896 95.0953 250.896 95.0953L250.027 97.6788Z" fill="#F28181" style="fill:#F28181;fill:color(display-p3 0.9490 0.5059 0.5059);fill-opacity:1;"/>
<path d="M264.6 103.893L266.065 107.745C266.3 108.363 265.991 109.055 265.374 109.291L264.324 109.692" stroke="#F25369" style="stroke:#F25369;stroke:color(display-p3 0.9490 0.3255 0.4118);stroke-opacity:1;" stroke-width="0.662987" stroke-miterlimit="10" stroke-linecap="round" stroke-linejoin="round"/>
<path d="M259.958 112.074C259.825 113.071 260.505 113.984 261.476 114.114C262.447 114.244 263.342 113.541 263.475 112.545L259.958 112.074Z" fill="white" style="fill:white;fill-opacity:1;"/>
<path d="M257.832 103.498C257.832 103.939 258.189 104.297 258.629 104.297C259.069 104.297 259.426 103.939 259.426 103.498C259.426 103.058 259.069 102.7 258.629 102.7C258.189 102.7 257.832 103.058 257.832 103.498Z" fill="black" style="fill:black;fill-opacity:1;"/>
<path d="M268.23 103.498C268.23 103.939 268.587 104.297 269.027 104.297C269.467 104.297 269.824 103.939 269.824 103.498C269.824 103.058 269.467 102.7 269.027 102.7C268.587 102.7 268.23 103.058 268.23 103.498Z" fill="black" style="fill:black;fill-opacity:1;"/>
<path d="M260.61 100.804C260.61 100.804 258.572 99.5045 255.973 100.804" stroke="#211A35" style="stroke:#211A35;stroke:color(display-p3 0.1294 0.1020 0.2078);stroke-opacity:1;" stroke-width="0.662987" stroke-miterlimit="10" stroke-linecap="round"/>
<path d="M271.044 100.804C271.044 100.804 269.006 99.5045 266.406 100.804" stroke="#211A35" style="stroke:#211A35;stroke:color(display-p3 0.1294 0.1020 0.2078);stroke-opacity:1;" stroke-width="0.662987" stroke-miterlimit="10" stroke-linecap="round"/>
<path d="M242.68 100.754V107.84C242.68 109.261 243.694 110.45 245.047 110.708C245.225 110.741 245.411 110.761 245.597 110.761H248.388C249.998 110.761 251.305 109.453 251.305 107.84V100.754C251.305 99.1403 249.998 97.832 248.388 97.832H245.597C245.411 97.832 245.225 97.8521 245.047 97.8851C243.694 98.1444 242.68 99.333 242.68 100.754Z" fill="#592C70" style="fill:#592C70;fill:color(display-p3 0.3490 0.1725 0.4392);fill-opacity:1;"/>
<path d="M242.68 100.754V107.839C242.68 109.26 243.694 110.449 245.047 110.708C246.393 110.449 247.407 109.26 247.407 107.839V100.754C247.407 99.3327 246.393 98.1434 245.047 97.8848C243.694 98.1441 242.68 99.3327 242.68 100.754Z" fill="#5951CC" style="fill:#5951CC;fill:color(display-p3 0.3490 0.3176 0.8000);fill-opacity:1;"/>
<path d="M249.082 108.47C250.224 110.561 255.108 112.075 255.108 112.075" stroke="#5951CC" style="stroke:#5951CC;stroke:color(display-p3 0.3490 0.3176 0.8000);stroke-opacity:1;" stroke-width="0.662987" stroke-miterlimit="10" stroke-linecap="round" stroke-linejoin="round"/>
<path d="M255.347 113.558C256.064 113.558 256.646 112.975 256.646 112.256C256.646 111.537 256.064 110.954 255.347 110.954C254.629 110.954 254.047 111.537 254.047 112.256C254.047 112.975 254.629 113.558 255.347 113.558Z" fill="#592C70" style="fill:#592C70;fill:color(display-p3 0.3490 0.1725 0.4392);fill-opacity:1;"/>
<path d="M266.545 173.968H324.845C326.196 173.968 327.493 172.871 327.741 171.518L336.702 122.793C336.951 121.441 336.058 120.344 334.707 120.344H276.407C275.057 120.344 273.76 121.441 273.51 122.793L264.549 171.518C264.301 172.871 265.194 173.968 266.545 173.968Z" fill="#8E9AEA" style="fill:#8E9AEA;fill:color(display-p3 0.5569 0.6039 0.9176);fill-opacity:1;"/>
<path d="M269.803 173.968H328.103C329.453 173.968 330.75 172.871 330.999 171.518L339.96 122.793C340.209 121.441 339.316 120.344 337.965 120.344H279.665C278.314 120.344 277.017 121.441 276.769 122.793L267.807 171.518C267.559 172.871 268.453 173.968 269.803 173.968Z" fill="#E1EBFF" style="fill:#E1EBFF;fill:color(display-p3 0.8824 0.9216 1.0000);fill-opacity:1;"/>
<path d="M278.381 171.391H290.043C290.607 171.391 291.065 170.933 291.065 170.367C291.065 169.802 290.607 169.344 290.043 169.344H278.381C277.817 169.344 277.359 169.802 277.359 170.367C277.359 170.933 277.817 171.391 278.381 171.391Z" fill="#211A35" style="fill:#211A35;fill:color(display-p3 0.1294 0.1020 0.2078);fill-opacity:1;"/>
<path d="M288.289 170.367C290.061 173.968 289.234 180.131 289.234 180.131" stroke="white" style="stroke:white;stroke-opacity:1;" stroke-width="0.662987" stroke-miterlimit="10" stroke-linecap="round" stroke-linejoin="round"/>
<path d="M284.469 170.367C286.241 173.968 285.414 180.131 285.414 180.131" stroke="#FF3381" style="stroke:#FF3381;stroke:color(display-p3 1.0000 0.2000 0.5059);stroke-opacity:1;" stroke-width="0.662987" stroke-miterlimit="10" stroke-linecap="round" stroke-linejoin="round"/>
<path d="M280.465 170.367C282.237 173.968 281.41 180.131 281.41 180.131" stroke="#33B6FF" style="stroke:#33B6FF;stroke:color(display-p3 0.2000 0.7137 1.0000);stroke-opacity:1;" stroke-width="0.662987" stroke-miterlimit="10" stroke-linecap="round" stroke-linejoin="round"/>
<path d="M305.042 68.8826L306.484 51.661L301.911 68.5405L297.008 50.1826L298.13 71.7824" stroke="#7491ED" style="stroke:#7491ED;stroke:color(display-p3 0.4549 0.5686 0.9294);stroke-opacity:1;" stroke-width="0.497257" stroke-miterlimit="10" stroke-linecap="round" stroke-linejoin="round"/>
<path d="M293.191 66.2188H310.442L307.76 76.2788H295.873L293.191 66.2188Z" fill="#8DB0FF" style="fill:#8DB0FF;fill:color(display-p3 0.5529 0.6902 1.0000);fill-opacity:1;"/>
<path d="M290.817 83.8531H334.416C335.976 83.8531 337.241 82.5862 337.241 81.0232V79.1083C337.241 77.5452 335.976 76.2783 334.416 76.2783H290.817C289.257 76.2783 287.992 77.5452 287.992 79.1083V81.0232C287.992 82.5862 289.257 83.8531 290.817 83.8531Z" stroke="#7491ED" style="stroke:#7491ED;stroke:color(display-p3 0.4549 0.5686 0.9294);stroke-opacity:1;" stroke-width="0.497257" stroke-miterlimit="10" stroke-linejoin="round"/>
<path d="M293.191 66.2188H310.442L307.76 76.2788H295.873L293.191 66.2188Z" stroke="#7491ED" style="stroke:#7491ED;stroke:color(display-p3 0.4549 0.5686 0.9294);stroke-opacity:1;" stroke-width="0.497257" stroke-miterlimit="10" stroke-linejoin="round"/>
<path d="M190.002 95.4248H232.695V40.0001L190.002 40.0001V95.4248Z" stroke="#7491ED" style="stroke:#7491ED;stroke:color(display-p3 0.4549 0.5686 0.9294);stroke-opacity:1;" stroke-width="0.497257" stroke-miterlimit="10" stroke-linejoin="round"/>
<path d="M196.145 89.5918H226.551V45.8309L196.145 45.8309V89.5918Z" stroke="#7491ED" style="stroke:#7491ED;stroke:color(display-p3 0.4549 0.5686 0.9294);stroke-opacity:1;" stroke-width="0.523533" stroke-miterlimit="10" stroke-linejoin="round"/>
<path d="M214.058 79.2087C220.405 77.7074 224.336 71.336 222.837 64.9779C221.338 58.6198 214.977 54.6826 208.63 56.1839C202.282 57.6853 198.352 64.0566 199.851 70.4147C201.349 76.7729 207.71 80.7101 214.058 79.2087Z" fill="#8DB0FF" style="fill:#8DB0FF;fill:color(display-p3 0.5529 0.6902 1.0000);fill-opacity:1;"/>
</g>
<g clip-path="url(#clip2_19085_71551)">
<rect x="-1" width="176" height="180" fill="#8DB0FF" style="fill:#8DB0FF;fill:color(display-p3 0.5529 0.6902 1.0000);fill-opacity:1;"/>
<path d="M129.423 189.949H96.2521C92.4275 189.949 89.5599 186.449 90.3117 182.699L102.115 123.858C102.683 121.028 105.169 118.991 108.056 118.991H141.226C145.051 118.991 147.918 122.491 147.166 126.242L135.363 185.083C134.796 187.913 132.31 189.949 129.423 189.949Z" fill="#42195B" style="fill:#42195B;fill:color(display-p3 0.2588 0.0980 0.3569);fill-opacity:1;"/>
<path d="M126.931 189.95H81.4023L95.6359 118.991H141.165L126.931 189.95Z" fill="#592C70" style="fill:#592C70;fill:color(display-p3 0.3490 0.1725 0.4392);fill-opacity:1;"/>
<path d="M124.051 160.19V174.845C124.051 174.845 118.425 183.927 105.905 184.872C93.3859 185.816 59.8477 183.219 59.8477 183.219V130.313L90.2518 122.089L101.298 122.637L118.185 138.343L124.051 160.19Z" fill="#0668E1" style="fill:#0668E1;fill:color(display-p3 0.0235 0.4078 0.8824);fill-opacity:1;"/>
<path d="M101.296 122.636V191.7H80.3242L86.2459 123.998L101.296 122.636Z" fill="white" style="fill:white;fill-opacity:1;"/>
<path d="M74.3711 187.745L94.1243 191.052L113.579 183.809L116.336 179.191L121.836 169.954C121.836 169.954 121.531 155.541 107.755 159.245L102.579 167.727L97.3843 176.248L74.3711 187.745Z" fill="#FFA9A9" style="fill:#FFA9A9;fill:color(display-p3 1.0000 0.6627 0.6627);fill-opacity:1;"/>
<path d="M132.156 152.716L123.343 167.426L121.832 169.951C121.832 169.951 118.93 159.879 107.751 159.243L108.818 157.347L113.105 149.74L99.8594 122.089L121.832 127.675C132.792 130.464 137.967 143.021 132.156 152.716Z" fill="#0668E1" style="fill:#0668E1;fill:color(display-p3 0.0235 0.4078 0.8824);fill-opacity:1;"/>
<path d="M102.578 167.728C110.298 169.563 115.095 177.044 116.334 179.191L121.834 169.954C121.834 169.954 121.529 155.541 107.753 159.245L102.578 167.728Z" fill="#3D94FF" style="fill:#3D94FF;fill:color(display-p3 0.2375 0.5787 1.0000);fill-opacity:1;"/>
<path d="M102.578 167.727L116.65 142.265" stroke="#5A36A8" style="stroke:#5A36A8;stroke:color(display-p3 0.3529 0.2118 0.6588);stroke-opacity:1;" stroke-width="0.662635" stroke-miterlimit="10" stroke-linecap="round" stroke-linejoin="round"/>
<path d="M124.316 165.801L116.332 179.191" stroke="#5A36A8" style="stroke:#5A36A8;stroke:color(display-p3 0.3529 0.2118 0.6588);stroke-opacity:1;" stroke-width="0.662635" stroke-miterlimit="10" stroke-linecap="round" stroke-linejoin="round"/>
<path d="M79.8628 124.183C87.5029 124.892 95.0571 121.586 100.371 122.004C105.685 122.415 109.409 126.84 113.306 121.944C117.202 117.041 113.246 110.017 110.648 105.823C108.051 101.628 110.059 93.7758 107.342 88.7001C104.936 84.2006 101.411 78.4757 92.1547 79.2048C90.9622 79.2978 89.6697 79.4965 88.2714 79.8211H88.2649C84.2558 79.4901 82.3413 83.2075 82.3413 83.2075C82.3413 83.2075 78.0541 81.6104 75.8143 88.4026C73.5681 95.1948 75.9866 104.286 73.8068 109.985C71.6194 115.682 72.2227 123.474 79.8628 124.183Z" fill="#211A35" style="fill:#211A35;fill:color(display-p3 0.1294 0.1020 0.2078);fill-opacity:1;"/>
<path d="M102.655 99.1945L105.313 99.612C105.313 85.3255 97.0892 81.2106 94.1209 80.1175C93.3653 79.7465 92.7161 79.4483 92.1528 79.2031C90.9603 79.296 89.6678 79.4948 88.2695 79.8194C103.066 83.5497 102.655 99.1945 102.655 99.1945Z" fill="#0668E1" style="fill:#0668E1;fill:color(display-p3 0.0235 0.4078 0.8824);fill-opacity:1;"/>
<path d="M84.171 101.066V108.136C84.171 109.554 83.1573 110.74 81.8055 110.999C81.6267 111.031 81.4409 111.051 81.2557 111.051H78.4661C76.8562 111.051 75.5508 109.746 75.5508 108.136V101.066C75.5508 99.4558 76.8562 98.1504 78.4661 98.1504H81.2557C81.4415 98.1504 81.6267 98.1704 81.8055 98.2033C83.1573 98.4614 84.171 99.6474 84.171 101.066Z" fill="#4699FF" style="fill:#4699FF;fill:color(display-p3 0.2745 0.6000 1.0000);fill-opacity:1;"/>
<path d="M84.17 101.066V108.136C84.17 109.554 83.1563 110.74 81.8044 110.998C80.459 110.74 79.4453 109.554 79.4453 108.136V101.066C79.4453 99.6473 80.459 98.4612 81.8044 98.2031C83.1563 98.4612 84.17 99.6473 84.17 101.066Z" fill="#5951CC" style="fill:#5951CC;fill:color(display-p3 0.3490 0.3176 0.8000);fill-opacity:1;"/>
<path d="M101.295 123.761C101.176 124.828 96.2524 130.255 91.4554 129.745C86.6513 129.234 86.2932 125.729 86.2932 125.729L86.2338 123.522L86.1016 118.367L95.842 112.019L101.607 108.255C100.825 111.005 101.415 122.701 101.295 123.761Z" fill="#FFA9A9" style="fill:#FFA9A9;fill:color(display-p3 1.0000 0.6627 0.6627);fill-opacity:1;"/>
<path d="M98.8174 113.052C98.4728 116.537 94.4902 123.005 86.2338 123.521L86.1016 118.366L95.842 112.018C97.6972 111.872 98.9103 112.124 98.8174 113.052Z" fill="#F28181" style="fill:#F28181;fill:color(display-p3 0.9490 0.5059 0.5059);fill-opacity:1;"/>
<path d="M79.0063 93.4708C78.9799 93.5372 78.9534 93.6031 78.927 93.6695C77.9532 96.1145 78.6288 99.1492 78.8276 100.64C79.0328 102.178 77.9991 106.578 78.7082 110.831C79.4174 115.079 82.134 119.3 87.9783 119.657C93.8296 120.008 100.058 113.72 102.006 109.764C103.954 105.808 102.715 102.091 102.715 102.091L101.337 97.9961L100.469 95.4182C92.8366 96.923 83.5465 90.3096 83.5465 90.3096C83.5465 90.3096 81.5513 92.8526 79.0063 93.4708Z" fill="#FFA9A9" style="fill:#FFA9A9;fill:color(display-p3 1.0000 0.6627 0.6627);fill-opacity:1;"/>
<path d="M86.7693 104.197L85.3052 108.041C85.0703 108.657 85.3794 109.348 85.9956 109.583L87.0449 109.984" stroke="#F25369" style="stroke:#F25369;stroke:color(display-p3 0.9490 0.3255 0.4118);stroke-opacity:1;" stroke-width="0.662635" stroke-miterlimit="10" stroke-linecap="round" stroke-linejoin="round"/>
<path d="M93.5313 103.803C93.5313 104.243 93.1745 104.6 92.7344 104.6C92.2943 104.6 91.9375 104.243 91.9375 103.803C91.9375 103.363 92.2943 103.006 92.7344 103.006C93.1745 103.006 93.5313 103.363 93.5313 103.803Z" fill="black" style="fill:black;fill-opacity:1;"/>
<path d="M83.1368 103.803C83.1368 104.243 82.78 104.6 82.3399 104.6C81.8998 104.6 81.543 104.243 81.543 103.803C81.543 103.363 81.8998 103.006 82.3399 103.006C82.78 103.006 83.1368 103.363 83.1368 103.803Z" fill="black" style="fill:black;fill-opacity:1;"/>
<path d="M108.679 101.066V108.136C108.679 109.554 107.665 110.74 106.313 110.999C106.135 111.031 105.949 111.051 105.763 111.051H102.974C101.364 111.051 100.059 109.746 100.059 108.136V101.066C100.059 99.4558 101.364 98.1504 102.974 98.1504H105.763C105.949 98.1504 106.135 98.1704 106.313 98.2033C107.665 98.4614 108.679 99.6474 108.679 101.066Z" fill="#0668E1" style="fill:#0668E1;fill:color(display-p3 0.0235 0.4078 0.8824);fill-opacity:1;"/>
<path d="M108.678 101.066V108.136C108.678 109.554 107.664 110.74 106.312 110.998C104.967 110.74 103.953 109.554 103.953 108.136V101.066C103.953 99.6473 104.967 98.4612 106.312 98.2031C107.664 98.4612 108.678 99.6473 108.678 101.066Z" fill="#4699FF" style="fill:#4699FF;fill:color(display-p3 0.2760 0.6000 1.0000);fill-opacity:1;"/>
<path d="M102.281 108.763C101.139 110.849 96.2578 112.36 96.2578 112.36L102.281 108.763Z" fill="#4699FF" style="fill:#4699FF;fill:color(display-p3 0.2760 0.6000 1.0000);fill-opacity:1;"/>
<path d="M102.281 108.763C101.139 110.849 96.2578 112.36 96.2578 112.36" stroke="#4699FF" style="stroke:#4699FF;stroke:color(display-p3 0.2745 0.6000 1.0000);stroke-opacity:1;" stroke-width="0.662635" stroke-miterlimit="10" stroke-linecap="round" stroke-linejoin="round"/>
<path d="M97.3166 112.543C97.3166 113.261 96.7352 113.842 96.0177 113.842C95.3001 113.842 94.7188 113.261 94.7188 112.543C94.7188 111.826 95.3001 111.244 96.0177 111.244C96.7352 111.244 97.3166 111.826 97.3166 112.543Z" fill="#0668E1" style="fill:#0668E1;fill:color(display-p3 0.0235 0.4078 0.8824);fill-opacity:1;"/>
<path d="M83.8877 100.233C83.8877 100.233 82.3281 98.8348 80.793 100.233" stroke="#211A35" style="stroke:#211A35;stroke:color(display-p3 0.1294 0.1020 0.2078);stroke-opacity:1;" stroke-width="0.662635" stroke-miterlimit="10" stroke-linecap="round"/>
<path d="M94.4151 100.233C94.4151 100.233 92.8554 98.8348 91.3203 100.233" stroke="#211A35" style="stroke:#211A35;stroke:color(display-p3 0.1294 0.1020 0.2078);stroke-opacity:1;" stroke-width="0.662635" stroke-miterlimit="10" stroke-linecap="round"/>
<path d="M90.548 112.886C90.548 112.886 89.029 114.185 87.1758 113.122" stroke="#F25369" style="stroke:#F25369;stroke:color(display-p3 0.9490 0.3255 0.4118);stroke-opacity:1;" stroke-width="0.662635" stroke-miterlimit="10" stroke-linecap="round" stroke-linejoin="round"/>
<path d="M85.4196 174.058H27.1511C25.8012 174.058 24.5048 172.963 24.2564 171.613L15.2993 122.995C15.0509 121.645 15.9433 120.551 17.2939 120.551H75.5624C76.9123 120.551 78.2087 121.645 78.4571 122.995L87.4136 171.613C87.6626 172.963 86.7696 174.058 85.4196 174.058Z" fill="#8E9AEA" style="fill:#8E9AEA;fill:color(display-p3 0.5569 0.6039 0.9176);fill-opacity:1;"/>
<path d="M82.1618 174.058H23.8933C22.5434 174.058 21.247 172.963 20.9986 171.613L12.0415 122.995C11.7931 121.645 12.6855 120.551 14.0354 120.551H72.3039C73.6539 120.551 74.9502 121.645 75.1993 122.995L84.1564 171.613C84.4048 172.963 83.5118 174.058 82.1618 174.058Z" fill="#E1EBFF" style="fill:#E1EBFF;fill:color(display-p3 0.8824 0.9216 1.0000);fill-opacity:1;"/>
<path d="M73.5873 171.485H61.9316C61.3677 171.485 60.9102 171.028 60.9102 170.464C60.9102 169.9 61.3677 169.442 61.9316 169.442H73.5873C74.1512 169.442 74.6087 169.9 74.6087 170.464C74.6087 171.028 74.1512 171.485 73.5873 171.485Z" fill="#211A35" style="fill:#211A35;fill:color(display-p3 0.1294 0.1020 0.2078);fill-opacity:1;"/>
<path d="M63.6842 170.464C61.9129 174.057 62.7395 180.206 62.7395 180.206" stroke="white" style="stroke:white;stroke-opacity:1;" stroke-width="0.662635" stroke-miterlimit="10" stroke-linecap="round" stroke-linejoin="round"/>
<path d="M67.5084 170.464C65.7371 174.057 66.5637 180.206 66.5637 180.206" stroke="#FF3381" style="stroke:#FF3381;stroke:color(display-p3 1.0000 0.2000 0.5059);stroke-opacity:1;" stroke-width="0.662635" stroke-miterlimit="10" stroke-linecap="round" stroke-linejoin="round"/>
<path d="M71.5084 170.464C69.7371 174.057 70.5637 180.206 70.5637 180.206" stroke="#33B6FF" style="stroke:#33B6FF;stroke:color(display-p3 0.2000 0.7137 1.0000);stroke-opacity:1;" stroke-width="0.662635" stroke-miterlimit="10" stroke-linecap="round" stroke-linejoin="round"/>
<path d="M70.1207 33H42.4609V68.8484H70.1207V33Z" stroke="#C7D6FF" style="stroke:#C7D6FF;stroke:color(display-p3 0.7804 0.8392 1.0000);stroke-opacity:1;" stroke-width="0.496992" stroke-miterlimit="10"/>
<path d="M66.1404 36.7725H46.4414V65.0769H66.1404V36.7725Z" fill="#8DB0FF" style="fill:#8DB0FF;fill:color(display-p3 0.5529 0.6902 1.0000);fill-opacity:1;"/>
<path d="M66.1404 36.7725H46.4414V65.0769H66.1404V36.7725Z" stroke="#C7D6FF" style="stroke:#C7D6FF;stroke:color(display-p3 0.7804 0.8392 1.0000);stroke-opacity:1;" stroke-width="0.496992" stroke-miterlimit="10"/>
<path d="M161.683 35.3779H119.012V90.6808H161.683V35.3779Z" stroke="#C7D6FF" style="stroke:#C7D6FF;stroke:color(display-p3 0.7804 0.8392 1.0000);stroke-opacity:1;" stroke-width="0.496992" stroke-miterlimit="10"/>
<path d="M155.542 41.1973H125.152V84.8619H155.542V41.1973Z" fill="#8DB0FF" style="fill:#8DB0FF;fill:color(display-p3 0.5529 0.6902 1.0000);fill-opacity:1;"/>
<path d="M155.542 41.1973H125.152V84.8619H155.542V41.1973Z" stroke="#C7D6FF" style="stroke:#C7D6FF;stroke:color(display-p3 0.7804 0.8392 1.0000);stroke-opacity:1;" stroke-width="0.496992" stroke-miterlimit="10"/>
</g>
<path d="M133.996 30.6761C134.196 30.2128 134.466 29.6992 134.799 29.1455" stroke="#0668E1" style="stroke:#0668E1;stroke:color(display-p3 0.0235 0.4078 0.8824);stroke-opacity:1;" stroke-width="0.703546" stroke-linecap="round" stroke-linejoin="round"/>
<path d="M139.781 23.0765C149.056 14.0194 167.45 4.48607 186.222 21.0542" stroke="#0668E1" style="stroke:#0668E1;stroke:color(display-p3 0.0235 0.4078 0.8824);stroke-opacity:1;" stroke-width="0.703546" stroke-linecap="round" stroke-linejoin="round" stroke-dasharray="3.69 8.11"/>
<path d="M189.051 23.752C189.44 24.1514 189.83 24.5624 190.22 24.9857" stroke="#C7D6FF" style="stroke:#C7D6FF;stroke:color(display-p3 0.7804 0.8392 1.0000);stroke-opacity:1;" stroke-width="0.703546" stroke-linecap="round" stroke-linejoin="round"/>
<path d="M191.424 153.316C191.223 153.78 190.954 154.293 190.621 154.847" stroke="#C7D6FF" style="stroke:#C7D6FF;stroke:color(display-p3 0.7804 0.8392 1.0000);stroke-opacity:1;" stroke-width="0.703546" stroke-linecap="round" stroke-linejoin="round"/>
<path d="M185.64 160.916C176.366 169.973 157.971 179.506 139.199 162.938" stroke="#0668E1" style="stroke:#0668E1;stroke:color(display-p3 0.0235 0.4078 0.8824);stroke-opacity:1;" stroke-width="0.703546" stroke-linecap="round" stroke-linejoin="round" stroke-dasharray="3.69 8.11"/>
<path d="M136.368 160.241C135.978 159.841 135.588 159.43 135.199 159.007" stroke="#0668E1" style="stroke:#0668E1;stroke:color(display-p3 0.0235 0.4078 0.8824);stroke-opacity:1;" stroke-width="0.703546" stroke-linecap="round" stroke-linejoin="round"/>
<path d="M170.048 94.6584C176.686 89.7275 178.343 79.9554 173.748 72.8317C169.154 65.7079 160.048 63.9302 153.41 68.861C146.772 73.7918 145.115 83.564 149.71 90.6877C154.305 97.8114 163.41 99.5892 170.048 94.6584Z" fill="#0668E1" style="fill:#0668E1;fill:color(display-p3 0.0235 0.4078 0.8824);fill-opacity:1;"/>
<path d="M162.817 86.5678C162.816 87.3841 162.198 88.0449 161.437 88.0429C160.676 88.041 160.061 87.3783 160.063 86.562C160.064 85.7457 160.682 85.085 161.442 85.0869C162.202 85.0882 162.818 85.7516 162.817 86.5678Z" fill="white" style="fill:white;fill-opacity:1;"/>
<path d="M161.465 81.585C160.277 81.5824 159.16 81.9237 158.199 82.5206L158.755 83.5621C159.561 83.0633 160.485 82.7807 161.464 82.7826C162.442 82.7845 163.374 83.071 164.169 83.5834L164.729 82.5342C163.769 81.9334 162.654 81.5876 161.465 81.585Z" fill="white" style="fill:white;fill-opacity:1;"/>
<path d="M161.468 77.875C159.658 77.8711 157.946 78.388 156.473 79.3075L157.02 80.3393C158.329 79.5276 159.848 79.0694 161.466 79.0727C163.076 79.0759 164.593 79.5405 165.9 80.3677L166.459 79.3288C164.988 78.4125 163.288 77.8789 161.468 77.875Z" fill="white" style="fill:white;fill-opacity:1;"/>
<path d="M161.474 73.9492C158.996 73.9441 156.654 74.6558 154.648 75.9083L155.205 76.9498C157.054 75.7954 159.195 75.1424 161.472 75.1469C163.749 75.1514 165.888 75.8135 167.734 76.9756L168.293 75.9367C166.293 74.6758 163.953 73.9544 161.474 73.9492Z" fill="white" style="fill:white;fill-opacity:1;"/>
<path d="M31 150.25H84.75V179.75H19.25V162C19.25 155.511 24.5107 150.25 31 150.25Z" fill="#E8F2FF" style="fill:#E8F2FF;fill:color(display-p3 0.9106 0.9506 1.0000);fill-opacity:1;"/>
<path d="M31 150.25H84.75V179.75H19.25V162C19.25 155.511 24.5107 150.25 31 150.25Z" stroke="#0668E1" style="stroke:#0668E1;stroke:color(display-p3 0.0235 0.4078 0.8824);stroke-opacity:1;" stroke-width="0.5"/>
<path d="M35.752 159.752C36.296 159.752 36.888 159.784 37.528 159.848C38.168 159.901 38.792 160.013 39.4 160.184L39.24 161.816C38.7707 161.795 38.2213 161.779 37.592 161.768C36.9627 161.757 36.344 161.752 35.736 161.752C35.4373 161.752 35.1813 161.763 34.968 161.784C34.7653 161.805 34.6 161.848 34.472 161.912C34.344 161.976 34.2533 162.083 34.2 162.232C34.1467 162.371 34.12 162.563 34.12 162.808C34.12 163.181 34.2053 163.453 34.376 163.624C34.5573 163.795 34.8613 163.949 35.288 164.088L37.416 164.776C38.3013 165.075 38.9147 165.48 39.256 165.992C39.5973 166.504 39.768 167.176 39.768 168.008C39.768 168.637 39.6933 169.16 39.544 169.576C39.3947 169.992 39.16 170.317 38.84 170.552C38.52 170.787 38.0987 170.952 37.576 171.048C37.0533 171.155 36.4133 171.208 35.656 171.208C35.2933 171.208 34.776 171.181 34.104 171.128C33.432 171.085 32.6693 170.968 31.816 170.776L31.96 169.048C32.6 169.059 33.1493 169.075 33.608 169.096C34.0667 169.107 34.4613 169.117 34.792 169.128C35.1227 169.128 35.4107 169.128 35.656 169.128C36.0933 169.128 36.4293 169.101 36.664 169.048C36.9093 168.995 37.08 168.888 37.176 168.728C37.272 168.568 37.32 168.339 37.32 168.04C37.32 167.773 37.2827 167.565 37.208 167.416C37.144 167.267 37.032 167.144 36.872 167.048C36.712 166.952 36.504 166.867 36.248 166.792L34.008 166.024C33.1547 165.725 32.552 165.325 32.2 164.824C31.8587 164.323 31.688 163.656 31.688 162.824C31.688 162.195 31.7627 161.677 31.912 161.272C32.072 160.867 32.312 160.557 32.632 160.344C32.952 160.12 33.368 159.965 33.88 159.88C34.4027 159.795 35.0267 159.752 35.752 159.752ZM45.079 162.888C46.4123 162.888 47.367 163.117 47.943 163.576C48.5297 164.024 48.823 164.696 48.823 165.592C48.8337 166.307 48.6523 166.845 48.279 167.208C47.9057 167.571 47.2603 167.752 46.343 167.752H41.927V166.424H45.703C46.055 166.424 46.279 166.349 46.375 166.2C46.4817 166.04 46.535 165.821 46.535 165.544C46.535 165.171 46.4283 164.915 46.215 164.776C46.0123 164.627 45.6603 164.552 45.159 164.552C44.7217 164.541 44.3803 164.6 44.135 164.728C43.8897 164.845 43.719 165.069 43.623 165.4C43.527 165.731 43.479 166.211 43.479 166.84C43.479 167.501 43.5377 168.013 43.655 168.376C43.7723 168.728 43.9697 168.973 44.247 169.112C44.535 169.251 44.9297 169.32 45.431 169.32C45.7937 169.32 46.2417 169.309 46.775 169.288C47.319 169.256 47.863 169.208 48.407 169.144L48.631 170.6C48.3217 170.749 47.9697 170.867 47.575 170.952C47.1803 171.037 46.775 171.096 46.359 171.128C45.943 171.171 45.543 171.192 45.159 171.192C44.1563 171.192 43.351 171.048 42.743 170.76C42.135 170.461 41.6923 170.008 41.415 169.4C41.1483 168.792 41.015 168.013 41.015 167.064C41.015 166.029 41.1483 165.208 41.415 164.6C41.6923 163.992 42.1297 163.555 42.727 163.288C43.3243 163.021 44.1083 162.888 45.079 162.888ZM54.5423 162.888C55.2036 162.888 55.7636 162.979 56.2223 163.16C56.6809 163.331 57.0276 163.629 57.2623 164.056C57.5076 164.472 57.6302 165.043 57.6302 165.768V171H55.7583L55.4223 169.288L55.2623 169.048V165.768C55.2516 165.384 55.1556 165.112 54.9743 164.952C54.8036 164.781 54.4783 164.696 53.9983 164.696C53.5823 164.696 53.0703 164.712 52.4623 164.744C51.8543 164.765 51.2303 164.797 50.5903 164.84L50.3823 163.272C50.7663 163.197 51.2036 163.133 51.6943 163.08C52.1956 163.027 52.6969 162.984 53.1983 162.952C53.6996 162.909 54.1476 162.888 54.5423 162.888ZM56.6543 166.136L56.6383 167.464H53.1183C52.8303 167.475 52.6223 167.549 52.4943 167.688C52.3769 167.827 52.3183 168.013 52.3183 168.248V168.632C52.3183 168.899 52.3929 169.107 52.5423 169.256C52.6916 169.395 52.9316 169.464 53.2623 169.464C53.5396 169.464 53.8383 169.405 54.1583 169.288C54.4889 169.171 54.8143 169.005 55.1343 168.792C55.4543 168.579 55.7423 168.328 55.9983 168.04V169.064C55.9023 169.224 55.7583 169.427 55.5663 169.672C55.3743 169.907 55.1343 170.141 54.8463 170.376C54.5583 170.6 54.2223 170.792 53.8383 170.952C53.4543 171.101 53.0169 171.176 52.5263 171.176C52.0569 171.176 51.6249 171.096 51.2303 170.936C50.8463 170.765 50.5423 170.515 50.3183 170.184C50.0943 169.853 49.9823 169.443 49.9823 168.952V168.136C49.9823 167.507 50.1956 167.016 50.6223 166.664C51.0489 166.312 51.6356 166.136 52.3823 166.136H56.6543ZM69.5073 162.888C70.2219 162.888 70.7659 163.075 71.1393 163.448C71.5126 163.821 71.6993 164.365 71.6993 165.08V171H69.3633V165.816C69.3526 165.485 69.2833 165.251 69.1553 165.112C69.0273 164.963 68.8033 164.888 68.4833 164.888C68.3019 164.888 68.1206 164.915 67.9392 164.968C67.7686 165.011 67.5713 165.091 67.3472 165.208C67.1233 165.325 66.8513 165.485 66.5312 165.688L66.4033 164.392C66.9153 163.891 67.4166 163.517 67.9073 163.272C68.4086 163.016 68.9419 162.888 69.5073 162.888ZM61.3793 163.096L61.6193 164.664L61.8593 164.872V171H59.5073V163.096H61.3793ZM64.5793 162.888C65.2833 162.888 65.8166 163.075 66.1793 163.448C66.5526 163.811 66.7393 164.355 66.7393 165.08V171H64.4673V165.816C64.4673 165.475 64.3926 165.235 64.2433 165.096C64.1046 164.957 63.8859 164.888 63.5873 164.888C63.4059 164.888 63.2246 164.915 63.0433 164.968C62.8726 165.011 62.6699 165.091 62.4353 165.208C62.2113 165.325 61.9339 165.485 61.6033 165.688L61.4593 164.392C61.9819 163.891 62.4886 163.517 62.9793 163.272C63.4699 163.016 64.0033 162.888 64.5793 162.888Z" fill="#0668E1" style="fill:#0668E1;fill:color(display-p3 0.0235 0.4078 0.8824);fill-opacity:1;"/>
<path d="M296 150.25C302.489 150.25 307.75 155.511 307.75 162V179.75H85.25V150.25H296Z" fill="#E8F2FF" style="fill:#E8F2FF;fill:color(display-p3 0.9106 0.9506 1.0000);fill-opacity:1;"/>
<path d="M296 150.25C302.489 150.25 307.75 155.511 307.75 162V179.75H85.25V150.25H296Z" stroke="#0668E1" style="stroke:#0668E1;stroke:color(display-p3 0.0235 0.4078 0.8824);stroke-opacity:1;" stroke-width="0.5"/>
<path d="M102.376 159.768C102.877 159.768 103.304 159.784 103.656 159.816C104.008 159.837 104.333 159.875 104.632 159.928C104.931 159.971 105.24 160.035 105.56 160.12L105.384 161.608C105.053 161.587 104.744 161.571 104.456 161.56C104.168 161.539 103.859 161.523 103.528 161.512C103.208 161.501 102.824 161.496 102.376 161.496C101.757 161.496 101.272 161.619 100.92 161.864C100.568 162.109 100.317 162.52 100.168 163.096C100.029 163.672 99.96 164.467 99.96 165.48C99.96 166.493 100.029 167.288 100.168 167.864C100.317 168.44 100.568 168.851 100.92 169.096C101.272 169.341 101.757 169.464 102.376 169.464C103.091 169.464 103.688 169.453 104.168 169.432C104.659 169.4 105.139 169.357 105.608 169.304L105.784 170.776C105.304 170.925 104.808 171.032 104.296 171.096C103.784 171.16 103.144 171.192 102.376 171.192C101.267 171.192 100.381 171.011 99.72 170.648C99.0587 170.275 98.5787 169.672 98.28 168.84C97.992 168.008 97.848 166.888 97.848 165.48C97.848 164.072 97.992 162.952 98.28 162.12C98.5787 161.288 99.0587 160.691 99.72 160.328C100.381 159.955 101.267 159.768 102.376 159.768ZM111.321 162.952C111.951 162.952 112.484 163.037 112.921 163.208C113.359 163.368 113.684 163.645 113.897 164.04C114.121 164.435 114.233 164.979 114.233 165.672V171H112.697L112.425 169.304L112.281 169.08V165.656C112.281 165.24 112.185 164.941 111.993 164.76C111.801 164.568 111.433 164.472 110.889 164.472C110.484 164.472 109.972 164.488 109.353 164.52C108.745 164.552 108.132 164.595 107.513 164.648L107.337 163.32C107.711 163.245 108.132 163.181 108.601 163.128C109.071 163.075 109.545 163.032 110.025 163C110.505 162.968 110.937 162.952 111.321 162.952ZM113.401 166.168L113.385 167.368H109.785C109.465 167.379 109.236 167.464 109.097 167.624C108.959 167.784 108.889 168.003 108.889 168.28V168.712C108.889 169.032 108.975 169.272 109.145 169.432C109.316 169.592 109.583 169.672 109.945 169.672C110.233 169.672 110.553 169.619 110.905 169.512C111.257 169.395 111.604 169.224 111.945 169C112.297 168.776 112.612 168.509 112.889 168.2V169.208C112.783 169.368 112.628 169.56 112.425 169.784C112.223 169.997 111.972 170.211 111.673 170.424C111.385 170.637 111.049 170.813 110.665 170.952C110.292 171.091 109.876 171.16 109.417 171.16C108.948 171.16 108.527 171.08 108.153 170.92C107.78 170.749 107.487 170.504 107.273 170.184C107.06 169.853 106.953 169.448 106.953 168.968V168.136C106.953 167.517 107.156 167.037 107.561 166.696C107.977 166.344 108.543 166.168 109.257 166.168H113.401ZM121.506 162.952C122.967 162.952 123.698 163.672 123.698 165.112V171H121.762V165.704C121.762 165.277 121.687 164.984 121.538 164.824C121.389 164.664 121.138 164.584 120.786 164.584C120.391 164.584 119.986 164.675 119.57 164.856C119.154 165.027 118.653 165.277 118.066 165.608L117.986 164.44C118.573 163.96 119.159 163.592 119.746 163.336C120.343 163.08 120.93 162.952 121.506 162.952ZM117.922 163.144L118.114 164.68L118.274 164.904V171H116.338V163.144H117.922ZM128.478 162.952C129.012 162.952 129.534 163.027 130.046 163.176C130.558 163.315 131.022 163.549 131.438 163.88L131.31 164.856C130.894 164.739 130.521 164.637 130.19 164.552C129.86 164.467 129.492 164.424 129.086 164.424C128.702 164.424 128.393 164.493 128.158 164.632C127.934 164.76 127.764 165.011 127.646 165.384C127.54 165.757 127.486 166.301 127.486 167.016C127.486 167.699 127.54 168.227 127.646 168.6C127.753 168.963 127.918 169.219 128.142 169.368C128.377 169.507 128.67 169.576 129.022 169.576C129.31 169.576 129.566 169.544 129.79 169.48C130.014 169.405 130.244 169.293 130.478 169.144C130.713 168.995 130.985 168.813 131.294 168.6L131.454 169.688C131.092 170.104 130.644 170.461 130.11 170.76C129.588 171.048 128.98 171.192 128.286 171.192C127.284 171.192 126.569 170.84 126.142 170.136C125.716 169.421 125.502 168.387 125.502 167.032C125.502 165.997 125.609 165.187 125.822 164.6C126.046 164.003 126.377 163.581 126.814 163.336C127.262 163.08 127.817 162.952 128.478 162.952ZM133.022 159.8V171H131.502L131.294 169.592L131.086 169.432V164.184L131.182 163.96C131.14 163.651 131.113 163.341 131.102 163.032C131.092 162.712 131.086 162.387 131.086 162.056V159.8H133.022ZM137.197 163.144V171H135.277V163.144H137.197ZM136.669 159.736C137.053 159.736 137.245 159.928 137.245 160.312V161.208C137.245 161.592 137.053 161.784 136.669 161.784H135.805C135.421 161.784 135.229 161.592 135.229 161.208V160.312C135.229 159.928 135.421 159.736 135.805 159.736H136.669ZM142.088 162.952C142.621 162.952 143.144 163.027 143.656 163.176C144.168 163.315 144.632 163.549 145.048 163.88L144.92 164.856C144.504 164.739 144.13 164.637 143.8 164.552C143.469 164.467 143.101 164.424 142.696 164.424C142.312 164.424 142.002 164.493 141.768 164.632C141.544 164.76 141.373 165.011 141.256 165.384C141.149 165.757 141.096 166.301 141.096 167.016C141.096 167.699 141.149 168.227 141.256 168.6C141.362 168.963 141.528 169.219 141.752 169.368C141.986 169.507 142.28 169.576 142.632 169.576C142.92 169.576 143.176 169.544 143.4 169.48C143.624 169.405 143.853 169.293 144.088 169.144C144.322 168.995 144.594 168.813 144.904 168.6L145.064 169.688C144.701 170.104 144.253 170.461 143.72 170.76C143.197 171.048 142.589 171.192 141.896 171.192C140.893 171.192 140.178 170.84 139.752 170.136C139.325 169.421 139.112 168.387 139.112 167.032C139.112 165.997 139.218 165.187 139.432 164.6C139.656 164.003 139.986 163.581 140.424 163.336C140.872 163.08 141.426 162.952 142.088 162.952ZM146.632 159.8V171H145.112L144.904 169.592L144.696 169.432V164.184L144.792 163.96C144.749 163.651 144.722 163.341 144.712 163.032C144.701 162.712 144.696 162.387 144.696 162.056V159.8H146.632ZM152.774 162.952C153.404 162.952 153.937 163.037 154.374 163.208C154.812 163.368 155.137 163.645 155.35 164.04C155.574 164.435 155.686 164.979 155.686 165.672V171H154.15L153.878 169.304L153.734 169.08V165.656C153.734 165.24 153.638 164.941 153.446 164.76C153.254 164.568 152.886 164.472 152.342 164.472C151.937 164.472 151.425 164.488 150.806 164.52C150.198 164.552 149.585 164.595 148.966 164.648L148.79 163.32C149.164 163.245 149.585 163.181 150.054 163.128C150.524 163.075 150.998 163.032 151.478 163C151.958 162.968 152.39 162.952 152.774 162.952ZM154.854 166.168L154.838 167.368H151.238C150.918 167.379 150.689 167.464 150.55 167.624C150.412 167.784 150.342 168.003 150.342 168.28V168.712C150.342 169.032 150.428 169.272 150.598 169.432C150.769 169.592 151.036 169.672 151.398 169.672C151.686 169.672 152.006 169.619 152.358 169.512C152.71 169.395 153.057 169.224 153.398 169C153.75 168.776 154.065 168.509 154.342 168.2V169.208C154.236 169.368 154.081 169.56 153.878 169.784C153.676 169.997 153.425 170.211 153.126 170.424C152.838 170.637 152.502 170.813 152.118 170.952C151.745 171.091 151.329 171.16 150.87 171.16C150.401 171.16 149.98 171.08 149.606 170.92C149.233 170.749 148.94 170.504 148.726 170.184C148.513 169.853 148.406 169.448 148.406 168.968V168.136C148.406 167.517 148.609 167.037 149.014 166.696C149.43 166.344 149.996 166.168 150.71 166.168H154.854ZM160.383 160.904V168.632C160.383 168.952 160.452 169.187 160.591 169.336C160.74 169.475 160.991 169.544 161.343 169.544H162.431L162.639 170.904C162.458 170.957 162.239 171.005 161.983 171.048C161.727 171.091 161.476 171.117 161.231 171.128C160.986 171.149 160.778 171.16 160.607 171.16C159.924 171.16 159.391 170.979 159.007 170.616C158.634 170.243 158.447 169.709 158.447 169.016V160.904H160.383ZM162.719 163.144V164.488H157.055V163.224L158.591 163.144H162.719ZM167.655 162.952C168.924 162.952 169.836 163.176 170.391 163.624C170.945 164.061 171.228 164.712 171.239 165.576C171.249 166.291 171.079 166.835 170.727 167.208C170.385 167.571 169.815 167.752 169.015 167.752H164.535V166.552H168.487C168.849 166.552 169.079 166.456 169.175 166.264C169.281 166.072 169.335 165.837 169.335 165.56C169.324 165.123 169.196 164.819 168.951 164.648C168.716 164.477 168.311 164.392 167.735 164.392C167.233 164.392 166.844 164.461 166.567 164.6C166.289 164.739 166.092 164.989 165.975 165.352C165.868 165.715 165.815 166.237 165.815 166.92C165.815 167.645 165.884 168.205 166.023 168.6C166.161 168.995 166.391 169.267 166.711 169.416C167.031 169.555 167.457 169.624 167.991 169.624C168.385 169.624 168.839 169.608 169.351 169.576C169.873 169.544 170.375 169.501 170.855 169.448L171.047 170.68C170.759 170.797 170.428 170.893 170.055 170.968C169.681 171.043 169.292 171.096 168.887 171.128C168.492 171.171 168.119 171.192 167.766 171.192C166.807 171.192 166.033 171.053 165.447 170.776C164.871 170.488 164.449 170.04 164.183 169.432C163.927 168.824 163.799 168.04 163.799 167.08C163.799 166.045 163.927 165.229 164.183 164.632C164.449 164.024 164.865 163.592 165.431 163.336C166.007 163.08 166.748 162.952 167.655 162.952Z" fill="#0668E1" style="fill:#0668E1;fill:color(display-p3 0.0235 0.4078 0.8824);fill-opacity:1;"/>
<path d="M200.001 165H209.723" stroke="#0668E1" style="stroke:#0668E1;stroke:color(display-p3 0.0235 0.4078 0.8824);stroke-opacity:1;" stroke-width="1.24993" stroke-linecap="round" stroke-linejoin="round"/>
<path d="M206.111 162L210 165L206.111 168" stroke="#0668E1" style="stroke:#0668E1;stroke:color(display-p3 0.0235 0.4078 0.8824);stroke-opacity:1;" stroke-width="1.24993" stroke-linecap="round" stroke-linejoin="round"/>
<path d="M195.999 165H186.277" stroke="#0668E1" style="stroke:#0668E1;stroke:color(display-p3 0.0235 0.4078 0.8824);stroke-opacity:1;" stroke-width="1.24993" stroke-linecap="round" stroke-linejoin="round"/>
<path d="M189.889 162L186 165L189.889 168" stroke="#0668E1" style="stroke:#0668E1;stroke:color(display-p3 0.0235 0.4078 0.8824);stroke-opacity:1;" stroke-width="1.24993" stroke-linecap="round" stroke-linejoin="round"/>
<path d="M227.408 159.928C227.963 159.928 228.528 159.928 229.104 159.928C229.691 159.928 230.267 159.939 230.832 159.96C231.397 159.981 231.931 160.013 232.432 160.056L232.336 161.544H228.016C227.717 161.544 227.493 161.619 227.344 161.768C227.205 161.917 227.136 162.152 227.136 162.472V168.488C227.136 168.808 227.205 169.043 227.344 169.192C227.493 169.341 227.717 169.416 228.016 169.416H232.336L232.432 170.904C231.931 170.947 231.397 170.979 230.832 171C230.267 171.011 229.691 171.016 229.104 171.016C228.528 171.027 227.963 171.032 227.408 171.032C226.725 171.032 226.176 170.845 225.76 170.472C225.355 170.088 225.147 169.576 225.136 168.936V162.024C225.147 161.384 225.355 160.877 225.76 160.504C226.176 160.12 226.725 159.928 227.408 159.928ZM225.424 164.488H231.728V165.96H225.424V164.488ZM244.005 162.952C244.698 162.952 245.226 163.139 245.589 163.512C245.962 163.875 246.149 164.408 246.149 165.112V171H244.229V165.704C244.218 165.309 244.138 165.027 243.989 164.856C243.84 164.675 243.578 164.584 243.205 164.584C242.981 164.584 242.762 164.621 242.549 164.696C242.346 164.76 242.117 164.867 241.861 165.016C241.605 165.165 241.296 165.363 240.933 165.608L240.821 164.44C241.365 163.939 241.888 163.565 242.389 163.32C242.901 163.075 243.44 162.952 244.005 162.952ZM235.765 163.144L235.957 164.68L236.149 164.904V171H234.213V163.144H235.765ZM238.997 162.952C239.68 162.952 240.202 163.133 240.565 163.496C240.928 163.859 241.114 164.397 241.125 165.112V171H239.253V165.704C239.253 165.288 239.168 165 238.997 164.84C238.826 164.669 238.57 164.584 238.229 164.584C238.016 164.584 237.802 164.616 237.589 164.68C237.376 164.744 237.141 164.851 236.885 165C236.629 165.149 236.309 165.352 235.925 165.608L235.813 164.44C236.346 163.939 236.869 163.565 237.381 163.32C237.893 163.075 238.432 162.952 238.997 162.952ZM253.156 162.952C254.137 162.952 254.836 163.309 255.252 164.024C255.678 164.739 255.892 165.773 255.892 167.128C255.892 168.163 255.78 168.979 255.556 169.576C255.342 170.163 255.017 170.584 254.58 170.84C254.142 171.085 253.588 171.208 252.916 171.208C252.382 171.208 251.86 171.133 251.348 170.984C250.846 170.824 250.382 170.579 249.956 170.248L250.084 169.288C250.5 169.405 250.873 169.507 251.204 169.592C251.534 169.677 251.897 169.72 252.292 169.72C252.686 169.72 252.996 169.656 253.22 169.528C253.454 169.389 253.625 169.133 253.732 168.76C253.838 168.387 253.892 167.848 253.892 167.144C253.892 166.451 253.844 165.912 253.748 165.528C253.652 165.144 253.492 164.877 253.268 164.728C253.054 164.568 252.772 164.488 252.42 164.488C252.036 164.488 251.673 164.573 251.332 164.744C250.99 164.904 250.596 165.144 250.148 165.464L249.924 164.44C250.169 164.152 250.462 163.896 250.804 163.672C251.156 163.448 251.534 163.272 251.94 163.144C252.345 163.016 252.75 162.952 253.156 162.952ZM249.844 163.144L250.036 164.664L250.212 164.888V169.96L250.132 170.152C250.164 170.461 250.185 170.771 250.196 171.08C250.206 171.4 250.212 171.725 250.212 172.056V174.12H248.276V163.144H249.844ZM259.68 159.8V168.632C259.68 168.931 259.766 169.16 259.936 169.32C260.107 169.469 260.352 169.544 260.672 169.544H261.36L261.584 170.904C261.467 170.957 261.302 171.005 261.088 171.048C260.886 171.091 260.672 171.117 260.448 171.128C260.235 171.149 260.048 171.16 259.888 171.16C259.238 171.16 258.72 170.984 258.336 170.632C257.952 170.28 257.76 169.773 257.76 169.112V159.8H259.68ZM266.343 162.952C267.303 162.952 268.066 163.085 268.631 163.352C269.207 163.619 269.618 164.056 269.863 164.664C270.119 165.272 270.247 166.077 270.247 167.08C270.247 168.083 270.119 168.888 269.863 169.496C269.618 170.093 269.207 170.531 268.631 170.808C268.066 171.075 267.303 171.208 266.343 171.208C265.404 171.208 264.647 171.075 264.071 170.808C263.506 170.531 263.095 170.093 262.839 169.496C262.583 168.888 262.455 168.083 262.455 167.08C262.455 166.077 262.583 165.272 262.839 164.664C263.095 164.056 263.506 163.619 264.071 163.352C264.647 163.085 265.404 162.952 266.343 162.952ZM266.343 164.424C265.874 164.424 265.5 164.504 265.223 164.664C264.956 164.813 264.764 165.08 264.647 165.464C264.53 165.848 264.471 166.387 264.471 167.08C264.471 167.773 264.53 168.312 264.647 168.696C264.764 169.08 264.956 169.347 265.223 169.496C265.5 169.645 265.874 169.72 266.343 169.72C266.823 169.72 267.202 169.645 267.479 169.496C267.756 169.347 267.948 169.08 268.055 168.696C268.172 168.312 268.231 167.773 268.231 167.08C268.231 166.387 268.172 165.848 268.055 165.464C267.948 165.08 267.756 164.813 267.479 164.664C267.202 164.504 266.823 164.424 266.343 164.424ZM279.451 163.144L276.507 171.24C276.369 171.613 276.193 171.981 275.979 172.344C275.777 172.717 275.515 173.053 275.195 173.352C274.875 173.651 274.497 173.885 274.059 174.056C273.622 174.227 273.115 174.291 272.539 174.248L272.379 173.096C273.019 172.915 273.515 172.669 273.867 172.36C274.23 172.051 274.513 171.656 274.715 171.176L275.147 170.152C275.243 169.917 275.334 169.651 275.419 169.352C275.515 169.043 275.595 168.776 275.659 168.552L277.371 163.144H279.451ZM273.115 163.144L274.859 168.552C274.913 168.733 274.961 168.92 275.003 169.112C275.046 169.293 275.083 169.475 275.115 169.656H275.515L274.907 171H274.395C274.246 171 274.113 170.957 273.995 170.872C273.878 170.787 273.798 170.669 273.755 170.52L271.051 163.144H273.115ZM284.123 162.952C285.393 162.952 286.305 163.176 286.859 163.624C287.414 164.061 287.697 164.712 287.707 165.576C287.718 166.291 287.547 166.835 287.195 167.208C286.854 167.571 286.283 167.752 285.483 167.752H281.003V166.552H284.955C285.318 166.552 285.547 166.456 285.643 166.264C285.75 166.072 285.803 165.837 285.803 165.56C285.793 165.123 285.665 164.819 285.419 164.648C285.185 164.477 284.779 164.392 284.203 164.392C283.702 164.392 283.313 164.461 283.035 164.6C282.758 164.739 282.561 164.989 282.443 165.352C282.337 165.715 282.283 166.237 282.283 166.92C282.283 167.645 282.353 168.205 282.491 168.6C282.63 168.995 282.859 169.267 283.179 169.416C283.499 169.555 283.926 169.624 284.459 169.624C284.854 169.624 285.307 169.608 285.819 169.576C286.342 169.544 286.843 169.501 287.323 169.448L287.515 170.68C287.227 170.797 286.897 170.893 286.523 170.968C286.15 171.043 285.761 171.096 285.355 171.128C284.961 171.171 284.587 171.192 284.235 171.192C283.275 171.192 282.502 171.053 281.915 170.776C281.339 170.488 280.918 170.04 280.651 169.432C280.395 168.824 280.267 168.04 280.267 167.08C280.267 166.045 280.395 165.229 280.651 164.632C280.918 164.024 281.334 163.592 281.899 163.336C282.475 163.08 283.217 162.952 284.123 162.952ZM290.951 163.144L291.207 164.68L291.383 164.904V171H289.447V163.144H290.951ZM294.791 162.952L294.599 164.744H294.039C293.623 164.744 293.202 164.813 292.775 164.952C292.349 165.091 291.815 165.299 291.175 165.576L291.047 164.44C291.602 163.971 292.167 163.608 292.743 163.352C293.319 163.085 293.874 162.952 294.407 162.952H294.791Z" fill="#0668E1" style="fill:#0668E1;fill:color(display-p3 0.0235 0.4078 0.8824);fill-opacity:1;"/>
</g>
<rect x="0.5" y="0.5" width="327" height="179" rx="15.5" stroke="#0668E1" style="stroke:#0668E1;stroke:color(display-p3 0.0235 0.4078 0.8824);stroke-opacity:1;"/>
<defs>
<clipPath id="clip0_19085_71551">
<rect width="328" height="180" rx="16" fill="white" style="fill:white;fill-opacity:1;"/>
</clipPath>
<clipPath id="clip1_19085_71551">
<rect width="176" height="180" fill="white" style="fill:white;fill-opacity:1;" transform="translate(175)"/>
</clipPath>
<clipPath id="clip2_19085_71551">
<rect width="176" height="180" fill="white" style="fill:white;fill-opacity:1;" transform="translate(-1)"/>
</clipPath>
</defs>
</svg>
