<svg width="328" height="180" viewBox="0 0 328 180" fill="none" xmlns="http://www.w3.org/2000/svg">
<g clip-path="url(#clip0_19085_71705)">
<rect width="328" height="180" rx="16" fill="#C7D6FF" style="fill:#C7D6FF;fill:color(display-p3 0.7804 0.8392 1.0000);fill-opacity:1;"/>
<path d="M213.331 46.5088H299.38C301.391 46.5089 303.058 48.2768 303.058 50.4883V81.0996C303.058 83.3112 301.39 85.0791 299.379 85.0791H225.586L225.511 85.1758L220.863 91.1797C220.64 91.4688 220.321 91.6269 219.99 91.627C219.368 91.627 218.832 91.0782 218.832 90.3662V85.0791H213.331C211.32 85.0791 209.652 83.3112 209.652 81.0996V50.4883C209.652 48.2766 211.32 46.5088 213.331 46.5088Z" fill="#8DC0FF" stroke="#0668E1" style="fill:#8DC0FF;fill:color(display-p3 0.5529 0.7530 1.0000);fill-opacity:1;stroke:#0668E1;stroke:color(display-p3 0.0235 0.4078 0.8824);stroke-opacity:1;" stroke-width="0.5"/>
<path d="M268.252 61.1901H243.541C243.169 61.1901 242.867 60.8651 242.867 60.4647C242.867 60.0639 243.169 59.7393 243.541 59.7393H268.252C268.624 59.7393 268.926 60.0643 268.926 60.4647C268.926 60.8655 268.624 61.1901 268.252 61.1901Z" fill="white" style="fill:white;fill-opacity:1;"/>
<path d="M292.963 66.9938H243.541C243.169 66.9938 242.867 66.6688 242.867 66.2684C242.867 65.8676 243.169 65.543 243.541 65.543H292.963C293.335 65.543 293.637 65.868 293.637 66.2684C293.637 66.6688 293.335 66.9938 292.963 66.9938Z" fill="white" style="fill:white;fill-opacity:1;"/>
<path d="M292.963 72.7995H243.541C243.169 72.7995 242.867 72.4745 242.867 72.0741C242.867 71.6732 243.169 71.3486 243.541 71.3486H292.963C293.335 71.3486 293.637 71.6737 293.637 72.0741C293.637 72.4749 293.335 72.7995 292.963 72.7995Z" fill="white" style="fill:white;fill-opacity:1;"/>
<path d="M227.731 76.2689H227.543C222.415 76.2689 218.258 71.7935 218.258 66.2726V66.0705C218.258 60.5497 222.415 56.0742 227.543 56.0742H227.731C232.859 56.0742 237.016 60.5497 237.016 66.0705V66.2726C237.016 71.7935 232.859 76.2689 227.731 76.2689Z" fill="white" style="fill:white;fill-opacity:1;"/>
<path d="M77.5786 104.449H56.0234V120.1H77.5786V104.449Z" fill="white" style="fill:white;fill-opacity:1;"/>
<path d="M56.0234 104.449L66.8008 112.275L77.5786 104.449H56.0234Z" fill="white" style="fill:white;fill-opacity:1;"/>
<path d="M78.2912 104.237C78.2893 104.23 78.2905 104.222 78.2885 104.215C78.2862 104.207 78.2811 104.201 78.2787 104.194C78.2557 104.121 78.2255 104.051 78.1853 103.989C78.1806 103.982 78.1747 103.976 78.17 103.97C78.1309 103.913 78.0848 103.863 78.0335 103.82C78.0249 103.813 78.0171 103.804 78.0081 103.797C77.953 103.754 77.892 103.721 77.8267 103.695C77.8134 103.69 77.8001 103.687 77.7864 103.682C77.7183 103.66 77.6475 103.645 77.5728 103.645H56.0176C55.9429 103.645 55.8722 103.66 55.8041 103.682C55.7904 103.687 55.7771 103.69 55.7638 103.695C55.6985 103.721 55.6375 103.754 55.5824 103.797C55.5734 103.804 55.5656 103.813 55.557 103.82C55.5057 103.863 55.4596 103.913 55.4205 103.97C55.4158 103.976 55.4099 103.982 55.4052 103.989C55.3649 104.052 55.3348 104.121 55.3118 104.194C55.3094 104.201 55.3043 104.207 55.302 104.215C55.3 104.222 55.3012 104.229 55.2992 104.237C55.2816 104.305 55.2695 104.376 55.2695 104.45V120.101C55.2695 120.546 55.6047 120.907 56.0176 120.907H77.5728C77.9862 120.907 78.3213 120.546 78.3213 120.101V104.45C78.321 104.375 78.3088 104.305 78.2912 104.237ZM75.1252 105.256L66.7954 111.304L58.4653 105.256H75.1252ZM56.7657 119.295V105.965L66.377 112.943C66.5033 113.035 66.6496 113.081 66.7954 113.081C66.9413 113.081 67.0876 113.035 67.2139 112.943L76.8247 105.965V119.295H56.7657Z" fill="#0668E1" style="fill:#0668E1;fill:color(display-p3 0.0235 0.4078 0.8824);fill-opacity:1;"/>
<path d="M169.829 140.719C169.939 139.775 170.542 135.283 170.547 135.252L170.878 131.871C170.896 131.689 171.038 131.552 171.208 131.552H199.655C199.793 131.552 199.916 131.643 199.965 131.782C200.014 131.921 200.446 133.158 200.446 133.742V135.437C200.566 136.18 202.67 149.545 201.325 157.135C200.847 159.829 200.112 162.799 199.333 165.943C197.893 171.764 196.26 178.362 196.08 184.332C195.911 189.904 196.196 192.181 196.403 193.844C196.537 194.919 196.643 195.768 196.577 197.074C196.412 200.319 195.26 211.677 195.249 211.791C195.242 211.858 195.217 211.922 195.178 211.975C195.137 212.03 194.161 213.314 192.181 213.119C190.284 212.933 186.849 210.132 186.704 210.013C186.624 209.948 186.576 209.847 186.574 209.739C186.572 209.705 186.542 208.557 186.497 206.956L186.422 210.689C186.419 210.82 186.349 210.94 186.24 210.999C186.107 211.072 182.969 212.784 181.62 213.129C181.148 213.25 180.628 213.29 180.147 213.29C179.224 213.29 178.44 213.143 178.39 213.133C178.252 213.107 178.144 212.989 178.121 212.839C178.026 212.215 175.796 197.522 175.907 195.073C175.929 194.584 175.971 193.989 176.017 193.319C176.199 190.731 176.472 186.821 175.91 183.917C175.663 182.642 174.834 179.159 173.874 175.125C171.997 167.233 169.66 157.411 169.441 154.898C169.113 151.132 169.709 141.751 169.829 140.719Z" fill="#223A49" style="fill:#223A49;fill:color(display-p3 0.1333 0.2275 0.2863);fill-opacity:1;"/>
<path d="M184.877 139.22C193.637 139.22 199.007 135.569 199.235 135.412C199.389 135.305 199.433 135.084 199.334 134.919C199.235 134.753 199.03 134.705 198.876 134.812C198.821 134.849 193.269 138.626 184.468 138.504C175.641 138.387 170.968 135.76 170.921 135.733C170.76 135.64 170.559 135.706 170.473 135.88C170.387 136.054 170.448 136.27 170.609 136.363C170.803 136.475 175.473 139.098 184.459 139.218C184.599 139.219 184.739 139.22 184.877 139.22Z" fill="#C6DBE8" style="fill:#C6DBE8;fill:color(display-p3 0.7765 0.8588 0.9098);fill-opacity:1;"/>
<path d="M184.635 151.177C184.659 151.177 184.683 151.174 184.707 151.169C184.886 151.126 184.999 150.936 184.959 150.743C184.348 147.783 185.147 140.165 185.238 139.333C185.383 139.064 185.926 138.045 186.27 137.12C186.742 135.85 185.649 134.875 185.603 134.834C185.46 134.709 185.252 134.733 185.136 134.886C185.021 135.039 185.042 135.263 185.184 135.387C185.22 135.419 185.943 136.078 185.654 136.854C185.281 137.855 184.637 139.022 184.631 139.034C184.608 139.077 184.592 139.125 184.587 139.174C184.548 139.519 183.644 147.662 184.312 150.898C184.346 151.064 184.483 151.177 184.635 151.177Z" fill="#C6DBE8" style="fill:#C6DBE8;fill:color(display-p3 0.7765 0.8588 0.9098);fill-opacity:1;"/>
<path d="M198.304 141.745C198.603 141.745 198.892 141.71 199.156 141.627C200.463 141.215 200.958 140.856 200.978 140.841C201.129 140.729 201.167 140.507 201.064 140.344C200.96 140.182 200.754 140.141 200.603 140.252C200.601 140.253 200.154 140.568 198.97 140.941C197.939 141.265 196.297 140.645 195.508 140.346C195.406 140.307 195.316 140.274 195.243 140.247C194.988 140.138 194.509 138.775 194.238 137.387C194.201 137.195 194.024 137.07 193.846 137.111C193.667 137.152 193.552 137.341 193.589 137.534C193.769 138.462 194.272 140.651 195.033 140.924L195.288 141.02C195.96 141.274 197.203 141.745 198.304 141.745Z" fill="#C6DBE8" style="fill:#C6DBE8;fill:color(display-p3 0.7765 0.8588 0.9098);fill-opacity:1;"/>
<path d="M173.788 142.414C174.7 142.414 175.785 142.339 176.259 142.019C176.941 141.56 177.467 139.319 177.613 138.644C177.654 138.451 177.542 138.26 177.364 138.215C177.184 138.172 177.008 138.291 176.966 138.482C176.699 139.73 176.218 141.205 175.908 141.414C175.473 141.707 173.866 141.746 172.557 141.658C171.727 141.602 170.227 141.056 170.212 141.051C170.039 140.987 169.85 141.087 169.791 141.274C169.732 141.46 169.825 141.663 169.998 141.726C170.063 141.75 171.598 142.308 172.515 142.37C172.77 142.387 173.249 142.414 173.788 142.414Z" fill="#C6DBE8" style="fill:#C6DBE8;fill:color(display-p3 0.7765 0.8588 0.9098);fill-opacity:1;"/>
<path d="M183.426 137.045C183.426 136.405 183.836 135.885 184.34 135.885C184.844 135.885 185.254 136.405 185.254 137.045C185.254 137.685 184.845 138.205 184.34 138.205C183.836 138.205 183.426 137.685 183.426 137.045ZM184.089 137.045C184.089 137.301 184.222 137.491 184.34 137.491C184.459 137.491 184.591 137.301 184.591 137.045C184.591 136.79 184.459 136.599 184.34 136.599C184.222 136.599 184.089 136.79 184.089 137.045Z" fill="#C6DBE8" style="fill:#C6DBE8;fill:color(display-p3 0.7765 0.8588 0.9098);fill-opacity:1;"/>
<path d="M192.393 139.604C192.337 139.552 192.309 139.472 192.319 139.392C192.401 138.75 192.478 137.6 192.335 137.244C192.103 136.666 191.938 134.971 191.931 134.898C191.925 134.832 191.945 134.765 191.987 134.714C192.029 134.664 192.089 134.636 192.151 134.636H192.831C192.927 134.636 193.013 134.702 193.042 134.801C193.108 135.022 193.685 136.98 193.607 137.654C193.536 138.259 193.613 139.125 193.613 139.134C193.624 139.248 193.557 139.354 193.455 139.385L192.6 139.652C192.579 139.659 192.559 139.662 192.538 139.662C192.486 139.662 192.435 139.642 192.393 139.604ZM193.168 137.595C193.219 137.153 192.861 135.78 192.669 135.112H192.399C192.463 135.693 192.597 136.695 192.741 137.055C192.921 137.503 192.852 138.535 192.798 139.095L193.158 138.983C193.138 138.676 193.112 138.075 193.168 137.595Z" fill="#C6DBE8" style="fill:#C6DBE8;fill:color(display-p3 0.7765 0.8588 0.9098);fill-opacity:1;"/>
<path d="M177.897 140.152C177.855 140.103 177.834 140.037 177.84 139.97C177.841 139.957 177.947 138.621 177.841 137.885C177.759 137.307 177.679 136.139 178.07 134.803C178.107 134.679 178.229 134.609 178.346 134.647L179.068 134.884C179.184 134.922 179.25 135.053 179.216 135.179C179.213 135.192 178.856 136.518 178.998 137.421C179.024 137.587 179.052 137.759 179.081 137.931C179.239 138.867 179.374 139.676 179.207 140.087C179.172 140.173 179.092 140.229 179.004 140.229H178.061C177.998 140.229 177.939 140.201 177.897 140.152ZM178.646 138.015C178.617 137.841 178.587 137.668 178.561 137.5C178.438 136.719 178.633 135.716 178.735 135.272L178.431 135.172C178.137 136.321 178.207 137.309 178.279 137.813C178.364 138.406 178.325 139.312 178.299 139.753H178.834C178.875 139.383 178.749 138.633 178.646 138.015Z" fill="#C6DBE8" style="fill:#C6DBE8;fill:color(display-p3 0.7765 0.8588 0.9098);fill-opacity:1;"/>
<path d="M163.047 120.676L163.424 119.207L163.191 119.05C163.09 118.982 163.031 118.861 163.035 118.733C163.047 118.431 163.316 111.312 163.59 109.002C163.804 107.207 165.818 95.9343 167.616 94.7588C168.208 94.3714 168.548 94.1289 168.775 93.9656C169.151 93.6965 169.264 93.6153 169.686 93.4831C170.275 93.2987 172.2 93.0823 172.522 93.0469C173.022 92.8473 175.96 91.6786 176.449 91.5615C176.953 91.4411 191.094 91.087 193.924 91.0176C193.954 91.0176 193.982 91.0201 194.01 91.0277L198.805 92.2785C199.771 92.3265 203.915 93.5075 205.007 95.9191C206.154 98.4478 210.209 114.524 210.507 116.18C210.825 117.949 211.04 118.55 211.042 118.555C211.076 118.647 211.073 118.75 211.034 118.84C210.995 118.929 210.923 118.997 210.836 119.027L209.579 119.462L209.896 120.927C209.931 121.088 209.859 121.254 209.721 121.327L200.979 126.033C201.1 127.094 201.403 130.663 200.185 131.918C198.899 133.242 191.563 136.071 188.947 136.071C188.864 136.071 188.784 136.068 188.711 136.062C187.925 135.999 187.193 135.841 186.484 135.689C185.188 135.411 183.964 135.148 182.628 135.517C180.39 136.134 179.17 135.699 178.542 135.225C178.15 134.93 176.454 134.44 174.415 134.034C172.875 133.727 170.275 132.046 169.599 131.317C169.464 131.172 169.3 131.03 169.142 130.891C168.594 130.414 167.914 129.821 168.317 128.891C168.687 128.036 169.066 126.703 169.066 126.703L169.714 123.542C168.393 123.231 164.74 122.342 164.166 121.892C163.555 121.413 163.167 121.056 163.15 121.041C163.053 120.951 163.013 120.809 163.047 120.676Z" fill="#57A2FF" style="fill:#57A2FF;fill:color(display-p3 0.3413 0.6361 1.0000);fill-opacity:1;"/>
<path d="M185.215 158.092L186.153 185.821C186.16 186.014 186.307 186.165 186.485 186.165C186.489 186.165 186.493 186.165 186.497 186.165C186.68 186.158 186.823 185.992 186.817 185.795L185.878 158.066C185.872 157.869 185.71 157.713 185.535 157.722C185.535 157.722 185.22 157.738 185.215 158.092Z" fill="#C6DBE8" style="fill:#C6DBE8;fill:color(display-p3 0.7765 0.8588 0.9098);fill-opacity:1;"/>
<path d="M180.148 83.1631H190.494C190.678 83.1631 190.826 83.3231 190.826 83.5201V93.5922C190.826 93.6309 190.82 93.6693 190.809 93.7059C190.76 93.8638 185.898 109.506 185.684 111.412C185.665 111.576 185.543 111.706 185.39 111.723C185.378 111.725 185.366 111.726 185.354 111.726C185.215 111.726 185.088 111.63 185.041 111.486C184.83 110.83 179.861 95.3938 179.816 92.0037V83.5201C179.816 83.3231 179.964 83.1631 180.148 83.1631Z" fill="#FFA9A9" style="fill:#FFA9A9;fill:color(display-p3 1.0000 0.6627 0.6627);fill-opacity:1;"/>
<path d="M173.089 90.8346C173.202 91.6274 173.972 92.6021 176.995 92.7436C179.222 92.8467 181.371 92.6067 181.973 90.1572C182.404 88.4045 180.59 85.2048 179.763 83.8705L189.969 83.8773C189.389 85.3222 189.456 86.5007 189.51 87.4673C189.566 88.4542 189.574 88.9902 189.111 89.4453C188.434 90.1109 187.682 89.849 187.03 89.5509C186.771 89.4318 186.566 89.3375 186.376 89.4992C186.27 89.5893 186.221 89.7341 186.244 89.8869C186.287 90.1652 186.536 90.3896 187.008 90.7942C187.341 91.0797 187.845 91.5108 187.91 91.7664C188.129 92.6328 189.317 93.9885 191.688 94.1708C191.798 94.1792 191.906 94.1835 192.01 94.1835C192.747 94.1835 193.315 93.9692 193.701 93.5448C193.958 93.2614 194.085 92.9347 194.146 92.6594C194.691 92.9208 195.722 93.2606 197.357 93.2197C200.013 93.1562 200.872 91.3727 200.907 91.2969C200.965 91.1702 200.949 91.0182 200.865 90.9092C200.781 90.8001 200.645 90.7547 200.519 90.7938C199.458 91.1193 198.184 90.4199 196.627 88.6575C196.993 86.6421 196.442 84.6671 196.209 83.9661C196.35 83.4436 196.603 82.3208 196.685 80.7436C196.708 80.2935 196.675 79.939 196.603 79.6098C196.904 77.7198 195.587 75.5659 195.071 74.811C194.889 74.0056 194.705 73.0406 194.526 71.8601C193.334 64.0303 186.56 62.705 185.792 62.5795C183.884 62.2713 180.217 64.3141 180.061 64.4012C180.045 64.4101 180.03 64.4206 180.015 64.4324C176.55 67.2503 175.393 74.246 175.018 79.1724C174.522 80.7676 172.95 86.3386 174.238 88.9586C174.188 89.0436 174.134 89.1165 174.078 89.1746C173.918 89.0154 173.759 88.8323 173.626 88.6538C173.535 88.5304 173.381 88.4862 173.245 88.5443C173.109 88.602 173.025 88.7485 173.036 88.9047L173.081 89.5084C173.053 89.676 172.992 90.1555 173.089 90.8346ZM174.737 88.9409C174.856 88.6735 174.954 88.3578 175.035 88.0109C175.025 88.4841 174.994 88.9026 174.933 89.2087C174.862 89.1261 174.797 89.0369 174.737 88.9409ZM174.489 89.3792C174.55 89.4642 174.617 89.5438 174.688 89.6192C174.613 89.5989 174.522 89.5476 174.418 89.4714C174.443 89.4427 174.466 89.4112 174.489 89.3792ZM174.893 81.3158C174.817 83.1775 174.852 84.417 174.857 84.4579C174.882 84.6776 174.907 84.9382 174.931 85.2186C174.869 86.432 174.73 87.6151 174.479 88.4016C173.821 86.5924 174.364 83.4832 174.893 81.3158ZM195.49 76.4361C195.755 76.9755 196 77.5998 196.125 78.2356C195.942 77.7826 195.724 77.2226 195.49 76.4361ZM196.27 88.0235C195.97 87.1768 195.972 85.9331 196.041 85.033C196.219 85.8114 196.38 86.8981 196.27 88.0235Z" fill="#1B1C17" style="fill:#1B1C17;fill:color(display-p3 0.1059 0.1098 0.0902);fill-opacity:1;"/>
<path d="M171.532 110.995C171.552 110.995 171.573 110.992 171.594 110.986C171.711 110.948 171.778 110.816 171.744 110.69C170.979 107.886 171.316 97.1888 171.319 97.081C171.324 96.9492 171.228 96.8393 171.106 96.8347C170.98 96.8242 170.882 96.9328 170.877 97.0641C170.863 97.5071 170.534 107.947 171.319 110.824C171.348 110.928 171.436 110.995 171.532 110.995Z" fill="#0668E1" style="fill:#0668E1;fill:color(display-p3 0.0235 0.4078 0.8824);fill-opacity:1;"/>
<path d="M201.162 106.192C201.233 106.192 201.302 106.156 201.345 106.089C202.988 103.523 204.255 97.384 204.308 97.1238C204.334 96.9954 204.258 96.8682 204.14 96.8404C204.021 96.8127 203.903 96.8931 203.876 97.0219C203.863 97.0846 202.575 103.33 200.981 105.819C200.911 105.927 200.936 106.075 201.037 106.15C201.075 106.178 201.119 106.192 201.162 106.192Z" fill="#0668E1" style="fill:#0668E1;fill:color(display-p3 0.0235 0.4078 0.8824);fill-opacity:1;"/>
<path d="M201.447 116.247C201.503 116.247 201.559 116.224 201.602 116.179C204.896 112.697 204.872 101.716 204.87 101.25C204.869 101.119 204.77 101.014 204.649 101.014H204.648C204.525 101.015 204.427 101.122 204.428 101.253C204.429 101.365 204.454 112.498 201.293 115.839C201.206 115.931 201.204 116.082 201.29 116.175C201.333 116.223 201.39 116.247 201.447 116.247Z" fill="#0668E1" style="fill:#0668E1;fill:color(display-p3 0.0235 0.4078 0.8824);fill-opacity:1;"/>
<path d="M205.975 120.294C205.992 120.294 206.01 120.291 206.027 120.287L209.232 119.454C209.351 119.423 209.424 119.294 209.395 119.166C209.367 119.038 209.245 118.961 209.129 118.991L205.923 119.824C205.804 119.855 205.732 119.984 205.76 120.111C205.784 120.22 205.875 120.294 205.975 120.294Z" fill="#0668E1" style="fill:#0668E1;fill:color(display-p3 0.0235 0.4078 0.8824);fill-opacity:1;"/>
<path d="M178.464 74.1988C178.684 73.3665 179.484 70.8972 179.519 70.7877C179.857 69.736 181.025 69.5095 182.812 70.1499C183.601 70.4332 189.645 73.4949 190.774 75.2868C191.924 77.1102 191.385 82.5401 190.79 83.6937C190.23 84.7791 186.28 89.2327 184.254 89.2327C182.56 89.2327 180.776 87.0493 179.919 86.0001C179.78 85.8304 179.671 85.6961 179.598 85.6174C179.014 84.9884 177.898 80.0885 177.898 79.2359C177.898 78.3703 178.232 75.0687 178.464 74.1988Z" fill="#FFA9A9" style="fill:#FFA9A9;fill:color(display-p3 1.0000 0.6627 0.6627);fill-opacity:1;"/>
<path d="M198.292 116.783C198.388 116.783 198.477 116.714 198.504 116.609C198.509 116.59 199.007 114.683 199.39 113.036C199.778 111.368 200.048 99.7297 200.06 99.235C200.063 99.1036 199.966 98.9946 199.844 98.9912C199.714 99.0051 199.62 99.0923 199.617 99.2236C199.615 99.3444 199.337 111.303 198.961 112.921C198.579 114.561 198.084 116.461 198.079 116.48C198.046 116.607 198.114 116.739 198.231 116.774C198.252 116.78 198.272 116.783 198.292 116.783Z" fill="#0668E1" style="fill:#0668E1;fill:color(display-p3 0.0235 0.4078 0.8824);fill-opacity:1;"/>
<path d="M163.803 119.281H163.806L165.906 119.251C166.029 119.249 166.126 119.142 166.124 119.01C166.123 118.878 166.035 118.764 165.901 118.775L163.8 118.805C163.678 118.807 163.58 118.915 163.582 119.046C163.584 119.177 163.682 119.281 163.803 119.281Z" fill="#0668E1" style="fill:#0668E1;fill:color(display-p3 0.0235 0.4078 0.8824);fill-opacity:1;"/>
<path d="M190.875 76.9478C191.002 76.8905 191.134 76.9086 191.229 77.0143C191.288 77.0472 191.565 77.0223 192.061 76.4855C192.474 76.0384 192.891 76.1074 193.144 76.3217C193.875 76.9402 193.812 79.0979 192.439 81.5062C192.386 81.5988 192.297 81.6607 192.196 81.6738C192.183 81.6754 192.169 81.6763 192.156 81.6763C192.07 81.6763 191.986 81.6401 191.924 81.574L190.882 80.4726C190.821 80.4086 190.785 80.3219 190.783 80.2305L190.688 77.3014C190.683 77.1545 190.75 77.0059 190.875 76.9478Z" fill="#FFA9A9" style="fill:#FFA9A9;fill:color(display-p3 1.0000 0.6627 0.6627);fill-opacity:1;"/>
<path d="M191.52 80.8416C191.52 81.1864 191.693 81.4664 191.907 81.4664C192.12 81.4664 192.294 81.1868 192.294 80.8416C192.294 80.4964 192.12 80.2168 191.907 80.2168C191.693 80.2168 191.52 80.4964 191.52 80.8416Z" fill="white" style="fill:white;fill-opacity:1;"/>
<path d="M185.392 107.478C185.379 107.537 185.38 107.598 185.395 107.655C185.407 107.701 185.69 108.783 185.929 109.47C186.174 110.173 187.215 110.877 188.052 111.443L188.381 111.668C189.085 112.155 191.089 114.289 191.621 115.835C191.933 116.741 197.747 129.737 201.039 129.873C201.08 129.875 201.121 129.876 201.161 129.876C203.475 129.876 204.354 127.096 204.938 125.245C205.119 124.674 205.275 124.181 205.42 123.938C206.148 122.73 205.639 119.783 205.578 119.451C205.555 119.322 205.467 119.217 205.35 119.178C202.833 118.348 202.3 118.61 201.866 119.039C201.757 119.147 201.733 119.17 201.546 119.137C200.935 119.02 195.205 112.895 194.776 111.645C194.722 110.998 193.905 110.122 193.563 109.781V105.58L194.92 103.288C194.949 103.239 194.967 103.182 194.971 103.124C194.972 103.113 195.055 101.994 195.163 101.152C195.301 100.069 194.053 99.5335 193.668 99.3954C193.518 99.3415 193.218 99.3348 192.975 99.3407L192.439 98.3627C192.404 98.3037 191.733 97.2141 190.131 96.7986C189.894 96.7367 189.174 96.551 188.853 97.047C188.513 97.5724 188.965 98.3534 189.059 98.5045C189.262 98.8308 189.861 99.0548 190.239 99.1681L190.562 100.188L190.386 100.833L189.367 99.0695C189.338 99.0194 189.298 98.9778 189.251 98.9483L186.653 97.3417C186.541 97.2735 186.403 97.2798 186.298 97.3585C186.192 97.4377 186.139 97.5754 186.161 97.7118L186.465 99.616C186.478 99.7015 186.521 99.779 186.584 99.8337L187.395 100.538L188.072 101.748L187.111 101.336C187.022 101.298 186.921 101.303 186.835 101.351C186.749 101.399 186.687 101.486 186.665 101.587L185.392 107.478ZM192.885 101.932L192.717 102.065L192.87 101.183L193.04 101.282L192.885 101.932Z" fill="#FFA9A9" style="fill:#FFA9A9;fill:color(display-p3 1.0000 0.6627 0.6627);fill-opacity:1;"/>
<path d="M184.955 92.3541L178.707 92.8181C178.165 92.8581 177.772 93.3886 177.855 93.9662L179.75 107.111C179.825 107.636 180.259 108.014 180.752 107.983L186.842 107.604C187.468 107.564 187.928 106.955 187.835 106.287L186.019 93.2737C185.941 92.7158 185.478 92.3154 184.955 92.3541Z" fill="#2F4158" style="fill:#2F4158;fill:color(display-p3 0.1842 0.2562 0.3452);fill-opacity:1;"/>
<path d="M165.574 118.983C165.585 118.844 165.67 118.726 165.792 118.679C166.334 118.468 167.193 118.063 167.402 117.82C167.48 117.73 169.319 115.574 170.683 112.063C171.12 110.938 171.482 109.918 171.8 109.018C172.429 107.245 172.817 106.15 173.246 105.722C173.466 105.325 174.971 102.607 175.242 101.891C175.56 101.049 176.949 99.4842 177.112 99.3027L177.627 98.7546L179.787 96.684C180.172 96.3143 180.718 96.2301 181.145 96.4747C181.431 96.6385 181.532 96.8705 181.566 97.0364C181.633 97.3559 181.523 97.7155 181.231 98.1348C181.022 98.4342 180.79 98.7306 180.565 99.0173C179.816 99.9713 179.11 100.873 179.324 101.758C179.426 102.177 179.525 102.235 179.525 102.235C179.594 102.246 179.809 102.095 179.925 102.013C180.057 101.92 180.194 101.823 180.339 101.757C180.747 101.572 184.57 100.093 185.111 100.093C185.711 100.093 186.147 100.24 186.405 100.53C186.582 100.727 186.669 100.988 186.658 101.282C186.614 102.441 185.472 102.633 184.858 102.736C184.261 102.836 181.903 104.053 180.4 104.88C180.356 104.991 180.33 105.126 180.356 105.171C180.376 105.204 180.513 105.282 180.906 105.241C182.363 105.087 183.63 104.756 184.058 104.416C184.601 103.984 184.919 103.859 185.356 103.902C185.604 103.926 186.064 104.074 186.212 104.481C186.287 104.686 186.304 105.015 185.965 105.419C185.43 106.056 184.04 107.042 183.269 107.347L184.356 107.412C184.478 107.419 184.586 107.498 184.637 107.617C184.689 107.736 184.676 107.876 184.603 107.982C184.509 108.117 183.665 109.308 182.933 109.512C182.734 109.568 182.361 109.654 181.932 109.754C181.219 109.92 179.891 110.229 179.705 110.341C179.452 110.552 177.9 111.014 176.914 111.293C176.752 111.576 176.273 112.559 176.016 114.658L175.97 115.038C175.575 118.306 174.65 125.959 172.203 128.268C171.227 129.189 170.452 129.622 169.775 129.622C169.734 129.622 169.693 129.62 169.652 129.618C168.89 129.557 168.415 128.956 167.955 128.375C167.872 128.269 167.788 128.163 167.702 128.059C167.433 127.736 165.088 124.732 165.574 118.983Z" fill="#FFA9A9" style="fill:#FFA9A9;fill:color(display-p3 1.0000 0.6627 0.6627);fill-opacity:1;"/>
<path d="M151.206 143.906C150.845 141.693 150.73 139.709 150.729 139.689C150.718 139.496 150.562 139.341 150.385 139.354L117.004 140.695C116.844 140.702 116.71 140.831 116.688 141.003C116.631 141.444 115.305 151.868 115.691 156.555C116.071 161.163 115.628 165.465 115.624 165.508C115.621 165.536 115.621 165.564 115.624 165.591C115.668 165.974 116.696 175.004 117.302 177.769C117.921 180.593 118.388 190 117.849 191.524C117.221 193.301 117.195 200.802 118.532 204.398C119.85 207.948 120.02 219.531 119.894 220.48C119.741 221.634 120.681 225.152 120.789 225.55C120.821 225.667 120.906 225.759 121.016 225.793C121.125 225.827 121.243 225.798 121.328 225.715C121.966 225.101 123.868 223.654 124.998 224.333C126.554 225.268 129.299 227.197 129.327 227.216C129.401 227.269 129.493 227.287 129.579 227.266C129.667 227.245 129.742 227.188 129.789 227.107C129.925 226.872 131.121 224.793 131.237 223.871C131.327 223.163 130.974 221.114 130.616 219.203C130.579 219.005 130.55 218.851 130.535 218.762C130.494 218.473 130.412 214.904 130.324 211.126C130.138 203.085 129.983 196.87 129.834 196.063C129.595 194.781 128.721 190.548 128.595 189.94C128.709 189.297 129.468 184.957 129.398 183.028C129.342 181.488 132.148 167.079 133.704 159.355L134.047 159.444L134.299 169.824C134.294 170.029 134.198 174.883 135.203 177.887C135.964 180.162 136.064 182.71 136.124 184.233C136.141 184.672 136.155 185.018 136.18 185.264C136.281 186.248 136.966 187.795 137.159 188.216C136.982 189.372 135.679 198.024 136.035 200.396C136.395 202.803 135.463 215.087 135.132 215.997C134.786 216.95 133.998 220.294 134.116 221.443C134.256 222.8 134.488 224.446 135.044 225.129C135.497 225.687 136.204 226.518 136.375 226.718L136.721 227.576C136.76 227.672 136.837 227.746 136.931 227.776C136.962 227.786 136.994 227.79 137.025 227.79C137.089 227.79 137.153 227.77 137.208 227.732C137.233 227.714 139.73 225.963 141.711 225.926C143.638 225.883 144.792 226.938 144.802 226.948C144.908 227.048 145.061 227.064 145.184 226.989C145.307 226.915 145.372 226.764 145.347 226.614C145.342 226.581 145.217 225.786 145.812 225.297C146.744 224.532 147.292 221.323 146.825 220.365C146.686 220.078 146.47 219.865 146.262 219.658C145.781 219.18 145.283 218.687 145.567 217.108C145.675 216.509 145.898 215.423 146.181 214.048C147.069 209.726 148.412 203.194 148.384 201.087C148.365 199.719 148.244 196.256 148.126 192.907C148.007 189.515 147.895 186.312 147.895 185.463C147.895 184.737 147.985 183.781 148.081 182.769C148.209 181.414 148.342 180.012 148.3 178.824C148.268 177.941 148.794 174.724 149.403 171C150.183 166.229 151.067 160.821 151.21 157.792C151.331 155.274 151.683 146.833 151.206 143.906Z" fill="#0F468B" style="fill:#0F468B;fill:color(display-p3 0.0582 0.2761 0.5452);fill-opacity:1;"/>
<path d="M134.706 153.667C134.537 153.667 134.393 153.529 134.377 153.344C134.359 153.148 134.493 152.974 134.675 152.955C136.682 152.749 136.857 149.957 136.863 149.839L136.473 141.995C136.464 141.798 136.604 141.63 136.787 141.619C136.978 141.614 137.126 141.76 137.136 141.957L137.526 149.84C137.463 151.096 136.8 153.455 134.739 153.666C134.727 153.667 134.717 153.667 134.706 153.667Z" fill="#4986B4" style="fill:#4986B4;fill:color(display-p3 0.2863 0.5255 0.7059);fill-opacity:1;"/>
<path d="M133.821 152.596C133.642 152.596 133.495 152.444 133.489 152.251L133.199 142.372C133.194 142.175 133.338 142.01 133.521 142.004C133.702 141.989 133.857 142.152 133.863 142.349L134.153 152.228C134.159 152.425 134.015 152.59 133.831 152.596C133.831 152.596 133.824 152.596 133.821 152.596Z" fill="#4986B4" style="fill:#4986B4;fill:color(display-p3 0.2863 0.5255 0.7059);fill-opacity:1;"/>
<path d="M149.762 142.764C146.848 142.764 145.298 141.247 145.227 141.177C145.093 141.043 145.085 140.817 145.21 140.672C145.335 140.528 145.544 140.52 145.678 140.653C145.705 140.68 147.433 142.338 150.616 142.004C150.798 141.983 150.961 142.129 150.978 142.325C150.996 142.521 150.862 142.696 150.68 142.716C150.361 142.749 150.055 142.764 149.762 142.764Z" fill="#4986B4" style="fill:#4986B4;fill:color(display-p3 0.2863 0.5255 0.7059);fill-opacity:1;"/>
<path d="M119.316 143.96C118.573 143.96 117.694 143.841 116.683 143.604C116.504 143.562 116.391 143.372 116.429 143.179C116.469 142.987 116.645 142.865 116.824 142.907C119.638 143.567 120.736 143.106 121.139 142.773C121.472 142.497 121.489 142.196 121.49 142.183C121.498 141.989 121.647 141.834 121.829 141.838C122.009 141.843 122.153 141.997 122.153 142.19C122.153 142.254 122.137 142.824 121.578 143.309C121.078 143.743 120.321 143.96 119.316 143.96Z" fill="#4986B4" style="fill:#4986B4;fill:color(display-p3 0.2863 0.5255 0.7059);fill-opacity:1;"/>
<path d="M157.293 103.207C157.092 102.526 156.902 101.883 156.864 101.556C156.833 101.291 156.808 99.6658 156.779 97.7847C156.683 91.5557 156.558 85.3738 156.186 84.1718C156.125 83.9752 156.066 83.7702 156.006 83.5592C155.503 81.7994 154.876 79.6088 152.203 79.3048C149.318 78.9768 144.369 77.9441 143.928 77.6464C143.532 77.2814 143.166 77.2414 142.661 77.1871C142.556 77.1757 142.441 77.1631 142.289 77.1441L126.623 76.4301C126.598 76.4288 126.574 76.4305 126.55 76.4356C126.51 76.4431 125.566 76.6309 124.992 77.0204C124.52 77.3408 123.636 77.5677 123.603 77.577C123.542 77.598 117.535 79.6534 116.522 79.8256C116.444 79.8387 116.357 79.8517 116.259 79.8665C115.014 80.0509 112.099 80.4833 111.331 84.0245C110.574 87.5185 109.098 98.7838 111.332 108.824C113.061 116.595 116.23 119.186 117.512 119.939C118.11 120.291 118.689 120.49 119.16 120.515C118.51 122.978 115.819 133.335 116.023 135.144C116.139 136.175 116.381 136.491 116.64 136.749C116.764 136.871 116.838 136.946 116.795 137.574C116.685 139.175 116.683 141.033 116.683 141.051C116.683 141.209 116.78 141.349 116.921 141.394C116.981 141.413 122.424 143.129 127.89 143.129C128.438 143.129 128.986 143.111 129.528 143.074C132.314 142.879 134.353 142.631 135.992 142.431C137.809 142.21 139.009 142.064 139.919 142.164C141.72 142.364 150.44 140.067 150.809 139.97C150.974 139.926 151.082 139.756 151.059 139.575L150.71 136.781C150.866 136.706 151.051 136.578 151.203 136.362C151.455 136.002 151.536 135.518 151.445 134.923L151.413 134.717C150.708 130.179 150.385 127.394 150.453 126.44C150.566 124.858 150.074 121.481 149.655 120.386C149.528 120.052 149.438 119.738 149.375 119.47C149.433 119.491 149.494 119.509 149.558 119.525C150.429 119.733 151.559 119.306 152.914 118.252C155.999 115.854 156.586 113.134 156.754 110.79C156.87 109.164 157.296 108.082 157.607 107.291C157.73 106.978 157.837 106.707 157.903 106.458C158.058 105.88 157.762 104.796 157.293 103.207Z" fill="#788AFF" style="fill:#788AFF;fill:color(display-p3 0.4706 0.5412 1.0000);fill-opacity:1;"/>
<path d="M126.238 62.2702C126.23 62.2146 126.21 62.1616 126.179 62.1161C126.156 62.0829 125.615 61.2977 124.83 61.3755C124.688 61.3894 124.484 61.461 124.316 61.7216C123.912 62.3477 123.945 63.8394 124.098 64.4431C124.119 64.5265 124.146 64.6435 124.178 64.7858C124.537 66.3785 124.994 68.0887 125.867 68.2142L126.696 68.3333C126.711 68.3355 126.725 68.3363 126.739 68.3363C126.828 68.3363 126.914 68.298 126.977 68.2289C127.05 68.1481 127.084 68.0353 127.067 67.9237L126.238 62.2702Z" fill="#FFA9A9" style="fill:#FFA9A9;fill:color(display-p3 1.0000 0.6627 0.6627);fill-opacity:1;"/>
<path d="M142.556 77.3205C142.498 77.214 142.393 77.1475 142.278 77.145C142.262 77.1446 140.65 77.0945 139.804 76.1118C139.434 75.6815 139.27 74.3157 139.304 73.645C139.311 73.4993 139.235 73.3634 139.112 73.3019L126.745 67.9457C126.628 67.8867 126.49 67.9065 126.391 67.9966C126.292 68.0867 126.251 68.2298 126.285 68.3642C127.068 71.4271 127.647 75.9627 126.484 76.4558C126.393 76.4941 126.323 76.5737 126.291 76.673C126.26 76.7724 126.271 76.8818 126.321 76.9719C126.384 77.0856 127.951 79.7591 134.577 80.0012C134.889 80.0126 135.188 80.018 135.476 80.018C141.347 80.018 142.515 77.7685 142.565 77.6683C142.618 77.5584 142.615 77.4271 142.556 77.3205Z" fill="#FFA9A9" style="fill:#FFA9A9;fill:color(display-p3 1.0000 0.6627 0.6627);fill-opacity:1;"/>
<path d="M141.504 66.7318C141.393 65.006 141.117 61.6143 141.227 60.8408C141.338 60.0674 143.051 51.2605 134.263 49.8918C134.263 49.8918 129.178 48.9398 126.138 54.2359C123.098 59.5319 128.073 74.1106 129.51 76.0145C130.947 77.9187 133.213 78.6328 135.534 77.9187C137.856 77.2047 138.906 74.4078 139.956 72.7418C141.006 71.0759 141.614 68.4575 141.504 66.7318Z" fill="#FFA9A9" style="fill:#FFA9A9;fill:color(display-p3 1.0000 0.6627 0.6627);fill-opacity:1;"/>
<path d="M142.132 61.0802C141.74 60.8015 141.266 60.9379 141.048 61.0625C140.951 61.1177 140.886 61.2212 140.874 61.3387C140.741 62.6481 141.245 64.0754 141.267 64.1351C141.316 64.2732 141.439 64.3637 141.576 64.3637C141.579 64.3637 141.583 64.3637 141.586 64.3637C141.727 64.3591 141.85 64.2593 141.892 64.1145C142.672 61.4646 142.294 61.1952 142.132 61.0802Z" fill="#FFA9A9" style="fill:#FFA9A9;fill:color(display-p3 1.0000 0.6627 0.6627);fill-opacity:1;"/>
<path d="M121.109 105.886C121.054 105.886 120.998 105.871 120.946 105.84C120.787 105.743 120.73 105.525 120.82 105.354C120.998 105.013 122.577 102.014 123.153 101.455C123.717 100.909 126.291 99.3274 126.583 99.1489C126.741 99.0504 126.944 99.1106 127.035 99.2828C127.126 99.4542 127.07 99.6723 126.911 99.7695C126.135 100.244 124.029 101.568 123.597 101.986C123.224 102.347 122.05 104.458 121.398 105.704C121.337 105.82 121.225 105.886 121.109 105.886Z" fill="white" style="fill:white;fill-opacity:1;"/>
<path d="M121.391 119.215C121.283 119.215 121.177 119.158 121.113 119.054C121.013 118.889 121.055 118.667 121.208 118.559C122.922 117.348 126.705 112.994 127.692 111.4C128.632 109.882 129.181 105.117 129.186 105.069C129.208 104.873 129.375 104.737 129.556 104.758C129.738 104.782 129.867 104.96 129.845 105.156C129.822 105.358 129.271 110.139 128.244 111.797C127.225 113.442 123.399 117.866 121.573 119.156C121.517 119.196 121.453 119.215 121.391 119.215Z" fill="white" style="fill:white;fill-opacity:1;"/>
<path d="M121.521 105.117C121.376 105.117 121.242 105.013 121.202 104.855L116.59 86.8201C116.542 86.6298 116.645 86.4332 116.822 86.381C116.999 86.3288 117.181 86.4404 117.23 86.6303L121.841 104.665C121.889 104.855 121.786 105.052 121.609 105.104C121.58 105.113 121.55 105.117 121.521 105.117Z" fill="white" style="fill:white;fill-opacity:1;"/>
<path d="M154.495 109.574C154.349 109.574 154.215 109.47 154.175 109.311C153.938 108.376 152.558 107.575 152.046 107.345C151.977 107.314 151.92 107.259 151.884 107.189C151.807 107.04 149.995 103.538 149.607 102.644C149.371 102.1 148.149 101.523 147.434 101.287C147.259 101.229 147.16 101.03 147.214 100.841C147.268 100.653 147.452 100.545 147.628 100.604C147.846 100.676 149.771 101.334 150.208 102.341C150.549 103.128 152.099 106.136 152.41 106.736C152.853 106.954 154.489 107.835 154.815 109.122C154.863 109.313 154.759 109.509 154.583 109.561C154.553 109.57 154.524 109.574 154.495 109.574Z" fill="white" style="fill:white;fill-opacity:1;"/>
<path d="M147.536 117.895C147.496 117.895 147.455 117.887 147.415 117.87C146.951 117.67 146.233 116.531 145.072 114.499C144.926 114.243 144.801 114.025 144.71 113.872C144.401 113.354 143.983 111.888 143.58 110.47C143.322 109.562 143.055 108.624 142.929 108.376C142.549 107.626 142.86 105.996 142.896 105.812C142.935 105.619 143.111 105.498 143.29 105.538C143.469 105.579 143.583 105.769 143.544 105.962C143.427 106.555 143.313 107.642 143.511 108.033C143.662 108.33 143.876 109.073 144.214 110.261C144.568 111.504 145.008 113.05 145.268 113.486C145.36 113.641 145.488 113.864 145.637 114.125C146.091 114.919 147.297 117.029 147.662 117.207C147.827 117.287 147.908 117.496 147.837 117.675C147.783 117.811 147.663 117.895 147.536 117.895Z" fill="white" style="fill:white;fill-opacity:1;"/>
<path d="M148.984 101.969C148.961 101.969 148.937 101.967 148.913 101.961C148.734 101.919 148.621 101.728 148.66 101.535L151.519 87.5424C151.558 87.35 151.734 87.2271 151.914 87.2704C152.092 87.3125 152.205 87.5032 152.166 87.6957L149.308 101.689C149.274 101.855 149.136 101.969 148.984 101.969Z" fill="white" style="fill:white;fill-opacity:1;"/>
<path d="M127.772 137.963C127.699 137.963 127.641 137.96 127.597 137.956C126.398 137.839 117.128 137.108 117.034 137.101C116.851 137.086 116.714 136.915 116.727 136.718C116.741 136.521 116.902 136.372 117.083 136.388C117.176 136.396 126.452 137.127 127.657 137.245C128.628 137.339 139.082 136.118 143.029 135.639C143.048 135.636 143.067 135.636 143.086 135.637L149.7 136.054C149.883 136.065 150.022 136.234 150.012 136.431C150.001 136.627 149.846 136.777 149.662 136.766L143.076 136.352C142.209 136.457 129.753 137.963 127.772 137.963Z" fill="white" style="fill:white;fill-opacity:1;"/>
<path d="M131.614 70.9036C131.586 70.9036 131.557 70.8972 131.53 70.8842C131.425 70.8341 131.378 70.7019 131.424 70.5886L131.536 70.3167C131.582 70.2042 131.705 70.1525 131.811 70.203C131.916 70.2531 131.963 70.3853 131.917 70.4981L131.805 70.7701C131.77 70.8539 131.694 70.9036 131.614 70.9036Z" fill="#42342E" style="fill:#42342E;fill:color(display-p3 0.2588 0.2039 0.1804);fill-opacity:1;"/>
<path d="M132.204 70.9036C132.176 70.9036 132.147 70.8972 132.12 70.8842C132.015 70.8341 131.968 70.7019 132.014 70.5886L132.126 70.3167C132.172 70.2042 132.295 70.1525 132.4 70.203C132.505 70.2531 132.552 70.3853 132.506 70.4981L132.394 70.7701C132.36 70.8539 132.284 70.9036 132.204 70.9036Z" fill="#42342E" style="fill:#42342E;fill:color(display-p3 0.2588 0.2039 0.1804);fill-opacity:1;"/>
<path d="M132.716 70.9036C132.688 70.9036 132.659 70.8972 132.632 70.8842C132.527 70.8341 132.479 70.7019 132.525 70.5886L132.637 70.3167C132.684 70.2042 132.807 70.1525 132.912 70.203C133.017 70.2531 133.064 70.3853 133.018 70.4981L132.906 70.7701C132.872 70.8539 132.796 70.9036 132.716 70.9036Z" fill="#42342E" style="fill:#42342E;fill:color(display-p3 0.2588 0.2039 0.1804);fill-opacity:1;"/>
<path d="M133.345 70.9686C133.316 70.9686 133.288 70.9623 133.261 70.9497C133.156 70.8996 133.108 70.7674 133.154 70.6541L133.266 70.3821C133.313 70.2693 133.435 70.2188 133.541 70.2676C133.646 70.3177 133.694 70.4499 133.647 70.5632L133.535 70.8352C133.5 70.9189 133.424 70.9686 133.345 70.9686Z" fill="#42342E" style="fill:#42342E;fill:color(display-p3 0.2588 0.2039 0.1804);fill-opacity:1;"/>
<path d="M133.739 71.0384C133.711 71.0384 133.682 71.0325 133.655 71.019C133.55 70.9689 133.503 70.8367 133.549 70.7235L133.661 70.4515C133.707 70.3386 133.83 70.2877 133.936 70.3374C134.041 70.3875 134.088 70.5197 134.041 70.6325L133.929 70.9045C133.895 70.9891 133.819 71.0384 133.739 71.0384Z" fill="#42342E" style="fill:#42342E;fill:color(display-p3 0.2588 0.2039 0.1804);fill-opacity:1;"/>
<path d="M135.739 71.0384C135.711 71.0384 135.682 71.0325 135.655 71.019C135.55 70.9689 135.503 70.8367 135.549 70.7235L135.661 70.4515C135.707 70.3386 135.83 70.2877 135.936 70.3374C136.041 70.3875 136.088 70.5197 136.041 70.6325L135.929 70.9045C135.895 70.9891 135.819 71.0384 135.739 71.0384Z" fill="#42342E" style="fill:#42342E;fill:color(display-p3 0.2588 0.2039 0.1804);fill-opacity:1;"/>
<path d="M136.368 70.9036C136.34 70.9036 136.312 70.8972 136.284 70.8842C136.179 70.8341 136.131 70.7019 136.178 70.5886L136.29 70.3167C136.337 70.2042 136.459 70.1525 136.565 70.203C136.67 70.2531 136.717 70.3853 136.671 70.4981L136.559 70.7701C136.524 70.8539 136.448 70.9036 136.368 70.9036Z" fill="#42342E" style="fill:#42342E;fill:color(display-p3 0.2588 0.2039 0.1804);fill-opacity:1;"/>
<path d="M136.86 70.9036C136.832 70.9036 136.804 70.8972 136.776 70.8842C136.671 70.8341 136.624 70.7019 136.67 70.5886L136.782 70.3167C136.829 70.2042 136.951 70.1525 137.056 70.203C137.162 70.2531 137.209 70.3853 137.162 70.4981L137.051 70.7701C137.016 70.8539 136.94 70.9036 136.86 70.9036Z" fill="#42342E" style="fill:#42342E;fill:color(display-p3 0.2588 0.2039 0.1804);fill-opacity:1;"/>
<path d="M137.298 70.9028C137.269 70.9028 137.241 70.8964 137.214 70.8838C137.109 70.8337 137.061 70.7015 137.107 70.5887L137.219 70.3167C137.266 70.2039 137.388 70.1534 137.494 70.2022C137.599 70.2523 137.646 70.3845 137.6 70.4973L137.488 70.7693C137.454 70.8531 137.378 70.9028 137.298 70.9028Z" fill="#42342E" style="fill:#42342E;fill:color(display-p3 0.2588 0.2039 0.1804);fill-opacity:1;"/>
<path d="M137.759 70.9036C137.73 70.9036 137.702 70.8972 137.674 70.8842C137.569 70.8341 137.522 70.7019 137.569 70.5886L137.681 70.3167C137.727 70.2042 137.85 70.1525 137.955 70.203C138.06 70.2531 138.107 70.3853 138.061 70.4981L137.949 70.7701C137.915 70.8539 137.838 70.9036 137.759 70.9036Z" fill="#42342E" style="fill:#42342E;fill:color(display-p3 0.2588 0.2039 0.1804);fill-opacity:1;"/>
<path d="M138.188 71.1055C138.16 71.1055 138.131 71.0996 138.104 71.0862C137.999 71.0365 137.952 70.9043 137.998 70.791L138.11 70.519C138.157 70.4062 138.28 70.3548 138.385 70.4049C138.49 70.4546 138.537 70.5868 138.491 70.7001L138.379 70.9721C138.344 71.0558 138.268 71.1055 138.188 71.1055Z" fill="#42342E" style="fill:#42342E;fill:color(display-p3 0.2588 0.2039 0.1804);fill-opacity:1;"/>
<path d="M138.614 71.1055C138.586 71.1055 138.558 71.0996 138.53 71.0862C138.425 71.0365 138.378 70.9043 138.424 70.791L138.536 70.519C138.583 70.4062 138.706 70.3548 138.81 70.4049C138.916 70.4546 138.963 70.5868 138.917 70.7001L138.805 70.9721C138.771 71.0558 138.695 71.1055 138.614 71.1055Z" fill="#42342E" style="fill:#42342E;fill:color(display-p3 0.2588 0.2039 0.1804);fill-opacity:1;"/>
<path d="M131.017 71.1055C130.989 71.1055 130.96 71.0996 130.933 71.0862C130.827 71.0365 130.78 70.9043 130.827 70.791L130.938 70.519C130.985 70.4062 131.108 70.3548 131.213 70.4049C131.318 70.4546 131.365 70.5868 131.319 70.7001L131.207 70.9721C131.172 71.0558 131.097 71.1055 131.017 71.1055Z" fill="#42342E" style="fill:#42342E;fill:color(display-p3 0.2588 0.2039 0.1804);fill-opacity:1;"/>
<path d="M130.442 71.3108C130.414 71.3108 130.386 71.3045 130.358 71.2914C130.253 71.2417 130.206 71.1095 130.252 70.9963L130.364 70.7243C130.411 70.6115 130.534 70.5597 130.639 70.6102C130.744 70.6599 130.791 70.7921 130.745 70.9053L130.633 71.1773C130.599 71.2611 130.522 71.3108 130.442 71.3108Z" fill="#42342E" style="fill:#42342E;fill:color(display-p3 0.2588 0.2039 0.1804);fill-opacity:1;"/>
<path d="M133.403 74.925C133.375 74.925 133.346 74.9192 133.319 74.9057C133.214 74.856 133.167 74.7238 133.213 74.6105L133.325 74.3386C133.372 74.2257 133.495 74.1739 133.6 74.2245C133.705 74.2741 133.752 74.4064 133.706 74.5196L133.594 74.7916C133.559 74.8754 133.483 74.925 133.403 74.925Z" fill="#42342E" style="fill:#42342E;fill:color(display-p3 0.2588 0.2039 0.1804);fill-opacity:1;"/>
<path d="M133.845 75.1955C133.817 75.1955 133.788 75.1892 133.761 75.1762C133.655 75.1265 133.608 74.9943 133.655 74.8811L133.767 74.6091C133.813 74.4962 133.936 74.4444 134.041 74.495C134.146 74.5446 134.194 74.6773 134.147 74.7901L134.035 75.0621C134.001 75.1459 133.925 75.1955 133.845 75.1955Z" fill="#42342E" style="fill:#42342E;fill:color(display-p3 0.2588 0.2039 0.1804);fill-opacity:1;"/>
<path d="M134.388 75.3313C134.36 75.3313 134.331 75.3255 134.304 75.312C134.198 75.2623 134.151 75.1301 134.198 75.0168L134.31 74.7449C134.356 74.6316 134.479 74.5803 134.584 74.6308C134.689 74.6805 134.737 74.8127 134.69 74.9259L134.578 75.1979C134.544 75.2817 134.468 75.3313 134.388 75.3313Z" fill="#42342E" style="fill:#42342E;fill:color(display-p3 0.2588 0.2039 0.1804);fill-opacity:1;"/>
<path d="M134.985 75.3313C134.957 75.3313 134.928 75.3255 134.901 75.312C134.796 75.2623 134.749 75.1301 134.795 75.0168L134.907 74.7449C134.953 74.6316 135.077 74.5803 135.182 74.6308C135.287 74.6805 135.334 74.8127 135.288 74.9259L135.176 75.1979C135.141 75.2817 135.065 75.3313 134.985 75.3313Z" fill="#42342E" style="fill:#42342E;fill:color(display-p3 0.2588 0.2039 0.1804);fill-opacity:1;"/>
<path d="M135.579 75.1955C135.551 75.1955 135.522 75.1892 135.495 75.1762C135.39 75.1265 135.342 74.9943 135.389 74.8811L135.501 74.6091C135.547 74.4962 135.671 74.4444 135.775 74.495C135.881 74.5446 135.928 74.6773 135.881 74.7901L135.769 75.0621C135.735 75.1459 135.659 75.1955 135.579 75.1955Z" fill="#42342E" style="fill:#42342E;fill:color(display-p3 0.2588 0.2039 0.1804);fill-opacity:1;"/>
<path d="M135.903 75.1108C135.875 75.1108 135.846 75.1045 135.819 75.0915C135.714 75.0414 135.667 74.9092 135.713 74.7959L135.825 74.5239C135.871 74.4111 135.994 74.3597 136.1 74.4098C136.205 74.4599 136.252 74.5921 136.206 74.705L136.094 74.977C136.059 75.0612 135.983 75.1108 135.903 75.1108Z" fill="#42342E" style="fill:#42342E;fill:color(display-p3 0.2588 0.2039 0.1804);fill-opacity:1;"/>
<path d="M137.758 73.9649C137.457 74.3354 136.548 76.5302 134.389 76.7879C132.23 77.0455 130.652 74.1952 130.1 73.1978C129.547 72.2004 128.621 71.739 128.294 71.0881C127.041 68.5961 126.894 67.0092 126.746 66.3748C126.599 65.7399 126.894 64.2722 126.894 63.3796C126.894 62.487 127.373 61.0985 127.889 60.4636C128.404 59.8291 127.889 58.0436 127.778 57.1708C127.667 56.298 128.736 54.8699 129.883 54.7908C130.567 54.7432 132.359 55.4762 132.67 55.6395C132.699 55.6547 132.724 55.6707 132.75 55.6909C132.97 55.8593 133.593 56.5498 134.622 56.4968C135.595 56.4462 136.233 55.8223 136.685 55.5448C137.137 55.2669 138.897 54.5529 139.362 54.5133C139.827 54.4737 140.269 55.0686 140.269 55.5844C140.269 56.5081 140.36 57.4289 140.541 58.332C140.768 59.4713 141.057 60.9137 141.061 60.9175C141.484 61.3276 141.517 58.3126 141.266 56.4302C140.903 53.7071 139.161 50.6547 134.263 49.8918C134.263 49.8918 129.178 48.9398 126.138 54.2354C123.098 59.5315 128.073 74.1102 129.51 76.014C130.947 77.9183 133.213 78.6324 135.534 77.9183C137.855 77.2043 138.905 74.4074 139.956 72.7414C140.595 71.7276 141.067 70.3614 141.316 69.0579C141.046 69.5876 140.581 70.5403 140.453 71.0877C140.269 71.8741 138.059 73.5948 137.758 73.9649Z" fill="#223A49" style="fill:#223A49;fill:color(display-p3 0.1333 0.2275 0.2863);fill-opacity:1;"/>
<path d="M134.8 81.3956C128.149 81.3956 125.848 78.4704 125.749 78.3411C125.672 78.2397 125.686 78.0902 125.78 78.0068C125.875 77.9243 126.013 77.9382 126.091 78.0393C126.115 78.0704 128.556 81.1439 135.563 80.9068C142.401 80.6816 142.841 78.7327 142.845 78.7129C142.868 78.5866 142.981 78.4978 143.099 78.5209C143.216 78.542 143.298 78.6565 143.282 78.7836C143.252 79.0249 142.778 81.1451 135.576 81.3826C135.311 81.3914 135.052 81.3956 134.8 81.3956Z" fill="#B8C1B8" style="fill:#B8C1B8;fill:color(display-p3 0.7216 0.7569 0.7216);fill-opacity:1;"/>
<path d="M127.768 107.233C127.741 107.233 127.713 107.228 127.686 107.216C124.999 106.059 124.949 102.529 124.949 102.494C124.948 102.363 125.047 102.256 125.169 102.255H125.171C125.292 102.255 125.391 102.36 125.392 102.491C125.392 102.523 125.443 105.738 127.85 106.774C127.964 106.823 128.019 106.961 127.973 107.084C127.939 107.177 127.856 107.233 127.768 107.233Z" fill="white" style="fill:white;fill-opacity:1;"/>
<path d="M146.137 108.717C144.794 108.717 143.952 107.899 143.938 107.884C143.848 107.794 143.843 107.644 143.926 107.548C144.009 107.452 144.149 107.446 144.238 107.535C144.329 107.625 146.488 109.692 149.491 106.384L149.89 105.43C149.94 105.311 150.071 105.257 150.182 105.311C150.294 105.365 150.343 105.506 150.293 105.626L149.878 106.618C149.867 106.643 149.853 106.666 149.835 106.686C148.414 108.263 147.136 108.717 146.137 108.717Z" fill="white" style="fill:white;fill-opacity:1;"/>
<path d="M135.702 87.3194C135.702 87.3194 135.785 85.6829 136.89 85.6534C137.996 85.6236 143.403 85.3954 143.403 85.3954C143.403 85.3954 144.24 85.1571 144.075 86.8437C143.959 88.0364 142.804 97.9708 142.804 97.9708H134.707L135.702 87.3194Z" fill="#203746" style="fill:#203746;fill:color(display-p3 0.1255 0.2157 0.2745);fill-opacity:1;"/>
<path d="M147.86 100.904C147.825 100.589 147.689 100.244 147.558 99.911C147.458 99.6588 147.355 99.3974 147.334 99.2323L147.312 99.0214C147.172 97.6606 146.95 96.1925 146.373 95.6242C145.748 95.0107 145.126 94.0365 144.906 93.4858C144.611 92.7456 143.545 92.2745 143.446 92.2333L140.253 90.59C140.17 90.5525 139.426 90.2296 138.851 90.5332C138.582 90.6751 138.396 90.9315 138.311 91.2738C138.059 92.3006 138.878 93.0248 139.337 93.2593C140.688 94.0062 142.25 94.9926 142.409 95.2625C142.46 95.4162 142.363 95.6709 142.245 95.8755L137.276 93.9051C136.784 93.7696 135.905 93.5696 135.572 93.7447C135.544 93.754 135.453 93.7628 135.386 93.7691C134.864 93.8201 133.643 93.9392 133.718 95.902C133.794 97.8897 133.719 100.905 133.718 100.935C133.714 101.09 133.803 101.229 133.938 101.281L137.073 102.488L141.021 104.314C141.337 104.619 142.86 106.052 143.658 106.206C143.797 106.233 143.937 106.244 144.077 106.244C144.851 106.244 145.606 105.872 145.913 105.541C146.226 105.204 147.345 103.551 147.479 103.19C147.583 102.91 147.928 101.524 147.86 100.904Z" fill="#FFA9A9" style="fill:#FFA9A9;fill:color(display-p3 1.0000 0.6627 0.6627);fill-opacity:1;"/>
<path d="M142.04 98.6038C141.551 98.0472 140.574 98.0847 140.488 98.0897C140.461 98.0893 137.725 98.0278 136.104 97.7954C135.64 97.7289 135.455 97.6342 135.389 97.5875C135.392 97.5833 135.396 97.5782 135.4 97.5736C136.091 97.5171 139.667 97.2287 140.416 97.2565C141.793 97.2974 142.016 96.5391 142.052 96.3038C142.112 95.9219 142.084 95.0959 141.555 94.7018C141.222 94.4538 140.401 94.4576 138.906 94.5553C138.747 94.5654 138.61 94.5742 138.506 94.5793C138.136 94.5969 136.635 94.5936 135.476 94.5877L135.776 94.4311C135.931 94.4327 136.386 94.4391 137.686 94.4601C138.611 94.4748 139.125 94.3464 139.405 94.0294C139.676 93.7242 139.653 93.3398 139.634 93.0013L139.625 92.8388C139.59 91.9365 137.908 91.6969 136.89 91.6338H134.237C134.185 91.6338 134.134 91.6468 134.088 91.6713C133.679 91.8915 132.532 92.4939 132.142 92.6337C131.442 92.8846 130.775 93.3722 130.101 94.1229C129.532 94.7574 128.971 96.1846 128.56 97.2266C128.422 97.5778 128.265 97.9756 128.215 98.0539C128.097 98.2131 127.28 98.7461 126.591 99.144C126.499 99.197 126.436 99.2926 126.42 99.4029C126.409 99.4745 126.166 101.174 126.42 102.935C126.701 104.888 129.338 105.44 129.45 105.462C129.47 105.466 129.491 105.468 129.511 105.468C129.653 105.468 129.782 105.37 129.827 105.22L130.01 104.605C130.392 104.552 131.106 104.445 131.347 104.341C131.614 104.227 134.153 102.886 134.677 102.609C135.262 102.592 138.95 102.478 139.771 102.308C140.588 102.137 140.786 101.728 140.831 101.5C140.881 101.246 140.79 100.991 140.591 100.825C141.182 100.804 142.19 100.636 142.304 99.4959C142.339 99.1486 142.248 98.84 142.04 98.6038Z" fill="#FFA9A9" style="fill:#FFA9A9;fill:color(display-p3 1.0000 0.6627 0.6627);fill-opacity:1;"/>
<path d="M27.69 19.1631H113.739C115.905 19.1631 117.667 21.0602 117.667 23.3922V54.0039C117.667 56.3359 115.905 58.233 113.739 58.233H108.488V63.271C108.488 64.1042 107.856 64.7816 107.08 64.7816C106.667 64.7816 106.276 64.5833 106.009 64.2372L101.361 58.233H27.69C25.5239 58.233 23.7617 56.3359 23.7617 54.0039V23.3922C23.7613 21.0602 25.5239 19.1631 27.69 19.1631Z" fill="#0668E1" style="fill:#0668E1;fill:color(display-p3 0.0235 0.4078 0.8824);fill-opacity:1;"/>
<path d="M58.8183 34.0944H83.5295C83.9017 34.0944 84.2033 33.7694 84.2033 33.369C84.2033 32.9682 83.9017 32.6436 83.5295 32.6436H58.8183C58.446 32.6436 58.1445 32.9686 58.1445 33.369C58.1441 33.7694 58.446 34.0944 58.8183 34.0944Z" fill="#FBFCE9" style="fill:#FBFCE9;fill:color(display-p3 0.9843 0.9882 0.9137);fill-opacity:1;"/>
<path d="M34.1074 39.8991H83.5293C83.9015 39.8991 84.2031 39.5741 84.2031 39.1737C84.2031 38.7729 83.9015 38.4482 83.5293 38.4482H34.1074C33.7351 38.4482 33.4336 38.7733 33.4336 39.1737C33.4336 39.5741 33.7351 39.8991 34.1074 39.8991Z" fill="#FBFCE9" style="fill:#FBFCE9;fill:color(display-p3 0.9843 0.9882 0.9137);fill-opacity:1;"/>
<path d="M34.1074 45.7038H83.5293C83.9015 45.7038 84.2031 45.3787 84.2031 44.9783C84.2031 44.5775 83.9015 44.2529 83.5293 44.2529H34.1074C33.7351 44.2529 33.4336 44.578 33.4336 44.9783C33.4336 45.3787 33.7351 45.7038 34.1074 45.7038Z" fill="#FBFCE9" style="fill:#FBFCE9;fill:color(display-p3 0.9843 0.9882 0.9137);fill-opacity:1;"/>
<path d="M99.3281 49.1742H99.5158C104.644 49.1742 108.801 44.6987 108.801 39.1779V38.9758C108.801 33.455 104.644 28.9795 99.5158 28.9795H99.3281C94.2 28.9795 90.043 33.455 90.043 38.9758V39.1779C90.0426 44.6983 94.2 49.1742 99.3281 49.1742Z" fill="#FBFCE9" style="fill:#FBFCE9;fill:color(display-p3 0.9843 0.9882 0.9137);fill-opacity:1;"/>
<path d="M32.5 150.25H86.25V179.75H20.75V162C20.75 155.511 26.0107 150.25 32.5 150.25Z" fill="#E8F2FF" style="fill:#E8F2FF;fill:color(display-p3 0.9106 0.9506 1.0000);fill-opacity:1;"/>
<path d="M32.5 150.25H86.25V179.75H20.75V162C20.75 155.511 26.0107 150.25 32.5 150.25Z" stroke="#0668E1" style="stroke:#0668E1;stroke:color(display-p3 0.0235 0.4078 0.8824);stroke-opacity:1;" stroke-width="0.5"/>
<path d="M37.252 159.752C37.796 159.752 38.388 159.784 39.028 159.848C39.668 159.901 40.292 160.013 40.9 160.184L40.74 161.816C40.2707 161.795 39.7213 161.779 39.092 161.768C38.4627 161.757 37.844 161.752 37.236 161.752C36.9373 161.752 36.6813 161.763 36.468 161.784C36.2653 161.805 36.1 161.848 35.972 161.912C35.844 161.976 35.7533 162.083 35.7 162.232C35.6467 162.371 35.62 162.563 35.62 162.808C35.62 163.181 35.7053 163.453 35.876 163.624C36.0573 163.795 36.3613 163.949 36.788 164.088L38.916 164.776C39.8013 165.075 40.4147 165.48 40.756 165.992C41.0973 166.504 41.268 167.176 41.268 168.008C41.268 168.637 41.1933 169.16 41.044 169.576C40.8947 169.992 40.66 170.317 40.34 170.552C40.02 170.787 39.5987 170.952 39.076 171.048C38.5533 171.155 37.9133 171.208 37.156 171.208C36.7933 171.208 36.276 171.181 35.604 171.128C34.932 171.085 34.1693 170.968 33.316 170.776L33.46 169.048C34.1 169.059 34.6493 169.075 35.108 169.096C35.5667 169.107 35.9613 169.117 36.292 169.128C36.6227 169.128 36.9107 169.128 37.156 169.128C37.5933 169.128 37.9293 169.101 38.164 169.048C38.4093 168.995 38.58 168.888 38.676 168.728C38.772 168.568 38.82 168.339 38.82 168.04C38.82 167.773 38.7827 167.565 38.708 167.416C38.644 167.267 38.532 167.144 38.372 167.048C38.212 166.952 38.004 166.867 37.748 166.792L35.508 166.024C34.6547 165.725 34.052 165.325 33.7 164.824C33.3587 164.323 33.188 163.656 33.188 162.824C33.188 162.195 33.2627 161.677 33.412 161.272C33.572 160.867 33.812 160.557 34.132 160.344C34.452 160.12 34.868 159.965 35.38 159.88C35.9027 159.795 36.5267 159.752 37.252 159.752ZM46.579 162.888C47.9123 162.888 48.867 163.117 49.443 163.576C50.0297 164.024 50.323 164.696 50.323 165.592C50.3337 166.307 50.1523 166.845 49.779 167.208C49.4057 167.571 48.7603 167.752 47.843 167.752H43.427V166.424H47.203C47.555 166.424 47.779 166.349 47.875 166.2C47.9817 166.04 48.035 165.821 48.035 165.544C48.035 165.171 47.9283 164.915 47.715 164.776C47.5123 164.627 47.1603 164.552 46.659 164.552C46.2217 164.541 45.8803 164.6 45.635 164.728C45.3897 164.845 45.219 165.069 45.123 165.4C45.027 165.731 44.979 166.211 44.979 166.84C44.979 167.501 45.0377 168.013 45.155 168.376C45.2723 168.728 45.4697 168.973 45.747 169.112C46.035 169.251 46.4297 169.32 46.931 169.32C47.2937 169.32 47.7417 169.309 48.275 169.288C48.819 169.256 49.363 169.208 49.907 169.144L50.131 170.6C49.8217 170.749 49.4697 170.867 49.075 170.952C48.6803 171.037 48.275 171.096 47.859 171.128C47.443 171.171 47.043 171.192 46.659 171.192C45.6563 171.192 44.851 171.048 44.243 170.76C43.635 170.461 43.1923 170.008 42.915 169.4C42.6483 168.792 42.515 168.013 42.515 167.064C42.515 166.029 42.6483 165.208 42.915 164.6C43.1923 163.992 43.6297 163.555 44.227 163.288C44.8243 163.021 45.6083 162.888 46.579 162.888ZM56.0423 162.888C56.7036 162.888 57.2636 162.979 57.7223 163.16C58.1809 163.331 58.5276 163.629 58.7623 164.056C59.0076 164.472 59.1302 165.043 59.1302 165.768V171H57.2583L56.9223 169.288L56.7623 169.048V165.768C56.7516 165.384 56.6556 165.112 56.4743 164.952C56.3036 164.781 55.9783 164.696 55.4983 164.696C55.0823 164.696 54.5703 164.712 53.9623 164.744C53.3543 164.765 52.7303 164.797 52.0903 164.84L51.8823 163.272C52.2663 163.197 52.7036 163.133 53.1943 163.08C53.6956 163.027 54.1969 162.984 54.6983 162.952C55.1996 162.909 55.6476 162.888 56.0423 162.888ZM58.1543 166.136L58.1383 167.464H54.6183C54.3303 167.475 54.1223 167.549 53.9943 167.688C53.8769 167.827 53.8183 168.013 53.8183 168.248V168.632C53.8183 168.899 53.8929 169.107 54.0423 169.256C54.1916 169.395 54.4316 169.464 54.7623 169.464C55.0396 169.464 55.3383 169.405 55.6583 169.288C55.9889 169.171 56.3143 169.005 56.6343 168.792C56.9543 168.579 57.2423 168.328 57.4983 168.04V169.064C57.4023 169.224 57.2583 169.427 57.0663 169.672C56.8743 169.907 56.6343 170.141 56.3463 170.376C56.0583 170.6 55.7223 170.792 55.3383 170.952C54.9543 171.101 54.5169 171.176 54.0263 171.176C53.5569 171.176 53.1249 171.096 52.7303 170.936C52.3463 170.765 52.0423 170.515 51.8183 170.184C51.5943 169.853 51.4823 169.443 51.4823 168.952V168.136C51.4823 167.507 51.6956 167.016 52.1223 166.664C52.5489 166.312 53.1356 166.136 53.8823 166.136H58.1543ZM71.0073 162.888C71.7219 162.888 72.2659 163.075 72.6393 163.448C73.0126 163.821 73.1993 164.365 73.1993 165.08V171H70.8633V165.816C70.8526 165.485 70.7833 165.251 70.6553 165.112C70.5273 164.963 70.3033 164.888 69.9833 164.888C69.8019 164.888 69.6206 164.915 69.4392 164.968C69.2686 165.011 69.0713 165.091 68.8472 165.208C68.6233 165.325 68.3513 165.485 68.0312 165.688L67.9033 164.392C68.4153 163.891 68.9166 163.517 69.4073 163.272C69.9086 163.016 70.4419 162.888 71.0073 162.888ZM62.8793 163.096L63.1193 164.664L63.3593 164.872V171H61.0073V163.096H62.8793ZM66.0793 162.888C66.7833 162.888 67.3166 163.075 67.6793 163.448C68.0526 163.811 68.2393 164.355 68.2393 165.08V171H65.9673V165.816C65.9673 165.475 65.8926 165.235 65.7433 165.096C65.6046 164.957 65.3859 164.888 65.0873 164.888C64.9059 164.888 64.7246 164.915 64.5433 164.968C64.3726 165.011 64.1699 165.091 63.9353 165.208C63.7113 165.325 63.4339 165.485 63.1033 165.688L62.9593 164.392C63.4819 163.891 63.9886 163.517 64.4793 163.272C64.9699 163.016 65.5033 162.888 66.0793 162.888Z" fill="#0668E1" style="fill:#0668E1;fill:color(display-p3 0.0235 0.4078 0.8824);fill-opacity:1;"/>
<path d="M294.5 150.25C300.989 150.25 306.25 155.511 306.25 162V179.75H86.75V150.25H294.5Z" fill="#E8F2FF" style="fill:#E8F2FF;fill:color(display-p3 0.9106 0.9506 1.0000);fill-opacity:1;"/>
<path d="M294.5 150.25C300.989 150.25 306.25 155.511 306.25 162V179.75H86.75V150.25H294.5Z" stroke="#0668E1" style="stroke:#0668E1;stroke:color(display-p3 0.0235 0.4078 0.8824);stroke-opacity:1;" stroke-width="0.5"/>
<path d="M103.796 159.816C104.713 159.816 105.455 159.912 106.02 160.104C106.596 160.296 107.012 160.627 107.268 161.096C107.535 161.555 107.668 162.205 107.668 163.048C107.668 163.603 107.599 164.077 107.46 164.472C107.332 164.856 107.113 165.165 106.804 165.4C106.505 165.624 106.1 165.768 105.588 165.832V165.912C105.769 165.955 105.956 166.04 106.148 166.168C106.351 166.285 106.532 166.456 106.692 166.68C106.863 166.904 106.991 167.192 107.076 167.544L108.084 171H105.972L105.06 167.592C104.943 167.208 104.783 166.941 104.58 166.792C104.377 166.632 104.1 166.552 103.748 166.552C103.055 166.552 102.463 166.552 101.972 166.552C101.481 166.541 101.071 166.531 100.74 166.52C100.42 166.509 100.137 166.504 99.892 166.504L99.94 164.984H103.748C104.228 164.973 104.607 164.92 104.884 164.824C105.161 164.717 105.359 164.536 105.476 164.28C105.593 164.013 105.652 163.64 105.652 163.16C105.652 162.691 105.593 162.328 105.476 162.072C105.359 161.816 105.161 161.64 104.884 161.544C104.607 161.437 104.228 161.384 103.748 161.384C102.809 161.384 102.004 161.389 101.332 161.4C100.66 161.411 100.201 161.421 99.956 161.432L99.732 159.96C100.159 159.917 100.559 159.885 100.932 159.864C101.316 159.843 101.732 159.832 102.18 159.832C102.628 159.821 103.167 159.816 103.796 159.816ZM101.7 159.96V171H99.732V159.96H101.7ZM113.17 162.952C114.439 162.952 115.351 163.176 115.906 163.624C116.461 164.061 116.743 164.712 116.754 165.576C116.765 166.291 116.594 166.835 116.242 167.208C115.901 167.571 115.33 167.752 114.53 167.752H110.05V166.552H114.002C114.365 166.552 114.594 166.456 114.69 166.264C114.797 166.072 114.85 165.837 114.85 165.56C114.839 165.123 114.711 164.819 114.466 164.648C114.231 164.477 113.826 164.392 113.25 164.392C112.749 164.392 112.359 164.461 112.082 164.6C111.805 164.739 111.607 164.989 111.49 165.352C111.383 165.715 111.33 166.237 111.33 166.92C111.33 167.645 111.399 168.205 111.538 168.6C111.677 168.995 111.906 169.267 112.226 169.416C112.546 169.555 112.973 169.624 113.506 169.624C113.901 169.624 114.354 169.608 114.866 169.576C115.389 169.544 115.89 169.501 116.37 169.448L116.562 170.68C116.274 170.797 115.943 170.893 115.57 170.968C115.197 171.043 114.807 171.096 114.402 171.128C114.007 171.171 113.634 171.192 113.282 171.192C112.322 171.192 111.549 171.053 110.962 170.776C110.386 170.488 109.965 170.04 109.698 169.432C109.442 168.824 109.314 168.04 109.314 167.08C109.314 166.045 109.442 165.229 109.698 164.632C109.965 164.024 110.381 163.592 110.946 163.336C111.522 163.08 112.263 162.952 113.17 162.952ZM122.014 162.952C122.281 162.952 122.574 162.963 122.894 162.984C123.214 163.005 123.54 163.048 123.87 163.112C124.201 163.176 124.5 163.267 124.766 163.384L124.542 164.6C124.148 164.579 123.753 164.563 123.358 164.552C122.974 164.541 122.638 164.536 122.35 164.536C121.806 164.536 121.374 164.611 121.054 164.76C120.745 164.899 120.521 165.155 120.382 165.528C120.244 165.891 120.174 166.403 120.174 167.064C120.174 167.725 120.244 168.243 120.382 168.616C120.521 168.979 120.745 169.235 121.054 169.384C121.374 169.533 121.806 169.608 122.35 169.608C122.51 169.608 122.718 169.603 122.974 169.592C123.241 169.581 123.524 169.565 123.822 169.544C124.132 169.523 124.43 169.496 124.718 169.464L124.91 170.712C124.494 170.883 124.03 171.005 123.518 171.08C123.006 171.155 122.5 171.192 121.998 171.192C121.06 171.192 120.308 171.059 119.742 170.792C119.177 170.525 118.766 170.093 118.51 169.496C118.265 168.888 118.142 168.077 118.142 167.064C118.142 166.051 118.27 165.245 118.526 164.648C118.782 164.04 119.193 163.608 119.758 163.352C120.324 163.085 121.076 162.952 122.014 162.952ZM127.998 163.144L128.254 164.68L128.43 164.904V171H126.494V163.144H127.998ZM131.838 162.952L131.646 164.744H131.086C130.67 164.744 130.249 164.813 129.822 164.952C129.396 165.091 128.862 165.299 128.222 165.576L128.094 164.44C128.649 163.971 129.214 163.608 129.79 163.352C130.366 163.085 130.921 162.952 131.454 162.952H131.838ZM135.039 163.144V168.456C135.028 168.851 135.103 169.133 135.263 169.304C135.433 169.475 135.705 169.56 136.079 169.56C136.452 169.56 136.825 169.48 137.199 169.32C137.572 169.16 138.025 168.92 138.559 168.6L138.751 169.752C138.153 170.232 137.577 170.595 137.023 170.84C136.468 171.085 135.892 171.208 135.295 171.208C133.833 171.208 133.103 170.488 133.103 169.048V163.144H135.039ZM140.303 163.144V171H138.767L138.559 169.48L138.367 169.256V163.144H140.303ZM144.463 163.144V171H142.543V163.144H144.463ZM143.935 159.736C144.319 159.736 144.511 159.928 144.511 160.312V161.208C144.511 161.592 144.319 161.784 143.935 161.784H143.071C142.687 161.784 142.495 161.592 142.495 161.208V160.312C142.495 159.928 142.687 159.736 143.071 159.736H143.935ZM149.289 160.904V168.632C149.289 168.952 149.359 169.187 149.497 169.336C149.647 169.475 149.897 169.544 150.249 169.544H151.337L151.545 170.904C151.364 170.957 151.145 171.005 150.889 171.048C150.633 171.091 150.383 171.117 150.137 171.128C149.892 171.149 149.684 171.16 149.513 171.16C148.831 171.16 148.297 170.979 147.913 170.616C147.54 170.243 147.353 169.709 147.353 169.016V160.904H149.289ZM151.625 163.144V164.488H145.961V163.224L147.497 163.144H151.625ZM156.561 162.952C157.83 162.952 158.742 163.176 159.297 163.624C159.851 164.061 160.134 164.712 160.145 165.576C160.155 166.291 159.985 166.835 159.633 167.208C159.291 167.571 158.721 167.752 157.921 167.752H153.441V166.552H157.393C157.755 166.552 157.985 166.456 158.081 166.264C158.187 166.072 158.241 165.837 158.241 165.56C158.23 165.123 158.102 164.819 157.857 164.648C157.622 164.477 157.217 164.392 156.641 164.392C156.139 164.392 155.75 164.461 155.473 164.6C155.195 164.739 154.998 164.989 154.881 165.352C154.774 165.715 154.721 166.237 154.721 166.92C154.721 167.645 154.79 168.205 154.929 168.6C155.067 168.995 155.297 169.267 155.617 169.416C155.937 169.555 156.363 169.624 156.897 169.624C157.291 169.624 157.745 169.608 158.257 169.576C158.779 169.544 159.281 169.501 159.761 169.448L159.953 170.68C159.665 170.797 159.334 170.893 158.961 170.968C158.587 171.043 158.198 171.096 157.793 171.128C157.398 171.171 157.025 171.192 156.673 171.192C155.713 171.192 154.939 171.053 154.353 170.776C153.777 170.488 153.355 170.04 153.089 169.432C152.833 168.824 152.705 168.04 152.705 167.08C152.705 166.045 152.833 165.229 153.089 164.632C153.355 164.024 153.771 163.592 154.337 163.336C154.913 163.08 155.654 162.952 156.561 162.952ZM163.389 163.144L163.645 164.68L163.821 164.904V171H161.885V163.144H163.389ZM167.229 162.952L167.037 164.744H166.477C166.061 164.744 165.64 164.813 165.213 164.952C164.786 165.091 164.253 165.299 163.613 165.576L163.485 164.44C164.04 163.971 164.605 163.608 165.181 163.352C165.757 163.085 166.312 162.952 166.845 162.952H167.229Z" fill="#0668E1" style="fill:#0668E1;fill:color(display-p3 0.0235 0.4078 0.8824);fill-opacity:1;"/>
<path d="M195.501 165H205.223" stroke="#0668E1" style="stroke:#0668E1;stroke:color(display-p3 0.0235 0.4078 0.8824);stroke-opacity:1;" stroke-width="1.24993" stroke-linecap="round" stroke-linejoin="round"/>
<path d="M201.611 162L205.5 165L201.611 168" stroke="#0668E1" style="stroke:#0668E1;stroke:color(display-p3 0.0235 0.4078 0.8824);stroke-opacity:1;" stroke-width="1.24993" stroke-linecap="round" stroke-linejoin="round"/>
<path d="M191.499 165H181.777" stroke="#0668E1" style="stroke:#0668E1;stroke:color(display-p3 0.0235 0.4078 0.8824);stroke-opacity:1;" stroke-width="1.24993" stroke-linecap="round" stroke-linejoin="round"/>
<path d="M185.389 162L181.5 165L185.389 168" stroke="#0668E1" style="stroke:#0668E1;stroke:color(display-p3 0.0235 0.4078 0.8824);stroke-opacity:1;" stroke-width="1.24993" stroke-linecap="round" stroke-linejoin="round"/>
<path d="M224.876 159.768C225.377 159.768 225.804 159.784 226.156 159.816C226.508 159.837 226.833 159.875 227.132 159.928C227.431 159.971 227.74 160.035 228.06 160.12L227.884 161.608C227.553 161.587 227.244 161.571 226.956 161.56C226.668 161.539 226.359 161.523 226.028 161.512C225.708 161.501 225.324 161.496 224.876 161.496C224.257 161.496 223.772 161.619 223.42 161.864C223.068 162.109 222.817 162.52 222.668 163.096C222.529 163.672 222.46 164.467 222.46 165.48C222.46 166.493 222.529 167.288 222.668 167.864C222.817 168.44 223.068 168.851 223.42 169.096C223.772 169.341 224.257 169.464 224.876 169.464C225.591 169.464 226.188 169.453 226.668 169.432C227.159 169.4 227.639 169.357 228.108 169.304L228.284 170.776C227.804 170.925 227.308 171.032 226.796 171.096C226.284 171.16 225.644 171.192 224.876 171.192C223.767 171.192 222.881 171.011 222.22 170.648C221.559 170.275 221.079 169.672 220.78 168.84C220.492 168.008 220.348 166.888 220.348 165.48C220.348 164.072 220.492 162.952 220.78 162.12C221.079 161.288 221.559 160.691 222.22 160.328C222.881 159.955 223.767 159.768 224.876 159.768ZM233.821 162.952C234.451 162.952 234.984 163.037 235.421 163.208C235.859 163.368 236.184 163.645 236.397 164.04C236.621 164.435 236.733 164.979 236.733 165.672V171H235.197L234.925 169.304L234.781 169.08V165.656C234.781 165.24 234.685 164.941 234.493 164.76C234.301 164.568 233.933 164.472 233.389 164.472C232.984 164.472 232.472 164.488 231.853 164.52C231.245 164.552 230.632 164.595 230.013 164.648L229.837 163.32C230.211 163.245 230.632 163.181 231.101 163.128C231.571 163.075 232.045 163.032 232.525 163C233.005 162.968 233.437 162.952 233.821 162.952ZM235.901 166.168L235.885 167.368H232.285C231.965 167.379 231.736 167.464 231.597 167.624C231.459 167.784 231.389 168.003 231.389 168.28V168.712C231.389 169.032 231.475 169.272 231.645 169.432C231.816 169.592 232.083 169.672 232.445 169.672C232.733 169.672 233.053 169.619 233.405 169.512C233.757 169.395 234.104 169.224 234.445 169C234.797 168.776 235.112 168.509 235.389 168.2V169.208C235.283 169.368 235.128 169.56 234.925 169.784C234.723 169.997 234.472 170.211 234.173 170.424C233.885 170.637 233.549 170.813 233.165 170.952C232.792 171.091 232.376 171.16 231.917 171.16C231.448 171.16 231.027 171.08 230.653 170.92C230.28 170.749 229.987 170.504 229.773 170.184C229.56 169.853 229.453 169.448 229.453 168.968V168.136C229.453 167.517 229.656 167.037 230.061 166.696C230.477 166.344 231.043 166.168 231.757 166.168H235.901ZM244.006 162.952C245.467 162.952 246.198 163.672 246.198 165.112V171H244.262V165.704C244.262 165.277 244.187 164.984 244.038 164.824C243.889 164.664 243.638 164.584 243.286 164.584C242.891 164.584 242.486 164.675 242.07 164.856C241.654 165.027 241.153 165.277 240.566 165.608L240.486 164.44C241.073 163.96 241.659 163.592 242.246 163.336C242.843 163.08 243.43 162.952 244.006 162.952ZM240.422 163.144L240.614 164.68L240.774 164.904V171H238.838V163.144H240.422ZM250.978 162.952C251.512 162.952 252.034 163.027 252.546 163.176C253.058 163.315 253.522 163.549 253.938 163.88L253.81 164.856C253.394 164.739 253.021 164.637 252.69 164.552C252.36 164.467 251.992 164.424 251.586 164.424C251.202 164.424 250.893 164.493 250.658 164.632C250.434 164.76 250.264 165.011 250.146 165.384C250.04 165.757 249.986 166.301 249.986 167.016C249.986 167.699 250.04 168.227 250.146 168.6C250.253 168.963 250.418 169.219 250.642 169.368C250.877 169.507 251.17 169.576 251.522 169.576C251.81 169.576 252.066 169.544 252.29 169.48C252.514 169.405 252.744 169.293 252.978 169.144C253.213 168.995 253.485 168.813 253.794 168.6L253.954 169.688C253.592 170.104 253.144 170.461 252.61 170.76C252.088 171.048 251.48 171.192 250.786 171.192C249.784 171.192 249.069 170.84 248.642 170.136C248.216 169.421 248.002 168.387 248.002 167.032C248.002 165.997 248.109 165.187 248.322 164.6C248.546 164.003 248.877 163.581 249.314 163.336C249.762 163.08 250.317 162.952 250.978 162.952ZM255.522 159.8V171H254.002L253.794 169.592L253.586 169.432V164.184L253.682 163.96C253.64 163.651 253.613 163.341 253.602 163.032C253.592 162.712 253.586 162.387 253.586 162.056V159.8H255.522ZM259.697 163.144V171H257.777V163.144H259.697ZM259.169 159.736C259.553 159.736 259.745 159.928 259.745 160.312V161.208C259.745 161.592 259.553 161.784 259.169 161.784H258.305C257.921 161.784 257.729 161.592 257.729 161.208V160.312C257.729 159.928 257.921 159.736 258.305 159.736H259.169ZM264.588 162.952C265.121 162.952 265.644 163.027 266.156 163.176C266.668 163.315 267.132 163.549 267.548 163.88L267.42 164.856C267.004 164.739 266.63 164.637 266.3 164.552C265.969 164.467 265.601 164.424 265.196 164.424C264.812 164.424 264.502 164.493 264.268 164.632C264.044 164.76 263.873 165.011 263.756 165.384C263.649 165.757 263.596 166.301 263.596 167.016C263.596 167.699 263.649 168.227 263.756 168.6C263.862 168.963 264.028 169.219 264.252 169.368C264.486 169.507 264.78 169.576 265.132 169.576C265.42 169.576 265.676 169.544 265.9 169.48C266.124 169.405 266.353 169.293 266.588 169.144C266.822 168.995 267.094 168.813 267.404 168.6L267.564 169.688C267.201 170.104 266.753 170.461 266.22 170.76C265.697 171.048 265.089 171.192 264.396 171.192C263.393 171.192 262.678 170.84 262.252 170.136C261.825 169.421 261.612 168.387 261.612 167.032C261.612 165.997 261.718 165.187 261.932 164.6C262.156 164.003 262.486 163.581 262.924 163.336C263.372 163.08 263.926 162.952 264.588 162.952ZM269.132 159.8V171H267.612L267.404 169.592L267.196 169.432V164.184L267.292 163.96C267.249 163.651 267.222 163.341 267.212 163.032C267.201 162.712 267.196 162.387 267.196 162.056V159.8H269.132ZM275.274 162.952C275.904 162.952 276.437 163.037 276.874 163.208C277.312 163.368 277.637 163.645 277.85 164.04C278.074 164.435 278.186 164.979 278.186 165.672V171H276.65L276.378 169.304L276.234 169.08V165.656C276.234 165.24 276.138 164.941 275.946 164.76C275.754 164.568 275.386 164.472 274.842 164.472C274.437 164.472 273.925 164.488 273.306 164.52C272.698 164.552 272.085 164.595 271.466 164.648L271.29 163.32C271.664 163.245 272.085 163.181 272.554 163.128C273.024 163.075 273.498 163.032 273.978 163C274.458 162.968 274.89 162.952 275.274 162.952ZM277.354 166.168L277.338 167.368H273.738C273.418 167.379 273.189 167.464 273.05 167.624C272.912 167.784 272.842 168.003 272.842 168.28V168.712C272.842 169.032 272.928 169.272 273.098 169.432C273.269 169.592 273.536 169.672 273.898 169.672C274.186 169.672 274.506 169.619 274.858 169.512C275.21 169.395 275.557 169.224 275.898 169C276.25 168.776 276.565 168.509 276.842 168.2V169.208C276.736 169.368 276.581 169.56 276.378 169.784C276.176 169.997 275.925 170.211 275.626 170.424C275.338 170.637 275.002 170.813 274.618 170.952C274.245 171.091 273.829 171.16 273.37 171.16C272.901 171.16 272.48 171.08 272.106 170.92C271.733 170.749 271.44 170.504 271.226 170.184C271.013 169.853 270.906 169.448 270.906 168.968V168.136C270.906 167.517 271.109 167.037 271.514 166.696C271.93 166.344 272.496 166.168 273.21 166.168H277.354ZM282.883 160.904V168.632C282.883 168.952 282.952 169.187 283.091 169.336C283.24 169.475 283.491 169.544 283.843 169.544H284.931L285.139 170.904C284.958 170.957 284.739 171.005 284.483 171.048C284.227 171.091 283.976 171.117 283.731 171.128C283.486 171.149 283.278 171.16 283.107 171.16C282.424 171.16 281.891 170.979 281.507 170.616C281.134 170.243 280.947 169.709 280.947 169.016V160.904H282.883ZM285.219 163.144V164.488H279.555V163.224L281.091 163.144H285.219ZM290.155 162.952C291.424 162.952 292.336 163.176 292.891 163.624C293.445 164.061 293.728 164.712 293.739 165.576C293.749 166.291 293.579 166.835 293.227 167.208C292.885 167.571 292.315 167.752 291.515 167.752H287.035V166.552H290.987C291.349 166.552 291.579 166.456 291.675 166.264C291.781 166.072 291.835 165.837 291.835 165.56C291.824 165.123 291.696 164.819 291.451 164.648C291.216 164.477 290.811 164.392 290.235 164.392C289.733 164.392 289.344 164.461 289.067 164.6C288.789 164.739 288.592 164.989 288.475 165.352C288.368 165.715 288.315 166.237 288.315 166.92C288.315 167.645 288.384 168.205 288.523 168.6C288.661 168.995 288.891 169.267 289.211 169.416C289.531 169.555 289.957 169.624 290.491 169.624C290.885 169.624 291.339 169.608 291.851 169.576C292.373 169.544 292.875 169.501 293.355 169.448L293.547 170.68C293.259 170.797 292.928 170.893 292.555 170.968C292.181 171.043 291.792 171.096 291.387 171.128C290.992 171.171 290.619 171.192 290.266 171.192C289.307 171.192 288.533 171.053 287.947 170.776C287.371 170.488 286.949 170.04 286.683 169.432C286.427 168.824 286.299 168.04 286.299 167.08C286.299 166.045 286.427 165.229 286.683 164.632C286.949 164.024 287.365 163.592 287.931 163.336C288.507 163.08 289.248 162.952 290.155 162.952Z" fill="#0668E1" style="fill:#0668E1;fill:color(display-p3 0.0235 0.4078 0.8824);fill-opacity:1;"/>
</g>
<rect x="0.5" y="0.5" width="327" height="179" rx="15.5" stroke="#0668E1" style="stroke:#0668E1;stroke:color(display-p3 0.0235 0.4078 0.8824);stroke-opacity:1;"/>
<defs>
<clipPath id="clip0_19085_71705">
<rect width="328" height="180" rx="16" fill="white" style="fill:white;fill-opacity:1;"/>
</clipPath>
</defs>
</svg>
