<svg width="328" height="180" viewBox="0 0 328 180" fill="none" xmlns="http://www.w3.org/2000/svg">
<rect x="0.5" y="0.5" width="327" height="179" rx="15.5" fill="#C7D6FF" style="fill:#C7D6FF;fill:color(display-p3 0.7804 0.8392 1.0000);fill-opacity:1;"/>
<rect x="0.5" y="0.5" width="327" height="179" rx="15.5" stroke="#0668E1" style="stroke:#0668E1;stroke:color(display-p3 0.0235 0.4078 0.8824);stroke-opacity:1;"/>
<path d="M199.949 131.582C219.72 110.364 219.72 75.9639 199.949 54.7464C180.179 33.529 148.124 33.529 128.353 54.7464C108.582 75.9639 108.582 110.364 128.353 131.582C148.124 152.799 180.179 152.799 199.949 131.582Z" fill="#C7D6FF" style="fill:#C7D6FF;fill:color(display-p3 0.7804 0.8392 1.0000);fill-opacity:1;"/>
<g opacity="0.81">
<path d="M158.328 34.3652L164.351 93.1648L168.789 34.3652H158.328Z" fill="url(#paint0_linear_19085_72188)"/>
<path d="M198.839 47.0176L164.355 93.1655L206.236 54.9552L198.839 47.0176Z" fill="url(#paint1_linear_19085_72188)"/>
<path d="M219.146 86.7012L164.355 93.165L219.146 97.9271V86.7012Z" fill="url(#paint2_linear_19085_72188)"/>
<path d="M207.357 130.172L164.355 93.165L199.96 138.11L207.357 130.172Z" fill="url(#paint3_linear_19085_72188)"/>
<path d="M170.379 151.964L164.355 93.165L159.918 151.964H170.379Z" fill="url(#paint4_linear_19085_72188)"/>
<path d="M129.869 139.313L164.353 93.165L122.473 131.375L129.869 139.313Z" fill="url(#paint5_linear_19085_72188)"/>
<path d="M109.562 99.629L164.353 93.1655L109.562 88.4033V99.629Z" fill="url(#paint6_linear_19085_72188)"/>
<path d="M121.352 56.1577L164.353 93.1645L128.748 48.2197L121.352 56.1577Z" fill="url(#paint7_linear_19085_72188)"/>
<path d="M180.044 36.459L164.352 93.165L189.686 40.8117L180.044 36.459Z" fill="url(#paint8_linear_19085_72188)"/>
<path d="M212.811 64.9756L164.352 93.1649L216.761 75.3703L212.811 64.9756Z" fill="url(#paint9_linear_19085_72188)"/>
<path d="M217.191 110.005L164.352 93.165L213.135 120.353L217.191 110.005Z" fill="url(#paint10_linear_19085_72188)"/>
<path d="M190.619 145.17L164.352 93.165L180.933 149.409L190.619 145.17Z" fill="url(#paint11_linear_19085_72188)"/>
<path d="M148.658 149.871L164.35 93.165L139.016 145.518L148.658 149.871Z" fill="url(#paint12_linear_19085_72188)"/>
<path d="M115.892 121.354L164.351 93.165L111.941 110.96L115.892 121.354Z" fill="url(#paint13_linear_19085_72188)"/>
<path d="M111.512 76.3244L164.351 93.1647L115.568 65.9766L111.512 76.3244Z" fill="url(#paint14_linear_19085_72188)"/>
<path d="M138.082 41.1601L164.349 93.165L147.768 36.9209L138.082 41.1601Z" fill="url(#paint15_linear_19085_72188)"/>
</g>
<path d="M203.183 99.2906C203.57 99.2589 203.877 98.929 203.907 98.5133L204.143 96.207L204.38 98.5133C204.409 98.929 204.717 99.2589 205.104 99.2906L206.287 99.5444L205.104 99.7981C204.717 99.8299 204.409 100.16 204.38 100.575L204.143 102.882L203.907 100.575C203.878 100.16 203.57 99.8299 203.183 99.7981L202 99.5444L203.183 99.2906Z" fill="white" style="fill:white;fill-opacity:1;"/>
<path d="M129.054 66.0221C129.441 65.9906 129.748 65.6604 129.778 65.2448L130.014 62.9385L130.251 65.2448C130.28 65.6604 130.588 65.9903 130.975 66.0221L132.158 66.2758L130.975 66.5296C130.588 66.5613 130.28 66.8913 130.251 67.3069L130.014 69.6132L129.778 67.3069C129.749 66.8913 129.441 66.5613 129.054 66.5296L127.871 66.2758L129.054 66.0221Z" fill="white" style="fill:white;fill-opacity:1;"/>
<path d="M192.621 59.3256C193.237 59.2753 193.727 58.7496 193.774 58.0883L194.15 54.417L194.527 58.0883C194.574 58.7496 195.064 59.2753 195.68 59.3256L197.562 59.7298L195.68 60.134C195.064 60.1843 194.574 60.71 194.527 61.3714L194.15 65.0426L193.774 61.3714C193.727 60.71 193.237 60.1843 192.621 60.134L190.738 59.7298L192.621 59.3256Z" fill="white" style="fill:white;fill-opacity:1;"/>
<path d="M120.945 95.6098C121.561 95.5595 122.051 95.0338 122.098 94.3724L122.475 90.7012L122.851 94.3724C122.898 95.0338 123.388 95.5595 124.004 95.6098L125.887 96.014L124.004 96.4182C123.388 96.4685 122.898 96.9942 122.851 97.6555L122.475 101.327L122.098 97.6555C122.051 96.9942 121.561 96.4685 120.945 96.4182L119.062 96.014L120.945 95.6098Z" fill="white" style="fill:white;fill-opacity:1;"/>
<path d="M120.782 45.8863C122.192 45.8863 123.334 44.6602 123.334 43.1478C123.334 41.6353 122.192 40.4092 120.782 40.4092C119.373 40.4092 118.23 41.6353 118.23 43.1478C118.23 44.6602 119.373 45.8863 120.782 45.8863Z" stroke="#8EB9FC" style="stroke:#8EB9FC;stroke:color(display-p3 0.5569 0.7255 0.9882);stroke-opacity:1;" stroke-width="0.404651" stroke-miterlimit="10"/>
<path d="M216.171 91.5543C217.472 90.9723 218.087 89.3689 217.544 87.9728C217.002 86.5768 215.508 85.9169 214.207 86.4989C212.906 87.0809 212.291 88.6844 212.834 90.0804C213.376 91.4765 214.87 92.1363 216.171 91.5543Z" stroke="#8EB9FC" style="stroke:#8EB9FC;stroke:color(display-p3 0.5569 0.7255 0.9882);stroke-opacity:1;" stroke-width="0.404651" stroke-miterlimit="10"/>
<path d="M207.074 46.8302C207.074 47.6926 206.423 48.3919 205.619 48.3919C204.816 48.3919 204.164 47.6926 204.164 46.8302C204.164 45.9678 204.816 45.2686 205.619 45.2686C206.423 45.2686 207.074 45.9678 207.074 46.8302Z" stroke="#8EB9FC" style="stroke:#8EB9FC;stroke:color(display-p3 0.5569 0.7255 0.9882);stroke-opacity:1;" stroke-width="0.404651" stroke-miterlimit="10"/>
<path d="M107.115 94.307C107.919 94.307 108.571 93.6078 108.571 92.7453C108.571 91.8828 107.919 91.1836 107.115 91.1836C106.312 91.1836 105.66 91.8828 105.66 92.7453C105.66 93.6078 106.312 94.307 107.115 94.307Z" stroke="#8EB9FC" style="stroke:#8EB9FC;stroke:color(display-p3 0.5569 0.7255 0.9882);stroke-opacity:1;" stroke-width="0.404651" stroke-miterlimit="10"/>
<path d="M113.321 130.328C113.321 130.328 108.954 127.577 100.602 118.002H111.612C111.612 118.002 111.612 112.399 112.846 106.084L131.165 126.457L113.321 130.328Z" fill="#B5364B" style="fill:#B5364B;fill:color(display-p3 0.7098 0.2118 0.2941);fill-opacity:1;"/>
<path d="M214.524 130.328C214.524 130.328 218.89 127.577 227.243 118.002H216.233C216.233 118.002 216.233 112.399 214.999 106.084L196.68 126.457L214.524 130.328Z" fill="#B5364B" style="fill:#B5364B;fill:color(display-p3 0.7098 0.2118 0.2941);fill-opacity:1;"/>
<path d="M113.321 130.328C113.321 130.328 108.954 127.577 100.602 118.002H111.612C111.612 118.002 111.612 112.399 112.846 106.084L131.165 126.457L113.321 130.328Z" stroke="#F4DA7B" style="stroke:#F4DA7B;stroke:color(display-p3 0.9569 0.8549 0.4824);stroke-opacity:1;" stroke-width="0.462493" stroke-miterlimit="10" stroke-linecap="round" stroke-linejoin="round"/>
<path d="M214.524 130.328C214.524 130.328 218.89 127.577 227.243 118.002H216.233C216.233 118.002 216.233 112.399 214.999 106.084L196.68 126.457L214.524 130.328Z" stroke="#F4DA7B" style="stroke:#F4DA7B;stroke:color(display-p3 0.9569 0.8549 0.4824);stroke-opacity:1;" stroke-width="0.462493" stroke-miterlimit="10" stroke-linecap="round" stroke-linejoin="round"/>
<path d="M118.195 122.448H210.281C210.281 122.448 196.218 143.222 165.173 144.349C134.127 145.475 118.195 122.448 118.195 122.448Z" fill="#811637" style="fill:#811637;fill:color(display-p3 0.5059 0.0863 0.2157);fill-opacity:1;"/>
<path d="M118.195 122.448H210.281C210.281 122.448 196.218 143.222 165.173 144.349C134.127 145.475 118.195 122.448 118.195 122.448Z" stroke="#F4DA7B" style="stroke:#F4DA7B;stroke:color(display-p3 0.9569 0.8549 0.4824);stroke-opacity:1;" stroke-width="0.462493" stroke-miterlimit="10" stroke-linecap="round" stroke-linejoin="round"/>
<path d="M186.237 67.028C184.465 63.2747 179.972 63.4199 181.653 58.5983C183.334 53.7766 182.417 50.2426 178.749 47.5952C175.082 44.9479 175.54 40.3594 175.54 40.3594H162.398L149.343 40.3825C149.343 40.3825 149.713 44.9479 146.046 47.5952C142.378 50.2426 141.461 53.7766 143.142 58.5983C144.823 63.4199 140.441 63.2916 138.558 67.028C137.206 69.7089 135.501 77.2247 144.976 78.9504C154.451 80.6762 162.398 78.9504 162.398 78.9504C162.398 78.9504 170.344 80.6762 179.819 78.9504C189.294 77.2247 187.521 69.7468 186.237 67.028Z" fill="#D35867" style="fill:#D35867;fill:color(display-p3 0.8275 0.3451 0.4039);fill-opacity:1;"/>
<path d="M174.818 54.7972C177.108 54.5031 178.742 52.2727 178.468 49.8154C178.194 47.358 176.116 45.6043 173.826 45.8983C171.536 46.1923 169.902 48.4227 170.176 50.8801C170.45 53.3375 172.528 55.0912 174.818 54.7972Z" fill="#ECBFB4" style="fill:#ECBFB4;fill:color(display-p3 0.9255 0.7490 0.7059);fill-opacity:1;"/>
<path d="M176.692 49.7175C176.692 49.7175 175.032 48.8495 173.449 51.9455" stroke="#C57165" style="stroke:#C57165;stroke:color(display-p3 0.7725 0.4431 0.3961);stroke-opacity:1;" stroke-width="0.500911" stroke-miterlimit="10" stroke-linecap="round" stroke-linejoin="round"/>
<path d="M174.521 55.9773C175.112 55.9773 175.592 55.4625 175.592 54.8275C175.592 54.1925 175.112 53.6777 174.521 53.6777C173.929 53.6777 173.449 54.1925 173.449 54.8275C173.449 55.4625 173.929 55.9773 174.521 55.9773Z" fill="white" style="fill:white;fill-opacity:1;"/>
<path d="M152.712 54.2934C154.742 53.1196 155.501 50.4016 154.407 48.2227C153.314 46.0438 150.781 45.229 148.751 46.4029C146.72 47.5767 145.961 50.2947 147.055 52.4736C148.149 54.6525 150.681 55.4673 152.712 54.2934Z" fill="#ECBFB4" style="fill:#ECBFB4;fill:color(display-p3 0.9255 0.7490 0.7059);fill-opacity:1;"/>
<path d="M148.359 49.7165C148.359 49.7165 150.02 48.8486 151.602 51.9445" stroke="#C57165" style="stroke:#C57165;stroke:color(display-p3 0.7725 0.4431 0.3961);stroke-opacity:1;" stroke-width="0.500911" stroke-miterlimit="10" stroke-linecap="round" stroke-linejoin="round"/>
<path d="M151.6 54.8275C151.6 55.4623 151.12 55.9773 150.528 55.9773C149.937 55.9773 149.457 55.4627 149.457 54.8275C149.457 54.1923 149.937 53.6777 150.528 53.6777C151.12 53.6777 151.6 54.1926 151.6 54.8275Z" fill="white" style="fill:white;fill-opacity:1;"/>
<path d="M162.412 54.866C169.655 54.866 175.527 48.5646 175.527 40.7914C175.527 33.0182 169.655 26.7168 162.412 26.7168C155.169 26.7168 149.297 33.0182 149.297 40.7914C149.297 48.5646 155.169 54.866 162.412 54.866Z" fill="#D35867" style="fill:#D35867;fill:color(display-p3 0.8275 0.3451 0.4039);fill-opacity:1;"/>
<path d="M166.559 59.2914C166.559 59.2914 164.752 61.0714 163.104 61.5086C161.456 61.9458 159.852 60.607 159.832 60.5907C159.811 60.5743 157.905 59.041 157.905 59.041L157.133 73.7899L157.346 74.036C160.145 77.2608 164.174 77.3055 166.996 74.1433L167.409 73.6808L166.559 59.2914Z" fill="#ECBFB4" style="fill:#ECBFB4;fill:color(display-p3 0.9255 0.7490 0.7059);fill-opacity:1;"/>
<path d="M156.066 57.0931C156.066 57.0931 159.411 64.5306 163.548 64.4461C166.949 64.3767 167.4 55.9775 167.4 55.9775L156.066 57.0931Z" fill="black" style="fill:black;fill-opacity:1;"/>
<path d="M173.794 41.6299C173.817 46.3507 173.162 50.4284 172.502 53.3233C171.857 56.1577 170.012 58.1458 167.399 59.7525L166.923 60.0451C164.159 61.745 160.576 61.8039 157.754 60.1953C154.907 58.5732 152.909 56.4251 152.283 53.3908C151.144 47.8717 150.994 41.7535 150.994 41.7535C150.994 41.7535 150.043 28.9841 162.341 29.149C174.638 29.3137 173.794 41.6299 173.794 41.6299Z" fill="#ECBFB4" style="fill:#ECBFB4;fill:color(display-p3 0.9255 0.7490 0.7059);fill-opacity:1;"/>
<path d="M149.812 38.9876C149.812 38.9876 169.525 37.8018 166.886 27.6232C166.886 27.6232 151.375 23.5271 149.812 38.9876Z" fill="#D35867" style="fill:#D35867;fill:color(display-p3 0.8275 0.3451 0.4039);fill-opacity:1;"/>
<path d="M173.801 38.9876C173.801 38.9876 165.814 37.2095 163.551 28.4292C163.551 28.4292 172.299 25.0438 173.801 38.9876Z" fill="#D35867" style="fill:#D35867;fill:color(display-p3 0.8275 0.3451 0.4039);fill-opacity:1;"/>
<path d="M161.668 48.8037V50.7237H162.875" stroke="#C57165" style="stroke:#C57165;stroke:color(display-p3 0.7725 0.4431 0.3961);stroke-opacity:1;" stroke-width="0.500911" stroke-miterlimit="10" stroke-linecap="round" stroke-linejoin="round"/>
<path d="M153.406 40.7893L158.996 40.2463C159.285 40.2183 159.426 39.8754 159.241 39.6522C158.822 39.1481 157.929 38.5 156.162 38.6961C154.478 38.8832 153.56 39.601 153.09 40.16C152.868 40.4242 153.066 40.8226 153.406 40.7893Z" fill="#D35867" style="fill:#D35867;fill:color(display-p3 0.8275 0.3451 0.4039);fill-opacity:1;"/>
<path d="M170.627 40.7947L164.981 40.2465C164.695 40.2188 164.556 39.8759 164.739 39.6527C165.154 39.1482 166.039 38.4992 167.788 38.6934C169.564 38.8908 170.478 39.6906 170.914 40.2601C171.09 40.4913 170.912 40.8225 170.627 40.7947Z" fill="#D35867" style="fill:#D35867;fill:color(display-p3 0.8275 0.3451 0.4039);fill-opacity:1;"/>
<path d="M158.719 52.9551H165.819C165.819 52.9551 165.546 55.1741 162.142 55.1741C159.347 55.1741 158.719 52.9551 158.719 52.9551Z" fill="white" style="fill:white;fill-opacity:1;"/>
<path d="M158.389 45.7949C158.389 46.3398 157.978 46.7813 157.47 46.7813C156.962 46.7813 156.551 46.3398 156.551 45.7949C156.551 45.2501 156.962 44.8086 157.47 44.8086C157.978 44.8089 158.389 45.2504 158.389 45.7949Z" fill="black" style="fill:black;fill-opacity:1;"/>
<path d="M167.4 45.7949C167.4 46.3398 166.989 46.7813 166.481 46.7813C165.974 46.7813 165.562 46.3398 165.562 45.7949C165.562 45.2501 165.974 44.8086 166.481 44.8086C166.989 44.8089 167.4 45.2504 167.4 45.7949Z" fill="black" style="fill:black;fill-opacity:1;"/>
<path opacity="0.23" d="M155.555 40.8117L160.594 48.1546C160.594 48.1546 159.075 51.2727 156.653 50.9262L151.566 43.7628C151.566 43.7628 152.942 40.6132 155.555 40.8117Z" fill="white" style="fill:white;fill-opacity:1;"/>
<path opacity="0.23" d="M167.949 40.8117L172.989 48.1546C172.989 48.1546 171.469 51.2727 169.048 50.9262L163.961 43.7628C163.961 43.7628 165.336 40.6132 167.949 40.8117Z" fill="white" style="fill:white;fill-opacity:1;"/>
<path d="M160.992 45.9125C160.992 48.8333 158.786 51.2009 156.065 51.2009C153.343 51.2009 151.137 48.8333 151.137 45.9125C151.137 42.9917 153.343 40.624 156.065 40.624C158.786 40.624 160.992 42.9917 160.992 45.9125Z" stroke="white" style="stroke:white;stroke-opacity:1;" stroke-width="0.378998" stroke-miterlimit="10"/>
<path d="M173.403 45.9125C173.403 48.8333 171.196 51.2009 168.475 51.2009C165.753 51.2009 163.547 48.8333 163.547 45.9125C163.547 42.9917 165.753 40.624 168.475 40.624C171.196 40.624 173.403 42.9917 173.403 45.9125Z" stroke="white" style="stroke:white;stroke-opacity:1;" stroke-width="0.378998" stroke-miterlimit="10"/>
<path d="M160.992 45.913C160.992 45.913 162.4 45.3573 163.546 45.913" stroke="white" style="stroke:white;stroke-opacity:1;" stroke-width="0.378998" stroke-miterlimit="10"/>
<path d="M176.518 73.3984L185.743 75.997C188.406 76.6294 189.817 79.5847 189.667 82.5071L184.673 142.005H144.552L136.911 86.2126C136.43 83.3667 136.794 80.1163 139.153 78.6317L147.37 74.8907L176.518 73.3984Z" fill="white" style="fill:white;fill-opacity:1;"/>
<path d="M176.519 73.399L162.906 70.4141L148.707 74.5062C148.707 74.5062 162.613 86.4715 176.519 73.399Z" fill="#ECBFB4" style="fill:#ECBFB4;fill:color(display-p3 0.9255 0.7490 0.7059);fill-opacity:1;"/>
<path d="M152.086 73.5322C152.086 73.5322 155.829 91.8189 155.822 140.364H143.549L138.135 79.3976C138.089 78.9853 138.317 78.5947 138.683 78.4596C138.683 78.4596 146.129 74.5411 152.086 73.5322Z" fill="#343071" style="fill:#343071;fill:color(display-p3 0.2039 0.1882 0.4431);fill-opacity:1;"/>
<path d="M173.184 72.668C173.184 72.668 170.984 110.256 173.38 140.364H184.969L190.938 83.2945C190.972 82.9874 188.727 79.0541 187.429 77.0139C186.945 76.2544 186.227 75.709 185.396 75.4818C183.078 74.8472 177.709 73.4348 173.184 72.668Z" fill="#343071" style="fill:#343071;fill:color(display-p3 0.2039 0.1882 0.4431);fill-opacity:1;"/>
<path d="M184.482 75.2334C184.482 75.2334 192.111 76.0369 194.063 89.4393C194.063 89.4393 199.421 104.943 202.098 118.63C203.079 123.646 200.004 128.582 195.297 129.451C189.202 130.576 180.995 131.079 171.758 127.283L185.969 116.132C185.969 116.132 180.603 94.5749 180.603 94.1639C180.603 93.7526 184.482 75.2334 184.482 75.2334Z" fill="#343071" style="fill:#343071;fill:color(display-p3 0.2039 0.1882 0.4431);fill-opacity:1;"/>
<path d="M184.213 107.789L181.367 95.4346" stroke="black" style="stroke:black;stroke-opacity:1;" stroke-width="0.448557" stroke-miterlimit="10"/>
<path d="M185.716 130.268C185.716 130.268 177.985 130.096 172.824 127.704" stroke="black" style="stroke:black;stroke-opacity:1;" stroke-width="0.448557" stroke-miterlimit="10"/>
<path d="M138.679 78.46C138.679 78.46 134.483 80.383 133.335 92.558C133.335 92.558 127.796 106.127 127.754 119.587C127.734 126.165 132.84 131.77 138.964 132.058C146.371 132.406 157.289 134.33 171.753 127.283L148.217 117.111C148.217 117.111 146.625 95.2321 146.534 94.8328C146.443 94.4339 138.679 78.46 138.679 78.46Z" fill="#343071" style="fill:#343071;fill:color(display-p3 0.2039 0.1882 0.4431);fill-opacity:1;"/>
<path d="M144.934 113.392L146.809 96.4072" stroke="black" style="stroke:black;stroke-opacity:1;" stroke-width="0.448557" stroke-miterlimit="10"/>
<path d="M143.207 132.331C143.207 132.331 149.571 133.368 155.485 132.187" stroke="black" style="stroke:black;stroke-opacity:1;" stroke-width="0.448557" stroke-miterlimit="10"/>
<path d="M171.612 87.4717L167.699 98.1954L170.819 96.9642L172.329 100.141L176.242 89.4172L171.612 87.4717Z" fill="#B7374D" style="fill:#B7374D;fill:color(display-p3 0.7176 0.2157 0.3020);fill-opacity:1;"/>
<path d="M175.419 87.4717L179.332 98.1954L176.213 96.9642L174.702 100.141L170.789 89.4172L175.419 87.4717Z" fill="#D35867" style="fill:#D35867;fill:color(display-p3 0.8275 0.3451 0.4039);fill-opacity:1;"/>
<path d="M177.438 93.1346C179.56 90.857 179.56 87.1644 177.438 84.8869C175.316 82.6094 171.875 82.6094 169.753 84.8869C167.631 87.1644 167.631 90.857 169.753 93.1346C171.875 95.4121 175.316 95.4121 177.438 93.1346Z" fill="#F4DA7B" style="fill:#F4DA7B;fill:color(display-p3 0.9569 0.8549 0.4824);fill-opacity:1;"/>
<path d="M173.597 93.5992C171.239 93.5992 169.32 91.5405 169.32 89.0101C169.32 86.4796 171.239 84.4209 173.597 84.4209C175.955 84.4209 177.873 86.4796 177.873 89.0101C177.873 91.5408 175.955 93.5992 173.597 93.5992ZM173.597 84.777C171.421 84.777 169.652 86.676 169.652 89.0104C169.652 91.3447 171.421 93.2437 173.597 93.2437C175.772 93.2437 177.541 91.3447 177.541 89.0104C177.541 86.676 175.772 84.777 173.597 84.777Z" fill="#DBB341" style="fill:#DBB341;fill:color(display-p3 0.8588 0.7020 0.2549);fill-opacity:1;"/>
<path d="M173.595 86.0381L174.217 88.0919H176.229L174.601 89.3613L175.223 91.4147L173.595 90.1456L171.967 91.4147L172.589 89.3613L170.961 88.0919H172.973L173.595 86.0381Z" fill="#DBB341" style="fill:#DBB341;fill:color(display-p3 0.8588 0.7020 0.2549);fill-opacity:1;"/>
<path d="M157.038 116.599L143.405 119.407C143.045 119.481 142.684 119.286 142.525 118.933C142.313 118.464 142.516 117.902 142.967 117.709L146.605 116.155L141.535 117.611C141.088 117.739 140.629 117.454 140.512 116.974C140.399 116.514 140.64 116.04 141.061 115.894L146.936 113.845L140.525 114.341C139.796 114.398 139.276 113.595 139.581 112.881C139.725 112.543 140.028 112.314 140.373 112.283L146.522 111.712L141.051 111.01C140.257 110.908 139.972 109.828 140.599 109.295C140.786 109.136 141.024 109.063 141.261 109.092L148.157 109.949C149.944 110.171 151.613 111.014 152.911 112.35L157.038 116.599Z" fill="#ECBFB4" style="fill:#ECBFB4;fill:color(display-p3 0.9255 0.7490 0.7059);fill-opacity:1;"/>
<path d="M185.964 116.132L184.211 107.789C184.211 107.789 180.316 108.66 174.605 115.084L177.692 123.111C183.334 121.804 185.964 116.132 185.964 116.132Z" fill="#ECBFB4" style="fill:#ECBFB4;fill:color(display-p3 0.9255 0.7490 0.7059);fill-opacity:1;"/>
<path d="M143.613 119.304L174.171 113.027L177.692 123.112L171.754 127.283L145.434 124.882L143.613 119.304Z" fill="#343071" style="fill:#343071;fill:color(display-p3 0.2039 0.1882 0.4431);fill-opacity:1;"/>
<path d="M171.988 127.118L177.691 123.112" stroke="black" style="stroke:black;stroke-opacity:1;" stroke-width="0.448557" stroke-miterlimit="10"/>
<path d="M118.194 122.448C118.194 122.448 137.781 138.894 164.453 138.894C191.125 138.894 210.28 122.448 210.28 122.448L219.929 136.762C219.929 136.762 197.8 156.702 164.453 156.702C131.106 156.702 108.262 136.305 108.262 136.305L118.194 122.448Z" fill="#D35867" style="fill:#D35867;fill:color(display-p3 0.8275 0.3451 0.4039);fill-opacity:1;"/>
<path d="M118.194 122.448C118.194 122.448 137.781 138.894 164.453 138.894C191.125 138.894 210.28 122.448 210.28 122.448L219.929 136.762C219.929 136.762 197.8 156.702 164.453 156.702C131.106 156.702 108.262 136.305 108.262 136.305L118.194 122.448Z" stroke="#F4DA7B" style="stroke:#F4DA7B;stroke:color(display-p3 0.9569 0.8549 0.4824);stroke-opacity:1;" stroke-width="0.462493" stroke-miterlimit="10" stroke-linecap="round" stroke-linejoin="round"/>
<path d="M34.5 150.25H88.25V179.75H22.75V162C22.75 155.511 28.0107 150.25 34.5 150.25Z" fill="#E8F2FF" style="fill:#E8F2FF;fill:color(display-p3 0.9106 0.9506 1.0000);fill-opacity:1;"/>
<path d="M34.5 150.25H88.25V179.75H22.75V162C22.75 155.511 28.0107 150.25 34.5 150.25Z" stroke="#0668E1" style="stroke:#0668E1;stroke:color(display-p3 0.0235 0.4078 0.8824);stroke-opacity:1;" stroke-width="0.5"/>
<path d="M39.252 159.752C39.796 159.752 40.388 159.784 41.028 159.848C41.668 159.901 42.292 160.013 42.9 160.184L42.74 161.816C42.2707 161.795 41.7213 161.779 41.092 161.768C40.4627 161.757 39.844 161.752 39.236 161.752C38.9373 161.752 38.6813 161.763 38.468 161.784C38.2653 161.805 38.1 161.848 37.972 161.912C37.844 161.976 37.7533 162.083 37.7 162.232C37.6467 162.371 37.62 162.563 37.62 162.808C37.62 163.181 37.7053 163.453 37.876 163.624C38.0573 163.795 38.3613 163.949 38.788 164.088L40.916 164.776C41.8013 165.075 42.4147 165.48 42.756 165.992C43.0973 166.504 43.268 167.176 43.268 168.008C43.268 168.637 43.1933 169.16 43.044 169.576C42.8947 169.992 42.66 170.317 42.34 170.552C42.02 170.787 41.5987 170.952 41.076 171.048C40.5533 171.155 39.9133 171.208 39.156 171.208C38.7933 171.208 38.276 171.181 37.604 171.128C36.932 171.085 36.1693 170.968 35.316 170.776L35.46 169.048C36.1 169.059 36.6493 169.075 37.108 169.096C37.5667 169.107 37.9613 169.117 38.292 169.128C38.6227 169.128 38.9107 169.128 39.156 169.128C39.5933 169.128 39.9293 169.101 40.164 169.048C40.4093 168.995 40.58 168.888 40.676 168.728C40.772 168.568 40.82 168.339 40.82 168.04C40.82 167.773 40.7827 167.565 40.708 167.416C40.644 167.267 40.532 167.144 40.372 167.048C40.212 166.952 40.004 166.867 39.748 166.792L37.508 166.024C36.6547 165.725 36.052 165.325 35.7 164.824C35.3587 164.323 35.188 163.656 35.188 162.824C35.188 162.195 35.2627 161.677 35.412 161.272C35.572 160.867 35.812 160.557 36.132 160.344C36.452 160.12 36.868 159.965 37.38 159.88C37.9027 159.795 38.5267 159.752 39.252 159.752ZM48.579 162.888C49.9123 162.888 50.867 163.117 51.443 163.576C52.0297 164.024 52.323 164.696 52.323 165.592C52.3337 166.307 52.1523 166.845 51.779 167.208C51.4057 167.571 50.7603 167.752 49.843 167.752H45.427V166.424H49.203C49.555 166.424 49.779 166.349 49.875 166.2C49.9817 166.04 50.035 165.821 50.035 165.544C50.035 165.171 49.9283 164.915 49.715 164.776C49.5123 164.627 49.1603 164.552 48.659 164.552C48.2217 164.541 47.8803 164.6 47.635 164.728C47.3897 164.845 47.219 165.069 47.123 165.4C47.027 165.731 46.979 166.211 46.979 166.84C46.979 167.501 47.0377 168.013 47.155 168.376C47.2723 168.728 47.4697 168.973 47.747 169.112C48.035 169.251 48.4297 169.32 48.931 169.32C49.2937 169.32 49.7417 169.309 50.275 169.288C50.819 169.256 51.363 169.208 51.907 169.144L52.131 170.6C51.8217 170.749 51.4697 170.867 51.075 170.952C50.6803 171.037 50.275 171.096 49.859 171.128C49.443 171.171 49.043 171.192 48.659 171.192C47.6563 171.192 46.851 171.048 46.243 170.76C45.635 170.461 45.1923 170.008 44.915 169.4C44.6483 168.792 44.515 168.013 44.515 167.064C44.515 166.029 44.6483 165.208 44.915 164.6C45.1923 163.992 45.6297 163.555 46.227 163.288C46.8243 163.021 47.6083 162.888 48.579 162.888ZM58.0423 162.888C58.7036 162.888 59.2636 162.979 59.7223 163.16C60.1809 163.331 60.5276 163.629 60.7623 164.056C61.0076 164.472 61.1302 165.043 61.1302 165.768V171H59.2583L58.9223 169.288L58.7623 169.048V165.768C58.7516 165.384 58.6556 165.112 58.4743 164.952C58.3036 164.781 57.9783 164.696 57.4983 164.696C57.0823 164.696 56.5703 164.712 55.9623 164.744C55.3543 164.765 54.7303 164.797 54.0903 164.84L53.8823 163.272C54.2663 163.197 54.7036 163.133 55.1943 163.08C55.6956 163.027 56.1969 162.984 56.6983 162.952C57.1996 162.909 57.6476 162.888 58.0423 162.888ZM60.1543 166.136L60.1383 167.464H56.6183C56.3303 167.475 56.1223 167.549 55.9943 167.688C55.8769 167.827 55.8183 168.013 55.8183 168.248V168.632C55.8183 168.899 55.8929 169.107 56.0423 169.256C56.1916 169.395 56.4316 169.464 56.7623 169.464C57.0396 169.464 57.3383 169.405 57.6583 169.288C57.9889 169.171 58.3143 169.005 58.6343 168.792C58.9543 168.579 59.2423 168.328 59.4983 168.04V169.064C59.4023 169.224 59.2583 169.427 59.0663 169.672C58.8743 169.907 58.6343 170.141 58.3463 170.376C58.0583 170.6 57.7223 170.792 57.3383 170.952C56.9543 171.101 56.5169 171.176 56.0263 171.176C55.5569 171.176 55.1249 171.096 54.7303 170.936C54.3463 170.765 54.0423 170.515 53.8183 170.184C53.5943 169.853 53.4823 169.443 53.4823 168.952V168.136C53.4823 167.507 53.6956 167.016 54.1223 166.664C54.5489 166.312 55.1356 166.136 55.8823 166.136H60.1543ZM73.0073 162.888C73.7219 162.888 74.2659 163.075 74.6393 163.448C75.0126 163.821 75.1993 164.365 75.1993 165.08V171H72.8633V165.816C72.8526 165.485 72.7833 165.251 72.6553 165.112C72.5273 164.963 72.3033 164.888 71.9833 164.888C71.8019 164.888 71.6206 164.915 71.4392 164.968C71.2686 165.011 71.0713 165.091 70.8472 165.208C70.6233 165.325 70.3513 165.485 70.0312 165.688L69.9033 164.392C70.4153 163.891 70.9166 163.517 71.4073 163.272C71.9086 163.016 72.4419 162.888 73.0073 162.888ZM64.8793 163.096L65.1193 164.664L65.3593 164.872V171H63.0073V163.096H64.8793ZM68.0793 162.888C68.7833 162.888 69.3166 163.075 69.6793 163.448C70.0526 163.811 70.2393 164.355 70.2393 165.08V171H67.9673V165.816C67.9673 165.475 67.8926 165.235 67.7433 165.096C67.6046 164.957 67.3859 164.888 67.0873 164.888C66.9059 164.888 66.7246 164.915 66.5433 164.968C66.3726 165.011 66.1699 165.091 65.9353 165.208C65.7113 165.325 65.4339 165.485 65.1033 165.688L64.9593 164.392C65.4819 163.891 65.9886 163.517 66.4793 163.272C66.9699 163.016 67.5033 162.888 68.0793 162.888Z" fill="#0668E1" style="fill:#0668E1;fill:color(display-p3 0.0235 0.4078 0.8824);fill-opacity:1;"/>
<path d="M293.5 150.25C299.989 150.25 305.25 155.511 305.25 162V179.75H88.75V150.25H293.5Z" fill="#E8F2FF" style="fill:#E8F2FF;fill:color(display-p3 0.9106 0.9506 1.0000);fill-opacity:1;"/>
<path d="M293.5 150.25C299.989 150.25 305.25 155.511 305.25 162V179.75H88.75V150.25H293.5Z" stroke="#0668E1" style="stroke:#0668E1;stroke:color(display-p3 0.0235 0.4078 0.8824);stroke-opacity:1;" stroke-width="0.5"/>
<path d="M103.908 159.928C104.463 159.928 105.028 159.928 105.604 159.928C106.191 159.928 106.767 159.939 107.332 159.96C107.897 159.981 108.431 160.013 108.932 160.056L108.836 161.544H104.516C104.217 161.544 103.993 161.619 103.844 161.768C103.705 161.917 103.636 162.152 103.636 162.472V168.488C103.636 168.808 103.705 169.043 103.844 169.192C103.993 169.341 104.217 169.416 104.516 169.416H108.836L108.932 170.904C108.431 170.947 107.897 170.979 107.332 171C106.767 171.011 106.191 171.016 105.604 171.016C105.028 171.027 104.463 171.032 103.908 171.032C103.225 171.032 102.676 170.845 102.26 170.472C101.855 170.088 101.647 169.576 101.636 168.936V162.024C101.647 161.384 101.855 160.877 102.26 160.504C102.676 160.12 103.225 159.928 103.908 159.928ZM101.924 164.488H108.228V165.96H101.924V164.488ZM120.505 162.952C121.198 162.952 121.726 163.139 122.089 163.512C122.462 163.875 122.649 164.408 122.649 165.112V171H120.729V165.704C120.718 165.309 120.638 165.027 120.489 164.856C120.34 164.675 120.078 164.584 119.705 164.584C119.481 164.584 119.262 164.621 119.049 164.696C118.846 164.76 118.617 164.867 118.361 165.016C118.105 165.165 117.796 165.363 117.433 165.608L117.321 164.44C117.865 163.939 118.388 163.565 118.889 163.32C119.401 163.075 119.94 162.952 120.505 162.952ZM112.265 163.144L112.457 164.68L112.649 164.904V171H110.713V163.144H112.265ZM115.497 162.952C116.18 162.952 116.702 163.133 117.065 163.496C117.428 163.859 117.614 164.397 117.625 165.112V171H115.753V165.704C115.753 165.288 115.668 165 115.497 164.84C115.326 164.669 115.07 164.584 114.729 164.584C114.516 164.584 114.302 164.616 114.089 164.68C113.876 164.744 113.641 164.851 113.385 165C113.129 165.149 112.809 165.352 112.425 165.608L112.313 164.44C112.846 163.939 113.369 163.565 113.881 163.32C114.393 163.075 114.932 162.952 115.497 162.952ZM129.656 162.952C130.637 162.952 131.336 163.309 131.752 164.024C132.178 164.739 132.392 165.773 132.392 167.128C132.392 168.163 132.28 168.979 132.056 169.576C131.842 170.163 131.517 170.584 131.08 170.84C130.642 171.085 130.088 171.208 129.416 171.208C128.882 171.208 128.36 171.133 127.848 170.984C127.346 170.824 126.882 170.579 126.456 170.248L126.584 169.288C127 169.405 127.373 169.507 127.704 169.592C128.034 169.677 128.397 169.72 128.792 169.72C129.186 169.72 129.496 169.656 129.72 169.528C129.954 169.389 130.125 169.133 130.232 168.76C130.338 168.387 130.392 167.848 130.392 167.144C130.392 166.451 130.344 165.912 130.248 165.528C130.152 165.144 129.992 164.877 129.768 164.728C129.554 164.568 129.272 164.488 128.92 164.488C128.536 164.488 128.173 164.573 127.832 164.744C127.49 164.904 127.096 165.144 126.648 165.464L126.424 164.44C126.669 164.152 126.962 163.896 127.304 163.672C127.656 163.448 128.034 163.272 128.44 163.144C128.845 163.016 129.25 162.952 129.656 162.952ZM126.344 163.144L126.536 164.664L126.712 164.888V169.96L126.632 170.152C126.664 170.461 126.685 170.771 126.696 171.08C126.706 171.4 126.712 171.725 126.712 172.056V174.12H124.776V163.144H126.344ZM136.18 159.8V168.632C136.18 168.931 136.266 169.16 136.436 169.32C136.607 169.469 136.852 169.544 137.172 169.544H137.86L138.084 170.904C137.967 170.957 137.802 171.005 137.588 171.048C137.386 171.091 137.172 171.117 136.948 171.128C136.735 171.149 136.548 171.16 136.388 171.16C135.738 171.16 135.22 170.984 134.836 170.632C134.452 170.28 134.26 169.773 134.26 169.112V159.8H136.18ZM142.843 162.952C143.803 162.952 144.566 163.085 145.131 163.352C145.707 163.619 146.118 164.056 146.363 164.664C146.619 165.272 146.747 166.077 146.747 167.08C146.747 168.083 146.619 168.888 146.363 169.496C146.118 170.093 145.707 170.531 145.131 170.808C144.566 171.075 143.803 171.208 142.843 171.208C141.904 171.208 141.147 171.075 140.571 170.808C140.006 170.531 139.595 170.093 139.339 169.496C139.083 168.888 138.955 168.083 138.955 167.08C138.955 166.077 139.083 165.272 139.339 164.664C139.595 164.056 140.006 163.619 140.571 163.352C141.147 163.085 141.904 162.952 142.843 162.952ZM142.843 164.424C142.374 164.424 142 164.504 141.723 164.664C141.456 164.813 141.264 165.08 141.147 165.464C141.03 165.848 140.971 166.387 140.971 167.08C140.971 167.773 141.03 168.312 141.147 168.696C141.264 169.08 141.456 169.347 141.723 169.496C142 169.645 142.374 169.72 142.843 169.72C143.323 169.72 143.702 169.645 143.979 169.496C144.256 169.347 144.448 169.08 144.555 168.696C144.672 168.312 144.731 167.773 144.731 167.08C144.731 166.387 144.672 165.848 144.555 165.464C144.448 165.08 144.256 164.813 143.979 164.664C143.702 164.504 143.323 164.424 142.843 164.424ZM155.951 163.144L153.007 171.24C152.869 171.613 152.693 171.981 152.479 172.344C152.277 172.717 152.015 173.053 151.695 173.352C151.375 173.651 150.997 173.885 150.559 174.056C150.122 174.227 149.615 174.291 149.039 174.248L148.879 173.096C149.519 172.915 150.015 172.669 150.367 172.36C150.73 172.051 151.013 171.656 151.215 171.176L151.647 170.152C151.743 169.917 151.834 169.651 151.919 169.352C152.015 169.043 152.095 168.776 152.159 168.552L153.871 163.144H155.951ZM149.615 163.144L151.359 168.552C151.413 168.733 151.461 168.92 151.503 169.112C151.546 169.293 151.583 169.475 151.615 169.656H152.015L151.407 171H150.895C150.746 171 150.613 170.957 150.495 170.872C150.378 170.787 150.298 170.669 150.255 170.52L147.551 163.144H149.615ZM160.623 162.952C161.893 162.952 162.805 163.176 163.359 163.624C163.914 164.061 164.197 164.712 164.207 165.576C164.218 166.291 164.047 166.835 163.695 167.208C163.354 167.571 162.783 167.752 161.983 167.752H157.503V166.552H161.455C161.818 166.552 162.047 166.456 162.143 166.264C162.25 166.072 162.303 165.837 162.303 165.56C162.293 165.123 162.165 164.819 161.919 164.648C161.685 164.477 161.279 164.392 160.703 164.392C160.202 164.392 159.813 164.461 159.535 164.6C159.258 164.739 159.061 164.989 158.943 165.352C158.837 165.715 158.783 166.237 158.783 166.92C158.783 167.645 158.853 168.205 158.991 168.6C159.13 168.995 159.359 169.267 159.679 169.416C159.999 169.555 160.426 169.624 160.959 169.624C161.354 169.624 161.807 169.608 162.319 169.576C162.842 169.544 163.343 169.501 163.823 169.448L164.015 170.68C163.727 170.797 163.397 170.893 163.023 170.968C162.65 171.043 162.261 171.096 161.855 171.128C161.461 171.171 161.087 171.192 160.735 171.192C159.775 171.192 159.002 171.053 158.415 170.776C157.839 170.488 157.418 170.04 157.151 169.432C156.895 168.824 156.767 168.04 156.767 167.08C156.767 166.045 156.895 165.229 157.151 164.632C157.418 164.024 157.834 163.592 158.399 163.336C158.975 163.08 159.717 162.952 160.623 162.952ZM167.451 163.144L167.707 164.68L167.883 164.904V171H165.947V163.144H167.451ZM171.291 162.952L171.099 164.744H170.539C170.123 164.744 169.702 164.813 169.275 164.952C168.849 165.091 168.315 165.299 167.675 165.576L167.547 164.44C168.102 163.971 168.667 163.608 169.243 163.352C169.819 163.085 170.374 162.952 170.907 162.952H171.291Z" fill="#0668E1" style="fill:#0668E1;fill:color(display-p3 0.0235 0.4078 0.8824);fill-opacity:1;"/>
<path d="M200.501 165H210.223" stroke="#0668E1" style="stroke:#0668E1;stroke:color(display-p3 0.0235 0.4078 0.8824);stroke-opacity:1;" stroke-width="1.24993" stroke-linecap="round" stroke-linejoin="round"/>
<path d="M206.611 162L210.5 165L206.611 168" stroke="#0668E1" style="stroke:#0668E1;stroke:color(display-p3 0.0235 0.4078 0.8824);stroke-opacity:1;" stroke-width="1.24993" stroke-linecap="round" stroke-linejoin="round"/>
<path d="M196.499 165H186.777" stroke="#0668E1" style="stroke:#0668E1;stroke:color(display-p3 0.0235 0.4078 0.8824);stroke-opacity:1;" stroke-width="1.24993" stroke-linecap="round" stroke-linejoin="round"/>
<path d="M190.389 162L186.5 165L190.389 168" stroke="#0668E1" style="stroke:#0668E1;stroke:color(display-p3 0.0235 0.4078 0.8824);stroke-opacity:1;" stroke-width="1.24993" stroke-linecap="round" stroke-linejoin="round"/>
<path d="M229.796 159.816C230.713 159.816 231.455 159.912 232.02 160.104C232.596 160.296 233.012 160.627 233.268 161.096C233.535 161.555 233.668 162.205 233.668 163.048C233.668 163.603 233.599 164.077 233.46 164.472C233.332 164.856 233.113 165.165 232.804 165.4C232.505 165.624 232.1 165.768 231.588 165.832V165.912C231.769 165.955 231.956 166.04 232.148 166.168C232.351 166.285 232.532 166.456 232.692 166.68C232.863 166.904 232.991 167.192 233.076 167.544L234.084 171H231.972L231.06 167.592C230.943 167.208 230.783 166.941 230.58 166.792C230.377 166.632 230.1 166.552 229.748 166.552C229.055 166.552 228.463 166.552 227.972 166.552C227.481 166.541 227.071 166.531 226.74 166.52C226.42 166.509 226.137 166.504 225.892 166.504L225.94 164.984H229.748C230.228 164.973 230.607 164.92 230.884 164.824C231.161 164.717 231.359 164.536 231.476 164.28C231.593 164.013 231.652 163.64 231.652 163.16C231.652 162.691 231.593 162.328 231.476 162.072C231.359 161.816 231.161 161.64 230.884 161.544C230.607 161.437 230.228 161.384 229.748 161.384C228.809 161.384 228.004 161.389 227.332 161.4C226.66 161.411 226.201 161.421 225.956 161.432L225.732 159.96C226.159 159.917 226.559 159.885 226.932 159.864C227.316 159.843 227.732 159.832 228.18 159.832C228.628 159.821 229.167 159.816 229.796 159.816ZM227.7 159.96V171H225.732V159.96H227.7ZM239.17 162.952C240.439 162.952 241.351 163.176 241.906 163.624C242.461 164.061 242.743 164.712 242.754 165.576C242.765 166.291 242.594 166.835 242.242 167.208C241.901 167.571 241.33 167.752 240.53 167.752H236.05V166.552H240.002C240.365 166.552 240.594 166.456 240.69 166.264C240.797 166.072 240.85 165.837 240.85 165.56C240.839 165.123 240.711 164.819 240.466 164.648C240.231 164.477 239.826 164.392 239.25 164.392C238.749 164.392 238.359 164.461 238.082 164.6C237.805 164.739 237.607 164.989 237.49 165.352C237.383 165.715 237.33 166.237 237.33 166.92C237.33 167.645 237.399 168.205 237.538 168.6C237.677 168.995 237.906 169.267 238.226 169.416C238.546 169.555 238.973 169.624 239.506 169.624C239.901 169.624 240.354 169.608 240.866 169.576C241.389 169.544 241.89 169.501 242.37 169.448L242.562 170.68C242.274 170.797 241.943 170.893 241.57 170.968C241.197 171.043 240.807 171.096 240.402 171.128C240.007 171.171 239.634 171.192 239.282 171.192C238.322 171.192 237.549 171.053 236.962 170.776C236.386 170.488 235.965 170.04 235.698 169.432C235.442 168.824 235.314 168.04 235.314 167.08C235.314 166.045 235.442 165.229 235.698 164.632C235.965 164.024 236.381 163.592 236.946 163.336C237.522 163.08 238.263 162.952 239.17 162.952ZM248.014 162.952C248.281 162.952 248.574 162.963 248.894 162.984C249.214 163.005 249.54 163.048 249.87 163.112C250.201 163.176 250.5 163.267 250.766 163.384L250.542 164.6C250.148 164.579 249.753 164.563 249.358 164.552C248.974 164.541 248.638 164.536 248.35 164.536C247.806 164.536 247.374 164.611 247.054 164.76C246.745 164.899 246.521 165.155 246.382 165.528C246.244 165.891 246.174 166.403 246.174 167.064C246.174 167.725 246.244 168.243 246.382 168.616C246.521 168.979 246.745 169.235 247.054 169.384C247.374 169.533 247.806 169.608 248.35 169.608C248.51 169.608 248.718 169.603 248.974 169.592C249.241 169.581 249.524 169.565 249.822 169.544C250.132 169.523 250.43 169.496 250.718 169.464L250.91 170.712C250.494 170.883 250.03 171.005 249.518 171.08C249.006 171.155 248.5 171.192 247.998 171.192C247.06 171.192 246.308 171.059 245.742 170.792C245.177 170.525 244.766 170.093 244.51 169.496C244.265 168.888 244.142 168.077 244.142 167.064C244.142 166.051 244.27 165.245 244.526 164.648C244.782 164.04 245.193 163.608 245.758 163.352C246.324 163.085 247.076 162.952 248.014 162.952ZM253.998 163.144L254.254 164.68L254.43 164.904V171H252.494V163.144H253.998ZM257.838 162.952L257.646 164.744H257.086C256.67 164.744 256.249 164.813 255.822 164.952C255.396 165.091 254.862 165.299 254.222 165.576L254.094 164.44C254.649 163.971 255.214 163.608 255.79 163.352C256.366 163.085 256.921 162.952 257.454 162.952H257.838ZM261.039 163.144V168.456C261.028 168.851 261.103 169.133 261.263 169.304C261.433 169.475 261.705 169.56 262.079 169.56C262.452 169.56 262.825 169.48 263.199 169.32C263.572 169.16 264.025 168.92 264.559 168.6L264.751 169.752C264.153 170.232 263.577 170.595 263.023 170.84C262.468 171.085 261.892 171.208 261.295 171.208C259.833 171.208 259.103 170.488 259.103 169.048V163.144H261.039ZM266.303 163.144V171H264.767L264.559 169.48L264.367 169.256V163.144H266.303ZM270.463 163.144V171H268.543V163.144H270.463ZM269.935 159.736C270.319 159.736 270.511 159.928 270.511 160.312V161.208C270.511 161.592 270.319 161.784 269.935 161.784H269.071C268.687 161.784 268.495 161.592 268.495 161.208V160.312C268.495 159.928 268.687 159.736 269.071 159.736H269.935ZM275.289 160.904V168.632C275.289 168.952 275.359 169.187 275.497 169.336C275.647 169.475 275.897 169.544 276.249 169.544H277.337L277.545 170.904C277.364 170.957 277.145 171.005 276.889 171.048C276.633 171.091 276.383 171.117 276.137 171.128C275.892 171.149 275.684 171.16 275.513 171.16C274.831 171.16 274.297 170.979 273.913 170.616C273.54 170.243 273.353 169.709 273.353 169.016V160.904H275.289ZM277.625 163.144V164.488H271.961V163.224L273.497 163.144H277.625ZM282.561 162.952C283.83 162.952 284.742 163.176 285.297 163.624C285.851 164.061 286.134 164.712 286.145 165.576C286.155 166.291 285.985 166.835 285.633 167.208C285.291 167.571 284.721 167.752 283.921 167.752H279.441V166.552H283.393C283.755 166.552 283.985 166.456 284.081 166.264C284.187 166.072 284.241 165.837 284.241 165.56C284.23 165.123 284.102 164.819 283.857 164.648C283.622 164.477 283.217 164.392 282.641 164.392C282.139 164.392 281.75 164.461 281.473 164.6C281.195 164.739 280.998 164.989 280.881 165.352C280.774 165.715 280.721 166.237 280.721 166.92C280.721 167.645 280.79 168.205 280.929 168.6C281.067 168.995 281.297 169.267 281.617 169.416C281.937 169.555 282.363 169.624 282.897 169.624C283.291 169.624 283.745 169.608 284.257 169.576C284.779 169.544 285.281 169.501 285.761 169.448L285.953 170.68C285.665 170.797 285.334 170.893 284.961 170.968C284.587 171.043 284.198 171.096 283.793 171.128C283.398 171.171 283.025 171.192 282.673 171.192C281.713 171.192 280.939 171.053 280.353 170.776C279.777 170.488 279.355 170.04 279.089 169.432C278.833 168.824 278.705 168.04 278.705 167.08C278.705 166.045 278.833 165.229 279.089 164.632C279.355 164.024 279.771 163.592 280.337 163.336C280.913 163.08 281.654 162.952 282.561 162.952ZM289.389 163.144L289.645 164.68L289.821 164.904V171H287.885V163.144H289.389ZM293.229 162.952L293.037 164.744H292.477C292.061 164.744 291.64 164.813 291.213 164.952C290.786 165.091 290.253 165.299 289.613 165.576L289.485 164.44C290.04 163.971 290.605 163.608 291.181 163.352C291.757 163.085 292.312 162.952 292.845 162.952H293.229Z" fill="#0668E1" style="fill:#0668E1;fill:color(display-p3 0.0235 0.4078 0.8824);fill-opacity:1;"/>
<defs>
<linearGradient id="paint0_linear_19085_72188" x1="163.558" y1="78.2263" x2="163.558" y2="41.283" gradientUnits="userSpaceOnUse">
<stop stop-color="white" style="stop-color:white;stop-opacity:1;"/>
<stop offset="1" stop-color="white" stop-opacity="0" style="stop-color:none;stop-opacity:0;"/>
</linearGradient>
<linearGradient id="paint1_linear_19085_72188" x1="173.638" y1="82.0008" x2="199.696" y2="57.7196" gradientUnits="userSpaceOnUse">
<stop stop-color="white" style="stop-color:white;stop-opacity:1;"/>
<stop offset="1" stop-color="white" stop-opacity="0" style="stop-color:none;stop-opacity:0;"/>
</linearGradient>
<linearGradient id="paint2_linear_19085_72188" x1="178.275" y1="92.3141" x2="212.7" y2="92.3141" gradientUnits="userSpaceOnUse">
<stop stop-color="white" style="stop-color:white;stop-opacity:1;"/>
<stop offset="1" stop-color="white" stop-opacity="0" style="stop-color:none;stop-opacity:0;"/>
</linearGradient>
<linearGradient id="paint3_linear_19085_72188" x1="174.759" y1="103.126" x2="200.817" y2="127.408" gradientUnits="userSpaceOnUse">
<stop stop-color="white" style="stop-color:white;stop-opacity:1;"/>
<stop offset="1" stop-color="white" stop-opacity="0" style="stop-color:none;stop-opacity:0;"/>
</linearGradient>
<linearGradient id="paint4_linear_19085_72188" x1="165.148" y1="108.103" x2="165.148" y2="145.047" gradientUnits="userSpaceOnUse">
<stop stop-color="white" style="stop-color:white;stop-opacity:1;"/>
<stop offset="1" stop-color="white" stop-opacity="0" style="stop-color:none;stop-opacity:0;"/>
</linearGradient>
<linearGradient id="paint5_linear_19085_72188" x1="155.071" y1="104.33" x2="129.013" y2="128.611" gradientUnits="userSpaceOnUse">
<stop stop-color="white" style="stop-color:white;stop-opacity:1;"/>
<stop offset="1" stop-color="white" stop-opacity="0" style="stop-color:none;stop-opacity:0;"/>
</linearGradient>
<linearGradient id="paint6_linear_19085_72188" x1="150.433" y1="94.0162" x2="116.009" y2="94.0162" gradientUnits="userSpaceOnUse">
<stop stop-color="white" style="stop-color:white;stop-opacity:1;"/>
<stop offset="1" stop-color="white" stop-opacity="0" style="stop-color:none;stop-opacity:0;"/>
</linearGradient>
<linearGradient id="paint7_linear_19085_72188" x1="153.95" y1="83.203" x2="127.892" y2="58.9218" gradientUnits="userSpaceOnUse">
<stop stop-color="white" style="stop-color:white;stop-opacity:1;"/>
<stop offset="1" stop-color="white" stop-opacity="0" style="stop-color:none;stop-opacity:0;"/>
</linearGradient>
<linearGradient id="paint8_linear_19085_72188" x1="169.019" y1="79.0659" x2="184.048" y2="45.771" gradientUnits="userSpaceOnUse">
<stop stop-color="white" style="stop-color:white;stop-opacity:1;"/>
<stop offset="1" stop-color="white" stop-opacity="0" style="stop-color:none;stop-opacity:0;"/>
</linearGradient>
<linearGradient id="paint9_linear_19085_72188" x1="176.941" y1="86.7343" x2="209.427" y2="74.3904" gradientUnits="userSpaceOnUse">
<stop stop-color="white" style="stop-color:white;stop-opacity:1;"/>
<stop offset="1" stop-color="white" stop-opacity="0" style="stop-color:none;stop-opacity:0;"/>
</linearGradient>
<linearGradient id="paint10_linear_19085_72188" x1="177.489" y1="98.1744" x2="209.862" y2="110.862" gradientUnits="userSpaceOnUse">
<stop stop-color="white" style="stop-color:white;stop-opacity:1;"/>
<stop offset="1" stop-color="white" stop-opacity="0" style="stop-color:none;stop-opacity:0;"/>
</linearGradient>
<linearGradient id="paint11_linear_19085_72188" x1="170.344" y1="106.675" x2="184.997" y2="140.16" gradientUnits="userSpaceOnUse">
<stop stop-color="white" style="stop-color:white;stop-opacity:1;"/>
<stop offset="1" stop-color="white" stop-opacity="0" style="stop-color:none;stop-opacity:0;"/>
</linearGradient>
<linearGradient id="paint12_linear_19085_72188" x1="159.682" y1="107.264" x2="144.654" y2="140.559" gradientUnits="userSpaceOnUse">
<stop stop-color="white" style="stop-color:white;stop-opacity:1;"/>
<stop offset="1" stop-color="white" stop-opacity="0" style="stop-color:none;stop-opacity:0;"/>
</linearGradient>
<linearGradient id="paint13_linear_19085_72188" x1="151.761" y1="99.5954" x2="119.275" y2="111.939" gradientUnits="userSpaceOnUse">
<stop stop-color="white" style="stop-color:white;stop-opacity:1;"/>
<stop offset="1" stop-color="white" stop-opacity="0" style="stop-color:none;stop-opacity:0;"/>
</linearGradient>
<linearGradient id="paint14_linear_19085_72188" x1="151.214" y1="88.1552" x2="118.841" y2="75.4678" gradientUnits="userSpaceOnUse">
<stop stop-color="white" style="stop-color:white;stop-opacity:1;"/>
<stop offset="1" stop-color="white" stop-opacity="0" style="stop-color:none;stop-opacity:0;"/>
</linearGradient>
<linearGradient id="paint15_linear_19085_72188" x1="158.357" y1="79.6545" x2="143.704" y2="46.17" gradientUnits="userSpaceOnUse">
<stop stop-color="white" style="stop-color:white;stop-opacity:1;"/>
<stop offset="1" stop-color="white" stop-opacity="0" style="stop-color:none;stop-opacity:0;"/>
</linearGradient>
</defs>
</svg>
