<svg width="252" height="164" viewBox="0 0 252 164" fill="none" xmlns="http://www.w3.org/2000/svg">
<rect width="252" height="164" rx="8" fill="#E6F0FC" style="fill:#E6F0FC;fill:color(display-p3 0.9020 0.9412 0.9882);fill-opacity:1;"/>
<path d="M41.924 133.624H45.08C45.632 133.624 46.136 133.712 46.592 133.888C47.048 134.064 47.436 134.328 47.756 134.68C48.076 135.024 48.324 135.46 48.5 135.988C48.676 136.508 48.764 137.116 48.764 137.812C48.764 138.508 48.676 139.12 48.5 139.648C48.324 140.168 48.076 140.604 47.756 140.956C47.436 141.3 47.048 141.56 46.592 141.736C46.136 141.912 45.632 142 45.08 142H41.924V133.624ZM45.08 140.38C45.624 140.38 46.052 140.228 46.364 139.924C46.676 139.62 46.832 139.132 46.832 138.46V137.164C46.832 136.492 46.676 136.004 46.364 135.7C46.052 135.396 45.624 135.244 45.08 135.244H43.748V140.38H45.08Z" fill="#0668E1" style="fill:#0668E1;fill:color(display-p3 0.0235 0.4078 0.8824);fill-opacity:1;"/>
<path d="M122.924 15V6.624H128.624V8.244H124.748V9.96H128.072V11.568H124.748V13.38H128.624V15H122.924Z" fill="#0668E1" style="fill:#0668E1;fill:color(display-p3 0.0235 0.4078 0.8824);fill-opacity:1;"/>
<path d="M205.636 142.144C204.9 142.144 204.276 142.02 203.764 141.772C203.252 141.516 202.816 141.188 202.456 140.788L203.656 139.576C204.224 140.216 204.924 140.536 205.756 140.536C206.204 140.536 206.536 140.444 206.752 140.26C206.968 140.076 207.076 139.832 207.076 139.528C207.076 139.296 207.012 139.104 206.884 138.952C206.756 138.792 206.496 138.684 206.104 138.628L205.276 138.52C204.388 138.408 203.736 138.14 203.32 137.716C202.912 137.292 202.708 136.728 202.708 136.024C202.708 135.648 202.78 135.304 202.924 134.992C203.068 134.68 203.272 134.412 203.536 134.188C203.808 133.964 204.136 133.792 204.52 133.672C204.912 133.544 205.356 133.48 205.852 133.48C206.484 133.48 207.04 133.58 207.52 133.78C208 133.98 208.412 134.272 208.756 134.656L207.544 135.88C207.344 135.648 207.1 135.46 206.812 135.316C206.532 135.164 206.176 135.088 205.744 135.088C205.336 135.088 205.032 135.16 204.832 135.304C204.632 135.448 204.532 135.648 204.532 135.904C204.532 136.192 204.608 136.4 204.76 136.528C204.92 136.656 205.176 136.748 205.528 136.804L206.356 136.936C207.22 137.072 207.86 137.34 208.276 137.74C208.692 138.132 208.9 138.692 208.9 139.42C208.9 139.82 208.828 140.188 208.684 140.524C208.54 140.86 208.328 141.148 208.048 141.388C207.776 141.628 207.436 141.816 207.028 141.952C206.62 142.08 206.156 142.144 205.636 142.144Z" fill="#0668E1" style="fill:#0668E1;fill:color(display-p3 0.0235 0.4078 0.8824);fill-opacity:1;"/>
<path d="M198 142H54L126 104L198 142Z" fill="#0668E1" style="fill:#0668E1;fill:color(display-p3 0.0235 0.4078 0.8824);fill-opacity:1;"/>
<path d="M115.952 152L114.128 146.416H115.208L116.064 149.136L116.56 150.992H116.584L117.072 149.136L117.928 146.416H118.976L117.152 152H115.952ZM120.206 147.216C119.992 147.216 119.838 147.168 119.742 147.072C119.651 146.976 119.606 146.853 119.606 146.704V146.544C119.606 146.395 119.651 146.272 119.742 146.176C119.838 146.08 119.992 146.032 120.206 146.032C120.414 146.032 120.566 146.08 120.662 146.176C120.758 146.272 120.806 146.395 120.806 146.544V146.704C120.806 146.853 120.758 146.976 120.662 147.072C120.566 147.168 120.414 147.216 120.206 147.216ZM119.694 147.824H120.718V152H119.694V147.824ZM123.273 152.096C122.873 152.096 122.537 152.029 122.265 151.896C121.993 151.757 121.753 151.568 121.545 151.328L122.169 150.72C122.323 150.896 122.491 151.035 122.673 151.136C122.859 151.237 123.073 151.288 123.312 151.288C123.558 151.288 123.734 151.245 123.841 151.16C123.953 151.075 124.009 150.957 124.009 150.808C124.009 150.685 123.969 150.589 123.889 150.52C123.814 150.445 123.683 150.395 123.497 150.368L123.081 150.312C122.627 150.253 122.281 150.125 122.041 149.928C121.806 149.725 121.689 149.432 121.689 149.048C121.689 148.845 121.726 148.664 121.801 148.504C121.875 148.339 121.982 148.2 122.121 148.088C122.259 147.971 122.425 147.883 122.617 147.824C122.814 147.76 123.033 147.728 123.273 147.728C123.475 147.728 123.654 147.744 123.809 147.776C123.969 147.803 124.113 147.845 124.241 147.904C124.369 147.957 124.486 148.027 124.593 148.112C124.699 148.192 124.803 148.283 124.905 148.384L124.305 148.984C124.182 148.856 124.035 148.749 123.865 148.664C123.694 148.579 123.507 148.536 123.305 148.536C123.081 148.536 122.918 148.576 122.817 148.656C122.721 148.736 122.673 148.84 122.673 148.968C122.673 149.107 122.713 149.213 122.793 149.288C122.878 149.357 123.019 149.408 123.217 149.44L123.641 149.496C124.542 149.624 124.993 150.035 124.993 150.728C124.993 150.931 124.95 151.117 124.865 151.288C124.785 151.453 124.67 151.597 124.521 151.72C124.371 151.837 124.19 151.931 123.977 152C123.769 152.064 123.534 152.096 123.273 152.096ZM126.409 147.216C126.195 147.216 126.041 147.168 125.945 147.072C125.854 146.976 125.809 146.853 125.809 146.704V146.544C125.809 146.395 125.854 146.272 125.945 146.176C126.041 146.08 126.195 146.032 126.409 146.032C126.617 146.032 126.769 146.08 126.865 146.176C126.961 146.272 127.009 146.395 127.009 146.544V146.704C127.009 146.853 126.961 146.976 126.865 147.072C126.769 147.168 126.617 147.216 126.409 147.216ZM125.897 147.824H126.921V152H125.897V147.824ZM129.764 152.096C129.465 152.096 129.196 152.045 128.956 151.944C128.721 151.843 128.518 151.696 128.348 151.504C128.182 151.312 128.054 151.083 127.964 150.816C127.873 150.544 127.828 150.24 127.828 149.904C127.828 149.568 127.873 149.267 127.964 149C128.054 148.733 128.182 148.507 128.348 148.32C128.518 148.128 128.721 147.981 128.956 147.88C129.196 147.779 129.465 147.728 129.764 147.728C130.062 147.728 130.332 147.779 130.572 147.88C130.812 147.981 131.014 148.128 131.18 148.32C131.35 148.507 131.481 148.733 131.572 149C131.662 149.267 131.708 149.568 131.708 149.904C131.708 150.24 131.662 150.544 131.572 150.816C131.481 151.083 131.35 151.312 131.18 151.504C131.014 151.696 130.812 151.843 130.572 151.944C130.332 152.045 130.062 152.096 129.764 152.096ZM129.764 151.272C130.036 151.272 130.249 151.189 130.404 151.024C130.558 150.859 130.636 150.616 130.636 150.296V149.52C130.636 149.205 130.558 148.965 130.404 148.8C130.249 148.635 130.036 148.552 129.764 148.552C129.497 148.552 129.286 148.635 129.132 148.8C128.977 148.965 128.9 149.205 128.9 149.52V150.296C128.9 150.616 128.977 150.859 129.132 151.024C129.286 151.189 129.497 151.272 129.764 151.272ZM132.615 152V147.824H133.639V148.52H133.679C133.765 148.296 133.898 148.109 134.079 147.96C134.266 147.805 134.522 147.728 134.847 147.728C135.279 147.728 135.61 147.869 135.839 148.152C136.069 148.435 136.183 148.837 136.183 149.36V152H135.159V149.464C135.159 149.165 135.106 148.941 134.999 148.792C134.893 148.643 134.717 148.568 134.471 148.568C134.365 148.568 134.261 148.584 134.159 148.616C134.063 148.643 133.975 148.685 133.895 148.744C133.821 148.797 133.759 148.867 133.711 148.952C133.663 149.032 133.639 149.128 133.639 149.24V152H132.615Z" fill="#0668E1" style="fill:#0668E1;fill:color(display-p3 0.0235 0.4078 0.8824);fill-opacity:1;"/>
<path d="M126 18V104L197.999 141.999L126 18Z" fill="#0668E1" style="fill:#0668E1;fill:color(display-p3 0.0235 0.4078 0.8824);fill-opacity:1;"/>
<path d="M161.056 66.5958L165.881 63.7845L167.721 66.9715L166.912 67.4427L165.6 65.1702L164.432 65.8509L165.592 67.8601L164.784 68.3313L163.624 66.3222L162.393 67.0391L163.705 69.3115L162.896 69.7828L161.056 66.5958ZM163.203 70.3136L165.747 70.4794L166.827 68.2388L167.411 69.2503L166.647 70.6954L166.663 70.7231L168.287 70.7676L168.831 71.7098L166.333 71.5267L165.227 73.8192L164.643 72.8077L165.447 71.3206L165.431 71.2929L163.747 71.2558L163.203 70.3136ZM166.301 75.8719C166.147 75.604 166.052 75.3383 166.017 75.0748C165.989 74.8133 166.013 74.5616 166.089 74.3198C166.172 74.08 166.306 73.8537 166.491 73.6409C166.681 73.4254 166.921 73.2331 167.211 73.0639C167.497 72.8975 167.776 72.784 168.049 72.7237C168.325 72.6679 168.585 72.6647 168.829 72.7139C169.077 72.7604 169.305 72.8621 169.513 73.0189C169.725 73.173 169.907 73.3818 170.059 73.645C170.222 73.9268 170.315 74.1998 170.338 74.464C170.361 74.7282 170.329 74.9757 170.24 75.2063C170.151 75.4369 170.015 75.649 169.831 75.8425C169.655 76.038 169.442 76.2082 169.193 76.3532L168.903 76.5224L167.515 74.1183L167.425 74.1707C167.162 74.3237 166.993 74.5211 166.917 74.7629C166.846 75.002 166.894 75.2671 167.062 75.558C167.19 75.7797 167.34 75.933 167.512 76.0179C167.687 76.1074 167.878 76.1659 168.085 76.1935L167.829 76.9817C167.536 76.9547 167.255 76.8468 166.986 76.658C166.724 76.4711 166.496 76.209 166.301 75.8719ZM169.404 74.0455C169.268 73.81 169.081 73.6686 168.845 73.6213C168.608 73.574 168.365 73.6229 168.116 73.7679L168.061 73.8001L168.917 75.2827L168.979 75.2465C169.228 75.1015 169.393 74.9223 169.473 74.709C169.56 74.4976 169.537 74.2765 169.404 74.0455ZM168.512 79.7005C168.357 79.4326 168.263 79.1692 168.231 78.9104C168.199 78.6515 168.224 78.4022 168.307 78.1623C168.393 77.9271 168.53 77.7054 168.718 77.4972C168.91 77.2864 169.151 77.0964 169.442 76.9272C169.732 76.7581 170.014 76.6433 170.287 76.5829C170.56 76.5226 170.817 76.5147 171.058 76.5593C171.307 76.6058 171.535 76.7075 171.742 76.8643C171.95 77.0211 172.131 77.2335 172.286 77.5014C172.496 77.8663 172.589 78.2135 172.564 78.543C172.541 78.8772 172.418 79.1806 172.193 79.4533L171.448 78.9152C171.576 78.785 171.656 78.634 171.686 78.4621C171.723 78.2922 171.686 78.1102 171.574 77.9162C171.43 77.6668 171.243 77.5254 171.015 77.492C170.789 77.4632 170.549 77.5226 170.296 77.6703L169.639 78.053C169.385 78.2006 169.215 78.3802 169.128 78.5916C169.048 78.8049 169.08 79.0362 169.224 79.2857C169.346 79.4981 169.494 79.6312 169.667 79.6849C169.844 79.7359 170.032 79.7468 170.23 79.7175L170.298 80.5858C169.91 80.6509 169.565 80.6081 169.263 80.4573C168.965 80.3038 168.714 80.0515 168.512 79.7005ZM171.671 83.5882L171.651 83.5536C171.54 83.5749 171.427 83.5821 171.312 83.575C171.204 83.5698 171.094 83.5445 170.982 83.4989C170.872 83.458 170.765 83.3905 170.662 83.2966C170.561 83.2072 170.468 83.0886 170.382 82.9408C170.166 82.5667 170.123 82.2092 170.253 81.8682C170.382 81.5273 170.673 81.2253 171.124 80.9621L173.405 79.633L173.917 80.5198L171.726 81.7966C171.478 81.9416 171.314 82.1015 171.237 82.2764C171.164 82.4486 171.188 82.6409 171.311 82.8533C171.362 82.9411 171.423 83.0198 171.494 83.0895C171.567 83.1639 171.646 83.22 171.729 83.2578C171.817 83.2929 171.908 83.3111 172.001 83.3124C172.099 83.311 172.196 83.2821 172.293 83.2257L174.677 81.8362L175.189 82.723L171.581 84.8254L171.069 83.9386L171.671 83.5882ZM172.825 86.9793C172.649 86.6745 172.593 86.3956 172.656 86.1427C172.727 85.8916 172.909 85.6802 173.204 85.5084L175.188 84.3524L174.88 83.8189L175.585 83.4081L175.745 83.6852C175.822 83.8192 175.904 83.8918 175.991 83.9031C176.085 83.9163 176.194 83.8866 176.318 83.8141L176.933 83.4557L177.393 84.2524L176.405 84.8284L176.833 85.5697L176.128 85.9805L175.7 85.2392L173.502 86.52L173.898 87.2059L173.193 87.6167L172.825 86.9793ZM178.058 86.4762C177.952 86.2914 177.916 86.1333 177.951 86.0019C177.989 85.875 178.072 85.774 178.201 85.6988L178.339 85.6183C178.468 85.5431 178.597 85.5206 178.725 85.5508C178.856 85.5856 178.975 85.6953 179.081 85.8801C179.185 86.0602 179.22 86.216 179.185 86.3475C179.15 86.479 179.068 86.5823 178.939 86.6575L178.801 86.738C178.672 86.8132 178.542 86.8334 178.411 86.7986C178.28 86.7638 178.162 86.6563 178.058 86.4762ZM177.277 86.3389L177.789 87.2257L174.181 89.3282L173.669 88.4414L177.277 86.3389ZM175.52 91.8386C175.37 91.5799 175.279 91.3211 175.247 91.0623C175.217 90.808 175.242 90.5587 175.323 90.3142C175.406 90.0744 175.54 89.8481 175.725 89.6353C175.915 89.4198 176.155 89.2275 176.445 89.0583C176.736 88.8892 177.019 88.7767 177.295 88.721C177.57 88.6653 177.83 88.662 178.074 88.7112C178.325 88.7623 178.553 88.864 178.758 89.0162C178.966 89.173 179.144 89.3808 179.294 89.6394C179.443 89.8981 179.534 90.1568 179.566 90.4157C179.599 90.6746 179.573 90.9239 179.49 91.1638C179.414 91.4056 179.284 91.6328 179.099 91.8456C178.913 92.0584 178.676 92.2494 178.385 92.4185C178.095 92.5877 177.81 92.7015 177.529 92.7599C177.254 92.8156 176.99 92.8179 176.739 92.7668C176.49 92.7203 176.262 92.6186 176.055 92.4618C175.847 92.305 175.669 92.0972 175.52 91.8386ZM176.231 91.4237C176.367 91.6593 176.546 91.8024 176.766 91.8531C176.986 91.9038 177.234 91.8486 177.511 91.6875L178.181 91.2968C178.453 91.1384 178.622 90.9506 178.687 90.7334C178.753 90.5162 178.718 90.2898 178.582 90.0543C178.448 89.8233 178.272 89.6825 178.051 89.6318C177.831 89.5811 177.585 89.635 177.313 89.7934L176.643 90.1841C176.366 90.3452 176.195 90.5343 176.13 90.7515C176.064 90.9687 176.098 91.1928 176.231 91.4237ZM177.028 94.26L180.637 92.1575L181.149 93.0443L180.547 93.3947L180.567 93.4294C180.803 93.3905 181.031 93.412 181.251 93.4938C181.478 93.5776 181.673 93.7604 181.835 94.0421C182.051 94.4163 182.095 94.7738 181.965 95.1147C181.836 95.4556 181.545 95.7577 181.093 96.0208L178.812 97.3499L178.3 96.4631L180.492 95.1864C180.75 95.036 180.916 94.877 180.992 94.7095C181.068 94.5419 181.044 94.3519 180.922 94.1394C180.868 94.0471 180.803 93.965 180.724 93.8934C180.653 93.8237 180.572 93.769 180.482 93.7292C180.398 93.6914 180.308 93.6732 180.21 93.6746C180.117 93.6733 180.022 93.7008 179.925 93.7572L177.54 95.1468L177.028 94.26Z" fill="#0668E1" style="fill:#0668E1;fill:color(display-p3 0.0235 0.4078 0.8824);fill-opacity:1;"/>
<path d="M126 18L120.993 20.8744L125.986 23.7735L126 18ZM54 142L59.0071 139.126L54.0142 136.227L54 142ZM54.9324 141.39C55.0711 141.151 54.9899 140.845 54.7511 140.706C54.5123 140.568 54.2063 140.649 54.0676 140.888L54.5 141.139L54.9324 141.39ZM55.0676 139.166C54.9289 139.404 55.0101 139.71 55.2489 139.849C55.4877 139.988 55.7937 139.907 55.9324 139.668L55.5 139.417L55.0676 139.166ZM56.9324 137.946C57.0711 137.707 56.9899 137.401 56.7511 137.262C56.5123 137.123 56.2063 137.205 56.0676 137.443L56.5 137.694L56.9324 137.946ZM57.0676 135.721C56.9289 135.96 57.0101 136.266 57.2489 136.405C57.4877 136.543 57.7937 136.462 57.9324 136.223L57.5 135.972L57.0676 135.721ZM58.9324 134.501C59.0711 134.262 58.9899 133.956 58.7511 133.818C58.5123 133.679 58.2063 133.76 58.0676 133.999L58.5 134.25L58.9324 134.501ZM59.0676 132.277C58.9289 132.516 59.0101 132.822 59.2489 132.96C59.4877 133.099 59.7937 133.018 59.9324 132.779L59.5 132.528L59.0676 132.277ZM60.9324 131.057C61.0711 130.818 60.9899 130.512 60.7511 130.373C60.5123 130.234 60.2063 130.316 60.0676 130.554L60.5 130.806L60.9324 131.057ZM61.0676 128.832C60.9289 129.071 61.0101 129.377 61.2489 129.516C61.4877 129.654 61.7937 129.573 61.9324 129.334L61.5 129.083L61.0676 128.832ZM62.9324 127.612C63.0711 127.373 62.9899 127.067 62.7511 126.929C62.5123 126.79 62.2063 126.871 62.0676 127.11L62.5 127.361L62.9324 127.612ZM63.0676 125.388C62.9289 125.627 63.0101 125.933 63.2489 126.071C63.4877 126.21 63.7937 126.129 63.9324 125.89L63.5 125.639L63.0676 125.388ZM64.9324 124.168C65.0711 123.929 64.9899 123.623 64.7511 123.484C64.5123 123.346 64.2063 123.427 64.0676 123.666L64.5 123.917L64.9324 124.168ZM65.0676 121.943C64.9289 122.182 65.0101 122.488 65.2489 122.627C65.4877 122.765 65.7937 122.684 65.9324 122.446L65.5 122.194L65.0676 121.943ZM66.9324 120.723C67.0711 120.484 66.9899 120.178 66.7511 120.04C66.5123 119.901 66.2063 119.982 66.0676 120.221L66.5 120.472L66.9324 120.723ZM67.0676 118.499C66.9289 118.738 67.0101 119.044 67.2489 119.182C67.4877 119.321 67.7937 119.24 67.9324 119.001L67.5 118.75L67.0676 118.499ZM68.9324 117.279C69.0711 117.04 68.9899 116.734 68.7511 116.595C68.5123 116.457 68.2063 116.538 68.0676 116.777L68.5 117.028L68.9324 117.279ZM69.0676 115.054C68.9289 115.293 69.0101 115.599 69.2489 115.738C69.4877 115.877 69.7937 115.795 69.9324 115.557L69.5 115.306L69.0676 115.054ZM70.9324 113.834C71.0711 113.596 70.9899 113.29 70.7511 113.151C70.5123 113.012 70.2063 113.093 70.0676 113.332L70.5 113.583L70.9324 113.834ZM71.0676 111.61C70.9289 111.849 71.0101 112.155 71.2489 112.294C71.4877 112.432 71.7937 112.351 71.9324 112.112L71.5 111.861L71.0676 111.61ZM72.9324 110.39C73.0711 110.151 72.9899 109.845 72.7511 109.706C72.5123 109.568 72.2063 109.649 72.0676 109.888L72.5 110.139L72.9324 110.39ZM73.0676 108.166C72.9289 108.404 73.0101 108.71 73.2489 108.849C73.4877 108.988 73.7937 108.907 73.9324 108.668L73.5 108.417L73.0676 108.166ZM74.9324 106.946C75.0711 106.707 74.9899 106.401 74.7511 106.262C74.5123 106.123 74.2063 106.205 74.0676 106.443L74.5 106.694L74.9324 106.946ZM75.0676 104.721C74.9289 104.96 75.0101 105.266 75.2489 105.405C75.4877 105.543 75.7937 105.462 75.9324 105.223L75.5 104.972L75.0676 104.721ZM76.9324 103.501C77.0711 103.262 76.9899 102.956 76.7511 102.818C76.5123 102.679 76.2063 102.76 76.0676 102.999L76.5 103.25L76.9324 103.501ZM77.0676 101.277C76.9289 101.516 77.0101 101.822 77.2489 101.96C77.4877 102.099 77.7937 102.018 77.9324 101.779L77.5 101.528L77.0676 101.277ZM78.9324 100.057C79.0711 99.8178 78.9899 99.5118 78.7511 99.3732C78.5123 99.2345 78.2063 99.3157 78.0676 99.5545L78.5 99.8056L78.9324 100.057ZM79.0676 97.8323C78.9289 98.0711 79.0101 98.3771 79.2489 98.5157C79.4877 98.6544 79.7937 98.5732 79.9324 98.3344L79.5 98.0833L79.0676 97.8323ZM80.9324 96.6122C81.0711 96.3734 80.9899 96.0674 80.7511 95.9287C80.5123 95.7901 80.2063 95.8712 80.0676 96.11L80.5 96.3611L80.9324 96.6122ZM81.0676 94.3878C80.9289 94.6266 81.0101 94.9326 81.2489 95.0713C81.4877 95.21 81.7937 95.1288 81.9324 94.89L81.5 94.6389L81.0676 94.3878ZM82.9324 93.1677C83.0711 92.9289 82.9899 92.6229 82.7511 92.4843C82.5123 92.3456 82.2063 92.4268 82.0676 92.6656L82.5 92.9167L82.9324 93.1677ZM83.0676 90.9434C82.9289 91.1822 83.0101 91.4882 83.2489 91.6268C83.4877 91.7655 83.7937 91.6843 83.9324 91.4455L83.5 91.1945L83.0676 90.9434ZM84.9324 89.7233C85.0711 89.4845 84.9899 89.1785 84.7511 89.0398C84.5123 88.9012 84.2063 88.9824 84.0676 89.2212L84.5 89.4722L84.9324 89.7233ZM85.0676 87.4989C84.9289 87.7377 85.0101 88.0437 85.2489 88.1824C85.4877 88.3211 85.7937 88.2399 85.9324 88.0011L85.5 87.75L85.0676 87.4989ZM86.9324 86.2789C87.0711 86.04 86.9899 85.7341 86.7511 85.5954C86.5123 85.4567 86.2063 85.5379 86.0676 85.7767L86.5 86.0278L86.9324 86.2789ZM87.0676 84.0545C86.9289 84.2933 87.0101 84.5993 87.2489 84.738C87.4877 84.8766 87.7937 84.7954 87.9324 84.5566L87.5 84.3056L87.0676 84.0545ZM88.9324 82.8344C89.071 82.5956 88.9899 82.2896 88.7511 82.1509C88.5123 82.0123 88.2063 82.0935 88.0676 82.3323L88.5 82.5833L88.9324 82.8344ZM89.0676 80.6101C88.9289 80.8489 89.0101 81.1549 89.2489 81.2935C89.4877 81.4322 89.7937 81.351 89.9324 81.1122L89.5 80.8611L89.0676 80.6101ZM90.9324 79.39C91.071 79.1512 90.9899 78.8452 90.7511 78.7065C90.5123 78.5678 90.2063 78.649 90.0676 78.8878L90.5 79.1389L90.9324 79.39ZM91.0676 77.1656C90.9289 77.4044 91.0101 77.7104 91.2489 77.8491C91.4877 77.9877 91.7937 77.9065 91.9324 77.6677L91.5 77.4167L91.0676 77.1656ZM92.9324 75.9455C93.071 75.7067 92.9899 75.4007 92.7511 75.2621C92.5123 75.1234 92.2063 75.2046 92.0676 75.4434L92.5 75.6945L92.9324 75.9455ZM93.0676 73.7212C92.9289 73.96 93.0101 74.266 93.2489 74.4046C93.4877 74.5433 93.7937 74.4621 93.9324 74.2233L93.5 73.9722L93.0676 73.7212ZM94.9324 72.5011C95.071 72.2623 94.9899 71.9563 94.7511 71.8176C94.5123 71.679 94.2063 71.7601 94.0676 71.9989L94.5 72.25L94.9324 72.5011ZM95.0676 70.2767C94.9289 70.5155 95.0101 70.8215 95.2489 70.9602C95.4877 71.0988 95.7937 71.0177 95.9324 70.7789L95.5 70.5278L95.0676 70.2767ZM96.9324 69.0566C97.071 68.8178 96.9899 68.5118 96.7511 68.3732C96.5123 68.2345 96.2063 68.3157 96.0676 68.5545L96.5 68.8056L96.9324 69.0566ZM97.0676 66.8323C96.9289 67.0711 97.0101 67.3771 97.2489 67.5157C97.4877 67.6544 97.7937 67.5732 97.9324 67.3344L97.5 67.0834L97.0676 66.8323ZM98.9324 65.6122C99.071 65.3734 98.9899 65.0674 98.7511 64.9287C98.5123 64.7901 98.2063 64.8713 98.0676 65.1101L98.5 65.3611L98.9324 65.6122ZM99.0676 63.3878C98.9289 63.6266 99.0101 63.9326 99.2489 64.0713C99.4877 64.21 99.7937 64.1288 99.9324 63.89L99.5 63.6389L99.0676 63.3878ZM100.932 62.1678C101.071 61.9289 100.99 61.623 100.751 61.4843C100.512 61.3456 100.206 61.4268 100.068 61.6656L100.5 61.9167L100.932 62.1678ZM101.068 59.9434C100.929 60.1822 101.01 60.4882 101.249 60.6269C101.488 60.7655 101.794 60.6843 101.932 60.4455L101.5 60.1945L101.068 59.9434ZM102.932 58.7233C103.071 58.4845 102.99 58.1785 102.751 58.0399C102.512 57.9012 102.206 57.9824 102.068 58.2212L102.5 58.4722L102.932 58.7233ZM103.068 56.499C102.929 56.7378 103.01 57.0438 103.249 57.1824C103.488 57.3211 103.794 57.2399 103.932 57.0011L103.5 56.75L103.068 56.499ZM104.932 55.2789C105.071 55.0401 104.99 54.7341 104.751 54.5954C104.512 54.4567 104.206 54.5379 104.068 54.7767L104.5 55.0278L104.932 55.2789ZM105.068 53.0545C104.929 53.2933 105.01 53.5993 105.249 53.738C105.488 53.8766 105.794 53.7954 105.932 53.5566L105.5 53.3056L105.068 53.0545ZM106.932 51.8344C107.071 51.5956 106.99 51.2896 106.751 51.151C106.512 51.0123 106.206 51.0935 106.068 51.3323L106.5 51.5834L106.932 51.8344ZM107.068 49.6101C106.929 49.8489 107.01 50.1549 107.249 50.2935C107.488 50.4322 107.794 50.351 107.932 50.1122L107.5 49.8611L107.068 49.6101ZM108.932 48.39C109.071 48.1512 108.99 47.8452 108.751 47.7065C108.512 47.5679 108.206 47.649 108.068 47.8878L108.5 48.1389L108.932 48.39ZM109.068 46.1656C108.929 46.4044 109.01 46.7104 109.249 46.8491C109.488 46.9877 109.794 46.9066 109.932 46.6678L109.5 46.4167L109.068 46.1656ZM110.932 44.9455C111.071 44.7067 110.99 44.4007 110.751 44.2621C110.512 44.1234 110.206 44.2046 110.068 44.4434L110.5 44.6945L110.932 44.9455ZM111.068 42.7212C110.929 42.96 111.01 43.266 111.249 43.4046C111.488 43.5433 111.794 43.4621 111.932 43.2233L111.5 42.9723L111.068 42.7212ZM112.932 41.5011C113.071 41.2623 112.99 40.9563 112.751 40.8176C112.512 40.679 112.206 40.7602 112.068 40.999L112.5 41.25L112.932 41.5011ZM113.068 39.2767C112.929 39.5155 113.01 39.8215 113.249 39.9602C113.488 40.0989 113.794 40.0177 113.932 39.7789L113.5 39.5278L113.068 39.2767ZM114.932 38.0567C115.071 37.8179 114.99 37.5119 114.751 37.3732C114.512 37.2345 114.206 37.3157 114.068 37.5545L114.5 37.8056L114.932 38.0567ZM115.068 35.8323C114.929 36.0711 115.01 36.3771 115.249 36.5158C115.488 36.6544 115.794 36.5732 115.932 36.3344L115.5 36.0834L115.068 35.8323ZM116.932 34.6122C117.071 34.3734 116.99 34.0674 116.751 33.9288C116.512 33.7901 116.206 33.8713 116.068 34.1101L116.5 34.3611L116.932 34.6122ZM117.068 32.3879C116.929 32.6267 117.01 32.9327 117.249 33.0713C117.488 33.21 117.794 33.1288 117.932 32.89L117.5 32.6389L117.068 32.3879ZM118.932 31.1678C119.071 30.929 118.99 30.623 118.751 30.4843C118.512 30.3457 118.206 30.4268 118.068 30.6656L118.5 30.9167L118.932 31.1678ZM119.068 28.9434C118.929 29.1822 119.01 29.4882 119.249 29.6269C119.488 29.7655 119.794 29.6843 119.932 29.4455L119.5 29.1945L119.068 28.9434ZM120.932 27.7233C121.071 27.4845 120.99 27.1785 120.751 27.0399C120.512 26.9012 120.206 26.9824 120.068 27.2212L120.5 27.4722L120.932 27.7233ZM121.068 25.499C120.929 25.7378 121.01 26.0438 121.249 26.1824C121.488 26.3211 121.794 26.2399 121.932 26.0011L121.5 25.75L121.068 25.499ZM122.932 24.2789C123.071 24.0401 122.99 23.7341 122.751 23.5954C122.512 23.4567 122.206 23.5379 122.068 23.7767L122.5 24.0278L122.932 24.2789ZM123.068 22.0545C122.929 22.2933 123.01 22.5993 123.249 22.738C123.488 22.8766 123.794 22.7954 123.932 22.5566L123.5 22.3056L123.068 22.0545ZM124.932 20.8344C125.071 20.5956 124.99 20.2896 124.751 20.1509C124.512 20.0123 124.206 20.0935 124.068 20.3323L124.5 20.5833L124.932 20.8344ZM125.068 18.61C124.929 18.8488 125.01 19.1548 125.249 19.2935C125.488 19.4322 125.794 19.351 125.932 19.1122L125.5 18.8611L125.068 18.61ZM55.5 139.417L55.9324 139.668L56.9324 137.946L56.5 137.694L56.0676 137.443L55.0676 139.166L55.5 139.417ZM57.5 135.972L57.9324 136.223L58.9324 134.501L58.5 134.25L58.0676 133.999L57.0676 135.721L57.5 135.972ZM59.5 132.528L59.9324 132.779L60.9324 131.057L60.5 130.806L60.0676 130.554L59.0676 132.277L59.5 132.528ZM61.5 129.083L61.9324 129.334L62.9324 127.612L62.5 127.361L62.0676 127.11L61.0676 128.832L61.5 129.083ZM63.5 125.639L63.9324 125.89L64.9324 124.168L64.5 123.917L64.0676 123.666L63.0676 125.388L63.5 125.639ZM65.5 122.194L65.9324 122.446L66.9324 120.723L66.5 120.472L66.0676 120.221L65.0676 121.943L65.5 122.194ZM67.5 118.75L67.9324 119.001L68.9324 117.279L68.5 117.028L68.0676 116.777L67.0676 118.499L67.5 118.75ZM69.5 115.306L69.9324 115.557L70.9324 113.834L70.5 113.583L70.0676 113.332L69.0676 115.054L69.5 115.306ZM71.5 111.861L71.9324 112.112L72.9324 110.39L72.5 110.139L72.0676 109.888L71.0676 111.61L71.5 111.861ZM73.5 108.417L73.9324 108.668L74.9324 106.946L74.5 106.694L74.0676 106.443L73.0676 108.166L73.5 108.417ZM75.5 104.972L75.9324 105.223L76.9324 103.501L76.5 103.25L76.0676 102.999L75.0676 104.721L75.5 104.972ZM77.5 101.528L77.9324 101.779L78.9324 100.057L78.5 99.8056L78.0676 99.5545L77.0676 101.277L77.5 101.528ZM79.5 98.0833L79.9324 98.3344L80.9324 96.6122L80.5 96.3611L80.0676 96.11L79.0676 97.8323L79.5 98.0833ZM81.5 94.6389L81.9324 94.89L82.9324 93.1677L82.5 92.9167L82.0676 92.6656L81.0676 94.3878L81.5 94.6389ZM83.5 91.1945L83.9324 91.4455L84.9324 89.7233L84.5 89.4722L84.0676 89.2212L83.0676 90.9434L83.5 91.1945ZM85.5 87.75L85.9324 88.0011L86.9324 86.2789L86.5 86.0278L86.0676 85.7767L85.0676 87.4989L85.5 87.75ZM87.5 84.3056L87.9324 84.5566L88.9324 82.8344L88.5 82.5833L88.0676 82.3323L87.0676 84.0545L87.5 84.3056ZM89.5 80.8611L89.9324 81.1122L90.9324 79.39L90.5 79.1389L90.0676 78.8878L89.0676 80.6101L89.5 80.8611ZM91.5 77.4167L91.9324 77.6677L92.9324 75.9455L92.5 75.6945L92.0676 75.4434L91.0676 77.1656L91.5 77.4167ZM93.5 73.9722L93.9324 74.2233L94.9324 72.5011L94.5 72.25L94.0676 71.9989L93.0676 73.7212L93.5 73.9722ZM95.5 70.5278L95.9324 70.7789L96.9324 69.0566L96.5 68.8056L96.0676 68.5545L95.0676 70.2767L95.5 70.5278ZM97.5 67.0834L97.9324 67.3344L98.9324 65.6122L98.5 65.3611L98.0676 65.1101L97.0676 66.8323L97.5 67.0834ZM99.5 63.6389L99.9324 63.89L100.932 62.1678L100.5 61.9167L100.068 61.6656L99.0676 63.3878L99.5 63.6389ZM101.5 60.1945L101.932 60.4455L102.932 58.7233L102.5 58.4722L102.068 58.2212L101.068 59.9434L101.5 60.1945ZM103.5 56.75L103.932 57.0011L104.932 55.2789L104.5 55.0278L104.068 54.7767L103.068 56.499L103.5 56.75ZM105.5 53.3056L105.932 53.5566L106.932 51.8344L106.5 51.5834L106.068 51.3323L105.068 53.0545L105.5 53.3056ZM107.5 49.8611L107.932 50.1122L108.932 48.39L108.5 48.1389L108.068 47.8878L107.068 49.6101L107.5 49.8611ZM109.5 46.4167L109.932 46.6678L110.932 44.9455L110.5 44.6945L110.068 44.4434L109.068 46.1656L109.5 46.4167ZM111.5 42.9723L111.932 43.2233L112.932 41.5011L112.5 41.25L112.068 40.999L111.068 42.7212L111.5 42.9723ZM113.5 39.5278L113.932 39.7789L114.932 38.0567L114.5 37.8056L114.068 37.5545L113.068 39.2767L113.5 39.5278ZM115.5 36.0834L115.932 36.3344L116.932 34.6122L116.5 34.3611L116.068 34.1101L115.068 35.8323L115.5 36.0834ZM117.5 32.6389L117.932 32.89L118.932 31.1678L118.5 30.9167L118.068 30.6656L117.068 32.3879L117.5 32.6389ZM119.5 29.1945L119.932 29.4455L120.932 27.7233L120.5 27.4722L120.068 27.2212L119.068 28.9434L119.5 29.1945ZM121.5 25.75L121.932 26.0011L122.932 24.2789L122.5 24.0278L122.068 23.7767L121.068 25.499L121.5 25.75ZM123.5 22.3056L123.932 22.5566L124.932 20.8344L124.5 20.5833L124.068 20.3323L123.068 22.0545L123.5 22.3056Z" fill="#0668E1" style="fill:#0668E1;fill:color(display-p3 0.0235 0.4078 0.8824);fill-opacity:1;"/>
<path d="M76.1576 84.4839C75.7989 85.1082 75.3832 85.5746 74.9106 85.8831C74.4421 86.1847 73.9381 86.3872 73.3989 86.4906L73.0384 85.0468C73.4725 84.9657 73.8534 84.8167 74.181 84.5998C74.5127 84.376 74.7861 84.0768 75.0014 83.7023C75.2445 83.2792 75.3379 82.9079 75.2816 82.5885C75.2183 82.2651 75.0309 82.0131 74.7195 81.8325C74.4773 81.692 74.2402 81.647 74.0083 81.6974C73.7763 81.7478 73.5161 81.9437 73.2277 82.2851L72.7292 82.9115C71.6678 84.2287 70.5488 84.5462 69.3724 83.8638C69.0471 83.6751 68.7869 83.4456 68.5917 83.1752C68.4005 82.8978 68.2772 82.5905 68.2219 82.2532C68.1666 81.9159 68.1822 81.5597 68.2687 81.1844C68.3522 80.7982 68.5116 80.4005 68.7468 79.9912C69.0617 79.4433 69.4267 79.0169 69.8418 78.712C70.2569 78.4071 70.7246 78.2114 71.245 78.1248L71.5892 79.5729C71.2641 79.6248 70.9586 79.7389 70.6727 79.9153C70.3868 80.0917 70.1323 80.374 69.909 80.7625C69.6818 81.1578 69.5866 81.5002 69.6232 81.7897C69.6569 82.0682 69.8087 82.2857 70.0786 82.4423C70.3554 82.6028 70.6054 82.6415 70.8286 82.5582C71.0517 82.4749 71.2961 82.2745 71.5617 81.9569L72.0749 81.3528C72.6289 80.6939 73.1751 80.2893 73.7135 80.1392C74.2489 79.9781 74.8177 80.0722 75.4198 80.4214C75.7658 80.6221 76.0448 80.8671 76.2567 81.1565C76.4658 81.435 76.6063 81.7524 76.6784 82.1086C76.7476 82.4539 76.7398 82.8286 76.6552 83.2327C76.5746 83.6299 76.4088 84.0469 76.1576 84.4839ZM79.2943 78.7369C79.0312 79.1947 78.7122 79.4768 78.3374 79.5831C77.9597 79.6784 77.5494 79.5976 77.1065 79.3408L74.1274 77.6128L73.667 78.4139L72.6082 77.7998L72.8473 77.3836C72.9629 77.1825 72.9957 77.0211 72.9456 76.8996C72.8925 76.7671 72.7726 76.6467 72.5858 76.5383L71.6619 76.0024L72.3495 74.8059L73.8339 75.6669L74.4737 74.5537L75.5325 75.1678L74.8927 76.281L78.1936 78.1957L78.7856 77.1656L79.8443 77.7798L79.2943 78.7369ZM80.556 76.5414L75.1375 73.3985L75.9029 72.0668L77.0239 72.717L77.0538 72.665C76.9284 72.546 76.8199 72.4137 76.7283 72.2681C76.6337 72.1115 76.5684 71.9442 76.5324 71.7661C76.4964 71.5879 76.493 71.4011 76.5224 71.2054C76.5558 71.0028 76.6343 70.794 76.7579 70.579L76.9253 70.2877L78.1813 71.0162L77.9421 71.4323C77.683 71.8832 77.5535 72.2612 77.5534 72.5664C77.5533 72.8715 77.7021 73.1104 77.9997 73.283L81.3213 75.2097L80.556 76.5414ZM85.1351 68.5734C84.9677 68.8647 84.7511 69.0489 84.4854 69.126C84.2167 69.1921 83.9285 69.1637 83.6209 69.0408L83.585 69.1032C83.8861 69.3981 84.0469 69.7364 84.0674 70.1182C84.081 70.496 83.9701 70.8895 83.735 71.2988C83.4161 71.8537 83.0256 72.1959 82.5636 72.3256C82.1015 72.4553 81.6283 72.3796 81.1439 72.0987C80.5833 71.7736 80.2837 71.3316 80.245 70.7727C80.1994 70.2099 80.3899 69.5574 80.8164 68.8152L81.3485 67.8892L80.9541 67.6604C80.6496 67.4838 80.3685 67.4271 80.1107 67.4903C79.8529 67.5535 79.6224 67.762 79.4191 68.1157C79.2397 68.4278 79.1634 68.7212 79.1902 68.9956C79.2141 69.2592 79.2816 69.511 79.3927 69.7512L78.2324 70.1325C78.0366 69.7507 77.9409 69.3392 77.9454 68.8979C77.943 68.4526 78.0992 67.9559 78.4141 67.408C78.8367 66.6727 79.3236 66.2107 79.875 66.0219C80.4265 65.833 81.0136 65.9193 81.6364 66.2805L84.1899 67.7616L84.5008 67.2206L85.5596 67.8347L85.1351 68.5734ZM83.0267 70.2915C83.1981 69.9932 83.2779 69.7019 83.266 69.4175C83.2541 69.1332 83.1201 68.9168 82.864 68.7682L82.1478 68.3528L81.6575 69.206C81.2589 69.8996 81.281 70.3748 81.7239 70.6317L81.9004 70.7341C82.1218 70.8625 82.3278 70.8895 82.5182 70.815C82.7057 70.7295 82.8752 70.555 83.0267 70.2915ZM87.1303 65.1017C86.8672 65.5594 86.5483 65.8415 86.1735 65.9478C85.7957 66.0431 85.3854 65.9623 84.9425 65.7055L81.9634 63.9775L81.503 64.7786L80.4442 64.1645L80.6834 63.7483C80.799 63.5472 80.8317 63.3858 80.7816 63.2643C80.7286 63.1318 80.6086 63.0114 80.4218 62.903L79.498 62.3671L80.1856 61.1706L81.6699 62.0316L82.3097 60.9184L83.3685 61.5325L82.7287 62.6457L86.0296 64.5604L86.6216 63.5303L87.6804 64.1445L87.1303 65.1017ZM89.7549 60.8237C89.5237 61.226 89.2506 61.5485 88.9358 61.7913C88.618 62.0232 88.2742 62.1799 87.9045 62.2613C87.5318 62.3318 87.1386 62.3257 86.7248 62.2429C86.3041 62.1561 85.8758 61.9863 85.4398 61.7334C85.0107 61.4846 84.6551 61.2043 84.3729 60.8926C84.0946 60.574 83.8962 60.237 83.7775 59.8815C83.652 59.5219 83.6132 59.148 83.6611 58.7596C83.702 58.3672 83.8361 57.9733 84.0633 57.5779C84.3065 57.1548 84.5904 56.8294 84.9151 56.6015C85.2398 56.3737 85.5845 56.2314 85.9492 56.1748C86.314 56.1181 86.6903 56.1376 87.0783 56.2332C87.4633 56.3178 87.8427 56.4684 88.2164 56.6852L88.6524 56.9381L86.5776 60.5484L86.7125 60.6266C87.107 60.8554 87.4891 60.9291 87.8588 60.8476C88.2217 60.7621 88.5287 60.5009 88.7798 60.0639C88.9711 59.731 89.0574 59.4203 89.0386 59.132C89.0237 58.8367 88.9569 58.5436 88.838 58.2527L90.0499 57.9984C90.2337 58.401 90.304 58.8486 90.2607 59.3414C90.2145 59.8233 90.0459 60.3174 89.7549 60.8237ZM85.0718 58.1351C84.8685 58.4889 84.8247 58.838 84.9404 59.1826C85.0561 59.5271 85.3008 59.8078 85.6745 60.0245L85.7575 60.0727L87.0371 57.8462L86.9437 57.792C86.57 57.5753 86.2151 57.4943 85.8791 57.5491C85.5402 57.593 85.2711 57.7883 85.0718 58.1351ZM94.9757 52.5096C95.2595 52.6742 95.4787 52.8707 95.6334 53.0992C95.7991 53.3248 95.8888 53.5941 95.9026 53.9073C95.9163 54.2205 95.8577 54.5795 95.7265 54.9843C95.5953 55.3892 95.3803 55.8517 95.0813 56.3719C94.8182 56.8297 94.5639 57.2001 94.3182 57.483C94.0795 57.77 93.845 57.9854 93.6147 58.1292C93.3953 58.2702 93.1801 58.3396 92.9691 58.3374C92.7581 58.3353 92.5523 58.276 92.3516 58.1596C92.0471 57.983 91.8562 57.7613 91.7789 57.4945C91.7124 57.2247 91.7427 56.9232 91.8696 56.5899L91.7555 56.5237C91.5725 56.7135 91.3656 56.8247 91.1347 56.8572C90.9009 56.8788 90.6732 56.8254 90.4518 56.697C90.3134 56.6167 90.2082 56.5187 90.1363 56.403C90.0575 56.2833 90.0059 56.1563 89.9816 56.0219C89.9613 55.8807 89.9608 55.737 89.9801 55.591C89.9925 55.441 90.0227 55.2921 90.0708 55.1442L90.0293 55.1201C89.6857 55.3648 89.3311 55.4921 88.9656 55.502C88.604 55.505 88.2433 55.4021 87.8834 55.1934C87.3298 54.8723 86.9966 54.4246 86.8836 53.8505C86.7638 53.2723 86.9151 52.6156 87.3376 51.8804C87.4333 51.7139 87.5374 51.5569 87.6498 51.4094C87.7662 51.255 87.8885 51.1225 88.0167 51.0119L87.8402 50.9095C87.3143 50.6045 87.1988 50.1953 87.4938 49.682L87.9781 48.8393L88.9954 49.4293L88.3317 50.5842L88.477 50.6685C88.7996 50.4764 89.1288 50.3853 89.4646 50.3951C89.8003 50.4048 90.1343 50.5061 90.4665 50.6987C91.0132 51.0158 91.343 51.4615 91.4559 52.0356C91.5728 52.6028 91.418 53.2575 90.9915 53.9997C90.8081 54.3188 90.6175 54.5782 90.4197 54.7779C90.4084 54.91 90.4223 55.0383 90.4615 55.1628C90.4938 55.2832 90.5687 55.3776 90.6864 55.4458C90.9563 55.6023 91.2267 55.4448 91.4978 54.9731L92.3349 53.5165C92.7176 52.8506 93.133 52.4489 93.5812 52.3112C94.0265 52.1625 94.4913 52.2287 94.9757 52.5096ZM94.4139 53.8485C94.2409 53.7481 94.0661 53.7392 93.8895 53.8217C93.7129 53.9043 93.527 54.1155 93.3316 54.4553L92.2673 56.3073C92.2981 56.5749 92.4311 56.7769 92.6664 56.9133C92.874 57.0338 93.0865 57.0414 93.3038 56.9362C93.5211 56.831 93.7493 56.5704 93.9885 56.1542L94.3711 55.4883C94.6223 55.0514 94.7483 54.7036 94.7492 54.4452C94.754 54.1798 94.6423 53.9809 94.4139 53.8485ZM90.0884 53.4759C90.4631 52.8239 90.3736 52.3373 89.82 52.0162L89.6436 51.9139C89.09 51.5928 88.6258 51.7582 88.2511 52.4102C87.8764 53.0622 87.9659 53.5488 88.5195 53.8699L88.6959 53.9722C89.2496 54.2933 89.7137 54.1279 90.0884 53.4759ZM91.485 44.9526L92.2026 43.7041L97.3308 49.5918C97.4847 49.7735 97.6049 49.9496 97.6915 50.1201C97.789 50.2876 97.8488 50.4564 97.871 50.6265C97.8932 50.7966 97.8773 50.9769 97.8231 51.1675C97.769 51.358 97.6781 51.5643 97.5506 51.7862L97.0902 52.5874L96.0314 51.9732L96.5934 50.9952L95.9792 50.306L89.1831 48.9582L89.9424 47.6369L93.3515 48.3518L94.925 48.7928L94.9608 48.7304L93.8059 47.5611L91.485 44.9526Z" fill="#0668E1" style="fill:#0668E1;fill:color(display-p3 0.0235 0.4078 0.8824);fill-opacity:1;"/>
<path d="M104.275 92.3307L104.251 92.3723C104.568 92.6394 104.752 93.0097 104.803 93.4831C104.851 93.9456 104.718 94.4508 104.403 94.9987C104.156 95.4288 103.847 95.7815 103.476 96.0568C103.11 96.3251 102.693 96.5043 102.226 96.5941C101.757 96.6731 101.246 96.6544 100.695 96.538C100.143 96.4217 99.5632 96.1869 98.9542 95.8337C98.3453 95.4805 97.8528 95.0931 97.4769 94.6716C97.098 94.2391 96.8311 93.7884 96.6762 93.3193C96.5213 92.8503 96.4744 92.37 96.5355 91.8783C96.5966 91.3866 96.7667 90.898 97.0457 90.4124C97.4204 89.7604 97.8812 89.2878 98.428 88.9946C98.9748 88.7014 99.5904 88.5775 100.275 88.623L100.289 90.1156C99.9018 90.0667 99.5286 90.1139 99.1696 90.2571C98.8145 90.3933 98.5114 90.6799 98.2602 91.1169C97.9493 91.6579 97.8663 92.1877 98.0111 92.7064C98.153 93.2141 98.5457 93.6546 99.1893 94.0279L100.352 94.7022C100.989 95.0715 101.567 95.1895 102.086 95.0561C102.606 94.9228 103.023 94.5822 103.338 94.0342C103.461 93.8192 103.553 93.604 103.612 93.3886C103.664 93.1692 103.678 92.9601 103.654 92.7611C103.63 92.5622 103.566 92.377 103.461 92.2054C103.357 92.0339 103.201 91.8879 102.993 91.7675L102.526 91.4966L101.707 92.9219L100.555 92.2536L102.133 89.5069L106.078 91.7948L105.396 92.9809L104.275 92.3307ZM109.24 86.2918C109.073 86.5832 108.856 86.7674 108.591 86.8444C108.322 86.9106 108.034 86.8821 107.726 86.7592L107.69 86.8216C107.991 87.1165 108.152 87.4548 108.173 87.8366C108.186 88.2144 108.075 88.6079 107.84 89.0172C107.521 89.5721 107.131 89.9144 106.669 90.044C106.207 90.1737 105.734 90.0981 105.249 89.8171C104.689 89.492 104.389 89.05 104.35 88.4911C104.305 87.9283 104.495 87.2758 104.922 86.5336L105.454 85.6076L105.059 85.3788C104.755 85.2022 104.474 85.1455 104.216 85.2087C103.958 85.2719 103.728 85.4804 103.524 85.8341C103.345 86.1463 103.269 86.4396 103.296 86.7141C103.319 86.9776 103.387 87.2295 103.498 87.4696L102.338 87.8509C102.142 87.4692 102.046 87.0576 102.051 86.6163C102.048 86.171 102.205 85.6743 102.519 85.1264C102.942 84.3911 103.429 83.9291 103.98 83.7403C104.532 83.5515 105.119 83.6377 105.742 83.9989L108.295 85.48L108.606 84.939L109.665 85.5531L109.24 86.2918ZM107.132 88.0099C107.303 87.7116 107.383 87.4203 107.371 87.136C107.359 86.8516 107.225 86.6352 106.969 86.4867L106.253 86.0712L105.763 86.9244C105.364 87.618 105.386 88.0932 105.829 88.3501L106.006 88.4525C106.227 88.5809 106.433 88.6079 106.624 88.5334C106.811 88.448 106.981 88.2734 107.132 88.0099ZM104.866 81.3325L105.631 80.0007L106.524 80.5185L106.548 80.4769C106.292 80.1991 106.152 79.8728 106.128 79.498C106.096 79.1191 106.184 78.7493 106.392 78.3886C106.79 77.695 107.339 77.3103 108.037 77.2346C108.733 77.148 109.534 77.3676 110.441 77.8934C111.354 78.4232 111.951 79.0145 112.231 79.6671C112.515 80.3127 112.458 80.9824 112.059 81.676C111.852 82.0367 111.577 82.2981 111.235 82.4602C110.897 82.6154 110.542 82.6547 110.171 82.5781L110.147 82.6198L113.126 84.3477L112.36 85.6795L104.866 81.3325ZM110.714 81.4644C110.913 81.1175 110.96 80.7704 110.856 80.4229C110.751 80.0754 110.505 79.7893 110.117 79.5645L109.183 79.0227C108.795 78.7979 108.426 78.7268 108.074 78.8093C107.715 78.8879 107.436 79.1006 107.236 79.4474C107.053 79.7664 106.979 80.0797 107.015 80.387C107.054 80.6874 107.206 80.9139 107.469 81.0664L109.192 82.0658C109.475 82.2304 109.753 82.2528 110.025 82.133C110.301 82.0063 110.53 81.7834 110.714 81.4644Z" fill="#0668E1" style="fill:#0668E1;fill:color(display-p3 0.0235 0.4078 0.8824);fill-opacity:1;"/>
</svg>
