<svg xmlns="http://www.w3.org/2000/svg" width="1140" height="640" fill="none" xmlns:v="https://vecta.io/nano"><style><![CDATA[.B{fill:#fff}.C{fill:#d3e6ff}.D{fill:#3688ff}.E{fill:#83878b}.F{fill:#d5dfe0}.G{fill:#3a3c3d}.H{fill:#797e81}]]></style><g clip-path="url(#E)"><rect width="1140" height="640" rx="16" class="B"/><mask id="A" maskUnits="userSpaceOnUse" x="0" y="0" width="1140" height="652"><path d="M1140 0H0v651.85h1140V0z" class="B"/></mask><g mask="url(#A)"><path d="M1242.84 302.91c-66.29 79.39-173.55 144.17-256.38 210.32-95.74 76.45-192.48 71.92-308.63 71.02-80.45-.62-194.38 7.66-271.67 29.61-109.54 31.11-152.89 115.25-233.03 193.08-3.13 3.03-44.07 54.79-34.03 56.81l994.34 199.76 182.64-813.86c-35.68-4.83-53.1 29.17-73.22 53.25z" fill="url(#C)"/><path d="M1281.19 428.51c-94.7 44.71-234.23 211.29-338.17 237.23-120.14 29.98-230.1 31.62-335.08-16.81-72.71-33.54-149.44-57.19-229.11-68.99-112.92-16.73-228.31-4.29-334.91 33.34-4.17 1.47-63.84 31.54-55.59 37.49l1029.02 603.48 306.02-677.03c-30.27-18.99-13.45-162.27-42.18-148.71z" fill="url(#D)"/><g opacity=".2" class="B"><path d="M1083.89 485.92s-171.14 110.85-295.39 141c-92.2 22.37-149.09 0-244.62 0-92.22 0-155.75-4.76-236.14 0-113.95 6.75-224.07 42.57-320.19 101.2-3.76 2.29-55.64 43.94-46.32 48.08l1134.78 379.66 154.32-725.04c-33.65-12.39-146.42 55.1-146.42 55.1z"/></g><g opacity=".2" class="B"><path d="M1187.55 578.83c-96.07 43-182.79 107.12-287.56 131.22-121.09 27.86-236.57-38.49-340.16-88.72-71.73-34.79-147.8-59.74-227.16-72.94-112.48-18.69-228.3-8.28-336.05 27.44-4.2 1.39-64.8 30.4-56.74 36.49l1011.46 620.92 326.38-671.01c-29.71-19.5-61.04 3.56-90.18 16.61l.01-.01z"/></g></g><path d="M135.78 216.42v30.39h-7.33v-30.39h7.33zm9.14 0v5.66h-25.4v-5.66h25.4zm9.66-1.67v32.06h-7.03v-32.06h7.03zm-.84 20l-1.65.04c0-1.59.2-3.05.58-4.38a11.1 11.1 0 0 1 1.67-3.49c.72-.99 1.59-1.75 2.61-2.3s2.14-.81 3.38-.81a9.2 9.2 0 0 1 3.05.48c.93.32 1.73.84 2.4 1.55.68.71 1.2 1.63 1.57 2.78a13.5 13.5 0 0 1 .56 4.17v14.03h-7.08v-14.07c0-.92-.13-1.63-.4-2.13-.25-.52-.61-.87-1.09-1.06-.47-.21-1.05-.31-1.73-.31a4.2 4.2 0 0 0-2 .42c-.51.28-.91.67-1.19 1.17-.27.49-.45 1.06-.54 1.73s-.15 1.4-.15 2.19zm29.02 12.48c-1.84 0-3.48-.28-4.93-.86a10.7 10.7 0 0 1-3.67-2.4c-.99-1.02-1.75-2.19-2.28-3.51-.52-1.32-.77-2.72-.77-4.2v-.79a14.7 14.7 0 0 1 .69-4.59c.46-1.42 1.14-2.66 2.04-3.72s2.04-1.88 3.4-2.46c1.36-.6 2.95-.9 4.76-.9 1.6 0 3.03.26 4.3.77s2.34 1.25 3.22 2.21c.89.96 1.56 2.12 2.02 3.49.47 1.36.71 2.9.71 4.59v2.86h-18.45v-4.4h11.59v-.54a3.9 3.9 0 0 0-.4-1.92c-.26-.53-.65-.93-1.17-1.21a3.9 3.9 0 0 0-1.88-.42c-.77 0-1.4.17-1.9.5a3.4 3.4 0 0 0-1.15 1.38c-.26.57-.45 1.23-.56 1.98a16.3 16.3 0 0 0-.17 2.38v.79a7.3 7.3 0 0 0 .33 2.28c.24.68.57 1.27 1 1.75a4.7 4.7 0 0 0 1.59 1.11 5.4 5.4 0 0 0 2.13.4 7.8 7.8 0 0 0 2.84-.54c.93-.36 1.73-.96 2.4-1.79l3.19 3.8c-.46.65-1.11 1.29-1.96 1.9a10.8 10.8 0 0 1-3.01 1.5c-1.17.38-2.48.56-3.92.56zm40.62-10.71h7.31c-.1 2.12-.67 3.98-1.71 5.59s-2.49 2.87-4.34 3.78c-1.84.89-4.01 1.34-6.51 1.34-2.03 0-3.85-.34-5.45-1.02a11.1 11.1 0 0 1-4.05-2.94c-1.1-1.28-1.94-2.83-2.53-4.66-.57-1.82-.86-3.88-.86-6.16v-1.65c0-2.28.3-4.33.9-6.16.61-1.84 1.47-3.4 2.59-4.68a11.2 11.2 0 0 1 4.05-2.97c1.57-.68 3.32-1.02 5.24-1.02 2.64 0 4.88.47 6.7 1.42s3.24 2.25 4.24 3.9a12.7 12.7 0 0 1 1.77 5.62h-7.31a7.1 7.1 0 0 0-.58-2.86c-.36-.78-.93-1.36-1.71-1.75a7 7 0 0 0-3.11-.58 5.2 5.2 0 0 0-2.36.5c-.67.33-1.22.86-1.67 1.59s-.78 1.66-1 2.82c-.21 1.14-.31 2.52-.31 4.13v1.69a25.1 25.1 0 0 0 .29 4.13c.19 1.14.51 2.07.94 2.8a4.1 4.1 0 0 0 1.67 1.61c.69.33 1.54.5 2.55.5a6.8 6.8 0 0 0 2.82-.52c.77-.36 1.36-.91 1.78-1.63.42-.74.64-1.68.67-2.82zm23.63 4.8v-17.1h7.06v22.59h-6.6l-.46-5.49zm.67-4.59l1.84-.04a15.6 15.6 0 0 1-.54 4.22 10.1 10.1 0 0 1-1.61 3.34c-.7.95-1.56 1.68-2.59 2.21a7.7 7.7 0 0 1-3.53.77 9.8 9.8 0 0 1-3.07-.46 6.2 6.2 0 0 1-2.38-1.48c-.67-.68-1.19-1.55-1.57-2.61-.36-1.07-.54-2.35-.54-3.84v-14.61h7.03v14.65c0 .5.06.93.19 1.3s.31.67.54.92c.24.24.53.42.88.54a4.2 4.2 0 0 0 1.23.17c1.06 0 1.89-.22 2.48-.67s1.02-1.05 1.25-1.82a8.3 8.3 0 0 0 .38-2.59zm17.37-6.91v16.99h-7.03v-22.59h6.58l.46 5.59zm6.68-5.76l-.12 6.53-1.13-.1-1.19-.06a6.9 6.9 0 0 0-2.13.29 3.6 3.6 0 0 0-1.46.84c-.38.36-.65.82-.84 1.38-.17.56-.24 1.2-.23 1.94l-1.27-.83c0-1.52.15-2.9.44-4.13a11.2 11.2 0 0 1 1.29-3.24c.56-.92 1.23-1.62 2.02-2.11a4.9 4.9 0 0 1 2.67-.75 8.2 8.2 0 0 1 1.02.06c.35.04.65.1.92.19zm9.85.17v22.59h-7.06v-22.59h7.06zm-7.47-5.82c0-1 .36-1.82 1.09-2.46a4.1 4.1 0 0 1 2.82-.96 4.1 4.1 0 0 1 2.82.96c.72.64 1.09 1.46 1.09 2.46s-.36 1.82-1.09 2.46a4.1 4.1 0 0 1-2.82.96 4.1 4.1 0 0 1-2.82-.96c-.72-.64-1.09-1.46-1.09-2.46zm10.94 17.35v-.44c0-1.66.24-3.18.71-4.57a10.4 10.4 0 0 1 2.09-3.65c.92-1.03 2.05-1.83 3.4-2.4a11.7 11.7 0 0 1 4.68-.88c1.78 0 3.35.29 4.7.88 1.36.57 2.5 1.37 3.42 2.4a10.4 10.4 0 0 1 2.09 3.65c.47 1.39.71 2.91.71 4.57v.44c0 1.64-.24 3.17-.71 4.57-.47 1.39-1.17 2.61-2.09 3.65a9.4 9.4 0 0 1-3.4 2.4 11.9 11.9 0 0 1-4.68.86c-1.77 0-3.33-.28-4.7-.86s-2.5-1.37-3.42-2.4c-.92-1.04-1.62-2.26-2.09-3.65-.47-1.41-.71-2.93-.71-4.57zm7.04-.44v.44c0 .85.06 1.64.19 2.38a6.5 6.5 0 0 0 .63 1.94 3.3 3.3 0 0 0 1.19 1.27c.5.31 1.13.46 1.88.46a3.4 3.4 0 0 0 1.84-.46 3.3 3.3 0 0 0 1.19-1.27 6.5 6.5 0 0 0 .63-1.94c.13-.74.19-1.53.19-2.38v-.44a13.5 13.5 0 0 0-.19-2.32 6.5 6.5 0 0 0-.63-1.94c-.29-.57-.69-1.02-1.19-1.34s-1.13-.48-1.88-.48c-.74 0-1.36.16-1.86.48-.49.32-.88.76-1.17 1.34a6.5 6.5 0 0 0-.63 1.94 13.6 13.6 0 0 0-.19 2.32zm31.08 6.01v-17.1h7.06v22.59h-6.6l-.46-5.49zm.67-4.59l1.84-.04c0 1.52-.18 2.92-.54 4.22-.36 1.28-.9 2.39-1.61 3.34-.7.95-1.56 1.68-2.59 2.21a7.7 7.7 0 0 1-3.53.77 9.8 9.8 0 0 1-3.07-.46 6.2 6.2 0 0 1-2.38-1.48c-.67-.68-1.19-1.55-1.57-2.61-.36-1.07-.54-2.35-.54-3.84v-14.61h7.03v14.65c0 .5.06.93.19 1.3a2.5 2.5 0 0 0 .54.92c.24.24.53.42.88.54a4.2 4.2 0 0 0 1.23.17c1.06 0 1.89-.22 2.48-.67s1.02-1.05 1.25-1.82a8.3 8.3 0 0 0 .38-2.59zm22.11 3.74a1.4 1.4 0 0 0-.4-1c-.25-.29-.69-.56-1.34-.79a18.5 18.5 0 0 0-2.69-.75 19.3 19.3 0 0 1-3.11-.94c-.96-.39-1.8-.86-2.52-1.42s-1.3-1.22-1.71-1.98c-.4-.77-.61-1.64-.61-2.63 0-.96.2-1.87.61-2.71.42-.86 1.02-1.62 1.82-2.28.81-.67 1.79-1.19 2.94-1.56a12.3 12.3 0 0 1 3.94-.59 13.4 13.4 0 0 1 5.26.94c1.48.61 2.61 1.47 3.4 2.59a6.3 6.3 0 0 1 1.21 3.82h-7.03c0-.57-.1-1.06-.29-1.46-.18-.4-.48-.71-.9-.92-.42-.22-.97-.33-1.67-.33-.49 0-.93.09-1.34.27a2.4 2.4 0 0 0-.94.75c-.24.32-.36.7-.36 1.13 0 .31.07.59.21.84.15.24.38.46.69.67.31.19.7.38 1.17.54a14.2 14.2 0 0 0 1.71.42c1.52.28 2.94.67 4.26 1.19s2.39 1.25 3.22 2.19c.83.95 1.25 2.22 1.25 3.82 0 1-.23 1.93-.69 2.78a6.9 6.9 0 0 1-1.98 2.21 9.9 9.9 0 0 1-3.11 1.46 14.8 14.8 0 0 1-4.09.52c-2.16 0-3.98-.38-5.47-1.15a8.8 8.8 0 0 1-3.38-2.92c-.75-1.18-1.13-2.38-1.13-3.59h6.55a3.2 3.2 0 0 0 .5 1.71 2.8 2.8 0 0 0 1.27.98c.53.21 1.14.31 1.84.31a4 4 0 0 0 1.59-.27c.43-.18.76-.43.98-.73.22-.32.33-.69.33-1.11zm38.35-3.95h7.31c-.1 2.12-.67 3.98-1.71 5.59s-2.49 2.87-4.34 3.78c-1.84.89-4.01 1.34-6.51 1.34-2.03 0-3.85-.34-5.45-1.02a11.1 11.1 0 0 1-4.05-2.94c-1.1-1.28-1.94-2.83-2.53-4.66-.57-1.82-.86-3.88-.86-6.16v-1.65c0-2.28.3-4.33.9-6.16.61-1.84 1.47-3.4 2.59-4.68a11.2 11.2 0 0 1 4.05-2.97c1.57-.68 3.32-1.02 5.24-1.02 2.64 0 4.88.47 6.7 1.42s3.24 2.25 4.24 3.9a12.7 12.7 0 0 1 1.77 5.62h-7.31a7.1 7.1 0 0 0-.58-2.86c-.36-.78-.93-1.36-1.71-1.75a7 7 0 0 0-3.11-.58 5.2 5.2 0 0 0-2.36.5c-.67.33-1.22.86-1.67 1.59s-.78 1.66-1 2.82c-.21 1.14-.31 2.52-.31 4.13v1.69a25.1 25.1 0 0 0 .29 4.13c.19 1.14.51 2.07.94 2.8a4.1 4.1 0 0 0 1.67 1.61c.69.33 1.54.5 2.55.5a6.8 6.8 0 0 0 2.82-.52c.77-.36 1.36-.91 1.78-1.63.42-.74.64-1.68.67-2.82zm22.17 4.61v-9.31a4.5 4.5 0 0 0-.27-1.65c-.18-.46-.47-.81-.86-1.06-.39-.26-.91-.4-1.57-.4a3.1 3.1 0 0 0-1.36.27c-.38.18-.66.45-.86.81s-.29.82-.29 1.38h-7.03c0-1.04.23-2.01.69-2.9a7.2 7.2 0 0 1 2-2.36 9.7 9.7 0 0 1 3.13-1.55 13.9 13.9 0 0 1 4.09-.56c1.8 0 3.4.3 4.8.9a7.5 7.5 0 0 1 3.36 2.69c.82 1.18 1.23 2.67 1.23 4.47v9.25a17 17 0 0 0 .25 3.36c.17.75.4 1.41.71 1.98v.35h-7.06a9.5 9.5 0 0 1-.75-2.55 21 21 0 0 1-.23-3.13zm.86-8.12l.04 3.76h-3.11a4.6 4.6 0 0 0-1.67.27 2.8 2.8 0 0 0-1.08.75c-.27.31-.46.65-.59 1.04-.11.39-.17.8-.17 1.23a2.2 2.2 0 0 0 .29 1.13c.21.32.49.57.84.75a2.5 2.5 0 0 0 1.17.27c.78 0 1.44-.15 1.98-.44a3.6 3.6 0 0 0 1.27-1.11c.29-.43.44-.83.44-1.21l1.55 2.88-.96 1.69a7.4 7.4 0 0 1-1.32 1.59 6.3 6.3 0 0 1-1.9 1.17c-.75.29-1.66.44-2.74.44-1.39 0-2.67-.28-3.84-.86a7.1 7.1 0 0 1-2.78-2.38 6.2 6.2 0 0 1-1.04-3.55c0-1.17.21-2.21.63-3.13a6.1 6.1 0 0 1 1.94-2.34c.86-.64 1.96-1.13 3.3-1.46s2.91-.5 4.72-.5h3.03zm21.96 7.45a1.4 1.4 0 0 0-.4-1c-.25-.29-.69-.56-1.34-.79a18.5 18.5 0 0 0-2.69-.75 19.3 19.3 0 0 1-3.11-.94c-.96-.39-1.8-.86-2.52-1.42s-1.29-1.22-1.71-1.98c-.4-.77-.61-1.64-.61-2.63 0-.96.2-1.87.61-2.71.42-.86 1.02-1.62 1.82-2.28.81-.67 1.79-1.19 2.94-1.56a12.3 12.3 0 0 1 3.95-.59 13.4 13.4 0 0 1 5.26.94c1.48.61 2.61 1.47 3.4 2.59a6.3 6.3 0 0 1 1.21 3.82h-7.03c0-.57-.1-1.06-.29-1.46-.18-.4-.48-.71-.9-.92-.42-.22-.98-.33-1.67-.33-.49 0-.93.09-1.34.27a2.4 2.4 0 0 0-.94.75c-.24.32-.35.7-.35 1.13 0 .31.07.59.21.84.15.24.38.46.69.67.31.19.7.38 1.17.54a14.2 14.2 0 0 0 1.71.42c1.52.28 2.94.67 4.26 1.19a8 8 0 0 1 3.22 2.19c.83.95 1.25 2.22 1.25 3.82 0 1-.23 1.93-.69 2.78a6.9 6.9 0 0 1-1.98 2.21 9.9 9.9 0 0 1-3.11 1.46 14.8 14.8 0 0 1-4.09.52c-2.16 0-3.98-.38-5.47-1.15a8.8 8.8 0 0 1-3.38-2.92c-.75-1.18-1.13-2.38-1.13-3.59h6.55a3.2 3.2 0 0 0 .5 1.71 2.8 2.8 0 0 0 1.27.98c.53.21 1.14.31 1.84.31a4 4 0 0 0 1.59-.27c.43-.18.76-.43.98-.73.22-.32.33-.69.33-1.11zm21.02 6.76c-1.84 0-3.48-.28-4.93-.86a10.7 10.7 0 0 1-3.67-2.4c-.99-1.02-1.75-2.19-2.27-3.51-.52-1.32-.77-2.72-.77-4.2v-.79a14.7 14.7 0 0 1 .69-4.59c.46-1.42 1.14-2.66 2.05-3.72s2.04-1.88 3.4-2.46c1.36-.6 2.95-.9 4.76-.9 1.6 0 3.03.26 4.3.77s2.34 1.25 3.21 2.21a9.5 9.5 0 0 1 2.02 3.49c.47 1.36.71 2.9.71 4.59v2.86h-18.45v-4.4h11.59v-.54c.01-.75-.12-1.39-.4-1.92-.26-.53-.65-.93-1.17-1.21a3.9 3.9 0 0 0-1.88-.42c-.76 0-1.4.17-1.9.5a3.4 3.4 0 0 0-1.15 1.38c-.26.57-.45 1.23-.56 1.98a16.3 16.3 0 0 0-.17 2.38v.79a7.3 7.3 0 0 0 .33 2.28c.24.68.57 1.27 1 1.75a4.7 4.7 0 0 0 1.59 1.11 5.4 5.4 0 0 0 2.13.4 7.8 7.8 0 0 0 2.84-.54c.93-.36 1.73-.96 2.4-1.79l3.19 3.8c-.46.65-1.11 1.29-1.96 1.9a10.8 10.8 0 0 1-3.01 1.5c-1.17.38-2.48.56-3.92.56zm22.13-11.48v-.44c0-1.66.24-3.18.71-4.57a10.4 10.4 0 0 1 2.09-3.65c.92-1.03 2.05-1.83 3.4-2.4a11.7 11.7 0 0 1 4.68-.88c1.78 0 3.35.29 4.7.88 1.36.57 2.51 1.37 3.42 2.4a10.4 10.4 0 0 1 2.09 3.65 14.1 14.1 0 0 1 .71 4.57v.44c0 1.64-.24 3.17-.71 4.57-.47 1.39-1.17 2.61-2.09 3.65a9.4 9.4 0 0 1-3.4 2.4c-1.35.57-2.91.86-4.68.86s-3.33-.28-4.7-.86-2.5-1.37-3.42-2.4c-.92-1.04-1.62-2.26-2.09-3.65-.47-1.41-.71-2.93-.71-4.57zm7.03-.44v.44c0 .85.06 1.64.19 2.38a6.5 6.5 0 0 0 .63 1.94 3.3 3.3 0 0 0 1.19 1.27c.5.31 1.13.46 1.88.46a3.4 3.4 0 0 0 1.84-.46c.5-.31.9-.73 1.19-1.27a6.5 6.5 0 0 0 .63-1.94c.13-.74.19-1.53.19-2.38v-.44a13.6 13.6 0 0 0-.19-2.32 6.5 6.5 0 0 0-.63-1.94c-.29-.57-.69-1.02-1.19-1.34s-1.13-.48-1.88-.48c-.74 0-1.36.16-1.86.48-.49.32-.88.76-1.17 1.34a6.5 6.5 0 0 0-.63 1.94 13.6 13.6 0 0 0-.19 2.32zm26.51 11.5h-7.08v-24.42c0-1.75.36-3.23 1.06-4.42s1.71-2.1 3.01-2.71c1.3-.63 2.82-.94 4.59-.94.61 0 1.19.04 1.73.13l1.59.31.02 5.18c-.25-.07-.51-.12-.77-.15s-.59-.04-.98-.04a4.3 4.3 0 0 0-1.73.31c-.47.2-.83.49-1.09.9-.24.39-.35.87-.35 1.44v24.42zm4.38-22.59v4.88h-14.72v-4.88h14.72zm-335.28 92.75l-4.09 26.05a20 20 0 0 1-7.31 5.31c-2.93 1.25-6 2.12-9.22 2.61a49.5 49.5 0 0 1-9 .7c-4.41-.06-8.16-.93-11.26-2.61-3.07-1.68-5.52-3.96-7.35-6.83a26.5 26.5 0 0 1-3.7-9.79c-.64-3.65-.71-7.48-.22-11.48l.48-3.48a44.6 44.6 0 0 1 3.22-11.74c1.62-3.74 3.73-7.06 6.31-9.96s5.64-5.18 9.18-6.83c3.57-1.65 7.6-2.44 12.09-2.35 4.67.06 8.63.94 11.87 2.65 3.28 1.68 5.81 4.12 7.61 7.31s2.84 7.09 3.13 11.7l-14.22-.04a17 17 0 0 0-1.09-5.05c-.55-1.48-1.44-2.64-2.65-3.48s-2.88-1.3-5-1.39c-2.55-.12-4.73.42-6.52 1.61-1.8 1.16-3.3 2.71-4.52 4.65-1.19 1.94-2.13 4.04-2.83 6.31-.67 2.26-1.15 4.42-1.44 6.48l-.48 3.65c-.23 1.94-.38 4-.43 6.17a22.1 22.1 0 0 0 .74 6.13c.52 1.91 1.46 3.48 2.83 4.7 1.39 1.22 3.38 1.86 5.96 1.91 1.13.03 2.22-.04 3.26-.22a15.6 15.6 0 0 0 3.09-.83c1.01-.41 1.99-.91 2.91-1.52l1.96-9.87h-10.31l1.83-10.48h25.18zm27.62-32.96l-11.61 66.8h-14.31l11.61-66.8h14.31zm-8.87 41.66l-3.13.13a39.2 39.2 0 0 1 1.7-8 30.7 30.7 0 0 1 3.65-7.52c1.57-2.29 3.49-4.12 5.78-5.48 2.29-1.39 4.99-2.04 8.09-1.96 2.72.06 4.97.61 6.74 1.65a11 11 0 0 1 4.17 4.22c1.02 1.74 1.68 3.73 2 5.96.32 2.2.35 4.51.09 6.92l-4.87 29.22h-14.39l4.96-29.35c.15-1.39.12-2.62-.09-3.7-.2-1.1-.69-1.97-1.48-2.61-.75-.67-1.9-1.02-3.44-1.04-1.74-.03-3.19.28-4.35.91s-2.1 1.52-2.83 2.65c-.72 1.1-1.29 2.35-1.7 3.74a40.9 40.9 0 0 0-.91 4.26zm34.4 2.35l.09-.91c.38-3.39 1.2-6.57 2.48-9.52a26.4 26.4 0 0 1 5.09-7.78 22.4 22.4 0 0 1 7.57-5.17c2.9-1.25 6.15-1.83 9.74-1.74 3.45.06 6.44.72 8.96 2s4.6 3.01 6.22 5.22c1.62 2.18 2.77 4.7 3.44 7.57a27.6 27.6 0 0 1 .61 9.09l-.09.96a31.7 31.7 0 0 1-2.52 9.44 26.2 26.2 0 0 1-5.17 7.7c-2.12 2.2-4.62 3.91-7.52 5.13a23.3 23.3 0 0 1-9.7 1.7 20.9 20.9 0 0 1-8.91-1.96c-2.52-1.28-4.59-2.99-6.22-5.13-1.62-2.18-2.78-4.67-3.48-7.48a28.4 28.4 0 0 1-.57-9.09zm14.4-.91l-.09.91c-.09 1.19-.15 2.49-.17 3.91 0 1.39.16 2.74.48 4.04.32 1.28.9 2.33 1.74 3.18.87.81 2.12 1.25 3.74 1.3 1.74.06 3.19-.3 4.35-1.09 1.19-.78 2.15-1.83 2.87-3.13s1.28-2.71 1.65-4.22c.41-1.51.68-2.96.83-4.35l.09-.91a52.1 52.1 0 0 0 .13-3.87 16 16 0 0 0-.44-4.13 6.5 6.5 0 0 0-1.78-3.22c-.87-.87-2.12-1.33-3.74-1.39-1.74-.06-3.2.32-4.39 1.13-1.16.81-2.1 1.88-2.83 3.22-.72 1.31-1.28 2.73-1.65 4.26-.38 1.51-.64 2.96-.78 4.35zm58.36 10.22c.23-1.22-.13-2.15-1.09-2.78-.93-.67-2.04-1.16-3.35-1.48l-3.09-.83a40.1 40.1 0 0 1-5.26-1.78c-1.74-.75-3.32-1.68-4.74-2.78-1.39-1.13-2.51-2.48-3.35-4.04-.81-1.59-1.17-3.45-1.09-5.57a13.2 13.2 0 0 1 1.96-6.78 15.7 15.7 0 0 1 4.83-4.74 22.1 22.1 0 0 1 6.44-2.83 25.3 25.3 0 0 1 7-.83 25.1 25.1 0 0 1 9 1.7c2.84 1.1 5.15 2.78 6.91 5.05 1.8 2.26 2.71 5.13 2.74 8.61l-14.22-.04c.03-1.13-.12-2.12-.44-2.96-.29-.84-.8-1.48-1.52-1.91-.72-.46-1.71-.7-2.96-.7-.93 0-1.84.19-2.74.57s-1.68.91-2.35 1.61a4.9 4.9 0 0 0-1.22 2.52c-.17.84-.06 1.55.35 2.13a4.5 4.5 0 0 0 1.65 1.35c.7.35 1.42.64 2.17.87.78.2 1.48.36 2.09.48a46.5 46.5 0 0 1 7.65 2.57 15.2 15.2 0 0 1 6.09 4.48c1.59 1.91 2.35 4.46 2.26 7.65-.09 2.7-.81 5-2.17 6.91a15.9 15.9 0 0 1-5.26 4.61c-2.12 1.16-4.41 2-6.87 2.52-2.44.55-4.8.81-7.09.78-3.19-.06-6.2-.7-9.05-1.91-2.84-1.25-5.16-3.04-6.96-5.39-1.77-2.38-2.7-5.29-2.78-8.74l13.22.04c.03 1.36.28 2.51.74 3.44a5.1 5.1 0 0 0 2.13 2.09c.93.46 2.07.7 3.44.7 1.01 0 2-.15 2.96-.44.98-.32 1.83-.81 2.52-1.48.72-.7 1.2-1.58 1.44-2.65zm50.1-33.57l-1.78 10.18H321.7l1.78-10.18h27.57zm-19.79-11.7h14.31l-7.48 43.49a9.1 9.1 0 0 0 0 2.52c.12.64.42 1.13.91 1.48.52.32 1.32.51 2.39.57a12.8 12.8 0 0 0 1.83-.04l1.83-.17-1 10.61a21.5 21.5 0 0 1-3.83.87c-1.28.17-2.58.26-3.91.26-2.96-.06-5.44-.65-7.44-1.78-1.97-1.16-3.41-2.8-4.31-4.91-.87-2.15-1.18-4.7-.91-7.65l7.61-45.23zm40.49 11.7l-8.13 47.05h-14.35l8.18-47.05h14.31zm-13.05-11.87c-.06-2.26.7-4.06 2.26-5.39 1.59-1.33 3.46-2.02 5.61-2.04 2.06-.03 3.88.58 5.48 1.83 1.6 1.22 2.41 2.91 2.44 5.09.06 2.26-.71 4.06-2.31 5.39a8.5 8.5 0 0 1-5.57 2.04c-2.06.03-3.88-.56-5.48-1.78-1.57-1.25-2.38-2.96-2.44-5.13zm33.88 22.7l-6.31 36.23h-14.31l8.18-47.05h13.35l-.91 10.83zm-3.57 11.09l-2.96.17a38.2 38.2 0 0 1 1.74-8.35c.9-2.78 2.15-5.29 3.74-7.52 1.62-2.23 3.62-3.99 6-5.26 2.41-1.31 5.23-1.93 8.48-1.87 2.64.09 4.8.65 6.48 1.7a10.4 10.4 0 0 1 3.91 4.18c.9 1.71 1.46 3.65 1.7 5.83.26 2.15.28 4.36.04 6.65l-4.96 29.62h-14.39l5-29.75c.14-1.36.1-2.57-.13-3.61a3.8 3.8 0 0 0-1.48-2.44c-.75-.58-1.88-.88-3.39-.91-1.68-.03-3.1.29-4.26.96a8.5 8.5 0 0 0-2.83 2.74 15.6 15.6 0 0 0-1.74 3.78c-.41 1.36-.73 2.73-.96 4.09zm68.75-21.92h13.13l-7.7 45.18c-.61 4.52-2.15 8.31-4.61 11.35-2.44 3.07-5.51 5.38-9.22 6.91s-7.77 2.25-12.18 2.13a24.8 24.8 0 0 1-6.18-.87c-2-.55-3.9-1.36-5.7-2.44-1.8-1.04-3.39-2.36-4.78-3.96l6.78-8.44c1.25 1.57 2.7 2.77 4.35 3.61a12.6 12.6 0 0 0 5.52 1.3c2.06.06 3.88-.3 5.48-1.09 1.62-.78 2.96-1.9 4-3.35s1.75-3.19 2.13-5.22l5.91-34.75 3.04-10.39zm-34.35 24.4l.13-.91c.35-2.96 1.04-5.9 2.09-8.83s2.45-5.58 4.22-7.96a19.8 19.8 0 0 1 6.52-5.61 17.7 17.7 0 0 1 9-1.96c3.16.09 5.68.9 7.57 2.44a14.1 14.1 0 0 1 4.31 5.91c.96 2.41 1.58 5 1.87 7.78a57.5 57.5 0 0 1 .31 7.96l-.09 1.13c-.46 2.52-1.23 5.17-2.31 7.96a35 35 0 0 1-4.09 7.78 20.5 20.5 0 0 1-6 5.83 14 14 0 0 1-8 2.04c-3.16-.06-5.8-.8-7.92-2.22-2.12-1.45-3.78-3.32-5-5.61a24.3 24.3 0 0 1-2.39-7.57c-.41-2.75-.48-5.48-.22-8.18zm14.44-.91l-.09.91c-.12 1.13-.17 2.39-.17 3.78a16.3 16.3 0 0 0 .56 3.96 7 7 0 0 0 1.78 3.18c.84.84 2.01 1.29 3.52 1.35 2.23.12 4.07-.35 5.52-1.39a10.2 10.2 0 0 0 3.35-4.13 18.8 18.8 0 0 0 1.52-5.52l.39-3.48a35.8 35.8 0 0 0 .22-3.96 11.4 11.4 0 0 0-.52-3.78 5.6 5.6 0 0 0-1.87-2.83c-.9-.75-2.19-1.15-3.87-1.18a7.3 7.3 0 0 0-4.44 1.18 10.1 10.1 0 0 0-3.04 3.22c-.81 1.33-1.45 2.77-1.91 4.31a26.8 26.8 0 0 0-.96 4.39zM149.23 427.89h-16.48l1.7-10 12.09.04a20.9 20.9 0 0 0 5.09-.61c1.65-.44 3.04-1.19 4.17-2.26 1.16-1.07 1.9-2.59 2.22-4.57.26-1.8.12-3.2-.44-4.22a4.6 4.6 0 0 0-2.65-2.22c-1.19-.46-2.61-.71-4.26-.74l-7.96-.04-8.96 51.53h-14.87l10.96-63.32 21.31.04a40.9 40.9 0 0 1 8.18.91c2.7.58 5.12 1.52 7.26 2.83 2.15 1.28 3.83 3.01 5.04 5.22 1.22 2.17 1.73 4.9 1.52 8.18-.2 3.57-1.2 6.46-3 8.7-1.77 2.2-4.06 3.84-6.87 4.91a28.2 28.2 0 0 1-9.13 1.7l-4.91 3.91zm-5.05 26.92h-20l7.13-11.74 13.35.04a14.4 14.4 0 0 0 4.65-.83 8.8 8.8 0 0 0 3.7-2.44c1.02-1.13 1.67-2.57 1.96-4.31.26-1.48.23-2.77-.09-3.87-.29-1.13-.9-2.02-1.83-2.65-.9-.64-2.12-1-3.65-1.09l-13.26-.04 1.83-10 14.44.04 2.61 3.96a19.3 19.3 0 0 1 7.78 1.57c2.26 1.01 4 2.55 5.22 4.61 1.25 2.03 1.77 4.58 1.57 7.65-.29 4.73-1.65 8.5-4.09 11.31-2.44 2.78-5.54 4.78-9.31 6s-7.77 1.81-12 1.78zm53.06.87a23.6 23.6 0 0 1-8.87-1.78 19.7 19.7 0 0 1-6.78-4.78c-1.86-2.03-3.23-4.41-4.13-7.13a24 24 0 0 1-.96-9l.17-1.7c.35-3.42 1.16-6.61 2.44-9.57a25.8 25.8 0 0 1 5.13-7.83c2.15-2.26 4.67-4.02 7.57-5.26 2.93-1.25 6.2-1.83 9.83-1.74 3.28.06 6.1.71 8.48 1.96a16.1 16.1 0 0 1 5.87 5.09c1.51 2.12 2.55 4.55 3.13 7.31.61 2.72.75 5.63.44 8.7l-.83 5.96h-37.4l1.48-9.17 23.05.04.26-1.26c.2-1.36.14-2.6-.17-3.7a4.8 4.8 0 0 0-1.78-2.61c-.87-.67-2.04-1.03-3.52-1.09-1.8-.03-3.29.36-4.48 1.17-1.16.81-2.1 1.88-2.83 3.22-.7 1.33-1.23 2.78-1.61 4.35-.38 1.54-.65 3.01-.83 4.44l-.17 1.65c-.12 1.42-.07 2.8.13 4.13a10.4 10.4 0 0 0 1.22 3.61 7.6 7.6 0 0 0 2.57 2.61 8.4 8.4 0 0 0 4.04 1.04c2.18.06 4.2-.35 6.09-1.22a17.5 17.5 0 0 0 5.09-3.57l5.96 7.92a15.3 15.3 0 0 1-5.04 4.78c-2.06 1.19-4.28 2.06-6.65 2.61a27.1 27.1 0 0 1-6.87.83zm49.44-67.67l-11.61 66.8h-14.31l11.61-66.8h14.31zm-8.87 41.66l-3.13.13a39.1 39.1 0 0 1 1.7-8c.9-2.73 2.12-5.23 3.65-7.52 1.56-2.29 3.49-4.12 5.78-5.48 2.29-1.39 4.99-2.04 8.09-1.96 2.73.06 4.97.61 6.74 1.65a11 11 0 0 1 4.17 4.22c1.01 1.74 1.68 3.73 2 5.96.32 2.2.35 4.51.09 6.92l-4.87 29.22h-14.4l4.96-29.35c.14-1.39.12-2.62-.09-3.7-.2-1.1-.7-1.97-1.48-2.61-.75-.67-1.9-1.02-3.44-1.04-1.74-.03-3.19.28-4.35.91s-2.1 1.52-2.83 2.65c-.72 1.1-1.29 2.35-1.7 3.74-.38 1.39-.68 2.81-.91 4.26zm57.93 13.31l3.04-19.57a11.5 11.5 0 0 0-.04-3c-.12-.96-.48-1.74-1.09-2.35-.58-.64-1.49-.97-2.74-1-1.13-.03-2.09.17-2.87.61a4.9 4.9 0 0 0-1.87 1.83 8.5 8.5 0 0 0-1 2.7l-14.35.09c.12-2.72.84-5.07 2.17-7.05a16 16 0 0 1 5.13-4.83 23.9 23.9 0 0 1 6.83-2.74c2.49-.58 4.94-.84 7.35-.78 3.31.06 6.29.75 8.96 2.09a14.1 14.1 0 0 1 6.22 5.7c1.48 2.46 2.04 5.46 1.7 9l-3.09 19.31a121.4 121.4 0 0 0-.7 5.57c-.2 1.94.09 3.75.87 5.44l-.04.83-13.96.04a18.2 18.2 0 0 1-.96-5.87 41.2 41.2 0 0 1 .44-6zm4.65-16.92l-1.31 7.83-5.61-.04c-1.1.03-2.16.22-3.18.56a8.6 8.6 0 0 0-2.65 1.39c-.78.61-1.44 1.36-1.96 2.26-.49.9-.81 1.93-.96 3.09a4.3 4.3 0 0 0 .17 2.13c.26.61.65 1.1 1.17 1.48.55.38 1.23.58 2.04.61a8.6 8.6 0 0 0 3.61-.7c1.16-.49 2.16-1.19 3-2.09.87-.9 1.46-1.94 1.78-3.13l2.52 6.13a23.7 23.7 0 0 1-2.61 4.13 17.4 17.4 0 0 1-3.26 3.26 13.8 13.8 0 0 1-4 2.09 14.7 14.7 0 0 1-4.91.7c-2.58-.06-4.96-.68-7.13-1.87a13.7 13.7 0 0 1-5.18-4.87c-1.28-2.06-1.87-4.44-1.78-7.13.12-3.13.88-5.73 2.3-7.78a14.8 14.8 0 0 1 5.52-4.83c2.29-1.19 4.77-2.03 7.44-2.52a44.4 44.4 0 0 1 8-.74l6.96.04zm33.22 18.13l14.57-36.44h15.44l-22.31 47.05h-9.09l1.39-10.61zm.35-36.44l3.13 37.7-1.57 9.35h-8.74l-7.57-47.05h14.74zm49.01 0l-8.13 47.05H360.5l8.18-47.05h14.31zm-13.05-11.87c-.06-2.26.7-4.06 2.26-5.39 1.6-1.33 3.47-2.02 5.61-2.04 2.06-.03 3.88.58 5.48 1.83 1.59 1.22 2.41 2.91 2.44 5.09.06 2.26-.71 4.06-2.31 5.39a8.5 8.5 0 0 1-5.57 2.04c-2.06.03-3.88-.56-5.48-1.78-1.56-1.25-2.38-2.96-2.44-5.13zm15.87 36.14l.09-.91c.38-3.39 1.2-6.57 2.48-9.52s2.97-5.55 5.09-7.78a22.4 22.4 0 0 1 7.57-5.17c2.9-1.25 6.15-1.83 9.74-1.74 3.45.06 6.44.72 8.96 2s4.6 3.01 6.22 5.22c1.62 2.18 2.77 4.7 3.44 7.57a27.6 27.6 0 0 1 .61 9.09l-.09.96c-.38 3.36-1.22 6.51-2.52 9.44a26.2 26.2 0 0 1-5.18 7.7c-2.12 2.2-4.62 3.91-7.52 5.13a23.3 23.3 0 0 1-9.7 1.7 20.9 20.9 0 0 1-8.92-1.96c-2.52-1.28-4.59-2.99-6.22-5.13-1.62-2.18-2.78-4.67-3.48-7.48-.67-2.84-.86-5.87-.56-9.09zm14.39-.91l-.09.91a76 76 0 0 0-.17 3.91c0 1.39.16 2.74.48 4.04.32 1.28.9 2.33 1.74 3.18.87.81 2.12 1.25 3.74 1.3 1.74.06 3.19-.3 4.35-1.09a8.8 8.8 0 0 0 2.87-3.13c.72-1.3 1.28-2.71 1.65-4.22.41-1.51.68-2.96.83-4.35l.09-.91c.09-1.16.13-2.45.13-3.87a16 16 0 0 0-.43-4.13c-.32-1.3-.91-2.38-1.78-3.22-.87-.87-2.12-1.33-3.74-1.39-1.74-.06-3.2.32-4.39 1.13-1.16.81-2.1 1.88-2.83 3.22-.72 1.31-1.28 2.73-1.65 4.26-.38 1.51-.64 2.96-.78 4.35zm52.23-10.92l-6 34.62h-14.31l8.18-47.05h13.31l-1.17 12.44zm15.39-12.83l-1.87 13.66c-.75-.12-1.51-.22-2.26-.31s-1.52-.15-2.3-.17c-1.59-.03-3.04.16-4.35.57a9.1 9.1 0 0 0-3.35 1.78c-.93.78-1.7 1.77-2.31 2.96s-1.06 2.57-1.35 4.13l-2.39-1.74c.29-2.2.75-4.54 1.39-7 .67-2.49 1.59-4.84 2.78-7.05s2.72-3.99 4.61-5.35c1.88-1.39 4.2-2.09 6.96-2.09a14 14 0 0 1 2.22.17 33.2 33.2 0 0 1 2.22.44z" fill="#5b5b5b"/><g filter="url(#B)"><path d="M323 71.25a11.9 11.9 0 0 0-11.87-11.87H0v89.06h311.13A11.9 11.9 0 0 0 323 136.56V71.25z" fill="#3886e7"/><path d="M44.04 90.8v25.33h-6.09V90.8h6.09zm9.78 10.52v14.8h-5.86V97.31h5.5l.37 4.02zm-.7 4.75l-1.37.03a13 13 0 0 1 .52-3.84 8.5 8.5 0 0 1 1.48-2.89 6.3 6.3 0 0 1 2.28-1.79c.89-.42 1.88-.63 2.97-.63a7.1 7.1 0 0 1 2.38.38c.73.26 1.36.67 1.88 1.23.53.57.94 1.32 1.22 2.26a11.7 11.7 0 0 1 .43 3.44v11.85h-5.9v-11.86c0-.75-.1-1.33-.31-1.72-.21-.41-.51-.68-.9-.84s-.88-.23-1.44-.23a3.1 3.1 0 0 0-1.53.35 2.7 2.7 0 0 0-1.01.97 4.6 4.6 0 0 0-.54 1.44c-.1.56-.16 1.17-.16 1.83zm24.96-8.77v4.07H66.74v-4.07h11.34zm-8.96-4.68h5.86v17.36c0 .5.06.89.17 1.17.12.27.31.46.59.57.29.1.67.16 1.15.16l.83-.02.63-.09v4.19c-.5.16-1.02.28-1.57.37-.55.09-1.12.14-1.74.14-1.25 0-2.33-.2-3.22-.59a4.2 4.2 0 0 1-2.02-1.86c-.46-.85-.7-1.95-.7-3.31V92.63zm17.2 9.34v14.16h-5.86V97.31h5.48l.38 4.66zm5.57-4.8l-.1 5.44-.94-.09-.99-.05c-.68 0-1.28.08-1.77.24a3 3 0 0 0-1.22.7c-.31.3-.55.68-.7 1.15a5.3 5.3 0 0 0-.19 1.62l-1.06-.7a15 15 0 0 1 .37-3.44c.26-1.04.61-1.94 1.08-2.7.46-.77 1.03-1.35 1.69-1.76a4.1 4.1 0 0 1 2.23-.63c.29 0 .57.02.85.05.29.03.55.09.77.16zm.66 9.74v-.37c0-1.38.2-2.65.59-3.81.39-1.17.97-2.19 1.74-3.04a7.8 7.8 0 0 1 2.84-2c1.12-.49 2.42-.73 3.9-.73 1.48 0 2.79.24 3.91.73a7.8 7.8 0 0 1 2.85 2c.77.86 1.35 1.87 1.74 3.04.39 1.16.59 2.43.59 3.81v.37c0 1.37-.2 2.64-.59 3.81-.39 1.16-.97 2.17-1.74 3.04a7.8 7.8 0 0 1-2.84 2c-1.12.48-2.42.71-3.9.71s-2.78-.24-3.91-.71a7.8 7.8 0 0 1-2.85-2 8.9 8.9 0 0 1-1.74-3.04c-.39-1.17-.59-2.44-.59-3.81zm5.86-.37v.37c0 .71.05 1.37.16 1.98a5.4 5.4 0 0 0 .52 1.62c.24.45.57.81.99 1.06s.94.38 1.57.38c.61 0 1.13-.13 1.53-.38.42-.25.75-.61.99-1.06.24-.46.42-1 .52-1.62a11.9 11.9 0 0 0 .16-1.98v-.37c0-.68-.05-1.33-.16-1.93-.1-.61-.28-1.15-.52-1.62a2.8 2.8 0 0 0-.99-1.11c-.42-.27-.94-.4-1.56-.4-.61 0-1.13.13-1.55.4-.41.27-.73.64-.97 1.11a5.4 5.4 0 0 0-.52 1.62 11.3 11.3 0 0 0-.16 1.93zm25.73 5.27v-22.4h5.9v26.72h-5.29l-.61-4.31zm-11.55-4.87v-.37a15.1 15.1 0 0 1 .47-3.9 9.1 9.1 0 0 1 1.39-3.04 6.3 6.3 0 0 1 2.3-1.98 6.9 6.9 0 0 1 3.17-.7 5.2 5.2 0 0 1 2.8.75 6.4 6.4 0 0 1 2.05 2.05c.57.88 1.03 1.91 1.39 3.1a24 24 0 0 1 .82 3.79v.43c-.19 1.28-.46 2.48-.82 3.62-.36 1.13-.82 2.12-1.39 2.99a6.6 6.6 0 0 1-2.07 2.05 5.3 5.3 0 0 1-2.82.73c-1.19 0-2.25-.24-3.16-.71a6.5 6.5 0 0 1-2.28-2c-.6-.86-1.06-1.87-1.37-3.03a14.5 14.5 0 0 1-.47-3.79zm5.86-.37v.37c0 .71.05 1.36.14 1.97s.25 1.14.47 1.6a2.8 2.8 0 0 0 .9 1.06c.38.26.85.38 1.41.38.75 0 1.38-.18 1.86-.54.5-.36.86-.87 1.1-1.53.24-.66.35-1.44.31-2.33v-1.37a8.3 8.3 0 0 0-.16-2.02c-.13-.59-.33-1.08-.61-1.48-.27-.4-.61-.69-1.03-.89-.41-.21-.89-.31-1.44-.31-.55 0-1.01.13-1.39.38a2.8 2.8 0 0 0-.91 1.08c-.23.45-.4.99-.5 1.62a12 12 0 0 0-.16 2.02zm25.9 4.98V97.31h5.88v18.82h-5.5l-.38-4.58zm.56-3.83l1.53-.04a13 13 0 0 1-.45 3.51 8.4 8.4 0 0 1-1.34 2.78 6.1 6.1 0 0 1-2.16 1.84 6.4 6.4 0 0 1-2.94.64c-.93 0-1.78-.13-2.56-.38-.76-.27-1.43-.68-1.98-1.23-.56-.57-.99-1.29-1.3-2.17-.3-.89-.45-1.96-.45-3.2V97.31h5.86v12.21a3.3 3.3 0 0 0 .16 1.08 2.1 2.1 0 0 0 .45.77c.2.2.44.35.73.45.3.09.64.14 1.03.14a3.4 3.4 0 0 0 2.07-.56 2.9 2.9 0 0 0 1.04-1.51 6.9 6.9 0 0 0 .31-2.16zm16.51 4.23a3 3 0 0 0 1.39-.3c.39-.21.69-.5.89-.87a2.7 2.7 0 0 0 .29-1.37h5.51c.01 1.41-.34 2.66-1.04 3.72-.7 1.05-1.65 1.88-2.85 2.47-1.19.58-2.54.87-4.05.87a9.7 9.7 0 0 1-3.86-.71c-1.1-.49-2.02-1.16-2.77-2.02a8.9 8.9 0 0 1-1.65-3.04c-.36-1.16-.54-2.42-.54-3.77v-.4c0-1.36.18-2.61.54-3.78a8.7 8.7 0 0 1 1.65-3.04 7.5 7.5 0 0 1 2.75-2.02c1.1-.49 2.38-.73 3.84-.73a9.2 9.2 0 0 1 4.14.89 6.7 6.7 0 0 1 2.84 2.57 7.6 7.6 0 0 1 1.01 4.09H164c.01-.57-.07-1.08-.26-1.53s-.47-.81-.87-1.08c-.38-.28-.88-.42-1.48-.42s-1.09.13-1.46.4-.66.64-.85 1.11c-.19.46-.31 1-.38 1.6l-.09 1.93v.4l.09 1.97c.07.6.2 1.14.4 1.6.2.45.48.81.85 1.08.37.26.86.38 1.48.38zm20.51-14.65v4.07h-11.34v-4.07h11.34zm-8.96-4.68h5.86v17.36c0 .5.06.89.17 1.17.12.27.31.46.59.57.29.1.67.16 1.15.16l.83-.02.63-.09v4.19c-.5.16-1.02.28-1.57.37-.54.09-1.12.14-1.74.14-1.25 0-2.32-.2-3.22-.59a4.2 4.2 0 0 1-2.02-1.86c-.46-.85-.7-1.95-.7-3.31V92.63zm17.48 4.68v18.82h-5.88V97.31h5.88zm-6.23-4.85c0-.84.3-1.52.9-2.05s1.39-.8 2.35-.8 1.75.27 2.35.8.9 1.22.9 2.05-.3 1.52-.9 2.05-1.39.8-2.35.8-1.75-.27-2.35-.8-.9-1.22-.9-2.05zm9.12 14.46v-.37c0-1.38.2-2.65.59-3.81.39-1.17.97-2.19 1.74-3.04a7.8 7.8 0 0 1 2.84-2c1.13-.49 2.42-.73 3.9-.73 1.49 0 2.79.24 3.91.73 1.14.48 2.09 1.14 2.85 2a8.7 8.7 0 0 1 1.74 3.04c.39 1.16.59 2.43.59 3.81v.37c0 1.37-.2 2.64-.59 3.81a8.9 8.9 0 0 1-1.74 3.04 7.8 7.8 0 0 1-2.84 2c-1.12.48-2.42.71-3.9.71s-2.78-.24-3.91-.71a7.8 7.8 0 0 1-2.85-2c-.77-.87-1.35-1.88-1.74-3.04-.39-1.17-.59-2.44-.59-3.81zm5.86-.37v.37a11.9 11.9 0 0 0 .16 1.98c.1.61.28 1.15.52 1.62.24.45.57.81.99 1.06s.94.38 1.57.38c.61 0 1.13-.13 1.53-.38.42-.25.75-.61.99-1.06a5.4 5.4 0 0 0 .52-1.62 11.8 11.8 0 0 0 .16-1.98v-.37c0-.68-.05-1.33-.16-1.93a5.4 5.4 0 0 0-.52-1.62c-.24-.48-.58-.85-.99-1.11s-.94-.4-1.57-.4c-.61 0-1.13.13-1.55.4-.41.27-.73.64-.97 1.11-.24.46-.42 1-.52 1.62-.1.6-.16 1.25-.16 1.93zm20.66-5.22v14.8h-5.86V97.31h5.5l.36 4.02zm-.7 4.75l-1.37.03a13 13 0 0 1 .52-3.84 8.5 8.5 0 0 1 1.48-2.89 6.3 6.3 0 0 1 2.28-1.79c.89-.42 1.89-.63 2.97-.63a7.1 7.1 0 0 1 2.38.38c.73.26 1.36.67 1.88 1.23.53.57.94 1.32 1.22 2.26a11.7 11.7 0 0 1 .44 3.44v11.85h-5.9v-11.86c0-.75-.1-1.33-.31-1.72-.21-.41-.51-.68-.9-.84s-.88-.23-1.44-.23a3.1 3.1 0 0 0-1.53.35 2.7 2.7 0 0 0-1.01.97c-.24.41-.42.89-.54 1.44a9.9 9.9 0 0 0-.16 1.83z" class="B"/></g><g clip-path="url(#F)"><g opacity=".6" fill="#b7d7ff"><path d="M876.07 327.07c-18.31-10.6-47.91-10.6-66.1 0-.09.05-.17.1-.25.15-11.71 6.92-15.7 16.6-12 25.42 1.97 4.69 6.13 9.15 12.46 12.81 18.31 10.6 47.92 10.6 66.11 0s18.09-27.78-.22-38.37h0zm8.53-4.97c-23.02-13.32-60.34-13.32-83.21 0l-1.79 1.09 1.17.47 1.62-.98c22.32-13 58.76-13 81.23 0s22.59 34.16.27 47.16c-22.33 13-58.77 13-81.24 0-8.24-4.77-13.48-10.64-15.7-16.8l-1.41.05c2.25 6.35 7.63 12.41 16.12 17.32 23.02 13.32 60.35 13.32 83.22 0s22.74-34.99-.28-48.31h0zm8.31-4.84c-27.63-15.98-72.44-15.98-99.89 0a63.7 63.7 0 0 0-3.24 2.02l3.11 1.24a64.3 64.3 0 0 1 2.78-1.72c25.99-15.14 68.44-15.14 94.6 0 26.17 15.14 26.31 39.78.31 54.92s-68.44 15.14-94.61 0c-9.94-5.75-16.12-12.87-18.54-20.32l-3.76.14c2.5 7.96 9.05 15.58 19.67 21.72 27.63 15.99 72.45 15.99 99.9 0 27.45-15.98 27.3-42-.33-57.99h0zm17-9.91c-37.07-21.45-97.18-21.45-134 0-36.83 21.45-36.63 56.35.43 77.79 15.6 9.03 35.28 14.25 55.59 15.68l-.2-4.66c-18.2-1.42-35.79-6.18-49.79-14.28-33.96-19.65-34.13-51.62-.39-71.27 33.73-19.65 88.81-19.65 122.77 0 22 12.73 29.83 30.63 23.44 47l7.53 1.58c7.36-18.01-1.11-37.8-25.37-51.84h0zm-139.67 81.36c-40.45-23.41-40.67-61.49-.48-84.89s105.8-23.41 146.25 0 40.66 61.49.47 84.89-105.79 23.41-146.24 0h0zm147.09-85.66c-19.95-11.54-46.42-17.9-74.55-17.9s-54.52 6.36-74.34 17.9-30.69 26.89-30.59 43.21 11.13 31.67 31.08 43.22 46.43 17.9 74.55 17.9 54.52-6.36 74.34-17.9 30.68-26.89 30.59-43.21-11.13-31.67-31.08-43.22h0zm59.87 15.75l-3.22.56c14.34 23.43 9.53 49.92-14.46 71.21l2.69 1.11c15.15-13.36 23.25-29.03 23.15-45.42-.05-9.5-2.85-18.75-8.16-27.45h0zm-38.87-33.71c-26.29-13.83-60-21.4-95.67-21.4-37.99 0-73.66 8.59-100.44 24.18s-41.46 36.33-41.33 58.39c.12 22.05 15.03 42.79 41.98 58.38s62.72 24.19 100.72 24.18c22.75 0 44.66-3.08 64.33-8.9l-1.64-1.69c-52.05 15.29-117.47 10.31-161.1-14.94-54.36-31.45-54.65-82.63-.64-114.08 52.37-30.5 136.84-31.42 191.48-2.78l2.31-1.35h0zm19.85-5.84c-15.63-9.04-33.84-16.05-54.12-20.81a269 269 0 0 0-61.46-6.94c-21.2 0-41.85 2.33-61.39 6.94-20.22 4.77-38.36 11.77-53.88 20.81-15.53 9.05-27.53 19.59-35.68 31.35-7.87 11.35-11.82 23.35-11.75 35.66s4.15 24.31 12.15 35.66a86.4 86.4 0 0 0 1.6 2.2l3.16-.6c-25.75-34-14.85-75.13 32.85-102.91 62.17-36.2 163.65-36.2 226.22 0s62.9 95.12.74 131.32c-38.68 22.53-92.59 31.04-142.87 25.53l-.8 1.89a278.8 278.8 0 0 0 30.72 1.67c21.2 0 41.85-2.33 61.39-6.94 20.22-4.77 38.35-11.77 53.88-20.82s27.54-19.59 35.68-31.35c7.87-11.35 11.81-23.35 11.75-35.66s-4.15-24.3-12.15-35.66c-8.28-11.75-20.4-22.3-36.03-31.35h0zm10.49-6.11c-17.06-9.87-36.92-17.51-59.05-22.71-12.34-2.9-25.09-4.97-38.11-6.21l.24.62c35.24 3.39 69.08 12.95 96.27 28.68 69.31 40.1 69.68 105.36.82 145.46s-181.28 40.1-250.59 0-69.67-105.36-.81-145.46c8.26-4.81 17.15-9.04 26.52-12.7l-.22-.59a191.8 191.8 0 0 0-26.96 12.91c-16.95 9.87-30.05 21.38-38.94 34.21-8.59 12.39-12.9 25.48-12.83 38.91s4.54 26.52 13.26 38.91c9.03 12.83 22.26 24.33 39.32 34.2s36.93 17.51 59.06 22.71c21.37 5.02 43.94 7.57 67.07 7.57a292.5 292.5 0 0 0 66.98-7.57c22.07-5.2 41.85-12.84 58.8-22.71s30.05-21.38 38.94-34.21c8.58-12.39 12.9-25.48 12.82-38.91s-4.54-26.52-13.26-38.91c-9.03-12.83-22.26-24.33-39.32-34.21z"/></g><path d="M840.8 353.8c-18.37-2.76-32.42-11.67-31.39-19.89s16.76-12.66 35.13-9.89 32.42 11.67 31.39 19.89-16.76 12.66-35.13 9.89z" fill="#b6d7ff"/><path d="M810.78 346.45c-.56-2.47-1.38-11.01-1.38-11.01.27.81.87 3.19 2.12 4.82 3.92 5.1 10.86 8.05 13.54 9.24 2.93 1.16 10.05 3.57 16.99 4.49 7.4.6 8.46.98 17.7.08 8.93-1.37 11.41-3.71 13.93-5.81 2.03-2.03 2.3-3.85 2.24-6.38l1.07 8.51c.13 1 .65 3.22-1.83 5.57-2.76 2.6-4.85 3.66-8.99 4.93-8.25 2.55-17.7 1.95-22.08 1.23s-13.37-2.38-22.03-6.4c-7.77-3.61-10.7-6.8-11.26-9.27z" fill="#8fc1ff"/><path d="M844.23 336.32l-.45 1.14s-4.04 1.23-6.4 1.01c-2.78-.26-5.54.6-10.31.67-4.77.07-10.96-.1-11.63-2.45-.04-.63.11-1.17.45-1.66 1.2-1.78 4.8-2.93 10.81-5.06.26-.09.53-.2.78-.29 6.29-2.43 6.67-5.15 6.67-5.15l10.55 3.53c.65 5.77-.46 8.28-.46 8.28z" fill="#000"/><path d="M849.99 248.93c.15 8.1-2.61 10.09-4.21 18.05-1.11 5.51-2.93 17.05-1.56 22.49 2.13 8.44 4.24 6.49 1.5 39.81-6.16 3.7-13.65 2.94-17.03-.03 4.85-21.12.69-35.35-.03-38.64-4.47-20.46-5.38-40.29-3.72-49.65 1.64-9.2 15.51 3.18 22.91 6.07l2.13 1.9z" fill="#3e4242"/><path d="M866 326.75c1.98 6.12.27 20.66-6.68 22.31-2.15.51-7.73.26-8.78-1.85-1.74-3.49 2.14-8.02 4.08-11.6 1.2-2.23.69-4.21.45-6.63-.31-3.2 2.53-2.59 4.91-2.98l6.01.75z" fill="#000"/><path d="M868.3 333.74c-1.36 1.89-9.51 3.8-10.15 3.95-.03.02-.05.02-.05.02l-5.16-4.27c1.8-9.59-.52-29.92-4.38-38.47-4.23-9.41-7.75-18.36-9.26-28.67-.63-4.28-2.38-12.31-3.77-18.92-2.28-2.12-5.19-4.68-7.58-7.53.71-4.74 1.45-9.49 2.43-14.16l25.27 13.91 3.27 1.79s1.27 28.23 2.42 36.81c1.11 8.17 4.24 15.89 5.77 23.98 1.35 7.2 2.75 21.27 1.18 31.57z" fill="#5b6061"/><g fill="#181a19"><path d="M855.18 337.2l-.74 1.46c.27.39 1.11.53 1.54.88-4.78-.82-6.22 6.42-1.33 7.17 3.32.52 7.02-.62 8.57-3.73.78-1.57 1.14-3.3 1.36-5.02-3.56 1.13-7.37 1.52-9.4-.76zm-29.39-6.92c-5.44 1.93-8.76 3.05-9.89 4.74 1.15 1.85 4.34 2.24 6.2 2.24 1.81.01 3.83.1 5.55-.56 1.12-.42 1.49-1.3 1.43-2.27a18.5 18.5 0 0 1-3.3-4.16z"/></g><path d="M868.3 333.74c-1.36 1.89-9.51 3.8-10.15 3.95.12-4.69.08-9.39.07-14.06-.01-12.6-2.73-21.95-6.63-33.75-4.96-14.98-4.78-30.04-7.52-45.43l11.59-4.85 3.27 1.79s1.26 28.23 2.42 36.81c1.11 8.17 4.24 15.89 5.77 23.98 1.35 7.2 2.74 21.27 1.18 31.57z" fill="#515556"/><path d="M846.58 169.88c.12.03 3.95 3.74 3.95 3.74l3.1 2.93-4.35.81-4.01-3.67 1.31-3.82z" fill="#94999d"/><path d="M828.27 200.31c3.94-4.14 6.6-8.44 8.55-13.97.38-1.06.59-2.15.59-3.28-.02-4.39-2.4-9.86-6.74-9.01-3.25.63-6.56 2.46-7.88 5.34-1.43 3.13-10.4 19.06-9.82 22.45.43 2.46 8.69-3.95 9.73-1.69.16.34 2.02 3.79 1.83 3.98a137.4 137.4 0 0 0 3.75-3.82z" class="E"/><path d="M822.38 195.94a60.8 60.8 0 0 0 .44 6.23v.02c.56 5.03 1.52 10.49 1.87 14.87a173 173 0 0 1-.08 11.63l-.1 2.13c-.32 5.27-.34 10.1-1.06 15.76 2.47 3.15 7.83 5.24 8.99 5.52.23-3.06 1.03-6.04 1.75-9.56.37 2.99 2.03 6.63 2.87 10.9 9.39 1.18 22.62-1.7 24.12-5.03.09-3.92-2.07-17.21-3.59-23.41-1.91-8.06 7.55-25.52 6.4-40.47-.18-.19-.35-.37-.54-.55l-1.06-1.03c-.35-.34-.72-.67-1.07-.99-1.38-1.27-2.75-2.37-4.07-3.3-.28-.21-.56-.4-.84-.59-8.55-5.77-15.51-5.62-18.48-5.31-.63.07-1.07.15-1.33.18a17 17 0 0 0-9.89 5.47c-3.72 5.71-4.38 10.97-4.33 17.53z" fill="#717577"/><path d="M822.38 195.94a61.1 61.1 0 0 0 .44 6.23v.02c12.54 19.49 36.98 2.17 40.26-13.72a17.5 17.5 0 0 0 .37-4.48c-.35-.35-.71-.69-1.06-1.03s-.72-.67-1.07-.99c-1.32-1.18-2.69-2.28-4.08-3.3-.28-.21-.56-.4-.84-.59-8.55-5.77-15.51-5.62-18.48-5.31-.63.07-1.07.15-1.32.18a17 17 0 0 0-9.89 5.47c-3.72 5.71-4.38 10.97-4.33 17.53z" class="E"/><path d="M846.29 161.5l1.09 14.12c.02 2.47-3.63 4.42-6.09 4.45-2.46.01-4.48-1.98-4.49-4.45a4.7 4.7 0 0 1 .04-.64l1.87-13.81c.25-1.91 2-3.24 3.9-2.99 1.72.23 3.67 1.63 3.69 3.32z" fill="#f2b09e"/><path d="M849.12 174.82l-4.81 13.21-9.07 12.11-1.81-9.28.83-12.94 4.75 2.15 10.12-5.25z" fill="#ebf5f7"/><path d="M839.11 179.51c-1.85-1.95-2.31-4.18-2.31-4.18l-2.54 1.03 1.1 7.16 3.29-3.47 2.6 4.94s3.06-1.27 7.55-9.98c-.94-1.7-1.67-2.54-1.67-2.54s-5.92 6.1-8.02 7.03z" class="F"/><g fill="#e9001a"><path d="M836.11 182.74l1.09 2.26 1.37.69 2.01-1.96-1.93-3.68-2.54 2.68z"/><path d="M835.24 200.41c-.33-1.37-1.47-5.44-1.11-8.45.37-3.01 2.55-6.03 3.56-8.43 1.38-3.28 1.41 1.35 1.41 1.35l.58 7.69c0 2.45-4.41 7.95-4.45 7.84z"/></g><path d="M838.56 183.59a3.6 3.6 0 0 1-2.37-.66l.8 2.08 2.07.59 1.51-1.85-.47-.89a2.3 2.3 0 0 1-1.55.74z" fill="#ce001e"/><g fill="#94999d"><path d="M848.8 173.34a70 70 0 0 1 4.83 3.21l-1.89 6.29-3.9.2 3.52 1.3s-.94 6.57-16.12 16.06c2.13-4.44 13.18-19.52 13.56-27.07zm-13.79 3.34s-2.17 16.39.22 23.73c-6.66-11.33-4.08-19.93-4.08-19.93l1.92-.42s-2.11-2.15-1.92-1.86 1.52-4.41 1.52-4.41h3.44l-1.09 2.9z"/></g><g fill="#f0fefd"><path d="M846.89 173.34c-1.98 2.57-4.61 5.35-6.36 6.44-1.18.73-.91 1-.39 2.23.33.77.69 1.63 1.19 2.33 2.57-1.99 6.65-6.78 5.56-11.01zm-11.26 9.55c.51-.61 2.21-1.95 2.29-2.81.09-.94-1.76-2.03-2.37-2.5 0 0-.73 3.85.08 5.31z"/></g><path d="M845.55 169.81c-1.2.65-1.59 2.92-4.23 4.33-3.55 1.87-6.05 1.79-7.3 2.02-2.13.38-4.23-1.2-4.48-2.42-.58-2.77-.58-5.2-.42-8.02.36-6.61 3.3-12.5 4.79-15.27 4.74-5.23 9.22-5.07 16.05-1.46 7.81 4.12 5.31 15.63-4.42 20.82z" fill="#ffc2ae"/><path d="M852.7 163.72c-1.94 2.85-3.23 4.71-6.27 5.61l-2.24-2.74-.39-2.3.01-.01-.21-1.3-.41-2.17-.32-1.31 4.78-1.55 7.33-2.38c.18.54.2 1.26.1 2.03a15.1 15.1 0 0 1-2.37 6.12z" fill="#560e00"/><path d="M852.7 163.72c-1.94 2.85-3.23 4.71-6.27 5.61l-2.24-2.74-.39-2.3.01-.01c.49-1.29 1.83-2.5 3.02-3.42l1.58-1.13c.03.21.13.48.23.78s.19.62.18.86c.45-.29.81-.77 1.07-1.3a6.3 6.3 0 0 0 .52-1.58c.6-.41 1.35-.65 2.03-.62-.13.32-.18.66-.24.98l-.09.88c.28-.36.53-.83.72-1.32l.41-1.03c.24.01.48.02.75.06l1.08.15a15.1 15.1 0 0 1-2.37 6.12z" fill="#3f0801"/><path d="M854.64 156.81l-.65.63a12.6 12.6 0 0 1-1.17.97 4.7 4.7 0 0 1-.63.45 11.3 11.3 0 0 1-2.32 1.22c-.41.18-.82.32-1.24.43a10.5 10.5 0 0 1-1.81.35 12 12 0 0 1-2.19.09l-1.45-.14c-3.77-.54-7.56-2.59-10.79-5.75-1.25-1.22-.98-3.45.59-5.52 1.26-1.68 3.38-3.22 6.24-4.03 7.69-2.16 16.78 3.71 15.74 10.04-.07.42-.18.84-.33 1.25z" fill="#560e00"/><path d="M846.7 165.25c3.08-3.33 4.75-.24 4.22 1.39-.63 1.95-3.5 3.82-5.79 3.48-.29-.04.06-2.06.35-2.73.4-.94.7-1.58 1.21-2.14z" fill="#ffccbc"/><path d="M846.98 170.51c2.16 2.46 1.65 4.21 1.65 4.21l-2.19-1.54s.63-1.59.54-2.67z" class="F"/><path d="M836.56 215.93c0 .94-.59 1.7-1.32 1.7s-1.31-.76-1.31-1.7c0-.94.59-1.7 1.31-1.7s1.32.77 1.32 1.7z" fill="#616161"/><path d="M836.8 226.93c0 .94-.59 1.7-1.32 1.7-.72 0-1.31-.76-1.31-1.7s.59-1.7 1.31-1.7c.73 0 1.32.76 1.32 1.7z" class="G"/><path d="M847.64 157.95c-1.18.82-2.22 1.8-3.01 3.01-.42.61-.76 1.28-1.04 2.02l-.41-2.16c-3.65-.21-7.88-2.31-11.1-5.47-1.25-1.22-.66-3.73.9-5.8 2.14 3.41 6.61 7.23 9.17 8.18 2.98 1.11 8.02-2.75 11.55-3-2.15 1-4.29 1.94-6.07 3.22z" fill="#3f0801"/><path d="M836.8 205.33c0 .94-.59 1.7-1.32 1.7-.72 0-1.31-.76-1.31-1.7 0-.94.59-1.7 1.31-1.7.73 0 1.32.77 1.32 1.7z" class="G"/><g fill="#afafaf"><path d="M836.11 204.84c0 .38-.24.7-.52.7-.29 0-.52-.32-.52-.7s.23-.7.52-.7.52.31.52.7zm0 10.77c0 .38-.24.69-.52.69-.29 0-.52-.31-.52-.69 0-.39.23-.7.52-.7s.52.31.52.7zm0 10.77c0 .39-.24.7-.52.7-.29 0-.52-.32-.52-.7s.23-.7.52-.7.52.31.52.7z"/></g><g class="H"><path d="M843.97 232.62c-.06.34.11.89.18 1.2 4.91.84 8.79.26 11.83-1.12.02-.38.12-.92.02-1.29l-12.02 1.21zm-15.87-2.33c-.1.37-.46.79-.65 1.11-.95-.1-1.93-.3-2.93-.6l.11-2.12 3.48 1.61z"/></g><path d="M820.25 207.15c.35.87 1.45 1.43 2.22 1.83.55.29 2.16 1.49 2.82 1.3.22-.06.32-.39.43-.6a13.4 13.4 0 0 0 1.07-3.12c.14-.57.2-.43-.18-.69-.95-.66-2.39-.87-3.49-1.1l-2.87 2.38z" fill="#ffd7cc"/><path d="M830.25 204.47l-3.87-1-3.34 9.96 3.86 1.43 3.35-10.38z" class="F"/><g class="H"><path d="M841.53 221.88c-2.34-.56-17.31-7.13-17.31-7.13s4.12-11.01 4.77-10.9c5.13.82 15.66 4.83 18.31 5.51.22.05.39.1.47.12.05.01.14-.01.25-.05 3.33 3.21 7.21 11.48 6.48 12.08-3.2 2.64-9.95 1.11-12.97.37z"/><path d="M848.86 210.75c-.14.03-.3.06-.49.09.54-4.57 1-10.59 1.71-12.92 1.43-4.67 5.53-9.51 8.79-11.73 4.01-2.73 5.9-3.16 6.78.12 2.89 10.9-1.55 28.43-11.15 35.19-1.52-.69-2.75-9.55-5.64-10.75z"/></g><path d="M864.14 185.2c-3.86-.57-7.53 3.58-8.92 6.86-1.24 2.93-1.49 6.05-1.9 9.17-.33 2.45-.12 5.18-.82 7.56 1.26.69 2.52 1.49 3.67 2.37-.92-.4-2.31.04-3.17.41 1.97 1.27 5.47 4.77 7.62 2.32 2.08-2.37 3.01-7.05 3.59-10.07.93-4.81 1.92-9.68 1.52-14.59-.09-1.15-.43-2.21-.66-3.35l-.92-.68z" class="E"/><path d="M832.59 182.36l-2.41 7.64c-.05.08-5.96-6-5.96-6l3.73-7.56 4.65 5.92z" fill="#ffccbc"/><g fill="#ffd7cc"><path d="M827.39 176.44c.95-2.43 1.48-2.89 1.74-5.49.31 1.8.51 3.04 1.26 4.08-.03 1.63 3.51-1.17 4.96-2.85.94-1.08 5.74-5 3.97-1.36-.7 1.43-3.1 4.1-3.87 4.97 2.69-.8 6.08-5.92 6.63-5.43.58.89.27 2.41-.14 3.09-.08 2.14-1.06 3.91-2.29 5.5s-5.8 5.25-10.62 2.78c-2.43-1.25-2.37-3.43-1.64-5.31zm-9.22 19.82c-1.42-1.03-6.2-.82-4.39 1.05.7.72 2.34-.25 4.55 1.17l-.16-2.22z"/><path d="M817.38 198.19c-1.71-.67-5.07-.14-5.3 2.22-.32 3.21 4.09.61 5.14.4l.16-2.62z"/></g><path d="M825.31 180.05l7.72 3.63-1.54 3.32-7.72-3.63 1.54-3.32z" fill="#ebf5f7"/><path d="M813.95 209.69l.2.44c1.33 2.78 1.66 3.37 4.08 2.92 2.4-.47 5.14-2.69 7.73-6.97 2.99-4.9 7.39-15.62 7.18-20.7-2.19-1.04-4.5-1.82-6.8-2.6l-3.49-1.24a3.9 3.9 0 0 0-.47.83c-1.78 4.01-6.86 13.69-8.93 18.32h-.02c-.06.16-.13.31-.19.46-.04.1-.09.21-.13.3-1.1 2.59-.4 5.53.84 8.26z" fill="#717577"/><g class="H"><path d="M818.32 200.42c1.57-3.05 7.82-17.21 8.02-17.64l-3.49-1.24a3.9 3.9 0 0 0-.47.83c-1.78 4.01-6.86 13.69-8.93 18.32 1.63-.72 2.97-.56 4.87-.27zm-4.36 9.27c.69-.47 3.5-6.6 4.46-8.7-1.74-.18-3.4.12-5.17.15l-.13.3c-1.11 2.59-.4 5.53.84 8.26z"/></g><g class="G"><path d="M828.54 214.95c-.35.16-.74.07-.85-.19s.07-.61.43-.77c.35-.16.73-.07.85.19s-.08.61-.42.77zm1.94.91c-.35.16-.73.07-.85-.19s.07-.61.42-.77.73-.07.85.19-.07.61-.42.77zm1.91.84c-.35.16-.73.07-.85-.19s.07-.61.42-.77.73-.07.85.2-.07.61-.42.77zm-2.05-24.54c.17.35.1.74-.15.86s-.61-.05-.78-.39-.1-.73.15-.86.61.05.78.39zm.83-1.98c.17.35.11.73-.15.86s-.61-.04-.78-.39c-.17-.34-.11-.73.16-.86.26-.13.61.05.78.39zm.76-1.95c.17.35.1.74-.15.87s-.61-.05-.78-.39-.1-.73.16-.86.61.04.78.39z"/></g><ellipse cx="748.13" cy="259.06" rx="8.31" ry="3.56" class="C"/><g clip-path="url(#G)"><path d="M719.73 205.69l61.93 5.83c5.27.5 9.21 3.71 9.21 7.5v22.62c0 4.18-4.74 7.57-10.6 7.57h-32.13v9.84l-17.77-9.84h-12.03c-5.85 0-10.6-3.39-10.6-7.57V213.2c0-4.58 5.63-8.1 11.98-7.51z" class="D"/><path d="M732 224.98h1.56c-.03.51-.17.97-.42 1.36s-.59.71-1.04.93a3.5 3.5 0 0 1-1.6.33c-.49 0-.92-.08-1.31-.25a2.8 2.8 0 0 1-.99-.73c-.27-.32-.48-.7-.62-1.15s-.21-.95-.21-1.51v-.53c0-.56.07-1.06.22-1.51s.36-.84.64-1.15.61-.56 1-.73.82-.26 1.29-.26a3.4 3.4 0 0 1 1.6.34 2.5 2.5 0 0 1 1.02.95c.24.4.39.86.44 1.38h-1.57a2 2 0 0 0-.18-.78c-.1-.22-.26-.38-.47-.49s-.49-.17-.84-.17c-.26 0-.49.05-.68.15s-.36.25-.49.44a2.2 2.2 0 0 0-.3.75 5.2 5.2 0 0 0-.09 1.06v.54a5.4 5.4 0 0 0 .09 1.04c.06.29.15.55.27.75s.28.35.48.46.44.15.72.15c.33 0 .6-.05.81-.16s.37-.26.49-.46.18-.46.2-.77zm2.25-.25v-.11a3.5 3.5 0 0 1 .18-1.14c.12-.35.29-.66.52-.91s.5-.46.84-.6a2.8 2.8 0 0 1 1.14-.22c.43 0 .81.07 1.14.22a2.3 2.3 0 0 1 .84.6 2.6 2.6 0 0 1 .52.91c.12.35.18.73.18 1.14v.11c0 .41-.06.79-.18 1.14s-.29.65-.52.91a2.3 2.3 0 0 1-.83.6c-.33.14-.71.21-1.14.21s-.81-.07-1.14-.21-.61-.34-.84-.6a2.7 2.7 0 0 1-.52-.91c-.12-.35-.18-.73-.18-1.14zm1.5-.11v.11a3.3 3.3 0 0 0 .06.66c.04.21.11.39.2.54s.22.27.37.36.33.13.55.13c.21 0 .39-.04.54-.13a1 1 0 0 0 .36-.36c.09-.16.16-.34.2-.54a3.1 3.1 0 0 0 .07-.66v-.11c0-.23-.02-.45-.07-.65a1.7 1.7 0 0 0-.2-.54c-.09-.16-.21-.28-.36-.38s-.33-.14-.54-.14-.39.05-.54.14-.27.22-.36.38a1.8 1.8 0 0 0-.2.54c-.04.2-.06.42-.06.65zm6.27-1.6v4.48h-1.51v-5.65h1.41l.09 1.17zm-.21 1.46h-.42a4 4 0 0 1 .14-1.09c.1-.33.24-.62.42-.87s.42-.44.69-.57.59-.2.95-.2c.25 0 .48.04.69.12s.39.19.54.35.27.36.35.62.13.55.13.9v3.77h-1.5v-3.6c0-.26-.04-.46-.11-.59s-.17-.24-.3-.29-.28-.08-.45-.08c-.2 0-.37.04-.51.12-.14.08-.26.19-.35.33s-.16.3-.21.49a2.6 2.6 0 0 0-.07.61zm3.36-.17l-.54.07a3.7 3.7 0 0 1 .14-1.03 2.6 2.6 0 0 1 .41-.84 1.9 1.9 0 0 1 .68-.56c.27-.14.58-.2.94-.2.27 0 .52.04.74.12s.41.2.57.37.28.39.37.66a3.3 3.3 0 0 1 .13 1v3.61h-1.51v-3.61c0-.26-.04-.46-.11-.59s-.16-.24-.29-.29-.27-.08-.45-.08c-.18 0-.34.04-.48.11s-.25.17-.34.29-.16.27-.2.44-.07.34-.07.54zm6.11-1.37v6.73h-1.5v-7.82h1.39l.11 1.08zm3.58 1.68v.11a4.3 4.3 0 0 1-.15 1.14c-.09.35-.23.66-.42.92s-.41.46-.69.6-.59.21-.94.21c-.34 0-.64-.07-.9-.21s-.47-.33-.64-.58-.31-.55-.41-.88a6.8 6.8 0 0 1-.24-1.07v-.29a7 7 0 0 1 .24-1.13c.1-.34.24-.64.41-.89s.39-.45.64-.59.55-.21.89-.21c.36 0 .67.07.94.2s.5.33.69.58.33.56.42.91a4.4 4.4 0 0 1 .15 1.17zm-1.51.11v-.11c0-.24-.02-.46-.06-.66s-.1-.38-.19-.54-.19-.27-.33-.35-.3-.13-.5-.13c-.21 0-.38.03-.53.1s-.26.16-.35.29-.16.28-.2.45-.07.37-.08.59v.73c.02.26.07.49.15.69s.2.36.37.48.39.18.66.18c.2 0 .37-.04.5-.13s.25-.21.33-.37.15-.34.18-.54.06-.43.06-.66zm5.49 1.5v-2.52c0-.18-.03-.34-.09-.46s-.15-.24-.28-.31-.28-.11-.48-.11c-.17 0-.31.03-.43.09s-.22.14-.28.25-.1.23-.1.37h-1.5c0-.24.06-.47.17-.68s.27-.41.49-.57a2.4 2.4 0 0 1 .76-.39c.3-.09.63-.14.99-.14.44 0 .83.07 1.17.22a1.8 1.8 0 0 1 .8.66c.2.29.3.66.3 1.1v2.42c0 .31.02.56.06.76a2 2 0 0 0 .17.51v.09h-1.52c-.07-.15-.13-.34-.17-.57a4.7 4.7 0 0 1-.05-.7zm.2-2.17l.01.85h-.84c-.2 0-.37.02-.52.07s-.27.11-.36.19-.16.17-.21.28-.06.23-.06.35a.7.7 0 0 0 .09.35c.06.1.14.18.26.24s.24.08.39.08c.23 0 .42-.04.59-.13s.3-.2.39-.33.14-.26.15-.38l.4.64c-.06.14-.13.29-.23.44s-.21.3-.36.43-.32.24-.53.33-.45.13-.73.13a2.2 2.2 0 0 1-.98-.21c-.29-.15-.52-.35-.69-.6s-.25-.55-.25-.88c0-.3.06-.56.17-.79s.27-.42.49-.58a2.3 2.3 0 0 1 .82-.36c.33-.08.71-.12 1.14-.12h.87zm3.95-1v4.44h-1.5v-5.65h1.41l.09 1.2zm-.22 1.42h-.41c0-.42.05-.79.16-1.13s.26-.62.45-.86.43-.42.69-.55a2.1 2.1 0 0 1 .91-.19c.26 0 .51.04.72.12s.41.2.56.37.28.39.37.66.13.61.13 1.01v3.6h-1.51v-3.61c0-.25-.03-.44-.1-.58s-.17-.24-.31-.29a1.2 1.2 0 0 0-.49-.09c-.2 0-.38.04-.53.12s-.27.19-.37.33-.17.3-.21.49a2.4 2.4 0 0 0-.07.61zm6.41 2.38l1.5-5.01h1.61l-2.27 6.5a3.7 3.7 0 0 1-.2.46c-.08.16-.19.32-.33.46s-.31.27-.52.37-.46.14-.76.14c-.14 0-.26-.01-.35-.03l-.32-.07v-1.1h.12.12c.2 0 .36-.02.49-.07s.23-.12.3-.21a1 1 0 0 0 .18-.35l.42-1.09zm-.63-5.01l1.23 4.09.21 1.59-1.02.11-2.03-5.79h1.61zm-31.36 14.13h1.56c-.03.51-.17.97-.42 1.36a2.5 2.5 0 0 1-1.04.93 3.5 3.5 0 0 1-1.6.33c-.49 0-.92-.08-1.31-.25a2.8 2.8 0 0 1-.99-.73c-.27-.32-.48-.7-.62-1.15a5 5 0 0 1-.21-1.51v-.53c0-.56.07-1.06.22-1.51s.36-.84.64-1.15.61-.56 1-.73.82-.26 1.29-.26a3.4 3.4 0 0 1 1.6.34 2.5 2.5 0 0 1 1.02.95c.24.4.39.86.44 1.38h-1.57c-.02-.31-.08-.56-.18-.78s-.26-.38-.47-.49-.49-.17-.84-.17c-.26 0-.49.05-.68.15s-.36.25-.49.44a2.2 2.2 0 0 0-.3.75c-.06.3-.09.65-.09 1.06v.54a5.4 5.4 0 0 0 .09 1.04 2.4 2.4 0 0 0 .27.75c.13.2.29.35.48.46s.44.15.72.15c.33 0 .6-.05.81-.16s.37-.26.49-.46.18-.46.2-.77zm5.84 1.17v-4.29h1.5v5.65h-1.41l-.09-1.35zm.17-1.16l.44-.01c0 .38-.04.73-.13 1.05a2.5 2.5 0 0 1-.39.84c-.17.23-.39.42-.66.55s-.58.19-.93.19c-.27 0-.53-.04-.76-.11s-.43-.2-.6-.37-.29-.39-.39-.65-.14-.59-.14-.97v-3.65h1.5v3.66c0 .17.02.31.06.42s.1.21.17.28.16.13.26.16.21.05.33.05c.31 0 .55-.06.73-.19s.31-.3.38-.51.12-.46.12-.73zm4.07-5.51v8.02h-1.51v-8.02h1.51zm4.01 2.37v1.06h-3.29v-1.06h3.29zm-2.47-1.39h1.5v5.34c0 .16.02.29.06.38s.11.15.2.18.2.05.33.05l.25-.01.19-.03v1.11c-.13.04-.27.07-.42.1s-.32.04-.5.04c-.33 0-.62-.05-.87-.16a1.2 1.2 0 0 1-.56-.53c-.13-.24-.2-.56-.2-.96v-5.49zm6.67 5.69v-4.29h1.5v5.65h-1.41l-.09-1.35zm.17-1.16l.44-.01c0 .38-.04.73-.13 1.05a2.5 2.5 0 0 1-.39.84c-.17.23-.39.42-.66.55s-.58.19-.93.19c-.27 0-.53-.04-.76-.11s-.43-.2-.59-.37-.29-.39-.39-.65-.14-.59-.14-.97v-3.65h1.5v3.66c0 .17.02.31.06.42s.1.21.17.28.16.13.26.16.21.05.33.05c.31 0 .55-.06.73-.19s.31-.3.38-.51.11-.46.11-.73zm3.99-1.91v4.41h-1.5v-5.65h1.41l.09 1.23zm1.7-1.27l-.03 1.39-.27-.03-.28-.01c-.21 0-.4.03-.55.08a1 1 0 0 0-.39.23c-.1.1-.18.23-.23.38s-.08.32-.08.51l-.3-.09c0-.37.04-.7.11-1.01s.18-.58.32-.81.32-.41.52-.53.44-.19.71-.19c.08 0 .17.01.26.02s.16.03.21.05zm3.2 5.79c-.44 0-.83-.07-1.18-.21a2.6 2.6 0 0 1-.89-.59c-.24-.25-.42-.54-.55-.87s-.19-.69-.19-1.06v-.21a3.6 3.6 0 0 1 .18-1.17c.12-.35.29-.66.52-.92a2.3 2.3 0 0 1 .84-.6c.33-.14.7-.21 1.11-.21.4 0 .75.07 1.06.2s.57.32.78.56.37.54.48.88.16.71.16 1.13v.63h-4.49v-1h3.01v-.12a1.3 1.3 0 0 0-.12-.56c-.07-.17-.18-.3-.33-.4s-.34-.15-.57-.15c-.2 0-.37.04-.51.13s-.26.21-.35.37-.15.34-.2.55a3.5 3.5 0 0 0-.06.69v.21c0 .23.03.44.09.63s.16.36.28.5.27.25.44.32.37.12.59.12c.27 0 .52-.05.76-.16s.44-.27.61-.49l.73.79c-.12.17-.28.33-.49.49s-.45.28-.73.39a3 3 0 0 1-.98.15z" class="B"/></g><ellipse cx="709.53" cy="373.66" rx="8.31" ry="3.56" class="C"/><g clip-path="url(#H)"><path d="M681.14 320.28l61.93 5.83c5.27.5 9.21 3.71 9.21 7.5v22.62c0 4.18-4.74 7.57-10.6 7.57h-32.13v9.84l-17.77-9.84h-12.03c-5.85 0-10.6-3.39-10.6-7.57v-28.45c0-4.57 5.63-8.1 11.98-7.51z" class="D"/><path d="M695.18 334.5v7.6h-1.57l-3.05-5.09v5.09h-1.56v-7.6h1.56l3.06 5.1v-5.1h1.56zm3.87 7.7c-.44 0-.83-.07-1.18-.21s-.64-.34-.89-.59a2.6 2.6 0 0 1-.55-.87c-.13-.33-.19-.69-.19-1.06v-.21c0-.43.06-.82.18-1.17s.3-.66.52-.92a2.3 2.3 0 0 1 .83-.6c.33-.14.7-.21 1.11-.21a2.7 2.7 0 0 1 1.07.2c.31.13.57.32.78.56s.37.54.48.88a3.7 3.7 0 0 1 .16 1.13v.63h-4.49v-1h3.01v-.12c0-.21-.04-.39-.12-.56s-.18-.3-.33-.4-.34-.15-.57-.15c-.2 0-.37.04-.51.13a1 1 0 0 0-.35.36 2 2 0 0 0-.2.55c-.04.21-.06.44-.06.69v.21a2 2 0 0 0 .09.63c.07.19.16.36.28.5s.27.25.44.32.37.12.59.12c.27 0 .52-.05.76-.16s.44-.27.61-.49l.73.79c-.12.17-.28.33-.49.49a2.6 2.6 0 0 1-.73.39c-.28.1-.61.15-.98.15zm6.75-5.75h1.36v5.46c0 .51-.12.95-.34 1.31s-.54.63-.95.82-.88.28-1.42.28c-.24 0-.49-.03-.75-.09s-.51-.16-.75-.29-.43-.3-.6-.5l.66-.89c.17.2.38.36.61.47s.48.17.76.17c.27 0 .5-.05.69-.15s.33-.24.43-.43.15-.42.15-.68v-4.16l.15-1.31zm-3.8 2.89v-.11c0-.43.05-.82.16-1.17s.26-.66.45-.91c.2-.25.44-.45.72-.59s.6-.21.96-.21c.38 0 .69.07.94.21a1.7 1.7 0 0 1 .63.59c.16.25.29.56.38.9s.17.72.22 1.13v.24a6.7 6.7 0 0 1-.23 1.1c-.11.34-.24.63-.41.89s-.38.45-.64.58-.55.21-.9.21-.66-.07-.94-.21a2.1 2.1 0 0 1-.71-.6c-.2-.26-.35-.56-.46-.91s-.16-.73-.16-1.14zm1.5-.11v.11c0 .23.02.45.07.65a1.8 1.8 0 0 0 .21.54c.1.15.22.27.36.36.15.08.32.13.52.13a1.2 1.2 0 0 0 .67-.17c.17-.12.3-.28.39-.49s.14-.44.15-.71v-.68c-.01-.22-.04-.42-.09-.59s-.12-.33-.22-.45-.22-.22-.37-.29-.33-.11-.53-.11c-.2 0-.37.05-.52.14s-.26.21-.36.36-.16.33-.21.54-.07.43-.07.67zm7.88 1.59v-2.51a1.1 1.1 0 0 0-.09-.46c-.06-.13-.15-.24-.28-.31s-.28-.11-.48-.11c-.17 0-.31.03-.43.09s-.22.14-.28.25-.1.23-.1.37h-1.5c0-.24.06-.47.17-.68a1.7 1.7 0 0 1 .49-.57 2.4 2.4 0 0 1 .76-.39c.3-.09.63-.14.99-.14.44 0 .83.07 1.17.22s.61.37.8.66a1.9 1.9 0 0 1 .3 1.1v2.42a4.2 4.2 0 0 0 .06.76c.04.19.09.36.17.51v.09h-1.52c-.07-.15-.13-.34-.17-.57a4.7 4.7 0 0 1-.05-.7zm.2-2.17l.01.85h-.84c-.2 0-.37.02-.52.07s-.27.11-.36.19-.16.17-.21.28-.06.23-.06.36a.7.7 0 0 0 .09.35c.06.1.14.18.25.24s.24.08.39.08c.23 0 .42-.05.59-.14s.29-.2.39-.33.14-.26.15-.37l.4.64c-.06.14-.13.29-.23.44s-.21.3-.36.43-.32.24-.53.33-.45.13-.73.13a2.2 2.2 0 0 1-.98-.21c-.29-.15-.52-.35-.69-.6s-.25-.55-.25-.88c0-.3.06-.56.17-.79s.27-.42.49-.58.49-.28.82-.36.71-.12 1.14-.12h.87zm5.24-2.21v1.06h-3.29v-1.06h3.29zm-2.47-1.39h1.5v5.34c0 .16.02.29.06.38s.11.15.2.18.2.05.33.05l.25-.01.19-.03v1.11a2.9 2.9 0 0 1-.42.1c-.15.02-.31.04-.5.04-.33 0-.62-.05-.87-.16s-.43-.29-.56-.53-.2-.56-.2-.96v-5.49zm4.91 1.39v5.65h-1.51v-5.65h1.51zm-1.6-1.47c0-.22.08-.4.23-.54s.36-.21.62-.21.46.07.61.21a.7.7 0 0 1 .24.54.7.7 0 0 1-.24.54c-.15.14-.36.21-.61.21s-.46-.07-.62-.21-.23-.32-.23-.54zm4.76 6.02l1.25-4.55h1.57l-1.9 5.65h-.95l.03-1.1zm-.86-4.55l1.26 4.56.03 1.09h-.96l-1.9-5.65h1.58zm6.88 5.75c-.44 0-.83-.07-1.18-.21a2.6 2.6 0 0 1-.89-.59c-.24-.25-.42-.54-.55-.87s-.19-.69-.19-1.06v-.21a3.6 3.6 0 0 1 .18-1.17c.12-.36.3-.66.52-.92s.51-.46.84-.6.7-.21 1.11-.21a2.7 2.7 0 0 1 1.06.2c.31.13.57.32.78.56s.37.54.48.88.16.71.16 1.13v.63h-4.49v-1h3.01v-.12c0-.21-.04-.39-.12-.56s-.18-.3-.33-.4-.34-.15-.57-.15c-.2 0-.37.04-.51.13s-.26.21-.35.36-.15.34-.2.55a3.5 3.5 0 0 0-.06.69v.21c0 .23.03.43.09.63s.16.36.28.5.27.25.44.32.37.12.59.12c.27 0 .52-.05.76-.16s.44-.27.61-.49l.73.79a2.2 2.2 0 0 1-.49.49 2.6 2.6 0 0 1-.73.39c-.28.1-.61.15-.98.15zm-38.2 9.68v1.22h-4.04v-1.22h4.04zm-3.53-6.38v7.6h-1.57v-7.6h1.57zm3 3.09v1.19h-3.52v-1.19h3.52zm.52-3.09v1.23h-4.04v-1.23h4.04zm2.04 1.95l.93 1.72.96-1.72h1.6l-1.6 2.76 1.67 2.89h-1.61l-1.02-1.82-1.02 1.82h-1.61l1.67-2.89-1.6-2.76h1.61zm5.73 1.09v6.73h-1.5v-7.82h1.39l.11 1.09zm3.58 1.68v.11c0 .41-.05.79-.15 1.14s-.23.66-.42.92-.41.46-.69.6-.59.21-.94.21c-.34 0-.64-.07-.9-.21s-.47-.33-.64-.58-.31-.55-.41-.88a6.8 6.8 0 0 1-.24-1.08v-.29c.05-.41.13-.79.24-1.13s.24-.64.41-.89.39-.45.64-.59.55-.21.89-.21a2.1 2.1 0 0 1 .94.2c.27.14.5.33.69.58s.33.56.42.91a4.4 4.4 0 0 1 .15 1.17zm-1.51.11v-.11c0-.24-.02-.46-.06-.66s-.1-.38-.19-.54-.2-.27-.33-.35a.9.9 0 0 0-.5-.13c-.2 0-.38.03-.53.1s-.26.16-.35.29-.16.27-.2.45-.07.37-.08.59v.73c.02.26.07.49.15.69s.2.36.37.48.39.18.66.18c.2 0 .37-.04.5-.13s.25-.21.33-.37a1.7 1.7 0 0 0 .18-.54c.04-.21.06-.43.06-.66zm5.04 2.88c-.44 0-.83-.07-1.18-.21s-.64-.34-.89-.59-.43-.54-.55-.87-.19-.69-.19-1.06v-.21a3.6 3.6 0 0 1 .18-1.17c.12-.36.3-.66.52-.92s.51-.46.84-.6.7-.21 1.11-.21a2.7 2.7 0 0 1 1.06.2c.31.13.57.32.78.56s.37.54.48.88.16.71.16 1.13v.63h-4.49v-1h3.01v-.12c0-.21-.04-.39-.12-.56s-.18-.3-.33-.4-.34-.15-.57-.15c-.2 0-.37.04-.51.13s-.26.21-.35.36-.15.34-.2.55a3.5 3.5 0 0 0-.06.69v.21c0 .23.03.43.09.63s.16.36.28.5.27.25.44.32.37.12.59.12c.27 0 .52-.05.76-.16s.44-.27.61-.49l.73.79c-.12.17-.28.33-.49.49s-.45.29-.73.39-.61.15-.98.15zm4.68-4.52v4.42h-1.5v-5.65h1.41l.09 1.23zm1.7-1.27l-.03 1.39-.27-.03-.28-.02c-.21 0-.4.03-.55.08s-.28.13-.39.24-.18.23-.23.38a1.9 1.9 0 0 0-.08.51l-.3-.09c0-.37.04-.7.11-1.01a2.8 2.8 0 0 1 .32-.81c.14-.23.32-.41.52-.53s.44-.19.7-.19a1.6 1.6 0 0 1 .26.02c.09.01.16.03.21.05zm2.3.04v5.65h-1.51v-5.65h1.51zm-1.6-1.47c0-.22.08-.4.23-.54s.36-.21.62-.21.46.07.61.21a.7.7 0 0 1 .24.54.7.7 0 0 1-.24.54c-.15.14-.36.21-.61.21s-.46-.07-.62-.21-.23-.32-.23-.54zm5.44 7.22c-.44 0-.83-.07-1.18-.21s-.64-.34-.89-.59-.43-.54-.55-.87-.19-.69-.19-1.06v-.21a3.6 3.6 0 0 1 .18-1.17c.12-.36.3-.66.52-.92s.51-.46.84-.6.7-.21 1.11-.21a2.7 2.7 0 0 1 1.06.2c.31.13.57.32.78.56s.37.54.48.88.16.71.16 1.13v.63h-4.49v-1h3.01v-.12c0-.21-.04-.39-.12-.56s-.18-.3-.33-.4-.34-.15-.57-.15c-.2 0-.37.04-.51.13s-.26.21-.35.36-.15.34-.2.55a3.5 3.5 0 0 0-.06.69v.21c0 .23.03.43.09.63s.16.36.28.5.27.25.44.32.37.12.59.12c.27 0 .52-.05.76-.16s.44-.27.61-.49l.73.79c-.12.17-.28.33-.49.49s-.45.29-.73.39-.61.15-.98.15zm4.64-4.54v4.44h-1.5v-5.65h1.41l.09 1.21zm-.22 1.42h-.41c0-.42.05-.79.16-1.13s.26-.62.45-.86.43-.42.69-.55.57-.19.91-.19c.27 0 .51.04.73.12s.41.2.56.36.28.39.36.66.13.61.13 1.01v3.6h-1.51v-3.61c0-.25-.03-.45-.11-.58s-.17-.24-.31-.29a1.2 1.2 0 0 0-.49-.09 1.1 1.1 0 0 0-.53.12c-.15.08-.27.19-.37.33s-.16.3-.21.49-.07.39-.07.61zm7.07 1.95c.18 0 .35-.04.49-.1s.25-.17.33-.3.13-.29.13-.47h1.41c0 .4-.11.75-.32 1.06s-.49.55-.84.73-.74.26-1.18.26a2.8 2.8 0 0 1-1.15-.22c-.32-.15-.59-.35-.81-.6s-.38-.56-.49-.91a3.8 3.8 0 0 1-.16-1.12v-.15c0-.4.05-.77.16-1.12s.27-.65.49-.91.49-.46.81-.61.7-.22 1.14-.22c.46 0 .87.09 1.22.27s.63.43.82.76.3.72.31 1.16h-1.41c0-.19-.04-.36-.12-.51s-.18-.28-.32-.37-.31-.14-.52-.14c-.22 0-.4.05-.54.14a.9.9 0 0 0-.32.38 1.9 1.9 0 0 0-.16.54c-.03.2-.04.41-.04.63v.15c0 .22.01.43.04.63s.08.38.16.54.19.28.33.37.32.14.54.14zm5.84 1.17c-.44 0-.83-.07-1.18-.21a2.6 2.6 0 0 1-.89-.59c-.24-.25-.42-.54-.55-.87s-.19-.69-.19-1.06v-.21a3.6 3.6 0 0 1 .18-1.17c.12-.36.3-.66.52-.92s.51-.46.83-.6.7-.21 1.11-.21a2.7 2.7 0 0 1 1.07.2c.31.13.57.32.78.56s.37.54.48.88.16.71.16 1.13v.63h-4.49v-1h3.01v-.12c0-.21-.04-.39-.12-.56s-.18-.3-.33-.4-.34-.15-.57-.15c-.2 0-.37.04-.51.13s-.26.21-.35.36-.15.34-.2.55a3.5 3.5 0 0 0-.06.69v.21c0 .23.03.43.09.63s.16.36.28.5.27.25.44.32.37.12.59.12c.27 0 .52-.05.76-.16s.44-.27.61-.49l.73.79c-.12.17-.28.33-.49.49a2.6 2.6 0 0 1-.73.39c-.28.1-.61.15-.98.15z" class="B"/></g><ellipse cx="820.56" cy="437.78" rx="8.31" ry="3.56" class="C"/><g clip-path="url(#I)"><path d="M848.96 384.41l-61.93 5.83c-5.27.5-9.21 3.71-9.21 7.5v22.62c0 4.18 4.74 7.57 10.6 7.57h32.13v9.84l17.77-9.84h12.03c5.85 0 10.59-3.39 10.59-7.57v-28.45c0-4.57-5.63-8.1-11.98-7.51z" class="D"/><path d="M817.1 401.72v1.22h-3.97v-1.22h3.97zm-3.5-3.09v7.6h-1.57v-7.6h1.57zm4.62 0v7.6h-1.56v-7.6h1.56zm1.36 0h2.83a3.9 3.9 0 0 1 1.5.26c.42.17.74.43.97.77s.34.76.34 1.26c0 .41-.07.76-.21 1.05s-.33.53-.58.73-.54.34-.87.46l-.5.26h-2.46l-.01-1.22h1.83c.27 0 .5-.05.68-.15s.32-.23.41-.41.14-.38.14-.61c0-.24-.04-.45-.14-.63s-.23-.31-.41-.41-.42-.14-.69-.14h-1.27v6.37h-1.57v-7.6zm4.25 7.6l-1.73-3.39 1.65-.01 1.75 3.32v.07h-1.67zm-36.92 8.48h1.56c-.03.51-.17.97-.42 1.36s-.59.71-1.04.93a3.5 3.5 0 0 1-1.6.33c-.49 0-.92-.08-1.31-.25s-.72-.41-.99-.73-.48-.7-.62-1.15a5 5 0 0 1-.21-1.51v-.53c0-.56.07-1.06.22-1.51s.36-.84.64-1.15.61-.56 1-.73.82-.26 1.29-.26a3.4 3.4 0 0 1 1.6.34c.44.23.78.55 1.02.95s.39.86.44 1.38h-1.57c-.02-.31-.08-.57-.18-.78s-.26-.38-.48-.49-.49-.17-.84-.17c-.26 0-.49.05-.68.15s-.36.25-.49.44-.23.45-.3.75-.09.65-.09 1.05v.54a5.4 5.4 0 0 0 .09 1.04 2.4 2.4 0 0 0 .27.75c.13.2.29.35.48.46s.44.15.72.15c.33 0 .6-.05.81-.16s.37-.26.49-.47.18-.46.2-.77zm2.25-.25v-.11c0-.41.06-.79.18-1.14s.29-.66.52-.91.5-.46.83-.6.71-.22 1.14-.22.81.07 1.14.22.61.34.84.6a2.6 2.6 0 0 1 .52.91c.12.35.18.73.18 1.14v.11c0 .41-.06.79-.18 1.14s-.29.65-.52.91-.5.46-.83.6-.71.21-1.14.21-.81-.07-1.14-.21-.61-.34-.84-.6a2.7 2.7 0 0 1-.52-.91c-.12-.35-.18-.73-.18-1.14zm1.5-.11v.11c0 .24.02.46.06.66a1.8 1.8 0 0 0 .2.54c.09.15.22.27.37.36s.33.13.55.13c.21 0 .39-.04.54-.13s.27-.21.36-.36.16-.34.2-.54a3.1 3.1 0 0 0 .07-.66v-.11c0-.23-.02-.44-.07-.65s-.11-.39-.2-.54a1 1 0 0 0-.36-.37c-.15-.09-.33-.14-.54-.14s-.39.04-.54.14-.27.22-.36.38-.16.34-.2.54-.06.42-.06.65zm6.27-1.6v4.48h-1.51v-5.65h1.41l.09 1.17zm-.21 1.46h-.42c0-.39.05-.75.14-1.09s.24-.62.42-.87.42-.44.69-.57.59-.2.96-.2c.25 0 .48.04.69.12s.39.19.54.35.27.36.36.62a2.9 2.9 0 0 1 .13.9v3.77h-1.5v-3.6c0-.26-.03-.46-.1-.6s-.17-.24-.3-.29-.28-.08-.45-.08c-.2 0-.37.04-.51.12s-.26.19-.36.33-.16.3-.21.49a2.6 2.6 0 0 0-.07.61zm3.36-.17l-.54.07c0-.37.04-.71.13-1.03a2.6 2.6 0 0 1 .41-.84 1.9 1.9 0 0 1 .68-.56c.27-.13.58-.2.94-.2.27 0 .52.04.74.12s.41.2.57.37.28.39.37.66a3.3 3.3 0 0 1 .13 1v3.61h-1.51v-3.61c0-.26-.03-.46-.1-.6s-.16-.24-.29-.29-.27-.08-.45-.08c-.18 0-.34.04-.48.11s-.25.17-.34.29-.16.27-.2.44-.07.34-.07.54zm6.11-1.28v4.48h-1.51v-5.65h1.41l.09 1.17zm-.21 1.46h-.42a4 4 0 0 1 .14-1.09c.1-.33.24-.62.42-.87s.42-.44.69-.57.59-.2.95-.2c.25 0 .48.04.69.12s.39.19.54.35.27.36.35.62.13.55.13.9v3.77h-1.5v-3.6c0-.26-.04-.46-.11-.6s-.17-.24-.3-.29-.28-.08-.45-.08c-.2 0-.37.04-.51.12s-.26.19-.36.33-.16.3-.21.49a2.6 2.6 0 0 0-.07.61zm3.36-.17l-.54.07c0-.37.05-.71.14-1.03a2.6 2.6 0 0 1 .41-.84c.18-.24.41-.43.68-.56s.58-.2.94-.2c.27 0 .52.04.74.12s.41.2.57.37.28.39.37.66a3.3 3.3 0 0 1 .13 1v3.61h-1.51v-3.61c0-.26-.04-.46-.11-.6s-.16-.24-.29-.29-.27-.08-.45-.08c-.18 0-.34.04-.48.11s-.25.17-.34.29-.16.27-.2.44-.07.34-.07.54zm7.94 1.84v-4.29h1.5v5.65h-1.41l-.09-1.35zm.17-1.16l.44-.01c0 .38-.04.73-.13 1.05a2.5 2.5 0 0 1-.39.84c-.17.23-.39.42-.66.55s-.58.19-.94.19c-.27 0-.53-.04-.76-.12s-.43-.2-.6-.37a1.8 1.8 0 0 1-.39-.65c-.09-.27-.13-.59-.13-.97v-3.65h1.5v3.66c0 .17.02.31.06.42s.1.21.17.28.16.13.26.16a1.1 1.1 0 0 0 .33.05c.31 0 .55-.06.73-.19a1 1 0 0 0 .38-.51c.08-.22.11-.46.11-.73zm3.96-1.93v4.44h-1.5v-5.65h1.41l.09 1.21zm-.22 1.42h-.41c0-.42.05-.79.16-1.13s.26-.62.45-.86.43-.42.69-.55.57-.19.91-.19c.26 0 .51.04.72.12s.41.2.56.37.28.39.37.66.13.61.13 1.01v3.6h-1.51v-3.61c0-.25-.03-.45-.1-.59s-.17-.24-.31-.29a1.2 1.2 0 0 0-.49-.09 1.1 1.1 0 0 0-.53.12c-.15.08-.27.19-.37.33s-.17.3-.21.49-.07.39-.07.61zm6.32-2.62v5.65H826v-5.65h1.51zm-1.6-1.47c0-.22.08-.4.23-.54s.36-.21.62-.21.46.07.61.21a.7.7 0 0 1 .23.54.7.7 0 0 1-.23.54c-.15.14-.36.21-.61.21s-.46-.07-.62-.21-.23-.32-.23-.54zm5.18 6.05a1.1 1.1 0 0 0 .49-.11c.14-.07.25-.17.33-.3s.13-.29.13-.46h1.41c0 .4-.11.75-.32 1.06a2.2 2.2 0 0 1-.84.72c-.35.17-.75.26-1.18.26a2.8 2.8 0 0 1-1.15-.22c-.32-.15-.59-.35-.81-.61s-.38-.56-.49-.91-.16-.72-.16-1.12v-.15c0-.4.05-.77.16-1.12s.27-.65.49-.91a2.2 2.2 0 0 1 .81-.61c.32-.15.7-.22 1.14-.22.46 0 .87.09 1.22.27s.63.43.83.76.3.71.31 1.16h-1.41c0-.19-.04-.36-.12-.51s-.18-.27-.32-.37-.31-.14-.52-.14c-.22 0-.4.05-.54.14s-.25.22-.32.38-.13.33-.16.54a4.5 4.5 0 0 0-.04.63v.15a4.6 4.6 0 0 0 .04.63c.03.2.08.38.16.54s.19.28.33.37.32.14.54.14zm6.29-.2v-2.51a1.1 1.1 0 0 0-.09-.46c-.06-.13-.15-.24-.28-.31s-.28-.11-.48-.11c-.17 0-.31.03-.43.09s-.22.14-.28.25-.1.23-.1.37h-1.5c0-.24.06-.47.17-.68s.27-.4.49-.57a2.4 2.4 0 0 1 .76-.39c.3-.09.63-.14.99-.14.44 0 .83.07 1.17.22s.61.37.8.66.3.66.3 1.1v2.42a4.2 4.2 0 0 0 .06.76c.04.19.09.37.17.51v.09h-1.52c-.07-.15-.13-.35-.17-.57a4.7 4.7 0 0 1-.05-.7zm.2-2.17l.01.85h-.84c-.2 0-.37.02-.52.07s-.27.11-.36.19-.16.17-.21.28-.06.23-.06.35a.7.7 0 0 0 .09.35c.06.1.14.18.26.24s.24.08.39.08c.23 0 .42-.04.59-.14s.29-.2.39-.33.14-.26.15-.37l.4.64c-.06.14-.13.29-.23.44s-.21.3-.36.43-.32.24-.53.33-.45.13-.73.13a2.2 2.2 0 0 1-.98-.21c-.29-.15-.52-.35-.69-.6s-.25-.55-.25-.88c0-.3.06-.56.17-.79s.27-.42.49-.58.49-.28.82-.36a4.6 4.6 0 0 1 1.14-.12h.87zm5.24-2.21v1.06h-3.29v-1.06h3.29zm-2.47-1.39h1.5v5.34c0 .16.02.29.06.38s.11.15.2.18.2.05.33.05l.25-.01.19-.03v1.11c-.13.04-.27.08-.42.1s-.31.04-.5.04c-.33 0-.62-.05-.87-.16s-.43-.29-.56-.53-.2-.56-.2-.96v-5.49zm4.92 1.39v5.65h-1.51v-5.65h1.51zm-1.6-1.47c0-.22.08-.4.23-.54s.36-.21.62-.21.46.07.61.21a.7.7 0 0 1 .24.54.7.7 0 0 1-.24.54c-.15.14-.36.21-.61.21s-.46-.07-.62-.21-.23-.32-.23-.54zm2.6 4.35v-.11c0-.41.06-.79.18-1.14s.29-.66.52-.91.5-.46.83-.6.71-.22 1.14-.22.81.07 1.14.22.61.34.84.6a2.6 2.6 0 0 1 .52.91c.12.35.18.73.18 1.14v.11c0 .41-.06.79-.18 1.14s-.29.65-.52.91-.5.46-.83.6-.71.21-1.14.21-.81-.07-1.14-.21-.61-.34-.84-.6a2.7 2.7 0 0 1-.52-.91c-.12-.35-.18-.73-.18-1.14zm1.5-.11v.11c0 .24.02.46.06.66a1.8 1.8 0 0 0 .2.54c.09.15.22.27.37.36s.33.13.55.13c.21 0 .39-.04.54-.13s.27-.21.36-.36.16-.34.2-.54c.05-.21.07-.43.07-.66v-.11a2.9 2.9 0 0 0-.07-.65 1.7 1.7 0 0 0-.2-.54c-.09-.16-.21-.28-.36-.37s-.33-.14-.54-.14-.39.04-.54.14-.27.22-.36.38-.16.34-.2.54-.06.42-.06.65zm6.24-1.56v4.44h-1.5v-5.65h1.41l.09 1.21zm-.22 1.42h-.41c0-.42.05-.79.16-1.13s.26-.62.45-.86.43-.42.69-.55c.27-.13.57-.19.91-.19.26 0 .51.04.73.12s.41.2.56.37.28.39.37.66.13.61.13 1.01v3.6h-1.51v-3.61c0-.25-.04-.45-.11-.59s-.17-.24-.31-.29-.3-.09-.49-.09a1.1 1.1 0 0 0-.53.12c-.15.08-.27.19-.37.33s-.17.3-.21.49-.07.39-.07.61z" class="B"/></g><ellipse cx="975.54" cy="400.97" rx="8.31" ry="3.56" class="C"/><g clip-path="url(#J)"><path d="M1003.34 347.6l-61.94 5.83c-5.27.5-9.21 3.71-9.21 7.5v22.62c0 4.18 4.74 7.57 10.6 7.57h32.13v9.84l17.77-9.84h12.03c5.85 0 10.6-3.39 10.6-7.57V355.1c0-4.57-5.63-8.1-11.98-7.51z" class="D"/><path d="M955.93 361.8h1.33l1.95 5.58 1.95-5.58h1.33l-2.75 7.6h-1.06l-2.75-7.6zm-.71 0h1.32l.24 5.44v2.16h-1.56v-7.6zm6.66 0h1.33v7.6h-1.57v-2.16l.24-5.44zm5.94 6.25v-4.3h1.5v5.65h-1.41l-.09-1.35zm.17-1.16l.44-.01c0 .38-.04.73-.13 1.05a2.5 2.5 0 0 1-.39.84c-.17.23-.39.41-.66.55-.26.13-.58.19-.93.19-.28 0-.53-.04-.76-.12s-.43-.2-.6-.37a1.8 1.8 0 0 1-.39-.65c-.09-.27-.14-.59-.14-.97v-3.65h1.5v3.66c0 .17.02.31.06.42s.1.21.17.28.16.13.26.16.21.05.33.05c.31 0 .55-.06.73-.19s.31-.3.38-.51a2.2 2.2 0 0 0 .12-.73zm4.07-5.5v8.01h-1.51v-8.01h1.51zm4.01 2.37v1.06h-3.29v-1.06h3.29zm-2.47-1.39h1.5v5.34c0 .16.02.29.06.38s.11.15.2.18.2.05.33.05l.25-.01.19-.03v1.11c-.13.04-.27.08-.42.1s-.32.04-.5.04c-.33 0-.62-.05-.87-.16s-.43-.29-.56-.53-.2-.56-.2-.96v-5.49zm4.91 1.39v5.65H977v-5.65h1.51zm-1.6-1.47c0-.22.08-.4.23-.54s.36-.21.62-.21.46.07.61.21a.7.7 0 0 1 .24.54.7.7 0 0 1-.24.54c-.15.14-.36.21-.61.21s-.46-.07-.62-.21-.23-.32-.23-.54zm4.35 2.56v6.73h-1.5v-7.82h1.39l.11 1.09zm3.58 1.68v.11c0 .41-.05.79-.15 1.14s-.23.66-.42.92-.41.46-.69.61a2 2 0 0 1-.94.21c-.34 0-.64-.07-.9-.21s-.47-.33-.64-.58-.31-.55-.41-.88-.19-.69-.24-1.07v-.29a7 7 0 0 1 .24-1.13c.1-.34.24-.64.41-.89s.39-.45.64-.59.55-.21.89-.21c.36 0 .67.07.94.2s.5.33.69.58.33.56.42.91a4.4 4.4 0 0 1 .15 1.17zm-1.51.11v-.11c0-.24-.02-.46-.06-.66a1.7 1.7 0 0 0-.19-.54c-.08-.15-.19-.27-.33-.35s-.3-.13-.5-.13c-.21 0-.38.03-.53.1s-.26.16-.35.29-.16.28-.2.45-.07.37-.08.59v.73c.02.26.07.49.15.69s.2.36.37.48.39.18.66.18c.2 0 .37-.04.5-.13a1 1 0 0 0 .33-.37c.09-.16.15-.34.18-.54s.06-.43.06-.66zm4.03-5.24v8.01h-1.51v-8.01h1.51zm3.84 8.12c-.44 0-.83-.07-1.18-.21s-.64-.34-.89-.59a2.6 2.6 0 0 1-.55-.87c-.13-.33-.19-.69-.19-1.06v-.21c0-.43.06-.82.18-1.17s.3-.66.52-.92a2.3 2.3 0 0 1 .84-.6c.33-.14.7-.21 1.11-.21a2.7 2.7 0 0 1 1.07.2c.31.13.57.32.78.56s.37.54.48.88.16.71.16 1.13v.63h-4.49v-1h3.01v-.11c0-.21-.04-.4-.12-.56s-.19-.3-.33-.4-.34-.15-.57-.15c-.2 0-.37.04-.51.13s-.26.21-.35.37-.15.34-.2.55c-.04.21-.06.44-.06.69v.21c0 .23.03.44.09.63s.16.36.28.5.27.25.44.32.37.12.59.12c.27 0 .52-.05.76-.16s.44-.27.61-.49l.73.79c-.12.17-.28.33-.49.49s-.45.29-.73.39-.61.15-.98.15zm-28.79 6.92v.36a4.8 4.8 0 0 1-.23 1.56 3.4 3.4 0 0 1-.66 1.17c-.29.32-.63.57-1.02.74s-.83.26-1.31.26a3.3 3.3 0 0 1-1.31-.26c-.39-.17-.73-.42-1.02-.74s-.51-.71-.67-1.17a4.8 4.8 0 0 1-.24-1.56v-.36c0-.58.08-1.1.24-1.56a3.4 3.4 0 0 1 .66-1.17 2.9 2.9 0 0 1 1.02-.74c.4-.17.83-.26 1.31-.26s.92.09 1.31.26.74.42 1.02.74.51.71.67 1.17.24.97.24 1.56zm-1.58.36v-.37a4.6 4.6 0 0 0-.11-1.06c-.07-.31-.18-.56-.32-.77a1.4 1.4 0 0 0-.52-.47c-.21-.11-.44-.16-.71-.16s-.5.05-.7.16-.37.26-.52.47-.25.47-.32.77a4.6 4.6 0 0 0-.11 1.06v.37c0 .4.04.75.11 1.06s.18.57.32.78.32.37.52.48.44.16.71.16.5-.05.7-.16a1.4 1.4 0 0 0 .52-.48c.14-.21.25-.47.32-.78s.11-.66.11-1.06zm4.12-.94v6.73h-1.5v-7.82h1.39l.11 1.09zm3.58 1.68v.11c0 .41-.05.79-.15 1.14s-.23.66-.42.92-.41.46-.69.61a2 2 0 0 1-.94.21c-.34 0-.64-.07-.9-.21s-.47-.33-.64-.58-.31-.55-.41-.88-.19-.69-.24-1.07v-.29a7.1 7.1 0 0 1 .24-1.13c.1-.34.24-.64.41-.89s.39-.45.64-.59.55-.21.89-.21c.36 0 .67.07.94.2s.5.33.69.58.33.56.42.91a4.4 4.4 0 0 1 .15 1.17zm-1.51.11v-.11c0-.24-.02-.46-.06-.66a1.7 1.7 0 0 0-.19-.54c-.08-.15-.19-.27-.33-.35s-.3-.13-.5-.13c-.21 0-.38.03-.53.1s-.26.16-.35.29-.16.28-.2.45-.07.37-.08.59v.73c.02.26.07.49.15.69s.2.36.37.48.39.18.66.18c.2 0 .37-.04.5-.13a1 1 0 0 0 .33-.37c.09-.16.15-.34.18-.54s.06-.43.06-.66zm5.21-2.87v1.06h-3.29v-1.06h3.29zm-2.47-1.39h1.5v5.34c0 .16.02.29.06.38s.11.15.2.18.2.05.33.05l.25-.01.19-.03v1.11c-.13.04-.27.08-.42.1a3 3 0 0 1-.5.04c-.33 0-.62-.05-.87-.16s-.43-.29-.56-.53a2 2 0 0 1-.2-.96v-5.49zm4.92 1.39v5.65h-1.51v-5.65h1.51zm-1.6-1.47c0-.22.08-.4.23-.54s.36-.21.62-.21.46.07.61.21a.7.7 0 0 1 .24.54.7.7 0 0 1-.24.54c-.15.14-.36.21-.61.21s-.46-.07-.62-.21-.23-.32-.23-.54zm2.6 4.35v-.11a3.5 3.5 0 0 1 .18-1.14c.12-.35.29-.66.52-.91a2.3 2.3 0 0 1 .84-.6 2.8 2.8 0 0 1 1.14-.22c.43 0 .81.07 1.14.22s.61.34.84.6.4.56.52.91.18.73.18 1.14v.11c0 .41-.06.79-.18 1.14a2.7 2.7 0 0 1-.52.91c-.23.26-.5.46-.84.6s-.71.21-1.14.21a2.9 2.9 0 0 1-1.14-.21c-.33-.14-.61-.34-.84-.6a2.7 2.7 0 0 1-.52-.91c-.12-.35-.18-.73-.18-1.14zm1.5-.11v.11a3.3 3.3 0 0 0 .06.66c.04.21.11.39.2.54s.22.27.37.36.33.13.55.13c.21 0 .39-.04.54-.13a1 1 0 0 0 .36-.36 1.8 1.8 0 0 0 .2-.54 3.1 3.1 0 0 0 .07-.66v-.11c0-.23-.02-.44-.07-.65s-.11-.39-.2-.54-.21-.28-.36-.38-.33-.13-.54-.13-.39.04-.54.13-.27.22-.36.38a1.8 1.8 0 0 0-.2.54c-.04.2-.06.42-.06.65zm6.24-1.57v4.44h-1.5v-5.65h1.41l.09 1.21zm-.22 1.42h-.41c0-.42.05-.79.16-1.13s.26-.62.45-.86.43-.42.69-.55.57-.19.91-.19a2.2 2.2 0 0 1 .73.11c.22.08.41.2.56.37s.28.39.37.66.13.61.13 1.01v3.6h-1.51v-3.61c0-.25-.03-.44-.1-.58s-.17-.24-.31-.29a1.2 1.2 0 0 0-.49-.09 1.1 1.1 0 0 0-.53.12c-.15.08-.27.19-.37.33s-.16.3-.21.49-.07.39-.07.61zm7.79 1.46c0-.11-.03-.2-.09-.29s-.18-.17-.35-.24a3.4 3.4 0 0 0-.73-.21 5.7 5.7 0 0 1-.8-.24 2.8 2.8 0 0 1-.64-.35c-.18-.14-.32-.3-.42-.48s-.15-.4-.15-.64.05-.46.15-.67.25-.39.44-.55a2.1 2.1 0 0 1 .71-.38c.28-.09.6-.14.95-.14a3.1 3.1 0 0 1 1.26.23c.36.16.63.37.81.65s.29.58.29.93h-1.5a.8.8 0 0 0-.09-.39c-.06-.12-.15-.21-.28-.28s-.29-.1-.49-.1c-.17 0-.31.03-.43.09s-.22.13-.28.23-.09.2-.09.31c0 .09.02.17.05.23s.1.13.18.18.19.11.32.16.3.09.5.13a5.7 5.7 0 0 1 1.09.33 1.9 1.9 0 0 1 .76.54c.19.23.28.52.28.89 0 .25-.06.48-.17.69s-.27.39-.48.55-.46.27-.75.36a3.5 3.5 0 0 1-.98.13 2.9 2.9 0 0 1-1.34-.28c-.36-.19-.64-.43-.82-.72s-.28-.59-.28-.9h1.43c.01.21.06.37.16.5s.23.22.38.27.33.08.51.08c.19 0 .36-.03.49-.08s.23-.13.29-.22.1-.2.1-.32z" class="B"/></g><ellipse cx="965.44" cy="284" rx="8.31" ry="3.56" class="C"/><g clip-path="url(#K)"><path d="M993.24 230.63l-61.93 5.83c-5.27.5-9.21 3.71-9.21 7.5v22.62c0 4.18 4.74 7.57 10.6 7.57h32.13V284l17.77-9.84h12.03c5.86 0 10.6-3.39 10.6-7.57v-28.45c0-4.57-5.63-8.1-11.98-7.51z" class="D"/><path d="M943.75 249.92h1.56c-.03.51-.17.97-.42 1.36s-.59.71-1.04.93-.97.33-1.6.33c-.49 0-.92-.08-1.31-.25a2.8 2.8 0 0 1-.99-.73c-.27-.32-.48-.7-.62-1.15a5 5 0 0 1-.21-1.51v-.53c0-.56.07-1.06.22-1.51s.36-.84.64-1.15.61-.56 1-.73.82-.25 1.29-.25a3.4 3.4 0 0 1 1.6.34 2.5 2.5 0 0 1 1.02.95 3.2 3.2 0 0 1 .44 1.38h-1.56c-.02-.31-.08-.57-.18-.78s-.26-.38-.48-.48-.49-.17-.84-.17a1.5 1.5 0 0 0-.68.15c-.19.1-.36.24-.49.44a2.2 2.2 0 0 0-.3.75c-.06.3-.09.65-.09 1.05v.54a5.4 5.4 0 0 0 .09 1.04 2.4 2.4 0 0 0 .27.75c.13.2.28.35.48.46s.44.15.71.15c.33 0 .6-.05.81-.16s.37-.26.48-.46a1.8 1.8 0 0 0 .2-.77zm5.54 1.25v-2.52c0-.18-.03-.34-.09-.47s-.15-.23-.28-.31-.28-.11-.47-.11c-.17 0-.31.03-.43.09-.12.05-.22.14-.28.24s-.1.23-.1.37h-1.5c0-.24.06-.47.17-.68a1.7 1.7 0 0 1 .49-.57c.21-.17.46-.3.76-.39s.63-.14.99-.14c.44 0 .83.07 1.17.22s.61.37.8.66a1.9 1.9 0 0 1 .3 1.1v2.42c0 .31.02.56.06.76s.09.37.17.51v.09h-1.52c-.07-.15-.13-.34-.17-.57a4.7 4.7 0 0 1-.05-.7zm.2-2.17l.01.85h-.84c-.2 0-.37.02-.52.07s-.27.11-.36.19-.16.17-.21.28-.06.23-.06.36a.7.7 0 0 0 .09.35c.06.1.14.18.25.24s.24.08.39.08c.23 0 .42-.05.59-.14s.29-.2.39-.33.14-.26.15-.38l.4.64c-.05.14-.13.29-.23.44s-.21.3-.36.43-.32.24-.53.33-.45.13-.73.13a2.2 2.2 0 0 1-.98-.21c-.29-.15-.52-.35-.69-.6s-.25-.55-.25-.88c0-.3.06-.56.17-.79s.28-.42.49-.58c.22-.16.49-.28.82-.36a4.6 4.6 0 0 1 1.14-.13h.87zm3.94-1v4.44h-1.5v-5.65h1.41l.09 1.21zm-.22 1.42h-.41c0-.42.05-.79.16-1.13s.26-.62.45-.86.43-.42.69-.55.57-.19.91-.19a2.2 2.2 0 0 1 .73.11 1.4 1.4 0 0 1 .56.37c.16.17.28.39.36.66s.13.61.13 1.01v3.6h-1.51v-3.61c0-.25-.03-.45-.1-.58s-.17-.24-.31-.29a1.2 1.2 0 0 0-.49-.09 1.1 1.1 0 0 0-.53.12c-.15.08-.27.19-.37.33s-.16.3-.21.49-.07.39-.07.6zm8.07 1.79v-6.78h1.51v8.02h-1.36l-.15-1.23zm-3.57-1.52v-.11c0-.43.05-.82.15-1.17s.24-.66.43-.91.42-.45.69-.59.59-.21.94-.21c.33 0 .62.07.87.21s.46.34.64.59.32.56.43.9.19.72.24 1.13v.24c-.05.39-.13.76-.24 1.09a3.3 3.3 0 0 1-.43.89c-.17.25-.39.45-.64.58s-.54.21-.88.21c-.35 0-.66-.07-.94-.21a2 2 0 0 1-.69-.6c-.18-.26-.33-.56-.42-.91a4.2 4.2 0 0 1-.15-1.14zm1.5-.11v.11a3.8 3.8 0 0 0 .05.65 1.9 1.9 0 0 0 .18.54c.09.15.2.27.33.36s.31.13.51.13a1.1 1.1 0 0 0 .64-.17c.17-.12.29-.28.38-.48s.14-.44.16-.71v-.68a2.5 2.5 0 0 0-.09-.59c-.05-.18-.12-.33-.22-.45s-.21-.22-.35-.29-.3-.1-.5-.1-.36.04-.5.14a1 1 0 0 0-.34.36 1.9 1.9 0 0 0-.19.54 3.6 3.6 0 0 0-.06.67zm6.34-2.78v5.65h-1.51v-5.65h1.51zm-1.6-1.47c0-.22.08-.4.23-.54s.36-.21.62-.21.46.07.61.21a.7.7 0 0 1 .23.54c0 .22-.08.4-.23.54s-.36.21-.61.21-.46-.07-.62-.21-.23-.32-.23-.54zm6.18 5.89v-6.78h1.51v8.02h-1.36l-.15-1.23zm-3.57-1.52v-.11a4.4 4.4 0 0 1 .15-1.17c.1-.35.24-.66.43-.91s.42-.45.69-.59.59-.21.94-.21c.33 0 .62.07.87.21s.46.34.64.59.32.56.43.9.19.72.24 1.13v.24c-.05.39-.13.76-.24 1.09s-.25.63-.43.89-.39.45-.64.58-.54.21-.88.21c-.35 0-.66-.07-.94-.21a2 2 0 0 1-.69-.6c-.19-.26-.33-.56-.42-.91s-.15-.73-.15-1.14zm1.5-.11v.11a3.8 3.8 0 0 0 .05.65c.04.2.1.38.18.54s.2.27.33.36.31.13.51.13a1.1 1.1 0 0 0 .64-.17c.17-.12.29-.28.38-.48s.14-.44.16-.71v-.68c-.01-.22-.04-.41-.09-.59s-.12-.33-.22-.45-.21-.22-.36-.29a1.1 1.1 0 0 0-.5-.1.9.9 0 0 0-.5.14 1 1 0 0 0-.34.36c-.08.15-.15.33-.19.54s-.06.43-.06.67zm7.8 1.59v-2.52c0-.18-.03-.34-.09-.47s-.15-.23-.28-.31-.28-.11-.48-.11c-.17 0-.31.03-.43.09-.12.05-.22.14-.28.24s-.1.23-.1.37h-1.5c0-.24.06-.47.17-.68a1.7 1.7 0 0 1 .49-.57c.21-.17.46-.3.76-.39s.63-.14.99-.14c.44 0 .83.07 1.17.22s.61.37.8.66.3.66.3 1.1v2.42c0 .31.02.56.06.76s.09.37.17.51v.09h-1.52c-.07-.15-.13-.34-.17-.57a4.7 4.7 0 0 1-.05-.7zm.2-2.17l.01.85h-.84c-.2 0-.37.02-.52.07s-.27.11-.36.19-.16.17-.21.28-.06.23-.06.36a.7.7 0 0 0 .09.35c.06.1.14.18.26.24s.24.08.39.08c.23 0 .42-.05.59-.14s.3-.2.39-.33.14-.26.15-.38l.4.64c-.05.14-.13.29-.23.44s-.21.3-.36.43-.32.24-.53.33-.45.13-.73.13a2.2 2.2 0 0 1-.98-.21c-.29-.15-.52-.35-.69-.6s-.25-.55-.25-.88c0-.3.06-.56.17-.79s.27-.42.49-.58.49-.28.82-.36a4.6 4.6 0 0 1 1.14-.13h.87zm5.24-2.21v1.07h-3.29v-1.07h3.29zm-2.47-1.39h1.5v5.34c0 .16.02.29.06.38s.11.15.2.18.2.05.33.05l.25-.01.19-.03v1.11c-.13.04-.27.08-.42.1s-.31.04-.5.04c-.33 0-.62-.05-.87-.16s-.43-.29-.56-.53-.2-.56-.2-.96v-5.49zm5.93 7.14c-.44 0-.83-.07-1.18-.21a2.6 2.6 0 0 1-.89-.59c-.24-.25-.42-.54-.55-.87s-.19-.69-.19-1.06v-.21a3.6 3.6 0 0 1 .18-1.18c.12-.35.3-.66.52-.92s.51-.46.84-.6.69-.21 1.11-.21a2.7 2.7 0 0 1 1.06.2c.31.13.57.32.78.56s.37.53.48.88a3.7 3.7 0 0 1 .16 1.13v.63h-4.49v-1h3.01v-.11c0-.21-.04-.4-.12-.56s-.18-.3-.33-.4-.34-.15-.57-.15c-.2 0-.37.04-.51.13s-.26.21-.35.37-.15.34-.2.55a3.5 3.5 0 0 0-.06.69v.21c0 .23.03.44.09.63s.16.36.28.5.27.25.44.32.37.12.59.12c.27 0 .52-.05.76-.16s.44-.27.61-.49l.73.79c-.12.17-.28.33-.49.49s-.44.29-.73.39-.61.15-.98.15zm-41.07 3.3v7.6h-1.57l-3.05-5.09v5.09h-1.57v-7.6h1.57l3.06 5.1v-5.1h1.56zm1.03 4.83v-.11a3.5 3.5 0 0 1 .18-1.14c.12-.35.29-.66.52-.91a2.3 2.3 0 0 1 .84-.6 2.8 2.8 0 0 1 1.14-.22c.43 0 .81.07 1.14.22s.61.34.84.6.4.56.52.91.18.73.18 1.14v.11c0 .41-.06.79-.18 1.14a2.7 2.7 0 0 1-.52.91c-.23.26-.5.46-.84.6s-.71.21-1.14.21a2.9 2.9 0 0 1-1.14-.21c-.33-.14-.61-.34-.84-.6a2.7 2.7 0 0 1-.52-.91c-.12-.35-.18-.73-.18-1.14zm1.5-.11v.11a3.3 3.3 0 0 0 .06.66c.04.21.11.39.2.54s.22.27.36.36.33.13.55.13c.21 0 .39-.04.54-.13a1 1 0 0 0 .36-.36 1.8 1.8 0 0 0 .2-.54 3.1 3.1 0 0 0 .07-.66v-.11c0-.23-.02-.44-.07-.65s-.11-.39-.2-.54-.21-.28-.36-.38-.33-.13-.54-.13-.39.05-.54.13-.27.22-.36.38a1.8 1.8 0 0 0-.2.54c-.04.2-.06.42-.06.65zm7.54-2.77v1.06h-3.29v-1.06h3.29zm-2.47-1.39h1.5v5.34c0 .16.02.29.06.38s.11.15.2.18.2.05.33.05l.25-.01.19-.03v1.11a2.7 2.7 0 0 1-.42.1c-.15.02-.32.04-.5.04-.33 0-.62-.05-.87-.16a1.2 1.2 0 0 1-.56-.53c-.13-.24-.2-.56-.2-.96v-5.49zm11.18 5.82v1.22h-4.04v-1.22h4.04zm-3.53-6.38v7.6h-1.56v-7.6h1.56zm3.01 3.09v1.19h-3.52v-1.19h3.52zm.52-3.09v1.23h-4.04v-1.23h4.04zm2.03 1.95l.93 1.72.96-1.72h1.6l-1.6 2.76 1.67 2.88h-1.61l-1.02-1.82-1.02 1.82h-1.61l1.67-2.88-1.6-2.76h1.61zm6.46 4.58a1.1 1.1 0 0 0 .49-.11c.14-.07.25-.17.33-.3s.13-.29.13-.46h1.41c0 .4-.11.75-.32 1.06s-.49.55-.84.73-.74.26-1.18.26a2.8 2.8 0 0 1-1.15-.22c-.32-.15-.59-.35-.81-.61s-.38-.56-.49-.91-.16-.72-.16-1.12v-.15c0-.4.05-.77.16-1.12s.27-.65.49-.91.49-.46.81-.61.7-.22 1.14-.22c.46 0 .87.09 1.22.27s.63.43.83.76a2.2 2.2 0 0 1 .31 1.16h-1.41c0-.19-.04-.36-.12-.51s-.18-.27-.32-.37a.9.9 0 0 0-.52-.14c-.22 0-.4.05-.54.14a.9.9 0 0 0-.32.38c-.08.16-.13.34-.16.54s-.04.41-.04.63v.15a4.6 4.6 0 0 0 .04.63c.03.2.08.38.16.54s.19.28.33.37.32.14.54.14zm4.83-4.58v5.65h-1.51v-5.65h1.51zm-1.6-1.47c0-.22.08-.4.23-.54s.36-.21.62-.21.46.07.61.21a.7.7 0 0 1 .23.54.7.7 0 0 1-.23.54c-.15.14-.36.21-.61.21s-.46-.07-.62-.21-.23-.32-.23-.54zm5.61 1.47v1.06h-3.29v-1.06h3.29zm-2.47-1.39h1.5v5.34c0 .16.02.29.06.38s.11.15.2.18.2.05.33.05l.25-.01.19-.03v1.11c-.13.04-.27.07-.42.1s-.31.04-.5.04c-.33 0-.62-.05-.87-.16s-.43-.29-.56-.53-.2-.56-.2-.96v-5.49zm5.93 7.14c-.44 0-.83-.07-1.18-.21s-.64-.34-.89-.59-.43-.54-.55-.87-.19-.69-.19-1.06v-.21a3.6 3.6 0 0 1 .18-1.18c.12-.35.3-.66.52-.92s.51-.46.84-.6.7-.21 1.11-.21a2.7 2.7 0 0 1 1.06.2c.31.13.57.32.78.56s.37.54.48.88a3.7 3.7 0 0 1 .16 1.13v.63h-4.49v-1h3.01v-.12c0-.21-.04-.39-.11-.56s-.18-.3-.33-.4-.34-.15-.58-.15c-.2 0-.37.04-.51.13s-.26.21-.35.37-.15.34-.2.55a3.5 3.5 0 0 0-.06.69v.21c0 .23.03.44.09.63.07.19.16.36.28.5s.27.25.44.32.37.12.59.12c.27 0 .52-.05.76-.16s.44-.27.61-.48l.73.79c-.12.17-.28.33-.49.49a2.6 2.6 0 0 1-.73.39c-.28.1-.61.15-.98.15zm6.51-1.34v-6.78h1.51v8.01h-1.36l-.15-1.23zm-3.57-1.52v-.11a4.4 4.4 0 0 1 .15-1.17c.1-.35.24-.66.43-.91s.42-.45.69-.59.59-.21.94-.21c.33 0 .62.07.87.21s.46.34.64.6.32.55.43.9a6.2 6.2 0 0 1 .24 1.13v.24c-.05.39-.13.76-.24 1.1s-.25.63-.43.89a1.9 1.9 0 0 1-.64.58c-.25.14-.54.21-.88.21-.35 0-.66-.07-.94-.21a2 2 0 0 1-.69-.6 2.9 2.9 0 0 1-.42-.91c-.1-.35-.15-.73-.15-1.14zm1.5-.11v.11a3.8 3.8 0 0 0 .05.65 1.9 1.9 0 0 0 .18.54c.09.15.2.27.33.36s.31.13.51.13a1.1 1.1 0 0 0 .64-.17c.17-.12.29-.28.38-.49s.14-.44.16-.71v-.68a2.4 2.4 0 0 0-.09-.59c-.05-.18-.12-.33-.22-.45s-.21-.22-.36-.29a1.1 1.1 0 0 0-.5-.1c-.2 0-.36.05-.5.14s-.25.21-.34.36-.15.33-.19.54-.06.43-.06.67z" class="B"/></g><g fill="#0668e1"><path d="M858.58 365.5l-1.21 4.85-1.78.41 1.54-6.21 1.67-.39-.23 1.33zm2.36-1.86l-.41 1.54-.31.05-.32.06a3.2 3.2 0 0 0-.68.24c-.2.1-.37.22-.52.36s-.27.3-.38.48-.18.37-.24.58l-.33-.02a6 6 0 0 1 .4-1.14c.17-.36.37-.69.6-.98a4 4 0 0 1 .76-.73 2.5 2.5 0 0 1 .88-.4l.3-.05c.1-.01.18-.01.24-.01zm-10.87 7.44c-.53.07-.97.07-1.32-.02s-.61-.24-.78-.45-.25-.48-.25-.79a2.6 2.6 0 0 1 .27-1.05l.1-.21a5.5 5.5 0 0 1 .78-1.22 6.5 6.5 0 0 1 1.07-1.02 6.4 6.4 0 0 1 1.29-.75c.46-.2.94-.33 1.43-.4.48-.07.88-.06 1.18.03s.53.23.67.44.19.48.16.81a3.6 3.6 0 0 1-.34 1.12l-.3.64-5.4.74.48-1.02 3.62-.5.05-.12c.1-.21.14-.4.13-.55s-.08-.27-.21-.35-.34-.09-.62-.05c-.24.03-.46.11-.68.22s-.41.25-.6.43-.35.37-.5.59-.28.46-.4.71l-.1.21c-.11.23-.17.44-.19.62s.02.34.1.46.2.21.37.25a1.7 1.7 0 0 0 .65.02 4 4 0 0 0 .98-.28c.34-.15.66-.35.96-.59l.5.68a5.8 5.8 0 0 1-.82.58 6.6 6.6 0 0 1-1.06.51 5.8 5.8 0 0 1-1.24.31zm-1.93-5.54l-.52 1.05-3.96.45.52-1.05 3.96-.45zm-2.3-1.04l1.81-.21-2.63 5.27c-.08.16-.12.28-.11.36s.06.13.15.15.21.02.37 0l.31-.05.25-.06-.54 1.09-.55.16c-.19.05-.4.08-.62.1a2.5 2.5 0 0 1-.96-.04c-.24-.08-.38-.23-.42-.45s.04-.53.23-.92l2.7-5.42zm-3.57.61l-2.56 5.4-1.81.24 2.56-5.4 1.81-.24zm-1.26-1.15c.1-.21.27-.39.52-.56s.53-.26.84-.3.52-.01.64.11c.12.11.14.27.04.48s-.27.4-.53.56a2 2 0 0 1-.83.3c-.31.04-.52.01-.64-.11s-.13-.27-.03-.48zm-6.3 4.61l2.75-4.43 1.82-.04-3.61 5.82-1.72.04.76-1.39zm.94-1.2l.54-.02a7.3 7.3 0 0 1-.83 1.09 6.1 6.1 0 0 1-1.01.87 5 5 0 0 1-1.15.58 4.1 4.1 0 0 1-1.26.22 2.7 2.7 0 0 1-.85-.1c-.23-.08-.39-.2-.49-.37-.09-.17-.11-.39-.05-.66s.21-.6.45-.99l2.33-3.76 1.82-.04-2.34 3.77c-.11.17-.17.32-.2.43s-.01.21.03.29.11.13.21.16.23.04.38.04c.38-.01.71-.08 1.01-.21s.56-.31.79-.54a4.5 4.5 0 0 0 .61-.76zm-5.84-3.56l-3.28 4.24-1.82-.15 4.19-5.42 1.71.14-.81 1.19zm3-1.05l-1.07 1.34a4 4 0 0 0-.3-.05l-.32-.04a3 3 0 0 0-.73.02 2.6 2.6 0 0 0-.64.19c-.2.09-.39.2-.56.34a3.5 3.5 0 0 0-.48.48l-.3-.12a7.5 7.5 0 0 1 .88-.96c.32-.29.65-.54.99-.74a4.4 4.4 0 0 1 1.03-.46 2.7 2.7 0 0 1 .99-.11 2 2 0 0 1 .29.04.9.9 0 0 1 .22.07zm-11.18 1.95c.22.04.45.03.67 0s.45-.11.65-.21c.21-.1.38-.24.53-.39l1.7.27a4 4 0 0 1-1.24.89 6.1 6.1 0 0 1-1.6.5c-.57.1-1.1.09-1.63.01s-.92-.22-1.2-.42-.43-.43-.48-.7.01-.58.16-.91a4.2 4.2 0 0 1 .71-1.04l.12-.14c.32-.36.69-.69 1.1-.98a6.5 6.5 0 0 1 1.32-.73c.47-.19.96-.33 1.47-.4a5.3 5.3 0 0 1 1.54.02c.56.09.97.25 1.24.47.28.23.4.51.37.84-.02.33-.22.7-.58 1.11l-1.7-.27c.15-.17.24-.33.27-.48s.01-.28-.09-.39c-.09-.11-.26-.19-.5-.23-.26-.04-.52-.03-.76.03s-.47.15-.69.28-.43.28-.63.45a5.9 5.9 0 0 0-.56.56l-.12.14-.46.58a1.5 1.5 0 0 0-.25.52c-.03.16 0 .29.09.4s.27.18.54.23zm-7.37-2.26a3.3 3.3 0 0 1-1.14-.65 1.3 1.3 0 0 1-.43-.8c-.03-.28.04-.57.22-.86a3.1 3.1 0 0 1 .82-.85l.2-.15c.42-.31.87-.56 1.35-.77s.98-.35 1.49-.44a6.2 6.2 0 0 1 1.53-.08 5.2 5.2 0 0 1 1.47.32 2.8 2.8 0 0 1 1.02.6c.22.23.33.47.33.74s-.1.54-.31.84a4.1 4.1 0 0 1-.92.88l-.61.45-5.1-1.91.98-.72 3.42 1.28.11-.08c.2-.15.34-.3.41-.45.08-.15.08-.29.01-.43s-.25-.25-.51-.35c-.23-.08-.46-.12-.71-.12s-.5.04-.75.11-.51.18-.76.31a5.9 5.9 0 0 0-.74.47l-.2.15c-.22.16-.39.33-.5.49s-.17.32-.17.48c0 .15.06.29.18.42s.31.24.56.33a3.3 3.3 0 0 0 1.01.21c.37.02.76-.01 1.17-.09l.06.88c-.3.07-.64.12-1.03.15a6.6 6.6 0 0 1-1.21-.03 5.4 5.4 0 0 1-1.25-.31zm-3.3-10.68l3.17 1.88a4.5 4.5 0 0 1 1.37 1.14c.26.37.33.74.18 1.09s-.51.66-1.09.95a5.3 5.3 0 0 1-1.46.47 5.7 5.7 0 0 1-1.49.03 8.1 8.1 0 0 1-1.51-.31l-.86-.18-2.75-1.63 1.41-.71 2.05 1.22c.31.18.62.31.94.37a2.8 2.8 0 0 0 .93.04c.31-.04.6-.12.86-.26.28-.14.48-.29.58-.45s.11-.33.01-.51-.3-.36-.61-.54l-1.42-.84-7.43 3.67-1.75-1.04 8.86-4.38zm-4.11 7.2l2.01-3.1 1.86 1.09-1.91 3.08-.09.04-1.87-1.11z"/></g></g></g><rect x="1" y="1" width="1138" height="638" rx="15" stroke="#0668e1" stroke-width="2"/><defs><filter id="B" x="-4.75" y="56.41" width="332.5" height="98.56" filterUnits="userSpaceOnUse" color-interpolation-filters="sRGB"><feFlood flood-opacity="0" result="A"/><feColorMatrix in="SourceAlpha" values="0 0 0 0 0 0 0 0 0 0 0 0 0 0 0 0 0 0 127 0" result="B"/><feOffset dy="1.78125"/><feGaussianBlur stdDeviation="2.38"/><feComposite in2="B" operator="out"/><feColorMatrix values="0 0 0 0 0 0 0 0 0 0 0 0 0 0 0 0 0 0 0.3 0"/><feBlend in2="A"/><feBlend in="SourceGraphic"/></filter><linearGradient id="C" x1="684.42" y1="496.76" x2="1692.82" y2="1182.23" gradientUnits="userSpaceOnUse"><stop stop-color="#b1d4ff"/><stop offset=".04" stop-color="#a2cbfc"/><stop offset=".16" stop-color="#479aff"/><stop offset=".28" stop-color="#0072ff"/><stop offset=".38" stop-color="#0668e1"/></linearGradient><linearGradient id="D" x1="863.63" y1="489.48" x2="1136.76" y2="809.96" gradientUnits="userSpaceOnUse"><stop offset=".38" stop-color="#7fb8ff"/><stop offset=".62" stop-color="#4095ff"/><stop offset=".85" stop-color="#0273ff"/><stop offset="1" stop-color="#0668e1"/></linearGradient><clipPath id="E"><rect width="1140" height="640" rx="16" class="B"/></clipPath><clipPath id="F"><path transform="translate(665 141.5)" d="M0 0h356.25v356.25H0z" class="B"/></clipPath><clipPath id="G"><path transform="matrix(-1 0 0 1 790.879 205.625)" d="M0 0h83.13v53.44H0z" class="B"/></clipPath><clipPath id="H"><path transform="matrix(-1 0 0 1 752.283 320.219)" d="M0 0h83.13v53.44H0z" class="B"/></clipPath><clipPath id="I"><path transform="matrix(-1 0 0 1 860.939 384.344)" d="M0 0h83.13v53.44H0z" class="B"/></clipPath><clipPath id="J"><path transform="matrix(-1 0 0 1 1015.32 347.531)" d="M0 0h83.13v53.44H0z" class="B"/></clipPath><clipPath id="K"><path transform="matrix(-1 0 0 1 1005.22 230.562)" d="M0 0h83.13v53.44H0z" class="B"/></clipPath></defs></svg>