<svg xmlns="http://www.w3.org/2000/svg" width="1140" height="640" fill="none" xmlns:v="https://vecta.io/nano"><style><![CDATA[.B{fill:#fff}.C{fill:#1a81ff}.D{fill:#0668e1}.E{fill:#1b1c17}.F{fill:#455a64}.G{fill:#107bff}]]></style><g clip-path="url(#K)"><rect width="1140" height="640" rx="16" class="B"/><mask id="A" maskUnits="userSpaceOnUse" x="0" y="0" width="1140" height="652"><path d="M1140 0H0v651.85h1140V0z" class="B"/></mask><g mask="url(#A)"><path d="M1145.4 106.35c-47.89 91.63-138.91 177.66-205.79 259.87-77.29 95-172.79 111.08-286.48 134.82-78.74 16.45-188.31 48.69-259.17 86.52-100.42 53.62-124.88 145.03-186.64 238.07-2.41 3.63-31.41 62.88-21.17 62.73l1014.16-15.55 5.31-834.01c-35.9 2.85-45.69 39.76-60.22 67.55z" fill="url(#G)"/><path d="M18.65 204.49c14.69-31.11 22.29-65.52 43.43-93.75 24.43-32.63 68.55-40.55 106.04-49.96 25.97-6.52 50.82-16.42 73.88-29.95 32.68-19.18 59.68-46.34 78.97-78.11.75-1.24 9.6-21.33 6.2-21.15L-9.92-49.68-.48 227.76c11.9-1.43 14.66-13.83 19.12-23.27z" fill="url(#H)"/><path d="M1209.59 220.96c-83.02 63.76-183.92 256.12-279.97 303.5-111.02 54.76-218.12 79.67-331.01 54.59-78.19-17.37-158.2-24.21-238.57-18.86-113.9 7.58-224.02 44.2-320.17 103.57-3.76 2.32-55.67 44.35-46.35 48.42l1133.96 371.6 154.97-726.45c-33.62-12.14-47.67-155.72-72.86-136.38z" fill="url(#I)"/><path d="M-20.2 178.92C6.01 155.91 35.33 89.76 66.23 71.9c35.72-20.64 70.78-31.27 108.88-25.42 26.38 4.05 53.14 4.57 79.75 1.02 37.71-5.02 73.52-19.62 104.2-41.46 1.2-.85 17.54-15.97 14.35-17.11l-385.29-98.58-35.54 244.86c11.45 3.3 19.28 50.71 27.23 43.73z" fill="url(#J)"/><g opacity=".2" class="B"><path d="M1083.89 485.93s-171.14 110.85-295.39 141c-92.2 22.37-149.09 0-244.62 0-92.22 0-155.75-4.76-236.14 0-113.95 6.75-224.07 42.57-320.19 101.2-3.76 2.3-55.64 43.95-46.32 48.08L1076 1155.86l154.32-725.04c-33.66-12.39-146.43 55.1-146.43 55.1z"/></g><g opacity=".2" class="B"><path d="M1187.56 578.83c-96.07 43-182.79 107.12-287.56 131.22-121.09 27.86-236.57-38.49-340.16-88.72-71.73-34.79-147.8-59.74-227.16-72.94-112.48-18.69-228.3-8.28-336.05 27.44-4.2 1.39-64.8 30.4-56.74 36.49l1011.46 620.92 326.38-671.01c-29.71-19.5-61.05 3.56-90.19 16.61l.02-.01z"/></g></g><path d="M122.61 222.16h19.93c3.9 0 7.28.58 10.16 1.74s5.09 2.88 6.65 5.15c1.58 2.27 2.37 5.08 2.37 8.42 0 2.9-.45 5.32-1.36 7.27s-2.17 3.56-3.79 4.84c-1.6 1.25-3.47 2.28-5.6 3.1l-4 2.26h-16.73l-.07-9.43h12.39a8 8 0 0 0 3.86-.84 5.4 5.4 0 0 0 2.3-2.37c.53-1.04.8-2.28.8-3.72 0-1.46-.27-2.71-.8-3.76a5.5 5.5 0 0 0-2.37-2.4c-1.02-.56-2.28-.83-3.79-.83h-7.72v41.23h-12.21v-50.65zm27.73 50.65l-11.2-22.4 12.94-.07 11.34 21.95v.52h-13.08zm36.43.7c-3.06 0-5.8-.47-8.21-1.43-2.41-.97-4.45-2.31-6.12-4-1.65-1.69-2.91-3.64-3.79-5.85a19.1 19.1 0 0 1-1.29-6.99v-1.32a24.5 24.5 0 0 1 1.15-7.65c.77-2.37 1.9-4.43 3.41-6.19a15.2 15.2 0 0 1 5.67-4.1 19.6 19.6 0 0 1 7.93-1.5 18.9 18.9 0 0 1 7.17 1.29 14.6 14.6 0 0 1 5.36 3.69c1.48 1.6 2.61 3.54 3.37 5.81.79 2.27 1.18 4.82 1.18 7.65v4.77h-30.75v-7.34h19.31v-.9c.02-1.25-.2-2.32-.66-3.2-.44-.88-1.09-1.55-1.95-2.02a6.5 6.5 0 0 0-3.13-.7 5.6 5.6 0 0 0-3.17.84c-.81.56-1.45 1.32-1.91 2.3a12.1 12.1 0 0 0-.94 3.31c-.19 1.25-.28 2.57-.28 3.97v1.32c0 1.39.19 2.66.56 3.79a8.6 8.6 0 0 0 1.67 2.92 7.9 7.9 0 0 0 2.64 1.84c1.04.44 2.23.66 3.55.66a13 13 0 0 0 4.73-.91c1.55-.6 2.89-1.6 4-2.99l5.32 6.33c-.76 1.09-1.85 2.15-3.27 3.17-1.39 1.02-3.06 1.86-5.01 2.5a21.3 21.3 0 0 1-6.54.94zm36.49-9.04a6 6 0 0 0 2.78-.59c.79-.42 1.38-1 1.77-1.74a5.4 5.4 0 0 0 .59-2.75h11.03c.02 2.83-.67 5.31-2.09 7.44a14.1 14.1 0 0 1-5.71 4.94c-2.39 1.16-5.09 1.74-8.11 1.74-2.95 0-5.52-.47-7.72-1.43-2.2-.97-4.05-2.32-5.53-4.04-1.46-1.74-2.56-3.77-3.31-6.09-.72-2.32-1.08-4.84-1.08-7.55v-.8c0-2.71.36-5.23 1.08-7.55.74-2.34 1.84-4.37 3.31-6.09a15 15 0 0 1 5.5-4.04c2.2-.97 4.77-1.46 7.69-1.46 3.13 0 5.89.59 8.28 1.77a13.4 13.4 0 0 1 5.67 5.15c1.37 2.25 2.04 4.98 2.02 8.18h-11.03a7.6 7.6 0 0 0-.52-3.06 4.7 4.7 0 0 0-1.74-2.16 4.9 4.9 0 0 0-2.96-.84 4.9 4.9 0 0 0-2.92.8c-.74.53-1.31 1.28-1.7 2.23-.37.93-.63 2-.77 3.2a40.4 40.4 0 0 0-.17 3.86v.8c0 1.39.06 2.7.17 3.93.14 1.21.41 2.27.8 3.2a5.1 5.1 0 0 0 1.71 2.16c.74.51 1.73.77 2.96.77zm33.02-19.97v28.32h-11.72v-37.64h10.96l.77 9.32zm11.13-9.6l-.21 10.89-1.88-.17c-.79-.07-1.45-.1-1.98-.1-1.37 0-2.55.16-3.55.49a6 6 0 0 0-2.44 1.39c-.63.6-1.09 1.37-1.39 2.3a10.6 10.6 0 0 0-.38 3.24l-2.12-1.39c0-2.53.24-4.82.73-6.89a18.7 18.7 0 0 1 2.16-5.39c.93-1.53 2.05-2.7 3.37-3.51 1.32-.84 2.81-1.25 4.45-1.25.58 0 1.15.03 1.7.1a8.5 8.5 0 0 1 1.53.31zm26.02 28.77v-28.49h11.76v37.64h-10.99l-.77-9.15zm1.11-7.65l3.06-.07c0 2.53-.3 4.87-.9 7.03-.6 2.13-1.5 3.99-2.68 5.57a12.2 12.2 0 0 1-4.31 3.69c-1.69.86-3.65 1.29-5.88 1.29a16.3 16.3 0 0 1-5.11-.76c-1.53-.53-2.85-1.36-3.97-2.47a11.7 11.7 0 0 1-2.61-4.35 20.1 20.1 0 0 1-.9-6.4v-24.35h11.72v24.42a6.6 6.6 0 0 0 .31 2.16 4.2 4.2 0 0 0 .91 1.53 3.9 3.9 0 0 0 1.46.91 7 7 0 0 0 2.05.28c1.76 0 3.14-.37 4.14-1.11a5.8 5.8 0 0 0 2.09-3.03c.42-1.28.63-2.71.63-4.31zm29.5-20.84v37.64h-11.76v-37.64h11.76zm-12.45-9.71c0-1.67.6-3.04 1.81-4.1s2.77-1.6 4.7-1.6 3.49.53 4.7 1.6 1.81 2.44 1.81 4.1-.6 3.04-1.81 4.11-2.77 1.6-4.7 1.6-3.49-.53-4.7-1.6-1.81-2.44-1.81-4.11zm39.52 9.71v8.14h-22.68v-8.14h22.68zm-17.92-9.36h11.72v34.72c0 1 .12 1.77.35 2.33.23.53.63.92 1.18 1.15.58.21 1.34.31 2.3.31.67 0 1.23-.01 1.67-.04a17.6 17.6 0 0 0 1.25-.17v8.38a19.2 19.2 0 0 1-3.13.73 20.7 20.7 0 0 1-3.48.28c-2.5 0-4.65-.39-6.44-1.18a8.4 8.4 0 0 1-4.04-3.72c-.93-1.69-1.39-3.9-1.39-6.61v-36.18zm40.81 47.7c-3.06 0-5.8-.47-8.21-1.43-2.41-.97-4.45-2.31-6.12-4-1.65-1.69-2.91-3.64-3.79-5.85a19.1 19.1 0 0 1-1.29-6.99v-1.32a24.5 24.5 0 0 1 1.15-7.65c.76-2.37 1.9-4.43 3.41-6.19a15.2 15.2 0 0 1 5.67-4.1 19.6 19.6 0 0 1 7.93-1.5 18.9 18.9 0 0 1 7.17 1.29 14.6 14.6 0 0 1 5.36 3.69c1.48 1.6 2.61 3.54 3.37 5.81.79 2.27 1.18 4.82 1.18 7.65v4.77h-30.75v-7.34h19.31v-.9c.02-1.25-.2-2.32-.66-3.2-.44-.88-1.09-1.55-1.95-2.02a6.5 6.5 0 0 0-3.13-.7 5.6 5.6 0 0 0-3.17.84c-.81.56-1.45 1.32-1.91 2.3a12.1 12.1 0 0 0-.94 3.31c-.19 1.25-.28 2.57-.28 3.97v1.32c0 1.39.19 2.66.56 3.79a8.6 8.6 0 0 0 1.67 2.92 7.9 7.9 0 0 0 2.64 1.84c1.04.44 2.23.66 3.55.66a13 13 0 0 0 4.73-.91c1.55-.6 2.89-1.6 4-2.99l5.32 6.33c-.76 1.09-1.85 2.15-3.27 3.17-1.39 1.02-3.06 1.86-5.01 2.5a21.3 21.3 0 0 1-6.54.94zm32.42-29.01v28.32H394.7v-37.64h10.96l.77 9.32zm11.13-9.6l-.21 10.89-1.88-.17c-.79-.07-1.45-.1-1.98-.1-1.37 0-2.55.16-3.55.49a6 6 0 0 0-2.44 1.39c-.63.6-1.09 1.37-1.39 2.3-.28.93-.41 2.01-.38 3.24l-2.12-1.39c0-2.53.24-4.82.73-6.89.51-2.09 1.23-3.89 2.16-5.39.93-1.53 2.05-2.7 3.38-3.51 1.32-.84 2.81-1.25 4.45-1.25.58 0 1.15.03 1.7.1a8.5 8.5 0 0 1 1.53.31zm-288.9 70.27h9.95l11.31 35.24 11.31-35.24h9.95l-17.22 50.65h-8.07l-17.22-50.65zm-6.05 0h10.3l1.91 38.83v11.83h-12.21v-50.65zm44.32 0h10.33v50.65h-12.25v-11.83l1.91-38.83zm16.14 32.22v-.73c0-2.76.39-5.3 1.18-7.62.79-2.34 1.95-4.37 3.48-6.09s3.42-3.05 5.67-4c2.25-.97 4.85-1.46 7.79-1.46 2.97 0 5.58.49 7.83 1.46 2.27.95 4.18 2.29 5.71 4s2.69 3.75 3.48 6.09c.79 2.32 1.18 4.86 1.18 7.62v.73c0 2.74-.39 5.28-1.18 7.62-.79 2.32-1.95 4.35-3.48 6.09-1.53 1.72-3.42 3.05-5.67 4s-4.85 1.43-7.79 1.43-5.56-.47-7.83-1.43-4.18-2.28-5.71-4c-1.53-1.74-2.69-3.77-3.48-6.09-.79-2.34-1.18-4.88-1.18-7.62zm11.72-.73v.73a23.7 23.7 0 0 0 .31 3.97c.21 1.23.56 2.31 1.04 3.24.49.91 1.15 1.61 1.98 2.12a5.9 5.9 0 0 0 3.13.77c1.23 0 2.25-.25 3.06-.77.84-.51 1.5-1.22 1.98-2.12a10.8 10.8 0 0 0 1.04-3.24 23.7 23.7 0 0 0 .31-3.97v-.73c0-1.37-.1-2.65-.31-3.86a10.8 10.8 0 0 0-1.04-3.24 5.6 5.6 0 0 0-1.98-2.23 5.7 5.7 0 0 0-3.13-.8c-1.23 0-2.26.27-3.1.8a5.7 5.7 0 0 0-1.95 2.23c-.49.93-.84 2.01-1.04 3.24-.21 1.21-.31 2.49-.31 3.86zm49.64-18.47v8.14h-22.68v-8.14h22.68zm-17.92-9.36h11.72v34.72c0 1 .12 1.77.35 2.33.23.53.63.92 1.18 1.15.58.21 1.34.31 2.3.31.67 0 1.23-.01 1.67-.04a17.7 17.7 0 0 0 1.25-.17v8.38a19.2 19.2 0 0 1-3.13.73 20.7 20.7 0 0 1-3.48.28c-2.5 0-4.65-.39-6.44-1.18a8.4 8.4 0 0 1-4.04-3.72c-.93-1.69-1.39-3.9-1.39-6.61v-36.18zm34.96 9.36v37.64h-11.76v-37.64h11.76zm-12.46-9.71c0-1.67.6-3.04 1.81-4.11s2.77-1.6 4.7-1.6 3.49.53 4.7 1.6 1.81 2.44 1.81 4.11-.6 3.04-1.81 4.1-2.77 1.6-4.7 1.6-3.49-.53-4.7-1.6-1.81-2.44-1.81-4.1zm33.26 39.31l7.41-29.61h12.35l-12.32 37.64h-7.31l-.14-8.04zm-4.38-29.61l7.31 29.61-.07 8.04h-7.34l-12.28-37.64h12.38zm46.62 28.18v-15.52a7.5 7.5 0 0 0-.45-2.75c-.3-.77-.78-1.36-1.43-1.77-.65-.44-1.52-.66-2.61-.66-.88 0-1.63.15-2.26.45a3.1 3.1 0 0 0-1.43 1.36c-.32.6-.49 1.37-.49 2.3h-11.72a10.4 10.4 0 0 1 1.15-4.84c.79-1.51 1.9-2.82 3.34-3.93 1.46-1.11 3.2-1.97 5.22-2.57a23.2 23.2 0 0 1 6.82-.94c2.99 0 5.66.5 8 1.5a12.5 12.5 0 0 1 5.6 4.49c1.37 1.97 2.05 4.45 2.05 7.44v15.41c0 2.46.14 4.32.42 5.6a12.9 12.9 0 0 0 1.18 3.31v.59h-11.76c-.56-1.16-.97-2.57-1.25-4.24a35 35 0 0 1-.38-5.22zm1.43-13.53l.07 6.26h-5.18a7.6 7.6 0 0 0-2.78.45 4.7 4.7 0 0 0-1.81 1.25c-.44.51-.76 1.09-.97 1.74a7.4 7.4 0 0 0-.28 2.05c0 .7.16 1.32.49 1.88.35.53.81.95 1.39 1.25s1.23.45 1.95.45a6.9 6.9 0 0 0 3.3-.73c.93-.51 1.64-1.12 2.12-1.84s.73-1.39.73-2.02l2.57 4.8c-.46.93-1 1.87-1.6 2.82a12.3 12.3 0 0 1-2.19 2.64c-.86.79-1.91 1.44-3.17 1.95a12.6 12.6 0 0 1-4.56.73 14.4 14.4 0 0 1-6.4-1.43c-1.93-.95-3.47-2.27-4.63-3.97a10.3 10.3 0 0 1-1.74-5.91c0-1.95.35-3.69 1.04-5.22a10.2 10.2 0 0 1 3.24-3.9c1.44-1.07 3.27-1.88 5.5-2.44s4.85-.84 7.86-.84h5.05zm36.7-14.65v8.14h-22.68v-8.14h22.68zm-17.92-9.36h11.72v34.72c0 1 .12 1.77.35 2.33.23.53.63.92 1.18 1.15.58.21 1.34.31 2.3.31a33 33 0 0 0 1.67-.04 17.7 17.7 0 0 0 1.25-.17v8.38a19.2 19.2 0 0 1-3.13.73 20.7 20.7 0 0 1-3.48.28c-2.5 0-4.65-.39-6.44-1.18a8.4 8.4 0 0 1-4.03-3.72c-.93-1.69-1.39-3.9-1.39-6.61v-36.18zm34.96 9.36v37.64h-11.76v-37.64h11.76zm-12.46-9.71c0-1.67.6-3.04 1.81-4.11s2.77-1.6 4.7-1.6 3.49.53 4.7 1.6 1.81 2.44 1.81 4.11-.6 3.04-1.81 4.1-2.77 1.6-4.7 1.6-3.49-.53-4.7-1.6-1.81-2.44-1.81-4.1zm18.23 28.91v-.73c0-2.76.39-5.3 1.18-7.62.79-2.34 1.95-4.37 3.48-6.09s3.42-3.05 5.67-4c2.25-.97 4.85-1.46 7.79-1.46 2.97 0 5.58.49 7.83 1.46 2.27.95 4.17 2.29 5.7 4s2.69 3.75 3.48 6.09c.79 2.32 1.18 4.86 1.18 7.62v.73c0 2.74-.39 5.28-1.18 7.62-.79 2.32-1.95 4.35-3.48 6.09-1.53 1.72-3.42 3.05-5.67 4s-4.85 1.43-7.79 1.43-5.55-.47-7.83-1.43-4.18-2.28-5.71-4c-1.53-1.74-2.69-3.77-3.48-6.09-.79-2.34-1.18-4.88-1.18-7.62zm11.73-.73v.73a23.7 23.7 0 0 0 .31 3.97 10.8 10.8 0 0 0 1.04 3.24c.49.91 1.15 1.61 1.98 2.12a5.9 5.9 0 0 0 3.13.77c1.23 0 2.25-.25 3.06-.77.83-.51 1.5-1.22 1.98-2.12.49-.93.83-2.01 1.04-3.24a23.8 23.8 0 0 0 .31-3.97v-.73c0-1.37-.1-2.65-.31-3.86-.21-1.23-.56-2.31-1.04-3.24a5.6 5.6 0 0 0-1.98-2.23 5.7 5.7 0 0 0-3.13-.8c-1.23 0-2.26.27-3.1.8a5.7 5.7 0 0 0-1.95 2.23 10.8 10.8 0 0 0-1.04 3.24c-.21 1.21-.31 2.49-.31 3.86zm41.33-10.44v29.61h-11.72v-37.64h10.99l.73 8.04zm-1.39 9.5l-2.75.07a26 26 0 0 1 1.04-7.69c.7-2.27 1.68-4.2 2.96-5.77a12.6 12.6 0 0 1 4.56-3.58c1.79-.83 3.77-1.25 5.95-1.25 1.74 0 3.33.25 4.77.76a9.1 9.1 0 0 1 3.76 2.47c1.07 1.14 1.88 2.64 2.44 4.52.58 1.86.87 4.15.87 6.89v23.69h-11.79v-23.73c0-1.51-.21-2.66-.63-3.44-.42-.81-1.02-1.37-1.81-1.67a8.1 8.1 0 0 0-2.89-.45c-1.21 0-2.23.23-3.06.7a5.4 5.4 0 0 0-2.02 1.95c-.49.81-.85 1.77-1.08 2.89-.21 1.11-.31 2.33-.31 3.65zm-308.48 73.45h9.95l11.31 35.24 11.31-35.24h9.95l-17.22 50.65h-8.07l-17.22-50.65zm-6.05 0h10.3l1.91 38.83v11.83h-12.21v-50.65zm44.32 0h10.33v50.65h-12.25v-11.83l1.91-38.83zm37.16 41.19v-15.52a7.5 7.5 0 0 0-.45-2.75c-.3-.77-.78-1.36-1.43-1.77-.65-.44-1.52-.66-2.61-.66-.88 0-1.63.15-2.26.45a3.1 3.1 0 0 0-1.43 1.36c-.32.6-.49 1.37-.49 2.3H183.7a10.4 10.4 0 0 1 1.15-4.84c.79-1.51 1.9-2.82 3.34-3.93 1.46-1.11 3.2-1.97 5.22-2.57a23.2 23.2 0 0 1 6.82-.94c2.99 0 5.66.5 8 1.5a12.5 12.5 0 0 1 5.6 4.49c1.37 1.97 2.05 4.45 2.05 7.44v15.41c0 2.46.14 4.32.42 5.6a12.9 12.9 0 0 0 1.18 3.31v.59h-11.76c-.56-1.16-.97-2.57-1.25-4.24a35 35 0 0 1-.38-5.22zm1.43-13.53l.07 6.26h-5.18a7.6 7.6 0 0 0-2.78.45 4.7 4.7 0 0 0-1.81 1.25c-.44.51-.76 1.09-.97 1.74a7.4 7.4 0 0 0-.28 2.05c0 .7.16 1.32.49 1.88.35.53.81.95 1.39 1.25s1.23.45 1.95.45a6.9 6.9 0 0 0 3.31-.73c.93-.51 1.64-1.12 2.12-1.84s.73-1.39.73-2.02l2.58 4.8a32 32 0 0 1-1.6 2.82c-.58.95-1.31 1.83-2.19 2.64-.86.79-1.91 1.44-3.17 1.95a12.6 12.6 0 0 1-4.56.73 14.4 14.4 0 0 1-6.4-1.43c-1.93-.95-3.47-2.27-4.63-3.97a10.3 10.3 0 0 1-1.74-5.91c0-1.95.35-3.69 1.04-5.22a10.2 10.2 0 0 1 3.24-3.9c1.44-1.07 3.27-1.88 5.5-2.44s4.85-.84 7.86-.84h5.04zm38.51 14.37v-44.81h11.79v53.44h-10.58l-1.22-8.63zm-23.1-9.74v-.73c0-2.85.31-5.45.94-7.79.63-2.37 1.55-4.4 2.78-6.09 1.23-1.72 2.76-3.04 4.59-3.97s3.94-1.39 6.33-1.39c2.13 0 4 .5 5.6 1.5 1.6.97 2.97 2.34 4.1 4.1s2.06 3.83 2.78 6.19c.72 2.34 1.26 4.87 1.64 7.58v.87c-.37 2.55-.92 4.96-1.64 7.24-.72 2.25-1.65 4.24-2.78 5.98s-2.52 3.11-4.14 4.11c-1.6.97-3.48 1.46-5.64 1.46-2.39 0-4.5-.47-6.33-1.43a13 13 0 0 1-4.56-4c-1.21-1.72-2.12-3.73-2.75-6.05s-.94-4.85-.94-7.59zm11.73-.73v.73c0 1.42.09 2.73.28 3.93s.5 2.27.94 3.2c.46.91 1.07 1.61 1.81 2.12.77.51 1.71.77 2.82.77a6.1 6.1 0 0 0 3.72-1.08c1-.72 1.73-1.74 2.19-3.06a12.1 12.1 0 0 0 .63-4.66v-2.75a16.6 16.6 0 0 0-.31-4.04 8 8 0 0 0-1.22-2.96c-.53-.79-1.22-1.38-2.05-1.77-.81-.42-1.78-.63-2.89-.63a4.9 4.9 0 0 0-2.78.77c-.74.51-1.34 1.23-1.81 2.16-.46.9-.8 1.98-1.01 3.24-.21 1.23-.31 2.57-.31 4.04zm48.05 19.79c-3.06 0-5.8-.47-8.21-1.43-2.41-.97-4.45-2.31-6.12-4-1.65-1.69-2.91-3.64-3.79-5.85a19.1 19.1 0 0 1-1.29-6.99v-1.32c0-2.76.38-5.31 1.15-7.65.77-2.37 1.9-4.43 3.41-6.19a15.2 15.2 0 0 1 5.67-4.1 19.6 19.6 0 0 1 7.93-1.5 18.9 18.9 0 0 1 7.17 1.29 14.6 14.6 0 0 1 5.36 3.69c1.48 1.6 2.61 3.54 3.37 5.81.79 2.27 1.18 4.82 1.18 7.65v4.77h-30.75v-7.34h19.31v-.9c.02-1.25-.2-2.32-.66-3.2-.44-.88-1.09-1.55-1.95-2.02a6.5 6.5 0 0 0-3.13-.7 5.6 5.6 0 0 0-3.17.83c-.81.56-1.45 1.32-1.91 2.3-.44.95-.75 2.05-.94 3.31s-.28 2.57-.28 3.97v1.32c0 1.39.19 2.65.56 3.79a8.6 8.6 0 0 0 1.67 2.92 7.9 7.9 0 0 0 2.64 1.84c1.04.44 2.23.66 3.55.66a13 13 0 0 0 4.73-.91c1.55-.6 2.89-1.6 4-2.99l5.32 6.33c-.77 1.09-1.86 2.15-3.27 3.17-1.39 1.02-3.06 1.86-5.01 2.5a21.3 21.3 0 0 1-6.54.94zm79.56-12.44l-2.04 11.74h-32.83l2.04-11.74h32.83zm-18.52-51.58l-11 63.32h-14.87l10.96-63.32h14.92zm18.87 25.13l-1.96 11.35h-28.61l2-11.35h28.57zm8.7-25.13l-2.04 11.78H334.3l2.09-11.78h32.92zm29.57 14.05l-23.31 49.27h-16.48l33.57-63.32h10.52l-4.31 14.05zm4 49.27l-6.44-50.79.35-12.52h9.91l11.7 63.32h-15.53zm3.39-23.61l-2.09 11.78h-31.62l2.09-11.78h31.62zm51.45 6.48c.26-1.36.16-2.52-.3-3.48a6.2 6.2 0 0 0-2-2.44 13 13 0 0 0-3-1.7 70.6 70.6 0 0 0-3.22-1.35c-2.26-.9-4.49-1.91-6.7-3.04a31.3 31.3 0 0 1-6-4.09c-1.8-1.57-3.2-3.39-4.22-5.48-.99-2.09-1.41-4.54-1.26-7.35.2-3.22 1.12-5.99 2.74-8.31a19.1 19.1 0 0 1 6.22-5.65 29.2 29.2 0 0 1 8.22-3.22c2.96-.7 5.84-1.01 8.65-.96 4 .06 7.57.87 10.7 2.44a17.8 17.8 0 0 1 7.44 6.74c1.8 2.9 2.67 6.41 2.61 10.52h-14.74c.06-1.62-.16-3.03-.65-4.22-.46-1.22-1.23-2.16-2.31-2.83a7.8 7.8 0 0 0-4.17-1.09 12.2 12.2 0 0 0-4.26.69 9.7 9.7 0 0 0-3.7 2.18 6.8 6.8 0 0 0-2 3.83c-.2 1.19-.01 2.23.56 3.13a7.8 7.8 0 0 0 2.39 2.26 21.5 21.5 0 0 0 3.18 1.57l2.96 1.13a50.5 50.5 0 0 1 6.83 3.18c2.2 1.19 4.15 2.59 5.83 4.22 1.71 1.62 3.02 3.52 3.91 5.7.93 2.15 1.3 4.64 1.13 7.48-.23 3.28-1.1 6.07-2.61 8.39a18.1 18.1 0 0 1-5.83 5.65 26.6 26.6 0 0 1-7.83 3.18c-2.84.67-5.73.99-8.65.96a31.2 31.2 0 0 1-9.18-1.48 22.4 22.4 0 0 1-7.44-4.13 18.6 18.6 0 0 1-4.91-6.7c-1.16-2.67-1.71-5.73-1.65-9.18l14.92.04c-.09 1.62.02 3.06.31 4.31a7.6 7.6 0 0 0 1.56 3.09c.75.81 1.73 1.44 2.91 1.87a13.4 13.4 0 0 0 4.3.61c1.42 0 2.78-.22 4.09-.65 1.33-.46 2.46-1.17 3.39-2.13s1.52-2.19 1.78-3.7zm41.36-46.18l6.52 27.4 16.05-27.4h16.7l-27.27 41.27-3.78 22.05h-15.18l4.09-23.48-12.7-39.79 15.57-.04zm58.75 0l-9.31 43.27h-11.65l5.7-43.27h15.26zm-25.48 57.01c-.06-2.26.7-4.1 2.26-5.52a8.2 8.2 0 0 1 5.65-2.13c2.09-.03 3.9.62 5.44 1.96 1.57 1.31 2.38 3.03 2.44 5.18.03 2.23-.74 4.07-2.3 5.52-1.57 1.42-3.44 2.13-5.61 2.13a8.1 8.1 0 0 1-5.48-1.91c-1.54-1.3-2.33-3.04-2.39-5.22z" fill="#5b5b5b"/><g filter="url(#F)"><path d="M323 71.25a11.9 11.9 0 0 0-11.87-11.87H0v89.06h311.13A11.9 11.9 0 0 0 323 136.56V71.25z" fill="#3886e7"/><path d="M47.66 107.53h-6.3v-4.71h6.3c.86 0 1.55-.14 2.09-.44s.92-.69 1.17-1.2c.26-.52.38-1.11.38-1.76 0-.7-.13-1.34-.38-1.93-.24-.59-.63-1.07-1.17-1.43-.53-.37-1.23-.56-2.09-.56h-4v20.61h-6.11V90.8h10.11c2.03 0 3.77.37 5.24 1.11 1.47.74 2.6 1.76 3.39 3.06a8.3 8.3 0 0 1 1.18 4.42 7.7 7.7 0 0 1-1.18 4.28c-.79 1.22-1.92 2.17-3.39 2.85-1.46.67-3.21 1.01-5.24 1.01zm22.39 3.86v-7.76c0-.53-.08-.99-.23-1.37s-.39-.68-.71-.89c-.32-.22-.76-.33-1.3-.33-.44 0-.82.08-1.13.23s-.55.38-.71.68a2.4 2.4 0 0 0-.24 1.15h-5.86a5.2 5.2 0 0 1 .57-2.42 6 6 0 0 1 1.67-1.97c.73-.56 1.6-.99 2.61-1.29a11.6 11.6 0 0 1 3.41-.47c1.5 0 2.83.25 4 .75 1.18.5 2.12 1.25 2.8 2.24.68.99 1.03 2.23 1.03 3.72v7.71c0 1.23.07 2.16.21 2.8.14.63.34 1.18.59 1.65v.3h-5.88c-.28-.58-.49-1.29-.63-2.12a17.5 17.5 0 0 1-.19-2.61zm.71-6.77l.03 3.13h-2.59a3.8 3.8 0 0 0-1.39.23c-.37.15-.67.36-.9.63-.22.25-.38.55-.49.87-.09.33-.14.67-.14 1.03 0 .35.08.66.24.94.17.27.41.48.7.63s.61.23.97.23c.65 0 1.2-.12 1.65-.36.46-.26.82-.56 1.06-.92s.37-.7.37-1.01l1.29 2.4c-.23.46-.5.93-.8 1.41a6.1 6.1 0 0 1-1.1 1.32c-.43.4-.96.72-1.58.98a6.3 6.3 0 0 1-2.28.36 7.2 7.2 0 0 1-3.2-.71c-.96-.48-1.73-1.14-2.31-1.98-.58-.86-.87-1.84-.87-2.96 0-.97.17-1.84.52-2.61a5.1 5.1 0 0 1 1.62-1.95c.72-.53 1.64-.94 2.75-1.22s2.42-.42 3.93-.42h2.52zm14.35-2.66v14.16h-5.86V97.3h5.48l.38 4.66zm5.57-4.8l-.1 5.44-.94-.09-.99-.05c-.68 0-1.28.08-1.77.24a3 3 0 0 0-1.22.7c-.31.3-.55.68-.7 1.15a5.3 5.3 0 0 0-.19 1.62l-1.06-.7a15 15 0 0 1 .37-3.44c.26-1.04.61-1.94 1.08-2.7.46-.77 1.03-1.35 1.69-1.76a4.1 4.1 0 0 1 2.23-.63c.29 0 .57.02.85.05.29.03.55.09.77.16zm12.8.14v4.07H92.14V97.3h11.34zm-8.96-4.68h5.86v17.36c0 .5.06.89.17 1.17.12.27.31.46.59.57.29.1.67.16 1.15.16l.84-.02.63-.09v4.19c-.5.16-1.02.28-1.56.37-.55.09-1.12.14-1.74.14-1.25 0-2.32-.2-3.22-.59a4.2 4.2 0 0 1-2.02-1.86c-.46-.85-.7-1.95-.7-3.3V92.62zM135 102.94v4.54h-10.45v-4.54H135zm31.05 8.66v4.52h-17.67v-3.83l8.14-8.56a23.8 23.8 0 0 0 1.74-2.21 8.9 8.9 0 0 0 .96-1.79c.21-.53.31-1.01.31-1.44 0-.73-.11-1.34-.33-1.83-.21-.5-.52-.88-.94-1.13-.41-.26-.91-.38-1.51-.38s-1.13.17-1.58.52-.81.82-1.06 1.43a5.4 5.4 0 0 0-.37 2.04h-5.88a8.3 8.3 0 0 1 1.13-4.26c.77-1.29 1.83-2.31 3.18-3.08a9.3 9.3 0 0 1 4.71-1.17c1.87 0 3.43.29 4.7.87s2.22 1.42 2.85 2.52c.65 1.09.97 2.41.97 3.95a7.8 7.8 0 0 1-.42 2.54c-.28.81-.68 1.62-1.2 2.42-.52.79-1.16 1.6-1.91 2.44l-2.54 2.66-3.27 3.77h9.98z" class="B"/></g><path d="M947.14 527.41H787.86c-13.94 0-25.24-11.28-25.24-25.21V137.8c0-13.92 11.3-25.21 25.24-25.21h159.29c13.94 0 25.24 11.28 25.24 25.21v364.4c0 13.92-11.3 25.21-25.24 25.21z" class="F"/><path d="M765.92 502V138c0-12.21 9.91-22.1 22.13-22.1h158.89c12.22 0 22.13 9.9 22.13 22.1V502c0 12.21-9.91 22.1-22.13 22.1H788.05c-12.22 0-22.13-9.9-22.13-22.1z" fill="#263238"/><g class="F"><path d="M852.43 128.97c-1.29 0-2.33-1.04-2.33-2.33s1.05-2.33 2.33-2.33h30c1.29 0 2.33 1.05 2.33 2.33s-1.05 2.33-2.33 2.33h-30z"/><use href="#L"/><path d="M844.93 128.97c-1.29 0-2.33-1.04-2.33-2.33s1.05-2.33 2.33-2.33 2.33 1.05 2.33 2.33-1.05 2.33-2.33 2.33zm53.72 0c-1.29 0-2.33-1.04-2.33-2.33s1.05-2.33 2.33-2.33 2.33 1.05 2.33 2.33-1.05 2.33-2.33 2.33zm-8.59 0c-1.29 0-2.33-1.04-2.33-2.33s1.05-2.33 2.33-2.33 2.33 1.05 2.33 2.33-1.05 2.33-2.33 2.33z"/></g><path d="M948.66 120.3h-36.29c-2.74 0-5.15 1.79-5.91 4.4l-2.31 7.88a6.9 6.9 0 0 1-6.62 4.92h-62.52a6.9 6.9 0 0 1-6.62-4.92l-2.31-7.88c-.76-2.61-3.17-4.4-5.91-4.4h-28.22c-12.41 0-22.47 9.97-22.47 22.26V501.7c0 8.31 6.8 15.04 15.19 15.04h165.04c7.37 0 13.34-5.92 13.34-13.21V134.56c0-7.88-6.45-14.27-14.4-14.27z" class="B"/><g fill="#fafafa"><path d="M957.9 131.73a22.4 22.4 0 0 0-16-6.69h-32.86l-4.17 15.41h-73.92l-9.8-18.96h-29.09c-10.09 0-21.37 10.13-21.37 18.23v262.31l.58.06c18.88 2.05 37.25-9.8 47.61-25.69s14.02-35.19 15.85-54.06 2.05-38.02 6.49-56.46c7.45-30.96 27.11-58.81 53.79-76.24 13.17-8.6 27.92-14.73 40.48-24.2 11.05-8.33 20.56-20.26 22.41-33.7zm5.16 369.31l-.25-111.7a96.7 96.7 0 0 0-72.72 46.97c-13.51 23.38-16.19 52.65-7.56 78.19l67.47-.13c8.91 0 13.06-8 13.06-13.33z"/></g><g class="F"><path d="M972.38 202.76h.31c.59 0 1.06.47 1.06 1.06v45.55c0 .59-.48 1.06-1.06 1.06h-.31v-47.67zm-209.76 29.37h-.37c-.59 0-1.06.47-1.06 1.06v28.06c0 .59.48 1.06 1.06 1.06h.37v-30.18zm0-39.43h-.37c-.59 0-1.06.47-1.06 1.06v28.07c0 .59.48 1.06 1.06 1.06h.37V192.7zm0-29.6h-.29c-.52 0-.94.42-.94.94v12.15c0 .52.42.94.94.94h.29V163.1z"/></g><g fill="#263238"><path d="M918.77 132.18h-1.44v2.02h1.44v-2.02zm2.34-.9h-1.44v2.92h1.44v-2.92zm2.35-.67h-1.44v3.59h1.44v-3.59zm2.34-1.3h-1.44v4.89h1.44v-4.89zm21.27 4.99h-7.23c-.29 0-.52-.23-.52-.52v-3.59c0-.29.23-.52.51-.52h7.24c.03 0 .07.01.1.04s.04.06.04.09v1.18h.77c.07 0 .13.06.13.13v1.73c0 .07-.06.13-.13.13h-.77v1.18c0 .07-.06.13-.13.13zm-.13-4.36h-7.11c-.14 0-.25.11-.25.25v3.59c0 .14.11.25.25.25h7.1v-1.18c0-.07.06-.13.13-.13h.77v-1.47h-.77c-.07 0-.13-.06-.13-.13v-1.19h0zm-6.76 3.51v-2.92h6.17v1.32.29 1.31h-6.17zm-7.48.57c0-.29-.24-.53-.53-.53s-.53.24-.53.53.24.53.53.53.53-.24.53-.53zm-2.33-1.26l.67.67a1.6 1.6 0 0 1 2.26 0l.67-.67c-.46-.46-1.1-.75-1.8-.75a2.5 2.5 0 0 0-1.8.75zm1.8-2.25c-1.12 0-2.13.45-2.87 1.19l.67.67a3.1 3.1 0 0 1 4.38 0l.68-.67c-.74-.73-1.75-1.19-2.87-1.19zm-3.96.09l.67.67c.84-.84 2.01-1.36 3.29-1.36s2.44.52 3.29 1.36l.68-.67a5.6 5.6 0 0 0-7.93 0z"/></g><mask id="B" maskUnits="userSpaceOnUse" x="799" y="151" width="8" height="4"><path d="M801.08 151.67l5.75 3.05c-.42-.22-.91-.31-1.44-.24l-5.75-3.05c.53-.07 1.02.02 1.44.24z" class="B"/></mask><g mask="url(#B)" class="G"><path d="M805.39 154.48l-5.75-3.05c.33-.04.64-.03.93.05l5.75 3.05c-.29-.07-.6-.09-.93-.05z"/><path d="M806.32 154.53l-5.75-3.05c.15.04.29.09.43.15l5.75 3.05c-.13-.06-.28-.12-.43-.15z"/><path d="M806.75 154.69l-5.75-3.05.08.04 5.75 3.05-.08-.04z"/></g><mask id="C" maskUnits="userSpaceOnUse" x="791" y="165" width="7" height="4"><path d="M791.19 165.58l.13.07 5.75 3.05-.13-.07-5.75-3.05z" class="B"/></mask><g mask="url(#C)"><path d="M796.94 168.64l-5.75-3.05.13.07 5.75 3.05-.13-.07z" fill="#258fb2"/><path d="M797.08 168.7l-5.75-3.05.15.07a3.6 3.6 0 0 0 .52.18l5.75 3.05c-.18-.05-.35-.1-.52-.18l-.15-.07z" fill="#2692b6"/></g><mask id="D" maskUnits="userSpaceOnUse" x="784" y="169" width="8" height="6"><path d="M791.36 174.89l-5.75-3.05c-.75-.4-1.26-1.22-1.25-2.23l5.75 3.05c0 1.01.5 1.83 1.26 2.23z" class="B"/></mask><g mask="url(#D)" class="C"><path d="M791.36 174.89l-5.75-3.05c-.75-.4-1.26-1.22-1.25-2.23l5.75 3.05c0 1.01.5 1.83 1.26 2.23z"/></g><path d="M805.41 154.49c1.48-.2 2.69.91 2.69 2.47l-.02 13.25a3.3 3.3 0 0 1-2.7 3.21l-12.58 1.72c-1.48.2-2.69-.91-2.69-2.47l.02-13.25a3.3 3.3 0 0 1 2.7-3.21l12.58-1.72z" class="D"/><path d="M792.82 156.21l-5.75-3.05 12.58-1.72 5.75 3.05-12.58 1.72z" class="G"/><path d="M790.1 172.66l-5.75-3.05.02-13.25 5.75 3.05-.02 13.25z" fill="#1e83ff"/><mask id="E" maskUnits="userSpaceOnUse" x="784" y="153" width="9" height="7"><path d="M790.12 159.42l-5.75-3.05a3.3 3.3 0 0 1 2.7-3.21l5.75 3.05a3.3 3.3 0 0 0-2.7 3.21z" class="B"/></mask><g mask="url(#E)" class="C"><path d="M790.12 159.43l-5.75-3.05c0-.38.07-.76.21-1.11l5.75 3.05c-.13.35-.21.73-.21 1.11z"/><path d="M790.33 158.31l-5.75-3.05c.06-.15.13-.3.2-.44l5.75 3.05a3.3 3.3 0 0 0-.2.44z"/><path d="M790.53 157.87l-5.75-3.05a3.6 3.6 0 0 1 .22-.35l5.75 3.05c-.08.11-.15.23-.22.35z"/><path d="M790.75 157.52l-5.75-3.05a3.6 3.6 0 0 1 .24-.3l5.75 3.05a3.4 3.4 0 0 0-.25.3z"/><path d="M791 157.22l-5.75-3.05.28-.27 5.75 3.05c-.1.09-.19.18-.28.27z"/><path d="M791.28 156.94l-5.75-3.05c.1-.09.21-.18.33-.25l5.75 3.05c-.12.08-.22.16-.33.25z"/><path d="M791.61 156.69l-5.75-3.05a3 3 0 0 1 .44-.25l5.75 3.05c-.15.07-.3.15-.44.25z"/><path d="M792.04 156.44l-5.75-3.05a2.8 2.8 0 0 1 .78-.23l5.75 3.05c-.27.04-.53.12-.78.23z"/></g><path d="M796.01 161.38l1.05-.13 1.05-.12.97-.07-.05 1.06-2.48.34c-.15.02-.27.08-.35.17-.07.09-.11.21-.11.37l.06 3.32c0 .16.04.27.12.34.08.07.2.1.36.07l2.48-.34.08 1.04-.96.19-1.05.16-1.05.15c-.41.06-.75-.02-1.01-.22-.25-.2-.39-.5-.4-.89l-.07-3.95c0-.4.12-.73.37-1.01.25-.28.58-.44 1-.5zm-1.17 2.81l3.86-.53.02 1.02-3.86.53-.02-1.02zm7.71-3.79l.78-.08a5 5 0 0 1 .6-.02 6.7 6.7 0 0 1 .56.04l-.09 1.08-.57.05-.55.06-.7.09c-.32.04-.57.14-.75.3-.17.15-.29.38-.36.7s-.1.75-.09 1.31a5.7 5.7 0 0 0 .13 1.28c.08.3.21.5.39.6.18.1.43.13.75.09l1.08-.17.87-.19.14 1.04a5.5 5.5 0 0 1-.91.32c-.31.09-.7.16-1.16.22-.67.09-1.2.06-1.6-.1-.4-.17-.7-.48-.89-.95s-.28-1.12-.3-1.95.06-1.5.23-2.02c.17-.52.45-.91.85-1.18.39-.28.93-.46 1.59-.55z" class="B"/><g class="E"><path d="M822.77 160.44c.31 0 .59 0 .79.04.21 0 .41.04.59.07l.59.15-.1.98c-.21 0-.38-.04-.59-.04-.17 0-.38-.04-.55-.04h-.72c-.38 0-.69.07-.9.25-.21.15-.38.44-.45.8-.1.37-.14.88-.14 1.57s.03 1.17.14 1.57c.1.36.24.66.45.8s.52.26.9.26l1.1-.04c.31 0 .59-.04.9-.07l.1.95c-.31.11-.59.18-.93.22a9.4 9.4 0 0 1-1.17.07c-.69 0-1.24-.11-1.62-.36-.41-.26-.69-.62-.9-1.17-.17-.66-.27-1.38-.27-2.3s.1-1.64.27-2.19.48-.91.86-1.17c.41-.25.97-.36 1.65-.36zm5.06 2.08a3.1 3.1 0 0 1 1.41.25 1.6 1.6 0 0 1 .76.84 4.6 4.6 0 0 1 .24 1.57 4 4 0 0 1-.24 1.57c-.14.4-.41.69-.76.84a3.1 3.1 0 0 1-1.41.26c-.59 0-1.03-.07-1.38-.26a1.6 1.6 0 0 1-.76-.84c-.17-.4-.24-.91-.24-1.57s.07-1.17.24-1.57.41-.69.76-.84c.31-.18.79-.25 1.38-.25zm0 .95c-.28 0-.52.04-.69.15s-.28.29-.35.51a4.1 4.1 0 0 0-.1 1.06 4.3 4.3 0 0 0 .1 1.06c.07.25.21.44.35.51.17.11.38.15.69.15s.52-.04.69-.15.28-.26.35-.51a4.1 4.1 0 0 0 .1-1.06 4.3 4.3 0 0 0-.1-1.06c-.07-.26-.17-.44-.35-.51s-.41-.15-.69-.15zm4.1-.84l.1.98.1.15v3.97h-1.21v-5.1h1zm2.21-.11c.9 0 1.34.47 1.34 1.42v3.83h-1.21v-3.43c0-.29-.04-.47-.14-.58s-.24-.15-.45-.15c-.24 0-.48.07-.76.18-.24.11-.55.29-.93.51l-.03-.77a4.6 4.6 0 0 1 1.07-.73c.38-.22.72-.29 1.1-.29zm3.21.11l.1.98.1.15v3.97h-1.21v-5.1h1zm2.21-.11c.9 0 1.34.47 1.34 1.42v3.83h-1.21v-3.43c0-.29-.04-.47-.14-.58s-.24-.15-.45-.15c-.24 0-.48.07-.76.18-.24.11-.55.29-.93.51l-.03-.77a4.6 4.6 0 0 1 1.07-.73c.41-.22.76-.29 1.1-.29zm4.47 0c.79 0 1.35.14 1.69.44s.52.73.52 1.28c0 .47-.1.8-.31 1.06s-.55.37-1.07.37h-2.76v-.77h2.45c.21 0 .38-.07.41-.18.07-.11.1-.29.1-.47 0-.29-.07-.47-.24-.58s-.38-.18-.72-.18c-.31 0-.55.04-.72.15-.17.07-.28.25-.35.47a3.8 3.8 0 0 0-.1 1.02 3.1 3.1 0 0 0 .14 1.09c.07.25.24.44.41.51.21.11.45.15.79.15l.83-.04.93-.07.1.8a2.4 2.4 0 0 1-.62.18l-.72.11c-.24.04-.48.04-.69.04-.59 0-1.07-.11-1.41-.29s-.62-.47-.79-.87a3.9 3.9 0 0 1-.24-1.53 4.2 4.2 0 0 1 .24-1.6 1.6 1.6 0 0 1 .76-.84 3.8 3.8 0 0 1 1.38-.22zm5.24 0c.17 0 .34 0 .55.04.21 0 .41.04.59.07.21.04.38.11.55.18l-.14.8c-.24 0-.48-.04-.72-.04h-.62c-.35 0-.59.04-.79.15s-.35.25-.41.51a3.8 3.8 0 0 0-.14 1.02 2.6 2.6 0 0 0 .14 1.02c.07.25.24.4.41.51.21.11.45.15.79.15h.38c.17 0 .34 0 .52-.04.17 0 .38-.04.55-.04l.1.8c-.24.11-.55.18-.86.25l-.93.07c-.58 0-1.03-.07-1.38-.25s-.59-.47-.76-.84a4.7 4.7 0 0 1-.24-1.57 4 4 0 0 1 .24-1.57 1.6 1.6 0 0 1 .76-.84c.38-.33.86-.4 1.41-.4zm5.65.11v.88h-3.48v-.84l.93-.04h2.55zm-1.45-1.46v5.03c0 .22.03.36.14.47.1.07.24.15.45.15h.65l.14.88a3.4 3.4 0 0 1-.41.11l-.45.07h-.38c-.41 0-.76-.11-.97-.36-.24-.26-.35-.58-.35-1.02v-5.32h1.17z"/></g><g class="D"><path d="M859.37 160.55h1.1l1.1.04c.35 0 .69.04 1 .07l-.07 1.17h-2.62c-.17 0-.27.04-.38.15a.6.6 0 0 0-.14.4v3.64c0 .18.03.29.14.4.07.07.21.15.38.15h2.62l.07 1.17-1 .07-1.1.04h-1.1c-.45 0-.79-.15-1.03-.4-.27-.26-.41-.62-.41-1.06v-4.41c0-.44.14-.8.41-1.06.24-.25.62-.36 1.03-.36z"/><path d="M862.16 163.47h-4.07v1.13h4.07v-1.13zm3.93-3.03l.83.04a2.9 2.9 0 0 1 .62.07 3.4 3.4 0 0 1 .59.15l-.1 1.17c-.21 0-.41-.04-.59-.04h-.59-.76c-.35 0-.59.07-.79.22s-.31.36-.41.73c-.07.33-.1.8-.1 1.42s.03 1.09.1 1.42.21.58.41.73a1.3 1.3 0 0 0 .79.22l1.14-.04c.31 0 .62-.04.93-.07l.14 1.17c-.31.11-.62.18-.96.22a10.7 10.7 0 0 1-1.21.07c-.69 0-1.28-.11-1.69-.36s-.72-.62-.93-1.17a6.4 6.4 0 0 1-.27-2.19c0-.91.1-1.64.27-2.19s.48-.95.93-1.17c.41-.29.97-.4 1.65-.4zm5.62-.84c0 .58-.45 1.06-1 1.06s-1-.47-1-1.06a1 1 0 0 1 1-1.02 1 1 0 0 1 1 1.02zm-1.76 0c0 .47.31.84.76.84.41 0 .76-.36.76-.8 0-.47-.31-.84-.76-.84-.45-.04-.76.36-.76.8zm.62.55h-.24v-1.02c.1-.04.21-.04.38-.04s.28.04.34.07.1.11.1.22-.07.22-.21.25c.1.04.14.11.17.26s.03.22.07.25h-.24c-.03-.04-.03-.15-.07-.25s-.07-.15-.21-.15h-.1v.4zm0-.58h.1c.14 0 .24-.04.24-.15s-.07-.15-.21-.15h-.14v.29z"/></g><path d="M876.06 172.69c-.2 0-.39-.11-.39-.23V154.1c0-.11.2-.23.39-.23s.39.11.39.23v18.4c0 .08-.2.19-.39.19z" class="E"/><g class="D"><path d="M893.75 168.16l-1.39 2.94h-.47l-1.4-2.94h.56l.87 1.88c.04.08.07.17.1.25l.09.25h.04l.09-.25.1-.25.87-1.88h.55zm-1.37 2.54v1.91h-.53v-1.91h.53zm-3.61-2.62l.6.03a4.6 4.6 0 0 1 .62.1l-.04.41-.57-.02-.6-.01c-.15 0-.27.01-.38.02a.5.5 0 0 0-.26.08c-.07.05-.12.11-.15.2s-.04.22-.04.38c0 .24.04.42.12.52.08.09.22.17.4.21l.84.23c.32.08.54.23.65.43s.18.48.18.82c0 .26-.03.47-.08.63s-.13.28-.24.37-.25.14-.43.17a3.3 3.3 0 0 1-.62.05 9.3 9.3 0 0 1-.53-.02c-.22-.01-.46-.05-.75-.1l.04-.42.57.03h.37.32c.21 0 .38-.02.5-.05s.21-.1.26-.21.08-.26.08-.46c0-.17-.02-.31-.05-.4s-.09-.17-.17-.21-.17-.09-.29-.12l-.85-.23c-.3-.08-.51-.22-.63-.43s-.18-.47-.18-.81c0-.26.03-.47.08-.62s.14-.28.25-.35a1 1 0 0 1 .42-.16l.6-.04zm-3.25.08c.05 0 .09.01.13.04s.06.06.07.11l1.32 4.3h-.54l-1.07-3.65-.05-.18-.05-.18h-.17l-.05.18-.05.18-1.07 3.65h-.54l1.33-4.3c.01-.05.04-.08.07-.11s.08-.04.13-.04h.55zm.76 2.57v.49h-2.09v-.49h2.09zm-4.96-2.58h.6l.6.01.57.03-.02.45h-1.65c-.12 0-.22.03-.27.1-.06.06-.08.17-.08.32v2.65c0 .15.03.26.08.33s.15.1.27.1h1.65l.02.44-.57.03h-.6l-.6.01a.8.8 0 0 1-.58-.21c-.14-.14-.21-.33-.22-.57v-2.92c0-.24.08-.43.22-.57a.8.8 0 0 1 .58-.21zm-.69 1.88h2.2v.46h-2.2v-.46z"/></g><g class="E"><path d="M934.03 162.29c.44 0 .75.09.95.26s.3.43.3.77a1.1 1.1 0 0 1-.16.66c-.11.16-.29.23-.53.23h-1.7v-.43h1.56c.13 0 .22-.05.26-.14s.06-.21.06-.32c0-.2-.06-.35-.17-.43s-.29-.13-.55-.13c-.21 0-.38.03-.5.1s-.21.18-.26.35-.07.39-.07.69c0 .34.03.59.09.77s.16.3.3.36.31.1.54.1l.51-.02.5-.06.05.37c-.09.04-.2.07-.34.1l-.41.06-.38.02c-.33 0-.6-.05-.81-.16a1 1 0 0 1-.45-.53 2.8 2.8 0 0 1-.14-.97c0-.41.05-.74.14-.98s.24-.41.43-.51.45-.16.76-.16zm-2.74-.86v3.21c0 .15.03.26.09.32s.16.1.3.1h.44l.06.42a1.9 1.9 0 0 1-.22.05l-.25.03-.19.01c-.24 0-.43-.07-.55-.22s-.19-.36-.19-.63v-3.28h.51zm.92.93v.43h-1.96v-.4l.57-.03h1.38zm-3.55-.07c.21 0 .4.03.54.1s.26.16.34.31.11.35.11.6v2.22h-.4l-.08-.69-.04-.07v-1.46c0-.19-.04-.33-.12-.41s-.24-.13-.47-.13l-.57.03-.67.06-.05-.41.44-.07.5-.05.47-.02zm.76 1.28v.41l-1.39.01c-.14 0-.24.05-.29.12s-.08.18-.08.31v.2c0 .16.04.28.11.36.07.07.19.11.35.11.11 0 .24-.02.38-.06a1.7 1.7 0 0 0 .43-.21c.14-.09.27-.22.39-.36v.41c-.04.06-.11.13-.19.21s-.18.16-.29.23-.24.14-.38.19-.28.07-.44.07c-.17 0-.32-.03-.45-.1s-.24-.17-.31-.3a1 1 0 0 1-.11-.48v-.34c0-.25.07-.44.21-.57s.34-.21.6-.21h1.49zm-4.59-1.28c.19 0 .38.03.57.08s.37.13.54.25l-.03.34-.5-.14c-.14-.03-.3-.05-.46-.05s-.3.03-.41.1c-.1.06-.17.17-.22.34a2.8 2.8 0 0 0-.07.72c0 .31.02.55.07.72s.12.29.22.36.23.1.38.1a1 1 0 0 0 .31-.04 1.3 1.3 0 0 0 .3-.16l.38-.28.05.39a2.4 2.4 0 0 1-.54.41c-.2.11-.42.17-.66.17-.37 0-.63-.14-.79-.42s-.23-.69-.23-1.24c0-.41.04-.73.12-.97s.2-.41.36-.52.37-.16.62-.16zm1.52-1.3v4.52h-.39l-.06-.55-.05-.04v-2.16l.04-.1-.03-.35-.01-.35v-.97h.51zm-3.44 1.37v3.14h-.5v-3.14h.5zm-.13-1.34c.1 0 .15.06.15.17v.37c0 .11-.05.17-.15.17h-.24c-.1 0-.15-.06-.15-.17v-.37c0-.11.05-.17.15-.17h.24zm-2.85 1.27c.19 0 .38.03.57.08s.37.13.54.25l-.03.34-.5-.14a2 2 0 0 0-.46-.05c-.17 0-.3.03-.41.1-.1.06-.17.17-.22.34s-.07.41-.07.72.02.55.07.72.12.29.22.36.23.1.38.1a1 1 0 0 0 .31-.04 1.3 1.3 0 0 0 .3-.16l.38-.28.05.39a2.4 2.4 0 0 1-.54.41c-.2.11-.42.17-.66.17-.37 0-.63-.14-.79-.42s-.23-.69-.23-1.24c0-.41.04-.73.12-.97s.2-.41.36-.52.37-.16.62-.16zm1.52-1.3v4.52h-.39l-.06-.55-.05-.04v-2.16l.03-.1-.03-.35v-.35-.97h.51zm-4.19 1.3c.53 0 .79.29.79.87v2.36h-.51v-2.2c0-.21-.03-.36-.1-.43s-.17-.12-.32-.12c-.18 0-.36.05-.54.14l-.64.39-.02-.39c.23-.19.45-.34.67-.44a1.6 1.6 0 0 1 .66-.16zm-1.34.08l.04.6.04.1v2.45h-.51v-3.14h.43zm-2.33-.08c.21 0 .4.03.54.1s.27.16.34.31.11.35.11.6v2.22h-.4l-.08-.69-.03-.07v-1.46c0-.19-.04-.33-.13-.41s-.24-.13-.47-.13l-.57.03-.67.06-.05-.41.44-.07.5-.05.47-.02zm.76 1.28l-.01.41-1.39.01c-.14 0-.24.05-.29.12s-.08.18-.08.31v.2c0 .16.04.28.11.36.07.07.19.11.35.11.11 0 .24-.02.38-.06a1.7 1.7 0 0 0 .43-.21c.14-.09.27-.22.39-.36v.41c-.04.06-.11.13-.19.21s-.18.16-.29.23-.24.14-.38.19-.28.07-.44.07c-.17 0-.32-.03-.45-.1s-.23-.17-.31-.3a.9.9 0 0 1-.11-.48v-.34c0-.25.07-.44.21-.57s.34-.21.6-.21h1.49z"/></g><path d="M910.33 160.98l.45.01c.13.01.24.02.35.05l.33.07-.05.43-.33-.03-.32-.02-.41-.01c-.27 0-.48.06-.63.17s-.27.3-.33.56a4.7 4.7 0 0 0-.1 1.07c0 .45.03.81.1 1.07s.18.45.33.56.37.17.63.17l.64-.01.51-.06.05.43a3 3 0 0 1-.53.11c-.18.03-.4.04-.67.04-.39 0-.71-.07-.95-.22s-.41-.39-.51-.73c-.1-.34-.15-.79-.15-1.36s.05-1.02.15-1.36c.11-.34.28-.58.51-.72.24-.15.55-.23.95-.23z" class="D"/><g class="E"><path d="M907.92 163.67v.42h-1.82v-.42h1.82zm-3.52-1.31l.07.6.05.1v2.45h-.51v-3.14h.39zm1.43-.08l-.06.52h-.17c-.17 0-.34.04-.51.12a6.8 6.8 0 0 0-.63.32l-.04-.34c.21-.19.43-.34.64-.44s.43-.16.63-.16h.13zm-3.83.01c.44 0 .75.09.95.26s.3.43.3.77c0 .28-.05.5-.16.66s-.29.23-.53.23h-1.7v-.43h1.56c.13 0 .22-.05.26-.14s.06-.21.06-.32c0-.2-.06-.35-.17-.43s-.29-.13-.55-.13c-.21 0-.38.03-.5.1s-.21.18-.26.35-.07.39-.07.69c0 .34.03.59.09.77s.16.3.3.36.31.1.54.1l.51-.02.5-.06.05.37a2 2 0 0 1-.34.1l-.41.06-.38.02c-.33 0-.6-.05-.81-.16a1 1 0 0 1-.45-.53 2.8 2.8 0 0 1-.14-.97c0-.41.05-.74.14-.98s.24-.41.43-.51.45-.16.76-.16zm-1.75.07l-1.16 3.32c-.05.14-.11.27-.18.41s-.16.25-.26.36-.22.2-.36.27-.29.11-.47.12l-.05-.36c.24-.08.42-.19.54-.33s.23-.3.31-.5l.14-.37.1-.28.09-.28.76-2.34h.55zm-2.39 0l.77 2.34.06.19c.02.06.04.12.05.19h.14l-.17.42h-.15c-.04 0-.08-.01-.11-.04s-.05-.06-.07-.1l-1.06-3h.54zm-2.31-.07c.33 0 .6.05.8.16s.35.28.44.53a2.9 2.9 0 0 1 .13.96c0 .4-.04.72-.13.97s-.23.41-.44.52a1.7 1.7 0 0 1-.8.16 1.7 1.7 0 0 1-.8-.16c-.2-.11-.34-.28-.44-.52s-.13-.57-.13-.97.04-.72.13-.96.24-.42.44-.53a1.7 1.7 0 0 1 .8-.16zm0 .47a1 1 0 0 0-.5.11c-.12.07-.2.19-.26.36a2.3 2.3 0 0 0-.08.72 2.7 2.7 0 0 0 .08.72c.05.18.14.3.26.37s.29.1.5.1.38-.03.5-.1.21-.19.26-.37a2.7 2.7 0 0 0 .08-.72 2.7 2.7 0 0 0-.08-.72c-.05-.18-.14-.29-.26-.36a1 1 0 0 0-.5-.11zm-2.49-1.77l-.01 3.65c0 .14.03.24.1.32s.17.1.3.1h.28l.06.42c-.04.02-.09.03-.16.05s-.13.02-.2.03-.12.01-.17.01c-.22 0-.39-.07-.52-.21s-.19-.34-.19-.59v-3.78h.51zm-2.31 1.3c.35 0 .61.14.76.43s.23.69.23 1.24a3.2 3.2 0 0 1-.12.97c-.08.24-.2.41-.36.51s-.36.16-.62.16c-.19 0-.38-.03-.57-.08s-.36-.14-.54-.26l.03-.33.5.14c.14.03.29.05.45.05.17 0 .31-.03.41-.1s.18-.18.23-.35.07-.41.07-.71-.02-.53-.06-.7-.11-.3-.21-.37-.21-.12-.37-.12a1 1 0 0 0-.47.12 3.4 3.4 0 0 0-.54.37l-.05-.37a1.8 1.8 0 0 1 .36-.32 1.7 1.7 0 0 1 .42-.21c.15-.05.3-.08.44-.08zm-1.25.08l.05.65.04.08v2.01l-.02.08.02.35.01.36v.91h-.51v-4.44h.42zm-2.11-.08c.25 0 .44.07.57.22s.2.36.2.65v2.36h-.5v-2.2c0-.19-.04-.33-.11-.42s-.18-.14-.35-.14a.8.8 0 0 0-.3.06c-.1.04-.19.09-.3.17l-.41.3-.03-.39a2.6 2.6 0 0 1 .62-.45 1.3 1.3 0 0 1 .6-.16zm-3.12.08l.03.6.05.1v2.45h-.51v-3.14h.42zm1.22-.08c.25 0 .44.07.57.22s.2.36.2.65v2.36h-.49v-2.2c0-.2-.04-.34-.11-.43s-.19-.13-.34-.13c-.1 0-.2.02-.29.05s-.19.09-.31.17l-.41.31-.04-.39a2.8 2.8 0 0 1 .61-.45c.19-.1.4-.16.61-.16z"/></g><path d="M881.32 161.04h.6l.6.01.57.03-.02.44h-1.65c-.12 0-.22.04-.27.1s-.08.17-.08.32v2.65c0 .15.03.26.08.33s.15.1.27.1h1.65l.02.44-.57.03h-.6l-.6.01c-.24 0-.44-.07-.58-.21a.8.8 0 0 1-.22-.57v-2.92c0-.24.08-.43.22-.57a.8.8 0 0 1 .58-.21zm-.69 1.88h2.2v.46h-2.2v-.46z" class="D"/><g class="E"><path d="M901.1 154.34v3.21c0 .15.03.26.09.32s.16.1.3.1h.44l.06.42a2.2 2.2 0 0 1-.22.04l-.25.03-.19.01c-.24 0-.43-.07-.55-.22s-.19-.36-.19-.63v-3.28h.51zm.93.93v.43h-1.96v-.4l.57-.03h1.38z"/><path d="M898.7 155.19l.29.01c.11.01.22.02.33.05s.22.05.32.09l-.07.35-.42-.03-.37-.01c-.23 0-.41.04-.55.1s-.23.19-.29.36a2.3 2.3 0 0 0-.09.72c0 .31.03.55.09.72s.16.29.29.36a1.2 1.2 0 0 0 .55.1l.23-.01.3-.02.32-.04.05.37c-.15.06-.31.1-.48.12l-.51.04c-.34 0-.6-.05-.81-.16s-.35-.28-.44-.52a2.9 2.9 0 0 1-.13-.97 2.8 2.8 0 0 1 .14-.97c.09-.24.24-.41.44-.52s.47-.16.81-.16zm-3.26 0c.44 0 .75.09.95.26s.3.43.3.77c0 .28-.05.5-.16.66s-.29.23-.53.23h-1.69v-.43h1.56c.13 0 .22-.05.26-.14.04-.1.06-.21.06-.32 0-.2-.06-.35-.17-.43s-.29-.13-.55-.13c-.21 0-.38.04-.5.1s-.2.18-.26.35-.07.39-.07.69c0 .34.03.59.09.77s.16.3.3.36.31.1.54.1l.51-.02.5-.06.05.37a2 2 0 0 1-.34.1l-.41.06-.38.02c-.34 0-.6-.05-.81-.16s-.35-.29-.45-.53-.14-.57-.14-.97c0-.41.04-.74.14-.97s.24-.41.44-.51.45-.15.76-.15zm-2.9 0c.53 0 .79.29.79.87v2.36h-.51v-2.2c0-.21-.03-.35-.1-.43s-.17-.12-.32-.12c-.18 0-.36.05-.54.14l-.64.39-.02-.39a3.1 3.1 0 0 1 .67-.44c.22-.11.44-.16.66-.16zm-1.34.08l.04.6.04.1v2.45h-.51v-3.14h.43zm-2.12-.08c.52 0 .79.29.79.87v2.36h-.51v-2.2c0-.21-.03-.35-.1-.43s-.17-.12-.32-.12c-.18 0-.36.05-.54.14l-.64.39-.02-.39a3.1 3.1 0 0 1 .68-.44c.22-.11.44-.16.66-.16zm-1.34.08l.04.6.04.1v2.45h-.51v-3.14h.43zm-2.59-.08c.34 0 .6.05.8.16s.35.28.44.53.13.56.13.96-.04.72-.13.97-.23.42-.44.52-.47.16-.8.16a1.7 1.7 0 0 1-.8-.16c-.2-.11-.34-.28-.44-.52s-.13-.57-.13-.97.04-.72.13-.96.24-.42.44-.53a1.7 1.7 0 0 1 .8-.16zm0 .46a1 1 0 0 0-.5.11c-.12.07-.2.19-.26.36a2.3 2.3 0 0 0-.08.72 2.6 2.6 0 0 0 .08.72c.05.17.14.3.26.37s.29.1.5.1.38-.03.5-.1.21-.2.26-.37.08-.41.08-.72a2.7 2.7 0 0 0-.08-.72c-.05-.18-.14-.29-.26-.36a1 1 0 0 0-.5-.11zm-3.12-1.77l.45.01a2.7 2.7 0 0 1 .35.04l.33.07-.05.43-.34-.03-.32-.02-.41-.01c-.27 0-.48.06-.63.17s-.27.3-.33.56a4.9 4.9 0 0 0-.1 1.07 4.7 4.7 0 0 0 .1 1.07c.07.26.18.45.33.56s.37.17.63.17l.64-.01.51-.06.05.43a3.2 3.2 0 0 1-.53.11 5 5 0 0 1-.67.04 1.8 1.8 0 0 1-.95-.22c-.23-.15-.41-.39-.51-.73a4.9 4.9 0 0 1-.16-1.35 4.6 4.6 0 0 1 .16-1.36c.11-.34.28-.58.51-.72s.56-.23.95-.23z"/></g><rect x="797.4" y="414.44" width="140.13" height="53.44" rx="7.13" fill="#e0e0e0"/><rect x="799.78" y="410.88" width="135.38" height="53.44" rx="7.13" fill="#37474f"/><path d="M804.53 421.56c0-2.62 2.13-4.75 4.75-4.75h116.38c2.62 0 4.75 2.13 4.75 4.75v32.06c0 2.62-2.13 4.75-4.75 4.75H809.28c-2.62 0-4.75-2.13-4.75-4.75v-32.06z" class="F"/><g class="B"><path d="M826.8 439.09a1.5 1.5 0 0 0-.1-.58c-.06-.18-.18-.34-.35-.48a2.8 2.8 0 0 0-.73-.44 10.3 10.3 0 0 0-1.21-.45c-.55-.18-1.07-.38-1.57-.6-.49-.22-.92-.48-1.3-.78a3.5 3.5 0 0 1-.88-1.04c-.21-.39-.32-.85-.32-1.38 0-.51.11-.96.33-1.37.22-.42.53-.77.93-1.07s.87-.53 1.42-.69a6.4 6.4 0 0 1 1.81-.24c.89 0 1.67.16 2.34.48s1.18.76 1.55 1.33a3.4 3.4 0 0 1 .56 1.93h-2.48c0-.36-.08-.67-.23-.93a1.6 1.6 0 0 0-.67-.64c-.29-.16-.67-.23-1.12-.23-.43 0-.79.07-1.08.2s-.51.3-.65.52-.22.46-.22.73c0 .21.05.39.15.56.11.17.26.32.47.47a4.1 4.1 0 0 0 .76.41 13.2 13.2 0 0 0 1.04.38 11.1 11.1 0 0 1 1.74.68 5.4 5.4 0 0 1 1.27.84c.34.31.6.67.77 1.06s.26.84.26 1.34c0 .53-.1 1-.31 1.42s-.5.77-.89 1.06a4.2 4.2 0 0 1-1.39.66c-.54.15-1.14.23-1.81.23-.6 0-1.19-.08-1.77-.23a5.4 5.4 0 0 1-1.59-.73 3.6 3.6 0 0 1-1.13-1.23c-.28-.5-.42-1.09-.42-1.78h2.51c0 .38.06.7.17.96a1.6 1.6 0 0 0 .49.63 2.1 2.1 0 0 0 .77.35c.3.07.63.11.98.11.43 0 .79-.06 1.07-.18s.49-.29.63-.51.21-.46.21-.73zm8.19 3.34c-.7 0-1.33-.11-1.88-.33-.56-.23-1.03-.54-1.42-.94a4.2 4.2 0 0 1-.88-1.39 4.7 4.7 0 0 1-.31-1.7v-.33c0-.68.1-1.31.29-1.88a4.4 4.4 0 0 1 .83-1.48c.37-.42.81-.74 1.33-.96.52-.23 1.11-.34 1.77-.34a4.3 4.3 0 0 1 1.7.32 3.3 3.3 0 0 1 1.24.9 3.9 3.9 0 0 1 .77 1.4 5.9 5.9 0 0 1 .26 1.8v1h-7.16v-1.6h4.81v-.18c0-.33-.06-.63-.18-.89-.12-.27-.29-.48-.53-.63s-.54-.23-.92-.23c-.32 0-.59.07-.82.21s-.41.33-.56.58-.25.55-.32.88a5.6 5.6 0 0 0-.1 1.1v.33a3.2 3.2 0 0 0 .15 1c.11.31.25.57.44.79a2 2 0 0 0 .7.52c.28.12.59.18.94.18.43 0 .84-.08 1.21-.25a2.6 2.6 0 0 0 .98-.77l1.17 1.27c-.19.27-.45.53-.77.78s-.71.46-1.17.62a4.8 4.8 0 0 1-1.56.23zm7.6-12.97v12.81h-2.41v-12.81h2.41zm5.04 12.8h-2.42v-9.82c0-.68.13-1.26.4-1.73s.65-.83 1.14-1.07 1.08-.37 1.76-.37c.22 0 .44.02.64.05l.6.11-.02 1.81a1.9 1.9 0 0 0-.33-.06l-.41-.02c-.29 0-.54.05-.74.15-.2.09-.35.24-.46.43a1.4 1.4 0 0 0-.16.69v9.82zm1.8-9.02v1.7h-5.56v-1.7h5.56zm13.8 7.07v1.95h-6.46v-1.95h6.46zm-5.64-10.19v12.14h-2.5v-12.14h2.5zm4.8 4.94v1.9h-5.62v-1.9h5.62zm.83-4.94v1.96h-6.45v-1.96h6.45zm4.38 12.14h-2.42v-9.82c0-.68.13-1.26.4-1.73s.65-.83 1.14-1.07 1.08-.37 1.76-.37c.22 0 .44.02.64.05l.6.11-.02 1.81a1.9 1.9 0 0 0-.33-.06l-.41-.02c-.29 0-.54.05-.74.15a1 1 0 0 0-.46.43 1.4 1.4 0 0 0-.16.69v9.82zm1.82-9.02v1.7h-5.58v-1.7h5.58zm3.58 9.02h-2.4v-9.43c0-.77.16-1.42.47-1.94s.76-.93 1.35-1.2a5 5 0 0 1 2.12-.41 7 7 0 0 1 1.38.14l1.38.35-.34 1.93-.99-.27c-.35-.08-.77-.12-1.27-.12-.56 0-.98.13-1.27.39-.28.26-.42.63-.42 1.13v9.43zm1.79-9.02v1.7h-5.54v-1.7h5.54zm3.62 0v9.02h-2.42v-9.02h2.42zm5.72 7.31c.3 0 .56-.06.78-.17a1.3 1.3 0 0 0 .53-.48c.13-.21.2-.46.21-.74h2.26c-.01.63-.17 1.2-.51 1.69a3.5 3.5 0 0 1-1.34 1.16 4.2 4.2 0 0 1-1.88.42 4.5 4.5 0 0 1-1.83-.35 3.5 3.5 0 0 1-1.29-.97c-.35-.42-.6-.9-.77-1.45a6 6 0 0 1-.26-1.78v-.24a6 6 0 0 1 .26-1.78 4.1 4.1 0 0 1 .77-1.45 3.5 3.5 0 0 1 1.29-.97 4.4 4.4 0 0 1 1.82-.35 4.1 4.1 0 0 1 1.94.43 3.3 3.3 0 0 1 1.32 1.22c.32.52.49 1.14.49 1.86h-2.26a1.9 1.9 0 0 0-.19-.82c-.12-.24-.29-.44-.52-.58-.22-.15-.5-.22-.82-.22a1.5 1.5 0 0 0-.86.22c-.22.14-.39.34-.52.6a3 3 0 0 0-.26.86 7.1 7.1 0 0 0-.07 1v.24a7.3 7.3 0 0 0 .07 1.01 2.8 2.8 0 0 0 .25.86 1.5 1.5 0 0 0 .52.59 1.6 1.6 0 0 0 .87.22zm10.04-.32v-4.02c0-.29-.05-.54-.14-.74a1 1 0 0 0-.44-.49c-.19-.12-.45-.18-.76-.18a1.6 1.6 0 0 0-.69.14c-.19.09-.34.22-.45.39s-.16.36-.16.59h-2.4c0-.38.09-.75.27-1.09s.44-.65.77-.91a3.8 3.8 0 0 1 1.21-.62 5.2 5.2 0 0 1 1.58-.23 4.7 4.7 0 0 1 1.87.35c.55.23.97.58 1.28 1.05.32.47.48 1.05.48 1.75v3.86c0 .49.03.9.09 1.22a3.2 3.2 0 0 0 .27.82v.14h-2.43c-.12-.25-.21-.55-.27-.92s-.08-.75-.08-1.12zm.32-3.46l.02 1.36h-1.34c-.32 0-.59.04-.83.11s-.42.18-.57.31-.26.28-.33.45-.1.36-.1.57.05.39.14.56c.1.16.23.29.41.38s.39.13.63.13a1.9 1.9 0 0 0 .94-.22c.27-.15.47-.32.62-.53s.23-.41.23-.6l.63 1.02c-.09.23-.21.46-.37.71a3.3 3.3 0 0 1-.58.69c-.23.21-.51.39-.84.52s-.72.2-1.17.2a3.5 3.5 0 0 1-1.56-.34c-.46-.23-.83-.55-1.1-.96a2.5 2.5 0 0 1-.4-1.4c0-.47.09-.89.27-1.26a2.5 2.5 0 0 1 .78-.93c.35-.26.79-.45 1.31-.58a7.4 7.4 0 0 1 1.82-.2h1.39zm7.67 3.78c.3 0 .56-.06.78-.17a1.3 1.3 0 0 0 .53-.48c.13-.21.2-.46.21-.74h2.26c-.01.63-.17 1.2-.51 1.69a3.5 3.5 0 0 1-1.34 1.16c-.56.28-1.19.42-1.88.42a4.5 4.5 0 0 1-1.83-.35 3.5 3.5 0 0 1-1.29-.97c-.35-.42-.6-.9-.77-1.45a6 6 0 0 1-.26-1.78v-.24a6 6 0 0 1 .26-1.78 4.1 4.1 0 0 1 .77-1.45 3.5 3.5 0 0 1 1.29-.97 4.4 4.4 0 0 1 1.82-.35c.74 0 1.38.14 1.94.43.56.28 1 .69 1.32 1.22.32.52.49 1.14.49 1.86h-2.26c-.01-.3-.07-.57-.19-.82-.12-.24-.29-.44-.52-.58-.22-.15-.5-.22-.82-.22a1.5 1.5 0 0 0-.86.22c-.22.14-.39.34-.52.6a3 3 0 0 0-.26.86 7.1 7.1 0 0 0-.07 1v.24a7.3 7.3 0 0 0 .07 1.01 2.8 2.8 0 0 0 .25.86 1.5 1.5 0 0 0 .52.59 1.6 1.6 0 0 0 .87.22zm7.85.7l2.39-8h2.58l-3.62 10.38c-.08.23-.18.47-.32.73-.13.26-.3.51-.52.74s-.49.43-.83.58a2.9 2.9 0 0 1-1.21.23c-.23 0-.41-.01-.56-.04l-.52-.12v-1.76h.19l.19.01c.32 0 .58-.04.77-.11s.36-.18.48-.33c.12-.14.22-.33.29-.57l.67-1.74zm-1-8l1.96 6.54.34 2.54-1.63.17-3.24-9.25h2.57z"/></g><g stroke="#1b1c17" stroke-width=".59"><path d="M847.54 261.29c1.21-.32 2.51.2 3.12 1.29.51.91.94 1.86 1.41 2.81h0l6.41 13.02a11.2 11.2 0 0 0 11.25 6.22c4.19-.43 7.28-2.58 9.15-6.3l6.78-13.75.68-1.39.24-.45c.55-1.02 1.5-1.59 2.57-1.54l.22.02c.62.07 1.12.28 1.51.61.34.28.61.66.8 1.15l.08.21a2.6 2.6 0 0 1-.18 2l-4.5 9.15-4.38 9.03a39.8 39.8 0 0 0-2.55 7.41 41 41 0 0 0-1.27 8.16 93.3 93.3 0 0 0-.07 6.05 94.5 94.5 0 0 0 .93 11.52c.29 2.12.67 4.24 1.02 6.34l2.11 12.56 1.76 10.46c.39 2.41-1.51 4.6-4.02 4.65h-.08c-1.93 0-3.57-1.29-4-3.14l-.04-.18c-.23-1.21-.42-2.42-.63-3.64h0l-1.28-7.62-1.23-7.3-1.41-8.37-1.04-6.22h0c-.07-.44-.2-.91-.57-1.29-.59-.62-1.34-.93-2.24-.68-.82.23-1.39.76-1.6 1.57l-.04.17-.24 1.32-.22 1.31-1.31 7.78-1.4 8.37-.63 3.7-.63 3.7-1.16 6.98a4.13 4.13 0 1 1-8.19-1.13l1.31-7.83 1.89-11.1 1.58-9.56c.73-4.77 1.09-9.57 1.15-14.4a48.4 48.4 0 0 0-.73-9.15 46.7 46.7 0 0 0-4.15-12.49l-5.33-10.81-1.31-2.67-1.3-2.67c-.77-1.59.08-3.41 1.79-3.87h0zm21.21 5.3a7.4 7.4 0 0 1 7.37 7.4 7.4 7.4 0 0 1-7.46 7.25h0c-4.16-.03-7.48-3.32-7.44-7.37a7.4 7.4 0 0 1 7.15-7.28h.38zm35.97-12.74a1.8 1.8 0 0 1 2.28.3c.76.77.7 1.97-.14 2.64-.3.24-.65.42-1.03.64l-7.8 4.43a2.2 2.2 0 0 1-.88.31h-.13 0c-.82-.04-1.43-.44-1.71-1.01l-.05-.12c-.29-.73-.11-1.5.46-2.01h0a2.2 2.2 0 0 1 .39-.29h0l8.62-4.88zm-65.54 37.19c.69-.4 1.34-.51 2.03-.16h0c1.13.58 1.35 2.02.45 2.88h0c-.21.21-.49.38-.79.55l-7.99 4.54c-.4.23-.75.39-1.07.4h-.1a1.9 1.9 0 0 1-1.72-1.04l-.05-.12-.05-.13c-.21-.67-.03-1.36.49-1.83h0c.16-.14.34-.26.53-.37h0l4.14-2.36 4.14-2.36zm56.58.07a1.8 1.8 0 0 1 2.03-.25l2.06 1.15 6.61 3.75c.67.38 1.04.9 1.07 1.64v.03c0 1.26-1.34 2.15-2.53 1.68l-.12-.05c-.23-.1-.44-.22-.66-.35l-.67-.39-7.38-4.18c-.48-.27-.81-.6-.97-1.07h0l-.04-.15a1.7 1.7 0 0 1-.01-.91 1.9 1.9 0 0 1 .48-.8l.11-.11zm-65.96-35.66c-.05-1.22 1.21-2.16 2.4-1.77.22.07.43.18.65.3l8.28 4.7c.4.23.7.5.88.87l.07.16c.43 1.16-.38 2.4-1.83 2.46h-.07c-.09 0-.23-.02-.4-.08s-.35-.15-.54-.25h0l-6.89-3.92-.81-.46-.8-.46-.21-.14c-.46-.35-.71-.81-.73-1.4zm37.27-21.98c.43-.71 1.26-1.03 2.11-.82h0c.69.18 1.28.89 1.34 1.65h0c.01.07 0 .14 0 .25v9.57a1.9 1.9 0 0 1-.68 1.55c-.58.48-1.24.56-1.92.27-.7-.29-1.07-.85-1.13-1.62-.02-.31-.01-.61-.01-.96v-4.08-4.73c0-.4.09-.76.29-1.09h0zm19.37 71.27c.62.03 1.16.32 1.53.93h0l1.42 2.39.7 1.19.22.4c.57 1.1-.04 2.36-1.28 2.62a1.8 1.8 0 0 1-1.74-.56c-.05-.06-.1-.11-.12-.15l-2.48-4.22h0c-.6-1.14.29-2.56 1.73-2.59h.02zm-37.03.85c.76-1.18 2.46-1.12 3.16.09a1.7 1.7 0 0 1 0 1.79l-2.33 3.94c-.41.67-1.03.98-1.82.88-.71-.09-1.21-.47-1.49-1.11l-.05-.13c-.03-.08-.05-.17-.07-.29l-.05-.36.1-.36c.03-.11.06-.2.1-.29l.04-.08 2.4-4.08zm37.66-64.15c.44-.71 1.2-1.03 1.94-.87l.15.04c.83.24 1.35.91 1.42 1.77l-.14.46c-.05.17-.1.31-.17.43h0l-2.32 3.94c-.64 1.03-1.94 1.19-2.84.4-.62-.55-.79-1.47-.36-2.22l2.32-3.94zm21.68 33.17h0c.8.03 1.48.57 1.69 1.27h0c.32 1.09-.4 2.19-1.56 2.34h0a2.1 2.1 0 0 1-.29.02c-1.48 0-2.95.01-4.42-.01h0c-.3 0-.62-.07-.9-.19-.75-.32-1.18-1.13-1.04-1.9a1.8 1.8 0 0 1 1.52-1.51l.16-.01c.82-.04 1.63-.01 2.48-.01h.3v-.01h2.07zm-60.16-34.08c.75.05 1.24.3 1.58.8.23.34.43.69.64 1.06l1.71 2.91c.36.63.35 1.29.09 1.81s-.8.91-1.53.98c-.76.08-1.34-.26-1.74-.92h0l-1.47-2.48-.63-1.05-.2-.35a1.8 1.8 0 0 1 1.08-2.66c.17-.05.32-.06.47-.08z"/><path d="M833.21 274.61c.85.01 1.47.43 1.75 1.13l.05.14a1.8 1.8 0 0 1-1.24 2.27l-.2.05a2.8 2.8 0 0 1-.32.03l-.35.01h-1.69v-.01h-.3c-.79 0-1.55.03-2.31-.01-.88-.04-1.53-.56-1.75-1.32l-.04-.16c-.2-1.03.54-2.02 1.61-2.13h0l.3-.02h2.24l2.24.01z"/></g><g class="D"><path d="M878.14 349.63c-2.13 0-3.94-1.48-4.33-3.57l-.63-3.64-1.27-7.62-1.23-7.3-1.41-8.37-1.04-6.22c-.07-.42-.19-.82-.49-1.13-.53-.56-1.18-.82-1.95-.6s-1.28.72-1.43 1.5l-.45 2.63-1.31 7.78-1.4 8.37-1.26 7.4-1.16 6.98a4.43 4.43 0 1 1-8.78-1.23l1.31-7.83 1.89-11.1 1.58-9.55a102.5 102.5 0 0 0 1.14-14.36 48.1 48.1 0 0 0-.72-9.09 46.4 46.4 0 0 0-4.13-12.41l-5.33-10.81-2.62-5.34c-.85-1.76.09-3.78 1.98-4.29 1.33-.36 2.77.22 3.45 1.43.51.92.95 1.88 1.42 2.83l6.41 13.01a10.9 10.9 0 0 0 10.95 6.06c4.09-.42 7.09-2.51 8.91-6.13l6.78-13.75c.31-.62.59-1.25.92-1.86.64-1.19 1.79-1.83 3.09-1.68 1.34.16 2.22.91 2.63 2.17.25.76.15 1.51-.2 2.22l-4.5 9.15-4.38 9.03a40.3 40.3 0 0 0-2.53 7.35 41.5 41.5 0 0 0-1.26 8.1c-.1 2.01-.1 4.02-.07 6.03a94 94 0 0 0 .93 11.49c.29 2.12.67 4.23 1.02 6.34l2.11 12.55 1.76 10.46c.43 2.62-1.67 4.99-4.39 4.99h0zm-11.86-69.28c-4.32-.03-7.77-3.45-7.74-7.67a7.7 7.7 0 0 1 7.84-7.57 7.7 7.7 0 0 1 7.66 7.7 7.7 7.7 0 0 1-7.75 7.55h0zm28.47-19.07c-1.04 0-1.85-.54-2.15-1.32-.33-.84-.13-1.75.53-2.34.14-.12.29-.23.45-.32l8.62-4.89a2.1 2.1 0 0 1 2.63.35c.88.89.82 2.3-.16 3.08-.32.26-.71.45-1.07.66l-7.8 4.43c-.38.21-.77.35-1.04.34h0zm-65.43 37.08c-.94-.01-1.74-.55-2.05-1.35-.32-.82-.13-1.71.52-2.29a3.3 3.3 0 0 1 .58-.41l8.28-4.71c.75-.43 1.5-.58 2.31-.16 1.3.67 1.57 2.35.52 3.36-.25.24-.55.42-.85.59l-7.99 4.54c-.44.25-.88.46-1.32.44h0zm76.13-2.11c0 1.53-1.66 2.56-3.07 1.9-.47-.22-.9-.5-1.35-.75l-7.38-4.18c-.52-.29-.91-.68-1.1-1.24-.3-.89-.05-1.65.62-2.27a2.1 2.1 0 0 1 2.37-.29l2.07 1.16 6.61 3.75c.76.43 1.2 1.05 1.22 1.93h0zm-67.63-34.97c-.29.01-.7-.15-1.09-.37l-6.9-3.92-1.62-.93a2.1 2.1 0 0 1-1.09-1.79c-.06-1.43 1.41-2.52 2.79-2.06a4 4 0 0 1 .7.32l8.28 4.7c.5.28.89.65 1.09 1.18.52 1.4-.5 2.84-2.17 2.86h0zm26.3-23.17v-4.73c0-.45.1-.86.33-1.25.5-.82 1.47-1.2 2.44-.95.82.21 1.5 1.04 1.56 1.92.01.09 0 .18 0 .27v9.57c0 .72-.24 1.32-.79 1.78-.67.56-1.45.65-2.23.32-.81-.34-1.24-1-1.31-1.87-.02-.32-.01-.65-.01-.98v-4.08zm19.96 65.15c.71.04 1.35.38 1.77 1.07l1.42 2.39.93 1.61c.66 1.28-.06 2.75-1.48 3.04a2.1 2.1 0 0 1-2.01-.64c-.07-.07-.12-.13-.17-.21l-2.48-4.24c-.72-1.38.38-3.02 2.02-3.02h0zm-39.99 5.94c.08-.26.12-.6.28-.87l2.41-4.09c.89-1.38 2.86-1.3 3.67.11a2 2 0 0 1 0 2.08l-2.33 3.95c-.47.77-1.2 1.13-2.11 1.02-.88-.11-1.48-.61-1.78-1.43-.08-.22-.09-.46-.14-.76h0zm44.42-67.98c-.12.34-.18.71-.35 1.01l-2.33 3.95c-.74 1.19-2.26 1.38-3.29.46-.72-.64-.92-1.71-.42-2.59l2.33-3.95c.53-.87 1.51-1.23 2.42-.97.97.28 1.57 1.08 1.64 2.08h0zM904 273.13h2.38c.92.03 1.72.65 1.97 1.49.38 1.27-.47 2.54-1.8 2.72a2.3 2.3 0 0 1-.33.02c-1.47 0-2.95.01-4.42-.01-.34 0-.7-.08-1.01-.22-.88-.38-1.38-1.32-1.22-2.22a2.1 2.1 0 0 1 1.96-1.77H904v-.01zm-57.79-34.08c.83.05 1.42.33 1.83.93.24.35.44.71.65 1.07l1.71 2.92a2.1 2.1 0 0 1-1.67 3.23c-.89.09-1.57-.32-2.03-1.06l-1.47-2.49-.83-1.41a2.1 2.1 0 0 1 1.25-3.08c.21-.06.43-.08.55-.1zm-17.66 38.31c-.77 0-1.55.03-2.32-.01-1.07-.05-1.87-.74-2.06-1.72-.24-1.2.63-2.36 1.87-2.49l.33-.02h4.48c1.03.01 1.79.56 2.09 1.48a2.1 2.1 0 0 1-1.67 2.71 4.6 4.6 0 0 1-.72.05h-1.99z"/></g></g><rect x="1" y="1" width="1138" height="638" rx="15" stroke="#0668e1" stroke-width="2"/><defs><filter id="F" x="-4.75" y="56.41" width="332.5" height="98.56" filterUnits="userSpaceOnUse" color-interpolation-filters="sRGB"><feFlood flood-opacity="0" result="A"/><feColorMatrix in="SourceAlpha" values="0 0 0 0 0 0 0 0 0 0 0 0 0 0 0 0 0 0 127 0" result="B"/><feOffset dy="1.78125"/><feGaussianBlur stdDeviation="2.38"/><feComposite in2="B" operator="out"/><feColorMatrix values="0 0 0 0 0 0 0 0 0 0 0 0 0 0 0 0 0 0 0.3 0"/><feBlend in2="A"/><feBlend in="SourceGraphic"/></filter><linearGradient id="G" x1="640.96" y1="414.14" x2="1772.43" y2="869.72" href="#M"><stop stop-color="#b1d4ff"/><stop offset=".04" stop-color="#a2cbfc"/><stop offset=".16" stop-color="#479aff"/><stop offset=".28" stop-color="#0072ff"/><stop offset=".38" stop-color="#0668e1"/></linearGradient><linearGradient id="H" x1="182.28" y1="95.38" x2="-200.17" y2="-40.95" href="#M"><stop stop-color="#b1d4ff"/><stop offset=".04" stop-color="#b8d8ff"/><stop offset=".16" stop-color="#479aff"/><stop offset=".28" stop-color="#0072ff"/><stop offset=".38" stop-color="#0668e1"/></linearGradient><linearGradient id="I" x1="814.53" y1="369.05" x2="1149.64" y2="624.32" href="#M"><stop offset=".38" stop-color="#7fb8ff"/><stop offset=".62" stop-color="#4095ff"/><stop offset=".85" stop-color="#0273ff"/><stop offset="1" stop-color="#0668e1"/></linearGradient><linearGradient id="J" x1="523.96" y1="-18.61" x2="-9.29" y2="43.69" href="#M"><stop offset=".38" stop-color="#7fb8ff"/><stop offset=".62" stop-color="#4095ff"/><stop offset=".85" stop-color="#0273ff"/><stop offset="1" stop-color="#0668e1"/></linearGradient><clipPath id="K"><rect width="1140" height="640" rx="16" class="B"/></clipPath><path id="L" d="M836.34 128.97c-1.29 0-2.33-1.04-2.33-2.33s1.05-2.33 2.33-2.33 2.33 1.05 2.33 2.33-1.05 2.33-2.33 2.33z"/><linearGradient id="M" gradientUnits="userSpaceOnUse"/></defs></svg>