<svg xmlns="http://www.w3.org/2000/svg" width="1140" height="640" fill="none" xmlns:v="https://vecta.io/nano"><style><![CDATA[.B{fill:#fff}.C{fill:#263238}.D{fill:#ffbf9d}.E{fill:#ffb18e}.F{fill:#455a64}.G{fill:#0668e1}.H{color-interpolation-filters:sRGB}]]></style><g clip-path="url(#H)"><rect width="1140" height="640" rx="16" class="B"/><mask id="A" maskUnits="userSpaceOnUse" x="0" y="0" width="1140" height="652"><path d="M1140 0H0v651.85h1140V0z" class="B"/></mask><g mask="url(#A)"><path d="M1145.4 106.35c-47.89 91.63-138.91 177.66-205.79 259.87-77.29 95-172.79 111.08-286.48 134.82-78.74 16.45-188.31 48.69-259.17 86.52-100.42 53.62-124.88 145.03-186.64 238.07-2.41 3.63-31.41 62.88-21.17 62.73l1014.16-15.55 5.31-834.01c-35.9 2.85-45.69 39.76-60.22 67.55z" fill="url(#D)"/><path d="M18.65 204.49c14.69-31.11 22.29-65.52 43.43-93.75 24.43-32.63 68.55-40.55 106.04-49.96 25.97-6.52 50.82-16.42 73.88-29.95 32.68-19.18 59.68-46.34 78.97-78.11.75-1.24 9.6-21.33 6.2-21.15L-9.92-49.68-.48 227.76c11.9-1.43 14.66-13.83 19.12-23.27z" fill="url(#E)"/><path d="M1209.59 220.96c-83.02 63.76-183.92 256.12-279.97 303.5-111.02 54.76-218.12 79.67-331.01 54.59-78.19-17.37-158.2-24.21-238.57-18.86-113.9 7.58-224.02 44.2-320.17 103.57-3.76 2.32-55.67 44.35-46.35 48.42l1133.96 371.6 154.97-726.45c-33.62-12.14-47.67-155.72-72.86-136.38z" fill="url(#F)"/><path d="M-20.2 178.92C6.01 155.91 35.33 89.76 66.23 71.9c35.72-20.64 70.78-31.27 108.88-25.42 26.38 4.05 53.14 4.57 79.75 1.02 37.71-5.02 73.52-19.62 104.2-41.46 1.2-.85 17.54-15.97 14.35-17.11l-385.29-98.58-35.54 244.86c11.45 3.3 19.28 50.71 27.23 43.73z" fill="url(#G)"/><g opacity=".2" class="B"><path d="M1083.89 485.93s-171.14 110.85-295.39 141c-92.2 22.37-149.09 0-244.62 0-92.22 0-155.75-4.76-236.14 0-113.95 6.75-224.07 42.57-320.19 101.2-3.76 2.3-55.64 43.95-46.32 48.08L1076 1155.86l154.32-725.04c-33.66-12.39-146.43 55.1-146.43 55.1z"/></g><g opacity=".2" class="B"><path d="M1187.56 578.83c-96.07 43-182.79 107.12-287.56 131.22-121.09 27.86-236.57-38.49-340.16-88.72-71.73-34.79-147.8-59.74-227.16-72.94-112.48-18.69-228.3-8.28-336.05 27.44-4.2 1.39-64.8 30.4-56.74 36.49l1011.46 620.92 326.38-671.01c-29.71-19.5-61.05 3.56-90.19 16.61l.02-.01z"/></g></g><path d="M122.61 222.16h19.93c3.9 0 7.28.58 10.16 1.74s5.09 2.88 6.65 5.15c1.58 2.27 2.37 5.08 2.37 8.42 0 2.9-.45 5.32-1.36 7.27s-2.17 3.56-3.79 4.84c-1.6 1.25-3.47 2.28-5.6 3.1l-4 2.26h-16.73l-.07-9.43h12.39a8 8 0 0 0 3.86-.84 5.4 5.4 0 0 0 2.3-2.37c.53-1.04.8-2.28.8-3.72 0-1.46-.27-2.71-.8-3.76a5.5 5.5 0 0 0-2.37-2.4c-1.02-.56-2.28-.83-3.79-.83h-7.72v41.23h-12.21v-50.65zm27.73 50.65l-11.2-22.4 12.94-.07 11.34 21.95v.52h-13.08zm36.43.7c-3.06 0-5.8-.47-8.21-1.43-2.41-.97-4.45-2.31-6.12-4-1.65-1.69-2.91-3.64-3.79-5.85a19.1 19.1 0 0 1-1.29-6.99v-1.32a24.5 24.5 0 0 1 1.15-7.65c.77-2.37 1.9-4.43 3.41-6.19a15.2 15.2 0 0 1 5.67-4.1 19.6 19.6 0 0 1 7.93-1.5 18.9 18.9 0 0 1 7.17 1.29 14.6 14.6 0 0 1 5.36 3.69c1.48 1.6 2.61 3.54 3.37 5.81.79 2.27 1.18 4.82 1.18 7.65v4.77h-30.75v-7.34h19.31v-.9c.02-1.25-.2-2.32-.66-3.2-.44-.88-1.09-1.55-1.95-2.02a6.5 6.5 0 0 0-3.13-.7 5.6 5.6 0 0 0-3.17.84c-.81.56-1.45 1.32-1.91 2.3a12.1 12.1 0 0 0-.94 3.31c-.19 1.25-.28 2.57-.28 3.97v1.32c0 1.39.19 2.66.56 3.79a8.6 8.6 0 0 0 1.67 2.92 7.9 7.9 0 0 0 2.64 1.84c1.04.44 2.23.66 3.55.66a13 13 0 0 0 4.73-.91c1.55-.6 2.89-1.6 4-2.99l5.32 6.33c-.76 1.09-1.85 2.15-3.27 3.17-1.39 1.02-3.06 1.86-5.01 2.5a21.3 21.3 0 0 1-6.54.94zm36.49-9.04a6 6 0 0 0 2.78-.59c.79-.42 1.38-1 1.77-1.74a5.4 5.4 0 0 0 .59-2.75h11.03c.02 2.83-.67 5.31-2.09 7.44a14.1 14.1 0 0 1-5.71 4.94c-2.39 1.16-5.09 1.74-8.11 1.74-2.95 0-5.52-.47-7.72-1.43-2.2-.97-4.05-2.32-5.53-4.04-1.46-1.74-2.56-3.77-3.31-6.09-.72-2.32-1.08-4.84-1.08-7.55v-.8c0-2.71.36-5.23 1.08-7.55.74-2.34 1.84-4.37 3.31-6.09a15 15 0 0 1 5.5-4.04c2.2-.97 4.77-1.46 7.69-1.46 3.13 0 5.89.59 8.28 1.77a13.4 13.4 0 0 1 5.67 5.15c1.37 2.25 2.04 4.98 2.02 8.18h-11.03a7.6 7.6 0 0 0-.52-3.06 4.7 4.7 0 0 0-1.74-2.16 4.9 4.9 0 0 0-2.96-.84 4.9 4.9 0 0 0-2.92.8c-.74.53-1.31 1.28-1.7 2.23-.37.93-.63 2-.77 3.2a40.4 40.4 0 0 0-.17 3.86v.8c0 1.39.06 2.7.17 3.93.14 1.21.41 2.27.8 3.2a5.1 5.1 0 0 0 1.71 2.16c.74.51 1.73.77 2.96.77zm33.02-19.97v28.32h-11.72v-37.64h10.96l.77 9.32zm11.13-9.6l-.21 10.89-1.88-.17c-.79-.07-1.45-.1-1.98-.1-1.37 0-2.55.16-3.55.49a6 6 0 0 0-2.44 1.39c-.63.6-1.09 1.37-1.39 2.3a10.6 10.6 0 0 0-.38 3.24l-2.12-1.39c0-2.53.24-4.82.73-6.89a18.7 18.7 0 0 1 2.16-5.39c.93-1.53 2.05-2.7 3.37-3.51 1.32-.84 2.81-1.25 4.45-1.25.58 0 1.15.03 1.7.1a8.5 8.5 0 0 1 1.53.31zm26.02 28.77v-28.49h11.76v37.64h-10.99l-.77-9.15zm1.11-7.65l3.06-.07c0 2.53-.3 4.87-.9 7.03-.6 2.13-1.5 3.99-2.68 5.57a12.2 12.2 0 0 1-4.31 3.69c-1.69.86-3.65 1.29-5.88 1.29a16.3 16.3 0 0 1-5.11-.76c-1.53-.53-2.85-1.36-3.97-2.47a11.7 11.7 0 0 1-2.61-4.35 20.1 20.1 0 0 1-.9-6.4v-24.35h11.72v24.42a6.6 6.6 0 0 0 .31 2.16 4.2 4.2 0 0 0 .91 1.53 3.9 3.9 0 0 0 1.46.91 7 7 0 0 0 2.05.28c1.76 0 3.14-.37 4.14-1.11a5.8 5.8 0 0 0 2.09-3.03c.42-1.28.63-2.71.63-4.31zm29.5-20.84v37.64h-11.76v-37.64h11.76zm-12.45-9.71c0-1.67.6-3.04 1.81-4.1s2.77-1.6 4.7-1.6 3.49.53 4.7 1.6 1.81 2.44 1.81 4.1-.6 3.04-1.81 4.11-2.77 1.6-4.7 1.6-3.49-.53-4.7-1.6-1.81-2.44-1.81-4.11zm39.52 9.71v8.14h-22.68v-8.14h22.68zm-17.92-9.36h11.72v34.72c0 1 .12 1.77.35 2.33.23.53.63.92 1.18 1.15.58.21 1.34.31 2.3.31.67 0 1.23-.01 1.67-.04a17.6 17.6 0 0 0 1.25-.17v8.38a19.2 19.2 0 0 1-3.13.73 20.7 20.7 0 0 1-3.48.28c-2.5 0-4.65-.39-6.44-1.18a8.4 8.4 0 0 1-4.04-3.72c-.93-1.69-1.39-3.9-1.39-6.61v-36.18zm40.81 47.7c-3.06 0-5.8-.47-8.21-1.43-2.41-.97-4.45-2.31-6.12-4-1.65-1.69-2.91-3.64-3.79-5.85a19.1 19.1 0 0 1-1.29-6.99v-1.32a24.5 24.5 0 0 1 1.15-7.65c.76-2.37 1.9-4.43 3.41-6.19a15.2 15.2 0 0 1 5.67-4.1 19.6 19.6 0 0 1 7.93-1.5 18.9 18.9 0 0 1 7.17 1.29 14.6 14.6 0 0 1 5.36 3.69c1.48 1.6 2.61 3.54 3.37 5.81.79 2.27 1.18 4.82 1.18 7.65v4.77h-30.75v-7.34h19.31v-.9c.02-1.25-.2-2.32-.66-3.2-.44-.88-1.09-1.55-1.95-2.02a6.5 6.5 0 0 0-3.13-.7 5.6 5.6 0 0 0-3.17.84c-.81.56-1.45 1.32-1.91 2.3a12.1 12.1 0 0 0-.94 3.31c-.19 1.25-.28 2.57-.28 3.97v1.32c0 1.39.19 2.66.56 3.79a8.6 8.6 0 0 0 1.67 2.92 7.9 7.9 0 0 0 2.64 1.84c1.04.44 2.23.66 3.55.66a13 13 0 0 0 4.73-.91c1.55-.6 2.89-1.6 4-2.99l5.32 6.33c-.76 1.09-1.85 2.15-3.27 3.17-1.39 1.02-3.06 1.86-5.01 2.5a21.3 21.3 0 0 1-6.54.94zm32.42-29.01v28.32H394.7v-37.64h10.96l.77 9.32zm11.13-9.6l-.21 10.89-1.88-.17c-.79-.07-1.45-.1-1.98-.1-1.37 0-2.55.16-3.55.49a6 6 0 0 0-2.44 1.39c-.63.6-1.09 1.37-1.39 2.3-.28.93-.41 2.01-.38 3.24l-2.12-1.39c0-2.53.24-4.82.73-6.89.51-2.09 1.23-3.89 2.16-5.39.93-1.53 2.05-2.7 3.38-3.51 1.32-.84 2.81-1.25 4.45-1.25.58 0 1.15.03 1.7.1a8.5 8.5 0 0 1 1.53.31zm-288.9 70.27h9.95l11.31 35.24 11.31-35.24h9.95l-17.22 50.65h-8.07l-17.22-50.65zm-6.05 0h10.3l1.91 38.83v11.83h-12.21v-50.65zm44.32 0h10.33v50.65h-12.25v-11.83l1.91-38.83zm16.14 32.22v-.73c0-2.76.39-5.3 1.18-7.62.79-2.34 1.95-4.37 3.48-6.09s3.42-3.05 5.67-4c2.25-.97 4.85-1.46 7.79-1.46 2.97 0 5.58.49 7.83 1.46 2.27.95 4.18 2.29 5.71 4s2.69 3.75 3.48 6.09c.79 2.32 1.18 4.86 1.18 7.62v.73c0 2.74-.39 5.28-1.18 7.62-.79 2.32-1.95 4.35-3.48 6.09-1.53 1.72-3.42 3.05-5.67 4s-4.85 1.43-7.79 1.43-5.56-.47-7.83-1.43-4.18-2.28-5.71-4c-1.53-1.74-2.69-3.77-3.48-6.09-.79-2.34-1.18-4.88-1.18-7.62zm11.72-.73v.73a23.7 23.7 0 0 0 .31 3.97c.21 1.23.56 2.31 1.04 3.24.49.91 1.15 1.61 1.98 2.12a5.9 5.9 0 0 0 3.13.77c1.23 0 2.25-.25 3.06-.77.84-.51 1.5-1.22 1.98-2.12a10.8 10.8 0 0 0 1.04-3.24 23.7 23.7 0 0 0 .31-3.97v-.73c0-1.37-.1-2.65-.31-3.86a10.8 10.8 0 0 0-1.04-3.24 5.6 5.6 0 0 0-1.98-2.23 5.7 5.7 0 0 0-3.13-.8c-1.23 0-2.26.27-3.1.8a5.7 5.7 0 0 0-1.95 2.23c-.49.93-.84 2.01-1.04 3.24-.21 1.21-.31 2.49-.31 3.86zm49.64-18.47v8.14h-22.68v-8.14h22.68zm-17.92-9.36h11.72v34.72c0 1 .12 1.77.35 2.33.23.53.63.92 1.18 1.15.58.21 1.34.31 2.3.31.67 0 1.23-.01 1.67-.04a17.7 17.7 0 0 0 1.25-.17v8.38a19.2 19.2 0 0 1-3.13.73 20.7 20.7 0 0 1-3.48.28c-2.5 0-4.65-.39-6.44-1.18a8.4 8.4 0 0 1-4.04-3.72c-.93-1.69-1.39-3.9-1.39-6.61v-36.18zm34.96 9.36v37.64h-11.76v-37.64h11.76zm-12.46-9.71c0-1.67.6-3.04 1.81-4.11s2.77-1.6 4.7-1.6 3.49.53 4.7 1.6 1.81 2.44 1.81 4.11-.6 3.04-1.81 4.1-2.77 1.6-4.7 1.6-3.49-.53-4.7-1.6-1.81-2.44-1.81-4.1zm33.26 39.31l7.41-29.61h12.35l-12.32 37.64h-7.31l-.14-8.04zm-4.38-29.61l7.31 29.61-.07 8.04h-7.34l-12.28-37.64h12.38zm46.62 28.18v-15.52a7.5 7.5 0 0 0-.45-2.75c-.3-.77-.78-1.36-1.43-1.77-.65-.44-1.52-.66-2.61-.66-.88 0-1.63.15-2.26.45a3.1 3.1 0 0 0-1.43 1.36c-.32.6-.49 1.37-.49 2.3h-11.72a10.4 10.4 0 0 1 1.15-4.84c.79-1.51 1.9-2.82 3.34-3.93 1.46-1.11 3.2-1.97 5.22-2.57a23.2 23.2 0 0 1 6.82-.94c2.99 0 5.66.5 8 1.5a12.5 12.5 0 0 1 5.6 4.49c1.37 1.97 2.05 4.45 2.05 7.44v15.41c0 2.46.14 4.32.42 5.6a12.9 12.9 0 0 0 1.18 3.31v.59h-11.76c-.56-1.16-.97-2.57-1.25-4.24a35 35 0 0 1-.38-5.22zm1.43-13.53l.07 6.26h-5.18a7.6 7.6 0 0 0-2.78.45 4.7 4.7 0 0 0-1.81 1.25c-.44.51-.76 1.09-.97 1.74a7.4 7.4 0 0 0-.28 2.05c0 .7.16 1.32.49 1.88.35.53.81.95 1.39 1.25s1.23.45 1.95.45a6.9 6.9 0 0 0 3.3-.73c.93-.51 1.64-1.12 2.12-1.84s.73-1.39.73-2.02l2.57 4.8c-.46.93-1 1.87-1.6 2.82a12.3 12.3 0 0 1-2.19 2.64c-.86.79-1.91 1.44-3.17 1.95a12.6 12.6 0 0 1-4.56.73 14.4 14.4 0 0 1-6.4-1.43c-1.93-.95-3.47-2.27-4.63-3.97a10.3 10.3 0 0 1-1.74-5.91c0-1.95.35-3.69 1.04-5.22a10.2 10.2 0 0 1 3.24-3.9c1.44-1.07 3.27-1.88 5.5-2.44s4.85-.84 7.86-.84h5.05zm36.7-14.65v8.14h-22.68v-8.14h22.68zm-17.92-9.36h11.72v34.72c0 1 .12 1.77.35 2.33.23.53.63.92 1.18 1.15.58.21 1.34.31 2.3.31a33 33 0 0 0 1.67-.04 17.7 17.7 0 0 0 1.25-.17v8.38a19.2 19.2 0 0 1-3.13.73 20.7 20.7 0 0 1-3.48.28c-2.5 0-4.65-.39-6.44-1.18a8.4 8.4 0 0 1-4.03-3.72c-.93-1.69-1.39-3.9-1.39-6.61v-36.18zm34.96 9.36v37.64h-11.76v-37.64h11.76zm-12.46-9.71c0-1.67.6-3.04 1.81-4.11s2.77-1.6 4.7-1.6 3.49.53 4.7 1.6 1.81 2.44 1.81 4.11-.6 3.04-1.81 4.1-2.77 1.6-4.7 1.6-3.49-.53-4.7-1.6-1.81-2.44-1.81-4.1zm18.23 28.91v-.73c0-2.76.39-5.3 1.18-7.62.79-2.34 1.95-4.37 3.48-6.09s3.42-3.05 5.67-4c2.25-.97 4.85-1.46 7.79-1.46 2.97 0 5.58.49 7.83 1.46 2.27.95 4.17 2.29 5.7 4s2.69 3.75 3.48 6.09c.79 2.32 1.18 4.86 1.18 7.62v.73c0 2.74-.39 5.28-1.18 7.62-.79 2.32-1.95 4.35-3.48 6.09-1.53 1.72-3.42 3.05-5.67 4s-4.85 1.43-7.79 1.43-5.55-.47-7.83-1.43-4.18-2.28-5.71-4c-1.53-1.74-2.69-3.77-3.48-6.09-.79-2.34-1.18-4.88-1.18-7.62zm11.73-.73v.73a23.7 23.7 0 0 0 .31 3.97 10.8 10.8 0 0 0 1.04 3.24c.49.91 1.15 1.61 1.98 2.12a5.9 5.9 0 0 0 3.13.77c1.23 0 2.25-.25 3.06-.77.83-.51 1.5-1.22 1.98-2.12.49-.93.83-2.01 1.04-3.24a23.8 23.8 0 0 0 .31-3.97v-.73c0-1.37-.1-2.65-.31-3.86-.21-1.23-.56-2.31-1.04-3.24a5.6 5.6 0 0 0-1.98-2.23 5.7 5.7 0 0 0-3.13-.8c-1.23 0-2.26.27-3.1.8a5.7 5.7 0 0 0-1.95 2.23 10.8 10.8 0 0 0-1.04 3.24c-.21 1.21-.31 2.49-.31 3.86zm41.33-10.44v29.61h-11.72v-37.64h10.99l.73 8.04zm-1.39 9.5l-2.75.07a26 26 0 0 1 1.04-7.69c.7-2.27 1.68-4.2 2.96-5.77a12.6 12.6 0 0 1 4.56-3.58c1.79-.83 3.77-1.25 5.95-1.25 1.74 0 3.33.25 4.77.76a9.1 9.1 0 0 1 3.76 2.47c1.07 1.14 1.88 2.64 2.44 4.52.58 1.86.87 4.15.87 6.89v23.69h-11.79v-23.73c0-1.51-.21-2.66-.63-3.44-.42-.81-1.02-1.37-1.81-1.67a8.1 8.1 0 0 0-2.89-.45c-1.21 0-2.23.23-3.06.7a5.4 5.4 0 0 0-2.02 1.95c-.49.81-.85 1.77-1.08 2.89-.21 1.11-.31 2.33-.31 3.65zm-308.48 73.45h9.95l11.31 35.24 11.31-35.24h9.95l-17.22 50.65h-8.07l-17.22-50.65zm-6.05 0h10.3l1.91 38.83v11.83h-12.21v-50.65zm44.32 0h10.33v50.65h-12.25v-11.83l1.91-38.83zm37.16 41.19v-15.52a7.5 7.5 0 0 0-.45-2.75c-.3-.77-.78-1.36-1.43-1.77-.65-.44-1.52-.66-2.61-.66-.88 0-1.63.15-2.26.45a3.1 3.1 0 0 0-1.43 1.36c-.32.6-.49 1.37-.49 2.3H183.7a10.4 10.4 0 0 1 1.15-4.84c.79-1.51 1.9-2.82 3.34-3.93 1.46-1.11 3.2-1.97 5.22-2.57a23.2 23.2 0 0 1 6.82-.94c2.99 0 5.66.5 8 1.5a12.5 12.5 0 0 1 5.6 4.49c1.37 1.97 2.05 4.45 2.05 7.44v15.41c0 2.46.14 4.32.42 5.6a12.9 12.9 0 0 0 1.18 3.31v.59h-11.76c-.56-1.16-.97-2.57-1.25-4.24a35 35 0 0 1-.38-5.22zm1.43-13.53l.07 6.26h-5.18a7.6 7.6 0 0 0-2.78.45 4.7 4.7 0 0 0-1.81 1.25c-.44.51-.76 1.09-.97 1.74a7.4 7.4 0 0 0-.28 2.05c0 .7.16 1.32.49 1.88.35.53.81.95 1.39 1.25s1.23.45 1.95.45a6.9 6.9 0 0 0 3.31-.73c.93-.51 1.64-1.12 2.12-1.84s.73-1.39.73-2.02l2.58 4.8a32 32 0 0 1-1.6 2.82c-.58.95-1.31 1.83-2.19 2.64-.86.79-1.91 1.44-3.17 1.95a12.6 12.6 0 0 1-4.56.73 14.4 14.4 0 0 1-6.4-1.43c-1.93-.95-3.47-2.27-4.63-3.97a10.3 10.3 0 0 1-1.74-5.91c0-1.95.35-3.69 1.04-5.22a10.2 10.2 0 0 1 3.24-3.9c1.44-1.07 3.27-1.88 5.5-2.44s4.85-.84 7.86-.84h5.04zm38.51 14.37v-44.81h11.79v53.44h-10.58l-1.22-8.63zm-23.1-9.74v-.73c0-2.85.31-5.45.94-7.79.63-2.37 1.55-4.4 2.78-6.09 1.23-1.72 2.76-3.04 4.59-3.97s3.94-1.39 6.33-1.39c2.13 0 4 .5 5.6 1.5 1.6.97 2.97 2.34 4.1 4.1s2.06 3.83 2.78 6.19c.72 2.34 1.26 4.87 1.64 7.58v.87c-.37 2.55-.92 4.96-1.64 7.24-.72 2.25-1.65 4.24-2.78 5.98s-2.52 3.11-4.14 4.11c-1.6.97-3.48 1.46-5.64 1.46-2.39 0-4.5-.47-6.33-1.43a13 13 0 0 1-4.56-4c-1.21-1.72-2.12-3.73-2.75-6.05s-.94-4.85-.94-7.59zm11.73-.73v.73c0 1.42.09 2.73.28 3.93s.5 2.27.94 3.2c.46.91 1.07 1.61 1.81 2.12.77.51 1.71.77 2.82.77a6.1 6.1 0 0 0 3.72-1.08c1-.72 1.73-1.74 2.19-3.06a12.1 12.1 0 0 0 .63-4.66v-2.75a16.6 16.6 0 0 0-.31-4.04 8 8 0 0 0-1.22-2.96c-.53-.79-1.22-1.38-2.05-1.77-.81-.42-1.78-.63-2.89-.63a4.9 4.9 0 0 0-2.78.77c-.74.51-1.34 1.23-1.81 2.16-.46.9-.8 1.98-1.01 3.24-.21 1.23-.31 2.57-.31 4.04zm48.05 19.79c-3.06 0-5.8-.47-8.21-1.43-2.41-.97-4.45-2.31-6.12-4-1.65-1.69-2.91-3.64-3.79-5.85a19.1 19.1 0 0 1-1.29-6.99v-1.32c0-2.76.38-5.31 1.15-7.65.77-2.37 1.9-4.43 3.41-6.19a15.2 15.2 0 0 1 5.67-4.1 19.6 19.6 0 0 1 7.93-1.5 18.9 18.9 0 0 1 7.17 1.29 14.6 14.6 0 0 1 5.36 3.69c1.48 1.6 2.61 3.54 3.37 5.81.79 2.27 1.18 4.82 1.18 7.65v4.77h-30.75v-7.34h19.31v-.9c.02-1.25-.2-2.32-.66-3.2-.44-.88-1.09-1.55-1.95-2.02a6.5 6.5 0 0 0-3.13-.7 5.6 5.6 0 0 0-3.17.83c-.81.56-1.45 1.32-1.91 2.3-.44.95-.75 2.05-.94 3.31s-.28 2.57-.28 3.97v1.32c0 1.39.19 2.65.56 3.79a8.6 8.6 0 0 0 1.67 2.92 7.9 7.9 0 0 0 2.64 1.84c1.04.44 2.23.66 3.55.66a13 13 0 0 0 4.73-.91c1.55-.6 2.89-1.6 4-2.99l5.32 6.33c-.77 1.09-1.86 2.15-3.27 3.17-1.39 1.02-3.06 1.86-5.01 2.5a21.3 21.3 0 0 1-6.54.94zm79.56-12.44l-2.04 11.74h-32.83l2.04-11.74h32.83zm-18.52-51.58l-11 63.32h-14.87l10.96-63.32h14.92zm18.87 25.13l-1.96 11.35h-28.61l2-11.35h28.57zm8.7-25.13l-2.04 11.78H334.3l2.09-11.78h32.92zm29.57 14.05l-23.31 49.27h-16.48l33.57-63.32h10.52l-4.31 14.05zm4 49.27l-6.44-50.79.35-12.52h9.91l11.7 63.32h-15.53zm3.39-23.61l-2.09 11.78h-31.62l2.09-11.78h31.62zm51.45 6.48c.26-1.36.16-2.52-.3-3.48a6.2 6.2 0 0 0-2-2.44 13 13 0 0 0-3-1.7 70.6 70.6 0 0 0-3.22-1.35c-2.26-.9-4.49-1.91-6.7-3.04a31.3 31.3 0 0 1-6-4.09c-1.8-1.57-3.2-3.39-4.22-5.48-.99-2.09-1.41-4.54-1.26-7.35.2-3.22 1.12-5.99 2.74-8.31a19.1 19.1 0 0 1 6.22-5.65 29.2 29.2 0 0 1 8.22-3.22c2.96-.7 5.84-1.01 8.65-.96 4 .06 7.57.87 10.7 2.44a17.8 17.8 0 0 1 7.44 6.74c1.8 2.9 2.67 6.41 2.61 10.52h-14.74c.06-1.62-.16-3.03-.65-4.22-.46-1.22-1.23-2.16-2.31-2.83a7.8 7.8 0 0 0-4.17-1.09 12.2 12.2 0 0 0-4.26.69 9.7 9.7 0 0 0-3.7 2.18 6.8 6.8 0 0 0-2 3.83c-.2 1.19-.01 2.23.56 3.13a7.8 7.8 0 0 0 2.39 2.26 21.5 21.5 0 0 0 3.18 1.57l2.96 1.13a50.5 50.5 0 0 1 6.83 3.18c2.2 1.19 4.15 2.59 5.83 4.22 1.71 1.62 3.02 3.52 3.91 5.7.93 2.15 1.3 4.64 1.13 7.48-.23 3.28-1.1 6.07-2.61 8.39a18.1 18.1 0 0 1-5.83 5.65 26.6 26.6 0 0 1-7.83 3.18c-2.84.67-5.73.99-8.65.96a31.2 31.2 0 0 1-9.18-1.48 22.4 22.4 0 0 1-7.44-4.13 18.6 18.6 0 0 1-4.91-6.7c-1.16-2.67-1.71-5.73-1.65-9.18l14.92.04c-.09 1.62.02 3.06.31 4.31a7.6 7.6 0 0 0 1.56 3.09c.75.81 1.73 1.44 2.91 1.87a13.4 13.4 0 0 0 4.3.61c1.42 0 2.78-.22 4.09-.65 1.33-.46 2.46-1.17 3.39-2.13s1.52-2.19 1.78-3.7zm41.36-46.18l6.52 27.4 16.05-27.4h16.7l-27.27 41.27-3.78 22.05h-15.18l4.09-23.48-12.7-39.79 15.57-.04zm58.75 0l-9.31 43.27h-11.65l5.7-43.27h15.26zm-25.48 57.01c-.06-2.26.7-4.1 2.26-5.52a8.2 8.2 0 0 1 5.65-2.13c2.09-.03 3.9.62 5.44 1.96 1.57 1.31 2.38 3.03 2.44 5.18.03 2.23-.74 4.07-2.3 5.52-1.57 1.42-3.44 2.13-5.61 2.13a8.1 8.1 0 0 1-5.48-1.91c-1.54-1.3-2.33-3.04-2.39-5.22z" fill="#5b5b5b"/><g filter="url(#B)"><path d="M323 71.25a11.9 11.9 0 0 0-11.87-11.87H0v89.06h311.13A11.9 11.9 0 0 0 323 136.56V71.25z" fill="#3886e7"/><path d="M49.82 90.8v25.33h-6.11V90.8h6.11zm7.62 0v4.71H36.27V90.8h21.17zm8.05-1.39v26.72h-5.86V89.41h5.86zm-.7 16.66l-1.37.03a13 13 0 0 1 .49-3.65c.32-1.11.79-2.08 1.39-2.91s1.33-1.46 2.17-1.91a5.9 5.9 0 0 1 2.82-.68c.93 0 1.77.13 2.54.4a4.9 4.9 0 0 1 2 1.29 5.8 5.8 0 0 1 1.3 2.31 11.2 11.2 0 0 1 .47 3.48v11.69h-5.9V104.4c0-.77-.11-1.36-.33-1.77-.21-.43-.51-.72-.9-.89-.39-.17-.88-.26-1.44-.26a3.5 3.5 0 0 0-1.67.35c-.43.23-.76.56-.99.97a4.3 4.3 0 0 0-.45 1.44 12.7 12.7 0 0 0-.12 1.83zm24.18 10.4c-1.53 0-2.9-.24-4.11-.71-1.21-.49-2.23-1.15-3.06-2-.82-.85-1.46-1.82-1.9-2.92-.43-1.1-.64-2.27-.64-3.5v-.66c0-1.38.19-2.66.57-3.83.38-1.18.95-2.21 1.7-3.1a7.6 7.6 0 0 1 2.84-2.05 9.8 9.8 0 0 1 3.97-.75c1.33 0 2.53.21 3.58.64a7.3 7.3 0 0 1 2.68 1.84c.74.8 1.3 1.77 1.69 2.9.39 1.14.59 2.41.59 3.83v2.38H81.51v-3.67h9.65v-.45c.01-.63-.1-1.16-.33-1.6-.22-.44-.55-.78-.97-1.01s-.95-.35-1.57-.35a2.8 2.8 0 0 0-1.58.42c-.41.28-.72.66-.96 1.15a6 6 0 0 0-.47 1.65c-.09.63-.14 1.29-.14 1.98v.66a6.1 6.1 0 0 0 .28 1.9 4.3 4.3 0 0 0 .83 1.46c.37.39.81.7 1.32.92.52.22 1.11.33 1.77.33a6.5 6.5 0 0 0 2.37-.45c.78-.3 1.44-.8 2-1.5l2.66 3.17a6.9 6.9 0 0 1-1.64 1.58c-.7.51-1.53.93-2.5 1.25-.97.31-2.06.47-3.27.47zm33.85-8.92h6.09a9.2 9.2 0 0 1-1.43 4.66 8.8 8.8 0 0 1-3.62 3.15c-1.53.74-3.34 1.11-5.43 1.11a11.5 11.5 0 0 1-4.54-.85c-1.32-.57-2.45-1.39-3.37-2.45-.92-1.07-1.62-2.36-2.11-3.88-.48-1.52-.71-3.23-.71-5.13v-1.37a16.4 16.4 0 0 1 .75-5.13 11.3 11.3 0 0 1 2.16-3.9c.94-1.08 2.06-1.9 3.38-2.47s2.77-.85 4.37-.85c2.2 0 4.06.39 5.58 1.18a8.7 8.7 0 0 1 3.53 3.25 10.6 10.6 0 0 1 1.48 4.68h-6.09a5.9 5.9 0 0 0-.49-2.38 3 3 0 0 0-1.43-1.46c-.65-.32-1.51-.49-2.59-.49-.75 0-1.41.14-1.97.42s-1.02.72-1.39 1.32a7 7 0 0 0-.83 2.35c-.17.95-.26 2.1-.26 3.44v1.41c0 1.34.08 2.49.24 3.44s.42 1.73.78 2.33.82 1.05 1.39 1.34a4.9 4.9 0 0 0 2.12.42c.93 0 1.71-.14 2.35-.43a3.3 3.3 0 0 0 1.48-1.36 5 5 0 0 0 .56-2.35zm7.97-.64v-.37c0-1.38.2-2.65.59-3.81.39-1.17.97-2.19 1.74-3.04a7.8 7.8 0 0 1 2.84-2c1.13-.49 2.42-.73 3.9-.73 1.48 0 2.79.24 3.91.73a7.8 7.8 0 0 1 2.85 2c.77.86 1.34 1.87 1.74 3.04.39 1.16.59 2.43.59 3.81v.37c0 1.37-.2 2.64-.59 3.81-.39 1.16-.97 2.17-1.74 3.04-.77.86-1.71 1.53-2.84 2s-2.42.71-3.9.71-2.78-.24-3.91-.71a7.8 7.8 0 0 1-2.85-2c-.76-.87-1.34-1.88-1.74-3.04-.39-1.17-.59-2.44-.59-3.81zm5.86-.37v.37a11.8 11.8 0 0 0 .16 1.98 5.4 5.4 0 0 0 .52 1.62c.24.45.57.81.99 1.06s.94.38 1.57.38c.61 0 1.13-.13 1.53-.38.42-.26.75-.61.99-1.06a5.4 5.4 0 0 0 .52-1.62 11.9 11.9 0 0 0 .16-1.98v-.37c0-.68-.05-1.33-.16-1.93a5.4 5.4 0 0 0-.52-1.62 2.8 2.8 0 0 0-.99-1.11c-.42-.27-.94-.4-1.57-.4-.61 0-1.13.13-1.55.4-.41.27-.73.64-.97 1.11a5.4 5.4 0 0 0-.52 1.62c-.11.6-.16 1.25-.16 1.93zm20.67-5.22v14.8h-5.86V97.3h5.5l.37 4.02zm-.7 4.75l-1.37.03a13 13 0 0 1 .52-3.84 8.5 8.5 0 0 1 1.48-2.89 6.3 6.3 0 0 1 2.28-1.79c.89-.42 1.88-.63 2.97-.63a7.1 7.1 0 0 1 2.38.38c.73.26 1.36.67 1.88 1.24.53.57.94 1.32 1.22 2.26a11.7 11.7 0 0 1 .44 3.44v11.85h-5.9v-11.86c0-.75-.1-1.33-.31-1.72-.21-.41-.51-.68-.91-.83s-.88-.23-1.44-.23c-.6 0-1.11.12-1.53.35a2.7 2.7 0 0 0-1.01.97 4.6 4.6 0 0 0-.54 1.44c-.1.56-.16 1.17-.16 1.83zm23 5.88a3 3 0 0 0 1.39-.3c.39-.21.69-.5.89-.87a2.7 2.7 0 0 0 .29-1.37h5.52a6.5 6.5 0 0 1-1.04 3.72c-.7 1.06-1.65 1.88-2.85 2.47-1.19.58-2.54.87-4.05.87a9.7 9.7 0 0 1-3.86-.71c-1.1-.49-2.02-1.16-2.76-2.02a8.9 8.9 0 0 1-1.65-3.04 12.7 12.7 0 0 1-.54-3.77v-.4a12.7 12.7 0 0 1 .54-3.77c.37-1.17.92-2.19 1.65-3.04a7.5 7.5 0 0 1 2.75-2.02c1.1-.49 2.38-.73 3.84-.73a9.2 9.2 0 0 1 4.14.89 6.7 6.7 0 0 1 2.84 2.57c.68 1.13 1.02 2.49 1.01 4.09h-5.52a3.8 3.8 0 0 0-.26-1.53c-.19-.45-.48-.81-.87-1.08-.38-.28-.88-.42-1.48-.42s-1.09.13-1.46.4-.66.64-.85 1.11c-.19.46-.31 1-.38 1.6l-.09 1.93v.4l.09 1.97a5.8 5.8 0 0 0 .4 1.6c.2.45.48.81.85 1.08.37.25.86.38 1.48.38zm16.79-22.54v26.72h-5.88V89.41h5.88zm14.61 22.14V97.3h5.88v18.82h-5.5l-.38-4.58zm.56-3.83l1.53-.03a13 13 0 0 1-.45 3.51 8.4 8.4 0 0 1-1.34 2.78 6.1 6.1 0 0 1-2.16 1.84c-.85.43-1.83.64-2.94.64-.93 0-1.78-.13-2.56-.38-.77-.27-1.43-.68-1.98-1.23-.56-.57-.99-1.29-1.31-2.17-.3-.89-.45-1.96-.45-3.2V97.3h5.86v12.21a3.3 3.3 0 0 0 .16 1.08 2.1 2.1 0 0 0 .45.77c.2.2.44.35.73.45a3.5 3.5 0 0 0 1.03.14 3.4 3.4 0 0 0 2.07-.56 2.9 2.9 0 0 0 1.04-1.51c.21-.64.31-1.36.31-2.16zm18.42 3.11c0-.33-.11-.6-.33-.84-.21-.24-.58-.46-1.11-.66-.53-.21-1.28-.42-2.24-.63-.92-.2-1.78-.46-2.59-.78-.8-.33-1.5-.72-2.1-1.18s-1.08-1.02-1.43-1.65c-.34-.64-.5-1.37-.5-2.19a5.2 5.2 0 0 1 .5-2.26 5.6 5.6 0 0 1 1.51-1.9c.67-.56 1.49-.99 2.45-1.3.96-.32 2.06-.49 3.29-.49 1.69 0 3.15.26 4.38.78 1.23.51 2.17 1.23 2.84 2.16.67.92 1.01 1.98 1.01 3.18h-5.86c0-.48-.08-.88-.24-1.22-.15-.34-.4-.59-.75-.77-.35-.19-.81-.28-1.39-.28a2.7 2.7 0 0 0-1.11.23 2 2 0 0 0-.78.63c-.2.27-.3.58-.3.94 0 .26.06.49.17.7.13.2.32.38.57.56.25.16.58.31.97.45.39.13.87.24 1.43.35 1.26.23 2.45.56 3.55.99a6.7 6.7 0 0 1 2.68 1.83c.69.79 1.04 1.85 1.04 3.18a4.8 4.8 0 0 1-.57 2.31c-.38.69-.93 1.31-1.65 1.84-.72.52-1.58.93-2.59 1.22s-2.14.44-3.41.44c-1.8 0-3.32-.32-4.56-.96-1.24-.65-2.18-1.46-2.82-2.44-.63-.99-.94-1.98-.94-2.99h5.46c.02.58.16 1.06.42 1.43.27.37.62.64 1.06.82s.95.26 1.53.26c.53 0 .97-.08 1.32-.23.36-.15.63-.35.82-.61.19-.27.28-.57.28-.92zm14.59-13.53v18.82h-5.88V97.3h5.88zm-6.23-4.85c0-.84.3-1.52.9-2.05s1.39-.8 2.35-.8 1.75.27 2.35.8.91 1.22.91 2.05-.3 1.52-.91 2.05-1.39.8-2.35.8-1.74-.27-2.35-.8-.9-1.22-.9-2.05zm9.12 14.46v-.37c0-1.38.2-2.65.59-3.81.4-1.17.97-2.19 1.74-3.04a7.8 7.8 0 0 1 2.84-2c1.13-.49 2.42-.73 3.9-.73 1.48 0 2.79.24 3.91.73a7.8 7.8 0 0 1 2.85 2c.77.86 1.35 1.87 1.74 3.04.39 1.16.59 2.43.59 3.81v.37c0 1.37-.2 2.64-.59 3.81-.39 1.16-.97 2.17-1.74 3.04a7.8 7.8 0 0 1-2.83 2c-1.12.47-2.42.71-3.9.71s-2.78-.24-3.91-.71a7.8 7.8 0 0 1-2.85-2c-.77-.87-1.34-1.88-1.74-3.04-.39-1.17-.59-2.44-.59-3.81zm5.86-.37v.37a11.8 11.8 0 0 0 .16 1.98 5.4 5.4 0 0 0 .52 1.62c.24.45.57.81.99 1.06s.94.38 1.57.38c.61 0 1.12-.13 1.53-.38.42-.26.75-.61.99-1.06.24-.46.42-1 .52-1.62a11.9 11.9 0 0 0 .16-1.98v-.37c0-.68-.05-1.33-.16-1.93-.1-.61-.28-1.15-.52-1.62a2.8 2.8 0 0 0-.99-1.11c-.42-.27-.94-.4-1.57-.4-.61 0-1.13.13-1.55.4-.41.27-.73.64-.97 1.11a5.4 5.4 0 0 0-.52 1.62c-.1.6-.16 1.25-.16 1.93zm20.66-5.22v14.8h-5.86V97.3h5.5l.36 4.02zm-.69 4.75l-1.37.03a13 13 0 0 1 .52-3.84 8.5 8.5 0 0 1 1.48-2.89 6.3 6.3 0 0 1 2.28-1.79c.89-.42 1.88-.63 2.97-.63a7.1 7.1 0 0 1 2.38.38c.73.26 1.36.67 1.88 1.24.53.57.94 1.32 1.22 2.26a11.7 11.7 0 0 1 .44 3.44v11.85h-5.9v-11.86c0-.75-.1-1.33-.31-1.72-.21-.41-.51-.68-.9-.83s-.88-.23-1.44-.23c-.6 0-1.11.12-1.53.35s-.75.56-1.01.97c-.24.41-.42.89-.54 1.44-.1.56-.16 1.17-.16 1.83z" class="B"/></g><path d="M934.78 487.11H793.7c-12.35 0-22.36-9.03-22.36-20.16V175.43c0-11.14 10.01-20.16 22.36-20.16h141.08c12.35 0 22.35 9.03 22.35 20.16v291.52c0 11.14-10.01 20.16-22.35 20.16z" class="F"/><path d="M774.27 466.79V175.59c0-9.77 8.78-17.68 19.6-17.68H934.6c10.83 0 19.6 7.92 19.6 17.68v291.21c0 9.77-8.78 17.68-19.6 17.68H793.87c-10.83 0-19.6-7.92-19.6-17.68z" class="C"/><g class="F"><path d="M850.9 168.37c-1.14 0-2.07-.84-2.07-1.86s.93-1.86 2.07-1.86h26.57c1.14 0 2.07.84 2.07 1.86s-.93 1.86-2.07 1.86H850.9zm-14.25 0c-1.14 0-2.07-.84-2.07-1.86s.93-1.86 2.07-1.86 2.06.84 2.06 1.86-.93 1.86-2.06 1.86z"/><use href="#I"/><path d="M891.83 168.37c-1.14 0-2.07-.84-2.07-1.86s.93-1.86 2.07-1.86 2.07.84 2.07 1.86-.93 1.86-2.07 1.86zm-7.61 0c-1.14 0-2.07-.84-2.07-1.86s.93-1.86 2.07-1.86 2.07.84 2.07 1.86-.93 1.86-2.07 1.86z"/></g><path d="M934.26 162.29l-29.33-.61c-2.4 0-4.51 1.44-5.18 3.54l-2.02 6.35c-.75 2.35-3.12 3.97-5.8 3.97h-54.85c-2.69 0-5.06-1.62-5.81-3.97l-2.02-6.35c-.67-2.1-2.78-3.54-5.18-3.54h-24.76c-10.89 0-19.71 8.03-19.71 17.94V469.1c0 6.7 8.61 12.13 15.57 12.13h137.62c8.91 0 16.33-5.89 16.33-14.72l.3-291.15c0-6.35-8.16-13.06-15.14-13.06z" class="B"/><g fill="#fafafa"><path d="M945.41 171.83a19.8 19.8 0 0 0-14.17-5.92h-29.11l-3.69 13.65h-65.47l-8.68-16.8h-25.77c-8.94 0-18.93 8.97-18.93 16.15v232.33l.51.06c16.72 1.81 32.99-8.68 42.17-22.76s12.42-31.16 14.04-47.88 1.82-33.68 5.75-50.01a113.2 113.2 0 0 1 47.65-67.52c11.67-7.62 24.73-13.05 35.86-21.44 9.79-7.38 18.21-17.94 19.85-29.85zm3.13 304.49l-.23-98.94a85.6 85.6 0 0 0-64.4 41.61 85.6 85.6 0 0 0-6.7 69.26l59.76-.11c7.89 0 11.57-7.09 11.57-11.81z"/></g><g class="F"><path d="M957.13 227.39h.28c.52 0 .94.38.94.85v36.44c0 .47-.42.85-.94.85h-.28v-38.14zM771.34 250.9h-.32c-.52 0-.94.38-.94.85v22.45c0 .47.42.85.94.85h.32V250.9zm0-31.55h-.32c-.52 0-.94.38-.94.85v22.45c0 .47.42.85.94.85h.32v-24.15zm0-23.69h-.25c-.46 0-.84.34-.84.75v9.72c0 .42.37.75.84.75h.25v-11.23z"/></g><g class="C"><path d="M909.65 170.93h-1.27v1.61h1.27v-1.61zm2.08-.71h-1.28v2.33h1.28v-2.33zm2.07-.54h-1.28v2.87h1.28v-2.87zm2.08-1.05h-1.27v3.91h1.27v-3.91zm18.84 4h-6.4c-.25 0-.46-.19-.46-.41v-2.87c0-.23.2-.41.45-.41h6.41c.03 0 .06.01.08.03s.03.05.03.07v.95h.69c.06 0 .12.05.12.11v1.38c0 .06-.05.11-.12.11h-.69v.95c0 .06-.05.11-.12.11zm-.12-3.49h-6.29c-.12 0-.22.09-.22.2v2.87c0 .11.1.2.23.2h6.29v-.95c0-.06.05-.11.12-.11h.69v-1.17h-.69c-.07 0-.12-.05-.12-.1v-.95h0zm-5.99 2.81v-2.33h5.47v1.05.23 1.05h-5.47zm-6.62.46c0-.23-.21-.42-.47-.42s-.47.19-.47.42.21.42.47.42.47-.19.47-.42zm-2.07-1.02l.6.54a1.5 1.5 0 0 1 1-.37 1.5 1.5 0 0 1 1 .37l.6-.54c-.41-.37-.97-.6-1.6-.6s-1.19.23-1.6.6z"/><path d="M921.52 169.59c-.99 0-1.89.36-2.54.95l.6.54a2.9 2.9 0 0 1 1.94-.73 2.9 2.9 0 0 1 1.94.73l.6-.54a3.8 3.8 0 0 0-2.54-.95z"/><path d="M918.01 169.67l.6.54c.75-.67 1.78-1.09 2.91-1.09s2.17.42 2.91 1.09l.6-.54c-.9-.81-2.14-1.31-3.51-1.31s-2.61.5-3.51 1.31z"/></g><path d="M904.63 292.76c4.72-10.46-.86-22.38-12.45-26.64s-24.82.77-29.53 11.23.86 22.38 12.45 26.64 24.81-.78 29.53-11.23z" fill="#f5f5f5"/><path d="M832.61 161.08c-4.85.68-9.99-2.38-11.66-6.98-.51-1.38-.72-2.93-.25-4.32s1.73-2.58 3.21-2.64a8.9 8.9 0 0 1-3.82-5.82c-.37-2.36.48-4.92 2.34-6.42a5.8 5.8 0 0 1 6.67-.41 6.9 6.9 0 0 1 3.86-6.2l10.51 2.42-10.87 30.38.01-.01z" class="C"/><path d="M846.55 256.89l1.87-16.94s-22-3.59-22.08-25.56c-.05-10.61 1.65-32.47 3.4-52.23a41 41 0 0 1 41.2-37.31h2.13c22.9 1.53 34.4 21.79 32.24 44.57l-9.53 83.66s-3.16 5.39-5.94 8.19c-6.7 6.75-22.35 9.72-22.35 9.72s-19.12-7.66-20.92-14.1-.01.01-.01.01z" class="D"/><path d="M848.42 239.95s13.86 1.27 28.76-5.85c0 0-7.42 13.56-29.38 11.4l.62-5.54z" class="E"/><g class="C"><path d="M855.16 198.77c.01-.2-2.08-.57-5.48-1.04-.87-.1-1.68-.27-1.82-.86-.2-.63.17-1.56.59-2.54l2.61-6.55c3.63-9.31 6.25-16.98 5.88-17.12-.38-.14-3.63 7.3-7.24 16.61l-2.5 6.58c-.33.98-.9 2.09-.47 3.38.22.64.85 1.12 1.41 1.27.56.17 1.04.19 1.46.21 3.43.21 5.56.25 5.57.05h-.01z"/><use href="#J"/><path d="M867.64 173.83c.38.41 2.79-1.32 6.16-1.3 3.38-.01 5.84 1.74 6.22 1.33.19-.19-.21-.93-1.29-1.72-1.05-.79-2.87-1.57-4.98-1.57a8.3 8.3 0 0 0-4.91 1.54c-1.04.79-1.4 1.53-1.21 1.7h.01zm-28.68 12.03c-.07 1.66 1.27 3.09 3.01 3.19 1.73.11 3.19-1.15 3.27-2.8s-1.27-3.09-3.01-3.19c-1.73-.11-3.19 1.15-3.27 2.8zm-4.57-12.92c.38.41 2.79-1.32 6.16-1.3 3.38-.01 5.86 1.74 6.21 1.33.19-.19-.21-.93-1.29-1.72-1.05-.79-2.87-1.57-4.98-1.57s-3.89.75-4.91 1.54c-1.05.79-1.4 1.53-1.21 1.7h.01z"/></g><path d="M901.59 190.77c.16-3.38 3.12-6.04 6.5-5.69 4.1.42 8.65 2.79 8.32 11.25-.61 15.02-15.58 11.31-15.6 10.88a3382.5 3382.5 0 0 1 .78-16.44z" class="D"/><path d="M904.3 201.69c.07-.05.26.2.69.42.42.21 1.16.38 1.96.12 1.61-.52 3.06-2.99 3.23-5.68a8.7 8.7 0 0 0-.58-3.78c-.42-1.11-1.1-1.91-1.89-2.09-.79-.21-1.37.23-1.57.65-.22.41-.14.72-.21.74-.05.04-.31-.26-.16-.88.07-.3.26-.64.63-.91.37-.28.9-.41 1.46-.32 1.15.12 2.15 1.23 2.65 2.43a9 9 0 0 1 .74 4.22c-.22 3.03-1.88 5.79-4.09 6.34a2.8 2.8 0 0 1-2.38-.49c-.45-.4-.52-.73-.46-.75l-.02-.02z" class="E"/><path d="M852.56 149.48s-.07 0-.11.01l-.27.01.38-.03z" class="G"/><g class="C"><path d="M918.7 164.13c-.26-1.35-1.13-2.5-2.26-3.25a6.9 6.9 0 0 0 1.6-2.7c.87-2.85-.31-6.2-2.77-7.88 2.65-2.47 3.79-6.44 2.85-9.93a10.3 10.3 0 0 0-7.45-7.18 13.2 13.2 0 0 0-5.86-11.56 13.3 13.3 0 0 0-12.96-.72 14.5 14.5 0 0 0-19.6-6.71c-4.43-3.21-9.17-6.53-14.64-6.92-5.46-.38-11.6 3.57-11.4 9.03-3.9-1.09-8.06-1.63-11.98-.67-3.94.96-7.6 3.62-8.97 7.41-1.39 3.79.06 8.63 3.68 10.45-3.44 3.49-3.6 9.68-.35 13.34a9.2 9.2 0 0 0 3.45 2.38 22.5 22.5 0 0 0-.06 2.85s.42-.98 1.16-2.47c2.96.83 6.33.37 8.76-1.52 2.72 3.01 7.25 4.25 11.13 3.04s6.91-4.79 7.43-8.82a9.3 9.3 0 0 0 8.24 2.37c2.91-.62 5.46-2.77 6.55-5.53 3.21 3.69 8.74 5.18 13.36 3.57a10.6 10.6 0 0 0 3.69 7.6c-.21 2.51-.63 5.35-.47 8.88 1.83 39.53 8.98 50.76 11.18 32.17.24-1.98 5.61-3.55 6.74-11.55.84-.14 1.67-.37 2.45-.74a6.7 6.7 0 0 0 3.55-3.93 5 5 0 0 0-1.2-5.03c2.69-.46 4.69-3.36 4.18-6.03l-.01.03zm-53.26 39.19c-.52-.04-.58 3.46-3.62 5.9-3.02 2.45-6.76 2.01-6.78 2.5-.05.22.82.69 2.4.75a8.8 8.8 0 0 0 5.67-1.89 7.6 7.6 0 0 0 2.8-4.95c.15-1.46-.22-2.33-.47-2.31z"/></g><path d="M927.81 259.79c1.11.74 7.07-.16 15.93 6.05s44.07 60.32 44.07 60.32l-.15-19.6s16.32-7.37 20.91-4.77 19.13 51.33 10.98 65.45c-7.12 12.33-46.67 13.03-75.12-17.19-3.17-3.36-8.52-9.21-10.86-13.14-18.68-31.39-5.77-77.11-5.77-77.11v-.01z" class="G"/><path d="M994.51 365.5s-.15-.05-.38-.2c-.24-.16-.61-.37-1.01-.72-.85-.66-1.99-1.75-3.12-3.32-2.27-3.12-4.3-8.25-4.72-14.14-.43-5.88.41-11.17 1.07-14.92a125.3 125.3 0 0 1 .89-4.45c.24-1.04.38-1.62.43-1.61.05 0-.02.59-.18 1.65l-.69 4.47c-.54 3.77-1.3 9.02-.88 14.8.41 5.78 2.33 10.81 4.45 13.93 2.12 3.16 4.25 4.38 4.15 4.51l.01-.01z" class="C"/><g class="G"><path d="M702.95 307.71c-.64.72-5.62 9.08-4.55 14.41s4.55 48.33 11.51 53.68c6.96 5.34 13.92 10.41 29.44 5.61s54.42-37.65 54.42-37.65l-4.68-83.07s-5.58 7.5-11.2 12.56c-5.62 5.08-43.09 56.47-43.09 56.47l-2.14 1.21s.53-4.5-1.87-9.19c-2.41-4.71-25.43-16.71-27.83-14.04v.01z"/><path d="M788.91 261.02c.36-2.48 8.73-3.66 17.19-6.44 8.47-2.76 42.34-7.07 41.61-5.69s3.67 22.28 23.92 19.52 23.71-15.59 23.71-15.59 16.36 2.28 32.19 6.88 9.63 17.28 9.63 17.28l-7.99 165.99c-66.85 15.84-85.43 8.67-130.41 0l-10.42-177.4.57-4.55z"/></g><g class="C"><path d="M796.5 379.64s-.06-.27-.11-.8l-.19-2.32-.56-8.55-1.57-28.23a710 710 0 0 1-.73-28.27l.04-8.57.05-2.33.06-.81s.05.28.06.81l.06 2.33.16 8.57.92 28.26 1.39 28.23.36 8.56.06 2.33-.02.81.02-.02zm135.78-77.89c.17 0 .32 12.52.32 27.97l-.32 27.99c-.17 0-.32-12.52-.32-27.99l.32-27.97zm-190.43 58.08c-.12-.04.59-1.72.8-4.58.24-2.85-.28-6.87-1.97-10.92-1.7-4.05-3.96-7.37-5.58-9.77-1.65-2.38-2.67-3.85-2.6-3.92a5.2 5.2 0 0 1 .85.94 63.3 63.3 0 0 1 2.12 2.72c1.72 2.33 4.08 5.64 5.81 9.78s2.18 8.29 1.82 11.2c-.16 1.46-.46 2.62-.73 3.38s-.48 1.17-.52 1.16z"/></g><g filter="url(#C)" class="B"><path d="M886.75 332.19v28.03l-.03.78c-.08 2.25-.19 5.32-2.91 9.16-3.54 4.99-10.36 9.78-20.29 14.23-9.93-4.46-16.75-9.24-20.29-14.23-2.72-3.83-2.83-6.91-2.91-9.16l-.03-.78v-28.03h23.24 23.24zm4.49-4.55h-27.73-27.73v32.7c.26 4.63-.94 16.69 27.73 29.01 28.67-12.32 27.47-24.38 27.73-29.01v-32.7z"/><path d="M863.72 358.94h-3.91v10.68h-7.22v-30.18h11.79c3.55 0 6.33.79 8.33 2.38s3 3.83 3 6.73c0 2.1-.42 3.84-1.26 5.22a9 9 0 0 1-3.96 3.35l6.25 12.19v.31h-7.74l-5.29-10.68zm-3.91-5.6h4.57c1.37 0 2.4-.36 3.1-1.09s1.04-1.74 1.04-3.04-.35-2.32-1.05-3.06-1.73-1.11-3.09-1.11h-4.57v8.31z"/><path d="M871.41 318.12l-7.9-6.72-7.9 6.72-7.95-2.45v8.73h15.82 15.87v-8.73l-7.95 2.45z"/></g><path d="M705.91 312.58c-.31-.75-.48-7.31 1.72-14.86 2.45-8.4 10.36-25.85 12.14-29.73s-2.59-15.19.8-16.16 7.13.67 8.74 8.32-1.78 16.55 1.3 19.29 20.88 1.78 35.29 4.52 18.3 8.4 16.03 11.15c-2.27 2.74-20.72-3.72-29.96-2.9 0 0-2.11 1.14-.32 1.14s7.13 1.46 9.4 4.36-1.94 5.82-1.94 5.82 3.4 7.11-3.08 9.04c0 0 1.14 5.98-3.73 6.94-4.85.96-15.55 2.21-15.55 2.21s-4.85 4.41-9.06 3.11-19.05-5.5-21.8-12.29l.01.02z" class="D"/><g class="E"><path d="M759.32 304.1c-.07.19-2.65-.77-5.95-1.27-3.3-.53-6.05-.43-6.07-.63-.02-.16 2.76-.56 6.17 0 3.4.53 5.93 1.77 5.86 1.91v-.01zm-3.27 8.47c-.06.17-1.96-.41-4.36-.7l-4.4-.41c-.02-.16 1.98-.56 4.47-.23 2.49.31 4.35 1.19 4.27 1.33l.01.01z"/></g><path d="M935.87 290.59c0-.73.73-4.37 12.55-7.29s16.49-4.37 27.3-5.24c10.79-.88 6.71-9.03 7.16-14.26.43-5.24 3.35-15.87 8.47-14.13s-3.07 8.88 2.48 18.2 15.18 32.47 14.74 39.9c0 0-7 8.73-16.93 8 0 0-24.23 1.02-28.31-1.03-4.09-2.04-4.23-5.53-2.04-7.57 0 0-4.82-2.47-4.82-5.38s2.63-3.93 2.63-3.93-.22-.09-.58-.27a6 6 0 0 1-2.66-7.45l.17-.43s-14.26 4.22-16.35 4.22c-3.8 0-3.8-2.57-3.8-3.35l.01-.01z" class="D"/><g class="E"><path d="M969.22 287.91c.01.17-3.08.56-6.89 1.04l-6.93.8c-.04-.17 3.01-.98 6.85-1.44 3.84-.48 6.97-.58 6.98-.41v.01zm0 9.38c.01.17-2.35.52-5.3.77s-5.34.3-5.35.12 2.35-.52 5.3-.77c2.93-.25 5.33-.3 5.35-.12zm1.41 8.32c.01.17-2.34.53-5.25.79-2.92.26-5.3.32-5.31.15s2.34-.53 5.25-.79c2.92-.26 5.3-.32 5.31-.15z"/></g><g class="B"><path d="M860.35 401.13l1.79.67-1.55.44c-.52.14-.93.54-1.1 1.05l-.56 1.72-.69-1.72c-.17-.43-.52-.76-.95-.92l-1.57-.57 1.7-.7c.41-.17.74-.5.9-.91l.62-1.6.44 1.48c.14.49.51.88.98 1.06h0zm-46.7-74.94l2.86 1.08-2.49.7a2.6 2.6 0 0 0-1.76 1.69l-.9 2.75-1.11-2.75a2.6 2.6 0 0 0-1.52-1.47l-2.52-.91 2.72-1.12a2.6 2.6 0 0 0 1.43-1.46l.98-2.56.71 2.38a2.6 2.6 0 0 0 1.57 1.69h0zm98.81-13.39l4.29 1.62-3.73 1.06a3.9 3.9 0 0 0-2.63 2.53l-1.35 4.13-1.66-4.13a3.9 3.9 0 0 0-2.28-2.21l-3.77-1.37 4.08-1.68a3.9 3.9 0 0 0 2.15-2.2l1.48-3.84 1.06 3.57a3.9 3.9 0 0 0 2.36 2.53l.01-.01z"/></g><g fill="#e0e0e0"><path d="M901.4 375.8l2.5.94-2.17.62c-.72.2-1.3.76-1.53 1.48l-.79 2.41-.97-2.41c-.24-.6-.73-1.06-1.33-1.29l-2.2-.8 2.38-.98c.58-.24 1.03-.7 1.25-1.28l.86-2.24.62 2.08c.2.68.71 1.23 1.38 1.48h0zm-68.04-74.91l1.79.67-1.55.44c-.52.15-.93.54-1.1 1.06l-.56 1.72-.69-1.72c-.17-.43-.52-.76-.95-.92l-1.57-.57 1.7-.7c.41-.17.73-.5.9-.92l.61-1.6.44 1.49c.14.49.51.88.98 1.06h0zm-13.35 68.08l3.58 1.35-3.11.88c-1.04.29-1.86 1.09-2.2 2.11l-1.13 3.44-1.38-3.44c-.34-.85-1.04-1.52-1.9-1.84l-3.14-1.14 3.4-1.4c.82-.34 1.47-1 1.79-1.83l1.23-3.2.88 2.97c.29.97 1.02 1.75 1.97 2.11h.01z"/></g><path d="M716.82 385.94c49.61 42.09 99.05 63.19 148.55 63.19 49.42 0 98.8-21.04 148.33-63.01-5.36 18.5-8.76 28.27-16.31 46.79l-.3.74.8.07a146.1 146.1 0 0 0 37.29-.48c-55.85 48.58-112.85 72.83-169.81 72.83-57.08 0-114.2-24.35-170.16-73.14a147.6 147.6 0 0 0 31.09-4.49l.6-.14-.17-.6a437.3 437.3 0 0 1-9.91-41.77z" fill="#3886e7" stroke="#0668e1" stroke-width="1.19"/><g class="B"><path d="M747.97 429.14l5.33 3.97a9 9 0 0 1 2.37 2.49 4.7 4.7 0 0 1 .75 2.7 4.8 4.8 0 0 1-1.05 2.72 5.7 5.7 0 0 1-1.81 1.67 4.4 4.4 0 0 1-1.98.54c-.68.02-1.38-.08-2.11-.29l-1.52-.19-4.47-3.33 1.86-2.53 3.31 2.47c.42.31.81.49 1.2.55a1.8 1.8 0 0 0 1.08-.18c.35-.17.67-.45.96-.83a2.7 2.7 0 0 0 .53-1.16c.07-.38.01-.76-.15-1.11s-.44-.68-.85-.98l-2.06-1.54-8.22 11.02-3.26-2.43 10.09-13.54zm-2.69 19.06l1.47-8.22 3.47 2.56-1.34 8.13-.1.14-3.5-2.61zm14.16.95l.13-.2c.5-.78 1.06-1.42 1.7-1.93.64-.52 1.33-.88 2.07-1.08a5.2 5.2 0 0 1 2.31-.1c.81.13 1.62.46 2.45.99a6.5 6.5 0 0 1 1.93 1.82 5.2 5.2 0 0 1 .88 2.15 5.8 5.8 0 0 1-.12 2.33 7.6 7.6 0 0 1-1.04 2.35l-.13.21a7.9 7.9 0 0 1-1.7 1.93 5.9 5.9 0 0 1-2.07 1.08 5.2 5.2 0 0 1-2.31.1 6.6 6.6 0 0 1-2.44-1 6.7 6.7 0 0 1-1.94-1.81 5.2 5.2 0 0 1-.88-2.15 5.9 5.9 0 0 1 .12-2.33 7.9 7.9 0 0 1 1.04-2.35zm3.42 1.9l-.13.21a7.8 7.8 0 0 0-.62 1.17 3.6 3.6 0 0 0-.29 1.1c-.03.34.03.66.18.95a2.1 2.1 0 0 0 .74.78c.35.22.68.33 1 .33.33.01.64-.07.94-.24a3.6 3.6 0 0 0 .87-.72 7.9 7.9 0 0 0 .8-1.06l.13-.2a7.6 7.6 0 0 0 .61-1.14c.16-.38.26-.75.29-1.1.03-.36-.02-.68-.16-.98a1.9 1.9 0 0 0-.74-.79c-.35-.22-.68-.33-1.01-.33a1.9 1.9 0 0 0-.95.27c-.3.17-.6.41-.87.72a7.6 7.6 0 0 0-.78 1.03zm14.67 11.82a2 2 0 0 0 .91.26c.3 0 .56-.08.79-.24a1.8 1.8 0 0 0 .6-.72l3.25 1.72a4.3 4.3 0 0 1-1.77 1.87 4.7 4.7 0 0 1-2.45.57 6.1 6.1 0 0 1-2.66-.75 6.6 6.6 0 0 1-2.06-1.62 5.1 5.1 0 0 1-1-2.05c-.16-.74-.17-1.51-.03-2.31a8.2 8.2 0 0 1 .86-2.39l.12-.24a8.5 8.5 0 0 1 1.49-2.06 5.8 5.8 0 0 1 1.92-1.28 5 5 0 0 1 2.25-.33 6.4 6.4 0 0 1 2.49.76 6.2 6.2 0 0 1 2.16 1.81 4.4 4.4 0 0 1 .87 2.4c.05.88-.17 1.78-.68 2.72l-3.25-1.72c.18-.33.29-.66.32-.98s-.03-.63-.18-.91a1.7 1.7 0 0 0-.74-.71c-.35-.19-.68-.26-.99-.22s-.58.17-.85.39a4.2 4.2 0 0 0-.72.82l-.65 1.11-.12.24-.56 1.19a3.8 3.8 0 0 0-.26 1.07 1.7 1.7 0 0 0 .17.9c.14.27.39.5.75.69zm20.53-6.95l-7.07 16.36-3.59-1.55 7.07-16.36 3.59 1.55zm5.28 8.02l-7.54 3.71-3.75 1.49-.58-2.95 3.41-1.9 4.16-2.2 4.3 1.86zm-8.82 9.86l-.81-6.58 3.46-.74 1.46 9.09-4.11-1.78zm16.25 2.07c.07-.21.06-.4-.03-.6-.08-.2-.27-.42-.56-.66-.29-.25-.72-.54-1.28-.88-.54-.32-1.02-.67-1.47-1.05a6 6 0 0 1-1.07-1.2 3.5 3.5 0 0 1-.55-1.35c-.07-.47-.02-.97.15-1.49.17-.5.44-.94.81-1.32a3.7 3.7 0 0 1 1.36-.87 4.8 4.8 0 0 1 1.83-.3c.68 0 1.4.13 2.18.4 1.07.36 1.93.84 2.6 1.44.67.59 1.11 1.24 1.33 1.97a3.5 3.5 0 0 1-.05 2.23l-3.7-1.26c.1-.3.14-.57.11-.82a1 1 0 0 0-.31-.64c-.18-.19-.45-.35-.82-.47-.26-.09-.51-.12-.75-.1s-.45.1-.63.23-.31.3-.39.53c-.06.16-.07.32-.04.48a1.4 1.4 0 0 0 .24.47 3.2 3.2 0 0 0 .52.5 7.7 7.7 0 0 0 .82.53 12.9 12.9 0 0 1 2.03 1.39c.6.51 1.04 1.08 1.3 1.73.27.65.26 1.39-.03 2.23a3.2 3.2 0 0 1-.86 1.34c-.39.36-.87.63-1.44.81a5.5 5.5 0 0 1-1.9.21 8.2 8.2 0 0 1-2.25-.46 6.6 6.6 0 0 1-2.67-1.58 4.9 4.9 0 0 1-1.25-2.14 3.7 3.7 0 0 1 .05-2.09l3.45 1.17c-.11.37-.12.7-.04.99.09.29.25.54.49.74s.54.37.91.49c.34.11.63.16.88.14.26-.02.48-.09.65-.21.17-.13.3-.3.37-.52zm19.09-4.05l-.82 2.59-7.21-2.28.82-2.59 7.21 2.28zm-4.75-4.78l3.73 1.18-3.49 11.03c-.1.32-.14.57-.12.78.02.19.11.35.26.48a2.3 2.3 0 0 0 .7.33l.53.16.42.07-.84 2.67a6.4 6.4 0 0 1-1.07-.08 7 7 0 0 1-1.13-.26c-.8-.25-1.44-.59-1.93-1.02a2.8 2.8 0 0 1-.91-1.59c-.12-.63-.05-1.38.22-2.24l3.64-11.5zm16.84 14.92l.71-5.12a2.5 2.5 0 0 0-.02-.93 1.2 1.2 0 0 0-.39-.65c-.19-.18-.47-.29-.83-.34-.29-.04-.55-.03-.77.04s-.4.2-.53.38a1.6 1.6 0 0 0-.27.74l-3.87-.54c.08-.57.28-1.09.6-1.54.33-.46.76-.84 1.28-1.14a5.4 5.4 0 0 1 1.84-.61c.7-.11 1.47-.11 2.29 0 .99.14 1.85.42 2.57.86.74.44 1.28 1.02 1.64 1.74.36.71.47 1.56.33 2.55l-.71 5.09a9.4 9.4 0 0 0-.12 1.87 4.3 4.3 0 0 0 .24 1.15l-.03.19-3.88-.54c-.13-.41-.2-.89-.22-1.46-.01-.57.03-1.15.11-1.74zm1.09-4.4l-.26 2.07-1.71-.24c-.36-.05-.67-.04-.94.02-.26.06-.48.18-.65.33s-.3.32-.4.53a2.8 2.8 0 0 0-.19.66c-.03.23-.01.44.07.64.09.19.23.35.4.48a1.3 1.3 0 0 0 .62.24 2.3 2.3 0 0 0 1.12-.09 2 2 0 0 0 .79-.51c.19-.22.31-.43.33-.63l.63 1.7a10.6 10.6 0 0 1-.66.86 4.2 4.2 0 0 1-.85.77c-.32.22-.7.39-1.13.5a4.2 4.2 0 0 1-1.54.03 4.8 4.8 0 0 1-2.05-.76 4 4 0 0 1-1.35-1.52c-.3-.62-.4-1.3-.3-2.03.09-.64.28-1.2.58-1.68a3.4 3.4 0 0 1 1.25-1.14c.52-.29 1.17-.47 1.93-.55a10.9 10.9 0 0 1 2.63.09l1.67.23zm8.86-7.58l6.64.1a9.1 9.1 0 0 1 3.38.63 4.7 4.7 0 0 1 2.19 1.75 4.8 4.8 0 0 1 .75 2.82 5.7 5.7 0 0 1-.49 2.42 4.2 4.2 0 0 1-1.29 1.59 7.1 7.1 0 0 1-1.88 1l-1.35.73-5.58-.08.02-3.14 4.13.06c.52.01.95-.08 1.29-.26s.6-.44.78-.78a2.7 2.7 0 0 0 .28-1.24c.01-.49-.08-.91-.25-1.26a1.8 1.8 0 0 0-.78-.81c-.34-.19-.76-.29-1.26-.3l-2.57-.04-.2 13.74-4.07-.06.25-16.88zm9 17.02l-3.62-7.52 4.31.04 3.67 7.37v.17l-4.36-.06zm16.81-.41c-1.02.03-1.94-.11-2.75-.4a5.9 5.9 0 0 1-3.38-3.2c-.31-.73-.47-1.5-.49-2.32l-.01-.44c-.02-.92.08-1.77.32-2.56a6 6 0 0 1 1.08-2.09 5.1 5.1 0 0 1 1.86-1.42c.75-.35 1.63-.54 2.63-.57a6.3 6.3 0 0 1 2.4.37 4.9 4.9 0 0 1 1.82 1.18 5.3 5.3 0 0 1 1.18 1.91 7.7 7.7 0 0 1 .46 2.54l.04 1.59-10.25.26-.06-2.45 6.43-.17-.01-.3c0-.42-.09-.77-.25-1.06-.15-.29-.38-.51-.67-.65s-.64-.22-1.05-.2c-.42.01-.77.11-1.05.3a1.9 1.9 0 0 0-.62.78 4 4 0 0 0-.28 1.11c-.05.42-.07.86-.06 1.32l.01.44c.01.46.08.88.22 1.26s.34.69.58.96c.25.26.55.45.9.59a3 3 0 0 0 1.19.19c.53-.01 1.06-.13 1.57-.34s.95-.56 1.31-1.03l1.83 2.06a4.6 4.6 0 0 1-1.06 1.08 6.1 6.1 0 0 1-1.65.88 7.1 7.1 0 0 1-2.17.37zm17.78-3.81a2 2 0 0 0 .88-.34c.24-.18.4-.4.49-.67.1-.27.11-.59.05-.94l3.63-.58a4.3 4.3 0 0 1-.3 2.56 4.7 4.7 0 0 1-1.62 1.93 6.1 6.1 0 0 1-2.58 1 6.7 6.7 0 0 1-2.62-.06c-.78-.2-1.45-.55-2.03-1.04a5.9 5.9 0 0 1-1.41-1.83 8.3 8.3 0 0 1-.75-2.43l-.04-.26c-.14-.89-.16-1.74-.04-2.54a5.8 5.8 0 0 1 .77-2.18 5 5 0 0 1 1.6-1.62 6.3 6.3 0 0 1 2.46-.88c1.03-.16 1.97-.11 2.82.15.86.26 1.57.73 2.14 1.4s.93 1.53 1.09 2.59l-3.63.58c-.05-.38-.16-.7-.33-.98s-.4-.48-.69-.62c-.28-.14-.62-.18-1.02-.12s-.7.2-.92.42-.36.49-.44.82a4.1 4.1 0 0 0-.08 1.09 12.5 12.5 0 0 0 .14 1.28l.04.26.26 1.28c.11.39.25.73.43 1.01a1.7 1.7 0 0 0 .67.62c.27.13.61.16 1.01.1zm29.82-6l-2.47-9.17 3.79-1.02 3.26 12.12-3.54.95-1.04-2.88zm-.3-2.56l.98-.29a8.7 8.7 0 0 1 .32 2.34 5.6 5.6 0 0 1-.38 2.02c-.24.61-.59 1.13-1.07 1.56a4.3 4.3 0 0 1-1.78.92 5.4 5.4 0 0 1-1.71.2c-.54-.04-1.04-.19-1.49-.45a3.9 3.9 0 0 1-1.22-1.17 6.7 6.7 0 0 1-.85-1.98l-2.11-7.84 3.77-1.01 2.11 7.86a2.2 2.2 0 0 0 .29.67 1.4 1.4 0 0 0 .42.41 1.3 1.3 0 0 0 .55.16c.21.01.44-.02.69-.09.57-.15.98-.39 1.24-.72s.39-.71.41-1.15c.02-.45-.03-.93-.17-1.44zm10.46-11.27l5.03 11.5-3.59 1.57-5.03-11.5 3.59-1.57zm-5.1-1.3c-.22-.51-.22-1.01 0-1.5s.63-.86 1.22-1.12 1.14-.3 1.65-.14.88.5 1.1 1.01.22 1.01 0 1.49-.63.86-1.22 1.12-1.14.3-1.65.14-.88-.5-1.1-1.01zm18.25-4.65l1.29 2.39-6.65 3.6-1.29-2.39 6.65-3.6zm-6.74.1l3.44-1.86 5.51 10.17c.16.29.32.5.47.63.15.12.33.17.53.15a2.3 2.3 0 0 0 .72-.27l.48-.28.34-.25 1.33 2.46a6.4 6.4 0 0 1-.8.71c-.29.23-.62.44-.98.63a5.4 5.4 0 0 1-2.07.68 2.8 2.8 0 0 1-1.77-.45c-.54-.35-1.03-.92-1.46-1.72l-5.75-10.6zm24.2 4.34a7.4 7.4 0 0 1-2.59 1.01c-.86.14-1.67.11-2.44-.08a5.9 5.9 0 0 1-2.09-1.01c-.62-.48-1.15-1.07-1.57-1.77l-.23-.38a8.2 8.2 0 0 1-.99-2.38 6.1 6.1 0 0 1-.1-2.36c.12-.77.43-1.48.91-2.15.48-.68 1.14-1.27 2-1.8a6.3 6.3 0 0 1 2.27-.87c.75-.12 1.47-.08 2.16.13a5.3 5.3 0 0 1 1.96 1.07c.62.51 1.17 1.17 1.66 1.98l.82 1.36-8.77 5.31-1.27-2.09 5.51-3.33-.16-.26c-.21-.36-.46-.63-.74-.8-.28-.18-.58-.25-.9-.24s-.66.13-1.01.34c-.36.22-.62.48-.76.78a1.9 1.9 0 0 0-.15.99 4.2 4.2 0 0 0 .3 1.11 9.1 9.1 0 0 0 .61 1.18l.23.38c.24.4.51.73.81.99.31.26.63.44.98.55.35.1.7.12 1.07.07a3 3 0 0 0 1.13-.42c.46-.28.85-.63 1.19-1.07s.55-.95.63-1.54l2.61.89a4.6 4.6 0 0 1-.39 1.47c-.22.53-.55 1.06-1 1.58a7.1 7.1 0 0 1-1.7 1.4zm6.63-16.04l4.97 8.03-3.32 2.06-6.6-10.67 3.11-1.92 1.85 2.51zm1.47-4.68l1.85 3.12-.56.28-.58.32c-.39.24-.7.49-.92.76a2 2 0 0 0-.45.82c-.07.28-.07.58.01.89s.24.64.46.98l-.85-.02a10 10 0 0 1-1-2.08 6.6 6.6 0 0 1-.34-1.91c-.01-.6.11-1.13.34-1.59.23-.47.58-.85 1.04-1.14a4.8 4.8 0 0 1 .5-.27c.18-.08.34-.14.49-.18zm-66.71 33.46l2.2 9.18-3.8.91-2.92-12.2 3.55-.85.97 2.96zm2.86-3.98l.78 3.55-.62.09-.65.12c-.44.11-.81.25-1.11.43a2 2 0 0 0-.68.64c-.16.24-.25.53-.27.85a3.5 3.5 0 0 0 .13 1.08l-.8-.29a9.7 9.7 0 0 1-.3-2.29 6.3 6.3 0 0 1 .28-1.92c.18-.57.46-1.03.82-1.4s.81-.62 1.35-.75a3.9 3.9 0 0 1 .56-.1c.19-.02.37-.03.52-.02zm76.68-47.65a6.6 6.6 0 0 1-1.69 9.18c-2.99 2-7.09 1.14-9.15-1.93a6.4 6.4 0 0 1 1.82-8.99c2.99-2 6.97-1.33 9.02 1.74zm-9.54 6.38c1.67 2.49 4.64 3.28 7.07 1.65 2.24-1.5 2.83-4.66 1.29-6.96-1.67-2.49-4.64-3.28-7.07-1.65-2.56 1.43-2.83 4.66-1.29 6.96zm5.29.62l-1.31.88-3.6-5.36c.43-.57.99-.94 1.93-1.57s1.63-.81 2.13-.87.95.2 1.33.77.4 1.4-.22 2.09c.69-.18 1.13.07 1.84.72s.96 1.02 1.27 1.09l-1.31.88c-.32-.07-.7-.64-1.27-1.09s-.89-.52-1.64-.02l-.56.38 1.41 2.11zm-2.06-3.06l.56-.37c.75-.5 1.18-1.07.79-1.64s-.89-.52-1.64-.02l-.75.5 1.03 1.53z"/></g></g><rect x="1" y="1" width="1138" height="638" rx="15" stroke="#0668e1" stroke-width="2"/><defs><filter id="B" x="-4.75" y="56.41" width="332.5" height="98.56" filterUnits="userSpaceOnUse" class="H"><feFlood flood-opacity="0" result="A"/><feColorMatrix in="SourceAlpha" values="0 0 0 0 0 0 0 0 0 0 0 0 0 0 0 0 0 0 127 0" result="B"/><feOffset dy="1.78125"/><feGaussianBlur stdDeviation="2.38"/><feComposite in2="B" operator="out"/><feColorMatrix values="0 0 0 0 0 0 0 0 0 0 0 0 0 0 0 0 0 0 0.3 0"/><feBlend in2="A"/><feBlend in="SourceGraphic"/></filter><filter id="C" x="835.78" y="311.4" width="55.46" height="80.33" filterUnits="userSpaceOnUse" class="H"><feFlood flood-opacity="0" result="A"/><feColorMatrix in="SourceAlpha" values="0 0 0 0 0 0 0 0 0 0 0 0 0 0 0 0 0 0 127 0" result="B"/><feOffset dy="2.375"/><feComposite in2="B" operator="out"/><feColorMatrix values="0 0 0 0 0 0 0 0 0 0 0 0 0 0 0 0 0 0 0.15 0"/><feBlend in2="A"/><feBlend in="SourceGraphic"/></filter><linearGradient id="D" x1="640.96" y1="414.14" x2="1772.43" y2="869.72" href="#K"><stop stop-color="#b1d4ff"/><stop offset=".04" stop-color="#a2cbfc"/><stop offset=".16" stop-color="#479aff"/><stop offset=".28" stop-color="#0072ff"/><stop offset=".38" stop-color="#0668e1"/></linearGradient><linearGradient id="E" x1="182.28" y1="95.38" x2="-200.17" y2="-40.95" href="#K"><stop stop-color="#b1d4ff"/><stop offset=".04" stop-color="#b8d8ff"/><stop offset=".16" stop-color="#479aff"/><stop offset=".28" stop-color="#0072ff"/><stop offset=".38" stop-color="#0668e1"/></linearGradient><linearGradient id="F" x1="814.53" y1="369.05" x2="1149.64" y2="624.32" href="#K"><stop offset=".38" stop-color="#7fb8ff"/><stop offset=".62" stop-color="#4095ff"/><stop offset=".85" stop-color="#0273ff"/><stop offset="1" stop-color="#0668e1"/></linearGradient><linearGradient id="G" x1="523.96" y1="-18.61" x2="-9.29" y2="43.69" href="#K"><stop offset=".38" stop-color="#7fb8ff"/><stop offset=".62" stop-color="#4095ff"/><stop offset=".85" stop-color="#0273ff"/><stop offset="1" stop-color="#0668e1"/></linearGradient><clipPath id="H"><rect width="1140" height="640" rx="16" class="B"/></clipPath><path id="I" d="M844.25 168.37c-1.14 0-2.07-.84-2.07-1.86s.93-1.86 2.07-1.86 2.07.84 2.07 1.86-.93 1.86-2.07 1.86z"/><path id="J" d="M868.61 184.86c-.07 1.66 1.27 3.09 3.01 3.19 1.73.11 3.19-1.15 3.27-2.8s-1.27-3.09-3.01-3.19c-1.73-.11-3.19 1.15-3.27 2.8z"/><linearGradient id="K" gradientUnits="userSpaceOnUse"/></defs></svg>