<svg xmlns="http://www.w3.org/2000/svg" width="1140" height="640" fill="none" xmlns:v="https://vecta.io/nano"><g clip-path="url(#E)"><rect width="1140" height="640" rx="16" fill="#fff"/><mask id="A" maskUnits="userSpaceOnUse" x="0" y="0" width="1140" height="652"><path d="M1140 0H0v651.85h1140V0z" fill="#fff"/></mask><g mask="url(#A)"><path d="M1242.84 302.91c-66.29 79.39-173.55 144.17-256.38 210.32-95.74 76.45-192.48 71.92-308.63 71.02-80.45-.62-194.38 7.66-271.67 29.61-109.54 31.11-152.89 115.25-233.03 193.08-3.13 3.03-44.07 54.79-34.03 56.81l994.34 199.76 182.64-813.86c-35.68-4.83-53.1 29.17-73.22 53.25z" fill="url(#C)"/><path d="M1281.2 428.51c-94.7 44.71-234.23 211.29-338.17 237.23-120.14 29.98-230.1 31.62-335.08-16.81-72.71-33.54-149.44-57.19-229.11-68.99-112.92-16.73-228.31-4.29-334.91 33.34-4.17 1.47-63.84 31.54-55.59 37.49l1029.02 603.48 306.02-677.03c-30.27-18.99-13.45-162.27-42.18-148.71z" fill="url(#D)"/><g opacity=".2"><path d="M1083.89 485.92s-171.14 110.85-295.39 141c-92.2 22.37-149.09 0-244.62 0-92.22 0-155.75-4.76-236.14 0-113.95 6.75-224.07 42.57-320.19 101.2-3.76 2.29-55.64 43.94-46.32 48.08L1076 1155.86l154.32-725.04c-33.66-12.39-146.43 55.1-146.43 55.1z" fill="#fff"/></g><g opacity=".2"><path d="M1187.55 578.83c-96.07 43-182.79 107.12-287.56 131.22-121.09 27.86-236.57-38.49-340.16-88.72-71.73-34.79-147.8-59.74-227.16-72.94-112.48-18.69-228.3-8.28-336.05 27.44-4.2 1.39-64.8 30.4-56.74 36.49l1011.46 620.92 326.38-671.01c-29.71-19.5-61.04 3.56-90.18 16.61l.01-.01z" fill="#fff"/></g></g><path d="M141.55 258.17v5.64h-15.59v-5.64h15.59zm-13.15-12.07v30.39h-7.33v-30.39h7.33zm18.08 0v30.39h-7.31v-30.39h7.31zm11.75 7.81v22.59h-7.06v-22.59h7.06zm-7.47-5.82c0-1 .36-1.82 1.09-2.46a4.1 4.1 0 0 1 2.82-.96 4.1 4.1 0 0 1 2.82.96c.72.64 1.09 1.46 1.09 2.46s-.36 1.82-1.09 2.46a4.1 4.1 0 0 1-2.82.96 4.1 4.1 0 0 1-2.82-.96c-.72-.64-1.09-1.46-1.09-2.46zm18.91 11.42v16.99h-7.03v-22.59h6.57l.46 5.6zm6.68-5.76l-.12 6.53-1.13-.1-1.19-.06a6.9 6.9 0 0 0-2.13.29 3.6 3.6 0 0 0-1.46.83c-.38.36-.65.82-.83 1.38-.17.56-.24 1.2-.23 1.94l-1.27-.83c0-1.52.15-2.89.44-4.13.31-1.25.74-2.33 1.29-3.23.56-.92 1.23-1.62 2.03-2.11a4.9 4.9 0 0 1 2.67-.75 8.4 8.4 0 0 1 1.02.06c.35.04.65.1.92.19zm9.85.17v22.59h-7.06v-22.59h7.06zm-7.47-5.82c0-1 .36-1.82 1.09-2.46a4.1 4.1 0 0 1 2.82-.96 4.1 4.1 0 0 1 2.82.96c.72.64 1.09 1.46 1.09 2.46s-.36 1.82-1.09 2.46a4.1 4.1 0 0 1-2.82.96 4.1 4.1 0 0 1-2.82-.96c-.72-.64-1.09-1.46-1.09-2.46zm18.72 10.65v17.76h-7.04v-22.59h6.6l.44 4.82zm-.84 5.7l-1.65.04c0-1.73.21-3.26.63-4.61a10.2 10.2 0 0 1 1.77-3.46c.77-.95 1.68-1.66 2.73-2.15 1.07-.5 2.26-.75 3.57-.75a8.5 8.5 0 0 1 2.86.46c.88.31 1.63.8 2.25 1.48.64.68 1.13 1.59 1.46 2.71.35 1.11.52 2.49.52 4.13v14.21h-7.08v-14.24c0-.91-.12-1.59-.37-2.07a2 2 0 0 0-1.09-1 4.9 4.9 0 0 0-1.73-.27c-.72 0-1.34.14-1.84.42s-.91.67-1.21 1.17c-.29.49-.51 1.06-.65 1.73-.12.67-.19 1.4-.19 2.19zm32.25-10.52h6.39v21.71c0 2.09-.48 3.86-1.44 5.3-.96 1.46-2.3 2.57-4.03 3.32a14.6 14.6 0 0 1-6.01 1.15 12.8 12.8 0 0 1-3.11-.4 11.9 11.9 0 0 1-2.96-1.13c-.92-.5-1.69-1.12-2.32-1.86l2.94-4.13c.57.64 1.29 1.18 2.15 1.63a6.4 6.4 0 0 0 3.05.69 5.4 5.4 0 0 0 2.55-.54c.7-.36 1.22-.89 1.59-1.59.36-.68.54-1.51.54-2.48v-16.32l.67-5.34zm-15.01 11.56v-.44a16.4 16.4 0 0 1 .63-4.68c.43-1.42 1.04-2.64 1.84-3.65a8.3 8.3 0 0 1 2.92-2.38 8.7 8.7 0 0 1 3.86-.83c1.54 0 2.81.3 3.8.9a6.5 6.5 0 0 1 2.4 2.46 13.6 13.6 0 0 1 1.42 3.71l.88 4.55v.52a31.1 31.1 0 0 1-.98 4.34c-.4 1.35-.93 2.55-1.59 3.59s-1.47 1.86-2.46 2.46a6.7 6.7 0 0 1-3.51.88c-1.42 0-2.7-.28-3.84-.85-1.13-.57-2.09-1.37-2.9-2.4-.79-1.03-1.41-2.24-1.84-3.63a15.8 15.8 0 0 1-.63-4.55zm7.03-.44v.44a11.4 11.4 0 0 0 .23 2.36 6.6 6.6 0 0 0 .75 1.92c.33.54.74.97 1.23 1.27a3.3 3.3 0 0 0 1.75.46c1.02 0 1.84-.22 2.46-.65a3.6 3.6 0 0 0 1.36-1.84c.28-.79.4-1.72.35-2.8v-1.65c.03-.92-.03-1.73-.19-2.42-.15-.71-.4-1.3-.73-1.78-.32-.47-.75-.83-1.29-1.06-.53-.25-1.17-.38-1.92-.38-.65 0-1.23.15-1.73.46s-.92.74-1.25 1.29c-.33.54-.59 1.19-.77 1.94-.17.74-.25 1.54-.25 2.42zm49.87-6.87v5.64h-15.59v-5.64h15.59zm-13.15-12.07v30.39h-7.33v-30.39h7.33zm18.08 0v30.39h-7.31v-30.39h7.31zm3.44 19.33V265c0-1.66.24-3.18.71-4.57a10.4 10.4 0 0 1 2.09-3.65c.92-1.03 2.05-1.83 3.4-2.4 1.35-.59 2.91-.88 4.68-.88 1.78 0 3.35.29 4.7.88 1.36.57 2.5 1.37 3.42 2.4a10.4 10.4 0 0 1 2.09 3.65c.47 1.39.71 2.91.71 4.57v.44c0 1.64-.24 3.17-.71 4.57-.47 1.39-1.17 2.61-2.09 3.65-.92 1.03-2.05 1.83-3.4 2.4s-2.91.85-4.68.85a12.1 12.1 0 0 1-4.7-.85c-1.36-.57-2.5-1.37-3.42-2.4-.92-1.04-1.61-2.26-2.09-3.65-.47-1.4-.71-2.93-.71-4.57zm7.03-.44v.44c0 .85.06 1.64.19 2.38a6.5 6.5 0 0 0 .63 1.94 3.3 3.3 0 0 0 1.19 1.27c.5.31 1.13.46 1.88.46a3.4 3.4 0 0 0 1.84-.46c.5-.31.9-.73 1.19-1.27a6.5 6.5 0 0 0 .63-1.94c.13-.74.19-1.53.19-2.38V265a13.6 13.6 0 0 0-.19-2.32 6.5 6.5 0 0 0-.63-1.94c-.29-.57-.69-1.02-1.19-1.34s-1.13-.48-1.88-.48c-.74 0-1.36.16-1.86.48-.49.32-.88.77-1.17 1.34a6.5 6.5 0 0 0-.63 1.94 13.6 13.6 0 0 0-.19 2.32zm24.8-6.26v17.76h-7.03v-22.59h6.6l.44 4.82zm-.83 5.7l-1.65.04c0-1.73.21-3.26.63-4.61a10.2 10.2 0 0 1 1.77-3.46c.77-.95 1.68-1.66 2.74-2.15a8.3 8.3 0 0 1 3.57-.75 8.5 8.5 0 0 1 2.86.46c.88.31 1.63.8 2.26 1.48.64.68 1.13 1.59 1.46 2.71.35 1.11.52 2.49.52 4.13v14.21h-7.08v-14.24c0-.91-.12-1.59-.37-2.07a2 2 0 0 0-1.09-1 4.9 4.9 0 0 0-1.73-.27c-.72 0-1.34.14-1.84.42s-.91.67-1.21 1.17c-.29.49-.51 1.06-.65 1.73-.12.67-.19 1.4-.19 2.19zm28.99 12.48c-1.84 0-3.48-.28-4.93-.85-1.45-.59-2.67-1.38-3.67-2.4-.99-1.02-1.75-2.19-2.28-3.51-.51-1.32-.77-2.72-.77-4.19v-.79a14.7 14.7 0 0 1 .69-4.59 10.7 10.7 0 0 1 2.05-3.71c.9-1.06 2.04-1.88 3.4-2.46 1.36-.6 2.95-.9 4.76-.9 1.6 0 3.03.26 4.3.77s2.34 1.25 3.21 2.21a9.5 9.5 0 0 1 2.02 3.49c.47 1.36.71 2.89.71 4.59v2.86h-18.45v-4.41h11.58v-.54a3.9 3.9 0 0 0-.4-1.92c-.26-.53-.65-.93-1.17-1.21a3.9 3.9 0 0 0-1.88-.42c-.77 0-1.4.17-1.9.5a3.4 3.4 0 0 0-1.15 1.38 7.2 7.2 0 0 0-.56 1.98c-.11.75-.17 1.54-.17 2.38v.79a7.3 7.3 0 0 0 .33 2.27c.24.68.57 1.27 1 1.75.44.47.97.84 1.59 1.11.63.26 1.34.4 2.13.4a7.8 7.8 0 0 0 2.84-.54 5.7 5.7 0 0 0 2.4-1.8l3.19 3.8c-.46.65-1.11 1.29-1.96 1.9-.83.61-1.84 1.11-3.01 1.5-1.17.38-2.48.56-3.92.56zm24.19-6.76a1.4 1.4 0 0 0-.4-1c-.25-.29-.69-.56-1.34-.79a18.5 18.5 0 0 0-2.69-.75 19.3 19.3 0 0 1-3.11-.94 10.7 10.7 0 0 1-2.53-1.42 6.3 6.3 0 0 1-1.71-1.98c-.4-.77-.61-1.64-.61-2.63 0-.96.2-1.87.61-2.71.42-.86 1.02-1.62 1.82-2.28.81-.67 1.79-1.19 2.94-1.57 1.15-.39 2.47-.58 3.94-.58 2.03 0 3.79.31 5.26.94 1.48.61 2.61 1.47 3.4 2.59a6.3 6.3 0 0 1 1.21 3.82h-7.04c0-.57-.1-1.06-.29-1.46-.18-.4-.48-.71-.9-.92-.42-.22-.97-.33-1.67-.33-.49 0-.93.09-1.34.27a2.4 2.4 0 0 0-.94.75c-.24.32-.36.69-.36 1.13a1.7 1.7 0 0 0 .21.83c.15.24.38.46.69.67.31.19.7.38 1.17.54.47.15 1.04.29 1.71.42 1.52.28 2.94.67 4.26 1.19a8 8 0 0 1 3.22 2.19c.83.95 1.25 2.22 1.25 3.82 0 1-.23 1.93-.69 2.78a6.9 6.9 0 0 1-1.98 2.21 9.9 9.9 0 0 1-3.11 1.46 14.8 14.8 0 0 1-4.09.52c-2.16 0-3.98-.38-5.47-1.15a8.8 8.8 0 0 1-3.38-2.92c-.75-1.18-1.13-2.38-1.13-3.59h6.55c.03.7.19 1.27.5 1.71.32.45.75.77 1.27.98s1.14.31 1.84.31a4 4 0 0 0 1.59-.27c.43-.18.76-.42.98-.73.22-.32.33-.69.33-1.11zm21.98-16.24v4.88h-13.61v-4.88h13.61zm-10.75-5.61h7.04v20.83c0 .6.07 1.07.21 1.4.14.32.38.55.71.69.35.13.81.19 1.38.19l1-.02.75-.11v5.03a11.5 11.5 0 0 1-1.88.44c-.65.11-1.35.17-2.09.17-1.5 0-2.79-.24-3.86-.71-1.06-.47-1.87-1.22-2.42-2.23s-.84-2.34-.84-3.97V248.3zm37.99-2.19v30.39h-7.33v-30.39h7.33zm9.14 0v5.66h-25.4v-5.66h25.4zm10.96 24.72v-9.31a4.5 4.5 0 0 0-.27-1.65c-.18-.46-.47-.81-.86-1.06-.39-.26-.91-.4-1.56-.4a3.1 3.1 0 0 0-1.36.27c-.38.18-.66.45-.86.81s-.29.82-.29 1.38h-7.04c0-1.04.23-2.01.69-2.9.47-.9 1.14-1.69 2-2.36a9.7 9.7 0 0 1 3.13-1.54c1.22-.37 2.59-.56 4.09-.56 1.8 0 3.39.3 4.8.9a7.5 7.5 0 0 1 3.36 2.69c.82 1.18 1.23 2.67 1.23 4.47v9.25a16.9 16.9 0 0 0 .25 3.36 7.7 7.7 0 0 0 .71 1.98v.36h-7.06c-.33-.7-.58-1.55-.75-2.55a21 21 0 0 1-.23-3.13zm.86-8.12l.04 3.76h-3.11c-.65 0-1.21.09-1.67.27a2.8 2.8 0 0 0-1.09.75c-.26.31-.46.65-.58 1.04-.11.39-.17.8-.17 1.23a2.2 2.2 0 0 0 .29 1.13c.21.32.49.57.83.75a2.5 2.5 0 0 0 1.17.27c.78 0 1.44-.15 1.98-.44a3.6 3.6 0 0 0 1.27-1.11c.29-.43.44-.83.44-1.21l1.54 2.88-.96 1.69c-.35.57-.79 1.1-1.31 1.59-.52.47-1.15.86-1.9 1.17-.75.29-1.66.44-2.74.44-1.39 0-2.67-.28-3.84-.85a7.1 7.1 0 0 1-2.78-2.38 6.2 6.2 0 0 1-1.04-3.55 7.5 7.5 0 0 1 .63-3.13c.43-.92 1.08-1.7 1.94-2.34s1.96-1.13 3.3-1.46 2.91-.5 4.72-.5h3.03zm17.56-18.26v32.06h-7.06v-32.06h7.06zm15.28 32.48c-1.84 0-3.48-.28-4.93-.85-1.45-.59-2.67-1.38-3.67-2.4-.99-1.02-1.75-2.19-2.27-3.51-.51-1.32-.77-2.72-.77-4.19v-.79a14.7 14.7 0 0 1 .69-4.59c.46-1.42 1.14-2.66 2.05-3.71s2.04-1.88 3.4-2.46c1.36-.6 2.95-.9 4.76-.9 1.6 0 3.03.26 4.3.77s2.34 1.25 3.21 2.21a9.5 9.5 0 0 1 2.03 3.49c.47 1.36.71 2.89.71 4.59v2.86h-18.45v-4.41h11.58v-.54c.01-.75-.12-1.39-.4-1.92-.26-.53-.65-.93-1.17-1.21a3.9 3.9 0 0 0-1.88-.42c-.76 0-1.4.17-1.9.5a3.4 3.4 0 0 0-1.15 1.38 7.2 7.2 0 0 0-.56 1.98c-.11.75-.17 1.54-.17 2.38v.79a7.3 7.3 0 0 0 .33 2.27c.24.68.57 1.27 1 1.75.44.47.97.84 1.59 1.11.63.26 1.34.4 2.13.4a7.8 7.8 0 0 0 2.84-.54c.93-.36 1.73-.96 2.4-1.8l3.19 3.8a8.3 8.3 0 0 1-1.96 1.9c-.83.61-1.84 1.11-3 1.5a12.8 12.8 0 0 1-3.93.56zm19.27-18.18v17.76h-7.03v-22.59h6.6l.44 4.82zm-.83 5.7l-1.65.04c0-1.73.21-3.26.63-4.61a10.2 10.2 0 0 1 1.77-3.46c.77-.95 1.68-1.66 2.74-2.15 1.07-.5 2.26-.75 3.57-.75a8.5 8.5 0 0 1 2.86.46c.88.31 1.63.8 2.25 1.48.64.68 1.13 1.59 1.46 2.71.35 1.11.52 2.49.52 4.13v14.21h-7.08v-14.24c0-.91-.12-1.59-.37-2.07a2 2 0 0 0-1.09-1 4.9 4.9 0 0 0-1.73-.27c-.72 0-1.34.14-1.84.42s-.91.67-1.21 1.17c-.29.49-.51 1.06-.65 1.73-.12.67-.19 1.4-.19 2.19zm29.95-10.52v4.88H501.1v-4.88h13.61zm-10.75-5.61H511v20.83c0 .6.07 1.07.21 1.4.14.32.38.55.71.69.35.13.81.19 1.38.19l1-.02.75-.11v5.03a11.5 11.5 0 0 1-1.88.44c-.65.11-1.35.17-2.09.17-1.5 0-2.79-.24-3.86-.71-1.06-.47-1.86-1.22-2.42-2.23s-.83-2.34-.83-3.97V248.3zm-366.51 68.88h11.65l6.04 43.92 21.31-43.92h12.61l-31.83 63.32h-9.87l-9.91-63.32zm-7.61 0h12.57l-6.18 49.19-2.48 14.13h-14.87l10.96-63.32zm53.71 0h12.66l-10.96 63.32h-14.96l2.7-15.39 10.57-47.92zm36.27 51.49l3.04-19.57a11.5 11.5 0 0 0-.04-3c-.12-.96-.48-1.74-1.09-2.35-.58-.64-1.49-.97-2.74-1-1.13-.03-2.09.17-2.87.61a4.9 4.9 0 0 0-1.87 1.83c-.46.78-.8 1.68-1 2.7l-14.35.09c.12-2.73.84-5.07 2.17-7.05s3.04-3.58 5.13-4.83 4.36-2.16 6.83-2.74c2.49-.58 4.94-.84 7.35-.78a20.6 20.6 0 0 1 8.96 2.09 14.1 14.1 0 0 1 6.22 5.7c1.48 2.46 2.04 5.47 1.7 9l-3.09 19.31-.7 5.57c-.2 1.94.09 3.75.87 5.44l-.04.83-13.96.04a18.2 18.2 0 0 1-.96-5.87 41.2 41.2 0 0 1 .44-6zm4.65-16.92l-1.3 7.83-5.61-.04a10.6 10.6 0 0 0-3.17.56 8.6 8.6 0 0 0-2.65 1.39 7.8 7.8 0 0 0-1.96 2.26c-.49.9-.81 1.93-.96 3.09a4.3 4.3 0 0 0 .17 2.13c.26.61.65 1.1 1.17 1.48.55.38 1.23.58 2.04.61a8.6 8.6 0 0 0 3.61-.7 8.7 8.7 0 0 0 3-2.09c.87-.9 1.46-1.94 1.78-3.13l2.52 6.13c-.75 1.51-1.62 2.88-2.61 4.13-.96 1.25-2.04 2.33-3.26 3.26-1.19.9-2.52 1.59-4 2.09a14.7 14.7 0 0 1-4.91.7c-2.58-.06-4.96-.68-7.13-1.87a13.7 13.7 0 0 1-5.17-4.87c-1.28-2.06-1.87-4.44-1.78-7.13.12-3.13.89-5.73 2.31-7.78a14.8 14.8 0 0 1 5.52-4.83c2.29-1.19 4.77-2.03 7.44-2.52 2.7-.49 5.36-.74 8-.74l6.96.04zm43.66 17.13l9.57-55.19h14.39l-11.57 66.8H267.7l.44-11.61zm-26.01-11l.09-.96c.35-2.87 1-5.77 1.96-8.7a31.1 31.1 0 0 1 3.91-8c1.68-2.41 3.75-4.32 6.22-5.74 2.49-1.42 5.45-2.07 8.87-1.96 2.9.12 5.28.99 7.13 2.61s3.29 3.68 4.31 6.18a31.8 31.8 0 0 1 2.09 7.78c.38 2.73.54 5.23.48 7.52l-.13 1.17c-.44 2.47-1.19 5.09-2.26 7.87a35.2 35.2 0 0 1-4.13 7.78 21.8 21.8 0 0 1-6 5.87c-2.32 1.48-4.94 2.17-7.87 2.09-3.19-.09-5.8-.86-7.83-2.31a14.4 14.4 0 0 1-4.7-5.65c-1.07-2.32-1.77-4.84-2.09-7.57a38.9 38.9 0 0 1-.04-8zm14.44-1l-.09.91-.22 3.61c-.06 1.36.01 2.7.22 4 .23 1.3.71 2.41 1.44 3.3.75.87 1.87 1.35 3.35 1.44 2.15.09 3.9-.42 5.26-1.52a10.5 10.5 0 0 0 3.17-4.22c.75-1.74 1.23-3.52 1.44-5.35l.39-3.48a31.3 31.3 0 0 0 .22-3.78 13.4 13.4 0 0 0-.44-3.78 6.1 6.1 0 0 0-1.74-2.96c-.84-.78-2.06-1.19-3.65-1.22-1.68-.06-3.1.33-4.26 1.17-1.13.84-2.04 1.94-2.74 3.31-.67 1.33-1.19 2.77-1.56 4.31-.35 1.51-.61 2.93-.78 4.26zm55.23 24.48c-3.25-.06-6.2-.65-8.87-1.78a19.7 19.7 0 0 1-6.78-4.78c-1.86-2.03-3.23-4.41-4.13-7.13a24 24 0 0 1-.96-9l.17-1.7a32.2 32.2 0 0 1 2.44-9.57 25.8 25.8 0 0 1 5.13-7.83c2.15-2.26 4.67-4.01 7.57-5.26a23.4 23.4 0 0 1 9.83-1.74c3.28.06 6.1.71 8.48 1.96a16.1 16.1 0 0 1 5.87 5.09c1.51 2.12 2.55 4.55 3.13 7.31.61 2.73.75 5.62.44 8.7l-.83 5.96h-37.4l1.48-9.18 23.05.04.26-1.26c.2-1.36.15-2.59-.17-3.7a4.8 4.8 0 0 0-1.78-2.61c-.87-.67-2.04-1.03-3.52-1.09-1.8-.03-3.29.36-4.48 1.17-1.16.81-2.1 1.88-2.83 3.22-.7 1.33-1.23 2.78-1.61 4.35-.38 1.54-.65 3.01-.83 4.44l-.17 1.65a17.8 17.8 0 0 0 .13 4.13 10.4 10.4 0 0 0 1.22 3.61 7.6 7.6 0 0 0 2.57 2.61 8.4 8.4 0 0 0 4.04 1.04 13.5 13.5 0 0 0 6.09-1.22 17.6 17.6 0 0 0 5.09-3.57l5.96 7.92a15.3 15.3 0 0 1-5.04 4.78 24.1 24.1 0 0 1-6.65 2.61c-2.35.58-4.64.86-6.87.83zm90.93-12.61l-2.04 11.74h-32.83l2.04-11.74h32.83zm-18.53-51.58l-11 63.32h-14.87l10.96-63.32h14.92zm18.87 25.14l-1.96 11.35H372.5l2-11.35h28.57zm8.7-25.14l-2.04 11.78h-32.96l2.09-11.78h32.92zm29.57 14.05l-23.31 49.27h-16.48l33.57-63.32h10.52l-4.3 14.05zm4 49.27l-6.44-50.79.35-12.52h9.92l11.7 63.32h-15.52zm3.39-23.61l-2.09 11.78h-31.61l2.09-11.78h31.62zm51.45 6.48c.26-1.36.16-2.52-.3-3.48a6.2 6.2 0 0 0-2-2.44 13 13 0 0 0-3-1.7l-3.22-1.35-6.7-3.04c-2.2-1.16-4.2-2.52-6-4.09a17.2 17.2 0 0 1-4.22-5.48c-.99-2.09-1.41-4.54-1.26-7.35.2-3.22 1.12-5.99 2.74-8.31a19.1 19.1 0 0 1 6.22-5.65c2.55-1.48 5.29-2.55 8.22-3.22a34.6 34.6 0 0 1 8.65-.96 24.4 24.4 0 0 1 10.7 2.44 17.8 17.8 0 0 1 7.44 6.74c1.8 2.9 2.67 6.41 2.61 10.52h-14.74c.06-1.62-.16-3.03-.65-4.22-.46-1.22-1.23-2.16-2.3-2.83a7.8 7.8 0 0 0-4.18-1.09c-1.42-.03-2.84.2-4.26.7a9.7 9.7 0 0 0-3.7 2.17 6.8 6.8 0 0 0-2 3.83c-.2 1.19-.01 2.23.56 3.13a7.8 7.8 0 0 0 2.39 2.26 21.6 21.6 0 0 0 3.18 1.56l2.96 1.13c2.38.9 4.65 1.96 6.83 3.17 2.2 1.19 4.14 2.6 5.83 4.22a16.4 16.4 0 0 1 3.91 5.7c.93 2.15 1.3 4.64 1.13 7.48-.23 3.28-1.1 6.07-2.61 8.39a18.1 18.1 0 0 1-5.83 5.65 26.6 26.6 0 0 1-7.83 3.18 36.2 36.2 0 0 1-8.65.96 31.2 31.2 0 0 1-9.18-1.48c-2.84-.96-5.32-2.33-7.44-4.13a18.6 18.6 0 0 1-4.91-6.7c-1.16-2.67-1.71-5.73-1.65-9.18l14.92.04c-.09 1.62.01 3.06.31 4.31a7.6 7.6 0 0 0 1.56 3.09c.75.81 1.72 1.44 2.91 1.87a13.4 13.4 0 0 0 4.31.61c1.42 0 2.78-.22 4.09-.65 1.33-.46 2.46-1.17 3.39-2.13s1.52-2.19 1.78-3.7zm41.36-46.18l6.52 27.4 16.05-27.4h16.7l-27.27 41.27-3.78 22.05h-15.18l4.09-23.48-12.7-39.79 15.57-.04zm58.75 0l-9.31 43.27h-11.65l5.7-43.27h15.26zm-25.48 57.01c-.06-2.26.7-4.1 2.26-5.52a8.2 8.2 0 0 1 5.65-2.13c2.09-.03 3.9.62 5.44 1.96 1.57 1.31 2.38 3.03 2.44 5.18.03 2.23-.74 4.07-2.31 5.52-1.57 1.42-3.44 2.13-5.61 2.13a8.1 8.1 0 0 1-5.48-1.91c-1.54-1.31-2.33-3.04-2.39-5.22z" fill="#5b5b5b"/><g filter="url(#B)"><path d="M323 71.25a11.9 11.9 0 0 0-11.87-11.87H0v89.06h311.12A11.9 11.9 0 0 0 323 136.56V71.25z" fill="#3886e7"/><path d="M49.82 90.8v25.33h-6.11V90.8h6.11zm7.62 0v4.71H36.27V90.8h21.17zm8.05-1.39v26.72h-5.86V89.41h5.86zm-.7 16.66l-1.37.03a13 13 0 0 1 .49-3.65c.32-1.11.79-2.08 1.39-2.91s1.33-1.46 2.17-1.91a5.9 5.9 0 0 1 2.82-.68c.93 0 1.77.13 2.54.4a4.9 4.9 0 0 1 2 1.29 5.8 5.8 0 0 1 1.3 2.31 11.2 11.2 0 0 1 .47 3.48v11.69h-5.9V104.4c0-.77-.11-1.36-.33-1.77-.21-.43-.51-.72-.9-.89-.39-.17-.88-.26-1.44-.26a3.5 3.5 0 0 0-1.67.35c-.43.23-.76.56-.99.97a4.3 4.3 0 0 0-.45 1.44 12.7 12.7 0 0 0-.12 1.83zm24.18 10.4c-1.53 0-2.9-.24-4.11-.71-1.21-.49-2.23-1.15-3.06-2-.82-.85-1.46-1.82-1.9-2.92-.43-1.1-.64-2.27-.64-3.5v-.66c0-1.38.19-2.66.57-3.83.38-1.18.95-2.21 1.7-3.1a7.6 7.6 0 0 1 2.84-2.05 9.8 9.8 0 0 1 3.97-.75c1.33 0 2.53.21 3.58.64a7.3 7.3 0 0 1 2.68 1.84c.74.8 1.3 1.77 1.69 2.9.39 1.14.59 2.41.59 3.83v2.38H81.51v-3.67h9.65v-.45c.01-.63-.1-1.16-.33-1.6-.22-.44-.55-.78-.97-1.01s-.95-.35-1.57-.35a2.8 2.8 0 0 0-1.58.42c-.41.28-.72.66-.96 1.15a6 6 0 0 0-.47 1.65c-.09.63-.14 1.29-.14 1.98v.66a6.1 6.1 0 0 0 .28 1.9 4.3 4.3 0 0 0 .83 1.46c.37.39.81.7 1.32.92.52.22 1.11.33 1.77.33a6.5 6.5 0 0 0 2.37-.45c.78-.3 1.44-.8 2-1.5l2.66 3.17a6.9 6.9 0 0 1-1.64 1.58c-.7.51-1.53.93-2.5 1.25-.97.31-2.06.47-3.27.47zm33.85-8.92h6.09a9.2 9.2 0 0 1-1.43 4.66 8.8 8.8 0 0 1-3.62 3.15c-1.53.74-3.34 1.11-5.43 1.11a11.5 11.5 0 0 1-4.54-.85c-1.32-.57-2.45-1.39-3.37-2.45-.92-1.07-1.62-2.36-2.11-3.88-.48-1.52-.71-3.23-.71-5.13v-1.37a16.4 16.4 0 0 1 .75-5.13 11.3 11.3 0 0 1 2.16-3.9c.94-1.08 2.06-1.9 3.38-2.47s2.77-.85 4.37-.85c2.2 0 4.06.39 5.58 1.18a8.7 8.7 0 0 1 3.53 3.25 10.6 10.6 0 0 1 1.48 4.68h-6.09a5.9 5.9 0 0 0-.49-2.38 3 3 0 0 0-1.43-1.46c-.65-.32-1.51-.49-2.59-.49-.75 0-1.41.14-1.97.42s-1.02.72-1.39 1.32a7 7 0 0 0-.83 2.35c-.17.95-.26 2.1-.26 3.44v1.41c0 1.34.08 2.49.24 3.44s.42 1.73.78 2.33.82 1.05 1.39 1.34a4.9 4.9 0 0 0 2.12.42c.93 0 1.71-.14 2.35-.43a3.3 3.3 0 0 0 1.48-1.36 5 5 0 0 0 .56-2.35zm7.97-.64v-.37c0-1.38.2-2.65.59-3.81.39-1.17.97-2.19 1.74-3.04a7.8 7.8 0 0 1 2.84-2c1.13-.49 2.42-.73 3.9-.73 1.48 0 2.79.24 3.91.73a7.8 7.8 0 0 1 2.85 2c.77.86 1.34 1.87 1.74 3.04.39 1.16.59 2.43.59 3.81v.37c0 1.37-.2 2.64-.59 3.81-.39 1.16-.97 2.17-1.74 3.04-.77.86-1.71 1.53-2.84 2s-2.42.71-3.9.71-2.78-.24-3.91-.71a7.8 7.8 0 0 1-2.85-2c-.76-.87-1.34-1.88-1.74-3.04-.39-1.17-.59-2.44-.59-3.81zm5.86-.37v.37a11.8 11.8 0 0 0 .16 1.98 5.4 5.4 0 0 0 .52 1.62c.24.45.57.81.99 1.06s.94.38 1.57.38c.61 0 1.13-.13 1.53-.38.42-.26.75-.61.99-1.06a5.4 5.4 0 0 0 .52-1.62 11.9 11.9 0 0 0 .16-1.98v-.37c0-.68-.05-1.33-.16-1.93a5.4 5.4 0 0 0-.52-1.62 2.8 2.8 0 0 0-.99-1.11c-.42-.27-.94-.4-1.57-.4-.61 0-1.13.13-1.55.4-.41.27-.73.64-.97 1.11a5.4 5.4 0 0 0-.52 1.62c-.11.6-.16 1.25-.16 1.93zm20.67-5.22v14.8h-5.86V97.3h5.5l.37 4.02zm-.7 4.75l-1.37.03a13 13 0 0 1 .52-3.84 8.5 8.5 0 0 1 1.48-2.89 6.3 6.3 0 0 1 2.28-1.79c.89-.42 1.88-.63 2.97-.63a7.1 7.1 0 0 1 2.38.38c.73.26 1.36.67 1.88 1.24.53.57.94 1.32 1.22 2.26a11.7 11.7 0 0 1 .44 3.44v11.85h-5.9v-11.86c0-.75-.1-1.33-.31-1.72-.21-.41-.51-.68-.91-.83s-.88-.23-1.44-.23c-.6 0-1.11.12-1.53.35a2.7 2.7 0 0 0-1.01.97 4.6 4.6 0 0 0-.54 1.44c-.1.56-.16 1.17-.16 1.83zm23 5.88a3 3 0 0 0 1.39-.3c.39-.21.69-.5.89-.87a2.7 2.7 0 0 0 .29-1.37h5.52a6.5 6.5 0 0 1-1.04 3.72c-.7 1.06-1.65 1.88-2.85 2.47-1.19.58-2.54.87-4.05.87a9.7 9.7 0 0 1-3.86-.71c-1.1-.49-2.02-1.16-2.76-2.02a8.9 8.9 0 0 1-1.65-3.04 12.7 12.7 0 0 1-.54-3.77v-.4a12.7 12.7 0 0 1 .54-3.77c.37-1.17.92-2.19 1.65-3.04a7.5 7.5 0 0 1 2.75-2.02c1.1-.49 2.38-.73 3.84-.73a9.2 9.2 0 0 1 4.14.89 6.7 6.7 0 0 1 2.84 2.57c.68 1.13 1.02 2.49 1.01 4.09h-5.52a3.8 3.8 0 0 0-.26-1.53c-.19-.45-.48-.81-.87-1.08-.38-.28-.88-.42-1.48-.42s-1.09.13-1.46.4-.66.64-.85 1.11c-.19.46-.31 1-.38 1.6l-.09 1.93v.4l.09 1.97a5.8 5.8 0 0 0 .4 1.6c.2.45.48.81.85 1.08.37.25.86.38 1.48.38zm16.79-22.54v26.72h-5.88V89.41h5.88zm14.61 22.14V97.3h5.88v18.82h-5.5l-.38-4.58zm.56-3.83l1.53-.03a13 13 0 0 1-.45 3.51 8.4 8.4 0 0 1-1.34 2.78 6.1 6.1 0 0 1-2.16 1.84c-.85.43-1.83.64-2.94.64-.93 0-1.78-.13-2.56-.38-.77-.27-1.43-.68-1.98-1.23-.56-.57-.99-1.29-1.31-2.17-.3-.89-.45-1.96-.45-3.2V97.3h5.86v12.21a3.3 3.3 0 0 0 .16 1.08 2.1 2.1 0 0 0 .45.77c.2.2.44.35.73.45a3.5 3.5 0 0 0 1.03.14 3.4 3.4 0 0 0 2.07-.56 2.9 2.9 0 0 0 1.04-1.51c.21-.64.31-1.36.31-2.16zm18.42 3.11c0-.33-.11-.6-.33-.84-.21-.24-.58-.46-1.11-.66-.53-.21-1.28-.42-2.24-.63-.92-.2-1.78-.46-2.59-.78-.8-.33-1.5-.72-2.1-1.18s-1.08-1.02-1.43-1.65c-.34-.64-.5-1.37-.5-2.19a5.2 5.2 0 0 1 .5-2.26 5.6 5.6 0 0 1 1.51-1.9c.67-.56 1.49-.99 2.45-1.3.96-.32 2.06-.49 3.29-.49 1.69 0 3.15.26 4.38.78 1.23.51 2.17 1.23 2.84 2.16.67.92 1.01 1.98 1.01 3.18h-5.86c0-.48-.08-.88-.24-1.22-.15-.34-.4-.59-.75-.77-.35-.19-.81-.28-1.39-.28a2.7 2.7 0 0 0-1.11.23 2 2 0 0 0-.78.63c-.2.27-.3.58-.3.94 0 .26.06.49.17.7.13.2.32.38.57.56.25.16.58.31.97.45.39.13.87.24 1.43.35 1.26.23 2.45.56 3.55.99a6.7 6.7 0 0 1 2.68 1.83c.69.79 1.04 1.85 1.04 3.18a4.8 4.8 0 0 1-.57 2.31c-.38.69-.93 1.31-1.65 1.84-.72.52-1.58.93-2.59 1.22s-2.14.44-3.41.44c-1.8 0-3.32-.32-4.56-.96-1.24-.65-2.18-1.46-2.82-2.44-.63-.99-.94-1.98-.94-2.99h5.46c.02.58.16 1.06.42 1.43.27.37.62.64 1.06.82s.95.26 1.53.26c.53 0 .97-.08 1.32-.23.36-.15.63-.35.82-.61.19-.27.28-.57.28-.92zm14.59-13.53v18.82h-5.88V97.3h5.88zm-6.23-4.85c0-.84.3-1.52.9-2.05s1.39-.8 2.35-.8 1.75.27 2.35.8.91 1.22.91 2.05-.3 1.52-.91 2.05-1.39.8-2.35.8-1.74-.27-2.35-.8-.9-1.22-.9-2.05zm9.12 14.46v-.37c0-1.38.2-2.65.59-3.81.4-1.17.97-2.19 1.74-3.04a7.8 7.8 0 0 1 2.84-2c1.13-.49 2.42-.73 3.9-.73 1.48 0 2.79.24 3.91.73a7.8 7.8 0 0 1 2.85 2c.77.86 1.35 1.87 1.74 3.04.39 1.16.59 2.43.59 3.81v.37c0 1.37-.2 2.64-.59 3.81-.39 1.16-.97 2.17-1.74 3.04a7.8 7.8 0 0 1-2.83 2c-1.12.47-2.42.71-3.9.71s-2.78-.24-3.91-.71a7.8 7.8 0 0 1-2.85-2c-.77-.87-1.34-1.88-1.74-3.04-.39-1.17-.59-2.44-.59-3.81zm5.86-.37v.37a11.8 11.8 0 0 0 .16 1.98 5.4 5.4 0 0 0 .52 1.62c.24.45.57.81.99 1.06s.94.38 1.57.38c.61 0 1.12-.13 1.53-.38.42-.26.75-.61.99-1.06.24-.46.42-1 .52-1.62a11.9 11.9 0 0 0 .16-1.98v-.37c0-.68-.05-1.33-.16-1.93-.1-.61-.28-1.15-.52-1.62a2.8 2.8 0 0 0-.99-1.11c-.42-.27-.94-.4-1.57-.4-.61 0-1.13.13-1.55.4-.41.27-.73.64-.97 1.11a5.4 5.4 0 0 0-.52 1.62c-.1.6-.16 1.25-.16 1.93zm20.66-5.22v14.8h-5.86V97.3h5.5l.36 4.02zm-.69 4.75l-1.37.03a13 13 0 0 1 .52-3.84 8.5 8.5 0 0 1 1.48-2.89 6.3 6.3 0 0 1 2.28-1.79c.89-.42 1.88-.63 2.97-.63a7.1 7.1 0 0 1 2.38.38c.73.26 1.36.67 1.88 1.24.53.57.94 1.32 1.22 2.26a11.7 11.7 0 0 1 .44 3.44v11.85h-5.9v-11.86c0-.75-.1-1.33-.31-1.72-.21-.41-.51-.68-.9-.83s-.88-.23-1.44-.23c-.6 0-1.11.12-1.53.35s-.75.56-1.01.97c-.24.41-.42.89-.54 1.44-.1.56-.16 1.17-.16 1.83z" fill="#fff"/></g><g clip-path="url(#F)"><path d="M911.68 441.66c37.36 0 67.64-5.87 67.64-13.12s-30.28-13.12-67.64-13.12-67.64 5.88-67.64 13.12 30.28 13.12 67.64 13.12z" fill="#b9d8ff"/><g fill="#73b1ff"><path d="M911.68 441.66c-37.36 0-67.64-5.87-67.64-13.12v14.93c0 7.25 30.28 13.12 67.64 13.12s67.64-5.87 67.64-13.12v-14.93c0 7.25-30.28 13.12-67.64 13.12zm-73.73-13.82v6.81l-4.05-3.7.32-3.11h3.72z"/></g><path d="M739.47 433.09v8.18l6.57-3.04-4.01-5.59-2.57.46z" fill="#ad4ca9"/><path d="M902.5 446.64c-36.33 0-65.77-7.06-65.77-15.77 0-1.04.42-2.05 1.23-3.04-9.55-.72-19.7-1.1-30.23-1.1-26.31 0-50.26 2.4-68.25 6.35a95.2 95.2 0 0 0-11.65 2.51c-7.42 2.15-11.13 3.94-17.2 8.58-.26.2 0 0-.65.54-2.22 2-3.41 4.09-3.41 6.26 0 13.39 45.29 24.24 101.15 24.24s101.15-10.85 101.15-24.24c0-1.5-.57-2.95-1.65-4.38l-4.72.04.01-.01z" fill="#b9d8ff"/><path d="M807.77 475.37c-55.9 0-98.24-9.68-101.21-24.44v16.62c0 16.49 45.32 30.21 101.21 30.21s101.21-13.86 101.21-30.36v-16.47c-4.71 15.06-45.97 23.97-101.21 24.44z" fill="#73b1ff"/><path d="M911.89 424.52l-.46 1.18s-4.19 1.27-6.64 1.05c-2.89-.27-5.75.62-10.71.7-4.95.07-11.38-.11-12.07-2.55-.04-.65.12-1.22.46-1.72 1.25-1.85 4.98-3.04 11.22-5.26l.81-.3c6.53-2.52 6.92-5.35 6.92-5.35l10.95 3.67c.67 5.99-.48 8.59-.48 8.59z" fill="#000"/><path d="M917.87 333.81c.16 8.41-2.71 10.47-4.37 18.74-1.15 5.72-3.04 17.69-1.62 23.34 2.21 8.76 4.4 6.74 1.56 41.32-6.39 3.84-14.17 3.06-17.68-.03 5.04-21.93.72-36.69-.03-40.11-4.65-21.23-5.59-41.82-3.86-51.53 1.7-9.55 16.1 3.3 23.78 6.3l2.22 1.98z" fill="#3e4242"/><path d="M892.73 418.25c-5.65 2-9.09 3.17-10.27 4.92 1.2 1.92 4.5 2.33 6.44 2.33 1.88.01 3.97.11 5.77-.58 1.17-.44 1.55-1.35 1.49-2.35-1.36-1.26-2.47-2.72-3.42-4.31z" fill="#181a19"/><path d="M934.48 414.58c2.06 6.35.28 21.45-6.93 23.16-2.23.53-8.02.27-9.11-1.93-1.81-3.62 2.22-8.32 4.24-12.04 1.25-2.32.72-4.37.47-6.88-.32-3.32 2.63-2.69 5.1-3.1l6.24.78z" fill="#000"/><path d="M936.87 421.85c-1.41 1.96-9.87 3.94-10.54 4.1-.03.02-.05.02-.05.02l-5.36-4.43c1.86-9.96-.54-31.05-4.55-39.93-4.39-9.76-8.04-19.05-9.61-29.76-.65-4.44-2.48-12.78-3.91-19.64-2.37-2.2-5.39-4.86-7.87-7.82.74-4.92 1.5-9.85 2.52-14.7l26.23 14.44 3.39 1.86s1.31 29.3 2.51 38.21c1.15 8.48 4.4 16.49 5.99 24.89 1.4 7.47 2.85 22.08 1.23 32.77z" fill="#5b6061"/><path d="M923.25 425.43l-.77 1.51c.28.41 1.15.55 1.6.92-4.97-.86-6.46 6.66-1.38 7.44 3.45.54 7.29-.64 8.9-3.87.81-1.63 1.18-3.42 1.41-5.21-3.7 1.17-7.65 1.58-9.76-.78z" fill="#181a19"/><path d="M936.87 421.84c-1.41 1.96-9.87 3.94-10.54 4.1.12-4.87.08-9.75.08-14.6-.01-13.08-2.84-22.78-6.88-35.03-5.15-15.55-4.96-31.18-7.8-47.16l12.03-5.03 3.39 1.86s1.31 29.3 2.51 38.21c1.15 8.48 4.4 16.49 5.99 24.89 1.4 7.47 2.85 22.08 1.23 32.77z" fill="#515556"/><g fill="#ffc0ac"><path d="M859.56 299.46s-1.09.82-1.39 1.21c-.3.39-.31 1.08-.79 2.4-.47 1.33-2.82 4.78-4.29 5.41-1.47.64-4.1-2.76-3.05-5.18s5.61-8.52 5.61-8.52"/><path d="M853.96 294.73s-1.87 1.86-2.66 2.38-1.68 2.57-2.29 3.51-2.6 4.42-2.43 4.73 1.54.73 2.95-.69 1.64-1.19 1.64-1.19 1.33.24 3.65-2.01c2.32-2.26 3.22-4.53 3.22-4.53"/><path d="M851.33 296.51c-.31.85 2.37 2.97 2.37 2.97s2.55 1.9 5.48 2.12c2.13.16 5.2-1.74 5.2-1.74l-2.08-6.62s-9.79 0-10.97 3.27z"/></g><path d="M900.46 270.19l-9.38 21.13c-11.28 5.8-26.52 11.86-28.61 9.34a7.7 7.7 0 0 1-1.25-7.69s15.78-7.87 19.89-11.15l7.37-18.37c3.82-8.59 16.84-4.2 11.98 6.75z" fill="#797e81"/><path d="M889.2 278.8c.01 1.98.2 4.18.46 6.47v.02c.58 5.22 1.57 10.89 1.94 15.43.09 3.67.11 7.8-.08 12.07l-.11 2.21c-.33 5.47-.35 10.49-1.1 16.35 2.57 3.27 8.13 5.44 9.33 5.73.24-3.18 1.07-6.27 1.82-9.92.38 3.1 2.11 6.88 2.98 11.32 9.75 1.23 23.48-1.77 25.04-5.22.09-4.07-2.15-17.86-3.73-24.3-1.99-8.37 7.84-26.49 6.64-42-.18-.2-.37-.38-.56-.57-.37-.37-.73-.72-1.1-1.07s-.75-.69-1.12-1.03c-1.44-1.32-2.86-2.46-4.23-3.43-.29-.21-.58-.41-.87-.62-8.87-5.99-16.1-5.83-19.19-5.51l-1.38.18c-4.93.58-9.44 4.44-10.27 5.68-3.86 5.93-4.55 11.38-4.49 18.2z" fill="#717577"/><path d="M889.2 278.8c.01 1.98.2 4.18.46 6.47v.02c13.01 20.23 38.39 2.26 41.8-14.24a18.1 18.1 0 0 0 .38-4.65c-.37-.37-.73-.72-1.1-1.07s-.75-.69-1.12-1.03c-1.37-1.23-2.8-2.37-4.23-3.43-.29-.21-.58-.41-.87-.62-8.87-5.99-16.1-5.83-19.19-5.51l-1.38.18c-4.93.58-9.44 4.44-10.27 5.68-3.87 5.93-4.55 11.38-4.49 18.2z" fill="#83878b"/><path d="M916.96 256.88l-4.99 13.71-9.42 12.57-1.88-9.63.86-13.43 4.93 2.23 10.5-5.45z" fill="#ebf5f7"/><path d="M913.98 243.96l1.08 14.05c.02 2.46-3.62 4.4-6.06 4.43-2.45.01-4.45-1.97-4.47-4.43a4.8 4.8 0 0 1 .04-.63l1.86-13.75c.25-1.9 1.99-3.22 3.88-2.97 1.72.23 3.65 1.62 3.67 3.31z" fill="#f2b09e"/><path d="M906.57 261.76c-1.92-2.03-2.4-4.33-2.4-4.33l-2.64 1.07 1.14 7.43 3.42-3.6 2.69 5.13s3.18-1.32 7.84-10.36c-.98-1.77-1.74-2.64-1.74-2.64s-6.14 6.33-8.33 7.3z" fill="#d5dfe0"/><g fill="#e9001a"><path d="M903.45 265.11l1.13 2.35 1.42.72 2.08-2.03-2-3.81-2.64 2.78z"/><path d="M902.55 283.45c-.34-1.42-1.52-5.65-1.15-8.77.38-3.12 2.65-6.26 3.7-8.75 1.43-3.4 1.47 1.4 1.47 1.4l.61 7.98c0 2.55-4.58 8.25-4.62 8.14z"/></g><g fill="#94999d"><path d="M916.63 255.36a70.9 70.9 0 0 1 5.01 3.34l-1.97 6.52-4.05.21 3.66 1.35s-.97 6.82-16.73 16.67c2.21-4.61 13.68-20.26 14.08-28.1z"/><path d="M902.32 258.81s-2.25 17.02.23 24.63c-6.91-11.76-4.24-20.69-4.24-20.69l2-.43s-2.19-2.23-2-1.94 1.57-4.58 1.57-4.58h3.57l-1.13 3z"/></g><g fill="#797e81"><path d="M911.62 316.88c-.06.35.11.92.18 1.25 5.1.87 9.12.27 12.28-1.17.02-.4.12-.96.02-1.34l-12.48 1.26zm-16.49-2.42c-.11.38-.48.81-.68 1.15-.98-.11-2-.31-3.04-.62l.11-2.2 3.61 1.67z"/></g><path d="M904.17 288.56c0 .98-.62 1.77-1.37 1.77-.75 0-1.36-.79-1.36-1.77 0-.97.61-1.77 1.36-1.77.75 0 1.37.8 1.37 1.77z" fill="#3a3c3d"/><path d="M903.46 288.05c0 .4-.25.73-.54.73-.3 0-.54-.33-.54-.73s.24-.73.54-.73c.3 0 .54.32.54.73z" fill="#afafaf"/><path d="M903.92 299.56c0 .98-.61 1.77-1.37 1.77s-1.36-.79-1.36-1.77c0-.97.61-1.77 1.36-1.77s1.37.8 1.37 1.77z" fill="#616161"/><path d="M903.46 299.22c0 .4-.25.72-.54.72-.3 0-.54-.32-.54-.72 0-.41.24-.73.54-.73.3 0 .54.33.54.73z" fill="#afafaf"/><path d="M904.17 310.97c0 .98-.62 1.77-1.37 1.77-.75 0-1.36-.79-1.36-1.77s.61-1.77 1.36-1.77c.75 0 1.37.79 1.37 1.77z" fill="#3a3c3d"/><path d="M903.46 310.41c0 .4-.25.73-.54.73-.3 0-.54-.33-.54-.73s.24-.73.54-.73c.3 0 .54.33.54.73z" fill="#afafaf"/><path d="M906 265.99c-.89.06-1.78-.18-2.46-.69l.83 2.16 2.15.61 1.57-1.92-.49-.93c-.43.43-.95.74-1.61.77z" fill="#ce001e"/><g fill="#f0fefd"><path d="M914.64 255.36c-2.06 2.67-4.78 5.56-6.6 6.69-1.22.76-.95 1.03-.41 2.32.34.8.72 1.69 1.23 2.42 2.66-2.07 6.91-7.04 5.77-11.42zm-11.69 9.9c.53-.63 2.29-2.02 2.38-2.92.1-.97-1.83-2.11-2.46-2.6 0 0-.76 4 .08 5.51z"/></g><path d="M914.74 252.42c2.24 2.55 1.71 4.37 1.71 4.37l-2.28-1.59s.65-1.65.57-2.77z" fill="#d5dfe0"/><path d="M912.65 252.23c-1.19.65-1.58 2.91-4.21 4.31-3.54 1.86-6.02 1.78-7.26 2.01-2.12.38-4.21-1.19-4.46-2.41-.58-2.76-.57-5.18-.41-7.98.36-6.58 3.29-12.44 4.77-15.2 4.71-5.2 9.18-5.05 15.97-1.46 7.77 4.1 5.28 15.56-4.4 20.73z" fill="#ffccbc"/><path d="M919.77 246.16c-1.93 2.83-3.22 4.69-6.24 5.58l-2.23-2.72-.39-2.29v-.01l-.21-1.3-.4-2.16-.32-1.31 4.75-1.54 7.3-2.37c.18.53.2 1.25.1 2.02-.23 1.95-1.2 4.41-2.36 6.09z" fill="#560e00"/><path d="M919.77 246.16c-1.93 2.84-3.22 4.69-6.24 5.58l-2.23-2.72-.39-2.29.01-.01c.48-1.29 1.82-2.49 3.01-3.4l1.57-1.13c.02.21.13.48.23.78s.19.62.17.86c.45-.29.81-.77 1.06-1.29.26-.51.42-1.07.52-1.57.6-.4 1.35-.65 2.02-.61-.13.32-.18.65-.24.97l-.09.88a5.3 5.3 0 0 0 .72-1.32l.41-1.03a6.3 6.3 0 0 1 .75.06l1.08.15c-.23 1.95-1.2 4.41-2.36 6.09z" fill="#3f0801"/><path d="M921.7 239.29l-.64.63c-.38.35-.76.67-1.16.96-.19.16-.39.31-.62.44a11.2 11.2 0 0 1-2.31 1.21c-.41.18-.82.32-1.24.43-.6.17-1.2.28-1.8.35a12 12 0 0 1-2.18.09l-1.44-.14c-3.75-.54-7.52-2.58-10.74-5.72-1.25-1.22-.98-3.43.58-5.49 1.26-1.67 3.37-3.21 6.21-4.01 7.65-2.15 16.7 3.69 15.67 10a6.9 6.9 0 0 1-.33 1.25z" fill="#560e00"/><path d="M914.73 240.42a11 11 0 0 0-2.99 2.99 9.4 9.4 0 0 0-1.04 2.01l-.4-2.16c-3.64-.21-7.84-2.3-11.05-5.44-1.25-1.22-.66-3.71.9-5.77 2.13 3.39 6.58 7.2 9.13 8.14 2.96 1.1 7.98-2.74 11.5-2.99-2.14.99-4.27 1.93-6.04 3.21z" fill="#3f0801"/><path d="M913.8 247.69c3.07-3.32 4.73-.24 4.2 1.38a5.9 5.9 0 0 1-5.76 3.46c-.28-.04.06-2.05.35-2.72.4-.93.7-1.58 1.21-2.13z" fill="#ffccbc"/><path d="M932.87 323.49v1.7.13l-.08 2.18-.37 1.5c-.12.79.33 1.19.72 1.18.19-.01.37-.11.45-.31l.64-1.76.31-1.84s.27-1.48.15-1.65l-.54-.34-1.08-.67-.18-.11z" fill="#ffc0ac"/><path opacity=".1" d="M934.32 323.22l-1.21-.04-.05.42-.19 1.59-.46 3.81h0c-.12.79.33 1.19.72 1.18a3.9 3.9 0 0 1 .57-1.88c-.11-.49-.03-.89.32-1.64-.2-.46-.06-1.35.12-2.38l.18-1.05z" fill="#1d1d1b"/><path d="M933.92 324.67l-.96-.27-1.35-.38-.36-.1.21 1.31.29 1.82-.29 2.28-.53 1.54c-.21.87.28 1.33.71 1.31.18-.01.35-.1.44-.29l1-2.13.52-2.52s.41-2.37.31-2.57z" fill="#ffc0ac"/><path opacity=".1" d="M933.04 323.97l-1.41-.04-.01.08-.15 1.21.29 1.82-.29 2.28-.53 1.54c-.21.87.28 1.33.71 1.31-.04-.48.19-1.59.67-2.28-.13-.57-.03-1.04.37-1.91-.28-.65.01-2.04.28-3.59l.07-.42z" fill="#1d1d1b"/><path d="M932.44 326.32l-1.34-.38-1.17-.33-.26-.07.03.16.5 3.1-.3 2.37-.56 1.6c-.11.46-.03.82.14 1.05.29.41.84.43 1.06.01l1.05-2.22.54-2.62s.43-2.47.32-2.67z" fill="#ffc0ac"/><path opacity=".1" d="M931.23 325.1l-1.31.5-.23.09.5 3.1-.3 2.37-.56 1.6c-.11.47-.03.82.14 1.05.05-.68.34-1.34.78-1.97-.01-.85.24-1.72.65-2.6-.26-.6-.04-1.9.2-3.31l.14-.83z" fill="#1d1d1b"/><g fill="#ffc0ac"><path d="M933.37 313.89c-.51 1.11-2.11 1.67-3.6 1.49a3.7 3.7 0 0 1-1.99-.83l-.12 5.26a7.3 7.3 0 0 0-1.59 4.64l.43.41 1.63 1.56.36.12 1.76.61c1.55-.35 3.36-.99 4.45-2.54-.42-2.29-.79-4.4-1.6-5.74l.28-4.99z"/><path d="M930.73 326.68l-2.14-.61-.35-.1-.08-.02-.21-.06.14.85.13.8.26 1.61-.3 2.37-.56 1.61c-.18.73.12 1.18.48 1.32.27.11.57.03.72-.26l1.05-2.22.54-2.62s.43-2.47.32-2.68z"/><path d="M926.62 324.31l-.56.14a27.9 27.9 0 0 0 .06 3.93l-.66 2.25c-.04.15-.06.28-.06.39.01.44.35.61.75.48.27-.08.58-.29.84-.64.37-.49.82-1.78 1.02-2.46l.22-.86.15-.6.1-.4.12-.47.24-.96c-.65-.84-1.33-.98-2.21-.8z"/></g><g fill="#1d1d1b"><path opacity=".1" d="M928.19 325.49l-.03.47-.07.79a6.4 6.4 0 0 1-.78 2.61c-.16.76-.59 1.47-1.17 2.15.27-.08.58-.29.84-.64a10.5 10.5 0 0 0 1.02-2.46l.22-.86.26 1.61-.3 2.37-.56 1.61c-.18.72.12 1.18.48 1.32-.45-.86-.14-1.75.41-2.65-.21-.73.09-1.56.59-2.54-.36-.56-.58-1.38-.73-2.31l-.13-.97-.05-.49zm-.42-10.94l-.12 5.26a7.3 7.3 0 0 0-1.59 4.64 27.9 27.9 0 0 0 .06 3.93l-.66 2.25c-.04.15-.06.28-.06.39.39-1.23.8-2.29 1.24-2.86-.41-.99-.4-2.11-.15-3.31l.13-.55c-.18-1.61 1.1-3.6 2.22-4.24-.89-1.44-.2-3.43.92-4.69a3.7 3.7 0 0 1-1.99-.83z"/></g><path d="M932.67 266.77c4.49 4.61 4.77 17.4 5.9 26.37-.57 9.05-1.42 18.19-3.68 27.63-.39 3.37-8.47 3.1-8.93.5-.35-10.25 0-16.3 1.18-23.93-1.98-4.79-3.61-12.65-5.32-20.39-.3-7.4 5.98-13.06 10.85-10.19z" fill="#797e81"/><g fill="#83878b"><path d="M928.94 296.75c-.5 3.38-1.72 20.21-1.77 20.68.97 1.17 2.43 1.69 4.22 1.76 1.18.04 2.93-.21 2.96-.59.39-4.35 2.14-18.59 2.61-23.62-1.31 1.21-6.12 1.44-8.01 1.77zm1.26-27.89c-2.92.57-4.45 4.57-4.58 7.34-.11 2.47.53 4.83 1.06 7.24.41 1.88 1.28 3.85 1.4 5.78a22 22 0 0 1 3.25.8c-.77-.06-1.64.62-2.17 1.12 1.75.43 5.18 2.11 6.07-.25.86-2.28.29-5.96-.09-8.34-.6-3.78-1.18-7.62-2.76-11.13-.37-.82-.89-1.52-1.36-2.29l-.84-.27z"/></g><path d="M846.68 303.96s.79-.9.96-1.47.27-1.42.95-2.29c.68-.87 2.65-4.31 3.04-4.08s.79 1.23.48 2.56c-.31 1.33-.85 2.2-.88 2.54-.02.34 2.24.39 3.62-.07.76-.25 4-1.59 4.57-2.2.52-.01-.74 3.49-1.38 4.8-.46.94-3.59 4.23-3.59 4.23" fill="#ffa98f"/><path d="M794.81 426.96s.27 1.15-.1 2.32-1.02 1.98-1.77 2.83-1.99 1.88-2.85 2.4a25.3 25.3 0 0 0-2.38 1.69c-.69.67-1.7 2.25-1.7 2.25v.48s-.98 1.23-2.37 1.89a5.9 5.9 0 0 1-4.37.25c-1.66-.5-1.99-2.23-2.04-2.58-.06-.35 0-1.64 0-1.64" fill="#f2f2f2"/><path d="M784.17 428.71s3.34-1.08 5.21-2.45c2.59-1.89 4.49-1.41 5.13-.29.66 1.14.92 4.92-4.61 8.19-2.17 1.29-3.14 2.36-3.81 3.42-.52.81-1.49 1.81-2.59 2.37-.93.47-1.95.58-2.88.5-3.78-.31-4.57-4.2-2.73-7.14s6.27-4.6 6.27-4.6z" fill="#071a22"/><path d="M825.47 447.13v.14c0 .61-.18 1.22-.57 1.69-1.74 2.07-5.83 2.93-6.68 3.1-.05.02-.1.02-.15.03l-6.04.63c-1.41.15-2.25.4-2.25.4v.26a19.4 19.4 0 0 1-3.19.54h-.02c-1.23.04-2.7-.14-3.45-.78a3.4 3.4 0 0 1-.95-1.63v-.08l.02-.62v-.29l3.02-.21 1.51-.11 1.38-.08 1.28-.08 16.09-2.9z" fill="#f2f2f2"/><path d="M812.35 443.9s2.91 1.1 5.02 1.1 6.22-.05 7.27.69c.53.37.83.83.83 1.34-.01 2.87-6.67 4.6-10.68 4.92s-4.21.27-6.11.58c-1.89.32-3.87.48-5.06-.13-2.07-1.04-2.21-4.21-.94-6.3 1.26-2.08 9.68-2.22 9.68-2.22z" fill="#071a22"/><g fill="#ffa98f"><path d="M803.67 441.27l-.19 3.77c-.04.57-.34 1.08-.25 1.59.13.81 2.03 1.63 4.62 1.34s4.7-1.75 5.18-2.56-.25-1.05-.37-1.39c-.19-.53 0-5.3-.35-3.68m-33.87-9.9l-.14 2.89s-.38.67-.24 1.25c.18.79 2.37 2.3 5.36.69 3.35-1.8 2.99-4.47 3.01-4.62.17-1.21-.49-.07-.49-1.03"/></g><path d="M823.43 380.97c-1.07 9.68-4.47 26.06-5.64 34.29l-3.46 27.18s-1.21 1.94-5.59 2.53c-4.31.58-6.13-2.07-6.13-2.07s-1.43-26.36-1.13-31.16c.3-4.81 1.69-13.64 1.49-18.35-.13-3.39-.1-11.45-1.74-18.56a25 25 0 0 1-.73 2.03c-2.49 5.73-7.22 18.04-8.53 22.71-1.26 4.54-4.52 31.29-4.52 31.29-.19.41-.64.89-1.33 1.38-.84.58-2.02 1.17-3.4 1.56-3.93 1.12-5.3-1.17-5.3-1.17-.47-2.79.23-33.44 1.21-38.72 1.1-5.92 1.99-13.3 2.29-18.31.3-5.02 1.83-16.26 1.23-22.8-.23-2.47.04-4.69.48-6.47.7-2.97 1.83-4.8 1.83-4.8s37.72 2.09 38.99 7.91c.36 1.66.62 3.57.78 5.64.66 7.94.06 18.19-.79 25.88z" fill="#0745b4"/><path d="M811.12 272.55a9.4 9.4 0 0 1-2.64 1.14l-.17.04c-.07.02-.13.04-.21.07l-.72.26c-.27.14-.47.3-.55.52-.34.91 0 6.29 0 6.29l-1.68-.59-10.17-3.56s.13-2.77 0-5.32-.34-16.17 3-18.51c3.34-2.36 12.93-.91 14.01.41l.98 5.95c.66 3.87.06 12.04-1.85 13.3z" fill="#ffa98f"/><path d="M805.76 275.05a5.3 5.3 0 0 1 1.63-.98c-.27.14-.47.3-.55.52-.34.91 0 6.29 0 6.29l-1.68-.58c-.12-1.72-.26-4.49.59-5.25z" fill="#f1bf9c"/><path d="M805.17 247.41s-4.53-.18-7.52.87c-6.1 2.14-7.5 7.67-7.23 11.53.28 3.92 2.4 6.68 2.95 7.97.54 1.29.59 3.59 1 4.33s7.27 1.89 8 1.43a9.8 9.8 0 0 0 2.66-4.15c.13-1.1-.04-3.82.22-4.79.28-.97 1.49-2.21 2.18-2.08s1.09 1.34 1.36 2.53.86 1.19 1.13.92c.28-.28.13-3.27.32-4.19s.54-1.15.45-3.87.72-1.99 1.99-3.55c6.93-6.47-7.51-6.97-7.51-6.97z" fill="#061728"/><path d="M817.95 315.29v.01l.53 1.08 3.19 5.6c.02.01.66.83 1.49 1.77 3.12 2.92 7.35 2.19 9.29.01h0s14.85-14.03 16.38-14.18c1.54-.15 1.49-.25 3.17-.51 1.68-.25 2.47-1.09 2.47-1.09s-3.15-4.49-3.64-7.23c-1.25.81-3.57 2.79-5.11 3.7l-14.7 8.36-1.17-2.81c-.01.03-1.9 3.75-5.84 5.24-3.7 1.44-5.81.19-6.05.04z" fill="#ffa98f"/><path d="M830.18 310.87c-.92.98-2.66 2.65-4.82 3.78a12.4 12.4 0 0 0 4.48-4.62l.34.84z" fill="#f4ccb0"/><path d="M801.21 374.84l-.73 2.03c-2.49 5.73-7.21 18.03-8.52 22.7-1.28 4.55-4.52 31.3-4.52 31.3a4 4 0 0 1-1.33 1.37c.54-6.42 2.64-27.25 3.44-30.78.98-4.34 1.4-6.02 2.66-8.93 1.26-2.92 7.29-17.12 3.84-24.05-2.25-4.53-3.2-8.73-3.58-11.07 1.23 5.71 6.54 10.37 6.54 10.37l2.21 7.05z" fill="#064093"/><path d="M781.85 349.3c2.29 1.91 19.35 13.2 28.13 13.64.05 0 .1 0 .14.01.6.03 1.17.03 1.73.01 5.92-.27 8.24-4.2 9.16-7.46 0 0 .66-2.98 1-3.1.28 0 2.24 6.27 2.45 7.22.45 2.05.31-5.31.03-9.8v-.02c-.15-3.78-.53-9.27-1.49-13.89-1.74-8.27-1.32-13.9-1.32-13.9v-.02l-.02-.02c-.18-.32-2.35-3.97-3.19-5.6-.18-.34-.35-.7-.53-1.08v-.01l.04.01c.01.02.03.02.04.04.02 0 .05.01.09.03.06.03.13.06.23.11a1.1 1.1 0 0 0 .28.12c.81.29 2.3.59 4.43-.02a6.6 6.6 0 0 0 .96-.31c.23-.1.48-.2.73-.29.21-.1.42-.2.62-.33 2.17-1.13 3.91-2.81 4.82-3.78l.74-.84c-2.14-6.25-5-11.77-6.61-14.81-2.59-4.82-7.93-8.25-14.6-11.37v-.01c1.49-3.56-.57-6.8-4.19-8a65.2 65.2 0 0 0-9.28-2.25c-2.6-.45-4.78.76-4.78 3.44-5.55-2.15-8.88.6-10.63 2.34-5.64 5.58-3.24 18.69 2.13 28.17 4.33 7.64 4.25 12.61 2.54 19.35-3.09 12.08-6.37 20.18-3.67 22.42z" fill="#3886e8"/><path d="M822.29 331.99c-.29-1.54-1.53-5.07-3.5-9.6-2.57-5.91-5.14-10.8-7.22-16.78l4.73 8.62 1.63 1.09s.02.02.03.05c.16.36.33.7.5 1.03a153.5 153.5 0 0 0 3.19 5.6l.02.02c-.01.01-.3 3.91.61 9.97z" fill="#2776cc"/><path d="M798.59 248.36c-1.84.5-2.63.78-3.46 1.38-.7.5-2.34 2.13-2.34 3.47-.01 2.38 4.94 4.47 9.37 4.45.84 0 2.48-.37 4.81-1.08 5.16-1.56 10.88-4.55 9.52-10.77 0 0-.73 1.29-1.65 1.48 0 0 1.21-4.04-3.57-6.11.26.11-1.67 2.39-1.79 2.5-1.85 1.64-3.65 2.76-5.38 3.36-1.66.59-1.65.26-5.5 1.31z" fill="#061728"/><path d="M950 162.88a11.9 11.9 0 0 0-12.53-11.86l-190 10.56a11.9 11.9 0 0 0-11.22 11.86v35.59a11.9 11.9 0 0 0 12.53 11.86L779 219.2l15.43 13.06v-13.92l144.35-8.02A11.9 11.9 0 0 0 950 198.46v-35.59z" fill="#4d9dff"/><path d="M788.15 188.59v2.92l-8.74.3v-2.92l8.74-.3zm-7.54-6.53v16.88l-3.78.13v-16.88l3.78-.13zm10.15-.35v16.88l-3.77.13v-16.88l3.77-.13zm2.1 10.66v-.24c0-.92.13-1.77.39-2.55a6 6 0 0 1 1.16-2.07 5.5 5.5 0 0 1 1.88-1.4c.74-.35 1.59-.54 2.55-.58.97-.03 1.83.1 2.57.4.75.29 1.38.71 1.89 1.27s.9 1.22 1.16 1.99a7.7 7.7 0 0 1 .39 2.53v.24c0 .91-.13 1.76-.39 2.55a6.2 6.2 0 0 1-1.16 2.07 5.5 5.5 0 0 1-1.88 1.4 6.6 6.6 0 0 1-2.56.56 6.4 6.4 0 0 1-2.56-.39c-.75-.29-1.38-.71-1.89-1.27-.51-.56-.9-1.22-1.16-1.99a7.8 7.8 0 0 1-.39-2.53zm3.63-.37v.24c0 .5.04.96.12 1.39a3.6 3.6 0 0 0 .41 1.12 2 2 0 0 0 .73.74c.31.17.68.24 1.12.23a2.2 2.2 0 0 0 1.11-.31c.3-.2.54-.46.73-.79s.32-.72.39-1.15a7.3 7.3 0 0 0 .13-1.4v-.24a6.9 6.9 0 0 0-.13-1.36c-.08-.43-.21-.81-.39-1.13s-.43-.58-.74-.75c-.3-.18-.68-.25-1.12-.24-.43.01-.8.12-1.1.32s-.54.46-.73.8-.32.73-.41 1.16c-.08.43-.12.89-.12 1.37zm13.81-3.96v9.87l-3.63.13v-12.55l3.41-.12.22 2.67zm-.48 3.17l-.9.05a8.7 8.7 0 0 1 .35-2.55 5.9 5.9 0 0 1 .99-1.95c.43-.55.95-.97 1.54-1.27a4.8 4.8 0 0 1 1.99-.49 4.8 4.8 0 0 1 1.61.2 2.9 2.9 0 0 1 1.25.78c.36.36.63.84.81 1.46.19.6.28 1.35.28 2.25v7.96l-3.64.13v-7.97c0-.53-.07-.93-.22-1.21s-.36-.47-.65-.58a2.6 2.6 0 0 0-1.02-.14c-.43.02-.79.11-1.09.29-.3.17-.55.41-.74.71a3.3 3.3 0 0 0-.43 1.05 6.1 6.1 0 0 0-.13 1.28zm16.19 6.38a7 7 0 0 1-2.68-.38c-.79-.29-1.46-.7-2-1.24a5.6 5.6 0 0 1-1.24-1.91 6.3 6.3 0 0 1-.43-2.34v-.44c0-.94.13-1.8.39-2.6s.64-1.5 1.15-2.09c.51-.61 1.14-1.08 1.88-1.42a6.4 6.4 0 0 1 2.54-.58c.89-.03 1.68.09 2.38.36a4.5 4.5 0 0 1 1.76 1.18 5.1 5.1 0 0 1 1.09 1.9 7.7 7.7 0 0 1 .38 2.51v1.48l-10.11.35v-2.33l6.56-.23v-.28c0-.44-.08-.82-.24-1.15-.15-.33-.39-.57-.7-.74-.3-.18-.68-.25-1.15-.24-.44.01-.81.12-1.1.32a2.1 2.1 0 0 0-.71.81 4.2 4.2 0 0 0-.37 1.18c-.08.44-.12.92-.12 1.43v.44a4.2 4.2 0 0 0 .2 1.33c.13.4.32.73.58 1.01s.56.49.93.64.78.22 1.24.2a4.3 4.3 0 0 0 1.63-.38c.52-.24.97-.61 1.34-1.09l1.69 1.88a5 5 0 0 1-1.08 1.12c-.46.36-1 .65-1.65.89a6.9 6.9 0 0 1-2.18.4zm13.65-4.2c0-.23-.07-.43-.22-.61-.14-.17-.39-.33-.76-.46-.36-.13-.88-.26-1.54-.39a10.9 10.9 0 0 1-1.75-.45c-.54-.2-1.01-.44-1.41-.73-.4-.3-.72-.65-.94-1.06a3 3 0 0 1-.34-1.44c0-.52.11-1.03.34-1.51.23-.48.56-.91 1-1.29.44-.38.97-.68 1.6-.91a7 7 0 0 1 2.16-.39c1.11-.04 2.06.1 2.86.42.8.31 1.42.77 1.85 1.37.43.6.65 1.29.65 2.08l-3.62.13c0-.32-.06-.6-.19-.84s-.31-.41-.57-.54c-.25-.13-.59-.19-1.01-.17-.32.01-.61.08-.86.2-.24.12-.43.27-.57.47a1.2 1.2 0 0 0-.2.68c0 .18.04.34.12.48.09.14.21.26.38.38.18.11.4.21.68.29a9.6 9.6 0 0 0 1.04.23c.87.13 1.67.33 2.39.6.73.27 1.31.65 1.74 1.16.44.5.66 1.18.66 2.03a3.2 3.2 0 0 1-.38 1.54c-.25.47-.61.89-1.08 1.25a5.6 5.6 0 0 1-1.69.87 8 8 0 0 1-2.23.37c-1.18.04-2.18-.14-3-.53s-1.44-.91-1.85-1.54a3.6 3.6 0 0 1-.62-1.97l3.4-.12c.02.42.12.75.31 1.01.2.26.46.44.78.55.32.1.67.15 1.07.14s.72-.08.99-.2.46-.27.6-.46c.14-.2.21-.42.21-.67zm13.56-13.87v16.88l-3.77.13v-16.88l3.77-.13zm5.13-.18v2.93l-13.93.49v-2.93l13.93-.49zm6.47 13.67v-5.38c0-.38-.06-.7-.17-.97a1.3 1.3 0 0 0-.54-.62c-.25-.15-.57-.21-.96-.2-.33.01-.62.08-.87.21-.24.12-.42.3-.56.52-.12.22-.18.49-.18.81l-3.62.13c0-.56.13-1.09.38-1.59a4.2 4.2 0 0 1 1.09-1.32c.48-.39 1.05-.69 1.71-.92.66-.23 1.41-.36 2.24-.39a6.4 6.4 0 0 1 2.62.41c.77.3 1.38.77 1.83 1.41.45.63.67 1.44.67 2.43v5.25c0 .76.04 1.35.13 1.78.09.42.22.79.39 1.1v.2l-3.65.13c-.17-.36-.3-.8-.38-1.33a10.5 10.5 0 0 1-.13-1.64zm.45-4.68l.02 1.99-1.8.06c-.4.01-.75.08-1.04.19-.29.11-.52.26-.7.44-.18.18-.31.38-.39.62-.08.23-.12.48-.12.75 0 .25.06.48.18.69.12.2.29.35.51.46s.47.16.75.15a2.5 2.5 0 0 0 1.21-.32 2.4 2.4 0 0 0 .79-.7c.18-.28.28-.53.28-.76l.87 1.48c-.14.31-.31.64-.51.98-.2.33-.46.65-.76.94-.31.29-.68.53-1.12.72a4.2 4.2 0 0 1-1.56.32c-.79.03-1.5-.11-2.14-.4-.64-.3-1.15-.73-1.54-1.28-.38-.55-.57-1.19-.57-1.93 0-.66.12-1.25.36-1.76a3.6 3.6 0 0 1 1.08-1.34c.49-.37 1.1-.66 1.83-.86a10.7 10.7 0 0 1 2.57-.37l1.81-.06zm9.38-10.49v17.81l-3.63.13v-17.81l3.63-.13zm8.52 17.75c-1 .03-1.89-.09-2.68-.38s-1.46-.7-2-1.24a5.6 5.6 0 0 1-1.24-1.91 6.3 6.3 0 0 1-.43-2.34v-.44c0-.94.13-1.8.39-2.6s.65-1.5 1.15-2.09c.51-.6 1.14-1.08 1.88-1.42a6.4 6.4 0 0 1 2.54-.58c.89-.03 1.68.09 2.38.36a4.5 4.5 0 0 1 1.76 1.18 5.1 5.1 0 0 1 1.09 1.9 7.7 7.7 0 0 1 .38 2.51v1.49l-10.11.35v-2.33l6.56-.23v-.28c0-.44-.08-.82-.24-1.15-.15-.33-.39-.57-.7-.74-.3-.17-.68-.25-1.15-.24-.44.02-.81.12-1.1.32a2.1 2.1 0 0 0-.71.81c-.17.34-.29.73-.37 1.18-.08.44-.12.92-.12 1.43v.44a4.2 4.2 0 0 0 .2 1.33c.13.4.32.74.58 1.01s.56.49.93.64.78.22 1.24.2a4.3 4.3 0 0 0 1.64-.38c.52-.24.96-.6 1.34-1.09l1.69 1.88a5 5 0 0 1-1.08 1.12 6.1 6.1 0 0 1-1.65.89 6.9 6.9 0 0 1-2.18.4zm10.52-10.47V195l-3.63.13v-12.55l3.41-.12.22 2.67zm-.48 3.17l-.9.06c0-.94.12-1.79.35-2.55s.56-1.41.99-1.95c.43-.55.95-.97 1.54-1.27a4.8 4.8 0 0 1 1.99-.49c.59-.02 1.13.05 1.61.2a2.9 2.9 0 0 1 1.25.78c.36.36.63.84.81 1.46.19.61.28 1.36.28 2.25v7.96l-3.64.13v-7.97c0-.53-.07-.93-.22-1.21s-.36-.47-.65-.58c-.28-.11-.62-.15-1.02-.14-.43.01-.79.11-1.09.29-.3.17-.55.41-.74.71s-.34.65-.43 1.05a6.1 6.1 0 0 0-.13 1.28zm16.65-6.41v2.54l-7.44.26v-2.54l7.44-.26zm-5.74-2.91l3.63-.13v11.72c0 .35.04.61.13.79s.22.31.42.38a2.2 2.2 0 0 0 .74.08l.56-.04.43-.07v2.62a6.5 6.5 0 0 1-.99.27c-.35.07-.73.12-1.14.13-.78.03-1.46-.08-2.03-.31a2.6 2.6 0 0 1-1.3-1.16c-.3-.55-.45-1.26-.45-2.15v-12.13z" fill="#fff"/></g></g><rect x="1" y="1" width="1138" height="638" rx="15" stroke="#0668e1" stroke-width="2"/><defs><filter id="B" x="-4.75" y="56.41" width="332.5" height="98.56" filterUnits="userSpaceOnUse" color-interpolation-filters="sRGB"><feFlood flood-opacity="0" result="A"/><feColorMatrix in="SourceAlpha" values="0 0 0 0 0 0 0 0 0 0 0 0 0 0 0 0 0 0 127 0" result="B"/><feOffset dy="1.78125"/><feGaussianBlur stdDeviation="2.38"/><feComposite in2="B" operator="out"/><feColorMatrix values="0 0 0 0 0 0 0 0 0 0 0 0 0 0 0 0 0 0 0.3 0"/><feBlend in2="A"/><feBlend in="SourceGraphic"/></filter><linearGradient id="C" x1="684.42" y1="496.76" x2="1692.82" y2="1182.23" gradientUnits="userSpaceOnUse"><stop stop-color="#b1d4ff"/><stop offset=".04" stop-color="#a2cbfc"/><stop offset=".16" stop-color="#479aff"/><stop offset=".28" stop-color="#0072ff"/><stop offset=".38" stop-color="#0668e1"/></linearGradient><linearGradient id="D" x1="863.63" y1="489.48" x2="1136.77" y2="809.96" gradientUnits="userSpaceOnUse"><stop offset=".38" stop-color="#7fb8ff"/><stop offset=".62" stop-color="#4095ff"/><stop offset=".85" stop-color="#0273ff"/><stop offset="1" stop-color="#0668e1"/></linearGradient><clipPath id="E"><rect width="1140" height="640" rx="16" fill="#fff"/></clipPath><clipPath id="F"><path fill="#fff" transform="translate(665 141.5)" d="M0 0h356.25v356.25H0z"/></clipPath></defs></svg>