<svg xmlns="http://www.w3.org/2000/svg" width="1140" height="640" fill="none" xmlns:v="https://vecta.io/nano"><style><![CDATA[.B{fill:#fff}.C{fill:#1a81ff}.D{fill:#0668e1}.E{fill:#1b1c17}.F{fill:#455a64}.G{fill:#107bff}]]></style><g clip-path="url(#K)"><rect width="1140" height="640" rx="16" class="B"/><mask id="A" maskUnits="userSpaceOnUse" x="0" y="0" width="1140" height="652"><path d="M1140 0H0v651.85h1140V0z" class="B"/></mask><g mask="url(#A)"><path d="M1145.4 106.35c-47.89 91.63-138.91 177.66-205.79 259.87-77.29 95-172.79 111.08-286.48 134.82-78.74 16.45-188.31 48.69-259.17 86.52-100.42 53.62-124.88 145.03-186.64 238.07-2.41 3.63-31.41 62.88-21.17 62.73l1014.16-15.55 5.31-834.01c-35.9 2.85-45.69 39.76-60.22 67.55z" fill="url(#G)"/><path d="M18.65 204.49c14.69-31.11 22.29-65.52 43.43-93.75 24.43-32.63 68.55-40.55 106.04-49.96 25.97-6.52 50.82-16.42 73.88-29.95 32.68-19.18 59.68-46.34 78.97-78.11.75-1.24 9.6-21.33 6.2-21.15L-9.92-49.68-.48 227.76c11.9-1.43 14.66-13.83 19.12-23.27z" fill="url(#H)"/><path d="M1209.59 220.96c-83.02 63.76-183.92 256.12-279.97 303.5-111.02 54.76-218.12 79.67-331.01 54.59-78.19-17.37-158.2-24.21-238.57-18.86-113.9 7.58-224.02 44.2-320.17 103.57-3.76 2.32-55.67 44.35-46.35 48.42l1133.96 371.6 154.97-726.45c-33.62-12.14-47.67-155.72-72.86-136.38z" fill="url(#I)"/><path d="M-20.2 178.92C6.01 155.91 35.33 89.76 66.23 71.9c35.72-20.64 70.78-31.27 108.88-25.42 26.38 4.05 53.14 4.57 79.75 1.02 37.71-5.02 73.52-19.62 104.2-41.46 1.2-.85 17.54-15.97 14.35-17.11l-385.29-98.58-35.54 244.86c11.45 3.3 19.28 50.71 27.23 43.73z" fill="url(#J)"/><g opacity=".2" class="B"><path d="M1083.89 485.93s-171.14 110.85-295.39 141c-92.2 22.37-149.09 0-244.62 0-92.22 0-155.75-4.76-236.14 0-113.95 6.75-224.07 42.57-320.19 101.2-3.76 2.3-55.64 43.95-46.32 48.08L1076 1155.86l154.32-725.04c-33.66-12.39-146.43 55.1-146.43 55.1z"/></g><g opacity=".2" class="B"><path d="M1187.56 578.83c-96.07 43-182.79 107.12-287.56 131.22-121.09 27.86-236.57-38.49-340.16-88.72-71.73-34.79-147.8-59.74-227.16-72.94-112.48-18.69-228.3-8.28-336.05 27.44-4.2 1.39-64.8 30.4-56.74 36.49l1011.46 620.92 326.38-671.01c-29.71-19.5-61.05 3.56-90.19 16.61l.02-.01z"/></g></g><path d="M122.61 222.16h19.93c3.9 0 7.28.58 10.16 1.74s5.09 2.88 6.65 5.15c1.58 2.27 2.37 5.08 2.37 8.42 0 2.9-.45 5.32-1.36 7.27s-2.17 3.56-3.79 4.84c-1.6 1.25-3.47 2.28-5.6 3.1l-4 2.26h-16.73l-.07-9.43h12.39a8 8 0 0 0 3.86-.84 5.4 5.4 0 0 0 2.3-2.37c.53-1.04.8-2.28.8-3.72 0-1.46-.27-2.71-.8-3.76a5.5 5.5 0 0 0-2.37-2.4c-1.02-.56-2.28-.83-3.79-.83h-7.72v41.23h-12.21v-50.65zm27.73 50.65l-11.2-22.4 12.94-.07 11.34 21.95v.52h-13.08zm36.43.7c-3.06 0-5.8-.47-8.21-1.43-2.41-.97-4.45-2.31-6.12-4-1.65-1.69-2.91-3.64-3.79-5.85a19.1 19.1 0 0 1-1.29-6.99v-1.32a24.5 24.5 0 0 1 1.15-7.65c.77-2.37 1.9-4.43 3.41-6.19a15.2 15.2 0 0 1 5.67-4.1 19.6 19.6 0 0 1 7.93-1.5 18.9 18.9 0 0 1 7.17 1.29 14.6 14.6 0 0 1 5.36 3.69c1.48 1.6 2.61 3.54 3.37 5.81.79 2.27 1.18 4.82 1.18 7.65v4.77h-30.75v-7.34h19.31v-.9c.02-1.25-.2-2.32-.66-3.2-.44-.88-1.09-1.55-1.95-2.02a6.5 6.5 0 0 0-3.13-.7 5.6 5.6 0 0 0-3.17.84c-.81.56-1.45 1.32-1.91 2.3a12.1 12.1 0 0 0-.94 3.31c-.19 1.25-.28 2.57-.28 3.97v1.32c0 1.39.19 2.66.56 3.79a8.6 8.6 0 0 0 1.67 2.92 7.9 7.9 0 0 0 2.64 1.84c1.04.44 2.23.66 3.55.66a13 13 0 0 0 4.73-.91c1.55-.6 2.89-1.6 4-2.99l5.32 6.33c-.76 1.09-1.85 2.15-3.27 3.17-1.39 1.02-3.06 1.86-5.01 2.5a21.3 21.3 0 0 1-6.54.94zm36.49-9.04a6 6 0 0 0 2.78-.59c.79-.42 1.38-1 1.77-1.74a5.4 5.4 0 0 0 .59-2.75h11.03c.02 2.83-.67 5.31-2.09 7.44a14.1 14.1 0 0 1-5.71 4.94c-2.39 1.16-5.09 1.74-8.11 1.74-2.95 0-5.52-.47-7.72-1.43-2.2-.97-4.05-2.32-5.53-4.04-1.46-1.74-2.56-3.77-3.31-6.09-.72-2.32-1.08-4.84-1.08-7.55v-.8c0-2.71.36-5.23 1.08-7.55.74-2.34 1.84-4.37 3.31-6.09a15 15 0 0 1 5.5-4.04c2.2-.97 4.77-1.46 7.69-1.46 3.13 0 5.89.59 8.28 1.77a13.4 13.4 0 0 1 5.67 5.15c1.37 2.25 2.04 4.98 2.02 8.18h-11.03a7.6 7.6 0 0 0-.52-3.06 4.7 4.7 0 0 0-1.74-2.16 4.9 4.9 0 0 0-2.96-.84 4.9 4.9 0 0 0-2.92.8c-.74.53-1.31 1.28-1.7 2.23-.37.93-.63 2-.77 3.2a40.4 40.4 0 0 0-.17 3.86v.8c0 1.39.06 2.7.17 3.93.14 1.21.41 2.27.8 3.2a5.1 5.1 0 0 0 1.71 2.16c.74.51 1.73.77 2.96.77zm33.02-19.97v28.32h-11.72v-37.64h10.96l.77 9.32zm11.13-9.6l-.21 10.89-1.88-.17c-.79-.07-1.45-.1-1.98-.1-1.37 0-2.55.16-3.55.49a6 6 0 0 0-2.44 1.39c-.63.6-1.09 1.37-1.39 2.3a10.6 10.6 0 0 0-.38 3.24l-2.12-1.39c0-2.53.24-4.82.73-6.89a18.7 18.7 0 0 1 2.16-5.39c.93-1.53 2.05-2.7 3.37-3.51 1.32-.84 2.81-1.25 4.45-1.25.58 0 1.15.03 1.7.1a8.5 8.5 0 0 1 1.53.31zm26.02 28.77v-28.49h11.76v37.64h-10.99l-.77-9.15zm1.11-7.65l3.06-.07c0 2.53-.3 4.87-.9 7.03-.6 2.13-1.5 3.99-2.68 5.57a12.2 12.2 0 0 1-4.31 3.69c-1.69.86-3.65 1.29-5.88 1.29a16.3 16.3 0 0 1-5.11-.76c-1.53-.53-2.85-1.36-3.97-2.47a11.7 11.7 0 0 1-2.61-4.35 20.1 20.1 0 0 1-.9-6.4v-24.35h11.72v24.42a6.6 6.6 0 0 0 .31 2.16 4.2 4.2 0 0 0 .91 1.53 3.9 3.9 0 0 0 1.46.91 7 7 0 0 0 2.05.28c1.76 0 3.14-.37 4.14-1.11a5.8 5.8 0 0 0 2.09-3.03c.42-1.28.63-2.71.63-4.31zm29.5-20.84v37.64h-11.76v-37.64h11.76zm-12.45-9.71c0-1.67.6-3.04 1.81-4.1s2.77-1.6 4.7-1.6 3.49.53 4.7 1.6 1.81 2.44 1.81 4.1-.6 3.04-1.81 4.11-2.77 1.6-4.7 1.6-3.49-.53-4.7-1.6-1.81-2.44-1.81-4.11zm39.52 9.71v8.14h-22.68v-8.14h22.68zm-17.92-9.36h11.72v34.72c0 1 .12 1.77.35 2.33.23.53.63.92 1.18 1.15.58.21 1.34.31 2.3.31.67 0 1.23-.01 1.67-.04a17.6 17.6 0 0 0 1.25-.17v8.38a19.2 19.2 0 0 1-3.13.73 20.7 20.7 0 0 1-3.48.28c-2.5 0-4.65-.39-6.44-1.18a8.4 8.4 0 0 1-4.04-3.72c-.93-1.69-1.39-3.9-1.39-6.61v-36.18zm40.81 47.7c-3.06 0-5.8-.47-8.21-1.43-2.41-.97-4.45-2.31-6.12-4-1.65-1.69-2.91-3.64-3.79-5.85a19.1 19.1 0 0 1-1.29-6.99v-1.32a24.5 24.5 0 0 1 1.15-7.65c.76-2.37 1.9-4.43 3.41-6.19a15.2 15.2 0 0 1 5.67-4.1 19.6 19.6 0 0 1 7.93-1.5 18.9 18.9 0 0 1 7.17 1.29 14.6 14.6 0 0 1 5.36 3.69c1.48 1.6 2.61 3.54 3.37 5.81.79 2.27 1.18 4.82 1.18 7.65v4.77h-30.75v-7.34h19.31v-.9c.02-1.25-.2-2.32-.66-3.2-.44-.88-1.09-1.55-1.95-2.02a6.5 6.5 0 0 0-3.13-.7 5.6 5.6 0 0 0-3.17.84c-.81.56-1.45 1.32-1.91 2.3a12.1 12.1 0 0 0-.94 3.31c-.19 1.25-.28 2.57-.28 3.97v1.32c0 1.39.19 2.66.56 3.79a8.6 8.6 0 0 0 1.67 2.92 7.9 7.9 0 0 0 2.64 1.84c1.04.44 2.23.66 3.55.66a13 13 0 0 0 4.73-.91c1.55-.6 2.89-1.6 4-2.99l5.32 6.33c-.76 1.09-1.85 2.15-3.27 3.17-1.39 1.02-3.06 1.86-5.01 2.5a21.3 21.3 0 0 1-6.54.94zm32.42-29.01v28.32H394.7v-37.64h10.96l.77 9.32zm11.13-9.6l-.21 10.89-1.88-.17c-.79-.07-1.45-.1-1.98-.1-1.37 0-2.55.16-3.55.49a6 6 0 0 0-2.44 1.39c-.63.6-1.09 1.37-1.39 2.3-.28.93-.41 2.01-.38 3.24l-2.12-1.39c0-2.53.24-4.82.73-6.89.51-2.09 1.23-3.89 2.16-5.39.93-1.53 2.05-2.7 3.38-3.51 1.32-.84 2.81-1.25 4.45-1.25.58 0 1.15.03 1.7.1a8.5 8.5 0 0 1 1.53.31zm-288.9 70.27h9.95l11.31 35.24 11.31-35.24h9.95l-17.22 50.65h-8.07l-17.22-50.65zm-6.05 0h10.3l1.91 38.83v11.83h-12.21v-50.65zm44.32 0h10.33v50.65h-12.25v-11.83l1.91-38.83zm16.14 32.22v-.73c0-2.76.39-5.3 1.18-7.62.79-2.34 1.95-4.37 3.48-6.09s3.42-3.05 5.67-4c2.25-.97 4.85-1.46 7.79-1.46 2.97 0 5.58.49 7.83 1.46 2.27.95 4.18 2.29 5.71 4s2.69 3.75 3.48 6.09c.79 2.32 1.18 4.86 1.18 7.62v.73c0 2.74-.39 5.28-1.18 7.62-.79 2.32-1.95 4.35-3.48 6.09-1.53 1.72-3.42 3.05-5.67 4s-4.85 1.43-7.79 1.43-5.56-.47-7.83-1.43-4.18-2.28-5.71-4c-1.53-1.74-2.69-3.77-3.48-6.09-.79-2.34-1.18-4.88-1.18-7.62zm11.72-.73v.73a23.7 23.7 0 0 0 .31 3.97c.21 1.23.56 2.31 1.04 3.24.49.91 1.15 1.61 1.98 2.12a5.9 5.9 0 0 0 3.13.77c1.23 0 2.25-.25 3.06-.77.84-.51 1.5-1.22 1.98-2.12a10.8 10.8 0 0 0 1.04-3.24 23.7 23.7 0 0 0 .31-3.97v-.73c0-1.37-.1-2.65-.31-3.86a10.8 10.8 0 0 0-1.04-3.24 5.6 5.6 0 0 0-1.98-2.23 5.7 5.7 0 0 0-3.13-.8c-1.23 0-2.26.27-3.1.8a5.7 5.7 0 0 0-1.95 2.23c-.49.93-.84 2.01-1.04 3.24-.21 1.21-.31 2.49-.31 3.86zm49.64-18.47v8.14h-22.68v-8.14h22.68zm-17.92-9.36h11.72v34.72c0 1 .12 1.77.35 2.33.23.53.63.92 1.18 1.15.58.21 1.34.31 2.3.31.67 0 1.23-.01 1.67-.04a17.7 17.7 0 0 0 1.25-.17v8.38a19.2 19.2 0 0 1-3.13.73 20.7 20.7 0 0 1-3.48.28c-2.5 0-4.65-.39-6.44-1.18a8.4 8.4 0 0 1-4.04-3.72c-.93-1.69-1.39-3.9-1.39-6.61v-36.18zm34.96 9.36v37.64h-11.76v-37.64h11.76zm-12.46-9.71c0-1.67.6-3.04 1.81-4.11s2.77-1.6 4.7-1.6 3.49.53 4.7 1.6 1.81 2.44 1.81 4.11-.6 3.04-1.81 4.1-2.77 1.6-4.7 1.6-3.49-.53-4.7-1.6-1.81-2.44-1.81-4.1zm33.26 39.31l7.41-29.61h12.35l-12.32 37.64h-7.31l-.14-8.04zm-4.38-29.61l7.31 29.61-.07 8.04h-7.34l-12.28-37.64h12.38zm46.62 28.18v-15.52a7.5 7.5 0 0 0-.45-2.75c-.3-.77-.78-1.36-1.43-1.77-.65-.44-1.52-.66-2.61-.66-.88 0-1.63.15-2.26.45a3.1 3.1 0 0 0-1.43 1.36c-.32.6-.49 1.37-.49 2.3h-11.72a10.4 10.4 0 0 1 1.15-4.84c.79-1.51 1.9-2.82 3.34-3.93 1.46-1.11 3.2-1.97 5.22-2.57a23.2 23.2 0 0 1 6.82-.94c2.99 0 5.66.5 8 1.5a12.5 12.5 0 0 1 5.6 4.49c1.37 1.97 2.05 4.45 2.05 7.44v15.41c0 2.46.14 4.32.42 5.6a12.9 12.9 0 0 0 1.18 3.31v.59h-11.76c-.56-1.16-.97-2.57-1.25-4.24a35 35 0 0 1-.38-5.22zm1.43-13.53l.07 6.26h-5.18a7.6 7.6 0 0 0-2.78.45 4.7 4.7 0 0 0-1.81 1.25c-.44.51-.76 1.09-.97 1.74a7.4 7.4 0 0 0-.28 2.05c0 .7.16 1.32.49 1.88.35.53.81.95 1.39 1.25s1.23.45 1.95.45a6.9 6.9 0 0 0 3.3-.73c.93-.51 1.64-1.12 2.12-1.84s.73-1.39.73-2.02l2.57 4.8c-.46.93-1 1.87-1.6 2.82a12.3 12.3 0 0 1-2.19 2.64c-.86.79-1.91 1.44-3.17 1.95a12.6 12.6 0 0 1-4.56.73 14.4 14.4 0 0 1-6.4-1.43c-1.93-.95-3.47-2.27-4.63-3.97a10.3 10.3 0 0 1-1.74-5.91c0-1.95.35-3.69 1.04-5.22a10.2 10.2 0 0 1 3.24-3.9c1.44-1.07 3.27-1.88 5.5-2.44s4.85-.84 7.86-.84h5.05zm36.7-14.65v8.14h-22.68v-8.14h22.68zm-17.92-9.36h11.72v34.72c0 1 .12 1.77.35 2.33.23.53.63.92 1.18 1.15.58.21 1.34.31 2.3.31a33 33 0 0 0 1.67-.04 17.7 17.7 0 0 0 1.25-.17v8.38a19.2 19.2 0 0 1-3.13.73 20.7 20.7 0 0 1-3.48.28c-2.5 0-4.65-.39-6.44-1.18a8.4 8.4 0 0 1-4.03-3.72c-.93-1.69-1.39-3.9-1.39-6.61v-36.18zm34.96 9.36v37.64h-11.76v-37.64h11.76zm-12.46-9.71c0-1.67.6-3.04 1.81-4.11s2.77-1.6 4.7-1.6 3.49.53 4.7 1.6 1.81 2.44 1.81 4.11-.6 3.04-1.81 4.1-2.77 1.6-4.7 1.6-3.49-.53-4.7-1.6-1.81-2.44-1.81-4.1zm18.23 28.91v-.73c0-2.76.39-5.3 1.18-7.62.79-2.34 1.95-4.37 3.48-6.09s3.42-3.05 5.67-4c2.25-.97 4.85-1.46 7.79-1.46 2.97 0 5.58.49 7.83 1.46 2.27.95 4.17 2.29 5.7 4s2.69 3.75 3.48 6.09c.79 2.32 1.18 4.86 1.18 7.62v.73c0 2.74-.39 5.28-1.18 7.62-.79 2.32-1.95 4.35-3.48 6.09-1.53 1.72-3.42 3.05-5.67 4s-4.85 1.43-7.79 1.43-5.55-.47-7.83-1.43-4.18-2.28-5.71-4c-1.53-1.74-2.69-3.77-3.48-6.09-.79-2.34-1.18-4.88-1.18-7.62zm11.73-.73v.73a23.7 23.7 0 0 0 .31 3.97 10.8 10.8 0 0 0 1.04 3.24c.49.91 1.15 1.61 1.98 2.12a5.9 5.9 0 0 0 3.13.77c1.23 0 2.25-.25 3.06-.77.83-.51 1.5-1.22 1.98-2.12.49-.93.83-2.01 1.04-3.24a23.8 23.8 0 0 0 .31-3.97v-.73c0-1.37-.1-2.65-.31-3.86-.21-1.23-.56-2.31-1.04-3.24a5.6 5.6 0 0 0-1.98-2.23 5.7 5.7 0 0 0-3.13-.8c-1.23 0-2.26.27-3.1.8a5.7 5.7 0 0 0-1.95 2.23 10.8 10.8 0 0 0-1.04 3.24c-.21 1.21-.31 2.49-.31 3.86zm41.33-10.44v29.61h-11.72v-37.64h10.99l.73 8.04zm-1.39 9.5l-2.75.07a26 26 0 0 1 1.04-7.69c.7-2.27 1.68-4.2 2.96-5.77a12.6 12.6 0 0 1 4.56-3.58c1.79-.83 3.77-1.25 5.95-1.25 1.74 0 3.33.25 4.77.76a9.1 9.1 0 0 1 3.76 2.47c1.07 1.14 1.88 2.64 2.44 4.52.58 1.86.87 4.15.87 6.89v23.69h-11.79v-23.73c0-1.51-.21-2.66-.63-3.44-.42-.81-1.02-1.37-1.81-1.67a8.1 8.1 0 0 0-2.89-.45c-1.21 0-2.23.23-3.06.7a5.4 5.4 0 0 0-2.02 1.95c-.49.81-.85 1.77-1.08 2.89-.21 1.11-.31 2.33-.31 3.65zm-308.48 73.45h9.95l11.31 35.24 11.31-35.24h9.95l-17.22 50.65h-8.07l-17.22-50.65zm-6.05 0h10.3l1.91 38.83v11.83h-12.21v-50.65zm44.32 0h10.33v50.65h-12.25v-11.83l1.91-38.83zm37.16 41.19v-15.52a7.5 7.5 0 0 0-.45-2.75c-.3-.77-.78-1.36-1.43-1.77-.65-.44-1.52-.66-2.61-.66-.88 0-1.63.15-2.26.45a3.1 3.1 0 0 0-1.43 1.36c-.32.6-.49 1.37-.49 2.3H183.7a10.4 10.4 0 0 1 1.15-4.84c.79-1.51 1.9-2.82 3.34-3.93 1.46-1.11 3.2-1.97 5.22-2.57a23.2 23.2 0 0 1 6.82-.94c2.99 0 5.66.5 8 1.5a12.5 12.5 0 0 1 5.6 4.49c1.37 1.97 2.05 4.45 2.05 7.44v15.41c0 2.46.14 4.32.42 5.6a12.9 12.9 0 0 0 1.18 3.31v.59h-11.76c-.56-1.16-.97-2.57-1.25-4.24a35 35 0 0 1-.38-5.22zm1.43-13.53l.07 6.26h-5.18a7.6 7.6 0 0 0-2.78.45 4.7 4.7 0 0 0-1.81 1.25c-.44.51-.76 1.09-.97 1.74a7.4 7.4 0 0 0-.28 2.05c0 .7.16 1.32.49 1.88.35.53.81.95 1.39 1.25s1.23.45 1.95.45a6.9 6.9 0 0 0 3.31-.73c.93-.51 1.64-1.12 2.12-1.84s.73-1.39.73-2.02l2.58 4.8a32 32 0 0 1-1.6 2.82c-.58.95-1.31 1.83-2.19 2.64-.86.79-1.91 1.44-3.17 1.95a12.6 12.6 0 0 1-4.56.73 14.4 14.4 0 0 1-6.4-1.43c-1.93-.95-3.47-2.27-4.63-3.97a10.3 10.3 0 0 1-1.74-5.91c0-1.95.35-3.69 1.04-5.22a10.2 10.2 0 0 1 3.24-3.9c1.44-1.07 3.27-1.88 5.5-2.44s4.85-.84 7.86-.84h5.04zm38.51 14.37v-44.81h11.79v53.44h-10.58l-1.22-8.63zm-23.1-9.74v-.73c0-2.85.31-5.45.94-7.79.63-2.37 1.55-4.4 2.78-6.09 1.23-1.72 2.76-3.04 4.59-3.97s3.94-1.39 6.33-1.39c2.13 0 4 .5 5.6 1.5 1.6.97 2.97 2.34 4.1 4.1s2.06 3.83 2.78 6.19c.72 2.34 1.26 4.87 1.64 7.58v.87c-.37 2.55-.92 4.96-1.64 7.24-.72 2.25-1.65 4.24-2.78 5.98s-2.52 3.11-4.14 4.11c-1.6.97-3.48 1.46-5.64 1.46-2.39 0-4.5-.47-6.33-1.43a13 13 0 0 1-4.56-4c-1.21-1.72-2.12-3.73-2.75-6.05s-.94-4.85-.94-7.59zm11.73-.73v.73c0 1.42.09 2.73.28 3.93s.5 2.27.94 3.2c.46.91 1.07 1.61 1.81 2.12.77.51 1.71.77 2.82.77a6.1 6.1 0 0 0 3.72-1.08c1-.72 1.73-1.74 2.19-3.06a12.1 12.1 0 0 0 .63-4.66v-2.75a16.6 16.6 0 0 0-.31-4.04 8 8 0 0 0-1.22-2.96c-.53-.79-1.22-1.38-2.05-1.77-.81-.42-1.78-.63-2.89-.63a4.9 4.9 0 0 0-2.78.77c-.74.51-1.34 1.23-1.81 2.16-.46.9-.8 1.98-1.01 3.24-.21 1.23-.31 2.57-.31 4.04zm48.05 19.79c-3.06 0-5.8-.47-8.21-1.43-2.41-.97-4.45-2.31-6.12-4-1.65-1.69-2.91-3.64-3.79-5.85a19.1 19.1 0 0 1-1.29-6.99v-1.32c0-2.76.38-5.31 1.15-7.65.77-2.37 1.9-4.43 3.41-6.19a15.2 15.2 0 0 1 5.67-4.1 19.6 19.6 0 0 1 7.93-1.5 18.9 18.9 0 0 1 7.17 1.29 14.6 14.6 0 0 1 5.36 3.69c1.48 1.6 2.61 3.54 3.37 5.81.79 2.27 1.18 4.82 1.18 7.65v4.77h-30.75v-7.34h19.31v-.9c.02-1.25-.2-2.32-.66-3.2-.44-.88-1.09-1.55-1.95-2.02a6.5 6.5 0 0 0-3.13-.7 5.6 5.6 0 0 0-3.17.83c-.81.56-1.45 1.32-1.91 2.3-.44.95-.75 2.05-.94 3.31s-.28 2.57-.28 3.97v1.32c0 1.39.19 2.65.56 3.79a8.6 8.6 0 0 0 1.67 2.92 7.9 7.9 0 0 0 2.64 1.84c1.04.44 2.23.66 3.55.66a13 13 0 0 0 4.73-.91c1.55-.6 2.89-1.6 4-2.99l5.32 6.33c-.77 1.09-1.86 2.15-3.27 3.17-1.39 1.02-3.06 1.86-5.01 2.5a21.3 21.3 0 0 1-6.54.94zm79.56-12.44l-2.04 11.74h-32.83l2.04-11.74h32.83zm-18.52-51.58l-11 63.32h-14.87l10.96-63.32h14.92zm18.87 25.13l-1.96 11.35h-28.61l2-11.35h28.57zm8.7-25.13l-2.04 11.78H334.3l2.09-11.78h32.92zm29.57 14.05l-23.31 49.27h-16.48l33.57-63.32h10.52l-4.31 14.05zm4 49.27l-6.44-50.79.35-12.52h9.91l11.7 63.32h-15.53zm3.39-23.61l-2.09 11.78h-31.62l2.09-11.78h31.62zm51.45 6.48c.26-1.36.16-2.52-.3-3.48a6.2 6.2 0 0 0-2-2.44 13 13 0 0 0-3-1.7 70.6 70.6 0 0 0-3.22-1.35c-2.26-.9-4.49-1.91-6.7-3.04a31.3 31.3 0 0 1-6-4.09c-1.8-1.57-3.2-3.39-4.22-5.48-.99-2.09-1.41-4.54-1.26-7.35.2-3.22 1.12-5.99 2.74-8.31a19.1 19.1 0 0 1 6.22-5.65 29.2 29.2 0 0 1 8.22-3.22c2.96-.7 5.84-1.01 8.65-.96 4 .06 7.57.87 10.7 2.44a17.8 17.8 0 0 1 7.44 6.74c1.8 2.9 2.67 6.41 2.61 10.52h-14.74c.06-1.62-.16-3.03-.65-4.22-.46-1.22-1.23-2.16-2.31-2.83a7.8 7.8 0 0 0-4.17-1.09 12.2 12.2 0 0 0-4.26.69 9.7 9.7 0 0 0-3.7 2.18 6.8 6.8 0 0 0-2 3.83c-.2 1.19-.01 2.23.56 3.13a7.8 7.8 0 0 0 2.39 2.26 21.5 21.5 0 0 0 3.18 1.57l2.96 1.13a50.5 50.5 0 0 1 6.83 3.18c2.2 1.19 4.15 2.59 5.83 4.22 1.71 1.62 3.02 3.52 3.91 5.7.93 2.15 1.3 4.64 1.13 7.48-.23 3.28-1.1 6.07-2.61 8.39a18.1 18.1 0 0 1-5.83 5.65 26.6 26.6 0 0 1-7.83 3.18c-2.84.67-5.73.99-8.65.96a31.2 31.2 0 0 1-9.18-1.48 22.4 22.4 0 0 1-7.44-4.13 18.6 18.6 0 0 1-4.91-6.7c-1.16-2.67-1.71-5.73-1.65-9.18l14.92.04c-.09 1.62.02 3.06.31 4.31a7.6 7.6 0 0 0 1.56 3.09c.75.81 1.73 1.44 2.91 1.87a13.4 13.4 0 0 0 4.3.61c1.42 0 2.78-.22 4.09-.65 1.33-.46 2.46-1.17 3.39-2.13s1.52-2.19 1.78-3.7zm41.36-46.18l6.52 27.4 16.05-27.4h16.7l-27.27 41.27-3.78 22.05h-15.18l4.09-23.48-12.7-39.79 15.57-.04zm58.75 0l-9.31 43.27h-11.65l5.7-43.27h15.26zm-25.48 57.01c-.06-2.26.7-4.1 2.26-5.52a8.2 8.2 0 0 1 5.65-2.13c2.09-.03 3.9.62 5.44 1.96 1.57 1.31 2.38 3.03 2.44 5.18.03 2.23-.74 4.07-2.3 5.52-1.57 1.42-3.44 2.13-5.61 2.13a8.1 8.1 0 0 1-5.48-1.91c-1.54-1.3-2.33-3.04-2.39-5.22z" fill="#5b5b5b"/><g filter="url(#F)"><path d="M323 71.25a11.9 11.9 0 0 0-11.87-11.87H0v89.06h311.13A11.9 11.9 0 0 0 323 136.56V71.25z" fill="#3886e7"/><path d="M47.66 107.53h-6.3v-4.71h6.3c.86 0 1.55-.14 2.09-.44s.92-.69 1.17-1.2c.26-.52.38-1.11.38-1.76 0-.7-.13-1.34-.38-1.93-.24-.59-.63-1.07-1.17-1.43-.53-.37-1.23-.56-2.09-.56h-4v20.61h-6.11V90.8h10.11c2.03 0 3.77.37 5.24 1.11 1.47.74 2.6 1.76 3.39 3.06a8.3 8.3 0 0 1 1.18 4.42 7.7 7.7 0 0 1-1.18 4.28c-.79 1.22-1.92 2.17-3.39 2.85-1.46.67-3.21 1.01-5.24 1.01zm22.39 3.86v-7.76c0-.53-.08-.99-.23-1.37s-.39-.68-.71-.89c-.32-.22-.76-.33-1.3-.33-.44 0-.82.08-1.13.23s-.55.38-.71.68a2.4 2.4 0 0 0-.24 1.15h-5.86a5.2 5.2 0 0 1 .57-2.42 6 6 0 0 1 1.67-1.97c.73-.56 1.6-.99 2.61-1.29a11.6 11.6 0 0 1 3.41-.47c1.5 0 2.83.25 4 .75 1.18.5 2.12 1.25 2.8 2.24.68.99 1.03 2.23 1.03 3.72v7.71c0 1.23.07 2.16.21 2.8.14.63.34 1.18.59 1.65v.3h-5.88c-.28-.58-.49-1.29-.63-2.12a17.5 17.5 0 0 1-.19-2.61zm.71-6.77l.03 3.13h-2.59a3.8 3.8 0 0 0-1.39.23c-.37.15-.67.36-.9.63-.22.25-.38.55-.49.87-.09.33-.14.67-.14 1.03 0 .35.08.66.24.94.17.27.41.48.7.63s.61.23.97.23c.65 0 1.2-.12 1.65-.36.46-.26.82-.56 1.06-.92s.37-.7.37-1.01l1.29 2.4c-.23.46-.5.93-.8 1.41a6.1 6.1 0 0 1-1.1 1.32c-.43.4-.96.72-1.58.98a6.3 6.3 0 0 1-2.28.36 7.2 7.2 0 0 1-3.2-.71c-.96-.48-1.73-1.14-2.31-1.98-.58-.86-.87-1.84-.87-2.96 0-.97.17-1.84.52-2.61a5.1 5.1 0 0 1 1.62-1.95c.72-.53 1.64-.94 2.75-1.22s2.42-.42 3.93-.42h2.52zm14.35-2.66v14.16h-5.86V97.3h5.48l.38 4.66zm5.57-4.8l-.1 5.44-.94-.09-.99-.05c-.68 0-1.28.08-1.77.24a3 3 0 0 0-1.22.7c-.31.3-.55.68-.7 1.15a5.3 5.3 0 0 0-.19 1.62l-1.06-.7a15 15 0 0 1 .37-3.44c.26-1.04.61-1.94 1.08-2.7.46-.77 1.03-1.35 1.69-1.76a4.1 4.1 0 0 1 2.23-.63c.29 0 .57.02.85.05.29.03.55.09.77.16zm12.8.14v4.07H92.14V97.3h11.34zm-8.96-4.68h5.86v17.36c0 .5.06.89.17 1.17.12.27.31.46.59.57.29.1.67.16 1.15.16l.84-.02.63-.09v4.19c-.5.16-1.02.28-1.56.37-.55.09-1.12.14-1.74.14-1.25 0-2.32-.2-3.22-.59a4.2 4.2 0 0 1-2.02-1.86c-.46-.85-.7-1.95-.7-3.3V92.62zM135 102.94v4.54h-10.45v-4.54H135zm26.35-12.14v25.33h-5.86V97.41l-5.78 1.69v-4.45l11.1-3.84h.54z" class="B"/></g><path d="M947.14 527.41H787.86c-13.94 0-25.24-11.28-25.24-25.21V137.8c0-13.92 11.3-25.21 25.24-25.21h159.29c13.94 0 25.24 11.28 25.24 25.21v364.4c0 13.92-11.3 25.21-25.24 25.21z" class="F"/><path d="M765.92 502V138c0-12.21 9.91-22.1 22.13-22.1h158.89c12.22 0 22.13 9.9 22.13 22.1V502c0 12.21-9.91 22.1-22.13 22.1H788.05c-12.22 0-22.13-9.9-22.13-22.1z" fill="#263238"/><g class="F"><path d="M852.43 128.97c-1.29 0-2.33-1.04-2.33-2.33s1.05-2.33 2.33-2.33h30c1.29 0 2.33 1.05 2.33 2.33s-1.05 2.33-2.33 2.33h-30z"/><use href="#L"/><path d="M844.93 128.97c-1.29 0-2.33-1.04-2.33-2.33s1.05-2.33 2.33-2.33 2.33 1.05 2.33 2.33-1.05 2.33-2.33 2.33zm53.72 0c-1.29 0-2.33-1.04-2.33-2.33s1.05-2.33 2.33-2.33 2.33 1.05 2.33 2.33-1.05 2.33-2.33 2.33zm-8.59 0c-1.29 0-2.33-1.04-2.33-2.33s1.05-2.33 2.33-2.33 2.33 1.05 2.33 2.33-1.05 2.33-2.33 2.33z"/></g><path d="M948.66 120.3h-36.29c-2.74 0-5.15 1.79-5.91 4.4l-2.31 7.88a6.9 6.9 0 0 1-6.62 4.92h-62.52a6.9 6.9 0 0 1-6.62-4.92l-2.31-7.88c-.76-2.61-3.17-4.4-5.91-4.4h-28.22c-12.41 0-22.47 9.97-22.47 22.26V501.7c0 8.31 6.8 15.04 15.19 15.04h165.04c7.37 0 13.34-5.92 13.34-13.21V134.56c0-7.88-6.45-14.27-14.4-14.27z" class="B"/><g fill="#fafafa"><path d="M957.9 131.73a22.4 22.4 0 0 0-16-6.69h-32.86l-4.17 15.41h-73.92l-9.8-18.96h-29.09c-10.09 0-21.37 10.13-21.37 18.23v262.31l.58.06c18.88 2.05 37.25-9.8 47.61-25.69s14.02-35.19 15.85-54.06 2.05-38.02 6.49-56.46c7.45-30.96 27.11-58.81 53.79-76.24 13.17-8.6 27.92-14.73 40.48-24.2 11.05-8.33 20.56-20.26 22.41-33.7zm5.16 369.31l-.25-111.7a96.7 96.7 0 0 0-72.72 46.97c-13.51 23.38-16.19 52.65-7.56 78.19l67.47-.13c8.91 0 13.06-8 13.06-13.33z"/></g><g class="F"><path d="M972.38 202.76h.31c.59 0 1.06.47 1.06 1.06v45.55c0 .59-.48 1.06-1.06 1.06h-.31v-47.67zm-209.76 29.37h-.37c-.59 0-1.06.47-1.06 1.06v28.06c0 .59.48 1.06 1.06 1.06h.37v-30.18zm0-39.43h-.37c-.59 0-1.06.47-1.06 1.06v28.07c0 .59.48 1.06 1.06 1.06h.37V192.7zm0-29.6h-.29c-.52 0-.94.42-.94.94v12.15c0 .52.42.94.94.94h.29V163.1z"/></g><g fill="#263238"><path d="M918.77 132.18h-1.44v2.02h1.44v-2.02zm2.34-.9h-1.44v2.92h1.44v-2.92zm2.35-.67h-1.44v3.59h1.44v-3.59zm2.34-1.3h-1.44v4.89h1.44v-4.89zm21.27 4.99h-7.23c-.29 0-.52-.23-.52-.52v-3.59c0-.29.23-.52.51-.52h7.24c.03 0 .07.01.1.04s.04.06.04.09v1.18h.77c.07 0 .13.06.13.13v1.73c0 .07-.06.13-.13.13h-.77v1.18c0 .07-.06.13-.13.13zm-.13-4.36h-7.11c-.14 0-.25.11-.25.25v3.59c0 .14.11.25.25.25h7.1v-1.18c0-.07.06-.13.13-.13h.77v-1.47h-.77c-.07 0-.13-.06-.13-.13v-1.19h0zm-6.76 3.51v-2.92h6.17v1.32.29 1.31h-6.17zm-7.48.57c0-.29-.24-.53-.53-.53s-.53.24-.53.53.24.53.53.53.53-.24.53-.53zm-2.33-1.26l.67.67a1.6 1.6 0 0 1 2.26 0l.67-.67c-.46-.46-1.1-.75-1.8-.75a2.5 2.5 0 0 0-1.8.75zm1.8-2.25c-1.12 0-2.13.45-2.87 1.19l.67.67a3.1 3.1 0 0 1 4.38 0l.68-.67c-.74-.73-1.75-1.19-2.87-1.19zm-3.96.09l.67.67c.84-.84 2.01-1.36 3.29-1.36s2.44.52 3.29 1.36l.68-.67a5.6 5.6 0 0 0-7.93 0z"/></g><mask id="B" maskUnits="userSpaceOnUse" x="799" y="151" width="8" height="4"><path d="M801.08 151.67l5.75 3.05c-.42-.22-.91-.31-1.44-.24l-5.75-3.05c.53-.07 1.02.02 1.44.24z" class="B"/></mask><g mask="url(#B)" class="G"><path d="M805.39 154.48l-5.75-3.05c.33-.04.64-.03.93.05l5.75 3.05c-.29-.07-.6-.09-.93-.05z"/><path d="M806.32 154.53l-5.75-3.05c.15.04.29.09.43.15l5.75 3.05c-.13-.06-.28-.12-.43-.15z"/><path d="M806.75 154.69l-5.75-3.05.08.04 5.75 3.05-.08-.04z"/></g><mask id="C" maskUnits="userSpaceOnUse" x="791" y="165" width="7" height="4"><path d="M791.19 165.58l.13.07 5.75 3.05-.13-.07-5.75-3.05z" class="B"/></mask><g mask="url(#C)"><path d="M796.94 168.64l-5.75-3.05.13.07 5.75 3.05-.13-.07z" fill="#258fb2"/><path d="M797.08 168.7l-5.75-3.05.15.07a3.6 3.6 0 0 0 .52.18l5.75 3.05c-.18-.05-.35-.1-.52-.18l-.15-.07z" fill="#2692b6"/></g><mask id="D" maskUnits="userSpaceOnUse" x="784" y="169" width="8" height="6"><path d="M791.36 174.89l-5.75-3.05c-.75-.4-1.26-1.22-1.25-2.23l5.75 3.05c0 1.01.5 1.83 1.26 2.23z" class="B"/></mask><g mask="url(#D)" class="C"><path d="M791.36 174.89l-5.75-3.05c-.75-.4-1.26-1.22-1.25-2.23l5.75 3.05c0 1.01.5 1.83 1.26 2.23z"/></g><path d="M805.41 154.49c1.48-.2 2.69.91 2.69 2.47l-.02 13.25a3.3 3.3 0 0 1-2.7 3.21l-12.58 1.72c-1.48.2-2.69-.91-2.69-2.47l.02-13.25a3.3 3.3 0 0 1 2.7-3.21l12.58-1.72z" class="D"/><path d="M792.82 156.21l-5.75-3.05 12.58-1.72 5.75 3.05-12.58 1.72z" class="G"/><path d="M790.1 172.66l-5.75-3.05.02-13.25 5.75 3.05-.02 13.25z" fill="#1e83ff"/><mask id="E" maskUnits="userSpaceOnUse" x="784" y="153" width="9" height="7"><path d="M790.12 159.42l-5.75-3.05a3.3 3.3 0 0 1 2.7-3.21l5.75 3.05a3.3 3.3 0 0 0-2.7 3.21z" class="B"/></mask><g mask="url(#E)" class="C"><path d="M790.12 159.43l-5.75-3.05c0-.38.07-.76.21-1.11l5.75 3.05c-.13.35-.21.73-.21 1.11z"/><path d="M790.33 158.31l-5.75-3.05c.06-.15.13-.3.2-.44l5.75 3.05a3.3 3.3 0 0 0-.2.44z"/><path d="M790.53 157.87l-5.75-3.05a3.6 3.6 0 0 1 .22-.35l5.75 3.05c-.08.11-.15.23-.22.35z"/><path d="M790.75 157.52l-5.75-3.05a3.6 3.6 0 0 1 .24-.3l5.75 3.05a3.4 3.4 0 0 0-.25.3z"/><path d="M791 157.22l-5.75-3.05.28-.27 5.75 3.05c-.1.09-.19.18-.28.27z"/><path d="M791.28 156.94l-5.75-3.05c.1-.09.21-.18.33-.25l5.75 3.05c-.12.08-.22.16-.33.25z"/><path d="M791.61 156.69l-5.75-3.05a3 3 0 0 1 .44-.25l5.75 3.05c-.15.07-.3.15-.44.25z"/><path d="M792.04 156.44l-5.75-3.05a2.8 2.8 0 0 1 .78-.23l5.75 3.05c-.27.04-.53.12-.78.23z"/></g><path d="M796.01 161.38l1.05-.13 1.05-.12.97-.07-.05 1.06-2.48.34c-.15.02-.27.08-.35.17-.07.09-.11.21-.11.37l.06 3.32c0 .16.04.27.12.34.08.07.2.1.36.07l2.48-.34.08 1.04-.96.19-1.05.16-1.05.15c-.41.06-.75-.02-1.01-.22-.25-.2-.39-.5-.4-.89l-.07-3.95c0-.4.12-.73.37-1.01.25-.28.58-.44 1-.5zm-1.17 2.81l3.86-.53.02 1.02-3.86.53-.02-1.02zm7.71-3.79l.78-.08a5 5 0 0 1 .6-.02 6.7 6.7 0 0 1 .56.04l-.09 1.08-.57.05-.55.06-.7.09c-.32.04-.57.14-.75.3-.17.15-.29.38-.36.7s-.1.75-.09 1.31a5.7 5.7 0 0 0 .13 1.28c.08.3.21.5.39.6.18.1.43.13.75.09l1.08-.17.87-.19.14 1.04a5.5 5.5 0 0 1-.91.32c-.31.09-.7.16-1.16.22-.67.09-1.2.06-1.6-.1-.4-.17-.7-.48-.89-.95s-.28-1.12-.3-1.95.06-1.5.23-2.02c.17-.52.45-.91.85-1.18.39-.28.93-.46 1.59-.55z" class="B"/><g class="E"><path d="M822.77 160.44c.31 0 .59 0 .79.04.21 0 .41.04.59.07l.59.15-.1.98c-.21 0-.38-.04-.59-.04-.17 0-.38-.04-.55-.04h-.72c-.38 0-.69.07-.9.25-.21.15-.38.44-.45.8-.1.37-.14.88-.14 1.57s.03 1.17.14 1.57c.1.36.24.66.45.8s.52.26.9.26l1.1-.04c.31 0 .59-.04.9-.07l.1.95c-.31.11-.59.18-.93.22a9.4 9.4 0 0 1-1.17.07c-.69 0-1.24-.11-1.62-.36-.41-.26-.69-.62-.9-1.17-.17-.66-.27-1.38-.27-2.3s.1-1.64.27-2.19.48-.91.86-1.17c.41-.25.97-.36 1.65-.36zm5.06 2.08a3.1 3.1 0 0 1 1.41.25 1.6 1.6 0 0 1 .76.84 4.6 4.6 0 0 1 .24 1.57 4 4 0 0 1-.24 1.57c-.14.4-.41.69-.76.84a3.1 3.1 0 0 1-1.41.26c-.59 0-1.03-.07-1.38-.26a1.6 1.6 0 0 1-.76-.84c-.17-.4-.24-.91-.24-1.57s.07-1.17.24-1.57.41-.69.76-.84c.31-.18.79-.25 1.38-.25zm0 .95c-.28 0-.52.04-.69.15s-.28.29-.35.51a4.1 4.1 0 0 0-.1 1.06 4.3 4.3 0 0 0 .1 1.06c.07.25.21.44.35.51.17.11.38.15.69.15s.52-.04.69-.15.28-.26.35-.51a4.1 4.1 0 0 0 .1-1.06 4.3 4.3 0 0 0-.1-1.06c-.07-.26-.17-.44-.35-.51s-.41-.15-.69-.15zm4.1-.84l.1.98.1.15v3.97h-1.21v-5.1h1zm2.21-.11c.9 0 1.34.47 1.34 1.42v3.83h-1.21v-3.43c0-.29-.04-.47-.14-.58s-.24-.15-.45-.15c-.24 0-.48.07-.76.18-.24.11-.55.29-.93.51l-.03-.77a4.6 4.6 0 0 1 1.07-.73c.38-.22.72-.29 1.1-.29zm3.21.11l.1.98.1.15v3.97h-1.21v-5.1h1zm2.21-.11c.9 0 1.34.47 1.34 1.42v3.83h-1.21v-3.43c0-.29-.04-.47-.14-.58s-.24-.15-.45-.15c-.24 0-.48.07-.76.18-.24.11-.55.29-.93.51l-.03-.77a4.6 4.6 0 0 1 1.07-.73c.41-.22.76-.29 1.1-.29zm4.47 0c.79 0 1.35.14 1.69.44s.52.73.52 1.28c0 .47-.1.8-.31 1.06s-.55.37-1.07.37h-2.76v-.77h2.45c.21 0 .38-.07.41-.18.07-.11.1-.29.1-.47 0-.29-.07-.47-.24-.58s-.38-.18-.72-.18c-.31 0-.55.04-.72.15-.17.07-.28.25-.35.47a3.8 3.8 0 0 0-.1 1.02 3.1 3.1 0 0 0 .14 1.09c.07.25.24.44.41.51.21.11.45.15.79.15l.83-.04.93-.07.1.8a2.4 2.4 0 0 1-.62.18l-.72.11c-.24.04-.48.04-.69.04-.59 0-1.07-.11-1.41-.29s-.62-.47-.79-.87a3.9 3.9 0 0 1-.24-1.53 4.2 4.2 0 0 1 .24-1.6 1.6 1.6 0 0 1 .76-.84 3.8 3.8 0 0 1 1.38-.22zm5.24 0c.17 0 .34 0 .55.04.21 0 .41.04.59.07.21.04.38.11.55.18l-.14.8c-.24 0-.48-.04-.72-.04h-.62c-.35 0-.59.04-.79.15s-.35.25-.41.51a3.8 3.8 0 0 0-.14 1.02 2.6 2.6 0 0 0 .14 1.02c.07.25.24.4.41.51.21.11.45.15.79.15h.38c.17 0 .34 0 .52-.04.17 0 .38-.04.55-.04l.1.8c-.24.11-.55.18-.86.25l-.93.07c-.58 0-1.03-.07-1.38-.25s-.59-.47-.76-.84a4.7 4.7 0 0 1-.24-1.57 4 4 0 0 1 .24-1.57 1.6 1.6 0 0 1 .76-.84c.38-.33.86-.4 1.41-.4zm5.65.11v.88h-3.48v-.84l.93-.04h2.55zm-1.45-1.46v5.03c0 .22.03.36.14.47.1.07.24.15.45.15h.65l.14.88a3.4 3.4 0 0 1-.41.11l-.45.07h-.38c-.41 0-.76-.11-.97-.36-.24-.26-.35-.58-.35-1.02v-5.32h1.17z"/></g><g class="D"><path d="M859.37 160.55h1.1l1.1.04c.35 0 .69.04 1 .07l-.07 1.17h-2.62c-.17 0-.27.04-.38.15a.6.6 0 0 0-.14.4v3.64c0 .18.03.29.14.4.07.07.21.15.38.15h2.62l.07 1.17-1 .07-1.1.04h-1.1c-.45 0-.79-.15-1.03-.4-.27-.26-.41-.62-.41-1.06v-4.41c0-.44.14-.8.41-1.06.24-.25.62-.36 1.03-.36z"/><path d="M862.16 163.47h-4.07v1.13h4.07v-1.13zm3.93-3.03l.83.04a2.9 2.9 0 0 1 .62.07 3.4 3.4 0 0 1 .59.15l-.1 1.17c-.21 0-.41-.04-.59-.04h-.59-.76c-.35 0-.59.07-.79.22s-.31.36-.41.73c-.07.33-.1.8-.1 1.42s.03 1.09.1 1.42.21.58.41.73a1.3 1.3 0 0 0 .79.22l1.14-.04c.31 0 .62-.04.93-.07l.14 1.17c-.31.11-.62.18-.96.22a10.7 10.7 0 0 1-1.21.07c-.69 0-1.28-.11-1.69-.36s-.72-.62-.93-1.17a6.4 6.4 0 0 1-.27-2.19c0-.91.1-1.64.27-2.19s.48-.95.93-1.17c.41-.29.97-.4 1.65-.4zm5.62-.84c0 .58-.45 1.06-1 1.06s-1-.47-1-1.06a1 1 0 0 1 1-1.02 1 1 0 0 1 1 1.02zm-1.76 0c0 .47.31.84.76.84.41 0 .76-.36.76-.8 0-.47-.31-.84-.76-.84-.45-.04-.76.36-.76.8zm.62.55h-.24v-1.02c.1-.04.21-.04.38-.04s.28.04.34.07.1.11.1.22-.07.22-.21.25c.1.04.14.11.17.26s.03.22.07.25h-.24c-.03-.04-.03-.15-.07-.25s-.07-.15-.21-.15h-.1v.4zm0-.58h.1c.14 0 .24-.04.24-.15s-.07-.15-.21-.15h-.14v.29z"/></g><path d="M876.06 172.69c-.2 0-.39-.11-.39-.23V154.1c0-.11.2-.23.39-.23s.39.11.39.23v18.4c0 .08-.2.19-.39.19z" class="E"/><g class="D"><path d="M893.75 168.16l-1.39 2.94h-.47l-1.4-2.94h.56l.87 1.88c.04.08.07.17.1.25l.09.25h.04l.09-.25.1-.25.87-1.88h.55zm-1.37 2.54v1.91h-.53v-1.91h.53zm-3.61-2.62l.6.03a4.6 4.6 0 0 1 .62.1l-.04.41-.57-.02-.6-.01c-.15 0-.27.01-.38.02a.5.5 0 0 0-.26.08c-.07.05-.12.11-.15.2s-.04.22-.04.38c0 .24.04.42.12.52.08.09.22.17.4.21l.84.23c.32.08.54.23.65.43s.18.48.18.82c0 .26-.03.47-.08.63s-.13.28-.24.37-.25.14-.43.17a3.3 3.3 0 0 1-.62.05 9.3 9.3 0 0 1-.53-.02c-.22-.01-.46-.05-.75-.1l.04-.42.57.03h.37.32c.21 0 .38-.02.5-.05s.21-.1.26-.21.08-.26.08-.46c0-.17-.02-.31-.05-.4s-.09-.17-.17-.21-.17-.09-.29-.12l-.85-.23c-.3-.08-.51-.22-.63-.43s-.18-.47-.18-.81c0-.26.03-.47.08-.62s.14-.28.25-.35a1 1 0 0 1 .42-.16l.6-.04zm-3.25.08c.05 0 .09.01.13.04s.06.06.07.11l1.32 4.3h-.54l-1.07-3.65-.05-.18-.05-.18h-.17l-.05.18-.05.18-1.07 3.65h-.54l1.33-4.3c.01-.05.04-.08.07-.11s.08-.04.13-.04h.55zm.76 2.57v.49h-2.09v-.49h2.09zm-4.96-2.58h.6l.6.01.57.03-.02.45h-1.65c-.12 0-.22.03-.27.1-.06.06-.08.17-.08.32v2.65c0 .15.03.26.08.33s.15.1.27.1h1.65l.02.44-.57.03h-.6l-.6.01a.8.8 0 0 1-.58-.21c-.14-.14-.21-.33-.22-.57v-2.92c0-.24.08-.43.22-.57a.8.8 0 0 1 .58-.21zm-.69 1.88h2.2v.46h-2.2v-.46z"/></g><g class="E"><path d="M934.03 162.29c.44 0 .75.09.95.26s.3.43.3.77a1.1 1.1 0 0 1-.16.66c-.11.16-.29.23-.53.23h-1.7v-.43h1.56c.13 0 .22-.05.26-.14s.06-.21.06-.32c0-.2-.06-.35-.17-.43s-.29-.13-.55-.13c-.21 0-.38.03-.5.1s-.21.18-.26.35-.07.39-.07.69c0 .34.03.59.09.77s.16.3.3.36.31.1.54.1l.51-.02.5-.06.05.37c-.09.04-.2.07-.34.1l-.41.06-.38.02c-.33 0-.6-.05-.81-.16a1 1 0 0 1-.45-.53 2.8 2.8 0 0 1-.14-.97c0-.41.05-.74.14-.98s.24-.41.43-.51.45-.16.76-.16zm-2.74-.86v3.21c0 .15.03.26.09.32s.16.1.3.1h.44l.06.42a1.9 1.9 0 0 1-.22.05l-.25.03-.19.01c-.24 0-.43-.07-.55-.22s-.19-.36-.19-.63v-3.28h.51zm.92.93v.43h-1.96v-.4l.57-.03h1.38zm-3.55-.07c.21 0 .4.03.54.1s.26.16.34.31.11.35.11.6v2.22h-.4l-.08-.69-.04-.07v-1.46c0-.19-.04-.33-.12-.41s-.24-.13-.47-.13l-.57.03-.67.06-.05-.41.44-.07.5-.05.47-.02zm.76 1.28v.41l-1.39.01c-.14 0-.24.05-.29.12s-.08.18-.08.31v.2c0 .16.04.28.11.36.07.07.19.11.35.11.11 0 .24-.02.38-.06a1.7 1.7 0 0 0 .43-.21c.14-.09.27-.22.39-.36v.41c-.04.06-.11.13-.19.21s-.18.16-.29.23-.24.14-.38.19-.28.07-.44.07c-.17 0-.32-.03-.45-.1s-.24-.17-.31-.3a1 1 0 0 1-.11-.48v-.34c0-.25.07-.44.21-.57s.34-.21.6-.21h1.49zm-4.59-1.28c.19 0 .38.03.57.08s.37.13.54.25l-.03.34-.5-.14c-.14-.03-.3-.05-.46-.05s-.3.03-.41.1c-.1.06-.17.17-.22.34a2.8 2.8 0 0 0-.07.72c0 .31.02.55.07.72s.12.29.22.36.23.1.38.1a1 1 0 0 0 .31-.04 1.3 1.3 0 0 0 .3-.16l.38-.28.05.39a2.4 2.4 0 0 1-.54.41c-.2.11-.42.17-.66.17-.37 0-.63-.14-.79-.42s-.23-.69-.23-1.24c0-.41.04-.73.12-.97s.2-.41.36-.52.37-.16.62-.16zm1.52-1.3v4.52h-.39l-.06-.55-.05-.04v-2.16l.04-.1-.03-.35-.01-.35v-.97h.51zm-3.44 1.37v3.14h-.5v-3.14h.5zm-.13-1.34c.1 0 .15.06.15.17v.37c0 .11-.05.17-.15.17h-.24c-.1 0-.15-.06-.15-.17v-.37c0-.11.05-.17.15-.17h.24zm-2.85 1.27c.19 0 .38.03.57.08s.37.13.54.25l-.03.34-.5-.14a2 2 0 0 0-.46-.05c-.17 0-.3.03-.41.1-.1.06-.17.17-.22.34s-.07.41-.07.72.02.55.07.72.12.29.22.36.23.1.38.1a1 1 0 0 0 .31-.04 1.3 1.3 0 0 0 .3-.16l.38-.28.05.39a2.4 2.4 0 0 1-.54.41c-.2.11-.42.17-.66.17-.37 0-.63-.14-.79-.42s-.23-.69-.23-1.24c0-.41.04-.73.12-.97s.2-.41.36-.52.37-.16.62-.16zm1.52-1.3v4.52h-.39l-.06-.55-.05-.04v-2.16l.03-.1-.03-.35v-.35-.97h.51zm-4.19 1.3c.53 0 .79.29.79.87v2.36h-.51v-2.2c0-.21-.03-.36-.1-.43s-.17-.12-.32-.12c-.18 0-.36.05-.54.14l-.64.39-.02-.39c.23-.19.45-.34.67-.44a1.6 1.6 0 0 1 .66-.16zm-1.34.08l.04.6.04.1v2.45h-.51v-3.14h.43zm-2.33-.08c.21 0 .4.03.54.1s.27.16.34.31.11.35.11.6v2.22h-.4l-.08-.69-.03-.07v-1.46c0-.19-.04-.33-.13-.41s-.24-.13-.47-.13l-.57.03-.67.06-.05-.41.44-.07.5-.05.47-.02zm.76 1.28l-.01.41-1.39.01c-.14 0-.24.05-.29.12s-.08.18-.08.31v.2c0 .16.04.28.11.36.07.07.19.11.35.11.11 0 .24-.02.38-.06a1.7 1.7 0 0 0 .43-.21c.14-.09.27-.22.39-.36v.41c-.04.06-.11.13-.19.21s-.18.16-.29.23-.24.14-.38.19-.28.07-.44.07c-.17 0-.32-.03-.45-.1s-.23-.17-.31-.3a.9.9 0 0 1-.11-.48v-.34c0-.25.07-.44.21-.57s.34-.21.6-.21h1.49z"/></g><path d="M910.33 160.98l.45.01c.13.01.24.02.35.05l.33.07-.05.43-.33-.03-.32-.02-.41-.01c-.27 0-.48.06-.63.17s-.27.3-.33.56a4.7 4.7 0 0 0-.1 1.07c0 .45.03.81.1 1.07s.18.45.33.56.37.17.63.17l.64-.01.51-.06.05.43a3 3 0 0 1-.53.11c-.18.03-.4.04-.67.04-.39 0-.71-.07-.95-.22s-.41-.39-.51-.73c-.1-.34-.15-.79-.15-1.36s.05-1.02.15-1.36c.11-.34.28-.58.51-.72.24-.15.55-.23.95-.23z" class="D"/><g class="E"><path d="M907.92 163.67v.42h-1.82v-.42h1.82zm-3.52-1.31l.07.6.05.1v2.45h-.51v-3.14h.39zm1.43-.08l-.06.52h-.17c-.17 0-.34.04-.51.12a6.8 6.8 0 0 0-.63.32l-.04-.34c.21-.19.43-.34.64-.44s.43-.16.63-.16h.13zm-3.83.01c.44 0 .75.09.95.26s.3.43.3.77c0 .28-.05.5-.16.66s-.29.23-.53.23h-1.7v-.43h1.56c.13 0 .22-.05.26-.14s.06-.21.06-.32c0-.2-.06-.35-.17-.43s-.29-.13-.55-.13c-.21 0-.38.03-.5.1s-.21.18-.26.35-.07.39-.07.69c0 .34.03.59.09.77s.16.3.3.36.31.1.54.1l.51-.02.5-.06.05.37a2 2 0 0 1-.34.1l-.41.06-.38.02c-.33 0-.6-.05-.81-.16a1 1 0 0 1-.45-.53 2.8 2.8 0 0 1-.14-.97c0-.41.05-.74.14-.98s.24-.41.43-.51.45-.16.76-.16zm-1.75.07l-1.16 3.32c-.05.14-.11.27-.18.41s-.16.25-.26.36-.22.2-.36.27-.29.11-.47.12l-.05-.36c.24-.08.42-.19.54-.33s.23-.3.31-.5l.14-.37.1-.28.09-.28.76-2.34h.55zm-2.39 0l.77 2.34.06.19c.02.06.04.12.05.19h.14l-.17.42h-.15c-.04 0-.08-.01-.11-.04s-.05-.06-.07-.1l-1.06-3h.54zm-2.31-.07c.33 0 .6.05.8.16s.35.28.44.53a2.9 2.9 0 0 1 .13.96c0 .4-.04.72-.13.97s-.23.41-.44.52a1.7 1.7 0 0 1-.8.16 1.7 1.7 0 0 1-.8-.16c-.2-.11-.34-.28-.44-.52s-.13-.57-.13-.97.04-.72.13-.96.24-.42.44-.53a1.7 1.7 0 0 1 .8-.16zm0 .47a1 1 0 0 0-.5.11c-.12.07-.2.19-.26.36a2.3 2.3 0 0 0-.08.72 2.7 2.7 0 0 0 .08.72c.05.18.14.3.26.37s.29.1.5.1.38-.03.5-.1.21-.19.26-.37a2.7 2.7 0 0 0 .08-.72 2.7 2.7 0 0 0-.08-.72c-.05-.18-.14-.29-.26-.36a1 1 0 0 0-.5-.11zm-2.49-1.77l-.01 3.65c0 .14.03.24.1.32s.17.1.3.1h.28l.06.42c-.04.02-.09.03-.16.05s-.13.02-.2.03-.12.01-.17.01c-.22 0-.39-.07-.52-.21s-.19-.34-.19-.59v-3.78h.51zm-2.31 1.3c.35 0 .61.14.76.43s.23.69.23 1.24a3.2 3.2 0 0 1-.12.97c-.08.24-.2.41-.36.51s-.36.16-.62.16c-.19 0-.38-.03-.57-.08s-.36-.14-.54-.26l.03-.33.5.14c.14.03.29.05.45.05.17 0 .31-.03.41-.1s.18-.18.23-.35.07-.41.07-.71-.02-.53-.06-.7-.11-.3-.21-.37-.21-.12-.37-.12a1 1 0 0 0-.47.12 3.4 3.4 0 0 0-.54.37l-.05-.37a1.8 1.8 0 0 1 .36-.32 1.7 1.7 0 0 1 .42-.21c.15-.05.3-.08.44-.08zm-1.25.08l.05.65.04.08v2.01l-.02.08.02.35.01.36v.91h-.51v-4.44h.42zm-2.11-.08c.25 0 .44.07.57.22s.2.36.2.65v2.36h-.5v-2.2c0-.19-.04-.33-.11-.42s-.18-.14-.35-.14a.8.8 0 0 0-.3.06c-.1.04-.19.09-.3.17l-.41.3-.03-.39a2.6 2.6 0 0 1 .62-.45 1.3 1.3 0 0 1 .6-.16zm-3.12.08l.03.6.05.1v2.45h-.51v-3.14h.42zm1.22-.08c.25 0 .44.07.57.22s.2.36.2.65v2.36h-.49v-2.2c0-.2-.04-.34-.11-.43s-.19-.13-.34-.13c-.1 0-.2.02-.29.05s-.19.09-.31.17l-.41.31-.04-.39a2.8 2.8 0 0 1 .61-.45c.19-.1.4-.16.61-.16z"/></g><path d="M881.32 161.04h.6l.6.01.57.03-.02.44h-1.65c-.12 0-.22.04-.27.1s-.08.17-.08.32v2.65c0 .15.03.26.08.33s.15.1.27.1h1.65l.02.44-.57.03h-.6l-.6.01c-.24 0-.44-.07-.58-.21a.8.8 0 0 1-.22-.57v-2.92c0-.24.08-.43.22-.57a.8.8 0 0 1 .58-.21zm-.69 1.88h2.2v.46h-2.2v-.46z" class="D"/><g class="E"><path d="M901.1 154.34v3.21c0 .15.03.26.09.32s.16.1.3.1h.44l.06.42a2.2 2.2 0 0 1-.22.04l-.25.03-.19.01c-.24 0-.43-.07-.55-.22s-.19-.36-.19-.63v-3.28h.51zm.93.93v.43h-1.96v-.4l.57-.03h1.38z"/><path d="M898.7 155.19l.29.01c.11.01.22.02.33.05s.22.05.32.09l-.07.35-.42-.03-.37-.01c-.23 0-.41.04-.55.1s-.23.19-.29.36a2.3 2.3 0 0 0-.09.72c0 .31.03.55.09.72s.16.29.29.36a1.2 1.2 0 0 0 .55.1l.23-.01.3-.02.32-.04.05.37c-.15.06-.31.1-.48.12l-.51.04c-.34 0-.6-.05-.81-.16s-.35-.28-.44-.52a2.9 2.9 0 0 1-.13-.97 2.8 2.8 0 0 1 .14-.97c.09-.24.24-.41.44-.52s.47-.16.81-.16zm-3.26 0c.44 0 .75.09.95.26s.3.43.3.77c0 .28-.05.5-.16.66s-.29.23-.53.23h-1.69v-.43h1.56c.13 0 .22-.05.26-.14.04-.1.06-.21.06-.32 0-.2-.06-.35-.17-.43s-.29-.13-.55-.13c-.21 0-.38.04-.5.1s-.2.18-.26.35-.07.39-.07.69c0 .34.03.59.09.77s.16.3.3.36.31.1.54.1l.51-.02.5-.06.05.37a2 2 0 0 1-.34.1l-.41.06-.38.02c-.34 0-.6-.05-.81-.16s-.35-.29-.45-.53-.14-.57-.14-.97c0-.41.04-.74.14-.97s.24-.41.44-.51.45-.15.76-.15zm-2.9 0c.53 0 .79.29.79.87v2.36h-.51v-2.2c0-.21-.03-.35-.1-.43s-.17-.12-.32-.12c-.18 0-.36.05-.54.14l-.64.39-.02-.39a3.1 3.1 0 0 1 .67-.44c.22-.11.44-.16.66-.16zm-1.34.08l.04.6.04.1v2.45h-.51v-3.14h.43zm-2.12-.08c.52 0 .79.29.79.87v2.36h-.51v-2.2c0-.21-.03-.35-.1-.43s-.17-.12-.32-.12c-.18 0-.36.05-.54.14l-.64.39-.02-.39a3.1 3.1 0 0 1 .68-.44c.22-.11.44-.16.66-.16zm-1.34.08l.04.6.04.1v2.45h-.51v-3.14h.43zm-2.59-.08c.34 0 .6.05.8.16s.35.28.44.53.13.56.13.96-.04.72-.13.97-.23.42-.44.52-.47.16-.8.16a1.7 1.7 0 0 1-.8-.16c-.2-.11-.34-.28-.44-.52s-.13-.57-.13-.97.04-.72.13-.96.24-.42.44-.53a1.7 1.7 0 0 1 .8-.16zm0 .46a1 1 0 0 0-.5.11c-.12.07-.2.19-.26.36a2.3 2.3 0 0 0-.08.72 2.6 2.6 0 0 0 .08.72c.05.17.14.3.26.37s.29.1.5.1.38-.03.5-.1.21-.2.26-.37.08-.41.08-.72a2.7 2.7 0 0 0-.08-.72c-.05-.18-.14-.29-.26-.36a1 1 0 0 0-.5-.11zm-3.12-1.77l.45.01a2.7 2.7 0 0 1 .35.04l.33.07-.05.43-.34-.03-.32-.02-.41-.01c-.27 0-.48.06-.63.17s-.27.3-.33.56a4.9 4.9 0 0 0-.1 1.07 4.7 4.7 0 0 0 .1 1.07c.07.26.18.45.33.56s.37.17.63.17l.64-.01.51-.06.05.43a3.2 3.2 0 0 1-.53.11 5 5 0 0 1-.67.04 1.8 1.8 0 0 1-.95-.22c-.23-.15-.41-.39-.51-.73a4.9 4.9 0 0 1-.16-1.35 4.6 4.6 0 0 1 .16-1.36c.11-.34.28-.58.51-.72s.56-.23.95-.23z"/></g><rect x="797.4" y="414.44" width="140.13" height="53.44" rx="7.13" fill="#e0e0e0"/><rect x="799.78" y="410.88" width="135.38" height="53.44" rx="7.13" fill="#37474f"/><path d="M804.53 421.56c0-2.62 2.13-4.75 4.75-4.75h116.38c2.62 0 4.75 2.13 4.75 4.75v32.06c0 2.62-2.13 4.75-4.75 4.75H809.28c-2.62 0-4.75-2.13-4.75-4.75v-32.06z" class="F"/><g class="B"><path d="M860.13 431.31a1.5 1.5 0 0 0-.09-.54c-.06-.17-.17-.32-.33-.45a2.9 2.9 0 0 0-.68-.41 9.6 9.6 0 0 0-1.12-.42 14.3 14.3 0 0 1-1.46-.56 6 6 0 0 1-1.21-.72c-.35-.28-.62-.61-.82-.97s-.3-.8-.3-1.28a2.6 2.6 0 0 1 .31-1.28c.21-.38.5-.72.87-1a4.1 4.1 0 0 1 1.32-.65c.51-.15 1.07-.23 1.69-.23.83 0 1.56.15 2.18.45a3.5 3.5 0 0 1 1.44 1.24 3.2 3.2 0 0 1 .52 1.8h-2.31c0-.33-.07-.62-.21-.87a1.5 1.5 0 0 0-.62-.6c-.28-.15-.62-.22-1.04-.22a2.4 2.4 0 0 0-1.01.19c-.27.12-.47.28-.61.49s-.2.43-.2.69a1 1 0 0 0 .14.52c.1.16.24.3.43.44a3.6 3.6 0 0 0 .71.38c.28.12.6.24.97.35a10.3 10.3 0 0 1 1.62.63 5 5 0 0 1 1.18.79c.31.29.55.62.71.99s.24.79.24 1.25c0 .49-.09.93-.29 1.32a2.7 2.7 0 0 1-.83.99 3.9 3.9 0 0 1-1.3.61c-.5.14-1.06.21-1.68.21a6.4 6.4 0 0 1-1.65-.22 5 5 0 0 1-1.48-.68 3.4 3.4 0 0 1-1.06-1.15c-.26-.47-.39-1.02-.39-1.66h2.34c0 .35.05.65.16.9a1.5 1.5 0 0 0 .46.59c.2.15.44.26.71.33a3.8 3.8 0 0 0 .92.1c.4 0 .74-.06.99-.17s.46-.27.58-.47.19-.43.19-.69zm7.64 3.12a4.7 4.7 0 0 1-1.75-.31c-.52-.21-.96-.51-1.32-.88s-.63-.81-.82-1.3a4.4 4.4 0 0 1-.29-1.59v-.31a5.4 5.4 0 0 1 .27-1.75c.18-.53.44-.99.78-1.38a3.4 3.4 0 0 1 1.24-.89 4.1 4.1 0 0 1 1.64-.32 4 4 0 0 1 1.58.3 3.1 3.1 0 0 1 1.16.84c.32.36.55.8.71 1.31a5.5 5.5 0 0 1 .24 1.68v.93h-6.68v-1.5h4.48v-.17c0-.31-.06-.59-.17-.83-.11-.25-.27-.45-.5-.59a1.6 1.6 0 0 0-.85-.22c-.29 0-.55.06-.76.19s-.38.31-.52.55c-.13.23-.23.51-.3.82a5.3 5.3 0 0 0-.09 1.03v.31a3 3 0 0 0 .14.93 2.4 2.4 0 0 0 .41.74c.17.21.4.37.65.48.26.11.55.17.88.17.4 0 .78-.08 1.13-.23a2.4 2.4 0 0 0 .91-.72l1.09 1.18a3.3 3.3 0 0 1-.72.73c-.3.23-.66.43-1.09.58s-.91.22-1.45.22zm7.08-12.11v11.96h-2.24v-11.96h2.24zm4.69 11.96h-2.25v-9.17c0-.64.12-1.18.37-1.61a2.5 2.5 0 0 1 1.06-1c.46-.23 1.01-.34 1.64-.34.21 0 .41.02.6.05l.56.1-.02 1.69a1.9 1.9 0 0 0-.31-.05l-.38-.02a1.6 1.6 0 0 0-.69.14c-.19.09-.33.22-.43.4a1.3 1.3 0 0 0-.15.65v9.17zm1.68-8.42v1.59h-5.18v-1.59h5.18zm-60.16 27.02h-2.46l.02-1.82h2.44c.61 0 1.13-.14 1.54-.41s.74-.69.95-1.22c.22-.53.33-1.18.33-1.94v-.55a5.7 5.7 0 0 0-.19-1.53c-.12-.44-.3-.81-.54-1.11s-.53-.53-.88-.68c-.35-.16-.75-.23-1.2-.23h-2.53v-1.83h2.53c.75 0 1.45.13 2.07.39a4.7 4.7 0 0 1 1.64 1.1 4.9 4.9 0 0 1 1.06 1.71 6.1 6.1 0 0 1 .38 2.2v.54a6.2 6.2 0 0 1-.38 2.2 4.9 4.9 0 0 1-1.06 1.71 4.7 4.7 0 0 1-1.64 1.1c-.63.25-1.33.38-2.1.38zm-1.14-11.33v11.33h-2.33v-11.33h2.33zm11.74 11.48a4.7 4.7 0 0 1-1.75-.31c-.52-.21-.96-.51-1.32-.88a3.9 3.9 0 0 1-.82-1.3 4.4 4.4 0 0 1-.29-1.59v-.31a5.4 5.4 0 0 1 .27-1.75 4.1 4.1 0 0 1 .78-1.38 3.4 3.4 0 0 1 1.24-.9 4.1 4.1 0 0 1 1.64-.32 4 4 0 0 1 1.58.3 3.1 3.1 0 0 1 1.16.84 3.6 3.6 0 0 1 .71 1.31 5.5 5.5 0 0 1 .24 1.68v.93h-6.68v-1.5h4.48v-.17c0-.31-.06-.59-.17-.83-.11-.25-.27-.45-.5-.59a1.6 1.6 0 0 0-.85-.22c-.29 0-.55.06-.76.19s-.38.31-.52.55c-.13.23-.23.51-.29.82a5.3 5.3 0 0 0-.09 1.03v.31a3 3 0 0 0 .14.93 2.4 2.4 0 0 0 .41.74 1.9 1.9 0 0 0 .65.48c.26.11.55.17.88.17.4 0 .78-.08 1.13-.23a2.4 2.4 0 0 0 .91-.72l1.09 1.18a3.3 3.3 0 0 1-.72.73c-.3.23-.66.43-1.09.58s-.91.22-1.45.22zm8.83-8.58v1.59h-4.89v-1.59h4.89zm-3.68-2.08h2.24v7.96c0 .24.03.43.09.56s.17.22.3.27.29.07.49.07l.37-.02.29-.05v1.65a5.1 5.1 0 0 1-.62.15c-.22.04-.47.05-.74.05-.49 0-.92-.08-1.29-.24s-.64-.43-.84-.79a3 3 0 0 1-.29-1.43v-8.19zm8.82 10.66a4.7 4.7 0 0 1-1.75-.31c-.52-.21-.96-.51-1.32-.88a3.9 3.9 0 0 1-.82-1.3c-.19-.5-.29-1.03-.29-1.59v-.31a5.4 5.4 0 0 1 .27-1.75c.18-.53.44-.99.78-1.38a3.4 3.4 0 0 1 1.24-.9 4.1 4.1 0 0 1 1.65-.32 4 4 0 0 1 1.58.3 3.1 3.1 0 0 1 1.16.84 3.6 3.6 0 0 1 .71 1.31 5.5 5.5 0 0 1 .24 1.68v.93h-6.68v-1.5h4.48v-.17c0-.31-.06-.59-.17-.83-.11-.25-.27-.45-.5-.59a1.6 1.6 0 0 0-.85-.22c-.3 0-.55.06-.76.19a1.5 1.5 0 0 0-.52.55c-.13.23-.23.51-.29.82a5.3 5.3 0 0 0-.09 1.03v.31a3 3 0 0 0 .14.93 2.3 2.3 0 0 0 .41.74 1.9 1.9 0 0 0 .65.48c.26.11.55.17.88.17a2.7 2.7 0 0 0 1.13-.23 2.5 2.5 0 0 0 .91-.72l1.09 1.18a3.3 3.3 0 0 1-.72.73c-.3.23-.66.43-1.09.58s-.91.22-1.45.22zm6.96-6.74v6.59h-2.24v-8.42h2.1l.13 1.84zm2.53-1.89l-.04 2.08-.4-.04-.41-.02c-.32 0-.59.04-.82.12s-.42.19-.58.35c-.15.16-.26.35-.34.57s-.11.48-.12.76l-.45-.14c0-.54.05-1.04.16-1.5s.27-.86.47-1.21.47-.61.78-.79.65-.28 1.05-.28c.12 0 .25.01.38.03a1.4 1.4 0 0 1 .32.07zm3.29 1.8v6.68h-2.24v-8.42h2.1l.14 1.74zm-.31 2.17h-.62a5.9 5.9 0 0 1 .21-1.62c.15-.5.35-.93.63-1.29a2.9 2.9 0 0 1 1.03-.86 3.2 3.2 0 0 1 1.42-.3c.37 0 .71.06 1.03.17.31.11.58.28.8.52.23.23.4.54.53.92a4.3 4.3 0 0 1 .19 1.35v5.62h-2.24v-5.37c0-.38-.05-.68-.15-.89a.9.9 0 0 0-.44-.44 1.7 1.7 0 0 0-.67-.12c-.29 0-.54.06-.76.18-.21.12-.39.29-.53.5a2.3 2.3 0 0 0-.31.73 3.9 3.9 0 0 0-.1.9zm5-.26l-.8.1a5.6 5.6 0 0 1 .2-1.53 3.9 3.9 0 0 1 .61-1.24c.27-.36.61-.64 1.02-.83a3.1 3.1 0 0 1 1.4-.3 3.2 3.2 0 0 1 1.1.18 2.2 2.2 0 0 1 .85.55c.24.25.42.58.54.98.13.41.19.9.19 1.49v5.38h-2.24v-5.38c0-.39-.05-.69-.15-.89s-.24-.35-.44-.43a1.7 1.7 0 0 0-.67-.12c-.27 0-.5.05-.71.16-.2.1-.37.25-.5.44a2 2 0 0 0-.3.65c-.07.24-.1.51-.1.8z"/><use href="#M"/><path d="M876.34 446.25v6.63h-2.24v-8.42h2.1l.14 1.8zm-.33 2.12h-.61a5.5 5.5 0 0 1 .24-1.68 3.8 3.8 0 0 1 .68-1.28 2.9 2.9 0 0 1 1.03-.82 3.1 3.1 0 0 1 1.35-.29 3.4 3.4 0 0 1 1.08.17c.33.11.61.3.84.54.24.25.42.58.54.99.13.41.19.91.19 1.5v5.37h-2.25v-5.38a2 2 0 0 0-.15-.87c-.1-.21-.26-.35-.46-.44s-.44-.13-.73-.13a1.6 1.6 0 0 0-.78.18c-.22.12-.4.29-.54.5a2.3 2.3 0 0 0-.32.73 3.7 3.7 0 0 0-.11.9zm11.58 2.61v-3.75a1.6 1.6 0 0 0-.13-.69c-.09-.19-.23-.35-.41-.46s-.42-.16-.71-.16c-.25 0-.46.04-.64.13s-.32.2-.42.37-.15.34-.15.55h-2.24a2.2 2.2 0 0 1 .25-1.02c.17-.32.41-.61.72-.85a3.6 3.6 0 0 1 1.13-.58c.44-.14.93-.21 1.47-.21.65 0 1.23.11 1.74.33s.91.54 1.19.98c.3.44.44.98.44 1.63v3.6a6.2 6.2 0 0 0 .09 1.14c.06.29.14.54.25.76v.13h-2.26c-.11-.23-.19-.51-.25-.86a7.3 7.3 0 0 1-.08-1.04zm.29-3.23l.02 1.27h-1.25a2.6 2.6 0 0 0-.77.1c-.22.07-.4.16-.53.29a1.1 1.1 0 0 0-.31.42c-.06.16-.09.34-.09.53s.04.37.13.52.22.27.38.36c.17.08.36.13.58.13.34 0 .63-.07.88-.2s.44-.3.57-.5.21-.38.22-.56l.59.95c-.08.21-.2.43-.34.66a3.1 3.1 0 0 1-.54.65 2.8 2.8 0 0 1-.78.49c-.3.13-.67.19-1.09.19-.53 0-1.02-.11-1.45-.32a2.7 2.7 0 0 1-1.03-.89c-.25-.38-.37-.82-.37-1.31 0-.44.08-.83.25-1.18s.41-.63.73-.86a3.4 3.4 0 0 1 1.22-.54 7.1 7.1 0 0 1 1.69-.19h1.3zm7.8-3.3v1.59h-4.89v-1.59h4.89zm-3.68-2.08h2.24v7.96c0 .24.03.43.09.56.07.13.17.22.3.27s.29.07.49.07l.37-.02.29-.05.01 1.65a5.1 5.1 0 0 1-.62.15c-.22.04-.47.05-.74.05-.49 0-.92-.08-1.29-.24s-.64-.43-.84-.79a3 3 0 0 1-.3-1.43v-8.19zm7.31 2.08v8.42h-2.24v-8.42h2.24zm-2.38-2.19c0-.33.11-.6.34-.81a1.3 1.3 0 0 1 .92-.32c.39 0 .68.11.91.32s.35.48.35.81-.12.6-.35.81-.53.32-.91.32-.69-.11-.92-.32-.34-.48-.34-.81zm3.87 6.49v-.16c0-.62.09-1.19.26-1.7s.43-.98.77-1.36a3.5 3.5 0 0 1 1.24-.89 4.1 4.1 0 0 1 1.69-.33 4.2 4.2 0 0 1 1.7.33c.5.21.91.51 1.25.89a3.9 3.9 0 0 1 .78 1.36 5.2 5.2 0 0 1 .26 1.7v.16c0 .61-.09 1.18-.26 1.7a4 4 0 0 1-.78 1.36 3.5 3.5 0 0 1-1.24.89c-.49.21-1.06.32-1.69.32s-1.2-.11-1.7-.32-.91-.51-1.25-.89c-.34-.39-.59-.84-.77-1.36a5.2 5.2 0 0 1-.26-1.7zm2.24-.16v.16a5 5 0 0 0 .09.99 2.7 2.7 0 0 0 .3.81c.14.23.32.41.54.54s.49.19.81.19c.31 0 .58-.06.8-.19s.4-.31.54-.54.23-.5.29-.81a5.2 5.2 0 0 0 .1-.99v-.16c0-.34-.03-.66-.1-.97s-.16-.58-.3-.81a1.5 1.5 0 0 0-.54-.56c-.22-.13-.49-.2-.81-.2a1.6 1.6 0 0 0-1.35.76 2.7 2.7 0 0 0-.3.81 4.8 4.8 0 0 0-.09.97zm9.28-2.34v6.63h-2.24v-8.42h2.1l.14 1.8zm-.33 2.12h-.61a5.5 5.5 0 0 1 .24-1.68c.16-.5.38-.93.68-1.28a2.9 2.9 0 0 1 1.03-.82 3.1 3.1 0 0 1 1.35-.29 3.4 3.4 0 0 1 1.08.17c.33.11.61.3.84.54.24.25.42.58.54.99s.19.91.19 1.5v5.37h-2.25v-5.38a2 2 0 0 0-.15-.87c-.1-.21-.26-.35-.46-.44s-.44-.13-.73-.13a1.6 1.6 0 0 0-.78.18c-.22.12-.4.29-.54.5a2.3 2.3 0 0 0-.32.73 3.7 3.7 0 0 0-.11.9z"/></g><path d="M900.51 283.13c-1.27-1.66-2.81-3.1-4.25-4.54-3.69-3.32-7.88-5.71-11.41-9.2-8.21-8.09-10.03-21.45-4.79-31.7-5.24 1.27-9.81 4.16-13.73 7.31-14.28 11.53-19.9 31.87-13.18 49.32.22.55.44 1.11.44 1.83 0 1.22-.83 2.33-1.93 2.77a3.4 3.4 0 0 1-3.64-.67c-.31-.26-.57-.58-.77-.94-6.23-7.93-7.22-19.29-3.03-28.37-9.21 7.54-14.22 20.28-13.5 32.31.33 2.77.66 5.54 1.6 8.31.77 3.32 2.26 6.65 3.91 9.59 5.95 9.59 16.26 16.46 27.34 17.85 11.8 1.5 24.42-.67 33.46-8.87 10.09-9.2 13.62-23.94 8.43-36.58l-.72-1.44c-1.16-2.55-4.24-6.98-4.24-6.98zm-17.42 34.91c-1.54 1.33-4.08 2.77-6.06 3.33-6.17 2.22-12.35-.89-15.99-4.54 6.56-1.55 10.47-6.43 11.63-11.36.94-4.43-.83-8.09-1.54-12.36-.66-4.1-.55-7.59.94-11.42 1.05 2.11 2.15 4.21 3.47 5.87 4.24 5.54 10.91 7.98 12.35 15.52.22.78.33 1.55.33 2.38a17 17 0 0 1-5.13 12.58z" fill="#37474f"/><path d="M896.95 289.07c-1.27-1.66-2.81-3.1-4.24-4.54-3.69-3.32-7.88-5.71-11.41-9.2-8.21-8.09-10.03-21.45-4.8-31.7-5.24 1.28-9.81 4.16-13.73 7.31-14.28 11.53-19.9 31.87-13.17 49.32.22.56.44 1.11.44 1.83 0 1.22-.83 2.33-1.93 2.77a3.4 3.4 0 0 1-3.64-.67c-.31-.26-.57-.58-.77-.94-6.23-7.93-7.22-19.29-3.03-28.37-9.21 7.54-14.22 20.28-13.51 32.31.33 2.77.66 5.54 1.6 8.31.77 3.33 2.26 6.65 3.91 9.59 5.95 9.59 16.26 16.46 27.34 17.85 11.8 1.5 24.42-.67 33.46-8.87 10.09-9.2 13.62-23.94 8.43-36.58l-.72-1.44c-1.16-2.55-4.25-6.98-4.25-6.98zm-17.42 34.91c-1.54 1.33-4.08 2.77-6.06 3.33-6.17 2.22-12.35-.89-15.99-4.55 6.56-1.55 10.47-6.43 11.63-11.36.94-4.43-.83-8.09-1.54-12.36-.66-4.1-.55-7.59.94-11.42 1.05 2.11 2.15 4.21 3.47 5.87 4.24 5.54 10.91 7.98 12.35 15.52a8.6 8.6 0 0 1 .33 2.38 17 17 0 0 1-5.13 12.58z" class="D"/></g><rect x="1" y="1" width="1138" height="638" rx="15" stroke="#0668e1" stroke-width="2"/><defs><filter id="F" x="-4.75" y="56.41" width="332.5" height="98.56" filterUnits="userSpaceOnUse" color-interpolation-filters="sRGB"><feFlood flood-opacity="0" result="A"/><feColorMatrix in="SourceAlpha" values="0 0 0 0 0 0 0 0 0 0 0 0 0 0 0 0 0 0 127 0" result="B"/><feOffset dy="1.78125"/><feGaussianBlur stdDeviation="2.38"/><feComposite in2="B" operator="out"/><feColorMatrix values="0 0 0 0 0 0 0 0 0 0 0 0 0 0 0 0 0 0 0.3 0"/><feBlend in2="A"/><feBlend in="SourceGraphic"/></filter><linearGradient id="G" x1="640.96" y1="414.14" x2="1772.43" y2="869.72" href="#N"><stop stop-color="#b1d4ff"/><stop offset=".04" stop-color="#a2cbfc"/><stop offset=".16" stop-color="#479aff"/><stop offset=".28" stop-color="#0072ff"/><stop offset=".38" stop-color="#0668e1"/></linearGradient><linearGradient id="H" x1="182.28" y1="95.38" x2="-200.17" y2="-40.95" href="#N"><stop stop-color="#b1d4ff"/><stop offset=".04" stop-color="#b8d8ff"/><stop offset=".16" stop-color="#479aff"/><stop offset=".28" stop-color="#0072ff"/><stop offset=".38" stop-color="#0668e1"/></linearGradient><linearGradient id="I" x1="814.53" y1="369.05" x2="1149.64" y2="624.32" href="#N"><stop offset=".38" stop-color="#7fb8ff"/><stop offset=".62" stop-color="#4095ff"/><stop offset=".85" stop-color="#0273ff"/><stop offset="1" stop-color="#0668e1"/></linearGradient><linearGradient id="J" x1="523.96" y1="-18.61" x2="-9.29" y2="43.69" href="#N"><stop offset=".38" stop-color="#7fb8ff"/><stop offset=".62" stop-color="#4095ff"/><stop offset=".85" stop-color="#0273ff"/><stop offset="1" stop-color="#0668e1"/></linearGradient><clipPath id="K"><rect width="1140" height="640" rx="16" class="B"/></clipPath><path id="L" d="M836.34 128.97c-1.29 0-2.33-1.04-2.33-2.33s1.05-2.33 2.33-2.33 2.33 1.05 2.33 2.33-1.05 2.33-2.33 2.33z"/><path id="M" d="M872.3 444.45v8.42h-2.24v-8.42h2.24zm-2.38-2.19c0-.33.11-.6.34-.81s.53-.32.92-.32.68.11.91.32c.23.21.35.48.35.81s-.12.6-.35.81c-.23.21-.53.32-.91.32s-.69-.11-.92-.32-.34-.48-.34-.81z"/><linearGradient id="N" gradientUnits="userSpaceOnUse"/></defs></svg>