<svg xmlns="http://www.w3.org/2000/svg" width="100" height="100" fill="none" xmlns:v="https://vecta.io/nano"><g opacity=".6" fill="#b7d7ff"><path d="M59.25 52.09c-5.14-2.97-13.45-2.97-18.55 0-.02.01-.05.03-.07.04-3.29 1.94-4.41 4.66-3.37 7.13.55 1.32 1.72 2.57 3.5 3.59 5.14 2.97 13.45 2.97 18.56 0s5.08-7.8-.06-10.77h0zm2.39-1.4c-6.46-3.74-16.94-3.74-23.36 0l-.5.31.33.13.45-.27c6.27-3.65 16.5-3.65 22.8 0s6.34 9.59.08 13.24-16.5 3.65-22.8 0c-2.31-1.34-3.78-2.99-4.41-4.72l-.4.01c.63 1.78 2.14 3.48 4.53 4.86 6.46 3.74 16.94 3.74 23.36 0s6.38-9.82-.08-13.56h0zm2.33-1.35c-7.75-4.49-20.33-4.49-28.04 0a17.8 17.8 0 0 0-.91.57l.87.35a17.8 17.8 0 0 1 .78-.48c7.3-4.25 19.21-4.25 26.55 0s7.38 11.17.09 15.42-19.21 4.25-26.56 0c-2.79-1.61-4.53-3.61-5.2-5.71l-1.06.04c.7 2.23 2.54 4.37 5.52 6.1 7.76 4.49 20.34 4.49 28.04 0s7.66-11.79-.09-16.28h0zm4.78-2.79c-10.4-6.02-27.28-6.02-37.62 0s-10.28 15.82.12 21.84c4.38 2.53 9.9 4 15.6 4.4l-.05-1.31c-5.11-.4-10.05-1.73-13.98-4.01-9.53-5.51-9.58-14.49-.11-20.01s24.93-5.52 34.46 0c6.18 3.57 8.37 8.6 6.58 13.19l2.11.44c2.07-5.06-.31-10.61-7.12-14.55h0zM29.54 69.39c-11.35-6.57-11.42-17.26-.13-23.83s29.7-6.57 41.05 0 11.41 17.26.13 23.83-29.7 6.57-41.05 0h0zm41.29-24.05c-5.6-3.24-13.03-5.02-20.93-5.02s-15.31 1.78-20.87 5.02-8.61 7.55-8.59 12.13 3.12 8.89 8.72 12.13 13.03 5.02 20.93 5.02 15.3-1.78 20.87-5.02 8.61-7.55 8.59-12.13-3.12-8.89-8.72-12.13h0zm16.8 4.43l-.9.16c4.02 6.58 2.68 14.01-4.06 19.99l.76.31c4.25-3.75 6.52-8.15 6.5-12.75-.01-2.67-.8-5.26-2.29-7.71h0zM76.72 40.3c-7.38-3.88-16.84-6.01-26.85-6.01-10.66 0-20.68 2.41-28.19 6.79s-11.64 10.2-11.6 16.39 4.22 12.01 11.79 16.39 17.61 6.79 28.27 6.79c6.39 0 12.54-.86 18.06-2.5l-.46-.47c-14.61 4.29-32.97 2.89-45.22-4.19-15.26-8.83-15.34-23.19-.18-32.02 14.7-8.56 38.41-8.82 53.75-.78l.65-.38h0zm5.58-1.64c-4.39-2.54-9.5-4.5-15.19-5.84a75.5 75.5 0 0 0-17.25-1.95 75.2 75.2 0 0 0-17.23 1.95 55.2 55.2 0 0 0-15.13 5.84c-4.36 2.54-7.73 5.5-10.02 8.8-2.21 3.19-3.32 6.55-3.3 10.01s1.17 6.82 3.41 10.01a23.9 23.9 0 0 0 .45.62l.89-.17c-7.23-9.54-4.17-21.09 9.22-28.89 17.45-10.16 45.94-10.16 63.5 0s17.66 26.7.21 36.86c-10.86 6.32-25.99 8.71-40.1 7.17l-.22.53a78.3 78.3 0 0 0 8.62.47c5.95 0 11.75-.66 17.23-1.95a55.2 55.2 0 0 0 15.13-5.84c4.36-2.54 7.73-5.5 10.02-8.8 2.21-3.19 3.32-6.55 3.3-10.01s-1.17-6.82-3.41-10.01c-2.32-3.3-5.73-6.26-10.12-8.8h0zm2.94-1.71c-4.79-2.77-10.36-4.92-16.58-6.38-3.46-.81-7.04-1.4-10.7-1.74l.07.17c9.89.95 19.39 3.63 27.02 8.05 19.46 11.26 19.56 29.57.23 40.83s-50.89 11.26-70.34 0-19.56-29.57-.23-40.83c2.32-1.35 4.82-2.54 7.44-3.56l-.06-.17a54 54 0 0 0-7.57 3.62c-4.76 2.77-8.44 6-10.93 9.6A18.8 18.8 0 0 0 0 57.47c.02 3.77 1.27 7.44 3.72 10.92C6.26 72 9.97 75.23 14.76 78a60.9 60.9 0 0 0 16.58 6.38c6 1.41 12.33 2.12 18.83 2.13a82.1 82.1 0 0 0 18.8-2.13c6.19-1.46 11.75-3.61 16.51-6.38s8.43-6 10.93-9.6a18.8 18.8 0 0 0 3.6-10.92c-.02-3.77-1.27-7.44-3.72-10.92-2.53-3.6-6.25-6.83-11.04-9.6z"/></g><path d="M49.35 59.59c-5.16-.78-9.1-3.28-8.81-5.58s4.7-3.55 9.86-2.78 9.1 3.28 8.81 5.58-4.7 3.55-9.86 2.78z" fill="#b6d7ff"/><path d="M40.92 57.53c-.16-.69-.39-3.09-.39-3.09.08.23.24.9.59 1.35 1.1 1.43 3.05 2.26 3.8 2.59.82.33 2.82 1 4.77 1.26 2.08.17 2.38.27 4.97.02 2.51-.38 3.2-1.04 3.91-1.63.57-.57.65-1.08.63-1.79l.3 2.39c.04.28.18.9-.51 1.56-.77.73-1.36 1.03-2.52 1.39-2.32.72-4.97.55-6.2.35s-3.75-.67-6.18-1.8c-2.18-1.01-3-1.91-3.16-2.6z" fill="#8fc1ff"/><path d="M50.31 54.69l-.13.32s-1.13.34-1.8.28c-.78-.07-1.55.17-2.9.19s-3.08-.03-3.26-.69c-.01-.18.03-.33.13-.47.34-.5 1.35-.82 3.03-1.42l.22-.08c1.77-.68 1.87-1.45 1.87-1.45l2.96.99c.18 1.62-.13 2.32-.13 2.32z" fill="#000"/><path d="M51.93 30.16c.04 2.27-.73 2.83-1.18 5.07-.31 1.55-.82 4.78-.44 6.31.6 2.37 1.19 1.82.42 11.17-1.73 1.04-3.83.83-4.78-.01 1.36-5.93.19-9.92-.01-10.85-1.26-5.74-1.51-11.31-1.04-13.94.46-2.58 4.35.89 6.43 1.7l.6.53z" fill="#3e4242"/><path d="M56.42 52c.56 1.72.08 5.8-1.88 6.26-.6.14-2.17.07-2.46-.52-.49-.98.6-2.25 1.15-3.26.34-.63.19-1.18.13-1.86-.09-.9.71-.73 1.38-.84l1.69.21z" fill="#000"/><path d="M57.06 53.96c-.38.53-2.67 1.07-2.85 1.11-.01 0-.98-.78-1.46-1.19a24.8 24.8 0 0 0-1.23-10.8c-1.19-2.64-2.18-5.15-2.6-8.05-.18-1.2-.67-3.46-1.06-5.31-.64-.6-1.46-1.31-2.13-2.11l.68-3.98 7.09 3.9.92.5a209.9 209.9 0 0 0 .68 10.33c.31 2.29 1.19 4.46 1.62 6.73.38 2.02.77 5.97.33 8.86z" fill="#5b6061"/><path d="M53.38 54.93l-.21.41c.07.11.31.15.43.25-1.34-.23-1.75 1.8-.37 2.01.93.15 1.97-.17 2.41-1.05.22-.44.32-.93.38-1.41-1 .32-2.07.43-2.64-.21zm-8.25-1.94c-1.53.54-2.46.86-2.78 1.33.32.52 1.22.63 1.74.63.51 0 1.07.03 1.56-.16.32-.12.42-.37.4-.64-.37-.34-.67-.74-.93-1.17z" fill="#181a19"/><path d="M57.06 53.96c-.38.53-2.67 1.07-2.85 1.11l.02-3.95c0-3.54-.77-6.16-1.86-9.47-1.39-4.2-1.34-8.43-2.11-12.75l3.25-1.36.92.5a210 210 0 0 0 .68 10.33c.31 2.29 1.19 4.46 1.62 6.73.38 2.02.77 5.97.33 8.86z" fill="#515556"/><path d="M50.97 7.97a50.3 50.3 0 0 1 1.11 1.05l.87.82-1.22.23-1.13-1.03.37-1.07z" fill="#94999d"/><path d="M45.83 16.51a10.5 10.5 0 0 0 2.4-3.92c.11-.3.17-.6.16-.92-.01-1.23-.67-2.77-1.89-2.53-.91.18-1.84.69-2.21 1.5-.4.88-2.92 5.35-2.76 6.3.12.69 2.44-1.11 2.73-.47.05.1.57 1.06.51 1.12l1.05-1.07z" fill="#83878b"/><path d="M44.17 15.28a17.1 17.1 0 0 0 .12 1.75h0l.53 4.17-.02 3.26-.03.6-.3 4.42c.69.88 2.2 1.47 2.52 1.55.07-.86.29-1.69.49-2.68.1.84.57 1.86.81 3.06 2.64.33 6.35-.48 6.77-1.41.02-1.1-.58-4.83-1.01-6.57-.54-2.26 2.12-7.16 1.8-11.36-.05-.05-.1-.1-.15-.15l-.3-.29c-.1-.1-.2-.19-.3-.28-.39-.36-.77-.66-1.14-.93-.08-.06-.16-.11-.24-.17-2.4-1.62-4.35-1.58-5.19-1.49l-.37.05c-1.33.16-2.55 1.2-2.78 1.54-1.04 1.6-1.23 3.08-1.21 4.92z" fill="#717577"/><path d="M44.18 15.28a17.1 17.1 0 0 0 .12 1.75h0c3.52 5.47 10.38.61 11.3-3.85a4.9 4.9 0 0 0 .1-1.26l-.3-.29c-.1-.1-.2-.19-.3-.28a15.8 15.8 0 0 0-1.14-.93c-.08-.06-.16-.11-.24-.17-2.4-1.62-4.35-1.58-5.19-1.49l-.37.05c-1.33.16-2.55 1.2-2.78 1.54-1.05 1.6-1.23 3.08-1.21 4.92z" fill="#83878b"/><path d="M50.89 5.61l.3 3.96c0 .69-1.02 1.24-1.71 1.25s-1.26-.55-1.26-1.25c0-.06 0-.12.01-.18l.52-3.88c.07-.54.56-.91 1.09-.84.48.07 1.03.46 1.03.93z" fill="#f2b09e"/><path d="M51.68 9.35l-1.35 3.71-2.55 3.4-.51-2.6.23-3.63 1.33.6 2.84-1.47z" fill="#ebf5f7"/><path d="M48.87 10.67c-.52-.55-.65-1.17-.65-1.17l-.71.29.31 2.01.92-.97.73 1.39s.86-.36 2.12-2.8c-.26-.48-.47-.71-.47-.71s-1.66 1.71-2.25 1.97z" fill="#d5dfe0"/><g fill="#e9001a"><path d="M48.03 11.58l.31.64.38.19.56-.55-.54-1.03-.71.75z"/><path d="M47.79 16.54c-.09-.38-.41-1.53-.31-2.37s.72-1.69 1-2.37c.39-.92.4.38.4.38l.16 2.16c0 .69-1.24 2.23-1.25 2.2z"/></g><path d="M48.72 11.81c-.24.02-.48-.05-.66-.19l.22.58.58.17.42-.52-.13-.25c-.11.12-.26.2-.43.21z" fill="#ce001e"/><path d="M51.59 8.94l1.36.9-.53 1.76-1.1.06.99.37s-.26 1.84-4.52 4.51c.6-1.25 3.7-5.48 3.81-7.6zm-3.87.94s-.61 4.6.06 6.66c-1.87-3.18-1.15-5.59-1.15-5.59l.54-.12-.54-.52c.05.08.43-1.24.43-1.24h.96l-.31.81z" fill="#94999d"/><path d="M51.05 8.94a8.8 8.8 0 0 1-1.78 1.81c-.33.21-.26.28-.11.63.09.22.19.46.33.65.72-.56 1.87-1.9 1.56-3.09zm-3.15 2.68c.14-.17.62-.55.64-.79.03-.26-.49-.57-.66-.7 0 0-.21 1.08.02 1.49z" fill="#f0fefd"/><path d="M50.68 7.95c-.34.18-.45.82-1.19 1.21-1 .53-1.7.5-2.05.57-.6.11-1.19-.34-1.26-.68a8.2 8.2 0 0 1-.12-2.25 10.6 10.6 0 0 1 1.34-4.29c1.33-1.47 2.59-1.42 4.5-.41 2.19 1.16 1.49 4.39-1.24 5.85z" fill="#ffc2ae"/><path d="M52.68 6.23c-.54.8-.91 1.32-1.76 1.57l-.63-.77-.11-.64h0l-.06-.37-.11-.61-.09-.37 1.34-.43 2.06-.67c.05.15.06.35.03.57-.07.55-.34 1.24-.67 1.72z" fill="#560e00"/><path d="M52.69 6.24c-.54.8-.91 1.32-1.76 1.57l-.63-.77-.11-.64h0c.14-.36.51-.7.85-.96l.44-.32c.01.06.04.14.06.22s.05.17.05.24c.13-.08.23-.22.3-.36s.12-.3.15-.44c.17-.11.38-.18.57-.17-.04.09-.05.18-.07.27l-.03.25c.08-.1.15-.23.2-.37l.12-.29c.07 0 .14.01.21.02l.3.04c-.07.55-.34 1.24-.67 1.72z" fill="#3f0801"/><path d="M53.23 4.3l-.18.18c-.11.1-.21.19-.33.27-.05.05-.11.09-.18.13-.21.14-.43.26-.65.34-.12.05-.23.09-.35.12-.17.05-.34.08-.51.1-.2.03-.41.04-.61.03l-.41-.04a5.6 5.6 0 0 1-3.03-1.61c-.35-.34-.27-.97.16-1.55a3.3 3.3 0 0 1 1.75-1.13c2.16-.61 4.71 1.04 4.42 2.82-.02.12-.05.24-.09.35z" fill="#560e00"/><path d="M51 6.67c.86-.94 1.33-.07 1.18.39-.18.55-.98 1.07-1.62.98-.08-.01.02-.58.1-.77.11-.26.2-.44.34-.6z" fill="#ffccbc"/><path d="M51.08 8.14c.61.69.46 1.18.46 1.18l-.62-.43s.18-.45.15-.75z" fill="#d5dfe0"/><path d="M48.16 20.89c0 .27-.17.48-.37.48s-.37-.21-.37-.48.16-.48.37-.48.37.22.37.48z" fill="#616161"/><path d="M48.22 23.98c0 .26-.17.48-.37.48s-.37-.21-.37-.48.17-.48.37-.48.37.21.37.48z" fill="#3a3c3d"/><path d="M51.27 4.62a3.1 3.1 0 0 0-.84.84c-.12.17-.21.36-.29.57l-.11-.61a5.2 5.2 0 0 1-3.12-1.53c-.35-.34-.19-1.05.25-1.63.6.96 1.86 2.03 2.58 2.3.83.31 2.25-.77 3.24-.84-.6.28-1.2.54-1.7.9z" fill="#3f0801"/><path d="M48.22 17.92c0 .26-.17.48-.37.48s-.37-.21-.37-.48.17-.48.37-.48.37.22.37.48z" fill="#3a3c3d"/><g fill="#afafaf"><use href="#F"/><use href="#F" y="3.02"/><use href="#F" y="6.05"/></g><path d="M50.24 25.58c-.02.1.03.25.05.34a5.6 5.6 0 0 0 3.32-.32c.01-.11.03-.26 0-.36l-3.37.34zm-4.46-.66c-.03.1-.13.22-.18.31a4.7 4.7 0 0 1-.82-.17l.03-.59.98.45z" fill="#797e81"/><path d="M43.58 18.43c.1.24.41.4.62.51.15.08.61.42.79.36.06-.02.09-.11.12-.17.14-.28.23-.57.3-.88.04-.16.06-.12-.05-.19-.27-.19-.67-.24-.98-.31l-.81.67z" fill="#ffd7cc"/><path d="M46.38 17.68l-1.09-.28-.94 2.79 1.08.4.94-2.91z" fill="#d5dfe0"/><g fill="#797e81"><path d="M49.55 22.56c-.66-.16-4.86-2-4.86-2s1.16-3.09 1.34-3.06c1.44.23 4.4 1.36 5.14 1.55l.13.03c.01 0 .04 0 .07-.01.94.9 2.02 3.22 1.82 3.39-.9.74-2.79.31-3.64.1z"/><path d="M51.61 19.44c-.04.01-.08.02-.14.03l.48-3.63a7 7 0 0 1 2.47-3.29c1.13-.77 1.66-.89 1.9.03.81 3.06-.44 7.98-3.13 9.88-.43-.19-.77-2.68-1.58-3.02z"/></g><path d="M55.9 12.27c-1.08-.16-2.11 1.01-2.5 1.93-.35.82-.42 1.7-.53 2.57-.09.69-.03 1.46-.23 2.12a8.1 8.1 0 0 1 1.03.67c-.26-.11-.65.01-.89.12.55.36 1.54 1.34 2.14.65.58-.67.84-1.98 1.01-2.83.26-1.35.54-2.72.43-4.1-.03-.32-.12-.62-.19-.94l-.26-.19z" fill="#83878b"/><path d="M47.04 11.47l-.68 2.14c-.01.02-1.67-1.68-1.67-1.68l1.05-2.12 1.3 1.66z" fill="#ffccbc"/><g fill="#ffd7cc"><path d="M45.58 9.81c.27-.68.42-.81.49-1.54.09.51.14.85.35 1.15-.01.46.98-.33 1.39-.8.26-.3 1.61-1.4 1.11-.38a9.1 9.1 0 0 1-1.09 1.39c.76-.22 1.71-1.66 1.86-1.52.16.25.08.68-.04.87-.02.6-.3 1.1-.64 1.54s-1.63 1.47-2.98.78c-.68-.35-.67-.96-.46-1.49zm-2.59 5.56c-.4-.29-1.74-.23-1.23.29.2.2.66-.07 1.28.33l-.04-.62z"/><path d="M42.77 15.91c-.48-.19-1.42-.04-1.49.62-.09.9 1.15.17 1.44.11l.04-.73z"/></g><path d="M45 10.82l2.17 1.02-.43.93-2.17-1.02.43-.93z" fill="#ebf5f7"/><path d="M41.81 19.14l.06.12c.37.78.47.95 1.14.82s1.44-.76 2.17-1.96c.84-1.37 2.07-4.39 2.02-5.81-.62-.29-1.26-.51-1.91-.73l-.98-.35c-.05.06-.09.13-.13.23l-2.51 5.14h0c-.02.05-.04.09-.05.13l-.04.08c-.31.73-.11 1.55.24 2.32z" fill="#717577"/><g fill="#797e81"><path d="M43.04 16.54l2.25-4.95-.98-.35c-.05.06-.09.13-.13.23l-2.51 5.14c.46-.2.83-.16 1.37-.07z"/><path d="M41.81 19.14a17.5 17.5 0 0 0 1.25-2.44c-.49-.05-.95.03-1.45.04l-.04.08c-.31.73-.11 1.55.24 2.32z"/></g><g fill="#3a3c3d"><path d="M45.91 20.62c-.1.04-.21.02-.24-.05s.02-.17.12-.22.21-.02.24.05-.02.17-.12.22zm.54.25c-.1.05-.21.02-.24-.05s.02-.17.12-.22.2-.02.24.05-.02.17-.12.22zm.54.24c-.1.04-.21.02-.24-.05s.02-.17.12-.22.21-.02.24.06-.02.17-.12.22z"/><use href="#G"/><path d="M46.64 13.66c.05.1.03.21-.04.24s-.17-.01-.22-.11-.03-.2.04-.24.17.01.22.11z"/><use href="#G" x="0.45" y="-1.11"/></g><ellipse cx="23.33" cy="33" rx="2.33" ry="1" fill="#d3e6ff"/><g clip-path="url(#A)"><path d="M15.36 18.02l17.38 1.64c1.48.14 2.59 1.04 2.59 2.11v6.35c0 1.17-1.33 2.12-2.97 2.12h-9.02V33l-4.99-2.76h-3.38c-1.64 0-2.97-.95-2.97-2.12v-7.99c0-1.28 1.58-2.27 3.36-2.11z" fill="#3688ff"/><path d="M18.8 23.62h.44c-.01.14-.05.27-.12.38s-.17.2-.29.26-.27.09-.45.09c-.14 0-.26-.02-.37-.07s-.2-.12-.28-.21-.13-.2-.17-.32a1.4 1.4 0 0 1-.06-.42v-.15c0-.16.02-.3.06-.42s.1-.23.18-.32a.8.8 0 0 1 .28-.21c.11-.05.23-.07.36-.07.18 0 .33.03.45.1s.22.15.29.27a.9.9 0 0 1 .12.39h-.44c0-.09-.02-.16-.05-.22s-.07-.11-.13-.14-.14-.05-.23-.05c-.07 0-.14.01-.19.04s-.1.07-.14.12-.07.13-.08.21-.03.18-.03.3v.15c0 .11.01.21.02.29s.04.15.08.21.08.1.13.13.12.04.2.04c.09 0 .17-.01.23-.04s.11-.07.14-.13.05-.13.06-.22zm.63-.07v-.03c0-.12.02-.22.05-.32s.08-.18.14-.26.14-.13.23-.17.2-.06.32-.06.23.02.32.06.17.1.24.17.11.16.15.26.05.2.05.32v.03a1 1 0 0 1-.05.32c-.03.1-.08.18-.15.26s-.14.13-.23.17a.8.8 0 0 1-.32.06c-.12 0-.23-.02-.32-.06s-.17-.1-.24-.17-.11-.16-.14-.26a1 1 0 0 1-.05-.32zm.42-.03v.03c0 .07.01.13.02.19a.5.5 0 0 0 .06.15c.03.04.06.08.1.1s.09.04.15.04.11-.01.15-.04.08-.06.1-.1a.5.5 0 0 0 .06-.15c.01-.06.02-.12.02-.19v-.03c0-.06-.01-.12-.02-.18s-.03-.11-.06-.15-.06-.08-.1-.11-.09-.04-.15-.04-.11.01-.15.04a.3.3 0 0 0-.1.11.5.5 0 0 0-.06.15.9.9 0 0 0-.02.18zm1.76-.45v1.26h-.42v-1.58h.4l.03.33zm-.06.41h-.12c0-.11.01-.21.04-.3s.07-.17.12-.24.12-.12.19-.16a.6.6 0 0 1 .27-.06c.07 0 .13.01.19.03s.11.05.15.1.08.1.1.17.04.15.04.25v1.06h-.42v-1.01c0-.07-.01-.13-.03-.17s-.05-.07-.08-.08-.08-.02-.13-.02-.1.01-.14.03-.07.05-.1.09-.05.08-.06.14-.02.11-.02.17zm.94-.05l-.15.02c0-.1.01-.2.04-.29s.06-.17.12-.23.12-.12.19-.16.16-.06.26-.06c.08 0 .15.01.21.03s.12.06.16.1.08.11.1.18.04.17.04.28v1.01h-.42v-1.01c0-.07-.01-.13-.03-.17s-.05-.07-.08-.08-.08-.02-.13-.02-.1.01-.13.03-.07.05-.1.08-.04.08-.06.12-.02.1-.02.15zm1.71-.38v1.89h-.42v-2.19h.39l.03.3zm1 .47v.03a1.2 1.2 0 0 1-.04.32.8.8 0 0 1-.12.26c-.05.07-.12.13-.19.17s-.16.06-.26.06-.18-.02-.25-.06-.13-.09-.18-.16-.09-.15-.12-.25-.05-.19-.07-.3v-.08a2 2 0 0 1 .07-.32c.03-.1.07-.18.12-.25s.11-.13.18-.17.15-.06.25-.06.19.02.27.06.14.09.19.16.09.16.12.25.04.21.04.33zm-.42.03v-.03c0-.07-.01-.13-.02-.19s-.03-.11-.05-.15-.05-.08-.09-.1-.08-.04-.14-.04-.11.01-.15.03-.07.05-.1.08-.04.08-.06.13-.02.1-.02.17v.2c0 .07.02.14.04.19s.06.1.1.13.11.05.18.05c.06 0 .1-.01.14-.04s.07-.06.09-.1.04-.09.05-.15.02-.12.02-.19zm1.54.42v-.71c0-.05-.01-.09-.02-.13s-.04-.07-.08-.09-.08-.03-.13-.03c-.05 0-.09.01-.12.02s-.06.04-.08.07-.03.06-.03.1h-.42c0-.07.02-.13.05-.19s.08-.11.14-.16.13-.08.21-.11.18-.04.28-.04c.12 0 .23.02.33.06a.5.5 0 0 1 .23.18c.06.08.08.18.08.31v.68c0 .09.01.16.02.21s.03.1.05.14v.02h-.43c-.02-.04-.04-.1-.05-.16s-.01-.13-.01-.2zm.06-.61v.24h-.24c-.06 0-.1.01-.15.02s-.07.03-.1.05-.05.05-.06.08-.02.06-.02.1.01.07.02.1.04.05.07.07.07.02.11.02c.06 0 .12-.01.17-.04s.08-.06.11-.09.04-.07.04-.11l.11.18c-.02.04-.04.08-.06.12s-.06.08-.1.12-.09.07-.15.09-.13.04-.21.04c-.1 0-.19-.02-.27-.06a.5.5 0 0 1-.19-.17c-.05-.07-.07-.15-.07-.25a.5.5 0 0 1 .05-.22c.03-.06.08-.12.14-.16s.14-.08.23-.1a1.3 1.3 0 0 1 .32-.04h.24zm1.11-.28v1.25h-.42v-1.58h.4l.03.34zm-.06.4h-.11c0-.12.02-.22.05-.32s.07-.18.13-.24.12-.12.19-.15.16-.05.25-.05c.07 0 .14.01.2.03s.11.06.16.1.08.11.1.19.04.17.04.28v1.01h-.42v-1.01c0-.07-.01-.12-.03-.16s-.05-.07-.09-.08-.08-.02-.14-.02-.11.01-.15.03-.08.05-.1.09-.05.08-.06.14-.02.11-.02.17zm1.8.67l.42-1.41h.45l-.64 1.82c-.01.04-.03.08-.06.13s-.05.09-.09.13-.09.08-.15.1-.13.04-.21.04c-.04 0-.07 0-.1-.01l-.09-.02v-.31h.03.03c.06 0 .1-.01.14-.02s.06-.03.08-.06.04-.06.05-.1l.12-.31zm-.18-1.41l.34 1.15.06.45-.29.03-.57-1.63h.45zm-8.8 3.88h.44c-.01.14-.05.27-.12.38s-.17.2-.29.26-.27.09-.45.09c-.14 0-.26-.02-.37-.07s-.2-.12-.28-.21-.13-.2-.17-.32a1.4 1.4 0 0 1-.06-.42v-.15c0-.16.02-.3.06-.42s.1-.23.18-.32a.8.8 0 0 1 .28-.21c.11-.05.23-.07.36-.07.18 0 .33.03.45.1s.22.15.29.27a.9.9 0 0 1 .12.39h-.44c0-.09-.02-.16-.05-.22s-.07-.11-.13-.14a.5.5 0 0 0-.23-.05c-.07 0-.14.01-.19.04s-.1.07-.14.12-.06.13-.08.21-.03.18-.03.3v.15c0 .11.01.21.02.29s.04.15.08.21.08.1.13.13.12.04.2.04c.09 0 .17-.01.23-.04s.11-.07.14-.13.05-.13.06-.22zm1.64.33v-1.21h.42v1.58h-.4l-.02-.38zm.05-.33h.12c0 .11-.01.2-.04.29a.7.7 0 0 1-.11.23c-.05.07-.11.12-.18.15s-.16.05-.26.05c-.08 0-.15-.01-.21-.03s-.12-.06-.17-.1-.08-.11-.11-.18-.04-.17-.04-.27v-1.02h.42v1.03c0 .05.01.09.02.12s.03.06.05.08.04.04.07.04.06.01.09.01c.09 0 .16-.02.21-.05s.09-.08.11-.14.03-.13.03-.21zm1.14-1.55v2.25h-.42v-2.25h.42zm1.13.67v.3h-.92v-.3h.92zm-.69-.39h.42v1.5c0 .05.01.08.02.11s.03.04.06.05.06.01.09.01h.07l.05-.01v.31c-.04.01-.08.02-.12.03s-.09.01-.14.01c-.09 0-.17-.02-.24-.05s-.12-.08-.16-.15-.06-.16-.06-.27v-1.54zm1.87 1.6v-1.21h.42v1.58h-.4l-.02-.38zm.05-.33h.12c0 .11-.01.2-.04.29a.7.7 0 0 1-.11.23c-.05.07-.11.12-.18.15s-.16.05-.26.05c-.08 0-.15-.01-.21-.03s-.12-.06-.17-.1-.08-.11-.11-.18-.04-.17-.04-.27v-1.02h.42v1.03c0 .05.01.09.02.12s.03.06.05.08.04.04.07.04.06.01.09.01c.09 0 .16-.02.21-.05s.09-.08.11-.14.03-.13.03-.21zm1.12-.53v1.24h-.42v-1.58h.4l.02.35zm.48-.36l-.01.39-.07-.01h-.08c-.06 0-.11.01-.16.02s-.08.04-.11.07-.05.06-.06.11-.02.09-.02.14l-.09-.03c0-.1.01-.2.03-.28s.05-.16.09-.23.09-.11.15-.15.12-.05.2-.05c.02 0 .05 0 .07.01s.04.01.06.01zm.9 1.62c-.12 0-.23-.02-.33-.06s-.18-.1-.25-.17-.12-.15-.16-.24-.05-.19-.05-.3v-.06c0-.12.02-.23.05-.33s.08-.19.15-.26.14-.13.23-.17.2-.06.31-.06.21.02.3.06.16.09.22.16.1.15.13.25.05.2.05.32v.18h-1.26v-.28h.85v-.03c0-.06-.01-.11-.03-.16s-.05-.08-.09-.11-.1-.04-.16-.04c-.06 0-.1.01-.14.04s-.07.06-.1.1-.04.1-.06.16-.02.12-.02.19v.06c0 .06.01.12.03.18s.04.1.08.14.08.07.12.09.1.03.17.03c.08 0 .15-.01.21-.04s.12-.08.17-.14l.21.22c-.03.05-.08.09-.14.14s-.12.08-.21.11-.17.04-.27.04z" fill="#fff"/></g><ellipse cx="12.5" cy="65.17" rx="2.33" ry="1" fill="#d3e6ff"/><g clip-path="url(#B)"><path d="M4.53 50.19l17.38 1.64c1.48.14 2.59 1.04 2.59 2.11v6.35c0 1.17-1.33 2.12-2.97 2.12h-9.02v2.76L7.52 62.4H4.14c-1.64 0-2.97-.95-2.97-2.12v-7.99c0-1.28 1.58-2.27 3.36-2.11z" fill="#3688ff"/><path d="M8.39 54.37v2.13h-.44l-.86-1.43v1.43h-.44v-2.13h.44l.86 1.43v-1.43h.44zm1.09 2.16c-.12 0-.23-.02-.33-.06s-.18-.1-.25-.17-.12-.15-.16-.24-.05-.19-.05-.3v-.06c0-.12.02-.23.05-.33s.08-.19.15-.26.14-.13.23-.17.2-.06.31-.06.21.02.3.06.16.09.22.16.1.15.13.25.05.2.05.32v.18H8.87v-.28h.85v-.03c0-.06-.01-.11-.03-.16s-.05-.08-.09-.11-.1-.04-.16-.04c-.06 0-.1.01-.14.04s-.07.06-.1.1-.04.1-.06.16-.02.12-.02.19v.06c0 .06.01.12.03.18s.04.1.08.14.08.07.12.09.1.03.17.03c.08 0 .15-.01.21-.04s.12-.08.17-.14l.21.22c-.03.05-.08.09-.14.14s-.12.08-.21.11-.17.04-.27.04zm1.89-1.61h.38v1.53c0 .14-.03.27-.1.37s-.15.18-.27.23-.25.08-.4.08c-.07 0-.14-.01-.21-.03s-.14-.05-.21-.08-.12-.08-.17-.14l.19-.25c.05.06.11.1.17.13s.14.05.21.05.14-.01.19-.04.09-.07.12-.12a.4.4 0 0 0 .04-.19v-1.17l.04-.37zm-1.07.81v-.03c0-.12.01-.23.04-.33s.07-.19.13-.26.12-.13.2-.17a.6.6 0 0 1 .27-.06c.11 0 .19.02.27.06s.13.09.18.17.08.16.11.25.05.2.06.32v.07c-.01.11-.04.21-.07.31s-.07.18-.12.25-.11.13-.18.16-.15.06-.25.06-.19-.02-.27-.06-.14-.1-.2-.17a.8.8 0 0 1-.13-.25c-.03-.1-.04-.2-.04-.32zm.42-.03v.03c0 .07.01.13.02.18s.03.11.06.15.06.08.1.1.09.04.15.04c.08 0 .14-.02.19-.05s.09-.08.11-.14.04-.12.04-.2v-.19c0-.06-.01-.12-.02-.17s-.04-.09-.06-.13-.06-.06-.1-.08-.09-.03-.15-.03-.1.01-.14.04-.07.06-.1.1-.05.09-.06.15-.02.12-.02.19zm2.21.45v-.71c0-.05-.01-.09-.02-.13s-.04-.07-.08-.09-.08-.03-.13-.03c-.05 0-.09.01-.12.02s-.06.04-.08.07-.03.06-.03.1h-.42c0-.07.02-.13.05-.19s.08-.11.14-.16.13-.08.21-.11.18-.04.28-.04c.12 0 .23.02.33.06a.5.5 0 0 1 .23.18c.06.08.08.18.08.31v.68c0 .09.01.16.02.21s.03.1.05.14v.02H13c-.02-.04-.04-.1-.05-.16s-.01-.13-.01-.2zm.06-.61v.24h-.24c-.06 0-.1.01-.15.02s-.07.03-.1.05-.05.05-.06.08-.02.06-.02.1.01.07.02.1.04.05.07.07.07.02.11.02c.06 0 .12-.01.17-.04s.08-.06.11-.09.04-.07.04-.11l.11.18c-.02.04-.04.08-.06.12s-.06.08-.1.12-.09.07-.15.09-.13.04-.21.04c-.1 0-.19-.02-.27-.06a.5.5 0 0 1-.19-.17c-.05-.07-.07-.15-.07-.25a.5.5 0 0 1 .05-.22c.03-.06.08-.12.14-.16s.14-.08.23-.1a1.3 1.3 0 0 1 .32-.04h.24zm1.47-.62v.3h-.92v-.3h.92zm-.69-.39h.42v1.5c0 .05.01.08.02.11s.03.04.06.05.06.01.09.01h.07l.05-.01v.31c-.04.01-.08.02-.12.03s-.09.01-.14.01c-.09 0-.17-.02-.24-.05s-.12-.08-.16-.15-.06-.16-.06-.27v-1.54zm1.38.39v1.59h-.42v-1.59h.42zm-.45-.41c0-.06.02-.11.06-.15s.1-.06.17-.06.13.02.17.06.07.09.07.15-.02.11-.07.15-.1.06-.17.06-.13-.02-.17-.06-.06-.09-.06-.15zm1.34 1.69l.35-1.28h.44l-.53 1.59h-.27l.01-.31zm-.24-1.28l.35 1.28v.31h-.27l-.53-1.59h.44zm1.93 1.61c-.12 0-.23-.02-.33-.06s-.18-.1-.25-.17-.12-.15-.16-.24-.05-.19-.05-.3v-.06c0-.12.02-.23.05-.33s.08-.19.15-.26.14-.13.23-.17.2-.06.31-.06.21.02.3.06.16.09.22.16.1.15.13.25.05.2.05.32v.18h-1.26v-.28h.85v-.03c0-.06-.01-.11-.03-.16s-.05-.08-.09-.11-.1-.04-.16-.04c-.06 0-.1.01-.14.04s-.07.06-.1.1-.04.1-.06.16-.02.12-.02.19v.06c0 .06.01.12.03.18s.04.1.08.14.08.07.12.09.1.03.17.03c.08 0 .15-.01.21-.04s.12-.08.17-.14l.21.22c-.03.05-.08.09-.14.14s-.12.08-.21.11-.17.04-.27.04zM7 59.16v.34H5.87v-.34H7zm-.99-1.79v2.13h-.44v-2.13h.44zm.84.87v.33h-.99v-.33h.99zm.15-.87v.34H5.87v-.34H7zm.57.55l.26.48.27-.48h.45l-.45.77.47.81h-.45l-.29-.51-.29.51H7.1l.47-.81-.45-.77h.45zm1.61.3v1.89h-.42v-2.19h.39l.03.3zm1 .47v.03a1.2 1.2 0 0 1-.04.32.8.8 0 0 1-.12.26c-.05.07-.12.13-.19.17s-.16.06-.26.06-.18-.02-.25-.06-.13-.09-.18-.16-.09-.15-.12-.25-.05-.19-.07-.3v-.08a2 2 0 0 1 .07-.32c.03-.1.07-.18.12-.25s.11-.13.18-.17.15-.06.25-.06.19.02.27.06.14.09.19.16.09.16.12.25.04.21.04.33zm-.42.03v-.03c0-.07-.01-.13-.02-.19s-.03-.11-.05-.15-.05-.08-.09-.1-.08-.04-.14-.04-.11.01-.15.03-.07.05-.1.08-.04.08-.06.13-.02.1-.02.17v.2c0 .07.02.14.04.19s.06.1.1.13.11.05.18.05c.06 0 .1-.01.14-.04s.07-.06.09-.1.04-.09.05-.15.02-.12.02-.19zm1.42.81c-.12 0-.23-.02-.33-.06s-.18-.1-.25-.17-.12-.15-.16-.24-.05-.19-.05-.3v-.06c0-.12.02-.23.05-.33s.08-.19.15-.26.14-.13.23-.17.2-.06.31-.06.21.02.3.06.16.09.22.16.1.15.13.25.05.2.05.32v.18h-1.26v-.28h.85v-.03c0-.06-.01-.11-.03-.16s-.05-.08-.09-.11-.1-.04-.16-.04c-.06 0-.1.01-.14.04s-.07.06-.1.1-.04.1-.06.16-.02.12-.02.19v.06c0 .06.01.12.03.18s.04.1.08.14.08.07.12.09.1.03.17.03c.08 0 .15-.01.21-.04s.12-.08.17-.14l.21.22c-.03.05-.08.09-.14.14s-.12.08-.21.11-.17.04-.27.04zm1.31-1.27v1.24h-.42v-1.59h.4l.02.35zm.48-.36l-.01.39-.07-.01h-.08c-.06 0-.11.01-.16.02s-.08.04-.11.07-.05.06-.06.11-.02.09-.02.14l-.09-.03c0-.1.01-.2.03-.28s.05-.16.09-.23.09-.11.15-.15.12-.05.2-.05c.02 0 .05 0 .07.01s.04.01.06.01zm.64.01v1.59h-.42v-1.59h.42zm-.45-.41c0-.06.02-.11.06-.15s.1-.06.17-.06.13.02.17.06.07.09.07.15-.02.11-.07.15-.1.06-.17.06-.13-.02-.17-.06-.06-.09-.06-.15zm1.53 2.03c-.12 0-.23-.02-.33-.06s-.18-.1-.25-.17-.12-.15-.16-.24-.05-.19-.05-.3v-.06c0-.12.02-.23.05-.33s.08-.19.15-.26.14-.13.23-.17.2-.06.31-.06.21.02.3.06.16.09.22.16.1.15.13.25.05.2.05.32v.18h-1.26v-.28h.85v-.03c0-.06-.01-.11-.03-.16s-.05-.08-.09-.11-.1-.04-.16-.04c-.06 0-.1.01-.14.04s-.07.06-.1.1-.04.1-.06.16-.02.12-.02.19v.06c0 .06.01.12.03.18s.04.1.08.14.08.07.12.09.1.03.17.03c.08 0 .15-.01.21-.04s.12-.08.17-.14l.21.22c-.03.05-.08.09-.14.14s-.12.08-.21.11-.17.04-.27.04zm1.3-1.28v1.25h-.42v-1.59h.4l.03.34zm-.06.4h-.11c0-.12.02-.22.05-.32s.07-.18.13-.24.12-.12.19-.15.16-.05.25-.05c.07 0 .14.01.2.03s.11.06.16.1.08.11.1.19.04.17.04.28v1.01h-.42v-1.01c0-.07-.01-.12-.03-.16s-.05-.07-.09-.08-.08-.02-.14-.02-.11.01-.15.03-.08.05-.1.09-.05.09-.06.14-.02.11-.02.17zm1.98.55c.05 0 .1-.01.14-.03s.07-.05.09-.09.04-.08.04-.13h.4c0 .11-.03.21-.09.3s-.14.15-.24.2-.21.07-.33.07-.23-.02-.32-.06-.17-.1-.23-.17-.11-.16-.14-.25-.05-.2-.05-.31v-.04c0-.11.02-.22.05-.31s.08-.18.14-.25.14-.13.23-.17.2-.06.32-.06c.13 0 .24.02.34.07s.18.12.23.21.09.2.09.33h-.4c0-.05-.01-.1-.03-.14s-.05-.08-.09-.1-.09-.04-.15-.04-.11.01-.15.04-.07.06-.09.11-.04.09-.05.15-.01.11-.01.18v.04a1.3 1.3 0 0 0 .01.18c.01.06.02.11.04.15s.05.08.09.1.09.04.15.04zm1.64.33c-.12 0-.23-.02-.33-.06s-.18-.1-.25-.17-.12-.15-.16-.24-.05-.19-.05-.3v-.06c0-.12.02-.23.05-.33s.08-.19.15-.26.14-.13.23-.17.2-.06.31-.06.21.02.3.06.16.09.22.16.1.15.13.25.05.2.05.32v.18h-1.26v-.28h.85v-.03c0-.06-.01-.11-.03-.16s-.05-.08-.09-.11-.1-.04-.16-.04c-.06 0-.1.01-.14.04s-.07.06-.1.1-.04.1-.06.16-.02.12-.02.19v.06c0 .06.01.12.03.18s.04.1.08.14.08.07.12.09.1.03.17.03c.08 0 .15-.01.21-.04s.12-.08.17-.14l.21.22c-.03.05-.08.09-.14.14s-.12.08-.21.11-.17.04-.27.04z" fill="#fff"/></g><ellipse cx="43.67" cy="83.17" rx="2.33" ry="1" fill="#d3e6ff"/><g clip-path="url(#C)"><use href="#H" fill="#3688ff"/><path d="M42.89 73.24v.34h-1.11v-.34h1.11zm-.98-.87v2.13h-.44v-2.13h.44zm1.3 0v2.13h-.44v-2.13h.44zm.38 0h.8c.16 0 .3.02.42.07s.21.12.27.22.1.21.1.35c0 .11-.02.21-.06.29s-.09.15-.16.2-.15.1-.24.13l-.14.07h-.69v-.34h.51c.08 0 .14-.01.19-.04s.09-.07.11-.11.04-.11.04-.17-.01-.13-.04-.18-.06-.09-.12-.11-.12-.04-.19-.04h-.36v1.79h-.44v-2.13zm1.19 2.13l-.49-.95h.46l.49.93v.02h-.47zm-10.36 2.29h.44c-.01.14-.05.27-.12.38s-.17.2-.29.26-.27.09-.45.09c-.14 0-.26-.02-.37-.07s-.2-.12-.28-.21-.13-.2-.17-.32a1.4 1.4 0 0 1-.06-.42v-.15c0-.16.02-.3.06-.42s.1-.23.18-.32a.8.8 0 0 1 .28-.21c.11-.05.23-.07.36-.07.18 0 .33.03.45.1s.22.15.29.27a.9.9 0 0 1 .12.39h-.44c0-.09-.02-.16-.05-.22s-.07-.11-.13-.14a.5.5 0 0 0-.23-.05c-.07 0-.14.01-.19.04s-.1.07-.14.12-.06.13-.08.21-.03.18-.03.3v.15c0 .11.01.21.02.29s.04.15.08.21.08.1.13.13.12.04.2.04c.09 0 .17-.01.23-.04s.1-.07.14-.13.05-.13.06-.22zm.63-.07v-.03c0-.12.02-.22.05-.32s.08-.18.15-.26.14-.13.23-.17.2-.06.32-.06.23.02.32.06.17.1.24.17.11.16.15.26.05.2.05.32v.03a1 1 0 0 1-.05.32c-.03.1-.08.18-.15.26s-.14.13-.23.17a.8.8 0 0 1-.32.06c-.12 0-.23-.02-.32-.06s-.17-.1-.24-.17-.11-.16-.15-.26a1 1 0 0 1-.05-.32zm.42-.03v.03c0 .07.01.13.02.19a.5.5 0 0 0 .06.15c.03.04.06.08.1.1s.09.04.15.04.11-.01.15-.04.08-.06.1-.1.04-.09.06-.15.02-.12.02-.19v-.03c0-.06-.01-.12-.02-.18s-.03-.11-.06-.15-.06-.08-.1-.11-.09-.04-.15-.04-.11.01-.15.04a.3.3 0 0 0-.1.11.5.5 0 0 0-.06.15.9.9 0 0 0-.02.18zm1.76-.45v1.26h-.42v-1.58h.4l.03.33zm-.06.41h-.12c0-.11.01-.21.04-.3s.07-.17.12-.24.12-.12.19-.16a.6.6 0 0 1 .27-.06c.07 0 .13.01.19.03s.11.05.15.1.08.1.1.17.04.15.04.25v1.06h-.42v-1.01c0-.07-.01-.13-.03-.17s-.05-.07-.08-.08-.08-.02-.13-.02-.1.01-.14.03-.07.05-.1.09-.05.08-.06.14-.02.11-.02.17zm.94-.05l-.15.02c0-.1.01-.2.04-.29s.06-.17.12-.23.12-.12.19-.16.16-.06.26-.06c.08 0 .15.01.21.03s.12.06.16.1.08.11.1.18.04.17.04.28v1.01h-.42v-1.01c0-.07-.01-.13-.03-.17s-.05-.07-.08-.08-.08-.02-.13-.02-.1.01-.13.03-.07.05-.1.08-.04.08-.06.12-.02.1-.02.15zm1.71-.36v1.26h-.42v-1.58h.4l.03.33zm-.06.41h-.12c0-.11.01-.21.04-.3s.07-.17.12-.24.12-.12.19-.16a.6.6 0 0 1 .27-.06c.07 0 .13.01.19.03s.11.05.15.1.08.1.1.17.04.15.04.25v1.06h-.42v-1.01c0-.07-.01-.13-.03-.17s-.05-.07-.08-.08-.08-.02-.13-.02-.1.01-.14.03-.07.05-.1.09-.05.08-.06.14-.02.11-.02.17zm.94-.05l-.15.02c0-.1.01-.2.04-.29s.06-.17.12-.23.12-.12.19-.16.16-.06.26-.06c.08 0 .15.01.21.03s.12.06.16.1.08.11.1.18.04.17.04.28v1.01h-.42v-1.01c0-.07-.01-.13-.03-.17s-.05-.07-.08-.08-.08-.02-.13-.02-.1.01-.13.03-.07.05-.1.08-.04.08-.06.12-.02.1-.02.15zm2.23.52v-1.21h.42v1.58h-.4l-.02-.38zm.05-.33h.12c0 .11-.01.2-.04.29a.7.7 0 0 1-.11.23c-.05.07-.11.12-.18.15s-.16.05-.26.05c-.08 0-.15-.01-.21-.03s-.12-.06-.17-.1-.08-.11-.11-.18-.04-.17-.04-.27v-1.02h.42v1.03c0 .05.01.09.02.12s.03.06.05.08.04.04.07.04.06.01.09.01c.09 0 .16-.02.21-.05s.09-.08.11-.14.03-.13.03-.21zm1.11-.54v1.25h-.42v-1.58h.4l.03.34zm-.06.4h-.11c0-.12.02-.22.05-.32s.07-.18.13-.24.12-.12.19-.15.16-.05.25-.05c.07 0 .14.01.2.03s.11.06.16.1.08.11.1.19.04.17.04.28v1.01h-.42v-1.01c0-.07-.01-.12-.03-.16s-.05-.07-.09-.08-.08-.02-.14-.02-.11.01-.15.03-.08.05-.1.09-.05.08-.06.14-.02.11-.02.17zm1.78-.74v1.58h-.42v-1.58h.42zm-.45-.41c0-.06.02-.11.06-.15s.1-.06.17-.06.13.02.17.06.07.09.07.15-.02.11-.07.15-.1.06-.17.06-.13-.02-.17-.06-.06-.09-.06-.15zm1.45 1.7c.05 0 .1-.01.14-.03s.07-.05.09-.08.04-.08.04-.13h.4c0 .11-.03.21-.09.3s-.14.15-.24.2-.21.07-.33.07-.23-.02-.32-.06-.17-.1-.23-.17-.11-.16-.14-.25-.05-.2-.05-.31v-.04c0-.11.02-.22.05-.31s.08-.18.14-.25.14-.13.23-.17.2-.06.32-.06c.13 0 .24.02.34.07s.18.12.23.21.09.2.09.33h-.4c0-.05-.01-.1-.03-.14s-.05-.08-.09-.1-.09-.04-.14-.04-.11.01-.15.04-.07.06-.09.11-.04.09-.05.15-.01.11-.01.18v.04a1.3 1.3 0 0 0 .01.18c.01.06.02.11.04.15s.05.08.09.1.09.04.15.04zm1.77-.06v-.71c0-.05-.01-.09-.02-.13s-.04-.07-.08-.09-.08-.03-.13-.03c-.05 0-.09.01-.12.02s-.06.04-.08.07-.03.06-.03.1h-.42c0-.07.02-.13.05-.19s.08-.11.14-.16.13-.08.21-.11.18-.04.28-.04c.12 0 .23.02.33.06a.5.5 0 0 1 .23.18c.06.08.08.18.08.31v.68c0 .09.01.16.02.21s.03.1.05.14v.02h-.43c-.02-.04-.04-.1-.05-.16s-.01-.13-.01-.2zm.06-.61v.24h-.24c-.06 0-.1.01-.14.02s-.07.03-.1.05-.05.05-.06.08-.02.06-.02.1.01.07.02.1.04.05.07.07.07.02.11.02c.06 0 .12-.01.17-.04s.08-.06.11-.09.04-.07.04-.11l.11.18c-.02.04-.04.08-.06.12s-.06.08-.1.12-.09.07-.15.09-.13.04-.21.04c-.1 0-.19-.02-.27-.06a.5.5 0 0 1-.19-.17c-.05-.07-.07-.15-.07-.25a.5.5 0 0 1 .05-.22c.03-.06.08-.12.14-.16s.14-.08.23-.1a1.3 1.3 0 0 1 .32-.04h.24zm1.47-.62v.3h-.92v-.3h.92zm-.69-.39h.42v1.5c0 .05.01.08.02.11s.03.04.06.05.06.01.09.01h.07l.05-.01v.31c-.04.01-.08.02-.12.03s-.09.01-.14.01c-.09 0-.17-.02-.24-.05s-.12-.08-.16-.15-.06-.16-.06-.27v-1.54zm1.38.39v1.58h-.42v-1.58h.42zm-.45-.41a.2.2 0 0 1 .06-.15c.04-.04.1-.06.17-.06s.13.02.17.06.07.09.07.15-.02.11-.07.15-.1.06-.17.06-.13-.02-.17-.06-.06-.09-.06-.15zm.73 1.22v-.03c0-.12.02-.22.05-.32s.08-.18.15-.26.14-.13.23-.17.2-.06.32-.06.23.02.32.06.17.1.24.17.11.16.15.26.05.2.05.32v.03a1 1 0 0 1-.05.32c-.03.1-.08.18-.15.26s-.14.13-.23.17a.8.8 0 0 1-.32.06c-.12 0-.23-.02-.32-.06s-.17-.1-.24-.17-.11-.16-.15-.26a1 1 0 0 1-.05-.32zm.42-.03v.03c0 .07.01.13.02.19a.5.5 0 0 0 .06.15c.03.04.06.08.1.1s.09.04.15.04.11-.01.15-.04.08-.06.1-.1a.5.5 0 0 0 .06-.15c.01-.06.02-.12.02-.19v-.03c0-.06-.01-.12-.02-.18s-.03-.11-.06-.15-.06-.08-.1-.11-.09-.04-.15-.04-.11.01-.15.04a.3.3 0 0 0-.1.11.5.5 0 0 0-.06.15.9.9 0 0 0-.02.18zm1.75-.44v1.25h-.42v-1.58h.4l.03.34zm-.06.4h-.11c0-.12.02-.22.05-.32s.07-.18.13-.24.12-.12.19-.15.16-.05.25-.05c.07 0 .14.01.2.03s.11.06.16.1.08.11.1.19.04.17.04.28v1.01h-.42v-1.01c0-.07-.01-.12-.03-.16s-.05-.07-.09-.08-.08-.02-.14-.02-.11.01-.15.03-.08.05-.1.09-.05.08-.06.14-.02.11-.02.17z" fill="#fff"/></g><ellipse cx="87.17" cy="72.83" rx="2.33" ry="1" fill="#d3e6ff"/><g clip-path="url(#D)"><path d="M94.97 57.85l-17.38 1.64c-1.48.14-2.59 1.04-2.59 2.11v6.35c0 1.17 1.33 2.12 2.97 2.12h9.02v2.76l4.99-2.76h3.38c1.64 0 2.97-.95 2.97-2.12v-7.99c0-1.28-1.58-2.27-3.36-2.11z" fill="#3688ff"/><path d="M82.05 62.03h.37l.55 1.57.55-1.57h.37l-.77 2.13h-.3l-.77-2.13zm-.2 0h.37l.07 1.53v.61h-.44v-2.13zm1.87 0h.37v2.13h-.44v-.61l.07-1.53zm1.67 1.75v-1.21h.42v1.59h-.4l-.02-.38zm.05-.33h.12c0 .11-.01.2-.04.29a.7.7 0 0 1-.11.23c-.05.07-.11.12-.18.15s-.16.05-.26.05c-.08 0-.15-.01-.21-.03s-.12-.06-.17-.1-.08-.11-.11-.18-.04-.17-.04-.27v-1.02h.42v1.03c0 .05.01.09.02.12s.03.06.05.08.04.04.07.04.06.01.09.01c.09 0 .16-.02.21-.05s.09-.08.11-.14.03-.13.03-.21zm1.14-1.55v2.25h-.42v-2.25h.42zm1.13.66v.3h-.92v-.3h.92zm-.69-.39h.42v1.5c0 .05.01.08.02.11s.03.04.06.05.06.01.09.01h.07l.05-.01v.31c-.04.01-.08.02-.12.03s-.09.01-.14.01c-.09 0-.17-.02-.24-.05s-.12-.08-.16-.15-.06-.16-.06-.27v-1.54zm1.38.39v1.59h-.42v-1.59h.42zm-.45-.41c0-.06.02-.11.06-.15s.1-.06.17-.06.13.02.17.06.07.09.07.15-.02.11-.07.15-.1.06-.17.06-.13-.02-.17-.06a.2.2 0 0 1-.06-.15zm1.22.72v1.89h-.42v-2.19h.39l.03.3zm1 .47v.03a1.2 1.2 0 0 1-.04.32.8.8 0 0 1-.12.26c-.05.07-.12.13-.19.17s-.16.06-.26.06-.18-.02-.25-.06-.13-.09-.18-.16-.09-.15-.12-.25-.05-.19-.07-.3v-.08a2 2 0 0 1 .07-.32c.03-.1.07-.18.12-.25s.11-.13.18-.17.15-.06.25-.06.19.02.27.06.14.09.19.16.09.16.12.25.04.21.04.33zm-.42.03v-.03c0-.07-.01-.13-.02-.19s-.03-.11-.05-.15-.05-.08-.09-.1-.08-.04-.14-.04-.11.01-.15.03-.07.05-.1.08-.04.08-.06.13-.02.1-.02.17v.2c0 .07.02.14.04.19s.06.1.1.13.11.05.18.05c.06 0 .1-.01.14-.04s.07-.06.09-.1.04-.09.05-.15.02-.12.02-.19zm1.13-1.47v2.25h-.42v-2.25h.42zm1.08 2.28c-.12 0-.23-.02-.33-.06s-.18-.1-.25-.17-.12-.15-.16-.24-.05-.19-.05-.3v-.06c0-.12.02-.23.05-.33s.08-.19.15-.26.14-.13.23-.17.2-.06.31-.06.21.02.3.06.16.09.22.16.1.15.13.25.05.2.05.32v.18h-1.26v-.28h.85v-.03c0-.06-.01-.11-.03-.16s-.05-.08-.09-.11-.1-.04-.16-.04c-.06 0-.1.01-.14.04s-.07.06-.1.1-.04.1-.06.16-.02.12-.02.19v.06c0 .06.01.12.03.18s.04.1.08.14.08.07.12.09.1.03.17.03c.08 0 .15-.01.21-.04s.12-.08.17-.14l.2.22c-.03.05-.08.09-.14.14s-.12.08-.21.11-.17.04-.27.04zm-8.08 1.85v.1c0 .16-.02.31-.07.44s-.11.24-.19.33-.18.16-.29.21-.23.07-.37.07-.26-.02-.37-.07-.21-.12-.29-.21-.14-.2-.19-.33-.07-.27-.07-.44v-.1c0-.16.02-.31.07-.44s.11-.24.19-.33.18-.16.29-.21.23-.07.37-.07.26.02.37.07a.8.8 0 0 1 .29.21c.08.09.14.2.19.33s.07.27.07.44zm-.44.1v-.1a1.3 1.3 0 0 0-.03-.3c-.02-.09-.05-.16-.09-.22s-.09-.1-.15-.13-.12-.05-.2-.05-.14.02-.2.05-.11.07-.15.13-.07.13-.09.22a1.3 1.3 0 0 0-.03.3v.1c0 .11.01.21.03.3s.05.16.09.22.09.1.15.13.12.05.2.05.14-.02.2-.05.11-.07.15-.13.07-.13.09-.22.03-.19.03-.3zm1.16-.27v1.89h-.42v-2.19h.39l.03.3zm1 .47v.03a1.2 1.2 0 0 1-.04.32.8.8 0 0 1-.12.26c-.05.07-.12.13-.19.17s-.16.06-.26.06-.18-.02-.25-.06-.13-.09-.18-.16-.09-.15-.12-.25-.05-.19-.07-.3v-.08a2 2 0 0 1 .07-.32c.03-.1.07-.18.12-.25s.11-.13.18-.17.15-.06.25-.06.19.02.27.06.14.09.19.16.09.16.12.25.04.21.04.33zm-.42.03v-.03c0-.07-.01-.13-.02-.19s-.03-.11-.05-.15-.05-.08-.09-.1-.08-.04-.14-.04-.11.01-.15.03-.07.05-.1.08-.04.08-.06.13-.02.1-.02.17v.2c0 .07.02.14.04.19s.06.1.1.13.11.05.18.05c.06 0 .1-.01.14-.04s.07-.06.09-.1.04-.09.05-.15.02-.12.02-.19zm1.46-.81v.3h-.92v-.3h.92zm-.69-.39h.42v1.5c0 .05.01.08.02.11s.03.04.06.05.06.01.09.01h.07l.05-.01v.31c-.04.01-.08.02-.12.03s-.09.01-.14.01c-.09 0-.17-.02-.24-.05s-.12-.08-.16-.15-.06-.16-.06-.27v-1.54zm1.38.39v1.59h-.42v-1.59h.42zm-.45-.41c0-.06.02-.11.06-.15s.1-.06.17-.06.13.02.17.06.07.09.07.15-.02.11-.07.15-.1.06-.17.06-.13-.02-.17-.06a.2.2 0 0 1-.06-.15zm.73 1.22v-.03c0-.12.02-.22.05-.32s.08-.18.15-.26.14-.13.23-.17.2-.06.32-.06.23.02.32.06.17.1.24.17.11.16.15.26.05.2.05.32v.03a1 1 0 0 1-.05.32c-.03.1-.08.18-.15.26s-.14.13-.23.17a.8.8 0 0 1-.32.06c-.12 0-.23-.02-.32-.06s-.17-.1-.24-.17-.11-.16-.15-.26a1 1 0 0 1-.05-.32zm.42-.03v.03c0 .07.01.13.02.19s.03.11.06.15.06.08.1.1a.3.3 0 0 0 .15.04c.06 0 .11-.01.15-.04s.08-.06.1-.1.04-.09.06-.15.02-.12.02-.19v-.03c0-.06-.01-.12-.02-.18s-.03-.11-.06-.15-.06-.08-.1-.11-.09-.04-.15-.04-.11.01-.15.04a.3.3 0 0 0-.1.11c-.03.04-.04.09-.06.15a.9.9 0 0 0-.02.18zm1.75-.44v1.25h-.42v-1.59h.4l.03.34zm-.06.4h-.11c0-.12.02-.22.05-.32s.07-.18.13-.24.12-.12.19-.15.16-.05.25-.05c.07 0 .14.01.2.03s.11.06.16.1.08.11.1.19.04.17.04.28v1.01h-.42v-1.01c0-.07-.01-.12-.03-.16s-.05-.07-.09-.08-.08-.02-.14-.02-.11.01-.15.03-.08.05-.1.09-.05.08-.06.14-.02.11-.02.17zm2.19.41c0-.03-.01-.06-.03-.08s-.05-.05-.1-.07-.11-.04-.2-.06c-.08-.02-.15-.04-.22-.07s-.13-.06-.18-.1-.09-.08-.12-.13-.04-.11-.04-.18.01-.13.04-.19.07-.11.12-.16.12-.08.2-.11.17-.04.27-.04c.14 0 .26.02.35.07s.18.1.23.18.08.16.08.26h-.42c0-.04-.01-.08-.03-.11s-.04-.06-.08-.08-.08-.03-.14-.03c-.05 0-.09.01-.12.02s-.06.04-.08.06-.03.06-.03.09c0 .02 0 .05.01.07s.03.04.05.05.05.03.09.04.08.02.14.04c.11.02.22.05.31.09s.16.09.21.15.08.15.08.25c0 .07-.02.13-.05.19s-.08.11-.13.15-.13.08-.21.1-.17.04-.27.04c-.15 0-.27-.03-.37-.08s-.18-.12-.23-.2-.08-.17-.08-.25h.4c0 .06.02.1.04.14s.06.06.11.08.09.02.14.02.1-.01.14-.02.06-.04.08-.06.03-.06.03-.09z" fill="#fff"/></g><ellipse cx="84.33" cy="40" rx="2.33" ry="1" fill="#d3e6ff"/><g clip-path="url(#E)"><path d="M92.14 25.02l-17.38 1.64c-1.48.14-2.59 1.04-2.59 2.11v6.35c0 1.17 1.33 2.12 2.97 2.12h9.02V40l4.99-2.76h3.38c1.64 0 2.97-.95 2.97-2.12v-7.99c0-1.28-1.58-2.27-3.36-2.11z" fill="#3688ff"/><path d="M78.39 30.63h.44c-.01.14-.05.27-.12.38s-.17.2-.29.26-.27.09-.45.09c-.14 0-.26-.02-.37-.07s-.2-.12-.28-.21-.13-.2-.17-.32-.06-.27-.06-.42v-.15c0-.16.02-.3.06-.42s.1-.23.18-.32a.8.8 0 0 1 .28-.21c.11-.05.23-.07.36-.07.18 0 .33.03.45.1s.22.15.29.27a.9.9 0 0 1 .12.39h-.44c0-.09-.02-.16-.05-.22s-.07-.11-.13-.14a.5.5 0 0 0-.23-.05c-.07 0-.14.01-.19.04s-.1.07-.14.12-.06.13-.08.21-.03.18-.03.3v.15c0 .11.01.21.02.29s.04.15.08.21.08.1.13.13.12.04.2.04c.09 0 .17-.01.23-.04s.11-.07.14-.13.05-.13.06-.22zm1.56.35v-.71c0-.05-.01-.09-.02-.13s-.04-.07-.08-.09-.08-.03-.13-.03c-.05 0-.09.01-.12.02s-.06.04-.08.07-.03.06-.03.1h-.42c0-.07.02-.13.05-.19s.08-.11.14-.16.13-.08.21-.11.18-.04.28-.04c.12 0 .23.02.33.06a.5.5 0 0 1 .23.18c.06.08.08.18.08.31v.68c0 .09.01.16.02.21s.03.1.05.14v.02H80c-.02-.04-.04-.1-.05-.16s-.01-.13-.01-.2zm.06-.61v.24h-.24c-.06 0-.1.01-.14.02s-.07.03-.1.05-.05.05-.06.08-.02.06-.02.1.01.07.03.1.04.05.07.07.07.02.11.02c.06 0 .12-.01.17-.04s.08-.06.11-.09.04-.07.04-.11l.11.18c-.02.04-.04.08-.06.12s-.06.08-.1.12-.09.07-.15.09-.13.04-.21.04c-.1 0-.19-.02-.27-.06a.5.5 0 0 1-.19-.17c-.05-.07-.07-.15-.07-.25a.5.5 0 0 1 .05-.22c.03-.06.08-.12.14-.16s.14-.08.23-.1a1.3 1.3 0 0 1 .32-.04H80zm1.11-.28v1.25h-.42v-1.58h.4l.03.34zm-.06.4h-.11c0-.12.02-.22.05-.32s.07-.18.13-.24.12-.12.19-.15.16-.05.25-.05c.07 0 .14.01.2.03s.11.06.16.1.08.11.1.19.04.17.04.28v1.01h-.42v-1.01c0-.07-.01-.12-.03-.16s-.05-.07-.09-.08-.08-.02-.14-.02-.11.01-.15.03-.08.05-.1.09-.05.08-.06.14-.02.11-.02.17zm2.27.5v-1.9h.42v2.25h-.38l-.04-.35zm-1-.43v-.03c0-.12.01-.23.04-.33s.07-.19.12-.26.12-.13.19-.17.17-.06.26-.06c.09 0 .17.02.24.06s.13.09.18.17.09.16.12.25.05.2.07.32v.07a1.7 1.7 0 0 1-.07.31c-.03.09-.07.18-.12.25s-.11.13-.18.16a.5.5 0 0 1-.25.06c-.1 0-.19-.02-.26-.06s-.14-.1-.19-.17-.09-.16-.12-.25-.04-.2-.04-.32zm.42-.03v.03c0 .07 0 .13.01.18s.03.11.05.15.06.08.09.1.09.04.14.04c.07 0 .13-.02.18-.05s.08-.08.11-.14.04-.12.04-.2v-.19c0-.06-.01-.12-.03-.17s-.03-.09-.06-.13-.06-.06-.1-.08-.09-.03-.14-.03-.1.01-.14.04-.07.06-.1.1-.04.09-.05.15-.02.12-.02.19zm1.78-.78v1.58h-.42v-1.58h.42zm-.45-.41a.2.2 0 0 1 .06-.15c.04-.04.1-.06.17-.06s.13.02.17.06.07.09.07.15-.02.11-.07.15-.1.06-.17.06-.13-.02-.17-.06-.06-.09-.06-.15zm1.73 1.65v-1.9h.42v2.25h-.38l-.04-.35zm-1-.43v-.03c0-.12.01-.23.04-.33s.07-.19.12-.26.12-.13.19-.17.17-.06.26-.06c.09 0 .17.02.24.06s.13.09.18.17.09.16.12.25.05.2.07.32v.07a1.7 1.7 0 0 1-.07.31c-.03.09-.07.18-.12.25s-.11.13-.18.16-.15.06-.25.06c-.1 0-.19-.02-.26-.06s-.14-.1-.19-.17-.09-.16-.12-.25-.04-.2-.04-.32zm.42-.03v.03c0 .07 0 .13.01.18s.03.11.05.15.06.08.09.1.09.04.14.04c.07 0 .13-.02.18-.05s.08-.08.11-.14.04-.12.04-.2v-.19c0-.06-.01-.12-.03-.17s-.03-.09-.06-.13-.06-.06-.1-.08-.09-.03-.14-.03-.1.01-.14.04-.07.06-.1.1-.04.09-.05.15-.02.12-.02.19zm2.19.45v-.71c0-.05-.01-.09-.02-.13s-.04-.07-.08-.09-.08-.03-.13-.03c-.05 0-.09.01-.12.02s-.06.04-.08.07-.03.06-.03.1h-.42c0-.07.02-.13.05-.19s.08-.11.14-.16.13-.08.21-.11.18-.04.28-.04c.12 0 .23.02.33.06a.5.5 0 0 1 .23.18c.06.08.08.18.08.31v.68c0 .09.01.16.02.21s.03.1.05.14v.02h-.43c-.02-.04-.04-.1-.05-.16s-.01-.13-.01-.2zm.06-.61v.24h-.24c-.06 0-.1.01-.14.02s-.07.03-.1.05-.05.05-.06.08-.02.06-.02.1.01.07.02.1.04.05.07.07.07.02.11.02c.06 0 .12-.01.17-.04s.08-.06.11-.09.04-.07.04-.11l.11.18c-.02.04-.04.08-.06.12s-.06.08-.1.12-.09.07-.15.09-.13.04-.21.04c-.1 0-.19-.02-.27-.06a.5.5 0 0 1-.19-.17c-.05-.07-.07-.15-.07-.25a.5.5 0 0 1 .05-.22c.03-.06.08-.12.14-.16s.14-.08.23-.1a1.3 1.3 0 0 1 .32-.04h.24zm1.47-.62v.3h-.92v-.3h.92zm-.69-.39h.42v1.5c0 .05.01.08.02.11s.03.04.06.05.06.01.09.01h.07l.05-.01v.31c-.04.01-.08.02-.12.03s-.09.01-.14.01c-.09 0-.17-.02-.24-.05s-.12-.08-.16-.15-.06-.16-.06-.27v-1.54zm1.66 2.01c-.12 0-.23-.02-.33-.06s-.18-.1-.25-.17-.12-.15-.16-.24-.05-.19-.05-.3v-.06c0-.12.02-.23.05-.33s.08-.19.15-.26.14-.13.23-.17.2-.06.31-.06.21.02.3.06.16.09.22.16.1.15.13.25.05.2.05.32v.18h-1.26v-.28h.85v-.03c0-.06-.01-.11-.03-.16s-.05-.08-.09-.11-.1-.04-.16-.04c-.06 0-.1.01-.14.04s-.07.06-.1.1-.04.1-.06.16-.02.12-.02.19v.06c0 .06.01.12.03.18s.04.1.08.14.08.07.12.09.1.03.17.03c.08 0 .15-.01.21-.04s.12-.08.17-.14l.21.22c-.03.05-.08.09-.14.14s-.12.08-.21.11-.17.04-.27.04zm-11.53.84v2.13h-.44l-.86-1.43v1.43h-.44V32.2h.44l.86 1.43V32.2h.44zm.29 1.36v-.03c0-.12.02-.22.05-.32s.08-.18.15-.26.14-.13.23-.17.2-.06.32-.06.23.02.32.06.17.1.24.17.11.16.15.26.05.2.05.32v.03a1 1 0 0 1-.05.32c-.03.1-.08.18-.15.26s-.14.13-.23.17a.8.8 0 0 1-.32.06c-.12 0-.23-.02-.32-.06s-.17-.1-.24-.17-.11-.16-.15-.26a1 1 0 0 1-.05-.32zm.42-.03v.03c0 .07.01.13.02.19a.5.5 0 0 0 .06.15c.03.04.06.08.1.1s.09.04.15.04.11-.01.15-.04.08-.06.1-.1a.5.5 0 0 0 .06-.15c.01-.06.02-.12.02-.19v-.03c0-.06-.01-.12-.02-.18s-.03-.11-.06-.15-.06-.08-.1-.11-.09-.04-.15-.04-.11.01-.15.04-.07.06-.1.11-.04.09-.06.15a.9.9 0 0 0-.02.18zm2.12-.78v.3h-.92v-.3h.92zm-.69-.39h.42v1.5c0 .05.01.08.02.11s.03.04.06.05.06.01.09.01h.07l.05-.01v.31c-.04.01-.08.02-.12.03s-.09.01-.14.01c-.09 0-.17-.02-.24-.05s-.12-.08-.16-.15-.06-.16-.06-.27v-1.54zm3.14 1.63v.34h-1.14v-.34h1.14zm-.99-1.79v2.13h-.44V32.2h.44zm.84.87v.33h-.99v-.33h.99zm.15-.87v.34h-1.13v-.34h1.13zm.57.55l.26.48.27-.48h.45l-.45.77.47.81h-.45l-.29-.51-.29.51h-.45l.47-.81-.45-.77h.45zm1.81 1.28c.05 0 .1-.01.14-.03s.07-.05.09-.08.04-.08.04-.13h.4c0 .11-.03.21-.09.3s-.14.15-.24.2-.21.07-.33.07-.23-.02-.32-.06-.17-.1-.23-.17-.11-.16-.14-.25-.05-.2-.05-.31v-.04c0-.11.02-.22.05-.31s.08-.18.14-.25.14-.13.23-.17.2-.06.32-.06c.13 0 .24.02.34.07s.18.12.23.21.09.2.09.33h-.4c0-.05-.01-.1-.03-.14s-.05-.08-.09-.1-.09-.04-.15-.04-.11.01-.15.04-.07.06-.09.11-.04.09-.05.15-.01.11-.01.18v.04c0 .06 0 .12.01.18s.02.11.04.15.05.08.09.1.09.04.15.04zm1.36-1.28v1.58h-.42v-1.58h.42zm-.45-.41a.2.2 0 0 1 .06-.15c.04-.04.1-.06.17-.06s.13.02.17.06.07.09.07.15-.02.11-.07.15-.1.06-.17.06-.13-.02-.17-.06-.06-.09-.06-.15zm1.57.41v.3h-.92v-.3h.92zm-.69-.39h.42v1.5c0 .05.01.08.02.11s.03.04.06.05.06.01.09.01h.07l.05-.01v.31c-.04.01-.08.02-.12.03s-.09.01-.14.01c-.09 0-.17-.02-.24-.05s-.12-.08-.16-.15-.06-.16-.06-.27v-1.54zm1.66 2.01c-.12 0-.23-.02-.33-.06s-.18-.1-.25-.17-.12-.15-.16-.24-.05-.19-.05-.3v-.06c0-.12.02-.23.05-.33s.08-.19.15-.26.14-.13.23-.17.2-.06.31-.06.21.02.3.06.16.09.22.16.1.15.13.25.05.2.05.32v.18h-1.26v-.28h.85v-.03c0-.06-.01-.11-.03-.16s-.05-.08-.09-.11-.1-.04-.16-.04c-.06 0-.1.01-.14.04s-.07.06-.1.1-.04.1-.06.16-.02.12-.02.19v.06c0 .06.01.12.03.18s.04.1.08.14.08.07.12.09.1.03.17.03c.08 0 .15-.01.21-.04s.12-.08.17-.14l.21.22c-.03.05-.08.09-.14.14s-.12.08-.2.11-.17.04-.27.04zm1.83-.37v-1.9h.42v2.25h-.38l-.04-.35zm-1-.43v-.03c0-.12.01-.23.04-.33s.07-.19.12-.26.12-.13.19-.17.16-.06.26-.06c.09 0 .17.02.24.06s.13.09.18.17.09.16.12.25.05.2.07.32v.07a1.7 1.7 0 0 1-.07.31c-.03.09-.07.18-.12.25s-.11.13-.18.16-.15.06-.25.06-.19-.02-.26-.06-.14-.1-.19-.17-.09-.16-.12-.25-.04-.2-.04-.32zm.42-.03v.03c0 .07 0 .13.01.18s.03.11.05.15.06.08.09.1.09.04.14.04c.07 0 .13-.02.18-.05s.08-.08.11-.14.04-.12.04-.2v-.19a.7.7 0 0 0-.03-.17c-.01-.05-.03-.09-.06-.13s-.06-.06-.1-.08-.09-.03-.14-.03-.1.01-.14.04-.07.06-.1.1-.04.09-.05.15-.02.12-.02.19z" fill="#fff"/></g><g fill="#0668e1"><path d="M54.34 62.87L54 64.24l-.5.12.43-1.74.47-.11-.07.37zm.66-.52l-.12.43-.09.01-.09.02c-.07.02-.13.04-.19.07s-.1.06-.15.1-.08.09-.11.14-.05.1-.07.16h-.09a3 3 0 0 1 .11-.32c.04-.1.1-.19.17-.27s.14-.15.21-.2.16-.09.25-.11c.03-.01.06-.01.08-.01h.07zm-3.05 2.09c-.15.02-.27.02-.37 0s-.17-.07-.22-.13-.07-.13-.07-.22.03-.19.08-.29l.03-.06c.06-.12.13-.24.22-.34s.19-.2.3-.29a1.7 1.7 0 0 1 .36-.21 1.4 1.4 0 0 1 .4-.11.7.7 0 0 1 .33.01c.08.03.15.06.19.12s.05.14.04.23-.04.2-.1.31l-.08.18-1.51.21.13-.29 1.02-.14.02-.03c.03-.06.04-.11.04-.15s-.02-.08-.06-.1-.1-.03-.17-.01c-.07.01-.13.03-.19.06s-.12.07-.17.12-.1.1-.14.17-.08.13-.11.2l-.03.06c-.03.06-.05.12-.05.17s.01.09.03.13.06.06.1.07a.5.5 0 0 0 .18.01c.09-.01.18-.04.28-.08s.18-.1.27-.17l.14.19c-.06.05-.14.11-.23.16s-.19.1-.3.14a2 2 0 0 1-.35.09z"/><path d="M51.41 62.89l-.15.3-1.11.13.15-.3 1.11-.13zm-.64-.29l.51-.06-.74 1.48c-.02.05-.03.08-.03.1s.02.04.04.04.06.01.1 0l.09-.01.07-.02-.15.31c-.05.02-.1.03-.16.04l-.17.03a.7.7 0 0 1-.27-.01c-.07-.02-.11-.06-.12-.13s.01-.15.07-.26l.76-1.52zm-1.01.17l-.72 1.52-.51.07.72-1.52.51-.07zm-.35-.32c.03-.06.08-.11.15-.16s.15-.07.24-.09.15 0 .18.03.04.08.01.14-.08.11-.15.16-.15.07-.23.09-.15 0-.18-.03-.04-.08-.01-.14z"/><path d="M47.64 63.74l.77-1.24.51-.01-1.01 1.63-.48.01.21-.39zm.27-.34h.15c-.07.11-.15.21-.23.3a1.7 1.7 0 0 1-.28.24 1.4 1.4 0 0 1-.32.16c-.11.04-.23.06-.35.06-.09 0-.17-.01-.24-.03s-.11-.06-.14-.1-.03-.11-.01-.19.06-.17.13-.28l.66-1.06.51-.01-.66 1.06c-.03.05-.05.09-.06.12s0 .06.01.08.03.04.06.04.06.01.11.01c.11 0 .2-.02.28-.06s.16-.09.22-.15a1.2 1.2 0 0 0 .17-.21zm-1.64-1l-.92 1.19-.51-.04 1.18-1.52.48.04-.23.33zm.84-.29l-.3.37-.08-.01-.09-.01c-.07-.01-.14 0-.21.01s-.12.03-.18.05-.11.06-.16.1-.09.08-.14.14l-.08-.03a2.1 2.1 0 0 1 .25-.27c.09-.08.18-.15.28-.21s.19-.1.29-.13.19-.04.28-.03c.03 0 .06.01.08.01s.05.01.06.02zm-3.14.54a.6.6 0 0 0 .19 0c.06-.01.13-.03.18-.06s.11-.07.15-.11l.48.08c-.09.1-.21.18-.35.25s-.29.11-.45.14-.31.03-.46 0a.8.8 0 0 1-.34-.12c-.08-.05-.12-.12-.13-.2s0-.16.04-.26.11-.19.2-.29l.03-.04c.09-.1.19-.19.31-.27a1.9 1.9 0 0 1 .78-.31c.14-.02.29-.02.43.01.16.02.27.07.35.13s.11.14.1.24-.06.2-.16.31l-.48-.08c.04-.05.07-.09.08-.14s0-.08-.03-.11-.07-.05-.14-.06-.14-.01-.21.01-.13.04-.19.08l-.18.13c-.06.05-.11.1-.16.16l-.03.04-.13.16c-.04.05-.06.1-.07.14s0 .08.03.11.08.05.15.06z"/><path d="M41.9 62.02c-.14-.05-.25-.11-.32-.18s-.11-.15-.12-.23.01-.16.06-.24.13-.16.23-.24l.06-.04a1.8 1.8 0 0 1 .38-.22c.14-.06.28-.1.42-.12s.29-.03.43-.02.28.04.41.09.22.1.29.17.09.13.09.21-.03.15-.09.23-.14.16-.26.25l-.17.13-1.43-.54.27-.2.96.36.03-.02c.06-.04.1-.08.12-.13s.02-.08 0-.12-.07-.07-.14-.1c-.06-.02-.13-.04-.2-.03s-.14.01-.21.03-.14.05-.21.09l-.21.13-.06.04c-.06.05-.11.09-.14.14s-.05.09-.05.13.02.08.05.12.09.07.16.09c.09.03.18.05.28.06s.21 0 .33-.03l.02.25c-.08.02-.18.03-.29.04s-.22 0-.34-.01-.23-.04-.35-.09zm-.93-3l.89.53c.18.11.31.22.38.32s.09.21.05.31-.14.19-.3.27a1.4 1.4 0 0 1-.41.13 1.6 1.6 0 0 1-.42.01c-.14-.02-.28-.04-.42-.09l-.24-.05-.77-.46.4-.2.57.34a.7.7 0 0 0 .26.1c.09.01.18.02.26.01s.17-.03.24-.07.13-.08.16-.13.03-.09 0-.14-.08-.1-.17-.15l-.4-.24-2.08 1.03-.49-.29 2.49-1.23zm-1.15 2.02l.56-.87.52.31-.54.86-.02.01-.53-.31z"/></g><defs><clipPath id="A"><path fill="#fff" transform="matrix(-1 0 0 1 35.332 18)" d="M0 0h23.33v15H0z"/></clipPath><clipPath id="B"><path fill="#fff" transform="matrix(-1 0 0 1 24.5 50.168)" d="M0 0h23.33v15H0z"/></clipPath><clipPath id="C"><path fill="#fff" transform="matrix(-1 0 0 1 55 68.168)" d="M0 0h23.33v15H0z"/></clipPath><clipPath id="D"><path fill="#fff" transform="matrix(-1 0 0 1 98.332 57.832)" d="M0 0h23.33v15H0z"/></clipPath><clipPath id="E"><path fill="#fff" transform="matrix(-1 0 0 1 95.5 25)" d="M0 0h23.33v15H0z"/></clipPath><path id="F" d="M48.03 17.78c0 .11-.07.2-.15.2s-.15-.09-.15-.2.06-.2.15-.2.15.09.15.2z"/><path id="G" d="M46.41 14.22c.05.1.03.21-.04.24s-.17-.01-.22-.11-.03-.21.04-.24.17.01.22.11z"/><path id="H" d="M51.64 68.19l-17.38 1.64c-1.48.14-2.59 1.04-2.59 2.11v6.35c0 1.17 1.33 2.12 2.97 2.12h9.02v2.76l4.99-2.76h3.38c1.64 0 2.97-.95 2.97-2.12v-7.99c0-1.28-1.58-2.27-3.36-2.11z"/></defs></svg>