<svg xmlns="http://www.w3.org/2000/svg" width="100" height="100" fill="none" xmlns:v="https://vecta.io/nano"><path d="M67.24 95.1H31.99c-3.09 0-5.59-2.26-5.59-5.05V17.06c0-2.79 2.5-5.05 5.59-5.05h35.25c3.09 0 5.59 2.26 5.59 5.05v72.99c0 2.79-2.5 5.05-5.59 5.05z" fill="#455a64"/><path d="M27.13 90.01V17.1c0-2.45 2.19-4.43 4.9-4.43H67.2c2.71 0 4.9 1.98 4.9 4.43v72.91c0 2.45-2.19 4.43-4.9 4.43H32.03c-2.71 0-4.9-1.98-4.9-4.43z" fill="#263238"/><g fill="#455a64"><path d="M46.28 15.3c-.28 0-.52-.21-.52-.47s.23-.47.52-.47h6.64c.28 0 .52.21.52.47s-.23.47-.52.47h-6.64z"/><use href="#B"/><use href="#B" x="1.9"/><use href="#B" x="13.79"/><use href="#B" x="11.89"/></g><path d="M67.11 13.78l-7.33-.15c-.6 0-1.13.36-1.3.89l-.51 1.59a1.5 1.5 0 0 1-1.45.99H42.82c-.67 0-1.26-.4-1.45-.99l-.51-1.59c-.17-.53-.7-.89-1.3-.89h-6.19c-2.72 0-4.93 2.01-4.93 4.49v72.48c0 1.68 2.15 3.04 3.89 3.04h34.39c2.23 0 4.08-1.47 4.08-3.69l.07-72.9c0-1.59-2.04-3.27-3.78-3.27z" fill="#fff"/><path d="M69.9 16.16a5 5 0 0 0-3.54-1.48h-7.27l-.92 3.42H41.8l-2.17-4.21h-6.44c-2.23 0-4.73 2.25-4.73 4.04V76.1l.13.01c4.18.45 8.24-2.17 10.54-5.7s3.1-7.8 3.51-11.99.45-8.43 1.44-12.52c1.65-6.87 6-13.04 11.91-16.91 2.92-1.91 6.18-3.27 8.96-5.37 2.45-1.85 4.55-4.49 4.96-7.47zm.78 76.24l-.06-24.77a21.4 21.4 0 0 0-16.09 10.42c-2.99 5.19-3.58 11.68-1.67 17.34l14.93-.03c1.97 0 2.89-1.77 2.89-2.96z" fill="#fafafa"/><path d="M72.82 30.07h.07c.13 0 .23.09.23.21v9.12c0 .12-.11.21-.23.21h-.07v-9.55zM26.4 35.96h-.08c-.13 0-.24.1-.24.21v5.62c0 .12.11.21.24.21h.08v-6.05zm0-7.9h-.08c-.13 0-.24.09-.24.21v5.62c0 .12.11.21.24.21h.08v-6.05zm0-5.93h-.06c-.12 0-.21.08-.21.19v2.43c0 .1.09.19.21.19h.06v-2.81z" fill="#455a64"/><g fill="#263238"><path d="M60.96 15.94h-.32v.4h.32v-.4zm.52-.18h-.32v.58h.32v-.58zm.52-.13h-.32v.72H62v-.72zm.52-.27h-.32v.98h.32v-.98zm4.71 1h-1.6c-.06 0-.11-.05-.11-.1v-.72c0-.06.05-.1.11-.1h1.6c.01 0 .02 0 .02.01s.01.01.01.02v.24h.17c.02 0 .03.01.03.03v.35c0 .01-.01.03-.03.03h-.17v.24c0 .01-.01.03-.03.03zm-.03-.87h-1.57c-.03 0-.05.02-.05.05v.72c0 .03.03.05.06.05h1.57v-.24c0-.01.01-.03.03-.03h.17v-.29h-.17c-.02 0-.03-.01-.03-.03v-.24h0zm-1.5.7v-.58h1.37v.26.06.26H65.7zm-1.66.12c0-.06-.05-.11-.12-.11s-.12.05-.12.11.05.11.12.11.12-.05.12-.11z"/><path d="M63.53 16.06l.15.13c.06-.06.15-.09.25-.09a.4.4 0 0 1 .25.09l.15-.13c-.1-.09-.24-.15-.4-.15s-.3.06-.4.15zm.4-.45c-.25 0-.47.09-.63.24l.15.13c.12-.11.3-.18.48-.18s.36.07.48.18l.15-.13c-.16-.15-.39-.24-.63-.24zm-.88.01l.15.14c.19-.17.44-.27.73-.27s.54.1.73.27l.15-.14c-.22-.2-.53-.33-.88-.33s-.65.13-.88.33z"/></g><path d="M59.7 46.44c1.18-2.62-.21-5.6-3.11-6.67s-6.2.19-7.38 2.81.21 5.6 3.11 6.67 6.2-.19 7.38-2.81z" fill="#f5f5f5"/><path d="M41.71 13.48a2.8 2.8 0 0 1-2.91-1.75c-.13-.35-.18-.73-.06-1.08s.43-.65.8-.66c-.49-.34-.86-.87-.96-1.46s.12-1.23.58-1.61 1.18-.44 1.67-.1c-.01-.64.38-1.28.97-1.55l2.63.61-2.72 7.61h0z" fill="#263238"/><path d="M45.19 37.46l.47-4.24s-5.5-.9-5.52-6.4c-.01-2.66.41-8.13.85-13.08.47-5.32 4.95-9.38 10.29-9.34h.53c5.72.38 8.6 5.45 8.06 11.16l-2.38 20.95s-.79 1.35-1.48 2.05c-1.67 1.69-5.58 2.43-5.58 2.43s-4.78-1.92-5.23-3.53 0 0 0 0z" fill="#ffbf9d"/><path d="M45.66 33.22s3.46.32 7.19-1.47c0 0-1.85 3.4-7.34 2.85l.15-1.39z" fill="#ffb18e"/><g fill="#263238"><path d="M47.34 22.91a5.6 5.6 0 0 0-1.37-.26c-.22-.02-.42-.07-.45-.22-.05-.16.04-.39.15-.64l.65-1.64 1.47-4.29c-.1-.03-.91 1.83-1.81 4.16l-.62 1.65c-.08.24-.23.52-.12.85.06.16.21.28.35.32.14.04.26.05.37.05l1.39.01h0z"/><use href="#C"/><path d="M50.46 16.66c.1.1.7-.33 1.54-.32.84 0 1.46.44 1.55.33.05-.05-.05-.23-.32-.43-.26-.2-.72-.39-1.24-.39s-.97.19-1.23.39-.35.38-.3.43h0z"/><use href="#C" x="-7.4" y="0.25"/><path d="M42.16 16.44c.1.1.7-.33 1.54-.32.84 0 1.46.44 1.55.33.05-.05-.05-.23-.32-.43-.26-.2-.72-.39-1.24-.39s-.97.19-1.23.39c-.26.2-.35.38-.3.43h0z"/></g><path d="M58.95 20.91c.04-.85.78-1.51 1.62-1.43 1.02.11 2.16.7 2.08 2.82-.15 3.76-3.89 2.83-3.9 2.72a834.9 834.9 0 0 1 .19-4.12z" fill="#ffbf9d"/><path d="M59.63 23.64c.02-.01.06.05.17.11s.29.1.49.03c.4-.13.76-.75.81-1.42.02-.34-.03-.67-.15-.95-.11-.28-.28-.48-.47-.52-.2-.05-.34.06-.39.16-.06.1-.03.18-.05.19-.01.01-.08-.07-.04-.22.02-.07.06-.16.16-.23s.23-.1.37-.08c.29.03.54.31.66.61.14.3.21.67.19 1.06-.06.76-.47 1.45-1.02 1.59a.7.7 0 0 1-.59-.12c-.11-.1-.13-.18-.11-.19v-.01z" fill="#ffb18e"/><path d="M46.69 10.57s-.02 0-.03 0h-.07l.1-.01z" fill="#0668e1"/><path d="M63.22 14.24c-.07-.34-.28-.62-.57-.81.18-.19.32-.42.4-.68.22-.71-.08-1.55-.69-1.97.66-.62.95-1.61.71-2.49s-.98-1.59-1.86-1.8a3.3 3.3 0 0 0-1.46-2.89 3.3 3.3 0 0 0-3.24-.18c-.75-1.8-3.2-2.64-4.9-1.68C50.51.93 49.32.1 47.95.01s-2.9.89-2.85 2.26c-.97-.27-2.01-.41-2.99-.17s-1.9.91-2.24 1.86.02 2.16.92 2.62c-.86.88-.9 2.42-.09 3.34a2.3 2.3 0 0 0 .86.6c-.02.23-.03.47-.02.71l.29-.62c.74.21 1.58.09 2.19-.38.68.75 1.81 1.06 2.78.76s1.73-1.2 1.86-2.21a2.3 2.3 0 0 0 2.06.59 2.3 2.3 0 0 0 1.64-1.39c.8.92 2.18 1.3 3.34.89.01.73.38 1.41.92 1.9-.05.63-.16 1.34-.12 2.22.46 9.9 2.24 12.71 2.79 8.06.06-.49 1.4-.89 1.68-2.89.21-.03.42-.09.61-.19.41-.2.75-.55.89-.98s.03-.95-.3-1.26c.67-.11 1.17-.84 1.05-1.51v.01zm-13.3 9.81c-.13-.01-.15.87-.9 1.48s-1.69.5-1.7.62c-.01.06.2.17.6.19a2.2 2.2 0 0 0 1.42-.47 1.9 1.9 0 0 0 .7-1.24c.04-.36-.06-.58-.12-.58z" fill="#263238"/><path d="M65.5 38.19c.28.19 1.77-.04 3.98 1.52s11.01 15.1 11.01 15.1l-.04-4.91s4.08-1.85 5.22-1.19 4.78 12.85 2.74 16.39c-1.78 3.09-11.66 3.26-18.77-4.3-.79-.84-2.13-2.31-2.71-3.29-4.67-7.86-1.44-19.3-1.44-19.3h0z" fill="#0668e1"/><path d="M82.17 64.65s-.04-.01-.1-.05-.15-.09-.25-.18a4 4 0 0 1-.78-.83c-.57-.78-1.07-2.07-1.18-3.54a15 15 0 0 1 .27-3.74l.22-1.11.11-.4c.01 0-.01.15-.05.41l-.17 1.12c-.14.94-.32 2.26-.22 3.7s.58 2.71 1.11 3.49c.53.79 1.06 1.1 1.04 1.13h0z" fill="#263238"/><g fill="#0668e1"><path d="M9.31 50.19c-.16.18-1.4 2.27-1.14 3.61s1.14 12.1 2.88 13.44 3.48 2.61 7.36 1.4 13.6-9.43 13.6-9.43l-1.17-20.8s-1.39 1.88-2.8 3.14S17.27 55.7 17.27 55.7l-.54.3s.13-1.13-.47-2.3-6.35-4.18-6.95-3.52h0z"/><path d="M30.79 38.49c.09-.62 2.18-.92 4.3-1.61s10.58-1.77 10.4-1.42.92 5.58 5.98 4.89 5.93-3.9 5.93-3.9 4.09.57 8.04 1.72 2.41 4.33 2.41 4.33l-2 41.56c-16.7 3.97-21.35 2.17-32.59 0l-2.6-44.42.14-1.14z"/></g><path d="M32.69 68.19s-.02-.07-.03-.2l-.05-.58-.14-2.14-.39-7.07-.18-7.08.01-2.15.01-.58.02-.2c.01 0 .01.07.02.2l.02.58.04 2.15.23 7.07.35 7.07.09 2.14.02.58-.01.2.01-.01zm33.93-19.5c.04 0 .08 3.14.08 7l-.08 7.01a154.6 154.6 0 0 1-.08-7.01l.08-7zM19.03 63.23c-.03-.01.15-.43.2-1.15.06-.71-.07-1.72-.49-2.73s-.99-1.85-1.4-2.45l-.65-.98c.01-.01.08.08.21.23l.53.68c.43.58 1.02 1.41 1.45 2.45a5.8 5.8 0 0 1 .45 2.8c-.04.36-.11.66-.18.85s-.12.29-.13.29z" fill="#263238"/><g filter="url(#A)"><path d="M55.24 56.31v7.02l-.01.2c-.02.56-.05 1.33-.73 2.29-.89 1.25-2.59 2.45-5.07 3.56-2.48-1.12-4.19-2.31-5.07-3.56-.68-.96-.71-1.73-.73-2.29v-.2-7.02h5.81 5.81zm1.12-1.14h-6.93-6.93v8.19c.07 1.16-.23 4.18 6.93 7.26 7.16-3.08 6.86-6.1 6.93-7.26v-8.19z" fill="#fff"/><path d="M49.48 63.01h-.98v2.67h-1.8v-7.56h2.95c.89 0 1.58.2 2.08.6s.75.96.75 1.69c0 .53-.11.96-.32 1.31s-.54.63-.99.84l1.56 3.05v.08h-1.93l-1.32-2.67zm-.98-1.4h1.14c.34 0 .6-.09.77-.27s.26-.44.26-.76-.09-.58-.26-.77-.43-.28-.77-.28h-1.14v2.08z" fill="#fff"/><path d="M51.41 52.79l-1.97-1.68-1.97 1.68-1.99-.61v2.19h3.95 3.97v-2.19l-1.99.61z" fill="#fff"/></g><path d="M10.05 51.4c-.08-.19-.12-1.83.43-3.72.61-2.1 2.59-6.47 3.03-7.44s-.65-3.8.2-4.04 1.78.17 2.18 2.08-.45 4.14.32 4.83 5.22.45 8.82 1.13 4.57 2.1 4.01 2.79-5.18-.93-7.49-.73c0 0-.53.28-.08.28s1.78.36 2.35 1.09-.49 1.46-.49 1.46.85 1.78-.77 2.26c0 0 .28 1.5-.93 1.74l-3.89.55s-1.21 1.1-2.26.78-4.76-1.38-5.45-3.08h0z" fill="#ffbf9d"/><path d="M23.39 49.28c-.02.05-.66-.19-1.49-.32l-1.52-.16c-.01-.04.69-.14 1.54 0 .85.13 1.48.44 1.46.48h0zm-.81 2.12c-.02.04-.49-.1-1.09-.18l-1.1-.1c-.01-.04.49-.14 1.12-.06s1.09.3 1.07.33h0z" fill="#ffb18e"/><path d="M67.51 45.9c0-.18.18-1.09 3.14-1.82s4.12-1.09 6.82-1.31 1.68-2.26 1.79-3.57.84-3.97 2.12-3.54-.77 2.22.62 4.56 3.79 8.13 3.68 9.99c0 0-1.75 2.19-4.23 2 0 0-6.05.26-7.07-.26s-1.06-1.39-.51-1.9c0 0-1.2-.62-1.2-1.35s.66-.98.66-.98-.06-.02-.15-.07a1.5 1.5 0 0 1-.67-1.86l.04-.11s-3.56 1.06-4.09 1.06c-.95 0-.95-.64-.95-.84h0z" fill="#ffbf9d"/><path d="M75.85 45.23c0 .04-.77.14-1.72.26l-1.73.2c-.01-.04.75-.24 1.71-.36s1.74-.15 1.74-.1h0zm0 2.34a5.9 5.9 0 0 1-1.32.19 6 6 0 0 1-1.34.03c-.01-.04.59-.13 1.32-.19a6 6 0 0 1 1.34-.03zm.35 2.09a5.6 5.6 0 0 1-1.31.2l-1.33.04a5.6 5.6 0 0 1 1.31-.2 5.6 5.6 0 0 1 1.33-.04z" fill="#ffb18e"/><path d="M48.64 73.63l.45.17-.39.11c-.13.04-.23.14-.27.26l-.14.43-.17-.43c-.04-.11-.13-.19-.24-.23l-.39-.14.43-.17c.1-.04.18-.13.22-.23l.15-.4.11.37c.04.12.13.22.25.26h0zM36.97 54.9l.72.27-.62.18c-.21.06-.37.22-.44.42l-.23.69-.28-.69c-.07-.17-.21-.3-.38-.37l-.63-.23.68-.28c.16-.07.29-.2.36-.37l.25-.64.18.59c.06.19.2.35.39.42h0zm24.69-3.34l1.07.4-.93.26c-.31.09-.56.33-.66.63l-.34 1.03-.41-1.03c-.1-.26-.31-.46-.57-.55l-.94-.34 1.02-.42c.25-.1.44-.3.54-.55l.37-.96.26.89c.09.29.3.53.59.63h0z" fill="#fff"/><path d="M58.9 67.3l.63.24-.54.15c-.18.05-.32.19-.38.37l-.2.6-.24-.6c-.06-.15-.18-.27-.33-.32l-.55-.2.6-.24c.14-.06.26-.18.31-.32l.21-.56.15.52c.05.17.18.31.34.37h0zm-17-18.72l.45.17-.39.11c-.13.04-.23.14-.27.26l-.14.43-.17-.43c-.04-.11-.13-.19-.24-.23l-.39-.14.42-.17c.1-.04.18-.13.22-.23l.15-.4.11.37c.04.12.13.22.25.26h0zm-3.34 17.01l.89.34-.78.22c-.26.07-.46.27-.55.53l-.28.86-.35-.86c-.09-.21-.26-.38-.48-.46l-.79-.28.85-.35c.21-.08.37-.25.45-.46l.31-.8.22.74c.07.24.25.44.49.53h0z" fill="#e0e0e0"/><path d="M12.78 69.77c12.4 10.54 24.75 15.82 37.12 15.82 12.35 0 24.69-5.27 37.07-15.78-1.34 4.63-2.19 7.08-4.07 11.72l-.08.18.2.02c3.64.34 5.61.33 9.32-.12-13.96 12.16-28.2 18.24-42.43 18.24-14.26 0-28.54-6.1-42.52-18.31a36.8 36.8 0 0 0 7.77-1.12l.15-.04-.04-.15a109.6 109.6 0 0 1-2.48-10.46z" fill="#3886e7" stroke="#0668e1" stroke-width=".3"/><path d="M20.41 80.58l1.33.99c.26.19.46.4.59.62s.2.45.19.67a1.2 1.2 0 0 1-.26.68c-.14.19-.3.33-.45.42s-.32.13-.49.13-.35-.02-.53-.07l-.38-.05-1.12-.83.46-.63.83.62c.1.08.2.12.3.14s.19 0 .27-.04.17-.11.24-.21.12-.19.13-.29 0-.19-.04-.28-.11-.17-.21-.24l-.52-.38-2.05 2.75-.82-.61 2.52-3.38zm-.67 4.76l.37-2.05.87.64-.34 2.03-.03.03-.87-.65zm3.55.26l.03-.05a2 2 0 0 1 .43-.48c.16-.13.33-.22.52-.27a1.3 1.3 0 0 1 .58-.03c.2.03.41.12.61.25a1.6 1.6 0 0 1 .48.45 1.3 1.3 0 0 1 .22.54c.03.19.02.38-.03.58s-.14.39-.26.59l-.03.05a1.8 1.8 0 0 1-.43.48c-.17.13-.33.22-.52.27a1.3 1.3 0 0 1-.58.03c-.2-.03-.4-.12-.61-.25s-.37-.28-.48-.45a1.3 1.3 0 0 1-.22-.54c-.03-.19-.02-.39.03-.58s.14-.4.26-.59zm.86.48l-.03.05-.16.29a.9.9 0 0 0-.07.27c-.01.09.01.16.04.24s.1.14.19.19.17.08.25.08.16-.02.23-.06a.9.9 0 0 0 .22-.18c.07-.08.14-.16.2-.26l.03-.05a2.6 2.6 0 0 0 .15-.28.9.9 0 0 0 .07-.27c.01-.09 0-.17-.04-.25s-.1-.14-.18-.2-.17-.08-.25-.08-.16.02-.24.07a.9.9 0 0 0-.22.18c-.07.08-.13.16-.2.26zm3.68 2.96a.5.5 0 0 0 .23.06c.07 0 .14-.02.2-.06s.11-.1.15-.18l.81.43c-.11.21-.26.37-.44.47s-.39.15-.61.14a1.5 1.5 0 0 1-.66-.19c-.22-.11-.39-.25-.51-.41s-.21-.33-.25-.51-.04-.38-.01-.58.11-.4.21-.6l.03-.06c.11-.2.23-.37.37-.51a1.5 1.5 0 0 1 .48-.32c.17-.07.36-.1.56-.08a1.7 1.7 0 0 1 .62.19c.23.12.41.27.54.45s.2.38.22.6-.04.45-.17.68l-.81-.43c.05-.08.07-.16.08-.25s-.01-.16-.04-.23-.1-.13-.19-.18-.17-.07-.25-.05-.15.04-.21.1a1.3 1.3 0 0 0-.18.21l-.16.28-.03.06-.14.3c-.04.1-.06.18-.07.27s.01.16.04.23.1.12.19.17zm5.15-1.73l-1.77 4.09-.9-.39 1.77-4.09.9.39zm1.32 2.01l-1.88.93-.94.37-.15-.74.85-.47 1.04-.55 1.07.46zm-2.2 2.46l-.2-1.64.87-.18.36 2.27-1.03-.44zm4.07.52c.02-.05.02-.1-.01-.15s-.07-.1-.14-.16-.18-.13-.32-.22c-.13-.08-.26-.17-.37-.26s-.2-.19-.27-.3-.12-.22-.14-.34-.01-.24.04-.37.11-.24.2-.33a1 1 0 0 1 .34-.22c.13-.05.29-.08.46-.07s.35.03.54.1c.27.09.48.21.65.36s.28.31.33.49.05.37-.01.56l-.92-.31c.03-.08.03-.14.03-.21s-.03-.11-.08-.16-.11-.09-.2-.12c-.06-.02-.13-.03-.19-.02s-.11.03-.16.06-.08.08-.1.13c-.01.04-.02.08-.01.12s.03.08.06.12a.8.8 0 0 0 .13.12c.06.04.12.09.21.13a2.7 2.7 0 0 1 .51.35c.15.13.26.27.32.43s.07.35-.01.56a.8.8 0 0 1-.21.33c-.1.09-.22.16-.36.2s-.3.06-.47.05a2.5 2.5 0 0 1-.56-.11c-.28-.1-.51-.23-.67-.4s-.27-.35-.31-.54-.04-.36.01-.52l.86.29c-.03.09-.03.18-.01.25s.06.13.12.19.14.09.23.12c.08.03.16.04.22.04s.12-.02.16-.05.07-.08.09-.13zm4.78-1.01l-.2.65-1.8-.57.2-.65 1.8.57zm-1.19-1.19l.93.29-.87 2.76c-.03.08-.04.14-.03.19s.03.09.07.12.1.06.17.08l.13.04.1.02-.21.67a1.6 1.6 0 0 1-.27-.02c-.09-.01-.19-.03-.28-.07-.2-.06-.36-.15-.48-.26a.7.7 0 0 1-.23-.4c-.03-.16-.01-.34.06-.56l.91-2.87zm4.25 3.73l.18-1.28c.01-.09.01-.17-.01-.23s-.05-.12-.1-.16-.12-.07-.21-.08c-.07-.01-.14-.01-.19.01s-.1.05-.13.1a.4.4 0 0 0-.07.18l-.97-.13c.02-.14.07-.27.15-.39a1 1 0 0 1 .32-.29c.13-.08.29-.13.46-.15s.37-.03.57 0c.25.03.46.11.64.22s.32.25.41.43.12.39.08.64l-.18 1.27c-.03.2-.04.36-.03.47s.03.2.06.29l-.01.05-.97-.13c-.03-.1-.05-.22-.05-.36a3.1 3.1 0 0 1 .03-.43zm.27-1.1l-.07.52-.43-.06c-.09-.01-.17-.01-.23.01s-.12.04-.16.08-.08.08-.1.13-.04.11-.05.17 0 .11.02.16.06.09.1.12.1.05.16.06c.11.01.2.01.28-.02a.5.5 0 0 0 .2-.13c.05-.05.08-.11.08-.16l.16.43-.16.21c-.06.07-.13.14-.21.19s-.17.1-.28.12-.24.03-.38.01a1.2 1.2 0 0 1-.51-.19c-.15-.1-.26-.23-.34-.38s-.1-.32-.08-.51c.02-.16.07-.3.15-.42s.18-.21.31-.28.29-.12.48-.14a3 3 0 0 1 .66.02l.42.06zm2.25-1.89l1.66.02c.32 0 .61.06.84.16s.42.25.55.44a1.2 1.2 0 0 1 .19.7c0 .24-.04.44-.12.6s-.18.29-.32.4-.29.19-.47.25l-.34.18-1.39-.02.01-.79 1.03.02c.13 0 .24-.02.32-.06s.15-.11.19-.19.07-.19.07-.31-.02-.23-.06-.31-.11-.16-.19-.2-.19-.07-.31-.07l-.64-.01-.05 3.43-1.02-.01.06-4.22zm2.25 4.25l-.91-1.88 1.08.01.92 1.84v.04l-1.09-.02zm4.21-.1c-.25.01-.48-.03-.69-.1s-.38-.18-.52-.32-.25-.3-.33-.48a1.4 1.4 0 0 1-.12-.58v-.11a1.9 1.9 0 0 1 .08-.64c.06-.2.15-.37.27-.52s.28-.27.46-.35.41-.14.66-.14c.22-.01.42.02.6.09s.33.17.45.3.22.29.29.48.11.4.12.63l.01.4-2.56.07-.02-.61 1.61-.04v-.08c0-.1-.02-.19-.06-.27s-.09-.13-.17-.16-.16-.05-.26-.05-.19.03-.26.08-.12.11-.15.2-.06.17-.07.28-.02.21-.01.33v.11c0 .12.02.22.05.31s.08.17.15.24.14.11.22.15a.7.7 0 0 0 .3.05c.13 0 .26-.03.39-.09s.24-.14.33-.26l.46.52c-.06.09-.15.18-.27.27a1.5 1.5 0 0 1-.41.22c-.16.06-.34.09-.54.09zm4.47-.96c.09-.01.16-.04.22-.09s.1-.1.12-.17.03-.15.01-.23l.91-.14c.04.23.01.45-.07.64s-.22.35-.4.48-.4.21-.64.25-.46.03-.65-.02-.36-.14-.51-.26-.26-.28-.35-.46-.15-.38-.19-.61l-.01-.07c-.04-.22-.04-.43-.01-.64s.09-.38.19-.54.23-.3.4-.4.37-.18.61-.22c.26-.04.49-.03.7.04s.39.18.53.35.23.38.27.65l-.91.14c-.01-.09-.04-.18-.08-.25s-.1-.12-.17-.15-.15-.05-.25-.03-.18.05-.23.1-.09.12-.11.21-.03.17-.02.27a3.4 3.4 0 0 0 .04.32l.01.07.07.32c.03.1.06.18.11.25s.1.12.17.16.15.04.25.02zm7.48-1.5l-.62-2.29.95-.25.81 3.03-.88.24-.26-.72zm-.08-.64l.24-.07c.05.2.08.4.08.58a1.4 1.4 0 0 1-.1.51c-.06.15-.15.28-.27.39s-.27.18-.45.23a1.3 1.3 0 0 1-.43.05c-.14-.01-.26-.05-.37-.11s-.22-.17-.3-.29-.16-.3-.21-.5l-.53-1.96.94-.25.53 1.96c.02.07.04.12.07.17s.07.08.11.1.09.04.14.04.11-.01.17-.02c.14-.04.24-.1.31-.18s.1-.18.1-.29-.01-.23-.04-.36zm2.65-2.83l1.26 2.87-.9.39-1.26-2.87.9-.39zm-1.27-.32c-.06-.13-.06-.25 0-.37s.16-.21.31-.28.28-.08.41-.03.22.13.28.25.06.25 0 .37-.16.21-.3.28-.28.08-.41.03-.22-.13-.28-.25zm4.58-1.17l.32.6-1.66.9-.32-.6 1.66-.9zm-1.68.03l.86-.47 1.38 2.54c.04.07.08.13.12.16s.08.04.13.04.11-.03.18-.07l.12-.07.08-.06.33.61a1.6 1.6 0 0 1-.2.18c-.07.06-.15.11-.24.16-.18.1-.36.16-.52.17a.7.7 0 0 1-.44-.11c-.14-.09-.26-.23-.36-.43l-1.44-2.65zm6.05 1.07c-.22.13-.43.22-.65.25s-.42.03-.61-.02-.36-.13-.52-.25-.29-.27-.39-.44l-.06-.09c-.12-.2-.2-.4-.25-.59s-.06-.4-.02-.59.11-.37.23-.54.29-.32.5-.45c.19-.11.38-.19.57-.22s.37-.02.54.03.34.14.49.27.29.29.41.49l.21.34-2.19 1.33-.32-.52 1.38-.83-.04-.06c-.05-.09-.11-.16-.19-.2s-.14-.06-.23-.06-.17.03-.25.09a.6.6 0 0 0-.19.2c-.04.08-.05.16-.04.25a1 1 0 0 0 .08.28 1.6 1.6 0 0 0 .15.29l.06.09c.06.1.13.18.2.25s.16.11.25.14.18.03.27.02.19-.05.28-.11c.11-.07.21-.16.3-.27s.14-.24.16-.39l.65.22c-.01.11-.04.23-.1.37a1.5 1.5 0 0 1-.25.39c-.11.13-.25.24-.43.35zm1.66-4.01l1.24 2.01-.83.51-1.65-2.67.78-.48.46.63zm.37-1.17l.46.78-.14.07-.15.08a.9.9 0 0 0-.23.19.5.5 0 0 0-.11.21c-.02.07-.02.14 0 .22s.06.16.11.25l-.21-.01a2.5 2.5 0 0 1-.25-.52c-.06-.17-.08-.33-.08-.48s.03-.28.08-.4.14-.21.26-.28c.04-.03.08-.05.13-.07a.7.7 0 0 1 .12-.04zm-16.74 8.39l.55 2.29-.95.23-.73-3.05.89-.21.24.74zm.72-.99l.19.89-.16.02-.16.03c-.11.03-.2.06-.28.11a.5.5 0 0 0-.17.16c-.04.06-.06.13-.07.21s.01.17.03.27l-.2-.07a2.5 2.5 0 0 1-.07-.57c0-.18.02-.34.07-.48s.11-.26.21-.35.2-.16.34-.19c.05-.01.09-.02.14-.02a.7.7 0 0 1 .13 0zm19.09-11.95c.51.77.32 1.8-.42 2.3s-1.77.29-2.29-.48a1.63 1.63 0 1 1 2.71-1.82zm-2.38 1.6c.42.62 1.16.82 1.77.41.56-.38.71-1.17.32-1.74-.42-.62-1.16-.82-1.77-.41-.64.36-.71 1.17-.32 1.74zm1.32.16l-.33.22-.9-1.34c.11-.14.25-.24.48-.39s.41-.2.53-.22.24.05.33.19.1.35-.06.52c.17-.05.28.02.46.18s.24.26.32.27l-.33.22c-.08-.02-.18-.16-.32-.27s-.22-.13-.41 0l-.14.09.35.53zm-.51-.77l.14-.09c.19-.13.3-.27.2-.41s-.22-.13-.41 0l-.19.13.26.38z" fill="#fff"/><defs><filter id="A" x="42.5" y="51.11" width="13.86" height="20.11" filterUnits="userSpaceOnUse" color-interpolation-filters="sRGB"><feFlood flood-opacity="0" result="A"/><feColorMatrix in="SourceAlpha" values="0 0 0 0 0 0 0 0 0 0 0 0 0 0 0 0 0 0 127 0" result="B"/><feOffset dy="0.593472"/><feComposite in2="B" operator="out"/><feColorMatrix values="0 0 0 0 0 0 0 0 0 0 0 0 0 0 0 0 0 0 0.15 0"/><feBlend in2="A"/><feBlend in="SourceGraphic"/></filter><path id="B" d="M42.72 15.3c-.28 0-.52-.21-.52-.47s.23-.47.52-.47.52.21.52.47-.23.47-.52.47z"/><path id="C" d="M50.7 19.43c-.02.41.32.77.75.8s.8-.29.82-.7-.32-.77-.75-.8-.8.29-.82.7z"/></defs></svg>