<svg xmlns="http://www.w3.org/2000/svg" width="120" height="146" fill="none" xmlns:v="https://vecta.io/nano"><g clip-path="url(#A)"><path d="M72.73 30.64s2.72 5.69.24 11.84l-3.74-.62.39-8.95 3.11-2.27z" fill="#071a22"/><path d="M90.35 241.83c0-6.14-7.83-59.27-7.63-61.32.13-1.33-1.29-14.16-2.3-22.93l-.02-.22c0-.02-.01-.04-.01-.06l-.7-6.01-.17-1.49-.05-.41s-32.1-5.71-47.1-.31c-.63.23-1.22.47-1.8.74 0 0-.03.26-.1.74l-.88 6.56-.22 1.65c-2.13 16.16-.76 33.72 2.97 51.7 3.66 17.63 5.68 30.82 6.06 33.39L42 266.6c-7.96 9.82-14.74 18.17-14.24 18.99 1.26 2.05 14.82 13.62 15.43 11.57l5.17-5.92 1.7 10.44s13.03 2.92 17.54.26l-3.62-28.08c11.24-13.45 26.38-28.8 26.38-32.02zm-31.29-3.97c-.15-8.25-2.46-54.44-2.06-54.44 1.8 0 10.6 44 10.99 50.19.08 1.26-1.51 4.1-4.07 7.84-1.15 1.68-2.5 3.54-3.99 5.53l-.86-9.11z" fill="#05387d"/><path d="M91.04 72.74l-7.78 27.9-.93 3.31-.02.05c-.01.01-.01.02-.01.03-1.29 4.98-2.9 12.56-3.38 20.98-.32 5.74.74 28.83.74 28.83s-11.77 4.39-29.38 3.28c0 0-18.94-.44-17.4-12.05 4.09-30.74.09-43.41-.45-46.5l-4.41-27.44c5.33-1.99 28.1-9.64 28.1-9.64l11.79.88c.01.01 17.93 4.43 23.11 10.38z" fill="#fff"/><g fill="#ffa98f"><path d="M62.06 21.25s10.89 1.22 10.1 19.33c-.21 4.92-.1 8.31-1.71 11.11a14.4 14.4 0 0 1-11.62 6.73c-1.41-.16-7.61-1.75-9.15-5.72-2.02-5.24-3.25-8.35-2.91-17.2.01 0 1.19-15.98 15.29-14.24z"/><path d="M67.11 53.2s-.4 7.42.31 9.03c.7 1.62-9.24 6.73-15.42.9 0 0 1.25-8.91.86-11.77-.39-2.86 14.25 1.84 14.25 1.84z"/><path d="M50.81 63.29s3.08 5.38 8.94 5.88c3.71.32 6.93-4.39 8.44-6.69 0 0-8.32-3.56-17.37.82z"/></g><path d="M59.75 67.16l3.37 3.88s-3.89 1.73-6.51.04l3.14-3.92z" fill="#05387d"/><g fill="#0745b4"><path d="M68.19 62.48s-3.37 25.23-2.91 46.99 16.9 61.29 16.9 61.29 7.19-6.94 10.31-10.89c0 0-11.18-32.28-10.98-38.1s12.63-49.79 12.63-49.79-6.91-4.5-25.95-9.51zm-18.14 1.06l-.44 45.93c-.46 21.76-3.33 62.28-3.33 62.28s-16.09-2.55-19.22-6.48c0 0 6.51-37.67 6.31-43.49S22.9 73.12 22.9 73.12s5.98-3.93 27.15-9.58z"/></g><path d="M58.5 70.2s-3.96 13.53-4.31 40.4.49 34.58.49 34.58l3.09 6.12 4.12-6.39-.56-74.24-2.83-.47z" fill="#05387d"/><g fill="#0745b4"><path d="M76.93 155.81a35.7 35.7 0 0 0 11.05 6.22s21.75-35.06 22.02-37.58c.25-2.32-10.98-49.47-15.87-52.47l-8.9 26.06c.59-.17 8.62 20.01 8.66 22.58.05 3.45-16.95 35.19-16.95 35.19zm-55.17 18.75s-4.8.9-11.75.5l1.12-47.38c-.25-2.32 6.88-51.57 11.78-54.57l8.73 26.32c-.59-.17-4.97 27.05-5.01 29.62-.05 3.45-4.87 45.5-4.87 45.5z"/></g><g stroke="#0a1726" stroke-width=".47" stroke-miterlimit="10"><path d="M48.43 127.94l-3.42-26.02 3.12-3.74-4.05-.31 4.67-31.78m19.62 59.99l2.5-24.15-3.12-1.71 2.96-2.18-1.87-33.81"/></g><g fill="#6aa8e5"><path d="M52.22 61.5a21.5 21.5 0 0 0 7.53 5.67l-5.19 6.62-6.65-9.76 4.3-2.53z"/><path d="M67.12 60.77s-2.35 3.08-7.37 6.38l4.91 5.64 6.78-9.61-4.32-2.42z"/></g><path d="M49.79 31.2l1.04-.39c1.04-.28 2.14-.57 3.19-.33.89.2 1.7.75 2.61.67 1.11-.1 1.95-1.14 2.33-2.2.32-.89.66-2.04 1.58-2.13 1.25-.13 1.62 1.88 2.81 2.24.4.13.83.04 1.25.01.93-.07 1.91.06 2.71.55a2.9 2.9 0 0 1 1.26 1.82c.26 1.08.76 1.59 1.78 2.18 1.75 1.02 3.51.15 4.74-1.37l.2-.27c1.15-1.66 1-4.13-.43-5.48l-1.48-1.33c-1.36-1.31-1.52-3.48-2.64-5.01-2.07-2.85-6.03-1.56-8.99-2.09l-4.24-.85c-2.21-.36-4.54-.36-6.67.43-3.6 1.33-4.82 3.92-5.86 7.64-1.05 3.72-6.18 6.83 1.59 17.53l2.11-.23c.01 0-2.11-10.24 1.11-11.41z" fill="#071a22"/><g fill="#ffa98f"><path d="M46.64 39.09s-3.63-.35-3 4.05c.62 4.4 4.94 3.23 4.94 3.23l-1.95-7.28zm25.79-1.87s3.63-.35 3 4.05c-.62 4.4-4.94 3.23-4.94 3.23l1.95-7.28z"/></g><path d="M71.3 33.49s.82 5.02-.12 7.6l1.29.24.74-4.71c.05-.93-.39-3.7-.39-3.7l-1.51.57z" fill="#071a22"/><g fill="#1b1c17"><path d="M51.73 33.72c1.96-.51 4.03-.57 5.98-.2l.09-.48c-2.02-.39-4.16-.32-6.19.2l.12.48zm11.39.5a13.6 13.6 0 0 1 5.96.54l.15-.46a14.1 14.1 0 0 0-6.17-.56l.06.48z"/></g><path d="M56.57 48.8l7.67-.02s-.04 3.33-4.01 3.19c-1.11-.04-3.39-.95-3.66-3.16z" fill="#e5f4f6"/><g fill="#1b1c17"><path d="M60.09 45.89h-.05c-.31.01-.64-.01-.9-.22-.42-.34-.4-.97-.35-1.4l.13-1.06.68-4.89.35.09c-.22.85-.49 3.25-.67 4.84l-.13 1.07c-.05.35-.07.85.21 1.08.16.13.38.15.66.13a8.8 8.8 0 0 0 2.54-.46l.12.35a9.2 9.2 0 0 1-2.6.47zm-4.5-6.07c.04.67-.34 1.24-.84 1.29s-.93-.46-.97-1.12.34-1.24.84-1.29.93.46.97 1.12zm10.96 0c.04.67-.34 1.24-.84 1.29s-.93-.46-.97-1.12.34-1.24.84-1.29.94.46.97 1.12z"/></g><g stroke-width=".47" stroke-miterlimit="10"><g stroke="#183862"><use href="#B"/><path d="M65.73 44.69c1.92 0 3.48-1.88 3.48-4.21s-1.56-4.21-3.48-4.21-3.48 1.88-3.48 4.21 1.56 4.21 3.48 4.21z"/><path d="M58.3 39.7l3.85-.05m-10.97.32l-3.42-1.04m21.35.94l2.79-1.46"/></g><path d="M55.29 56.9s4.21 3.17 9.71.1" stroke="#1b1c17"/></g></g><defs><clipPath id="A"><path fill="#fff" d="M0 0h120v146H0z"/></clipPath><path id="B" d="M54.76 44.79c1.92 0 3.48-1.88 3.48-4.21s-1.56-4.21-3.48-4.21-3.48 1.88-3.48 4.21 1.56 4.21 3.48 4.21z"/></defs></svg>