<svg xmlns="http://www.w3.org/2000/svg" viewBox="0 0 680 446" xmlns:v="https://vecta.io/nano"><style><![CDATA[.R{fill:#a53d38}.S{fill:#f1a34f}.T{fill:#35488b}.U{fill:#fff}.V{fill:#c1d9f7}.W{fill:#699ff0}.X{fill:#0668e1}.Y{fill:#ffb27d}.Z{fill:#1b1c17}]]></style><g class="R"><use href="#B"/><use href="#B" x="-49.2"/></g><use href="#C" class="S"/><use href="#D" class="T"/><use href="#E" class="S"/><g class="R"><use href="#F"/><use href="#B" x="-22.8"/></g><g class="S"><use href="#G"/><use href="#H"/><path d="M524.9 210.8h6.3v-.7h-6.3v.7z"/><use href="#H" x="-22.7" y="31.9"/><use href="#I"/><use href="#J"/><use href="#K"/><use href="#K" y="1.3"/><use href="#K" y="2.7"/></g><g class="U"><use href="#L"/><use href="#M"/></g><g class="R"><use href="#N"/><use href="#O"/><path d="M468 207.3h6.7v-1H468v1zm0-1.4h6.7v-1H468v1zm2.7 7.8h1.4a2.7 2.7 0 0 0 2.7-2.7v-3.4H468v3.4a2.7 2.7 0 0 0 2.7 2.7z"/></g><path d="M553.9,54.7H535v257.5h18.9V54.7z" class="V"/><g class="W"><use href="#P"/><use href="#Q"/><use href="#R"/><path d="M459.9,54.7v3h72v250.9h-72v3.4H535V54.7H459.9z"/></g><use href="#S" class="R"/><g class="T"><use href="#T"/><use href="#S" x="7.1"/></g><g class="S"><use href="#U"/><use href="#V"/></g><use href="#S" x="42.2" class="R"/><use href="#W" class="S"/><path d="M493.9,138h-7v41.6h7V138z" class="R"/><use href="#X" class="S"/><path d="M507.1 172.5h-5.3v6.1h5.3v-6.1z" class="R"/><g class="S"><use href="#Y"/><use href="#Y" y="2.5"/></g><use href="#Z" class="U"/><path d="M465.2 141.6h-5.3v.8h5.3v-.8z" class="T"/><g class="U"><use href="#a"/><use href="#b"/><use href="#c"/></g><use href="#d" class="T"/><g class="R"><use href="#e"/><use href="#d" x="-7.4"/></g><use href="#f" class="T"/><g class="S"><use href="#g"/><use href="#g" x="-14.9"/></g><g class="R"><path d="M510 308.7h7.4v-44H510v44z"/><use href="#f" x="59.4"/></g><use href="#g" x="-37.1" class="S"/><use href="#h" class="R"/><g class="S"><path d="M459.9 283.1h4.6v-6.5h-4.6v6.5z"/><use href="#i"/><use href="#i" y="2.6"/></g><path d="M466 274.5h6.2v-.8H466v.8z" class="U"/><g class="T"><use href="#j"/><use href="#I" x="1" y="26.5"/><use href="#k"/><use href="#l"/><use href="#m"/></g><use href="#n" class="R"/><path d="M496 278.8h5.9v-1.3H496v1.3zm-.1 6.7h5.9v-1.3h-5.9v1.3z" class="U"/><path d="M486 115.1h9.2V74.5H486v40.6z" class="R"/><use href="#o" class="S"/><g class="T"><use href="#p"/><use href="#q"/></g><use href="#r" class="R"/><use href="#s" class="S"/><use href="#t" class="T"/><path d="M459.9 115.1h7.8V60.9h-7.8v54.2z" class="S"/><path d="M459.9 65.7h6.9v-1.9h-6.9v1.9zm0 3.2h6.9V67h-6.9v1.9z" class="R"/><g class="T"><path d="M527.3 77.9c1.9 0 3.4-1.5 3.4-3.4v-5.2h-6.8v5.2c0 1.9 1.5 3.4 3.4 3.4zM496 66.6h7.8v-1.1H496v1.1z"/><use href="#u"/><use href="#u" y="-2.2"/><use href="#v"/></g><use href="#w" class="R"/><g class="U"><use href="#x"/><path d="M487 86.5h7.2v-1.7H487v1.7z"/><use href="#y"/></g><g class="R"><use href="#B" x="85"/><use href="#B" x="35.9"/></g><use href="#C" x="85.1" class="S"/><use href="#D" x="85.1" class="T"/><use href="#E" x="85.1" class="S"/><g class="R"><use href="#F" x="85.1"/><use href="#B" x="62.3"/></g><g class="S"><use href="#G" x="85.1"/><path d="M610 209.5h6.3v-1.8H610v1.8zm0 1.3h6.3v-.7H610v.7z"/><use href="#H" x="62.3" y="31.9"/><use href="#I" x="85"/><use href="#J" x="85.1"/><use href="#K" x="85"/><use href="#K" x="85" y="1.3"/><use href="#K" x="85" y="2.7"/></g><g class="U"><use href="#L" x="85"/><use href="#M" x="85"/></g><g class="R"><use href="#N" x="85"/><use href="#O" x="85.1"/><path d="M553.1 207.3h6.7v-1h-6.7v1zm-.1-1.4h6.7v-1H553v1zm2.7 7.8h1.4a2.7 2.7 0 0 0 2.7-2.7v-3.4h-6.7v3.4c0 1.5 1.2 2.7 2.6 2.7z"/></g><path d="M639,54.7h-18.9v257.5H639V54.7z" class="V"/><g class="W"><use href="#P" x="85.1"/><use href="#Q" x="85.1"/><use href="#R" x="85.1"/><path d="M534.5,54.7v3H617v250.9h-72v3.4h75.1V54.7H534.5z"/></g><use href="#S" x="85.2" class="R"/><g class="T"><use href="#T" x="85.1"/><use href="#S" x="92.2"/></g><g class="S"><use href="#U" x="85.2"/><use href="#V" x="85.1"/></g><use href="#S" x="127.3" class="R"/><use href="#W" x="85.1" class="S"/><path d="M579,138h-7v41.6h7V138z" class="R"/><use href="#X" x="85.1" class="S"/><path d="M592.3 172.5H587v6.1h5.3v-6.1z" class="R"/><g class="S"><use href="#Y" x="85.1"/><use href="#Y" x="85.1" y="2.5"/></g><use href="#Z" x="85.2" class="U"/><path d="M550.3 141.6H545v.8h5.3v-.8z" class="T"/><g class="U"><use href="#a" x="85.1"/><use href="#b" x="85.1"/><use href="#c" x="85.1"/></g><use href="#d" x="85.1" class="T"/><g class="R"><use href="#e" x="85"/><use href="#d" x="77.6"/></g><use href="#f" x="85.1" class="T"/><g class="S"><use href="#g" x="85.1"/><use href="#g" x="70.2"/></g><g class="R"><path d="M595 308.7h7.4v-44H595v44z"/><use href="#f" x="144.5"/></g><use href="#g" x="48" class="S"/><use href="#h" x="85.1" class="R"/><path d="M545 283.1h4.6v-6.5H545v6.5zm14-14.5h5.7v-1.5H559v1.5zm0 2.6h5.7v-1.5H559v1.5z" class="S"/><path d="M551.1 274.5h6.2v-.8h-6.2v.8z" class="U"/><g class="T"><use href="#j" x="85.1"/><use href="#I" x="86.1" y="26.5"/><use href="#k" x="85.1"/><use href="#l" x="85.1"/><use href="#m" x="85.1"/></g><use href="#n" x="85.1" class="R"/><path d="M581 278.8h5.8v-1.3H581v1.3zm0 6.7h5.8v-1.3H581v1.3z" class="U"/><path d="M571.1 115.1h9.2V74.5h-9.2v40.6z" class="R"/><use href="#o" x="85.1" class="S"/><g class="T"><use href="#p" x="85.1"/><use href="#q" x="85.1"/></g><use href="#r" x="85.1" class="R"/><use href="#s" x="85.1" class="S"/><use href="#t" x="85.1" class="T"/><path d="M545 115.1h7.8V60.9H545v54.2z" class="S"/><path d="M545 65.7h6.9v-1.9H545v1.9zm0 3.2h6.9V67H545v1.9z" class="R"/><g class="T"><path d="M612.4 77.9c1.9 0 3.4-1.5 3.4-3.4v-5.2H609v5.2c0 1.9 1.5 3.4 3.4 3.4zm-31.3-11.3h7.8v-1.1h-7.8v1.1z"/><use href="#u" x="85.1"/><use href="#u" x="85.1" y="-2.2"/><use href="#v" x="85.1"/></g><use href="#w" x="85.1" class="R"/><g class="U"><use href="#x" x="85.1"/><use href="#x" x="85" y="8.3"/><use href="#y" x="85.1"/></g><path d="M639 54.7l-1.6-12.2H460v13.8l179-1.6z" class="V"/><g class="X"><path d="M473.3 46.4V53h-1.2v-6.6h1.2zm2.8 2.6v.9h-2.8V49h2.8zm1.1-2.6V53H476v-6.6h1.2z"/><use href="#z"/><path d="M485.1 48.3l.1.9.1.1V53h-1.2v-4.7h1zm2-.1c.4 0 .7.1.9.3s.3.5.3 1V53h-1.1v-3.2c0-.2-.1-.4-.2-.5s-.3-.1-.5-.1c-.1 0-.3 0-.4.1-.1 0-.3.1-.4.2-.2.1-.3.2-.6.4l-.1-.7a5.5 5.5 0 0 1 .9-.7c.5-.3.8-.3 1.2-.3zm3 0c.4 0 .7.1 1 .3.2.2.3.5.3 1V53h-1.2v-3.2c0-.2-.1-.4-.1-.5-.1-.1-.2-.2-.5-.2-.1 0-.3 0-.4.1-.1 0-.3.1-.4.2-.2.1-.3.2-.6.4l-.1-.7a3.6 3.6 0 0 1 1-.7c.3-.2.6-.2 1-.2z"/><use href="#AA"/><path d="M499 48.3l.1.9.1.1V53H498v-4.7h1zm2.2-.1a1.1 1.1 0 0 1 1.3 1.3V53h-1.2v-3.2c0-.3 0-.4-.1-.5s-.2-.1-.5-.1c-.2 0-.5.1-.7.2s-.6.3-.9.5l-.1-.9c.4-.3.7-.5 1.1-.7.4-.1.7-.1 1.1-.1zm7.2-1.9a3.9 3.9 0 0 1 1.3.2c.3.1.6.3.8.6s.2.7.2 1.2c0 .3 0 .6-.1.9-.1.2-.2.4-.4.6-.2.1-.4.2-.7.3h0c.1 0 .2.1.3.1l.3.3c.1.1.2.3.2.5l.7 2h-1.3l-.5-2c-.1-.2-.2-.4-.3-.5s-.3-.1-.5-.1h-1.1-.7-.5v-.9h2.3c.3 0 .5 0 .7-.1s.3-.2.4-.3c.1-.2.1-.4.1-.7s0-.5-.1-.7-.2-.3-.4-.3c-.2-.1-.4-.1-.7-.1h-1.5-.8l-.1-.9c.3 0 .5 0 .7-.1h.7 1zm-1.3.1V53H506v-6.6h1.1zm6.9 1.8c.8 0 1.3.1 1.6.4s.5.7.5 1.2c0 .4-.1.8-.3 1s-.6.3-1 .3h-2.7v-.7h2.4c.2 0 .4-.1.4-.2.1-.1.1-.3.1-.4 0-.3-.1-.4-.2-.5s-.4-.2-.7-.2-.5 0-.7.1-.3.2-.4.5c-.1.2-.1.5-.1.9s0 .8.1 1 .2.4.4.5.4.1.8.1h.8c.3 0 .6 0 .9-.1l.1.7c-.2.1-.4.1-.6.2-.2 0-.5.1-.7.1h-.7a2.9 2.9 0 0 1-1.4-.3c-.4-.2-.6-.4-.8-.8s-.2-.8-.2-1.4.1-1.1.2-1.5c.2-.4.4-.6.8-.8.5-.1.9-.1 1.4-.1zm5 0h.7c.3 0 .5 0 .7.1.2 0 .5.1.7.1l-.1.8h-.9-.9-.6c-.2 0-.3.1-.3.1-.1.1-.1.2-.1.3 0 .2.1.3.2.4s.3.1.5.2l1.3.3c.4.1.7.2.9.4s.3.5.3.9a2 2 0 0 1-.2.9c-.1.2-.4.3-.7.4s-.7.1-1.2.1h-.8c-.4 0-.8-.1-1.2-.1l.1-.8h.5.6.6.8c.2 0 .3-.1.4-.1.1-.1.1-.2.1-.3 0-.2-.1-.3-.2-.4s-.3-.1-.5-.2l-1.3-.3c-.3-.1-.5-.2-.7-.3s-.3-.3-.3-.4c-.1-.2-.1-.4-.1-.7s.1-.6.2-.8.3-.3.6-.4c0-.2.4-.3.9-.2zm5.4 0c.6 0 1 .1 1.4.2.3.2.6.4.7.8.2.4.2.8.2 1.5 0 .6-.1 1.1-.2 1.4-.2.4-.4.6-.7.8s-.8.2-1.4.2-1-.1-1.4-.2c-.3-.2-.6-.4-.7-.8-.2-.4-.2-.8-.2-1.4s.1-1.1.2-1.5c.2-.4.4-.6.7-.8.4-.2.8-.2 1.4-.2zm0 .8c-.3 0-.5 0-.7.1s-.3.3-.4.5-.1.6-.1 1 0 .7.1 1c.1.2.2.4.4.5s.4.1.7.1.5 0 .7-.1.3-.2.4-.5c.1-.2.1-.6.1-1s0-.7-.1-1c-.1-.2-.2-.4-.4-.5-.2 0-.4-.1-.7-.1z"/><use href="#z" x="49.3"/><path d="M534.4 48.3l.2.9.1.1V53h-1.2v-4.7h.9zm2.3-.1l-.1 1.1h-.3c-.2 0-.5 0-.8.1s-.6.2-1 .4l-.1-.7c.3-.3.7-.5 1-.7s.7-.2 1-.2h.3 0zm2.8 0h.5c.2 0 .4 0 .6.1s.4.1.5.2l-.1.7h-.7-.6c-.3 0-.6 0-.8.1s-.3.2-.4.5c-.1.2-.1.5-.1.9s0 .7.1.9.2.4.4.5.4.1.8.1h.4.5c.2 0 .4 0 .5-.1l.1.8c-.2.1-.5.2-.8.2s-.6.1-.9.1c-.6 0-1-.1-1.4-.2-.3-.2-.6-.4-.7-.8-.2-.4-.2-.8-.2-1.5 0-.6.1-1.1.2-1.5.2-.4.4-.6.7-.8.4-.2.8-.2 1.4-.2z"/><use href="#AB"/><path d="M556.2 46.4c.3 0 .5.2.5.5l.3 6.1h-1.1l-.2-5.7h-.2l-1.2 4.5c-.1.3-.2.4-.5.4h-.8c-.3 0-.4-.1-.5-.4l-1.2-4.5h-.2l-.2 5.7h-1.1l.3-6.2c0-.3.2-.5.5-.5h1.2c.3 0 .4.1.5.4l1 3.6c0 .2.1.3.1.5s.1.3.1.5h.1c0-.2.1-.3.1-.5s.1-.3.1-.5l1-3.6c.1-.3.2-.4.5-.4h.9zm5.6 3.7v.7h-2.2c-.2 0-.3.1-.4.2s-.1.2-.1.4v.3c0 .2.1.3.2.4s.3.1.5.1.4 0 .6-.1l.6-.3c.2-.1.4-.3.6-.5v.6l-.3.3-.4.4-.6.3c-.2.1-.5.1-.8.1s-.5-.1-.8-.1c-.2-.1-.4-.2-.5-.4s-.2-.4-.2-.7v-.5c0-.4.1-.7.4-.9.2-.2.6-.3 1-.3h2.4 0zm-1.2-1.9c.4 0 .7.1 1 .1.3.1.5.3.6.5s.2.6.2 1V53h-.9l-.2-1-.1-.1v-2.1c0-.2-.1-.4-.2-.5s-.3-.2-.7-.2h-.9c-.4 0-.7 0-1.1.1l-.1-.8c.2 0 .5-.1.8-.1s.6-.1.9-.1h.7zm4 .1l.1.9.1.1V53h-1.2v-4.7h1zm2.1-.1a1.1 1.1 0 0 1 1.3 1.3V53h-1.2v-3.2c0-.3 0-.4-.1-.5s-.2-.1-.5-.1c-.2 0-.5.1-.7.2a9 9 0 0 0-.9.5l-.1-.7c.4-.3.7-.5 1.1-.7.4-.3.8-.3 1.1-.3z"/><use href="#AA" x="76.7"/><path d="M575.4 50.9l.6.1c-.1.1-.2.2-.2.3v.3c.1.1.2.2.4.2l1.8.2c.5.1.8.2 1 .4s.3.5.3 1a2 2 0 0 1-.2.9c-.2.2-.4.4-.8.5s-.8.1-1.4.1c-.5 0-.9 0-1.2-.1-.3 0-.6-.1-.7-.2-.2-.1-.3-.3-.4-.4-.1-.2-.1-.4-.1-.7 0-.2 0-.4.1-.5s.2-.3.3-.4l.6-.3.7-.3.5.2-.4.3c-.1.1-.3.2-.4.3s-.2.2-.2.3-.1.2-.1.3c0 .2 0 .3.1.4s.2.2.4.2.4.1.8.1c.3 0 .6 0 .8-.1.2 0 .3-.1.4-.2s.1-.2.1-.4c0-.1 0-.2-.1-.3 0-.1-.1-.1-.2-.2-.1 0-.3-.1-.5-.1l-1.6-.2c-.2 0-.4-.1-.5-.2s-.2-.2-.3-.4-.1-.3 0-.5c0-.2.1-.3.2-.4-.1-.1 0-.2.2-.2zm1.3-2.7c.5 0 1 .1 1.3.1.3.1.5.3.7.5a2 2 0 0 1 .2.9c0 .3-.1.6-.2.9-.1.2-.4.4-.7.5a3.9 3.9 0 0 1-1.3.2c-.5 0-1-.1-1.3-.2s-.5-.3-.7-.5a2 2 0 0 1-.2-.9 2 2 0 0 1 .2-.9c.1-.2.4-.4.7-.5.4-.1.8-.1 1.3-.1zm0 .7c-.4 0-.7.1-.8.2-.2.1-.2.3-.2.6s.1.5.2.6c.2.1.4.2.8.2s.7-.1.8-.2.2-.3.2-.6-.1-.5-.2-.6-.4-.2-.8-.2zm2.7-.6l-.1.5-1.2.1-.3-.7h1.6zm2.9-.1c.8 0 1.3.1 1.6.4s.5.7.5 1.2c0 .4-.1.8-.3 1s-.6.3-1 .3h-2.7v-.7h2.4c.2 0 .4-.1.4-.2.1-.1.1-.3.1-.4 0-.3-.1-.4-.2-.5s-.4-.2-.7-.2-.5 0-.7.1-.3.2-.4.5c-.1.2-.1.5-.1.9s0 .8.1 1 .2.4.4.5.4.1.8.1h.8c.3 0 .6 0 .9-.1l.1.7c-.2.1-.4.1-.6.2-.2 0-.5.1-.7.1h-.7a2.9 2.9 0 0 1-1.4-.3c-.4-.2-.6-.4-.8-.8s-.2-.8-.2-1.4.1-1.1.2-1.5c.2-.4.4-.6.8-.8.4-.1.9-.1 1.4-.1zm4.1.1l.1.9.1.1V53h-1.2v-4.7h1zm2-.1c.4 0 .7.1.9.3s.3.5.3 1V53h-1.1v-3.2c0-.2-.1-.4-.2-.5s-.3-.1-.5-.1c-.1 0-.3 0-.4.1-.1 0-.3.1-.4.2-.2.1-.3.2-.6.4l-.1-.7a5.5 5.5 0 0 1 .9-.7c.5-.3.9-.3 1.2-.3zm3 0c.4 0 .7.1 1 .3.2.2.3.5.3 1V53h-1.2v-3.2c0-.2-.1-.4-.1-.5-.1-.1-.2-.2-.5-.2-.1 0-.3 0-.4.1-.1 0-.3.1-.4.2-.2.1-.3.2-.6.4l-.1-.7a3.6 3.6 0 0 1 1-.7c.3-.2.7-.2 1-.2z"/><use href="#AB" x="51.8"/><path d="M600.2 48.3l.1.9.1.1V53h-1.2v-4.7h1zm2.2-.1a1.1 1.1 0 0 1 1.3 1.3V53h-1.2v-3.2c0-.3 0-.4-.1-.5s-.2-.1-.5-.1c-.2 0-.5.1-.7.2s-.6.3-.9.5l-.1-.7c.4-.3.7-.5 1.1-.7.4-.3.8-.3 1.1-.3zm5.6.1v.8h-3.4v-.8h.9 2.5 0zm-1.4-1.4v4.6c0 .2 0 .3.1.4s.2.1.4.1h.7l.1.8c-.1 0-.2.1-.4.1s-.3 0-.5.1h-.4c-.4 0-.7-.1-1-.3-.2-.2-.3-.5-.3-1v-4.9h1.3z"/></g><use href="#AC" class="R"/><g class="T"><path d="M112.2 308.6h9.6v-57.4h-9.6v57.4z"/><use href="#AC" x="-9.6"/></g><g class="S"><path d="M121.8 308.6h9.6v-50h-9.6v50z"/><use href="#AD"/><use href="#AD" x="-19.2"/></g><g class="R"><path d="M179.2 308.6h9.6v-38h-9.6v38zm19.2-.1h9.6v-50h-9.6v50z"/><use href="#AC" x="-57.5"/></g><path d="M140.9 308.6h9.6v-33.9h-9.6v33.9z" class="S"/><path d="M131.4 308.6h9.6v-56.7h-9.6v56.7z" class="R"/><path d="M79.6 305.5l9.1 3 14.9-47.6-9.1-3-14.9 47.6z" class="S"/><path d="M113.3 307.2h7.2v-8.4h-7.2v8.4z" class="R"/><path d="M132.7 256.9h7.3v-2h-7.3v2zm0 3.3h7.3v-2h-7.3v2z" class="S"/><path d="M122.6 264.4h8v-1h-8v1z" class="U"/><path d="M203.2 269.7c2 0 3.5-1.6 3.5-3.5v-5.4h-7.1v5.4c.1 1.9 1.6 3.5 3.6 3.5zm-32.7-11.9h8.1v-1.1h-8.1v1.1zm9.5 49.8h8.1v-1.7H180v1.7z" class="T"/><path d="M180 305.3h8.1v-1.7H180v1.7zm4-3.2c1.9 0 3.5-1.6 3.5-3.5s-1.6-3.5-3.5-3.5-3.5 1.6-3.5 3.5c.1 1.9 1.6 3.5 3.5 3.5z" class="U"/><path d="M190.1 288.6h7.1v-16.8h-7.1v16.8z" class="R"/><g class="U"><path d="M161.2 269.9h7.5v-1.7h-7.5v1.7zm-.1 8.8h7.5V277h-7.5v1.7z"/><use href="#AE"/></g><path d="M125.5,127.4h-9.2V168h9.2V127.4z" class="R"/><path d="M198.8,127.4h-9.2V168h9.2V127.4z" class="S"/><path d="M171.3,125.9h-9.2V168h9.2V125.9z" class="T"/><path d="M134.6,125.9h-9.2V168h9.2V125.9z" class="S"/><path d="M162.1,131.6h-9.2V168h9.2V131.6z" class="R"/><path d="M98 113h-9.2v55H98v-55zm91.6 0h-9.2v55h9.2v-55zm-73.3 3.8h-9.2V168h9.2v-51.2z" class="T"/><path d="M107.1,130.3H98V168h9.2V130.3z" class="R"/><path d="M88.8,120.1h-9.2V168h9.2V120.1z" class="S"/><path d="M208,120.1h-9.2v47.8h9.2V120.1z" class="T"/><path d="M180.5,118.5h-9.2V168h9.2V118.5z" class="S"/><path d="M143.8,116.8h-9.2V168h9.2V116.8z" class="T"/><g class="S"><path d="M152.9 113.7h-9.2V168h9.2v-54.3zm17.3 14.6h-6.9v8h6.9v-8z"/><path d="M151.7 116.5h-7v1.9h7v-1.9zm0 3.3h-7v1.9h7v-1.9z"/></g><g class="T"><path d="M84.2 130.7c-1.9 0-3.4-1.5-3.4-3.4v-5.2h6.8v5.2c-.1 1.9-1.6 3.4-3.4 3.4zm31.2-12.4h-7.8v1.1h7.8v-1.1z"/><use href="#AF"/><use href="#AF" y="-2.2"/><path d="M102.5 161.7c-1.8 0-3.3-1.5-3.3-3.3s1.5-3.3 3.3-3.3 3.3 1.5 3.3 3.3-1.5 3.3-3.3 3.3z"/></g><path d="M96.7,132.7H90v16.1h6.8V132.7z" class="R"/><g class="U"><use href="#AG"/><use href="#AG" x="0.1" y="8.3"/><path d="M178.2 123.1h-5.1c-.7 0-1.3-.6-1.3-1.2 0-.7.6-1.2 1.3-1.2h5.1c.7 0 1.3.6 1.3 1.2s-.6 1.2-1.3 1.2zm-35.5 37.7h-7.1v6.2h7.1v-6.2z"/></g><g class="R"><path d="M161.2 164.8h-7.5v1.4h7.5v-1.4z"/><use href="#AH"/><use href="#AH" y="3.5"/><use href="#AI"/><use href="#AI" x="-61.8"/></g><path d="M188.9 238.3h9.5V182h-9.5v56.3z" class="T"/><use href="#AJ" class="S"/><use href="#AJ" x="-90.3" class="R"/><use href="#AI" x="-118.9" class="T"/><path d="M127.2 238.3h9.5v-53h-9.5v53zm-28.6 0h9.5v-53h-9.5v53z" class="S"/><path d="M117.7 238.3h9.5V182h-9.5v56.3z" class="R"/><use href="#AJ" x="-71.2" class="T"/><use href="#AI" x="-28.6" class="R"/><g class="S"><path d="M146.2 235.3l9.1 3 14.6-46.7c.1-.3-.1-.7-.4-.8l-7.9-2.6c-.3-.1-.7.1-.8.4l-14.6 46.7zm53-40.5h8v-2.2h-8v2.2zm0 1.7h8v-.9h-8v.9zM170.7 235h8v-2.2h-8v2.2zm0 1.6h8v-.9h-8v.9zM138 219h6.9v-28.2H138V219zm-44.7-16.8h1c1.1 0 2.1-.9 2.1-2.1 0-1.1-.9-2.1-2.1-2.1h-1c-1.1 0-2.1.9-2.1 2.1s1 2.1 2.1 2.1z"/><use href="#AK"/><use href="#AK" y="1.7"/><use href="#AK" y="3.4"/></g><path d="M180 206.6h8.4v-8.8H180v8.8zm0 2.1h8.4v-1.2H180v1.2zM80.5 237h7.9v-1.4h-7.9v1.4zm0-2.3h7.9v-1.4h-7.9v1.4zm0-2.5h7.9v-7.5h-7.9v7.5z" class="U"/><path d="M112.8 220.7h.3a3.8 3.8 0 1 0 0-7.6h-.3a3.8 3.8 0 1 0 0 7.6z" class="R"/><path d="M189.9,237h7.7v-4.3h-7.7V237z" class="S"/><path d="M159.7 194.5l7.8 2.5.5-1.6-7.8-2.5-.5 1.6zm-31.9-2.5h8.4v-1.3h-8.4v1.3zm-.1-1.7h8.4V189h-8.4v1.3zm4.3 9.8c2.3 0 4.2-1.9 4.2-4.2v-3.4h-8.4v3.4c0 2.3 1.9 4.2 4.2 4.2z" class="R"/><g class="T"><use href="#AL"/><use href="#AL" x="47.5"/></g><use href="#AL" x="9.5" class="R"/><path d="M165.2,48.1h-9.5v49.6h9.5V48.1z" class="T"/><g class="S"><use href="#AM"/><use href="#AM" x="19.1"/></g><g class="R"><path d="M108.1 41.4h-9.5v56.3h9.5V41.4zm-19 6.7h-9.5v49.6h9.5V48.1z"/><use href="#AL" x="57"/></g><use href="#AM" x="47.5" class="S"/><path d="M155.6,41.4h-9.5v56.3h9.5V41.4z" class="R"/><g class="S"><use href="#AN"/><path d="M173.6 56.6h-7.2v8.3h7.2v-8.3zm-19.3-12.2H147v2h7.3v-2zm0 3.4H147v2h7.3v-2z"/></g><path d="M164.4 52.9h-8v1h8v-1z" class="U"/><path d="M85.1 59.1h-1.4a2.8 2.8 0 0 1-2.8-2.8v-6.1h7v6.1c0 1.5-1.3 2.8-2.8 2.8zm31.7-12.9h-8.1v1.1h8.1v-1.1zm-9.4 48.9h-8v1.7h8v-1.7zm0-2.3h-8v1.7h8v-1.7zm-4-1.5c-1.9 0-3.5-1.5-3.5-3.5s1.6-3.5 3.5-3.5 3.5 1.5 3.5 3.5c-.1 1.9-1.6 3.5-3.5 3.5z" class="T"/><path d="M97.4,61.2h-7v16.7h7V61.2z" class="R"/><path d="M126.1 57.6h-7.5v1.7h7.5v-1.7zm0 8.7h-7.5V68h7.5v-1.7zm55.8-5.1h-5.2c-.7 0-1.3-.6-1.3-1.3s.6-1.3 1.3-1.3h5.2c.7 0 1.3.6 1.3 1.3 0 .8-.6 1.3-1.3 1.3z" class="U"/><path d="M55.6,312.1h20.6V31.7H55.6V312.1z" class="V"/><g class="W"><path d="M77.7 105.3h132.1v-7.7H77.7v7.7zm0 70.3h132.1V168H77.7v7.6zm0 70.3h132.1v-7.7H77.7v7.7z"/><path d="M211.4 31.7v280.4H76.2V31.7h135.2zM79.6 308.6H208V35H79.6v273.6z"/></g><path d="M55.6 31.7V13.8h309.9l.5 17.5" class="V"/><g class="X"><path d="M119.7 20.6c.6 0 1 .1 1.4.2.3.1.6.3.7.6a3.9 3.9 0 0 1 .2 1.3 3.9 3.9 0 0 1-.2 1.3c-.1.3-.4.5-.7.6a3.9 3.9 0 0 1-1.3.2h-.8c-.3 0-.5 0-.7-.1-.2 0-.4-.1-.6-.1s-.3-.1-.3-.1v-.6h1.1 1.2c.3 0 .5 0 .7-.1s.3-.2.3-.4c.1-.2.1-.4.1-.7s0-.6-.1-.7c-.1-.2-.2-.3-.3-.4-.2-.1-.4-.1-.7-.1h-1.5-.8l-.1-.9c.3 0 .5 0 .7-.1h.7c.3.1.6.1 1 .1zm-1.2.1v6.6h-1.2v-6.6h1.2zm6.2 1.8h.7c.3 0 .5 0 .7.1.2 0 .5.1.7.1l-.1.8h-.9-.9-.6c-.2 0-.3.1-.3.1-.1.1-.1.2-.1.3 0 .2.1.3.2.4s.3.1.5.2l1.3.3c.4.1.7.2.9.4s.3.5.3.9a2 2 0 0 1-.2.9c-.1.2-.4.3-.7.4s-.7.1-1.2.1h-.8c-.4 0-.8-.1-1.2-.1l.1-.8h.5.6.6.8c.2 0 .3-.1.4-.1.1-.1.1-.2.1-.3 0-.2-.1-.3-.2-.4s-.3-.1-.5-.2l-1.3-.3c-.3-.1-.5-.2-.7-.3s-.3-.3-.3-.4c-.1-.2-.1-.4-.1-.7s.1-.6.2-.8.3-.3.6-.4c.1-.2.4-.2.9-.2zm4 .1l1 3.3c0 .1.1.2.1.3s0 .2.1.3h.2l-.4.8h-.3c-.1 0-.2 0-.2-.1-.1-.1-.1-.1-.1-.2l-1.6-4.4h1.2zm3.8 0l-1.8 4.9-.3.7c-.1.2-.3.4-.5.6s-.4.3-.7.4-.6.1-.9.1l-.1-.7c.4-.1.7-.3.9-.4.2-.2.4-.4.5-.7l.3-.6c.1-.1.1-.3.2-.5s.1-.3.1-.5l1-3.3h1.3 0zm2.8-.1h.5c.2 0 .4 0 .6.1.2 0 .4.1.5.2l-.1.7h-.7-.6c-.3 0-.6 0-.8.1s-.3.2-.4.5c-.1.2-.1.5-.1.9s0 .7.1.9.2.4.4.5.4.1.8.1h.4.5c.2 0 .4 0 .5-.1l.1.8c-.2.1-.5.2-.8.2s-.6.1-.9.1c-.6 0-1-.1-1.4-.2-.3-.2-.6-.4-.7-.8-.2-.4-.2-.8-.2-1.5 0-.6.1-1.1.2-1.5.2-.4.4-.6.7-.8a5.9 5.9 0 0 1 1.4-.2zm3.9-1.9v1.7.7c0 .2-.1.4-.1.5l.1.1v3.7H138v-6.7h1.2zm1.9 1.9a1.1 1.1 0 0 1 1.3 1.3v3.5h-1.2v-3.2c0-.3 0-.4-.1-.5s-.2-.1-.4-.1-.5.1-.7.2-.6.3-.9.5l-.1-.7c.4-.3.7-.5 1.1-.7.3-.2.7-.3 1-.3z"/><use href="#AO"/><path d="M150.5 20.6v5.3c0 .2.1.3.2.4s.2.1.4.1h.4l.1.8c-.1 0-.2.1-.3.1s-.3 0-.4.1h-.3c-.4 0-.7-.1-.9-.3s-.3-.5-.3-.9v-5.6h1.1z"/><use href="#AO" x="8.6"/><path d="M158.6 25.2l.6.1c-.1.1-.2.2-.2.3v.3c.1.1.2.2.4.2l1.8.2c.5.1.8.2 1 .4s.3.5.3 1a2 2 0 0 1-.2.9c-.2.2-.4.4-.8.5s-.8.1-1.4.1c-.5 0-.9 0-1.2-.1-.3 0-.6-.1-.7-.2-.2-.1-.3-.3-.4-.4-.1-.2-.1-.4-.1-.7 0-.2 0-.4.1-.5s.2-.3.3-.4l.6-.3.7-.3.5.2-.4.3c-.1.1-.3.2-.4.3s-.2.2-.2.3-.1.2-.1.3c0 .2 0 .3.1.4s.2.2.4.2.4.1.8.1c.3 0 .6 0 .8-.1.2 0 .3-.1.4-.2s.1-.2.1-.4c0-.1 0-.2-.1-.3 0-.1-.1-.1-.2-.2-.1 0-.3-.1-.5-.1l-1.6-.2c-.2 0-.4-.1-.5-.2s-.2-.2-.3-.4-.1-.3 0-.5c0-.2.1-.3.2-.4-.1-.1 0-.1.2-.2zm1.4-2.7c.5 0 1 .1 1.3.1.3.1.5.3.7.5a2 2 0 0 1 .2.9c0 .3-.1.6-.2.9-.1.2-.4.4-.7.5a3.9 3.9 0 0 1-1.3.2 3.9 3.9 0 0 1-1.3-.2c-.3-.1-.5-.3-.7-.5a2 2 0 0 1-.2-.9 2 2 0 0 1 .2-.9c.1-.2.4-.4.7-.5s.7-.1 1.3-.1zm-.1.8c-.4 0-.7.1-.8.2-.2.1-.2.3-.2.6s.1.5.2.6c.2.1.4.2.8.2s.7-.1.8-.2c.2-.1.2-.3.2-.6s-.1-.5-.2-.6-.4-.2-.8-.2zm2.7-.7l-.1.5-1.2.1-.3-.7h1.6zm1.5 0l1 3.3c0 .1.1.2.1.3s0 .2.1.3h.2l-.4.8h-.3c-.1 0-.2 0-.2-.1-.1-.1-.1-.1-.1-.2l-1.6-4.4h1.2zm3.9 0l-1.8 4.9-.3.7c-.1.2-.3.4-.5.6s-.4.3-.7.4-.6.1-.9.1l-.1-.7c.4-.1.7-.3.9-.4.2-.2.4-.4.5-.7l.3-.6c.1-.1.1-.3.2-.5s.1-.3.1-.5l1-3.3h1.3 0zm67.1-2.9c.6 0 1.1.1 1.5.2s.6.3.8.6.2.7.2 1.1c0 .5-.1.9-.3 1.2s-.5.4-1 .5h0c.5.1.9.2 1.2.6.2.3.3.8.3 1.4 0 .5-.1.9-.2 1.1-.2.3-.4.5-.8.6a5.2 5.2 0 0 1-1.4.2h-1.1-.9c-.3 0-.6 0-.8-.1l.1-1h.9 1.6c.3 0 .6 0 .8-.1s.3-.2.4-.3c.1-.2.1-.4.1-.7s0-.6-.1-.8-.2-.3-.4-.4-.5-.1-.8-.1h-2.5v-.9h2.5c.3 0 .5 0 .7-.1s.3-.2.4-.3c.1-.2.1-.4.1-.7s0-.5-.1-.7-.2-.3-.4-.3c-.2-.1-.4-.1-.8-.1h-1-.8-.6l-.1-1c.3 0 .5 0 .8-.1h.8c.2.2.5.2.9.2zm-1.3.1V27h-1.3v-7.2h1.3zm7.5 1.9c.8 0 1.4.1 1.8.4s.5.7.6 1.3c0 .5-.1.8-.3 1.1a1.6 1.6 0 0 1-1.1.4h-2.9v-.8h2.6c.2 0 .4-.1.5-.2s.1-.3.1-.5c0-.3-.1-.5-.2-.6-.2-.1-.4-.2-.8-.2-.3 0-.6 0-.8.1s-.3.3-.4.5-.1.6-.1 1c0 .5 0 .8.1 1.1s.2.4.4.5.5.1.8.1h.9c.3 0 .7-.1 1-.1l.1.8c-.2.1-.4.1-.6.2s-.5.1-.8.1h-.7c-.6 0-1.1-.1-1.5-.3s-.7-.5-.8-.9c-.2-.4-.3-.9-.3-1.5a3.5 3.5 0 0 1 .3-1.6c.2-.4.4-.7.8-.8.3 0 .8-.1 1.3-.1zm4.8-2v1.9.7c0 .2-.1.4-.1.6l.1.1v4h-1.3v-7.3h1.3zm2.1 2a1.2 1.2 0 0 1 1.4 1.4V27h-1.3v-3.5c0-.3 0-.5-.1-.6s-.3-.2-.5-.2c-.3 0-.5.1-.8.2s-.6.3-1 .5l-.1-.7c.4-.3.8-.6 1.2-.7.4-.2.8-.3 1.2-.3zm6.7 2.1v.8h-2.4c-.2 0-.4.1-.4.2-.1.1-.1.2-.1.4v.3c0 .2.1.4.2.5s.3.2.5.2.4 0 .6-.1.5-.2.7-.3.4-.3.6-.5v.7c-.1.1-.2.2-.3.4-.1.1-.3.3-.5.4s-.4.3-.7.3c-.2.1-.5.1-.8.1s-.6-.1-.8-.2-.4-.3-.6-.5c-.1-.2-.2-.5-.2-.8v-.5c0-.4.1-.7.4-.9s.6-.3 1.1-.3l2.7-.2h0zm-1.3-2.1c.4 0 .8.1 1 .2.3.1.5.3.6.5.1.3.2.6.2 1.1V27h-1l-.2-1.1-.1-.1v-2.2c0-.3-.1-.5-.2-.6s-.4-.2-.7-.2h-1c-.4 0-.8.1-1.2.1l-.1-.9c.2-.1.5-.1.8-.1s.6-.1.9-.1c.5-.1.7-.1 1-.1zm8.2.1l-1.8 4.8c0 .1-.1.2-.2.2-.1.1-.2.1-.3.1h-1.1c-.1 0-.2 0-.3-.1l-.2-.2-1.8-4.8h1.3l1.1 3.4a.9.9 0 0 1 .1.5c0 .2.1.3.1.5h.1c.1-.2.1-.3.1-.5s.1-.3.1-.5l1.1-3.4h1.7zm1.7-2.2c.2 0 .4.1.4.4v.6c0 .2-.1.4-.4.4h-.5c-.2 0-.4-.1-.4-.4V20c0-.2.1-.4.4-.4h.5zm.4 2.2V27h-1.3v-5.1h1.3zm3.8-.1c.6 0 1.1.1 1.5.3s.6.5.8.9.2.9.2 1.6-.1 1.2-.2 1.6c-.2.4-.4.7-.8.9s-.9.3-1.5.3-1.1-.1-1.5-.3-.6-.5-.8-.9-.2-.9-.2-1.6.1-1.2.2-1.6c.2-.4.4-.7.8-.9s.9-.3 1.5-.3zm0 1c-.3 0-.5.1-.7.2s-.3.3-.4.5-.1.6-.1 1.1 0 .8.1 1.1c.1.2.2.4.4.5s.4.1.7.1.6-.1.7-.1c.2-.1.3-.3.4-.5s.1-.6.1-1.1 0-.8-.1-1.1c-.1-.2-.2-.4-.4-.5-.2-.2-.4-.2-.7-.2zm4.7-.9l.2 1 .1.1v4h-1.3v-5.1h1zm2.5-.1l-.1 1.2h-.4c-.3 0-.6 0-.8.1-.3.1-.6.2-1 .4l-.1-.7c.4-.3.7-.5 1.1-.7s.7-.3 1.1-.3h.2zm4.8 2.1v.8h-2.4c-.2 0-.4.1-.4.2-.1.1-.1.2-.1.4v.3c0 .2.1.4.2.5s.3.2.5.2.4 0 .6-.1.5-.2.7-.3.4-.3.6-.5v.7c-.1.1-.2.2-.3.4-.1.1-.3.3-.5.4s-.4.3-.7.3-.5.1-.8.1-.6-.1-.8-.2-.4-.3-.6-.5c-.1-.2-.2-.5-.2-.8v-.5c0-.4.1-.7.4-.9s.6-.3 1.1-.3l2.7-.2h0zm-1.4-2.1c.4 0 .8.1 1 .2.3.1.5.3.6.5.1.3.2.6.2 1.1V27h-1l-.2-1.1-.1-.1v-2.2c0-.3-.1-.5-.2-.6s-.4-.2-.7-.2h-1c-.4 0-.8.1-1.2.1l-.1-.9c.2-.1.5-.1.8-.1s.6-.1.9-.1c.5-.1.7-.1 1-.1zm4.5-2v5.8c0 .2.1.3.2.4s.3.2.5.2h.4l.1.9c-.1 0-.2.1-.3.1s-.3 0-.4.1h-.4c-.4 0-.8-.1-1-.3s-.4-.6-.4-1v-6.1h1.3zm5.6 0h1.1 1.1c.4 0 .7 0 1 .1l-.1 1h-2.8c-.2 0-.3.1-.4.1-.1.1-.1.2-.1.5v3.9c0 .2 0 .4.1.5s.2.1.4.1h2.8l.1 1c-.3 0-.7 0-1 .1h-1.1-1.1c-.4 0-.8-.1-1.1-.4-.3-.2-.4-.6-.4-1v-4.5c0-.4.1-.7.4-1a2.1 2.1 0 0 1 1.1-.4zm-1.3 3h4.1v1h-4.1v-1z"/><use href="#AP"/><path d="M300.3 21.7c.6 0 1.1.1 1.5.3s.6.5.8.9.2.9.2 1.6-.1 1.2-.2 1.6c-.2.4-.4.7-.8.9s-.9.3-1.5.3-1.1-.1-1.5-.3-.6-.5-.8-.9-.2-.9-.2-1.6.1-1.2.2-1.6c.2-.4.4-.7.8-.9s.9-.3 1.5-.3zm0 1c-.3 0-.5.1-.7.2s-.3.3-.4.5-.1.6-.1 1.1 0 .8.1 1.1c.1.2.2.4.4.5s.4.1.7.1.6-.1.7-.1c.2-.1.3-.3.4-.5s.1-.6.1-1.1 0-.8-.1-1.1c-.1-.2-.2-.4-.4-.5-.1-.2-.4-.2-.7-.2zm4.8-.9l.1 1 .1.1v4H304v-5.1h1.1zm2.3-.1a1.2 1.2 0 0 1 1.4 1.4V27h-1.3v-3.5c0-.3-.1-.5-.1-.6-.1-.1-.3-.2-.5-.2-.3 0-.5.1-.8.2s-.6.3-1 .5l-.1-.8c.4-.3.8-.6 1.2-.7a5 5 0 0 1 1.2-.2zm5.1 0c.6 0 1.1.1 1.5.3s.6.5.8.9.2.9.2 1.6-.1 1.2-.2 1.6c-.2.4-.4.7-.8.9s-.9.3-1.5.3-1.1-.1-1.5-.3-.6-.5-.8-.9-.2-.9-.2-1.6.1-1.2.2-1.6c.2-.4.4-.7.8-.9s.9-.3 1.5-.3zm0 1c-.3 0-.5.1-.7.2s-.3.3-.4.5-.1.6-.1 1.1 0 .8.1 1.1c.1.2.2.4.4.5s.4.1.7.1.6-.1.7-.1c.2-.1.3-.3.4-.5s.1-.6.1-1.1 0-.8-.1-1.1c-.1-.2-.2-.4-.4-.5-.1-.2-.3-.2-.7-.2zm4.8-.9l.1 1 .1.1v4h-1.3v-5.1h1.1zm2.1-.1c.4 0 .8.1 1 .4a1.6 1.6 0 0 1 .4 1.1V27h-1.2v-3.5c0-.3-.1-.5-.2-.6s-.3-.2-.5-.2c-.1 0-.3 0-.4.1-.1 0-.3.1-.5.2s-.4.2-.6.4l-.1-.8c.4-.3.7-.6 1-.7.4-.1.7-.2 1.1-.2zm3.3 0c.5 0 .8.1 1 .4.2.2.4.6.4 1v3.8h-1.3v-3.5c0-.3-.1-.4-.2-.6-.1-.1-.3-.2-.5-.2-.1 0-.3 0-.4.1-.1 0-.3.1-.5.2s-.4.2-.6.4l-.1-.8c.4-.3.7-.6 1-.7.4 0 .8-.1 1.2-.1zm3.7-2.1c.2 0 .4.1.4.4v.6c0 .2-.1.4-.4.4h-.6c-.2 0-.4-.1-.4-.4V20c0-.2.1-.4.4-.4h.6zm.4 2.2V27h-1.3v-5.1h1.3z"/><use href="#AP" x="35.4"/><path d="M335.3 21.7h.8a2.2 2.2 0 0 1 .8.1c.3 0 .5.1.7.1l-.1.8h-1-1-.7c-.2 0-.3.1-.3.1-.1.1-.1.2-.1.4s.1.3.2.4.3.1.5.2l1.4.3c.4.1.7.3.9.5s.3.5.3 1c0 .4-.1.7-.2 1-.2.2-.4.4-.7.4-.3.1-.8.1-1.3.1h-.9c-.4 0-.8-.1-1.3-.1l.1-.8h.5.6.7.9c.2 0 .3-.1.4-.2s.1-.2.1-.4-.1-.3-.2-.4-.3-.1-.6-.2l-1.4-.3c-.3-.1-.6-.2-.7-.3-.2-.1-.3-.3-.4-.5s-.1-.4-.1-.7a2 2 0 0 1 .2-.9c.1-.2.4-.4.7-.4.3-.2.7-.2 1.2-.2z"/></g><path d="M365.4 42.5H460v12.2h-94l-.6-12.2z" class="V"/><path d="M294 237.8h9.6v-43.9H294v43.9z" class="R"/><g class="T"><path d="M246.1 237.9h9.6v-57.4h-9.6v57.4z"/><use href="#AC" x="124.3" y="-70.8"/></g><g class="S"><path d="M255.7 237.8h9.6v-50h-9.6v50z"/><use href="#AD" x="133.9" y="-70.8"/><use href="#AD" x="114.8" y="-70.8"/></g><path d="M313.1 237.8h9.6v-38h-9.6v38zm19.2 0h9.6v-50h-9.6v50zm-95.8.1h9.6V194h-9.6v43.9z" class="R"/><path d="M274.8 237.8h9.6v-33.9h-9.6v33.9z" class="S"/><path d="M265.2 237.8h9.6v-56.7h-9.6v56.7z" class="R"/><path d="M213.5 234.7l9.1 3 14.9-47.6-9.1-3-14.9 47.6z" class="S"/><path d="M247.3 236.4h7.2V228h-7.2v8.4z" class="R"/><path d="M266.6 186.1h7.3v-2h-7.3v2zm0 3.3h7.3v-2h-7.3v2z" class="S"/><path d="M256.5 193.6h8v-1h-8v1z" class="U"/><path d="M337.1 198.8c2 0 3.5-1.6 3.5-3.5v-5.4h-7.1v5.4c.1 2 1.7 3.5 3.6 3.5zM304.5 187h8.1v-1.1h-8.1v1.1zm9.4 49.8h8.1v-1.7h-8.1v1.7z" class="T"/><path d="M313.9 234.5h8.1v-1.7h-8.1v1.7zm4.1-3.3c1.9 0 3.5-1.6 3.5-3.5s-1.6-3.5-3.5-3.5-3.5 1.6-3.5 3.5c0 2 1.6 3.5 3.5 3.5z" class="U"/><path d="M324 217.8h7.1V201H324v16.8z" class="R"/><g class="U"><path d="M295.1 199.1h7.5v-1.7h-7.5v1.7zm-.1 8.7h7.5v-1.7H295v1.7z"/><use href="#AE" x="134" y="-70.8"/></g><g class="R"><use href="#B" x="-93.9"/><use href="#B" x="-143.1"/></g><use href="#C" x="-93.9" class="S"/><use href="#D" x="-93.9" class="T"/><use href="#E" x="-93.9" class="S"/><g class="R"><use href="#F" x="-93.9"/><use href="#B" x="-116.7"/></g><g class="S"><use href="#G" x="-93.9"/><path d="M431 209.5h6.3v-1.8H431v1.8zm0 1.3h6.3v-.7H431v.7z"/><use href="#H" x="-116.7" y="31.9"/><use href="#I" x="-94"/><use href="#J" x="-93.9"/><use href="#K" x="-93.9"/><use href="#K" x="-93.9" y="1.3"/><use href="#K" x="-93.9" y="2.7"/></g><g class="U"><use href="#L" x="-94"/><use href="#M" x="-94"/></g><g class="R"><use href="#N" x="-94"/><use href="#O" x="-93.9"/><path d="M374.1 207.3h6.7v-1h-6.7v1zm0-1.4h6.7v-1h-6.7v1zm2.7 7.8h1.4a2.7 2.7 0 0 0 2.7-2.7v-3.4h-6.7v3.4c-.1 1.5 1.1 2.7 2.6 2.7z"/></g><path d="M460,54.7h-18.9v257.5H460V54.7z" class="V"/><g class="W"><use href="#P" x="-94"/><use href="#Q" x="-94"/><use href="#R" x="-94"/><path d="M210.1 31.3v280.4h135.2V31.3H210.1zm131.8 276.8H213.6V34.6H342v273.5z"/></g><path d="M366,31.3h-20.6v280.5H366V31.3z" class="V"/><path d="M343.8 97.2H211.7v7.7h132.1v-7.7zm0 70.3H211.7v7.7h132.1v-7.7zm0 70.3H211.7v7.7h132.1v-7.7zM366 54.7v3h72v250.9h-72v3.4h75.1V54.7H366z" class="W"/><g class="R"><use href="#AQ"/><use href="#AQ" x="61.7"/></g><path d="M232.6,40.9h-9.5v56.3h9.5V40.9z" class="S"/><use href="#AR" class="T"/><use href="#AR" x="90.3" class="R"/><use href="#AQ" x="118.8" class="T"/><g class="S"><use href="#AM" x="195.7" y="-0.5"/><use href="#AM" x="224.3" y="-0.5"/></g><path d="M303.9,40.9h-9.5v56.3h9.5V40.9z" class="R"/><use href="#AR" x="71.3" class="T"/><use href="#AQ" x="28.5" class="R"/><path d="M275.5 94.2l-9.1 3L251.6 50l9.1-3 14.8 47.2zm-53.2-42.6h-8v2.2h8v-2.2zm0 2.9h-8v.9h8v-.9zm28.6 37.2h-8v2.2h8v-2.2zm0 2.9h-8v.9h8v-.9zm32.6-44.9h-6.9V78h6.9V49.7zm44.7 11.5h-1c-1.1 0-2.1-.9-2.1-2.1 0-1.1.9-2.1 2.1-2.1h1c1.1 0 2.1.9 2.1 2.1 0 1.1-.9 2.1-2.1 2.1z" class="S"/><path d="M241.5 56.7h-8.4v8.8h8.4v-8.8zm0 9.8h-8.4v1.2h8.4v-1.2zM341 94.6h-7.9V96h7.9v-1.4zm0-2.3h-7.9v1.4h7.9v-1.4zm0-8.7h-7.9v7.5h7.9v-7.5z" class="U"/><path d="M308.8 79.6h-.3a3.8 3.8 0 0 1 0-7.6h.3a3.8 3.8 0 0 1 3.8 3.8c-.1 2.1-1.7 3.8-3.8 3.8zm-77.2 12.1h-7.7V96h7.7v-4.3zm29.9-39.9l-7.8 2.5.5 1.6 7.8-2.5-.5-1.6zm32.2-2.1h-8.4V51h8.4v-1.3zm-4.2 9.4c-2.3 0-4.2-1.9-4.2-4.2v-3.4h8.4v3.4c0 2.3-1.9 4.2-4.2 4.2z" class="R"/><g class="T"><use href="#AS"/><use href="#AS" x="47.5"/></g><use href="#AS" x="9.5" class="R"/><path d="M299.1,117.9h-9.5v49.6h9.5V117.9z" class="T"/><path d="M232.5 114.5H223v53h9.5v-53zm19.1 0H242v53h9.5v-53z" class="S"/><g class="R"><path d="M242 111.2h-9.5v56.3h9.5v-56.3zm-19 6.7h-9.5v49.6h9.5v-49.6z"/><use href="#AS" x="57"/></g><use href="#AM" x="181.4" y="69.8" class="S"/><path d="M289.5,111.2H280v56.3h9.5V111.2z" class="R"/><g class="S"><use href="#AN" x="133.8" y="69.8"/><path d="M307.5 126.4h-7.2v8.3h7.2v-8.3zm-19.3-12.2H281v2h7.3v-2zm0 3.4H281v2h7.3v-2z"/></g><path d="M298.3 122.7h-8v1h8v-1z" class="U"/><path d="M218.2 128.9c-1.9 0-3.5-1.6-3.5-3.5V120h7v5.4c.1 1.9-1.5 3.5-3.5 3.5zm32.5-12.9h-8.1v1.1h8.1V116zm-9.4 48.9h-8v1.7h8v-1.7zm0-2.3h-8v1.7h8v-1.7zm-4.1-1.5c-1.9 0-3.5-1.6-3.5-3.5s1.6-3.5 3.5-3.5 3.5 1.6 3.5 3.5-1.5 3.5-3.5 3.5z" class="T"/><path d="M231.3,131h-7v16.7h7V131z" class="R"/><path d="M260 127.4h-7.5v1.7h7.5v-1.7zm.1 8.7h-7.5v1.7h7.5v-1.7zm55.7-5h-5.2c-.7 0-1.3-.6-1.3-1.3s.6-1.3 1.3-1.3h5.2c.7 0 1.3.6 1.3 1.3s-.6 1.3-1.3 1.3z" class="U"/><use href="#S" x="-93.9" class="R"/><g class="T"><use href="#T" x="-93.9"/><use href="#S" x="-86.8"/></g><g class="S"><use href="#U" x="-93.9"/><use href="#V" x="-93.9"/></g><use href="#S" x="-51.7" class="R"/><use href="#W" x="-93.9" class="S"/><path d="M400,138h-7v41.6h7V138z" class="R"/><use href="#X" x="-93.9" class="S"/><path d="M413.2 172.5h-5.3v6.1h5.3v-6.1z" class="R"/><g class="S"><use href="#Y" x="-93.9"/><use href="#Y" x="-93.9" y="2.5"/></g><use href="#Z" x="-93.9" class="U"/><path d="M371.3 141.6H366v.8h5.3v-.8z" class="T"/><g class="U"><use href="#a" x="-93.9"/><use href="#b" x="-93.9"/><use href="#c" x="-93.9"/></g><use href="#d" x="-93.9" class="T"/><g class="R"><use href="#e" x="-94"/><use href="#d" x="-101.4"/></g><use href="#f" x="-93.9" class="T"/><g class="S"><use href="#g" x="-93.9"/><use href="#g" x="-108.8"/></g><g class="R"><path d="M416 308.7h7.4v-44H416v44z"/><use href="#f" x="-34.5"/></g><use href="#g" x="-131" class="S"/><use href="#h" x="-93.9" class="R"/><g class="S"><path d="M366 283.1h4.6v-6.5H366v6.5z"/><use href="#i" x="-94"/><use href="#i" x="-94" y="2.6"/></g><path d="M372.1 274.5h6.2v-.8h-6.2v.8z" class="U"/><g class="T"><path d="M434.7 278.6a2.7 2.7 0 0 0 2.7-2.7v-4.2h-5.5v4.2c0 1.4 1.2 2.7 2.8 2.7z"/><use href="#I" x="-92.9" y="26.5"/><use href="#k" x="-93.9"/><use href="#l" x="-93.9"/><use href="#m" x="-93.9"/></g><use href="#n" x="-93.9" class="R"/><path d="M402 278.8h5.9v-1.3H402v1.3zm0 6.7h5.9v-1.3H402v1.3z" class="U"/><path d="M259.4,267.5h-9.2v40.6h9.2V267.5z" class="R"/><path d="M332.8 267.5h-9.2v40.6h9.2v-40.6zm-27.6-1.5H296v42.1h9.2V266z" class="T"/><path d="M268.6,266h-9.2v42.1h9.2V266z" class="S"/><path d="M296.1,271.7h-9.2v36.4h9.2V271.7z" class="R"/><path d="M231.9 253.2h-9.2v55h9.2v-55z" class="T"/><path d="M323.6 253.2h-9.2v55h9.2v-55z" class="R"/><path d="M250.2 257H241v51.1h9.2V257z" class="T"/><path d="M241.1,270.4h-9.2v37.7h9.2V270.4z" class="R"/><path d="M222.7 260.3h-9.2v47.8h9.2v-47.8zm119.2 0h-9.2v47.8h9.2v-47.8zm-27.5-1.7h-9.2v49.5h9.2v-49.5z" class="S"/><path d="M277.7,257h-9.2v51.1h9.2V257z" class="T"/><g class="S"><path d="M286.9 253.8h-9.2v54.3h9.2v-54.3zm17.3 14.7h-6.9v8h6.9v-8z"/><path d="M285.6 256.7h-7v1.9h7v-1.9zm0 3.3h-7v1.9h7V260z"/></g><g class="T"><path d="M218.1 270.9c-1.9 0-3.4-1.5-3.4-3.4v-5.2h6.8v5.2c0 1.9-1.5 3.4-3.4 3.4zm31.3-12.4h-7.8v1.1h7.8v-1.1z"/><use href="#AF" x="133.9" y="140.2"/><use href="#AF" x="133.9" y="138"/><path d="M236.4 301.9c-1.8 0-3.3-1.5-3.3-3.3s1.5-3.3 3.3-3.3 3.3 1.5 3.3 3.3c.1 1.8-1.4 3.3-3.3 3.3z"/></g><path d="M230.7,272.9h-6.8V289h6.8V272.9z" class="R"/><g class="U"><use href="#AG" x="133.9" y="140.2"/><use href="#AG" x="134" y="148.5"/><path d="M312.2 263.3h-5.1c-.7 0-1.3-.6-1.3-1.2s.6-1.2 1.3-1.2h5.1c.7 0 1.3.6 1.3 1.2s-.6 1.2-1.3 1.2zM276.7 301h-7.1v6.2h7.1V301z"/></g><g class="R"><path d="M295.2 305h-7.5v1.4h7.5V305zm45.5-24h-6.6v2.1h6.6V281z"/><use href="#AH" x="134" y="143.7"/><path d="M392.1 115.1h9.2V74.5h-9.2v40.6z"/></g><use href="#o" x="-93.9" class="S"/><g class="T"><use href="#p" x="-93.9"/><use href="#q" x="-94"/></g><use href="#r" x="-93.9" class="R"/><use href="#s" x="-93.9" class="S"/><use href="#t" x="-93.9" class="T"/><path d="M366 115.1h7.8V60.9H366v54.2z" class="S"/><path d="M366 65.7h6.9v-1.9H366v1.9zm0 3.2h6.9V67H366v1.9z" class="R"/><g class="T"><path d="M433.4 77.9c1.9 0 3.4-1.5 3.4-3.4v-5.2H430v5.2c0 1.9 1.5 3.4 3.4 3.4zm-31.3-11.3h7.8v-1.1h-7.8v1.1z"/><use href="#u" x="-93.9"/><use href="#u" x="-93.9" y="-2.2"/><path d="M415 108.9c1.8 0 3.3-1.5 3.3-3.3s-1.5-3.3-3.3-3.3-3.3 1.5-3.3 3.3 1.5 3.3 3.3 3.3z"/></g><use href="#w" x="-93.9" class="R"/><g class="U"><use href="#x" x="-94"/><path d="M393 86.5h7.2v-1.7H393v1.7z"/><use href="#y" x="-94"/></g><path d="M378.7 45.5h1 1a3.4 3.4 0 0 1 1 .1l-.1.9H379c-.2 0-.3 0-.4.1s-.1.2-.1.4v3.6c0 .2 0 .3.1.4s.2.1.4.1h2.6l.1.9c-.3 0-.6 0-1 .1h-1-1c-.4 0-.7-.1-1-.3s-.4-.5-.4-.9v-4.2c0-.4.1-.7.4-.9.2-.2.6-.3 1-.3zm-1.2 2.8h3.8v.9h-3.8v-.9zm8.2-.8v.8h-3.4v-.8h.9 2.5 0zm-1.4-1.4v4.6c0 .2 0 .3.1.4s.2.1.4.1h.7l.1.8c-.1 0-.2.1-.4.1s-.3 0-.5.1h-.4c-.4 0-.7-.1-1-.3-.2-.2-.3-.5-.3-1V46h1.3zm3.4-.7v1.7.7c0 .2-.1.4-.1.5l.1.1v3.7h-1.2v-6.7h1.2zm2 1.9a1.1 1.1 0 0 1 1.3 1.3v3.5h-1.2V49c0-.3 0-.4-.1-.5s-.2-.1-.4-.1-.5.1-.7.2-.6.3-.9.5l-.1-.7c.4-.3.7-.5 1.1-.7.3-.3.6-.4 1-.4zm3.5-1.9c.2 0 .3.1.3.3v.5c0 .2-.1.3-.3.3h-.5c-.2 0-.3-.1-.3-.3v-.5c0-.2.1-.3.3-.3h.5zm.3 2.1v4.7h-1.2v-4.7h1.2zm3.5-.2h.5c.2 0 .4 0 .6.1.2 0 .4.1.5.2l-.1.7h-.7-.6c-.3 0-.6 0-.8.1s-.3.2-.4.5c-.1.2-.1.5-.1.9s0 .7.1.9.2.4.4.5.4.1.8.1h.4.5c.2 0 .4 0 .5-.1l.1.8c-.2.1-.5.2-.8.2s-.6.1-.9.1c-.6 0-1-.1-1.4-.2-.3-.2-.6-.4-.7-.8-.2-.4-.2-.8-.2-1.5s.1-1.1.2-1.5c.2-.4.4-.6.7-.8.3-.1.8-.2 1.4-.2zm4.3 0h.7c.3 0 .5 0 .7.1.2 0 .5.1.7.1l-.1.8h-.9-.9-.6c-.2 0-.3.1-.3.1-.1.1-.1.2-.1.3 0 .2.1.3.2.4s.3.1.5.2l1.3.3c.4.1.7.2.9.4s.3.5.3.9a2 2 0 0 1-.2.9c-.1.2-.4.3-.7.4s-.7.1-1.2.1h-.8c-.4 0-.8-.1-1.2-.1l.1-.8h.5.6.6.8c.2 0 .3-.1.4-.1.1-.1.1-.2.1-.3 0-.2-.1-.3-.2-.4s-.3-.1-.5-.2l-1.3-.3c-.3-.1-.5-.2-.7-.3s-.3-.3-.3-.4-.1-.4-.1-.7.1-.6.2-.8.3-.3.6-.4c.1-.1.5-.2.9-.2z" class="X"/><path d="M210.7 13.6v20.8" fill="none" stroke="#699ff0" stroke-width="5.21" stroke-miterlimit="10"/><path d="M277.4 194.4s104.6 10.7 119.5 21.9c17.4 13.1-1.7 155.7-1.7 155.7s-30.5 1-32.9-7.1c0 0 5.5-74.7.7-87.6s-1.8-30.8-1.8-30.8-59.6 9.1-78.5 4.6c-19-4.5-5.3-56.7-5.3-56.7z" fill="#032344"/><path d="M388.7 363.8s-6.7 17.9-5.3 24.6-.9 19.6 1.9 25.3c2.7 5.8 7.6 14.1 2.9 16.3-1.8.8-22.4-15.2-23.6-19.9s-2.1-18.6-6-26.2-.6-13.6 5.1-16.4 13.7-18 13.7-18l11.3 14.3z" fill="#050607"/><path d="M309.5 441.5h34.1l-55.7-175.3c-.9-2.7-2.4-4.8-4.5-6.4s-4.6-2.4-7.5-2.4h-32.5c-2.8 0-5.4.8-7.6 2.4s-3.7 3.7-4.4 6.4l-55.7 175.3h34.1l15.5-52.5h68.6l15.6 52.5zM233 362.8l18.6-63.2 2.4-8.5 1.9-8.3h7.5l1.9 8.3 2.1 8.5 18.8 63.2H233zm447-166.9h-46.9l-45.8 96.7c-1.9 4.5-3.7 9.4-5.4 14.7l-4.7 15h-2.9c-1.7-4.8-3.3-9.8-4.8-15-1.6-5.2-3.4-10.1-5.6-14.7l-45.8-96.7h-46.9l82 162.7V443H598v-83.8l82-163.3zM64.4 406c-6.7 0-11.6-1.7-14.9-5s-4.8-8.6-4.8-15.8v-56.6h102.8v-33H44.7v-45.1c0-7.2 1.6-12.4 4.8-15.8 3.2-3.3 8.2-5 14.9-5h96.7l2.2-33.3c-11.2-1-23.2-1.7-35.8-2.1-12.7-.5-25.5-.7-38.5-.7H50.9c-15.3 0-27.5 4.2-36.7 12.7-9.3 8.5-14 19.9-14.2 34.2v154.8c.2 14.3 5 25.7 14.1 34.2 9.2 8.5 21.4 12.7 36.7 12.7l38.1-.2 38.5-.7c12.6-.4 24.6-1 35.8-2L161 406H64.4zM422 253.9c9.1.2 18.6.7 28.7 1.6 10 .9 19.9 2.6 29.5 5.1l-2.1 22.7-26.5-.7a963.5 963.5 0 0 0-28.9-.4c-5.7 0-10.5.2-14.5.5-4 .4-7.2 1.2-9.7 2.7-2.5 1.4-4.3 3.6-5.5 6.5s-1.7 7-1.7 12.1c0 8 1.6 13.7 4.9 17.1s8.7 6 16.1 8l36.3 10.7c14.6 4.4 24.6 10.9 30.1 19.3s8.3 19.7 8.3 33.7c0 10.5-1.2 19.1-3.7 25.9s-6.3 12-11.5 15.7-11.9 6.4-20.3 8-18.4 2.4-30.1 2.4c-6 0-14.4-.4-24.9-1.1-10.6-.7-22.6-2.5-36.1-5.3l2.1-24 26.4.9c7.1.3 13.2.4 18.4.4h14.4c8.2 0 14.6-.5 19.2-1.6s7.9-3.3 9.7-6.7c1.9-3.4 2.8-8.3 2.8-14.7 0-5.5-.7-9.8-2-12.9a14.9 14.9 0 0 0-6.5-7.3c-3-1.8-6.9-3.3-11.7-4.5l-37.6-11.5c-13.9-4.3-23.6-10.6-29.2-18.9S358 318 358 304c0-10.5 1.2-19.1 3.7-25.7 2.5-6.7 6.3-11.7 11.5-15.2s11.8-5.9 19.9-7.2c7.8-1.3 17.5-2 28.9-2z" class="X"/><path d="M249.9 112.1c0 .1 16.7 38.6 24.8 42.6 8.1 4.1 37.4 37.6 43.7 37s-7.3 5.1-7.3 5.1l-54.2-24.9c-3-1.5-18.7-27.2-20.9-40.2s13.9-19.6 13.9-19.6z" class="Y"/><path d="M408.7 393.4s6.5 18 11.8 22.2c5.4 4.2 12 15.5 17.8 18.1s14.9 5.9 12.7 10.5c-.8 1.8-26.9 2.8-30.9 0s-13.6-12.9-21.5-16.1-9.3-10-6.7-15.8-1.2-22.6-1.2-22.6l18 3.7z" fill="#050607"/><path d="M225.7 10.5C218.2 4.1 206.5 4 206.5 4c-25.7-14.9-40.4 15.3-42.6 25.8-2.1 10.5-3.6 22-18.4 32.7-42.8 31.1 27 49.5 27 49.5 8-31.1 45.9-19.8 43.5-17 45.3 22.9 26.6-69.9 9.7-84.5z" class="Z"/><path d="M228.2 200s122.2 12.1 132.9 24.5c10.8 12.4 53.4 174.3 53.4 174.3s-12.4 7-23.8.5c0 0-32.5-54.9-46.8-72.1s-19.8-70.5-22.2-71-78.9 10.9-105.3-9.2c-26.3-20.2 11.8-47 11.8-47z" fill="#05387d"/><path d="M159.9 89.4S189 76.3 226 82.2c7.6 1.2 14.4 3.7 19.8 12.5C253.4 107.2 257 114 257 114s-.7 5.8-11.1 10.5c2.9 10.4-2.5 28.6 2.5 35.6s36.1 24.4 37.7 34.2c2.9 17.9-52.9 50.4-69.6 47-48-9.9-80.9-138.1-56.6-151.9z" class="X"/><path d="M176.3 52.6s-5.8-11.3-6.6-20.5c-.6-6.6 5-30.4 28.9-24.7a32.5 32.5 0 0 0 13.2 6.4c4.9 4 11.8 12.4 1.4 32.7l-2.9 6.9-34-.8z" class="Z"/><path d="M209.2 90.6c2.4 2.5 1.5 11-9.8 10.4-7.4-.4-23.4-9.5-21.9-15.9.7-3 6.4-10.8 7.7-28.7l1.4.4 22.7 6.3s-1.1 7.2-1.6 14c-.6 5.7.5 12.4 1.5 13.5z" class="Y"/><path d="M209.2 63s-1.1 7.2-1.6 14c-12.9-1.3-18.8-13.6-21.1-20.3l22.7 6.3z" fill="#f4a269"/><path d="M209.7 73.5s-29.7-7.4-24.8-25.8 4.3-31.8 23.5-27.8c19.2 3.9 21 11.9 20.8 18.5-.1 6.5-11.7 36.6-19.5 35.1z" class="Y"/><g class="Z"><path d="M222 23s-9.9 19-28.7 21.1c-11 1.2-14 8.5-14 8.5s3.2-20.7 8.7-33.4c0 0 30.6-8.1 34 3.8z"/><path d="M218.6 25.5s6.5 6.6 8.5 11.3c3 6.9-2.8 21.5-5.1 24.7 0 0 13.7-23.5 9.1-33.6-5-10.7-12.5-2.4-12.5-2.4z"/></g><path d="M310.3 191.8l5 7.9c3.4 2.6 8.5 2.7 10.7 3.8s2.1-.4.7-2c-1.5-1.6-5.8-2-4-2.1 1.8 0 11.5.3 14.8 2 5.2 2.7 10 2 10.5 1.5s-11.1-9.8-14.9-10.4-14.4-3.5-14.4-3.5l-8.4 2.8zm-114-6.4s5.9-3.9 8.3-6 16.2-3.9 16.2-2.5-8.1 3.3-8.9 4.7c-.9 1.4-5.8 7.2-10 7.2-4.2.1-5.6-3.4-5.6-3.4z" class="Y"/><path d="M276.1 138.3l-52 9.4c-1.5.3-2.9 1.4-3.4 2.8l-16.5 47.7c-.7 2.1.9 3.7 3.2 3.1l51.4-12.3c1.4-.3 2.6-1.4 3.1-2.7l17-44.8c.9-2-.6-3.6-2.8-3.2z" fill="#233862"/><path d="M280.6 137.4l-52 9.4c-1.5.3-2.9 1.4-3.4 2.8l-16.5 47.7c-.7 2.1.9 3.7 3.2 3.1l51.4-12.3c1.4-.3 2.6-1.4 3.1-2.7l17-44.8c.9-1.9-.6-3.6-2.8-3.2z" fill="#2a4e96"/><path d="M252.9 165.2c.6-1.7-.4-2.7-2.1-2.2s-3.6 2.2-4.2 3.9.4 2.7 2.1 2.2c1.7-.4 3.6-2.2 4.2-3.9zm26.3-23.3c.3-.8-.2-1.3-1-1.1-.9.2-1.8 1.1-2 1.9-.3.8.2 1.3 1 1.1s1.8-1.1 2-1.9z" class="U"/><g class="Y"><path d="M204.6 193.5s10.7.1 13.4-.5 9.6-9.2 7.7-11.3c-1.2-1.3-7.6 1.1-10.6 1.1-3.1 0-11-4.4-16.4 4.7-.6.9 5.9 6 5.9 6z"/><path d="M149.9 101s-36.6 83.2-26.3 95.4c10.2 12.1 81-2.9 81-2.9l-2.2-7.7-55.9-4.1c-5.3-1.5 26.2-59.9 26.2-59.9L149.9 101z"/></g><path d="M163.6 88c-.9 0-11.9 3.7-19.7 19.3-7.7 15.4-10.5 22.8-10.5 22.8s34.5 26.6 48.2 16.7c13.6-9.7-5.4-59.1-18-58.8z" fill="#1f77e4"/><defs ><path id="B" d="M524.3 244.1h7.6v-39.5h-7.6v39.5z"/><path id="C" d="M516.7 244.1h7.6v-44.8h-7.6v44.8z"/><path id="D" d="M509.1 244.1h7.6v-34.8h-7.6v34.8z"/><path id="E" d="M467.5 244.1h7.6v-42.3h-7.6v42.3z"/><path id="F" d="M459.7 244.1h7.8v-44.8h-7.8v44.8z"/><path id="G" d="M482.7 241.7l7.2 2.4 11.6-37c.1-.3-.1-.7-.4-.8l-6-2c-.3-.1-.7.1-.8.4l-11.6 37z"/><path id="H" d="M524.9 209.5h6.3v-1.8h-6.3v1.8z"/><path id="I" d="M502.2 242.8h6.3v-.8h-6.3v.8z"/><path id="J" d="M476.1 228.8h5.5v-22.5h-5.5v22.5z"/><path id="K" d="M460.7 202.6h6.1v-.7h-6.1v.7z"/><path id="L" d="M509.6 218.9h6.7v-7h-6.7v7z"/><path id="M" d="M509.6 220.6h6.7v-.9h-6.7v.9z"/><path id="N" d="M517.5 243.1h6.2v-3.4h-6.2v3.4z"/><path id="O" d="M493.3 209.2l6.2 2 .4-1.3-6.2-2-.4 1.3z"/><path id="P" d="M533.6 115.2h-84v7h84v-7z"/><path id="Q" d="M533.6 179.4h-84v7.2h84v-7.2z"/><path id="R" d="M533.6,244h-84v7.1h84V244z"/><path id="S" d="M472.8,147.4h-7v32.2h7V147.4z"/><path id="T" d="M508,137.5h-7v42.1h7V137.5z"/><path id="U" d="M500.9,142.9h-7v36.7h7V142.9z"/><path id="V" d="M465.8,140.4h-6v39.2h6V140.4z"/><path id="W" d="M486.9,154.7h-7v24.9h7V154.7z"/><path id="X" d="M531.9 177.4l-6.7 2.2-10.9-34.9 6.7-2.2 10.9 34.9z"/><path id="Y" d="M492.9 140.2h-5.4v1.5h5.4v-1.5z"/><path id="Z" d="M500.3 146.5h-5.9v.7h5.9v-.7z"/><path id="a" d="M472,150h-5.5v1.3h5.5V150z"/><path id="b" d="M472.1 156.4h-5.5v1.3h5.5v-1.3z"/><path id="c" d="M513.3 152.7h-3.9a1 1 0 1 1 0-2h3.9a1 1 0 0 1 1 1c0 .5-.5 1-1 1z"/><path id="d" d="M495.1 308.7h7.4v-34.1h-7.4v34.1z"/><path id="e" d="M459.9 308.7h5.5v-34.1h-5.5v34.1z"/><path id="f" d="M465.4 308.7h7.4V270h-7.4v38.7z"/><path id="g" d="M517.4 308.7h7.4v-41.5h-7.4v41.5z"/><path id="h" d="M472.8 308.7h7.4v-44h-7.4v44z"/><path id="i" d="M473.9 268.6h5.7v-1.5h-5.7v1.5z"/><path id="j" d="M528.6 278.6a2.7 2.7 0 0 0 2.7-2.7v-4.2h-5.5v4.2c0 1.4 1.3 2.7 2.8 2.7z"/><path id="k" d="M510.6,308h6.3v-1.3h-6.3V308z"/><path id="l" d="M510.6 306.2h6.3v-1.3h-6.3v1.3z"/><path id="m" d="M513.7 303.7a2.7 2.7 0 1 0 0-5.4 2.7 2.7 0 0 0 0 5.4z"/><path id="n" d="M518.4 293.3h5.5v-13h-5.5v13z"/><path id="o" d="M476.8 115.1h9.2v-42h-9.2v42z"/><path id="p" d="M513.5 115.2h9.2v-55h-9.2v55z"/><path id="q" d="M495.2 115.2h9.2V64h-9.2v51.2z"/><path id="r" d="M504.3 115.1h9.2V77.5h-9.2v37.6z"/><path id="s" d="M522.7 115.1h9.2V67.3h-9.2v47.8z"/><path id="t" d="M467.7 115.1h9.2V64h-9.2v51.1z"/><path id="u" d="M505.1 114.3h7.7v-1.7h-7.7v1.7z"/><path id="v" d="M509 108.9c1.8 0 3.3-1.5 3.3-3.3s-1.5-3.3-3.3-3.3-3.3 1.5-3.3 3.3c-.1 1.8 1.4 3.3 3.3 3.3z"/><path id="w" d="M514.7,96.1h6.8V80h-6.8V96.1z"/><path id="x" d="M487.1 78.2h7.2v-1.7h-7.2v1.7z"/><path id="y" d="M468.8 114.3h7.1V108h-7.1v6.3z"/><path id="z" d="M479.7 48.3v3.2c0 .2 0 .4.1.5s.3.2.5.2.4 0 .7-.1c.2-.1.5-.2.8-.4l.1.7-1 .7c-.3.1-.7.2-1 .2a1.1 1.1 0 0 1-1.3-1.3v-3.6h1.1zm3.2 0V53h-.9l-.1-.9-.1-.1v-3.7h1.1z"/><path id="AA" d="M496.3 50.1v.7h-2.2c-.2 0-.3.1-.4.2s-.1.2-.1.4v.3c0 .2.1.3.2.4s.3.1.5.1.4 0 .6-.1l.6-.3c.2-.1.4-.3.6-.5v.6l-.3.3-.4.4-.6.3c-.2.1-.5.1-.8.1s-.5-.1-.8-.1c-.2-.1-.4-.2-.5-.4s-.2-.4-.2-.7v-.5c0-.4.1-.7.4-.9.2-.2.6-.3 1-.3h2.4 0zm-1.3-1.9c.4 0 .7.1 1 .1.3.1.5.3.6.5s.2.6.2 1V53h-.9l-.2-1-.1-.1v-2.1c0-.2-.1-.4-.2-.5s-.3-.2-.7-.2h-.9c-.4 0-.7 0-1.1.1l-.1-.8c.2 0 .5-.1.8-.1s.6-.1.9-.1h.7z"/><path id="AB" d="M544.3 48.2c.8 0 1.3.1 1.6.4s.5.7.5 1.2c0 .4-.1.8-.3 1s-.6.3-1 .3h-2.7v-.7h2.4c.2 0 .4-.1.4-.2.1-.1.1-.3.1-.4 0-.3-.1-.4-.2-.5s-.4-.2-.7-.2-.5 0-.7.1-.3.2-.4.5c-.1.2-.1.5-.1.9s0 .8.1 1 .2.4.4.5.4.1.8.1h.8c.3 0 .6 0 .9-.1l.1.7c-.2.1-.4.1-.6.2-.2 0-.5.1-.7.1h-.7a2.9 2.9 0 0 1-1.4-.3c-.4-.2-.6-.4-.8-.8s-.2-.8-.2-1.4.1-1.1.2-1.5c.2-.4.4-.6.8-.8.4-.1.8-.1 1.4-.1z"/><path id="AC" d="M160.1 308.6h9.6v-43.9h-9.6v43.9z"/><path id="AD" d="M188.8 308.6h9.6v-53.4h-9.6v53.4z"/><path id="AE" d="M104.9 271.8h5.3c.7 0 1.3-.6 1.3-1.3s-.6-1.3-1.3-1.3h-5.3c-.7 0-1.3.6-1.3 1.3s.6 1.3 1.3 1.3z"/><path id="AF" d="M106.4 165.4h-7.7v1.7h7.7v-1.7z"/><path id="AG" d="M124.4 129.3h-7.2v1.7h7.2v-1.7z"/><path id="AH" d="M206.7 140.8h-6.6v2.1h6.6v-2.1z"/><path id="AI" d="M198.5 238.3h9.5v-49.6h-9.5v49.6z"/><path id="AJ" d="M179.4 238.3h9.5v-43.6h-9.5v43.6z"/><path id="AK" d="M118.6 186.2h7.7v-.9h-7.7v.9z"/><path id="AL" d="M127.2,54.1h-9.5v43.6h9.5V54.1z"/><path id="AM" d="M98.6 44.7h-9.5v53h9.5v-53z"/><path id="AN" d="M207.1 94.7l-9.1 3-14.8-47.2 9.1-3 14.8 47.2z"/><path id="AO" d="M145.9 22.5a5.2 5.2 0 0 1 1.4.2c.3.2.6.4.7.8.2.4.2.8.2 1.5s-.1 1.1-.2 1.4c-.2.4-.4.6-.7.8s-.8.2-1.4.2-1-.1-1.4-.2c-.3-.2-.6-.4-.7-.8-.2-.4-.2-.8-.2-1.4s.1-1.1.2-1.5c.2-.4.4-.6.7-.8.4-.1.8-.2 1.4-.2zm0 .9c-.3 0-.5 0-.7.1s-.3.3-.4.5-.1.6-.1 1 0 .7.1 1c.1.2.2.4.4.5s.4.1.7.1.5 0 .7-.1.3-.2.4-.5c.1-.2.1-.6.1-1s0-.7-.1-1c-.1-.2-.2-.4-.4-.5s-.4-.1-.7-.1z"/><path id="AP" d="M295.1 21.7h.6c.2 0 .4 0 .6.1.2 0 .4.1.6.2l-.1.8h-.8-.7c-.4 0-.6 0-.8.1s-.4.3-.4.5c-.1.2-.1.6-.1 1s0 .8.1 1 .2.4.4.5.5.1.8.1h.4.6c.2 0 .4 0 .6-.1l.1.8c-.3.1-.6.2-.9.2-.3.1-.7.1-1 .1-.6 0-1.1-.1-1.5-.3s-.6-.5-.8-.8c-.2-.4-.2-.9-.2-1.6s.1-1.2.2-1.6c.2-.4.4-.7.8-.8s.9-.2 1.5-.2z"/><path id="AQ" d="M223.1,47.6h-9.5v49.6h9.5V47.6z"/><path id="AR" d="M242.1,53.6h-9.5v43.6h9.5V53.6z"/><path id="AS" d="M261.1,123.9h-9.5v43.6h9.5V123.9z"/></defs></svg>