<svg xmlns="http://www.w3.org/2000/svg" width="120" height="146" fill="none" xmlns:v="https://vecta.io/nano"><g clip-path="url(#A)"><path d="M55.7 33.93c1.5-6.18-.68-9.06-2.64-10.59-.93-2.28-2-3.92-3.08-4.53-1.98-1.13-4.36-1.25-6.02-1.15.43-.44 1.27-.6 1.27-.6-1.03-.15-3.33.87-3.33.87-14.35-5.53-16.6 15.59-16.3 20.5s.26 10.69-7.2 14.55c-14.24 7.38 4.73 35.18 4.73 35.18-.36-3.97 17.94-24.89 27.48-31.16 2.32-3.42 3.15-9.46 3.21-9.94-.4 4.79-1.22 7.48-1.95 8.99 4.35-4 5-13.62 3.84-22.11z" fill="#1b1c17"/><path d="M50.03 57.3c.05.02-4.61 2.44-8.11 1.48-3.3-.9-5.45-5.17-5.4-5.18 1.4-.28 1.8-2.19 1.77-10.43l.63.12 10.61 2.1s-.24 3.34-.25 6.48c-.01 2.64.15 5.14.76 5.43z" fill="#ffb27d"/><path d="M49.52 45.39l-.25 6.48c-5.94-.17-9.07-5.58-10.36-8.58l10.61 2.1z" fill="#ed975d"/><path d="M92.67 234.21a2.6 2.6 0 0 1-2.36 3.39l-4.14.19-4.38.13c-1.1.03-2.14-.44-2.84-1.3-3.5-4.29-14.27-18.6-20.81-39.39l-.58-1.77c-4.32-12.58-13.26-28.38-17.98-42.67l-2.03-6.45-.56-1.92c-3.47-12.07-4.48-20-5.41-28.47l34.04.27s7.17 55.7 27.04 117.97z" fill="#2a4e96"/><path d="M60.86 96.68c-.09 16.2 2.38 23.15 2.38 23.15s-14.58 7.41-31.9 1.95c-.2-.06-14.34-3.29-14.34-3.29.29-.66 2.87-11.57 3.15-12.17 3.66-7.85 6.43-11.3 6.87-13.71.8-4.51.82-9.17.42-13.57-1.06-11.65-4.2-21.31-4.2-21.31 4.72-1.07 9.14-2.96 14.05-4.8 1.13 1.41 4.58 2.88 7.58 2.81 3.45-.08 4.57-1.55 4.39-3.17a115.6 115.6 0 0 1 6.61 3.98c3.13 5.43 9.46 10.7 9.92 19.03.11 2.05-4.93 20.66-4.93 21.11z" fill="#fff"/><path d="M31.59 98.48c-1.49 2.11-4.34 14.91-11.44 16.52 3.66-9.12 6.43-13.12 6.87-15.93a69.2 69.2 0 0 0 .42-15.76l4.15-7.02c.19-.67 3.78-11.77 4.93-1.85s-3.26 21.69-4.93 24.05z" fill="#5f9aa8"/><path d="M51.5 48.37s-14.04.23-14.05-8.52-1.83-14.61 7.14-15.13 10.71 2.82 11.42 5.74-.86 17.62-4.51 17.9z" fill="#ffb27d"/><g fill="#1b1c17"><path d="M50.98 24.51s-3.84 10.26-9.75 11.78-8.46-.06-8.46-.06 4.53-3.6 5.47-9.87c0 0 9.84-6.73 12.74-1.84z"/><path d="M50.03 25.35s2.87 2.29 3.57 4.52 1.02 6.81 2.35 6.66c0 0 2.9-6.98-.36-10.92-3.45-4.18-5.56-.25-5.56-.25z"/></g><path d="M73.6 107.92l6.63 20.22-3.78 1.52-10.97-17.87 8.12-3.87z" fill="#ffb27d"/><g fill="#0374ff"><path d="M55.72 55.35s7.82 3.1 10.08 7.94 5.69 37.29 7.06 40.62l2.39 5.97s-3.94 3.32-7.91 3.57-11.62-58.11-11.62-58.11z"/><path d="M49.26 52.56s8.12 20.07 8.36 24.13.96 66.42.96 66.42-.48 2.87 5.02 1.67 6.93-2.39 6.93-2.39-5.26-38.47-3.82-51.85-10.99-35.2-10.99-35.2l-6.45-2.79z"/></g><path d="M86.17 237.79l-4.76.15c-.85.03-1.67-.34-2.21-1-3.2-3.87-14.36-18.38-21.06-39.7l-.58-1.77c-4.32-12.58-13.26-28.38-17.98-42.67l-2.03-6.45-.56-1.92 5.01-3.8S57.06 165 61.72 187.93c4.05 19.92 20.26 43.9 24.45 49.86z" fill="#1e3d70"/><path d="M42.53 190.07c.08 10.55-.42 34.07-1.7 45.57-.12 1.05-1.01 1.85-2.07 1.85h-3.55a229.7 229.7 0 0 1-3.36-.02c-.64-.01-1.19-.47-1.32-1.1-3.53-17.97-6.06-32.91-7.91-45.81l-3.98-28.03c-1.07-8.02-1.81-14.74-2.07-20.41a100.2 100.2 0 0 1-.09-2.61l-.01-2.47 29.41-2.87c-.37 19.54-3.39 49.43-3.35 55.91z" fill="#2a4e96"/><path d="M35.21 237.48a235.6 235.6 0 0 1-3.12-.02c-.78-.01-1.45-.57-1.6-1.34-3.51-17.87-6.02-32.73-7.87-45.58l-3.98-28.03c-1.07-8.02-1.81-14.74-2.07-20.41l10.79 6.35s-6.89 2.43-4.26 20.83 8.45 65.6 12.11 68.2z" fill="#1e3d70"/><path d="M36.6 141.93s-2.07 7.49-9.24 6.53S10 143.2 10 143.2l6.87-22.4c4.61-15.39 10.32-35.24 13.01-47.76.75-3.51 1.27-6.44 1.46-8.53l5.95-11.54s8.87 19.9 9.34 24.92-10.04 64.03-10.04 64.03z" fill="#0374ff"/><path d="M29.44 77.14l7.85-24.17c-.02.01-9.91 2.94-14.89 5.46 0 0-3.11 4.01-5.03 13.26 0 0-2.03 22.21 2.51 30.33 0 0 14.34 2.87 37.27-5.02v-5.26l-30.23 1.91 2.52-16.52z" fill="#ffb27d"/><path d="M36.28 88.4c-.32 8.12-2.23 23.89-19.28 32.34-.05.02-.09.05-.14.07 4.61-15.4 10.32-35.24 13.01-47.76 3.13 4.68 6.58 10.89 6.4 15.36z" fill="#0668e1"/><path d="M37.29 52.97s-14.55 1.03-18.05 8.83-4.62 33.77-.16 41.42c0 0 6.14 1.75 17-.28l.4-.08s3.46-8.48.36-10.15c0 0-9.16.48-8.2-2.55s8.66-37.18 8.66-37.18z" fill="#0374ff"/><g fill="#263238"><path d="M73.77 95l-.43 1.38-23.87-7.43s-.32-.36-.16-.84c.17-.53.59-.53.59-.53L73.77 95z"/><path d="M75.5 96.3L73.77 95l-.43 1.38 2.16-.08z"/></g><g fill="#ffb27d"><path d="M79.29 127.59s6.06 3.35 6.85 5.9.25 7.89-.71 7.81-2.4-5.74-3.19-6.14-1.91-1.59-1.91-.72.8 2.47.4 2.71-1.67-2.23-2.55-2.71-1.24-4.42-2.1-5.48 3.21-1.38 3.21-1.38zM57.15 91.75s5.42-3.34 7.69-2.82 8.06 4.71 5.28 5.62-5.04-.04-6.11.61-1.86 1.87-6.85 1.85 0-5.26 0-5.26z"/></g></g><defs><clipPath id="A"><path fill="#fff" d="M0 0h120v146H0z"/></clipPath></defs></svg>