<svg xmlns="http://www.w3.org/2000/svg" width="120" height="146" fill="none" xmlns:v="https://vecta.io/nano"><g clip-path="url(#A)"><path d="M75.87 147.23s2.66 2.77 8.85 4.67c0 0 25.46-32.36 25.29-37.83-.28-8.9-15.24-42.2-19.94-44.84l-7.83 20.11c-1.57-2.87 10.98 20.88 11.01 23.14.05 3.03-15.73 31.04-15.73 31.04" fill="#ffa98f"/><path d="M64.81 248.83l3.29 21.54c-4.32 2.34-19-.23-19-.23s-.49-.57-1.45-6.03c-3.03 3.2-4.17 3.51-4.17 3.51-.59 1.8-13.07-11.15-14.27-12.96-.49-.73 4.06-4.94 11.69-13.58l-3.45-20c-.36-2.25-2.29-13.85-5.81-29.36-3.58-15.81-4.9-31.26-2.85-45.47l.21-1.46.85-5.77.09-.64c.55-.24 1.13-.45 1.72-.65 14.38-4.74 48.74 1.63 48.74 1.63a12.5 12.5 0 0 0 .05.36l.17 1.31.67 5.29c0 .01.01.03.01.05.01.06.02.13.03.2l2.2 20.17c-.2 1.8 8.3 45.75 7.53 51.21-.4 2.81-15.47 19.05-26.25 30.89zm-7.55-23.65l3.83-4.86c2.45-3.28 6.21-11.33 6-12.43-1.05-5.44-11.69-39.23-11.69-39.23l1.78 48.45c.02 1.09-.4 4.09.09 8.07z" fill="#0745b4"/><path d="M90.08 69.17l-7.46 24.54-.89 2.91-.01.04c-.01.01-.01.02-.01.03-1.24 4.37-2.79 11.05-3.24 18.45-.31 5.05.71 25.36.71 25.36s-11.29 3.86-28.17 2.89c0 0-18.16-.39-16.68-10.61 3.92-27.03.09-38.18-.43-40.9 0 0-12.84-16.31-4.23-24.13 3.44-3.13 11.48-5.64 17.73-7.42 6.37-1.81 10.63-1.8 16.01-1.25l3.56.37c-.01 0 18.14 4.48 23.1 9.72z" fill="#0568e0"/><path d="M21.54 159.31s-1.12.08-7.78-.26L10 113.15c.26-9.79 14.32-42.72 19.02-45.35l4.7 24.42c-.57-.15-7.27 20.39-7.31 22.65-.05 3.03-4.87 44.44-4.87 44.44z" fill="#ffa98f"/><path d="M11.36 103.06l2.31-8.83c4.33-12.3 10.06-22.5 12.3-25.15 4.31-5.08 18.29-8.07 18.98-8.25 2.02-.53 4.05-1 6.09-1.41 1.31 2.84 5.99 7.8 9.29 12.24 1.88-4.23 5.11-9.06 6.57-12.24A122.6 122.6 0 0 1 73 60.83c.69.18 14.68 3.16 18.98 8.25 1.57 1.85 10.66 18.08 15.56 30.19.53 1.31-.2 2.77-1.62 3.25-3.81 1.28-9.5 3.28-12.91 4.66-1.45.59-3.14.03-3.83-1.28-1.14-2.18-2.71-6.73-3.14-7.93-.01.01-.02.01-.03.01h-.03c-.42 1.66-2.01 6.56-2.01 10.13l.24 35.19c.08 2.41-1.86 4.47-4.47 4.74-7.12.74-18.84 1.95-22.92 1.45-5.67.78-22.7-1.76-27.55-3.6-4.26-1.62-2.71-3.94-2.26-6.97l4.76-28.94c.62-3.18-1.1-6.45-.43-9.9-.02-.01-.03-.01-.03-.01-.45 1.38-1.18 4.29-1.77 6.5-.31 1.16-1.56 1.87-2.83 1.64l-13.24-2.39c-1.46-.12-2.48-1.43-2.12-2.76zm19.99-2.97c.07.03.04.02 0 0h0z" fill="#3886e8"/><g stroke="#fff" stroke-width=".4" stroke-miterlimit="10"><path d="M56.88 71.49s-8.28 34.48-4.05 48.76m5.49-49.03s-1.41 30.68 1.03 36.5"/></g><path d="M58.03 72.46c-7.35 0-13.31-3.77-13.31-8.42s5.96-8.42 13.31-8.42 13.31 3.77 13.31 8.42-5.96 8.42-13.31 8.42z" fill="#3886e8"/><g fill="#226cbc"><path d="M70.94 61.7c.64 2.31.24 4.94-1.32 6.75-.16.25-.41.42-.62.63-.23.19-.41.43-.67.57-.5.31-.96.7-1.52.92-.54.24-1.07.53-1.65.68l-.85.26-.43.14-.44.09-1.76.35-1.79.19-.89.09c-.3.02-.6 0-.89 0l-.89-.01c-.3-.01-.6-.05-.89-.08a19.3 19.3 0 0 1-3.52-.73 12.1 12.1 0 0 1-3.27-1.5c1.95 1.43 4.36 2.15 6.75 2.49l.91.1.91.02.91.01.91-.08 1.81-.18 1.79-.34.45-.09.43-.14.87-.28c.59-.16 1.13-.45 1.68-.71.57-.22 1.05-.63 1.56-.96.27-.16.46-.41.69-.61.21-.22.47-.41.63-.67.8-.94 1.26-2.13 1.45-3.33.14-1.2.03-2.44-.35-3.58zm-25.01-1.06a5.8 5.8 0 0 0-1.2 1.7 4.8 4.8 0 0 0-.49 2.05 4.4 4.4 0 0 0 .16 1.06c.14.33.26.67.49.95.18.3.45.54.7.79.26.23.56.41.85.6-.5-.47-1.01-.94-1.33-1.53a3.5 3.5 0 0 1-.53-1.87c-.01-.66.15-1.31.39-1.94a8.2 8.2 0 0 1 .96-1.8z"/></g><g fill="#ffa98f"><path d="M65.61 49.42l-10.5-12.11-4.8 11.49.83 2.37-.98 8.42c3.73 6.66 13.88 5.83 15.48 1.78l-.03-11.96z"/><path d="M70.05 30.62c2.83 4.37 3.96 14.42-.17 21.63-1.77 3.08-11 2.93-13.91.4-2.52-2.19-6.7-15.24-3.44-19.02 3.26-3.77 14.52-9.36 17.52-3.01z"/></g><path d="M56.63 34.97c-.61-.28-1.18-.63-1.72-.99-2.05-1.36-3.97-3.08-5.17-5.14l-.34-.63-.73.37c-2.14 1.23-3.65 3.35-4.02 5.65-.3 1.91-.55 5.07 1.44 7.05.95.95 1.9 1.99 2.32 3.22l2.12 4.91 2.58-2.32c.91-.89 1.13-1.91 1.8-2.93 1.69-2.59 2.56-6.08 3.03-8.59l-1.3-.61z" fill="#061728"/><path d="M56.51 42.71c-.64-.77-1.45-1.62-2.42-1.57-.5.03-.94.31-1.25.67-1.58 1.87-1.22 5 .99 6.35.92.57 2.1.72 2.7-.32l.24-4.56c.03-.21-.11-.41-.25-.57z" fill="#ffa98f"/><g fill="#061728"><path d="M65.77 54.55c-.07.01-6.82.67-10.26-2.75l.23-.2c3.33 3.31 9.93 2.67 10 2.66l.03.28zm-.62-9.15l-.03-.28 1.01-.08c.41-.03.78-.24 1.01-.55s.28-.7.16-1.06l-1.45-4.09.3-.09 1.45 4.09a1.4 1.4 0 0 1-.2 1.31c-.28.39-.73.64-1.24.68l-1.01.08z"/><use href="#B"/><path d="M69.78 39.07c.13.3.13.71.16.95.05.43-.45.7-.89.59-.83-.2-.77-1.96.23-1.9.26.01.41.16.5.36z"/></g><path d="M67.97 47.28l-6.15-.72s.62 3.44 3 3.66c2.77.26 3.15-2.95 3.15-2.95z" fill="#fff"/><g fill="#061728"><path d="M68.22 30.46L72 34.98s-1.49-5.49-2.86-6.22c-1.37-.72-.91 1.7-.91 1.7zm-12.6 18.08c-1.54.21-2.83-1.07-2.89-1.13l.23-.2c.01.01 1.6 1.58 3.21.87l.14.26c-.23.11-.46.18-.68.2z"/><path d="M51.62 25.29c-2.16.57-3.09.91-4.07 1.6-.82.57-2.75 2.46-2.76 4.02-.02 2.75 5.8 5.16 11 5.14.99-.01 2.91-.43 5.66-1.24 6.06-1.8 12.79-5.27 11.21-12.46 0 0-.86 1.49-1.94 1.72 0 0 1.43-4.68-4.19-7.06.3.13-1.96 2.76-2.11 2.89-2.18 1.9-4.3 3.2-6.33 3.89-1.95.67-1.93.3-6.47 1.5zm7.67 11.81c.14-.33.41-.59.71-.8s.67-.34 1.06-.41c.77-.13 1.62.12 2.08.68-.39.01-.72-.03-1.03-.01a5.7 5.7 0 0 0-.91.08c-.59.08-1.17.26-1.9.45zm8.44-.84c.03-.3.22-.56.47-.75s.57-.32.91-.35.68.03.95.17c.14.06.26.16.39.25.11.11.21.22.28.35-.17.01-.31 0-.45-.01-.14 0-.27-.01-.4-.01-.25-.01-.47 0-.69.01a5.8 5.8 0 0 0-1.45.34z"/></g></g><defs><clipPath id="A"><path fill="#fff" d="M0 0h120v146H0z"/></clipPath><path id="B" d="M62.31 39.25c.13.3.13.71.16.95.05.43-.45.7-.89.59-.83-.2-.77-1.96.23-1.9.26.01.41.16.5.36z"/></defs></svg>