<svg width="388" height="388" viewBox="0 0 388 388" fill="none" xmlns="http://www.w3.org/2000/svg">
<g clip-path="url(#clip0_19622_68532)">
<path d="M333.122 38.7617L321.776 43.009L250.961 168.034L261.258 168.956L333.122 38.7617Z" fill="url(#paint0_linear_19622_68532)"/>
<path d="M333.122 38.7617L321.776 43.009L250.961 168.034L261.258 168.956L333.122 38.7617Z" fill="url(#paint1_linear_19622_68532)"/>
<path d="M332.071 39.1532L260.461 168.885L261.253 168.956L333.118 38.7617L332.071 39.1532Z" fill="#D5E5FF" style="fill:#D5E5FF;fill:color(display-p3 0.8353 0.8980 1.0000);fill-opacity:1;"/>
<path d="M349.363 154.98L357.917 151.777L384.182 172.494L373.796 173.993L349.363 154.98Z" fill="url(#paint2_linear_19622_68532)"/>
<path d="M384.183 172.494L357.918 151.777L356.871 152.17L382.877 172.683L384.183 172.494Z" fill="#D5E5FF" style="fill:#D5E5FF;fill:color(display-p3 0.8353 0.8980 1.0000);fill-opacity:1;"/>
<path d="M155.211 332.245C255.018 322.942 289.897 211.968 289.733 154.116C281.551 157.776 261.257 168.956 261.257 168.956L333.122 38.7617L384.181 172.493L358.856 152.767C315.28 346.754 155.211 332.245 155.211 332.245Z" fill="url(#paint3_linear_19622_68532)"/>
<path d="M289.733 154.117C287.544 155.097 284.485 156.616 281.182 158.314C278.615 214.505 243.859 318.84 155.211 332.246C255.018 322.944 289.897 211.97 289.733 154.117Z" fill="url(#paint4_linear_19622_68532)"/>
<path d="M155.211 332.246C255.018 322.944 289.897 211.97 289.733 154.117C285.795 213.773 254.969 321.218 155.211 332.246Z" fill="#D5E5FF" style="fill:#D5E5FF;fill:color(display-p3 0.8353 0.8980 1.0000);fill-opacity:1;"/>
<path d="M232.268 337.012H43.9102V347.476H232.268V337.012Z" fill="url(#paint5_linear_19622_68532)"/>
<path d="M43.9066 337.012H-2.13672V347.476H43.9066V337.012Z" fill="url(#paint6_linear_19622_68532)"/>
<path d="M114.212 284.684L49.9219 292.532V302.996L218.147 319.216L244.036 318.693V308.229L114.212 284.684Z" fill="url(#paint7_linear_19622_68532)"/>
<path d="M244.026 318.693L114.203 295.147V284.684L244.026 308.229V318.693Z" fill="url(#paint8_linear_19622_68532)"/>
<path d="M114.212 295.147L49.9219 302.996V292.532L114.212 284.684V295.147Z" fill="url(#paint9_linear_19622_68532)"/>
<path d="M49.9219 301.987V302.999L114.211 295.15L244.034 318.696V317.684L114.211 294.139L49.9219 301.987Z" fill="#83D8FF" style="fill:#83D8FF;fill:color(display-p3 0.5137 0.8471 1.0000);fill-opacity:1;"/>
<path d="M193.281 228.703L114.391 236.551V247.016L224.266 282.594L249.903 282.071V271.607L193.281 228.703Z" fill="url(#paint10_linear_19622_68532)"/>
<path d="M249.903 282.071L193.281 239.167V228.703L249.903 271.607V282.071Z" fill="url(#paint11_linear_19622_68532)"/>
<path d="M193.281 239.167L114.391 247.016V236.551L193.281 228.703V239.167Z" fill="url(#paint12_linear_19622_68532)"/>
<path d="M114.391 246.005V247.017L193.281 239.168L249.903 282.072V281.06L193.281 238.156L114.391 246.005Z" fill="#035980" style="fill:#035980;fill:color(display-p3 0.0118 0.3490 0.5020);fill-opacity:1;"/>
<path d="M290.727 189.464L191.43 179V189.464L230.148 245.971L255.786 245.449L290.727 189.464Z" fill="url(#paint13_linear_19622_68532)"/>
<path d="M191.43 179V179.066L290.096 189.464L255.155 245.447L230.139 245.958L230.148 245.971L255.786 245.447L290.727 189.464L191.43 179Z" fill="#035980" style="fill:#035980;fill:color(display-p3 0.0118 0.3490 0.5020);fill-opacity:1;"/>
<path d="M290.726 179H191.43V189.464H290.726V179Z" fill="url(#paint14_linear_19622_68532)"/>
<path d="M290.726 188.451H191.43V189.463H290.726V188.451Z" fill="#035980" style="fill:#035980;fill:color(display-p3 0.0118 0.3490 0.5020);fill-opacity:1;"/>
</g>
<defs>
<linearGradient id="paint0_linear_19622_68532" x1="235.572" y1="126.926" x2="350.08" y2="84.0578" gradientUnits="userSpaceOnUse">
<stop stop-color="#0066FF" style="stop-color:#0066FF;stop-color:color(display-p3 0.0000 0.4000 1.0000);stop-opacity:1;"/>
<stop offset="1" stop-color="#002255" style="stop-color:#002255;stop-color:color(display-p3 0.0000 0.1333 0.3333);stop-opacity:1;"/>
</linearGradient>
<linearGradient id="paint1_linear_19622_68532" x1="235.572" y1="126.926" x2="350.08" y2="84.0578" gradientUnits="userSpaceOnUse">
<stop stop-color="#0066FF" style="stop-color:#0066FF;stop-color:color(display-p3 0.0000 0.4000 1.0000);stop-opacity:1;"/>
<stop offset="1" stop-color="#0040A1" style="stop-color:#0040A1;stop-color:color(display-p3 0.0000 0.2510 0.6314);stop-opacity:1;"/>
</linearGradient>
<linearGradient id="paint2_linear_19622_68532" x1="354.379" y1="168.376" x2="379.166" y2="159.097" gradientUnits="userSpaceOnUse">
<stop stop-color="#003380" style="stop-color:#003380;stop-color:color(display-p3 0.0000 0.2000 0.5020);stop-opacity:1;"/>
<stop offset="1" stop-color="#0044AA" style="stop-color:#0044AA;stop-color:color(display-p3 0.0000 0.2667 0.6667);stop-opacity:1;"/>
</linearGradient>
<linearGradient id="paint3_linear_19622_68532" x1="282.863" y1="309.4" x2="226.084" y2="63.4737" gradientUnits="userSpaceOnUse">
<stop stop-color="#0055D4" style="stop-color:#0055D4;stop-color:color(display-p3 0.0000 0.3333 0.8314);stop-opacity:1;"/>
<stop offset="0.5764" stop-color="#80B3FF" style="stop-color:#80B3FF;stop-color:color(display-p3 0.5020 0.7020 1.0000);stop-opacity:1;"/>
<stop offset="0.5813" stop-color="#5599FF" style="stop-color:#5599FF;stop-color:color(display-p3 0.3333 0.6000 1.0000);stop-opacity:1;"/>
<stop offset="1" stop-color="#AACCFF" style="stop-color:#AACCFF;stop-color:color(display-p3 0.6667 0.8000 1.0000);stop-opacity:1;"/>
</linearGradient>
<linearGradient id="paint4_linear_19622_68532" x1="135.047" y1="278.385" x2="311.522" y2="212.318" gradientUnits="userSpaceOnUse">
<stop stop-color="#2A7FFF" style="stop-color:#2A7FFF;stop-color:color(display-p3 0.1647 0.4980 1.0000);stop-opacity:1;"/>
<stop offset="1" stop-color="#001172" style="stop-color:#001172;stop-color:color(display-p3 0.0000 0.0667 0.4471);stop-opacity:1;"/>
</linearGradient>
<linearGradient id="paint5_linear_19622_68532" x1="43.9102" y1="342.244" x2="232.268" y2="342.244" gradientUnits="userSpaceOnUse">
<stop stop-color="#5FD1FF" style="stop-color:#5FD1FF;stop-color:color(display-p3 0.3725 0.8196 1.0000);stop-opacity:1;"/>
<stop offset="1" stop-color="#B1E2FF" style="stop-color:#B1E2FF;stop-color:color(display-p3 0.6941 0.8863 1.0000);stop-opacity:1;"/>
</linearGradient>
<linearGradient id="paint6_linear_19622_68532" x1="-2.13634" y1="342.244" x2="43.9066" y2="342.244" gradientUnits="userSpaceOnUse">
<stop stop-color="#037BAA" style="stop-color:#037BAA;stop-color:color(display-p3 0.0118 0.4824 0.6667);stop-opacity:1;"/>
<stop offset="1" stop-color="#067CAB" style="stop-color:#067CAB;stop-color:color(display-p3 0.0235 0.4863 0.6706);stop-opacity:1;"/>
</linearGradient>
<linearGradient id="paint7_linear_19622_68532" x1="49.9225" y1="301.95" x2="244.036" y2="301.95" gradientUnits="userSpaceOnUse">
<stop stop-color="#ADE1FF" style="stop-color:#ADE1FF;stop-color:color(display-p3 0.6784 0.8824 1.0000);stop-opacity:1;"/>
<stop offset="1" stop-color="#D8E9FF" style="stop-color:#D8E9FF;stop-color:color(display-p3 0.8471 0.9137 1.0000);stop-opacity:1;"/>
</linearGradient>
<linearGradient id="paint8_linear_19622_68532" x1="114.204" y1="301.688" x2="244.026" y2="301.688" gradientUnits="userSpaceOnUse">
<stop stop-color="#039DD4" style="stop-color:#039DD4;stop-color:color(display-p3 0.0118 0.6157 0.8314);stop-opacity:1;"/>
<stop offset="1" stop-color="#89D9FF" style="stop-color:#89D9FF;stop-color:color(display-p3 0.5373 0.8510 1.0000);stop-opacity:1;"/>
</linearGradient>
<linearGradient id="paint9_linear_19622_68532" x1="49.9225" y1="293.84" x2="114.213" y2="293.84" gradientUnits="userSpaceOnUse">
<stop stop-color="#037BAA" style="stop-color:#037BAA;stop-color:color(display-p3 0.0118 0.4824 0.6667);stop-opacity:1;"/>
<stop offset="1" stop-color="#067CAB" style="stop-color:#067CAB;stop-color:color(display-p3 0.0235 0.4863 0.6706);stop-opacity:1;"/>
</linearGradient>
<linearGradient id="paint10_linear_19622_68532" x1="114.391" y1="255.648" x2="249.904" y2="255.648" gradientUnits="userSpaceOnUse">
<stop stop-color="#06C0FF" style="stop-color:#06C0FF;stop-color:color(display-p3 0.0235 0.7529 1.0000);stop-opacity:1;"/>
<stop offset="1" stop-color="#88D9FF" style="stop-color:#88D9FF;stop-color:color(display-p3 0.5333 0.8510 1.0000);stop-opacity:1;"/>
</linearGradient>
<linearGradient id="paint11_linear_19622_68532" x1="193.282" y1="255.387" x2="249.904" y2="255.387" gradientUnits="userSpaceOnUse">
<stop stop-color="#087DAC" style="stop-color:#087DAC;stop-color:color(display-p3 0.0314 0.4902 0.6745);stop-opacity:1;"/>
<stop offset="1" stop-color="#2DC7FF" style="stop-color:#2DC7FF;stop-color:color(display-p3 0.1765 0.7804 1.0000);stop-opacity:1;"/>
</linearGradient>
<linearGradient id="paint12_linear_19622_68532" x1="114.391" y1="237.859" x2="193.282" y2="237.859" gradientUnits="userSpaceOnUse">
<stop stop-color="#037BAA" style="stop-color:#037BAA;stop-color:color(display-p3 0.0118 0.4824 0.6667);stop-opacity:1;"/>
<stop offset="1" stop-color="#067CAB" style="stop-color:#067CAB;stop-color:color(display-p3 0.0235 0.4863 0.6706);stop-opacity:1;"/>
</linearGradient>
<linearGradient id="paint13_linear_19622_68532" x1="191.43" y1="212.485" x2="290.726" y2="212.485" gradientUnits="userSpaceOnUse">
<stop stop-color="#0BC1FF" style="stop-color:#0BC1FF;stop-color:color(display-p3 0.0431 0.7569 1.0000);stop-opacity:1;"/>
<stop offset="1" stop-color="#0DA0D6" style="stop-color:#0DA0D6;stop-color:color(display-p3 0.0510 0.6275 0.8392);stop-opacity:1;"/>
</linearGradient>
<linearGradient id="paint14_linear_19622_68532" x1="191.43" y1="184.232" x2="290.726" y2="184.232" gradientUnits="userSpaceOnUse">
<stop stop-color="#217BA3" style="stop-color:#217BA3;stop-color:color(display-p3 0.1294 0.4824 0.6392);stop-opacity:1;"/>
<stop offset="1" stop-color="#299BC9" style="stop-color:#299BC9;stop-color:color(display-p3 0.1608 0.6078 0.7882);stop-opacity:1;"/>
</linearGradient>
<clipPath id="clip0_19622_68532">
<rect width="388" height="388" fill="white" style="fill:white;fill-opacity:1;"/>
</clipPath>
</defs>
</svg>
