<svg width="502" height="196" viewBox="0 0 502 196" fill="none" xmlns="http://www.w3.org/2000/svg">
<g clip-path="url(#clip0_19354_62133)">
<rect x="250" width="252" height="258" fill="#C7D6FF" style="fill:#C7D6FF;fill:color(display-p3 0.7804 0.8392 1.0000);fill-opacity:1;"/>
<path d="M321.61 208.181H386.834L366.443 106.25H301.219L321.61 208.181Z" fill="#592C70" style="fill:#592C70;fill:color(display-p3 0.3490 0.1725 0.4392);fill-opacity:1;"/>
<path d="M318.037 208.181H365.556C371.035 208.181 375.143 203.154 374.066 197.766L357.157 113.241C356.344 109.175 352.783 106.25 348.647 106.25H301.128C295.649 106.25 291.541 111.278 292.618 116.664L309.527 201.19C310.34 205.256 313.901 208.181 318.037 208.181Z" fill="#42195B" style="fill:#42195B;fill:color(display-p3 0.2588 0.0980 0.3569);fill-opacity:1;"/>
<path d="M325.73 165.438V186.489C325.73 186.489 333.79 199.535 351.725 200.892C369.659 202.249 417.706 198.517 417.706 198.517V122.519L374.149 110.705L358.324 111.492L334.131 134.054L325.73 165.438Z" fill="#5188FF" style="fill:#5188FF;fill:color(display-p3 0.3183 0.5342 1.0000);fill-opacity:1;"/>
<path d="M349.077 164.078L363.937 188.506L396.897 205.017L368.603 209.767L340.731 199.362L328.902 179.458C328.902 179.458 329.34 158.762 349.077 164.078Z" fill="#FFA9A9" style="fill:#FFA9A9;fill:color(display-p3 1.0000 0.6627 0.6627);fill-opacity:1;"/>
<path d="M314.119 154.699L326.745 175.831L328.909 179.457C328.909 179.457 333.067 164.988 349.08 164.074L347.552 161.352L341.41 150.424L360.387 110.703L328.909 118.728C313.208 122.736 305.795 140.774 314.119 154.699Z" fill="#5188FF" style="fill:#5188FF;fill:color(display-p3 0.3183 0.5342 1.0000);fill-opacity:1;"/>
<path d="M326.742 175.83L328.906 179.456C328.906 179.456 333.064 164.988 349.078 164.074L347.55 161.352C347.55 161.352 330.397 162.38 326.742 175.83Z" fill="white" style="fill:white;fill-opacity:1;"/>
<path d="M349.081 163.205L336.336 139.686" stroke="#5A36A8" style="stroke:#5A36A8;stroke:color(display-p3 0.3529 0.2118 0.6588);stroke-opacity:1;" stroke-width="0.662987" stroke-miterlimit="10" stroke-linecap="round" stroke-linejoin="round"/>
<path d="M382.776 113.045C383.678 116.862 383.744 124.116 371.718 125.229C364.835 125.867 359.861 122.812 356.406 119.032C355.418 117.957 354.554 116.824 353.804 115.71C353.149 114.72 352.57 113.74 352.086 112.816" stroke="#5A36A8" style="stroke:#5A36A8;stroke:color(display-p3 0.3529 0.2118 0.6588);stroke-opacity:1;" stroke-width="0.662987" stroke-miterlimit="10" stroke-linecap="round" stroke-linejoin="round"/>
<path d="M345.76 72.6962C348.295 81.2342 353.249 100.852 361.034 97.6354C368.817 94.418 374.152 89.5543 374.152 89.5543L388.192 75.4473C394.79 74.3433 398.539 64.3871 398.254 59.0748C397.97 53.7542 391.714 57.3238 391.714 57.3238C391.714 57.3238 393.746 50.9845 390.869 47.4242C388.088 43.9787 383.617 49.1093 376.175 49.8991C376.166 49.8991 376.166 49.8991 376.156 49.8991C375.91 49.9278 375.663 49.9464 375.416 49.9658C372.254 50.1753 368.809 50.2328 365.553 50.4413C360.674 50.7648 356.194 51.4406 353.678 53.478C349.483 56.8669 352.074 62.5202 352.074 62.5202C352.074 62.5202 343.216 64.1581 345.76 72.6962Z" fill="#211A35" style="fill:#211A35;fill:color(display-p3 0.1294 0.1020 0.2078);fill-opacity:1;"/>
<path d="M355.533 77.7306C355.533 77.7306 354.944 55.2478 376.151 49.8984C375.905 49.9272 375.658 49.9457 375.411 49.9652C372.249 50.1747 371.01 50.1107 367.753 50.3202C363.501 51.8904 351.727 57.8089 351.727 78.3303L355.533 77.7306Z" fill="#592C70" style="fill:#592C70;fill:color(display-p3 0.3490 0.1725 0.4392);fill-opacity:1;"/>
<path d="M382.008 80.4145V90.5709C382.008 92.6074 383.46 94.312 385.397 94.6828C385.653 94.7301 385.919 94.7588 386.184 94.7588H390.181C392.487 94.7588 394.357 92.8836 394.357 90.5709V80.4145C394.357 78.1017 392.487 76.2266 390.181 76.2266H386.184C385.918 76.2266 385.653 76.2553 385.397 76.3026C383.46 76.6743 382.008 78.378 382.008 80.4145Z" fill="#592C70" style="fill:#592C70;fill:color(display-p3 0.3490 0.1725 0.4392);fill-opacity:1;"/>
<path d="M382.008 80.4146V90.5711C382.008 92.6075 383.46 94.3122 385.397 94.6829C387.324 94.3122 388.776 92.6075 388.776 90.5711V80.4146C388.776 78.3781 387.324 76.6735 385.397 76.3027C383.46 76.6744 382.008 78.3781 382.008 80.4146Z" fill="#5951CC" style="fill:#5951CC;fill:color(display-p3 0.3490 0.3176 0.8000);fill-opacity:1;"/>
<path d="M357.483 113.015C357.654 114.547 364.707 122.342 371.579 121.61C378.461 120.877 378.973 115.842 378.973 115.842L379.058 112.672L379.248 105.266L365.294 96.147L357.035 90.7402C358.156 94.6918 357.312 111.492 357.483 113.015Z" fill="#FFA9A9" style="fill:#FFA9A9;fill:color(display-p3 1.0000 0.6627 0.6627);fill-opacity:1;"/>
<path d="M361.031 97.636C361.524 102.642 367.229 111.933 379.058 112.676L379.247 105.27L365.293 96.1511C362.634 95.9416 360.897 96.3031 361.031 97.636Z" fill="#F28181" style="fill:#F28181;fill:color(display-p3 0.9490 0.5059 0.5059);fill-opacity:1;"/>
<path d="M356.467 92.9127C359.258 98.5957 368.181 107.629 376.563 107.124C384.935 106.61 388.827 100.547 389.843 94.4458C390.859 88.3345 389.378 82.0147 389.672 79.8058C389.956 77.6636 390.924 73.3043 389.529 69.7921C389.491 69.6966 389.453 69.6021 389.416 69.5066C389.416 69.5066 381.764 73.828 368.313 68.3164C364.838 74.6752 358.669 72.305 358.669 72.305L357.425 76.0081L355.451 81.8905C355.451 81.8905 353.676 87.2305 356.467 92.9127Z" fill="#FFA9A9" style="fill:#FFA9A9;fill:color(display-p3 1.0000 0.6627 0.6627);fill-opacity:1;"/>
<path d="M357.426 76.0081L359.258 74.4564C359.258 74.4564 367.744 75.2462 369.747 70.4966C373.117 74.8087 384.29 76.1787 389.53 69.7921C389.492 69.6966 389.454 69.6021 389.416 69.5066C389.416 69.5066 381.765 73.828 368.314 68.3164C364.839 74.6752 358.669 72.305 358.669 72.305L357.426 76.0081Z" fill="#F28181" style="fill:#F28181;fill:color(display-p3 0.9490 0.5059 0.5059);fill-opacity:1;"/>
<path d="M378.293 84.9141L380.391 90.4358C380.727 91.321 380.284 92.3129 379.402 92.6512L377.898 93.2268" stroke="#F25369" style="stroke:#F25369;stroke:color(display-p3 0.9490 0.3255 0.4118);stroke-opacity:1;" stroke-width="0.662987" stroke-miterlimit="10" stroke-linecap="round" stroke-linejoin="round"/>
<path d="M371.645 96.6406C371.454 98.069 372.428 99.3779 373.818 99.5642C375.208 99.7505 376.49 98.7429 376.68 97.3154L371.645 96.6406Z" fill="white" style="fill:white;fill-opacity:1;"/>
<path d="M368.602 84.3492C368.602 84.9811 369.113 85.4934 369.743 85.4934C370.373 85.4934 370.884 84.9811 370.884 84.3492C370.884 83.7174 370.373 83.2051 369.743 83.2051C369.113 83.2042 368.602 83.7174 368.602 84.3492Z" fill="black" style="fill:black;fill-opacity:1;"/>
<path d="M383.488 84.3492C383.488 84.9811 383.999 85.4934 384.629 85.4934C385.259 85.4934 385.77 84.9811 385.77 84.3492C385.77 83.7174 385.259 83.2051 384.629 83.2051C383.999 83.2042 383.488 83.7174 383.488 84.3492Z" fill="black" style="fill:black;fill-opacity:1;"/>
<path d="M372.578 80.4881C372.578 80.4881 369.659 78.6253 365.938 80.4881" stroke="#211A35" style="stroke:#211A35;stroke:color(display-p3 0.1294 0.1020 0.2078);stroke-opacity:1;" stroke-width="0.662987" stroke-miterlimit="10" stroke-linecap="round"/>
<path d="M387.519 80.4881C387.519 80.4881 384.601 78.6253 380.879 80.4881" stroke="#211A35" style="stroke:#211A35;stroke:color(display-p3 0.1294 0.1020 0.2078);stroke-opacity:1;" stroke-width="0.662987" stroke-miterlimit="10" stroke-linecap="round"/>
<path d="M346.906 80.4145V90.5709C346.906 92.6074 348.359 94.312 350.295 94.6828C350.551 94.7301 350.817 94.7588 351.083 94.7588H355.079C357.385 94.7588 359.255 92.8836 359.255 90.5709V80.4145C359.255 78.1017 357.385 76.2266 355.079 76.2266H351.083C350.817 76.2266 350.551 76.2553 350.295 76.3026C348.359 76.6743 346.906 78.378 346.906 80.4145Z" fill="#592C70" style="fill:#592C70;fill:color(display-p3 0.3490 0.1725 0.4392);fill-opacity:1;"/>
<path d="M346.906 80.4146V90.5711C346.906 92.6075 348.359 94.3122 350.295 94.6829C352.223 94.3122 353.675 92.6075 353.675 90.5711V80.4146C353.675 78.3781 352.223 76.6735 350.295 76.3027C348.359 76.6744 346.906 78.3781 346.906 80.4146Z" fill="#5951CC" style="fill:#5951CC;fill:color(display-p3 0.3490 0.3176 0.8000);fill-opacity:1;"/>
<path d="M356.074 91.4746C357.71 94.4714 364.703 96.6423 364.703 96.6423" stroke="#5951CC" style="stroke:#5951CC;stroke:color(display-p3 0.3490 0.3176 0.8000);stroke-opacity:1;" stroke-width="0.662987" stroke-miterlimit="10" stroke-linecap="round" stroke-linejoin="round"/>
<path d="M365.044 98.767C366.072 98.767 366.905 97.9316 366.905 96.9011C366.905 95.8706 366.072 95.0352 365.044 95.0352C364.017 95.0352 363.184 95.8706 363.184 96.9011C363.184 97.9316 364.017 98.767 365.044 98.767Z" fill="#592C70" style="fill:#592C70;fill:color(display-p3 0.3490 0.1725 0.4392);fill-opacity:1;"/>
<path d="M381.078 185.354H464.552C466.486 185.354 468.343 183.782 468.699 181.843L481.53 112.003C481.885 110.064 480.607 108.492 478.672 108.492H395.198C393.264 108.492 391.407 110.064 391.05 112.003L378.219 181.843C377.864 183.782 379.143 185.354 381.078 185.354Z" fill="#8E9AEA" style="fill:#8E9AEA;fill:color(display-p3 0.5569 0.6039 0.9176);fill-opacity:1;"/>
<path d="M385.742 185.354H469.216C471.15 185.354 473.007 183.782 473.363 181.843L486.194 112.003C486.55 110.064 485.271 108.492 483.336 108.492H399.862C397.928 108.492 396.071 110.064 395.715 112.003L382.883 181.843C382.528 183.782 383.808 185.354 385.742 185.354Z" fill="#E1EBFF" style="fill:#E1EBFF;fill:color(display-p3 0.8824 0.9216 1.0000);fill-opacity:1;"/>
<path d="M398.026 181.659H414.723C415.531 181.659 416.187 181.002 416.187 180.192C416.187 179.382 415.531 178.725 414.723 178.725H398.026C397.218 178.725 396.562 179.382 396.562 180.192C396.562 181.002 397.218 181.659 398.026 181.659Z" fill="#211A35" style="fill:#211A35;fill:color(display-p3 0.1294 0.1020 0.2078);fill-opacity:1;"/>
<path d="M412.211 180.193C414.748 185.355 413.564 194.188 413.564 194.188" stroke="white" style="stroke:white;stroke-opacity:1;" stroke-width="0.662987" stroke-miterlimit="10" stroke-linecap="round" stroke-linejoin="round"/>
<path d="M406.742 180.193C409.28 185.355 408.096 194.188 408.096 194.188" stroke="#FF3381" style="stroke:#FF3381;stroke:color(display-p3 1.0000 0.2000 0.5059);stroke-opacity:1;" stroke-width="0.662987" stroke-miterlimit="10" stroke-linecap="round" stroke-linejoin="round"/>
<path d="M401.008 180.193C403.545 185.355 402.361 194.188 402.361 194.188" stroke="#33B6FF" style="stroke:#33B6FF;stroke:color(display-p3 0.2000 0.7137 1.0000);stroke-opacity:1;" stroke-width="0.662987" stroke-miterlimit="10" stroke-linecap="round" stroke-linejoin="round"/>
<path d="M436.199 34.733L438.264 10.0487L431.716 34.2426L424.695 7.92969L426.302 38.8893" stroke="#7491ED" style="stroke:#7491ED;stroke:color(display-p3 0.4549 0.5686 0.9294);stroke-opacity:1;" stroke-width="0.497257" stroke-miterlimit="10" stroke-linecap="round" stroke-linejoin="round"/>
<path d="M419.23 30.9141H443.931L440.091 45.3335H423.07L419.23 30.9141Z" fill="#8DB0FF" style="fill:#8DB0FF;fill:color(display-p3 0.5529 0.6902 1.0000);fill-opacity:1;"/>
<path d="M415.83 56.1912H478.255C480.489 56.1912 482.3 54.3753 482.3 52.1349V49.3903C482.3 47.1499 480.489 45.334 478.255 45.334H415.83C413.596 45.334 411.785 47.1499 411.785 49.3903V52.1349C411.785 54.3753 413.596 56.1912 415.83 56.1912Z" stroke="#7491ED" style="stroke:#7491ED;stroke:color(display-p3 0.4549 0.5686 0.9294);stroke-opacity:1;" stroke-width="0.497257" stroke-miterlimit="10" stroke-linejoin="round"/>
<path d="M419.23 30.9141H443.931L440.091 45.3335H423.07L419.23 30.9141Z" stroke="#7491ED" style="stroke:#7491ED;stroke:color(display-p3 0.4549 0.5686 0.9294);stroke-opacity:1;" stroke-width="0.497257" stroke-miterlimit="10" stroke-linejoin="round"/>
<path d="M271.484 72.7734L332.613 72.7734V-6.66869L271.484 -6.66869V72.7734Z" stroke="#7491ED" style="stroke:#7491ED;stroke:color(display-p3 0.4549 0.5686 0.9294);stroke-opacity:1;" stroke-width="0.497257" stroke-miterlimit="10" stroke-linejoin="round"/>
<path d="M280.281 64.4141H323.816V1.69015L280.281 1.69015V64.4141Z" stroke="#7491ED" style="stroke:#7491ED;stroke:color(display-p3 0.4549 0.5686 0.9294);stroke-opacity:1;" stroke-width="0.523533" stroke-miterlimit="10" stroke-linejoin="round"/>
<path d="M305.927 49.5316C315.015 47.3797 320.643 38.2474 318.497 29.1341C316.351 20.0208 307.244 14.3775 298.155 16.5294C289.067 18.6813 283.439 27.8136 285.585 36.9269C287.731 46.0402 296.838 51.6835 305.927 49.5316Z" fill="#8DB0FF" style="fill:#8DB0FF;fill:color(display-p3 0.5529 0.6902 1.0000);fill-opacity:1;"/>
</g>
<g clip-path="url(#clip1_19354_62133)">
<rect x="-1" width="251" height="257" fill="#8DB0FF" style="fill:#8DB0FF;fill:color(display-p3 0.5529 0.6902 1.0000);fill-opacity:1;"/>
<path d="M185.001 211.207H137.694C132.24 211.207 128.15 206.209 129.222 200.856L146.056 116.843C146.865 112.802 150.41 109.895 154.527 109.895H201.833C207.287 109.895 211.377 114.892 210.305 120.246L193.472 204.259C192.663 208.299 189.118 211.207 185.001 211.207Z" fill="#42195B" style="fill:#42195B;fill:color(display-p3 0.2588 0.0980 0.3569);fill-opacity:1;"/>
<path d="M181.446 211.208H116.516L136.815 109.895H201.746L181.446 211.208Z" fill="#592C70" style="fill:#592C70;fill:color(display-p3 0.3490 0.1725 0.4392);fill-opacity:1;"/>
<path d="M177.34 168.714V189.638C177.34 189.638 169.316 202.606 151.461 203.954C133.608 205.303 85.7773 201.594 85.7773 201.594V126.057L129.138 114.314L144.892 115.097L168.975 137.521L177.34 168.714Z" fill="#0668E1" style="fill:#0668E1;fill:color(display-p3 0.0235 0.4078 0.8824);fill-opacity:1;"/>
<path d="M144.889 115.096V213.704H114.98L123.426 117.041L144.889 115.096Z" fill="white" style="fill:white;fill-opacity:1;"/>
<path d="M106.488 208.057L134.659 212.777L162.405 202.437L166.336 195.843L174.179 182.654C174.179 182.654 173.745 162.077 154.098 167.365L146.717 179.475L139.308 191.642L106.488 208.057Z" fill="#FFA9A9" style="fill:#FFA9A9;fill:color(display-p3 1.0000 0.6627 0.6627);fill-opacity:1;"/>
<path d="M188.899 158.043L176.331 179.046L174.176 182.651C174.176 182.651 170.037 168.27 154.095 167.362L155.616 164.656L161.73 153.795L142.84 114.314L174.176 122.29C189.806 126.272 197.186 144.201 188.899 158.043Z" fill="#0668E1" style="fill:#0668E1;fill:color(display-p3 0.0235 0.4078 0.8824);fill-opacity:1;"/>
<path d="M146.715 179.476C157.724 182.097 164.566 192.778 166.333 195.843L174.176 182.654C174.176 182.654 173.742 162.077 154.094 167.365L146.715 179.476Z" fill="#3D94FF" style="fill:#3D94FF;fill:color(display-p3 0.2375 0.5787 1.0000);fill-opacity:1;"/>
<path d="M146.715 179.476L166.783 143.121" stroke="#5A36A8" style="stroke:#5A36A8;stroke:color(display-p3 0.3529 0.2118 0.6588);stroke-opacity:1;" stroke-width="0.662635" stroke-miterlimit="10" stroke-linecap="round" stroke-linejoin="round"/>
<path d="M177.718 176.725L166.332 195.843" stroke="#5A36A8" style="stroke:#5A36A8;stroke:color(display-p3 0.3529 0.2118 0.6588);stroke-opacity:1;" stroke-width="0.662635" stroke-miterlimit="10" stroke-linecap="round" stroke-linejoin="round"/>
<path d="M114.32 117.306C125.216 118.318 135.989 113.597 143.567 114.193C151.147 114.78 156.457 121.1 162.014 114.109C167.57 107.108 161.929 97.0791 158.224 91.0905C154.52 85.102 157.383 73.8905 153.509 66.6435C150.078 60.2192 145.051 52.0453 131.85 53.0864C130.149 53.2191 128.306 53.5028 126.312 53.9662H126.303C120.585 53.4936 117.855 58.8013 117.855 58.8013C117.855 58.8013 111.741 56.521 108.546 66.2188C105.343 75.9165 108.792 88.8969 105.683 97.033C102.564 105.167 103.424 116.293 114.32 117.306Z" fill="#211A35" style="fill:#211A35;fill:color(display-p3 0.1294 0.1020 0.2078);fill-opacity:1;"/>
<path d="M146.829 81.6272L150.618 82.2233C150.618 61.8254 138.891 55.9502 134.657 54.3895C133.58 53.8597 132.654 53.4341 131.851 53.084C130.15 53.2167 128.307 53.5004 126.312 53.9638C147.414 59.2899 146.829 81.6272 146.829 81.6272Z" fill="#0668E1" style="fill:#0668E1;fill:color(display-p3 0.0235 0.4078 0.8824);fill-opacity:1;"/>
<path d="M120.466 84.2992V94.394C120.466 96.4182 119.02 98.1125 117.092 98.481C116.837 98.528 116.572 98.5565 116.308 98.5565H112.33C110.034 98.5565 108.172 96.6927 108.172 94.394V84.2992C108.172 82.0005 110.034 80.1367 112.33 80.1367H116.308C116.573 80.1367 116.837 80.1653 117.092 80.2123C119.02 80.5808 120.466 82.2742 120.466 84.2992Z" fill="#4699FF" style="fill:#4699FF;fill:color(display-p3 0.2745 0.6000 1.0000);fill-opacity:1;"/>
<path d="M120.465 84.2998V94.3947C120.465 96.4188 119.019 98.1131 117.091 98.4816C115.172 98.1131 113.727 96.4188 113.727 94.3947V84.2998C113.727 82.2748 115.172 80.5814 117.091 80.2129C119.019 80.5814 120.465 82.2748 120.465 84.2998Z" fill="#5951CC" style="fill:#5951CC;fill:color(display-p3 0.3490 0.3176 0.8000);fill-opacity:1;"/>
<path d="M144.887 116.702C144.717 118.225 137.695 125.974 130.854 125.245C124.003 124.516 123.492 119.512 123.492 119.512L123.407 116.361L123.219 109L137.11 99.9365L145.332 94.5625C144.216 98.4891 145.057 115.188 144.887 116.702Z" fill="#FFA9A9" style="fill:#FFA9A9;fill:color(display-p3 1.0000 0.6627 0.6627);fill-opacity:1;"/>
<path d="M141.353 101.412C140.862 106.388 135.182 115.622 123.407 116.36L123.219 109L137.11 99.9359C139.756 99.7277 141.486 100.087 141.353 101.412Z" fill="#F28181" style="fill:#F28181;fill:color(display-p3 0.9490 0.5059 0.5059);fill-opacity:1;"/>
<path d="M113.099 73.4549C113.061 73.5498 113.023 73.6438 112.985 73.7387C111.597 77.2295 112.56 81.5625 112.844 83.6916C113.136 85.8862 111.662 92.1686 112.673 98.2419C113.685 104.307 117.559 110.333 125.894 110.844C134.239 111.345 143.121 102.367 145.899 96.7181C148.677 91.0695 146.911 85.7627 146.911 85.7627L144.945 79.9161L143.707 76.2354C132.822 78.3839 119.573 68.9414 119.573 68.9414C119.573 68.9414 116.728 72.5723 113.099 73.4549Z" fill="#FFA9A9" style="fill:#FFA9A9;fill:color(display-p3 1.0000 0.6627 0.6627);fill-opacity:1;"/>
<path d="M124.173 88.7695L122.085 94.2578C121.75 95.1376 122.191 96.1234 123.069 96.4597L124.566 97.0319" stroke="#F25369" style="stroke:#F25369;stroke:color(display-p3 0.9490 0.3255 0.4118);stroke-opacity:1;" stroke-width="0.662635" stroke-miterlimit="10" stroke-linecap="round" stroke-linejoin="round"/>
<path d="M133.816 88.2062C133.816 88.8345 133.307 89.344 132.679 89.344C132.052 89.344 131.543 88.8345 131.543 88.2062C131.543 87.5778 132.052 87.0684 132.679 87.0684C133.307 87.0684 133.816 87.5778 133.816 88.2062Z" fill="black" style="fill:black;fill-opacity:1;"/>
<path d="M118.992 88.2062C118.992 88.8345 118.483 89.344 117.855 89.344C117.228 89.344 116.719 88.8345 116.719 88.2062C116.719 87.5778 117.228 87.0684 117.855 87.0684C118.483 87.0684 118.992 87.5778 118.992 88.2062Z" fill="black" style="fill:black;fill-opacity:1;"/>
<path d="M155.419 84.2992V94.394C155.419 96.4182 153.973 98.1125 152.045 98.481C151.79 98.528 151.525 98.5565 151.261 98.5565H147.283C144.987 98.5565 143.125 96.6927 143.125 94.394V84.2992C143.125 82.0005 144.987 80.1367 147.283 80.1367H151.261C151.525 80.1367 151.79 80.1653 152.045 80.2123C153.973 80.5808 155.419 82.2742 155.419 84.2992Z" fill="#0668E1" style="fill:#0668E1;fill:color(display-p3 0.0235 0.4078 0.8824);fill-opacity:1;"/>
<path d="M155.418 84.2998V94.3947C155.418 96.4188 153.972 98.1131 152.044 98.4816C150.125 98.1131 148.68 96.4188 148.68 94.3947V84.2998C148.68 82.2748 150.125 80.5814 152.044 80.2129C153.972 80.5814 155.418 82.2748 155.418 84.2998Z" fill="#4699FF" style="fill:#4699FF;fill:color(display-p3 0.2760 0.6000 1.0000);fill-opacity:1;"/>
<path d="M146.293 95.2891C144.665 98.2677 137.703 100.425 137.703 100.425L146.293 95.2891Z" fill="#4699FF" style="fill:#4699FF;fill:color(display-p3 0.2760 0.6000 1.0000);fill-opacity:1;"/>
<path d="M146.293 95.2891C144.665 98.2677 137.703 100.425 137.703 100.425" stroke="#4699FF" style="stroke:#4699FF;stroke:color(display-p3 0.2745 0.6000 1.0000);stroke-opacity:1;" stroke-width="0.662635" stroke-miterlimit="10" stroke-linecap="round" stroke-linejoin="round"/>
<path d="M139.213 100.687C139.213 101.711 138.384 102.541 137.36 102.541C136.337 102.541 135.508 101.711 135.508 100.687C135.508 99.6621 136.337 98.832 137.36 98.832C138.384 98.832 139.213 99.6621 139.213 100.687Z" fill="#0668E1" style="fill:#0668E1;fill:color(display-p3 0.0235 0.4078 0.8824);fill-opacity:1;"/>
<path d="M120.062 83.1096C120.062 83.1096 117.838 81.114 115.648 83.1096" stroke="#211A35" style="stroke:#211A35;stroke:color(display-p3 0.1294 0.1020 0.2078);stroke-opacity:1;" stroke-width="0.662635" stroke-miterlimit="10" stroke-linecap="round"/>
<path d="M135.074 83.1096C135.074 83.1096 132.849 81.114 130.66 83.1096" stroke="#211A35" style="stroke:#211A35;stroke:color(display-p3 0.1294 0.1020 0.2078);stroke-opacity:1;" stroke-width="0.662635" stroke-miterlimit="10" stroke-linecap="round"/>
<path d="M129.559 101.176C129.559 101.176 127.393 103.03 124.75 101.513" stroke="#F25369" style="stroke:#F25369;stroke:color(display-p3 0.9490 0.3255 0.4118);stroke-opacity:1;" stroke-width="0.662635" stroke-miterlimit="10" stroke-linecap="round" stroke-linejoin="round"/>
<path d="M122.244 188.517H39.1451C37.2199 188.517 35.3711 186.955 35.0168 185.026L22.2428 115.611C21.8885 113.684 23.1612 112.121 25.0873 112.121H108.186C110.111 112.121 111.96 113.684 112.314 115.611L125.088 185.026C125.443 186.955 124.169 188.517 122.244 188.517Z" fill="#8E9AEA" style="fill:#8E9AEA;fill:color(display-p3 0.5569 0.6039 0.9176);fill-opacity:1;"/>
<path d="M117.599 188.517H34.5005C32.5754 188.517 30.7266 186.955 30.3723 185.026L17.5983 115.611C17.244 113.684 18.5167 112.121 20.4418 112.121H103.541C105.466 112.121 107.315 113.684 107.67 115.611L120.444 185.026C120.798 186.955 119.525 188.517 117.599 188.517Z" fill="#E1EBFF" style="fill:#E1EBFF;fill:color(display-p3 0.8824 0.9216 1.0000);fill-opacity:1;"/>
<path d="M105.372 184.845H88.7497C87.9454 184.845 87.293 184.191 87.293 183.386C87.293 182.581 87.9454 181.928 88.7497 181.928H105.372C106.177 181.928 106.829 182.581 106.829 183.386C106.829 184.191 106.177 184.845 105.372 184.845Z" fill="#211A35" style="fill:#211A35;fill:color(display-p3 0.1294 0.1020 0.2078);fill-opacity:1;"/>
<path d="M91.247 183.387C88.7209 188.518 89.8997 197.297 89.8997 197.297" stroke="white" style="stroke:white;stroke-opacity:1;" stroke-width="0.662635" stroke-miterlimit="10" stroke-linecap="round" stroke-linejoin="round"/>
<path d="M96.7001 183.387C94.174 188.518 95.3529 197.297 95.3529 197.297" stroke="#FF3381" style="stroke:#FF3381;stroke:color(display-p3 1.0000 0.2000 0.5059);stroke-opacity:1;" stroke-width="0.662635" stroke-miterlimit="10" stroke-linecap="round" stroke-linejoin="round"/>
<path d="M102.407 183.387C99.881 188.518 101.06 197.297 101.06 197.297" stroke="#33B6FF" style="stroke:#33B6FF;stroke:color(display-p3 0.2000 0.7137 1.0000);stroke-opacity:1;" stroke-width="0.662635" stroke-miterlimit="10" stroke-linecap="round" stroke-linejoin="round"/>
<path d="M100.427 -12.8828H60.9805V38.3007H100.427V-12.8828Z" stroke="#C7D6FF" style="stroke:#C7D6FF;stroke:color(display-p3 0.7804 0.8392 1.0000);stroke-opacity:1;" stroke-width="0.496992" stroke-miterlimit="10"/>
<path d="M94.7497 -7.49609H66.6562V32.9164H94.7497V-7.49609Z" fill="#8DB0FF" style="fill:#8DB0FF;fill:color(display-p3 0.5529 0.6902 1.0000);fill-opacity:1;"/>
<path d="M94.7497 -7.49609H66.6562V32.9164H94.7497V-7.49609Z" stroke="#C7D6FF" style="stroke:#C7D6FF;stroke:color(display-p3 0.7804 0.8392 1.0000);stroke-opacity:1;" stroke-width="0.496992" stroke-miterlimit="10"/>
<path d="M231.007 -9.48828H170.152V69.4719H231.007V-9.48828Z" stroke="#C7D6FF" style="stroke:#C7D6FF;stroke:color(display-p3 0.7804 0.8392 1.0000);stroke-opacity:1;" stroke-width="0.496992" stroke-miterlimit="10"/>
<path d="M222.249 -1.17969H178.91V61.1637H222.249V-1.17969Z" fill="#8DB0FF" style="fill:#8DB0FF;fill:color(display-p3 0.5529 0.6902 1.0000);fill-opacity:1;"/>
<path d="M222.249 -1.17969H178.91V61.1637H222.249V-1.17969Z" stroke="#C7D6FF" style="stroke:#C7D6FF;stroke:color(display-p3 0.7804 0.8392 1.0000);stroke-opacity:1;" stroke-width="0.496992" stroke-miterlimit="10"/>
</g>
<defs>
<clipPath id="clip0_19354_62133">
<rect width="252" height="258" fill="white" style="fill:white;fill-opacity:1;" transform="translate(250)"/>
</clipPath>
<clipPath id="clip1_19354_62133">
<rect width="251" height="257" fill="white" style="fill:white;fill-opacity:1;" transform="translate(-1)"/>
</clipPath>
</defs>
</svg>
