<svg width="40" height="40" viewBox="0 0 40 40" fill="none" xmlns="http://www.w3.org/2000/svg">
<circle cx="20" cy="20" r="20" fill="#CED8F2" style="fill:#CED8F2;fill:color(display-p3 0.8078 0.8471 0.9490);fill-opacity:1;"/>
<mask id="mask0_21246_79463" style="mask-type:alpha" maskUnits="userSpaceOnUse" x="0" y="0" width="40" height="40">
<path d="M20 40C31.0457 40 40 31.0457 40 20C40 8.95431 31.0457 0 20 0C8.95431 0 0 8.95431 0 20C0 31.0457 8.95431 40 20 40Z" fill="white" style="fill:white;fill-opacity:1;"/>
</mask>
<g mask="url(#mask0_21246_79463)">
<path d="M39.7199 39.9844C37.7839 34.5066 34.0799 26.8856 32.6479 26.0859L29.3919 34.4426C28.9999 33.7229 30.7439 37.0416 32.1919 39.9844H39.7199Z" fill="#FFA98F" style="fill:#FFA98F;fill:color(display-p3 1.0000 0.6627 0.5608);fill-opacity:1;"/>
<path d="M10.0876 39.9812H28.5756C28.7756 39.0376 28.9996 38.19 29.1916 37.4942C29.1916 37.4862 29.1916 37.4862 29.1916 37.4782L29.1996 37.4622C29.3356 36.9904 29.4636 36.5826 29.5676 36.2547L32.6636 26.0588C30.5996 23.8837 23.0636 22.0204 23.0636 22.0204L21.5836 21.8685C19.3516 21.6366 17.5836 21.6366 14.9356 22.3883C12.3356 23.124 8.99962 24.1716 7.56762 25.467C3.99162 28.7217 9.32762 35.495 9.32762 35.495C9.43162 36.0388 9.86362 37.4223 10.0876 39.9812Z" fill="#0568E0" style="fill:#0568E0;fill:color(display-p3 0.0196 0.4078 0.8784);fill-opacity:1;"/>
<path d="M7.64152 39.9845C8.36952 37.7374 9.12952 35.6023 9.24952 35.6343L7.29752 25.4863C5.81752 26.318 2.11352 34.3628 0.353516 39.9845H7.64152Z" fill="#FFA98F" style="fill:#FFA98F;fill:color(display-p3 1.0000 0.6627 0.5608);fill-opacity:1;"/>
<path d="M7.952 39.9827C8.064 39.5509 8.176 39.159 8.256 38.9031C8.264 38.9031 8.264 38.9031 8.272 38.9111C8.2 39.271 8.192 39.6308 8.216 39.9907H30.448C30.64 39.151 30.872 38.4073 30.96 38.0395C30.976 38.0395 30.976 38.0395 30.968 38.0395H30.976C31.088 38.3513 31.376 39.183 31.696 39.9987H39.04C39.112 39.9747 39.176 39.9507 39.24 39.9267C39.832 39.7268 40.136 39.119 39.912 38.5752C37.872 33.5453 34.096 26.8039 33.448 26.0283C31.656 23.9171 25.848 22.6776 25.56 22.5976C24.72 22.3817 23.88 22.1818 23.024 22.0059C22.416 23.3253 21.072 25.3325 20.296 27.0918C18.928 25.2446 16.976 23.1814 16.44 22.0059C15.592 22.1818 14.744 22.3737 13.904 22.5976C13.616 22.6696 7.808 23.9091 6.016 26.0283C5.08 27.1238 2.704 31.3701 0.904 36.4801C0.784 36.8559 0.536 37.9995 0 39.9827H7.952Z" fill="#3886E8" style="fill:#3886E8;fill:color(display-p3 0.2196 0.5255 0.9098);fill-opacity:1;"/>
<path d="M8.26562 38.9043C8.28163 38.9123 8.29763 38.9123 8.26562 38.9043V38.9043Z" fill="#3886E8" style="fill:#3886E8;fill:color(display-p3 0.2196 0.5255 0.9098);fill-opacity:1;"/>
<path d="M16.8725 39.9827C17.3125 33.8732 18.9125 27.1319 18.9365 27.0359L18.8005 27.0039C18.7765 27.0999 17.1685 33.8572 16.7285 39.9827H16.8725Z" fill="white" style="fill:white;fill-opacity:1;"/>
<path d="M19.5677 39.9832C19.1437 35.6329 19.5277 27.0123 19.5357 26.9084L19.3917 26.9004C19.3757 27.3242 18.9997 35.6729 19.4237 39.9752H19.5677V39.9832Z" fill="white" style="fill:white;fill-opacity:1;"/>
<path d="M19.3522 27.429C22.4052 27.429 24.8802 25.8609 24.8802 23.9264C24.8802 21.992 22.4052 20.4238 19.3522 20.4238C16.2992 20.4238 13.8242 21.992 13.8242 23.9264C13.8242 25.8609 16.2992 27.429 19.3522 27.429Z" fill="#3886E8" style="fill:#3886E8;fill:color(display-p3 0.2196 0.5255 0.9098);fill-opacity:1;"/>
<path d="M24.7122 22.9512C24.9762 23.9108 24.8162 25.0064 24.1602 25.7501C24.0962 25.854 23.9842 25.926 23.9042 26.0139C23.8082 26.0939 23.7362 26.1899 23.6242 26.2539C23.4162 26.3818 23.2242 26.5417 22.9922 26.6377C22.7682 26.7417 22.5522 26.8616 22.3042 26.9176L21.9522 27.0295L21.7762 27.0855L21.5922 27.1175L20.8642 27.2614C20.6162 27.2934 20.3682 27.3094 20.1202 27.3414L19.7522 27.3814C19.6322 27.3894 19.5042 27.3814 19.3842 27.3814L19.0162 27.3734C18.8962 27.3654 18.7682 27.3574 18.6482 27.3414C18.1522 27.2854 17.6642 27.1895 17.1842 27.0375C16.7042 26.8936 16.2482 26.6937 15.8242 26.4138C16.6402 27.0135 17.6322 27.3094 18.6242 27.4454C18.7522 27.4614 18.8722 27.4774 19.0002 27.4854L19.3762 27.4934C19.5042 27.4934 19.6322 27.5014 19.7522 27.4934L20.1282 27.4614C20.3762 27.4374 20.6322 27.4214 20.8802 27.3894L21.6242 27.2455L21.8082 27.2055L21.9922 27.1495L22.3522 27.0375C22.6002 26.9736 22.8242 26.8536 23.0482 26.7417C23.2882 26.6457 23.4802 26.4778 23.6962 26.3418C23.8082 26.2778 23.8882 26.1739 23.9842 26.0939C24.0722 25.998 24.1762 25.926 24.2482 25.814C24.5842 25.4222 24.7682 24.9264 24.8482 24.4306C24.9122 23.9428 24.8722 23.423 24.7122 22.9512Z" fill="#226CBC" style="fill:#226CBC;fill:color(display-p3 0.1333 0.4235 0.7373);fill-opacity:1;"/>
<path d="M14.319 22.5117C14.111 22.7116 13.951 22.9515 13.823 23.2154C13.695 23.4793 13.623 23.7672 13.623 24.0631C13.623 24.215 13.655 24.359 13.687 24.5029C13.743 24.6389 13.791 24.7828 13.887 24.8948C13.967 25.0227 14.079 25.1187 14.175 25.2226C14.287 25.3186 14.407 25.3906 14.527 25.4705C14.319 25.2706 14.111 25.0787 13.975 24.8388C13.831 24.6069 13.751 24.335 13.759 24.0631C13.751 23.7912 13.823 23.5193 13.919 23.2554C14.015 22.9995 14.151 22.7516 14.319 22.5117Z" fill="#226CBC" style="fill:#226CBC;fill:color(display-p3 0.1333 0.4235 0.7373);fill-opacity:1;"/>
<path d="M22.4961 17.8484L18.1281 12.8184L16.1361 17.5925L16.4801 18.5761L16.0801 22.0707C17.6321 24.8376 21.8481 24.4937 22.5121 22.8144L22.4961 17.8484Z" fill="#FFA98F" style="fill:#FFA98F;fill:color(display-p3 1.0000 0.6627 0.5608);fill-opacity:1;"/>
<path d="M24.3437 10.0336C25.5197 11.8489 25.9917 16.0233 24.2717 19.0221C23.5357 20.3015 19.6957 20.2376 18.4957 19.19C17.4477 18.2784 15.7117 12.8565 17.0717 11.2891C18.4157 9.71378 23.0957 7.3947 24.3437 10.0336Z" fill="#FFA98F" style="fill:#FFA98F;fill:color(display-p3 1.0000 0.6627 0.5608);fill-opacity:1;"/>
<path d="M18.7679 11.8442C18.5119 11.7242 18.2799 11.5803 18.0479 11.4283C17.1999 10.8606 16.3999 10.1488 15.8959 9.29319C15.8479 9.20523 15.7999 9.11726 15.7519 9.0293C15.6479 9.07728 15.5439 9.12526 15.4479 9.18124C14.5599 9.69303 13.9279 10.5727 13.7759 11.5323C13.6479 12.324 13.5439 13.6355 14.3759 14.4591C14.7679 14.851 15.1679 15.2828 15.3359 15.7946L16.2159 17.8338C16.2159 17.8338 17.1839 16.9701 17.2879 16.8662C17.6639 16.4983 17.7599 16.0745 18.0319 15.6507C18.7359 14.5791 19.0959 13.1237 19.2879 12.0841C19.1279 12.0041 18.9439 11.9241 18.7679 11.8442Z" fill="#061728" style="fill:#061728;fill:color(display-p3 0.0235 0.0902 0.1569);fill-opacity:1;"/>
<path d="M18.7217 15.0567C18.4577 14.7368 18.1217 14.3849 17.7137 14.4009C17.5057 14.4089 17.3217 14.5289 17.1937 14.6808C16.5377 15.4565 16.6897 16.76 17.6017 17.3198C17.9857 17.5517 18.4737 17.6236 18.7217 17.1838L18.8177 15.2886C18.8417 15.2166 18.7777 15.1286 18.7217 15.0567Z" fill="#FFA98F" style="fill:#FFA98F;fill:color(display-p3 1.0000 0.6627 0.5608);fill-opacity:1;"/>
<path d="M22.5687 19.976C22.5367 19.976 19.7287 20.256 18.3047 18.832L18.4007 18.752C19.7847 20.128 22.5287 19.864 22.5527 19.856L22.5687 19.976Z" fill="#061728" style="fill:#061728;fill:color(display-p3 0.0235 0.0902 0.1569);fill-opacity:1;"/>
<path d="M22.3127 16.1783L22.3047 16.0584L22.7287 16.0264C22.8967 16.0104 23.0487 15.9304 23.1447 15.7945C23.2407 15.6665 23.2647 15.4986 23.2087 15.3546L22.6087 13.6513L22.7287 13.6113L23.3287 15.3146C23.3927 15.4986 23.3607 15.6985 23.2487 15.8584C23.1287 16.0184 22.9447 16.1223 22.7367 16.1383L22.3127 16.1783Z" fill="#061728" style="fill:#061728;fill:color(display-p3 0.0235 0.0902 0.1569);fill-opacity:1;"/>
<path d="M21.1287 13.6174C21.1847 13.7374 21.1847 13.9134 21.1927 14.0094C21.2167 14.1934 21.0087 14.2974 20.8247 14.2574C20.4807 14.1774 20.5047 13.4414 20.9207 13.4654C21.0247 13.4734 21.0887 13.5374 21.1287 13.6174Z" fill="#061728" style="fill:#061728;fill:color(display-p3 0.0235 0.0902 0.1569);fill-opacity:1;"/>
<path d="M24.2322 13.553C24.2882 13.673 24.2882 13.849 24.2962 13.945C24.3202 14.129 24.1122 14.233 23.9282 14.193C23.5842 14.113 23.6082 13.377 24.0242 13.401C24.1362 13.409 24.1922 13.465 24.2322 13.553Z" fill="#061728" style="fill:#061728;fill:color(display-p3 0.0235 0.0902 0.1569);fill-opacity:1;"/>
<path d="M23.4819 16.962L20.9219 16.666C20.9219 16.666 21.1779 18.098 22.1699 18.186C23.3219 18.298 23.4819 16.962 23.4819 16.962Z" fill="white" style="fill:white;fill-opacity:1;"/>
<path d="M23.5844 9.97178L25.1524 11.851C25.1524 11.851 24.5364 9.57194 23.9604 9.26806C23.3844 8.96418 23.5844 9.97178 23.5844 9.97178Z" fill="#061728" style="fill:#061728;fill:color(display-p3 0.0235 0.0902 0.1569);fill-opacity:1;"/>
<path d="M18.3523 17.4797C17.7123 17.5677 17.1763 17.0397 17.1523 17.0077L17.2483 16.9277C17.2563 16.9357 17.9123 17.5837 18.5763 17.2877L18.6323 17.3917C18.5363 17.4397 18.4403 17.4717 18.3523 17.4797Z" fill="#061728" style="fill:#061728;fill:color(display-p3 0.0235 0.0902 0.1569);fill-opacity:1;"/>
<path d="M16.6896 7.81967C15.7936 8.05957 15.4016 8.19552 14.9936 8.48341C14.6496 8.72331 13.8496 9.507 13.8496 10.1547C13.8416 11.2983 16.2576 12.2979 18.4176 12.2899C18.8256 12.2899 19.6256 12.114 20.7696 11.7701C23.2896 11.0184 26.0816 9.58697 25.4256 6.59616C25.4256 6.59616 25.0656 7.21191 24.6176 7.30788C24.6176 7.30788 25.2096 5.36465 22.8736 4.37305C23.0016 4.42902 22.0576 5.52459 21.9936 5.57257C21.0976 6.36425 20.2176 6.90004 19.3776 7.19592C18.5696 7.47581 18.5696 7.32387 16.6896 7.81967Z" fill="#061728" style="fill:#061728;fill:color(display-p3 0.0235 0.0902 0.1569);fill-opacity:1;"/>
<path d="M19.873 12.724C19.929 12.588 20.041 12.476 20.169 12.388C20.297 12.3 20.449 12.244 20.609 12.22C20.929 12.164 21.281 12.268 21.473 12.5C21.313 12.5 21.177 12.492 21.041 12.5C20.913 12.5 20.785 12.516 20.665 12.532C20.417 12.58 20.177 12.652 19.873 12.724Z" fill="#061728" style="fill:#061728;fill:color(display-p3 0.0235 0.0902 0.1569);fill-opacity:1;"/>
<path d="M23.377 12.3794C23.393 12.2514 23.473 12.1474 23.569 12.0674C23.673 11.9874 23.809 11.9314 23.945 11.9234C24.081 11.9154 24.225 11.9394 24.345 11.9954C24.409 12.0194 24.457 12.0674 24.505 12.0994C24.553 12.1474 24.593 12.1874 24.625 12.2434C24.553 12.2514 24.497 12.2434 24.433 12.2434C24.377 12.2434 24.321 12.2354 24.265 12.2354C24.161 12.2274 24.065 12.2354 23.977 12.2434C23.801 12.2514 23.633 12.2994 23.377 12.3794Z" fill="#061728" style="fill:#061728;fill:color(display-p3 0.0235 0.0902 0.1569);fill-opacity:1;"/>
</g>
<mask id="mask1_21246_79463" style="mask-type:alpha" maskUnits="userSpaceOnUse" x="0" y="0" width="40" height="40">
<path d="M20 40C31.0457 40 40 31.0457 40 20C40 8.95431 31.0457 0 20 0C8.95431 0 0 8.95431 0 20C0 31.0457 8.95431 40 20 40Z" fill="white" style="fill:white;fill-opacity:1;"/>
</mask>
<g mask="url(#mask1_21246_79463)">
</g>
</svg>
