<svg width="40" height="40" viewBox="0 0 40 40" fill="none" xmlns="http://www.w3.org/2000/svg">
<circle cx="20" cy="20" r="20" fill="#CED8F2" style="fill:#CED8F2;fill:color(display-p3 0.8078 0.8471 0.9490);fill-opacity:1;"/>
<mask id="mask0_21246_79326" style="mask-type:alpha" maskUnits="userSpaceOnUse" x="0" y="0" width="40" height="40">
<path d="M20 40C31.0457 40 40 31.0457 40 20C40 8.95431 31.0457 0 20 0C8.95431 0 0 8.95431 0 20C0 31.0457 8.95431 40 20 40Z" fill="#CED8F2" style="fill:#CED8F2;fill:color(display-p3 0.8078 0.8471 0.9490);fill-opacity:1;"/>
</mask>
<g mask="url(#mask0_21246_79326)">
<path d="M25.166 12.5746C25.7672 10.1359 24.8957 9.00019 24.1096 8.39547C23.7366 7.49781 23.311 6.8509 22.8758 6.60698C22.0822 6.16201 21.1311 6.11353 20.4658 6.15231C20.6372 5.97792 20.9741 5.91435 20.9741 5.91435C20.5617 5.85387 19.6408 6.25742 19.6408 6.25742C13.9026 4.07673 13.0007 12.4099 13.1214 14.346C13.2409 16.2818 13.2251 18.562 10.2396 20.0873C4.54342 22.9977 12.1327 33.9656 12.1327 33.9656C11.9878 32.4012 19.3068 24.1449 23.1252 21.6724C24.0547 20.3226 24.3851 17.9383 24.4098 17.7506C24.2493 19.6411 23.9214 20.7016 23.6285 21.2987C25.3687 19.719 25.6267 15.9253 25.166 12.5746Z" fill="#1B1C17" style="fill:#1B1C17;fill:color(display-p3 0.1059 0.1098 0.0902);fill-opacity:1;"/>
<path d="M22.9002 21.7966C22.9195 21.8051 21.0566 22.759 19.6555 22.3811C18.3375 22.0266 17.4762 20.3411 17.4944 20.3374C18.0526 20.2281 18.2136 19.4716 18.2017 16.2207L18.4541 16.2697L22.6966 17.0983C22.6966 17.0983 22.6001 18.4153 22.5972 19.6558C22.5943 20.6975 22.6585 21.6855 22.9002 21.7966Z" fill="#FFB27D" style="fill:#FFB27D;fill:color(display-p3 1.0000 0.6980 0.4902);fill-opacity:1;"/>
<path d="M22.6953 17.0981C22.6953 17.0981 22.5988 18.4151 22.5959 19.6556C20.2217 19.5896 18.9669 17.4535 18.4527 16.2695L22.6953 17.0981Z" fill="#ED975D" style="fill:#ED975D;fill:color(display-p3 0.9294 0.5922 0.3647);fill-opacity:1;"/>
<path d="M27.2352 37.3328C27.2008 43.7237 28.1858 46.4656 28.1858 46.4656C28.1858 46.4656 22.3556 49.3872 15.4264 47.2365C15.3448 47.2112 9.68904 45.9381 9.68904 45.9381C9.80498 45.6793 10.8362 41.3724 10.9491 41.1351C12.4122 38.0364 13.523 36.6777 13.6965 35.7251C14.0184 33.9466 14.0254 32.1064 13.865 30.3708C13.4424 25.7764 12.1848 21.9623 12.1848 21.9623C14.0728 21.5386 15.8409 20.7943 17.806 20.0674C18.258 20.6226 19.6398 21.2034 20.8384 21.1768C22.2186 21.1469 22.6661 20.564 22.5946 19.9277C24.0655 20.7349 25.2392 21.4975 25.2392 21.4975C26.4893 23.6392 29.0246 25.7191 29.2082 29.0045C29.2536 29.8123 27.2362 37.1538 27.2352 37.3328Z" fill="white" style="fill:white;fill-opacity:1;"/>
<path d="M15.5226 38.044C14.9274 38.875 13.7862 43.9251 10.947 44.56C12.41 40.9606 13.5209 39.3824 13.6944 38.2757C14.0163 36.21 14.0233 34.0724 13.8629 32.0563C14.8134 30.4134 15.5226 29.2868 15.5226 29.2868C15.5973 29.0211 17.0329 24.6427 17.4931 28.5564C17.9521 32.4713 16.1876 37.1145 15.5226 38.044Z" fill="#5F9AA8" style="fill:#5F9AA8;fill:color(display-p3 0.3725 0.6039 0.6588);fill-opacity:1;"/>
<path d="M23.4905 18.2722C23.4905 18.2722 17.8734 18.3636 17.8695 14.9126C17.8657 11.4615 17.1381 9.1492 20.7243 8.94495C24.3105 8.7407 25.0088 10.0568 25.2942 11.2083C25.5795 12.36 24.9515 18.1596 23.4905 18.2722Z" fill="#FFB27D" style="fill:#FFB27D;fill:color(display-p3 1.0000 0.6980 0.4902);fill-opacity:1;"/>
<path d="M23.2812 8.85961C23.2812 8.85961 21.7433 12.9083 19.3832 13.507C17.0229 14.1056 15.999 13.4819 15.999 13.4819C15.999 13.4819 17.8094 12.0634 18.1852 9.58717C18.1852 9.58717 22.1211 6.93264 23.2812 8.85961Z" fill="#1B1C17" style="fill:#1B1C17;fill:color(display-p3 0.1059 0.1098 0.0902);fill-opacity:1;"/>
<path d="M22.902 9.18949C22.902 9.18949 24.0506 10.0934 24.3305 10.9722C24.6107 11.8511 24.7366 13.6601 25.2712 13.5986C25.2712 13.5986 26.4298 10.8466 25.1277 9.28996C23.7469 7.63919 22.902 9.18949 22.902 9.18949Z" fill="#1B1C17" style="fill:#1B1C17;fill:color(display-p3 0.1059 0.1098 0.0902);fill-opacity:1;"/>
<path d="M25.1759 21.0254C25.1759 21.0254 28.3042 22.2498 29.2095 24.1586C30.1148 26.0674 31.4858 38.8714 32.0318 40.1862C32.5778 41.5011 32.9883 42.5422 32.9883 42.5422C32.9883 42.5422 31.4111 43.8529 29.8248 43.9494C28.2386 44.0459 25.1759 21.0254 25.1759 21.0254Z" fill="#0374FF" style="fill:#0374FF;fill:color(display-p3 0.0106 0.4533 1.0000);fill-opacity:1;"/>
<path d="M22.5932 19.9277C22.5932 19.9277 25.843 27.8462 25.9385 29.4489C26.034 31.0514 26.3209 55.655 26.3209 55.655C26.3209 55.655 26.1298 56.7862 28.328 56.3148C30.5263 55.8434 31.0996 55.3721 31.0996 55.3721C31.0996 55.3721 28.997 40.1952 29.5705 34.9162C30.144 29.6373 25.174 21.0277 25.174 21.0277L22.5932 19.9277Z" fill="#0374FF" style="fill:#0374FF;fill:color(display-p3 0.0106 0.4533 1.0000);fill-opacity:1;"/>
<path d="M17.5303 55.1823C17.5303 55.1823 16.7017 58.1357 13.8344 57.7586C10.9671 57.3816 6.88985 55.6847 6.88985 55.6847C6.88985 55.6847 8.11518 51.8661 9.63854 46.8492C11.4832 40.7755 13.7665 32.9457 14.8427 28.0072C15.1446 26.6232 15.3512 25.4676 15.4276 24.64L17.8064 20.0879C17.8064 20.0879 21.3533 27.9394 21.5445 29.9189C21.7356 31.8985 17.5303 55.1823 17.5303 55.1823Z" fill="#0374FF" style="fill:#0374FF;fill:color(display-p3 0.0106 0.4533 1.0000);fill-opacity:1;"/>
<path d="M14.6655 29.6221L17.8051 20.0859C17.7966 20.0898 13.8398 21.2471 11.8494 22.239C11.8494 22.239 10.6053 23.8209 9.8356 27.4706C9.8356 27.4706 9.02232 36.2329 10.8382 39.4379C10.8382 39.4379 16.5728 40.5691 25.748 37.4583V35.3845C25.748 35.3845 15.7125 35.9029 13.6577 36.1386L14.6655 29.6221Z" fill="#FFB27D" style="fill:#FFB27D;fill:color(display-p3 1.0000 0.6980 0.4902);fill-opacity:1;"/>
<path d="M17.4018 34.0672C17.2738 37.2724 16.509 43.4938 9.69159 46.8244C9.6735 46.8328 9.6554 46.8423 9.63719 46.8498C11.4819 40.7762 13.7652 32.9464 14.8414 28.0078C16.0933 29.8535 17.4715 32.3026 17.4018 34.0672Z" fill="#0668E1" style="fill:#0668E1;fill:color(display-p3 0.0235 0.4078 0.8824);fill-opacity:1;"/>
<path d="M17.8042 20.0859C17.8042 20.0859 11.9842 20.4904 10.5824 23.5697C9.18068 26.649 8.73454 36.8928 10.5187 39.9092C10.5187 39.9092 12.975 40.5992 17.3193 39.798C17.3726 39.7881 17.4261 39.778 17.4799 39.7679C17.4799 39.7679 18.8658 36.4214 17.6232 35.7616C17.6232 35.7616 13.9595 35.9501 14.3419 34.756C14.724 33.562 17.8042 20.0859 17.8042 20.0859Z" fill="#0374FF" style="fill:#0374FF;fill:color(display-p3 0.0106 0.4533 1.0000);fill-opacity:1;"/>
<path d="M32.3945 36.6683L32.2231 37.2118L22.6731 34.2816C22.6731 34.2816 22.5457 34.1385 22.6085 33.9486C22.678 33.7387 22.8445 33.7383 22.8445 33.7383L32.3945 36.6683Z" fill="#263238" style="fill:#263238;fill:color(display-p3 0.1490 0.1961 0.2196);fill-opacity:1;"/>
<path d="M33.0879 37.1834L32.3973 36.6699L32.2258 37.2133L33.0879 37.1834Z" fill="#263238" style="fill:#263238;fill:color(display-p3 0.1490 0.1961 0.2196);fill-opacity:1;"/>
<path d="M25.7472 35.3867C25.7472 35.3867 27.9137 34.0707 28.8226 34.2731C29.7316 34.4756 32.0478 36.1302 30.9336 36.4885C29.8194 36.8468 28.9172 36.4709 28.4887 36.7311C28.0603 36.9913 27.7439 37.467 25.7471 37.4605C23.7505 37.454 25.7472 35.3867 25.7472 35.3867Z" fill="#FFB27D" style="fill:#FFB27D;fill:color(display-p3 1.0000 0.6980 0.4902);fill-opacity:1;"/>
</g>
</svg>
