<svg width="40" height="40" viewBox="0 0 40 40" fill="none" xmlns="http://www.w3.org/2000/svg">
<circle cx="20" cy="20" r="20" fill="#CED8F2" style="fill:#CED8F2;fill:color(display-p3 0.8078 0.8471 0.9490);fill-opacity:1;"/>
<mask id="mask0_21246_79365" style="mask-type:alpha" maskUnits="userSpaceOnUse" x="0" y="0" width="40" height="40">
<path d="M20 40C31.0457 40 40 31.0457 40 20C40 8.95431 31.0457 0 20 0C8.95431 0 0 8.95431 0 20C0 31.0457 8.95431 40 20 40Z" fill="#CED8F2" style="fill:#CED8F2;fill:color(display-p3 0.8078 0.8471 0.9490);fill-opacity:1;"/>
</mask>
<g mask="url(#mask0_21246_79365)">
<mask id="mask1_21246_79365" style="mask-type:luminance" maskUnits="userSpaceOnUse" x="0" y="0" width="40" height="41">
<path d="M40 0.46875H0V40.9407H40V0.46875Z" fill="white" style="fill:white;fill-opacity:1;"/>
</mask>
<g mask="url(#mask1_21246_79365)">
<path d="M24.7181 7.9668C24.7181 7.9668 25.6701 9.99818 24.7981 12.1934L23.4941 11.9722L23.6301 8.77771L24.7181 7.9668Z" fill="#071A22" style="fill:#071A22;fill:color(display-p3 0.0275 0.1020 0.1333);fill-opacity:1;"/>
<path d="M11.223 45.154H26.895C26.855 43.6632 26.847 42.3363 26.879 41.6646C27.047 38.6585 27.607 35.9473 28.055 34.178C28.055 34.1698 28.055 34.1698 28.055 34.1698L28.063 34.1534C28.183 33.6947 28.295 33.2934 28.383 32.9739L31.095 23.0136C29.287 20.8839 23.039 19.3113 23.039 19.3113L18.927 19C18.927 19 10.983 21.7358 9.12695 22.4402C9.76695 26.9044 10.663 32.2367 10.663 32.2367C10.839 33.1951 11.935 36.8155 11.223 45.154Z" fill="white" style="fill:white;fill-opacity:1;"/>
<path d="M20.9987 4.61776C20.9987 4.61776 24.7987 5.05188 24.5187 11.5228C24.4467 13.2839 24.4787 14.488 23.9187 15.4873C22.7747 17.5269 20.3747 17.9446 19.8627 17.8873C19.3667 17.8299 17.2067 17.2647 16.6707 15.8395C15.9667 13.9637 15.5347 12.858 15.6547 9.69621C15.6627 9.7044 16.0787 3.99524 20.9987 4.61776Z" fill="#FFA98F" style="fill:#FFA98F;fill:color(display-p3 1.0000 0.6627 0.5608);fill-opacity:1;"/>
<path d="M22.7505 16.0199C22.7505 16.0199 22.6145 18.6656 22.8545 19.2472C23.1025 19.8206 19.6305 21.6472 17.4785 19.5666C17.4785 19.5666 17.9185 16.3885 17.7825 15.3646C17.6465 14.3489 22.7505 16.0199 22.7505 16.0199Z" fill="#FFA98F" style="fill:#FFA98F;fill:color(display-p3 1.0000 0.6627 0.5608);fill-opacity:1;"/>
<path d="M17.0723 19.6225C17.0723 19.6225 18.1523 21.5392 20.1923 21.7194C21.4883 21.8341 22.6083 20.1549 23.1363 19.3276C23.1363 19.3358 20.2323 18.058 17.0723 19.6225Z" fill="#FFA98F" style="fill:#FFA98F;fill:color(display-p3 1.0000 0.6627 0.5608);fill-opacity:1;"/>
<path d="M20.1917 21.0078L21.3677 22.3921C21.3677 22.3921 20.0077 23.0064 19.0957 22.4085L20.1917 21.0078Z" fill="#05387D" style="fill:#05387D;fill:color(display-p3 0.0196 0.2196 0.4902);fill-opacity:1;"/>
<path d="M23.6964 45.1545H28.8004C28.2084 43.0576 27.7604 41.2228 27.7844 40.502C27.8564 38.4215 32.1844 22.7274 32.1844 22.7274C32.1844 22.7274 29.7764 21.122 23.1364 19.3281C23.1364 19.3281 21.9604 28.3383 22.1204 36.1116C22.1684 38.6836 22.8324 41.9436 23.6964 45.1545Z" fill="#0745B4" style="fill:#0745B4;fill:color(display-p3 0.0275 0.2706 0.7059);fill-opacity:1;"/>
<path d="M10.4959 45.1562H16.2879C16.4559 41.9208 16.5999 38.6607 16.6479 36.1133C16.8079 28.34 16.7999 19.7148 16.7999 19.7148C9.41594 21.7298 7.33594 23.1387 7.33594 23.1387C7.33594 23.1387 10.9199 38.4314 10.9919 40.5119C11.0159 41.1672 10.7999 42.9856 10.4959 45.1562Z" fill="#0745B4" style="fill:#0745B4;fill:color(display-p3 0.0275 0.2706 0.7059);fill-opacity:1;"/>
<path d="M20.8626 45.1543C20.7426 38.6997 20.5426 25.5613 20.7346 22.2521L19.7426 22.0801C19.7426 22.0801 18.3586 26.9128 18.2386 36.5045C18.1906 40.4444 18.2066 43.2294 18.2466 45.1461H20.8626V45.1543Z" fill="#05387D" style="fill:#05387D;fill:color(display-p3 0.0196 0.2196 0.4902);fill-opacity:1;"/>
<path d="M32.0941 40.0935C32.1021 40.5932 31.1261 42.7556 29.9661 45.1556H35.7901C36.8781 43.2553 37.6861 41.7563 37.7181 41.4614C37.8061 40.6341 33.8861 23.7934 32.1821 22.7285L29.0781 32.0335C29.2781 31.9762 32.0781 39.1761 32.0941 40.0935Z" fill="#0745B4" style="fill:#0745B4;fill:color(display-p3 0.0275 0.2706 0.7059);fill-opacity:1;"/>
<path d="M3.22461 45.1562H8.47261C8.57661 44.0996 8.64061 43.346 8.64861 43.1084C8.66461 42.191 10.1926 32.4683 10.3926 32.5338L7.34461 23.1387C5.64061 24.2117 3.15261 41.7897 3.24061 42.6252C3.25661 42.8218 3.24861 43.7883 3.22461 45.1562Z" fill="#0745B4" style="fill:#0745B4;fill:color(display-p3 0.0275 0.2706 0.7059);fill-opacity:1;"/>
<path d="M16.1745 42.7209L14.9745 33.3995L15.9985 32.1463L14.6465 32.0398L16.2865 20.6133L16.4145 20.6379L14.7985 31.9087L16.2705 32.0234L15.1185 33.4405L16.3105 42.7045L16.1745 42.7209Z" fill="#0A1726" style="fill:#0A1726;fill:color(display-p3 0.0392 0.0902 0.1490);fill-opacity:1;"/>
<path d="M23.2635 42.0502L23.1275 42.0339L23.9915 33.4578L22.8555 32.8189L23.9435 31.9998L23.2955 19.9672L23.4315 19.959L24.0795 32.0654L23.1035 32.8026L24.1355 33.3841V33.4251L23.2635 42.0502Z" fill="#0A1726" style="fill:#0A1726;fill:color(display-p3 0.0392 0.0902 0.1490);fill-opacity:1;"/>
<path d="M17.5685 18.9844C17.5685 18.9844 18.6165 20.3277 20.1925 21.0076L18.3845 23.3748L16.0645 19.8854L17.5685 18.9844Z" fill="#6AA8E5" style="fill:#6AA8E5;fill:color(display-p3 0.4157 0.6588 0.8980);fill-opacity:1;"/>
<path d="M22.7594 18.7305C22.7594 18.7305 21.9354 19.8281 20.1914 21.0076L21.9034 23.0226L24.2634 19.5905L22.7594 18.7305Z" fill="#6AA8E5" style="fill:#6AA8E5;fill:color(display-p3 0.4157 0.6588 0.8980);fill-opacity:1;"/>
<path d="M16.7204 8.17665C16.8404 8.1275 16.9604 8.07017 17.0804 8.0374C17.4484 7.93911 17.8244 7.83263 18.1924 7.91454C18.5044 7.98006 18.7844 8.18484 19.1044 8.15208C19.4884 8.11931 19.7844 7.74252 19.9204 7.36574C20.0324 7.04629 20.1524 6.63673 20.4724 6.60397C20.9124 6.56301 21.0404 7.27563 21.4484 7.40669C21.5844 7.44765 21.7364 7.42307 21.8804 7.40669C22.2004 7.38212 22.5444 7.43126 22.8244 7.60328C23.0484 7.74252 23.2004 7.98826 23.2644 8.25037C23.3524 8.63535 23.5284 8.81555 23.8884 9.02852C24.4964 9.39712 25.1124 9.08586 25.5444 8.54525C25.5684 8.51248 25.5924 8.47972 25.6164 8.44695C26.0164 7.8572 25.9684 6.97257 25.4644 6.48929C25.2324 6.26814 25.1764 6.23537 24.9444 6.01421C24.4724 5.54732 24.4164 4.77736 24.0244 4.22856C23.3044 3.21287 21.9204 3.67157 20.8884 3.48318C20.3924 3.39308 19.9044 3.26202 19.4084 3.18011C18.6404 3.04905 17.8244 3.04905 17.0804 3.33574C15.8244 3.81082 15.4004 4.73641 15.0324 6.06336C14.6644 7.39031 12.8724 8.50429 15.5844 12.3213L16.3204 12.2394C16.3284 12.2476 15.5924 8.59439 16.7204 8.17665Z" fill="#071A22" style="fill:#071A22;fill:color(display-p3 0.0275 0.1020 0.1333);fill-opacity:1;"/>
<path d="M15.6139 10.9808C15.6139 10.9808 14.3499 10.8579 14.5659 12.4306C14.7819 14.0033 16.2939 13.5855 16.2939 13.5855L15.6139 10.9808Z" fill="#FFA98F" style="fill:#FFA98F;fill:color(display-p3 1.0000 0.6627 0.5608);fill-opacity:1;"/>
<path d="M24.6155 10.3186C24.6155 10.3186 25.8795 10.1958 25.6635 11.7685C25.4475 13.3411 23.9355 12.9234 23.9355 12.9234L24.6155 10.3186Z" fill="#FFA98F" style="fill:#FFA98F;fill:color(display-p3 1.0000 0.6627 0.5608);fill-opacity:1;"/>
<path d="M24.2158 8.98212C24.2158 8.98212 24.5038 10.776 24.1758 11.6934L24.6238 11.7753C24.6238 11.7753 24.8558 10.522 24.8798 10.0961C24.8958 9.76846 24.7438 8.77734 24.7438 8.77734L24.2158 8.98212Z" fill="#071A22" style="fill:#071A22;fill:color(display-p3 0.0275 0.1020 0.1333);fill-opacity:1;"/>
<path d="M17.3916 9.06459C18.0716 8.88439 18.7996 8.85982 19.4796 8.99906L19.5116 8.82705C18.8076 8.6878 18.0636 8.71238 17.3516 8.90077L17.3916 9.06459Z" fill="#2C2C2C" style="fill:#2C2C2C;fill:color(display-p3 0.1725 0.1725 0.1725);fill-opacity:1;"/>
<path d="M21.3676 9.24516C22.0716 9.15506 22.7836 9.22059 23.4476 9.44175L23.5036 9.27793C22.8236 9.04858 22.0796 8.98305 21.3516 9.08134L21.3676 9.24516Z" fill="#2C2C2C" style="fill:#2C2C2C;fill:color(display-p3 0.1725 0.1725 0.1725);fill-opacity:1;"/>
<path d="M19.0781 14.4555L21.7581 14.4473C21.7581 14.4473 21.7421 15.635 20.3581 15.5858C19.9741 15.5694 19.1741 15.2418 19.0781 14.4555Z" fill="#E5F4F6" style="fill:#E5F4F6;fill:color(display-p3 0.8980 0.9569 0.9647);fill-opacity:1;"/>
<path d="M20.3099 13.4097C20.3019 13.4097 20.3019 13.4097 20.2939 13.4097C20.1819 13.4097 20.0699 13.4097 19.9819 13.336C19.8379 13.2131 19.8459 12.992 19.8619 12.8363C19.8699 12.7462 19.8859 12.6152 19.9019 12.4595C19.9659 11.8862 20.0619 11.0261 20.1419 10.7148L20.2699 10.7476C20.1979 11.0507 20.1019 11.9107 20.0379 12.4759C20.0219 12.6315 20.0059 12.7626 19.9979 12.8527C19.9819 12.9756 19.9739 13.1558 20.0699 13.2377C20.1259 13.2786 20.1979 13.2868 20.3019 13.2868C20.6059 13.2786 20.9019 13.2213 21.1899 13.123L21.2299 13.2459C20.9179 13.336 20.6139 13.3933 20.3099 13.4097Z" fill="#2C2C2C" style="fill:#2C2C2C;fill:color(display-p3 0.1725 0.1725 0.1725);fill-opacity:1;"/>
<path d="M18.7444 11.2434C18.7604 11.481 18.6244 11.6858 18.4564 11.7021C18.2804 11.7185 18.1284 11.5383 18.1204 11.3008C18.1044 11.0632 18.2404 10.8585 18.4084 10.8421C18.5764 10.8339 18.7284 11.0059 18.7444 11.2434Z" fill="#2C2C2C" style="fill:#2C2C2C;fill:color(display-p3 0.1725 0.1725 0.1725);fill-opacity:1;"/>
<path d="M22.5608 11.2434C22.5768 11.481 22.4408 11.6858 22.2728 11.7021C22.0968 11.7185 21.9448 11.5383 21.9368 11.3008C21.9208 11.0632 22.0568 10.8585 22.2248 10.8421C22.4008 10.8339 22.5528 11.0059 22.5608 11.2434Z" fill="#2C2C2C" style="fill:#2C2C2C;fill:color(display-p3 0.1725 0.1725 0.1725);fill-opacity:1;"/>
<path d="M18.446 13.0868C17.742 13.0868 17.166 12.3823 17.166 11.5141C17.166 10.6458 17.742 9.94141 18.446 9.94141C19.15 9.94141 19.726 10.6458 19.726 11.5141C19.726 12.3823 19.158 13.0868 18.446 13.0868ZM18.446 10.0888C17.814 10.0888 17.302 10.7277 17.302 11.5223C17.302 12.3168 17.814 12.9557 18.446 12.9557C19.078 12.9557 19.59 12.3168 19.59 11.5223C19.59 10.7277 19.086 10.0888 18.446 10.0888Z" fill="#183862" style="fill:#183862;fill:color(display-p3 0.0941 0.2196 0.3843);fill-opacity:1;"/>
<path d="M22.2722 13.0555C21.5682 13.0555 20.9922 12.3511 20.9922 11.4828C20.9922 10.6146 21.5682 9.91016 22.2722 9.91016C22.9762 9.91016 23.5522 10.6146 23.5522 11.4828C23.5522 12.3511 22.9842 13.0555 22.2722 13.0555ZM22.2722 10.0494C21.6402 10.0494 21.1282 10.6883 21.1282 11.4828C21.1282 12.2774 21.6402 12.9163 22.2722 12.9163C22.9042 12.9163 23.4162 12.2774 23.4162 11.4828C23.4162 10.6883 22.9122 10.0494 22.2722 10.0494Z" fill="#183862" style="fill:#183862;fill:color(display-p3 0.0941 0.2196 0.3843);fill-opacity:1;"/>
<path d="M19.6875 11.2771V11.1297C19.7435 11.1297 21.0235 11.1133 21.0235 11.1133V11.2525C21.0235 11.2525 19.7355 11.2771 19.6875 11.2771Z" fill="#183862" style="fill:#183862;fill:color(display-p3 0.0941 0.2196 0.3843);fill-opacity:1;"/>
<path d="M16.0261 10.8571L15.9863 10.9902L17.1798 11.3637L17.2195 11.2306L16.0261 10.8571Z" fill="#183862" style="fill:#183862;fill:color(display-p3 0.0941 0.2196 0.3843);fill-opacity:1;"/>
<path d="M24.3946 10.6821L23.4238 11.2031L23.487 11.3265L24.4577 10.8054L24.3946 10.6821Z" fill="#183862" style="fill:#183862;fill:color(display-p3 0.0941 0.2196 0.3843);fill-opacity:1;"/>
<path d="M20.3278 17.928C19.2878 17.928 18.5998 17.4119 18.5918 17.4037L18.6718 17.2891C18.6878 17.2973 20.1278 18.3785 21.9838 17.3218L22.0478 17.4447C21.4238 17.8051 20.8318 17.928 20.3278 17.928Z" fill="#2C2C2C" style="fill:#2C2C2C;fill:color(display-p3 0.1725 0.1725 0.1725);fill-opacity:1;"/>
</g>
</g>
</svg>
