<svg width="1121" height="445" viewBox="0 0 1121 445" fill="none" xmlns="http://www.w3.org/2000/svg">
<path d="M0.800781 0.310547C0.800781 0.310547 224.317 278.811 557.442 278.811C905.612 278.811 1119.99 0.310547 1119.99 0.310547" stroke="url(#paint0_linear_19271_75730)"/>
<path d="M0.53125 80.3105C0.53125 80.3105 224.155 283.311 557.44 283.311C905.777 283.311 1120.26 80.3105 1120.26 80.3105" stroke="url(#paint1_linear_19271_75730)"/>
<path d="M0.53125 144.311C0.53125 144.311 224.155 285.311 557.44 285.311C905.777 285.311 1120.26 144.311 1120.26 144.311" stroke="url(#paint2_linear_19271_75730)"/>
<path d="M0.53125 208.311C0.53125 208.311 224.155 288.311 557.44 288.311C905.777 288.311 1120.26 208.311 1120.26 208.311" stroke="url(#paint3_linear_19271_75730)"/>
<path d="M0.261719 258.311C0.261719 258.311 223.885 291.311 557.17 291.311C905.507 291.311 1119.99 258.311 1119.99 258.311" stroke="url(#paint4_linear_19271_75730)"/>
<path d="M0.261719 292.311C0.261719 292.311 223.885 293.311 557.17 293.311C905.507 293.311 1119.99 292.311 1119.99 292.311" stroke="url(#paint5_linear_19271_75730)"/>
<path d="M0.261719 334.311C0.261719 334.311 223.885 297.311 557.17 297.311C905.507 297.311 1119.99 334.311 1119.99 334.311" stroke="url(#paint6_linear_19271_75730)"/>
<path d="M0.261719 384.311C0.261719 384.311 223.885 302.311 557.17 302.311C905.507 302.311 1119.99 384.311 1119.99 384.311" stroke="url(#paint7_linear_19271_75730)"/>
<path d="M0.261719 444.311C0.261719 444.311 223.885 306.311 557.17 306.311C905.507 306.311 1119.99 444.311 1119.99 444.311" stroke="url(#paint8_linear_19271_75730)"/>
<defs>
<linearGradient id="paint0_linear_19271_75730" x1="560.397" y1="0.310547" x2="560.397" y2="278.811" gradientUnits="userSpaceOnUse">
<stop stop-color="#E8F2FF" style="stop-color:#E8F2FF;stop-color:color(display-p3 0.9106 0.9506 1.0000);stop-opacity:1;"/>
<stop offset="0.5" stop-color="#84BBFF" style="stop-color:#84BBFF;stop-color:color(display-p3 0.5183 0.7338 1.0000);stop-opacity:1;"/>
<stop offset="1" stop-color="#0668E1" style="stop-color:#0668E1;stop-color:color(display-p3 0.0235 0.4078 0.8824);stop-opacity:1;"/>
</linearGradient>
<linearGradient id="paint1_linear_19271_75730" x1="560.397" y1="80.3105" x2="560.397" y2="283.311" gradientUnits="userSpaceOnUse">
<stop stop-color="#E8F2FF" style="stop-color:#E8F2FF;stop-color:color(display-p3 0.9106 0.9506 1.0000);stop-opacity:1;"/>
<stop offset="0.5" stop-color="#84BBFF" style="stop-color:#84BBFF;stop-color:color(display-p3 0.5183 0.7338 1.0000);stop-opacity:1;"/>
<stop offset="1" stop-color="#0668E1" style="stop-color:#0668E1;stop-color:color(display-p3 0.0235 0.4078 0.8824);stop-opacity:1;"/>
</linearGradient>
<linearGradient id="paint2_linear_19271_75730" x1="560.397" y1="144.311" x2="560.397" y2="285.311" gradientUnits="userSpaceOnUse">
<stop stop-color="#E8F2FF" style="stop-color:#E8F2FF;stop-color:color(display-p3 0.9106 0.9506 1.0000);stop-opacity:1;"/>
<stop offset="0.5" stop-color="#84BBFF" style="stop-color:#84BBFF;stop-color:color(display-p3 0.5183 0.7338 1.0000);stop-opacity:1;"/>
<stop offset="1" stop-color="#0668E1" style="stop-color:#0668E1;stop-color:color(display-p3 0.0235 0.4078 0.8824);stop-opacity:1;"/>
</linearGradient>
<linearGradient id="paint3_linear_19271_75730" x1="560.397" y1="208.311" x2="560.397" y2="288.311" gradientUnits="userSpaceOnUse">
<stop stop-color="#E8F2FF" style="stop-color:#E8F2FF;stop-color:color(display-p3 0.9106 0.9506 1.0000);stop-opacity:1;"/>
<stop offset="0.5" stop-color="#84BBFF" style="stop-color:#84BBFF;stop-color:color(display-p3 0.5183 0.7338 1.0000);stop-opacity:1;"/>
<stop offset="1" stop-color="#0668E1" style="stop-color:#0668E1;stop-color:color(display-p3 0.0235 0.4078 0.8824);stop-opacity:1;"/>
</linearGradient>
<linearGradient id="paint4_linear_19271_75730" x1="560.127" y1="258.311" x2="560.127" y2="291.311" gradientUnits="userSpaceOnUse">
<stop stop-color="#E8F2FF" style="stop-color:#E8F2FF;stop-color:color(display-p3 0.9106 0.9506 1.0000);stop-opacity:1;"/>
<stop offset="0.5" stop-color="#84BBFF" style="stop-color:#84BBFF;stop-color:color(display-p3 0.5183 0.7338 1.0000);stop-opacity:1;"/>
<stop offset="1" stop-color="#0668E1" style="stop-color:#0668E1;stop-color:color(display-p3 0.0235 0.4078 0.8824);stop-opacity:1;"/>
</linearGradient>
<linearGradient id="paint5_linear_19271_75730" x1="560.127" y1="292.311" x2="560.127" y2="293.311" gradientUnits="userSpaceOnUse">
<stop stop-color="#E8F2FF" style="stop-color:#E8F2FF;stop-color:color(display-p3 0.9106 0.9506 1.0000);stop-opacity:1;"/>
<stop offset="0.5" stop-color="#84BBFF" style="stop-color:#84BBFF;stop-color:color(display-p3 0.5183 0.7338 1.0000);stop-opacity:1;"/>
<stop offset="1" stop-color="#0668E1" style="stop-color:#0668E1;stop-color:color(display-p3 0.0235 0.4078 0.8824);stop-opacity:1;"/>
</linearGradient>
<linearGradient id="paint6_linear_19271_75730" x1="560.127" y1="334.311" x2="560.127" y2="297.311" gradientUnits="userSpaceOnUse">
<stop stop-color="#E8F2FF" style="stop-color:#E8F2FF;stop-color:color(display-p3 0.9106 0.9506 1.0000);stop-opacity:1;"/>
<stop offset="0.5" stop-color="#84BBFF" style="stop-color:#84BBFF;stop-color:color(display-p3 0.5183 0.7338 1.0000);stop-opacity:1;"/>
<stop offset="1" stop-color="#0668E1" style="stop-color:#0668E1;stop-color:color(display-p3 0.0235 0.4078 0.8824);stop-opacity:1;"/>
</linearGradient>
<linearGradient id="paint7_linear_19271_75730" x1="560.127" y1="384.311" x2="560.127" y2="302.311" gradientUnits="userSpaceOnUse">
<stop stop-color="#E8F2FF" style="stop-color:#E8F2FF;stop-color:color(display-p3 0.9106 0.9506 1.0000);stop-opacity:1;"/>
<stop offset="0.5" stop-color="#84BBFF" style="stop-color:#84BBFF;stop-color:color(display-p3 0.5183 0.7338 1.0000);stop-opacity:1;"/>
<stop offset="1" stop-color="#0668E1" style="stop-color:#0668E1;stop-color:color(display-p3 0.0235 0.4078 0.8824);stop-opacity:1;"/>
</linearGradient>
<linearGradient id="paint8_linear_19271_75730" x1="560.127" y1="444.311" x2="560.127" y2="306.311" gradientUnits="userSpaceOnUse">
<stop stop-color="#E8F2FF" style="stop-color:#E8F2FF;stop-color:color(display-p3 0.9106 0.9506 1.0000);stop-opacity:1;"/>
<stop offset="0.5" stop-color="#84BBFF" style="stop-color:#84BBFF;stop-color:color(display-p3 0.5183 0.7338 1.0000);stop-opacity:1;"/>
<stop offset="1" stop-color="#0668E1" style="stop-color:#0668E1;stop-color:color(display-p3 0.0235 0.4078 0.8824);stop-opacity:1;"/>
</linearGradient>
</defs>
</svg>
