<svg width="550" height="450" viewBox="0 0 550 450" fill="none" xmlns="http://www.w3.org/2000/svg">
<path d="M24 0.5H526C538.979 0.5 549.5 11.0213 549.5 24V121C549.5 133.979 538.979 144.5 526 144.5H504C490.469 144.5 479.5 155.469 479.5 169V281C479.5 294.531 490.469 305.5 504 305.5H526C538.979 305.5 549.5 316.021 549.5 329V426C549.5 438.979 538.979 449.5 526 449.5H24C11.0213 449.5 0.5 438.979 0.5 426V24C0.500002 11.0213 11.0213 0.5 24 0.5Z" fill="#0668E1" stroke="#C3DEFF" style="fill:#0668E1;fill:color(display-p3 0.0235 0.4078 0.8824);fill-opacity:1;stroke:#C3DEFF;stroke:color(display-p3 0.7644 0.8698 1.0000);stroke-opacity:1;"/>
</svg>
