<svg width="320" height="390" viewBox="0 0 320 390" fill="none" xmlns="http://www.w3.org/2000/svg">
<path d="M0.5 16L0.5 374C0.5 382.56 7.43959 389.5 16 389.5H87.1113C95.6716 389.5 102.611 382.56 102.611 374V356.363C102.612 347.251 109.999 339.863 119.111 339.863H200.889C210.001 339.863 217.388 347.251 217.389 356.363V374C217.389 382.56 224.328 389.5 232.889 389.5H304C312.56 389.5 319.5 382.56 319.5 374V16C319.5 7.43959 312.56 0.5 304 0.5L16 0.5C7.43959 0.500002 0.5 7.43959 0.5 16Z" fill="#0668E1" stroke="#C3DEFF" style="fill:#0668E1;fill:color(display-p3 0.0235 0.4078 0.8824);fill-opacity:1;stroke:#C3DEFF;stroke:color(display-p3 0.7644 0.8698 1.0000);stroke-opacity:1;"/>
</svg>
