<svg width="320" height="390" viewBox="0 0 320 390" fill="none" xmlns="http://www.w3.org/2000/svg">
<path d="M0.5 374L0.5 16C0.5 7.4396 7.43959 0.500001 16 0.5H87.1113C95.6716 0.50012 102.611 7.43967 102.611 16V33.6367C102.612 42.7493 109.999 50.1367 119.111 50.1367H200.889C210.001 50.1367 217.388 42.7493 217.389 33.6367V16C217.389 7.43965 224.328 0.500124 232.889 0.5H304C312.56 0.5 319.5 7.43959 319.5 16V374C319.5 382.56 312.56 389.5 304 389.5H16C7.43959 389.5 0.5 382.56 0.5 374Z" fill="#0668E1" stroke="#C3DEFF" style="fill:#0668E1;fill:color(display-p3 0.0235 0.4078 0.8824);fill-opacity:1;stroke:#C3DEFF;stroke:color(display-p3 0.7644 0.8698 1.0000);stroke-opacity:1;"/>
</svg>
