<svg width="550" height="450" viewBox="0 0 550 450" fill="none" xmlns="http://www.w3.org/2000/svg">
<path d="M526 0.5H24C11.0213 0.5 0.500001 11.0213 0.5 24V121C0.5 133.979 11.0213 144.5 24 144.5H46C59.531 144.5 70.5 155.469 70.5 169V281C70.5 294.531 59.531 305.5 46 305.5H24C11.0213 305.5 0.500016 316.021 0.5 329V426C0.5 438.979 11.0213 449.5 24 449.5H526C538.979 449.5 549.5 438.979 549.5 426V24C549.5 11.0213 538.979 0.5 526 0.5Z" fill="#0668E1" stroke="#C3DEFF" style="fill:#0668E1;fill:color(display-p3 0.0235 0.4078 0.8824);fill-opacity:1;stroke:#C3DEFF;stroke:color(display-p3 0.7644 0.8698 1.0000);stroke-opacity:1;"/>
</svg>
